<svg width="272" height="32" viewBox="0 0 272 32" fill="none" xmlns="http://www.w3.org/2000/svg">
<g clip-path="url(#clip0_17_2240)">
<path d="M23 16C23.0069 20.0406 22.2195 24.0431 20.6825 27.78C20.6079 27.9643 20.4801 28.1223 20.3153 28.2336C20.1506 28.3449 19.9564 28.4046 19.7575 28.405C19.6289 28.4038 19.5017 28.3783 19.3825 28.33C19.2609 28.2801 19.1503 28.2067 19.0571 28.114C18.9638 28.0214 18.8898 27.9112 18.8392 27.7899C18.7885 27.6686 18.7623 27.5384 18.7621 27.407C18.7618 27.2755 18.7874 27.1453 18.8375 27.0237C20.2741 23.5265 21.0089 19.7808 21 16C21 15.7348 21.1054 15.4804 21.2929 15.2929C21.4804 15.1054 21.7348 15 22 15C22.2652 15 22.5196 15.1054 22.7071 15.2929C22.8947 15.4804 23 15.7348 23 16ZM16 11C16.7033 11.0005 17.3986 11.1491 18.0406 11.4362C18.6826 11.7233 19.257 12.1424 19.7263 12.6662C19.8132 12.7665 19.9191 12.8484 20.038 12.9073C20.1569 12.9662 20.2863 13.0008 20.4187 13.0092C20.5511 13.0176 20.6838 12.9996 20.8092 12.9561C20.9345 12.9127 21.05 12.8448 21.1488 12.7563C21.2477 12.6678 21.3279 12.5606 21.3849 12.4408C21.4419 12.321 21.4745 12.191 21.4807 12.0585C21.487 11.926 21.4669 11.7936 21.4215 11.6689C21.3761 11.5443 21.3063 11.4299 21.2163 11.3325C20.271 10.2762 19.0273 9.53182 17.6498 9.19774C16.2723 8.86367 14.8258 8.95567 13.5016 9.46158C12.1775 9.96748 11.0382 10.8635 10.2344 12.031C9.43056 13.1985 9.00012 14.5825 9.00001 16C8.99988 18.8794 8.2687 21.7116 6.87501 24.2312C6.81132 24.3462 6.77088 24.4725 6.75601 24.603C6.74114 24.7335 6.75213 24.8657 6.78834 24.992C6.82456 25.1183 6.88529 25.2362 6.96708 25.339C7.04886 25.4419 7.1501 25.5276 7.26501 25.5912C7.37991 25.6549 7.50624 25.6954 7.63677 25.7102C7.76731 25.7251 7.89949 25.7141 8.02578 25.6779C8.15207 25.6417 8.26999 25.581 8.3728 25.4992C8.47562 25.4174 8.56132 25.3162 8.62501 25.2012C10.1826 22.3846 10.9997 19.2186 11 16C11 14.6739 11.5268 13.4021 12.4645 12.4645C13.4022 11.5268 14.6739 11 16 11ZM16 2.99999C14.5238 2.99822 13.0582 3.24848 11.6663 3.73999C11.4207 3.83182 11.221 4.01642 11.1102 4.25404C10.9993 4.49167 10.9863 4.76331 11.0738 5.01047C11.1613 5.25762 11.3424 5.46052 11.5781 5.57546C11.8137 5.6904 12.0851 5.70819 12.3338 5.62499C13.9932 5.03986 15.7688 4.86113 17.5115 5.10378C19.2543 5.34643 20.9135 6.00339 22.35 7.01958C23.7865 8.03577 24.9584 9.38156 25.7675 10.9441C26.5766 12.5066 26.9992 14.2404 27 16C27.0012 18.6171 26.7102 21.2262 26.1325 23.7787C26.0738 24.0368 26.1197 24.3076 26.2603 24.5318C26.4009 24.7561 26.6246 24.9154 26.8825 24.975C26.9555 24.9919 27.0301 25.0003 27.105 25C27.3317 24.9999 27.5517 24.9228 27.7289 24.7814C27.906 24.6399 28.0298 24.4424 28.08 24.2212C28.6909 21.5235 28.9994 18.7661 29 16C28.9964 12.5533 27.6256 9.24881 25.1884 6.81163C22.7512 4.37444 19.4467 3.00363 16 2.99999ZM8.66751 7.80249C8.76542 7.71492 8.84513 7.60891 8.90208 7.49053C8.95903 7.37215 8.99211 7.24372 8.99942 7.11255C9.00673 6.98139 8.98814 6.85007 8.9447 6.7261C8.90126 6.60212 8.83383 6.48791 8.74626 6.38999C8.65868 6.29208 8.55268 6.21237 8.4343 6.15542C8.31592 6.09847 8.18748 6.06539 8.05632 6.05808C7.92515 6.05077 7.79384 6.06936 7.66986 6.1128C7.54588 6.15624 7.43167 6.22367 7.33376 6.31124C5.97148 7.53128 4.88149 9.02461 4.13479 10.694C3.3881 12.3633 3.00144 14.1713 3.00001 16C3.00281 17.5819 2.66159 19.1455 2.00001 20.5825C1.94518 20.7018 1.9144 20.8308 1.90941 20.962C1.90443 21.0933 1.92534 21.2242 1.97096 21.3474C2.06308 21.5961 2.25024 21.798 2.49126 21.9087C2.73227 22.0195 3.0074 22.0299 3.25612 21.9378C3.50484 21.8457 3.70678 21.6585 3.81751 21.4175C4.59984 19.7188 5.00333 17.8702 5.00001 16C5.00133 14.4527 5.32861 12.923 5.96051 11.5106C6.59241 10.0981 7.51477 8.83469 8.66751 7.80249ZM14.24 25.0925C14.1207 25.0377 13.9917 25.0069 13.8605 25.0019C13.7292 24.9969 13.5983 25.0178 13.4751 25.0634C13.352 25.109 13.239 25.1785 13.1427 25.2677C13.0464 25.357 12.9686 25.4644 12.9138 25.5837C12.6738 26.1087 12.4138 26.6325 12.1275 27.1387C12.0636 27.2537 12.0229 27.3801 12.0079 27.5108C11.9929 27.6415 12.0038 27.7738 12.0401 27.9003C12.0763 28.0267 12.1371 28.1448 12.219 28.2477C12.301 28.3506 12.4024 28.4363 12.5175 28.5C12.6653 28.5825 12.8319 28.6256 13.0013 28.625C13.1798 28.6251 13.3551 28.5774 13.509 28.4868C13.6628 28.3962 13.7897 28.2661 13.8763 28.11C14.1813 27.5587 14.4688 26.985 14.7313 26.42C14.7863 26.3006 14.8172 26.1715 14.8223 26.0401C14.8274 25.9088 14.8065 25.7777 14.7609 25.6544C14.7153 25.5311 14.6458 25.418 14.5564 25.3216C14.467 25.2252 14.3595 25.1473 14.24 25.0925ZM16 15C15.7348 15 15.4804 15.1054 15.2929 15.2929C15.1054 15.4804 15 15.7348 15 16C15.0007 17.9394 14.7576 19.8712 14.2763 21.75C14.2102 22.0068 14.2488 22.2792 14.3836 22.5075C14.5184 22.7359 14.7383 22.9013 14.995 22.9675C15.0767 22.9883 15.1607 22.9988 15.245 22.9987C15.4666 22.9986 15.6818 22.9248 15.8569 22.7891C16.032 22.6533 16.1571 22.4633 16.2125 22.2487C16.7366 20.2068 17.0012 18.1069 17 15.9987C16.9997 15.7337 16.8942 15.4797 16.7067 15.2924C16.5192 15.1052 16.265 15 16 15Z" fill="currentColor"/>
<path d="M70.4998 16C70.5071 19.9753 69.7329 23.9134 68.221 27.59C68.1661 27.7048 68.0694 27.7944 67.9507 27.8404C67.8319 27.8864 67.7002 27.8853 67.5822 27.8375C67.4642 27.7897 67.3689 27.6986 67.3157 27.583C67.2626 27.4673 67.2555 27.3357 67.296 27.215C68.7586 23.6573 69.5074 19.8466 69.4998 16C69.4998 15.8674 69.5525 15.7402 69.6462 15.6465C69.74 15.5527 69.8672 15.5 69.9998 15.5C70.1324 15.5 70.2596 15.5527 70.3533 15.6465C70.4471 15.7402 70.4998 15.8674 70.4998 16ZM68.0985 12.3338C68.1869 12.4332 68.3111 12.4935 68.4439 12.5014C68.5767 12.5092 68.7072 12.464 68.8067 12.3756C68.9061 12.2873 68.9664 12.163 68.9742 12.0302C68.9821 11.8974 68.9369 11.767 68.8485 11.6675C67.9713 10.6849 66.8162 9.99203 65.5363 9.68065C64.2564 9.36928 62.9121 9.4541 61.6815 9.9239C60.4509 10.3937 59.3921 11.2263 58.6453 12.3114C57.8985 13.3964 57.4991 14.6828 57.4998 16C57.501 18.9645 56.7492 21.8807 55.3148 24.475C55.2505 24.591 55.2349 24.7279 55.2714 24.8554C55.308 24.9829 55.3937 25.0907 55.5098 25.155C55.6258 25.2193 55.7626 25.2349 55.8902 25.1983C56.0177 25.1618 56.1255 25.076 56.1898 24.96C57.7056 22.217 58.5005 19.134 58.4998 16C58.4998 14.8862 58.8379 13.7986 59.4695 12.8812C60.1011 11.9638 60.9963 11.2597 62.0367 10.8622C63.0772 10.4647 64.2138 10.3924 65.2962 10.6549C66.3786 10.9175 67.3558 11.5025 68.0985 12.3325V12.3338ZM63.9998 3.50001C62.5807 3.49864 61.1718 3.73917 59.8335 4.21126C59.7696 4.23143 59.7103 4.26426 59.6593 4.30781C59.6082 4.35136 59.5665 4.40473 59.5365 4.46475C59.5066 4.52476 59.489 4.59019 59.4848 4.65715C59.4807 4.7241 59.49 4.7912 59.5124 4.85446C59.5347 4.91772 59.5695 4.97584 59.6147 5.02537C59.66 5.07489 59.7147 5.1148 59.7757 5.14273C59.8367 5.17065 59.9027 5.18602 59.9698 5.18792C60.0368 5.18981 60.1036 5.17819 60.166 5.15376C61.9009 4.5427 63.757 4.35632 65.5788 4.61025C67.4005 4.86419 69.1349 5.55102 70.6366 6.61322C72.1382 7.67542 73.3635 9.08205 74.2096 10.7152C75.0558 12.3484 75.4982 14.1606 75.4998 16C75.5022 18.6544 75.2088 21.3007 74.6248 23.89C74.5956 24.0189 74.6187 24.1542 74.6889 24.2662C74.7592 24.3781 74.871 24.4577 74.9998 24.4875C75.0363 24.496 75.0736 24.5002 75.111 24.5C75.2243 24.4997 75.334 24.4609 75.4224 24.3901C75.5107 24.3192 75.5724 24.2205 75.5973 24.11C76.1993 21.4487 76.502 18.7285 76.4998 16C76.4961 12.6859 75.178 9.50861 72.8346 7.16519C70.4912 4.82177 67.3139 3.50365 63.9998 3.50001ZM56.3335 7.42876C56.433 7.34024 56.4932 7.21584 56.5009 7.08292C56.5087 6.95001 56.4633 6.81946 56.3748 6.72001C56.2863 6.62055 56.1619 6.56033 56.0289 6.55259C55.896 6.54486 55.7655 6.59024 55.666 6.67876C54.3557 7.8526 53.3075 9.28938 52.5897 10.8954C51.8718 12.5015 51.5005 14.2408 51.4998 16C51.5035 17.6538 51.1478 19.2886 50.4573 20.7913C50.4301 20.8512 50.415 20.9158 50.4129 20.9816C50.4107 21.0473 50.4216 21.1128 50.4448 21.1744C50.468 21.2359 50.5032 21.2923 50.5482 21.3402C50.5932 21.3882 50.6473 21.4267 50.7073 21.4538C50.7722 21.4841 50.8431 21.4999 50.9148 21.5C51.0105 21.5001 51.1043 21.4728 51.185 21.4211C51.2657 21.3695 51.3298 21.2958 51.3698 21.2088C52.1197 19.575 52.5053 17.7977 52.4998 16C52.5011 14.3822 52.8432 12.7829 53.5038 11.3061C54.1643 9.82927 55.1285 8.50816 56.3335 7.42876ZM62.031 25.5463C61.9711 25.5189 61.9063 25.5036 61.8404 25.5014C61.7745 25.4992 61.7088 25.51 61.6472 25.5332C61.5855 25.5564 61.529 25.5916 61.4809 25.6368C61.4329 25.6819 61.3943 25.7361 61.3673 25.7963C61.1173 26.3325 60.851 26.8675 60.5648 27.385C60.5329 27.4425 60.5127 27.5056 60.5053 27.5709C60.4978 27.6362 60.5033 27.7022 60.5214 27.7654C60.5396 27.8285 60.5699 27.8875 60.6108 27.9389C60.6517 27.9903 60.7023 28.0332 60.7598 28.065C60.8172 28.0969 60.8804 28.1171 60.9457 28.1245C61.0109 28.1319 61.077 28.1264 61.1402 28.1083C61.2033 28.0902 61.2623 28.0599 61.3137 28.019C61.3651 27.9781 61.4079 27.9275 61.4398 27.87C61.7385 27.33 62.021 26.7725 62.2773 26.2138C62.3054 26.1538 62.3213 26.0889 62.3241 26.0228C62.3269 25.9567 62.3165 25.8906 62.2936 25.8286C62.2707 25.7665 62.2357 25.7095 62.1906 25.6611C62.1455 25.6126 62.0913 25.5736 62.031 25.5463ZM63.9998 15.5C63.8672 15.5 63.74 15.5527 63.6462 15.6465C63.5525 15.7402 63.4998 15.8674 63.4998 16C63.5009 17.9817 63.2523 19.9555 62.7598 21.875C62.7267 22.0033 62.7459 22.1395 62.8132 22.2536C62.8805 22.3677 62.9903 22.4505 63.1185 22.4838C63.1593 22.4946 63.2013 22.5001 63.2435 22.5C63.3543 22.4999 63.4619 22.463 63.5495 22.3952C63.637 22.3273 63.6996 22.2323 63.7273 22.125C64.2412 20.1239 64.5007 18.066 64.4998 16C64.4998 15.8674 64.4471 15.7402 64.3533 15.6465C64.2596 15.5527 64.1324 15.5 63.9998 15.5Z" fill="currentColor"/>
<path d="M118.75 16C118.758 20.0079 117.977 23.9782 116.453 27.685C116.396 27.8225 116.3 27.9402 116.177 28.023C116.053 28.1058 115.908 28.15 115.759 28.15C115.661 28.1496 115.565 28.1305 115.474 28.0937C115.383 28.0563 115.3 28.0013 115.23 27.9317C115.16 27.8622 115.104 27.7796 115.066 27.6885C115.028 27.5975 115.009 27.4999 115.009 27.4012C115.008 27.3026 115.028 27.2049 115.065 27.1137C116.515 23.5882 117.257 19.812 117.25 16C117.25 15.8011 117.329 15.6103 117.47 15.4697C117.611 15.329 117.801 15.25 118 15.25C118.199 15.25 118.39 15.329 118.531 15.4697C118.671 15.6103 118.75 15.8011 118.75 16ZM112 10.75C112.739 10.7505 113.469 10.9066 114.143 11.2082C114.818 11.5097 115.421 11.9498 115.914 12.5C115.979 12.576 116.058 12.6382 116.148 12.6831C116.237 12.728 116.334 12.7545 116.434 12.7612C116.534 12.7679 116.634 12.7546 116.728 12.722C116.823 12.6895 116.91 12.6384 116.984 12.5718C117.059 12.5051 117.119 12.4243 117.162 12.3339C117.205 12.2436 117.229 12.1456 117.234 12.0458C117.238 11.9459 117.222 11.8462 117.188 11.7525C117.153 11.6588 117.1 11.5729 117.031 11.5C116.12 10.481 114.921 9.76279 113.592 9.44034C112.264 9.11789 110.869 9.20642 109.592 9.69422C108.315 10.182 107.216 11.0461 106.441 12.1721C105.665 13.2981 105.25 14.6329 105.25 16C105.251 18.9215 104.511 21.7954 103.098 24.3525C103.047 24.4388 103.014 24.5343 103.001 24.6335C102.988 24.7326 102.995 24.8334 103.021 24.93C103.047 25.0265 103.093 25.1167 103.154 25.1954C103.216 25.2741 103.293 25.3397 103.381 25.3882C103.468 25.4368 103.564 25.4673 103.664 25.4781C103.763 25.4888 103.864 25.4796 103.96 25.4508C104.056 25.4221 104.145 25.3745 104.222 25.3108C104.299 25.2471 104.363 25.1687 104.409 25.08C105.945 22.3003 106.751 19.1761 106.75 16C106.75 14.6076 107.303 13.2723 108.288 12.2877C109.272 11.3031 110.608 10.75 112 10.75ZM112 3.25C110.553 3.24803 109.115 3.49365 107.75 3.97625C107.655 4.00731 107.567 4.05707 107.492 4.12261C107.416 4.18814 107.354 4.26813 107.31 4.35786C107.266 4.44759 107.24 4.54525 107.234 4.64509C107.229 4.74493 107.243 4.84494 107.276 4.93923C107.309 5.03352 107.361 5.12019 107.429 5.19414C107.496 5.26809 107.577 5.32782 107.668 5.36982C107.759 5.41182 107.857 5.43524 107.957 5.43871C108.057 5.44217 108.157 5.42561 108.25 5.39C109.947 4.79207 111.763 4.60962 113.545 4.85794C115.327 5.10626 117.024 5.77812 118.493 6.81721C119.962 7.85631 121.161 9.23237 121.988 10.8301C122.816 12.4278 123.249 14.2006 123.25 16C123.251 18.6357 122.957 21.2632 122.375 23.8337C122.352 23.9304 122.348 24.0307 122.363 24.129C122.379 24.2272 122.414 24.3214 122.466 24.4059C122.518 24.4905 122.587 24.5639 122.668 24.6217C122.749 24.6795 122.841 24.7206 122.938 24.7426C123.035 24.7647 123.135 24.7672 123.233 24.7501C123.331 24.733 123.425 24.6965 123.508 24.6429C123.592 24.5893 123.664 24.5195 123.721 24.4377C123.777 24.3558 123.817 24.2636 123.838 24.1662C124.445 21.4866 124.751 18.7476 124.75 16C124.746 12.6197 123.402 9.379 121.011 6.98877C118.621 4.59854 115.381 3.25397 112 3.25ZM104.5 7.615C104.636 7.4793 104.714 7.29684 104.719 7.10512C104.724 6.91341 104.656 6.727 104.528 6.58422C104.4 6.44144 104.222 6.35315 104.031 6.33748C103.84 6.32182 103.65 6.37997 103.5 6.5C102.165 7.6965 101.096 9.16077 100.364 10.7975C99.6316 12.4343 99.2522 14.2069 99.2502 16C99.2543 17.6179 98.9067 19.2173 98.2315 20.6875C98.1862 20.7775 98.1594 20.8757 98.1529 20.9763C98.1464 21.0769 98.1603 21.1777 98.1936 21.2729C98.2269 21.368 98.2791 21.4554 98.347 21.5299C98.4149 21.6044 98.4971 21.6644 98.5887 21.7065C98.6803 21.7485 98.7794 21.7716 98.8801 21.7745C98.9809 21.7773 99.0812 21.7598 99.175 21.7231C99.2689 21.6863 99.3543 21.631 99.4263 21.5604C99.4983 21.4899 99.5553 21.4056 99.594 21.3125C100.36 19.6465 100.755 17.8337 100.75 16C100.751 14.4174 101.086 12.8528 101.732 11.4081C102.378 9.96336 103.321 8.67095 104.5 7.615ZM110.135 25.32C110.045 25.2781 109.948 25.2543 109.849 25.2502C109.75 25.246 109.651 25.2615 109.558 25.2958C109.465 25.3301 109.38 25.3825 109.307 25.4499C109.235 25.5174 109.176 25.5985 109.135 25.6887C108.885 26.2187 108.624 26.7475 108.34 27.26C108.244 27.4339 108.221 27.6389 108.276 27.8299C108.331 28.0209 108.459 28.1823 108.633 28.2787C108.743 28.3412 108.868 28.3739 108.995 28.3737C109.129 28.3738 109.261 28.338 109.376 28.2701C109.491 28.2022 109.587 28.1046 109.651 27.9875C109.954 27.4425 110.239 26.8787 110.499 26.3137C110.582 26.1337 110.59 25.928 110.522 25.7418C110.454 25.5555 110.315 25.4039 110.135 25.32ZM112 15.25C111.801 15.25 111.611 15.329 111.47 15.4697C111.329 15.6103 111.25 15.8011 111.25 16C111.251 17.9606 111.005 19.9135 110.518 21.8125C110.493 21.908 110.488 22.0073 110.501 22.1049C110.515 22.2025 110.548 22.2965 110.598 22.3813C110.648 22.4662 110.715 22.5403 110.794 22.5995C110.873 22.6587 110.962 22.7018 111.058 22.7262C111.119 22.7421 111.182 22.7501 111.245 22.75C111.411 22.7497 111.573 22.6944 111.704 22.5926C111.835 22.4908 111.929 22.3483 111.97 22.1875C112.489 20.1659 112.751 18.0871 112.75 16C112.75 15.8011 112.671 15.6103 112.531 15.4697C112.39 15.329 112.199 15.25 112 15.25Z" fill="currentColor"/>
<path d="M155.5 16C155.5 19.3039 154.661 22.5538 153.062 25.445C152.967 25.6174 152.838 25.7692 152.684 25.8919C152.53 26.0146 152.353 26.1057 152.164 26.16C151.974 26.2143 151.776 26.2308 151.58 26.2085C151.384 26.1862 151.195 26.1255 151.022 26.03C150.674 25.8371 150.417 25.5137 150.307 25.1312C150.253 24.9417 150.237 24.7435 150.259 24.5477C150.281 24.3519 150.342 24.1624 150.437 23.99C151.791 21.5443 152.5 18.795 152.5 16C152.5 14.5568 152.917 13.1443 153.7 11.9319C154.482 10.7195 155.599 9.75881 156.914 9.16498C158.229 8.57116 159.688 8.36947 161.115 8.5841C162.542 8.79873 163.877 9.42056 164.96 10.375C165.108 10.5053 165.228 10.6635 165.315 10.8405C165.402 11.0174 165.452 11.2097 165.465 11.4063C165.477 11.6029 165.45 11.8001 165.387 11.9864C165.323 12.1728 165.223 12.3448 165.092 12.4925C164.962 12.6402 164.804 12.7609 164.627 12.8475C164.45 12.9341 164.258 12.985 164.061 12.9973C163.864 13.0096 163.667 12.9831 163.481 12.9192C163.295 12.8553 163.123 12.7553 162.975 12.625C162.325 12.0527 161.525 11.6798 160.668 11.5512C159.812 11.4226 158.937 11.5437 158.148 11.9C157.359 12.2562 156.69 12.8325 156.22 13.5597C155.75 14.287 155.5 15.1343 155.5 16ZM166.02 15H166C165.606 14.9999 165.229 15.1545 164.948 15.4305C164.667 15.7064 164.506 16.0815 164.5 16.475C164.447 20.0294 163.726 23.5421 162.375 26.83C162.295 27.013 162.253 27.21 162.25 27.4096C162.247 27.6092 162.285 27.8073 162.36 27.9923C162.435 28.1773 162.546 28.3455 162.686 28.487C162.827 28.6286 162.995 28.7406 163.179 28.8165C163.364 28.8925 163.562 28.9308 163.761 28.9293C163.961 28.9278 164.158 28.8865 164.342 28.8078C164.525 28.729 164.691 28.6145 164.829 28.4709C164.968 28.3272 165.077 28.1574 165.149 27.9713C166.644 24.3372 167.442 20.4542 167.5 16.525C167.503 16.3275 167.467 16.1313 167.395 15.9476C167.322 15.764 167.214 15.5965 167.076 15.4548C166.938 15.3131 166.774 15.2 166.593 15.1219C166.411 15.0439 166.216 15.0024 166.019 15H166.02ZM158.242 25.1513C157.885 24.9788 157.474 24.9548 157.099 25.0846C156.725 25.2144 156.416 25.4873 156.242 25.8438C156.071 26.195 155.886 26.55 155.695 26.8963C155.599 27.0686 155.539 27.2581 155.517 27.4539C155.494 27.6496 155.511 27.8479 155.565 28.0372C155.62 28.2266 155.711 28.4034 155.834 28.5576C155.956 28.7117 156.108 28.8402 156.281 28.9356C156.453 29.0311 156.642 29.0917 156.838 29.1139C157.034 29.1361 157.232 29.1196 157.422 29.0652C157.611 29.0108 157.788 28.9197 157.942 28.7969C158.096 28.6742 158.224 28.5224 158.32 28.35C158.537 27.9575 158.746 27.5563 158.945 27.1563C159.031 26.9785 159.081 26.7855 159.092 26.5884C159.103 26.3913 159.075 26.1939 159.009 26.0077C158.944 25.8214 158.842 25.6498 158.711 25.5029C158.579 25.3559 158.419 25.2364 158.241 25.1513H158.242ZM160 14.5C159.602 14.5 159.221 14.658 158.939 14.9393C158.658 15.2206 158.5 15.6022 158.5 16C158.501 17.7363 158.301 19.4668 157.906 21.1575C157.815 21.5447 157.882 21.9521 158.092 22.2901C158.301 22.6281 158.637 22.8691 159.024 22.96C159.136 22.9868 159.252 23.0002 159.367 23C159.705 22.9996 160.033 22.8851 160.298 22.675C160.563 22.4649 160.749 22.1716 160.826 21.8425C161.275 19.9274 161.501 17.9669 161.5 16C161.5 15.6022 161.342 15.2206 161.061 14.9393C160.779 14.658 160.398 14.5 160 14.5ZM160 2.5C158.666 2.49896 157.339 2.69568 156.062 3.08375C155.874 3.14121 155.698 3.23528 155.546 3.3606C155.393 3.48592 155.267 3.64004 155.174 3.81415C155.081 3.98826 155.024 4.17895 155.004 4.37534C154.985 4.57174 155.005 4.76998 155.062 4.95875C155.178 5.34 155.441 5.65954 155.793 5.84708C155.967 5.93994 156.158 5.99759 156.354 6.01675C156.55 6.03592 156.749 6.01621 156.937 5.95875C158.507 5.48189 160.166 5.37901 161.782 5.65836C163.398 5.9377 164.927 6.59151 166.245 7.56746C167.563 8.5434 168.634 9.81437 169.373 11.2787C170.112 12.7429 170.498 14.3599 170.5 16C170.501 18.5797 170.214 21.1514 169.645 23.6675C169.601 23.8596 169.596 24.0585 169.629 24.2527C169.662 24.4469 169.734 24.6327 169.839 24.7994C169.944 24.966 170.081 25.1104 170.241 25.2242C170.402 25.338 170.584 25.419 170.776 25.4625C170.885 25.4878 170.997 25.5004 171.109 25.5C171.449 25.5 171.779 25.3844 172.044 25.1723C172.31 24.9602 172.496 24.6641 172.571 24.3325C173.189 21.5981 173.501 18.8034 173.5 16C173.496 12.4208 172.072 8.98933 169.541 6.45845C167.011 3.92757 163.579 2.50397 160 2.5ZM152.559 6.4675C152.419 6.32766 152.254 6.21671 152.071 6.141C151.889 6.06529 151.694 6.02632 151.496 6.02632C151.299 6.02632 151.103 6.06529 150.921 6.141C150.739 6.21671 150.573 6.32766 150.434 6.4675C149.182 7.71837 148.189 9.20464 147.514 10.8407C146.839 12.4767 146.494 14.2302 146.5 16C146.504 17.5101 146.179 19.003 145.549 20.375C145.461 20.5548 145.41 20.7502 145.399 20.9499C145.388 21.1496 145.417 21.3494 145.485 21.5377C145.552 21.726 145.656 21.8989 145.792 22.0463C145.927 22.1936 146.09 22.3125 146.272 22.3958C146.454 22.4792 146.65 22.5253 146.85 22.5316C147.05 22.5379 147.249 22.5041 147.436 22.4323C147.622 22.3604 147.793 22.252 147.937 22.1134C148.081 21.9748 148.196 21.8087 148.275 21.625C149.086 19.861 149.504 17.9416 149.5 16C149.496 14.6237 149.765 13.2602 150.29 11.9882C150.816 10.7162 151.588 9.56085 152.562 8.58875C152.843 8.30696 153.001 7.92516 153 7.52735C152.999 7.12955 152.84 6.74831 152.559 6.4675Z" fill="currentColor"/>
<path d="M207.801 3C200.84 3.10625 195.151 8.75875 195 15.7187C194.947 18.0597 195.531 20.371 196.689 22.4062C196.734 22.4859 196.8 22.5515 196.881 22.596C196.961 22.6404 197.052 22.6619 197.143 22.6582C197.235 22.6545 197.324 22.6256 197.4 22.5748C197.476 22.5239 197.537 22.4531 197.576 22.37C198.515 20.3779 199.002 18.2024 199 16C198.999 13.8246 199.787 11.7226 201.217 10.0837C201.379 9.89115 201.606 9.76455 201.855 9.72792C202.103 9.69129 202.357 9.74718 202.567 9.885C202.685 9.96519 202.783 10.0694 202.857 10.1908C202.931 10.3121 202.978 10.4478 202.995 10.5888C203.013 10.7297 203 10.8728 202.957 11.0083C202.915 11.1439 202.844 11.2689 202.75 11.375C201.622 12.6519 201 14.2966 201 16C201.004 19.0005 200.208 21.9478 198.695 24.5387C198.639 24.634 198.616 24.7452 198.63 24.8549C198.643 24.9646 198.693 25.0666 198.771 25.145C199.267 25.6481 199.804 26.11 200.375 26.5262C200.431 26.5677 200.496 26.5968 200.564 26.6116C200.633 26.6265 200.704 26.6268 200.772 26.6125C200.841 26.5983 200.906 26.5698 200.963 26.5288C201.019 26.4879 201.067 26.4355 201.102 26.375C201.638 25.4958 202.106 24.5764 202.5 23.625C202.55 23.5035 202.623 23.3931 202.716 23.3C202.809 23.207 202.919 23.1331 203.04 23.0826C203.162 23.0321 203.292 23.006 203.423 23.0058C203.554 23.0055 203.685 23.0312 203.806 23.0812C203.928 23.1313 204.038 23.2048 204.131 23.2976C204.224 23.3903 204.298 23.5005 204.349 23.6218C204.399 23.7431 204.425 23.8731 204.425 24.0045C204.426 24.1359 204.4 24.266 204.35 24.3875C203.93 25.4038 203.435 26.3874 202.869 27.33C202.832 27.3915 202.809 27.4602 202.801 27.5314C202.793 27.6026 202.801 27.6746 202.823 27.7427C202.845 27.8107 202.882 27.8731 202.931 27.9257C202.979 27.9783 203.039 28.0198 203.105 28.0475C204.107 28.4564 205.157 28.7377 206.23 28.885C206.33 28.8997 206.432 28.8837 206.523 28.8391C206.614 28.7944 206.689 28.7233 206.739 28.635C208.571 25.3433 209.662 21.6911 209.935 17.9337C209.94 17.7999 209.973 17.6685 210.03 17.5474C210.087 17.4263 210.168 17.318 210.268 17.2288C210.368 17.1396 210.485 17.0714 210.612 17.0283C210.739 16.9851 210.873 16.9679 211.007 16.9776C211.14 16.9873 211.27 17.0238 211.39 17.0848C211.509 17.1459 211.615 17.2302 211.701 17.333C211.787 17.4357 211.851 17.5546 211.89 17.6827C211.93 17.8108 211.943 17.9455 211.929 18.0787C211.674 21.5834 210.759 25.0082 209.231 28.1725C209.191 28.2534 209.174 28.3437 209.181 28.4336C209.188 28.5236 209.22 28.6099 209.272 28.6835C209.324 28.757 209.395 28.8151 209.478 28.8514C209.561 28.8878 209.652 28.9011 209.741 28.89C210.618 28.7722 211.481 28.5648 212.316 28.2712C212.382 28.2478 212.442 28.2109 212.492 28.1629C212.543 28.1149 212.583 28.0569 212.61 27.9925C214.169 24.2624 214.981 20.2627 215 16.22C215.027 12.39 212.075 9.13625 208.25 9.00375C207.576 8.98041 206.903 9.05322 206.25 9.22C206.118 9.25386 205.981 9.26043 205.846 9.23929C205.711 9.21816 205.583 9.16976 205.467 9.09708C205.352 9.0244 205.253 8.92896 205.176 8.81662C205.099 8.70427 205.046 8.57739 205.02 8.44375C204.976 8.18471 205.033 7.91881 205.18 7.70057C205.326 7.48233 205.55 7.32828 205.806 7.27C207.134 6.93764 208.519 6.91212 209.858 7.19537C211.197 7.47863 212.453 8.06323 213.532 8.90476C214.611 9.74629 215.484 10.8226 216.085 12.052C216.686 13.2815 216.999 14.6316 217 16C217.003 19.1572 216.554 22.2986 215.667 25.3287C215.636 25.4327 215.64 25.5438 215.678 25.6455C215.716 25.7472 215.785 25.8338 215.877 25.8923C215.968 25.9509 216.076 25.9782 216.184 25.9701C216.292 25.962 216.395 25.919 216.476 25.8475C218.499 24.105 219.936 21.7821 220.592 19.1945C221.248 16.6068 221.092 13.8798 220.144 11.3841C219.197 8.88831 217.504 6.7448 215.295 5.2448C213.087 3.7448 210.47 2.96103 207.801 3ZM208 12C208.563 12.0005 209.119 12.1195 209.633 12.3493C210.146 12.5791 210.606 12.9145 210.981 13.3337C211.074 13.4378 211.144 13.5602 211.187 13.693C211.23 13.8258 211.245 13.9662 211.23 14.105C211.216 14.2438 211.172 14.378 211.103 14.499C211.033 14.62 210.939 14.7251 210.826 14.8075C210.618 14.9507 210.365 15.0127 210.114 14.9819C209.864 14.951 209.633 14.8294 209.466 14.64C209.205 14.3585 208.868 14.1582 208.496 14.0628C208.124 13.9675 207.733 13.9813 207.369 14.1025C206.963 14.2437 206.612 14.5088 206.365 14.8602C206.119 15.2117 205.989 15.6318 205.994 16.0612C205.99 17.4457 205.857 18.8268 205.595 20.1862C205.552 20.413 205.432 20.6179 205.255 20.7662C205.078 20.9145 204.856 20.9971 204.625 21C204.562 21.0003 204.499 20.9945 204.437 20.9825C204.175 20.9228 203.946 20.7635 203.799 20.5382C203.652 20.3129 203.598 20.0393 203.649 19.775C203.884 18.5305 204.002 17.2666 204 16C204 14.9391 204.421 13.9217 205.171 13.1716C205.922 12.4214 206.939 12 208 12Z" fill="currentColor"/>
<path opacity="0.2" d="M268 16C268 18.3734 267.296 20.6935 265.978 22.6668C264.659 24.6402 262.785 26.1783 260.592 27.0866C258.399 27.9948 255.987 28.2324 253.659 27.7694C251.331 27.3064 249.193 26.1635 247.515 24.4853C245.836 22.8071 244.694 20.6689 244.231 18.3411C243.768 16.0133 244.005 13.6005 244.913 11.4078C245.822 9.21509 247.36 7.34094 249.333 6.02236C251.307 4.70379 253.627 4 256 4C259.183 4 262.235 5.26428 264.485 7.51472C266.736 9.76515 268 12.8174 268 16Z" fill="currentColor"/>
<path d="M263 16C263.007 20.0406 262.219 24.0431 260.683 27.78C260.608 27.9643 260.48 28.1223 260.315 28.2336C260.151 28.3449 259.956 28.4046 259.758 28.405C259.629 28.4038 259.502 28.3783 259.383 28.33C259.261 28.2801 259.15 28.2067 259.057 28.114C258.964 28.0214 258.89 27.9112 258.839 27.7899C258.789 27.6686 258.762 27.5384 258.762 27.407C258.762 27.2755 258.787 27.1453 258.838 27.0237C260.274 23.5265 261.009 19.7808 261 16C261 15.7348 261.105 15.4804 261.293 15.2929C261.48 15.1054 261.735 15 262 15C262.265 15 262.52 15.1054 262.707 15.2929C262.895 15.4804 263 15.7348 263 16ZM256 11C256.703 11.0005 257.399 11.1491 258.041 11.4362C258.683 11.7233 259.257 12.1424 259.726 12.6662C259.813 12.7665 259.919 12.8484 260.038 12.9073C260.157 12.9662 260.286 13.0008 260.419 13.0092C260.551 13.0176 260.684 12.9996 260.809 12.9561C260.935 12.9127 261.05 12.8448 261.149 12.7563C261.248 12.6678 261.328 12.5606 261.385 12.4408C261.442 12.321 261.474 12.191 261.481 12.0585C261.487 11.926 261.467 11.7936 261.421 11.6689C261.376 11.5443 261.306 11.4299 261.216 11.3325C260.271 10.2762 259.027 9.53182 257.65 9.19774C256.272 8.86367 254.826 8.95567 253.502 9.46158C252.178 9.96748 251.038 10.8635 250.234 12.031C249.431 13.1985 249 14.5825 249 16C249 18.8794 248.269 21.7116 246.875 24.2312C246.811 24.3462 246.771 24.4725 246.756 24.603C246.741 24.7335 246.752 24.8657 246.788 24.992C246.825 25.1183 246.885 25.2362 246.967 25.339C247.049 25.4419 247.15 25.5276 247.265 25.5912C247.38 25.6549 247.506 25.6954 247.637 25.7102C247.767 25.7251 247.899 25.7141 248.026 25.6779C248.152 25.6417 248.27 25.581 248.373 25.4992C248.476 25.4174 248.561 25.3162 248.625 25.2012C250.183 22.3846 251 19.2186 251 16C251 14.6739 251.527 13.4021 252.464 12.4645C253.402 11.5268 254.674 11 256 11ZM256 2.99999C254.524 2.99822 253.058 3.24848 251.666 3.73999C251.421 3.83182 251.221 4.01642 251.11 4.25404C250.999 4.49167 250.986 4.76331 251.074 5.01047C251.161 5.25762 251.342 5.46052 251.578 5.57546C251.814 5.6904 252.085 5.70819 252.334 5.62499C253.993 5.03986 255.769 4.86113 257.512 5.10378C259.254 5.34643 260.914 6.00339 262.35 7.01958C263.787 8.03577 264.958 9.38156 265.768 10.9441C266.577 12.5066 266.999 14.2404 267 16C267.001 18.6171 266.71 21.2262 266.133 23.7787C266.074 24.0368 266.12 24.3076 266.26 24.5318C266.401 24.7561 266.625 24.9154 266.883 24.975C266.955 24.9919 267.03 25.0003 267.105 25C267.332 24.9999 267.552 24.9228 267.729 24.7814C267.906 24.6399 268.03 24.4424 268.08 24.2212C268.691 21.5235 268.999 18.7661 269 16C268.996 12.5533 267.626 9.24881 265.188 6.81163C262.751 4.37444 259.447 3.00363 256 2.99999ZM248.664 7.80249C248.762 7.71492 248.841 7.60891 248.898 7.49053C248.955 7.37215 248.988 7.24372 248.996 7.11255C249.003 6.98139 248.984 6.85007 248.941 6.72609C248.898 6.60212 248.83 6.48791 248.743 6.38999C248.655 6.29208 248.549 6.21237 248.431 6.15542C248.312 6.09847 248.184 6.06539 248.053 6.05808C247.921 6.05077 247.79 6.06936 247.666 6.1128C247.542 6.15624 247.428 6.22367 247.33 6.31124C245.968 7.53162 244.879 9.0251 244.133 10.6944C243.387 12.3638 243.001 14.1715 243 16C243.003 17.5819 242.662 19.1455 242 20.5825C241.945 20.7018 241.914 20.8308 241.909 20.962C241.904 21.0933 241.925 21.2242 241.971 21.3474C242.063 21.5961 242.25 21.798 242.491 21.9087C242.732 22.0195 243.007 22.0299 243.256 21.9378C243.505 21.8457 243.707 21.6585 243.818 21.4175C244.6 19.7188 245.003 17.8702 245 16C245.001 14.4529 245.328 12.9234 245.959 11.511C246.59 10.0986 247.512 8.83503 248.664 7.80249ZM254.236 25.0925C253.995 24.9821 253.721 24.9719 253.472 25.064C253.224 25.1561 253.022 25.343 252.911 25.5837C252.67 26.1087 252.405 26.6325 252.124 27.1387C252.06 27.2537 252.019 27.3801 252.004 27.5108C251.989 27.6415 252 27.7738 252.036 27.9003C252.073 28.0267 252.133 28.1448 252.215 28.2477C252.297 28.3506 252.399 28.4363 252.514 28.5C252.662 28.5825 252.828 28.6256 252.998 28.625C253.176 28.6251 253.351 28.5774 253.505 28.4868C253.659 28.3962 253.786 28.2661 253.873 28.11C254.178 27.5587 254.465 26.985 254.728 26.42C254.783 26.3006 254.813 26.1715 254.819 26.0401C254.824 25.9088 254.803 25.7777 254.757 25.6544C254.712 25.5311 254.642 25.418 254.553 25.3216C254.463 25.2252 254.356 25.1473 254.236 25.0925ZM256 15C255.735 15 255.48 15.1054 255.293 15.2929C255.105 15.4804 255 15.7348 255 16C255.001 17.9394 254.758 19.8712 254.276 21.75C254.21 22.0068 254.249 22.2792 254.384 22.5075C254.518 22.7359 254.738 22.9013 254.995 22.9675C255.077 22.9883 255.161 22.9988 255.245 22.9987C255.467 22.9986 255.682 22.9248 255.857 22.7891C256.032 22.6533 256.157 22.4633 256.213 22.2487C256.737 20.2068 257.001 18.1069 257 15.9987C257 15.7337 256.894 15.4797 256.707 15.2924C256.519 15.1052 256.265 15 256 15Z" fill="currentColor"/>
</g>
<defs>
<clipPath id="clip0_17_2240">
<rect width="272" height="32" rx="5" fill="white"/>
</clipPath>
</defs>
</svg>
