<svg width="272" height="32" viewBox="0 0 272 32" fill="none" xmlns="http://www.w3.org/2000/svg">
<g clip-path="url(#clip0_17_2100)">
<path d="M26 10H12V7C12 5.93913 12.4214 4.92172 13.1716 4.17157C13.9217 3.42143 14.9391 3 16 3C17.9213 3 19.65 4.375 20.02 6.19875C20.0749 6.45646 20.2294 6.68207 20.4497 6.82655C20.6701 6.97103 20.9385 7.0227 21.1968 6.97032C21.455 6.91795 21.6822 6.76577 21.8288 6.54686C21.9755 6.32795 22.0298 6.06 21.98 5.80125C21.415 3.01875 18.9 1 16 1C14.4092 1.00165 12.884 1.63433 11.7592 2.75919C10.6343 3.88405 10.0017 5.40921 10 7V10H6C5.46957 10 4.96086 10.2107 4.58579 10.5858C4.21071 10.9609 4 11.4696 4 12V26C4 26.5304 4.21071 27.0391 4.58579 27.4142C4.96086 27.7893 5.46957 28 6 28H26C26.5304 28 27.0391 27.7893 27.4142 27.4142C27.7893 27.0391 28 26.5304 28 26V12C28 11.4696 27.7893 10.9609 27.4142 10.5858C27.0391 10.2107 26.5304 10 26 10ZM26 26H6V12H26V26ZM17.5 19C17.5 19.2967 17.412 19.5867 17.2472 19.8334C17.0824 20.08 16.8481 20.2723 16.574 20.3858C16.2999 20.4993 15.9983 20.5291 15.7074 20.4712C15.4164 20.4133 15.1491 20.2704 14.9393 20.0607C14.7296 19.8509 14.5867 19.5836 14.5288 19.2926C14.4709 19.0017 14.5006 18.7001 14.6142 18.426C14.7277 18.1519 14.92 17.9176 15.1666 17.7528C15.4133 17.588 15.7033 17.5 16 17.5C16.3978 17.5 16.7794 17.658 17.0607 17.9393C17.342 18.2206 17.5 18.6022 17.5 19Z" fill="currentColor"/>
<path d="M74 10.5H59.5V7C59.5 5.80653 59.9741 4.66193 60.818 3.81802C61.6619 2.97411 62.8065 2.5 64 2.5C66.155 2.5 68.0938 4.0475 68.51 6.1C68.5231 6.16435 68.5488 6.22548 68.5856 6.2799C68.6223 6.33433 68.6694 6.38098 68.7242 6.41719C68.779 6.45341 68.8404 6.47848 68.9049 6.49097C68.9693 6.50346 69.0357 6.50313 69.1 6.49C69.1643 6.47687 69.2255 6.45119 69.2799 6.41443C69.3343 6.37768 69.381 6.33056 69.4172 6.27577C69.4534 6.22098 69.4785 6.1596 69.491 6.09513C69.5035 6.03065 69.5031 5.96435 69.49 5.9C68.9725 3.35125 66.6637 1.5 64 1.5C62.5418 1.50165 61.1438 2.08165 60.1127 3.11274C59.0816 4.14383 58.5017 5.54182 58.5 7V10.5H54C53.6022 10.5 53.2206 10.658 52.9393 10.9393C52.658 11.2206 52.5 11.6022 52.5 12V26C52.5 26.3978 52.658 26.7794 52.9393 27.0607C53.2206 27.342 53.6022 27.5 54 27.5H74C74.3978 27.5 74.7794 27.342 75.0607 27.0607C75.342 26.7794 75.5 26.3978 75.5 26V12C75.5 11.6022 75.342 11.2206 75.0607 10.9393C74.7794 10.658 74.3978 10.5 74 10.5ZM74.5 26C74.5 26.1326 74.4473 26.2598 74.3536 26.3536C74.2598 26.4473 74.1326 26.5 74 26.5H54C53.8674 26.5 53.7402 26.4473 53.6464 26.3536C53.5527 26.2598 53.5 26.1326 53.5 26V12C53.5 11.8674 53.5527 11.7402 53.6464 11.6464C53.7402 11.5527 53.8674 11.5 54 11.5H74C74.1326 11.5 74.2598 11.5527 74.3536 11.6464C74.4473 11.7402 74.5 11.8674 74.5 12V26ZM65 19C65 19.1978 64.9414 19.3911 64.8315 19.5556C64.7216 19.72 64.5654 19.8482 64.3827 19.9239C64.2 19.9996 63.9989 20.0194 63.8049 19.9808C63.6109 19.9422 63.4327 19.847 63.2929 19.7071C63.153 19.5673 63.0578 19.3891 63.0192 19.1951C62.9806 19.0011 63.0004 18.8 63.0761 18.6173C63.1518 18.4346 63.28 18.2784 63.4444 18.1685C63.6089 18.0586 63.8022 18 64 18C64.2652 18 64.5196 18.1054 64.7071 18.2929C64.8946 18.4804 65 18.7348 65 19Z" fill="currentColor"/>
<path d="M122 10.25H107.75V7C107.75 5.87283 108.198 4.79183 108.995 3.9948C109.792 3.19777 110.873 2.75 112 2.75C114.038 2.75 115.875 4.21125 116.265 6.14875C116.307 6.34098 116.423 6.50894 116.588 6.61639C116.753 6.72385 116.953 6.76219 117.146 6.72316C117.339 6.68412 117.509 6.57083 117.619 6.40772C117.729 6.24461 117.771 6.04475 117.735 5.85125C117.194 3.185 114.783 1.25 112 1.25C110.476 1.25198 109.014 1.85842 107.936 2.93633C106.858 4.01423 106.252 5.47561 106.25 7V10.25H102C101.536 10.25 101.091 10.4344 100.763 10.7626C100.434 11.0908 100.25 11.5359 100.25 12V26C100.25 26.4641 100.434 26.9092 100.763 27.2374C101.091 27.5656 101.536 27.75 102 27.75H122C122.464 27.75 122.909 27.5656 123.237 27.2374C123.566 26.9092 123.75 26.4641 123.75 26V12C123.75 11.5359 123.566 11.0908 123.237 10.7626C122.909 10.4344 122.464 10.25 122 10.25ZM122.25 26C122.25 26.0663 122.224 26.1299 122.177 26.1768C122.13 26.2237 122.066 26.25 122 26.25H102C101.934 26.25 101.87 26.2237 101.823 26.1768C101.776 26.1299 101.75 26.0663 101.75 26V12C101.75 11.9337 101.776 11.8701 101.823 11.8232C101.87 11.7763 101.934 11.75 102 11.75H122C122.066 11.75 122.13 11.7763 122.177 11.8232C122.224 11.8701 122.25 11.9337 122.25 12V26ZM113.25 19C113.25 19.2472 113.177 19.4889 113.039 19.6945C112.902 19.9 112.707 20.0602 112.478 20.1549C112.25 20.2495 111.999 20.2742 111.756 20.226C111.514 20.1777 111.291 20.0587 111.116 19.8839C110.941 19.7091 110.822 19.4863 110.774 19.2439C110.726 19.0014 110.751 18.7501 110.845 18.5216C110.94 18.2932 111.1 18.098 111.306 17.9607C111.511 17.8233 111.753 17.75 112 17.75C112.332 17.75 112.649 17.8817 112.884 18.1161C113.118 18.3505 113.25 18.6685 113.25 19Z" fill="currentColor"/>
<path d="M170 9.5H156.5V7C156.5 6.07174 156.869 5.1815 157.525 4.52513C158.182 3.86875 159.072 3.5 160 3.5C161.689 3.5 163.206 4.7025 163.53 6.29875C163.569 6.49179 163.646 6.67522 163.756 6.83855C163.866 7.00189 164.008 7.14193 164.172 7.2507C164.336 7.35946 164.52 7.4348 164.713 7.47243C164.907 7.51006 165.106 7.50923 165.299 7.47C165.492 7.43077 165.675 7.3539 165.839 7.24378C166.002 7.13366 166.142 6.99244 166.251 6.8282C166.359 6.66396 166.435 6.4799 166.472 6.28654C166.51 6.09317 166.509 5.89429 166.47 5.70125C165.859 2.6875 163.137 0.5 160 0.5C158.277 0.501985 156.625 1.18744 155.406 2.406C154.187 3.62455 153.502 5.2767 153.5 7V9.5H150C149.337 9.5 148.701 9.76339 148.232 10.2322C147.763 10.7011 147.5 11.337 147.5 12V26C147.5 26.663 147.763 27.2989 148.232 27.7678C148.701 28.2366 149.337 28.5 150 28.5H170C170.663 28.5 171.299 28.2366 171.768 27.7678C172.237 27.2989 172.5 26.663 172.5 26V12C172.5 11.337 172.237 10.7011 171.768 10.2322C171.299 9.76339 170.663 9.5 170 9.5ZM169.5 25.5H150.5V12.5H169.5V25.5ZM158 19C158 18.6044 158.117 18.2178 158.337 17.8889C158.557 17.56 158.869 17.3036 159.235 17.1522C159.6 17.0009 160.002 16.9613 160.39 17.0384C160.778 17.1156 161.135 17.3061 161.414 17.5858C161.694 17.8655 161.884 18.2219 161.962 18.6098C162.039 18.9978 161.999 19.3999 161.848 19.7654C161.696 20.1308 161.44 20.4432 161.111 20.6629C160.782 20.8827 160.396 21 160 21C159.47 21 158.961 20.7893 158.586 20.4142C158.211 20.0391 158 19.5304 158 19Z" fill="currentColor"/>
<path d="M218 10H204V7C204 5.93913 204.421 4.92172 205.172 4.17157C205.922 3.42143 206.939 3 208 3C209.921 3 211.65 4.375 212.02 6.19875C212.075 6.45646 212.229 6.68207 212.45 6.82655C212.67 6.97103 212.939 7.0227 213.197 6.97032C213.455 6.91795 213.682 6.76577 213.829 6.54686C213.975 6.32795 214.03 6.06 213.98 5.80125C213.415 3.01875 210.9 1 208 1C206.409 1.00165 204.884 1.63433 203.759 2.75919C202.634 3.88405 202.002 5.40921 202 7V10H198C197.47 10 196.961 10.2107 196.586 10.5858C196.211 10.9609 196 11.4696 196 12V26C196 26.5304 196.211 27.0391 196.586 27.4142C196.961 27.7893 197.47 28 198 28H218C218.53 28 219.039 27.7893 219.414 27.4142C219.789 27.0391 220 26.5304 220 26V12C220 11.4696 219.789 10.9609 219.414 10.5858C219.039 10.2107 218.53 10 218 10ZM208 20.5C207.703 20.5 207.413 20.412 207.167 20.2472C206.92 20.0824 206.728 19.8481 206.614 19.574C206.501 19.2999 206.471 18.9983 206.529 18.7074C206.587 18.4164 206.73 18.1491 206.939 17.9393C207.149 17.7296 207.416 17.5867 207.707 17.5288C207.998 17.4709 208.3 17.5007 208.574 17.6142C208.848 17.7277 209.082 17.92 209.247 18.1666C209.412 18.4133 209.5 18.7033 209.5 19C209.5 19.3978 209.342 19.7794 209.061 20.0607C208.779 20.342 208.398 20.5 208 20.5Z" fill="currentColor"/>
<path opacity="0.2" d="M267 12V26C267 26.2652 266.895 26.5196 266.707 26.7071C266.52 26.8946 266.265 27 266 27H246C245.735 27 245.48 26.8946 245.293 26.7071C245.105 26.5196 245 26.2652 245 26V12C245 11.7348 245.105 11.4804 245.293 11.2929C245.48 11.1054 245.735 11 246 11H266C266.265 11 266.52 11.1054 266.707 11.2929C266.895 11.4804 267 11.7348 267 12Z" fill="currentColor"/>
<path d="M266 10H252V7C252 5.93913 252.421 4.92172 253.172 4.17157C253.922 3.42143 254.939 3 256 3C257.921 3 259.65 4.375 260.02 6.19875C260.075 6.45646 260.229 6.68207 260.45 6.82655C260.67 6.97103 260.939 7.0227 261.197 6.97032C261.455 6.91795 261.682 6.76577 261.829 6.54686C261.975 6.32795 262.03 6.06 261.98 5.80125C261.415 3.01875 258.9 1 256 1C254.409 1.00165 252.884 1.63433 251.759 2.75919C250.634 3.88405 250.002 5.40921 250 7V10H246C245.47 10 244.961 10.2107 244.586 10.5858C244.211 10.9609 244 11.4696 244 12V26C244 26.5304 244.211 27.0391 244.586 27.4142C244.961 27.7893 245.47 28 246 28H266C266.53 28 267.039 27.7893 267.414 27.4142C267.789 27.0391 268 26.5304 268 26V12C268 11.4696 267.789 10.9609 267.414 10.5858C267.039 10.2107 266.53 10 266 10ZM266 26H246V12H266V26ZM257.5 19C257.5 19.2967 257.412 19.5867 257.247 19.8334C257.082 20.08 256.848 20.2723 256.574 20.3858C256.3 20.4993 255.998 20.5291 255.707 20.4712C255.416 20.4133 255.149 20.2704 254.939 20.0607C254.73 19.8509 254.587 19.5836 254.529 19.2926C254.471 19.0017 254.501 18.7001 254.614 18.426C254.728 18.1519 254.92 17.9176 255.167 17.7528C255.413 17.588 255.703 17.5 256 17.5C256.398 17.5 256.779 17.658 257.061 17.9393C257.342 18.2206 257.5 18.6022 257.5 19Z" fill="currentColor"/>
</g>
<defs>
<clipPath id="clip0_17_2100">
<rect width="272" height="32" rx="5" fill="white"/>
</clipPath>
</defs>
</svg>
