<svg width="272" height="32" viewBox="0 0 272 32" fill="none" xmlns="http://www.w3.org/2000/svg">
<g clip-path="url(#clip0_17_2044)">
<path d="M16 3C13.4288 3 10.9154 3.76244 8.77759 5.1909C6.63975 6.61935 4.97351 8.64968 3.98957 11.0251C3.00563 13.4006 2.74819 16.0144 3.2498 18.5362C3.75141 21.0579 4.98953 23.3743 6.80762 25.1924C8.6257 27.0105 10.9421 28.2486 13.4638 28.7502C15.9856 29.2518 18.5995 28.9944 20.9749 28.0104C23.3503 27.0265 25.3807 25.3603 26.8091 23.2224C28.2376 21.0846 29 18.5712 29 16C28.9964 12.5533 27.6256 9.24882 25.1884 6.81163C22.7512 4.37445 19.4467 3.00364 16 3ZM27 16C27.0026 18.5719 26.0993 21.0626 24.4488 23.035L8.96501 7.55C10.5713 6.21372 12.5249 5.36255 14.5972 5.0961C16.6696 4.82964 18.775 5.15892 20.667 6.04541C22.5591 6.93189 24.1595 8.33891 25.281 10.1018C26.4026 11.8647 26.9988 13.9106 27 16ZM5.00001 16C4.99745 13.4281 5.90069 10.9374 7.55126 8.965L23.035 24.45C21.4288 25.7863 19.4751 26.6374 17.4028 26.9039C15.3304 27.1704 13.225 26.8411 11.333 25.9546C9.44096 25.0681 7.84053 23.6611 6.71899 21.8982C5.59745 20.1353 5.0012 18.0894 5.00001 16Z" fill="currentColor"/>
<path d="M64 3.5C61.5277 3.5 59.111 4.23311 57.0554 5.60663C54.9998 6.98015 53.3976 8.93238 52.4515 11.2165C51.5054 13.5005 51.2579 16.0139 51.7402 18.4386C52.2225 20.8634 53.413 23.0907 55.1612 24.8388C56.9093 26.587 59.1366 27.7775 61.5614 28.2598C63.9861 28.7421 66.4995 28.4946 68.7835 27.5485C71.0676 26.6024 73.0199 25.0002 74.3934 22.9446C75.7669 20.889 76.5 18.4723 76.5 16C76.4964 12.6859 75.1782 9.5086 72.8348 7.16518C70.4914 4.82177 67.3141 3.50364 64 3.5ZM75.5 16C75.5019 18.8769 74.4216 21.6492 72.4738 23.7663L56.2338 7.52625C57.879 6.01976 59.9269 5.02429 62.1279 4.66113C64.3289 4.29797 66.588 4.5828 68.6299 5.48091C70.6719 6.37902 72.4086 7.85164 73.6284 9.71936C74.8482 11.5871 75.4985 13.7692 75.5 16ZM52.5 16C52.4981 13.1231 53.5784 10.3508 55.5263 8.23375L71.7663 24.4737C70.121 25.9802 68.0732 26.9757 65.8722 27.3389C63.6712 27.702 61.412 27.4172 59.3701 26.5191C57.3281 25.621 55.5914 24.1484 54.3716 22.2806C53.1518 20.4129 52.5015 18.2308 52.5 16Z" fill="currentColor"/>
<path d="M112 3.25C109.478 3.25 107.013 3.99777 104.916 5.39876C102.82 6.79975 101.186 8.79103 100.221 11.1208C99.2555 13.4505 99.003 16.0141 99.495 18.4874C99.987 20.9607 101.201 23.2325 102.984 25.0156C104.768 26.7987 107.039 28.0131 109.513 28.505C111.986 28.997 114.549 28.7445 116.879 27.7795C119.209 26.8144 121.2 25.1802 122.601 23.0835C124.002 20.9868 124.75 18.5217 124.75 16C124.746 12.6197 123.401 9.379 121.011 6.98877C118.621 4.59854 115.38 3.25397 112 3.25ZM123.25 16C123.252 18.7242 122.262 21.356 120.464 23.4025L104.598 7.53625C106.223 6.11223 108.225 5.18687 110.363 4.87096C112.501 4.55504 114.684 4.86196 116.652 5.75497C118.62 6.64797 120.289 8.08923 121.459 9.90619C122.629 11.7232 123.251 13.8389 123.25 16ZM100.75 16C100.748 13.2758 101.738 10.644 103.536 8.5975L119.403 24.4638C117.777 25.8878 115.775 26.8131 113.637 27.129C111.499 27.445 109.316 27.138 107.348 26.245C105.38 25.352 103.711 23.9108 102.541 22.0938C101.371 20.2768 100.749 18.1611 100.75 16Z" fill="currentColor"/>
<path d="M160 2.5C157.33 2.5 154.72 3.29176 152.5 4.77516C150.28 6.25856 148.549 8.36697 147.528 10.8338C146.506 13.3006 146.239 16.015 146.759 18.6337C147.28 21.2525 148.566 23.6579 150.454 25.5459C152.342 27.434 154.748 28.7197 157.366 29.2406C159.985 29.7615 162.699 29.4942 165.166 28.4724C167.633 27.4506 169.741 25.7203 171.225 23.5002C172.708 21.2801 173.5 18.67 173.5 16C173.496 12.4208 172.072 8.98932 169.542 6.45844C167.011 3.92756 163.579 2.50397 160 2.5ZM170.5 16C170.502 18.2666 169.767 20.4725 168.406 22.285L153.715 7.59375C155.275 6.42776 157.13 5.71883 159.07 5.54626C161.01 5.37369 162.96 5.74428 164.702 6.61657C166.444 7.48887 167.908 8.82848 168.932 10.4856C169.956 12.1427 170.499 14.052 170.5 16ZM149.5 16C149.498 13.7334 150.233 11.5275 151.594 9.715L166.285 24.4062C164.725 25.5722 162.871 26.2812 160.93 26.4537C158.99 26.6263 157.04 26.2557 155.298 25.3834C153.556 24.5111 152.092 23.1715 151.068 21.5144C150.044 19.8573 149.501 17.948 149.5 16Z" fill="currentColor"/>
<path d="M217 16C217.001 18.0413 216.305 20.0218 215.028 21.6138L202.386 8.9725C203.709 7.91346 205.305 7.24983 206.989 7.0581C208.673 6.86638 210.377 7.15435 211.904 7.88884C213.431 8.62333 214.72 9.77444 215.622 11.2095C216.523 12.6446 217.001 14.3052 217 16ZM199 16C198.999 17.6948 199.477 19.3554 200.378 20.7905C201.28 22.2256 202.569 23.3767 204.096 24.1112C205.623 24.8457 207.327 25.1336 209.011 24.9419C210.695 24.7502 212.291 24.0865 213.614 23.0275L200.973 10.3862C199.695 11.9782 198.999 13.9587 199 16ZM221.5 16C221.5 18.67 220.708 21.2801 219.225 23.5002C217.741 25.7203 215.633 27.4506 213.166 28.4724C210.699 29.4942 207.985 29.7615 205.366 29.2406C202.748 28.7197 200.342 27.434 198.454 25.5459C196.566 23.6579 195.28 21.2525 194.759 18.6337C194.239 16.015 194.506 13.3006 195.528 10.8338C196.549 8.36697 198.28 6.25856 200.5 4.77516C202.72 3.29176 205.33 2.5 208 2.5C211.579 2.50397 215.011 3.92756 217.542 6.45844C220.072 8.98932 221.496 12.4208 221.5 16ZM219 16C219 13.8244 218.355 11.6977 217.146 9.88873C215.937 8.07979 214.22 6.66989 212.21 5.83733C210.2 5.00476 207.988 4.78692 205.854 5.21136C203.72 5.6358 201.76 6.68345 200.222 8.22183C198.683 9.7602 197.636 11.7202 197.211 13.854C196.787 15.9878 197.005 18.1995 197.837 20.2095C198.67 22.2195 200.08 23.9375 201.889 25.1462C203.698 26.3549 205.824 27 208 27C210.916 26.9967 213.712 25.8367 215.775 23.7745C217.837 21.7123 218.997 18.9164 219 16Z" fill="currentColor"/>
<path opacity="0.2" d="M268 16C268 18.3734 267.296 20.6935 265.978 22.6668C264.659 24.6402 262.785 26.1783 260.592 27.0866C258.399 27.9948 255.987 28.2324 253.659 27.7694C251.331 27.3064 249.193 26.1635 247.515 24.4853C245.836 22.8071 244.694 20.6689 244.231 18.3411C243.768 16.0133 244.005 13.6005 244.913 11.4078C245.822 9.21509 247.36 7.34094 249.333 6.02236C251.307 4.70379 253.627 4 256 4C259.183 4 262.235 5.26428 264.485 7.51472C266.736 9.76515 268 12.8174 268 16Z" fill="currentColor"/>
<path d="M256 3C253.429 3 250.915 3.76244 248.778 5.1909C246.64 6.61935 244.974 8.64968 243.99 11.0251C243.006 13.4006 242.748 16.0144 243.25 18.5362C243.751 21.0579 244.99 23.3743 246.808 25.1924C248.626 27.0105 250.942 28.2486 253.464 28.7502C255.986 29.2518 258.599 28.9944 260.975 28.0104C263.35 27.0265 265.381 25.3603 266.809 23.2224C268.238 21.0846 269 18.5712 269 16C268.996 12.5533 267.626 9.24882 265.188 6.81163C262.751 4.37445 259.447 3.00364 256 3ZM267 16C267.003 18.5719 266.099 21.0626 264.449 23.035L248.965 7.55C250.571 6.21372 252.525 5.36255 254.597 5.0961C256.67 4.82964 258.775 5.15892 260.667 6.04541C262.559 6.93189 264.159 8.33891 265.281 10.1018C266.403 11.8647 266.999 13.9106 267 16ZM245 16C244.997 13.4281 245.901 10.9374 247.551 8.965L263.035 24.45C261.429 25.7863 259.475 26.6374 257.403 26.9039C255.33 27.1704 253.225 26.8411 251.333 25.9546C249.441 25.0681 247.841 23.6611 246.719 21.8982C245.597 20.1353 245.001 18.0894 245 16Z" fill="currentColor"/>
</g>
<defs>
<clipPath id="clip0_17_2044">
<rect width="272" height="32" rx="5" fill="white"/>
</clipPath>
</defs>
</svg>
