<svg width="272" height="32" viewBox="0 0 272 32" fill="none" xmlns="http://www.w3.org/2000/svg">
<g clip-path="url(#clip0_17_1806)">
<path d="M27 5H5C4.46957 5 3.96086 5.21071 3.58579 5.58579C3.21071 5.96086 3 6.46957 3 7V24C3 24.5304 3.21071 25.0391 3.58579 25.4142C3.96086 25.7893 4.46957 26 5 26H7V28C7 28.2652 7.10536 28.5196 7.29289 28.7071C7.48043 28.8946 7.73478 29 8 29C8.26522 29 8.51957 28.8946 8.70711 28.7071C8.89464 28.5196 9 28.2652 9 28V26H23V28C23 28.2652 23.1054 28.5196 23.2929 28.7071C23.4804 28.8946 23.7348 29 24 29C24.2652 29 24.5196 28.8946 24.7071 28.7071C24.8946 28.5196 25 28.2652 25 28V26H27C27.5304 26 28.0391 25.7893 28.4142 25.4142C28.7893 25.0391 29 24.5304 29 24V7C29 6.46957 28.7893 5.96086 28.4142 5.58579C28.0391 5.21071 27.5304 5 27 5ZM27 24H5V7H27V15H24.915C24.6643 13.5166 23.8654 12.1815 22.6767 11.2594C21.4881 10.3372 19.9963 9.89521 18.4972 10.021C16.998 10.1468 15.6008 10.8312 14.5824 11.9386C13.5641 13.046 12.9989 14.4956 12.9989 16C12.9989 17.5044 13.5641 18.954 14.5824 20.0614C15.6008 21.1688 16.998 21.8532 18.4972 21.979C19.9963 22.1048 21.4881 21.6628 22.6767 20.7406C23.8654 19.8185 24.6643 18.4834 24.915 17H27V24ZM20.73 15C20.5099 14.6187 20.1701 14.3207 19.7633 14.1522C19.3566 13.9838 18.9056 13.9542 18.4803 14.0681C18.055 14.1821 17.6793 14.4332 17.4112 14.7825C17.1432 15.1318 16.9979 15.5597 16.9979 16C16.9979 16.4403 17.1432 16.8682 17.4112 17.2175C17.6793 17.5668 18.055 17.8179 18.4803 17.9319C18.9056 18.0458 19.3566 18.0162 19.7633 17.8478C20.1701 17.6793 20.5099 17.3813 20.73 17H22.875C22.6316 17.9427 22.0528 18.7642 21.247 19.3106C20.4412 19.857 19.4638 20.0908 18.498 19.9681C17.5322 19.8454 16.6443 19.3747 16.0007 18.6442C15.3571 17.9137 15.002 16.9736 15.002 16C15.002 15.0264 15.3571 14.0863 16.0007 13.3558C16.6443 12.6253 17.5322 12.1546 18.498 12.0319C19.4638 11.9092 20.4412 12.143 21.247 12.6894C22.0528 13.2358 22.6316 14.0573 22.875 15H20.73Z" fill="currentColor"/>
<path d="M75 5.5H53C52.6022 5.5 52.2206 5.65804 51.9393 5.93934C51.658 6.22064 51.5 6.60218 51.5 7V24C51.5 24.3978 51.658 24.7794 51.9393 25.0607C52.2206 25.342 52.6022 25.5 53 25.5H55.5V28C55.5 28.1326 55.5527 28.2598 55.6464 28.3536C55.7402 28.4473 55.8674 28.5 56 28.5C56.1326 28.5 56.2598 28.4473 56.3536 28.3536C56.4473 28.2598 56.5 28.1326 56.5 28V25.5H71.5V28C71.5 28.1326 71.5527 28.2598 71.6464 28.3536C71.7402 28.4473 71.8674 28.5 72 28.5C72.1326 28.5 72.2598 28.4473 72.3536 28.3536C72.4473 28.2598 72.5 28.1326 72.5 28V25.5H75C75.3978 25.5 75.7794 25.342 76.0607 25.0607C76.342 24.7794 76.5 24.3978 76.5 24V7C76.5 6.60218 76.342 6.22064 76.0607 5.93934C75.7794 5.65804 75.3978 5.5 75 5.5ZM75 24.5H53C52.8674 24.5 52.7402 24.4473 52.6464 24.3536C52.5527 24.2598 52.5 24.1326 52.5 24V7C52.5 6.86739 52.5527 6.74021 52.6464 6.64645C52.7402 6.55268 52.8674 6.5 53 6.5H75C75.1326 6.5 75.2598 6.55268 75.3536 6.64645C75.4473 6.74021 75.5 6.86739 75.5 7V15.5H72.4762C72.3476 14.0905 71.6805 12.7849 70.6137 11.8546C69.547 10.9244 68.1627 10.4413 66.7488 10.5057C65.3349 10.5701 64.0002 11.1771 63.0224 12.2004C62.0447 13.2238 61.499 14.5846 61.499 16C61.499 17.4154 62.0447 18.7762 63.0224 19.7996C64.0002 20.8229 65.3349 21.4299 66.7488 21.4943C68.1627 21.5587 69.547 21.0756 70.6137 20.1454C71.6805 19.2151 72.3476 17.9095 72.4762 16.5H75.5V24C75.5 24.1326 75.4473 24.2598 75.3536 24.3536C75.2598 24.4473 75.1326 24.5 75 24.5ZM68.4125 15.5C68.2946 15.1664 68.0625 14.8852 67.7573 14.7062C67.4521 14.5271 67.0934 14.4618 66.7446 14.5216C66.3959 14.5814 66.0795 14.7626 65.8514 15.0332C65.6234 15.3037 65.4983 15.6462 65.4983 16C65.4983 16.3538 65.6234 16.6963 65.8514 16.9668C66.0795 17.2374 66.3959 17.4186 66.7446 17.4784C67.0934 17.5382 67.4521 17.4729 67.7573 17.2938C68.0625 17.1148 68.2946 16.8336 68.4125 16.5H71.4713C71.3435 17.643 70.7829 18.6937 69.9046 19.4363C69.0263 20.1789 67.8971 20.557 66.7487 20.493C65.6004 20.429 64.5201 19.9278 63.7298 19.0922C62.9395 18.2566 62.4991 17.1501 62.4991 16C62.4991 14.8499 62.9395 13.7434 63.7298 12.9078C64.5201 12.0722 65.6004 11.571 66.7487 11.507C67.8971 11.443 69.0263 11.8211 69.9046 12.5637C70.7829 13.3063 71.3435 14.357 71.4713 15.5H68.4125Z" fill="currentColor"/>
<path d="M123 5.25H101C100.536 5.25 100.091 5.43437 99.7626 5.76256C99.4344 6.09075 99.25 6.53587 99.25 7V24C99.25 24.4641 99.4344 24.9092 99.7626 25.2374C100.091 25.5656 100.536 25.75 101 25.75H103.25V28C103.25 28.1989 103.329 28.3897 103.47 28.5303C103.61 28.671 103.801 28.75 104 28.75C104.199 28.75 104.39 28.671 104.53 28.5303C104.671 28.3897 104.75 28.1989 104.75 28V25.75H119.25V28C119.25 28.1989 119.329 28.3897 119.47 28.5303C119.61 28.671 119.801 28.75 120 28.75C120.199 28.75 120.39 28.671 120.53 28.5303C120.671 28.3897 120.75 28.1989 120.75 28V25.75H123C123.464 25.75 123.909 25.5656 124.237 25.2374C124.566 24.9092 124.75 24.4641 124.75 24V7C124.75 6.53587 124.566 6.09075 124.237 5.76256C123.909 5.43437 123.464 5.25 123 5.25ZM123 24.25H101C100.934 24.25 100.87 24.2237 100.823 24.1768C100.776 24.1299 100.75 24.0663 100.75 24V7C100.75 6.9337 100.776 6.87011 100.823 6.82322C100.87 6.77634 100.934 6.75 101 6.75H123C123.066 6.75 123.13 6.77634 123.177 6.82322C123.224 6.87011 123.25 6.9337 123.25 7V15.25H120.7C120.51 13.8025 119.776 12.4817 118.647 11.5554C117.519 10.6292 116.08 10.1669 114.623 10.2623C113.167 10.3577 111.801 11.0037 110.802 12.0692C109.804 13.1348 109.249 14.5401 109.249 16C109.249 17.4599 109.804 18.8652 110.802 19.9308C111.801 20.9963 113.167 21.6423 114.623 21.7377C116.08 21.8331 117.519 21.3708 118.647 20.4446C119.776 19.5183 120.51 18.1975 120.7 16.75H123.25V24C123.25 24.0663 123.224 24.1299 123.177 24.1768C123.13 24.2237 123.066 24.25 123 24.25ZM116.579 15.25C116.408 14.891 116.121 14.6006 115.764 14.4267C115.407 14.2527 115.001 14.2055 114.613 14.2927C114.226 14.38 113.879 14.5966 113.631 14.9069C113.383 15.2172 113.248 15.6027 113.248 16C113.248 16.3973 113.383 16.7828 113.631 17.0931C113.879 17.4034 114.226 17.62 114.613 17.7073C115.001 17.7945 115.407 17.7473 115.764 17.5733C116.121 17.3994 116.408 17.109 116.579 16.75H119.183C118.995 17.7953 118.423 18.7326 117.579 19.3773C116.735 20.022 115.681 20.3274 114.623 20.2333C113.565 20.1392 112.581 19.6525 111.864 18.869C111.147 18.0855 110.749 17.062 110.749 16C110.749 14.938 111.147 13.9145 111.864 13.131C112.581 12.3475 113.565 11.8608 114.623 11.7667C115.681 11.6726 116.735 11.978 117.579 12.6227C118.423 13.2674 118.995 14.2047 119.183 15.25H116.579Z" fill="currentColor"/>
<path d="M171 4.5H149C148.337 4.5 147.701 4.76339 147.232 5.23223C146.763 5.70107 146.5 6.33696 146.5 7V24C146.5 24.663 146.763 25.2989 147.232 25.7678C147.701 26.2366 148.337 26.5 149 26.5H150.5V28C150.5 28.3978 150.658 28.7794 150.939 29.0607C151.221 29.342 151.602 29.5 152 29.5C152.398 29.5 152.779 29.342 153.061 29.0607C153.342 28.7794 153.5 28.3978 153.5 28V26.5H166.5V28C166.5 28.3978 166.658 28.7794 166.939 29.0607C167.221 29.342 167.602 29.5 168 29.5C168.398 29.5 168.779 29.342 169.061 29.0607C169.342 28.7794 169.5 28.3978 169.5 28V26.5H171C171.663 26.5 172.299 26.2366 172.768 25.7678C173.237 25.2989 173.5 24.663 173.5 24V7C173.5 6.33696 173.237 5.70107 172.768 5.23223C172.299 4.76339 171.663 4.5 171 4.5ZM149.5 23.5V7.5H170.5V14.5H167.79C167.428 13.2228 166.616 12.1197 165.504 11.3941C164.393 10.6686 163.056 10.3696 161.741 10.5524C160.426 10.7351 159.222 11.3873 158.35 12.3885C157.479 13.3898 156.998 14.6725 156.998 16C156.998 17.3275 157.479 18.6102 158.35 19.6115C159.222 20.6127 160.426 21.2649 161.741 21.4476C163.056 21.6304 164.393 21.3314 165.504 20.6059C166.616 19.8803 167.428 18.7772 167.79 17.5H170.5V23.5H149.5ZM165 16C165 16.4945 164.853 16.9778 164.579 17.3889C164.304 17.8 163.914 18.1205 163.457 18.3097C163 18.4989 162.497 18.5484 162.012 18.452C161.527 18.3555 161.082 18.1174 160.732 17.7678C160.383 17.4181 160.144 16.9727 160.048 16.4877C159.952 16.0028 160.001 15.5001 160.19 15.0433C160.38 14.5865 160.7 14.196 161.111 13.9213C161.522 13.6466 162.006 13.5 162.5 13.5C163.163 13.5 163.799 13.7634 164.268 14.2322C164.737 14.7011 165 15.337 165 16Z" fill="currentColor"/>
<path d="M219 5H197C196.47 5 195.961 5.21071 195.586 5.58579C195.211 5.96086 195 6.46957 195 7V24C195 24.5304 195.211 25.0391 195.586 25.4142C195.961 25.7893 196.47 26 197 26H199V28C199 28.2652 199.105 28.5196 199.293 28.7071C199.48 28.8946 199.735 29 200 29C200.265 29 200.52 28.8946 200.707 28.7071C200.895 28.5196 201 28.2652 201 28V26H215V28C215 28.2652 215.105 28.5196 215.293 28.7071C215.48 28.8946 215.735 29 216 29C216.265 29 216.52 28.8946 216.707 28.7071C216.895 28.5196 217 28.2652 217 28V26H219C219.53 26 220.039 25.7893 220.414 25.4142C220.789 25.0391 221 24.5304 221 24V7C221 6.46957 220.789 5.96086 220.414 5.58579C220.039 5.21071 219.53 5 219 5ZM218 17H214.386C214.14 18.0787 213.506 19.029 212.604 19.6694C211.701 20.3098 210.595 20.5955 209.496 20.4718C208.396 20.3481 207.381 19.8237 206.644 18.9988C205.906 18.1739 205.499 17.1064 205.499 16C205.499 14.8936 205.906 13.8261 206.644 13.0012C207.381 12.1763 208.396 11.6519 209.496 11.5282C210.595 11.4045 211.701 11.6902 212.604 12.3306C213.506 12.971 214.14 13.9213 214.386 15H218C218.265 15 218.52 15.1054 218.707 15.2929C218.895 15.4804 219 15.7348 219 16C219 16.2652 218.895 16.5196 218.707 16.7071C218.52 16.8946 218.265 17 218 17ZM212.5 16C212.5 16.4945 212.353 16.9778 212.079 17.3889C211.804 17.8 211.414 18.1205 210.957 18.3097C210.5 18.4989 209.997 18.5484 209.512 18.452C209.027 18.3555 208.582 18.1174 208.232 17.7678C207.883 17.4181 207.644 16.9727 207.548 16.4877C207.452 16.0028 207.501 15.5001 207.69 15.0433C207.88 14.5865 208.2 14.196 208.611 13.9213C209.022 13.6466 209.506 13.5 210 13.5C210.328 13.5 210.653 13.5647 210.957 13.6903C211.26 13.8159 211.536 14.0001 211.768 14.2322C212 14.4644 212.184 14.74 212.31 15.0433C212.435 15.3466 212.5 15.6717 212.5 16Z" fill="currentColor"/>
<path opacity="0.2" d="M267 6H245C244.735 6 244.48 6.10536 244.293 6.29289C244.105 6.48043 244 6.73478 244 7V24C244 24.2652 244.105 24.5196 244.293 24.7071C244.48 24.8946 244.735 25 245 25H267C267.265 25 267.52 24.8946 267.707 24.7071C267.895 24.5196 268 24.2652 268 24V7C268 6.73478 267.895 6.48043 267.707 6.29289C267.52 6.10536 267.265 6 267 6ZM259 21C258.011 21 257.044 20.7068 256.222 20.1573C255.4 19.6079 254.759 18.827 254.381 17.9134C254.002 16.9998 253.903 15.9945 254.096 15.0245C254.289 14.0546 254.765 13.1637 255.464 12.4645C256.164 11.7652 257.055 11.289 258.025 11.0961C258.994 10.9031 260 11.0022 260.913 11.3806C261.827 11.759 262.608 12.3999 263.157 13.2221C263.707 14.0444 264 15.0111 264 16C264 16.6566 263.871 17.3068 263.619 17.9134C263.368 18.52 263 19.0712 262.536 19.5355C262.071 19.9998 261.52 20.3681 260.913 20.6194C260.307 20.8707 259.657 21 259 21Z" fill="currentColor"/>
<path d="M267 5H245C244.47 5 243.961 5.21071 243.586 5.58579C243.211 5.96086 243 6.46957 243 7V24C243 24.5304 243.211 25.0391 243.586 25.4142C243.961 25.7893 244.47 26 245 26H247V28C247 28.2652 247.105 28.5196 247.293 28.7071C247.48 28.8946 247.735 29 248 29C248.265 29 248.52 28.8946 248.707 28.7071C248.895 28.5196 249 28.2652 249 28V26H263V28C263 28.2652 263.105 28.5196 263.293 28.7071C263.48 28.8946 263.735 29 264 29C264.265 29 264.52 28.8946 264.707 28.7071C264.895 28.5196 265 28.2652 265 28V26H267C267.53 26 268.039 25.7893 268.414 25.4142C268.789 25.0391 269 24.5304 269 24V7C269 6.46957 268.789 5.96086 268.414 5.58579C268.039 5.21071 267.53 5 267 5ZM267 24H245V7H267V15H264.915C264.664 13.5166 263.865 12.1815 262.677 11.2594C261.488 10.3372 259.996 9.89521 258.497 10.021C256.998 10.1468 255.601 10.8312 254.582 11.9386C253.564 13.046 252.999 14.4956 252.999 16C252.999 17.5044 253.564 18.954 254.582 20.0614C255.601 21.1688 256.998 21.8532 258.497 21.979C259.996 22.1048 261.488 21.6628 262.677 20.7406C263.865 19.8185 264.664 18.4834 264.915 17H267V24ZM260.73 15C260.51 14.6187 260.17 14.3207 259.763 14.1522C259.357 13.9838 258.906 13.9542 258.48 14.0681C258.055 14.1821 257.679 14.4332 257.411 14.7825C257.143 15.1318 256.998 15.5597 256.998 16C256.998 16.4403 257.143 16.8682 257.411 17.2175C257.679 17.5668 258.055 17.8179 258.48 17.9319C258.906 18.0458 259.357 18.0162 259.763 17.8478C260.17 17.6793 260.51 17.3813 260.73 17H262.875C262.632 17.9427 262.053 18.7642 261.247 19.3106C260.441 19.857 259.464 20.0908 258.498 19.9681C257.532 19.8454 256.644 19.3747 256.001 18.6442C255.357 17.9137 255.002 16.9736 255.002 16C255.002 15.0264 255.357 14.0863 256.001 13.3558C256.644 12.6253 257.532 12.1546 258.498 12.0319C259.464 11.9092 260.441 12.143 261.247 12.6894C262.053 13.2358 262.632 14.0573 262.875 15H260.73Z" fill="currentColor"/>
</g>
<defs>
<clipPath id="clip0_17_1806">
<rect width="272" height="32" rx="5" fill="white"/>
</clipPath>
</defs>
</svg>
