<svg width="272" height="32" viewBox="0 0 272 32" fill="none" xmlns="http://www.w3.org/2000/svg">
<g clip-path="url(#clip0_17_14869)">
<path d="M26 10H17V6C17 5.73478 16.8946 5.48043 16.7071 5.29289C16.5196 5.10536 16.2652 5 16 5C15.7348 5 15.4804 5.10536 15.2929 5.29289C15.1054 5.48043 15 5.73478 15 6V10H6C5.46957 10 4.96086 10.2107 4.58579 10.5858C4.21071 10.9609 4 11.4696 4 12V20C4 20.5304 4.21071 21.0391 4.58579 21.4142C4.96086 21.7893 5.46957 22 6 22H15V26C15 26.2652 15.1054 26.5196 15.2929 26.7071C15.4804 26.8946 15.7348 27 16 27C16.2652 27 16.5196 26.8946 16.7071 26.7071C16.8946 26.5196 17 26.2652 17 26V22H26C26.5304 22 27.0391 21.7893 27.4142 21.4142C27.7893 21.0391 28 20.5304 28 20V12C28 11.4696 27.7893 10.9609 27.4142 10.5858C27.0391 10.2107 26.5304 10 26 10ZM26 20H6V12H26V20Z" fill="currentColor"/>
<path d="M74 10.5H64.5V6C64.5 5.86739 64.4473 5.74021 64.3536 5.64645C64.2598 5.55268 64.1326 5.5 64 5.5C63.8674 5.5 63.7402 5.55268 63.6464 5.64645C63.5527 5.74021 63.5 5.86739 63.5 6V10.5H54C53.6022 10.5 53.2206 10.658 52.9393 10.9393C52.658 11.2206 52.5 11.6022 52.5 12V20C52.5 20.3978 52.658 20.7794 52.9393 21.0607C53.2206 21.342 53.6022 21.5 54 21.5H63.5V26C63.5 26.1326 63.5527 26.2598 63.6464 26.3536C63.7402 26.4473 63.8674 26.5 64 26.5C64.1326 26.5 64.2598 26.4473 64.3536 26.3536C64.4473 26.2598 64.5 26.1326 64.5 26V21.5H74C74.3978 21.5 74.7794 21.342 75.0607 21.0607C75.342 20.7794 75.5 20.3978 75.5 20V12C75.5 11.6022 75.342 11.2206 75.0607 10.9393C74.7794 10.658 74.3978 10.5 74 10.5ZM74.5 20C74.5 20.1326 74.4473 20.2598 74.3536 20.3536C74.2598 20.4473 74.1326 20.5 74 20.5H54C53.8674 20.5 53.7402 20.4473 53.6464 20.3536C53.5527 20.2598 53.5 20.1326 53.5 20V12C53.5 11.8674 53.5527 11.7402 53.6464 11.6464C53.7402 11.5527 53.8674 11.5 54 11.5H74C74.1326 11.5 74.2598 11.5527 74.3536 11.6464C74.4473 11.7402 74.5 11.8674 74.5 12V20Z" fill="currentColor"/>
<path d="M122 10.25H112.75V6C112.75 5.80109 112.671 5.61032 112.53 5.46967C112.39 5.32902 112.199 5.25 112 5.25C111.801 5.25 111.61 5.32902 111.47 5.46967C111.329 5.61032 111.25 5.80109 111.25 6V10.25H102C101.536 10.25 101.091 10.4344 100.763 10.7626C100.434 11.0908 100.25 11.5359 100.25 12V20C100.25 20.4641 100.434 20.9092 100.763 21.2374C101.091 21.5656 101.536 21.75 102 21.75H111.25V26C111.25 26.1989 111.329 26.3897 111.47 26.5303C111.61 26.671 111.801 26.75 112 26.75C112.199 26.75 112.39 26.671 112.53 26.5303C112.671 26.3897 112.75 26.1989 112.75 26V21.75H122C122.464 21.75 122.909 21.5656 123.237 21.2374C123.566 20.9092 123.75 20.4641 123.75 20V12C123.75 11.5359 123.566 11.0908 123.237 10.7626C122.909 10.4344 122.464 10.25 122 10.25ZM122.25 20C122.25 20.0663 122.224 20.1299 122.177 20.1768C122.13 20.2237 122.066 20.25 122 20.25H102C101.934 20.25 101.87 20.2237 101.823 20.1768C101.776 20.1299 101.75 20.0663 101.75 20V12C101.75 11.9337 101.776 11.8701 101.823 11.8232C101.87 11.7763 101.934 11.75 102 11.75H122C122.066 11.75 122.13 11.7763 122.177 11.8232C122.224 11.8701 122.25 11.9337 122.25 12V20Z" fill="currentColor"/>
<path d="M170 9.5H161.5V6C161.5 5.60218 161.342 5.22064 161.061 4.93934C160.779 4.65804 160.398 4.5 160 4.5C159.602 4.5 159.221 4.65804 158.939 4.93934C158.658 5.22064 158.5 5.60218 158.5 6V9.5H150C149.337 9.5 148.701 9.76339 148.232 10.2322C147.763 10.7011 147.5 11.337 147.5 12V20C147.5 20.663 147.763 21.2989 148.232 21.7678C148.701 22.2366 149.337 22.5 150 22.5H158.5V26C158.5 26.3978 158.658 26.7794 158.939 27.0607C159.221 27.342 159.602 27.5 160 27.5C160.398 27.5 160.779 27.342 161.061 27.0607C161.342 26.7794 161.5 26.3978 161.5 26V22.5H170C170.663 22.5 171.299 22.2366 171.768 21.7678C172.237 21.2989 172.5 20.663 172.5 20V12C172.5 11.337 172.237 10.7011 171.768 10.2322C171.299 9.76339 170.663 9.5 170 9.5ZM169.5 19.5H150.5V12.5H169.5V19.5Z" fill="currentColor"/>
<path d="M220 12V20C220 20.5304 219.789 21.0391 219.414 21.4142C219.039 21.7893 218.53 22 218 22H209V26C209 26.2652 208.895 26.5196 208.707 26.7071C208.52 26.8946 208.265 27 208 27C207.735 27 207.48 26.8946 207.293 26.7071C207.105 26.5196 207 26.2652 207 26V22H198C197.47 22 196.961 21.7893 196.586 21.4142C196.211 21.0391 196 20.5304 196 20V12C196 11.4696 196.211 10.9609 196.586 10.5858C196.961 10.2107 197.47 10 198 10H207V6C207 5.73478 207.105 5.48043 207.293 5.29289C207.48 5.10536 207.735 5 208 5C208.265 5 208.52 5.10536 208.707 5.29289C208.895 5.48043 209 5.73478 209 6V10H218C218.53 10 219.039 10.2107 219.414 10.5858C219.789 10.9609 220 11.4696 220 12Z" fill="currentColor"/>
<path opacity="0.2" d="M267 12V20C267 20.2652 266.895 20.5196 266.707 20.7071C266.52 20.8946 266.265 21 266 21H246C245.735 21 245.48 20.8946 245.293 20.7071C245.105 20.5196 245 20.2652 245 20V12C245 11.7348 245.105 11.4804 245.293 11.2929C245.48 11.1054 245.735 11 246 11H266C266.265 11 266.52 11.1054 266.707 11.2929C266.895 11.4804 267 11.7348 267 12Z" fill="currentColor"/>
<path d="M266 10H257V6C257 5.73478 256.895 5.48043 256.707 5.29289C256.52 5.10536 256.265 5 256 5C255.735 5 255.48 5.10536 255.293 5.29289C255.105 5.48043 255 5.73478 255 6V10H246C245.47 10 244.961 10.2107 244.586 10.5858C244.211 10.9609 244 11.4696 244 12V20C244 20.5304 244.211 21.0391 244.586 21.4142C244.961 21.7893 245.47 22 246 22H255V26C255 26.2652 255.105 26.5196 255.293 26.7071C255.48 26.8946 255.735 27 256 27C256.265 27 256.52 26.8946 256.707 26.7071C256.895 26.5196 257 26.2652 257 26V22H266C266.53 22 267.039 21.7893 267.414 21.4142C267.789 21.0391 268 20.5304 268 20V12C268 11.4696 267.789 10.9609 267.414 10.5858C267.039 10.2107 266.53 10 266 10ZM266 20H246V12H266V20Z" fill="currentColor"/>
</g>
<defs>
<clipPath id="clip0_17_14869">
<rect width="272" height="32" rx="5" fill="white"/>
</clipPath>
</defs>
</svg>
