<svg width="272" height="32" viewBox="0 0 272 32" fill="none" xmlns="http://www.w3.org/2000/svg">
<g clip-path="url(#clip0_17_14911)">
<path d="M28 27C28 27.2652 27.8946 27.5196 27.7071 27.7071C27.5196 27.8946 27.2652 28 27 28H5C4.73478 28 4.48043 27.8946 4.29289 27.7071C4.10536 27.5196 4 27.2652 4 27C4 26.7348 4.10536 26.4804 4.29289 26.2929C4.48043 26.1054 4.73478 26 5 26H27C27.2652 26 27.5196 26.1054 27.7071 26.2929C27.8946 26.4804 28 26.7348 28 27ZM17 22V10C17 9.46957 17.2107 8.96086 17.5858 8.58579C17.9609 8.21071 18.4696 8 19 8H24C24.5304 8 25.0391 8.21071 25.4142 8.58579C25.7893 8.96086 26 9.46957 26 10V22C26 22.5304 25.7893 23.0391 25.4142 23.4142C25.0391 23.7893 24.5304 24 24 24H19C18.4696 24 17.9609 23.7893 17.5858 23.4142C17.2107 23.0391 17 22.5304 17 22ZM19 22H24V10H19V22ZM6 22V5C6 4.46957 6.21071 3.96086 6.58579 3.58579C6.96086 3.21071 7.46957 3 8 3H13C13.5304 3 14.0391 3.21071 14.4142 3.58579C14.7893 3.96086 15 4.46957 15 5V22C15 22.5304 14.7893 23.0391 14.4142 23.4142C14.0391 23.7893 13.5304 24 13 24H8C7.46957 24 6.96086 23.7893 6.58579 23.4142C6.21071 23.0391 6 22.5304 6 22ZM8 22H13V5H8V22Z" fill="currentColor"/>
<path d="M75.5 27C75.5 27.1326 75.4473 27.2598 75.3536 27.3536C75.2598 27.4473 75.1326 27.5 75 27.5H53C52.8674 27.5 52.7402 27.4473 52.6464 27.3536C52.5527 27.2598 52.5 27.1326 52.5 27C52.5 26.8674 52.5527 26.7402 52.6464 26.6464C52.7402 26.5527 52.8674 26.5 53 26.5H75C75.1326 26.5 75.2598 26.5527 75.3536 26.6464C75.4473 26.7402 75.5 26.8674 75.5 27ZM65.5 22V10C65.5 9.60218 65.658 9.22064 65.9393 8.93934C66.2206 8.65804 66.6022 8.5 67 8.5H72C72.3978 8.5 72.7794 8.65804 73.0607 8.93934C73.342 9.22064 73.5 9.60218 73.5 10V22C73.5 22.3978 73.342 22.7794 73.0607 23.0607C72.7794 23.342 72.3978 23.5 72 23.5H67C66.6022 23.5 66.2206 23.342 65.9393 23.0607C65.658 22.7794 65.5 22.3978 65.5 22ZM66.5 22C66.5 22.1326 66.5527 22.2598 66.6464 22.3536C66.7402 22.4473 66.8674 22.5 67 22.5H72C72.1326 22.5 72.2598 22.4473 72.3536 22.3536C72.4473 22.2598 72.5 22.1326 72.5 22V10C72.5 9.86739 72.4473 9.74021 72.3536 9.64645C72.2598 9.55268 72.1326 9.5 72 9.5H67C66.8674 9.5 66.7402 9.55268 66.6464 9.64645C66.5527 9.74021 66.5 9.86739 66.5 10V22ZM54.5 22V5C54.5 4.60218 54.658 4.22064 54.9393 3.93934C55.2206 3.65804 55.6022 3.5 56 3.5H61C61.3978 3.5 61.7794 3.65804 62.0607 3.93934C62.342 4.22064 62.5 4.60218 62.5 5V22C62.5 22.3978 62.342 22.7794 62.0607 23.0607C61.7794 23.342 61.3978 23.5 61 23.5H56C55.6022 23.5 55.2206 23.342 54.9393 23.0607C54.658 22.7794 54.5 22.3978 54.5 22ZM55.5 22C55.5 22.1326 55.5527 22.2598 55.6464 22.3536C55.7402 22.4473 55.8674 22.5 56 22.5H61C61.1326 22.5 61.2598 22.4473 61.3536 22.3536C61.4473 22.2598 61.5 22.1326 61.5 22V5C61.5 4.86739 61.4473 4.74021 61.3536 4.64645C61.2598 4.55268 61.1326 4.5 61 4.5H56C55.8674 4.5 55.7402 4.55268 55.6464 4.64645C55.5527 4.74021 55.5 4.86739 55.5 5V22Z" fill="currentColor"/>
<path d="M123.75 27C123.75 27.1989 123.671 27.3897 123.53 27.5303C123.39 27.671 123.199 27.75 123 27.75H101C100.801 27.75 100.61 27.671 100.47 27.5303C100.329 27.3897 100.25 27.1989 100.25 27C100.25 26.8011 100.329 26.6103 100.47 26.4697C100.61 26.329 100.801 26.25 101 26.25H123C123.199 26.25 123.39 26.329 123.53 26.4697C123.671 26.6103 123.75 26.8011 123.75 27ZM113.25 22V10C113.25 9.53587 113.434 9.09075 113.763 8.76256C114.091 8.43437 114.536 8.25 115 8.25H120C120.464 8.25 120.909 8.43437 121.237 8.76256C121.566 9.09075 121.75 9.53587 121.75 10V22C121.75 22.4641 121.566 22.9092 121.237 23.2374C120.909 23.5656 120.464 23.75 120 23.75H115C114.536 23.75 114.091 23.5656 113.763 23.2374C113.434 22.9092 113.25 22.4641 113.25 22ZM114.75 22C114.75 22.0663 114.776 22.1299 114.823 22.1768C114.87 22.2237 114.934 22.25 115 22.25H120C120.066 22.25 120.13 22.2237 120.177 22.1768C120.224 22.1299 120.25 22.0663 120.25 22V10C120.25 9.9337 120.224 9.87011 120.177 9.82322C120.13 9.77634 120.066 9.75 120 9.75H115C114.934 9.75 114.87 9.77634 114.823 9.82322C114.776 9.87011 114.75 9.9337 114.75 10V22ZM102.25 22V5C102.25 4.53587 102.434 4.09075 102.763 3.76256C103.091 3.43437 103.536 3.25 104 3.25H109C109.23 3.25 109.457 3.29527 109.67 3.38321C109.882 3.47116 110.075 3.60006 110.237 3.76256C110.4 3.92507 110.529 4.11798 110.617 4.3303C110.705 4.54262 110.75 4.77019 110.75 5V22C110.75 22.2298 110.705 22.4574 110.617 22.6697C110.529 22.882 110.4 23.0749 110.237 23.2374C110.075 23.3999 109.882 23.5288 109.67 23.6168C109.457 23.7047 109.23 23.75 109 23.75H104C103.536 23.75 103.091 23.5656 102.763 23.2374C102.434 22.9092 102.25 22.4641 102.25 22ZM103.75 22C103.75 22.0663 103.776 22.1299 103.823 22.1768C103.87 22.2237 103.934 22.25 104 22.25H109C109.066 22.25 109.13 22.2237 109.177 22.1768C109.224 22.1299 109.25 22.0663 109.25 22V5C109.25 4.9337 109.224 4.87011 109.177 4.82322C109.13 4.77634 109.066 4.75 109 4.75H104C103.934 4.75 103.87 4.77634 103.823 4.82322C103.776 4.87011 103.75 4.9337 103.75 5V22Z" fill="currentColor"/>
<path d="M172.5 27C172.5 27.3978 172.342 27.7794 172.061 28.0607C171.779 28.342 171.398 28.5 171 28.5H149C148.602 28.5 148.221 28.342 147.939 28.0607C147.658 27.7794 147.5 27.3978 147.5 27C147.5 26.6022 147.658 26.2206 147.939 25.9393C148.221 25.658 148.602 25.5 149 25.5H171C171.398 25.5 171.779 25.658 172.061 25.9393C172.342 26.2206 172.5 26.6022 172.5 27ZM161 21V10C161 9.33696 161.263 8.70107 161.732 8.23223C162.201 7.76339 162.837 7.5 163.5 7.5H168C168.663 7.5 169.299 7.76339 169.768 8.23223C170.237 8.70107 170.5 9.33696 170.5 10V21C170.5 21.663 170.237 22.2989 169.768 22.7678C169.299 23.2366 168.663 23.5 168 23.5H163.5C162.837 23.5 162.201 23.2366 161.732 22.7678C161.263 22.2989 161 21.663 161 21ZM164 20.5H167.5V10.5H164V20.5ZM149.5 21V5C149.5 4.33696 149.763 3.70107 150.232 3.23223C150.701 2.76339 151.337 2.5 152 2.5H156.5C157.163 2.5 157.799 2.76339 158.268 3.23223C158.737 3.70107 159 4.33696 159 5V21C159 21.663 158.737 22.2989 158.268 22.7678C157.799 23.2366 157.163 23.5 156.5 23.5H152C151.337 23.5 150.701 23.2366 150.232 22.7678C149.763 22.2989 149.5 21.663 149.5 21ZM152.5 20.5H156V5.5H152.5V20.5Z" fill="currentColor"/>
<path d="M220 27C220 27.2652 219.895 27.5196 219.707 27.7071C219.52 27.8946 219.265 28 219 28H197C196.735 28 196.48 27.8946 196.293 27.7071C196.105 27.5196 196 27.2652 196 27C196 26.7348 196.105 26.4804 196.293 26.2929C196.48 26.1054 196.735 26 197 26H219C219.265 26 219.52 26.1054 219.707 26.2929C219.895 26.4804 220 26.7348 220 27ZM211 24H216C216.53 24 217.039 23.7893 217.414 23.4142C217.789 23.0391 218 22.5304 218 22V10C218 9.46957 217.789 8.96086 217.414 8.58579C217.039 8.21071 216.53 8 216 8H211C210.47 8 209.961 8.21071 209.586 8.58579C209.211 8.96086 209 9.46957 209 10V22C209 22.5304 209.211 23.0391 209.586 23.4142C209.961 23.7893 210.47 24 211 24ZM200 24H205C205.53 24 206.039 23.7893 206.414 23.4142C206.789 23.0391 207 22.5304 207 22V5C207 4.46957 206.789 3.96086 206.414 3.58579C206.039 3.21071 205.53 3 205 3H200C199.47 3 198.961 3.21071 198.586 3.58579C198.211 3.96086 198 4.46957 198 5V22C198 22.5304 198.211 23.0391 198.586 23.4142C198.961 23.7893 199.47 24 200 24Z" fill="currentColor"/>
<path opacity="0.2" d="M265 10V22C265 22.2652 264.895 22.5196 264.707 22.7071C264.52 22.8946 264.265 23 264 23H259C258.735 23 258.48 22.8946 258.293 22.7071C258.105 22.5196 258 22.2652 258 22V10C258 9.73478 258.105 9.48043 258.293 9.29289C258.48 9.10536 258.735 9 259 9H264C264.265 9 264.52 9.10536 264.707 9.29289C264.895 9.48043 265 9.73478 265 10ZM253 4H248C247.735 4 247.48 4.10536 247.293 4.29289C247.105 4.48043 247 4.73478 247 5V22C247 22.2652 247.105 22.5196 247.293 22.7071C247.48 22.8946 247.735 23 248 23H253C253.265 23 253.52 22.8946 253.707 22.7071C253.895 22.5196 254 22.2652 254 22V5C254 4.73478 253.895 4.48043 253.707 4.29289C253.52 4.10536 253.265 4 253 4Z" fill="currentColor"/>
<path d="M248 24H253C253.53 24 254.039 23.7893 254.414 23.4142C254.789 23.0391 255 22.5304 255 22V5C255 4.46957 254.789 3.96086 254.414 3.58579C254.039 3.21071 253.53 3 253 3H248C247.47 3 246.961 3.21071 246.586 3.58579C246.211 3.96086 246 4.46957 246 5V22C246 22.5304 246.211 23.0391 246.586 23.4142C246.961 23.7893 247.47 24 248 24ZM248 5H253V22H248V5ZM268 27C268 27.2652 267.895 27.5196 267.707 27.7071C267.52 27.8946 267.265 28 267 28H245C244.735 28 244.48 27.8946 244.293 27.7071C244.105 27.5196 244 27.2652 244 27C244 26.7348 244.105 26.4804 244.293 26.2929C244.48 26.1054 244.735 26 245 26H267C267.265 26 267.52 26.1054 267.707 26.2929C267.895 26.4804 268 26.7348 268 27ZM259 24H264C264.53 24 265.039 23.7893 265.414 23.4142C265.789 23.0391 266 22.5304 266 22V10C266 9.46957 265.789 8.96086 265.414 8.58579C265.039 8.21071 264.53 8 264 8H259C258.47 8 257.961 8.21071 257.586 8.58579C257.211 8.96086 257 9.46957 257 10V22C257 22.5304 257.211 23.0391 257.586 23.4142C257.961 23.7893 258.47 24 259 24ZM259 10H264V22H259V10Z" fill="currentColor"/>
</g>
<defs>
<clipPath id="clip0_17_14911">
<rect width="272" height="32" rx="5" fill="white"/>
</clipPath>
</defs>
</svg>
