<svg width="272" height="32" viewBox="0 0 272 32" fill="none" xmlns="http://www.w3.org/2000/svg">
<g clip-path="url(#clip0_17_14799)">
<path d="M28 5V27C28 27.2652 27.8946 27.5196 27.7071 27.7071C27.5196 27.8946 27.2652 28 27 28C26.7348 28 26.4804 27.8946 26.2929 27.7071C26.1054 27.5196 26 27.2652 26 27V5C26 4.73478 26.1054 4.48043 26.2929 4.29289C26.4804 4.10536 26.7348 4 27 4C27.2652 4 27.5196 4.10536 27.7071 4.29289C27.8946 4.48043 28 4.73478 28 5ZM24 8V13C24 13.5304 23.7893 14.0391 23.4142 14.4142C23.0391 14.7893 22.5304 15 22 15H10C9.46957 15 8.96086 14.7893 8.58579 14.4142C8.21071 14.0391 8 13.5304 8 13V8C8 7.46957 8.21071 6.96086 8.58579 6.58579C8.96086 6.21071 9.46957 6 10 6H22C22.5304 6 23.0391 6.21071 23.4142 6.58579C23.7893 6.96086 24 7.46957 24 8ZM22 8H10V13H22V8ZM24 19V24C24 24.5304 23.7893 25.0391 23.4142 25.4142C23.0391 25.7893 22.5304 26 22 26H5C4.46957 26 3.96086 25.7893 3.58579 25.4142C3.21071 25.0391 3 24.5304 3 24V19C3 18.4696 3.21071 17.9609 3.58579 17.5858C3.96086 17.2107 4.46957 17 5 17H22C22.5304 17 23.0391 17.2107 23.4142 17.5858C23.7893 17.9609 24 18.4696 24 19ZM22 19H5V24H22V19Z" fill="currentColor"/>
<path d="M75.5 5V27C75.5 27.1326 75.4473 27.2598 75.3536 27.3536C75.2598 27.4473 75.1326 27.5 75 27.5C74.8674 27.5 74.7402 27.4473 74.6464 27.3536C74.5527 27.2598 74.5 27.1326 74.5 27V5C74.5 4.86739 74.5527 4.74021 74.6464 4.64645C74.7402 4.55268 74.8674 4.5 75 4.5C75.1326 4.5 75.2598 4.55268 75.3536 4.64645C75.4473 4.74021 75.5 4.86739 75.5 5ZM71.5 8V13C71.5 13.3978 71.342 13.7794 71.0607 14.0607C70.7794 14.342 70.3978 14.5 70 14.5H58C57.6022 14.5 57.2206 14.342 56.9393 14.0607C56.658 13.7794 56.5 13.3978 56.5 13V8C56.5 7.60218 56.658 7.22064 56.9393 6.93934C57.2206 6.65804 57.6022 6.5 58 6.5H70C70.3978 6.5 70.7794 6.65804 71.0607 6.93934C71.342 7.22064 71.5 7.60218 71.5 8ZM70.5 8C70.5 7.86739 70.4473 7.74021 70.3536 7.64645C70.2598 7.55268 70.1326 7.5 70 7.5H58C57.8674 7.5 57.7402 7.55268 57.6464 7.64645C57.5527 7.74021 57.5 7.86739 57.5 8V13C57.5 13.1326 57.5527 13.2598 57.6464 13.3536C57.7402 13.4473 57.8674 13.5 58 13.5H70C70.1326 13.5 70.2598 13.4473 70.3536 13.3536C70.4473 13.2598 70.5 13.1326 70.5 13V8ZM71.5 19V24C71.5 24.3978 71.342 24.7794 71.0607 25.0607C70.7794 25.342 70.3978 25.5 70 25.5H53C52.6022 25.5 52.2206 25.342 51.9393 25.0607C51.658 24.7794 51.5 24.3978 51.5 24V19C51.5 18.6022 51.658 18.2206 51.9393 17.9393C52.2206 17.658 52.6022 17.5 53 17.5H70C70.3978 17.5 70.7794 17.658 71.0607 17.9393C71.342 18.2206 71.5 18.6022 71.5 19ZM70.5 19C70.5 18.8674 70.4473 18.7402 70.3536 18.6464C70.2598 18.5527 70.1326 18.5 70 18.5H53C52.8674 18.5 52.7402 18.5527 52.6464 18.6464C52.5527 18.7402 52.5 18.8674 52.5 19V24C52.5 24.1326 52.5527 24.2598 52.6464 24.3536C52.7402 24.4473 52.8674 24.5 53 24.5H70C70.1326 24.5 70.2598 24.4473 70.3536 24.3536C70.4473 24.2598 70.5 24.1326 70.5 24V19Z" fill="currentColor"/>
<path d="M123.75 5V27C123.75 27.1989 123.671 27.3897 123.53 27.5303C123.39 27.671 123.199 27.75 123 27.75C122.801 27.75 122.61 27.671 122.47 27.5303C122.329 27.3897 122.25 27.1989 122.25 27V5C122.25 4.80109 122.329 4.61032 122.47 4.46967C122.61 4.32902 122.801 4.25 123 4.25C123.199 4.25 123.39 4.32902 123.53 4.46967C123.671 4.61032 123.75 4.80109 123.75 5ZM119.75 8V13C119.75 13.2298 119.705 13.4574 119.617 13.6697C119.529 13.882 119.4 14.0749 119.237 14.2374C119.075 14.3999 118.882 14.5288 118.67 14.6168C118.457 14.7047 118.23 14.75 118 14.75H106C105.77 14.75 105.543 14.7047 105.33 14.6168C105.118 14.5288 104.925 14.3999 104.763 14.2374C104.6 14.0749 104.471 13.882 104.383 13.6697C104.295 13.4574 104.25 13.2298 104.25 13V8C104.25 7.53587 104.434 7.09075 104.763 6.76256C105.091 6.43437 105.536 6.25 106 6.25H118C118.464 6.25 118.909 6.43437 119.237 6.76256C119.566 7.09075 119.75 7.53587 119.75 8ZM118.25 8C118.25 7.9337 118.224 7.87011 118.177 7.82322C118.13 7.77634 118.066 7.75 118 7.75H106C105.934 7.75 105.87 7.77634 105.823 7.82322C105.776 7.87011 105.75 7.9337 105.75 8V13C105.75 13.0663 105.776 13.1299 105.823 13.1768C105.87 13.2237 105.934 13.25 106 13.25H118C118.066 13.25 118.13 13.2237 118.177 13.1768C118.224 13.1299 118.25 13.0663 118.25 13V8ZM119.75 19V24C119.75 24.4641 119.566 24.9092 119.237 25.2374C118.909 25.5656 118.464 25.75 118 25.75H101C100.536 25.75 100.091 25.5656 99.7626 25.2374C99.4344 24.9092 99.25 24.4641 99.25 24V19C99.25 18.5359 99.4344 18.0908 99.7626 17.7626C100.091 17.4344 100.536 17.25 101 17.25H118C118.464 17.25 118.909 17.4344 119.237 17.7626C119.566 18.0908 119.75 18.5359 119.75 19ZM118.25 19C118.25 18.9337 118.224 18.8701 118.177 18.8232C118.13 18.7763 118.066 18.75 118 18.75H101C100.934 18.75 100.87 18.7763 100.823 18.8232C100.776 18.8701 100.75 18.9337 100.75 19V24C100.75 24.0663 100.776 24.1299 100.823 24.1768C100.87 24.2237 100.934 24.25 101 24.25H118C118.066 24.25 118.13 24.2237 118.177 24.1768C118.224 24.1299 118.25 24.0663 118.25 24V19Z" fill="currentColor"/>
<path d="M172.5 5V27C172.5 27.3978 172.342 27.7794 172.061 28.0607C171.779 28.342 171.398 28.5 171 28.5C170.602 28.5 170.221 28.342 169.939 28.0607C169.658 27.7794 169.5 27.3978 169.5 27V5C169.5 4.60218 169.658 4.22064 169.939 3.93934C170.221 3.65804 170.602 3.5 171 3.5C171.398 3.5 171.779 3.65804 172.061 3.93934C172.342 4.22064 172.5 4.60218 172.5 5ZM167.5 8V12.5C167.5 13.163 167.237 13.7989 166.768 14.2678C166.299 14.7366 165.663 15 165 15H154C153.337 15 152.701 14.7366 152.232 14.2678C151.763 13.7989 151.5 13.163 151.5 12.5V8C151.5 7.33696 151.763 6.70107 152.232 6.23223C152.701 5.76339 153.337 5.5 154 5.5H165C165.663 5.5 166.299 5.76339 166.768 6.23223C167.237 6.70107 167.5 7.33696 167.5 8ZM164.5 8.5H154.5V12H164.5V8.5ZM167.5 19.5V24C167.5 24.663 167.237 25.2989 166.768 25.7678C166.299 26.2366 165.663 26.5 165 26.5H149C148.337 26.5 147.701 26.2366 147.232 25.7678C146.763 25.2989 146.5 24.663 146.5 24V19.5C146.5 18.837 146.763 18.2011 147.232 17.7322C147.701 17.2634 148.337 17 149 17H165C165.663 17 166.299 17.2634 166.768 17.7322C167.237 18.2011 167.5 18.837 167.5 19.5ZM164.5 20H149.5V23.5H164.5V20Z" fill="currentColor"/>
<path d="M220 5V27C220 27.2652 219.895 27.5196 219.707 27.7071C219.52 27.8946 219.265 28 219 28C218.735 28 218.48 27.8946 218.293 27.7071C218.105 27.5196 218 27.2652 218 27V5C218 4.73478 218.105 4.48043 218.293 4.29289C218.48 4.10536 218.735 4 219 4C219.265 4 219.52 4.10536 219.707 4.29289C219.895 4.48043 220 4.73478 220 5ZM214 6H202C201.47 6 200.961 6.21071 200.586 6.58579C200.211 6.96086 200 7.46957 200 8V13C200 13.5304 200.211 14.0391 200.586 14.4142C200.961 14.7893 201.47 15 202 15H214C214.53 15 215.039 14.7893 215.414 14.4142C215.789 14.0391 216 13.5304 216 13V8C216 7.46957 215.789 6.96086 215.414 6.58579C215.039 6.21071 214.53 6 214 6ZM214 17H197C196.47 17 195.961 17.2107 195.586 17.5858C195.211 17.9609 195 18.4696 195 19V24C195 24.5304 195.211 25.0391 195.586 25.4142C195.961 25.7893 196.47 26 197 26H214C214.53 26 215.039 25.7893 215.414 25.4142C215.789 25.0391 216 24.5304 216 24V19C216 18.4696 215.789 17.9609 215.414 17.5858C215.039 17.2107 214.53 17 214 17Z" fill="currentColor"/>
<path opacity="0.2" d="M263 8V13C263 13.2652 262.895 13.5196 262.707 13.7071C262.52 13.8946 262.265 14 262 14H250C249.735 14 249.48 13.8946 249.293 13.7071C249.105 13.5196 249 13.2652 249 13V8C249 7.73478 249.105 7.48043 249.293 7.29289C249.48 7.10536 249.735 7 250 7H262C262.265 7 262.52 7.10536 262.707 7.29289C262.895 7.48043 263 7.73478 263 8ZM262 18H245C244.735 18 244.48 18.1054 244.293 18.2929C244.105 18.4804 244 18.7348 244 19V24C244 24.2652 244.105 24.5196 244.293 24.7071C244.48 24.8946 244.735 25 245 25H262C262.265 25 262.52 24.8946 262.707 24.7071C262.895 24.5196 263 24.2652 263 24V19C263 18.7348 262.895 18.4804 262.707 18.2929C262.52 18.1054 262.265 18 262 18Z" fill="currentColor"/>
<path d="M268 5V27C268 27.2652 267.895 27.5196 267.707 27.7071C267.52 27.8946 267.265 28 267 28C266.735 28 266.48 27.8946 266.293 27.7071C266.105 27.5196 266 27.2652 266 27V5C266 4.73478 266.105 4.48043 266.293 4.29289C266.48 4.10536 266.735 4 267 4C267.265 4 267.52 4.10536 267.707 4.29289C267.895 4.48043 268 4.73478 268 5ZM264 8V13C264 13.5304 263.789 14.0391 263.414 14.4142C263.039 14.7893 262.53 15 262 15H250C249.47 15 248.961 14.7893 248.586 14.4142C248.211 14.0391 248 13.5304 248 13V8C248 7.46957 248.211 6.96086 248.586 6.58579C248.961 6.21071 249.47 6 250 6H262C262.53 6 263.039 6.21071 263.414 6.58579C263.789 6.96086 264 7.46957 264 8ZM262 8H250V13H262V8ZM264 19V24C264 24.5304 263.789 25.0391 263.414 25.4142C263.039 25.7893 262.53 26 262 26H245C244.47 26 243.961 25.7893 243.586 25.4142C243.211 25.0391 243 24.5304 243 24V19C243 18.4696 243.211 17.9609 243.586 17.5858C243.961 17.2107 244.47 17 245 17H262C262.53 17 263.039 17.2107 263.414 17.5858C263.789 17.9609 264 18.4696 264 19ZM262 19H245V24H262V19Z" fill="currentColor"/>
</g>
<defs>
<clipPath id="clip0_17_14799">
<rect width="272" height="32" rx="5" fill="white"/>
</clipPath>
</defs>
</svg>
