<svg width="272" height="32" viewBox="0 0 272 32" fill="none" xmlns="http://www.w3.org/2000/svg">
<g clip-path="url(#clip0_17_14883)">
<path d="M26 17H17V15H23C23.5304 15 24.0391 14.7893 24.4142 14.4142C24.7893 14.0391 25 13.5304 25 13V8C25 7.46957 24.7893 6.96086 24.4142 6.58579C24.0391 6.21071 23.5304 6 23 6H17V4C17 3.73478 16.8946 3.48043 16.7071 3.29289C16.5196 3.10536 16.2652 3 16 3C15.7348 3 15.4804 3.10536 15.2929 3.29289C15.1054 3.48043 15 3.73478 15 4V6H9C8.46957 6 7.96086 6.21071 7.58579 6.58579C7.21071 6.96086 7 7.46957 7 8V13C7 13.5304 7.21071 14.0391 7.58579 14.4142C7.96086 14.7893 8.46957 15 9 15H15V17H6C5.46957 17 4.96086 17.2107 4.58579 17.5858C4.21071 17.9609 4 18.4696 4 19V24C4 24.5304 4.21071 25.0391 4.58579 25.4142C4.96086 25.7893 5.46957 26 6 26H15V28C15 28.2652 15.1054 28.5196 15.2929 28.7071C15.4804 28.8946 15.7348 29 16 29C16.2652 29 16.5196 28.8946 16.7071 28.7071C16.8946 28.5196 17 28.2652 17 28V26H26C26.5304 26 27.0391 25.7893 27.4142 25.4142C27.7893 25.0391 28 24.5304 28 24V19C28 18.4696 27.7893 17.9609 27.4142 17.5858C27.0391 17.2107 26.5304 17 26 17ZM9 8H23V13H9V8ZM26 24H6V19H26V24Z" fill="currentColor"/>
<path d="M74 17.5H64.5V14.5H71C71.3978 14.5 71.7794 14.342 72.0607 14.0607C72.342 13.7794 72.5 13.3978 72.5 13V8C72.5 7.60218 72.342 7.22064 72.0607 6.93934C71.7794 6.65804 71.3978 6.5 71 6.5H64.5V4C64.5 3.86739 64.4473 3.74021 64.3536 3.64645C64.2598 3.55268 64.1326 3.5 64 3.5C63.8674 3.5 63.7402 3.55268 63.6464 3.64645C63.5527 3.74021 63.5 3.86739 63.5 4V6.5H57C56.6022 6.5 56.2206 6.65804 55.9393 6.93934C55.658 7.22064 55.5 7.60218 55.5 8V13C55.5 13.3978 55.658 13.7794 55.9393 14.0607C56.2206 14.342 56.6022 14.5 57 14.5H63.5V17.5H54C53.6022 17.5 53.2206 17.658 52.9393 17.9393C52.658 18.2206 52.5 18.6022 52.5 19V24C52.5 24.3978 52.658 24.7794 52.9393 25.0607C53.2206 25.342 53.6022 25.5 54 25.5H63.5V28C63.5 28.1326 63.5527 28.2598 63.6464 28.3536C63.7402 28.4473 63.8674 28.5 64 28.5C64.1326 28.5 64.2598 28.4473 64.3536 28.3536C64.4473 28.2598 64.5 28.1326 64.5 28V25.5H74C74.3978 25.5 74.7794 25.342 75.0607 25.0607C75.342 24.7794 75.5 24.3978 75.5 24V19C75.5 18.6022 75.342 18.2206 75.0607 17.9393C74.7794 17.658 74.3978 17.5 74 17.5ZM56.5 13V8C56.5 7.86739 56.5527 7.74021 56.6464 7.64645C56.7402 7.55268 56.8674 7.5 57 7.5H71C71.1326 7.5 71.2598 7.55268 71.3536 7.64645C71.4473 7.74021 71.5 7.86739 71.5 8V13C71.5 13.1326 71.4473 13.2598 71.3536 13.3536C71.2598 13.4473 71.1326 13.5 71 13.5H57C56.8674 13.5 56.7402 13.4473 56.6464 13.3536C56.5527 13.2598 56.5 13.1326 56.5 13ZM74.5 24C74.5 24.1326 74.4473 24.2598 74.3536 24.3536C74.2598 24.4473 74.1326 24.5 74 24.5H54C53.8674 24.5 53.7402 24.4473 53.6464 24.3536C53.5527 24.2598 53.5 24.1326 53.5 24V19C53.5 18.8674 53.5527 18.7402 53.6464 18.6464C53.7402 18.5527 53.8674 18.5 54 18.5H74C74.1326 18.5 74.2598 18.5527 74.3536 18.6464C74.4473 18.7402 74.5 18.8674 74.5 19V24Z" fill="currentColor"/>
<path d="M122 17.25H112.75V14.75H119C119.23 14.75 119.457 14.7047 119.67 14.6168C119.882 14.5288 120.075 14.3999 120.237 14.2374C120.4 14.0749 120.529 13.882 120.617 13.6697C120.705 13.4574 120.75 13.2298 120.75 13V8C120.75 7.53587 120.566 7.09075 120.237 6.76256C119.909 6.43437 119.464 6.25 119 6.25H112.75V4C112.75 3.80109 112.671 3.61032 112.53 3.46967C112.39 3.32902 112.199 3.25 112 3.25C111.801 3.25 111.61 3.32902 111.47 3.46967C111.329 3.61032 111.25 3.80109 111.25 4V6.25H105C104.536 6.25 104.091 6.43437 103.763 6.76256C103.434 7.09075 103.25 7.53587 103.25 8V13C103.25 13.2298 103.295 13.4574 103.383 13.6697C103.471 13.882 103.6 14.0749 103.763 14.2374C103.925 14.3999 104.118 14.5288 104.33 14.6168C104.543 14.7047 104.77 14.75 105 14.75H111.25V17.25H102C101.536 17.25 101.091 17.4344 100.763 17.7626C100.434 18.0908 100.25 18.5359 100.25 19V24C100.25 24.4641 100.434 24.9092 100.763 25.2374C101.091 25.5656 101.536 25.75 102 25.75H111.25V28C111.25 28.1989 111.329 28.3897 111.47 28.5303C111.61 28.671 111.801 28.75 112 28.75C112.199 28.75 112.39 28.671 112.53 28.5303C112.671 28.3897 112.75 28.1989 112.75 28V25.75H122C122.464 25.75 122.909 25.5656 123.237 25.2374C123.566 24.9092 123.75 24.4641 123.75 24V19C123.75 18.5359 123.566 18.0908 123.237 17.7626C122.909 17.4344 122.464 17.25 122 17.25ZM104.75 13V8C104.75 7.9337 104.776 7.87011 104.823 7.82322C104.87 7.77634 104.934 7.75 105 7.75H119C119.066 7.75 119.13 7.77634 119.177 7.82322C119.224 7.87011 119.25 7.9337 119.25 8V13C119.25 13.0663 119.224 13.1299 119.177 13.1768C119.13 13.2237 119.066 13.25 119 13.25H105C104.934 13.25 104.87 13.2237 104.823 13.1768C104.776 13.1299 104.75 13.0663 104.75 13ZM122.25 24C122.25 24.0663 122.224 24.1299 122.177 24.1768C122.13 24.2237 122.066 24.25 122 24.25H102C101.934 24.25 101.87 24.2237 101.823 24.1768C101.776 24.1299 101.75 24.0663 101.75 24V19C101.75 18.9337 101.776 18.8701 101.823 18.8232C101.87 18.7763 101.934 18.75 102 18.75H122C122.066 18.75 122.13 18.7763 122.177 18.8232C122.224 18.8701 122.25 18.9337 122.25 19V24Z" fill="currentColor"/>
<path d="M170 17H161.5V15H167C167.663 15 168.299 14.7366 168.768 14.2678C169.237 13.7989 169.5 13.163 169.5 12.5V7.5C169.5 6.83696 169.237 6.20107 168.768 5.73223C168.299 5.26339 167.663 5 167 5H161.5V4C161.5 3.60218 161.342 3.22064 161.061 2.93934C160.779 2.65804 160.398 2.5 160 2.5C159.602 2.5 159.221 2.65804 158.939 2.93934C158.658 3.22064 158.5 3.60218 158.5 4V5H153C152.337 5 151.701 5.26339 151.232 5.73223C150.763 6.20107 150.5 6.83696 150.5 7.5V12.5C150.5 13.163 150.763 13.7989 151.232 14.2678C151.701 14.7366 152.337 15 153 15H158.5V17H150C149.337 17 148.701 17.2634 148.232 17.7322C147.763 18.2011 147.5 18.837 147.5 19.5V24.5C147.5 25.163 147.763 25.7989 148.232 26.2678C148.701 26.7366 149.337 27 150 27H158.5V28C158.5 28.3978 158.658 28.7794 158.939 29.0607C159.221 29.342 159.602 29.5 160 29.5C160.398 29.5 160.779 29.342 161.061 29.0607C161.342 28.7794 161.5 28.3978 161.5 28V27H170C170.663 27 171.299 26.7366 171.768 26.2678C172.237 25.7989 172.5 25.163 172.5 24.5V19.5C172.5 18.837 172.237 18.2011 171.768 17.7322C171.299 17.2634 170.663 17 170 17ZM153.5 8H166.5V12H153.5V8ZM169.5 24H150.5V20H169.5V24Z" fill="currentColor"/>
<path d="M220 19V24C220 24.5304 219.789 25.0391 219.414 25.4142C219.039 25.7893 218.53 26 218 26H209V28C209 28.2652 208.895 28.5196 208.707 28.7071C208.52 28.8946 208.265 29 208 29C207.735 29 207.48 28.8946 207.293 28.7071C207.105 28.5196 207 28.2652 207 28V26H198C197.47 26 196.961 25.7893 196.586 25.4142C196.211 25.0391 196 24.5304 196 24V19C196 18.4696 196.211 17.9609 196.586 17.5858C196.961 17.2107 197.47 17 198 17H207V15H201C200.47 15 199.961 14.7893 199.586 14.4142C199.211 14.0391 199 13.5304 199 13V8C199 7.46957 199.211 6.96086 199.586 6.58579C199.961 6.21071 200.47 6 201 6H207V4C207 3.73478 207.105 3.48043 207.293 3.29289C207.48 3.10536 207.735 3 208 3C208.265 3 208.52 3.10536 208.707 3.29289C208.895 3.48043 209 3.73478 209 4V6H215C215.53 6 216.039 6.21071 216.414 6.58579C216.789 6.96086 217 7.46957 217 8V13C217 13.5304 216.789 14.0391 216.414 14.4142C216.039 14.7893 215.53 15 215 15H209V17H218C218.53 17 219.039 17.2107 219.414 17.5858C219.789 17.9609 220 18.4696 220 19Z" fill="currentColor"/>
<path opacity="0.2" d="M248 13V8C248 7.73478 248.105 7.48043 248.293 7.29289C248.48 7.10536 248.735 7 249 7H263C263.265 7 263.52 7.10536 263.707 7.29289C263.895 7.48043 264 7.73478 264 8V13C264 13.2652 263.895 13.5196 263.707 13.7071C263.52 13.8946 263.265 14 263 14H249C248.735 14 248.48 13.8946 248.293 13.7071C248.105 13.5196 248 13.2652 248 13ZM266 18H246C245.735 18 245.48 18.1054 245.293 18.2929C245.105 18.4804 245 18.7348 245 19V24C245 24.2652 245.105 24.5196 245.293 24.7071C245.48 24.8946 245.735 25 246 25H266C266.265 25 266.52 24.8946 266.707 24.7071C266.895 24.5196 267 24.2652 267 24V19C267 18.7348 266.895 18.4804 266.707 18.2929C266.52 18.1054 266.265 18 266 18Z" fill="currentColor"/>
<path d="M266 17H257V15H263C263.53 15 264.039 14.7893 264.414 14.4142C264.789 14.0391 265 13.5304 265 13V8C265 7.46957 264.789 6.96086 264.414 6.58579C264.039 6.21071 263.53 6 263 6H257V4C257 3.73478 256.895 3.48043 256.707 3.29289C256.52 3.10536 256.265 3 256 3C255.735 3 255.48 3.10536 255.293 3.29289C255.105 3.48043 255 3.73478 255 4V6H249C248.47 6 247.961 6.21071 247.586 6.58579C247.211 6.96086 247 7.46957 247 8V13C247 13.5304 247.211 14.0391 247.586 14.4142C247.961 14.7893 248.47 15 249 15H255V17H246C245.47 17 244.961 17.2107 244.586 17.5858C244.211 17.9609 244 18.4696 244 19V24C244 24.5304 244.211 25.0391 244.586 25.4142C244.961 25.7893 245.47 26 246 26H255V28C255 28.2652 255.105 28.5196 255.293 28.7071C255.48 28.8946 255.735 29 256 29C256.265 29 256.52 28.8946 256.707 28.7071C256.895 28.5196 257 28.2652 257 28V26H266C266.53 26 267.039 25.7893 267.414 25.4142C267.789 25.0391 268 24.5304 268 24V19C268 18.4696 267.789 17.9609 267.414 17.5858C267.039 17.2107 266.53 17 266 17ZM249 8H263V13H249V8ZM266 24H246V19H266V24Z" fill="currentColor"/>
</g>
<defs>
<clipPath id="clip0_17_14883">
<rect width="272" height="32" rx="5" fill="white"/>
</clipPath>
</defs>
</svg>
