<svg width="272" height="32" viewBox="0 0 272 32" fill="none" xmlns="http://www.w3.org/2000/svg">
<g clip-path="url(#clip0_17_14743)">
<path d="M27.6337 18.0512C26.8912 15.1634 25.1072 12.652 22.6249 11H29.9999C30.2652 11 30.5195 10.8946 30.707 10.7071C30.8946 10.5195 30.9999 10.2652 30.9999 9.99997C30.9999 9.73475 30.8946 9.4804 30.707 9.29286C30.5195 9.10533 30.2652 8.99997 29.9999 8.99997H19.8749C19.6546 8.13955 19.1542 7.37693 18.4526 6.83233C17.751 6.28773 16.8881 5.99213 15.9999 5.99213C15.1118 5.99213 14.2489 6.28773 13.5473 6.83233C12.8456 7.37693 12.3452 8.13955 12.1249 8.99997H1.99994C1.73472 8.99997 1.48037 9.10533 1.29283 9.29286C1.1053 9.4804 0.999941 9.73475 0.999941 9.99997C0.999941 10.2652 1.1053 10.5195 1.29283 10.7071C1.48037 10.8946 1.73472 11 1.99994 11H9.37494C6.89264 12.652 5.10871 15.1634 4.36619 18.0512C3.40603 18.2044 2.53455 18.7021 1.91469 19.4512C1.29484 20.2003 0.969058 21.1495 0.998267 22.1214C1.02748 23.0933 1.40967 24.0212 2.0734 24.7318C2.73712 25.4423 3.63692 25.8867 4.60455 25.982C5.57218 26.0773 6.54137 25.8168 7.33092 25.2494C8.12046 24.6819 8.67628 23.8463 8.89446 22.8988C9.11263 21.9513 8.97822 20.9568 8.51635 20.1012C8.05449 19.2456 7.29679 18.5875 6.38494 18.25C6.81429 16.7696 7.57757 15.4075 8.61604 14.2685C9.6545 13.1295 10.9405 12.2439 12.3749 11.68C12.6959 12.372 13.208 12.9578 13.851 13.3684C14.4939 13.7789 15.2409 13.9971 16.0037 13.9971C16.7665 13.9971 17.5135 13.7789 18.1564 13.3684C18.7994 12.9578 19.3115 12.372 19.6324 11.68C21.0655 12.2449 22.35 13.1309 23.3871 14.2698C24.4242 15.4088 25.1864 16.7704 25.6149 18.25C24.7027 18.5863 23.9441 19.2435 23.4812 20.0985C23.0182 20.9535 22.8826 21.9479 23.0996 22.8957C23.3166 23.8435 23.8714 24.6798 24.6602 25.2482C25.4491 25.8167 26.418 26.0783 27.3857 25.9842C28.3535 25.8902 29.2538 25.4468 29.9184 24.7371C30.583 24.0273 30.9664 23.0998 30.9967 22.128C31.0271 21.1562 30.7025 20.2065 30.0835 19.4567C29.4646 18.7068 28.5937 18.2081 27.6337 18.0537V18.0512ZM6.99994 22C6.99994 22.3955 6.88264 22.7822 6.66288 23.1111C6.44312 23.44 6.13076 23.6964 5.76531 23.8477C5.39986 23.9991 4.99772 24.0387 4.60976 23.9615C4.2218 23.8844 3.86543 23.6939 3.58573 23.4142C3.30602 23.1345 3.11554 22.7781 3.03837 22.3902C2.9612 22.0022 3.00081 21.6001 3.15218 21.2346C3.30356 20.8692 3.5599 20.5568 3.8888 20.337C4.2177 20.1173 4.60438 20 4.99994 20C5.53037 20 6.03908 20.2107 6.41416 20.5858C6.78923 20.9608 6.99994 21.4695 6.99994 22ZM15.9999 12C15.6044 12 15.2177 11.8827 14.8888 11.6629C14.5599 11.4431 14.3036 11.1308 14.1522 10.7653C14.0008 10.3999 13.9612 9.99775 14.0384 9.60979C14.1155 9.22183 14.306 8.86546 14.5857 8.58576C14.8654 8.30605 15.2218 8.11557 15.6098 8.0384C15.9977 7.96123 16.3999 8.00084 16.7653 8.15221C17.1308 8.30359 17.4431 8.55993 17.6629 8.88883C17.8826 9.21773 17.9999 9.60441 17.9999 9.99997C17.9999 10.5304 17.7892 11.0391 17.4142 11.4142C17.0391 11.7893 16.5304 12 15.9999 12ZM26.9999 24C26.6044 24 26.2177 23.8827 25.8888 23.6629C25.5599 23.4431 25.3036 23.1308 25.1522 22.7653C25.0008 22.3999 24.9612 21.9978 25.0384 21.6098C25.1155 21.2218 25.306 20.8655 25.5857 20.5858C25.8654 20.3061 26.2218 20.1156 26.6098 20.0384C26.9977 19.9612 27.3999 20.0008 27.7653 20.1522C28.1308 20.3036 28.4431 20.5599 28.6629 20.8888C28.8826 21.2177 28.9999 21.6044 28.9999 22C28.9999 22.5304 28.7892 23.0391 28.4142 23.4142C28.0391 23.7893 27.5304 24 26.9999 24Z" fill="currentColor"/>
<path d="M75.2288 18.5088C74.8343 16.7585 74.0384 15.1239 72.9038 13.734C71.7692 12.3441 70.3271 11.2369 68.6912 10.5H78C78.1326 10.5 78.2598 10.4473 78.3536 10.3536C78.4473 10.2598 78.5 10.1326 78.5 10C78.5 9.8674 78.4473 9.74023 78.3536 9.64646C78.2598 9.55269 78.1326 9.50001 78 9.50001H67.4638C67.343 8.66752 66.9264 7.90636 66.2904 7.35589C65.6543 6.80541 64.8412 6.50244 64 6.50244C63.1588 6.50244 62.3457 6.80541 61.7096 7.35589C61.0736 7.90636 60.657 8.66752 60.5363 9.50001H50C49.8674 9.50001 49.7402 9.55269 49.6464 9.64646C49.5527 9.74023 49.5 9.8674 49.5 10C49.5 10.1326 49.5527 10.2598 49.6464 10.3536C49.7402 10.4473 49.8674 10.5 50 10.5H59.3088C57.6729 11.2369 56.2308 12.3441 55.0962 13.734C53.9616 15.1239 53.1657 16.7585 52.7712 18.5088C51.8888 18.567 51.0612 18.9572 50.4546 19.6008C49.8481 20.2444 49.5077 21.0937 49.5019 21.978C49.4961 22.8624 49.8252 23.7161 50.4232 24.3677C51.0211 25.0192 51.8435 25.4203 52.7251 25.4902C53.6067 25.5601 54.4821 25.2937 55.1753 24.7446C55.8684 24.1954 56.328 23.4042 56.4616 22.53C56.5953 21.6558 56.393 20.7634 55.8955 20.0323C55.398 19.3011 54.6422 18.7854 53.78 18.5888C54.1952 16.8527 55.0435 15.2502 56.2457 13.9308C57.448 12.6114 58.9649 11.6181 60.655 11.0438C60.8772 11.7561 61.3212 12.3788 61.9223 12.821C62.5234 13.2631 63.2501 13.5016 63.9963 13.5016C64.7424 13.5016 65.4691 13.2631 66.0702 12.821C66.6713 12.3788 67.1153 11.7561 67.3375 11.0438C69.0275 11.6183 70.5443 12.6116 71.7465 13.931C72.9487 15.2504 73.7971 16.8528 74.2125 18.5888C73.3503 18.7854 72.5945 19.3011 72.097 20.0323C71.5995 20.7634 71.3972 21.6558 71.5309 22.53C71.6645 23.4042 72.1241 24.1954 72.8172 24.7446C73.5104 25.2937 74.3858 25.5601 75.2674 25.4902C76.149 25.4203 76.9714 25.0192 77.5693 24.3677C78.1673 23.7161 78.4964 22.8624 78.4906 21.978C78.4848 21.0937 78.1444 20.2444 77.5379 19.6008C76.9313 18.9572 76.1037 18.567 75.2213 18.5088H75.2288ZM55.5 22C55.5 22.4945 55.3534 22.9778 55.0787 23.3889C54.804 23.8001 54.4135 24.1205 53.9567 24.3097C53.4999 24.4989 52.9972 24.5484 52.5123 24.452C52.0273 24.3555 51.5819 24.1174 51.2322 23.7678C50.8826 23.4181 50.6445 22.9727 50.548 22.4877C50.4516 22.0028 50.5011 21.5001 50.6903 21.0433C50.8795 20.5865 51.2 20.196 51.6111 19.9213C52.0222 19.6466 52.5055 19.5 53 19.5C53.663 19.5 54.2989 19.7634 54.7678 20.2322C55.2366 20.7011 55.5 21.337 55.5 22ZM64 12.5C63.5055 12.5 63.0222 12.3534 62.6111 12.0787C62.2 11.804 61.8795 11.4135 61.6903 10.9567C61.5011 10.4999 61.4516 9.99724 61.548 9.51229C61.6445 9.02733 61.8826 8.58188 62.2322 8.23224C62.5819 7.88261 63.0273 7.64451 63.5123 7.54805C63.9972 7.45158 64.4999 7.50109 64.9567 7.69031C65.4135 7.87953 65.804 8.19996 66.0787 8.61109C66.3534 9.02221 66.5 9.50556 66.5 10C66.5 10.6631 66.2366 11.2989 65.7678 11.7678C65.2989 12.2366 64.663 12.5 64 12.5ZM75 24.5C74.5055 24.5 74.0222 24.3534 73.6111 24.0787C73.2 23.804 72.8795 23.4135 72.6903 22.9567C72.5011 22.4999 72.4516 21.9972 72.548 21.5123C72.6445 21.0273 72.8826 20.5819 73.2322 20.2322C73.5819 19.8826 74.0273 19.6445 74.5123 19.548C74.9972 19.4516 75.4999 19.5011 75.9567 19.6903C76.4135 19.8795 76.804 20.2 77.0787 20.6111C77.3534 21.0222 77.5 21.5056 77.5 22C77.5 22.6631 77.2366 23.2989 76.7678 23.7678C76.2989 24.2366 75.663 24.5 75 24.5Z" fill="currentColor"/>
<path d="M123.43 18.275C123.048 16.6975 122.346 15.2154 121.367 13.9209C120.389 12.6263 119.154 11.547 117.74 10.75H126C126.199 10.75 126.39 10.671 126.53 10.5303C126.671 10.3897 126.75 10.1989 126.75 9.99998C126.75 9.80106 126.671 9.6103 126.53 9.46965C126.39 9.32899 126.199 9.24998 126 9.24998H115.675C115.503 8.40226 115.043 7.64012 114.373 7.09269C113.703 6.54526 112.865 6.24622 112 6.24622C111.135 6.24622 110.297 6.54526 109.627 7.09269C108.957 7.64012 108.497 8.40226 108.325 9.24998H98C97.8011 9.24998 97.6104 9.32899 97.4697 9.46965C97.3291 9.6103 97.25 9.80106 97.25 9.99998C97.25 10.1989 97.3291 10.3897 97.4697 10.5303C97.6104 10.671 97.8011 10.75 98 10.75H106.26C104.846 11.547 103.612 12.6263 102.633 13.9209C101.654 15.2154 100.952 16.6975 100.57 18.275C99.6476 18.3812 98.7973 18.8258 98.1839 19.5229C97.5704 20.2199 97.2374 21.1197 97.2492 22.0482C97.2611 22.9767 97.617 23.8678 98.248 24.5489C98.8791 25.2301 99.7404 25.6529 100.665 25.7355C101.59 25.8181 102.513 25.5547 103.255 24.9961C103.996 24.4376 104.505 23.6238 104.681 22.7121C104.857 21.8004 104.689 20.8558 104.208 20.061C103.728 19.2663 102.97 18.678 102.081 18.41C102.506 16.8047 103.312 15.3257 104.43 14.0985C105.549 12.8714 106.947 11.9323 108.506 11.3612C108.781 12.0647 109.261 12.6689 109.884 13.0949C110.508 13.5209 111.245 13.7488 112 13.7488C112.755 13.7488 113.492 13.5209 114.116 13.0949C114.739 12.6689 115.219 12.0647 115.494 11.3612C117.053 11.9323 118.451 12.8714 119.57 14.0985C120.688 15.3257 121.494 16.8047 121.919 18.41C121.03 18.678 120.272 19.2663 119.792 20.061C119.311 20.8558 119.143 21.8004 119.319 22.7121C119.496 23.6238 120.004 24.4376 120.746 24.9961C121.487 25.5547 122.41 25.8181 123.335 25.7355C124.26 25.6529 125.121 25.2301 125.752 24.5489C126.383 23.8678 126.739 22.9767 126.751 22.0482C126.763 21.1197 126.43 20.2199 125.816 19.5229C125.203 18.8258 124.352 18.3812 123.43 18.275ZM103.25 22C103.25 22.445 103.118 22.88 102.871 23.25C102.624 23.62 102.272 23.9084 101.861 24.0787C101.45 24.249 100.998 24.2936 100.561 24.2067C100.125 24.1199 99.7237 23.9056 99.409 23.591C99.0944 23.2763 98.8801 22.8754 98.7933 22.4389C98.7065 22.0025 98.751 21.5501 98.9213 21.1389C99.0916 20.7278 99.38 20.3764 99.75 20.1292C100.12 19.8819 100.555 19.75 101 19.75C101.597 19.75 102.169 19.987 102.591 20.409C103.013 20.8309 103.25 21.4032 103.25 22ZM112 12.25C111.555 12.25 111.12 12.118 110.75 11.8708C110.38 11.6235 110.092 11.2721 109.921 10.861C109.751 10.4499 109.706 9.99748 109.793 9.56102C109.88 9.12456 110.094 8.72365 110.409 8.40899C110.724 8.09432 111.125 7.88002 111.561 7.79321C111.998 7.70639 112.45 7.75095 112.861 7.92125C113.272 8.09154 113.624 8.37993 113.871 8.74994C114.118 9.11995 114.25 9.55497 114.25 9.99998C114.25 10.5967 114.013 11.169 113.591 11.591C113.169 12.0129 112.597 12.25 112 12.25ZM123 24.25C122.555 24.25 122.12 24.118 121.75 23.8708C121.38 23.6235 121.092 23.2721 120.921 22.861C120.751 22.4499 120.706 21.9975 120.793 21.561C120.88 21.1246 121.094 20.7237 121.409 20.409C121.724 20.0943 122.125 19.88 122.561 19.7932C122.998 19.7064 123.45 19.7509 123.861 19.9212C124.272 20.0915 124.624 20.3799 124.871 20.7499C125.118 21.12 125.25 21.555 125.25 22C125.25 22.5967 125.013 23.169 124.591 23.591C124.169 24.0129 123.597 24.25 123 24.25Z" fill="currentColor"/>
<path d="M172.035 17.625C171.359 15.2413 169.993 13.1105 168.11 11.5H174C174.398 11.5 174.779 11.342 175.061 11.0607C175.342 10.7794 175.5 10.3979 175.5 10C175.5 9.6022 175.342 9.22067 175.061 8.93937C174.779 8.65806 174.398 8.50003 174 8.50003H164.243C163.932 7.62277 163.358 6.86326 162.598 6.32607C161.838 5.78888 160.931 5.50043 160 5.50043C159.069 5.50043 158.162 5.78888 157.402 6.32607C156.642 6.86326 156.068 7.62277 155.757 8.50003H146C145.602 8.50003 145.221 8.65806 144.939 8.93937C144.658 9.22067 144.5 9.6022 144.5 10C144.5 10.3979 144.658 10.7794 144.939 11.0607C145.221 11.342 145.602 11.5 146 11.5H151.89C150.007 13.1105 148.641 15.2413 147.965 17.625C146.935 17.8705 146.024 18.4714 145.393 19.322C144.762 20.1727 144.452 21.2186 144.516 22.2757C144.58 23.3328 145.015 24.3334 145.745 25.1013C146.474 25.8693 147.451 26.3554 148.503 26.4741C149.556 26.5929 150.616 26.3367 151.498 25.7506C152.38 25.1645 153.027 24.2861 153.326 23.2699C153.624 22.2537 153.554 21.1649 153.129 20.195C152.703 19.2251 151.95 18.4364 151 17.9675C151.424 16.7231 152.099 15.5792 152.984 14.607C153.869 13.6348 154.945 12.855 156.144 12.3163C156.544 12.9815 157.109 13.5319 157.785 13.914C158.461 14.2961 159.224 14.4969 160 14.4969C160.776 14.4969 161.539 14.2961 162.215 13.914C162.891 13.5319 163.456 12.9815 163.856 12.3163C165.055 12.855 166.131 13.6348 167.016 14.607C167.901 15.5792 168.576 16.7231 169 17.9675C168.05 18.4364 167.297 19.2251 166.871 20.195C166.446 21.1649 166.376 22.2537 166.674 23.2699C166.973 24.2861 167.62 25.1645 168.502 25.7506C169.384 26.3367 170.444 26.5929 171.497 26.4741C172.549 26.3554 173.526 25.8693 174.255 25.1013C174.985 24.3334 175.42 23.3328 175.484 22.2757C175.548 21.2186 175.238 20.1727 174.607 19.322C173.976 18.4714 173.065 17.8705 172.035 17.625ZM149 23.5C148.703 23.5 148.413 23.4121 148.167 23.2472C147.92 23.0824 147.728 22.8481 147.614 22.5741C147.501 22.3 147.471 21.9984 147.529 21.7074C147.587 21.4164 147.73 21.1491 147.939 20.9394C148.149 20.7296 148.416 20.5867 148.707 20.5289C148.998 20.471 149.3 20.5007 149.574 20.6142C149.848 20.7277 150.082 20.92 150.247 21.1667C150.412 21.4133 150.5 21.7034 150.5 22C150.5 22.3979 150.342 22.7794 150.061 23.0607C149.779 23.342 149.398 23.5 149 23.5ZM160 11.5C159.703 11.5 159.413 11.4121 159.167 11.2472C158.92 11.0824 158.728 10.8481 158.614 10.5741C158.501 10.3 158.471 9.99837 158.529 9.70739C158.587 9.41642 158.73 9.14915 158.939 8.93937C159.149 8.72959 159.416 8.58673 159.707 8.52885C159.998 8.47097 160.3 8.50068 160.574 8.61421C160.848 8.72774 161.082 8.92 161.247 9.16667C161.412 9.41335 161.5 9.70336 161.5 10C161.5 10.3979 161.342 10.7794 161.061 11.0607C160.779 11.342 160.398 11.5 160 11.5ZM171 23.5C170.703 23.5 170.413 23.4121 170.167 23.2472C169.92 23.0824 169.728 22.8481 169.614 22.5741C169.501 22.3 169.471 21.9984 169.529 21.7074C169.587 21.4164 169.73 21.1491 169.939 20.9394C170.149 20.7296 170.416 20.5867 170.707 20.5289C170.998 20.471 171.3 20.5007 171.574 20.6142C171.848 20.7277 172.082 20.92 172.247 21.1667C172.412 21.4133 172.5 21.7034 172.5 22C172.5 22.3979 172.342 22.7794 172.061 23.0607C171.779 23.342 171.398 23.5 171 23.5Z" fill="currentColor"/>
<path d="M219.625 18.05C218.889 15.1618 217.107 12.6496 214.625 11H222C222.265 11 222.52 10.8946 222.707 10.7071C222.895 10.5195 223 10.2652 223 9.99997C223 9.73475 222.895 9.4804 222.707 9.29286C222.52 9.10533 222.265 8.99997 222 8.99997H211.875C211.655 8.13955 211.154 7.37693 210.453 6.83233C209.751 6.28773 208.888 5.99213 208 5.99213C207.112 5.99213 206.249 6.28773 205.547 6.83233C204.846 7.37693 204.345 8.13955 204.125 8.99997H194C193.735 8.99997 193.48 9.10533 193.293 9.29286C193.105 9.4804 193 9.73475 193 9.99997C193 10.2652 193.105 10.5195 193.293 10.7071C193.48 10.8946 193.735 11 194 11H201.375C198.893 12.6496 197.111 15.1618 196.375 18.05C195.662 18.163 194.994 18.4667 194.44 18.9288C193.886 19.3909 193.467 19.9942 193.228 20.6749C192.989 21.3555 192.938 22.0882 193.082 22.7952C193.225 23.5023 193.557 24.1574 194.042 24.6912C194.527 25.2251 195.148 25.6177 195.838 25.8276C196.528 26.0374 197.263 26.0567 197.963 25.8834C198.663 25.71 199.304 25.3505 199.816 24.8429C200.329 24.3353 200.695 23.6985 200.875 23H215.125C215.305 23.6985 215.671 24.3353 216.184 24.8429C216.696 25.3505 217.337 25.71 218.037 25.8834C218.737 26.0567 219.472 26.0374 220.162 25.8276C220.852 25.6177 221.473 25.2251 221.958 24.6912C222.443 24.1574 222.775 23.5023 222.918 22.7952C223.062 22.0882 223.011 21.3555 222.772 20.6749C222.533 19.9942 222.114 19.3909 221.56 18.9288C221.006 18.4667 220.338 18.163 219.625 18.05ZM197 24C196.604 24 196.218 23.8827 195.889 23.6629C195.56 23.4431 195.304 23.1308 195.152 22.7653C195.001 22.3999 194.961 21.9978 195.038 21.6098C195.116 21.2218 195.306 20.8655 195.586 20.5858C195.865 20.3061 196.222 20.1156 196.61 20.0384C196.998 19.9612 197.4 20.0008 197.765 20.1522C198.131 20.3036 198.443 20.5599 198.663 20.8888C198.883 21.2177 199 21.6044 199 22C199 22.5304 198.789 23.0391 198.414 23.4142C198.039 23.7893 197.53 24 197 24ZM208 7.99997C208.396 7.99997 208.782 8.11727 209.111 8.33703C209.44 8.55679 209.696 8.86915 209.848 9.2346C209.999 9.60006 210.039 10.0022 209.962 10.3902C209.884 10.7781 209.694 11.1345 209.414 11.4142C209.135 11.6939 208.778 11.8844 208.39 11.9615C208.002 12.0387 207.6 11.9991 207.235 11.8477C206.869 11.6964 206.557 11.44 206.337 11.1111C206.117 10.7822 206 10.3955 206 9.99997C206 9.46954 206.211 8.96083 206.586 8.58576C206.961 8.21068 207.47 7.99997 208 7.99997ZM219 24C218.604 24 218.218 23.8827 217.889 23.6629C217.56 23.4431 217.304 23.1308 217.152 22.7653C217.001 22.3999 216.961 21.9978 217.038 21.6098C217.116 21.2218 217.306 20.8655 217.586 20.5858C217.865 20.3061 218.222 20.1156 218.61 20.0384C218.998 19.9612 219.4 20.0008 219.765 20.1522C220.131 20.3036 220.443 20.5599 220.663 20.8888C220.883 21.2177 221 21.6044 221 22C221 22.5304 220.789 23.0391 220.414 23.4142C220.039 23.7893 219.53 24 219 24Z" fill="currentColor"/>
<path opacity="0.2" d="M259 10C259 10.5933 258.824 11.1734 258.494 11.6667C258.165 12.1601 257.696 12.5446 257.148 12.7716C256.6 12.9987 255.997 13.0581 255.415 12.9424C254.833 12.8266 254.298 12.5409 253.879 12.1213C253.459 11.7018 253.173 11.1672 253.058 10.5853C252.942 10.0033 253.001 9.40013 253.228 8.85195C253.455 8.30377 253.84 7.83524 254.333 7.50559C254.827 7.17595 255.407 7 256 7C256.796 7 257.559 7.31607 258.121 7.87868C258.684 8.44129 259 9.20435 259 10ZM245 19C244.407 19 243.827 19.1759 243.333 19.5056C242.84 19.8352 242.455 20.3038 242.228 20.8519C242.001 21.4001 241.942 22.0033 242.058 22.5853C242.173 23.1672 242.459 23.7018 242.879 24.1213C243.298 24.5409 243.833 24.8266 244.415 24.9424C244.997 25.0581 245.6 24.9987 246.148 24.7716C246.696 24.5446 247.165 24.1601 247.494 23.6667C247.824 23.1734 248 22.5933 248 22C248 21.2044 247.684 20.4413 247.121 19.8787C246.559 19.3161 245.796 19 245 19ZM267 19C266.407 19 265.827 19.1759 265.333 19.5056C264.84 19.8352 264.455 20.3038 264.228 20.8519C264.001 21.4001 263.942 22.0033 264.058 22.5853C264.173 23.1672 264.459 23.7018 264.879 24.1213C265.298 24.5409 265.833 24.8266 266.415 24.9424C266.997 25.0581 267.6 24.9987 268.148 24.7716C268.696 24.5446 269.165 24.1601 269.494 23.6667C269.824 23.1734 270 22.5933 270 22C270 21.2044 269.684 20.4413 269.121 19.8787C268.559 19.3161 267.796 19 267 19Z" fill="currentColor"/>
<path d="M267.634 18.0512C266.891 15.1634 265.107 12.652 262.625 11H270C270.265 11 270.52 10.8946 270.707 10.7071C270.895 10.5195 271 10.2652 271 9.99997C271 9.73475 270.895 9.4804 270.707 9.29286C270.52 9.10533 270.265 8.99997 270 8.99997H259.875C259.655 8.13955 259.154 7.37693 258.453 6.83233C257.751 6.28773 256.888 5.99213 256 5.99213C255.112 5.99213 254.249 6.28773 253.547 6.83233C252.846 7.37693 252.345 8.13955 252.125 8.99997H242C241.735 8.99997 241.48 9.10533 241.293 9.29286C241.105 9.4804 241 9.73475 241 9.99997C241 10.2652 241.105 10.5195 241.293 10.7071C241.48 10.8946 241.735 11 242 11H249.375C246.893 12.652 245.109 15.1634 244.366 18.0512C243.406 18.2044 242.535 18.7021 241.915 19.4512C241.295 20.2003 240.969 21.1495 240.998 22.1214C241.028 23.0933 241.41 24.0212 242.074 24.7318C242.737 25.4423 243.637 25.8867 244.605 25.982C245.572 26.0773 246.541 25.8168 247.331 25.2494C248.121 24.6819 248.676 23.8463 248.895 22.8988C249.113 21.9513 248.978 20.9568 248.516 20.1012C248.055 19.2456 247.297 18.5875 246.385 18.25C246.814 16.7696 247.578 15.4075 248.616 14.2685C249.655 13.1295 250.941 12.2439 252.375 11.68C252.696 12.372 253.208 12.9578 253.851 13.3684C254.494 13.7789 255.241 13.9971 256.004 13.9971C256.767 13.9971 257.514 13.7789 258.157 13.3684C258.799 12.9578 259.312 12.372 259.633 11.68C261.066 12.2449 262.35 13.1309 263.387 14.2698C264.424 15.4088 265.186 16.7704 265.615 18.25C264.703 18.5863 263.944 19.2435 263.481 20.0985C263.018 20.9535 262.883 21.9479 263.1 22.8957C263.317 23.8435 263.872 24.6798 264.66 25.2482C265.449 25.8167 266.418 26.0783 267.386 25.9842C268.354 25.8902 269.254 25.4468 269.919 24.7371C270.583 24.0273 270.966 23.0998 270.997 22.128C271.027 21.1562 270.703 20.2065 270.084 19.4567C269.465 18.7068 268.594 18.2081 267.634 18.0537V18.0512ZM247 22C247 22.3955 246.883 22.7822 246.663 23.1111C246.443 23.44 246.131 23.6964 245.765 23.8477C245.4 23.9991 244.998 24.0387 244.61 23.9615C244.222 23.8844 243.866 23.6939 243.586 23.4142C243.306 23.1345 243.116 22.7781 243.038 22.3902C242.961 22.0022 243.001 21.6001 243.152 21.2346C243.304 20.8692 243.56 20.5568 243.889 20.337C244.218 20.1173 244.605 20 245 20C245.53 20 246.039 20.2107 246.414 20.5858C246.789 20.9608 247 21.4695 247 22ZM256 12C255.605 12 255.218 11.8827 254.889 11.6629C254.56 11.4431 254.304 11.1308 254.152 10.7653C254.001 10.3999 253.961 9.99775 254.038 9.60979C254.116 9.22183 254.306 8.86546 254.586 8.58576C254.866 8.30605 255.222 8.11557 255.61 8.0384C255.998 7.96123 256.4 8.00084 256.765 8.15221C257.131 8.30359 257.443 8.55993 257.663 8.88883C257.883 9.21773 258 9.60441 258 9.99997C258 10.5304 257.789 11.0391 257.414 11.4142C257.039 11.7893 256.53 12 256 12ZM267 24C266.604 24 266.218 23.8827 265.889 23.6629C265.56 23.4431 265.304 23.1308 265.152 22.7653C265.001 22.3999 264.961 21.9978 265.038 21.6098C265.116 21.2218 265.306 20.8655 265.586 20.5858C265.866 20.3061 266.222 20.1156 266.61 20.0384C266.998 19.9612 267.4 20.0008 267.765 20.1522C268.131 20.3036 268.443 20.5599 268.663 20.8888C268.883 21.2177 269 21.6044 269 22C269 22.5304 268.789 23.0391 268.414 23.4142C268.039 23.7893 267.53 24 267 24Z" fill="currentColor"/>
</g>
<defs>
<clipPath id="clip0_17_14743">
<rect width="272" height="32" rx="5" fill="white"/>
</clipPath>
</defs>
</svg>
