<svg width="272" height="32" viewBox="0 0 272 32" fill="none" xmlns="http://www.w3.org/2000/svg">
<g clip-path="url(#clip0_17_14631)">
<path d="M21.5 9.5C21.5 8.41221 21.1774 7.34884 20.5731 6.44437C19.9687 5.5399 19.1098 4.83495 18.1048 4.41867C17.0998 4.00238 15.9939 3.89346 14.927 4.10568C13.8601 4.3179 12.8801 4.84173 12.1109 5.61092C11.3417 6.3801 10.8179 7.36011 10.6057 8.42701C10.3935 9.4939 10.5024 10.5998 10.9187 11.6048C11.3349 12.6098 12.0399 13.4687 12.9444 14.0731C13.8488 14.6774 14.9122 15 16 15C17.4582 14.9983 18.8562 14.4184 19.8873 13.3873C20.9184 12.3562 21.4983 10.9582 21.5 9.5ZM16 13C15.3078 13 14.6311 12.7947 14.0555 12.4101C13.4799 12.0256 13.0313 11.4789 12.7664 10.8394C12.5015 10.1999 12.4322 9.49612 12.5673 8.81719C12.7023 8.13825 13.0356 7.51461 13.5251 7.02513C14.0146 6.53565 14.6383 6.2023 15.3172 6.06725C15.9961 5.93221 16.6999 6.00152 17.3394 6.26642C17.9789 6.53133 18.5256 6.97993 18.9101 7.55551C19.2947 8.13108 19.5 8.80777 19.5 9.5C19.5 10.4283 19.1313 11.3185 18.4749 11.9749C17.8185 12.6313 16.9283 13 16 13ZM23.5 16C22.4122 16 21.3488 16.3226 20.4444 16.9269C19.5399 17.5313 18.8349 18.3903 18.4187 19.3952C18.0024 20.4002 17.8935 21.5061 18.1057 22.573C18.3179 23.6399 18.8417 24.6199 19.6109 25.3891C20.3801 26.1583 21.3601 26.6821 22.427 26.8943C23.4939 27.1065 24.5998 26.9976 25.6048 26.5813C26.6098 26.1651 27.4687 25.4601 28.0731 24.5556C28.6774 23.6512 29 22.5878 29 21.5C28.9983 20.0418 28.4184 18.6438 27.3873 17.6127C26.3562 16.5817 24.9582 16.0017 23.5 16ZM23.5 25C22.8078 25 22.1311 24.7947 21.5555 24.4101C20.9799 24.0256 20.5313 23.4789 20.2664 22.8394C20.0015 22.1999 19.9322 21.4961 20.0673 20.8172C20.2023 20.1383 20.5356 19.5146 21.0251 19.0251C21.5146 18.5356 22.1383 18.2023 22.8172 18.0673C23.4961 17.9322 24.1999 18.0015 24.8394 18.2664C25.4789 18.5313 26.0256 18.9799 26.4101 19.5555C26.7947 20.1311 27 20.8078 27 21.5C27 22.4283 26.6313 23.3185 25.9749 23.9749C25.3185 24.6313 24.4283 25 23.5 25ZM8.5 16C7.41221 16 6.34884 16.3226 5.44437 16.9269C4.5399 17.5313 3.83495 18.3903 3.41867 19.3952C3.00238 20.4002 2.89346 21.5061 3.10568 22.573C3.3179 23.6399 3.84173 24.6199 4.61092 25.3891C5.3801 26.1583 6.36011 26.6821 7.42701 26.8943C8.4939 27.1065 9.59977 26.9976 10.6048 26.5813C11.6098 26.1651 12.4687 25.4601 13.0731 24.5556C13.6774 23.6512 14 22.5878 14 21.5C13.9983 20.0418 13.4184 18.6438 12.3873 17.6127C11.3562 16.5817 9.95819 16.0017 8.5 16ZM8.5 25C7.80777 25 7.13108 24.7947 6.55551 24.4101C5.97993 24.0256 5.53133 23.4789 5.26642 22.8394C5.00152 22.1999 4.93221 21.4961 5.06725 20.8172C5.2023 20.1383 5.53565 19.5146 6.02513 19.0251C6.51461 18.5356 7.13825 18.2023 7.81719 18.0673C8.49612 17.9322 9.19985 18.0015 9.83939 18.2664C10.4789 18.5313 11.0256 18.9799 11.4101 19.5555C11.7947 20.1311 12 20.8078 12 21.5C12 22.4283 11.6313 23.3185 10.9749 23.9749C10.3185 24.6313 9.42826 25 8.5 25Z" fill="currentColor"/>
<path d="M69 9.5C69 8.5111 68.7068 7.5444 68.1574 6.72215C67.6079 5.89991 66.8271 5.25904 65.9134 4.8806C64.9998 4.50217 63.9945 4.40315 63.0246 4.59608C62.0546 4.789 61.1637 5.26521 60.4645 5.96447C59.7652 6.66373 59.289 7.55465 59.0961 8.52455C58.9031 9.49446 59.0022 10.4998 59.3806 11.4134C59.759 12.327 60.3999 13.1079 61.2222 13.6573C62.0444 14.2068 63.0111 14.5 64 14.5C64.6566 14.5 65.3068 14.3707 65.9134 14.1194C66.52 13.8681 67.0712 13.4998 67.5355 13.0355C67.9998 12.5712 68.3681 12.02 68.6194 11.4134C68.8707 10.8068 69 10.1566 69 9.5ZM64 13.5C63.2089 13.5 62.4355 13.2654 61.7777 12.8259C61.1199 12.3864 60.6072 11.7616 60.3045 11.0307C60.0017 10.2998 59.9225 9.49557 60.0769 8.71964C60.2312 7.94372 60.6122 7.23098 61.1716 6.67157C61.731 6.11216 62.4437 5.7312 63.2196 5.57686C63.9956 5.42252 64.7998 5.50173 65.5307 5.80448C66.2616 6.10723 66.8864 6.61992 67.3259 7.27772C67.7654 7.93552 68 8.70888 68 9.5C68 10.5609 67.5786 11.5783 66.8284 12.3284C66.0783 13.0786 65.0609 13.5 64 13.5ZM71.5 16.5C70.5111 16.5 69.5444 16.7932 68.7222 17.3427C67.8999 17.8921 67.259 18.673 66.8806 19.5866C66.5022 20.5002 66.4031 21.5055 66.5961 22.4755C66.789 23.4454 67.2652 24.3363 67.9645 25.0355C68.6637 25.7348 69.5546 26.211 70.5245 26.4039C71.4945 26.5969 72.4998 26.4978 73.4134 26.1194C74.3271 25.741 75.1079 25.1001 75.6574 24.2779C76.2068 23.4556 76.5 22.4889 76.5 21.5C76.5 20.1739 75.9732 18.9022 75.0355 17.9645C74.0979 17.0268 72.8261 16.5 71.5 16.5ZM71.5 25.5C70.7089 25.5 69.9355 25.2654 69.2777 24.8259C68.6199 24.3864 68.1072 23.7616 67.8045 23.0307C67.5017 22.2998 67.4225 21.4956 67.5769 20.7196C67.7312 19.9437 68.1122 19.231 68.6716 18.6716C69.231 18.1122 69.9437 17.7312 70.7196 17.5769C71.4956 17.4225 72.2998 17.5017 73.0307 17.8045C73.7616 18.1072 74.3864 18.6199 74.8259 19.2777C75.2654 19.9355 75.5 20.7089 75.5 21.5C75.5 22.5609 75.0786 23.5783 74.3284 24.3284C73.5783 25.0786 72.5609 25.5 71.5 25.5ZM56.5 16.5C55.5111 16.5 54.5444 16.7932 53.7222 17.3427C52.8999 17.8921 52.259 18.673 51.8806 19.5866C51.5022 20.5002 51.4031 21.5055 51.5961 22.4755C51.789 23.4454 52.2652 24.3363 52.9645 25.0355C53.6637 25.7348 54.5546 26.211 55.5246 26.4039C56.4945 26.5969 57.4998 26.4978 58.4134 26.1194C59.327 25.741 60.1079 25.1001 60.6573 24.2779C61.2068 23.4556 61.5 22.4889 61.5 21.5C61.5 20.1739 60.9732 18.9022 60.0355 17.9645C59.0979 17.0268 57.8261 16.5 56.5 16.5ZM56.5 25.5C55.7089 25.5 54.9355 25.2654 54.2777 24.8259C53.6199 24.3864 53.1072 23.7616 52.8045 23.0307C52.5017 22.2998 52.4225 21.4956 52.5769 20.7196C52.7312 19.9437 53.1122 19.231 53.6716 18.6716C54.231 18.1122 54.9437 17.7312 55.7196 17.5769C56.4956 17.4225 57.2998 17.5017 58.0307 17.8045C58.7616 18.1072 59.3864 18.6199 59.8259 19.2777C60.2654 19.9355 60.5 20.7089 60.5 21.5C60.5 22.5609 60.0786 23.5783 59.3284 24.3284C58.5783 25.0786 57.5609 25.5 56.5 25.5Z" fill="currentColor"/>
<path d="M117.25 9.5C117.25 8.46165 116.942 7.44662 116.365 6.58326C115.788 5.7199 114.968 5.04699 114.009 4.64963C113.05 4.25227 111.994 4.14831 110.976 4.35088C109.957 4.55345 109.022 5.05347 108.288 5.78769C107.553 6.52192 107.053 7.45738 106.851 8.47578C106.648 9.49418 106.752 10.5498 107.15 11.5091C107.547 12.4684 108.22 13.2883 109.083 13.8652C109.947 14.4421 110.962 14.75 112 14.75C113.392 14.75 114.728 14.1969 115.712 13.2123C116.697 12.2277 117.25 10.8924 117.25 9.5ZM112 13.25C111.258 13.25 110.533 13.0301 109.917 12.618C109.3 12.206 108.819 11.6203 108.535 10.9351C108.252 10.2498 108.177 9.49584 108.322 8.76841C108.467 8.04099 108.824 7.3728 109.348 6.84835C109.873 6.3239 110.541 5.96675 111.268 5.82206C111.996 5.67736 112.75 5.75163 113.435 6.03545C114.12 6.31928 114.706 6.79993 115.118 7.41661C115.53 8.0333 115.75 8.75832 115.75 9.5C115.75 10.4946 115.355 11.4484 114.652 12.1517C113.948 12.8549 112.995 13.25 112 13.25ZM119.5 16.25C118.462 16.25 117.447 16.5579 116.583 17.1348C115.72 17.7117 115.047 18.5316 114.65 19.4909C114.252 20.4502 114.148 21.5058 114.351 22.5242C114.553 23.5426 115.053 24.4781 115.788 25.2123C116.522 25.9465 117.457 26.4466 118.476 26.6491C119.494 26.8517 120.55 26.7477 121.509 26.3504C122.468 25.953 123.288 25.2801 123.865 24.4167C124.442 23.5534 124.75 22.5384 124.75 21.5C124.75 20.1076 124.197 18.7723 123.212 17.7877C122.228 16.8031 120.892 16.25 119.5 16.25ZM119.5 25.25C118.758 25.25 118.033 25.0301 117.417 24.618C116.8 24.206 116.319 23.6203 116.035 22.9351C115.752 22.2498 115.677 21.4958 115.822 20.7684C115.967 20.041 116.324 19.3728 116.848 18.8484C117.373 18.3239 118.041 17.9668 118.768 17.8221C119.496 17.6774 120.25 17.7516 120.935 18.0355C121.62 18.3193 122.206 18.7999 122.618 19.4166C123.03 20.0333 123.25 20.7583 123.25 21.5C123.25 22.4946 122.855 23.4484 122.152 24.1517C121.448 24.8549 120.495 25.25 119.5 25.25ZM104.5 16.25C103.462 16.25 102.447 16.5579 101.583 17.1348C100.72 17.7117 100.047 18.5316 99.6496 19.4909C99.2523 20.4502 99.1483 21.5058 99.3509 22.5242C99.5535 23.5426 100.053 24.4781 100.788 25.2123C101.522 25.9465 102.457 26.4466 103.476 26.6491C104.494 26.8517 105.55 26.7477 106.509 26.3504C107.468 25.953 108.288 25.2801 108.865 24.4167C109.442 23.5534 109.75 22.5384 109.75 21.5C109.75 20.1076 109.197 18.7723 108.212 17.7877C107.228 16.8031 105.892 16.25 104.5 16.25ZM104.5 25.25C103.758 25.25 103.033 25.0301 102.417 24.618C101.8 24.206 101.319 23.6203 101.035 22.9351C100.752 22.2498 100.677 21.4958 100.822 20.7684C100.967 20.041 101.324 19.3728 101.848 18.8484C102.373 18.3239 103.041 17.9668 103.768 17.8221C104.496 17.6774 105.25 17.7516 105.935 18.0355C106.62 18.3193 107.206 18.7999 107.618 19.4166C108.03 20.0333 108.25 20.7583 108.25 21.5C108.25 22.4946 107.855 23.4484 107.152 24.1517C106.448 24.8549 105.495 25.25 104.5 25.25Z" fill="currentColor"/>
<path d="M166 9.5C166 8.31331 165.648 7.15328 164.989 6.16658C164.33 5.17989 163.392 4.41085 162.296 3.95673C161.2 3.5026 159.993 3.38378 158.829 3.61529C157.666 3.8468 156.596 4.41825 155.757 5.25736C154.918 6.09648 154.347 7.16558 154.115 8.32946C153.884 9.49335 154.003 10.6997 154.457 11.7961C154.911 12.8925 155.68 13.8295 156.667 14.4888C157.653 15.1481 158.813 15.5 160 15.5C161.591 15.4983 163.116 14.8657 164.241 13.7408C165.366 12.616 165.998 11.0908 166 9.5ZM160 12.5C159.407 12.5 158.827 12.3241 158.333 11.9944C157.84 11.6648 157.455 11.1962 157.228 10.6481C157.001 10.0999 156.942 9.49668 157.058 8.91473C157.173 8.33279 157.459 7.79824 157.879 7.37868C158.298 6.95913 158.833 6.6734 159.415 6.55765C159.997 6.44189 160.6 6.5013 161.148 6.72836C161.696 6.95543 162.165 7.33994 162.494 7.83329C162.824 8.32664 163 8.90666 163 9.5C163 10.2957 162.684 11.0587 162.121 11.6213C161.559 12.1839 160.796 12.5 160 12.5ZM167.5 15.5C166.313 15.5 165.153 15.8519 164.167 16.5112C163.18 17.1705 162.411 18.1075 161.957 19.2039C161.503 20.3003 161.384 21.5067 161.615 22.6705C161.847 23.8344 162.418 24.9035 163.257 25.7426C164.096 26.5818 165.166 27.1532 166.329 27.3847C167.493 27.6162 168.7 27.4974 169.796 27.0433C170.892 26.5892 171.83 25.8201 172.489 24.8334C173.148 23.8467 173.5 22.6867 173.5 21.5C173.498 19.9092 172.866 18.384 171.741 17.2592C170.616 16.1343 169.091 15.5017 167.5 15.5ZM167.5 24.5C166.907 24.5 166.327 24.3241 165.833 23.9944C165.34 23.6648 164.955 23.1962 164.728 22.6481C164.501 22.0999 164.442 21.4967 164.558 20.9147C164.673 20.3328 164.959 19.7982 165.379 19.3787C165.798 18.9591 166.333 18.6734 166.915 18.5576C167.497 18.4419 168.1 18.5013 168.648 18.7284C169.196 18.9554 169.665 19.3399 169.994 19.8333C170.324 20.3266 170.5 20.9067 170.5 21.5C170.5 22.2957 170.184 23.0587 169.621 23.6213C169.059 24.1839 168.296 24.5 167.5 24.5ZM152.5 15.5C151.313 15.5 150.153 15.8519 149.167 16.5112C148.18 17.1705 147.411 18.1075 146.957 19.2039C146.503 20.3003 146.384 21.5067 146.615 22.6705C146.847 23.8344 147.418 24.9035 148.257 25.7426C149.096 26.5818 150.166 27.1532 151.329 27.3847C152.493 27.6162 153.7 27.4974 154.796 27.0433C155.892 26.5892 156.83 25.8201 157.489 24.8334C158.148 23.8467 158.5 22.6867 158.5 21.5C158.498 19.9092 157.866 18.384 156.741 17.2592C155.616 16.1343 154.091 15.5017 152.5 15.5ZM152.5 24.5C151.907 24.5 151.327 24.3241 150.833 23.9944C150.34 23.6648 149.955 23.1962 149.728 22.6481C149.501 22.0999 149.442 21.4967 149.558 20.9147C149.673 20.3328 149.959 19.7982 150.379 19.3787C150.798 18.9591 151.333 18.6734 151.915 18.5576C152.497 18.4419 153.1 18.5013 153.648 18.7284C154.196 18.9554 154.665 19.3399 154.994 19.8333C155.324 20.3266 155.5 20.9067 155.5 21.5C155.5 22.2957 155.184 23.0587 154.621 23.6213C154.059 24.1839 153.296 24.5 152.5 24.5Z" fill="currentColor"/>
<path d="M208 15C206.912 15 205.849 14.6774 204.944 14.0731C204.04 13.4687 203.335 12.6098 202.919 11.6048C202.502 10.5998 202.393 9.4939 202.606 8.42701C202.818 7.36011 203.342 6.3801 204.111 5.61092C204.88 4.84173 205.86 4.3179 206.927 4.10568C207.994 3.89346 209.1 4.00238 210.105 4.41867C211.11 4.83495 211.969 5.5399 212.573 6.44437C213.177 7.34884 213.5 8.41221 213.5 9.5C213.498 10.9582 212.918 12.3562 211.887 13.3873C210.856 14.4184 209.458 14.9983 208 15ZM215.5 16C214.412 16 213.349 16.3226 212.444 16.9269C211.54 17.5313 210.835 18.3903 210.419 19.3952C210.002 20.4002 209.893 21.5061 210.106 22.573C210.318 23.6399 210.842 24.6199 211.611 25.3891C212.38 26.1583 213.36 26.6821 214.427 26.8943C215.494 27.1065 216.6 26.9976 217.605 26.5813C218.61 26.1651 219.469 25.4601 220.073 24.5556C220.677 23.6512 221 22.5878 221 21.5C220.998 20.0418 220.418 18.6438 219.387 17.6127C218.356 16.5817 216.958 16.0017 215.5 16ZM200.5 16C199.412 16 198.349 16.3226 197.444 16.9269C196.54 17.5313 195.835 18.3903 195.419 19.3952C195.002 20.4002 194.893 21.5061 195.106 22.573C195.318 23.6399 195.842 24.6199 196.611 25.3891C197.38 26.1583 198.36 26.6821 199.427 26.8943C200.494 27.1065 201.6 26.9976 202.605 26.5813C203.61 26.1651 204.469 25.4601 205.073 24.5556C205.677 23.6512 206 22.5878 206 21.5C205.998 20.0418 205.418 18.6438 204.387 17.6127C203.356 16.5817 201.958 16.0017 200.5 16Z" fill="currentColor"/>
<path opacity="0.2" d="M256 14C255.11 14 254.24 13.7361 253.5 13.2416C252.76 12.7471 252.183 12.0443 251.843 11.2221C251.502 10.3998 251.413 9.49501 251.586 8.6221C251.76 7.74918 252.189 6.94736 252.818 6.31802C253.447 5.68868 254.249 5.2601 255.122 5.08647C255.995 4.91283 256.9 5.00195 257.722 5.34254C258.544 5.68314 259.247 6.25991 259.742 6.99994C260.236 7.73996 260.5 8.60999 260.5 9.5C260.5 10.6935 260.026 11.8381 259.182 12.682C258.338 13.5259 257.193 14 256 14ZM263.5 17C262.61 17 261.74 17.2639 261 17.7584C260.26 18.2529 259.683 18.9557 259.343 19.7779C259.002 20.6002 258.913 21.505 259.086 22.3779C259.26 23.2508 259.689 24.0526 260.318 24.682C260.947 25.3113 261.749 25.7399 262.622 25.9135C263.495 26.0872 264.4 25.9981 265.222 25.6575C266.044 25.3169 266.747 24.7401 267.242 24.0001C267.736 23.26 268 22.39 268 21.5C268 20.3065 267.526 19.1619 266.682 18.318C265.838 17.4741 264.693 17 263.5 17ZM248.5 17C247.61 17 246.74 17.2639 246 17.7584C245.26 18.2529 244.683 18.9557 244.343 19.7779C244.002 20.6002 243.913 21.505 244.086 22.3779C244.26 23.2508 244.689 24.0526 245.318 24.682C245.947 25.3113 246.749 25.7399 247.622 25.9135C248.495 26.0872 249.4 25.9981 250.222 25.6575C251.044 25.3169 251.747 24.7401 252.242 24.0001C252.736 23.26 253 22.39 253 21.5C253 20.3065 252.526 19.1619 251.682 18.318C250.838 17.4741 249.693 17 248.5 17Z" fill="currentColor"/>
<path d="M261.5 9.5C261.5 8.41221 261.177 7.34884 260.573 6.44437C259.969 5.5399 259.11 4.83495 258.105 4.41867C257.1 4.00238 255.994 3.89346 254.927 4.10568C253.86 4.3179 252.88 4.84173 252.111 5.61092C251.342 6.3801 250.818 7.36011 250.606 8.42701C250.393 9.4939 250.502 10.5998 250.919 11.6048C251.335 12.6098 252.04 13.4687 252.944 14.0731C253.849 14.6774 254.912 15 256 15C257.458 14.9983 258.856 14.4184 259.887 13.3873C260.918 12.3562 261.498 10.9582 261.5 9.5ZM256 13C255.308 13 254.631 12.7947 254.056 12.4101C253.48 12.0256 253.031 11.4789 252.766 10.8394C252.502 10.1999 252.432 9.49612 252.567 8.81719C252.702 8.13825 253.036 7.51461 253.525 7.02513C254.015 6.53565 254.638 6.2023 255.317 6.06725C255.996 5.93221 256.7 6.00152 257.339 6.26642C257.979 6.53133 258.526 6.97993 258.91 7.55551C259.295 8.13108 259.5 8.80777 259.5 9.5C259.5 10.4283 259.131 11.3185 258.475 11.9749C257.819 12.6313 256.928 13 256 13ZM263.5 16C262.412 16 261.349 16.3226 260.444 16.9269C259.54 17.5313 258.835 18.3903 258.419 19.3952C258.002 20.4002 257.893 21.5061 258.106 22.573C258.318 23.6399 258.842 24.6199 259.611 25.3891C260.38 26.1583 261.36 26.6821 262.427 26.8943C263.494 27.1065 264.6 26.9976 265.605 26.5813C266.61 26.1651 267.469 25.4601 268.073 24.5556C268.677 23.6512 269 22.5878 269 21.5C268.998 20.0418 268.418 18.6438 267.387 17.6127C266.356 16.5817 264.958 16.0017 263.5 16ZM263.5 25C262.808 25 262.131 24.7947 261.556 24.4101C260.98 24.0256 260.531 23.4789 260.266 22.8394C260.002 22.1999 259.932 21.4961 260.067 20.8172C260.202 20.1383 260.536 19.5146 261.025 19.0251C261.515 18.5356 262.138 18.2023 262.817 18.0673C263.496 17.9322 264.2 18.0015 264.839 18.2664C265.479 18.5313 266.026 18.9799 266.41 19.5555C266.795 20.1311 267 20.8078 267 21.5C267 22.4283 266.631 23.3185 265.975 23.9749C265.318 24.6313 264.428 25 263.5 25ZM248.5 16C247.412 16 246.349 16.3226 245.444 16.9269C244.54 17.5313 243.835 18.3903 243.419 19.3952C243.002 20.4002 242.893 21.5061 243.106 22.573C243.318 23.6399 243.842 24.6199 244.611 25.3891C245.38 26.1583 246.36 26.6821 247.427 26.8943C248.494 27.1065 249.6 26.9976 250.605 26.5813C251.61 26.1651 252.469 25.4601 253.073 24.5556C253.677 23.6512 254 22.5878 254 21.5C253.998 20.0418 253.418 18.6438 252.387 17.6127C251.356 16.5817 249.958 16.0017 248.5 16ZM248.5 25C247.808 25 247.131 24.7947 246.556 24.4101C245.98 24.0256 245.531 23.4789 245.266 22.8394C245.002 22.1999 244.932 21.4961 245.067 20.8172C245.202 20.1383 245.536 19.5146 246.025 19.0251C246.515 18.5356 247.138 18.2023 247.817 18.0673C248.496 17.9322 249.2 18.0015 249.839 18.2664C250.479 18.5313 251.026 18.9799 251.41 19.5555C251.795 20.1311 252 20.8078 252 21.5C252 22.4283 251.631 23.3185 250.975 23.9749C250.318 24.6313 249.428 25 248.5 25Z" fill="currentColor"/>
</g>
<defs>
<clipPath id="clip0_17_14631">
<rect width="272" height="32" rx="5" fill="white"/>
</clipPath>
</defs>
</svg>
