<svg width="272" height="32" viewBox="0 0 272 32" fill="none" xmlns="http://www.w3.org/2000/svg">
<g clip-path="url(#clip0_17_14715)">
<path d="M16 3C13.4288 3 10.9154 3.76244 8.77759 5.1909C6.63975 6.61935 4.97351 8.64968 3.98957 11.0251C3.00563 13.4006 2.74819 16.0144 3.2498 18.5362C3.75141 21.0579 4.98953 23.3743 6.80762 25.1924C8.6257 27.0105 10.9421 28.2486 13.4638 28.7502C15.9856 29.2518 18.5995 28.9944 20.9749 28.0104C23.3503 27.0265 25.3807 25.3603 26.8091 23.2224C28.2376 21.0846 29 18.5712 29 16C28.9964 12.5533 27.6256 9.24882 25.1884 6.81163C22.7512 4.37445 19.4467 3.00364 16 3ZM16 27C13.8244 27 11.6977 26.3549 9.88873 25.1462C8.07979 23.9375 6.66989 22.2195 5.83733 20.2095C5.00477 18.1995 4.78693 15.9878 5.21137 13.854C5.63581 11.7202 6.68345 9.7602 8.22183 8.22183C9.76021 6.68345 11.7202 5.6358 13.854 5.21136C15.9878 4.78692 18.1995 5.00476 20.2095 5.83733C22.2195 6.66989 23.9375 8.07979 25.1462 9.88873C26.3549 11.6977 27 13.8244 27 16C26.9967 18.9164 25.8367 21.7123 23.7745 23.7745C21.7123 25.8367 18.9164 26.9967 16 27Z" fill="currentColor"/>
<path d="M64 3.5C61.5277 3.5 59.111 4.23311 57.0554 5.60663C54.9998 6.98015 53.3976 8.93238 52.4515 11.2165C51.5054 13.5005 51.2579 16.0139 51.7402 18.4386C52.2225 20.8634 53.413 23.0907 55.1612 24.8388C56.9093 26.587 59.1366 27.7775 61.5614 28.2598C63.9861 28.7421 66.4995 28.4946 68.7835 27.5485C71.0676 26.6024 73.0199 25.0002 74.3934 22.9446C75.7669 20.889 76.5 18.4723 76.5 16C76.4964 12.6859 75.1782 9.5086 72.8348 7.16518C70.4914 4.82177 67.3141 3.50364 64 3.5ZM64 27.5C61.7255 27.5 59.5021 26.8255 57.6109 25.5619C55.7198 24.2983 54.2458 22.5022 53.3754 20.4009C52.505 18.2995 52.2772 15.9872 52.721 13.7565C53.1647 11.5257 54.26 9.47658 55.8683 7.86827C57.4766 6.25997 59.5257 5.1647 61.7565 4.72097C63.9872 4.27724 66.2995 4.50498 68.4009 5.37539C70.5022 6.24579 72.2983 7.71978 73.5619 9.61094C74.8255 11.5021 75.5 13.7255 75.5 16C75.4967 19.049 74.284 21.9721 72.1281 24.1281C69.9721 26.284 67.049 27.4967 64 27.5Z" fill="currentColor"/>
<path d="M112 3.25C109.478 3.25 107.013 3.99777 104.916 5.39876C102.82 6.79975 101.186 8.79103 100.221 11.1208C99.2555 13.4505 99.003 16.0141 99.495 18.4874C99.987 20.9607 101.201 23.2325 102.984 25.0156C104.768 26.7987 107.039 28.0131 109.513 28.505C111.986 28.997 114.549 28.7445 116.879 27.7795C119.209 26.8144 121.2 25.1802 122.601 23.0835C124.002 20.9868 124.75 18.5217 124.75 16C124.746 12.6197 123.401 9.379 121.011 6.98877C118.621 4.59854 115.38 3.25397 112 3.25ZM112 27.25C109.775 27.25 107.6 26.5902 105.75 25.354C103.9 24.1179 102.458 22.3609 101.606 20.3052C100.755 18.2495 100.532 15.9875 100.966 13.8052C101.4 11.6229 102.472 9.61839 104.045 8.04505C105.618 6.47171 107.623 5.40025 109.805 4.96617C111.988 4.53208 114.25 4.75487 116.305 5.60636C118.361 6.45784 120.118 7.89978 121.354 9.74984C122.59 11.5999 123.25 13.775 123.25 16C123.247 18.9827 122.06 21.8422 119.951 23.9513C117.842 26.0604 114.983 27.2467 112 27.25Z" fill="currentColor"/>
<path d="M160 2.5C157.33 2.5 154.72 3.29176 152.5 4.77516C150.28 6.25856 148.549 8.36697 147.528 10.8338C146.506 13.3006 146.239 16.015 146.759 18.6337C147.28 21.2525 148.566 23.6579 150.454 25.5459C152.342 27.434 154.748 28.7197 157.366 29.2406C159.985 29.7615 162.699 29.4942 165.166 28.4724C167.633 27.4506 169.741 25.7203 171.225 23.5002C172.708 21.2801 173.5 18.67 173.5 16C173.496 12.4208 172.072 8.98932 169.542 6.45844C167.011 3.92756 163.579 2.50397 160 2.5ZM160 26.5C157.923 26.5 155.893 25.8842 154.167 24.7304C152.44 23.5767 151.094 21.9368 150.299 20.0182C149.505 18.0996 149.297 15.9884 149.702 13.9516C150.107 11.9148 151.107 10.0438 152.575 8.57538C154.044 7.10693 155.915 6.1069 157.952 5.70175C159.988 5.29661 162.1 5.50454 164.018 6.29926C165.937 7.09399 167.577 8.4398 168.73 10.1665C169.884 11.8932 170.5 13.9233 170.5 16C170.497 18.7839 169.39 21.4528 167.421 23.4213C165.453 25.3898 162.784 26.497 160 26.5Z" fill="currentColor"/>
<path d="M221 16C221 18.5712 220.238 21.0846 218.809 23.2224C217.381 25.3603 215.35 27.0265 212.975 28.0104C210.599 28.9944 207.986 29.2518 205.464 28.7502C202.942 28.2486 200.626 27.0105 198.808 25.1924C196.99 23.3743 195.751 21.0579 195.25 18.5362C194.748 16.0144 195.006 13.4006 195.99 11.0251C196.974 8.64968 198.64 6.61935 200.778 5.1909C202.915 3.76244 205.429 3 208 3C211.447 3.0043 214.751 4.37532 217.188 6.81236C219.625 9.2494 220.996 12.5535 221 16Z" fill="currentColor"/>
<path opacity="0.2" d="M268 16C268 18.3734 267.296 20.6935 265.978 22.6668C264.659 24.6402 262.785 26.1783 260.592 27.0866C258.399 27.9948 255.987 28.2324 253.659 27.7694C251.331 27.3064 249.193 26.1635 247.515 24.4853C245.836 22.8071 244.694 20.6689 244.231 18.3411C243.768 16.0133 244.005 13.6005 244.913 11.4078C245.822 9.21509 247.36 7.34094 249.333 6.02236C251.307 4.70379 253.627 4 256 4C259.183 4 262.235 5.26428 264.485 7.51472C266.736 9.76515 268 12.8174 268 16Z" fill="currentColor"/>
<path d="M256 3C253.429 3 250.915 3.76244 248.778 5.1909C246.64 6.61935 244.974 8.64968 243.99 11.0251C243.006 13.4006 242.748 16.0144 243.25 18.5362C243.751 21.0579 244.99 23.3743 246.808 25.1924C248.626 27.0105 250.942 28.2486 253.464 28.7502C255.986 29.2518 258.599 28.9944 260.975 28.0104C263.35 27.0265 265.381 25.3603 266.809 23.2224C268.238 21.0846 269 18.5712 269 16C268.996 12.5533 267.626 9.24882 265.188 6.81163C262.751 4.37445 259.447 3.00364 256 3ZM256 27C253.824 27 251.698 26.3549 249.889 25.1462C248.08 23.9375 246.67 22.2195 245.837 20.2095C245.005 18.1995 244.787 15.9878 245.211 13.854C245.636 11.7202 246.683 9.7602 248.222 8.22183C249.76 6.68345 251.72 5.6358 253.854 5.21136C255.988 4.78692 258.2 5.00476 260.21 5.83733C262.22 6.66989 263.937 8.07979 265.146 9.88873C266.355 11.6977 267 13.8244 267 16C266.997 18.9164 265.837 21.7123 263.775 23.7745C261.712 25.8367 258.916 26.9967 256 27Z" fill="currentColor"/>
</g>
<defs>
<clipPath id="clip0_17_14715">
<rect width="272" height="32" rx="5" fill="white"/>
</clipPath>
</defs>
</svg>
