<svg width="272" height="32" viewBox="0 0 272 32" fill="none" xmlns="http://www.w3.org/2000/svg">
<g clip-path="url(#clip0_17_14645)">
<path d="M10 5C9.0111 5 8.0444 5.29325 7.22215 5.84265C6.39991 6.39206 5.75904 7.17295 5.3806 8.08659C5.00217 9.00022 4.90315 10.0055 5.09608 10.9755C5.289 11.9454 5.76521 12.8363 6.46447 13.5355C7.16373 14.2348 8.05465 14.711 9.02455 14.9039C9.99446 15.0969 10.9998 14.9978 11.9134 14.6194C12.827 14.241 13.6079 13.6001 14.1573 12.7779C14.7068 11.9556 15 10.9889 15 10C15 8.67392 14.4732 7.40215 13.5355 6.46447C12.5979 5.52679 11.3261 5 10 5ZM10 13C9.40666 13 8.82664 12.8241 8.33329 12.4944C7.83994 12.1648 7.45543 11.6962 7.22836 11.1481C7.0013 10.5999 6.94189 9.99667 7.05765 9.41473C7.1734 8.83279 7.45912 8.29824 7.87868 7.87868C8.29824 7.45912 8.83279 7.1734 9.41473 7.05765C9.99667 6.94189 10.5999 7.0013 11.1481 7.22836C11.6962 7.45543 12.1648 7.83994 12.4944 8.33329C12.8241 8.82664 13 9.40666 13 10C13 10.7957 12.6839 11.5587 12.1213 12.1213C11.5587 12.6839 10.7957 13 10 13ZM22 15C22.9889 15 23.9556 14.7068 24.7779 14.1573C25.6001 13.6079 26.241 12.827 26.6194 11.9134C26.9978 10.9998 27.0969 9.99446 26.9039 9.02455C26.711 8.05465 26.2348 7.16373 25.5355 6.46447C24.8363 5.76521 23.9454 5.289 22.9755 5.09608C22.0055 4.90315 21.0002 5.00217 20.0866 5.3806C19.173 5.75904 18.3921 6.39991 17.8427 7.22215C17.2932 8.0444 17 9.0111 17 10C17 11.3261 17.5268 12.5979 18.4645 13.5355C19.4022 14.4732 20.6739 15 22 15ZM22 7C22.5933 7 23.1734 7.17595 23.6667 7.50559C24.1601 7.83524 24.5446 8.30377 24.7716 8.85195C24.9987 9.40013 25.0581 10.0033 24.9424 10.5853C24.8266 11.1672 24.5409 11.7018 24.1213 12.1213C23.7018 12.5409 23.1672 12.8266 22.5853 12.9424C22.0033 13.0581 21.4001 12.9987 20.852 12.7716C20.3038 12.5446 19.8352 12.1601 19.5056 11.6667C19.1759 11.1734 19 10.5933 19 10C19 9.20435 19.3161 8.44129 19.8787 7.87868C20.4413 7.31607 21.2044 7 22 7ZM10 17C9.0111 17 8.0444 17.2932 7.22215 17.8427C6.39991 18.3921 5.75904 19.173 5.3806 20.0866C5.00217 21.0002 4.90315 22.0055 5.09608 22.9755C5.289 23.9454 5.76521 24.8363 6.46447 25.5355C7.16373 26.2348 8.05465 26.711 9.02455 26.9039C9.99446 27.0969 10.9998 26.9978 11.9134 26.6194C12.827 26.241 13.6079 25.6001 14.1573 24.7779C14.7068 23.9556 15 22.9889 15 22C15 20.6739 14.4732 19.4022 13.5355 18.4645C12.5979 17.5268 11.3261 17 10 17ZM10 25C9.40666 25 8.82664 24.8241 8.33329 24.4944C7.83994 24.1648 7.45543 23.6962 7.22836 23.1481C7.0013 22.5999 6.94189 21.9967 7.05765 21.4147C7.1734 20.8328 7.45912 20.2982 7.87868 19.8787C8.29824 19.4591 8.83279 19.1734 9.41473 19.0576C9.99667 18.9419 10.5999 19.0013 11.1481 19.2284C11.6962 19.4554 12.1648 19.8399 12.4944 20.3333C12.8241 20.8266 13 21.4067 13 22C13 22.7957 12.6839 23.5587 12.1213 24.1213C11.5587 24.6839 10.7957 25 10 25ZM22 17C21.0111 17 20.0444 17.2932 19.2222 17.8427C18.3999 18.3921 17.759 19.173 17.3806 20.0866C17.0022 21.0002 16.9031 22.0055 17.0961 22.9755C17.289 23.9454 17.7652 24.8363 18.4645 25.5355C19.1637 26.2348 20.0546 26.711 21.0245 26.9039C21.9945 27.0969 22.9998 26.9978 23.9134 26.6194C24.8271 26.241 25.6079 25.6001 26.1574 24.7779C26.7068 23.9556 27 22.9889 27 22C27 20.6739 26.4732 19.4022 25.5355 18.4645C24.5979 17.5268 23.3261 17 22 17ZM22 25C21.4067 25 20.8266 24.8241 20.3333 24.4944C19.8399 24.1648 19.4554 23.6962 19.2284 23.1481C19.0013 22.5999 18.9419 21.9967 19.0576 21.4147C19.1734 20.8328 19.4591 20.2982 19.8787 19.8787C20.2982 19.4591 20.8328 19.1734 21.4147 19.0576C21.9967 18.9419 22.5999 19.0013 23.1481 19.2284C23.6962 19.4554 24.1648 19.8399 24.4944 20.3333C24.8241 20.8266 25 21.4067 25 22C25 22.7957 24.6839 23.5587 24.1213 24.1213C23.5587 24.6839 22.7957 25 22 25Z" fill="currentColor"/>
<path d="M58 5.5C57.11 5.5 56.24 5.76392 55.4999 6.25839C54.7599 6.75285 54.1831 7.45566 53.8425 8.27793C53.5019 9.10019 53.4128 10.005 53.5865 10.8779C53.7601 11.7508 54.1887 12.5526 54.818 13.182C55.4474 13.8113 56.2492 14.2399 57.1221 14.4135C57.995 14.5872 58.8998 14.4981 59.7221 14.1575C60.5443 13.8169 61.2471 13.2401 61.7416 12.5001C62.2361 11.76 62.5 10.89 62.5 10C62.5 8.80653 62.0259 7.66193 61.182 6.81802C60.3381 5.97411 59.1935 5.5 58 5.5ZM58 13.5C57.3078 13.5 56.6311 13.2947 56.0555 12.9101C55.4799 12.5256 55.0313 11.9789 54.7664 11.3394C54.5015 10.6999 54.4322 9.99612 54.5673 9.31719C54.7023 8.63825 55.0356 8.01461 55.5251 7.52513C56.0146 7.03564 56.6383 6.7023 57.3172 6.56725C57.9961 6.43221 58.6999 6.50152 59.3394 6.76642C59.9789 7.03133 60.5256 7.47993 60.9101 8.05551C61.2947 8.63108 61.5 9.30777 61.5 10C61.5 10.9283 61.1313 11.8185 60.4749 12.4749C59.8185 13.1313 58.9283 13.5 58 13.5ZM70 14.5C70.89 14.5 71.76 14.2361 72.5001 13.7416C73.2401 13.2471 73.8169 12.5443 74.1575 11.7221C74.4981 10.8998 74.5872 9.99501 74.4135 9.1221C74.2399 8.24918 73.8113 7.44736 73.182 6.81802C72.5526 6.18868 71.7508 5.7601 70.8779 5.58647C70.005 5.41283 69.1002 5.50195 68.2779 5.84254C67.4557 6.18314 66.7529 6.75991 66.2584 7.49994C65.7639 8.23996 65.5 9.10999 65.5 10C65.5 11.1935 65.9741 12.3381 66.818 13.182C67.6619 14.0259 68.8065 14.5 70 14.5ZM70 6.5C70.6922 6.5 71.3689 6.70527 71.9445 7.08986C72.5201 7.47444 72.9687 8.02107 73.2336 8.66061C73.4985 9.30015 73.5678 10.0039 73.4328 10.6828C73.2977 11.3618 72.9644 11.9854 72.4749 12.4749C71.9854 12.9644 71.3618 13.2977 70.6828 13.4328C70.0039 13.5678 69.3002 13.4985 68.6606 13.2336C68.0211 12.9687 67.4744 12.5201 67.0899 11.9445C66.7053 11.3689 66.5 10.6922 66.5 10C66.5 9.07174 66.8687 8.18151 67.5251 7.52513C68.1815 6.86875 69.0717 6.5 70 6.5ZM58 17.5C57.11 17.5 56.24 17.7639 55.4999 18.2584C54.7599 18.7529 54.1831 19.4557 53.8425 20.2779C53.5019 21.1002 53.4128 22.005 53.5865 22.8779C53.7601 23.7508 54.1887 24.5526 54.818 25.182C55.4474 25.8113 56.2492 26.2399 57.1221 26.4135C57.995 26.5872 58.8998 26.4981 59.7221 26.1575C60.5443 25.8169 61.2471 25.2401 61.7416 24.5001C62.2361 23.76 62.5 22.89 62.5 22C62.5 20.8065 62.0259 19.6619 61.182 18.818C60.3381 17.9741 59.1935 17.5 58 17.5ZM58 25.5C57.3078 25.5 56.6311 25.2947 56.0555 24.9101C55.4799 24.5256 55.0313 23.9789 54.7664 23.3394C54.5015 22.6999 54.4322 21.9961 54.5673 21.3172C54.7023 20.6383 55.0356 20.0146 55.5251 19.5251C56.0146 19.0356 56.6383 18.7023 57.3172 18.5673C57.9961 18.4322 58.6999 18.5015 59.3394 18.7664C59.9789 19.0313 60.5256 19.4799 60.9101 20.0555C61.2947 20.6311 61.5 21.3078 61.5 22C61.5 22.9283 61.1313 23.8185 60.4749 24.4749C59.8185 25.1313 58.9283 25.5 58 25.5ZM70 17.5C69.11 17.5 68.24 17.7639 67.4999 18.2584C66.7599 18.7529 66.1831 19.4557 65.8425 20.2779C65.502 21.1002 65.4128 22.005 65.5865 22.8779C65.7601 23.7508 66.1887 24.5526 66.818 25.182C67.4474 25.8113 68.2492 26.2399 69.1221 26.4135C69.995 26.5872 70.8998 26.4981 71.7221 26.1575C72.5443 25.8169 73.2471 25.2401 73.7416 24.5001C74.2361 23.76 74.5 22.89 74.5 22C74.5 20.8065 74.0259 19.6619 73.182 18.818C72.3381 17.9741 71.1935 17.5 70 17.5ZM70 25.5C69.3078 25.5 68.6311 25.2947 68.0555 24.9101C67.4799 24.5256 67.0313 23.9789 66.7664 23.3394C66.5015 22.6999 66.4322 21.9961 66.5673 21.3172C66.7023 20.6383 67.0356 20.0146 67.5251 19.5251C68.0146 19.0356 68.6383 18.7023 69.3172 18.5673C69.9961 18.4322 70.6999 18.5015 71.3394 18.7664C71.9789 19.0313 72.5256 19.4799 72.9101 20.0555C73.2947 20.6311 73.5 21.3078 73.5 22C73.5 22.9283 73.1313 23.8185 72.4749 24.4749C71.8185 25.1313 70.9283 25.5 70 25.5Z" fill="currentColor"/>
<path d="M106 5.25C105.061 5.25 104.142 5.52858 103.361 6.05052C102.58 6.57246 101.971 7.31431 101.612 8.18226C101.252 9.0502 101.158 10.0053 101.341 10.9267C101.525 11.8481 101.977 12.6945 102.641 13.3588C103.306 14.0231 104.152 14.4755 105.073 14.6587C105.995 14.842 106.95 14.7479 107.818 14.3884C108.686 14.0289 109.428 13.4201 109.949 12.639C110.471 11.8578 110.75 10.9395 110.75 10C110.75 8.74022 110.25 7.53204 109.359 6.64125C108.468 5.75045 107.26 5.25 106 5.25ZM106 13.25C105.357 13.25 104.729 13.0594 104.194 12.7023C103.66 12.3452 103.243 11.8376 102.997 11.2437C102.751 10.6499 102.687 9.9964 102.812 9.36596C102.938 8.73552 103.247 8.15643 103.702 7.70191C104.156 7.24738 104.736 6.93785 105.366 6.81245C105.996 6.68705 106.65 6.75141 107.244 6.99739C107.838 7.24338 108.345 7.65994 108.702 8.1944C109.059 8.72886 109.25 9.35721 109.25 10C109.25 10.4268 109.166 10.8494 109.003 11.2437C108.839 11.638 108.6 11.9963 108.298 12.2981C107.996 12.5999 107.638 12.8393 107.244 13.0026C106.849 13.1659 106.427 13.25 106 13.25ZM118 14.75C118.939 14.75 119.858 14.4714 120.639 13.9495C121.42 13.4275 122.029 12.6857 122.388 11.8177C122.748 10.9498 122.842 9.99473 122.659 9.07332C122.475 8.15191 122.023 7.30554 121.359 6.64125C120.694 5.97695 119.848 5.52455 118.927 5.34127C118.005 5.15799 117.05 5.25206 116.182 5.61157C115.314 5.97109 114.572 6.57991 114.051 7.36104C113.529 8.14218 113.25 9.06054 113.25 10C113.25 11.2598 113.75 12.468 114.641 13.3588C115.532 14.2496 116.74 14.75 118 14.75ZM118 6.75C118.643 6.75 119.271 6.94061 119.806 7.29773C120.34 7.65484 120.757 8.16242 121.003 8.75628C121.249 9.35014 121.313 10.0036 121.188 10.634C121.062 11.2645 120.753 11.8436 120.298 12.2981C119.844 12.7526 119.264 13.0622 118.634 13.1876C118.004 13.313 117.35 13.2486 116.756 13.0026C116.162 12.7566 115.655 12.3401 115.298 11.8056C114.941 11.2711 114.75 10.6428 114.75 10C114.75 9.13805 115.092 8.3114 115.702 7.70191C116.311 7.09241 117.138 6.75 118 6.75ZM106 17.25C105.061 17.25 104.142 17.5286 103.361 18.0505C102.58 18.5725 101.971 19.3143 101.612 20.1823C101.252 21.0502 101.158 22.0053 101.341 22.9267C101.525 23.8481 101.977 24.6945 102.641 25.3588C103.306 26.0231 104.152 26.4755 105.073 26.6587C105.995 26.842 106.95 26.7479 107.818 26.3884C108.686 26.0289 109.428 25.4201 109.949 24.639C110.471 23.8578 110.75 22.9395 110.75 22C110.75 20.7402 110.25 19.532 109.359 18.6412C108.468 17.7504 107.26 17.25 106 17.25ZM106 25.25C105.357 25.25 104.729 25.0594 104.194 24.7023C103.66 24.3452 103.243 23.8376 102.997 23.2437C102.751 22.6499 102.687 21.9964 102.812 21.366C102.938 20.7355 103.247 20.1564 103.702 19.7019C104.156 19.2474 104.736 18.9379 105.366 18.8125C105.996 18.687 106.65 18.7514 107.244 18.9974C107.838 19.2434 108.345 19.6599 108.702 20.1944C109.059 20.7289 109.25 21.3572 109.25 22C109.25 22.4268 109.166 22.8494 109.003 23.2437C108.839 23.638 108.6 23.9963 108.298 24.2981C107.996 24.5999 107.638 24.8393 107.244 25.0026C106.849 25.1659 106.427 25.25 106 25.25ZM118 17.25C117.061 17.25 116.142 17.5286 115.361 18.0505C114.58 18.5725 113.971 19.3143 113.612 20.1823C113.252 21.0502 113.158 22.0053 113.341 22.9267C113.525 23.8481 113.977 24.6945 114.641 25.3588C115.306 26.0231 116.152 26.4755 117.073 26.6587C117.995 26.842 118.95 26.7479 119.818 26.3884C120.686 26.0289 121.428 25.4201 121.949 24.639C122.471 23.8578 122.75 22.9395 122.75 22C122.75 20.7402 122.25 19.532 121.359 18.6412C120.468 17.7504 119.26 17.25 118 17.25ZM118 25.25C117.357 25.25 116.729 25.0594 116.194 24.7023C115.66 24.3452 115.243 23.8376 114.997 23.2437C114.751 22.6499 114.687 21.9964 114.812 21.366C114.938 20.7355 115.247 20.1564 115.702 19.7019C116.156 19.2474 116.736 18.9379 117.366 18.8125C117.996 18.687 118.65 18.7514 119.244 18.9974C119.838 19.2434 120.345 19.6599 120.702 20.1944C121.059 20.7289 121.25 21.3572 121.25 22C121.25 22.862 120.908 23.6886 120.298 24.2981C119.689 24.9076 118.862 25.25 118 25.25Z" fill="currentColor"/>
<path d="M153.75 4.5C152.712 4.5 151.697 4.80791 150.833 5.38479C149.97 5.96166 149.297 6.7816 148.9 7.74091C148.502 8.70023 148.398 9.75583 148.601 10.7742C148.803 11.7926 149.303 12.7281 150.038 13.4623C150.772 14.1965 151.707 14.6966 152.726 14.8991C153.744 15.1017 154.8 14.9977 155.759 14.6004C156.718 14.203 157.538 13.5301 158.115 12.6667C158.692 11.8034 159 10.7884 159 9.75C159 8.35762 158.447 7.02226 157.462 6.03769C156.478 5.05313 155.142 4.5 153.75 4.5ZM153.75 12C153.305 12 152.87 11.868 152.5 11.6208C152.13 11.3736 151.842 11.0222 151.671 10.611C151.501 10.1999 151.456 9.74751 151.543 9.31105C151.63 8.87459 151.844 8.47368 152.159 8.15901C152.474 7.84434 152.875 7.63005 153.311 7.54324C153.748 7.45642 154.2 7.50098 154.611 7.67127C155.022 7.84157 155.374 8.12996 155.621 8.49997C155.868 8.86998 156 9.30499 156 9.75C156 10.3467 155.763 10.919 155.341 11.341C154.919 11.7629 154.347 12 153.75 12ZM166.25 15C167.288 15 168.303 14.6921 169.167 14.1152C170.03 13.5383 170.703 12.7184 171.1 11.7591C171.498 10.7998 171.602 9.74418 171.399 8.72578C171.197 7.70738 170.697 6.77192 169.962 6.03769C169.228 5.30347 168.293 4.80345 167.274 4.60088C166.256 4.39831 165.2 4.50227 164.241 4.89963C163.282 5.29699 162.462 5.9699 161.885 6.83326C161.308 7.69662 161 8.71165 161 9.75C161 11.1424 161.553 12.4777 162.538 13.4623C163.522 14.4469 164.858 15 166.25 15ZM166.25 7.5C166.695 7.5 167.13 7.63196 167.5 7.8792C167.87 8.12643 168.158 8.47783 168.329 8.88897C168.499 9.3001 168.544 9.7525 168.457 10.189C168.37 10.6254 168.156 11.0263 167.841 11.341C167.526 11.6557 167.125 11.87 166.689 11.9568C166.252 12.0436 165.8 11.999 165.389 11.8287C164.978 11.6584 164.626 11.37 164.379 11C164.132 10.63 164 10.195 164 9.75C164 9.15327 164.237 8.58097 164.659 8.15901C165.081 7.73706 165.653 7.5 166.25 7.5ZM153.75 17C152.712 17 151.697 17.3079 150.833 17.8848C149.97 18.4617 149.297 19.2816 148.9 20.2409C148.502 21.2002 148.398 22.2558 148.601 23.2742C148.803 24.2926 149.303 25.2281 150.038 25.9623C150.772 26.6965 151.707 27.1966 152.726 27.3991C153.744 27.6017 154.8 27.4977 155.759 27.1004C156.718 26.703 157.538 26.0301 158.115 25.1667C158.692 24.3034 159 23.2884 159 22.25C159 20.8576 158.447 19.5223 157.462 18.5377C156.478 17.5531 155.142 17 153.75 17ZM153.75 24.5C153.305 24.5 152.87 24.368 152.5 24.1208C152.13 23.8736 151.842 23.5222 151.671 23.111C151.501 22.6999 151.456 22.2475 151.543 21.811C151.63 21.3746 151.844 20.9737 152.159 20.659C152.474 20.3443 152.875 20.1301 153.311 20.0432C153.748 19.9564 154.2 20.001 154.611 20.1713C155.022 20.3416 155.374 20.63 155.621 21C155.868 21.37 156 21.805 156 22.25C156 22.8467 155.763 23.419 155.341 23.841C154.919 24.2629 154.347 24.5 153.75 24.5ZM166.25 17C165.212 17 164.197 17.3079 163.333 17.8848C162.47 18.4617 161.797 19.2816 161.4 20.2409C161.002 21.2002 160.898 22.2558 161.101 23.2742C161.303 24.2926 161.803 25.2281 162.538 25.9623C163.272 26.6965 164.207 27.1966 165.226 27.3991C166.244 27.6017 167.3 27.4977 168.259 27.1004C169.218 26.703 170.038 26.0301 170.615 25.1667C171.192 24.3034 171.5 23.2884 171.5 22.25C171.5 20.8576 170.947 19.5223 169.962 18.5377C168.978 17.5531 167.642 17 166.25 17ZM166.25 24.5C165.805 24.5 165.37 24.368 165 24.1208C164.63 23.8736 164.342 23.5222 164.171 23.111C164.001 22.6999 163.956 22.2475 164.043 21.811C164.13 21.3746 164.344 20.9737 164.659 20.659C164.974 20.3443 165.375 20.1301 165.811 20.0432C166.248 19.9564 166.7 20.001 167.111 20.1713C167.522 20.3416 167.874 20.63 168.121 21C168.368 21.37 168.5 21.805 168.5 22.25C168.5 22.8467 168.263 23.419 167.841 23.841C167.419 24.2629 166.847 24.5 166.25 24.5Z" fill="currentColor"/>
<path d="M207 10C207 10.9889 206.707 11.9556 206.157 12.7779C205.608 13.6001 204.827 14.241 203.913 14.6194C203 14.9978 201.994 15.0969 201.025 14.9039C200.055 14.711 199.164 14.2348 198.464 13.5355C197.765 12.8363 197.289 11.9454 197.096 10.9755C196.903 10.0055 197.002 9.00022 197.381 8.08659C197.759 7.17295 198.4 6.39206 199.222 5.84265C200.044 5.29325 201.011 5 202 5C203.326 5 204.598 5.52679 205.536 6.46447C206.473 7.40215 207 8.67392 207 10ZM214 15C214.989 15 215.956 14.7068 216.778 14.1573C217.6 13.6079 218.241 12.827 218.619 11.9134C218.998 10.9998 219.097 9.99446 218.904 9.02455C218.711 8.05465 218.235 7.16373 217.536 6.46447C216.836 5.76521 215.945 5.289 214.975 5.09608C214.006 4.90315 213 5.00217 212.087 5.3806C211.173 5.75904 210.392 6.39991 209.843 7.22215C209.293 8.0444 209 9.0111 209 10C209 11.3261 209.527 12.5979 210.464 13.5355C211.402 14.4732 212.674 15 214 15ZM202 17C201.011 17 200.044 17.2932 199.222 17.8427C198.4 18.3921 197.759 19.173 197.381 20.0866C197.002 21.0002 196.903 22.0055 197.096 22.9755C197.289 23.9454 197.765 24.8363 198.464 25.5355C199.164 26.2348 200.055 26.711 201.025 26.9039C201.994 27.0969 203 26.9978 203.913 26.6194C204.827 26.241 205.608 25.6001 206.157 24.7779C206.707 23.9556 207 22.9889 207 22C207 20.6739 206.473 19.4022 205.536 18.4645C204.598 17.5268 203.326 17 202 17ZM214 17C213.011 17 212.044 17.2932 211.222 17.8427C210.4 18.3921 209.759 19.173 209.381 20.0866C209.002 21.0002 208.903 22.0055 209.096 22.9755C209.289 23.9454 209.765 24.8363 210.464 25.5355C211.164 26.2348 212.055 26.711 213.025 26.9039C213.994 27.0969 215 26.9978 215.913 26.6194C216.827 26.241 217.608 25.6001 218.157 24.7779C218.707 23.9556 219 22.9889 219 22C219 20.6739 218.473 19.4022 217.536 18.4645C216.598 17.5268 215.326 17 214 17Z" fill="currentColor"/>
<path opacity="0.2" d="M254 10C254 10.7911 253.765 11.5645 253.326 12.2223C252.886 12.8801 252.262 13.3928 251.531 13.6955C250.8 13.9983 249.996 14.0775 249.22 13.9231C248.444 13.7688 247.731 13.3878 247.172 12.8284C246.612 12.269 246.231 11.5563 246.077 10.7804C245.923 10.0044 246.002 9.20017 246.304 8.46927C246.607 7.73836 247.12 7.11365 247.778 6.67412C248.436 6.2346 249.209 6 250 6C251.061 6 252.078 6.42143 252.828 7.17157C253.579 7.92172 254 8.93914 254 10ZM262 14C262.791 14 263.564 13.7654 264.222 13.3259C264.88 12.8864 265.393 12.2616 265.696 11.5307C265.998 10.7998 266.077 9.99556 265.923 9.21964C265.769 8.44372 265.388 7.73098 264.828 7.17157C264.269 6.61216 263.556 6.2312 262.78 6.07686C262.004 5.92252 261.2 6.00173 260.469 6.30448C259.738 6.60723 259.114 7.11992 258.674 7.77772C258.235 8.43552 258 9.20888 258 10C258 11.0609 258.421 12.0783 259.172 12.8284C259.922 13.5786 260.939 14 262 14ZM250 18C249.209 18 248.436 18.2346 247.778 18.6741C247.12 19.1136 246.607 19.7384 246.304 20.4693C246.002 21.2002 245.923 22.0044 246.077 22.7804C246.231 23.5563 246.612 24.269 247.172 24.8284C247.731 25.3878 248.444 25.7688 249.22 25.9231C249.996 26.0775 250.8 25.9983 251.531 25.6955C252.262 25.3928 252.886 24.8801 253.326 24.2223C253.765 23.5645 254 22.7911 254 22C254 20.9391 253.579 19.9217 252.828 19.1716C252.078 18.4214 251.061 18 250 18ZM262 18C261.209 18 260.436 18.2346 259.778 18.6741C259.12 19.1136 258.607 19.7384 258.304 20.4693C258.002 21.2002 257.923 22.0044 258.077 22.7804C258.231 23.5563 258.612 24.269 259.172 24.8284C259.731 25.3878 260.444 25.7688 261.22 25.9231C261.996 26.0775 262.8 25.9983 263.531 25.6955C264.262 25.3928 264.886 24.8801 265.326 24.2223C265.765 23.5645 266 22.7911 266 22C266 20.9391 265.579 19.9217 264.828 19.1716C264.078 18.4214 263.061 18 262 18Z" fill="currentColor"/>
<path d="M250 5C249.011 5 248.044 5.29325 247.222 5.84265C246.4 6.39206 245.759 7.17295 245.381 8.08659C245.002 9.00022 244.903 10.0055 245.096 10.9755C245.289 11.9454 245.765 12.8363 246.464 13.5355C247.164 14.2348 248.055 14.711 249.025 14.9039C249.994 15.0969 251 14.9978 251.913 14.6194C252.827 14.241 253.608 13.6001 254.157 12.7779C254.707 11.9556 255 10.9889 255 10C255 8.67392 254.473 7.40215 253.536 6.46447C252.598 5.52679 251.326 5 250 5ZM250 13C249.407 13 248.827 12.8241 248.333 12.4944C247.84 12.1648 247.455 11.6962 247.228 11.1481C247.001 10.5999 246.942 9.99667 247.058 9.41473C247.173 8.83279 247.459 8.29824 247.879 7.87868C248.298 7.45912 248.833 7.1734 249.415 7.05765C249.997 6.94189 250.6 7.0013 251.148 7.22836C251.696 7.45543 252.165 7.83994 252.494 8.33329C252.824 8.82664 253 9.40666 253 10C253 10.7957 252.684 11.5587 252.121 12.1213C251.559 12.6839 250.796 13 250 13ZM262 15C262.989 15 263.956 14.7068 264.778 14.1573C265.6 13.6079 266.241 12.827 266.619 11.9134C266.998 10.9998 267.097 9.99446 266.904 9.02455C266.711 8.05465 266.235 7.16373 265.536 6.46447C264.836 5.76521 263.945 5.289 262.975 5.09608C262.006 4.90315 261 5.00217 260.087 5.3806C259.173 5.75904 258.392 6.39991 257.843 7.22215C257.293 8.0444 257 9.0111 257 10C257 11.3261 257.527 12.5979 258.464 13.5355C259.402 14.4732 260.674 15 262 15ZM262 7C262.593 7 263.173 7.17595 263.667 7.50559C264.16 7.83524 264.545 8.30377 264.772 8.85195C264.999 9.40013 265.058 10.0033 264.942 10.5853C264.827 11.1672 264.541 11.7018 264.121 12.1213C263.702 12.5409 263.167 12.8266 262.585 12.9424C262.003 13.0581 261.4 12.9987 260.852 12.7716C260.304 12.5446 259.835 12.1601 259.506 11.6667C259.176 11.1734 259 10.5933 259 10C259 9.20435 259.316 8.44129 259.879 7.87868C260.441 7.31607 261.204 7 262 7ZM250 17C249.011 17 248.044 17.2932 247.222 17.8427C246.4 18.3921 245.759 19.173 245.381 20.0866C245.002 21.0002 244.903 22.0055 245.096 22.9755C245.289 23.9454 245.765 24.8363 246.464 25.5355C247.164 26.2348 248.055 26.711 249.025 26.9039C249.994 27.0969 251 26.9978 251.913 26.6194C252.827 26.241 253.608 25.6001 254.157 24.7779C254.707 23.9556 255 22.9889 255 22C255 20.6739 254.473 19.4022 253.536 18.4645C252.598 17.5268 251.326 17 250 17ZM250 25C249.407 25 248.827 24.8241 248.333 24.4944C247.84 24.1648 247.455 23.6962 247.228 23.1481C247.001 22.5999 246.942 21.9967 247.058 21.4147C247.173 20.8328 247.459 20.2982 247.879 19.8787C248.298 19.4591 248.833 19.1734 249.415 19.0576C249.997 18.9419 250.6 19.0013 251.148 19.2284C251.696 19.4554 252.165 19.8399 252.494 20.3333C252.824 20.8266 253 21.4067 253 22C253 22.7957 252.684 23.5587 252.121 24.1213C251.559 24.6839 250.796 25 250 25ZM262 17C261.011 17 260.044 17.2932 259.222 17.8427C258.4 18.3921 257.759 19.173 257.381 20.0866C257.002 21.0002 256.903 22.0055 257.096 22.9755C257.289 23.9454 257.765 24.8363 258.464 25.5355C259.164 26.2348 260.055 26.711 261.025 26.9039C261.994 27.0969 263 26.9978 263.913 26.6194C264.827 26.241 265.608 25.6001 266.157 24.7779C266.707 23.9556 267 22.9889 267 22C267 20.6739 266.473 19.4022 265.536 18.4645C264.598 17.5268 263.326 17 262 17ZM262 25C261.407 25 260.827 24.8241 260.333 24.4944C259.84 24.1648 259.455 23.6962 259.228 23.1481C259.001 22.5999 258.942 21.9967 259.058 21.4147C259.173 20.8328 259.459 20.2982 259.879 19.8787C260.298 19.4591 260.833 19.1734 261.415 19.0576C261.997 18.9419 262.6 19.0013 263.148 19.2284C263.696 19.4554 264.165 19.8399 264.494 20.3333C264.824 20.8266 265 21.4067 265 22C265 22.7957 264.684 23.5587 264.121 24.1213C263.559 24.6839 262.796 25 262 25Z" fill="currentColor"/>
</g>
<defs>
<clipPath id="clip0_17_14645">
<rect width="272" height="32" rx="5" fill="white"/>
</clipPath>
</defs>
</svg>
