<svg width="272" height="32" viewBox="0 0 272 32" fill="none" xmlns="http://www.w3.org/2000/svg">
<g clip-path="url(#clip0_17_14589)">
<path d="M26.8899 15.455C26.9544 15.3377 26.9946 15.2087 27.0082 15.0756C27.0218 14.9425 27.0086 14.808 26.9693 14.68C26.93 14.5521 26.8655 14.4334 26.7795 14.3309C26.6935 14.2284 26.5878 14.1442 26.4686 14.0833C26.3495 14.0224 26.2193 13.986 26.0858 13.9763C25.9524 13.9666 25.8183 13.9838 25.6916 14.0268C25.5649 14.0699 25.4482 14.1379 25.3483 14.2269C25.2483 14.316 25.1673 14.4241 25.1099 14.545C24.1855 16.3259 22.7441 17.7857 20.9749 18.7325L18.9024 14.0675C19.6945 13.5019 20.3043 12.7174 20.6571 11.8103C21.0098 10.9032 21.09 9.91279 20.8881 8.96068C20.6861 8.00857 20.2106 7.13612 19.5199 6.45033C18.8293 5.76455 17.9535 5.29525 16.9999 5.1V3C16.9999 2.73478 16.8946 2.48043 16.7071 2.29289C16.5195 2.10536 16.2652 2 15.9999 2C15.7347 2 15.4804 2.10536 15.2928 2.29289C15.1053 2.48043 14.9999 2.73478 14.9999 3V5.1C14.0464 5.29525 13.1706 5.76455 12.48 6.45033C11.7893 7.13612 11.3138 8.00857 11.1118 8.96068C10.9098 9.91279 10.9901 10.9032 11.3428 11.8103C11.6955 12.7174 12.3053 13.5019 13.0974 14.0675L7.0862 27.5938C7.03212 27.7139 7.00231 27.8435 6.99847 27.9751C6.99463 28.1068 7.01684 28.2379 7.06382 28.361C7.1108 28.484 7.18163 28.5966 7.27223 28.6922C7.36284 28.7878 7.47144 28.8645 7.59179 28.918C7.71215 28.9715 7.84189 29.0007 7.97357 29.004C8.10524 29.0072 8.23626 28.9844 8.35909 28.9368C8.48192 28.8893 8.59415 28.8179 8.68932 28.7269C8.7845 28.6358 8.86075 28.5269 8.9137 28.4062L12.0562 21.3363C13.3241 21.7777 14.6574 22.0021 15.9999 22C17.3432 21.9984 18.6773 21.7785 19.9499 21.3487L23.0862 28.4062C23.1947 28.6473 23.3944 28.8356 23.6414 28.93C23.8884 29.0243 24.1627 29.0169 24.4043 28.9095C24.6459 28.8021 24.8351 28.6033 24.9306 28.3568C25.0261 28.1102 25.02 27.8359 24.9137 27.5938L21.7887 20.5625C23.9739 19.4252 25.7553 17.6416 26.8899 15.455ZM15.9999 7C16.5933 7 17.1733 7.17595 17.6667 7.50559C18.16 7.83524 18.5445 8.30377 18.7716 8.85195C18.9986 9.40013 19.0581 10.0033 18.9423 10.5853C18.8265 11.1672 18.5408 11.7018 18.1213 12.1213C17.7017 12.5409 17.1672 12.8266 16.5852 12.9424C16.0033 13.0581 15.4001 12.9987 14.8519 12.7716C14.3037 12.5446 13.8352 12.1601 13.5055 11.6667C13.1759 11.1734 12.9999 10.5933 12.9999 10C12.9999 9.20435 13.316 8.44129 13.8786 7.87868C14.4412 7.31607 15.2043 7 15.9999 7ZM15.9999 20C14.9383 20.0013 13.8832 19.8325 12.8749 19.5L14.9274 14.8825C15.6356 15.0392 16.3693 15.0392 17.0774 14.8825L19.1374 19.515C18.1226 19.8363 17.0644 19.9998 15.9999 20Z" fill="currentColor"/>
<path d="M74.445 15.2275C74.4772 15.1689 74.4973 15.1043 74.5041 15.0378C74.5109 14.9712 74.5043 14.904 74.4847 14.84C74.465 14.7761 74.4328 14.7167 74.3898 14.6654C74.3468 14.6142 74.2939 14.5721 74.2343 14.5416C74.1748 14.5112 74.1097 14.493 74.0429 14.4881C73.9762 14.4833 73.9092 14.4919 73.8458 14.5134C73.7825 14.5349 73.7241 14.569 73.6742 14.6135C73.6242 14.658 73.5837 14.7121 73.555 14.7725C72.4971 16.8053 70.8036 18.4365 68.7325 19.4175L66.2725 13.8813C67.0871 13.4031 67.7306 12.6808 68.1119 11.8166C68.4931 10.9524 68.5928 9.99013 68.3967 9.06614C68.2006 8.14215 67.7188 7.30329 67.0194 6.66841C66.32 6.03352 65.4386 5.63481 64.5 5.52875V3C64.5 2.86739 64.4473 2.74021 64.3535 2.64645C64.2598 2.55268 64.1326 2.5 64 2.5C63.8674 2.5 63.7402 2.55268 63.6464 2.64645C63.5527 2.74021 63.5 2.86739 63.5 3V5.52875C62.5614 5.63481 61.68 6.03352 60.9806 6.66841C60.2812 7.30329 59.7994 8.14215 59.6033 9.06614C59.4072 9.99013 59.5068 10.9524 59.8881 11.8166C60.2693 12.6808 60.9129 13.4031 61.7275 13.8813L55.5437 27.7962C55.4896 27.917 55.4856 28.0542 55.5324 28.1779C55.5793 28.3016 55.6732 28.4017 55.7937 28.4562C55.8585 28.4858 55.9289 28.5007 56 28.5C56.0969 28.5001 56.1917 28.472 56.2729 28.4192C56.3541 28.3664 56.4183 28.2911 56.4575 28.2025L59.79 20.7025C61.1305 21.2315 62.5589 21.5021 64 21.5C65.4417 21.4985 66.8712 21.2351 68.2187 20.7225L71.5425 28.2025C71.5817 28.2911 71.6459 28.3664 71.7271 28.4192C71.8083 28.472 71.9031 28.5001 72 28.5C72.0699 28.5002 72.1389 28.4852 72.2025 28.4562C72.323 28.4017 72.417 28.3016 72.4638 28.1779C72.5107 28.0542 72.5066 27.917 72.4525 27.7962L69.135 20.33C71.4164 19.2572 73.2821 17.4644 74.445 15.2275ZM60.5 10C60.5 9.30777 60.7053 8.63108 61.0898 8.0555C61.4744 7.47993 62.0211 7.03133 62.6606 6.76642C63.3001 6.50151 64.0039 6.4322 64.6828 6.56725C65.3617 6.7023 65.9854 7.03564 66.4749 7.52513C66.9644 8.01461 67.2977 8.63825 67.4327 9.31718C67.5678 9.99612 67.4985 10.6999 67.2336 11.3394C66.9687 11.9789 66.5201 12.5256 65.9445 12.9101C65.3689 13.2947 64.6922 13.5 64 13.5C63.0717 13.5 62.1815 13.1313 61.5251 12.4749C60.8687 11.8185 60.5 10.9283 60.5 10ZM64 20.5C62.6989 20.5027 61.4088 20.2619 60.1962 19.79L62.6412 14.29C63.5254 14.57 64.4746 14.57 65.3587 14.29L67.8125 19.8088C66.593 20.2644 65.3019 20.4985 64 20.5Z" fill="currentColor"/>
<path d="M122.667 15.3413C122.716 15.2533 122.746 15.1565 122.756 15.0567C122.766 14.9568 122.756 14.856 122.727 14.76C122.698 14.6641 122.649 14.5751 122.585 14.4982C122.52 14.4213 122.441 14.3581 122.351 14.3125C122.262 14.2668 122.165 14.2395 122.064 14.2322C121.964 14.2249 121.864 14.2378 121.769 14.2701C121.674 14.3024 121.586 14.3535 121.511 14.4202C121.436 14.487 121.376 14.5681 121.332 14.6587C120.342 16.5659 118.776 18.1125 116.856 19.0788L114.589 13.9788C115.392 13.4551 116.018 12.7006 116.384 11.8144C116.751 10.9283 116.84 9.952 116.641 9.01397C116.442 8.07594 115.964 7.2201 115.27 6.55899C114.575 5.89788 113.697 5.46246 112.75 5.31V3C112.75 2.80109 112.671 2.61032 112.53 2.46967C112.39 2.32902 112.199 2.25 112 2.25C111.801 2.25 111.61 2.32902 111.47 2.46967C111.329 2.61032 111.25 2.80109 111.25 3V5.31C110.303 5.46246 109.425 5.89788 108.73 6.55899C108.036 7.2201 107.558 8.07594 107.359 9.01397C107.16 9.952 107.249 10.9283 107.616 11.8144C107.982 12.7006 108.608 13.4551 109.411 13.9788L103.315 27.695C103.234 27.8773 103.229 28.0843 103.301 28.2705C103.372 28.4566 103.515 28.6066 103.697 28.6875C103.88 28.7684 104.087 28.7735 104.273 28.7018C104.459 28.6301 104.609 28.4873 104.69 28.305L107.927 21.0225C109.231 21.5056 110.61 21.7519 112 21.75C113.392 21.7492 114.774 21.5086 116.085 21.0387L119.315 28.305C119.355 28.3953 119.412 28.4768 119.484 28.5449C119.556 28.613 119.64 28.6663 119.732 28.7018C119.824 28.7373 119.922 28.7543 120.021 28.7519C120.12 28.7494 120.217 28.7276 120.307 28.6875C120.398 28.6474 120.479 28.59 120.547 28.5184C120.615 28.4469 120.669 28.3626 120.704 28.2705C120.74 28.1783 120.757 28.0801 120.754 27.9813C120.752 27.8826 120.73 27.7853 120.69 27.695L117.469 20.445C119.699 19.3381 121.52 17.5507 122.667 15.3413ZM112 6.75C112.643 6.75 113.271 6.94061 113.806 7.29772C114.34 7.65484 114.757 8.16242 115.003 8.75628C115.249 9.35014 115.313 10.0036 115.188 10.634C115.062 11.2645 114.753 11.8436 114.298 12.2981C113.844 12.7526 113.264 13.0622 112.634 13.1876C112.004 13.313 111.35 13.2486 110.756 13.0026C110.162 12.7566 109.655 12.3401 109.298 11.8056C108.941 11.2711 108.75 10.6428 108.75 10C108.75 9.13805 109.092 8.3114 109.702 7.7019C110.311 7.09241 111.138 6.75 112 6.75ZM112 20.25C110.818 20.2513 109.645 20.047 108.534 19.6462L110.784 14.59C111.583 14.8033 112.424 14.8033 113.224 14.59L115.474 19.665C114.356 20.0512 113.182 20.2489 112 20.25Z" fill="currentColor"/>
<path d="M171.335 15.6825C171.427 15.5068 171.484 15.3146 171.501 15.117C171.519 14.9193 171.497 14.7201 171.437 14.531C171.377 14.3418 171.28 14.1665 171.152 14.015C171.024 13.8636 170.867 13.7392 170.69 13.6489C170.513 13.5586 170.32 13.5042 170.122 13.489C169.925 13.4738 169.726 13.498 169.537 13.5602C169.349 13.6223 169.175 13.7213 169.025 13.8513C168.875 13.9813 168.752 14.1398 168.664 14.3175C167.872 15.8459 166.676 17.1276 165.206 18.0225L163.519 14.2238C164.287 13.5829 164.866 12.7447 165.193 11.7993C165.52 10.854 165.584 9.83724 165.376 8.85863C165.168 7.88001 164.698 6.97656 164.015 6.24555C163.332 5.51453 162.462 4.98363 161.5 4.71V3C161.5 2.60218 161.342 2.22064 161.061 1.93934C160.779 1.65804 160.398 1.5 160 1.5C159.602 1.5 159.221 1.65804 158.939 1.93934C158.658 2.22064 158.5 2.60218 158.5 3V4.71C157.538 4.98363 156.668 5.51453 155.985 6.24555C155.302 6.97656 154.832 7.88001 154.624 8.85863C154.417 9.83724 154.48 10.854 154.807 11.7993C155.134 12.7447 155.713 13.5829 156.481 14.2238L150.625 27.39C150.544 27.5706 150.5 27.7653 150.495 27.963C150.49 28.1607 150.524 28.3574 150.595 28.5419C150.666 28.7264 150.773 28.8949 150.91 29.0379C151.047 29.1809 151.21 29.2955 151.391 29.375C151.583 29.4592 151.791 29.5018 152 29.5C152.291 29.5008 152.576 29.417 152.82 29.2587C153.064 29.1005 153.257 28.8746 153.375 28.6087L156.334 21.9513C157.522 22.3163 158.757 22.5012 160 22.5C161.244 22.4988 162.482 22.3169 163.674 21.96L166.625 28.6087C166.743 28.8746 166.936 29.1005 167.18 29.2587C167.424 29.417 167.709 29.5008 168 29.5C168.209 29.5017 168.416 29.4591 168.608 29.375C168.789 29.2956 168.952 29.1811 169.089 29.0382C169.226 28.8952 169.333 28.7267 169.404 28.5422C169.476 28.3577 169.51 28.1609 169.505 27.9632C169.5 27.7654 169.456 27.5706 169.375 27.39L166.436 20.7775C168.528 19.5893 170.23 17.8193 171.335 15.6825ZM160 7.5C160.494 7.5 160.978 7.64662 161.389 7.92133C161.8 8.19603 162.12 8.58648 162.31 9.04329C162.499 9.50011 162.548 10.0028 162.452 10.4877C162.356 10.9727 162.117 11.4181 161.768 11.7678C161.418 12.1174 160.973 12.3555 160.488 12.452C160.003 12.5484 159.5 12.4989 159.043 12.3097C158.586 12.1205 158.196 11.8 157.921 11.3889C157.647 10.9778 157.5 10.4945 157.5 10C157.5 9.33696 157.763 8.70107 158.232 8.23223C158.701 7.76339 159.337 7.5 160 7.5ZM160 19.5C159.176 19.5011 158.356 19.3948 157.56 19.1838L159.223 15.4438C159.738 15.5188 160.262 15.5188 160.778 15.4438L162.444 19.1938C161.645 19.3973 160.824 19.5002 160 19.5Z" fill="currentColor"/>
<path d="M218.89 15.455C218.954 15.3377 218.995 15.2087 219.008 15.0756C219.022 14.9425 219.009 14.808 218.969 14.68C218.93 14.5521 218.865 14.4334 218.779 14.3309C218.693 14.2284 218.588 14.1442 218.469 14.0833C218.349 14.0224 218.219 13.986 218.086 13.9763C217.952 13.9666 217.818 13.9838 217.692 14.0268C217.565 14.0699 217.448 14.1379 217.348 14.2269C217.248 14.316 217.167 14.4241 217.11 14.545C216.186 16.3259 214.744 17.7857 212.975 18.7325L210.695 13.6012C211.382 13.0865 211.907 12.386 212.209 11.5825C212.511 10.7789 212.576 9.90587 212.398 9.06623C212.22 8.2266 211.805 7.45543 211.203 6.84371C210.601 6.23199 209.837 5.80522 209 5.61375V3C209 2.73478 208.895 2.48043 208.707 2.29289C208.52 2.10536 208.265 2 208 2C207.735 2 207.48 2.10536 207.293 2.29289C207.105 2.48043 207 2.73478 207 3V5.61375C206.163 5.80522 205.399 6.23199 204.797 6.84371C204.195 7.45543 203.78 8.2266 203.602 9.06623C203.424 9.90587 203.489 10.7789 203.791 11.5825C204.093 12.386 204.618 13.0865 205.305 13.6012L199.086 27.5938C199.032 27.7139 199.002 27.8435 198.998 27.9751C198.995 28.1068 199.017 28.2379 199.064 28.361C199.111 28.484 199.182 28.5966 199.272 28.6922C199.363 28.7878 199.471 28.8645 199.592 28.918C199.712 28.9715 199.842 29.0007 199.974 29.004C200.105 29.0072 200.236 28.9844 200.359 28.9368C200.482 28.8893 200.594 28.8179 200.689 28.7269C200.784 28.6358 200.861 28.5269 200.914 28.4062L204.056 21.3363C205.324 21.7777 206.657 22.0021 208 22C209.343 21.9984 210.677 21.7785 211.95 21.3487L215.086 28.4062C215.195 28.6473 215.394 28.8356 215.641 28.93C215.888 29.0243 216.163 29.0169 216.404 28.9095C216.646 28.8021 216.835 28.6033 216.931 28.3568C217.026 28.1102 217.02 27.8359 216.914 27.5938L213.789 20.5625C215.974 19.4252 217.755 17.6416 218.89 15.455ZM208 20C206.938 20.0013 205.883 19.8325 204.875 19.5L207.135 14.415C207.708 14.5283 208.297 14.5283 208.87 14.415L211.137 19.515C210.123 19.8363 209.064 19.9998 208 20Z" fill="currentColor"/>
<path opacity="0.2" d="M260 10C260 10.7911 259.765 11.5645 259.326 12.2223C258.886 12.8801 258.262 13.3928 257.531 13.6955C256.8 13.9983 255.996 14.0775 255.22 13.9231C254.444 13.7688 253.731 13.3878 253.172 12.8284C252.612 12.269 252.231 11.5563 252.077 10.7804C251.923 10.0044 252.002 9.20017 252.304 8.46927C252.607 7.73836 253.12 7.11365 253.778 6.67412C254.436 6.2346 255.209 6 256 6C257.061 6 258.078 6.42143 258.828 7.17157C259.579 7.92172 260 8.93913 260 10Z" fill="currentColor"/>
<path d="M266.89 15.455C266.954 15.3377 266.995 15.2087 267.008 15.0756C267.022 14.9425 267.009 14.808 266.969 14.68C266.93 14.5521 266.865 14.4334 266.779 14.3309C266.693 14.2284 266.588 14.1442 266.469 14.0833C266.349 14.0224 266.219 13.986 266.086 13.9763C265.952 13.9666 265.818 13.9838 265.692 14.0268C265.565 14.0699 265.448 14.1379 265.348 14.2269C265.248 14.316 265.167 14.4241 265.11 14.545C264.186 16.3259 262.744 17.7857 260.975 18.7325L258.902 14.0675C259.695 13.5019 260.304 12.7174 260.657 11.8103C261.01 10.9032 261.09 9.91279 260.888 8.96068C260.686 8.00857 260.211 7.13612 259.52 6.45033C258.829 5.76455 257.953 5.29525 257 5.1V3C257 2.73478 256.895 2.48043 256.707 2.29289C256.52 2.10536 256.265 2 256 2C255.735 2 255.48 2.10536 255.293 2.29289C255.105 2.48043 255 2.73478 255 3V5.1C254.046 5.29525 253.171 5.76455 252.48 6.45033C251.789 7.13612 251.314 8.00857 251.112 8.96068C250.91 9.91279 250.99 10.9032 251.343 11.8103C251.696 12.7174 252.305 13.5019 253.097 14.0675L247.086 27.5938C247.032 27.7139 247.002 27.8435 246.998 27.9751C246.995 28.1068 247.017 28.2379 247.064 28.361C247.111 28.484 247.182 28.5966 247.272 28.6922C247.363 28.7878 247.471 28.8645 247.592 28.918C247.712 28.9715 247.842 29.0007 247.974 29.004C248.105 29.0072 248.236 28.9844 248.359 28.9368C248.482 28.8893 248.594 28.8179 248.689 28.7269C248.784 28.6358 248.861 28.5269 248.914 28.4062L252.056 21.3363C253.324 21.7777 254.657 22.0021 256 22C257.343 21.9984 258.677 21.7785 259.95 21.3487L263.086 28.4062C263.195 28.6473 263.394 28.8356 263.641 28.93C263.888 29.0243 264.163 29.0169 264.404 28.9095C264.646 28.8021 264.835 28.6033 264.931 28.3568C265.026 28.1102 265.02 27.8359 264.914 27.5938L261.789 20.5625C263.974 19.4252 265.755 17.6416 266.89 15.455ZM256 7C256.593 7 257.173 7.17595 257.667 7.50559C258.16 7.83524 258.545 8.30377 258.772 8.85195C258.999 9.40013 259.058 10.0033 258.942 10.5853C258.827 11.1672 258.541 11.7018 258.121 12.1213C257.702 12.5409 257.167 12.8266 256.585 12.9424C256.003 13.0581 255.4 12.9987 254.852 12.7716C254.304 12.5446 253.835 12.1601 253.506 11.6667C253.176 11.1734 253 10.5933 253 10C253 9.20435 253.316 8.44129 253.879 7.87868C254.441 7.31607 255.204 7 256 7ZM256 20C254.938 20.0013 253.883 19.8325 252.875 19.5L254.927 14.8825C255.636 15.0392 256.369 15.0392 257.077 14.8825L259.137 19.515C258.123 19.8363 257.064 19.9998 256 20Z" fill="currentColor"/>
</g>
<defs>
<clipPath id="clip0_17_14589">
<rect width="272" height="32" rx="5" fill="white"/>
</clipPath>
</defs>
</svg>
