<svg width="272" height="32" viewBox="0 0 272 32" fill="none" xmlns="http://www.w3.org/2000/svg">
<g clip-path="url(#clip0_17_14561)">
<path d="M27.96 8.26877L16.96 2.25002C16.6661 2.08763 16.3358 2.00244 16 2.00244C15.6642 2.00244 15.3339 2.08763 15.04 2.25002L4.04 8.27127C3.72586 8.44315 3.46363 8.69622 3.28069 9.00405C3.09775 9.31188 3.00081 9.66319 3 10.0213V21.9763C3.00081 22.3344 3.09775 22.6857 3.28069 22.9935C3.46363 23.3013 3.72586 23.5544 4.04 23.7263L15.04 29.7475C15.3339 29.9099 15.6642 29.9951 16 29.9951C16.3358 29.9951 16.6661 29.9099 16.96 29.7475L27.96 23.7263C28.2741 23.5544 28.5364 23.3013 28.7193 22.9935C28.9023 22.6857 28.9992 22.3344 29 21.9763V10.0225C28.9999 9.6638 28.9032 9.31172 28.7203 9.00317C28.5373 8.69462 28.2747 8.44096 27.96 8.26877ZM16 4.00002L26.0425 9.50002L16 15L5.9575 9.50002L16 4.00002ZM5 11.25L15 16.7225V27.4463L5 21.9775V11.25ZM17 27.4463V16.7275L27 11.25V21.9725L17 27.4463Z" fill="currentColor"/>
<path d="M75.72 8.70745L64.72 2.68495C64.4992 2.56416 64.2516 2.50085 64 2.50085C63.7484 2.50085 63.5008 2.56416 63.28 2.68495L52.28 8.70745C52.044 8.83657 51.8471 9.02676 51.7099 9.25811C51.5727 9.48947 51.5002 9.75346 51.5 10.0225V21.9775C51.5002 22.2464 51.5727 22.5104 51.7099 22.7418C51.8471 22.9731 52.044 23.1633 52.28 23.2925L63.28 29.315C63.5006 29.4363 63.7482 29.4999 64 29.4999C64.2518 29.4999 64.4994 29.4363 64.72 29.315L75.72 23.2925C75.956 23.1633 76.1529 22.9731 76.2901 22.7418C76.4273 22.5104 76.4998 22.2464 76.5 21.9775V10.0225C76.4998 9.75346 76.4273 9.48947 76.2901 9.25811C76.1529 9.02676 75.956 8.83657 75.72 8.70745ZM63.76 3.56245C63.8334 3.52151 63.916 3.50002 64 3.50002C64.084 3.50002 64.1666 3.52151 64.24 3.56245L75.0837 9.49995L64 15.565L52.9163 9.49995L63.76 3.56245ZM52.76 22.4162C52.6813 22.3731 52.6156 22.3097 52.5699 22.2325C52.5241 22.1553 52.5 22.0672 52.5 21.9775V10.4112L63.5 16.4312V28.295L52.76 22.4162ZM75.24 22.4162L64.5 28.2912V16.4312L75.5 10.4112V21.9775C75.4998 22.067 75.4756 22.1548 75.4298 22.2318C75.3841 22.3087 75.3185 22.372 75.24 22.415V22.4162Z" fill="currentColor"/>
<path d="M123.84 8.48755L112.84 2.4663C112.583 2.32426 112.294 2.24976 112 2.24976C111.706 2.24976 111.417 2.32426 111.16 2.4663L100.16 8.4888C99.8848 8.6394 99.6551 8.86123 99.495 9.13106C99.3349 9.40089 99.2503 9.7088 99.25 10.0226V21.9776C99.2503 22.2913 99.3349 22.5992 99.495 22.869C99.6551 23.1389 99.8848 23.3607 100.16 23.5113L111.16 29.5338C111.417 29.6756 111.706 29.75 112 29.75C112.294 29.75 112.583 29.6756 112.84 29.5338L123.84 23.5113C124.115 23.3607 124.345 23.1389 124.505 22.869C124.665 22.5992 124.75 22.2913 124.75 21.9776V10.0226C124.75 9.70859 124.665 9.40042 124.505 9.13035C124.345 8.86028 124.115 8.63825 123.84 8.48755ZM111.875 3.7813C111.912 3.76117 111.953 3.75062 111.995 3.75062C112.037 3.75062 112.078 3.76117 112.115 3.7813L122.564 9.50005L112 15.2801L101.436 9.50005L111.875 3.7813ZM100.875 22.1963C100.837 22.1742 100.805 22.1423 100.783 22.1038C100.761 22.0654 100.75 22.0218 100.75 21.9776V10.8326L111.25 16.5826V27.875L100.875 22.1963ZM123.115 22.1963L112.75 27.875V16.58L123.25 10.83V21.975C123.251 22.0197 123.24 22.0638 123.218 22.1027C123.196 22.1417 123.164 22.174 123.125 22.1963H123.115Z" fill="currentColor"/>
<path d="M172.2 7.83003L161.2 1.80878C160.832 1.60646 160.42 1.50037 160 1.50037C159.58 1.50037 159.168 1.60646 158.8 1.80878L147.8 7.83003C147.406 8.04539 147.078 8.36271 146.849 8.74869C146.621 9.13468 146.5 9.57511 146.5 10.0238V21.9763C146.5 22.4249 146.621 22.8654 146.849 23.2514C147.078 23.6373 147.406 23.9547 147.8 24.17L158.8 30.1913C159.168 30.3938 159.58 30.5 160 30.5C160.42 30.5 160.832 30.3938 161.2 30.1913L172.2 24.17C172.594 23.9547 172.922 23.6373 173.151 23.2514C173.379 22.8654 173.5 22.4249 173.5 21.9763V10.0238C173.5 9.57511 173.379 9.13468 173.151 8.74869C172.922 8.36271 172.594 8.04539 172.2 7.83003ZM160 4.57128L169 9.50003L160 14.425L151 9.50003L160 4.57128ZM149.5 12.0988L158.5 17.0238V26.6075L149.5 21.68V12.0988ZM161.5 26.6075V17.0238L170.5 12.0988V21.68L161.5 26.6075Z" fill="currentColor"/>
<path d="M219.96 8.26877L208.96 2.25002C208.666 2.08763 208.336 2.00244 208 2.00244C207.664 2.00244 207.334 2.08763 207.04 2.25002L196.04 8.27127C195.726 8.44315 195.464 8.69622 195.281 9.00405C195.098 9.31188 195.001 9.66319 195 10.0213V21.9763C195.001 22.3344 195.098 22.6857 195.281 22.9935C195.464 23.3013 195.726 23.5544 196.04 23.7263L207.04 29.7475C207.334 29.9099 207.664 29.9951 208 29.9951C208.336 29.9951 208.666 29.9099 208.96 29.7475L219.96 23.7263C220.274 23.5544 220.536 23.3013 220.719 22.9935C220.902 22.6857 220.999 22.3344 221 21.9763V10.0225C221 9.6638 220.903 9.31172 220.72 9.00317C220.537 8.69462 220.275 8.44096 219.96 8.26877ZM208 15L197.956 9.50002L208 4.00002L218.044 9.50002L208 15ZM209 27.455V16.7288L219 11.2563V21.9763L209 27.455Z" fill="currentColor"/>
<path opacity="0.2" d="M256 16.1362V29C255.832 28.9993 255.667 28.9563 255.52 28.875L244.52 22.855C244.363 22.769 244.232 22.6425 244.14 22.4886C244.049 22.3347 244 22.159 244 21.98V10.025C244 9.88407 244.03 9.74478 244.088 9.61621L256 16.1362Z" fill="currentColor"/>
<path d="M267.96 8.26877L256.96 2.25002C256.666 2.08763 256.336 2.00244 256 2.00244C255.664 2.00244 255.334 2.08763 255.04 2.25002L244.04 8.27127C243.726 8.44315 243.464 8.69622 243.281 9.00405C243.098 9.31188 243.001 9.66319 243 10.0213V21.9763C243.001 22.3344 243.098 22.6857 243.281 22.9935C243.464 23.3013 243.726 23.5544 244.04 23.7263L255.04 29.7475C255.334 29.9099 255.664 29.9951 256 29.9951C256.336 29.9951 256.666 29.9099 256.96 29.7475L267.96 23.7263C268.274 23.5544 268.536 23.3013 268.719 22.9935C268.902 22.6857 268.999 22.3344 269 21.9763V10.0225C269 9.6638 268.903 9.31172 268.72 9.00317C268.537 8.69462 268.275 8.44096 267.96 8.26877ZM256 4.00002L266.042 9.50002L256 15L245.957 9.50002L256 4.00002ZM245 11.25L255 16.7225V27.4463L245 21.9775V11.25ZM257 27.4463V16.7275L267 11.25V21.9725L257 27.4463Z" fill="currentColor"/>
</g>
<defs>
<clipPath id="clip0_17_14561">
<rect width="272" height="32" rx="5" fill="white"/>
</clipPath>
</defs>
</svg>
