<svg width="272" height="32" viewBox="0 0 272 32" fill="none" xmlns="http://www.w3.org/2000/svg">
<g clip-path="url(#clip0_17_14533)">
<path d="M16 2C10.9538 2 7 4.41625 7 7.5V24.5C7 27.5837 10.9538 30 16 30C21.0462 30 25 27.5837 25 24.5V7.5C25 4.41625 21.0462 2 16 2ZM16 4C19.3112 4 23 5.4375 23 7.5C23 9.5625 19.3112 11 16 11C12.6888 11 9 9.5625 9 7.5C9 5.4375 12.6888 4 16 4ZM16 28C12.2712 28 9 26.365 9 24.5V11C10.6375 12.2312 13.1425 13 16 13C18.8575 13 21.3625 12.225 23 11V24.5C23 26.365 19.7288 28 16 28Z" fill="currentColor"/>
<path d="M64 2.5C59.2337 2.5 55.5 4.69625 55.5 7.5V24.5C55.5 27.3037 59.2337 29.5 64 29.5C68.7663 29.5 72.5 27.3037 72.5 24.5V7.5C72.5 4.69625 68.7663 2.5 64 2.5ZM64 3.5C68.065 3.5 71.5 5.33125 71.5 7.5C71.5 9.66875 68.065 11.5 64 11.5C59.935 11.5 56.5 9.66875 56.5 7.5C56.5 5.33125 59.935 3.5 64 3.5ZM71.5 24.5C71.5 26.6688 68.065 28.5 64 28.5C59.935 28.5 56.5 26.6688 56.5 24.5V9.88875C57.9188 11.4563 60.7137 12.5 64 12.5C67.2863 12.5 70.0813 11.4563 71.5 9.88875V24.5Z" fill="currentColor"/>
<path d="M112 2.25C107.094 2.25 103.25 4.55625 103.25 7.5V24.5C103.25 27.4438 107.094 29.75 112 29.75C116.906 29.75 120.75 27.4438 120.75 24.5V7.5C120.75 4.55625 116.906 2.25 112 2.25ZM112 3.75C115.93 3.75 119.25 5.4675 119.25 7.5C119.25 9.5325 115.93 11.25 112 11.25C108.07 11.25 104.75 9.5325 104.75 7.5C104.75 5.4675 108.07 3.75 112 3.75ZM112 28.25C108.07 28.25 104.75 26.5325 104.75 24.5V10.4762C106.31 11.8587 108.949 12.75 112 12.75C115.051 12.75 117.69 11.8587 119.25 10.4762V24.5C119.25 26.5325 115.93 28.25 112 28.25Z" fill="currentColor"/>
<path d="M166.392 3.01C164.66 2.03625 162.39 1.5 160 1.5C157.61 1.5 155.34 2.03625 153.608 3.01C151.604 4.1375 150.5 5.7325 150.5 7.5V24.5C150.5 26.2675 151.604 27.8625 153.608 28.99C155.34 29.9637 157.61 30.5 160 30.5C162.39 30.5 164.66 29.9637 166.392 28.99C168.392 27.865 169.5 26.2675 169.5 24.5V7.5C169.5 5.7325 168.396 4.1375 166.392 3.01ZM155.079 5.625C156.35 4.91 158.144 4.5 160 4.5C161.856 4.5 163.65 4.91 164.921 5.625C165.921 6.19 166.5 6.875 166.5 7.5C166.5 8.125 165.925 8.81 164.921 9.375C163.65 10.09 161.856 10.5 160 10.5C158.144 10.5 156.35 10.09 155.079 9.375C154.075 8.81 153.5 8.125 153.5 7.5C153.5 6.875 154.075 6.19 155.079 5.625ZM164.921 26.375C163.65 27.09 161.856 27.5 160 27.5C158.144 27.5 156.35 27.09 155.079 26.375C154.075 25.81 153.5 25.125 153.5 24.5V11.925L153.608 11.99C155.34 12.9637 157.61 13.5 160 13.5C162.39 13.5 164.66 12.9637 166.392 11.99L166.5 11.925V24.5C166.5 25.125 165.925 25.81 164.921 26.375Z" fill="currentColor"/>
<path d="M208 2C202.954 2 199 4.41625 199 7.5V24.5C199 27.5837 202.954 30 208 30C213.046 30 217 27.5837 217 24.5V7.5C217 4.41625 213.046 2 208 2ZM208 28C204.271 28 201 26.365 201 24.5V9.67875C202.365 11.0625 204.988 12 208 12C211.012 12 213.635 11.0625 215 9.67875V24.5C215 26.365 211.729 28 208 28Z" fill="currentColor"/>
<path opacity="0.2" d="M264 7.5C264 9.985 260.419 12 256 12C251.581 12 248 9.985 248 7.5C248 5.015 251.581 3 256 3C260.419 3 264 5.015 264 7.5Z" fill="currentColor"/>
<path d="M256 2C250.954 2 247 4.41625 247 7.5V24.5C247 27.5837 250.954 30 256 30C261.046 30 265 27.5837 265 24.5V7.5C265 4.41625 261.046 2 256 2ZM256 4C259.311 4 263 5.4375 263 7.5C263 9.5625 259.311 11 256 11C252.689 11 249 9.5625 249 7.5C249 5.4375 252.689 4 256 4ZM256 28C252.271 28 249 26.365 249 24.5V11C250.638 12.2312 253.142 13 256 13C258.858 13 261.363 12.225 263 11V24.5C263 26.365 259.729 28 256 28Z" fill="currentColor"/>
</g>
<defs>
<clipPath id="clip0_17_14533">
<rect width="272" height="32" rx="5" fill="white"/>
</clipPath>
</defs>
</svg>
