<svg width="272" height="32" viewBox="0 0 272 32" fill="none" xmlns="http://www.w3.org/2000/svg">
<g clip-path="url(#clip0_17_14505)">
<path d="M21.75 5.96871C20.206 4.18551 18.4682 2.57978 16.5688 1.18121C16.4006 1.06343 16.2003 1.00024 15.995 1.00024C15.7897 1.00024 15.5894 1.06343 15.4213 1.18121C13.5253 2.58036 11.7909 4.18607 10.25 5.96871C6.81375 9.91496 5 14.075 5 18C5 20.9173 6.15893 23.7152 8.22183 25.7781C10.2847 27.841 13.0826 29 16 29C18.9174 29 21.7153 27.841 23.7782 25.7781C25.8411 23.7152 27 20.9173 27 18C27 14.075 25.1863 9.91496 21.75 5.96871ZM25 18C24.9998 18.3341 24.9806 18.668 24.9425 19H17V17H24.955C24.985 17.3333 25 17.6666 25 18ZM22.9237 11H17V8.99996H21.6112C22.0847 9.64231 22.5229 10.31 22.9237 11ZM17 25H21.6488C20.3169 26.0788 18.7035 26.753 17 26.9425V25ZM17 23V21H24.4837C24.2349 21.7056 23.8989 22.3775 23.4837 23H17ZM17 15V13H23.9237C24.1988 13.6493 24.4265 14.3177 24.605 15H17ZM19.9862 6.99996H17V4.07496C18.0578 4.98416 19.0553 5.96122 19.9862 6.99996ZM7 18C7 11.75 12.2825 6.41121 15 4.07496V26.9425C12.8011 26.6944 10.7703 25.6458 9.29493 23.9966C7.81952 22.3473 7.00263 20.2128 7 18Z" fill="currentColor"/>
<path d="M69.375 6.2963C67.8576 4.54369 66.15 2.96524 64.2838 1.59005C64.1998 1.53143 64.0999 1.5 63.9975 1.5C63.8951 1.5 63.7952 1.53143 63.7113 1.59005C61.8467 2.96553 60.1408 4.54397 58.625 6.2963C55.2713 10.1513 53.5 14.1975 53.5 18C53.5 20.7848 54.6062 23.4555 56.5754 25.4247C58.5445 27.3938 61.2152 28.5 64 28.5C66.7848 28.5 69.4555 27.3938 71.4246 25.4247C73.3938 23.4555 74.5 20.7848 74.5 18C74.5 14.1975 72.7288 10.1513 69.375 6.2963ZM73.5 18C73.4984 18.5026 73.4566 19.0042 73.375 19.5H64.5V16.5H73.4013C73.4664 16.9974 73.4993 17.4984 73.5 18ZM71.7675 11.5H64.5V8.50005H69.875C70.5853 9.44765 71.2182 10.4509 71.7675 11.5ZM64.5 20.5H73.1637C72.8695 21.5763 72.3871 22.592 71.7388 23.5H64.5V20.5ZM64.5 15.5V12.5H72.25C72.6829 13.4626 73.0131 14.4682 73.235 15.5H64.5ZM68.6375 6.9713C68.785 7.13796 68.9346 7.31421 69.0863 7.50005H64.5V3.0088C65.9947 4.20349 67.3794 5.52962 68.6375 6.9713ZM54.5 18C54.5 13.5125 57.1438 9.52505 59.3625 6.9713C60.6206 5.52962 62.0053 4.20349 63.5 3.0088V27.4863C61.0714 27.3556 58.7852 26.2995 57.1113 24.5351C55.4373 22.7707 54.5029 20.4321 54.5 18ZM64.5 27.4863V24.5H70.9188C69.2455 26.2875 66.9451 27.3577 64.5 27.4863Z" fill="currentColor"/>
<path d="M117.566 6.13246C116.036 4.3629 114.314 2.7697 112.43 1.38246C112.304 1.29426 112.154 1.24695 112 1.24695C111.846 1.24695 111.696 1.29426 111.57 1.38246C109.686 2.7697 107.964 4.3629 106.434 6.13246C103.043 10.0325 101.25 14.1362 101.25 18C101.25 20.851 102.383 23.5853 104.399 25.6014C106.415 27.6174 109.149 28.75 112 28.75C114.851 28.75 117.585 27.6174 119.601 25.6014C121.617 23.5853 122.75 20.851 122.75 18C122.75 14.1362 120.958 10.0325 117.566 6.13246ZM121.25 18C121.249 18.4181 121.22 18.8357 121.164 19.25H112.75V16.75H121.18C121.226 17.165 121.249 17.5823 121.25 18ZM119.35 11.25H112.75V8.74996H117.736C118.33 9.54592 118.869 10.3812 119.35 11.25ZM112.75 24.75H118.315C116.793 26.1788 114.831 27.0487 112.75 27.2175V24.75ZM112.75 23.25V20.75H120.833C120.553 21.6401 120.141 22.483 119.61 23.25H112.75ZM112.75 15.25V12.75H120.087C120.441 13.5565 120.721 14.3932 120.924 15.25H112.75ZM116.536 7.24996H112.75V3.53746C114.112 4.66854 115.379 5.91027 116.536 7.24996ZM102.75 18C102.75 11.3225 108.669 5.67996 111.25 3.53746V27.2175C108.936 27.0266 106.777 25.9731 105.203 24.2659C103.629 22.5587 102.753 20.3223 102.75 18Z" fill="currentColor"/>
<path d="M160.86 0.771261C160.608 0.594859 160.308 0.500244 160 0.500244C159.692 0.500244 159.392 0.594859 159.14 0.771261C157.207 2.19572 155.439 3.83078 153.868 5.64626C150.356 9.67876 148.5 13.9538 148.5 18C148.5 21.05 149.712 23.9751 151.868 26.1317C154.025 28.2884 156.95 29.5 160 29.5C163.05 29.5 165.975 28.2884 168.132 26.1317C170.288 23.9751 171.5 21.05 171.5 18C171.5 8.33001 161.295 1.07501 160.86 0.771261ZM168.26 20H161.5V18H168.5C168.5 18.6738 168.419 19.3452 168.26 20ZM161.5 15V13H167.375C167.661 13.6483 167.898 14.3168 168.085 15H161.5ZM163.913 7.66126C164.558 8.40428 165.158 9.18526 165.71 10H161.5V5.18251C162.351 5.96236 163.156 6.78995 163.913 7.66126ZM151.5 18C151.5 13.8363 154 10.0788 156.087 7.66126C156.844 6.78995 157.649 5.96236 158.5 5.18251V26.365C156.538 26.0109 154.763 24.9796 153.484 23.451C152.205 21.9223 151.503 19.9933 151.5 18ZM161.5 26.365V23H166.868C165.579 24.7714 163.656 25.9769 161.5 26.365Z" fill="currentColor"/>
<path d="M213.75 5.96871C212.206 4.18551 210.468 2.57978 208.569 1.18121C208.401 1.06343 208.2 1.00024 207.995 1.00024C207.79 1.00024 207.589 1.06343 207.421 1.18121C205.525 2.58036 203.791 4.18607 202.25 5.96871C198.814 9.91496 197 14.075 197 18C197 20.9173 198.159 23.7152 200.222 25.7781C202.285 27.841 205.083 29 208 29C210.917 29 213.715 27.841 215.778 25.7781C217.841 23.7152 219 20.9173 219 18C219 14.075 217.186 9.91496 213.75 5.96871ZM199 18C199 10.8462 205.934 4.87496 208 3.24996V27C205.614 26.9973 203.326 26.0483 201.639 24.361C199.952 22.6737 199.003 20.3861 199 18Z" fill="currentColor"/>
<path opacity="0.2" d="M266 18C266 19.3132 265.741 20.6136 265.239 21.8268C264.736 23.0401 264 24.1425 263.071 25.0711C262.142 25.9997 261.04 26.7362 259.827 27.2388C258.614 27.7413 257.313 28 256 28V2C256 2 266 9 266 18Z" fill="currentColor"/>
<path d="M261.75 5.96871C260.206 4.18551 258.468 2.57978 256.569 1.18121C256.401 1.06343 256.2 1.00024 255.995 1.00024C255.79 1.00024 255.589 1.06343 255.421 1.18121C253.525 2.58036 251.791 4.18607 250.25 5.96871C246.814 9.91496 245 14.075 245 18C245 20.9173 246.159 23.7152 248.222 25.7781C250.285 27.841 253.083 29 256 29C258.917 29 261.715 27.841 263.778 25.7781C265.841 23.7152 267 20.9173 267 18C267 14.075 265.186 9.91496 261.75 5.96871ZM247 18C247 11.75 252.283 6.41121 255 4.07496V26.9425C252.801 26.6944 250.77 25.6458 249.295 23.9966C247.82 22.3473 247.003 20.2128 247 18ZM257 26.9425V4.07496C259.717 6.41121 265 11.75 265 18C264.997 20.2128 264.18 22.3473 262.705 23.9966C261.23 25.6458 259.199 26.6944 257 26.9425Z" fill="currentColor"/>
</g>
<defs>
<clipPath id="clip0_17_14505">
<rect width="272" height="32" rx="5" fill="white"/>
</clipPath>
</defs>
</svg>
