<svg width="272" height="32" viewBox="0 0 272 32" fill="none" xmlns="http://www.w3.org/2000/svg">
<g clip-path="url(#clip0_17_14477)">
<path d="M28.1249 10.0499L22.9499 4.87495C22.3873 4.31238 21.6243 3.99634 20.8287 3.99634C20.0331 3.99634 19.2701 4.31238 18.7074 4.87495L3.87495 19.7074C3.31238 20.2701 2.99634 21.0331 2.99634 21.8287C2.99634 22.6243 3.31238 23.3873 3.87495 23.9499L7.63245 27.7074C7.72568 27.8006 7.83641 27.8744 7.95825 27.9246C8.0801 27.9748 8.21067 28.0004 8.34245 27.9999H26.9999C27.2652 27.9999 27.5195 27.8946 27.7071 27.7071C27.8946 27.5195 27.9999 27.2652 27.9999 26.9999C27.9999 26.7347 27.8946 26.4804 27.7071 26.2928C27.5195 26.1053 27.2652 25.9999 26.9999 25.9999H16.4124L28.1249 14.2924C28.6875 13.7298 29.0036 12.9668 29.0036 12.1712C29.0036 11.3756 28.6875 10.6126 28.1249 10.0499ZM13.5849 25.9999H8.7562L5.2912 22.5349C5.1038 22.3474 4.99854 22.0932 4.99854 21.8281C4.99854 21.563 5.1038 21.3087 5.2912 21.1212L11.9999 14.4137L18.5862 20.9999L13.5849 25.9999ZM26.7099 12.8749L19.9999 19.5862L13.4137 12.9999L20.1249 6.29245C20.2178 6.19947 20.3281 6.12571 20.4495 6.07539C20.5709 6.02506 20.701 5.99916 20.8324 5.99916C20.9639 5.99916 21.094 6.02506 21.2154 6.07539C21.3368 6.12571 21.4471 6.19947 21.5399 6.29245L26.7124 11.4649C26.8998 11.6525 27.0051 11.9067 27.0051 12.1718C27.0051 12.4369 26.8998 12.6912 26.7124 12.8787L26.7099 12.8749Z" fill="currentColor"/>
<path d="M75.7687 10.4025L70.5962 5.23123C70.1274 4.76256 69.4917 4.49927 68.8287 4.49927C68.1658 4.49927 67.5301 4.76256 67.0612 5.23123L52.2312 20.06C51.999 20.2921 51.8148 20.5678 51.6891 20.8712C51.5634 21.1745 51.4987 21.4997 51.4987 21.8281C51.4987 22.1565 51.5634 22.4817 51.6891 22.785C51.8148 23.0884 51.999 23.3641 52.2312 23.5962L55.9887 27.3537C56.0352 27.4002 56.0904 27.437 56.1511 27.4621C56.2118 27.4871 56.2768 27.5 56.3425 27.5H75C75.1326 27.5 75.2598 27.4473 75.3536 27.3535C75.4473 27.2598 75.5 27.1326 75.5 27C75.5 26.8674 75.4473 26.7402 75.3536 26.6464C75.2598 26.5527 75.1326 26.5 75 26.5H63.2075L75.7687 13.9387C76.001 13.7066 76.1852 13.4309 76.3109 13.1276C76.4366 12.8242 76.5013 12.499 76.5013 12.1706C76.5013 11.8422 76.4366 11.517 76.3109 11.2137C76.1852 10.9103 76.001 10.6346 75.7687 10.4025ZM61.7925 26.5H56.55L52.9387 22.8887C52.7989 22.7494 52.688 22.5838 52.6122 22.4015C52.5365 22.2191 52.4976 22.0237 52.4976 21.8262C52.4976 21.6288 52.5365 21.4333 52.6122 21.251C52.688 21.0687 52.7989 20.9031 52.9387 20.7637L60 13.7062L67.2937 21L61.7925 26.5ZM75.0612 13.2312L68 20.2925L60.7062 13L67.7675 5.93998C67.9069 5.80014 68.0724 5.68919 68.2548 5.61348C68.4371 5.53777 68.6326 5.4988 68.83 5.4988C69.0274 5.4988 69.2229 5.53777 69.4052 5.61348C69.5876 5.68919 69.7531 5.80014 69.8925 5.93998L75.0637 11.1112C75.3443 11.3928 75.5016 11.7742 75.5012 12.1718C75.5007 12.5693 75.3425 12.9503 75.0612 13.2312Z" fill="currentColor"/>
<path d="M123.946 10.2262L118.774 5.05372C118.518 4.79822 118.215 4.59554 117.881 4.45726C117.548 4.31898 117.19 4.2478 116.829 4.2478C116.467 4.2478 116.11 4.31898 115.776 4.45726C115.442 4.59554 115.139 4.79822 114.884 5.05372L100.054 19.8837C99.5381 20.3994 99.2484 21.0988 99.2484 21.8281C99.2484 22.5574 99.5381 23.2568 100.054 23.7725L103.812 27.53C103.953 27.6707 104.144 27.7498 104.342 27.75H123C123.199 27.75 123.39 27.6709 123.53 27.5303C123.671 27.3896 123.75 27.1989 123.75 27C123.75 26.8011 123.671 26.6103 123.53 26.4696C123.39 26.329 123.199 26.25 123 26.25H111.811L123.946 14.115C124.462 13.5993 124.751 12.8999 124.751 12.1706C124.751 11.4413 124.462 10.7419 123.946 10.2262ZM109.689 26.25H104.652L101.115 22.7125C100.999 22.5964 100.907 22.4585 100.844 22.3068C100.781 22.155 100.748 21.9924 100.748 21.8281C100.748 21.6638 100.781 21.5012 100.844 21.3494C100.907 21.1977 100.999 21.0598 101.115 20.9437L108 14.06L114.94 21L109.689 26.25ZM122.885 13.055L116 19.9387L109.06 13L115.945 6.11622C116.179 5.88188 116.497 5.75023 116.829 5.75023C117.16 5.75023 117.478 5.88188 117.712 6.11622L122.885 11.2875C123.119 11.5219 123.251 11.8398 123.251 12.1712C123.251 12.5027 123.119 12.8206 122.885 13.055Z" fill="currentColor"/>
<path d="M171 25.5H161.625L172.48 14.645C172.805 14.32 173.063 13.9342 173.239 13.5095C173.415 13.0848 173.505 12.6297 173.505 12.17C173.505 11.7104 173.415 11.2552 173.239 10.8306C173.063 10.4059 172.805 10.02 172.48 9.69504L167.304 4.52379C166.979 4.19874 166.593 3.9409 166.168 3.76499C165.744 3.58908 165.288 3.49854 164.829 3.49854C164.369 3.49854 163.914 3.58908 163.489 3.76499C163.065 3.9409 162.679 4.19874 162.354 4.52379L147.524 19.3525C147.199 19.6775 146.941 20.0634 146.765 20.4881C146.589 20.9127 146.499 21.3679 146.499 21.8275C146.499 22.2872 146.589 22.7423 146.765 23.167C146.941 23.5917 147.199 23.9775 147.524 24.3025L151.281 28.0613C151.421 28.2005 151.586 28.311 151.768 28.3862C151.95 28.4615 152.145 28.5002 152.343 28.5H171C171.398 28.5 171.779 28.342 172.061 28.0607C172.342 27.7794 172.5 27.3979 172.5 27C172.5 26.6022 172.342 26.2207 172.061 25.9394C171.779 25.6581 171.398 25.5 171 25.5ZM164.475 6.64504C164.521 6.59855 164.577 6.56167 164.637 6.53651C164.698 6.51135 164.763 6.49839 164.829 6.49839C164.894 6.49839 164.96 6.51135 165.02 6.53651C165.081 6.56167 165.136 6.59855 165.183 6.64504L170.355 11.8175C170.449 11.9113 170.501 12.0383 170.501 12.1707C170.501 12.3031 170.449 12.4301 170.355 12.5238L164 18.875L158.125 13L164.475 6.64504ZM152.964 25.5L149.645 22.1813C149.552 22.0876 149.499 21.9606 149.499 21.8282C149.499 21.6958 149.552 21.5688 149.645 21.475L156 15.125L161.875 21L157.375 25.5H152.964Z" fill="currentColor"/>
<path d="M220.125 10.0499L214.95 4.87495C214.387 4.31238 213.624 3.99634 212.829 3.99634C212.033 3.99634 211.27 4.31238 210.707 4.87495L195.875 19.7074C195.312 20.2701 194.996 21.0331 194.996 21.8287C194.996 22.6243 195.312 23.3873 195.875 23.9499L199.632 27.7074C199.726 27.8006 199.836 27.8744 199.958 27.9246C200.08 27.9748 200.211 28.0004 200.342 27.9999H219C219.265 27.9999 219.52 27.8946 219.707 27.7071C219.895 27.5195 220 27.2652 220 26.9999C220 26.7347 219.895 26.4804 219.707 26.2928C219.52 26.1053 219.265 25.9999 219 25.9999H208.412L220.125 14.2924C220.688 13.7298 221.004 12.9668 221.004 12.1712C221.004 11.3756 220.688 10.6126 220.125 10.0499ZM218.709 12.8749L212 19.5862L205.414 12.9999L212.125 6.29245C212.218 6.19947 212.328 6.12571 212.45 6.07539C212.571 6.02506 212.701 5.99916 212.832 5.99916C212.964 5.99916 213.094 6.02506 213.215 6.07539C213.337 6.12571 213.447 6.19947 213.54 6.29245L218.712 11.4649C218.9 11.6525 219.005 11.9067 219.005 12.1718C219.005 12.4369 218.9 12.6912 218.712 12.8787L218.709 12.8749Z" fill="currentColor"/>
<path opacity="0.2" d="M260 21L254 27H248.344L244.586 23.2425C244.4 23.0568 244.253 22.8363 244.153 22.5936C244.052 22.3509 244 22.0908 244 21.8281C244 21.5654 244.052 21.3053 244.153 21.0627C244.253 20.82 244.4 20.5995 244.586 20.4137L252 13L260 21Z" fill="currentColor"/>
<path d="M268.125 10.0499L262.95 4.87495C262.387 4.31238 261.624 3.99634 260.829 3.99634C260.033 3.99634 259.27 4.31238 258.707 4.87495L243.875 19.7074C243.312 20.2701 242.996 21.0331 242.996 21.8287C242.996 22.6243 243.312 23.3873 243.875 23.9499L247.632 27.7074C247.726 27.8006 247.836 27.8744 247.958 27.9246C248.08 27.9748 248.211 28.0004 248.342 27.9999H267C267.265 27.9999 267.52 27.8946 267.707 27.7071C267.895 27.5195 268 27.2652 268 26.9999C268 26.7347 267.895 26.4804 267.707 26.2928C267.52 26.1053 267.265 25.9999 267 25.9999H256.412L268.125 14.2924C268.688 13.7298 269.004 12.9668 269.004 12.1712C269.004 11.3756 268.688 10.6126 268.125 10.0499ZM253.585 25.9999H248.756L245.291 22.5349C245.104 22.3474 244.999 22.0932 244.999 21.8281C244.999 21.563 245.104 21.3087 245.291 21.1212L252 14.4137L258.586 20.9999L253.585 25.9999ZM266.71 12.8749L260 19.5862L253.414 12.9999L260.125 6.29245C260.218 6.19947 260.328 6.12571 260.45 6.07539C260.571 6.02506 260.701 5.99916 260.832 5.99916C260.964 5.99916 261.094 6.02506 261.215 6.07539C261.337 6.12571 261.447 6.19947 261.54 6.29245L266.712 11.4649C266.9 11.6525 267.005 11.9067 267.005 12.1718C267.005 12.4369 266.9 12.6912 266.712 12.8787L266.71 12.8749Z" fill="currentColor"/>
</g>
<defs>
<clipPath id="clip0_17_14477">
<rect width="272" height="32" rx="5" fill="white"/>
</clipPath>
</defs>
</svg>
