<svg width="272" height="32" viewBox="0 0 272 32" fill="none" xmlns="http://www.w3.org/2000/svg">
<g clip-path="url(#clip0_17_14365)">
<path d="M30.7075 9.29257L26.7075 5.29257C26.5198 5.10493 26.2653 4.99951 26 4.99951C25.7346 4.99951 25.4801 5.10493 25.2925 5.29257C25.1048 5.48021 24.9994 5.7347 24.9994 6.00007C24.9994 6.26543 25.1048 6.51993 25.2925 6.70757L27.5862 9.00007H24C22.7749 9.04447 21.5706 9.33035 20.4562 9.84132C18.7537 10.6276 16.6025 12.3051 16.0137 15.8413C15.3487 19.8338 12.3762 20.7438 10.8887 20.9488C10.6264 19.7382 9.92409 18.668 8.91778 17.9456C7.91146 17.2232 6.67282 16.9002 5.44188 17.0389C4.21093 17.1777 3.07533 17.7685 2.25513 18.6968C1.43492 19.6251 0.988507 20.8248 1.00239 22.0635C1.01627 23.3022 1.48946 24.4916 2.33027 25.4013C3.17108 26.3109 4.31963 26.8761 5.55338 26.9873C6.78712 27.0985 8.01821 26.7477 9.00808 26.003C9.99796 25.2582 10.6761 24.1726 10.9112 22.9563C11.8102 22.8538 12.6885 22.6157 13.5162 22.2501C15.2187 21.5001 17.375 19.8251 17.9862 16.1638C18.8312 11.0963 23.7925 11.0001 24 11.0001H27.5862L25.2925 13.2926C25.1048 13.4802 24.9994 13.7347 24.9994 14.0001C24.9994 14.2654 25.1048 14.5199 25.2925 14.7076C25.4801 14.8952 25.7346 15.0006 26 15.0006C26.2653 15.0006 26.5198 14.8952 26.7075 14.7076L30.7075 10.7076C30.8004 10.6147 30.8742 10.5044 30.9245 10.383C30.9749 10.2616 31.0008 10.1315 31.0008 10.0001C31.0008 9.86865 30.9749 9.73853 30.9245 9.61713C30.8742 9.49573 30.8004 9.38544 30.7075 9.29257ZM5.99997 25.0001C5.40662 25.0001 4.8266 24.8241 4.33326 24.4945C3.83991 24.1648 3.45539 23.6963 3.22833 23.1481C3.00127 22.5999 2.94186 21.9967 3.05761 21.4148C3.17337 20.8329 3.45909 20.2983 3.87865 19.8787C4.2982 19.4592 4.83275 19.1735 5.4147 19.0577C5.99664 18.942 6.59984 19.0014 7.14802 19.2284C7.6962 19.4555 8.16473 19.84 8.49438 20.3334C8.82402 20.8267 8.99997 21.4067 8.99997 22.0001C8.99997 22.7957 8.6839 23.5588 8.12129 24.1214C7.55868 24.684 6.79562 25.0001 5.99997 25.0001Z" fill="currentColor"/>
<path d="M78.3538 9.64628L74.3538 5.64628C74.26 5.55246 74.1327 5.49976 74.0001 5.49976C73.8674 5.49976 73.7401 5.55246 73.6463 5.64628C73.5525 5.7401 73.4998 5.86735 73.4998 6.00003C73.4998 6.13272 73.5525 6.25996 73.6463 6.35378L76.7926 9.50003H72.0001C70.8467 9.54239 69.7132 9.81303 68.6651 10.2963C67.0738 11.0313 65.0588 12.6025 64.5063 15.9213C63.7051 20.7325 59.8151 21.405 58.4701 21.4925C58.3423 20.3495 57.7817 19.2988 56.9034 18.5562C56.0251 17.8136 54.8959 17.4355 53.7475 17.4995C52.5992 17.5635 51.5189 18.0648 50.7286 18.9003C49.9383 19.7359 49.4979 20.8424 49.4979 21.9925C49.4979 23.1427 49.9383 24.2491 50.7286 25.0847C51.5189 25.9203 52.5992 26.4216 53.7475 26.4856C54.8959 26.5496 56.0251 26.1714 56.9034 25.4288C57.7817 24.6862 58.3423 23.6355 58.4701 22.4925C59.4494 22.4285 60.41 22.1941 61.3088 21.8C62.9001 21.0938 64.9163 19.5288 65.4901 16.0863C66.4101 10.5838 71.7726 10.5 72.0001 10.5H76.7926L73.6463 13.6463C73.5525 13.7401 73.4998 13.8674 73.4998 14C73.4998 14.1327 73.5525 14.26 73.6463 14.3538C73.7401 14.4476 73.8674 14.5003 74.0001 14.5003C74.1327 14.5003 74.26 14.4476 74.3538 14.3538L78.3538 10.3538C78.4003 10.3073 78.4372 10.2522 78.4623 10.1915C78.4875 10.1308 78.5005 10.0657 78.5005 10C78.5005 9.93433 78.4875 9.86926 78.4623 9.80856C78.4372 9.74786 78.4003 9.69272 78.3538 9.64628ZM54.0001 25.5C53.3078 25.5 52.6311 25.2948 52.0556 24.9102C51.48 24.5256 51.0314 23.979 50.7665 23.3394C50.5016 22.6999 50.4323 21.9962 50.5673 21.3172C50.7024 20.6383 51.0357 20.0146 51.5252 19.5252C52.0147 19.0357 52.6383 18.7023 53.3172 18.5673C53.9962 18.4322 54.6999 18.5015 55.3395 18.7665C55.979 19.0314 56.5256 19.48 56.9102 20.0555C57.2948 20.6311 57.5001 21.3078 57.5001 22C57.5001 22.9283 57.1313 23.8185 56.4749 24.4749C55.8186 25.1313 54.9283 25.5 54.0001 25.5Z" fill="currentColor"/>
<path d="M126.53 9.47009L122.53 5.47009C122.388 5.33761 122.2 5.26549 122.005 5.26892C121.811 5.27234 121.626 5.35106 121.488 5.48847C121.351 5.62588 121.272 5.81127 121.269 6.00557C121.265 6.19987 121.337 6.38792 121.47 6.53009L124.189 9.25009H120C118.811 9.29301 117.642 9.57129 116.561 10.0688C114.914 10.8288 112.831 12.4538 112.26 15.8763C111.53 20.2513 108.135 21.0726 106.685 21.2201C106.488 20.0417 105.855 18.9806 104.911 18.2483C103.967 17.5161 102.782 17.1663 101.592 17.2689C100.402 17.3714 99.2937 17.9187 98.489 18.8017C97.6843 19.6846 97.2418 20.8384 97.2497 22.033C97.2577 23.2277 97.7155 24.3754 98.532 25.2476C99.3484 26.1197 100.464 26.6522 101.655 26.7388C102.847 26.8255 104.027 26.46 104.961 25.7152C105.895 24.9704 106.514 23.901 106.695 22.7201C107.633 22.6368 108.552 22.4016 109.415 22.0238C111.061 21.2913 113.147 19.6738 113.74 16.1226C114.615 10.8401 119.782 10.7476 120 10.7476H124.189L121.47 13.4676C121.396 13.5363 121.337 13.6191 121.296 13.7111C121.255 13.8031 121.233 13.9024 121.231 14.0031C121.23 14.1038 121.248 14.2038 121.286 14.2972C121.324 14.3906 121.38 14.4754 121.451 14.5466C121.522 14.6178 121.607 14.674 121.7 14.7117C121.794 14.7494 121.894 14.768 121.994 14.7662C122.095 14.7644 122.194 14.7424 122.286 14.7014C122.378 14.6604 122.461 14.6013 122.53 14.5276L126.53 10.5276C126.67 10.3871 126.748 10.197 126.748 9.99884C126.748 9.8007 126.67 9.61061 126.53 9.47009ZM102 25.2501C101.357 25.2501 100.729 25.0595 100.194 24.7024C99.6599 24.3453 99.2433 23.8377 98.9973 23.2438C98.7513 22.65 98.687 21.9965 98.8124 21.366C98.9378 20.7356 99.2473 20.1565 99.7018 19.702C100.156 19.2475 100.735 18.9379 101.366 18.8125C101.996 18.6871 102.65 18.7515 103.244 18.9975C103.838 19.2435 104.345 19.66 104.702 20.1945C105.059 20.7289 105.25 21.3573 105.25 22.0001C105.25 22.862 104.908 23.6887 104.298 24.2982C103.689 24.9077 102.862 25.2501 102 25.2501Z" fill="currentColor"/>
<path d="M175.061 8.93864L171.061 4.93864C170.78 4.65684 170.397 4.49854 169.999 4.49854C169.6 4.49854 169.218 4.65684 168.936 4.93864C168.655 5.22043 168.496 5.60262 168.496 6.00114C168.496 6.39965 168.655 6.78184 168.936 7.06364L170.375 8.49989H168C166.703 8.54137 165.428 8.84318 164.25 9.38739C162.439 10.2236 160.149 12.0124 159.524 15.7524C159.188 17.7736 158.201 19.1774 156.595 19.9261C156.165 20.1239 155.714 20.2715 155.25 20.3661C154.856 19.1 154.019 18.0187 152.891 17.3213C151.763 16.6239 150.422 16.3573 149.113 16.5707C147.804 16.7841 146.617 17.463 145.769 18.4825C144.921 19.502 144.47 20.7934 144.499 22.119C144.528 23.4446 145.035 24.7152 145.927 25.6967C146.818 26.6782 148.034 27.3047 149.351 27.4608C150.667 27.6168 151.996 27.292 153.092 26.546C154.188 25.8001 154.978 24.6832 155.316 23.4011C156.144 23.2798 156.951 23.0469 157.716 22.7086C159.531 21.9024 161.83 20.1261 162.478 16.2461C162.8 14.3111 163.788 12.9349 165.414 12.1524C166.225 11.7685 167.104 11.5469 168 11.4999H170.375L168.935 12.9386C168.653 13.2204 168.495 13.6026 168.495 14.0011C168.495 14.3997 168.653 14.7818 168.935 15.0636C169.217 15.3454 169.599 15.5037 169.998 15.5037C170.396 15.5037 170.778 15.3454 171.06 15.0636L175.06 11.0636C175.2 10.9244 175.311 10.7588 175.387 10.5766C175.463 10.3943 175.502 10.1988 175.502 10.0014C175.502 9.80398 175.463 9.60847 175.388 9.4261C175.312 9.24373 175.201 9.07807 175.061 8.93864ZM150 24.4999C149.506 24.4999 149.022 24.3533 148.611 24.0786C148.2 23.8039 147.88 23.4134 147.69 22.9566C147.501 22.4998 147.452 21.9971 147.548 21.5122C147.645 21.0272 147.883 20.5818 148.232 20.2321C148.582 19.8825 149.027 19.6444 149.512 19.5479C149.997 19.4515 150.5 19.501 150.957 19.6902C151.414 19.8794 151.804 20.1998 152.079 20.611C152.353 21.0221 152.5 21.5054 152.5 21.9999C152.5 22.6629 152.237 23.2988 151.768 23.7677C151.299 24.2365 150.663 24.4999 150 24.4999Z" fill="currentColor"/>
<path d="M222.707 10.7076L218.707 14.7076C218.52 14.8952 218.265 15.0006 218 15.0006C217.735 15.0006 217.48 14.8952 217.292 14.7076C217.105 14.5199 216.999 14.2654 216.999 14.0001C216.999 13.7347 217.105 13.4802 217.292 13.2926L219.586 11.0001H216C215.792 11.0001 210.831 11.0963 209.986 16.1638C209.375 19.8251 207.219 21.5001 205.516 22.2501C204.432 22.7264 203.264 22.9814 202.08 23.0001H201.875C201.632 23.9427 201.053 24.7643 200.247 25.3107C199.441 25.8571 198.464 26.0909 197.498 25.9682C196.532 25.8455 195.644 25.3748 195.001 24.6443C194.357 23.9138 194.002 22.9736 194.002 22.0001C194.002 21.0265 194.357 20.0863 195.001 19.3558C195.644 18.6253 196.532 18.1546 197.498 18.0319C198.464 17.9093 199.441 18.1431 200.247 18.6895C201.053 19.2359 201.632 20.0574 201.875 21.0001H202.041C202.244 21.0001 207.137 21.1013 208.015 15.8351C208.602 12.3051 210.75 10.6251 212.456 9.84132C213.571 9.33035 214.775 9.04447 216 9.00007H219.586L217.292 6.70757C217.105 6.51993 216.999 6.26543 216.999 6.00007C216.999 5.7347 217.105 5.48021 217.292 5.29257C217.48 5.10493 217.735 4.99951 218 4.99951C218.265 4.99951 218.52 5.10493 218.707 5.29257L222.707 9.29257C222.8 9.38544 222.874 9.49573 222.924 9.61713C222.975 9.73853 223.001 9.86865 223.001 10.0001C223.001 10.1315 222.975 10.2616 222.924 10.383C222.874 10.5044 222.8 10.6147 222.707 10.7076Z" fill="currentColor"/>
<path opacity="0.2" d="M250 22C250 22.7911 249.765 23.5645 249.326 24.2223C248.886 24.8801 248.262 25.3928 247.531 25.6955C246.8 25.9983 245.996 26.0775 245.22 25.9231C244.444 25.7688 243.731 25.3878 243.172 24.8284C242.612 24.269 242.231 23.5563 242.077 22.7804C241.923 22.0044 242.002 21.2002 242.304 20.4693C242.607 19.7384 243.12 19.1136 243.778 18.6741C244.436 18.2346 245.209 18 246 18C247.061 18 248.078 18.4214 248.828 19.1716C249.579 19.9217 250 20.9391 250 22Z" fill="currentColor"/>
<path d="M270.708 9.29257L266.708 5.29257C266.52 5.10493 266.265 4.99951 266 4.99951C265.735 4.99951 265.48 5.10493 265.293 5.29257C265.105 5.48021 265 5.7347 265 6.00007C265 6.26543 265.105 6.51993 265.293 6.70757L267.586 9.00007H264C262.775 9.04447 261.571 9.33035 260.456 9.84132C258.754 10.6276 256.603 12.3051 256.014 15.8413C255.349 19.8326 252.376 20.7438 250.889 20.9488C250.627 19.7382 249.924 18.668 248.918 17.9456C247.912 17.2232 246.673 16.9002 245.442 17.0389C244.211 17.1777 243.075 17.7685 242.255 18.6968C241.435 19.6251 240.989 20.8248 241.003 22.0635C241.016 23.3022 241.49 24.4916 242.33 25.4013C243.171 26.3109 244.32 26.8761 245.553 26.9873C246.787 27.0985 248.018 26.7477 249.008 26.003C249.998 25.2582 250.676 24.1726 250.911 22.9563C251.81 22.8538 252.689 22.6157 253.516 22.2501C255.219 21.5001 257.375 19.8251 257.986 16.1638C258.831 11.0963 263.793 11.0001 264 11.0001H267.586L265.293 13.2926C265.105 13.4802 265 13.7347 265 14.0001C265 14.2654 265.105 14.5199 265.293 14.7076C265.48 14.8952 265.735 15.0006 266 15.0006C266.265 15.0006 266.52 14.8952 266.708 14.7076L270.708 10.7076C270.801 10.6147 270.874 10.5044 270.925 10.383C270.975 10.2616 271.001 10.1315 271.001 10.0001C271.001 9.86865 270.975 9.73853 270.925 9.61713C270.874 9.49573 270.801 9.38544 270.708 9.29257ZM246 25.0001C245.407 25.0001 244.827 24.8241 244.333 24.4945C243.84 24.1648 243.456 23.6963 243.228 23.1481C243.001 22.5999 242.942 21.9967 243.058 21.4148C243.173 20.8329 243.459 20.2983 243.879 19.8787C244.298 19.4592 244.833 19.1735 245.415 19.0577C245.997 18.942 246.6 19.0014 247.148 19.2284C247.696 19.4555 248.165 19.84 248.494 20.3334C248.824 20.8267 249 21.4067 249 22.0001C249 22.7957 248.684 23.5588 248.121 24.1214C247.559 24.684 246.796 25.0001 246 25.0001Z" fill="currentColor"/>
</g>
<defs>
<clipPath id="clip0_17_14365">
<rect width="272" height="32" rx="5" fill="white"/>
</clipPath>
</defs>
</svg>
