<svg width="272" height="32" viewBox="0 0 272 32" fill="none" xmlns="http://www.w3.org/2000/svg">
<g clip-path="url(#clip0_17_14351)">
<path d="M29 15H26.9538C26.8413 13.75 26.514 12.5287 25.9862 11.39L27.7588 10.3663C27.9885 10.2336 28.1561 10.0152 28.2248 9.75898C28.2935 9.50276 28.2576 9.22974 28.125 9C27.9924 8.77026 27.7739 8.6026 27.5177 8.53392C27.2615 8.46523 26.9885 8.50114 26.7588 8.63375L24.9837 9.65875C24.2586 8.63487 23.3651 7.74137 22.3412 7.01625L23.3662 5.24125C23.4989 5.01151 23.5348 4.73849 23.4661 4.48227C23.3974 4.22605 23.2297 4.00761 23 3.875C22.7703 3.74239 22.4972 3.70648 22.241 3.77517C21.9848 3.84385 21.7664 4.01151 21.6338 4.24125L20.61 6.01375C19.4713 5.48598 18.25 5.15868 17 5.04625V3C17 2.73478 16.8946 2.48043 16.7071 2.29289C16.5196 2.10536 16.2652 2 16 2C15.7348 2 15.4804 2.10536 15.2929 2.29289C15.1054 2.48043 15 2.73478 15 3V5.04625C13.75 5.15868 12.5287 5.48598 11.39 6.01375L10.3663 4.24125C10.3006 4.12749 10.2132 4.02778 10.109 3.94781C10.0048 3.86784 9.88585 3.80917 9.75898 3.77517C9.63211 3.74116 9.49978 3.73247 9.36956 3.7496C9.23933 3.76673 9.11376 3.80934 9 3.875C8.77026 4.00761 8.6026 4.22605 8.53392 4.48227C8.46523 4.73849 8.50114 5.01151 8.63375 5.24125L9.65875 7.01625C8.63487 7.74137 7.74137 8.63487 7.01625 9.65875L5.24125 8.63375C5.01151 8.50114 4.73849 8.46523 4.48227 8.53392C4.22605 8.6026 4.00761 8.77026 3.875 9C3.74239 9.22974 3.70648 9.50276 3.77517 9.75898C3.84385 10.0152 4.01151 10.2336 4.24125 10.3663L6.01375 11.39C5.48598 12.5287 5.15868 13.75 5.04625 15H3C2.73478 15 2.48043 15.1054 2.29289 15.2929C2.10536 15.4804 2 15.7348 2 16C2 16.2652 2.10536 16.5196 2.29289 16.7071C2.48043 16.8946 2.73478 17 3 17H5.04625C5.15868 18.25 5.48598 19.4713 6.01375 20.61L4.24125 21.6338C4.0505 21.7438 3.90139 21.9137 3.81707 22.1171C3.73275 22.3205 3.71794 22.5461 3.77493 22.7588C3.83191 22.9715 3.95752 23.1594 4.13224 23.2935C4.30697 23.4275 4.52104 23.5001 4.74125 23.5C4.91683 23.5005 5.08939 23.4544 5.24125 23.3662L7.01625 22.3412C7.74137 23.3651 8.63487 24.2586 9.65875 24.9837L8.63375 26.7588C8.50114 26.9885 8.46523 27.2615 8.53392 27.5177C8.6026 27.7739 8.77026 27.9924 9 28.125C9.22974 28.2576 9.50276 28.2935 9.75898 28.2248C10.0152 28.1561 10.2336 27.9885 10.3663 27.7588L11.39 25.9862C12.5287 26.514 13.75 26.8413 15 26.9538V29C15 29.2652 15.1054 29.5196 15.2929 29.7071C15.4804 29.8946 15.7348 30 16 30C16.2652 30 16.5196 29.8946 16.7071 29.7071C16.8946 29.5196 17 29.2652 17 29V26.9538C18.25 26.8413 19.4713 26.514 20.61 25.9862L21.6338 27.7588C21.7664 27.9885 21.9848 28.1561 22.241 28.2248C22.4972 28.2935 22.7703 28.2576 23 28.125C23.2297 27.9924 23.3974 27.774 23.4661 27.5177C23.5348 27.2615 23.4989 26.9885 23.3662 26.7588L22.3412 24.9837C23.3651 24.2586 24.2586 23.3651 24.9837 22.3412L26.7588 23.3662C26.8725 23.4319 26.9981 23.4746 27.1283 23.4917C27.2585 23.5089 27.3909 23.5002 27.5177 23.4662C27.6446 23.4321 27.7636 23.3735 27.8677 23.2935C27.9719 23.2135 28.0594 23.1138 28.125 23C28.2578 22.7704 28.2939 22.4975 28.2254 22.2413C28.157 21.9851 27.9896 21.7665 27.76 21.6338L25.9875 20.61C26.5148 19.4712 26.8417 18.25 26.9538 17H29C29.2652 17 29.5196 16.8946 29.7071 16.7071C29.8946 16.5196 30 16.2652 30 16C30 15.7348 29.8946 15.4804 29.7071 15.2929C29.5196 15.1054 29.2652 15 29 15ZM16 7C18.2129 7.00263 20.3474 7.81952 21.9966 9.29493C23.6458 10.7703 24.6944 12.8011 24.9425 15H16.5775L12.395 7.75625C13.5312 7.25687 14.7589 6.99933 16 7ZM7 16C7.00076 14.5902 7.33271 13.2003 7.96909 11.9423C8.60547 10.6843 9.52849 9.59339 10.6637 8.7575L14.845 16L10.6637 23.2425C9.52849 22.4066 8.60547 21.3157 7.96909 20.0577C7.33271 18.7997 7.00076 17.4098 7 16ZM16 25C14.7593 25.0026 13.5317 24.7472 12.395 24.25L16.5775 17H24.9425C24.6944 19.1989 23.6458 21.2297 21.9966 22.7051C20.3474 24.1805 18.2129 24.9974 16 25Z" fill="currentColor"/>
<path d="M77 15.5H74.4875C74.4169 13.9969 74.0216 12.527 73.3288 11.1912L75.5088 9.9325C75.6176 9.86332 75.6955 9.75476 75.7262 9.6295C75.7568 9.50424 75.7379 9.37197 75.6734 9.26032C75.6089 9.14867 75.5037 9.06627 75.3798 9.03034C75.256 8.99441 75.123 9.00772 75.0088 9.0675L72.8275 10.3263C72.0126 9.0626 70.9374 7.98741 69.6737 7.1725L70.9325 4.99125C70.9923 4.87698 71.0056 4.74403 70.9697 4.62018C70.9337 4.49632 70.8513 4.39114 70.7397 4.3266C70.628 4.26207 70.4958 4.24316 70.3705 4.27384C70.2452 4.30453 70.1367 4.38242 70.0675 4.49125L68.8088 6.67125C67.473 5.97839 66.0031 5.58307 64.5 5.5125V3C64.5 2.86739 64.4473 2.74021 64.3536 2.64645C64.2598 2.55268 64.1326 2.5 64 2.5C63.8674 2.5 63.7402 2.55268 63.6464 2.64645C63.5527 2.74021 63.5 2.86739 63.5 3V5.5125C61.9969 5.58307 60.527 5.97839 59.1912 6.67125L57.9325 4.49125C57.8633 4.38242 57.7548 4.30453 57.6295 4.27384C57.5042 4.24316 57.372 4.26207 57.2603 4.3266C57.1487 4.39114 57.0663 4.49632 57.0303 4.62018C56.9944 4.74403 57.0077 4.87698 57.0675 4.99125L58.3263 7.1725C57.0626 7.98741 55.9874 9.0626 55.1725 10.3263L52.9913 9.0675C52.9343 9.03132 52.8707 9.00703 52.8042 8.99609C52.7376 8.98514 52.6696 8.98777 52.6041 9.00381C52.5386 9.01986 52.477 9.04898 52.423 9.08944C52.3691 9.1299 52.3239 9.18085 52.2901 9.23924C52.2564 9.29762 52.2348 9.36222 52.2267 9.42917C52.2185 9.49611 52.224 9.564 52.2428 9.62877C52.2616 9.69353 52.2933 9.75383 52.336 9.80602C52.3787 9.85822 52.4315 9.90124 52.4913 9.9325L54.6712 11.1912C53.9784 12.527 53.5831 13.9969 53.5125 15.5H51C50.8674 15.5 50.7402 15.5527 50.6464 15.6464C50.5527 15.7402 50.5 15.8674 50.5 16C50.5 16.1326 50.5527 16.2598 50.6464 16.3536C50.7402 16.4473 50.8674 16.5 51 16.5H53.5125C53.5831 18.0031 53.9784 19.473 54.6712 20.8088L52.4913 22.0675C52.3962 22.1226 52.3219 22.2076 52.28 22.3092C52.238 22.4107 52.2307 22.5233 52.2592 22.6295C52.2876 22.7356 52.3503 22.8295 52.4374 22.8964C52.5246 22.9634 52.6313 22.9998 52.7413 23C52.8291 23.0004 52.9155 22.9771 52.9913 22.9325L55.1725 21.6737C55.9874 22.9374 57.0626 24.0126 58.3263 24.8275L57.0675 27.0088C57.0013 27.1235 56.9834 27.2598 57.0176 27.3877C57.0518 27.5157 57.1354 27.6249 57.25 27.6912C57.3647 27.7574 57.501 27.7754 57.629 27.7412C57.757 27.707 57.8661 27.6234 57.9325 27.5088L59.1912 25.3288C60.527 26.0216 61.9969 26.4169 63.5 26.4875V29C63.5 29.1326 63.5527 29.2598 63.6464 29.3536C63.7402 29.4473 63.8674 29.5 64 29.5C64.1326 29.5 64.2598 29.4473 64.3536 29.3536C64.4473 29.2598 64.5 29.1326 64.5 29V26.4875C66.0031 26.4169 67.473 26.0216 68.8088 25.3288L70.0675 27.5088C70.1367 27.6176 70.2452 27.6955 70.3705 27.7262C70.4958 27.7568 70.628 27.7379 70.7397 27.6734C70.8513 27.6089 70.9337 27.5037 70.9697 27.3798C71.0056 27.256 70.9923 27.123 70.9325 27.0088L69.6737 24.8275C70.9374 24.0126 72.0126 22.9374 72.8275 21.6737L75.0088 22.9325C75.0845 22.9771 75.1709 23.0004 75.2588 23C75.3687 22.9998 75.4754 22.9634 75.5626 22.8964C75.6497 22.8295 75.7124 22.7356 75.7408 22.6295C75.7693 22.5233 75.762 22.4107 75.72 22.3092C75.6781 22.2076 75.6038 22.1226 75.5088 22.0675L73.3288 20.8088C74.0216 19.473 74.4169 18.0031 74.4875 16.5H77C77.1326 16.5 77.2598 16.4473 77.3536 16.3536C77.4473 16.2598 77.5 16.1326 77.5 16C77.5 15.8674 77.4473 15.7402 77.3536 15.6464C77.2598 15.5527 77.1326 15.5 77 15.5ZM64 6.5C66.4321 6.50288 68.7707 7.43732 70.5351 9.11126C72.2994 10.7852 73.3555 13.0714 73.4862 15.5H64.2887L59.6912 7.5375C61.0249 6.85496 62.5018 6.49935 64 6.5ZM54.5 16C54.5011 14.4177 54.8973 12.8607 55.6528 11.4704C56.4083 10.0801 57.4992 8.90049 58.8263 8.03875L63.4225 16L58.8263 23.9613C57.4992 23.0995 56.4083 21.9199 55.6528 20.5296C54.8973 19.1393 54.5011 17.5823 54.5 16ZM64 25.5C62.5018 25.5007 61.0249 25.145 59.6912 24.4625L64.2887 16.5H73.4862C73.3555 18.9286 72.2994 21.2148 70.5351 22.8887C68.7707 24.5627 66.4321 25.4971 64 25.5Z" fill="currentColor"/>
<path d="M125 15.25H122.721C122.626 13.8735 122.266 12.5283 121.66 11.2887L123.634 10.15C123.806 10.0505 123.932 9.88668 123.984 9.69445C124.035 9.50223 124.008 9.29739 123.909 9.125C123.809 8.95261 123.645 8.82679 123.453 8.77522C123.261 8.72364 123.056 8.75054 122.884 8.85L120.909 9.99C120.136 8.84817 119.152 7.86433 118.01 7.09125L119.15 5.11625C119.249 4.94386 119.276 4.73902 119.225 4.5468C119.173 4.35457 119.047 4.19071 118.875 4.09125C118.703 3.99179 118.498 3.96489 118.306 4.01647C118.113 4.06804 117.949 4.19386 117.85 4.36625L116.711 6.34C115.472 5.73404 114.127 5.37366 112.75 5.27875V3C112.75 2.80109 112.671 2.61032 112.53 2.46967C112.39 2.32902 112.199 2.25 112 2.25C111.801 2.25 111.61 2.32902 111.47 2.46967C111.329 2.61032 111.25 2.80109 111.25 3V5.27875C109.873 5.37366 108.528 5.73404 107.289 6.34L106.15 4.36625C106.051 4.19386 105.887 4.06804 105.694 4.01647C105.502 3.96489 105.297 3.99179 105.125 4.09125C104.953 4.19071 104.827 4.35457 104.775 4.5468C104.724 4.73902 104.751 4.94386 104.85 5.11625L105.99 7.09125C104.848 7.86433 103.864 8.84817 103.091 9.99L101.116 8.85C100.944 8.75054 100.739 8.72364 100.547 8.77522C100.355 8.82679 100.191 8.95261 100.091 9.125C99.9918 9.29739 99.9649 9.50223 100.016 9.69445C100.068 9.88668 100.194 10.0505 100.366 10.15L102.34 11.2887C101.734 12.5283 101.374 13.8735 101.279 15.25H99C98.8011 15.25 98.6103 15.329 98.4697 15.4697C98.329 15.6103 98.25 15.8011 98.25 16C98.25 16.1989 98.329 16.3897 98.4697 16.5303C98.6103 16.671 98.8011 16.75 99 16.75H101.279C101.374 18.1265 101.734 19.4717 102.34 20.7113L100.366 21.85C100.194 21.9495 100.068 22.1133 100.016 22.3055C99.9649 22.4978 99.9918 22.7026 100.091 22.875C100.191 23.0474 100.355 23.1732 100.547 23.2248C100.739 23.2764 100.944 23.2495 101.116 23.15L103.091 22.01C103.864 23.1518 104.848 24.1357 105.99 24.9088L104.85 26.8838C104.801 26.9691 104.769 27.0633 104.756 27.161C104.743 27.2587 104.75 27.358 104.775 27.4532C104.801 27.5484 104.845 27.6376 104.905 27.7158C104.965 27.7939 105.04 27.8595 105.125 27.9088C105.21 27.958 105.305 27.9899 105.402 28.0028C105.5 28.0156 105.599 28.0091 105.694 27.9835C105.79 27.958 105.879 27.914 105.957 27.8539C106.035 27.7939 106.101 27.7191 106.15 27.6338L107.289 25.66C108.528 26.266 109.873 26.6263 111.25 26.7213V29C111.25 29.1989 111.329 29.3897 111.47 29.5303C111.61 29.671 111.801 29.75 112 29.75C112.199 29.75 112.39 29.671 112.53 29.5303C112.671 29.3897 112.75 29.1989 112.75 29V26.7213C114.127 26.6263 115.472 26.266 116.711 25.66L117.85 27.6338C117.916 27.748 118.011 27.8429 118.125 27.9087C118.24 27.9745 118.369 28.0091 118.501 28.0088C118.633 28.0089 118.762 27.974 118.876 27.9075C119.048 27.8081 119.174 27.6445 119.226 27.4525C119.277 27.2606 119.25 27.056 119.151 26.8838L118.011 24.9088C119.153 24.1357 120.137 23.1518 120.91 22.01L122.885 23.15C122.97 23.1992 123.065 23.2312 123.162 23.244C123.26 23.2569 123.359 23.2503 123.454 23.2248C123.55 23.1992 123.639 23.1552 123.717 23.0952C123.795 23.0352 123.861 22.9604 123.91 22.875C123.959 22.7896 123.991 22.6954 124.004 22.5977C124.017 22.5 124.01 22.4007 123.985 22.3055C123.959 22.2104 123.915 22.1211 123.855 22.043C123.795 21.9648 123.72 21.8992 123.635 21.85L121.661 20.7113C122.267 19.4716 122.627 18.1264 122.721 16.75H125C125.199 16.75 125.39 16.671 125.53 16.5303C125.671 16.3897 125.75 16.1989 125.75 16C125.75 15.8011 125.671 15.6103 125.53 15.4697C125.39 15.329 125.199 15.25 125 15.25ZM106.75 23.605C105.518 22.7556 104.511 21.6197 103.815 20.295C103.12 18.9702 102.756 17.4963 102.756 16C102.756 14.5037 103.12 13.0298 103.815 11.705C104.511 10.3803 105.518 9.24437 106.75 8.395L111.134 16L106.75 23.605ZM112 25.25C110.63 25.2513 109.278 24.9464 108.041 24.3575L112.433 16.75H121.218C121.027 19.0645 119.973 21.2227 118.266 22.7971C116.559 24.3714 114.322 25.2469 112 25.25ZM112.433 15.25L108.041 7.6425C109.393 7.001 110.881 6.69735 112.376 6.75764C113.871 6.81793 115.33 7.24035 116.626 7.98861C117.922 8.73688 119.017 9.7886 119.816 11.0534C120.616 12.3183 121.097 13.7584 121.218 15.25H112.433Z" fill="currentColor"/>
<path d="M173 14.5H171.403C171.273 13.5028 171.011 12.5273 170.625 11.5988L172.01 10.7987C172.184 10.7023 172.338 10.572 172.461 10.4155C172.585 10.2591 172.676 10.0796 172.729 9.88761C172.782 9.69558 172.797 9.49486 172.772 9.29717C172.747 9.09948 172.682 8.90877 172.583 8.73619C172.483 8.56362 172.35 8.41263 172.191 8.29205C172.033 8.17147 171.852 8.08372 171.659 8.03391C171.466 7.98411 171.265 7.97326 171.067 8.00199C170.87 8.03072 170.681 8.09846 170.51 8.20125L169.125 9C168.512 8.20257 167.797 7.48825 167 6.875L167.801 5.48625C167.904 5.31552 167.972 5.12602 168.001 4.92882C168.029 4.73161 168.018 4.53066 167.969 4.3377C167.919 4.14474 167.831 3.96363 167.71 3.80497C167.59 3.6463 167.439 3.51325 167.266 3.41359C167.094 3.31393 166.903 3.24966 166.705 3.22453C166.508 3.1994 166.307 3.21392 166.115 3.26723C165.923 3.32055 165.743 3.41159 165.587 3.53504C165.431 3.6585 165.3 3.81188 165.204 3.98625L164.401 5.375C163.473 4.98887 162.497 4.72743 161.5 4.5975V3C161.5 2.60218 161.342 2.22064 161.061 1.93934C160.779 1.65804 160.398 1.5 160 1.5C159.602 1.5 159.221 1.65804 158.939 1.93934C158.658 2.22064 158.5 2.60218 158.5 3V4.5975C157.503 4.72743 156.527 4.98887 155.599 5.375L154.799 3.99C154.596 3.65324 154.269 3.40952 153.889 3.31129C153.508 3.21305 153.104 3.26815 152.764 3.46473C152.423 3.6613 152.174 3.98365 152.068 4.3624C151.963 4.74116 152.011 5.14607 152.201 5.49L153 6.875C152.203 7.48825 151.488 8.20257 150.875 9L149.491 8.20125C149.147 8.01092 148.742 7.96319 148.364 8.06835C147.985 8.17351 147.663 8.42315 147.466 8.76356C147.269 9.10396 147.214 9.50793 147.313 9.88854C147.411 10.2692 147.654 10.596 147.991 10.7987L149.375 11.5988C148.989 12.5273 148.727 13.5028 148.597 14.5H147C146.602 14.5 146.221 14.658 145.939 14.9393C145.658 15.2206 145.5 15.6022 145.5 16C145.5 16.3978 145.658 16.7794 145.939 17.0607C146.221 17.342 146.602 17.5 147 17.5H148.597C148.727 18.4972 148.989 19.4727 149.375 20.4013L147.99 21.2013C147.816 21.2977 147.662 21.428 147.539 21.5845C147.415 21.7409 147.324 21.9204 147.271 22.1124C147.218 22.3044 147.203 22.5051 147.228 22.7028C147.253 22.9005 147.318 23.0912 147.417 23.2638C147.517 23.4364 147.65 23.5874 147.809 23.708C147.967 23.8285 148.148 23.9163 148.341 23.9661C148.534 24.0159 148.735 24.0267 148.933 23.998C149.13 23.9693 149.319 23.9015 149.49 23.7987L150.875 23C151.488 23.7974 152.203 24.5118 153 25.125L152.199 26.5138C152.096 26.6845 152.028 26.874 151.999 27.0712C151.971 27.2684 151.982 27.4693 152.031 27.6623C152.081 27.8553 152.169 28.0364 152.29 28.195C152.41 28.3537 152.561 28.4867 152.734 28.5864C152.906 28.6861 153.097 28.7503 153.295 28.7755C153.492 28.8006 153.693 28.7861 153.885 28.7328C154.077 28.6795 154.257 28.5884 154.413 28.465C154.569 28.3415 154.7 28.1881 154.796 28.0138L155.599 26.625C156.527 27.0111 157.503 27.2726 158.5 27.4025V29C158.5 29.3978 158.658 29.7794 158.939 30.0607C159.221 30.342 159.602 30.5 160 30.5C160.398 30.5 160.779 30.342 161.061 30.0607C161.342 29.7794 161.5 29.3978 161.5 29V27.4025C162.497 27.2726 163.473 27.0111 164.401 26.625L165.201 28.01C165.404 28.3468 165.731 28.5905 166.111 28.6887C166.492 28.7869 166.896 28.7318 167.236 28.5353C167.577 28.3387 167.826 28.0164 167.932 27.6376C168.037 27.2588 167.989 26.8539 167.799 26.51L167 25.125C167.797 24.5118 168.512 23.7974 169.125 23L170.514 23.8013C170.684 23.904 170.874 23.9718 171.071 24.0005C171.268 24.0292 171.469 24.0184 171.662 23.9686C171.855 23.9188 172.036 23.831 172.195 23.7104C172.354 23.5899 172.487 23.4389 172.586 23.2663C172.686 23.0937 172.75 22.903 172.775 22.7053C172.801 22.5076 172.786 22.3069 172.733 22.1149C172.679 21.9229 172.588 21.7434 172.465 21.587C172.342 21.4305 172.188 21.3002 172.014 21.2038L170.625 20.4013C171.011 19.4727 171.273 18.4972 171.403 17.5H173C173.398 17.5 173.779 17.342 174.061 17.0607C174.342 16.7794 174.5 16.3978 174.5 16C174.5 15.6022 174.342 15.2206 174.061 14.9393C173.779 14.658 173.398 14.5 173 14.5ZM160 7.5C161.993 7.50282 163.922 8.20503 165.451 9.48422C166.98 10.7634 168.011 12.5385 168.365 14.5H160.865L157.115 8C158.04 7.66675 159.017 7.49754 160 7.5ZM151.5 16C151.5 14.7633 151.77 13.5416 152.292 12.4204C152.814 11.2991 153.574 10.3054 154.52 9.50875L158.27 16L154.52 22.4912C153.574 21.6946 152.814 20.7009 152.292 19.5796C151.77 18.4584 151.5 17.2367 151.5 16ZM160 24.5C159.017 24.5023 158.041 24.3331 157.116 24L160.866 17.5H168.366C168.012 19.4617 166.981 21.237 165.452 22.5162C163.923 23.7954 161.993 24.4975 160 24.5Z" fill="currentColor"/>
<path d="M221 15H219.958C219.841 13.574 219.467 12.1808 218.855 10.8875L219.759 10.3663C219.988 10.2336 220.156 10.0152 220.225 9.75898C220.294 9.50276 220.258 9.22974 220.125 9C219.992 8.77026 219.774 8.6026 219.518 8.53392C219.262 8.46523 218.988 8.50114 218.759 8.63375L217.853 9.1575C217.035 7.98452 216.015 6.96548 214.843 6.1475L215.366 5.24125C215.499 5.01151 215.535 4.73849 215.466 4.48227C215.397 4.22605 215.23 4.00761 215 3.875C214.77 3.74239 214.497 3.70648 214.241 3.77517C213.985 3.84385 213.766 4.01151 213.634 4.24125L213.112 5.145C211.819 4.53292 210.426 4.15943 209 4.0425V3C209 2.73478 208.895 2.48043 208.707 2.29289C208.52 2.10536 208.265 2 208 2C207.735 2 207.48 2.10536 207.293 2.29289C207.105 2.48043 207 2.73478 207 3V4.0425C205.574 4.15943 204.181 4.53292 202.887 5.145L202.366 4.24125C202.234 4.01151 202.015 3.84385 201.759 3.77517C201.503 3.70648 201.23 3.74239 201 3.875C200.77 4.00761 200.603 4.22605 200.534 4.48227C200.465 4.73849 200.501 5.01151 200.634 5.24125L201.158 6.1475C199.985 6.96548 198.965 7.98452 198.148 9.1575L197.241 8.63375C197.127 8.56809 197.002 8.52548 196.872 8.50835C196.741 8.49122 196.609 8.49991 196.482 8.53392C196.226 8.6026 196.008 8.77026 195.875 9C195.742 9.22974 195.706 9.50276 195.775 9.75898C195.844 10.0152 196.012 10.2336 196.241 10.3663L197.145 10.8875C196.533 12.1808 196.159 13.574 196.043 15H195C194.735 15 194.48 15.1054 194.293 15.2929C194.105 15.4804 194 15.7348 194 16C194 16.2652 194.105 16.5196 194.293 16.7071C194.48 16.8946 194.735 17 195 17H196.043C196.159 18.426 196.533 19.8192 197.145 21.1125L196.241 21.6338C196.05 21.7438 195.901 21.9137 195.817 22.1171C195.733 22.3205 195.718 22.5461 195.775 22.7588C195.832 22.9715 195.958 23.1594 196.132 23.2935C196.307 23.4275 196.521 23.5001 196.741 23.5C196.917 23.5005 197.089 23.4544 197.241 23.3662L198.148 22.8425C198.965 24.0155 199.985 25.0345 201.158 25.8525L200.634 26.7588C200.501 26.9885 200.465 27.2615 200.534 27.5177C200.603 27.7739 200.77 27.9924 201 28.125C201.23 28.2576 201.503 28.2935 201.759 28.2248C202.015 28.1561 202.234 27.9885 202.366 27.7588L202.887 26.855C204.181 27.4671 205.574 27.8406 207 27.9575V29C207 29.2652 207.105 29.5196 207.293 29.7071C207.48 29.8946 207.735 30 208 30C208.265 30 208.52 29.8946 208.707 29.7071C208.895 29.5196 209 29.2652 209 29V27.9575C210.426 27.8406 211.819 27.4671 213.112 26.855L213.634 27.7588C213.766 27.9885 213.985 28.1561 214.241 28.2248C214.497 28.2935 214.77 28.2576 215 28.125C215.23 27.9924 215.397 27.774 215.466 27.5177C215.535 27.2615 215.499 26.9885 215.366 26.7588L214.843 25.8525C216.015 25.0345 217.035 24.0155 217.853 22.8425L218.759 23.3662C218.873 23.4319 218.998 23.4746 219.128 23.4917C219.259 23.5089 219.391 23.5002 219.518 23.4662C219.645 23.4321 219.764 23.3735 219.868 23.2935C219.972 23.2135 220.059 23.1138 220.125 23C220.258 22.7704 220.294 22.4975 220.225 22.2413C220.157 21.9851 219.99 21.7665 219.76 21.6338L218.856 21.1125C219.468 19.8192 219.842 18.426 219.959 17H221C221.265 17 221.52 16.8946 221.707 16.7071C221.895 16.5196 222 16.2652 222 16C222 15.7348 221.895 15.4804 221.707 15.2929C221.52 15.1054 221.265 15 221 15ZM201 16C200.999 14.9406 201.24 13.895 201.703 12.9422C202.166 11.9894 202.839 11.1543 203.672 10.5L206.845 16L203.672 21.5C202.839 20.8457 202.166 20.0106 201.703 19.0578C201.24 18.105 200.999 17.0594 201 16ZM208 23C207.11 23.0009 206.228 22.8312 205.403 22.5L208.577 17H214.927C214.685 18.6649 213.852 20.187 212.58 21.2885C211.308 22.39 209.682 22.9975 208 23ZM208.577 15L205.403 9.5C206.386 9.10719 207.445 8.94256 208.502 9.01852C209.558 9.09447 210.583 9.40903 211.5 9.93851C212.417 10.468 213.202 11.1986 213.795 12.0753C214.389 12.952 214.776 13.952 214.927 15H208.577Z" fill="currentColor"/>
<path opacity="0.2" d="M266 16C266 17.9778 265.414 19.9112 264.315 21.5557C263.216 23.2002 261.654 24.4819 259.827 25.2388C258 25.9957 255.989 26.1937 254.049 25.8079C252.109 25.422 250.327 24.4696 248.929 23.0711C247.53 21.6725 246.578 19.8907 246.192 17.9509C245.806 16.0111 246.004 14.0004 246.761 12.1732C247.518 10.3459 248.8 8.78412 250.444 7.6853C252.089 6.58649 254.022 6 256 6C258.652 6 261.196 7.05357 263.071 8.92893C264.946 10.8043 266 13.3478 266 16Z" fill="currentColor"/>
<path d="M269 15H266.954C266.841 13.75 266.514 12.5287 265.986 11.39L267.759 10.3663C267.988 10.2336 268.156 10.0152 268.225 9.75898C268.294 9.50276 268.258 9.22974 268.125 9C267.992 8.77026 267.774 8.6026 267.518 8.53392C267.262 8.46523 266.988 8.50114 266.759 8.63375L264.984 9.65875C264.259 8.63487 263.365 7.74137 262.341 7.01625L263.366 5.24125C263.499 5.01151 263.535 4.73849 263.466 4.48227C263.397 4.22605 263.23 4.00761 263 3.875C262.77 3.74239 262.497 3.70648 262.241 3.77517C261.985 3.84385 261.766 4.01151 261.634 4.24125L260.61 6.01375C259.471 5.48598 258.25 5.15868 257 5.04625V3C257 2.73478 256.895 2.48043 256.707 2.29289C256.52 2.10536 256.265 2 256 2C255.735 2 255.48 2.10536 255.293 2.29289C255.105 2.48043 255 2.73478 255 3V5.04625C253.75 5.15868 252.529 5.48598 251.39 6.01375L250.366 4.24125C250.301 4.12749 250.213 4.02778 250.109 3.94781C250.005 3.86784 249.886 3.80917 249.759 3.77517C249.632 3.74116 249.5 3.73247 249.37 3.7496C249.239 3.76673 249.114 3.80934 249 3.875C248.77 4.00761 248.603 4.22605 248.534 4.48227C248.465 4.73849 248.501 5.01151 248.634 5.24125L249.659 7.01625C248.635 7.74137 247.741 8.63487 247.016 9.65875L245.241 8.63375C245.012 8.50114 244.738 8.46523 244.482 8.53392C244.226 8.6026 244.008 8.77026 243.875 9C243.742 9.22974 243.706 9.50276 243.775 9.75898C243.844 10.0152 244.012 10.2336 244.241 10.3663L246.014 11.39C245.486 12.5287 245.159 13.75 245.046 15H243C242.735 15 242.48 15.1054 242.293 15.2929C242.105 15.4804 242 15.7348 242 16C242 16.2652 242.105 16.5196 242.293 16.7071C242.48 16.8946 242.735 17 243 17H245.046C245.159 18.25 245.486 19.4713 246.014 20.61L244.241 21.6338C244.05 21.7438 243.901 21.9137 243.817 22.1171C243.733 22.3205 243.718 22.5461 243.775 22.7588C243.832 22.9715 243.958 23.1594 244.132 23.2935C244.307 23.4275 244.521 23.5001 244.741 23.5C244.917 23.5005 245.089 23.4544 245.241 23.3662L247.016 22.3412C247.741 23.3651 248.635 24.2586 249.659 24.9837L248.634 26.7588C248.501 26.9885 248.465 27.2615 248.534 27.5177C248.603 27.7739 248.77 27.9924 249 28.125C249.23 28.2576 249.503 28.2935 249.759 28.2248C250.015 28.1561 250.234 27.9885 250.366 27.7588L251.39 25.9862C252.529 26.514 253.75 26.8413 255 26.9538V29C255 29.2652 255.105 29.5196 255.293 29.7071C255.48 29.8946 255.735 30 256 30C256.265 30 256.52 29.8946 256.707 29.7071C256.895 29.5196 257 29.2652 257 29V26.9538C258.25 26.8413 259.471 26.514 260.61 25.9862L261.634 27.7588C261.766 27.9885 261.985 28.1561 262.241 28.2248C262.497 28.2935 262.77 28.2576 263 28.125C263.23 27.9924 263.397 27.774 263.466 27.5177C263.535 27.2615 263.499 26.9885 263.366 26.7588L262.341 24.9837C263.365 24.2586 264.259 23.3651 264.984 22.3412L266.759 23.3662C266.873 23.4319 266.998 23.4746 267.128 23.4917C267.259 23.5089 267.391 23.5002 267.518 23.4662C267.645 23.4321 267.764 23.3735 267.868 23.2935C267.972 23.2135 268.059 23.1138 268.125 23C268.258 22.7704 268.294 22.4975 268.225 22.2413C268.157 21.9851 267.99 21.7665 267.76 21.6338L265.987 20.61C266.515 19.4712 266.842 18.25 266.954 17H269C269.265 17 269.52 16.8946 269.707 16.7071C269.895 16.5196 270 16.2652 270 16C270 15.7348 269.895 15.4804 269.707 15.2929C269.52 15.1054 269.265 15 269 15ZM250.664 23.2425C249.528 22.4072 248.604 21.3164 247.968 20.0583C247.331 18.8002 247 17.41 247 16C247 14.59 247.331 13.1998 247.968 11.9417C248.604 10.6836 249.528 9.59281 250.664 8.7575L254.845 16L250.664 23.2425ZM256 25C254.759 25.0026 253.532 24.7472 252.395 24.25L256.577 17H264.942C264.694 19.1989 263.646 21.2297 261.997 22.7051C260.347 24.1805 258.213 24.9974 256 25ZM256.577 15L252.395 7.75625C253.687 7.19005 255.094 6.93577 256.503 7.01398C257.911 7.09219 259.282 7.50068 260.503 8.20645C261.725 8.91221 262.763 9.89545 263.534 11.0767C264.305 12.2579 264.788 13.6041 264.942 15.0063L256.577 15Z" fill="currentColor"/>
</g>
<defs>
<clipPath id="clip0_17_14351">
<rect width="272" height="32" rx="5" fill="white"/>
</clipPath>
</defs>
</svg>
