<svg width="272" height="32" viewBox="0 0 272 32" fill="none" xmlns="http://www.w3.org/2000/svg">
<g clip-path="url(#clip0_17_14309)">
<path d="M27 6H5C4.46957 6 3.96086 6.21071 3.58579 6.58579C3.21071 6.96086 3 7.46957 3 8V24C3 24.5304 3.21071 25.0391 3.58579 25.4142C3.96086 25.7893 4.46957 26 5 26H27C27.5304 26 28.0391 25.7893 28.4142 25.4142C28.7893 25.0391 29 24.5304 29 24V8C29 7.46957 28.7893 6.96086 28.4142 6.58579C28.0391 6.21071 27.5304 6 27 6ZM13 18V14H19V18H13ZM19 20V24H13V20H19ZM5 14H11V18H5V14ZM13 12V8H19V12H13ZM21 14H27V18H21V14ZM27 12H21V8H27V12ZM11 8V12H5V8H11ZM5 20H11V24H5V20ZM27 24H21V20H27V24Z" fill="currentColor"/>
<path d="M75 6.5H53C52.6022 6.5 52.2206 6.65804 51.9393 6.93934C51.658 7.22064 51.5 7.60218 51.5 8V24C51.5 24.3978 51.658 24.7794 51.9393 25.0607C52.2206 25.342 52.6022 25.5 53 25.5H75C75.3978 25.5 75.7794 25.342 76.0607 25.0607C76.342 24.7794 76.5 24.3978 76.5 24V8C76.5 7.60218 76.342 7.22064 76.0607 6.93934C75.7794 6.65804 75.3978 6.5 75 6.5ZM60.5 18.5V13.5H67.5V18.5H60.5ZM67.5 19.5V24.5H60.5V19.5H67.5ZM52.5 13.5H59.5V18.5H52.5V13.5ZM60.5 12.5V7.5H67.5V12.5H60.5ZM68.5 13.5H75.5V18.5H68.5V13.5ZM75.5 8V12.5H68.5V7.5H75C75.1326 7.5 75.2598 7.55268 75.3536 7.64645C75.4473 7.74021 75.5 7.86739 75.5 8ZM53 7.5H59.5V12.5H52.5V8C52.5 7.86739 52.5527 7.74021 52.6464 7.64645C52.7402 7.55268 52.8674 7.5 53 7.5ZM52.5 24V19.5H59.5V24.5H53C52.8674 24.5 52.7402 24.4473 52.6464 24.3536C52.5527 24.2598 52.5 24.1326 52.5 24ZM75 24.5H68.5V19.5H75.5V24C75.5 24.1326 75.4473 24.2598 75.3536 24.3536C75.2598 24.4473 75.1326 24.5 75 24.5Z" fill="currentColor"/>
<path d="M123 6.25H101C100.536 6.25 100.091 6.43437 99.7626 6.76256C99.4344 7.09075 99.25 7.53587 99.25 8V24C99.25 24.4641 99.4344 24.9092 99.7626 25.2374C100.091 25.5656 100.536 25.75 101 25.75H123C123.464 25.75 123.909 25.5656 124.237 25.2374C124.566 24.9092 124.75 24.4641 124.75 24V8C124.75 7.53587 124.566 7.09075 124.237 6.76256C123.909 6.43437 123.464 6.25 123 6.25ZM108.75 18.25V13.75H115.25V18.25H108.75ZM115.25 19.75V24.25H108.75V19.75H115.25ZM100.75 13.75H107.25V18.25H100.75V13.75ZM108.75 12.25V7.75H115.25V12.25H108.75ZM116.75 13.75H123.25V18.25H116.75V13.75ZM123.25 8V12.25H116.75V7.75H123C123.066 7.75 123.13 7.77634 123.177 7.82322C123.224 7.87011 123.25 7.9337 123.25 8ZM101 7.75H107.25V12.25H100.75V8C100.75 7.9337 100.776 7.87011 100.823 7.82322C100.87 7.77634 100.934 7.75 101 7.75ZM100.75 24V19.75H107.25V24.25H101C100.934 24.25 100.87 24.2237 100.823 24.1768C100.776 24.1299 100.75 24.0663 100.75 24ZM123 24.25H116.75V19.75H123.25V24C123.25 24.0663 123.224 24.1299 123.177 24.1768C123.13 24.2237 123.066 24.25 123 24.25Z" fill="currentColor"/>
<path d="M171 5.5H149C148.337 5.5 147.701 5.76339 147.232 6.23223C146.763 6.70107 146.5 7.33696 146.5 8V24C146.5 24.663 146.763 25.2989 147.232 25.7678C147.701 26.2366 148.337 26.5 149 26.5H171C171.663 26.5 172.299 26.2366 172.768 25.7678C173.237 25.2989 173.5 24.663 173.5 24V8C173.5 7.33696 173.237 6.70107 172.768 6.23223C172.299 5.76339 171.663 5.5 171 5.5ZM157.5 17.5V14.5H162.5V17.5H157.5ZM162.5 20.5V23.5H157.5V20.5H162.5ZM149.5 14.5H154.5V17.5H149.5V14.5ZM157.5 11.5V8.5H162.5V11.5H157.5ZM165.5 14.5H170.5V17.5H165.5V14.5ZM170.5 11.5H165.5V8.5H170.5V11.5ZM154.5 8.5V11.5H149.5V8.5H154.5ZM149.5 20.5H154.5V23.5H149.5V20.5ZM165.5 23.5V20.5H170.5V23.5H165.5Z" fill="currentColor"/>
<path d="M202.5 6.5V11.5H195.5C195.367 11.5 195.24 11.4473 195.146 11.3536C195.053 11.2598 195 11.1326 195 11V8C195 7.46957 195.211 6.96086 195.586 6.58579C195.961 6.21071 196.47 6 197 6H202C202.133 6 202.26 6.05268 202.354 6.14645C202.447 6.24021 202.5 6.36739 202.5 6.5ZM204.5 25.5C204.5 25.6326 204.553 25.7598 204.646 25.8536C204.74 25.9473 204.867 26 205 26H211C211.133 26 211.26 25.9473 211.354 25.8536C211.447 25.7598 211.5 25.6326 211.5 25.5V20.5H204.5V25.5ZM195 21V24C195 24.5304 195.211 25.0391 195.586 25.4142C195.961 25.7893 196.47 26 197 26H202C202.133 26 202.26 25.9473 202.354 25.8536C202.447 25.7598 202.5 25.6326 202.5 25.5V20.5H195.5C195.367 20.5 195.24 20.5527 195.146 20.6464C195.053 20.7402 195 20.8674 195 21ZM195 14V18C195 18.1326 195.053 18.2598 195.146 18.3536C195.24 18.4473 195.367 18.5 195.5 18.5H202.5V13.5H195.5C195.367 13.5 195.24 13.5527 195.146 13.6464C195.053 13.7402 195 13.8674 195 14ZM211 6H205C204.867 6 204.74 6.05268 204.646 6.14645C204.553 6.24021 204.5 6.36739 204.5 6.5V11.5H211.5V6.5C211.5 6.36739 211.447 6.24021 211.354 6.14645C211.26 6.05268 211.133 6 211 6ZM220.5 13.5H213.5V18.5H220.5C220.633 18.5 220.76 18.4473 220.854 18.3536C220.947 18.2598 221 18.1326 221 18V14C221 13.8674 220.947 13.7402 220.854 13.6464C220.76 13.5527 220.633 13.5 220.5 13.5ZM204.5 18.5H211.5V13.5H204.5V18.5ZM219 6H214C213.867 6 213.74 6.05268 213.646 6.14645C213.553 6.24021 213.5 6.36739 213.5 6.5V11.5H220.5C220.633 11.5 220.76 11.4473 220.854 11.3536C220.947 11.2598 221 11.1326 221 11V8C221 7.46957 220.789 6.96086 220.414 6.58579C220.039 6.21071 219.53 6 219 6ZM220.5 20.5H213.5V25.5C213.5 25.6326 213.553 25.7598 213.646 25.8536C213.74 25.9473 213.867 26 214 26H219C219.53 26 220.039 25.7893 220.414 25.4142C220.789 25.0391 221 24.5304 221 24V21C221 20.8674 220.947 20.7402 220.854 20.6464C220.76 20.5527 220.633 20.5 220.5 20.5Z" fill="currentColor"/>
<path opacity="0.2" d="M268 8V24C268 24.2652 267.895 24.5196 267.707 24.7071C267.52 24.8946 267.265 25 267 25H245C244.735 25 244.48 24.8946 244.293 24.7071C244.105 24.5196 244 24.2652 244 24V8C244 7.73478 244.105 7.48043 244.293 7.29289C244.48 7.10536 244.735 7 245 7H267C267.265 7 267.52 7.10536 267.707 7.29289C267.895 7.48043 268 7.73478 268 8Z" fill="currentColor"/>
<path d="M267 6H245C244.47 6 243.961 6.21071 243.586 6.58579C243.211 6.96086 243 7.46957 243 8V24C243 24.5304 243.211 25.0391 243.586 25.4142C243.961 25.7893 244.47 26 245 26H267C267.53 26 268.039 25.7893 268.414 25.4142C268.789 25.0391 269 24.5304 269 24V8C269 7.46957 268.789 6.96086 268.414 6.58579C268.039 6.21071 267.53 6 267 6ZM253 18V14H259V18H253ZM259 20V24H253V20H259ZM245 14H251V18H245V14ZM253 12V8H259V12H253ZM261 14H267V18H261V14ZM267 12H261V8H267V12ZM251 8V12H245V8H251ZM245 20H251V24H245V20ZM267 24H261V20H267V24Z" fill="currentColor"/>
</g>
<defs>
<clipPath id="clip0_17_14309">
<rect width="272" height="32" rx="5" fill="white"/>
</clipPath>
</defs>
</svg>
