<svg width="272" height="32" viewBox="0 0 272 32" fill="none" xmlns="http://www.w3.org/2000/svg">
<g clip-path="url(#clip0_17_14225)">
<path d="M27 5H5C4.46957 5 3.96086 5.21071 3.58579 5.58579C3.21071 5.96086 3 6.46957 3 7V25C3 25.5304 3.21071 26.0391 3.58579 26.4142C3.96086 26.7893 4.46957 27 5 27H27C27.5304 27 28.0391 26.7893 28.4142 26.4142C28.7893 26.0391 29 25.5304 29 25V7C29 6.46957 28.7893 5.96086 28.4142 5.58579C28.0391 5.21071 27.5304 5 27 5ZM27 7V12H5V7H27ZM5 14H12V25H5V14ZM27 25H14V14H27V25Z" fill="currentColor"/>
<path d="M75 5.5H53C52.6022 5.5 52.2206 5.65804 51.9393 5.93934C51.658 6.22064 51.5 6.60218 51.5 7V25C51.5 25.3978 51.658 25.7794 51.9393 26.0607C52.2206 26.342 52.6022 26.5 53 26.5H75C75.3978 26.5 75.7794 26.342 76.0607 26.0607C76.342 25.7794 76.5 25.3978 76.5 25V7C76.5 6.60218 76.342 6.22064 76.0607 5.93934C75.7794 5.65804 75.3978 5.5 75 5.5ZM53 6.5H75C75.1326 6.5 75.2598 6.55268 75.3536 6.64645C75.4473 6.74021 75.5 6.86739 75.5 7V12.5H52.5V7C52.5 6.86739 52.5527 6.74021 52.6464 6.64645C52.7402 6.55268 52.8674 6.5 53 6.5ZM52.5 25V13.5H60.5V25.5H53C52.8674 25.5 52.7402 25.4473 52.6464 25.3536C52.5527 25.2598 52.5 25.1326 52.5 25ZM75 25.5H61.5V13.5H75.5V25C75.5 25.1326 75.4473 25.2598 75.3536 25.3536C75.2598 25.4473 75.1326 25.5 75 25.5Z" fill="currentColor"/>
<path d="M123 5.25H101C100.536 5.25 100.091 5.43437 99.7626 5.76256C99.4344 6.09075 99.25 6.53587 99.25 7V25C99.25 25.4641 99.4344 25.9092 99.7626 26.2374C100.091 26.5656 100.536 26.75 101 26.75H123C123.464 26.75 123.909 26.5656 124.237 26.2374C124.566 25.9092 124.75 25.4641 124.75 25V7C124.75 6.53587 124.566 6.09075 124.237 5.76256C123.909 5.43437 123.464 5.25 123 5.25ZM101 6.75H123C123.066 6.75 123.13 6.77634 123.177 6.82322C123.224 6.87011 123.25 6.9337 123.25 7V12.25H100.75V7C100.75 6.9337 100.776 6.87011 100.823 6.82322C100.87 6.77634 100.934 6.75 101 6.75ZM100.75 25V13.75H108.25V25.25H101C100.934 25.25 100.87 25.2237 100.823 25.1768C100.776 25.1299 100.75 25.0663 100.75 25ZM123 25.25H109.75V13.75H123.25V25C123.25 25.0663 123.224 25.1299 123.177 25.1768C123.13 25.2237 123.066 25.25 123 25.25Z" fill="currentColor"/>
<path d="M171 4.5H149C148.337 4.5 147.701 4.76339 147.232 5.23223C146.763 5.70107 146.5 6.33696 146.5 7V25C146.5 25.663 146.763 26.2989 147.232 26.7678C147.701 27.2366 148.337 27.5 149 27.5H171C171.663 27.5 172.299 27.2366 172.768 26.7678C173.237 26.2989 173.5 25.663 173.5 25V7C173.5 6.33696 173.237 5.70107 172.768 5.23223C172.299 4.76339 171.663 4.5 171 4.5ZM170.5 7.5V11.5H149.5V7.5H170.5ZM149.5 14.5H155.5V24.5H149.5V14.5ZM158.5 24.5V14.5H170.5V24.5H158.5Z" fill="currentColor"/>
<path d="M219 5H197C196.47 5 195.961 5.21071 195.586 5.58579C195.211 5.96086 195 6.46957 195 7V25C195 25.5304 195.211 26.0391 195.586 26.4142C195.961 26.7893 196.47 27 197 27H219C219.53 27 220.039 26.7893 220.414 26.4142C220.789 26.0391 221 25.5304 221 25V7C221 6.46957 220.789 5.96086 220.414 5.58579C220.039 5.21071 219.53 5 219 5ZM197 7H219V12H197V7ZM219 25H206V14H219V25Z" fill="currentColor"/>
<path opacity="0.2" d="M253 13V26H245C244.735 26 244.48 25.8946 244.293 25.7071C244.105 25.5196 244 25.2652 244 25V13H253Z" fill="currentColor"/>
<path d="M267 5H245C244.47 5 243.961 5.21071 243.586 5.58579C243.211 5.96086 243 6.46957 243 7V25C243 25.5304 243.211 26.0391 243.586 26.4142C243.961 26.7893 244.47 27 245 27H267C267.53 27 268.039 26.7893 268.414 26.4142C268.789 26.0391 269 25.5304 269 25V7C269 6.46957 268.789 5.96086 268.414 5.58579C268.039 5.21071 267.53 5 267 5ZM267 7V12H245V7H267ZM245 14H252V25H245V14ZM267 25H254V14H267V25Z" fill="currentColor"/>
</g>
<defs>
<clipPath id="clip0_17_14225">
<rect width="272" height="32" rx="5" fill="white"/>
</clipPath>
</defs>
</svg>
