<svg width="272" height="32" viewBox="0 0 272 32" fill="none" xmlns="http://www.w3.org/2000/svg">
<g clip-path="url(#clip0_17_14197)">
<path d="M29.83 4.16994C29.4586 3.79841 29.0176 3.50369 28.5322 3.30262C28.0469 3.10154 27.5266 2.99805 27.0013 2.99805C26.4759 2.99805 25.9557 3.10154 25.4703 3.30262C24.985 3.50369 24.544 3.79841 24.1725 4.16994C23.801 4.54139 23.5063 4.98239 23.3052 5.46775C23.1041 5.95311 23.0006 6.47333 23.0006 6.99869C23.0006 7.52406 23.1041 8.04428 23.3052 8.52964C23.5063 9.015 23.801 9.456 24.1725 9.82744C24.2088 9.86369 24.2475 9.89869 24.285 9.93369L20.9563 16.1162C19.9414 15.8687 18.8701 16.0256 17.9688 16.5537L15.4463 14.0312C15.9425 13.1924 16.1155 12.2013 15.9327 11.244C15.7499 10.2867 15.2238 9.42912 14.4534 8.83225C13.683 8.23539 12.7211 7.94034 11.7485 8.00252C10.7759 8.0647 9.85945 8.47983 9.17128 9.16994C8.79975 9.54139 8.50503 9.98239 8.30395 10.4677C8.10288 10.9531 7.99939 11.4733 7.99939 11.9987C7.99939 12.5241 8.10288 13.0443 8.30395 13.5296C8.50503 14.015 8.79975 14.456 9.17128 14.8274C9.20753 14.8637 9.24503 14.8987 9.28253 14.9337L5.95378 21.1174C5.28561 20.953 4.58631 20.9637 3.92348 21.1485C3.26066 21.3333 2.65671 21.686 2.17003 22.1724C1.61071 22.7319 1.22984 23.4446 1.07557 24.2205C0.921306 24.9964 1.00057 25.8006 1.30335 26.5315C1.60613 27.2623 2.11882 27.887 2.77659 28.3265C3.43437 28.766 4.20769 29.0005 4.99878 29.0005C5.78987 29.0005 6.56319 28.766 7.22097 28.3265C7.87874 27.887 8.39143 27.2623 8.69421 26.5315C8.99699 25.8006 9.07626 24.9964 8.92199 24.2205C8.76772 23.4446 8.38685 22.7319 7.82753 22.1724C7.79128 22.1362 7.75253 22.1012 7.71503 22.0662L11.0438 15.8837C11.3568 15.9603 11.6778 15.9994 12 15.9999C12.7142 16.0008 13.4155 15.8105 14.0313 15.4487L16.5538 17.9712C16.174 18.6157 15.9826 19.3538 16.0013 20.1016C16.0199 20.8495 16.248 21.5771 16.6594 22.2018C17.0708 22.8266 17.6492 23.3235 18.3289 23.636C19.0086 23.9485 19.7622 24.0642 20.5043 23.9699C21.2464 23.8756 21.9472 23.575 22.5271 23.1024C23.107 22.6298 23.5427 22.0041 23.7848 21.2963C24.0269 20.5884 24.0656 19.8269 23.8966 19.0982C23.7276 18.3695 23.3577 17.7027 22.8288 17.1737C22.7925 17.1374 22.755 17.1024 22.7175 17.0674L26.0463 10.8849C26.3585 10.9611 26.6787 10.9997 27 10.9999C27.791 10.9998 28.5642 10.7652 29.2218 10.3258C29.8795 9.8863 30.3921 9.26173 30.6948 8.531C30.9976 7.80028 31.0769 6.99619 30.9227 6.2204C30.7686 5.4446 30.3879 4.73192 29.8288 4.17244L29.83 4.16994ZM6.41253 26.4162C6.03725 26.7913 5.52832 27.002 4.99771 27.0019C4.4671 27.0017 3.95827 26.7908 3.58316 26.4156C3.20804 26.0403 2.99737 25.5314 2.99749 25.0008C2.9976 24.4701 3.2085 23.9613 3.58378 23.5862C3.7696 23.4005 3.99019 23.2531 4.23294 23.1526C4.4757 23.0522 4.73587 23.0005 4.9986 23.0005C5.26133 23.0006 5.52148 23.0524 5.76419 23.153C6.0069 23.2536 6.22742 23.401 6.41316 23.5868C6.59889 23.7726 6.74621 23.9932 6.8467 24.236C6.94719 24.4787 6.99888 24.7389 6.99883 25.0016C6.99877 25.2644 6.94696 25.5245 6.84636 25.7672C6.74577 26.0099 6.59835 26.2305 6.41253 26.4162ZM10.585 13.4162C10.3993 13.2305 10.2519 13.01 10.1514 12.7673C10.0508 12.5246 9.99908 12.2645 9.99908 12.0018C9.99908 11.7391 10.0508 11.479 10.1514 11.2363C10.2519 10.9937 10.3993 10.7732 10.585 10.5874C10.8648 10.3078 11.2211 10.1173 11.6091 10.0402C11.997 9.96308 12.3991 10.0027 12.7646 10.1541C13.13 10.3055 13.4423 10.5618 13.6621 10.8907C13.8818 11.2196 13.9991 11.6063 13.9991 12.0018C13.9991 12.3974 13.8818 12.784 13.6621 13.1129C13.4423 13.4418 13.13 13.6981 12.7646 13.8495C12.3991 14.0009 11.997 14.0406 11.6091 13.9634C11.2211 13.8863 10.8648 13.6959 10.585 13.4162ZM21.415 21.4162C21.0399 21.7913 20.5311 22.002 20.0007 22.002C19.4702 22.002 18.9614 21.7913 18.5863 21.4162C18.2112 21.0411 18.0004 20.5323 18.0004 20.0018C18.0004 19.4713 18.2112 18.9626 18.5863 18.5874C18.9614 18.2123 19.4702 18.0016 20.0007 18.0016C20.5311 18.0016 21.0399 18.2123 21.415 18.5874C21.7901 18.9626 22.0009 19.4713 22.0009 20.0018C22.0009 20.5323 21.7901 21.0411 21.415 21.4162ZM28.415 8.41619C28.0394 8.79114 27.5302 9.00152 26.9995 9.00105C26.4688 9.00059 25.96 8.78931 25.585 8.41369C25.2101 8.03808 24.9997 7.5289 25.0002 6.99818C25.0006 6.46745 25.2119 5.95864 25.5875 5.58369C25.7733 5.39795 25.9939 5.25063 26.2367 5.15015C26.4794 5.04966 26.7396 4.99796 27.0023 4.99802C27.2651 4.99808 27.5252 5.04989 27.7679 5.15048C28.0106 5.25108 28.2312 5.3985 28.4169 5.58432C28.6026 5.77014 28.75 5.99072 28.8505 6.23348C28.9509 6.47623 29.0026 6.7364 29.0026 6.99913C29.0025 7.26187 28.9507 7.52201 28.8501 7.76472C28.7495 8.00743 28.6021 8.22795 28.4163 8.41369L28.415 8.41619Z" fill="currentColor"/>
<path d="M77.4763 4.52379C77.1513 4.19874 76.7654 3.9409 76.3408 3.76499C75.9161 3.58908 75.4609 3.49854 75.0013 3.49854C74.5416 3.49854 74.0865 3.58908 73.6618 3.76499C73.2371 3.9409 72.8513 4.19874 72.5263 4.52379C72.2012 4.8488 71.9434 5.23465 71.7675 5.65931C71.5916 6.08398 71.501 6.53913 71.501 6.99879C71.501 7.45844 71.5916 7.9136 71.7675 8.33826C71.9434 8.76293 72.2012 9.14878 72.5263 9.47379C72.6481 9.59674 72.7793 9.71 72.9188 9.81254L69.2025 16.7138C68.6559 16.5148 68.0683 16.4549 67.4927 16.5393C66.9171 16.6238 66.3715 16.85 65.905 17.1975L62.8025 14.095C63.3324 13.3864 63.5743 12.5034 63.4794 11.6237C63.3845 10.7439 62.9599 9.93278 62.2911 9.35346C61.6222 8.77414 60.7588 8.46964 59.8746 8.50124C58.9903 8.53285 58.1508 8.8982 57.525 9.52379C57.169 9.87968 56.894 10.3082 56.7186 10.7801C56.5433 11.252 56.4718 11.7561 56.5091 12.2581C56.5463 12.7601 56.6914 13.2482 56.9345 13.6891C57.1776 14.1299 57.5129 14.5131 57.9175 14.8125L54.2 21.715C53.5736 21.4859 52.8948 21.4406 52.2435 21.5843C51.5922 21.728 50.9956 22.0548 50.5238 22.5263C50.0343 23.0158 49.701 23.6394 49.566 24.3184C49.431 24.9973 49.5003 25.701 49.7652 26.3405C50.0302 26.98 50.4788 27.5266 51.0543 27.9112C51.6299 28.2958 52.3066 28.501 52.9988 28.501C53.691 28.501 54.3677 28.2958 54.9432 27.9112C55.5188 27.5266 55.9674 26.98 56.2323 26.3405C56.4972 25.701 56.5666 24.9973 56.4316 24.3184C56.2965 23.6394 55.9632 23.0158 55.4738 22.5263C55.3513 22.404 55.2201 22.2908 55.0813 22.1875L58.7975 15.2863C59.3441 15.4861 59.9318 15.5466 60.5076 15.4621C61.0833 15.3776 61.6289 15.1509 62.095 14.8025L65.1975 17.905C64.7827 18.4601 64.542 19.1257 64.5058 19.8177C64.4696 20.5096 64.6396 21.1967 64.9943 21.792C65.349 22.3872 65.8724 22.8638 66.4982 23.1613C67.124 23.4588 67.824 23.5639 68.5095 23.4632C69.1951 23.3626 69.8353 23.0607 70.3491 22.5958C70.863 22.131 71.2272 21.5241 71.3958 20.852C71.5644 20.1799 71.5297 19.4729 71.2962 18.8206C71.0626 18.1682 70.6406 17.5999 70.0838 17.1875L73.8 10.285C74.5485 10.5582 75.3677 10.5678 76.1223 10.3123C76.8769 10.0568 77.5218 9.55145 77.9504 8.87983C78.3789 8.20821 78.5655 7.41047 78.4793 6.61844C78.3931 5.82641 78.0393 5.08749 77.4763 4.52379ZM54.7663 26.7738C54.4167 27.1235 53.9712 27.3617 53.4863 27.4582C53.0013 27.5547 52.4986 27.5053 52.0417 27.3161C51.5849 27.1269 51.1944 26.8064 50.9196 26.3953C50.6449 25.9842 50.4982 25.5008 50.4982 25.0063C50.4982 24.5118 50.6449 24.0284 50.9196 23.6173C51.1944 23.2061 51.5849 22.8857 52.0417 22.6965C52.4986 22.5073 53.0013 22.4579 53.4863 22.5544C53.9712 22.6509 54.4167 22.8891 54.7663 23.2388C55.2334 23.7074 55.4958 24.3421 55.4958 25.0038C55.4958 25.6655 55.2334 26.3002 54.7663 26.7688V26.7738ZM58.2313 13.7738C57.8818 13.4241 57.6437 12.9787 57.5474 12.4937C57.451 12.0088 57.5006 11.5062 57.6898 11.0494C57.8791 10.5927 58.1995 10.2023 58.6106 9.92763C59.0217 9.65298 59.505 9.50638 59.9994 9.50638C60.4938 9.50638 60.9771 9.65298 61.3882 9.92763C61.7993 10.2023 62.1198 10.5927 62.309 11.0494C62.4983 11.5062 62.5478 12.0088 62.4514 12.4937C62.3551 12.9787 62.1171 13.4241 61.7675 13.7738C61.535 14.0056 61.259 14.1894 60.9554 14.3145C60.6518 14.4397 60.3265 14.5038 59.9981 14.5033C59.6697 14.5027 59.3447 14.4374 59.0415 14.3112C58.7383 14.1849 58.463 14.0002 58.2313 13.7675V13.7738ZM69.7688 21.7738C69.4191 22.1233 68.9736 22.3613 68.4887 22.4577C68.0038 22.5541 67.5012 22.5045 67.0444 22.3153C66.5877 22.126 66.1973 21.8056 65.9226 21.3945C65.648 20.9834 65.5014 20.5001 65.5014 20.0057C65.5014 19.5113 65.648 19.0279 65.9226 18.6168C66.1973 18.2057 66.5877 17.8853 67.0444 17.6961C67.5012 17.5068 68.0038 17.4572 68.4887 17.5536C68.9736 17.65 69.4191 17.888 69.7688 18.2375C70.2363 18.7062 70.4989 19.3412 70.4989 20.0032C70.4989 20.6652 70.2363 21.3001 69.7688 21.7688V21.7738ZM76.7688 8.77379C76.4191 9.12332 75.9736 9.36132 75.4887 9.4577C75.0038 9.55408 74.5012 9.50451 74.0444 9.31526C73.5877 9.12602 73.1973 8.80558 72.9226 8.39448C72.648 7.98338 72.5014 7.50007 72.5014 7.00566C72.5014 6.51125 72.648 6.02794 72.9226 5.61684C73.1973 5.20574 73.5877 4.88531 74.0444 4.69606C74.5012 4.50681 75.0038 4.45724 75.4887 4.55363C75.9736 4.65001 76.4191 4.88801 76.7688 5.23754C77.2359 5.70615 77.4983 6.34085 77.4983 7.00254C77.4983 7.66422 77.2359 8.29892 76.7688 8.76754V8.77379Z" fill="currentColor"/>
<path d="M125.654 4.34634C124.949 3.6444 123.996 3.25024 123.001 3.25024C122.007 3.25024 121.053 3.6444 120.349 4.34634C119.647 5.05065 119.253 6.00447 119.253 6.99884C119.253 7.99321 119.647 8.94704 120.349 9.65134C120.43 9.73134 120.514 9.80634 120.599 9.87759L117.081 16.4101C116.554 16.2529 115.999 16.213 115.455 16.2934C114.911 16.3737 114.392 16.5723 113.933 16.8751L111.125 14.0676C111.635 13.2925 111.84 12.3558 111.7 11.4385C111.559 10.5212 111.084 9.68856 110.365 9.10147C109.647 8.51438 108.736 8.21458 107.809 8.26005C106.882 8.30551 106.005 8.693 105.348 9.34759C104.999 9.69582 104.723 10.1092 104.534 10.5643C104.346 11.0193 104.249 11.507 104.249 11.9995C104.249 12.492 104.346 12.9797 104.534 13.4347C104.723 13.8897 104.999 14.3031 105.348 14.6513C105.427 14.7314 105.51 14.8074 105.598 14.8788L102.08 21.4113C101.431 21.2156 100.741 21.1993 100.084 21.3644C99.4262 21.5295 98.8258 21.8697 98.3463 22.3488C97.8221 22.8734 97.4652 23.5416 97.3207 24.2689C97.1762 24.9963 97.2506 25.7502 97.5345 26.4353C97.8184 27.1203 98.299 27.7059 98.9156 28.1178C99.5323 28.5298 100.257 28.7496 100.999 28.7496C101.74 28.7496 102.465 28.5298 103.082 28.1178C103.699 27.7059 104.179 27.1203 104.463 26.4353C104.747 25.7502 104.821 24.9963 104.677 24.2689C104.532 23.5416 104.175 22.8734 103.651 22.3488C103.57 22.2688 103.486 22.1938 103.401 22.1226L106.919 15.5901C107.446 15.7477 108.001 15.7877 108.545 15.7073C109.089 15.627 109.609 15.4282 110.068 15.1251L112.875 17.9326C112.484 18.5245 112.269 19.2153 112.255 19.9246C112.24 20.634 112.428 21.3328 112.795 21.9399C113.162 22.547 113.694 23.0376 114.328 23.3546C114.963 23.6716 115.675 23.802 116.381 23.7307C117.086 23.6595 117.758 23.3894 118.316 22.9519C118.875 22.5144 119.298 21.9275 119.536 21.2592C119.774 20.591 119.818 19.8688 119.662 19.1766C119.507 18.4845 119.158 17.8507 118.656 17.3488C118.577 17.2688 118.493 17.1928 118.406 17.1213L121.924 10.5888C122.724 10.8301 123.581 10.7972 124.361 10.4955C125.14 10.1938 125.796 9.64049 126.225 8.92342C126.654 8.20636 126.831 7.36659 126.728 6.53739C126.625 5.70818 126.248 4.93705 125.658 4.34634H125.654ZM102.59 26.5963C102.275 26.9109 101.874 27.1252 101.438 27.2119C101.002 27.2987 100.549 27.2541 100.138 27.0838C99.727 26.9134 99.3756 26.625 99.1284 26.2551C98.8812 25.8851 98.7493 25.4501 98.7493 25.0051C98.7493 24.5601 98.8812 24.1251 99.1284 23.7551C99.3756 23.3851 99.727 23.0968 100.138 22.9264C100.549 22.7561 101.002 22.7115 101.438 22.7983C101.874 22.885 102.275 23.0992 102.59 23.4138C103.011 23.8357 103.247 24.4073 103.247 25.0032C103.247 25.5992 103.011 26.1708 102.59 26.5926V26.5963ZM106.409 13.5963C106.094 13.2816 105.88 12.8807 105.793 12.4443C105.706 12.0079 105.751 11.5555 105.921 11.1444C106.092 10.7333 106.38 10.382 106.75 10.1348C107.12 9.88756 107.555 9.75561 108 9.75561C108.445 9.75561 108.88 9.88756 109.25 10.1348C109.62 10.382 109.908 10.7333 110.079 11.1444C110.249 11.5555 110.294 12.0079 110.207 12.4443C110.12 12.8807 109.906 13.2816 109.591 13.5963C109.382 13.805 109.134 13.9704 108.86 14.0831C108.587 14.1958 108.295 14.2536 107.999 14.2531C107.703 14.2527 107.411 14.194 107.138 14.0804C106.865 13.9669 106.617 13.8007 106.409 13.5913V13.5963ZM117.591 21.5963C117.277 21.9109 116.876 22.1252 116.439 22.2119C116.003 22.2987 115.55 22.2541 115.139 22.0838C114.728 21.9134 114.377 21.625 114.13 21.2551C113.882 20.8851 113.751 20.4501 113.751 20.0051C113.751 19.5601 113.882 19.1251 114.13 18.7551C114.377 18.3851 114.728 18.0968 115.139 17.9264C115.55 17.7561 116.003 17.7115 116.439 17.7983C116.876 17.885 117.277 18.0992 117.591 18.4138C118.012 18.8356 118.248 19.407 118.248 20.0026C118.248 20.5982 118.012 21.1696 117.591 21.5913V21.5963ZM124.591 8.59634C124.277 8.91094 123.876 9.12516 123.439 9.21192C123.003 9.29867 122.55 9.25407 122.139 9.08375C121.728 8.91343 121.377 8.62505 121.13 8.25505C120.882 7.88506 120.751 7.45007 120.751 7.00509C120.751 6.56012 120.882 6.12513 121.13 5.75514C121.377 5.38514 121.728 5.09675 122.139 4.92644C122.55 4.75612 123.003 4.71152 123.439 4.79827C123.876 4.88503 124.277 5.09925 124.591 5.41384C125.012 5.8354 125.248 6.40638 125.248 7.00171C125.248 7.59705 125.013 8.16821 124.593 8.59009L124.591 8.59634Z" fill="currentColor"/>
<path d="M174.184 3.81634C173.766 3.39832 173.27 3.06672 172.724 2.84049C172.177 2.61425 171.592 2.4978 171.001 2.4978C170.41 2.4978 169.825 2.61425 169.279 2.84049C168.733 3.06672 168.237 3.39832 167.819 3.81634C167.003 4.6346 166.532 5.73495 166.504 6.89014C166.476 8.04534 166.893 9.16713 167.669 10.0238L164.69 15.5563C163.796 15.4182 162.882 15.5519 162.065 15.9401L160.065 13.9401C160.524 12.982 160.63 11.8923 160.363 10.8638C160.096 9.83529 159.474 8.9344 158.607 8.32063C157.739 7.70686 156.683 7.41981 155.624 7.51031C154.566 7.60081 153.573 8.06302 152.822 8.81509C152.005 9.63244 151.533 10.7331 151.505 11.8888C151.477 13.0446 151.895 14.1667 152.672 15.0226L149.687 20.5563C148.988 20.447 148.272 20.5044 147.599 20.7238C146.925 20.9431 146.313 21.3183 145.812 21.8188C145.19 22.4417 144.764 23.2335 144.587 24.0963C144.41 24.959 144.49 25.8547 144.817 26.6724C145.144 27.49 145.704 28.1936 146.428 28.6961C147.151 29.1985 148.006 29.4777 148.886 29.499C149.767 29.5203 150.634 29.2827 151.381 28.8158C152.127 28.3489 152.721 27.6732 153.087 26.8723C153.453 26.0714 153.577 25.1806 153.442 24.3104C153.307 23.4401 152.919 22.6285 152.327 21.9763L155.306 16.4438C155.536 16.4809 155.768 16.4997 156 16.5001C156.671 16.5003 157.333 16.3508 157.939 16.0626L159.939 18.0626C159.587 18.7987 159.442 19.6165 159.519 20.4287C159.597 21.2408 159.893 22.0166 160.378 22.6731C160.862 23.3297 161.515 23.8422 162.268 24.156C163.021 24.4698 163.846 24.5729 164.653 24.4545C165.46 24.336 166.22 24.0004 166.851 23.4834C167.482 22.9665 167.96 22.2878 168.236 21.5198C168.511 20.7518 168.572 19.9235 168.413 19.1234C168.253 18.3233 167.879 17.5816 167.331 16.9776L170.312 11.4438C170.54 11.48 170.77 11.4988 171 11.5001C171.89 11.5 172.76 11.2362 173.5 10.7418C174.24 10.2474 174.816 9.54468 175.157 8.72255C175.498 7.90041 175.587 6.99573 175.413 6.12289C175.24 5.25006 174.812 4.44825 174.182 3.81884L174.184 3.81634ZM154.934 10.9413C155.215 10.6595 155.598 10.5012 155.996 10.5012C156.395 10.5012 156.777 10.6595 157.059 10.9413C157.34 11.2231 157.499 11.6053 157.499 12.0038C157.499 12.4024 157.34 12.7845 157.059 13.0663C156.777 13.3481 156.395 13.5064 155.996 13.5064C155.598 13.5064 155.215 13.3481 154.934 13.0663C154.652 12.7845 154.494 12.4024 154.494 12.0038C154.494 11.6053 154.652 11.2231 154.934 10.9413ZM150.059 26.0663C149.849 26.2756 149.581 26.4179 149.291 26.4754C149 26.5329 148.698 26.5028 148.425 26.3892C148.151 26.2755 147.917 26.0832 147.752 25.8367C147.588 25.5901 147.5 25.3003 147.5 25.0038C147.5 24.7074 147.588 24.4176 147.752 24.171C147.917 23.9245 148.151 23.7322 148.425 23.6185C148.698 23.5048 149 23.4748 149.291 23.5323C149.581 23.5897 149.849 23.7321 150.059 23.9413C150.34 24.2226 150.498 24.6042 150.498 25.002C150.498 25.3998 150.34 25.7813 150.059 26.0626V26.0663ZM165.059 21.0663C164.849 21.2756 164.581 21.4179 164.291 21.4754C164 21.5329 163.698 21.5028 163.425 21.3892C163.151 21.2755 162.917 21.0832 162.752 20.8367C162.588 20.5901 162.5 20.3003 162.5 20.0038C162.5 19.7074 162.588 19.4176 162.752 19.171C162.917 18.9245 163.151 18.7322 163.425 18.6185C163.698 18.5048 164 18.4748 164.291 18.5323C164.581 18.5897 164.849 18.7321 165.059 18.9413C165.34 19.2223 165.498 19.6033 165.499 20.0008C165.499 20.3983 165.342 20.7798 165.061 21.0613L165.059 21.0663ZM172.059 8.06634C171.849 8.2756 171.581 8.41794 171.291 8.4754C171 8.53286 170.698 8.50285 170.425 8.38916C170.151 8.27548 169.917 8.08322 169.752 7.83666C169.588 7.5901 169.5 7.30029 169.5 7.00384C169.5 6.70739 169.588 6.41759 169.752 6.17103C169.917 5.92447 170.151 5.73221 170.425 5.61852C170.698 5.50484 171 5.47483 171.291 5.53228C171.581 5.58974 171.849 5.73208 172.059 5.94134C172.34 6.22204 172.498 6.60275 172.499 6.99994C172.499 7.39714 172.342 7.7784 172.062 8.06009L172.059 8.06634Z" fill="currentColor"/>
<path d="M221.83 9.82747C221.459 10.1998 221.018 10.4951 220.532 10.6963C220.046 10.8975 219.526 11.0007 219 11C218.678 10.9998 218.358 10.9612 218.045 10.885L214.716 17.0675C214.754 17.1025 214.791 17.1375 214.828 17.1737C215.356 17.7027 215.726 18.3695 215.895 19.0982C216.064 19.827 216.026 20.5885 215.784 21.2963C215.541 22.0041 215.106 22.6298 214.526 23.1025C213.946 23.5751 213.245 23.8756 212.503 23.9699C211.761 24.0642 211.007 23.9485 210.328 23.636C209.648 23.3235 209.07 22.8266 208.658 22.2019C208.247 21.5771 208.019 20.8495 208 20.1017C207.981 19.3538 208.173 18.6157 208.553 17.9712L206.03 15.4487C205.415 15.8103 204.714 16.0006 204 16C203.678 16.0002 203.357 15.962 203.044 15.8862L199.715 22.0662C199.753 22.1012 199.791 22.1362 199.828 22.1725C200.387 22.7319 200.768 23.4446 200.922 24.2205C201.076 24.9964 200.997 25.8007 200.694 26.5315C200.391 27.2624 199.879 27.887 199.221 28.3265C198.563 28.766 197.79 29.0006 196.999 29.0006C196.208 29.0006 195.434 28.766 194.777 28.3265C194.119 27.887 193.606 27.2624 193.303 26.5315C193.001 25.8007 192.921 24.9964 193.076 24.2205C193.23 23.4446 193.611 22.7319 194.17 22.1725C194.657 21.686 195.261 21.3333 195.923 21.1485C196.586 20.9637 197.286 20.953 197.954 21.1175L201.283 14.935C201.245 14.9 201.208 14.865 201.171 14.8287C200.8 14.4573 200.505 14.0163 200.304 13.5309C200.103 13.0456 199.999 12.5253 199.999 12C199.999 11.4746 200.103 10.9544 200.304 10.469C200.505 9.98366 200.8 9.54267 201.171 9.17122C201.859 8.48111 202.776 8.06598 203.748 8.0038C204.721 7.94162 205.683 8.23667 206.453 8.83353C207.224 9.43039 207.75 10.288 207.933 11.2453C208.116 12.2026 207.943 13.1937 207.446 14.0325L209.969 16.555C210.87 16.0269 211.941 15.87 212.956 16.1175L216.285 9.93497C216.248 9.89997 216.209 9.86497 216.173 9.82872C215.801 9.45727 215.506 9.01628 215.305 8.53091C215.104 8.04555 215.001 7.52533 215.001 6.99997C215.001 6.4746 215.104 5.95439 215.305 5.46902C215.506 4.98366 215.801 4.54266 216.173 4.17122C216.923 3.42099 217.94 2.99951 219.001 2.99951C220.062 2.99951 221.08 3.42099 221.83 4.17122C222.58 4.92145 223.002 5.93898 223.002 6.99997C223.002 8.06096 222.58 9.07849 221.83 9.82872V9.82747Z" fill="currentColor"/>
<path opacity="0.2" d="M247.125 22.875C247.544 23.295 247.828 23.8295 247.943 24.4112C248.058 24.9929 247.998 25.5955 247.771 26.1431C247.543 26.6907 247.159 27.1586 246.666 27.4878C246.173 27.817 245.593 27.9926 245 27.9926C244.407 27.9926 243.827 27.817 243.334 27.4878C242.841 27.1586 242.457 26.6907 242.229 26.1431C242.002 25.5955 241.942 24.9929 242.057 24.4112C242.172 23.8295 242.456 23.295 242.875 22.875C243.154 22.5953 243.485 22.3734 243.85 22.222C244.214 22.0706 244.605 21.9926 245 21.9926C245.395 21.9926 245.786 22.0706 246.15 22.222C246.515 22.3734 246.846 22.5953 247.125 22.875ZM249.875 9.875C249.456 10.295 249.172 10.8295 249.057 11.4112C248.942 11.9929 249.002 12.5955 249.229 13.1431C249.457 13.6907 249.841 14.1586 250.334 14.4878C250.827 14.817 251.407 14.9926 252 14.9926C252.593 14.9926 253.173 14.817 253.666 14.4878C254.159 14.1586 254.543 13.6907 254.771 13.1431C254.998 12.5955 255.058 11.9929 254.943 11.4112C254.828 10.8295 254.544 10.295 254.125 9.875C253.846 9.59532 253.515 9.37341 253.15 9.22199C252.786 9.07058 252.395 8.99264 252 8.99264C251.605 8.99264 251.214 9.07058 250.85 9.22199C250.485 9.37341 250.154 9.59532 249.875 9.875ZM257.875 17.875C257.456 18.295 257.172 18.8295 257.057 19.4112C256.942 19.9929 257.002 20.5955 257.229 21.1431C257.457 21.6907 257.841 22.1586 258.334 22.4878C258.827 22.817 259.407 22.9926 260 22.9926C260.593 22.9926 261.173 22.817 261.666 22.4878C262.159 22.1586 262.543 21.6907 262.771 21.1431C262.998 20.5955 263.058 19.9929 262.943 19.4112C262.828 18.8295 262.544 18.295 262.125 17.875C261.846 17.5953 261.515 17.3734 261.15 17.222C260.786 17.0706 260.395 16.9926 260 16.9926C259.605 16.9926 259.214 17.0706 258.85 17.222C258.485 17.3734 258.154 17.5953 257.875 17.875ZM269.125 4.875C268.705 4.45649 268.17 4.1718 267.589 4.05689C267.007 3.94197 266.404 4.00199 265.857 4.22936C265.309 4.45673 264.841 4.84125 264.512 5.33437C264.183 5.82749 264.007 6.4071 264.007 7C264.007 7.5929 264.183 8.17251 264.512 8.66563C264.841 9.15875 265.309 9.54327 265.857 9.77064C266.404 9.99801 267.007 10.058 267.589 9.94312C268.17 9.8282 268.705 9.54352 269.125 9.125C269.405 8.84629 269.627 8.51511 269.778 8.15046C269.929 7.7858 270.007 7.39484 270.007 7C270.007 6.60516 269.929 6.2142 269.778 5.84955C269.627 5.48489 269.405 5.15371 269.125 4.875Z" fill="currentColor"/>
<path d="M269.83 4.16994C269.459 3.79841 269.018 3.50369 268.532 3.30262C268.047 3.10154 267.527 2.99805 267.001 2.99805C266.476 2.99805 265.956 3.10154 265.47 3.30262C264.985 3.50369 264.544 3.79841 264.173 4.16994C263.801 4.54139 263.506 4.98239 263.305 5.46775C263.104 5.95311 263.001 6.47333 263.001 6.99869C263.001 7.52406 263.104 8.04428 263.305 8.52964C263.506 9.015 263.801 9.456 264.173 9.82744C264.209 9.86369 264.248 9.89869 264.285 9.93369L260.956 16.1162C259.941 15.8687 258.87 16.0256 257.969 16.5537L255.446 14.0312C255.943 13.1924 256.116 12.2013 255.933 11.244C255.75 10.2867 255.224 9.42912 254.453 8.83225C253.683 8.23539 252.721 7.94034 251.748 8.00252C250.776 8.0647 249.859 8.47983 249.171 9.16994C248.8 9.54139 248.505 9.98239 248.304 10.4677C248.103 10.9531 247.999 11.4733 247.999 11.9987C247.999 12.5241 248.103 13.0443 248.304 13.5296C248.505 14.015 248.8 14.456 249.171 14.8274C249.208 14.8637 249.245 14.8987 249.283 14.9337L245.954 21.1174C245.286 20.953 244.586 20.9637 243.923 21.1485C243.261 21.3333 242.657 21.686 242.17 22.1724C241.611 22.7319 241.23 23.4446 241.076 24.2205C240.921 24.9964 241.001 25.8006 241.303 26.5315C241.606 27.2623 242.119 27.887 242.777 28.3265C243.434 28.766 244.208 29.0005 244.999 29.0005C245.79 29.0005 246.563 28.766 247.221 28.3265C247.879 27.887 248.391 27.2623 248.694 26.5315C248.997 25.8006 249.076 24.9964 248.922 24.2205C248.768 23.4446 248.387 22.7319 247.828 22.1724C247.791 22.1362 247.753 22.1012 247.715 22.0662L251.044 15.8837C251.357 15.9603 251.678 15.9994 252 15.9999C252.714 16.0008 253.416 15.8105 254.031 15.4487L256.554 17.9712C256.174 18.6157 255.983 19.3538 256.001 20.1016C256.02 20.8495 256.248 21.5771 256.659 22.2018C257.071 22.8266 257.649 23.3235 258.329 23.636C259.009 23.9485 259.762 24.0642 260.504 23.9699C261.246 23.8756 261.947 23.575 262.527 23.1024C263.107 22.6298 263.543 22.0041 263.785 21.2963C264.027 20.5884 264.066 19.8269 263.897 19.0982C263.728 18.3695 263.358 17.7027 262.829 17.1737C262.793 17.1374 262.755 17.1024 262.718 17.0674L266.046 10.8849C266.358 10.9611 266.679 10.9997 267 10.9999C267.791 10.9998 268.564 10.7652 269.222 10.3258C269.879 9.8863 270.392 9.26173 270.695 8.531C270.998 7.80028 271.077 6.99619 270.923 6.2204C270.769 5.4446 270.388 4.73192 269.829 4.17244L269.83 4.16994ZM246.413 26.4162C246.037 26.7913 245.528 27.002 244.998 27.0019C244.467 27.0017 243.958 26.7908 243.583 26.4156C243.208 26.0403 242.997 25.5314 242.997 25.0008C242.998 24.4701 243.208 23.9613 243.584 23.5862C243.77 23.4005 243.99 23.2531 244.233 23.1526C244.476 23.0522 244.736 23.0005 244.999 23.0005C245.261 23.0006 245.521 23.0524 245.764 23.153C246.007 23.2536 246.227 23.401 246.413 23.5868C246.599 23.7726 246.746 23.9932 246.847 24.236C246.947 24.4787 246.999 24.7389 246.999 25.0016C246.999 25.2644 246.947 25.5245 246.846 25.7672C246.746 26.0099 246.598 26.2305 246.413 26.4162ZM250.585 13.4162C250.399 13.2305 250.252 13.01 250.151 12.7673C250.051 12.5246 249.999 12.2645 249.999 12.0018C249.999 11.7391 250.051 11.479 250.151 11.2363C250.252 10.9937 250.399 10.7732 250.585 10.5874C250.865 10.3078 251.221 10.1173 251.609 10.0402C251.997 9.96308 252.399 10.0027 252.765 10.1541C253.13 10.3055 253.442 10.5618 253.662 10.8907C253.882 11.2196 253.999 11.6063 253.999 12.0018C253.999 12.3974 253.882 12.784 253.662 13.1129C253.442 13.4418 253.13 13.6981 252.765 13.8495C252.399 14.0009 251.997 14.0406 251.609 13.9634C251.221 13.8863 250.865 13.6959 250.585 13.4162ZM261.415 21.4162C261.04 21.7913 260.531 22.002 260.001 22.002C259.47 22.002 258.961 21.7913 258.586 21.4162C258.211 21.0411 258 20.5323 258 20.0018C258 19.4713 258.211 18.9626 258.586 18.5874C258.961 18.2123 259.47 18.0016 260.001 18.0016C260.531 18.0016 261.04 18.2123 261.415 18.5874C261.79 18.9626 262.001 19.4713 262.001 20.0018C262.001 20.5323 261.79 21.0411 261.415 21.4162ZM268.415 8.41619C268.039 8.79114 267.53 9.00152 267 9.00105C266.469 9.00059 265.96 8.78931 265.585 8.41369C265.21 8.03808 265 7.5289 265 6.99818C265.001 6.46745 265.212 5.95864 265.588 5.58369C265.773 5.39795 265.994 5.25063 266.237 5.15015C266.479 5.04966 266.74 4.99796 267.002 4.99802C267.265 4.99808 267.525 5.04989 267.768 5.15048C268.011 5.25108 268.231 5.3985 268.417 5.58432C268.603 5.77014 268.75 5.99072 268.85 6.23348C268.951 6.47623 269.003 6.7364 269.003 6.99913C269.003 7.26187 268.951 7.52201 268.85 7.76472C268.75 8.00743 268.602 8.22795 268.416 8.41369L268.415 8.41619Z" fill="currentColor"/>
</g>
<defs>
<clipPath id="clip0_17_14197">
<rect width="272" height="32" rx="5" fill="white"/>
</clipPath>
</defs>
</svg>
