<svg width="272" height="32" viewBox="0 0 272 32" fill="none" xmlns="http://www.w3.org/2000/svg">
<g clip-path="url(#clip0_17_14043)">
<path d="M30.6787 5.91375C30.4979 5.63296 30.2494 5.40211 29.9561 5.24245C29.6627 5.08278 29.334 4.99941 29 5H11.1012C10.716 4.99998 10.339 5.1112 10.0155 5.32031C9.69193 5.52941 9.43567 5.82751 9.27749 6.17875L1.17749 24.1788C1.04036 24.4833 0.98166 24.8173 1.00675 25.1503C1.03184 25.4833 1.13993 25.8047 1.32114 26.0852C1.50235 26.3658 1.75093 26.5964 2.04418 26.7562C2.33743 26.916 2.66603 26.9998 2.99999 27H20.8987C21.284 27 21.661 26.8888 21.9845 26.6797C22.3081 26.4706 22.5643 26.1725 22.7225 25.8213L30.8225 7.82125C30.9598 7.51661 31.0186 7.18241 30.9935 6.8492C30.9683 6.51599 30.8601 6.19438 30.6787 5.91375ZM20.8987 25H2.99999L11.1012 7H29L20.8987 25Z" fill="currentColor"/>
<path d="M78.2588 6.18502C78.1228 5.97488 77.9363 5.80212 77.7165 5.68247C77.4966 5.56283 77.2503 5.5001 77 5.50002H59.1013C58.811 5.49869 58.5266 5.58159 58.2826 5.73868C58.0385 5.89577 57.8453 6.12029 57.7263 6.38502L49.6263 24.385C49.5234 24.6139 49.4796 24.8649 49.4988 25.1151C49.5181 25.3653 49.5998 25.6067 49.7364 25.8171C49.8731 26.0275 50.0604 26.2003 50.2812 26.3196C50.5019 26.4389 50.7491 26.501 51 26.5H68.8988C69.1879 26.5001 69.471 26.4167 69.7138 26.2596C69.9567 26.1026 70.1489 25.8788 70.2675 25.615L78.3675 7.61502C78.4702 7.38654 78.5141 7.13597 78.4951 6.88618C78.4761 6.63639 78.3949 6.39533 78.2588 6.18502ZM77.455 7.20502L69.355 25.205C69.3155 25.2929 69.2514 25.3676 69.1705 25.4199C69.0895 25.4722 68.9952 25.5001 68.8988 25.5H51C50.9165 25.5 50.8343 25.4792 50.761 25.4393C50.6876 25.3994 50.6254 25.3418 50.58 25.2717C50.5347 25.2016 50.5076 25.1212 50.5012 25.038C50.4949 24.9547 50.5095 24.8712 50.5438 24.795L58.6438 6.79502C58.6834 6.7069 58.7477 6.63215 58.8288 6.5798C58.91 6.52745 59.0047 6.49973 59.1013 6.50002H77C77.0835 6.49998 77.1657 6.52086 77.2391 6.56075C77.3124 6.60063 77.3746 6.65826 77.42 6.72836C77.4654 6.79846 77.4924 6.87881 77.4988 6.96207C77.5051 7.04533 77.4905 7.12885 77.4563 7.20502H77.455Z" fill="currentColor"/>
<path d="M126.469 6.05001C126.31 5.80467 126.093 5.60293 125.836 5.46319C125.58 5.32346 125.292 5.25017 125 5.25001H107.101C106.763 5.24892 106.432 5.34572 106.148 5.52872C105.864 5.71172 105.639 5.9731 105.5 6.28126L97.4 24.2813C97.2798 24.5481 97.2285 24.8409 97.2506 25.1327C97.2728 25.4246 97.3679 25.7062 97.5271 25.9518C97.6862 26.1974 97.9045 26.3992 98.1618 26.5386C98.4191 26.6781 98.7073 26.7507 99 26.75H116.899C117.237 26.7511 117.568 26.6543 117.852 26.4713C118.136 26.2883 118.361 26.0269 118.5 25.7188L126.6 7.71876C126.719 7.45179 126.77 7.15918 126.747 6.86767C126.724 6.57617 126.628 6.29505 126.469 6.05001ZM125.228 7.10251L117.128 25.1025C117.108 25.1466 117.076 25.1839 117.035 25.2101C116.994 25.2363 116.947 25.2502 116.899 25.25H99C98.9582 25.2501 98.9171 25.2398 98.8803 25.2199C98.8435 25.2 98.8123 25.1712 98.7896 25.1361C98.7668 25.101 98.7532 25.0608 98.75 25.0191C98.7468 24.9775 98.7541 24.9356 98.7713 24.8975L106.875 6.89751C106.895 6.85384 106.926 6.81672 106.967 6.79058C107.007 6.76443 107.053 6.75035 107.101 6.75001H125C125.042 6.74989 125.083 6.76025 125.12 6.78015C125.157 6.80005 125.188 6.82885 125.21 6.86392C125.233 6.89899 125.247 6.9392 125.25 6.98088C125.253 7.02256 125.246 7.06438 125.229 7.10251H125.228Z" fill="currentColor"/>
<path d="M175.098 5.6425C174.872 5.29154 174.561 5.00298 174.195 4.80334C173.828 4.60371 173.417 4.4994 173 4.5H155.101C154.62 4.49994 154.148 4.63898 153.744 4.90043C153.339 5.16187 153.019 5.53459 152.821 5.97375L144.721 23.9738C144.55 24.3544 144.477 24.7719 144.508 25.1882C144.54 25.6045 144.675 26.0063 144.901 26.3569C145.128 26.7075 145.439 26.9958 145.805 27.1955C146.172 27.3952 146.583 27.4999 147 27.5H164.899C165.38 27.5001 165.852 27.361 166.256 27.0996C166.661 26.8381 166.981 26.4654 167.179 26.0263L175.279 8.02625C175.451 7.64567 175.525 7.22779 175.493 6.81118C175.462 6.39456 175.326 5.99264 175.098 5.6425ZM164.575 24.5H147.775L155.425 7.5H172.225L164.575 24.5Z" fill="currentColor"/>
<path d="M222.823 7.82125L214.723 25.8213C214.564 26.1725 214.308 26.4706 213.985 26.6797C213.661 26.8888 213.284 27 212.899 27H195C194.666 26.9998 194.338 26.916 194.044 26.7562C193.751 26.5964 193.502 26.3658 193.321 26.0852C193.14 25.8047 193.032 25.4833 193.007 25.1503C192.982 24.8173 193.04 24.4833 193.178 24.1787L201.278 6.17875C201.436 5.8275 201.692 5.52941 202.016 5.3203C202.339 5.1112 202.716 4.99997 203.101 5H221C221.334 4.99998 221.663 5.08363 221.956 5.24333C222.25 5.40303 222.499 5.63369 222.68 5.91424C222.861 6.19479 222.969 6.5163 222.995 6.84942C223.02 7.18254 222.961 7.51665 222.824 7.82125H222.823Z" fill="currentColor"/>
<path opacity="0.2" d="M269.911 7.41L261.811 25.41C261.732 25.5858 261.604 25.7351 261.442 25.8398C261.28 25.9444 261.091 26.0001 260.899 26H243C242.833 26.0001 242.669 25.9583 242.522 25.8785C242.375 25.7988 242.251 25.6835 242.16 25.5433C242.069 25.4031 242.015 25.2424 242.002 25.0759C241.99 24.9094 242.019 24.7423 242.087 24.59L250.187 6.59C250.267 6.41397 250.395 6.2646 250.557 6.15991C250.719 6.05522 250.908 5.99968 251.101 6H269C269.167 6.00014 269.331 6.04205 269.478 6.12191C269.624 6.20177 269.748 6.31704 269.839 6.45721C269.93 6.59739 269.984 6.758 269.996 6.92442C270.009 7.09084 269.98 7.25778 269.911 7.41Z" fill="currentColor"/>
<path d="M270.679 5.91375C270.498 5.63296 270.25 5.40211 269.956 5.24245C269.663 5.08278 269.334 4.99941 269 5H251.101C250.716 4.99998 250.339 5.1112 250.016 5.32031C249.692 5.52941 249.436 5.82751 249.278 6.17875L241.178 24.1788C241.04 24.4833 240.982 24.8173 241.007 25.1503C241.032 25.4833 241.14 25.8047 241.321 26.0852C241.502 26.3658 241.751 26.5964 242.044 26.7562C242.338 26.916 242.666 26.9998 243 27H260.899C261.284 27 261.661 26.8888 261.985 26.6797C262.308 26.4706 262.564 26.1725 262.723 25.8213L270.823 7.82125C270.96 7.51661 271.019 7.18241 270.994 6.8492C270.968 6.51599 270.86 6.19438 270.679 5.91375ZM260.899 25H243L251.101 7H269L260.899 25Z" fill="currentColor"/>
</g>
<defs>
<clipPath id="clip0_17_14043">
<rect width="272" height="32" rx="5" fill="white"/>
</clipPath>
</defs>
</svg>
