<svg width="272" height="32" viewBox="0 0 272 32" fill="none" xmlns="http://www.w3.org/2000/svg">
<g clip-path="url(#clip0_17_13931)">
<path d="M28.415 9.17144L22.8288 3.58644C22.643 3.40067 22.4225 3.25331 22.1799 3.15277C21.9372 3.05223 21.6771 3.00049 21.4144 3.00049C21.1517 3.00049 20.8916 3.05223 20.6489 3.15277C20.4062 3.25331 20.1857 3.40067 20 3.58644L4.58626 19.0002C4.39973 19.1852 4.25185 19.4055 4.15121 19.6482C4.05057 19.8909 3.99917 20.1512 4.00001 20.4139V26.0002C4.00001 26.5306 4.21072 27.0393 4.5858 27.4144C4.96087 27.7895 5.46958 28.0002 6.00001 28.0002H27C27.2652 28.0002 27.5196 27.8948 27.7071 27.7073C27.8947 27.5198 28 27.2654 28 27.0002C28 26.735 27.8947 26.4806 27.7071 26.2931C27.5196 26.1055 27.2652 26.0002 27 26.0002H14.415L28.415 12.0002C28.6008 11.8145 28.7481 11.594 28.8487 11.3513C28.9492 11.1086 29.001 10.8485 29.001 10.5858C29.001 10.3231 28.9492 10.063 28.8487 9.82034C28.7481 9.57766 28.6008 9.35716 28.415 9.17144ZM11.5863 26.0002H6.00001V20.4139L17 9.41394L22.5863 15.0002L11.5863 26.0002ZM24 13.5864L18.415 8.00019L21.415 5.00019L27 10.5864L24 13.5864Z" fill="currentColor"/>
<path d="M76.0613 9.52499L70.475 3.93874C70.3356 3.7989 70.1701 3.68795 69.9877 3.61224C69.8054 3.53653 69.6099 3.49756 69.4125 3.49756C69.2151 3.49756 69.0196 3.53653 68.8373 3.61224C68.6549 3.68795 68.4894 3.7989 68.35 3.93874L52.9387 19.3537C52.6578 19.635 52.5 20.0162 52.5 20.4137V26C52.5 26.3978 52.658 26.7793 52.9393 27.0606C53.2206 27.342 53.6022 27.5 54 27.5H75C75.1326 27.5 75.2598 27.4473 75.3536 27.3535C75.4473 27.2598 75.5 27.1326 75.5 27C75.5 26.8674 75.4473 26.7402 75.3536 26.6464C75.2598 26.5527 75.1326 26.5 75 26.5H61.2075L76.0613 11.6462C76.3425 11.3649 76.5006 10.9834 76.5006 10.5856C76.5006 10.1878 76.3425 9.80629 76.0613 9.52499ZM59.7925 26.5H54C53.8674 26.5 53.7402 26.4473 53.6464 26.3535C53.5527 26.2598 53.5 26.1326 53.5 26V20.4137C53.5002 20.2815 53.5528 20.1548 53.6462 20.0612L65 8.70749L71.2938 15L59.7925 26.5ZM75.3538 10.9387L72 14.2925L65.7075 7.99999L69.0613 4.64624C69.1077 4.59975 69.1628 4.56287 69.2235 4.53771C69.2842 4.51255 69.3493 4.4996 69.415 4.4996C69.4807 4.4996 69.5458 4.51255 69.6065 4.53771C69.6672 4.56287 69.7223 4.59975 69.7687 4.64624L75.3538 10.2325C75.4473 10.3262 75.4998 10.4532 75.4998 10.5856C75.4998 10.718 75.4473 10.845 75.3538 10.9387Z" fill="currentColor"/>
<path d="M124.239 9.34888L118.653 3.76263C118.49 3.6001 118.297 3.47118 118.085 3.38323C117.872 3.29527 117.645 3.25 117.415 3.25C117.185 3.25 116.958 3.29527 116.745 3.38323C116.533 3.47118 116.34 3.6001 116.178 3.76263L100.763 19.1764C100.6 19.3386 100.471 19.5315 100.383 19.7439C100.295 19.9563 100.25 20.184 100.25 20.4139V26.0001C100.25 26.4643 100.434 26.9094 100.763 27.2376C101.091 27.5658 101.536 27.7501 102 27.7501H123C123.199 27.7501 123.39 27.6711 123.53 27.5305C123.671 27.3898 123.75 27.199 123.75 27.0001C123.75 26.8012 123.671 26.6104 123.53 26.4698C123.39 26.3291 123.199 26.2501 123 26.2501H109.811L124.239 11.8239C124.401 11.6614 124.53 11.4684 124.618 11.2561C124.706 11.0438 124.751 10.8162 124.751 10.5864C124.751 10.3565 124.706 10.129 124.618 9.91664C124.53 9.70431 124.401 9.51138 124.239 9.34888ZM107.69 26.2501H102C101.934 26.2501 101.87 26.2238 101.823 26.1769C101.776 26.13 101.75 26.0664 101.75 26.0001V20.4139C101.75 20.3477 101.777 20.2843 101.824 20.2376L113 9.06138L118.94 15.0001L107.69 26.2501ZM123.178 10.7626L120 13.9401L114.061 8.00013L117.238 4.82388C117.261 4.80063 117.288 4.78219 117.319 4.76961C117.349 4.75703 117.382 4.75055 117.414 4.75055C117.447 4.75055 117.48 4.75703 117.51 4.76961C117.54 4.78219 117.568 4.80063 117.591 4.82388L123.178 10.4089C123.201 10.4321 123.219 10.4597 123.232 10.49C123.244 10.5204 123.251 10.5529 123.251 10.5858C123.251 10.6186 123.244 10.6511 123.232 10.6815C123.219 10.7118 123.201 10.7394 123.178 10.7626Z" fill="currentColor"/>
<path d="M172.769 8.81745L167.183 3.23245C166.714 2.76378 166.078 2.50049 165.415 2.50049C164.752 2.50049 164.116 2.76378 163.648 3.23245L148.233 18.6462C148 18.8777 147.815 19.1532 147.689 19.4566C147.563 19.76 147.499 20.0853 147.5 20.4137V26C147.5 26.663 147.763 27.2989 148.232 27.7677C148.701 28.2366 149.337 28.5 150 28.5H171C171.398 28.5 171.779 28.3419 172.061 28.0606C172.342 27.7793 172.5 27.3978 172.5 27C172.5 26.6021 172.342 26.2206 172.061 25.9393C171.779 25.658 171.398 25.5 171 25.5H159.625L172.769 12.3537C173.001 12.1215 173.185 11.8459 173.311 11.5425C173.437 11.2391 173.501 10.914 173.501 10.5856C173.501 10.2572 173.437 9.93202 173.311 9.62864C173.185 9.32526 173.001 9.04961 172.769 8.81745ZM155.375 25.5H150.5V20.625L161 10.125L165.875 15L155.375 25.5ZM168 12.875L163.125 7.99995L165.418 5.70745L170.293 10.5825L168 12.875Z" fill="currentColor"/>
<path d="M220.415 9.17144L214.829 3.58644C214.643 3.40067 214.423 3.25331 214.18 3.15277C213.937 3.05223 213.677 3.00049 213.414 3.00049C213.152 3.00049 212.892 3.05223 212.649 3.15277C212.406 3.25331 212.186 3.40067 212 3.58644L196.586 19.0002C196.4 19.1852 196.252 19.4055 196.151 19.6482C196.051 19.8909 195.999 20.1512 196 20.4139V26.0002C196 26.5306 196.211 27.0393 196.586 27.4144C196.961 27.7895 197.47 28.0002 198 28.0002H219C219.265 28.0002 219.52 27.8948 219.707 27.7073C219.895 27.5198 220 27.2654 220 27.0002C220 26.735 219.895 26.4806 219.707 26.2931C219.52 26.1055 219.265 26.0002 219 26.0002H206.415L220.415 12.0002C220.601 11.8145 220.748 11.594 220.849 11.3513C220.949 11.1086 221.001 10.8485 221.001 10.5858C221.001 10.3231 220.949 10.063 220.849 9.82034C220.748 9.57766 220.601 9.35716 220.415 9.17144ZM216 13.5864L210.415 8.00019L213.415 5.00019L219 10.5864L216 13.5864Z" fill="currentColor"/>
<path opacity="0.2" d="M267.708 11.2927L264 15.0002L257 8.00016L260.708 4.29266C260.895 4.10527 261.149 4 261.414 4C261.679 4 261.934 4.10527 262.121 4.29266L267.708 9.87516C267.801 9.96808 267.875 10.0785 267.925 10.2002C267.976 10.3218 268.002 10.4522 268.002 10.5839C268.002 10.7156 267.976 10.846 267.925 10.9677C267.875 11.0893 267.801 11.1997 267.708 11.2927Z" fill="currentColor"/>
<path d="M268.415 9.17144L262.829 3.58644C262.643 3.40067 262.423 3.25331 262.18 3.15277C261.937 3.05223 261.677 3.00049 261.414 3.00049C261.152 3.00049 260.892 3.05223 260.649 3.15277C260.406 3.25331 260.186 3.40067 260 3.58644L244.586 19.0002C244.4 19.1852 244.252 19.4055 244.151 19.6482C244.051 19.8909 243.999 20.1512 244 20.4139V26.0002C244 26.5306 244.211 27.0393 244.586 27.4144C244.961 27.7895 245.47 28.0002 246 28.0002H267C267.265 28.0002 267.52 27.8948 267.707 27.7073C267.895 27.5198 268 27.2654 268 27.0002C268 26.735 267.895 26.4806 267.707 26.2931C267.52 26.1055 267.265 26.0002 267 26.0002H254.415L268.415 12.0002C268.601 11.8145 268.748 11.594 268.849 11.3513C268.949 11.1086 269.001 10.8485 269.001 10.5858C269.001 10.3231 268.949 10.063 268.849 9.82034C268.748 9.57766 268.601 9.35716 268.415 9.17144ZM246 20.4139L257 9.41394L262.586 15.0002L251.586 26.0002H246V20.4139ZM264 13.5864L258.415 8.00019L261.415 5.00019L267 10.5864L264 13.5864Z" fill="currentColor"/>
</g>
<defs>
<clipPath id="clip0_17_13931">
<rect width="272" height="32" rx="5" fill="white"/>
</clipPath>
</defs>
</svg>
