<svg width="272" height="32" viewBox="0 0 272 32" fill="none" xmlns="http://www.w3.org/2000/svg">
<g clip-path="url(#clip0_17_13889)">
<path d="M29.8975 11.3813C29.7714 10.9779 29.5188 10.6258 29.177 10.377C28.8353 10.1283 28.4226 9.99613 28 10.0001H20.375L17.9037 2.40758C17.7791 2.00042 17.5273 1.64392 17.1852 1.39041C16.8431 1.1369 16.4287 0.999725 16.0029 0.999026C15.5771 0.998327 15.1623 1.13414 14.8193 1.38652C14.4764 1.63891 14.2234 1.99458 14.0975 2.40133L11.6325 10.0001H3.99997C3.57614 9.99895 3.1629 10.1325 2.81989 10.3814C2.47687 10.6304 2.22181 10.9819 2.0915 11.3852C1.96119 11.7885 1.96238 12.2227 2.09488 12.6253C2.22738 13.0279 2.48435 13.378 2.82872 13.6251L9.01122 18.0726L6.64372 25.3751C6.50891 25.7767 6.50725 26.2111 6.63899 26.6138C6.77073 27.0164 7.02883 27.3658 7.37497 27.6101C7.7142 27.862 8.12553 27.9981 8.54809 27.9981C8.97065 27.9981 9.38199 27.862 9.72122 27.6101L16 23.0938L22.2787 27.6101C22.6203 27.8581 23.0317 27.9916 23.4538 27.9915C23.876 27.9915 24.2873 27.8579 24.6288 27.6098C24.9704 27.3617 25.2247 27.012 25.3554 26.6106C25.486 26.2091 25.4863 25.7767 25.3562 25.3751L22.9812 18.0676L29.1675 13.6163C29.5135 13.372 29.7715 13.0225 29.903 12.6199C30.0346 12.2172 30.0326 11.7828 29.8975 11.3813ZM16 3.01883L18.265 10.0001H13.735L16 3.01883ZM3.99997 12.0001H10.9837L9.66247 16.0701L3.99997 12.0001ZM8.54247 26.0001L10.7162 19.3013L14.2837 21.8688L8.54247 26.0001ZM11.3637 17.3038L13.0862 12.0001H18.9137L20.6325 17.2976L16 20.6251L11.3637 17.3038ZM23.45 26.0001L17.7125 21.8751L21.28 19.3076L23.45 26.0001ZM22.3337 16.0776L21.0162 12.0001H28L22.3337 16.0776Z" fill="currentColor"/>
<path d="M77.4238 11.5363C77.3291 11.2337 77.1395 10.9695 76.8831 10.7829C76.6267 10.5963 76.3171 10.4971 76 10.5001H68L65.4275 2.5588C65.3345 2.25278 65.1457 1.98475 64.8887 1.79428C64.6318 1.6038 64.3205 1.50098 64.0006 1.50098C63.6808 1.50098 63.3694 1.6038 63.1125 1.79428C62.8556 1.98475 62.6667 2.25278 62.5738 2.5588L60 10.5001H52C51.6834 10.501 51.3753 10.6022 51.1196 10.7889C50.864 10.9757 50.6741 11.2386 50.577 11.5399C50.4798 11.8413 50.4806 12.1656 50.579 12.4665C50.6774 12.7674 50.8686 13.0294 51.125 13.2151L57.6025 17.8751L55.125 25.5313C55.0239 25.8322 55.0223 26.1576 55.1205 26.4595C55.2186 26.7614 55.4113 27.0237 55.67 27.2076C55.9245 27.397 56.2334 27.4993 56.5506 27.4993C56.8679 27.4993 57.1767 27.397 57.4313 27.2076L64 22.4788L70.5725 27.2076C70.8287 27.3938 71.1373 27.4942 71.4541 27.4942C71.7708 27.4943 72.0794 27.3942 72.3358 27.2081C72.5921 27.022 72.7829 26.7595 72.8809 26.4583C72.9789 26.1571 72.979 25.8326 72.8813 25.5313L70.3975 17.8751L76.875 13.2126C77.1344 13.0292 77.3278 12.7671 77.4267 12.4652C77.5255 12.1633 77.5245 11.8376 77.4238 11.5363ZM63.5263 2.86005C63.5543 2.75572 63.616 2.66354 63.7018 2.59781C63.7875 2.53208 63.8926 2.49646 64.0006 2.49646C64.1087 2.49646 64.2137 2.53208 64.2995 2.59781C64.3852 2.66354 64.4469 2.75572 64.475 2.86005L66.9525 10.5001H61.0475L63.5263 2.86005ZM51.7088 12.4038C51.6238 12.3418 51.5606 12.2545 51.5281 12.1545C51.4956 12.0545 51.4955 11.9468 51.5278 11.8467C51.56 11.7466 51.623 11.6592 51.7078 11.597C51.7926 11.5347 51.8948 11.5008 52 11.5001H59.6713L57.9213 16.8751L51.7088 12.4038ZM56.8338 26.4038C56.7483 26.4655 56.6456 26.4987 56.5402 26.4986C56.4348 26.4984 56.3321 26.465 56.2469 26.403C56.1616 26.3411 56.0981 26.2537 56.0655 26.1535C56.0328 26.0533 56.0326 25.9454 56.065 25.8451L58.45 18.4951L63.1388 21.8701L56.8338 26.4038ZM58.7738 17.4963L60.7225 11.5001H67.2775L69.2213 17.4913L64 21.2501L58.7738 17.4963ZM71.925 25.8451C71.9576 25.9456 71.9575 26.054 71.9247 26.1545C71.8919 26.2551 71.828 26.3426 71.7423 26.4045C71.6566 26.4665 71.5535 26.4997 71.4477 26.4993C71.342 26.499 71.239 26.4651 71.1538 26.4026L64.8563 21.8626L69.545 18.4876L71.925 25.8451ZM76.2875 12.4076L70.0738 16.8751L68.3238 11.5001H76C76.1052 11.5004 76.2075 11.5339 76.2926 11.5958C76.3776 11.6576 76.441 11.7448 76.4736 11.8447C76.5063 11.9447 76.5066 12.0524 76.4746 12.1525C76.4425 12.2527 76.3797 12.3402 76.295 12.4026L76.2875 12.4076Z" fill="currentColor"/>
<path d="M125.661 11.4588C125.551 11.1058 125.329 10.7978 125.03 10.5801C124.731 10.3625 124.37 10.2467 124 10.25H116.185L113.666 2.48378C113.558 2.12708 113.338 1.81461 113.038 1.59234C112.739 1.37007 112.376 1.24973 112.004 1.24903C111.631 1.24833 111.268 1.3673 110.967 1.58845C110.667 1.8096 110.446 2.12124 110.336 2.47753L107.814 10.25H100C99.6299 10.2497 99.2691 10.3667 98.9697 10.5842C98.6702 10.8018 98.4475 11.1087 98.3334 11.4608C98.2194 11.813 98.2199 12.1922 98.335 12.544C98.45 12.8958 98.6737 13.2021 98.9738 13.4188L105.305 17.9738L102.881 25.4538C102.763 25.8047 102.761 26.1845 102.876 26.5366C102.99 26.8888 103.215 27.1946 103.518 27.4088C103.814 27.6295 104.174 27.7486 104.544 27.7486C104.914 27.7486 105.274 27.6295 105.571 27.4088L112 22.7838L118.426 27.4088C118.725 27.6281 119.086 27.7469 119.456 27.748C119.827 27.7492 120.188 27.6327 120.488 27.4153C120.789 27.1978 121.012 26.8908 121.126 26.5382C121.241 26.1857 121.24 25.806 121.125 25.4538L118.698 17.9725L125.031 13.415C125.332 13.1998 125.556 12.8934 125.67 12.5411C125.783 12.1887 125.78 11.8093 125.661 11.4588ZM111.764 2.93628C111.776 2.88226 111.806 2.83392 111.849 2.79926C111.892 2.7646 111.945 2.7457 112.001 2.7457C112.056 2.7457 112.11 2.7646 112.153 2.79926C112.196 2.83392 112.226 2.88226 112.238 2.93628L114.613 10.2438H109.391L111.764 2.93628ZM99.8563 12.2013C99.8114 12.1724 99.7778 12.1289 99.7611 12.0781C99.7445 12.0273 99.7459 11.9724 99.765 11.9225C99.7791 11.8715 99.8099 11.8267 99.8525 11.7954C99.8952 11.7641 99.9471 11.7481 100 11.75H107.328L105.795 16.475L99.8563 12.2013ZM104.693 26.2013C104.65 26.2325 104.598 26.2494 104.545 26.2495C104.492 26.2495 104.441 26.2328 104.398 26.2016C104.355 26.1705 104.323 26.1266 104.307 26.0762C104.291 26.0258 104.291 25.9716 104.308 25.9213L106.586 18.8963L110.711 21.8675L104.693 26.2013ZM107.068 17.3988L108.905 11.75H115.095L116.926 17.395L112 20.9388L107.068 17.3988ZM119.686 25.9213C119.703 25.9718 119.703 26.0262 119.686 26.0766C119.669 26.1271 119.637 26.1709 119.594 26.2018C119.551 26.2328 119.499 26.2491 119.446 26.2486C119.393 26.248 119.341 26.2306 119.299 26.1988L113.284 21.8625L117.409 18.8913L119.686 25.9213ZM124.146 12.1988L118.205 16.4738L116.673 11.75H124C124.054 11.7472 124.106 11.7629 124.15 11.7945C124.193 11.8262 124.224 11.8719 124.238 11.9238C124.256 11.9731 124.258 12.0274 124.241 12.0776C124.224 12.1277 124.191 12.1705 124.146 12.1988Z" fill="currentColor"/>
<path d="M174.375 11.2286C174.213 10.7261 173.896 10.2879 173.469 9.97717C173.042 9.66648 172.528 9.49934 172 9.49985H164.731L162.381 2.2561C162.224 1.74894 161.908 1.30541 161.481 0.990198C161.053 0.674989 160.536 0.504606 160.005 0.503908C159.474 0.503211 158.957 0.672234 158.529 0.986318C158.1 1.3004 157.784 1.74311 157.625 2.24985L155.269 9.49985H148C147.471 9.49987 146.956 9.66748 146.529 9.9786C146.101 10.2897 145.784 10.7283 145.621 11.2314C145.459 11.7344 145.46 12.2761 145.624 12.7784C145.789 13.2808 146.109 13.7181 146.537 14.0273L152.425 18.2636L150.166 25.2261C150.003 25.7278 150.003 26.2682 150.165 26.77C150.328 27.2718 150.645 27.7093 151.072 28.0199C151.498 28.3304 152.012 28.4982 152.539 28.4991C153.067 28.5 153.581 28.334 154.009 28.0248L160 23.7136L165.986 28.0198C166.413 28.3301 166.927 28.4972 167.455 28.4973C167.983 28.4973 168.497 28.3303 168.924 28.0202C169.352 27.7101 169.67 27.2727 169.833 26.7708C169.996 26.2689 169.996 25.7282 169.834 25.2261L167.575 18.2636L173.469 14.0236C173.895 13.713 174.213 13.2754 174.376 12.7733C174.538 12.2712 174.538 11.7305 174.375 11.2286ZM160 4.6386L161.577 9.49985H158.422L160 4.6386ZM149.552 12.4998H154.295L153.397 15.2661L149.552 12.4998ZM153.491 24.6998L154.982 20.1023L157.431 21.8648L153.491 24.6998ZM155.955 17.1061L157.455 12.4998H162.557L164.057 17.1061L160 20.0173L155.955 17.1061ZM162.569 21.8648L165.017 20.1023L166.509 24.6998L162.569 21.8648ZM166.602 15.2661L165.705 12.4998H170.447L166.602 15.2661Z" fill="currentColor"/>
<path d="M199.31 16.8413L194.833 13.6251C194.489 13.3782 194.232 13.0284 194.099 12.6262C193.966 12.224 193.965 11.7901 194.095 11.387C194.225 10.9838 194.479 10.6323 194.822 10.3831C195.164 10.1339 195.577 9.99975 196 10.0001H201.53L199.31 16.8413ZM198.644 25.3751C198.509 25.7767 198.507 26.2111 198.639 26.6138C198.771 27.0164 199.029 27.3658 199.375 27.6101C199.714 27.862 200.126 27.9981 200.548 27.9981C200.971 27.9981 201.382 27.862 201.721 27.6101L206.288 24.3251L200.368 20.0651L198.644 25.3751ZM209.904 2.40758C209.779 2.00042 209.527 1.64392 209.185 1.39041C208.843 1.1369 208.429 0.999725 208.003 0.999026C207.577 0.998327 207.162 1.13414 206.819 1.38652C206.477 1.63891 206.224 1.99458 206.098 2.40133L204.281 8.00008H211.719L209.904 2.40758ZM212.368 10.0001H203.633L201.015 18.0676L208 23.0938L214.985 18.0676L212.368 10.0001ZM221.898 11.3826C221.772 10.9789 221.519 10.6265 221.177 10.3775C220.836 10.1286 220.423 9.99621 220 10.0001H214.47L216.69 16.8426L221.171 13.6176C221.517 13.3727 221.774 13.0228 221.905 12.6199C222.036 12.217 222.033 11.7826 221.898 11.3813V11.3826ZM215.633 20.0663L209.713 24.3251L214.279 27.6101C214.62 27.8581 215.032 27.9916 215.454 27.9915C215.876 27.9915 216.287 27.8579 216.629 27.6098C216.971 27.3617 217.225 27.012 217.356 26.6106C217.486 26.2091 217.486 25.7767 217.356 25.3751L215.633 20.0663Z" fill="currentColor"/>
<path opacity="0.2" d="M268.586 12.8086L261.81 17.6836L264.406 25.6836C264.472 25.8845 264.472 26.1009 264.407 26.3019C264.342 26.5029 264.214 26.678 264.044 26.8023C263.873 26.9265 263.667 26.9934 263.456 26.9934C263.244 26.9935 263.038 26.9266 262.868 26.8023L256 21.8636L249.133 26.8048C248.962 26.9291 248.756 26.996 248.545 26.9959C248.333 26.9959 248.127 26.929 247.957 26.8048C247.786 26.6805 247.659 26.5054 247.593 26.3044C247.528 26.1034 247.528 25.887 247.594 25.6861L250.19 17.6861L243.414 12.8111C243.242 12.6873 243.114 12.5123 243.048 12.3112C242.982 12.1101 242.982 11.8932 243.047 11.6919C243.112 11.4905 243.24 11.315 243.411 11.1907C243.582 11.0663 243.788 10.9995 244 10.9998H252.359L255.049 2.70983C255.11 2.5049 255.235 2.32516 255.407 2.19735C255.578 2.06953 255.786 2.00049 256 2.00049C256.214 2.00049 256.422 2.06953 256.593 2.19735C256.765 2.32516 256.89 2.5049 256.951 2.70983L259.641 10.9998H268C268.211 11.0002 268.417 11.0673 268.587 11.1916C268.758 11.3158 268.884 11.4908 268.949 11.6915C269.015 11.8922 269.014 12.1083 268.949 12.309C268.884 12.5096 268.757 12.6845 268.586 12.8086Z" fill="currentColor"/>
<path d="M269.9 11.3826C269.774 10.9786 269.521 10.6261 269.179 10.3771C268.836 10.1281 268.423 9.99588 268 10.0001H260.375L257.913 2.40759C257.788 2.00061 257.535 1.64436 257.193 1.39105C256.851 1.13775 256.437 1.0007 256.011 1C255.585 0.999304 255.171 1.13499 254.828 1.38717C254.485 1.63935 254.231 1.99477 254.105 2.40134L251.633 10.0001H244C243.576 9.9987 243.163 10.132 242.819 10.3809C242.476 10.6297 242.221 10.9812 242.09 11.3846C241.96 11.7879 241.961 12.2223 242.094 12.625C242.226 13.0278 242.483 13.378 242.828 13.6251L249.011 18.0738L246.643 25.3751C246.507 25.7774 246.506 26.2126 246.638 26.6159C246.77 27.0193 247.028 27.3693 247.375 27.6138C247.715 27.8655 248.126 28.0014 248.549 28.0014C248.971 28.0014 249.383 27.8655 249.723 27.6138L256 23.0963L262.28 27.6138C262.622 27.8625 263.034 27.9965 263.457 27.9965C263.879 27.9965 264.291 27.8625 264.633 27.6138C264.975 27.3651 265.229 27.0145 265.359 26.6123C265.489 26.21 265.489 25.7769 265.358 25.3751L262.983 18.0676L269.17 13.6151C269.515 13.3707 269.773 13.0216 269.904 12.6195C270.036 12.2175 270.034 11.7838 269.9 11.3826ZM256 3.01884L258.265 10.0001H253.735L256 3.01884ZM244 12.0001H250.984L249.663 16.0726L244 12.0001ZM248.545 26.0001L250.719 19.3013L254.288 21.8688L248.545 26.0001ZM251.366 17.3038L253.086 12.0001H258.914L260.634 17.2988L256 20.6326L251.366 17.3038ZM263.455 26.0001L257.716 21.8751L261.285 19.3076L263.455 26.0001ZM262.338 16.0776L261.016 12.0001H268L262.338 16.0776Z" fill="currentColor"/>
</g>
<defs>
<clipPath id="clip0_17_13889">
<rect width="272" height="32" rx="5" fill="white"/>
</clipPath>
</defs>
</svg>
