<svg width="272" height="32" viewBox="0 0 272 32" fill="none" xmlns="http://www.w3.org/2000/svg">
<g clip-path="url(#clip0_17_13875)">
<path d="M30 15.0002H28V6.0002C28 5.7073 27.9356 5.41799 27.8114 5.15271C27.6873 4.88743 27.5064 4.65265 27.2815 4.46498C27.0566 4.27731 26.7933 4.14132 26.5101 4.06662C26.2268 3.99192 25.9307 3.98034 25.6425 4.0327L5.6425 7.66895C5.18167 7.75267 4.76484 7.99547 4.46468 8.35503C4.16452 8.71458 4.00007 9.16807 4 9.63645V15.0002H2C1.73478 15.0002 1.48043 15.1056 1.29289 15.2931C1.10536 15.4806 1 15.735 1 16.0002C1 16.2654 1.10536 16.5198 1.29289 16.7073C1.48043 16.8948 1.73478 17.0002 2 17.0002H4V22.364C4.00007 22.8323 4.16452 23.2858 4.46468 23.6454C4.76484 24.0049 5.18167 24.2477 5.6425 24.3314L25.6425 27.9677C25.7605 27.9889 25.8801 27.9998 26 28.0002C26.5304 28.0002 27.0391 27.7895 27.4142 27.4144C27.7893 27.0393 28 26.5306 28 26.0002V17.0002H30C30.2652 17.0002 30.5196 16.8948 30.7071 16.7073C30.8946 16.5198 31 16.2654 31 16.0002C31 15.735 30.8946 15.4806 30.7071 15.2931C30.5196 15.1056 30.2652 15.0002 30 15.0002ZM6 9.63645L26 6.0002V15.0002H6V9.63645ZM26 26.0002L6 22.364V17.0002H26V26.0002Z" fill="currentColor"/>
<path d="M78 15.5H75.5V6.00003C75.5001 5.78024 75.4519 5.56312 75.3587 5.36403C75.2656 5.16494 75.1299 4.98875 74.9612 4.84791C74.7924 4.70708 74.5948 4.60505 74.3823 4.54904C74.1697 4.49303 73.9475 4.4844 73.7313 4.52378L53.7312 8.16128C53.3858 8.22419 53.0735 8.40625 52.8485 8.67578C52.6235 8.9453 52.5002 9.2852 52.5 9.63628V15.5H50C49.8674 15.5 49.7402 15.5527 49.6464 15.6465C49.5527 15.7402 49.5 15.8674 49.5 16C49.5 16.1326 49.5527 16.2598 49.6464 16.3536C49.7402 16.4474 49.8674 16.5 50 16.5H52.5V22.3638C52.5002 22.7149 52.6235 23.0548 52.8485 23.3243C53.0735 23.5938 53.3858 23.7759 53.7312 23.8388L73.7313 27.475C73.8202 27.492 73.9107 27.5004 74.0012 27.5C74.3991 27.5 74.7806 27.342 75.0619 27.0607C75.3432 26.7794 75.5012 26.3979 75.5012 26V16.5H78.0012C78.1339 16.5 78.261 16.4474 78.3548 16.3536C78.4486 16.2598 78.5012 16.1326 78.5012 16C78.5012 15.8674 78.4486 15.7402 78.3548 15.6465C78.261 15.5527 78.1339 15.5 78.0012 15.5H78ZM53.5 9.63628C53.5001 9.51939 53.5412 9.40623 53.6161 9.31649C53.691 9.22674 53.795 9.16608 53.91 9.14503L73.91 5.50878C73.982 5.4956 74.0561 5.4984 74.1269 5.517C74.1978 5.53559 74.2637 5.56951 74.3199 5.61637C74.3762 5.66323 74.4215 5.72188 74.4526 5.78818C74.4837 5.85448 74.4999 5.9268 74.5 6.00003V15.5H53.5V9.63628ZM74.5 26C74.4999 26.0733 74.4837 26.1456 74.4526 26.2119C74.4215 26.2782 74.3762 26.3368 74.3199 26.3837C74.2637 26.4306 74.1978 26.4645 74.1269 26.4831C74.0561 26.5017 73.982 26.5045 73.91 26.4913L53.91 22.855C53.795 22.834 53.691 22.7733 53.6161 22.6836C53.5412 22.5938 53.5001 22.4807 53.5 22.3638V16.5H74.5V26Z" fill="currentColor"/>
<path d="M126 15.2499H123.75V5.99987C123.75 5.74364 123.694 5.49056 123.585 5.2585C123.476 5.02645 123.318 4.82108 123.121 4.6569C122.925 4.49273 122.694 4.37376 122.446 4.30839C122.199 4.24303 121.94 4.23286 121.688 4.27862L101.688 7.91487C101.284 7.98805 100.92 8.20043 100.657 8.51498C100.394 8.82953 100.25 9.2263 100.25 9.63612V15.2499H98C97.8011 15.2499 97.6103 15.3289 97.4697 15.4695C97.329 15.6102 97.25 15.801 97.25 15.9999C97.25 16.1988 97.329 16.3895 97.4697 16.5302C97.6103 16.6708 97.8011 16.7499 98 16.7499H100.25V22.3636C100.25 22.7734 100.394 23.1702 100.657 23.4848C100.92 23.7993 101.284 24.0117 101.688 24.0849L121.688 27.7211C121.791 27.7399 121.895 27.7495 122 27.7499C122.464 27.7499 122.909 27.5655 123.237 27.2373C123.566 26.9091 123.75 26.464 123.75 25.9999V16.7499H126C126.199 16.7499 126.39 16.6708 126.53 16.5302C126.671 16.3895 126.75 16.1988 126.75 15.9999C126.75 15.801 126.671 15.6102 126.53 15.4695C126.39 15.3289 126.199 15.2499 126 15.2499ZM101.75 9.63612C101.749 9.57692 101.769 9.5193 101.807 9.47352C101.844 9.42774 101.897 9.39676 101.955 9.38612L121.955 5.74862H122.001C122.068 5.74862 122.131 5.77496 122.178 5.82184C122.225 5.86872 122.251 5.93231 122.251 5.99862V15.2486H101.75V9.63612ZM122.25 25.9999C122.25 26.0364 122.242 26.0724 122.226 26.1055C122.211 26.1385 122.188 26.1677 122.16 26.1911C122.132 26.2148 122.099 26.2319 122.064 26.2415C122.028 26.251 121.991 26.2526 121.955 26.2461L101.955 22.6086C101.897 22.598 101.844 22.567 101.807 22.5212C101.769 22.4754 101.749 22.4178 101.75 22.3586V16.7499H122.25V25.9999Z" fill="currentColor"/>
<path d="M174 14.5001H172.5V6.0001C172.5 5.63397 172.419 5.27234 172.264 4.94076C172.109 4.60918 171.883 4.31576 171.601 4.08122C171.32 3.84669 170.991 3.67678 170.637 3.58349C170.283 3.4902 169.913 3.47582 169.552 3.54135L149.552 7.1776C148.977 7.28237 148.456 7.58583 148.081 8.03513C147.706 8.48443 147.5 9.05108 147.5 9.63635V14.5001H146C145.602 14.5001 145.221 14.6581 144.939 14.9394C144.658 15.2207 144.5 15.6023 144.5 16.0001C144.5 16.3979 144.658 16.7795 144.939 17.0608C145.221 17.3421 145.602 17.5001 146 17.5001H147.5V22.3639C147.5 22.9491 147.706 23.5158 148.081 23.9651C148.456 24.4144 148.977 24.7178 149.552 24.8226L169.552 28.4589C169.913 28.5244 170.283 28.51 170.637 28.4167C170.991 28.3234 171.32 28.1535 171.601 27.919C171.883 27.6845 172.109 27.391 172.264 27.0595C172.419 26.7279 172.5 26.3662 172.5 26.0001V17.5001H174C174.398 17.5001 174.779 17.3421 175.061 17.0608C175.342 16.7795 175.5 16.3979 175.5 16.0001C175.5 15.6023 175.342 15.2207 175.061 14.9394C174.779 14.6581 174.398 14.5001 174 14.5001ZM150.5 10.0539L169.5 6.6001V14.5001H150.5V10.0539ZM169.5 25.4001L150.5 21.9464V17.5001H169.5V25.4001Z" fill="currentColor"/>
<path d="M220 15.0002H196V9.63645C196 9.16807 196.165 8.71458 196.465 8.35503C196.765 7.99547 197.182 7.75267 197.642 7.66895L217.642 4.0327C217.931 3.98034 218.227 3.99192 218.51 4.06662C218.793 4.14132 219.057 4.27731 219.281 4.46498C219.506 4.65265 219.687 4.88743 219.811 5.15271C219.936 5.41799 220 5.7073 220 6.0002V15.0002ZM196 22.364C196 22.8323 196.165 23.2858 196.465 23.6454C196.765 24.0049 197.182 24.2477 197.642 24.3314L217.642 27.9677C217.76 27.9889 217.88 27.9998 218 28.0002C218.53 28.0002 219.039 27.7895 219.414 27.4144C219.789 27.0393 220 26.5306 220 26.0002V17.0002H196V22.364ZM222 15.0002H220V17.0002H222C222.265 17.0002 222.52 16.8948 222.707 16.7073C222.895 16.5198 223 16.2654 223 16.0002C223 15.735 222.895 15.4806 222.707 15.2931C222.52 15.1056 222.265 15.0002 222 15.0002ZM194 15.0002C193.735 15.0002 193.48 15.1056 193.293 15.2931C193.105 15.4806 193 15.735 193 16.0002C193 16.2654 193.105 16.5198 193.293 16.7073C193.48 16.8948 193.735 17.0002 194 17.0002H196V15.0002H194Z" fill="currentColor"/>
<path opacity="0.2" d="M267 5.99986V25.9999C267 26.1463 266.968 26.291 266.906 26.4236C266.844 26.5562 266.753 26.6736 266.641 26.7675C266.528 26.8613 266.397 26.9293 266.255 26.9666C266.113 27.004 265.965 27.0098 265.821 26.9836L245.821 23.3474C245.591 23.3055 245.382 23.1841 245.232 23.0043C245.082 22.8245 245 22.5978 245 22.3636V9.63611C245 9.40192 245.082 9.17517 245.232 8.99539C245.382 8.81562 245.591 8.69422 245.821 8.65236L265.821 5.01611C265.965 4.98993 266.113 4.99572 266.255 5.03307C266.397 5.07041 266.528 5.13841 266.641 5.23225C266.753 5.32608 266.844 5.44347 266.906 5.57611C266.968 5.70875 267 5.85341 267 5.99986Z" fill="currentColor"/>
<path d="M270 15.0002H268V6.0002C268 5.7073 267.936 5.41799 267.811 5.15271C267.687 4.88743 267.506 4.65265 267.281 4.46498C267.057 4.27731 266.793 4.14132 266.51 4.06662C266.227 3.99192 265.931 3.98034 265.642 4.0327L245.642 7.66895C245.182 7.75267 244.765 7.99547 244.465 8.35503C244.165 8.71458 244 9.16807 244 9.63645V15.0002H242C241.735 15.0002 241.48 15.1056 241.293 15.2931C241.105 15.4806 241 15.735 241 16.0002C241 16.2654 241.105 16.5198 241.293 16.7073C241.48 16.8948 241.735 17.0002 242 17.0002H244V22.364C244 22.8323 244.165 23.2858 244.465 23.6454C244.765 24.0049 245.182 24.2477 245.642 24.3314L265.642 27.9677C265.76 27.9889 265.88 27.9998 266 28.0002C266.53 28.0002 267.039 27.7895 267.414 27.4144C267.789 27.0393 268 26.5306 268 26.0002V17.0002H270C270.265 17.0002 270.52 16.8948 270.707 16.7073C270.895 16.5198 271 16.2654 271 16.0002C271 15.735 270.895 15.4806 270.707 15.2931C270.52 15.1056 270.265 15.0002 270 15.0002ZM246 9.63645L266 6.0002V15.0002H246V9.63645ZM266 26.0002L246 22.364V17.0002H266V26.0002Z" fill="currentColor"/>
</g>
<defs>
<clipPath id="clip0_17_13875">
<rect width="272" height="32" rx="5" fill="white"/>
</clipPath>
</defs>
</svg>
