<svg width="272" height="32" viewBox="0 0 272 32" fill="none" xmlns="http://www.w3.org/2000/svg">
<g clip-path="url(#clip0_17_13861)">
<path d="M26 4H6C5.46957 4 4.96086 4.21071 4.58579 4.58579C4.21071 4.96086 4 5.46957 4 6V26C4 26.5304 4.21071 27.0391 4.58579 27.4142C4.96086 27.7893 5.46957 28 6 28H26C26.5304 28 27.0391 27.7893 27.4142 27.4142C27.7893 27.0391 28 26.5304 28 26V6C28 5.46957 27.7893 4.96086 27.4142 4.58579C27.0391 4.21071 26.5304 4 26 4ZM6 26V7.41375L24.5863 26H6ZM7.41375 6H26V24.5875L7.41375 6Z" fill="currentColor"/>
<path d="M74 4.5H54C53.6022 4.5 53.2206 4.65804 52.9393 4.93934C52.658 5.22064 52.5 5.60218 52.5 6V26C52.5 26.3978 52.658 26.7794 52.9393 27.0607C53.2206 27.342 53.6022 27.5 54 27.5H74C74.3978 27.5 74.7794 27.342 75.0607 27.0607C75.342 26.7794 75.5 26.3978 75.5 26V6C75.5 5.60218 75.342 5.22064 75.0607 4.93934C74.7794 4.65804 74.3978 4.5 74 4.5ZM74.5 6V25.7925L54.2075 5.5H74C74.1326 5.5 74.2598 5.55268 74.3536 5.64645C74.4473 5.74021 74.5 5.86739 74.5 6ZM53.5 26V6.2075L73.7925 26.5H54C53.8674 26.5 53.7402 26.4473 53.6464 26.3536C53.5527 26.2598 53.5 26.1326 53.5 26Z" fill="currentColor"/>
<path d="M122 4.25H102C101.536 4.25 101.091 4.43437 100.763 4.76256C100.434 5.09075 100.25 5.53587 100.25 6V26C100.25 26.4641 100.434 26.9092 100.763 27.2374C101.091 27.5656 101.536 27.75 102 27.75H122C122.464 27.75 122.909 27.5656 123.237 27.2374C123.566 26.9092 123.75 26.4641 123.75 26V6C123.75 5.53587 123.566 5.09075 123.237 4.76256C122.909 4.43437 122.464 4.25 122 4.25ZM122.25 6V25.19L102.811 5.75H122C122.066 5.75 122.13 5.77634 122.177 5.82322C122.224 5.87011 122.25 5.9337 122.25 6ZM101.75 26V6.81L121.189 26.25H102C101.934 26.25 101.87 26.2237 101.823 26.1768C101.776 26.1299 101.75 26.0663 101.75 26Z" fill="currentColor"/>
<path d="M170 3.5H150C149.337 3.5 148.701 3.76339 148.232 4.23223C147.763 4.70107 147.5 5.33696 147.5 6V26C147.5 26.663 147.763 27.2989 148.232 27.7678C148.701 28.2366 149.337 28.5 150 28.5H170C170.663 28.5 171.299 28.2366 171.768 27.7678C172.237 27.2989 172.5 26.663 172.5 26V6C172.5 5.33696 172.237 4.70107 171.768 4.23223C171.299 3.76339 170.663 3.5 170 3.5ZM169.5 23.375L152.625 6.5H169.5V23.375ZM150.5 8.625L167.375 25.5H150.5V8.625Z" fill="currentColor"/>
<path d="M218 4H198C197.47 4 196.961 4.21071 196.586 4.58579C196.211 4.96086 196 5.46957 196 6V26C196 26.5304 196.211 27.0391 196.586 27.4142C196.961 27.7893 197.47 28 198 28H218C218.53 28 219.039 27.7893 219.414 27.4142C219.789 27.0391 220 26.5304 220 26V6C220 5.46957 219.789 4.96086 219.414 4.58579C219.039 4.21071 218.53 4 218 4ZM215.414 23.4137C215.226 23.6011 214.972 23.7064 214.707 23.7064C214.442 23.7064 214.188 23.6011 214 23.4137L200.586 10C200.407 9.81094 200.308 9.55919 200.311 9.29843C200.315 9.03766 200.42 8.78852 200.604 8.60412C200.789 8.41972 201.038 8.31465 201.298 8.31131C201.559 8.30797 201.811 8.40663 202 8.58625L215.414 22C215.601 22.1875 215.706 22.4418 215.706 22.7069C215.706 22.972 215.601 23.2262 215.414 23.4137Z" fill="currentColor"/>
<path opacity="0.2" d="M267 6V26C267 26.2652 266.895 26.5196 266.707 26.7071C266.52 26.8946 266.265 27 266 27H246C245.735 27 245.48 26.8946 245.293 26.7071C245.105 26.5196 245 26.2652 245 26V6C245 5.73478 245.105 5.48043 245.293 5.29289C245.48 5.10536 245.735 5 246 5H266C266.265 5 266.52 5.10536 266.707 5.29289C266.895 5.48043 267 5.73478 267 6Z" fill="currentColor"/>
<path d="M268 6C268 5.46957 267.789 4.96086 267.414 4.58579C267.039 4.21071 266.53 4 266 4H246C245.508 4.00002 245.033 4.18263 244.668 4.5125C244.611 4.55904 244.559 4.61095 244.512 4.6675C244.183 5.03293 244 5.50771 244 6V26C244 26.5304 244.211 27.0391 244.586 27.4142C244.961 27.7893 245.47 28 246 28H266C266.492 28 266.967 27.8174 267.333 27.4875C267.361 27.4646 267.388 27.4399 267.414 27.4137C267.44 27.3885 267.464 27.3613 267.486 27.3325C267.817 26.9675 268 26.4925 268 26V6ZM266 24.5875L247.414 6H266V24.5875ZM246 7.41375L264.586 26H246V7.41375Z" fill="currentColor"/>
</g>
<defs>
<clipPath id="clip0_17_13861">
<rect width="272" height="32" rx="5" fill="white"/>
</clipPath>
</defs>
</svg>
