<svg width="272" height="32" viewBox="0 0 272 32" fill="none" xmlns="http://www.w3.org/2000/svg">
<g clip-path="url(#clip0_17_13847)">
<path d="M28.83 6.16983C28.4586 5.7983 28.0176 5.50358 27.5322 5.3025C27.0469 5.10143 26.5266 4.99794 26.0013 4.99794C25.4759 4.99794 24.9557 5.10143 24.4703 5.3025C23.985 5.50358 23.544 5.7983 23.1725 6.16983C22.9208 6.42145 22.7038 6.70564 22.5275 7.01483L19 6.05233C19.0109 5.25653 18.7842 4.47557 18.3488 3.80935C17.9134 3.14312 17.2892 2.62192 16.5559 2.31242C15.8227 2.00291 15.0138 1.91917 14.2327 2.07191C13.4517 2.22465 12.7339 2.60692 12.1713 3.16983C11.5705 3.772 11.177 4.54969 11.0475 5.39036C10.9181 6.23104 11.0595 7.0911 11.4513 7.84608L7.20878 11.6648C6.43905 11.1561 5.51731 10.9286 4.59927 11.0209C3.68123 11.1131 2.82316 11.5194 2.17003 12.1711C1.43974 12.8958 1.0168 13.8741 0.989121 14.9026C0.961438 15.9311 1.33114 16.9307 2.02138 17.6937C2.71163 18.4567 3.66933 18.9244 4.69546 18.9996C5.72159 19.0747 6.73722 18.7516 7.53128 18.0973L16.2813 24.5173C16.0013 25.2186 15.9254 25.9847 16.0625 26.7272C16.1997 27.4697 16.5442 28.1583 17.0562 28.7132C17.5682 29.2682 18.2268 29.6669 18.9559 29.8632C19.685 30.0595 20.4548 30.0455 21.1763 29.8227C21.8977 29.5999 22.5414 29.1775 23.0328 28.6042C23.5243 28.031 23.8434 27.3303 23.9534 26.5833C24.0633 25.8363 23.9596 25.0734 23.6542 24.3829C23.3488 23.6923 22.8542 23.1023 22.2275 22.6811L25.6513 12.9823C25.7663 12.9923 25.8813 12.9973 25.9963 12.9973C26.7872 12.9972 27.5604 12.7626 28.2181 12.3231C28.8757 11.8837 29.3883 11.2591 29.6911 10.5284C29.9938 9.79766 30.0731 8.99358 29.919 8.21779C29.7648 7.44199 29.3841 6.72931 28.825 6.16983H28.83ZM13.58 4.58358C13.8598 4.3041 14.2162 4.11384 14.6041 4.03685C14.992 3.95986 15.394 3.99959 15.7593 4.15104C16.1247 4.30248 16.4369 4.55882 16.6565 4.88767C16.8762 5.21652 16.9935 5.60311 16.9935 5.99858C16.9935 6.39405 16.8762 6.78064 16.6565 7.10949C16.4369 7.43834 16.1247 7.69469 15.7593 7.84613C15.394 7.99757 14.992 8.0373 14.6041 7.96031C14.2162 7.88332 13.8598 7.69306 13.58 7.41358C13.3944 7.22751 13.2473 7.00667 13.1471 6.7637C13.0468 6.52072 12.9955 6.26038 12.996 5.99755C12.9964 5.73471 13.0487 5.47455 13.1498 5.23193C13.2508 4.98932 13.3987 4.769 13.585 4.58358H13.58ZM3.58003 16.4148C3.39407 16.2291 3.24656 16.0085 3.14591 15.7657C3.04526 15.5229 2.99345 15.2627 2.99345 14.9998C2.99345 14.737 3.04526 14.4767 3.14591 14.234C3.24656 13.9912 3.39407 13.7706 3.58003 13.5848C3.85982 13.3053 4.21619 13.1151 4.60409 13.0381C4.99199 12.9611 5.39401 13.0008 5.75933 13.1523C6.12466 13.3037 6.43688 13.5601 6.65655 13.8889C6.87621 14.2178 6.99345 14.6044 6.99345 14.9998C6.99345 15.3953 6.87621 15.7819 6.65655 16.1107C6.43688 16.4396 6.12466 16.6959 5.75933 16.8474C5.39401 16.9988 4.99199 17.0386 4.60409 16.9616C4.21619 16.8846 3.85982 16.6943 3.58003 16.4148ZM21.4113 27.4148C21.0362 27.7899 20.5274 28.0007 19.9969 28.0007C19.4664 28.0007 18.9576 27.7899 18.5825 27.4148C18.2074 27.0397 17.9967 26.531 17.9967 26.0005C17.9967 25.47 18.2074 24.9612 18.5825 24.5861C18.7683 24.4003 18.9888 24.253 19.2314 24.1525C19.4741 24.052 19.7342 24.0002 19.9969 24.0002C20.2596 24.0002 20.5197 24.052 20.7624 24.1525C21.005 24.253 21.2255 24.4003 21.4113 24.5861C21.597 24.7718 21.7444 24.9923 21.8449 25.235C21.9454 25.4777 21.9971 25.7378 21.9971 26.0005C21.9971 26.2631 21.9454 26.5232 21.8449 26.7659C21.7444 27.0086 21.597 27.2291 21.4113 27.4148ZM20.3425 22.0173C19.3055 21.927 18.2742 22.2445 17.4675 22.9023L8.71753 16.4823C8.92957 15.9474 9.02435 15.3732 8.99545 14.7985C8.96656 14.2238 8.81466 13.662 8.55003 13.1511L12.7938 9.33233C13.2503 9.63493 13.7642 9.84054 14.3034 9.93641C14.8427 10.0323 15.3959 10.0164 15.9288 9.88971C16.4617 9.76302 16.9628 9.52825 17.4013 9.19994C17.8397 8.87162 18.206 8.45677 18.4775 7.98108L22 8.94483C21.9905 9.60977 22.1469 10.2666 22.4551 10.8559C22.7632 11.4452 23.2135 11.9483 23.765 12.3198L20.3425 22.0173ZM27.4125 10.4123C27.2297 10.61 27.0088 10.7686 26.7631 10.8788C26.5175 10.989 26.2521 11.0485 25.9829 11.0537C25.7137 11.0588 25.4462 11.0096 25.1965 10.9089C24.9468 10.8082 24.72 10.6581 24.5297 10.4676C24.3394 10.2771 24.1895 10.0502 24.089 9.80042C23.9885 9.55062 23.9395 9.28311 23.9449 9.01391C23.9503 8.74472 24.01 8.47939 24.1205 8.23382C24.2309 7.98826 24.3897 7.76752 24.5875 7.58483C24.9626 7.20972 25.4714 6.99898 26.0019 6.99898C26.5324 6.99898 27.0412 7.20972 27.4163 7.58483C27.7914 7.95995 28.0021 8.46871 28.0021 8.99921C28.0021 9.5297 27.7914 10.0385 27.4163 10.4136L27.4125 10.4123Z" fill="currentColor"/>
<path d="M76.4762 6.52355C76.1512 6.1985 75.7654 5.94066 75.3407 5.76475C74.916 5.58883 74.4609 5.49829 74.0012 5.49829C73.5416 5.49829 73.0864 5.58883 72.6617 5.76475C72.2371 5.94066 71.8512 6.1985 71.5262 6.52355C71.2151 6.83429 70.9657 7.20118 70.7912 7.6048L66.4712 6.4273C66.5599 5.70435 66.4209 4.97174 66.0735 4.33157C65.7261 3.6914 65.1876 3.17556 64.5331 2.85594C63.8786 2.53633 63.1407 2.42887 62.4222 2.54854C61.7038 2.66821 61.0405 3.00905 60.525 3.52355C59.953 4.09689 59.5972 4.85054 59.5179 5.65649C59.4386 6.46243 59.6407 7.27098 60.09 7.9448L55.2387 12.311C54.5678 11.752 53.7121 11.464 52.8398 11.5036C51.9674 11.5431 51.1413 11.9074 50.5237 12.5248C49.8673 13.1812 49.4985 14.0715 49.4985 14.9998C49.4985 15.9281 49.8673 16.8184 50.5237 17.4748C51.1801 18.1312 52.0704 18.5 52.9987 18.5C53.927 18.5 54.8173 18.1312 55.4737 17.4748L55.4962 17.451L64.9112 24.356C64.5856 24.968 64.449 25.6629 64.5188 26.3526C64.5885 27.0422 64.8616 27.6957 65.3032 28.23C65.7448 28.7643 66.3352 29.1555 66.9994 29.3539C67.6636 29.5522 68.3718 29.5489 69.0341 29.3443C69.6964 29.1397 70.283 28.743 70.7196 28.2045C71.1562 27.6661 71.4231 27.0101 71.4864 26.3198C71.5497 25.6295 71.4065 24.9359 71.0751 24.3271C70.7438 23.7182 70.239 23.2214 69.625 22.8998L73.32 12.431C73.5439 12.4757 73.7716 12.4987 74 12.4998C74.692 12.4996 75.3684 12.2943 75.9438 11.9097C76.5191 11.5252 76.9676 10.9788 77.2324 10.3395C77.4973 9.70015 77.5667 8.99666 77.4319 8.3179C77.2971 7.63915 76.9641 7.0156 76.475 6.52605L76.4762 6.52355ZM61.2325 4.23105C61.5821 3.88152 62.0276 3.64351 62.5125 3.54713C62.9974 3.45075 63.5001 3.50032 63.9568 3.68957C64.4136 3.87882 64.804 4.19925 65.0786 4.61035C65.3533 5.02145 65.4999 5.50476 65.4999 5.99917C65.4999 6.49358 65.3533 6.97689 65.0786 7.38799C64.804 7.79909 64.4136 8.11952 63.9568 8.30877C63.5001 8.49802 62.9974 8.54759 62.5125 8.45121C62.0276 8.35483 61.5821 8.11683 61.2325 7.7673C61.0002 7.53514 60.816 7.25949 60.6903 6.95611C60.5646 6.65273 60.4999 6.32756 60.4999 5.99917C60.4999 5.67078 60.5646 5.34561 60.6903 5.04223C60.816 4.73885 61.0002 4.46321 61.2325 4.23105ZM51.2325 16.7673C50.8828 16.4177 50.6446 15.9722 50.5481 15.4873C50.4515 15.0023 50.501 14.4996 50.6902 14.0427C50.8794 13.5859 51.1998 13.1954 51.611 12.9206C52.0221 12.6459 52.5055 12.4993 53 12.4993C53.4944 12.4993 53.9778 12.6459 54.389 12.9206C54.8001 13.1954 55.1205 13.5859 55.3097 14.0427C55.4989 14.4996 55.5484 15.0023 55.4519 15.4873C55.3553 15.9722 55.1172 16.4177 54.7675 16.7673C54.5353 16.9995 54.2597 17.1838 53.9563 17.3095C53.6529 17.4352 53.3277 17.4999 52.9993 17.4999C52.6709 17.4999 52.3458 17.4352 52.0424 17.3095C51.739 17.1838 51.4634 16.9995 51.2312 16.7673H51.2325ZM69.77 27.7673C69.4204 28.117 68.9749 28.3552 68.4899 28.4517C68.005 28.5482 67.5023 28.4988 67.0454 28.3096C66.5885 28.1204 66.198 27.7999 65.9233 27.3888C65.6486 26.9777 65.5019 26.4943 65.5019 25.9998C65.5019 25.5053 65.6486 25.0219 65.9233 24.6108C66.198 24.1997 66.5885 23.8792 67.0454 23.69C67.5023 23.5008 68.005 23.4514 68.4899 23.5479C68.9749 23.6444 69.4204 23.8826 69.77 24.2323C70.0021 24.4645 70.1863 24.7402 70.3119 25.0437C70.4375 25.3471 70.502 25.6723 70.5019 26.0007C70.5018 26.3291 70.437 26.6542 70.3112 26.9576C70.1854 27.2609 70.001 27.5365 69.7687 27.7685L69.77 27.7673ZM68.6825 22.5673C68.1182 22.4552 67.535 22.4839 66.9845 22.6509C66.434 22.818 65.9331 23.1181 65.5262 23.5248L65.5037 23.5485L56.0887 16.6448C56.3847 16.0854 56.5242 15.4565 56.4925 14.8244C56.4608 14.1924 56.2591 13.5805 55.9087 13.0535L60.76 8.6873C61.1777 9.03517 61.6707 9.28096 62.1999 9.40519C62.7291 9.52942 63.28 9.52867 63.8089 9.403C64.3378 9.27733 64.8301 9.0302 65.2469 8.68119C65.6636 8.33218 65.9934 7.89089 66.21 7.3923L70.53 8.57105C70.4651 9.09903 70.5215 9.63485 70.6948 10.1378C70.868 10.6407 71.1537 11.0975 71.53 11.4735C71.7796 11.7242 72.0663 11.935 72.38 12.0985L68.6825 22.5673ZM75.77 10.766C75.4203 11.1156 74.9748 11.3536 74.4899 11.45C74.005 11.5463 73.5024 11.4968 73.0456 11.3075C72.5889 11.1183 72.1985 10.7978 71.9238 10.3867C71.6492 9.97564 71.5026 9.49233 71.5026 8.99792C71.5026 8.50351 71.6492 8.0202 71.9238 7.6091C72.1985 7.198 72.5889 6.87757 73.0456 6.68832C73.5024 6.49907 74.005 6.4495 74.4899 6.54588C74.9748 6.64226 75.4203 6.88027 75.77 7.2298C76.0023 7.46206 76.1866 7.73785 76.3123 8.04139C76.438 8.34493 76.5027 8.67027 76.5026 8.9988C76.5024 9.32734 76.4376 9.65264 76.3116 9.95609C76.1857 10.2595 76.0012 10.5352 75.7687 10.7673L75.77 10.766Z" fill="currentColor"/>
<path d="M124.654 6.34729C124.306 5.99882 123.892 5.72238 123.437 5.53378C122.982 5.34517 122.494 5.24809 122.001 5.24809C121.509 5.24809 121.021 5.34517 120.566 5.53378C120.111 5.72238 119.697 5.99882 119.349 6.34729C119.067 6.62856 118.833 6.95308 118.654 7.30854L114.74 6.24104C114.789 5.48047 114.605 4.72297 114.213 4.06945C113.821 3.41593 113.239 2.89743 112.545 2.583C111.851 2.26858 111.077 2.17318 110.327 2.3095C109.577 2.44582 108.887 2.80739 108.348 3.34604C107.762 3.93444 107.387 4.70022 107.282 5.52396C107.176 6.34769 107.347 7.18307 107.766 7.89979L103.229 11.9835C102.506 11.4509 101.616 11.1947 100.72 11.2614C99.8246 11.3282 98.9825 11.7134 98.3463 12.3473C97.6418 13.0368 97.2372 13.976 97.2199 14.9616C97.2027 15.9472 97.5742 16.9 98.2541 17.6137C98.934 18.3275 99.8676 18.7448 100.853 18.7754C101.838 18.806 102.796 18.4475 103.519 17.7773L112.594 24.4335C112.308 25.0561 112.197 25.7451 112.275 26.4258C112.353 27.1066 112.616 27.753 113.035 28.2949C113.454 28.8368 114.014 29.2535 114.653 29.4997C115.293 29.7459 115.987 29.8122 116.662 29.6915C117.336 29.5707 117.965 29.2674 118.479 28.8146C118.993 28.3618 119.374 27.7768 119.579 27.1231C119.784 26.4693 119.806 25.7719 119.643 25.1064C119.48 24.441 119.137 23.833 118.653 23.3485C118.436 23.132 118.194 22.943 117.931 22.786L121.486 12.7123C121.657 12.736 121.828 12.7485 122 12.7498C122.741 12.7496 123.466 12.5297 124.083 12.1178C124.699 11.7059 125.18 11.1205 125.463 10.4356C125.747 9.75065 125.822 8.99695 125.677 8.26973C125.533 7.5425 125.176 6.87438 124.653 6.34979L124.654 6.34729ZM109.404 4.40729C109.718 4.0927 110.119 3.87848 110.556 3.79172C110.992 3.70497 111.445 3.74957 111.856 3.91989C112.267 4.0902 112.618 4.37859 112.865 4.74859C113.113 5.11858 113.245 5.55357 113.245 5.99854C113.245 6.44352 113.113 6.87851 112.865 7.2485C112.618 7.61849 112.267 7.90688 111.856 8.0772C111.445 8.24752 110.992 8.29212 110.556 8.20536C110.119 8.11861 109.718 7.90439 109.404 7.58979C109.195 7.38052 109.03 7.13219 108.917 6.85898C108.804 6.58578 108.747 6.29304 108.747 5.99751C108.747 5.70197 108.806 5.40942 108.92 5.13657C109.033 4.86372 109.199 4.61591 109.409 4.40729H109.404ZM99.4038 16.591C99.0892 16.2763 98.875 15.8754 98.7882 15.439C98.7015 15.0026 98.7461 14.5502 98.9164 14.1391C99.0867 13.728 99.3751 13.3767 99.7451 13.1295C100.115 12.8823 100.55 12.7503 100.995 12.7503C101.44 12.7503 101.875 12.8823 102.245 13.1295C102.615 13.3767 102.903 13.728 103.074 14.1391C103.244 14.5502 103.289 15.0026 103.202 15.439C103.115 15.8754 102.901 16.2763 102.586 16.591C102.164 17.012 101.593 17.2484 100.997 17.2484C100.401 17.2484 99.8294 17.012 99.4075 16.591H99.4038ZM117.588 27.591C117.273 27.9056 116.872 28.1199 116.435 28.2066C115.999 28.2934 115.547 28.2488 115.136 28.0785C114.725 27.9081 114.373 27.6197 114.126 27.2498C113.879 26.8798 113.747 26.4448 113.747 25.9998C113.747 25.5548 113.879 25.1198 114.126 24.7498C114.373 24.3798 114.725 24.0915 115.136 23.9211C115.547 23.7508 115.999 23.7062 116.435 23.793C116.872 23.8797 117.273 24.094 117.588 24.4085C117.797 24.6173 117.963 24.8652 118.077 25.1382C118.19 25.4112 118.249 25.704 118.249 25.9996C118.25 26.2953 118.192 26.5882 118.079 26.8615C117.966 27.1347 117.8 27.3831 117.591 27.5923L117.588 27.591ZM116.511 22.2873C115.968 22.2118 115.415 22.2564 114.891 22.4179C114.366 22.5795 113.884 22.8541 113.478 23.2223L104.405 16.5673C104.657 16.0177 104.772 15.4156 104.742 14.8119C104.712 14.2081 104.537 13.6205 104.233 13.0985L108.77 9.01479C109.209 9.33938 109.714 9.5642 110.249 9.67353C110.783 9.78285 111.336 9.77406 111.867 9.64776C112.398 9.52145 112.895 9.28069 113.324 8.94228C113.752 8.60388 114.102 8.176 114.348 7.68854L118.261 8.75604C118.226 9.28817 118.305 9.82165 118.493 10.3209C118.68 10.8201 118.972 11.2736 119.349 11.651C119.566 11.8674 119.809 12.0566 120.071 12.2148L116.511 22.2873ZM123.589 10.5885C123.274 10.9031 122.873 11.1174 122.437 11.2041C122 11.2909 121.548 11.2463 121.137 11.076C120.726 10.9056 120.374 10.6172 120.127 10.2473C119.88 9.87726 119.748 9.44227 119.748 8.99729C119.748 8.55232 119.88 8.11733 120.127 7.74734C120.374 7.37734 120.726 7.08895 121.137 6.91863C121.548 6.74832 122 6.70372 122.437 6.79047C122.873 6.87723 123.274 7.09145 123.589 7.40604C123.798 7.61476 123.964 7.86272 124.078 8.13573C124.192 8.40874 124.25 8.70146 124.251 8.99714C124.251 9.29283 124.193 9.58568 124.08 9.85896C123.967 10.1322 123.801 10.3806 123.593 10.5898L123.589 10.5885Z" fill="currentColor"/>
<path d="M173.184 12.1814C174.028 11.3374 174.502 10.1926 174.502 8.99894C174.502 7.80528 174.028 6.6605 173.184 5.81644C172.766 5.39851 172.27 5.06699 171.724 4.84081C171.177 4.61463 170.592 4.49821 170.001 4.49821C168.808 4.49821 167.663 4.97239 166.819 5.81644C166.629 6.00698 166.457 6.21405 166.304 6.43519L163.485 5.66645C163.421 4.80751 163.112 3.98497 162.594 3.29649C162.077 2.60802 161.373 2.08254 160.565 1.78245C159.758 1.48236 158.881 1.42027 158.04 1.60356C157.198 1.78684 156.427 2.2078 155.817 2.81645C155.189 3.44637 154.761 4.24836 154.587 5.12128C154.414 5.9942 154.502 6.89896 154.842 7.72145L151.149 11.0464C150.295 10.584 149.315 10.4093 148.355 10.5482C147.394 10.6872 146.504 11.1324 145.816 11.8177C145.023 12.6099 144.554 13.6698 144.501 14.7897C144.448 15.9097 144.815 17.009 145.53 17.8725C146.245 18.736 147.257 19.3013 148.367 19.4579C149.478 19.6145 150.606 19.351 151.532 18.7189L159.692 24.7027C159.457 25.4841 159.438 26.3148 159.638 27.106C159.839 27.8971 160.25 28.6189 160.829 29.1941C161.408 29.7693 162.133 30.1762 162.925 30.3713C163.718 30.5663 164.548 30.5422 165.328 30.3015C166.108 30.0608 166.808 29.6125 167.352 29.0047C167.897 28.3969 168.266 27.6524 168.42 26.851C168.574 26.0495 168.507 25.2213 168.227 24.4549C167.946 23.6885 167.462 23.0128 166.827 22.5002L170 13.5002C170.591 13.5009 171.177 13.3848 171.723 13.1585C172.27 12.9322 172.766 12.6002 173.184 12.1814ZM161.466 22.2827L153.306 16.2989C153.604 15.3043 153.551 14.2376 153.155 13.2777L156.85 9.95145C157.703 10.4156 158.683 10.5915 159.644 10.4527C160.605 10.3139 161.496 9.86796 162.182 9.18144C162.373 8.98926 162.545 8.78005 162.697 8.55644L165.516 9.32519C165.593 10.401 166.056 11.4128 166.819 12.1752C166.932 12.2895 167.051 12.398 167.175 12.5002L164 21.5002C163.096 21.5006 162.213 21.7733 161.466 22.2827ZM171.062 7.9377C171.272 8.14768 171.414 8.41496 171.472 8.70579C171.529 8.99662 171.499 9.29795 171.385 9.57174C171.272 9.84553 171.079 10.0795 170.833 10.2441C170.586 10.4087 170.296 10.4965 170 10.4965C169.703 10.4965 169.414 10.4087 169.167 10.2441C168.921 10.0795 168.728 9.84553 168.615 9.57174C168.501 9.29795 168.471 8.99662 168.528 8.70579C168.586 8.41496 168.728 8.14768 168.937 7.9377C169.077 7.79785 169.242 7.6869 169.425 7.61119C169.607 7.53548 169.803 7.49651 170 7.49651C170.197 7.49651 170.393 7.53548 170.575 7.61119C170.758 7.6869 170.923 7.79785 171.062 7.9377ZM157.937 4.9377C158.147 4.72844 158.415 4.58609 158.706 4.52864C158.996 4.47118 159.298 4.50119 159.571 4.61487C159.845 4.72856 160.079 4.92082 160.244 5.16738C160.408 5.41394 160.496 5.70374 160.496 6.0002C160.496 6.29665 160.408 6.58645 160.244 6.83301C160.079 7.07957 159.845 7.27183 159.571 7.38552C159.298 7.4992 158.996 7.52921 158.706 7.47175C158.415 7.4143 158.147 7.27195 157.937 7.0627C157.798 6.92326 157.687 6.7576 157.611 6.57523C157.536 6.39286 157.497 6.19736 157.497 5.99994C157.497 5.80251 157.536 5.60706 157.612 5.42478C157.688 5.24249 157.799 5.07697 157.939 4.9377H157.937ZM147.937 16.0627C147.728 15.8527 147.586 15.5854 147.528 15.2946C147.471 15.0038 147.501 14.7024 147.615 14.4287C147.728 14.1549 147.921 13.9209 148.167 13.7563C148.414 13.5917 148.703 13.5039 149 13.5039C149.296 13.5039 149.586 13.5917 149.833 13.7563C150.079 13.9209 150.272 14.1549 150.385 14.4287C150.499 14.7024 150.529 15.0038 150.472 15.2946C150.414 15.5854 150.272 15.8527 150.062 16.0627C149.923 16.2025 149.757 16.3133 149.575 16.3889C149.393 16.4645 149.197 16.5034 149 16.5033C148.802 16.5031 148.607 16.4641 148.425 16.3882C148.242 16.3124 148.077 16.2014 147.937 16.0614V16.0627ZM165.062 27.0627C164.852 27.272 164.585 27.4143 164.294 27.4718C164.004 27.5292 163.702 27.4992 163.428 27.3855C163.155 27.2718 162.921 27.0796 162.756 26.833C162.591 26.5864 162.504 26.2966 162.504 26.0002C162.504 25.7037 162.591 25.4139 162.756 25.1674C162.921 24.9208 163.155 24.7286 163.428 24.6149C163.702 24.5012 164.004 24.4712 164.294 24.5286C164.585 24.5861 164.852 24.7284 165.062 24.9377C165.202 25.0771 165.313 25.2428 165.389 25.4252C165.464 25.6075 165.503 25.803 165.503 26.0005C165.503 26.1979 165.464 26.3933 165.388 26.5756C165.312 26.7579 165.201 26.9234 165.061 27.0627H165.062Z" fill="currentColor"/>
<path d="M220.83 6.16983C220.458 5.7983 220.017 5.50358 219.532 5.3025C219.047 5.10143 218.527 4.99794 218.001 4.99794C217.476 4.99794 216.956 5.10143 216.47 5.3025C215.985 5.50358 215.544 5.7983 215.172 6.16983C214.921 6.42145 214.704 6.70564 214.527 7.01483L211 6.05233C211.011 5.25653 210.784 4.47557 210.349 3.80935C209.913 3.14312 209.289 2.62192 208.556 2.31242C207.823 2.00291 207.014 1.91917 206.233 2.07191C205.452 2.22465 204.734 2.60692 204.171 3.16983C203.57 3.772 203.177 4.54969 203.047 5.39036C202.918 6.23104 203.059 7.0911 203.451 7.84608L199.209 11.6648C198.439 11.1561 197.517 10.9286 196.599 11.0209C195.681 11.1131 194.823 11.5194 194.17 12.1711C193.44 12.8958 193.017 13.8741 192.989 14.9026C192.961 15.9311 193.331 16.9307 194.021 17.6937C194.712 18.4567 195.669 18.9244 196.695 18.9996C197.721 19.0747 198.737 18.7516 199.531 18.0973L208.281 24.5173C208.001 25.2186 207.925 25.9847 208.062 26.7272C208.2 27.4697 208.544 28.1583 209.056 28.7132C209.568 29.2682 210.227 29.6669 210.956 29.8632C211.685 30.0595 212.455 30.0455 213.176 29.8227C213.898 29.5999 214.541 29.1775 215.033 28.6042C215.524 28.031 215.843 27.3303 215.953 26.5833C216.063 25.8363 215.96 25.0734 215.654 24.3829C215.349 23.6923 214.854 23.1023 214.227 22.6811L217.651 12.9823C217.766 12.9923 217.881 12.9973 217.996 12.9973C218.787 12.9972 219.56 12.7626 220.218 12.3231C220.876 11.8837 221.388 11.2591 221.691 10.5284C221.994 9.79766 222.073 8.99358 221.919 8.21779C221.765 7.44199 221.384 6.72931 220.825 6.16983H220.83ZM212.346 22.0186C211.309 21.9283 210.278 22.2457 209.471 22.9036L200.721 16.4836C200.933 15.9487 201.028 15.3745 200.999 14.7998C200.97 14.2251 200.818 13.6633 200.554 13.1523L204.797 9.33358C205.254 9.63618 205.768 9.84179 206.307 9.93766C206.846 10.0335 207.4 10.0176 207.932 9.89096C208.465 9.76427 208.966 9.5295 209.405 9.20119C209.843 8.87287 210.21 8.45802 210.481 7.98233L214 8.94483C213.99 9.60977 214.147 10.2666 214.455 10.8559C214.763 11.4452 215.213 11.9483 215.765 12.3198L212.346 22.0186Z" fill="currentColor"/>
<path opacity="0.2" d="M257.125 8.125C256.705 8.54352 256.17 8.8282 255.589 8.94312C255.007 9.05803 254.404 8.99801 253.857 8.77064C253.309 8.54327 252.841 8.15875 252.512 7.66563C252.183 7.17251 252.007 6.5929 252.007 6C252.007 5.4071 252.183 4.8275 252.512 4.33437C252.841 3.84125 253.309 3.45673 253.857 3.22936C254.404 3.00199 255.007 2.94197 255.589 3.05689C256.17 3.1718 256.705 3.45649 257.125 3.875C257.405 4.15371 257.627 4.48489 257.778 4.84955C257.929 5.2142 258.007 5.60516 258.007 6C258.007 6.39484 257.929 6.7858 257.778 7.15046C257.627 7.51511 257.405 7.84629 257.125 8.125ZM242.875 12.875C242.456 13.295 242.172 13.8295 242.057 14.4112C241.942 14.9929 242.002 15.5955 242.229 16.1431C242.457 16.6907 242.841 17.1586 243.334 17.4878C243.827 17.817 244.407 17.9926 245 17.9926C245.593 17.9926 246.173 17.817 246.666 17.4878C247.159 17.1586 247.543 16.6907 247.771 16.1431C247.998 15.5955 248.058 14.9929 247.943 14.4112C247.828 13.8295 247.544 13.295 247.125 12.875C246.846 12.5953 246.515 12.3734 246.15 12.222C245.786 12.0706 245.395 11.9926 245 11.9926C244.605 11.9926 244.214 12.0706 243.85 12.222C243.485 12.3734 243.154 12.5953 242.875 12.875ZM257.875 23.875C257.456 24.295 257.172 24.8295 257.057 25.4112C256.942 25.9929 257.002 26.5955 257.229 27.1431C257.457 27.6907 257.841 28.1586 258.334 28.4878C258.827 28.817 259.407 28.9926 260 28.9926C260.593 28.9926 261.173 28.817 261.666 28.4878C262.159 28.1586 262.543 27.6907 262.771 27.1431C262.998 26.5955 263.058 25.9929 262.943 25.4112C262.828 24.8295 262.544 24.295 262.125 23.875C261.846 23.5953 261.515 23.3734 261.15 23.222C260.786 23.0706 260.395 22.9926 260 22.9926C259.605 22.9926 259.214 23.0706 258.85 23.222C258.485 23.3734 258.154 23.5953 257.875 23.875ZM268.125 6.875C267.705 6.45649 267.17 6.1718 266.589 6.05689C266.007 5.94197 265.404 6.00199 264.857 6.22936C264.309 6.45673 263.841 6.84125 263.512 7.33437C263.183 7.8275 263.007 8.4071 263.007 9C263.007 9.5929 263.183 10.1725 263.512 10.6656C263.841 11.1588 264.309 11.5433 264.857 11.7706C265.404 11.998 266.007 12.058 266.589 11.9431C267.17 11.8282 267.705 11.5435 268.125 11.125C268.405 10.8463 268.627 10.5151 268.778 10.1505C268.929 9.7858 269.007 9.39484 269.007 9C269.007 8.60516 268.929 8.2142 268.778 7.84955C268.627 7.48489 268.405 7.15371 268.125 6.875Z" fill="currentColor"/>
<path d="M268.83 6.16983C268.458 5.7983 268.017 5.50358 267.532 5.3025C267.047 5.10143 266.527 4.99794 266.001 4.99794C265.476 4.99794 264.956 5.10143 264.47 5.3025C263.985 5.50358 263.544 5.7983 263.172 6.16983C262.921 6.42145 262.704 6.70564 262.527 7.01483L259 6.05233C259.011 5.25653 258.784 4.47557 258.349 3.80935C257.913 3.14312 257.289 2.62192 256.556 2.31242C255.823 2.00291 255.014 1.91917 254.233 2.07191C253.452 2.22465 252.734 2.60692 252.171 3.16983C251.57 3.772 251.177 4.54969 251.047 5.39036C250.918 6.23104 251.059 7.0911 251.451 7.84608L247.209 11.6648C246.439 11.1561 245.517 10.9286 244.599 11.0209C243.681 11.1131 242.823 11.5194 242.17 12.1711C241.44 12.8958 241.017 13.8741 240.989 14.9026C240.961 15.9311 241.331 16.9307 242.021 17.6937C242.712 18.4567 243.669 18.9244 244.695 18.9996C245.721 19.0747 246.737 18.7516 247.531 18.0973L256.281 24.5173C256.001 25.2186 255.925 25.9847 256.062 26.7272C256.2 27.4697 256.544 28.1583 257.056 28.7132C257.568 29.2682 258.227 29.6669 258.956 29.8632C259.685 30.0595 260.455 30.0455 261.176 29.8227C261.898 29.5999 262.541 29.1775 263.033 28.6042C263.524 28.031 263.843 27.3303 263.953 26.5833C264.063 25.8363 263.96 25.0734 263.654 24.3829C263.349 23.6923 262.854 23.1023 262.227 22.6811L265.651 12.9823C265.766 12.9923 265.881 12.9973 265.996 12.9973C266.787 12.9972 267.56 12.7626 268.218 12.3231C268.876 11.8837 269.388 11.2591 269.691 10.5284C269.994 9.79766 270.073 8.99358 269.919 8.21779C269.765 7.44199 269.384 6.72931 268.825 6.16983H268.83ZM253.58 4.58358C253.86 4.3041 254.216 4.11384 254.604 4.03685C254.992 3.95986 255.394 3.99959 255.759 4.15104C256.125 4.30248 256.437 4.55882 256.656 4.88767C256.876 5.21652 256.993 5.60311 256.993 5.99858C256.993 6.39405 256.876 6.78064 256.656 7.10949C256.437 7.43834 256.125 7.69469 255.759 7.84613C255.394 7.99757 254.992 8.0373 254.604 7.96031C254.216 7.88332 253.86 7.69306 253.58 7.41358C253.394 7.22751 253.247 7.00667 253.147 6.7637C253.047 6.52072 252.995 6.26038 252.996 5.99755C252.996 5.73471 253.049 5.47455 253.15 5.23193C253.251 4.98932 253.399 4.769 253.585 4.58358H253.58ZM243.58 16.4148C243.394 16.2291 243.246 16.0085 243.146 15.7657C243.045 15.5229 242.993 15.2627 242.993 14.9998C242.993 14.737 243.045 14.4767 243.146 14.234C243.246 13.9912 243.394 13.7706 243.58 13.5848C243.86 13.3053 244.216 13.1151 244.604 13.0381C244.992 12.9611 245.394 13.0008 245.759 13.1523C246.125 13.3037 246.437 13.5601 246.656 13.8889C246.876 14.2178 246.993 14.6044 246.993 14.9998C246.993 15.3953 246.876 15.7819 246.656 16.1107C246.437 16.4396 246.125 16.6959 245.759 16.8474C245.394 16.9988 244.992 17.0386 244.604 16.9616C244.216 16.8846 243.86 16.6943 243.58 16.4148ZM261.411 27.4148C261.036 27.7899 260.527 28.0007 259.997 28.0007C259.466 28.0007 258.958 27.7899 258.582 27.4148C258.207 27.0397 257.997 26.531 257.997 26.0005C257.997 25.47 258.207 24.9612 258.582 24.5861C258.768 24.4003 258.989 24.253 259.231 24.1525C259.474 24.052 259.734 24.0002 259.997 24.0002C260.259 24.0002 260.52 24.052 260.762 24.1525C261.005 24.253 261.225 24.4003 261.411 24.5861C261.597 24.7718 261.744 24.9923 261.845 25.235C261.945 25.4777 261.997 25.7378 261.997 26.0005C261.997 26.2631 261.945 26.5232 261.845 26.7659C261.744 27.0086 261.597 27.2291 261.411 27.4148ZM260.342 22.0173C259.305 21.927 258.274 22.2445 257.467 22.9023L248.717 16.4823C248.929 15.9474 249.024 15.3732 248.995 14.7985C248.966 14.2238 248.815 13.662 248.55 13.1511L252.794 9.33233C253.25 9.63493 253.764 9.84054 254.303 9.93641C254.843 10.0323 255.396 10.0164 255.929 9.88971C256.462 9.76302 256.963 9.52825 257.401 9.19994C257.84 8.87162 258.206 8.45677 258.477 7.98108L262 8.94483C261.99 9.60977 262.147 10.2666 262.455 10.8559C262.763 11.4452 263.213 11.9483 263.765 12.3198L260.342 22.0173ZM267.412 10.4123C267.23 10.61 267.009 10.7686 266.763 10.8788C266.517 10.989 266.252 11.0485 265.983 11.0537C265.714 11.0588 265.446 11.0096 265.196 10.9089C264.947 10.8082 264.72 10.6581 264.53 10.4676C264.339 10.2771 264.189 10.0502 264.089 9.80042C263.988 9.55062 263.939 9.28311 263.945 9.01391C263.95 8.74472 264.01 8.47939 264.12 8.23382C264.231 7.98826 264.39 7.76752 264.587 7.58483C264.963 7.20972 265.471 6.99898 266.002 6.99898C266.532 6.99898 267.041 7.20972 267.416 7.58483C267.791 7.95995 268.002 8.46871 268.002 8.99921C268.002 9.5297 267.791 10.0385 267.416 10.4136L267.412 10.4123Z" fill="currentColor"/>
</g>
<defs>
<clipPath id="clip0_17_13847">
<rect width="272" height="32" rx="5" fill="white"/>
</clipPath>
</defs>
</svg>
