<svg width="272" height="32" viewBox="0 0 272 32" fill="none" xmlns="http://www.w3.org/2000/svg">
<g clip-path="url(#clip0_17_13791)">
<path d="M19.7162 14.1412C19.6419 14.0327 19.5897 13.9107 19.5626 13.782C19.5355 13.6533 19.5341 13.5206 19.5583 13.3914C19.5826 13.2622 19.6321 13.139 19.704 13.0289C19.7759 12.9188 19.8689 12.824 19.9775 12.7499L28.435 6.96243C28.654 6.8269 28.9169 6.78114 29.1689 6.83467C29.4209 6.8882 29.6425 7.03691 29.7875 7.24979C29.9326 7.46268 29.9899 7.72332 29.9475 7.9774C29.9051 8.23149 29.7663 8.45941 29.56 8.61368L21.1012 14.4012C20.9355 14.5155 20.7388 14.5765 20.5375 14.5762C20.3756 14.5756 20.2163 14.5356 20.0732 14.4599C19.9302 14.3841 19.8077 14.2747 19.7162 14.1412ZM29.825 24.7774C29.6751 24.9962 29.4445 25.1465 29.1838 25.1953C28.9231 25.244 28.6538 25.1873 28.435 25.0374L17 17.2124L11.6862 20.8474C12.0916 21.877 12.1035 23.0199 11.7196 24.0577C11.3356 25.0954 10.5828 25.9554 9.60487 26.4732C8.62696 26.9909 7.49256 27.1303 6.41842 26.8645C5.34427 26.5988 4.4057 25.9466 3.78203 25.0325C3.15836 24.1185 2.89332 23.0068 3.03755 21.9097C3.18178 20.8126 3.72517 19.8071 4.56389 19.0853C5.40262 18.3636 6.47787 17.9761 7.5842 17.997C8.69053 18.0179 9.75037 18.4457 10.5612 19.1987L15.2287 15.9999L10.555 12.8012C9.74686 13.5503 8.69116 13.9754 7.58946 13.9955C6.48776 14.0156 5.41726 13.6292 4.58237 12.9101C3.74749 12.191 3.20673 11.1896 3.06335 10.097C2.91996 9.00453 3.18401 7.89748 3.80506 6.98729C4.42611 6.07711 5.36065 5.42756 6.43023 5.16269C7.4998 4.89782 8.62946 5.03618 9.6035 5.55136C10.5775 6.06654 11.3277 6.92243 11.7107 7.9556C12.0937 8.98877 12.0828 10.1268 11.68 11.1524L29.555 23.3862C29.6643 23.4596 29.758 23.5539 29.8308 23.6637C29.9035 23.7734 29.9539 23.8965 29.979 24.0257C30.0041 24.155 30.0034 24.2879 29.9769 24.4169C29.9505 24.5459 29.8989 24.6684 29.825 24.7774ZM9.99997 22.4999C10.0001 21.9215 9.79966 21.361 9.43282 20.9138C9.06598 20.4666 8.55544 20.1605 7.98818 20.0475C7.42092 19.9346 6.83205 20.0218 6.3219 20.2944C5.81175 20.5669 5.41188 21.0079 5.19044 21.5423C4.96901 22.0766 4.93969 22.6712 5.10749 23.2247C5.27529 23.7782 5.62983 24.2564 6.1107 24.5778C6.59156 24.8993 7.169 25.044 7.74462 24.9874C8.32024 24.9308 8.85842 24.6764 9.26747 24.2674C9.50047 24.036 9.68519 23.7605 9.81093 23.4571C9.93667 23.1537 10.0009 22.8284 9.99997 22.4999ZM9.26747 11.2662C9.61718 10.9166 9.85535 10.4711 9.95188 9.98615C10.0484 9.50118 9.99894 8.99847 9.80974 8.54161C9.62054 8.08475 9.30011 7.69426 8.88897 7.41953C8.47783 7.14479 7.99445 6.99815 7.49997 6.99815C7.00548 6.99815 6.5221 7.14479 6.11097 7.41953C5.69983 7.69426 5.3794 8.08475 5.1902 8.54161C5.001 8.99847 4.95154 9.50118 5.04806 9.98615C5.14459 10.4711 5.38276 10.9166 5.73247 11.2662C5.96333 11.5005 6.23849 11.6866 6.54192 11.8136C6.84536 11.9406 7.17102 12.006 7.49997 12.006C7.82892 12.006 8.15458 11.9406 8.45801 11.8136C8.76145 11.6866 9.0366 11.5005 9.26747 11.2662Z" fill="currentColor"/>
<path d="M68.125 13.8587C68.088 13.8045 68.062 13.7435 68.0486 13.6792C68.0351 13.6149 68.0345 13.5486 68.0467 13.484C68.0589 13.4195 68.0836 13.358 68.1196 13.303C68.1556 13.2481 68.202 13.2007 68.2563 13.1637L76.7175 7.37499C76.8271 7.30006 76.9619 7.27174 77.0924 7.29623C77.2229 7.32073 77.3382 7.39605 77.4132 7.50561C77.4881 7.61518 77.5164 7.75002 77.4919 7.88048C77.4674 8.01093 77.3921 8.12631 77.2825 8.20124L68.8238 13.9887C68.715 14.0641 68.5807 14.0933 68.4504 14.0699C68.3202 14.0465 68.2045 13.9723 68.1288 13.8637L68.125 13.8587ZM77.4125 24.5C77.3368 24.6086 77.2212 24.6827 77.0909 24.7062C76.9606 24.7296 76.8263 24.7004 76.7175 24.625L65 16.6062L59.0588 20.6725C59.5196 21.568 59.6255 22.6044 59.3556 23.5747C59.0856 24.545 58.4596 25.3777 57.6025 25.9066C56.7455 26.4355 55.7204 26.6216 54.7321 26.4277C53.7438 26.2339 52.865 25.6744 52.2712 24.861C51.6774 24.0475 51.4123 23.04 51.5288 22.0397C51.6454 21.0393 52.135 20.1197 52.8999 19.4646C53.6648 18.8094 54.6487 18.4669 55.655 18.5054C56.6614 18.544 57.6162 18.9607 58.3288 19.6725C58.385 19.7287 58.44 19.7875 58.4925 19.8475L64.1175 16L58.4925 12.1525C58.44 12.2125 58.385 12.2775 58.3288 12.3275C57.619 13.0355 56.6684 13.4497 55.6666 13.4876C54.6649 13.5254 53.6857 13.1841 52.9245 12.5317C52.1634 11.8793 51.6763 10.9638 51.5604 9.96805C51.4446 8.97229 51.7086 7.96946 52.2997 7.15977C52.8907 6.35008 53.7654 5.79309 54.7491 5.59999C55.7328 5.40688 56.7532 5.59187 57.6065 6.11802C58.4598 6.64417 59.0833 7.47278 59.3525 8.43844C59.6217 9.4041 59.5168 10.4358 59.0588 11.3275L65.27 15.5775L77.2813 23.7975C77.3366 23.8345 77.384 23.8822 77.4206 23.9378C77.4572 23.9934 77.4824 24.0557 77.4946 24.1211C77.5068 24.1866 77.5059 24.2538 77.4918 24.3188C77.4777 24.3839 77.4507 24.4455 77.4125 24.5ZM57.625 11.625C57.755 11.4951 57.873 11.3536 57.9775 11.2025C58.4155 10.567 58.5918 9.78716 58.4696 9.02509C58.3475 8.26301 57.9363 7.57733 57.3216 7.11061C56.7069 6.64389 55.9359 6.43203 55.1691 6.51909C54.4022 6.60615 53.6983 6.98542 53.2039 7.57805C52.7095 8.17068 52.4624 8.93108 52.5142 9.70115C52.566 10.4712 52.9125 11.1917 53.4818 11.7128C54.0512 12.234 54.7994 12.5156 55.571 12.4993C56.3427 12.4829 57.0783 12.1698 57.625 11.625ZM58.5 22.5C58.502 21.8983 58.3211 21.3103 57.9813 20.8137V20.8062C57.8759 20.6519 57.7567 20.5076 57.625 20.375C57.2051 19.9565 56.6705 19.6718 56.0888 19.5569C55.5072 19.442 54.9045 19.502 54.3569 19.7293C53.8094 19.9567 53.3415 20.3412 53.0123 20.8344C52.6831 21.3275 52.5074 21.9071 52.5074 22.5C52.5074 23.0929 52.6831 23.6725 53.0123 24.1656C53.3415 24.6587 53.8094 25.0433 54.3569 25.2706C54.9045 25.498 55.5072 25.558 56.0888 25.4431C56.6705 25.3282 57.2051 25.0435 57.625 24.625C57.9042 24.3463 58.1253 24.015 58.2755 23.6502C58.4257 23.2854 58.502 22.8945 58.5 22.5Z" fill="currentColor"/>
<path d="M115.923 14.0001C115.867 13.9188 115.828 13.8273 115.808 13.7309C115.787 13.6345 115.786 13.535 115.805 13.4382C115.823 13.3414 115.86 13.2492 115.914 13.1667C115.968 13.0842 116.037 13.0132 116.119 12.9576L124.576 7.16888C124.741 7.0565 124.943 7.01397 125.138 7.05066C125.334 7.08734 125.507 7.20024 125.619 7.36451C125.732 7.52878 125.774 7.73096 125.738 7.92659C125.701 8.12221 125.588 8.29525 125.424 8.40763L116.965 14.1951C116.801 14.3075 116.599 14.3501 116.403 14.3135C116.208 14.277 116.035 14.1642 115.923 14.0001ZM125.625 24.6364C125.513 24.8005 125.34 24.9132 125.144 24.9498C124.949 24.9863 124.747 24.9438 124.583 24.8314L113 16.9089L107.375 20.7576C107.814 21.7231 107.876 22.8179 107.549 23.8268C107.222 24.8357 106.53 25.686 105.608 26.2105C104.686 26.735 103.601 26.8959 102.567 26.6615C101.533 26.4272 100.623 25.8146 100.018 24.944C99.4118 24.0734 99.1534 23.0078 99.2932 21.9565C99.4329 20.9051 99.9608 19.944 100.773 19.262C101.585 18.5799 102.623 18.2262 103.683 18.2702C104.742 18.3143 105.747 18.753 106.5 19.5001C106.507 19.5091 106.515 19.5174 106.524 19.5251L111.671 16.0001L106.529 12.4801L106.5 12.5001C105.748 13.2482 104.744 13.6882 103.685 13.7339C102.625 13.7795 101.587 13.4274 100.774 12.7468C99.9609 12.0662 99.4316 11.1061 99.29 10.0552C99.1484 9.0043 99.4048 7.93842 100.009 7.06686C100.613 6.19531 101.521 5.58105 102.555 5.34471C103.588 5.10836 104.673 5.267 105.596 5.78948C106.519 6.31196 107.213 7.16053 107.542 8.16856C107.871 9.1766 107.812 10.2713 107.375 11.2376L125.423 23.5876C125.505 23.6427 125.576 23.7137 125.631 23.7965C125.686 23.8792 125.724 23.9721 125.743 24.0697C125.762 24.1672 125.761 24.2676 125.741 24.3649C125.721 24.4622 125.681 24.5545 125.625 24.6364ZM105.445 11.4439C105.829 11.0592 106.091 10.5692 106.197 10.0358C106.303 9.50241 106.249 8.94954 106.041 8.44712C105.832 7.9447 105.48 7.51528 105.028 7.21317C104.576 6.91105 104.044 6.7498 103.5 6.7498C102.956 6.7498 102.425 6.91105 101.972 7.21317C101.52 7.51528 101.168 7.9447 100.959 8.44712C100.751 8.94954 100.697 9.50241 100.803 10.0358C100.909 10.5692 101.171 11.0592 101.555 11.4439C101.809 11.7012 102.112 11.9055 102.446 12.0449C102.78 12.1843 103.138 12.2561 103.5 12.2561C103.862 12.2561 104.22 12.1843 104.554 12.0449C104.888 11.9055 105.191 11.7012 105.445 11.4439ZM106.25 22.5001C106.25 21.8639 106.029 21.2475 105.625 20.7558C105.221 20.2641 104.66 19.9276 104.036 19.8037C103.412 19.6798 102.764 19.7761 102.203 20.0761C101.642 20.3762 101.202 20.8615 100.959 21.4494C100.716 22.0372 100.684 22.6913 100.869 23.3C101.054 23.9088 101.444 24.4347 101.973 24.788C102.502 25.1413 103.137 25.3003 103.77 25.2377C104.403 25.1752 104.995 24.8951 105.445 24.4451C105.701 24.1902 105.904 23.887 106.042 23.5532C106.18 23.2193 106.251 22.8614 106.25 22.5001Z" fill="currentColor"/>
<path d="M173.848 22.9739L156.285 10.9564C156.428 10.4842 156.5 9.99348 156.5 9.50014C156.5 8.36897 156.117 7.27118 155.412 6.38607C154.708 5.50097 153.724 4.88086 152.622 4.62703C151.52 4.3732 150.364 4.50065 149.343 4.98857C148.323 5.47648 147.498 6.29603 147.003 7.31334C146.509 8.33066 146.374 9.48562 146.62 10.5896C146.867 11.6935 147.481 12.6813 148.361 13.3914C149.241 14.1015 150.337 14.4922 151.468 14.4994C152.599 14.5067 153.699 14.1302 154.589 13.4314L158.339 16.0014L154.589 18.5714C153.831 17.9762 152.918 17.6125 151.958 17.5241C150.999 17.4358 150.034 17.6265 149.181 18.0734C148.327 18.5202 147.621 19.2041 147.147 20.0429C146.673 20.8817 146.451 21.8396 146.509 22.8013C146.566 23.7631 146.9 24.6877 147.471 25.4641C148.041 26.2404 148.824 26.8354 149.725 27.1774C150.626 27.5194 151.606 27.5939 152.548 27.392C153.49 27.19 154.354 26.7201 155.035 26.0389C155.501 25.5754 155.871 25.0239 156.122 24.4164C156.374 23.809 156.502 23.1576 156.5 22.5001C156.5 22.0064 156.428 21.5153 156.285 21.0426L161 17.8176L172.153 25.4501C172.315 25.5614 172.498 25.6396 172.691 25.6802C172.884 25.7208 173.083 25.723 173.276 25.6868C173.47 25.6505 173.655 25.5764 173.82 25.4688C173.985 25.3612 174.127 25.2221 174.238 25.0595C174.349 24.8969 174.428 24.714 174.468 24.5212C174.509 24.3284 174.511 24.1295 174.475 23.9358C174.438 23.7421 174.364 23.5575 174.257 23.3925C174.149 23.2274 174.01 23.0852 173.848 22.9739ZM152.914 23.9164C152.587 24.2434 152.156 24.4469 151.696 24.4921C151.235 24.5374 150.773 24.4216 150.389 24.1646C150.004 23.9076 149.721 23.5251 149.586 23.0825C149.452 22.6398 149.475 22.1642 149.652 21.7368C149.829 21.3093 150.149 20.9564 150.557 20.7382C150.964 20.52 151.435 20.4499 151.889 20.5399C152.343 20.63 152.751 20.8745 153.045 21.2319C153.339 21.5893 153.5 22.0375 153.5 22.5001C153.5 22.7632 153.449 23.0236 153.348 23.2667C153.247 23.5097 153.1 23.7305 152.914 23.9164ZM150.086 10.9126C149.806 10.633 149.616 10.2766 149.539 9.88863C149.461 9.50063 149.501 9.09843 149.652 8.7329C149.803 8.36737 150.06 8.05493 150.389 7.83511C150.718 7.61529 151.104 7.49796 151.5 7.49796C151.896 7.49796 152.282 7.61529 152.611 7.83511C152.94 8.05493 153.197 8.36737 153.348 8.7329C153.499 9.09843 153.539 9.50063 153.461 9.88863C153.384 10.2766 153.194 10.633 152.914 10.9126C152.539 11.2874 152.03 11.498 151.5 11.498C150.97 11.498 150.461 11.2874 150.086 10.9126ZM164.189 13.8176C164.078 13.655 163.999 13.4721 163.959 13.2794C163.918 13.0866 163.916 12.8877 163.953 12.6941C163.989 12.5005 164.063 12.3159 164.171 12.151C164.278 11.986 164.417 11.8438 164.58 11.7326L172.153 6.55014C172.481 6.32537 172.885 6.24025 173.276 6.3135C173.667 6.38676 174.013 6.61239 174.238 6.94076C174.463 7.26914 174.548 7.67335 174.475 8.06448C174.402 8.45561 174.176 8.80162 173.848 9.02639L166.274 14.2089C166.111 14.3201 165.928 14.3982 165.735 14.4387C165.543 14.4793 165.344 14.4814 165.15 14.4451C164.957 14.4088 164.772 14.3347 164.607 14.227C164.442 14.1193 164.3 13.9802 164.189 13.8176Z" fill="currentColor"/>
<path d="M211.716 14.1414C211.642 14.033 211.59 13.9109 211.563 13.7823C211.536 13.6536 211.534 13.5209 211.558 13.3916C211.583 13.2624 211.632 13.1392 211.704 13.0292C211.776 12.9191 211.869 12.8243 211.978 12.7502L220.435 6.96269C220.654 6.82716 220.917 6.78139 221.169 6.83493C221.421 6.88846 221.643 7.03716 221.788 7.25005C221.933 7.46293 221.99 7.72358 221.948 7.97766C221.905 8.23174 221.766 8.45967 221.56 8.61394L213.101 14.4014C212.993 14.4756 212.871 14.5276 212.742 14.5546C212.614 14.5816 212.481 14.583 212.352 14.5587C212.223 14.5345 212.1 14.485 211.99 14.4132C211.88 14.3414 211.785 14.2486 211.711 14.1402L211.716 14.1414ZM221.825 24.7752C221.751 24.8836 221.656 24.9764 221.546 25.0482C221.436 25.12 221.313 25.1695 221.184 25.1937C221.055 25.218 220.922 25.2166 220.794 25.1896C220.665 25.1626 220.543 25.1106 220.435 25.0364L209 17.2114L203.685 20.8477C204.09 21.8774 204.101 23.0202 203.717 24.0578C203.333 25.0954 202.579 25.9549 201.601 26.4723C200.623 26.9897 199.489 27.1285 198.415 26.8624C197.341 26.5962 196.402 25.9437 195.779 25.0295C195.156 24.1153 194.891 23.0035 195.036 21.9065C195.18 20.8095 195.724 19.8042 196.563 19.0827C197.402 18.3613 198.477 17.9741 199.583 17.9953C200.69 18.0165 201.749 18.4446 202.56 19.1977L207.229 16.0002L202.556 12.8027C201.746 13.5558 200.686 13.9838 199.58 14.005C198.473 14.0262 197.398 13.6391 196.559 12.9176C195.72 12.1961 195.177 11.1909 195.032 10.0939C194.887 8.99687 195.152 7.88506 195.775 6.97085C196.399 6.05665 197.337 5.40413 198.411 5.13799C199.485 4.87184 200.619 5.01071 201.597 5.52807C202.576 6.04543 203.329 6.90501 203.713 7.94257C204.098 8.98014 204.086 10.123 203.681 11.1527L221.556 23.3852C221.665 23.4587 221.759 23.553 221.831 23.6627C221.904 23.7724 221.954 23.8953 221.979 24.0244C222.004 24.1536 222.003 24.2863 221.977 24.4151C221.95 24.544 221.899 24.6663 221.825 24.7752ZM201 22.5002C201 22.2035 200.912 21.9135 200.747 21.6668C200.582 21.4202 200.348 21.2279 200.074 21.1144C199.8 21.0008 199.498 20.9711 199.207 21.029C198.916 21.0869 198.649 21.2297 198.439 21.4395C198.23 21.6493 198.087 21.9166 198.029 22.2076C197.971 22.4985 198.001 22.8001 198.114 23.0742C198.228 23.3483 198.42 23.5826 198.667 23.7474C198.913 23.9122 199.203 24.0002 199.5 24.0002C199.898 24.0002 200.279 23.8422 200.561 23.5608C200.842 23.2795 201 22.898 201 22.5002ZM201 9.50019C201 9.20352 200.912 8.91351 200.747 8.66683C200.582 8.42016 200.348 8.2279 200.074 8.11437C199.8 8.00084 199.498 7.97113 199.207 8.02901C198.916 8.08689 198.649 8.22975 198.439 8.43953C198.23 8.64931 198.087 8.91658 198.029 9.20755C197.971 9.49852 198.001 9.80012 198.114 10.0742C198.228 10.3483 198.42 10.5826 198.667 10.7474C198.913 10.9122 199.203 11.0002 199.5 11.0002C199.898 11.0002 200.279 10.8422 200.561 10.5608C200.842 10.2795 201 9.89801 201 9.50019Z" fill="currentColor"/>
<path opacity="0.2" d="M245.025 11.9752C244.536 11.4857 244.202 10.8621 244.067 10.1832C243.932 9.50425 244.002 8.80053 244.266 8.16101C244.531 7.52149 244.98 6.97489 245.556 6.59032C246.131 6.20575 246.808 6.00049 247.5 6.00049C248.192 6.00049 248.869 6.20575 249.444 6.59032C250.02 6.97489 250.469 7.52149 250.734 8.16101C250.998 8.80053 251.068 9.50425 250.933 10.1832C250.798 10.8621 250.464 11.4857 249.975 11.9752C249.65 12.3003 249.264 12.5581 248.839 12.734C248.415 12.9099 247.96 13.0005 247.5 13.0005C247.04 13.0005 246.585 12.9099 246.161 12.734C245.736 12.5581 245.35 12.3003 245.025 11.9752ZM245.025 20.0252C244.536 20.5147 244.202 21.1384 244.067 21.8173C243.932 22.4962 244.002 23.1999 244.266 23.8395C244.531 24.479 244.98 25.0256 245.556 25.4102C246.131 25.7947 246.808 26 247.5 26C248.192 26 248.869 25.7947 249.444 25.4102C250.02 25.0256 250.469 24.479 250.734 23.8395C250.998 23.1999 251.068 22.4962 250.933 21.8173C250.798 21.1384 250.464 20.5147 249.975 20.0252C249.65 19.7002 249.264 19.4424 248.839 19.2664C248.415 19.0905 247.96 19 247.5 19C247.04 19 246.585 19.0905 246.161 19.2664C245.736 19.4424 245.35 19.7002 245.025 20.0252Z" fill="currentColor"/>
<path d="M259.716 14.1412C259.642 14.0327 259.59 13.9107 259.563 13.782C259.536 13.6533 259.534 13.5206 259.558 13.3914C259.583 13.2622 259.632 13.139 259.704 13.0289C259.776 12.9188 259.869 12.824 259.978 12.7499L268.435 6.96243C268.654 6.8269 268.917 6.78114 269.169 6.83467C269.421 6.8882 269.643 7.03691 269.788 7.24979C269.933 7.46268 269.99 7.72332 269.948 7.9774C269.905 8.23149 269.766 8.45941 269.56 8.61368L261.101 14.4012C260.936 14.5155 260.739 14.5765 260.538 14.5762C260.376 14.5756 260.216 14.5356 260.073 14.4599C259.93 14.3841 259.808 14.2747 259.716 14.1412ZM269.825 24.7774C269.675 24.9962 269.445 25.1465 269.184 25.1953C268.923 25.244 268.654 25.1873 268.435 25.0374L257 17.2124L251.686 20.8474C252.092 21.877 252.104 23.0199 251.72 24.0577C251.336 25.0954 250.583 25.9554 249.605 26.4732C248.627 26.9909 247.493 27.1303 246.419 26.8645C245.344 26.5988 244.406 25.9466 243.782 25.0325C243.158 24.1185 242.893 23.0068 243.038 21.9097C243.182 20.8126 243.725 19.8071 244.564 19.0853C245.403 18.3636 246.478 17.9761 247.584 17.997C248.691 18.0179 249.75 18.4457 250.561 19.1987L255.229 15.9999L250.555 12.8012C249.747 13.5503 248.691 13.9754 247.59 13.9955C246.488 14.0156 245.417 13.6292 244.582 12.9101C243.748 12.191 243.207 11.1896 243.063 10.097C242.92 9.00453 243.184 7.89748 243.805 6.98729C244.426 6.07711 245.361 5.42756 246.43 5.16269C247.5 4.89782 248.63 5.03618 249.604 5.55136C250.578 6.06654 251.328 6.92243 251.711 7.9556C252.094 8.98877 252.083 10.1268 251.68 11.1524L269.555 23.3862C269.664 23.4596 269.758 23.5539 269.831 23.6637C269.904 23.7734 269.954 23.8965 269.979 24.0257C270.004 24.155 270.003 24.2879 269.977 24.4169C269.951 24.5459 269.899 24.6684 269.825 24.7774ZM250 22.4999C250 21.9215 249.8 21.361 249.433 20.9138C249.066 20.4666 248.556 20.1605 247.988 20.0475C247.421 19.9346 246.832 20.0218 246.322 20.2944C245.812 20.5669 245.412 21.0079 245.191 21.5423C244.969 22.0766 244.94 22.6712 245.108 23.2247C245.275 23.7782 245.63 24.2564 246.111 24.5778C246.592 24.8993 247.169 25.044 247.745 24.9874C248.32 24.9308 248.859 24.6764 249.268 24.2674C249.501 24.036 249.685 23.7605 249.811 23.4571C249.937 23.1537 250.001 22.8284 250 22.4999ZM249.268 11.2662C249.617 10.9166 249.855 10.4711 249.952 9.98615C250.049 9.50118 249.999 8.99847 249.81 8.54161C249.621 8.08475 249.3 7.69426 248.889 7.41953C248.478 7.14479 247.995 6.99815 247.5 6.99815C247.006 6.99815 246.522 7.14479 246.111 7.41953C245.7 7.69426 245.38 8.08475 245.19 8.54161C245.001 8.99847 244.952 9.50118 245.048 9.98615C245.145 10.4711 245.383 10.9166 245.733 11.2662C245.963 11.5005 246.239 11.6866 246.542 11.8136C246.845 11.9406 247.171 12.006 247.5 12.006C247.829 12.006 248.155 11.9406 248.458 11.8136C248.762 11.6866 249.037 11.5005 249.268 11.2662Z" fill="currentColor"/>
</g>
<defs>
<clipPath id="clip0_17_13791">
<rect width="272" height="32" rx="5" fill="white"/>
</clipPath>
</defs>
</svg>
