<svg width="272" height="32" viewBox="0 0 272 32" fill="none" xmlns="http://www.w3.org/2000/svg">
<g clip-path="url(#clip0_17_13693)">
<path d="M19 5C19 5.26522 18.8946 5.51957 18.7071 5.70711C18.5196 5.89464 18.2652 6 18 6H14C13.7348 6 13.4804 5.89464 13.2929 5.70711C13.1054 5.51957 13 5.26522 13 5C13 4.73478 13.1054 4.48043 13.2929 4.29289C13.4804 4.10536 13.7348 4 14 4H18C18.2652 4 18.5196 4.10536 18.7071 4.29289C18.8946 4.48043 19 4.73478 19 5ZM18 26H14C13.7348 26 13.4804 26.1054 13.2929 26.2929C13.1054 26.4804 13 26.7348 13 27C13 27.2652 13.1054 27.5196 13.2929 27.7071C13.4804 27.8946 13.7348 28 14 28H18C18.2652 28 18.5196 27.8946 18.7071 27.7071C18.8946 27.5196 19 27.2652 19 27C19 26.7348 18.8946 26.4804 18.7071 26.2929C18.5196 26.1054 18.2652 26 18 26ZM26 6V9C26 9.26522 26.1054 9.51957 26.2929 9.70711C26.4804 9.89464 26.7348 10 27 10C27.2652 10 27.5196 9.89464 27.7071 9.70711C27.8946 9.51957 28 9.26522 28 9V6C28 5.46957 27.7893 4.96086 27.4142 4.58579C27.0391 4.21071 26.5304 4 26 4H23C22.7348 4 22.4804 4.10536 22.2929 4.29289C22.1054 4.48043 22 4.73478 22 5C22 5.26522 22.1054 5.51957 22.2929 5.70711C22.4804 5.89464 22.7348 6 23 6H26ZM27 13C26.7348 13 26.4804 13.1054 26.2929 13.2929C26.1054 13.4804 26 13.7348 26 14V18C26 18.2652 26.1054 18.5196 26.2929 18.7071C26.4804 18.8946 26.7348 19 27 19C27.2652 19 27.5196 18.8946 27.7071 18.7071C27.8946 18.5196 28 18.2652 28 18V14C28 13.7348 27.8946 13.4804 27.7071 13.2929C27.5196 13.1054 27.2652 13 27 13ZM5 19C5.26522 19 5.51957 18.8946 5.70711 18.7071C5.89464 18.5196 6 18.2652 6 18V14C6 13.7348 5.89464 13.4804 5.70711 13.2929C5.51957 13.1054 5.26522 13 5 13C4.73478 13 4.48043 13.1054 4.29289 13.2929C4.10536 13.4804 4 13.7348 4 14V18C4 18.2652 4.10536 18.5196 4.29289 18.7071C4.48043 18.8946 4.73478 19 5 19ZM9 26H6V23C6 22.7348 5.89464 22.4804 5.70711 22.2929C5.51957 22.1054 5.26522 22 5 22C4.73478 22 4.48043 22.1054 4.29289 22.2929C4.10536 22.4804 4 22.7348 4 23V26C4 26.5304 4.21071 27.0391 4.58579 27.4142C4.96086 27.7893 5.46957 28 6 28H9C9.26522 28 9.51957 27.8946 9.70711 27.7071C9.89464 27.5196 10 27.2652 10 27C10 26.7348 9.89464 26.4804 9.70711 26.2929C9.51957 26.1054 9.26522 26 9 26ZM9 4H6C5.46957 4 4.96086 4.21071 4.58579 4.58579C4.21071 4.96086 4 5.46957 4 6V9C4 9.26522 4.10536 9.51957 4.29289 9.70711C4.48043 9.89464 4.73478 10 5 10C5.26522 10 5.51957 9.89464 5.70711 9.70711C5.89464 9.51957 6 9.26522 6 9V6H9C9.26522 6 9.51957 5.89464 9.70711 5.70711C9.89464 5.51957 10 5.26522 10 5C10 4.73478 9.89464 4.48043 9.70711 4.29289C9.51957 4.10536 9.26522 4 9 4ZM30 26H28V24C28 23.7348 27.8946 23.4804 27.7071 23.2929C27.5196 23.1054 27.2652 23 27 23C26.7348 23 26.4804 23.1054 26.2929 23.2929C26.1054 23.4804 26 23.7348 26 24V26H24C23.7348 26 23.4804 26.1054 23.2929 26.2929C23.1054 26.4804 23 26.7348 23 27C23 27.2652 23.1054 27.5196 23.2929 27.7071C23.4804 27.8946 23.7348 28 24 28H26V30C26 30.2652 26.1054 30.5196 26.2929 30.7071C26.4804 30.8946 26.7348 31 27 31C27.2652 31 27.5196 30.8946 27.7071 30.7071C27.8946 30.5196 28 30.2652 28 30V28H30C30.2652 28 30.5196 27.8946 30.7071 27.7071C30.8946 27.5196 31 27.2652 31 27C31 26.7348 30.8946 26.4804 30.7071 26.2929C30.5196 26.1054 30.2652 26 30 26Z" fill="currentColor"/>
<path d="M66.5 5C66.5 5.13261 66.4473 5.25979 66.3536 5.35355C66.2598 5.44732 66.1326 5.5 66 5.5H62C61.8674 5.5 61.7402 5.44732 61.6464 5.35355C61.5527 5.25979 61.5 5.13261 61.5 5C61.5 4.86739 61.5527 4.74021 61.6464 4.64645C61.7402 4.55268 61.8674 4.5 62 4.5H66C66.1326 4.5 66.2598 4.55268 66.3536 4.64645C66.4473 4.74021 66.5 4.86739 66.5 5ZM66 26.5H62C61.8674 26.5 61.7402 26.5527 61.6464 26.6464C61.5527 26.7402 61.5 26.8674 61.5 27C61.5 27.1326 61.5527 27.2598 61.6464 27.3536C61.7402 27.4473 61.8674 27.5 62 27.5H66C66.1326 27.5 66.2598 27.4473 66.3536 27.3536C66.4473 27.2598 66.5 27.1326 66.5 27C66.5 26.8674 66.4473 26.7402 66.3536 26.6464C66.2598 26.5527 66.1326 26.5 66 26.5ZM74.5 6V9C74.5 9.13261 74.5527 9.25979 74.6464 9.35355C74.7402 9.44732 74.8674 9.5 75 9.5C75.1326 9.5 75.2598 9.44732 75.3536 9.35355C75.4473 9.25979 75.5 9.13261 75.5 9V6C75.5 5.60218 75.342 5.22064 75.0607 4.93934C74.7794 4.65804 74.3978 4.5 74 4.5H71C70.8674 4.5 70.7402 4.55268 70.6464 4.64645C70.5527 4.74021 70.5 4.86739 70.5 5C70.5 5.13261 70.5527 5.25979 70.6464 5.35355C70.7402 5.44732 70.8674 5.5 71 5.5H74C74.1326 5.5 74.2598 5.55268 74.3536 5.64645C74.4473 5.74021 74.5 5.86739 74.5 6ZM75 13.5C74.8674 13.5 74.7402 13.5527 74.6464 13.6464C74.5527 13.7402 74.5 13.8674 74.5 14V18C74.5 18.1326 74.5527 18.2598 74.6464 18.3536C74.7402 18.4473 74.8674 18.5 75 18.5C75.1326 18.5 75.2598 18.4473 75.3536 18.3536C75.4473 18.2598 75.5 18.1326 75.5 18V14C75.5 13.8674 75.4473 13.7402 75.3536 13.6464C75.2598 13.5527 75.1326 13.5 75 13.5ZM53 18.5C53.1326 18.5 53.2598 18.4473 53.3536 18.3536C53.4473 18.2598 53.5 18.1326 53.5 18V14C53.5 13.8674 53.4473 13.7402 53.3536 13.6464C53.2598 13.5527 53.1326 13.5 53 13.5C52.8674 13.5 52.7402 13.5527 52.6464 13.6464C52.5527 13.7402 52.5 13.8674 52.5 14V18C52.5 18.1326 52.5527 18.2598 52.6464 18.3536C52.7402 18.4473 52.8674 18.5 53 18.5ZM57 26.5H54C53.8674 26.5 53.7402 26.4473 53.6464 26.3536C53.5527 26.2598 53.5 26.1326 53.5 26V23C53.5 22.8674 53.4473 22.7402 53.3536 22.6464C53.2598 22.5527 53.1326 22.5 53 22.5C52.8674 22.5 52.7402 22.5527 52.6464 22.6464C52.5527 22.7402 52.5 22.8674 52.5 23V26C52.5 26.3978 52.658 26.7794 52.9393 27.0607C53.2206 27.342 53.6022 27.5 54 27.5H57C57.1326 27.5 57.2598 27.4473 57.3536 27.3536C57.4473 27.2598 57.5 27.1326 57.5 27C57.5 26.8674 57.4473 26.7402 57.3536 26.6464C57.2598 26.5527 57.1326 26.5 57 26.5ZM57 4.5H54C53.6022 4.5 53.2206 4.65804 52.9393 4.93934C52.658 5.22064 52.5 5.60218 52.5 6V9C52.5 9.13261 52.5527 9.25979 52.6464 9.35355C52.7402 9.44732 52.8674 9.5 53 9.5C53.1326 9.5 53.2598 9.44732 53.3536 9.35355C53.4473 9.25979 53.5 9.13261 53.5 9V6C53.5 5.86739 53.5527 5.74021 53.6464 5.64645C53.7402 5.55268 53.8674 5.5 54 5.5H57C57.1326 5.5 57.2598 5.44732 57.3536 5.35355C57.4473 5.25979 57.5 5.13261 57.5 5C57.5 4.86739 57.4473 4.74021 57.3536 4.64645C57.2598 4.55268 57.1326 4.5 57 4.5ZM78 26.5H75.5V24C75.5 23.8674 75.4473 23.7402 75.3536 23.6464C75.2598 23.5527 75.1326 23.5 75 23.5C74.8674 23.5 74.7402 23.5527 74.6464 23.6464C74.5527 23.7402 74.5 23.8674 74.5 24V26.5H72C71.8674 26.5 71.7402 26.5527 71.6464 26.6464C71.5527 26.7402 71.5 26.8674 71.5 27C71.5 27.1326 71.5527 27.2598 71.6464 27.3536C71.7402 27.4473 71.8674 27.5 72 27.5H74.5V30C74.5 30.1326 74.5527 30.2598 74.6464 30.3536C74.7402 30.4473 74.8674 30.5 75 30.5C75.1326 30.5 75.2598 30.4473 75.3536 30.3536C75.4473 30.2598 75.5 30.1326 75.5 30V27.5H78C78.1326 27.5 78.2598 27.4473 78.3536 27.3536C78.4473 27.2598 78.5 27.1326 78.5 27C78.5 26.8674 78.4473 26.7402 78.3536 26.6464C78.2598 26.5527 78.1326 26.5 78 26.5Z" fill="currentColor"/>
<path d="M114.75 5C114.75 5.19891 114.671 5.38968 114.53 5.53033C114.39 5.67098 114.199 5.75 114 5.75H110C109.801 5.75 109.61 5.67098 109.47 5.53033C109.329 5.38968 109.25 5.19891 109.25 5C109.25 4.80109 109.329 4.61032 109.47 4.46967C109.61 4.32902 109.801 4.25 110 4.25H114C114.199 4.25 114.39 4.32902 114.53 4.46967C114.671 4.61032 114.75 4.80109 114.75 5ZM114 26.25H110C109.801 26.25 109.61 26.329 109.47 26.4697C109.329 26.6103 109.25 26.8011 109.25 27C109.25 27.1989 109.329 27.3897 109.47 27.5303C109.61 27.671 109.801 27.75 110 27.75H114C114.199 27.75 114.39 27.671 114.53 27.5303C114.671 27.3897 114.75 27.1989 114.75 27C114.75 26.8011 114.671 26.6103 114.53 26.4697C114.39 26.329 114.199 26.25 114 26.25ZM122.25 6V9C122.25 9.19891 122.329 9.38968 122.47 9.53033C122.61 9.67098 122.801 9.75 123 9.75C123.199 9.75 123.39 9.67098 123.53 9.53033C123.671 9.38968 123.75 9.19891 123.75 9V6C123.75 5.53587 123.566 5.09075 123.237 4.76256C122.909 4.43437 122.464 4.25 122 4.25H119C118.801 4.25 118.61 4.32902 118.47 4.46967C118.329 4.61032 118.25 4.80109 118.25 5C118.25 5.19891 118.329 5.38968 118.47 5.53033C118.61 5.67098 118.801 5.75 119 5.75H122C122.066 5.75 122.13 5.77634 122.177 5.82322C122.224 5.87011 122.25 5.9337 122.25 6ZM123 13.25C122.801 13.25 122.61 13.329 122.47 13.4697C122.329 13.6103 122.25 13.8011 122.25 14V18C122.25 18.1989 122.329 18.3897 122.47 18.5303C122.61 18.671 122.801 18.75 123 18.75C123.199 18.75 123.39 18.671 123.53 18.5303C123.671 18.3897 123.75 18.1989 123.75 18V14C123.75 13.8011 123.671 13.6103 123.53 13.4697C123.39 13.329 123.199 13.25 123 13.25ZM101 18.75C101.199 18.75 101.39 18.671 101.53 18.5303C101.671 18.3897 101.75 18.1989 101.75 18V14C101.75 13.8011 101.671 13.6103 101.53 13.4697C101.39 13.329 101.199 13.25 101 13.25C100.801 13.25 100.61 13.329 100.47 13.4697C100.329 13.6103 100.25 13.8011 100.25 14V18C100.25 18.1989 100.329 18.3897 100.47 18.5303C100.61 18.671 100.801 18.75 101 18.75ZM105 26.25H102C101.934 26.25 101.87 26.2237 101.823 26.1768C101.776 26.1299 101.75 26.0663 101.75 26V23C101.75 22.8011 101.671 22.6103 101.53 22.4697C101.39 22.329 101.199 22.25 101 22.25C100.801 22.25 100.61 22.329 100.47 22.4697C100.329 22.6103 100.25 22.8011 100.25 23V26C100.25 26.4641 100.434 26.9092 100.763 27.2374C101.091 27.5656 101.536 27.75 102 27.75H105C105.199 27.75 105.39 27.671 105.53 27.5303C105.671 27.3897 105.75 27.1989 105.75 27C105.75 26.8011 105.671 26.6103 105.53 26.4697C105.39 26.329 105.199 26.25 105 26.25ZM105 4.25H102C101.536 4.25 101.091 4.43437 100.763 4.76256C100.434 5.09075 100.25 5.53587 100.25 6V9C100.25 9.19891 100.329 9.38968 100.47 9.53033C100.61 9.67098 100.801 9.75 101 9.75C101.199 9.75 101.39 9.67098 101.53 9.53033C101.671 9.38968 101.75 9.19891 101.75 9V6C101.75 5.9337 101.776 5.87011 101.823 5.82322C101.87 5.77634 101.934 5.75 102 5.75H105C105.199 5.75 105.39 5.67098 105.53 5.53033C105.671 5.38968 105.75 5.19891 105.75 5C105.75 4.80109 105.671 4.61032 105.53 4.46967C105.39 4.32902 105.199 4.25 105 4.25ZM126 26.25H123.75V24C123.75 23.8011 123.671 23.6103 123.53 23.4697C123.39 23.329 123.199 23.25 123 23.25C122.801 23.25 122.61 23.329 122.47 23.4697C122.329 23.6103 122.25 23.8011 122.25 24V26.25H120C119.801 26.25 119.61 26.329 119.47 26.4697C119.329 26.6103 119.25 26.8011 119.25 27C119.25 27.1989 119.329 27.3897 119.47 27.5303C119.61 27.671 119.801 27.75 120 27.75H122.25V30C122.25 30.1989 122.329 30.3897 122.47 30.5303C122.61 30.671 122.801 30.75 123 30.75C123.199 30.75 123.39 30.671 123.53 30.5303C123.671 30.3897 123.75 30.1989 123.75 30V27.75H126C126.199 27.75 126.39 27.671 126.53 27.5303C126.671 27.3897 126.75 27.1989 126.75 27C126.75 26.8011 126.671 26.6103 126.53 26.4697C126.39 26.329 126.199 26.25 126 26.25Z" fill="currentColor"/>
<path d="M163.5 5C163.5 5.39782 163.342 5.77936 163.061 6.06066C162.779 6.34196 162.398 6.5 162 6.5H158C157.602 6.5 157.221 6.34196 156.939 6.06066C156.658 5.77936 156.5 5.39782 156.5 5C156.5 4.60218 156.658 4.22064 156.939 3.93934C157.221 3.65804 157.602 3.5 158 3.5H162C162.398 3.5 162.779 3.65804 163.061 3.93934C163.342 4.22064 163.5 4.60218 163.5 5ZM162 25.5H158C157.602 25.5 157.221 25.658 156.939 25.9393C156.658 26.2206 156.5 26.6022 156.5 27C156.5 27.3978 156.658 27.7794 156.939 28.0607C157.221 28.342 157.602 28.5 158 28.5H162C162.398 28.5 162.779 28.342 163.061 28.0607C163.342 27.7794 163.5 27.3978 163.5 27C163.5 26.6022 163.342 26.2206 163.061 25.9393C162.779 25.658 162.398 25.5 162 25.5ZM169.5 6.5V9C169.5 9.39782 169.658 9.77936 169.939 10.0607C170.221 10.342 170.602 10.5 171 10.5C171.398 10.5 171.779 10.342 172.061 10.0607C172.342 9.77936 172.5 9.39782 172.5 9V6C172.5 5.33696 172.237 4.70107 171.768 4.23223C171.299 3.76339 170.663 3.5 170 3.5H167C166.602 3.5 166.221 3.65804 165.939 3.93934C165.658 4.22064 165.5 4.60218 165.5 5C165.5 5.39782 165.658 5.77936 165.939 6.06066C166.221 6.34196 166.602 6.5 167 6.5H169.5ZM171 12.5C170.602 12.5 170.221 12.658 169.939 12.9393C169.658 13.2206 169.5 13.6022 169.5 14V18C169.5 18.3978 169.658 18.7794 169.939 19.0607C170.221 19.342 170.602 19.5 171 19.5C171.398 19.5 171.779 19.342 172.061 19.0607C172.342 18.7794 172.5 18.3978 172.5 18V14C172.5 13.6022 172.342 13.2206 172.061 12.9393C171.779 12.658 171.398 12.5 171 12.5ZM149 19.5C149.398 19.5 149.779 19.342 150.061 19.0607C150.342 18.7794 150.5 18.3978 150.5 18V14C150.5 13.6022 150.342 13.2206 150.061 12.9393C149.779 12.658 149.398 12.5 149 12.5C148.602 12.5 148.221 12.658 147.939 12.9393C147.658 13.2206 147.5 13.6022 147.5 14V18C147.5 18.3978 147.658 18.7794 147.939 19.0607C148.221 19.342 148.602 19.5 149 19.5ZM153 25.5H150.5V23C150.5 22.6022 150.342 22.2206 150.061 21.9393C149.779 21.658 149.398 21.5 149 21.5C148.602 21.5 148.221 21.658 147.939 21.9393C147.658 22.2206 147.5 22.6022 147.5 23V26C147.5 26.663 147.763 27.2989 148.232 27.7678C148.701 28.2366 149.337 28.5 150 28.5H153C153.398 28.5 153.779 28.342 154.061 28.0607C154.342 27.7794 154.5 27.3978 154.5 27C154.5 26.6022 154.342 26.2206 154.061 25.9393C153.779 25.658 153.398 25.5 153 25.5ZM153 3.5H150C149.337 3.5 148.701 3.76339 148.232 4.23223C147.763 4.70107 147.5 5.33696 147.5 6V9C147.5 9.39782 147.658 9.77936 147.939 10.0607C148.221 10.342 148.602 10.5 149 10.5C149.398 10.5 149.779 10.342 150.061 10.0607C150.342 9.77936 150.5 9.39782 150.5 9V6.5H153C153.398 6.5 153.779 6.34196 154.061 6.06066C154.342 5.77936 154.5 5.39782 154.5 5C154.5 4.60218 154.342 4.22064 154.061 3.93934C153.779 3.65804 153.398 3.5 153 3.5ZM174 25.5H172.5V24C172.5 23.6022 172.342 23.2206 172.061 22.9393C171.779 22.658 171.398 22.5 171 22.5C170.602 22.5 170.221 22.658 169.939 22.9393C169.658 23.2206 169.5 23.6022 169.5 24V25.5H168C167.602 25.5 167.221 25.658 166.939 25.9393C166.658 26.2206 166.5 26.6022 166.5 27C166.5 27.3978 166.658 27.7794 166.939 28.0607C167.221 28.342 167.602 28.5 168 28.5H169.5V30C169.5 30.3978 169.658 30.7794 169.939 31.0607C170.221 31.342 170.602 31.5 171 31.5C171.398 31.5 171.779 31.342 172.061 31.0607C172.342 30.7794 172.5 30.3978 172.5 30V28.5H174C174.398 28.5 174.779 28.342 175.061 28.0607C175.342 27.7794 175.5 27.3978 175.5 27C175.5 26.6022 175.342 26.2206 175.061 25.9393C174.779 25.658 174.398 25.5 174 25.5Z" fill="currentColor"/>
<path d="M218 4H198C197.47 4 196.961 4.21071 196.586 4.58579C196.211 4.96086 196 5.46957 196 6V26C196 26.5304 196.211 27.0391 196.586 27.4142C196.961 27.7893 197.47 28 198 28H218C218.53 28 219.039 27.7893 219.414 27.4142C219.789 27.0391 220 26.5304 220 26V6C220 5.46957 219.789 4.96086 219.414 4.58579C219.039 4.21071 218.53 4 218 4ZM199 9C199 8.46957 199.211 7.96086 199.586 7.58579C199.961 7.21071 200.47 7 201 7H204C204.265 7 204.52 7.10536 204.707 7.29289C204.895 7.48043 205 7.73478 205 8C205 8.26522 204.895 8.51957 204.707 8.70711C204.52 8.89464 204.265 9 204 9H201V12C201 12.2652 200.895 12.5196 200.707 12.7071C200.52 12.8946 200.265 13 200 13C199.735 13 199.48 12.8946 199.293 12.7071C199.105 12.5196 199 12.2652 199 12V9ZM206 23H201C200.47 23 199.961 22.7893 199.586 22.4142C199.211 22.0391 199 21.5304 199 21V17C199 16.7348 199.105 16.4804 199.293 16.2929C199.48 16.1054 199.735 16 200 16C200.265 16 200.52 16.1054 200.707 16.2929C200.895 16.4804 201 16.7348 201 17V21H206C206.265 21 206.52 21.1054 206.707 21.2929C206.895 21.4804 207 21.7348 207 22C207 22.2652 206.895 22.5196 206.707 22.7071C206.52 22.8946 206.265 23 206 23ZM208 8C208 7.73478 208.105 7.48043 208.293 7.29289C208.48 7.10536 208.735 7 209 7H213C213.53 7 214.039 7.21071 214.414 7.58579C214.789 7.96086 215 8.46957 215 9V14C215 14.2652 214.895 14.5196 214.707 14.7071C214.52 14.8946 214.265 15 214 15C213.735 15 213.48 14.8946 213.293 14.7071C213.105 14.5196 213 14.2652 213 14V9H209C208.735 9 208.48 8.89464 208.293 8.70711C208.105 8.51957 208 8.26522 208 8ZM217 23H215V25C215 25.2652 214.895 25.5196 214.707 25.7071C214.52 25.8946 214.265 26 214 26C213.735 26 213.48 25.8946 213.293 25.7071C213.105 25.5196 213 25.2652 213 25V23H211C210.735 23 210.48 22.8946 210.293 22.7071C210.105 22.5196 210 22.2652 210 22C210 21.7348 210.105 21.4804 210.293 21.2929C210.48 21.1054 210.735 21 211 21H213V19C213 18.7348 213.105 18.4804 213.293 18.2929C213.48 18.1054 213.735 18 214 18C214.265 18 214.52 18.1054 214.707 18.2929C214.895 18.4804 215 18.7348 215 19V21H217C217.265 21 217.52 21.1054 217.707 21.2929C217.895 21.4804 218 21.7348 218 22C218 22.2652 217.895 22.5196 217.707 22.7071C217.52 22.8946 217.265 23 217 23Z" fill="currentColor"/>
<path opacity="0.2" d="M267 5V27H245V5H267Z" fill="currentColor"/>
<path d="M259 5C259 5.26522 258.895 5.51957 258.707 5.70711C258.52 5.89464 258.265 6 258 6H254C253.735 6 253.48 5.89464 253.293 5.70711C253.105 5.51957 253 5.26522 253 5C253 4.73478 253.105 4.48043 253.293 4.29289C253.48 4.10536 253.735 4 254 4H258C258.265 4 258.52 4.10536 258.707 4.29289C258.895 4.48043 259 4.73478 259 5ZM258 26H254C253.735 26 253.48 26.1054 253.293 26.2929C253.105 26.4804 253 26.7348 253 27C253 27.2652 253.105 27.5196 253.293 27.7071C253.48 27.8946 253.735 28 254 28H258C258.265 28 258.52 27.8946 258.707 27.7071C258.895 27.5196 259 27.2652 259 27C259 26.7348 258.895 26.4804 258.707 26.2929C258.52 26.1054 258.265 26 258 26ZM266 6V9C266 9.26522 266.105 9.51957 266.293 9.70711C266.48 9.89464 266.735 10 267 10C267.265 10 267.52 9.89464 267.707 9.70711C267.895 9.51957 268 9.26522 268 9V6C268 5.46957 267.789 4.96086 267.414 4.58579C267.039 4.21071 266.53 4 266 4H263C262.735 4 262.48 4.10536 262.293 4.29289C262.105 4.48043 262 4.73478 262 5C262 5.26522 262.105 5.51957 262.293 5.70711C262.48 5.89464 262.735 6 263 6H266ZM267 13C266.735 13 266.48 13.1054 266.293 13.2929C266.105 13.4804 266 13.7348 266 14V18C266 18.2652 266.105 18.5196 266.293 18.7071C266.48 18.8946 266.735 19 267 19C267.265 19 267.52 18.8946 267.707 18.7071C267.895 18.5196 268 18.2652 268 18V14C268 13.7348 267.895 13.4804 267.707 13.2929C267.52 13.1054 267.265 13 267 13ZM245 19C245.265 19 245.52 18.8946 245.707 18.7071C245.895 18.5196 246 18.2652 246 18V14C246 13.7348 245.895 13.4804 245.707 13.2929C245.52 13.1054 245.265 13 245 13C244.735 13 244.48 13.1054 244.293 13.2929C244.105 13.4804 244 13.7348 244 14V18C244 18.2652 244.105 18.5196 244.293 18.7071C244.48 18.8946 244.735 19 245 19ZM249 26H246V23C246 22.7348 245.895 22.4804 245.707 22.2929C245.52 22.1054 245.265 22 245 22C244.735 22 244.48 22.1054 244.293 22.2929C244.105 22.4804 244 22.7348 244 23V26C244 26.5304 244.211 27.0391 244.586 27.4142C244.961 27.7893 245.47 28 246 28H249C249.265 28 249.52 27.8946 249.707 27.7071C249.895 27.5196 250 27.2652 250 27C250 26.7348 249.895 26.4804 249.707 26.2929C249.52 26.1054 249.265 26 249 26ZM249 4H246C245.47 4 244.961 4.21071 244.586 4.58579C244.211 4.96086 244 5.46957 244 6V9C244 9.26522 244.105 9.51957 244.293 9.70711C244.48 9.89464 244.735 10 245 10C245.265 10 245.52 9.89464 245.707 9.70711C245.895 9.51957 246 9.26522 246 9V6H249C249.265 6 249.52 5.89464 249.707 5.70711C249.895 5.51957 250 5.26522 250 5C250 4.73478 249.895 4.48043 249.707 4.29289C249.52 4.10536 249.265 4 249 4ZM270 26H268V24C268 23.7348 267.895 23.4804 267.707 23.2929C267.52 23.1054 267.265 23 267 23C266.735 23 266.48 23.1054 266.293 23.2929C266.105 23.4804 266 23.7348 266 24V26H264C263.735 26 263.48 26.1054 263.293 26.2929C263.105 26.4804 263 26.7348 263 27C263 27.2652 263.105 27.5196 263.293 27.7071C263.48 27.8946 263.735 28 264 28H266V30C266 30.2652 266.105 30.5196 266.293 30.7071C266.48 30.8946 266.735 31 267 31C267.265 31 267.52 30.8946 267.707 30.7071C267.895 30.5196 268 30.2652 268 30V28H270C270.265 28 270.52 27.8946 270.707 27.7071C270.895 27.5196 271 27.2652 271 27C271 26.7348 270.895 26.4804 270.707 26.2929C270.52 26.1054 270.265 26 270 26Z" fill="currentColor"/>
</g>
<defs>
<clipPath id="clip0_17_13693">
<rect width="272" height="32" rx="5" fill="white"/>
</clipPath>
</defs>
</svg>
