<svg width="272" height="32" viewBox="0 0 272 32" fill="none" xmlns="http://www.w3.org/2000/svg">
<g clip-path="url(#clip0_17_13494)">
<path d="M1.49994 13.8752L15.4999 21.8752C15.6511 21.9616 15.8221 22.007 15.9962 22.007C16.1703 22.007 16.3413 21.9616 16.4924 21.8752L30.4924 13.8752C30.6457 13.7878 30.7732 13.6614 30.8618 13.5088C30.9505 13.3562 30.9972 13.1829 30.9972 13.0064C30.9972 12.83 30.9505 12.6566 30.8618 12.5041C30.7732 12.3515 30.6457 12.2251 30.4924 12.1377L16.4924 4.13768C16.3413 4.0513 16.1703 4.00586 15.9962 4.00586C15.8221 4.00586 15.6511 4.0513 15.4999 4.13768L1.49994 12.1377C1.34664 12.2251 1.21919 12.3515 1.13054 12.5041C1.04189 12.6566 0.995194 12.83 0.995194 13.0064C0.995194 13.1829 1.04189 13.3562 1.13054 13.5088C1.21919 13.6614 1.34664 13.7878 1.49994 13.8752ZM15.9999 6.15143L27.9837 13.0002L15.9999 19.8489L4.01619 13.0002L15.9999 6.15143ZM30.8674 17.5002C30.9345 17.6144 30.9781 17.7407 30.9959 17.8719C31.0137 18.0031 31.0052 18.1366 30.9711 18.2645C30.9369 18.3924 30.8776 18.5122 30.7967 18.6171C30.7159 18.7219 30.615 18.8096 30.4999 18.8752L16.4999 26.8752C16.3488 26.9616 16.1778 27.007 16.0037 27.007C15.8296 27.007 15.6586 26.9616 15.5074 26.8752L1.49994 18.8752C1.38545 18.8095 1.285 18.7219 1.20435 18.6175C1.1237 18.513 1.06441 18.3937 1.02988 18.2663C0.995349 18.1389 0.986247 18.0059 1.00309 17.875C1.01994 17.7441 1.06241 17.6178 1.12807 17.5033C1.19373 17.3888 1.2813 17.2884 1.38578 17.2077C1.49026 17.1271 1.6096 17.0678 1.73699 17.0332C1.99426 16.9635 2.26871 16.9988 2.49994 17.1314L15.9999 24.8489L29.4999 17.1314C29.6139 17.0657 29.7397 17.023 29.8702 17.0059C30.0006 16.9889 30.1332 16.9977 30.2602 17.032C30.3873 17.0662 30.5063 17.1252 30.6105 17.2056C30.7147 17.2859 30.802 17.386 30.8674 17.5002Z" fill="currentColor"/>
<path d="M49.75 13.4335L63.75 21.4335C63.826 21.4774 63.9122 21.5005 64 21.5005C64.0877 21.5005 64.174 21.4774 64.25 21.4335L78.25 13.4335C78.3263 13.3897 78.3898 13.3266 78.4339 13.2504C78.478 13.1742 78.5012 13.0878 78.5012 12.9998C78.5012 12.9117 78.478 12.8253 78.4339 12.7491C78.3898 12.673 78.3263 12.6098 78.25 12.566L64.25 4.56601C64.174 4.52213 64.0877 4.49902 64 4.49902C63.9122 4.49902 63.826 4.52213 63.75 4.56601L49.75 12.566C49.6736 12.6098 49.6102 12.673 49.566 12.7491C49.5219 12.8253 49.4987 12.9117 49.4987 12.9998C49.4987 13.0878 49.5219 13.1742 49.566 13.2504C49.6102 13.3266 49.6736 13.3897 49.75 13.4335ZM64 5.57601L76.9925 12.9998L64 20.4235L51.0075 12.9998L64 5.57601ZM78.4337 17.7498C78.4992 17.8648 78.5164 18.0012 78.4814 18.1289C78.4465 18.2566 78.3624 18.3653 78.2475 18.431L64.2475 26.431C64.1715 26.4749 64.0852 26.498 63.9975 26.498C63.9097 26.498 63.8235 26.4749 63.7475 26.431L49.7475 18.431C49.6324 18.3647 49.5484 18.2554 49.514 18.1272C49.4795 17.999 49.4974 17.8623 49.5637 17.7473C49.63 17.6322 49.7393 17.5482 49.8675 17.5138C49.9958 17.4793 50.1324 17.4972 50.2475 17.5635L63.9975 25.421L77.7475 17.5635C77.8047 17.5303 77.8679 17.5088 77.9334 17.5002C77.999 17.4916 78.0656 17.4961 78.1295 17.5134C78.1933 17.5307 78.2531 17.5605 78.3053 17.6011C78.3575 17.6417 78.4012 17.6922 78.4337 17.7498Z" fill="currentColor"/>
<path d="M97.625 13.651L111.625 21.651C111.739 21.7169 111.868 21.7515 112 21.7515C112.132 21.7515 112.261 21.7169 112.375 21.651L126.375 13.651C126.49 13.5854 126.585 13.4907 126.652 13.3763C126.718 13.2619 126.753 13.132 126.753 12.9998C126.753 12.8675 126.718 12.7376 126.652 12.6233C126.585 12.5089 126.49 12.4141 126.375 12.3485L112.375 4.34853C112.261 4.2827 112.132 4.24805 112 4.24805C111.868 4.24805 111.739 4.2827 111.625 4.34853L97.625 12.3485C97.5101 12.4141 97.4147 12.5089 97.3483 12.6233C97.2819 12.7376 97.247 12.8675 97.247 12.9998C97.247 13.132 97.2819 13.2619 97.3483 13.3763C97.4147 13.4907 97.5101 13.5854 97.625 13.651ZM112 5.86353L124.489 12.9998L112 20.136L99.5112 12.9998L112 5.86353ZM126.651 17.6248C126.7 17.7103 126.732 17.8046 126.744 17.9024C126.757 18.0001 126.75 18.0993 126.724 18.1944C126.698 18.2895 126.654 18.3785 126.593 18.4564C126.533 18.5344 126.458 18.5996 126.372 18.6485L112.372 26.6485C112.258 26.7144 112.129 26.749 111.997 26.749C111.866 26.749 111.736 26.7144 111.622 26.6485L97.6225 18.6485C97.4498 18.5491 97.3236 18.3851 97.2718 18.1926C97.22 18.0002 97.2468 17.795 97.3462 17.6223C97.4457 17.4496 97.6097 17.3234 97.8021 17.2716C97.9946 17.2198 98.1998 17.2466 98.3725 17.346L111.997 25.1335L125.622 17.346C125.708 17.2963 125.803 17.264 125.901 17.2511C125.999 17.2382 126.099 17.2449 126.195 17.2709C126.291 17.2968 126.38 17.3414 126.459 17.4022C126.537 17.4629 126.602 17.5386 126.651 17.6248Z" fill="currentColor"/>
<path d="M145.256 13.8024L159.256 21.8024C159.483 21.9317 159.739 21.9997 160 21.9997C160.261 21.9997 160.517 21.9317 160.744 21.8024L174.744 13.8024C174.973 13.6712 175.164 13.4816 175.297 13.2529C175.43 13.0241 175.5 12.7644 175.5 12.4999C175.5 12.2354 175.43 11.9756 175.297 11.7469C175.164 11.5181 174.973 11.3286 174.744 11.1974L160.744 3.19737C160.517 3.06803 160.261 3 160 3C159.739 3 159.483 3.06803 159.256 3.19737L145.256 11.1974C145.027 11.3286 144.836 11.5181 144.703 11.7469C144.57 11.9756 144.5 12.2354 144.5 12.4999C144.5 12.7644 144.57 13.0241 144.703 13.2529C144.836 13.4816 145.027 13.6712 145.256 13.8024ZM160.006 6.22737L170.976 12.4999L160 18.7724L149.024 12.4999L160.006 6.22737ZM175.309 17.7561C175.506 18.1016 175.558 18.5112 175.453 18.895C175.348 19.2787 175.095 19.6051 174.75 19.8024L160.75 27.8024C160.523 27.9317 160.267 27.9997 160.006 27.9997C159.745 27.9997 159.489 27.9317 159.262 27.8024L145.262 19.8024C145.089 19.706 144.936 19.5762 144.813 19.4204C144.69 19.2646 144.599 19.0859 144.546 18.8947C144.492 18.7036 144.477 18.5037 144.502 18.3067C144.526 18.1097 144.589 17.9195 144.688 17.7471C144.786 17.5747 144.918 17.4235 145.075 17.3024C145.233 17.1813 145.412 17.0926 145.604 17.0415C145.796 16.9904 145.996 16.9778 146.193 17.0046C146.389 17.0313 146.579 17.0969 146.75 17.1974L160 24.7724L173.25 17.1974C173.421 17.0987 173.61 17.0349 173.806 17.0097C174.003 16.9844 174.202 16.9981 174.392 17.05C174.583 17.1019 174.762 17.191 174.918 17.3122C175.074 17.4334 175.205 17.5843 175.302 17.7561H175.309Z" fill="currentColor"/>
<path d="M193.5 13.8752L207.5 21.8752C207.651 21.9616 207.822 22.007 207.996 22.007C208.17 22.007 208.341 21.9616 208.493 21.8752L222.493 13.8752C222.646 13.7878 222.773 13.6614 222.862 13.5088C222.951 13.3562 222.997 13.1829 222.997 13.0064C222.997 12.83 222.951 12.6566 222.862 12.5041C222.773 12.3515 222.646 12.2251 222.493 12.1377L208.493 4.13768C208.341 4.0513 208.17 4.00586 207.996 4.00586C207.822 4.00586 207.651 4.0513 207.5 4.13768L193.5 12.1377C193.347 12.2251 193.219 12.3515 193.131 12.5041C193.042 12.6566 192.995 12.83 192.995 13.0064C192.995 13.1829 193.042 13.3562 193.131 13.5088C193.219 13.6614 193.347 13.7878 193.5 13.8752Z" fill="currentColor"/>
<path d="M221.5 17.1312L208 24.8487L194.5 17.1312C194.385 17.0656 194.259 17.0231 194.128 17.0063C193.997 16.9894 193.864 16.9985 193.737 17.0331C193.61 17.0676 193.49 17.1269 193.386 17.2075C193.281 17.2882 193.194 17.3886 193.128 17.5031C193.062 17.6176 193.02 17.7439 193.003 17.8748C192.986 18.0057 192.995 18.1387 193.03 18.2661C193.064 18.3935 193.124 18.5128 193.204 18.6173C193.285 18.7218 193.385 18.8093 193.5 18.875L207.5 26.875C207.651 26.9614 207.822 27.0068 207.996 27.0068C208.17 27.0068 208.341 26.9614 208.492 26.875L222.492 18.875C222.607 18.8098 222.707 18.7228 222.787 18.619C222.868 18.5151 222.927 18.3964 222.961 18.2696C222.996 18.1429 223.005 18.0106 222.989 17.8802C222.972 17.7499 222.93 17.6241 222.865 17.51C222.8 17.3959 222.713 17.2958 222.609 17.2153C222.505 17.1348 222.386 17.0756 222.26 17.041C222.133 17.0065 222.001 16.9972 221.87 17.0137C221.74 17.0303 221.614 17.0723 221.5 17.1375V17.1312Z" fill="currentColor"/>
<path opacity="0.2" d="M270 13L256 21L242 13L256 5L270 13Z" fill="currentColor"/>
<path d="M241.5 13.8752L255.5 21.8752C255.651 21.9616 255.822 22.007 255.996 22.007C256.17 22.007 256.341 21.9616 256.492 21.8752L270.492 13.8752C270.646 13.7878 270.773 13.6614 270.862 13.5088C270.95 13.3562 270.997 13.1829 270.997 13.0064C270.997 12.83 270.95 12.6566 270.862 12.5041C270.773 12.3515 270.646 12.2251 270.492 12.1377L256.492 4.13768C256.341 4.0513 256.17 4.00586 255.996 4.00586C255.822 4.00586 255.651 4.0513 255.5 4.13768L241.5 12.1377C241.347 12.2251 241.219 12.3515 241.131 12.5041C241.042 12.6566 240.995 12.83 240.995 13.0064C240.995 13.1829 241.042 13.3562 241.131 13.5088C241.219 13.6614 241.347 13.7878 241.5 13.8752ZM256 6.15143L267.984 13.0002L256 19.8489L244.016 13.0002L256 6.15143ZM270.875 17.5002C270.942 17.6148 270.985 17.7416 271.002 17.8731C271.019 18.0046 271.01 18.1382 270.975 18.2662C270.94 18.3942 270.88 18.5139 270.799 18.6185C270.717 18.723 270.616 18.8103 270.5 18.8752L256.5 26.8752C256.349 26.9616 256.178 27.007 256.004 27.007C255.83 27.007 255.659 26.9616 255.507 26.8752L241.5 18.8752C241.385 18.8095 241.285 18.7219 241.204 18.6175C241.124 18.513 241.064 18.3937 241.03 18.2663C240.995 18.1389 240.986 18.0059 241.003 17.875C241.02 17.7441 241.062 17.6178 241.128 17.5033C241.194 17.3888 241.281 17.2884 241.386 17.2077C241.49 17.1271 241.61 17.0678 241.737 17.0332C241.994 16.9635 242.269 16.9988 242.5 17.1314L256 24.8489L269.5 17.1314C269.614 17.0645 269.741 17.0209 269.872 17.0032C270.003 16.9855 270.137 16.994 270.265 17.0284C270.392 17.0627 270.512 17.122 270.617 17.203C270.722 17.284 270.81 17.385 270.875 17.5002Z" fill="currentColor"/>
</g>
<defs>
<clipPath id="clip0_17_13494">
<rect width="272" height="32" rx="5" fill="white"/>
</clipPath>
</defs>
</svg>
