<svg width="272" height="32" viewBox="0 0 272 32" fill="none" xmlns="http://www.w3.org/2000/svg">
<g clip-path="url(#clip0_17_13480)">
<path d="M28 28C28 28.2652 27.8946 28.5196 27.7071 28.7071C27.5196 28.8946 27.2652 29 27 29H5C4.73478 29 4.48043 28.8946 4.29289 28.7071C4.10536 28.5196 4 28.2652 4 28C4 27.7348 4.10536 27.4804 4.29289 27.2929C4.48043 27.1054 4.73478 27 5 27H27C27.2652 27 27.5196 27.1054 27.7071 27.2929C27.8946 27.4804 28 27.7348 28 28ZM28 18V23C28 23.5304 27.7893 24.0391 27.4142 24.4142C27.0391 24.7893 26.5304 25 26 25H6C5.46957 25 4.96086 24.7893 4.58579 24.4142C4.21071 24.0391 4 23.5304 4 23V18C4 17.4696 4.21071 16.9609 4.58579 16.5858C4.96086 16.2107 5.46957 16 6 16H13.0538L11.09 6.83875C10.9649 6.25561 10.9719 5.65189 11.1103 5.07178C11.2487 4.49166 11.515 3.94984 11.8899 3.48596C12.2647 3.02208 12.7385 2.6479 13.2767 2.39079C13.8148 2.13368 14.4036 2.00016 15 2H17C17.5965 1.99997 18.1855 2.13336 18.7237 2.39038C19.262 2.64741 19.736 3.02157 20.111 3.48547C20.486 3.94937 20.7524 4.49127 20.8909 5.07147C21.0294 5.65168 21.0363 6.25551 20.9112 6.83875L18.9463 16H26C26.5304 16 27.0391 16.2107 27.4142 16.5858C27.7893 16.9609 28 17.4696 28 18ZM15.0988 16H16.9013L18.955 6.41875C19.0174 6.12723 19.0139 5.82543 18.9446 5.53546C18.8754 5.24548 18.7422 4.97465 18.5548 4.74278C18.3674 4.51092 18.1305 4.32389 17.8615 4.19537C17.5925 4.06685 17.2981 4.0001 17 4H15C14.7018 3.99991 14.4073 4.06653 14.1381 4.19496C13.869 4.3234 13.6319 4.51041 13.4444 4.7423C13.2568 4.97418 13.1235 5.24508 13.0542 5.53515C12.9849 5.82522 12.9813 6.12712 13.0437 6.41875L15.0988 16ZM26 23V18H6V23H26Z" fill="currentColor"/>
<path d="M75.5 28C75.5 28.1326 75.4473 28.2598 75.3536 28.3536C75.2598 28.4473 75.1326 28.5 75 28.5H53C52.8674 28.5 52.7402 28.4473 52.6464 28.3536C52.5527 28.2598 52.5 28.1326 52.5 28C52.5 27.8674 52.5527 27.7402 52.6464 27.6464C52.7402 27.5527 52.8674 27.5 53 27.5H75C75.1326 27.5 75.2598 27.5527 75.3536 27.6464C75.4473 27.7402 75.5 27.8674 75.5 28ZM75.5 18V23C75.5 23.3978 75.342 23.7794 75.0607 24.0607C74.7794 24.342 74.3978 24.5 74 24.5H54C53.6022 24.5 53.2206 24.342 52.9393 24.0607C52.658 23.7794 52.5 23.3978 52.5 23V18C52.5 17.6022 52.658 17.2206 52.9393 16.9393C53.2206 16.658 53.6022 16.5 54 16.5H61.6713L59.5787 6.73375C59.4694 6.22352 59.4754 5.69528 59.5965 5.1877C59.7176 4.68012 59.9507 4.20604 60.2787 3.80017C60.6067 3.39429 61.0213 3.06689 61.4921 2.84193C61.963 2.61697 62.4782 2.50015 63 2.5H65C65.5219 2.49996 66.0373 2.61665 66.5083 2.84153C66.9793 3.06641 67.394 3.39378 67.7221 3.79968C68.0503 4.20558 68.2835 4.67972 68.4046 5.18739C68.5258 5.69507 68.5319 6.22341 68.4225 6.73375L66.3288 16.5H74C74.3978 16.5 74.7794 16.658 75.0607 16.9393C75.342 17.2206 75.5 17.6022 75.5 18ZM62.6938 16.5H65.3062L67.4438 6.52375C67.5218 6.15932 67.5174 5.78205 67.4309 5.41954C67.3444 5.05702 67.1779 4.71844 66.9436 4.42858C66.7093 4.13871 66.4132 3.90489 66.0769 3.74422C65.7407 3.58356 65.3727 3.50012 65 3.5H63C62.6272 3.49993 62.2591 3.58323 61.9227 3.74382C61.5862 3.9044 61.2899 4.1382 61.0555 4.42809C60.8211 4.71798 60.6545 5.05663 60.5679 5.41923C60.4813 5.78184 60.4769 6.15922 60.555 6.52375L62.6938 16.5ZM74.5 18C74.5 17.8674 74.4473 17.7402 74.3536 17.6464C74.2598 17.5527 74.1326 17.5 74 17.5H54C53.8674 17.5 53.7402 17.5527 53.6464 17.6464C53.5527 17.7402 53.5 17.8674 53.5 18V23C53.5 23.1326 53.5527 23.2598 53.6464 23.3536C53.7402 23.4473 53.8674 23.5 54 23.5H74C74.1326 23.5 74.2598 23.4473 74.3536 23.3536C74.4473 23.2598 74.5 23.1326 74.5 23V18Z" fill="currentColor"/>
<path d="M123.75 28C123.75 28.1989 123.671 28.3897 123.53 28.5303C123.39 28.671 123.199 28.75 123 28.75H101C100.801 28.75 100.61 28.671 100.47 28.5303C100.329 28.3897 100.25 28.1989 100.25 28C100.25 27.8011 100.329 27.6103 100.47 27.4697C100.61 27.329 100.801 27.25 101 27.25H123C123.199 27.25 123.39 27.329 123.53 27.4697C123.671 27.6103 123.75 27.8011 123.75 28ZM123.75 18V23C123.75 23.4641 123.566 23.9092 123.237 24.2374C122.909 24.5656 122.464 24.75 122 24.75H102C101.536 24.75 101.091 24.5656 100.763 24.2374C100.434 23.9092 100.25 23.4641 100.25 23V18C100.25 17.5359 100.434 17.0908 100.763 16.7626C101.091 16.4344 101.536 16.25 102 16.25H109.363L107.335 6.78625C107.218 6.23962 107.224 5.67369 107.354 5.12989C107.484 4.58609 107.733 4.07817 108.085 3.64331C108.436 3.20844 108.88 2.85764 109.385 2.61656C109.889 2.37549 110.441 2.25025 111 2.25H113C113.559 2.25006 114.111 2.37517 114.616 2.61616C115.12 2.85715 115.565 3.20793 115.916 3.64282C116.268 4.07771 116.517 4.58569 116.647 5.12959C116.777 5.67348 116.783 6.23951 116.666 6.78625L114.638 16.25H122C122.464 16.25 122.909 16.4344 123.237 16.7626C123.566 17.0908 123.75 17.5359 123.75 18ZM110.896 16.25H113.104L115.199 6.47125C115.269 6.14333 115.265 5.80385 115.187 5.47765C115.109 5.15145 114.96 4.84678 114.749 4.58592C114.538 4.32507 114.272 4.11463 113.969 3.97C113.666 3.82537 113.335 3.7502 113 3.75H111C110.665 3.75001 110.333 3.82504 110.031 3.96959C109.728 4.11415 109.461 4.32456 109.25 4.58544C109.039 4.84631 108.89 5.15105 108.812 5.47734C108.734 5.80364 108.73 6.14322 108.8 6.47125L110.896 16.25ZM122.25 18C122.25 17.9337 122.224 17.8701 122.177 17.8232C122.13 17.7763 122.066 17.75 122 17.75H102C101.934 17.75 101.87 17.7763 101.823 17.8232C101.776 17.8701 101.75 17.9337 101.75 18V23C101.75 23.0663 101.776 23.1299 101.823 23.1768C101.87 23.2237 101.934 23.25 102 23.25H122C122.066 23.25 122.13 23.2237 122.177 23.1768C122.224 23.1299 122.25 23.0663 122.25 23V18Z" fill="currentColor"/>
<path d="M172.5 28C172.5 28.3978 172.342 28.7794 172.061 29.0607C171.779 29.342 171.398 29.5 171 29.5H149C148.602 29.5 148.221 29.342 147.939 29.0607C147.658 28.7794 147.5 28.3978 147.5 28C147.5 27.6022 147.658 27.2206 147.939 26.9393C148.221 26.658 148.602 26.5 149 26.5H171C171.398 26.5 171.779 26.658 172.061 26.9393C172.342 27.2206 172.5 27.6022 172.5 28ZM172.5 18V22C172.5 22.663 172.237 23.2989 171.768 23.7678C171.299 24.2366 170.663 24.5 170 24.5H150C149.337 24.5 148.701 24.2366 148.232 23.7678C147.763 23.2989 147.5 22.663 147.5 22V18C147.5 17.337 147.763 16.7011 148.232 16.2322C148.701 15.7634 149.337 15.5 150 15.5H156.435L154.601 6.9425C154.461 6.28655 154.469 5.60748 154.624 4.95499C154.78 4.3025 155.08 3.69309 155.502 3.17136C155.923 2.64963 156.456 2.22877 157.062 1.93959C157.667 1.65041 158.329 1.50022 159 1.5H161C161.671 1.50003 162.333 1.65009 162.939 1.93919C163.544 2.22829 164.077 2.64912 164.499 3.17087C164.921 3.69263 165.221 4.3021 165.377 4.95469C165.533 5.60727 165.541 6.28645 165.4 6.9425L163.565 15.5H170C170.663 15.5 171.299 15.7634 171.768 16.2322C172.237 16.7011 172.5 17.337 172.5 18ZM159.5 15.5H160.5L162.468 6.31375C162.514 6.09503 162.512 5.86861 162.46 5.65107C162.408 5.43353 162.307 5.23039 162.167 5.0565C162.026 4.88262 161.848 4.7424 161.646 4.64611C161.445 4.54982 161.224 4.4999 161 4.5H159C158.776 4.50008 158.556 4.55014 158.354 4.64651C158.152 4.74288 157.975 4.88313 157.834 5.05699C157.694 5.23085 157.594 5.43393 157.542 5.65137C157.49 5.86882 157.487 6.09513 157.534 6.31375L159.5 15.5ZM169.5 18.5H150.5V21.5H169.5V18.5Z" fill="currentColor"/>
<path d="M220 28C220 28.2652 219.895 28.5196 219.707 28.7071C219.52 28.8946 219.265 29 219 29H197C196.735 29 196.48 28.8946 196.293 28.7071C196.105 28.5196 196 28.2652 196 28C196 27.7348 196.105 27.4804 196.293 27.2929C196.48 27.1054 196.735 27 197 27H219C219.265 27 219.52 27.1054 219.707 27.2929C219.895 27.4804 220 27.7348 220 28ZM218 16H210.946L212.91 6.83875C213.035 6.25561 213.028 5.65189 212.89 5.07178C212.751 4.49166 212.485 3.94984 212.11 3.48596C211.735 3.02208 211.261 2.6479 210.723 2.39079C210.185 2.13368 209.596 2.00016 209 2H207C206.404 2.00016 205.815 2.13368 205.277 2.39079C204.739 2.6479 204.265 3.02208 203.89 3.48596C203.515 3.94984 203.249 4.49166 203.11 5.07178C202.972 5.65189 202.965 6.25561 203.09 6.83875L205.054 16H198C197.47 16 196.961 16.2107 196.586 16.5858C196.211 16.9609 196 17.4696 196 18V23C196 23.5304 196.211 24.0391 196.586 24.4142C196.961 24.7893 197.47 25 198 25H218C218.53 25 219.039 24.7893 219.414 24.4142C219.789 24.0391 220 23.5304 220 23V18C220 17.4696 219.789 16.9609 219.414 16.5858C219.039 16.2107 218.53 16 218 16Z" fill="currentColor"/>
<path opacity="0.2" d="M259.933 6.625L257.71 17H254.29L252.068 6.625C251.974 6.18793 251.98 5.73559 252.084 5.30101C252.188 4.86644 252.388 4.46062 252.669 4.11319C252.95 3.76577 253.306 3.48552 253.709 3.29292C254.112 3.10033 254.553 3.00025 255 3H257C257.447 3.00025 257.888 3.10033 258.291 3.29292C258.695 3.48552 259.05 3.76577 259.331 4.11319C259.612 4.46062 259.812 4.86644 259.916 5.30101C260.02 5.73559 260.026 6.18793 259.933 6.625Z" fill="currentColor"/>
<path d="M268 28C268 28.2652 267.895 28.5196 267.707 28.7071C267.52 28.8946 267.265 29 267 29H245C244.735 29 244.48 28.8946 244.293 28.7071C244.105 28.5196 244 28.2652 244 28C244 27.7348 244.105 27.4804 244.293 27.2929C244.48 27.1054 244.735 27 245 27H267C267.265 27 267.52 27.1054 267.707 27.2929C267.895 27.4804 268 27.7348 268 28ZM268 18V23C268 23.5304 267.789 24.0391 267.414 24.4142C267.039 24.7893 266.53 25 266 25H246C245.47 25 244.961 24.7893 244.586 24.4142C244.211 24.0391 244 23.5304 244 23V18C244 17.4696 244.211 16.9609 244.586 16.5858C244.961 16.2107 245.47 16 246 16H253.054L251.09 6.83875C250.965 6.25561 250.972 5.65189 251.11 5.07178C251.249 4.49166 251.515 3.94984 251.89 3.48596C252.265 3.02208 252.739 2.6479 253.277 2.39079C253.815 2.13368 254.404 2.00016 255 2H257C257.597 1.99997 258.185 2.13336 258.724 2.39038C259.262 2.64741 259.736 3.02157 260.111 3.48547C260.486 3.94937 260.752 4.49127 260.891 5.07147C261.029 5.65168 261.036 6.25551 260.911 6.83875L258.946 16H266C266.53 16 267.039 16.2107 267.414 16.5858C267.789 16.9609 268 17.4696 268 18ZM255.099 16H256.901L258.955 6.41875C259.017 6.12723 259.014 5.82543 258.945 5.53546C258.875 5.24548 258.742 4.97465 258.555 4.74278C258.367 4.51092 258.13 4.32389 257.861 4.19537C257.592 4.06685 257.298 4.0001 257 4H255C254.702 3.99991 254.407 4.06653 254.138 4.19496C253.869 4.3234 253.632 4.51041 253.444 4.7423C253.257 4.97418 253.124 5.24508 253.054 5.53515C252.985 5.82522 252.981 6.12712 253.044 6.41875L255.099 16ZM266 23V18H246V23H266Z" fill="currentColor"/>
</g>
<defs>
<clipPath id="clip0_17_13480">
<rect width="272" height="32" rx="5" fill="white"/>
</clipPath>
</defs>
</svg>
