<svg width="272" height="32" viewBox="0 0 272 32" fill="none" xmlns="http://www.w3.org/2000/svg">
<g clip-path="url(#clip0_17_13368)">
<path d="M27 5H5C4.46957 5 3.96086 5.21071 3.58579 5.58579C3.21071 5.96086 3 6.46957 3 7V25C3 25.5304 3.21071 26.0391 3.58579 26.4142C3.96086 26.7893 4.46957 27 5 27H27C27.5304 27 28.0391 26.7893 28.4142 26.4142C28.7893 26.0391 29 25.5304 29 25V7C29 6.46957 28.7893 5.96086 28.4142 5.58579C28.0391 5.21071 27.5304 5 27 5ZM27 25H5V7H27V25ZM22.2563 10.9575C20.5737 9.695 18.3512 9 16 9C13.6488 9 11.4263 9.695 9.75 10.9575C7.97375 12.2838 7 14.075 7 16C7 17.925 7.97375 19.7162 9.75 21.0425C11.4263 22.305 13.6488 23 16 23C18.3512 23 20.5737 22.305 22.2563 21.0425C24.0263 19.7162 25 17.925 25 16C25 14.075 24.0263 12.2838 22.2563 10.9575ZM16 21C12.14 21 9 18.7575 9 16C9 13.2425 12.14 11 16 11C19.86 11 23 13.2425 23 16C23 18.7575 19.86 21 16 21Z" fill="currentColor"/>
<path d="M75 5.5H53C52.6022 5.5 52.2206 5.65804 51.9393 5.93934C51.658 6.22064 51.5 6.60218 51.5 7V25C51.5 25.3978 51.658 25.7794 51.9393 26.0607C52.2206 26.342 52.6022 26.5 53 26.5H75C75.3978 26.5 75.7794 26.342 76.0607 26.0607C76.342 25.7794 76.5 25.3978 76.5 25V7C76.5 6.60218 76.342 6.22064 76.0607 5.93934C75.7794 5.65804 75.3978 5.5 75 5.5ZM75.5 25C75.5 25.1326 75.4473 25.2598 75.3536 25.3536C75.2598 25.4473 75.1326 25.5 75 25.5H53C52.8674 25.5 52.7402 25.4473 52.6464 25.3536C52.5527 25.2598 52.5 25.1326 52.5 25V7C52.5 6.86739 52.5527 6.74021 52.6464 6.64645C52.7402 6.55268 52.8674 6.5 53 6.5H75C75.1326 6.5 75.2598 6.55268 75.3536 6.64645C75.4473 6.74021 75.5 6.86739 75.5 7V25ZM64 9.5C59.3125 9.5 55.5 12.4163 55.5 16C55.5 19.5837 59.3125 22.5 64 22.5C68.6875 22.5 72.5 19.5837 72.5 16C72.5 12.4163 68.6875 9.5 64 9.5ZM64 21.5C59.865 21.5 56.5 19.0325 56.5 16C56.5 12.9675 59.865 10.5 64 10.5C68.135 10.5 71.5 12.9675 71.5 16C71.5 19.0325 68.135 21.5 64 21.5Z" fill="currentColor"/>
<path d="M123 5.25H101C100.536 5.25 100.091 5.43437 99.7626 5.76256C99.4344 6.09075 99.25 6.53587 99.25 7V25C99.25 25.4641 99.4344 25.9092 99.7626 26.2374C100.091 26.5656 100.536 26.75 101 26.75H123C123.464 26.75 123.909 26.5656 124.237 26.2374C124.566 25.9092 124.75 25.4641 124.75 25V7C124.75 6.53587 124.566 6.09075 124.237 5.76256C123.909 5.43437 123.464 5.25 123 5.25ZM123.25 25C123.25 25.0663 123.224 25.1299 123.177 25.1768C123.13 25.2237 123.066 25.25 123 25.25H101C100.934 25.25 100.87 25.2237 100.823 25.1768C100.776 25.1299 100.75 25.0663 100.75 25V7C100.75 6.9337 100.776 6.87011 100.823 6.82322C100.87 6.77634 100.934 6.75 101 6.75H123C123.066 6.75 123.13 6.77634 123.177 6.82322C123.224 6.87011 123.25 6.9337 123.25 7V25ZM112 9.25C107.175 9.25 103.25 12.2775 103.25 16C103.25 19.7225 107.175 22.75 112 22.75C116.825 22.75 120.75 19.7225 120.75 16C120.75 12.2775 116.825 9.25 112 9.25ZM112 21.25C108 21.25 104.75 18.895 104.75 16C104.75 13.105 108 10.75 112 10.75C116 10.75 119.25 13.105 119.25 16C119.25 18.895 116 21.25 112 21.25Z" fill="currentColor"/>
<path d="M171 4.5H149C148.337 4.5 147.701 4.76339 147.232 5.23223C146.763 5.70107 146.5 6.33696 146.5 7V25C146.5 25.663 146.763 26.2989 147.232 26.7678C147.701 27.2366 148.337 27.5 149 27.5H171C171.663 27.5 172.299 27.2366 172.768 26.7678C173.237 26.2989 173.5 25.663 173.5 25V7C173.5 6.33696 173.237 5.70107 172.768 5.23223C172.299 4.76339 171.663 4.5 171 4.5ZM170.5 24.5H149.5V7.5H170.5V24.5ZM154.179 20.7563C155.75 21.8813 157.82 22.5 160 22.5C162.18 22.5 164.25 21.8813 165.821 20.7563C167.524 19.54 168.5 17.8062 168.5 16C168.5 14.1938 167.524 12.46 165.821 11.25C164.25 10.125 162.18 9.5 160 9.5C157.82 9.5 155.75 10.125 154.179 11.25C152.476 12.46 151.5 14.1938 151.5 16C151.5 17.8062 152.476 19.54 154.179 20.7563ZM160 12.5C162.981 12.5 165.5 14.1025 165.5 16C165.5 17.8975 162.981 19.5 160 19.5C157.019 19.5 154.5 17.8975 154.5 16C154.5 14.1025 157.019 12.5 160 12.5Z" fill="currentColor"/>
<path d="M219 5H197C196.47 5 195.961 5.21071 195.586 5.58579C195.211 5.96086 195 6.46957 195 7V25C195 25.5304 195.211 26.0391 195.586 26.4142C195.961 26.7893 196.47 27 197 27H219C219.53 27 220.039 26.7893 220.414 26.4142C220.789 26.0391 221 25.5304 221 25V7C221 6.46957 220.789 5.96086 220.414 5.58579C220.039 5.21071 219.53 5 219 5ZM217 16C217 19.8663 212.97 23 208 23C203.03 23 199 19.8663 199 16C199 12.1337 203.03 9 208 9C212.97 9 217 12.1337 217 16Z" fill="currentColor"/>
<path opacity="0.2" d="M267 6H245C244.735 6 244.48 6.10536 244.293 6.29289C244.105 6.48043 244 6.73478 244 7V25C244 25.2652 244.105 25.5196 244.293 25.7071C244.48 25.8946 244.735 26 245 26H267C267.265 26 267.52 25.8946 267.707 25.7071C267.895 25.5196 268 25.2652 268 25V7C268 6.73478 267.895 6.48043 267.707 6.29289C267.52 6.10536 267.265 6 267 6ZM256 22C251.581 22 248 19.3138 248 16C248 12.6862 251.581 10 256 10C260.419 10 264 12.6862 264 16C264 19.3138 260.419 22 256 22Z" fill="currentColor"/>
<path d="M267 5H245C244.47 5 243.961 5.21071 243.586 5.58579C243.211 5.96086 243 6.46957 243 7V25C243 25.5304 243.211 26.0391 243.586 26.4142C243.961 26.7893 244.47 27 245 27H267C267.53 27 268.039 26.7893 268.414 26.4142C268.789 26.0391 269 25.5304 269 25V7C269 6.46957 268.789 5.96086 268.414 5.58579C268.039 5.21071 267.53 5 267 5ZM267 25H245V7H267V25ZM262.256 10.9575C260.574 9.695 258.351 9 256 9C253.649 9 251.426 9.695 249.75 10.9575C247.974 12.2838 247 14.075 247 16C247 17.925 247.974 19.7162 249.75 21.0425C251.426 22.305 253.649 23 256 23C258.351 23 260.574 22.305 262.256 21.0425C264.026 19.7162 265 17.925 265 16C265 14.075 264.026 12.2838 262.256 10.9575ZM256 21C252.14 21 249 18.7575 249 16C249 13.2425 252.14 11 256 11C259.86 11 263 13.2425 263 16C263 18.7575 259.86 21 256 21Z" fill="currentColor"/>
</g>
<defs>
<clipPath id="clip0_17_13368">
<rect width="272" height="32" rx="5" fill="white"/>
</clipPath>
</defs>
</svg>
