<svg width="272" height="32" viewBox="0 0 272 32" fill="none" xmlns="http://www.w3.org/2000/svg">
<g clip-path="url(#clip0_17_19077)">
<path d="M21 14C21 14.2652 20.8946 14.5195 20.7071 14.7071C20.5196 14.8946 20.2652 15 20 15H12C11.7348 15 11.4804 14.8946 11.2929 14.7071C11.1054 14.5195 11 14.2652 11 14C11 13.7348 11.1054 13.4804 11.2929 13.2929C11.4804 13.1053 11.7348 13 12 13H20C20.2652 13 20.5196 13.1053 20.7071 13.2929C20.8946 13.4804 21 13.7348 21 14ZM20 17H12C11.7348 17 11.4804 17.1053 11.2929 17.2929C11.1054 17.4804 11 17.7348 11 18C11 18.2652 11.1054 18.5195 11.2929 18.7071C11.4804 18.8946 11.7348 19 12 19H20C20.2652 19 20.5196 18.8946 20.7071 18.7071C20.8946 18.5195 21 18.2652 21 18C21 17.7348 20.8946 17.4804 20.7071 17.2929C20.5196 17.1053 20.2652 17 20 17ZM29 16C29.0005 18.2444 28.4199 20.4507 27.3147 22.4042C26.2095 24.3576 24.6174 25.9917 22.6934 27.1473C20.7693 28.3029 18.5788 28.9406 16.3352 28.9985C14.0915 29.0564 11.8711 28.5324 9.89 27.4775L5.63375 28.8962C5.28136 29.0137 4.9032 29.0308 4.54166 28.9455C4.18012 28.8602 3.84948 28.6758 3.58681 28.4132C3.32414 28.1505 3.13982 27.8199 3.0545 27.4583C2.96918 27.0968 2.98623 26.7186 3.10375 26.3662L4.5225 22.11C3.59519 20.3665 3.07725 18.4347 3.008 16.4612C2.93875 14.4877 3.32001 12.5243 4.12284 10.7201C4.92567 8.91597 6.12897 7.31841 7.6414 6.04872C9.15383 4.77902 10.9356 3.87057 12.8516 3.39232C14.7675 2.91407 16.7672 2.87859 18.699 3.28856C20.6307 3.69854 22.4436 4.54321 24.0001 5.75844C25.5566 6.97368 26.8158 8.52754 27.6822 10.3021C28.5485 12.0766 28.9992 14.0252 29 16ZM27 16C26.9995 14.3126 26.6109 12.648 25.8641 11.1349C25.1174 9.6218 24.0325 8.30077 22.6935 7.27402C21.3545 6.24727 19.7973 5.54232 18.1422 5.21371C16.4872 4.88511 14.7787 4.94165 13.149 5.37897C11.5194 5.8163 10.0121 6.62267 8.74394 7.73572C7.47577 8.84876 6.48065 10.2386 5.83558 11.7978C5.19051 13.357 4.91277 15.0437 5.02387 16.7273C5.13496 18.411 5.63191 20.0466 6.47625 21.5075C6.54712 21.6301 6.59112 21.7664 6.60534 21.9074C6.61956 22.0483 6.60368 22.1906 6.55875 22.325L5 27L9.675 25.4412C9.77683 25.4065 9.88367 25.3888 9.99125 25.3887C10.1669 25.389 10.3393 25.4356 10.4913 25.5237C12.1635 26.4913 14.0611 27.0013 15.9931 27.0025C17.925 27.0037 19.8232 26.4961 21.4967 25.5307C23.1702 24.5653 24.5599 23.1761 25.526 21.5031C26.492 19.83 27.0004 17.932 27 16Z" fill="currentColor"/>
<path d="M68.5 14C68.5 14.1326 68.4473 14.2598 68.3536 14.3536C68.2598 14.4473 68.1326 14.5 68 14.5H60C59.8674 14.5 59.7402 14.4473 59.6464 14.3536C59.5527 14.2598 59.5 14.1326 59.5 14C59.5 13.8674 59.5527 13.7402 59.6464 13.6465C59.7402 13.5527 59.8674 13.5 60 13.5H68C68.1326 13.5 68.2598 13.5527 68.3536 13.6465C68.4473 13.7402 68.5 13.8674 68.5 14ZM68 17.5H60C59.8674 17.5 59.7402 17.5527 59.6464 17.6465C59.5527 17.7402 59.5 17.8674 59.5 18C59.5 18.1326 59.5527 18.2598 59.6464 18.3536C59.7402 18.4473 59.8674 18.5 60 18.5H68C68.1326 18.5 68.2598 18.4473 68.3536 18.3536C68.4473 18.2598 68.5 18.1326 68.5 18C68.5 17.8674 68.4473 17.7402 68.3536 17.6465C68.2598 17.5527 68.1326 17.5 68 17.5ZM76.5 16C76.5004 18.1762 75.9327 20.3147 74.853 22.2041C73.7733 24.0935 72.2191 25.6684 70.3441 26.7728C68.469 27.8773 66.3381 28.4731 64.1622 28.5013C61.9862 28.5295 59.8406 27.9892 57.9375 26.9338L53.4763 28.4213C53.212 28.5094 52.9283 28.5222 52.6572 28.4582C52.386 28.3942 52.1381 28.256 51.941 28.059C51.744 27.862 51.6058 27.614 51.5418 27.3428C51.4778 27.0717 51.4906 26.7881 51.5788 26.5238L53.0663 22.0625C52.1416 20.3937 51.6112 18.5354 51.5157 16.6299C51.4202 14.7244 51.7621 12.8224 52.5153 11.0694C53.2685 9.31654 54.413 7.75931 55.861 6.51705C57.309 5.27479 59.0222 4.38048 60.8692 3.90263C62.7163 3.42478 64.6482 3.37608 66.517 3.76025C68.3858 4.14442 70.1419 4.95127 71.6506 6.11898C73.1594 7.2867 74.3809 8.78429 75.2214 10.497C76.062 12.2097 76.4994 14.0921 76.5 16ZM75.5 16C75.4995 14.236 75.0931 12.4957 74.3124 10.9138C73.5316 9.33188 72.3974 7.95082 70.9975 6.87743C69.5976 5.80403 67.9695 5.06709 66.2392 4.7236C64.5089 4.38012 62.7227 4.43931 61.019 4.8966C59.3152 5.35388 57.7395 6.197 56.4137 7.36071C55.0879 8.52443 54.0476 9.97756 53.3733 11.6077C52.699 13.2378 52.4087 15.0012 52.525 16.7614C52.6413 18.5216 53.1609 20.2315 54.0438 21.7588C54.0792 21.8201 54.1012 21.8882 54.1083 21.9587C54.1154 22.0292 54.1075 22.1004 54.085 22.1675L52.5275 26.84C52.4981 26.9281 52.4939 27.0227 52.5152 27.113C52.5365 27.2034 52.5826 27.2861 52.6483 27.3518C52.7139 27.4174 52.7966 27.4635 52.887 27.4848C52.9774 27.5062 53.0719 27.5019 53.16 27.4725L57.8325 25.915C57.8836 25.8976 57.9373 25.8887 57.9913 25.8888C58.079 25.8892 58.1652 25.9125 58.2413 25.9563C59.9895 26.9677 61.9732 27.5008 63.9929 27.502C66.0126 27.5033 67.997 26.9726 69.7465 25.9633C71.496 24.9541 72.9488 23.5019 73.9588 21.7529C74.9688 20.0039 75.5004 18.0197 75.5 16Z" fill="currentColor"/>
<path d="M116.75 14C116.75 14.1989 116.671 14.3897 116.53 14.5303C116.39 14.671 116.199 14.75 116 14.75H108C107.801 14.75 107.61 14.671 107.47 14.5303C107.329 14.3897 107.25 14.1989 107.25 14C107.25 13.8011 107.329 13.6103 107.47 13.4697C107.61 13.329 107.801 13.25 108 13.25H116C116.199 13.25 116.39 13.329 116.53 13.4697C116.671 13.6103 116.75 13.8011 116.75 14ZM116 17.25H108C107.801 17.25 107.61 17.329 107.47 17.4697C107.329 17.6103 107.25 17.8011 107.25 18C107.25 18.1989 107.329 18.3897 107.47 18.5303C107.61 18.671 107.801 18.75 108 18.75H116C116.199 18.75 116.39 18.671 116.53 18.5303C116.671 18.3897 116.75 18.1989 116.75 18C116.75 17.8011 116.671 17.6103 116.53 17.4697C116.39 17.329 116.199 17.25 116 17.25ZM124.75 16C124.75 18.2103 124.176 20.3827 123.084 22.3042C121.992 24.2256 120.418 25.8301 118.519 26.9602C116.619 28.0902 114.459 28.7071 112.249 28.7503C110.039 28.7934 107.856 28.2613 105.914 27.2063L101.555 28.6588C101.247 28.7616 100.916 28.7765 100.599 28.7019C100.283 28.6272 99.9938 28.4659 99.7639 28.2361C99.5341 28.0062 99.3728 27.7169 99.2982 27.4006C99.2235 27.0842 99.2384 26.7534 99.3413 26.445L100.794 22.0863C99.8678 20.38 99.3437 18.4849 99.2615 16.5454C99.1792 14.6058 99.5409 12.6731 100.319 10.8946C101.097 9.11609 102.271 7.53872 103.751 6.28279C105.231 5.02686 106.979 4.12552 108.861 3.64751C110.742 3.1695 112.708 3.12744 114.608 3.52454C116.508 3.92163 118.293 4.7474 119.825 5.93886C121.358 7.13033 122.598 8.65604 123.452 10.3997C124.305 12.1433 124.749 14.0587 124.75 16ZM123.25 16C123.25 14.2743 122.852 12.5718 122.088 11.0242C121.325 9.47666 120.215 8.12554 118.846 7.0754C117.476 6.02525 115.884 5.30423 114.191 4.96812C112.498 4.63202 110.751 4.68983 109.084 5.13709C107.418 5.58436 105.876 6.40908 104.579 7.54745C103.282 8.68582 102.264 10.1073 101.605 11.702C100.945 13.2966 100.661 15.0217 100.774 16.7437C100.888 18.4657 101.396 20.1384 102.26 21.6325C102.313 21.7245 102.347 21.8268 102.357 21.9327C102.368 22.0385 102.356 22.1454 102.323 22.2463L100.765 26.9188C100.75 26.9628 100.748 27.0101 100.759 27.0553C100.77 27.1005 100.793 27.1418 100.825 27.1746C100.858 27.2075 100.9 27.2305 100.945 27.2412C100.99 27.2518 101.037 27.2497 101.081 27.235L105.75 25.6775C105.827 25.6523 105.907 25.6392 105.988 25.6388C106.119 25.6395 106.248 25.6744 106.363 25.74C108.073 26.7304 110.014 27.2527 111.99 27.2545C113.967 27.2562 115.909 26.7372 117.621 25.7497C119.333 24.7623 120.754 23.3413 121.743 21.6297C122.731 19.9181 123.251 17.9764 123.25 16Z" fill="currentColor"/>
<path d="M165.5 13.5C165.5 13.8978 165.342 14.2793 165.061 14.5606C164.779 14.8419 164.398 15 164 15H156C155.602 15 155.221 14.8419 154.939 14.5606C154.658 14.2793 154.5 13.8978 154.5 13.5C154.5 13.1021 154.658 12.7206 154.939 12.4393C155.221 12.158 155.602 12 156 12H164C164.398 12 164.779 12.158 165.061 12.4393C165.342 12.7206 165.5 13.1021 165.5 13.5ZM164 17H156C155.602 17 155.221 17.158 154.939 17.4393C154.658 17.7206 154.5 18.1021 154.5 18.5C154.5 18.8978 154.658 19.2793 154.939 19.5606C155.221 19.8419 155.602 20 156 20H164C164.398 20 164.779 19.8419 165.061 19.5606C165.342 19.2793 165.5 18.8978 165.5 18.5C165.5 18.1021 165.342 17.7206 165.061 17.4393C164.779 17.158 164.398 17 164 17ZM173.5 16C173.5 18.3124 172.907 20.5862 171.776 22.6034C170.646 24.6206 169.016 26.3136 167.043 27.52C165.07 28.7264 162.821 29.4059 160.51 29.4932C158.199 29.5805 155.904 29.0728 153.846 28.0187L149.793 29.375C149.351 29.5237 148.877 29.5462 148.424 29.44C147.97 29.3337 147.556 29.103 147.226 28.7737C146.897 28.4444 146.666 28.0297 146.56 27.5762C146.454 27.1228 146.476 26.6488 146.625 26.2075L147.976 22.1537C147.048 20.3362 146.545 18.3319 146.503 16.2917C146.461 14.2514 146.882 12.2282 147.735 10.3742C148.588 8.52022 149.85 6.88368 151.426 5.58762C153.002 4.29157 154.852 3.36974 156.836 2.89143C158.82 2.41313 160.886 2.3908 162.88 2.82613C164.874 3.26146 166.743 4.14311 168.347 5.40481C169.951 6.6665 171.248 8.2754 172.14 10.1105C173.033 11.9457 173.498 13.9593 173.5 16ZM170.5 16C170.499 14.3894 170.128 12.8006 169.415 11.3564C168.703 9.91215 167.667 8.65129 166.389 7.67133C165.111 6.69136 163.624 6.01856 162.045 5.70495C160.465 5.39135 158.834 5.44536 157.279 5.8628C155.723 6.28024 154.284 7.04993 153.074 8.11232C151.863 9.1747 150.913 10.5013 150.298 11.9895C149.682 13.4777 149.417 15.0877 149.523 16.6947C149.629 18.3018 150.103 19.863 150.909 21.2575C151.015 21.4414 151.081 21.6458 151.103 21.8572C151.125 22.0686 151.101 22.2821 151.034 22.4837L149.793 26.2075L153.516 24.9662C153.669 24.9152 153.83 24.889 153.991 24.8887C154.255 24.8892 154.513 24.959 154.741 25.0912C156.338 26.0149 158.149 26.5018 159.993 26.503C161.837 26.5042 163.649 26.0196 165.247 25.098C166.844 24.1765 168.171 22.8504 169.093 21.2532C170.015 19.6561 170.501 17.8442 170.5 16Z" fill="currentColor"/>
<path d="M208 3C205.756 2.99951 203.549 3.58011 201.596 4.68529C199.642 5.79046 198.008 7.38256 196.853 9.30662C195.697 11.2307 195.059 13.4212 195.001 15.6648C194.944 17.9085 195.468 20.1289 196.522 22.11L195.104 26.3662C194.986 26.7186 194.969 27.0968 195.054 27.4583C195.14 27.8199 195.324 28.1505 195.587 28.4132C195.849 28.6759 196.18 28.8602 196.542 28.9455C196.903 29.0308 197.281 29.0138 197.634 28.8962L201.89 27.4775C203.633 28.4048 205.565 28.9228 207.539 28.992C209.512 29.0613 211.476 28.68 213.28 27.8772C215.084 27.0743 216.682 25.871 217.951 24.3586C219.221 22.8462 220.129 21.0644 220.608 19.1484C221.086 17.2325 221.121 15.2328 220.711 13.301C220.301 11.3693 219.457 9.55642 218.242 7.9999C217.026 6.44337 215.472 5.18415 213.698 4.31782C211.923 3.45149 209.975 3.00081 208 3ZM212 19H204C203.735 19 203.48 18.8946 203.293 18.7071C203.105 18.5196 203 18.2652 203 18C203 17.7348 203.105 17.4804 203.293 17.2929C203.48 17.1054 203.735 17 204 17H212C212.265 17 212.52 17.1054 212.707 17.2929C212.895 17.4804 213 17.7348 213 18C213 18.2652 212.895 18.5196 212.707 18.7071C212.52 18.8946 212.265 19 212 19ZM212 15H204C203.735 15 203.48 14.8946 203.293 14.7071C203.105 14.5196 203 14.2652 203 14C203 13.7348 203.105 13.4804 203.293 13.2929C203.48 13.1054 203.735 13 204 13H212C212.265 13 212.52 13.1054 212.707 13.2929C212.895 13.4804 213 13.7348 213 14C213 14.2652 212.895 14.5196 212.707 14.7071C212.52 14.8946 212.265 15 212 15Z" fill="currentColor"/>
<path opacity="0.2" d="M268 16C268 18.1075 267.446 20.1778 266.392 22.0027C265.338 23.8277 263.822 25.3429 261.996 26.396C260.171 27.449 258.1 28.0028 255.993 28.0015C253.885 28.0003 251.815 27.444 249.991 26.3888L245.318 27.9475C245.141 28.0063 244.952 28.0148 244.771 27.9722C244.591 27.9295 244.425 27.8373 244.294 27.706C244.163 27.5747 244.071 27.4093 244.028 27.2286C243.985 27.0478 243.994 26.8587 244.053 26.6825L245.611 22.0088C244.69 20.4151 244.148 18.6308 244.026 16.794C243.905 14.9572 244.208 13.117 244.911 11.4159C245.615 9.71488 246.7 8.19849 248.084 6.98412C249.467 5.76974 251.112 4.88994 252.889 4.41277C254.667 3.93561 256.531 3.87388 258.337 4.23237C260.142 4.59085 261.841 5.35994 263.302 6.48012C264.763 7.6003 265.946 9.04154 266.761 10.6923C267.576 12.3431 268 14.1592 268 16Z" fill="currentColor"/>
<path d="M256 3C253.756 2.99951 251.549 3.58011 249.596 4.68529C247.642 5.79046 246.008 7.38256 244.853 9.30662C243.697 11.2307 243.059 13.4212 243.001 15.6648C242.944 17.9085 243.468 20.1289 244.522 22.11L243.104 26.3662C242.986 26.7186 242.969 27.0968 243.054 27.4583C243.14 27.8199 243.324 28.1505 243.587 28.4132C243.849 28.6759 244.18 28.8602 244.542 28.9455C244.903 29.0308 245.281 29.0138 245.634 28.8962L249.89 27.4775C251.633 28.4048 253.565 28.9228 255.539 28.992C257.512 29.0613 259.476 28.68 261.28 27.8772C263.084 27.0743 264.682 25.871 265.951 24.3586C267.221 22.8462 268.129 21.0644 268.608 19.1484C269.086 17.2325 269.121 15.2328 268.711 13.301C268.301 11.3693 267.457 9.55642 266.242 7.9999C265.026 6.44337 263.472 5.18415 261.698 4.31782C259.923 3.45149 257.975 3.00081 256 3ZM256 27C254.066 27.0013 252.166 26.4921 250.492 25.5238C250.341 25.4356 250.168 25.3891 249.992 25.3888C249.885 25.3888 249.778 25.4065 249.676 25.4412L245 27L246.559 22.325C246.604 22.1907 246.62 22.0483 246.605 21.9074C246.591 21.7665 246.547 21.6301 246.476 21.5075C245.264 19.4111 244.777 16.9732 245.091 14.572C245.406 12.1707 246.504 9.94027 248.215 8.22674C249.926 6.51321 252.155 5.41234 254.556 5.0949C256.957 4.77747 259.396 5.26122 261.494 6.47111C263.592 7.68099 265.232 9.54939 266.159 11.7864C267.087 14.0235 267.25 16.5042 266.624 18.8436C265.998 21.1831 264.618 23.2505 262.697 24.7253C260.776 26.2 258.422 26.9996 256 27ZM261 14C261 14.2652 260.895 14.5196 260.707 14.7071C260.52 14.8946 260.265 15 260 15H252C251.735 15 251.48 14.8946 251.293 14.7071C251.105 14.5196 251 14.2652 251 14C251 13.7348 251.105 13.4804 251.293 13.2929C251.48 13.1054 251.735 13 252 13H260C260.265 13 260.52 13.1054 260.707 13.2929C260.895 13.4804 261 13.7348 261 14ZM261 18C261 18.2652 260.895 18.5196 260.707 18.7071C260.52 18.8946 260.265 19 260 19H252C251.735 19 251.48 18.8946 251.293 18.7071C251.105 18.5196 251 18.2652 251 18C251 17.7348 251.105 17.4804 251.293 17.2929C251.48 17.1054 251.735 17 252 17H260C260.265 17 260.52 17.1054 260.707 17.2929C260.895 17.4804 261 17.7348 261 18Z" fill="currentColor"/>
</g>
<defs>
<clipPath id="clip0_17_19077">
<rect width="272" height="32" rx="5" fill="white"/>
</clipPath>
</defs>
</svg>
