<svg width="272" height="32" viewBox="0 0 272 32" fill="none" xmlns="http://www.w3.org/2000/svg">
<g clip-path="url(#clip0_17_18923)">
<path d="M28.555 11.1675L16.555 3.16754C16.3907 3.0579 16.1975 2.99939 16 2.99939C15.8025 2.99939 15.6093 3.0579 15.445 3.16754L3.445 11.1675C3.30801 11.2589 3.19572 11.3827 3.11809 11.528C3.04046 11.6732 2.99989 11.8354 3 12V25C3 25.5305 3.21071 26.0392 3.58579 26.4143C3.96086 26.7893 4.46957 27 5 27H27C27.5304 27 28.0391 26.7893 28.4142 26.4143C28.7893 26.0392 29 25.5305 29 25V12C29.0001 11.8354 28.9595 11.6732 28.8819 11.528C28.8043 11.3827 28.692 11.2589 28.555 11.1675ZM12.09 19L5 24V13.9413L12.09 19ZM14.1362 20H17.8638L24.9425 25H7.0575L14.1362 20ZM19.91 19L27 13.9413V24L19.91 19ZM16 5.20129L26.2388 12.0275L17.8638 18H14.1387L5.76375 12.0275L16 5.20129Z" fill="currentColor"/>
<path d="M76.2775 11.5837L64.2775 3.58371C64.1953 3.52889 64.0988 3.49963 64 3.49963C63.9012 3.49963 63.8047 3.52889 63.7225 3.58371L51.7225 11.5837C51.654 11.6294 51.5979 11.6913 51.559 11.7639C51.5202 11.8365 51.4999 11.9176 51.5 12V25C51.5 25.3978 51.658 25.7793 51.9393 26.0606C52.2206 26.3419 52.6022 26.5 53 26.5H75C75.3978 26.5 75.7794 26.3419 76.0607 26.0606C76.342 25.7793 76.5 25.3978 76.5 25V12C76.5001 11.9176 76.4798 11.8365 76.441 11.7639C76.4021 11.6913 76.346 11.6294 76.2775 11.5837ZM60.9537 19L52.5 24.97V12.97L60.9537 19ZM61.9775 19.5H66.0225L74.5225 25.5H53.4825L61.9775 19.5ZM67.0462 19L75.5 12.97V24.97L67.0462 19ZM64 4.60121L75.125 12.0137L66.0212 18.5H61.9788L52.8813 12.0137L64 4.60121Z" fill="currentColor"/>
<path d="M124.416 11.375L112.416 3.37501C112.293 3.29278 112.148 3.2489 112 3.2489C111.852 3.2489 111.707 3.29278 111.584 3.37501L99.5838 11.375C99.4809 11.4436 99.3966 11.5366 99.3384 11.6456C99.2802 11.7547 99.2498 11.8764 99.25 12V25C99.25 25.4641 99.4344 25.9093 99.7626 26.2374C100.091 26.5656 100.536 26.75 101 26.75H123C123.464 26.75 123.909 26.5656 124.237 26.2374C124.566 25.9093 124.75 25.4641 124.75 25V12C124.75 11.8764 124.72 11.7547 124.662 11.6456C124.603 11.5366 124.519 11.4436 124.416 11.375ZM108.523 19L100.75 24.4875V13.4563L108.523 19ZM110.056 19.75H113.944L121.73 25.25H102.27L110.056 19.75ZM115.478 19L123.25 13.4563V24.4875L115.478 19ZM112 4.90126L122.679 12.0263L113.941 18.25H110.059L101.321 12.0213L112 4.90126Z" fill="currentColor"/>
<path d="M172.833 10.75L160.833 2.75003C160.586 2.58557 160.296 2.4978 160 2.4978C159.704 2.4978 159.414 2.58557 159.168 2.75003L147.168 10.75C146.962 10.8872 146.793 11.0732 146.677 11.2912C146.56 11.5093 146.5 11.7528 146.5 12V25C146.5 25.6631 146.763 26.299 147.232 26.7678C147.701 27.2366 148.337 27.5 149 27.5H171C171.663 27.5 172.299 27.2366 172.768 26.7678C173.237 26.299 173.5 25.6631 173.5 25V12C173.5 11.7528 173.44 11.5093 173.323 11.2912C173.207 11.0732 173.038 10.8872 172.833 10.75ZM155.226 19L149.5 23.0388V14.9138L155.226 19ZM158.295 20.5H161.705L167.375 24.5H152.631L158.295 20.5ZM164.774 19L170.5 14.9113V23.0363L164.774 19ZM160 5.80253L169.358 12.0413L161.701 17.5H158.299L150.643 12.0413L160 5.80253Z" fill="currentColor"/>
<path d="M220.555 11.1675L208.555 3.16754C208.391 3.0579 208.198 2.99939 208 2.99939C207.802 2.99939 207.609 3.0579 207.445 3.16754L195.445 11.1675C195.308 11.2589 195.196 11.3827 195.118 11.528C195.04 11.6732 195 11.8354 195 12V25C195 25.5305 195.211 26.0392 195.586 26.4143C195.961 26.7893 196.47 27 197 27H219C219.53 27 220.039 26.7893 220.414 26.4143C220.789 26.0392 221 25.5305 221 25V12C221 11.8354 220.96 11.6732 220.882 11.528C220.804 11.3827 220.692 11.2589 220.555 11.1675ZM204.09 19L197 24V13.9413L204.09 19ZM206.136 20H209.864L216.942 25H199.057L206.136 20ZM211.91 19L219 13.9413V24L211.91 19Z" fill="currentColor"/>
<path opacity="0.2" d="M268 12L258.181 19H253.819L244 12L256 4L268 12Z" fill="currentColor"/>
<path d="M268.555 11.1675L256.555 3.16754C256.391 3.0579 256.198 2.99939 256 2.99939C255.802 2.99939 255.609 3.0579 255.445 3.16754L243.445 11.1675C243.308 11.2589 243.196 11.3827 243.118 11.528C243.04 11.6732 243 11.8354 243 12V25C243 25.5305 243.211 26.0392 243.586 26.4143C243.961 26.7893 244.47 27 245 27H267C267.53 27 268.039 26.7893 268.414 26.4143C268.789 26.0392 269 25.5305 269 25V12C269 11.8354 268.96 11.6732 268.882 11.528C268.804 11.3827 268.692 11.2589 268.555 11.1675ZM252.09 19L245 24V13.9413L252.09 19ZM254.136 20H257.864L264.942 25H247.057L254.136 20ZM259.91 19L267 13.9413V24L259.91 19ZM256 5.20129L266.239 12.0275L257.864 18H254.139L245.764 12.0275L256 5.20129Z" fill="currentColor"/>
</g>
<defs>
<clipPath id="clip0_17_18923">
<rect width="272" height="32" rx="5" fill="white"/>
</clipPath>
</defs>
</svg>
