<svg width="272" height="32" viewBox="0 0 272 32" fill="none" xmlns="http://www.w3.org/2000/svg">
<g clip-path="url(#clip0_17_18881)">
<path d="M27 14.0001V26.0001C27 26.5305 26.7893 27.0392 26.4142 27.4143C26.0391 27.7893 25.5304 28.0001 25 28.0001H7C6.46957 28.0001 5.96086 27.7893 5.58579 27.4143C5.21071 27.0392 5 26.5305 5 26.0001V14.0001C5 13.4696 5.21071 12.9609 5.58579 12.5858C5.96086 12.2108 6.46957 12.0001 7 12.0001H10C10.2652 12.0001 10.5196 12.1054 10.7071 12.2929C10.8946 12.4805 11 12.7348 11 13.0001C11 13.2653 10.8946 13.5196 10.7071 13.7072C10.5196 13.8947 10.2652 14.0001 10 14.0001H7V26.0001H25V14.0001H22C21.7348 14.0001 21.4804 13.8947 21.2929 13.7072C21.1054 13.5196 21 13.2653 21 13.0001C21 12.7348 21.1054 12.4805 21.2929 12.2929C21.4804 12.1054 21.7348 12.0001 22 12.0001H25C25.5304 12.0001 26.0391 12.2108 26.4142 12.5858C26.7893 12.9609 27 13.4696 27 14.0001ZM11.7075 8.70755L15 5.4138V17.0001C15 17.2653 15.1054 17.5196 15.2929 17.7072C15.4804 17.8947 15.7348 18.0001 16 18.0001C16.2652 18.0001 16.5196 17.8947 16.7071 17.7072C16.8946 17.5196 17 17.2653 17 17.0001V5.4138L20.2925 8.70755C20.4801 8.8952 20.7346 9.00061 21 9.00061C21.2654 9.00061 21.5199 8.8952 21.7075 8.70755C21.8951 8.51991 22.0006 8.26542 22.0006 8.00005C22.0006 7.73469 21.8951 7.4802 21.7075 7.29255L16.7075 2.29255C16.6146 2.19958 16.5043 2.12582 16.3829 2.07549C16.2615 2.02517 16.1314 1.99927 16 1.99927C15.8686 1.99927 15.7385 2.02517 15.6171 2.07549C15.4957 2.12582 15.3854 2.19958 15.2925 2.29255L10.2925 7.29255C10.1049 7.4802 9.99944 7.73469 9.99944 8.00005C9.99944 8.26542 10.1049 8.51991 10.2925 8.70755C10.4801 8.89519 10.7346 9.00061 11 9.00061C11.2654 9.00061 11.5199 8.8952 11.7075 8.70755Z" fill="currentColor"/>
<path d="M74.5 14V26C74.5 26.3979 74.342 26.7794 74.0607 27.0607C73.7794 27.342 73.3978 27.5 73 27.5H55C54.6022 27.5 54.2206 27.342 53.9393 27.0607C53.658 26.7794 53.5 26.3979 53.5 26V14C53.5 13.6022 53.658 13.2207 53.9393 12.9394C54.2206 12.6581 54.6022 12.5 55 12.5H58C58.1326 12.5 58.2598 12.5527 58.3536 12.6465C58.4473 12.7402 58.5 12.8674 58.5 13C58.5 13.1326 58.4473 13.2598 58.3536 13.3536C58.2598 13.4473 58.1326 13.5 58 13.5H55C54.8674 13.5 54.7402 13.5527 54.6464 13.6465C54.5527 13.7402 54.5 13.8674 54.5 14V26C54.5 26.1326 54.5527 26.2598 54.6464 26.3536C54.7402 26.4473 54.8674 26.5 55 26.5H73C73.1326 26.5 73.2598 26.4473 73.3536 26.3536C73.4473 26.2598 73.5 26.1326 73.5 26V14C73.5 13.8674 73.4473 13.7402 73.3536 13.6465C73.2598 13.5527 73.1326 13.5 73 13.5H70C69.8674 13.5 69.7402 13.4473 69.6464 13.3536C69.5527 13.2598 69.5 13.1326 69.5 13C69.5 12.8674 69.5527 12.7402 69.6464 12.6465C69.7402 12.5527 69.8674 12.5 70 12.5H73C73.3978 12.5 73.7794 12.6581 74.0607 12.9394C74.342 13.2207 74.5 13.6022 74.5 14ZM59.3538 8.35378L63.5 4.20753V17C63.5 17.1326 63.5527 17.2598 63.6464 17.3536C63.7402 17.4473 63.8674 17.5 64 17.5C64.1326 17.5 64.2598 17.4473 64.3536 17.3536C64.4473 17.2598 64.5 17.1326 64.5 17V4.20753L68.6462 8.35378C68.6927 8.40023 68.7479 8.43708 68.8086 8.46222C68.8692 8.48736 68.9343 8.50031 69 8.50031C69.0657 8.50031 69.1308 8.48736 69.1914 8.46222C69.2521 8.43708 69.3073 8.40023 69.3538 8.35378C69.4002 8.30732 69.4371 8.25217 69.4622 8.19148C69.4873 8.13078 69.5003 8.06572 69.5003 8.00003C69.5003 7.93433 69.4873 7.86928 69.4622 7.80858C69.4371 7.74788 69.4002 7.69273 69.3538 7.64628L64.3538 2.64628C64.3073 2.59979 64.2522 2.56291 64.1915 2.53775C64.1308 2.51259 64.0657 2.49963 64 2.49963C63.9343 2.49963 63.8692 2.51259 63.8085 2.53775C63.7478 2.56291 63.6927 2.59979 63.6462 2.64628L58.6462 7.64628C58.5998 7.69273 58.5629 7.74788 58.5378 7.80858C58.5127 7.86928 58.4997 7.93433 58.4997 8.00003C58.4997 8.06572 58.5127 8.13078 58.5378 8.19148C58.5629 8.25217 58.5998 8.30732 58.6462 8.35378C58.7401 8.4476 58.8673 8.50031 59 8.50031C59.0657 8.50031 59.1308 8.48736 59.1914 8.46222C59.2521 8.43708 59.3073 8.40023 59.3538 8.35378Z" fill="currentColor"/>
<path d="M122.75 14V26C122.75 26.4641 122.566 26.9092 122.237 27.2374C121.909 27.5656 121.464 27.75 121 27.75H103C102.536 27.75 102.091 27.5656 101.763 27.2374C101.434 26.9092 101.25 26.4641 101.25 26V14C101.25 13.5358 101.434 13.0907 101.763 12.7625C102.091 12.4343 102.536 12.25 103 12.25H106C106.199 12.25 106.39 12.329 106.53 12.4696C106.671 12.6103 106.75 12.801 106.75 13C106.75 13.1989 106.671 13.3896 106.53 13.5303C106.39 13.6709 106.199 13.75 106 13.75H103C102.934 13.75 102.87 13.7763 102.823 13.8232C102.776 13.8701 102.75 13.9336 102.75 14V26C102.75 26.0663 102.776 26.1298 102.823 26.1767C102.87 26.2236 102.934 26.25 103 26.25H121C121.066 26.25 121.13 26.2236 121.177 26.1767C121.224 26.1298 121.25 26.0663 121.25 26V14C121.25 13.9336 121.224 13.8701 121.177 13.8232C121.13 13.7763 121.066 13.75 121 13.75H118C117.801 13.75 117.61 13.6709 117.47 13.5303C117.329 13.3896 117.25 13.1989 117.25 13C117.25 12.801 117.329 12.6103 117.47 12.4696C117.61 12.329 117.801 12.25 118 12.25H121C121.464 12.25 121.909 12.4343 122.237 12.7625C122.566 13.0907 122.75 13.5358 122.75 14ZM107.53 8.52995L111.25 4.8112V17C111.25 17.1989 111.329 17.3896 111.47 17.5303C111.61 17.6709 111.801 17.75 112 17.75C112.199 17.75 112.39 17.6709 112.53 17.5303C112.671 17.3896 112.75 17.1989 112.75 17V4.8112L116.47 8.52995C116.539 8.60364 116.621 8.66274 116.713 8.70373C116.805 8.74472 116.905 8.76677 117.005 8.76854C117.106 8.77032 117.206 8.75179 117.3 8.71407C117.393 8.67635 117.478 8.62021 117.549 8.54899C117.62 8.47777 117.676 8.39294 117.714 8.29955C117.752 8.20616 117.77 8.10613 117.769 8.00543C117.767 7.90473 117.745 7.80541 117.704 7.71341C117.663 7.62141 117.604 7.53861 117.53 7.46995L112.53 2.46995C112.389 2.3295 112.199 2.25061 112 2.25061C111.801 2.25061 111.611 2.3295 111.47 2.46995L106.47 7.46995C106.396 7.53861 106.337 7.62141 106.296 7.71341C106.255 7.80541 106.233 7.90473 106.231 8.00543C106.23 8.10613 106.248 8.20616 106.286 8.29955C106.324 8.39294 106.38 8.47777 106.451 8.54899C106.522 8.62021 106.607 8.67635 106.7 8.71407C106.794 8.75179 106.894 8.77032 106.995 8.76854C107.095 8.76677 107.195 8.74472 107.287 8.70373C107.379 8.66274 107.461 8.60364 107.53 8.52995Z" fill="currentColor"/>
<path d="M171.5 14V26C171.5 26.663 171.237 27.2989 170.768 27.7677C170.299 28.2366 169.663 28.5 169 28.5H151C150.337 28.5 149.701 28.2366 149.232 27.7677C148.763 27.2989 148.5 26.663 148.5 26V14C148.5 13.3369 148.763 12.701 149.232 12.2322C149.701 11.7634 150.337 11.5 151 11.5H154C154.398 11.5 154.779 11.658 155.061 11.9393C155.342 12.2206 155.5 12.6021 155.5 13C155.5 13.3978 155.342 13.7793 155.061 14.0606C154.779 14.3419 154.398 14.5 154 14.5H151.5V25.5H168.5V14.5H166C165.602 14.5 165.221 14.3419 164.939 14.0606C164.658 13.7793 164.5 13.3978 164.5 13C164.5 12.6021 164.658 12.2206 164.939 11.9393C165.221 11.658 165.602 11.5 166 11.5H169C169.663 11.5 170.299 11.7634 170.768 12.2322C171.237 12.701 171.5 13.3369 171.5 14ZM156.061 9.06121L158.5 6.62496V17C158.5 17.3978 158.658 17.7793 158.939 18.0606C159.221 18.3419 159.602 18.5 160 18.5C160.398 18.5 160.779 18.3419 161.061 18.0606C161.342 17.7793 161.5 17.3978 161.5 17V6.62496L163.939 9.06496C164.078 9.20449 164.244 9.31517 164.426 9.39069C164.609 9.4662 164.804 9.50506 165.001 9.50506C165.199 9.50506 165.394 9.4662 165.576 9.39069C165.759 9.31517 165.924 9.20449 166.064 9.06496C166.203 8.92543 166.314 8.75979 166.389 8.57748C166.465 8.39518 166.504 8.19979 166.504 8.00246C166.504 7.80514 166.465 7.60975 166.389 7.42744C166.314 7.24514 166.203 7.07949 166.064 6.93996L161.064 1.93996C160.924 1.80012 160.759 1.68917 160.576 1.61346C160.394 1.53775 160.199 1.49878 160.001 1.49878C159.804 1.49878 159.608 1.53775 159.426 1.61346C159.244 1.68917 159.078 1.80012 158.939 1.93996L153.939 6.93996C153.799 7.07949 153.689 7.24514 153.613 7.42744C153.538 7.60975 153.499 7.80514 153.499 8.00246C153.499 8.40098 153.657 8.78317 153.939 9.06496C154.221 9.34675 154.603 9.50506 155.001 9.50506C155.4 9.50506 155.782 9.34675 156.064 9.06496L156.061 9.06121Z" fill="currentColor"/>
<path d="M209 12.0001H207V5.4138L203.708 8.70755C203.52 8.8952 203.265 9.00061 203 9.00061C202.735 9.00061 202.48 8.8952 202.292 8.70755C202.105 8.51991 201.999 8.26542 201.999 8.00005C201.999 7.73469 202.105 7.4802 202.292 7.29255L207.292 2.29255C207.385 2.19958 207.496 2.12582 207.617 2.07549C207.738 2.02517 207.869 1.99927 208 1.99927C208.131 1.99927 208.262 2.02517 208.383 2.07549C208.504 2.12582 208.615 2.19958 208.708 2.29255L213.708 7.29255C213.8 7.38546 213.874 7.49576 213.924 7.61716C213.975 7.73855 214.001 7.86866 214.001 8.00005C214.001 8.13145 213.975 8.26156 213.924 8.38295C213.874 8.50434 213.8 8.61464 213.708 8.70755C213.615 8.80047 213.504 8.87417 213.383 8.92445C213.262 8.97473 213.131 9.00061 213 9.00061C212.869 9.00061 212.738 8.97473 212.617 8.92445C212.496 8.87417 212.385 8.80047 212.292 8.70755L209 5.4138V12.0001ZM217 12.0001H209V17.0001C209 17.2653 208.895 17.5196 208.707 17.7072C208.52 17.8947 208.265 18.0001 208 18.0001C207.735 18.0001 207.48 17.8947 207.293 17.7072C207.105 17.5196 207 17.2653 207 17.0001V12.0001H199C198.47 12.0001 197.961 12.2108 197.586 12.5858C197.211 12.9609 197 13.4696 197 14.0001V26.0001C197 26.5305 197.211 27.0392 197.586 27.4143C197.961 27.7893 198.47 28.0001 199 28.0001H217C217.53 28.0001 218.039 27.7893 218.414 27.4143C218.789 27.0392 219 26.5305 219 26.0001V14.0001C219 13.4696 218.789 12.9609 218.414 12.5858C218.039 12.2108 217.53 12.0001 217 12.0001Z" fill="currentColor"/>
<path opacity="0.2" d="M266 13V27H246V13H266Z" fill="currentColor"/>
<path d="M267 14.0001V26.0001C267 26.5305 266.789 27.0392 266.414 27.4143C266.039 27.7893 265.53 28.0001 265 28.0001H247C246.47 28.0001 245.961 27.7893 245.586 27.4143C245.211 27.0392 245 26.5305 245 26.0001V14.0001C245 13.4696 245.211 12.9609 245.586 12.5858C245.961 12.2108 246.47 12.0001 247 12.0001H250C250.265 12.0001 250.52 12.1054 250.707 12.2929C250.895 12.4805 251 12.7348 251 13.0001C251 13.2653 250.895 13.5196 250.707 13.7072C250.52 13.8947 250.265 14.0001 250 14.0001H247V26.0001H265V14.0001H262C261.735 14.0001 261.48 13.8947 261.293 13.7072C261.105 13.5196 261 13.2653 261 13.0001C261 12.7348 261.105 12.4805 261.293 12.2929C261.48 12.1054 261.735 12.0001 262 12.0001H265C265.53 12.0001 266.039 12.2108 266.414 12.5858C266.789 12.9609 267 13.4696 267 14.0001ZM251.708 8.70755L255 5.4138V17.0001C255 17.2653 255.105 17.5196 255.293 17.7072C255.48 17.8947 255.735 18.0001 256 18.0001C256.265 18.0001 256.52 17.8947 256.707 17.7072C256.895 17.5196 257 17.2653 257 17.0001V5.4138L260.292 8.70755C260.48 8.8952 260.735 9.00061 261 9.00061C261.265 9.00061 261.52 8.8952 261.708 8.70755C261.895 8.51991 262.001 8.26542 262.001 8.00005C262.001 7.73469 261.895 7.4802 261.708 7.29255L256.708 2.29255C256.615 2.19958 256.504 2.12582 256.383 2.07549C256.262 2.02517 256.131 1.99927 256 1.99927C255.869 1.99927 255.738 2.02517 255.617 2.07549C255.496 2.12582 255.385 2.19958 255.292 2.29255L250.292 7.29255C250.105 7.4802 249.999 7.73469 249.999 8.00005C249.999 8.26542 250.105 8.51991 250.293 8.70755C250.48 8.89519 250.735 9.00061 251 9.00061C251.265 9.00061 251.52 8.8952 251.708 8.70755Z" fill="currentColor"/>
</g>
<defs>
<clipPath id="clip0_17_18881">
<rect width="272" height="32" rx="5" fill="white"/>
</clipPath>
</defs>
</svg>
