<svg width="272" height="32" viewBox="0 0 272 32" fill="none" xmlns="http://www.w3.org/2000/svg">
<g clip-path="url(#clip0_17_18853)">
<path d="M27 19H21V13H27C27.2652 13 27.5196 12.8946 27.7071 12.7071C27.8946 12.5196 28 12.2652 28 12C28 11.7348 27.8946 11.4804 27.7071 11.2929C27.5196 11.1054 27.2652 11 27 11H21V5C21 4.73478 20.8946 4.48043 20.7071 4.29289C20.5196 4.10536 20.2652 4 20 4C19.7348 4 19.4804 4.10536 19.2929 4.29289C19.1054 4.48043 19 4.73478 19 5V11H13V5C13 4.73478 12.8946 4.48043 12.7071 4.29289C12.5196 4.10536 12.2652 4 12 4C11.7348 4 11.4804 4.10536 11.2929 4.29289C11.1054 4.48043 11 4.73478 11 5V11H5C4.73478 11 4.48043 11.1054 4.29289 11.2929C4.10536 11.4804 4 11.7348 4 12C4 12.2652 4.10536 12.5196 4.29289 12.7071C4.48043 12.8946 4.73478 13 5 13H11V19H5C4.73478 19 4.48043 19.1054 4.29289 19.2929C4.10536 19.4804 4 19.7348 4 20C4 20.2652 4.10536 20.5196 4.29289 20.7071C4.48043 20.8946 4.73478 21 5 21H11V27C11 27.2652 11.1054 27.5196 11.2929 27.7071C11.4804 27.8946 11.7348 28 12 28C12.2652 28 12.5196 27.8946 12.7071 27.7071C12.8946 27.5196 13 27.2652 13 27V21H19V27C19 27.2652 19.1054 27.5196 19.2929 27.7071C19.4804 27.8946 19.7348 28 20 28C20.2652 28 20.5196 27.8946 20.7071 27.7071C20.8946 27.5196 21 27.2652 21 27V21H27C27.2652 21 27.5196 20.8946 27.7071 20.7071C27.8946 20.5196 28 20.2652 28 20C28 19.7348 27.8946 19.4804 27.7071 19.2929C27.5196 19.1054 27.2652 19 27 19ZM13 19V13H19V19H13Z" fill="currentColor"/>
<path d="M75 19.5H68.5V12.5H75C75.1326 12.5 75.2598 12.4473 75.3536 12.3536C75.4473 12.2598 75.5 12.1326 75.5 12C75.5 11.8674 75.4473 11.7402 75.3536 11.6464C75.2598 11.5527 75.1326 11.5 75 11.5H68.5V5C68.5 4.86739 68.4473 4.74021 68.3536 4.64645C68.2598 4.55268 68.1326 4.5 68 4.5C67.8674 4.5 67.7402 4.55268 67.6464 4.64645C67.5527 4.74021 67.5 4.86739 67.5 5V11.5H60.5V5C60.5 4.86739 60.4473 4.74021 60.3536 4.64645C60.2598 4.55268 60.1326 4.5 60 4.5C59.8674 4.5 59.7402 4.55268 59.6464 4.64645C59.5527 4.74021 59.5 4.86739 59.5 5V11.5H53C52.8674 11.5 52.7402 11.5527 52.6464 11.6464C52.5527 11.7402 52.5 11.8674 52.5 12C52.5 12.1326 52.5527 12.2598 52.6464 12.3536C52.7402 12.4473 52.8674 12.5 53 12.5H59.5V19.5H53C52.8674 19.5 52.7402 19.5527 52.6464 19.6464C52.5527 19.7402 52.5 19.8674 52.5 20C52.5 20.1326 52.5527 20.2598 52.6464 20.3536C52.7402 20.4473 52.8674 20.5 53 20.5H59.5V27C59.5 27.1326 59.5527 27.2598 59.6464 27.3536C59.7402 27.4473 59.8674 27.5 60 27.5C60.1326 27.5 60.2598 27.4473 60.3536 27.3536C60.4473 27.2598 60.5 27.1326 60.5 27V20.5H67.5V27C67.5 27.1326 67.5527 27.2598 67.6464 27.3536C67.7402 27.4473 67.8674 27.5 68 27.5C68.1326 27.5 68.2598 27.4473 68.3536 27.3536C68.4473 27.2598 68.5 27.1326 68.5 27V20.5H75C75.1326 20.5 75.2598 20.4473 75.3536 20.3536C75.4473 20.2598 75.5 20.1326 75.5 20C75.5 19.8674 75.4473 19.7402 75.3536 19.6464C75.2598 19.5527 75.1326 19.5 75 19.5ZM60.5 19.5V12.5H67.5V19.5H60.5Z" fill="currentColor"/>
<path d="M123 19.25H116.75V12.75H123C123.199 12.75 123.39 12.671 123.53 12.5303C123.671 12.3897 123.75 12.1989 123.75 12C123.75 11.8011 123.671 11.6103 123.53 11.4697C123.39 11.329 123.199 11.25 123 11.25H116.75V5C116.75 4.80109 116.671 4.61032 116.53 4.46967C116.39 4.32902 116.199 4.25 116 4.25C115.801 4.25 115.61 4.32902 115.47 4.46967C115.329 4.61032 115.25 4.80109 115.25 5V11.25H108.75V5C108.75 4.80109 108.671 4.61032 108.53 4.46967C108.39 4.32902 108.199 4.25 108 4.25C107.801 4.25 107.61 4.32902 107.47 4.46967C107.329 4.61032 107.25 4.80109 107.25 5V11.25H101C100.801 11.25 100.61 11.329 100.47 11.4697C100.329 11.6103 100.25 11.8011 100.25 12C100.25 12.1989 100.329 12.3897 100.47 12.5303C100.61 12.671 100.801 12.75 101 12.75H107.25V19.25H101C100.801 19.25 100.61 19.329 100.47 19.4697C100.329 19.6103 100.25 19.8011 100.25 20C100.25 20.1989 100.329 20.3897 100.47 20.5303C100.61 20.671 100.801 20.75 101 20.75H107.25V27C107.25 27.1989 107.329 27.3897 107.47 27.5303C107.61 27.671 107.801 27.75 108 27.75C108.199 27.75 108.39 27.671 108.53 27.5303C108.671 27.3897 108.75 27.1989 108.75 27V20.75H115.25V27C115.25 27.1989 115.329 27.3897 115.47 27.5303C115.61 27.671 115.801 27.75 116 27.75C116.199 27.75 116.39 27.671 116.53 27.5303C116.671 27.3897 116.75 27.1989 116.75 27V20.75H123C123.199 20.75 123.39 20.671 123.53 20.5303C123.671 20.3897 123.75 20.1989 123.75 20C123.75 19.8011 123.671 19.6103 123.53 19.4697C123.39 19.329 123.199 19.25 123 19.25ZM108.75 19.25V12.75H115.25V19.25H108.75Z" fill="currentColor"/>
<path d="M171 18.5H165.5V13.5H171C171.398 13.5 171.779 13.342 172.061 13.0607C172.342 12.7794 172.5 12.3978 172.5 12C172.5 11.6022 172.342 11.2206 172.061 10.9393C171.779 10.658 171.398 10.5 171 10.5H165.5V5C165.5 4.60218 165.342 4.22064 165.061 3.93934C164.779 3.65804 164.398 3.5 164 3.5C163.602 3.5 163.221 3.65804 162.939 3.93934C162.658 4.22064 162.5 4.60218 162.5 5V10.5H157.5V5C157.5 4.60218 157.342 4.22064 157.061 3.93934C156.779 3.65804 156.398 3.5 156 3.5C155.602 3.5 155.221 3.65804 154.939 3.93934C154.658 4.22064 154.5 4.60218 154.5 5V10.5H149C148.602 10.5 148.221 10.658 147.939 10.9393C147.658 11.2206 147.5 11.6022 147.5 12C147.5 12.3978 147.658 12.7794 147.939 13.0607C148.221 13.342 148.602 13.5 149 13.5H154.5V18.5H149C148.602 18.5 148.221 18.658 147.939 18.9393C147.658 19.2206 147.5 19.6022 147.5 20C147.5 20.3978 147.658 20.7794 147.939 21.0607C148.221 21.342 148.602 21.5 149 21.5H154.5V27C154.5 27.3978 154.658 27.7794 154.939 28.0607C155.221 28.342 155.602 28.5 156 28.5C156.398 28.5 156.779 28.342 157.061 28.0607C157.342 27.7794 157.5 27.3978 157.5 27V21.5H162.5V27C162.5 27.3978 162.658 27.7794 162.939 28.0607C163.221 28.342 163.602 28.5 164 28.5C164.398 28.5 164.779 28.342 165.061 28.0607C165.342 27.7794 165.5 27.3978 165.5 27V21.5H171C171.398 21.5 171.779 21.342 172.061 21.0607C172.342 20.7794 172.5 20.3978 172.5 20C172.5 19.6022 172.342 19.2206 172.061 18.9393C171.779 18.658 171.398 18.5 171 18.5ZM157.5 18.5V13.5H162.5V18.5H157.5Z" fill="currentColor"/>
<path d="M206 14H210V18H206V14ZM220 6V26C220 26.5304 219.789 27.0391 219.414 27.4142C219.039 27.7893 218.53 28 218 28H198C197.47 28 196.961 27.7893 196.586 27.4142C196.211 27.0391 196 26.5304 196 26V6C196 5.46957 196.211 4.96086 196.586 4.58579C196.961 4.21071 197.47 4 198 4H218C218.53 4 219.039 4.21071 219.414 4.58579C219.789 4.96086 220 5.46957 220 6ZM212 18V14H216C216.265 14 216.52 13.8946 216.707 13.7071C216.895 13.5196 217 13.2652 217 13C217 12.7348 216.895 12.4804 216.707 12.2929C216.52 12.1054 216.265 12 216 12H212V8C212 7.73478 211.895 7.48043 211.707 7.29289C211.52 7.10536 211.265 7 211 7C210.735 7 210.48 7.10536 210.293 7.29289C210.105 7.48043 210 7.73478 210 8V12H206V8C206 7.73478 205.895 7.48043 205.707 7.29289C205.52 7.10536 205.265 7 205 7C204.735 7 204.48 7.10536 204.293 7.29289C204.105 7.48043 204 7.73478 204 8V12H200C199.735 12 199.48 12.1054 199.293 12.2929C199.105 12.4804 199 12.7348 199 13C199 13.2652 199.105 13.5196 199.293 13.7071C199.48 13.8946 199.735 14 200 14H204V18H200C199.735 18 199.48 18.1054 199.293 18.2929C199.105 18.4804 199 18.7348 199 19C199 19.2652 199.105 19.5196 199.293 19.7071C199.48 19.8946 199.735 20 200 20H204V24C204 24.2652 204.105 24.5196 204.293 24.7071C204.48 24.8946 204.735 25 205 25C205.265 25 205.52 24.8946 205.707 24.7071C205.895 24.5196 206 24.2652 206 24V20H210V24C210 24.2652 210.105 24.5196 210.293 24.7071C210.48 24.8946 210.735 25 211 25C211.265 25 211.52 24.8946 211.707 24.7071C211.895 24.5196 212 24.2652 212 24V20H216C216.265 20 216.52 19.8946 216.707 19.7071C216.895 19.5196 217 19.2652 217 19C217 18.7348 216.895 18.4804 216.707 18.2929C216.52 18.1054 216.265 18 216 18H212Z" fill="currentColor"/>
<path opacity="0.2" d="M260 12V20H252V12H260Z" fill="currentColor"/>
<path d="M267 19H261V13H267C267.265 13 267.52 12.8946 267.707 12.7071C267.895 12.5196 268 12.2652 268 12C268 11.7348 267.895 11.4804 267.707 11.2929C267.52 11.1054 267.265 11 267 11H261V5C261 4.73478 260.895 4.48043 260.707 4.29289C260.52 4.10536 260.265 4 260 4C259.735 4 259.48 4.10536 259.293 4.29289C259.105 4.48043 259 4.73478 259 5V11H253V5C253 4.73478 252.895 4.48043 252.707 4.29289C252.52 4.10536 252.265 4 252 4C251.735 4 251.48 4.10536 251.293 4.29289C251.105 4.48043 251 4.73478 251 5V11H245C244.735 11 244.48 11.1054 244.293 11.2929C244.105 11.4804 244 11.7348 244 12C244 12.2652 244.105 12.5196 244.293 12.7071C244.48 12.8946 244.735 13 245 13H251V19H245C244.735 19 244.48 19.1054 244.293 19.2929C244.105 19.4804 244 19.7348 244 20C244 20.2652 244.105 20.5196 244.293 20.7071C244.48 20.8946 244.735 21 245 21H251V27C251 27.2652 251.105 27.5196 251.293 27.7071C251.48 27.8946 251.735 28 252 28C252.265 28 252.52 27.8946 252.707 27.7071C252.895 27.5196 253 27.2652 253 27V21H259V27C259 27.2652 259.105 27.5196 259.293 27.7071C259.48 27.8946 259.735 28 260 28C260.265 28 260.52 27.8946 260.707 27.7071C260.895 27.5196 261 27.2652 261 27V21H267C267.265 21 267.52 20.8946 267.707 20.7071C267.895 20.5196 268 20.2652 268 20C268 19.7348 267.895 19.4804 267.707 19.2929C267.52 19.1054 267.265 19 267 19ZM253 19V13H259V19H253Z" fill="currentColor"/>
</g>
<defs>
<clipPath id="clip0_17_18853">
<rect width="272" height="32" rx="5" fill="white"/>
</clipPath>
</defs>
</svg>
