<svg width="272" height="32" viewBox="0 0 272 32" fill="none" xmlns="http://www.w3.org/2000/svg">
<g clip-path="url(#clip0_17_18825)">
<path d="M27.5675 10.8324L5.56 4.08244C5.26213 3.99556 4.94814 3.97918 4.64284 4.03459C4.33755 4.09 4.04934 4.21568 3.801 4.40169C3.55266 4.5877 3.351 4.82895 3.21198 5.10634C3.07296 5.38373 3.00039 5.68966 3 5.99994V23.9999C3 24.5304 3.21071 25.0391 3.58579 25.4142C3.96086 25.7892 4.46957 25.9999 5 25.9999C5.19125 26 5.38152 25.9727 5.565 25.9187L16 22.7162V23.9999C16 24.5304 16.2107 25.0391 16.5858 25.4142C16.9609 25.7892 17.4696 25.9999 18 25.9999H22C22.5304 25.9999 23.0391 25.7892 23.4142 25.4142C23.7893 25.0391 24 24.5304 24 23.9999V20.2624L27.5675 19.1687C27.9804 19.0446 28.3425 18.7912 28.6004 18.4457C28.8583 18.1003 28.9984 17.6811 29 17.2499V12.7499C28.9981 12.319 28.8579 11.9001 28.6 11.5549C28.3421 11.2097 27.9802 10.9564 27.5675 10.8324ZM16 20.6249L5 23.9999V5.99994L16 9.37494V20.6249ZM22 23.9999H18V22.1024L22 20.8749V23.9999ZM27 17.2499H26.9862L18 20.0099V9.98994L26.9862 12.7399H27V17.2399V17.2499Z" fill="currentColor"/>
<path d="M75.4263 11.3124L53.4262 4.56245C53.2025 4.49613 52.9664 4.48294 52.7366 4.52391C52.5069 4.56488 52.2899 4.65889 52.1029 4.79846C51.9158 4.93803 51.764 5.11931 51.6593 5.32789C51.5547 5.53647 51.5001 5.76659 51.5 5.99995V23.9999C51.5 24.3978 51.658 24.7793 51.9393 25.0606C52.2206 25.3419 52.6022 25.4999 53 25.4999C53.146 25.4995 53.2912 25.4785 53.4313 25.4374L64.5 22.0399V23.9999C64.5 24.3978 64.658 24.7793 64.9393 25.0606C65.2206 25.3419 65.6022 25.4999 66 25.4999H70C70.3978 25.4999 70.7794 25.3419 71.0607 25.0606C71.342 24.7793 71.5 24.3978 71.5 23.9999V19.8924L75.4237 18.6887C75.7338 18.5961 76.0058 18.4063 76.1996 18.1472C76.3935 17.8881 76.4988 17.5735 76.5 17.2499V12.7499C76.4999 12.4266 76.3952 12.112 76.2018 11.853C76.0083 11.5939 75.7362 11.4043 75.4263 11.3124ZM53.14 24.4799C53.0655 24.5017 52.9869 24.5058 52.9106 24.4919C52.8342 24.478 52.7621 24.4465 52.7 24.3999C52.6379 24.3534 52.5875 24.293 52.5528 24.2236C52.5181 24.1541 52.5 24.0776 52.5 23.9999V5.99995C52.5 5.92233 52.5181 5.84577 52.5528 5.77634C52.5875 5.70691 52.6379 5.64652 52.7 5.59995C52.7865 5.53504 52.8918 5.49995 53 5.49995C53.0452 5.49995 53.0903 5.50626 53.1337 5.5187L64.5 9.0062V20.9999L53.14 24.4799ZM70.5 23.9999C70.5 24.1326 70.4473 24.2597 70.3536 24.3535C70.2598 24.4473 70.1326 24.4999 70 24.4999H66C65.8674 24.4999 65.7402 24.4473 65.6464 24.3535C65.5527 24.2597 65.5 24.1326 65.5 23.9999V21.7337L70.5 20.1999V23.9999ZM75.5 17.2499C75.5 17.3581 75.4649 17.4634 75.4 17.5499C75.3351 17.6365 75.2439 17.6997 75.14 17.7299H75.1338L65.5 20.6874V9.31245L75.14 12.2699C75.2439 12.3002 75.3351 12.3634 75.4 12.4499C75.4649 12.5365 75.5 12.6418 75.5 12.7499V17.2499Z" fill="currentColor"/>
<path d="M123.5 11.0738L101.49 4.32379C101.229 4.2478 100.955 4.23344 100.688 4.28184C100.421 4.33024 100.169 4.44007 99.9515 4.60266C99.7342 4.76524 99.5578 4.97613 99.436 5.21865C99.3143 5.46116 99.2506 5.72867 99.25 6.00004V24C99.25 24.4642 99.4344 24.9093 99.7626 25.2375C100.091 25.5657 100.536 25.75 101 25.75C101.169 25.7488 101.338 25.724 101.5 25.6763L112.25 22.375V24C112.25 24.4642 112.434 24.9093 112.763 25.2375C113.091 25.5657 113.536 25.75 114 25.75H118C118.464 25.75 118.909 25.5657 119.237 25.2375C119.566 24.9093 119.75 24.4642 119.75 24V20.0775L123.5 18.9288C123.861 18.8198 124.177 18.5978 124.402 18.2956C124.627 17.9934 124.749 17.6268 124.75 17.25V12.75C124.75 12.3733 124.628 12.0067 124.403 11.7047C124.178 11.4027 123.861 11.1814 123.5 11.0738ZM101.07 24.24C101.033 24.2509 100.993 24.2529 100.955 24.246C100.917 24.2391 100.881 24.2233 100.85 24.2C100.819 24.1768 100.794 24.1466 100.776 24.1118C100.759 24.0771 100.75 24.0388 100.75 24V6.00004C100.75 5.96122 100.759 5.92295 100.776 5.88823C100.794 5.85352 100.819 5.82332 100.85 5.80004C100.893 5.76797 100.946 5.75047 101 5.75004C101.021 5.75051 101.041 5.75387 101.061 5.76004L112.25 9.19129V20.81L101.07 24.24ZM118.25 24C118.25 24.0663 118.224 24.1299 118.177 24.1768C118.13 24.2237 118.066 24.25 118 24.25H114C113.934 24.25 113.87 24.2237 113.823 24.1768C113.776 24.1299 113.75 24.0663 113.75 24V21.9188L118.25 20.5438V24ZM123.25 17.25C123.25 17.3041 123.232 17.3568 123.2 17.4C123.168 17.4433 123.122 17.4749 123.07 17.49H123.06L113.75 20.35V9.65129L123.07 12.51C123.122 12.5252 123.168 12.5568 123.2 12.6C123.232 12.6433 123.25 12.6959 123.25 12.75V17.25Z" fill="currentColor"/>
<path d="M171.712 10.3538L149.7 3.60379C149.328 3.4952 148.935 3.47471 148.554 3.54394C148.172 3.61317 147.812 3.77021 147.501 4.00266C147.191 4.2351 146.939 4.53658 146.765 4.88324C146.591 5.2299 146.501 5.61224 146.5 6.00004V24C146.5 24.6618 146.762 25.2965 147.23 25.7652C147.697 26.2338 148.331 26.498 148.992 26.5C149.232 26.4997 149.47 26.4656 149.7 26.3988L159.5 23.3925V24C159.5 24.6631 159.763 25.299 160.232 25.7678C160.701 26.2366 161.337 26.5 162 26.5H166C166.663 26.5 167.299 26.2366 167.768 25.7678C168.237 25.299 168.5 24.6631 168.5 24V20.6313L171.712 19.6463C172.228 19.4906 172.679 19.1739 173.001 18.7426C173.323 18.3113 173.498 17.7881 173.5 17.25V12.75C173.498 12.2119 173.323 11.6888 173.001 11.2575C172.679 10.8262 172.228 10.5094 171.712 10.3538ZM159.5 20.25L149.5 23.3225V6.67754L159.5 9.75004V20.25ZM165.5 23.5H162.5V22.4725L165.5 21.5525V23.5ZM170.5 16.875L162.5 19.3288V10.6663L170.5 13.125V16.875Z" fill="currentColor"/>
<path d="M219.567 10.8324L197.56 4.08244C197.262 3.99556 196.948 3.97918 196.643 4.03459C196.338 4.09 196.049 4.21568 195.801 4.40169C195.553 4.5877 195.351 4.82895 195.212 5.10634C195.073 5.38373 195 5.68966 195 5.99994V23.9999C195 24.5304 195.211 25.0391 195.586 25.4142C195.961 25.7892 196.47 25.9999 197 25.9999C197.191 26 197.382 25.9727 197.565 25.9187L208 22.7162V23.9999C208 24.5304 208.211 25.0391 208.586 25.4142C208.961 25.7892 209.47 25.9999 210 25.9999H214C214.53 25.9999 215.039 25.7892 215.414 25.4142C215.789 25.0391 216 24.5304 216 23.9999V20.2624L219.567 19.1687C219.98 19.0446 220.342 18.7912 220.6 18.4457C220.858 18.1003 220.998 17.6811 221 17.2499V12.7499C220.998 12.319 220.858 11.9001 220.6 11.5549C220.342 11.2097 219.98 10.9564 219.567 10.8324ZM214 23.9999H210V22.1024L214 20.8749V23.9999ZM219 17.2499H218.986L210 20.0099V9.98869L218.986 12.7499H219V17.2499Z" fill="currentColor"/>
<path opacity="0.2" d="M257 8.63622V21.3637L245.28 24.9587C245.131 25.0022 244.974 25.0104 244.821 24.9826C244.669 24.9549 244.525 24.8921 244.4 24.7991C244.276 24.7061 244.176 24.5855 244.106 24.4468C244.036 24.3081 244 24.1551 244 24V5.99997C244 5.84483 244.036 5.69186 244.106 5.55317C244.176 5.41447 244.276 5.29385 244.4 5.20085C244.525 5.10784 244.669 5.045 244.821 5.01729C244.974 4.98959 245.131 4.99778 245.28 5.04122L257 8.63622Z" fill="currentColor"/>
<path d="M267.567 10.8324L245.56 4.08244C245.262 3.99556 244.948 3.97918 244.643 4.03459C244.338 4.09 244.049 4.21568 243.801 4.40169C243.553 4.5877 243.351 4.82895 243.212 5.10634C243.073 5.38373 243 5.68966 243 5.99994V23.9999C243 24.5304 243.211 25.0391 243.586 25.4142C243.961 25.7892 244.47 25.9999 245 25.9999C245.191 26 245.382 25.9727 245.565 25.9187L256 22.7162V23.9999C256 24.5304 256.211 25.0391 256.586 25.4142C256.961 25.7892 257.47 25.9999 258 25.9999H262C262.53 25.9999 263.039 25.7892 263.414 25.4142C263.789 25.0391 264 24.5304 264 23.9999V20.2624L267.567 19.1687C267.98 19.0446 268.342 18.7912 268.6 18.4457C268.858 18.1003 268.998 17.6811 269 17.2499V12.7499C268.998 12.319 268.858 11.9001 268.6 11.5549C268.342 11.2097 267.98 10.9564 267.567 10.8324ZM256 20.6249L245 23.9999V5.99994L256 9.37494V20.6249ZM262 23.9999H258V22.1024L262 20.8749V23.9999ZM267 17.2499H266.986L258 20.0099V9.98994L266.986 12.7399H267V17.2399V17.2499Z" fill="currentColor"/>
</g>
<defs>
<clipPath id="clip0_17_18825">
<rect width="272" height="32" rx="5" fill="white"/>
</clipPath>
</defs>
</svg>
