<svg width="272" height="32" viewBox="0 0 272 32" fill="none" xmlns="http://www.w3.org/2000/svg">
<g clip-path="url(#clip0_17_18811)">
<path d="M29.7375 25.0112L17.7313 4.02248C17.5573 3.71319 17.3041 3.45577 16.9978 3.27662C16.6915 3.09747 16.343 3.00305 15.9881 3.00305C15.6333 3.00305 15.2848 3.09747 14.9785 3.27662C14.6721 3.45577 14.419 3.71319 14.245 4.02248L2.25875 25.0225C2.06022 25.3768 1.97429 25.7833 2.0124 26.1877C2.05051 26.5921 2.21084 26.9753 2.47208 27.2863C2.73331 27.5973 3.08306 27.8215 3.47479 27.9288C3.86652 28.0362 4.28167 28.0218 4.665 27.8875L15.9737 24.0125H15.9862H15.9975L27.3325 27.8875C27.717 28.0235 28.1339 28.0387 28.5273 27.931C28.9207 27.8234 29.2718 27.598 29.5334 27.2852C29.7951 26.9724 29.9549 26.587 29.9914 26.1808C30.0279 25.7746 29.9393 25.3669 29.7375 25.0125V25.0112ZM27.9875 25.9912L17 22.2325V15C17 14.7348 16.8946 14.4804 16.7071 14.2929C16.5196 14.1053 16.2652 14 16 14C15.7348 14 15.4804 14.1053 15.2929 14.2929C15.1054 14.4804 15 14.7348 15 15V22.2225L4.015 25.9925L4 26L15.9825 4.99998L28 26L27.9875 25.9912Z" fill="currentColor"/>
<path d="M77.3037 25.26L65.2938 4.26754C65.1633 4.0355 64.9734 3.84235 64.7436 3.70794C64.5139 3.57353 64.2525 3.50269 63.9863 3.50269C63.72 3.50269 63.4586 3.57353 63.2289 3.70794C62.9991 3.84235 62.8092 4.0355 62.6788 4.26754L50.6938 25.2675C50.5661 25.4956 50.5003 25.7531 50.5028 26.0145C50.5053 26.2758 50.5761 26.532 50.7081 26.7576C50.8401 26.9831 51.0287 27.1703 51.2553 27.3006C51.4819 27.4308 51.7386 27.4996 52 27.5C52.1704 27.4995 52.3395 27.4699 52.5 27.4125L63.81 23.5313H63.8163C63.927 23.4919 64.048 23.4919 64.1588 23.5313L75.4912 27.4063C75.7793 27.5093 76.0919 27.5218 76.3873 27.4421C76.6826 27.3624 76.9465 27.1943 77.1436 26.9603C77.3407 26.7264 77.4615 26.4378 77.4899 26.1332C77.5183 25.8286 77.4529 25.5226 77.3025 25.2563L77.3037 25.26ZM76.375 26.32C76.3094 26.3998 76.2204 26.4568 76.1205 26.4831C76.0207 26.5093 75.9151 26.5035 75.8188 26.4663L64.495 22.5913V15C64.495 14.8674 64.4423 14.7403 64.3486 14.6465C64.2548 14.5527 64.1276 14.5 63.995 14.5C63.8624 14.5 63.7352 14.5527 63.6414 14.6465C63.5477 14.7403 63.495 14.8674 63.495 15V22.5813H63.4788L52.1663 26.4638C52.0706 26.498 51.9668 26.5023 51.8687 26.4761C51.7705 26.4499 51.6827 26.3945 51.6169 26.3171C51.551 26.2397 51.5103 26.1441 51.5002 26.0431C51.49 25.942 51.5109 25.8402 51.56 25.7513L63.5438 4.75129C63.587 4.67314 63.6504 4.60799 63.7273 4.56263C63.8043 4.51727 63.8919 4.49335 63.9813 4.49335C64.0706 4.49335 64.1582 4.51727 64.2352 4.56263C64.3121 4.60799 64.3755 4.67314 64.4188 4.75129L76.4287 25.7513C76.4809 25.8396 76.5039 25.9422 76.4942 26.0444C76.4846 26.1465 76.4428 26.243 76.375 26.32Z" fill="currentColor"/>
<path d="M125.521 25.1363L113.513 4.14502C113.36 3.8742 113.139 3.64878 112.871 3.49189C112.603 3.33501 112.298 3.25232 111.987 3.25232C111.676 3.25232 111.371 3.33501 111.103 3.49189C110.835 3.64878 110.613 3.8742 110.461 4.14502L98.4763 25.145C98.3026 25.4551 98.2275 25.8108 98.261 26.1646C98.2944 26.5185 98.4348 26.8537 98.6635 27.1258C98.8922 27.3979 99.1983 27.5939 99.5411 27.6878C99.8839 27.7817 100.247 27.7689 100.583 27.6513L111.893 23.7763H111.901C111.959 23.7558 112.021 23.7558 112.079 23.7763L123.409 27.6513C123.745 27.7713 124.11 27.7858 124.454 27.6927C124.799 27.5997 125.106 27.4035 125.336 27.1305C125.566 26.8575 125.707 26.5208 125.74 26.1655C125.773 25.8102 125.697 25.4532 125.521 25.1425V25.1363ZM124.189 26.1575C124.156 26.1995 124.11 26.2293 124.059 26.2422C124.007 26.2551 123.952 26.2504 123.904 26.2288L112.75 22.4125V15C112.75 14.8011 112.671 14.6103 112.53 14.4697C112.39 14.329 112.199 14.25 112 14.25C111.801 14.25 111.61 14.329 111.47 14.4697C111.329 14.6103 111.25 14.8011 111.25 15V22.4013L100.088 26.2325C100.04 26.2521 99.987 26.2554 99.9372 26.2418C99.8875 26.2282 99.8437 26.1986 99.8125 26.1575C99.7776 26.1211 99.7557 26.0741 99.7503 26.0239C99.7448 25.9737 99.7562 25.9231 99.7825 25.88L111.768 4.87502C111.789 4.83624 111.82 4.80407 111.859 4.78202C111.897 4.75998 111.941 4.7489 111.985 4.75002C112.031 4.7498 112.076 4.76216 112.115 4.78575C112.154 4.80933 112.186 4.84324 112.208 4.88377L124.216 25.875C124.244 25.9185 124.256 25.9698 124.251 26.021C124.246 26.0721 124.224 26.1201 124.189 26.1575Z" fill="currentColor"/>
<path d="M174.177 24.775L174.17 24.7638L162.162 3.77129C161.945 3.38595 161.628 3.06536 161.246 2.8423C160.864 2.61925 160.429 2.50171 159.986 2.50171C159.544 2.50171 159.109 2.61925 158.726 2.8423C158.344 3.06536 158.028 3.38595 157.81 3.77129L145.822 24.775C145.574 25.2184 145.467 25.7269 145.514 26.2329C145.562 26.7389 145.763 27.2182 146.09 27.6071C146.418 27.996 146.856 28.2759 147.346 28.4095C147.836 28.5431 148.356 28.5241 148.835 28.355L159.985 24.5288L171.166 28.355C171.436 28.4506 171.72 28.4996 172.006 28.5C172.442 28.4986 172.87 28.3834 173.247 28.1657C173.625 27.948 173.939 27.6354 174.158 27.259C174.377 26.8826 174.495 26.4553 174.498 26.0196C174.502 25.5839 174.391 25.1549 174.177 24.775ZM161.5 21.875V15C161.5 14.6022 161.342 14.2207 161.061 13.9394C160.779 13.6581 160.398 13.5 160 13.5C159.602 13.5 159.221 13.6581 158.939 13.9394C158.658 14.2207 158.5 14.6022 158.5 15V21.8663L149.095 25.0938L159.986 6.00754L170.904 25.095L161.5 21.875Z" fill="currentColor"/>
<path d="M221.525 27.2875C221.264 27.5993 220.914 27.8235 220.522 27.9299C220.13 28.0364 219.715 28.0198 219.333 27.8825L209.339 24.4625C209.24 24.4288 209.154 24.365 209.093 24.28C209.033 24.1951 209 24.0932 209 23.9888V15C209 14.8629 208.972 14.7272 208.918 14.6014C208.864 14.4755 208.784 14.3622 208.684 14.2684C208.584 14.1746 208.466 14.1024 208.337 14.0562C208.208 14.0101 208.071 13.9909 207.934 14C207.677 14.0227 207.438 14.1417 207.264 14.3331C207.091 14.5246 206.997 14.7744 207 15.0325V23.9788C207 24.0831 206.968 24.1848 206.907 24.2698C206.847 24.3547 206.761 24.4186 206.663 24.4525L196.663 27.8825C196.279 28.0168 195.864 28.0313 195.472 27.9239C195.081 27.8165 194.731 27.5924 194.47 27.2813C194.208 26.9703 194.048 26.5871 194.01 26.1827C193.972 25.7783 194.058 25.3719 194.256 25.0175L206.25 4.01626C206.424 3.70697 206.677 3.44954 206.983 3.27039C207.29 3.09125 207.638 2.99683 207.993 2.99683C208.348 2.99683 208.696 3.09125 209.003 3.27039C209.309 3.44954 209.562 3.70697 209.736 4.01626L221.738 25.0113C221.941 25.3663 222.03 25.7756 221.992 26.183C221.954 26.5905 221.791 26.9762 221.525 27.2875Z" fill="currentColor"/>
<path opacity="0.2" d="M267.66 26.9388L256.321 23.0638C256.104 22.985 255.866 22.985 255.649 23.0638L244.34 26.9388C244.148 27.0072 243.94 27.0154 243.744 26.9625C243.547 26.9095 243.372 26.7979 243.24 26.6425C243.109 26.4871 243.028 26.2953 243.009 26.0927C242.989 25.8901 243.032 25.6864 243.131 25.5088L255.112 4.5088C255.199 4.3525 255.326 4.22221 255.48 4.13149C255.633 4.04077 255.809 3.99292 255.987 3.99292C256.166 3.99292 256.341 4.04077 256.495 4.13149C256.649 4.22221 256.776 4.3525 256.862 4.5088L268.874 25.5088C268.974 25.6868 269.017 25.8913 268.998 26.0947C268.978 26.298 268.897 26.4905 268.765 26.6463C268.632 26.802 268.456 26.9136 268.258 26.9659C268.061 27.0182 267.852 27.0087 267.66 26.9388Z" fill="currentColor"/>
<path d="M269.737 25.0112L257.731 4.02248C257.557 3.71319 257.304 3.45577 256.998 3.27662C256.691 3.09747 256.343 3.00305 255.988 3.00305C255.633 3.00305 255.285 3.09747 254.978 3.27662C254.672 3.45577 254.419 3.71319 254.245 4.02248L242.259 25.0225C242.06 25.3768 241.974 25.7833 242.012 26.1877C242.051 26.5921 242.211 26.9753 242.472 27.2863C242.733 27.5973 243.083 27.8215 243.475 27.9288C243.867 28.0362 244.282 28.0218 244.665 27.8875L255.974 24.0125H255.986H255.997L267.332 27.8875C267.717 28.0235 268.134 28.0387 268.527 27.931C268.921 27.8234 269.272 27.598 269.533 27.2852C269.795 26.9724 269.955 26.587 269.991 26.1808C270.028 25.7746 269.939 25.3669 269.737 25.0125V25.0112ZM267.987 25.9912L257 22.2325V15C257 14.7348 256.895 14.4804 256.707 14.2929C256.52 14.1053 256.265 14 256 14C255.735 14 255.48 14.1053 255.293 14.2929C255.105 14.4804 255 14.7348 255 15V22.2225L244.015 25.9925L244 26L255.982 4.99998L268 26L267.987 25.9912Z" fill="currentColor"/>
</g>
<defs>
<clipPath id="clip0_17_18811">
<rect width="272" height="32" rx="5" fill="white"/>
</clipPath>
</defs>
</svg>
