<svg width="272" height="32" viewBox="0 0 272 32" fill="none" xmlns="http://www.w3.org/2000/svg">
<g clip-path="url(#clip0_17_18769)">
<path d="M16 3C13.4288 3 10.9154 3.76244 8.77759 5.1909C6.63975 6.61935 4.97351 8.64968 3.98957 11.0251C3.00563 13.4006 2.74818 16.0144 3.24979 18.5362C3.7514 21.0579 4.98953 23.3743 6.80761 25.1924C8.62569 27.0105 10.9421 28.2486 13.4638 28.7502C15.9856 29.2518 18.5994 28.9944 20.9749 28.0104C23.3503 27.0265 25.3806 25.3603 26.8091 23.2224C28.2376 21.0846 29 18.5712 29 16C28.9964 12.5533 27.6256 9.24882 25.1884 6.81163C22.7512 4.37445 19.4467 3.00364 16 3ZM27 16C27.0022 17.9169 26.5004 19.8007 25.545 21.4625L17 15.48V5.04625C19.7316 5.29875 22.2707 6.56156 24.1202 8.58752C25.9698 10.6135 26.9967 13.2568 27 16ZM15 5.04625V15.48L6.455 21.4625C5.5403 19.8635 5.0418 18.0605 5.00524 16.2187C4.96868 14.377 5.39524 12.5555 6.24577 10.9215C7.0963 9.28754 8.34357 7.8933 9.87313 6.86676C11.4027 5.84021 13.1656 5.21423 15 5.04625ZM7.605 23.0987L15 17.9212V26.9538C12.124 26.6912 9.46718 25.3062 7.605 23.0987ZM17 26.9538V17.9212L24.395 23.0987C22.5328 25.3062 19.876 26.6912 17 26.9538Z" fill="currentColor"/>
<path d="M64 3.5C61.5277 3.5 59.111 4.23311 57.0554 5.60663C54.9998 6.98015 53.3976 8.93238 52.4515 11.2165C51.5054 13.5005 51.2579 16.0139 51.7402 18.4386C52.2225 20.8634 53.413 23.0907 55.1612 24.8388C56.9093 26.587 59.1366 27.7775 61.5614 28.2598C63.9861 28.7421 66.4995 28.4946 68.7835 27.5485C71.0676 26.6024 73.0198 25.0002 74.3934 22.9446C75.7669 20.889 76.5 18.4723 76.5 16C76.4964 12.6859 75.1782 9.5086 72.8348 7.16518C70.4914 4.82177 67.3141 3.50364 64 3.5ZM75.5 16C75.5027 18.19 74.8762 20.3346 73.695 22.1787L64.5 15.74V4.51125C67.4594 4.64343 70.254 5.91118 72.3027 8.0509C74.3514 10.1906 75.4965 13.0376 75.5 16ZM63.5 4.51125V15.74L54.305 22.1787C53.2206 20.4764 52.6033 18.5186 52.5152 16.5021C52.4271 14.4856 52.8713 12.4815 53.8031 10.691C54.7349 8.9006 56.1216 7.38695 57.8237 6.30219C59.5259 5.21742 61.4835 4.59975 63.5 4.51125ZM54.875 23L63.5 16.9638V27.4925C61.8214 27.4197 60.1791 26.9797 58.6889 26.2035C57.1987 25.4273 55.8968 24.3338 54.875 23ZM64.5 27.4925V16.96L73.125 23C72.1028 24.3331 70.8008 25.4259 69.3106 26.2014C67.8204 26.977 66.1783 27.4164 64.5 27.4888V27.4925Z" fill="currentColor"/>
<path d="M112 3.25C109.478 3.25 107.013 3.99777 104.916 5.39876C102.82 6.79975 101.186 8.79103 100.221 11.1208C99.2555 13.4505 99.003 16.0141 99.495 18.4874C99.9869 20.9607 101.201 23.2325 102.984 25.0156C104.768 26.7987 107.039 28.0131 109.513 28.505C111.986 28.997 114.549 28.7445 116.879 27.7795C119.209 26.8144 121.2 25.1802 122.601 23.0835C124.002 20.9868 124.75 18.5217 124.75 16C124.746 12.6197 123.401 9.379 121.011 6.98877C118.621 4.59854 115.38 3.25397 112 3.25ZM123.25 16C123.253 18.0532 122.691 20.0677 121.625 21.8225L112.75 15.61V4.775C115.596 4.96873 118.263 6.23514 120.212 8.31855C122.161 10.402 123.246 13.1472 123.25 16ZM111.25 4.775V15.61L102.375 21.8225C101.376 20.1706 100.819 18.2894 100.757 16.3599C100.695 14.4303 101.131 12.5173 102.022 10.8049C102.914 9.09255 104.231 7.63838 105.847 6.58233C107.463 5.52628 109.324 4.90387 111.25 4.775ZM103.24 23.05L111.25 17.4412V27.225C109.699 27.1209 108.186 26.696 106.807 25.9774C105.428 25.2588 104.214 24.262 103.24 23.05ZM112.75 27.225V17.4412L120.76 23.05C119.786 24.262 118.572 25.2588 117.193 25.9774C115.814 26.696 114.301 27.1209 112.75 27.225Z" fill="currentColor"/>
<path d="M160 2.5C157.33 2.5 154.72 3.29176 152.5 4.77516C150.28 6.25856 148.549 8.36697 147.528 10.8338C146.506 13.3006 146.239 16.015 146.759 18.6337C147.28 21.2525 148.566 23.6579 150.454 25.5459C152.342 27.434 154.748 28.7197 157.366 29.2406C159.985 29.7615 162.699 29.4942 165.166 28.4724C167.633 27.4506 169.741 25.7203 171.225 23.5002C172.708 21.2801 173.5 18.67 173.5 16C173.496 12.4208 172.072 8.98932 169.542 6.45844C167.011 3.92756 163.579 2.50397 160 2.5ZM170.5 16C170.503 17.6433 170.117 19.264 169.375 20.73L161.5 15.2188V5.60875C163.998 5.97238 166.281 7.22219 167.933 9.12996C169.586 11.0377 170.497 13.4762 170.5 16ZM158.5 5.60875V15.2188L150.625 20.73C149.872 19.243 149.484 17.598 149.494 15.9313C149.503 14.2645 149.91 12.624 150.679 11.1456C151.449 9.66727 152.56 8.39356 153.92 7.43003C155.28 6.4665 156.85 5.84088 158.5 5.605V5.60875ZM152.354 23.185L158.5 18.8813V26.3913C156.147 26.0505 153.98 24.9199 152.354 23.185ZM161.5 26.3913V18.8813L167.646 23.185C166.02 24.9199 163.853 26.0505 161.5 26.3913Z" fill="currentColor"/>
<path d="M209 17.9212L214.75 21.9463C213.274 23.6274 211.223 24.6972 209 24.9463V17.9212ZM199 16C198.999 17.5064 199.377 18.9889 200.101 20.31L207 15.48V7.0575C204.801 7.30556 202.77 8.35415 201.295 10.0034C199.82 11.6526 199.003 13.7871 199 16ZM207 24.9425V17.9212L201.25 21.9463C202.727 23.626 204.777 24.6945 207 24.9425ZM209 7.0575V15.48L215.899 20.31C216.605 19.014 216.982 17.5641 216.997 16.088C217.011 14.612 216.662 13.1551 215.98 11.8457C215.299 10.5364 214.305 9.4148 213.088 8.57979C211.871 7.74478 210.467 7.22199 209 7.0575ZM221 16C221 18.5712 220.238 21.0846 218.809 23.2224C217.381 25.3603 215.35 27.0265 212.975 28.0104C210.599 28.9944 207.986 29.2518 205.464 28.7502C202.942 28.2486 200.626 27.0105 198.808 25.1924C196.99 23.3743 195.751 21.0579 195.25 18.5362C194.748 16.0144 195.006 13.4006 195.99 11.0251C196.974 8.64968 198.64 6.61935 200.778 5.1909C202.915 3.76244 205.429 3 208 3C211.447 3.00364 214.751 4.37445 217.188 6.81163C219.626 9.24882 220.996 12.5533 221 16ZM219 16C219 13.8244 218.355 11.6977 217.146 9.88873C215.937 8.07979 214.22 6.66989 212.21 5.83733C210.2 5.00476 207.988 4.78692 205.854 5.21136C203.72 5.6358 201.76 6.68345 200.222 8.22183C198.683 9.7602 197.636 11.7202 197.211 13.854C196.787 15.9878 197.005 18.1995 197.837 20.2095C198.67 22.2195 200.08 23.9375 201.889 25.1462C203.698 26.3549 205.824 27 208 27C210.916 26.9967 213.712 25.8367 215.775 23.7745C217.837 21.7123 218.997 18.9164 219 16Z" fill="currentColor"/>
<path opacity="0.2" d="M268 16C268 18.3734 267.296 20.6935 265.978 22.6668C264.659 24.6402 262.785 26.1783 260.592 27.0866C258.399 27.9948 255.987 28.2324 253.659 27.7694C251.331 27.3064 249.193 26.1635 247.515 24.4853C245.836 22.8071 244.694 20.6689 244.231 18.3411C243.768 16.0133 244.005 13.6005 244.913 11.4078C245.822 9.21509 247.36 7.34094 249.333 6.02236C251.307 4.70379 253.627 4 256 4C259.183 4 262.235 5.26428 264.485 7.51472C266.736 9.76515 268 12.8174 268 16Z" fill="currentColor"/>
<path d="M256 3C253.429 3 250.915 3.76244 248.778 5.1909C246.64 6.61935 244.974 8.64968 243.99 11.0251C243.006 13.4006 242.748 16.0144 243.25 18.5362C243.751 21.0579 244.99 23.3743 246.808 25.1924C248.626 27.0105 250.942 28.2486 253.464 28.7502C255.986 29.2518 258.599 28.9944 260.975 28.0104C263.35 27.0265 265.381 25.3603 266.809 23.2224C268.238 21.0846 269 18.5712 269 16C268.996 12.5533 267.626 9.24882 265.188 6.81163C262.751 4.37445 259.447 3.00364 256 3ZM267 16C267.002 17.9169 266.5 19.8007 265.545 21.4625L257 15.48V5.04625C259.732 5.29875 262.271 6.56156 264.12 8.58752C265.97 10.6135 266.997 13.2568 267 16ZM255 5.04625V15.48L246.455 21.4625C245.54 19.8635 245.042 18.0605 245.005 16.2187C244.969 14.377 245.395 12.5555 246.246 10.9215C247.096 9.28754 248.344 7.8933 249.873 6.86676C251.403 5.84021 253.166 5.21423 255 5.04625ZM247.605 23.0987L255 17.9212V26.9538C252.124 26.6912 249.467 25.3062 247.605 23.0987ZM257 26.9538V17.9212L264.395 23.0987C262.533 25.3062 259.876 26.6912 257 26.9538Z" fill="currentColor"/>
</g>
<defs>
<clipPath id="clip0_17_18769">
<rect width="272" height="32" rx="5" fill="white"/>
</clipPath>
</defs>
</svg>
