<svg width="272" height="32" viewBox="0 0 272 32" fill="none" xmlns="http://www.w3.org/2000/svg">
<g clip-path="url(#clip0_17_18755)">
<path d="M27.7962 19.8075L21.9075 17.1687L21.8913 17.1612C21.5855 17.0305 21.2521 16.978 20.921 17.0086C20.5899 17.0391 20.2716 17.1517 19.995 17.3362C19.9624 17.3578 19.9311 17.3811 19.9013 17.4062L16.8587 20C14.9312 19.0637 12.9413 17.0887 12.005 15.1862L14.6025 12.0975C14.6275 12.0662 14.6513 12.035 14.6738 12.0012C14.8543 11.7254 14.9638 11.4091 14.9926 11.0807C15.0214 10.7523 14.9685 10.4218 14.8388 10.1187V10.1037L12.1925 4.20499C12.0209 3.80907 11.7259 3.47926 11.3515 3.26479C10.9771 3.05032 10.5433 2.96269 10.115 3.01499C8.42121 3.23787 6.86647 4.0697 5.74117 5.35511C4.61586 6.64052 3.99694 8.2916 4 9.99999C4 19.925 12.075 28 22 28C23.7084 28.0031 25.3595 27.3841 26.6449 26.2588C27.9303 25.1335 28.7621 23.5788 28.985 21.885C29.0374 21.4568 28.95 21.0232 28.7357 20.6488C28.5215 20.2744 28.1919 19.9793 27.7962 19.8075ZM22 26C17.758 25.9954 13.691 24.3082 10.6914 21.3086C7.69183 18.309 6.00463 14.242 6 9.99999C5.9953 8.77935 6.43506 7.59874 7.23717 6.67862C8.03928 5.75851 9.14888 5.16182 10.3588 4.99999C10.3583 5.00498 10.3583 5.01 10.3588 5.01499L12.9838 10.89L10.4 13.9825C10.3738 14.0127 10.35 14.0448 10.3287 14.0787C10.1406 14.3674 10.0303 14.6997 10.0084 15.0436C9.98649 15.3874 10.0538 15.7311 10.2037 16.0412C11.3363 18.3575 13.67 20.6737 16.0112 21.805C16.3237 21.9536 16.6694 22.0185 17.0144 21.9935C17.3595 21.9686 17.6922 21.8545 17.98 21.6625C18.0121 21.6409 18.043 21.6175 18.0725 21.5925L21.1113 19L26.9863 21.6312C26.9863 21.6312 26.9963 21.6312 27 21.6312C26.8401 22.8428 26.2443 23.9547 25.3241 24.7588C24.4038 25.5628 23.2221 26.0041 22 26Z" fill="currentColor"/>
<path d="M75.5975 20.2662L69.695 17.625C69.4662 17.5259 69.2163 17.4855 68.9679 17.5073C68.7195 17.5292 68.4805 17.6125 68.2725 17.75C68.2559 17.7605 68.24 17.7722 68.225 17.785L65.125 20.4275C65.056 20.4695 64.9777 20.4939 64.897 20.4985C64.8164 20.5031 64.7358 20.4877 64.6625 20.4537C62.6325 19.4737 60.5312 17.3887 59.5512 15.3825C59.5166 15.3097 59.5005 15.2295 59.5044 15.149C59.5083 15.0685 59.5322 14.9902 59.5737 14.9212L62.2237 11.77C62.2362 11.755 62.2475 11.7387 62.2587 11.7225C62.3957 11.5147 62.4789 11.2761 62.5007 11.0283C62.5225 10.7804 62.4823 10.5309 62.3837 10.3025L59.7375 4.40996C59.6097 4.11152 59.3886 3.86258 59.1073 3.70052C58.826 3.53846 58.4998 3.47203 58.1775 3.51121C56.6045 3.71861 55.1607 4.49154 54.1159 5.68563C53.0711 6.87972 52.4967 8.41331 52.5 9.99996C52.5 19.65 60.35 27.5 70 27.5C71.5866 27.5032 73.1202 26.9289 74.3143 25.884C75.5084 24.8392 76.2813 23.3955 76.4887 21.8225C76.5276 21.5017 76.4619 21.1769 76.3013 20.8965C76.1407 20.6161 75.8939 20.395 75.5975 20.2662ZM75.5 21.6975C75.3235 23.0296 74.6678 24.2519 73.6556 25.1358C72.6433 26.0197 71.3438 26.5046 70 26.5C60.9025 26.5 53.5 19.0975 53.5 9.99996C53.4953 8.65614 53.9803 7.35663 54.8642 6.34439C55.748 5.33215 56.9703 4.67648 58.3025 4.49996C58.3225 4.49872 58.3425 4.49872 58.3625 4.49996C58.4611 4.5008 58.5573 4.5308 58.639 4.58618C58.7206 4.64157 58.784 4.71986 58.8212 4.81121L61.46 10.7037C61.4908 10.7757 61.5042 10.854 61.4992 10.9321C61.4942 11.0103 61.471 11.0862 61.4312 11.1537L58.7825 14.3037C58.77 14.32 58.7575 14.335 58.7462 14.3525C58.6051 14.5683 58.522 14.8168 58.5049 15.0741C58.4879 15.3313 58.5374 15.5887 58.6487 15.8212C59.735 18.045 61.975 20.2687 64.2237 21.355C64.4579 21.4656 64.7167 21.5137 64.9749 21.4947C65.2332 21.4756 65.4821 21.39 65.6975 21.2462L65.7437 21.2112L68.8475 18.5712C68.9139 18.5306 68.989 18.5064 69.0666 18.5006C69.1441 18.4947 69.222 18.5073 69.2937 18.5375L75.195 21.1825C75.2946 21.2239 75.3781 21.2965 75.4331 21.3893C75.488 21.4821 75.5115 21.5902 75.5 21.6975Z" fill="currentColor"/>
<path d="M123.699 20.0376L117.794 17.3913C117.526 17.2767 117.234 17.2306 116.944 17.2572C116.655 17.2838 116.376 17.3824 116.134 17.5438C116.109 17.5596 116.086 17.5771 116.064 17.5963L112.977 20.2213C112.945 20.2388 112.91 20.2485 112.873 20.2498C112.837 20.2512 112.801 20.244 112.767 20.2288C110.784 19.2713 108.729 17.2288 107.767 15.2726C107.751 15.2399 107.743 15.204 107.743 15.1676C107.743 15.1312 107.751 15.0953 107.767 15.0626L110.401 11.9376C110.42 11.9144 110.438 11.8902 110.454 11.8651C110.613 11.622 110.709 11.343 110.734 11.0534C110.758 10.7638 110.71 10.4727 110.594 10.2063L107.966 4.31132C107.817 3.96333 107.559 3.67312 107.231 3.48425C106.903 3.29538 106.522 3.21803 106.146 3.26382C104.513 3.47857 103.013 4.28074 101.928 5.52045C100.843 6.76015 100.247 8.35255 100.25 10.0001C100.25 19.7876 108.212 27.7501 118 27.7501C119.647 27.7532 121.24 27.1565 122.479 26.0715C123.719 24.9864 124.521 23.4872 124.736 21.8538C124.782 21.4797 124.706 21.1009 124.519 20.7736C124.332 20.4464 124.044 20.1882 123.699 20.0376ZM118 26.2501C109.04 26.2501 101.75 18.9601 101.75 10.0001C101.746 8.71748 102.209 7.47725 103.052 6.51108C103.896 5.54492 105.062 4.91893 106.334 4.75007H106.362C106.413 4.75101 106.462 4.76715 106.503 4.79637C106.544 4.82559 106.575 4.86653 106.592 4.91382L109.23 10.8026C109.245 10.8353 109.253 10.8709 109.253 10.9069C109.253 10.943 109.245 10.9786 109.23 11.0113L106.591 14.1438C106.572 14.1662 106.554 14.19 106.537 14.2151C106.372 14.4671 106.275 14.7576 106.255 15.0583C106.235 15.3589 106.293 15.6597 106.424 15.9313C107.532 18.2013 109.82 20.4713 112.115 21.5801C112.388 21.7098 112.69 21.7664 112.992 21.7445C113.294 21.7226 113.585 21.6229 113.836 21.4551C113.86 21.4388 113.884 21.4213 113.906 21.4026L116.991 18.7776C117.022 18.7612 117.055 18.7516 117.09 18.7494C117.124 18.7473 117.159 18.7526 117.191 18.7651L123.097 21.4113C123.146 21.4319 123.186 21.4671 123.213 21.5119C123.241 21.5568 123.253 21.6091 123.249 21.6613C123.081 22.9333 122.455 24.1007 121.489 24.9452C120.523 25.7897 119.283 26.2535 118 26.2501Z" fill="currentColor"/>
<path d="M172 19.3499L166.114 16.7112L166.091 16.7012C165.709 16.5362 165.291 16.4698 164.876 16.5081C164.461 16.5463 164.062 16.6879 163.716 16.9199C163.668 16.9524 163.621 16.9875 163.576 17.0249L160.787 19.3999C159.162 18.5187 157.484 16.8537 156.601 15.2487L158.984 12.4162C159.022 12.3705 159.058 12.3225 159.09 12.2724C159.316 11.9276 159.453 11.5323 159.489 11.1216C159.526 10.711 159.46 10.2977 159.297 9.91869C159.294 9.91143 159.29 9.90391 159.287 9.89619L156.65 3.99994C156.433 3.50684 156.064 3.09655 155.596 2.82978C155.128 2.563 154.587 2.45393 154.052 2.51869C152.238 2.75706 150.572 3.64778 149.366 5.02451C148.161 6.40123 147.497 8.16982 147.5 9.99994C147.5 20.2012 155.799 28.4999 166 28.4999C167.83 28.5028 169.599 27.8393 170.975 26.6335C172.352 25.4277 173.243 23.762 173.481 21.9474C173.546 21.4128 173.437 20.8715 173.17 20.4037C172.903 19.9359 172.493 19.5664 172 19.3499ZM166 25.4999C161.891 25.495 157.951 23.8604 155.045 20.9546C152.14 18.0489 150.505 14.1093 150.5 9.99994C150.497 8.96431 150.849 7.95887 151.496 7.15071C152.144 6.34255 153.049 5.78032 154.06 5.55744L156.412 10.8074L154.017 13.6599C153.979 13.7061 153.943 13.7545 153.91 13.8049C153.674 14.1656 153.535 14.5812 153.507 15.0114C153.479 15.4416 153.563 15.8717 153.75 16.2599C154.927 18.6699 157.354 21.0799 159.789 22.2599C160.18 22.4452 160.612 22.526 161.043 22.4942C161.475 22.4624 161.89 22.3193 162.25 22.0787C162.298 22.0461 162.345 22.0106 162.389 21.9724L165.192 19.5887L170.442 21.9399C170.22 22.9513 169.657 23.856 168.849 24.5036C168.041 25.1512 167.036 25.5028 166 25.4999Z" fill="currentColor"/>
<path d="M220.985 21.885C220.762 23.5788 219.93 25.1335 218.645 26.2588C217.359 27.3841 215.708 28.0031 214 28C204.075 28 196 19.925 196 9.99999C195.997 8.2916 196.616 6.64052 197.741 5.35511C198.866 4.0697 200.421 3.23787 202.115 3.01499C202.543 2.96269 202.977 3.05032 203.351 3.26479C203.726 3.47926 204.021 3.80907 204.192 4.20499L206.832 10.0987V10.1137C206.964 10.4168 207.018 10.7477 206.99 11.0768C206.963 11.406 206.854 11.7231 206.674 12C206.651 12.0337 206.627 12.065 206.602 12.0962L204 15.1812C204.936 17.0837 206.926 19.0562 208.854 19.995L211.896 17.4062C211.926 17.3811 211.957 17.3578 211.99 17.3362C212.267 17.1517 212.585 17.0391 212.916 17.0086C213.247 16.978 213.581 17.0305 213.886 17.1612L213.902 17.1687L219.791 19.8075C220.188 19.9785 220.518 20.2732 220.734 20.6477C220.949 21.0222 221.037 21.4562 220.985 21.885Z" fill="currentColor"/>
<path opacity="0.2" d="M267.993 21.76C267.798 23.2113 267.084 24.5427 265.981 25.5065C264.879 26.4704 263.464 27.0011 262 27C257.491 27 253.167 25.2089 249.979 22.0208C246.791 18.8327 245 14.5087 245 9.99997C244.999 8.53573 245.53 7.12091 246.493 6.01864C247.457 4.91637 248.789 4.20167 250.24 4.00747C250.455 3.98199 250.672 4.02666 250.859 4.13482C251.046 4.24299 251.193 4.40881 251.278 4.60747L253.919 10.5075C253.984 10.659 254.01 10.8242 253.996 10.9885C253.981 11.1527 253.927 11.3108 253.836 11.4487L251.165 14.625C251.07 14.768 251.014 14.9331 251.002 15.1042C250.991 15.2753 251.023 15.4466 251.098 15.6012C252.131 17.7175 254.319 19.8787 256.441 20.9025C256.597 20.9763 256.769 21.0084 256.94 20.9954C257.112 20.9825 257.277 20.925 257.42 20.8287L260.545 18.1662C260.683 18.0741 260.843 18.0179 261.008 18.0029C261.174 17.9878 261.341 18.0143 261.494 18.08L267.389 20.7212C267.588 20.8056 267.755 20.9525 267.864 21.1398C267.973 21.3272 268.018 21.5448 267.993 21.76Z" fill="currentColor"/>
<path d="M267.796 19.8075L261.907 17.1687L261.891 17.1612C261.586 17.0305 261.252 16.978 260.921 17.0086C260.59 17.0391 260.272 17.1517 259.995 17.3362C259.962 17.3578 259.931 17.3811 259.901 17.4062L256.859 20C254.931 19.0637 252.941 17.0887 252.005 15.1862L254.602 12.0975C254.627 12.0662 254.651 12.035 254.674 12.0012C254.854 11.7254 254.964 11.4091 254.993 11.0807C255.021 10.7523 254.969 10.4218 254.839 10.1187V10.1037L252.192 4.20499C252.021 3.80907 251.726 3.47926 251.351 3.26479C250.977 3.05032 250.543 2.96269 250.115 3.01499C248.421 3.23787 246.866 4.0697 245.741 5.35511C244.616 6.64052 243.997 8.2916 244 9.99999C244 19.925 252.075 28 262 28C263.708 28.0031 265.359 27.3841 266.645 26.2588C267.93 25.1335 268.762 23.5788 268.985 21.885C269.037 21.4568 268.95 21.0232 268.736 20.6488C268.521 20.2744 268.192 19.9793 267.796 19.8075ZM262 26C257.758 25.9954 253.691 24.3082 250.691 21.3086C247.692 18.309 246.005 14.242 246 9.99999C245.995 8.77935 246.435 7.59874 247.237 6.67862C248.039 5.75851 249.149 5.16182 250.359 4.99999C250.358 5.00498 250.358 5.01 250.359 5.01499L252.984 10.89L250.4 13.9825C250.374 14.0127 250.35 14.0448 250.329 14.0787C250.141 14.3674 250.03 14.6997 250.008 15.0436C249.986 15.3874 250.054 15.7311 250.204 16.0412C251.336 18.3575 253.67 20.6737 256.011 21.805C256.324 21.9536 256.669 22.0185 257.014 21.9935C257.359 21.9686 257.692 21.8545 257.98 21.6625C258.012 21.6409 258.043 21.6175 258.072 21.5925L261.111 19L266.986 21.6312C266.986 21.6312 266.996 21.6312 267 21.6312C266.84 22.8428 266.244 23.9547 265.324 24.7588C264.404 25.5628 263.222 26.0041 262 26Z" fill="currentColor"/>
</g>
<defs>
<clipPath id="clip0_17_18755">
<rect width="272" height="32" rx="5" fill="white"/>
</clipPath>
</defs>
</svg>
