<svg width="272" height="32" viewBox="0 0 272 32" fill="none" xmlns="http://www.w3.org/2000/svg">
<g clip-path="url(#clip0_17_18671)">
<path d="M6.74125 4.32758C6.65343 4.22859 6.54684 4.14801 6.42765 4.09052C6.30846 4.03303 6.17905 3.99976 6.04691 3.99265C5.91477 3.98555 5.78253 4.00473 5.65786 4.04911C5.53319 4.09348 5.41857 4.16216 5.32064 4.25116C5.22271 4.34016 5.14341 4.44771 5.08735 4.56758C5.03129 4.68745 4.99958 4.81725 4.99406 4.94947C4.98853 5.08168 5.00931 5.21368 5.05517 5.33781C5.10104 5.46194 5.17108 5.57573 5.26125 5.67258L8.71 9.46758C6.59444 10.3562 4.67235 11.6486 3.05125 13.2726C0.55125 15.7726 0.31125 19.4551 2.465 22.2313C2.72927 22.5695 3.09531 22.8137 3.50904 22.9278C3.92277 23.0419 4.36223 23.0199 4.7625 22.8651L10.8875 20.6938L10.9237 20.6801C11.2327 20.5566 11.506 20.3579 11.7188 20.1021C11.9316 19.8463 12.0773 19.5414 12.1425 19.2151L12.88 15.5263C13.2305 15.4055 13.5878 15.3053 13.95 15.2263L25.2638 27.6726C25.3516 27.7716 25.4582 27.8522 25.5774 27.9096C25.6965 27.9671 25.826 28.0004 25.9581 28.0075C26.0902 28.0146 26.2225 27.9954 26.3471 27.9511C26.4718 27.9067 26.5864 27.838 26.6844 27.749C26.7823 27.66 26.8616 27.5525 26.9176 27.4326C26.9737 27.3127 27.0054 27.1829 27.0109 27.0507C27.0165 26.9185 26.9957 26.7865 26.9498 26.6624C26.904 26.5382 26.8339 26.4244 26.7437 26.3276L6.74125 4.32758ZM12.2037 13.6426C11.8781 13.7586 11.588 13.9571 11.3619 14.2187C11.1358 14.4803 10.9814 14.796 10.9137 15.1351L10.1763 18.8226L4.07875 20.9851C4.06625 20.9851 4.0575 21.0013 4.045 21.0063C2.50375 19.0188 2.67 16.4788 4.465 14.6863C6.07401 13.0768 8.01325 11.8357 10.1488 11.0488L12.4362 13.5663C12.3587 13.5913 12.2813 13.6151 12.2037 13.6426ZM29.535 22.2313C29.2707 22.5695 28.9047 22.8137 28.491 22.9278C28.0772 23.0419 27.6378 23.0199 27.2375 22.8651L26.0812 22.4551C25.9575 22.4112 25.8436 22.3433 25.746 22.2554C25.6485 22.1674 25.5692 22.0612 25.5127 21.9426C25.3987 21.7031 25.3844 21.4282 25.4731 21.1782C25.517 21.0544 25.5849 20.9405 25.6728 20.843C25.7608 20.7454 25.867 20.6662 25.9856 20.6097C26.2251 20.4957 26.5 20.4814 26.75 20.5701L27.9212 20.9851L27.9587 21.0001C29.4963 19.0188 29.3337 16.4788 27.535 14.6863C24.3275 11.4788 19.8 9.77758 15.1163 10.0226C14.9849 10.0294 14.8536 10.0103 14.7296 9.96632C14.6057 9.92235 14.4916 9.85441 14.3939 9.76637C14.2963 9.67833 14.2169 9.57191 14.1603 9.45319C14.1038 9.33448 14.0712 9.20578 14.0644 9.07446C14.0576 8.94314 14.0767 8.81176 14.1206 8.68783C14.1646 8.56389 14.2325 8.44983 14.3206 8.35216C14.4086 8.25448 14.515 8.1751 14.6338 8.11856C14.7525 8.06201 14.8812 8.0294 15.0125 8.02258C20.2625 7.74883 25.3412 9.66008 28.9487 13.2726C31.4475 15.7713 31.6887 19.4551 29.535 22.2313Z" fill="currentColor"/>
<path d="M54.375 4.66376C54.3308 4.61452 54.2774 4.57445 54.2178 4.54585C54.1581 4.51725 54.0934 4.50068 54.0274 4.49708C53.9614 4.49349 53.8952 4.50293 53.8329 4.52488C53.7705 4.54683 53.713 4.58086 53.6638 4.62501C53.6145 4.66917 53.5744 4.72259 53.5458 4.78224C53.5172 4.84188 53.5007 4.90657 53.4971 4.97261C53.4935 5.03866 53.5029 5.10477 53.5249 5.16716C53.5468 5.22956 53.5808 5.28702 53.625 5.33626L57.565 9.66501C55.2501 10.5275 53.1479 11.8781 51.4013 13.625C49.0863 15.9413 48.8625 19.3538 50.8563 21.925C51.0553 22.1791 51.3311 22.3622 51.6425 22.4471C51.954 22.532 52.2845 22.5142 52.585 22.3963L58.71 20.2225L58.7288 20.2163C58.9604 20.1236 59.1653 19.9746 59.3249 19.7827C59.4844 19.5908 59.5936 19.3622 59.6425 19.1175L60.38 15.4288C60.3949 15.3443 60.4317 15.2651 60.4868 15.1993C60.5418 15.1335 60.6132 15.0833 60.6938 15.0538C61.1588 14.8936 61.6351 14.7683 62.1188 14.6788L73.6275 27.3363C73.6714 27.3858 73.7247 27.426 73.7843 27.4548C73.8439 27.4835 73.9086 27.5002 73.9747 27.5037C74.0407 27.5073 74.1069 27.4977 74.1692 27.4755C74.2315 27.4533 74.2888 27.419 74.3378 27.3745C74.3868 27.33 74.4264 27.2762 74.4544 27.2163C74.4825 27.1563 74.4983 27.0914 74.5011 27.0253C74.5039 26.9592 74.4935 26.8932 74.4705 26.8312C74.4476 26.7691 74.4126 26.7122 74.3675 26.6638L54.375 4.66376ZM60.375 14.1138C60.1305 14.2016 59.913 14.3515 59.7438 14.5487C59.5747 14.746 59.4596 14.9837 59.41 15.2388L58.6725 18.9275C58.6565 19.0075 58.6211 19.0824 58.5694 19.1456C58.5178 19.2088 58.4515 19.2584 58.3763 19.29L52.2513 21.4625L52.2325 21.47C52.1329 21.51 52.0232 21.5168 51.9194 21.4896C51.8156 21.4623 51.7234 21.4025 51.6563 21.3188C49.9788 19.1575 50.1688 16.2875 52.1175 14.3388C53.8557 12.5969 55.9667 11.2724 58.2913 10.465L61.3463 13.825C61.0154 13.9067 60.6892 14.0029 60.3675 14.1138H60.375ZM77.1437 21.925C76.9447 22.1791 76.6689 22.3622 76.3575 22.4471C76.046 22.532 75.7155 22.5142 75.415 22.3963L74.2512 21.9838C74.1894 21.9618 74.1324 21.9278 74.0837 21.8838C74.0349 21.8398 73.9953 21.7866 73.9671 21.7273C73.9389 21.668 73.9226 21.6037 73.9193 21.5381C73.9159 21.4725 73.9255 21.4069 73.9475 21.345C73.9695 21.2831 74.0035 21.2262 74.0475 21.1774C74.0915 21.1287 74.1447 21.0891 74.204 21.0608C74.2633 21.0326 74.3276 21.0164 74.3932 21.013C74.4588 21.0097 74.5244 21.0193 74.5863 21.0413L75.7575 21.4563L75.7763 21.4638C75.8758 21.5037 75.9856 21.5106 76.0894 21.4833C76.1931 21.4561 76.2854 21.3962 76.3525 21.3125C78.03 19.1513 77.84 16.2813 75.8913 14.3325C72.5825 11.025 67.9175 9.27251 63.09 9.52376C63.0243 9.52713 62.9587 9.51753 62.8967 9.49551C62.8348 9.47349 62.7778 9.43949 62.7289 9.39544C62.6801 9.35139 62.6405 9.29815 62.6122 9.23878C62.584 9.1794 62.5677 9.11505 62.5644 9.04939C62.561 8.98373 62.5706 8.91805 62.5926 8.8561C62.6146 8.79415 62.6487 8.73714 62.6927 8.68833C62.7368 8.63952 62.79 8.59987 62.8494 8.57163C62.9087 8.54339 62.9731 8.52713 63.0388 8.52376C68.1463 8.25876 73.09 10.1163 76.5987 13.6238C78.9137 15.9413 79.1375 19.3538 77.1437 21.925Z" fill="currentColor"/>
<path d="M102.555 4.5001C102.418 4.37266 102.238 4.30122 102.05 4.29983C101.863 4.29843 101.682 4.3672 101.543 4.49258C101.404 4.61797 101.316 4.79091 101.298 4.97736C101.28 5.16382 101.333 5.35029 101.445 5.5001L105.135 9.56385C102.92 10.4411 100.909 11.7634 99.2262 13.4489C96.82 15.8564 96.5875 19.4051 98.6612 22.0739C98.893 22.3696 99.2139 22.583 99.5764 22.6822C99.9388 22.7815 100.324 22.7615 100.674 22.6251L106.799 20.4539L106.826 20.4426C107.097 20.3352 107.336 20.1617 107.523 19.9379C107.709 19.714 107.836 19.447 107.892 19.1614L108.63 15.4726C108.638 15.4318 108.656 15.3937 108.682 15.3616C108.709 15.3295 108.743 15.3045 108.781 15.2889C109.19 15.1474 109.608 15.0326 110.031 14.9451L121.445 27.5001C121.579 27.6473 121.766 27.7353 121.965 27.7446C122.163 27.754 122.358 27.684 122.505 27.5501C122.652 27.4162 122.74 27.2292 122.75 27.0305C122.759 26.8317 122.689 26.6373 122.555 26.4901L102.555 4.5001ZM108.286 13.8751C108.002 13.9772 107.749 14.1512 107.552 14.3801C107.355 14.609 107.22 14.885 107.161 15.1814L106.421 18.8751C106.413 18.9142 106.396 18.9508 106.371 18.9819C106.346 19.013 106.314 19.0377 106.277 19.0539L100.16 21.2214L100.132 21.2314C100.083 21.2512 100.029 21.2549 99.9775 21.2419C99.9261 21.2288 99.8801 21.1998 99.8462 21.1589C98.2212 19.0676 98.4012 16.3951 100.287 14.5101C101.962 12.8327 103.987 11.5484 106.219 10.7501L108.886 13.6851C108.684 13.7501 108.484 13.8089 108.286 13.8751ZM125.339 22.0764C125.107 22.3721 124.786 22.5855 124.424 22.6847C124.061 22.784 123.676 22.764 123.326 22.6276L122.166 22.2164C122.071 22.1853 121.983 22.1355 121.908 22.07C121.832 22.0045 121.771 21.9245 121.726 21.8347C121.682 21.745 121.656 21.6474 121.65 21.5475C121.645 21.4477 121.659 21.3477 121.692 21.2534C121.725 21.1591 121.777 21.0724 121.845 20.9985C121.912 20.9245 121.993 20.8648 122.084 20.8228C122.175 20.7808 122.273 20.7574 122.373 20.7539C122.473 20.7504 122.573 20.767 122.666 20.8026L123.839 21.2189L123.866 21.2289C123.915 21.2487 123.97 21.2524 124.021 21.2394C124.073 21.2263 124.119 21.1973 124.152 21.1564C125.777 19.0651 125.597 16.3926 123.711 14.5076C120.455 11.2501 115.857 9.5251 111.104 9.77385C111.005 9.77903 110.907 9.76475 110.814 9.73183C110.721 9.69892 110.635 9.64801 110.562 9.58203C110.414 9.44876 110.325 9.26214 110.314 9.06323C110.304 8.86432 110.373 8.6694 110.506 8.52137C110.639 8.37333 110.826 8.2843 111.025 8.27385C116.205 8.0051 121.215 9.8901 124.775 13.4476C127.18 15.8564 127.412 19.4051 125.339 22.0789V22.0764Z" fill="currentColor"/>
<path d="M151.112 3.99133C150.982 3.83935 150.822 3.71512 150.642 3.62597C150.463 3.53682 150.267 3.48457 150.067 3.4723C149.867 3.46002 149.667 3.48798 149.477 3.55452C149.288 3.62106 149.114 3.72482 148.966 3.85969C148.818 3.99455 148.698 4.15777 148.614 4.33971C148.53 4.52165 148.483 4.71862 148.476 4.91897C148.469 5.11932 148.503 5.31899 148.575 5.50618C148.646 5.69337 148.755 5.86429 148.894 6.00883L151.875 9.29508C149.952 10.1953 148.2 11.4218 146.696 12.9201C144.015 15.6026 143.756 19.5576 146.071 22.5451C146.306 22.8441 146.606 23.0856 146.949 23.2511C147.291 23.4166 147.667 23.5017 148.047 23.5001C148.352 23.5002 148.653 23.4443 148.937 23.3351L155.05 21.1663L155.106 21.1451C155.492 20.9905 155.833 20.7419 156.098 20.4218C156.364 20.1018 156.545 19.7204 156.625 19.3126L157.305 15.9101C157.458 15.8626 157.614 15.8201 157.77 15.7851L168.884 28.0138C169.014 28.1658 169.174 28.29 169.354 28.3792C169.533 28.4683 169.729 28.5206 169.929 28.5329C170.129 28.5451 170.33 28.5172 170.519 28.4506C170.708 28.3841 170.882 28.2803 171.03 28.1455C171.178 28.0106 171.298 27.8474 171.382 27.6655C171.467 27.4835 171.513 27.2865 171.52 27.0862C171.527 26.8858 171.493 26.6862 171.422 26.499C171.35 26.3118 171.241 26.1409 171.103 25.9963L151.112 3.99133ZM154.425 15.0363L153.75 18.4463L148.23 20.4026C147.085 18.6726 147.304 16.5576 148.821 15.0401C150.298 13.5613 152.064 12.403 154.009 11.6376L155.592 13.3751C155.293 13.5553 155.034 13.7962 154.833 14.0822C154.632 14.3683 154.493 14.6933 154.425 15.0363ZM173.925 22.5363C173.574 22.9888 173.078 23.3062 172.52 23.4351C172.149 23.5221 171.759 23.4645 171.428 23.2741C171.098 23.0837 170.853 22.7747 170.742 22.4099C170.632 22.0452 170.664 21.652 170.833 21.3102C171.002 20.9685 171.294 20.7039 171.651 20.5701C172.928 18.8113 172.745 16.6063 171.177 15.0388C168.346 12.2063 164.5 10.5951 160.364 10.5001C159.966 10.4956 159.586 10.3333 159.308 10.0488C159.03 9.76434 158.876 9.38103 158.881 8.98321C158.885 8.58538 159.047 8.20563 159.332 7.92749C159.616 7.64935 160 7.49561 160.397 7.50008H160.431C165.347 7.60883 169.917 9.53133 173.299 12.9138C175.98 15.6013 176.239 19.5563 173.926 22.5376L173.925 22.5363Z" fill="currentColor"/>
<path d="M218.739 26.3276C218.829 26.4244 218.899 26.5382 218.945 26.6624C218.991 26.7865 219.011 26.9185 219.006 27.0507C219 27.1829 218.969 27.3127 218.913 27.4326C218.857 27.5525 218.777 27.66 218.679 27.749C218.581 27.838 218.467 27.9067 218.342 27.9511C218.217 27.9954 218.085 28.0146 217.953 28.0075C217.821 28.0004 217.692 27.9671 217.572 27.9096C217.453 27.8522 217.347 27.7716 217.259 27.6726L205.945 15.2263C205.583 15.3053 205.225 15.4055 204.875 15.5263L204.137 19.2151C204.072 19.5414 203.927 19.8463 203.714 20.1021C203.501 20.3579 203.228 20.5566 202.919 20.6801L202.882 20.6938L196.757 22.8651C196.357 23.0199 195.918 23.0419 195.504 22.9278C195.09 22.8137 194.724 22.5695 194.46 22.2313C192.306 19.4551 192.547 15.7713 195.046 13.2726C196.669 11.6481 198.593 10.3556 200.71 9.46758L197.261 5.67258C197.171 5.57573 197.101 5.46194 197.055 5.33781C197.009 5.21368 196.989 5.08168 196.994 4.94947C197 4.81725 197.031 4.68745 197.087 4.56758C197.143 4.44771 197.223 4.34016 197.321 4.25116C197.419 4.16216 197.533 4.09348 197.658 4.04911C197.783 4.00473 197.915 3.98555 198.047 3.99265C198.179 3.99976 198.308 4.03303 198.428 4.09052C198.547 4.14801 198.653 4.22859 198.741 4.32758L218.739 26.3276ZM220.949 13.2726C217.341 9.66383 212.261 7.75258 207.012 8.02258C206.823 8.03252 206.641 8.09588 206.487 8.20531C206.332 8.31474 206.212 8.46574 206.14 8.64077C206.068 8.8158 206.047 9.00767 206.08 9.19408C206.113 9.38049 206.198 9.55379 206.325 9.69383L217.676 22.1813C217.787 22.3033 217.926 22.3961 218.081 22.4513L219.237 22.8613C219.638 23.0162 220.077 23.0382 220.491 22.9241C220.905 22.8099 221.271 22.5657 221.535 22.2276C223.689 19.4551 223.447 15.7713 220.949 13.2726Z" fill="currentColor"/>
<path opacity="0.2" d="M268.75 21.6249C268.616 21.7945 268.431 21.9162 268.223 21.9718C268.014 22.0275 267.793 22.0141 267.593 21.9337L261.448 19.7499C261.294 19.6886 261.159 19.5903 261.053 19.4638C260.947 19.3373 260.874 19.1865 260.84 19.0249L260.064 15.3074C260.029 15.1395 259.952 14.9833 259.84 14.854C259.727 14.7248 259.583 14.6269 259.421 14.5699C257.188 13.8046 254.763 13.8103 252.534 14.5862C252.371 14.6445 252.226 14.7444 252.114 14.876C252.002 15.0075 251.926 15.1662 251.894 15.3362L251.156 19.0249C251.123 19.1866 251.049 19.3375 250.943 19.464C250.837 19.5905 250.701 19.6888 250.548 19.7499L244.411 21.9274C244.211 22.0094 243.99 22.0243 243.78 21.9697C243.571 21.9152 243.385 21.7942 243.25 21.6249C241.425 19.2712 241.593 16.1462 243.75 13.9849C250.389 7.34617 261.596 7.34617 268.235 13.9849C270.404 16.1399 270.571 19.2649 268.75 21.6249Z" fill="currentColor"/>
<path d="M246.741 4.32758C246.653 4.22859 246.547 4.14801 246.428 4.09052C246.308 4.03303 246.179 3.99976 246.047 3.99265C245.915 3.98555 245.783 4.00473 245.658 4.04911C245.533 4.09348 245.419 4.16216 245.321 4.25116C245.223 4.34016 245.143 4.44771 245.087 4.56758C245.031 4.68745 245 4.81725 244.994 4.94947C244.989 5.08168 245.009 5.21368 245.055 5.33781C245.101 5.46194 245.171 5.57573 245.261 5.67258L248.71 9.46758C246.594 10.3562 244.672 11.6486 243.051 13.2726C240.551 15.7726 240.311 19.4551 242.465 22.2313C242.729 22.5695 243.095 22.8137 243.509 22.9278C243.923 23.0419 244.362 23.0199 244.762 22.8651L250.887 20.6938L250.924 20.6801C251.233 20.5566 251.506 20.3579 251.719 20.1021C251.932 19.8463 252.077 19.5414 252.142 19.2151L252.88 15.5263C253.23 15.4055 253.588 15.3053 253.95 15.2263L265.264 27.6726C265.352 27.7716 265.458 27.8522 265.577 27.9096C265.697 27.9671 265.826 28.0004 265.958 28.0075C266.09 28.0146 266.222 27.9954 266.347 27.9511C266.472 27.9067 266.586 27.838 266.684 27.749C266.782 27.66 266.862 27.5525 266.918 27.4326C266.974 27.3127 267.005 27.1829 267.011 27.0507C267.016 26.9185 266.996 26.7865 266.95 26.6624C266.904 26.5382 266.834 26.4244 266.744 26.3276L246.741 4.32758ZM252.204 13.6426C251.878 13.7586 251.588 13.9571 251.362 14.2187C251.136 14.4803 250.981 14.796 250.914 15.1351L250.176 18.8226L244.079 20.9851C244.066 20.9851 244.057 21.0013 244.045 21.0063C242.504 19.0188 242.67 16.4788 244.465 14.6863C246.074 13.0768 248.013 11.8357 250.149 11.0488L252.436 13.5663C252.359 13.5913 252.281 13.6151 252.204 13.6426ZM269.535 22.2313C269.271 22.5695 268.905 22.8137 268.491 22.9278C268.077 23.0419 267.638 23.0199 267.237 22.8651L266.081 22.4551C265.957 22.4112 265.844 22.3433 265.746 22.2554C265.648 22.1674 265.569 22.0612 265.513 21.9426C265.399 21.7031 265.384 21.4282 265.473 21.1782C265.517 21.0544 265.585 20.9405 265.673 20.843C265.761 20.7454 265.867 20.6662 265.986 20.6097C266.225 20.4957 266.5 20.4814 266.75 20.5701L267.921 20.9851L267.959 21.0001C269.496 19.0188 269.334 16.4788 267.535 14.6863C264.327 11.4788 259.8 9.77758 255.116 10.0226C254.985 10.0294 254.854 10.0103 254.73 9.96632C254.606 9.92235 254.492 9.85441 254.394 9.76637C254.296 9.67833 254.217 9.57191 254.16 9.45319C254.104 9.33448 254.071 9.20578 254.064 9.07446C254.058 8.94314 254.077 8.81176 254.121 8.68783C254.165 8.56389 254.233 8.44983 254.321 8.35216C254.409 8.25448 254.515 8.1751 254.634 8.11856C254.752 8.06201 254.881 8.0294 255.012 8.02258C260.262 7.74883 265.341 9.66008 268.949 13.2726C271.447 15.7713 271.689 19.4551 269.535 22.2313Z" fill="currentColor"/>
</g>
<defs>
<clipPath id="clip0_17_18671">
<rect width="272" height="32" rx="5" fill="white"/>
</clipPath>
</defs>
</svg>
