<svg width="272" height="32" viewBox="0 0 272 32" fill="none" xmlns="http://www.w3.org/2000/svg">
<g clip-path="url(#clip0_17_18559)">
<path d="M22 20.0001C21.3329 19.9999 20.6726 20.1335 20.0581 20.3931C19.4436 20.6527 18.8874 21.0329 18.4225 21.5113L12.66 17.8076C13.1133 16.6452 13.1133 15.355 12.66 14.1926L18.4225 10.4888C19.2881 11.3755 20.452 11.9092 21.6887 11.9864C22.9254 12.0636 24.1467 11.6789 25.1158 10.9068C26.085 10.1347 26.7329 9.03025 26.934 7.80758C27.1351 6.58492 26.8751 5.33113 26.2043 4.28931C25.5335 3.24749 24.4997 2.49186 23.3035 2.16891C22.1072 1.84596 20.8336 1.97871 19.7297 2.54142C18.6257 3.10412 17.77 4.0567 17.3285 5.21446C16.887 6.37222 16.8911 7.65269 17.34 8.8076L11.5775 12.5113C10.8836 11.7989 9.99298 11.3097 9.01955 11.106C8.04611 10.9024 7.03407 10.9937 6.11278 11.3682C5.1915 11.7428 4.40283 12.3835 3.8476 13.2086C3.29237 14.0337 2.99579 15.0056 2.99579 16.0001C2.99579 16.9946 3.29237 17.9665 3.8476 18.7916C4.40283 19.6167 5.1915 20.2574 6.11278 20.632C7.03407 21.0065 8.04611 21.0978 9.01955 20.8942C9.99298 20.6905 10.8836 20.2013 11.5775 19.4888L17.34 23.1926C16.954 24.1883 16.8968 25.2814 17.177 26.3118C17.4571 27.3423 18.0599 28.256 18.8969 28.9192C19.7339 29.5823 20.7612 29.9601 21.8285 29.9971C22.8957 30.0341 23.9468 29.7285 24.8277 29.125C25.7087 28.5214 26.3733 27.6517 26.7242 26.6431C27.0751 25.6345 27.0939 24.5401 26.7778 23.5201C26.4617 22.5 25.8273 21.608 24.9676 20.9746C24.1078 20.3412 23.0679 19.9997 22 20.0001ZM22 4.0001C22.5933 4.0001 23.1734 4.17604 23.6667 4.50569C24.1601 4.83533 24.5446 5.30387 24.7716 5.85205C24.9987 6.40023 25.0581 7.00343 24.9424 7.58537C24.8266 8.16731 24.5409 8.70186 24.1213 9.12142C23.7018 9.54098 23.1672 9.8267 22.5853 9.94245C22.0033 10.0582 21.4001 9.9988 20.852 9.77174C20.3038 9.54467 19.8352 9.16016 19.5056 8.66681C19.1759 8.17346 19 7.59344 19 7.0001C19 6.20445 19.3161 5.44139 19.8787 4.87878C20.4413 4.31617 21.2044 4.0001 22 4.0001ZM8 19.0001C7.40666 19.0001 6.82664 18.8242 6.33329 18.4945C5.83994 18.1649 5.45542 17.6963 5.22836 17.1481C5.0013 16.6 4.94189 15.9968 5.05764 15.4148C5.1734 14.8329 5.45912 14.2983 5.87868 13.8788C6.29824 13.4592 6.83279 13.1735 7.41473 13.0577C7.99667 12.942 8.59987 13.0014 9.14805 13.2285C9.69623 13.4555 10.1648 13.84 10.4944 14.3334C10.8241 14.8267 11 15.4068 11 16.0001C11 16.7957 10.6839 17.5588 10.1213 18.1214C9.55871 18.684 8.79565 19.0001 8 19.0001ZM22 28.0001C21.4067 28.0001 20.8266 27.8242 20.3333 27.4945C19.8399 27.1649 19.4554 26.6963 19.2284 26.1481C19.0013 25.6 18.9419 24.9968 19.0576 24.4148C19.1734 23.8329 19.4591 23.2983 19.8787 22.8788C20.2982 22.4592 20.8328 22.1735 21.4147 22.0577C21.9967 21.942 22.5999 22.0014 23.1481 22.2285C23.6962 22.4555 24.1648 22.84 24.4944 23.3334C24.8241 23.8267 25 24.4068 25 25.0001C25 25.7957 24.6839 26.5588 24.1213 27.1214C23.5587 27.684 22.7956 28.0001 22 28.0001Z" fill="currentColor"/>
<path d="M70 20.5001C69.3313 20.5005 68.6711 20.6499 68.0674 20.9375C67.4637 21.2251 66.9317 21.6436 66.51 22.1626L60.0313 18.0001C60.3404 17.3787 60.5013 16.6941 60.5013 16.0001C60.5013 15.3061 60.3404 14.6215 60.0313 14.0001L66.51 9.8376C67.2363 10.7266 68.2753 11.3037 69.4139 11.4505C70.5524 11.5973 71.7039 11.3026 72.6318 10.6269C73.5598 9.95115 74.1939 8.94576 74.4037 7.81717C74.6136 6.68858 74.3833 5.52248 73.7602 4.55837C73.1371 3.59425 72.1685 2.90531 71.0534 2.63305C69.9382 2.36078 68.7611 2.52586 67.7638 3.09438C66.7666 3.66289 66.0248 4.59169 65.691 5.69C65.3572 6.78832 65.4566 7.97277 65.9688 9.0001L59.49 13.1626C58.9038 12.4411 58.1086 11.9189 57.2137 11.6676C56.3187 11.4163 55.3679 11.4484 54.4918 11.7594C53.6158 12.0704 52.8576 12.6451 52.3214 13.4044C51.7852 14.1638 51.4974 15.0705 51.4974 16.0001C51.4974 16.9297 51.7852 17.8364 52.3214 18.5958C52.8576 19.3551 53.6158 19.9298 54.4918 20.2408C55.3679 20.5518 56.3187 20.5839 57.2137 20.3326C58.1086 20.0813 58.9038 19.5591 59.49 18.8376L65.9688 23.0001C65.5339 23.8766 65.3965 24.871 65.5775 25.8326C65.7586 26.7941 66.248 27.6705 66.9718 28.3289C67.6956 28.9873 68.6143 29.3919 69.5887 29.4813C70.563 29.5707 71.54 29.3401 72.3715 28.8244C73.2031 28.3087 73.8439 27.5361 74.1969 26.6235C74.5498 25.7109 74.5958 24.7082 74.3277 23.7671C74.0596 22.8261 73.4921 21.9981 72.7112 21.4086C71.9303 20.8191 70.9785 20.5001 70 20.5001ZM70 3.5001C70.6922 3.5001 71.3689 3.70537 71.9445 4.08996C72.5201 4.47454 72.9687 5.02117 73.2336 5.66071C73.4985 6.30025 73.5678 7.00398 73.4328 7.68292C73.2977 8.36185 72.9644 8.98549 72.4749 9.47497C71.9854 9.96446 71.3618 10.2978 70.6828 10.4328C70.0039 10.5679 69.3002 10.4986 68.6606 10.2337C68.0211 9.96877 67.4744 9.52017 67.0899 8.9446C66.7053 8.36903 66.5 7.69234 66.5 7.0001C66.5 6.07184 66.8687 5.18161 67.5251 4.52523C68.1815 3.86885 69.0717 3.5001 70 3.5001ZM56 19.5001C55.3078 19.5001 54.6311 19.2948 54.0555 18.9102C53.4799 18.5257 53.0313 17.979 52.7664 17.3395C52.5015 16.7 52.4322 15.9962 52.5673 15.3173C52.7023 14.6384 53.0356 14.0147 53.5251 13.5252C54.0146 13.0357 54.6383 12.7024 55.3172 12.5674C55.9961 12.4323 56.6999 12.5016 57.3394 12.7665C57.9789 13.0314 58.5256 13.48 58.9101 14.0556C59.2947 14.6312 59.5 15.3079 59.5 16.0001C59.5 16.9284 59.1313 17.8186 58.4749 18.475C57.8185 19.1314 56.9283 19.5001 56 19.5001ZM70 28.5001C69.3078 28.5001 68.6311 28.2948 68.0555 27.9102C67.4799 27.5257 67.0313 26.979 66.7664 26.3395C66.5015 25.7 66.4322 24.9962 66.5673 24.3173C66.7023 23.6384 67.0356 23.0147 67.5251 22.5252C68.0146 22.0357 68.6383 21.7024 69.3172 21.5674C69.9961 21.4323 70.6999 21.5016 71.3394 21.7665C71.9789 22.0314 72.5256 22.48 72.9101 23.0556C73.2947 23.6312 73.5 24.3079 73.5 25.0001C73.5 25.9284 73.1313 26.8186 72.4749 27.475C71.8185 28.1314 70.9283 28.5001 70 28.5001Z" fill="currentColor"/>
<path d="M118 20.2501C117.332 20.2499 116.672 20.3908 116.062 20.6638C115.452 20.9367 114.907 21.3355 114.463 21.8339L108.35 17.9051C108.614 17.3046 108.75 16.656 108.75 16.0001C108.75 15.3443 108.614 14.6956 108.35 14.0951L114.463 10.1664C115.26 11.0559 116.363 11.6122 117.553 11.7246C118.742 11.8369 119.93 11.4969 120.88 10.7725C121.83 10.048 122.472 8.99215 122.678 7.81543C122.884 6.63871 122.639 5.42751 121.992 4.42322C121.345 3.41892 120.344 2.69529 119.187 2.39654C118.03 2.09779 116.804 2.24586 115.751 2.81124C114.699 3.37663 113.898 4.3178 113.509 5.44719C113.119 6.57658 113.17 7.81124 113.65 8.90511L107.538 12.8339C106.896 12.1167 106.052 11.6112 105.117 11.3842C104.183 11.1572 103.201 11.2195 102.302 11.5627C101.403 11.9059 100.63 12.5139 100.084 13.3063C99.5388 14.0987 99.2467 15.0381 99.2467 16.0001C99.2467 16.9621 99.5388 17.9015 100.084 18.6939C100.63 19.4863 101.403 20.0943 102.302 20.4375C103.201 20.7807 104.183 20.843 105.117 20.616C106.052 20.389 106.896 19.8835 107.538 19.1664L113.65 23.0951C113.24 24.0324 113.143 25.0771 113.374 26.0737C113.605 27.0704 114.152 27.9658 114.933 28.6266C115.715 29.2874 116.688 29.6783 117.709 29.7411C118.731 29.804 119.745 29.5354 120.601 28.9754C121.457 28.4154 122.11 27.5938 122.462 26.633C122.813 25.6722 122.846 24.6236 122.553 23.6431C122.261 22.6625 121.66 21.8026 120.839 21.1913C120.019 20.5799 119.023 20.2498 118 20.2501ZM118 3.75011C118.643 3.75011 119.271 3.94071 119.806 4.29783C120.34 4.65494 120.757 5.16252 121.003 5.75638C121.249 6.35024 121.313 7.00371 121.188 7.63415C121.062 8.26459 120.753 8.84368 120.298 9.2982C119.844 9.75272 119.264 10.0623 118.634 10.1877C118.004 10.3131 117.35 10.2487 116.756 10.0027C116.162 9.75673 115.655 9.34017 115.298 8.80571C114.941 8.27125 114.75 7.64289 114.75 7.00011C114.75 6.13815 115.092 5.3115 115.702 4.70201C116.311 4.09251 117.138 3.75011 118 3.75011ZM104 19.2501C103.357 19.2501 102.729 19.0595 102.194 18.7024C101.66 18.3453 101.243 17.8377 100.997 17.2438C100.751 16.65 100.687 15.9965 100.812 15.3661C100.938 14.7356 101.247 14.1565 101.702 13.702C102.156 13.2475 102.736 12.938 103.366 12.8126C103.996 12.6872 104.65 12.7515 105.244 12.9975C105.838 13.2435 106.345 13.66 106.702 14.1945C107.059 14.729 107.25 15.3573 107.25 16.0001C107.25 16.8621 106.908 17.6887 106.298 18.2982C105.689 18.9077 104.862 19.2501 104 19.2501ZM118 28.2501C117.357 28.2501 116.729 28.0595 116.194 27.7024C115.66 27.3453 115.243 26.8377 114.997 26.2438C114.751 25.65 114.687 24.9965 114.812 24.3661C114.938 23.7356 115.247 23.1565 115.702 22.702C116.156 22.2475 116.736 21.938 117.366 21.8126C117.996 21.6872 118.65 21.7515 119.244 21.9975C119.838 22.2435 120.345 22.66 120.702 23.1945C121.059 23.729 121.25 24.3573 121.25 25.0001C121.25 25.4269 121.166 25.8495 121.003 26.2438C120.839 26.6381 120.6 26.9964 120.298 27.2982C119.996 27.6 119.638 27.8394 119.244 28.0027C118.849 28.166 118.427 28.2501 118 28.2501Z" fill="currentColor"/>
<path d="M166 19.5001C164.66 19.498 163.367 19.9872 162.364 20.8751L157.263 17.6001C157.579 16.5569 157.579 15.4433 157.263 14.4001L162.364 11.1251C163.357 11.9977 164.632 12.4819 165.954 12.4884C167.275 12.4949 168.555 12.0233 169.556 11.1605C170.558 10.2977 171.214 9.10189 171.403 7.79361C171.592 6.48532 171.302 5.15276 170.586 4.04166C169.869 2.93056 168.776 2.11584 167.506 1.74773C166.237 1.37962 164.877 1.48294 163.677 2.03864C162.478 2.59435 161.52 3.56496 160.98 4.77151C160.44 5.97805 160.354 7.33916 160.739 8.60386L155.636 11.8751C154.843 11.1739 153.864 10.7166 152.817 10.5582C151.77 10.3998 150.699 10.5471 149.734 10.9823C148.768 11.4175 147.949 12.1221 147.374 13.0115C146.8 13.901 146.494 14.9374 146.494 15.9964C146.494 17.0553 146.8 18.0917 147.374 18.9812C147.949 19.8706 148.768 20.5752 149.734 21.0104C150.699 21.4456 151.77 21.5929 152.817 21.4345C153.864 21.2761 154.843 20.8189 155.636 20.1176L160.737 23.4001C160.401 24.5071 160.422 25.692 160.798 26.7863C161.174 27.8806 161.885 28.8285 162.83 29.4952C163.776 30.1619 164.908 30.5134 166.065 30.4997C167.222 30.486 168.345 30.1078 169.274 29.4189C170.204 28.73 170.893 27.7655 171.242 26.6626C171.592 25.5598 171.585 24.3747 171.222 23.276C170.86 22.1773 170.16 21.221 169.222 20.543C168.285 19.8651 167.157 19.5002 166 19.5001ZM166 4.50011C166.494 4.50011 166.978 4.64673 167.389 4.92143C167.8 5.19614 168.12 5.58658 168.31 6.0434C168.499 6.50021 168.548 7.00288 168.452 7.48783C168.356 7.97279 168.117 8.41824 167.768 8.76787C167.418 9.11751 166.973 9.35561 166.488 9.45207C166.003 9.54853 165.5 9.49903 165.043 9.30981C164.586 9.12059 164.196 8.80016 163.921 8.38903C163.647 7.97791 163.5 7.49456 163.5 7.00011C163.5 6.33707 163.763 5.70118 164.232 5.23234C164.701 4.7635 165.337 4.50011 166 4.50011ZM152 18.5001C151.506 18.5001 151.022 18.3535 150.611 18.0788C150.2 17.8041 149.88 17.4136 149.69 16.9568C149.501 16.5 149.452 15.9973 149.548 15.5124C149.645 15.0274 149.883 14.582 150.232 14.2323C150.582 13.8827 151.027 13.6446 151.512 13.5481C151.997 13.4517 152.5 13.5012 152.957 13.6904C153.414 13.8796 153.804 14.2001 154.079 14.6112C154.353 15.0223 154.5 15.5057 154.5 16.0001C154.5 16.6631 154.237 17.299 153.768 17.7679C153.299 18.2367 152.663 18.5001 152 18.5001ZM166 27.5001C165.506 27.5001 165.022 27.3535 164.611 27.0788C164.2 26.8041 163.88 26.4136 163.69 25.9568C163.501 25.5 163.452 24.9973 163.548 24.5124C163.644 24.0274 163.883 23.582 164.232 23.2323C164.582 22.8827 165.027 22.6446 165.512 22.5481C165.997 22.4517 166.5 22.5012 166.957 22.6904C167.414 22.8796 167.804 23.2001 168.079 23.6112C168.353 24.0223 168.5 24.5057 168.5 25.0001C168.5 25.6632 168.237 26.299 167.768 26.7679C167.299 27.2367 166.663 27.5001 166 27.5001Z" fill="currentColor"/>
<path d="M218.5 24.9999C218.5 25.6567 218.356 26.3056 218.079 26.9009C217.802 27.4963 217.397 28.0237 216.894 28.4462C216.391 28.8686 215.802 29.1758 215.168 29.3463C214.534 29.5168 213.87 29.5463 213.223 29.4328C212.576 29.3194 211.961 29.0657 211.423 28.6896C210.885 28.3134 210.435 27.824 210.106 27.2556C209.777 26.6872 209.576 26.0537 209.518 25.3995C209.459 24.7453 209.545 24.0862 209.769 23.4686L203.144 19.2124C202.511 19.8331 201.709 20.253 200.839 20.4197C199.968 20.5863 199.068 20.4921 198.25 20.149C197.433 19.8059 196.736 19.2291 196.245 18.4909C195.754 17.7528 195.493 16.8862 195.493 15.9999C195.493 15.1136 195.754 14.247 196.245 13.5089C196.736 12.7707 197.433 12.1939 198.25 11.8508C199.068 11.5077 199.968 11.4135 200.839 11.5801C201.709 11.7468 202.511 12.1667 203.144 12.7874L209.769 8.5374C209.389 7.49496 209.407 6.34928 209.819 5.31929C210.231 4.2893 211.008 3.44721 212.002 2.95394C212.996 2.46066 214.136 2.35078 215.206 2.64529C216.275 2.93981 217.199 3.61806 217.8 4.55046C218.401 5.48286 218.637 6.60402 218.464 7.69971C218.29 8.79541 217.719 9.78881 216.86 10.4901C216 11.1914 214.913 11.5514 213.804 11.5013C212.696 11.4512 211.645 10.9946 210.853 10.2186L204.227 14.4749C204.586 15.4643 204.586 16.548 204.227 17.5374L210.853 21.7936C211.485 21.1746 212.286 20.7558 213.155 20.5897C214.025 20.4236 214.924 20.5175 215.74 20.8597C216.556 21.2019 217.253 21.7772 217.744 22.5136C218.235 23.25 218.498 24.1148 218.5 24.9999Z" fill="currentColor"/>
<path opacity="0.2" d="M266 25C266 25.7911 265.765 26.5645 265.326 27.2223C264.886 27.8801 264.262 28.3928 263.531 28.6955C262.8 28.9983 261.996 29.0775 261.22 28.9231C260.444 28.7688 259.731 28.3878 259.172 27.8284C258.612 27.269 258.231 26.5563 258.077 25.7804C257.923 25.0044 258.002 24.2002 258.304 23.4693C258.607 22.7384 259.12 22.1136 259.778 21.6741C260.436 21.2346 261.209 21 262 21C263.061 21 264.078 21.4214 264.828 22.1716C265.579 22.9217 266 23.9391 266 25ZM262 11C262.791 11 263.564 10.7654 264.222 10.3259C264.88 9.88635 265.393 9.26164 265.696 8.53074C265.998 7.79983 266.077 6.99556 265.923 6.21964C265.769 5.44372 265.388 4.73098 264.828 4.17157C264.269 3.61216 263.556 3.2312 262.78 3.07686C262.004 2.92252 261.2 3.00173 260.469 3.30448C259.738 3.60723 259.114 4.11992 258.674 4.77772C258.235 5.43552 258 6.20888 258 7C258 8.06087 258.421 9.07828 259.172 9.82843C259.922 10.5786 260.939 11 262 11Z" fill="currentColor"/>
<path d="M262 20.0001C261.333 19.9999 260.673 20.1335 260.058 20.3931C259.444 20.6527 258.887 21.0329 258.422 21.5113L252.66 17.8076C253.113 16.6452 253.113 15.355 252.66 14.1926L258.422 10.4888C259.288 11.3755 260.452 11.9092 261.689 11.9864C262.925 12.0636 264.147 11.6789 265.116 10.9068C266.085 10.1347 266.733 9.03025 266.934 7.80758C267.135 6.58492 266.875 5.33113 266.204 4.28931C265.533 3.24749 264.5 2.49186 263.303 2.16891C262.107 1.84596 260.834 1.97871 259.73 2.54142C258.626 3.10412 257.77 4.0567 257.328 5.21446C256.887 6.37222 256.891 7.65269 257.34 8.8076L251.577 12.5113C250.884 11.7989 249.993 11.3097 249.02 11.106C248.046 10.9024 247.034 10.9937 246.113 11.3682C245.191 11.7428 244.403 12.3835 243.848 13.2086C243.292 14.0337 242.996 15.0056 242.996 16.0001C242.996 16.9946 243.292 17.9665 243.848 18.7916C244.403 19.6167 245.191 20.2574 246.113 20.632C247.034 21.0065 248.046 21.0978 249.02 20.8942C249.993 20.6905 250.884 20.2013 251.577 19.4888L257.34 23.1926C256.954 24.1883 256.897 25.2814 257.177 26.3118C257.457 27.3423 258.06 28.256 258.897 28.9192C259.734 29.5823 260.761 29.9601 261.828 29.9971C262.896 30.0341 263.947 29.7285 264.828 29.125C265.709 28.5214 266.373 27.6517 266.724 26.6431C267.075 25.6345 267.094 24.5401 266.778 23.5201C266.462 22.5 265.827 21.608 264.968 20.9746C264.108 20.3412 263.068 19.9997 262 20.0001ZM262 4.0001C262.593 4.0001 263.173 4.17604 263.667 4.50569C264.16 4.83533 264.545 5.30387 264.772 5.85205C264.999 6.40023 265.058 7.00343 264.942 7.58537C264.827 8.16731 264.541 8.70186 264.121 9.12142C263.702 9.54098 263.167 9.8267 262.585 9.94245C262.003 10.0582 261.4 9.9988 260.852 9.77174C260.304 9.54467 259.835 9.16016 259.506 8.66681C259.176 8.17346 259 7.59344 259 7.0001C259 6.20445 259.316 5.44139 259.879 4.87878C260.441 4.31617 261.204 4.0001 262 4.0001ZM248 19.0001C247.407 19.0001 246.827 18.8242 246.333 18.4945C245.84 18.1649 245.455 17.6963 245.228 17.1481C245.001 16.6 244.942 15.9968 245.058 15.4148C245.173 14.8329 245.459 14.2983 245.879 13.8788C246.298 13.4592 246.833 13.1735 247.415 13.0577C247.997 12.942 248.6 13.0014 249.148 13.2285C249.696 13.4555 250.165 13.84 250.494 14.3334C250.824 14.8267 251 15.4068 251 16.0001C251 16.7957 250.684 17.5588 250.121 18.1214C249.559 18.684 248.796 19.0001 248 19.0001ZM262 28.0001C261.407 28.0001 260.827 27.8242 260.333 27.4945C259.84 27.1649 259.455 26.6963 259.228 26.1481C259.001 25.6 258.942 24.9968 259.058 24.4148C259.173 23.8329 259.459 23.2983 259.879 22.8788C260.298 22.4592 260.833 22.1735 261.415 22.0577C261.997 21.942 262.6 22.0014 263.148 22.2285C263.696 22.4555 264.165 22.84 264.494 23.3334C264.824 23.8267 265 24.4068 265 25.0001C265 25.7957 264.684 26.5588 264.121 27.1214C263.559 27.684 262.796 28.0001 262 28.0001Z" fill="currentColor"/>
</g>
<defs>
<clipPath id="clip0_17_18559">
<rect width="272" height="32" rx="5" fill="white"/>
</clipPath>
</defs>
</svg>
