<svg width="272" height="32" viewBox="0 0 272 32" fill="none" xmlns="http://www.w3.org/2000/svg">
<g clip-path="url(#clip0_17_18503)">
<path d="M29.3125 14.2975L28.6588 14.875C28.5622 14.9728 28.4466 15.0496 28.3191 15.1007C28.1915 15.1518 28.0548 15.1761 27.9175 15.1721C27.7802 15.168 27.6451 15.1357 27.5209 15.0771C27.3966 15.0186 27.2857 14.935 27.1951 14.8317C27.1045 14.7284 27.0362 14.6075 26.9944 14.4766C26.9526 14.3458 26.9383 14.2077 26.9522 14.071C26.9662 13.9343 27.0081 13.802 27.0755 13.6822C27.1429 13.5625 27.2342 13.4579 27.3438 13.375L27.9975 12.8037C27.9975 12.8037 27.9975 12.8037 27.9975 12.795L26.9138 12.7012C26.7824 12.69 26.6546 12.653 26.5376 12.5924C26.4206 12.5317 26.3166 12.4486 26.2317 12.3478C26.1468 12.247 26.0826 12.1305 26.0427 12.0048C26.0029 11.8792 25.9881 11.7469 25.9994 11.6156C26.0106 11.4843 26.0476 11.3565 26.1083 11.2395C26.1689 11.1224 26.252 11.0185 26.3528 10.9336C26.4536 10.8487 26.5702 10.7845 26.6958 10.7446C26.8214 10.7047 26.9537 10.69 27.085 10.7012L28.1725 10.795C28.5652 10.8277 28.9396 10.9758 29.2484 11.2205C29.5573 11.4653 29.787 11.7958 29.9087 12.1707C30.0303 12.5455 30.0385 12.948 29.9322 13.3275C29.826 13.707 29.6099 14.0466 29.3113 14.3037L29.3125 14.2975ZM21.725 19.6725L22.0825 21.2237C22.112 21.3517 22.1665 21.4726 22.2428 21.5795C22.319 21.6864 22.4156 21.7772 22.527 21.8468C22.6384 21.9164 22.7623 21.9634 22.8919 21.9851C23.0214 22.0067 23.1539 22.0027 23.2819 21.9731C23.4098 21.9436 23.5307 21.8891 23.6376 21.8128C23.7445 21.7366 23.8354 21.64 23.905 21.5286C23.9745 21.4173 24.0215 21.2933 24.0432 21.1637C24.0649 21.0342 24.0608 20.9017 24.0313 20.7737L23.675 19.215L24.6575 18.3575C24.8574 18.1831 24.9799 17.9365 24.9979 17.6718C25.016 17.4071 24.9281 17.1462 24.7538 16.9462C24.5794 16.7463 24.3327 16.6239 24.0681 16.6058C23.8034 16.5878 23.5424 16.6756 23.3425 16.85L22.36 17.7087C22.0852 17.9476 21.8808 18.257 21.7689 18.6035C21.657 18.95 21.6418 19.3205 21.725 19.675V19.6725ZM17 6.39374V23.1012L17.0338 23.12L18.5188 24.0225C18.7455 24.1601 18.9083 24.3821 18.9714 24.6397C19.0344 24.8974 18.9926 25.1695 18.855 25.3962C18.7174 25.623 18.4954 25.7858 18.2378 25.8489C17.9801 25.9119 17.708 25.8701 17.4813 25.7325L16 24.83L9.625 28.705C9.28821 28.908 8.89907 29.0071 8.50622 28.9901C8.11337 28.9732 7.73424 28.8407 7.41624 28.6094C7.09825 28.3781 6.85548 28.0582 6.71831 27.6897C6.58114 27.3212 6.55564 26.9204 6.645 26.5375L8.32625 19.225L2.6875 14.2975C2.38884 14.0404 2.1728 13.7007 2.06651 13.3212C1.96022 12.9417 1.96842 12.5393 2.09008 12.1644C2.21174 11.7896 2.44143 11.459 2.75031 11.2143C3.0592 10.9695 3.43351 10.8215 3.82625 10.7887L11.2587 10.1462L14.16 3.22624C14.3115 2.86314 14.5671 2.55298 14.8945 2.33482C15.2219 2.11665 15.6066 2.00024 16 2.00024C16.3934 2.00024 16.7781 2.11665 17.1055 2.33482C17.4329 2.55298 17.6885 2.86314 17.84 3.22624L20.75 10.1462L22.0925 10.2625C22.3577 10.2854 22.603 10.4127 22.7743 10.6164C22.9457 10.8201 23.0291 11.0835 23.0063 11.3487C22.9834 11.614 22.8561 11.8592 22.6524 12.0306C22.4487 12.202 22.1852 12.2854 21.92 12.2625L20.575 12.1462C20.2122 12.1143 19.8651 11.9839 19.571 11.7691C19.277 11.5543 19.0471 11.2633 18.9063 10.9275L17 6.39374ZM14.9663 23.125L15 23.1062V6.39374L13.1 10.9212C12.9592 11.2571 12.7293 11.5481 12.4352 11.7628C12.1411 11.9776 11.794 12.108 11.4312 12.14L4 12.7812C3.99964 12.7854 3.99964 12.7896 4 12.7937L9.64125 17.7112C9.9154 17.9501 10.1193 18.2591 10.2309 18.6051C10.3426 18.9511 10.3578 19.321 10.275 19.675L8.585 26.9925L14.9663 23.125ZM24.955 24.7812C24.9254 24.6533 24.8708 24.5324 24.7945 24.4255C24.7181 24.3187 24.6215 24.2279 24.5101 24.1583C24.3986 24.0888 24.2746 24.0419 24.1451 24.0203C24.0155 23.9987 23.883 24.0029 23.755 24.0325C23.627 24.0621 23.5062 24.1167 23.3993 24.193C23.2924 24.2693 23.2016 24.366 23.1321 24.4774C23.0626 24.5889 23.0157 24.7129 22.9941 24.8424C22.9725 24.972 22.9766 25.1045 23.0063 25.2325L23.4188 27L22.02 26.15C21.9077 26.0818 21.7831 26.0364 21.6533 26.0163C21.5234 25.9963 21.3909 26.002 21.2633 26.0332C21.1357 26.0643 21.0154 26.1203 20.9095 26.198C20.8035 26.2756 20.7138 26.3733 20.6456 26.4856C20.5774 26.5979 20.532 26.7225 20.512 26.8523C20.4919 26.9822 20.4976 27.1147 20.5288 27.2423C20.56 27.3699 20.616 27.4902 20.6936 27.5962C20.7712 27.7021 20.869 27.7918 20.9813 27.86L22.385 28.7125C22.7218 28.9155 23.1109 29.0146 23.5038 28.9976C23.8966 28.9807 24.2758 28.8482 24.5938 28.6169C24.9118 28.3856 25.1545 28.0657 25.2917 27.6972C25.4289 27.3287 25.4544 26.9279 25.365 26.545L24.955 24.7812Z" fill="currentColor"/>
<path d="M76.9825 13.92L76.3275 14.4912C76.2267 14.5675 76.1008 14.6027 75.9751 14.5899C75.8494 14.5771 75.7332 14.5171 75.6499 14.4221C75.5666 14.3271 75.5223 14.204 75.5261 14.0777C75.5298 13.9514 75.5812 13.8312 75.67 13.7412L76.325 13.17C76.4007 13.105 76.4551 13.0188 76.4814 12.9226C76.5077 12.8263 76.5046 12.7244 76.4725 12.63C76.4423 12.5369 76.3855 12.4547 76.3091 12.3936C76.2326 12.3325 76.1399 12.2952 76.0425 12.2862L74.9562 12.1925C74.8906 12.1868 74.8267 12.1683 74.7682 12.1379C74.7097 12.1076 74.6578 12.066 74.6153 12.0155C74.5729 11.9651 74.5408 11.9068 74.5209 11.844C74.501 11.7811 74.4937 11.715 74.4994 11.6494C74.505 11.5837 74.5236 11.5198 74.5539 11.4613C74.5843 11.4028 74.6259 11.3509 74.6763 11.3084C74.7267 11.266 74.785 11.2339 74.8479 11.214C74.9107 11.1941 74.9768 11.1868 75.0425 11.1925L76.1287 11.2862C76.4238 11.3104 76.705 11.4214 76.9371 11.6051C77.1692 11.7888 77.3418 12.0371 77.4331 12.3187C77.5244 12.6003 77.5303 12.9026 77.4501 13.1875C77.3699 13.4725 77.2072 13.7273 76.9825 13.92ZM70.21 19.56L70.5688 21.1112C70.5816 21.1771 70.6076 21.2397 70.6451 21.2953C70.6827 21.3509 70.7311 21.3984 70.7874 21.435C70.8437 21.4715 70.9067 21.4963 70.9728 21.5079C71.0389 21.5196 71.1067 21.5178 71.1721 21.5027C71.2375 21.4876 71.2991 21.4594 71.3534 21.42C71.4077 21.3805 71.4535 21.3306 71.4881 21.273C71.5226 21.2155 71.5453 21.1516 71.5546 21.0852C71.564 21.0187 71.5599 20.9511 71.5425 20.8862L71.185 19.335C71.1627 19.245 71.1658 19.1506 71.1941 19.0623C71.2224 18.974 71.2746 18.8953 71.345 18.835L72.3275 17.9775C72.3823 17.936 72.4279 17.8837 72.4616 17.8239C72.4953 17.764 72.5163 17.6978 72.5233 17.6295C72.5302 17.5611 72.5231 17.4921 72.5022 17.4267C72.4813 17.3612 72.4471 17.3008 72.4018 17.2491C72.3565 17.1975 72.3011 17.1557 72.2389 17.1264C72.1768 17.0971 72.1093 17.081 72.0406 17.0789C71.972 17.0769 71.9036 17.0891 71.8398 17.1146C71.7761 17.1402 71.7183 17.1786 71.67 17.2275L70.6875 18.085C70.4811 18.264 70.3276 18.4961 70.2434 18.756C70.1593 19.0159 70.1477 19.2939 70.21 19.56ZM69.96 11.7562L68.615 11.64C68.3432 11.6158 68.0832 11.5179 67.863 11.3569C67.6427 11.1958 67.4706 10.9778 67.365 10.7262L64.5 3.90873V23.4175C64.5953 23.4497 64.687 23.4915 64.7737 23.5425L66.2587 24.4437C66.3149 24.4778 66.3638 24.5226 66.4026 24.5755C66.4414 24.6285 66.4695 24.6886 66.4851 24.7523C66.5007 24.8161 66.5036 24.8824 66.4936 24.9473C66.4836 25.0122 66.4609 25.0745 66.4269 25.1306C66.3928 25.1867 66.348 25.2356 66.2951 25.2745C66.2421 25.3133 66.182 25.3413 66.1183 25.3569C66.0545 25.3725 65.9882 25.3754 65.9233 25.3654C65.8584 25.3555 65.7961 25.3328 65.74 25.2987L64.25 24.4C64.1733 24.3528 64.085 24.3277 63.995 24.3277C63.905 24.3277 63.8167 24.3528 63.74 24.4L57.3525 28.275C57.1 28.4263 56.8085 28.5 56.5144 28.4869C56.2203 28.4738 55.9366 28.3744 55.6986 28.2011C55.4606 28.0279 55.2788 27.7884 55.1759 27.5126C55.073 27.2368 55.0536 26.9368 55.12 26.65L56.81 19.3325C56.8323 19.2425 56.8292 19.1481 56.8009 19.0598C56.7726 18.9715 56.7204 18.8928 56.65 18.8325L51.0125 13.9137C50.7896 13.7201 50.6288 13.4649 50.5502 13.1802C50.4717 12.8956 50.4789 12.5941 50.571 12.3135C50.6631 12.0329 50.836 11.7858 51.068 11.603C51.2999 11.4203 51.5807 11.3101 51.875 11.2862L59.3062 10.6437C59.3966 10.6353 59.4829 10.6025 59.556 10.5488C59.6291 10.495 59.6863 10.4224 59.7212 10.3387L62.625 3.41998C62.7385 3.14782 62.9299 2.91532 63.1753 2.75178C63.4206 2.58824 63.7089 2.50098 64.0037 2.50098C64.2986 2.50098 64.5869 2.58824 64.8322 2.75178C65.0776 2.91532 65.269 3.14782 65.3825 3.41998L68.2862 10.3387C68.3212 10.4224 68.3784 10.495 68.4515 10.5488C68.5246 10.6025 68.6109 10.6353 68.7013 10.6437L70.0462 10.76C70.1119 10.7656 70.1758 10.7842 70.2343 10.8145C70.2928 10.8449 70.3447 10.8865 70.3872 10.9369C70.4296 10.9874 70.4617 11.0456 70.4816 11.1085C70.5015 11.1713 70.5088 11.2374 70.5031 11.3031C70.4975 11.3688 70.4789 11.4327 70.4486 11.4912C70.4182 11.5497 70.3766 11.6016 70.3262 11.644C70.2758 11.6864 70.2175 11.7185 70.1546 11.7384C70.0918 11.7583 70.0257 11.7656 69.96 11.76V11.7562ZM63.23 23.545C63.3167 23.494 63.4085 23.4522 63.5037 23.42V3.90873L60.64 10.7262C60.5344 10.9778 60.3623 11.1958 60.142 11.3569C59.9218 11.5179 59.6618 11.6158 59.39 11.64L51.9575 12.2825C51.8602 12.2913 51.7676 12.3285 51.6912 12.3893C51.6148 12.4502 51.5579 12.5321 51.5275 12.625C51.4954 12.7194 51.4923 12.8213 51.5186 12.9176C51.5449 13.0138 51.5994 13.0999 51.675 13.165L57.3125 18.0837C57.5189 18.2628 57.6724 18.4948 57.7566 18.7548C57.8407 19.0147 57.8523 19.2927 57.79 19.5587L56.1 26.875C56.0764 26.972 56.0823 27.0738 56.1171 27.1673C56.1518 27.2609 56.2138 27.3419 56.295 27.4C56.373 27.4578 56.4666 27.4908 56.5636 27.4946C56.6606 27.4984 56.7565 27.4728 56.8387 27.4212L63.23 23.545ZM72.47 24.8862C72.4572 24.8204 72.4312 24.7577 72.3936 24.7021C72.3561 24.6465 72.3077 24.599 72.2514 24.5625C72.1951 24.526 72.132 24.5012 72.0659 24.4895C71.9998 24.4779 71.9321 24.4797 71.8667 24.4948C71.8013 24.5099 71.7396 24.538 71.6853 24.5775C71.631 24.6169 71.5852 24.6669 71.5507 24.7244C71.5161 24.7819 71.4935 24.8458 71.4841 24.9123C71.4748 24.9787 71.4789 25.0464 71.4963 25.1112L71.9 26.875C71.9236 26.972 71.9177 27.0738 71.8829 27.1673C71.8482 27.2609 71.7862 27.3419 71.705 27.4C71.627 27.4578 71.5334 27.4908 71.4364 27.4946C71.3394 27.4984 71.2435 27.4728 71.1612 27.4212L69.7575 26.5687C69.6441 26.4999 69.5081 26.479 69.3792 26.5105C69.2504 26.5421 69.1394 26.6235 69.0706 26.7369C69.0018 26.8502 68.9809 26.9863 69.0124 27.1151C69.044 27.2439 69.1254 27.3549 69.2388 27.4237L70.6425 28.2762C70.895 28.4276 71.1865 28.5013 71.4806 28.4882C71.7747 28.475 72.0584 28.3756 72.2964 28.2024C72.5344 28.0292 72.7162 27.7897 72.8191 27.5139C72.922 27.238 72.9414 26.938 72.875 26.6512L72.47 24.8862Z" fill="currentColor"/>
<path d="M125.149 14.1076L124.5 14.6788C124.428 14.7521 124.341 14.8098 124.245 14.8481C124.15 14.8864 124.047 14.9047 123.944 14.9016C123.841 14.8986 123.74 14.8743 123.647 14.8304C123.553 14.7865 123.47 14.7238 123.402 14.6464C123.334 14.5689 123.283 14.4782 123.252 14.3801C123.22 14.2819 123.21 14.1783 123.22 14.0758C123.231 13.9733 123.262 13.874 123.313 13.7842C123.363 13.6944 123.432 13.616 123.514 13.5538L124.169 12.9826C124.207 12.9498 124.235 12.906 124.248 12.8572C124.261 12.8083 124.259 12.7565 124.243 12.7088C124.23 12.6613 124.203 12.619 124.164 12.588C124.126 12.557 124.079 12.5389 124.03 12.5363L122.943 12.4426C122.744 12.426 122.559 12.3311 122.43 12.1787C122.302 12.0263 122.238 11.829 122.255 11.6301C122.272 11.4311 122.366 11.247 122.519 11.118C122.671 10.9891 122.869 10.926 123.068 10.9426L124.155 11.0376C124.498 11.0641 124.825 11.1925 125.094 11.4064C125.363 11.6202 125.562 11.9097 125.665 12.2376C125.773 12.5654 125.782 12.9179 125.69 13.2506C125.598 13.5834 125.41 13.8815 125.149 14.1076ZM117.969 19.6163L118.326 21.1676C118.364 21.3327 118.457 21.48 118.59 21.5855C118.722 21.6911 118.887 21.7486 119.056 21.7488C119.114 21.7489 119.171 21.7422 119.226 21.7288C119.42 21.6839 119.588 21.564 119.693 21.3955C119.798 21.227 119.832 21.0237 119.788 20.8301L119.43 19.2788C119.42 19.2338 119.422 19.1868 119.436 19.1429C119.45 19.0989 119.475 19.0595 119.51 19.0288L120.494 18.1713C120.576 18.1091 120.644 18.0307 120.695 17.9409C120.745 17.8511 120.777 17.7518 120.787 17.6493C120.798 17.5468 120.787 17.4432 120.756 17.3451C120.724 17.2469 120.673 17.1563 120.605 17.0788C120.537 17.0013 120.454 16.9386 120.361 16.8947C120.268 16.8508 120.166 16.8266 120.063 16.8235C119.96 16.8205 119.858 16.8387 119.762 16.877C119.667 16.9153 119.58 16.973 119.508 17.0463L118.524 17.9038C118.285 18.1122 118.107 18.3816 118.009 18.6832C117.911 18.9848 117.897 19.3074 117.969 19.6163ZM117.936 12.0001L116.59 11.8838C116.272 11.8571 115.968 11.7442 115.71 11.5572C115.452 11.3701 115.249 11.1161 115.125 10.8226L112.75 5.15006V23.2501C112.803 23.2751 112.854 23.3013 112.904 23.3313L114.39 24.2338C114.474 24.2849 114.548 24.3522 114.606 24.4316C114.664 24.5111 114.706 24.6013 114.729 24.697C114.753 24.7927 114.757 24.892 114.742 24.9894C114.727 25.0868 114.693 25.1802 114.642 25.2644C114.591 25.3486 114.524 25.422 114.444 25.4802C114.365 25.5384 114.274 25.5804 114.179 25.6038C114.083 25.6272 113.984 25.6315 113.886 25.6165C113.789 25.6015 113.695 25.5674 113.611 25.5163L112.125 24.6126C112.087 24.5893 112.044 24.577 112 24.577C111.956 24.577 111.913 24.5893 111.875 24.6126L105.486 28.4876C105.192 28.6659 104.851 28.7534 104.507 28.7392C104.164 28.725 103.831 28.6097 103.553 28.4077C103.274 28.2057 103.061 27.926 102.941 27.6036C102.82 27.2812 102.797 26.9304 102.875 26.5951L104.565 19.2788C104.575 19.2338 104.573 19.1868 104.559 19.1429C104.545 19.0989 104.52 19.0595 104.485 19.0288L98.8513 14.1076C98.5898 13.8808 98.4015 13.5817 98.3101 13.248C98.2186 12.9142 98.2282 12.5609 98.3375 12.2326C98.4407 11.9047 98.6397 11.6152 98.9088 11.4014C99.1779 11.1875 99.5048 11.0591 99.8475 11.0326L107.28 10.3901C107.325 10.3856 107.368 10.3691 107.404 10.3423C107.44 10.3154 107.469 10.2792 107.486 10.2376L110.39 3.31756C110.524 3.00188 110.749 2.7327 111.035 2.54349C111.321 2.35429 111.657 2.25342 112 2.25342C112.343 2.25342 112.679 2.35429 112.965 2.54349C113.251 2.7327 113.476 3.00188 113.61 3.31756L116.514 10.2376C116.531 10.2792 116.56 10.3154 116.596 10.3423C116.632 10.3691 116.675 10.3856 116.72 10.3901L118.065 10.5063C118.264 10.5229 118.448 10.6178 118.577 10.7702C118.706 10.9225 118.769 11.1199 118.753 11.3188C118.736 11.5177 118.641 11.7019 118.489 11.8308C118.336 11.9598 118.139 12.0229 117.94 12.0063L117.936 12.0001ZM111.096 23.3251C111.146 23.2951 111.198 23.2688 111.25 23.2438V5.15006L108.875 10.8226C108.752 11.1164 108.551 11.3709 108.293 11.5588C108.036 11.7467 107.732 11.8608 107.415 11.8888L99.9813 12.5313C99.9321 12.5339 99.8851 12.552 99.8469 12.583C99.8087 12.614 99.7814 12.6563 99.7688 12.7038C99.7519 12.7515 99.7499 12.8033 99.7631 12.8522C99.7762 12.901 99.8039 12.9448 99.8425 12.9776L105.481 17.8963C105.722 18.1054 105.9 18.376 105.998 18.6791C106.096 18.9822 106.109 19.3062 106.036 19.6163L104.343 26.9326C104.329 26.9816 104.331 27.0336 104.348 27.0814C104.366 27.1292 104.398 27.1703 104.44 27.1988C104.478 27.2289 104.524 27.2462 104.572 27.2483C104.62 27.2503 104.668 27.2369 104.708 27.2101L111.096 23.3251ZM120.711 24.8251C120.691 24.7275 120.651 24.635 120.594 24.553C120.537 24.471 120.465 24.4011 120.381 24.3475C120.297 24.2938 120.203 24.2575 120.105 24.2406C120.006 24.2236 119.906 24.2265 119.809 24.2489C119.711 24.2714 119.62 24.3129 119.539 24.3712C119.458 24.4295 119.389 24.5034 119.337 24.5885C119.285 24.6735 119.251 24.7681 119.236 24.8667C119.221 24.9653 119.226 25.0659 119.25 25.1626L119.659 26.9276C119.671 26.9767 119.668 27.0285 119.651 27.0761C119.633 27.1236 119.602 27.1647 119.56 27.1938C119.522 27.2239 119.476 27.2412 119.428 27.2433C119.38 27.2453 119.332 27.2319 119.293 27.2051L117.889 26.3526C117.805 26.2979 117.71 26.2608 117.611 26.2432C117.513 26.2257 117.411 26.2282 117.314 26.2506C117.216 26.2729 117.123 26.3146 117.042 26.3733C116.961 26.432 116.892 26.5064 116.84 26.5922C116.788 26.6779 116.753 26.7733 116.739 26.8726C116.724 26.9718 116.729 27.073 116.755 27.1702C116.78 27.2673 116.824 27.3584 116.885 27.438C116.946 27.5177 117.023 27.5842 117.11 27.6338L118.514 28.4863C118.808 28.6645 119.148 28.7519 119.492 28.7377C119.836 28.7235 120.168 28.6083 120.446 28.4065C120.725 28.2047 120.938 27.9253 121.059 27.6031C121.179 27.2809 121.202 26.9303 121.125 26.5951L120.711 24.8251Z" fill="currentColor"/>
<path d="M173.641 14.6749L172.986 15.2499C172.704 15.497 172.34 15.6295 171.965 15.6213C171.59 15.6132 171.232 15.465 170.961 15.2059C170.69 14.9469 170.526 14.5957 170.501 14.2216C170.476 13.8476 170.592 13.4777 170.826 13.1849C170.43 13.1453 170.066 12.9499 169.814 12.6418C169.562 12.3336 169.442 11.938 169.482 11.5418C169.521 11.1456 169.717 10.7814 170.025 10.5293C170.333 10.2772 170.729 10.1578 171.125 10.1974L172.213 10.2912C172.703 10.3325 173.17 10.5176 173.556 10.8234C173.942 11.1292 174.228 11.542 174.381 12.0101C174.533 12.4782 174.543 12.9808 174.411 13.4549C174.278 13.9289 174.009 14.3533 173.636 14.6749H173.641ZM166.031 17.3337C165.688 17.6319 165.433 18.018 165.294 18.4503C165.154 18.8826 165.134 19.3449 165.238 19.7874L165.595 21.3387C165.639 21.5306 165.721 21.712 165.835 21.8724C165.95 22.0328 166.095 22.1691 166.262 22.2735C166.429 22.3779 166.615 22.4484 166.809 22.4809C167.004 22.5134 167.202 22.5074 167.394 22.463C167.586 22.4187 167.768 22.337 167.928 22.2226C168.089 22.1082 168.225 21.9633 168.329 21.7962C168.434 21.6291 168.504 21.4431 168.537 21.2488C168.569 21.0545 168.563 20.8556 168.519 20.6637L168.226 19.3999L168.986 18.7362C169.138 18.6076 169.262 18.4501 169.352 18.2731C169.442 18.096 169.496 17.9027 169.511 17.7046C169.526 17.5065 169.501 17.3074 169.438 17.1189C169.376 16.9304 169.276 16.7562 169.145 16.6065C169.015 16.4568 168.856 16.3346 168.677 16.2469C168.499 16.1592 168.305 16.1078 168.107 16.0956C167.908 16.0835 167.71 16.1109 167.522 16.1762C167.334 16.2416 167.162 16.3435 167.014 16.4762L166.031 17.3337ZM163.281 25.6562C163.074 25.9958 162.741 26.2392 162.354 26.333C161.968 26.4268 161.56 26.3631 161.22 26.1562L160 25.4174L153.875 29.1374C153.454 29.3909 152.968 29.5148 152.477 29.4936C151.986 29.4723 151.513 29.307 151.115 29.0181C150.718 28.7293 150.414 28.3298 150.243 27.8695C150.071 27.4091 150.039 26.9084 150.15 26.4299L151.775 19.3999L146.359 14.6749C145.986 14.3533 145.717 13.9289 145.584 13.4549C145.452 12.9808 145.462 12.4782 145.614 12.0101C145.767 11.542 146.053 11.1292 146.439 10.8234C146.825 10.5176 147.292 10.3325 147.783 10.2912L154.908 9.67492L157.695 3.03242C157.887 2.5807 158.207 2.19541 158.616 1.92455C159.026 1.6537 159.506 1.50928 159.996 1.50928C160.487 1.50928 160.967 1.6537 161.376 1.92455C161.785 2.19541 162.106 2.5807 162.298 3.03242L165.085 9.67492L166.126 9.76492C166.506 9.81786 166.852 10.0144 167.091 10.3142C167.331 10.6139 167.446 10.994 167.414 11.3764C167.382 11.7587 167.204 12.1142 166.918 12.3697C166.632 12.6252 166.259 12.7613 165.875 12.7499L164.529 12.6337C164.075 12.5948 163.64 12.4322 163.273 12.1635C162.905 11.8949 162.618 11.5304 162.443 11.1099L161.5 8.87492V22.8187L162.779 23.5949C162.947 23.6971 163.094 23.8316 163.21 23.9905C163.327 24.1494 163.411 24.3298 163.458 24.5212C163.504 24.7126 163.513 24.9114 163.483 25.1061C163.453 25.3009 163.385 25.4878 163.283 25.6562H163.281ZM158.5 22.8187V8.87492L157.561 11.1112C157.387 11.5322 157.1 11.8971 156.732 12.1662C156.364 12.4354 155.929 12.5983 155.475 12.6374L149.208 13.1799L153.969 17.3337C154.312 17.6319 154.567 18.018 154.706 18.4503C154.846 18.8826 154.866 19.3449 154.763 19.7874L153.339 25.9524L158.5 22.8187ZM169.674 25.6637C169.592 25.3051 169.382 24.989 169.082 24.7755C168.783 24.5619 168.415 24.4659 168.049 24.5055C167.684 24.5452 167.346 24.7178 167.099 24.9905C166.852 25.2633 166.714 25.6172 166.711 25.9849C166.366 25.7904 165.958 25.7403 165.576 25.8456C165.194 25.9508 164.87 26.2029 164.673 26.5467C164.476 26.8905 164.423 27.2981 164.526 27.6807C164.629 28.0633 164.879 28.3897 165.221 28.5887L166.125 29.1374C166.546 29.3909 167.032 29.5148 167.523 29.4936C168.014 29.4723 168.487 29.307 168.885 29.0181C169.282 28.7293 169.586 28.3298 169.757 27.8695C169.929 27.4091 169.961 26.9084 169.85 26.4299L169.674 25.6637Z" fill="currentColor"/>
<path d="M221.9 12.1612C221.779 11.788 221.551 11.4586 221.244 11.2141C220.937 10.9696 220.565 10.8208 220.174 10.7862L212.75 10.1462L209.84 3.22624C209.688 2.86314 209.433 2.55298 209.106 2.33482C208.778 2.11665 208.393 2.00024 208 2.00024C207.607 2.00024 207.222 2.11665 206.894 2.33482C206.567 2.55298 206.312 2.86314 206.16 3.22624L203.259 10.1462L195.826 10.7887C195.434 10.8215 195.059 10.9695 194.75 11.2143C194.441 11.459 194.212 11.7896 194.09 12.1644C193.968 12.5393 193.96 12.9417 194.067 13.3212C194.173 13.7007 194.389 14.0404 194.688 14.2975L200.326 19.225L198.636 26.5425C198.547 26.9254 198.572 27.3262 198.71 27.6947C198.847 28.0632 199.089 28.3831 199.407 28.6144C199.725 28.8457 200.105 28.9782 200.497 28.9951C200.89 29.0121 201.279 28.913 201.616 28.71L207.991 24.835L214.38 28.71C214.717 28.913 215.106 29.0121 215.499 28.9951C215.892 28.9782 216.271 28.8457 216.589 28.6144C216.907 28.3831 217.15 28.0632 217.287 27.6947C217.424 27.3262 217.449 26.9254 217.36 26.5425L215.671 19.2175L221.309 14.2975C221.607 14.0394 221.822 13.6989 221.927 13.3188C222.033 12.9387 222.023 12.5359 221.9 12.1612ZM219.998 12.7862L214.36 17.7062C214.086 17.9449 213.882 18.2539 213.77 18.5999C213.658 18.9459 213.642 19.3159 213.725 19.67L215.419 27L209.035 23.125C208.724 22.9353 208.366 22.835 208.001 22.835V4.01124L210.901 10.9212C211.042 11.2571 211.272 11.5481 211.566 11.7628C211.86 11.9776 212.207 12.108 212.57 12.14L220 12.7825C220 12.7825 220 12.79 220 12.7912L219.998 12.7862Z" fill="currentColor"/>
<path opacity="0.2" d="M256 3.00004V23.8288C255.818 23.829 255.64 23.8792 255.485 23.9738L249.097 27.8488C248.929 27.9494 248.735 27.9981 248.538 27.989C248.342 27.9799 248.153 27.9133 247.995 27.7974C247.836 27.6816 247.716 27.5218 247.647 27.3377C247.579 27.1537 247.567 26.9537 247.611 26.7625L249.301 19.445C249.342 19.2673 249.334 19.0818 249.279 18.9081C249.223 18.7345 249.121 18.5792 248.984 18.4588L243.345 13.5438C243.194 13.4157 243.085 13.2457 243.031 13.0554C242.977 12.8651 242.98 12.663 243.041 12.4747C243.102 12.2865 243.217 12.1204 243.372 11.9977C243.527 11.8749 243.715 11.8009 243.912 11.785L251.345 11.1425C251.526 11.1264 251.7 11.061 251.847 10.9535C251.994 10.846 252.108 10.7005 252.179 10.5325L255.082 3.61254C255.156 3.43014 255.283 3.27417 255.447 3.16493C255.611 3.05569 255.803 2.99823 256 3.00004Z" fill="currentColor"/>
<path d="M269.9 12.1612C269.779 11.788 269.551 11.4586 269.244 11.2141C268.937 10.9696 268.565 10.8208 268.174 10.7862L260.75 10.1462L257.84 3.22624C257.688 2.86314 257.433 2.55298 257.106 2.33482C256.778 2.11665 256.393 2.00024 256 2.00024C255.607 2.00024 255.222 2.11665 254.894 2.33482C254.567 2.55298 254.312 2.86314 254.16 3.22624L251.259 10.1462L243.826 10.7887C243.434 10.8215 243.059 10.9695 242.75 11.2143C242.441 11.459 242.212 11.7896 242.09 12.1644C241.968 12.5393 241.96 12.9417 242.067 13.3212C242.173 13.7007 242.389 14.0404 242.688 14.2975L248.326 19.225L246.636 26.5425C246.547 26.9254 246.572 27.3262 246.71 27.6947C246.847 28.0632 247.089 28.3831 247.407 28.6144C247.725 28.8457 248.105 28.9782 248.497 28.9951C248.89 29.0121 249.279 28.913 249.616 28.71L255.991 24.835L262.38 28.71C262.717 28.913 263.106 29.0121 263.499 28.9951C263.892 28.9782 264.271 28.8457 264.589 28.6144C264.907 28.3831 265.15 28.0632 265.287 27.6947C265.424 27.3262 265.449 26.9254 265.36 26.5425L263.671 19.2175L269.309 14.2975C269.607 14.0394 269.822 13.6989 269.927 13.3188C270.033 12.9387 270.023 12.5359 269.9 12.1612ZM248.585 27L250.275 19.675C250.358 19.3209 250.342 18.9509 250.23 18.6049C250.118 18.2589 249.914 17.9499 249.64 17.7112L244 12.7937C244 12.7896 244 12.7854 244 12.7812L251.43 12.14C251.793 12.108 252.14 11.9776 252.434 11.7628C252.728 11.5481 252.958 11.2571 253.099 10.9212L255 6.39374V23.1012L254.966 23.12L248.585 27ZM268 12.7912L262.363 17.7112C262.088 17.9499 261.884 18.2589 261.772 18.6049C261.66 18.9509 261.645 19.3209 261.728 19.675L263.419 27L257.035 23.125L257.001 23.1062V6.39374L258.901 10.9212C259.042 11.2571 259.272 11.5481 259.566 11.7628C259.86 11.9776 260.207 12.108 260.57 12.14L268 12.7825C268 12.7825 268 12.79 268 12.7912Z" fill="currentColor"/>
</g>
<defs>
<clipPath id="clip0_17_18503">
<rect width="272" height="32" rx="5" fill="white"/>
</clipPath>
</defs>
</svg>
