<svg width="272" height="32" viewBox="0 0 272 32" fill="none" xmlns="http://www.w3.org/2000/svg">
<g clip-path="url(#clip0_17_18419)">
<path d="M25 9C23.61 9.00129 22.2519 9.41637 21.0986 10.1924C19.9454 10.9684 19.0493 12.0701 18.5245 13.3572C17.9997 14.6444 17.87 16.0586 18.152 17.4197C18.4339 18.7808 19.1146 20.0272 20.1075 21H11.8925C13.0517 19.8643 13.7802 18.361 13.9535 16.7475C14.1268 15.1339 13.7341 13.5103 12.8425 12.1543C11.9509 10.7983 10.616 9.79424 9.06587 9.3138C7.51578 8.83336 5.84693 8.90642 4.34476 9.52049C2.8426 10.1346 1.60046 11.2515 0.830818 12.6802C0.0611765 14.1089 -0.188146 15.7607 0.125497 17.3529C0.43914 18.9451 1.29626 20.3789 2.55025 21.409C3.80423 22.4391 5.37717 23.0015 7 23H25C26.8565 23 28.637 22.2625 29.9497 20.9497C31.2625 19.637 32 17.8565 32 16C32 14.1435 31.2625 12.363 29.9497 11.0503C28.637 9.7375 26.8565 9 25 9ZM2 16C2 15.0111 2.29324 14.0444 2.84265 13.2221C3.39206 12.3999 4.17295 11.759 5.08658 11.3806C6.00021 11.0022 7.00555 10.9031 7.97545 11.0961C8.94536 11.289 9.83627 11.7652 10.5355 12.4645C11.2348 13.1637 11.711 14.0546 11.9039 15.0245C12.0969 15.9945 11.9978 16.9998 11.6194 17.9134C11.241 18.827 10.6001 19.6079 9.77785 20.1573C8.95561 20.7068 7.98891 21 7 21C5.67392 21 4.40215 20.4732 3.46447 19.5355C2.52678 18.5979 2 17.3261 2 16ZM25 21C24.0111 21 23.0444 20.7068 22.2221 20.1573C21.3999 19.6079 20.759 18.827 20.3806 17.9134C20.0022 16.9998 19.9031 15.9945 20.0961 15.0245C20.289 14.0546 20.7652 13.1637 21.4645 12.4645C22.1637 11.7652 23.0546 11.289 24.0245 11.0961C24.9945 10.9031 25.9998 11.0022 26.9134 11.3806C27.827 11.759 28.6079 12.3999 29.1573 13.2221C29.7068 14.0444 30 15.0111 30 16C30 17.3261 29.4732 18.5979 28.5355 19.5355C27.5979 20.4732 26.3261 21 25 21Z" fill="currentColor"/>
<path d="M73 9.5C71.5911 9.50143 70.2208 9.9606 69.0955 10.8084C67.9702 11.6561 67.1508 12.8466 66.7607 14.2004C66.3706 15.5542 66.431 16.9982 66.9327 18.3147C67.4344 19.6313 68.3503 20.7491 69.5425 21.5H58.4575C59.783 20.6652 60.7624 19.3797 61.2155 17.8802C61.6686 16.3807 61.565 14.768 60.9237 13.3388C60.2823 11.9097 59.1465 10.7602 57.725 10.1019C56.3036 9.44354 54.6922 9.3207 53.1874 9.75592C51.6826 10.1912 50.3856 11.1552 49.5351 12.4706C48.6845 13.786 48.3376 15.3644 48.5582 16.9153C48.7787 18.4661 49.552 19.8852 50.7356 20.9113C51.9192 21.9374 53.4335 22.5016 55 22.5H73C74.7239 22.5 76.3772 21.8152 77.5962 20.5962C78.8152 19.3772 79.5 17.7239 79.5 16C79.5 14.2761 78.8152 12.6228 77.5962 11.4038C76.3772 10.1848 74.7239 9.5 73 9.5ZM49.5 16C49.5 14.9122 49.8226 13.8488 50.4269 12.9444C51.0313 12.0399 51.8902 11.3349 52.8952 10.9187C53.9002 10.5024 55.0061 10.3935 56.073 10.6057C57.1399 10.8179 58.1199 11.3417 58.8891 12.1109C59.6583 12.8801 60.1821 13.8601 60.3943 14.927C60.6065 15.9939 60.4976 17.0998 60.0813 18.1048C59.6651 19.1098 58.9601 19.9687 58.0556 20.5731C57.1512 21.1774 56.0878 21.5 55 21.5C53.5418 21.4983 52.1438 20.9184 51.1127 19.8873C50.0816 18.8562 49.5017 17.4582 49.5 16ZM73 21.5C71.9122 21.5 70.8488 21.1774 69.9444 20.5731C69.0399 19.9687 68.3349 19.1098 67.9187 18.1048C67.5024 17.0998 67.3935 15.9939 67.6057 14.927C67.8179 13.8601 68.3417 12.8801 69.1109 12.1109C69.8801 11.3417 70.8601 10.8179 71.927 10.6057C72.9939 10.3935 74.0998 10.5024 75.1048 10.9187C76.1098 11.3349 76.9687 12.0399 77.5731 12.9444C78.1774 13.8488 78.5 14.9122 78.5 16C78.4983 17.4582 77.9184 18.8562 76.8873 19.8873C75.8562 20.9184 74.4582 21.4983 73 21.5Z" fill="currentColor"/>
<path d="M121 9.25C119.605 9.25132 118.244 9.68502 117.105 10.4914C115.967 11.2978 115.106 12.4373 114.641 13.753C114.177 15.0687 114.132 16.4961 114.512 17.8387C114.892 19.1812 115.679 20.373 116.764 21.25H107.236C108.475 20.249 109.32 18.8423 109.621 17.2785C109.923 15.7148 109.662 14.0948 108.885 12.7048C108.107 11.3149 106.863 10.2447 105.373 9.68329C103.883 9.1219 102.242 9.10554 100.741 9.63711C99.2394 10.1687 97.9744 11.2139 97.1694 12.5881C96.3644 13.9622 96.0712 15.5767 96.3416 17.1462C96.6121 18.7156 97.4287 20.1389 98.6472 21.1644C99.8656 22.1899 101.407 22.7515 103 22.75H121C122.79 22.75 124.507 22.0388 125.773 20.773C127.039 19.5071 127.75 17.7902 127.75 16C127.75 14.2098 127.039 12.4929 125.773 11.227C124.507 9.96116 122.79 9.25 121 9.25ZM97.75 16C97.75 14.9616 98.0579 13.9466 98.6348 13.0833C99.2117 12.2199 100.032 11.547 100.991 11.1496C101.95 10.7523 103.006 10.6483 104.024 10.8509C105.043 11.0534 105.978 11.5535 106.712 12.2877C107.447 13.0219 107.947 13.9574 108.149 14.9758C108.352 15.9942 108.248 17.0498 107.85 18.0091C107.453 18.9684 106.78 19.7883 105.917 20.3652C105.053 20.9421 104.038 21.25 103 21.25C101.608 21.25 100.272 20.6969 99.2877 19.7123C98.3031 18.7277 97.75 17.3924 97.75 16ZM121 21.25C119.962 21.25 118.947 20.9421 118.083 20.3652C117.22 19.7883 116.547 18.9684 116.15 18.0091C115.752 17.0498 115.648 15.9942 115.851 14.9758C116.053 13.9574 116.553 13.0219 117.288 12.2877C118.022 11.5535 118.957 11.0534 119.976 10.8509C120.994 10.6483 122.05 10.7523 123.009 11.1496C123.968 11.547 124.788 12.2199 125.365 13.0833C125.942 13.9466 126.25 14.9616 126.25 16C126.25 17.3924 125.697 18.7277 124.712 19.7123C123.728 20.6969 122.392 21.25 121 21.25Z" fill="currentColor"/>
<path d="M168.5 8.50001C167.107 8.50001 165.742 8.88787 164.557 9.62013C163.372 10.3524 162.415 11.4001 161.792 12.6459C161.169 13.8917 160.905 15.2863 161.03 16.6736C161.155 18.0608 161.664 19.3857 162.5 20.5H157.5C158.514 19.1484 159.041 17.4941 158.997 15.8051C158.954 14.1162 158.341 12.4915 157.258 11.1944C156.176 9.89727 154.687 9.00365 153.033 8.65833C151.379 8.31302 149.657 8.53623 148.146 9.29181C146.635 10.0474 145.423 11.2911 144.707 12.8213C143.991 14.3516 143.812 16.0788 144.201 17.7232C144.589 19.3675 145.521 20.8326 146.846 21.8811C148.17 22.9296 149.81 23.5 151.5 23.5H168.5C170.489 23.5 172.397 22.7098 173.803 21.3033C175.21 19.8968 176 17.9891 176 16C176 14.0109 175.21 12.1032 173.803 10.6967C172.397 9.29019 170.489 8.50001 168.5 8.50001ZM147 16C147 15.11 147.264 14.24 147.758 13.4999C148.253 12.7599 148.956 12.1831 149.778 11.8426C150.6 11.502 151.505 11.4128 152.378 11.5865C153.251 11.7601 154.053 12.1887 154.682 12.818C155.311 13.4474 155.74 14.2492 155.914 15.1221C156.087 15.995 155.998 16.8998 155.657 17.7221C155.317 18.5444 154.74 19.2472 154 19.7416C153.26 20.2361 152.39 20.5 151.5 20.5C150.307 20.5 149.162 20.0259 148.318 19.182C147.474 18.3381 147 17.1935 147 16ZM168.5 20.5C167.61 20.5 166.74 20.2361 166 19.7416C165.26 19.2472 164.683 18.5444 164.343 17.7221C164.002 16.8998 163.913 15.995 164.086 15.1221C164.26 14.2492 164.689 13.4474 165.318 12.818C165.947 12.1887 166.749 11.7601 167.622 11.5865C168.495 11.4128 169.4 11.502 170.222 11.8426C171.044 12.1831 171.747 12.7599 172.242 13.4999C172.736 14.24 173 15.11 173 16C173 17.1935 172.526 18.3381 171.682 19.182C170.838 20.0259 169.693 20.5 168.5 20.5Z" fill="currentColor"/>
<path d="M217 9C215.61 9.00129 214.252 9.41637 213.099 10.1924C211.945 10.9684 211.049 12.0701 210.525 13.3572C210 14.6444 209.87 16.0586 210.152 17.4197C210.434 18.7808 211.115 20.0272 212.107 21H203.892C205.052 19.8643 205.78 18.361 205.953 16.7475C206.127 15.1339 205.734 13.5103 204.842 12.1543C203.951 10.7983 202.616 9.79424 201.066 9.3138C199.516 8.83336 197.847 8.90642 196.345 9.52049C194.843 10.1346 193.6 11.2515 192.831 12.6802C192.061 14.1089 191.812 15.7607 192.125 17.3529C192.439 18.9451 193.296 20.3789 194.55 21.409C195.804 22.4391 197.377 23.0015 199 23H217C218.857 23 220.637 22.2625 221.95 20.9497C223.262 19.637 224 17.8565 224 16C224 14.1435 223.262 12.363 221.95 11.0503C220.637 9.7375 218.857 9 217 9ZM199 21C198.011 21 197.044 20.7068 196.222 20.1573C195.4 19.6079 194.759 18.827 194.381 17.9134C194.002 16.9998 193.903 15.9945 194.096 15.0245C194.289 14.0546 194.765 13.1637 195.464 12.4645C196.164 11.7652 197.055 11.289 198.025 11.0961C198.994 10.9031 200 11.0022 200.913 11.3806C201.827 11.759 202.608 12.3999 203.157 13.2221C203.707 14.0444 204 15.0111 204 16C204 16.6566 203.871 17.3068 203.619 17.9134C203.368 18.52 203 19.0712 202.536 19.5355C202.071 19.9998 201.52 20.3681 200.913 20.6194C200.307 20.8707 199.657 21 199 21ZM217 21C216.011 21 215.044 20.7068 214.222 20.1573C213.4 19.6079 212.759 18.827 212.381 17.9134C212.002 16.9998 211.903 15.9945 212.096 15.0245C212.289 14.0546 212.765 13.1637 213.464 12.4645C214.164 11.7652 215.055 11.289 216.025 11.0961C216.994 10.9031 218 11.0022 218.913 11.3806C219.827 11.759 220.608 12.3999 221.157 13.2221C221.707 14.0444 222 15.0111 222 16C222 17.3261 221.473 18.5979 220.536 19.5355C219.598 20.4732 218.326 21 217 21ZM220 16C220 16.5933 219.824 17.1734 219.494 17.6667C219.165 18.1601 218.696 18.5446 218.148 18.7716C217.6 18.9987 216.997 19.0581 216.415 18.9424C215.833 18.8266 215.298 18.5409 214.879 18.1213C214.459 17.7018 214.173 17.1672 214.058 16.5853C213.942 16.0033 214.001 15.4001 214.228 14.8519C214.455 14.3038 214.84 13.8352 215.333 13.5056C215.827 13.1759 216.407 13 217 13C217.796 13 218.559 13.3161 219.121 13.8787C219.684 14.4413 220 15.2044 220 16ZM202 16C202 16.5933 201.824 17.1734 201.494 17.6667C201.165 18.1601 200.696 18.5446 200.148 18.7716C199.6 18.9987 198.997 19.0581 198.415 18.9424C197.833 18.8266 197.298 18.5409 196.879 18.1213C196.459 17.7018 196.173 17.1672 196.058 16.5853C195.942 16.0033 196.001 15.4001 196.228 14.8519C196.455 14.3038 196.84 13.8352 197.333 13.5056C197.827 13.1759 198.407 13 199 13C199.796 13 200.559 13.3161 201.121 13.8787C201.684 14.4413 202 15.2044 202 16Z" fill="currentColor"/>
<path opacity="0.2" d="M253 16C253 17.1867 252.648 18.3467 251.989 19.3334C251.33 20.3201 250.392 21.0892 249.296 21.5433C248.2 21.9974 246.993 22.1162 245.829 21.8847C244.666 21.6532 243.596 21.0818 242.757 20.2426C241.918 19.4035 241.347 18.3344 241.115 17.1705C240.884 16.0067 241.003 14.8003 241.457 13.7039C241.911 12.6075 242.68 11.6705 243.667 11.0112C244.653 10.3519 245.813 10 247 10C248.591 10 250.117 10.6321 251.243 11.7574C252.368 12.8826 253 14.4087 253 16ZM265 10C263.813 10 262.653 10.3519 261.667 11.0112C260.68 11.6705 259.911 12.6075 259.457 13.7039C259.003 14.8003 258.884 16.0067 259.115 17.1705C259.347 18.3344 259.918 19.4035 260.757 20.2426C261.596 21.0818 262.666 21.6532 263.829 21.8847C264.993 22.1162 266.2 21.9974 267.296 21.5433C268.392 21.0892 269.33 20.3201 269.989 19.3334C270.648 18.3467 271 17.1867 271 16C271 14.4087 270.368 12.8826 269.243 11.7574C268.117 10.6321 266.591 10 265 10Z" fill="currentColor"/>
<path d="M265 9C263.61 9.00129 262.252 9.41637 261.099 10.1924C259.945 10.9684 259.049 12.0701 258.525 13.3572C258 14.6444 257.87 16.0586 258.152 17.4197C258.434 18.7808 259.115 20.0272 260.107 21H251.892C253.052 19.8643 253.78 18.361 253.953 16.7475C254.127 15.1339 253.734 13.5103 252.842 12.1543C251.951 10.7983 250.616 9.79424 249.066 9.3138C247.516 8.83336 245.847 8.90642 244.345 9.52049C242.843 10.1346 241.6 11.2515 240.831 12.6802C240.061 14.1089 239.812 15.7607 240.125 17.3529C240.439 18.9451 241.296 20.3789 242.55 21.409C243.804 22.4391 245.377 23.0015 247 23H265C266.857 23 268.637 22.2625 269.95 20.9497C271.262 19.637 272 17.8565 272 16C272 14.1435 271.262 12.363 269.95 11.0503C268.637 9.7375 266.857 9 265 9ZM242 16C242 15.0111 242.293 14.0444 242.843 13.2221C243.392 12.3999 244.173 11.759 245.087 11.3806C246 11.0022 247.006 10.9031 247.975 11.0961C248.945 11.289 249.836 11.7652 250.536 12.4645C251.235 13.1637 251.711 14.0546 251.904 15.0245C252.097 15.9945 251.998 16.9998 251.619 17.9134C251.241 18.827 250.6 19.6079 249.778 20.1573C248.956 20.7068 247.989 21 247 21C245.674 21 244.402 20.4732 243.464 19.5355C242.527 18.5979 242 17.3261 242 16ZM265 21C264.011 21 263.044 20.7068 262.222 20.1573C261.4 19.6079 260.759 18.827 260.381 17.9134C260.002 16.9998 259.903 15.9945 260.096 15.0245C260.289 14.0546 260.765 13.1637 261.464 12.4645C262.164 11.7652 263.055 11.289 264.025 11.0961C264.994 10.9031 266 11.0022 266.913 11.3806C267.827 11.759 268.608 12.3999 269.157 13.2221C269.707 14.0444 270 15.0111 270 16C270 17.3261 269.473 18.5979 268.536 19.5355C267.598 20.4732 266.326 21 265 21Z" fill="currentColor"/>
</g>
<defs>
<clipPath id="clip0_17_18419">
<rect width="272" height="32" rx="5" fill="white"/>
</clipPath>
</defs>
</svg>
