<svg width="272" height="32" viewBox="0 0 272 32" fill="none" xmlns="http://www.w3.org/2000/svg">
<g clip-path="url(#clip0_17_18405)">
<path d="M16 3C13.4288 3 10.9154 3.76244 8.77759 5.1909C6.63975 6.61935 4.97351 8.64968 3.98957 11.0251C3.00563 13.4006 2.74818 16.0144 3.24979 18.5362C3.7514 21.0579 4.98953 23.3743 6.80761 25.1924C8.62569 27.0105 10.9421 28.2486 13.4638 28.7502C15.9856 29.2518 18.5994 28.9944 20.9749 28.0104C23.3503 27.0265 25.3806 25.3603 26.8091 23.2224C28.2376 21.0846 29 18.5712 29 16C28.9964 12.5533 27.6256 9.24882 25.1884 6.81163C22.7512 4.37445 19.4467 3.00364 16 3ZM5 16C5.00331 13.0836 6.1633 10.2877 8.22548 8.22548C10.2877 6.1633 13.0836 5.00331 16 5C17.3261 5 18.5979 5.52678 19.5355 6.46447C20.4732 7.40215 21 8.67392 21 10C21 11.3261 20.4732 12.5979 19.5355 13.5355C18.5979 14.4732 17.3261 15 16 15C14.819 14.9997 13.657 15.2983 12.6224 15.8678C11.5878 16.4374 10.7141 17.2595 10.0827 18.2576C9.45126 19.2557 9.08264 20.3973 9.01114 21.5762C8.93964 22.7551 9.16759 23.9329 9.67375 25C8.22979 23.9849 7.05131 22.6372 6.23784 21.0707C5.42437 19.5043 4.99981 17.7651 5 16ZM16 27C14.6739 27 13.4021 26.4732 12.4645 25.5355C11.5268 24.5979 11 23.3261 11 22C11 20.6739 11.5268 19.4021 12.4645 18.4645C13.4021 17.5268 14.6739 17 16 17C17.1802 16.9998 18.3412 16.7012 19.3751 16.1319C20.4089 15.5627 21.2821 14.7413 21.9133 13.744C22.5446 12.7468 22.9134 11.6062 22.9856 10.4282C23.0578 9.25021 22.831 8.07308 22.3263 7.00625C24.2364 8.35138 25.6687 10.2697 26.4155 12.4834C27.1624 14.697 27.1851 17.091 26.4803 19.3184C25.7756 21.5458 24.3799 23.491 22.4956 24.8721C20.6113 26.2532 18.3362 26.9985 16 27ZM17.5 22C17.5 22.2967 17.412 22.5867 17.2472 22.8334C17.0824 23.08 16.8481 23.2723 16.574 23.3858C16.2999 23.4993 15.9983 23.5291 15.7074 23.4712C15.4164 23.4133 15.1491 23.2704 14.9393 23.0607C14.7296 22.8509 14.5867 22.5836 14.5288 22.2926C14.4709 22.0017 14.5006 21.7001 14.6142 21.426C14.7277 21.1519 14.92 20.9176 15.1666 20.7528C15.4133 20.588 15.7033 20.5 16 20.5C16.3978 20.5 16.7794 20.658 17.0607 20.9393C17.342 21.2206 17.5 21.6022 17.5 22ZM14.5 10C14.5 9.70333 14.588 9.41332 14.7528 9.16665C14.9176 8.91997 15.1519 8.72771 15.426 8.61418C15.7001 8.50065 16.0017 8.47094 16.2926 8.52882C16.5836 8.5867 16.8509 8.72956 17.0607 8.93934C17.2704 9.14912 17.4133 9.41639 17.4712 9.70736C17.5291 9.99834 17.4993 10.2999 17.3858 10.574C17.2723 10.8481 17.08 11.0824 16.8334 11.2472C16.5867 11.412 16.2967 11.5 16 11.5C15.6022 11.5 15.2206 11.342 14.9393 11.0607C14.658 10.7794 14.5 10.3978 14.5 10Z" fill="currentColor"/>
<path d="M64 3.5C61.5277 3.5 59.111 4.23311 57.0554 5.60663C54.9998 6.98015 53.3976 8.93238 52.4515 11.2165C51.5054 13.5005 51.2579 16.0139 51.7402 18.4386C52.2225 20.8634 53.413 23.0907 55.1612 24.8388C56.9093 26.587 59.1366 27.7775 61.5614 28.2598C63.9861 28.7421 66.4995 28.4946 68.7835 27.5485C71.0676 26.6024 73.0198 25.0002 74.3934 22.9446C75.7669 20.889 76.5 18.4723 76.5 16C76.4964 12.6859 75.1782 9.5086 72.8348 7.16518C70.4914 4.82177 67.3141 3.50364 64 3.5ZM52.5 16C52.5033 12.951 53.716 10.0279 55.8719 7.87193C58.0279 5.71597 60.951 4.50331 64 4.5C65.4587 4.5 66.8576 5.07946 67.8891 6.11091C68.9205 7.14236 69.5 8.54131 69.5 10C69.5 11.4587 68.9205 12.8576 67.8891 13.8891C66.8576 14.9205 65.4587 15.5 64 15.5C62.7268 15.502 61.4822 15.878 60.4207 16.5811C59.3593 17.2843 58.5277 18.2837 58.0292 19.4553C57.5308 20.6269 57.3874 21.9191 57.6168 23.1714C57.8463 24.4238 58.4385 25.5812 59.32 26.5C57.2917 25.594 55.5687 24.1207 54.3586 22.2577C53.1486 20.3947 52.5031 18.2215 52.5 16ZM64 27.5C62.5413 27.5 61.1424 26.9205 60.1109 25.8891C59.0795 24.8576 58.5 23.4587 58.5 22C58.5 20.5413 59.0795 19.1424 60.1109 18.1109C61.1424 17.0795 62.5413 16.5 64 16.5C65.2732 16.498 66.5178 16.122 67.5793 15.4189C68.6407 14.7157 69.4723 13.7163 69.9708 12.5447C70.4692 11.3731 70.6126 10.0809 70.3832 8.82855C70.1537 7.57617 69.5615 6.41876 68.68 5.5C71.0837 6.57375 73.0462 8.43973 74.2398 10.7863C75.4334 13.1328 75.7857 15.8178 75.2379 18.3928C74.6901 20.9678 73.2754 23.277 71.2301 24.9345C69.1848 26.592 66.6326 27.4976 64 27.5ZM65 22C65 22.1978 64.9413 22.3911 64.8315 22.5556C64.7216 22.72 64.5654 22.8482 64.3827 22.9239C64.2 22.9996 63.9989 23.0194 63.8049 22.9808C63.6109 22.9422 63.4327 22.847 63.2929 22.7071C63.153 22.5673 63.0578 22.3891 63.0192 22.1951C62.9806 22.0011 63.0004 21.8 63.0761 21.6173C63.1518 21.4346 63.28 21.2784 63.4444 21.1685C63.6089 21.0586 63.8022 21 64 21C64.2652 21 64.5196 21.1054 64.7071 21.2929C64.8946 21.4804 65 21.7348 65 22ZM63 10C63 9.80222 63.0586 9.60888 63.1685 9.44443C63.2784 9.27998 63.4346 9.15181 63.6173 9.07612C63.8 9.00043 64.0011 8.98063 64.1951 9.01921C64.3891 9.0578 64.5673 9.15304 64.7071 9.29289C64.847 9.43275 64.9422 9.61093 64.9808 9.80491C65.0194 9.99889 64.9996 10.2 64.9239 10.3827C64.8482 10.5654 64.72 10.7216 64.5556 10.8315C64.3911 10.9414 64.1978 11 64 11C63.7348 11 63.4804 10.8946 63.2929 10.7071C63.1054 10.5196 63 10.2652 63 10Z" fill="currentColor"/>
<path d="M112 3.25C109.478 3.25 107.013 3.99777 104.916 5.39876C102.82 6.79975 101.186 8.79103 100.221 11.1208C99.2555 13.4505 99.003 16.0141 99.495 18.4874C99.9869 20.9607 101.201 23.2325 102.984 25.0156C104.768 26.7987 107.039 28.0131 109.513 28.505C111.986 28.997 114.549 28.7445 116.879 27.7795C119.209 26.8144 121.2 25.1802 122.601 23.0835C124.002 20.9868 124.75 18.5217 124.75 16C124.746 12.6197 123.401 9.379 121.011 6.98877C118.621 4.59854 115.38 3.25397 112 3.25ZM100.75 16C100.753 13.0173 101.94 10.1578 104.049 8.0487C106.158 5.93964 109.017 4.75331 112 4.75C113.392 4.75 114.728 5.30312 115.712 6.28769C116.697 7.27225 117.25 8.60761 117.25 10C117.25 11.3924 116.697 12.7277 115.712 13.7123C114.728 14.6969 113.392 15.25 112 15.25C110.778 15.2505 109.579 15.5827 108.531 16.2113C107.483 16.8399 106.625 17.7412 106.049 18.8191C105.473 19.897 105.201 21.1111 105.261 22.3317C105.321 23.5524 105.711 24.7338 106.39 25.75C104.676 24.7633 103.253 23.3427 102.263 21.6311C101.273 19.9195 100.751 17.9773 100.75 16ZM112 27.25C110.608 27.25 109.272 26.6969 108.288 25.7123C107.303 24.7277 106.75 23.3924 106.75 22C106.75 20.6076 107.303 19.2723 108.288 18.2877C109.272 17.3031 110.608 16.75 112 16.75C113.222 16.7495 114.421 16.4173 115.469 15.7887C116.517 15.1601 117.375 14.2588 117.951 13.1809C118.527 12.103 118.799 10.8889 118.739 9.66826C118.679 8.44761 118.289 7.26617 117.61 6.25C119.757 7.48601 121.436 9.39625 122.387 11.6842C123.337 13.9722 123.506 16.5099 122.866 18.9035C122.227 21.2971 120.815 23.4127 118.85 24.9219C116.886 26.4311 114.478 27.2495 112 27.25ZM110.75 10C110.75 9.75277 110.823 9.5111 110.961 9.30554C111.098 9.09998 111.293 8.93976 111.522 8.84515C111.75 8.75054 112.001 8.72579 112.244 8.77402C112.486 8.82225 112.709 8.9413 112.884 9.11612C113.059 9.29093 113.178 9.51366 113.226 9.75614C113.274 9.99861 113.249 10.2499 113.155 10.4784C113.06 10.7068 112.9 10.902 112.694 11.0393C112.489 11.1767 112.247 11.25 112 11.25C111.668 11.25 111.351 11.1183 111.116 10.8839C110.882 10.6495 110.75 10.3315 110.75 10Z" fill="currentColor"/>
<path d="M113.25 22C113.25 22.6904 112.69 23.25 112 23.25C111.31 23.25 110.75 22.6904 110.75 22C110.75 21.3096 111.31 20.75 112 20.75C112.69 20.75 113.25 21.3096 113.25 22Z" fill="currentColor"/>
<path d="M160 2.5C157.33 2.5 154.72 3.29176 152.5 4.77516C150.28 6.25856 148.549 8.36697 147.528 10.8338C146.506 13.3006 146.239 16.015 146.759 18.6337C147.28 21.2525 148.566 23.6579 150.454 25.5459C152.342 27.434 154.748 28.7197 157.366 29.2406C159.985 29.7615 162.699 29.4942 165.166 28.4724C167.633 27.4506 169.741 25.7203 171.225 23.5002C172.708 21.2801 173.5 18.67 173.5 16C173.496 12.4208 172.072 8.98932 169.542 6.45844C167.011 3.92756 163.579 2.50397 160 2.5ZM149.5 16C149.503 13.2161 150.61 10.5472 152.579 8.57867C154.547 6.61018 157.216 5.50298 160 5.5C161.193 5.5 162.338 5.97411 163.182 6.81802C164.026 7.66193 164.5 8.80653 164.5 10C164.5 11.1935 164.026 12.3381 163.182 13.182C162.338 14.0259 161.193 14.5 160 14.5C158.889 14.5 157.792 14.7468 156.788 15.2227C155.784 15.6985 154.898 16.3915 154.194 17.2516C153.491 18.1116 152.987 19.1172 152.72 20.1956C152.453 21.2741 152.428 22.3985 152.649 23.4875C151.651 22.5123 150.859 21.3475 150.318 20.0617C149.778 18.7758 149.499 17.3949 149.5 16ZM160 26.5C158.807 26.5 157.662 26.0259 156.818 25.182C155.974 24.3381 155.5 23.1935 155.5 22C155.5 20.8065 155.974 19.6619 156.818 18.818C157.662 17.9741 158.807 17.5 160 17.5C161.111 17.5 162.208 17.2532 163.212 16.7773C164.216 16.3015 165.102 15.6085 165.806 14.7484C166.509 13.8884 167.013 12.8828 167.28 11.8044C167.547 10.7259 167.572 9.60152 167.351 8.5125C168.841 9.97169 169.862 11.8416 170.284 13.8835C170.706 15.9254 170.51 18.0468 169.721 19.9769C168.932 21.9071 167.586 23.5584 165.855 24.7202C164.123 25.8821 162.085 26.5017 160 26.5ZM162 22C162 22.3956 161.883 22.7822 161.663 23.1111C161.443 23.44 161.131 23.6964 160.765 23.8478C160.4 23.9991 159.998 24.0387 159.61 23.9616C159.222 23.8844 158.865 23.6939 158.586 23.4142C158.306 23.1345 158.116 22.7781 158.038 22.3902C157.961 22.0022 158.001 21.6001 158.152 21.2346C158.304 20.8692 158.56 20.5568 158.889 20.3371C159.218 20.1173 159.604 20 160 20C160.53 20 161.039 20.2107 161.414 20.5858C161.789 20.9609 162 21.4696 162 22ZM158 10C158 9.60444 158.117 9.21776 158.337 8.88886C158.557 8.55996 158.869 8.30362 159.235 8.15224C159.6 8.00087 160.002 7.96126 160.39 8.03843C160.778 8.1156 161.135 8.30608 161.414 8.58579C161.694 8.86549 161.884 9.22186 161.962 9.60982C162.039 9.99778 161.999 10.3999 161.848 10.7654C161.696 11.1308 161.44 11.4432 161.111 11.6629C160.782 11.8827 160.396 12 160 12C159.47 12 158.961 11.7893 158.586 11.4142C158.211 11.0391 158 10.5304 158 10Z" fill="currentColor"/>
<path d="M209.5 10C209.5 10.2967 209.412 10.5867 209.247 10.8334C209.082 11.08 208.848 11.2723 208.574 11.3858C208.3 11.4994 207.998 11.5291 207.707 11.4712C207.416 11.4133 207.149 11.2704 206.939 11.0607C206.73 10.8509 206.587 10.5836 206.529 10.2926C206.471 10.0017 206.501 9.70006 206.614 9.42597C206.728 9.15189 206.92 8.91762 207.167 8.7528C207.413 8.58797 207.703 8.5 208 8.5C208.398 8.5 208.779 8.65804 209.061 8.93934C209.342 9.22064 209.5 9.60218 209.5 10ZM221 16C221 18.5712 220.238 21.0846 218.809 23.2224C217.381 25.3603 215.35 27.0265 212.975 28.0104C210.599 28.9944 207.986 29.2518 205.464 28.7502C202.942 28.2486 200.626 27.0105 198.808 25.1924C196.99 23.3743 195.751 21.0579 195.25 18.5362C194.748 16.0144 195.006 13.4006 195.99 11.0251C196.974 8.64968 198.64 6.61935 200.778 5.1909C202.915 3.76244 205.429 3 208 3C211.447 3.00364 214.751 4.37445 217.188 6.81163C219.626 9.24882 220.996 12.5533 221 16ZM209.5 22C209.5 21.7033 209.412 21.4133 209.247 21.1666C209.082 20.92 208.848 20.7277 208.574 20.6142C208.3 20.5007 207.998 20.4709 207.707 20.5288C207.416 20.5867 207.149 20.7296 206.939 20.9393C206.73 21.1491 206.587 21.4164 206.529 21.7074C206.471 21.9983 206.501 22.2999 206.614 22.574C206.728 22.8481 206.92 23.0824 207.167 23.2472C207.413 23.412 207.703 23.5 208 23.5C208.398 23.5 208.779 23.342 209.061 23.0607C209.342 22.7794 209.5 22.3978 209.5 22ZM213.5 10.5C213.498 9.04182 212.918 7.64383 211.887 6.61274C210.856 5.58165 209.458 5.00165 208 5C205.616 5.00148 203.297 5.77732 201.393 7.21072C199.488 8.64412 198.1 10.6575 197.439 12.9477C196.777 15.238 196.878 17.6811 197.725 19.9093C198.572 22.1376 200.12 24.0303 202.136 25.3025C201.663 24.3118 201.448 23.2172 201.512 22.1211C201.576 21.0249 201.917 19.9628 202.502 19.0339C203.088 18.105 203.899 17.3396 204.861 16.8091C205.822 16.2785 206.902 16.0002 208 16C209.458 15.9983 210.856 15.4184 211.887 14.3873C212.918 13.3562 213.498 11.9582 213.5 10.5Z" fill="currentColor"/>
<path opacity="0.2" d="M268 16C268 19.1826 266.736 22.2348 264.485 24.4853C262.235 26.7357 259.183 28 256 28C254.409 28 252.883 27.3679 251.757 26.2426C250.632 25.1174 250 23.5913 250 22C250 20.4087 250.632 18.8826 251.757 17.7574C252.883 16.6321 254.409 16 256 16C257.591 16 259.117 15.3679 260.243 14.2426C261.368 13.1174 262 11.5913 262 10C262 8.4087 261.368 6.88258 260.243 5.75736C259.117 4.63214 257.591 4 256 4C259.183 4 262.235 5.26428 264.485 7.51472C266.736 9.76515 268 12.8174 268 16Z" fill="currentColor"/>
<path d="M256 3C253.429 3 250.915 3.76244 248.778 5.1909C246.64 6.61935 244.974 8.64968 243.99 11.0251C243.006 13.4006 242.748 16.0144 243.25 18.5362C243.751 21.0579 244.99 23.3743 246.808 25.1924C248.626 27.0105 250.942 28.2486 253.464 28.7502C255.986 29.2518 258.599 28.9944 260.975 28.0104C263.35 27.0265 265.381 25.3603 266.809 23.2224C268.238 21.0846 269 18.5712 269 16C268.996 12.5533 267.626 9.24882 265.188 6.81163C262.751 4.37445 259.447 3.00364 256 3ZM245 16C245.003 13.0836 246.163 10.2877 248.225 8.22548C250.288 6.1633 253.084 5.00331 256 5C257.326 5 258.598 5.52678 259.536 6.46447C260.473 7.40215 261 8.67392 261 10C261 11.3261 260.473 12.5979 259.536 13.5355C258.598 14.4732 257.326 15 256 15C254.819 14.9997 253.657 15.2983 252.622 15.8678C251.588 16.4374 250.714 17.2595 250.083 18.2576C249.451 19.2557 249.083 20.3973 249.011 21.5762C248.94 22.7551 249.168 23.9329 249.674 25C248.23 23.9849 247.051 22.6372 246.238 21.0707C245.424 19.5043 245 17.7651 245 16ZM256 27C254.674 27 253.402 26.4732 252.464 25.5355C251.527 24.5979 251 23.3261 251 22C251 20.6739 251.527 19.4021 252.464 18.4645C253.402 17.5268 254.674 17 256 17C257.18 16.9998 258.341 16.7012 259.375 16.1319C260.409 15.5627 261.282 14.7413 261.913 13.744C262.545 12.7468 262.913 11.6062 262.986 10.4282C263.058 9.25021 262.831 8.07308 262.326 7.00625C264.236 8.35138 265.669 10.2697 266.416 12.4834C267.162 14.697 267.185 17.091 266.48 19.3184C265.776 21.5458 264.38 23.491 262.496 24.8721C260.611 26.2532 258.336 26.9985 256 27ZM257.5 22C257.5 22.2967 257.412 22.5867 257.247 22.8334C257.082 23.08 256.848 23.2723 256.574 23.3858C256.3 23.4993 255.998 23.5291 255.707 23.4712C255.416 23.4133 255.149 23.2704 254.939 23.0607C254.73 22.8509 254.587 22.5836 254.529 22.2926C254.471 22.0017 254.501 21.7001 254.614 21.426C254.728 21.1519 254.92 20.9176 255.167 20.7528C255.413 20.588 255.703 20.5 256 20.5C256.398 20.5 256.779 20.658 257.061 20.9393C257.342 21.2206 257.5 21.6022 257.5 22ZM254.5 10C254.5 9.70333 254.588 9.41332 254.753 9.16665C254.918 8.91997 255.152 8.72771 255.426 8.61418C255.7 8.50065 256.002 8.47094 256.293 8.52882C256.584 8.5867 256.851 8.72956 257.061 8.93934C257.27 9.14912 257.413 9.41639 257.471 9.70736C257.529 9.99834 257.499 10.2999 257.386 10.574C257.272 10.8481 257.08 11.0824 256.833 11.2472C256.587 11.412 256.297 11.5 256 11.5C255.602 11.5 255.221 11.342 254.939 11.0607C254.658 10.7794 254.5 10.3978 254.5 10Z" fill="currentColor"/>
</g>
<defs>
<clipPath id="clip0_17_18405">
<rect width="272" height="32" rx="5" fill="white"/>
</clipPath>
</defs>
</svg>
