<svg width="272" height="32" viewBox="0 0 272 32" fill="none" xmlns="http://www.w3.org/2000/svg">
<g clip-path="url(#clip0_17_8817)">
<path d="M26.9999 11.1V9C26.9999 7.67392 26.4731 6.40215 25.5354 5.46447C24.5977 4.52678 23.326 4 21.9999 4H9.99989C8.6738 4 7.40203 4.52678 6.46435 5.46447C5.52667 6.40215 4.99989 7.67392 4.99989 9V11.1C3.8696 11.3295 2.85341 11.9427 2.12351 12.8357C1.3936 13.7288 0.994873 14.8466 0.994873 16C0.994873 17.1534 1.3936 18.2712 2.12351 19.1643C2.85341 20.0573 3.8696 20.6705 4.99989 20.9V25C4.99989 25.5304 5.2106 26.0391 5.58567 26.4142C5.96074 26.7893 6.46945 27 6.99989 27H24.9999C25.5303 27 26.039 26.7893 26.4141 26.4142C26.7892 26.0391 26.9999 25.5304 26.9999 25V20.9C28.1302 20.6705 29.1464 20.0573 29.8763 19.1643C30.6062 18.2712 31.0049 17.1534 31.0049 16C31.0049 14.8466 30.6062 13.7288 29.8763 12.8357C29.1464 11.9427 28.1302 11.3295 26.9999 11.1ZM9.99989 6H21.9999C22.7955 6 23.5586 6.31607 24.1212 6.87868C24.6838 7.44129 24.9999 8.20435 24.9999 9V11.1C23.8713 11.3321 22.8572 11.9461 22.1285 12.8387C21.3999 13.7313 21.0013 14.8478 20.9999 16H10.9999C10.9985 14.8478 10.5999 13.7313 9.87122 12.8387C9.14259 11.9461 8.12849 11.3321 6.99989 11.1V9C6.99989 8.20435 7.31596 7.44129 7.87857 6.87868C8.44117 6.31607 9.20424 6 9.99989 6ZM26.0486 19H25.9999C25.7347 19 25.4803 19.1054 25.2928 19.2929C25.1052 19.4804 24.9999 19.7348 24.9999 20V25H6.99989V20C6.99989 19.7348 6.89453 19.4804 6.70699 19.2929C6.51946 19.1054 6.2651 19 5.99989 19H5.95114C5.35996 18.9904 4.78481 18.8063 4.29792 18.4709C3.81102 18.1355 3.4341 17.6636 3.2145 17.1147C2.99489 16.5657 2.94239 15.9641 3.0636 15.3854C3.1848 14.8067 3.4743 14.2767 3.89573 13.862C4.31716 13.4474 4.85174 13.1664 5.43231 13.0546C6.01289 12.9427 6.61357 13.0049 7.15891 13.2333C7.70426 13.4618 8.16994 13.8462 8.49748 14.3385C8.82502 14.8307 8.99981 15.4087 8.99989 16V21C8.99989 21.2652 9.10524 21.5196 9.29278 21.7071C9.48032 21.8946 9.73467 22 9.99989 22C10.2651 22 10.5195 21.8946 10.707 21.7071C10.8945 21.5196 10.9999 21.2652 10.9999 21V18H20.9999V21C20.9999 21.2652 21.1052 21.5196 21.2928 21.7071C21.4803 21.8946 21.7347 22 21.9999 22C22.2651 22 22.5195 21.8946 22.707 21.7071C22.8945 21.5196 22.9999 21.2652 22.9999 21V16C23 15.4087 23.1747 14.8307 23.5023 14.3385C23.8298 13.8462 24.2955 13.4618 24.8409 13.2333C25.3862 13.0049 25.9869 12.9427 26.5675 13.0546C27.148 13.1664 27.6826 13.4474 28.104 13.862C28.5255 14.2767 28.815 14.8067 28.9362 15.3854C29.0574 15.9641 29.0049 16.5657 28.7853 17.1147C28.5657 17.6636 28.1887 18.1355 27.7019 18.4709C27.215 18.8063 26.6398 18.9904 26.0486 19Z" fill="currentColor"/>
<path d="M74.5001 11.5288V9C74.5001 7.80653 74.026 6.66193 73.1821 5.81802C72.3382 4.97411 71.1936 4.5 70.0001 4.5H58.0001C56.8066 4.5 55.662 4.97411 54.8181 5.81802C53.9742 6.66193 53.5001 7.80653 53.5001 9V11.5288C52.4005 11.6523 51.385 12.1766 50.6476 13.0015C49.9101 13.8264 49.5024 14.8941 49.5024 16.0006C49.5024 17.1071 49.9101 18.1748 50.6476 18.9998C51.385 19.8247 52.4005 20.349 53.5001 20.4725V25C53.5001 25.3978 53.6581 25.7794 53.9395 26.0607C54.2208 26.342 54.6023 26.5 55.0001 26.5H73.0001C73.3979 26.5 73.7795 26.342 74.0608 26.0607C74.3421 25.7794 74.5001 25.3978 74.5001 25V20.4725C75.5997 20.349 76.6152 19.8247 77.3527 18.9998C78.0901 18.1748 78.4978 17.1071 78.4978 16.0006C78.4978 14.8941 78.0901 13.8264 77.3527 13.0015C76.6152 12.1766 75.5997 11.6523 74.5001 11.5288ZM58.0001 5.5H70.0001C70.9284 5.5 71.8186 5.86875 72.475 6.52513C73.1314 7.1815 73.5001 8.07174 73.5001 9V11.5288C72.4002 11.6517 71.3842 12.1757 70.6463 13.0006C69.9084 13.8254 69.5003 14.8933 69.5001 16V16.5H58.5001V16C58.4999 14.8933 58.0918 13.8254 57.3539 13.0006C56.616 12.1757 55.6 11.6517 54.5001 11.5288V9C54.5001 8.07174 54.8689 7.1815 55.5252 6.52513C56.1816 5.86875 57.0719 5.5 58.0001 5.5ZM74.0376 19.5H74.0001C73.8675 19.5 73.7403 19.5527 73.6466 19.6464C73.5528 19.7402 73.5001 19.8674 73.5001 20V25C73.5001 25.1326 73.4474 25.2598 73.3537 25.3536C73.2599 25.4473 73.1327 25.5 73.0001 25.5H55.0001C54.8675 25.5 54.7403 25.4473 54.6466 25.3536C54.5528 25.2598 54.5001 25.1326 54.5001 25V20C54.5001 19.8674 54.4474 19.7402 54.3537 19.6464C54.2599 19.5527 54.1327 19.5 54.0001 19.5H53.9626C53.272 19.4926 52.5991 19.2811 52.0284 18.892C51.4578 18.5029 51.0151 17.9538 50.7559 17.3136C50.4967 16.6735 50.4327 15.9709 50.572 15.2945C50.7113 14.618 51.0475 13.9979 51.5385 13.5122C52.0294 13.0264 52.6531 12.6968 53.331 12.5648C54.0089 12.4327 54.7107 12.5042 55.348 12.7702C55.9854 13.0361 56.5298 13.4847 56.9128 14.0595C57.2957 14.6342 57.5001 15.3094 57.5001 16V21C57.5001 21.1326 57.5528 21.2598 57.6466 21.3536C57.7403 21.4473 57.8675 21.5 58.0001 21.5C58.1327 21.5 58.2599 21.4473 58.3537 21.3536C58.4474 21.2598 58.5001 21.1326 58.5001 21V17.5H69.5001V21C69.5001 21.1326 69.5528 21.2598 69.6466 21.3536C69.7403 21.4473 69.8675 21.5 70.0001 21.5C70.1327 21.5 70.2599 21.4473 70.3537 21.3536C70.4474 21.2598 70.5001 21.1326 70.5001 21V16C70.5002 15.3094 70.7045 14.6342 71.0875 14.0595C71.4704 13.4847 72.0148 13.0361 72.6522 12.7702C73.2896 12.5042 73.9914 12.4327 74.6693 12.5648C75.3471 12.6968 75.9708 13.0264 76.4618 13.5122C76.9527 13.9979 77.289 14.618 77.4282 15.2945C77.5675 15.9709 77.5035 16.6735 77.2443 17.3136C76.9852 17.9538 76.5424 18.5029 75.9718 18.892C75.4012 19.2811 74.7282 19.4926 74.0376 19.5Z" fill="currentColor"/>
<path d="M122.75 11.31V9C122.75 7.74022 122.25 6.53204 121.359 5.64124C120.468 4.75045 119.26 4.25 118 4.25H106C104.74 4.25 103.532 4.75045 102.641 5.64124C101.751 6.53204 101.25 7.74022 101.25 9V11.31C100.134 11.4881 99.1184 12.0582 98.385 12.9179C97.6516 13.7776 97.2488 14.8706 97.2488 16.0006C97.2488 17.1306 97.6516 18.2236 98.385 19.0833C99.1184 19.943 100.134 20.5131 101.25 20.6912V25C101.25 25.4641 101.434 25.9092 101.763 26.2374C102.091 26.5656 102.536 26.75 103 26.75H121C121.464 26.75 121.909 26.5656 122.238 26.2374C122.566 25.9092 122.75 25.4641 122.75 25V20.6912C123.862 20.5091 124.873 19.9377 125.602 19.079C126.332 18.2204 126.732 17.1304 126.732 16.0037C126.732 14.8771 126.332 13.7871 125.602 12.9285C124.873 12.0698 123.862 11.4984 122.75 11.3162V11.31ZM106 5.75H118C118.862 5.75 119.689 6.09241 120.298 6.7019C120.908 7.3114 121.25 8.13805 121.25 9V11.31C120.135 11.4896 119.12 12.06 118.388 12.9193C117.655 13.7786 117.251 14.8706 117.25 16V16.25H106.75V16C106.749 14.8706 106.346 13.7786 105.613 12.9193C104.88 12.06 103.865 11.4896 102.75 11.31V9C102.75 8.13805 103.092 7.3114 103.702 6.7019C104.311 6.09241 105.138 5.75 106 5.75ZM122.044 19.25H122C121.801 19.25 121.61 19.329 121.47 19.4697C121.329 19.6103 121.25 19.8011 121.25 20V25C121.25 25.0663 121.224 25.1299 121.177 25.1768C121.13 25.2237 121.066 25.25 121 25.25H103C102.934 25.25 102.87 25.2237 102.823 25.1768C102.776 25.1299 102.75 25.0663 102.75 25V20C102.75 19.8011 102.671 19.6103 102.53 19.4697C102.39 19.329 102.199 19.25 102 19.25H101.956C101.315 19.2414 100.691 19.0435 100.163 18.6811C99.6341 18.3188 99.2244 17.8083 98.9851 17.2137C98.7458 16.6191 98.6877 15.9671 98.818 15.3396C98.9483 14.712 99.2612 14.137 99.7174 13.6869C100.174 13.2367 100.753 12.9315 101.382 12.8096C102.011 12.6877 102.662 12.7546 103.254 13.0018C103.845 13.249 104.35 13.6656 104.705 14.199C105.06 14.7325 105.25 15.3591 105.25 16V21C105.25 21.1989 105.329 21.3897 105.47 21.5303C105.61 21.671 105.801 21.75 106 21.75C106.199 21.75 106.39 21.671 106.53 21.5303C106.671 21.3897 106.75 21.1989 106.75 21V17.75H117.25V21C117.25 21.1989 117.329 21.3897 117.47 21.5303C117.61 21.671 117.801 21.75 118 21.75C118.199 21.75 118.39 21.671 118.53 21.5303C118.671 21.3897 118.75 21.1989 118.75 21V16C118.75 15.3591 118.94 14.7325 119.295 14.199C119.65 13.6656 120.155 13.249 120.746 13.0018C121.338 12.7546 121.989 12.6877 122.618 12.8096C123.247 12.9315 123.827 13.2367 124.283 13.6869C124.739 14.137 125.052 14.712 125.182 15.3396C125.313 15.9671 125.254 16.6191 125.015 17.2137C124.776 17.8083 124.366 18.3188 123.837 18.6811C123.309 19.0435 122.685 19.2414 122.044 19.25Z" fill="currentColor"/>
<path d="M171.5 9.81625V9C171.498 7.54182 170.918 6.14383 169.887 5.11274C168.856 4.08165 167.458 3.50165 166 3.5H154C152.542 3.50165 151.144 4.08165 150.113 5.11274C149.082 6.14383 148.502 7.54182 148.5 9V9.81625C147.19 10.2377 146.048 11.0638 145.238 12.1757C144.428 13.2876 143.991 14.628 143.991 16.0037C143.991 17.3795 144.428 18.7199 145.238 19.8318C146.048 20.9437 147.19 21.7698 148.5 22.1912V25C148.5 25.663 148.763 26.2989 149.232 26.7678C149.701 27.2366 150.337 27.5 151 27.5H169C169.663 27.5 170.299 27.2366 170.768 26.7678C171.237 26.2989 171.5 25.663 171.5 25V22.1887C172.81 21.7673 173.952 20.9412 174.762 19.8293C175.572 18.7174 176.009 17.377 176.009 16.0012C176.009 14.6255 175.572 13.2851 174.762 12.1732C173.952 11.0613 172.81 10.2352 171.5 9.81375V9.81625ZM154 6.5H166C166.663 6.5 167.299 6.76339 167.768 7.23223C168.237 7.70107 168.5 8.33696 168.5 9V9.5775C167.054 9.80513 165.727 10.5134 164.733 11.5879C163.739 12.6625 163.136 14.0407 163.021 15.5H156.979C156.864 14.0407 156.261 12.6625 155.267 11.5879C154.273 10.5134 152.946 9.80513 151.5 9.5775V9C151.5 8.33696 151.763 7.70107 152.232 7.23223C152.701 6.76339 153.337 6.5 154 6.5ZM169.851 19.4825C169.481 19.5194 169.138 19.6926 168.888 19.9684C168.638 20.2442 168.5 20.6029 168.5 20.975V24.5H151.5V20.975C151.5 20.6029 151.362 20.2442 151.112 19.9684C150.862 19.6926 150.519 19.5194 150.149 19.4825C149.475 19.4145 148.835 19.1525 148.307 18.7283C147.78 18.304 147.386 17.7357 147.175 17.0922C146.963 16.4488 146.943 15.7579 147.117 15.1032C147.29 14.4486 147.65 13.8584 148.153 13.4041C148.655 12.9499 149.278 12.6512 149.947 12.5441C150.616 12.4371 151.301 12.5264 151.92 12.8012C152.539 13.076 153.065 13.5245 153.434 14.0923C153.803 14.6601 154 15.3227 154 16V20.5C154 20.8978 154.158 21.2794 154.439 21.5607C154.721 21.842 155.102 22 155.5 22C155.898 22 156.279 21.842 156.561 21.5607C156.842 21.2794 157 20.8978 157 20.5V18.5H163V20.5C163 20.8978 163.158 21.2794 163.439 21.5607C163.721 21.842 164.102 22 164.5 22C164.898 22 165.279 21.842 165.561 21.5607C165.842 21.2794 166 20.8978 166 20.5V16C166 15.3227 166.197 14.6601 166.566 14.0923C166.935 13.5245 167.461 13.076 168.08 12.8012C168.699 12.5264 169.384 12.4371 170.053 12.5441C170.722 12.6512 171.345 12.9499 171.847 13.4041C172.35 13.8584 172.71 14.4486 172.883 15.1032C173.057 15.7579 173.037 16.4488 172.825 17.0922C172.614 17.7357 172.221 18.304 171.693 18.7283C171.165 19.1525 170.525 19.4145 169.851 19.4825Z" fill="currentColor"/>
<path d="M197 10.5138V9C197 7.67392 197.527 6.40215 198.464 5.46447C199.402 4.52678 200.674 4 202 4H214C215.326 4 216.598 4.52678 217.536 5.46447C218.473 6.40215 219 7.67392 219 9V10.5138C219 10.5786 218.986 10.6428 218.961 10.7024C218.935 10.7621 218.898 10.8161 218.852 10.8614C218.805 10.9066 218.75 10.9422 218.69 10.966C218.629 10.9898 218.565 11.0013 218.5 11C217.215 11.0019 215.972 11.4527 214.984 12.2744C213.997 13.0961 213.328 14.2371 213.093 15.5H202.908C202.672 14.2371 202.003 13.0961 201.016 12.2744C200.028 11.4527 198.785 11.0019 197.5 11C197.435 11.0013 197.371 10.9898 197.31 10.966C197.25 10.9422 197.195 10.9066 197.148 10.8614C197.102 10.8161 197.065 10.7621 197.039 10.7024C197.014 10.6428 197 10.5786 197 10.5138ZM218.5 13C217.572 13 216.682 13.3687 216.025 14.0251C215.369 14.6815 215 15.5717 215 16.5V21C215 21.2652 214.895 21.5196 214.707 21.7071C214.52 21.8946 214.265 22 214 22C213.735 22 213.48 21.8946 213.293 21.7071C213.105 21.5196 213 21.2652 213 21V17.5H203V21C203 21.2652 202.895 21.5196 202.707 21.7071C202.52 21.8946 202.265 22 202 22C201.735 22 201.48 21.8946 201.293 21.7071C201.105 21.5196 201 21.2652 201 21V16.5C201 15.8291 200.807 15.1723 200.445 14.6079C200.082 14.0434 199.565 13.5951 198.955 13.3162C198.344 13.0374 197.667 12.9398 197.003 13.0351C196.339 13.1304 195.716 13.4146 195.209 13.8538C194.702 14.293 194.331 14.8687 194.142 15.5123C193.953 16.156 193.953 16.8404 194.141 17.4842C194.33 18.1281 194.7 18.7041 195.207 19.1436C195.714 19.5832 196.336 19.8679 197 19.9638V25C197 25.5304 197.211 26.0391 197.586 26.4142C197.961 26.7893 198.47 27 199 27H217C217.53 27 218.039 26.7893 218.414 26.4142C218.789 26.0391 219 25.5304 219 25V19.9638C219.875 19.8368 220.67 19.3832 221.224 18.6941C221.779 18.005 222.052 17.1315 221.989 16.2493C221.925 15.3672 221.53 14.5417 220.883 13.9389C220.236 13.3361 219.384 13.0006 218.5 13Z" fill="currentColor"/>
<path opacity="0.2" d="M270 16C270 17.0609 269.579 18.0783 268.828 18.8284C268.078 19.5786 267.061 20 266 20V25C266 25.2652 265.895 25.5196 265.707 25.7071C265.52 25.8946 265.265 26 265 26H247C246.735 26 246.48 25.8946 246.293 25.7071C246.105 25.5196 246 25.2652 246 25V20C244.939 20 243.922 19.5786 243.172 18.8284C242.421 18.0783 242 17.0609 242 16C242 14.9391 242.421 13.9217 243.172 13.1716C243.922 12.4214 244.939 12 246 12V9C246 7.93913 246.421 6.92172 247.172 6.17157C247.922 5.42143 248.939 5 250 5H262C263.061 5 264.078 5.42143 264.828 6.17157C265.579 6.92172 266 7.93913 266 9V12C267.061 12 268.078 12.4214 268.828 13.1716C269.579 13.9217 270 14.9391 270 16Z" fill="currentColor"/>
<path d="M267 11.1V9C267 7.67392 266.473 6.40215 265.535 5.46447C264.598 4.52678 263.326 4 262 4H250C248.674 4 247.402 4.52678 246.464 5.46447C245.527 6.40215 245 7.67392 245 9V11.1C243.87 11.3295 242.853 11.9427 242.124 12.8357C241.394 13.7288 240.995 14.8466 240.995 16C240.995 17.1534 241.394 18.2712 242.124 19.1643C242.853 20.0573 243.87 20.6705 245 20.9V25C245 25.5304 245.211 26.0391 245.586 26.4142C245.961 26.7893 246.469 27 247 27H265C265.53 27 266.039 26.7893 266.414 26.4142C266.789 26.0391 267 25.5304 267 25V20.9C268.13 20.6705 269.146 20.0573 269.876 19.1643C270.606 18.2712 271.005 17.1534 271.005 16C271.005 14.8466 270.606 13.7288 269.876 12.8357C269.146 11.9427 268.13 11.3295 267 11.1ZM250 6H262C262.796 6 263.559 6.31607 264.121 6.87868C264.684 7.44129 265 8.20435 265 9V11.1C263.871 11.3321 262.857 11.9461 262.129 12.8387C261.4 13.7313 261.001 14.8478 261 16H251C250.998 14.8478 250.6 13.7313 249.871 12.8387C249.143 11.9461 248.128 11.3321 247 11.1V9C247 8.20435 247.316 7.44129 247.879 6.87868C248.441 6.31607 249.204 6 250 6ZM266.049 19H266C265.735 19 265.48 19.1054 265.293 19.2929C265.105 19.4804 265 19.7348 265 20V25H247V20C247 19.7348 246.895 19.4804 246.707 19.2929C246.519 19.1054 246.265 19 246 19H245.951C245.36 18.9904 244.785 18.8063 244.298 18.4709C243.811 18.1355 243.434 17.6636 243.214 17.1147C242.995 16.5657 242.942 15.9641 243.064 15.3854C243.185 14.8067 243.474 14.2767 243.896 13.862C244.317 13.4474 244.852 13.1664 245.432 13.0546C246.013 12.9427 246.614 13.0049 247.159 13.2333C247.704 13.4618 248.17 13.8462 248.497 14.3385C248.825 14.8307 249 15.4087 249 16V21C249 21.2652 249.105 21.5196 249.293 21.7071C249.48 21.8946 249.735 22 250 22C250.265 22 250.519 21.8946 250.707 21.7071C250.895 21.5196 251 21.2652 251 21V18H261V21C261 21.2652 261.105 21.5196 261.293 21.7071C261.48 21.8946 261.735 22 262 22C262.265 22 262.519 21.8946 262.707 21.7071C262.895 21.5196 263 21.2652 263 21V16C263 15.4087 263.175 14.8307 263.502 14.3385C263.83 13.8462 264.296 13.4618 264.841 13.2333C265.386 13.0049 265.987 12.9427 266.567 13.0546C267.148 13.1664 267.683 13.4474 268.104 13.862C268.525 14.2767 268.815 14.8067 268.936 15.3854C269.057 15.9641 269.005 16.5657 268.785 17.1147C268.566 17.6636 268.189 18.1355 267.702 18.4709C267.215 18.8063 266.64 18.9904 266.049 19Z" fill="currentColor"/>
</g>
<defs>
<clipPath id="clip0_17_8817">
<rect width="272" height="32" rx="5" fill="white"/>
</clipPath>
</defs>
</svg>
