<svg width="272" height="32" viewBox="0 0 272 32" fill="none" xmlns="http://www.w3.org/2000/svg">
<g clip-path="url(#clip0_17_8803)">
<path d="M21 5.0725V4C21 3.20435 20.6839 2.44129 20.1213 1.87868C19.5587 1.31607 18.7956 1 18 1H14C13.2044 1 12.4413 1.31607 11.8787 1.87868C11.3161 2.44129 11 3.20435 11 4V5.0725C9.3351 5.31517 7.81298 6.14844 6.71147 7.42023C5.60995 8.69202 5.00251 10.3175 5 12V27C5 27.5304 5.21071 28.0391 5.58579 28.4142C5.96086 28.7893 6.46957 29 7 29H25C25.5304 29 26.0391 28.7893 26.4142 28.4142C26.7893 28.0391 27 27.5304 27 27V12C26.9975 10.3175 26.39 8.69202 25.2885 7.42023C24.187 6.14844 22.6649 5.31517 21 5.0725ZM14 3H18C18.2652 3 18.5196 3.10536 18.7071 3.29289C18.8946 3.48043 19 3.73478 19 4V5H13V4C13 3.73478 13.1054 3.48043 13.2929 3.29289C13.4804 3.10536 13.7348 3 14 3ZM21 20H11V19C11 18.7348 11.1054 18.4804 11.2929 18.2929C11.4804 18.1054 11.7348 18 12 18H20C20.2652 18 20.5196 18.1054 20.7071 18.2929C20.8946 18.4804 21 18.7348 21 19V20ZM11 22H17V23C17 23.2652 17.1054 23.5196 17.2929 23.7071C17.4804 23.8946 17.7348 24 18 24C18.2652 24 18.5196 23.8946 18.7071 23.7071C18.8946 23.5196 19 23.2652 19 23V22H21V27H11V22ZM25 27H23V19C23 18.2044 22.6839 17.4413 22.1213 16.8787C21.5587 16.3161 20.7956 16 20 16H12C11.2044 16 10.4413 16.3161 9.87868 16.8787C9.31607 17.4413 9 18.2044 9 19V27H7V12C7 10.6739 7.52678 9.40215 8.46447 8.46447C9.40215 7.52678 10.6739 7 12 7H20C21.3261 7 22.5979 7.52678 23.5355 8.46447C24.4732 9.40215 25 10.6739 25 12V27ZM19 11C19 11.2652 18.8946 11.5196 18.7071 11.7071C18.5196 11.8946 18.2652 12 18 12H14C13.7348 12 13.4804 11.8946 13.2929 11.7071C13.1054 11.5196 13 11.2652 13 11C13 10.7348 13.1054 10.4804 13.2929 10.2929C13.4804 10.1054 13.7348 10 14 10H18C18.2652 10 18.5196 10.1054 18.7071 10.2929C18.8946 10.4804 19 10.7348 19 11Z" fill="currentColor"/>
<path d="M68.5 5.52125V4C68.5 3.6717 68.4353 3.34661 68.3097 3.04329C68.1841 2.73998 67.9999 2.46438 67.7678 2.23223C67.5356 2.00009 67.26 1.81594 66.9567 1.6903C66.6534 1.56466 66.3283 1.5 66 1.5H62C61.337 1.5 60.7011 1.76339 60.2322 2.23223C59.7634 2.70107 59.5 3.33696 59.5 4V5.52125C57.8684 5.64859 56.3447 6.38616 55.2326 7.58692C54.1206 8.78767 53.502 10.3634 53.5 12V27C53.5 27.3978 53.658 27.7794 53.9393 28.0607C54.2206 28.342 54.6022 28.5 55 28.5H73C73.3978 28.5 73.7794 28.342 74.0607 28.0607C74.342 27.7794 74.5 27.3978 74.5 27V12C74.498 10.3634 73.8794 8.78767 72.7674 7.58692C71.6553 6.38616 70.1316 5.64859 68.5 5.52125ZM62 2.5H66C66.3978 2.5 66.7794 2.65804 67.0607 2.93934C67.342 3.22064 67.5 3.60218 67.5 4V5.5H60.5V4C60.5 3.60218 60.658 3.22064 60.9393 2.93934C61.2206 2.65804 61.6022 2.5 62 2.5ZM69.5 20.5H58.5V19C58.5 18.6022 58.658 18.2206 58.9393 17.9393C59.2206 17.658 59.6022 17.5 60 17.5H68C68.3978 17.5 68.7794 17.658 69.0607 17.9393C69.342 18.2206 69.5 18.6022 69.5 19V20.5ZM58.5 21.5H65.5V23C65.5 23.1326 65.5527 23.2598 65.6464 23.3536C65.7402 23.4473 65.8674 23.5 66 23.5C66.1326 23.5 66.2598 23.4473 66.3536 23.3536C66.4473 23.2598 66.5 23.1326 66.5 23V21.5H69.5V27.5H58.5V21.5ZM73.5 27C73.5 27.1326 73.4473 27.2598 73.3536 27.3536C73.2598 27.4473 73.1326 27.5 73 27.5H70.5V19C70.5 18.337 70.2366 17.7011 69.7678 17.2322C69.2989 16.7634 68.663 16.5 68 16.5H60C59.337 16.5 58.7011 16.7634 58.2322 17.2322C57.7634 17.7011 57.5 18.337 57.5 19V27.5H55C54.8674 27.5 54.7402 27.4473 54.6464 27.3536C54.5527 27.2598 54.5 27.1326 54.5 27V12C54.5017 10.5418 55.0816 9.14383 56.1127 8.11274C57.1438 7.08165 58.5418 6.50165 60 6.5H68C69.4582 6.50165 70.8562 7.08165 71.8873 8.11274C72.9184 9.14383 73.4983 10.5418 73.5 12V27ZM66.5 11C66.5 11.1326 66.4473 11.2598 66.3536 11.3536C66.2598 11.4473 66.1326 11.5 66 11.5H62C61.8674 11.5 61.7402 11.4473 61.6464 11.3536C61.5527 11.2598 61.5 11.1326 61.5 11C61.5 10.8674 61.5527 10.7402 61.6464 10.6464C61.7402 10.5527 61.8674 10.5 62 10.5H66C66.1326 10.5 66.2598 10.5527 66.3536 10.6464C66.4473 10.7402 66.5 10.8674 66.5 11Z" fill="currentColor"/>
<path d="M116.75 5.2925V4C116.75 3.27065 116.46 2.57118 115.945 2.05546C115.429 1.53973 114.729 1.25 114 1.25H110C109.271 1.25 108.571 1.53973 108.055 2.05546C107.54 2.57118 107.25 3.27065 107.25 4V5.2925C105.601 5.47882 104.078 6.26543 102.971 7.50243C101.865 8.73943 101.252 10.3403 101.25 12V27C101.25 27.4641 101.434 27.9092 101.763 28.2374C102.091 28.5656 102.536 28.75 103 28.75H121C121.464 28.75 121.909 28.5656 122.237 28.2374C122.566 27.9092 122.75 27.4641 122.75 27V12C122.748 10.3403 122.135 8.73943 121.029 7.50243C119.922 6.26543 118.399 5.47882 116.75 5.2925ZM110 2.75H114C114.332 2.75 114.649 2.8817 114.884 3.11612C115.118 3.35054 115.25 3.66848 115.25 4V5.25H108.75V4C108.75 3.66848 108.882 3.35054 109.116 3.11612C109.351 2.8817 109.668 2.75 110 2.75ZM117.25 20.25H106.75V19C106.75 18.6685 106.882 18.3505 107.116 18.1161C107.351 17.8817 107.668 17.75 108 17.75H116C116.332 17.75 116.649 17.8817 116.884 18.1161C117.118 18.3505 117.25 18.6685 117.25 19V20.25ZM106.75 21.75H113.25V23C113.25 23.1989 113.329 23.3897 113.47 23.5303C113.61 23.671 113.801 23.75 114 23.75C114.199 23.75 114.39 23.671 114.53 23.5303C114.671 23.3897 114.75 23.1989 114.75 23V21.75H117.25V27.25H106.75V21.75ZM121.25 27C121.25 27.0663 121.224 27.1299 121.177 27.1768C121.13 27.2237 121.066 27.25 121 27.25H118.75V19C118.75 18.2707 118.46 17.5712 117.945 17.0555C117.429 16.5397 116.729 16.25 116 16.25H108C107.271 16.25 106.571 16.5397 106.055 17.0555C105.54 17.5712 105.25 18.2707 105.25 19V27.25H103C102.934 27.25 102.87 27.2237 102.823 27.1768C102.776 27.1299 102.75 27.0663 102.75 27V12C102.75 10.6076 103.303 9.27225 104.288 8.28769C105.272 7.30312 106.608 6.75 108 6.75H116C117.392 6.75 118.728 7.30312 119.712 8.28769C120.697 9.27225 121.25 10.6076 121.25 12V27ZM114.75 11C114.75 11.1989 114.671 11.3897 114.53 11.5303C114.39 11.671 114.199 11.75 114 11.75H110C109.801 11.75 109.61 11.671 109.47 11.5303C109.329 11.3897 109.25 11.1989 109.25 11C109.25 10.8011 109.329 10.6103 109.47 10.4697C109.61 10.329 109.801 10.25 110 10.25H114C114.199 10.25 114.39 10.329 114.53 10.4697C114.671 10.6103 114.75 10.8011 114.75 11Z" fill="currentColor"/>
<path d="M165.5 6.06875V4.5C165.5 3.57174 165.131 2.6815 164.475 2.02513C163.818 1.36875 162.928 1 162 1H158C157.072 1 156.182 1.36875 155.525 2.02513C154.869 2.6815 154.5 3.57174 154.5 4.5V6.06875C152.701 6.31284 151.052 7.20002 149.857 8.56616C148.662 9.93231 148.003 11.685 148 13.5V27.5C148 28.163 148.263 28.7989 148.732 29.2678C149.201 29.7366 149.837 30 150.5 30H169.5C170.163 30 170.799 29.7366 171.268 29.2678C171.737 28.7989 172 28.163 172 27.5V13.5C171.997 11.685 171.338 9.93231 170.143 8.56616C168.948 7.20002 167.299 6.31284 165.5 6.06875ZM158 4H162C162.133 4 162.26 4.05268 162.354 4.14645C162.447 4.24021 162.5 4.36739 162.5 4.5V6H157.5V4.5C157.5 4.36739 157.553 4.24021 157.646 4.14645C157.74 4.05268 157.867 4 158 4ZM164 20H156V19C156 18.8674 156.053 18.7402 156.146 18.6464C156.24 18.5527 156.367 18.5 156.5 18.5H163.5C163.633 18.5 163.76 18.5527 163.854 18.6464C163.947 18.7402 164 18.8674 164 19V20ZM156 23H160V23.5C160 23.8978 160.158 24.2794 160.439 24.5607C160.721 24.842 161.102 25 161.5 25C161.898 25 162.279 24.842 162.561 24.5607C162.842 24.2794 163 23.8978 163 23.5V23H164V27H156V23ZM169 27H167V19C167 18.0717 166.631 17.1815 165.975 16.5251C165.318 15.8687 164.428 15.5 163.5 15.5H156.5C155.572 15.5 154.682 15.8687 154.025 16.5251C153.369 17.1815 153 18.0717 153 19V27H151V13.5C151 12.3065 151.474 11.1619 152.318 10.318C153.162 9.47411 154.307 9 155.5 9H164.5C165.693 9 166.838 9.47411 167.682 10.318C168.526 11.1619 169 12.3065 169 13.5V27ZM164 12.5C164 12.8978 163.842 13.2794 163.561 13.5607C163.279 13.842 162.898 14 162.5 14H157.5C157.102 14 156.721 13.842 156.439 13.5607C156.158 13.2794 156 12.8978 156 12.5C156 12.1022 156.158 11.7206 156.439 11.4393C156.721 11.158 157.102 11 157.5 11H162.5C162.898 11 163.279 11.158 163.561 11.4393C163.842 11.7206 164 12.1022 164 12.5Z" fill="currentColor"/>
<path d="M213 5.0725V4C213 3.20435 212.684 2.44129 212.121 1.87868C211.559 1.31607 210.796 1 210 1H206C205.204 1 204.441 1.31607 203.879 1.87868C203.316 2.44129 203 3.20435 203 4V5.0725C201.335 5.31517 199.813 6.14844 198.711 7.42023C197.61 8.69202 197.003 10.3175 197 12V27C197 27.5304 197.211 28.0391 197.586 28.4142C197.961 28.7893 198.47 29 199 29H217C217.53 29 218.039 28.7893 218.414 28.4142C218.789 28.0391 219 27.5304 219 27V12C218.997 10.3175 218.39 8.69202 217.289 7.42023C216.187 6.14844 214.665 5.31517 213 5.0725ZM205 4C205 3.73478 205.105 3.48043 205.293 3.29289C205.48 3.10536 205.735 3 206 3H210C210.265 3 210.52 3.10536 210.707 3.29289C210.895 3.48043 211 3.73478 211 4V5H205V4ZM206 9H210C210.265 9 210.52 9.10536 210.707 9.29289C210.895 9.48043 211 9.73478 211 10C211 10.2652 210.895 10.5196 210.707 10.7071C210.52 10.8946 210.265 11 210 11H206C205.735 11 205.48 10.8946 205.293 10.7071C205.105 10.5196 205 10.2652 205 10C205 9.73478 205.105 9.48043 205.293 9.29289C205.48 9.10536 205.735 9 206 9ZM214 27H202V22H209V23C209 23.2652 209.105 23.5196 209.293 23.7071C209.48 23.8946 209.735 24 210 24C210.265 24 210.52 23.8946 210.707 23.7071C210.895 23.5196 211 23.2652 211 23V22H214V27ZM214 20H202V19C202 18.4696 202.211 17.9609 202.586 17.5858C202.961 17.2107 203.47 17 204 17H212C212.53 17 213.039 17.2107 213.414 17.5858C213.789 17.9609 214 18.4696 214 19V20Z" fill="currentColor"/>
<path opacity="0.2" d="M266 12V27C266 27.2652 265.895 27.5196 265.707 27.7071C265.52 27.8946 265.265 28 265 28H262V19C262 18.4696 261.789 17.9609 261.414 17.5858C261.039 17.2107 260.53 17 260 17H252C251.47 17 250.961 17.2107 250.586 17.5858C250.211 17.9609 250 18.4696 250 19V28H247C246.735 28 246.48 27.8946 246.293 27.7071C246.105 27.5196 246 27.2652 246 27V12C246 10.4087 246.632 8.88258 247.757 7.75736C248.883 6.63214 250.409 6 252 6H260C261.591 6 263.117 6.63214 264.243 7.75736C265.368 8.88258 266 10.4087 266 12Z" fill="currentColor"/>
<path d="M261 5.0725V4C261 3.20435 260.684 2.44129 260.121 1.87868C259.559 1.31607 258.796 1 258 1H254C253.204 1 252.441 1.31607 251.879 1.87868C251.316 2.44129 251 3.20435 251 4V5.0725C249.335 5.31517 247.813 6.14844 246.711 7.42023C245.61 8.69202 245.003 10.3175 245 12V27C245 27.5304 245.211 28.0391 245.586 28.4142C245.961 28.7893 246.47 29 247 29H265C265.53 29 266.039 28.7893 266.414 28.4142C266.789 28.0391 267 27.5304 267 27V12C266.997 10.3175 266.39 8.69202 265.289 7.42023C264.187 6.14844 262.665 5.31517 261 5.0725ZM254 3H258C258.265 3 258.52 3.10536 258.707 3.29289C258.895 3.48043 259 3.73478 259 4V5H253V4C253 3.73478 253.105 3.48043 253.293 3.29289C253.48 3.10536 253.735 3 254 3ZM261 20H251V19C251 18.7348 251.105 18.4804 251.293 18.2929C251.48 18.1054 251.735 18 252 18H260C260.265 18 260.52 18.1054 260.707 18.2929C260.895 18.4804 261 18.7348 261 19V20ZM251 22H257V23C257 23.2652 257.105 23.5196 257.293 23.7071C257.48 23.8946 257.735 24 258 24C258.265 24 258.52 23.8946 258.707 23.7071C258.895 23.5196 259 23.2652 259 23V22H261V27H251V22ZM265 27H263V19C263 18.2044 262.684 17.4413 262.121 16.8787C261.559 16.3161 260.796 16 260 16H252C251.204 16 250.441 16.3161 249.879 16.8787C249.316 17.4413 249 18.2044 249 19V27H247V12C247 10.6739 247.527 9.40215 248.464 8.46447C249.402 7.52678 250.674 7 252 7H260C261.326 7 262.598 7.52678 263.536 8.46447C264.473 9.40215 265 10.6739 265 12V27ZM259 11C259 11.2652 258.895 11.5196 258.707 11.7071C258.52 11.8946 258.265 12 258 12H254C253.735 12 253.48 11.8946 253.293 11.7071C253.105 11.5196 253 11.2652 253 11C253 10.7348 253.105 10.4804 253.293 10.2929C253.48 10.1054 253.735 10 254 10H258C258.265 10 258.52 10.1054 258.707 10.2929C258.895 10.4804 259 10.7348 259 11Z" fill="currentColor"/>
</g>
<defs>
<clipPath id="clip0_17_8803">
<rect width="272" height="32" rx="5" fill="white"/>
</clipPath>
</defs>
</svg>
