<svg width="272" height="32" viewBox="0 0 272 32" fill="none" xmlns="http://www.w3.org/2000/svg">
<g clip-path="url(#clip0_17_8733)">
<path d="M16 3C12.5534 3.00397 9.24911 4.37488 6.812 6.812C4.37488 9.24911 3.00397 12.5534 3 16V23C3 23.7956 3.31607 24.5587 3.87868 25.1213C4.44129 25.6839 5.20435 26 6 26C6.6373 25.9989 7.25785 25.7959 7.7725 25.42C9.29125 24.3162 11.95 23 16 23C20.05 23 22.7087 24.315 24.2262 25.4188C24.6733 25.7465 25.2024 25.944 25.7548 25.9893C26.3073 26.0345 26.8615 25.9259 27.3559 25.6754C27.8504 25.4249 28.2657 25.0422 28.556 24.57C28.8462 24.0977 28.9999 23.5543 29 23V16C28.996 12.5534 27.6251 9.24911 25.188 6.812C22.7509 4.37488 19.4466 3.00397 16 3ZM27 16V17.1087C25.4049 16.1218 23.6834 15.3556 21.8825 14.8313C21.4956 11.3831 20.2553 8.0858 18.2738 5.2375C20.7403 5.76192 22.9523 7.11659 24.5405 9.07533C26.1286 11.0341 26.9968 13.4783 27 16ZM16 5.53375C17.9968 8.0976 19.3049 11.1295 19.8 14.3413C17.2854 13.8863 14.7096 13.8863 12.195 14.3413C12.696 11.1303 14.0054 8.09946 16 5.53375ZM13.7262 5.2375C11.7445 8.08616 10.5042 11.3839 10.1175 14.8325C8.31657 15.3569 6.59505 16.123 5 17.11V16C5.00323 13.4783 5.8714 11.0341 7.45955 9.07533C9.04769 7.11659 11.2597 5.76192 13.7262 5.2375ZM26.4575 23.8888C26.2912 23.9745 26.1042 24.0119 25.9177 23.9967C25.7312 23.9814 25.5527 23.9141 25.4025 23.8025C23.645 22.525 20.5875 21 16 21C11.4125 21 8.355 22.525 6.5975 23.8025C6.44733 23.9141 6.26885 23.9814 6.08235 23.9967C5.89585 24.0119 5.70881 23.9745 5.5425 23.8888C5.37704 23.8074 5.23816 23.6806 5.14209 23.5232C5.04602 23.3658 4.99674 23.1844 5 23V19.5088C8.214 17.2267 12.0582 16.0007 16 16.0007C19.9418 16.0007 23.786 17.2267 27 19.5088V23C27.0033 23.1844 26.954 23.3658 26.8579 23.5232C26.7618 23.6806 26.623 23.8074 26.4575 23.8888Z" fill="currentColor"/>
<path d="M64 3.5C60.686 3.50397 57.5089 4.82221 55.1655 7.16555C52.8222 9.50889 51.504 12.686 51.5 16V23C51.5 23.4622 51.6281 23.9153 51.87 24.3091C52.112 24.7028 52.4584 25.0218 52.8708 25.2306C53.2831 25.4394 53.7453 25.5297 54.2059 25.4917C54.6665 25.4536 55.1075 25.2886 55.48 25.015C57.0575 23.875 59.8162 22.5 64 22.5C68.1838 22.5 70.9425 23.8675 72.52 25.015C72.8948 25.2906 73.339 25.4561 73.8028 25.493C74.2665 25.5299 74.7314 25.4366 75.145 25.2237C75.5545 25.0148 75.8981 24.6963 76.1373 24.3037C76.3765 23.9111 76.5021 23.4598 76.5 23V16C76.496 12.686 75.1778 9.50889 72.8344 7.16555C70.4911 4.82221 67.314 3.50397 64 3.5ZM75.5 16V18.0287C73.6418 16.7618 71.5858 15.8126 69.4163 15.22C69.0485 11.3289 67.5664 7.62632 65.1475 4.55625C67.9835 4.84403 70.612 6.17349 72.5243 8.28741C74.4366 10.4013 75.4969 13.1494 75.5 16ZM68.3875 14.9675C65.4957 14.3442 62.5043 14.3442 59.6125 14.9675C60.205 9.61625 63 5.91375 64 4.75C65 5.915 67.795 9.61625 68.3875 14.9688V14.9675ZM62.8525 4.5575C60.4336 7.62757 58.9515 11.3301 58.5837 15.2212C56.4142 15.8138 54.3582 16.763 52.5 18.03V16C52.5034 13.1497 53.5638 10.4019 55.4761 8.2882C57.3884 6.17454 60.0167 4.84526 62.8525 4.5575ZM74.685 24.3337C74.4372 24.4635 74.1577 24.5206 73.8789 24.4985C73.6 24.4764 73.333 24.3759 73.1087 24.2087C71.4112 22.9725 68.4525 21.5 64 21.5C59.5475 21.5 56.5887 22.9712 54.8913 24.2062C54.667 24.3734 54.4 24.4739 54.1211 24.496C53.8423 24.5181 53.5628 24.461 53.315 24.3312C53.0678 24.2084 52.8602 24.0183 52.716 23.7829C52.5719 23.5474 52.497 23.2761 52.5 23V19.25C55.8387 16.8119 59.8659 15.498 64 15.498C68.1341 15.498 72.1613 16.8119 75.5 19.25V23C75.5035 23.2765 75.4288 23.5483 75.2847 23.7843C75.1405 24.0202 74.9326 24.2107 74.685 24.3337Z" fill="currentColor"/>
<path d="M112 3.25C108.62 3.25397 105.379 4.59854 102.989 6.98877C100.599 9.379 99.254 12.6197 99.25 16V23C99.2502 23.508 99.3911 24.006 99.657 24.4388C99.923 24.8716 100.304 25.2222 100.757 25.4519C101.21 25.6815 101.718 25.7812 102.224 25.7398C102.73 25.6985 103.215 25.5177 103.625 25.2175C105.173 24.0925 107.882 22.75 112 22.75C116.118 22.75 118.826 24.0912 120.375 25.2162C120.785 25.5164 121.27 25.6971 121.776 25.7386C122.282 25.78 122.79 25.6804 123.243 25.4509C123.696 25.2214 124.076 24.8709 124.342 24.4383C124.609 24.0057 124.75 23.5079 124.75 23V16C124.746 12.6197 123.401 9.379 121.011 6.98877C118.621 4.59854 115.38 3.25397 112 3.25ZM123.25 16V17.5625C121.521 16.4405 119.633 15.585 117.65 15.025C117.269 11.3501 115.909 7.84469 113.711 4.875C116.366 5.28753 118.787 6.6353 120.536 8.67521C122.285 10.7151 123.248 13.3129 123.25 16ZM116.099 14.6525C113.393 14.1158 110.607 14.1158 107.901 14.6525C108.526 9.855 110.921 6.45375 112 5.135C113.079 6.45625 115.475 9.85625 116.099 14.6538V14.6525ZM110.289 4.875C108.091 7.84505 106.73 11.3509 106.35 15.0262C104.367 15.5863 102.479 16.4417 100.75 17.5637V16C100.752 13.3129 101.715 10.7151 103.464 8.67521C105.213 6.6353 107.634 5.28753 110.289 4.875ZM122.571 24.1063C122.363 24.2151 122.129 24.2628 121.895 24.244C121.661 24.2252 121.438 24.1406 121.25 24C119.522 22.75 116.515 21.25 112 21.25C107.485 21.25 104.472 22.75 102.75 24C102.563 24.1399 102.34 24.2241 102.107 24.2429C101.874 24.2617 101.641 24.2143 101.434 24.1063C101.227 24.0048 101.054 23.8471 100.933 23.6515C100.812 23.4558 100.748 23.23 100.75 23V19.375C104.027 17.0152 107.962 15.7455 112 15.7455C116.038 15.7455 119.973 17.0152 123.25 19.375V23C123.253 23.2303 123.191 23.4568 123.071 23.6534C122.951 23.85 122.778 24.0087 122.571 24.1112V24.1063Z" fill="currentColor"/>
<path d="M160 2.5C156.421 2.50397 152.989 3.92756 150.458 6.45844C147.928 8.98932 146.504 12.4208 146.5 16V23C146.498 23.6451 146.675 24.2781 147.012 24.8284C147.349 25.3786 147.832 25.8245 148.408 26.1162C148.985 26.4112 149.633 26.5401 150.279 26.4885C150.925 26.4368 151.544 26.2067 152.068 25.8237C153.525 24.7638 156.085 23.5 160 23.5C163.915 23.5 166.475 24.7625 167.933 25.8225C168.454 26.2044 169.071 26.4343 169.716 26.4868C170.36 26.5394 171.006 26.4125 171.583 26.1202C172.159 25.8279 172.644 25.3816 172.982 24.8309C173.32 24.2801 173.5 23.6464 173.5 23V16C173.496 12.4208 172.072 8.98932 169.542 6.45844C167.011 3.92756 163.579 2.50397 160 2.5ZM170.5 16V16.2337C169.181 15.4914 167.786 14.8921 166.339 14.4462C165.959 11.4801 164.96 8.62685 163.408 6.07125C165.475 6.78342 167.27 8.12244 168.541 9.90198C169.812 11.6815 170.497 13.8131 170.5 16ZM163.193 13.735C161.076 13.4217 158.924 13.4217 156.808 13.735C157.327 11.0774 158.416 8.56399 160 6.3675C161.583 8.56413 162.673 11.0775 163.193 13.735ZM156.593 6.07125C155.04 8.62685 154.041 11.4801 153.661 14.4462C152.214 14.8921 150.819 15.4914 149.5 16.2337V16C149.503 13.8131 150.188 11.6815 151.459 9.90198C152.73 8.12244 154.525 6.78342 156.593 6.07125ZM170.231 23.4463C170.147 23.4904 170.052 23.5096 169.957 23.5016C169.862 23.4937 169.772 23.4589 169.696 23.4013C167.875 22.0763 164.721 20.5 160 20.5C155.279 20.5 152.125 22.0762 150.304 23.3975C150.228 23.4551 150.138 23.4899 150.043 23.4979C149.948 23.5059 149.853 23.4867 149.769 23.4425C149.686 23.4032 149.616 23.3403 149.568 23.2616C149.52 23.1829 149.497 23.092 149.5 23V19.7675C152.588 17.6389 156.25 16.499 160 16.499C163.75 16.499 167.412 17.6389 170.5 19.7675V23C170.503 23.092 170.48 23.1829 170.432 23.2616C170.384 23.3403 170.314 23.4032 170.231 23.4425V23.4463Z" fill="currentColor"/>
<path d="M208 3C204.553 3.00397 201.249 4.37488 198.812 6.812C196.375 9.24911 195.004 12.5534 195 16V23C195 23.7956 195.316 24.5587 195.879 25.1213C196.441 25.6839 197.204 26 198 26C198.637 25.9989 199.258 25.7959 199.773 25.42C201.291 24.3162 203.95 23 208 23C212.05 23 214.709 24.315 216.226 25.4188C216.673 25.7465 217.202 25.944 217.755 25.9893C218.307 26.0345 218.861 25.9259 219.356 25.6754C219.85 25.4249 220.266 25.0422 220.556 24.57C220.846 24.0977 221 23.5543 221 23V16C220.996 12.5534 219.625 9.24911 217.188 6.812C214.751 4.37488 211.447 3.00397 208 3ZM197 16C197.003 13.4784 197.872 11.0342 199.46 9.07555C201.048 7.11686 203.26 5.76213 205.726 5.2375C203.745 8.08616 202.504 11.3839 202.118 14.8325C200.317 15.3569 198.595 16.123 197 17.11V16ZM219 23C219.003 23.1841 218.954 23.3654 218.858 23.5225C218.762 23.6796 218.623 23.8062 218.458 23.8875C218.291 23.9733 218.104 24.0107 217.918 23.9954C217.731 23.9802 217.553 23.9129 217.403 23.8013C215.645 22.525 212.587 21 208 21C203.413 21 200.355 22.525 198.597 23.8025C198.447 23.9141 198.269 23.9814 198.082 23.9967C197.896 24.0119 197.709 23.9745 197.543 23.8888C197.377 23.8074 197.238 23.6806 197.142 23.5232C197.046 23.3658 196.997 23.1844 197 23V19.5088C198.884 18.1633 201 17.1768 203.241 16.5987C203.284 16.591 203.325 16.5801 203.366 16.5662C206.411 15.8112 209.593 15.8112 212.638 16.5662C212.678 16.58 212.72 16.5913 212.763 16.6C215.003 17.1777 217.117 18.1638 219 19.5088V23ZM219 17.1087C217.405 16.1218 215.683 15.3556 213.882 14.8313C213.496 11.3831 212.255 8.0858 210.274 5.2375C212.74 5.76213 214.952 7.11686 216.54 9.07555C218.128 11.0342 218.997 13.4784 219 16V17.1087Z" fill="currentColor"/>
<path opacity="0.2" d="M268 19V23C268 23.3697 267.897 23.7322 267.703 24.0471C267.51 24.362 267.232 24.617 266.902 24.7838C266.572 24.9506 266.203 25.0226 265.834 24.992C265.466 24.9613 265.113 24.8291 264.815 24.61C262.816 23.1575 259.875 22 256 22C252.125 22 249.184 23.1575 247.185 24.61C246.887 24.8291 246.534 24.9613 246.166 24.992C245.797 25.0226 245.428 24.9506 245.098 24.7838C244.768 24.617 244.49 24.362 244.297 24.0471C244.103 23.7322 244 23.3697 244 23V19C247.462 16.4036 251.673 15 256 15C260.327 15 264.538 16.4036 268 19Z" fill="currentColor"/>
<path d="M256 3C252.553 3.00397 249.249 4.37488 246.812 6.812C244.375 9.24911 243.004 12.5534 243 16V23C243 23.7956 243.316 24.5587 243.879 25.1213C244.441 25.6839 245.204 26 246 26C246.637 25.9989 247.258 25.7959 247.773 25.42C249.291 24.3162 251.95 23 256 23C260.05 23 262.709 24.315 264.226 25.4188C264.673 25.7465 265.202 25.944 265.755 25.9893C266.307 26.0345 266.861 25.9259 267.356 25.6754C267.85 25.4249 268.266 25.0422 268.556 24.57C268.846 24.0977 269 23.5543 269 23V16C268.996 12.5534 267.625 9.24911 265.188 6.812C262.751 4.37488 259.447 3.00397 256 3ZM267 16V17.1087C265.405 16.1218 263.683 15.3556 261.882 14.8313C261.496 11.3831 260.255 8.0858 258.274 5.2375C260.74 5.76213 262.952 7.11686 264.54 9.07555C266.128 11.0342 266.997 13.4784 267 16ZM256 5.53375C257.997 8.0976 259.305 11.1295 259.8 14.3413C257.285 13.8863 254.71 13.8863 252.195 14.3413C252.696 11.1303 254.005 8.09946 256 5.53375ZM253.726 5.2375C251.745 8.08616 250.504 11.3839 250.118 14.8325C248.317 15.3569 246.595 16.123 245 17.11V16C245.003 13.4784 245.872 11.0342 247.46 9.07555C249.048 7.11686 251.26 5.76213 253.726 5.2375ZM266.458 23.8888C266.291 23.9745 266.104 24.0119 265.918 23.9967C265.731 23.9814 265.553 23.9141 265.403 23.8025C263.645 22.525 260.587 21 256 21C251.413 21 248.355 22.525 246.597 23.8025C246.447 23.9141 246.269 23.9814 246.082 23.9967C245.896 24.0119 245.709 23.9745 245.543 23.8888C245.377 23.8074 245.238 23.6806 245.142 23.5232C245.046 23.3658 244.997 23.1844 245 23V19.5088C248.214 17.2267 252.058 16.0007 256 16.0007C259.942 16.0007 263.786 17.2267 267 19.5088V23C267.003 23.1844 266.954 23.3658 266.858 23.5232C266.762 23.6806 266.623 23.8074 266.458 23.8888Z" fill="currentColor"/>
</g>
<defs>
<clipPath id="clip0_17_8733">
<rect width="272" height="32" rx="5" fill="white"/>
</clipPath>
</defs>
</svg>
