<svg width="272" height="32" viewBox="0 0 272 32" fill="none" xmlns="http://www.w3.org/2000/svg">
<g clip-path="url(#clip0_17_8593)">
<path d="M29.4375 27.1013C26.6175 25.7263 25 22.7788 25 19.0013V16.8413C25.0011 16.4405 24.8813 16.0488 24.6563 15.7172C24.4313 15.3856 24.1115 15.1296 23.7388 14.9825L20.625 13.75C20.3801 13.652 20.1837 13.4612 20.0788 13.2191C19.9739 12.977 19.969 12.7033 20.065 12.4575L22.73 5.83252C22.9109 5.3977 23.0021 4.93084 22.9983 4.45992C22.9945 3.98899 22.8957 3.52368 22.7078 3.09185C22.5199 2.66002 22.2467 2.27056 21.9048 1.94677C21.5628 1.62299 21.159 1.37155 20.7175 1.20752C19.8577 0.892476 18.9089 0.925163 18.0728 1.29863C17.2367 1.67211 16.5792 2.35692 16.24 3.20752C16.2395 3.21251 16.2395 3.21753 16.24 3.22252L13.6125 9.87502C13.5148 10.1211 13.3235 10.3184 13.0804 10.4237C12.8374 10.5289 12.5626 10.5334 12.3163 10.4363L9.13878 9.14252C8.77242 8.99407 8.3701 8.9583 7.98331 9.03981C7.59651 9.12131 7.24283 9.31637 6.96753 9.60002C4.33503 12.3063 3.00003 15.4688 3.00003 19C2.99311 22.6137 4.39061 26.0886 6.89753 28.6913C6.99145 28.7895 7.1044 28.8675 7.22948 28.9206C7.35456 28.9736 7.48915 29.0007 7.62503 29H29C29.226 28.9998 29.4453 28.923 29.6221 28.7822C29.7989 28.6414 29.9228 28.4448 29.9735 28.2246C30.0243 28.0043 29.9989 27.7733 29.9016 27.5694C29.8042 27.3654 29.6407 27.2004 29.4375 27.1013ZM8.39253 11L11.5688 12.2875C11.9354 12.4342 12.3274 12.507 12.7223 12.5019C13.1171 12.4967 13.5071 12.4137 13.8698 12.2575C14.2324 12.1013 14.5607 11.875 14.8358 11.5917C15.1108 11.3083 15.3272 10.9734 15.4725 10.6063L18.0975 3.98127C18.4175 3.21752 19.2813 2.82252 20.0263 3.10627C20.2162 3.17674 20.3899 3.28496 20.5369 3.42439C20.6838 3.56382 20.801 3.73158 20.8814 3.91754C20.9618 4.10351 21.0036 4.30382 21.0045 4.50641C21.0053 4.70899 20.9651 4.90965 20.8863 5.09627L18.2113 11.72C17.9184 12.4589 17.9307 13.2837 18.2454 14.0135C18.5602 14.7433 19.1517 15.3184 19.89 15.6125L23 16.8413V19C23 19.0413 23 19.0825 23 19.125L6.97128 12.7138C7.39741 12.1047 7.87275 11.5315 8.39253 11ZM14.3925 27C12.9037 25.5719 11.8489 23.7519 11.35 21.75C11.2805 21.4968 11.1142 21.2811 10.887 21.1495C10.6598 21.0179 10.3899 20.9809 10.1357 21.0466C9.88147 21.1122 9.66326 21.2752 9.52819 21.5004C9.39312 21.7256 9.35202 21.9948 9.41378 22.25C9.84994 23.9722 10.6307 25.588 11.7088 27H8.05503C6.08276 24.8027 4.99439 21.9527 5.00003 19C4.98779 17.4356 5.31757 15.8874 5.96628 14.4638L23.1913 21.3538C23.5663 23.6038 24.5113 25.5388 25.9275 26.9988L14.3925 27Z" fill="currentColor"/>
<path d="M77.2188 27.55C74.22 26.0937 72.5 22.9775 72.5 19V16.84C72.5001 16.5398 72.41 16.2464 72.2416 15.998C72.0731 15.7495 71.8339 15.5573 71.555 15.4462L68.4438 14.2175C68.0753 14.0703 67.7802 13.7831 67.623 13.4188C67.4658 13.0545 67.4593 12.6428 67.605 12.2737L70.2713 5.64871C70.5049 5.09479 70.5659 4.48321 70.4462 3.89406C70.3264 3.30491 70.0316 2.76565 69.6003 2.34687C69.1689 1.92809 68.6212 1.64932 68.0287 1.54705C67.4363 1.44478 66.8268 1.52378 66.28 1.77371C65.5649 2.09951 65.0009 2.6855 64.7025 3.41246L62.0775 10.05C62.0049 10.2337 61.8967 10.4012 61.7592 10.543C61.6217 10.6848 61.4575 10.7981 61.276 10.8762C61.0946 10.9544 60.8996 10.996 60.702 10.9985C60.5045 11.0011 60.3084 10.9646 60.125 10.8912L56.9538 9.60496C56.6794 9.49552 56.3788 9.46952 56.0897 9.53023C55.8007 9.59094 55.5359 9.73565 55.3288 9.94621C52.7875 12.5562 51.5 15.6025 51.5 19C51.4936 22.4849 52.8413 25.8361 55.2588 28.3462C55.3061 28.3955 55.363 28.4346 55.426 28.461C55.489 28.4875 55.5567 28.5007 55.625 28.5H77C77.1133 28.5001 77.2232 28.4619 77.3119 28.3914C77.4005 28.321 77.4627 28.2225 77.4881 28.1122C77.5135 28.0018 77.5007 27.8861 77.4518 27.784C77.4028 27.6818 77.3207 27.5993 77.2188 27.55ZM56.0425 10.6437C56.111 10.5739 56.1986 10.5261 56.2943 10.5063C56.3901 10.4865 56.4895 10.4956 56.58 10.5325L59.75 11.8187C60.0553 11.9405 60.3816 12.0009 60.7103 11.9964C61.0389 11.9919 61.3635 11.9227 61.6653 11.7927C61.9672 11.6626 62.2405 11.4743 62.4695 11.2386C62.6985 11.0028 62.8788 10.7242 63 10.4187L65.625 3.79371C66.0488 2.77371 67.2013 2.24996 68.1975 2.62496C68.4499 2.7188 68.6808 2.86264 68.8763 3.04787C69.0717 3.23309 69.2278 3.45588 69.335 3.70288C69.4423 3.94988 69.4986 4.216 69.5005 4.48528C69.5025 4.75456 69.45 5.02145 69.3463 5.26996L66.6763 11.9025C66.5544 12.2076 66.4939 12.5338 66.4982 12.8623C66.5025 13.1908 66.5715 13.5153 66.7013 13.8171C66.8311 14.119 67.0191 14.3923 67.2546 14.6214C67.4901 14.8505 67.7685 15.031 68.0738 15.1525L71.1863 16.3812C71.2791 16.4185 71.3586 16.4827 71.4145 16.5656C71.4704 16.6485 71.5002 16.7462 71.5 16.8462V19C71.5 19.295 71.51 19.5862 71.5275 19.875L54.215 12.95C54.7406 12.1185 55.3532 11.3454 56.0425 10.6437ZM62.195 27.5C60.5597 25.9899 59.4014 24.0347 58.8625 21.875C58.8461 21.8114 58.8173 21.7516 58.7778 21.6991C58.7383 21.6466 58.6888 21.6024 58.6323 21.5691C58.5757 21.5357 58.5131 21.5138 58.448 21.5046C58.383 21.4954 58.3168 21.4992 58.2531 21.5156C58.1895 21.532 58.1298 21.5608 58.0773 21.6003C58.0248 21.6398 57.9806 21.6893 57.9473 21.7458C57.9139 21.8024 57.892 21.865 57.8828 21.9301C57.8736 21.9951 57.8774 22.0614 57.8938 22.125C58.3982 24.1271 59.3897 25.9735 60.78 27.5H55.835C53.6859 25.1919 52.4938 22.1536 52.5 19C52.4831 17.2022 52.9003 15.427 53.7163 13.825L71.6413 21C72.0438 23.75 73.295 26.0112 75.2413 27.5H62.195Z" fill="currentColor"/>
<path d="M125.328 27.325C122.419 25.9113 120.75 22.875 120.75 19V16.8375C120.75 16.4875 120.645 16.1455 120.448 15.8558C120.252 15.5662 119.973 15.3421 119.648 15.2125L116.536 13.9838C116.384 13.9231 116.244 13.8328 116.127 13.7183C116.009 13.6037 115.915 13.4671 115.85 13.3161C115.785 13.1652 115.751 13.003 115.748 12.8387C115.746 12.6744 115.777 12.5114 115.838 12.3588L118.5 5.73755C118.667 5.33357 118.751 4.90001 118.747 4.4628C118.743 4.02559 118.65 3.59374 118.475 3.19308C118.3 2.79243 118.046 2.43122 117.728 2.13108C117.41 1.83093 117.035 1.59802 116.625 1.4463C115.006 0.842548 113.14 1.6763 112.461 3.3213L109.836 9.96005C109.776 10.1129 109.686 10.2523 109.571 10.3704C109.457 10.4884 109.32 10.5826 109.169 10.6478C109.018 10.7129 108.856 10.7476 108.692 10.75C108.527 10.7523 108.364 10.7222 108.211 10.6613L105.046 9.37505C104.726 9.24486 104.374 9.21327 104.035 9.2843C103.697 9.35534 103.387 9.52578 103.146 9.7738C100.561 12.4275 99.25 15.5325 99.25 19C99.2436 22.5496 100.616 25.9628 103.078 28.52C103.148 28.5936 103.233 28.652 103.328 28.6915C103.422 28.7311 103.523 28.751 103.625 28.75H125C125.17 28.7502 125.335 28.6927 125.468 28.587C125.6 28.4812 125.694 28.3335 125.732 28.168C125.77 28.0025 125.75 27.829 125.677 27.6759C125.604 27.5228 125.48 27.3991 125.328 27.325ZM104.221 10.815C104.256 10.7816 104.299 10.7588 104.346 10.7493C104.393 10.7397 104.442 10.7439 104.486 10.7613L107.661 12.0475C107.997 12.1821 108.357 12.249 108.719 12.2443C109.08 12.2397 109.438 12.1637 109.77 12.0206C110.103 11.8775 110.404 11.6702 110.656 11.4106C110.908 11.1509 111.107 10.8441 111.24 10.5075L113.865 3.88255C114.24 2.9913 115.24 2.5313 116.115 2.8563C116.336 2.93889 116.538 3.06523 116.708 3.22775C116.879 3.39026 117.015 3.5856 117.109 3.80204C117.202 4.01847 117.251 4.25155 117.252 4.48727C117.253 4.72299 117.206 4.95651 117.115 5.1738L114.445 11.8113C114.18 12.488 114.192 13.2422 114.48 13.9097C114.768 14.5771 115.308 15.1038 115.983 15.375L119.093 16.6038C119.139 16.6224 119.179 16.6547 119.207 16.6964C119.235 16.7381 119.25 16.7873 119.25 16.8375V19C119.25 19.1675 119.25 19.3313 119.26 19.5L102.593 12.8263C103.071 12.1062 103.616 11.4328 104.221 10.815ZM110.291 27.25C108.73 25.78 107.624 23.8928 107.104 21.8125C107.079 21.7172 107.036 21.6276 106.977 21.5489C106.917 21.4702 106.843 21.404 106.758 21.3539C106.674 21.3039 106.58 21.2711 106.482 21.2573C106.385 21.2436 106.285 21.2492 106.19 21.2738C106.095 21.2984 106.005 21.3416 105.926 21.4008C105.848 21.4601 105.781 21.5342 105.731 21.6191C105.681 21.7039 105.649 21.7978 105.635 21.8954C105.621 21.9929 105.627 22.0922 105.651 22.1875C106.122 24.0459 107.001 25.7756 108.226 27.25H103.945C101.885 24.9969 100.745 22.053 100.75 19C100.734 17.3187 101.107 15.6564 101.839 14.1425L119.419 21.175C119.813 23.665 120.89 25.7575 122.544 27.25H110.291Z" fill="currentColor"/>
<path d="M173.655 26.6513C171.015 25.375 169.5 22.58 169.5 19V16.8413C169.501 16.3403 169.351 15.8506 169.07 15.4361C168.788 15.0216 168.389 14.7015 167.923 14.5175L164.815 13.2913C164.693 13.2428 164.595 13.1482 164.542 13.0279C164.489 12.9077 164.486 12.7715 164.533 12.6488L167.199 6.02379C167.404 5.52734 167.506 4.99475 167.501 4.45777C167.495 3.92079 167.382 3.39041 167.167 2.89827C166.952 2.40612 166.64 1.96228 166.25 1.5932C165.86 1.22412 165.4 0.937371 164.896 0.750039C163.915 0.389039 162.832 0.42473 161.877 0.849529C160.922 1.27433 160.17 2.05476 159.781 3.02504L159.773 3.04754L157.148 9.68379C157.124 9.74519 157.088 9.80117 157.042 9.84841C156.996 9.89564 156.941 9.93318 156.88 9.95879C156.821 9.9848 156.758 9.99886 156.693 10.0002C156.629 10.0014 156.565 9.98993 156.505 9.96629L153.325 8.67879C152.867 8.49314 152.364 8.44832 151.88 8.55008C151.396 8.65183 150.953 8.89553 150.609 9.25004C147.883 12.0538 146.5 15.335 146.5 19C146.493 22.7426 147.94 26.3416 150.536 29.0375C150.677 29.1844 150.846 29.3011 151.033 29.3806C151.22 29.4602 151.422 29.5008 151.625 29.5H173C173.339 29.4997 173.668 29.3845 173.933 29.1731C174.199 28.9617 174.384 28.6667 174.46 28.3362C174.536 28.0056 174.498 27.6591 174.352 27.3531C174.206 27.0471 173.96 26.7997 173.655 26.6513ZM152.524 11.5913L155.383 12.75C155.81 12.9213 156.268 13.0063 156.728 13.0004C157.189 12.9944 157.644 12.8976 158.067 12.7154C158.491 12.5331 158.874 12.2692 159.195 11.9385C159.515 11.6079 159.768 11.2172 159.938 10.7888L162.556 4.16379C162.655 3.91809 162.843 3.71913 163.083 3.60742C163.323 3.49571 163.596 3.47966 163.848 3.56254C163.974 3.60928 164.089 3.68103 164.187 3.77347C164.285 3.86591 164.363 3.97715 164.417 4.10052C164.471 4.2239 164.499 4.35686 164.5 4.49145C164.501 4.62604 164.475 4.75948 164.424 4.88379C164.424 4.88837 164.424 4.89296 164.424 4.89754L161.75 11.5363C161.41 12.3986 161.426 13.3604 161.793 14.2114C162.16 15.0624 162.849 15.7334 163.71 16.0775L166.5 17.1813V19C166.5 19.125 166.5 19.2588 166.506 19.3875L151.201 13.2625C151.595 12.6695 152.037 12.1105 152.524 11.5913ZM158.593 26.5C157.246 25.1562 156.292 23.4708 155.831 21.625C155.732 21.2396 155.483 20.9095 155.14 20.7074C154.798 20.5052 154.389 20.4475 154.003 20.5469C153.618 20.6464 153.288 20.8948 153.085 21.2377C152.883 21.5805 152.826 21.9896 152.925 22.375C153.298 23.8401 153.91 25.2337 154.736 26.5H152.281C150.482 24.4161 149.495 21.7532 149.5 19C149.495 17.9801 149.639 16.9648 149.926 15.9863L167.01 22.8188C167.377 24.151 167.996 25.4006 168.833 26.5H158.593Z" fill="currentColor"/>
<path d="M221.438 27.1013C218.618 25.7263 217 22.7788 217 19.0013V16.8413C217.001 16.4405 216.881 16.0488 216.656 15.7172C216.431 15.3856 216.112 15.1296 215.739 14.9825L212.625 13.75C212.38 13.652 212.184 13.4612 212.079 13.2191C211.974 12.977 211.969 12.7033 212.065 12.4575L214.73 5.83252C214.911 5.3977 215.002 4.93084 214.998 4.45992C214.994 3.98899 214.896 3.52368 214.708 3.09185C214.52 2.66002 214.247 2.27056 213.905 1.94677C213.563 1.62299 213.159 1.37155 212.718 1.20752C211.858 0.892476 210.909 0.925163 210.073 1.29863C209.237 1.67211 208.579 2.35692 208.24 3.20752C208.24 3.21251 208.24 3.21753 208.24 3.22252L205.613 9.87502C205.515 10.1211 205.323 10.3184 205.08 10.4237C204.837 10.5289 204.563 10.5334 204.316 10.4363L201.139 9.14252C200.772 8.99407 200.37 8.9583 199.983 9.03981C199.597 9.12131 199.243 9.31637 198.968 9.60002C196.335 12.3063 195 15.4688 195 19C194.993 22.6137 196.391 26.0886 198.898 28.6913C198.991 28.7895 199.104 28.8675 199.229 28.9206C199.355 28.9736 199.489 29.0007 199.625 29H221C221.226 28.9998 221.445 28.923 221.622 28.7822C221.799 28.6414 221.923 28.4448 221.974 28.2246C222.024 28.0043 221.999 27.7733 221.902 27.5694C221.804 27.3654 221.641 27.2004 221.438 27.1013ZM206.389 27C204.9 25.5719 203.845 23.7519 203.346 21.75C203.277 21.4968 203.11 21.2811 202.883 21.1495C202.656 21.0179 202.386 20.9809 202.132 21.0466C201.878 21.1122 201.66 21.2752 201.524 21.5004C201.389 21.7256 201.348 21.9948 201.41 22.25C201.846 23.9722 202.627 25.588 203.705 27H200.055C198.083 24.8027 196.994 21.9527 197 19C196.988 17.4356 197.318 15.8874 197.966 14.4638L215.191 21.3538C215.566 23.6038 216.511 25.5388 217.928 26.9988L206.389 27Z" fill="currentColor"/>
<path opacity="0.2" d="M264.1 20.64L245.491 13.1963C246.092 12.138 246.829 11.1633 247.684 10.2975C247.822 10.1573 247.999 10.061 248.191 10.0207C248.384 9.98047 248.585 9.99805 248.767 10.0713L251.94 11.3563C252.185 11.4539 252.446 11.5023 252.71 11.4986C252.973 11.4949 253.233 11.4391 253.475 11.3346C253.717 11.2301 253.936 11.0788 254.119 10.8894C254.302 10.7001 254.446 10.4764 254.542 10.2313L257.167 3.59376C257.686 2.34376 259.101 1.67751 260.371 2.15251C260.686 2.2696 260.974 2.44893 261.218 2.67981C261.462 2.91068 261.657 3.18836 261.791 3.49626C261.926 3.80416 261.996 4.13596 262 4.47186C262.003 4.80775 261.938 5.14085 261.81 5.45126L259.141 12.0888C258.946 12.5808 258.954 13.1301 259.163 13.6163C259.373 14.1025 259.766 14.4859 260.257 14.6825L263.375 15.9125C263.56 15.9873 263.718 16.1157 263.83 16.2812C263.941 16.4467 264 16.6418 264 16.8413V19C263.999 19.5482 264.032 20.096 264.1 20.64Z" fill="currentColor"/>
<path d="M269.438 27.1013C266.618 25.7263 265 22.7788 265 19.0013V16.8413C265.001 16.4405 264.881 16.0488 264.656 15.7172C264.431 15.3856 264.112 15.1296 263.739 14.9825L260.625 13.75C260.38 13.652 260.184 13.4612 260.079 13.2191C259.974 12.977 259.969 12.7033 260.065 12.4575L262.73 5.83252C262.911 5.3977 263.002 4.93084 262.998 4.45992C262.994 3.98899 262.896 3.52368 262.708 3.09185C262.52 2.66002 262.247 2.27056 261.905 1.94677C261.563 1.62299 261.159 1.37155 260.718 1.20752C259.858 0.892476 258.909 0.925163 258.073 1.29863C257.237 1.67211 256.579 2.35692 256.24 3.20752C256.24 3.21251 256.24 3.21753 256.24 3.22252L253.613 9.87502C253.515 10.1211 253.323 10.3184 253.08 10.4237C252.837 10.5289 252.563 10.5334 252.316 10.4363L249.139 9.14252C248.772 8.99407 248.37 8.9583 247.983 9.03981C247.597 9.12131 247.243 9.31637 246.968 9.60002C244.335 12.3063 243 15.4688 243 19C242.993 22.6137 244.391 26.0886 246.898 28.6913C246.991 28.7895 247.104 28.8675 247.229 28.9206C247.355 28.9736 247.489 29.0007 247.625 29H269C269.226 28.9998 269.445 28.923 269.622 28.7822C269.799 28.6414 269.923 28.4448 269.974 28.2246C270.024 28.0043 269.999 27.7733 269.902 27.5694C269.804 27.3654 269.641 27.2004 269.438 27.1013ZM248.393 11L251.569 12.2875C251.935 12.4342 252.327 12.507 252.722 12.5019C253.117 12.4967 253.507 12.4137 253.87 12.2575C254.232 12.1013 254.561 11.875 254.836 11.5917C255.111 11.3083 255.327 10.9734 255.473 10.6063L258.098 3.98127C258.418 3.21752 259.281 2.82252 260.026 3.10627C260.216 3.17674 260.39 3.28496 260.537 3.42439C260.684 3.56382 260.801 3.73158 260.881 3.91754C260.962 4.10351 261.004 4.30382 261.004 4.50641C261.005 4.70899 260.965 4.90965 260.886 5.09627L258.211 11.72C257.918 12.4589 257.931 13.2837 258.245 14.0135C258.56 14.7433 259.152 15.3184 259.89 15.6125L263 16.8413V19C263 19.0413 263 19.0825 263 19.125L246.971 12.7138C247.397 12.1047 247.873 11.5315 248.393 11ZM254.393 27C252.904 25.5719 251.849 23.7519 251.35 21.75C251.28 21.4968 251.114 21.2811 250.887 21.1495C250.66 21.0179 250.39 20.9809 250.136 21.0466C249.881 21.1122 249.663 21.2752 249.528 21.5004C249.393 21.7256 249.352 21.9948 249.414 22.25C249.85 23.9722 250.631 25.588 251.709 27H248.055C246.083 24.8027 244.994 21.9527 245 19C244.988 17.4356 245.318 15.8874 245.966 14.4638L263.191 21.3538C263.566 23.6038 264.511 25.5388 265.928 26.9988L254.393 27Z" fill="currentColor"/>
</g>
<defs>
<clipPath id="clip0_17_8593">
<rect width="272" height="32" rx="5" fill="white"/>
</clipPath>
</defs>
</svg>
