<svg width="272" height="32" viewBox="0 0 272 32" fill="none" xmlns="http://www.w3.org/2000/svg">
<g clip-path="url(#clip0_17_8579)">
<path d="M30 26H28V12C28 11.4695 27.7893 10.9608 27.4142 10.5857C27.0391 10.2107 26.5304 9.99996 26 9.99996H18V3.99996C18.0002 3.63779 17.9021 3.28235 17.7161 2.97158C17.5301 2.66082 17.2633 2.40638 16.944 2.23544C16.6247 2.06451 16.265 1.98347 15.9032 2.001C15.5415 2.01853 15.1913 2.13395 14.89 2.33496L4.89 8.99996C4.61567 9.18298 4.39086 9.431 4.23558 9.72193C4.0803 10.0129 3.99937 10.3377 4 10.6675V26H2C1.73478 26 1.48043 26.1053 1.29289 26.2929C1.10536 26.4804 1 26.7347 1 27C1 27.2652 1.10536 27.5195 1.29289 27.7071C1.48043 27.8946 1.73478 28 2 28H30C30.2652 28 30.5196 27.8946 30.7071 27.7071C30.8946 27.5195 31 27.2652 31 27C31 26.7347 30.8946 26.4804 30.7071 26.2929C30.5196 26.1053 30.2652 26 30 26ZM26 12V26H18V12H26ZM6 10.6675L16 3.99996V26H6V10.6675ZM14 14V16C14 16.2652 13.8946 16.5195 13.7071 16.7071C13.5196 16.8946 13.2652 17 13 17C12.7348 17 12.4804 16.8946 12.2929 16.7071C12.1054 16.5195 12 16.2652 12 16V14C12 13.7347 12.1054 13.4804 12.2929 13.2929C12.4804 13.1053 12.7348 13 13 13C13.2652 13 13.5196 13.1053 13.7071 13.2929C13.8946 13.4804 14 13.7347 14 14ZM10 14V16C10 16.2652 9.89464 16.5195 9.70711 16.7071C9.51957 16.8946 9.26522 17 9 17C8.73478 17 8.48043 16.8946 8.29289 16.7071C8.10536 16.5195 8 16.2652 8 16V14C8 13.7347 8.10536 13.4804 8.29289 13.2929C8.48043 13.1053 8.73478 13 9 13C9.26522 13 9.51957 13.1053 9.70711 13.2929C9.89464 13.4804 10 13.7347 10 14ZM10 21V23C10 23.2652 9.89464 23.5195 9.70711 23.7071C9.51957 23.8946 9.26522 24 9 24C8.73478 24 8.48043 23.8946 8.29289 23.7071C8.10536 23.5195 8 23.2652 8 23V21C8 20.7347 8.10536 20.4804 8.29289 20.2929C8.48043 20.1053 8.73478 20 9 20C9.26522 20 9.51957 20.1053 9.70711 20.2929C9.89464 20.4804 10 20.7347 10 21ZM14 21V23C14 23.2652 13.8946 23.5195 13.7071 23.7071C13.5196 23.8946 13.2652 24 13 24C12.7348 24 12.4804 23.8946 12.2929 23.7071C12.1054 23.5195 12 23.2652 12 23V21C12 20.7347 12.1054 20.4804 12.2929 20.2929C12.4804 20.1053 12.7348 20 13 20C13.2652 20 13.5196 20.1053 13.7071 20.2929C13.8946 20.4804 14 20.7347 14 21Z" fill="currentColor"/>
<path d="M78 26.5H75.5V12C75.5 11.6022 75.342 11.2207 75.0607 10.9394C74.7794 10.6581 74.3978 10.5 74 10.5H65.5V4.00003C65.5004 3.72829 65.427 3.46155 65.2876 3.2283C65.1482 2.99505 64.948 2.80404 64.7085 2.67569C64.469 2.54733 64.1991 2.48645 63.9277 2.49955C63.6563 2.51264 63.3935 2.59922 63.1675 2.75003L53.1675 9.41628C52.9618 9.55349 52.7933 9.73941 52.6768 9.95749C52.5604 10.1756 52.4996 10.4191 52.5 10.6663V26.5H50C49.8674 26.5 49.7402 26.5527 49.6464 26.6465C49.5527 26.7402 49.5 26.8674 49.5 27C49.5 27.1326 49.5527 27.2598 49.6464 27.3536C49.7402 27.4474 49.8674 27.5 50 27.5H78C78.1326 27.5 78.2598 27.4474 78.3536 27.3536C78.4473 27.2598 78.5 27.1326 78.5 27C78.5 26.8674 78.4473 26.7402 78.3536 26.6465C78.2598 26.5527 78.1326 26.5 78 26.5ZM74 11.5C74.1326 11.5 74.2598 11.5527 74.3536 11.6465C74.4473 11.7402 74.5 11.8674 74.5 12V26.5H65.5V11.5H74ZM53.5 10.6675C53.4997 10.585 53.5199 10.5036 53.5587 10.4308C53.5976 10.3579 53.6538 10.2958 53.7225 10.25L63.7225 3.58378C63.7978 3.53353 63.8854 3.50467 63.9758 3.50029C64.0662 3.49591 64.1562 3.51617 64.236 3.5589C64.3158 3.60164 64.3825 3.66524 64.429 3.74293C64.4755 3.82063 64.5001 3.90949 64.5 4.00003V26.5H53.5V10.6675ZM61.5 14V16C61.5 16.1326 61.4473 16.2598 61.3536 16.3536C61.2598 16.4474 61.1326 16.5 61 16.5C60.8674 16.5 60.7402 16.4474 60.6464 16.3536C60.5527 16.2598 60.5 16.1326 60.5 16V14C60.5 13.8674 60.5527 13.7402 60.6464 13.6465C60.7402 13.5527 60.8674 13.5 61 13.5C61.1326 13.5 61.2598 13.5527 61.3536 13.6465C61.4473 13.7402 61.5 13.8674 61.5 14ZM57.5 14V16C57.5 16.1326 57.4473 16.2598 57.3536 16.3536C57.2598 16.4474 57.1326 16.5 57 16.5C56.8674 16.5 56.7402 16.4474 56.6464 16.3536C56.5527 16.2598 56.5 16.1326 56.5 16V14C56.5 13.8674 56.5527 13.7402 56.6464 13.6465C56.7402 13.5527 56.8674 13.5 57 13.5C57.1326 13.5 57.2598 13.5527 57.3536 13.6465C57.4473 13.7402 57.5 13.8674 57.5 14ZM57.5 21V23C57.5 23.1326 57.4473 23.2598 57.3536 23.3536C57.2598 23.4474 57.1326 23.5 57 23.5C56.8674 23.5 56.7402 23.4474 56.6464 23.3536C56.5527 23.2598 56.5 23.1326 56.5 23V21C56.5 20.8674 56.5527 20.7402 56.6464 20.6465C56.7402 20.5527 56.8674 20.5 57 20.5C57.1326 20.5 57.2598 20.5527 57.3536 20.6465C57.4473 20.7402 57.5 20.8674 57.5 21ZM61.5 21V23C61.5 23.1326 61.4473 23.2598 61.3536 23.3536C61.2598 23.4474 61.1326 23.5 61 23.5C60.8674 23.5 60.7402 23.4474 60.6464 23.3536C60.5527 23.2598 60.5 23.1326 60.5 23V21C60.5 20.8674 60.5527 20.7402 60.6464 20.6465C60.7402 20.5527 60.8674 20.5 61 20.5C61.1326 20.5 61.2598 20.5527 61.3536 20.6465C61.4473 20.7402 61.5 20.8674 61.5 21Z" fill="currentColor"/>
<path d="M126 26.25H123.75V12C123.75 11.5359 123.566 11.0907 123.237 10.7626C122.909 10.4344 122.464 10.25 122 10.25H113.75V3.99999C113.75 3.68325 113.664 3.37249 113.501 3.10084C113.338 2.82918 113.104 2.60683 112.825 2.45748C112.546 2.30813 112.231 2.23739 111.915 2.25281C111.598 2.26822 111.292 2.3692 111.029 2.54499L101.029 9.21125C100.789 9.37113 100.593 9.5877 100.457 9.84174C100.321 10.0958 100.25 10.3794 100.25 10.6675V26.25H98C97.8011 26.25 97.6103 26.329 97.4697 26.4697C97.329 26.6103 97.25 26.8011 97.25 27C97.25 27.1989 97.329 27.3897 97.4697 27.5303C97.6103 27.671 97.8011 27.75 98 27.75H126C126.199 27.75 126.39 27.671 126.53 27.5303C126.671 27.3897 126.75 27.1989 126.75 27C126.75 26.8011 126.671 26.6103 126.53 26.4697C126.39 26.329 126.199 26.25 126 26.25ZM122 11.75C122.066 11.75 122.13 11.7763 122.177 11.8232C122.224 11.8701 122.25 11.9337 122.25 12V26.25H113.75V11.75H122ZM101.75 10.6675C101.75 10.6264 101.76 10.586 101.78 10.5498C101.799 10.5136 101.827 10.4828 101.861 10.46L111.861 3.79249C111.899 3.7674 111.943 3.75297 111.988 3.75076C112.033 3.74854 112.078 3.75862 112.118 3.77991C112.158 3.8012 112.191 3.83291 112.214 3.87167C112.238 3.91043 112.25 3.95478 112.25 3.99999V26.25H101.75V10.6675ZM109.75 14V16C109.75 16.1989 109.671 16.3897 109.53 16.5303C109.39 16.671 109.199 16.75 109 16.75C108.801 16.75 108.61 16.671 108.47 16.5303C108.329 16.3897 108.25 16.1989 108.25 16V14C108.25 13.8011 108.329 13.6103 108.47 13.4697C108.61 13.329 108.801 13.25 109 13.25C109.199 13.25 109.39 13.329 109.53 13.4697C109.671 13.6103 109.75 13.8011 109.75 14ZM105.75 14V16C105.75 16.1989 105.671 16.3897 105.53 16.5303C105.39 16.671 105.199 16.75 105 16.75C104.801 16.75 104.61 16.671 104.47 16.5303C104.329 16.3897 104.25 16.1989 104.25 16V14C104.25 13.8011 104.329 13.6103 104.47 13.4697C104.61 13.329 104.801 13.25 105 13.25C105.199 13.25 105.39 13.329 105.53 13.4697C105.671 13.6103 105.75 13.8011 105.75 14ZM105.75 21V23C105.75 23.1989 105.671 23.3897 105.53 23.5303C105.39 23.671 105.199 23.75 105 23.75C104.801 23.75 104.61 23.671 104.47 23.5303C104.329 23.3897 104.25 23.1989 104.25 23V21C104.25 20.8011 104.329 20.6103 104.47 20.4697C104.61 20.329 104.801 20.25 105 20.25C105.199 20.25 105.39 20.329 105.53 20.4697C105.671 20.6103 105.75 20.8011 105.75 21ZM109.75 21V23C109.75 23.1989 109.671 23.3897 109.53 23.5303C109.39 23.671 109.199 23.75 109 23.75C108.801 23.75 108.61 23.671 108.47 23.5303C108.329 23.3897 108.25 23.1989 108.25 23V21C108.25 20.8011 108.329 20.6103 108.47 20.4697C108.61 20.329 108.801 20.25 109 20.25C109.199 20.25 109.39 20.329 109.53 20.4697C109.671 20.6103 109.75 20.8011 109.75 21Z" fill="currentColor"/>
<path d="M174 25.4999H172.5V11.9999C172.5 11.3369 172.237 10.701 171.768 10.2322C171.299 9.76334 170.663 9.49995 170 9.49995H165.5V3.99995C165.5 3.57969 165.394 3.16626 165.192 2.79786C164.989 2.42946 164.697 2.11798 164.343 1.89222C163.989 1.66646 163.583 1.5337 163.164 1.50621C162.744 1.47872 162.325 1.55739 161.944 1.73495L148.944 7.80245C148.513 8.0043 148.148 8.32457 147.893 8.72586C147.637 9.12715 147.501 9.59289 147.5 10.0687V25.4999H146C145.602 25.4999 145.221 25.658 144.939 25.9393C144.658 26.2206 144.5 26.6021 144.5 26.9999C144.5 27.3978 144.658 27.7793 144.939 28.0606C145.221 28.3419 145.602 28.4999 146 28.4999H174C174.398 28.4999 174.779 28.3419 175.061 28.0606C175.342 27.7793 175.5 27.3978 175.5 26.9999C175.5 26.6021 175.342 26.2206 175.061 25.9393C174.779 25.658 174.398 25.4999 174 25.4999ZM169.5 12.4999V25.4999H165.5V12.4999H169.5ZM150.5 10.3862L162.5 4.78745V25.4999H150.5V10.3862ZM160.5 13.9999V15.4999C160.5 15.8978 160.342 16.2793 160.061 16.5606C159.779 16.8419 159.398 16.9999 159 16.9999C158.602 16.9999 158.221 16.8419 157.939 16.5606C157.658 16.2793 157.5 15.8978 157.5 15.4999V13.9999C157.5 13.6021 157.658 13.2206 157.939 12.9393C158.221 12.658 158.602 12.4999 159 12.4999C159.398 12.4999 159.779 12.658 160.061 12.9393C160.342 13.2206 160.5 13.6021 160.5 13.9999ZM155.5 13.9999V15.4999C155.5 15.8978 155.342 16.2793 155.061 16.5606C154.779 16.8419 154.398 16.9999 154 16.9999C153.602 16.9999 153.221 16.8419 152.939 16.5606C152.658 16.2793 152.5 15.8978 152.5 15.4999V13.9999C152.5 13.6021 152.658 13.2206 152.939 12.9393C153.221 12.658 153.602 12.4999 154 12.4999C154.398 12.4999 154.779 12.658 155.061 12.9393C155.342 13.2206 155.5 13.6021 155.5 13.9999ZM155.5 20.4999V21.9999C155.5 22.3978 155.342 22.7793 155.061 23.0606C154.779 23.3419 154.398 23.4999 154 23.4999C153.602 23.4999 153.221 23.3419 152.939 23.0606C152.658 22.7793 152.5 22.3978 152.5 21.9999V20.4999C152.5 20.1021 152.658 19.7206 152.939 19.4393C153.221 19.158 153.602 18.9999 154 18.9999C154.398 18.9999 154.779 19.158 155.061 19.4393C155.342 19.7206 155.5 20.1021 155.5 20.4999ZM160.5 20.4999V21.9999C160.5 22.3978 160.342 22.7793 160.061 23.0606C159.779 23.3419 159.398 23.4999 159 23.4999C158.602 23.4999 158.221 23.3419 157.939 23.0606C157.658 22.7793 157.5 22.3978 157.5 21.9999V20.4999C157.5 20.1021 157.658 19.7206 157.939 19.4393C158.221 19.158 158.602 18.9999 159 18.9999C159.398 18.9999 159.779 19.158 160.061 19.4393C160.342 19.7206 160.5 20.1021 160.5 20.4999Z" fill="currentColor"/>
<path d="M221.966 26H220V12C220 11.4696 219.789 10.9609 219.414 10.5858C219.039 10.2107 218.53 10 218 10H212.5C212.367 10 212.24 10.0527 212.146 10.1465C212.053 10.2402 212 10.3674 212 10.5V26H210V4.05127C210.003 3.73975 209.936 3.43155 209.802 3.15002C209.669 2.86849 209.473 2.62099 209.23 2.42627C208.899 2.16782 208.494 2.02038 208.074 2.0049C207.654 1.98941 207.24 2.10667 206.89 2.34002L196.89 9.00002C196.616 9.18305 196.391 9.43107 196.236 9.722C196.08 10.0129 195.999 10.3377 196 10.6675V26H194.034C193.775 25.9962 193.525 26.0904 193.333 26.2636C193.141 26.4369 193.022 26.6763 193 26.9338C192.991 27.0706 193.01 27.2078 193.056 27.3368C193.102 27.4659 193.175 27.5841 193.268 27.6841C193.362 27.7841 193.476 27.8637 193.601 27.9181C193.727 27.9724 193.863 28.0003 194 28H222C222.137 28.0003 222.273 27.9724 222.399 27.9181C222.524 27.8637 222.638 27.7841 222.732 27.6841C222.825 27.5841 222.898 27.4659 222.944 27.3368C222.99 27.2078 223.009 27.0706 223 26.9338C222.978 26.6763 222.859 26.4369 222.667 26.2636C222.475 26.0904 222.225 25.9962 221.966 26ZM201.5 23C201.5 23.1371 201.472 23.2728 201.418 23.3987C201.364 23.5245 201.284 23.6378 201.184 23.7316C201.084 23.8254 200.966 23.8976 200.837 23.9438C200.708 23.99 200.571 24.0091 200.434 24C200.176 23.9776 199.936 23.8584 199.763 23.6663C199.59 23.4742 199.496 23.2237 199.5 22.965V21.0338C199.496 20.7754 199.591 20.5253 199.764 20.3336C199.937 20.1419 200.176 20.0227 200.434 20C200.571 19.9909 200.708 20.0101 200.837 20.0563C200.966 20.1024 201.084 20.1746 201.184 20.2684C201.284 20.3622 201.364 20.4755 201.418 20.6014C201.472 20.7273 201.5 20.8629 201.5 21V23ZM201.5 16C201.5 16.1371 201.472 16.2728 201.418 16.3987C201.364 16.5245 201.284 16.6378 201.184 16.7316C201.084 16.8254 200.966 16.8976 200.837 16.9438C200.708 16.99 200.571 17.0091 200.434 17C200.176 16.9773 199.937 16.858 199.764 16.666C199.59 16.474 199.496 16.2236 199.5 15.965V14.0338C199.496 13.7754 199.591 13.5253 199.764 13.3336C199.937 13.1419 200.176 13.0227 200.434 13C200.571 12.9909 200.708 13.0101 200.837 13.0563C200.966 13.1024 201.084 13.1746 201.184 13.2684C201.284 13.3622 201.364 13.4755 201.418 13.6014C201.472 13.7273 201.5 13.8629 201.5 14V16ZM206.5 23C206.5 23.1371 206.472 23.2728 206.418 23.3987C206.364 23.5245 206.284 23.6378 206.184 23.7316C206.084 23.8254 205.966 23.8976 205.837 23.9438C205.708 23.99 205.571 24.0091 205.434 24C205.176 23.9776 204.937 23.8587 204.764 23.6672C204.591 23.4757 204.497 23.2257 204.5 22.9675V21.0338C204.497 20.7757 204.591 20.5258 204.764 20.3344C204.938 20.1429 205.177 20.0239 205.434 20.0013C205.571 19.9922 205.708 20.0113 205.837 20.0575C205.966 20.1037 206.084 20.1759 206.184 20.2697C206.284 20.3635 206.364 20.4768 206.418 20.6026C206.472 20.7285 206.5 20.8642 206.5 21.0013V23ZM206.5 16C206.5 16.1371 206.472 16.2728 206.418 16.3987C206.364 16.5245 206.284 16.6378 206.184 16.7316C206.084 16.8254 205.966 16.8976 205.837 16.9438C205.708 16.99 205.571 17.0091 205.434 17C205.177 16.9773 204.938 16.8584 204.764 16.6669C204.591 16.4754 204.497 16.2256 204.5 15.9675V14.0338C204.497 13.7757 204.591 13.5258 204.764 13.3344C204.938 13.1429 205.177 13.0239 205.434 13.0013C205.571 12.9922 205.708 13.0113 205.837 13.0575C205.966 13.1037 206.084 13.1759 206.184 13.2697C206.284 13.3635 206.364 13.4768 206.418 13.6026C206.472 13.7285 206.5 13.8642 206.5 14.0013V16Z" fill="currentColor"/>
<path opacity="0.2" d="M257 3.99998V27H245V10.6687C245 10.5041 245.04 10.3419 245.118 10.1967C245.196 10.0514 245.308 9.92763 245.445 9.83623L255.445 3.16998C255.595 3.0696 255.77 3.0119 255.951 3.00303C256.132 2.99417 256.311 3.03447 256.471 3.11964C256.63 3.20481 256.764 3.33166 256.857 3.48669C256.95 3.64171 257 3.81911 257 3.99998Z" fill="currentColor"/>
<path d="M270 26H268V12C268 11.4695 267.789 10.9608 267.414 10.5857C267.039 10.2107 266.53 9.99996 266 9.99996H258V3.99996C258 3.63779 257.902 3.28235 257.716 2.97158C257.53 2.66082 257.263 2.40638 256.944 2.23544C256.625 2.06451 256.265 1.98347 255.903 2.001C255.541 2.01853 255.191 2.13395 254.89 2.33496L244.89 8.99996C244.616 9.18298 244.391 9.431 244.236 9.72193C244.08 10.0129 243.999 10.3377 244 10.6675V26H242C241.735 26 241.48 26.1053 241.293 26.2929C241.105 26.4804 241 26.7347 241 27C241 27.2652 241.105 27.5195 241.293 27.7071C241.48 27.8946 241.735 28 242 28H270C270.265 28 270.52 27.8946 270.707 27.7071C270.895 27.5195 271 27.2652 271 27C271 26.7347 270.895 26.4804 270.707 26.2929C270.52 26.1053 270.265 26 270 26ZM266 12V26H258V12H266ZM246 10.6675L256 3.99996V26H246V10.6675ZM254 14V16C254 16.2652 253.895 16.5195 253.707 16.7071C253.52 16.8946 253.265 17 253 17C252.735 17 252.48 16.8946 252.293 16.7071C252.105 16.5195 252 16.2652 252 16V14C252 13.7347 252.105 13.4804 252.293 13.2929C252.48 13.1053 252.735 13 253 13C253.265 13 253.52 13.1053 253.707 13.2929C253.895 13.4804 254 13.7347 254 14ZM250 14V16C250 16.2652 249.895 16.5195 249.707 16.7071C249.52 16.8946 249.265 17 249 17C248.735 17 248.48 16.8946 248.293 16.7071C248.105 16.5195 248 16.2652 248 16V14C248 13.7347 248.105 13.4804 248.293 13.2929C248.48 13.1053 248.735 13 249 13C249.265 13 249.52 13.1053 249.707 13.2929C249.895 13.4804 250 13.7347 250 14ZM250 21V23C250 23.2652 249.895 23.5195 249.707 23.7071C249.52 23.8946 249.265 24 249 24C248.735 24 248.48 23.8946 248.293 23.7071C248.105 23.5195 248 23.2652 248 23V21C248 20.7347 248.105 20.4804 248.293 20.2929C248.48 20.1053 248.735 20 249 20C249.265 20 249.52 20.1053 249.707 20.2929C249.895 20.4804 250 20.7347 250 21ZM254 21V23C254 23.2652 253.895 23.5195 253.707 23.7071C253.52 23.8946 253.265 24 253 24C252.735 24 252.48 23.8946 252.293 23.7071C252.105 23.5195 252 23.2652 252 23V21C252 20.7347 252.105 20.4804 252.293 20.2929C252.48 20.1053 252.735 20 253 20C253.265 20 253.52 20.1053 253.707 20.2929C253.895 20.4804 254 20.7347 254 21Z" fill="currentColor"/>
</g>
<defs>
<clipPath id="clip0_17_8579">
<rect width="272" height="32" rx="5" fill="white"/>
</clipPath>
</defs>
</svg>
