<svg width="272" height="32" viewBox="0 0 272 32" fill="none" xmlns="http://www.w3.org/2000/svg">
<g clip-path="url(#clip0_17_8551)">
<path d="M3 23H29C29.2652 23 29.5196 22.8946 29.7071 22.7071C29.8946 22.5196 30 22.2652 30 22C30 21.7348 29.8946 21.4804 29.7071 21.2929C29.5196 21.1054 29.2652 21 29 21H28V19C27.9964 15.9916 26.8643 13.0941 24.8276 10.8801C22.7908 8.66605 19.9976 7.29664 17 7.0425V5H19C19.2652 5 19.5196 4.89464 19.7071 4.70711C19.8946 4.51957 20 4.26522 20 4C20 3.73478 19.8946 3.48043 19.7071 3.29289C19.5196 3.10536 19.2652 3 19 3H13C12.7348 3 12.4804 3.10536 12.2929 3.29289C12.1054 3.48043 12 3.73478 12 4C12 4.26522 12.1054 4.51957 12.2929 4.70711C12.4804 4.89464 12.7348 5 13 5H15V7.0425C12.0024 7.29664 9.20919 8.66605 7.17245 10.8801C5.13571 13.0941 4.00364 15.9916 4 19V21H3C2.73478 21 2.48043 21.1054 2.29289 21.2929C2.10536 21.4804 2 21.7348 2 22C2 22.2652 2.10536 22.5196 2.29289 22.7071C2.48043 22.8946 2.73478 23 3 23ZM6 19C6 16.3478 7.05357 13.8043 8.92893 11.9289C10.8043 10.0536 13.3478 9 16 9C18.6522 9 21.1957 10.0536 23.0711 11.9289C24.9464 13.8043 26 16.3478 26 19V21H6V19ZM30 26C30 26.2652 29.8946 26.5196 29.7071 26.7071C29.5196 26.8946 29.2652 27 29 27H3C2.73478 27 2.48043 26.8946 2.29289 26.7071C2.10536 26.5196 2 26.2652 2 26C2 25.7348 2.10536 25.4804 2.29289 25.2929C2.48043 25.1054 2.73478 25 3 25H29C29.2652 25 29.5196 25.1054 29.7071 25.2929C29.8946 25.4804 30 25.7348 30 26Z" fill="currentColor"/>
<path d="M51 22.5H77C77.1326 22.5 77.2598 22.4473 77.3536 22.3536C77.4473 22.2598 77.5 22.1326 77.5 22C77.5 21.8674 77.4473 21.7402 77.3536 21.6464C77.2598 21.5527 77.1326 21.5 77 21.5H75.5V19C75.4965 16.0376 74.3514 13.1906 72.3027 11.0509C70.254 8.91118 67.4594 7.64343 64.5 7.51125V4.5H67C67.1326 4.5 67.2598 4.44732 67.3536 4.35355C67.4473 4.25979 67.5 4.13261 67.5 4C67.5 3.86739 67.4473 3.74021 67.3536 3.64645C67.2598 3.55268 67.1326 3.5 67 3.5H61C60.8674 3.5 60.7402 3.55268 60.6464 3.64645C60.5527 3.74021 60.5 3.86739 60.5 4C60.5 4.13261 60.5527 4.25979 60.6464 4.35355C60.7402 4.44732 60.8674 4.5 61 4.5H63.5V7.51125C60.5406 7.64343 57.746 8.91118 55.6973 11.0509C53.6486 13.1906 52.5035 16.0376 52.5 19V21.5H51C50.8674 21.5 50.7402 21.5527 50.6464 21.6464C50.5527 21.7402 50.5 21.8674 50.5 22C50.5 22.1326 50.5527 22.2598 50.6464 22.3536C50.7402 22.4473 50.8674 22.5 51 22.5ZM53.5 19C53.5 16.2152 54.6062 13.5445 56.5754 11.5754C58.5445 9.60625 61.2152 8.5 64 8.5C66.7848 8.5 69.4555 9.60625 71.4246 11.5754C73.3938 13.5445 74.5 16.2152 74.5 19V21.5H53.5V19ZM77.5 26C77.5 26.1326 77.4473 26.2598 77.3536 26.3536C77.2598 26.4473 77.1326 26.5 77 26.5H51C50.8674 26.5 50.7402 26.4473 50.6464 26.3536C50.5527 26.2598 50.5 26.1326 50.5 26C50.5 25.8674 50.5527 25.7402 50.6464 25.6464C50.7402 25.5527 50.8674 25.5 51 25.5H77C77.1326 25.5 77.2598 25.5527 77.3536 25.6464C77.4473 25.7402 77.5 25.8674 77.5 26Z" fill="currentColor"/>
<path d="M99 22.75H125C125.199 22.75 125.39 22.671 125.53 22.5303C125.671 22.3897 125.75 22.1989 125.75 22C125.75 21.8011 125.671 21.6103 125.53 21.4697C125.39 21.329 125.199 21.25 125 21.25H123.75V19C123.747 16.0146 122.608 13.1421 120.566 10.9649C118.523 8.78762 115.729 7.46853 112.75 7.275V4.75H115C115.199 4.75 115.39 4.67098 115.53 4.53033C115.671 4.38968 115.75 4.19891 115.75 4C115.75 3.80109 115.671 3.61032 115.53 3.46967C115.39 3.32902 115.199 3.25 115 3.25H109C108.801 3.25 108.61 3.32902 108.47 3.46967C108.329 3.61032 108.25 3.80109 108.25 4C108.25 4.19891 108.329 4.38968 108.47 4.53033C108.61 4.67098 108.801 4.75 109 4.75H111.25V7.275C108.271 7.46853 105.477 8.78762 103.434 10.9649C101.392 13.1421 100.253 16.0146 100.25 19V21.25H99C98.8011 21.25 98.6103 21.329 98.4697 21.4697C98.329 21.6103 98.25 21.8011 98.25 22C98.25 22.1989 98.329 22.3897 98.4697 22.5303C98.6103 22.671 98.8011 22.75 99 22.75ZM101.75 19C101.75 16.2815 102.83 13.6744 104.752 11.7522C106.674 9.82991 109.282 8.75 112 8.75C114.718 8.75 117.326 9.82991 119.248 11.7522C121.17 13.6744 122.25 16.2815 122.25 19V21.25H101.75V19ZM125.75 26C125.75 26.1989 125.671 26.3897 125.53 26.5303C125.39 26.671 125.199 26.75 125 26.75H99C98.8011 26.75 98.6103 26.671 98.4697 26.5303C98.329 26.3897 98.25 26.1989 98.25 26C98.25 25.8011 98.329 25.6103 98.4697 25.4697C98.6103 25.329 98.8011 25.25 99 25.25H125C125.199 25.25 125.39 25.329 125.53 25.4697C125.671 25.6103 125.75 25.8011 125.75 26Z" fill="currentColor"/>
<path d="M147 22.5H173C173.398 22.5 173.779 22.342 174.061 22.0607C174.342 21.7794 174.5 21.3978 174.5 21C174.5 20.6022 174.342 20.2206 174.061 19.9393C173.779 19.658 173.398 19.5 173 19.5H172.489C172.366 16.5344 171.194 13.7088 169.181 11.5274C167.168 9.34592 164.446 7.95048 161.5 7.59V5.5H163C163.398 5.5 163.779 5.34196 164.061 5.06066C164.342 4.77936 164.5 4.39782 164.5 4C164.5 3.60218 164.342 3.22064 164.061 2.93934C163.779 2.65804 163.398 2.5 163 2.5H157C156.602 2.5 156.221 2.65804 155.939 2.93934C155.658 3.22064 155.5 3.60218 155.5 4C155.5 4.39782 155.658 4.77936 155.939 5.06066C156.221 5.34196 156.602 5.5 157 5.5H158.5V7.59C155.554 7.95048 152.832 9.34592 150.819 11.5274C148.806 13.7088 147.634 16.5344 147.511 19.5H147C146.602 19.5 146.221 19.658 145.939 19.9393C145.658 20.2206 145.5 20.6022 145.5 21C145.5 21.3978 145.658 21.7794 145.939 22.0607C146.221 22.342 146.602 22.5 147 22.5ZM160 10.5C162.432 10.5029 164.771 11.4373 166.535 13.1113C168.299 14.7852 169.356 17.0714 169.486 19.5H150.514C150.644 17.0714 151.701 14.7852 153.465 13.1113C155.229 11.4373 157.568 10.5029 160 10.5ZM174.5 26C174.5 26.3978 174.342 26.7794 174.061 27.0607C173.779 27.342 173.398 27.5 173 27.5H147C146.602 27.5 146.221 27.342 145.939 27.0607C145.658 26.7794 145.5 26.3978 145.5 26C145.5 25.6022 145.658 25.2206 145.939 24.9393C146.221 24.658 146.602 24.5 147 24.5H173C173.398 24.5 173.779 24.658 174.061 24.9393C174.342 25.2206 174.5 25.6022 174.5 26Z" fill="currentColor"/>
<path d="M194 22C194 21.7348 194.105 21.4804 194.293 21.2929C194.48 21.1054 194.735 21 195 21H196V19C196.004 15.9916 197.136 13.0941 199.172 10.8801C201.209 8.66605 204.002 7.29664 207 7.0425V5H205C204.735 5 204.48 4.89464 204.293 4.70711C204.105 4.51957 204 4.26522 204 4C204 3.73478 204.105 3.48043 204.293 3.29289C204.48 3.10536 204.735 3 205 3H211C211.265 3 211.52 3.10536 211.707 3.29289C211.895 3.48043 212 3.73478 212 4C212 4.26522 211.895 4.51957 211.707 4.70711C211.52 4.89464 211.265 5 211 5H209V7.0425C211.998 7.29664 214.791 8.66605 216.828 10.8801C218.864 13.0941 219.996 15.9916 220 19V21H221C221.265 21 221.52 21.1054 221.707 21.2929C221.895 21.4804 222 21.7348 222 22C222 22.2652 221.895 22.5196 221.707 22.7071C221.52 22.8946 221.265 23 221 23H195C194.735 23 194.48 22.8946 194.293 22.7071C194.105 22.5196 194 22.2652 194 22ZM221 25H195C194.735 25 194.48 25.1054 194.293 25.2929C194.105 25.4804 194 25.7348 194 26C194 26.2652 194.105 26.5196 194.293 26.7071C194.48 26.8946 194.735 27 195 27H221C221.265 27 221.52 26.8946 221.707 26.7071C221.895 26.5196 222 26.2652 222 26C222 25.7348 221.895 25.4804 221.707 25.2929C221.52 25.1054 221.265 25 221 25Z" fill="currentColor"/>
<path opacity="0.2" d="M267 19V22H245V19C245 16.0826 246.159 13.2847 248.222 11.2218C250.285 9.15893 253.083 8 256 8C258.917 8 261.715 9.15893 263.778 11.2218C265.841 13.2847 267 16.0826 267 19Z" fill="currentColor"/>
<path d="M243 23H269C269.265 23 269.52 22.8946 269.707 22.7071C269.895 22.5196 270 22.2652 270 22C270 21.7348 269.895 21.4804 269.707 21.2929C269.52 21.1054 269.265 21 269 21H268V19C267.996 15.9916 266.864 13.0941 264.828 10.8801C262.791 8.66605 259.998 7.29664 257 7.0425V5H259C259.265 5 259.52 4.89464 259.707 4.70711C259.895 4.51957 260 4.26522 260 4C260 3.73478 259.895 3.48043 259.707 3.29289C259.52 3.10536 259.265 3 259 3H253C252.735 3 252.48 3.10536 252.293 3.29289C252.105 3.48043 252 3.73478 252 4C252 4.26522 252.105 4.51957 252.293 4.70711C252.48 4.89464 252.735 5 253 5H255V7.0425C252.002 7.29664 249.209 8.66605 247.172 10.8801C245.136 13.0941 244.004 15.9916 244 19V21H243C242.735 21 242.48 21.1054 242.293 21.2929C242.105 21.4804 242 21.7348 242 22C242 22.2652 242.105 22.5196 242.293 22.7071C242.48 22.8946 242.735 23 243 23ZM246 19C246 16.3478 247.054 13.8043 248.929 11.9289C250.804 10.0536 253.348 9 256 9C258.652 9 261.196 10.0536 263.071 11.9289C264.946 13.8043 266 16.3478 266 19V21H246V19ZM270 26C270 26.2652 269.895 26.5196 269.707 26.7071C269.52 26.8946 269.265 27 269 27H243C242.735 27 242.48 26.8946 242.293 26.7071C242.105 26.5196 242 26.2652 242 26C242 25.7348 242.105 25.4804 242.293 25.2929C242.48 25.1054 242.735 25 243 25H269C269.265 25 269.52 25.1054 269.707 25.2929C269.895 25.4804 270 25.7348 270 26Z" fill="currentColor"/>
</g>
<defs>
<clipPath id="clip0_17_8551">
<rect width="272" height="32" rx="5" fill="white"/>
</clipPath>
</defs>
</svg>
