<svg width="272" height="32" viewBox="0 0 272 32" fill="none" xmlns="http://www.w3.org/2000/svg">
<g clip-path="url(#clip0_17_8439)">
<path d="M24.8137 7.01125C23.305 4.425 21.24 3 19 3H13C10.76 3 8.695 4.425 7.18625 7.01125C5.77625 9.4275 5 12.625 5 16C5 19.375 5.77625 22.5725 7.18625 24.9888C8.695 27.575 10.76 29 13 29H19C21.24 29 23.305 27.575 24.8137 24.9888C26.2237 22.5725 27 19.375 27 16C27 12.625 26.2237 9.4275 24.8137 7.01125ZM24.9737 15H20.9737C20.8956 12.948 20.487 10.9219 19.7638 9H23.5875C24.3525 10.6725 24.8575 12.75 24.9737 15ZM22.3988 7H18.8075C18.3898 6.2754 17.8862 5.60387 17.3075 5H19C20.25 5 21.425 5.75 22.3988 7ZM7 16C7 10.0375 9.75 5 13 5C16.25 5 19 10.0375 19 16C19 21.9625 16.25 27 13 27C9.75 27 7 21.9625 7 16ZM19 27H17.3113C17.8899 26.3961 18.3936 25.7246 18.8113 25H22.4025C21.425 26.25 20.25 27 19 27ZM23.5875 23H19.765C20.4883 21.0781 20.8969 19.052 20.975 17H24.975C24.8575 19.25 24.3525 21.3275 23.5875 23Z" fill="currentColor"/>
<path d="M72.3813 7.2625C70.9663 4.83625 69.055 3.5 67 3.5H61C58.945 3.5 57.0338 4.83625 55.625 7.2625C54.25 9.605 53.5 12.7075 53.5 16C53.5 19.2925 54.25 22.395 55.625 24.7375C57.0338 27.1637 58.945 28.5 61 28.5H67C69.055 28.5 70.9663 27.1637 72.3813 24.7375C73.75 22.395 74.5 19.2925 74.5 16C74.5 12.7075 73.75 9.605 72.3813 7.2625ZM71.9088 23.5H67.0125C67.9175 21.4825 68.4338 19.0588 68.4925 16.5H73.4925C73.43 19.0963 72.875 21.535 71.9088 23.5ZM68.4925 15.5C68.4338 12.9412 67.9175 10.5175 67.0125 8.5H71.9088C72.8763 10.465 73.43 12.9037 73.4925 15.5H68.4925ZM67 4.5C68.6112 4.5 70.1488 5.56375 71.355 7.5H66.5138C66.47 7.42125 66.4263 7.34 66.3813 7.2625C65.6838 6.0675 64.8663 5.1375 63.97 4.5H67ZM56.4825 24.2337C55.2038 22.0425 54.5 19.125 54.5 16C54.5 12.875 55.2038 9.9575 56.4825 7.76625C57.7113 5.66 59.315 4.5 61 4.5C62.685 4.5 64.2887 5.66 65.5175 7.76625C66.7962 9.9575 67.5 12.8813 67.5 16C67.5 19.1187 66.7962 22.0425 65.5175 24.2337C64.2887 26.34 62.685 27.5 61 27.5C59.315 27.5 57.7113 26.34 56.4825 24.2337ZM67 27.5H63.97C64.8663 26.8638 65.6838 25.9325 66.3813 24.7375C66.4263 24.66 66.47 24.5788 66.5138 24.5H71.355C70.1488 26.4363 68.6112 27.5 67 27.5Z" fill="currentColor"/>
<path d="M120.597 7.13625C119.135 4.625 117.148 3.25 115 3.25H109C106.852 3.25 104.865 4.625 103.403 7.13625C102.015 9.51625 101.25 12.6637 101.25 16C101.25 19.3363 102.015 22.4837 103.403 24.8638C104.865 27.375 106.852 28.75 109 28.75H115C117.148 28.75 119.135 27.375 120.597 24.8638C121.985 22.4888 122.75 19.3363 122.75 16C122.75 12.6637 121.985 9.51625 120.597 7.13625ZM121.235 15.25H116.735C116.654 12.895 116.189 10.6588 115.392 8.75H119.75C120.632 10.5925 121.145 12.8463 121.235 15.25ZM115 4.75C116.414 4.75 117.778 5.6325 118.892 7.25H114.66L114.597 7.13625C114.092 6.24384 113.447 5.43821 112.686 4.75H115ZM104.698 24.1075C103.443 21.9538 102.75 19.075 102.75 16C102.75 12.925 103.443 10.0462 104.698 7.8925C105.875 5.86625 107.408 4.75 109 4.75C110.592 4.75 112.125 5.86625 113.302 7.8925C114.557 10.0462 115.25 12.925 115.25 16C115.25 19.075 114.557 21.9538 113.302 24.1075C112.125 26.1338 110.592 27.25 109 27.25C107.408 27.25 105.875 26.1338 104.698 24.1075ZM115 27.25H112.686C113.447 26.5618 114.092 25.7562 114.597 24.8638L114.66 24.75H118.892C117.778 26.3675 116.414 27.25 115 27.25ZM119.75 23.25H115.392C116.189 21.3412 116.654 19.105 116.735 16.75H121.235C121.145 19.1537 120.632 21.4075 119.75 23.25Z" fill="currentColor"/>
<path d="M163 2.5H157C152.234 2.5 148.5 8.43 148.5 16C148.5 23.57 152.234 29.5 157 29.5H163C167.766 29.5 171.5 23.57 171.5 16C171.5 8.43 167.766 2.5 163 2.5ZM167.651 21.5H164.789C165.142 20.192 165.363 18.852 165.45 17.5H168.441C168.343 18.8607 168.077 20.2041 167.651 21.5ZM165.45 14.5C165.363 13.148 165.142 11.808 164.789 10.5H167.651C168.077 11.7959 168.343 13.1393 168.441 14.5H165.45ZM166.154 7.5H163.654C163.302 6.79478 162.884 6.12503 162.404 5.5H163C163.671 5.5 164.906 5.78125 166.154 7.5ZM153.346 23.73C152.155 21.6887 151.5 18.9438 151.5 16C151.5 13.0562 152.155 10.3113 153.346 8.27C154.75 5.86 156.239 5.5 157 5.5C157.761 5.5 159.25 5.86 160.654 8.27C161.845 10.3113 162.5 13.0562 162.5 16C162.5 18.9438 161.845 21.6887 160.654 23.73C159.25 26.14 157.761 26.5 157 26.5C156.239 26.5 154.75 26.14 153.346 23.73ZM163 26.5H162.401C162.881 25.875 163.3 25.2052 163.651 24.5H166.151C164.906 26.2188 163.671 26.5 163 26.5Z" fill="currentColor"/>
<path d="M216.814 7.01125C215.305 4.425 213.24 3 211 3H205C202.76 3 200.695 4.425 199.186 7.01125C197.776 9.4275 197 12.625 197 16C197 19.375 197.776 22.5725 199.186 24.9888C200.695 27.575 202.76 29 205 29H211C213.24 29 215.305 27.575 216.814 24.9888C218.224 22.5725 219 19.375 219 16C219 12.625 218.224 9.4275 216.814 7.01125ZM216.974 15H212.974C212.896 12.948 212.487 10.9219 211.764 9H215.587C216.352 10.6725 216.858 12.75 216.974 15ZM214.399 7H210.808C210.39 6.2754 209.886 5.60387 209.308 5H211C212.25 5 213.425 5.75 214.399 7ZM211 27H209.311C209.89 26.3961 210.394 25.7246 210.811 25H214.403C213.425 26.25 212.25 27 211 27ZM215.587 23H211.765C212.488 21.0781 212.897 19.052 212.975 17H216.975C216.858 19.25 216.352 21.3275 215.587 23Z" fill="currentColor"/>
<path opacity="0.2" d="M260 16C260 22.625 256.866 28 253 28C249.134 28 246 22.625 246 16C246 9.375 249.134 4 253 4C256.866 4 260 9.375 260 16Z" fill="currentColor"/>
<path d="M264.814 7.01125C263.305 4.425 261.24 3 259 3H253C250.76 3 248.695 4.425 247.186 7.01125C245.776 9.4275 245 12.625 245 16C245 19.375 245.776 22.5725 247.186 24.9888C248.695 27.575 250.76 29 253 29H259C261.24 29 263.305 27.575 264.814 24.9888C266.224 22.5725 267 19.375 267 16C267 12.625 266.224 9.4275 264.814 7.01125ZM264.974 15H260.974C260.896 12.948 260.487 10.9219 259.764 9H263.587C264.352 10.6725 264.858 12.75 264.974 15ZM262.399 7H258.808C258.39 6.2754 257.886 5.60387 257.308 5H259C260.25 5 261.425 5.75 262.399 7ZM247 16C247 10.0375 249.75 5 253 5C256.25 5 259 10.0375 259 16C259 21.9625 256.25 27 253 27C249.75 27 247 21.9625 247 16ZM259 27H257.311C257.89 26.3961 258.394 25.7246 258.811 25H262.403C261.425 26.25 260.25 27 259 27ZM263.587 23H259.765C260.488 21.0781 260.897 19.052 260.975 17H264.975C264.858 19.25 264.352 21.3275 263.587 23Z" fill="currentColor"/>
</g>
<defs>
<clipPath id="clip0_17_8439">
<rect width="272" height="32" rx="5" fill="white"/>
</clipPath>
</defs>
</svg>
