<svg width="272" height="32" viewBox="0 0 272 32" fill="none" xmlns="http://www.w3.org/2000/svg">
<g clip-path="url(#clip0_17_8369)">
<path d="M30 13.2712V9C30 8.46957 29.7893 7.96086 29.4142 7.58579C29.0391 7.21071 28.5304 7 28 7H4C3.46957 7 2.96086 7.21071 2.58579 7.58579C2.21071 7.96086 2 8.46957 2 9V13.2712C1.69645 13.4465 1.44428 13.6985 1.26877 14.0019C1.09327 14.3053 1.00058 14.6495 1 15V21C1 21.5304 1.21071 22.0391 1.58579 22.4142C1.96086 22.7893 2.46957 23 3 23H4V25C4 25.2652 4.10536 25.5196 4.29289 25.7071C4.48043 25.8946 4.73478 26 5 26C5.26522 26 5.51957 25.8946 5.70711 25.7071C5.89464 25.5196 6 25.2652 6 25V23H26V25C26 25.2652 26.1054 25.5196 26.2929 25.7071C26.4804 25.8946 26.7348 26 27 26C27.2652 26 27.5196 25.8946 27.7071 25.7071C27.8946 25.5196 28 25.2652 28 25V23H29C29.5304 23 30.0391 22.7893 30.4142 22.4142C30.7893 22.0391 31 21.5304 31 21V15C30.9994 14.6495 30.9067 14.3053 30.7312 14.0019C30.5557 13.6985 30.3036 13.4465 30 13.2712ZM28 13H27C26.4696 13 25.9609 13.2107 25.5858 13.5858C25.2107 13.9609 25 14.4696 25 15V17H17V9H28V13ZM15 9V17H7V15C7 14.4696 6.78929 13.9609 6.41421 13.5858C6.03914 13.2107 5.53043 13 5 13H4V9H15ZM29 21H3V15H5V17C5 17.5304 5.21071 18.0391 5.58579 18.4142C5.96086 18.7893 6.46957 19 7 19H25C25.5304 19 26.0391 18.7893 26.4142 18.4142C26.7893 18.0391 27 17.5304 27 17V15H29V21Z" fill="currentColor"/>
<path d="M77.5 13.5875V9C77.5 8.60218 77.342 8.22064 77.0607 7.93934C76.7794 7.65804 76.3978 7.5 76 7.5H52C51.6022 7.5 51.2206 7.65804 50.9393 7.93934C50.658 8.22064 50.5 8.60218 50.5 9V13.5875C50.2078 13.6908 49.9548 13.8821 49.7757 14.135C49.5967 14.3879 49.5004 14.6901 49.5 15V21C49.5 21.3978 49.658 21.7794 49.9393 22.0607C50.2206 22.342 50.6022 22.5 51 22.5H52.5V25C52.5 25.1326 52.5527 25.2598 52.6464 25.3536C52.7402 25.4473 52.8674 25.5 53 25.5C53.1326 25.5 53.2598 25.4473 53.3536 25.3536C53.4473 25.2598 53.5 25.1326 53.5 25V22.5H74.5V25C74.5 25.1326 74.5527 25.2598 74.6464 25.3536C74.7402 25.4473 74.8674 25.5 75 25.5C75.1326 25.5 75.2598 25.4473 75.3536 25.3536C75.4473 25.2598 75.5 25.1326 75.5 25V22.5H77C77.3978 22.5 77.7794 22.342 78.0607 22.0607C78.342 21.7794 78.5 21.3978 78.5 21V15C78.4996 14.6901 78.4033 14.3879 78.2243 14.135C78.0452 13.8821 77.7922 13.6908 77.5 13.5875ZM76.5 9V13.5H75C74.6022 13.5 74.2206 13.658 73.9393 13.9393C73.658 14.2206 73.5 14.6022 73.5 15V17C73.5 17.1326 73.4473 17.2598 73.3536 17.3536C73.2598 17.4473 73.1326 17.5 73 17.5H64.5V8.5H76C76.1326 8.5 76.2598 8.55268 76.3536 8.64645C76.4473 8.74021 76.5 8.86739 76.5 9ZM52 8.5H63.5V17.5H55C54.8674 17.5 54.7402 17.4473 54.6464 17.3536C54.5527 17.2598 54.5 17.1326 54.5 17V15C54.5 14.6022 54.342 14.2206 54.0607 13.9393C53.7794 13.658 53.3978 13.5 53 13.5H51.5V9C51.5 8.86739 51.5527 8.74021 51.6464 8.64645C51.7402 8.55268 51.8674 8.5 52 8.5ZM77.5 21C77.5 21.1326 77.4473 21.2598 77.3536 21.3536C77.2598 21.4473 77.1326 21.5 77 21.5H51C50.8674 21.5 50.7402 21.4473 50.6464 21.3536C50.5527 21.2598 50.5 21.1326 50.5 21V15C50.5 14.8674 50.5527 14.7402 50.6464 14.6464C50.7402 14.5527 50.8674 14.5 51 14.5H53C53.1326 14.5 53.2598 14.5527 53.3536 14.6464C53.4473 14.7402 53.5 14.8674 53.5 15V17C53.5 17.3978 53.658 17.7794 53.9393 18.0607C54.2206 18.342 54.6022 18.5 55 18.5H73C73.3978 18.5 73.7794 18.342 74.0607 18.0607C74.342 17.7794 74.5 17.3978 74.5 17V15C74.5 14.8674 74.5527 14.7402 74.6464 14.6464C74.7402 14.5527 74.8674 14.5 75 14.5H77C77.1326 14.5 77.2598 14.5527 77.3536 14.6464C77.4473 14.7402 77.5 14.8674 77.5 15V21Z" fill="currentColor"/>
<path d="M125.75 13.4213V9C125.75 8.53587 125.566 8.09075 125.237 7.76256C124.909 7.43437 124.464 7.25 124 7.25H100C99.5359 7.25 99.0908 7.43437 98.7626 7.76256C98.4344 8.09075 98.25 8.53587 98.25 9V13.4213C97.9512 13.563 97.6986 13.7865 97.5216 14.066C97.3446 14.3454 97.2505 14.6692 97.25 15V21C97.25 21.4641 97.4344 21.9092 97.7626 22.2374C98.0908 22.5656 98.5359 22.75 99 22.75H100.25V25C100.25 25.1989 100.329 25.3897 100.47 25.5303C100.61 25.671 100.801 25.75 101 25.75C101.199 25.75 101.39 25.671 101.53 25.5303C101.671 25.3897 101.75 25.1989 101.75 25V22.75H122.25V25C122.25 25.1989 122.329 25.3897 122.47 25.5303C122.61 25.671 122.801 25.75 123 25.75C123.199 25.75 123.39 25.671 123.53 25.5303C123.671 25.3897 123.75 25.1989 123.75 25V22.75H125C125.464 22.75 125.909 22.5656 126.237 22.2374C126.566 21.9092 126.75 21.4641 126.75 21V15C126.75 14.6692 126.655 14.3454 126.478 14.066C126.301 13.7865 126.049 13.563 125.75 13.4213ZM124.25 9V13.25H123C122.536 13.25 122.091 13.4344 121.763 13.7626C121.434 14.0908 121.25 14.5359 121.25 15V17C121.25 17.0663 121.224 17.1299 121.177 17.1768C121.13 17.2237 121.066 17.25 121 17.25H112.75V8.75H124C124.066 8.75 124.13 8.77634 124.177 8.82322C124.224 8.87011 124.25 8.9337 124.25 9ZM100 8.75H111.25V17.25H103C102.934 17.25 102.87 17.2237 102.823 17.1768C102.776 17.1299 102.75 17.0663 102.75 17V15C102.75 14.5359 102.566 14.0908 102.237 13.7626C101.909 13.4344 101.464 13.25 101 13.25H99.75V9C99.75 8.9337 99.7763 8.87011 99.8232 8.82322C99.8701 8.77634 99.9337 8.75 100 8.75ZM125.25 21C125.25 21.0663 125.224 21.1299 125.177 21.1768C125.13 21.2237 125.066 21.25 125 21.25H99C98.9337 21.25 98.8701 21.2237 98.8232 21.1768C98.7763 21.1299 98.75 21.0663 98.75 21V15C98.75 14.9337 98.7763 14.8701 98.8232 14.8232C98.8701 14.7763 98.9337 14.75 99 14.75H101C101.066 14.75 101.13 14.7763 101.177 14.8232C101.224 14.8701 101.25 14.9337 101.25 15V17C101.25 17.4641 101.434 17.9092 101.763 18.2374C102.091 18.5656 102.536 18.75 103 18.75H121C121.464 18.75 121.909 18.5656 122.237 18.2374C122.566 17.9092 122.75 17.4641 122.75 17V15C122.75 14.9337 122.776 14.8701 122.823 14.8232C122.87 14.7763 122.934 14.75 123 14.75H125C125.066 14.75 125.13 14.7763 125.177 14.8232C125.224 14.8701 125.25 14.9337 125.25 15V21Z" fill="currentColor"/>
<path d="M174.5 13V9C174.5 8.33696 174.237 7.70107 173.768 7.23223C173.299 6.76339 172.663 6.5 172 6.5H148C147.337 6.5 146.701 6.76339 146.232 7.23223C145.763 7.70107 145.5 8.33696 145.5 9V13C145.19 13.2329 144.938 13.5348 144.764 13.882C144.59 14.2291 144.5 14.6119 144.5 15V21C144.5 21.663 144.763 22.2989 145.232 22.7678C145.464 22.9999 145.74 23.1841 146.043 23.3097C146.347 23.4353 146.672 23.5 147 23.5H147.5V25C147.5 25.3978 147.658 25.7794 147.939 26.0607C148.221 26.342 148.602 26.5 149 26.5C149.398 26.5 149.779 26.342 150.061 26.0607C150.342 25.7794 150.5 25.3978 150.5 25V23.5H169.5V25C169.5 25.3978 169.658 25.7794 169.939 26.0607C170.221 26.342 170.602 26.5 171 26.5C171.398 26.5 171.779 26.342 172.061 26.0607C172.342 25.7794 172.5 25.3978 172.5 25V23.5H173C173.663 23.5 174.299 23.2366 174.768 22.7678C175.237 22.2989 175.5 21.663 175.5 21V15C175.5 14.6119 175.41 14.2291 175.236 13.882C175.062 13.5348 174.81 13.2329 174.5 13ZM171.5 12.5H170C169.337 12.5 168.701 12.7634 168.232 13.2322C167.763 13.7011 167.5 14.337 167.5 15V15.5H161.5V9.5H171.5V12.5ZM158.5 9.5V15.5H152.5V15C152.5 14.337 152.237 13.7011 151.768 13.2322C151.299 12.7634 150.663 12.5 150 12.5H148.5V9.5H158.5ZM172.5 20.5H147.5V15.5H149.5V16C149.5 16.663 149.763 17.2989 150.232 17.7678C150.701 18.2366 151.337 18.5 152 18.5H168C168.663 18.5 169.299 18.2366 169.768 17.7678C170.237 17.2989 170.5 16.663 170.5 16V15.5H172.5V20.5Z" fill="currentColor"/>
<path d="M223 15V21C223 21.5304 222.789 22.0391 222.414 22.4142C222.039 22.7893 221.53 23 221 23H220V25C220 25.2652 219.895 25.5196 219.707 25.7071C219.52 25.8946 219.265 26 219 26C218.735 26 218.48 25.8946 218.293 25.7071C218.105 25.5196 218 25.2652 218 25V23H198V25C198 25.2652 197.895 25.5196 197.707 25.7071C197.52 25.8946 197.265 26 197 26C196.735 26 196.48 25.8946 196.293 25.7071C196.105 25.5196 196 25.2652 196 25V23H195C194.47 23 193.961 22.7893 193.586 22.4142C193.211 22.0391 193 21.5304 193 21V15C193 14.4696 193.211 13.9609 193.586 13.5858C193.961 13.2107 194.47 13 195 13H196C196.53 13 197.039 13.2107 197.414 13.5858C197.789 13.9609 198 14.4696 198 15V17C198 17.2652 198.105 17.5196 198.293 17.7071C198.48 17.8946 198.735 18 199 18H217C217.265 18 217.52 17.8946 217.707 17.7071C217.895 17.5196 218 17.2652 218 17V15C218 14.4696 218.211 13.9609 218.586 13.5858C218.961 13.2107 219.47 13 220 13H221C221.53 13 222.039 13.2107 222.414 13.5858C222.789 13.9609 223 14.4696 223 15ZM216 15C216 13.9391 216.421 12.9217 217.172 12.1716C217.922 11.4214 218.939 11 220 11H221.5C221.633 11 221.76 10.9473 221.854 10.8536C221.947 10.7598 222 10.6326 222 10.5V9C222 8.46957 221.789 7.96086 221.414 7.58579C221.039 7.21071 220.53 7 220 7H209.5C209.367 7 209.24 7.05268 209.146 7.14645C209.053 7.24021 209 7.36739 209 7.5V16H216V15ZM194.5 11H196C197.061 11 198.078 11.4214 198.828 12.1716C199.579 12.9217 200 13.9391 200 15V16H207V7.5C207 7.36739 206.947 7.24021 206.854 7.14645C206.76 7.05268 206.633 7 206.5 7H196C195.47 7 194.961 7.21071 194.586 7.58579C194.211 7.96086 194 8.46957 194 9V10.5C194 10.6326 194.053 10.7598 194.146 10.8536C194.24 10.9473 194.367 11 194.5 11Z" fill="currentColor"/>
<path opacity="0.2" d="M270 15V21C270 21.2652 269.895 21.5196 269.707 21.7071C269.52 21.8946 269.265 22 269 22H243C242.735 22 242.48 21.8946 242.293 21.7071C242.105 21.5196 242 21.2652 242 21V15C242 14.7348 242.105 14.4804 242.293 14.2929C242.48 14.1054 242.735 14 243 14V9C243 8.73478 243.105 8.48043 243.293 8.29289C243.48 8.10536 243.735 8 244 8H268C268.265 8 268.52 8.10536 268.707 8.29289C268.895 8.48043 269 8.73478 269 9V14C269.265 14 269.52 14.1054 269.707 14.2929C269.895 14.4804 270 14.7348 270 15Z" fill="currentColor"/>
<path d="M270 13.2712V9C270 8.46957 269.789 7.96086 269.414 7.58579C269.039 7.21071 268.53 7 268 7H244C243.47 7 242.961 7.21071 242.586 7.58579C242.211 7.96086 242 8.46957 242 9V13.2712C241.696 13.4465 241.444 13.6985 241.269 14.0019C241.093 14.3053 241.001 14.6495 241 15V21C241 21.5304 241.211 22.0391 241.586 22.4142C241.961 22.7893 242.47 23 243 23H244V25C244 25.2652 244.105 25.5196 244.293 25.7071C244.48 25.8946 244.735 26 245 26C245.265 26 245.52 25.8946 245.707 25.7071C245.895 25.5196 246 25.2652 246 25V23H266V25C266 25.2652 266.105 25.5196 266.293 25.7071C266.48 25.8946 266.735 26 267 26C267.265 26 267.52 25.8946 267.707 25.7071C267.895 25.5196 268 25.2652 268 25V23H269C269.53 23 270.039 22.7893 270.414 22.4142C270.789 22.0391 271 21.5304 271 21V15C270.999 14.6495 270.907 14.3053 270.731 14.0019C270.556 13.6985 270.304 13.4465 270 13.2712ZM268 13H267C266.47 13 265.961 13.2107 265.586 13.5858C265.211 13.9609 265 14.4696 265 15V17H257V9H268V13ZM255 9V17H247V15C247 14.4696 246.789 13.9609 246.414 13.5858C246.039 13.2107 245.53 13 245 13H244V9H255ZM269 21H243V15H245V17C245 17.5304 245.211 18.0391 245.586 18.4142C245.961 18.7893 246.47 19 247 19H265C265.53 19 266.039 18.7893 266.414 18.4142C266.789 18.0391 267 17.5304 267 17V15H269V21Z" fill="currentColor"/>
</g>
<defs>
<clipPath id="clip0_17_8369">
<rect width="272" height="32" rx="5" fill="white"/>
</clipPath>
</defs>
</svg>
