<svg width="272" height="32" viewBox="0 0 272 32" fill="none" xmlns="http://www.w3.org/2000/svg">
<g clip-path="url(#clip0_17_8215)">
<path d="M25.7737 6.63367L18.1099 15.9999H21.9999C22.2651 15.9999 22.5195 16.1053 22.707 16.2928C22.8946 16.4804 22.9999 16.7347 22.9999 16.9999C22.9999 17.2651 22.8946 17.5195 22.707 17.707C22.5195 17.8946 22.2651 17.9999 21.9999 17.9999H16.9999V19.9999H21.9999C22.2651 19.9999 22.5195 20.1053 22.707 20.2928C22.8946 20.4804 22.9999 20.7347 22.9999 20.9999C22.9999 21.2651 22.8946 21.5195 22.707 21.707C22.5195 21.8946 22.2651 21.9999 21.9999 21.9999H16.9999V26.9999C16.9999 27.2651 16.8946 27.5195 16.707 27.707C16.5195 27.8946 16.2651 27.9999 15.9999 27.9999C15.7347 27.9999 15.4804 27.8946 15.2928 27.707C15.1053 27.5195 14.9999 27.2651 14.9999 26.9999V21.9999H9.99992C9.73471 21.9999 9.48035 21.8946 9.29282 21.707C9.10528 21.5195 8.99992 21.2651 8.99992 20.9999C8.99992 20.7347 9.10528 20.4804 9.29282 20.2928C9.48035 20.1053 9.73471 19.9999 9.99992 19.9999H14.9999V17.9999H9.99992C9.73471 17.9999 9.48035 17.8946 9.29282 17.707C9.10528 17.5195 8.99992 17.2651 8.99992 16.9999C8.99992 16.7347 9.10528 16.4804 9.29282 16.2928C9.48035 16.1053 9.73471 15.9999 9.99992 15.9999H13.8899L6.22617 6.63367C6.05809 6.42846 5.97842 6.16489 6.00467 5.90093C6.03093 5.63697 6.16096 5.39425 6.36617 5.22617C6.57138 5.05809 6.83496 4.97842 7.09892 5.00467C7.36287 5.03093 7.60559 5.16096 7.77367 5.36617L15.9999 15.4212L24.2262 5.36617C24.3094 5.26456 24.4118 5.18034 24.5276 5.11831C24.6434 5.05629 24.7702 5.01767 24.9009 5.00467C25.0316 4.99167 25.1636 5.00454 25.2893 5.04255C25.4151 5.08055 25.5321 5.14295 25.6337 5.22617C25.7353 5.3094 25.8195 5.41182 25.8815 5.5276C25.9436 5.64337 25.9822 5.77023 25.9952 5.90093C26.0082 6.03163 25.9953 6.16361 25.9573 6.28933C25.9193 6.41505 25.8569 6.53206 25.7737 6.63367Z" fill="currentColor"/>
<path d="M73.3874 6.31618L65.0549 16.4999H69.9999C70.1325 16.4999 70.2597 16.5526 70.3535 16.6464C70.4472 16.7401 70.4999 16.8673 70.4999 16.9999C70.4999 17.1325 70.4472 17.2597 70.3535 17.3535C70.2597 17.4472 70.1325 17.4999 69.9999 17.4999H64.4999V20.4999H69.9999C70.1325 20.4999 70.2597 20.5526 70.3535 20.6464C70.4472 20.7401 70.4999 20.8673 70.4999 20.9999C70.4999 21.1325 70.4472 21.2597 70.3535 21.3535C70.2597 21.4472 70.1325 21.4999 69.9999 21.4999H64.4999V26.9999C64.4999 27.1325 64.4472 27.2597 64.3535 27.3535C64.2597 27.4473 64.1325 27.4999 63.9999 27.4999C63.8673 27.4999 63.7401 27.4473 63.6464 27.3535C63.5526 27.2597 63.4999 27.1325 63.4999 26.9999V21.4999H57.9999C57.8673 21.4999 57.7401 21.4472 57.6464 21.3535C57.5526 21.2597 57.4999 21.1325 57.4999 20.9999C57.4999 20.8673 57.5526 20.7401 57.6464 20.6464C57.7401 20.5526 57.8673 20.4999 57.9999 20.4999H63.4999V17.4999H57.9999C57.8673 17.4999 57.7401 17.4472 57.6464 17.3535C57.5526 17.2597 57.4999 17.1325 57.4999 16.9999C57.4999 16.8673 57.5526 16.7401 57.6464 16.6464C57.7401 16.5526 57.8673 16.4999 57.9999 16.4999H62.9449L54.6124 6.31618C54.5709 6.26529 54.5398 6.20672 54.5209 6.14381C54.502 6.08091 54.4957 6.0149 54.5023 5.94955C54.5157 5.81757 54.5809 5.6963 54.6837 5.61243C54.7864 5.52855 54.9183 5.48894 55.0503 5.5023C55.1157 5.50892 55.1791 5.52834 55.2369 5.55946C55.2947 5.59058 55.3459 5.63279 55.3874 5.68368L63.9999 16.2099L72.6124 5.68368C72.6963 5.58091 72.8176 5.51566 72.9495 5.5023C73.0815 5.48894 73.2134 5.52855 73.3162 5.61243C73.4189 5.6963 73.4842 5.81757 73.4976 5.94955C73.5109 6.08153 73.4713 6.21341 73.3874 6.31618Z" fill="currentColor"/>
<path d="M121.58 6.47502L113.58 16.25H118C118.199 16.25 118.39 16.329 118.53 16.4697C118.671 16.6103 118.75 16.8011 118.75 17C118.75 17.1989 118.671 17.3897 118.53 17.5303C118.39 17.671 118.199 17.75 118 17.75H112.75V20.25H118C118.199 20.25 118.39 20.329 118.53 20.4697C118.671 20.6103 118.75 20.8011 118.75 21C118.75 21.1989 118.671 21.3897 118.53 21.5303C118.39 21.671 118.199 21.75 118 21.75H112.75V27C112.75 27.1989 112.671 27.3897 112.53 27.5303C112.39 27.671 112.199 27.75 112 27.75C111.801 27.75 111.61 27.671 111.47 27.5303C111.329 27.3897 111.25 27.1989 111.25 27V21.75H106C105.801 21.75 105.61 21.671 105.47 21.5303C105.329 21.3897 105.25 21.1989 105.25 21C105.25 20.8011 105.329 20.6103 105.47 20.4697C105.61 20.329 105.801 20.25 106 20.25H111.25V17.75H106C105.801 17.75 105.61 17.671 105.47 17.5303C105.329 17.3897 105.25 17.1989 105.25 17C105.25 16.8011 105.329 16.6103 105.47 16.4697C105.61 16.329 105.801 16.25 106 16.25H110.417L102.417 6.47502C102.352 6.39928 102.302 6.31111 102.271 6.21573C102.24 6.12035 102.228 6.0197 102.236 5.91973C102.245 5.81976 102.273 5.72252 102.32 5.63374C102.367 5.54497 102.431 5.46648 102.508 5.40291C102.586 5.33934 102.676 5.29199 102.772 5.26367C102.868 5.23534 102.969 5.22661 103.069 5.238C103.168 5.24939 103.265 5.28065 103.352 5.32995C103.44 5.37925 103.516 5.44558 103.577 5.52502L112 15.8163L120.42 5.52502C120.548 5.3777 120.728 5.28607 120.923 5.26956C121.117 5.25306 121.31 5.31299 121.461 5.43663C121.612 5.56027 121.709 5.73789 121.731 5.93176C121.753 6.12564 121.699 6.32052 121.58 6.47502Z" fill="currentColor"/>
<path d="M170.161 6.95008L163.161 15.5001H166C166.398 15.5001 166.779 15.6581 167.061 15.9394C167.342 16.2207 167.5 16.6023 167.5 17.0001C167.5 17.3979 167.342 17.7794 167.061 18.0607C166.779 18.342 166.398 18.5001 166 18.5001H161.5V20.5001H166C166.398 20.5001 166.779 20.6581 167.061 20.9394C167.342 21.2207 167.5 21.6023 167.5 22.0001C167.5 22.3979 167.342 22.7794 167.061 23.0607C166.779 23.342 166.398 23.5001 166 23.5001H161.5V27.0001C161.5 27.3979 161.342 27.7794 161.061 28.0607C160.779 28.342 160.398 28.5001 160 28.5001C159.602 28.5001 159.221 28.342 158.939 28.0607C158.658 27.7794 158.5 27.3979 158.5 27.0001V23.5001H154C153.602 23.5001 153.221 23.342 152.939 23.0607C152.658 22.7794 152.5 22.3979 152.5 22.0001C152.5 21.6023 152.658 21.2207 152.939 20.9394C153.221 20.6581 153.602 20.5001 154 20.5001H158.5V18.5001H154C153.602 18.5001 153.221 18.342 152.939 18.0607C152.658 17.7794 152.5 17.3979 152.5 17.0001C152.5 16.6023 152.658 16.2207 152.939 15.9394C153.221 15.6581 153.602 15.5001 154 15.5001H156.835L149.835 6.95008C149.71 6.79733 149.617 6.62151 149.56 6.43265C149.503 6.24379 149.484 6.0456 149.504 5.84937C149.524 5.65315 149.582 5.46275 149.675 5.28904C149.769 5.11533 149.895 4.96171 150.048 4.83695C150.201 4.7122 150.377 4.61875 150.566 4.56194C150.754 4.50513 150.953 4.48608 151.149 4.50587C151.345 4.52566 151.535 4.58391 151.709 4.67728C151.883 4.77066 152.036 4.89733 152.161 5.05008L160 14.6313L167.839 5.05008C168.091 4.74209 168.455 4.54681 168.851 4.5072C169.247 4.46758 169.642 4.58687 169.95 4.83883C170.258 5.09078 170.453 5.45476 170.493 5.8507C170.532 6.24664 170.413 6.64209 170.161 6.95008Z" fill="currentColor"/>
<path d="M208 3C205.429 3 202.915 3.76244 200.778 5.1909C198.64 6.61935 196.974 8.64968 195.99 11.0251C195.006 13.4006 194.748 16.0144 195.25 18.5362C195.751 21.0579 196.99 23.3743 198.808 25.1924C200.626 27.0105 202.942 28.2486 205.464 28.7502C207.986 29.2518 210.599 28.9944 212.975 28.0104C215.35 27.0265 217.381 25.3603 218.809 23.2224C220.238 21.0846 221 18.5712 221 16C220.996 12.5533 219.626 9.24882 217.188 6.81163C214.751 4.37445 211.447 3.00364 208 3ZM215.75 9.65875L210.204 16H212C212.265 16 212.52 16.1054 212.707 16.2929C212.895 16.4804 213 16.7348 213 17C213 17.2652 212.895 17.5196 212.707 17.7071C212.52 17.8946 212.265 18 212 18H209V20H212C212.265 20 212.52 20.1054 212.707 20.2929C212.895 20.4804 213 20.7348 213 21C213 21.2652 212.895 21.5196 212.707 21.7071C212.52 21.8946 212.265 22 212 22H209V24C209 24.2652 208.895 24.5196 208.707 24.7071C208.52 24.8946 208.265 25 208 25C207.735 25 207.48 24.8946 207.293 24.7071C207.105 24.5196 207 24.2652 207 24V22H204C203.735 22 203.48 21.8946 203.293 21.7071C203.105 21.5196 203 21.2652 203 21C203 20.7348 203.105 20.4804 203.293 20.2929C203.48 20.1054 203.735 20 204 20H207V18H204C203.735 18 203.48 17.8946 203.293 17.7071C203.105 17.5196 203 17.2652 203 17C203 16.7348 203.105 16.4804 203.293 16.2929C203.48 16.1054 203.735 16 204 16H205.796L200.25 9.65875C200.093 9.45755 200.02 9.20418 200.044 8.95041C200.068 8.69664 200.188 8.46164 200.379 8.29342C200.571 8.1252 200.819 8.03647 201.074 8.04536C201.329 8.05425 201.571 8.16009 201.75 8.34125L208 15.4812L214.25 8.34125C214.334 8.23364 214.439 8.14428 214.558 8.07866C214.678 8.01305 214.809 7.97257 214.945 7.9597C215.081 7.94684 215.218 7.96187 215.347 8.00387C215.477 8.04586 215.597 8.11394 215.699 8.20391C215.802 8.29388 215.885 8.40385 215.943 8.52706C216.001 8.65027 216.034 8.78411 216.039 8.92037C216.043 9.05663 216.02 9.19242 215.971 9.31939C215.921 9.44637 215.846 9.56185 215.75 9.65875Z" fill="currentColor"/>
<path opacity="0.2" d="M265 6L256 17L247 6H265Z" fill="currentColor"/>
<path d="M265.774 6.63367L258.11 15.9999H262C262.265 15.9999 262.519 16.1053 262.707 16.2928C262.895 16.4804 263 16.7347 263 16.9999C263 17.2651 262.895 17.5195 262.707 17.707C262.519 17.8946 262.265 17.9999 262 17.9999H257V19.9999H262C262.265 19.9999 262.519 20.1053 262.707 20.2928C262.895 20.4804 263 20.7347 263 20.9999C263 21.2651 262.895 21.5195 262.707 21.707C262.519 21.8946 262.265 21.9999 262 21.9999H257V26.9999C257 27.2651 256.895 27.5195 256.707 27.707C256.519 27.8946 256.265 27.9999 256 27.9999C255.735 27.9999 255.48 27.8946 255.293 27.707C255.105 27.5195 255 27.2651 255 26.9999V21.9999H250C249.735 21.9999 249.48 21.8946 249.293 21.707C249.105 21.5195 249 21.2651 249 20.9999C249 20.7347 249.105 20.4804 249.293 20.2928C249.48 20.1053 249.735 19.9999 250 19.9999H255V17.9999H250C249.735 17.9999 249.48 17.8946 249.293 17.707C249.105 17.5195 249 17.2651 249 16.9999C249 16.7347 249.105 16.4804 249.293 16.2928C249.48 16.1053 249.735 15.9999 250 15.9999H253.89L246.226 6.63367C246.058 6.42846 245.978 6.16489 246.005 5.90093C246.031 5.63697 246.161 5.39425 246.366 5.22617C246.571 5.05809 246.835 4.97842 247.099 5.00467C247.363 5.03093 247.606 5.16096 247.774 5.36617L256 15.4212L264.226 5.36617C264.309 5.26456 264.412 5.18034 264.528 5.11831C264.643 5.05629 264.77 5.01767 264.901 5.00467C265.032 4.99167 265.164 5.00454 265.289 5.04255C265.415 5.08055 265.532 5.14295 265.634 5.22617C265.735 5.3094 265.82 5.41182 265.882 5.5276C265.944 5.64337 265.982 5.77023 265.995 5.90093C266.008 6.03163 265.995 6.16361 265.957 6.28933C265.919 6.41505 265.857 6.53206 265.774 6.63367Z" fill="currentColor"/>
</g>
<defs>
<clipPath id="clip0_17_8215">
<rect width="272" height="32" rx="5" fill="white"/>
</clipPath>
</defs>
</svg>
