<svg width="272" height="32" viewBox="0 0 272 32" fill="none" xmlns="http://www.w3.org/2000/svg">
<g clip-path="url(#clip0_17_8257)">
<path d="M23.75 24.0412C23.8376 24.1391 23.9051 24.2533 23.9485 24.3773C23.992 24.5013 24.0106 24.6326 24.0033 24.7638C23.996 24.895 23.9629 25.0234 23.9059 25.1418C23.849 25.2602 23.7692 25.3662 23.6712 25.4537C22.2959 26.6853 20.6066 27.5121 18.7903 27.8425C16.974 28.173 15.1017 27.9942 13.3807 27.326C11.6598 26.6578 10.1574 25.5262 9.04002 24.0567C7.92264 22.5871 7.23387 20.8369 7.05 19H5C4.73478 19 4.48043 18.8946 4.29289 18.7071C4.10536 18.5196 4 18.2652 4 18C4 17.7348 4.10536 17.4804 4.29289 17.2929C4.48043 17.1053 4.73478 17 5 17H7V15H5C4.73478 15 4.48043 14.8946 4.29289 14.7071C4.10536 14.5196 4 14.2652 4 14C4 13.7348 4.10536 13.4804 4.29289 13.2929C4.48043 13.1053 4.73478 13 5 13H7.05C7.23437 11.1638 7.92326 9.41437 9.04042 7.94547C10.1576 6.47657 11.6594 5.34545 13.3797 4.67735C15.1 4.00924 16.9716 3.83021 18.7873 4.16006C20.6031 4.4899 22.2921 5.31577 23.6675 6.54624C23.8653 6.72327 23.9846 6.97161 23.9992 7.23662C24.0139 7.50163 23.9227 7.76161 23.7456 7.95936C23.5686 8.15711 23.3203 8.27644 23.0552 8.29109C22.7902 8.30574 22.5303 8.21452 22.3325 8.03749C21.2449 7.0656 19.9123 6.40955 18.4788 6.14028C17.0453 5.87102 15.5654 5.99879 14.1993 6.50977C12.8331 7.02076 11.6327 7.89551 10.7277 9.03943C9.8228 10.1834 9.24783 11.5529 9.065 13H17C17.2652 13 17.5196 13.1053 17.7071 13.2929C17.8946 13.4804 18 13.7348 18 14C18 14.2652 17.8946 14.5196 17.7071 14.7071C17.5196 14.8946 17.2652 15 17 15H9V17H15C15.2652 17 15.5196 17.1053 15.7071 17.2929C15.8946 17.4804 16 17.7348 16 18C16 18.2652 15.8946 18.5196 15.7071 18.7071C15.5196 18.8946 15.2652 19 15 19H9.065C9.24764 20.4472 9.82247 21.8169 10.7273 22.961C11.6322 24.105 12.8326 24.98 14.1988 25.4911C15.565 26.0022 17.0449 26.1301 18.4785 25.8609C19.9121 25.5917 21.2448 24.9357 22.3325 23.9637C22.4304 23.8753 22.5449 23.8071 22.6693 23.7631C22.7937 23.7191 22.9256 23.7001 23.0574 23.7073C23.1892 23.7145 23.3182 23.7477 23.4371 23.8051C23.5559 23.8624 23.6623 23.9426 23.75 24.0412Z" fill="currentColor"/>
<path d="M71.375 24.375C71.4188 24.4239 71.4526 24.4809 71.4744 24.5429C71.4962 24.6049 71.5056 24.6705 71.502 24.7361C71.4984 24.8017 71.4819 24.8659 71.4534 24.9252C71.425 24.9844 71.3852 25.0374 71.3363 25.0812C70.0011 26.2762 68.3552 27.0692 66.5886 27.3687C64.822 27.6682 63.0067 27.4619 61.3523 26.7738C59.6979 26.0857 58.2718 24.9437 57.2387 23.4797C56.2056 22.0157 55.6076 20.2893 55.5138 18.5H53C52.8674 18.5 52.7402 18.4473 52.6464 18.3535C52.5527 18.2598 52.5 18.1326 52.5 18C52.5 17.8674 52.5527 17.7402 52.6464 17.6464C52.7402 17.5526 52.8674 17.5 53 17.5H55.5V14.5H53C52.8674 14.5 52.7402 14.4473 52.6464 14.3535C52.5527 14.2598 52.5 14.1326 52.5 14C52.5 13.8674 52.5527 13.7402 52.6464 13.6464C52.7402 13.5526 52.8674 13.5 53 13.5H55.5138C55.608 11.7111 56.2061 9.98531 57.2391 8.52176C58.272 7.05821 59.6977 5.91654 61.3517 5.22848C63.0056 4.54042 64.8204 4.33402 66.5866 4.63309C68.3528 4.93216 69.9985 5.72451 71.3337 6.91872C71.4332 7.00724 71.4934 7.13163 71.5012 7.26455C71.5089 7.39747 71.4635 7.52801 71.375 7.62747C71.2865 7.72693 71.1621 7.78715 71.0292 7.79488C70.8963 7.80262 70.7657 7.75724 70.6663 7.66872C69.4752 6.60392 68.0081 5.89637 66.4333 5.62719C64.8585 5.35802 63.2397 5.53812 61.7625 6.14686C60.2854 6.75559 59.0097 7.7683 58.0818 9.06885C57.1539 10.3694 56.6113 11.9052 56.5162 13.5H65C65.1326 13.5 65.2598 13.5526 65.3536 13.6464C65.4473 13.7402 65.5 13.8674 65.5 14C65.5 14.1326 65.4473 14.2598 65.3536 14.3535C65.2598 14.4473 65.1326 14.5 65 14.5H56.5V17.5H63C63.1326 17.5 63.2598 17.5526 63.3536 17.6464C63.4473 17.7402 63.5 17.8674 63.5 18C63.5 18.1326 63.4473 18.2598 63.3536 18.3535C63.2598 18.4473 63.1326 18.5 63 18.5H56.5162C56.6104 20.0952 57.1524 21.6316 58.08 22.9329C59.0076 24.2341 60.2832 25.2475 61.7605 25.8569C63.2378 26.4662 64.8569 26.6467 66.4321 26.3777C68.0073 26.1088 69.4748 25.4012 70.6663 24.3362C70.7152 24.292 70.7725 24.2579 70.8347 24.2359C70.8969 24.2139 70.9628 24.2044 71.0287 24.208C71.0946 24.2116 71.1591 24.2282 71.2185 24.2569C71.278 24.2855 71.3311 24.3257 71.375 24.375Z" fill="currentColor"/>
<path d="M119.559 24.2075C119.625 24.2809 119.675 24.3666 119.708 24.4596C119.741 24.5527 119.755 24.6512 119.749 24.7497C119.744 24.8481 119.719 24.9446 119.676 25.0334C119.633 25.1223 119.574 25.2018 119.5 25.2675C118.145 26.479 116.478 27.2875 114.687 27.6016C112.896 27.9158 111.054 27.723 109.367 27.0452C107.68 26.3673 106.216 25.2313 105.141 23.7656C104.066 22.2998 103.421 20.5625 103.281 18.75H101C100.801 18.75 100.61 18.671 100.47 18.5303C100.329 18.3897 100.25 18.1989 100.25 18C100.25 17.8011 100.329 17.6103 100.47 17.4697C100.61 17.329 100.801 17.25 101 17.25H103.25V14.75H101C100.801 14.75 100.61 14.671 100.47 14.5303C100.329 14.3897 100.25 14.1989 100.25 14C100.25 13.8011 100.329 13.6103 100.47 13.4697C100.61 13.329 100.801 13.25 101 13.25H103.281C103.421 11.4375 104.066 9.70024 105.141 8.23445C106.216 6.76866 107.68 5.6327 109.367 4.95485C111.054 4.27699 112.896 4.08424 114.687 4.39836C116.478 4.71248 118.145 5.52096 119.5 6.7325C119.649 6.86511 119.74 7.05155 119.751 7.2508C119.763 7.45006 119.695 7.64581 119.562 7.795C119.43 7.94418 119.243 8.03458 119.044 8.0463C118.845 8.05802 118.649 7.99011 118.5 7.8575C117.361 6.83914 115.961 6.1571 114.457 5.88743C112.954 5.61775 111.404 5.77102 109.982 6.33015C108.56 6.88928 107.322 7.83231 106.404 9.05413C105.487 10.2759 104.927 11.7285 104.786 13.25H113C113.199 13.25 113.39 13.329 113.53 13.4697C113.671 13.6103 113.75 13.8011 113.75 14C113.75 14.1989 113.671 14.3897 113.53 14.5303C113.39 14.671 113.199 14.75 113 14.75H104.75V17.25H111C111.199 17.25 111.39 17.329 111.53 17.4697C111.671 17.6103 111.75 17.8011 111.75 18C111.75 18.1989 111.671 18.3897 111.53 18.5303C111.39 18.671 111.199 18.75 111 18.75H104.786C104.925 20.2721 105.485 21.7256 106.402 22.9485C107.319 24.1713 108.557 25.1154 109.979 25.6754C111.401 26.2353 112.951 26.3893 114.456 26.1199C115.96 25.8506 117.36 25.1686 118.5 24.15C118.648 24.0173 118.843 23.9488 119.041 23.9596C119.24 23.9704 119.426 24.0595 119.559 24.2075Z" fill="currentColor"/>
<path d="M168.118 23.7076C168.25 23.8545 168.352 24.0262 168.418 24.2128C168.484 24.3993 168.512 24.597 168.501 24.7945C168.49 24.992 168.44 25.1854 168.354 25.3636C168.268 25.5417 168.148 25.7011 168 25.8326C166.616 27.0696 164.929 27.9177 163.111 28.2904C161.293 28.6631 159.408 28.5472 157.649 27.9544C155.89 27.3616 154.32 26.3132 153.098 24.9159C151.876 23.5186 151.047 21.8224 150.694 20.0001H149C148.602 20.0001 148.221 19.842 147.939 19.5607C147.658 19.2794 147.5 18.8979 147.5 18.5001C147.5 18.1023 147.658 17.7207 147.939 17.4394C148.221 17.1581 148.602 17.0001 149 17.0001H150.5V15.0001H149C148.602 15.0001 148.221 14.842 147.939 14.5607C147.658 14.2794 147.5 13.8979 147.5 13.5001C147.5 13.1023 147.658 12.7207 147.939 12.4394C148.221 12.1581 148.602 12.0001 149 12.0001H150.694C151.047 10.1783 151.878 8.48283 153.1 7.0863C154.322 5.68978 155.892 4.64212 157.651 4.05001C159.41 3.4579 161.294 3.34251 163.112 3.71559C164.93 4.08866 166.617 4.93687 168 6.17383C168.297 6.43905 168.476 6.8112 168.498 7.20843C168.52 7.60565 168.383 7.99541 168.118 8.29195C167.853 8.5885 167.481 8.76754 167.084 8.78969C166.686 8.81185 166.297 8.67529 166 8.41008C165.049 7.55964 163.897 6.96588 162.652 6.68495C161.408 6.40402 160.112 6.44521 158.888 6.80462C157.664 7.16404 156.551 7.82979 155.656 8.73892C154.761 9.64804 154.113 10.7705 153.773 12.0001H161C161.398 12.0001 161.779 12.1581 162.061 12.4394C162.342 12.7207 162.5 13.1023 162.5 13.5001C162.5 13.8979 162.342 14.2794 162.061 14.5607C161.779 14.842 161.398 15.0001 161 15.0001H153.5V17.0001H159C159.398 17.0001 159.779 17.1581 160.061 17.4394C160.342 17.7207 160.5 18.1023 160.5 18.5001C160.5 18.8979 160.342 19.2794 160.061 19.5607C159.779 19.842 159.398 20.0001 159 20.0001H153.773C154.113 21.2297 154.761 22.3521 155.656 23.2612C156.551 24.1704 157.664 24.8361 158.888 25.1955C160.112 25.5549 161.408 25.5961 162.652 25.3152C163.897 25.0343 165.049 24.4405 166 23.5901C166.296 23.325 166.686 23.1884 167.083 23.2104C167.48 23.2325 167.852 23.4113 168.118 23.7076Z" fill="currentColor"/>
<path d="M208 3C205.429 3 202.915 3.76244 200.778 5.1909C198.64 6.61935 196.974 8.64968 195.99 11.0251C195.006 13.4006 194.748 16.0144 195.25 18.5362C195.751 21.0579 196.99 23.3743 198.808 25.1924C200.626 27.0105 202.942 28.2486 205.464 28.7502C207.986 29.2518 210.599 28.9944 212.975 28.0104C215.35 27.0265 217.381 25.3603 218.809 23.2224C220.238 21.0846 221 18.5712 221 16C220.996 12.5533 219.626 9.24882 217.188 6.81163C214.751 4.37445 211.447 3.00364 208 3ZM208 13C208.265 13 208.52 13.1054 208.707 13.2929C208.895 13.4804 209 13.7348 209 14C209 14.2652 208.895 14.5196 208.707 14.7071C208.52 14.8946 208.265 15 208 15H203V17H207C207.265 17 207.52 17.1054 207.707 17.2929C207.895 17.4804 208 17.7348 208 18C208 18.2652 207.895 18.5196 207.707 18.7071C207.52 18.8946 207.265 19 207 19H203.236C203.52 19.8928 204.025 20.6991 204.706 21.3431C205.386 21.9871 206.219 22.4477 207.126 22.6818C208.033 22.916 208.984 22.9159 209.891 22.6816C210.798 22.4474 211.631 21.9866 212.311 21.3425C212.405 21.2458 212.518 21.169 212.642 21.1168C212.766 21.0647 212.9 21.0382 213.035 21.039C213.169 21.0398 213.303 21.0678 213.426 21.1214C213.55 21.175 213.662 21.2531 213.754 21.3509C213.847 21.4487 213.919 21.5643 213.966 21.6906C214.013 21.817 214.034 21.9516 214.028 22.0862C214.021 22.2209 213.988 22.3529 213.929 22.4742C213.87 22.5956 213.788 22.7039 213.686 22.7925C212.722 23.7059 211.533 24.348 210.241 24.6535C208.948 24.9589 207.598 24.917 206.327 24.5318C205.055 24.1466 203.909 23.432 203.003 22.4605C202.098 21.4889 201.465 20.295 201.17 19H200C199.735 19 199.48 18.8946 199.293 18.7071C199.105 18.5196 199 18.2652 199 18C199 17.7348 199.105 17.4804 199.293 17.2929C199.48 17.1054 199.735 17 200 17H201V15H200C199.735 15 199.48 14.8946 199.293 14.7071C199.105 14.5196 199 14.2652 199 14C199 13.7348 199.105 13.4804 199.293 13.2929C199.48 13.1054 199.735 13 200 13H201.14C201.412 11.6869 202.03 10.4703 202.93 9.47599C203.829 8.48172 204.978 7.74591 206.258 7.34468C207.538 6.94344 208.901 6.89136 210.207 7.19381C211.514 7.49626 212.716 8.14227 213.689 9.065C213.79 9.15363 213.873 9.26188 213.932 9.38325C213.99 9.50462 214.024 9.63661 214.03 9.77127C214.037 9.90593 214.016 10.0405 213.969 10.1669C213.922 10.2932 213.85 10.4088 213.757 10.5066C213.664 10.6044 213.553 10.6825 213.429 10.7361C213.305 10.7897 213.172 10.8177 213.037 10.8185C212.902 10.8193 212.769 10.7928 212.644 10.7407C212.52 10.6885 212.408 10.6117 212.314 10.515C211.625 9.86174 210.779 9.39697 209.858 9.16545C208.937 8.93394 207.972 8.94348 207.056 9.19316C206.139 9.44283 205.303 9.92424 204.627 10.591C203.951 11.2577 203.457 12.0874 203.195 13H208Z" fill="currentColor"/>
<path opacity="0.2" d="M263 7.29131V24.7088C261.705 25.8671 260.102 26.6258 258.386 26.8933C256.669 27.1608 254.912 26.9257 253.326 26.2163C251.739 25.507 250.393 24.3537 249.448 22.8958C248.503 21.4378 248 19.7375 248 18.0001V14.0001C248 12.2626 248.503 10.5623 249.448 9.10436C250.393 7.6464 251.739 6.49314 253.326 5.78379C254.912 5.07444 256.669 4.83933 258.386 5.10683C260.102 5.37434 261.705 6.13303 263 7.29131Z" fill="currentColor"/>
<path d="M263.75 24.0412C263.838 24.1391 263.905 24.2533 263.949 24.3773C263.992 24.5013 264.011 24.6326 264.003 24.7638C263.996 24.895 263.963 25.0234 263.906 25.1418C263.849 25.2602 263.769 25.3662 263.671 25.4537C262.296 26.6853 260.607 27.5121 258.79 27.8425C256.974 28.173 255.102 27.9942 253.381 27.326C251.66 26.6578 250.157 25.5262 249.04 24.0567C247.923 22.5871 247.234 20.8369 247.05 19H245C244.735 19 244.48 18.8946 244.293 18.7071C244.105 18.5196 244 18.2652 244 18C244 17.7348 244.105 17.4804 244.293 17.2929C244.48 17.1053 244.735 17 245 17H247V15H245C244.735 15 244.48 14.8946 244.293 14.7071C244.105 14.5196 244 14.2652 244 14C244 13.7348 244.105 13.4804 244.293 13.2929C244.48 13.1053 244.735 13 245 13H247.05C247.234 11.1638 247.923 9.41437 249.04 7.94547C250.158 6.47657 251.659 5.34545 253.38 4.67735C255.1 4.00924 256.972 3.83021 258.787 4.16006C260.603 4.4899 262.292 5.31577 263.667 6.54624C263.865 6.72327 263.985 6.97161 263.999 7.23662C264.014 7.50163 263.923 7.76161 263.746 7.95936C263.569 8.15711 263.32 8.27644 263.055 8.29109C262.79 8.30574 262.53 8.21452 262.333 8.03749C261.245 7.0656 259.912 6.40955 258.479 6.14028C257.045 5.87102 255.565 5.99879 254.199 6.50977C252.833 7.02076 251.633 7.89551 250.728 9.03943C249.823 10.1834 249.248 11.5529 249.065 13H257C257.265 13 257.52 13.1053 257.707 13.2929C257.895 13.4804 258 13.7348 258 14C258 14.2652 257.895 14.5196 257.707 14.7071C257.52 14.8946 257.265 15 257 15H249V17H255C255.265 17 255.52 17.1053 255.707 17.2929C255.895 17.4804 256 17.7348 256 18C256 18.2652 255.895 18.5196 255.707 18.7071C255.52 18.8946 255.265 19 255 19H249.065C249.248 20.4472 249.822 21.8169 250.727 22.961C251.632 24.105 252.833 24.98 254.199 25.4911C255.565 26.0022 257.045 26.1301 258.478 25.8609C259.912 25.5917 261.245 24.9357 262.333 23.9637C262.43 23.8753 262.545 23.8071 262.669 23.7631C262.794 23.7191 262.926 23.7001 263.057 23.7073C263.189 23.7145 263.318 23.7477 263.437 23.8051C263.556 23.8624 263.662 23.9426 263.75 24.0412Z" fill="currentColor"/>
</g>
<defs>
<clipPath id="clip0_17_8257">
<rect width="272" height="32" rx="5" fill="white"/>
</clipPath>
</defs>
</svg>
