<svg width="272" height="32" viewBox="0 0 272 32" fill="none" xmlns="http://www.w3.org/2000/svg">
<g clip-path="url(#clip0_17_8299)">
<path d="M19 15H17V7H18C19.0609 7 20.0783 7.42143 20.8284 8.17157C21.5786 8.92172 22 9.93913 22 11C22 11.2652 22.1054 11.5196 22.2929 11.7071C22.4804 11.8946 22.7348 12 23 12C23.2652 12 23.5196 11.8946 23.7071 11.7071C23.8946 11.5196 24 11.2652 24 11C23.9983 9.40921 23.3657 7.88405 22.2408 6.75919C21.116 5.63433 19.5908 5.00165 18 5H17V3C17 2.73478 16.8946 2.48043 16.7071 2.29289C16.5196 2.10536 16.2652 2 16 2C15.7348 2 15.4804 2.10536 15.2929 2.29289C15.1054 2.48043 15 2.73478 15 3V5H14C12.4087 5 10.8826 5.63214 9.75736 6.75736C8.63214 7.88258 8 9.4087 8 11C8 12.5913 8.63214 14.1174 9.75736 15.2426C10.8826 16.3679 12.4087 17 14 17H15V25H13C11.9391 25 10.9217 24.5786 10.1716 23.8284C9.42143 23.0783 9 22.0609 9 21C9 20.7348 8.89464 20.4804 8.70711 20.2929C8.51957 20.1054 8.26522 20 8 20C7.73478 20 7.48043 20.1054 7.29289 20.2929C7.10536 20.4804 7 20.7348 7 21C7.00165 22.5908 7.63433 24.116 8.75919 25.2408C9.88405 26.3657 11.4092 26.9983 13 27H15V29C15 29.2652 15.1054 29.5196 15.2929 29.7071C15.4804 29.8946 15.7348 30 16 30C16.2652 30 16.5196 29.8946 16.7071 29.7071C16.8946 29.5196 17 29.2652 17 29V27H19C20.5913 27 22.1174 26.3679 23.2426 25.2426C24.3679 24.1174 25 22.5913 25 21C25 19.4087 24.3679 17.8826 23.2426 16.7574C22.1174 15.6321 20.5913 15 19 15ZM14 15C12.9391 15 11.9217 14.5786 11.1716 13.8284C10.4214 13.0783 10 12.0609 10 11C10 9.93913 10.4214 8.92172 11.1716 8.17157C11.9217 7.42143 12.9391 7 14 7H15V15H14ZM19 25H17V17H19C20.0609 17 21.0783 17.4214 21.8284 18.1716C22.5786 18.9217 23 19.9391 23 21C23 22.0609 22.5786 23.0783 21.8284 23.8284C21.0783 24.5786 20.0609 25 19 25Z" fill="currentColor"/>
<path d="M67 15.5H64.5V6.5H66C67.1935 6.5 68.3381 6.97411 69.182 7.81802C70.0259 8.66193 70.5 9.80653 70.5 11C70.5 11.1326 70.5527 11.2598 70.6464 11.3536C70.7402 11.4473 70.8674 11.5 71 11.5C71.1326 11.5 71.2598 11.4473 71.3536 11.3536C71.4473 11.2598 71.5 11.1326 71.5 11C71.4983 9.54182 70.9184 8.14383 69.8873 7.11274C68.8562 6.08165 67.4582 5.50165 66 5.5H64.5V3C64.5 2.86739 64.4473 2.74021 64.3536 2.64645C64.2598 2.55268 64.1326 2.5 64 2.5C63.8674 2.5 63.7402 2.55268 63.6464 2.64645C63.5527 2.74021 63.5 2.86739 63.5 3V5.5H62C60.5413 5.5 59.1424 6.07946 58.1109 7.11091C57.0795 8.14236 56.5 9.54131 56.5 11C56.5 12.4587 57.0795 13.8576 58.1109 14.8891C59.1424 15.9205 60.5413 16.5 62 16.5H63.5V25.5H61C59.8065 25.5 58.6619 25.0259 57.818 24.182C56.9741 23.3381 56.5 22.1935 56.5 21C56.5 20.8674 56.4473 20.7402 56.3536 20.6464C56.2598 20.5527 56.1326 20.5 56 20.5C55.8674 20.5 55.7402 20.5527 55.6464 20.6464C55.5527 20.7402 55.5 20.8674 55.5 21C55.5017 22.4582 56.0816 23.8562 57.1127 24.8873C58.1438 25.9184 59.5418 26.4983 61 26.5H63.5V29C63.5 29.1326 63.5527 29.2598 63.6464 29.3536C63.7402 29.4473 63.8674 29.5 64 29.5C64.1326 29.5 64.2598 29.4473 64.3536 29.3536C64.4473 29.2598 64.5 29.1326 64.5 29V26.5H67C68.4587 26.5 69.8576 25.9205 70.8891 24.8891C71.9205 23.8576 72.5 22.4587 72.5 21C72.5 19.5413 71.9205 18.1424 70.8891 17.1109C69.8576 16.0795 68.4587 15.5 67 15.5ZM62 15.5C60.8065 15.5 59.6619 15.0259 58.818 14.182C57.9741 13.3381 57.5 12.1935 57.5 11C57.5 9.80653 57.9741 8.66193 58.818 7.81802C59.6619 6.97411 60.8065 6.5 62 6.5H63.5V15.5H62ZM67 25.5H64.5V16.5H67C68.1935 16.5 69.3381 16.9741 70.182 17.818C71.0259 18.6619 71.5 19.8065 71.5 21C71.5 22.1935 71.0259 23.3381 70.182 24.182C69.3381 25.0259 68.1935 25.5 67 25.5Z" fill="currentColor"/>
<path d="M115 15.25H112.75V6.75H114C115.127 6.75 116.208 7.19777 117.005 7.9948C117.802 8.79183 118.25 9.87283 118.25 11C118.25 11.1989 118.329 11.3897 118.47 11.5303C118.61 11.671 118.801 11.75 119 11.75C119.199 11.75 119.39 11.671 119.53 11.5303C119.671 11.3897 119.75 11.1989 119.75 11C119.748 9.47561 119.142 8.01423 118.064 6.93633C116.986 5.85842 115.524 5.25198 114 5.25H112.75V3C112.75 2.80109 112.671 2.61032 112.53 2.46967C112.39 2.32902 112.199 2.25 112 2.25C111.801 2.25 111.61 2.32902 111.47 2.46967C111.329 2.61032 111.25 2.80109 111.25 3V5.25H110C108.475 5.25 107.012 5.8558 105.934 6.93414C104.856 8.01247 104.25 9.47501 104.25 11C104.25 12.525 104.856 13.9875 105.934 15.0659C107.012 16.1442 108.475 16.75 110 16.75H111.25V25.25H109C107.873 25.25 106.792 24.8022 105.995 24.0052C105.198 23.2082 104.75 22.1272 104.75 21C104.75 20.8011 104.671 20.6103 104.53 20.4697C104.39 20.329 104.199 20.25 104 20.25C103.801 20.25 103.61 20.329 103.47 20.4697C103.329 20.6103 103.25 20.8011 103.25 21C103.252 22.5244 103.858 23.9858 104.936 25.0637C106.014 26.1416 107.476 26.748 109 26.75H111.25V29C111.25 29.1989 111.329 29.3897 111.47 29.5303C111.61 29.671 111.801 29.75 112 29.75C112.199 29.75 112.39 29.671 112.53 29.5303C112.671 29.3897 112.75 29.1989 112.75 29V26.75H115C116.525 26.75 117.988 26.1442 119.066 25.0659C120.144 23.9875 120.75 22.525 120.75 21C120.75 19.475 120.144 18.0125 119.066 16.9341C117.988 15.8558 116.525 15.25 115 15.25ZM110 15.25C108.873 15.25 107.792 14.8022 106.995 14.0052C106.198 13.2082 105.75 12.1272 105.75 11C105.75 9.87283 106.198 8.79183 106.995 7.9948C107.792 7.19777 108.873 6.75 110 6.75H111.25V15.25H110ZM115 25.25H112.75V16.75H115C116.127 16.75 117.208 17.1978 118.005 17.9948C118.802 18.7918 119.25 19.8728 119.25 21C119.25 22.1272 118.802 23.2082 118.005 24.0052C117.208 24.8022 116.127 25.25 115 25.25Z" fill="currentColor"/>
<path d="M163 14.5H161.5V7.5H162C162.928 7.5 163.818 7.86875 164.475 8.52513C165.131 9.1815 165.5 10.0717 165.5 11C165.5 11.3978 165.658 11.7794 165.939 12.0607C166.221 12.342 166.602 12.5 167 12.5C167.398 12.5 167.779 12.342 168.061 12.0607C168.342 11.7794 168.5 11.3978 168.5 11C168.498 9.2767 167.813 7.62455 166.594 6.406C165.375 5.18744 163.723 4.50199 162 4.5H161.5V3C161.5 2.60218 161.342 2.22064 161.061 1.93934C160.779 1.65804 160.398 1.5 160 1.5C159.602 1.5 159.221 1.65804 158.939 1.93934C158.658 2.22064 158.5 2.60218 158.5 3V4.5H158C156.276 4.5 154.623 5.18482 153.404 6.40381C152.185 7.62279 151.5 9.27609 151.5 11C151.5 12.7239 152.185 14.3772 153.404 15.5962C154.623 16.8152 156.276 17.5 158 17.5H158.5V24.5H157C156.072 24.5 155.182 24.1313 154.525 23.4749C153.869 22.8185 153.5 21.9283 153.5 21C153.5 20.6022 153.342 20.2206 153.061 19.9393C152.779 19.658 152.398 19.5 152 19.5C151.602 19.5 151.221 19.658 150.939 19.9393C150.658 20.2206 150.5 20.6022 150.5 21C150.502 22.7233 151.187 24.3754 152.406 25.594C153.625 26.8126 155.277 27.498 157 27.5H158.5V29C158.5 29.3978 158.658 29.7794 158.939 30.0607C159.221 30.342 159.602 30.5 160 30.5C160.398 30.5 160.779 30.342 161.061 30.0607C161.342 29.7794 161.5 29.3978 161.5 29V27.5H163C164.724 27.5 166.377 26.8152 167.596 25.5962C168.815 24.3772 169.5 22.7239 169.5 21C169.5 19.2761 168.815 17.6228 167.596 16.4038C166.377 15.1848 164.724 14.5 163 14.5ZM158 14.5C157.072 14.5 156.182 14.1313 155.525 13.4749C154.869 12.8185 154.5 11.9283 154.5 11C154.5 10.0717 154.869 9.1815 155.525 8.52513C156.182 7.86875 157.072 7.5 158 7.5H158.5V14.5H158ZM163 24.5H161.5V17.5H163C163.928 17.5 164.818 17.8687 165.475 18.5251C166.131 19.1815 166.5 20.0717 166.5 21C166.5 21.9283 166.131 22.8185 165.475 23.4749C164.818 24.1313 163.928 24.5 163 24.5Z" fill="currentColor"/>
<path d="M206.5 10H207V15H206.5C205.837 15 205.201 14.7366 204.732 14.2678C204.263 13.7989 204 13.163 204 12.5C204 11.837 204.263 11.2011 204.732 10.7322C205.201 10.2634 205.837 10 206.5 10ZM210.5 17H209V22H210.5C211.163 22 211.799 21.7366 212.268 21.2678C212.737 20.7989 213 20.163 213 19.5C213 18.837 212.737 18.2011 212.268 17.7322C211.799 17.2634 211.163 17 210.5 17ZM221 16C221 18.5712 220.238 21.0846 218.809 23.2224C217.381 25.3603 215.35 27.0265 212.975 28.0104C210.599 28.9944 207.986 29.2518 205.464 28.7502C202.942 28.2486 200.626 27.0105 198.808 25.1924C196.99 23.3743 195.751 21.0579 195.25 18.5362C194.748 16.0144 195.006 13.4006 195.99 11.0251C196.974 8.64968 198.64 6.61935 200.778 5.1909C202.915 3.76244 205.429 3 208 3C211.447 3.00364 214.751 4.37445 217.188 6.81163C219.626 9.24882 220.996 12.5533 221 16ZM215 19.5C215 18.3065 214.526 17.1619 213.682 16.318C212.838 15.4741 211.693 15 210.5 15H209V10H209.5C210.163 10 210.799 10.2634 211.268 10.7322C211.737 11.2011 212 11.837 212 12.5C212 12.7652 212.105 13.0196 212.293 13.2071C212.48 13.3946 212.735 13.5 213 13.5C213.265 13.5 213.52 13.3946 213.707 13.2071C213.895 13.0196 214 12.7652 214 12.5C214 11.3065 213.526 10.1619 212.682 9.31802C211.838 8.47411 210.693 8 209.5 8H209V7C209 6.73478 208.895 6.48043 208.707 6.29289C208.52 6.10536 208.265 6 208 6C207.735 6 207.48 6.10536 207.293 6.29289C207.105 6.48043 207 6.73478 207 7V8H206.5C205.307 8 204.162 8.47411 203.318 9.31802C202.474 10.1619 202 11.3065 202 12.5C202 13.6935 202.474 14.8381 203.318 15.682C204.162 16.5259 205.307 17 206.5 17H207V22H206C205.337 22 204.701 21.7366 204.232 21.2678C203.763 20.7989 203.5 20.163 203.5 19.5C203.5 19.2348 203.395 18.9804 203.207 18.7929C203.02 18.6054 202.765 18.5 202.5 18.5C202.235 18.5 201.98 18.6054 201.793 18.7929C201.605 18.9804 201.5 19.2348 201.5 19.5C201.5 20.6935 201.974 21.8381 202.818 22.682C203.662 23.5259 204.807 24 206 24H207V25C207 25.2652 207.105 25.5196 207.293 25.7071C207.48 25.8946 207.735 26 208 26C208.265 26 208.52 25.8946 208.707 25.7071C208.895 25.5196 209 25.2652 209 25V24H210.5C211.693 24 212.838 23.5259 213.682 22.682C214.526 21.8381 215 20.6935 215 19.5Z" fill="currentColor"/>
<path opacity="0.2" d="M264 21C264 21.6566 263.871 22.3068 263.619 22.9134C263.368 23.52 263 24.0712 262.536 24.5355C262.071 24.9998 261.52 25.3681 260.913 25.6194C260.307 25.8707 259.657 26 259 26H256V16H259C259.657 16 260.307 16.1293 260.913 16.3806C261.52 16.6319 262.071 17.0002 262.536 17.4645C263 17.9288 263.368 18.48 263.619 19.0866C263.871 19.6932 264 20.3434 264 21ZM254 6C252.674 6 251.402 6.52678 250.464 7.46447C249.527 8.40215 249 9.67392 249 11C249 12.3261 249.527 13.5979 250.464 14.5355C251.402 15.4732 252.674 16 254 16H256V6H254Z" fill="currentColor"/>
<path d="M259 15H257V7H258C259.061 7 260.078 7.42143 260.828 8.17157C261.579 8.92172 262 9.93913 262 11C262 11.2652 262.105 11.5196 262.293 11.7071C262.48 11.8946 262.735 12 263 12C263.265 12 263.52 11.8946 263.707 11.7071C263.895 11.5196 264 11.2652 264 11C263.998 9.40921 263.366 7.88405 262.241 6.75919C261.116 5.63433 259.591 5.00165 258 5H257V3C257 2.73478 256.895 2.48043 256.707 2.29289C256.52 2.10536 256.265 2 256 2C255.735 2 255.48 2.10536 255.293 2.29289C255.105 2.48043 255 2.73478 255 3V5H254C252.409 5 250.883 5.63214 249.757 6.75736C248.632 7.88258 248 9.4087 248 11C248 12.5913 248.632 14.1174 249.757 15.2426C250.883 16.3679 252.409 17 254 17H255V25H253C251.939 25 250.922 24.5786 250.172 23.8284C249.421 23.0783 249 22.0609 249 21C249 20.7348 248.895 20.4804 248.707 20.2929C248.52 20.1054 248.265 20 248 20C247.735 20 247.48 20.1054 247.293 20.2929C247.105 20.4804 247 20.7348 247 21C247.002 22.5908 247.634 24.116 248.759 25.2408C249.884 26.3657 251.409 26.9983 253 27H255V29C255 29.2652 255.105 29.5196 255.293 29.7071C255.48 29.8946 255.735 30 256 30C256.265 30 256.52 29.8946 256.707 29.7071C256.895 29.5196 257 29.2652 257 29V27H259C260.591 27 262.117 26.3679 263.243 25.2426C264.368 24.1174 265 22.5913 265 21C265 19.4087 264.368 17.8826 263.243 16.7574C262.117 15.6321 260.591 15 259 15ZM254 15C252.939 15 251.922 14.5786 251.172 13.8284C250.421 13.0783 250 12.0609 250 11C250 9.93913 250.421 8.92172 251.172 8.17157C251.922 7.42143 252.939 7 254 7H255V15H254ZM259 25H257V17H259C260.061 17 261.078 17.4214 261.828 18.1716C262.579 18.9217 263 19.9391 263 21C263 22.0609 262.579 23.0783 261.828 23.8284C261.078 24.5786 260.061 25 259 25Z" fill="currentColor"/>
</g>
<defs>
<clipPath id="clip0_17_8299">
<rect width="272" height="32" rx="5" fill="white"/>
</clipPath>
</defs>
</svg>
