<svg width="272" height="32" viewBox="0 0 272 32" fill="none" xmlns="http://www.w3.org/2000/svg">
<g clip-path="url(#clip0_17_8229)">
<path d="M26 10C26 10.2652 25.8946 10.5196 25.7071 10.7071C25.5196 10.8946 25.2652 11 25 11H20.9813C20.9925 11.165 21 11.3313 21 11.5C20.9977 13.4884 20.2068 15.3947 18.8007 16.8007C17.3947 18.2068 15.4884 18.9977 13.5 19H11.5863L20.6725 27.26C20.7715 27.3478 20.8521 27.4544 20.9096 27.5736C20.9671 27.6928 21.0003 27.8222 21.0074 27.9543C21.0145 28.0865 20.9953 28.2187 20.951 28.3434C20.9066 28.4681 20.8379 28.5827 20.7489 28.6806C20.6599 28.7785 20.5524 28.8578 20.4325 28.9139C20.3126 28.97 20.1828 29.0017 20.0506 29.0072C19.9184 29.0127 19.7864 28.9919 19.6623 28.9461C19.5381 28.9002 19.4244 28.8302 19.3275 28.74L8.3275 18.74C8.17814 18.6042 8.07336 18.4265 8.02693 18.2301C7.9805 18.0336 7.99459 17.8278 8.06735 17.6395C8.14011 17.4512 8.26814 17.2894 8.4346 17.1753C8.60106 17.0611 8.79817 17 9 17H13.5C14.9582 16.9983 16.3562 16.4184 17.3873 15.3873C18.4184 14.3562 18.9983 12.9582 19 11.5C19 11.3313 18.9913 11.165 18.9762 11H9C8.73478 11 8.48043 10.8946 8.29289 10.7071C8.10536 10.5196 8 10.2652 8 10C8 9.73478 8.10536 9.48043 8.29289 9.29289C8.48043 9.10536 8.73478 9 9 9H18.3962C17.9357 8.09745 17.2347 7.33968 16.3707 6.8103C15.5067 6.28092 14.5133 6.0005 13.5 6H9C8.73478 6 8.48043 5.89464 8.29289 5.70711C8.10536 5.51957 8 5.26522 8 5C8 4.73478 8.10536 4.48043 8.29289 4.29289C8.48043 4.10536 8.73478 4 9 4H25C25.2652 4 25.5196 4.10536 25.7071 4.29289C25.8946 4.48043 26 4.73478 26 5C26 5.26522 25.8946 5.51957 25.7071 5.70711C25.5196 5.89464 25.2652 6 25 6H18.5925C19.4845 6.82542 20.1631 7.85483 20.57 9H25C25.2652 9 25.5196 9.10536 25.7071 9.29289C25.8946 9.48043 26 9.73478 26 10Z" fill="currentColor"/>
<path d="M73.5 10C73.5 10.1326 73.4473 10.2598 73.3536 10.3536C73.2598 10.4473 73.1326 10.5 73 10.5H68.4275C68.4751 10.8312 68.4993 11.1654 68.5 11.5C68.498 13.3559 67.7599 15.1352 66.4476 16.4476C65.1352 17.7599 63.3559 18.498 61.5 18.5H58.2937L68.3363 27.625C68.3857 27.6689 68.426 27.7222 68.4548 27.7818C68.4835 27.8414 68.5002 27.9061 68.5037 27.9722C68.5073 28.0382 68.4977 28.1044 68.4755 28.1667C68.4533 28.229 68.419 28.2863 68.3745 28.3353C68.33 28.3843 68.2762 28.4239 68.2163 28.4519C68.1563 28.48 68.0914 28.4958 68.0253 28.4986C67.9592 28.5014 67.8932 28.491 67.8311 28.468C67.7691 28.4451 67.7122 28.4101 67.6637 28.365L56.6637 18.365C56.5909 18.2968 56.5401 18.2083 56.5179 18.111C56.4958 18.0136 56.5032 17.9119 56.5394 17.8188C56.5756 17.7258 56.6388 17.6457 56.7209 17.5889C56.803 17.532 56.9002 17.5011 57 17.5H61.5C62.3725 17.4998 63.2344 17.3094 64.0257 16.942C64.8171 16.5746 65.5187 16.039 66.0818 15.3726C66.645 14.7062 67.056 13.925 67.2862 13.0834C67.5165 12.2419 67.5604 11.3603 67.415 10.5H57C56.8674 10.5 56.7402 10.4473 56.6464 10.3536C56.5527 10.2598 56.5 10.1326 56.5 10C56.5 9.86739 56.5527 9.74021 56.6464 9.64645C56.7402 9.55268 56.8674 9.5 57 9.5H67.1562C66.7413 8.3312 65.9749 7.31938 64.9623 6.60325C63.9496 5.88713 62.7403 5.50177 61.5 5.5H57C56.8674 5.5 56.7402 5.44732 56.6464 5.35355C56.5527 5.25979 56.5 5.13261 56.5 5C56.5 4.86739 56.5527 4.74021 56.6464 4.64645C56.7402 4.55268 56.8674 4.5 57 4.5H73C73.1326 4.5 73.2598 4.55268 73.3536 4.64645C73.4473 4.74021 73.5 4.86739 73.5 5C73.5 5.13261 73.4473 5.25979 73.3536 5.35355C73.2598 5.44732 73.1326 5.5 73 5.5H65.1012C66.5977 6.40111 67.705 7.82706 68.2075 9.5H73C73.1326 9.5 73.2598 9.55268 73.3536 9.64645C73.4473 9.74021 73.5 9.86739 73.5 10Z" fill="currentColor"/>
<path d="M121.75 10C121.75 10.1989 121.671 10.3897 121.53 10.5303C121.39 10.671 121.199 10.75 121 10.75H116.711C116.737 10.9992 116.75 11.2495 116.75 11.5C116.748 13.4221 115.983 15.2648 114.624 16.624C113.265 17.9831 111.422 18.7477 109.5 18.75H106.94L116.5 27.445C116.647 27.5789 116.735 27.7659 116.744 27.9646C116.754 28.1634 116.684 28.3578 116.55 28.505C116.416 28.6522 116.229 28.7402 116.03 28.7495C115.832 28.7589 115.637 28.6889 115.49 28.555L104.49 18.555C104.378 18.4529 104.299 18.319 104.264 18.1712C104.23 18.0233 104.241 17.8684 104.296 17.727C104.351 17.5855 104.448 17.4642 104.574 17.379C104.699 17.2939 104.848 17.2489 105 17.25H109.5C111.024 17.248 112.486 16.6416 113.564 15.5637C114.642 14.4858 115.248 13.0244 115.25 11.5C115.249 11.2492 115.232 10.9987 115.2 10.75H105C104.801 10.75 104.61 10.671 104.47 10.5303C104.329 10.3897 104.25 10.1989 104.25 10C104.25 9.80109 104.329 9.61032 104.47 9.46967C104.61 9.32902 104.801 9.25 105 9.25H114.791C114.349 8.21268 113.611 7.32807 112.671 6.70589C111.73 6.08372 110.628 5.75134 109.5 5.75H105C104.801 5.75 104.61 5.67098 104.47 5.53033C104.329 5.38968 104.25 5.19891 104.25 5C104.25 4.80109 104.329 4.61032 104.47 4.46967C104.61 4.32902 104.801 4.25 105 4.25H121C121.199 4.25 121.39 4.32902 121.53 4.46967C121.671 4.61032 121.75 4.80109 121.75 5C121.75 5.19891 121.671 5.38968 121.53 5.53033C121.39 5.67098 121.199 5.75 121 5.75H113.909C115.069 6.64081 115.934 7.86045 116.391 9.25H121C121.199 9.25 121.39 9.32902 121.53 9.46967C121.671 9.61032 121.75 9.80109 121.75 10Z" fill="currentColor"/>
<path d="M170.5 10C170.5 10.3978 170.342 10.7794 170.061 11.0607C169.779 11.342 169.398 11.5 169 11.5H165.5C165.498 13.621 164.654 15.6545 163.154 17.1543C161.655 18.6541 159.621 19.4977 157.5 19.5H156.875L165 26.89C165.149 27.0217 165.269 27.1816 165.356 27.3604C165.442 27.5392 165.492 27.7333 165.502 27.9315C165.513 28.1297 165.484 28.3281 165.418 28.5151C165.351 28.7021 165.248 28.874 165.115 29.0209C164.981 29.1678 164.82 29.2868 164.64 29.3708C164.46 29.4549 164.266 29.5025 164.067 29.5108C163.869 29.5191 163.671 29.4879 163.485 29.4191C163.299 29.3503 163.128 29.2453 162.983 29.11L151.983 19.11C151.758 18.9059 151.601 18.6384 151.531 18.3429C151.462 18.0475 151.484 17.7379 151.594 17.4551C151.704 17.1724 151.898 16.9297 152.149 16.7592C152.4 16.5886 152.697 16.4983 153 16.5H157.5C158.826 16.5 160.098 15.9732 161.036 15.0355C161.973 14.0979 162.5 12.8261 162.5 11.5H153C152.602 11.5 152.221 11.342 151.939 11.0607C151.658 10.7794 151.5 10.3978 151.5 10C151.5 9.60218 151.658 9.22064 151.939 8.93934C152.221 8.65804 152.602 8.5 153 8.5H161.5C161.034 7.87902 160.43 7.375 159.736 7.02786C159.042 6.68073 158.276 6.5 157.5 6.5H153C152.602 6.5 152.221 6.34196 151.939 6.06066C151.658 5.77936 151.5 5.39782 151.5 5C151.5 4.60218 151.658 4.22064 151.939 3.93934C152.221 3.65804 152.602 3.5 153 3.5H169C169.398 3.5 169.779 3.65804 170.061 3.93934C170.342 4.22064 170.5 4.60218 170.5 5C170.5 5.39782 170.342 5.77936 170.061 6.06066C169.779 6.34196 169.398 6.5 169 6.5H163.739C164.226 7.10604 164.621 7.77979 164.914 8.5H169C169.398 8.5 169.779 8.65804 170.061 8.93934C170.342 9.22064 170.5 9.60218 170.5 10Z" fill="currentColor"/>
<path d="M208 3C205.429 3 202.915 3.76244 200.778 5.1909C198.64 6.61935 196.974 8.64968 195.99 11.0251C195.006 13.4006 194.748 16.0144 195.25 18.5362C195.751 21.0579 196.99 23.3743 198.808 25.1924C200.626 27.0105 202.942 28.2486 205.464 28.7502C207.986 29.2518 210.599 28.9944 212.975 28.0104C215.35 27.0265 217.381 25.3603 218.809 23.2224C220.238 21.0846 221 18.5712 221 16C220.996 12.5533 219.626 9.24882 217.188 6.81163C214.751 4.37445 211.447 3.00364 208 3ZM211.656 11H214C214.265 11 214.52 11.1054 214.707 11.2929C214.895 11.4804 215 11.7348 215 12C215 12.2652 214.895 12.5196 214.707 12.7071C214.52 12.8946 214.265 13 214 13H212C211.998 14.5908 211.366 16.116 210.241 17.2408C209.116 18.3657 207.591 18.9983 206 19H205.661L211.661 24.25C211.842 24.4293 211.948 24.6711 211.957 24.9258C211.966 25.1806 211.877 25.4291 211.709 25.6206C211.541 25.8121 211.306 25.9322 211.052 25.9562C210.798 25.9803 210.545 25.9065 210.344 25.75L202.344 18.75C202.192 18.6159 202.084 18.4389 202.035 18.2422C201.986 18.0456 201.998 17.8386 202.069 17.6489C202.14 17.4591 202.267 17.2954 202.433 17.1795C202.6 17.0637 202.797 17.001 203 17H206C207.061 17 208.078 16.5786 208.828 15.8284C209.579 15.0783 210 14.0609 210 13H203C202.735 13 202.48 12.8946 202.293 12.7071C202.105 12.5196 202 12.2652 202 12C202 11.7348 202.105 11.4804 202.293 11.2929C202.48 11.1054 202.735 11 203 11H209.461C209.11 10.3923 208.606 9.88766 207.998 9.53661C207.391 9.18556 206.702 9.0005 206 9H203C202.735 9 202.48 8.89464 202.293 8.70711C202.105 8.51957 202 8.26522 202 8C202 7.73478 202.105 7.48043 202.293 7.29289C202.48 7.10536 202.735 7 203 7H214C214.265 7 214.52 7.10536 214.707 7.29289C214.895 7.48043 215 7.73478 215 8C215 8.26522 214.895 8.51957 214.707 8.70711C214.52 8.89464 214.265 9 214 9H210.468C210.99 9.583 211.394 10.2624 211.656 11Z" fill="currentColor"/>
<path opacity="0.2" d="M260 11.5C260 13.2239 259.315 14.8772 258.096 16.0962C256.877 17.3152 255.224 18 253.5 18H249V5H253.5C255.224 5 256.877 5.68482 258.096 6.90381C259.315 8.12279 260 9.77609 260 11.5Z" fill="currentColor"/>
<path d="M266 10C266 10.2652 265.895 10.5196 265.707 10.7071C265.52 10.8946 265.265 11 265 11H260.981C260.993 11.165 261 11.3313 261 11.5C260.998 13.4884 260.207 15.3947 258.801 16.8007C257.395 18.2068 255.488 18.9977 253.5 19H251.586L260.673 27.26C260.771 27.3478 260.852 27.4544 260.91 27.5736C260.967 27.6928 261 27.8222 261.007 27.9543C261.015 28.0865 260.995 28.2187 260.951 28.3434C260.907 28.4681 260.838 28.5827 260.749 28.6806C260.66 28.7785 260.552 28.8578 260.433 28.9139C260.313 28.97 260.183 29.0017 260.051 29.0072C259.918 29.0127 259.786 28.9919 259.662 28.9461C259.538 28.9002 259.424 28.8302 259.327 28.74L248.328 18.74C248.178 18.6042 248.073 18.4265 248.027 18.2301C247.98 18.0336 247.995 17.8278 248.067 17.6395C248.14 17.4512 248.268 17.2894 248.435 17.1753C248.601 17.0611 248.798 17 249 17H253.5C254.958 16.9983 256.356 16.4184 257.387 15.3873C258.418 14.3562 258.998 12.9582 259 11.5C259 11.3313 258.991 11.165 258.976 11H249C248.735 11 248.48 10.8946 248.293 10.7071C248.105 10.5196 248 10.2652 248 10C248 9.73478 248.105 9.48043 248.293 9.29289C248.48 9.10536 248.735 9 249 9H258.396C257.936 8.09745 257.235 7.33968 256.371 6.8103C255.507 6.28092 254.513 6.0005 253.5 6H249C248.735 6 248.48 5.89464 248.293 5.70711C248.105 5.51957 248 5.26522 248 5C248 4.73478 248.105 4.48043 248.293 4.29289C248.48 4.10536 248.735 4 249 4H265C265.265 4 265.52 4.10536 265.707 4.29289C265.895 4.48043 266 4.73478 266 5C266 5.26522 265.895 5.51957 265.707 5.70711C265.52 5.89464 265.265 6 265 6H258.593C259.485 6.82542 260.163 7.85483 260.57 9H265C265.265 9 265.52 9.10536 265.707 9.29289C265.895 9.48043 266 9.73478 266 10Z" fill="currentColor"/>
</g>
<defs>
<clipPath id="clip0_17_8229">
<rect width="272" height="32" rx="5" fill="white"/>
</clipPath>
</defs>
</svg>
