<svg width="272" height="32" viewBox="0 0 272 32" fill="none" xmlns="http://www.w3.org/2000/svg">
<g clip-path="url(#clip0_17_8131)">
<path d="M29 27H26V5C26 4.46957 25.7893 3.96086 25.4142 3.58579C25.0391 3.21071 24.5304 3 24 3H8C7.46957 3 6.96086 3.21071 6.58579 3.58579C6.21071 3.96086 6 4.46957 6 5V27H3C2.73478 27 2.48043 27.1054 2.29289 27.2929C2.10536 27.4804 2 27.7348 2 28C2 28.2652 2.10536 28.5196 2.29289 28.7071C2.48043 28.8946 2.73478 29 3 29H29C29.2652 29 29.5196 28.8946 29.7071 28.7071C29.8946 28.5196 30 28.2652 30 28C30 27.7348 29.8946 27.4804 29.7071 27.2929C29.5196 27.1054 29.2652 27 29 27ZM24 5V27H22V5H24ZM8 5H20V27H8V5ZM18 16.5C18 16.7967 17.912 17.0867 17.7472 17.3334C17.5824 17.58 17.3481 17.7723 17.074 17.8858C16.7999 17.9993 16.4983 18.0291 16.2074 17.9712C15.9164 17.9133 15.6491 17.7704 15.4393 17.5607C15.2296 17.3509 15.0867 17.0836 15.0288 16.7926C14.9709 16.5017 15.0006 16.2001 15.1142 15.926C15.2277 15.6519 15.42 15.4176 15.6666 15.2528C15.9133 15.088 16.2033 15 16.5 15C16.8978 15 17.2794 15.158 17.5607 15.4393C17.842 15.7206 18 16.1022 18 16.5Z" fill="currentColor"/>
<path d="M77 27.5H73.5V5C73.5 4.60218 73.342 4.22064 73.0607 3.93934C72.7794 3.65804 72.3978 3.5 72 3.5H56C55.6022 3.5 55.2206 3.65804 54.9393 3.93934C54.658 4.22064 54.5 4.60218 54.5 5V27.5H51C50.8674 27.5 50.7402 27.5527 50.6464 27.6464C50.5527 27.7402 50.5 27.8674 50.5 28C50.5 28.1326 50.5527 28.2598 50.6464 28.3536C50.7402 28.4473 50.8674 28.5 51 28.5H77C77.1326 28.5 77.2598 28.4473 77.3536 28.3536C77.4473 28.2598 77.5 28.1326 77.5 28C77.5 27.8674 77.4473 27.7402 77.3536 27.6464C77.2598 27.5527 77.1326 27.5 77 27.5ZM72.5 5V27.5H69.5V5C69.4999 4.82953 69.4703 4.66036 69.4125 4.5H72C72.1326 4.5 72.2598 4.55268 72.3536 4.64645C72.4473 4.74021 72.5 4.86739 72.5 5ZM55.5 5C55.5 4.86739 55.5527 4.74021 55.6464 4.64645C55.7402 4.55268 55.8674 4.5 56 4.5H68C68.1326 4.5 68.2598 4.55268 68.3536 4.64645C68.4473 4.74021 68.5 4.86739 68.5 5V27.5H55.5V5ZM66 16.5C66 16.7967 65.912 17.0867 65.7472 17.3334C65.5824 17.58 65.3481 17.7723 65.074 17.8858C64.7999 17.9993 64.4983 18.0291 64.2074 17.9712C63.9164 17.9133 63.6491 17.7704 63.4393 17.5607C63.2296 17.3509 63.0867 17.0836 63.0288 16.7926C62.9709 16.5017 63.0006 16.2001 63.1142 15.926C63.2277 15.6519 63.42 15.4176 63.6666 15.2528C63.9133 15.088 64.2033 15 64.5 15C64.8978 15 65.2794 15.158 65.5607 15.4393C65.842 15.7206 66 16.1022 66 16.5Z" fill="currentColor"/>
<path d="M125 27.25H121.75V5C121.75 4.53587 121.566 4.09075 121.237 3.76256C120.909 3.43437 120.464 3.25 120 3.25H104C103.536 3.25 103.091 3.43437 102.763 3.76256C102.434 4.09075 102.25 4.53587 102.25 5V27.25H99C98.8011 27.25 98.6103 27.329 98.4697 27.4697C98.329 27.6103 98.25 27.8011 98.25 28C98.25 28.1989 98.329 28.3897 98.4697 28.5303C98.6103 28.671 98.8011 28.75 99 28.75H125C125.199 28.75 125.39 28.671 125.53 28.5303C125.671 28.3897 125.75 28.1989 125.75 28C125.75 27.8011 125.671 27.6103 125.53 27.4697C125.39 27.329 125.199 27.25 125 27.25ZM120.25 5V27.25H117.75V5C117.749 4.91631 117.742 4.83278 117.73 4.75H120C120.066 4.75 120.13 4.77634 120.177 4.82322C120.224 4.87011 120.25 4.9337 120.25 5ZM103.75 5C103.75 4.9337 103.776 4.87011 103.823 4.82322C103.87 4.77634 103.934 4.75 104 4.75H116C116.066 4.75 116.13 4.77634 116.177 4.82322C116.224 4.87011 116.25 4.9337 116.25 5V27.25H103.75V5ZM114 16.5C114 16.7967 113.912 17.0867 113.747 17.3334C113.582 17.58 113.348 17.7723 113.074 17.8858C112.8 17.9993 112.498 18.0291 112.207 17.9712C111.916 17.9133 111.649 17.7704 111.439 17.5607C111.23 17.3509 111.087 17.0836 111.029 16.7926C110.971 16.5017 111.001 16.2001 111.114 15.926C111.228 15.6519 111.42 15.4176 111.667 15.2528C111.913 15.088 112.203 15 112.5 15C112.898 15 113.279 15.158 113.561 15.4393C113.842 15.7206 114 16.1022 114 16.5Z" fill="currentColor"/>
<path d="M173 26.5H170.5V5C170.5 4.33696 170.237 3.70107 169.768 3.23223C169.299 2.76339 168.663 2.5 168 2.5H152C151.337 2.5 150.701 2.76339 150.232 3.23223C149.763 3.70107 149.5 4.33696 149.5 5V26.5H147C146.602 26.5 146.221 26.658 145.939 26.9393C145.658 27.2206 145.5 27.6022 145.5 28C145.5 28.3978 145.658 28.7794 145.939 29.0607C146.221 29.342 146.602 29.5 147 29.5H173C173.398 29.5 173.779 29.342 174.061 29.0607C174.342 28.7794 174.5 28.3978 174.5 28C174.5 27.6022 174.342 27.2206 174.061 26.9393C173.779 26.658 173.398 26.5 173 26.5ZM167.5 26.5H165.5V5.5H167.5V26.5ZM152.5 5.5H162.5V26.5H152.5V5.5ZM161 16.5C161 16.7967 160.912 17.0867 160.747 17.3334C160.582 17.58 160.348 17.7723 160.074 17.8858C159.8 17.9993 159.498 18.0291 159.207 17.9712C158.916 17.9133 158.649 17.7704 158.439 17.5607C158.23 17.3509 158.087 17.0836 158.029 16.7926C157.971 16.5017 158.001 16.2001 158.114 15.926C158.228 15.6519 158.42 15.4176 158.667 15.2528C158.913 15.088 159.203 15 159.5 15C159.898 15 160.279 15.158 160.561 15.4393C160.842 15.7206 161 16.1022 161 16.5Z" fill="currentColor"/>
<path d="M221 27H218V5C218 4.46957 217.789 3.96086 217.414 3.58579C217.039 3.21071 216.53 3 216 3H200C199.47 3 198.961 3.21071 198.586 3.58579C198.211 3.96086 198 4.46957 198 5V27H195C194.735 27 194.48 27.1054 194.293 27.2929C194.105 27.4804 194 27.7348 194 28C194 28.2652 194.105 28.5196 194.293 28.7071C194.48 28.8946 194.735 29 195 29H221C221.265 29 221.52 28.8946 221.707 28.7071C221.895 28.5196 222 28.2652 222 28C222 27.7348 221.895 27.4804 221.707 27.2929C221.52 27.1054 221.265 27 221 27ZM213 27H200V5H213V27ZM208 16.5C208 16.2033 208.088 15.9133 208.253 15.6666C208.418 15.42 208.652 15.2277 208.926 15.1142C209.2 15.0006 209.502 14.9709 209.793 15.0288C210.084 15.0867 210.351 15.2296 210.561 15.4393C210.77 15.6491 210.913 15.9164 210.971 16.2074C211.029 16.4983 210.999 16.7999 210.886 17.074C210.772 17.3481 210.58 17.5824 210.333 17.7472C210.087 17.912 209.797 18 209.5 18C209.102 18 208.721 17.842 208.439 17.5607C208.158 17.2794 208 16.8978 208 16.5Z" fill="currentColor"/>
<path opacity="0.2" d="M265 5V28H261V5C261 4.73478 260.895 4.48043 260.707 4.29289C260.52 4.10536 260.265 4 260 4H264C264.265 4 264.52 4.10536 264.707 4.29289C264.895 4.48043 265 4.73478 265 5Z" fill="currentColor"/>
<path d="M269 27H266V5C266 4.46957 265.789 3.96086 265.414 3.58579C265.039 3.21071 264.53 3 264 3H248C247.47 3 246.961 3.21071 246.586 3.58579C246.211 3.96086 246 4.46957 246 5V27H243C242.735 27 242.48 27.1054 242.293 27.2929C242.105 27.4804 242 27.7348 242 28C242 28.2652 242.105 28.5196 242.293 28.7071C242.48 28.8946 242.735 29 243 29H269C269.265 29 269.52 28.8946 269.707 28.7071C269.895 28.5196 270 28.2652 270 28C270 27.7348 269.895 27.4804 269.707 27.2929C269.52 27.1054 269.265 27 269 27ZM264 5V27H262V5H264ZM248 5H260V27H248V5ZM258 16.5C258 16.7967 257.912 17.0867 257.747 17.3334C257.582 17.58 257.348 17.7723 257.074 17.8858C256.8 17.9993 256.498 18.0291 256.207 17.9712C255.916 17.9133 255.649 17.7704 255.439 17.5607C255.23 17.3509 255.087 17.0836 255.029 16.7926C254.971 16.5017 255.001 16.2001 255.114 15.926C255.228 15.6519 255.42 15.4176 255.667 15.2528C255.913 15.088 256.203 15 256.5 15C256.898 15 257.279 15.158 257.561 15.4393C257.842 15.7206 258 16.1022 258 16.5Z" fill="currentColor"/>
</g>
<defs>
<clipPath id="clip0_17_8131">
<rect width="272" height="32" rx="5" fill="white"/>
</clipPath>
</defs>
</svg>
