<svg width="272" height="32" viewBox="0 0 272 32" fill="none" xmlns="http://www.w3.org/2000/svg">
<g clip-path="url(#clip0_17_8117)">
<path d="M26.8375 26.2125C26.8337 26.2018 26.8291 26.1913 26.8238 26.1812L21.1388 14.0737L23.7013 10.0513C23.7063 10.044 23.7109 10.0365 23.715 10.0288C23.9014 9.71798 23.9999 9.36239 23.9999 9C23.9999 8.63761 23.9014 8.28203 23.715 7.97125C23.7038 7.95125 23.69 7.93125 23.6775 7.9125L21 4.0875V1C21 0.734784 20.8947 0.48043 20.7071 0.292893C20.5196 0.105357 20.2653 0 20 0C19.7348 0 19.4805 0.105357 19.2929 0.292893C19.1054 0.48043 19 0.734784 19 1V4.0525L18.3425 4.875C18.0615 5.22628 17.705 5.50986 17.2995 5.70473C16.894 5.8996 16.4499 6.00078 16 6.00078C15.5502 6.00078 15.106 5.8996 14.7006 5.70473C14.2951 5.50986 13.9386 5.22628 13.6575 4.875L13 4.0525V1C13 0.734784 12.8947 0.48043 12.7071 0.292893C12.5196 0.105357 12.2653 0 12 0C11.7348 0 11.4805 0.105357 11.2929 0.292893C11.1054 0.48043 11 0.734784 11 1V4.0875L8.32254 7.9125C8.31004 7.93125 8.29629 7.95125 8.28504 7.97125C8.09864 8.28203 8.00017 8.63761 8.00017 9C8.00017 9.36239 8.09864 9.71798 8.28504 10.0288C8.28917 10.0365 8.29376 10.044 8.29879 10.0513L10.8613 14.0737L5.17629 26.1812C5.17096 26.1913 5.16637 26.2018 5.16254 26.2125C5.03227 26.5166 4.97948 26.8483 5.0089 27.1779C5.03833 27.5074 5.14905 27.8245 5.33114 28.1007C5.51323 28.377 5.76101 28.6037 6.05228 28.7607C6.34354 28.9176 6.66919 28.9998 7.00004 29H25C25.331 29.0001 25.6568 28.918 25.9482 28.7611C26.2397 28.6043 26.4876 28.3775 26.6699 28.1013C26.8521 27.825 26.9629 27.5078 26.9924 27.1782C27.0219 26.8485 26.9691 26.5167 26.8388 26.2125H26.8375ZM10 9L12.0538 6.07125L12.095 6.12375C12.5635 6.70952 13.1577 7.18241 13.8336 7.50738C14.5096 7.83236 15.25 8.00109 16 8.00109C16.7501 8.00109 17.4905 7.83236 18.1665 7.50738C18.8424 7.18241 19.4366 6.70952 19.905 6.12375L19.9463 6.07125L22 9L19.4525 13H12.5488L10 9ZM7.00004 27L12.6338 15H19.3638L25 27H7.00004Z" fill="currentColor"/>
<path d="M74.375 26.4088L74.3675 26.3937L68.5663 14.0363L71.2763 9.78625V9.77375C71.4168 9.54102 71.491 9.27434 71.491 9.0025C71.491 8.73066 71.4168 8.46398 71.2763 8.23125L71.2575 8.20125L68.5 4.25V1C68.5 0.867392 68.4474 0.740215 68.3536 0.646447C68.2598 0.552678 68.1326 0.5 68 0.5C67.8674 0.5 67.7403 0.552678 67.6465 0.646447C67.5527 0.740215 67.5 0.867392 67.5 1V4.2275L66.7338 5.18625C66.4059 5.59638 65.9899 5.92748 65.5167 6.15502C65.0435 6.38256 64.5251 6.5007 64 6.5007C63.475 6.5007 62.9566 6.38256 62.4834 6.15502C62.0101 5.92748 61.5942 5.59638 61.2663 5.18625L60.5 4.2275V1C60.5 0.867392 60.4474 0.740215 60.3536 0.646447C60.2598 0.552678 60.1326 0.5 60 0.5C59.8674 0.5 59.7403 0.552678 59.6465 0.646447C59.5527 0.740215 59.5 0.867392 59.5 1V4.25L56.7325 8.19875L56.7138 8.22875C56.5733 8.46148 56.4991 8.72816 56.4991 9C56.4991 9.27184 56.5733 9.53852 56.7138 9.77125C56.7161 9.77529 56.7182 9.77946 56.72 9.78375L59.43 14.0337L53.625 26.3937L53.6175 26.4088C53.5196 26.6372 53.4799 26.8865 53.5021 27.1341C53.5243 27.3816 53.6077 27.6198 53.7448 27.8272C53.8819 28.0346 54.0684 28.2046 54.2875 28.3221C54.5066 28.4395 54.7514 28.5007 55 28.5H73C73.248 28.4994 73.4919 28.4374 73.71 28.3194C73.9281 28.2015 74.1136 28.0313 74.2498 27.8241C74.3861 27.6169 74.4688 27.3792 74.4906 27.1322C74.5125 26.8852 74.4728 26.6366 74.375 26.4088ZM57.5675 9.25C57.5237 9.17399 57.5006 9.08777 57.5006 9C57.5006 8.91223 57.5237 8.82601 57.5675 8.75L60.0263 5.2375L60.4863 5.81125C60.9079 6.33817 61.4426 6.76353 62.0508 7.05584C62.659 7.34815 63.3252 7.49992 64 7.49992C64.6749 7.49992 65.341 7.34815 65.9493 7.05584C66.5575 6.76353 67.0922 6.33817 67.5138 5.81125L67.9738 5.2375L70.4363 8.75C70.4802 8.82601 70.5033 8.91223 70.5033 9C70.5033 9.08777 70.4802 9.17399 70.4363 9.25L67.73 13.5H60.2738L57.5675 9.25ZM73.4163 27.275C73.3714 27.3444 73.3097 27.4014 73.237 27.4408C73.1642 27.4801 73.0827 27.5005 73 27.5H55C54.9173 27.5005 54.8359 27.4801 54.7631 27.4408C54.6904 27.4014 54.6287 27.3444 54.5838 27.275C54.5379 27.2075 54.5097 27.1295 54.5018 27.0483C54.4939 26.967 54.5066 26.8851 54.5388 26.81L60.3175 14.5H67.6825L73.4613 26.81C73.4934 26.8851 73.5062 26.967 73.4983 27.0483C73.4904 27.1295 73.4622 27.2075 73.4163 27.275Z" fill="currentColor"/>
<path d="M122.607 26.3113C122.605 26.303 122.602 26.2951 122.597 26.2875L116.855 14.055L119.49 9.9175L119.501 9.9C119.664 9.62811 119.75 9.31703 119.75 9C119.75 8.68297 119.664 8.37189 119.501 8.1C119.492 8.085 119.482 8.07 119.472 8.055L116.75 4.16625V1C116.75 0.801088 116.671 0.610322 116.53 0.46967C116.39 0.329018 116.199 0.25 116 0.25C115.801 0.25 115.61 0.329018 115.47 0.46967C115.329 0.610322 115.25 0.801088 115.25 1V4.14L114.537 5.03C114.233 5.41048 113.847 5.71762 113.408 5.92868C112.968 6.13975 112.487 6.24934 112 6.24934C111.513 6.24934 111.032 6.13975 110.592 5.92868C110.153 5.71762 109.767 5.41048 109.462 5.03L108.75 4.14V1C108.75 0.801088 108.671 0.610322 108.53 0.46967C108.39 0.329018 108.199 0.25 108 0.25C107.801 0.25 107.61 0.329018 107.47 0.46967C107.329 0.610322 107.25 0.801088 107.25 1V4.16625L104.527 8.055C104.517 8.07 104.507 8.085 104.499 8.1C104.336 8.37189 104.25 8.68297 104.25 9C104.25 9.31703 104.336 9.62811 104.499 9.9L104.51 9.9175L107.145 14.055L101.402 26.2875C101.398 26.2951 101.395 26.303 101.392 26.3113C101.279 26.5773 101.232 26.8675 101.258 27.1558C101.284 27.4441 101.381 27.7215 101.54 27.9631C101.699 28.2048 101.916 28.4031 102.171 28.5405C102.426 28.6778 102.711 28.7498 103 28.75H121C121.289 28.75 121.575 28.6782 121.829 28.5409C122.084 28.4037 122.301 28.2053 122.461 27.9636C122.62 27.7219 122.717 27.4445 122.743 27.1561C122.769 26.8677 122.723 26.5774 122.609 26.3113H122.607ZM105.782 9.125C105.762 9.08919 105.751 9.04888 105.75 9.00766C105.749 8.96644 105.758 8.92559 105.776 8.88875L108.04 5.65375L108.29 5.9675C108.735 6.52362 109.299 6.97255 109.941 7.28105C110.583 7.58955 111.286 7.74973 111.999 7.74973C112.711 7.74973 113.414 7.58955 114.056 7.28105C114.698 6.97255 115.262 6.52362 115.707 5.9675L115.957 5.65375L118.221 8.88625C118.241 8.92258 118.251 8.96316 118.251 9.00438C118.251 9.04559 118.241 9.08617 118.221 9.1225L115.596 13.2475H108.411L105.782 9.125ZM121.207 27.1375C121.185 27.1726 121.154 27.2015 121.118 27.2212C121.081 27.2409 121.04 27.2508 120.999 27.25H103C102.959 27.2501 102.919 27.2403 102.883 27.2214C102.847 27.2025 102.816 27.1751 102.793 27.1416C102.77 27.1081 102.756 27.0695 102.751 27.0292C102.746 26.9888 102.752 26.9479 102.766 26.91L108.476 14.75H115.524L121.232 26.91C121.248 26.947 121.253 26.9872 121.249 27.0269C121.244 27.0667 121.23 27.1047 121.207 27.1375Z" fill="currentColor"/>
<path d="M171.297 26.015C171.29 26 171.284 25.9837 171.276 25.9688L165.709 14.11L168.125 10.32C168.132 10.3088 168.14 10.2975 168.146 10.2863C168.379 9.89771 168.502 9.45311 168.502 9C168.502 8.54689 168.379 8.10229 168.146 7.71375C168.129 7.68375 168.109 7.65375 168.089 7.625L165.5 3.93V1.5C165.5 1.10218 165.342 0.720644 165.061 0.43934C164.779 0.158035 164.398 0 164 0C163.602 0 163.221 0.158035 162.939 0.43934C162.658 0.720644 162.5 1.10218 162.5 1.5V3.875L161.952 4.55875C161.718 4.85164 161.421 5.08808 161.083 5.25057C160.745 5.41305 160.375 5.49742 160 5.49742C159.625 5.49742 159.255 5.41305 158.917 5.25057C158.579 5.08808 158.282 4.85164 158.047 4.55875L157.5 3.875V1.5C157.5 1.10218 157.342 0.720644 157.061 0.43934C156.779 0.158035 156.398 0 156 0C155.602 0 155.221 0.158035 154.939 0.43934C154.658 0.720644 154.5 1.10218 154.5 1.5V3.93L151.914 7.625C151.894 7.65375 151.874 7.68375 151.856 7.71375C151.623 8.10229 151.5 8.54689 151.5 9C151.5 9.45311 151.623 9.89771 151.856 10.2863C151.856 10.2975 151.87 10.3088 151.877 10.32L154.291 14.11L148.724 25.9688C148.716 25.9837 148.71 26 148.702 26.015C148.539 26.3952 148.473 26.81 148.51 27.222C148.547 27.6341 148.685 28.0306 148.913 28.376C149.141 28.7214 149.451 29.0049 149.815 29.2011C150.179 29.3972 150.586 29.5 151 29.5H169C169.414 29.5002 169.821 29.3976 170.186 29.2015C170.55 29.0054 170.86 28.722 171.088 28.3765C171.316 28.0311 171.454 27.6345 171.491 27.2224C171.528 26.8102 171.462 26.3953 171.299 26.015H171.297ZM160 8.5C160.726 8.50148 161.444 8.35856 162.114 8.07958C162.784 7.80059 163.391 7.39112 163.901 6.875L165.401 9.0125L163.177 12.5H156.822L154.602 9.015L156.102 6.8775C156.612 7.39271 157.219 7.80147 157.888 8.08001C158.557 8.35854 159.275 8.50131 160 8.5ZM151.789 26.5L156.952 15.5H163.047L168.211 26.5H151.789Z" fill="currentColor"/>
<path d="M200.282 10.0288C200.145 9.8033 200.055 9.55166 200.019 9.28979C199.984 9.02792 200.003 8.76152 200.076 8.5075C200.126 8.29661 200.21 8.09551 200.326 7.9125L203 4.0875V1C203 0.862912 203.027 0.727227 203.082 0.601371C203.136 0.475516 203.216 0.362178 203.316 0.268399C203.416 0.174619 203.534 0.102401 203.663 0.0562287C203.792 0.0100567 203.929 -0.00908249 204.066 -8.33534e-08C204.324 0.022118 204.563 0.141106 204.737 0.33296C204.91 0.524813 205.004 0.775251 205 1.03375V4.0525L205.656 4.875C205.942 5.23328 206.306 5.52108 206.721 5.71615C207.135 5.91122 207.589 6.00834 208.047 6C208.5 5.9872 208.944 5.87496 209.348 5.67124C209.752 5.46753 210.107 5.17733 210.386 4.82125L211 4.0525V1C211 0.862912 211.027 0.727227 211.082 0.601371C211.136 0.475516 211.216 0.362178 211.316 0.268399C211.416 0.174619 211.534 0.102401 211.663 0.0562287C211.792 0.0100567 211.929 -0.00908249 212.066 -8.33534e-08C212.324 0.022118 212.563 0.141106 212.737 0.33296C212.91 0.524813 213.004 0.775251 213 1.03375V4.0875L215.677 7.9125C215.793 8.09551 215.878 8.29661 215.927 8.5075C216 8.76152 216.02 9.02792 215.984 9.28979C215.949 9.55166 215.859 9.8033 215.721 10.0288C215.716 10.036 215.712 10.0435 215.707 10.0513L213.975 12.7688C213.929 12.8401 213.867 12.8988 213.792 12.9392C213.718 12.9797 213.635 13.0006 213.55 13H202.45C202.366 12.9999 202.283 12.9787 202.21 12.9383C202.136 12.8979 202.074 12.8396 202.029 12.7688L200.296 10.0513C200.292 10.0435 200.287 10.036 200.282 10.0288ZM218.845 26.2237C218.84 26.2091 218.833 26.1949 218.826 26.1812L213.711 15.2875C213.671 15.2014 213.607 15.1286 213.526 15.0776C213.446 15.0267 213.353 14.9998 213.257 15H202.742C202.647 14.9998 202.554 15.0267 202.474 15.0776C202.393 15.1286 202.329 15.2014 202.289 15.2875L197.174 26.1812C197.166 26.1949 197.16 26.2091 197.155 26.2237C197.046 26.4867 196.993 26.7696 197.001 27.0542C197.009 27.3387 197.077 27.6184 197.2 27.875C197.364 28.2125 197.62 28.4971 197.938 28.696C198.257 28.8949 198.625 29.0003 199 29H217C217.375 29.0001 217.743 28.8946 218.061 28.6957C218.379 28.4967 218.635 28.2123 218.799 27.875C218.922 27.6185 218.99 27.3388 218.998 27.0543C219.006 26.7698 218.954 26.4868 218.845 26.2237Z" fill="currentColor"/>
<path opacity="0.2" d="M265 28.0001H247C246.835 28 246.672 27.9589 246.526 27.8804C246.381 27.8019 246.257 27.6886 246.166 27.5504C246.075 27.4123 246.019 27.2538 246.004 27.089C245.99 26.9242 246.016 26.7584 246.081 26.6063L252 14.0001L249.143 9.51506C249.049 9.35953 249 9.1815 249 9.00006C249 8.81861 249.049 8.64059 249.143 8.48506L252 4.40381L252.875 5.50006C253.25 5.96904 253.725 6.34766 254.266 6.60787C254.807 6.86807 255.4 7.00319 256 7.00319C256.6 7.00319 257.193 6.86807 257.734 6.60787C258.275 6.34766 258.75 5.96904 259.125 5.50006L260 4.40506L262.858 8.48631C262.951 8.64184 263 8.81987 263 9.00131C263 9.18275 262.951 9.36078 262.858 9.51631L260 14.0001L265.918 26.6063C265.983 26.7583 266.009 26.924 265.994 27.0887C265.98 27.2534 265.924 27.4118 265.834 27.5499C265.743 27.688 265.619 27.8014 265.473 27.88C265.328 27.9585 265.165 27.9998 265 28.0001Z" fill="currentColor"/>
<path d="M266.838 26.2125C266.834 26.2018 266.829 26.1913 266.824 26.1812L261.139 14.0737L263.701 10.0513L263.715 10.0288C263.901 9.71798 264 9.36239 264 9C264 8.63761 263.901 8.28203 263.715 7.97125C263.704 7.95125 263.69 7.93125 263.678 7.9125L261 4.0875V1C261 0.734784 260.895 0.48043 260.707 0.292893C260.52 0.105357 260.265 0 260 0C259.735 0 259.48 0.105357 259.293 0.292893C259.105 0.48043 259 0.734784 259 1V4.0525L258.343 4.875C258.061 5.22628 257.705 5.50986 257.3 5.70473C256.894 5.8996 256.45 6.00078 256 6.00078C255.55 6.00078 255.106 5.8996 254.701 5.70473C254.295 5.50986 253.939 5.22628 253.658 4.875L253 4.0525V1C253 0.734784 252.895 0.48043 252.707 0.292893C252.52 0.105357 252.265 0 252 0C251.735 0 251.48 0.105357 251.293 0.292893C251.105 0.48043 251 0.734784 251 1V4.0875L248.323 7.9125C248.31 7.93125 248.296 7.95125 248.285 7.97125C248.099 8.28203 248 8.63761 248 9C248 9.36239 248.099 9.71798 248.285 10.0288L248.299 10.0513L250.861 14.0737L245.176 26.1812C245.171 26.1913 245.166 26.2018 245.163 26.2125C245.032 26.5166 244.979 26.8483 245.009 27.1779C245.038 27.5074 245.149 27.8245 245.331 28.1007C245.513 28.377 245.761 28.6037 246.052 28.7607C246.344 28.9176 246.669 28.9998 247 29H265C265.331 29.0001 265.657 28.918 265.948 28.7611C266.24 28.6043 266.488 28.3775 266.67 28.1013C266.852 27.825 266.963 27.5078 266.992 27.1782C267.022 26.8485 266.969 26.5167 266.839 26.2125H266.838ZM250 9L252.054 6.07125L252.095 6.12375C252.563 6.70952 253.158 7.18241 253.834 7.50738C254.51 7.83236 255.25 8.00109 256 8.00109C256.75 8.00109 257.49 7.83236 258.166 7.50738C258.842 7.18241 259.437 6.70952 259.905 6.12375L259.946 6.07125L262 9L259.453 13H252.549L250 9ZM247 27L252.634 15H259.364L265 27H247Z" fill="currentColor"/>
</g>
<defs>
<clipPath id="clip0_17_8117">
<rect width="272" height="32" rx="5" fill="white"/>
</clipPath>
</defs>
</svg>
