<svg width="272" height="32" viewBox="0 0 272 32" fill="none" xmlns="http://www.w3.org/2000/svg">
<g clip-path="url(#clip0_17_8033)">
<path d="M9.00001 11.0001V5.00011C9.00001 4.73489 9.10537 4.48054 9.2929 4.293C9.48044 4.10547 9.73479 4.00011 10 4.00011C10.2652 4.00011 10.5196 4.10547 10.7071 4.293C10.8947 4.48054 11 4.73489 11 5.00011V11.0001C11 11.2653 10.8947 11.5197 10.7071 11.7072C10.5196 11.8948 10.2652 12.0001 10 12.0001C9.73479 12.0001 9.48044 11.8948 9.2929 11.7072C9.10537 11.5197 9.00001 11.2653 9.00001 11.0001ZM27 5.00011V28.0001C27 28.2653 26.8947 28.5197 26.7071 28.7072C26.5196 28.8948 26.2652 29.0001 26 29.0001C25.7348 29.0001 25.4804 28.8948 25.2929 28.7072C25.1054 28.5197 25 28.2653 25 28.0001V22.0001H19C18.7348 22.0001 18.4804 21.8948 18.2929 21.7072C18.1054 21.5197 18 21.2653 18 21.0001C18.0464 18.6047 18.349 16.2211 18.9025 13.8901C20.125 8.82886 22.4425 5.43636 25.6063 4.08136C25.7583 4.01622 25.9242 3.98983 26.0889 4.00454C26.2537 4.01925 26.4123 4.07461 26.5504 4.16566C26.6885 4.25671 26.8019 4.3806 26.8803 4.52623C26.9588 4.67186 26.9999 4.83468 27 5.00011ZM25 6.73761C20.9788 9.80886 20.1913 17.2901 20.0375 20.0001H25V6.73761ZM14.9863 4.83636C14.9667 4.70505 14.9211 4.57896 14.8523 4.46544C14.7835 4.35191 14.6927 4.25323 14.5854 4.17515C14.478 4.09706 14.3562 4.04114 14.227 4.01064C14.0977 3.98014 13.9638 3.97567 13.8328 3.99749C13.7018 4.01932 13.5766 4.067 13.4642 4.13776C13.3519 4.20852 13.2548 4.30093 13.1785 4.40962C13.1023 4.51831 13.0485 4.64108 13.0202 4.7708C12.9919 4.90051 12.9897 5.03455 13.0138 5.16511L14 11.0789C14 12.1397 13.5786 13.1571 12.8284 13.9073C12.0783 14.6574 11.0609 15.0789 10 15.0789C8.93914 15.0789 7.92173 14.6574 7.17158 13.9073C6.42144 13.1571 6.00001 12.1397 6.00001 11.0789L6.98501 5.16511C7.00907 5.03455 7.00689 4.90051 6.9786 4.7708C6.95031 4.64108 6.89648 4.51831 6.82024 4.40962C6.744 4.30093 6.64688 4.20852 6.53455 4.13776C6.42222 4.067 6.29692 4.01932 6.16597 3.99749C6.03501 3.97567 5.90103 3.98014 5.77182 4.01064C5.64261 4.04114 5.52077 4.09706 5.4134 4.17515C5.30603 4.25323 5.21529 4.35191 5.14646 4.46544C5.07763 4.57896 5.03209 4.70505 5.01251 4.83636L4.01251 10.8364C4.00395 10.8905 3.99977 10.9453 4.00001 11.0001C4.00201 12.4174 4.50491 13.7883 5.41984 14.8707C6.33478 15.9531 7.60286 16.6772 9.00001 16.9151V28.0001C9.00001 28.2653 9.10537 28.5197 9.2929 28.7072C9.48044 28.8948 9.73479 29.0001 10 29.0001C10.2652 29.0001 10.5196 28.8948 10.7071 28.7072C10.8947 28.5197 11 28.2653 11 28.0001V16.9151C12.3972 16.6772 13.6652 15.9531 14.5802 14.8707C15.4951 13.7883 15.998 12.4174 16 11.0001C15.9998 10.9452 15.9952 10.8905 15.9863 10.8364L14.9863 4.83636Z" fill="currentColor"/>
<path d="M57.5 10.9999V4.99993C57.5 4.86732 57.5527 4.74014 57.6464 4.64637C57.7402 4.55261 57.8674 4.49993 58 4.49993C58.1326 4.49993 58.2598 4.55261 58.3536 4.64637C58.4473 4.74014 58.5 4.86732 58.5 4.99993V10.9999C58.5 11.1325 58.4473 11.2597 58.3536 11.3535C58.2598 11.4472 58.1326 11.4999 58 11.4999C57.8674 11.4999 57.7402 11.4472 57.6464 11.3535C57.5527 11.2597 57.5 11.1325 57.5 10.9999ZM74.5 4.99993V27.9999C74.5 28.1325 74.4473 28.2597 74.3536 28.3535C74.2598 28.4473 74.1326 28.4999 74 28.4999C73.8674 28.4999 73.7402 28.4473 73.6464 28.3535C73.5527 28.2597 73.5 28.1325 73.5 27.9999V21.4999H67C66.8674 21.4999 66.7402 21.4473 66.6464 21.3535C66.5527 21.2597 66.5 21.1325 66.5 20.9999C66.546 18.6441 66.844 16.2999 67.3888 14.0074C68.5725 9.10493 70.79 5.83118 73.8025 4.53993C73.8786 4.5072 73.9617 4.4939 74.0442 4.50122C74.1267 4.50854 74.2061 4.53626 74.2753 4.58187C74.3444 4.62748 74.4012 4.68956 74.4404 4.76253C74.4796 4.8355 74.5001 4.91708 74.5 4.99993ZM73.5 5.80743C68.2812 8.79118 67.6013 18.2187 67.5125 20.4999H73.5V5.80743ZM62.5 4.91743C62.4781 4.78648 62.4051 4.66958 62.297 4.59246C62.189 4.51533 62.0547 4.4843 61.9237 4.50618C61.7928 4.52806 61.6759 4.60106 61.5988 4.70913C61.5217 4.8172 61.4906 4.95148 61.5125 5.08243L62.5125 11.0399C62.5125 12.2334 62.0384 13.378 61.1945 14.2219C60.3506 15.0658 59.206 15.5399 58.0125 15.5399C56.819 15.5399 55.6744 15.0658 54.8305 14.2219C53.9866 13.378 53.5125 12.2334 53.5125 11.0399L54.5125 5.08243C54.5233 5.01759 54.5213 4.95125 54.5065 4.8872C54.4917 4.82315 54.4644 4.76264 54.4262 4.70913C54.388 4.65562 54.3397 4.61016 54.2839 4.57533C54.2282 4.54051 54.1661 4.51701 54.1013 4.50618C54.0364 4.49534 53.9701 4.49739 53.906 4.51219C53.842 4.52699 53.7815 4.55427 53.728 4.59246C53.6744 4.63065 53.629 4.679 53.5942 4.73476C53.5593 4.79052 53.5358 4.85259 53.525 4.91743L52.525 10.9174C52.5147 10.9443 52.5064 10.9719 52.5 10.9999C52.5019 12.3714 53.0155 13.6928 53.9403 14.7056C54.865 15.7184 56.1344 16.3498 57.5 16.4762V27.9999C57.5 28.1325 57.5527 28.2597 57.6464 28.3535C57.7402 28.4473 57.8674 28.4999 58 28.4999C58.1326 28.4999 58.2598 28.4473 58.3536 28.3535C58.4473 28.2597 58.5 28.1325 58.5 27.9999V16.4762C59.8656 16.3498 61.135 15.7184 62.0597 14.7056C62.9845 13.6928 63.4981 12.3714 63.5 10.9999C63.5019 10.9725 63.5019 10.9449 63.5 10.9174L62.5 4.91743Z" fill="currentColor"/>
<path d="M105.25 11V5C105.25 4.80109 105.329 4.61032 105.47 4.46967C105.61 4.32902 105.801 4.25 106 4.25C106.199 4.25 106.39 4.32902 106.53 4.46967C106.671 4.61032 106.75 4.80109 106.75 5V11C106.75 11.1989 106.671 11.3897 106.53 11.5303C106.39 11.671 106.199 11.75 106 11.75C105.801 11.75 105.61 11.671 105.47 11.5303C105.329 11.3897 105.25 11.1989 105.25 11ZM122.75 5V28C122.75 28.1989 122.671 28.3897 122.53 28.5303C122.39 28.671 122.199 28.75 122 28.75C121.801 28.75 121.61 28.671 121.47 28.5303C121.329 28.3897 121.25 28.1989 121.25 28V21.75H115C114.801 21.75 114.61 21.671 114.47 21.5303C114.329 21.3897 114.25 21.1989 114.25 21C114.25 20.4487 114.335 7.46875 121.705 4.31125C121.819 4.26247 121.943 4.24273 122.067 4.25378C122.19 4.26483 122.309 4.30633 122.413 4.37458C122.516 4.44282 122.601 4.53567 122.66 4.64481C122.719 4.75396 122.75 4.87599 122.75 5ZM121.25 6.25C116.651 9.28625 115.898 17.685 115.774 20.25H121.25V6.25ZM110.74 4.875C110.724 4.77782 110.688 4.68483 110.636 4.60133C110.583 4.51783 110.515 4.44546 110.435 4.38835C110.355 4.33124 110.264 4.29051 110.168 4.26849C110.072 4.24647 109.972 4.24358 109.875 4.26C109.778 4.27641 109.685 4.31181 109.601 4.36416C109.518 4.41652 109.445 4.4848 109.388 4.56513C109.331 4.64545 109.291 4.73623 109.268 4.8323C109.246 4.92836 109.244 5.02782 109.26 5.125L110.25 11.06C110.25 12.1872 109.802 13.2682 109.005 14.0652C108.208 14.8622 107.127 15.31 106 15.31C104.873 15.31 103.792 14.8622 102.995 14.0652C102.198 13.2682 101.75 12.1872 101.75 11.06L102.74 5.125C102.773 4.92874 102.727 4.72735 102.612 4.56513C102.496 4.40291 102.321 4.29315 102.125 4.26C101.929 4.22685 101.727 4.27302 101.565 4.38835C101.403 4.50369 101.293 4.67874 101.26 4.875L100.26 10.875C100.254 10.9164 100.25 10.9581 100.25 11C100.252 12.3945 100.76 13.7409 101.679 14.7893C102.599 15.8376 103.868 16.5165 105.25 16.7V28C105.25 28.1989 105.329 28.3897 105.47 28.5303C105.61 28.671 105.801 28.75 106 28.75C106.199 28.75 106.39 28.671 106.53 28.5303C106.671 28.3897 106.75 28.1989 106.75 28V16.7C108.132 16.5165 109.401 15.8376 110.321 14.7893C111.24 13.7409 111.748 12.3945 111.75 11C111.75 10.9581 111.746 10.9164 111.74 10.875L110.74 4.875Z" fill="currentColor"/>
<path d="M152.5 11.0001V5.00008C152.5 4.60225 152.658 4.22072 152.939 3.93942C153.221 3.65811 153.602 3.50008 154 3.50008C154.398 3.50008 154.779 3.65811 155.061 3.93942C155.342 4.22072 155.5 4.60225 155.5 5.00008V11.0001C155.5 11.3979 155.342 11.7794 155.061 12.0607C154.779 12.342 154.398 12.5001 154 12.5001C153.602 12.5001 153.221 12.342 152.939 12.0607C152.658 11.7794 152.5 11.3979 152.5 11.0001ZM171.5 5.00008V28.0001C171.5 28.3979 171.342 28.7794 171.061 29.0607C170.779 29.342 170.398 29.5001 170 29.5001C169.602 29.5001 169.221 29.342 168.939 29.0607C168.658 28.7794 168.5 28.3979 168.5 28.0001V22.5001H163C162.602 22.5001 162.221 22.342 161.939 22.0607C161.658 21.7794 161.5 21.3979 161.5 21.0001C161.547 18.5651 161.854 16.1422 162.416 13.7726C163.677 8.55258 166.095 5.04133 169.409 3.62508C169.637 3.52734 169.885 3.48762 170.132 3.50947C170.379 3.53132 170.617 3.61406 170.824 3.75028C171.031 3.88651 171.201 4.07197 171.319 4.29007C171.437 4.50818 171.499 4.75212 171.5 5.00008ZM168.5 7.86508C166.825 9.62508 165.875 12.2501 165.346 14.4226C164.951 16.0913 164.691 17.7894 164.569 19.5001H168.5V7.86508ZM160 4.87508C159.967 4.47725 159.777 4.10889 159.472 3.85103C159.168 3.59317 158.773 3.46692 158.375 3.50008C157.977 3.53323 157.609 3.72306 157.351 4.0278C157.093 4.33255 156.967 4.72725 157 5.12508L157.5 11.0576C157.5 11.9858 157.131 12.8761 156.475 13.5324C155.818 14.1888 154.928 14.5576 154 14.5576C153.072 14.5576 152.182 14.1888 151.525 13.5324C150.869 12.8761 150.5 11.9858 150.5 11.0576L151 5.12508C151.016 4.92809 150.994 4.72981 150.934 4.54154C150.873 4.35327 150.777 4.1787 150.649 4.0278C150.521 3.87691 150.365 3.75264 150.19 3.66209C150.014 3.57154 149.822 3.51649 149.625 3.50008C149.428 3.48366 149.23 3.50621 149.041 3.56642C148.853 3.62664 148.679 3.72335 148.528 3.85103C148.377 3.97871 148.253 4.13486 148.162 4.31057C148.071 4.48627 148.016 4.67809 148 4.87508L147.5 10.8751C147.5 10.9176 147.5 10.9588 147.5 11.0001C147.502 12.4625 147.997 13.8815 148.904 15.0286C149.811 16.1757 151.078 16.9842 152.5 17.3238V28.0001C152.5 28.3979 152.658 28.7794 152.939 29.0607C153.221 29.342 153.602 29.5001 154 29.5001C154.398 29.5001 154.779 29.342 155.061 29.0607C155.342 28.7794 155.5 28.3979 155.5 28.0001V17.3238C156.922 16.9842 158.189 16.1757 159.096 15.0286C160.003 13.8815 160.498 12.4625 160.5 11.0001C160.5 10.9588 160.5 10.9176 160.5 10.8751L160 4.87508Z" fill="currentColor"/>
<path d="M219 5.00011V28.0001C219 28.2653 218.895 28.5197 218.707 28.7072C218.52 28.8948 218.265 29.0001 218 29.0001C217.735 29.0001 217.48 28.8948 217.293 28.7072C217.105 28.5197 217 28.2653 217 28.0001V22.0001H211C210.735 22.0001 210.48 21.8948 210.293 21.7072C210.105 21.5197 210 21.2653 210 21.0001C210.046 18.6047 210.349 16.2211 210.903 13.8901C212.125 8.82886 214.443 5.43636 217.606 4.08136C217.758 4.01622 217.924 3.98983 218.089 4.00454C218.254 4.01925 218.412 4.07461 218.55 4.16566C218.688 4.25671 218.802 4.3806 218.88 4.52623C218.959 4.67186 219 4.83468 219 5.00011ZM206.986 4.83636C206.967 4.70505 206.921 4.57896 206.852 4.46544C206.783 4.35191 206.693 4.25323 206.585 4.17515C206.478 4.09706 206.356 4.04114 206.227 4.01064C206.098 3.98014 205.964 3.97567 205.833 3.99749C205.702 4.01932 205.577 4.067 205.464 4.13776C205.352 4.20852 205.255 4.30093 205.179 4.40962C205.102 4.51831 205.048 4.64108 205.02 4.7708C204.992 4.90051 204.99 5.03455 205.014 5.16511L205.986 11.0001H203V5.00011C203 4.73489 202.895 4.48054 202.707 4.293C202.52 4.10547 202.265 4.00011 202 4.00011C201.735 4.00011 201.48 4.10547 201.293 4.293C201.105 4.48054 201 4.73489 201 5.00011V11.0001H198.014L198.986 5.16511C199.01 5.03455 199.008 4.90051 198.98 4.7708C198.952 4.64108 198.898 4.51831 198.821 4.40962C198.745 4.30093 198.648 4.20852 198.536 4.13776C198.423 4.067 198.298 4.01932 198.167 3.99749C198.036 3.97567 197.902 3.98014 197.773 4.01064C197.644 4.04114 197.522 4.09706 197.415 4.17515C197.307 4.25323 197.217 4.35191 197.148 4.46544C197.079 4.57896 197.033 4.70505 197.014 4.83636L196.014 10.8364C196.005 10.8905 196 10.9452 196 11.0001C196.002 12.4174 196.505 13.7883 197.42 14.8707C198.335 15.9531 199.603 16.6772 201 16.9151V28.0001C201 28.2653 201.105 28.5197 201.293 28.7072C201.48 28.8948 201.735 29.0001 202 29.0001C202.265 29.0001 202.52 28.8948 202.707 28.7072C202.895 28.5197 203 28.2653 203 28.0001V16.9151C204.397 16.6772 205.665 15.9531 206.58 14.8707C207.495 13.7883 207.998 12.4174 208 11.0001C208 10.9452 207.995 10.8905 207.986 10.8364L206.986 4.83636Z" fill="currentColor"/>
<path opacity="0.2" d="M266 5V21H259C259 21 259 8 266 5Z" fill="currentColor"/>
<path d="M249 11.0001V5.00011C249 4.73489 249.105 4.48054 249.293 4.293C249.48 4.10547 249.735 4.00011 250 4.00011C250.265 4.00011 250.52 4.10547 250.707 4.293C250.895 4.48054 251 4.73489 251 5.00011V11.0001C251 11.2653 250.895 11.5197 250.707 11.7072C250.52 11.8948 250.265 12.0001 250 12.0001C249.735 12.0001 249.48 11.8948 249.293 11.7072C249.105 11.5197 249 11.2653 249 11.0001ZM267 5.00011V28.0001C267 28.2653 266.895 28.5197 266.707 28.7072C266.52 28.8948 266.265 29.0001 266 29.0001C265.735 29.0001 265.48 28.8948 265.293 28.7072C265.105 28.5197 265 28.2653 265 28.0001V22.0001H259C258.735 22.0001 258.48 21.8948 258.293 21.7072C258.105 21.5197 258 21.2653 258 21.0001C258.046 18.6047 258.349 16.2211 258.903 13.8901C260.125 8.82886 262.443 5.43636 265.606 4.08136C265.758 4.01622 265.924 3.98983 266.089 4.00454C266.254 4.01925 266.412 4.07461 266.55 4.16566C266.689 4.25671 266.802 4.3806 266.88 4.52623C266.959 4.67186 267 4.83468 267 5.00011ZM265 6.73761C260.979 9.80886 260.191 17.2901 260.038 20.0001H265V6.73761ZM254.986 4.83636C254.967 4.70505 254.921 4.57896 254.852 4.46544C254.783 4.35191 254.693 4.25323 254.585 4.17515C254.478 4.09706 254.356 4.04114 254.227 4.01064C254.098 3.98014 253.964 3.97567 253.833 3.99749C253.702 4.01932 253.577 4.067 253.464 4.13776C253.352 4.20852 253.255 4.30093 253.179 4.40962C253.102 4.51831 253.048 4.64108 253.02 4.7708C252.992 4.90051 252.99 5.03455 253.014 5.16511L254 11.0789C254 12.1397 253.579 13.1571 252.828 13.9073C252.078 14.6574 251.061 15.0789 250 15.0789C248.939 15.0789 247.922 14.6574 247.172 13.9073C246.421 13.1571 246 12.1397 246 11.0789L246.985 5.16511C247.009 5.03455 247.007 4.90051 246.979 4.7708C246.95 4.64108 246.896 4.51831 246.82 4.40962C246.744 4.30093 246.647 4.20852 246.535 4.13776C246.422 4.067 246.297 4.01932 246.166 3.99749C246.035 3.97567 245.901 3.98014 245.772 4.01064C245.643 4.04114 245.521 4.09706 245.413 4.17515C245.306 4.25323 245.215 4.35191 245.146 4.46544C245.078 4.57896 245.032 4.70505 245.013 4.83636L244.013 10.8364C244.004 10.8905 244 10.9453 244 11.0001C244.002 12.4174 244.505 13.7883 245.42 14.8707C246.335 15.9531 247.603 16.6772 249 16.9151V28.0001C249 28.2653 249.105 28.5197 249.293 28.7072C249.48 28.8948 249.735 29.0001 250 29.0001C250.265 29.0001 250.52 28.8948 250.707 28.7072C250.895 28.5197 251 28.2653 251 28.0001V16.9151C252.397 16.6772 253.665 15.9531 254.58 14.8707C255.495 13.7883 255.998 12.4174 256 11.0001C256 10.9452 255.995 10.8905 255.986 10.8364L254.986 4.83636Z" fill="currentColor"/>
</g>
<defs>
<clipPath id="clip0_17_8033">
<rect width="272" height="32" rx="5" fill="white"/>
</clipPath>
</defs>
</svg>
