<svg width="272" height="32" viewBox="0 0 272 32" fill="none" xmlns="http://www.w3.org/2000/svg">
<g clip-path="url(#clip0_17_7977)">
<path d="M26 7.00011C24.6378 7.0001 23.2876 7.25446 22.0187 7.75011C20.2287 4.03761 16.6125 2.19261 16.4475 2.11011C16.3086 2.04059 16.1554 2.00439 16 2.00439C15.8446 2.00439 15.6914 2.04059 15.5525 2.11011C15.3862 2.19261 11.7712 4.03761 9.98125 7.75011C8.71243 7.25446 7.3622 7.0001 6 7.00011C5.73478 7.00011 5.48043 7.10547 5.29289 7.293C5.10536 7.48054 5 7.73489 5 8.00011V18.0001C5 20.9175 6.15893 23.7154 8.22183 25.7783C10.2847 27.8412 13.0826 29.0001 16 29.0001C18.9174 29.0001 21.7153 27.8412 23.7782 25.7783C25.8411 23.7154 27 20.9175 27 18.0001V8.00011C27 7.73489 26.8946 7.48054 26.7071 7.293C26.5196 7.10547 26.2652 7.00011 26 7.00011ZM15 26.9451C12.8009 26.6965 10.7701 25.6474 9.29473 23.9977C7.81937 22.3481 7.00257 20.2133 7 18.0001V16.0551C9.19914 16.3037 11.2299 17.3529 12.7053 19.0025C14.1806 20.6521 14.9974 22.787 15 25.0001V26.9451ZM15 18.6826C14.0829 17.3755 12.8923 16.2837 11.5108 15.4831C10.1293 14.6825 8.59005 14.1922 7 14.0464V9.05511C9.19914 9.30374 11.2299 10.3529 12.7053 12.0025C14.1806 13.6521 14.9974 15.787 15 18.0001V18.6826ZM11.7688 8.63886C12.9213 6.23761 15.07 4.72261 16 4.15136C16.93 4.72386 19.0787 6.23886 20.23 8.63886C18.3813 9.78294 16.9102 11.4458 16 13.4201C15.0897 11.4454 13.6181 9.78252 11.7688 8.63886ZM25 18.0001C24.9974 20.2133 24.1806 22.3481 22.7053 23.9977C21.2299 25.6474 19.1991 26.6965 17 26.9451V25.0001C17.0026 22.787 17.8194 20.6521 19.2947 19.0025C20.7701 17.3529 22.8009 16.3037 25 16.0551V18.0001ZM25 14.0464C23.4099 14.1922 21.8707 14.6825 20.4892 15.4831C19.1077 16.2837 17.9171 17.3755 17 18.6826V18.0001C17.0026 15.787 17.8194 13.6521 19.2947 12.0025C20.7701 10.3529 22.8009 9.30374 25 9.05511V14.0464Z" fill="currentColor"/>
<path d="M74 7.50011C72.5413 7.49924 71.0986 7.80413 69.765 8.39511C68.14 4.54761 64.39 2.63511 64.2237 2.55261C64.1543 2.51785 64.0777 2.49976 64 2.49976C63.9223 2.49976 63.8457 2.51785 63.7762 2.55261C63.6112 2.63511 59.8637 4.55261 58.235 8.39511C56.9014 7.80413 55.4587 7.49924 54 7.50011C53.8674 7.50011 53.7402 7.55279 53.6464 7.64656C53.5527 7.74033 53.5 7.86751 53.5 8.00011V18.0001C53.5 20.7849 54.6062 23.4556 56.5754 25.4247C58.5445 27.3939 61.2152 28.5001 64 28.5001C66.7848 28.5001 69.4555 27.3939 71.4246 25.4247C73.3938 23.4556 74.5 20.7849 74.5 18.0001V8.00011C74.5 7.86751 74.4473 7.74033 74.3536 7.64656C74.2598 7.55279 74.1326 7.50011 74 7.50011ZM63.5 27.4876C61.0714 27.3563 58.7854 26.2998 57.1115 24.5353C55.4377 22.7708 54.5032 20.4322 54.5 18.0001V15.5126C56.9286 15.6439 59.2146 16.7004 60.8885 18.4649C62.5623 20.2294 63.4968 22.568 63.5 25.0001V27.4876ZM63.5 20.5339C62.6871 18.8083 61.4201 17.3363 59.8347 16.2757C58.2493 15.215 56.4052 14.6055 54.5 14.5126V8.51261C56.9286 8.64395 59.2146 9.7004 60.8885 11.4649C62.5623 13.2294 63.4968 15.568 63.5 18.0001V20.5339ZM59.1313 8.84386C60.39 5.81636 63.1888 4.03511 64.0063 3.57011C64.8175 4.03511 67.6163 5.82011 68.875 8.84386C66.5579 10.1451 64.817 12.2726 64 14.8014C63.1845 12.2736 61.446 10.1463 59.1313 8.84386ZM73.5 18.0001C73.4968 20.4322 72.5623 22.7708 70.8885 24.5353C69.2146 26.2998 66.9286 27.3563 64.5 27.4876V25.0001C64.5032 22.568 65.4377 20.2294 67.1115 18.4649C68.7854 16.7004 71.0714 15.6439 73.5 15.5126V18.0001ZM73.5 14.5126C71.5948 14.6055 69.7507 15.215 68.1653 16.2757C66.5799 17.3363 65.3129 18.8083 64.5 20.5339V18.0001C64.5032 15.568 65.4377 13.2294 67.1115 11.4649C68.7854 9.7004 71.0714 8.64395 73.5 8.51261V14.5126Z" fill="currentColor"/>
<path d="M122 7.24998C120.591 7.24879 119.196 7.5262 117.895 8.06623C116.181 4.28873 112.5 2.41248 112.335 2.32873C112.231 2.27679 112.116 2.24976 112 2.24976C111.884 2.24976 111.769 2.27679 111.665 2.32873C111.499 2.41248 107.819 4.28873 106.105 8.06623C104.804 7.52629 103.409 7.24889 102 7.24998C101.801 7.24998 101.61 7.329 101.47 7.46965C101.329 7.6103 101.25 7.80107 101.25 7.99998V18C101.25 20.8511 102.383 23.5854 104.399 25.6014C106.415 27.6174 109.149 28.75 112 28.75C114.851 28.75 117.585 27.6174 119.601 25.6014C121.617 23.5854 122.75 20.8511 122.75 18V7.99998C122.75 7.80107 122.671 7.6103 122.53 7.46965C122.39 7.329 122.199 7.24998 122 7.24998ZM111.25 27.22C108.935 27.0288 106.777 25.9749 105.202 24.2672C103.628 22.5595 102.753 20.3226 102.75 18V15.78C105.065 15.9712 107.223 17.0251 108.798 18.7328C110.372 20.4405 111.247 22.6773 111.25 25V27.22ZM111.25 19.5312C110.363 18.0342 109.126 16.7745 107.646 15.8602C106.166 14.9458 104.486 14.404 102.75 14.2812V8.78123C105.064 8.9727 107.223 10.0265 108.797 11.7339C110.371 13.4412 111.247 15.6776 111.25 18V19.5312ZM107.448 8.73873C108.655 6.03873 111.106 4.39123 112 3.86373C112.895 4.39498 115.345 6.04248 116.551 8.73873C114.486 9.95919 112.884 11.8321 112 14.0625C111.116 11.8317 109.514 9.95876 107.448 8.73873ZM121.25 18C121.247 20.3226 120.372 22.5595 118.798 24.2672C117.223 25.9749 115.065 27.0288 112.75 27.22V25C112.753 22.6773 113.628 20.4405 115.202 18.7328C116.777 17.0251 118.935 15.9712 121.25 15.78V18ZM121.25 14.2787C119.514 14.4015 117.834 14.9433 116.354 15.8577C114.874 16.772 113.637 18.0317 112.75 19.5287V18C112.753 15.6774 113.628 13.4407 115.203 11.7331C116.777 10.0254 118.935 8.97146 121.25 8.77998V14.2787Z" fill="currentColor"/>
<path d="M170 6.50004C168.728 6.49953 167.465 6.71075 166.263 7.12504C164.339 3.53004 160.837 1.74254 160.671 1.66004C160.463 1.55576 160.233 1.50146 160 1.50146C159.767 1.50146 159.537 1.55576 159.329 1.66004C159.162 1.74254 155.661 3.53504 153.736 7.12504C152.534 6.71063 151.271 6.49941 150 6.50004C149.602 6.50004 149.221 6.65807 148.939 6.93938C148.658 7.22068 148.5 7.60221 148.5 8.00004V18C148.5 21.05 149.712 23.9751 151.868 26.1318C154.025 28.2884 156.95 29.5 160 29.5C163.05 29.5 165.975 28.2884 168.132 26.1318C170.288 23.9751 171.5 21.05 171.5 18V8.00004C171.5 7.60221 171.342 7.22068 171.061 6.93938C170.779 6.65807 170.398 6.50004 170 6.50004ZM151.5 9.63254C153.331 9.9638 155.002 10.8852 156.26 12.256C157.518 13.6267 158.292 15.3715 158.465 17.2238C156.641 15.2348 154.175 13.9514 151.5 13.5988V9.63254ZM158.5 26.3675C156.538 26.0128 154.763 24.9811 153.484 23.452C152.205 21.923 151.503 19.9936 151.5 18V16.6325C153.462 16.9872 155.237 18.019 156.516 19.548C157.795 21.0771 158.497 23.0065 158.5 25V26.3675ZM156.421 8.46379C157.446 6.59629 159.086 5.33879 160 4.74254C160.915 5.34129 162.554 6.59629 163.579 8.46379C162.105 9.45956 160.881 10.7812 160 12.3263C159.119 10.7815 157.894 9.45994 156.421 8.46379ZM168.5 18C168.497 19.9936 167.795 21.923 166.516 23.452C165.237 24.9811 163.462 26.0128 161.5 26.3675V25C161.503 23.0065 162.205 21.0771 163.484 19.548C164.763 18.019 166.538 16.9872 168.5 16.6325V18ZM168.5 13.5975C165.825 13.9502 163.359 15.2336 161.535 17.2225C161.708 15.3705 162.483 13.626 163.74 12.2555C164.998 10.8849 166.67 9.96374 168.5 9.63254V13.5975Z" fill="currentColor"/>
<path d="M218 6.9999C216.638 7.00001 215.288 7.25436 214.02 7.7499C212.23 4.0374 208.614 2.1924 208.449 2.10865C208.31 2.03913 208.157 2.00293 208.001 2.00293C207.846 2.00293 207.693 2.03913 207.554 2.10865C207.387 2.18865 203.771 4.03365 201.981 7.7499C200.712 7.25421 199.362 6.99985 198 6.9999C197.735 6.9999 197.48 7.10525 197.293 7.29279C197.105 7.48033 197 7.73468 197 7.9999V17.9999C197.003 20.6452 197.958 23.2009 199.691 25.2C201.423 27.1991 203.817 28.508 206.435 28.8874C206.506 28.8967 206.578 28.8907 206.646 28.8697C206.715 28.8488 206.778 28.8135 206.831 28.7661C206.885 28.7187 206.928 28.6604 206.957 28.595C206.986 28.5297 207.001 28.4589 207 28.3874V22.0336C206.997 21.7757 207.091 21.526 207.264 21.3347C207.438 21.1435 207.677 21.0248 207.934 21.0024C208.071 20.9933 208.208 21.0125 208.337 21.0586C208.466 21.1048 208.584 21.177 208.684 21.2708C208.784 21.3646 208.864 21.4779 208.918 21.6038C208.972 21.7296 209 21.8653 209 22.0024V28.3949C208.999 28.4664 209.014 28.5372 209.043 28.6025C209.072 28.6679 209.115 28.7262 209.169 28.7736C209.222 28.821 209.285 28.8563 209.354 28.8772C209.422 28.8982 209.494 28.9042 209.565 28.8949C212.184 28.5153 214.579 27.2053 216.312 25.2047C218.044 23.204 218.999 20.6465 219 17.9999V7.9999C219 7.73468 218.895 7.48033 218.707 7.29279C218.52 7.10525 218.265 6.9999 218 6.9999ZM207 18.6824C206.083 17.3753 204.892 16.2835 203.511 15.4829C202.129 14.6823 200.59 14.192 199 14.0461V9.0549C201.199 9.30353 203.23 10.3526 204.705 12.0023C206.181 13.6519 206.997 15.7868 207 17.9999V18.6824ZM208 13.4199C207.09 11.4455 205.619 9.78272 203.77 8.63865C204.921 6.2374 207.07 4.7224 208 4.15115C208.931 4.72365 211.079 6.23865 212.23 8.63865C210.381 9.78272 208.91 11.4455 208 13.4199ZM217 14.0449C215.41 14.1907 213.871 14.681 212.489 15.4816C211.108 16.2823 209.917 17.374 209 18.6811V17.9999C209.003 15.7868 209.819 13.6519 211.295 12.0023C212.77 10.3526 214.801 9.30353 217 9.0549V14.0449Z" fill="currentColor"/>
<path opacity="0.2" d="M266 8V15C263.348 15 260.804 16.0536 258.929 17.9289C257.054 19.8043 256 22.3478 256 25C256 22.3478 254.946 19.8043 253.071 17.9289C251.196 16.0536 248.652 15 246 15V8C247.566 7.99873 249.109 8.3666 250.506 9.07375C251.953 5.02375 256 3 256 3C256 3 260.049 5.02375 261.5 9.0725C262.895 8.36643 264.437 7.999 266 8Z" fill="currentColor"/>
<path d="M266 6.9999C264.638 6.99988 263.288 7.25424 262.019 7.7499C260.229 4.0374 256.613 2.1924 256.448 2.10865C256.309 2.03913 256.155 2.00293 256 2.00293C255.845 2.00293 255.691 2.03913 255.552 2.10865C255.386 2.1924 251.771 4.0374 249.981 7.7499C248.712 7.25424 247.362 6.99988 246 6.9999C245.735 6.9999 245.48 7.10525 245.293 7.29279C245.105 7.48033 245 7.73468 245 7.9999V17.9999C245 20.9173 246.159 23.7152 248.222 25.7781C250.285 27.841 253.083 28.9999 256 28.9999C258.917 28.9999 261.715 27.841 263.778 25.7781C265.841 23.7152 267 20.9173 267 17.9999V7.9999C267 7.73468 266.895 7.48033 266.707 7.29279C266.52 7.10525 266.265 6.9999 266 6.9999ZM255 26.9449C252.801 26.6963 250.77 25.6472 249.295 23.9975C247.819 22.3479 247.003 20.213 247 17.9999V16.0549C249.199 16.3035 251.23 17.3526 252.705 19.0023C254.181 20.6519 254.997 22.7868 255 24.9999V26.9449ZM255 18.6824C254.083 17.3753 252.892 16.2835 251.511 15.4829C250.129 14.6823 248.59 14.192 247 14.0461V9.0549C249.199 9.30353 251.23 10.3526 252.705 12.0023C254.181 13.6519 254.997 15.7868 255 17.9999V18.6824ZM251.769 8.63865C252.921 6.23615 255.073 4.7199 256 4.1499C256.93 4.7174 259.075 6.2249 260.23 8.63865C258.381 9.78215 256.91 11.4451 256 13.4199C255.09 11.445 253.618 9.78196 251.769 8.63865ZM265 17.9999C264.997 20.213 264.181 22.3479 262.705 23.9975C261.23 25.6472 259.199 26.6963 257 26.9449V24.9999C257.003 22.7868 257.819 20.6519 259.295 19.0023C260.77 17.3526 262.801 16.3035 265 16.0549V17.9999ZM265 14.0461C263.41 14.192 261.871 14.6823 260.489 15.4829C259.108 16.2835 257.917 17.3753 257 18.6824V17.9999C257.003 15.7868 257.819 13.6519 259.295 12.0023C260.77 10.3526 262.801 9.30353 265 9.0549V14.0461Z" fill="currentColor"/>
</g>
<defs>
<clipPath id="clip0_17_7977">
<rect width="272" height="32" rx="5" fill="white"/>
</clipPath>
</defs>
</svg>
