<svg width="272" height="32" viewBox="0 0 272 32" fill="none" xmlns="http://www.w3.org/2000/svg">
<g clip-path="url(#clip0_17_7865)">
<path d="M29.8326 15.445L22.7951 4.89C22.6124 4.6162 22.365 4.39172 22.0748 4.23647C21.7845 4.08122 21.4605 3.99999 21.1313 4H10.8751C10.5459 3.99999 10.2219 4.08122 9.93166 4.23647C9.64144 4.39172 9.39401 4.6162 9.21134 4.89L2.17384 15.445C2.09464 15.5639 2.04184 15.6984 2.01899 15.8394C1.99613 15.9804 2.00375 16.1247 2.04134 16.2625L4.84009 26.5263C4.9562 26.9481 5.20701 27.3203 5.55431 27.5864C5.90161 27.8525 6.32635 27.9977 6.76384 28H10.0001C10.5305 28 11.0392 27.7893 11.4143 27.4142C11.7894 27.0391 12.0001 26.5304 12.0001 26V24H20.0001V26C20.0001 26.5304 20.2108 27.0391 20.5859 27.4142C20.9609 27.7893 21.4697 28 22.0001 28H25.2363C25.6749 27.9991 26.1011 27.8544 26.4496 27.5883C26.7982 27.3221 27.0499 26.9491 27.1663 26.5263L29.9651 16.2625C30.0027 16.1247 30.0103 15.9804 29.9874 15.8394C29.9646 15.6984 29.9118 15.5639 29.8326 15.445ZM10.0001 22V8.72375L13.0001 10.4375V17C13.0001 17.2652 13.1054 17.5196 13.293 17.7071C13.4805 17.8946 13.7349 18 14.0001 18C14.2653 18 14.5197 17.8946 14.7072 17.7071C14.8947 17.5196 15.0001 17.2652 15.0001 17V11.58L15.5001 11.875C15.6521 11.9628 15.8246 12.009 16.0001 12.009C16.1756 12.009 16.3481 11.9628 16.5001 11.875L17.0001 11.5863V16C17.0001 16.2652 17.1054 16.5196 17.293 16.7071C17.4805 16.8946 17.7349 17 18.0001 17C18.2653 17 18.5197 16.8946 18.7072 16.7071C18.8947 16.5196 19.0001 16.2652 19.0001 16V10.4375L22.0001 8.72375V22H10.0001ZM21.1313 6L21.5738 6.66375L16.0001 9.84875L10.4263 6.66375L10.8751 6H21.1313ZM10.0001 26H6.76384L4.08509 16.1763L8.00009 10.3025V22C8.00009 22.5304 8.2108 23.0391 8.58588 23.4142C8.96095 23.7893 9.46966 24 10.0001 24V26ZM25.2363 26H22.0001V24C22.5305 24 23.0392 23.7893 23.4143 23.4142C23.7894 23.0391 24.0001 22.5304 24.0001 22V10.3025L27.9151 16.1775L25.2363 26Z" fill="currentColor"/>
<path d="M77.4164 15.7225L70.3751 5.1675C70.2379 4.96185 70.052 4.79329 69.8339 4.67684C69.6158 4.56038 69.3723 4.49964 69.1251 4.5H58.8751C58.6279 4.49964 58.3844 4.56038 58.1663 4.67684C57.9482 4.79329 57.7623 4.96185 57.6251 5.1675L50.5839 15.7225C50.5443 15.7819 50.5179 15.8492 50.5064 15.9197C50.495 15.9902 50.4988 16.0623 50.5176 16.1313L53.3164 26.395C53.403 26.7125 53.5917 26.9926 53.8532 27.1923C54.1148 27.392 54.4348 27.5001 54.7639 27.5H58.0001C58.3979 27.5 58.7795 27.342 59.0608 27.0607C59.3421 26.7794 59.5001 26.3978 59.5001 26V23.5H68.5001V26C68.5001 26.3978 68.6582 26.7794 68.9395 27.0607C69.2208 27.342 69.6023 27.5 70.0001 27.5H73.2364C73.5654 27.5001 73.8854 27.392 74.147 27.1923C74.4086 26.9926 74.5972 26.7125 74.6839 26.395L77.4826 16.1313C77.5014 16.0623 77.5052 15.9902 77.4938 15.9197C77.4824 15.8492 77.456 15.7819 77.4164 15.7225ZM58.0001 22.5C57.8675 22.5 57.7403 22.4473 57.6466 22.3536C57.5528 22.2598 57.5001 22.1326 57.5001 22V7.86125L61.5001 10.1475V17C61.5001 17.1326 61.5528 17.2598 61.6466 17.3536C61.7403 17.4473 61.8675 17.5 62.0001 17.5C62.1327 17.5 62.2599 17.4473 62.3537 17.3536C62.4474 17.2598 62.5001 17.1326 62.5001 17V10.7188L63.7501 11.4338C63.8261 11.4776 63.9123 11.5007 64.0001 11.5007C64.0879 11.5007 64.1741 11.4776 64.2501 11.4338L65.5001 10.7188V16C65.5001 16.1326 65.5528 16.2598 65.6466 16.3536C65.7403 16.4473 65.8675 16.5 66.0001 16.5C66.1327 16.5 66.2599 16.4473 66.3537 16.3536C66.4474 16.2598 66.5001 16.1326 66.5001 16V10.1475L70.5001 7.86125V22C70.5001 22.1326 70.4474 22.2598 70.3537 22.3536C70.2599 22.4473 70.1327 22.5 70.0001 22.5H58.0001ZM58.4526 5.7225C58.4989 5.65312 58.5618 5.59642 58.6356 5.55756C58.7094 5.5187 58.7917 5.49891 58.8751 5.5H69.1376C69.22 5.49995 69.301 5.52023 69.3736 5.55905C69.4463 5.59786 69.5082 5.65401 69.5539 5.7225L70.2926 6.83125L64.0001 10.4238L57.7139 6.83125L58.4526 5.7225ZM58.5001 26C58.5001 26.1326 58.4474 26.2598 58.3537 26.3536C58.2599 26.4473 58.1327 26.5 58.0001 26.5H54.7639C54.6541 26.5 54.5474 26.4639 54.4602 26.3973C54.373 26.3306 54.3102 26.2372 54.2814 26.1313L51.5426 16.0875L56.5001 8.65125V22C56.5001 22.3978 56.6582 22.7794 56.9395 23.0607C57.2208 23.342 57.6023 23.5 58.0001 23.5H58.5001V26ZM73.7189 26.1313C73.6901 26.2372 73.6272 26.3306 73.54 26.3973C73.4528 26.4639 73.3461 26.5 73.2364 26.5H70.0001C69.8675 26.5 69.7403 26.4473 69.6466 26.3536C69.5528 26.2598 69.5001 26.1326 69.5001 26V23.5H70.0001C70.3979 23.5 70.7795 23.342 71.0608 23.0607C71.3421 22.7794 71.5001 22.3978 71.5001 22V8.65125L76.4576 16.0875L73.7189 26.1313Z" fill="currentColor"/>
<path d="M125.625 15.5838L118.587 5.02876C118.428 4.78912 118.211 4.59266 117.957 4.45681C117.703 4.32096 117.419 4.24993 117.131 4.25001H106.875C106.586 4.2489 106.301 4.31944 106.046 4.45533C105.79 4.59123 105.573 4.78824 105.412 5.02876L98.3749 15.5838C98.3153 15.673 98.2755 15.7739 98.2583 15.8798C98.241 15.9857 98.2467 16.094 98.2749 16.1975L101.074 26.46C101.175 26.8307 101.395 27.1579 101.7 27.3911C102.006 27.6242 102.379 27.7504 102.764 27.75H106C106.464 27.75 106.909 27.5656 107.237 27.2374C107.566 26.9093 107.75 26.4641 107.75 26V23.75H116.25V26C116.25 26.4641 116.434 26.9093 116.762 27.2374C117.091 27.5656 117.536 27.75 118 27.75H121.236C121.62 27.7501 121.994 27.6238 122.299 27.3907C122.604 27.1576 122.824 26.8305 122.925 26.46L125.724 16.1975C125.752 16.0941 125.758 15.9858 125.741 15.8799C125.724 15.7741 125.684 15.6731 125.625 15.5838ZM106 22.25C105.934 22.25 105.87 22.2237 105.823 22.1768C105.776 22.1299 105.75 22.0663 105.75 22V8.29251L109.25 10.2925V17C109.25 17.1989 109.329 17.3897 109.47 17.5303C109.61 17.671 109.801 17.75 110 17.75C110.199 17.75 110.39 17.671 110.53 17.5303C110.671 17.3897 110.75 17.1989 110.75 17V11.15L111.625 11.65C111.739 11.7158 111.868 11.7505 112 11.7505C112.132 11.7505 112.261 11.7158 112.375 11.65L113.25 11.15V16C113.25 16.1989 113.329 16.3897 113.47 16.5303C113.61 16.671 113.801 16.75 114 16.75C114.199 16.75 114.39 16.671 114.53 16.5303C114.671 16.3897 114.75 16.1989 114.75 16V10.2925L118.25 8.29251V22C118.25 22.0663 118.224 22.1299 118.177 22.1768C118.13 22.2237 118.066 22.25 118 22.25H106ZM106.875 5.75001H117.137C117.179 5.74988 117.219 5.75997 117.256 5.77939C117.292 5.7988 117.323 5.82693 117.346 5.86126L117.93 6.75001L112 10.1363L106.07 6.75001L106.66 5.86376C106.683 5.82807 106.715 5.79888 106.753 5.77898C106.79 5.75907 106.832 5.7491 106.875 5.75001ZM106.25 26C106.25 26.0663 106.224 26.1299 106.177 26.1768C106.13 26.2237 106.066 26.25 106 26.25H102.764C102.709 26.2501 102.656 26.2321 102.612 26.1989C102.568 26.1657 102.537 26.1191 102.522 26.0663L99.8137 16.1325L104.25 9.47751V22C104.25 22.4641 104.434 22.9093 104.762 23.2374C105.091 23.5656 105.536 23.75 106 23.75H106.25V26ZM121.477 26.0663C121.463 26.1191 121.431 26.1657 121.388 26.1989C121.344 26.2321 121.291 26.2501 121.236 26.25H118C117.934 26.25 117.87 26.2237 117.823 26.1768C117.776 26.1299 117.75 26.0663 117.75 26V23.75H118C118.464 23.75 118.909 23.5656 119.237 23.2374C119.566 22.9093 119.75 22.4641 119.75 22V9.47751L124.186 16.1325L121.477 26.0663Z" fill="currentColor"/>
<path d="M174.75 15.1675L167.711 4.61375C167.483 4.27123 167.174 3.99035 166.811 3.79606C166.448 3.60177 166.043 3.50008 165.631 3.5H154.375C153.963 3.50008 153.558 3.60177 153.195 3.79606C152.832 3.99035 152.523 4.27123 152.295 4.61375L145.25 15.1675C145.137 15.3362 145.06 15.526 145.023 15.7253C144.986 15.9247 144.989 16.1296 145.034 16.3275L147.332 26.5912C147.332 26.6137 147.344 26.6362 147.35 26.6575C147.494 27.187 147.809 27.6542 148.245 27.9872C148.681 28.3202 149.215 28.5004 149.764 28.5H153.5C153.828 28.5 154.153 28.4353 154.457 28.3097C154.76 28.1841 155.036 27.9999 155.268 27.7678C155.5 27.5356 155.684 27.26 155.81 26.9567C155.935 26.6534 156 26.3283 156 26V25H164V26C164 26.663 164.263 27.2989 164.732 27.7678C165.201 28.2366 165.837 28.5 166.5 28.5H170.236C170.785 28.4998 171.318 28.3194 171.753 27.9865C172.189 27.6535 172.503 27.1866 172.647 26.6575C172.647 26.6362 172.66 26.6137 172.665 26.5912L174.964 16.3275C175.008 16.1297 175.012 15.925 174.976 15.7256C174.939 15.5262 174.862 15.3364 174.75 15.1675ZM160 9.3L154.75 6.5H165.25L160 9.3ZM154 22V9.5L156 10.5662V17C156 17.3978 156.158 17.7794 156.439 18.0607C156.721 18.342 157.102 18.5 157.5 18.5C157.898 18.5 158.279 18.342 158.561 18.0607C158.842 17.7794 159 17.3978 159 17V12.1663L159.294 12.3237C159.511 12.4397 159.754 12.5004 160 12.5004C160.246 12.5004 160.489 12.4397 160.706 12.3237L161 12.1663V16C161 16.3978 161.158 16.7794 161.439 17.0607C161.721 17.342 162.102 17.5 162.5 17.5C162.898 17.5 163.279 17.342 163.561 17.0607C163.842 16.7794 164 16.3978 164 16V10.5662L166 9.5V22H154ZM150.165 25.5L148.104 16.2987L151 11.9537V22.5C151 23.0763 151.199 23.635 151.563 24.0815C151.928 24.5279 152.435 24.8347 153 24.95V25.5H150.165ZM169.835 25.5H167V24.95C167.565 24.8347 168.072 24.5279 168.437 24.0815C168.801 23.635 169 23.0763 169 22.5V11.9537L171.896 16.2987L169.835 25.5Z" fill="currentColor"/>
<path d="M221.833 15.445L214.795 4.89C214.612 4.6162 214.365 4.39172 214.075 4.23647C213.785 4.08122 213.46 3.99999 213.131 4H202.875C202.546 3.99999 202.222 4.08122 201.932 4.23647C201.641 4.39172 201.394 4.6162 201.211 4.89L194.174 15.445C194.095 15.5639 194.042 15.6984 194.019 15.8394C193.996 15.9804 194.004 16.1247 194.041 16.2625L196.84 26.5263C196.955 26.9486 197.206 27.3215 197.553 27.5877C197.901 27.8539 198.326 27.9987 198.764 28H202C202.531 28 203.039 27.7893 203.414 27.4142C203.789 27.0391 204 26.5304 204 26V24H212V26C212 26.5304 212.211 27.0391 212.586 27.4142C212.961 27.7893 213.47 28 214 28H217.236C217.675 28.0001 218.102 27.8559 218.451 27.5896C218.799 27.3232 219.051 26.9496 219.166 26.5263L221.965 16.2625C222.003 16.1247 222.01 15.9804 221.987 15.8394C221.965 15.6984 221.912 15.5639 221.833 15.445ZM202 26H198.764L196.085 16.1763L200 10.3025V22C200 22.5304 200.211 23.0391 200.586 23.4142C200.961 23.7893 201.47 24 202 24V26ZM207 17C207 17.2652 206.895 17.5196 206.707 17.7071C206.52 17.8946 206.265 18 206 18C205.735 18 205.481 17.8946 205.293 17.7071C205.105 17.5196 205 17.2652 205 17V11.8575C205 11.5923 205.105 11.3379 205.293 11.1504C205.481 10.9629 205.735 10.8575 206 10.8575C206.265 10.8575 206.52 10.9629 206.707 11.1504C206.895 11.3379 207 11.5923 207 11.8575V17ZM211 16C211 16.2652 210.895 16.5196 210.707 16.7071C210.52 16.8946 210.265 17 210 17C209.735 17 209.481 16.8946 209.293 16.7071C209.105 16.5196 209 16.2652 209 16V11.8575C209 11.5923 209.105 11.3379 209.293 11.1504C209.481 10.9629 209.735 10.8575 210 10.8575C210.265 10.8575 210.52 10.9629 210.707 11.1504C210.895 11.3379 211 11.5923 211 11.8575V16ZM208 9.84875L202.426 6.66375L202.875 6H213.138L213.58 6.66375L208 9.84875ZM217.236 26H214V24C214.531 24 215.039 23.7893 215.414 23.4142C215.789 23.0391 216 22.5304 216 22V10.3025L219.915 16.1775L217.236 26Z" fill="currentColor"/>
<path opacity="0.2" d="M269 16L266.201 26.2625C266.144 26.4743 266.018 26.6613 265.844 26.7945C265.669 26.9278 265.456 27 265.236 27H262C261.735 27 261.48 26.8946 261.293 26.7071C261.105 26.5196 261 26.2652 261 26V23H251V26C251 26.2652 250.895 26.5196 250.707 26.7071C250.52 26.8946 250.265 27 250 27H246.764C246.544 27 246.331 26.9278 246.156 26.7945C245.982 26.6613 245.856 26.4743 245.799 26.2625L243 16L249 7L256 11L263 7L269 16Z" fill="currentColor"/>
<path d="M269.833 15.445L262.795 4.89C262.612 4.6162 262.365 4.39172 262.075 4.23647C261.785 4.08122 261.46 3.99999 261.131 4H250.875C250.546 3.99999 250.222 4.08122 249.932 4.23647C249.641 4.39172 249.394 4.6162 249.211 4.89L242.174 15.445C242.095 15.5639 242.042 15.6984 242.019 15.8394C241.996 15.9804 242.004 16.1247 242.041 16.2625L244.84 26.5263C244.956 26.9481 245.207 27.3203 245.554 27.5864C245.902 27.8525 246.326 27.9977 246.764 28H250C250.531 28 251.039 27.7893 251.414 27.4142C251.789 27.0391 252 26.5304 252 26V24H260V26C260 26.5304 260.211 27.0391 260.586 27.4142C260.961 27.7893 261.47 28 262 28H265.236C265.675 27.9991 266.101 27.8544 266.45 27.5883C266.798 27.3221 267.05 26.9491 267.166 26.5263L269.965 16.2625C270.003 16.1247 270.01 15.9804 269.987 15.8394C269.965 15.6984 269.912 15.5639 269.833 15.445ZM250 22V8.72375L253 10.4375V17C253 17.2652 253.105 17.5196 253.293 17.7071C253.481 17.8946 253.735 18 254 18C254.265 18 254.52 17.8946 254.707 17.7071C254.895 17.5196 255 17.2652 255 17V11.58L255.5 11.875C255.652 11.9628 255.825 12.009 256 12.009C256.176 12.009 256.348 11.9628 256.5 11.875L257 11.5863V16C257 16.2652 257.105 16.5196 257.293 16.7071C257.481 16.8946 257.735 17 258 17C258.265 17 258.52 16.8946 258.707 16.7071C258.895 16.5196 259 16.2652 259 16V10.4375L262 8.72375V22H250ZM261.131 6L261.574 6.66375L256 9.84875L250.426 6.66375L250.875 6H261.131ZM250 26H246.764L244.085 16.1763L248 10.3025V22C248 22.5304 248.211 23.0391 248.586 23.4142C248.961 23.7893 249.47 24 250 24V26ZM265.236 26H262V24C262.531 24 263.039 23.7893 263.414 23.4142C263.789 23.0391 264 22.5304 264 22V10.3025L267.915 16.1775L265.236 26Z" fill="currentColor"/>
</g>
<defs>
<clipPath id="clip0_17_7865">
<rect width="272" height="32" rx="5" fill="white"/>
</clipPath>
</defs>
</svg>
