<svg width="272" height="32" viewBox="0 0 272 32" fill="none" xmlns="http://www.w3.org/2000/svg">
<g clip-path="url(#clip0_17_7851)">
<path d="M25.9999 11.1713V11C25.9999 8.34784 24.9464 5.8043 23.071 3.92893C21.1956 2.05357 18.6521 1 15.9999 1C13.3478 1 10.8042 2.05357 8.92888 3.92893C7.05351 5.8043 5.99994 8.34784 5.99994 11V11.1713C5.3325 11.407 4.76991 11.8711 4.41165 12.4816C4.05339 13.0921 3.92254 13.8096 4.04223 14.5073C4.16192 15.2049 4.52445 15.8378 5.06571 16.294C5.60697 16.7501 6.29209 17.0002 6.99994 17H7.41994L15.1312 30.5C15.2186 30.6533 15.345 30.7808 15.4976 30.8694C15.6502 30.9581 15.8235 31.0047 15.9999 31.0047C16.1764 31.0047 16.3497 30.9581 16.5023 30.8694C16.6549 30.7808 16.7813 30.6533 16.8687 30.5L24.5799 17H24.9999C25.7078 17.0002 26.3929 16.7501 26.9342 16.294C27.4754 15.8378 27.838 15.2049 27.9577 14.5073C28.0774 13.8096 27.9465 13.0921 27.5882 12.4816C27.23 11.8711 26.6674 11.407 25.9999 11.1713ZM15.9999 27.985L9.72369 17H12.1337L17.2049 25.875L15.9999 27.985ZM16.8487 17L19.5624 21.75L18.3574 23.86L14.4374 17H16.8487ZM20.7137 19.735L19.1512 17H22.2762L20.7137 19.735ZM24.9999 15H6.99994C6.73473 15 6.48037 14.8946 6.29284 14.7071C6.1053 14.5196 5.99994 14.2652 5.99994 14C5.99994 13.7348 6.1053 13.4804 6.29284 13.2929C6.48037 13.1054 6.73473 13 6.99994 13C7.26516 13 7.51951 12.8946 7.70705 12.7071C7.89459 12.5196 7.99994 12.2652 7.99994 12V11C7.99994 8.87827 8.8428 6.84344 10.3431 5.34315C11.8434 3.84285 13.8782 3 15.9999 3C18.1217 3 20.1565 3.84285 21.6568 5.34315C23.1571 6.84344 23.9999 8.87827 23.9999 11V12C23.9999 12.2652 24.1053 12.5196 24.2928 12.7071C24.4804 12.8946 24.7347 13 24.9999 13C25.2652 13 25.5195 13.1054 25.7071 13.2929C25.8946 13.4804 25.9999 13.7348 25.9999 14C25.9999 14.2652 25.8946 14.5196 25.7071 14.7071C25.5195 14.8946 25.2652 15 24.9999 15Z" fill="currentColor"/>
<path d="M73.5001 11.55V11C73.5001 8.48044 72.4992 6.06408 70.7176 4.28249C68.936 2.50089 66.5196 1.5 64.0001 1.5C61.4805 1.5 59.0642 2.50089 57.2826 4.28249C55.501 6.06408 54.5001 8.48044 54.5001 11V11.55C53.8925 11.6734 53.3524 12.0181 52.9847 12.5173C52.617 13.0164 52.4479 13.6344 52.5102 14.2512C52.5725 14.8681 52.8618 15.4398 53.3219 15.8553C53.782 16.2709 54.3801 16.5006 55.0001 16.5H55.7101L63.5663 30.25C63.6101 30.3264 63.6733 30.3898 63.7494 30.4339C63.8256 30.478 63.9121 30.5013 64.0001 30.5013C64.0881 30.5013 64.1746 30.478 64.2507 30.4339C64.3269 30.3898 64.39 30.3264 64.4338 30.25L72.2901 16.5H73.0001C73.6201 16.5006 74.2181 16.2709 74.6782 15.8553C75.1383 15.4398 75.4276 14.8681 75.4899 14.2512C75.5522 13.6344 75.3831 13.0164 75.0154 12.5173C74.6477 12.0181 74.1077 11.6734 73.5001 11.55ZM64.0001 28.9925L56.8613 16.5H60.4238L65.7813 25.875L64.0001 28.9925ZM65.1388 16.5L68.1388 21.75L66.3576 24.8675L61.5763 16.5H65.1388ZM68.7138 20.7425L66.2901 16.5H71.1388L68.7138 20.7425ZM73.0001 15.5H55.0001C54.6023 15.5 54.2207 15.342 53.9394 15.0607C53.6581 14.7794 53.5001 14.3978 53.5001 14C53.5001 13.6022 53.6581 13.2206 53.9394 12.9393C54.2207 12.658 54.6023 12.5 55.0001 12.5C55.1327 12.5 55.2599 12.4473 55.3536 12.3536C55.4474 12.2598 55.5001 12.1326 55.5001 12V11C55.5001 8.74566 56.3956 6.58365 57.9897 4.98959C59.5837 3.39553 61.7457 2.5 64.0001 2.5C66.2544 2.5 68.4164 3.39553 70.0105 4.98959C71.6045 6.58365 72.5001 8.74566 72.5001 11V12C72.5001 12.1326 72.5528 12.2598 72.6465 12.3536C72.7403 12.4473 72.8675 12.5 73.0001 12.5C73.3979 12.5 73.7794 12.658 74.0607 12.9393C74.342 13.2206 74.5001 13.6022 74.5001 14C74.5001 14.3978 74.342 14.7794 74.0607 15.0607C73.7794 15.342 73.3979 15.5 73.0001 15.5Z" fill="currentColor"/>
<path d="M121.75 11.3538V11C121.75 8.41414 120.723 5.93419 118.894 4.10571C117.066 2.27723 114.586 1.25 112 1.25C109.414 1.25 106.934 2.27723 105.106 4.10571C103.277 5.93419 102.25 8.41414 102.25 11V11.3538C101.611 11.5344 101.059 11.9402 100.696 12.4962C100.333 13.0522 100.183 13.7208 100.274 14.3786C100.366 15.0363 100.692 15.6388 101.193 16.0747C101.694 16.5105 102.336 16.7504 103 16.75H103.565L111.349 30.375C111.414 30.4898 111.509 30.5853 111.624 30.6517C111.738 30.718 111.868 30.753 112 30.753C112.132 30.753 112.262 30.718 112.377 30.6517C112.491 30.5853 112.586 30.4898 112.651 30.375L120.435 16.75H121C121.664 16.7504 122.306 16.5105 122.807 16.0747C123.308 15.6388 123.634 15.0363 123.726 14.3786C123.817 13.7208 123.667 13.0522 123.304 12.4962C122.941 11.9402 122.389 11.5344 121.75 11.3538ZM112 28.4888L105.293 16.75H108.279L113.5 25.875L112 28.4888ZM113 16.75L115.856 21.75L114.364 24.3638L110.006 16.75H113ZM116.72 20.2388L114.721 16.75H118.708L116.72 20.2388ZM121 15.25H103C102.669 15.25 102.351 15.1183 102.116 14.8839C101.882 14.6495 101.75 14.3315 101.75 14C101.75 13.6685 101.882 13.3505 102.116 13.1161C102.351 12.8817 102.669 12.75 103 12.75C103.199 12.75 103.39 12.671 103.53 12.5303C103.671 12.3897 103.75 12.1989 103.75 12V11C103.75 8.81196 104.619 6.71354 106.166 5.16637C107.714 3.61919 109.812 2.75 112 2.75C114.188 2.75 116.287 3.61919 117.834 5.16637C119.381 6.71354 120.25 8.81196 120.25 11V12C120.25 12.1989 120.329 12.3897 120.47 12.5303C120.61 12.671 120.801 12.75 121 12.75C121.332 12.75 121.65 12.8817 121.884 13.1161C122.118 13.3505 122.25 13.6685 122.25 14C122.25 14.3315 122.118 14.6495 121.884 14.8839C121.65 15.1183 121.332 15.25 121 15.25Z" fill="currentColor"/>
<path d="M170.5 10.8374C170.5 8.05263 169.394 5.38191 167.425 3.41278C165.455 1.44365 162.785 0.337402 160 0.337402C157.215 0.337402 154.544 1.44365 152.575 3.41278C150.606 5.38191 149.5 8.05263 149.5 10.8374C148.782 11.1779 148.201 11.7527 147.853 12.4672C147.505 13.1816 147.41 13.9933 147.585 14.7687C147.76 15.544 148.193 16.2368 148.813 16.7332C149.434 17.2296 150.205 17.5 151 17.4999H151.125L158.692 30.7499C158.824 30.9796 159.013 31.1705 159.242 31.3032C159.471 31.436 159.731 31.5059 159.995 31.5059C160.259 31.5059 160.519 31.436 160.748 31.3032C160.977 31.1705 161.166 30.9796 161.297 30.7499L168.875 17.4999H169C169.795 17.5 170.566 17.2296 171.187 16.7332C171.807 16.2368 172.24 15.544 172.415 14.7687C172.59 13.9933 172.495 13.1816 172.147 12.4672C171.799 11.7527 171.218 11.1779 170.5 10.8374ZM160 26.9762L154.585 17.4999H157.844L161.625 24.1249L160 26.9762ZM163.357 21.1012L161.299 17.4999H165.415L163.357 21.1012ZM169 14.4999H151C150.867 14.4999 150.74 14.4472 150.646 14.3535C150.553 14.2597 150.5 14.1325 150.5 13.9999C150.5 13.8673 150.553 13.7401 150.646 13.6463C150.74 13.5526 150.867 13.4999 151 13.4999C151.398 13.4999 151.779 13.3419 152.061 13.0606C152.342 12.7793 152.5 12.3977 152.5 11.9999V10.9999C152.5 9.01078 153.29 7.10312 154.697 5.6966C156.103 4.29008 158.011 3.4999 160 3.4999C161.989 3.4999 163.897 4.29008 165.303 5.6966C166.71 7.10312 167.5 9.01078 167.5 10.9999V11.9999C167.5 12.3977 167.658 12.7793 167.939 13.0606C168.221 13.3419 168.602 13.4999 169 13.4999C169.133 13.4999 169.26 13.5526 169.354 13.6463C169.447 13.7401 169.5 13.8673 169.5 13.9999C169.5 14.1325 169.447 14.2597 169.354 14.3535C169.26 14.4472 169.133 14.4999 169 14.4999Z" fill="currentColor"/>
<path d="M218 11.1713V11C218 8.34784 216.946 5.8043 215.071 3.92893C213.196 2.05357 210.652 1 208 1C205.348 1 202.804 2.05357 200.929 3.92893C199.054 5.8043 198 8.34784 198 11V11.1713C197.333 11.407 196.77 11.8711 196.412 12.4816C196.053 13.0921 195.923 13.8096 196.042 14.5073C196.162 15.2049 196.524 15.8378 197.066 16.294C197.607 16.7501 198.292 17.0002 199 17H199.42L207.131 30.5C207.219 30.6533 207.345 30.7808 207.498 30.8694C207.65 30.9581 207.823 31.0047 208 31.0047C208.176 31.0047 208.35 30.9581 208.502 30.8694C208.655 30.7808 208.781 30.6533 208.869 30.5L216.58 17H217C217.708 17.0002 218.393 16.7501 218.934 16.294C219.475 15.8378 219.838 15.2049 219.958 14.5073C220.077 13.8096 219.946 13.0921 219.588 12.4816C219.23 11.8711 218.667 11.407 218 11.1713ZM208 27.985L201.724 17H204.134L209.205 25.875L208 27.985ZM210.357 23.86L206.437 17H208.849L211.562 21.75L210.357 23.86ZM212.714 19.735L211.151 17H214.276L212.714 19.735Z" fill="currentColor"/>
<path opacity="0.2" d="M267 14C267 14.5304 266.789 15.0391 266.414 15.4142C266.039 15.7893 265.53 16 265 16H247C246.47 16 245.961 15.7893 245.586 15.4142C245.211 15.0391 245 14.5304 245 14C245 13.4696 245.211 12.9609 245.586 12.5858C245.961 12.2107 246.47 12 247 12V11C247 8.61305 247.948 6.32387 249.636 4.63604C251.324 2.94821 253.613 2 256 2C258.387 2 260.676 2.94821 262.364 4.63604C264.052 6.32387 265 8.61305 265 11V12C265.53 12 266.039 12.2107 266.414 12.5858C266.789 12.9609 267 13.4696 267 14Z" fill="currentColor"/>
<path d="M266 11.1713V11C266 8.34784 264.946 5.8043 263.071 3.92893C261.196 2.05357 258.652 1 256 1C253.348 1 250.804 2.05357 248.929 3.92893C247.054 5.8043 246 8.34784 246 11V11.1713C245.333 11.407 244.77 11.8711 244.412 12.4816C244.053 13.0921 243.923 13.8096 244.042 14.5073C244.162 15.2049 244.524 15.8378 245.066 16.294C245.607 16.7501 246.292 17.0002 247 17H247.42L255.131 30.5C255.219 30.6533 255.345 30.7808 255.498 30.8694C255.65 30.9581 255.823 31.0047 256 31.0047C256.176 31.0047 256.35 30.9581 256.502 30.8694C256.655 30.7808 256.781 30.6533 256.869 30.5L264.58 17H265C265.708 17.0002 266.393 16.7501 266.934 16.294C267.475 15.8378 267.838 15.2049 267.958 14.5073C268.077 13.8096 267.946 13.0921 267.588 12.4816C267.23 11.8711 266.667 11.407 266 11.1713ZM256 27.985L249.724 17H252.134L257.205 25.875L256 27.985ZM256.849 17L259.562 21.75L258.357 23.86L254.437 17H256.849ZM260.714 19.735L259.151 17H262.276L260.714 19.735ZM265 15H247C246.735 15 246.48 14.8946 246.293 14.7071C246.105 14.5196 246 14.2652 246 14C246 13.7348 246.105 13.4804 246.293 13.2929C246.48 13.1054 246.735 13 247 13C247.265 13 247.52 12.8946 247.707 12.7071C247.895 12.5196 248 12.2652 248 12V11C248 8.87827 248.843 6.84344 250.343 5.34315C251.843 3.84285 253.878 3 256 3C258.122 3 260.157 3.84285 261.657 5.34315C263.157 6.84344 264 8.87827 264 11V12C264 12.2652 264.105 12.5196 264.293 12.7071C264.48 12.8946 264.735 13 265 13C265.265 13 265.52 13.1054 265.707 13.2929C265.895 13.4804 266 13.7348 266 14C266 14.2652 265.895 14.5196 265.707 14.7071C265.52 14.8946 265.265 15 265 15Z" fill="currentColor"/>
</g>
<defs>
<clipPath id="clip0_17_7851">
<rect width="272" height="32" rx="5" fill="white"/>
</clipPath>
</defs>
</svg>
