<svg width="272" height="32" viewBox="0 0 272 32" fill="none" xmlns="http://www.w3.org/2000/svg">
<g clip-path="url(#clip0_17_7809)">
<path d="M24 3C23.7348 3 23.4804 3.10536 23.2929 3.29289C23.1054 3.48043 23 3.73478 23 4V8H9V4C9 3.73478 8.89464 3.48043 8.70711 3.29289C8.51957 3.10536 8.26522 3 8 3C7.73478 3 7.48043 3.10536 7.29289 3.29289C7.10536 3.48043 7 3.73478 7 4V28C7 28.2652 7.10536 28.5196 7.29289 28.7071C7.48043 28.8946 7.73478 29 8 29C8.26522 29 8.51957 28.8946 8.70711 28.7071C8.89464 28.5196 9 28.2652 9 28V24H23V28C23 28.2652 23.1054 28.5196 23.2929 28.7071C23.4804 28.8946 23.7348 29 24 29C24.2652 29 24.5196 28.8946 24.7071 28.7071C24.8946 28.5196 25 28.2652 25 28V4C25 3.73478 24.8946 3.48043 24.7071 3.29289C24.5196 3.10536 24.2652 3 24 3ZM23 10V15H9V10H23ZM9 22V17H23V22H9Z" fill="currentColor"/>
<path d="M72 3.5C71.8674 3.5 71.7402 3.55268 71.6464 3.64645C71.5527 3.74021 71.5 3.86739 71.5 4V8.5H56.5V4C56.5 3.86739 56.4473 3.74021 56.3536 3.64645C56.2598 3.55268 56.1326 3.5 56 3.5C55.8674 3.5 55.7402 3.55268 55.6464 3.64645C55.5527 3.74021 55.5 3.86739 55.5 4V28C55.5 28.1326 55.5527 28.2598 55.6464 28.3536C55.7402 28.4473 55.8674 28.5 56 28.5C56.1326 28.5 56.2598 28.4473 56.3536 28.3536C56.4473 28.2598 56.5 28.1326 56.5 28V23.5H71.5V28C71.5 28.1326 71.5527 28.2598 71.6464 28.3536C71.7402 28.4473 71.8674 28.5 72 28.5C72.1326 28.5 72.2598 28.4473 72.3536 28.3536C72.4473 28.2598 72.5 28.1326 72.5 28V4C72.5 3.86739 72.4473 3.74021 72.3536 3.64645C72.2598 3.55268 72.1326 3.5 72 3.5ZM71.5 9.5V15.5H56.5V9.5H71.5ZM56.5 22.5V16.5H71.5V22.5H56.5Z" fill="currentColor"/>
<path d="M120 3.25C119.801 3.25 119.61 3.32902 119.47 3.46967C119.329 3.61032 119.25 3.80109 119.25 4V8.25H104.75V4C104.75 3.80109 104.671 3.61032 104.53 3.46967C104.39 3.32902 104.199 3.25 104 3.25C103.801 3.25 103.61 3.32902 103.47 3.46967C103.329 3.61032 103.25 3.80109 103.25 4V28C103.25 28.1989 103.329 28.3897 103.47 28.5303C103.61 28.671 103.801 28.75 104 28.75C104.199 28.75 104.39 28.671 104.53 28.5303C104.671 28.3897 104.75 28.1989 104.75 28V23.75H119.25V28C119.25 28.1989 119.329 28.3897 119.47 28.5303C119.61 28.671 119.801 28.75 120 28.75C120.199 28.75 120.39 28.671 120.53 28.5303C120.671 28.3897 120.75 28.1989 120.75 28V4C120.75 3.80109 120.671 3.61032 120.53 3.46967C120.39 3.32902 120.199 3.25 120 3.25ZM119.25 9.75V15.25H104.75V9.75H119.25ZM104.75 22.25V16.75H119.25V22.25H104.75Z" fill="currentColor"/>
<path d="M168 2.5C167.602 2.5 167.221 2.65804 166.939 2.93934C166.658 3.22064 166.5 3.60218 166.5 4V7.5H153.5V4C153.5 3.60218 153.342 3.22064 153.061 2.93934C152.779 2.65804 152.398 2.5 152 2.5C151.602 2.5 151.221 2.65804 150.939 2.93934C150.658 3.22064 150.5 3.60218 150.5 4V28C150.5 28.3978 150.658 28.7794 150.939 29.0607C151.221 29.342 151.602 29.5 152 29.5C152.398 29.5 152.779 29.342 153.061 29.0607C153.342 28.7794 153.5 28.3978 153.5 28V24.5H166.5V28C166.5 28.3978 166.658 28.7794 166.939 29.0607C167.221 29.342 167.602 29.5 168 29.5C168.398 29.5 168.779 29.342 169.061 29.0607C169.342 28.7794 169.5 28.3978 169.5 28V4C169.5 3.60218 169.342 3.22064 169.061 2.93934C168.779 2.65804 168.398 2.5 168 2.5ZM166.5 10.5V14.5H153.5V10.5H166.5ZM153.5 21.5V17.5H166.5V21.5H153.5Z" fill="currentColor"/>
<path d="M216 3C215.735 3 215.48 3.10536 215.293 3.29289C215.105 3.48043 215 3.73478 215 4V5H201V4C201 3.73478 200.895 3.48043 200.707 3.29289C200.52 3.10536 200.265 3 200 3C199.735 3 199.48 3.10536 199.293 3.29289C199.105 3.48043 199 3.73478 199 4V28C199 28.2652 199.105 28.5196 199.293 28.7071C199.48 28.8946 199.735 29 200 29C200.265 29 200.52 28.8946 200.707 28.7071C200.895 28.5196 201 28.2652 201 28V27H215V28C215 28.2652 215.105 28.5196 215.293 28.7071C215.48 28.8946 215.735 29 216 29C216.265 29 216.52 28.8946 216.707 28.7071C216.895 28.5196 217 28.2652 217 28V4C217 3.73478 216.895 3.48043 216.707 3.29289C216.52 3.10536 216.265 3 216 3ZM214 23H202C201.735 23 201.48 22.8946 201.293 22.7071C201.105 22.5196 201 22.2652 201 22C201 21.7348 201.105 21.4804 201.293 21.2929C201.48 21.1054 201.735 21 202 21H214C214.265 21 214.52 21.1054 214.707 21.2929C214.895 21.4804 215 21.7348 215 22C215 22.2652 214.895 22.5196 214.707 22.7071C214.52 22.8946 214.265 23 214 23ZM214 17H202C201.735 17 201.48 16.8946 201.293 16.7071C201.105 16.5196 201 16.2652 201 16C201 15.7348 201.105 15.4804 201.293 15.2929C201.48 15.1054 201.735 15 202 15H214C214.265 15 214.52 15.1054 214.707 15.2929C214.895 15.4804 215 15.7348 215 16C215 16.2652 214.895 16.5196 214.707 16.7071C214.52 16.8946 214.265 17 214 17ZM214 11H202C201.735 11 201.48 10.8946 201.293 10.7071C201.105 10.5196 201 10.2652 201 10C201 9.73478 201.105 9.48043 201.293 9.29289C201.48 9.10536 201.735 9 202 9H214C214.265 9 214.52 9.10536 214.707 9.29289C214.895 9.48043 215 9.73478 215 10C215 10.2652 214.895 10.5196 214.707 10.7071C214.52 10.8946 214.265 11 214 11Z" fill="currentColor"/>
<path opacity="0.2" d="M264 4V28H248V4H264Z" fill="currentColor"/>
<path d="M264 3C263.735 3 263.48 3.10536 263.293 3.29289C263.105 3.48043 263 3.73478 263 4V8H249V4C249 3.73478 248.895 3.48043 248.707 3.29289C248.52 3.10536 248.265 3 248 3C247.735 3 247.48 3.10536 247.293 3.29289C247.105 3.48043 247 3.73478 247 4V28C247 28.2652 247.105 28.5196 247.293 28.7071C247.48 28.8946 247.735 29 248 29C248.265 29 248.52 28.8946 248.707 28.7071C248.895 28.5196 249 28.2652 249 28V24H263V28C263 28.2652 263.105 28.5196 263.293 28.7071C263.48 28.8946 263.735 29 264 29C264.265 29 264.52 28.8946 264.707 28.7071C264.895 28.5196 265 28.2652 265 28V4C265 3.73478 264.895 3.48043 264.707 3.29289C264.52 3.10536 264.265 3 264 3ZM263 10V15H249V10H263ZM249 22V17H263V22H249Z" fill="currentColor"/>
</g>
<defs>
<clipPath id="clip0_17_7809">
<rect width="272" height="32" rx="5" fill="white"/>
</clipPath>
</defs>
</svg>
