<svg width="272" height="32" viewBox="0 0 272 32" fill="none" xmlns="http://www.w3.org/2000/svg">
<g clip-path="url(#clip0_17_7781)">
<path d="M29.7076 5.7075C29.8476 5.56764 29.9429 5.38939 29.9816 5.19531C30.0202 5.00122 30.0004 4.80003 29.9247 4.61721C29.8489 4.43439 29.7206 4.27815 29.556 4.16828C29.3914 4.05841 29.198 3.99984 29.0001 4H3.00006C2.80216 3.99984 2.60867 4.05841 2.44407 4.16828C2.27948 4.27815 2.15119 4.43439 2.07543 4.61721C1.99968 4.80003 1.97988 5.00122 2.01853 5.19531C2.05718 5.38939 2.15254 5.56764 2.29256 5.7075L15.0001 18.4137V26H11.0001C10.7348 26 10.4805 26.1054 10.2929 26.2929C10.1054 26.4804 10.0001 26.7348 10.0001 27C10.0001 27.2652 10.1054 27.5196 10.2929 27.7071C10.4805 27.8946 10.7348 28 11.0001 28H21.0001C21.2653 28 21.5196 27.8946 21.7072 27.7071C21.8947 27.5196 22.0001 27.2652 22.0001 27C22.0001 26.7348 21.8947 26.4804 21.7072 26.2929C21.5196 26.1054 21.2653 26 21.0001 26H17.0001V18.4137L29.7076 5.7075ZM5.41381 6H26.5863L24.5863 8H7.41381L5.41381 6ZM16.0001 16.5863L9.41381 10H22.5863L16.0001 16.5863Z" fill="currentColor"/>
<path d="M77.3537 5.35375C77.4237 5.28382 77.4713 5.1947 77.4907 5.09765C77.51 5.00061 77.5001 4.90002 77.4622 4.8086C77.4243 4.71719 77.3602 4.63908 77.2779 4.58414C77.1956 4.5292 77.0989 4.49992 76.9999 4.5H50.9999C50.901 4.49992 50.8042 4.5292 50.7219 4.58414C50.6396 4.63908 50.5755 4.71719 50.5376 4.8086C50.4997 4.90002 50.4898 5.00061 50.5091 5.09765C50.5285 5.1947 50.5761 5.28382 50.6462 5.35375L63.4999 18.2075V26.5H58.9999C58.8673 26.5 58.7401 26.5527 58.6464 26.6464C58.5526 26.7402 58.4999 26.8674 58.4999 27C58.4999 27.1326 58.5526 27.2598 58.6464 27.3536C58.7401 27.4473 58.8673 27.5 58.9999 27.5H68.9999C69.1325 27.5 69.2597 27.4473 69.3535 27.3536C69.4472 27.2598 69.4999 27.1326 69.4999 27C69.4999 26.8674 69.4472 26.7402 69.3535 26.6464C69.2597 26.5527 69.1325 26.5 68.9999 26.5H64.4999V18.2075L77.3537 5.35375ZM52.2074 5.5H75.7924L72.7924 8.5H55.2074L52.2074 5.5ZM63.9999 17.2925L56.2074 9.5H71.7924L63.9999 17.2925Z" fill="currentColor"/>
<path d="M125.53 5.53C125.635 5.42511 125.706 5.29154 125.735 5.14614C125.764 5.00074 125.749 4.85004 125.692 4.71308C125.636 4.57611 125.54 4.45903 125.416 4.37661C125.293 4.29419 125.148 4.25013 125 4.25H99.0001C98.8518 4.25013 98.707 4.29419 98.5837 4.37661C98.4605 4.45903 98.3645 4.57611 98.3078 4.71308C98.2511 4.85004 98.2362 5.00074 98.2651 5.14614C98.294 5.29154 98.3653 5.42511 98.4701 5.53L111.25 18.3113V26.25H107C106.801 26.25 106.61 26.329 106.47 26.4697C106.329 26.6103 106.25 26.8011 106.25 27C106.25 27.1989 106.329 27.3897 106.47 27.5303C106.61 27.671 106.801 27.75 107 27.75H117C117.199 27.75 117.39 27.671 117.53 27.5303C117.671 27.3897 117.75 27.1989 117.75 27C117.75 26.8011 117.671 26.6103 117.53 26.4697C117.39 26.329 117.199 26.25 117 26.25H112.75V18.3113L125.53 5.53ZM104.811 9.75H119.186L112 16.9387L104.811 9.75ZM123.186 5.75L120.686 8.25H103.311L100.811 5.75H123.186Z" fill="currentColor"/>
<path d="M174.386 4.42625C174.273 4.15204 174.08 3.91767 173.834 3.75279C173.587 3.58791 173.297 3.49994 173 3.5H147C146.703 3.50001 146.413 3.58804 146.166 3.75294C145.92 3.91784 145.727 4.15221 145.614 4.42639C145.501 4.70058 145.471 5.00226 145.529 5.29327C145.587 5.58428 145.73 5.85154 145.94 6.06125L158.5 18.625V25.5H155C154.602 25.5 154.221 25.658 153.939 25.9393C153.658 26.2206 153.5 26.6022 153.5 27C153.5 27.3978 153.658 27.7794 153.939 28.0607C154.221 28.342 154.602 28.5 155 28.5H165C165.398 28.5 165.779 28.342 166.061 28.0607C166.342 27.7794 166.5 27.3978 166.5 27C166.5 26.6022 166.342 26.2206 166.061 25.9393C165.779 25.658 165.398 25.5 165 25.5H161.5V18.625L174.06 6.06125C174.27 5.85157 174.413 5.58429 174.471 5.29325C174.529 5.00221 174.5 4.70048 174.386 4.42625ZM169.375 6.5L167.875 8H152.125L150.625 6.5H169.375ZM160 15.875L155.125 11H164.875L160 15.875Z" fill="currentColor"/>
<path d="M221.708 5.7075C221.848 5.56764 221.943 5.38939 221.982 5.19531C222.02 5.00122 222 4.80003 221.925 4.61721C221.849 4.43439 221.721 4.27815 221.556 4.16828C221.391 4.05841 221.198 3.99984 221 4H195C194.802 3.99984 194.609 4.05841 194.444 4.16828C194.279 4.27815 194.151 4.43439 194.075 4.61721C194 4.80003 193.98 5.00122 194.019 5.19531C194.057 5.38939 194.153 5.56764 194.293 5.7075L207 18.4137V26H203C202.735 26 202.48 26.1054 202.293 26.2929C202.105 26.4804 202 26.7348 202 27C202 27.2652 202.105 27.5196 202.293 27.7071C202.48 27.8946 202.735 28 203 28H213C213.265 28 213.52 27.8946 213.707 27.7071C213.895 27.5196 214 27.2652 214 27C214 26.7348 213.895 26.4804 213.707 26.2929C213.52 26.1054 213.265 26 213 26H209V18.4137L221.708 5.7075ZM218.583 6L216.583 8H199.414L197.414 6H218.583Z" fill="currentColor"/>
<path opacity="0.2" d="M265 9L256 18L247 9H265Z" fill="currentColor"/>
<path d="M269.708 5.7075C269.848 5.56764 269.943 5.38939 269.982 5.19531C270.02 5.00122 270 4.80003 269.925 4.61721C269.849 4.43439 269.721 4.27815 269.556 4.16828C269.391 4.05841 269.198 3.99984 269 4H243C242.802 3.99984 242.609 4.05841 242.444 4.16828C242.279 4.27815 242.151 4.43439 242.075 4.61721C242 4.80003 241.98 5.00122 242.019 5.19531C242.057 5.38939 242.153 5.56764 242.293 5.7075L255 18.4137V26H251C250.735 26 250.48 26.1054 250.293 26.2929C250.105 26.4804 250 26.7348 250 27C250 27.2652 250.105 27.5196 250.293 27.7071C250.48 27.8946 250.735 28 251 28H261C261.265 28 261.52 27.8946 261.707 27.7071C261.895 27.5196 262 27.2652 262 27C262 26.7348 261.895 26.4804 261.707 26.2929C261.52 26.1054 261.265 26 261 26H257V18.4137L269.708 5.7075ZM249.414 10H262.586L256 16.5863L249.414 10ZM266.586 6L264.586 8H247.414L245.414 6H266.586Z" fill="currentColor"/>
</g>
<defs>
<clipPath id="clip0_17_7781">
<rect width="272" height="32" rx="5" fill="white"/>
</clipPath>
</defs>
</svg>
