<svg width="272" height="32" viewBox="0 0 272 32" fill="none" xmlns="http://www.w3.org/2000/svg">
<g clip-path="url(#clip0_17_7767)">
<path d="M16 11C15.0111 11 14.0444 11.2932 13.2221 11.8427C12.3999 12.3921 11.759 13.173 11.3806 14.0866C11.0022 15.0002 10.9031 16.0055 11.0961 16.9755C11.289 17.9454 11.7652 18.8363 12.4645 19.5355C13.1637 20.2348 14.0546 20.711 15.0245 20.9039C15.9945 21.0969 16.9998 20.9978 17.9134 20.6194C18.827 20.241 19.6079 19.6001 20.1573 18.7779C20.7068 17.9556 21 16.9889 21 16C21 14.6739 20.4732 13.4021 19.5355 12.4645C18.5979 11.5268 17.3261 11 16 11ZM16 19C15.4067 19 14.8266 18.8241 14.3333 18.4944C13.8399 18.1648 13.4554 17.6962 13.2284 17.1481C13.0013 16.5999 12.9419 15.9967 13.0576 15.4147C13.1734 14.8328 13.4591 14.2982 13.8787 13.8787C14.2982 13.4591 14.8328 13.1734 15.4147 13.0576C15.9967 12.9419 16.5999 13.0013 17.1481 13.2284C17.6962 13.4554 18.1648 13.8399 18.4944 14.3333C18.8241 14.8266 19 15.4067 19 16C19 16.7956 18.6839 17.5587 18.1213 18.1213C17.5587 18.6839 16.7956 19 16 19ZM30 7H2C1.73478 7 1.48043 7.10536 1.29289 7.29289C1.10536 7.48043 1 7.73478 1 8V24C1 24.2652 1.10536 24.5196 1.29289 24.7071C1.48043 24.8946 1.73478 25 2 25H30C30.2652 25 30.5196 24.8946 30.7071 24.7071C30.8946 24.5196 31 24.2652 31 24V8C31 7.73478 30.8946 7.48043 30.7071 7.29289C30.5196 7.10536 30.2652 7 30 7ZM24.2062 23H7.79375C7.45801 21.8645 6.84351 20.8311 6.00623 19.9938C5.16895 19.1565 4.1355 18.542 3 18.2062V13.7937C4.1355 13.458 5.16895 12.8435 6.00623 12.0062C6.84351 11.1689 7.45801 10.1355 7.79375 9H24.2062C24.542 10.1355 25.1565 11.1689 25.9938 12.0062C26.8311 12.8435 27.8645 13.458 29 13.7937V18.2062C27.8645 18.542 26.8311 19.1565 25.9938 19.9938C25.1565 20.8311 24.542 21.8645 24.2062 23ZM29 11.6713C27.8005 11.1555 26.8445 10.1995 26.3288 9H29V11.6713ZM5.67125 9C5.15549 10.1995 4.19945 11.1555 3 11.6713V9H5.67125ZM3 20.3288C4.19945 20.8445 5.15549 21.8005 5.67125 23H3V20.3288ZM26.3288 23C26.8445 21.8005 27.8005 20.8445 29 20.3288V23H26.3288Z" fill="currentColor"/>
<path d="M64 20.5C64.89 20.5 65.76 20.2361 66.5001 19.7416C67.2401 19.2471 67.8169 18.5443 68.1575 17.7221C68.4981 16.8998 68.5872 15.995 68.4135 15.1221C68.2399 14.2492 67.8113 13.4474 67.182 12.818C66.5526 12.1887 65.7508 11.7601 64.8779 11.5865C64.005 11.4128 63.1002 11.5019 62.2779 11.8425C61.4557 12.1831 60.7529 12.7599 60.2584 13.4999C59.7639 14.24 59.5 15.11 59.5 16C59.5 17.1935 59.9741 18.3381 60.818 19.182C61.6619 20.0259 62.8065 20.5 64 20.5ZM64 12.5C64.6922 12.5 65.3689 12.7053 65.9445 13.0899C66.5201 13.4744 66.9687 14.0211 67.2336 14.6606C67.4985 15.3001 67.5678 16.0039 67.4327 16.6828C67.2977 17.3617 66.9644 17.9854 66.4749 18.4749C65.9854 18.9644 65.3617 19.2977 64.6828 19.4327C64.0039 19.5678 63.3001 19.4985 62.6606 19.2336C62.0211 18.9687 61.4744 18.5201 61.0899 17.9445C60.7053 17.3689 60.5 16.6922 60.5 16C60.5 15.0717 60.8687 14.1815 61.5251 13.5251C62.1815 12.8687 63.0717 12.5 64 12.5ZM78 7.5H50C49.8674 7.5 49.7402 7.55268 49.6464 7.64645C49.5527 7.74021 49.5 7.86739 49.5 8V24C49.5 24.1326 49.5527 24.2598 49.6464 24.3536C49.7402 24.4473 49.8674 24.5 50 24.5H78C78.1326 24.5 78.2598 24.4473 78.3536 24.3536C78.4473 24.2598 78.5 24.1326 78.5 24V8C78.5 7.86739 78.4473 7.74021 78.3536 7.64645C78.2598 7.55268 78.1326 7.5 78 7.5ZM50.5 13.4075C51.6934 13.1266 52.7848 12.5185 53.6517 11.6517C54.5185 10.7848 55.1266 9.69336 55.4075 8.5H72.5925C72.8734 9.69336 73.4815 10.7848 74.3483 11.6517C75.2152 12.5185 76.3066 13.1266 77.5 13.4075V18.5925C76.3066 18.8734 75.2152 19.4815 74.3483 20.3483C73.4815 21.2152 72.8734 22.3066 72.5925 23.5H55.4075C55.1266 22.3066 54.5185 21.2152 53.6517 20.3483C52.7848 19.4815 51.6934 18.8734 50.5 18.5925V13.4075ZM77.5 12.375C76.5762 12.1152 75.7347 11.6224 75.0561 10.9439C74.3776 10.2653 73.8848 9.42379 73.625 8.5H77.5V12.375ZM54.375 8.5C54.1152 9.42379 53.6224 10.2653 52.9439 10.9439C52.2653 11.6224 51.4238 12.1152 50.5 12.375V8.5H54.375ZM50.5 19.625C51.4238 19.8848 52.2653 20.3776 52.9439 21.0561C53.6224 21.7347 54.1152 22.5762 54.375 23.5H50.5V19.625ZM73.625 23.5C73.8848 22.5762 74.3776 21.7347 75.0561 21.0561C75.7347 20.3776 76.5762 19.8848 77.5 19.625V23.5H73.625Z" fill="currentColor"/>
<path d="M112 20.75C112.939 20.75 113.858 20.4714 114.639 19.9495C115.42 19.4275 116.029 18.6857 116.388 17.8177C116.748 16.9498 116.842 15.9947 116.659 15.0733C116.475 14.1519 116.023 13.3055 115.359 12.6412C114.694 11.9769 113.848 11.5245 112.927 11.3413C112.005 11.158 111.05 11.2521 110.182 11.6116C109.314 11.9711 108.572 12.5799 108.051 13.361C107.529 14.1422 107.25 15.0605 107.25 16C107.25 17.2598 107.75 18.468 108.641 19.3588C109.532 20.2496 110.74 20.75 112 20.75ZM112 12.75C112.643 12.75 113.271 12.9406 113.806 13.2977C114.34 13.6548 114.757 14.1624 115.003 14.7563C115.249 15.3501 115.313 16.0036 115.188 16.634C115.062 17.2645 114.753 17.8436 114.298 18.2981C113.844 18.7526 113.264 19.0621 112.634 19.1876C112.004 19.313 111.35 19.2486 110.756 19.0026C110.162 18.7566 109.655 18.3401 109.298 17.8056C108.941 17.2711 108.75 16.6428 108.75 16C108.75 15.138 109.092 14.3114 109.702 13.7019C110.311 13.0924 111.138 12.75 112 12.75ZM126 7.25H98C97.8011 7.25 97.6103 7.32902 97.4697 7.46967C97.329 7.61032 97.25 7.80109 97.25 8V24C97.25 24.1989 97.329 24.3897 97.4697 24.5303C97.6103 24.671 97.8011 24.75 98 24.75H126C126.199 24.75 126.39 24.671 126.53 24.5303C126.671 24.3897 126.75 24.1989 126.75 24V8C126.75 7.80109 126.671 7.61032 126.53 7.46967C126.39 7.32902 126.199 7.25 126 7.25ZM98.75 13.6025C99.9145 13.2927 100.977 12.6808 101.829 11.8287C102.681 10.9766 103.293 9.91454 103.602 8.75H120.397C120.707 9.91454 121.319 10.9766 122.171 11.8287C123.023 12.6808 124.085 13.2927 125.25 13.6025V18.3975C124.085 18.7073 123.023 19.3192 122.171 20.1713C121.319 21.0234 120.707 22.0855 120.397 23.25H103.602C103.293 22.0855 102.681 21.0234 101.829 20.1713C100.977 19.3192 99.9145 18.7073 98.75 18.3975V13.6025ZM125.25 12.0363C124.49 11.7709 123.8 11.3376 123.231 10.7686C122.662 10.1996 122.229 9.50963 121.964 8.75H125.25V12.0363ZM102.036 8.75C101.771 9.50963 101.338 10.1996 100.769 10.7686C100.2 11.3376 99.5096 11.7709 98.75 12.0363V8.75H102.036ZM98.75 19.9638C99.5096 20.2291 100.2 20.6624 100.769 21.2314C101.338 21.8004 101.771 22.4904 102.036 23.25H98.75V19.9638ZM121.964 23.25C122.229 22.4904 122.662 21.8004 123.231 21.2314C123.8 20.6624 124.49 20.2291 125.25 19.9638V23.25H121.964Z" fill="currentColor"/>
<path d="M174 6.5H146C145.602 6.5 145.221 6.65804 144.939 6.93934C144.658 7.22064 144.5 7.60218 144.5 8V24C144.5 24.3978 144.658 24.7794 144.939 25.0607C145.221 25.342 145.602 25.5 146 25.5H174C174.398 25.5 174.779 25.342 175.061 25.0607C175.342 24.7794 175.5 24.3978 175.5 24V8C175.5 7.60218 175.342 7.22064 175.061 6.93934C174.779 6.65804 174.398 6.5 174 6.5ZM166.651 22.5H153.349C153.052 21.0603 152.34 19.7391 151.3 18.6996C150.261 17.6602 148.94 16.948 147.5 16.6513V15.3488C148.94 15.052 150.261 14.3398 151.3 13.3004C152.34 12.2609 153.052 10.9397 153.349 9.5H166.651C166.948 10.9397 167.66 12.2609 168.7 13.3004C169.739 14.3398 171.06 15.052 172.5 15.3488V16.6513C171.06 16.948 169.739 17.6602 168.7 18.6996C167.66 19.7391 166.948 21.0603 166.651 22.5ZM172.5 12.2425C171.868 12.017 171.295 11.654 170.82 11.1797C170.346 10.7054 169.983 10.1317 169.757 9.5H172.5V12.2425ZM150.242 9.5C150.017 10.1317 149.654 10.7054 149.18 11.1797C148.705 11.654 148.132 12.017 147.5 12.2425V9.5H150.242ZM147.5 19.7575C148.132 19.983 148.705 20.346 149.18 20.8203C149.654 21.2946 150.017 21.8683 150.242 22.5H147.5V19.7575ZM169.757 22.5C169.983 21.8683 170.346 21.2946 170.82 20.8203C171.295 20.346 171.868 19.983 172.5 19.7575V22.5H169.757ZM160 11C159.011 11 158.044 11.2932 157.222 11.8427C156.4 12.3921 155.759 13.173 155.381 14.0866C155.002 15.0002 154.903 16.0055 155.096 16.9755C155.289 17.9454 155.765 18.8363 156.464 19.5355C157.164 20.2348 158.055 20.711 159.025 20.9039C159.994 21.0969 161 20.9978 161.913 20.6194C162.827 20.241 163.608 19.6001 164.157 18.7779C164.707 17.9556 165 16.9889 165 16C165 14.6739 164.473 13.4021 163.536 12.4645C162.598 11.5268 161.326 11 160 11ZM160 18C159.604 18 159.218 17.8827 158.889 17.6629C158.56 17.4432 158.304 17.1308 158.152 16.7654C158.001 16.3999 157.961 15.9978 158.038 15.6098C158.116 15.2219 158.306 14.8655 158.586 14.5858C158.865 14.3061 159.222 14.1156 159.61 14.0384C159.998 13.9613 160.4 14.0009 160.765 14.1522C161.131 14.3036 161.443 14.56 161.663 14.8889C161.883 15.2178 162 15.6044 162 16C162 16.5304 161.789 17.0391 161.414 17.4142C161.039 17.7893 160.53 18 160 18Z" fill="currentColor"/>
<path d="M213 16C213 16.9889 212.707 17.9556 212.157 18.7779C211.608 19.6001 210.827 20.241 209.913 20.6194C209 20.9978 207.994 21.0969 207.025 20.9039C206.055 20.711 205.164 20.2348 204.464 19.5355C203.765 18.8363 203.289 17.9454 203.096 16.9755C202.903 16.0055 203.002 15.0002 203.381 14.0866C203.759 13.173 204.4 12.3921 205.222 11.8427C206.044 11.2932 207.011 11 208 11C209.326 11 210.598 11.5268 211.536 12.4645C212.473 13.4021 213 14.6739 213 16ZM223 8V24C223 24.2652 222.895 24.5196 222.707 24.7071C222.52 24.8946 222.265 25 222 25H194C193.735 25 193.48 24.8946 193.293 24.7071C193.105 24.5196 193 24.2652 193 24V8C193 7.73478 193.105 7.48043 193.293 7.29289C193.48 7.10536 193.735 7 194 7H222C222.265 7 222.52 7.10536 222.707 7.29289C222.895 7.48043 223 7.73478 223 8ZM221 13.7937C219.865 13.458 218.831 12.8435 217.994 12.0062C217.156 11.1689 216.542 10.1355 216.206 9H199.794C199.458 10.1355 198.844 11.1689 198.006 12.0062C197.169 12.8435 196.135 13.458 195 13.7937V18.2062C196.135 18.542 197.169 19.1565 198.006 19.9938C198.844 20.8311 199.458 21.8645 199.794 23H216.206C216.542 21.8645 217.156 20.8311 217.994 19.9938C218.831 19.1565 219.865 18.542 221 18.2062V13.7937Z" fill="currentColor"/>
<path opacity="0.2" d="M260 16C260 16.7911 259.765 17.5645 259.326 18.2223C258.886 18.8801 258.262 19.3928 257.531 19.6955C256.8 19.9983 255.996 20.0775 255.22 19.9231C254.444 19.7688 253.731 19.3878 253.172 18.8284C252.612 18.269 252.231 17.5563 252.077 16.7804C251.923 16.0044 252.002 15.2002 252.304 14.4693C252.607 13.7384 253.12 13.1136 253.778 12.6741C254.436 12.2346 255.209 12 256 12C257.061 12 258.078 12.4214 258.828 13.1716C259.579 13.9217 260 14.9391 260 16ZM265 8C265.212 9.24915 265.807 10.4015 266.703 11.2974C267.598 12.1933 268.751 12.7883 270 13V8H265ZM265 24H270V19C268.751 19.2117 267.598 19.8067 266.703 20.7026C265.807 21.5985 265.212 22.7509 265 24ZM242 19V24H247C246.788 22.7509 246.193 21.5985 245.297 20.7026C244.402 19.8067 243.249 19.2117 242 19ZM242 13C243.249 12.7883 244.402 12.1933 245.297 11.2974C246.193 10.4015 246.788 9.24915 247 8H242V13Z" fill="currentColor"/>
<path d="M256 11C255.011 11 254.044 11.2932 253.222 11.8427C252.4 12.3921 251.759 13.173 251.381 14.0866C251.002 15.0002 250.903 16.0055 251.096 16.9755C251.289 17.9454 251.765 18.8363 252.464 19.5355C253.164 20.2348 254.055 20.711 255.025 20.9039C255.994 21.0969 257 20.9978 257.913 20.6194C258.827 20.241 259.608 19.6001 260.157 18.7779C260.707 17.9556 261 16.9889 261 16C261 14.6739 260.473 13.4021 259.536 12.4645C258.598 11.5268 257.326 11 256 11ZM256 19C255.407 19 254.827 18.8241 254.333 18.4944C253.84 18.1648 253.455 17.6962 253.228 17.1481C253.001 16.5999 252.942 15.9967 253.058 15.4147C253.173 14.8328 253.459 14.2982 253.879 13.8787C254.298 13.4591 254.833 13.1734 255.415 13.0576C255.997 12.9419 256.6 13.0013 257.148 13.2284C257.696 13.4554 258.165 13.8399 258.494 14.3333C258.824 14.8266 259 15.4067 259 16C259 16.7956 258.684 17.5587 258.121 18.1213C257.559 18.6839 256.796 19 256 19ZM270 7H242C241.735 7 241.48 7.10536 241.293 7.29289C241.105 7.48043 241 7.73478 241 8V24C241 24.2652 241.105 24.5196 241.293 24.7071C241.48 24.8946 241.735 25 242 25H270C270.265 25 270.52 24.8946 270.707 24.7071C270.895 24.5196 271 24.2652 271 24V8C271 7.73478 270.895 7.48043 270.707 7.29289C270.52 7.10536 270.265 7 270 7ZM243 9H245.671C245.155 10.1995 244.199 11.1555 243 11.6713V9ZM243 23V20.3288C244.199 20.8445 245.155 21.8005 245.671 23H243ZM269 23H266.329C266.845 21.8005 267.801 20.8445 269 20.3288V23ZM269 18.2062C267.865 18.542 266.831 19.1565 265.994 19.9938C265.156 20.8311 264.542 21.8645 264.206 23H247.794C247.458 21.8645 246.844 20.8311 246.006 19.9938C245.169 19.1565 244.135 18.542 243 18.2062V13.7937C244.135 13.458 245.169 12.8435 246.006 12.0062C246.844 11.1689 247.458 10.1355 247.794 9H264.206C264.542 10.1355 265.156 11.1689 265.994 12.0062C266.831 12.8435 267.865 13.458 269 13.7937V18.2062ZM269 11.6713C267.801 11.1555 266.845 10.1995 266.329 9H269V11.6713Z" fill="currentColor"/>
</g>
<defs>
<clipPath id="clip0_17_7767">
<rect width="272" height="32" rx="5" fill="white"/>
</clipPath>
</defs>
</svg>
