<svg width="272" height="32" viewBox="0 0 272 32" fill="none" xmlns="http://www.w3.org/2000/svg">
<g clip-path="url(#clip0_17_7753)">
<path d="M23.7075 8.29247C23.8005 8.38534 23.8742 8.49563 23.9245 8.61703C23.9749 8.73843 24.0008 8.86855 24.0008 8.99997C24.0008 9.13139 23.9749 9.26151 23.9245 9.38291C23.8742 9.50431 23.8005 9.6146 23.7075 9.70747L21.7075 11.7075C21.5198 11.8951 21.2653 12.0005 21 12.0005C20.7346 12.0005 20.4801 11.8951 20.2925 11.7075C20.1048 11.5198 19.9994 11.2653 19.9994 11C19.9994 10.7346 20.1048 10.4801 20.2925 10.2925L22.2925 8.29247C22.3853 8.19949 22.4956 8.12573 22.617 8.07541C22.7384 8.02509 22.8686 7.99918 23 7.99918C23.1314 7.99918 23.2615 8.02509 23.3829 8.07541C23.5043 8.12573 23.6146 8.19949 23.7075 8.29247ZM28 8.99997C28.0018 9.65682 27.8733 10.3075 27.6218 10.9143C27.3703 11.5211 27.0009 12.072 26.535 12.535L23.535 15.535C23.3889 15.6812 23.2011 15.7786 22.9975 15.8137C16.5612 16.9187 5.81498 27.5987 5.70748 27.7075C5.51984 27.8949 5.26541 28.0002 5.00016 28.0001C4.73491 28 4.48058 27.8945 4.2931 27.7068C4.10563 27.5192 4.00037 27.2648 4.00049 26.9995C4.00061 26.7343 4.10609 26.4799 4.29373 26.2925C4.49998 26.0912 15.0862 15.41 16.1862 8.99997C16.2214 8.7963 16.3187 8.60853 16.465 8.46247L19.465 5.46247C20.1644 4.76327 21.0554 4.28719 22.0254 4.09443C22.9954 3.90167 24.0008 4.0009 24.9144 4.37956C25.828 4.75822 26.6088 5.3993 27.158 6.22174C27.7073 7.04417 28.0003 8.01101 28 8.99997ZM26 8.99997C26.0014 8.40555 25.8263 7.8241 25.4967 7.3294C25.1672 6.8347 24.6981 6.44904 24.149 6.22137C23.5999 5.9937 22.9956 5.93428 22.4127 6.05064C21.8298 6.16701 21.2946 6.45392 20.875 6.87497L18.0962 9.66122C17.545 12.305 15.7337 15.435 13.66 18.34C16.565 16.2662 19.695 14.455 22.3387 13.9037L25.125 11.125C25.4042 10.8463 25.6253 10.5149 25.7755 10.1502C25.9257 9.7854 26.002 9.39445 26 8.99997Z" fill="currentColor"/>
<path d="M71.3537 8.64631C71.4002 8.69275 71.437 8.7479 71.4622 8.80859C71.4874 8.86929 71.5003 8.93436 71.5003 9.00006C71.5003 9.06577 71.4874 9.13084 71.4622 9.19153C71.437 9.25223 71.4002 9.30738 71.3537 9.35381L69.3537 11.3538C69.2599 11.4476 69.1326 11.5003 68.9999 11.5003C68.8672 11.5003 68.74 11.4476 68.6462 11.3538C68.5524 11.26 68.4996 11.1327 68.4996 11.0001C68.4996 10.8674 68.5524 10.7401 68.6462 10.6463L70.6462 8.64631C70.6926 8.59983 70.7478 8.56295 70.8085 8.53778C70.8692 8.51262 70.9342 8.49967 70.9999 8.49967C71.0656 8.49967 71.1307 8.51262 71.1914 8.53778C71.2521 8.56295 71.3072 8.59983 71.3537 8.64631ZM75.4999 9.00006C75.5017 9.59131 75.3862 10.177 75.16 10.7233C74.9339 11.2696 74.6016 11.7656 74.1824 12.1826L71.1824 15.1826C71.1087 15.2553 71.0145 15.3038 70.9124 15.3213C68.2062 15.7863 64.3199 18.0038 59.6737 21.7376C56.1312 24.5838 53.3812 27.3263 53.3537 27.3538L53.3237 27.3813C53.2255 27.4669 53.0979 27.5108 52.9679 27.5037C52.8378 27.4966 52.7157 27.439 52.6275 27.3433C52.5392 27.2476 52.4918 27.1212 52.4953 26.991C52.4988 26.8608 52.5529 26.7372 52.6462 26.6463C52.6737 26.6251 55.4162 23.8751 58.2624 20.3263C61.9999 15.6801 64.2137 11.7938 64.6787 9.08756C64.6962 8.98549 64.7446 8.89125 64.8174 8.81756L67.8174 5.81756C68.4468 5.18802 69.2487 4.75927 70.1217 4.58555C70.9948 4.41183 71.8997 4.50095 72.7221 4.84163C73.5445 5.18231 74.2474 5.75924 74.7419 6.49945C75.2363 7.23967 75.5001 8.1099 75.4999 9.00006ZM74.4999 9.00006C74.5 8.30779 74.2947 7.63106 73.9101 7.05544C73.5256 6.47982 72.9789 6.03118 72.3393 5.76625C71.6998 5.50132 70.996 5.43201 70.317 5.56708C69.6381 5.70215 69.0144 6.03553 68.5249 6.52506L65.6349 9.41506C64.9687 12.9151 61.9499 17.3426 59.0712 20.9288C62.6574 18.0538 67.0912 15.0313 70.5849 14.3638L73.4749 11.4751C73.801 11.1508 74.0595 10.7651 74.2354 10.3403C74.4114 9.91542 74.5013 9.4599 74.4999 9.00006Z" fill="currentColor"/>
<path d="M119.53 8.46999C119.671 8.61061 119.749 8.80124 119.749 8.99999C119.749 9.19874 119.671 9.38936 119.53 9.52999L117.53 11.53C117.388 11.6625 117.2 11.7346 117.006 11.7312C116.811 11.7277 116.626 11.649 116.488 11.5116C116.351 11.3742 116.272 11.1888 116.269 10.9945C116.265 10.8002 116.338 10.6122 116.47 10.47L118.47 8.46999C118.611 8.32954 118.801 8.25065 119 8.25065C119.199 8.25065 119.389 8.32954 119.53 8.46999ZM123.75 8.99999C123.752 9.62403 123.63 10.2422 123.391 10.8188C123.152 11.3953 122.801 11.9187 122.359 12.3587L119.359 15.3587C119.249 15.4684 119.108 15.5413 118.955 15.5675C112.438 16.6925 101.639 27.4225 101.53 27.53C101.465 27.5961 101.388 27.6492 101.303 27.6862C101.207 27.7279 101.104 27.7495 101 27.75C100.852 27.7499 100.707 27.7058 100.584 27.6234C100.461 27.541 100.364 27.4239 100.308 27.2869C100.251 27.15 100.236 26.9993 100.265 26.8539C100.294 26.7085 100.365 26.5749 100.47 26.47C100.645 26.2937 111.318 15.54 112.431 9.04624C112.457 8.8933 112.53 8.75224 112.64 8.64249L115.64 5.64249C116.304 4.97784 117.151 4.5251 118.072 4.34153C118.994 4.15796 119.949 4.25182 120.817 4.61124C121.685 4.97065 122.427 5.57946 122.949 6.36067C123.471 7.14188 123.75 8.06038 123.75 8.99999ZM122.25 8.99999C122.25 8.35737 122.059 7.72925 121.702 7.19501C121.345 6.66077 120.837 6.24439 120.244 5.99851C119.65 5.75262 118.997 5.68826 118.366 5.81356C117.736 5.93887 117.157 6.24821 116.703 6.70249L113.866 9.53749C113.349 12.1362 111.539 15.4887 108.475 19.525C112.511 16.4612 115.864 14.65 118.463 14.1337L121.298 11.2975C121.601 10.9967 121.841 10.6387 122.004 10.2443C122.168 9.84989 122.251 9.42694 122.25 8.99999Z" fill="currentColor"/>
<path d="M170.889 5.11106C169.857 4.07982 168.459 3.50049 167 3.50049C165.541 3.50049 164.143 4.07982 163.111 5.11106L160.111 8.11106C159.891 8.32964 159.745 8.61157 159.694 8.91731C158.8 14.1248 150.914 22.9623 147.944 25.9348C147.662 26.2166 147.504 26.5988 147.504 26.9973C147.504 27.3958 147.662 27.778 147.944 28.0598C148.226 28.3416 148.608 28.4999 149.006 28.4999C149.405 28.4999 149.787 28.3416 150.069 28.0598C153.038 25.0936 161.88 17.1998 167.091 16.3098C167.397 16.2573 167.678 16.1114 167.898 15.8923L170.898 12.8923C171.929 11.8609 172.508 10.4621 172.508 9.00356C172.508 7.54504 171.929 6.14624 170.898 5.11481L170.889 5.11106ZM168.764 10.7673L166.086 13.4461C164.23 13.8598 162.036 14.8723 159.528 16.4686C161.124 13.9598 162.136 11.7661 162.55 9.90981L165.229 7.23231C165.459 6.99354 165.735 6.80308 166.04 6.67206C166.345 6.54104 166.673 6.47207 167.005 6.46919C167.337 6.4663 167.666 6.52956 167.974 6.65526C168.281 6.78096 168.56 6.96659 168.795 7.20133C169.029 7.43606 169.215 7.71519 169.341 8.02243C169.467 8.32967 169.53 8.65887 169.527 8.99082C169.524 9.32277 169.455 9.65082 169.324 9.95582C169.193 10.2608 169.003 10.5367 168.764 10.7673Z" fill="currentColor"/>
<path d="M218.535 5.46491C217.597 4.52755 216.326 4.00098 215 4.00098C213.674 4.00098 212.403 4.52755 211.465 5.46491L208.465 8.46491C208.319 8.61097 208.221 8.79874 208.186 9.00241C207.086 15.4099 196.5 26.0912 196.295 26.2912C196.107 26.4786 196.002 26.733 196.002 26.9982C196.002 27.2635 196.107 27.5179 196.294 27.7055C196.482 27.8932 196.736 27.9987 197.001 27.9988C197.267 27.9989 197.521 27.8936 197.709 27.7062C197.816 27.5974 208.562 16.9174 214.999 15.8124C215.202 15.7773 215.39 15.6799 215.536 15.5337L218.536 12.5337C219.474 11.596 220 10.3245 220 8.99866C220 7.67284 219.474 6.4013 218.536 5.46366L218.535 5.46491ZM215.707 9.70741L213.707 11.7074C213.52 11.8951 213.265 12.0005 213 12.0005C212.735 12.0005 212.48 11.8951 212.292 11.7074C212.105 11.5198 211.999 11.2653 211.999 10.9999C211.999 10.7345 212.105 10.48 212.292 10.2924L214.292 8.29241C214.48 8.10477 214.735 7.99935 215 7.99935C215.265 7.99935 215.52 8.10477 215.707 8.29241C215.895 8.48005 216.001 8.73454 216.001 8.99991C216.001 9.26527 215.895 9.51977 215.707 9.70741Z" fill="currentColor"/>
<path opacity="0.2" d="M265.829 11.8287L262.829 14.8287C256 16 245 27 245 27C245 27 256 16 257.171 9.17122L260.171 6.17122C260.921 5.42099 261.939 4.99951 263 4.99951C264.061 4.99951 265.079 5.42099 265.829 6.17122C266.579 6.92145 267 7.93898 267 8.99997C267 10.061 266.579 11.0785 265.829 11.8287Z" fill="currentColor"/>
<path d="M263.707 8.29247C263.8 8.38534 263.874 8.49563 263.925 8.61703C263.975 8.73843 264.001 8.86855 264.001 8.99997C264.001 9.13139 263.975 9.26151 263.925 9.38291C263.874 9.50431 263.8 9.6146 263.707 9.70747L261.707 11.7075C261.52 11.8951 261.265 12.0005 261 12.0005C260.735 12.0005 260.48 11.8951 260.292 11.7075C260.105 11.5198 259.999 11.2653 259.999 11C259.999 10.7346 260.105 10.4801 260.292 10.2925L262.292 8.29247C262.385 8.19949 262.496 8.12573 262.617 8.07541C262.738 8.02509 262.869 7.99918 263 7.99918C263.131 7.99918 263.262 8.02509 263.383 8.07541C263.504 8.12573 263.615 8.19949 263.707 8.29247ZM268 8.99997C268.002 9.65682 267.873 10.3075 267.622 10.9143C267.37 11.5211 267.001 12.072 266.535 12.535L263.535 15.535C263.389 15.6812 263.201 15.7786 262.997 15.8137C256.561 16.9187 245.815 27.5987 245.707 27.7075C245.52 27.8949 245.265 28.0002 245 28.0001C244.735 28 244.481 27.8945 244.293 27.7068C244.106 27.5192 244 27.2648 244 26.9995C244.001 26.7343 244.106 26.4799 244.294 26.2925C244.5 26.0912 255.086 15.41 256.186 8.99997C256.221 8.7963 256.319 8.60853 256.465 8.46247L259.465 5.46247C260.164 4.76327 261.055 4.28719 262.025 4.09443C262.995 3.90167 264.001 4.0009 264.914 4.37956C265.828 4.75822 266.609 5.3993 267.158 6.22174C267.707 7.04417 268 8.01101 268 8.99997ZM266 8.99997C266.001 8.40555 265.826 7.8241 265.497 7.3294C265.167 6.8347 264.698 6.44904 264.149 6.22137C263.6 5.9937 262.996 5.93428 262.413 6.05064C261.83 6.16701 261.295 6.45392 260.875 6.87497L258.096 9.66122C257.545 12.305 255.734 15.435 253.66 18.34C256.565 16.2662 259.695 14.455 262.339 13.9037L265.125 11.125C265.404 10.8463 265.625 10.5149 265.775 10.1502C265.926 9.7854 266.002 9.39445 266 8.99997Z" fill="currentColor"/>
</g>
<defs>
<clipPath id="clip0_17_7753">
<rect width="272" height="32" rx="5" fill="white"/>
</clipPath>
</defs>
</svg>
