<svg width="272" height="32" viewBox="0 0 272 32" fill="none" xmlns="http://www.w3.org/2000/svg">
<g clip-path="url(#clip0_17_7697)">
<path d="M27.985 26.75L25.235 4.75C25.174 4.26657 24.9388 3.822 24.5733 3.49977C24.2078 3.17755 23.7372 2.99983 23.25 3H8.74995C8.2627 2.99983 7.79215 3.17755 7.42665 3.49977C7.06115 3.822 6.82586 4.26657 6.76495 4.75L4.01495 26.75C3.97948 27.0316 4.00434 27.3175 4.08788 27.5887C4.17142 27.86 4.31174 28.1103 4.49949 28.3231C4.68725 28.536 4.91816 28.7064 5.17686 28.8231C5.43557 28.9398 5.71615 29.0001 5.99995 29H11.0862C11.531 29.0001 11.9631 28.8519 12.3142 28.5789C12.6653 28.3059 12.9154 27.9236 13.025 27.4925L16 15.9925L18.9737 27.485C19.0819 27.9177 19.3315 28.3018 19.683 28.5763C20.0345 28.8508 20.4677 28.9999 20.9137 29H26C26.2838 29.0001 26.5643 28.9398 26.823 28.8231C27.0818 28.7064 27.3127 28.536 27.5004 28.3231C27.6882 28.1103 27.8285 27.86 27.912 27.5887C27.9956 27.3175 28.0204 27.0316 27.985 26.75ZM24.1125 11.9C23.397 11.7358 22.7403 11.3786 22.2136 10.8674C21.6869 10.3561 21.3104 9.71024 21.125 9H23.75L24.1125 11.9ZM23.25 5L23.5 7H8.49995L8.74995 5H23.25ZM8.24995 9H10.875C10.6895 9.71024 10.313 10.3561 9.78634 10.8674C9.25964 11.3786 8.60289 11.7358 7.88745 11.9L8.24995 9ZM11.0862 27H5.99995L7.62495 13.9663C8.92742 13.828 10.1491 13.268 11.104 12.3715C12.0589 11.475 12.6948 10.2912 12.915 9H15V11.875L11.0862 27ZM20.9112 26.9925L17 11.875V9H19.085C19.3051 10.2912 19.941 11.475 20.8959 12.3715C21.8509 13.268 23.0725 13.828 24.375 13.9663L26 27L20.9112 26.9925Z" fill="currentColor"/>
<path d="M75.4889 26.8137L72.7389 4.81375C72.6935 4.45095 72.5171 4.11722 72.243 3.8753C71.9688 3.63337 71.6157 3.49991 71.2501 3.5H56.7501C56.3845 3.49991 56.0314 3.63337 55.7573 3.8753C55.4831 4.11722 55.3068 4.45095 55.2614 4.81375L52.5114 26.8137C52.4849 27.0248 52.5037 27.2391 52.5665 27.4424C52.6292 27.6457 52.7345 27.8333 52.8753 27.9928C53.0161 28.1522 53.1892 28.2799 53.3831 28.3674C53.5771 28.4548 53.7874 28.5001 54.0001 28.5H59.0864C59.4204 28.5002 59.7448 28.3888 60.0084 28.1837C60.272 27.9786 60.4595 27.6913 60.5414 27.3675L64.0001 14L67.4589 27.3675C67.5407 27.6913 67.7283 27.9786 67.9918 28.1837C68.2554 28.3888 68.5799 28.5002 68.9139 28.5H74.0001C74.2129 28.5001 74.4232 28.4548 74.6171 28.3674C74.811 28.2799 74.9841 28.1522 75.1249 27.9928C75.2657 27.8333 75.371 27.6457 75.4337 27.4424C75.4965 27.2391 75.5153 27.0248 75.4889 26.8137ZM72.6901 12.4875C71.6395 12.4148 70.6477 11.9759 69.8874 11.2473C69.127 10.5187 68.6463 9.54652 68.5289 8.5H72.1914L72.6901 12.4875ZM56.7501 4.5H71.2501C71.3726 4.49904 71.4911 4.54305 71.5833 4.6237C71.6754 4.70434 71.7348 4.816 71.7501 4.9375L72.0664 7.5H55.9339L56.2501 4.9375C56.2654 4.816 56.3248 4.70434 56.4169 4.6237C56.5091 4.54305 56.6277 4.49904 56.7501 4.5ZM55.8089 8.5H59.4714C59.3539 9.54652 58.8732 10.5187 58.1129 11.2473C57.3525 11.9759 56.3607 12.4148 55.3101 12.4875L55.8089 8.5ZM59.5714 27.125C59.5436 27.2325 59.4809 27.3277 59.3931 27.3956C59.3053 27.4634 59.1974 27.5002 59.0864 27.5H54.0001C53.9288 27.5006 53.8583 27.4859 53.7932 27.4569C53.728 27.428 53.6698 27.3855 53.6225 27.3322C53.5751 27.2789 53.5397 27.2162 53.5186 27.1481C53.4975 27.08 53.4912 27.0082 53.5001 26.9375L55.1839 13.5C56.5235 13.4536 57.8001 12.9201 58.7745 11.9996C59.7488 11.0791 60.3539 9.8348 60.4764 8.5H63.5001V11.9362L59.5714 27.125ZM74.3751 27.3312C74.3281 27.3844 74.2704 27.4269 74.2058 27.456C74.1411 27.4851 74.071 27.5001 74.0001 27.5H68.9139C68.8016 27.5001 68.6927 27.4624 68.6045 27.393C68.5163 27.3236 68.454 27.2266 68.4276 27.1175L64.5001 11.9362V8.5H67.5239C67.6463 9.8348 68.2514 11.0791 69.2258 11.9996C70.2001 12.9201 71.4768 13.4536 72.8164 13.5L74.5001 26.9375C74.5085 27.0082 74.5017 27.08 74.4802 27.1479C74.4586 27.2158 74.4228 27.2783 74.3751 27.3312Z" fill="currentColor"/>
<path d="M123.736 26.7825L120.986 4.7825C120.933 4.35938 120.728 3.97017 120.408 3.68798C120.088 3.40579 119.676 3.25004 119.25 3.25H104.75C104.324 3.25004 103.912 3.40579 103.592 3.68798C103.272 3.97017 103.067 4.35938 103.014 4.7825L100.264 26.7825C100.233 27.0287 100.255 27.2787 100.328 27.5159C100.401 27.753 100.524 27.9719 100.688 28.1579C100.852 28.344 101.054 28.493 101.28 28.5951C101.507 28.6972 101.752 28.75 102 28.75H107.086C107.476 28.75 107.854 28.6202 108.161 28.3811C108.468 28.142 108.687 27.8073 108.783 27.43L112 15L115.216 27.43C115.312 27.8076 115.531 28.1424 115.838 28.3815C116.146 28.6206 116.524 28.7503 116.914 28.75H122C122.248 28.75 122.494 28.6972 122.72 28.5951C122.946 28.493 123.148 28.344 123.312 28.1579C123.476 27.9719 123.599 27.753 123.672 27.5159C123.745 27.2787 123.767 27.0287 123.736 26.7825ZM120.403 12.2075C119.518 12.0804 118.695 11.678 118.052 11.0575C117.409 10.4369 116.977 9.62964 116.818 8.75H119.971L120.403 12.2075ZM104.75 4.75H119.25C119.311 4.74952 119.371 4.77153 119.417 4.81185C119.463 4.85217 119.492 4.908 119.5 4.96875L119.784 7.25H104.216L104.5 4.96875C104.508 4.908 104.537 4.85217 104.583 4.81185C104.63 4.77153 104.689 4.74952 104.75 4.75ZM104.029 8.75H107.183C107.023 9.62964 106.592 10.4369 105.948 11.0575C105.305 11.678 104.482 12.0804 103.598 12.2075L104.029 8.75ZM107.329 27.0613C107.315 27.1152 107.284 27.1631 107.24 27.1973C107.196 27.2315 107.142 27.25 107.086 27.25H102C101.964 27.2503 101.929 27.2429 101.897 27.2285C101.864 27.214 101.835 27.1927 101.811 27.1661C101.788 27.1395 101.77 27.1081 101.759 27.074C101.749 27.04 101.746 27.0041 101.75 26.9688L103.406 13.7338C104.727 13.6384 105.975 13.0907 106.939 12.1829C107.903 11.2751 108.525 10.0627 108.7 8.75H111.25V11.905L107.329 27.0613ZM122.188 27.165C122.164 27.1917 122.135 27.213 122.103 27.2277C122.071 27.2424 122.036 27.25 122 27.25H116.914C116.857 27.25 116.802 27.2307 116.758 27.1952C116.713 27.1598 116.683 27.1103 116.67 27.055L112.75 11.905V8.75H115.3C115.475 10.0627 116.097 11.2751 117.061 12.1829C118.025 13.0907 119.273 13.6384 120.594 13.7338L122.25 26.9688C122.254 27.004 122.251 27.0398 122.24 27.0736C122.229 27.1074 122.211 27.1386 122.188 27.165Z" fill="currentColor"/>
<path d="M172.481 26.69L169.731 4.69C169.656 4.08526 169.362 3.52895 168.905 3.12565C168.448 2.72236 167.86 2.49987 167.25 2.5H152.75C152.141 2.49987 151.552 2.72236 151.095 3.12565C150.638 3.52895 150.344 4.08526 150.269 4.69L147.519 26.69C147.475 27.0418 147.506 27.3989 147.611 27.7376C147.715 28.0764 147.891 28.389 148.126 28.6547C148.36 28.9205 148.649 29.1333 148.972 29.279C149.295 29.4248 149.646 29.5001 150 29.5H155.086C155.641 29.5017 156.181 29.3182 156.62 28.9786C157.058 28.6389 157.371 28.1626 157.509 27.625L160 18L162.489 27.6175C162.626 28.1563 162.939 28.6339 163.378 28.9748C163.818 29.3157 164.358 29.5005 164.914 29.5H170C170.355 29.5001 170.705 29.4248 171.028 29.279C171.351 29.1333 171.64 28.9205 171.875 28.6547C172.109 28.389 172.285 28.0764 172.389 27.7376C172.494 27.3989 172.525 27.0418 172.481 26.69ZM167.75 13.0288C167.292 12.7638 166.9 12.3987 166.603 11.9608C166.307 11.5229 166.113 11.0235 166.036 10.5H167.434L167.75 13.0288ZM166.809 5.5L167.059 7.5H152.941L153.191 5.5H166.809ZM152.566 10.5H153.964C153.888 11.0234 153.694 11.5227 153.397 11.9605C153.1 12.3983 152.708 12.7631 152.25 13.0275L152.566 10.5ZM154.7 26.5H150.566L151.834 16.3612C153.209 16.0704 154.453 15.3424 155.381 14.2859C156.308 13.2295 156.869 11.9014 156.979 10.5H158.5V11.8088L154.7 26.5ZM165.301 26.5L161.5 11.8088V10.5H163.021C163.132 11.9012 163.692 13.2292 164.62 14.2854C165.547 15.3416 166.791 16.0694 168.166 16.36L169.434 26.5H165.301Z" fill="currentColor"/>
<path d="M198.68 5.4375L198.765 4.75C198.826 4.26657 199.061 3.822 199.427 3.49977C199.792 3.17755 200.263 2.99983 200.75 3H215.25C215.737 2.99983 216.208 3.17755 216.573 3.49977C216.939 3.822 217.174 4.26657 217.235 4.75L217.32 5.43625C217.329 5.50696 217.323 5.57876 217.302 5.64683C217.28 5.71491 217.245 5.77768 217.198 5.83095C217.15 5.88422 217.092 5.92674 217.027 5.95569C216.962 5.98463 216.891 5.99931 216.82 5.99875H199.176C199.105 5.99875 199.035 5.9837 198.971 5.9546C198.906 5.9255 198.849 5.88301 198.802 5.82995C198.755 5.77688 198.72 5.71445 198.699 5.6468C198.678 5.57914 198.671 5.5078 198.68 5.4375ZM213.125 8C213.348 8.85832 213.849 9.61845 214.551 10.1613C215.252 10.7042 216.113 10.9992 217 11H217.449C217.52 11.0006 217.591 10.9859 217.656 10.9569C217.721 10.928 217.779 10.8855 217.826 10.8322C217.874 10.7789 217.909 10.7162 217.93 10.6481C217.951 10.58 217.958 10.5082 217.949 10.4375L217.699 8.4375C217.684 8.316 217.624 8.20434 217.532 8.1237C217.44 8.04305 217.321 7.99904 217.199 8H213.125ZM198.551 11H199C199.887 10.9992 200.748 10.7042 201.45 10.1613C202.151 9.61845 202.652 8.85832 202.875 8H198.801C198.679 7.99904 198.56 8.04305 198.468 8.1237C198.376 8.20434 198.317 8.316 198.301 8.4375L198.051 10.4375C198.042 10.5082 198.049 10.58 198.07 10.6481C198.091 10.7162 198.126 10.7789 198.174 10.8322C198.221 10.8855 198.279 10.928 198.344 10.9569C198.409 10.9859 198.48 11.0006 198.551 11ZM219.985 26.75L218.32 13.4375C218.305 13.316 218.245 13.2043 218.153 13.1237C218.061 13.0431 217.943 12.999 217.82 13H217C215.583 12.998 214.212 12.4951 213.13 11.5802C212.047 10.6652 211.323 9.39715 211.085 8H209V12.9663C209.003 13.2242 208.909 13.4739 208.736 13.6651C208.562 13.8564 208.323 13.9751 208.066 13.9975C207.93 14.0066 207.792 13.9874 207.663 13.9413C207.534 13.8951 207.416 13.8229 207.316 13.7291C207.216 13.6353 207.136 13.522 207.082 13.3961C207.028 13.2703 207 13.1346 207 12.9975V8H204.915C204.677 9.39715 203.953 10.6652 202.871 11.5802C201.788 12.4951 200.417 12.998 199 13H198.176C198.054 12.999 197.935 13.0431 197.843 13.1237C197.751 13.2043 197.692 13.316 197.676 13.4375L196.015 26.75C195.97 27.111 196.024 27.4773 196.172 27.8097C196.32 28.1421 196.556 28.4278 196.854 28.6362C197.205 28.8777 197.623 29.0047 198.049 29H203.086C203.531 29.0001 203.963 28.8519 204.314 28.5789C204.665 28.3059 204.916 27.9236 205.025 27.4925L208 15.9925L210.974 27.485C211.082 27.9177 211.332 28.3018 211.683 28.5763C212.035 28.8508 212.468 28.9999 212.914 29H217.951C218.377 29.0056 218.795 28.8794 219.146 28.6388C219.445 28.4301 219.681 28.144 219.829 27.8111C219.976 27.4783 220.03 27.1114 219.985 26.75Z" fill="currentColor"/>
<path opacity="0.2" d="M265.256 13C265.171 13 265.086 13 265 13C263.674 13 262.402 12.4732 261.464 11.5355C260.527 10.5979 260 9.32608 260 8H252C252 8.65661 251.871 9.30679 251.619 9.91342C251.368 10.52 251 11.0712 250.536 11.5355C250.071 11.9998 249.52 12.3681 248.913 12.6194C248.307 12.8707 247.657 13 247 13C246.914 13 246.829 13 246.75 13L247.758 4.875C247.788 4.63328 247.906 4.411 248.088 4.24989C248.271 4.08877 248.506 3.99992 248.75 4H263.25C263.494 3.99992 263.729 4.08877 263.912 4.24989C264.094 4.411 264.212 4.63328 264.243 4.875L265.256 13Z" fill="currentColor"/>
<path d="M267.985 26.75L265.235 4.75C265.174 4.26657 264.939 3.822 264.573 3.49977C264.208 3.17755 263.737 2.99983 263.25 3H248.75C248.263 2.99983 247.792 3.17755 247.427 3.49977C247.061 3.822 246.826 4.26657 246.765 4.75L244.015 26.75C243.979 27.0316 244.004 27.3175 244.088 27.5887C244.171 27.86 244.312 28.1103 244.499 28.3231C244.687 28.536 244.918 28.7064 245.177 28.8231C245.436 28.9398 245.716 29.0001 246 29H251.086C251.531 29.0001 251.963 28.8519 252.314 28.5789C252.665 28.3059 252.915 27.9236 253.025 27.4925L256 15.9925L258.974 27.485C259.082 27.9177 259.332 28.3018 259.683 28.5763C260.035 28.8508 260.468 28.9999 260.914 29H266C266.284 29.0001 266.564 28.9398 266.823 28.8231C267.082 28.7064 267.313 28.536 267.5 28.3231C267.688 28.1103 267.828 27.86 267.912 27.5887C267.996 27.3175 268.02 27.0316 267.985 26.75ZM264.112 11.9C263.397 11.7358 262.74 11.3786 262.214 10.8674C261.687 10.3561 261.31 9.71024 261.125 9H263.75L264.112 11.9ZM263.25 5L263.5 7H248.5L248.75 5H263.25ZM248.25 9H250.875C250.69 9.71024 250.313 10.3561 249.786 10.8674C249.26 11.3786 248.603 11.7358 247.887 11.9L248.25 9ZM251.086 27H246L247.625 13.9663C248.927 13.828 250.149 13.268 251.104 12.3715C252.059 11.475 252.695 10.2912 252.915 9H255V11.875L251.086 27ZM260.911 26.9925L257 11.875V9H259.085C259.305 10.2912 259.941 11.475 260.896 12.3715C261.851 13.268 263.072 13.828 264.375 13.9663L266 27L260.911 26.9925Z" fill="currentColor"/>
</g>
<defs>
<clipPath id="clip0_17_7697">
<rect width="272" height="32" rx="5" fill="white"/>
</clipPath>
</defs>
</svg>
