<svg width="272" height="32" viewBox="0 0 272 32" fill="none" xmlns="http://www.w3.org/2000/svg">
<g clip-path="url(#clip0_17_7683)">
<path d="M20.9087 5.0525C20.6873 3.91264 20.0766 2.88517 19.1811 2.14592C18.2857 1.40667 17.1611 1.00159 16 1C15.7348 1 15.4804 1.10536 15.2929 1.29289C15.1053 1.48043 15 1.73478 15 2C15 2.26522 15.1053 2.51957 15.2929 2.70711C15.4804 2.89464 15.7348 3 16 3C16.6352 3 17.2541 3.20165 17.7674 3.5759C18.2807 3.95016 18.6619 4.47769 18.8562 5.0825C16.9533 5.35948 15.2136 6.31177 13.9548 7.76542C12.696 9.21907 12.0021 11.0771 12 13C12 18.8438 8.78123 22.75 2.43373 24.625C1.99954 24.7516 1.62107 25.0215 1.36008 25.3909C1.09908 25.7602 0.970962 26.2071 0.996635 26.6586C1.02231 27.1101 1.20025 27.5396 1.50143 27.877C1.80261 28.2144 2.20925 28.4397 2.65498 28.5163C4.53375 28.841 6.43708 29.0029 8.34373 29C13.4412 29 19.1137 27.8562 23.035 24.5675C26.33 21.805 28 17.9125 28 13C27.9979 11.0363 27.2744 9.14179 25.967 7.67655C24.6597 6.21131 22.8595 5.27747 20.9087 5.0525ZM20 7C21.2485 7.00166 22.4655 7.39219 23.4819 8.11733C24.4982 8.84247 25.2635 9.8662 25.6712 11.0463L24 11.875L20.4475 10.1038C20.3085 10.0342 20.1553 9.99803 20 9.99803C19.8446 9.99803 19.6914 10.0342 19.5525 10.1038L16 11.875L14.3287 11.04C14.7377 9.86121 15.5034 8.83894 16.5197 8.11502C17.5359 7.39109 18.7523 7.00139 20 7ZM21.75 23.0375C19.5 24.9212 16.3 26.195 12.485 26.7213C9.33238 27.1381 6.13505 27.0791 2.99998 26.5462C10.1537 24.4375 13.9537 19.7962 14 13.1187L15.555 13.8962C15.6939 13.9658 15.8471 14.002 16.0025 14.002C16.1578 14.002 16.311 13.9658 16.45 13.8962L20 12.1163L23.5525 13.8925C23.6914 13.962 23.8446 13.9982 24 13.9982C24.1553 13.9982 24.3085 13.962 24.4475 13.8925L25.9987 13.1175C25.9725 17.355 24.5437 20.6925 21.75 23.0362V23.0375Z" fill="currentColor"/>
<path d="M68.4737 5.5175C68.3531 4.41466 67.83 3.39504 67.0046 2.65379C66.1792 1.91254 65.1094 1.50173 64 1.5C63.8674 1.5 63.7402 1.55268 63.6464 1.64645C63.5526 1.74021 63.5 1.86739 63.5 2C63.5 2.13261 63.5526 2.25979 63.6464 2.35355C63.7402 2.44732 63.8674 2.5 64 2.5C64.8451 2.50021 65.6617 2.80623 66.2988 3.36157C66.936 3.9169 67.3506 4.68402 67.4662 5.52125C65.5754 5.65821 63.8064 6.50531 62.5143 7.89249C61.2222 9.27967 60.5026 11.1043 60.5 13C60.5 19.0938 57.1612 23.1675 50.575 25.1087C50.2485 25.2031 49.9638 25.4055 49.7674 25.6828C49.571 25.96 49.4746 26.2958 49.4939 26.635C49.5132 26.9743 49.6471 27.2969 49.8737 27.5501C50.1003 27.8033 50.4062 27.9721 50.7412 28.0287C52.5892 28.3467 54.4611 28.5044 56.3362 28.5C57.7923 28.5031 59.2469 28.4071 60.69 28.2125C64.8437 27.6388 68.215 26.2863 70.7137 24.19C73.89 21.5263 75.5 17.7612 75.5 13C75.4972 11.0939 74.7697 9.26024 73.465 7.87075C72.1602 6.48126 70.3758 5.63998 68.4737 5.5175ZM68 6.5C69.4279 6.50198 70.8156 6.97341 71.9493 7.84168C73.083 8.70994 73.8997 9.92688 74.2737 11.305L72 12.4425L68.2237 10.5538C68.1543 10.519 68.0776 10.5009 68 10.5009C67.9223 10.5009 67.8457 10.519 67.7762 10.5538L64 12.4425L61.7262 11.305C62.1002 9.92688 62.9169 8.70994 64.0506 7.84168C65.1843 6.97341 66.572 6.50198 68 6.5ZM70.0712 23.4237C66.8875 26.095 59.9612 28.645 50.9162 27.0487C50.803 27.0316 50.6991 26.9762 50.6218 26.8917C50.5446 26.8072 50.4987 26.6987 50.4918 26.5844C50.4849 26.4701 50.5175 26.3569 50.5841 26.2637C50.6506 26.1706 50.7471 26.1031 50.8575 26.0725C57.82 24.0175 61.5 19.5 61.5 13C61.5002 12.775 61.5119 12.5501 61.535 12.3263L63.7762 13.4513C63.8457 13.486 63.9223 13.5041 64 13.5041C64.0776 13.5041 64.1543 13.486 64.2237 13.4513L68 11.56L71.7762 13.4487C71.8457 13.4835 71.9223 13.5016 72 13.5016C72.0776 13.5016 72.1543 13.4835 72.2237 13.4487L74.465 12.3237C74.4881 12.5484 74.4998 12.7741 74.5 13C74.5 17.4525 73.01 20.9587 70.0712 23.4237Z" fill="currentColor"/>
<path d="M116.696 5.2825C116.523 4.16072 115.955 3.1378 115.093 2.39835C114.232 1.65889 113.135 1.25161 112 1.25C111.801 1.25 111.61 1.32902 111.47 1.46967C111.329 1.61032 111.25 1.80109 111.25 2C111.25 2.19891 111.329 2.38968 111.47 2.53033C111.61 2.67098 111.801 2.75 112 2.75C112.739 2.74996 113.457 3.00196 114.033 3.46442C114.61 3.92687 115.012 4.57215 115.173 5.29375C113.272 5.50006 111.515 6.40059 110.237 7.82269C108.96 9.24479 108.252 11.0884 108.25 13C108.25 18.9688 104.971 22.96 98.5001 24.8662C98.1201 24.9771 97.7889 25.2134 97.5606 25.5367C97.3322 25.86 97.2202 26.2512 97.2429 26.6463C97.2655 27.0415 97.4214 27.4173 97.6852 27.7124C97.9489 28.0076 98.3049 28.2045 98.6951 28.2712C100.563 28.5939 102.456 28.7541 104.351 28.75C109.396 28.75 115.005 27.625 118.875 24.375C122.11 21.6613 123.75 17.8337 123.75 13C123.748 11.0658 123.024 9.20211 121.719 7.7744C120.414 6.34669 118.623 5.45797 116.696 5.2825ZM116 6.75C117.338 6.75164 118.641 7.18195 119.716 7.97785C120.792 8.77374 121.585 9.89335 121.978 11.1725L120 12.16L116.335 10.3275C116.231 10.2756 116.116 10.2485 116 10.2485C115.884 10.2485 115.769 10.2756 115.665 10.3275L112 12.16L110.024 11.1713C110.417 9.89233 111.209 8.77292 112.284 7.97723C113.36 7.18153 114.662 6.75143 116 6.75ZM117.91 23.2275C114.769 25.8613 107.92 28.375 98.9588 26.7913C98.9009 26.7847 98.8475 26.757 98.809 26.7133C98.7704 26.6697 98.7494 26.6132 98.7501 26.555C98.7429 26.4985 98.7574 26.4413 98.7905 26.395C98.8236 26.3486 98.873 26.3165 98.9288 26.305C106.008 24.2163 109.75 19.615 109.75 13C109.75 12.905 109.75 12.8112 109.758 12.7175L111.665 13.6713C111.769 13.7232 111.884 13.7502 112 13.7502C112.116 13.7502 112.231 13.7232 112.335 13.6713L116 11.8363L119.665 13.6687C119.769 13.7207 119.884 13.7477 120 13.7477C120.116 13.7477 120.231 13.7207 120.335 13.6687L122.243 12.715C122.243 12.8088 122.25 12.9025 122.25 12.9975C122.25 17.375 120.79 20.8112 117.91 23.2262V23.2275Z" fill="currentColor"/>
<path d="M165.32 4.6025C165.01 3.42781 164.32 2.38864 163.358 1.64668C162.395 0.904723 161.215 0.501588 160 0.5C159.602 0.5 159.221 0.658035 158.939 0.93934C158.658 1.22064 158.5 1.60218 158.5 2C158.5 2.39782 158.658 2.77936 158.939 3.06066C159.221 3.34196 159.602 3.5 160 3.5C160.43 3.50064 160.852 3.6121 161.226 3.82361C161.601 4.03513 161.914 4.33956 162.136 4.7075C160.254 5.13305 158.572 6.1854 157.366 7.69206C156.161 9.19871 155.503 11.0703 155.5 13C155.5 15.7175 154.771 18.0175 153.335 19.8363C151.807 21.77 149.437 23.2212 146.292 24.1475C145.75 24.3057 145.277 24.643 144.951 25.1045C144.624 25.566 144.464 26.1245 144.496 26.6887C144.528 27.253 144.75 27.7898 145.126 28.2116C145.503 28.6334 146.011 28.9152 146.567 29.0112C148.471 29.3398 150.399 29.5034 152.33 29.5C157.531 29.5 163.33 28.3275 167.356 24.9525C170.77 22.09 172.5 18.0688 172.5 13C172.497 10.9751 171.773 9.01743 170.457 7.47839C169.141 5.93935 167.32 4.91972 165.32 4.6025ZM164 7.5C165.07 7.50027 166.117 7.81274 167.012 8.39912C167.907 8.9855 168.612 9.82032 169.04 10.8013L168 11.3225L164.671 9.6575C164.463 9.55322 164.233 9.49893 164 9.49893C163.767 9.49893 163.537 9.55322 163.329 9.6575L160 11.3225L158.96 10.8013C159.388 9.82032 160.093 8.9855 160.988 8.39912C161.883 7.81274 162.93 7.50027 164 7.5ZM165.429 22.6537C163.254 24.4775 160.137 25.7125 156.416 26.2262C154.003 26.5451 151.562 26.5825 149.14 26.3375C154.975 24.0238 158.175 19.77 158.475 13.9137L159.329 14.3413C159.537 14.4449 159.767 14.4988 160 14.4988C160.233 14.4988 160.463 14.4449 160.671 14.3413L164 12.6763L167.329 14.3413C167.537 14.4449 167.767 14.4988 168 14.4988C168.233 14.4988 168.463 14.4449 168.671 14.3413L169.475 13.9388C169.28 17.6338 167.922 20.5625 165.429 22.6537Z" fill="currentColor"/>
<path d="M212.909 5.0525C212.687 3.91264 212.077 2.88517 211.181 2.14592C210.286 1.40667 209.161 1.00159 208 1C207.735 1 207.48 1.10536 207.293 1.29289C207.105 1.48043 207 1.73478 207 2C207 2.26522 207.105 2.51957 207.293 2.70711C207.48 2.89464 207.735 3 208 3C208.635 3 209.254 3.20165 209.767 3.5759C210.281 3.95016 210.662 4.47769 210.856 5.0825C208.953 5.35948 207.214 6.31177 205.955 7.76542C204.696 9.21907 204.002 11.0771 204 13C204 18.8438 200.781 22.75 194.434 24.625C194 24.7516 193.621 25.0215 193.36 25.3909C193.099 25.7602 192.971 26.2071 192.997 26.6586C193.022 27.1101 193.2 27.5396 193.501 27.877C193.803 28.2144 194.209 28.4397 194.655 28.5163C196.534 28.841 198.437 29.0029 200.344 29C205.441 29 211.114 27.8562 215.035 24.5675C218.33 21.805 220 17.9125 220 13C219.998 11.0363 219.274 9.14179 217.967 7.67655C216.66 6.21131 214.86 5.27747 212.909 5.0525ZM216 11.875L212.447 10.1038C212.309 10.0342 212.155 9.99803 212 9.99803C211.845 9.99803 211.691 10.0342 211.552 10.1038L208 11.875L206.329 11.04C206.736 9.86018 207.502 8.83682 208.518 8.11246C209.535 7.3881 210.752 6.99881 212 6.99881C213.248 6.99881 214.465 7.3881 215.482 8.11246C216.498 8.83682 217.264 9.86018 217.671 11.04L216 11.875Z" fill="currentColor"/>
<path opacity="0.2" d="M266.854 11.5727L264 13.0002L260 11.0002L256 13.0002L253.146 11.5727C253.473 9.99694 254.334 8.58209 255.582 7.56636C256.83 6.55064 258.391 5.99609 260 5.99609C261.609 5.99609 263.17 6.55064 264.418 7.56636C265.666 8.58209 266.526 9.99694 266.854 11.5727Z" fill="currentColor"/>
<path d="M260.909 5.0525C260.687 3.91264 260.077 2.88517 259.181 2.14592C258.286 1.40667 257.161 1.00159 256 1C255.735 1 255.48 1.10536 255.293 1.29289C255.105 1.48043 255 1.73478 255 2C255 2.26522 255.105 2.51957 255.293 2.70711C255.48 2.89464 255.735 3 256 3C256.635 3 257.254 3.20165 257.767 3.5759C258.281 3.95016 258.662 4.47769 258.856 5.0825C256.953 5.35948 255.214 6.31177 253.955 7.76542C252.696 9.21907 252.002 11.0771 252 13C252 18.8438 248.781 22.75 242.434 24.625C242 24.7516 241.621 25.0215 241.36 25.3909C241.099 25.7602 240.971 26.2071 240.997 26.6586C241.022 27.1101 241.2 27.5396 241.501 27.877C241.803 28.2144 242.209 28.4397 242.655 28.5163C244.534 28.841 246.437 29.0029 248.344 29C253.441 29 259.114 27.8562 263.035 24.5675C266.33 21.805 268 17.9125 268 13C267.998 11.0363 267.274 9.14179 265.967 7.67655C264.66 6.21131 262.86 5.27747 260.909 5.0525ZM260 7C261.248 7.00166 262.465 7.39219 263.482 8.11733C264.498 8.84247 265.263 9.8662 265.671 11.0463L264 11.875L260.447 10.1038C260.309 10.0342 260.155 9.99803 260 9.99803C259.845 9.99803 259.691 10.0342 259.552 10.1038L256 11.875L254.329 11.04C254.738 9.86121 255.503 8.83894 256.52 8.11502C257.536 7.39109 258.752 7.00139 260 7ZM261.75 23.0375C259.5 24.9212 256.3 26.195 252.485 26.7213C249.332 27.1375 246.135 27.0785 243 26.5462C250.154 24.4375 253.954 19.7962 254 13.1187L255.555 13.8962C255.694 13.9658 255.847 14.002 256.002 14.002C256.158 14.002 256.311 13.9658 256.45 13.8962L260 12.1163L263.552 13.8925C263.691 13.962 263.845 13.9982 264 13.9982C264.155 13.9982 264.309 13.962 264.447 13.8925L265.999 13.1175C265.972 17.355 264.544 20.6925 261.75 23.0362V23.0375Z" fill="currentColor"/>
</g>
<defs>
<clipPath id="clip0_17_7683">
<rect width="272" height="32" rx="5" fill="white"/>
</clipPath>
</defs>
</svg>
