<svg width="272" height="32" viewBox="0 0 272 32" fill="none" xmlns="http://www.w3.org/2000/svg">
<g clip-path="url(#clip0_17_7655)">
<path d="M29.9426 7.87519C29.881 7.6192 29.7691 7.37799 29.6136 7.16556C29.458 6.95313 29.2618 6.7737 29.0363 6.63769C25.1041 4.25894 20.5959 3.00146 16.0001 3.00146C11.4043 3.00146 6.89612 4.25894 2.96385 6.63769C2.73904 6.77403 2.54332 6.95336 2.38789 7.16542C2.23246 7.37747 2.12037 7.61809 2.05802 7.87351C1.99567 8.12893 1.9843 8.39414 2.02455 8.65396C2.0648 8.91378 2.15589 9.16311 2.2926 9.38769L14.2926 29.0464C14.4709 29.3403 14.7219 29.5833 15.0214 29.752C15.3209 29.9206 15.6589 30.0092 16.0026 30.0092C16.3463 30.0092 16.6843 29.9206 16.9838 29.752C17.2833 29.5833 17.5343 29.3403 17.7126 29.0464L29.7126 9.38769C29.8495 9.1635 29.9403 8.91428 29.9798 8.65459C30.0193 8.3949 30.0066 8.12994 29.9426 7.87519ZM7.94885 14.8127C8.27377 14.5065 8.66294 14.2767 9.08799 14.14C9.51303 14.0033 9.96321 13.9632 10.4057 14.0227C10.8482 14.0821 11.2719 14.2395 11.6458 14.4835C12.0197 14.7275 12.3344 15.0519 12.567 15.433C12.7997 15.8141 12.9443 16.2423 12.9903 16.6864C13.0364 17.1305 12.9828 17.5792 12.8334 18C12.684 18.4207 12.4425 18.8028 12.1266 19.1183C11.8108 19.4339 11.4285 19.6749 11.0076 19.8239L7.94885 14.8127ZM18.9388 23.1814C18.4381 22.7092 18.1149 22.0792 18.0235 21.397C17.9322 20.7148 18.0782 20.0219 18.437 19.4346C18.7959 18.8472 19.3458 18.4012 19.9946 18.1712C20.6433 17.9412 21.3514 17.9413 22.0001 18.1714L18.9388 23.1814ZM23.0551 16.4402C21.9436 15.9357 20.686 15.8552 19.5192 16.2139C18.3525 16.5726 17.3573 17.3457 16.7212 18.3875C16.0851 19.4293 15.852 20.6678 16.066 21.8695C16.2799 23.0712 16.926 24.1532 17.8826 24.9114L16.0001 28.0002L12.0626 21.5539C12.709 21.2626 13.2861 20.8372 13.7556 20.3058C14.225 19.7744 14.5761 19.1493 14.7855 18.4718C14.9948 17.7944 15.0577 17.0802 14.97 16.3766C14.8822 15.673 14.6458 14.9961 14.2765 14.3909C13.9071 13.7856 13.4133 13.2658 12.8277 12.866C12.2421 12.4662 11.5782 12.1955 10.88 12.072C10.1818 11.9484 9.4653 11.9747 8.77805 12.1491C8.09081 12.3236 7.44853 12.6423 6.89385 13.0839L6.1001 11.7827C9.08139 9.96286 12.5066 9.00004 15.9995 9.00004C19.4923 9.00004 22.9176 9.96286 25.8988 11.7827L23.0551 16.4402ZM26.9426 10.0739C23.6467 8.06374 19.8607 7.00029 16.0001 7.00029C12.1395 7.00029 8.35353 8.06374 5.0576 10.0739L4.0001 8.34644C7.62039 6.15846 11.77 5.00192 16.0001 5.00192C20.2302 5.00192 24.3798 6.15846 28.0001 8.34644L26.9426 10.0739Z" fill="currentColor"/>
<path d="M77.4574 7.9924C77.4112 7.80029 77.3272 7.61926 77.2105 7.45983C77.0938 7.3004 76.9466 7.16574 76.7774 7.06365C72.9231 4.73237 68.5044 3.5 63.9999 3.5C59.4954 3.5 55.0767 4.73237 51.2224 7.06365C50.8835 7.27071 50.6405 7.60372 50.5468 7.98966C50.453 8.3756 50.5162 8.78296 50.7224 9.1224L62.7224 28.7811C62.8559 29.0021 63.0443 29.1849 63.2692 29.3118C63.4941 29.4386 63.7479 29.5053 64.0061 29.5053C64.2643 29.5053 64.5182 29.4386 64.7431 29.3118C64.968 29.1849 65.1563 29.0021 65.2899 28.7811L77.2811 9.1249C77.3839 8.95717 77.4525 8.7707 77.4827 8.57631C77.513 8.38191 77.5044 8.18344 77.4574 7.9924ZM55.3236 14.7499C55.6806 14.3244 56.1337 13.99 56.6455 13.7743C57.1573 13.5586 57.7131 13.4678 58.267 13.5094C58.8208 13.551 59.3568 13.7238 59.8307 14.0135C60.3045 14.3033 60.7026 14.7016 60.992 15.1756C61.2815 15.6496 61.4539 16.1857 61.4952 16.7396C61.5364 17.2935 61.4453 17.8492 61.2293 18.3609C61.0133 18.8725 60.6786 19.3255 60.2529 19.6822C59.8272 20.0389 59.3227 20.2892 58.7811 20.4124L55.3236 14.7499ZM67.0736 23.9261C66.3224 23.4243 65.7943 22.6514 65.5999 21.7691C65.4054 20.8869 65.5597 19.9636 66.0303 19.1924C66.501 18.4213 67.2516 17.862 68.1252 17.6316C68.9988 17.4012 69.9276 17.5175 70.7174 17.9561L67.0736 23.9261ZM71.2399 17.0999C70.5592 16.7058 69.7864 16.4988 68.9999 16.4999C68.0289 16.5 67.0841 16.8142 66.3063 17.3954C65.5286 17.9767 64.9598 18.794 64.6847 19.7251C64.4097 20.6563 64.4432 21.6515 64.7802 22.562C65.1173 23.4726 65.7398 24.2497 66.5549 24.7774L64.4299 28.2599C64.3856 28.3345 64.3227 28.3963 64.2473 28.4392C64.1719 28.4822 64.0866 28.5048 63.9999 28.5048C63.9131 28.5048 63.8279 28.4822 63.7525 28.4392C63.6771 28.3963 63.6142 28.3345 63.5699 28.2599L59.3199 21.3011C59.9759 21.1003 60.5772 20.7521 61.078 20.2832C61.5788 19.8143 61.9657 19.2371 62.2093 18.5958C62.4528 17.9544 62.5465 17.2659 62.4831 16.5827C62.4197 15.8996 62.201 15.2401 61.8437 14.6544C61.4864 14.0688 60.9999 13.5726 60.4214 13.2038C59.8429 12.8351 59.1877 12.6034 58.506 12.5266C57.8243 12.4498 57.134 12.5299 56.488 12.7608C55.842 12.9917 55.2573 13.3672 54.7786 13.8587L53.4161 11.6249C56.5699 9.58688 60.2449 8.50276 63.9999 8.50276C67.7548 8.50276 71.4299 9.58688 74.5836 11.6249L71.2399 17.0999ZM76.4249 8.5999L75.1061 10.7674C71.7947 8.63426 67.9389 7.49988 63.9999 7.49988C60.0608 7.49988 56.2051 8.63426 52.8936 10.7674L51.5724 8.60115C51.5382 8.54566 51.5155 8.48388 51.5057 8.41947C51.4958 8.35506 51.4989 8.28933 51.5149 8.22615C51.5305 8.16202 51.5586 8.10161 51.5976 8.04841C51.6367 7.9952 51.6859 7.95025 51.7424 7.91615C55.4398 5.67972 59.6787 4.49749 63.9999 4.49749C68.3211 4.49749 72.5599 5.67972 76.2574 7.91615C76.3139 7.95025 76.3631 7.9952 76.4021 8.04841C76.4412 8.10161 76.4693 8.16202 76.4849 8.22615C76.5008 8.28933 76.504 8.35506 76.4941 8.41947C76.4842 8.48388 76.4615 8.54566 76.4274 8.60115L76.4249 8.5999Z" fill="currentColor"/>
<path d="M125.7 7.93373C125.646 7.70948 125.548 7.49817 125.412 7.31211C125.276 7.12605 125.104 6.96896 124.906 6.84998C121.013 4.49494 116.55 3.25 112 3.25C107.45 3.25 102.987 4.49494 99.0938 6.84998C98.6982 7.09086 98.4142 7.47872 98.3041 7.92859C98.194 8.37845 98.2667 8.85362 98.5063 9.24998L110.506 28.9087C110.662 29.1676 110.882 29.3818 111.145 29.5305C111.407 29.6792 111.704 29.7573 112.006 29.7573C112.308 29.7573 112.605 29.6792 112.868 29.5305C113.131 29.3818 113.351 29.1676 113.506 28.9087L125.5 9.24998C125.619 9.05475 125.698 8.83786 125.732 8.61192C125.766 8.38597 125.755 8.15545 125.7 7.93373ZM103.634 14.775C103.976 14.4102 104.399 14.1296 104.868 13.9548C105.337 13.7801 105.84 13.716 106.338 13.7677C106.835 13.8193 107.315 13.9852 107.738 14.2524C108.161 14.5196 108.517 14.8809 108.777 15.3082C109.038 15.7355 109.196 16.2172 109.24 16.7158C109.284 17.2143 109.212 17.7163 109.03 18.1825C108.848 18.6487 108.56 19.0665 108.19 19.4035C107.82 19.7404 107.377 19.9873 106.896 20.125L103.634 14.775ZM115.009 23.565C114.379 23.0745 113.952 22.3697 113.809 21.5848C113.666 20.7999 113.817 19.9897 114.232 19.3086C114.648 18.6275 115.299 18.1231 116.063 17.8914C116.826 17.6598 117.649 17.7171 118.373 18.0525L115.009 23.565ZM119.159 16.765C118.491 16.4237 117.75 16.2471 117 16.25C115.996 16.2502 115.018 16.5685 114.206 17.1593C113.394 17.7501 112.79 18.583 112.481 19.5384C112.172 20.4937 112.174 21.5224 112.486 22.4767C112.798 23.431 113.405 24.2619 114.219 24.85L112.219 28.13C112.197 28.1679 112.165 28.1993 112.127 28.2212C112.089 28.243 112.046 28.2545 112.003 28.2545C111.959 28.2545 111.916 28.243 111.878 28.2212C111.84 28.1993 111.808 28.1679 111.786 28.13L107.699 21.4362C108.35 21.1875 108.938 20.7985 109.422 20.2968C109.906 19.7952 110.274 19.1932 110.499 18.5335C110.724 17.8739 110.801 17.1728 110.725 16.48C110.649 15.7871 110.421 15.1196 110.058 14.5246C109.695 13.9296 109.205 13.4219 108.624 13.0373C108.043 12.6528 107.384 12.4009 106.694 12.2995C106.005 12.1982 105.301 12.2498 104.634 12.4508C103.966 12.6518 103.351 12.9972 102.833 13.4625L101.756 11.6987C104.826 9.77203 108.376 8.75 112 8.75C115.624 8.75 119.174 9.77203 122.244 11.6987L119.159 16.765ZM124.22 8.47123L123.025 10.4187C119.72 8.34812 115.9 7.24995 112 7.24995C108.1 7.24995 104.28 8.34812 100.975 10.4187L99.7863 8.47123C99.7692 8.44417 99.7579 8.41392 99.7529 8.38232C99.748 8.35073 99.7496 8.31846 99.7575 8.28748C99.7658 8.25511 99.7804 8.22471 99.8006 8.19809C99.8208 8.17147 99.8461 8.14916 99.875 8.13248C103.533 5.92073 107.726 4.75158 112 4.75158C116.274 4.75158 120.467 5.92073 124.125 8.13248C124.154 8.14941 124.178 8.17183 124.198 8.19844C124.218 8.22505 124.232 8.25532 124.24 8.28748C124.248 8.31829 124.25 8.35047 124.246 8.38206C124.241 8.41365 124.23 8.44399 124.214 8.47123H124.22Z" fill="currentColor"/>
<path d="M174.429 7.75622C174.352 7.43626 174.212 7.13475 174.017 6.86914C173.823 6.60353 173.578 6.37906 173.296 6.20872C169.286 3.78255 164.687 2.5 160 2.5C155.313 2.5 150.714 3.78255 146.704 6.20872C146.423 6.37927 146.179 6.60341 145.985 6.86834C145.791 7.13326 145.651 7.43379 145.574 7.75276C145.496 8.07174 145.482 8.4029 145.532 8.72735C145.582 9.05181 145.696 9.36319 145.866 9.64372L157.866 29.3012C158.089 29.6686 158.403 29.9723 158.777 30.1831C159.152 30.3939 159.574 30.5047 160.004 30.5047C160.433 30.5047 160.856 30.3939 161.23 30.1831C161.605 29.9723 161.918 29.6686 162.141 29.3012L174.141 9.64372C174.312 9.36376 174.425 9.05278 174.474 8.72878C174.524 8.40478 174.508 8.07422 174.429 7.75622ZM154.875 18.6475L152.391 14.5775C152.59 14.5265 152.795 14.5005 153 14.5C153.48 14.501 153.95 14.6402 154.353 14.9009C154.756 15.1616 155.075 15.5328 155.273 15.9701C155.47 16.4075 155.538 16.8925 155.468 17.3673C155.397 17.842 155.191 18.2865 154.875 18.6475ZM162.875 22.3287C162.637 21.9499 162.506 21.5142 162.494 21.0671C162.482 20.62 162.59 20.1778 162.807 19.7868C163.024 19.3957 163.342 19.07 163.728 18.8437C164.113 18.6173 164.553 18.4987 165 18.5C165.07 18.5 165.14 18.5 165.209 18.5087L162.875 22.3287ZM166.848 15.8187C165.656 15.3909 164.353 15.3872 163.16 15.8082C161.966 16.2293 160.954 17.0493 160.294 18.1299C159.635 19.2105 159.368 20.4856 159.539 21.7399C159.711 22.9942 160.31 24.1509 161.235 25.015L160 27.045L156.471 21.2625C157.289 20.5959 157.897 19.7083 158.224 18.7056C158.551 17.7029 158.583 16.6273 158.316 15.6069C158.049 14.5866 157.494 13.6646 156.717 12.9509C155.941 12.2371 154.975 11.7617 153.936 11.5812C156.335 10.6972 158.899 10.349 161.447 10.5608C163.995 10.7726 166.466 11.5395 168.686 12.8075L166.848 15.8187ZM170.25 10.25C167.133 8.45256 163.598 7.50639 160 7.50639C156.402 7.50639 152.867 8.45256 149.75 10.25L148.694 8.51747C152.134 6.54037 156.032 5.49991 160 5.49991C163.968 5.49991 167.866 6.54037 171.306 8.51747L170.25 10.25Z" fill="currentColor"/>
<path d="M221.943 7.87519C221.881 7.6192 221.769 7.37799 221.614 7.16556C221.458 6.95313 221.262 6.7737 221.036 6.63769C217.104 4.25894 212.596 3.00146 208 3.00146C203.404 3.00146 198.896 4.25894 194.964 6.63769C194.739 6.77403 194.543 6.95336 194.388 7.16542C194.232 7.37747 194.12 7.61809 194.058 7.87351C193.996 8.12893 193.984 8.39414 194.025 8.65396C194.065 8.91378 194.156 9.16311 194.293 9.38769L206.293 29.0464C206.471 29.3403 206.722 29.5833 207.021 29.752C207.321 29.9206 207.659 30.0092 208.003 30.0092C208.346 30.0092 208.684 29.9206 208.984 29.752C209.283 29.5833 209.534 29.3403 209.713 29.0464L221.713 9.38769C221.849 9.1635 221.94 8.91428 221.98 8.65459C222.019 8.3949 222.007 8.12994 221.943 7.87519ZM215.055 16.4414C213.944 15.9369 212.686 15.8565 211.519 16.2152C210.352 16.5739 209.357 17.347 208.721 18.3888C208.085 19.4305 207.852 20.669 208.066 21.8708C208.28 23.0725 208.926 24.1545 209.883 24.9127L208 28.0002L204.063 21.5539C204.709 21.2626 205.286 20.8372 205.756 20.3058C206.225 19.7744 206.576 19.1493 206.785 18.4718C206.995 17.7944 207.058 17.0802 206.97 16.3766C206.882 15.673 206.646 14.9961 206.276 14.3909C205.907 13.7856 205.413 13.2658 204.828 12.866C204.242 12.4662 203.578 12.1955 202.88 12.072C202.182 11.9484 201.465 11.9747 200.778 12.1491C200.091 12.3236 199.449 12.6423 198.894 13.0839L198.1 11.7827C201.081 9.96286 204.507 9.00004 207.999 9.00004C211.492 9.00004 214.918 9.96286 217.899 11.7827L215.055 16.4414Z" fill="currentColor"/>
<path opacity="0.2" d="M267.25 11.4701L263.391 17.8001C262.945 17.4628 262.434 17.2226 261.889 17.0953C261.345 16.9679 260.78 16.956 260.23 17.0605C259.681 17.165 259.16 17.3835 258.7 17.7019C258.241 18.0203 257.853 18.4315 257.562 18.9089C257.271 19.3864 257.083 19.9196 257.011 20.4741C256.939 21.0285 256.984 21.592 257.143 22.128C257.302 22.664 257.572 23.1607 257.935 23.5861C258.298 24.0115 258.746 24.3561 259.25 24.5976L256.859 28.5201C256.77 28.6676 256.644 28.7896 256.494 28.8743C256.344 28.959 256.175 29.0035 256.003 29.0035C255.83 29.0035 255.661 28.959 255.511 28.8743C255.361 28.7896 255.235 28.6676 255.146 28.5201L250.538 20.9638C251.197 20.8762 251.825 20.6254 252.363 20.234C252.901 19.8427 253.333 19.3233 253.62 18.7228C253.907 18.1223 254.039 17.4598 254.006 16.7951C253.972 16.1305 253.773 15.4849 253.426 14.9166C253.08 14.3484 252.597 13.8756 252.022 13.541C251.447 13.2064 250.797 13.0206 250.132 13.0005C249.467 12.9804 248.807 13.1265 248.212 13.4257C247.618 13.7249 247.108 14.1676 246.727 14.7138L244.75 11.4701C248.066 9.20925 251.987 8 256 8C260.013 8 263.934 9.20925 267.25 11.4701Z" fill="currentColor"/>
<path d="M269.943 7.87519C269.881 7.6192 269.769 7.37799 269.614 7.16556C269.458 6.95313 269.262 6.7737 269.036 6.63769C265.104 4.25894 260.596 3.00146 256 3.00146C251.404 3.00146 246.896 4.25894 242.964 6.63769C242.739 6.77403 242.543 6.95336 242.388 7.16542C242.232 7.37747 242.12 7.61809 242.058 7.87351C241.996 8.12893 241.984 8.39414 242.025 8.65396C242.065 8.91378 242.156 9.16311 242.293 9.38769L254.293 29.0464C254.471 29.3403 254.722 29.5833 255.021 29.752C255.321 29.9206 255.659 30.0092 256.003 30.0092C256.346 30.0092 256.684 29.9206 256.984 29.752C257.283 29.5833 257.534 29.3403 257.713 29.0464L264.25 18.3164L269.701 9.38519C269.84 9.16212 269.932 8.91371 269.974 8.65446C270.015 8.39521 270.005 8.1303 269.943 7.87519ZM247.949 14.8127C248.274 14.5065 248.663 14.2767 249.088 14.14C249.513 14.0033 249.963 13.9632 250.406 14.0227C250.848 14.0821 251.272 14.2395 251.646 14.4835C252.02 14.7275 252.334 15.0519 252.567 15.433C252.8 15.8141 252.944 16.2423 252.99 16.6864C253.036 17.1305 252.983 17.5792 252.833 18C252.684 18.4207 252.443 18.8028 252.127 19.1183C251.811 19.4339 251.428 19.6749 251.008 19.8239L247.949 14.8127ZM258.939 23.1814C258.438 22.7092 258.115 22.0792 258.024 21.397C257.932 20.7148 258.078 20.0219 258.437 19.4346C258.796 18.8472 259.346 18.4012 259.995 18.1712C260.643 17.9412 261.351 17.9413 262 18.1714L258.939 23.1814ZM263.055 16.4402C261.944 15.9357 260.686 15.8552 259.519 16.2139C258.352 16.5726 257.357 17.3457 256.721 18.3875C256.085 19.4293 255.852 20.6678 256.066 21.8695C256.28 23.0712 256.926 24.1532 257.883 24.9114L256 28.0002L252.063 21.5539C252.709 21.2626 253.286 20.8372 253.756 20.3058C254.225 19.7744 254.576 19.1493 254.785 18.4718C254.995 17.7944 255.058 17.0802 254.97 16.3766C254.882 15.673 254.646 14.9961 254.276 14.3909C253.907 13.7856 253.413 13.2658 252.828 12.866C252.242 12.4662 251.578 12.1955 250.88 12.072C250.182 11.9484 249.465 11.9747 248.778 12.1491C248.091 12.3236 247.449 12.6423 246.894 13.0839L246.1 11.7827C249.081 9.96286 252.507 9.00004 255.999 9.00004C259.492 9.00004 262.918 9.96286 265.899 11.7827L263.055 16.4402ZM266.943 10.0739C263.647 8.06374 259.861 7.00029 256 7.00029C252.14 7.00029 248.354 8.06374 245.058 10.0739L244 8.34644C247.62 6.15846 251.77 5.00192 256 5.00192C260.23 5.00192 264.38 6.15846 268 8.34644L266.943 10.0739Z" fill="currentColor"/>
</g>
<defs>
<clipPath id="clip0_17_7655">
<rect width="272" height="32" rx="5" fill="white"/>
</clipPath>
</defs>
</svg>
