<svg width="272" height="32" viewBox="0 0 272 32" fill="none" xmlns="http://www.w3.org/2000/svg">
<g clip-path="url(#clip0_17_7515)">
<path d="M27.7675 7.35875C27.6736 7.24642 27.5562 7.15607 27.4236 7.09408C27.291 7.03209 27.1464 6.99998 27 7H6.835L6.22375 3.6425C6.14003 3.18167 5.89723 2.76484 5.53767 2.46468C5.17812 2.16452 4.72462 2.00007 4.25625 2H2C1.73478 2 1.48043 2.10536 1.29289 2.29289C1.10536 2.48043 1 2.73478 1 3C1 3.26522 1.10536 3.51957 1.29289 3.70711C1.48043 3.89464 1.73478 4 2 4H4.25L7.445 21.5362C7.53911 22.0563 7.76895 22.5423 8.11125 22.945C7.63881 23.3863 7.29781 23.9498 7.12607 24.573C6.95433 25.1962 6.95856 25.8549 7.13829 26.4759C7.31801 27.0968 7.66622 27.6559 8.14428 28.0911C8.62235 28.5263 9.2116 28.8205 9.8467 28.9412C10.4818 29.062 11.1379 29.0044 11.7423 28.775C12.3467 28.5456 12.8758 28.1533 13.2708 27.6416C13.6658 27.1299 13.9114 26.5187 13.9804 25.8759C14.0493 25.2332 13.9388 24.5838 13.6613 24H19.3388C19.115 24.4684 18.9993 24.981 19 25.5C19 26.1922 19.2053 26.8689 19.5899 27.4445C19.9744 28.0201 20.5211 28.4687 21.1606 28.7336C21.8001 28.9985 22.5039 29.0678 23.1828 28.9327C23.8617 28.7977 24.4854 28.4644 24.9749 27.9749C25.4644 27.4854 25.7977 26.8617 25.9327 26.1828C26.0678 25.5039 25.9985 24.8001 25.7336 24.1606C25.4687 23.5211 25.0201 22.9744 24.4445 22.5899C23.8689 22.2053 23.1922 22 22.5 22H10.3962C10.1621 22 9.93532 21.9177 9.75554 21.7677C9.57576 21.6176 9.45436 21.4092 9.4125 21.1787L9.01625 19H23.5163C24.2188 18.9999 24.8991 18.7532 25.4384 18.303C25.9777 17.8527 26.3419 17.2275 26.4675 16.5362L27.9875 8.17875C28.0132 8.0343 28.0069 7.88596 27.9688 7.74424C27.9308 7.60253 27.8621 7.47092 27.7675 7.35875ZM12 25.5C12 25.7967 11.912 26.0867 11.7472 26.3334C11.5824 26.58 11.3481 26.7723 11.074 26.8858C10.7999 26.9993 10.4983 27.0291 10.2074 26.9712C9.91639 26.9133 9.64912 26.7704 9.43934 26.5607C9.22956 26.3509 9.0867 26.0836 9.02882 25.7926C8.97094 25.5017 9.00065 25.2001 9.11418 24.926C9.22771 24.6519 9.41997 24.4176 9.66665 24.2528C9.91332 24.088 10.2033 24 10.5 24C10.8978 24 11.2794 24.158 11.5607 24.4393C11.842 24.7206 12 25.1022 12 25.5ZM24 25.5C24 25.7967 23.912 26.0867 23.7472 26.3334C23.5824 26.58 23.3481 26.7723 23.074 26.8858C22.7999 26.9993 22.4983 27.0291 22.2074 26.9712C21.9164 26.9133 21.6491 26.7704 21.4393 26.5607C21.2296 26.3509 21.0867 26.0836 21.0288 25.7926C20.9709 25.5017 21.0007 25.2001 21.1142 24.926C21.2277 24.6519 21.42 24.4176 21.6666 24.2528C21.9133 24.088 22.2033 24 22.5 24C22.8978 24 23.2794 24.158 23.5607 24.4393C23.842 24.7206 24 25.1022 24 25.5ZM24.5 16.1787C24.458 16.4098 24.3361 16.6187 24.1555 16.7689C23.975 16.919 23.7473 17.0008 23.5125 17H8.6525L7.19875 9H25.8013L24.5 16.1787Z" fill="currentColor"/>
<path d="M75.3838 7.68C75.3369 7.62372 75.2782 7.57843 75.2119 7.54732C75.1456 7.51622 75.0732 7.50006 75 7.5H54.4175L53.7325 3.73125C53.6696 3.38564 53.4873 3.07308 53.2175 2.84807C52.9477 2.62306 52.6075 2.49988 52.2562 2.5H50C49.8674 2.5 49.7402 2.55268 49.6464 2.64645C49.5527 2.74021 49.5 2.86739 49.5 3C49.5 3.13261 49.5527 3.25979 49.6464 3.35355C49.7402 3.44732 49.8674 3.5 50 3.5H52.25C52.3684 3.49807 52.4836 3.53822 52.5752 3.6133C52.6668 3.68838 52.7287 3.79352 52.75 3.91L55.9375 21.4475C56.049 22.0573 56.3831 22.6039 56.875 22.9813C56.3592 23.3137 55.9578 23.7963 55.7249 24.3639C55.4919 24.9316 55.4386 25.557 55.5722 26.1559C55.7058 26.7548 56.0198 27.2983 56.4719 27.7132C56.924 28.1281 57.4924 28.3944 58.1005 28.4761C58.7087 28.5579 59.3273 28.4512 59.8729 28.1704C60.4185 27.8897 60.8649 27.4484 61.1519 26.906C61.4389 26.3637 61.5527 25.7464 61.4779 25.1373C61.4031 24.5283 61.1434 23.9568 60.7338 23.5H68.2663C67.8083 24.0121 67.5399 24.6658 67.506 25.352C67.4721 26.0381 67.6747 26.7151 68.08 27.2698C68.4853 27.8246 69.0687 28.2234 69.7327 28.3996C70.3967 28.5758 71.1011 28.5188 71.7281 28.2381C72.3552 27.9574 72.8668 27.47 73.1777 26.8574C73.4885 26.2447 73.5797 25.5439 73.4359 24.8721C73.2921 24.2003 72.9221 23.5983 72.3877 23.1665C71.8534 22.7347 71.187 22.4995 70.5 22.5H58.3962C58.0452 22.4998 57.7053 22.3765 57.4357 22.1515C57.1662 21.9265 56.9842 21.6142 56.9213 21.2687L56.4213 18.5H71.5125C72.098 18.5001 72.6649 18.2947 73.1145 17.9196C73.564 17.5445 73.8677 17.0235 73.9725 16.4475L75.4925 8.09C75.5055 8.01787 75.5026 7.94375 75.4838 7.8729C75.465 7.80204 75.4308 7.73619 75.3838 7.68ZM60.5 25.5C60.5 25.8956 60.3827 26.2822 60.1629 26.6111C59.9432 26.94 59.6308 27.1964 59.2654 27.3478C58.8999 27.4991 58.4978 27.5387 58.1098 27.4616C57.7219 27.3844 57.3655 27.1939 57.0858 26.9142C56.8061 26.6345 56.6156 26.2781 56.5384 25.8902C56.4613 25.5022 56.5009 25.1001 56.6522 24.7346C56.8036 24.3692 57.06 24.0568 57.3889 23.8371C57.7178 23.6173 58.1044 23.5 58.5 23.5C59.0304 23.5 59.5391 23.7107 59.9142 24.0858C60.2893 24.4609 60.5 24.9696 60.5 25.5ZM72.5 25.5C72.5 25.8956 72.3827 26.2822 72.1629 26.6111C71.9432 26.94 71.6308 27.1964 71.2654 27.3478C70.8999 27.4991 70.4978 27.5387 70.1098 27.4616C69.7219 27.3844 69.3655 27.1939 69.0858 26.9142C68.8061 26.6345 68.6156 26.2781 68.5384 25.8902C68.4613 25.5022 68.5009 25.1001 68.6522 24.7346C68.8036 24.3692 69.06 24.0568 69.3889 23.8371C69.7178 23.6173 70.1044 23.5 70.5 23.5C71.0304 23.5 71.5391 23.7107 71.9142 24.0858C72.2893 24.4609 72.5 24.9696 72.5 25.5ZM72.9888 16.2687C72.9258 16.6144 72.7436 16.9269 72.4738 17.1519C72.204 17.3769 71.8638 17.5001 71.5125 17.5H56.235L54.5988 8.5H74.4013L72.9888 16.2687Z" fill="currentColor"/>
<path d="M123.576 7.52C123.506 7.4355 123.418 7.36751 123.318 7.32085C123.219 7.27419 123.11 7.25 123 7.25H102.625L101.979 3.6875C101.906 3.28406 101.693 2.91913 101.378 2.65641C101.063 2.39369 100.666 2.24985 100.256 2.25H98C97.8011 2.25 97.6103 2.32902 97.4697 2.46967C97.329 2.61032 97.25 2.80109 97.25 3C97.25 3.19891 97.329 3.38968 97.4697 3.53033C97.6103 3.67098 97.8011 3.75 98 3.75H100.25C100.309 3.74903 100.367 3.76911 100.413 3.80665C100.458 3.84419 100.489 3.89676 100.5 3.955L103.689 21.4925C103.79 22.0519 104.062 22.5661 104.469 22.9638C103.978 23.3561 103.612 23.8823 103.414 24.4786C103.216 25.0748 103.196 25.7156 103.354 26.3234C103.513 26.9312 103.845 27.48 104.309 27.9033C104.773 28.3266 105.35 28.6062 105.97 28.7085C106.59 28.8107 107.226 28.7311 107.801 28.4793C108.377 28.2274 108.867 27.8142 109.213 27.2896C109.558 26.765 109.745 26.1515 109.749 25.5233C109.753 24.8951 109.575 24.2791 109.236 23.75H115.764C115.375 24.3582 115.2 25.0785 115.266 25.7973C115.332 26.5161 115.635 27.1924 116.128 27.7197C116.621 28.2469 117.276 28.595 117.989 28.7091C118.701 28.8232 119.432 28.6968 120.065 28.3499C120.698 28.0029 121.197 27.4551 121.484 26.7929C121.771 26.1306 121.83 25.3917 121.65 24.6925C121.471 23.9933 121.064 23.3738 120.494 22.9315C119.923 22.4892 119.222 22.2495 118.5 22.25H106.396C106.104 22.25 105.82 22.1473 105.595 21.9598C105.37 21.7723 105.219 21.5118 105.166 21.2237L104.716 18.75H119.513C120.157 18.7502 120.78 18.5243 121.275 18.1117C121.769 17.6992 122.103 17.1261 122.219 16.4925L123.737 8.13375C123.757 8.02588 123.753 7.91502 123.725 7.80898C123.697 7.70294 123.646 7.6043 123.576 7.52ZM108.25 25.5C108.25 25.8461 108.147 26.1845 107.955 26.4722C107.763 26.76 107.489 26.9843 107.17 27.1168C106.85 27.2492 106.498 27.2839 106.159 27.2164C105.819 27.1488 105.507 26.9822 105.263 26.7374C105.018 26.4927 104.851 26.1809 104.784 25.8414C104.716 25.5019 104.751 25.1501 104.883 24.8303C105.016 24.5105 105.24 24.2372 105.528 24.0449C105.816 23.8526 106.154 23.75 106.5 23.75C106.964 23.75 107.409 23.9344 107.737 24.2626C108.066 24.5908 108.25 25.0359 108.25 25.5ZM120.25 25.5C120.25 25.8461 120.147 26.1845 119.955 26.4722C119.763 26.76 119.489 26.9843 119.17 27.1168C118.85 27.2492 118.498 27.2839 118.159 27.2164C117.819 27.1488 117.507 26.9822 117.263 26.7374C117.018 26.4927 116.851 26.1809 116.784 25.8414C116.716 25.5019 116.751 25.1501 116.883 24.8303C117.016 24.5105 117.24 24.2372 117.528 24.0449C117.816 23.8526 118.154 23.75 118.5 23.75C118.964 23.75 119.409 23.9344 119.737 24.2626C120.066 24.5908 120.25 25.0359 120.25 25.5ZM120.743 16.2237C120.69 16.5118 120.538 16.7723 120.313 16.9598C120.089 17.1473 119.805 17.25 119.513 17.25H104.444L102.899 8.75H122.101L120.743 16.2237Z" fill="currentColor"/>
<path d="M172.151 7.03875C172.011 6.87014 171.834 6.7345 171.636 6.6414C171.437 6.54831 171.22 6.50004 171 6.5H151.25L150.716 3.5525C150.611 2.97647 150.308 2.45549 149.858 2.08041C149.409 1.70532 148.842 1.49991 148.256 1.5H146C145.602 1.5 145.221 1.65804 144.939 1.93934C144.658 2.22064 144.5 2.60218 144.5 3C144.5 3.39782 144.658 3.77936 144.939 4.06066C145.221 4.34196 145.602 4.5 146 4.5H147.839L150.952 21.625C151.036 22.0799 151.209 22.5136 151.461 22.9013C151.015 23.4238 150.71 24.0525 150.577 24.7269C150.445 25.4013 150.488 26.0986 150.703 26.7514C150.918 27.4042 151.297 27.9907 151.805 28.4541C152.313 28.9175 152.931 29.2423 153.601 29.3972C154.271 29.5521 154.969 29.5317 155.628 29.3382C156.288 29.1447 156.886 28.7844 157.366 28.2923C157.846 27.8001 158.191 27.1926 158.368 26.5283C158.544 25.8641 158.547 25.1655 158.375 24.5H162.625C162.416 25.3076 162.466 26.1603 162.766 26.9386C163.066 27.7169 163.601 28.382 164.298 28.8407C164.995 29.2995 165.817 29.529 166.651 29.4971C167.484 29.4652 168.287 29.1735 168.947 28.6629C169.606 28.1523 170.09 27.4482 170.329 26.6492C170.569 25.8503 170.553 24.9964 170.283 24.207C170.014 23.4177 169.504 22.7324 168.826 22.247C168.147 21.7616 167.334 21.5004 166.5 21.5H154.396C154.279 21.4999 154.166 21.4588 154.076 21.3839C153.987 21.309 153.926 21.205 153.905 21.09L153.615 19.5H167.513C168.332 19.5 169.126 19.2122 169.756 18.6868C170.385 18.1614 170.81 17.4317 170.956 16.625L172.476 8.2675C172.515 8.05138 172.506 7.82932 172.45 7.617C172.394 7.40468 172.292 7.20728 172.151 7.03875ZM155.5 25.5C155.5 25.6978 155.441 25.8911 155.331 26.0556C155.222 26.22 155.065 26.3482 154.883 26.4239C154.7 26.4996 154.499 26.5194 154.305 26.4808C154.111 26.4422 153.933 26.347 153.793 26.2071C153.653 26.0673 153.558 25.8891 153.519 25.6951C153.481 25.5011 153.5 25.3 153.576 25.1173C153.652 24.9346 153.78 24.7784 153.944 24.6685C154.109 24.5586 154.302 24.5 154.5 24.5C154.765 24.5 155.02 24.6054 155.207 24.7929C155.395 24.9804 155.5 25.2348 155.5 25.5ZM166.5 26.5C166.302 26.5 166.109 26.4414 165.944 26.3315C165.78 26.2216 165.652 26.0654 165.576 25.8827C165.5 25.7 165.481 25.4989 165.519 25.3049C165.558 25.1109 165.653 24.9327 165.793 24.7929C165.933 24.653 166.111 24.5578 166.305 24.5192C166.499 24.4806 166.7 24.5004 166.883 24.5761C167.065 24.6518 167.222 24.78 167.331 24.9444C167.441 25.1089 167.5 25.3022 167.5 25.5C167.5 25.7652 167.395 26.0196 167.207 26.2071C167.02 26.3946 166.765 26.5 166.5 26.5ZM168 16.09C167.979 16.2044 167.919 16.3078 167.83 16.3827C167.741 16.4575 167.629 16.499 167.513 16.5H153.07L151.798 9.5H169.202L168 16.09Z" fill="currentColor"/>
<path d="M219.767 7.35875C219.674 7.24642 219.556 7.15607 219.424 7.09408C219.291 7.03209 219.146 6.99998 219 7H198.835L198.224 3.6425C198.14 3.18167 197.897 2.76484 197.538 2.46468C197.178 2.16452 196.725 2.00007 196.256 2H194C193.735 2 193.48 2.10536 193.293 2.29289C193.105 2.48043 193 2.73478 193 3C193 3.26522 193.105 3.51957 193.293 3.70711C193.48 3.89464 193.735 4 194 4H196.25L199.445 21.5362C199.539 22.0563 199.769 22.5423 200.111 22.945C199.639 23.3863 199.298 23.9498 199.126 24.573C198.954 25.1962 198.959 25.8549 199.138 26.4759C199.318 27.0968 199.666 27.6559 200.144 28.0911C200.622 28.5263 201.212 28.8205 201.847 28.9412C202.482 29.062 203.138 29.0044 203.742 28.775C204.347 28.5456 204.876 28.1533 205.271 27.6416C205.666 27.1299 205.911 26.5187 205.98 25.8759C206.049 25.2332 205.939 24.5838 205.661 24H211.339C211.115 24.4684 210.999 24.981 211 25.5C211 26.1922 211.205 26.8689 211.59 27.4445C211.974 28.0201 212.521 28.4687 213.161 28.7336C213.8 28.9985 214.504 29.0678 215.183 28.9327C215.862 28.7977 216.485 28.4644 216.975 27.9749C217.464 27.4854 217.798 26.8617 217.933 26.1828C218.068 25.5039 217.998 24.8001 217.734 24.1606C217.469 23.5211 217.02 22.9744 216.444 22.5899C215.869 22.2053 215.192 22 214.5 22H202.396C202.162 22 201.935 21.9177 201.756 21.7677C201.576 21.6176 201.454 21.4092 201.413 21.1787L201.016 19H215.516C216.219 18.9999 216.899 18.7532 217.438 18.303C217.978 17.8527 218.342 17.2275 218.468 16.5362L219.987 8.17875C220.013 8.0343 220.007 7.88596 219.969 7.74424C219.931 7.60253 219.862 7.47092 219.767 7.35875ZM214.5 24C214.797 24 215.087 24.088 215.333 24.2528C215.58 24.4176 215.772 24.6519 215.886 24.926C215.999 25.2001 216.029 25.5017 215.971 25.7926C215.913 26.0836 215.77 26.3509 215.561 26.5607C215.351 26.7704 215.084 26.9133 214.793 26.9712C214.502 27.0291 214.2 26.9993 213.926 26.8858C213.652 26.7723 213.418 26.58 213.253 26.3334C213.088 26.0867 213 25.7967 213 25.5C213 25.1022 213.158 24.7206 213.439 24.4393C213.721 24.158 214.102 24 214.5 24ZM202.5 24C202.797 24 203.087 24.088 203.333 24.2528C203.58 24.4176 203.772 24.6519 203.886 24.926C203.999 25.2001 204.029 25.5017 203.971 25.7926C203.913 26.0836 203.77 26.3509 203.561 26.5607C203.351 26.7704 203.084 26.9133 202.793 26.9712C202.502 27.0291 202.2 26.9993 201.926 26.8858C201.652 26.7723 201.418 26.58 201.253 26.3334C201.088 26.0867 201 25.7967 201 25.5C201 25.1022 201.158 24.7206 201.439 24.4393C201.721 24.158 202.102 24 202.5 24Z" fill="currentColor"/>
<path opacity="0.2" d="M267 8L265.48 16.3575C265.396 16.8183 265.153 17.2352 264.794 17.5353C264.434 17.8355 263.981 17.9999 263.513 18H247.819L246 8H267Z" fill="currentColor"/>
<path d="M267.767 7.35875C267.674 7.24642 267.556 7.15607 267.424 7.09408C267.291 7.03209 267.146 6.99998 267 7H246.835L246.224 3.6425C246.14 3.18167 245.897 2.76484 245.538 2.46468C245.178 2.16452 244.725 2.00007 244.256 2H242C241.735 2 241.48 2.10536 241.293 2.29289C241.105 2.48043 241 2.73478 241 3C241 3.26522 241.105 3.51957 241.293 3.70711C241.48 3.89464 241.735 4 242 4H244.25L247.445 21.5362C247.539 22.0563 247.769 22.5423 248.111 22.945C247.639 23.3863 247.298 23.9498 247.126 24.573C246.954 25.1962 246.959 25.8549 247.138 26.4759C247.318 27.0968 247.666 27.6559 248.144 28.0911C248.622 28.5263 249.212 28.8205 249.847 28.9412C250.482 29.062 251.138 29.0044 251.742 28.775C252.347 28.5456 252.876 28.1533 253.271 27.6416C253.666 27.1299 253.911 26.5187 253.98 25.8759C254.049 25.2332 253.939 24.5838 253.661 24H259.339C259.115 24.4684 258.999 24.981 259 25.5C259 26.1922 259.205 26.8689 259.59 27.4445C259.974 28.0201 260.521 28.4687 261.161 28.7336C261.8 28.9985 262.504 29.0678 263.183 28.9327C263.862 28.7977 264.485 28.4644 264.975 27.9749C265.464 27.4854 265.798 26.8617 265.933 26.1828C266.068 25.5039 265.998 24.8001 265.734 24.1606C265.469 23.5211 265.02 22.9744 264.444 22.5899C263.869 22.2053 263.192 22 262.5 22H250.396C250.162 22 249.935 21.9177 249.756 21.7677C249.576 21.6176 249.454 21.4092 249.413 21.1787L249.016 19H263.516C264.219 18.9999 264.899 18.7532 265.438 18.303C265.978 17.8527 266.342 17.2275 266.468 16.5362L267.987 8.17875C268.013 8.0343 268.007 7.88596 267.969 7.74424C267.931 7.60253 267.862 7.47092 267.767 7.35875ZM252 25.5C252 25.7967 251.912 26.0867 251.747 26.3334C251.582 26.58 251.348 26.7723 251.074 26.8858C250.8 26.9993 250.498 27.0291 250.207 26.9712C249.916 26.9133 249.649 26.7704 249.439 26.5607C249.23 26.3509 249.087 26.0836 249.029 25.7926C248.971 25.5017 249.001 25.2001 249.114 24.926C249.228 24.6519 249.42 24.4176 249.667 24.2528C249.913 24.088 250.203 24 250.5 24C250.898 24 251.279 24.158 251.561 24.4393C251.842 24.7206 252 25.1022 252 25.5ZM264 25.5C264 25.7967 263.912 26.0867 263.747 26.3334C263.582 26.58 263.348 26.7723 263.074 26.8858C262.8 26.9993 262.498 27.0291 262.207 26.9712C261.916 26.9133 261.649 26.7704 261.439 26.5607C261.23 26.3509 261.087 26.0836 261.029 25.7926C260.971 25.5017 261.001 25.2001 261.114 24.926C261.228 24.6519 261.42 24.4176 261.667 24.2528C261.913 24.088 262.203 24 262.5 24C262.898 24 263.279 24.158 263.561 24.4393C263.842 24.7206 264 25.1022 264 25.5ZM264.5 16.1787C264.458 16.4098 264.336 16.6187 264.156 16.7689C263.975 16.919 263.747 17.0008 263.513 17H248.653L247.199 9H265.801L264.5 16.1787Z" fill="currentColor"/>
</g>
<defs>
<clipPath id="clip0_17_7515">
<rect width="272" height="32" rx="5" fill="white"/>
</clipPath>
</defs>
</svg>
