<svg width="272" height="32" viewBox="0 0 272 32" fill="none" xmlns="http://www.w3.org/2000/svg">
<g clip-path="url(#clip0_17_7487)">
<path d="M8 29.5C8 29.7967 7.91203 30.0867 7.7472 30.3334C7.58238 30.58 7.34811 30.7723 7.07403 30.8858C6.79994 30.9994 6.49834 31.0291 6.20737 30.9712C5.91639 30.9133 5.64912 30.7704 5.43934 30.5607C5.22956 30.3509 5.0867 30.0836 5.02882 29.7926C4.97094 29.5017 5.00065 29.2001 5.11418 28.926C5.22771 28.6519 5.41997 28.4176 5.66665 28.2528C5.91332 28.088 6.20333 28 6.5 28C6.89783 28 7.27936 28.158 7.56066 28.4394C7.84197 28.7207 8 29.1022 8 29.5ZM10.5 24C10.2033 24 9.91332 24.088 9.66665 24.2528C9.41997 24.4176 9.22771 24.6519 9.11418 24.926C9.00065 25.2001 8.97094 25.5017 9.02882 25.7926C9.0867 26.0836 9.22956 26.3509 9.43934 26.5607C9.64912 26.7704 9.91639 26.9133 10.2074 26.9712C10.4983 27.0291 10.7999 26.9994 11.074 26.8858C11.3481 26.7723 11.5824 26.58 11.7472 26.3334C11.912 26.0867 12 25.7967 12 25.5C12 25.1022 11.842 24.7207 11.5607 24.4394C11.2794 24.158 10.8978 24 10.5 24ZM2.5 24C2.20333 24 1.91332 24.088 1.66665 24.2528C1.41997 24.4176 1.22771 24.6519 1.11418 24.926C1.00065 25.2001 0.970945 25.5017 1.02882 25.7926C1.0867 26.0836 1.22956 26.3509 1.43934 26.5607C1.64912 26.7704 1.91639 26.9133 2.20737 26.9712C2.49834 27.0291 2.79994 26.9994 3.07403 26.8858C3.34811 26.7723 3.58238 26.58 3.74721 26.3334C3.91203 26.0867 4 25.7967 4 25.5C4 25.1022 3.84197 24.7207 3.56066 24.4394C3.27936 24.158 2.89783 24 2.5 24ZM6.5 20C6.20333 20 5.91332 20.088 5.66665 20.2528C5.41997 20.4176 5.22771 20.6519 5.11418 20.926C5.00065 21.2001 4.97094 21.5017 5.02882 21.7926C5.0867 22.0836 5.22956 22.3509 5.43934 22.5607C5.64912 22.7704 5.91639 22.9133 6.20737 22.9712C6.49834 23.0291 6.79994 22.9994 7.07403 22.8858C7.34811 22.7723 7.58238 22.58 7.7472 22.3334C7.91203 22.0867 8 21.7967 8 21.5C8 21.1022 7.84197 20.7207 7.56066 20.4394C7.27936 20.158 6.89783 20 6.5 20ZM32 5.00001C32 5.26523 31.8946 5.51958 31.7071 5.70712C31.5196 5.89465 31.2652 6.00001 31 6.00001H27.4137L23.9325 9.48251L21.225 25.3313C21.1641 25.6933 21.0046 26.0317 20.7642 26.3091C20.5237 26.5866 20.2115 26.7925 19.8617 26.9043C19.512 27.0162 19.1382 27.0295 18.7814 26.943C18.4245 26.8564 18.0984 26.6734 17.8388 26.4138L5.58875 14.1638C5.32875 13.9039 5.14541 13.5774 5.05887 13.2201C4.97233 12.8628 4.98593 12.4886 5.09817 12.1385C5.21042 11.7885 5.41698 11.4761 5.69515 11.2358C5.97333 10.9955 6.31236 10.8365 6.675 10.7763L22.5175 8.06751L26 4.58626C26.185 4.39973 26.4053 4.25185 26.648 4.15121C26.8907 4.05057 27.151 3.99917 27.4137 4.00001H31C31.2652 4.00001 31.5196 4.10537 31.7071 4.2929C31.8946 4.48044 32 4.73479 32 5.00001ZM21.7763 10.2238L7 12.75L19.25 25L21.7763 10.2238Z" fill="currentColor"/>
<path d="M55.5 29.5C55.5 29.6978 55.4414 29.8912 55.3315 30.0556C55.2216 30.2201 55.0654 30.3482 54.8827 30.4239C54.7 30.4996 54.4989 30.5194 54.3049 30.4808C54.1109 30.4422 53.9327 30.347 53.7929 30.2072C53.653 30.0673 53.5578 29.8891 53.5192 29.6951C53.4806 29.5012 53.5004 29.3001 53.5761 29.1174C53.6518 28.9346 53.78 28.7785 53.9444 28.6686C54.1089 28.5587 54.3022 28.5 54.5 28.5C54.7652 28.5 55.0196 28.6054 55.2071 28.7929C55.3946 28.9805 55.5 29.2348 55.5 29.5ZM58.5 24.5C58.3022 24.5 58.1089 24.5587 57.9444 24.6686C57.78 24.7785 57.6518 24.9346 57.5761 25.1174C57.5004 25.3001 57.4806 25.5012 57.5192 25.6951C57.5578 25.8891 57.653 26.0673 57.7929 26.2072C57.9327 26.347 58.1109 26.4422 58.3049 26.4808C58.4989 26.5194 58.7 26.4996 58.8827 26.4239C59.0654 26.3482 59.2216 26.2201 59.3315 26.0556C59.4414 25.8912 59.5 25.6978 59.5 25.5C59.5 25.2348 59.3946 24.9805 59.2071 24.7929C59.0196 24.6054 58.7652 24.5 58.5 24.5ZM50.5 24.5C50.3022 24.5 50.1089 24.5587 49.9444 24.6686C49.78 24.7785 49.6518 24.9346 49.5761 25.1174C49.5004 25.3001 49.4806 25.5012 49.5192 25.6951C49.5578 25.8891 49.653 26.0673 49.7929 26.2072C49.9327 26.347 50.1109 26.4422 50.3049 26.4808C50.4989 26.5194 50.7 26.4996 50.8827 26.4239C51.0654 26.3482 51.2216 26.2201 51.3315 26.0556C51.4414 25.8912 51.5 25.6978 51.5 25.5C51.5 25.2348 51.3946 24.9805 51.2071 24.7929C51.0196 24.6054 50.7652 24.5 50.5 24.5ZM54.5 20.5C54.3022 20.5 54.1089 20.5587 53.9444 20.6686C53.78 20.7785 53.6518 20.9346 53.5761 21.1174C53.5004 21.3001 53.4806 21.5012 53.5192 21.6951C53.5578 21.8891 53.653 22.0673 53.7929 22.2072C53.9327 22.347 54.1109 22.4422 54.3049 22.4808C54.4989 22.5194 54.7 22.4996 54.8827 22.4239C55.0654 22.3482 55.2216 22.2201 55.3315 22.0556C55.4414 21.8912 55.5 21.6978 55.5 21.5C55.5 21.2348 55.3946 20.9805 55.2071 20.7929C55.0196 20.6054 54.7652 20.5 54.5 20.5ZM79.5 5.00005C79.5 5.13266 79.4473 5.25984 79.3536 5.3536C79.2598 5.44737 79.1326 5.50005 79 5.50005H75.4137C75.2815 5.50028 75.1548 5.55286 75.0613 5.6463L71.4662 9.2413L68.7325 25.25C68.6869 25.5215 68.5675 25.7752 68.3874 25.9833C68.2073 26.1914 67.9734 26.346 67.7113 26.43C67.562 26.4771 67.4064 26.5007 67.25 26.5C66.8532 26.499 66.4729 26.3408 66.1925 26.06L53.9425 13.8101C53.7471 13.6157 53.609 13.3712 53.5434 13.1035C53.4778 12.8358 53.4872 12.5552 53.5707 12.2925C53.6541 12.0298 53.8083 11.7951 54.0163 11.6143C54.2244 11.4335 54.4782 11.3135 54.75 11.2676L70.75 8.5338L74.345 4.9388C74.485 4.79826 74.6516 4.68706 74.8352 4.61172C75.0187 4.53639 75.2154 4.49842 75.4137 4.50005H79C79.1326 4.50005 79.2598 4.55273 79.3536 4.6465C79.4473 4.74027 79.5 4.86744 79.5 5.00005ZM70.3888 9.6113L54.9213 12.2501C54.8303 12.2647 54.7451 12.3042 54.6752 12.3642C54.6053 12.4242 54.5533 12.5023 54.525 12.59C54.4966 12.6777 54.4931 12.7715 54.5147 12.861C54.5363 12.9506 54.5823 13.0325 54.6475 13.0976L66.8975 25.3475C66.9624 25.4127 67.0441 25.4587 67.1335 25.4805C67.2229 25.5022 67.3165 25.4989 67.4041 25.4709C67.4917 25.4428 67.5699 25.3911 67.6301 25.3215C67.6902 25.2519 67.73 25.1671 67.745 25.0763L70.3888 9.6113Z" fill="currentColor"/>
<path d="M103.75 29.5002C103.75 29.7474 103.677 29.9891 103.539 30.1947C103.402 30.4002 103.207 30.5605 102.978 30.6551C102.75 30.7497 102.499 30.7744 102.256 30.7262C102.014 30.678 101.791 30.5589 101.616 30.3841C101.441 30.2093 101.322 29.9866 101.274 29.7441C101.226 29.5016 101.251 29.2503 101.345 29.0219C101.44 28.7935 101.6 28.5982 101.806 28.4609C102.011 28.3235 102.253 28.2502 102.5 28.2502C102.832 28.2502 103.149 28.3819 103.384 28.6163C103.618 28.8508 103.75 29.1687 103.75 29.5002ZM106.5 24.2502C106.253 24.2502 106.011 24.3235 105.806 24.4609C105.6 24.5982 105.44 24.7935 105.345 25.0219C105.251 25.2503 105.226 25.5016 105.274 25.7441C105.322 25.9866 105.441 26.2093 105.616 26.3841C105.791 26.5589 106.014 26.678 106.256 26.7262C106.499 26.7744 106.75 26.7497 106.978 26.6551C107.207 26.5605 107.402 26.4002 107.539 26.1947C107.677 25.9891 107.75 25.7474 107.75 25.5002C107.75 25.1687 107.618 24.8508 107.384 24.6163C107.149 24.3819 106.832 24.2502 106.5 24.2502ZM98.5 24.2502C98.2528 24.2502 98.0111 24.3235 97.8055 24.4609C97.6 24.5982 97.4398 24.7935 97.3452 25.0219C97.2505 25.2503 97.2258 25.5016 97.274 25.7441C97.3223 25.9866 97.4413 26.2093 97.6161 26.3841C97.7909 26.5589 98.0137 26.678 98.2561 26.7262C98.4986 26.7744 98.7499 26.7497 98.9784 26.6551C99.2068 26.5605 99.402 26.4002 99.5393 26.1947C99.6767 25.9891 99.75 25.7474 99.75 25.5002C99.75 25.1687 99.6183 24.8508 99.3839 24.6163C99.1495 24.3819 98.8315 24.2502 98.5 24.2502ZM102.5 20.2502C102.253 20.2502 102.011 20.3235 101.806 20.4609C101.6 20.5982 101.44 20.7935 101.345 21.0219C101.251 21.2503 101.226 21.5016 101.274 21.7441C101.322 21.9866 101.441 22.2093 101.616 22.3841C101.791 22.5589 102.014 22.678 102.256 22.7262C102.499 22.7744 102.75 22.7497 102.978 22.6551C103.207 22.5605 103.402 22.4002 103.539 22.1947C103.677 21.9891 103.75 21.7474 103.75 21.5002C103.75 21.1687 103.618 20.8508 103.384 20.6163C103.149 20.3819 102.832 20.2502 102.5 20.2502ZM127.75 5.00022C127.75 5.19913 127.671 5.3899 127.53 5.53055C127.39 5.6712 127.199 5.75022 127 5.75022H123.414C123.348 5.7505 123.284 5.77702 123.237 5.82397L119.699 9.36147L116.979 25.2902C116.925 25.6071 116.786 25.9032 116.575 26.146C116.365 26.3888 116.091 26.569 115.785 26.6667C115.479 26.7645 115.152 26.776 114.84 26.7001C114.527 26.6242 114.242 26.4638 114.015 26.2365L101.765 13.9865C101.538 13.7591 101.377 13.4735 101.302 13.1609C101.226 12.8484 101.238 12.521 101.336 12.2148C101.434 11.9086 101.615 11.6353 101.858 11.425C102.101 11.2147 102.398 11.0755 102.715 11.0227L118.64 8.30272L122.177 4.76397C122.34 4.60114 122.533 4.47202 122.745 4.38406C122.957 4.29611 123.185 4.25104 123.415 4.25147H127C127.199 4.25147 127.389 4.33031 127.53 4.4707C127.671 4.61108 127.75 4.80152 127.75 5.00022ZM118.083 9.91772L102.963 12.5002C102.917 12.5073 102.874 12.5268 102.839 12.5567C102.804 12.5866 102.777 12.6256 102.763 12.6695C102.749 12.7134 102.747 12.7604 102.757 12.8053C102.768 12.8502 102.791 12.8913 102.824 12.924L115.074 25.174C115.106 25.2066 115.147 25.2295 115.192 25.2404C115.237 25.2512 115.283 25.2495 115.327 25.2354C115.371 25.2213 115.41 25.1954 115.44 25.1605C115.47 25.1257 115.49 25.0831 115.497 25.0377L118.083 9.91772Z" fill="currentColor"/>
<path d="M152.5 29.5C152.5 29.8956 152.383 30.2823 152.163 30.6112C151.943 30.94 151.631 31.1964 151.265 31.3478C150.9 31.4991 150.498 31.5388 150.11 31.4616C149.722 31.3844 149.365 31.1939 149.086 30.9142C148.806 30.6345 148.616 30.2782 148.538 29.8902C148.461 29.5022 148.501 29.1001 148.652 28.7346C148.804 28.3692 149.06 28.0568 149.389 27.8371C149.718 27.6173 150.104 27.5 150.5 27.5C151.03 27.5 151.539 27.7107 151.914 28.0858C152.289 28.4609 152.5 28.9696 152.5 29.5ZM154.5 23.5C154.104 23.5 153.718 23.6173 153.389 23.8371C153.06 24.0568 152.804 24.3692 152.652 24.7346C152.501 25.1001 152.461 25.5022 152.538 25.8902C152.616 26.2782 152.806 26.6345 153.086 26.9142C153.365 27.1939 153.722 27.3844 154.11 27.4616C154.498 27.5388 154.9 27.4991 155.265 27.3478C155.631 27.1964 155.943 26.94 156.163 26.6112C156.383 26.2823 156.5 25.8956 156.5 25.5C156.5 24.9696 156.289 24.4609 155.914 24.0858C155.539 23.7107 155.03 23.5 154.5 23.5ZM146.5 23.5C146.104 23.5 145.718 23.6173 145.389 23.8371C145.06 24.0568 144.804 24.3692 144.652 24.7346C144.501 25.1001 144.461 25.5022 144.538 25.8902C144.616 26.2782 144.806 26.6345 145.086 26.9142C145.365 27.1939 145.722 27.3844 146.11 27.4616C146.498 27.5388 146.9 27.4991 147.265 27.3478C147.631 27.1964 147.943 26.94 148.163 26.6112C148.383 26.2823 148.5 25.8956 148.5 25.5C148.5 24.9696 148.289 24.4609 147.914 24.0858C147.539 23.7107 147.03 23.5 146.5 23.5ZM150.5 23.5C150.896 23.5 151.282 23.3827 151.611 23.1629C151.94 22.9432 152.196 22.6308 152.348 22.2654C152.499 21.8999 152.539 21.4978 152.462 21.1098C152.384 20.7219 152.194 20.3655 151.914 20.0858C151.635 19.8061 151.278 19.6156 150.89 19.5384C150.502 19.4613 150.1 19.5009 149.735 19.6523C149.369 19.8036 149.057 20.06 148.837 20.3889C148.617 20.7178 148.5 21.1044 148.5 21.5C148.5 22.0304 148.711 22.5392 149.086 22.9142C149.461 23.2893 149.97 23.5 150.5 23.5ZM176 5.00001C176 5.39783 175.842 5.77936 175.561 6.06067C175.279 6.34197 174.898 6.50001 174.5 6.50001H171.625L168.399 9.72376L165.718 25.4163C165.641 25.8685 165.441 26.291 165.14 26.6374C164.84 26.9838 164.449 27.2408 164.012 27.3802C163.575 27.5196 163.108 27.536 162.663 27.4278C162.217 27.3195 161.809 27.0906 161.485 26.7663L149.235 14.5163C148.91 14.1916 148.68 13.7836 148.572 13.3372C148.464 12.8907 148.48 12.4229 148.62 11.9853C148.76 11.5477 149.018 11.1572 149.366 10.8565C149.713 10.5559 150.137 10.3569 150.59 10.2813L166.278 7.60126L169.646 4.23251C169.878 3.99957 170.153 3.81488 170.457 3.68914C170.76 3.56341 171.085 3.49912 171.414 3.50001H174.5C174.898 3.50001 175.279 3.65804 175.561 3.93935C175.842 4.22065 176 4.60218 176 5.00001ZM165.165 10.835L152.04 13.0775L162.924 23.9613L165.165 10.835Z" fill="currentColor"/>
<path d="M200 29.5C200 29.7967 199.912 30.0867 199.747 30.3334C199.582 30.58 199.348 30.7723 199.074 30.8858C198.8 30.9994 198.498 31.0291 198.207 30.9712C197.916 30.9133 197.649 30.7704 197.439 30.5607C197.23 30.3509 197.087 30.0836 197.029 29.7926C196.971 29.5017 197.001 29.2001 197.114 28.926C197.228 28.6519 197.42 28.4176 197.667 28.2528C197.913 28.088 198.203 28 198.5 28C198.898 28 199.279 28.158 199.561 28.4394C199.842 28.7207 200 29.1022 200 29.5ZM202.5 24C202.203 24 201.913 24.088 201.667 24.2528C201.42 24.4176 201.228 24.6519 201.114 24.926C201.001 25.2001 200.971 25.5017 201.029 25.7926C201.087 26.0836 201.23 26.3509 201.439 26.5607C201.649 26.7704 201.916 26.9133 202.207 26.9712C202.498 27.0291 202.8 26.9994 203.074 26.8858C203.348 26.7723 203.582 26.58 203.747 26.3334C203.912 26.0867 204 25.7967 204 25.5C204 25.1022 203.842 24.7207 203.561 24.4394C203.279 24.158 202.898 24 202.5 24ZM194.5 24C194.203 24 193.913 24.088 193.667 24.2528C193.42 24.4176 193.228 24.6519 193.114 24.926C193.001 25.2001 192.971 25.5017 193.029 25.7926C193.087 26.0836 193.23 26.3509 193.439 26.5607C193.649 26.7704 193.916 26.9133 194.207 26.9712C194.498 27.0291 194.8 26.9994 195.074 26.8858C195.348 26.7723 195.582 26.58 195.747 26.3334C195.912 26.0867 196 25.7967 196 25.5C196 25.1022 195.842 24.7207 195.561 24.4394C195.279 24.158 194.898 24 194.5 24ZM198.5 20C198.203 20 197.913 20.088 197.667 20.2528C197.42 20.4176 197.228 20.6519 197.114 20.926C197.001 21.2001 196.971 21.5017 197.029 21.7926C197.087 22.0836 197.23 22.3509 197.439 22.5607C197.649 22.7704 197.916 22.9133 198.207 22.9712C198.498 23.0291 198.8 22.9994 199.074 22.8858C199.348 22.7723 199.582 22.58 199.747 22.3334C199.912 22.0867 200 21.7967 200 21.5C200 21.1022 199.842 20.7207 199.561 20.4394C199.279 20.158 198.898 20 198.5 20ZM223 4.00001H219.414C219.151 3.99917 218.891 4.05057 218.648 4.15121C218.405 4.25185 218.185 4.39973 218 4.58626L214.517 8.06751L198.673 10.7738C198.31 10.834 197.971 10.993 197.693 11.2333C197.414 11.4736 197.208 11.786 197.096 12.136C196.983 12.4861 196.97 12.8603 197.056 13.2176C197.143 13.5749 197.326 13.9014 197.586 14.1613L209.836 26.4113C210.096 26.6709 210.422 26.8539 210.779 26.9405C211.136 27.027 211.509 27.0137 211.859 26.9018C212.209 26.79 212.521 26.5841 212.762 26.3066C213.002 26.0292 213.162 25.6908 213.222 25.3288L215.933 9.48251L219.414 6.00001H223C223.265 6.00001 223.52 5.89465 223.707 5.70712C223.895 5.51958 224 5.26523 224 5.00001C224 4.73479 223.895 4.48044 223.707 4.2929C223.52 4.10537 223.265 4.00001 223 4.00001Z" fill="currentColor"/>
<path opacity="0.2" d="M263 9L260.239 25.1637C260.208 25.3448 260.129 25.5139 260.009 25.6527C259.889 25.7915 259.733 25.8946 259.558 25.9506C259.383 26.0066 259.196 26.0135 259.018 25.9704C258.839 25.9273 258.676 25.8359 258.546 25.7062L246.296 13.4563C246.167 13.3263 246.075 13.1632 246.032 12.9848C245.989 12.8064 245.996 12.6195 246.052 12.4447C246.108 12.2699 246.211 12.1139 246.35 11.9938C246.489 11.8737 246.658 11.7941 246.839 11.7638L263 9Z" fill="currentColor"/>
<path d="M248 29.5C248 29.7967 247.912 30.0867 247.747 30.3334C247.582 30.58 247.348 30.7723 247.074 30.8858C246.8 30.9994 246.498 31.0291 246.207 30.9712C245.916 30.9133 245.649 30.7704 245.439 30.5607C245.23 30.3509 245.087 30.0836 245.029 29.7926C244.971 29.5017 245.001 29.2001 245.114 28.926C245.228 28.6519 245.42 28.4176 245.667 28.2528C245.913 28.088 246.203 28 246.5 28C246.898 28 247.279 28.158 247.561 28.4394C247.842 28.7207 248 29.1022 248 29.5ZM250.5 24C250.203 24 249.913 24.088 249.667 24.2528C249.42 24.4176 249.228 24.6519 249.114 24.926C249.001 25.2001 248.971 25.5017 249.029 25.7926C249.087 26.0836 249.23 26.3509 249.439 26.5607C249.649 26.7704 249.916 26.9133 250.207 26.9712C250.498 27.0291 250.8 26.9994 251.074 26.8858C251.348 26.7723 251.582 26.58 251.747 26.3334C251.912 26.0867 252 25.7967 252 25.5C252 25.1022 251.842 24.7207 251.561 24.4394C251.279 24.158 250.898 24 250.5 24ZM242.5 24C242.203 24 241.913 24.088 241.667 24.2528C241.42 24.4176 241.228 24.6519 241.114 24.926C241.001 25.2001 240.971 25.5017 241.029 25.7926C241.087 26.0836 241.23 26.3509 241.439 26.5607C241.649 26.7704 241.916 26.9133 242.207 26.9712C242.498 27.0291 242.8 26.9994 243.074 26.8858C243.348 26.7723 243.582 26.58 243.747 26.3334C243.912 26.0867 244 25.7967 244 25.5C244 25.1022 243.842 24.7207 243.561 24.4394C243.279 24.158 242.898 24 242.5 24ZM246.5 20C246.203 20 245.913 20.088 245.667 20.2528C245.42 20.4176 245.228 20.6519 245.114 20.926C245.001 21.2001 244.971 21.5017 245.029 21.7926C245.087 22.0836 245.23 22.3509 245.439 22.5607C245.649 22.7704 245.916 22.9133 246.207 22.9712C246.498 23.0291 246.8 22.9994 247.074 22.8858C247.348 22.7723 247.582 22.58 247.747 22.3334C247.912 22.0867 248 21.7967 248 21.5C248 21.1022 247.842 20.7207 247.561 20.4394C247.279 20.158 246.898 20 246.5 20ZM272 5.00001C272 5.26523 271.895 5.51958 271.707 5.70712C271.52 5.89465 271.265 6.00001 271 6.00001H267.414L263.933 9.48251L261.225 25.3313C261.164 25.6933 261.005 26.0317 260.764 26.3091C260.524 26.5866 260.211 26.7925 259.862 26.9043C259.512 27.0162 259.138 27.0295 258.781 26.943C258.425 26.8564 258.098 26.6734 257.839 26.4138L245.589 14.1638C245.329 13.9039 245.145 13.5774 245.059 13.2201C244.972 12.8628 244.986 12.4886 245.098 12.1385C245.21 11.7885 245.417 11.4761 245.695 11.2358C245.973 10.9955 246.312 10.8365 246.675 10.7763L262.517 8.06751L266 4.58626C266.185 4.39973 266.405 4.25185 266.648 4.15121C266.891 4.05057 267.151 3.99917 267.414 4.00001H271C271.265 4.00001 271.52 4.10537 271.707 4.2929C271.895 4.48044 272 4.73479 272 5.00001ZM261.776 10.2238L247 12.75L259.25 25L261.776 10.2238Z" fill="currentColor"/>
</g>
<defs>
<clipPath id="clip0_17_7487">
<rect width="272" height="32" rx="5" fill="white"/>
</clipPath>
</defs>
</svg>
