<svg width="272" height="32" viewBox="0 0 272 32" fill="none" xmlns="http://www.w3.org/2000/svg">
<g clip-path="url(#clip0_17_7431)">
<path d="M25 8V5C25 4.46957 24.7893 3.96086 24.4142 3.58579C24.0391 3.21071 23.5304 3 23 3H9C8.46957 3 7.96086 3.21071 7.58579 3.58579C7.21071 3.96086 7 4.46957 7 5V8C7 8.53043 7.21071 9.03914 7.58579 9.41421C7.96086 9.78929 8.46957 10 9 10H9.83L7.0125 27.8438C6.97112 28.1056 7.03544 28.3732 7.19132 28.5877C7.3472 28.8022 7.58187 28.946 7.84375 28.9875C7.89541 28.9958 7.94767 29 8 29C8.23788 28.9997 8.46785 28.9145 8.64861 28.7599C8.82937 28.6052 8.94908 28.3912 8.98625 28.1562L9.96 22H22.04L23.0125 28.1562C23.0497 28.3914 23.1696 28.6056 23.3506 28.7603C23.5316 28.9149 23.7619 28.9999 24 29C24.0528 29.0001 24.1054 28.9959 24.1575 28.9875C24.4194 28.946 24.6541 28.8022 24.8099 28.5877C24.9658 28.3732 25.0301 28.1056 24.9888 27.8438L22.17 10H23C23.5304 10 24.0391 9.78929 24.4142 9.41421C24.7893 9.03914 25 8.53043 25 8ZM9 5H23V8H9V5ZM21.7237 20H10.2762L11.855 10H20.145L21.7237 20Z" fill="currentColor"/>
<path d="M72.5 8V5C72.5 4.60218 72.342 4.22064 72.0607 3.93934C71.7794 3.65804 71.3979 3.5 71 3.5H57C56.6022 3.5 56.2207 3.65804 55.9394 3.93934C55.6581 4.22064 55.5 4.60218 55.5 5V8C55.5 8.39782 55.6581 8.77936 55.9394 9.06066C56.2207 9.34196 56.6022 9.5 57 9.5H58.415L55.5063 27.9225C55.4952 27.9878 55.4973 28.0546 55.5123 28.1192C55.5273 28.1837 55.5549 28.2446 55.5937 28.2983C55.6324 28.352 55.6814 28.3975 55.7378 28.4321C55.7943 28.4668 55.8571 28.4898 55.9225 28.5C55.9483 28.5018 55.9742 28.5018 56 28.5C56.1202 28.5015 56.237 28.4595 56.3288 28.3819C56.4206 28.3044 56.4814 28.1963 56.5 28.0775L57.5325 21.5H70.4675L71.5063 28.0775C71.5247 28.1952 71.5846 28.3024 71.6752 28.3799C71.7657 28.4574 71.8809 28.5 72 28.5C72.0264 28.4998 72.0527 28.4977 72.0788 28.4937C72.2097 28.4731 72.3271 28.4014 72.4051 28.2943C72.4832 28.1872 72.5155 28.0534 72.495 27.9225L69.585 9.5H71C71.3979 9.5 71.7794 9.34196 72.0607 9.06066C72.342 8.77936 72.5 8.39782 72.5 8ZM56.5 8V5C56.5 4.86739 56.5527 4.74021 56.6465 4.64645C56.7402 4.55268 56.8674 4.5 57 4.5H71C71.1326 4.5 71.2598 4.55268 71.3536 4.64645C71.4473 4.74021 71.5 4.86739 71.5 5V8C71.5 8.13261 71.4473 8.25979 71.3536 8.35355C71.2598 8.44732 71.1326 8.5 71 8.5H57C56.8674 8.5 56.7402 8.44732 56.6465 8.35355C56.5527 8.25979 56.5 8.13261 56.5 8ZM70.31 20.5H57.685L59.4225 9.5H68.5675L70.31 20.5Z" fill="currentColor"/>
<path d="M120.75 8V5C120.75 4.53587 120.566 4.09075 120.237 3.76256C119.909 3.43437 119.464 3.25 119 3.25H105C104.536 3.25 104.091 3.43437 103.763 3.76256C103.434 4.09075 103.25 4.53587 103.25 5V8C103.25 8.46413 103.434 8.90925 103.763 9.23744C104.091 9.56563 104.536 9.75 105 9.75H106.125L103.259 27.8825C103.243 27.9799 103.247 28.0795 103.27 28.1754C103.293 28.2713 103.335 28.3618 103.393 28.4416C103.451 28.5213 103.524 28.5889 103.609 28.6403C103.693 28.6917 103.786 28.726 103.884 28.7412C103.981 28.7566 104.081 28.7525 104.176 28.7294C104.272 28.7063 104.362 28.6645 104.442 28.6064C104.522 28.5484 104.589 28.4752 104.64 28.3911C104.692 28.307 104.726 28.2136 104.741 28.1162L105.75 21.75H118.25L119.25 28.1162C119.265 28.2136 119.3 28.307 119.351 28.391C119.403 28.4751 119.47 28.5482 119.55 28.6062C119.629 28.6641 119.72 28.7059 119.816 28.7289C119.911 28.752 120.011 28.756 120.108 28.7406C120.206 28.7253 120.299 28.6909 120.383 28.6395C120.467 28.588 120.54 28.5206 120.598 28.4409C120.656 28.3612 120.698 28.2709 120.721 28.1751C120.744 28.0793 120.748 27.9798 120.733 27.8825L117.875 9.75H119C119.464 9.75 119.909 9.56563 120.237 9.23744C120.566 8.90925 120.75 8.46413 120.75 8ZM104.75 8V5C104.75 4.9337 104.776 4.87011 104.823 4.82322C104.87 4.77634 104.934 4.75 105 4.75H119C119.066 4.75 119.13 4.77634 119.177 4.82322C119.224 4.87011 119.25 4.9337 119.25 5V8C119.25 8.0663 119.224 8.12989 119.177 8.17678C119.13 8.22366 119.066 8.25 119 8.25H105C104.934 8.25 104.87 8.22366 104.823 8.17678C104.776 8.12989 104.75 8.0663 104.75 8ZM118.018 20.25H105.983L107.641 9.75H116.359L118.018 20.25Z" fill="currentColor"/>
<path d="M169.5 8V5C169.5 4.33696 169.237 3.70107 168.768 3.23223C168.299 2.76339 167.663 2.5 167 2.5H153C152.337 2.5 151.701 2.76339 151.232 3.23223C150.763 3.70107 150.5 4.33696 150.5 5V8C150.5 8.66304 150.763 9.29893 151.232 9.76777C151.701 10.2366 152.337 10.5 153 10.5H153.25L150.519 27.7663C150.483 27.963 150.487 28.1649 150.53 28.3601C150.573 28.5553 150.655 28.7399 150.771 28.903C150.887 29.0661 151.034 29.2044 151.204 29.3098C151.374 29.4152 151.563 29.4855 151.761 29.5167C151.958 29.5479 152.16 29.5393 152.354 29.4913C152.548 29.4434 152.731 29.3571 152.891 29.2376C153.051 29.118 153.186 28.9676 153.287 28.7953C153.389 28.6229 153.455 28.432 153.481 28.2337L154.387 22.5H165.612L166.519 28.2337C166.545 28.432 166.611 28.6229 166.712 28.7953C166.814 28.9676 166.948 29.118 167.109 29.2376C167.269 29.3571 167.452 29.4434 167.646 29.4913C167.84 29.5393 168.042 29.5479 168.239 29.5167C168.437 29.4855 168.626 29.4152 168.796 29.3098C168.966 29.2044 169.113 29.0661 169.229 28.903C169.345 28.7399 169.426 28.5553 169.47 28.3601C169.513 28.1649 169.517 27.963 169.481 27.7663L166.75 10.5H167C167.663 10.5 168.299 10.2366 168.768 9.76777C169.237 9.29893 169.5 8.66304 169.5 8ZM153.5 5.5H166.5V7.5H153.5V5.5ZM165.139 19.5H154.861L156.281 10.5H163.719L165.139 19.5Z" fill="currentColor"/>
<path d="M217 8V5C217 4.46957 216.789 3.96086 216.414 3.58579C216.039 3.21071 215.53 3 215 3H201C200.47 3 199.961 3.21071 199.586 3.58579C199.211 3.96086 199 4.46957 199 5V8C199 8.53043 199.211 9.03914 199.586 9.41421C199.961 9.78929 200.47 10 201 10H201.83L199.012 27.8438C198.971 28.1056 199.035 28.3732 199.191 28.5877C199.347 28.8022 199.582 28.946 199.844 28.9875C199.895 28.9958 199.948 29 200 29C200.238 28.9997 200.468 28.9145 200.649 28.7599C200.829 28.6052 200.949 28.3912 200.986 28.1562L201.96 22H214.04L215.013 28.1562C215.05 28.3914 215.17 28.6056 215.351 28.7603C215.532 28.9149 215.762 28.9999 216 29C216.053 29.0001 216.105 28.9959 216.157 28.9875C216.419 28.946 216.654 28.8022 216.81 28.5877C216.966 28.3732 217.03 28.1056 216.989 27.8438L214.17 10H215C215.53 10 216.039 9.78929 216.414 9.41421C216.789 9.03914 217 8.53043 217 8ZM213.724 20H202.276L203.855 10H212.145L213.724 20Z" fill="currentColor"/>
<path opacity="0.2" d="M264 5V8C264 8.26522 263.895 8.51957 263.707 8.70711C263.52 8.89464 263.265 9 263 9H249C248.735 9 248.48 8.89464 248.293 8.70711C248.105 8.51957 248 8.26522 248 8V5C248 4.73478 248.105 4.48043 248.293 4.29289C248.48 4.10536 248.735 4 249 4H263C263.265 4 263.52 4.10536 263.707 4.29289C263.895 4.48043 264 4.73478 264 5Z" fill="currentColor"/>
<path d="M265 8V5C265 4.46957 264.789 3.96086 264.414 3.58579C264.039 3.21071 263.53 3 263 3H249C248.47 3 247.961 3.21071 247.586 3.58579C247.211 3.96086 247 4.46957 247 5V8C247 8.53043 247.211 9.03914 247.586 9.41421C247.961 9.78929 248.47 10 249 10H249.83L247.012 27.8438C246.971 28.1056 247.035 28.3732 247.191 28.5877C247.347 28.8022 247.582 28.946 247.844 28.9875C247.895 28.9958 247.948 29 248 29C248.238 28.9997 248.468 28.9145 248.649 28.7599C248.829 28.6052 248.949 28.3912 248.986 28.1562L249.96 22H262.04L263.013 28.1562C263.05 28.3914 263.17 28.6056 263.351 28.7603C263.532 28.9149 263.762 28.9999 264 29C264.053 29.0001 264.105 28.9959 264.157 28.9875C264.419 28.946 264.654 28.8022 264.81 28.5877C264.966 28.3732 265.03 28.1056 264.989 27.8438L262.17 10H263C263.53 10 264.039 9.78929 264.414 9.41421C264.789 9.03914 265 8.53043 265 8ZM249 5H263V8H249V5ZM261.724 20H250.276L251.855 10H260.145L261.724 20Z" fill="currentColor"/>
</g>
<defs>
<clipPath id="clip0_17_7431">
<rect width="272" height="32" rx="5" fill="white"/>
</clipPath>
</defs>
</svg>
