<svg width="272" height="32" viewBox="0 0 272 32" fill="none" xmlns="http://www.w3.org/2000/svg">
<g clip-path="url(#clip0_17_7389)">
<path d="M30.9487 7.6525L24.4787 4.125C24.3322 4.04389 24.1675 4.0009 24 4H20C19.7348 4 19.4804 4.10536 19.2929 4.29289C19.1054 4.48043 19 4.73478 19 5C19 5.79565 18.6839 6.55871 18.1213 7.12132C17.5587 7.68393 16.7956 8 16 8C15.2043 8 14.4413 7.68393 13.8787 7.12132C13.3161 6.55871 13 5.79565 13 5C13 4.73478 12.8946 4.48043 12.7071 4.29289C12.5196 4.10536 12.2652 4 12 4H8C7.83204 4.0007 7.66696 4.04368 7.52 4.125L1.05125 7.6525C0.590125 7.89619 0.244456 8.3128 0.0900368 8.81097C-0.0643825 9.30914 -0.0149487 9.84822 0.227499 10.31L2.63625 14.9113C2.81139 15.2421 3.07392 15.5185 3.39526 15.7105C3.7166 15.9024 4.08444 16.0026 4.45875 16H7V26C7 26.5304 7.21071 27.0391 7.58579 27.4142C7.96086 27.7893 8.46957 28 9 28H23C23.5304 28 24.0391 27.7893 24.4142 27.4142C24.7893 27.0391 25 26.5304 25 26V16H27.5425C27.9168 16.0026 28.2846 15.9024 28.606 15.7105C28.9273 15.5185 29.1899 15.2421 29.365 14.9113L31.7737 10.31C32.0161 9.84807 32.0653 9.30887 31.9107 8.81068C31.756 8.31249 31.4101 7.89598 30.9487 7.6525ZM4.45875 14C4.44027 14.0009 4.4221 13.9951 4.4075 13.9838L2.01125 9.4075L7 6.685V14H4.45875ZM23 26H9V6H11.1C11.3307 7.12895 11.9443 8.14356 12.8369 8.87222C13.7296 9.60089 14.8465 9.99888 15.9987 9.99888C17.151 9.99888 18.2679 9.60089 19.1606 8.87222C20.0532 8.14356 20.6668 7.12895 20.8975 6H23V26ZM27.5937 13.9825C27.5868 13.9887 27.5787 13.9935 27.5699 13.9965C27.5611 13.9995 27.5518 14.0007 27.5425 14H25V6.685L29.99 9.4075L27.5937 13.9825Z" fill="currentColor"/>
<path d="M78.7101 8.09125L72.2388 4.56125C72.1656 4.52123 72.0835 4.50017 72.0001 4.5H68.0001C67.8675 4.5 67.7403 4.55268 67.6465 4.64645C67.5527 4.74021 67.5001 4.86739 67.5001 5C67.5001 5.92826 67.1313 6.8185 66.4749 7.47487C65.8186 8.13125 64.9283 8.5 64.0001 8.5C63.0718 8.5 62.1816 8.13125 61.5252 7.47487C60.8688 6.8185 60.5001 5.92826 60.5001 5C60.5001 4.86739 60.4474 4.74021 60.3536 4.64645C60.2598 4.55268 60.1327 4.5 60.0001 4.5H56.0001C55.9169 4.50076 55.8353 4.52225 55.7626 4.5625L49.2901 8.09125C48.9441 8.27203 48.6839 8.58271 48.5667 8.9551C48.4496 9.32749 48.4849 9.73116 48.6651 10.0775L51.0751 14.6788C51.2074 14.9281 51.4056 15.1365 51.6479 15.2813C51.8903 15.426 52.1677 15.5017 52.4501 15.5H55.5001V26C55.5001 26.3978 55.6581 26.7794 55.9394 27.0607C56.2207 27.342 56.6022 27.5 57.0001 27.5H71.0001C71.3979 27.5 71.7794 27.342 72.0607 27.0607C72.342 26.7794 72.5001 26.3978 72.5001 26V15.5H75.5413C75.8236 15.5017 76.101 15.426 76.3434 15.2813C76.5858 15.1365 76.7839 14.9281 76.9163 14.6788L79.3263 10.0775C79.5071 9.73222 79.5438 9.32938 79.4283 8.95714C79.3128 8.58489 79.0545 8.27355 78.7101 8.09125ZM52.4588 14.5C52.3574 14.5025 52.2573 14.4772 52.1692 14.427C52.0811 14.3768 52.0083 14.3035 51.9588 14.215L49.5551 9.61375C49.526 9.5576 49.5085 9.49621 49.5036 9.4332C49.4986 9.37018 49.5063 9.30681 49.5262 9.24682C49.5462 9.18683 49.5779 9.13143 49.6195 9.08389C49.6612 9.03635 49.712 8.99763 49.7688 8.97L55.5001 5.8425V14.5H52.4588ZM71.5001 26C71.5001 26.1326 71.4474 26.2598 71.3536 26.3536C71.2598 26.4473 71.1327 26.5 71.0001 26.5H57.0001C56.8675 26.5 56.7403 26.4473 56.6465 26.3536C56.5527 26.2598 56.5001 26.1326 56.5001 26V5.5H59.5276C59.6498 6.6007 60.1737 7.61766 60.9988 8.35627C61.824 9.09488 62.8926 9.50327 64.0001 9.50327C65.1075 9.50327 66.1761 9.09488 67.0013 8.35627C67.8265 7.61766 68.3503 6.6007 68.4726 5.5H71.5001V26ZM78.4451 9.61375L76.0363 14.215C75.9868 14.3035 75.914 14.3768 75.8259 14.427C75.7378 14.4772 75.6377 14.5025 75.5363 14.5H72.5001V5.8425L78.2313 8.9675C78.2885 8.99511 78.3395 9.03394 78.3814 9.08167C78.4233 9.1294 78.4551 9.18506 78.4751 9.24535C78.495 9.30563 78.5026 9.36931 78.4975 9.4326C78.4923 9.49588 78.4745 9.55749 78.4451 9.61375Z" fill="currentColor"/>
<path d="M126.83 7.875L120.359 4.3425C120.249 4.2818 120.126 4.24997 120 4.25H116C115.801 4.25 115.61 4.32902 115.47 4.46967C115.329 4.61032 115.25 4.80109 115.25 5C115.25 5.86195 114.908 6.68861 114.298 7.2981C113.689 7.90759 112.862 8.25 112 8.25C111.138 8.25 110.311 7.90759 109.702 7.2981C109.092 6.68861 108.75 5.86195 108.75 5C108.75 4.80109 108.671 4.61032 108.53 4.46967C108.39 4.32902 108.199 4.25 108 4.25H104C103.874 4.24976 103.75 4.28159 103.64 4.3425L97.1701 7.875C96.7675 8.08744 96.4655 8.45067 96.3301 8.88522C96.1947 9.31977 96.237 9.79026 96.4476 10.1938L98.8576 14.795C99.0116 15.0854 99.2424 15.328 99.5247 15.4963C99.807 15.6647 100.13 15.7525 100.459 15.75H103.25V26C103.25 26.4641 103.434 26.9093 103.763 27.2374C104.091 27.5656 104.536 27.75 105 27.75H119C119.464 27.75 119.909 27.5656 120.238 27.2374C120.566 26.9093 120.75 26.4641 120.75 26V15.75H123.543C123.871 15.7525 124.194 15.6647 124.477 15.4963C124.759 15.328 124.99 15.0854 125.144 14.795L127.554 10.1938C127.764 9.79011 127.806 9.3195 127.671 8.88493C127.535 8.45036 127.233 8.08722 126.83 7.875ZM100.455 14.25C100.4 14.2519 100.346 14.2388 100.298 14.2122C100.25 14.1855 100.21 14.1463 100.183 14.0988L97.7763 9.5C97.7628 9.47246 97.7549 9.44245 97.7532 9.41179C97.7516 9.38114 97.7562 9.35046 97.7667 9.32161C97.7772 9.29276 97.7934 9.26634 97.8144 9.24394C97.8354 9.22154 97.8607 9.20361 97.8888 9.19125L103.25 6.26375V14.25H100.455ZM119.25 26C119.25 26.0663 119.224 26.1299 119.177 26.1768C119.13 26.2237 119.066 26.25 119 26.25H105C104.934 26.25 104.87 26.2237 104.823 26.1768C104.776 26.1299 104.75 26.0663 104.75 26V5.75H107.31C107.492 6.86182 108.064 7.87269 108.922 8.60211C109.781 9.33153 110.871 9.73199 111.998 9.73199C113.124 9.73199 114.214 9.33153 115.073 8.60211C115.931 7.87269 116.503 6.86182 116.685 5.75H119.25V26ZM126.225 9.5L123.815 14.1C123.788 14.1476 123.748 14.1868 123.7 14.2134C123.652 14.2401 123.597 14.2531 123.543 14.2513H120.75V6.26375L126.113 9.18875C126.141 9.20135 126.166 9.21953 126.187 9.24219C126.208 9.26485 126.224 9.29153 126.235 9.32062C126.245 9.3497 126.249 9.38059 126.248 9.41142C126.246 9.44225 126.238 9.47238 126.224 9.5H126.225Z" fill="currentColor"/>
<path d="M174.771 7.23751L168.761 3.70626C168.531 3.57027 168.268 3.49901 168 3.50001H164C163.602 3.50001 163.221 3.65805 162.939 3.93935C162.658 4.22065 162.5 4.60219 162.5 5.00001C162.5 5.66305 162.237 6.29894 161.768 6.76778C161.299 7.23662 160.663 7.50001 160 7.50001C159.337 7.50001 158.701 7.23662 158.232 6.76778C157.763 6.29894 157.5 5.66305 157.5 5.00001C157.5 4.60219 157.342 4.22065 157.061 3.93935C156.779 3.65805 156.398 3.50001 156 3.50001H152C151.733 3.49984 151.471 3.57151 151.241 3.70751L145.229 7.23751C144.688 7.56065 144.287 8.07477 144.106 8.67862C143.924 9.28247 143.976 9.93226 144.25 10.5L146.488 15.1C146.687 15.5199 147.002 15.8744 147.395 16.1223C147.788 16.3702 148.244 16.5012 148.709 16.5H150.5V26C150.5 26.6631 150.763 27.2989 151.232 27.7678C151.701 28.2366 152.337 28.5 153 28.5H167C167.663 28.5 168.299 28.2366 168.768 27.7678C169.237 27.2989 169.5 26.6631 169.5 26V16.5H171.29C171.754 16.5007 172.209 16.3699 172.601 16.1228C172.994 15.8757 173.309 15.5224 173.509 15.1038L175.75 10.5C176.024 9.93226 176.076 9.28247 175.895 8.67862C175.713 8.07477 175.313 7.56065 174.771 7.23751ZM149.046 13.5L147.145 9.59126L150.5 7.62501V13.5H149.046ZM166.5 25.5H153.5V6.50001H154.709C155.035 7.6526 155.728 8.6673 156.683 9.38991C157.639 10.1125 158.804 10.5035 160.001 10.5035C161.199 10.5035 162.364 10.1125 163.319 9.38991C164.275 8.6673 164.968 7.6526 165.294 6.50001H166.5V25.5ZM170.953 13.5H169.5V7.62501L172.854 9.59501L170.953 13.5Z" fill="currentColor"/>
<path d="M222.949 7.6525L216.479 4.125C216.332 4.04389 216.168 4.0009 216 4H212C211.735 4 211.48 4.10536 211.293 4.29289C211.105 4.48043 211 4.73478 211 5C211 5.79565 210.684 6.55871 210.121 7.12132C209.559 7.68393 208.796 8 208 8C207.204 8 206.441 7.68393 205.879 7.12132C205.316 6.55871 205 5.79565 205 5C205 4.73478 204.895 4.48043 204.707 4.29289C204.52 4.10536 204.265 4 204 4H200C199.832 4.0007 199.667 4.04368 199.52 4.125L193.051 7.6525C192.59 7.89619 192.244 8.3128 192.09 8.81097C191.936 9.30914 191.985 9.84822 192.227 10.31L194.636 14.9113C194.811 15.2421 195.074 15.5185 195.395 15.7105C195.717 15.9024 196.084 16.0026 196.459 16H199V26C199 26.5304 199.211 27.0391 199.586 27.4142C199.961 27.7893 200.47 28 201 28H215C215.53 28 216.039 27.7893 216.414 27.4142C216.789 27.0391 217 26.5304 217 26V16H219.542C219.917 16.0026 220.285 15.9024 220.606 15.7105C220.927 15.5185 221.19 15.2421 221.365 14.9113L223.774 10.31C224.016 9.84807 224.065 9.30887 223.911 8.81068C223.756 8.31249 223.41 7.89598 222.949 7.6525ZM196.459 14C196.44 14.0009 196.422 13.9951 196.407 13.9838L194.011 9.4075L199 6.685V14H196.459ZM219.592 13.9825C219.586 13.9887 219.577 13.9935 219.569 13.9965C219.56 13.9995 219.551 14.0007 219.541 14H217V6.685L221.99 9.4075L219.592 13.9825Z" fill="currentColor"/>
<path opacity="0.2" d="M270.889 9.84625L268.48 14.4475C268.389 14.6161 268.253 14.7566 268.088 14.8539C267.923 14.9513 267.734 15.0018 267.543 15H264V5L270.473 8.53125C270.702 8.65062 270.875 8.85612 270.953 9.10266C271.031 9.3492 271.008 9.61662 270.889 9.84625ZM241.111 9.84625L243.52 14.4475C243.611 14.6161 243.747 14.7566 243.912 14.8539C244.077 14.9513 244.266 15.0018 244.458 15H248V5L241.528 8.53125C241.298 8.65062 241.126 8.85612 241.047 9.10266C240.969 9.3492 240.992 9.61662 241.111 9.84625Z" fill="currentColor"/>
<path d="M270.949 7.6525L264.479 4.125C264.332 4.04389 264.168 4.0009 264 4H260C259.735 4 259.48 4.10536 259.293 4.29289C259.105 4.48043 259 4.73478 259 5C259 5.79565 258.684 6.55871 258.121 7.12132C257.559 7.68393 256.796 8 256 8C255.204 8 254.441 7.68393 253.879 7.12132C253.316 6.55871 253 5.79565 253 5C253 4.73478 252.895 4.48043 252.707 4.29289C252.52 4.10536 252.265 4 252 4H248C247.832 4.0007 247.667 4.04368 247.52 4.125L241.051 7.6525C240.59 7.89619 240.244 8.3128 240.09 8.81097C239.936 9.30914 239.985 9.84822 240.227 10.31L242.636 14.9113C242.811 15.2421 243.074 15.5185 243.395 15.7105C243.717 15.9024 244.084 16.0026 244.459 16H247V26C247 26.5304 247.211 27.0391 247.586 27.4142C247.961 27.7893 248.47 28 249 28H263C263.53 28 264.039 27.7893 264.414 27.4142C264.789 27.0391 265 26.5304 265 26V16H267.542C267.917 16.0026 268.285 15.9024 268.606 15.7105C268.927 15.5185 269.19 15.2421 269.365 14.9113L271.774 10.31C272.016 9.84807 272.065 9.30887 271.911 8.81068C271.756 8.31249 271.41 7.89598 270.949 7.6525ZM244.459 14C244.44 14.0009 244.422 13.9951 244.407 13.9838L242.011 9.4075L247 6.685V14H244.459ZM263 26H249V6H251.1C251.331 7.12895 251.944 8.14356 252.837 8.87222C253.73 9.60089 254.846 9.99888 255.999 9.99888C257.151 9.99888 258.268 9.60089 259.161 8.87222C260.053 8.14356 260.667 7.12895 260.897 6H263V26ZM267.594 13.9825C267.587 13.9887 267.579 13.9935 267.57 13.9965C267.561 13.9995 267.552 14.0007 267.542 14H265V6.685L269.99 9.4075L267.594 13.9825Z" fill="currentColor"/>
</g>
<defs>
<clipPath id="clip0_17_7389">
<rect width="272" height="32" rx="5" fill="white"/>
</clipPath>
</defs>
</svg>
