<svg width="272" height="32" viewBox="0 0 272 32" fill="none" xmlns="http://www.w3.org/2000/svg">
<g clip-path="url(#clip0_17_7221)">
<path d="M25.6664 11.9587L22.9451 2.7175C22.8841 2.51046 22.7578 2.3287 22.585 2.19937C22.4122 2.07005 22.2022 2.00011 21.9864 2H10.0139C9.79803 2.00011 9.58802 2.07005 9.41522 2.19937C9.24241 2.3287 9.11609 2.51046 9.05511 2.7175L6.33386 11.9587C5.90691 13.3752 5.88457 14.8828 6.26935 16.3113C6.65414 17.7397 7.43072 19.0322 8.51136 20.0425C10.289 21.7095 12.573 22.7343 15.0001 22.9538V28H11.0001C10.7349 28 10.4805 28.1054 10.293 28.2929C10.1055 28.4804 10.0001 28.7348 10.0001 29C10.0001 29.2652 10.1055 29.5196 10.293 29.7071C10.4805 29.8946 10.7349 30 11.0001 30H21.0001C21.2653 30 21.5197 29.8946 21.7072 29.7071C21.8948 29.5196 22.0001 29.2652 22.0001 29C22.0001 28.7348 21.8948 28.4804 21.7072 28.2929C21.5197 28.1054 21.2653 28 21.0001 28H17.0001V22.9538C19.4272 22.7341 21.7111 21.7094 23.4889 20.0425C24.5695 19.0322 25.3461 17.7397 25.7309 16.3113C26.1157 14.8828 26.0933 13.3752 25.6664 11.9587ZM10.7614 4H21.2389L23.7501 12.5238C23.7614 12.5613 23.7714 12.5987 23.7814 12.6362C21.1039 13.5962 18.0889 12.4362 16.4526 11.6075C13.3039 10.0138 10.8039 9.81125 8.96011 10.1163L10.7614 4ZM22.1251 18.5812C20.4646 20.1361 18.2749 21.0012 16.0001 21.0012C13.7253 21.0012 11.5356 20.1361 9.87511 18.5812C9.06646 17.8234 8.48578 16.8547 8.19864 15.7843C7.91149 14.7139 7.92932 13.5845 8.25011 12.5238L8.30636 12.3337C9.80636 11.8263 12.1901 11.6912 15.5476 13.3925C16.9414 14.0988 19.1926 14.9987 21.6014 14.9987C22.4064 15.0027 23.208 14.8933 23.9826 14.6737C23.8806 16.1645 23.2167 17.561 22.1251 18.5812Z" fill="currentColor"/>
<path d="M73.1876 12.1L70.4651 2.85875C70.4346 2.75533 70.3715 2.66452 70.2853 2.59987C70.199 2.53522 70.0941 2.50019 69.9863 2.5H58.0138C57.906 2.50019 57.8011 2.53522 57.7149 2.59987C57.6286 2.66452 57.5655 2.75533 57.5351 2.85875L54.8126 12.1C54.4126 13.4277 54.3916 14.8407 54.7521 16.1796C55.1126 17.5186 55.8401 18.7301 56.8526 19.6775C58.6629 21.3763 61.0202 22.3732 63.5001 22.4888V28.5H59.0001C58.8675 28.5 58.7403 28.5527 58.6465 28.6464C58.5527 28.7402 58.5001 28.8674 58.5001 29C58.5001 29.1326 58.5527 29.2598 58.6465 29.3536C58.7403 29.4473 58.8675 29.5 59.0001 29.5H69.0001C69.1327 29.5 69.2598 29.4473 69.3536 29.3536C69.4474 29.2598 69.5001 29.1326 69.5001 29C69.5001 28.8674 69.4474 28.7402 69.3536 28.6464C69.2598 28.5527 69.1327 28.5 69.0001 28.5H64.5001V22.4888C66.98 22.3732 69.3372 21.3763 71.1476 19.6775C72.16 18.7301 72.8876 17.5186 73.248 16.1796C73.6085 14.8407 73.5876 13.4277 73.1876 12.1ZM58.3876 3.5H69.6126L72.2288 12.3825C72.2826 12.5687 72.3288 12.7575 72.3663 12.9412C69.4113 14.25 66.0213 12.9637 64.2263 12.0538C60.6988 10.2675 58.0413 10.2913 56.2413 10.7863L58.3876 3.5ZM70.4651 18.9463C68.7122 20.5871 66.4011 21.5001 64.0001 21.5001C61.5991 21.5001 59.2879 20.5871 57.5351 18.9463C56.6584 18.1254 56.0287 17.0758 55.717 15.9159C55.4053 14.7561 55.4242 13.5322 55.7713 12.3825L55.8963 11.95C57.4788 11.3412 60.0776 11.075 63.7713 12.95C65.1251 13.625 67.2913 14.5 69.6001 14.5C70.5914 14.5089 71.5754 14.3299 72.5001 13.9725C72.5412 14.8994 72.3806 15.8243 72.0292 16.683C71.6778 17.5418 71.1442 18.314 70.4651 18.9463Z" fill="currentColor"/>
<path d="M121.426 12.0288L118.705 2.7875C118.659 2.63238 118.564 2.49624 118.435 2.39937C118.305 2.30251 118.148 2.25011 117.986 2.25H106.014C105.852 2.25011 105.695 2.30251 105.565 2.39937C105.436 2.49624 105.341 2.63238 105.295 2.7875L102.574 12.0288C102.16 13.4009 102.138 14.8614 102.511 16.2452C102.884 17.629 103.636 18.8811 104.682 19.86C106.476 21.5422 108.796 22.553 111.25 22.7213V28.25H107C106.801 28.25 106.61 28.329 106.47 28.4697C106.329 28.6103 106.25 28.8011 106.25 29C106.25 29.1989 106.329 29.3897 106.47 29.5303C106.61 29.671 106.801 29.75 107 29.75H117C117.199 29.75 117.39 29.671 117.53 29.5303C117.671 29.3897 117.75 29.1989 117.75 29C117.75 28.8011 117.671 28.6103 117.53 28.4697C117.39 28.329 117.199 28.25 117 28.25H112.75V22.7213C115.203 22.5526 117.523 21.5419 119.317 19.86C120.364 18.8811 121.116 17.629 121.489 16.2452C121.862 14.8614 121.84 13.4009 121.426 12.0288ZM106.575 3.75H117.425L119.989 12.4537C120.021 12.5662 120.051 12.6788 120.077 12.7913C117.26 13.925 114.056 12.7 112.339 11.8313C109.012 10.1463 106.435 10.0425 104.604 10.44L106.575 3.75ZM118.294 18.7638C116.587 20.3613 114.337 21.2502 112 21.2502C109.662 21.2502 107.413 20.3613 105.706 18.7638C104.863 17.9746 104.258 16.9656 103.959 15.8505C103.659 14.7355 103.677 13.559 104.011 12.4537L104.104 12.14C105.646 11.5825 108.136 11.3837 111.661 13.1687C113.036 13.8625 115.242 14.7487 117.601 14.7487C118.501 14.7547 119.396 14.6124 120.25 14.3275C120.241 15.1609 120.064 15.9839 119.727 16.7464C119.391 17.509 118.903 18.1954 118.294 18.7638Z" fill="currentColor"/>
<path d="M170.146 11.8175L167.424 2.57625C167.332 2.26579 167.143 1.99322 166.884 1.79925C166.625 1.60528 166.31 1.5003 165.986 1.5H154.014C153.69 1.5003 153.375 1.60528 153.116 1.79925C152.857 1.99322 152.668 2.26579 152.576 2.57625L149.854 11.8175C149.401 13.3229 149.377 14.925 149.787 16.4429C150.196 17.9608 151.021 19.334 152.17 20.4075C153.914 22.0435 156.129 23.0902 158.5 23.4V27.5H155C154.602 27.5 154.221 27.658 153.939 27.9393C153.658 28.2206 153.5 28.6022 153.5 29C153.5 29.3978 153.658 29.7794 153.939 30.0607C154.221 30.342 154.602 30.5 155 30.5H165C165.398 30.5 165.779 30.342 166.061 30.0607C166.342 29.7794 166.5 29.3978 166.5 29C166.5 28.6022 166.342 28.2206 166.061 27.9393C165.779 27.658 165.398 27.5 165 27.5H161.5V23.4C163.872 23.0905 166.086 22.0437 167.831 20.4075C168.98 19.3339 169.805 17.9606 170.214 16.4427C170.623 14.9248 170.6 13.3228 170.146 11.8175ZM155.135 4.5H164.865L167.162 12.3013C165.802 12.6513 163.656 12.6763 160.677 11.1613C157.835 9.7225 155.49 9.375 153.655 9.5275L155.135 4.5ZM160 20.5C157.852 20.5025 155.784 19.6858 154.217 18.2162C153.486 17.529 152.959 16.6528 152.694 15.6846C152.429 14.7164 152.437 13.6939 152.717 12.73C155.022 12.0637 157.547 12.9375 159.326 13.8387C160.77 14.57 163.099 15.4987 165.609 15.4987C166.208 15.5004 166.806 15.4439 167.395 15.33C167.173 16.4365 166.611 17.4459 165.786 18.2162C164.219 19.6867 162.149 20.5035 160 20.5Z" fill="currentColor"/>
<path d="M217.666 11.9587L214.945 2.7175C214.884 2.51046 214.758 2.3287 214.585 2.19937C214.412 2.07005 214.202 2.00011 213.986 2H202.014C201.798 2.00011 201.588 2.07005 201.415 2.19937C201.242 2.3287 201.116 2.51046 201.055 2.7175L198.334 11.9587C197.907 13.3752 197.885 14.8828 198.269 16.3113C198.654 17.7397 199.431 19.0322 200.511 20.0425C202.289 21.7094 204.573 22.7341 207 22.9538V28H203C202.735 28 202.481 28.1054 202.293 28.2929C202.105 28.4804 202 28.7348 202 29C202 29.2652 202.105 29.5196 202.293 29.7071C202.481 29.8946 202.735 30 203 30H213C213.265 30 213.52 29.8946 213.707 29.7071C213.895 29.5196 214 29.2652 214 29C214 28.7348 213.895 28.4804 213.707 28.2929C213.52 28.1054 213.265 28 213 28H209V22.9538C211.427 22.7343 213.711 21.7095 215.489 20.0425C216.569 19.032 217.346 17.7396 217.73 16.3112C218.115 14.8827 218.093 13.3752 217.666 11.9587ZM202.761 4H213.239L215.75 12.5238C215.761 12.5613 215.771 12.5987 215.781 12.6362C213.104 13.5962 210.089 12.4362 208.453 11.6075C205.304 10.0138 202.804 9.81125 200.96 10.1163L202.761 4Z" fill="currentColor"/>
<path opacity="0.2" d="M262.81 19.3124C260.963 21.0409 258.527 22.0025 255.998 22.0025C253.468 22.0025 251.032 21.0409 249.185 19.3124C248.245 18.4249 247.57 17.2939 247.235 16.0454C246.9 14.7969 246.918 13.48 247.288 12.2412L247.484 11.5774C249.061 10.9012 251.9 10.4249 256 12.4999C260.483 14.7699 263.459 13.9862 264.928 13.2299C265.09 14.3393 264.983 15.4717 264.614 16.5306C264.245 17.5896 263.627 18.5439 262.81 19.3124Z" fill="currentColor"/>
<path d="M265.666 11.9587L262.945 2.7175C262.884 2.51046 262.758 2.3287 262.585 2.19937C262.412 2.07005 262.202 2.00011 261.986 2H250.014C249.798 2.00011 249.588 2.07005 249.415 2.19937C249.242 2.3287 249.116 2.51046 249.055 2.7175L246.334 11.9587C245.907 13.3752 245.885 14.8828 246.269 16.3113C246.654 17.7397 247.431 19.0322 248.511 20.0425C250.289 21.7094 252.573 22.7341 255 22.9538V28H251C250.735 28 250.481 28.1054 250.293 28.2929C250.105 28.4804 250 28.7348 250 29C250 29.2652 250.105 29.5196 250.293 29.7071C250.481 29.8946 250.735 30 251 30H261C261.265 30 261.52 29.8946 261.707 29.7071C261.895 29.5196 262 29.2652 262 29C262 28.7348 261.895 28.4804 261.707 28.2929C261.52 28.1054 261.265 28 261 28H257V22.9538C259.427 22.7343 261.711 21.7095 263.489 20.0425C264.569 19.032 265.346 17.7396 265.73 16.3112C266.115 14.8827 266.093 13.3752 265.666 11.9587ZM250.761 4H261.239L263.75 12.5238C263.761 12.5613 263.771 12.5987 263.781 12.6362C261.104 13.5962 258.089 12.4362 256.453 11.6075C253.304 10.0138 250.804 9.81125 248.96 10.1163L250.761 4ZM262.125 18.5812C260.465 20.1361 258.275 21.0012 256 21.0012C253.725 21.0012 251.536 20.1361 249.875 18.5812C249.066 17.8234 248.486 16.8547 248.199 15.7843C247.911 14.7139 247.929 13.5845 248.25 12.5238L248.306 12.3337C249.806 11.8263 252.19 11.6912 255.548 13.3925C256.941 14.0988 259.193 14.9987 261.601 14.9987C262.406 15.0027 263.208 14.8933 263.983 14.6737C263.881 16.1645 263.217 17.561 262.125 18.5812Z" fill="currentColor"/>
</g>
<defs>
<clipPath id="clip0_17_7221">
<rect width="272" height="32" rx="5" fill="white"/>
</clipPath>
</defs>
</svg>
