<svg width="272" height="32" viewBox="0 0 272 32" fill="none" xmlns="http://www.w3.org/2000/svg">
<g clip-path="url(#clip0_17_3770)">
<path d="M3 13H6V21H4C3.73478 21 3.48043 21.1054 3.29289 21.2929C3.10536 21.4804 3 21.7348 3 22C3 22.2652 3.10536 22.5196 3.29289 22.7071C3.48043 22.8946 3.73478 23 4 23H28C28.2652 23 28.5196 22.8946 28.7071 22.7071C28.8946 22.5196 29 22.2652 29 22C29 21.7348 28.8946 21.4804 28.7071 21.2929C28.5196 21.1054 28.2652 21 28 21H26V13H29C29.2176 12.9998 29.4292 12.9286 29.6026 12.7973C29.7761 12.6659 29.902 12.4816 29.9612 12.2722C30.0205 12.0629 30.0098 11.8399 29.9308 11.6372C29.8519 11.4344 29.709 11.2629 29.5238 11.1488L16.5238 3.14875C16.3662 3.0519 16.1849 3.00063 16 3.00063C15.8151 3.00063 15.6338 3.0519 15.4762 3.14875L2.47625 11.1488C2.29103 11.2629 2.14811 11.4344 2.06916 11.6372C1.99021 11.8399 1.97955 12.0629 2.03878 12.2722C2.09801 12.4816 2.22391 12.6659 2.39738 12.7973C2.57085 12.9286 2.78242 12.9998 3 13ZM8 13H12V21H8V13ZM18 13V21H14V13H18ZM24 21H20V13H24V21ZM16 5.17375L25.4675 11H6.5325L16 5.17375ZM31 26C31 26.2652 30.8946 26.5196 30.7071 26.7071C30.5196 26.8946 30.2652 27 30 27H2C1.73478 27 1.48043 26.8946 1.29289 26.7071C1.10536 26.5196 1 26.2652 1 26C1 25.7348 1.10536 25.4804 1.29289 25.2929C1.48043 25.1054 1.73478 25 2 25H30C30.2652 25 30.5196 25.1054 30.7071 25.2929C30.8946 25.4804 31 25.7348 31 26Z" fill="currentColor"/>
<path d="M51 12.5H54.5V21.5H52C51.8674 21.5 51.7402 21.5527 51.6464 21.6464C51.5527 21.7402 51.5 21.8674 51.5 22C51.5 22.1326 51.5527 22.2598 51.6464 22.3535C51.7402 22.4473 51.8674 22.5 52 22.5H76C76.1326 22.5 76.2598 22.4473 76.3536 22.3535C76.4473 22.2598 76.5 22.1326 76.5 22C76.5 21.8674 76.4473 21.7402 76.3536 21.6464C76.2598 21.5527 76.1326 21.5 76 21.5H73.5V12.5H77C77.109 12.5002 77.2152 12.4648 77.3022 12.3992C77.3893 12.3335 77.4525 12.2412 77.4822 12.1363C77.5119 12.0314 77.5065 11.9197 77.4669 11.8181C77.4272 11.7166 77.3555 11.6307 77.2625 11.5737L64.2625 3.57375C64.1836 3.52507 64.0927 3.4993 64 3.4993C63.9073 3.4993 63.8164 3.52507 63.7375 3.57375L50.7375 11.5737C50.6445 11.6307 50.5728 11.7166 50.5331 11.8181C50.4935 11.9197 50.4881 12.0314 50.5178 12.1363C50.5475 12.2412 50.6107 12.3335 50.6978 12.3992C50.7848 12.4648 50.891 12.5002 51 12.5ZM55.5 12.5H60.5V21.5H55.5V12.5ZM66.5 12.5V21.5H61.5V12.5H66.5ZM72.5 21.5H67.5V12.5H72.5V21.5ZM64 4.5875L75.2337 11.5H52.7663L64 4.5875ZM78.5 26C78.5 26.1326 78.4473 26.2598 78.3536 26.3535C78.2598 26.4473 78.1326 26.5 78 26.5H50C49.8674 26.5 49.7402 26.4473 49.6464 26.3535C49.5527 26.2598 49.5 26.1326 49.5 26C49.5 25.8674 49.5527 25.7402 49.6464 25.6464C49.7402 25.5527 49.8674 25.5 50 25.5H78C78.1326 25.5 78.2598 25.5527 78.3536 25.6464C78.4473 25.7402 78.5 25.8674 78.5 26Z" fill="currentColor"/>
<path d="M99 12.75H102.25V21.25H100C99.8011 21.25 99.6103 21.329 99.4697 21.4697C99.329 21.6103 99.25 21.8011 99.25 22C99.25 22.1989 99.329 22.3897 99.4697 22.5303C99.6103 22.671 99.8011 22.75 100 22.75H124C124.199 22.75 124.39 22.671 124.53 22.5303C124.671 22.3897 124.75 22.1989 124.75 22C124.75 21.8011 124.671 21.6103 124.53 21.4697C124.39 21.329 124.199 21.25 124 21.25H121.75V12.75H125C125.163 12.7499 125.322 12.6965 125.452 12.5979C125.582 12.4994 125.677 12.3611 125.721 12.204C125.766 12.0469 125.757 11.8796 125.698 11.7275C125.639 11.5754 125.532 11.4468 125.392 11.3612L112.392 3.36125C112.274 3.28873 112.139 3.25034 112 3.25034C111.861 3.25034 111.726 3.28873 111.608 3.36125L98.6075 11.3612C98.4685 11.4468 98.3611 11.5754 98.3018 11.7275C98.2425 11.8796 98.2344 12.0469 98.2788 12.204C98.3232 12.3611 98.4177 12.4994 98.5478 12.5979C98.678 12.6965 98.8367 12.7499 99 12.75ZM103.75 12.75H108.25V21.25H103.75V12.75ZM114.25 12.75V21.25H109.75V12.75H114.25ZM120.25 21.25H115.75V12.75H120.25V21.25ZM112 4.875L122.35 11.25H101.65L112 4.875ZM126.75 26C126.75 26.1989 126.671 26.3897 126.53 26.5303C126.39 26.671 126.199 26.75 126 26.75H98C97.8011 26.75 97.6103 26.671 97.4697 26.5303C97.329 26.3897 97.25 26.1989 97.25 26C97.25 25.8011 97.329 25.6103 97.4697 25.4697C97.6103 25.329 97.8011 25.25 98 25.25H126C126.199 25.25 126.39 25.329 126.53 25.4697C126.671 25.6103 126.75 25.8011 126.75 26Z" fill="currentColor"/>
<path d="M147 13.5H149.5V19.5H148C147.602 19.5 147.221 19.658 146.939 19.9393C146.658 20.2206 146.5 20.6022 146.5 21C146.5 21.3978 146.658 21.7794 146.939 22.0607C147.221 22.342 147.602 22.5 148 22.5H172C172.398 22.5 172.779 22.342 173.061 22.0607C173.342 21.7794 173.5 21.3978 173.5 21C173.5 20.6022 173.342 20.2206 173.061 19.9393C172.779 19.658 172.398 19.5 172 19.5H170.5V13.5H173C173.327 13.5 173.644 13.3934 173.905 13.1965C174.165 12.9995 174.354 12.7228 174.443 12.4086C174.532 12.0943 174.516 11.7596 174.398 11.4553C174.279 11.151 174.064 10.8937 173.786 10.7225L160.786 2.7225C160.55 2.57698 160.278 2.49992 160 2.49992C159.722 2.49992 159.45 2.57698 159.214 2.7225L146.214 10.7225C145.936 10.8937 145.721 11.151 145.602 11.4553C145.484 11.7596 145.468 12.0943 145.557 12.4086C145.646 12.7228 145.835 12.9995 146.095 13.1965C146.356 13.3934 146.673 13.5 147 13.5ZM152.5 13.5H155.5V19.5H152.5V13.5ZM161.5 13.5V19.5H158.5V13.5H161.5ZM167.5 19.5H164.5V13.5H167.5V19.5ZM160 5.76125L167.7 10.5H152.3L160 5.76125ZM175.5 26C175.5 26.3978 175.342 26.7794 175.061 27.0607C174.779 27.342 174.398 27.5 174 27.5H146C145.602 27.5 145.221 27.342 144.939 27.0607C144.658 26.7794 144.5 26.3978 144.5 26C144.5 25.6022 144.658 25.2206 144.939 24.9393C145.221 24.658 145.602 24.5 146 24.5H174C174.398 24.5 174.779 24.658 175.061 24.9393C175.342 25.2206 175.5 25.6022 175.5 26Z" fill="currentColor"/>
<path d="M223 26C223 26.2652 222.895 26.5196 222.707 26.7071C222.52 26.8946 222.265 27 222 27H194C193.735 27 193.48 26.8946 193.293 26.7071C193.105 26.5196 193 26.2652 193 26C193 25.7348 193.105 25.4804 193.293 25.2929C193.48 25.1054 193.735 25 194 25H222C222.265 25 222.52 25.1054 222.707 25.2929C222.895 25.4804 223 25.7348 223 26ZM194.037 12.2725C193.978 12.0628 193.989 11.8394 194.068 11.6363C194.147 11.4332 194.29 11.2616 194.476 11.1475L207.476 3.1475C207.634 3.05065 207.815 2.99937 208 2.99937C208.185 2.99937 208.366 3.05065 208.524 3.1475L221.524 11.1475C221.71 11.2614 221.853 11.433 221.932 11.636C222.012 11.839 222.023 12.0623 221.963 12.2721C221.904 12.4818 221.778 12.6664 221.604 12.7978C221.43 12.9292 221.218 13.0002 221 13H218V21H220C220.265 21 220.52 21.1054 220.707 21.2929C220.895 21.4804 221 21.7348 221 22C221 22.2652 220.895 22.5196 220.707 22.7071C220.52 22.8946 220.265 23 220 23H196C195.735 23 195.48 22.8946 195.293 22.7071C195.105 22.5196 195 22.2652 195 22C195 21.7348 195.105 21.4804 195.293 21.2929C195.48 21.1054 195.735 21 196 21H198V13H195C194.782 13.0001 194.57 12.9291 194.397 12.7978C194.223 12.6665 194.097 12.482 194.037 12.2725ZM210 20C210 20.2652 210.105 20.5196 210.293 20.7071C210.48 20.8946 210.735 21 211 21C211.265 21 211.52 20.8946 211.707 20.7071C211.895 20.5196 212 20.2652 212 20V14C212 13.7348 211.895 13.4804 211.707 13.2929C211.52 13.1054 211.265 13 211 13C210.735 13 210.48 13.1054 210.293 13.2929C210.105 13.4804 210 13.7348 210 14V20ZM204 20C204 20.2652 204.105 20.5196 204.293 20.7071C204.48 20.8946 204.735 21 205 21C205.265 21 205.52 20.8946 205.707 20.7071C205.895 20.5196 206 20.2652 206 20V14C206 13.7348 205.895 13.4804 205.707 13.2929C205.52 13.1054 205.265 13 205 13C204.735 13 204.48 13.1054 204.293 13.2929C204.105 13.4804 204 13.7348 204 14V20Z" fill="currentColor"/>
<path opacity="0.2" d="M269 12H243L256 4L269 12Z" fill="currentColor"/>
<path d="M243 13H246V21H244C243.735 21 243.48 21.1054 243.293 21.2929C243.105 21.4804 243 21.7348 243 22C243 22.2652 243.105 22.5196 243.293 22.7071C243.48 22.8946 243.735 23 244 23H268C268.265 23 268.52 22.8946 268.707 22.7071C268.895 22.5196 269 22.2652 269 22C269 21.7348 268.895 21.4804 268.707 21.2929C268.52 21.1054 268.265 21 268 21H266V13H269C269.218 12.9998 269.429 12.9286 269.603 12.7973C269.776 12.6659 269.902 12.4816 269.961 12.2722C270.02 12.0629 270.01 11.8399 269.931 11.6372C269.852 11.4344 269.709 11.2629 269.524 11.1488L256.524 3.14875C256.366 3.0519 256.185 3.00063 256 3.00063C255.815 3.00063 255.634 3.0519 255.476 3.14875L242.476 11.1488C242.291 11.2629 242.148 11.4344 242.069 11.6372C241.99 11.8399 241.98 12.0629 242.039 12.2722C242.098 12.4816 242.224 12.6659 242.397 12.7973C242.571 12.9286 242.782 12.9998 243 13ZM248 13H252V21H248V13ZM258 13V21H254V13H258ZM264 21H260V13H264V21ZM256 5.17375L265.468 11H246.532L256 5.17375ZM271 26C271 26.2652 270.895 26.5196 270.707 26.7071C270.52 26.8946 270.265 27 270 27H242C241.735 27 241.48 26.8946 241.293 26.7071C241.105 26.5196 241 26.2652 241 26C241 25.7348 241.105 25.4804 241.293 25.2929C241.48 25.1054 241.735 25 242 25H270C270.265 25 270.52 25.1054 270.707 25.2929C270.895 25.4804 271 25.7348 271 26Z" fill="currentColor"/>
</g>
<defs>
<clipPath id="clip0_17_3770">
<rect width="272" height="32" rx="5" fill="white"/>
</clipPath>
</defs>
</svg>
