<svg width="272" height="32" viewBox="0 0 272 32" fill="none" xmlns="http://www.w3.org/2000/svg">
<g clip-path="url(#clip0_17_3756)">
<path d="M10 15H22C22.2652 15 22.5196 14.8946 22.7071 14.7071C22.8946 14.5196 23 14.2652 23 14V8C23 7.73478 22.8946 7.48043 22.7071 7.29289C22.5196 7.10536 22.2652 7 22 7H10C9.73478 7 9.48043 7.10536 9.29289 7.29289C9.10536 7.48043 9 7.73478 9 8V14C9 14.2652 9.10536 14.5196 9.29289 14.7071C9.48043 14.8946 9.73478 15 10 15ZM11 9H21V13H11V9ZM25 3H7C6.46957 3 5.96086 3.21071 5.58579 3.58579C5.21071 3.96086 5 4.46957 5 5V27C5 27.5304 5.21071 28.0391 5.58579 28.4142C5.96086 28.7893 6.46957 29 7 29H25C25.5304 29 26.0391 28.7893 26.4142 28.4142C26.7893 28.0391 27 27.5304 27 27V5C27 4.46957 26.7893 3.96086 26.4142 3.58579C26.0391 3.21071 25.5304 3 25 3ZM25 27H7V5H25V27ZM12.5 18.5C12.5 18.7967 12.412 19.0867 12.2472 19.3334C12.0824 19.58 11.8481 19.7723 11.574 19.8858C11.2999 19.9993 10.9983 20.0291 10.7074 19.9712C10.4164 19.9133 10.1491 19.7704 9.93934 19.5607C9.72956 19.3509 9.5867 19.0836 9.52882 18.7926C9.47094 18.5017 9.50065 18.2001 9.61418 17.926C9.72771 17.6519 9.91997 17.4176 10.1666 17.2528C10.4133 17.088 10.7033 17 11 17C11.3978 17 11.7794 17.158 12.0607 17.4393C12.342 17.7206 12.5 18.1022 12.5 18.5ZM17.5 18.5C17.5 18.7967 17.412 19.0867 17.2472 19.3334C17.0824 19.58 16.8481 19.7723 16.574 19.8858C16.2999 19.9993 15.9983 20.0291 15.7074 19.9712C15.4164 19.9133 15.1491 19.7704 14.9393 19.5607C14.7296 19.3509 14.5867 19.0836 14.5288 18.7926C14.4709 18.5017 14.5006 18.2001 14.6142 17.926C14.7277 17.6519 14.92 17.4176 15.1666 17.2528C15.4133 17.088 15.7033 17 16 17C16.3978 17 16.7794 17.158 17.0607 17.4393C17.342 17.7206 17.5 18.1022 17.5 18.5ZM22.5 18.5C22.5 18.7967 22.412 19.0867 22.2472 19.3334C22.0824 19.58 21.8481 19.7723 21.574 19.8858C21.2999 19.9993 20.9983 20.0291 20.7074 19.9712C20.4164 19.9133 20.1491 19.7704 19.9393 19.5607C19.7296 19.3509 19.5867 19.0836 19.5288 18.7926C19.4709 18.5017 19.5007 18.2001 19.6142 17.926C19.7277 17.6519 19.92 17.4176 20.1666 17.2528C20.4133 17.088 20.7033 17 21 17C21.3978 17 21.7794 17.158 22.0607 17.4393C22.342 17.7206 22.5 18.1022 22.5 18.5ZM12.5 23.5C12.5 23.7967 12.412 24.0867 12.2472 24.3334C12.0824 24.58 11.8481 24.7723 11.574 24.8858C11.2999 24.9993 10.9983 25.0291 10.7074 24.9712C10.4164 24.9133 10.1491 24.7704 9.93934 24.5607C9.72956 24.3509 9.5867 24.0836 9.52882 23.7926C9.47094 23.5017 9.50065 23.2001 9.61418 22.926C9.72771 22.6519 9.91997 22.4176 10.1666 22.2528C10.4133 22.088 10.7033 22 11 22C11.3978 22 11.7794 22.158 12.0607 22.4393C12.342 22.7206 12.5 23.1022 12.5 23.5ZM17.5 23.5C17.5 23.7967 17.412 24.0867 17.2472 24.3334C17.0824 24.58 16.8481 24.7723 16.574 24.8858C16.2999 24.9993 15.9983 25.0291 15.7074 24.9712C15.4164 24.9133 15.1491 24.7704 14.9393 24.5607C14.7296 24.3509 14.5867 24.0836 14.5288 23.7926C14.4709 23.5017 14.5006 23.2001 14.6142 22.926C14.7277 22.6519 14.92 22.4176 15.1666 22.2528C15.4133 22.088 15.7033 22 16 22C16.3978 22 16.7794 22.158 17.0607 22.4393C17.342 22.7206 17.5 23.1022 17.5 23.5ZM22.5 23.5C22.5 23.7967 22.412 24.0867 22.2472 24.3334C22.0824 24.58 21.8481 24.7723 21.574 24.8858C21.2999 24.9993 20.9983 25.0291 20.7074 24.9712C20.4164 24.9133 20.1491 24.7704 19.9393 24.5607C19.7296 24.3509 19.5867 24.0836 19.5288 23.7926C19.4709 23.5017 19.5007 23.2001 19.6142 22.926C19.7277 22.6519 19.92 22.4176 20.1666 22.2528C20.4133 22.088 20.7033 22 21 22C21.3978 22 21.7794 22.158 22.0607 22.4393C22.342 22.7206 22.5 23.1022 22.5 23.5Z" fill="currentColor"/>
<path d="M70 7.5H58C57.8674 7.5 57.7402 7.55268 57.6464 7.64645C57.5527 7.74021 57.5 7.86739 57.5 8V14C57.5 14.1326 57.5527 14.2598 57.6464 14.3536C57.7402 14.4473 57.8674 14.5 58 14.5H70C70.1326 14.5 70.2598 14.4473 70.3536 14.3536C70.4473 14.2598 70.5 14.1326 70.5 14V8C70.5 7.86739 70.4473 7.74021 70.3536 7.64645C70.2598 7.55268 70.1326 7.5 70 7.5ZM69.5 13.5H58.5V8.5H69.5V13.5ZM73 3.5H55C54.6022 3.5 54.2206 3.65804 53.9393 3.93934C53.658 4.22064 53.5 4.60218 53.5 5V27C53.5 27.3978 53.658 27.7794 53.9393 28.0607C54.2206 28.342 54.6022 28.5 55 28.5H73C73.3978 28.5 73.7794 28.342 74.0607 28.0607C74.342 27.7794 74.5 27.3978 74.5 27V5C74.5 4.60218 74.342 4.22064 74.0607 3.93934C73.7794 3.65804 73.3978 3.5 73 3.5ZM73.5 27C73.5 27.1326 73.4473 27.2598 73.3536 27.3536C73.2598 27.4473 73.1326 27.5 73 27.5H55C54.8674 27.5 54.7402 27.4473 54.6464 27.3536C54.5527 27.2598 54.5 27.1326 54.5 27V5C54.5 4.86739 54.5527 4.74021 54.6464 4.64645C54.7402 4.55268 54.8674 4.5 55 4.5H73C73.1326 4.5 73.2598 4.55268 73.3536 4.64645C73.4473 4.74021 73.5 4.86739 73.5 5V27ZM60 18.5C60 18.6978 59.9414 18.8911 59.8315 19.0556C59.7216 19.22 59.5654 19.3482 59.3827 19.4239C59.2 19.4996 58.9989 19.5194 58.8049 19.4808C58.6109 19.4422 58.4327 19.347 58.2929 19.2071C58.153 19.0673 58.0578 18.8891 58.0192 18.6951C57.9806 18.5011 58.0004 18.3 58.0761 18.1173C58.1518 17.9346 58.28 17.7784 58.4444 17.6685C58.6089 17.5586 58.8022 17.5 59 17.5C59.2652 17.5 59.5196 17.6054 59.7071 17.7929C59.8946 17.9804 60 18.2348 60 18.5ZM65 18.5C65 18.6978 64.9414 18.8911 64.8315 19.0556C64.7216 19.22 64.5654 19.3482 64.3827 19.4239C64.2 19.4996 63.9989 19.5194 63.8049 19.4808C63.6109 19.4422 63.4327 19.347 63.2929 19.2071C63.153 19.0673 63.0578 18.8891 63.0192 18.6951C62.9806 18.5011 63.0004 18.3 63.0761 18.1173C63.1518 17.9346 63.28 17.7784 63.4444 17.6685C63.6089 17.5586 63.8022 17.5 64 17.5C64.2652 17.5 64.5196 17.6054 64.7071 17.7929C64.8946 17.9804 65 18.2348 65 18.5ZM70 18.5C70 18.6978 69.9414 18.8911 69.8315 19.0556C69.7216 19.22 69.5654 19.3482 69.3827 19.4239C69.2 19.4996 68.9989 19.5194 68.8049 19.4808C68.6109 19.4422 68.4327 19.347 68.2929 19.2071C68.153 19.0673 68.0578 18.8891 68.0192 18.6951C67.9806 18.5011 68.0004 18.3 68.0761 18.1173C68.1518 17.9346 68.28 17.7784 68.4444 17.6685C68.6089 17.5586 68.8022 17.5 69 17.5C69.2652 17.5 69.5196 17.6054 69.7071 17.7929C69.8946 17.9804 70 18.2348 70 18.5ZM60 23.5C60 23.6978 59.9414 23.8911 59.8315 24.0556C59.7216 24.22 59.5654 24.3482 59.3827 24.4239C59.2 24.4996 58.9989 24.5194 58.8049 24.4808C58.6109 24.4422 58.4327 24.347 58.2929 24.2071C58.153 24.0673 58.0578 23.8891 58.0192 23.6951C57.9806 23.5011 58.0004 23.3 58.0761 23.1173C58.1518 22.9346 58.28 22.7784 58.4444 22.6685C58.6089 22.5586 58.8022 22.5 59 22.5C59.2652 22.5 59.5196 22.6054 59.7071 22.7929C59.8946 22.9804 60 23.2348 60 23.5ZM65 23.5C65 23.6978 64.9414 23.8911 64.8315 24.0556C64.7216 24.22 64.5654 24.3482 64.3827 24.4239C64.2 24.4996 63.9989 24.5194 63.8049 24.4808C63.6109 24.4422 63.4327 24.347 63.2929 24.2071C63.153 24.0673 63.0578 23.8891 63.0192 23.6951C62.9806 23.5011 63.0004 23.3 63.0761 23.1173C63.1518 22.9346 63.28 22.7784 63.4444 22.6685C63.6089 22.5586 63.8022 22.5 64 22.5C64.2652 22.5 64.5196 22.6054 64.7071 22.7929C64.8946 22.9804 65 23.2348 65 23.5ZM70 23.5C70 23.6978 69.9414 23.8911 69.8315 24.0556C69.7216 24.22 69.5654 24.3482 69.3827 24.4239C69.2 24.4996 68.9989 24.5194 68.8049 24.4808C68.6109 24.4422 68.4327 24.347 68.2929 24.2071C68.153 24.0673 68.0578 23.8891 68.0192 23.6951C67.9806 23.5011 68.0004 23.3 68.0761 23.1173C68.1518 22.9346 68.28 22.7784 68.4444 22.6685C68.6089 22.5586 68.8022 22.5 69 22.5C69.2652 22.5 69.5196 22.6054 69.7071 22.7929C69.8946 22.9804 70 23.2348 70 23.5Z" fill="currentColor"/>
<path d="M118 7.25H106C105.801 7.25 105.61 7.32902 105.47 7.46967C105.329 7.61032 105.25 7.80109 105.25 8V14C105.25 14.1989 105.329 14.3897 105.47 14.5303C105.61 14.671 105.801 14.75 106 14.75H118C118.199 14.75 118.39 14.671 118.53 14.5303C118.671 14.3897 118.75 14.1989 118.75 14V8C118.75 7.80109 118.671 7.61032 118.53 7.46967C118.39 7.32902 118.199 7.25 118 7.25ZM117.25 13.25H106.75V8.75H117.25V13.25ZM121 3.25H103C102.536 3.25 102.091 3.43437 101.763 3.76256C101.434 4.09075 101.25 4.53587 101.25 5V27C101.25 27.4641 101.434 27.9092 101.763 28.2374C102.091 28.5656 102.536 28.75 103 28.75H121C121.464 28.75 121.909 28.5656 122.237 28.2374C122.566 27.9092 122.75 27.4641 122.75 27V5C122.75 4.53587 122.566 4.09075 122.237 3.76256C121.909 3.43437 121.464 3.25 121 3.25ZM121.25 27C121.25 27.0663 121.224 27.1299 121.177 27.1768C121.13 27.2237 121.066 27.25 121 27.25H103C102.934 27.25 102.87 27.2237 102.823 27.1768C102.776 27.1299 102.75 27.0663 102.75 27V5C102.75 4.9337 102.776 4.87011 102.823 4.82322C102.87 4.77634 102.934 4.75 103 4.75H121C121.066 4.75 121.13 4.77634 121.177 4.82322C121.224 4.87011 121.25 4.9337 121.25 5V27ZM108.25 18.5C108.25 18.7472 108.177 18.9889 108.039 19.1945C107.902 19.4 107.707 19.5602 107.478 19.6549C107.25 19.7495 106.999 19.7742 106.756 19.726C106.514 19.6777 106.291 19.5587 106.116 19.3839C105.941 19.2091 105.822 18.9863 105.774 18.7439C105.726 18.5014 105.751 18.2501 105.845 18.0216C105.94 17.7932 106.1 17.598 106.306 17.4607C106.511 17.3233 106.753 17.25 107 17.25C107.332 17.25 107.649 17.3817 107.884 17.6161C108.118 17.8505 108.25 18.1685 108.25 18.5ZM113.25 18.5C113.25 18.7472 113.177 18.9889 113.039 19.1945C112.902 19.4 112.707 19.5602 112.478 19.6549C112.25 19.7495 111.999 19.7742 111.756 19.726C111.514 19.6777 111.291 19.5587 111.116 19.3839C110.941 19.2091 110.822 18.9863 110.774 18.7439C110.726 18.5014 110.751 18.2501 110.845 18.0216C110.94 17.7932 111.1 17.598 111.306 17.4607C111.511 17.3233 111.753 17.25 112 17.25C112.332 17.25 112.649 17.3817 112.884 17.6161C113.118 17.8505 113.25 18.1685 113.25 18.5ZM118.25 18.5C118.25 18.7472 118.177 18.9889 118.039 19.1945C117.902 19.4 117.707 19.5602 117.478 19.6549C117.25 19.7495 116.999 19.7742 116.756 19.726C116.514 19.6777 116.291 19.5587 116.116 19.3839C115.941 19.2091 115.822 18.9863 115.774 18.7439C115.726 18.5014 115.751 18.2501 115.845 18.0216C115.94 17.7932 116.1 17.598 116.306 17.4607C116.511 17.3233 116.753 17.25 117 17.25C117.332 17.25 117.649 17.3817 117.884 17.6161C118.118 17.8505 118.25 18.1685 118.25 18.5ZM108.25 23.5C108.25 23.7472 108.177 23.9889 108.039 24.1945C107.902 24.4 107.707 24.5602 107.478 24.6549C107.25 24.7495 106.999 24.7742 106.756 24.726C106.514 24.6777 106.291 24.5587 106.116 24.3839C105.941 24.2091 105.822 23.9863 105.774 23.7439C105.726 23.5014 105.751 23.2501 105.845 23.0216C105.94 22.7932 106.1 22.598 106.306 22.4607C106.511 22.3233 106.753 22.25 107 22.25C107.332 22.25 107.649 22.3817 107.884 22.6161C108.118 22.8505 108.25 23.1685 108.25 23.5ZM113.25 23.5C113.25 23.7472 113.177 23.9889 113.039 24.1945C112.902 24.4 112.707 24.5602 112.478 24.6549C112.25 24.7495 111.999 24.7742 111.756 24.726C111.514 24.6777 111.291 24.5587 111.116 24.3839C110.941 24.2091 110.822 23.9863 110.774 23.7439C110.726 23.5014 110.751 23.2501 110.845 23.0216C110.94 22.7932 111.1 22.598 111.306 22.4607C111.511 22.3233 111.753 22.25 112 22.25C112.332 22.25 112.649 22.3817 112.884 22.6161C113.118 22.8505 113.25 23.1685 113.25 23.5ZM118.25 23.5C118.25 23.7472 118.177 23.9889 118.039 24.1945C117.902 24.4 117.707 24.5602 117.478 24.6549C117.25 24.7495 116.999 24.7742 116.756 24.726C116.514 24.6777 116.291 24.5587 116.116 24.3839C115.941 24.2091 115.822 23.9863 115.774 23.7439C115.726 23.5014 115.751 23.2501 115.845 23.0216C115.94 22.7932 116.1 22.598 116.306 22.4607C116.511 22.3233 116.753 22.25 117 22.25C117.332 22.25 117.649 22.3817 117.884 22.6161C118.118 22.8505 118.25 23.1685 118.25 23.5Z" fill="currentColor"/>
<path d="M169 2.5H151C150.337 2.5 149.701 2.76339 149.232 3.23223C148.763 3.70107 148.5 4.33696 148.5 5V27C148.5 27.663 148.763 28.2989 149.232 28.7678C149.701 29.2366 150.337 29.5 151 29.5H169C169.663 29.5 170.299 29.2366 170.768 28.7678C171.237 28.2989 171.5 27.663 171.5 27V5C171.5 4.33696 171.237 3.70107 170.768 3.23223C170.299 2.76339 169.663 2.5 169 2.5ZM168.5 26.5H151.5V5.5H168.5V26.5ZM154 9.5C154 9.10218 154.158 8.72064 154.439 8.43934C154.721 8.15804 155.102 8 155.5 8H164.5C164.898 8 165.279 8.15804 165.561 8.43934C165.842 8.72064 166 9.10218 166 9.5C166 9.89782 165.842 10.2794 165.561 10.5607C165.279 10.842 164.898 11 164.5 11H155.5C155.102 11 154.721 10.842 154.439 10.5607C154.158 10.2794 154 9.89782 154 9.5ZM159 16C159 16.3956 158.883 16.7822 158.663 17.1111C158.443 17.44 158.131 17.6964 157.765 17.8478C157.4 17.9991 156.998 18.0387 156.61 17.9616C156.222 17.8844 155.865 17.6939 155.586 17.4142C155.306 17.1345 155.116 16.7781 155.038 16.3902C154.961 16.0022 155.001 15.6001 155.152 15.2346C155.304 14.8692 155.56 14.5568 155.889 14.3371C156.218 14.1173 156.604 14 157 14C157.53 14 158.039 14.2107 158.414 14.5858C158.789 14.9609 159 15.4696 159 16ZM165 16C165 16.3956 164.883 16.7822 164.663 17.1111C164.443 17.44 164.131 17.6964 163.765 17.8478C163.4 17.9991 162.998 18.0387 162.61 17.9616C162.222 17.8844 161.865 17.6939 161.586 17.4142C161.306 17.1345 161.116 16.7781 161.038 16.3902C160.961 16.0022 161.001 15.6001 161.152 15.2346C161.304 14.8692 161.56 14.5568 161.889 14.3371C162.218 14.1173 162.604 14 163 14C163.53 14 164.039 14.2107 164.414 14.5858C164.789 14.9609 165 15.4696 165 16ZM159 22C159 22.3956 158.883 22.7822 158.663 23.1111C158.443 23.44 158.131 23.6964 157.765 23.8478C157.4 23.9991 156.998 24.0387 156.61 23.9616C156.222 23.8844 155.865 23.6939 155.586 23.4142C155.306 23.1345 155.116 22.7781 155.038 22.3902C154.961 22.0022 155.001 21.6001 155.152 21.2346C155.304 20.8692 155.56 20.5568 155.889 20.3371C156.218 20.1173 156.604 20 157 20C157.53 20 158.039 20.2107 158.414 20.5858C158.789 20.9609 159 21.4696 159 22ZM165 22C165 22.3956 164.883 22.7822 164.663 23.1111C164.443 23.44 164.131 23.6964 163.765 23.8478C163.4 23.9991 162.998 24.0387 162.61 23.9616C162.222 23.8844 161.865 23.6939 161.586 23.4142C161.306 23.1345 161.116 22.7781 161.038 22.3902C160.961 22.0022 161.001 21.6001 161.152 21.2346C161.304 20.8692 161.56 20.5568 161.889 20.3371C162.218 20.1173 162.604 20 163 20C163.53 20 164.039 20.2107 164.414 20.5858C164.789 20.9609 165 21.4696 165 22Z" fill="currentColor"/>
<path d="M217 3H199C198.47 3 197.961 3.21071 197.586 3.58579C197.211 3.96086 197 4.46957 197 5V27C197 27.5304 197.211 28.0391 197.586 28.4142C197.961 28.7893 198.47 29 199 29H217C217.53 29 218.039 28.7893 218.414 28.4142C218.789 28.0391 219 27.5304 219 27V5C219 4.46957 218.789 3.96086 218.414 3.58579C218.039 3.21071 217.53 3 217 3ZM203 25C202.703 25 202.413 24.912 202.167 24.7472C201.92 24.5824 201.728 24.3481 201.614 24.074C201.501 23.7999 201.471 23.4983 201.529 23.2074C201.587 22.9164 201.73 22.6491 201.939 22.4393C202.149 22.2296 202.416 22.0867 202.707 22.0288C202.998 21.9709 203.3 22.0007 203.574 22.1142C203.848 22.2277 204.082 22.42 204.247 22.6666C204.412 22.9133 204.5 23.2033 204.5 23.5C204.5 23.8978 204.342 24.2794 204.061 24.5607C203.779 24.842 203.398 25 203 25ZM203 20C202.703 20 202.413 19.912 202.167 19.7472C201.92 19.5824 201.728 19.3481 201.614 19.074C201.501 18.7999 201.471 18.4983 201.529 18.2074C201.587 17.9164 201.73 17.6491 201.939 17.4393C202.149 17.2296 202.416 17.0867 202.707 17.0288C202.998 16.9709 203.3 17.0007 203.574 17.1142C203.848 17.2277 204.082 17.42 204.247 17.6666C204.412 17.9133 204.5 18.2033 204.5 18.5C204.5 18.8978 204.342 19.2794 204.061 19.5607C203.779 19.842 203.398 20 203 20ZM208 25C207.703 25 207.413 24.912 207.167 24.7472C206.92 24.5824 206.728 24.3481 206.614 24.074C206.501 23.7999 206.471 23.4983 206.529 23.2074C206.587 22.9164 206.73 22.6491 206.939 22.4393C207.149 22.2296 207.416 22.0867 207.707 22.0288C207.998 21.9709 208.3 22.0007 208.574 22.1142C208.848 22.2277 209.082 22.42 209.247 22.6666C209.412 22.9133 209.5 23.2033 209.5 23.5C209.5 23.8978 209.342 24.2794 209.061 24.5607C208.779 24.842 208.398 25 208 25ZM208 20C207.703 20 207.413 19.912 207.167 19.7472C206.92 19.5824 206.728 19.3481 206.614 19.074C206.501 18.7999 206.471 18.4983 206.529 18.2074C206.587 17.9164 206.73 17.6491 206.939 17.4393C207.149 17.2296 207.416 17.0867 207.707 17.0288C207.998 16.9709 208.3 17.0007 208.574 17.1142C208.848 17.2277 209.082 17.42 209.247 17.6666C209.412 17.9133 209.5 18.2033 209.5 18.5C209.5 18.8978 209.342 19.2794 209.061 19.5607C208.779 19.842 208.398 20 208 20ZM213 25C212.703 25 212.413 24.912 212.167 24.7472C211.92 24.5824 211.728 24.3481 211.614 24.074C211.501 23.7999 211.471 23.4983 211.529 23.2074C211.587 22.9164 211.73 22.6491 211.939 22.4393C212.149 22.2296 212.416 22.0867 212.707 22.0288C212.998 21.9709 213.3 22.0007 213.574 22.1142C213.848 22.2277 214.082 22.42 214.247 22.6666C214.412 22.9133 214.5 23.2033 214.5 23.5C214.5 23.8978 214.342 24.2794 214.061 24.5607C213.779 24.842 213.398 25 213 25ZM213 20C212.703 20 212.413 19.912 212.167 19.7472C211.92 19.5824 211.728 19.3481 211.614 19.074C211.501 18.7999 211.471 18.4983 211.529 18.2074C211.587 17.9164 211.73 17.6491 211.939 17.4393C212.149 17.2296 212.416 17.0867 212.707 17.0288C212.998 16.9709 213.3 17.0007 213.574 17.1142C213.848 17.2277 214.082 17.42 214.247 17.6666C214.412 17.9133 214.5 18.2033 214.5 18.5C214.5 18.8978 214.342 19.2794 214.061 19.5607C213.779 19.842 213.398 20 213 20ZM215 13C215 13.2652 214.895 13.5196 214.707 13.7071C214.52 13.8946 214.265 14 214 14H202C201.735 14 201.48 13.8946 201.293 13.7071C201.105 13.5196 201 13.2652 201 13V8C201 7.73478 201.105 7.48043 201.293 7.29289C201.48 7.10536 201.735 7 202 7H214C214.265 7 214.52 7.10536 214.707 7.29289C214.895 7.48043 215 7.73478 215 8V13Z" fill="currentColor"/>
<path opacity="0.2" d="M262 8V14H250V8H262Z" fill="currentColor"/>
<path d="M250 15H262C262.265 15 262.52 14.8946 262.707 14.7071C262.895 14.5196 263 14.2652 263 14V8C263 7.73478 262.895 7.48043 262.707 7.29289C262.52 7.10536 262.265 7 262 7H250C249.735 7 249.48 7.10536 249.293 7.29289C249.105 7.48043 249 7.73478 249 8V14C249 14.2652 249.105 14.5196 249.293 14.7071C249.48 14.8946 249.735 15 250 15ZM251 9H261V13H251V9ZM265 3H247C246.47 3 245.961 3.21071 245.586 3.58579C245.211 3.96086 245 4.46957 245 5V27C245 27.5304 245.211 28.0391 245.586 28.4142C245.961 28.7893 246.47 29 247 29H265C265.53 29 266.039 28.7893 266.414 28.4142C266.789 28.0391 267 27.5304 267 27V5C267 4.46957 266.789 3.96086 266.414 3.58579C266.039 3.21071 265.53 3 265 3ZM265 27H247V5H265V27ZM252.5 18.5C252.5 18.7967 252.412 19.0867 252.247 19.3334C252.082 19.58 251.848 19.7723 251.574 19.8858C251.3 19.9993 250.998 20.0291 250.707 19.9712C250.416 19.9133 250.149 19.7704 249.939 19.5607C249.73 19.3509 249.587 19.0836 249.529 18.7926C249.471 18.5017 249.501 18.2001 249.614 17.926C249.728 17.6519 249.92 17.4176 250.167 17.2528C250.413 17.088 250.703 17 251 17C251.398 17 251.779 17.158 252.061 17.4393C252.342 17.7206 252.5 18.1022 252.5 18.5ZM257.5 18.5C257.5 18.7967 257.412 19.0867 257.247 19.3334C257.082 19.58 256.848 19.7723 256.574 19.8858C256.3 19.9993 255.998 20.0291 255.707 19.9712C255.416 19.9133 255.149 19.7704 254.939 19.5607C254.73 19.3509 254.587 19.0836 254.529 18.7926C254.471 18.5017 254.501 18.2001 254.614 17.926C254.728 17.6519 254.92 17.4176 255.167 17.2528C255.413 17.088 255.703 17 256 17C256.398 17 256.779 17.158 257.061 17.4393C257.342 17.7206 257.5 18.1022 257.5 18.5ZM262.5 18.5C262.5 18.7967 262.412 19.0867 262.247 19.3334C262.082 19.58 261.848 19.7723 261.574 19.8858C261.3 19.9993 260.998 20.0291 260.707 19.9712C260.416 19.9133 260.149 19.7704 259.939 19.5607C259.73 19.3509 259.587 19.0836 259.529 18.7926C259.471 18.5017 259.501 18.2001 259.614 17.926C259.728 17.6519 259.92 17.4176 260.167 17.2528C260.413 17.088 260.703 17 261 17C261.398 17 261.779 17.158 262.061 17.4393C262.342 17.7206 262.5 18.1022 262.5 18.5ZM252.5 23.5C252.5 23.7967 252.412 24.0867 252.247 24.3334C252.082 24.58 251.848 24.7723 251.574 24.8858C251.3 24.9993 250.998 25.0291 250.707 24.9712C250.416 24.9133 250.149 24.7704 249.939 24.5607C249.73 24.3509 249.587 24.0836 249.529 23.7926C249.471 23.5017 249.501 23.2001 249.614 22.926C249.728 22.6519 249.92 22.4176 250.167 22.2528C250.413 22.088 250.703 22 251 22C251.398 22 251.779 22.158 252.061 22.4393C252.342 22.7206 252.5 23.1022 252.5 23.5ZM257.5 23.5C257.5 23.7967 257.412 24.0867 257.247 24.3334C257.082 24.58 256.848 24.7723 256.574 24.8858C256.3 24.9993 255.998 25.0291 255.707 24.9712C255.416 24.9133 255.149 24.7704 254.939 24.5607C254.73 24.3509 254.587 24.0836 254.529 23.7926C254.471 23.5017 254.501 23.2001 254.614 22.926C254.728 22.6519 254.92 22.4176 255.167 22.2528C255.413 22.088 255.703 22 256 22C256.398 22 256.779 22.158 257.061 22.4393C257.342 22.7206 257.5 23.1022 257.5 23.5ZM262.5 23.5C262.5 23.7967 262.412 24.0867 262.247 24.3334C262.082 24.58 261.848 24.7723 261.574 24.8858C261.3 24.9993 260.998 25.0291 260.707 24.9712C260.416 24.9133 260.149 24.7704 259.939 24.5607C259.73 24.3509 259.587 24.0836 259.529 23.7926C259.471 23.5017 259.501 23.2001 259.614 22.926C259.728 22.6519 259.92 22.4176 260.167 22.2528C260.413 22.088 260.703 22 261 22C261.398 22 261.779 22.158 262.061 22.4393C262.342 22.7206 262.5 23.1022 262.5 23.5Z" fill="currentColor"/>
</g>
<defs>
<clipPath id="clip0_17_3756">
<rect width="272" height="32" rx="5" fill="white"/>
</clipPath>
</defs>
</svg>
