<svg width="272" height="32" viewBox="0 0 272 32" fill="none" xmlns="http://www.w3.org/2000/svg">
<g clip-path="url(#clip0_17_3644)">
<path d="M12.5002 14.5538C12.6522 14.466 12.7785 14.3397 12.8663 14.1876C12.954 14.0356 13.0002 13.8631 13.0002 13.6875V4.6875C12.9993 4.52807 12.9603 4.37116 12.8864 4.22986C12.8126 4.08857 12.706 3.96698 12.5756 3.87524C12.4452 3.7835 12.2948 3.72426 12.1368 3.70248C11.9789 3.68069 11.818 3.69699 11.6677 3.75C8.74891 4.78302 6.29433 6.8233 4.7452 9.50409C3.19608 12.1849 2.65401 15.3303 3.21643 18.375C3.24559 18.5324 3.31212 18.6806 3.41044 18.807C3.50876 18.9333 3.63599 19.0343 3.78143 19.1012C3.9125 19.1625 4.05549 19.1941 4.20018 19.1938C4.3757 19.1938 4.54814 19.1477 4.70018 19.06L12.5002 14.5538ZM11.0002 6.2025V13.11L5.01518 16.5637C5.00018 16.375 5.00018 16.185 5.00018 16C5.00196 13.973 5.56305 11.9857 6.62168 10.2571C7.6803 8.5284 9.19541 7.12539 11.0002 6.2025ZM27.2927 9.565C27.2814 9.5425 27.2702 9.51875 27.2564 9.49625C27.2427 9.47375 27.2314 9.455 27.2177 9.435C26.0715 7.47725 24.4332 5.85335 22.4654 4.72451C20.4976 3.59567 18.2688 3.00116 16.0002 3C15.735 3 15.4806 3.10536 15.2931 3.29289C15.1055 3.48043 15.0002 3.73478 15.0002 4V15.4788L5.14893 21.2162C5.03462 21.2825 4.93457 21.3708 4.85457 21.4759C4.77456 21.5811 4.7162 21.7011 4.68284 21.8289C4.64948 21.9568 4.64179 22.09 4.66022 22.2208C4.67864 22.3517 4.72281 22.4776 4.79018 22.5912C6.23552 25.0525 8.45069 26.9696 11.0938 28.0468C13.737 29.1241 16.6612 29.3015 19.4152 28.5517C22.1692 27.8019 24.5999 26.1666 26.3321 23.8982C28.0644 21.6297 29.002 18.8542 29.0002 16C29.0031 13.7427 28.4143 11.524 27.2927 9.565ZM17.0002 5.045C18.5862 5.19099 20.1216 5.67945 21.5004 6.47666C22.8793 7.27387 24.0686 8.36083 24.9864 9.6625L17.0002 14.3138V5.045ZM16.0002 27C14.2545 26.9955 12.5346 26.5777 10.9814 25.7808C9.42815 24.9839 8.08571 23.8305 7.06393 22.415L16.4889 16.9263L16.5164 16.9088L25.9877 11.3925C26.7608 13.0684 27.0997 14.9119 26.9733 16.7532C26.8469 18.5945 26.2593 20.3745 25.2645 21.929C24.2697 23.4836 22.8997 24.7629 21.2807 25.6491C19.6617 26.5353 17.8458 26.9998 16.0002 27Z" fill="currentColor"/>
<path d="M60.4999 13.6875V4.6875C60.4999 4.60757 60.4807 4.52882 60.4439 4.45785C60.4072 4.38688 60.3539 4.32575 60.2887 4.27959C60.2234 4.23344 60.1481 4.2036 60.0689 4.19258C59.9897 4.18156 59.9091 4.18967 59.8337 4.21625C57.0265 5.20851 54.6657 7.17018 53.1762 9.74818C51.6867 12.3262 51.1663 15.3512 51.7087 18.2787C51.7227 18.3577 51.7555 18.4322 51.8044 18.4958C51.8532 18.5595 51.9167 18.6104 51.9894 18.6444C52.0621 18.6783 52.1419 18.6943 52.222 18.6909C52.3022 18.6876 52.3804 18.6649 52.4499 18.625L60.2499 14.125C60.3266 14.0807 60.3902 14.0169 60.4341 13.94C60.478 13.8632 60.5007 13.776 60.4999 13.6875ZM59.4999 13.3988L52.5837 17.3888C52.2827 14.9133 52.7945 12.407 54.042 10.2477C55.2895 8.08849 57.205 6.39323 59.4999 5.4175V13.3988ZM74.8487 9.795C74.8412 9.77875 74.8337 9.76375 74.8249 9.74875C74.8162 9.73375 74.8062 9.72 74.7974 9.70625C73.6965 7.81882 72.1204 6.25271 70.226 5.16383C68.3316 4.07495 66.185 3.5013 63.9999 3.5C63.8673 3.5 63.7402 3.55268 63.6464 3.64645C63.5526 3.74021 63.4999 3.86739 63.4999 4V15.765L53.3999 21.6475C53.343 21.6807 53.2932 21.7248 53.2534 21.7773C53.2135 21.8298 53.1845 21.8897 53.1679 21.9535C53.1512 22.0172 53.1474 22.0837 53.1566 22.1489C53.1657 22.2142 53.1877 22.277 53.2212 22.3337C54.6108 24.7 56.7404 26.5432 59.2815 27.579C61.8225 28.6148 64.6339 28.7857 67.2817 28.0653C69.9295 27.3449 72.2667 25.7732 73.9326 23.5927C75.5986 21.4122 76.5008 18.7441 76.4999 16C76.5026 13.8227 75.9332 11.683 74.8487 9.795ZM64.4999 4.51125C66.3474 4.59259 68.148 5.11801 69.7493 6.04299C71.3505 6.96798 72.7053 8.26528 73.6987 9.825L64.4999 15.1825V4.51125ZM63.9999 27.5C62.0817 27.4946 60.1951 27.0118 58.51 26.0953C56.8249 25.1788 55.3944 23.8573 54.3474 22.25L64.2499 16.4888L64.2624 16.4813L74.1999 10.6912C75.1121 12.444 75.5572 14.4022 75.4924 16.3771C75.4276 18.3519 74.8551 20.2768 73.83 21.966C72.805 23.6552 71.362 25.0518 69.6402 26.0211C67.9184 26.9904 65.9758 27.4998 63.9999 27.5Z" fill="currentColor"/>
<path d="M108.75 13.6875V4.6875C108.75 4.56748 108.721 4.4492 108.666 4.34259C108.611 4.23599 108.531 4.14417 108.433 4.07485C108.335 4.00553 108.222 3.96074 108.103 3.94423C107.984 3.92773 107.863 3.93999 107.75 3.98C104.887 4.99211 102.479 6.99301 100.959 9.62257C99.44 12.2521 98.9092 15.3376 99.4624 18.3237C99.4841 18.4418 99.5339 18.553 99.6076 18.6478C99.6812 18.7427 99.7765 18.8185 99.8855 18.8688C99.9946 18.9192 100.114 18.9426 100.234 18.9372C100.354 18.9317 100.471 18.8975 100.575 18.8375L108.375 14.3375C108.489 14.2716 108.584 14.1769 108.65 14.0628C108.715 13.9487 108.75 13.8192 108.75 13.6875ZM107.25 13.25L100.792 16.975C100.764 16.6508 100.75 16.3258 100.75 16C100.752 13.8581 101.364 11.7611 102.515 9.95487C103.666 8.14868 105.309 6.70823 107.25 5.8025V13.25ZM123.071 9.68125C123.061 9.66125 123.051 9.64125 123.04 9.6225C123.03 9.60409 123.019 9.58653 123.006 9.57C121.883 7.6472 120.276 6.05202 118.345 4.94322C116.414 3.83441 114.227 3.25064 112 3.25C111.801 3.25 111.61 3.32902 111.47 3.46967C111.329 3.61032 111.25 3.80109 111.25 4V15.625L101.275 21.4325C101.19 21.4822 101.115 21.5483 101.055 21.6269C100.996 21.7055 100.952 21.795 100.927 21.8905C100.902 21.9859 100.896 22.0854 100.91 22.1831C100.924 22.2808 100.956 22.3749 101.006 22.46C102.424 24.8732 104.596 26.753 107.188 27.8094C109.779 28.8657 112.647 29.04 115.347 28.3052C118.048 27.5705 120.431 25.9676 122.131 23.7437C123.83 21.5199 124.75 18.7987 124.75 16C124.752 13.7832 124.174 11.6045 123.071 9.68125ZM112.75 4.775C114.467 4.8904 116.135 5.39824 117.625 6.25944C119.115 7.12063 120.388 8.31222 121.345 9.7425L112.75 14.75V4.775ZM112 27.25C110.168 27.2451 108.365 26.7954 106.745 25.9394C105.126 25.0835 103.738 23.847 102.702 22.3363L112.366 16.7113L112.387 16.6987L122.096 11.0437C122.938 12.7587 123.329 14.6596 123.232 16.5675C123.136 18.4754 122.555 20.3273 121.545 21.9486C120.535 23.57 119.129 24.9075 117.459 25.835C115.789 26.7625 113.91 27.2495 112 27.25Z" fill="currentColor"/>
<path d="M155.727 14.58C155.962 14.4502 156.157 14.2602 156.292 14.0296C156.428 13.7991 156.5 13.5364 156.5 13.2688V5.0925C156.5 4.8411 156.437 4.59373 156.316 4.37312C156.196 4.1525 156.022 3.96573 155.81 3.82994C155.599 3.69416 155.356 3.61374 155.106 3.59605C154.855 3.57837 154.604 3.624 154.375 3.72875C152.028 4.80895 150.039 6.53853 148.643 8.71307C147.248 10.8876 146.504 13.4162 146.5 16C146.5 16.4213 146.52 16.845 146.559 17.2625C146.582 17.5106 146.667 17.749 146.805 17.9561C146.944 18.1633 147.131 18.3327 147.352 18.4491C147.572 18.5654 147.818 18.6251 148.067 18.6226C148.316 18.6202 148.561 18.5557 148.779 18.435L155.727 14.58ZM153.5 7.7575V12.3825L149.601 14.545C149.982 11.8662 151.378 9.43626 153.5 7.7575ZM171.735 9.3325C171.721 9.3025 171.705 9.27375 171.689 9.245C171.672 9.21625 171.656 9.19125 171.639 9.16625C170.447 7.1377 168.747 5.45552 166.705 4.28628C164.664 3.11704 162.353 2.50129 160 2.5C159.602 2.5 159.221 2.65804 158.939 2.93934C158.658 3.22064 158.5 3.60218 158.5 4V15.1912L148.898 20.7838C148.727 20.8832 148.577 21.0154 148.458 21.1728C148.338 21.3302 148.251 21.5096 148.201 21.7008C148.151 21.892 148.14 22.0912 148.167 22.2869C148.194 22.4826 148.26 22.671 148.36 22.8412C149.861 25.3963 152.161 27.3865 154.905 28.5048C157.649 29.6232 160.685 29.8075 163.545 29.0294C166.404 28.2513 168.928 26.554 170.727 24.1993C172.526 21.8446 173.501 18.9633 173.5 16C173.503 13.6616 172.895 11.363 171.735 9.3325ZM161.5 5.60625C164.168 5.99414 166.584 7.39214 168.25 9.51125L161.5 13.4438V5.60625ZM160 26.5C158.427 26.4958 156.874 26.14 155.456 25.4587C154.038 24.7775 152.79 23.788 151.804 22.5625L160.731 17.3625L160.776 17.3375L169.75 12.1088C170.386 13.7016 170.621 15.4258 170.437 17.1308C170.252 18.8358 169.652 20.4696 168.69 21.8894C167.729 23.3091 166.434 24.4717 164.919 25.2754C163.404 26.0792 161.715 26.4996 160 26.5Z" fill="currentColor"/>
<path d="M204.5 14.5538C204.652 14.466 204.778 14.3397 204.866 14.1876C204.954 14.0356 205 13.8631 205 13.6875V4.6875C204.999 4.52807 204.96 4.37116 204.886 4.22986C204.813 4.08857 204.706 3.96698 204.576 3.87524C204.445 3.7835 204.295 3.72426 204.137 3.70248C203.979 3.68069 203.818 3.69699 203.668 3.75C200.749 4.78302 198.294 6.8233 196.745 9.50409C195.196 12.1849 194.654 15.3303 195.216 18.375C195.246 18.5324 195.312 18.6806 195.41 18.807C195.509 18.9333 195.636 19.0343 195.781 19.1012C195.913 19.1625 196.055 19.1941 196.2 19.1938C196.376 19.1938 196.548 19.1477 196.7 19.06L204.5 14.5538ZM203 6.2025V13.11L197.015 16.5637C197 16.375 197 16.185 197 16C197.002 13.973 197.563 11.9857 198.622 10.2571C199.68 8.5284 201.195 7.12539 203 6.2025ZM221 16C221.001 18.8539 220.063 21.6288 218.33 23.8967C216.598 26.1645 214.167 27.7991 211.413 28.5484C208.66 29.2977 205.736 29.12 203.093 28.0427C200.45 26.9655 198.235 25.0484 196.79 22.5875C196.723 22.4738 196.679 22.3479 196.66 22.2171C196.642 22.0862 196.649 21.953 196.683 21.8252C196.716 21.6973 196.775 21.5774 196.855 21.4722C196.935 21.367 197.035 21.2788 197.149 21.2125L207 15.4788V4C207 3.73478 207.106 3.48043 207.293 3.29289C207.481 3.10536 207.735 3 208 3C210.269 3.00116 212.498 3.59567 214.465 4.72451C216.433 5.85335 218.072 7.47725 219.218 9.435C219.231 9.455 219.244 9.475 219.256 9.49625C219.269 9.5175 219.281 9.5425 219.293 9.565C220.414 11.524 221.003 13.7427 221 16Z" fill="currentColor"/>
<path opacity="0.2" d="M252 4.6875V13.6875L244.2 18.1875C243.679 15.3771 244.179 12.473 245.609 9.99816C247.039 7.52328 249.305 5.64007 252 4.6875Z" fill="currentColor"/>
<path d="M252.5 14.5538C252.652 14.466 252.778 14.3397 252.866 14.1876C252.954 14.0356 253 13.8631 253 13.6875V4.6875C252.999 4.52807 252.96 4.37116 252.886 4.22986C252.813 4.08857 252.706 3.96698 252.576 3.87524C252.445 3.7835 252.295 3.72426 252.137 3.70248C251.979 3.68069 251.818 3.69699 251.668 3.75C248.749 4.78302 246.294 6.8233 244.745 9.50409C243.196 12.1849 242.654 15.3303 243.216 18.375C243.246 18.5324 243.312 18.6806 243.41 18.807C243.509 18.9333 243.636 19.0343 243.781 19.1012C243.913 19.1625 244.055 19.1941 244.2 19.1938C244.376 19.1938 244.548 19.1477 244.7 19.06L252.5 14.5538ZM251 6.2025V13.11L245.015 16.5637C245 16.375 245 16.185 245 16C245.002 13.973 245.563 11.9857 246.622 10.2571C247.68 8.5284 249.195 7.12539 251 6.2025ZM267.293 9.565C267.281 9.5425 267.27 9.51875 267.256 9.49625C267.243 9.47375 267.231 9.455 267.218 9.435C266.072 7.47725 264.433 5.85335 262.465 4.72451C260.498 3.59567 258.269 3.00116 256 3C255.735 3 255.481 3.10536 255.293 3.29289C255.106 3.48043 255 3.73478 255 4V15.4788L245.149 21.2162C245.035 21.2825 244.935 21.3708 244.855 21.4759C244.775 21.5811 244.716 21.7011 244.683 21.8289C244.649 21.9568 244.642 22.09 244.66 22.2208C244.679 22.3517 244.723 22.4776 244.79 22.5912C246.236 25.0525 248.451 26.9696 251.094 28.0468C253.737 29.1241 256.661 29.3015 259.415 28.5517C262.169 27.8019 264.6 26.1666 266.332 23.8982C268.064 21.6297 269.002 18.8542 269 16C269.003 13.7427 268.414 11.524 267.293 9.565ZM257 5.045C258.586 5.19099 260.122 5.67945 261.5 6.47666C262.879 7.27387 264.069 8.36083 264.986 9.6625L257 14.3138V5.045ZM256 27C254.254 26.9955 252.535 26.5777 250.981 25.7808C249.428 24.9839 248.086 23.8305 247.064 22.415L256.489 16.9263L256.516 16.9088L265.988 11.3925C266.761 13.0684 267.1 14.9119 266.973 16.7532C266.847 18.5945 266.259 20.3745 265.264 21.929C264.27 23.4836 262.9 24.7629 261.281 25.6491C259.662 26.5353 257.846 26.9998 256 27Z" fill="currentColor"/>
</g>
<defs>
<clipPath id="clip0_17_3644">
<rect width="272" height="32" rx="5" fill="white"/>
</clipPath>
</defs>
</svg>
