<svg width="272" height="32" viewBox="0 0 272 32" fill="none" xmlns="http://www.w3.org/2000/svg">
<g clip-path="url(#clip0_17_3630)">
<path d="M16 3C13.4288 3 10.9154 3.76244 8.77759 5.1909C6.63975 6.61935 4.97351 8.64968 3.98957 11.0251C3.00563 13.4006 2.74819 16.0144 3.2498 18.5362C3.75141 21.0579 4.98953 23.3743 6.80762 25.1924C8.6257 27.0105 10.9421 28.2486 13.4638 28.7502C15.9856 29.2518 18.5995 28.9944 20.9749 28.0104C23.3503 27.0265 25.3807 25.3603 26.8091 23.2224C28.2376 21.0846 29 18.5712 29 16C28.9964 12.5533 27.6256 9.24882 25.1884 6.81163C22.7512 4.37445 19.4467 3.00364 16 3ZM26.9538 15H23.935C23.7105 13.2391 22.9077 11.6027 21.6525 10.3475C20.3973 9.0923 18.7609 8.28946 17 8.065V5.04625C19.5599 5.28325 21.9562 6.40808 23.7741 8.22592C25.5919 10.0438 26.7168 12.4401 26.9538 15ZM15 15H10.085C10.2943 13.7726 10.8797 12.6405 11.7601 11.7601C12.6405 10.8797 13.7726 10.2943 15 10.085V15ZM15 17V21.915C13.7726 21.7057 12.6405 21.1203 11.7601 20.2399C10.8797 19.3595 10.2943 18.2274 10.085 17H15ZM17 17H21.915C21.7057 18.2274 21.1204 19.3595 20.2399 20.2399C19.3595 21.1203 18.2274 21.7057 17 21.915V17ZM17 15V10.085C18.2274 10.2943 19.3595 10.8797 20.2399 11.7601C21.1204 12.6405 21.7057 13.7726 21.915 15H17ZM15 5.04625V8.065C13.2392 8.28946 11.6027 9.0923 10.3475 10.3475C9.09231 11.6027 8.28947 13.2391 8.06501 15H5.04626C5.28326 12.4401 6.40809 10.0438 8.22593 8.22592C10.0438 6.40808 12.4401 5.28325 15 5.04625ZM5.04626 17H8.06501C8.28947 18.7609 9.09231 20.3973 10.3475 21.6525C11.6027 22.9077 13.2392 23.7105 15 23.935V26.9538C12.4401 26.7167 10.0438 25.5919 8.22593 23.7741C6.40809 21.9562 5.28326 19.5599 5.04626 17ZM17 26.9538V23.935C18.7609 23.7105 20.3973 22.9077 21.6525 21.6525C22.9077 20.3973 23.7105 18.7609 23.935 17H26.9538C26.7168 19.5599 25.5919 21.9562 23.7741 23.7741C21.9562 25.5919 19.5599 26.7167 17 26.9538Z" fill="currentColor"/>
<path d="M64 3.5C61.5277 3.5 59.111 4.23311 57.0554 5.60663C54.9998 6.98015 53.3976 8.93238 52.4515 11.2165C51.5054 13.5005 51.2579 16.0139 51.7402 18.4386C52.2225 20.8634 53.413 23.0907 55.1612 24.8388C56.9093 26.587 59.1366 27.7775 61.5614 28.2598C63.9861 28.7421 66.4995 28.4946 68.7835 27.5485C71.0676 26.6024 73.0199 25.0002 74.3934 22.9446C75.7669 20.889 76.5 18.4723 76.5 16C76.4964 12.6859 75.1782 9.5086 72.8348 7.16518C70.4914 4.82177 67.3141 3.50364 64 3.5ZM75.4888 15.5H71.4813C71.3579 13.6891 70.5828 11.9841 69.2993 10.7007C68.0159 9.41719 66.3109 8.64207 64.5 8.51875V4.51125C67.373 4.64009 70.0938 5.83919 72.1273 7.87272C74.1608 9.90625 75.3599 12.627 75.4888 15.5ZM63.5 15.5H57.5213C57.6422 13.9546 58.3109 12.5032 59.4071 11.4071C60.5032 10.3109 61.9546 9.6422 63.5 9.52125V15.5ZM63.5 16.5V22.4788C61.9546 22.3578 60.5032 21.6891 59.4071 20.5929C58.3109 19.4968 57.6422 18.0454 57.5213 16.5H63.5ZM64.5 16.5H70.4788C70.3578 18.0454 69.6891 19.4968 68.593 20.5929C67.4968 21.6891 66.0454 22.3578 64.5 22.4788V16.5ZM64.5 15.5V9.52125C66.0454 9.6422 67.4968 10.3109 68.593 11.4071C69.6891 12.5032 70.3578 13.9546 70.4788 15.5H64.5ZM63.5 4.51125V8.51875C61.6891 8.64207 59.9841 9.41719 58.7007 10.7007C57.4172 11.9841 56.6421 13.6891 56.5188 15.5H52.5113C52.6401 12.627 53.8392 9.90625 55.8727 7.87272C57.9063 5.83919 60.627 4.64009 63.5 4.51125ZM52.5113 16.5H56.5188C56.6421 18.3109 57.4172 20.0159 58.7007 21.2993C59.9841 22.5828 61.6891 23.3579 63.5 23.4813V27.4888C60.627 27.3599 57.9063 26.1608 55.8727 24.1273C53.8392 22.0938 52.6401 19.373 52.5113 16.5ZM64.5 27.4888V23.4813C66.3109 23.3579 68.0159 22.5828 69.2993 21.2993C70.5828 20.0159 71.3579 18.3109 71.4813 16.5H75.4888C75.3599 19.373 74.1608 22.0938 72.1273 24.1273C70.0938 26.1608 67.373 27.3599 64.5 27.4888Z" fill="currentColor"/>
<path d="M112 3.25C109.478 3.25 107.013 3.99777 104.916 5.39876C102.82 6.79975 101.186 8.79103 100.221 11.1208C99.2555 13.4505 99.003 16.0141 99.495 18.4874C99.987 20.9607 101.201 23.2325 102.984 25.0156C104.768 26.7987 107.039 28.0131 109.513 28.505C111.986 28.997 114.549 28.7445 116.879 27.7795C119.209 26.8144 121.2 25.1802 122.601 23.0835C124.002 20.9868 124.75 18.5217 124.75 16C124.746 12.6197 123.401 9.379 121.011 6.98877C118.621 4.59854 115.38 3.25397 112 3.25ZM123.225 15.25H119.713C119.537 13.4631 118.747 11.7924 117.477 10.5228C116.208 9.25314 114.537 8.46316 112.75 8.2875V4.775C115.467 4.9605 118.025 6.12367 119.951 8.04937C121.876 9.97506 123.04 12.533 123.225 15.25ZM111.25 15.25H105.796C105.966 13.8626 106.595 12.572 107.584 11.5837C108.572 10.5954 109.863 9.96615 111.25 9.79625V15.25ZM111.25 16.75V22.2038C109.863 22.0339 108.572 21.4046 107.584 20.4163C106.595 19.428 105.966 18.1374 105.796 16.75H111.25ZM112.75 16.75H118.204C118.034 18.1374 117.405 19.428 116.416 20.4163C115.428 21.4046 114.137 22.0339 112.75 22.2038V16.75ZM112.75 15.25V9.79625C114.137 9.96615 115.428 10.5954 116.416 11.5837C117.405 12.572 118.034 13.8626 118.204 15.25H112.75ZM111.25 4.775V8.2875C109.463 8.46316 107.792 9.25314 106.523 10.5228C105.253 11.7924 104.463 13.4631 104.288 15.25H100.775C100.961 12.533 102.124 9.97506 104.049 8.04937C105.975 6.12367 108.533 4.9605 111.25 4.775ZM100.775 16.75H104.288C104.463 18.5369 105.253 20.2076 106.523 21.4772C107.792 22.7469 109.463 23.5368 111.25 23.7125V27.225C108.533 27.0395 105.975 25.8763 104.049 23.9506C102.124 22.0249 100.961 19.467 100.775 16.75ZM112.75 27.225V23.7125C114.537 23.5368 116.208 22.7469 117.477 21.4772C118.747 20.2076 119.537 18.5369 119.713 16.75H123.225C123.04 19.467 121.876 22.0249 119.951 23.9506C118.025 25.8763 115.467 27.0395 112.75 27.225Z" fill="currentColor"/>
<path d="M160 2.5C157.33 2.5 154.72 3.29176 152.5 4.77516C150.28 6.25856 148.549 8.36697 147.528 10.8338C146.506 13.3006 146.239 16.015 146.759 18.6337C147.28 21.2525 148.566 23.6579 150.454 25.5459C152.342 27.434 154.748 28.7197 157.366 29.2406C159.985 29.7615 162.699 29.4942 165.166 28.4724C167.633 27.4506 169.741 25.7203 171.225 23.5002C172.708 21.2801 173.5 18.67 173.5 16C173.496 12.4208 172.072 8.98932 169.542 6.45844C167.011 3.92756 163.579 2.50397 160 2.5ZM170.391 14.5H168.365C168.056 12.7929 167.233 11.2208 166.006 9.99403C164.779 8.76725 163.207 7.94423 161.5 7.635V5.60875C163.742 5.93617 165.818 6.97832 167.42 8.58024C169.022 10.1822 170.064 12.2583 170.391 14.5ZM158.5 14.5H154.71C154.967 13.5982 155.451 12.7769 156.114 12.1137C156.777 11.4506 157.598 10.9675 158.5 10.71V14.5ZM158.5 17.5V21.29C157.598 21.0325 156.777 20.5494 156.114 19.8863C155.451 19.2231 154.967 18.4018 154.71 17.5H158.5ZM161.5 17.5H165.29C165.033 18.4018 164.549 19.2231 163.886 19.8863C163.223 20.5494 162.402 21.0325 161.5 21.29V17.5ZM161.5 14.5V10.71C162.402 10.9675 163.223 11.4506 163.886 12.1137C164.549 12.7769 165.033 13.5982 165.29 14.5H161.5ZM158.5 5.60875V7.635C156.793 7.94423 155.221 8.76725 153.994 9.99403C152.767 11.2208 151.944 12.7929 151.635 14.5H149.609C149.936 12.2583 150.978 10.1822 152.58 8.58024C154.182 6.97832 156.258 5.93617 158.5 5.60875ZM149.609 17.5H151.635C151.944 19.2071 152.767 20.7792 153.994 22.006C155.221 23.2327 156.793 24.0558 158.5 24.365V26.3913C156.258 26.0638 154.182 25.0217 152.58 23.4198C150.978 21.8178 149.936 19.7417 149.609 17.5ZM161.5 26.3913V24.365C163.207 24.0558 164.779 23.2327 166.006 22.006C167.233 20.7792 168.056 19.2071 168.365 17.5H170.391C170.064 19.7417 169.022 21.8178 167.42 23.4198C165.818 25.0217 163.742 26.0638 161.5 26.3913Z" fill="currentColor"/>
<path d="M207 24.9425V28.41C207.001 28.4808 206.986 28.5509 206.957 28.6156C206.929 28.6803 206.887 28.7383 206.834 28.7855C206.781 28.8328 206.719 28.8683 206.652 28.8898C206.584 28.9112 206.513 28.9181 206.443 28.91C203.555 28.5569 200.869 27.2476 198.812 25.1906C196.755 23.1337 195.446 20.4475 195.093 17.56C195.085 17.4897 195.091 17.4184 195.113 17.351C195.134 17.2835 195.17 17.2213 195.217 17.1686C195.264 17.1159 195.322 17.0739 195.387 17.0452C195.452 17.0166 195.522 17.002 195.593 17.0025H199.058C199.288 19.0294 200.199 20.9184 201.641 22.3606C203.084 23.8028 204.973 24.7131 207 24.9425ZM214.928 17H209V22.9275C210.495 22.7094 211.879 22.0147 212.947 20.9467C214.015 19.8787 214.71 18.4945 214.928 17ZM209 9.07249V15H214.928C214.71 13.5055 214.015 12.1213 212.947 11.0533C211.879 9.98528 210.495 9.29058 209 9.07249ZM220.41 17H216.943C216.713 19.0274 215.803 20.9169 214.36 22.3596C212.917 23.8024 211.028 24.713 209 24.9425V28.41C209 28.4808 209.014 28.5509 209.043 28.6156C209.072 28.6803 209.114 28.7383 209.166 28.7855C209.219 28.8328 209.281 28.8683 209.349 28.8898C209.416 28.9112 209.487 28.9181 209.558 28.91C212.445 28.5569 215.131 27.2476 217.188 25.1906C219.245 23.1337 220.555 20.4475 220.908 17.56C220.916 17.4897 220.91 17.4184 220.889 17.3508C220.867 17.2832 220.832 17.2209 220.785 17.1679C220.738 17.115 220.68 17.0726 220.616 17.0437C220.551 17.0147 220.481 16.9998 220.41 17ZM216.943 15H220.41C220.481 15.0005 220.551 14.9859 220.616 14.9572C220.681 14.9286 220.738 14.8865 220.786 14.8338C220.833 14.7811 220.869 14.719 220.89 14.6515C220.911 14.5841 220.918 14.5128 220.91 14.4425C220.557 11.555 219.248 8.8688 217.191 6.81184C215.134 4.75489 212.448 3.44556 209.56 3.09249C209.49 3.08435 209.419 3.09123 209.351 3.11269C209.284 3.13414 209.222 3.16968 209.169 3.21694C209.116 3.26421 209.074 3.32213 209.045 3.38687C209.017 3.45161 209.002 3.5217 209.003 3.59249V7.05749C211.03 7.28755 212.919 8.19836 214.361 9.64105C215.803 11.0837 216.713 12.973 216.943 15ZM206.443 3.09249C203.555 3.44556 200.869 4.75489 198.812 6.81184C196.755 8.8688 195.446 11.555 195.093 14.4425C195.085 14.5128 195.091 14.5841 195.113 14.6515C195.134 14.719 195.17 14.7811 195.217 14.8338C195.264 14.8865 195.322 14.9286 195.387 14.9572C195.452 14.9859 195.522 15.0005 195.593 15H199.058C199.287 12.9726 200.198 11.0831 201.641 9.64034C203.083 8.1976 204.973 7.28702 207 7.05749V3.58999C207 3.51941 206.985 3.4496 206.957 3.38516C206.928 3.32072 206.886 3.26311 206.833 3.21612C206.78 3.16912 206.718 3.13381 206.651 3.1125C206.584 3.09119 206.513 3.08437 206.443 3.09249ZM201.073 15H207V9.07249C205.506 9.29058 204.121 9.98528 203.053 11.0533C201.985 12.1213 201.291 13.5055 201.073 15ZM207 22.9275V17H201.073C201.291 18.4945 201.985 19.8787 203.053 20.9467C204.121 22.0147 205.506 22.7094 207 22.9275Z" fill="currentColor"/>
<path opacity="0.2" d="M263 16C263 17.3845 262.589 18.7378 261.82 19.889C261.051 21.0401 259.958 21.9373 258.679 22.4672C257.4 22.997 255.992 23.1356 254.634 22.8655C253.277 22.5954 252.029 21.9287 251.05 20.9497C250.071 19.9708 249.405 18.7235 249.135 17.3656C248.864 16.0078 249.003 14.6003 249.533 13.3212C250.063 12.0421 250.96 10.9489 252.111 10.1797C253.262 9.41054 254.616 9 256 9C257.857 9 259.637 9.7375 260.95 11.0503C262.263 12.363 263 14.1435 263 16Z" fill="currentColor"/>
<path d="M256 3C253.429 3 250.915 3.76244 248.778 5.1909C246.64 6.61935 244.974 8.64968 243.99 11.0251C243.006 13.4006 242.748 16.0144 243.25 18.5362C243.751 21.0579 244.99 23.3743 246.808 25.1924C248.626 27.0105 250.942 28.2486 253.464 28.7502C255.986 29.2518 258.599 28.9944 260.975 28.0104C263.35 27.0265 265.381 25.3603 266.809 23.2224C268.238 21.0846 269 18.5712 269 16C268.996 12.5533 267.626 9.24882 265.188 6.81163C262.751 4.37445 259.447 3.00364 256 3ZM266.954 15H263.935C263.711 13.2391 262.908 11.6027 261.653 10.3475C260.397 9.0923 258.761 8.28946 257 8.065V5.04625C259.56 5.28325 261.956 6.40808 263.774 8.22592C265.592 10.0438 266.717 12.4401 266.954 15ZM255 15H250.085C250.294 13.7726 250.88 12.6405 251.76 11.7601C252.641 10.8797 253.773 10.2943 255 10.085V15ZM255 17V21.915C253.773 21.7057 252.641 21.1203 251.76 20.2399C250.88 19.3595 250.294 18.2274 250.085 17H255ZM257 17H261.915C261.706 18.2274 261.12 19.3595 260.24 20.2399C259.359 21.1203 258.227 21.7057 257 21.915V17ZM257 15V10.085C258.227 10.2943 259.359 10.8797 260.24 11.7601C261.12 12.6405 261.706 13.7726 261.915 15H257ZM255 5.04625V8.065C253.239 8.28946 251.603 9.0923 250.347 10.3475C249.092 11.6027 248.289 13.2391 248.065 15H245.046C245.283 12.4401 246.408 10.0438 248.226 8.22592C250.044 6.40808 252.44 5.28325 255 5.04625ZM245.046 17H248.065C248.289 18.7609 249.092 20.3973 250.347 21.6525C251.603 22.9077 253.239 23.7105 255 23.935V26.9538C252.44 26.7167 250.044 25.5919 248.226 23.7741C246.408 21.9562 245.283 19.5599 245.046 17ZM257 26.9538V23.935C258.761 23.7105 260.397 22.9077 261.653 21.6525C262.908 20.3973 263.711 18.7609 263.935 17H266.954C266.717 19.5599 265.592 21.9562 263.774 23.7741C261.956 25.5919 259.56 26.7167 257 26.9538Z" fill="currentColor"/>
</g>
<defs>
<clipPath id="clip0_17_3630">
<rect width="272" height="32" rx="5" fill="white"/>
</clipPath>
</defs>
</svg>
