<svg width="272" height="32" viewBox="0 0 272 32" fill="none" xmlns="http://www.w3.org/2000/svg">
<g clip-path="url(#clip0_17_3686)">
<path d="M29 26C29 26.2652 28.8946 26.5196 28.7071 26.7071C28.5196 26.8946 28.2652 27 28 27H4C3.73478 27 3.48043 26.8946 3.29289 26.7071C3.10536 26.5196 3 26.2652 3 26V6C3 5.73478 3.10536 5.48043 3.29289 5.29289C3.48043 5.10536 3.73478 5 4 5C4.26522 5 4.51957 5.10536 4.70711 5.29289C4.89464 5.48043 5 5.73478 5 6V7.58625L12 14.5863L15.2925 11.2925C15.3854 11.1995 15.4957 11.1258 15.6171 11.0754C15.7385 11.0251 15.8686 10.9992 16 10.9992C16.1314 10.9992 16.2615 11.0251 16.3829 11.0754C16.5043 11.1258 16.6146 11.1995 16.7075 11.2925L24 18.5863V16C24 15.7348 24.1054 15.4804 24.2929 15.2929C24.4804 15.1054 24.7348 15 25 15C25.2652 15 25.5196 15.1054 25.7071 15.2929C25.8946 15.4804 26 15.7348 26 16V21C26.0019 21.0333 26.0019 21.0667 26 21.1C26 21.1138 26 21.1262 25.9937 21.14C25.9875 21.1537 25.9938 21.1775 25.985 21.1975C25.9823 21.2132 25.9785 21.2286 25.9737 21.2437C25.9737 21.26 25.9662 21.2762 25.9613 21.2925C25.9563 21.3088 25.9513 21.3213 25.9463 21.3363L25.9287 21.385L25.91 21.4237C25.9025 21.44 25.895 21.4575 25.8862 21.4737C25.8775 21.49 25.8725 21.4963 25.8662 21.5088L25.8363 21.5575L25.81 21.5925L25.7775 21.6362C25.7638 21.6537 25.7475 21.67 25.7325 21.6863L25.7125 21.7087L25.6912 21.7275C25.6747 21.7439 25.6571 21.7594 25.6388 21.7738C25.626 21.7849 25.6126 21.7953 25.5987 21.805L25.5613 21.8325L25.5138 21.8612C25.5017 21.8691 25.4892 21.8762 25.4762 21.8825L25.43 21.9062L25.3875 21.925L25.3425 21.9412C25.3271 21.9478 25.3112 21.9532 25.295 21.9575L25.25 21.97C25.2325 21.97 25.2175 21.9788 25.2 21.9813L25.1475 21.99L25.1038 21.9963C25.0709 21.9981 25.0379 21.9981 25.005 21.9963H20C19.7348 21.9963 19.4804 21.8909 19.2929 21.7034C19.1054 21.5158 19 21.2615 19 20.9963C19 20.731 19.1054 20.4767 19.2929 20.2891C19.4804 20.1016 19.7348 19.9963 20 19.9963H22.5863L16 13.4137L12.7075 16.7075C12.6146 16.8005 12.5043 16.8742 12.3829 16.9246C12.2615 16.9749 12.1314 17.0008 12 17.0008C11.8686 17.0008 11.7385 16.9749 11.6171 16.9246C11.4957 16.8742 11.3854 16.8005 11.2925 16.7075L5 10.4137V25H28C28.2652 25 28.5196 25.1054 28.7071 25.2929C28.8946 25.4804 29 25.7348 29 26Z" fill="currentColor"/>
<path d="M76.5 26C76.5 26.1326 76.4473 26.2598 76.3536 26.3536C76.2598 26.4473 76.1326 26.5 76 26.5H52C51.8674 26.5 51.7402 26.4473 51.6464 26.3536C51.5527 26.2598 51.5 26.1326 51.5 26V6C51.5 5.86739 51.5527 5.74021 51.6464 5.64645C51.7402 5.55268 51.8674 5.5 52 5.5C52.1326 5.5 52.2598 5.55268 52.3536 5.64645C52.4473 5.74021 52.5 5.86739 52.5 6V7.7925L60 15.2925L63.6462 11.6462C63.6927 11.5998 63.7478 11.5629 63.8085 11.5377C63.8692 11.5126 63.9343 11.4996 64 11.4996C64.0657 11.4996 64.1308 11.5126 64.1915 11.5377C64.2522 11.5629 64.3073 11.5998 64.3538 11.6462L72.5 19.7925V16C72.5 15.8674 72.5527 15.7402 72.6464 15.6464C72.7402 15.5527 72.8674 15.5 73 15.5C73.1326 15.5 73.2598 15.5527 73.3536 15.6464C73.4473 15.7402 73.5 15.8674 73.5 16V21C73.4998 21.0327 73.4964 21.0654 73.49 21.0975C73.4866 21.1119 73.4824 21.1261 73.4775 21.14C73.4734 21.1575 73.468 21.1746 73.4613 21.1912C73.4542 21.2081 73.4458 21.2244 73.4363 21.24C73.43 21.2525 73.4237 21.265 73.4163 21.2775C73.3792 21.3321 73.3321 21.3792 73.2775 21.4163L73.2388 21.4363C73.2234 21.4456 73.2076 21.4539 73.1912 21.4613C73.1746 21.468 73.1575 21.4734 73.14 21.4775C73.1261 21.4824 73.1119 21.4866 73.0975 21.49C73.0654 21.4964 73.0327 21.4998 73 21.5H68C67.8674 21.5 67.7402 21.4473 67.6464 21.3536C67.5527 21.2598 67.5 21.1326 67.5 21C67.5 20.8674 67.5527 20.7402 67.6464 20.6464C67.7402 20.5527 67.8674 20.5 68 20.5H71.7925L64 12.7075L60.3538 16.3538C60.3073 16.4002 60.2522 16.4371 60.1915 16.4623C60.1308 16.4874 60.0657 16.5004 60 16.5004C59.9343 16.5004 59.8692 16.4874 59.8085 16.4623C59.7478 16.4371 59.6927 16.4002 59.6462 16.3538L52.5 9.2075V25.5H76C76.1326 25.5 76.2598 25.5527 76.3536 25.6464C76.4473 25.7402 76.5 25.8674 76.5 26Z" fill="currentColor"/>
<path d="M124.75 26C124.75 26.1989 124.671 26.3897 124.53 26.5303C124.39 26.671 124.199 26.75 124 26.75H100C99.8011 26.75 99.6103 26.671 99.4697 26.5303C99.329 26.3897 99.25 26.1989 99.25 26V6C99.25 5.80109 99.329 5.61032 99.4697 5.46967C99.6103 5.32902 99.8011 5.25 100 5.25C100.199 5.25 100.39 5.32902 100.53 5.46967C100.671 5.61032 100.75 5.80109 100.75 6V7.69L108 14.94L111.47 11.4712C111.611 11.3308 111.801 11.2519 112 11.2519C112.199 11.2519 112.389 11.3308 112.53 11.4712L120.25 19.19V16C120.25 15.8011 120.329 15.6103 120.47 15.4697C120.61 15.329 120.801 15.25 121 15.25C121.199 15.25 121.39 15.329 121.53 15.4697C121.671 15.6103 121.75 15.8011 121.75 16V21C121.75 21.0462 121.745 21.0922 121.736 21.1375V21.145C121.727 21.1896 121.714 21.2335 121.698 21.2763V21.285C121.68 21.3286 121.658 21.3704 121.632 21.41V21.4175C121.577 21.5003 121.505 21.5716 121.423 21.6275H121.415C121.375 21.653 121.334 21.6747 121.29 21.6925H121.281C121.239 21.7086 121.195 21.7216 121.15 21.7313H121.142C121.097 21.7403 121.051 21.7449 121.005 21.745H116C115.801 21.745 115.61 21.666 115.47 21.5253C115.329 21.3847 115.25 21.1939 115.25 20.995C115.25 20.7961 115.329 20.6053 115.47 20.4647C115.61 20.324 115.801 20.245 116 20.245H119.19L112 13.0612L108.53 16.53C108.389 16.6705 108.199 16.7493 108 16.7493C107.801 16.7493 107.611 16.6705 107.47 16.53L100.75 9.81V25.25H124C124.199 25.25 124.39 25.329 124.53 25.4697C124.671 25.6103 124.75 25.8011 124.75 26Z" fill="currentColor"/>
<path d="M173.5 26C173.5 26.3978 173.342 26.7794 173.061 27.0607C172.779 27.342 172.398 27.5 172 27.5H148C147.602 27.5 147.221 27.342 146.939 27.0607C146.658 26.7794 146.5 26.3978 146.5 26V6C146.5 5.60218 146.658 5.22064 146.939 4.93934C147.221 4.65804 147.602 4.5 148 4.5C148.398 4.5 148.779 4.65804 149.061 4.93934C149.342 5.22064 149.5 5.60218 149.5 6V7.375L156 13.875L158.939 10.935C159.078 10.7952 159.244 10.6842 159.426 10.6085C159.608 10.5328 159.804 10.4938 160.001 10.4938C160.199 10.4938 160.394 10.5328 160.576 10.6085C160.759 10.6842 160.924 10.7952 161.064 10.935L167.5 17.375V16C167.5 15.6022 167.658 15.2206 167.939 14.9393C168.221 14.658 168.602 14.5 169 14.5C169.398 14.5 169.779 14.658 170.061 14.9393C170.342 15.2206 170.5 15.6022 170.5 16V21C170.5 21.05 170.497 21.1 170.493 21.15C170.493 21.17 170.486 21.1912 170.484 21.2113C170.481 21.2313 170.476 21.2675 170.471 21.295C170.466 21.3225 170.46 21.3425 170.454 21.365C170.448 21.3875 170.442 21.4137 170.435 21.4375L170.411 21.505C170.402 21.5287 170.395 21.5525 170.385 21.575C170.375 21.5975 170.366 21.6175 170.356 21.6375C170.346 21.6575 170.335 21.685 170.323 21.7087C170.31 21.7325 170.3 21.7463 170.289 21.765C170.278 21.7837 170.262 21.8125 170.247 21.835C170.233 21.8575 170.217 21.875 170.202 21.8937C170.188 21.9125 170.175 21.9338 170.16 21.9525C170.145 21.9712 170.103 22.0187 170.071 22.05L170.061 22.0625L170.049 22.0725C170.017 22.1038 169.985 22.1325 169.951 22.1612L169.894 22.2038C169.874 22.2188 169.854 22.235 169.834 22.2488C169.814 22.2625 169.787 22.2763 169.765 22.29C169.743 22.3038 169.728 22.3137 169.708 22.3237C169.688 22.3337 169.661 22.3463 169.638 22.3575C169.614 22.3687 169.596 22.3775 169.574 22.3862L169.506 22.4125L169.435 22.4363C169.412 22.4434 169.389 22.4492 169.366 22.4538L169.294 22.4725L169.214 22.4837L169.147 22.4937C169.098 22.4984 169.049 22.5004 169 22.5H164C163.602 22.5 163.221 22.342 162.939 22.0607C162.658 21.7794 162.5 21.3978 162.5 21C162.5 20.6022 162.658 20.2206 162.939 19.9393C163.221 19.658 163.602 19.5 164 19.5H165.375L160 14.125L157.061 17.065C156.922 17.2048 156.756 17.3158 156.574 17.3915C156.392 17.4672 156.196 17.5062 155.999 17.5062C155.801 17.5062 155.606 17.4672 155.424 17.3915C155.241 17.3158 155.076 17.2048 154.936 17.065L149.5 11.625V24.5H172C172.398 24.5 172.779 24.658 173.061 24.9393C173.342 25.2206 173.5 25.6022 173.5 26Z" fill="currentColor"/>
<path d="M221 26C221 26.2652 220.895 26.5196 220.707 26.7071C220.52 26.8946 220.265 27 220 27H196C195.735 27 195.48 26.8946 195.293 26.7071C195.105 26.5196 195 26.2652 195 26V6C195 5.73478 195.105 5.48043 195.293 5.29289C195.48 5.10536 195.735 5 196 5C196.265 5 196.52 5.10536 196.707 5.29289C196.895 5.48043 197 5.73478 197 6V7.58625L204 14.5863L207.292 11.2925C207.385 11.1995 207.496 11.1258 207.617 11.0754C207.738 11.0251 207.869 10.9992 208 10.9992C208.131 10.9992 208.262 11.0251 208.383 11.0754C208.504 11.1258 208.615 11.1995 208.708 11.2925L214.5 17.0863L216.292 15.2925C216.432 15.1525 216.611 15.0571 216.805 15.0185C216.999 14.9798 217.2 14.9996 217.383 15.0754C217.566 15.1511 217.722 15.2794 217.832 15.444C217.942 15.6086 218 15.8021 218 16V21C218 21.2652 217.895 21.5196 217.707 21.7071C217.52 21.8946 217.265 22 217 22H212C211.802 22.0002 211.609 21.9416 211.444 21.8317C211.279 21.7218 211.151 21.5656 211.075 21.3828C211 21.2 210.98 20.9988 211.018 20.8047C211.057 20.6106 211.152 20.4324 211.292 20.2925L213.086 18.5L208 13.4137L204.708 16.7075C204.615 16.8005 204.504 16.8742 204.383 16.9246C204.262 16.9749 204.131 17.0008 204 17.0008C203.869 17.0008 203.738 16.9749 203.617 16.9246C203.496 16.8742 203.385 16.8005 203.292 16.7075L197 10.4137V25H220C220.265 25 220.52 25.1054 220.707 25.2929C220.895 25.4804 221 25.7348 221 26Z" fill="currentColor"/>
<path opacity="0.2" d="M268 7V26H244V6H267C267.265 6 267.52 6.10536 267.707 6.29289C267.895 6.48043 268 6.73478 268 7Z" fill="currentColor"/>
<path d="M269 26C269 26.2652 268.895 26.5196 268.707 26.7071C268.52 26.8946 268.265 27 268 27H244C243.735 27 243.48 26.8946 243.293 26.7071C243.105 26.5196 243 26.2652 243 26V6C243 5.73478 243.105 5.48043 243.293 5.29289C243.48 5.10536 243.735 5 244 5C244.265 5 244.52 5.10536 244.707 5.29289C244.895 5.48043 245 5.73478 245 6V7.58625L252 14.5863L255.292 11.2925C255.385 11.1995 255.496 11.1258 255.617 11.0754C255.738 11.0251 255.869 10.9992 256 10.9992C256.131 10.9992 256.262 11.0251 256.383 11.0754C256.504 11.1258 256.615 11.1995 256.708 11.2925L264 18.5863V16C264 15.7348 264.105 15.4804 264.293 15.2929C264.48 15.1054 264.735 15 265 15C265.265 15 265.52 15.1054 265.707 15.2929C265.895 15.4804 266 15.7348 266 16V21C266.002 21.0333 266.002 21.0667 266 21.1C266 21.1138 266 21.1262 265.994 21.14C265.987 21.1537 265.994 21.1775 265.985 21.1975C265.982 21.2132 265.979 21.2286 265.974 21.2437C265.974 21.26 265.966 21.2762 265.961 21.2925C265.956 21.3088 265.951 21.3213 265.946 21.3363L265.929 21.385L265.91 21.4237C265.903 21.44 265.895 21.4575 265.886 21.4737C265.877 21.49 265.872 21.4963 265.866 21.5088L265.836 21.5575L265.81 21.5925L265.778 21.6362C265.764 21.6537 265.747 21.67 265.733 21.6863L265.712 21.7087L265.691 21.7275C265.675 21.7439 265.657 21.7594 265.639 21.7738C265.626 21.7849 265.613 21.7953 265.599 21.805L265.561 21.8325L265.514 21.8612C265.502 21.8691 265.489 21.8762 265.476 21.8825L265.43 21.9062L265.388 21.925L265.343 21.9412C265.327 21.9478 265.311 21.9532 265.295 21.9575L265.25 21.97C265.233 21.97 265.218 21.9788 265.2 21.9813L265.147 21.99L265.104 21.9963C265.071 21.9981 265.038 21.9981 265.005 21.9963H260C259.735 21.9963 259.48 21.8909 259.293 21.7034C259.105 21.5158 259 21.2615 259 20.9963C259 20.731 259.105 20.4767 259.293 20.2891C259.48 20.1016 259.735 19.9963 260 19.9963H262.586L256 13.4137L252.708 16.7075C252.615 16.8005 252.504 16.8742 252.383 16.9246C252.262 16.9749 252.131 17.0008 252 17.0008C251.869 17.0008 251.738 16.9749 251.617 16.9246C251.496 16.8742 251.385 16.8005 251.292 16.7075L245 10.4137V25H268C268.265 25 268.52 25.1054 268.707 25.2929C268.895 25.4804 269 25.7348 269 26Z" fill="currentColor"/>
</g>
<defs>
<clipPath id="clip0_17_3686">
<rect width="272" height="32" rx="5" fill="white"/>
</clipPath>
</defs>
</svg>
