<svg width="272" height="32" viewBox="0 0 272 32" fill="none" xmlns="http://www.w3.org/2000/svg">
<g clip-path="url(#clip0_17_3714)">
<path d="M17.1738 3.0075C16.8975 2.98341 16.6193 3.01703 16.3567 3.10622C16.0942 3.19541 15.853 3.33823 15.6486 3.5256C15.4442 3.71297 15.281 3.9408 15.1693 4.19462C15.0577 4.44844 15 4.72271 15 5V10.0838C14.9966 10.5555 15.1614 11.013 15.465 11.3741C15.7686 11.7351 16.191 11.9761 16.6563 12.0538C17.3997 12.1785 18.0928 12.5108 18.6556 13.0123C19.2184 13.5138 19.628 14.1642 19.8373 14.8884C20.0465 15.6126 20.0468 16.3812 19.8382 17.1056C19.6296 17.83 19.2205 18.4807 18.6581 18.9827C18.0957 19.4847 17.4029 19.8176 16.6596 19.9429C15.9162 20.0683 15.1526 19.981 14.4567 19.6912C13.7607 19.4014 13.1609 18.9208 12.7263 18.3049C12.2916 17.689 12.0399 16.9628 12 16.21C11.9488 15.1825 12.1588 14.335 12.625 13.6775C12.899 13.2953 13.0282 12.828 12.9895 12.3593C12.9508 11.8906 12.7468 11.4509 12.4138 11.1188L8.96126 7.585C8.76447 7.3882 8.52876 7.23463 8.26923 7.13413C8.00969 7.03363 7.73203 6.98841 7.45402 7.00135C7.176 7.01429 6.90375 7.08511 6.65467 7.20929C6.40559 7.33347 6.18517 7.50827 6.00751 7.7225C3.92373 10.22 2.85608 13.4102 3.01681 16.6588C3.17754 19.9075 4.55488 22.9767 6.87501 25.2563C9.30101 27.6631 12.5826 29.0095 16 29H16.1863C19.5669 28.9425 22.793 27.5738 25.1837 25.1828C27.5745 22.7919 28.9428 19.5657 29 16.185C29.0938 9.3975 23.8988 3.61 17.1738 3.0075ZM7.54001 8.9925L10.9913 12.5163V12.5238C10.479 13.2589 10.1573 14.1098 10.055 15H5.04501C5.24528 12.7901 6.11579 10.6941 7.54001 8.9925ZM5.04626 17H10.0838C10.2911 18.2287 10.8759 19.3623 11.7569 20.2435C12.6379 21.1247 13.7714 21.7098 15 21.9175V26.955C12.4388 26.721 10.0406 25.597 8.22211 23.7783C6.40364 21.9596 5.27992 19.5612 5.04626 17ZM23.7675 23.7675C21.9562 25.5914 19.56 26.7187 17 26.9513V21.9175C18.1589 21.7246 19.2346 21.1926 20.0913 20.3888C20.9103 19.6257 21.4995 18.6488 21.7923 17.5684C22.0851 16.488 22.0699 15.3472 21.7483 14.275C21.4267 13.2028 20.8116 12.242 19.9725 11.5011C19.1334 10.7602 18.1038 10.2688 17 10.0825V5C22.69 5.51 27.0838 10.41 27 16.1563C26.9607 19.0187 25.8001 21.7516 23.7675 23.7675Z" fill="currentColor"/>
<path d="M65.1252 3.50624C64.9189 3.48778 64.711 3.51248 64.5147 3.57877C64.3184 3.64505 64.1381 3.75147 63.9852 3.89124C63.8323 4.03266 63.7103 4.20415 63.6269 4.39495C63.5434 4.58575 63.5003 4.79174 63.5002 4.99999V10.0837C63.4974 10.4367 63.6203 10.7792 63.8471 11.0497C64.0739 11.3203 64.3896 11.5012 64.7377 11.56C65.5747 11.699 66.3553 12.0719 66.9896 12.6355C67.6238 13.1991 68.0857 13.9305 68.3221 14.7454C68.5585 15.5603 68.5597 16.4254 68.3256 17.2409C68.0914 18.0564 67.6315 18.7891 66.9989 19.3545C66.3662 19.9199 65.5866 20.2949 64.75 20.4363C63.9134 20.5776 63.0539 20.4796 62.2706 20.1535C61.4873 19.8273 60.8122 19.2864 60.3231 18.5931C59.834 17.8998 59.5509 17.0823 59.5065 16.235C59.4477 15.0925 59.6902 14.135 60.2252 13.3862C60.4303 13.0992 60.5265 12.7485 60.4967 12.397C60.467 12.0455 60.3131 11.716 60.0627 11.4675L56.609 7.93874C56.4613 7.79081 56.2844 7.67538 56.0895 7.59984C55.8946 7.52431 55.6861 7.49033 55.4773 7.5001C55.2685 7.50987 55.064 7.56317 54.8771 7.65657C54.6901 7.74997 54.5247 7.88142 54.3915 8.04249C52.3877 10.4434 51.3609 13.5105 51.5152 16.6338C51.6694 19.7572 52.9934 22.7082 55.224 24.9C57.5569 27.2153 60.7134 28.5101 64.0002 28.5H64.179C67.4297 28.4447 70.5318 27.1286 72.8307 24.8296C75.1295 22.5305 76.4453 19.4282 76.5002 16.1775C76.5902 9.65124 71.5952 4.08499 65.1252 3.50624ZM55.1602 8.68249C55.2048 8.62811 55.2604 8.58376 55.3233 8.55231C55.3861 8.52086 55.455 8.50303 55.5252 8.49999H55.549C55.6136 8.49949 55.6778 8.51183 55.7376 8.53629C55.7975 8.56075 55.8519 8.59685 55.8977 8.64249L59.3515 12.17C59.4354 12.2514 59.4875 12.36 59.4985 12.4764C59.5095 12.5928 59.4787 12.7093 59.4115 12.805C58.8597 13.5988 58.547 14.534 58.5102 15.5H52.5102C52.6129 12.9965 53.5452 10.5982 55.1602 8.68249ZM52.5115 16.5H58.5227C58.6398 17.7805 59.2019 18.9795 60.1113 19.8886C61.0206 20.7977 62.2197 21.3594 63.5002 21.4762V27.4875C60.6262 27.3623 57.9035 26.1646 55.8693 24.1306C53.835 22.0965 52.6369 19.374 52.5115 16.5ZM72.1252 24.125C70.0977 26.1665 67.3748 27.3681 64.5002 27.49V21.4775C65.716 21.3713 66.8607 20.8592 67.7502 20.0237C68.5019 19.3234 69.0425 18.4265 69.3106 17.4347C69.5787 16.4429 69.5636 15.3958 69.267 14.4121C68.9705 13.4284 68.4044 12.5475 67.6328 11.8691C66.8612 11.1907 65.915 10.7419 64.9015 10.5737C64.7883 10.5509 64.6865 10.4897 64.6134 10.4004C64.5402 10.3111 64.5003 10.1992 64.5002 10.0837V4.99999C64.4995 4.92947 64.5138 4.8596 64.542 4.79497C64.5702 4.73034 64.6118 4.67241 64.664 4.62499C64.7142 4.57906 64.7736 4.5442 64.8382 4.52267C64.9028 4.50113 64.9712 4.49341 65.039 4.49999C70.9877 5.03249 75.5815 10.155 75.4977 16.1612C75.4603 19.1551 74.2493 22.0147 72.1252 24.125Z" fill="currentColor"/>
<path d="M113.151 3.25624C112.91 3.23528 112.666 3.26479 112.437 3.3429C112.207 3.42101 111.996 3.54602 111.817 3.70999C111.639 3.87396 111.496 4.07331 111.398 4.29539C111.301 4.51746 111.25 4.75741 111.25 4.99999V10.0837C111.247 10.4962 111.391 10.8962 111.656 11.2119C111.922 11.5277 112.291 11.7384 112.698 11.8062C113.488 11.9377 114.225 12.2899 114.824 12.8222C115.423 13.3545 115.859 14.0453 116.082 14.8148C116.306 15.5844 116.307 16.4013 116.086 17.1715C115.864 17.9416 115.43 18.6336 114.833 19.1675C114.235 19.7014 113.499 20.0556 112.709 20.1892C111.919 20.3228 111.107 20.2303 110.368 19.9224C109.628 19.6146 108.99 19.1038 108.528 18.4492C108.066 17.7945 107.799 17.0226 107.756 16.2225C107.701 15.1375 107.928 14.2325 108.429 13.5312C108.669 13.1966 108.781 12.7876 108.747 12.3774C108.713 11.9672 108.533 11.5827 108.241 11.2925L104.785 7.76249C104.613 7.59028 104.406 7.45602 104.179 7.3683C103.951 7.28059 103.708 7.24136 103.464 7.25312C103.221 7.26489 102.983 7.3274 102.765 7.43664C102.547 7.54588 102.354 7.69945 102.199 7.88749C100.155 10.3368 99.1082 13.4654 99.2655 16.6514C99.4227 19.8373 100.773 22.8476 103.048 25.0837C105.429 27.4427 108.648 28.7611 112 28.75H112.183C115.498 28.6931 118.662 27.3506 121.007 25.0057C123.351 22.6608 124.694 19.4968 124.75 16.1812C124.841 9.52499 119.75 3.84749 113.151 3.25624ZM103.351 8.84249C103.374 8.81512 103.402 8.79277 103.434 8.77685C103.466 8.76093 103.501 8.75179 103.536 8.74999H103.548C103.579 8.74921 103.611 8.75478 103.64 8.76638C103.67 8.77797 103.696 8.79536 103.719 8.81749L107.175 12.3475C107.215 12.3878 107.241 12.4406 107.247 12.4972C107.253 12.5538 107.24 12.6108 107.209 12.6587C106.673 13.4239 106.352 14.3187 106.279 15.25H100.779C100.93 12.8942 101.832 10.6488 103.351 8.84249ZM100.778 16.75H106.3C106.465 18.0051 107.04 19.1706 107.935 20.0658C108.83 20.9611 109.995 21.5359 111.25 21.7012V27.2225C108.532 27.0422 105.972 25.8809 104.046 23.9547C102.119 22.0284 100.958 19.4682 100.778 16.75ZM119.945 23.945C118.026 25.8774 115.468 27.0433 112.75 27.2237V21.7025C113.938 21.5486 115.048 21.0237 115.92 20.2025C116.705 19.4701 117.269 18.5327 117.548 17.4964C117.828 16.4601 117.811 15.3663 117.501 14.3387C117.192 13.3112 116.6 12.3909 115.794 11.682C114.988 10.9731 114 10.5039 112.941 10.3275C112.886 10.3158 112.836 10.2849 112.802 10.2404C112.767 10.1958 112.748 10.1404 112.75 10.0837V4.99999C112.75 4.96469 112.757 4.92972 112.771 4.89741C112.786 4.86509 112.806 4.83615 112.833 4.81249C112.857 4.78963 112.887 4.77224 112.919 4.76146C112.95 4.75069 112.984 4.74678 113.018 4.74999C118.836 5.27124 123.331 10.2825 123.249 16.1587C123.21 19.0867 122.024 21.8824 119.945 23.945Z" fill="currentColor"/>
<path d="M161.219 2.50999C160.873 2.47965 160.525 2.52148 160.197 2.63283C159.869 2.74418 159.567 2.9226 159.311 3.15677C159.056 3.39094 158.852 3.67573 158.712 3.99305C158.572 4.31037 158.5 4.65328 158.5 4.99999V10.0837C158.496 10.674 158.703 11.2464 159.083 11.6978C159.464 12.1492 159.993 12.4501 160.575 12.5462C161.466 12.6903 162.267 13.1731 162.811 13.8939C163.355 14.6148 163.599 15.5178 163.492 16.4143C163.386 17.3108 162.937 18.1315 162.239 18.7049C161.542 19.2783 160.65 19.56 159.75 19.4912C158.901 19.4236 158.105 19.0519 157.507 18.4443C156.91 17.8366 156.553 17.034 156.5 16.1837C156.454 15.2737 156.632 14.5275 157.034 13.9675C157.376 13.4884 157.538 12.9031 157.489 12.3161C157.44 11.7291 157.185 11.1785 156.767 10.7625L153.326 7.24249L153.315 7.23124C153.069 6.98555 152.775 6.79386 152.45 6.66839C152.126 6.54293 151.779 6.48645 151.432 6.50256C151.085 6.51868 150.745 6.60704 150.434 6.76199C150.123 6.91694 149.847 7.13508 149.625 7.40249C147.461 9.99601 146.352 13.3087 146.518 16.6825C146.684 20.0562 148.113 23.244 150.521 25.6125C153.041 28.1126 156.45 29.5107 160 29.5H160.194C163.704 29.4399 167.054 28.0183 169.537 25.5353C172.02 23.0523 173.441 19.7019 173.5 16.1912C173.596 9.14499 168.202 3.13499 161.219 2.50999ZM151.586 9.74999L154.36 12.5825C154.01 13.1751 153.764 13.8238 153.635 14.5H149.609C149.855 12.7747 150.535 11.1403 151.586 9.74999ZM149.607 17.5H153.674C153.952 18.6726 154.55 19.7448 155.403 20.5968C156.255 21.4489 157.327 22.0472 158.5 22.325V26.3937C156.256 26.0699 154.178 25.0286 152.575 23.4255C150.972 21.8225 149.931 19.7437 149.607 17.5ZM161.5 26.3887V22.3275C162.599 22.0678 163.61 21.5238 164.432 20.75C165.292 19.9478 165.918 18.9274 166.244 17.7976C166.569 16.6678 166.582 15.4708 166.281 14.3342C165.98 13.1975 165.377 12.1638 164.535 11.3431C163.693 10.5224 162.644 9.94547 161.5 9.67374V5.56249C166.661 6.30374 170.572 10.85 170.5 16.15C170.427 21.32 166.5 25.6562 161.5 26.3887Z" fill="currentColor"/>
<path d="M195.094 14.4425C195.389 11.9663 196.402 9.63051 198.008 7.7225C198.185 7.50827 198.406 7.33347 198.655 7.20929C198.904 7.08511 199.176 7.01429 199.454 7.00135C199.732 6.98841 200.01 7.03363 200.269 7.13413C200.529 7.23463 200.765 7.3882 200.961 7.585L204.42 11.1175C204.753 11.4498 204.957 11.8898 204.996 12.3587C205.035 12.8276 204.905 13.2951 204.631 13.6775C204.424 13.9721 204.267 14.2996 204.169 14.6463C204.138 14.7485 204.074 14.8381 203.988 14.9018C203.902 14.9654 203.798 14.9999 203.691 15H195.591C195.521 15.0001 195.451 14.9853 195.387 14.9565C195.322 14.9277 195.264 14.8856 195.217 14.8329C195.17 14.7802 195.135 14.7182 195.114 14.6509C195.093 14.5837 195.086 14.5126 195.094 14.4425ZM209.174 3.0075C208.898 2.98341 208.619 3.01703 208.357 3.10622C208.094 3.19541 207.853 3.33823 207.649 3.5256C207.444 3.71297 207.281 3.9408 207.169 4.19462C207.058 4.44844 207 4.72271 207 5V10.0838C206.997 10.5555 207.162 11.013 207.465 11.3741C207.769 11.7351 208.191 11.9761 208.656 12.0538C209.533 12.1983 210.336 12.6303 210.939 13.2817C211.543 13.933 211.912 14.7667 211.99 15.6514C212.067 16.536 211.848 17.4213 211.367 18.1676C210.886 18.914 210.17 19.4791 209.333 19.7738C209.235 19.8096 209.151 19.8744 209.091 19.9596C209.032 20.0448 209 20.1461 209 20.25V28.4037C209 28.4745 209.014 28.5446 209.043 28.6094C209.071 28.6741 209.114 28.732 209.166 28.7793C209.219 28.8266 209.281 28.8621 209.349 28.8836C209.416 28.905 209.487 28.9119 209.558 28.9037C212.677 28.5186 215.553 27.0196 217.656 24.6827C219.758 22.3457 220.946 19.328 221 16.185C221.094 9.39875 215.899 3.61 209.174 3.0075ZM206.656 19.77C206.097 19.5706 205.59 19.2493 205.17 18.8295C204.751 18.4096 204.43 17.9017 204.231 17.3425C204.197 17.2433 204.133 17.1572 204.048 17.0958C203.963 17.0345 203.861 17.001 203.756 17H195.59C195.519 16.9996 195.449 17.0141 195.385 17.0427C195.32 17.0712 195.262 17.1132 195.215 17.1657C195.168 17.2183 195.132 17.2803 195.111 17.3476C195.089 17.4149 195.082 17.486 195.09 17.5563C195.44 20.4455 196.749 23.134 198.807 25.192C200.865 27.25 203.553 28.5586 206.443 28.9088C206.513 28.9167 206.584 28.9097 206.651 28.8881C206.719 28.8666 206.781 28.831 206.833 28.7838C206.886 28.7365 206.928 28.6787 206.956 28.614C206.985 28.5494 206.999 28.4794 206.999 28.4088V20.25C206.999 20.1442 206.966 20.0411 206.905 19.955C206.843 19.8689 206.756 19.8042 206.656 19.77Z" fill="currentColor"/>
<path opacity="0.2" d="M268 16.1713C267.91 22.6338 262.635 27.9088 256.173 27.9988H256V21C257.256 21.0019 258.467 20.5308 259.392 19.6804C260.317 18.8301 260.887 17.6628 260.991 16.4107C261.094 15.1587 260.722 13.9137 259.949 12.9234C259.176 11.9331 258.058 11.2701 256.819 11.0663C256.588 11.0258 256.379 10.9048 256.229 10.725C256.08 10.5451 255.998 10.3179 256 10.0838V5C256 4.86133 256.028 4.72407 256.083 4.59694C256.139 4.46981 256.22 4.3556 256.322 4.26156C256.424 4.16751 256.544 4.0957 256.675 4.05067C256.806 4.00564 256.946 3.98839 257.084 4C263.259 4.5575 268.088 9.83125 268 16.1713Z" fill="currentColor"/>
<path d="M257.174 3.0075C256.898 2.98341 256.619 3.01703 256.357 3.10622C256.094 3.19541 255.853 3.33823 255.649 3.5256C255.444 3.71297 255.281 3.9408 255.169 4.19462C255.058 4.44844 255 4.72271 255 5V10.0838C254.997 10.5555 255.161 11.013 255.465 11.3741C255.769 11.7351 256.191 11.9761 256.656 12.0538C257.4 12.1785 258.093 12.5108 258.656 13.0123C259.218 13.5138 259.628 14.1642 259.837 14.8884C260.046 15.6126 260.047 16.3812 259.838 17.1056C259.63 17.83 259.22 18.4807 258.658 18.9827C258.096 19.4847 257.403 19.8176 256.66 19.9429C255.916 20.0683 255.153 19.981 254.457 19.6912C253.761 19.4014 253.161 18.9208 252.726 18.3049C252.292 17.689 252.04 16.9628 252 16.21C251.949 15.1825 252.159 14.335 252.625 13.6775C252.899 13.2953 253.028 12.828 252.99 12.3593C252.951 11.8906 252.747 11.4509 252.414 11.1188L248.961 7.585C248.764 7.3882 248.529 7.23463 248.269 7.13413C248.01 7.03363 247.732 6.98841 247.454 7.00135C247.176 7.01429 246.904 7.08511 246.655 7.20929C246.406 7.33347 246.185 7.50827 246.008 7.7225C243.924 10.22 242.856 13.4102 243.017 16.6588C243.178 19.9075 244.555 22.9767 246.875 25.2563C249.301 27.6631 252.583 29.0095 256 29H256.186C259.567 28.9425 262.793 27.5738 265.184 25.1828C267.574 22.7919 268.943 19.5657 269 16.185C269.094 9.3975 263.899 3.61 257.174 3.0075ZM247.54 8.9925L250.991 12.5163V12.5238C250.479 13.2589 250.157 14.1098 250.055 15H245.045C245.245 12.7901 246.116 10.6941 247.54 8.9925ZM245.046 17H250.084C250.291 18.2287 250.876 19.3623 251.757 20.2435C252.638 21.1247 253.771 21.7098 255 21.9175V26.955C252.439 26.721 250.041 25.597 248.222 23.7783C246.404 21.9596 245.28 19.5612 245.046 17ZM263.768 23.7675C261.956 25.5914 259.56 26.7187 257 26.9513V21.9175C258.159 21.7243 259.234 21.1924 260.091 20.3888C260.91 19.6257 261.499 18.6488 261.792 17.5684C262.085 16.488 262.07 15.3472 261.748 14.275C261.427 13.2028 260.812 12.242 259.972 11.5011C259.133 10.7602 258.104 10.2688 257 10.0825V5C262.69 5.51 267.084 10.41 267 16.1563C266.961 19.0187 265.8 21.7516 263.768 23.7675Z" fill="currentColor"/>
</g>
<defs>
<clipPath id="clip0_17_3714">
<rect width="272" height="32" rx="5" fill="white"/>
</clipPath>
</defs>
</svg>
