<svg width="272" height="32" viewBox="0 0 272 32" fill="none" xmlns="http://www.w3.org/2000/svg">
<g clip-path="url(#clip0_17_3560)">
<path d="M24.9999 19C24.116 18.9995 23.2571 19.2933 22.5586 19.835L19.6699 17.585C19.8879 17.085 20.0003 16.5454 19.9999 16C19.9999 15.9075 19.9999 15.815 19.9899 15.7237L21.6436 15.1725C22.1668 15.9794 22.9632 16.5708 23.8869 16.8384C24.8107 17.106 25.7999 17.0318 26.6734 16.6294C27.5468 16.2271 28.2461 15.5235 28.6431 14.6476C29.0401 13.7716 29.1082 12.782 28.835 11.8599C28.5618 10.9378 27.9655 10.1451 27.1554 9.62683C26.3453 9.10858 25.3756 8.89955 24.4239 9.03803C23.4722 9.1765 22.6023 9.65321 21.9734 10.3808C21.3446 11.1085 20.999 12.0383 20.9999 13C20.9999 13.0925 20.9999 13.185 21.0099 13.2762L19.3561 13.8275C18.9936 13.267 18.4966 12.8062 17.9103 12.487C17.3241 12.1678 16.6673 12.0004 15.9999 12C15.7791 12.0004 15.5588 12.0188 15.3411 12.055L14.4861 10.125C15.2244 9.5351 15.73 8.70288 15.9132 7.77584C16.0965 6.84879 15.9457 5.88679 15.4875 5.06034C15.0292 4.23388 14.2932 3.59636 13.4098 3.26075C12.5264 2.92514 11.5527 2.91313 10.6613 3.22685C9.76991 3.54056 9.01836 4.15974 8.53987 4.97464C8.06139 5.78954 7.88686 6.74753 8.04723 7.67882C8.2076 8.6101 8.69251 9.45453 9.416 10.0624C10.1395 10.6704 11.0549 11.0025 11.9999 11C12.2206 10.9995 12.4409 10.9811 12.6586 10.945L13.5136 12.87C12.7886 13.4438 12.2853 14.2517 12.0899 15.1555C11.8945 16.0593 12.0191 17.0029 12.4424 17.825L9.2286 20.68C8.41983 20.1348 7.43997 19.9032 6.47269 20.0287C5.50541 20.1543 4.61712 20.6283 3.97431 21.3619C3.33151 22.0955 2.97833 23.0384 2.98097 24.0138C2.98361 24.9892 3.3419 25.9301 3.98867 26.6602C4.63544 27.3903 5.52628 27.8595 6.49423 27.9798C7.46218 28.1001 8.44077 27.8633 9.24657 27.3136C10.0524 26.764 10.6301 25.9394 10.8714 24.9943C11.1127 24.0493 11.001 23.0486 10.5574 22.18L13.7711 19.325C14.4669 19.7935 15.2928 20.0307 16.1312 20.0029C16.9696 19.9751 17.7779 19.6836 18.4411 19.17L21.3299 21.42C21.1124 21.9184 21.0001 22.4562 20.9999 23C20.9999 23.7911 21.2344 24.5645 21.674 25.2223C22.1135 25.8801 22.7382 26.3928 23.4691 26.6955C24.2 26.9983 25.0043 27.0775 25.7802 26.9231C26.5561 26.7688 27.2689 26.3878 27.8283 25.8284C28.3877 25.269 28.7687 24.5563 28.923 23.7803C29.0773 23.0044 28.9981 22.2002 28.6954 21.4693C28.3926 20.7383 27.8799 20.1136 27.2221 19.6741C26.5643 19.2346 25.791 19 24.9999 19ZM24.9999 11C25.3954 11 25.7821 11.1173 26.111 11.337C26.4399 11.5568 26.6962 11.8692 26.8476 12.2346C26.999 12.6001 27.0386 13.0022 26.9614 13.3902C26.8843 13.7781 26.6938 14.1345 26.4141 14.4142C26.1344 14.6939 25.778 14.8844 25.39 14.9616C25.0021 15.0387 24.5999 14.9991 24.2345 14.8477C23.869 14.6964 23.5567 14.44 23.3369 14.1111C23.1172 13.7822 22.9999 13.3955 22.9999 13C22.9999 12.4696 23.2106 11.9608 23.5856 11.5858C23.9607 11.2107 24.4694 11 24.9999 11ZM9.99985 6.99999C9.99985 6.60442 10.1172 6.21774 10.3369 5.88885C10.5567 5.55995 10.869 5.3036 11.2345 5.15223C11.5999 5.00085 12.0021 4.96124 12.39 5.03842C12.778 5.11559 13.1344 5.30607 13.4141 5.58577C13.6938 5.86548 13.8843 6.22184 13.9614 6.60981C14.0386 6.99777 13.999 7.3999 13.8476 7.76535C13.6962 8.13081 13.4399 8.44316 13.111 8.66293C12.7821 8.88269 12.3954 8.99999 11.9999 8.99999C11.4694 8.99999 10.9607 8.78927 10.5856 8.4142C10.2106 8.03913 9.99985 7.53042 9.99985 6.99999ZM6.99985 26C6.60429 26 6.21761 25.8827 5.88871 25.6629C5.55981 25.4432 5.30347 25.1308 5.15209 24.7654C5.00072 24.3999 4.96111 23.9978 5.03828 23.6098C5.11545 23.2218 5.30593 22.8655 5.58564 22.5858C5.86534 22.3061 6.22171 22.1156 6.60967 22.0384C6.99763 21.9612 7.39977 22.0009 7.76522 22.1522C8.13067 22.3036 8.44303 22.5599 8.66279 22.8888C8.88255 23.2177 8.99985 23.6044 8.99985 24C8.99985 24.5304 8.78914 25.0391 8.41407 25.4142C8.03899 25.7893 7.53029 26 6.99985 26ZM13.9999 16C13.9999 15.6044 14.1172 15.2177 14.3369 14.8888C14.5567 14.5599 14.869 14.3036 15.2345 14.1522C15.5999 14.0009 16.0021 13.9612 16.39 14.0384C16.778 14.1156 17.1344 14.3061 17.4141 14.5858C17.6938 14.8655 17.8843 15.2218 17.9614 15.6098C18.0386 15.9978 17.999 16.3999 17.8476 16.7654C17.6962 17.1308 17.4399 17.4432 17.111 17.6629C16.7821 17.8827 16.3954 18 15.9999 18C15.4694 18 14.9607 17.7893 14.5856 17.4142C14.2106 17.0391 13.9999 16.5304 13.9999 16ZM24.9999 25C24.6043 25 24.2176 24.8827 23.8887 24.6629C23.5598 24.4432 23.3035 24.1308 23.1521 23.7654C23.0007 23.3999 22.9611 22.9978 23.0383 22.6098C23.1155 22.2218 23.3059 21.8655 23.5856 21.5858C23.8653 21.3061 24.2217 21.1156 24.6097 21.0384C24.9976 20.9612 25.3998 21.0009 25.7652 21.1522C26.1307 21.3036 26.443 21.5599 26.6628 21.8888C26.8826 22.2177 26.9999 22.6044 26.9999 23C26.9999 23.5304 26.7891 24.0391 26.4141 24.4142C26.039 24.7893 25.5303 25 24.9999 25Z" fill="currentColor"/>
<path d="M73.0001 19.5C72.0951 19.4993 71.2254 19.8508 70.5751 20.48L67.0401 17.73C67.3419 17.2034 67.5006 16.607 67.5001 16C67.5 15.7904 67.4812 15.5812 67.4438 15.375L69.8751 14.5688C70.2729 15.3618 70.9564 15.9747 71.788 16.284C72.6195 16.5934 73.5374 16.5762 74.3568 16.2359C75.1762 15.8957 75.8363 15.2577 76.2042 14.4503C76.5721 13.6429 76.6204 12.7261 76.3395 11.8846C76.0586 11.043 75.4693 10.339 74.6903 9.91446C73.9112 9.48991 73.0002 9.37626 72.1407 9.5964C71.2812 9.81653 70.537 10.3541 70.058 11.1009C69.5789 11.8477 69.4006 12.7482 69.5588 13.6213L67.1251 14.4313C66.8343 13.8514 66.3881 13.3637 65.8363 13.0227C65.2845 12.6817 64.6487 12.5007 64.0001 12.5C63.6788 12.4998 63.359 12.5444 63.0501 12.6325L61.8626 9.96125C62.5762 9.51163 63.1034 8.81944 63.3473 8.01202C63.5912 7.20459 63.5353 6.33626 63.1899 5.56677C62.8445 4.79728 62.2329 4.1784 61.4675 3.82398C60.7021 3.46957 59.8345 3.40347 59.0243 3.63784C58.214 3.87221 57.5157 4.39128 57.0577 5.09957C56.5997 5.80785 56.4129 6.65769 56.5317 7.49274C56.6504 8.32779 57.0667 9.09187 57.704 9.64441C58.3412 10.197 59.1566 10.5008 60.0001 10.5C60.3213 10.5002 60.6411 10.4556 60.9501 10.3675L62.1376 13.0388C61.7428 13.2863 61.4016 13.6104 61.1339 13.9918C60.8663 14.3732 60.6777 14.8043 60.5791 15.2597C60.4806 15.7151 60.4741 16.1857 60.5602 16.6436C60.6462 17.1015 60.823 17.5376 61.0801 17.9263L57.2501 21.3263C56.5743 20.7551 55.7074 20.4611 54.8236 20.5033C53.9398 20.5456 53.1049 20.921 52.4867 21.554C51.8685 22.1869 51.513 23.0306 51.4917 23.9151C51.4704 24.7996 51.7849 25.6593 52.3719 26.3214C52.9589 26.9834 53.7748 27.3985 54.6555 27.4833C55.5362 27.568 56.4163 27.316 57.1188 26.7781C57.8212 26.2401 58.2938 25.4561 58.4416 24.5838C58.5893 23.7114 58.4012 22.8155 57.9151 22.0763L61.7401 18.6763C62.4004 19.2353 63.2449 19.5291 64.1097 19.5007C64.9744 19.4723 65.7978 19.1237 66.4201 18.5225L69.9551 21.2725C69.5753 21.9416 69.4267 22.7171 69.532 23.4792C69.6373 24.2413 69.9908 24.9474 70.5378 25.4884C71.0847 26.0294 71.7947 26.3751 72.5579 26.4721C73.321 26.5691 74.0949 26.4119 74.7598 26.0248C75.4247 25.6378 75.9435 25.0425 76.2361 24.331C76.5286 23.6195 76.5786 22.8314 76.3783 22.0886C76.178 21.3458 75.7385 20.6898 75.1278 20.2218C74.5172 19.7539 73.7694 19.5002 73.0001 19.5ZM73.0001 10.5C73.4945 10.5 73.9779 10.6466 74.389 10.9213C74.8001 11.196 75.1205 11.5865 75.3098 12.0433C75.499 12.5001 75.5485 13.0028 75.452 13.4877C75.3556 13.9727 75.1175 14.4181 74.7678 14.7678C74.4182 15.1174 73.9727 15.3555 73.4878 15.452C73.0028 15.5484 72.5002 15.4989 72.0433 15.3097C71.5865 15.1205 71.1961 14.8 70.9214 14.3889C70.6467 13.9778 70.5001 13.4945 70.5001 13C70.5001 12.337 70.7634 11.7011 71.2323 11.2322C71.7011 10.7634 72.337 10.5 73.0001 10.5ZM57.5001 7C57.5001 6.50555 57.6467 6.0222 57.9214 5.61108C58.1961 5.19995 58.5865 4.87952 59.0433 4.6903C59.5002 4.50108 60.0028 4.45157 60.4878 4.54804C60.9727 4.6445 61.4182 4.8826 61.7678 5.23223C62.1175 5.58187 62.3556 6.02732 62.452 6.51228C62.5485 6.99723 62.499 7.49989 62.3098 7.95671C62.1205 8.41352 61.8001 8.80397 61.389 9.07868C60.9779 9.35338 60.4945 9.5 60.0001 9.5C59.337 9.5 58.7011 9.23661 58.2323 8.76777C57.7634 8.29893 57.5001 7.66304 57.5001 7ZM55.0001 26.5C54.5056 26.5 54.0223 26.3534 53.6111 26.0787C53.2 25.804 52.8796 25.4135 52.6904 24.9567C52.5011 24.4999 52.4516 23.9972 52.5481 23.5123C52.6446 23.0273 52.8827 22.5819 53.2323 22.2322C53.5819 21.8826 54.0274 21.6445 54.5123 21.548C54.9973 21.4516 55.4999 21.5011 55.9568 21.6903C56.4136 21.8795 56.804 22.2 57.0787 22.6111C57.3534 23.0222 57.5001 23.5055 57.5001 24C57.5001 24.663 57.2367 25.2989 56.7678 25.7678C56.299 26.2366 55.6631 26.5 55.0001 26.5ZM64.0001 18.5C63.5056 18.5 63.0223 18.3534 62.6111 18.0787C62.2 17.804 61.8796 17.4135 61.6904 16.9567C61.5011 16.4999 61.4516 15.9972 61.5481 15.5123C61.6446 15.0273 61.8827 14.5819 62.2323 14.2322C62.5819 13.8826 63.0274 13.6445 63.5123 13.548C63.9973 13.4516 64.4999 13.5011 64.9568 13.6903C65.4136 13.8795 65.804 14.2 66.0787 14.6111C66.3534 15.0222 66.5001 15.5055 66.5001 16C66.5001 16.663 66.2367 17.2989 65.7678 17.7678C65.299 18.2366 64.6631 18.5 64.0001 18.5ZM73.0001 25.5C72.5056 25.5 72.0223 25.3534 71.6111 25.0787C71.2 24.804 70.8796 24.4135 70.6904 23.9567C70.5011 23.4999 70.4516 22.9972 70.5481 22.5123C70.6446 22.0273 70.8827 21.5819 71.2323 21.2322C71.5819 20.8826 72.0274 20.6445 72.5123 20.548C72.9973 20.4516 73.4999 20.5011 73.9568 20.6903C74.4136 20.8795 74.804 21.2 75.0787 21.6111C75.3534 22.0222 75.5001 22.5055 75.5001 23C75.5001 23.663 75.2367 24.2989 74.7678 24.7678C74.299 25.2366 73.6631 25.5 73.0001 25.5Z" fill="currentColor"/>
<path d="M121 19.25C120.106 19.2496 119.241 19.5703 118.563 20.1538L115.36 17.6625C115.617 17.146 115.751 16.5769 115.75 16C115.75 15.8496 115.741 15.6994 115.723 15.55L117.75 14.875C118.204 15.6635 118.929 16.2601 119.79 16.5537C120.651 16.8472 121.59 16.8176 122.431 16.4705C123.272 16.1234 123.958 15.4824 124.361 14.6669C124.765 13.8514 124.858 12.917 124.624 12.038C124.389 11.1589 123.843 10.395 123.087 9.88863C122.331 9.38228 121.417 9.168 120.515 9.28571C119.613 9.40342 118.784 9.8451 118.184 10.5285C117.583 11.2118 117.251 12.0902 117.25 13C117.25 13.1504 117.26 13.3007 117.278 13.45L115.25 14.125C114.854 13.4339 114.246 12.8876 113.517 12.5659C112.788 12.2441 111.976 12.1636 111.198 12.3363L110.18 10.0488C110.937 9.50931 111.466 8.70823 111.665 7.80078C111.865 6.89333 111.72 5.94413 111.26 5.13714C110.8 4.33014 110.056 3.72282 109.173 3.43288C108.29 3.14293 107.331 3.19101 106.482 3.56779C105.633 3.94456 104.954 4.62322 104.576 5.47222C104.199 6.32122 104.15 7.28011 104.439 8.16306C104.729 9.04601 105.335 9.79014 106.142 10.2512C106.949 10.7123 107.898 10.8576 108.805 10.6588L109.823 12.9463C109.062 13.487 108.532 14.2923 108.335 15.2042C108.138 16.1161 108.289 17.0687 108.758 17.875L105.25 21C104.504 20.4416 103.578 20.1801 102.65 20.266C101.722 20.352 100.859 20.7793 100.229 21.4653C99.5982 22.1512 99.2448 23.0468 99.2369 23.9785C99.2291 24.9102 99.5675 25.8116 100.187 26.508C100.806 27.2044 101.661 27.6461 102.587 27.7476C103.513 27.8491 104.444 27.6031 105.199 27.0573C105.955 26.5114 106.48 25.7047 106.674 24.7934C106.868 23.8821 106.717 22.9312 106.25 22.125L109.75 19C110.432 19.5121 111.267 19.776 112.119 19.748C112.971 19.7201 113.788 19.4019 114.434 18.8463L117.636 21.3375C117.275 22.0681 117.162 22.8966 117.313 23.6974C117.465 24.4983 117.873 25.228 118.477 25.776C119.08 26.324 119.845 26.6605 120.657 26.7345C121.469 26.8086 122.283 26.6161 122.975 26.1863C123.668 25.7565 124.201 25.1128 124.495 24.3526C124.789 23.5923 124.828 22.757 124.604 21.9731C124.381 21.1892 123.909 20.4993 123.258 20.008C122.608 19.5166 121.815 19.2505 121 19.25ZM121 10.75C121.445 10.75 121.88 10.882 122.25 11.1292C122.62 11.3765 122.909 11.7279 123.079 12.139C123.249 12.5501 123.294 13.0025 123.207 13.439C123.12 13.8754 122.906 14.2763 122.591 14.591C122.277 14.9057 121.876 15.12 121.439 15.2068C121.003 15.2936 120.55 15.2491 120.139 15.0788C119.728 14.9085 119.377 14.6201 119.129 14.2501C118.882 13.88 118.75 13.445 118.75 13C118.75 12.4033 118.987 11.831 119.409 11.409C119.831 10.9871 120.403 10.75 121 10.75ZM105.75 7.00003C105.75 6.55502 105.882 6.12 106.129 5.74999C106.377 5.37998 106.728 5.09159 107.139 4.9213C107.55 4.751 108.003 4.70644 108.439 4.79326C108.876 4.88008 109.277 5.09437 109.591 5.40904C109.906 5.7237 110.12 6.12461 110.207 6.56107C110.294 6.99753 110.249 7.44993 110.079 7.86106C109.909 8.2722 109.62 8.6236 109.25 8.87083C108.88 9.11807 108.445 9.25003 108 9.25003C107.403 9.25003 106.831 9.01297 106.409 8.59102C105.987 8.16906 105.75 7.59676 105.75 7.00003ZM103 26.25C102.555 26.25 102.12 26.1181 101.75 25.8708C101.38 25.6236 101.092 25.2722 100.921 24.8611C100.751 24.4499 100.707 23.9975 100.793 23.5611C100.88 23.1246 101.095 22.7237 101.409 22.409C101.724 22.0944 102.125 21.8801 102.561 21.7933C102.998 21.7064 103.45 21.751 103.861 21.9213C104.272 22.0916 104.624 22.38 104.871 22.75C105.118 23.12 105.25 23.555 105.25 24C105.25 24.5968 105.013 25.1691 104.591 25.591C104.169 26.013 103.597 26.25 103 26.25ZM112 18.25C111.555 18.25 111.12 18.1181 110.75 17.8708C110.38 17.6236 110.092 17.2722 109.921 16.8611C109.751 16.4499 109.707 15.9975 109.793 15.5611C109.88 15.1246 110.095 14.7237 110.409 14.409C110.724 14.0944 111.125 13.8801 111.561 13.7933C111.998 13.7064 112.45 13.751 112.861 13.9213C113.272 14.0916 113.624 14.38 113.871 14.75C114.118 15.12 114.25 15.555 114.25 16C114.25 16.5968 114.013 17.1691 113.591 17.591C113.169 18.013 112.597 18.25 112 18.25ZM121 25.25C120.555 25.25 120.12 25.1181 119.75 24.8708C119.38 24.6236 119.092 24.2722 118.921 23.8611C118.751 23.4499 118.707 22.9975 118.793 22.5611C118.88 22.1246 119.095 21.7237 119.409 21.409C119.724 21.0944 120.125 20.8801 120.561 20.7933C120.998 20.7064 121.45 20.751 121.861 20.9213C122.272 21.0916 122.624 21.38 122.871 21.75C123.118 22.12 123.25 22.555 123.25 23C123.25 23.5968 123.013 24.1691 122.591 24.591C122.169 25.013 121.597 25.25 121 25.25Z" fill="currentColor"/>
<path d="M169 19C168.284 18.9995 167.578 19.171 166.942 19.5L164.269 17.42C164.414 16.9883 164.492 16.5367 164.5 16.0812L165.794 15.6512C166.525 16.3943 167.493 16.8601 168.53 16.9691C169.567 17.0781 170.61 16.8235 171.48 16.2488C172.35 15.6741 172.994 14.815 173.301 13.8183C173.608 12.8217 173.559 11.7494 173.163 10.7847C172.767 9.81996 172.048 9.02275 171.129 8.52932C170.21 8.03589 169.149 7.87686 168.126 8.07943C167.103 8.28199 166.182 8.83356 165.521 9.63987C164.859 10.4462 164.499 11.4572 164.5 12.5C164.5 12.6387 164.507 12.7762 164.52 12.9125L163.547 13.2362C163.127 12.6961 162.589 12.259 161.974 11.9581C161.36 11.6573 160.684 11.5006 160 11.5C159.875 11.5 159.765 11.5 159.649 11.515L159.092 10.265C159.852 9.54491 160.336 8.58275 160.463 7.54404C160.589 6.50533 160.35 5.455 159.786 4.57373C159.221 3.69247 158.368 3.03536 157.371 2.71546C156.375 2.39555 155.299 2.43285 154.327 2.82092C153.355 3.209 152.549 3.9236 152.047 4.84179C151.545 5.75998 151.379 6.82436 151.577 7.85183C151.775 8.8793 152.325 9.80563 153.132 10.4715C153.94 11.1373 154.954 11.501 156 11.5C156.125 11.5 156.235 11.5 156.351 11.485L156.907 12.735C156.248 13.3571 155.793 14.1641 155.602 15.0498C155.41 15.9356 155.491 16.8586 155.834 17.6975L153.174 20.0612C152.244 19.5482 151.163 19.3803 150.122 19.5871C149.081 19.794 148.146 20.3622 147.484 21.1915C146.821 22.0208 146.473 23.0577 146.501 24.1189C146.528 25.1802 146.931 26.1974 147.636 26.9908C148.341 27.7841 149.304 28.3026 150.355 28.4546C151.406 28.6065 152.476 28.3821 153.377 27.821C154.279 27.2599 154.952 26.3983 155.28 25.3885C155.607 24.3786 155.567 23.2856 155.166 22.3025L157.826 19.9387C158.535 20.3311 159.337 20.5242 160.147 20.4976C160.957 20.4709 161.745 20.2256 162.426 19.7875L164.875 21.695C164.486 22.5828 164.394 23.5723 164.613 24.5164C164.832 25.4605 165.35 26.3087 166.09 26.9348C166.83 27.5609 167.752 27.9315 168.719 27.9914C169.686 28.0513 170.647 27.7973 171.458 27.2672C172.27 26.7372 172.888 25.9593 173.222 25.0495C173.556 24.1396 173.587 23.1463 173.31 22.2174C173.034 21.2884 172.465 20.4735 171.689 19.8938C170.912 19.3141 169.969 19.0006 169 19ZM169 11C169.297 11 169.587 11.088 169.833 11.2528C170.08 11.4176 170.272 11.6519 170.386 11.926C170.499 12.2001 170.529 12.5017 170.471 12.7926C170.413 13.0836 170.27 13.3509 170.061 13.5607C169.851 13.7704 169.584 13.9133 169.293 13.9712C169.002 14.0291 168.7 13.9993 168.426 13.8858C168.152 13.7723 167.918 13.58 167.753 13.3334C167.588 13.0867 167.5 12.7967 167.5 12.5C167.5 12.1022 167.658 11.7206 167.939 11.4393C168.221 11.158 168.602 11 169 11ZM154.5 7C154.5 6.70333 154.588 6.41332 154.753 6.16664C154.918 5.91997 155.152 5.72771 155.426 5.61418C155.7 5.50065 156.002 5.47094 156.293 5.52882C156.584 5.5867 156.851 5.72956 157.061 5.93934C157.27 6.14912 157.413 6.41639 157.471 6.70736C157.529 6.99833 157.499 7.29993 157.386 7.57402C157.272 7.84811 157.08 8.08238 156.833 8.2472C156.587 8.41203 156.297 8.5 156 8.5C155.602 8.5 155.221 8.34196 154.939 8.06066C154.658 7.77935 154.5 7.39782 154.5 7ZM151 25.5C150.703 25.5 150.413 25.412 150.167 25.2472C149.92 25.0824 149.728 24.8481 149.614 24.574C149.501 24.2999 149.471 23.9983 149.529 23.7074C149.587 23.4164 149.73 23.1491 149.939 22.9393C150.149 22.7296 150.416 22.5867 150.707 22.5288C150.998 22.4709 151.3 22.5006 151.574 22.6142C151.848 22.7277 152.082 22.92 152.247 23.1666C152.412 23.4133 152.5 23.7033 152.5 24C152.5 24.3978 152.342 24.7794 152.061 25.0607C151.779 25.342 151.398 25.5 151 25.5ZM158.5 16C158.5 15.7033 158.588 15.4133 158.753 15.1666C158.918 14.92 159.152 14.7277 159.426 14.6142C159.7 14.5006 160.002 14.4709 160.293 14.5288C160.584 14.5867 160.851 14.7296 161.061 14.9393C161.27 15.1491 161.413 15.4164 161.471 15.7074C161.529 15.9983 161.499 16.2999 161.386 16.574C161.272 16.8481 161.08 17.0824 160.833 17.2472C160.587 17.412 160.297 17.5 160 17.5C159.602 17.5 159.221 17.342 158.939 17.0607C158.658 16.7794 158.5 16.3978 158.5 16ZM169 25C168.703 25 168.413 24.912 168.167 24.7472C167.92 24.5824 167.728 24.3481 167.614 24.074C167.501 23.7999 167.471 23.4983 167.529 23.2074C167.587 22.9164 167.73 22.6491 167.939 22.4393C168.149 22.2296 168.416 22.0867 168.707 22.0288C168.998 21.9709 169.3 22.0006 169.574 22.1142C169.848 22.2277 170.082 22.42 170.247 22.6666C170.412 22.9133 170.5 23.2033 170.5 23.5C170.5 23.8978 170.342 24.2794 170.061 24.5607C169.779 24.842 169.398 25 169 25Z" fill="currentColor"/>
<path d="M217 19C216.116 18.9995 215.257 19.2933 214.559 19.835L211.67 17.585C211.888 17.085 212 16.5454 212 16C212 15.9075 212 15.815 211.99 15.7237L213.644 15.1725C214.167 15.9794 214.963 16.5708 215.887 16.8384C216.811 17.106 217.8 17.0318 218.673 16.6294C219.547 16.2271 220.246 15.5235 220.643 14.6476C221.04 13.7716 221.108 12.782 220.835 11.8599C220.562 10.9378 219.966 10.1451 219.155 9.62683C218.345 9.10858 217.376 8.89955 216.424 9.03803C215.472 9.1765 214.602 9.65321 213.973 10.3808C213.345 11.1085 212.999 12.0383 213 13C213 13.0925 213 13.185 213.01 13.2762L211.356 13.8275C210.994 13.267 210.497 12.8062 209.91 12.487C209.324 12.1678 208.667 12.0004 208 12C207.779 12.0004 207.559 12.0188 207.341 12.055L206.486 10.125C207.224 9.5351 207.73 8.70288 207.913 7.77584C208.097 6.84879 207.946 5.88679 207.487 5.06034C207.029 4.23388 206.293 3.59636 205.41 3.26075C204.526 2.92514 203.553 2.91313 202.661 3.22685C201.77 3.54056 201.018 4.15974 200.54 4.97464C200.061 5.78954 199.887 6.74753 200.047 7.67882C200.208 8.6101 200.693 9.45453 201.416 10.0624C202.14 10.6704 203.055 11.0025 204 11C204.221 10.9995 204.441 10.9811 204.659 10.945L205.514 12.87C204.789 13.4438 204.285 14.2517 204.09 15.1555C203.895 16.0593 204.019 17.0029 204.442 17.825L201.229 20.68C200.42 20.1348 199.44 19.9032 198.473 20.0287C197.505 20.1543 196.617 20.6283 195.974 21.3619C195.332 22.0955 194.978 23.0384 194.981 24.0138C194.984 24.9892 195.342 25.9301 195.989 26.6602C196.635 27.3903 197.526 27.8595 198.494 27.9798C199.462 28.1001 200.441 27.8633 201.247 27.3136C202.052 26.764 202.63 25.9394 202.871 24.9943C203.113 24.0493 203.001 23.0486 202.557 22.18L205.771 19.325C206.467 19.7935 207.293 20.0307 208.131 20.0029C208.97 19.9751 209.778 19.6836 210.441 19.17L213.33 21.42C213.112 21.9184 213 22.4562 213 23C213 23.7911 213.234 24.5645 213.674 25.2223C214.114 25.8801 214.738 26.3928 215.469 26.6955C216.2 26.9983 217.004 27.0775 217.78 26.9231C218.556 26.7688 219.269 26.3878 219.828 25.8284C220.388 25.269 220.769 24.5563 220.923 23.7803C221.077 23.0044 220.998 22.2002 220.695 21.4693C220.393 20.7383 219.88 20.1136 219.222 19.6741C218.564 19.2346 217.791 19 217 19ZM217 11C217.395 11 217.782 11.1173 218.111 11.337C218.44 11.5568 218.696 11.8692 218.848 12.2346C218.999 12.6001 219.039 13.0022 218.961 13.3902C218.884 13.7781 218.694 14.1345 218.414 14.4142C218.134 14.6939 217.778 14.8844 217.39 14.9616C217.002 15.0387 216.6 14.9991 216.234 14.8477C215.869 14.6964 215.557 14.44 215.337 14.1111C215.117 13.7822 215 13.3955 215 13C215 12.4696 215.211 11.9608 215.586 11.5858C215.961 11.2107 216.469 11 217 11ZM202 6.99999C202 6.60442 202.117 6.21774 202.337 5.88885C202.557 5.55995 202.869 5.3036 203.234 5.15223C203.6 5.00085 204.002 4.96124 204.39 5.03842C204.778 5.11559 205.134 5.30607 205.414 5.58577C205.694 5.86548 205.884 6.22184 205.961 6.60981C206.039 6.99777 205.999 7.3999 205.848 7.76535C205.696 8.13081 205.44 8.44316 205.111 8.66293C204.782 8.88269 204.395 8.99999 204 8.99999C203.469 8.99999 202.961 8.78927 202.586 8.4142C202.211 8.03913 202 7.53042 202 6.99999ZM199 26C198.604 26 198.218 25.8827 197.889 25.6629C197.56 25.4432 197.303 25.1308 197.152 24.7654C197.001 24.3999 196.961 23.9978 197.038 23.6098C197.115 23.2218 197.306 22.8655 197.586 22.5858C197.865 22.3061 198.222 22.1156 198.61 22.0384C198.998 21.9612 199.4 22.0009 199.765 22.1522C200.131 22.3036 200.443 22.5599 200.663 22.8888C200.883 23.2177 201 23.6044 201 24C201 24.5304 200.789 25.0391 200.414 25.4142C200.039 25.7893 199.53 26 199 26ZM217 25C216.604 25 216.218 24.8827 215.889 24.6629C215.56 24.4432 215.303 24.1308 215.152 23.7654C215.001 23.3999 214.961 22.9978 215.038 22.6098C215.115 22.2218 215.306 21.8655 215.586 21.5858C215.865 21.3061 216.222 21.1156 216.61 21.0384C216.998 20.9612 217.4 21.0009 217.765 21.1522C218.131 21.3036 218.443 21.5599 218.663 21.8888C218.883 22.2177 219 22.6044 219 23C219 23.5304 218.789 24.0391 218.414 24.4142C218.039 24.7893 217.53 25 217 25Z" fill="currentColor"/>
<path opacity="0.2" d="M259 16C259 16.5933 258.824 17.1734 258.494 17.6667C258.165 18.1601 257.696 18.5446 257.148 18.7716C256.6 18.9987 255.997 19.0581 255.415 18.9424C254.833 18.8266 254.298 18.5409 253.879 18.1213C253.459 17.7018 253.173 17.1672 253.058 16.5853C252.942 16.0033 253.001 15.4001 253.228 14.8519C253.455 14.3038 253.84 13.8352 254.333 13.5056C254.827 13.1759 255.407 13 256 13C256.796 13 257.559 13.3161 258.121 13.8787C258.684 14.4413 259 15.2044 259 16Z" fill="currentColor"/>
<path d="M265 19C264.116 18.9995 263.257 19.2933 262.559 19.835L259.67 17.585C259.888 17.085 260 16.5454 260 16C260 15.9075 260 15.815 259.99 15.7237L261.644 15.1725C262.167 15.9794 262.963 16.5708 263.887 16.8384C264.811 17.106 265.8 17.0318 266.673 16.6294C267.547 16.2271 268.246 15.5235 268.643 14.6476C269.04 13.7716 269.108 12.782 268.835 11.8599C268.562 10.9378 267.966 10.1451 267.155 9.62683C266.345 9.10858 265.376 8.89955 264.424 9.03803C263.472 9.1765 262.602 9.65321 261.973 10.3808C261.345 11.1085 260.999 12.0383 261 13C261 13.0925 261 13.185 261.01 13.2762L259.356 13.8275C258.994 13.267 258.497 12.8062 257.91 12.487C257.324 12.1678 256.667 12.0004 256 12C255.779 12.0004 255.559 12.0188 255.341 12.055L254.486 10.125C255.224 9.5351 255.73 8.70288 255.913 7.77584C256.097 6.84879 255.946 5.88679 255.487 5.06034C255.029 4.23388 254.293 3.59636 253.41 3.26075C252.526 2.92514 251.553 2.91313 250.661 3.22685C249.77 3.54056 249.018 4.15974 248.54 4.97464C248.061 5.78954 247.887 6.74753 248.047 7.67882C248.208 8.6101 248.693 9.45453 249.416 10.0624C250.14 10.6704 251.055 11.0025 252 11C252.221 10.9995 252.441 10.9811 252.659 10.945L253.514 12.87C252.789 13.4438 252.285 14.2517 252.09 15.1555C251.895 16.0593 252.019 17.0029 252.442 17.825L249.229 20.68C248.42 20.1348 247.44 19.9032 246.473 20.0287C245.505 20.1543 244.617 20.6283 243.974 21.3619C243.332 22.0955 242.978 23.0384 242.981 24.0138C242.984 24.9892 243.342 25.9301 243.989 26.6602C244.635 27.3903 245.526 27.8595 246.494 27.9798C247.462 28.1001 248.441 27.8633 249.247 27.3136C250.052 26.764 250.63 25.9394 250.871 24.9943C251.113 24.0493 251.001 23.0486 250.557 22.18L253.771 19.325C254.467 19.7935 255.293 20.0307 256.131 20.0029C256.97 19.9751 257.778 19.6836 258.441 19.17L261.33 21.42C261.112 21.9184 261 22.4562 261 23C261 23.7911 261.234 24.5645 261.674 25.2223C262.114 25.8801 262.738 26.3928 263.469 26.6955C264.2 26.9983 265.004 27.0775 265.78 26.9231C266.556 26.7688 267.269 26.3878 267.828 25.8284C268.388 25.269 268.769 24.5563 268.923 23.7803C269.077 23.0044 268.998 22.2002 268.695 21.4693C268.393 20.7383 267.88 20.1136 267.222 19.6741C266.564 19.2346 265.791 19 265 19ZM265 11C265.395 11 265.782 11.1173 266.111 11.337C266.44 11.5568 266.696 11.8692 266.848 12.2346C266.999 12.6001 267.039 13.0022 266.961 13.3902C266.884 13.7781 266.694 14.1345 266.414 14.4142C266.134 14.6939 265.778 14.8844 265.39 14.9616C265.002 15.0387 264.6 14.9991 264.234 14.8477C263.869 14.6964 263.557 14.44 263.337 14.1111C263.117 13.7822 263 13.3955 263 13C263 12.4696 263.211 11.9608 263.586 11.5858C263.961 11.2107 264.469 11 265 11ZM250 6.99999C250 6.60442 250.117 6.21774 250.337 5.88885C250.557 5.55995 250.869 5.3036 251.234 5.15223C251.6 5.00085 252.002 4.96124 252.39 5.03842C252.778 5.11559 253.134 5.30607 253.414 5.58577C253.694 5.86548 253.884 6.22184 253.961 6.60981C254.039 6.99777 253.999 7.3999 253.848 7.76535C253.696 8.13081 253.44 8.44316 253.111 8.66293C252.782 8.88269 252.395 8.99999 252 8.99999C251.469 8.99999 250.961 8.78927 250.586 8.4142C250.211 8.03913 250 7.53042 250 6.99999ZM247 26C246.604 26 246.218 25.8827 245.889 25.6629C245.56 25.4432 245.303 25.1308 245.152 24.7654C245.001 24.3999 244.961 23.9978 245.038 23.6098C245.115 23.2218 245.306 22.8655 245.586 22.5858C245.865 22.3061 246.222 22.1156 246.61 22.0384C246.998 21.9612 247.4 22.0009 247.765 22.1522C248.131 22.3036 248.443 22.5599 248.663 22.8888C248.883 23.2177 249 23.6044 249 24C249 24.5304 248.789 25.0391 248.414 25.4142C248.039 25.7893 247.53 26 247 26ZM254 16C254 15.6044 254.117 15.2177 254.337 14.8888C254.557 14.5599 254.869 14.3036 255.234 14.1522C255.6 14.0009 256.002 13.9612 256.39 14.0384C256.778 14.1156 257.134 14.3061 257.414 14.5858C257.694 14.8655 257.884 15.2218 257.961 15.6098C258.039 15.9978 257.999 16.3999 257.848 16.7654C257.696 17.1308 257.44 17.4432 257.111 17.6629C256.782 17.8827 256.395 18 256 18C255.469 18 254.961 17.7893 254.586 17.4142C254.211 17.0391 254 16.5304 254 16ZM265 25C264.604 25 264.218 24.8827 263.889 24.6629C263.56 24.4432 263.303 24.1308 263.152 23.7654C263.001 23.3999 262.961 22.9978 263.038 22.6098C263.115 22.2218 263.306 21.8655 263.586 21.5858C263.865 21.3061 264.222 21.1156 264.61 21.0384C264.998 20.9612 265.4 21.0009 265.765 21.1522C266.131 21.3036 266.443 21.5599 266.663 21.8888C266.883 22.2177 267 22.6044 267 23C267 23.5304 266.789 24.0391 266.414 24.4142C266.039 24.7893 265.53 25 265 25Z" fill="currentColor"/>
</g>
<defs>
<clipPath id="clip0_17_3560">
<rect width="272" height="32" rx="5" fill="white"/>
</clipPath>
</defs>
</svg>
