<svg width="272" height="32" viewBox="0 0 272 32" fill="none" xmlns="http://www.w3.org/2000/svg">
<g clip-path="url(#clip0_17_3504)">
<path d="M22 16C22 16.2652 21.8946 16.5196 21.7071 16.7071C21.5196 16.8946 21.2652 17 21 17H11C10.7348 17 10.4804 16.8946 10.2929 16.7071C10.1054 16.5196 10 16.2652 10 16C10 15.7348 10.1054 15.4804 10.2929 15.2929C10.4804 15.1054 10.7348 15 11 15H21C21.2652 15 21.5196 15.1054 21.7071 15.2929C21.8946 15.4804 22 15.7348 22 16ZM29 16C29 18.5712 28.2376 21.0846 26.8091 23.2224C25.3807 25.3603 23.3503 27.0265 20.9749 28.0104C18.5995 28.9944 15.9856 29.2518 13.4638 28.7502C10.9421 28.2486 8.6257 27.0105 6.80762 25.1924C4.98953 23.3743 3.75141 21.0579 3.2498 18.5362C2.74819 16.0144 3.00563 13.4006 3.98957 11.0251C4.97351 8.64968 6.63975 6.61935 8.77759 5.1909C10.9154 3.76244 13.4288 3 16 3C19.4467 3.00364 22.7512 4.37445 25.1884 6.81163C27.6256 9.24882 28.9964 12.5533 29 16ZM27 16C27 13.8244 26.3549 11.6977 25.1462 9.88873C23.9375 8.07979 22.2195 6.66989 20.2095 5.83733C18.1995 5.00476 15.9878 4.78692 13.854 5.21136C11.7202 5.6358 9.76021 6.68345 8.22183 8.22183C6.68345 9.7602 5.63581 11.7202 5.21137 13.854C4.78693 15.9878 5.00477 18.1995 5.83733 20.2095C6.66989 22.2195 8.07979 23.9375 9.88873 25.1462C11.6977 26.3549 13.8244 27 16 27C18.9164 26.9967 21.7123 25.8367 23.7745 23.7745C25.8367 21.7123 26.9967 18.9164 27 16Z" fill="currentColor"/>
<path d="M69.5 16C69.5 16.1326 69.4473 16.2598 69.3536 16.3536C69.2598 16.4473 69.1326 16.5 69 16.5H59C58.8674 16.5 58.7402 16.4473 58.6465 16.3536C58.5527 16.2598 58.5 16.1326 58.5 16C58.5 15.8674 58.5527 15.7402 58.6465 15.6464C58.7402 15.5527 58.8674 15.5 59 15.5H69C69.1326 15.5 69.2598 15.5527 69.3536 15.6464C69.4473 15.7402 69.5 15.8674 69.5 16ZM76.5 16C76.5 18.4723 75.7669 20.889 74.3934 22.9446C73.0199 25.0002 71.0676 26.6024 68.7835 27.5485C66.4995 28.4946 63.9861 28.7421 61.5614 28.2598C59.1366 27.7775 56.9093 26.587 55.1612 24.8388C53.413 23.0907 52.2225 20.8634 51.7402 18.4386C51.2579 16.0139 51.5054 13.5005 52.4515 11.2165C53.3976 8.93238 54.9998 6.98015 57.0554 5.60663C59.111 4.23311 61.5277 3.5 64 3.5C67.3141 3.50364 70.4914 4.82177 72.8348 7.16518C75.1782 9.5086 76.4964 12.6859 76.5 16ZM75.5 16C75.5 13.7255 74.8255 11.5021 73.5619 9.61094C72.2983 7.71978 70.5022 6.24579 68.4009 5.37539C66.2995 4.50498 63.9872 4.27724 61.7565 4.72097C59.5257 5.1647 57.4766 6.25997 55.8683 7.86827C54.26 9.47658 53.1647 11.5257 52.721 13.7565C52.2772 15.9872 52.505 18.2995 53.3754 20.4009C54.2458 22.5022 55.7198 24.2983 57.6109 25.5619C59.5021 26.8255 61.7255 27.5 64 27.5C67.049 27.4967 69.9721 26.284 72.1281 24.1281C74.284 21.9721 75.4967 19.049 75.5 16Z" fill="currentColor"/>
<path d="M117.75 16C117.75 16.1989 117.671 16.3897 117.53 16.5303C117.39 16.671 117.199 16.75 117 16.75H107C106.801 16.75 106.61 16.671 106.47 16.5303C106.329 16.3897 106.25 16.1989 106.25 16C106.25 15.8011 106.329 15.6103 106.47 15.4697C106.61 15.329 106.801 15.25 107 15.25H117C117.199 15.25 117.39 15.329 117.53 15.4697C117.671 15.6103 117.75 15.8011 117.75 16ZM124.75 16C124.75 18.5217 124.002 20.9868 122.601 23.0835C121.2 25.1802 119.209 26.8144 116.879 27.7795C114.549 28.7445 111.986 28.997 109.513 28.505C107.039 28.0131 104.768 26.7987 102.984 25.0156C101.201 23.2325 99.987 20.9607 99.495 18.4874C99.003 16.0141 99.2555 13.4505 100.221 11.1208C101.186 8.79103 102.82 6.79975 104.916 5.39876C107.013 3.99777 109.478 3.25 112 3.25C115.38 3.25397 118.621 4.59854 121.011 6.98877C123.401 9.379 124.746 12.6197 124.75 16ZM123.25 16C123.25 13.775 122.59 11.5999 121.354 9.74984C120.118 7.89978 118.361 6.45784 116.305 5.60636C114.25 4.75487 111.988 4.53208 109.805 4.96617C107.623 5.40025 105.618 6.47171 104.045 8.04505C102.472 9.61839 101.4 11.6229 100.966 13.8052C100.532 15.9875 100.755 18.2495 101.606 20.3052C102.458 22.3609 103.9 24.1179 105.75 25.354C107.6 26.5902 109.775 27.25 112 27.25C114.983 27.2467 117.842 26.0604 119.951 23.9513C122.06 21.8422 123.247 18.9827 123.25 16Z" fill="currentColor"/>
<path d="M166.5 16C166.5 16.3978 166.342 16.7794 166.061 17.0607C165.779 17.342 165.398 17.5 165 17.5H155C154.602 17.5 154.221 17.342 153.939 17.0607C153.658 16.7794 153.5 16.3978 153.5 16C153.5 15.6022 153.658 15.2206 153.939 14.9393C154.221 14.658 154.602 14.5 155 14.5H165C165.398 14.5 165.779 14.658 166.061 14.9393C166.342 15.2206 166.5 15.6022 166.5 16ZM173.5 16C173.5 18.67 172.708 21.2801 171.225 23.5002C169.741 25.7203 167.633 27.4506 165.166 28.4724C162.699 29.4942 159.985 29.7615 157.366 29.2406C154.748 28.7197 152.342 27.434 150.454 25.5459C148.566 23.6579 147.28 21.2525 146.759 18.6337C146.239 16.015 146.506 13.3006 147.528 10.8338C148.549 8.36697 150.28 6.25856 152.5 4.77516C154.72 3.29176 157.33 2.5 160 2.5C163.579 2.50397 167.011 3.92756 169.542 6.45844C172.072 8.98932 173.496 12.4208 173.5 16ZM170.5 16C170.5 13.9233 169.884 11.8932 168.73 10.1665C167.577 8.4398 165.937 7.09399 164.018 6.29926C162.1 5.50454 159.988 5.29661 157.952 5.70175C155.915 6.1069 154.044 7.10693 152.575 8.57538C151.107 10.0438 150.107 11.9148 149.702 13.9516C149.297 15.9884 149.505 18.0996 150.299 20.0182C151.094 21.9368 152.44 23.5767 154.167 24.7304C155.893 25.8842 157.923 26.5 160 26.5C162.784 26.497 165.453 25.3898 167.421 23.4213C169.39 21.4528 170.497 18.7839 170.5 16Z" fill="currentColor"/>
<path d="M208 3C205.429 3 202.915 3.76244 200.778 5.1909C198.64 6.61935 196.974 8.64968 195.99 11.0251C195.006 13.4006 194.748 16.0144 195.25 18.5362C195.751 21.0579 196.99 23.3743 198.808 25.1924C200.626 27.0105 202.942 28.2486 205.464 28.7502C207.986 29.2518 210.599 28.9944 212.975 28.0104C215.35 27.0265 217.381 25.3603 218.809 23.2224C220.238 21.0846 221 18.5712 221 16C220.996 12.5533 219.626 9.24882 217.188 6.81163C214.751 4.37445 211.447 3.00364 208 3ZM213 17H203C202.735 17 202.48 16.8946 202.293 16.7071C202.105 16.5196 202 16.2652 202 16C202 15.7348 202.105 15.4804 202.293 15.2929C202.48 15.1054 202.735 15 203 15H213C213.265 15 213.52 15.1054 213.707 15.2929C213.895 15.4804 214 15.7348 214 16C214 16.2652 213.895 16.5196 213.707 16.7071C213.52 16.8946 213.265 17 213 17Z" fill="currentColor"/>
<path opacity="0.2" d="M268 16C268 18.3734 267.296 20.6935 265.978 22.6668C264.659 24.6402 262.785 26.1783 260.592 27.0866C258.399 27.9948 255.987 28.2324 253.659 27.7694C251.331 27.3064 249.193 26.1635 247.515 24.4853C245.836 22.8071 244.694 20.6689 244.231 18.3411C243.768 16.0133 244.005 13.6005 244.913 11.4078C245.822 9.21509 247.36 7.34094 249.333 6.02236C251.307 4.70379 253.627 4 256 4C259.183 4 262.235 5.26428 264.485 7.51472C266.736 9.76515 268 12.8174 268 16Z" fill="currentColor"/>
<path d="M262 16C262 16.2652 261.895 16.5196 261.707 16.7071C261.52 16.8946 261.265 17 261 17H251C250.735 17 250.48 16.8946 250.293 16.7071C250.105 16.5196 250 16.2652 250 16C250 15.7348 250.105 15.4804 250.293 15.2929C250.48 15.1054 250.735 15 251 15H261C261.265 15 261.52 15.1054 261.707 15.2929C261.895 15.4804 262 15.7348 262 16ZM269 16C269 18.5712 268.238 21.0846 266.809 23.2224C265.381 25.3603 263.35 27.0265 260.975 28.0104C258.599 28.9944 255.986 29.2518 253.464 28.7502C250.942 28.2486 248.626 27.0105 246.808 25.1924C244.99 23.3743 243.751 21.0579 243.25 18.5362C242.748 16.0144 243.006 13.4006 243.99 11.0251C244.974 8.64968 246.64 6.61935 248.778 5.1909C250.915 3.76244 253.429 3 256 3C259.447 3.00364 262.751 4.37445 265.188 6.81163C267.626 9.24882 268.996 12.5533 269 16ZM267 16C267 13.8244 266.355 11.6977 265.146 9.88873C263.937 8.07979 262.22 6.66989 260.21 5.83733C258.2 5.00476 255.988 4.78692 253.854 5.21136C251.72 5.6358 249.76 6.68345 248.222 8.22183C246.683 9.7602 245.636 11.7202 245.211 13.854C244.787 15.9878 245.005 18.1995 245.837 20.2095C246.67 22.2195 248.08 23.9375 249.889 25.1462C251.698 26.3549 253.824 27 256 27C258.916 26.9967 261.712 25.8367 263.775 23.7745C265.837 21.7123 266.997 18.9164 267 16Z" fill="currentColor"/>
</g>
<defs>
<clipPath id="clip0_17_3504">
<rect width="272" height="32" rx="5" fill="white"/>
</clipPath>
</defs>
</svg>
