<svg width="272" height="32" viewBox="0 0 272 32" fill="none" xmlns="http://www.w3.org/2000/svg">
<g clip-path="url(#clip0_17_3322)">
<path d="M22.0001 20C22.0001 21.3512 21.6089 22.6735 20.8739 23.8074C20.1389 24.9412 19.0915 25.838 17.858 26.3897C16.6245 26.9413 15.2577 27.1242 13.9226 26.9162C12.5875 26.7082 11.3411 26.1182 10.3339 25.2175C10.2311 25.1315 10.1466 25.0256 10.0855 24.9062C10.0243 24.7869 9.98787 24.6564 9.97819 24.5227C9.96852 24.3889 9.98584 24.2546 10.0291 24.1277C10.0724 24.0008 10.1408 23.8839 10.2302 23.7839C10.3196 23.684 10.4282 23.603 10.5495 23.5459C10.6708 23.4887 10.8023 23.4566 10.9363 23.4513C11.0703 23.446 11.204 23.4678 11.3294 23.5152C11.4548 23.5627 11.5694 23.6349 11.6664 23.7275C12.3818 24.3673 13.2662 24.7878 14.2141 24.9386C15.1619 25.0894 16.1331 24.9642 17.0118 24.578C17.8904 24.1918 18.6393 23.5608 19.1691 22.7605C19.6988 21.9601 19.987 21.0242 19.9993 20.0645C20.0116 19.1048 19.7473 18.1619 19.2382 17.3483C18.729 16.5347 17.9965 15.8848 17.128 15.4763C16.2595 15.0677 15.2918 14.9178 14.3404 15.0444C13.389 15.1709 12.4941 15.5686 11.7626 16.19C11.6043 16.3232 11.4085 16.404 11.2023 16.4212C10.9961 16.4384 10.7896 16.3913 10.6114 16.2862C10.4331 16.1812 10.2918 16.0234 10.2069 15.8347C10.1221 15.646 10.0979 15.4356 10.1376 15.2325L12.0201 5.80375C12.0655 5.57719 12.1879 5.37331 12.3666 5.22679C12.5452 5.08026 12.7691 5.00013 13.0001 5H21.0001C21.2654 5 21.5197 5.10536 21.7073 5.29289C21.8948 5.48043 22.0001 5.73478 22.0001 6C22.0001 6.26522 21.8948 6.51957 21.7073 6.70711C21.5197 6.89464 21.2654 7 21.0001 7H13.8201L12.5301 13.45C13.5895 13.0505 14.73 12.9139 15.8537 13.052C16.9774 13.19 18.0509 13.5986 18.9821 14.2426C19.9132 14.8867 20.6743 15.747 21.2 16.7497C21.7256 17.7525 22.0002 18.8678 22.0001 20Z" fill="currentColor"/>
<path d="M69.5001 20C69.5002 21.2549 69.137 22.4829 68.4545 23.536C67.772 24.589 66.7992 25.4219 65.6537 25.9342C64.5081 26.4465 63.2388 26.6163 61.9989 26.423C60.759 26.2297 59.6016 25.6817 58.6663 24.845C58.6171 24.8012 58.5769 24.7481 58.5482 24.6887C58.5195 24.6294 58.5027 24.565 58.4989 24.4992C58.4951 24.4334 58.5042 24.3674 58.5259 24.3052C58.5475 24.2429 58.5812 24.1855 58.6251 24.1362C58.6689 24.087 58.722 24.0469 58.7813 24.0181C58.8407 23.9894 58.9051 23.9727 58.9709 23.9688C59.0367 23.965 59.1026 23.9742 59.1649 23.9958C59.2272 24.0175 59.2846 24.0512 59.3338 24.095C60.1208 24.7987 61.0937 25.2611 62.1364 25.4269C63.179 25.5927 64.2474 25.4549 65.2138 25.0299C66.1803 24.605 67.004 23.9108 67.5866 23.0304C68.1693 22.15 68.4862 21.1205 68.4996 20.0648C68.5129 19.0091 68.2222 17.9719 67.662 17.077C67.1019 16.1821 66.296 15.4673 65.3406 15.018C64.3852 14.5687 63.3207 14.4039 62.2742 14.5432C61.2277 14.6826 60.2434 15.1202 59.4388 15.8038C59.36 15.8702 59.2625 15.9106 59.1598 15.9195C59.0571 15.9284 58.9542 15.9054 58.8651 15.8535C58.776 15.8016 58.7051 15.7235 58.6621 15.6298C58.6192 15.5361 58.6062 15.4314 58.6251 15.33L60.5113 5.9025C60.5338 5.78931 60.5948 5.68739 60.6839 5.61403C60.7729 5.54067 60.8847 5.50038 61.0001 5.5H69.0001C69.1327 5.5 69.2598 5.55268 69.3536 5.64645C69.4474 5.74021 69.5001 5.86739 69.5001 6C69.5001 6.13261 69.4474 6.25979 69.3536 6.35355C69.2598 6.44732 69.1327 6.5 69.0001 6.5H61.4101L59.8463 14.3162C60.8358 13.7672 61.9515 13.486 63.083 13.5004C64.2146 13.5149 65.3227 13.8245 66.2979 14.3986C67.273 14.9727 68.0814 15.7915 68.643 16.7739C69.2047 17.7564 69.5001 18.8684 69.5001 20Z" fill="currentColor"/>
<path d="M117.75 20C117.75 21.303 117.373 22.5782 116.664 23.6717C115.956 24.7651 114.945 25.63 113.756 26.162C112.566 26.6939 111.248 26.8702 109.961 26.6696C108.673 26.469 107.471 25.8999 106.5 25.0312C106.424 24.9663 106.362 24.8869 106.317 24.7976C106.272 24.7083 106.246 24.6109 106.239 24.5112C106.232 24.4114 106.246 24.3114 106.278 24.2169C106.311 24.1224 106.362 24.0353 106.428 23.9608C106.495 23.8864 106.576 23.826 106.666 23.7832C106.757 23.7404 106.855 23.7161 106.954 23.7117C107.054 23.7073 107.154 23.7229 107.248 23.7576C107.341 23.7923 107.427 23.8454 107.5 23.9137C108.251 24.5856 109.18 25.027 110.175 25.1853C111.171 25.3436 112.191 25.2121 113.113 24.8064C114.036 24.4008 114.822 23.7382 115.378 22.8977C115.934 22.0573 116.237 21.0745 116.25 20.0668C116.262 19.0591 115.985 18.069 115.45 17.2147C114.915 16.3605 114.146 15.6782 113.234 15.2494C112.322 14.8206 111.306 14.6634 110.307 14.7965C109.308 14.9295 108.368 15.3474 107.6 16C107.482 16.1025 107.334 16.1652 107.178 16.1795C107.022 16.1937 106.865 16.1587 106.73 16.0794C106.595 16.0001 106.488 15.8805 106.424 15.7374C106.361 15.5942 106.344 15.4347 106.375 15.2812L108.265 5.8525C108.299 5.68263 108.391 5.5298 108.525 5.41997C108.659 5.31014 108.827 5.25008 109 5.25H117C117.199 5.25 117.39 5.32902 117.531 5.46967C117.671 5.61032 117.75 5.80109 117.75 6C117.75 6.19891 117.671 6.38968 117.531 6.53033C117.39 6.67098 117.199 6.75 117 6.75H109.615L108.193 13.8612C109.221 13.3909 110.351 13.1865 111.479 13.2667C112.607 13.3469 113.697 13.7092 114.648 14.3203C115.599 14.9314 116.382 15.7717 116.924 16.7641C117.466 17.7565 117.75 18.8692 117.75 20Z" fill="currentColor"/>
<path d="M166.5 20C166.5 21.4478 166.081 22.8647 165.293 24.0795C164.506 25.2944 163.383 26.2553 162.062 26.8464C160.74 27.4374 159.276 27.6333 157.845 27.4104C156.414 27.1874 155.079 26.5552 154 25.59C153.848 25.4602 153.723 25.3013 153.634 25.1226C153.544 24.944 153.491 24.7493 153.477 24.5498C153.464 24.3504 153.491 24.1503 153.556 23.9613C153.621 23.7723 153.723 23.5982 153.856 23.4492C153.99 23.3002 154.151 23.1794 154.332 23.0939C154.513 23.0083 154.709 22.9597 154.908 22.9509C155.108 22.9421 155.307 22.9734 155.495 23.0428C155.682 23.1121 155.854 23.2183 156 23.355C156.644 23.9306 157.44 24.3088 158.293 24.4443C159.146 24.5799 160.02 24.467 160.81 24.1193C161.601 23.7716 162.275 23.2037 162.752 22.4835C163.228 21.7632 163.488 20.9209 163.499 20.0573C163.51 19.1936 163.272 18.3451 162.814 17.6129C162.355 16.8807 161.696 16.2959 160.915 15.9282C160.133 15.5605 159.262 15.4255 158.406 15.5393C157.55 15.6531 156.744 16.0109 156.086 16.57C155.849 16.7717 155.555 16.8946 155.244 16.9215C154.934 16.9484 154.623 16.878 154.354 16.7201C154.086 16.5622 153.873 16.3246 153.746 16.0404C153.618 15.7561 153.583 15.4392 153.644 15.1337L155.529 5.70625C155.597 5.36608 155.78 5.05997 156.049 4.84003C156.317 4.62009 156.653 4.49993 157 4.5H165C165.398 4.5 165.779 4.65804 166.061 4.93934C166.342 5.22064 166.5 5.60218 166.5 6C166.5 6.39782 166.342 6.77936 166.061 7.06066C165.779 7.34196 165.398 7.5 165 7.5H158.23L157.185 12.7238C158.29 12.448 159.444 12.4278 160.559 12.6646C161.673 12.9014 162.719 13.3889 163.617 14.0903C164.515 14.7917 165.241 15.6884 165.74 16.7123C166.24 17.7363 166.5 18.8607 166.5 20Z" fill="currentColor"/>
<path d="M217 3H199C198.47 3 197.961 3.21071 197.586 3.58579C197.211 3.96086 197 4.46957 197 5V27C197 27.5304 197.211 28.0391 197.586 28.4142C197.961 28.7893 198.47 29 199 29H217C217.53 29 218.039 28.7893 218.414 28.4142C218.789 28.0391 219 27.5304 219 27V5C219 4.46957 218.789 3.96086 218.414 3.58579C218.039 3.21071 217.53 3 217 3ZM207.5 13C208.429 13 209.343 13.2354 210.156 13.6841C210.97 14.1329 211.656 14.7804 212.152 15.5662C212.648 16.3521 212.936 17.2507 212.99 18.1781C213.045 19.1056 212.863 20.0317 212.463 20.8701C212.063 21.7084 211.456 22.4317 210.701 22.9725C209.945 23.5132 209.065 23.8537 208.143 23.9623C207.22 24.0709 206.285 23.944 205.424 23.5934C204.564 23.2428 203.807 22.68 203.222 21.9575C203.06 21.7509 202.985 21.4885 203.014 21.2272C203.044 20.9659 203.175 20.7266 203.379 20.5612C203.584 20.3959 203.845 20.3177 204.107 20.3437C204.369 20.3697 204.61 20.4977 204.778 20.7C205.231 21.2607 205.846 21.6678 206.539 21.8658C207.232 22.0637 207.969 22.0428 208.65 21.8058C209.331 21.5689 209.922 21.1276 210.343 20.5421C210.763 19.9566 210.993 19.2555 211 18.5347C211.007 17.8138 210.791 17.1084 210.382 16.5148C209.973 15.9211 209.391 15.4682 208.715 15.218C208.039 14.9677 207.302 14.9323 206.605 15.1166C205.908 15.3008 205.285 15.6958 204.821 16.2475C204.681 16.4114 204.491 16.5255 204.28 16.5726C204.069 16.6197 203.849 16.5973 203.652 16.5088C203.455 16.4203 203.292 16.2705 203.188 16.0816C203.083 15.8928 203.042 15.6752 203.071 15.4613L204.015 8.85875C204.049 8.62126 204.167 8.40387 204.348 8.24623C204.529 8.08858 204.76 8.00119 205 8H212C212.265 8 212.52 8.10536 212.707 8.29289C212.895 8.48043 213 8.73478 213 9C213 9.26522 212.895 9.51957 212.707 9.70711C212.52 9.89464 212.265 10 212 10H205.868L205.375 13.425C206.048 13.1438 206.77 12.9993 207.5 13Z" fill="currentColor"/>
<path opacity="0.2" d="M267 5V27C267 27.5304 266.789 28.0391 266.414 28.4142C266.039 28.7893 265.53 29 265 29H247C246.47 29 245.961 28.7893 245.586 28.4142C245.211 28.0391 245 27.5304 245 27V5C245 4.46957 245.211 3.96086 245.586 3.58579C245.961 3.21071 246.47 3 247 3H265C265.53 3 266.039 3.21071 266.414 3.58579C266.789 3.96086 267 4.46957 267 5Z" fill="currentColor"/>
<path d="M262 20C262 21.3512 261.609 22.6735 260.874 23.8074C260.139 24.9412 259.091 25.838 257.858 26.3897C256.624 26.9413 255.258 27.1242 253.923 26.9162C252.587 26.7082 251.341 26.1182 250.334 25.2175C250.231 25.1315 250.147 25.0256 250.085 24.9062C250.024 24.7869 249.988 24.6564 249.978 24.5227C249.969 24.3889 249.986 24.2546 250.029 24.1277C250.072 24.0008 250.141 23.8839 250.23 23.7839C250.32 23.684 250.428 23.603 250.549 23.5459C250.671 23.4887 250.802 23.4566 250.936 23.4513C251.07 23.446 251.204 23.4678 251.329 23.5152C251.455 23.5627 251.569 23.6349 251.666 23.7275C252.382 24.3673 253.266 24.7878 254.214 24.9386C255.162 25.0894 256.133 24.9642 257.012 24.578C257.89 24.1918 258.639 23.5608 259.169 22.7605C259.699 21.9601 259.987 21.0242 259.999 20.0645C260.012 19.1048 259.747 18.1619 259.238 17.3483C258.729 16.5347 257.996 15.8848 257.128 15.4763C256.26 15.0677 255.292 14.9178 254.34 15.0444C253.389 15.1709 252.494 15.5686 251.763 16.19C251.604 16.3232 251.409 16.404 251.202 16.4212C250.996 16.4384 250.79 16.3913 250.611 16.2862C250.433 16.1812 250.292 16.0234 250.207 15.8347C250.122 15.646 250.098 15.4356 250.138 15.2325L252.02 5.80375C252.065 5.57719 252.188 5.37331 252.367 5.22679C252.545 5.08026 252.769 5.00013 253 5H261C261.265 5 261.52 5.10536 261.707 5.29289C261.895 5.48043 262 5.73478 262 6C262 6.26522 261.895 6.51957 261.707 6.70711C261.52 6.89464 261.265 7 261 7H253.82L252.53 13.45C253.59 13.0505 254.73 12.9139 255.854 13.052C256.977 13.19 258.051 13.5986 258.982 14.2426C259.913 14.8867 260.674 15.747 261.2 16.7497C261.726 17.7525 262 18.8678 262 20Z" fill="currentColor"/>
</g>
<defs>
<clipPath id="clip0_17_3322">
<rect width="272" height="32" rx="5" fill="white"/>
</clipPath>
</defs>
</svg>
