<svg width="272" height="32" viewBox="0 0 272 32" fill="none" xmlns="http://www.w3.org/2000/svg">
<g clip-path="url(#clip0_17_3336)">
<path d="M19.4438 14.9087C20.4885 14.1764 21.2726 13.1302 21.6823 11.922C22.0919 10.7138 22.1058 9.40644 21.7219 8.18979C21.338 6.97315 20.5762 5.91054 19.5473 5.15628C18.5184 4.40202 17.2758 3.99536 16 3.99536C14.7242 3.99536 13.4816 4.40202 12.4527 5.15628C11.4238 5.91054 10.662 6.97315 10.2781 8.18979C9.8942 9.40644 9.90808 10.7138 10.3177 11.922C10.7274 13.1302 11.5115 14.1764 12.5563 14.9087C11.2099 15.6695 10.1533 16.8547 9.55159 18.2794C8.94988 19.704 8.83687 21.2878 9.23021 22.7834C9.62356 24.279 10.5011 25.6023 11.7258 26.5466C12.9506 27.4909 14.4535 28.003 16 28.003C17.5465 28.003 19.0494 27.4909 20.2742 26.5466C21.4989 25.6023 22.3764 24.279 22.7698 22.7834C23.1631 21.2878 23.0501 19.704 22.4484 18.2794C21.8467 16.8547 20.7901 15.6695 19.4438 14.9087ZM12 9.99992C12 9.20879 12.2346 8.43543 12.6741 7.77764C13.1137 7.11984 13.7384 6.60715 14.4693 6.3044C15.2002 6.00165 16.0044 5.92244 16.7804 6.07678C17.5563 6.23112 18.269 6.61208 18.8284 7.17149C19.3878 7.7309 19.7688 8.44363 19.9231 9.21956C20.0775 9.99548 19.9983 10.7997 19.6955 11.5307C19.3928 12.2616 18.8801 12.8863 18.2223 13.3258C17.5645 13.7653 16.7911 13.9999 16 13.9999C14.9391 13.9999 13.9217 13.5785 13.1716 12.8283C12.4214 12.0782 12 11.0608 12 9.99992ZM16 25.9999C15.0111 25.9999 14.0444 25.7067 13.2222 25.1573C12.3999 24.6079 11.759 23.827 11.3806 22.9133C11.0022 21.9997 10.9031 20.9944 11.0961 20.0245C11.289 19.0546 11.7652 18.1636 12.4645 17.4644C13.1637 16.7651 14.0546 16.2889 15.0246 16.096C15.9945 15.9031 16.9998 16.0021 17.9134 16.3805C18.8271 16.759 19.6079 17.3998 20.1574 18.2221C20.7068 19.0443 21 20.011 21 20.9999C21 22.326 20.4732 23.5978 19.5355 24.5355C18.5979 25.4731 17.3261 25.9999 16 25.9999Z" fill="currentColor"/>
<path d="M66.385 14.955C67.5079 14.4146 68.4139 13.509 68.9548 12.3864C69.4957 11.2638 69.6394 9.9908 69.3623 8.77589C69.0852 7.56099 68.4037 6.47619 67.4295 5.69919C66.4553 4.92218 65.2461 4.49902 64 4.49902C62.7539 4.49902 61.5447 4.92218 60.5705 5.69919C59.5963 6.47619 58.9149 7.56099 58.6377 8.77589C58.3606 9.9908 58.5043 11.2638 59.0452 12.3864C59.5861 13.509 60.4922 14.4146 61.615 14.955C60.2073 15.5103 59.0374 16.5393 58.3071 17.8647C57.5767 19.1901 57.3318 20.7288 57.6144 22.2155C57.897 23.7022 58.6894 25.0436 59.8551 26.0086C61.0208 26.9736 62.4867 27.5016 64 27.5016C65.5133 27.5016 66.9792 26.9736 68.1449 26.0086C69.3106 25.0436 70.1031 23.7022 70.3857 22.2155C70.6683 20.7288 70.4233 19.1901 69.693 17.8647C68.9626 16.5393 67.7928 15.5103 66.385 14.955ZM59.5 10C59.5 9.10999 59.7639 8.23996 60.2584 7.49994C60.7529 6.75992 61.4557 6.18314 62.2779 5.84255C63.1002 5.50196 64.005 5.41284 64.8779 5.58647C65.7508 5.76011 66.5527 6.18869 67.182 6.81803C67.8113 7.44736 68.2399 8.24919 68.4135 9.1221C68.5872 9.99501 68.4981 10.8998 68.1575 11.7221C67.8169 12.5443 67.2401 13.2472 66.5001 13.7416C65.7601 14.2361 64.89 14.5 64 14.5C62.8065 14.5 61.6619 14.0259 60.818 13.182C59.9741 12.3381 59.5 11.1935 59.5 10ZM64 26.5C62.9122 26.5 61.8488 26.1774 60.9444 25.5731C60.0399 24.9687 59.335 24.1098 58.9187 23.1048C58.5024 22.0998 58.3935 20.9939 58.6057 19.927C58.8179 18.8601 59.3417 17.8801 60.1109 17.1109C60.8801 16.3417 61.8601 15.8179 62.927 15.6057C63.9939 15.3935 65.0998 15.5024 66.1048 15.9187C67.1098 16.335 67.9687 17.0399 68.5731 17.9444C69.1774 18.8488 69.5 19.9122 69.5 21C69.4984 22.4582 68.9184 23.8562 67.8873 24.8873C66.8562 25.9184 65.4582 26.4984 64 26.5Z" fill="currentColor"/>
<path d="M114.953 14.9312C116.032 14.2852 116.87 13.3029 117.338 12.1351C117.806 10.9672 117.877 9.67812 117.542 8.46549C117.207 7.25286 116.484 6.1836 115.483 5.42164C114.481 4.65968 113.258 4.24707 112 4.24707C110.742 4.24707 109.519 4.65968 108.517 5.42164C107.516 6.1836 106.793 7.25286 106.458 8.46549C106.123 9.67812 106.194 10.9672 106.662 12.1351C107.13 13.3029 107.968 14.2852 109.048 14.9312C107.674 15.599 106.568 16.7127 105.91 18.0903C105.251 19.468 105.08 21.0281 105.422 22.5161C105.765 24.004 106.602 25.3318 107.797 26.2827C108.991 27.2335 110.473 27.7512 112 27.7512C113.527 27.7512 115.009 27.2335 116.203 26.2827C117.398 25.3318 118.235 24.004 118.578 22.5161C118.92 21.0281 118.749 19.468 118.09 18.0903C117.432 16.7127 116.326 15.599 114.953 14.9312ZM107.75 9.99991C107.75 9.15934 107.999 8.33765 108.466 7.63874C108.933 6.93983 109.597 6.39509 110.374 6.07342C111.15 5.75175 112.005 5.66759 112.829 5.83157C113.654 5.99556 114.411 6.40033 115.005 6.99471C115.6 7.58908 116.004 8.34636 116.168 9.17078C116.332 9.9952 116.248 10.8497 115.926 11.6263C115.605 12.4029 115.06 13.0667 114.361 13.5337C113.662 14.0007 112.841 14.2499 112 14.2499C110.873 14.2499 109.792 13.8021 108.995 13.0051C108.198 12.2081 107.75 11.1271 107.75 9.99991ZM112 26.2499C110.962 26.2499 109.947 25.942 109.083 25.3651C108.22 24.7882 107.547 23.9683 107.15 23.009C106.752 22.0497 106.648 20.9941 106.851 19.9757C107.053 18.9573 107.553 18.0218 108.288 17.2876C109.022 16.5534 109.957 16.0534 110.976 15.8508C111.994 15.6482 113.05 15.7522 114.009 16.1495C114.968 16.5469 115.788 17.2198 116.365 18.0832C116.942 18.9465 117.25 19.9616 117.25 20.9999C117.25 22.3923 116.697 23.7277 115.712 24.7122C114.728 25.6968 113.392 26.2499 112 26.2499Z" fill="currentColor"/>
<path d="M164.305 14.8637C165.294 13.9896 165.993 12.8354 166.31 11.5544C166.627 10.2733 166.546 8.92617 166.079 7.69203C165.612 6.45788 164.78 5.3952 163.694 4.64526C162.608 3.89532 161.32 3.49365 160 3.49365C158.68 3.49365 157.392 3.89532 156.306 4.64526C155.22 5.3952 154.388 6.45788 153.921 7.69203C153.454 8.92617 153.373 10.2733 153.69 11.5544C154.007 12.8354 154.706 13.9896 155.695 14.8637C154.389 15.779 153.409 17.0868 152.897 18.597C152.385 20.1073 152.368 21.7415 152.848 23.2622C153.328 24.783 154.28 26.1112 155.566 27.054C156.852 27.9968 158.405 28.5051 160 28.5051C161.595 28.5051 163.148 27.9968 164.434 27.054C165.72 26.1112 166.672 24.783 167.152 23.2622C167.632 21.7415 167.615 20.1073 167.103 18.597C166.591 17.0868 165.611 15.779 164.305 14.8637ZM156.5 9.99991C156.5 9.30768 156.705 8.63099 157.09 8.05541C157.474 7.47984 158.021 7.03124 158.661 6.76633C159.3 6.50143 160.004 6.43211 160.683 6.56716C161.362 6.70221 161.985 7.03555 162.475 7.52504C162.964 8.01452 163.298 8.63816 163.433 9.31709C163.568 9.99603 163.498 10.6998 163.234 11.3393C162.969 11.9788 162.52 12.5255 161.944 12.9101C161.369 13.2946 160.692 13.4999 160 13.4999C159.072 13.4999 158.182 13.1312 157.525 12.4748C156.869 11.8184 156.5 10.9282 156.5 9.99991ZM160 25.4999C159.11 25.4999 158.24 25.236 157.5 24.7415C156.76 24.2471 156.183 23.5443 155.843 22.722C155.502 21.8997 155.413 20.9949 155.586 20.122C155.76 19.2491 156.189 18.4473 156.818 17.8179C157.447 17.1886 158.249 16.76 159.122 16.5864C159.995 16.4127 160.9 16.5019 161.722 16.8425C162.544 17.183 163.247 17.7598 163.742 18.4998C164.236 19.2399 164.5 20.1099 164.5 20.9999C164.5 22.1934 164.026 23.338 163.182 24.1819C162.338 25.0258 161.193 25.4999 160 25.4999Z" fill="currentColor"/>
<path d="M205.5 11.5C205.5 11.0055 205.647 10.5222 205.921 10.1111C206.196 9.69995 206.586 9.37952 207.043 9.1903C207.5 9.00108 208.003 8.95157 208.488 9.04804C208.973 9.1445 209.418 9.3826 209.768 9.73223C210.117 10.0819 210.356 10.5273 210.452 11.0123C210.548 11.4972 210.499 11.9999 210.31 12.4567C210.12 12.9135 209.8 13.304 209.389 13.5787C208.978 13.8534 208.494 14 208 14C207.337 14 206.701 13.7366 206.232 13.2678C205.763 12.7989 205.5 12.163 205.5 11.5ZM208 16C207.308 16 206.631 16.2053 206.056 16.5899C205.48 16.9744 205.031 17.5211 204.766 18.1606C204.502 18.8001 204.432 19.5039 204.567 20.1828C204.702 20.8617 205.036 21.4854 205.525 21.9749C206.015 22.4644 206.638 22.7977 207.317 22.9327C207.996 23.0678 208.7 22.9985 209.339 22.7336C209.979 22.4687 210.526 22.0201 210.91 21.4445C211.295 20.8689 211.5 20.1922 211.5 19.5C211.5 18.5717 211.131 17.6815 210.475 17.0251C209.818 16.3687 208.928 16 208 16ZM219 5V27C219 27.5304 218.789 28.0391 218.414 28.4142C218.039 28.7893 217.53 29 217 29H199C198.47 29 197.961 28.7893 197.586 28.4142C197.211 28.0391 197 27.5304 197 27V5C197 4.46957 197.211 3.96086 197.586 3.58579C197.961 3.21071 198.47 3 199 3H217C217.53 3 218.039 3.21071 218.414 3.58579C218.789 3.96086 219 4.46957 219 5ZM213.5 19.5C213.499 18.579 213.268 17.6729 212.826 16.8648C212.384 16.0567 211.746 15.3725 210.971 14.875C211.658 14.2711 212.145 13.4722 212.366 12.5848C212.588 11.6973 212.533 10.7635 212.211 9.90767C211.888 9.05185 211.312 8.31469 210.56 7.7944C209.808 7.27411 208.915 6.9954 208 6.9954C207.085 6.9954 206.192 7.27411 205.44 7.7944C204.688 8.31469 204.112 9.05185 203.789 9.90767C203.467 10.7635 203.412 11.6973 203.634 12.5848C203.855 13.4722 204.342 14.2711 205.029 14.875C204.225 15.3907 203.57 16.1066 203.127 16.9523C202.685 17.7981 202.47 18.7445 202.503 19.6985C202.537 20.6525 202.819 21.5813 203.321 22.3935C203.822 23.2056 204.527 23.8733 205.364 24.3307C206.202 24.7882 207.145 25.0197 208.099 25.0025C209.054 24.9852 209.987 24.7199 210.808 24.2325C211.629 23.7451 212.309 23.0525 212.781 22.2227C213.253 21.3929 213.501 20.4546 213.5 19.5Z" fill="currentColor"/>
<path opacity="0.2" d="M267 5V27C267 27.5304 266.789 28.0391 266.414 28.4142C266.039 28.7893 265.53 29 265 29H247C246.47 29 245.961 28.7893 245.586 28.4142C245.211 28.0391 245 27.5304 245 27V5C245 4.46957 245.211 3.96086 245.586 3.58579C245.961 3.21071 246.47 3 247 3H265C265.53 3 266.039 3.21071 266.414 3.58579C266.789 3.96086 267 4.46957 267 5Z" fill="currentColor"/>
<path d="M259.444 14.9087C260.488 14.1764 261.273 13.1302 261.682 11.922C262.092 10.7138 262.106 9.40644 261.722 8.18979C261.338 6.97315 260.576 5.91054 259.547 5.15628C258.518 4.40202 257.276 3.99536 256 3.99536C254.724 3.99536 253.482 4.40202 252.453 5.15628C251.424 5.91054 250.662 6.97315 250.278 8.18979C249.894 9.40644 249.908 10.7138 250.318 11.922C250.727 13.1302 251.512 14.1764 252.556 14.9087C251.21 15.6695 250.153 16.8547 249.552 18.2794C248.95 19.704 248.837 21.2878 249.23 22.7834C249.624 24.279 250.501 25.6023 251.726 26.5466C252.951 27.4909 254.454 28.003 256 28.003C257.546 28.003 259.049 27.4909 260.274 26.5466C261.499 25.6023 262.376 24.279 262.77 22.7834C263.163 21.2878 263.05 19.704 262.448 18.2794C261.847 16.8547 260.79 15.6695 259.444 14.9087ZM252 9.99992C252 9.20879 252.235 8.43543 252.674 7.77764C253.114 7.11984 253.738 6.60715 254.469 6.3044C255.2 6.00165 256.004 5.92244 256.78 6.07678C257.556 6.23112 258.269 6.61208 258.828 7.17149C259.388 7.7309 259.769 8.44363 259.923 9.21956C260.077 9.99548 259.998 10.7997 259.696 11.5307C259.393 12.2616 258.88 12.8863 258.222 13.3258C257.564 13.7653 256.791 13.9999 256 13.9999C254.939 13.9999 253.922 13.5785 253.172 12.8283C252.421 12.0782 252 11.0608 252 9.99992ZM256 25.9999C255.011 25.9999 254.044 25.7067 253.222 25.1573C252.4 24.6079 251.759 23.827 251.381 22.9133C251.002 21.9997 250.903 20.9944 251.096 20.0245C251.289 19.0546 251.765 18.1636 252.464 17.4644C253.164 16.7651 254.055 16.2889 255.025 16.096C255.994 15.9031 257 16.0021 257.913 16.3805C258.827 16.759 259.608 17.3998 260.157 18.2221C260.707 19.0443 261 20.011 261 20.9999C261 22.326 260.473 23.5978 259.536 24.5355C258.598 25.4731 257.326 25.9999 256 25.9999Z" fill="currentColor"/>
</g>
<defs>
<clipPath id="clip0_17_3336">
<rect width="272" height="32" rx="5" fill="white"/>
</clipPath>
</defs>
</svg>
