<svg width="272" height="32" viewBox="0 0 272 32" fill="none" xmlns="http://www.w3.org/2000/svg">
<g clip-path="url(#clip0_17_3280)">
<path d="M17.9998 6.00007V26.0001C17.9998 26.2653 17.8944 26.5196 17.7069 26.7072C17.5194 26.8947 17.265 27.0001 16.9998 27.0001C16.7346 27.0001 16.4802 26.8947 16.2927 26.7072C16.1051 26.5196 15.9998 26.2653 15.9998 26.0001V7.76632L12.5148 9.85757C12.2874 9.99415 12.015 10.0348 11.7576 9.97057C11.5002 9.90634 11.2789 9.74249 11.1423 9.51507C11.0057 9.28764 10.965 9.01528 11.0293 8.75788C11.0935 8.50049 11.2574 8.27915 11.4848 8.14257L16.4848 5.14257C16.6365 5.05139 16.8098 5.00214 16.9868 4.99984C17.1638 4.99754 17.3383 5.04228 17.4924 5.12949C17.6464 5.21669 17.7746 5.34324 17.8637 5.49619C17.9529 5.64915 17.9998 5.82303 17.9998 6.00007Z" fill="currentColor"/>
<path d="M65.5001 5.99991V25.9999C65.5001 26.1325 65.4475 26.2597 65.3537 26.3535C65.2599 26.4472 65.1327 26.4999 65.0001 26.4999C64.8675 26.4999 64.7403 26.4472 64.6466 26.3535C64.5528 26.2597 64.5001 26.1325 64.5001 25.9999V6.88241L60.2576 9.42866C60.2013 9.46248 60.1389 9.48487 60.074 9.49457C60.009 9.50426 59.9428 9.50107 59.879 9.48516C59.7503 9.45305 59.6397 9.37112 59.5714 9.25741C59.5031 9.1437 59.4828 9.00752 59.5149 8.87882C59.547 8.75012 59.6289 8.63945 59.7426 8.57116L64.7426 5.57116C64.8185 5.52557 64.9051 5.50095 64.9936 5.4998C65.0822 5.49865 65.1694 5.52102 65.2464 5.56462C65.3235 5.60822 65.3875 5.6715 65.4321 5.74797C65.4767 5.82445 65.5002 5.91139 65.5001 5.99991Z" fill="currentColor"/>
<path d="M113.75 5.99988V25.9999C113.75 26.1988 113.671 26.3896 113.531 26.5302C113.39 26.6709 113.199 26.7499 113 26.7499C112.801 26.7499 112.611 26.6709 112.47 26.5302C112.329 26.3896 112.25 26.1988 112.25 25.9999V7.32488L108.386 9.64238C108.216 9.74482 108.012 9.77531 107.819 9.72713C107.626 9.67896 107.46 9.55607 107.357 9.38551C107.255 9.21494 107.224 9.01066 107.272 8.81762C107.32 8.62457 107.443 8.45857 107.614 8.35613L112.614 5.35613C112.728 5.28772 112.858 5.25078 112.991 5.24908C113.123 5.24739 113.254 5.281 113.37 5.34648C113.485 5.41195 113.582 5.50695 113.648 5.62176C113.715 5.73656 113.75 5.86705 113.75 5.99988Z" fill="currentColor"/>
<path d="M162.5 5.99996V26C162.5 26.3978 162.342 26.7793 162.061 27.0606C161.78 27.3419 161.398 27.5 161 27.5C160.602 27.5 160.221 27.3419 159.94 27.0606C159.658 26.7793 159.5 26.3978 159.5 26V8.64871L156.771 10.2862C156.431 10.4823 156.027 10.5367 155.646 10.4378C155.266 10.3389 154.939 10.0946 154.737 9.7574C154.535 9.42023 154.473 9.01718 154.565 8.63496C154.657 8.25275 154.895 7.92194 155.229 7.71371L160.229 4.71371C160.457 4.57726 160.716 4.50364 160.982 4.50036C161.247 4.49708 161.508 4.56425 161.739 4.69502C161.97 4.82579 162.162 5.01548 162.296 5.24473C162.43 5.47398 162.5 5.73459 162.5 5.99996Z" fill="currentColor"/>
<path d="M217 3H199C198.47 3 197.961 3.21071 197.586 3.58579C197.211 3.96086 197 4.46957 197 5V27C197 27.5304 197.211 28.0391 197.586 28.4142C197.961 28.7893 198.47 29 199 29H217C217.53 29 218.039 28.7893 218.414 28.4142C218.789 28.0391 219 27.5304 219 27V5C219 4.46957 218.789 3.96086 218.414 3.58579C218.039 3.21071 217.53 3 217 3ZM210 23C210 23.2652 209.895 23.5196 209.707 23.7071C209.52 23.8946 209.265 24 209 24C208.735 24 208.48 23.8946 208.293 23.7071C208.105 23.5196 208 23.2652 208 23V10.6175L205.448 11.895C205.33 11.9538 205.202 11.9888 205.071 11.9981C204.94 12.0074 204.808 11.9908 204.684 11.9493C204.559 11.9077 204.444 11.842 204.344 11.7559C204.245 11.6698 204.164 11.565 204.105 11.4475C204.046 11.33 204.011 11.202 204.002 11.0709C203.993 10.9399 204.009 10.8082 204.051 10.6836C204.092 10.5589 204.158 10.4436 204.244 10.3444C204.33 10.2451 204.435 10.1638 204.552 10.105L208.552 8.105C208.705 8.02868 208.875 7.99264 209.045 8.00029C209.215 8.00795 209.381 8.05905 209.526 8.14874C209.671 8.23843 209.791 8.36372 209.874 8.51272C209.957 8.66171 210 8.82946 210 9V23Z" fill="currentColor"/>
<path opacity="0.2" d="M267 5V27C267 27.5304 266.789 28.0391 266.414 28.4142C266.039 28.7893 265.53 29 265 29H247C246.47 29 245.961 28.7893 245.586 28.4142C245.211 28.0391 245 27.5304 245 27V5C245 4.46957 245.211 3.96086 245.586 3.58579C245.961 3.21071 246.47 3 247 3H265C265.53 3 266.039 3.21071 266.414 3.58579C266.789 3.96086 267 4.46957 267 5Z" fill="currentColor"/>
<path d="M258 6.00007V26.0001C258 26.2653 257.894 26.5196 257.707 26.7072C257.519 26.8947 257.265 27.0001 257 27.0001C256.735 27.0001 256.48 26.8947 256.293 26.7072C256.105 26.5196 256 26.2653 256 26.0001V7.76632L252.515 9.85757C252.287 9.99415 252.015 10.0348 251.758 9.97057C251.5 9.90634 251.279 9.74249 251.142 9.51507C251.006 9.28764 250.965 9.01528 251.029 8.75788C251.094 8.50049 251.257 8.27915 251.485 8.14257L256.485 5.14257C256.637 5.05139 256.81 5.00214 256.987 4.99984C257.164 4.99754 257.338 5.04228 257.492 5.12949C257.646 5.21669 257.775 5.34324 257.864 5.49619C257.953 5.64915 258 5.82303 258 6.00007Z" fill="currentColor"/>
</g>
<defs>
<clipPath id="clip0_17_3280">
<rect width="272" height="32" rx="5" fill="white"/>
</clipPath>
</defs>
</svg>
