<svg width="272" height="32" viewBox="0 0 272 32" fill="none" xmlns="http://www.w3.org/2000/svg">
<g clip-path="url(#clip0_17_3028)">
<path d="M28 16C28 16.2652 27.8946 16.5196 27.7071 16.7071C27.5196 16.8946 27.2652 17 27 17H17V27C17 27.2652 16.8946 27.5196 16.7071 27.7071C16.5196 27.8946 16.2652 28 16 28C15.7348 28 15.4804 27.8946 15.2929 27.7071C15.1054 27.5196 15 27.2652 15 27V17H5C4.73478 17 4.48043 16.8946 4.29289 16.7071C4.10536 16.5196 4 16.2652 4 16C4 15.7348 4.10536 15.4804 4.29289 15.2929C4.48043 15.1054 4.73478 15 5 15H15V5C15 4.73478 15.1054 4.48043 15.2929 4.29289C15.4804 4.10536 15.7348 4 16 4C16.2652 4 16.5196 4.10536 16.7071 4.29289C16.8946 4.48043 17 4.73478 17 5V15H27C27.2652 15 27.5196 15.1054 27.7071 15.2929C27.8946 15.4804 28 15.7348 28 16Z" fill="currentColor"/>
<path d="M75.5 16C75.5 16.1326 75.4473 16.2598 75.3536 16.3536C75.2598 16.4473 75.1326 16.5 75 16.5H64.5V27C64.5 27.1326 64.4473 27.2598 64.3536 27.3536C64.2598 27.4473 64.1326 27.5 64 27.5C63.8674 27.5 63.7402 27.4473 63.6464 27.3536C63.5527 27.2598 63.5 27.1326 63.5 27V16.5H53C52.8674 16.5 52.7402 16.4473 52.6464 16.3536C52.5527 16.2598 52.5 16.1326 52.5 16C52.5 15.8674 52.5527 15.7402 52.6464 15.6464C52.7402 15.5527 52.8674 15.5 53 15.5H63.5V5C63.5 4.86739 63.5527 4.74021 63.6464 4.64645C63.7402 4.55268 63.8674 4.5 64 4.5C64.1326 4.5 64.2598 4.55268 64.3536 4.64645C64.4473 4.74021 64.5 4.86739 64.5 5V15.5H75C75.1326 15.5 75.2598 15.5527 75.3536 15.6464C75.4473 15.7402 75.5 15.8674 75.5 16Z" fill="currentColor"/>
<path d="M123.75 16C123.75 16.1989 123.671 16.3897 123.53 16.5303C123.39 16.671 123.199 16.75 123 16.75H112.75V27C112.75 27.1989 112.671 27.3897 112.53 27.5303C112.39 27.671 112.199 27.75 112 27.75C111.801 27.75 111.61 27.671 111.47 27.5303C111.329 27.3897 111.25 27.1989 111.25 27V16.75H101C100.801 16.75 100.61 16.671 100.47 16.5303C100.329 16.3897 100.25 16.1989 100.25 16C100.25 15.8011 100.329 15.6103 100.47 15.4697C100.61 15.329 100.801 15.25 101 15.25H111.25V5C111.25 4.80109 111.329 4.61032 111.47 4.46967C111.61 4.32902 111.801 4.25 112 4.25C112.199 4.25 112.39 4.32902 112.53 4.46967C112.671 4.61032 112.75 4.80109 112.75 5V15.25H123C123.199 15.25 123.39 15.329 123.53 15.4697C123.671 15.6103 123.75 15.8011 123.75 16Z" fill="currentColor"/>
<path d="M172.5 16C172.5 16.3978 172.342 16.7794 172.061 17.0607C171.779 17.342 171.398 17.5 171 17.5H161.5V27C161.5 27.3978 161.342 27.7794 161.061 28.0607C160.779 28.342 160.398 28.5 160 28.5C159.602 28.5 159.221 28.342 158.939 28.0607C158.658 27.7794 158.5 27.3978 158.5 27V17.5H149C148.602 17.5 148.221 17.342 147.939 17.0607C147.658 16.7794 147.5 16.3978 147.5 16C147.5 15.6022 147.658 15.2206 147.939 14.9393C148.221 14.658 148.602 14.5 149 14.5H158.5V5C158.5 4.60218 158.658 4.22064 158.939 3.93934C159.221 3.65804 159.602 3.5 160 3.5C160.398 3.5 160.779 3.65804 161.061 3.93934C161.342 4.22064 161.5 4.60218 161.5 5V14.5H171C171.398 14.5 171.779 14.658 172.061 14.9393C172.342 15.2206 172.5 15.6022 172.5 16Z" fill="currentColor"/>
<path d="M218 4H198C197.47 4 196.961 4.21071 196.586 4.58579C196.211 4.96086 196 5.46957 196 6V26C196 26.5304 196.211 27.0391 196.586 27.4142C196.961 27.7893 197.47 28 198 28H218C218.53 28 219.039 27.7893 219.414 27.4142C219.789 27.0391 220 26.5304 220 26V6C220 5.46957 219.789 4.96086 219.414 4.58579C219.039 4.21071 218.53 4 218 4ZM215 17H209V23C209 23.2652 208.895 23.5196 208.707 23.7071C208.52 23.8946 208.265 24 208 24C207.735 24 207.48 23.8946 207.293 23.7071C207.105 23.5196 207 23.2652 207 23V17H201C200.735 17 200.48 16.8946 200.293 16.7071C200.105 16.5196 200 16.2652 200 16C200 15.7348 200.105 15.4804 200.293 15.2929C200.48 15.1054 200.735 15 201 15H207V9C207 8.73478 207.105 8.48043 207.293 8.29289C207.48 8.10536 207.735 8 208 8C208.265 8 208.52 8.10536 208.707 8.29289C208.895 8.48043 209 8.73478 209 9V15H215C215.265 15 215.52 15.1054 215.707 15.2929C215.895 15.4804 216 15.7348 216 16C216 16.2652 215.895 16.5196 215.707 16.7071C215.52 16.8946 215.265 17 215 17Z" fill="currentColor"/>
<path opacity="0.2" d="M267 6V26C267 26.2652 266.895 26.5196 266.707 26.7071C266.52 26.8946 266.265 27 266 27H246C245.735 27 245.48 26.8946 245.293 26.7071C245.105 26.5196 245 26.2652 245 26V6C245 5.73478 245.105 5.48043 245.293 5.29289C245.48 5.10536 245.735 5 246 5H266C266.265 5 266.52 5.10536 266.707 5.29289C266.895 5.48043 267 5.73478 267 6Z" fill="currentColor"/>
<path d="M268 16C268 16.2652 267.895 16.5196 267.707 16.7071C267.52 16.8946 267.265 17 267 17H257V27C257 27.2652 256.895 27.5196 256.707 27.7071C256.52 27.8946 256.265 28 256 28C255.735 28 255.48 27.8946 255.293 27.7071C255.105 27.5196 255 27.2652 255 27V17H245C244.735 17 244.48 16.8946 244.293 16.7071C244.105 16.5196 244 16.2652 244 16C244 15.7348 244.105 15.4804 244.293 15.2929C244.48 15.1054 244.735 15 245 15H255V5C255 4.73478 255.105 4.48043 255.293 4.29289C255.48 4.10536 255.735 4 256 4C256.265 4 256.52 4.10536 256.707 4.29289C256.895 4.48043 257 4.73478 257 5V15H267C267.265 15 267.52 15.1054 267.707 15.2929C267.895 15.4804 268 15.7348 268 16Z" fill="currentColor"/>
</g>
<defs>
<clipPath id="clip0_17_3028">
<rect width="272" height="32" rx="5" fill="white"/>
</clipPath>
</defs>
</svg>
