<svg width="272" height="32" viewBox="0 0 272 32" fill="none" xmlns="http://www.w3.org/2000/svg">
<g clip-path="url(#clip0_17_3000)">
<path d="M25.7075 7.7075L7.7075 25.7075C7.51986 25.8951 7.26536 26.0006 7 26.0006C6.73464 26.0006 6.48014 25.8951 6.2925 25.7075C6.10486 25.5199 5.99944 25.2654 5.99944 25C5.99944 24.7346 6.10486 24.4801 6.2925 24.2925L24.2925 6.2925C24.4801 6.10486 24.7346 5.99944 25 5.99944C25.2654 5.99944 25.5199 6.10486 25.7075 6.2925C25.8951 6.48014 26.0006 6.73464 26.0006 7C26.0006 7.26536 25.8951 7.51986 25.7075 7.7075ZM8 14C8 14.2652 8.10536 14.5196 8.29289 14.7071C8.48043 14.8946 8.73478 15 9 15C9.26522 15 9.51957 14.8946 9.70711 14.7071C9.89464 14.5196 10 14.2652 10 14V10H14C14.2652 10 14.5196 9.89464 14.7071 9.70711C14.8946 9.51957 15 9.26522 15 9C15 8.73478 14.8946 8.48043 14.7071 8.29289C14.5196 8.10536 14.2652 8 14 8H10V4C10 3.73478 9.89464 3.48043 9.70711 3.29289C9.51957 3.10536 9.26522 3 9 3C8.73478 3 8.48043 3.10536 8.29289 3.29289C8.10536 3.48043 8 3.73478 8 4V8H4C3.73478 8 3.48043 8.10536 3.29289 8.29289C3.10536 8.48043 3 8.73478 3 9C3 9.26522 3.10536 9.51957 3.29289 9.70711C3.48043 9.89464 3.73478 10 4 10H8V14ZM28 22H18C17.7348 22 17.4804 22.1054 17.2929 22.2929C17.1054 22.4804 17 22.7348 17 23C17 23.2652 17.1054 23.5196 17.2929 23.7071C17.4804 23.8946 17.7348 24 18 24H28C28.2652 24 28.5196 23.8946 28.7071 23.7071C28.8946 23.5196 29 23.2652 29 23C29 22.7348 28.8946 22.4804 28.7071 22.2929C28.5196 22.1054 28.2652 22 28 22Z" fill="currentColor"/>
<path d="M73.3538 7.35375L55.3538 25.3538C55.2599 25.4476 55.1327 25.5003 55 25.5003C54.8673 25.5003 54.7401 25.4476 54.6463 25.3538C54.5524 25.2599 54.4997 25.1327 54.4997 25C54.4997 24.8673 54.5524 24.7401 54.6462 24.6462L72.6462 6.64625C72.6927 6.59979 72.7479 6.56294 72.8086 6.5378C72.8692 6.51266 72.9343 6.49972 73 6.49972C73.0657 6.49972 73.1308 6.51266 73.1914 6.5378C73.2521 6.56294 73.3073 6.59979 73.3538 6.64625C73.4002 6.6927 73.4371 6.74786 73.4622 6.80855C73.4873 6.86925 73.5003 6.9343 73.5003 7C73.5003 7.0657 73.4873 7.13075 73.4622 7.19145C73.4371 7.25214 73.4002 7.3073 73.3538 7.35375ZM56.5 14C56.5 14.1326 56.5527 14.2598 56.6464 14.3536C56.7402 14.4473 56.8674 14.5 57 14.5C57.1326 14.5 57.2598 14.4473 57.3536 14.3536C57.4473 14.2598 57.5 14.1326 57.5 14V9.5H62C62.1326 9.5 62.2598 9.44732 62.3536 9.35355C62.4473 9.25979 62.5 9.13261 62.5 9C62.5 8.86739 62.4473 8.74021 62.3536 8.64645C62.2598 8.55268 62.1326 8.5 62 8.5H57.5V4C57.5 3.86739 57.4473 3.74021 57.3536 3.64645C57.2598 3.55268 57.1326 3.5 57 3.5C56.8674 3.5 56.7402 3.55268 56.6464 3.64645C56.5527 3.74021 56.5 3.86739 56.5 4V8.5H52C51.8674 8.5 51.7402 8.55268 51.6464 8.64645C51.5527 8.74021 51.5 8.86739 51.5 9C51.5 9.13261 51.5527 9.25979 51.6464 9.35355C51.7402 9.44732 51.8674 9.5 52 9.5H56.5V14ZM76 22.5H66C65.8674 22.5 65.7402 22.5527 65.6464 22.6464C65.5527 22.7402 65.5 22.8674 65.5 23C65.5 23.1326 65.5527 23.2598 65.6464 23.3536C65.7402 23.4473 65.8674 23.5 66 23.5H76C76.1326 23.5 76.2598 23.4473 76.3536 23.3536C76.4473 23.2598 76.5 23.1326 76.5 23C76.5 22.8674 76.4473 22.7402 76.3536 22.6464C76.2598 22.5527 76.1326 22.5 76 22.5Z" fill="currentColor"/>
<path d="M121.53 7.53L103.53 25.53C103.388 25.6625 103.2 25.7346 103.005 25.7312C102.811 25.7277 102.626 25.649 102.488 25.5116C102.351 25.3742 102.272 25.1888 102.269 24.9945C102.265 24.8002 102.338 24.6122 102.47 24.47L120.47 6.47C120.612 6.33752 120.8 6.2654 120.995 6.26883C121.189 6.27225 121.374 6.35097 121.512 6.48838C121.649 6.62579 121.728 6.81118 121.731 7.00548C121.735 7.19978 121.662 7.38783 121.53 7.53ZM104.25 14C104.25 14.1989 104.329 14.3897 104.47 14.5303C104.61 14.671 104.801 14.75 105 14.75C105.199 14.75 105.39 14.671 105.53 14.5303C105.671 14.3897 105.75 14.1989 105.75 14V9.75H110C110.199 9.75 110.39 9.67098 110.53 9.53033C110.671 9.38968 110.75 9.19891 110.75 9C110.75 8.80109 110.671 8.61032 110.53 8.46967C110.39 8.32902 110.199 8.25 110 8.25H105.75V4C105.75 3.80109 105.671 3.61032 105.53 3.46967C105.39 3.32902 105.199 3.25 105 3.25C104.801 3.25 104.61 3.32902 104.47 3.46967C104.329 3.61032 104.25 3.80109 104.25 4V8.25H100C99.8011 8.25 99.6103 8.32902 99.4697 8.46967C99.329 8.61032 99.25 8.80109 99.25 9C99.25 9.19891 99.329 9.38968 99.4697 9.53033C99.6103 9.67098 99.8011 9.75 100 9.75H104.25V14ZM124 22.25H114C113.801 22.25 113.61 22.329 113.47 22.4697C113.329 22.6103 113.25 22.8011 113.25 23C113.25 23.1989 113.329 23.3897 113.47 23.5303C113.61 23.671 113.801 23.75 114 23.75H124C124.199 23.75 124.39 23.671 124.53 23.5303C124.671 23.3897 124.75 23.1989 124.75 23C124.75 22.8011 124.671 22.6103 124.53 22.4697C124.39 22.329 124.199 22.25 124 22.25Z" fill="currentColor"/>
<path d="M170.061 8.06125L152.061 26.0613C151.779 26.343 151.397 26.5014 150.999 26.5014C150.6 26.5014 150.218 26.343 149.936 26.0613C149.654 25.7795 149.496 25.3973 149.496 24.9988C149.496 24.6002 149.654 24.218 149.936 23.9363L167.936 5.93625C168.218 5.65446 168.6 5.49615 168.999 5.49615C169.397 5.49615 169.779 5.65446 170.061 5.93625C170.343 6.21804 170.501 6.60024 170.501 6.99875C170.501 7.39726 170.343 7.77946 170.061 8.06125ZM151.5 14C151.5 14.3978 151.658 14.7794 151.939 15.0607C152.221 15.342 152.602 15.5 153 15.5C153.398 15.5 153.779 15.342 154.061 15.0607C154.342 14.7794 154.5 14.3978 154.5 14V10.5H158C158.398 10.5 158.779 10.342 159.061 10.0607C159.342 9.77936 159.5 9.39782 159.5 9C159.5 8.60218 159.342 8.22064 159.061 7.93934C158.779 7.65804 158.398 7.5 158 7.5H154.5V4C154.5 3.60218 154.342 3.22064 154.061 2.93934C153.779 2.65804 153.398 2.5 153 2.5C152.602 2.5 152.221 2.65804 151.939 2.93934C151.658 3.22064 151.5 3.60218 151.5 4V7.5H148C147.602 7.5 147.221 7.65804 146.939 7.93934C146.658 8.22064 146.5 8.60218 146.5 9C146.5 9.39782 146.658 9.77936 146.939 10.0607C147.221 10.342 147.602 10.5 148 10.5H151.5V14ZM172 21.5H162C161.602 21.5 161.221 21.658 160.939 21.9393C160.658 22.2206 160.5 22.6022 160.5 23C160.5 23.3978 160.658 23.7794 160.939 24.0607C161.221 24.342 161.602 24.5 162 24.5H172C172.398 24.5 172.779 24.342 173.061 24.0607C173.342 23.7794 173.5 23.3978 173.5 23C173.5 22.6022 173.342 22.2206 173.061 21.9393C172.779 21.658 172.398 21.5 172 21.5Z" fill="currentColor"/>
<path d="M218 4H198C197.47 4 196.961 4.21071 196.586 4.58579C196.211 4.96086 196 5.46957 196 6V26C196 26.5304 196.211 27.0391 196.586 27.4142C196.961 27.7893 197.47 28 198 28H218C218.53 28 219.039 27.7893 219.414 27.4142C219.789 27.0391 220 26.5304 220 26V6C220 5.46957 219.789 4.96086 219.414 4.58579C219.039 4.21071 218.53 4 218 4ZM199 12C199 11.7348 199.105 11.4804 199.293 11.2929C199.48 11.1054 199.735 11 200 11H202V9C202 8.73478 202.105 8.48043 202.293 8.29289C202.48 8.10536 202.735 8 203 8C203.265 8 203.52 8.10536 203.707 8.29289C203.895 8.48043 204 8.73478 204 9V11H206C206.265 11 206.52 11.1054 206.707 11.2929C206.895 11.4804 207 11.7348 207 12C207 12.2652 206.895 12.5196 206.707 12.7071C206.52 12.8946 206.265 13 206 13H204V15C204 15.2652 203.895 15.5196 203.707 15.7071C203.52 15.8946 203.265 16 203 16C202.735 16 202.48 15.8946 202.293 15.7071C202.105 15.5196 202 15.2652 202 15V13H200C199.735 13 199.48 12.8946 199.293 12.7071C199.105 12.5196 199 12.2652 199 12ZM202 24C201.802 24.0002 201.609 23.9416 201.444 23.8317C201.279 23.7218 201.151 23.5656 201.075 23.3828C201 23.2 200.98 22.9988 201.018 22.8047C201.057 22.6106 201.152 22.4324 201.292 22.2925L213.292 10.2925C213.385 10.1996 213.496 10.1259 213.617 10.0756C213.738 10.0253 213.869 9.99944 214 9.99944C214.131 9.99944 214.262 10.0253 214.383 10.0756C214.504 10.1259 214.615 10.1996 214.708 10.2925C214.8 10.3854 214.874 10.4957 214.924 10.6171C214.975 10.7385 215.001 10.8686 215.001 11C215.001 11.1314 214.975 11.2615 214.924 11.3829C214.874 11.5043 214.8 11.6146 214.708 11.7075L202.708 23.7075C202.615 23.8003 202.504 23.8739 202.383 23.9241C202.261 23.9743 202.131 24.0001 202 24ZM216 23H210C209.735 23 209.48 22.8946 209.293 22.7071C209.105 22.5196 209 22.2652 209 22C209 21.7348 209.105 21.4804 209.293 21.2929C209.48 21.1054 209.735 21 210 21H216C216.265 21 216.52 21.1054 216.707 21.2929C216.895 21.4804 217 21.7348 217 22C217 22.2652 216.895 22.5196 216.707 22.7071C216.52 22.8946 216.265 23 216 23Z" fill="currentColor"/>
<path opacity="0.2" d="M267 6V26C267 26.2652 266.895 26.5196 266.707 26.7071C266.52 26.8946 266.265 27 266 27H246C245.735 27 245.48 26.8946 245.293 26.7071C245.105 26.5196 245 26.2652 245 26V6C245 5.73478 245.105 5.48043 245.293 5.29289C245.48 5.10536 245.735 5 246 5H266C266.265 5 266.52 5.10536 266.707 5.29289C266.895 5.48043 267 5.73478 267 6Z" fill="currentColor"/>
<path d="M265.708 7.7075L247.707 25.7075C247.52 25.8951 247.265 26.0006 247 26.0006C246.735 26.0006 246.48 25.8951 246.293 25.7075C246.105 25.5199 245.999 25.2654 245.999 25C245.999 24.7346 246.105 24.4801 246.293 24.2925L264.292 6.2925C264.48 6.10486 264.735 5.99944 265 5.99944C265.265 5.99944 265.52 6.10486 265.708 6.2925C265.895 6.48014 266.001 6.73464 266.001 7C266.001 7.26536 265.895 7.51986 265.708 7.7075ZM248 14C248 14.2652 248.105 14.5196 248.293 14.7071C248.48 14.8946 248.735 15 249 15C249.265 15 249.52 14.8946 249.707 14.7071C249.895 14.5196 250 14.2652 250 14V10H254C254.265 10 254.52 9.89464 254.707 9.70711C254.895 9.51957 255 9.26522 255 9C255 8.73478 254.895 8.48043 254.707 8.29289C254.52 8.10536 254.265 8 254 8H250V4C250 3.73478 249.895 3.48043 249.707 3.29289C249.52 3.10536 249.265 3 249 3C248.735 3 248.48 3.10536 248.293 3.29289C248.105 3.48043 248 3.73478 248 4V8H244C243.735 8 243.48 8.10536 243.293 8.29289C243.105 8.48043 243 8.73478 243 9C243 9.26522 243.105 9.51957 243.293 9.70711C243.48 9.89464 243.735 10 244 10H248V14ZM268 22H258C257.735 22 257.48 22.1054 257.293 22.2929C257.105 22.4804 257 22.7348 257 23C257 23.2652 257.105 23.5196 257.293 23.7071C257.48 23.8946 257.735 24 258 24H268C268.265 24 268.52 23.8946 268.707 23.7071C268.895 23.5196 269 23.2652 269 23C269 22.7348 268.895 22.4804 268.707 22.2929C268.52 22.1054 268.265 22 268 22Z" fill="currentColor"/>
</g>
<defs>
<clipPath id="clip0_17_3000">
<rect width="272" height="32" rx="5" fill="white"/>
</clipPath>
</defs>
</svg>
