<svg width="272" height="32" viewBox="0 0 272 32" fill="none" xmlns="http://www.w3.org/2000/svg">
<g clip-path="url(#clip0_17_2902)">
<path d="M25.7076 24.2926C25.8005 24.3855 25.8742 24.4958 25.9245 24.6172C25.9747 24.7386 26.0006 24.8687 26.0006 25.0001C26.0006 25.1315 25.9747 25.2616 25.9245 25.383C25.8742 25.5044 25.8005 25.6147 25.7076 25.7076C25.6147 25.8005 25.5044 25.8742 25.383 25.9245C25.2616 25.9747 25.1315 26.0006 25.0001 26.0006C24.8687 26.0006 24.7386 25.9747 24.6172 25.9245C24.4958 25.8742 24.3855 25.8005 24.2926 25.7076L16.0001 17.4138L7.70757 25.7076C7.51993 25.8952 7.26543 26.0006 7.00007 26.0006C6.7347 26.0006 6.48021 25.8952 6.29257 25.7076C6.10493 25.5199 5.99951 25.2654 5.99951 25.0001C5.99951 24.7347 6.10493 24.4802 6.29257 24.2926L14.5863 16.0001L6.29257 7.70757C6.10493 7.51993 5.99951 7.26543 5.99951 7.00007C5.99951 6.7347 6.10493 6.48021 6.29257 6.29257C6.48021 6.10493 6.7347 5.99951 7.00007 5.99951C7.26543 5.99951 7.51993 6.10493 7.70757 6.29257L16.0001 14.5863L24.2926 6.29257C24.4802 6.10493 24.7347 5.99951 25.0001 5.99951C25.2654 5.99951 25.5199 6.10493 25.7076 6.29257C25.8952 6.48021 26.0006 6.7347 26.0006 7.00007C26.0006 7.26543 25.8952 7.51993 25.7076 7.70757L17.4138 16.0001L25.7076 24.2926Z" fill="currentColor"/>
<path d="M73.3535 24.6463C73.4474 24.7401 73.5001 24.8674 73.5001 25C73.5001 25.1327 73.4474 25.26 73.3535 25.3538C73.2597 25.4476 73.1325 25.5003 72.9998 25.5003C72.8671 25.5003 72.7399 25.4476 72.646 25.3538L63.9998 16.7075L55.3535 25.3538C55.2597 25.4476 55.1325 25.5003 54.9998 25.5003C54.8671 25.5003 54.7399 25.4476 54.646 25.3538C54.5522 25.26 54.4995 25.1327 54.4995 25C54.4995 24.8674 54.5522 24.7401 54.646 24.6463L63.2923 16L54.646 7.35378C54.5522 7.25996 54.4995 7.13272 54.4995 7.00003C54.4995 6.86735 54.5522 6.7401 54.646 6.64628C54.7399 6.55246 54.8671 6.49976 54.9998 6.49976C55.1325 6.49976 55.2597 6.55246 55.3535 6.64628L63.9998 15.2925L72.646 6.64628C72.6925 6.59983 72.7476 6.56298 72.8083 6.53784C72.869 6.5127 72.9341 6.49976 72.9998 6.49976C73.0655 6.49976 73.1305 6.5127 73.1912 6.53784C73.2519 6.56298 73.3071 6.59983 73.3535 6.64628C73.4 6.69274 73.4368 6.74789 73.462 6.80859C73.4871 6.86928 73.5001 6.93434 73.5001 7.00003C73.5001 7.06573 73.4871 7.13079 73.462 7.19148C73.4368 7.25218 73.4 7.30733 73.3535 7.35378L64.7073 16L73.3535 24.6463Z" fill="currentColor"/>
<path d="M121.53 24.4701C121.604 24.5388 121.663 24.6216 121.704 24.7136C121.745 24.8056 121.767 24.9049 121.768 25.0056C121.77 25.1063 121.752 25.2063 121.714 25.2997C121.676 25.3931 121.62 25.4779 121.549 25.5491C121.478 25.6203 121.393 25.6765 121.299 25.7142C121.206 25.7519 121.106 25.7705 121.005 25.7687C120.905 25.7669 120.805 25.7449 120.713 25.7039C120.621 25.6629 120.539 25.6038 120.47 25.5301L112 17.0613L103.53 25.5301C103.388 25.6626 103.2 25.7347 103.005 25.7313C102.811 25.7278 102.626 25.6491 102.488 25.5117C102.351 25.3743 102.272 25.1889 102.269 24.9946C102.265 24.8003 102.337 24.6123 102.47 24.4701L110.939 16.0001L102.47 7.53009C102.337 7.38792 102.265 7.19987 102.269 7.00557C102.272 6.81127 102.351 6.62588 102.488 6.48847C102.626 6.35106 102.811 6.27234 103.005 6.26892C103.2 6.26549 103.388 6.33761 103.53 6.47009L112 14.9388L120.47 6.47009C120.612 6.33761 120.8 6.26549 120.994 6.26892C121.189 6.27234 121.374 6.35106 121.511 6.48847C121.649 6.62588 121.728 6.81127 121.731 7.00557C121.734 7.19987 121.662 7.38792 121.53 7.53009L113.061 16.0001L121.53 24.4701Z" fill="currentColor"/>
<path d="M170.061 23.9387C170.343 24.2205 170.501 24.6027 170.501 25.0012C170.501 25.3997 170.343 25.7819 170.061 26.0637C169.779 26.3455 169.397 26.5038 168.999 26.5038C168.6 26.5038 168.218 26.3455 167.936 26.0637L160 18.125L152.061 26.0612C151.779 26.343 151.397 26.5013 150.999 26.5013C150.6 26.5013 150.218 26.343 149.936 26.0612C149.654 25.7794 149.496 25.3972 149.496 24.9987C149.496 24.6002 149.654 24.218 149.936 23.9362L157.875 16L149.939 8.06122C149.657 7.77943 149.499 7.39724 149.499 6.99872C149.499 6.60021 149.657 6.21802 149.939 5.93622C150.22 5.65443 150.603 5.49612 151.001 5.49612C151.4 5.49612 151.782 5.65443 152.064 5.93622L160 13.875L167.939 5.93497C168.22 5.65318 168.603 5.49487 169.001 5.49487C169.4 5.49487 169.782 5.65318 170.064 5.93497C170.345 6.21677 170.504 6.59896 170.504 6.99747C170.504 7.39599 170.345 7.77818 170.064 8.05998L162.125 16L170.061 23.9387Z" fill="currentColor"/>
<path d="M218 4H198C197.47 4 196.961 4.21071 196.586 4.58579C196.211 4.96086 196 5.46957 196 6V26C196 26.5304 196.211 27.0391 196.586 27.4142C196.961 27.7893 197.47 28 198 28H218C218.53 28 219.039 27.7893 219.414 27.4142C219.789 27.0391 220 26.5304 220 26V6C220 5.46957 219.789 4.96086 219.414 4.58579C219.039 4.21071 218.53 4 218 4ZM214.708 21.2925C214.8 21.3854 214.874 21.4957 214.924 21.6171C214.975 21.7385 215.001 21.8686 215.001 22C215.001 22.1314 214.975 22.2615 214.924 22.3829C214.874 22.5043 214.8 22.6146 214.708 22.7075C214.615 22.8004 214.504 22.8741 214.383 22.9244C214.262 22.9747 214.131 23.0006 214 23.0006C213.869 23.0006 213.738 22.9747 213.617 22.9244C213.496 22.8741 213.385 22.8004 213.292 22.7075L208 17.4137L202.708 22.7075C202.52 22.8951 202.265 23.0006 202 23.0006C201.735 23.0006 201.48 22.8951 201.292 22.7075C201.105 22.5199 200.999 22.2654 200.999 22C200.999 21.7346 201.105 21.4801 201.292 21.2925L206.586 16L201.292 10.7075C201.105 10.5199 200.999 10.2654 200.999 10C200.999 9.73464 201.105 9.48014 201.293 9.2925C201.48 9.10486 201.735 8.99944 202 8.99944C202.265 8.99944 202.52 9.10486 202.708 9.2925L208 14.5863L213.292 9.2925C213.48 9.10486 213.735 8.99944 214 8.99944C214.265 8.99944 214.52 9.10486 214.708 9.2925C214.895 9.48014 215.001 9.73464 215.001 10C215.001 10.2654 214.895 10.5199 214.708 10.7075L209.414 16L214.708 21.2925Z" fill="currentColor"/>
<path opacity="0.2" d="M267 6V26C267 26.2652 266.895 26.5196 266.707 26.7071C266.52 26.8946 266.265 27 266 27H246C245.735 27 245.48 26.8946 245.293 26.7071C245.105 26.5196 245 26.2652 245 26V6C245 5.73478 245.105 5.48043 245.293 5.29289C245.48 5.10536 245.735 5 246 5H266C266.265 5 266.52 5.10536 266.707 5.29289C266.895 5.48043 267 5.73478 267 6Z" fill="currentColor"/>
<path d="M265.708 24.2926C265.8 24.3855 265.874 24.4958 265.924 24.6172C265.975 24.7386 266.001 24.8687 266.001 25.0001C266.001 25.1315 265.975 25.2616 265.924 25.383C265.874 25.5044 265.8 25.6147 265.708 25.7076C265.615 25.8005 265.504 25.8742 265.383 25.9245C265.262 25.9747 265.131 26.0006 265 26.0006C264.869 26.0006 264.739 25.9747 264.617 25.9245C264.496 25.8742 264.385 25.8005 264.293 25.7076L256 17.4138L247.708 25.7076C247.52 25.8952 247.265 26.0006 247 26.0006C246.735 26.0006 246.48 25.8952 246.293 25.7076C246.105 25.5199 246 25.2654 246 25.0001C246 24.7347 246.105 24.4802 246.293 24.2926L254.586 16.0001L246.293 7.70757C246.105 7.51993 246 7.26543 246 7.00007C246 6.7347 246.105 6.48021 246.293 6.29257C246.48 6.10493 246.735 5.99951 247 5.99951C247.265 5.99951 247.52 6.10493 247.708 6.29257L256 14.5863L264.293 6.29257C264.48 6.10493 264.735 5.99951 265 5.99951C265.265 5.99951 265.52 6.10493 265.708 6.29257C265.895 6.48021 266.001 6.7347 266.001 7.00007C266.001 7.26543 265.895 7.51993 265.708 7.70757L257.414 16.0001L265.708 24.2926Z" fill="currentColor"/>
</g>
<defs>
<clipPath id="clip0_17_2902">
<rect width="272" height="32" rx="5" fill="white"/>
</clipPath>
</defs>
</svg>
