<svg width="272" height="32" viewBox="0 0 272 32" fill="none" xmlns="http://www.w3.org/2000/svg">
<g clip-path="url(#clip0_17_15879)">
<path d="M26 4H23V3C23 2.73478 22.8946 2.48043 22.7071 2.29289C22.5196 2.10536 22.2652 2 22 2C21.7348 2 21.4804 2.10536 21.2929 2.29289C21.1054 2.48043 21 2.73478 21 3V4H11V3C11 2.73478 10.8946 2.48043 10.7071 2.29289C10.5196 2.10536 10.2652 2 10 2C9.73478 2 9.48043 2.10536 9.29289 2.29289C9.10536 2.48043 9 2.73478 9 3V4H6C5.46957 4 4.96086 4.21071 4.58579 4.58579C4.21071 4.96086 4 5.46957 4 6V26C4 26.5304 4.21071 27.0391 4.58579 27.4142C4.96086 27.7893 5.46957 28 6 28H26C26.5304 28 27.0391 27.7893 27.4142 27.4142C27.7893 27.0391 28 26.5304 28 26V6C28 5.46957 27.7893 4.96086 27.4142 4.58579C27.0391 4.21071 26.5304 4 26 4ZM9 6V7C9 7.26522 9.10536 7.51957 9.29289 7.70711C9.48043 7.89464 9.73478 8 10 8C10.2652 8 10.5196 7.89464 10.7071 7.70711C10.8946 7.51957 11 7.26522 11 7V6H21V7C21 7.26522 21.1054 7.51957 21.2929 7.70711C21.4804 7.89464 21.7348 8 22 8C22.2652 8 22.5196 7.89464 22.7071 7.70711C22.8946 7.51957 23 7.26522 23 7V6H26V10H6V6H9ZM26 26H6V12H26V26ZM14 15V23C14 23.2652 13.8946 23.5196 13.7071 23.7071C13.5196 23.8946 13.2652 24 13 24C12.7348 24 12.4804 23.8946 12.2929 23.7071C12.1054 23.5196 12 23.2652 12 23V16.6175L11.4475 16.895C11.2101 17.0137 10.9353 17.0332 10.6836 16.9493C10.4318 16.8654 10.2237 16.6849 10.105 16.4475C9.98632 16.2101 9.96679 15.9353 10.0507 15.6836C10.1346 15.4318 10.3151 15.2237 10.5525 15.105L12.5525 14.105C12.705 14.0287 12.8745 13.9926 13.0449 14.0003C13.2153 14.0079 13.3808 14.059 13.5259 14.1487C13.671 14.2384 13.7907 14.3637 13.8736 14.5127C13.9566 14.6617 14.0001 14.8295 14 15ZM21.395 18.8062L19 22H21C21.2652 22 21.5196 22.1054 21.7071 22.2929C21.8946 22.4804 22 22.7348 22 23C22 23.2652 21.8946 23.5196 21.7071 23.7071C21.5196 23.8946 21.2652 24 21 24H17C16.8143 24 16.6322 23.9483 16.4743 23.8507C16.3163 23.753 16.1886 23.6133 16.1056 23.4472C16.0225 23.2811 15.9874 23.0952 16.004 22.9102C16.0207 22.7252 16.0886 22.5486 16.2 22.4L19.7975 17.6038C19.8793 17.4948 19.938 17.3703 19.97 17.2379C20.002 17.1054 20.0066 16.9678 19.9835 16.8336C19.9604 16.6993 19.9101 16.5712 19.8357 16.457C19.7612 16.3429 19.6643 16.2452 19.5508 16.1699C19.4372 16.0945 19.3095 16.0432 19.1754 16.019C19.0413 15.9949 18.9037 15.9983 18.771 16.0292C18.6383 16.0602 18.5134 16.1179 18.4038 16.1988C18.2942 16.2798 18.2023 16.3823 18.1338 16.5C18.07 16.6174 17.9834 16.7208 17.8791 16.8041C17.7748 16.8875 17.6548 16.9491 17.5263 16.9853C17.3977 17.0215 17.2633 17.0316 17.1308 17.0151C16.9983 16.9985 16.8704 16.9555 16.7548 16.8887C16.6391 16.8219 16.5381 16.7327 16.4575 16.6262C16.3769 16.5197 16.3185 16.3981 16.2857 16.2687C16.2528 16.1392 16.2462 16.0045 16.2663 15.8725C16.2864 15.7405 16.3327 15.6138 16.4025 15.5C16.7328 14.9284 17.2425 14.4817 17.8525 14.2291C18.4625 13.9766 19.1388 13.9323 19.7765 14.1032C20.4142 14.2741 20.9778 14.6506 21.3798 15.1743C21.7818 15.6981 21.9998 16.3398 22 17C22.0021 17.6522 21.7895 18.2869 21.395 18.8062Z" fill="currentColor"/>
<path d="M74 4.5H70.5V3C70.5 2.86739 70.4473 2.74021 70.3536 2.64645C70.2598 2.55268 70.1326 2.5 70 2.5C69.8674 2.5 69.7402 2.55268 69.6464 2.64645C69.5527 2.74021 69.5 2.86739 69.5 3V4.5H58.5V3C58.5 2.86739 58.4473 2.74021 58.3536 2.64645C58.2598 2.55268 58.1326 2.5 58 2.5C57.8674 2.5 57.7402 2.55268 57.6464 2.64645C57.5527 2.74021 57.5 2.86739 57.5 3V4.5H54C53.6022 4.5 53.2206 4.65804 52.9393 4.93934C52.658 5.22064 52.5 5.60218 52.5 6V26C52.5 26.3978 52.658 26.7794 52.9393 27.0607C53.2206 27.342 53.6022 27.5 54 27.5H74C74.3978 27.5 74.7794 27.342 75.0607 27.0607C75.342 26.7794 75.5 26.3978 75.5 26V6C75.5 5.60218 75.342 5.22064 75.0607 4.93934C74.7794 4.65804 74.3978 4.5 74 4.5ZM54 5.5H57.5V7C57.5 7.13261 57.5527 7.25979 57.6464 7.35355C57.7402 7.44732 57.8674 7.5 58 7.5C58.1326 7.5 58.2598 7.44732 58.3536 7.35355C58.4473 7.25979 58.5 7.13261 58.5 7V5.5H69.5V7C69.5 7.13261 69.5527 7.25979 69.6464 7.35355C69.7402 7.44732 69.8674 7.5 70 7.5C70.1326 7.5 70.2598 7.44732 70.3536 7.35355C70.4473 7.25979 70.5 7.13261 70.5 7V5.5H74C74.1326 5.5 74.2598 5.55268 74.3536 5.64645C74.4473 5.74021 74.5 5.86739 74.5 6V10.5H53.5V6C53.5 5.86739 53.5527 5.74021 53.6464 5.64645C53.7402 5.55268 53.8674 5.5 54 5.5ZM74 26.5H54C53.8674 26.5 53.7402 26.4473 53.6464 26.3536C53.5527 26.2598 53.5 26.1326 53.5 26V11.5H74.5V26C74.5 26.1326 74.4473 26.2598 74.3536 26.3536C74.2598 26.4473 74.1326 26.5 74 26.5ZM61.5 15V23C61.5 23.1326 61.4473 23.2598 61.3536 23.3536C61.2598 23.4473 61.1326 23.5 61 23.5C60.8674 23.5 60.7402 23.4473 60.6464 23.3536C60.5527 23.2598 60.5 23.1326 60.5 23V15.8088L59.2238 16.4475C59.1051 16.5068 58.9677 16.5166 58.8418 16.4746C58.7159 16.4327 58.6118 16.3424 58.5525 16.2237C58.4932 16.1051 58.4834 15.9677 58.5254 15.8418C58.5673 15.7159 58.6576 15.6118 58.7762 15.5525L60.7762 14.5525C60.8525 14.5143 60.9373 14.4963 61.0224 14.5001C61.1076 14.504 61.1904 14.5295 61.2629 14.5744C61.3355 14.6192 61.3953 14.6819 61.4368 14.7564C61.4783 14.8309 61.5001 14.9147 61.5 15ZM69 18.5L66 22.5H69C69.1326 22.5 69.2598 22.5527 69.3536 22.6464C69.4473 22.7402 69.5 22.8674 69.5 23C69.5 23.1326 69.4473 23.2598 69.3536 23.3536C69.2598 23.4473 69.1326 23.5 69 23.5H65C64.9071 23.5 64.8161 23.4741 64.7371 23.4253C64.6581 23.3765 64.5943 23.3067 64.5528 23.2236C64.5113 23.1406 64.4937 23.0476 64.502 22.9551C64.5104 22.8626 64.5443 22.7743 64.6 22.7L68.1975 17.9037C68.3949 17.6439 68.5012 17.3263 68.5 17C68.5004 16.6695 68.3916 16.3481 68.1905 16.0858C67.9894 15.8235 67.7074 15.6349 67.3881 15.5494C67.0689 15.4639 66.7303 15.4862 66.425 15.6129C66.1198 15.7396 65.8649 15.9636 65.7 16.25C65.6308 16.3588 65.5223 16.4367 65.397 16.4674C65.2717 16.4981 65.1395 16.4792 65.0278 16.4146C64.9162 16.3501 64.8338 16.2449 64.7978 16.1211C64.7619 15.9972 64.7752 15.8643 64.835 15.75C65.1102 15.2734 65.5349 14.901 66.0434 14.6904C66.5518 14.4798 67.1155 14.4429 67.6471 14.5853C68.1786 14.7277 68.6483 15.0416 68.9834 15.4782C69.3184 15.9148 69.5 16.4497 69.5 17C69.5019 17.5412 69.3263 18.0682 69 18.5Z" fill="currentColor"/>
<path d="M122 4.25H118.75V3C118.75 2.80109 118.671 2.61032 118.53 2.46967C118.39 2.32902 118.199 2.25 118 2.25C117.801 2.25 117.61 2.32902 117.47 2.46967C117.329 2.61032 117.25 2.80109 117.25 3V4.25H106.75V3C106.75 2.80109 106.671 2.61032 106.53 2.46967C106.39 2.32902 106.199 2.25 106 2.25C105.801 2.25 105.61 2.32902 105.47 2.46967C105.329 2.61032 105.25 2.80109 105.25 3V4.25H102C101.536 4.25 101.091 4.43437 100.763 4.76256C100.434 5.09075 100.25 5.53587 100.25 6V26C100.25 26.4641 100.434 26.9092 100.763 27.2374C101.091 27.5656 101.536 27.75 102 27.75H122C122.464 27.75 122.909 27.5656 123.237 27.2374C123.566 26.9092 123.75 26.4641 123.75 26V6C123.75 5.53587 123.566 5.09075 123.237 4.76256C122.909 4.43437 122.464 4.25 122 4.25ZM102 5.75H105.25V7C105.25 7.19891 105.329 7.38968 105.47 7.53033C105.61 7.67098 105.801 7.75 106 7.75C106.199 7.75 106.39 7.67098 106.53 7.53033C106.671 7.38968 106.75 7.19891 106.75 7V5.75H117.25V7C117.25 7.19891 117.329 7.38968 117.47 7.53033C117.61 7.67098 117.801 7.75 118 7.75C118.199 7.75 118.39 7.67098 118.53 7.53033C118.671 7.38968 118.75 7.19891 118.75 7V5.75H122C122.066 5.75 122.13 5.77634 122.177 5.82322C122.224 5.87011 122.25 5.9337 122.25 6V10.25H101.75V6C101.75 5.9337 101.776 5.87011 101.823 5.82322C101.87 5.77634 101.934 5.75 102 5.75ZM122 26.25H102C101.934 26.25 101.87 26.2237 101.823 26.1768C101.776 26.1299 101.75 26.0663 101.75 26V11.75H122.25V26C122.25 26.0663 122.224 26.1299 122.177 26.1768C122.13 26.2237 122.066 26.25 122 26.25ZM109.75 15V23C109.75 23.1989 109.671 23.3897 109.53 23.5303C109.39 23.671 109.199 23.75 109 23.75C108.801 23.75 108.61 23.671 108.47 23.5303C108.329 23.3897 108.25 23.1989 108.25 23V16.2138L107.335 16.6712C107.247 16.7152 107.151 16.7414 107.053 16.7484C106.954 16.7553 106.856 16.7428 106.762 16.7115C106.669 16.6803 106.582 16.631 106.508 16.5664C106.434 16.5018 106.373 16.4231 106.329 16.335C106.285 16.2468 106.259 16.1509 106.252 16.0526C106.245 15.9543 106.257 15.8557 106.288 15.7622C106.32 15.6688 106.369 15.5824 106.434 15.508C106.498 15.4337 106.577 15.3727 106.665 15.3287L108.665 14.3287C108.779 14.2717 108.906 14.2447 109.034 14.2506C109.162 14.2564 109.286 14.2947 109.395 14.362C109.503 14.4292 109.593 14.5231 109.655 14.6348C109.717 14.7465 109.75 14.8722 109.75 15ZM117.196 18.6562L114.5 22.25H117C117.199 22.25 117.39 22.329 117.53 22.4697C117.671 22.6103 117.75 22.8011 117.75 23C117.75 23.1989 117.671 23.3897 117.53 23.5303C117.39 23.671 117.199 23.75 117 23.75H113C112.861 23.75 112.724 23.7112 112.606 23.638C112.487 23.5648 112.391 23.46 112.329 23.3354C112.267 23.2108 112.241 23.0714 112.253 22.9326C112.266 22.7939 112.316 22.6614 112.4 22.55L116 17.75C116.104 17.6138 116.178 17.4577 116.219 17.2915C116.26 17.1253 116.266 16.9525 116.238 16.7837C116.209 16.6149 116.146 16.4539 116.053 16.3105C115.959 16.1671 115.837 16.0444 115.694 15.95C115.552 15.8557 115.391 15.7917 115.222 15.7619C115.054 15.7322 114.881 15.7375 114.714 15.7773C114.548 15.8172 114.391 15.8908 114.255 15.9936C114.118 16.0964 114.003 16.2262 113.919 16.375C113.874 16.4683 113.81 16.5512 113.732 16.6188C113.654 16.6863 113.562 16.7369 113.464 16.7674C113.365 16.7978 113.261 16.8075 113.158 16.7959C113.055 16.7842 112.956 16.7514 112.866 16.6995C112.777 16.6476 112.699 16.5778 112.638 16.4944C112.577 16.4111 112.533 16.3159 112.511 16.215C112.488 16.1141 112.487 16.0096 112.506 15.9081C112.526 15.8065 112.566 15.7102 112.625 15.625C112.813 15.3014 113.066 15.0197 113.367 14.7972C113.668 14.5747 114.012 14.4161 114.377 14.331C114.741 14.246 115.12 14.2363 115.488 14.3026C115.857 14.3689 116.208 14.5098 116.52 14.7166C116.832 14.9234 117.099 15.1918 117.304 15.5053C117.508 15.8189 117.647 16.1709 117.711 16.5399C117.775 16.9089 117.763 17.287 117.675 17.6512C117.588 18.0153 117.427 18.3577 117.202 18.6575L117.196 18.6562Z" fill="currentColor"/>
<path d="M170 3.5H167.5V3C167.5 2.60218 167.342 2.22064 167.061 1.93934C166.779 1.65804 166.398 1.5 166 1.5C165.602 1.5 165.221 1.65804 164.939 1.93934C164.658 2.22064 164.5 2.60218 164.5 3V3.5H155.5V3C155.5 2.60218 155.342 2.22064 155.061 1.93934C154.779 1.65804 154.398 1.5 154 1.5C153.602 1.5 153.221 1.65804 152.939 1.93934C152.658 2.22064 152.5 2.60218 152.5 3V3.5H150C149.337 3.5 148.701 3.76339 148.232 4.23223C147.763 4.70107 147.5 5.33696 147.5 6V26C147.5 26.663 147.763 27.2989 148.232 27.7678C148.701 28.2366 149.337 28.5 150 28.5H170C170.663 28.5 171.299 28.2366 171.768 27.7678C172.237 27.2989 172.5 26.663 172.5 26V6C172.5 5.33696 172.237 4.70107 171.768 4.23223C171.299 3.76339 170.663 3.5 170 3.5ZM152.5 6.5C152.5 6.89782 152.658 7.27936 152.939 7.56066C153.221 7.84196 153.602 8 154 8C154.398 8 154.779 7.84196 155.061 7.56066C155.342 7.27936 155.5 6.89782 155.5 6.5H164.5C164.5 6.89782 164.658 7.27936 164.939 7.56066C165.221 7.84196 165.602 8 166 8C166.398 8 166.779 7.84196 167.061 7.56066C167.342 7.27936 167.5 6.89782 167.5 6.5H169.5V9.5H150.5V6.5H152.5ZM150.5 25.5V12.5H169.5V25.5H150.5ZM158 15.5V22.5C158 22.8978 157.842 23.2794 157.561 23.5607C157.279 23.842 156.898 24 156.5 24C156.102 24 155.721 23.842 155.439 23.5607C155.158 23.2794 155 22.8978 155 22.5V17.915C154.643 18.0321 154.255 18.0111 153.913 17.856C153.571 17.701 153.299 17.4232 153.152 17.0776C153.005 16.732 152.993 16.3437 153.118 15.9896C153.243 15.6354 153.497 15.3412 153.829 15.165L155.829 14.165C156.057 14.0508 156.311 13.9967 156.565 14.0078C156.82 14.019 157.068 14.095 157.286 14.2286C157.503 14.3623 157.683 14.5492 157.808 14.7717C157.933 14.9941 157.999 15.2448 158 15.5ZM165.686 19.735L164.487 21H165C165.398 21 165.779 21.158 166.061 21.4393C166.342 21.7206 166.5 22.1022 166.5 22.5C166.5 22.8978 166.342 23.2794 166.061 23.5607C165.779 23.842 165.398 24 165 24H161C160.707 23.9999 160.42 23.9139 160.175 23.7527C159.931 23.5914 159.738 23.362 159.623 23.0927C159.507 22.8234 159.472 22.5261 159.524 22.2375C159.575 21.9489 159.71 21.6816 159.911 21.4688L163.431 17.75C163.476 17.6742 163.499 17.5879 163.5 17.5C163.5 17.3897 163.464 17.2824 163.397 17.1948C163.33 17.1072 163.236 17.0443 163.129 17.0157C163.023 16.9872 162.91 16.9947 162.808 17.0371C162.706 17.0795 162.621 17.1543 162.566 17.25C162.363 17.5868 162.037 17.8305 161.656 17.9287C161.275 18.0269 160.871 17.9718 160.531 17.7753C160.191 17.5787 159.941 17.2564 159.836 16.8776C159.731 16.4988 159.778 16.0939 159.969 15.75C160.354 15.0827 160.949 14.5611 161.66 14.2662C162.372 13.9713 163.162 13.9196 163.906 14.119C164.65 14.3184 165.308 14.7578 165.777 15.3692C166.246 15.9805 166.5 16.7295 166.5 17.5C166.502 18.2608 166.255 19.0012 165.795 19.6075C165.761 19.6522 165.725 19.6948 165.686 19.735Z" fill="currentColor"/>
<path d="M218 4H215V3C215 2.73478 214.895 2.48043 214.707 2.29289C214.52 2.10536 214.265 2 214 2C213.735 2 213.48 2.10536 213.293 2.29289C213.105 2.48043 213 2.73478 213 3V4H203V3C203 2.73478 202.895 2.48043 202.707 2.29289C202.52 2.10536 202.265 2 202 2C201.735 2 201.48 2.10536 201.293 2.29289C201.105 2.48043 201 2.73478 201 3V4H198C197.47 4 196.961 4.21071 196.586 4.58579C196.211 4.96086 196 5.46957 196 6V26C196 26.5304 196.211 27.0391 196.586 27.4142C196.961 27.7893 197.47 28 198 28H218C218.53 28 219.039 27.7893 219.414 27.4142C219.789 27.0391 220 26.5304 220 26V6C220 5.46957 219.789 4.96086 219.414 4.58579C219.039 4.21071 218.53 4 218 4ZM206 23C206 23.2652 205.895 23.5196 205.707 23.7071C205.52 23.8946 205.265 24 205 24C204.735 24 204.48 23.8946 204.293 23.7071C204.105 23.5196 204 23.2652 204 23V16.6175L203.448 16.895C203.21 17.0137 202.935 17.0332 202.684 16.9493C202.432 16.8654 202.224 16.6849 202.105 16.4475C201.986 16.2101 201.967 15.9353 202.051 15.6836C202.135 15.4318 202.315 15.2237 202.552 15.105L204.552 14.105C204.705 14.0287 204.875 13.9926 205.045 14.0003C205.215 14.0079 205.381 14.059 205.526 14.1487C205.671 14.2384 205.791 14.3637 205.874 14.5127C205.957 14.6617 206 14.8295 206 15V23ZM213 22C213.265 22 213.52 22.1054 213.707 22.2929C213.895 22.4804 214 22.7348 214 23C214 23.2652 213.895 23.5196 213.707 23.7071C213.52 23.8946 213.265 24 213 24H209C208.814 24 208.632 23.9483 208.474 23.8507C208.316 23.753 208.189 23.6133 208.106 23.4472C208.023 23.2811 207.987 23.0952 208.004 22.9102C208.021 22.7252 208.089 22.5486 208.2 22.4L211.798 17.6038C211.879 17.4948 211.938 17.3703 211.97 17.2379C212.002 17.1054 212.007 16.9678 211.983 16.8336C211.96 16.6993 211.91 16.5712 211.836 16.457C211.761 16.3429 211.664 16.2452 211.551 16.1699C211.437 16.0945 211.31 16.0432 211.175 16.019C211.041 15.9949 210.904 15.9983 210.771 16.0292C210.638 16.0602 210.513 16.1179 210.404 16.1988C210.294 16.2798 210.202 16.3823 210.134 16.5C210.07 16.6174 209.983 16.7208 209.879 16.8041C209.775 16.8875 209.655 16.9491 209.526 16.9853C209.398 17.0215 209.263 17.0316 209.131 17.0151C208.998 16.9985 208.87 16.9555 208.755 16.8887C208.639 16.8219 208.538 16.7327 208.457 16.6262C208.377 16.5197 208.318 16.3981 208.286 16.2687C208.253 16.1392 208.246 16.0045 208.266 15.8725C208.286 15.7405 208.333 15.6138 208.403 15.5C208.733 14.9284 209.243 14.4817 209.853 14.2291C210.463 13.9766 211.139 13.9323 211.777 14.1032C212.414 14.2741 212.978 14.6506 213.38 15.1743C213.782 15.6981 214 16.3398 214 17C214.002 17.6522 213.79 18.2869 213.395 18.8062L211 22H213ZM198 10V6H201V7C201 7.26522 201.105 7.51957 201.293 7.70711C201.48 7.89464 201.735 8 202 8C202.265 8 202.52 7.89464 202.707 7.70711C202.895 7.51957 203 7.26522 203 7V6H213V7C213 7.26522 213.105 7.51957 213.293 7.70711C213.48 7.89464 213.735 8 214 8C214.265 8 214.52 7.89464 214.707 7.70711C214.895 7.51957 215 7.26522 215 7V6H218V10H198Z" fill="currentColor"/>
<path opacity="0.2" d="M267 6V11H245V6C245 5.73478 245.105 5.48043 245.293 5.29289C245.48 5.10536 245.735 5 246 5H266C266.265 5 266.52 5.10536 266.707 5.29289C266.895 5.48043 267 5.73478 267 6Z" fill="currentColor"/>
<path d="M266 4H263V3C263 2.73478 262.895 2.48043 262.707 2.29289C262.52 2.10536 262.265 2 262 2C261.735 2 261.48 2.10536 261.293 2.29289C261.105 2.48043 261 2.73478 261 3V4H251V3C251 2.73478 250.895 2.48043 250.707 2.29289C250.52 2.10536 250.265 2 250 2C249.735 2 249.48 2.10536 249.293 2.29289C249.105 2.48043 249 2.73478 249 3V4H246C245.47 4 244.961 4.21071 244.586 4.58579C244.211 4.96086 244 5.46957 244 6V26C244 26.5304 244.211 27.0391 244.586 27.4142C244.961 27.7893 245.47 28 246 28H266C266.53 28 267.039 27.7893 267.414 27.4142C267.789 27.0391 268 26.5304 268 26V6C268 5.46957 267.789 4.96086 267.414 4.58579C267.039 4.21071 266.53 4 266 4ZM249 6V7C249 7.26522 249.105 7.51957 249.293 7.70711C249.48 7.89464 249.735 8 250 8C250.265 8 250.52 7.89464 250.707 7.70711C250.895 7.51957 251 7.26522 251 7V6H261V7C261 7.26522 261.105 7.51957 261.293 7.70711C261.48 7.89464 261.735 8 262 8C262.265 8 262.52 7.89464 262.707 7.70711C262.895 7.51957 263 7.26522 263 7V6H266V10H246V6H249ZM266 26H246V12H266V26ZM254 15V23C254 23.2652 253.895 23.5196 253.707 23.7071C253.52 23.8946 253.265 24 253 24C252.735 24 252.48 23.8946 252.293 23.7071C252.105 23.5196 252 23.2652 252 23V16.6175L251.448 16.895C251.21 17.0137 250.935 17.0332 250.684 16.9493C250.432 16.8654 250.224 16.6849 250.105 16.4475C249.986 16.2101 249.967 15.9353 250.051 15.6836C250.135 15.4318 250.315 15.2237 250.552 15.105L252.552 14.105C252.705 14.0287 252.875 13.9926 253.045 14.0003C253.215 14.0079 253.381 14.059 253.526 14.1487C253.671 14.2384 253.791 14.3637 253.874 14.5127C253.957 14.6617 254 14.8295 254 15ZM261.395 18.8062L259 22H261C261.265 22 261.52 22.1054 261.707 22.2929C261.895 22.4804 262 22.7348 262 23C262 23.2652 261.895 23.5196 261.707 23.7071C261.52 23.8946 261.265 24 261 24H257C256.814 24 256.632 23.9483 256.474 23.8507C256.316 23.753 256.189 23.6133 256.106 23.4472C256.023 23.2811 255.987 23.0952 256.004 22.9102C256.021 22.7252 256.089 22.5486 256.2 22.4L259.798 17.6038C259.879 17.4948 259.938 17.3703 259.97 17.2379C260.002 17.1054 260.007 16.9678 259.983 16.8336C259.96 16.6993 259.91 16.5712 259.836 16.457C259.761 16.3429 259.664 16.2452 259.551 16.1699C259.437 16.0945 259.31 16.0432 259.175 16.019C259.041 15.9949 258.904 15.9983 258.771 16.0292C258.638 16.0602 258.513 16.1179 258.404 16.1988C258.294 16.2798 258.202 16.3823 258.134 16.5C258.07 16.6174 257.983 16.7208 257.879 16.8041C257.775 16.8875 257.655 16.9491 257.526 16.9853C257.398 17.0215 257.263 17.0316 257.131 17.0151C256.998 16.9985 256.87 16.9555 256.755 16.8887C256.639 16.8219 256.538 16.7327 256.457 16.6262C256.377 16.5197 256.318 16.3981 256.286 16.2687C256.253 16.1392 256.246 16.0045 256.266 15.8725C256.286 15.7405 256.333 15.6138 256.403 15.5C256.733 14.9284 257.243 14.4817 257.853 14.2291C258.463 13.9766 259.139 13.9323 259.777 14.1032C260.414 14.2741 260.978 14.6506 261.38 15.1743C261.782 15.6981 262 16.3398 262 17C262.002 17.6522 261.79 18.2869 261.395 18.8062Z" fill="currentColor"/>
</g>
<defs>
<clipPath id="clip0_17_15879">
<rect width="272" height="32" rx="5" fill="white"/>
</clipPath>
</defs>
</svg>
