<svg width="272" height="32" viewBox="0 0 272 32" fill="none" xmlns="http://www.w3.org/2000/svg">
<g clip-path="url(#clip0_17_15851)">
<path d="M26 4H23V3C23 2.73478 22.8946 2.48043 22.7071 2.29289C22.5196 2.10536 22.2652 2 22 2C21.7348 2 21.4804 2.10536 21.2929 2.29289C21.1054 2.48043 21 2.73478 21 3V4H11V3C11 2.73478 10.8946 2.48043 10.7071 2.29289C10.5196 2.10536 10.2652 2 10 2C9.73478 2 9.48043 2.10536 9.29289 2.29289C9.10536 2.48043 9 2.73478 9 3V4H6C5.46957 4 4.96086 4.21071 4.58579 4.58579C4.21071 4.96086 4 5.46957 4 6V26C4 26.5304 4.21071 27.0391 4.58579 27.4142C4.96086 27.7893 5.46957 28 6 28H26C26.5304 28 27.0391 27.7893 27.4142 27.4142C27.7893 27.0391 28 26.5304 28 26V6C28 5.46957 27.7893 4.96086 27.4142 4.58579C27.0391 4.21071 26.5304 4 26 4ZM9 6V7C9 7.26522 9.10536 7.51957 9.29289 7.70711C9.48043 7.89464 9.73478 8 10 8C10.2652 8 10.5196 7.89464 10.7071 7.70711C10.8946 7.51957 11 7.26522 11 7V6H21V7C21 7.26522 21.1054 7.51957 21.2929 7.70711C21.4804 7.89464 21.7348 8 22 8C22.2652 8 22.5196 7.89464 22.7071 7.70711C22.8946 7.51957 23 7.26522 23 7V6H26V10H6V6H9ZM26 26H6V12H26V26ZM21.2075 15.2925C21.3005 15.3854 21.3742 15.4957 21.4246 15.6171C21.4749 15.7385 21.5008 15.8686 21.5008 16C21.5008 16.1314 21.4749 16.2615 21.4246 16.3829C21.3742 16.5043 21.3005 16.6146 21.2075 16.7075L15.2075 22.7075C15.1146 22.8005 15.0043 22.8742 14.8829 22.9246C14.7615 22.9749 14.6314 23.0008 14.5 23.0008C14.3686 23.0008 14.2385 22.9749 14.1171 22.9246C13.9957 22.8742 13.8854 22.8005 13.7925 22.7075L10.7925 19.7075C10.6049 19.5199 10.4994 19.2654 10.4994 19C10.4994 18.7346 10.6049 18.4801 10.7925 18.2925C10.9801 18.1049 11.2346 17.9994 11.5 17.9994C11.7654 17.9994 12.0199 18.1049 12.2075 18.2925L14.5 20.5863L19.7925 15.2925C19.8854 15.1995 19.9957 15.1258 20.1171 15.0754C20.2385 15.0251 20.3686 14.9992 20.5 14.9992C20.6314 14.9992 20.7615 15.0251 20.8829 15.0754C21.0043 15.1258 21.1146 15.1995 21.2075 15.2925Z" fill="currentColor"/>
<path d="M74 4.5H70.5V3C70.5 2.86739 70.4473 2.74021 70.3536 2.64645C70.2598 2.55268 70.1326 2.5 70 2.5C69.8674 2.5 69.7402 2.55268 69.6464 2.64645C69.5527 2.74021 69.5 2.86739 69.5 3V4.5H58.5V3C58.5 2.86739 58.4473 2.74021 58.3536 2.64645C58.2598 2.55268 58.1326 2.5 58 2.5C57.8674 2.5 57.7402 2.55268 57.6464 2.64645C57.5527 2.74021 57.5 2.86739 57.5 3V4.5H54C53.6022 4.5 53.2206 4.65804 52.9393 4.93934C52.658 5.22064 52.5 5.60218 52.5 6V26C52.5 26.3978 52.658 26.7794 52.9393 27.0607C53.2206 27.342 53.6022 27.5 54 27.5H74C74.3978 27.5 74.7794 27.342 75.0607 27.0607C75.342 26.7794 75.5 26.3978 75.5 26V6C75.5 5.60218 75.342 5.22064 75.0607 4.93934C74.7794 4.65804 74.3978 4.5 74 4.5ZM54 5.5H57.5V7C57.5 7.13261 57.5527 7.25979 57.6464 7.35355C57.7402 7.44732 57.8674 7.5 58 7.5C58.1326 7.5 58.2598 7.44732 58.3536 7.35355C58.4473 7.25979 58.5 7.13261 58.5 7V5.5H69.5V7C69.5 7.13261 69.5527 7.25979 69.6464 7.35355C69.7402 7.44732 69.8674 7.5 70 7.5C70.1326 7.5 70.2598 7.44732 70.3536 7.35355C70.4473 7.25979 70.5 7.13261 70.5 7V5.5H74C74.1326 5.5 74.2598 5.55268 74.3536 5.64645C74.4473 5.74021 74.5 5.86739 74.5 6V10.5H53.5V6C53.5 5.86739 53.5527 5.74021 53.6464 5.64645C53.7402 5.55268 53.8674 5.5 54 5.5ZM74 26.5H54C53.8674 26.5 53.7402 26.4473 53.6464 26.3536C53.5527 26.2598 53.5 26.1326 53.5 26V11.5H74.5V26C74.5 26.1326 74.4473 26.2598 74.3536 26.3536C74.2598 26.4473 74.1326 26.5 74 26.5ZM68.8538 15.6462C68.9002 15.6927 68.9371 15.7478 68.9623 15.8085C68.9874 15.8692 69.0004 15.9343 69.0004 16C69.0004 16.0657 68.9874 16.1308 68.9623 16.1915C68.9371 16.2522 68.9002 16.3073 68.8538 16.3538L62.8538 22.3538C62.8073 22.4002 62.7522 22.4371 62.6915 22.4623C62.6308 22.4874 62.5657 22.5004 62.5 22.5004C62.4343 22.5004 62.3692 22.4874 62.3085 22.4623C62.2478 22.4371 62.1927 22.4002 62.1462 22.3538L59.1462 19.3538C59.0524 19.2599 58.9997 19.1327 58.9997 19C58.9997 18.8673 59.0524 18.7401 59.1462 18.6462C59.2401 18.5524 59.3673 18.4997 59.5 18.4997C59.6327 18.4997 59.7599 18.5524 59.8538 18.6462L62.5 21.2925L68.1462 15.6462C68.1927 15.5998 68.2478 15.5629 68.3085 15.5377C68.3692 15.5126 68.4343 15.4996 68.5 15.4996C68.5657 15.4996 68.6308 15.5126 68.6915 15.5377C68.7522 15.5629 68.8073 15.5998 68.8538 15.6462Z" fill="currentColor"/>
<path d="M122 4.25H118.75V3C118.75 2.80109 118.671 2.61032 118.53 2.46967C118.39 2.32902 118.199 2.25 118 2.25C117.801 2.25 117.61 2.32902 117.47 2.46967C117.329 2.61032 117.25 2.80109 117.25 3V4.25H106.75V3C106.75 2.80109 106.671 2.61032 106.53 2.46967C106.39 2.32902 106.199 2.25 106 2.25C105.801 2.25 105.61 2.32902 105.47 2.46967C105.329 2.61032 105.25 2.80109 105.25 3V4.25H102C101.536 4.25 101.091 4.43437 100.763 4.76256C100.434 5.09075 100.25 5.53587 100.25 6V26C100.25 26.4641 100.434 26.9092 100.763 27.2374C101.091 27.5656 101.536 27.75 102 27.75H122C122.464 27.75 122.909 27.5656 123.237 27.2374C123.566 26.9092 123.75 26.4641 123.75 26V6C123.75 5.53587 123.566 5.09075 123.237 4.76256C122.909 4.43437 122.464 4.25 122 4.25ZM102 5.75H105.25V7C105.25 7.19891 105.329 7.38968 105.47 7.53033C105.61 7.67098 105.801 7.75 106 7.75C106.199 7.75 106.39 7.67098 106.53 7.53033C106.671 7.38968 106.75 7.19891 106.75 7V5.75H117.25V7C117.25 7.19891 117.329 7.38968 117.47 7.53033C117.61 7.67098 117.801 7.75 118 7.75C118.199 7.75 118.39 7.67098 118.53 7.53033C118.671 7.38968 118.75 7.19891 118.75 7V5.75H122C122.066 5.75 122.13 5.77634 122.177 5.82322C122.224 5.87011 122.25 5.9337 122.25 6V10.25H101.75V6C101.75 5.9337 101.776 5.87011 101.823 5.82322C101.87 5.77634 101.934 5.75 102 5.75ZM122 26.25H102C101.934 26.25 101.87 26.2237 101.823 26.1768C101.776 26.1299 101.75 26.0663 101.75 26V11.75H122.25V26C122.25 26.0663 122.224 26.1299 122.177 26.1768C122.13 26.2237 122.066 26.25 122 26.25ZM117.03 15.47C117.17 15.6106 117.249 15.8012 117.249 16C117.249 16.1988 117.17 16.3894 117.03 16.53L111.03 22.53C110.889 22.6705 110.699 22.7493 110.5 22.7493C110.301 22.7493 110.111 22.6705 109.97 22.53L106.97 19.53C106.838 19.3878 106.765 19.1998 106.769 19.0055C106.772 18.8112 106.851 18.6258 106.988 18.4884C107.126 18.351 107.311 18.2723 107.505 18.2688C107.7 18.2654 107.888 18.3375 108.03 18.47L110.5 20.9387L115.97 15.47C116.111 15.3295 116.301 15.2507 116.5 15.2507C116.699 15.2507 116.889 15.3295 117.03 15.47Z" fill="currentColor"/>
<path d="M170 3.5H167.5V3C167.5 2.60218 167.342 2.22064 167.061 1.93934C166.779 1.65804 166.398 1.5 166 1.5C165.602 1.5 165.221 1.65804 164.939 1.93934C164.658 2.22064 164.5 2.60218 164.5 3V3.5H155.5V3C155.5 2.60218 155.342 2.22064 155.061 1.93934C154.779 1.65804 154.398 1.5 154 1.5C153.602 1.5 153.221 1.65804 152.939 1.93934C152.658 2.22064 152.5 2.60218 152.5 3V3.5H150C149.337 3.5 148.701 3.76339 148.232 4.23223C147.763 4.70107 147.5 5.33696 147.5 6V26C147.5 26.663 147.763 27.2989 148.232 27.7678C148.701 28.2366 149.337 28.5 150 28.5H170C170.663 28.5 171.299 28.2366 171.768 27.7678C172.237 27.2989 172.5 26.663 172.5 26V6C172.5 5.33696 172.237 4.70107 171.768 4.23223C171.299 3.76339 170.663 3.5 170 3.5ZM152.5 6.5C152.5 6.89782 152.658 7.27936 152.939 7.56066C153.221 7.84196 153.602 8 154 8C154.398 8 154.779 7.84196 155.061 7.56066C155.342 7.27936 155.5 6.89782 155.5 6.5H164.5C164.5 6.89782 164.658 7.27936 164.939 7.56066C165.221 7.84196 165.602 8 166 8C166.398 8 166.779 7.84196 167.061 7.56066C167.342 7.27936 167.5 6.89782 167.5 6.5H169.5V9.5H150.5V6.5H152.5ZM150.5 25.5V12.5H169.5V25.5H150.5ZM165.561 14.9388C165.701 15.0781 165.812 15.2437 165.888 15.426C165.963 15.6083 166.002 15.8038 166.002 16.0012C166.002 16.1987 165.963 16.3941 165.888 16.5765C165.812 16.7588 165.701 16.9244 165.561 17.0637L159.561 23.0637C159.422 23.2036 159.256 23.3145 159.074 23.3903C158.892 23.466 158.696 23.5049 158.499 23.5049C158.301 23.5049 158.106 23.466 157.924 23.3903C157.741 23.3145 157.576 23.2036 157.436 23.0637L154.436 20.0637C154.154 19.782 153.996 19.3998 153.996 19.0012C153.996 18.6027 154.154 18.2205 154.436 17.9387C154.718 17.657 155.1 17.4986 155.499 17.4986C155.897 17.4986 156.279 17.657 156.561 17.9387L158.5 19.875L163.439 14.935C163.578 14.7958 163.744 14.6854 163.926 14.6103C164.108 14.5351 164.304 14.4966 164.501 14.4969C164.698 14.4973 164.893 14.5365 165.075 14.6123C165.257 14.6881 165.422 14.799 165.561 14.9388Z" fill="currentColor"/>
<path d="M218 4H215V3C215 2.73478 214.895 2.48043 214.707 2.29289C214.52 2.10536 214.265 2 214 2C213.735 2 213.48 2.10536 213.293 2.29289C213.105 2.48043 213 2.73478 213 3V4H203V3C203 2.73478 202.895 2.48043 202.707 2.29289C202.52 2.10536 202.265 2 202 2C201.735 2 201.48 2.10536 201.293 2.29289C201.105 2.48043 201 2.73478 201 3V4H198C197.47 4 196.961 4.21071 196.586 4.58579C196.211 4.96086 196 5.46957 196 6V26C196 26.5304 196.211 27.0391 196.586 27.4142C196.961 27.7893 197.47 28 198 28H218C218.53 28 219.039 27.7893 219.414 27.4142C219.789 27.0391 220 26.5304 220 26V6C220 5.46957 219.789 4.96086 219.414 4.58579C219.039 4.21071 218.53 4 218 4ZM213.208 16.7075L207.208 22.7075C207.115 22.8005 207.004 22.8742 206.883 22.9246C206.762 22.9749 206.631 23.0008 206.5 23.0008C206.369 23.0008 206.238 22.9749 206.117 22.9246C205.996 22.8742 205.885 22.8005 205.792 22.7075L202.792 19.7075C202.605 19.5199 202.499 19.2654 202.499 19C202.499 18.7346 202.605 18.4801 202.792 18.2925C202.98 18.1049 203.235 17.9994 203.5 17.9994C203.765 17.9994 204.02 18.1049 204.208 18.2925L206.5 20.5863L211.792 15.2925C211.885 15.1996 211.996 15.1259 212.117 15.0756C212.238 15.0253 212.369 14.9994 212.5 14.9994C212.631 14.9994 212.762 15.0253 212.883 15.0756C213.004 15.1259 213.115 15.1996 213.208 15.2925C213.3 15.3854 213.374 15.4957 213.424 15.6171C213.475 15.7385 213.501 15.8686 213.501 16C213.501 16.1314 213.475 16.2615 213.424 16.3829C213.374 16.5043 213.3 16.6146 213.208 16.7075ZM198 10V6H201V7C201 7.26522 201.105 7.51957 201.293 7.70711C201.48 7.89464 201.735 8 202 8C202.265 8 202.52 7.89464 202.707 7.70711C202.895 7.51957 203 7.26522 203 7V6H213V7C213 7.26522 213.105 7.51957 213.293 7.70711C213.48 7.89464 213.735 8 214 8C214.265 8 214.52 7.89464 214.707 7.70711C214.895 7.51957 215 7.26522 215 7V6H218V10H198Z" fill="currentColor"/>
<path opacity="0.2" d="M267 6V11H245V6C245 5.73478 245.105 5.48043 245.293 5.29289C245.48 5.10536 245.735 5 246 5H266C266.265 5 266.52 5.10536 266.707 5.29289C266.895 5.48043 267 5.73478 267 6Z" fill="currentColor"/>
<path d="M266 4H263V3C263 2.73478 262.895 2.48043 262.707 2.29289C262.52 2.10536 262.265 2 262 2C261.735 2 261.48 2.10536 261.293 2.29289C261.105 2.48043 261 2.73478 261 3V4H251V3C251 2.73478 250.895 2.48043 250.707 2.29289C250.52 2.10536 250.265 2 250 2C249.735 2 249.48 2.10536 249.293 2.29289C249.105 2.48043 249 2.73478 249 3V4H246C245.47 4 244.961 4.21071 244.586 4.58579C244.211 4.96086 244 5.46957 244 6V26C244 26.5304 244.211 27.0391 244.586 27.4142C244.961 27.7893 245.47 28 246 28H266C266.53 28 267.039 27.7893 267.414 27.4142C267.789 27.0391 268 26.5304 268 26V6C268 5.46957 267.789 4.96086 267.414 4.58579C267.039 4.21071 266.53 4 266 4ZM249 6V7C249 7.26522 249.105 7.51957 249.293 7.70711C249.48 7.89464 249.735 8 250 8C250.265 8 250.52 7.89464 250.707 7.70711C250.895 7.51957 251 7.26522 251 7V6H261V7C261 7.26522 261.105 7.51957 261.293 7.70711C261.48 7.89464 261.735 8 262 8C262.265 8 262.52 7.89464 262.707 7.70711C262.895 7.51957 263 7.26522 263 7V6H266V10H246V6H249ZM266 26H246V12H266V26ZM261.208 15.2925C261.3 15.3854 261.374 15.4957 261.425 15.6171C261.475 15.7385 261.501 15.8686 261.501 16C261.501 16.1314 261.475 16.2615 261.425 16.3829C261.374 16.5043 261.3 16.6146 261.208 16.7075L255.208 22.7075C255.115 22.8005 255.004 22.8742 254.883 22.9246C254.762 22.9749 254.631 23.0008 254.5 23.0008C254.369 23.0008 254.238 22.9749 254.117 22.9246C253.996 22.8742 253.885 22.8005 253.792 22.7075L250.792 19.7075C250.605 19.5199 250.499 19.2654 250.499 19C250.499 18.7346 250.605 18.4801 250.792 18.2925C250.98 18.1049 251.235 17.9994 251.5 17.9994C251.765 17.9994 252.02 18.1049 252.208 18.2925L254.5 20.5863L259.792 15.2925C259.885 15.1995 259.996 15.1258 260.117 15.0754C260.238 15.0251 260.369 14.9992 260.5 14.9992C260.631 14.9992 260.762 15.0251 260.883 15.0754C261.004 15.1258 261.115 15.1995 261.208 15.2925Z" fill="currentColor"/>
</g>
<defs>
<clipPath id="clip0_17_15851">
<rect width="272" height="32" rx="5" fill="white"/>
</clipPath>
</defs>
</svg>
