<svg width="272" height="32" viewBox="0 0 272 32" fill="none" xmlns="http://www.w3.org/2000/svg">
<g clip-path="url(#clip0_17_15739)">
<path d="M25 9.455V5C25 4.46957 24.7893 3.96086 24.4142 3.58579C24.0391 3.21071 23.5304 3 23 3H9C8.46957 3 7.96086 3.21071 7.58579 3.58579C7.21071 3.96086 7 4.46957 7 5V9.5C7.00068 9.81037 7.07326 10.1164 7.21206 10.394C7.35087 10.6716 7.55211 10.9132 7.8 11.1L14.3337 16L7.8 20.9C7.55211 21.0868 7.35087 21.3284 7.21206 21.606C7.07326 21.8836 7.00068 22.1896 7 22.5V27C7 27.5304 7.21071 28.0391 7.58579 28.4142C7.96086 28.7893 8.46957 29 9 29H23C23.5304 29 24.0391 28.7893 24.4142 28.4142C24.7893 28.0391 25 27.5304 25 27V22.545C24.9993 22.2358 24.9273 21.931 24.7896 21.6541C24.652 21.3773 24.4523 21.1359 24.2062 20.9487L17.6588 16L24.2062 11.05C24.4525 10.8632 24.6522 10.6221 24.7899 10.3454C24.9276 10.0688 24.9995 9.76403 25 9.455ZM23 27H9V22.5L16 17.25L23 22.5438V27ZM23 9.455L16 14.75L9 9.5V5H23V9.455Z" fill="currentColor"/>
<path d="M72.5 9.455V5C72.5 4.60218 72.342 4.22064 72.0607 3.93934C71.7794 3.65804 71.3978 3.5 71 3.5H57C56.6022 3.5 56.2206 3.65804 55.9393 3.93934C55.658 4.22064 55.5 4.60218 55.5 5V9.5C55.5 9.73287 55.5542 9.96254 55.6584 10.1708C55.7625 10.3791 55.9137 10.5603 56.1 10.7L63.1663 16L56.1 21.3C55.9137 21.4397 55.7625 21.6209 55.6584 21.8292C55.5542 22.0375 55.5 22.2671 55.5 22.5V27C55.5 27.3978 55.658 27.7794 55.9393 28.0607C56.2206 28.342 56.6022 28.5 57 28.5H71C71.3978 28.5 71.7794 28.342 72.0607 28.0607C72.342 27.7794 72.5 27.3978 72.5 27V22.545C72.4995 22.3133 72.4456 22.0848 72.3424 21.8773C72.2392 21.6698 72.0895 21.4889 71.905 21.3487L64.8288 16L71.905 10.6512C72.0895 10.5111 72.2392 10.3302 72.3424 10.1227C72.4456 9.91522 72.4995 9.68673 72.5 9.455ZM71.5 22.545V27C71.5 27.1326 71.4473 27.2598 71.3536 27.3536C71.2598 27.4473 71.1326 27.5 71 27.5H57C56.8674 27.5 56.7402 27.4473 56.6464 27.3536C56.5527 27.2598 56.5 27.1326 56.5 27V22.5C56.5 22.4224 56.5181 22.3458 56.5528 22.2764C56.5875 22.207 56.6379 22.1466 56.7 22.1L64 16.625L71.3025 22.145C71.3641 22.1918 71.4141 22.2523 71.4483 22.3218C71.4826 22.3912 71.5003 22.4676 71.5 22.545ZM71.5 9.455C71.5 9.53231 71.482 9.60855 71.4475 9.67774C71.413 9.74692 71.363 9.80717 71.3013 9.85375L64 15.375L56.7 9.9C56.6379 9.85343 56.5875 9.79303 56.5528 9.72361C56.5181 9.65418 56.5 9.57762 56.5 9.5V5C56.5 4.86739 56.5527 4.74021 56.6464 4.64645C56.7402 4.55268 56.8674 4.5 57 4.5H71C71.1326 4.5 71.2598 4.55268 71.3536 4.64645C71.4473 4.74021 71.5 4.86739 71.5 5V9.455Z" fill="currentColor"/>
<path d="M120.75 9.455V5C120.75 4.53587 120.566 4.09075 120.237 3.76256C119.909 3.43437 119.464 3.25 119 3.25H105C104.536 3.25 104.091 3.43437 103.763 3.76256C103.434 4.09075 103.25 4.53587 103.25 5V9.5C103.251 9.77158 103.314 10.0393 103.436 10.2822C103.557 10.5251 103.733 10.7366 103.95 10.9L110.75 16L103.95 21.1C103.733 21.2634 103.557 21.4749 103.436 21.7178C103.314 21.9607 103.251 22.2284 103.25 22.5V27C103.25 27.4641 103.434 27.9092 103.763 28.2374C104.091 28.5656 104.536 28.75 105 28.75H119C119.464 28.75 119.909 28.5656 120.237 28.2374C120.566 27.9092 120.75 27.4641 120.75 27V22.545C120.749 22.2745 120.686 22.0078 120.566 21.7657C120.445 21.5235 120.27 21.3124 120.055 21.1488L113.25 16L120.061 10.8512C120.275 10.6869 120.449 10.4755 120.568 10.2334C120.688 9.99131 120.75 9.72497 120.75 9.455ZM119.25 22.545V27C119.25 27.0663 119.224 27.1299 119.177 27.1768C119.13 27.2237 119.066 27.25 119 27.25H105C104.934 27.25 104.87 27.2237 104.823 27.1768C104.776 27.1299 104.75 27.0663 104.75 27V22.5C104.75 22.4612 104.759 22.4229 104.776 22.3882C104.794 22.3535 104.819 22.3233 104.85 22.3L112 16.9387L119.153 22.345C119.183 22.3685 119.208 22.3989 119.225 22.4336C119.242 22.4683 119.25 22.5064 119.25 22.545ZM119.25 9.455C119.25 9.49371 119.241 9.53192 119.224 9.56662C119.207 9.60133 119.182 9.63158 119.151 9.655L112 15.0612L104.85 9.7C104.819 9.67671 104.794 9.64652 104.776 9.6118C104.759 9.57709 104.75 9.53881 104.75 9.5V5C104.75 4.9337 104.776 4.87011 104.823 4.82322C104.87 4.77634 104.934 4.75 105 4.75H119C119.066 4.75 119.13 4.77634 119.177 4.82322C119.224 4.87011 119.25 4.9337 119.25 5V9.455Z" fill="currentColor"/>
<path d="M169.5 9.455V5C169.5 4.33696 169.237 3.70107 168.768 3.23223C168.299 2.76339 167.663 2.5 167 2.5H153C152.337 2.5 151.701 2.76339 151.232 3.23223C150.763 3.70107 150.5 4.33696 150.5 5V9.5C150.501 9.88794 150.592 10.2704 150.765 10.6174C150.939 10.9644 151.19 11.2665 151.5 11.5L157.5 16L151.5 20.5C151.19 20.7335 150.939 21.0356 150.765 21.3826C150.592 21.7296 150.501 22.1121 150.5 22.5V27C150.5 27.663 150.763 28.2989 151.232 28.7678C151.701 29.2366 152.337 29.5 153 29.5H167C167.663 29.5 168.299 29.2366 168.768 28.7678C169.237 28.2989 169.5 27.663 169.5 27V22.545C169.5 22.1577 169.41 21.7758 169.238 21.4289C169.066 21.082 168.816 20.7795 168.507 20.545L162.487 16L168.507 11.45C168.815 11.216 169.065 10.9143 169.237 10.5683C169.409 10.2224 169.499 9.84142 169.5 9.455ZM166.5 26.5H153.5V22.75L160 17.875L166.5 22.7913V26.5ZM166.5 9.20625L160 14.125L153.5 9.25V5.5H166.5V9.20625Z" fill="currentColor"/>
<path d="M217 9.455V5C217 4.46957 216.789 3.96086 216.414 3.58579C216.039 3.21071 215.53 3 215 3H201C200.47 3 199.961 3.21071 199.586 3.58579C199.211 3.96086 199 4.46957 199 5V9.5C199.001 9.81046 199.074 10.1165 199.213 10.3941C199.352 10.6717 199.553 10.9133 199.801 11.1L206.334 16L199.8 20.9C199.552 21.0868 199.351 21.3284 199.212 21.606C199.073 21.8836 199.001 22.1896 199 22.5V27C199 27.5304 199.211 28.0391 199.586 28.4142C199.961 28.7893 200.47 29 201 29H215C215.53 29 216.039 28.7893 216.414 28.4142C216.789 28.0391 217 27.5304 217 27V22.545C217 22.2356 216.928 21.9303 216.79 21.6534C216.652 21.3764 216.452 21.1352 216.205 20.9487L209.657 16L216.205 11.0513C216.452 10.8645 216.652 10.6232 216.79 10.3463C216.928 10.0694 217 9.76435 217 9.455Z" fill="currentColor"/>
<path opacity="0.2" d="M263.603 10.25L256 16L248.4 10.3C248.276 10.2069 248.175 10.0861 248.106 9.94721C248.036 9.80836 248 9.65525 248 9.5V5C248 4.73478 248.105 4.48043 248.293 4.29289C248.48 4.10536 248.735 4 249 4H263C263.265 4 263.52 4.10536 263.707 4.29289C263.895 4.48043 264 4.73478 264 5V9.455C264 9.60919 263.963 9.76118 263.894 9.89909C263.825 10.037 263.726 10.1571 263.603 10.25ZM248 22.5V27C248 27.2652 248.105 27.5196 248.293 27.7071C248.48 27.8946 248.735 28 249 28H263C263.265 28 263.52 27.8946 263.707 27.7071C263.895 27.5196 264 27.2652 264 27V22.545C264 22.3904 263.964 22.2379 263.895 22.0995C263.826 21.9612 263.726 21.8407 263.603 21.7475L256 16L248.4 21.7C248.276 21.7931 248.175 21.9139 248.106 22.0528C248.036 22.1916 248 22.3448 248 22.5Z" fill="currentColor"/>
<path d="M265 9.455V5C265 4.46957 264.789 3.96086 264.414 3.58579C264.039 3.21071 263.53 3 263 3H249C248.47 3 247.961 3.21071 247.586 3.58579C247.211 3.96086 247 4.46957 247 5V9.5C247.001 9.81037 247.073 10.1164 247.212 10.394C247.351 10.6716 247.552 10.9132 247.8 11.1L254.334 16L247.8 20.9C247.552 21.0868 247.351 21.3284 247.212 21.606C247.073 21.8836 247.001 22.1896 247 22.5V27C247 27.5304 247.211 28.0391 247.586 28.4142C247.961 28.7893 248.47 29 249 29H263C263.53 29 264.039 28.7893 264.414 28.4142C264.789 28.0391 265 27.5304 265 27V22.545C264.999 22.2358 264.927 21.931 264.79 21.6541C264.652 21.3773 264.452 21.1359 264.206 20.9487L257.659 16L264.206 11.0513C264.452 10.8641 264.652 10.6227 264.79 10.3459C264.927 10.069 264.999 9.76418 265 9.455ZM263 27H249V22.5L256 17.25L263 22.5438V27ZM263 9.455L256 14.75L249 9.5V5H263V9.455Z" fill="currentColor"/>
</g>
<defs>
<clipPath id="clip0_17_15739">
<rect width="272" height="32" rx="5" fill="white"/>
</clipPath>
</defs>
</svg>
