<svg width="272" height="32" viewBox="0 0 272 32" fill="none" xmlns="http://www.w3.org/2000/svg">
<g clip-path="url(#clip0_17_15697)">
<path d="M25 9.455V5C25 4.46957 24.7893 3.96086 24.4142 3.58579C24.0391 3.21071 23.5304 3 23 3H9C8.46957 3 7.96086 3.21071 7.58579 3.58579C7.21071 3.96086 7 4.46957 7 5V9.5C7.00068 9.81037 7.07326 10.1164 7.21206 10.394C7.35087 10.6716 7.55211 10.9132 7.8 11.1L14.3337 16L7.8 20.9C7.55211 21.0868 7.35087 21.3284 7.21206 21.606C7.07326 21.8836 7.00068 22.1896 7 22.5V27C7 27.5304 7.21071 28.0391 7.58579 28.4142C7.96086 28.7893 8.46957 29 9 29H23C23.5304 29 24.0391 28.7893 24.4142 28.4142C24.7893 28.0391 25 27.5304 25 27V22.545C24.9993 22.2358 24.9273 21.931 24.7896 21.6541C24.652 21.3773 24.4523 21.1359 24.2062 20.9487L17.6588 16L24.2062 11.05C24.4525 10.8632 24.6522 10.6221 24.7899 10.3454C24.9276 10.0688 24.9995 9.76403 25 9.455ZM9 5H23V9.455L22.2787 10H9.66625L9 9.5V5ZM16 14.75L12.3337 12H19.6338L16 14.75ZM23 27H9V22.5L15 18V21C15 21.2652 15.1054 21.5196 15.2929 21.7071C15.4804 21.8946 15.7348 22 16 22C16.2652 22 16.5196 21.8946 16.7071 21.7071C16.8946 21.5196 17 21.2652 17 21V18.01L23 22.545V27Z" fill="currentColor"/>
<path d="M72.5 9.455V5C72.5 4.60218 72.342 4.22064 72.0607 3.93934C71.7794 3.65804 71.3978 3.5 71 3.5H57C56.6022 3.5 56.2206 3.65804 55.9393 3.93934C55.658 4.22064 55.5 4.60218 55.5 5V9.5C55.5 9.73287 55.5542 9.96254 55.6584 10.1708C55.7625 10.3791 55.9137 10.5603 56.1 10.7L63.1663 16L56.1 21.3C55.9137 21.4397 55.7625 21.6209 55.6584 21.8292C55.5542 22.0375 55.5 22.2671 55.5 22.5V27C55.5 27.3978 55.658 27.7794 55.9393 28.0607C56.2206 28.342 56.6022 28.5 57 28.5H71C71.3978 28.5 71.7794 28.342 72.0607 28.0607C72.342 27.7794 72.5 27.3978 72.5 27V22.545C72.4995 22.3133 72.4456 22.0848 72.3424 21.8773C72.2392 21.6698 72.0895 21.4889 71.905 21.3487L64.8288 16L71.905 10.6512C72.0895 10.5111 72.2392 10.3302 72.3424 10.1227C72.4456 9.91522 72.4995 9.68673 72.5 9.455ZM64 15.375L58.8337 11.5H69.125L64 15.375ZM71.5 22.5462V27C71.5 27.1326 71.4473 27.2598 71.3536 27.3536C71.2598 27.4473 71.1326 27.5 71 27.5H57C56.8674 27.5 56.7402 27.4473 56.6464 27.3536C56.5527 27.2598 56.5 27.1326 56.5 27V22.5C56.5 22.4224 56.5181 22.3458 56.5528 22.2764C56.5875 22.207 56.6379 22.1466 56.7 22.1L63.5 17V21C63.5 21.1326 63.5527 21.2598 63.6464 21.3536C63.7402 21.4473 63.8674 21.5 64 21.5C64.1326 21.5 64.2598 21.4473 64.3536 21.3536C64.4473 21.2598 64.5 21.1326 64.5 21V17L71.3013 22.1413C71.3636 22.1883 71.4141 22.2494 71.4486 22.3195C71.4831 22.3896 71.5007 22.4669 71.5 22.545V22.5462ZM71.5 9.45625C71.5 9.53356 71.482 9.6098 71.4475 9.67899C71.413 9.74817 71.363 9.80842 71.3013 9.855L70.4475 10.5H57.5L56.7 9.9C56.6379 9.85343 56.5875 9.79303 56.5528 9.72361C56.5181 9.65418 56.5 9.57762 56.5 9.5V5C56.5 4.86739 56.5527 4.74021 56.6464 4.64645C56.7402 4.55268 56.8674 4.5 57 4.5H71C71.1326 4.5 71.2598 4.55268 71.3536 4.64645C71.4473 4.74021 71.5 4.86739 71.5 5V9.45625Z" fill="currentColor"/>
<path d="M120.75 9.455V5C120.75 4.53587 120.566 4.09075 120.237 3.76256C119.909 3.43437 119.464 3.25 119 3.25H105C104.536 3.25 104.091 3.43437 103.763 3.76256C103.434 4.09075 103.25 4.53587 103.25 5V9.5C103.251 9.77158 103.314 10.0393 103.436 10.2822C103.557 10.5251 103.733 10.7366 103.95 10.9L110.75 16L103.95 21.1C103.733 21.2634 103.557 21.4749 103.436 21.7178C103.314 21.9607 103.251 22.2284 103.25 22.5V27C103.25 27.4641 103.434 27.9092 103.763 28.2374C104.091 28.5656 104.536 28.75 105 28.75H119C119.464 28.75 119.909 28.5656 120.237 28.2374C120.566 27.9092 120.75 27.4641 120.75 27V22.545C120.749 22.2745 120.686 22.0078 120.566 21.7657C120.445 21.5235 120.27 21.3124 120.055 21.1488L113.25 16L120.061 10.8512C120.275 10.6869 120.449 10.4755 120.568 10.2334C120.688 9.99131 120.75 9.72497 120.75 9.455ZM104.75 5C104.75 4.9337 104.776 4.87011 104.823 4.82322C104.87 4.77634 104.934 4.75 105 4.75H119C119.066 4.75 119.13 4.77634 119.177 4.82322C119.224 4.87011 119.25 4.9337 119.25 5V9.455C119.25 9.49371 119.241 9.53192 119.224 9.56662C119.207 9.60133 119.182 9.63158 119.151 9.655L118.362 10.25H105.584L104.85 9.7C104.819 9.67671 104.794 9.64652 104.776 9.6118C104.759 9.57709 104.75 9.53881 104.75 9.5V5ZM112 15.0612L107.584 11.75H116.375L112 15.0612ZM119.25 22.545V27C119.25 27.0663 119.224 27.1299 119.177 27.1768C119.13 27.2237 119.066 27.25 119 27.25H105C104.934 27.25 104.87 27.2237 104.823 27.1768C104.776 27.1299 104.75 27.0663 104.75 27V22.5C104.75 22.4612 104.759 22.4229 104.776 22.3882C104.794 22.3535 104.819 22.3233 104.85 22.3L111.25 17.5V21C111.25 21.1989 111.329 21.3897 111.47 21.5303C111.61 21.671 111.801 21.75 112 21.75C112.199 21.75 112.39 21.671 112.53 21.5303C112.671 21.3897 112.75 21.1989 112.75 21V17.5075L119.151 22.345C119.182 22.3684 119.207 22.3987 119.224 22.4334C119.241 22.4681 119.25 22.5063 119.25 22.545Z" fill="currentColor"/>
<path d="M169.5 9.455V5C169.5 4.33696 169.237 3.70107 168.768 3.23223C168.299 2.76339 167.663 2.5 167 2.5H153C152.337 2.5 151.701 2.76339 151.232 3.23223C150.763 3.70107 150.5 4.33696 150.5 5V9.5C150.501 9.88794 150.592 10.2704 150.765 10.6174C150.939 10.9644 151.19 11.2665 151.5 11.5L157.5 16L151.5 20.5C151.19 20.7335 150.939 21.0356 150.765 21.3826C150.592 21.7296 150.501 22.1121 150.5 22.5V27C150.5 27.663 150.763 28.2989 151.232 28.7678C151.701 29.2366 152.337 29.5 153 29.5H167C167.663 29.5 168.299 29.2366 168.768 28.7678C169.237 28.2989 169.5 27.663 169.5 27V22.545C169.5 22.1577 169.41 21.7758 169.238 21.4289C169.066 21.082 168.816 20.7795 168.507 20.545L162.487 16L168.507 11.45C168.815 11.216 169.065 10.9143 169.237 10.5683C169.409 10.2224 169.499 9.84142 169.5 9.455ZM166.5 5.5V9H153.5V5.5H166.5ZM160 14.125L157.166 12H162.804L160 14.125ZM166.5 26.5H153.5V22.75L158.5 19V21C158.5 21.3978 158.658 21.7794 158.939 22.0607C159.221 22.342 159.602 22.5 160 22.5C160.398 22.5 160.779 22.342 161.061 22.0607C161.342 21.7794 161.5 21.3978 161.5 21V19.0138L166.5 22.7938V26.5Z" fill="currentColor"/>
<path d="M217 9.455V5C217 4.46957 216.789 3.96086 216.414 3.58579C216.039 3.21071 215.53 3 215 3H201C200.47 3 199.961 3.21071 199.586 3.58579C199.211 3.96086 199 4.46957 199 5V9.5C199.001 9.81037 199.073 10.1164 199.212 10.394C199.351 10.6716 199.552 10.9132 199.8 11.1L206.334 16L199.8 20.9C199.552 21.0868 199.351 21.3284 199.212 21.606C199.073 21.8836 199.001 22.1896 199 22.5V27C199 27.5304 199.211 28.0391 199.586 28.4142C199.961 28.7893 200.47 29 201 29H215C215.53 29 216.039 28.7893 216.414 28.4142C216.789 28.0391 217 27.5304 217 27V22.545C216.999 22.2358 216.927 21.931 216.79 21.6541C216.652 21.3773 216.452 21.1359 216.206 20.9487L209.659 16L216.206 11.0513C216.452 10.8641 216.652 10.6227 216.79 10.3459C216.927 10.069 216.999 9.76418 217 9.455ZM215 22.545V27H201V22.5L207 18V21C207 21.2652 207.105 21.5196 207.293 21.7071C207.48 21.8946 207.735 22 208 22C208.265 22 208.52 21.8946 208.707 21.7071C208.895 21.5196 209 21.2652 209 21V18.01L215 22.545ZM215 9.455L214.279 10H201.666L201 9.5V5H215V9.455Z" fill="currentColor"/>
<path opacity="0.2" d="M262.615 11L256 16L249.334 11H262.615Z" fill="currentColor"/>
<path d="M265 9.455V5C265 4.46957 264.789 3.96086 264.414 3.58579C264.039 3.21071 263.53 3 263 3H249C248.47 3 247.961 3.21071 247.586 3.58579C247.211 3.96086 247 4.46957 247 5V9.5C247.001 9.81037 247.073 10.1164 247.212 10.394C247.351 10.6716 247.552 10.9132 247.8 11.1L254.334 16L247.8 20.9C247.552 21.0868 247.351 21.3284 247.212 21.606C247.073 21.8836 247.001 22.1896 247 22.5V27C247 27.5304 247.211 28.0391 247.586 28.4142C247.961 28.7893 248.47 29 249 29H263C263.53 29 264.039 28.7893 264.414 28.4142C264.789 28.0391 265 27.5304 265 27V22.545C264.999 22.2358 264.927 21.931 264.79 21.6541C264.652 21.3773 264.452 21.1359 264.206 20.9487L257.659 16L264.206 11.0513C264.452 10.8641 264.652 10.6227 264.79 10.3459C264.927 10.069 264.999 9.76418 265 9.455ZM249 5H263V9.455L262.279 10H249.666L249 9.5V5ZM256 14.75L252.334 12H259.634L256 14.75ZM263 27H249V22.5L255 18V21C255 21.2652 255.105 21.5196 255.293 21.7071C255.48 21.8946 255.735 22 256 22C256.265 22 256.52 21.8946 256.707 21.7071C256.895 21.5196 257 21.2652 257 21V18.01L263 22.545V27Z" fill="currentColor"/>
</g>
<defs>
<clipPath id="clip0_17_15697">
<rect width="272" height="32" rx="5" fill="white"/>
</clipPath>
</defs>
</svg>
