<svg width="272" height="32" viewBox="0 0 272 32" fill="none" xmlns="http://www.w3.org/2000/svg">
<g clip-path="url(#clip0_17_2619)">
<path d="M10.8436 5.5375L4.18487 16L10.8436 26.4625C10.9142 26.5734 10.9622 26.6971 10.985 26.8265C11.0077 26.9559 11.0047 27.0886 10.9762 27.2169C10.9476 27.3451 10.8941 27.4665 10.8186 27.5741C10.743 27.6817 10.6471 27.7733 10.5361 27.8438C10.3761 27.9463 10.1899 28.0005 9.99987 28C9.83136 28.0002 9.66554 27.9577 9.51781 27.8767C9.37008 27.7956 9.24524 27.6785 9.15487 27.5363L2.15487 16.5363C2.05277 16.3758 1.99854 16.1896 1.99854 15.9994C1.99854 15.8092 2.05277 15.623 2.15487 15.4625L9.15487 4.4625C9.29726 4.23872 9.52271 4.08068 9.78163 4.02313C10.0405 3.96558 10.3117 4.01324 10.5355 4.15563C10.7593 4.29801 10.9173 4.52347 10.9749 4.78238C11.0324 5.0413 10.9848 5.31247 10.8424 5.53625L10.8436 5.5375ZM29.8436 15.4638L22.8436 4.46375C22.7731 4.35295 22.6815 4.25712 22.5739 4.18173C22.4664 4.10634 22.3451 4.05287 22.2169 4.02438C21.958 3.96683 21.6868 4.01449 21.463 4.15688C21.2392 4.29926 21.0812 4.52472 21.0236 4.78363C20.9661 5.04255 21.0137 5.31372 21.1561 5.5375L27.8149 16L21.1561 26.4625C21.0855 26.5734 21.0375 26.6971 21.0148 26.8265C20.992 26.9559 20.995 27.0886 21.0236 27.2169C21.0521 27.3451 21.1057 27.4665 21.1812 27.5741C21.2567 27.6817 21.3527 27.7733 21.4636 27.8438C21.6236 27.9463 21.8098 28.0005 21.9999 28C22.1684 28.0002 22.3342 27.9577 22.4819 27.8767C22.6297 27.7956 22.7545 27.6785 22.8449 27.5363L29.8449 16.5363C29.9465 16.3758 30.0004 16.1898 30.0002 15.9998C30 15.8099 29.9457 15.6239 29.8436 15.4638Z" fill="currentColor"/>
<path d="M58.4214 5.26875L51.5926 16L58.4214 26.7313C58.4925 26.843 58.5165 26.9784 58.4879 27.1078C58.4593 27.2372 58.3805 27.3499 58.2689 27.4213C58.1886 27.4726 58.0954 27.4999 58.0001 27.5C57.9161 27.4999 57.8335 27.4787 57.7599 27.4383C57.6863 27.3979 57.624 27.3396 57.5789 27.2688L50.5789 16.2688C50.5277 16.1885 50.5005 16.0952 50.5005 16C50.5005 15.9048 50.5277 15.8115 50.5789 15.7313L57.5789 4.73125C57.6129 4.67337 57.6583 4.62294 57.7123 4.58298C57.7663 4.54302 57.8278 4.51435 57.8931 4.49868C57.9584 4.483 58.0262 4.48066 58.0925 4.49177C58.1587 4.50288 58.2221 4.52723 58.2787 4.56336C58.3353 4.59948 58.3841 4.64665 58.4221 4.70204C58.4601 4.75744 58.4865 4.81992 58.4998 4.88575C58.5131 4.95159 58.5131 5.01944 58.4996 5.08524C58.4861 5.15105 58.4595 5.21346 58.4214 5.26875ZM77.4214 15.7313L70.4214 4.73125C70.3873 4.67337 70.3419 4.62294 70.2879 4.58298C70.2339 4.54302 70.1724 4.51435 70.1071 4.49868C70.0418 4.483 69.974 4.48066 69.9077 4.49177C69.8415 4.50288 69.7782 4.52723 69.7215 4.56336C69.6649 4.59948 69.6161 4.64665 69.5781 4.70204C69.5401 4.75744 69.5137 4.81992 69.5004 4.88575C69.4871 4.95159 69.4872 5.01944 69.5006 5.08524C69.5141 5.15105 69.5407 5.21346 69.5789 5.26875L76.4076 16L69.5789 26.7313C69.5077 26.843 69.4837 26.9784 69.5123 27.1078C69.5409 27.2372 69.6197 27.3499 69.7314 27.4213C69.8116 27.4726 69.9049 27.4999 70.0001 27.5C70.0841 27.4999 70.1667 27.4787 70.2403 27.4383C70.314 27.3979 70.3762 27.3396 70.4214 27.2688L77.4214 16.2688C77.4725 16.1885 77.4997 16.0952 77.4997 16C77.4997 15.9048 77.4725 15.8115 77.4214 15.7313Z" fill="currentColor"/>
<path d="M106.633 5.4025L99.889 16L106.639 26.5975C106.746 26.7653 106.781 26.9685 106.738 27.1626C106.695 27.3567 106.577 27.5257 106.409 27.6325C106.241 27.7392 106.038 27.7749 105.844 27.7317C105.65 27.6886 105.481 27.5702 105.374 27.4025L98.374 16.4025C98.2975 16.2822 98.2568 16.1426 98.2568 16C98.2568 15.8574 98.2975 15.7178 98.374 15.5975L105.374 4.5975C105.483 4.43573 105.652 4.32301 105.843 4.28331C106.034 4.24361 106.233 4.28005 106.398 4.3849C106.563 4.48975 106.68 4.65472 106.725 4.84475C106.77 5.03478 106.739 5.23488 106.639 5.4025H106.633ZM125.633 15.5975L118.633 4.5975C118.581 4.51145 118.513 4.43659 118.432 4.37734C118.351 4.3181 118.259 4.27566 118.162 4.25255C118.064 4.22944 117.963 4.22612 117.864 4.24279C117.765 4.25946 117.671 4.29578 117.586 4.34961C117.502 4.40343 117.429 4.47366 117.372 4.55615C117.315 4.63865 117.275 4.73172 117.255 4.82988C117.234 4.92804 117.234 5.02929 117.253 5.12764C117.273 5.22599 117.312 5.31945 117.368 5.4025L124.111 16L117.368 26.5975C117.261 26.7653 117.225 26.9685 117.269 27.1626C117.312 27.3567 117.43 27.5257 117.598 27.6325C117.766 27.7392 117.969 27.7749 118.163 27.7317C118.357 27.6886 118.526 27.5702 118.633 27.4025L125.633 16.4025C125.709 16.2822 125.75 16.1426 125.75 16C125.75 15.8574 125.709 15.7178 125.633 15.5975Z" fill="currentColor"/>
<path d="M155.265 5.805L148.777 16L155.265 26.195C155.377 26.3611 155.455 26.548 155.494 26.7447C155.533 26.9414 155.532 27.1439 155.491 27.3402C155.45 27.5366 155.37 27.7227 155.257 27.8877C155.143 28.0527 154.997 28.1931 154.828 28.3008C154.658 28.4084 154.469 28.4811 154.272 28.5144C154.074 28.5478 153.872 28.5411 153.676 28.4949C153.481 28.4487 153.298 28.3638 153.136 28.2453C152.974 28.1268 152.838 27.9771 152.735 27.805L145.735 16.805C145.582 16.5644 145.5 16.2851 145.5 16C145.5 15.7148 145.582 15.4356 145.735 15.195L152.735 4.195C152.954 3.87146 153.29 3.64602 153.672 3.56662C154.055 3.48721 154.453 3.56011 154.783 3.7698C155.112 3.97949 155.347 4.30945 155.437 4.68951C155.527 5.06957 155.465 5.46976 155.265 5.805ZM174.265 15.195L167.265 4.195C167.162 4.02291 167.026 3.87319 166.864 3.75469C166.702 3.63619 166.518 3.55133 166.323 3.50511C166.128 3.45889 165.926 3.45225 165.728 3.48559C165.53 3.51893 165.341 3.59157 165.172 3.69921C165.003 3.80686 164.857 3.94733 164.743 4.11231C164.629 4.27729 164.549 4.46345 164.509 4.65976C164.468 4.85608 164.467 5.05858 164.506 5.25528C164.545 5.45199 164.622 5.63891 164.735 5.805L171.222 16L164.735 26.195C164.622 26.3611 164.545 26.548 164.506 26.7447C164.467 26.9414 164.468 27.1439 164.509 27.3402C164.549 27.5366 164.629 27.7227 164.743 27.8877C164.857 28.0527 165.003 28.1931 165.172 28.3008C165.341 28.4084 165.53 28.4811 165.728 28.5144C165.926 28.5478 166.128 28.5411 166.323 28.4949C166.518 28.4487 166.702 28.3638 166.864 28.2453C167.026 28.1268 167.162 27.9771 167.265 27.805L174.265 16.805C174.418 16.5644 174.499 16.2851 174.499 16C174.499 15.7148 174.418 15.4356 174.265 15.195Z" fill="currentColor"/>
<path d="M219 5H197C196.47 5 195.961 5.21071 195.586 5.58579C195.211 5.96086 195 6.46957 195 7V25C195 25.5304 195.211 26.0391 195.586 26.4142C195.961 26.7893 196.47 27 197 27H219C219.53 27 220.039 26.7893 220.414 26.4142C220.789 26.0391 221 25.5304 221 25V7C221 6.46957 220.789 5.96086 220.414 5.58579C220.039 5.21071 219.53 5 219 5ZM204.875 22.5C205.008 22.7312 205.043 23.0057 204.973 23.263C204.903 23.5202 204.734 23.7393 204.503 23.8719C204.272 24.0045 203.997 24.0398 203.74 23.9701C203.483 23.9003 203.264 23.7312 203.131 23.5L199.131 16.5C199.045 16.3489 198.999 16.1778 198.999 16.0037C198.999 15.8297 199.045 15.6586 199.131 15.5075L203.131 8.5075C203.263 8.27626 203.481 8.10678 203.738 8.03634C203.994 7.9659 204.268 8.00026 204.499 8.13188C204.731 8.26349 204.9 8.48157 204.971 8.73814C205.041 8.99472 205.007 9.26876 204.875 9.5L201.151 16L204.875 22.5ZM216.875 16.5L212.875 23.5C212.743 23.7304 212.526 23.8991 212.27 23.969C212.014 24.0388 211.74 24.0041 211.51 23.8725C211.28 23.7409 211.111 23.5231 211.041 23.2671C210.971 23.0112 211.006 22.7379 211.138 22.5075L214.855 16.0075L211.131 9.5C211.066 9.3855 211.023 9.2592 211.006 9.12829C210.989 8.99738 210.999 8.86443 211.033 8.73704C211.068 8.60965 211.127 8.49031 211.208 8.38583C211.288 8.28136 211.389 8.19379 211.503 8.12813C211.618 8.06246 211.744 8.02 211.875 8.00315C212.006 7.9863 212.139 7.99541 212.266 8.02994C212.393 8.06447 212.513 8.12375 212.617 8.20441C212.722 8.28506 212.809 8.3855 212.875 8.5L216.875 15.5C216.963 15.652 217.009 15.8245 217.009 16C217.009 16.1755 216.963 16.348 216.875 16.5Z" fill="currentColor"/>
<path opacity="0.2" d="M269 16L262 27H250L243 16L250 5H262L269 16Z" fill="currentColor"/>
<path d="M250.844 5.5375L244.185 16L250.844 26.4625C250.914 26.5734 250.962 26.6971 250.985 26.8265C251.008 26.9559 251.005 27.0886 250.976 27.2169C250.948 27.3451 250.894 27.4665 250.819 27.5741C250.743 27.6817 250.647 27.7733 250.536 27.8438C250.376 27.9463 250.19 28.0005 250 28C249.831 28.0002 249.666 27.9577 249.518 27.8767C249.37 27.7956 249.245 27.6785 249.155 27.5363L242.155 16.5363C242.053 16.3758 241.999 16.1896 241.999 15.9994C241.999 15.8092 242.053 15.623 242.155 15.4625L249.155 4.4625C249.297 4.23872 249.523 4.08068 249.782 4.02313C250.041 3.96558 250.312 4.01324 250.535 4.15563C250.759 4.29801 250.917 4.52347 250.975 4.78238C251.032 5.0413 250.985 5.31247 250.842 5.53625L250.844 5.5375ZM269.844 15.4638L262.844 4.46375C262.773 4.35295 262.681 4.25712 262.574 4.18173C262.466 4.10634 262.345 4.05287 262.217 4.02438C261.958 3.96683 261.687 4.01449 261.463 4.15688C261.239 4.29926 261.081 4.52472 261.024 4.78363C260.966 5.04255 261.014 5.31372 261.156 5.5375L267.815 16L261.156 26.4625C261.086 26.5734 261.038 26.6971 261.015 26.8265C260.992 26.9559 260.995 27.0886 261.024 27.2169C261.052 27.3451 261.106 27.4665 261.181 27.5741C261.257 27.6817 261.353 27.7733 261.464 27.8438C261.624 27.9463 261.81 28.0005 262 28C262.168 28.0002 262.334 27.9577 262.482 27.8767C262.63 27.7956 262.755 27.6785 262.845 27.5363L269.845 16.5363C269.947 16.3758 270 16.1898 270 15.9998C270 15.8099 269.946 15.6239 269.844 15.4638Z" fill="currentColor"/>
</g>
<defs>
<clipPath id="clip0_17_2619">
<rect width="272" height="32" rx="5" fill="white"/>
</clipPath>
</defs>
</svg>
