<svg width="272" height="32" viewBox="0 0 272 32" fill="none" xmlns="http://www.w3.org/2000/svg">
<g clip-path="url(#clip0_17_2563)">
<path d="M18 11.5C18 11.2033 18.088 10.9133 18.2528 10.6666C18.4176 10.42 18.6519 10.2277 18.926 10.1142C19.2001 10.0006 19.5017 9.97094 19.7926 10.0288C20.0836 10.0867 20.3509 10.2296 20.5607 10.4393C20.7704 10.6491 20.9133 10.9164 20.9712 11.2074C21.0291 11.4983 20.9993 11.7999 20.8858 12.074C20.7723 12.3481 20.58 12.5824 20.3334 12.7472C20.0867 12.912 19.7967 13 19.5 13C19.1022 13 18.7206 12.842 18.4393 12.5607C18.158 12.2794 18 11.8978 18 11.5ZM12.5 10C12.2033 10 11.9133 10.088 11.6666 10.2528C11.42 10.4176 11.2277 10.6519 11.1142 10.926C11.0006 11.2001 10.9709 11.5017 11.0288 11.7926C11.0867 12.0836 11.2296 12.3509 11.4393 12.5607C11.6491 12.7704 11.9164 12.9133 12.2074 12.9712C12.4983 13.0291 12.7999 12.9993 13.074 12.8858C13.3481 12.7723 13.5824 12.58 13.7472 12.3334C13.912 12.0867 14 11.7967 14 11.5C14 11.1022 13.842 10.7206 13.5607 10.4393C13.2794 10.158 12.8978 10 12.5 10ZM27 18C27.0028 18.9707 26.8766 19.9375 26.625 20.875L29.405 22.09C29.6121 22.1843 29.7808 22.3465 29.8833 22.5496C29.9858 22.7528 30.0159 22.9849 29.9687 23.2075C29.9215 23.4301 29.7998 23.6299 29.6237 23.774C29.4476 23.9181 29.2276 23.9978 29 24C28.8623 24.0003 28.726 23.9718 28.6 23.9162L25.9225 22.75C25.0267 24.622 23.6197 26.2023 21.8639 27.3086C20.1082 28.4149 18.0752 29.0019 16 29.0019C13.9248 29.0019 11.8918 28.4149 10.1361 27.3086C8.38028 26.2023 6.97326 24.622 6.0775 22.75L3.4 23.9162C3.27398 23.9718 3.13772 24.0003 3 24C2.77037 23.9999 2.54778 23.9207 2.36963 23.7758C2.19148 23.6309 2.06863 23.4291 2.02171 23.2043C1.97478 22.9795 2.00665 22.7455 2.11196 22.5414C2.21727 22.3373 2.3896 22.1757 2.6 22.0837L5.375 20.875C5.12335 19.9375 4.99725 18.9707 5 18V17H2C1.73478 17 1.48043 16.8946 1.29289 16.7071C1.10536 16.5196 1 16.2652 1 16C1 15.7348 1.10536 15.4804 1.29289 15.2929C1.48043 15.1054 1.73478 15 2 15H5V14C4.99725 13.0293 5.12335 12.0625 5.375 11.125L2.6 9.91625C2.4768 9.86566 2.36495 9.79099 2.271 9.69659C2.17706 9.6022 2.10291 9.48999 2.05292 9.36655C2.00293 9.24311 1.9781 9.11093 1.97989 8.97776C1.98167 8.8446 2.01004 8.71313 2.06332 8.59108C2.11661 8.46902 2.19374 8.35884 2.29018 8.267C2.38662 8.17516 2.50044 8.10351 2.62495 8.05625C2.74946 8.00899 2.88215 7.98708 3.01525 7.9918C3.14834 7.99653 3.27915 8.02778 3.4 8.08375L6.0775 9.25C6.97326 7.37803 8.38028 5.79765 10.1361 4.69137C11.8918 3.58509 13.9248 2.99805 16 2.99805C18.0752 2.99805 20.1082 3.58509 21.8639 4.69137C23.6197 5.79765 25.0267 7.37803 25.9225 9.25L28.6 8.08C28.8418 7.98072 29.1129 7.98007 29.3552 8.07819C29.5975 8.17631 29.7917 8.3654 29.8963 8.60497C30.0009 8.84453 30.0075 9.11553 29.9147 9.35991C29.822 9.6043 29.6372 9.80266 29.4 9.9125L26.625 11.1312C26.8766 12.0688 27.0028 13.0355 27 14.0062V15.0062H30C30.2652 15.0062 30.5196 15.1116 30.7071 15.2991C30.8946 15.4867 31 15.741 31 16.0062C31 16.2715 30.8946 16.5258 30.7071 16.7134C30.5196 16.9009 30.2652 17.0062 30 17.0062H27V18ZM7 15H25V14C25 11.613 24.0518 9.32386 22.364 7.63603C20.6761 5.94821 18.3869 5 16 5C13.6131 5 11.3239 5.94821 9.63604 7.63603C7.94821 9.32386 7 11.613 7 14V15ZM15 26.9425V17H7V18C7.00263 20.2129 7.81952 22.3474 9.29493 23.9966C10.7703 25.6458 12.8011 26.6944 15 26.9425ZM25 18V17H17V26.9425C19.1989 26.6944 21.2297 25.6458 22.7051 23.9966C24.1805 22.3474 24.9974 20.2129 25 18Z" fill="currentColor"/>
<path d="M66.5 11.5C66.5 11.3022 66.5586 11.1089 66.6685 10.9444C66.7784 10.78 66.9346 10.6518 67.1173 10.5761C67.3 10.5004 67.5011 10.4806 67.6951 10.5192C67.8891 10.5578 68.0673 10.653 68.2071 10.7929C68.347 10.9327 68.4422 11.1109 68.4808 11.3049C68.5194 11.4989 68.4996 11.7 68.4239 11.8827C68.3482 12.0654 68.22 12.2216 68.0556 12.3315C67.8911 12.4414 67.6978 12.5 67.5 12.5C67.2348 12.5 66.9804 12.3946 66.7929 12.2071C66.6054 12.0196 66.5 11.7652 66.5 11.5ZM60.5 10.5C60.3022 10.5 60.1089 10.5587 59.9444 10.6685C59.78 10.7784 59.6518 10.9346 59.5761 11.1173C59.5004 11.3 59.4806 11.5011 59.5192 11.6951C59.5578 11.8891 59.653 12.0673 59.7929 12.2071C59.9327 12.347 60.1109 12.4422 60.3049 12.4808C60.4989 12.5194 60.7 12.4996 60.8827 12.4239C61.0654 12.3482 61.2216 12.22 61.3315 12.0556C61.4414 11.8911 61.5 11.6978 61.5 11.5C61.5 11.2348 61.3946 10.9804 61.2071 10.7929C61.0196 10.6054 60.7652 10.5 60.5 10.5ZM78.5 16C78.5 16.1326 78.4473 16.2598 78.3536 16.3536C78.2598 16.4473 78.1326 16.5 78 16.5H74.5V18C74.5007 19.0686 74.3375 20.1309 74.0163 21.15L77.2 22.5413C77.3056 22.587 77.3921 22.6678 77.4451 22.77C77.498 22.8722 77.5141 22.9895 77.4906 23.1021C77.4671 23.2148 77.4055 23.3159 77.3161 23.3883C77.2267 23.4608 77.1151 23.5003 77 23.5C76.9312 23.4998 76.8632 23.4858 76.8 23.4588L73.675 22.09C72.871 23.9901 71.5251 25.6112 69.8054 26.7509C68.0856 27.8906 66.0681 28.4984 64.005 28.4984C61.9418 28.4984 59.9244 27.8906 58.2046 26.7509C56.4849 25.6112 55.139 23.9901 54.335 22.09L51.21 23.4588C51.1437 23.4872 51.0721 23.5012 51 23.5C50.8849 23.5003 50.7733 23.4608 50.6839 23.3883C50.5945 23.3159 50.5329 23.2148 50.5094 23.1021C50.4859 22.9895 50.502 22.8722 50.5549 22.77C50.6079 22.6678 50.6944 22.587 50.8 22.5413L53.9837 21.15C53.6625 20.1309 53.4993 19.0686 53.5 18V16.5H50C49.8674 16.5 49.7402 16.4473 49.6464 16.3536C49.5527 16.2598 49.5 16.1326 49.5 16C49.5 15.8674 49.5527 15.7402 49.6464 15.6465C49.7402 15.5527 49.8674 15.5 50 15.5H53.5V14C53.4993 12.9315 53.6625 11.8691 53.9837 10.85L50.8 9.45875C50.6783 9.40571 50.5827 9.30651 50.5342 9.18297C50.4857 9.05943 50.4882 8.92167 50.5412 8.8C50.5943 8.67834 50.6935 8.58272 50.817 8.5342C50.9406 8.48567 51.0783 8.48821 51.2 8.54125L54.325 9.91625C55.129 8.01619 56.4749 6.39508 58.1946 5.25537C59.9144 4.11565 61.9319 3.50784 63.995 3.50784C66.0581 3.50784 68.0756 4.11565 69.7954 5.25537C71.5151 6.39508 72.861 8.01619 73.665 9.91625L76.79 8.54125C76.8502 8.51499 76.9151 8.50085 76.9808 8.49964C77.0465 8.49843 77.1118 8.51017 77.173 8.5342C77.2341 8.55822 77.29 8.59407 77.3373 8.63967C77.3846 8.68528 77.4225 8.73976 77.4487 8.8C77.475 8.86025 77.4892 8.92507 77.4904 8.99078C77.4916 9.05649 77.4798 9.1218 77.4558 9.18297C77.4318 9.24414 77.3959 9.29998 77.3503 9.3473C77.3047 9.39462 77.2502 9.43249 77.19 9.45875L74.0163 10.85C74.3375 11.8691 74.5007 12.9315 74.5 14V15.5H78C78.1326 15.5 78.2598 15.5527 78.3536 15.6465C78.4473 15.7402 78.5 15.8674 78.5 16ZM54.5 15.5H73.5V14C73.5 11.4804 72.4991 9.06409 70.7175 7.28249C68.9359 5.50089 66.5196 4.5 64 4.5C61.4804 4.5 59.0641 5.50089 57.2825 7.28249C55.5009 9.06409 54.5 11.4804 54.5 14V15.5ZM63.5 27.4863V16.5H54.5V18C54.5029 20.4321 55.4373 22.7707 57.1113 24.5351C58.7852 26.2994 61.0714 27.3555 63.5 27.4863ZM73.5 16.5H64.5V27.4863C66.9286 27.3555 69.2148 26.2994 70.8887 24.5351C72.5627 22.7707 73.4971 20.4321 73.5 18V16.5Z" fill="currentColor"/>
<path d="M114.25 11.5C114.25 11.2528 114.323 11.0111 114.461 10.8055C114.598 10.6 114.793 10.4398 115.022 10.3452C115.25 10.2506 115.501 10.2258 115.744 10.274C115.986 10.3223 116.209 10.4413 116.384 10.6161C116.559 10.7909 116.678 11.0137 116.726 11.2561C116.774 11.4986 116.749 11.75 116.655 11.9784C116.56 12.2068 116.4 12.402 116.194 12.5393C115.989 12.6767 115.747 12.75 115.5 12.75C115.168 12.75 114.851 12.6183 114.616 12.3839C114.382 12.1495 114.25 11.8315 114.25 11.5ZM108.5 10.25C108.253 10.25 108.011 10.3233 107.806 10.4607C107.6 10.598 107.44 10.7932 107.345 11.0217C107.251 11.2501 107.226 11.5014 107.274 11.7439C107.322 11.9864 107.441 12.2091 107.616 12.3839C107.791 12.5587 108.014 12.6778 108.256 12.726C108.499 12.7742 108.75 12.7495 108.978 12.6549C109.207 12.5603 109.402 12.4 109.539 12.1945C109.677 11.9889 109.75 11.7472 109.75 11.5C109.75 11.1685 109.618 10.8505 109.384 10.6161C109.149 10.3817 108.832 10.25 108.5 10.25ZM126.75 16C126.75 16.1989 126.671 16.3897 126.53 16.5303C126.39 16.671 126.199 16.75 126 16.75H122.75V18C122.75 19.0187 122.605 20.0322 122.319 21.01L125.3 22.3125C125.482 22.3921 125.626 22.5408 125.698 22.726C125.771 22.9112 125.767 23.1177 125.688 23.3C125.608 23.4823 125.459 23.6256 125.274 23.6983C125.089 23.7709 124.882 23.7671 124.7 23.6875L121.796 22.4188C120.945 24.3034 119.567 25.9023 117.83 27.0239C116.092 28.1455 114.068 28.742 112 28.742C109.932 28.742 107.908 28.1455 106.17 27.0239C104.433 25.9023 103.055 24.3034 102.204 22.4188L99.3 23.6875C99.2097 23.7269 99.1126 23.7481 99.0141 23.75C98.9156 23.7518 98.8177 23.7343 98.726 23.6983C98.6343 23.6623 98.5506 23.6086 98.4796 23.5403C98.4087 23.4719 98.3519 23.3903 98.3125 23.3C98.2329 23.1177 98.2291 22.9112 98.3017 22.726C98.3744 22.5408 98.5177 22.3921 98.7 22.3125L101.681 21.01C101.395 20.0322 101.25 19.0187 101.25 18V16.75H98C97.8011 16.75 97.6103 16.671 97.4697 16.5303C97.329 16.3897 97.25 16.1989 97.25 16C97.25 15.8011 97.329 15.6103 97.4697 15.4697C97.6103 15.329 97.8011 15.25 98 15.25H101.25V14C101.25 12.9813 101.395 11.9678 101.681 10.99L98.7 9.68751C98.5177 9.60795 98.3744 9.45921 98.3017 9.27401C98.2291 9.08882 98.2329 8.88235 98.3125 8.70001C98.3921 8.51767 98.5408 8.37441 98.726 8.30174C98.9112 8.22907 99.1177 8.23295 99.3 8.31251L102.204 9.58126C103.055 7.69664 104.433 6.09767 106.17 4.97611C107.908 3.85455 109.932 3.258 112 3.258C114.068 3.258 116.092 3.85455 117.83 4.97611C119.567 6.09767 120.945 7.69664 121.796 9.58126L124.7 8.31251C124.882 8.23295 125.089 8.22907 125.274 8.30174C125.459 8.37441 125.608 8.51767 125.688 8.70001C125.767 8.88235 125.771 9.08882 125.698 9.27401C125.626 9.45921 125.482 9.60795 125.3 9.68751L122.319 10.99C122.605 11.9678 122.75 12.9813 122.75 14V15.25H126C126.199 15.25 126.39 15.329 126.53 15.4697C126.671 15.6103 126.75 15.8011 126.75 16ZM102.75 15.25H121.25V14C121.25 11.5468 120.275 9.19398 118.541 7.45927C116.806 5.72456 114.453 4.75001 112 4.75001C109.547 4.75001 107.194 5.72456 105.459 7.45927C103.725 9.19398 102.75 11.5468 102.75 14V15.25ZM111.25 27.2175V16.75H102.75V18C102.753 20.3223 103.629 22.5587 105.203 24.2659C106.777 25.9732 108.936 27.0266 111.25 27.2175ZM121.25 16.75H112.75V27.2175C115.064 27.0266 117.223 25.9732 118.797 24.2659C120.371 22.5587 121.247 20.3223 121.25 18V16.75Z" fill="currentColor"/>
<path d="M161.5 11C161.5 10.6045 161.617 10.2178 161.837 9.88887C162.057 9.55997 162.369 9.30363 162.735 9.15225C163.1 9.00088 163.502 8.96127 163.89 9.03844C164.278 9.11561 164.635 9.30609 164.914 9.5858C165.194 9.8655 165.384 10.2219 165.462 10.6098C165.539 10.9978 165.499 11.3999 165.348 11.7654C165.196 12.1308 164.94 12.4432 164.611 12.663C164.282 12.8827 163.896 13 163.5 13C162.97 13 162.461 12.7893 162.086 12.4142C161.711 12.0392 161.5 11.5304 161.5 11ZM156.5 9.00001C156.104 9.00001 155.718 9.11731 155.389 9.33707C155.06 9.55684 154.804 9.86919 154.652 10.2346C154.501 10.6001 154.461 11.0022 154.538 11.3902C154.616 11.7782 154.806 12.1345 155.086 12.4142C155.365 12.6939 155.722 12.8844 156.11 12.9616C156.498 13.0388 156.9 12.9991 157.265 12.8478C157.631 12.6964 157.943 12.4401 158.163 12.1112C158.383 11.7823 158.5 11.3956 158.5 11C158.5 10.4696 158.289 9.96087 157.914 9.5858C157.539 9.21073 157.03 9.00001 156.5 9.00001ZM171.5 18C171.5 18.8683 171.402 19.7338 171.208 20.58L173.601 21.625C173.782 21.704 173.945 21.8177 174.082 21.9598C174.218 22.1018 174.326 22.2694 174.397 22.4529C174.469 22.6364 174.504 22.8323 174.5 23.0293C174.497 23.2263 174.454 23.4207 174.375 23.6013C174.296 23.7818 174.182 23.9451 174.04 24.0817C173.898 24.2183 173.731 24.3256 173.547 24.3974C173.364 24.4693 173.168 24.5043 172.971 24.5004C172.774 24.4966 172.579 24.454 172.399 24.375L170.149 23.3938C169.169 25.2362 167.706 26.7774 165.918 27.8521C164.129 28.9268 162.082 29.4946 159.995 29.4946C157.908 29.4946 155.861 28.9268 154.072 27.8521C152.284 26.7774 150.821 25.2362 149.841 23.3938L147.591 24.375C147.411 24.454 147.216 24.4966 147.019 24.5004C146.822 24.5043 146.626 24.4693 146.443 24.3974C146.259 24.3256 146.092 24.2183 145.95 24.0817C145.808 23.9451 145.694 23.7818 145.615 23.6013C145.536 23.4207 145.493 23.2263 145.49 23.0293C145.486 22.8323 145.521 22.6364 145.593 22.4529C145.664 22.2694 145.772 22.1018 145.908 21.9598C146.045 21.8177 146.208 21.704 146.389 21.625L148.782 20.58C148.591 19.7335 148.496 18.8679 148.5 18V17.5H146C145.602 17.5 145.221 17.342 144.939 17.0607C144.658 16.7794 144.5 16.3978 144.5 16C144.5 15.6022 144.658 15.2207 144.939 14.9394C145.221 14.658 145.602 14.5 146 14.5H148.5V14C148.5 13.1317 148.598 12.2662 148.793 11.42L146.399 10.375C146.034 10.2156 145.748 9.91776 145.603 9.54714C145.457 9.17652 145.466 8.76344 145.625 8.39876C145.784 8.03409 146.082 7.7477 146.453 7.60259C146.823 7.45749 147.237 7.46555 147.601 7.62501L149.851 8.60626C150.831 6.76382 152.294 5.22267 154.082 4.14796C155.871 3.07324 157.918 2.50546 160.005 2.50546C162.092 2.50546 164.139 3.07324 165.928 4.14796C167.716 5.22267 169.179 6.76382 170.159 8.60626L172.409 7.62501C172.589 7.54606 172.784 7.50344 172.981 7.49959C173.178 7.49574 173.374 7.53074 173.557 7.60259C173.741 7.67444 173.908 7.78173 174.05 7.91834C174.192 8.05495 174.306 8.21819 174.385 8.39876C174.464 8.57933 174.507 8.77368 174.51 8.97072C174.514 9.16776 174.479 9.36362 174.407 9.54714C174.336 9.73065 174.228 9.89821 174.092 10.0403C173.955 10.1823 173.792 10.2961 173.611 10.375L171.218 11.42C171.409 12.2666 171.504 13.1321 171.5 14V14.5H174C174.398 14.5 174.779 14.658 175.061 14.9394C175.342 15.2207 175.5 15.6022 175.5 16C175.5 16.3978 175.342 16.7794 175.061 17.0607C174.779 17.342 174.398 17.5 174 17.5H171.5V18ZM151.5 14.5H168.5V14C168.5 11.7457 167.604 9.58366 166.01 7.9896C164.416 6.39555 162.254 5.50001 160 5.50001C157.746 5.50001 155.584 6.39555 153.99 7.9896C152.396 9.58366 151.5 11.7457 151.5 14V14.5ZM158.5 26.365V17.5H151.5V18C151.503 19.9933 152.205 21.9223 153.484 23.451C154.763 24.9796 156.538 26.0109 158.5 26.365ZM168.5 18V17.5H161.5V26.365C163.462 26.0109 165.237 24.9796 166.516 23.451C167.795 21.9223 168.497 19.9933 168.5 18Z" fill="currentColor"/>
<path d="M213 11.5C213 11.7967 212.912 12.0867 212.747 12.3334C212.582 12.58 212.348 12.7723 212.074 12.8858C211.8 12.9993 211.498 13.0291 211.207 12.9712C210.916 12.9133 210.649 12.7704 210.439 12.5607C210.23 12.3509 210.087 12.0836 210.029 11.7926C209.971 11.5017 210.001 11.2001 210.114 10.926C210.228 10.6519 210.42 10.4176 210.667 10.2528C210.913 10.088 211.203 10 211.5 10C211.898 10 212.279 10.158 212.561 10.4393C212.842 10.7206 213 11.1022 213 11.5ZM204.5 10C204.203 10 203.913 10.088 203.667 10.2528C203.42 10.4176 203.228 10.6519 203.114 10.926C203.001 11.2001 202.971 11.5017 203.029 11.7926C203.087 12.0836 203.23 12.3509 203.439 12.5607C203.649 12.7704 203.916 12.9133 204.207 12.9712C204.498 13.0291 204.8 12.9993 205.074 12.8858C205.348 12.7723 205.582 12.58 205.747 12.3334C205.912 12.0867 206 11.7967 206 11.5C206 11.1022 205.842 10.7206 205.561 10.4393C205.279 10.158 204.898 10 204.5 10ZM219 18C219.003 18.9707 218.877 19.9375 218.625 20.875L221.405 22.09C221.612 22.1843 221.781 22.3465 221.883 22.5496C221.986 22.7528 222.016 22.9849 221.969 23.2075C221.922 23.4301 221.8 23.6299 221.624 23.774C221.448 23.9181 221.228 23.9978 221 24C220.862 24.0003 220.726 23.9718 220.6 23.9162L217.923 22.75C217.027 24.622 215.62 26.2023 213.864 27.3086C212.108 28.4149 210.075 29.0019 208 29.0019C205.925 29.0019 203.892 28.4149 202.136 27.3086C200.38 26.2023 198.973 24.622 198.077 22.75L195.4 23.9162C195.274 23.9718 195.138 24.0003 195 24C194.77 23.9999 194.548 23.9207 194.37 23.7758C194.191 23.6309 194.069 23.4291 194.022 23.2043C193.975 22.9795 194.007 22.7455 194.112 22.5414C194.217 22.3373 194.39 22.1757 194.6 22.0837L197.375 20.875C197.123 19.9375 196.997 18.9707 197 18V17H194C193.735 17 193.48 16.8946 193.293 16.7071C193.105 16.5196 193 16.2652 193 16C193 15.7348 193.105 15.4804 193.293 15.2929C193.48 15.1054 193.735 15 194 15H197V14C196.997 13.0293 197.123 12.0625 197.375 11.125L194.6 9.91625C194.477 9.86566 194.365 9.79099 194.271 9.69659C194.177 9.6022 194.103 9.48999 194.053 9.36655C194.003 9.24311 193.978 9.11093 193.98 8.97776C193.982 8.8446 194.01 8.71313 194.063 8.59108C194.117 8.46902 194.194 8.35884 194.29 8.267C194.387 8.17516 194.5 8.10351 194.625 8.05625C194.749 8.00899 194.882 7.98708 195.015 7.9918C195.148 7.99653 195.279 8.02778 195.4 8.08375L198.077 9.25C198.973 7.37803 200.38 5.79765 202.136 4.69137C203.892 3.58509 205.925 2.99805 208 2.99805C210.075 2.99805 212.108 3.58509 213.864 4.69137C215.62 5.79765 217.027 7.37803 217.923 9.25L220.6 8.08C220.842 7.98072 221.113 7.98007 221.355 8.07819C221.597 8.17631 221.792 8.3654 221.896 8.60497C222.001 8.84453 222.007 9.11553 221.915 9.35991C221.822 9.6043 221.637 9.80266 221.4 9.9125L218.625 11.1312C218.877 12.0688 219.003 13.0355 219 14.0062V15.0062H222C222.265 15.0062 222.52 15.1116 222.707 15.2991C222.895 15.4867 223 15.741 223 16.0062C223 16.2715 222.895 16.5258 222.707 16.7134C222.52 16.9009 222.265 17.0062 222 17.0062H219V18ZM209 18C209 17.7348 208.895 17.4804 208.707 17.2929C208.52 17.1054 208.265 17 208 17C207.735 17 207.48 17.1054 207.293 17.2929C207.105 17.4804 207 17.7348 207 18V26C207 26.2652 207.105 26.5196 207.293 26.7071C207.48 26.8946 207.735 27 208 27C208.265 27 208.52 26.8946 208.707 26.7071C208.895 26.5196 209 26.2652 209 26V18ZM217 14C217 11.613 216.052 9.32386 214.364 7.63603C212.676 5.94821 210.387 5 208 5C205.613 5 203.324 5.94821 201.636 7.63603C199.948 9.32386 199 11.613 199 14V15H217V14Z" fill="currentColor"/>
<path opacity="0.2" d="M266 16V18C266 20.6522 264.946 23.1957 263.071 25.0711C261.196 26.9464 258.652 28 256 28C253.348 28 250.804 26.9464 248.929 25.0711C247.054 23.1957 246 20.6522 246 18V16H266Z" fill="currentColor"/>
<path d="M258 11.5C258 11.2033 258.088 10.9133 258.253 10.6666C258.418 10.42 258.652 10.2277 258.926 10.1142C259.2 10.0006 259.502 9.97094 259.793 10.0288C260.084 10.0867 260.351 10.2296 260.561 10.4393C260.77 10.6491 260.913 10.9164 260.971 11.2074C261.029 11.4983 260.999 11.7999 260.886 12.074C260.772 12.3481 260.58 12.5824 260.333 12.7472C260.087 12.912 259.797 13 259.5 13C259.102 13 258.721 12.842 258.439 12.5607C258.158 12.2794 258 11.8978 258 11.5ZM252.5 10C252.203 10 251.913 10.088 251.667 10.2528C251.42 10.4176 251.228 10.6519 251.114 10.926C251.001 11.2001 250.971 11.5017 251.029 11.7926C251.087 12.0836 251.23 12.3509 251.439 12.5607C251.649 12.7704 251.916 12.9133 252.207 12.9712C252.498 13.0291 252.8 12.9993 253.074 12.8858C253.348 12.7723 253.582 12.58 253.747 12.3334C253.912 12.0867 254 11.7967 254 11.5C254 11.1022 253.842 10.7206 253.561 10.4393C253.279 10.158 252.898 10 252.5 10ZM267 18C267.003 18.9707 266.877 19.9375 266.625 20.875L269.405 22.09C269.612 22.1843 269.781 22.3465 269.883 22.5496C269.986 22.7528 270.016 22.9849 269.969 23.2075C269.922 23.4301 269.8 23.6299 269.624 23.774C269.448 23.9181 269.228 23.9978 269 24C268.862 24.0003 268.726 23.9718 268.6 23.9162L265.923 22.75C265.027 24.622 263.62 26.2023 261.864 27.3086C260.108 28.4149 258.075 29.0019 256 29.0019C253.925 29.0019 251.892 28.4149 250.136 27.3086C248.38 26.2023 246.973 24.622 246.077 22.75L243.4 23.9162C243.274 23.9718 243.138 24.0003 243 24C242.77 23.9999 242.548 23.9207 242.37 23.7758C242.191 23.6309 242.069 23.4291 242.022 23.2043C241.975 22.9795 242.007 22.7455 242.112 22.5414C242.217 22.3373 242.39 22.1757 242.6 22.0837L245.375 20.875C245.123 19.9375 244.997 18.9707 245 18V17H242C241.735 17 241.48 16.8946 241.293 16.7071C241.105 16.5196 241 16.2652 241 16C241 15.7348 241.105 15.4804 241.293 15.2929C241.48 15.1054 241.735 15 242 15H245V14C244.997 13.0293 245.123 12.0625 245.375 11.125L242.6 9.91625C242.477 9.86566 242.365 9.79099 242.271 9.69659C242.177 9.6022 242.103 9.48999 242.053 9.36655C242.003 9.24311 241.978 9.11093 241.98 8.97776C241.982 8.8446 242.01 8.71313 242.063 8.59108C242.117 8.46902 242.194 8.35884 242.29 8.267C242.387 8.17516 242.5 8.10351 242.625 8.05625C242.749 8.00899 242.882 7.98708 243.015 7.9918C243.148 7.99653 243.279 8.02778 243.4 8.08375L246.077 9.25C246.973 7.37803 248.38 5.79765 250.136 4.69137C251.892 3.58509 253.925 2.99805 256 2.99805C258.075 2.99805 260.108 3.58509 261.864 4.69137C263.62 5.79765 265.027 7.37803 265.923 9.25L268.6 8.08C268.842 7.98072 269.113 7.98007 269.355 8.07819C269.597 8.17631 269.792 8.3654 269.896 8.60497C270.001 8.84453 270.007 9.11553 269.915 9.35991C269.822 9.6043 269.637 9.80266 269.4 9.9125L266.625 11.1312C266.877 12.0688 267.003 13.0355 267 14.0062V15.0062H270C270.265 15.0062 270.52 15.1116 270.707 15.2991C270.895 15.4867 271 15.741 271 16.0062C271 16.2715 270.895 16.5258 270.707 16.7134C270.52 16.9009 270.265 17.0062 270 17.0062H267V18ZM247 15H265V14C265 11.613 264.052 9.32386 262.364 7.63603C260.676 5.94821 258.387 5 256 5C253.613 5 251.324 5.94821 249.636 7.63603C247.948 9.32386 247 11.613 247 14V15ZM255 26.9425V17H247V18C247.003 20.2129 247.82 22.3474 249.295 23.9966C250.77 25.6458 252.801 26.6944 255 26.9425ZM265 18V17H257V26.9425C259.199 26.6944 261.23 25.6458 262.705 23.9966C264.18 22.3474 264.997 20.2129 265 18Z" fill="currentColor"/>
</g>
<defs>
<clipPath id="clip0_17_2563">
<rect width="272" height="32" rx="5" fill="white"/>
</clipPath>
</defs>
</svg>
