<svg width="272" height="32" viewBox="0 0 272 32" fill="none" xmlns="http://www.w3.org/2000/svg">
<g clip-path="url(#clip0_17_2549)">
<path d="M26 18H28C28.2652 18 28.5196 17.8947 28.7071 17.7071C28.8946 17.5196 29 17.2652 29 17C29 16.7348 28.8946 16.4804 28.7071 16.2929C28.5196 16.1054 28.2652 16 28 16H26V14H28C28.2652 14 28.5196 13.8946 28.7071 13.7071C28.8946 13.5196 29 13.2652 29 13C29 12.7348 28.8946 12.4804 28.7071 12.2929C28.5196 12.1054 28.2652 12 28 12H25.95C25.7291 9.8052 24.7866 7.74561 23.27 6.14376L25.7075 3.70751C25.8004 3.6146 25.8741 3.5043 25.9244 3.3829C25.9747 3.26151 26.0006 3.1314 26.0006 3.00001C26.0006 2.86861 25.9747 2.7385 25.9244 2.61711C25.8741 2.49572 25.8004 2.38542 25.7075 2.29251C25.6146 2.1996 25.5043 2.1259 25.3829 2.07561C25.2615 2.02533 25.1314 1.99945 25 1.99945C24.8686 1.99945 24.7385 2.02533 24.6171 2.07561C24.4957 2.1259 24.3854 2.1996 24.2925 2.29251L21.7563 4.83001C20.073 3.63928 18.0619 2.99987 16 2.99987C13.9381 2.99987 11.927 3.63928 10.2437 4.83001L7.7075 2.29251C7.51986 2.10487 7.26536 1.99945 7 1.99945C6.73464 1.99945 6.48014 2.10487 6.2925 2.29251C6.10486 2.48015 5.99944 2.73464 5.99944 3.00001C5.99944 3.26537 6.10486 3.51987 6.2925 3.70751L8.73 6.14376C7.21341 7.74561 6.27088 9.8052 6.05 12H4C3.73478 12 3.48043 12.1054 3.29289 12.2929C3.10536 12.4804 3 12.7348 3 13C3 13.2652 3.10536 13.5196 3.29289 13.7071C3.48043 13.8946 3.73478 14 4 14H6V16H4C3.73478 16 3.48043 16.1054 3.29289 16.2929C3.10536 16.4804 3 16.7348 3 17C3 17.2652 3.10536 17.5196 3.29289 17.7071C3.48043 17.8947 3.73478 18 4 18H6V19C6 19.3375 6.0175 19.6713 6.05 20H4C3.73478 20 3.48043 20.1054 3.29289 20.2929C3.10536 20.4804 3 20.7348 3 21C3 21.2652 3.10536 21.5196 3.29289 21.7071C3.48043 21.8947 3.73478 22 4 22H6.46C7.09808 24.0304 8.36733 25.8043 10.0831 27.0636C11.7989 28.3229 13.8717 29.0019 16 29.0019C18.1283 29.0019 20.2011 28.3229 21.9169 27.0636C23.6327 25.8043 24.9019 24.0304 25.54 22H28C28.2652 22 28.5196 21.8947 28.7071 21.7071C28.8946 21.5196 29 21.2652 29 21C29 20.7348 28.8946 20.4804 28.7071 20.2929C28.5196 20.1054 28.2652 20 28 20H25.95C25.9825 19.6713 26 19.3375 26 19V18ZM16 5.00001C17.9476 5.00243 19.8276 5.71449 21.2882 7.00293C22.7487 8.29138 23.6897 10.0679 23.935 12H8.06C8.30542 10.067 9.24712 8.28984 10.7087 7.00128C12.1703 5.71273 14.0515 5.00122 16 5.00001ZM17 26.935V17C17 16.7348 16.8946 16.4804 16.7071 16.2929C16.5196 16.1054 16.2652 16 16 16C15.7348 16 15.4804 16.1054 15.2929 16.2929C15.1054 16.4804 15 16.7348 15 17V26.935C13.0679 26.6897 11.2914 25.7487 10.0029 24.2882C8.71449 22.8276 8.00242 20.9476 8 19V14H24V19C23.9976 20.9476 23.2855 22.8276 21.9971 24.2882C20.7086 25.7487 18.9321 26.6897 17 26.935Z" fill="currentColor"/>
<path d="M73.5 17.5H76C76.1326 17.5 76.2598 17.4473 76.3536 17.3536C76.4473 17.2598 76.5 17.1326 76.5 17C76.5 16.8674 76.4473 16.7402 76.3536 16.6465C76.2598 16.5527 76.1326 16.5 76 16.5H73.5V13.5H76C76.1326 13.5 76.2598 13.4473 76.3536 13.3536C76.4473 13.2598 76.5 13.1326 76.5 13C76.5 12.8674 76.4473 12.7402 76.3536 12.6465C76.2598 12.5527 76.1326 12.5 76 12.5H73.4862C73.3592 10.0858 72.3142 7.81138 70.565 6.1425L73.3538 3.35375C73.4002 3.3073 73.4371 3.25215 73.4622 3.19145C73.4873 3.13076 73.5003 3.0657 73.5003 3C73.5003 2.93431 73.4873 2.86925 73.4622 2.80856C73.4371 2.74786 73.4002 2.69271 73.3538 2.64625C73.3073 2.5998 73.2521 2.56295 73.1914 2.53781C73.1308 2.51267 73.0657 2.49973 73 2.49973C72.9343 2.49973 72.8692 2.51267 72.8086 2.53781C72.7479 2.56295 72.6927 2.5998 72.6462 2.64625L69.805 5.4875C68.1441 4.19921 66.1019 3.50001 64 3.50001C61.8981 3.50001 59.8559 4.19921 58.195 5.4875L55.3538 2.64625C55.2599 2.55243 55.1327 2.49973 55 2.49973C54.8673 2.49973 54.7401 2.55243 54.6462 2.64625C54.5524 2.74007 54.4997 2.86732 54.4997 3C54.4997 3.13269 54.5524 3.25993 54.6462 3.35375L57.435 6.1425C55.6858 7.81138 54.6408 10.0858 54.5138 12.5H52C51.8674 12.5 51.7402 12.5527 51.6464 12.6465C51.5527 12.7402 51.5 12.8674 51.5 13C51.5 13.1326 51.5527 13.2598 51.6464 13.3536C51.7402 13.4473 51.8674 13.5 52 13.5H54.5V16.5H52C51.8674 16.5 51.7402 16.5527 51.6464 16.6465C51.5527 16.7402 51.5 16.8674 51.5 17C51.5 17.1326 51.5527 17.2598 51.6464 17.3536C51.7402 17.4473 51.8674 17.5 52 17.5H54.5V19C54.5016 19.5025 54.5434 20.0041 54.625 20.5H52C51.8674 20.5 51.7402 20.5527 51.6464 20.6465C51.5527 20.7402 51.5 20.8674 51.5 21C51.5 21.1326 51.5527 21.2598 51.6464 21.3536C51.7402 21.4473 51.8674 21.5 52 21.5H54.8362C55.3855 23.5093 56.58 25.2824 58.2358 26.5463C59.8916 27.8102 61.9169 28.4949 64 28.4949C66.0831 28.4949 68.1084 27.8102 69.7642 26.5463C71.42 25.2824 72.6145 23.5093 73.1637 21.5H76C76.1326 21.5 76.2598 21.4473 76.3536 21.3536C76.4473 21.2598 76.5 21.1326 76.5 21C76.5 20.8674 76.4473 20.7402 76.3536 20.6465C76.2598 20.5527 76.1326 20.5 76 20.5H73.375C73.4566 20.0041 73.4984 19.5025 73.5 19V17.5ZM64 4.5C66.1668 4.50279 68.251 5.33202 69.8274 6.81859C71.4039 8.30515 72.3539 10.3371 72.4837 12.5H55.5163C55.6461 10.3371 56.5961 8.30515 58.1726 6.81859C59.749 5.33202 61.8332 4.50279 64 4.5ZM64.5 27.4838V17C64.5 16.8674 64.4473 16.7402 64.3536 16.6465C64.2598 16.5527 64.1326 16.5 64 16.5C63.8674 16.5 63.7402 16.5527 63.6464 16.6465C63.5527 16.7402 63.5 16.8674 63.5 17V27.4838C61.3371 27.3539 59.3051 26.4039 57.8186 24.8274C56.332 23.251 55.5028 21.1668 55.5 19V13.5H72.5V19C72.4972 21.1668 71.668 23.251 70.1814 24.8274C68.6949 26.4039 66.6629 27.3539 64.5 27.4838Z" fill="currentColor"/>
<path d="M121.75 17.75H124C124.199 17.75 124.39 17.671 124.53 17.5303C124.671 17.3897 124.75 17.1989 124.75 17C124.75 16.8011 124.671 16.6103 124.53 16.4697C124.39 16.329 124.199 16.25 124 16.25H121.75V13.75H124C124.199 13.75 124.39 13.671 124.53 13.5303C124.671 13.3897 124.75 13.1989 124.75 13C124.75 12.8011 124.671 12.6103 124.53 12.4697C124.39 12.329 124.199 12.25 124 12.25H121.719C121.542 9.94565 120.55 7.77961 118.921 6.14L121.53 3.53C121.662 3.38782 121.735 3.19978 121.731 3.00548C121.728 2.81118 121.649 2.62579 121.512 2.48838C121.374 2.35096 121.189 2.27225 120.995 2.26882C120.8 2.2654 120.612 2.33752 120.47 2.47L117.784 5.15625C116.11 3.91811 114.083 3.24989 112.001 3.24989C109.919 3.24989 107.891 3.91811 106.217 5.15625L103.53 2.47C103.388 2.33752 103.2 2.2654 103.005 2.26882C102.811 2.27225 102.626 2.35096 102.488 2.48838C102.351 2.62579 102.272 2.81118 102.269 3.00548C102.265 3.19978 102.338 3.38782 102.47 3.53L105.08 6.14C103.45 7.77911 102.458 9.94534 102.281 12.25H100C99.8011 12.25 99.6103 12.329 99.4697 12.4697C99.329 12.6103 99.25 12.8011 99.25 13C99.25 13.1989 99.329 13.3897 99.4697 13.5303C99.6103 13.671 99.8011 13.75 100 13.75H102.25V16.25H100C99.8011 16.25 99.6103 16.329 99.4697 16.4697C99.329 16.6103 99.25 16.8011 99.25 17C99.25 17.1989 99.329 17.3897 99.4697 17.5303C99.6103 17.671 99.8011 17.75 100 17.75H102.25V19C102.251 19.418 102.278 19.8355 102.332 20.25H100C99.8011 20.25 99.6103 20.329 99.4697 20.4697C99.329 20.6103 99.25 20.8011 99.25 21C99.25 21.1989 99.329 21.3897 99.4697 21.5303C99.6103 21.671 99.8011 21.75 100 21.75H102.648C103.242 23.7692 104.475 25.5417 106.161 26.8024C107.846 28.0631 109.895 28.7444 112 28.7444C114.105 28.7444 116.154 28.0631 117.839 26.8024C119.525 25.5417 120.758 23.7692 121.353 21.75H124C124.199 21.75 124.39 21.671 124.53 21.5303C124.671 21.3897 124.75 21.1989 124.75 21C124.75 20.8011 124.671 20.6103 124.53 20.4697C124.39 20.329 124.199 20.25 124 20.25H121.667C121.722 19.8355 121.749 19.418 121.75 19V17.75ZM112 4.75C114.057 4.75251 116.04 5.52275 117.559 6.90996C119.078 8.29716 120.025 10.2014 120.214 12.25H103.786C103.975 10.2014 104.922 8.29716 106.441 6.90996C107.96 5.52275 109.943 4.75251 112 4.75ZM112.75 27.2138V17C112.75 16.8011 112.671 16.6103 112.53 16.4697C112.39 16.329 112.199 16.25 112 16.25C111.801 16.25 111.61 16.329 111.47 16.4697C111.329 16.6103 111.25 16.8011 111.25 17V27.2138C109.201 27.0247 107.297 26.078 105.91 24.5587C104.523 23.0395 103.753 21.0573 103.75 19V13.75H120.25V19C120.247 21.0573 119.477 23.0395 118.09 24.5587C116.703 26.078 114.799 27.0247 112.75 27.2138Z" fill="currentColor"/>
<path d="M172 19C172.398 19 172.779 18.842 173.061 18.5607C173.342 18.2794 173.5 17.8978 173.5 17.5C173.5 17.1022 173.342 16.7207 173.061 16.4393C172.779 16.158 172.398 16 172 16H170.5V14H172C172.398 14 172.779 13.842 173.061 13.5607C173.342 13.2794 173.5 12.8978 173.5 12.5C173.5 12.1022 173.342 11.7207 173.061 11.4393C172.779 11.158 172.398 11 172 11H170.306C169.959 9.21053 169.149 7.54296 167.959 6.16251L170.061 4.06126C170.343 3.77946 170.501 3.39727 170.501 2.99876C170.501 2.60024 170.343 2.21805 170.061 1.93626C169.779 1.65446 169.397 1.49615 168.999 1.49615C168.6 1.49615 168.218 1.65446 167.936 1.93626L165.686 4.18626C163.991 3.08652 162.013 2.50129 159.993 2.50129C157.972 2.50129 155.994 3.08652 154.299 4.18626L152.049 1.93626C151.909 1.79673 151.744 1.68605 151.561 1.61053C151.379 1.53502 151.184 1.49615 150.986 1.49615C150.588 1.49615 150.206 1.65446 149.924 1.93626C149.642 2.21805 149.484 2.60024 149.484 2.99876C149.484 3.39727 149.642 3.77946 149.924 4.06126L152.041 6.16251C150.851 7.54296 150.041 9.21053 149.694 11H148C147.602 11 147.221 11.158 146.939 11.4393C146.658 11.7207 146.5 12.1022 146.5 12.5C146.5 12.8978 146.658 13.2794 146.939 13.5607C147.221 13.842 147.602 14 148 14H149.5V16H148C147.602 16 147.221 16.158 146.939 16.4393C146.658 16.7207 146.5 17.1022 146.5 17.5C146.5 17.8978 146.658 18.2794 146.939 18.5607C147.221 18.842 147.602 19 148 19H149.5C149.5 19.6714 149.565 20.3411 149.694 21H148C147.602 21 147.221 21.158 146.939 21.4393C146.658 21.7207 146.5 22.1022 146.5 22.5C146.5 22.8978 146.658 23.2794 146.939 23.5607C147.221 23.842 147.602 24 148 24H150.769C151.67 25.6626 153.003 27.0509 154.628 28.0184C156.253 28.9859 158.109 29.4966 160 29.4966C161.891 29.4966 163.747 28.9859 165.372 28.0184C166.997 27.0509 168.33 25.6626 169.231 24H172C172.398 24 172.779 23.842 173.061 23.5607C173.342 23.2794 173.5 22.8978 173.5 22.5C173.5 22.1022 173.342 21.7207 173.061 21.4393C172.779 21.158 172.398 21 172 21H170.306C170.435 20.3411 170.5 19.6714 170.5 19H172ZM160 5.50001C161.64 5.50228 163.234 6.04108 164.539 7.03416C165.844 8.02724 166.788 9.42006 167.228 11H152.773C153.212 9.42006 154.156 8.02724 155.461 7.03416C156.766 6.04108 158.36 5.50228 160 5.50001ZM161.5 26.3488V17.5C161.5 17.1022 161.342 16.7207 161.061 16.4393C160.779 16.158 160.398 16 160 16C159.602 16 159.221 16.158 158.939 16.4393C158.658 16.7207 158.5 17.1022 158.5 17.5V26.3488C156.807 26.001 155.286 25.0802 154.193 23.7415C153.1 22.4028 152.502 20.7282 152.5 19V14H167.5V19C167.498 20.7282 166.9 22.4028 165.807 23.7415C164.714 25.0802 163.193 26.001 161.5 26.3488Z" fill="currentColor"/>
<path d="M220 14H218V12H220C220.265 12 220.52 12.1054 220.707 12.2929C220.895 12.4804 221 12.7348 221 13C221 13.2652 220.895 13.5196 220.707 13.7071C220.52 13.8946 220.265 14 220 14ZM196 12C195.735 12 195.48 12.1054 195.293 12.2929C195.105 12.4804 195 12.7348 195 13C195 13.2652 195.105 13.5196 195.293 13.7071C195.48 13.8946 195.735 14 196 14H198V12H196ZM218 19C218 19.3375 217.983 19.6713 217.95 20H220C220.265 20 220.52 20.1054 220.707 20.2929C220.895 20.4804 221 20.7348 221 21C221 21.2652 220.895 21.5196 220.707 21.7071C220.52 21.8947 220.265 22 220 22H217.54C216.902 24.0304 215.633 25.8043 213.917 27.0636C212.201 28.3229 210.128 29.0019 208 29.0019C205.872 29.0019 203.799 28.3229 202.083 27.0636C200.367 25.8043 199.098 24.0304 198.46 22H196C195.735 22 195.48 21.8947 195.293 21.7071C195.105 21.5196 195 21.2652 195 21C195 20.7348 195.105 20.4804 195.293 20.2929C195.48 20.1054 195.735 20 196 20H198.05C198.018 19.6713 198 19.3375 198 19V18H196C195.735 18 195.48 17.8947 195.293 17.7071C195.105 17.5196 195 17.2652 195 17C195 16.7348 195.105 16.4804 195.293 16.2929C195.48 16.1054 195.735 16 196 16H198V14H218V16H220C220.265 16 220.52 16.1054 220.707 16.2929C220.895 16.4804 221 16.7348 221 17C221 17.2652 220.895 17.5196 220.707 17.7071C220.52 17.8947 220.265 18 220 18H218V19ZM209 17C209 16.7348 208.895 16.4804 208.707 16.2929C208.52 16.1054 208.265 16 208 16C207.735 16 207.48 16.1054 207.293 16.2929C207.105 16.4804 207 16.7348 207 17V25C207 25.2652 207.105 25.5196 207.293 25.7071C207.48 25.8947 207.735 26 208 26C208.265 26 208.52 25.8947 208.707 25.7071C208.895 25.5196 209 25.2652 209 25V17ZM200.73 6.14376C199.213 7.74561 198.271 9.8052 198.05 12H217.95C217.729 9.8052 216.787 7.74561 215.27 6.14376L217.708 3.70751C217.8 3.6146 217.874 3.5043 217.924 3.3829C217.975 3.26151 218.001 3.1314 218.001 3.00001C218.001 2.86861 217.975 2.7385 217.924 2.61711C217.874 2.49572 217.8 2.38542 217.708 2.29251C217.615 2.1996 217.504 2.1259 217.383 2.07561C217.262 2.02533 217.131 1.99945 217 1.99945C216.869 1.99945 216.738 2.02533 216.617 2.07561C216.496 2.1259 216.385 2.1996 216.292 2.29251L213.756 4.83001C212.073 3.63928 210.062 2.99987 208 2.99987C205.938 2.99987 203.927 3.63928 202.244 4.83001L199.707 2.29251C199.52 2.10487 199.265 1.99945 199 1.99945C198.735 1.99945 198.48 2.10487 198.293 2.29251C198.105 2.48015 197.999 2.73464 197.999 3.00001C197.999 3.26537 198.105 3.51987 198.293 3.70751L200.73 6.14376Z" fill="currentColor"/>
<path opacity="0.2" d="M265 13V19C265 21.3869 264.052 23.6761 262.364 25.364C260.676 27.0518 258.387 28 256 28C253.613 28 251.324 27.0518 249.636 25.364C247.948 23.6761 247 21.3869 247 19V13H265Z" fill="currentColor"/>
<path d="M266 18H268C268.265 18 268.52 17.8947 268.707 17.7071C268.895 17.5196 269 17.2652 269 17C269 16.7348 268.895 16.4804 268.707 16.2929C268.52 16.1054 268.265 16 268 16H266V14H268C268.265 14 268.52 13.8946 268.707 13.7071C268.895 13.5196 269 13.2652 269 13C269 12.7348 268.895 12.4804 268.707 12.2929C268.52 12.1054 268.265 12 268 12H265.95C265.729 9.8052 264.787 7.74561 263.27 6.14376L265.708 3.70751C265.8 3.6146 265.874 3.5043 265.924 3.3829C265.975 3.26151 266.001 3.1314 266.001 3.00001C266.001 2.86861 265.975 2.7385 265.924 2.61711C265.874 2.49572 265.8 2.38542 265.708 2.29251C265.615 2.1996 265.504 2.1259 265.383 2.07561C265.262 2.02533 265.131 1.99945 265 1.99945C264.869 1.99945 264.738 2.02533 264.617 2.07561C264.496 2.1259 264.385 2.1996 264.292 2.29251L261.756 4.83001C260.073 3.63928 258.062 2.99987 256 2.99987C253.938 2.99987 251.927 3.63928 250.244 4.83001L247.707 2.29251C247.52 2.10487 247.265 1.99945 247 1.99945C246.735 1.99945 246.48 2.10487 246.293 2.29251C246.105 2.48015 245.999 2.73464 245.999 3.00001C245.999 3.26537 246.105 3.51987 246.293 3.70751L248.73 6.14376C247.213 7.74561 246.271 9.8052 246.05 12H244C243.735 12 243.48 12.1054 243.293 12.2929C243.105 12.4804 243 12.7348 243 13C243 13.2652 243.105 13.5196 243.293 13.7071C243.48 13.8946 243.735 14 244 14H246V16H244C243.735 16 243.48 16.1054 243.293 16.2929C243.105 16.4804 243 16.7348 243 17C243 17.2652 243.105 17.5196 243.293 17.7071C243.48 17.8947 243.735 18 244 18H246V19C246 19.3375 246.018 19.6713 246.05 20H244C243.735 20 243.48 20.1054 243.293 20.2929C243.105 20.4804 243 20.7348 243 21C243 21.2652 243.105 21.5196 243.293 21.7071C243.48 21.8947 243.735 22 244 22H246.46C247.098 24.0304 248.367 25.8043 250.083 27.0636C251.799 28.3229 253.872 29.0019 256 29.0019C258.128 29.0019 260.201 28.3229 261.917 27.0636C263.633 25.8043 264.902 24.0304 265.54 22H268C268.265 22 268.52 21.8947 268.707 21.7071C268.895 21.5196 269 21.2652 269 21C269 20.7348 268.895 20.4804 268.707 20.2929C268.52 20.1054 268.265 20 268 20H265.95C265.983 19.6713 266 19.3375 266 19V18ZM256 5.00001C257.948 5.00243 259.828 5.71449 261.288 7.00293C262.749 8.29138 263.69 10.0679 263.935 12H248.06C248.305 10.067 249.247 8.28984 250.709 7.00128C252.17 5.71273 254.052 5.00122 256 5.00001ZM257 26.935V17C257 16.7348 256.895 16.4804 256.707 16.2929C256.52 16.1054 256.265 16 256 16C255.735 16 255.48 16.1054 255.293 16.2929C255.105 16.4804 255 16.7348 255 17V26.935C253.068 26.6897 251.291 25.7487 250.003 24.2882C248.714 22.8276 248.002 20.9476 248 19V14H264V19C263.998 20.9476 263.286 22.8276 261.997 24.2882C260.709 25.7487 258.932 26.6897 257 26.935Z" fill="currentColor"/>
</g>
<defs>
<clipPath id="clip0_17_2549">
<rect width="272" height="32" rx="5" fill="white"/>
</clipPath>
</defs>
</svg>
