<svg width="272" height="32" viewBox="0 0 272 32" fill="none" xmlns="http://www.w3.org/2000/svg">
<g clip-path="url(#clip0_17_2535)">
<path d="M23.9788 5.43501L25.7075 3.70751C25.8004 3.6146 25.8741 3.5043 25.9244 3.3829C25.9747 3.26151 26.0006 3.1314 26.0006 3.00001C26.0006 2.86861 25.9747 2.7385 25.9244 2.61711C25.8741 2.49572 25.8004 2.38542 25.7075 2.29251C25.6146 2.1996 25.5043 2.1259 25.3829 2.07561C25.2615 2.02533 25.1314 1.99945 25 1.99945C24.8686 1.99945 24.7385 2.02533 24.6171 2.07561C24.4957 2.1259 24.3854 2.1996 24.2925 2.29251L22.4738 4.11251C20.5943 2.73988 18.3273 2.00015 16 2.00015C13.6727 2.00015 11.4057 2.73988 9.52625 4.11251L7.7075 2.29251C7.51986 2.10487 7.26537 1.99945 7 1.99945C6.73464 1.99945 6.48014 2.10487 6.2925 2.29251C6.10486 2.48015 5.99945 2.73464 5.99945 3.00001C5.99945 3.26537 6.10486 3.51987 6.2925 3.70751L8.02125 5.43501C6.0801 7.47515 4.99828 10.1839 5 13V18C5 20.9174 6.15893 23.7153 8.22183 25.7782C10.2847 27.8411 13.0826 29 16 29C18.9174 29 21.7153 27.8411 23.7782 25.7782C25.8411 23.7153 27 20.9174 27 18V13C27.0017 10.1839 25.9199 7.47515 23.9788 5.43501ZM16 4.00001C18.3861 4.00265 20.6738 4.95171 22.361 6.63897C24.0483 8.32622 24.9974 10.6139 25 13V14H7V13C7.00265 10.6139 7.95171 8.32622 9.63896 6.63897C11.3262 4.95171 13.6139 4.00265 16 4.00001ZM16 27C13.6139 26.9974 11.3262 26.0483 9.63896 24.361C7.95171 22.6738 7.00265 20.3861 7 18V16H25V18C24.9974 20.3861 24.0483 22.6738 22.361 24.361C20.6738 26.0483 18.3861 26.9974 16 27ZM18 10.5C18 10.2033 18.088 9.91333 18.2528 9.66665C18.4176 9.41998 18.6519 9.22772 18.926 9.11419C19.2001 9.00066 19.5017 8.97095 19.7926 9.02883C20.0836 9.08671 20.3509 9.22957 20.5607 9.43935C20.7704 9.64913 20.9133 9.9164 20.9712 10.2074C21.0291 10.4983 20.9994 10.7999 20.8858 11.074C20.7723 11.3481 20.58 11.5824 20.3334 11.7472C20.0867 11.912 19.7967 12 19.5 12C19.1022 12 18.7206 11.842 18.4393 11.5607C18.158 11.2794 18 10.8978 18 10.5ZM11 10.5C11 10.2033 11.088 9.91333 11.2528 9.66665C11.4176 9.41998 11.6519 9.22772 11.926 9.11419C12.2001 9.00066 12.5017 8.97095 12.7926 9.02883C13.0836 9.08671 13.3509 9.22957 13.5607 9.43935C13.7704 9.64913 13.9133 9.9164 13.9712 10.2074C14.0291 10.4983 13.9994 10.7999 13.8858 11.074C13.7723 11.3481 13.58 11.5824 13.3334 11.7472C13.0867 11.912 12.7967 12 12.5 12C12.1022 12 11.7206 11.842 11.4393 11.5607C11.158 11.2794 11 10.8978 11 10.5Z" fill="currentColor"/>
<path d="M71.2712 5.43624L73.3538 3.35374C73.4002 3.30728 73.4371 3.25213 73.4622 3.19144C73.4873 3.13074 73.5003 3.06569 73.5003 2.99999C73.5003 2.93429 73.4873 2.86924 73.4622 2.80854C73.4371 2.74785 73.4002 2.6927 73.3538 2.64624C73.3073 2.59978 73.2521 2.56293 73.1914 2.53779C73.1308 2.51265 73.0657 2.49971 73 2.49971C72.9343 2.49971 72.8692 2.51265 72.8086 2.53779C72.7479 2.56293 72.6927 2.59978 72.6462 2.64624L70.5212 4.77124C68.6691 3.29737 66.372 2.49493 64.005 2.49493C61.638 2.49493 59.3409 3.29737 57.4888 4.77124L55.3638 2.64624C55.2699 2.55242 55.1427 2.49971 55.01 2.49971C54.8773 2.49971 54.7501 2.55242 54.6563 2.64624C54.5624 2.74006 54.5097 2.86731 54.5097 2.99999C54.5097 3.13267 54.5624 3.25992 54.6563 3.35374L56.7288 5.43624C55.7078 6.41374 54.8954 7.58785 54.3405 8.88778C53.7856 10.1877 53.4997 11.5866 53.5 13V18C53.5 20.7848 54.6062 23.4555 56.5754 25.4246C58.5445 27.3937 61.2152 28.5 64 28.5C66.7848 28.5 69.4555 27.3937 71.4246 25.4246C73.3938 23.4555 74.5 20.7848 74.5 18V13C74.5003 11.5866 74.2144 10.1877 73.6595 8.88778C73.1046 7.58785 72.2922 6.41374 71.2712 5.43624ZM64 3.49999C66.5187 3.50264 68.9336 4.50438 70.7146 6.2854C72.4956 8.06642 73.4974 10.4812 73.5 13V14.5H54.5V13C54.5026 10.4812 55.5044 8.06642 57.2854 6.2854C59.0664 4.50438 61.4813 3.50264 64 3.49999ZM64 27.5C61.4813 27.4973 59.0664 26.4956 57.2854 24.7146C55.5044 22.9336 54.5026 20.5187 54.5 18V15.5H73.5V18C73.4974 20.5187 72.4956 22.9336 70.7146 24.7146C68.9336 26.4956 66.5187 27.4973 64 27.5ZM66.5 10.5C66.5 10.3022 66.5586 10.1089 66.6685 9.94442C66.7784 9.77997 66.9346 9.6518 67.1173 9.57611C67.3 9.50042 67.5011 9.48062 67.6951 9.5192C67.8891 9.55779 68.0673 9.65303 68.2071 9.79288C68.347 9.93274 68.4422 10.1109 68.4808 10.3049C68.5194 10.4989 68.4996 10.6999 68.4239 10.8827C68.3482 11.0654 68.22 11.2216 68.0556 11.3315C67.8911 11.4413 67.6978 11.5 67.5 11.5C67.2348 11.5 66.9804 11.3946 66.7929 11.2071C66.6054 11.0196 66.5 10.7652 66.5 10.5ZM59.5 10.5C59.5 10.3022 59.5586 10.1089 59.6685 9.94442C59.7784 9.77997 59.9346 9.6518 60.1173 9.57611C60.3 9.50042 60.5011 9.48062 60.6951 9.5192C60.8891 9.55779 61.0673 9.65303 61.2071 9.79288C61.347 9.93274 61.4422 10.1109 61.4808 10.3049C61.5194 10.4989 61.4996 10.6999 61.4239 10.8827C61.3482 11.0654 61.22 11.2216 61.0556 11.3315C60.8911 11.4413 60.6978 11.5 60.5 11.5C60.2348 11.5 59.9804 11.3946 59.7929 11.2071C59.6054 11.0196 59.5 10.7652 59.5 10.5Z" fill="currentColor"/>
<path d="M119.625 5.43374L121.528 3.52999C121.66 3.38782 121.732 3.19977 121.729 3.00547C121.725 2.81117 121.647 2.62579 121.509 2.48837C121.372 2.35096 121.186 2.27225 120.992 2.26882C120.798 2.26539 120.61 2.33751 120.468 2.46999L118.5 4.44249C116.632 3.0184 114.349 2.24707 112 2.24707C109.651 2.24707 107.368 3.0184 105.5 4.44249L103.53 2.46999C103.388 2.33751 103.2 2.26539 103.005 2.26882C102.811 2.27225 102.626 2.35096 102.488 2.48837C102.351 2.62579 102.272 2.81117 102.269 3.00547C102.265 3.19977 102.338 3.38782 102.47 3.52999L104.375 5.43374C102.373 7.44267 101.249 10.1637 101.25 13V18C101.25 20.8511 102.383 23.5854 104.399 25.6014C106.415 27.6174 109.149 28.75 112 28.75C114.851 28.75 117.585 27.6174 119.601 25.6014C121.617 23.5854 122.75 20.8511 122.75 18V13C122.751 10.1637 121.627 7.44267 119.625 5.43374ZM112 3.74999C114.452 3.75297 116.803 4.72848 118.537 6.46254C120.272 8.19661 121.247 10.5477 121.25 13V14.25H102.75V13C102.753 10.5477 103.728 8.19661 105.463 6.46254C107.197 4.72848 109.548 3.75297 112 3.74999ZM112 27.25C109.548 27.247 107.197 26.2715 105.463 24.5374C103.728 22.8034 102.753 20.4523 102.75 18V15.75H121.25V18C121.247 20.4523 120.272 22.8034 118.537 24.5374C116.803 26.2715 114.452 27.247 112 27.25ZM114.25 10.5C114.25 10.2528 114.323 10.0111 114.461 9.80553C114.598 9.59997 114.793 9.43975 115.022 9.34515C115.25 9.25054 115.501 9.22578 115.744 9.27401C115.986 9.32224 116.209 9.4413 116.384 9.61611C116.559 9.79093 116.678 10.0137 116.726 10.2561C116.774 10.4986 116.749 10.7499 116.655 10.9783C116.56 11.2068 116.4 11.402 116.194 11.5393C115.989 11.6767 115.747 11.75 115.5 11.75C115.168 11.75 114.851 11.6183 114.616 11.3839C114.382 11.1495 114.25 10.8315 114.25 10.5ZM107.25 10.5C107.25 10.2528 107.323 10.0111 107.461 9.80553C107.598 9.59997 107.793 9.43975 108.022 9.34515C108.25 9.25054 108.501 9.22578 108.744 9.27401C108.986 9.32224 109.209 9.4413 109.384 9.61611C109.559 9.79093 109.678 10.0137 109.726 10.2561C109.774 10.4986 109.749 10.7499 109.655 10.9783C109.56 11.2068 109.4 11.402 109.194 11.5393C108.989 11.6767 108.747 11.75 108.5 11.75C108.168 11.75 107.851 11.6183 107.616 11.3839C107.382 11.1495 107.25 10.8315 107.25 10.5Z" fill="currentColor"/>
<path d="M168.669 5.45251L170.061 4.06126C170.343 3.77946 170.501 3.39727 170.501 2.99876C170.501 2.60024 170.343 2.21805 170.061 1.93626C169.779 1.65446 169.397 1.49615 168.999 1.49615C168.6 1.49615 168.218 1.65446 167.936 1.93626L166.418 3.46126C164.521 2.18292 162.287 1.49998 160 1.49998C157.713 1.49998 155.479 2.18292 153.583 3.46126L152.061 1.93876C151.779 1.65696 151.397 1.49865 150.999 1.49865C150.6 1.49865 150.218 1.65696 149.936 1.93876C149.654 2.22055 149.496 2.60274 149.496 3.00126C149.496 3.39977 149.654 3.78196 149.936 4.06376L151.331 5.45251C149.504 7.54185 148.497 10.2241 148.5 13V18C148.5 21.05 149.712 23.9751 151.868 26.1317C154.025 28.2884 156.95 29.5 160 29.5C163.05 29.5 165.975 28.2884 168.132 26.1317C170.288 23.9751 171.5 21.05 171.5 18V13C171.503 10.2241 170.496 7.54185 168.669 5.45251ZM168.5 13V13.5H151.5V13C151.5 10.7457 152.396 8.58366 153.99 6.9896C155.584 5.39554 157.746 4.50001 160 4.50001C162.254 4.50001 164.416 5.39554 166.01 6.9896C167.604 8.58366 168.5 10.7457 168.5 13ZM160 26.5C157.746 26.4977 155.586 25.6014 153.992 24.0079C152.399 22.4143 151.502 20.2536 151.5 18V16.5H168.5V18C168.498 20.2536 167.601 22.4143 166.008 24.0079C164.414 25.6014 162.254 26.4977 160 26.5ZM161.5 10C161.5 9.60444 161.617 9.21776 161.837 8.88887C162.057 8.55997 162.369 8.30362 162.735 8.15225C163.1 8.00087 163.502 7.96127 163.89 8.03844C164.278 8.11561 164.635 8.30609 164.914 8.58579C165.194 8.8655 165.384 9.22186 165.462 9.60983C165.539 9.99779 165.499 10.3999 165.348 10.7654C165.196 11.1308 164.94 11.4432 164.611 11.6629C164.282 11.8827 163.896 12 163.5 12C162.97 12 162.461 11.7893 162.086 11.4142C161.711 11.0391 161.5 10.5304 161.5 10ZM154.5 10C154.5 9.60444 154.617 9.21776 154.837 8.88887C155.057 8.55997 155.369 8.30362 155.735 8.15225C156.1 8.00087 156.502 7.96127 156.89 8.03844C157.278 8.11561 157.635 8.30609 157.914 8.58579C158.194 8.8655 158.384 9.22186 158.462 9.60983C158.539 9.99779 158.499 10.3999 158.348 10.7654C158.196 11.1308 157.94 11.4432 157.611 11.6629C157.282 11.8827 156.896 12 156.5 12C155.97 12 155.461 11.7893 155.086 11.4142C154.711 11.0391 154.5 10.5304 154.5 10Z" fill="currentColor"/>
<path d="M215.979 5.43501L217.708 3.70751C217.8 3.6146 217.874 3.5043 217.924 3.3829C217.975 3.26151 218.001 3.1314 218.001 3.00001C218.001 2.86861 217.975 2.7385 217.924 2.61711C217.874 2.49572 217.8 2.38542 217.708 2.29251C217.615 2.1996 217.504 2.1259 217.383 2.07561C217.262 2.02533 217.131 1.99945 217 1.99945C216.869 1.99945 216.738 2.02533 216.617 2.07561C216.496 2.1259 216.385 2.1996 216.293 2.29251L214.474 4.11251C212.594 2.73988 210.327 2.00015 208 2.00015C205.673 2.00015 203.406 2.73988 201.526 4.11251L199.708 2.29251C199.52 2.10487 199.265 1.99945 199 1.99945C198.735 1.99945 198.48 2.10487 198.293 2.29251C198.105 2.48015 197.999 2.73464 197.999 3.00001C197.999 3.26537 198.105 3.51987 198.293 3.70751L200.021 5.43501C198.08 7.47515 196.998 10.1839 197 13V18C197 20.9174 198.159 23.7153 200.222 25.7782C202.285 27.8411 205.083 29 208 29C210.917 29 213.715 27.8411 215.778 25.7782C217.841 23.7153 219 20.9174 219 18V13C219.002 10.1839 217.92 7.47515 215.979 5.43501ZM208 4.00001C210.386 4.00265 212.674 4.95171 214.361 6.63897C216.048 8.32622 216.997 10.6139 217 13V14H199V13C199.003 10.6139 199.952 8.32622 201.639 6.63897C203.326 4.95171 205.614 4.00265 208 4.00001ZM210 10.5C210 10.2033 210.088 9.91333 210.253 9.66665C210.418 9.41998 210.652 9.22772 210.926 9.11419C211.2 9.00066 211.502 8.97095 211.793 9.02883C212.084 9.08671 212.351 9.22957 212.561 9.43935C212.77 9.64913 212.913 9.9164 212.971 10.2074C213.029 10.4983 212.999 10.7999 212.886 11.074C212.772 11.3481 212.58 11.5824 212.333 11.7472C212.087 11.912 211.797 12 211.5 12C211.102 12 210.721 11.842 210.439 11.5607C210.158 11.2794 210 10.8978 210 10.5ZM203 10.5C203 10.2033 203.088 9.91333 203.253 9.66665C203.418 9.41998 203.652 9.22772 203.926 9.11419C204.2 9.00066 204.502 8.97095 204.793 9.02883C205.084 9.08671 205.351 9.22957 205.561 9.43935C205.77 9.64913 205.913 9.9164 205.971 10.2074C206.029 10.4983 205.999 10.7999 205.886 11.074C205.772 11.3481 205.58 11.5824 205.333 11.7472C205.087 11.912 204.797 12 204.5 12C204.102 12 203.721 11.842 203.439 11.5607C203.158 11.2794 203 10.8978 203 10.5Z" fill="currentColor"/>
<path opacity="0.2" d="M266 15V18C266 20.6522 264.946 23.1957 263.071 25.0711C261.196 26.9464 258.652 28 256 28C253.348 28 250.804 26.9464 248.929 25.0711C247.054 23.1957 246 20.6522 246 18V15H266Z" fill="currentColor"/>
<path d="M263.979 5.43501L265.708 3.70751C265.8 3.6146 265.874 3.5043 265.924 3.3829C265.975 3.26151 266.001 3.1314 266.001 3.00001C266.001 2.86861 265.975 2.7385 265.924 2.61711C265.874 2.49572 265.8 2.38542 265.708 2.29251C265.615 2.1996 265.504 2.1259 265.383 2.07561C265.262 2.02533 265.131 1.99945 265 1.99945C264.869 1.99945 264.738 2.02533 264.617 2.07561C264.496 2.1259 264.385 2.1996 264.293 2.29251L262.474 4.11251C260.594 2.73988 258.327 2.00015 256 2.00015C253.673 2.00015 251.406 2.73988 249.526 4.11251L247.708 2.29251C247.52 2.10487 247.265 1.99945 247 1.99945C246.735 1.99945 246.48 2.10487 246.293 2.29251C246.105 2.48015 245.999 2.73464 245.999 3.00001C245.999 3.26537 246.105 3.51987 246.293 3.70751L248.021 5.43501C246.08 7.47515 244.998 10.1839 245 13V18C245 20.9174 246.159 23.7153 248.222 25.7782C250.285 27.8411 253.083 29 256 29C258.917 29 261.715 27.8411 263.778 25.7782C265.841 23.7153 267 20.9174 267 18V13C267.002 10.1839 265.92 7.47515 263.979 5.43501ZM256 4.00001C258.386 4.00265 260.674 4.95171 262.361 6.63897C264.048 8.32622 264.997 10.6139 265 13V14H247V13C247.003 10.6139 247.952 8.32622 249.639 6.63897C251.326 4.95171 253.614 4.00265 256 4.00001ZM256 27C253.614 26.9974 251.326 26.0483 249.639 24.361C247.952 22.6738 247.003 20.3861 247 18V16H265V18C264.997 20.3861 264.048 22.6738 262.361 24.361C260.674 26.0483 258.386 26.9974 256 27ZM258 10.5C258 10.2033 258.088 9.91333 258.253 9.66665C258.418 9.41998 258.652 9.22772 258.926 9.11419C259.2 9.00066 259.502 8.97095 259.793 9.02883C260.084 9.08671 260.351 9.22957 260.561 9.43935C260.77 9.64913 260.913 9.9164 260.971 10.2074C261.029 10.4983 260.999 10.7999 260.886 11.074C260.772 11.3481 260.58 11.5824 260.333 11.7472C260.087 11.912 259.797 12 259.5 12C259.102 12 258.721 11.842 258.439 11.5607C258.158 11.2794 258 10.8978 258 10.5ZM251 10.5C251 10.2033 251.088 9.91333 251.253 9.66665C251.418 9.41998 251.652 9.22772 251.926 9.11419C252.2 9.00066 252.502 8.97095 252.793 9.02883C253.084 9.08671 253.351 9.22957 253.561 9.43935C253.77 9.64913 253.913 9.9164 253.971 10.2074C254.029 10.4983 253.999 10.7999 253.886 11.074C253.772 11.3481 253.58 11.5824 253.333 11.7472C253.087 11.912 252.797 12 252.5 12C252.102 12 251.721 11.842 251.439 11.5607C251.158 11.2794 251 10.8978 251 10.5Z" fill="currentColor"/>
</g>
<defs>
<clipPath id="clip0_17_2535">
<rect width="272" height="32" rx="5" fill="white"/>
</clipPath>
</defs>
</svg>
