<svg width="272" height="32" viewBox="0 0 272 32" fill="none" xmlns="http://www.w3.org/2000/svg">
<g clip-path="url(#clip0_17_2521)">
<path d="M8.64019 11.7687L3.56269 16L8.64019 20.2312C8.74399 20.3143 8.83018 20.4173 8.89372 20.5341C8.95725 20.6509 8.99685 20.7792 9.01019 20.9115C9.02354 21.0438 9.01037 21.1775 8.97144 21.3046C8.93252 21.4317 8.86863 21.5499 8.78352 21.652C8.6984 21.7542 8.59376 21.8383 8.47573 21.8996C8.35769 21.9608 8.22863 21.9979 8.0961 22.0086C7.96356 22.0194 7.83021 22.0036 7.70385 21.9622C7.57749 21.9208 7.46066 21.8546 7.36019 21.7675L1.36019 16.7675C1.2476 16.6736 1.15703 16.5562 1.09487 16.4234C1.03271 16.2907 1.00049 16.1459 1.00049 15.9993C1.00049 15.8528 1.03271 15.708 1.09487 15.5753C1.15703 15.4425 1.2476 15.3251 1.36019 15.2312L7.36019 10.2312C7.56407 10.0615 7.82704 9.97969 8.09123 10.0038C8.35542 10.028 8.5992 10.1561 8.76894 10.36C8.93868 10.5639 9.02047 10.8268 8.99633 11.091C8.97218 11.3552 8.84407 11.599 8.64019 11.7687ZM30.6402 15.2312L24.6402 10.2312C24.5392 10.1472 24.4227 10.0838 24.2973 10.0448C24.1719 10.0058 24.04 9.99188 23.9091 10.0038C23.7783 10.0158 23.6512 10.0534 23.5349 10.1145C23.4186 10.1756 23.3155 10.259 23.2314 10.36C23.0617 10.5639 22.9799 10.8268 23.0041 11.091C23.0282 11.3552 23.1563 11.599 23.3602 11.7687L28.4377 16L23.3602 20.2312C23.2564 20.3143 23.1702 20.4173 23.1067 20.5341C23.0431 20.6509 23.0035 20.7792 22.9902 20.9115C22.9768 21.0438 22.99 21.1775 23.0289 21.3046C23.0679 21.4317 23.1317 21.5499 23.2169 21.652C23.302 21.7542 23.4066 21.8383 23.5247 21.8996C23.6427 21.9608 23.7717 21.9979 23.9043 22.0086C24.0368 22.0194 24.1702 22.0036 24.2965 21.9622C24.4229 21.9208 24.5397 21.8546 24.6402 21.7675L30.6402 16.7675C30.7528 16.6736 30.8434 16.5562 30.9055 16.4234C30.9677 16.2907 30.9999 16.1459 30.9999 15.9993C30.9999 15.8528 30.9677 15.708 30.9055 15.5753C30.8434 15.4425 30.7528 15.3251 30.6402 15.2312ZM20.3414 4.05997C20.218 4.01515 20.0869 3.99509 19.9557 4.00093C19.8245 4.00676 19.6958 4.03838 19.5768 4.09398C19.4578 4.14958 19.351 4.22807 19.2623 4.32497C19.1737 4.42187 19.105 4.53528 19.0602 4.65872L11.0602 26.6587C11.0152 26.7822 10.995 26.9134 11.0007 27.0448C11.0064 27.1761 11.038 27.305 11.0936 27.4241C11.1492 27.5432 11.2278 27.6502 11.3248 27.739C11.4218 27.8277 11.5353 27.8964 11.6589 27.9412C11.7685 27.9802 11.8839 28 12.0002 28C12.2056 28 12.4059 27.9368 12.5741 27.8189C12.7423 27.701 12.8701 27.5343 12.9402 27.3412L20.9402 5.34122C20.985 5.21778 21.0051 5.08672 20.9992 4.95552C20.9934 4.82433 20.9618 4.69556 20.9062 4.57659C20.8506 4.45761 20.7721 4.35075 20.6752 4.26211C20.5783 4.17347 20.4649 4.10478 20.3414 4.05997Z" fill="currentColor"/>
<path d="M56.32 11.3837L50.7812 16L56.32 20.6162C56.3988 20.682 56.4554 20.7705 56.4821 20.8696C56.5089 20.9687 56.5045 21.0737 56.4696 21.1702C56.4346 21.2667 56.3708 21.3502 56.2868 21.4092C56.2028 21.4682 56.1026 21.4999 56 21.5C55.8829 21.5005 55.7694 21.4593 55.68 21.3837L49.68 16.3837C49.6238 16.3368 49.5786 16.2781 49.5476 16.2118C49.5166 16.1455 49.5005 16.0732 49.5005 16C49.5005 15.9268 49.5166 15.8545 49.5476 15.7882C49.5786 15.7219 49.6238 15.6632 49.68 15.6162L55.68 10.6162C55.7823 10.537 55.9114 10.5006 56.0401 10.5147C56.1688 10.5287 56.287 10.5921 56.3699 10.6915C56.4528 10.7909 56.4939 10.9186 56.4846 11.0477C56.4753 11.1768 56.4163 11.2973 56.32 11.3837ZM78.32 15.6162L72.32 10.6162C72.27 10.5713 72.2114 10.537 72.1478 10.5152C72.0843 10.4934 72.0169 10.4847 71.9499 10.4895C71.8829 10.4944 71.8175 10.5127 71.7577 10.5433C71.6979 10.574 71.6449 10.6164 71.6019 10.668C71.5588 10.7196 71.5266 10.7794 71.5072 10.8437C71.4878 10.9081 71.4815 10.9757 71.4888 11.0425C71.4961 11.1093 71.5168 11.1739 71.5496 11.2326C71.5825 11.2912 71.6268 11.3426 71.68 11.3837L77.2187 16L71.68 20.6162C71.6268 20.6574 71.5825 20.7088 71.5496 20.7674C71.5168 20.826 71.4961 20.8907 71.4888 20.9575C71.4815 21.0243 71.4878 21.0919 71.5072 21.1562C71.5266 21.2206 71.5588 21.2803 71.6019 21.3319C71.6449 21.3836 71.6979 21.426 71.7577 21.4566C71.8175 21.4873 71.8829 21.5056 71.9499 21.5104C72.0169 21.5153 72.0843 21.5065 72.1478 21.4848C72.2114 21.463 72.27 21.4286 72.32 21.3837L78.32 16.3837C78.3761 16.3368 78.4213 16.2781 78.4524 16.2118C78.4834 16.1455 78.4994 16.0732 78.4994 16C78.4994 15.9268 78.4834 15.8545 78.4524 15.7882C78.4213 15.7219 78.3761 15.6632 78.32 15.6162ZM68.1712 4.52999C68.1095 4.50747 68.0439 4.49733 67.9783 4.50016C67.9127 4.50299 67.8482 4.51872 67.7887 4.54647C67.7291 4.57421 67.6756 4.61342 67.6312 4.66186C67.5868 4.71029 67.5524 4.767 67.53 4.82874L59.53 26.8287C59.5074 26.8905 59.4973 26.956 59.5001 27.0216C59.503 27.0873 59.5187 27.1517 59.5464 27.2113C59.5742 27.2708 59.6134 27.3243 59.6618 27.3687C59.7103 27.4131 59.767 27.4475 59.8287 27.47C59.8837 27.4896 59.9416 27.4998 60 27.5C60.1026 27.5 60.2027 27.4685 60.2868 27.4097C60.3709 27.3509 60.4348 27.2676 60.47 27.1712L68.47 5.17124C68.4925 5.10952 68.5026 5.04396 68.4998 4.97833C68.497 4.91269 68.4812 4.84825 68.4535 4.7887C68.4257 4.72914 68.3865 4.67564 68.3381 4.63125C68.2897 4.58686 68.233 4.55245 68.1712 4.52999Z" fill="currentColor"/>
<path d="M104.48 11.5763L99.1712 16L104.48 20.4238C104.557 20.4865 104.62 20.5638 104.666 20.6512C104.713 20.7386 104.742 20.8343 104.751 20.9328C104.761 21.0314 104.75 21.1308 104.721 21.2254C104.692 21.32 104.644 21.4078 104.581 21.4839C104.517 21.5599 104.44 21.6227 104.352 21.6686C104.264 21.7144 104.168 21.7424 104.07 21.751C103.971 21.7596 103.872 21.7486 103.777 21.7186C103.683 21.6886 103.596 21.6402 103.52 21.5763L97.52 16.5763C97.4355 16.5059 97.3675 16.4178 97.3208 16.3182C97.2742 16.2186 97.25 16.11 97.25 16C97.25 15.8901 97.2742 15.7814 97.3208 15.6819C97.3675 15.5823 97.4355 15.4942 97.52 15.4238L103.52 10.4238C103.673 10.2984 103.869 10.2385 104.066 10.2572C104.263 10.276 104.445 10.3718 104.572 10.5238C104.698 10.6759 104.76 10.8718 104.743 11.0689C104.725 11.2661 104.631 11.4484 104.48 11.5763ZM126.48 15.4238L120.48 10.4238C120.404 10.3598 120.317 10.3114 120.223 10.2814C120.128 10.2514 120.029 10.2404 119.93 10.249C119.832 10.2576 119.736 10.2856 119.648 10.3315C119.56 10.3773 119.482 10.4401 119.419 10.5162C119.356 10.5922 119.308 10.6801 119.279 10.7747C119.25 10.8693 119.239 10.9687 119.249 11.0672C119.258 11.1658 119.287 11.2615 119.333 11.3489C119.38 11.4362 119.443 11.5135 119.52 11.5763L124.829 16L119.52 20.4238C119.443 20.4865 119.38 20.5638 119.333 20.6512C119.287 20.7386 119.258 20.8343 119.249 20.9328C119.239 21.0314 119.25 21.1308 119.279 21.2254C119.308 21.32 119.356 21.4078 119.419 21.4839C119.482 21.5599 119.56 21.6227 119.648 21.6686C119.736 21.7144 119.832 21.7424 119.93 21.751C120.029 21.7596 120.128 21.7486 120.223 21.7186C120.317 21.6886 120.404 21.6402 120.48 21.5763L126.48 16.5763C126.564 16.5059 126.632 16.4178 126.679 16.3182C126.726 16.2186 126.75 16.11 126.75 16C126.75 15.8901 126.726 15.7814 126.679 15.6819C126.632 15.5823 126.564 15.4942 126.48 15.4238ZM116.256 4.29878C116.163 4.26517 116.065 4.25019 115.966 4.25469C115.868 4.25918 115.771 4.28308 115.682 4.32499C115.593 4.36691 115.513 4.42603 115.446 4.49896C115.38 4.57189 115.328 4.65721 115.295 4.75003L107.295 26.75C107.229 26.937 107.24 27.1425 107.325 27.3214C107.411 27.5004 107.563 27.6383 107.75 27.705C107.83 27.7338 107.915 27.749 108 27.75C108.154 27.7501 108.304 27.7027 108.43 27.6143C108.556 27.526 108.652 27.401 108.705 27.2563L116.705 5.25628C116.739 5.1637 116.754 5.06539 116.749 4.96697C116.745 4.86856 116.721 4.77196 116.68 4.68269C116.638 4.59343 116.579 4.51325 116.507 4.44673C116.434 4.38021 116.349 4.32867 116.256 4.29503V4.29878Z" fill="currentColor"/>
<path d="M152.96 12.1525L148.342 16L152.96 19.8475C153.113 19.973 153.24 20.1276 153.333 20.3023C153.426 20.4771 153.484 20.6685 153.502 20.8656C153.521 21.0627 153.501 21.2616 153.442 21.4507C153.384 21.6399 153.288 21.8156 153.162 21.9677C153.035 22.1199 152.879 22.2454 152.704 22.3371C152.528 22.4288 152.337 22.4849 152.139 22.502C151.942 22.5192 151.743 22.4972 151.555 22.4372C151.366 22.3772 151.191 22.2804 151.04 22.1525L145.04 17.1525C144.871 17.0117 144.735 16.8355 144.642 16.6364C144.548 16.4372 144.5 16.22 144.5 16C144.5 15.7801 144.548 15.5628 144.642 15.3637C144.735 15.1645 144.871 14.9883 145.04 14.8475L151.04 9.84752C151.346 9.59667 151.739 9.47695 152.133 9.51444C152.527 9.55193 152.89 9.74359 153.143 10.0477C153.397 10.3517 153.519 10.7436 153.485 11.1378C153.451 11.5321 153.262 11.8968 152.96 12.1525ZM174.96 14.8475L168.96 9.84752C168.809 9.71959 168.634 9.62284 168.445 9.56285C168.257 9.50286 168.058 9.48082 167.861 9.498C167.663 9.51518 167.471 9.57124 167.296 9.66294C167.12 9.75465 166.965 9.88019 166.838 10.0323C166.711 10.1844 166.616 10.3602 166.558 10.5493C166.499 10.7385 166.479 10.9373 166.497 11.1344C166.516 11.3315 166.574 11.523 166.667 11.6977C166.76 11.8724 166.887 12.027 167.04 12.1525L171.657 16L167.04 19.8475C166.887 19.973 166.76 20.1276 166.667 20.3023C166.574 20.4771 166.516 20.6685 166.497 20.8656C166.479 21.0627 166.499 21.2616 166.558 21.4507C166.616 21.6399 166.711 21.8156 166.838 21.9677C166.965 22.1199 167.12 22.2454 167.296 22.3371C167.471 22.4288 167.663 22.4849 167.861 22.502C168.058 22.5192 168.257 22.4972 168.445 22.4372C168.634 22.3772 168.809 22.2804 168.96 22.1525L174.96 17.1525C175.129 17.0117 175.265 16.8355 175.358 16.6364C175.451 16.4372 175.5 16.22 175.5 16C175.5 15.7801 175.451 15.5628 175.358 15.3637C175.265 15.1645 175.129 14.9883 174.96 14.8475ZM164.512 3.59002C164.327 3.52268 164.131 3.49248 163.934 3.50115C163.737 3.50981 163.544 3.55717 163.365 3.64051C163.187 3.72386 163.026 3.84155 162.893 3.98689C162.76 4.13222 162.657 4.30233 162.59 4.48752L154.59 26.4875C154.454 26.8613 154.473 27.2737 154.641 27.6339C154.809 27.9942 155.114 28.2729 155.487 28.4088C155.651 28.4694 155.825 28.5003 156 28.5C156.308 28.5001 156.608 28.4053 156.861 28.2287C157.113 28.052 157.305 27.802 157.41 27.5125L165.41 5.51252C165.477 5.32736 165.507 5.13074 165.499 4.93391C165.49 4.73707 165.443 4.54387 165.359 4.36535C165.276 4.18682 165.158 4.02646 165.013 3.89342C164.868 3.76039 164.698 3.65729 164.512 3.59002Z" fill="currentColor"/>
<path d="M219 5H197C196.47 5 195.961 5.21071 195.586 5.58579C195.211 5.96086 195 6.46957 195 7V25C195 25.5304 195.211 26.0391 195.586 26.4142C195.961 26.7893 196.47 27 197 27H219C219.53 27 220.039 26.7893 220.414 26.4142C220.789 26.0391 221 25.5304 221 25V7C221 6.46957 220.789 5.96086 220.414 5.58579C220.039 5.21071 219.53 5 219 5ZM203.6 18.2C203.812 18.3591 203.952 18.596 203.99 18.8586C204.027 19.1211 203.959 19.3878 203.8 19.6C203.641 19.8122 203.404 19.9524 203.141 19.99C202.879 20.0275 202.612 19.9591 202.4 19.8L198.4 16.8C198.276 16.7069 198.175 16.5861 198.106 16.4472C198.036 16.3084 198 16.1552 198 16C198 15.8448 198.036 15.6916 198.106 15.5528C198.175 15.4139 198.276 15.2931 198.4 15.2L202.4 12.2C202.612 12.0409 202.879 11.9725 203.141 12.0101C203.404 12.0476 203.641 12.1878 203.8 12.4C203.959 12.6122 204.027 12.8789 203.99 13.1414C203.952 13.404 203.812 13.6409 203.6 13.8L200.666 16L203.6 18.2ZM210.961 9.275L206.961 23.275C206.927 23.4035 206.868 23.5239 206.787 23.6292C206.705 23.7345 206.604 23.8225 206.488 23.8882C206.373 23.9538 206.245 23.9958 206.113 24.0115C205.981 24.0273 205.847 24.0166 205.72 23.98C205.592 23.9434 205.473 23.8818 205.369 23.7986C205.265 23.7154 205.179 23.6123 205.116 23.4955C205.052 23.3786 205.013 23.2503 205 23.118C204.986 22.9857 205 22.8521 205.039 22.725L209.039 8.725C209.116 8.47467 209.288 8.26448 209.518 8.13961C209.748 8.01473 210.018 7.98512 210.27 8.05715C210.522 8.12918 210.735 8.29709 210.864 8.52481C210.994 8.75253 211.028 9.02189 210.961 9.275ZM217.6 16.8L213.6 19.8C213.388 19.9591 213.121 20.0275 212.859 19.99C212.596 19.9524 212.359 19.8122 212.2 19.6C212.041 19.3878 211.973 19.1211 212.01 18.8586C212.048 18.596 212.188 18.3591 212.4 18.2L215.334 16L212.4 13.8C212.295 13.7212 212.206 13.6225 212.14 13.5095C212.073 13.3965 212.029 13.2714 212.01 13.1414C211.991 13.0114 211.999 12.879 212.031 12.7518C212.064 12.6246 212.121 12.5051 212.2 12.4C212.279 12.2949 212.378 12.2064 212.491 12.1395C212.604 12.0726 212.729 12.0286 212.859 12.0101C212.989 11.9915 213.121 11.9987 213.248 12.0313C213.375 12.0639 213.495 12.1212 213.6 12.2L217.6 15.2C217.724 15.2931 217.825 15.4139 217.894 15.5528C217.964 15.6916 218 15.8448 218 16C218 16.1552 217.964 16.3084 217.894 16.4472C217.825 16.5861 217.724 16.7069 217.6 16.8Z" fill="currentColor"/>
<path opacity="0.2" d="M270 16L264 21H248L242 16L248 11H264L270 16Z" fill="currentColor"/>
<path d="M248.64 11.7687L243.563 16L248.64 20.2312C248.744 20.3143 248.83 20.4173 248.894 20.5341C248.957 20.6509 248.997 20.7792 249.01 20.9115C249.024 21.0438 249.01 21.1775 248.971 21.3046C248.933 21.4317 248.869 21.5499 248.784 21.652C248.698 21.7542 248.594 21.8383 248.476 21.8996C248.358 21.9608 248.229 21.9979 248.096 22.0086C247.964 22.0194 247.83 22.0036 247.704 21.9622C247.577 21.9208 247.461 21.8546 247.36 21.7675L241.36 16.7675C241.248 16.6736 241.157 16.5562 241.095 16.4234C241.033 16.2907 241 16.1459 241 15.9993C241 15.8528 241.033 15.708 241.095 15.5753C241.157 15.4425 241.248 15.3251 241.36 15.2312L247.36 10.2312C247.564 10.0615 247.827 9.97969 248.091 10.0038C248.355 10.028 248.599 10.1561 248.769 10.36C248.939 10.5639 249.02 10.8268 248.996 11.091C248.972 11.3552 248.844 11.599 248.64 11.7687ZM270.64 15.2312L264.64 10.2312C264.539 10.1472 264.423 10.0838 264.297 10.0448C264.172 10.0058 264.04 9.99188 263.909 10.0038C263.778 10.0158 263.651 10.0534 263.535 10.1145C263.419 10.1756 263.315 10.259 263.231 10.36C263.062 10.5639 262.98 10.8268 263.004 11.091C263.028 11.3552 263.156 11.599 263.36 11.7687L268.438 16L263.36 20.2312C263.256 20.3143 263.17 20.4173 263.107 20.5341C263.043 20.6509 263.004 20.7792 262.99 20.9115C262.977 21.0438 262.99 21.1775 263.029 21.3046C263.068 21.4317 263.132 21.5499 263.217 21.652C263.302 21.7542 263.407 21.8383 263.525 21.8996C263.643 21.9608 263.772 21.9979 263.904 22.0086C264.037 22.0194 264.17 22.0036 264.297 21.9622C264.423 21.9208 264.54 21.8546 264.64 21.7675L270.64 16.7675C270.753 16.6736 270.843 16.5562 270.906 16.4234C270.968 16.2907 271 16.1459 271 15.9993C271 15.8528 270.968 15.708 270.906 15.5753C270.843 15.4425 270.753 15.3251 270.64 15.2312ZM260.341 4.05997C260.218 4.01515 260.087 3.99509 259.956 4.00093C259.825 4.00676 259.696 4.03838 259.577 4.09398C259.458 4.14958 259.351 4.22807 259.262 4.32497C259.174 4.42187 259.105 4.53528 259.06 4.65872L251.06 26.6587C251.015 26.7822 250.995 26.9134 251.001 27.0448C251.006 27.1761 251.038 27.305 251.094 27.4241C251.149 27.5432 251.228 27.6502 251.325 27.739C251.422 27.8277 251.535 27.8964 251.659 27.9412C251.768 27.9802 251.884 28 252 28C252.206 28 252.406 27.9368 252.574 27.8189C252.742 27.701 252.87 27.5343 252.94 27.3412L260.94 5.34122C260.985 5.21778 261.005 5.08672 260.999 4.95552C260.993 4.82433 260.962 4.69556 260.906 4.57659C260.851 4.45761 260.772 4.35075 260.675 4.26211C260.578 4.17347 260.465 4.10478 260.341 4.05997Z" fill="currentColor"/>
</g>
<defs>
<clipPath id="clip0_17_2521">
<rect width="272" height="32" rx="5" fill="white"/>
</clipPath>
</defs>
</svg>
