<svg width="272" height="32" viewBox="0 0 272 32" fill="none" xmlns="http://www.w3.org/2000/svg">
<g clip-path="url(#clip0_17_2451)">
<path d="M28 8C27.9996 7.25195 27.7895 6.519 27.3935 5.88438C26.9974 5.24976 26.4314 4.73891 25.7596 4.40984C25.0878 4.08077 24.3372 3.94667 23.5931 4.02277C22.8489 4.09887 22.141 4.38212 21.5497 4.84036C20.9585 5.29859 20.5075 5.91344 20.2482 6.61508C19.9888 7.31673 19.9314 8.07704 20.0824 8.80968C20.2334 9.54233 20.5869 10.2179 21.1026 10.7598C21.6184 11.3016 22.2757 11.688 23 11.875V13C23 13.5304 22.7893 14.0391 22.4142 14.4142C22.0392 14.7893 21.5304 15 21 15H12C11.2974 14.9991 10.6071 15.1851 10 15.5387V11.875C10.9427 11.6316 11.7642 11.0528 12.3106 10.247C12.857 9.44121 13.0908 8.46381 12.9681 7.498C12.8455 6.53219 12.3747 5.64427 11.6442 5.00068C10.9137 4.35709 9.97358 4.00202 9.00001 4.00202C8.02644 4.00202 7.08628 4.35709 6.35578 5.00068C5.62527 5.64427 5.15457 6.53219 5.03189 7.498C4.90922 8.46381 5.143 9.44121 5.68941 10.247C6.23582 11.0528 7.05735 11.6316 8.00001 11.875V20.125C7.05735 20.3684 6.23582 20.9472 5.68941 21.753C5.143 22.5588 4.90922 23.5362 5.03189 24.502C5.15457 25.4678 5.62527 26.3557 6.35578 26.9993C7.08628 27.6429 8.02644 27.998 9.00001 27.998C9.97358 27.998 10.9137 27.6429 11.6442 26.9993C12.3747 26.3557 12.8455 25.4678 12.9681 24.502C13.0908 23.5362 12.857 22.5588 12.3106 21.753C11.7642 20.9472 10.9427 20.3684 10 20.125V19C10 18.4696 10.2107 17.9609 10.5858 17.5858C10.9609 17.2107 11.4696 17 12 17H21C22.0609 17 23.0783 16.5786 23.8284 15.8284C24.5786 15.0783 25 14.0609 25 13V11.875C25.8583 11.6521 26.6185 11.1507 27.1613 10.4495C27.7042 9.74828 27.9992 8.8868 28 8ZM7.00001 8C7.00001 7.60444 7.11731 7.21776 7.33707 6.88886C7.55683 6.55996 7.86919 6.30362 8.23464 6.15224C8.6001 6.00086 9.00223 5.96126 9.39019 6.03843C9.77815 6.1156 10.1345 6.30608 10.4142 6.58579C10.6939 6.86549 10.8844 7.22186 10.9616 7.60982C11.0388 7.99778 10.9991 8.39991 10.8478 8.76537C10.6964 9.13082 10.44 9.44318 10.1111 9.66294C9.78225 9.8827 9.39557 10 9.00001 10C8.46958 10 7.96087 9.78929 7.5858 9.41421C7.21072 9.03914 7.00001 8.53043 7.00001 8ZM11 24C11 24.3956 10.8827 24.7822 10.6629 25.1111C10.4432 25.44 10.1308 25.6964 9.76538 25.8478C9.39992 25.9991 8.99779 26.0387 8.60983 25.9616C8.22187 25.8844 7.8655 25.6939 7.5858 25.4142C7.30609 25.1345 7.11561 24.7781 7.03844 24.3902C6.96127 24.0022 7.00087 23.6001 7.15225 23.2346C7.30363 22.8692 7.55997 22.5568 7.88887 22.3371C8.21777 22.1173 8.60445 22 9.00001 22C9.53044 22 10.0391 22.2107 10.4142 22.5858C10.7893 22.9609 11 23.4696 11 24ZM24 10C23.6044 10 23.2178 9.8827 22.8889 9.66294C22.56 9.44318 22.3036 9.13082 22.1523 8.76537C22.0009 8.39991 21.9613 7.99778 22.0384 7.60982C22.1156 7.22186 22.3061 6.86549 22.5858 6.58579C22.8655 6.30608 23.2219 6.1156 23.6098 6.03843C23.9978 5.96126 24.3999 6.00086 24.7654 6.15224C25.1308 6.30362 25.4432 6.55996 25.6629 6.88886C25.8827 7.21776 26 7.60444 26 8C26 8.53043 25.7893 9.03914 25.4142 9.41421C25.0392 9.78929 24.5304 10 24 10Z" fill="currentColor"/>
<path d="M75.5 7.99999C75.5001 7.32909 75.3073 6.67231 74.9447 6.10785C74.5821 5.5434 74.0648 5.09506 73.4546 4.81623C72.8444 4.5374 72.1669 4.43983 71.5028 4.53513C70.8387 4.63043 70.216 4.91459 69.7089 5.35377C69.2017 5.79295 68.8314 6.36864 68.6422 7.0123C68.4529 7.65595 68.4526 8.34043 68.6413 8.98424C68.8301 9.62804 69.1999 10.204 69.7067 10.6436C70.2135 11.0832 70.836 11.3679 71.5 11.4637V13C71.5 13.663 71.2366 14.2989 70.7678 14.7678C70.2989 15.2366 69.663 15.5 69 15.5H60C59.534 15.4997 59.0727 15.5928 58.6433 15.7738C58.214 15.9548 57.8252 16.22 57.5 16.5537V11.4637C58.3758 11.3373 59.1712 10.8839 59.7262 10.1947C60.2811 9.50543 60.5544 8.63159 60.491 7.74899C60.4277 6.86639 60.0323 6.04056 59.3846 5.43768C58.7369 4.8348 57.8849 4.49964 57 4.49964C56.1151 4.49964 55.2631 4.8348 54.6154 5.43768C53.9677 6.04056 53.5724 6.86639 53.509 7.74899C53.4456 8.63159 53.7189 9.50543 54.2739 10.1947C54.8288 10.8839 55.6242 11.3373 56.5 11.4637V20.5362C55.6242 20.6626 54.8288 21.1161 54.2739 21.8053C53.7189 22.4945 53.4456 23.3684 53.509 24.251C53.5724 25.1336 53.9677 25.9594 54.6154 26.5623C55.2631 27.1652 56.1151 27.5003 57 27.5003C57.8849 27.5003 58.7369 27.1652 59.3846 26.5623C60.0323 25.9594 60.4277 25.1336 60.491 24.251C60.5544 23.3684 60.2811 22.4945 59.7262 21.8053C59.1712 21.1161 58.3758 20.6626 57.5 20.5362V19C57.5 18.3369 57.7634 17.7011 58.2322 17.2322C58.7011 16.7634 59.337 16.5 60 16.5H69C69.4596 16.5 69.9148 16.4095 70.3394 16.2336C70.764 16.0577 71.1499 15.7999 71.4749 15.4749C71.7999 15.1499 72.0577 14.764 72.2336 14.3394C72.4095 13.9147 72.5 13.4596 72.5 13V11.4637C73.3329 11.3435 74.0947 10.9272 74.6456 10.2911C75.1966 9.65492 75.4999 8.84156 75.5 7.99999ZM54.5 7.99999C54.5 7.50553 54.6466 7.02218 54.9213 6.61106C55.196 6.19994 55.5865 5.87951 56.0433 5.69029C56.5001 5.50107 57.0028 5.45156 57.4877 5.54802C57.9727 5.64449 58.4181 5.88259 58.7678 6.23222C59.1174 6.58185 59.3555 7.02731 59.452 7.51226C59.5484 7.99721 59.4989 8.49988 59.3097 8.9567C59.1205 9.41351 58.8001 9.80396 58.3889 10.0787C57.9778 10.3534 57.4945 10.5 57 10.5C56.337 10.5 55.7011 10.2366 55.2322 9.76775C54.7634 9.29891 54.5 8.66303 54.5 7.99999ZM59.5 24C59.5 24.4944 59.3534 24.9778 59.0787 25.3889C58.804 25.8 58.4135 26.1205 57.9567 26.3097C57.4999 26.4989 56.9972 26.5484 56.5123 26.452C56.0273 26.3555 55.5819 26.1174 55.2322 25.7678C54.8826 25.4181 54.6445 24.9727 54.548 24.4877C54.4516 24.0028 54.5011 23.5001 54.6903 23.0433C54.8795 22.5865 55.2 22.196 55.6111 21.9213C56.0222 21.6466 56.5056 21.5 57 21.5C57.3283 21.5 57.6534 21.5647 57.9567 21.6903C58.26 21.8159 58.5356 22.0001 58.7678 22.2322C58.9999 22.4644 59.1841 22.74 59.3097 23.0433C59.4353 23.3466 59.5 23.6717 59.5 24ZM72 10.5C71.5056 10.5 71.0222 10.3534 70.6111 10.0787C70.2 9.80396 69.8795 9.41351 69.6903 8.9567C69.5011 8.49988 69.4516 7.99721 69.548 7.51226C69.6445 7.02731 69.8826 6.58185 70.2322 6.23222C70.5819 5.88259 71.0273 5.64449 71.5123 5.54802C71.9972 5.45156 72.4999 5.50107 72.9567 5.69029C73.4135 5.87951 73.804 6.19994 74.0787 6.61106C74.3534 7.02218 74.5 7.50553 74.5 7.99999C74.5 8.66303 74.2366 9.29891 73.7678 9.76775C73.2989 10.2366 72.663 10.5 72 10.5Z" fill="currentColor"/>
<path d="M123.75 7.99997C123.75 7.29045 123.548 6.59552 123.169 5.99591C122.79 5.3963 122.248 4.9166 121.607 4.61254C120.966 4.30847 120.252 4.19252 119.547 4.27814C118.843 4.36376 118.178 4.64744 117.628 5.09624C117.078 5.54504 116.668 6.14053 116.443 6.81356C116.218 7.48659 116.189 8.20953 116.359 8.89843C116.529 9.58732 116.891 10.2139 117.402 10.7054C117.914 11.1968 118.555 11.5331 119.25 11.675V13C119.25 13.5967 119.013 14.169 118.591 14.591C118.169 15.0129 117.597 15.25 117 15.25H108C107.188 15.2483 106.398 15.5117 105.75 16V11.675C106.661 11.4891 107.47 10.9718 108.02 10.2233C108.571 9.47478 108.824 8.54843 108.731 7.62383C108.638 6.69922 108.204 5.84224 107.515 5.21902C106.826 4.59579 105.929 4.25073 105 4.25073C104.071 4.25073 103.174 4.59579 102.485 5.21902C101.796 5.84224 101.362 6.69922 101.269 7.62383C101.176 8.54843 101.429 9.47478 101.98 10.2233C102.53 10.9718 103.339 11.4891 104.25 11.675V20.325C103.339 20.5108 102.53 21.0282 101.98 21.7767C101.429 22.5252 101.176 23.4515 101.269 24.3761C101.362 25.3007 101.796 26.1577 102.485 26.7809C103.174 27.4041 104.071 27.7492 105 27.7492C105.929 27.7492 106.826 27.4041 107.515 26.7809C108.204 26.1577 108.638 25.3007 108.731 24.3761C108.824 23.4515 108.571 22.5252 108.02 21.7767C107.47 21.0282 106.661 20.5108 105.75 20.325V19C105.75 18.4032 105.987 17.8309 106.409 17.409C106.831 16.987 107.403 16.75 108 16.75H117C117.995 16.75 118.948 16.3549 119.652 15.6516C120.355 14.9484 120.75 13.9945 120.75 13V11.675C121.596 11.501 122.357 11.0404 122.904 10.371C123.45 9.70155 123.749 8.86415 123.75 7.99997ZM102.75 7.99997C102.75 7.55496 102.882 7.11995 103.129 6.74994C103.376 6.37993 103.728 6.09154 104.139 5.92124C104.55 5.75094 105.003 5.70639 105.439 5.7932C105.875 5.88002 106.276 6.09431 106.591 6.40898C106.906 6.72365 107.12 7.12456 107.207 7.56102C107.294 7.99747 107.249 8.44987 107.079 8.86101C106.908 9.27214 106.62 9.62354 106.25 9.87078C105.88 10.118 105.445 10.25 105 10.25C104.403 10.25 103.831 10.0129 103.409 9.59096C102.987 9.169 102.75 8.59671 102.75 7.99997ZM107.25 24C107.25 24.445 107.118 24.88 106.871 25.25C106.624 25.62 106.272 25.9084 105.861 26.0787C105.45 26.249 104.998 26.2936 104.561 26.2067C104.125 26.1199 103.724 25.9056 103.409 25.591C103.094 25.2763 102.88 24.8754 102.793 24.4389C102.706 24.0025 102.751 23.5501 102.921 23.1389C103.092 22.7278 103.38 22.3764 103.75 22.1292C104.12 21.8819 104.555 21.75 105 21.75C105.597 21.75 106.169 21.987 106.591 22.409C107.013 22.8309 107.25 23.4032 107.25 24ZM120 10.25C119.555 10.25 119.12 10.118 118.75 9.87078C118.38 9.62354 118.092 9.27214 117.921 8.86101C117.751 8.44987 117.706 7.99747 117.793 7.56102C117.88 7.12456 118.094 6.72365 118.409 6.40898C118.724 6.09431 119.125 5.88002 119.561 5.7932C119.998 5.70639 120.45 5.75094 120.861 5.92124C121.272 6.09154 121.624 6.37993 121.871 6.74994C122.118 7.11995 122.25 7.55496 122.25 7.99997C122.25 8.59671 122.013 9.169 121.591 9.59096C121.169 10.0129 120.597 10.25 120 10.25Z" fill="currentColor"/>
<path d="M172.5 8.00002C172.5 7.17502 172.273 6.36589 171.844 5.66107C171.416 4.95625 170.801 4.38287 170.069 4.0036C169.336 3.62433 168.513 3.45376 167.69 3.51055C166.867 3.56734 166.076 3.8493 165.402 4.3256C164.728 4.80191 164.199 5.45423 163.871 6.21126C163.543 6.96829 163.429 7.8009 163.543 8.61808C163.656 9.43526 163.992 10.2056 164.513 10.8448C165.035 11.484 165.722 11.9675 166.5 12.2425V13C166.5 13.3978 166.342 13.7794 166.061 14.0607C165.779 14.342 165.398 14.5 165 14.5H156C155.489 14.4998 154.982 14.5869 154.5 14.7575V12.2425C155.501 11.8887 156.344 11.1924 156.881 10.2768C157.419 9.36118 157.615 8.28516 157.435 7.23892C157.256 6.19268 156.712 5.24358 155.9 4.55936C155.089 3.87515 154.062 3.49988 153 3.49988C151.938 3.49988 150.911 3.87515 150.1 4.55936C149.288 5.24358 148.744 6.19268 148.565 7.23892C148.385 8.28516 148.581 9.36118 149.119 10.2768C149.656 11.1924 150.499 11.8887 151.5 12.2425V19.7575C150.499 20.1114 149.656 20.8076 149.119 21.7232C148.581 22.6389 148.385 23.7149 148.565 24.7611C148.744 25.8074 149.288 26.7565 150.1 27.4407C150.911 28.1249 151.938 28.5002 153 28.5002C154.062 28.5002 155.089 28.1249 155.9 27.4407C156.712 26.7565 157.256 25.8074 157.435 24.7611C157.615 23.7149 157.419 22.6389 156.881 21.7232C156.344 20.8076 155.501 20.1114 154.5 19.7575V19C154.5 18.6022 154.658 18.2207 154.939 17.9394C155.221 17.6581 155.602 17.5 156 17.5H165C166.193 17.5 167.338 17.0259 168.182 16.182C169.026 15.3381 169.5 14.1935 169.5 13V12.2425C170.377 11.9312 171.136 11.3564 171.673 10.5969C172.21 9.83734 172.499 8.93027 172.5 8.00002ZM153 6.50002C153.297 6.50002 153.587 6.58799 153.833 6.75282C154.08 6.91764 154.272 7.15191 154.386 7.426C154.499 7.70008 154.529 8.00168 154.471 8.29266C154.413 8.58363 154.27 8.8509 154.061 9.06068C153.851 9.27046 153.584 9.41332 153.293 9.4712C153.002 9.52908 152.7 9.49937 152.426 9.38584C152.152 9.27231 151.918 9.08005 151.753 8.83337C151.588 8.5867 151.5 8.29669 151.5 8.00002C151.5 7.6022 151.658 7.22066 151.939 6.93936C152.221 6.65806 152.602 6.50002 153 6.50002ZM153 25.5C152.703 25.5 152.413 25.412 152.167 25.2472C151.92 25.0824 151.728 24.8481 151.614 24.574C151.501 24.3 151.471 23.9984 151.529 23.7074C151.587 23.4164 151.73 23.1491 151.939 22.9394C152.149 22.7296 152.416 22.5867 152.707 22.5288C152.998 22.471 153.3 22.5007 153.574 22.6142C153.848 22.7277 154.082 22.92 154.247 23.1667C154.412 23.4133 154.5 23.7033 154.5 24C154.5 24.3978 154.342 24.7794 154.061 25.0607C153.779 25.342 153.398 25.5 153 25.5ZM168 9.50002C167.703 9.50002 167.413 9.41205 167.167 9.24722C166.92 9.0824 166.728 8.84813 166.614 8.57405C166.501 8.29996 166.471 7.99836 166.529 7.70738C166.587 7.41641 166.73 7.14914 166.939 6.93936C167.149 6.72958 167.416 6.58672 167.707 6.52884C167.998 6.47096 168.3 6.50067 168.574 6.6142C168.848 6.72773 169.082 6.91999 169.247 7.16666C169.412 7.41334 169.5 7.70335 169.5 8.00002C169.5 8.39784 169.342 8.77938 169.061 9.06068C168.779 9.34198 168.398 9.50002 168 9.50002Z" fill="currentColor"/>
<path d="M220 8C220 7.25195 219.789 6.519 219.393 5.88438C218.997 5.24976 218.431 4.73891 217.76 4.40984C217.088 4.08077 216.337 3.94667 215.593 4.02277C214.849 4.09887 214.141 4.38212 213.55 4.84036C212.958 5.29859 212.508 5.91344 212.248 6.61508C211.989 7.31673 211.931 8.07704 212.082 8.80968C212.233 9.54233 212.587 10.2179 213.103 10.7598C213.618 11.3016 214.276 11.688 215 11.875V13C215 13.5304 214.789 14.0391 214.414 14.4142C214.039 14.7893 213.53 15 213 15H204C203.297 14.9991 202.607 15.1851 202 15.5387V11.875C202.943 11.6316 203.764 11.0528 204.311 10.247C204.857 9.44121 205.091 8.46381 204.968 7.498C204.845 6.53219 204.375 5.64427 203.644 5.00068C202.914 4.35709 201.974 4.00202 201 4.00202C200.026 4.00202 199.086 4.35709 198.356 5.00068C197.625 5.64427 197.155 6.53219 197.032 7.498C196.909 8.46381 197.143 9.44121 197.689 10.247C198.236 11.0528 199.057 11.6316 200 11.875V20.125C199.057 20.3684 198.236 20.9472 197.689 21.753C197.143 22.5588 196.909 23.5362 197.032 24.502C197.155 25.4678 197.625 26.3557 198.356 26.9993C199.086 27.6429 200.026 27.998 201 27.998C201.974 27.998 202.914 27.6429 203.644 26.9993C204.375 26.3557 204.845 25.4678 204.968 24.502C205.091 23.5362 204.857 22.5588 204.311 21.753C203.764 20.9472 202.943 20.3684 202 20.125V19C202 18.4696 202.211 17.9609 202.586 17.5858C202.961 17.2107 203.47 17 204 17H213C214.061 17 215.078 16.5786 215.828 15.8284C216.579 15.0783 217 14.0609 217 13V11.875C217.858 11.6521 218.618 11.1507 219.161 10.4495C219.704 9.74828 219.999 8.8868 220 8ZM199 8C199 7.60444 199.117 7.21776 199.337 6.88886C199.557 6.55996 199.869 6.30362 200.235 6.15224C200.6 6.00086 201.002 5.96126 201.39 6.03843C201.778 6.1156 202.135 6.30608 202.414 6.58579C202.694 6.86549 202.884 7.22186 202.962 7.60982C203.039 7.99778 202.999 8.39991 202.848 8.76537C202.696 9.13082 202.44 9.44318 202.111 9.66294C201.782 9.8827 201.396 10 201 10C200.47 10 199.961 9.78929 199.586 9.41421C199.211 9.03914 199 8.53043 199 8ZM203 24C203 24.3956 202.883 24.7822 202.663 25.1111C202.443 25.44 202.131 25.6964 201.765 25.8478C201.4 25.9991 200.998 26.0387 200.61 25.9616C200.222 25.8844 199.866 25.6939 199.586 25.4142C199.306 25.1345 199.116 24.7781 199.038 24.3902C198.961 24.0022 199.001 23.6001 199.152 23.2346C199.304 22.8692 199.56 22.5568 199.889 22.3371C200.218 22.1173 200.604 22 201 22C201.53 22 202.039 22.2107 202.414 22.5858C202.789 22.9609 203 23.4696 203 24Z" fill="currentColor"/>
<path opacity="0.2" d="M267 8C267 8.59334 266.824 9.17336 266.494 9.66671C266.165 10.1601 265.696 10.5446 265.148 10.7716C264.6 10.9987 263.997 11.0581 263.415 10.9424C262.833 10.8266 262.298 10.5409 261.879 10.1213C261.459 9.70176 261.173 9.16721 261.058 8.58527C260.942 8.00333 261.001 7.40013 261.228 6.85195C261.455 6.30377 261.84 5.83524 262.333 5.50559C262.827 5.17595 263.407 5 264 5C264.796 5 265.559 5.31607 266.121 5.87868C266.684 6.44129 267 7.20435 267 8Z" fill="currentColor"/>
<path d="M268 8C268 7.25195 267.789 6.519 267.393 5.88438C266.997 5.24976 266.431 4.73891 265.76 4.40984C265.088 4.08077 264.337 3.94667 263.593 4.02277C262.849 4.09887 262.141 4.38212 261.55 4.84036C260.958 5.29859 260.508 5.91344 260.248 6.61508C259.989 7.31673 259.931 8.07704 260.082 8.80968C260.233 9.54233 260.587 10.2179 261.103 10.7598C261.618 11.3016 262.276 11.688 263 11.875V13C263 13.5304 262.789 14.0391 262.414 14.4142C262.039 14.7893 261.53 15 261 15H252C251.297 14.9991 250.607 15.1851 250 15.5387V11.875C250.943 11.6316 251.764 11.0528 252.311 10.247C252.857 9.44121 253.091 8.46381 252.968 7.498C252.845 6.53219 252.375 5.64427 251.644 5.00068C250.914 4.35709 249.974 4.00202 249 4.00202C248.026 4.00202 247.086 4.35709 246.356 5.00068C245.625 5.64427 245.155 6.53219 245.032 7.498C244.909 8.46381 245.143 9.44121 245.689 10.247C246.236 11.0528 247.057 11.6316 248 11.875V20.125C247.057 20.3684 246.236 20.9472 245.689 21.753C245.143 22.5588 244.909 23.5362 245.032 24.502C245.155 25.4678 245.625 26.3557 246.356 26.9993C247.086 27.6429 248.026 27.998 249 27.998C249.974 27.998 250.914 27.6429 251.644 26.9993C252.375 26.3557 252.845 25.4678 252.968 24.502C253.091 23.5362 252.857 22.5588 252.311 21.753C251.764 20.9472 250.943 20.3684 250 20.125V19C250 18.4696 250.211 17.9609 250.586 17.5858C250.961 17.2107 251.47 17 252 17H261C262.061 17 263.078 16.5786 263.828 15.8284C264.579 15.0783 265 14.0609 265 13V11.875C265.858 11.6521 266.618 11.1507 267.161 10.4495C267.704 9.74828 267.999 8.8868 268 8ZM247 8C247 7.60444 247.117 7.21776 247.337 6.88886C247.557 6.55996 247.869 6.30362 248.235 6.15224C248.6 6.00086 249.002 5.96126 249.39 6.03843C249.778 6.1156 250.135 6.30608 250.414 6.58579C250.694 6.86549 250.884 7.22186 250.962 7.60982C251.039 7.99778 250.999 8.39991 250.848 8.76537C250.696 9.13082 250.44 9.44318 250.111 9.66294C249.782 9.8827 249.396 10 249 10C248.47 10 247.961 9.78929 247.586 9.41421C247.211 9.03914 247 8.53043 247 8ZM251 24C251 24.3956 250.883 24.7822 250.663 25.1111C250.443 25.44 250.131 25.6964 249.765 25.8478C249.4 25.9991 248.998 26.0387 248.61 25.9616C248.222 25.8844 247.866 25.6939 247.586 25.4142C247.306 25.1345 247.116 24.7781 247.038 24.3902C246.961 24.0022 247.001 23.6001 247.152 23.2346C247.304 22.8692 247.56 22.5568 247.889 22.3371C248.218 22.1173 248.604 22 249 22C249.53 22 250.039 22.2107 250.414 22.5858C250.789 22.9609 251 23.4696 251 24ZM264 10C263.604 10 263.218 9.8827 262.889 9.66294C262.56 9.44318 262.304 9.13082 262.152 8.76537C262.001 8.39991 261.961 7.99778 262.038 7.60982C262.116 7.22186 262.306 6.86549 262.586 6.58579C262.866 6.30608 263.222 6.1156 263.61 6.03843C263.998 5.96126 264.4 6.00086 264.765 6.15224C265.131 6.30362 265.443 6.55996 265.663 6.88886C265.883 7.21776 266 7.60444 266 8C266 8.53043 265.789 9.03914 265.414 9.41421C265.039 9.78929 264.53 10 264 10Z" fill="currentColor"/>
</g>
<defs>
<clipPath id="clip0_17_2451">
<rect width="272" height="32" rx="5" fill="white"/>
</clipPath>
</defs>
</svg>
