<svg width="272" height="32" viewBox="0 0 272 32" fill="none" xmlns="http://www.w3.org/2000/svg">
<g clip-path="url(#clip0_17_2409)">
<path d="M28 8.00006C27.9996 7.25201 27.7895 6.51906 27.3935 5.88444C26.9974 5.24982 26.4314 4.73897 25.7596 4.4099C25.0878 4.08083 24.3372 3.94673 23.5931 4.02283C22.8489 4.09893 22.141 4.38218 21.5497 4.84042C20.9585 5.29865 20.5075 5.9135 20.2482 6.61515C19.9888 7.31679 19.9314 8.0771 20.0824 8.80975C20.2334 9.54239 20.5869 10.218 21.1026 10.7598C21.6184 11.3017 22.2757 11.688 23 11.8751V13.0001C23 13.5305 22.7893 14.0392 22.4142 14.4143C22.0392 14.7893 21.5304 15.0001 21 15.0001H11C10.4696 15.0001 9.96087 14.7893 9.5858 14.4143C9.21072 14.0392 9.00001 13.5305 9.00001 13.0001V11.8751C9.94267 11.6317 10.7642 11.0528 11.3106 10.2471C11.857 9.44127 12.0908 8.46387 11.9681 7.49806C11.8455 6.53225 11.3747 5.64433 10.6442 5.00074C9.91374 4.35715 8.97358 4.00208 8.00001 4.00208C7.02644 4.00208 6.08628 4.35715 5.35578 5.00074C4.62527 5.64433 4.15457 6.53225 4.03189 7.49806C3.90922 8.46387 4.143 9.44127 4.68941 10.2471C5.23582 11.0528 6.05735 11.6317 7.00001 11.8751V13.0001C7.00001 14.0609 7.42144 15.0783 8.17158 15.8285C8.92173 16.5786 9.93914 17.0001 11 17.0001H15V20.1251C14.0574 20.3685 13.2358 20.9473 12.6894 21.7531C12.143 22.5588 11.9092 23.5362 12.0319 24.5021C12.1546 25.4679 12.6253 26.3558 13.3558 26.9994C14.0863 27.643 15.0264 27.998 16 27.998C16.9736 27.998 17.9137 27.643 18.6442 26.9994C19.3747 26.3558 19.8455 25.4679 19.9681 24.5021C20.0908 23.5362 19.857 22.5588 19.3106 21.7531C18.7642 20.9473 17.9427 20.3685 17 20.1251V17.0001H21C22.0609 17.0001 23.0783 16.5786 23.8284 15.8285C24.5786 15.0783 25 14.0609 25 13.0001V11.8751C25.8583 11.6521 26.6185 11.1508 27.1613 10.4496C27.7042 9.74834 27.9992 8.88686 28 8.00006ZM6.00001 8.00006C6.00001 7.6045 6.11731 7.21782 6.33707 6.88892C6.55683 6.56002 6.86919 6.30368 7.23464 6.1523C7.60009 6.00093 8.00223 5.96132 8.39019 6.03849C8.77815 6.11566 9.13452 6.30614 9.41422 6.58585C9.69393 6.86555 9.88441 7.22192 9.96158 7.60988C10.0388 7.99784 9.99914 8.39997 9.84777 8.76543C9.69639 9.13088 9.44005 9.44324 9.11115 9.663C8.78225 9.88276 8.39557 10.0001 8.00001 10.0001C7.46958 10.0001 6.96087 9.78935 6.5858 9.41427C6.21072 9.0392 6.00001 8.53049 6.00001 8.00006ZM18 24.0001C18 24.3956 17.8827 24.7823 17.6629 25.1112C17.4432 25.4401 17.1308 25.6964 16.7654 25.8478C16.3999 25.9992 15.9978 26.0388 15.6098 25.9616C15.2219 25.8845 14.8655 25.694 14.5858 25.4143C14.3061 25.1346 14.1156 24.7782 14.0384 24.3902C13.9613 24.0023 14.0009 23.6001 14.1523 23.2347C14.3036 22.8692 14.56 22.5569 14.8889 22.3371C15.2178 22.1174 15.6044 22.0001 16 22.0001C16.5304 22.0001 17.0392 22.2108 17.4142 22.5858C17.7893 22.9609 18 23.4696 18 24.0001ZM24 10.0001C23.6044 10.0001 23.2178 9.88276 22.8889 9.663C22.56 9.44324 22.3036 9.13088 22.1523 8.76543C22.0009 8.39997 21.9613 7.99784 22.0384 7.60988C22.1156 7.22192 22.3061 6.86555 22.5858 6.58585C22.8655 6.30614 23.2219 6.11566 23.6098 6.03849C23.9978 5.96132 24.3999 6.00093 24.7654 6.1523C25.1308 6.30368 25.4432 6.56002 25.6629 6.88892C25.8827 7.21782 26 7.6045 26 8.00006C26 8.53049 25.7893 9.0392 25.4142 9.41427C25.0392 9.78935 24.5304 10.0001 24 10.0001Z" fill="currentColor"/>
<path d="M75.5 7.99999C75.5001 7.32909 75.3073 6.67231 74.9447 6.10785C74.5821 5.5434 74.0648 5.09506 73.4546 4.81623C72.8444 4.5374 72.1669 4.43983 71.5028 4.53513C70.8387 4.63043 70.216 4.91459 69.7089 5.35377C69.2017 5.79295 68.8314 6.36864 68.6422 7.0123C68.4529 7.65595 68.4526 8.34043 68.6413 8.98424C68.8301 9.62804 69.1999 10.204 69.7067 10.6436C70.2135 11.0832 70.836 11.3679 71.5 11.4637V13C71.5 13.663 71.2366 14.2989 70.7678 14.7678C70.2989 15.2366 69.663 15.5 69 15.5H59C58.337 15.5 57.7011 15.2366 57.2322 14.7678C56.7634 14.2989 56.5 13.663 56.5 13V11.4637C57.3758 11.3373 58.1712 10.8839 58.7262 10.1947C59.2811 9.50543 59.5544 8.63159 59.491 7.74899C59.4277 6.86639 59.0323 6.04056 58.3846 5.43768C57.7369 4.8348 56.8849 4.49964 56 4.49964C55.1151 4.49964 54.2631 4.8348 53.6154 5.43768C52.9677 6.04056 52.5724 6.86639 52.509 7.74899C52.4456 8.63159 52.7189 9.50543 53.2739 10.1947C53.8288 10.8839 54.6242 11.3373 55.5 11.4637V13C55.5 13.4596 55.5905 13.9147 55.7664 14.3394C55.9423 14.764 56.2001 15.1499 56.5251 15.4749C57.1815 16.1312 58.0717 16.5 59 16.5H63.5V20.5362C62.6242 20.6626 61.8288 21.1161 61.2739 21.8053C60.7189 22.4945 60.4456 23.3684 60.509 24.251C60.5724 25.1336 60.9677 25.9594 61.6154 26.5623C62.2631 27.1652 63.1151 27.5003 64 27.5003C64.8849 27.5003 65.7369 27.1652 66.3846 26.5623C67.0323 25.9594 67.4277 25.1336 67.491 24.251C67.5544 23.3684 67.2811 22.4945 66.7262 21.8053C66.1712 21.1161 65.3758 20.6626 64.5 20.5362V16.5H69C69.4596 16.5 69.9148 16.4095 70.3394 16.2336C70.764 16.0577 71.1499 15.7999 71.4749 15.4749C71.7999 15.1499 72.0577 14.764 72.2336 14.3394C72.4095 13.9147 72.5 13.4596 72.5 13V11.4637C73.3329 11.3435 74.0947 10.9272 74.6456 10.2911C75.1966 9.65492 75.4999 8.84156 75.5 7.99999ZM53.5 7.99999C53.5 7.50553 53.6466 7.02218 53.9213 6.61106C54.196 6.19994 54.5865 5.87951 55.0433 5.69029C55.5001 5.50107 56.0028 5.45156 56.4877 5.54802C56.9727 5.64449 57.4181 5.88259 57.7678 6.23222C58.1174 6.58185 58.3555 7.02731 58.452 7.51226C58.5484 7.99721 58.4989 8.49988 58.3097 8.9567C58.1205 9.41351 57.8001 9.80396 57.3889 10.0787C56.9778 10.3534 56.4945 10.5 56 10.5C55.337 10.5 54.7011 10.2366 54.2322 9.76775C53.7634 9.29891 53.5 8.66303 53.5 7.99999ZM66.5 24C66.5 24.4944 66.3534 24.9778 66.0787 25.3889C65.804 25.8 65.4135 26.1205 64.9567 26.3097C64.4999 26.4989 63.9972 26.5484 63.5123 26.452C63.0273 26.3555 62.5819 26.1174 62.2322 25.7678C61.8826 25.4181 61.6445 24.9727 61.548 24.4877C61.4516 24.0028 61.5011 23.5001 61.6903 23.0433C61.8795 22.5865 62.2 22.196 62.6111 21.9213C63.0222 21.6466 63.5056 21.5 64 21.5C64.663 21.5 65.2989 21.7634 65.7678 22.2322C66.2366 22.7011 66.5 23.3369 66.5 24ZM72 10.5C71.5056 10.5 71.0222 10.3534 70.6111 10.0787C70.2 9.80396 69.8795 9.41351 69.6903 8.9567C69.5011 8.49988 69.4516 7.99721 69.548 7.51226C69.6445 7.02731 69.8826 6.58185 70.2322 6.23222C70.5819 5.88259 71.0273 5.64449 71.5123 5.54802C71.9972 5.45156 72.4999 5.50107 72.9567 5.69029C73.4135 5.87951 73.804 6.19994 74.0787 6.61106C74.3534 7.02218 74.5 7.50553 74.5 7.99999C74.5 8.66303 74.2366 9.29891 73.7678 9.76775C73.2989 10.2366 72.663 10.5 72 10.5Z" fill="currentColor"/>
<path d="M123.75 7.99997C123.75 7.29045 123.548 6.59552 123.169 5.99591C122.79 5.3963 122.248 4.9166 121.607 4.61254C120.966 4.30847 120.252 4.19252 119.547 4.27814C118.843 4.36376 118.178 4.64744 117.628 5.09624C117.078 5.54504 116.668 6.14053 116.443 6.81356C116.218 7.48659 116.189 8.20953 116.359 8.89843C116.529 9.58732 116.891 10.2139 117.402 10.7054C117.914 11.1968 118.555 11.5331 119.25 11.675V13C119.25 13.5967 119.013 14.169 118.591 14.591C118.169 15.0129 117.597 15.25 117 15.25H107C106.403 15.25 105.831 15.0129 105.409 14.591C104.987 14.169 104.75 13.5967 104.75 13V11.675C105.661 11.4891 106.47 10.9718 107.02 10.2233C107.571 9.47478 107.824 8.54843 107.731 7.62383C107.638 6.69922 107.204 5.84224 106.515 5.21902C105.826 4.59579 104.929 4.25073 104 4.25073C103.071 4.25073 102.174 4.59579 101.485 5.21902C100.796 5.84224 100.362 6.69922 100.269 7.62383C100.176 8.54843 100.429 9.47478 100.98 10.2233C101.53 10.9718 102.339 11.4891 103.25 11.675V13C103.25 13.9945 103.645 14.9484 104.348 15.6516C105.052 16.3549 106.005 16.75 107 16.75H111.25V20.325C110.339 20.5108 109.53 21.0282 108.98 21.7767C108.429 22.5252 108.176 23.4515 108.269 24.3761C108.362 25.3007 108.796 26.1577 109.485 26.7809C110.174 27.4041 111.071 27.7492 112 27.7492C112.929 27.7492 113.826 27.4041 114.515 26.7809C115.204 26.1577 115.638 25.3007 115.731 24.3761C115.824 23.4515 115.571 22.5252 115.02 21.7767C114.47 21.0282 113.661 20.5108 112.75 20.325V16.75H117C117.995 16.75 118.948 16.3549 119.652 15.6516C120.355 14.9484 120.75 13.9945 120.75 13V11.675C121.596 11.501 122.357 11.0404 122.904 10.371C123.45 9.70155 123.749 8.86415 123.75 7.99997ZM101.75 7.99997C101.75 7.55496 101.882 7.11995 102.129 6.74994C102.376 6.37993 102.728 6.09154 103.139 5.92124C103.55 5.75094 104.003 5.70639 104.439 5.7932C104.875 5.88002 105.276 6.09431 105.591 6.40898C105.906 6.72365 106.12 7.12456 106.207 7.56102C106.294 7.99747 106.249 8.44987 106.079 8.86101C105.908 9.27214 105.62 9.62354 105.25 9.87078C104.88 10.118 104.445 10.25 104 10.25C103.403 10.25 102.831 10.0129 102.409 9.59096C101.987 9.169 101.75 8.59671 101.75 7.99997ZM114.25 24C114.25 24.445 114.118 24.88 113.871 25.25C113.624 25.62 113.272 25.9084 112.861 26.0787C112.45 26.249 111.998 26.2936 111.561 26.2067C111.125 26.1199 110.724 25.9056 110.409 25.591C110.094 25.2763 109.88 24.8754 109.793 24.4389C109.706 24.0025 109.751 23.5501 109.921 23.1389C110.092 22.7278 110.38 22.3764 110.75 22.1292C111.12 21.8819 111.555 21.75 112 21.75C112.597 21.75 113.169 21.987 113.591 22.409C114.013 22.8309 114.25 23.4032 114.25 24ZM120 10.25C119.555 10.25 119.12 10.118 118.75 9.87078C118.38 9.62354 118.092 9.27214 117.921 8.86101C117.751 8.44987 117.706 7.99747 117.793 7.56102C117.88 7.12456 118.094 6.72365 118.409 6.40898C118.724 6.09431 119.125 5.88002 119.561 5.7932C119.998 5.70639 120.45 5.75094 120.861 5.92124C121.272 6.09154 121.624 6.37993 121.871 6.74994C122.118 7.11995 122.25 7.55496 122.25 7.99997C122.25 8.59671 122.013 9.169 121.591 9.59096C121.169 10.0129 120.597 10.25 120 10.25Z" fill="currentColor"/>
<path d="M172.5 8.00002C172.5 7.17502 172.273 6.36589 171.844 5.66107C171.416 4.95625 170.801 4.38287 170.069 4.0036C169.336 3.62433 168.513 3.45376 167.69 3.51055C166.867 3.56734 166.076 3.8493 165.402 4.3256C164.728 4.80191 164.199 5.45423 163.871 6.21126C163.543 6.96829 163.429 7.8009 163.543 8.61808C163.656 9.43526 163.992 10.2056 164.513 10.8448C165.035 11.484 165.722 11.9675 166.5 12.2425V13C166.5 13.3978 166.342 13.7794 166.061 14.0607C165.779 14.342 165.398 14.5 165 14.5H155C154.602 14.5 154.221 14.342 153.939 14.0607C153.658 13.7794 153.5 13.3978 153.5 13V12.2425C154.501 11.8887 155.344 11.1924 155.881 10.2768C156.419 9.36118 156.615 8.28516 156.435 7.23892C156.256 6.19268 155.712 5.24358 154.9 4.55936C154.089 3.87515 153.062 3.49988 152 3.49988C150.938 3.49988 149.911 3.87515 149.1 4.55936C148.288 5.24358 147.744 6.19268 147.565 7.23892C147.385 8.28516 147.581 9.36118 148.119 10.2768C148.656 11.1924 149.499 11.8887 150.5 12.2425V13C150.5 14.1935 150.974 15.3381 151.818 16.182C152.662 17.0259 153.807 17.5 155 17.5H158.5V19.7575C157.499 20.1114 156.656 20.8076 156.119 21.7232C155.581 22.6389 155.385 23.7149 155.565 24.7611C155.744 25.8074 156.288 26.7565 157.1 27.4407C157.911 28.1249 158.938 28.5002 160 28.5002C161.062 28.5002 162.089 28.1249 162.9 27.4407C163.712 26.7565 164.256 25.8074 164.435 24.7611C164.615 23.7149 164.419 22.6389 163.881 21.7232C163.344 20.8076 162.501 20.1114 161.5 19.7575V17.5H165C166.193 17.5 167.338 17.0259 168.182 16.182C169.026 15.3381 169.5 14.1935 169.5 13V12.2425C170.377 11.9312 171.136 11.3564 171.673 10.5969C172.21 9.83734 172.499 8.93027 172.5 8.00002ZM152 6.50002C152.297 6.50002 152.587 6.58799 152.833 6.75282C153.08 6.91764 153.272 7.15191 153.386 7.426C153.499 7.70008 153.529 8.00168 153.471 8.29266C153.413 8.58363 153.27 8.8509 153.061 9.06068C152.851 9.27046 152.584 9.41332 152.293 9.4712C152.002 9.52908 151.7 9.49937 151.426 9.38584C151.152 9.27231 150.918 9.08005 150.753 8.83337C150.588 8.5867 150.5 8.29669 150.5 8.00002C150.5 7.6022 150.658 7.22066 150.939 6.93936C151.221 6.65806 151.602 6.50002 152 6.50002ZM160 25.5C159.703 25.5 159.413 25.412 159.167 25.2472C158.92 25.0824 158.728 24.8481 158.614 24.574C158.501 24.3 158.471 23.9984 158.529 23.7074C158.587 23.4164 158.73 23.1491 158.939 22.9394C159.149 22.7296 159.416 22.5867 159.707 22.5288C159.998 22.471 160.3 22.5007 160.574 22.6142C160.848 22.7277 161.082 22.92 161.247 23.1667C161.412 23.4133 161.5 23.7033 161.5 24C161.5 24.3978 161.342 24.7794 161.061 25.0607C160.779 25.342 160.398 25.5 160 25.5ZM168 9.50002C167.703 9.50002 167.413 9.41205 167.167 9.24722C166.92 9.0824 166.728 8.84813 166.614 8.57405C166.501 8.29996 166.471 7.99836 166.529 7.70738C166.587 7.41641 166.73 7.14914 166.939 6.93936C167.149 6.72958 167.416 6.58672 167.707 6.52884C167.998 6.47096 168.3 6.50067 168.574 6.6142C168.848 6.72773 169.082 6.91999 169.247 7.16666C169.412 7.41334 169.5 7.70335 169.5 8.00002C169.5 8.39784 169.342 8.77938 169.061 9.06068C168.779 9.34198 168.398 9.50002 168 9.50002Z" fill="currentColor"/>
<path d="M220 8.00006C220 7.25201 219.789 6.51906 219.393 5.88444C218.997 5.24982 218.431 4.73897 217.76 4.4099C217.088 4.08083 216.337 3.94673 215.593 4.02283C214.849 4.09893 214.141 4.38218 213.55 4.84042C212.958 5.29865 212.508 5.9135 212.248 6.61515C211.989 7.31679 211.931 8.0771 212.082 8.80975C212.233 9.54239 212.587 10.218 213.103 10.7598C213.618 11.3017 214.276 11.688 215 11.8751V13.0001C215 13.5305 214.789 14.0392 214.414 14.4143C214.039 14.7893 213.53 15.0001 213 15.0001H203C202.47 15.0001 201.961 14.7893 201.586 14.4143C201.211 14.0392 201 13.5305 201 13.0001V11.8751C201.943 11.6317 202.764 11.0528 203.311 10.2471C203.857 9.44127 204.091 8.46387 203.968 7.49806C203.845 6.53225 203.375 5.64433 202.644 5.00074C201.914 4.35715 200.974 4.00208 200 4.00208C199.026 4.00208 198.086 4.35715 197.356 5.00074C196.625 5.64433 196.155 6.53225 196.032 7.49806C195.909 8.46387 196.143 9.44127 196.689 10.2471C197.236 11.0528 198.057 11.6317 199 11.8751V13.0001C199 14.0609 199.421 15.0783 200.172 15.8285C200.922 16.5786 201.939 17.0001 203 17.0001H207V20.1251C206.057 20.3685 205.236 20.9473 204.689 21.7531C204.143 22.5588 203.909 23.5362 204.032 24.5021C204.155 25.4679 204.625 26.3558 205.356 26.9994C206.086 27.643 207.026 27.998 208 27.998C208.974 27.998 209.914 27.643 210.644 26.9994C211.375 26.3558 211.845 25.4679 211.968 24.5021C212.091 23.5362 211.857 22.5588 211.311 21.7531C210.764 20.9473 209.943 20.3685 209 20.1251V17.0001H213C214.061 17.0001 215.078 16.5786 215.828 15.8285C216.579 15.0783 217 14.0609 217 13.0001V11.8751C217.858 11.6521 218.618 11.1508 219.161 10.4496C219.704 9.74834 219.999 8.88686 220 8.00006ZM210 24.0001C210 24.3956 209.883 24.7823 209.663 25.1112C209.443 25.4401 209.131 25.6964 208.765 25.8478C208.4 25.9992 207.998 26.0388 207.61 25.9616C207.222 25.8845 206.866 25.694 206.586 25.4143C206.306 25.1346 206.116 24.7782 206.038 24.3902C205.961 24.0023 206.001 23.6001 206.152 23.2347C206.304 22.8692 206.56 22.5569 206.889 22.3371C207.218 22.1174 207.604 22.0001 208 22.0001C208.53 22.0001 209.039 22.2108 209.414 22.5858C209.789 22.9609 210 23.4696 210 24.0001Z" fill="currentColor"/>
<path opacity="0.2" d="M251 8C251 8.59334 250.824 9.17336 250.494 9.66671C250.165 10.1601 249.696 10.5446 249.148 10.7716C248.6 10.9987 247.997 11.0581 247.415 10.9424C246.833 10.8266 246.298 10.5409 245.879 10.1213C245.459 9.70176 245.173 9.16721 245.058 8.58527C244.942 8.00333 245.001 7.40013 245.228 6.85195C245.455 6.30377 245.84 5.83524 246.333 5.50559C246.827 5.17595 247.407 5 248 5C248.796 5 249.559 5.31607 250.121 5.87868C250.684 6.44129 251 7.20435 251 8ZM264 5C263.407 5 262.827 5.17595 262.333 5.50559C261.84 5.83524 261.455 6.30377 261.228 6.85195C261.001 7.40013 260.942 8.00333 261.058 8.58527C261.173 9.16721 261.459 9.70176 261.879 10.1213C262.298 10.5409 262.833 10.8266 263.415 10.9424C263.997 11.0581 264.6 10.9987 265.148 10.7716C265.696 10.5446 266.165 10.1601 266.494 9.66671C266.824 9.17336 267 8.59334 267 8C267 7.20435 266.684 6.44129 266.121 5.87868C265.559 5.31607 264.796 5 264 5Z" fill="currentColor"/>
<path d="M268 8.00006C268 7.25201 267.789 6.51906 267.393 5.88444C266.997 5.24982 266.431 4.73897 265.76 4.4099C265.088 4.08083 264.337 3.94673 263.593 4.02283C262.849 4.09893 262.141 4.38218 261.55 4.84042C260.958 5.29865 260.508 5.9135 260.248 6.61515C259.989 7.31679 259.931 8.0771 260.082 8.80975C260.233 9.54239 260.587 10.218 261.103 10.7598C261.618 11.3017 262.276 11.688 263 11.8751V13.0001C263 13.5305 262.789 14.0392 262.414 14.4143C262.039 14.7893 261.53 15.0001 261 15.0001H251C250.47 15.0001 249.961 14.7893 249.586 14.4143C249.211 14.0392 249 13.5305 249 13.0001V11.8751C249.943 11.6317 250.764 11.0528 251.311 10.2471C251.857 9.44127 252.091 8.46387 251.968 7.49806C251.845 6.53225 251.375 5.64433 250.644 5.00074C249.914 4.35715 248.974 4.00208 248 4.00208C247.026 4.00208 246.086 4.35715 245.356 5.00074C244.625 5.64433 244.155 6.53225 244.032 7.49806C243.909 8.46387 244.143 9.44127 244.689 10.2471C245.236 11.0528 246.057 11.6317 247 11.8751V13.0001C247 14.0609 247.421 15.0783 248.172 15.8285C248.922 16.5786 249.939 17.0001 251 17.0001H255V20.1251C254.057 20.3685 253.236 20.9473 252.689 21.7531C252.143 22.5588 251.909 23.5362 252.032 24.5021C252.155 25.4679 252.625 26.3558 253.356 26.9994C254.086 27.643 255.026 27.998 256 27.998C256.974 27.998 257.914 27.643 258.644 26.9994C259.375 26.3558 259.845 25.4679 259.968 24.5021C260.091 23.5362 259.857 22.5588 259.311 21.7531C258.764 20.9473 257.943 20.3685 257 20.1251V17.0001H261C262.061 17.0001 263.078 16.5786 263.828 15.8285C264.579 15.0783 265 14.0609 265 13.0001V11.8751C265.858 11.6521 266.618 11.1508 267.161 10.4496C267.704 9.74834 267.999 8.88686 268 8.00006ZM246 8.00006C246 7.6045 246.117 7.21782 246.337 6.88892C246.557 6.56002 246.869 6.30368 247.235 6.1523C247.6 6.00093 248.002 5.96132 248.39 6.03849C248.778 6.11566 249.135 6.30614 249.414 6.58585C249.694 6.86555 249.884 7.22192 249.962 7.60988C250.039 7.99784 249.999 8.39997 249.848 8.76543C249.696 9.13088 249.44 9.44324 249.111 9.663C248.782 9.88276 248.396 10.0001 248 10.0001C247.47 10.0001 246.961 9.78935 246.586 9.41427C246.211 9.0392 246 8.53049 246 8.00006ZM258 24.0001C258 24.3956 257.883 24.7823 257.663 25.1112C257.443 25.4401 257.131 25.6964 256.765 25.8478C256.4 25.9992 255.998 26.0388 255.61 25.9616C255.222 25.8845 254.866 25.694 254.586 25.4143C254.306 25.1346 254.116 24.7782 254.038 24.3902C253.961 24.0023 254.001 23.6001 254.152 23.2347C254.304 22.8692 254.56 22.5569 254.889 22.3371C255.218 22.1174 255.604 22.0001 256 22.0001C256.53 22.0001 257.039 22.2108 257.414 22.5858C257.789 22.9609 258 23.4696 258 24.0001ZM264 10.0001C263.604 10.0001 263.218 9.88276 262.889 9.663C262.56 9.44324 262.304 9.13088 262.152 8.76543C262.001 8.39997 261.961 7.99784 262.038 7.60988C262.116 7.22192 262.306 6.86555 262.586 6.58585C262.866 6.30614 263.222 6.11566 263.61 6.03849C263.998 5.96132 264.4 6.00093 264.765 6.1523C265.131 6.30368 265.443 6.56002 265.663 6.88892C265.883 7.21782 266 7.6045 266 8.00006C266 8.53049 265.789 9.0392 265.414 9.41427C265.039 9.78935 264.53 10.0001 264 10.0001Z" fill="currentColor"/>
</g>
<defs>
<clipPath id="clip0_17_2409">
<rect width="272" height="32" rx="5" fill="white"/>
</clipPath>
</defs>
</svg>
