<svg width="272" height="32" viewBox="0 0 272 32" fill="none" xmlns="http://www.w3.org/2000/svg">
<g clip-path="url(#clip0_17_2395)">
<path d="M26 14C25.1132 14.0008 24.2517 14.2958 23.5505 14.8386C22.8493 15.3815 22.3479 16.1416 22.125 17H19C18.2241 16.9981 17.4592 16.8166 16.7652 16.4696C16.0712 16.1226 15.467 15.6196 15 15L11.7112 10.615C12.5614 10.2116 13.2421 9.52144 13.6337 8.66582C14.0253 7.8102 14.1028 6.84391 13.8524 5.93685C13.602 5.02978 13.0399 4.24002 12.2649 3.70642C11.4898 3.17282 10.5514 2.92955 9.61475 3.01937C8.67807 3.1092 7.80304 3.52637 7.14351 4.19754C6.48399 4.86871 6.0822 5.75091 6.00878 6.68903C5.93536 7.62714 6.19503 8.5611 6.74211 9.3267C7.2892 10.0923 8.08868 10.6405 8.99999 10.875V21.125C8.05733 21.3684 7.2358 21.9472 6.68938 22.753C6.14297 23.5588 5.90919 24.5361 6.03187 25.502C6.15454 26.4678 6.62525 27.3557 7.35575 27.9993C8.08626 28.6429 9.02641 28.9979 9.99999 28.9979C10.9736 28.9979 11.9137 28.6429 12.6442 27.9993C13.3747 27.3557 13.8454 26.4678 13.9681 25.502C14.0908 24.5361 13.857 23.5588 13.3106 22.753C12.7642 21.9472 11.9426 21.3684 11 21.125V13L13.4 16.2C14.0538 17.0675 14.8996 17.7717 15.8712 18.2575C16.8428 18.7433 17.9137 18.9975 19 19H22.125C22.312 19.7243 22.6984 20.3816 23.2402 20.8973C23.7821 21.4131 24.4577 21.7665 25.1903 21.9176C25.9229 22.0686 26.6833 22.0112 27.3849 21.7518C28.0865 21.4924 28.7014 21.0415 29.1596 20.4503C29.6179 19.859 29.9011 19.1511 29.9772 18.4069C30.0533 17.6627 29.9192 16.9121 29.5902 16.2404C29.2611 15.5686 28.7502 15.0025 28.1156 14.6065C27.481 14.2105 26.748 14.0003 26 14ZM7.99999 6.99996C7.99999 6.6044 8.11728 6.21772 8.33705 5.88882C8.55681 5.55993 8.86917 5.30358 9.23462 5.15221C9.60007 5.00083 10.0022 4.96122 10.3902 5.03839C10.7781 5.11556 11.1345 5.30605 11.4142 5.58575C11.6939 5.86546 11.8844 6.22182 11.9616 6.60978C12.0387 6.99775 11.9991 7.39988 11.8477 7.76533C11.6964 8.13078 11.44 8.44314 11.1111 8.6629C10.7822 8.88267 10.3955 8.99996 9.99999 8.99996C9.46955 8.99996 8.96085 8.78925 8.58577 8.41418C8.2107 8.0391 7.99999 7.5304 7.99999 6.99996ZM12 25C12 25.3955 11.8827 25.7822 11.6629 26.1111C11.4432 26.44 11.1308 26.6963 10.7654 26.8477C10.3999 26.9991 9.99777 27.0387 9.60981 26.9615C9.22184 26.8844 8.86548 26.6939 8.58577 26.4142C8.30607 26.1345 8.11559 25.7781 8.03842 25.3901C7.96125 25.0022 8.00085 24.6 8.15223 24.2346C8.3036 23.8691 8.55995 23.5568 8.88885 23.337C9.21774 23.1173 9.60442 23 9.99999 23C10.5304 23 11.0391 23.2107 11.4142 23.5858C11.7893 23.9608 12 24.4695 12 25ZM26 20C25.6044 20 25.2177 19.8827 24.8888 19.6629C24.5599 19.4431 24.3036 19.1308 24.1522 18.7653C24.0009 18.3999 23.9612 17.9977 24.0384 17.6098C24.1156 17.2218 24.3061 16.8655 24.5858 16.5858C24.8655 16.306 25.2218 16.1156 25.6098 16.0384C25.9978 15.9612 26.3999 16.0008 26.7654 16.1522C27.1308 16.3036 27.4432 16.5599 27.6629 16.8888C27.8827 17.2177 28 17.6044 28 18C28 18.5304 27.7893 19.0391 27.4142 19.4142C27.0391 19.7892 26.5304 20 26 20Z" fill="currentColor"/>
<path d="M74.0001 14.5C73.1585 14.5001 72.3452 14.8034 71.709 15.3544C71.0729 15.9053 70.6566 16.6671 70.5363 17.5H67.0001C66.1466 17.4981 65.3051 17.2984 64.5417 16.9167C63.7783 16.535 63.1137 15.9816 62.6001 15.3L58.9101 10.375C59.7464 10.1471 60.4683 9.61694 60.9362 8.88724C61.404 8.15754 61.5844 7.28021 61.4425 6.42511C61.3006 5.57002 60.8464 4.79801 60.1679 4.25857C59.4895 3.71913 58.635 3.45064 57.7699 3.50509C56.9048 3.55954 56.0907 3.93305 55.4852 4.55331C54.8797 5.17357 54.526 5.99644 54.4924 6.86258C54.4588 7.72872 54.7478 8.57651 55.3034 9.24178C55.8591 9.90706 56.6418 10.3425 57.5001 10.4638V21.5363C56.6243 21.6627 55.8289 22.1161 55.2739 22.8053C54.719 23.4946 54.4457 24.3684 54.5091 25.251C54.5724 26.1336 54.9678 26.9594 55.6155 27.5623C56.2632 28.1652 57.1152 28.5004 58.0001 28.5004C58.885 28.5004 59.737 28.1652 60.3847 27.5623C61.0324 26.9594 61.4277 26.1336 61.4911 25.251C61.5545 24.3684 61.2812 23.4946 60.7262 22.8053C60.1713 22.1161 59.3759 21.6627 58.5001 21.5363V11.5L61.8001 15.9C62.4073 16.7054 63.1927 17.3593 64.0949 17.8104C64.9971 18.2615 65.9914 18.4975 67.0001 18.5H70.5363C70.6322 19.164 70.9169 19.7865 71.3564 20.2933C71.796 20.8001 72.372 21.1699 73.0158 21.3587C73.6596 21.5474 74.3441 21.5471 74.9878 21.3579C75.6314 21.1686 76.2071 20.7983 76.6463 20.2912C77.0855 19.784 77.3696 19.1613 77.465 18.4972C77.5603 17.8331 77.4627 17.1556 77.1838 16.5454C76.905 15.9352 76.4567 15.4179 75.8922 15.0553C75.3278 14.6927 74.671 14.4999 74.0001 14.5ZM55.5001 7C55.5001 6.50555 55.6467 6.0222 55.9214 5.61108C56.1961 5.19995 56.5866 4.87952 57.0434 4.6903C57.5002 4.50108 58.0029 4.45158 58.4878 4.54804C58.9728 4.6445 59.4182 4.8826 59.7679 5.23224C60.1175 5.58187 60.3556 6.02732 60.4521 6.51228C60.5485 6.99723 60.499 7.4999 60.3098 7.95671C60.1206 8.41353 59.8001 8.80397 59.389 9.07868C58.9779 9.35338 58.4945 9.5 58.0001 9.5C57.337 9.5 56.7012 9.23661 56.2323 8.76777C55.7635 8.29893 55.5001 7.66304 55.5001 7ZM60.5001 25C60.5001 25.4945 60.3535 25.9778 60.0788 26.3889C59.8041 26.8001 59.4136 27.1205 58.9568 27.3097C58.5 27.4989 57.9973 27.5484 57.5124 27.452C57.0274 27.3555 56.582 27.1174 56.2323 26.7678C55.8827 26.4181 55.6446 25.9727 55.5481 25.4877C55.4517 25.0028 55.5012 24.5001 55.6904 24.0433C55.8796 23.5865 56.2 23.196 56.6112 22.9213C57.0223 22.6466 57.5056 22.5 58.0001 22.5C58.6631 22.5 59.299 22.7634 59.7679 23.2322C60.2367 23.7011 60.5001 24.337 60.5001 25ZM74.0001 20.5C73.5056 20.5 73.0223 20.3534 72.6112 20.0787C72.2 19.804 71.8796 19.4135 71.6904 18.9567C71.5012 18.4999 71.4517 17.9972 71.5481 17.5123C71.6446 17.0273 71.8827 16.5819 72.2323 16.2322C72.582 15.8826 73.0274 15.6445 73.5124 15.548C73.9973 15.4516 74.5 15.5011 74.9568 15.6903C75.4136 15.8795 75.8041 16.2 76.0788 16.6111C76.3535 17.0222 76.5001 17.5055 76.5001 18C76.5001 18.3283 76.4354 18.6534 76.3098 18.9567C76.1842 19.26 76 19.5356 75.7679 19.7678C75.5357 19.9999 75.2601 20.1841 74.9568 20.3097C74.6535 20.4353 74.3284 20.5 74.0001 20.5Z" fill="currentColor"/>
<path d="M122 14.25C121.136 14.251 120.298 14.5499 119.629 15.0964C118.959 15.6429 118.499 16.4035 118.325 17.25H115C114.185 17.2481 113.382 17.0575 112.653 16.6931C111.925 16.3288 111.29 15.8006 110.8 15.15L107.32 10.51C108.166 10.1916 108.868 9.57841 109.298 8.78335C109.727 7.98829 109.855 7.06481 109.658 6.18282C109.461 5.30083 108.952 4.51968 108.225 3.98308C107.498 3.44648 106.601 3.19054 105.701 3.26235C104.8 3.33416 103.955 3.72889 103.322 4.3739C102.689 5.01892 102.31 5.87084 102.255 6.7729C102.201 7.67497 102.473 8.5665 103.024 9.28346C103.574 10.0004 104.364 10.4946 105.25 10.675V21.325C104.339 21.5109 103.53 22.0282 102.979 22.7767C102.429 23.5252 102.175 24.4515 102.269 25.3761C102.362 26.3007 102.796 27.1577 103.485 27.781C104.174 28.4042 105.071 28.7492 106 28.7492C106.929 28.7492 107.825 28.4042 108.515 27.781C109.204 27.1577 109.637 26.3007 109.731 25.3761C109.824 24.4515 109.571 23.5252 109.02 22.7767C108.469 22.0282 107.66 21.5109 106.75 21.325V12.25L109.6 16.05C110.23 16.8865 111.046 17.5655 111.983 18.034C112.92 18.5024 113.952 18.7475 115 18.75H118.325C118.467 19.4452 118.803 20.0858 119.294 20.5976C119.786 21.1093 120.413 21.4711 121.101 21.641C121.79 21.8108 122.513 21.7817 123.186 21.5571C123.859 21.3325 124.455 20.9216 124.904 20.372C125.352 19.8225 125.636 19.1569 125.722 18.4525C125.807 17.7482 125.691 17.034 125.387 16.3929C125.083 15.7519 124.604 15.2102 124.004 14.8309C123.404 14.4516 122.709 14.2501 122 14.25ZM103.75 7C103.75 6.55499 103.882 6.11998 104.129 5.74996C104.376 5.37995 104.728 5.09157 105.139 4.92127C105.55 4.75097 106.002 4.70641 106.439 4.79323C106.875 4.88005 107.276 5.09434 107.591 5.40901C107.906 5.72368 108.12 6.12459 108.207 6.56104C108.293 6.9975 108.249 7.4499 108.079 7.86104C107.908 8.27217 107.62 8.62357 107.25 8.8708C106.88 9.11804 106.445 9.25 106 9.25C105.403 9.25 104.831 9.01294 104.409 8.59099C103.987 8.16903 103.75 7.59673 103.75 7ZM108.25 25C108.25 25.445 108.118 25.88 107.871 26.25C107.623 26.62 107.272 26.9084 106.861 27.0787C106.45 27.249 105.997 27.2936 105.561 27.2068C105.124 27.1199 104.724 26.9057 104.409 26.591C104.094 26.2763 103.88 25.8754 103.793 25.439C103.706 25.0025 103.751 24.5501 103.921 24.139C104.091 23.7278 104.38 23.3764 104.75 23.1292C105.12 22.882 105.555 22.75 106 22.75C106.597 22.75 107.169 22.9871 107.591 23.409C108.013 23.831 108.25 24.4033 108.25 25ZM122 20.25C121.555 20.25 121.12 20.118 120.75 19.8708C120.38 19.6236 120.091 19.2722 119.921 18.861C119.751 18.4499 119.706 17.9975 119.793 17.561C119.88 17.1246 120.094 16.7237 120.409 16.409C120.724 16.0943 121.124 15.88 121.561 15.7932C121.997 15.7064 122.45 15.751 122.861 15.9213C123.272 16.0916 123.623 16.38 123.871 16.75C124.118 17.12 124.25 17.555 124.25 18C124.25 18.5967 124.013 19.169 123.591 19.591C123.169 20.0129 122.597 20.25 122 20.25Z" fill="currentColor"/>
<path d="M170 13.5C169.07 13.5013 168.163 13.7904 167.403 14.3274C166.643 14.8645 166.069 15.6234 165.757 16.5H163C162.302 16.4985 161.613 16.3352 160.988 16.0229C160.364 15.7106 159.82 15.2578 159.4 14.7L156.452 10.77C157.304 10.2158 157.942 9.38979 158.265 8.42642C158.587 7.46306 158.574 6.419 158.227 5.46408C157.881 4.50916 157.221 3.69957 156.356 3.16698C155.491 2.63439 154.472 2.41014 153.463 2.53072C152.454 2.6513 151.516 3.10961 150.801 3.83109C150.086 4.55258 149.636 5.49479 149.524 6.50447C149.413 7.51415 149.646 8.53189 150.186 9.39215C150.727 10.2524 151.542 10.9046 152.5 11.2425V20.7575C151.499 21.1114 150.656 21.8076 150.118 22.7233C149.581 23.6389 149.385 24.7149 149.565 25.7611C149.744 26.8074 150.288 27.7565 151.099 28.4407C151.911 29.1249 152.938 29.5002 154 29.5002C155.061 29.5002 156.089 29.1249 156.9 28.4407C157.712 27.7565 158.256 26.8074 158.435 25.7611C158.615 24.7149 158.418 23.6389 157.881 22.7233C157.344 21.8076 156.501 21.1114 155.5 20.7575V14.5L157 16.5C157.7 17.4296 158.607 18.1842 159.648 18.7047C160.689 19.2252 161.836 19.4974 163 19.5H165.757C166.032 20.2779 166.516 20.9651 167.155 21.4867C167.794 22.0082 168.565 22.344 169.382 22.4574C170.199 22.5707 171.032 22.4572 171.789 22.1293C172.546 21.8014 173.198 21.2717 173.674 20.5981C174.151 19.9244 174.433 19.1329 174.489 18.3098C174.546 17.4868 174.376 16.6639 173.996 15.9313C173.617 15.1986 173.044 14.5844 172.339 14.1556C171.634 13.7268 170.825 13.5 170 13.5ZM154 5.50004C154.297 5.50004 154.587 5.58802 154.833 5.75284C155.08 5.91766 155.272 6.15193 155.386 6.42602C155.499 6.70011 155.529 7.00171 155.471 7.29268C155.413 7.58365 155.27 7.85092 155.061 8.0607C154.851 8.27048 154.583 8.41334 154.293 8.47122C154.002 8.5291 153.7 8.49939 153.426 8.38586C153.152 8.27233 152.918 8.08007 152.753 7.8334C152.588 7.58672 152.5 7.29671 152.5 7.00004C152.5 6.60222 152.658 6.22069 152.939 5.93938C153.221 5.65808 153.602 5.50004 154 5.50004ZM154 26.5C153.703 26.5 153.413 26.4121 153.167 26.2472C152.92 26.0824 152.728 25.8482 152.614 25.5741C152.501 25.3 152.471 24.9984 152.529 24.7074C152.587 24.4164 152.729 24.1492 152.939 23.9394C153.149 23.7296 153.416 23.5867 153.707 23.5289C153.998 23.471 154.3 23.5007 154.574 23.6142C154.848 23.7278 155.082 23.92 155.247 24.1667C155.412 24.4134 155.5 24.7034 155.5 25C155.5 25.3979 155.342 25.7794 155.061 26.0607C154.779 26.342 154.398 26.5 154 26.5ZM170 19.5C169.703 19.5 169.413 19.4121 169.167 19.2472C168.92 19.0824 168.728 18.8482 168.614 18.5741C168.501 18.3 168.471 17.9984 168.529 17.7074C168.587 17.4164 168.729 17.1492 168.939 16.9394C169.149 16.7296 169.416 16.5867 169.707 16.5289C169.998 16.471 170.3 16.5007 170.574 16.6142C170.848 16.7278 171.082 16.92 171.247 17.1667C171.412 17.4134 171.5 17.7034 171.5 18C171.5 18.3979 171.342 18.7794 171.061 19.0607C170.779 19.342 170.398 19.5 170 19.5Z" fill="currentColor"/>
<path d="M218 14C217.113 14.0008 216.252 14.2958 215.55 14.8386C214.849 15.3815 214.348 16.1416 214.125 17H211C210.224 16.9981 209.459 16.8166 208.765 16.4696C208.071 16.1226 207.467 15.6196 207 15L203.711 10.615C204.561 10.2116 205.242 9.52144 205.634 8.66582C206.025 7.8102 206.103 6.84391 205.852 5.93685C205.602 5.02978 205.04 4.24002 204.265 3.70642C203.49 3.17282 202.551 2.92955 201.615 3.01937C200.678 3.1092 199.803 3.52637 199.144 4.19754C198.484 4.86871 198.082 5.75091 198.009 6.68903C197.935 7.62714 198.195 8.5611 198.742 9.3267C199.289 10.0923 200.089 10.6405 201 10.875V21.125C200.057 21.3684 199.236 21.9472 198.689 22.753C198.143 23.5588 197.909 24.5361 198.032 25.502C198.155 26.4678 198.625 27.3557 199.356 27.9993C200.086 28.6429 201.026 28.9979 202 28.9979C202.974 28.9979 203.914 28.6429 204.644 27.9993C205.375 27.3557 205.845 26.4678 205.968 25.502C206.091 24.5361 205.857 23.5588 205.311 22.753C204.764 21.9472 203.943 21.3684 203 21.125V13L205.4 16.2C206.054 17.0675 206.9 17.7717 207.871 18.2575C208.843 18.7433 209.914 18.9975 211 19H214.125C214.312 19.7243 214.698 20.3816 215.24 20.8973C215.782 21.4131 216.458 21.7665 217.19 21.9176C217.923 22.0686 218.683 22.0112 219.385 21.7518C220.087 21.4924 220.701 21.0415 221.16 20.4503C221.618 19.859 221.901 19.1511 221.977 18.4069C222.053 17.6627 221.919 16.9121 221.59 16.2404C221.261 15.5686 220.75 15.0025 220.116 14.6065C219.481 14.2105 218.748 14.0003 218 14ZM204 25C204 25.3955 203.883 25.7822 203.663 26.1111C203.443 26.44 203.131 26.6963 202.765 26.8477C202.4 26.9991 201.998 27.0387 201.61 26.9615C201.222 26.8844 200.865 26.6939 200.586 26.4142C200.306 26.1345 200.116 25.7781 200.038 25.3901C199.961 25.0022 200.001 24.6 200.152 24.2346C200.304 23.8691 200.56 23.5568 200.889 23.337C201.218 23.1173 201.604 23 202 23C202.53 23 203.039 23.2107 203.414 23.5858C203.789 23.9608 204 24.4695 204 25ZM218 20C217.47 20 216.961 19.7892 216.586 19.4142C216.211 19.0391 216 18.5304 216 18C216 17.6044 216.117 17.2177 216.337 16.8888C216.557 16.5599 216.869 16.3036 217.235 16.1522C217.6 16.0008 218.002 15.9612 218.39 16.0384C218.778 16.1156 219.134 16.306 219.414 16.5858C219.694 16.8655 219.884 17.2218 219.962 17.6098C220.039 17.9977 219.999 18.3999 219.848 18.7653C219.696 19.1308 219.44 19.4431 219.111 19.6629C218.782 19.8827 218.396 20 218 20Z" fill="currentColor"/>
<path opacity="0.2" d="M253 7C253 7.59334 252.824 8.17336 252.494 8.66671C252.165 9.16006 251.696 9.54458 251.148 9.77164C250.6 9.9987 249.997 10.0581 249.415 9.94236C248.833 9.8266 248.298 9.54088 247.879 9.12132C247.459 8.70176 247.173 8.16721 247.058 7.58527C246.942 7.00333 247.001 6.40013 247.228 5.85195C247.455 5.30377 247.84 4.83524 248.333 4.50559C248.827 4.17595 249.407 4 250 4C250.796 4 251.559 4.31607 252.121 4.87868C252.684 5.44129 253 6.20435 253 7Z" fill="currentColor"/>
<path d="M266 14C265.113 14.0008 264.252 14.2958 263.55 14.8386C262.849 15.3815 262.348 16.1416 262.125 17H259C258.224 16.9981 257.459 16.8166 256.765 16.4696C256.071 16.1226 255.467 15.6196 255 15L251.711 10.615C252.561 10.2116 253.242 9.52144 253.634 8.66582C254.025 7.8102 254.103 6.84391 253.852 5.93685C253.602 5.02978 253.04 4.24002 252.265 3.70642C251.49 3.17282 250.551 2.92955 249.615 3.01937C248.678 3.1092 247.803 3.52637 247.144 4.19754C246.484 4.86871 246.082 5.75091 246.009 6.68903C245.935 7.62714 246.195 8.5611 246.742 9.3267C247.289 10.0923 248.089 10.6405 249 10.875V21.125C248.057 21.3684 247.236 21.9472 246.689 22.753C246.143 23.5588 245.909 24.5361 246.032 25.502C246.155 26.4678 246.625 27.3557 247.356 27.9993C248.086 28.6429 249.026 28.9979 250 28.9979C250.974 28.9979 251.914 28.6429 252.644 27.9993C253.375 27.3557 253.845 26.4678 253.968 25.502C254.091 24.5361 253.857 23.5588 253.311 22.753C252.764 21.9472 251.943 21.3684 251 21.125V13L253.4 16.2C254.054 17.0675 254.9 17.7717 255.871 18.2575C256.843 18.7433 257.914 18.9975 259 19H262.125C262.312 19.7243 262.698 20.3816 263.24 20.8973C263.782 21.4131 264.458 21.7665 265.19 21.9176C265.923 22.0686 266.683 22.0112 267.385 21.7518C268.087 21.4924 268.701 21.0415 269.16 20.4503C269.618 19.859 269.901 19.1511 269.977 18.4069C270.053 17.6627 269.919 16.9121 269.59 16.2404C269.261 15.5686 268.75 15.0025 268.116 14.6065C267.481 14.2105 266.748 14.0003 266 14ZM248 6.99996C248 6.6044 248.117 6.21772 248.337 5.88882C248.557 5.55993 248.869 5.30358 249.235 5.15221C249.6 5.00083 250.002 4.96122 250.39 5.03839C250.778 5.11556 251.134 5.30605 251.414 5.58575C251.694 5.86546 251.884 6.22182 251.962 6.60978C252.039 6.99775 251.999 7.39988 251.848 7.76533C251.696 8.13078 251.44 8.44314 251.111 8.6629C250.782 8.88267 250.396 8.99996 250 8.99996C249.47 8.99996 248.961 8.78925 248.586 8.41418C248.211 8.0391 248 7.5304 248 6.99996ZM252 25C252 25.3955 251.883 25.7822 251.663 26.1111C251.443 26.44 251.131 26.6963 250.765 26.8477C250.4 26.9991 249.998 27.0387 249.61 26.9615C249.222 26.8844 248.865 26.6939 248.586 26.4142C248.306 26.1345 248.116 25.7781 248.038 25.3901C247.961 25.0022 248.001 24.6 248.152 24.2346C248.304 23.8691 248.56 23.5568 248.889 23.337C249.218 23.1173 249.604 23 250 23C250.53 23 251.039 23.2107 251.414 23.5858C251.789 23.9608 252 24.4695 252 25ZM266 20C265.604 20 265.218 19.8827 264.889 19.6629C264.56 19.4431 264.304 19.1308 264.152 18.7653C264.001 18.3999 263.961 17.9977 264.038 17.6098C264.116 17.2218 264.306 16.8655 264.586 16.5858C264.865 16.306 265.222 16.1156 265.61 16.0384C265.998 15.9612 266.4 16.0008 266.765 16.1522C267.131 16.3036 267.443 16.5599 267.663 16.8888C267.883 17.2177 268 17.6044 268 18C268 18.5304 267.789 19.0391 267.414 19.4142C267.039 19.7892 266.53 20 266 20Z" fill="currentColor"/>
</g>
<defs>
<clipPath id="clip0_17_2395">
<rect width="272" height="32" rx="5" fill="white"/>
</clipPath>
</defs>
</svg>
