<svg width="272" height="32" viewBox="0 0 272 32" fill="none" xmlns="http://www.w3.org/2000/svg">
<g clip-path="url(#clip0_17_2339)">
<path d="M25 6H17V2C17 1.73478 16.8946 1.48043 16.7071 1.29289C16.5196 1.10536 16.2652 1 16 1C15.7348 1 15.4804 1.10536 15.2929 1.29289C15.1054 1.48043 15 1.73478 15 2V6H7C5.93913 6 4.92172 6.42143 4.17157 7.17157C3.42143 7.92172 3 8.93913 3 10V24C3 25.0609 3.42143 26.0783 4.17157 26.8284C4.92172 27.5786 5.93913 28 7 28H25C26.0609 28 27.0783 27.5786 27.8284 26.8284C28.5786 26.0783 29 25.0609 29 24V10C29 8.93913 28.5786 7.92172 27.8284 7.17157C27.0783 6.42143 26.0609 6 25 6ZM27 24C27 24.5304 26.7893 25.0391 26.4142 25.4142C26.0391 25.7893 25.5304 26 25 26H7C6.46957 26 5.96086 25.7893 5.58579 25.4142C5.21071 25.0391 5 24.5304 5 24V10C5 9.46957 5.21071 8.96086 5.58579 8.58579C5.96086 8.21071 6.46957 8 7 8H25C25.5304 8 26.0391 8.21071 26.4142 8.58579C26.7893 8.96086 27 9.46957 27 10V24ZM20.5 17H11.5C10.5717 17 9.6815 17.3687 9.02513 18.0251C8.36875 18.6815 8 19.5717 8 20.5C8 21.4283 8.36875 22.3185 9.02513 22.9749C9.6815 23.6313 10.5717 24 11.5 24H20.5C21.4283 24 22.3185 23.6313 22.9749 22.9749C23.6313 22.3185 24 21.4283 24 20.5C24 19.5717 23.6313 18.6815 22.9749 18.0251C22.3185 17.3687 21.4283 17 20.5 17ZM17 19V22H15V19H17ZM10 20.5C10 20.1022 10.158 19.7206 10.4393 19.4393C10.7206 19.158 11.1022 19 11.5 19H13V22H11.5C11.1022 22 10.7206 21.842 10.4393 21.5607C10.158 21.2794 10 20.8978 10 20.5ZM20.5 22H19V19H20.5C20.8978 19 21.2794 19.158 21.5607 19.4393C21.842 19.7206 22 20.1022 22 20.5C22 20.8978 21.842 21.2794 21.5607 21.5607C21.2794 21.842 20.8978 22 20.5 22ZM9 13.5C9 13.2033 9.08797 12.9133 9.2528 12.6666C9.41762 12.42 9.65189 12.2277 9.92597 12.1142C10.2001 12.0006 10.5017 11.9709 10.7926 12.0288C11.0836 12.0867 11.3509 12.2296 11.5607 12.4393C11.7704 12.6491 11.9133 12.9164 11.9712 13.2074C12.0291 13.4983 11.9994 13.7999 11.8858 14.074C11.7723 14.3481 11.58 14.5824 11.3334 14.7472C11.0867 14.912 10.7967 15 10.5 15C10.1022 15 9.72064 14.842 9.43934 14.5607C9.15804 14.2794 9 13.8978 9 13.5ZM20 13.5C20 13.2033 20.088 12.9133 20.2528 12.6666C20.4176 12.42 20.6519 12.2277 20.926 12.1142C21.2001 12.0006 21.5017 11.9709 21.7926 12.0288C22.0836 12.0867 22.3509 12.2296 22.5607 12.4393C22.7704 12.6491 22.9133 12.9164 22.9712 13.2074C23.0291 13.4983 22.9993 13.7999 22.8858 14.074C22.7723 14.3481 22.58 14.5824 22.3334 14.7472C22.0867 14.912 21.7967 15 21.5 15C21.1022 15 20.7206 14.842 20.4393 14.5607C20.158 14.2794 20 13.8978 20 13.5Z" fill="currentColor"/>
<path d="M73 6.5H64.5V2C64.5 1.86739 64.4473 1.74021 64.3536 1.64645C64.2598 1.55268 64.1326 1.5 64 1.5C63.8674 1.5 63.7402 1.55268 63.6464 1.64645C63.5527 1.74021 63.5 1.86739 63.5 2V6.5H55C54.0717 6.5 53.1815 6.86875 52.5251 7.52513C51.8687 8.1815 51.5 9.07174 51.5 10V24C51.5 24.9283 51.8687 25.8185 52.5251 26.4749C53.1815 27.1313 54.0717 27.5 55 27.5H73C73.9283 27.5 74.8185 27.1313 75.4749 26.4749C76.1313 25.8185 76.5 24.9283 76.5 24V10C76.5 9.07174 76.1313 8.1815 75.4749 7.52513C74.8185 6.86875 73.9283 6.5 73 6.5ZM75.5 24C75.5 24.663 75.2366 25.2989 74.7678 25.7678C74.2989 26.2366 73.663 26.5 73 26.5H55C54.337 26.5 53.7011 26.2366 53.2322 25.7678C52.7634 25.2989 52.5 24.663 52.5 24V10C52.5 9.33696 52.7634 8.70107 53.2322 8.23223C53.7011 7.76339 54.337 7.5 55 7.5H73C73.663 7.5 74.2989 7.76339 74.7678 8.23223C75.2366 8.70107 75.5 9.33696 75.5 10V24ZM68.5 17.5H59.5C58.7044 17.5 57.9413 17.8161 57.3787 18.3787C56.8161 18.9413 56.5 19.7044 56.5 20.5C56.5 21.2956 56.8161 22.0587 57.3787 22.6213C57.9413 23.1839 58.7044 23.5 59.5 23.5H68.5C69.2956 23.5 70.0587 23.1839 70.6213 22.6213C71.1839 22.0587 71.5 21.2956 71.5 20.5C71.5 19.7044 71.1839 18.9413 70.6213 18.3787C70.0587 17.8161 69.2956 17.5 68.5 17.5ZM65.5 18.5V22.5H62.5V18.5H65.5ZM57.5 20.5C57.5 19.9696 57.7107 19.4609 58.0858 19.0858C58.4609 18.7107 58.9696 18.5 59.5 18.5H61.5V22.5H59.5C58.9696 22.5 58.4609 22.2893 58.0858 21.9142C57.7107 21.5391 57.5 21.0304 57.5 20.5ZM68.5 22.5H66.5V18.5H68.5C69.0304 18.5 69.5391 18.7107 69.9142 19.0858C70.2893 19.4609 70.5 19.9696 70.5 20.5C70.5 21.0304 70.2893 21.5391 69.9142 21.9142C69.5391 22.2893 69.0304 22.5 68.5 22.5ZM57.5 13.5C57.5 13.3022 57.5586 13.1089 57.6685 12.9444C57.7784 12.78 57.9346 12.6518 58.1173 12.5761C58.3 12.5004 58.5011 12.4806 58.6951 12.5192C58.8891 12.5578 59.0673 12.653 59.2071 12.7929C59.347 12.9327 59.4422 13.1109 59.4808 13.3049C59.5194 13.4989 59.4996 13.7 59.4239 13.8827C59.3482 14.0654 59.22 14.2216 59.0556 14.3315C58.8911 14.4414 58.6978 14.5 58.5 14.5C58.2348 14.5 57.9804 14.3946 57.7929 14.2071C57.6054 14.0196 57.5 13.7652 57.5 13.5ZM68.5 13.5C68.5 13.3022 68.5586 13.1089 68.6685 12.9444C68.7784 12.78 68.9346 12.6518 69.1173 12.5761C69.3 12.5004 69.5011 12.4806 69.6951 12.5192C69.8891 12.5578 70.0673 12.653 70.2071 12.7929C70.347 12.9327 70.4422 13.1109 70.4808 13.3049C70.5194 13.4989 70.4996 13.7 70.4239 13.8827C70.3482 14.0654 70.22 14.2216 70.0556 14.3315C69.8911 14.4414 69.6978 14.5 69.5 14.5C69.2348 14.5 68.9804 14.3946 68.7929 14.2071C68.6054 14.0196 68.5 13.7652 68.5 13.5Z" fill="currentColor"/>
<path d="M121 6.25H112.75V2C112.75 1.80109 112.671 1.61032 112.53 1.46967C112.39 1.32902 112.199 1.25 112 1.25C111.801 1.25 111.61 1.32902 111.47 1.46967C111.329 1.61032 111.25 1.80109 111.25 2V6.25H103C102.005 6.25 101.052 6.64509 100.348 7.34835C99.6451 8.05161 99.25 9.00544 99.25 10V24C99.25 24.9946 99.6451 25.9484 100.348 26.6517C101.052 27.3549 102.005 27.75 103 27.75H121C121.995 27.75 122.948 27.3549 123.652 26.6517C124.355 25.9484 124.75 24.9946 124.75 24V10C124.75 9.00544 124.355 8.05161 123.652 7.34835C122.948 6.64509 121.995 6.25 121 6.25ZM123.25 24C123.25 24.5967 123.013 25.169 122.591 25.591C122.169 26.0129 121.597 26.25 121 26.25H103C102.403 26.25 101.831 26.0129 101.409 25.591C100.987 25.169 100.75 24.5967 100.75 24V10C100.75 9.40326 100.987 8.83097 101.409 8.40901C101.831 7.98705 102.403 7.75 103 7.75H121C121.597 7.75 122.169 7.98705 122.591 8.40901C123.013 8.83097 123.25 9.40326 123.25 10V24ZM116.5 17.25H107.5C106.638 17.25 105.811 17.5924 105.202 18.2019C104.592 18.8114 104.25 19.638 104.25 20.5C104.25 21.362 104.592 22.1886 105.202 22.7981C105.811 23.4076 106.638 23.75 107.5 23.75H116.5C117.362 23.75 118.189 23.4076 118.798 22.7981C119.408 22.1886 119.75 21.362 119.75 20.5C119.75 19.638 119.408 18.8114 118.798 18.2019C118.189 17.5924 117.362 17.25 116.5 17.25ZM113.25 18.75V22.25H110.75V18.75H113.25ZM105.75 20.5C105.75 20.0359 105.934 19.5908 106.263 19.2626C106.591 18.9344 107.036 18.75 107.5 18.75H109.25V22.25H107.5C107.036 22.25 106.591 22.0656 106.263 21.7374C105.934 21.4092 105.75 20.9641 105.75 20.5ZM116.5 22.25H114.75V18.75H116.5C116.964 18.75 117.409 18.9344 117.737 19.2626C118.066 19.5908 118.25 20.0359 118.25 20.5C118.25 20.9641 118.066 21.4092 117.737 21.7374C117.409 22.0656 116.964 22.25 116.5 22.25ZM105.25 13.5C105.25 13.2528 105.323 13.0111 105.461 12.8055C105.598 12.6 105.793 12.4398 106.022 12.3452C106.25 12.2505 106.501 12.2258 106.744 12.274C106.986 12.3222 107.209 12.4413 107.384 12.6161C107.559 12.7909 107.678 13.0137 107.726 13.2561C107.774 13.4986 107.749 13.7499 107.655 13.9784C107.56 14.2068 107.4 14.402 107.194 14.5393C106.989 14.6767 106.747 14.75 106.5 14.75C106.168 14.75 105.851 14.6183 105.616 14.3839C105.382 14.1495 105.25 13.8315 105.25 13.5ZM116.25 13.5C116.25 13.2528 116.323 13.0111 116.461 12.8055C116.598 12.6 116.793 12.4398 117.022 12.3452C117.25 12.2505 117.501 12.2258 117.744 12.274C117.986 12.3222 118.209 12.4413 118.384 12.6161C118.559 12.7909 118.678 13.0137 118.726 13.2561C118.774 13.4986 118.749 13.7499 118.655 13.9784C118.56 14.2068 118.4 14.402 118.194 14.5393C117.989 14.6767 117.747 14.75 117.5 14.75C117.168 14.75 116.851 14.6183 116.616 14.3839C116.382 14.1495 116.25 13.8315 116.25 13.5Z" fill="currentColor"/>
<path d="M169 5.5H161.5V2C161.5 1.60218 161.342 1.22064 161.061 0.93934C160.779 0.658035 160.398 0.5 160 0.5C159.602 0.5 159.221 0.658035 158.939 0.93934C158.658 1.22064 158.5 1.60218 158.5 2V5.5H151C149.807 5.5 148.662 5.97411 147.818 6.81802C146.974 7.66193 146.5 8.80653 146.5 10V24C146.5 25.1935 146.974 26.3381 147.818 27.182C148.662 28.0259 149.807 28.5 151 28.5H169C170.193 28.5 171.338 28.0259 172.182 27.182C173.026 26.3381 173.5 25.1935 173.5 24V10C173.5 8.80653 173.026 7.66193 172.182 6.81802C171.338 5.97411 170.193 5.5 169 5.5ZM170.5 24C170.5 24.3978 170.342 24.7794 170.061 25.0607C169.779 25.342 169.398 25.5 169 25.5H151C150.602 25.5 150.221 25.342 149.939 25.0607C149.658 24.7794 149.5 24.3978 149.5 24V10C149.5 9.60218 149.658 9.22064 149.939 8.93934C150.221 8.65804 150.602 8.5 151 8.5H169C169.398 8.5 169.779 8.65804 170.061 8.93934C170.342 9.22064 170.5 9.60218 170.5 10V24ZM164.5 16H155.5C154.439 16 153.422 16.4214 152.672 17.1716C151.921 17.9217 151.5 18.9391 151.5 20C151.5 21.0609 151.921 22.0783 152.672 22.8284C153.422 23.5786 154.439 24 155.5 24H164.5C165.561 24 166.578 23.5786 167.328 22.8284C168.079 22.0783 168.5 21.0609 168.5 20C168.5 18.9391 168.079 17.9217 167.328 17.1716C166.578 16.4214 165.561 16 164.5 16ZM161 19V21H159V19H161ZM154.5 20C154.5 19.7348 154.605 19.4804 154.793 19.2929C154.98 19.1054 155.235 19 155.5 19H156V21H155.5C155.235 21 154.98 20.8946 154.793 20.7071C154.605 20.5196 154.5 20.2652 154.5 20ZM164.5 21H164V19H164.5C164.765 19 165.02 19.1054 165.207 19.2929C165.395 19.4804 165.5 19.7348 165.5 20C165.5 20.2652 165.395 20.5196 165.207 20.7071C165.02 20.8946 164.765 21 164.5 21ZM152.5 12.5C152.5 12.1044 152.617 11.7178 152.837 11.3889C153.057 11.06 153.369 10.8036 153.735 10.6522C154.1 10.5009 154.502 10.4613 154.89 10.5384C155.278 10.6156 155.635 10.8061 155.914 11.0858C156.194 11.3655 156.384 11.7219 156.462 12.1098C156.539 12.4978 156.499 12.8999 156.348 13.2654C156.196 13.6308 155.94 13.9432 155.611 14.1629C155.282 14.3827 154.896 14.5 154.5 14.5C153.97 14.5 153.461 14.2893 153.086 13.9142C152.711 13.5391 152.5 13.0304 152.5 12.5ZM163.5 12.5C163.5 12.1044 163.617 11.7178 163.837 11.3889C164.057 11.06 164.369 10.8036 164.735 10.6522C165.1 10.5009 165.502 10.4613 165.89 10.5384C166.278 10.6156 166.635 10.8061 166.914 11.0858C167.194 11.3655 167.384 11.7219 167.462 12.1098C167.539 12.4978 167.499 12.8999 167.348 13.2654C167.196 13.6308 166.94 13.9432 166.611 14.1629C166.282 14.3827 165.896 14.5 165.5 14.5C164.97 14.5 164.461 14.2893 164.086 13.9142C163.711 13.5391 163.5 13.0304 163.5 12.5Z" fill="currentColor"/>
<path d="M217 6H209V2C209 1.73478 208.895 1.48043 208.707 1.29289C208.52 1.10536 208.265 1 208 1C207.735 1 207.48 1.10536 207.293 1.29289C207.105 1.48043 207 1.73478 207 2V6H199C197.939 6 196.922 6.42143 196.172 7.17157C195.421 7.92172 195 8.93913 195 10V24C195 25.0609 195.421 26.0783 196.172 26.8284C196.922 27.5786 197.939 28 199 28H217C218.061 28 219.078 27.5786 219.828 26.8284C220.579 26.0783 221 25.0609 221 24V10C221 8.93913 220.579 7.92172 219.828 7.17157C219.078 6.42143 218.061 6 217 6ZM213.5 12C213.797 12 214.087 12.088 214.333 12.2528C214.58 12.4176 214.772 12.6519 214.886 12.926C214.999 13.2001 215.029 13.5017 214.971 13.7926C214.913 14.0836 214.77 14.3509 214.561 14.5607C214.351 14.7704 214.084 14.9133 213.793 14.9712C213.502 15.0291 213.2 14.9994 212.926 14.8858C212.652 14.7723 212.418 14.58 212.253 14.3334C212.088 14.0867 212 13.7967 212 13.5C212 13.1022 212.158 12.7206 212.439 12.4393C212.721 12.158 213.102 12 213.5 12ZM204 23H202C201.47 23 200.961 22.7893 200.586 22.4142C200.211 22.0391 200 21.5304 200 21C200 20.4696 200.211 19.9609 200.586 19.5858C200.961 19.2107 201.47 19 202 19H204V23ZM202.5 15C202.203 15 201.913 14.912 201.667 14.7472C201.42 14.5824 201.228 14.3481 201.114 14.074C201.001 13.7999 200.971 13.4983 201.029 13.2074C201.087 12.9164 201.23 12.6491 201.439 12.4393C201.649 12.2296 201.916 12.0867 202.207 12.0288C202.498 11.9709 202.8 12.0006 203.074 12.1142C203.348 12.2277 203.582 12.42 203.747 12.6666C203.912 12.9133 204 13.2033 204 13.5C204 13.8978 203.842 14.2794 203.561 14.5607C203.279 14.842 202.898 15 202.5 15ZM210 23H206V19H210V23ZM214 23H212V19H214C214.53 19 215.039 19.2107 215.414 19.5858C215.789 19.9609 216 20.4696 216 21C216 21.5304 215.789 22.0391 215.414 22.4142C215.039 22.7893 214.53 23 214 23Z" fill="currentColor"/>
<path opacity="0.2" d="M265 7H247C246.204 7 245.441 7.31607 244.879 7.87868C244.316 8.44129 244 9.20435 244 10V24C244 24.7956 244.316 25.5587 244.879 26.1213C245.441 26.6839 246.204 27 247 27H265C265.796 27 266.559 26.6839 267.121 26.1213C267.684 25.5587 268 24.7956 268 24V10C268 9.20435 267.684 8.44129 267.121 7.87868C266.559 7.31607 265.796 7 265 7ZM260.5 23H251.5C250.837 23 250.201 22.7366 249.732 22.2678C249.263 21.7989 249 21.163 249 20.5C249 19.837 249.263 19.2011 249.732 18.7322C250.201 18.2634 250.837 18 251.5 18H260.5C261.163 18 261.799 18.2634 262.268 18.7322C262.737 19.2011 263 19.837 263 20.5C263 21.163 262.737 21.7989 262.268 22.2678C261.799 22.7366 261.163 23 260.5 23Z" fill="currentColor"/>
<path d="M265 6H257V2C257 1.73478 256.895 1.48043 256.707 1.29289C256.52 1.10536 256.265 1 256 1C255.735 1 255.48 1.10536 255.293 1.29289C255.105 1.48043 255 1.73478 255 2V6H247C245.939 6 244.922 6.42143 244.172 7.17157C243.421 7.92172 243 8.93913 243 10V24C243 25.0609 243.421 26.0783 244.172 26.8284C244.922 27.5786 245.939 28 247 28H265C266.061 28 267.078 27.5786 267.828 26.8284C268.579 26.0783 269 25.0609 269 24V10C269 8.93913 268.579 7.92172 267.828 7.17157C267.078 6.42143 266.061 6 265 6ZM267 24C267 24.5304 266.789 25.0391 266.414 25.4142C266.039 25.7893 265.53 26 265 26H247C246.47 26 245.961 25.7893 245.586 25.4142C245.211 25.0391 245 24.5304 245 24V10C245 9.46957 245.211 8.96086 245.586 8.58579C245.961 8.21071 246.47 8 247 8H265C265.53 8 266.039 8.21071 266.414 8.58579C266.789 8.96086 267 9.46957 267 10V24ZM260.5 17H251.5C250.572 17 249.682 17.3687 249.025 18.0251C248.369 18.6815 248 19.5717 248 20.5C248 21.4283 248.369 22.3185 249.025 22.9749C249.682 23.6313 250.572 24 251.5 24H260.5C261.428 24 262.318 23.6313 262.975 22.9749C263.631 22.3185 264 21.4283 264 20.5C264 19.5717 263.631 18.6815 262.975 18.0251C262.318 17.3687 261.428 17 260.5 17ZM257 19V22H255V19H257ZM250 20.5C250 20.1022 250.158 19.7206 250.439 19.4393C250.721 19.158 251.102 19 251.5 19H253V22H251.5C251.102 22 250.721 21.842 250.439 21.5607C250.158 21.2794 250 20.8978 250 20.5ZM260.5 22H259V19H260.5C260.898 19 261.279 19.158 261.561 19.4393C261.842 19.7206 262 20.1022 262 20.5C262 20.8978 261.842 21.2794 261.561 21.5607C261.279 21.842 260.898 22 260.5 22ZM249 13.5C249 13.2033 249.088 12.9133 249.253 12.6666C249.418 12.42 249.652 12.2277 249.926 12.1142C250.2 12.0006 250.502 11.9709 250.793 12.0288C251.084 12.0867 251.351 12.2296 251.561 12.4393C251.77 12.6491 251.913 12.9164 251.971 13.2074C252.029 13.4983 251.999 13.7999 251.886 14.074C251.772 14.3481 251.58 14.5824 251.333 14.7472C251.087 14.912 250.797 15 250.5 15C250.102 15 249.721 14.842 249.439 14.5607C249.158 14.2794 249 13.8978 249 13.5ZM260 13.5C260 13.2033 260.088 12.9133 260.253 12.6666C260.418 12.42 260.652 12.2277 260.926 12.1142C261.2 12.0006 261.502 11.9709 261.793 12.0288C262.084 12.0867 262.351 12.2296 262.561 12.4393C262.77 12.6491 262.913 12.9164 262.971 13.2074C263.029 13.4983 262.999 13.7999 262.886 14.074C262.772 14.3481 262.58 14.5824 262.333 14.7472C262.087 14.912 261.797 15 261.5 15C261.102 15 260.721 14.842 260.439 14.5607C260.158 14.2794 260 13.8978 260 13.5Z" fill="currentColor"/>
</g>
<defs>
<clipPath id="clip0_17_2339">
<rect width="272" height="32" rx="5" fill="white"/>
</clipPath>
</defs>
</svg>
