<svg width="272" height="32" viewBox="0 0 272 32" fill="none" xmlns="http://www.w3.org/2000/svg">
<g clip-path="url(#clip0_17_2325)">
<path d="M14.6639 16.75L5.66388 24.75C5.56539 24.8372 5.45068 24.9042 5.32629 24.9471C5.20191 24.9901 5.07029 25.0081 4.93896 25.0001C4.80762 24.9922 4.67914 24.9584 4.56084 24.9008C4.44254 24.8432 4.33675 24.7629 4.2495 24.6644C4.16226 24.5659 4.09526 24.4512 4.05235 24.3268C4.00943 24.2024 3.99144 24.0708 3.99939 23.9394C4.00734 23.8081 4.04108 23.6796 4.09869 23.5613C4.15629 23.443 4.23664 23.3372 4.33513 23.25L12.5001 16L4.33638 8.74999C4.23789 8.66274 4.15755 8.55695 4.09994 8.43866C4.04233 8.32036 4.00859 8.19187 4.00064 8.06054C3.99269 7.9292 4.01068 7.79758 4.0536 7.6732C4.09651 7.54882 4.16351 7.43411 4.25075 7.33562C4.338 7.23713 4.44379 7.15678 4.56209 7.09918C4.68039 7.04157 4.80887 7.00783 4.94021 6.99988C5.07154 6.99193 5.20316 7.00992 5.32754 7.05284C5.45193 7.09575 5.56664 7.16274 5.66513 7.24999L14.6651 15.25C14.7715 15.3438 14.8568 15.4592 14.9151 15.5886C14.9735 15.7179 15.0037 15.8581 15.0037 16C15.0037 16.1419 14.9735 16.2821 14.9151 16.4114C14.8568 16.5407 14.7715 16.6562 14.6651 16.75H14.6639ZM27.0001 23H15.0001C14.7349 23 14.4806 23.1053 14.293 23.2929C14.1055 23.4804 14.0001 23.7348 14.0001 24C14.0001 24.2652 14.1055 24.5196 14.293 24.7071C14.4806 24.8946 14.7349 25 15.0001 25H27.0001C27.2653 25 27.5197 24.8946 27.7072 24.7071C27.8948 24.5196 28.0001 24.2652 28.0001 24C28.0001 23.7348 27.8948 23.4804 27.7072 23.2929C27.5197 23.1053 27.2653 23 27.0001 23Z" fill="currentColor"/>
<path d="M62.5002 16C62.5004 16.0708 62.4856 16.1408 62.4567 16.2055C62.4279 16.2701 62.3856 16.3279 62.3327 16.375L53.3327 24.375C53.2835 24.4186 53.2261 24.4522 53.1639 24.4737C53.1017 24.4952 53.0358 24.5042 52.9702 24.5002C52.9045 24.4963 52.8402 24.4794 52.781 24.4507C52.7218 24.4219 52.6689 24.3817 52.6252 24.3325C52.5815 24.2832 52.548 24.2258 52.5265 24.1636C52.505 24.1014 52.496 24.0356 52.4999 23.9699C52.5079 23.8372 52.5682 23.7131 52.6677 23.625L61.2502 16L52.6677 8.37496C52.5682 8.28678 52.5079 8.16269 52.4999 8.03001C52.492 7.89733 52.537 7.76692 52.6252 7.66746C52.7134 7.568 52.8375 7.50765 52.9702 7.49968C53.1028 7.49171 53.2332 7.53678 53.3327 7.62496L62.3327 15.625C62.3856 15.672 62.4279 15.7298 62.4567 15.7945C62.4856 15.8591 62.5004 15.9292 62.5002 16ZM75.0002 23.5H63.0002C62.8676 23.5 62.7404 23.5526 62.6467 23.6464C62.5529 23.7402 62.5002 23.8674 62.5002 24C62.5002 24.1326 62.5529 24.2597 62.6467 24.3535C62.7404 24.4473 62.8676 24.5 63.0002 24.5H75.0002C75.1328 24.5 75.26 24.4473 75.3538 24.3535C75.4475 24.2597 75.5002 24.1326 75.5002 24C75.5002 23.8674 75.4475 23.7402 75.3538 23.6464C75.26 23.5526 75.1328 23.5 75.0002 23.5Z" fill="currentColor"/>
<path d="M110.5 16.5599L101.5 24.5599C101.351 24.6926 101.155 24.7605 100.956 24.7487C100.757 24.737 100.57 24.6466 100.438 24.4974C100.305 24.3483 100.237 24.1525 100.249 23.9533C100.261 23.754 100.351 23.5676 100.5 23.4349L108.875 15.9999L100.5 8.56119C100.351 8.42859 100.261 8.24215 100.249 8.04289C100.237 7.84363 100.305 7.64788 100.438 7.49869C100.57 7.34951 100.757 7.25911 100.956 7.24739C101.155 7.23567 101.351 7.30359 101.5 7.43619L110.5 15.4362C110.58 15.5066 110.644 15.5931 110.688 15.6901C110.731 15.7871 110.754 15.8923 110.754 15.9987C110.754 16.1051 110.731 16.2103 110.688 16.3073C110.644 16.4043 110.58 16.4908 110.5 16.5612V16.5599ZM123 23.2499H111C110.801 23.2499 110.61 23.329 110.47 23.4696C110.329 23.6103 110.25 23.801 110.25 23.9999C110.25 24.1989 110.329 24.3896 110.47 24.5303C110.61 24.6709 110.801 24.7499 111 24.7499H123C123.199 24.7499 123.39 24.6709 123.53 24.5303C123.671 24.3896 123.75 24.1989 123.75 23.9999C123.75 23.801 123.671 23.6103 123.53 23.4696C123.39 23.329 123.199 23.2499 123 23.2499Z" fill="currentColor"/>
<path d="M159 17.125L150 25.125C149.701 25.3902 149.31 25.526 148.911 25.5026C148.513 25.4791 148.14 25.2983 147.875 25C147.61 24.7016 147.474 24.3101 147.497 23.9116C147.521 23.513 147.701 23.1402 148 22.875L155.739 16L148 9.12495C147.701 8.85974 147.521 8.48686 147.497 8.08834C147.474 7.68983 147.61 7.29832 147.875 6.99995C148.14 6.70158 148.513 6.52079 148.911 6.49735C149.31 6.47391 149.701 6.60974 150 6.87495L159 14.875C159.159 15.0157 159.287 15.1888 159.375 15.3828C159.462 15.5768 159.508 15.7871 159.508 16C159.508 16.2128 159.462 16.4231 159.375 16.6171C159.287 16.8111 159.159 16.9842 159 17.125ZM171 22.5H159C158.602 22.5 158.22 22.658 157.939 22.9393C157.658 23.2206 157.5 23.6021 157.5 24C157.5 24.3978 157.658 24.7793 157.939 25.0606C158.22 25.3419 158.602 25.5 159 25.5H171C171.398 25.5 171.779 25.3419 172.06 25.0606C172.342 24.7793 172.5 24.3978 172.5 24C172.5 23.6021 172.342 23.2206 172.06 22.9393C171.779 22.658 171.398 22.5 171 22.5Z" fill="currentColor"/>
<path d="M219 5H197C196.47 5 195.961 5.21071 195.586 5.58579C195.211 5.96086 195 6.46957 195 7V25C195 25.5304 195.211 26.0391 195.586 26.4142C195.961 26.7893 196.47 27 197 27H219C219.53 27 220.039 26.7893 220.414 26.4142C220.789 26.0391 221 25.5304 221 25V7C221 6.46957 220.789 5.96086 220.414 5.58579C220.039 5.21071 219.53 5 219 5ZM201.708 21.7075C201.52 21.8951 201.265 22.0006 201 22.0006C200.735 22.0006 200.48 21.8951 200.292 21.7075C200.105 21.5199 199.999 21.2654 199.999 21C199.999 20.7346 200.105 20.4801 200.292 20.2925L204.586 16L200.292 11.7075C200.105 11.5199 199.999 11.2654 199.999 11C199.999 10.7346 200.105 10.4801 200.292 10.2925C200.48 10.1049 200.735 9.99944 201 9.99944C201.265 9.99944 201.52 10.1049 201.708 10.2925L206.708 15.2925C206.8 15.3854 206.874 15.4957 206.925 15.6171C206.975 15.7385 207.001 15.8686 207.001 16C207.001 16.1314 206.975 16.2615 206.925 16.3829C206.874 16.5043 206.8 16.6146 206.708 16.7075L201.708 21.7075ZM216 22H208C207.735 22 207.48 21.8946 207.293 21.7071C207.105 21.5196 207 21.2652 207 21C207 20.7348 207.105 20.4804 207.293 20.2929C207.48 20.1054 207.735 20 208 20H216C216.265 20 216.52 20.1054 216.707 20.2929C216.895 20.4804 217 20.7348 217 21C217 21.2652 216.895 21.5196 216.707 21.7071C216.52 21.8946 216.265 22 216 22Z" fill="currentColor"/>
<path opacity="0.2" d="M267 9V24H245V8H266C266.265 8 266.52 8.10536 266.707 8.29289C266.895 8.48043 267 8.73478 267 9Z" fill="currentColor"/>
<path d="M254.664 16.75L245.664 24.75C245.565 24.8372 245.451 24.9042 245.326 24.9471C245.202 24.9901 245.07 25.0081 244.939 25.0001C244.808 24.9922 244.679 24.9584 244.561 24.9008C244.443 24.8432 244.337 24.7629 244.25 24.6644C244.162 24.5659 244.095 24.4512 244.052 24.3268C244.009 24.2024 243.991 24.0708 243.999 23.9394C244.007 23.8081 244.041 23.6796 244.099 23.5613C244.156 23.443 244.237 23.3372 244.335 23.25L252.5 16L244.336 8.74999C244.238 8.66274 244.158 8.55695 244.1 8.43866C244.042 8.32036 244.009 8.19187 244.001 8.06054C243.993 7.9292 244.011 7.79758 244.054 7.6732C244.097 7.54882 244.164 7.43411 244.251 7.33562C244.338 7.23713 244.444 7.15678 244.562 7.09918C244.68 7.04157 244.809 7.00783 244.94 6.99988C245.072 6.99193 245.203 7.00992 245.328 7.05284C245.452 7.09575 245.567 7.16274 245.665 7.24999L254.665 15.25C254.772 15.3438 254.857 15.4592 254.915 15.5886C254.974 15.7179 255.004 15.8581 255.004 16C255.004 16.1419 254.974 16.2821 254.915 16.4114C254.857 16.5407 254.772 16.6562 254.665 16.75H254.664ZM267 23H255C254.735 23 254.481 23.1053 254.293 23.2929C254.105 23.4804 254 23.7348 254 24C254 24.2652 254.105 24.5196 254.293 24.7071C254.481 24.8946 254.735 25 255 25H267C267.265 25 267.52 24.8946 267.707 24.7071C267.895 24.5196 268 24.2652 268 24C268 23.7348 267.895 23.4804 267.707 23.2929C267.52 23.1053 267.265 23 267 23Z" fill="currentColor"/>
</g>
<defs>
<clipPath id="clip0_17_2325">
<rect width="272" height="32" rx="5" fill="white"/>
</clipPath>
</defs>
</svg>
