<svg width="272" height="32" viewBox="0 0 272 32" fill="none" xmlns="http://www.w3.org/2000/svg">
<g clip-path="url(#clip0_17_2690)">
<path d="M27 5H5C4.46957 5 3.96086 5.21071 3.58579 5.58579C3.21071 5.96086 3 6.46957 3 7V25C3 25.5304 3.21071 26.0391 3.58579 26.4142C3.96086 26.7893 4.46957 27 5 27H6.67375C6.86301 27.0001 7.0484 26.9464 7.20838 26.8453C7.36836 26.7442 7.49636 26.5997 7.5775 26.4287C8.06377 25.4021 8.83151 24.5346 9.79143 23.9271C10.7514 23.3196 11.864 22.9971 13 22.9971C14.136 22.9971 15.2486 23.3196 16.2086 23.9271C17.1685 24.5346 17.9362 25.4021 18.4225 26.4287C18.5036 26.5997 18.6316 26.7442 18.7916 26.8453C18.9516 26.9464 19.137 27.0001 19.3263 27H27C27.5304 27 28.0391 26.7893 28.4142 26.4142C28.7893 26.0391 29 25.5304 29 25V7C29 6.46957 28.7893 5.96086 28.4142 5.58579C28.0391 5.21071 27.5304 5 27 5ZM10 18C10 17.4067 10.1759 16.8266 10.5056 16.3333C10.8352 15.8399 11.3038 15.4554 11.8519 15.2284C12.4001 15.0013 13.0033 14.9419 13.5853 15.0576C14.1672 15.1734 14.7018 15.4591 15.1213 15.8787C15.5409 16.2982 15.8266 16.8328 15.9424 17.4147C16.0581 17.9967 15.9987 18.5999 15.7716 19.1481C15.5446 19.6962 15.1601 20.1648 14.6667 20.4944C14.1734 20.8241 13.5933 21 13 21C12.2044 21 11.4413 20.6839 10.8787 20.1213C10.3161 19.5587 10 18.7956 10 18ZM27 25H19.9287C19.0937 23.5643 17.8349 22.4221 16.325 21.73C17.082 21.056 17.6162 20.1678 17.857 19.1832C18.0977 18.1986 18.0335 17.1642 17.6729 16.2169C17.3122 15.2696 16.6723 14.4543 15.8377 13.8791C15.0032 13.3038 14.0136 12.9958 13 12.9958C11.9864 12.9958 10.9968 13.3038 10.1623 13.8791C9.32774 14.4543 8.68776 15.2696 8.32715 16.2169C7.96654 17.1642 7.90234 18.1986 8.14305 19.1832C8.38376 20.1678 8.91802 21.056 9.675 21.73C8.16513 22.4221 6.90633 23.5643 6.07125 25H5V7H27V25ZM7 12V10C7 9.73478 7.10536 9.48043 7.29289 9.29289C7.48043 9.10536 7.73478 9 8 9H24C24.2652 9 24.5196 9.10536 24.7071 9.29289C24.8946 9.48043 25 9.73478 25 10V22C25 22.2652 24.8946 22.5196 24.7071 22.7071C24.5196 22.8946 24.2652 23 24 23H22C21.7348 23 21.4804 22.8946 21.2929 22.7071C21.1054 22.5196 21 22.2652 21 22C21 21.7348 21.1054 21.4804 21.2929 21.2929C21.4804 21.1054 21.7348 21 22 21H23V11H9V12C9 12.2652 8.89464 12.5196 8.70711 12.7071C8.51957 12.8946 8.26522 13 8 13C7.73478 13 7.48043 12.8946 7.29289 12.7071C7.10536 12.5196 7 12.2652 7 12Z" fill="currentColor"/>
<path d="M75 5.5H53C52.6022 5.5 52.2206 5.65804 51.9393 5.93934C51.658 6.22064 51.5 6.60218 51.5 7V25C51.5 25.3978 51.658 25.7794 51.9393 26.0607C52.2206 26.342 52.6022 26.5 53 26.5H54.6737C54.7683 26.4999 54.8609 26.4729 54.9408 26.4222C55.0207 26.3715 55.0846 26.2993 55.125 26.2138C55.6517 25.1012 56.4834 24.1611 57.5234 23.5027C58.5635 22.8443 59.7691 22.4948 61 22.4948C62.2309 22.4948 63.4365 22.8443 64.4766 23.5027C65.5166 24.1611 66.3483 25.1012 66.875 26.2138C66.9154 26.2993 66.9793 26.3715 67.0592 26.4222C67.1391 26.4729 67.2317 26.4999 67.3263 26.5H75C75.3978 26.5 75.7794 26.342 76.0607 26.0607C76.342 25.7794 76.5 25.3978 76.5 25V7C76.5 6.60218 76.342 6.22064 76.0607 5.93934C75.7794 5.65804 75.3978 5.5 75 5.5ZM75.5 25C75.5 25.1326 75.4473 25.2598 75.3536 25.3536C75.2598 25.4473 75.1326 25.5 75 25.5H67.635C66.7157 23.7726 65.1614 22.4697 63.3 21.8662C64.1472 21.3625 64.8055 20.5945 65.1739 19.6803C65.5423 18.7661 65.6003 17.7562 65.3391 16.8058C65.0778 15.8554 64.5118 15.017 63.7279 14.4195C62.944 13.822 61.9856 13.4984 61 13.4984C60.0144 13.4984 59.056 13.822 58.2721 14.4195C57.4882 15.017 56.9222 15.8554 56.6609 16.8058C56.3997 17.7562 56.4577 18.7661 56.8261 19.6803C57.1945 20.5945 57.8528 21.3625 58.7 21.8662C56.8386 22.4697 55.2843 23.7726 54.365 25.5H53C52.8674 25.5 52.7402 25.4473 52.6464 25.3536C52.5527 25.2598 52.5 25.1326 52.5 25V7C52.5 6.86739 52.5527 6.74021 52.6464 6.64645C52.7402 6.55268 52.8674 6.5 53 6.5H75C75.1326 6.5 75.2598 6.55268 75.3536 6.64645C75.4473 6.74021 75.5 6.86739 75.5 7V25ZM61 21.5C60.3078 21.5 59.6311 21.2947 59.0555 20.9101C58.4799 20.5256 58.0313 19.9789 57.7664 19.3394C57.5015 18.6999 57.4322 17.9961 57.5673 17.3172C57.7023 16.6383 58.0356 16.0146 58.5251 15.5251C59.0146 15.0356 59.6383 14.7023 60.3172 14.5673C60.9961 14.4322 61.6999 14.5015 62.3394 14.7664C62.9789 15.0313 63.5256 15.4799 63.9101 16.0555C64.2947 16.6311 64.5 17.3078 64.5 18C64.5 18.4596 64.4095 18.9148 64.2336 19.3394C64.0577 19.764 63.7999 20.1499 63.4749 20.4749C63.1499 20.7999 62.764 21.0577 62.3394 21.2336C61.9148 21.4095 61.4596 21.5 61 21.5ZM72.5 10V22C72.5 22.1326 72.4473 22.2598 72.3536 22.3536C72.2598 22.4473 72.1326 22.5 72 22.5H70C69.8674 22.5 69.7402 22.4473 69.6464 22.3536C69.5527 22.2598 69.5 22.1326 69.5 22C69.5 21.8674 69.5527 21.7402 69.6464 21.6464C69.7402 21.5527 69.8674 21.5 70 21.5H71.5V10.5H56.5V12C56.5 12.1326 56.4473 12.2598 56.3536 12.3536C56.2598 12.4473 56.1326 12.5 56 12.5C55.8674 12.5 55.7402 12.4473 55.6464 12.3536C55.5527 12.2598 55.5 12.1326 55.5 12V10C55.5 9.86739 55.5527 9.74021 55.6464 9.64645C55.7402 9.55268 55.8674 9.5 56 9.5H72C72.1326 9.5 72.2598 9.55268 72.3536 9.64645C72.4473 9.74021 72.5 9.86739 72.5 10Z" fill="currentColor"/>
<path d="M123 5.25H101C100.536 5.25 100.091 5.43437 99.7626 5.76256C99.4344 6.09075 99.25 6.53587 99.25 7V25C99.25 25.4641 99.4344 25.9092 99.7626 26.2374C100.091 26.5656 100.536 26.75 101 26.75H102.674C102.816 26.75 102.955 26.7097 103.075 26.6338C103.195 26.5579 103.29 26.4495 103.351 26.3213C103.858 25.2516 104.657 24.3478 105.657 23.7149C106.657 23.082 107.817 22.746 109 22.746C110.183 22.746 111.343 23.082 112.343 23.7149C113.343 24.3478 114.142 25.2516 114.649 26.3213C114.71 26.4495 114.805 26.5579 114.925 26.6338C115.045 26.7097 115.184 26.75 115.326 26.75H123C123.464 26.75 123.909 26.5656 124.237 26.2374C124.566 25.9092 124.75 25.4641 124.75 25V7C124.75 6.53587 124.566 6.09075 124.237 5.76256C123.909 5.43437 123.464 5.25 123 5.25ZM105.75 18C105.75 17.3572 105.941 16.7289 106.298 16.1944C106.655 15.6599 107.162 15.2434 107.756 14.9974C108.35 14.7514 109.004 14.687 109.634 14.8124C110.264 14.9378 110.844 15.2474 111.298 15.7019C111.753 16.1564 112.062 16.7355 112.188 17.366C112.313 17.9964 112.249 18.6499 112.003 19.2437C111.757 19.8376 111.34 20.3452 110.806 20.7023C110.271 21.0594 109.643 21.25 109 21.25C108.138 21.25 107.311 20.9076 106.702 20.2981C106.092 19.6886 105.75 18.862 105.75 18ZM123.25 25C123.25 25.0663 123.224 25.1299 123.177 25.1768C123.13 25.2237 123.066 25.25 123 25.25H115.784C114.909 23.6803 113.519 22.4611 111.849 21.7987C112.647 21.2008 113.236 20.3669 113.534 19.4152C113.831 18.4636 113.822 17.4424 113.506 16.4965C113.191 15.5505 112.587 14.7277 111.778 14.1446C110.969 13.5616 109.997 13.2478 109 13.2478C108.003 13.2478 107.031 13.5616 106.222 14.1446C105.413 14.7277 104.809 15.5505 104.494 16.4965C104.178 17.4424 104.169 18.4636 104.466 19.4152C104.764 20.3669 105.353 21.2008 106.151 21.7987C104.481 22.4611 103.091 23.6803 102.216 25.25H101C100.934 25.25 100.87 25.2237 100.823 25.1768C100.776 25.1299 100.75 25.0663 100.75 25V7C100.75 6.9337 100.776 6.87011 100.823 6.82322C100.87 6.77634 100.934 6.75 101 6.75H123C123.066 6.75 123.13 6.77634 123.177 6.82322C123.224 6.87011 123.25 6.9337 123.25 7V25ZM120.75 10V22C120.75 22.1989 120.671 22.3897 120.53 22.5303C120.39 22.671 120.199 22.75 120 22.75H118C117.801 22.75 117.61 22.671 117.47 22.5303C117.329 22.3897 117.25 22.1989 117.25 22C117.25 21.8011 117.329 21.6103 117.47 21.4697C117.61 21.329 117.801 21.25 118 21.25H119.25V10.75H104.75V12C104.75 12.1989 104.671 12.3897 104.53 12.5303C104.39 12.671 104.199 12.75 104 12.75C103.801 12.75 103.61 12.671 103.47 12.5303C103.329 12.3897 103.25 12.1989 103.25 12V10C103.25 9.80109 103.329 9.61032 103.47 9.46967C103.61 9.32902 103.801 9.25 104 9.25H120C120.199 9.25 120.39 9.32902 120.53 9.46967C120.671 9.61032 120.75 9.80109 120.75 10Z" fill="currentColor"/>
<path d="M151 10.5C151 10.1022 151.158 9.72064 151.439 9.43934C151.721 9.15804 152.102 9 152.5 9H167.5C167.898 9 168.279 9.15804 168.561 9.43934C168.842 9.72064 169 10.1022 169 10.5V21.5C169 21.8978 168.842 22.2794 168.561 22.5607C168.279 22.842 167.898 23 167.5 23C167.102 23 166.721 22.842 166.439 22.5607C166.158 22.2794 166 21.8978 166 21.5V12H152.5C152.102 12 151.721 11.842 151.439 11.5607C151.158 11.2794 151 10.8978 151 10.5ZM173.5 7V25C173.5 25.663 173.237 26.2989 172.768 26.7678C172.299 27.2366 171.663 27.5 171 27.5H162.657C162.341 27.4999 162.034 27.4001 161.778 27.2147C161.522 27.0293 161.331 26.7678 161.233 26.4675C160.919 25.5962 160.344 24.843 159.586 24.3106C158.828 23.7781 157.925 23.4924 156.999 23.4924C156.073 23.4924 155.169 23.7781 154.411 24.3106C153.654 24.843 153.079 25.5962 152.765 26.4675C152.667 26.7674 152.476 27.0286 152.221 27.2139C151.965 27.3993 151.658 27.4994 151.343 27.5H149C148.337 27.5 147.701 27.2366 147.232 26.7678C146.763 26.2989 146.5 25.663 146.5 25V7C146.5 6.33696 146.763 5.70107 147.232 5.23223C147.701 4.76339 148.337 4.5 149 4.5H171C171.663 4.5 172.299 4.76339 172.768 5.23223C173.237 5.70107 173.5 6.33696 173.5 7ZM157 20.5C157.396 20.5 157.782 20.3827 158.111 20.1629C158.44 19.9432 158.696 19.6308 158.848 19.2654C158.999 18.8999 159.039 18.4978 158.962 18.1098C158.884 17.7219 158.694 17.3655 158.414 17.0858C158.135 16.8061 157.778 16.6156 157.39 16.5384C157.002 16.4613 156.6 16.5009 156.235 16.6522C155.869 16.8036 155.557 17.06 155.337 17.3889C155.117 17.7178 155 18.1044 155 18.5C155 19.0304 155.211 19.5391 155.586 19.9142C155.961 20.2893 156.47 20.5 157 20.5ZM170.5 7.5H149.5V24.5H150.365C150.996 23.3087 151.935 22.3089 153.085 21.605C152.5 20.8687 152.135 19.9823 152.031 19.0477C151.927 18.1131 152.088 17.1681 152.497 16.3212C152.906 15.4744 153.545 14.76 154.342 14.26C155.138 13.7601 156.06 13.4949 157 13.4949C157.94 13.4949 158.862 13.7601 159.658 14.26C160.455 14.76 161.094 15.4744 161.503 16.3212C161.912 17.1681 162.073 18.1131 161.969 19.0477C161.865 19.9823 161.5 20.8687 160.915 21.605C162.065 22.3089 163.004 23.3087 163.635 24.5H170.5V7.5Z" fill="currentColor"/>
<path d="M219 5H197C196.47 5 195.961 5.21071 195.586 5.58579C195.211 5.96086 195 6.46957 195 7V25C195 25.5304 195.211 26.0391 195.586 26.4142C195.961 26.7893 196.47 27 197 27H198.674C198.863 27.0001 199.048 26.9464 199.208 26.8453C199.368 26.7442 199.496 26.5997 199.577 26.4287C200.064 25.4021 200.832 24.5346 201.791 23.9271C202.751 23.3196 203.864 22.9971 205 22.9971C206.136 22.9971 207.249 23.3196 208.209 23.9271C209.168 24.5346 209.936 25.4021 210.423 26.4287C210.504 26.5997 210.632 26.7442 210.792 26.8453C210.952 26.9464 211.137 27.0001 211.326 27H219C219.53 27 220.039 26.7893 220.414 26.4142C220.789 26.0391 221 25.5304 221 25V7C221 6.46957 220.789 5.96086 220.414 5.58579C220.039 5.21071 219.53 5 219 5ZM205 21C204.209 21 203.436 20.7654 202.778 20.3259C202.12 19.8864 201.607 19.2616 201.304 18.5307C201.002 17.7998 200.923 16.9956 201.077 16.2196C201.231 15.4437 201.612 14.731 202.172 14.1716C202.731 13.6122 203.444 13.2312 204.22 13.0769C204.996 12.9225 205.8 13.0017 206.531 13.3045C207.262 13.6072 207.886 14.1199 208.326 14.7777C208.765 15.4355 209 16.2089 209 17C209 18.0609 208.579 19.0783 207.828 19.8284C207.078 20.5786 206.061 21 205 21ZM219 25H211.929C211.493 24.2483 210.937 23.5728 210.284 23H216C216.265 23 216.52 22.8946 216.707 22.7071C216.895 22.5196 217 22.2652 217 22V10C217 9.73478 216.895 9.48043 216.707 9.29289C216.52 9.10536 216.265 9 216 9H200C199.735 9 199.48 9.10536 199.293 9.29289C199.105 9.48043 199 9.73478 199 10V22C199 22.2218 199.074 22.4373 199.209 22.6127C199.345 22.788 199.535 22.9133 199.75 22.9688C199.082 23.5479 198.514 24.2344 198.071 25H197V7H219V25Z" fill="currentColor"/>
<path opacity="0.2" d="M264 10V22H253C253.791 22 254.564 21.7654 255.222 21.3259C255.88 20.8864 256.393 20.2616 256.696 19.5307C256.998 18.7998 257.077 17.9956 256.923 17.2196C256.769 16.4437 256.388 15.731 255.828 15.1716C255.269 14.6122 254.556 14.2312 253.78 14.0769C253.004 13.9225 252.2 14.0017 251.469 14.3045C250.738 14.6072 250.114 15.1199 249.674 15.7777C249.235 16.4355 249 17.2089 249 18H248V10H264Z" fill="currentColor"/>
<path d="M267 5H245C244.47 5 243.961 5.21071 243.586 5.58579C243.211 5.96086 243 6.46957 243 7V25C243 25.5304 243.211 26.0391 243.586 26.4142C243.961 26.7893 244.47 27 245 27H246.674C246.863 27.0001 247.048 26.9464 247.208 26.8453C247.368 26.7442 247.496 26.5997 247.577 26.4287C248.064 25.4021 248.832 24.5346 249.791 23.9271C250.751 23.3196 251.864 22.9971 253 22.9971C254.136 22.9971 255.249 23.3196 256.209 23.9271C257.168 24.5346 257.936 25.4021 258.423 26.4287C258.504 26.5997 258.632 26.7442 258.792 26.8453C258.952 26.9464 259.137 27.0001 259.326 27H267C267.53 27 268.039 26.7893 268.414 26.4142C268.789 26.0391 269 25.5304 269 25V7C269 6.46957 268.789 5.96086 268.414 5.58579C268.039 5.21071 267.53 5 267 5ZM250 18C250 17.4067 250.176 16.8266 250.506 16.3333C250.835 15.8399 251.304 15.4554 251.852 15.2284C252.4 15.0013 253.003 14.9419 253.585 15.0576C254.167 15.1734 254.702 15.4591 255.121 15.8787C255.541 16.2982 255.827 16.8328 255.942 17.4147C256.058 17.9967 255.999 18.5999 255.772 19.1481C255.545 19.6962 255.16 20.1648 254.667 20.4944C254.173 20.8241 253.593 21 253 21C252.204 21 251.441 20.6839 250.879 20.1213C250.316 19.5587 250 18.7956 250 18ZM267 25H259.929C259.094 23.5643 257.835 22.4221 256.325 21.73C257.082 21.056 257.616 20.1678 257.857 19.1832C258.098 18.1986 258.033 17.1642 257.673 16.2169C257.312 15.2696 256.672 14.4543 255.838 13.8791C255.003 13.3038 254.014 12.9958 253 12.9958C251.986 12.9958 250.997 13.3038 250.162 13.8791C249.328 14.4543 248.688 15.2696 248.327 16.2169C247.967 17.1642 247.902 18.1986 248.143 19.1832C248.384 20.1678 248.918 21.056 249.675 21.73C248.165 22.4221 246.906 23.5643 246.071 25H245V7H267V25ZM247 12V10C247 9.73478 247.105 9.48043 247.293 9.29289C247.48 9.10536 247.735 9 248 9H264C264.265 9 264.52 9.10536 264.707 9.29289C264.895 9.48043 265 9.73478 265 10V22C265 22.2652 264.895 22.5196 264.707 22.7071C264.52 22.8946 264.265 23 264 23H262C261.735 23 261.48 22.8946 261.293 22.7071C261.105 22.5196 261 22.2652 261 22C261 21.7348 261.105 21.4804 261.293 21.2929C261.48 21.1054 261.735 21 262 21H263V11H249V12C249 12.2652 248.895 12.5196 248.707 12.7071C248.52 12.8946 248.265 13 248 13C247.735 13 247.48 12.8946 247.293 12.7071C247.105 12.5196 247 12.2652 247 12Z" fill="currentColor"/>
</g>
<defs>
<clipPath id="clip0_17_2690">
<rect width="272" height="32" rx="5" fill="white"/>
</clipPath>
</defs>
</svg>
