<svg width="272" height="32" viewBox="0 0 272 32" fill="none" xmlns="http://www.w3.org/2000/svg">
<g clip-path="url(#clip0_17_15598)">
<path d="M16 2C12.8185 2.00364 9.76839 3.26909 7.51874 5.51874C5.26909 7.76839 4.00364 10.8185 4 14C4 17 5.57 20.8825 8.20125 24.375C10.8488 27.8937 13.7638 30 16 30C18.2362 30 21.1512 27.8988 23.7987 24.375C26.43 20.875 28 17 28 14C27.9964 10.8185 26.7309 7.76839 24.4813 5.51874C22.2316 3.26909 19.1815 2.00364 16 2ZM22.2013 23.1775C20.03 26.0612 17.5387 28 16 28C14.4613 28 11.97 26.0612 9.79875 23.1775C7.45625 20.0625 6 16.5463 6 14C6 11.3478 7.05357 8.8043 8.92893 6.92893C10.8043 5.05357 13.3478 4 16 4C18.6522 4 21.1957 5.05357 23.0711 6.92893C24.9464 8.8043 26 11.3478 26 14C26 16.5463 24.5438 20.0625 22.2013 23.1775ZM15 17C15 15.6739 14.4732 14.4021 13.5355 13.4645C12.5979 12.5268 11.3261 12 10 12C9.46957 12 8.96086 12.2107 8.58579 12.5858C8.21071 12.9609 8 13.4696 8 14C8 15.3261 8.52678 16.5979 9.46447 17.5355C10.4021 18.4732 11.6739 19 13 19C13.5304 19 14.0391 18.7893 14.4142 18.4142C14.7893 18.0391 15 17.5304 15 17ZM10 14C10.7956 14 11.5587 14.3161 12.1213 14.8787C12.6839 15.4413 13 16.2044 13 17C12.2044 17 11.4413 16.6839 10.8787 16.1213C10.3161 15.5587 10 14.7956 10 14ZM22 12C20.6739 12 19.4021 12.5268 18.4645 13.4645C17.5268 14.4021 17 15.6739 17 17C17 17.5304 17.2107 18.0391 17.5858 18.4142C17.9609 18.7893 18.4696 19 19 19C19.6566 19 20.3068 18.8707 20.9134 18.6194C21.52 18.3681 22.0712 17.9998 22.5355 17.5355C22.9998 17.0712 23.3681 16.52 23.6194 15.9134C23.8707 15.3068 24 14.6566 24 14C24 13.4696 23.7893 12.9609 23.4142 12.5858C23.0391 12.2107 22.5304 12 22 12ZM19 17C19 16.2044 19.3161 15.4413 19.8787 14.8787C20.4413 14.3161 21.2044 14 22 14C22 14.7956 21.6839 15.5587 21.1213 16.1213C20.5587 16.6839 19.7956 17 19 17ZM19 23C19 23.2652 18.8946 23.5196 18.7071 23.7071C18.5196 23.8946 18.2652 24 18 24H14C13.7348 24 13.4804 23.8946 13.2929 23.7071C13.1054 23.5196 13 23.2652 13 23C13 22.7348 13.1054 22.4804 13.2929 22.2929C13.4804 22.1054 13.7348 22 14 22H18C18.2652 22 18.5196 22.1054 18.7071 22.2929C18.8946 22.4804 19 22.7348 19 23Z" fill="currentColor"/>
<path d="M64 2.5C60.951 2.50331 58.0279 3.71597 55.8719 5.87193C53.716 8.02788 52.5033 10.951 52.5 14C52.5 16.8988 54.0325 20.6663 56.6 24.0788C58.5725 26.7 61.5513 29.5 64 29.5C66.4487 29.5 69.4275 26.7 71.4 24.0788C73.9675 20.6663 75.5 16.8988 75.5 14C75.4967 10.951 74.284 8.02788 72.1281 5.87193C69.9721 3.71597 67.049 2.50331 64 2.5ZM70.6 23.4775C68.305 26.5288 65.7137 28.5 64 28.5C62.2863 28.5 59.695 26.5288 57.4 23.4775C55 20.28 53.5 16.6488 53.5 14C53.5 11.2152 54.6062 8.54451 56.5754 6.57538C58.5445 4.60625 61.2152 3.5 64 3.5C66.7848 3.5 69.4555 4.60625 71.4246 6.57538C73.3938 8.54451 74.5 11.2152 74.5 14C74.5 16.6488 73.0063 20.28 70.6 23.4775ZM62.5 17C62.5 15.8065 62.0259 14.6619 61.182 13.818C60.3381 12.9741 59.1935 12.5 58 12.5C57.6022 12.5 57.2206 12.658 56.9393 12.9393C56.658 13.2206 56.5 13.6022 56.5 14C56.5 15.1935 56.9741 16.3381 57.818 17.182C58.6619 18.0259 59.8065 18.5 61 18.5C61.3978 18.5 61.7794 18.342 62.0607 18.0607C62.342 17.7794 62.5 17.3978 62.5 17ZM61 17.5C60.0717 17.5 59.1815 17.1313 58.5251 16.4749C57.8687 15.8185 57.5 14.9283 57.5 14C57.5 13.8674 57.5527 13.7402 57.6464 13.6464C57.7402 13.5527 57.8674 13.5 58 13.5C58.9283 13.5 59.8185 13.8687 60.4749 14.5251C61.1313 15.1815 61.5 16.0717 61.5 17C61.5 17.1326 61.4473 17.2598 61.3536 17.3536C61.2598 17.4473 61.1326 17.5 61 17.5ZM70 12.5C68.8065 12.5 67.6619 12.9741 66.818 13.818C65.9741 14.6619 65.5 15.8065 65.5 17C65.5 17.3978 65.658 17.7794 65.9393 18.0607C66.2206 18.342 66.6022 18.5 67 18.5C68.1935 18.5 69.3381 18.0259 70.182 17.182C71.0259 16.3381 71.5 15.1935 71.5 14C71.5 13.6022 71.342 13.2206 71.0607 12.9393C70.7794 12.658 70.3978 12.5 70 12.5ZM67 17.5C66.8674 17.5 66.7402 17.4473 66.6464 17.3536C66.5527 17.2598 66.5 17.1326 66.5 17C66.5 16.0717 66.8687 15.1815 67.5251 14.5251C68.1815 13.8687 69.0717 13.5 70 13.5C70.1326 13.5 70.2598 13.5527 70.3536 13.6464C70.4473 13.7402 70.5 13.8674 70.5 14C70.5 14.9283 70.1313 15.8185 69.4749 16.4749C68.8185 17.1313 67.9283 17.5 67 17.5ZM66.5 23C66.5 23.1326 66.4473 23.2598 66.3536 23.3536C66.2598 23.4473 66.1326 23.5 66 23.5H62C61.8674 23.5 61.7402 23.4473 61.6464 23.3536C61.5527 23.2598 61.5 23.1326 61.5 23C61.5 22.8674 61.5527 22.7402 61.6464 22.6464C61.7402 22.5527 61.8674 22.5 62 22.5H66C66.1326 22.5 66.2598 22.5527 66.3536 22.6464C66.4473 22.7402 66.5 22.8674 66.5 23Z" fill="currentColor"/>
<path d="M112 2.25C108.885 2.25364 105.898 3.49275 103.696 5.69551C101.493 7.89828 100.254 10.8848 100.25 14C100.25 16.95 101.801 20.775 104.401 24.2288C106.409 26.8975 109.46 29.75 112 29.75C114.54 29.75 117.591 26.8975 119.599 24.2288C122.199 20.775 123.75 16.95 123.75 14C123.746 10.8848 122.507 7.89828 120.304 5.69551C118.102 3.49275 115.115 2.25364 112 2.25ZM118.401 23.3275C116.185 26.2712 113.614 28.25 112 28.25C110.386 28.25 107.815 26.2712 105.599 23.3275C103.225 20.1712 101.75 16.5975 101.75 14C101.75 11.2815 102.83 8.6744 104.752 6.75216C106.674 4.82991 109.282 3.75 112 3.75C114.718 3.75 117.326 4.82991 119.248 6.75216C121.17 8.6744 122.25 11.2815 122.25 14C122.25 16.5975 120.775 20.1712 118.401 23.3275ZM110.75 17C110.75 15.7402 110.25 14.532 109.359 13.6412C108.468 12.7504 107.26 12.25 106 12.25C105.536 12.25 105.091 12.4344 104.763 12.7626C104.434 13.0908 104.25 13.5359 104.25 14C104.25 15.2598 104.75 16.468 105.641 17.3588C106.532 18.2496 107.74 18.75 109 18.75C109.23 18.75 109.457 18.7047 109.67 18.6168C109.882 18.5288 110.075 18.3999 110.237 18.2374C110.4 18.0749 110.529 17.882 110.617 17.6697C110.705 17.4574 110.75 17.2298 110.75 17ZM109 17.25C108.138 17.25 107.311 16.9076 106.702 16.2981C106.092 15.6886 105.75 14.862 105.75 14C105.75 13.9337 105.776 13.8701 105.823 13.8232C105.87 13.7763 105.934 13.75 106 13.75C106.427 13.75 106.849 13.8341 107.244 13.9974C107.638 14.1607 107.996 14.4001 108.298 14.7019C108.6 15.0037 108.839 15.362 109.003 15.7563C109.166 16.1506 109.25 16.5732 109.25 17C109.25 17.0663 109.224 17.1299 109.177 17.1768C109.13 17.2237 109.066 17.25 109 17.25ZM118 12.25C116.74 12.25 115.532 12.7504 114.641 13.6412C113.75 14.532 113.25 15.7402 113.25 17C113.25 17.4641 113.434 17.9092 113.763 18.2374C114.091 18.5656 114.536 18.75 115 18.75C116.26 18.75 117.468 18.2496 118.359 17.3588C119.25 16.468 119.75 15.2598 119.75 14C119.75 13.5359 119.566 13.0908 119.237 12.7626C118.909 12.4344 118.464 12.25 118 12.25ZM115 17.25C114.934 17.25 114.87 17.2237 114.823 17.1768C114.776 17.1299 114.75 17.0663 114.75 17C114.75 16.138 115.092 15.3114 115.702 14.7019C116.311 14.0924 117.138 13.75 118 13.75C118.066 13.75 118.13 13.7763 118.177 13.8232C118.224 13.8701 118.25 13.9337 118.25 14C118.25 14.862 117.908 15.6886 117.298 16.2981C116.689 16.9076 115.862 17.25 115 17.25ZM114.75 23C114.75 23.1989 114.671 23.3897 114.53 23.5303C114.39 23.671 114.199 23.75 114 23.75H110C109.801 23.75 109.61 23.671 109.47 23.5303C109.329 23.3897 109.25 23.1989 109.25 23C109.25 22.8011 109.329 22.6103 109.47 22.4697C109.61 22.329 109.801 22.25 110 22.25H114C114.199 22.25 114.39 22.329 114.53 22.4697C114.671 22.6103 114.75 22.8011 114.75 23Z" fill="currentColor"/>
<path d="M160 1.5C156.686 1.50364 153.509 2.82177 151.165 5.16518C148.822 7.5086 147.504 10.6859 147.5 14C147.5 17.1075 149.108 21.1 151.801 24.68C152.829 26.045 156.455 30.5 160 30.5C163.545 30.5 167.171 26.045 168.199 24.68C170.892 21.1 172.5 17.1075 172.5 14C172.496 10.6859 171.178 7.5086 168.835 5.16518C166.491 2.82177 163.314 1.50364 160 1.5ZM165.801 22.875C164.073 25.1725 161.525 27.5 160 27.5C158.475 27.5 155.927 25.1737 154.199 22.875C151.917 19.8438 150.5 16.4425 150.5 14C150.5 11.4804 151.501 9.06408 153.282 7.28249C155.064 5.50089 157.48 4.5 160 4.5C162.52 4.5 164.936 5.50089 166.718 7.28249C168.499 9.06408 169.5 11.4804 169.5 14C169.5 16.4425 168.083 19.8438 165.801 22.875ZM157 18.5C155.807 18.5 154.662 18.0259 153.818 17.182C152.974 16.3381 152.5 15.1935 152.5 14C152.5 13.6022 152.658 13.2206 152.939 12.9393C153.221 12.658 153.602 12.5 154 12.5C155.193 12.5 156.338 12.9741 157.182 13.818C158.026 14.6619 158.5 15.8065 158.5 17C158.5 17.3978 158.342 17.7794 158.061 18.0607C157.779 18.342 157.398 18.5 157 18.5ZM167.5 14C167.5 15.1935 167.026 16.3381 166.182 17.182C165.338 18.0259 164.193 18.5 163 18.5C162.602 18.5 162.221 18.342 161.939 18.0607C161.658 17.7794 161.5 17.3978 161.5 17C161.5 15.8065 161.974 14.6619 162.818 13.818C163.662 12.9741 164.807 12.5 166 12.5C166.398 12.5 166.779 12.658 167.061 12.9393C167.342 13.2206 167.5 13.6022 167.5 14ZM163 23C163 23.3978 162.842 23.7794 162.561 24.0607C162.279 24.342 161.898 24.5 161.5 24.5H158.5C158.102 24.5 157.721 24.342 157.439 24.0607C157.158 23.7794 157 23.3978 157 23C157 22.6022 157.158 22.2206 157.439 21.9393C157.721 21.658 158.102 21.5 158.5 21.5H161.5C161.898 21.5 162.279 21.658 162.561 21.9393C162.842 22.2206 163 22.6022 163 23Z" fill="currentColor"/>
<path d="M208 2C204.819 2.00364 201.768 3.26909 199.519 5.51874C197.269 7.76839 196.004 10.8185 196 14C196 17 197.57 20.8825 200.201 24.375C202.849 27.8937 205.764 30 208 30C210.236 30 213.151 27.8988 215.799 24.375C218.43 20.875 220 17 220 14C219.996 10.8185 218.731 7.76839 216.481 5.51874C214.232 3.26909 211.181 2.00364 208 2ZM200 14.5C200 14.1022 200.158 13.7206 200.439 13.4393C200.721 13.158 201.102 13 201.5 13C202.693 13 203.838 13.4741 204.682 14.318C205.526 15.1619 206 16.3065 206 17.5C206 17.8978 205.842 18.2794 205.561 18.5607C205.279 18.842 204.898 19 204.5 19C203.307 19 202.162 18.5259 201.318 17.682C200.474 16.8381 200 15.6935 200 14.5ZM210 25H206C205.735 25 205.48 24.8946 205.293 24.7071C205.105 24.5196 205 24.2652 205 24C205 23.7348 205.105 23.4804 205.293 23.2929C205.48 23.1054 205.735 23 206 23H210C210.265 23 210.52 23.1054 210.707 23.2929C210.895 23.4804 211 23.7348 211 24C211 24.2652 210.895 24.5196 210.707 24.7071C210.52 24.8946 210.265 25 210 25ZM211.5 19C211.102 19 210.721 18.842 210.439 18.5607C210.158 18.2794 210 17.8978 210 17.5C210 16.3065 210.474 15.1619 211.318 14.318C212.162 13.4741 213.307 13 214.5 13C214.898 13 215.279 13.158 215.561 13.4393C215.842 13.7206 216 14.1022 216 14.5C216 15.0909 215.884 15.6761 215.657 16.2221C215.431 16.768 215.1 17.2641 214.682 17.682C214.264 18.0998 213.768 18.4313 213.222 18.6575C212.676 18.8836 212.091 19 211.5 19Z" fill="currentColor"/>
<path opacity="0.2" d="M256 3C253.083 3 250.285 4.15893 248.222 6.22183C246.159 8.28473 245 11.0826 245 14C245 20.075 252 29 256 29C260 29 267 20.075 267 14C267 11.0826 265.841 8.28473 263.778 6.22183C261.715 4.15893 258.917 3 256 3ZM253 18C251.939 18 250.922 17.5786 250.172 16.8284C249.421 16.0783 249 15.0609 249 14C249 13.7348 249.105 13.4804 249.293 13.2929C249.48 13.1054 249.735 13 250 13C251.061 13 252.078 13.4214 252.828 14.1716C253.579 14.9217 254 15.9391 254 17C254 17.2652 253.895 17.5196 253.707 17.7071C253.52 17.8946 253.265 18 253 18ZM259 18C258.735 18 258.48 17.8946 258.293 17.7071C258.105 17.5196 258 17.2652 258 17C258 15.9391 258.421 14.9217 259.172 14.1716C259.922 13.4214 260.939 13 262 13C262.265 13 262.52 13.1054 262.707 13.2929C262.895 13.4804 263 13.7348 263 14C263 15.0609 262.579 16.0783 261.828 16.8284C261.078 17.5786 260.061 18 259 18Z" fill="currentColor"/>
<path d="M256 2C252.819 2.00364 249.768 3.26909 247.519 5.51874C245.269 7.76839 244.004 10.8185 244 14C244 17 245.57 20.8825 248.201 24.375C250.849 27.8937 253.764 30 256 30C258.236 30 261.151 27.8988 263.799 24.375C266.43 20.875 268 17 268 14C267.996 10.8185 266.731 7.76839 264.481 5.51874C262.232 3.26909 259.181 2.00364 256 2ZM262.201 23.1775C260.03 26.0612 257.539 28 256 28C254.461 28 251.97 26.0612 249.799 23.1775C247.456 20.0625 246 16.5463 246 14C246 11.3478 247.054 8.8043 248.929 6.92893C250.804 5.05357 253.348 4 256 4C258.652 4 261.196 5.05357 263.071 6.92893C264.946 8.8043 266 11.3478 266 14C266 16.5463 264.544 20.0625 262.201 23.1775ZM255 17C255 15.6739 254.473 14.4021 253.536 13.4645C252.598 12.5268 251.326 12 250 12C249.47 12 248.961 12.2107 248.586 12.5858C248.211 12.9609 248 13.4696 248 14C248 15.3261 248.527 16.5979 249.464 17.5355C250.402 18.4732 251.674 19 253 19C253.53 19 254.039 18.7893 254.414 18.4142C254.789 18.0391 255 17.5304 255 17ZM250 14C250.796 14 251.559 14.3161 252.121 14.8787C252.684 15.4413 253 16.2044 253 17C252.204 17 251.441 16.6839 250.879 16.1213C250.316 15.5587 250 14.7956 250 14ZM262 12C260.674 12 259.402 12.5268 258.464 13.4645C257.527 14.4021 257 15.6739 257 17C257 17.5304 257.211 18.0391 257.586 18.4142C257.961 18.7893 258.47 19 259 19C259.657 19 260.307 18.8707 260.913 18.6194C261.52 18.3681 262.071 17.9998 262.536 17.5355C263 17.0712 263.368 16.52 263.619 15.9134C263.871 15.3068 264 14.6566 264 14C264 13.4696 263.789 12.9609 263.414 12.5858C263.039 12.2107 262.53 12 262 12ZM259 17C259 16.2044 259.316 15.4413 259.879 14.8787C260.441 14.3161 261.204 14 262 14C262 14.7956 261.684 15.5587 261.121 16.1213C260.559 16.6839 259.796 17 259 17ZM259 23C259 23.2652 258.895 23.5196 258.707 23.7071C258.52 23.8946 258.265 24 258 24H254C253.735 24 253.48 23.8946 253.293 23.7071C253.105 23.5196 253 23.2652 253 23C253 22.7348 253.105 22.4804 253.293 22.2929C253.48 22.1054 253.735 22 254 22H258C258.265 22 258.52 22.1054 258.707 22.2929C258.895 22.4804 259 22.7348 259 23Z" fill="currentColor"/>
</g>
<defs>
<clipPath id="clip0_17_15598">
<rect width="272" height="32" rx="5" fill="white"/>
</clipPath>
</defs>
</svg>
