<svg width="272" height="32" viewBox="0 0 272 32" fill="none" xmlns="http://www.w3.org/2000/svg">
<g clip-path="url(#clip0_17_15584)">
<path d="M16 3C13.4288 3 10.9154 3.76244 8.77759 5.1909C6.63975 6.61935 4.97351 8.64968 3.98957 11.0251C3.00563 13.4006 2.74819 16.0144 3.2498 18.5362C3.75141 21.0579 4.98953 23.3743 6.80762 25.1924C8.6257 27.0105 10.9421 28.2486 13.4638 28.7502C15.9856 29.2518 18.5995 28.9944 20.9749 28.0104C23.3503 27.0265 25.3807 25.3603 26.8091 23.2224C28.2376 21.0846 29 18.5712 29 16C28.9964 12.5533 27.6256 9.24882 25.1884 6.81163C22.7512 4.37445 19.4467 3.00364 16 3ZM9.01126 24.4888C9.11376 24.3638 9.21626 24.2475 9.31376 24.125C9.39583 24.0223 9.45688 23.9045 9.49342 23.7782C9.52995 23.6519 9.54126 23.5197 9.52669 23.3891C9.51212 23.2584 9.47197 23.1319 9.40852 23.0168C9.34506 22.9017 9.25956 22.8002 9.15688 22.7181C9.0542 22.636 8.93637 22.575 8.81009 22.5385C8.68382 22.5019 8.55159 22.4906 8.42095 22.5052C8.29031 22.5198 8.16382 22.5599 8.0487 22.6234C7.93358 22.6868 7.83208 22.7723 7.75001 22.875L7.58251 23.0775C5.9124 21.0974 4.99634 18.5904 4.99634 16C4.99634 13.4096 5.9124 10.9026 7.58251 8.9225L7.75001 9.125C7.83208 9.22768 7.93358 9.31318 8.0487 9.37664C8.16382 9.44009 8.29031 9.48024 8.42095 9.49481C8.55159 9.50938 8.68382 9.49807 8.81009 9.46154C8.93637 9.425 9.0542 9.36395 9.15688 9.28187C9.25956 9.1998 9.34506 9.0983 9.40852 8.98318C9.47197 8.86806 9.51212 8.74157 9.52669 8.61093C9.54126 8.48029 9.52995 8.34806 9.49342 8.22179C9.45688 8.09551 9.39583 7.97768 9.31376 7.875C9.21626 7.75 9.11376 7.625 9.01126 7.51125C10.9784 5.88782 13.4494 4.99988 16 4.99988C18.5506 4.99988 21.0216 5.88782 22.9888 7.51125C22.8863 7.63625 22.7838 7.75125 22.6863 7.875C22.6042 7.97768 22.5431 8.09551 22.5066 8.22179C22.4701 8.34806 22.4588 8.48029 22.4733 8.61093C22.4879 8.74157 22.528 8.86806 22.5915 8.98318C22.6549 9.0983 22.7405 9.1998 22.8431 9.28187C22.9458 9.36395 23.0636 9.425 23.1899 9.46154C23.3162 9.49807 23.4484 9.50938 23.5791 9.49481C23.7097 9.48024 23.8362 9.44009 23.9513 9.37664C24.0664 9.31318 24.1679 9.22768 24.25 9.125L24.4175 8.9225C26.0876 10.9026 27.0037 13.4096 27.0037 16C27.0037 18.5904 26.0876 21.0974 24.4175 23.0775L24.25 22.875C24.1696 22.7679 24.0684 22.6781 23.9526 22.6108C23.8367 22.5436 23.7085 22.5003 23.5756 22.4835C23.4427 22.4667 23.3078 22.4768 23.1789 22.5132C23.05 22.5496 22.9297 22.6115 22.8252 22.6953C22.7206 22.779 22.634 22.8829 22.5704 23.0008C22.5068 23.1187 22.4675 23.2482 22.4549 23.3815C22.4423 23.5149 22.4566 23.6494 22.497 23.7771C22.5374 23.9048 22.603 24.0231 22.69 24.125C22.7875 24.25 22.89 24.3687 22.9925 24.4888C21.0253 26.1122 18.5543 27.0001 16.0038 27.0001C13.4532 27.0001 10.9822 26.1122 9.01501 24.4888H9.01126ZM11.9863 18.165C11.862 18.9026 11.6747 19.6282 11.4263 20.3337C11.3377 20.5839 11.1535 20.7886 10.914 20.9029C10.6746 21.0172 10.3995 21.0316 10.1494 20.9431C9.89925 20.8546 9.69452 20.6704 9.58024 20.4309C9.46596 20.1914 9.45149 19.9164 9.54001 19.6663C9.75075 19.0707 9.90926 18.458 10.0138 17.835C10.0343 17.7045 10.0806 17.5794 10.1498 17.4669C10.219 17.3544 10.3098 17.2567 10.417 17.1795C10.5242 17.1023 10.6456 17.047 10.7743 17.017C10.9029 16.987 11.0363 16.9828 11.1665 17.0046C11.2968 17.0264 11.4215 17.0738 11.5334 17.144C11.6453 17.2143 11.7421 17.306 11.8183 17.4139C11.8945 17.5218 11.9486 17.6437 11.9774 17.7726C12.0063 17.9016 12.0093 18.0349 11.9863 18.165ZM11.9863 13.835C12.03 14.0966 11.9681 14.3648 11.814 14.5807C11.66 14.7966 11.4266 14.9425 11.165 14.9862C11.1104 14.9951 11.0553 14.9997 11 15C10.7636 14.9997 10.535 14.9157 10.3547 14.7628C10.1743 14.6099 10.054 14.3981 10.015 14.165C9.91051 13.542 9.752 12.9293 9.54126 12.3337C9.45274 12.0836 9.46721 11.8086 9.58149 11.5691C9.69577 11.3296 9.9005 11.1454 10.1506 11.0569C10.4008 10.9684 10.6758 10.9828 10.9153 11.0971C11.1547 11.2114 11.339 11.4161 11.4275 11.6663C11.6755 12.3718 11.8624 13.0974 11.9863 13.835ZM21.85 20.9425C21.6 21.031 21.3252 21.0165 21.0858 20.9024C20.8465 20.7882 20.6623 20.5837 20.5738 20.3337C20.3253 19.6282 20.138 18.9026 20.0138 18.165C19.9908 18.0349 19.9937 17.9016 20.0226 17.7726C20.0514 17.6437 20.1055 17.5218 20.1817 17.4139C20.2579 17.306 20.3548 17.2143 20.4666 17.144C20.5785 17.0738 20.7032 17.0264 20.8335 17.0046C20.9638 16.9828 21.0971 16.987 21.2257 17.017C21.3544 17.047 21.4758 17.1023 21.583 17.1795C21.6902 17.2567 21.781 17.3544 21.8502 17.4669C21.9194 17.5794 21.9657 17.7045 21.9863 17.835C22.0907 18.458 22.2493 19.0707 22.46 19.6663C22.5038 19.7901 22.5227 19.9214 22.5158 20.0525C22.5088 20.1837 22.4761 20.3122 22.4194 20.4308C22.3628 20.5493 22.2833 20.6555 22.1856 20.7433C22.0879 20.8311 21.9739 20.8988 21.85 20.9425ZM20.0138 13.835C20.138 13.0974 20.3253 12.3718 20.5738 11.6663C20.6623 11.4161 20.8465 11.2114 21.086 11.0971C21.3254 10.9828 21.6005 10.9684 21.8506 11.0569C22.1008 11.1454 22.3055 11.3296 22.4198 11.5691C22.534 11.8086 22.5485 12.0836 22.46 12.3337C22.2493 12.9293 22.0907 13.542 21.9863 14.165C21.9472 14.3984 21.8267 14.6103 21.6461 14.7632C21.4655 14.9161 21.2366 15 21 15C20.9443 14.9998 20.8887 14.9952 20.8338 14.9862C20.5724 14.9422 20.3393 14.7962 20.1855 14.5803C20.0318 14.3645 19.97 14.0964 20.0138 13.835Z" fill="currentColor"/>
<path d="M64 3.5C61.5277 3.5 59.111 4.23311 57.0554 5.60663C54.9998 6.98015 53.3976 8.93238 52.4515 11.2165C51.5054 13.5005 51.2579 16.0139 51.7402 18.4386C52.2225 20.8634 53.413 23.0907 55.1612 24.8388C56.9093 26.587 59.1366 27.7775 61.5614 28.2598C63.9861 28.7421 66.4995 28.4946 68.7835 27.5485C71.0676 26.6024 73.0199 25.0002 74.3934 22.9446C75.7669 20.889 76.5 18.4723 76.5 16C76.4964 12.6859 75.1782 9.5086 72.8348 7.16518C70.4914 4.82177 67.3141 3.50364 64 3.5ZM72.4138 23.83C72.22 23.6225 72.0325 23.4075 71.8563 23.1875C71.7719 23.0887 71.6524 23.0266 71.5231 23.0144C71.3938 23.0022 71.2647 23.0408 71.1634 23.122C71.062 23.2032 70.9962 23.3207 70.9799 23.4496C70.9637 23.5785 70.9982 23.7086 71.0763 23.8125C71.2738 24.0625 71.4838 24.3 71.7013 24.5325C69.5909 26.4423 66.8462 27.4998 64 27.4998C61.1538 27.4998 58.4091 26.4423 56.2988 24.5325C56.5163 24.3 56.7263 24.06 56.9238 23.8125C57.0018 23.7086 57.0363 23.5785 57.0201 23.4496C57.0038 23.3207 56.938 23.2032 56.8366 23.122C56.7353 23.0408 56.6063 23.0022 56.4769 23.0144C56.3476 23.0266 56.2281 23.0887 56.1438 23.1875C55.9675 23.4075 55.78 23.6225 55.5863 23.83C53.6031 21.705 52.5002 18.9066 52.5002 16C52.5002 13.0934 53.6031 10.295 55.5863 8.17C55.78 8.3775 55.9675 8.5925 56.1438 8.8125C56.2281 8.91129 56.3476 8.97337 56.4769 8.9856C56.6063 8.99782 56.7353 8.95924 56.8366 8.87801C56.938 8.79678 57.0038 8.67928 57.0201 8.5504C57.0363 8.42151 57.0018 8.29136 56.9238 8.1875C56.7263 7.9375 56.5163 7.7 56.2988 7.4675C58.4091 5.55774 61.1538 4.50021 64 4.50021C66.8462 4.50021 69.5909 5.55774 71.7013 7.4675C71.4838 7.7 71.2738 7.94 71.0763 8.1875C71.0328 8.23843 70.9999 8.29758 70.9798 8.36144C70.9596 8.4253 70.9524 8.49257 70.9587 8.55924C70.965 8.62592 70.9847 8.69065 71.0165 8.7496C71.0483 8.80854 71.0916 8.86049 71.1438 8.90237C71.1961 8.94425 71.2563 8.97521 71.3207 8.99339C71.3852 9.01158 71.4526 9.01663 71.5191 9.00825C71.5855 8.99987 71.6496 8.97822 71.7075 8.9446C71.7655 8.91097 71.816 8.86605 71.8563 8.8125C72.0325 8.5925 72.22 8.3775 72.4138 8.17C74.3969 10.295 75.4998 13.0934 75.4998 16C75.4998 18.9066 74.3969 21.705 72.4138 23.83ZM59.4925 18.08C59.3745 18.7889 59.1946 19.4862 58.955 20.1637C58.921 20.262 58.8572 20.3471 58.7725 20.4074C58.6878 20.4676 58.5864 20.5 58.4825 20.5C58.4258 20.5002 58.3696 20.4905 58.3163 20.4713C58.1913 20.4271 58.089 20.3351 58.0318 20.2156C57.9746 20.0961 57.9672 19.9587 58.0113 19.8337C58.2327 19.2106 58.4 18.5694 58.5113 17.9175C58.5388 17.7923 58.6134 17.6824 58.7197 17.6106C58.8259 17.5388 58.9557 17.5106 59.0822 17.5318C59.2087 17.553 59.3222 17.6219 59.3992 17.7244C59.4763 17.8269 59.511 17.9551 59.4963 18.0825L59.4925 18.08ZM59.4925 13.915C59.5142 14.0456 59.4832 14.1795 59.4064 14.2873C59.3295 14.3951 59.213 14.468 59.0825 14.49C59.0554 14.4958 59.0277 14.4991 59 14.5C58.8818 14.4998 58.7675 14.4578 58.6773 14.3814C58.5872 14.305 58.527 14.1991 58.5075 14.0825C58.3962 13.4306 58.2289 12.7894 58.0075 12.1663C57.9634 12.0411 57.9708 11.9036 58.0282 11.7839C58.0855 11.6642 58.188 11.5722 58.3131 11.5281C58.4383 11.484 58.5758 11.4915 58.6955 11.5488C58.8152 11.6061 58.9072 11.7086 58.9513 11.8337C59.1921 12.5112 59.3732 13.2085 59.4925 13.9175V13.915ZM69.9925 19.8312C70.0365 19.9562 70.0291 20.0936 69.9719 20.2131C69.9147 20.3327 69.8124 20.4246 69.6875 20.4688C69.6342 20.488 69.5779 20.4977 69.5213 20.4975C69.4176 20.4977 69.3165 20.4657 69.2318 20.4059C69.1472 20.3461 69.0832 20.2615 69.0488 20.1637C68.8092 19.4862 68.6293 18.7889 68.5113 18.08C68.4965 17.9526 68.5312 17.8244 68.6083 17.7219C68.6853 17.6194 68.7988 17.5505 68.9253 17.5293C69.0518 17.5081 69.1816 17.5363 69.2878 17.6081C69.3941 17.6799 69.4687 17.7898 69.4963 17.915C69.605 18.5676 69.7697 19.2095 69.9888 19.8337L69.9925 19.8312ZM69.9925 12.1637C69.7711 12.7869 69.6038 13.4281 69.4925 14.08C69.4735 14.197 69.4136 14.3035 69.3234 14.3804C69.2332 14.4574 69.1186 14.4997 69 14.5C68.9723 14.5 68.9447 14.4975 68.9175 14.4925C68.787 14.4705 68.6705 14.3976 68.5936 14.2898C68.5168 14.182 68.4858 14.0481 68.5075 13.9175C68.6256 13.2086 68.8054 12.5113 69.045 11.8337C69.0891 11.7086 69.1811 11.6061 69.3008 11.5488C69.4204 11.4915 69.558 11.484 69.6831 11.5281C69.8083 11.5722 69.9108 11.6642 69.9681 11.7839C70.0254 11.9036 70.0328 12.0411 69.9888 12.1663L69.9925 12.1637Z" fill="currentColor"/>
<path d="M112 3.25C109.478 3.25 107.013 3.99777 104.916 5.39876C102.82 6.79975 101.186 8.79103 100.221 11.1208C99.2555 13.4505 99.003 16.0141 99.495 18.4874C99.987 20.9607 101.201 23.2325 102.984 25.0156C104.768 26.7987 107.039 28.0131 109.513 28.505C111.986 28.997 114.549 28.7445 116.879 27.7795C119.209 26.8144 121.2 25.1802 122.601 23.0835C124.002 20.9868 124.75 18.5217 124.75 16C124.746 12.6197 123.401 9.379 121.011 6.98877C118.621 4.59854 115.38 3.25397 112 3.25ZM120.414 23.4587C120.289 23.3188 120.164 23.1763 120.051 23.0312C119.925 22.8831 119.745 22.7899 119.551 22.7716C119.357 22.7533 119.164 22.8111 119.012 22.933C118.86 23.0548 118.761 23.2311 118.737 23.4244C118.712 23.6177 118.764 23.813 118.881 23.9688C119.03 24.155 119.185 24.3363 119.345 24.515C117.305 26.2792 114.697 27.2501 112 27.2501C109.303 27.2501 106.695 26.2792 104.655 24.515C104.815 24.3363 104.97 24.155 105.119 23.9688C105.236 23.813 105.288 23.6177 105.263 23.4244C105.239 23.2311 105.14 23.0548 104.988 22.933C104.836 22.8111 104.643 22.7533 104.449 22.7716C104.255 22.7899 104.075 22.8831 103.949 23.0312C103.833 23.1763 103.71 23.3188 103.586 23.4587C101.759 21.4038 100.75 18.7497 100.75 16C100.75 13.2503 101.759 10.5962 103.586 8.54125C103.711 8.68125 103.836 8.82375 103.949 8.96875C104.019 9.05662 104.108 9.12752 104.21 9.17621C104.311 9.2249 104.422 9.25012 104.535 9.25C104.677 9.25086 104.816 9.21156 104.936 9.13667C105.056 9.06177 105.153 8.95434 105.215 8.82681C105.276 8.69928 105.301 8.55687 105.285 8.41607C105.269 8.27528 105.214 8.14185 105.125 8.03125C104.976 7.845 104.821 7.66375 104.661 7.485C106.702 5.72079 109.309 4.74993 112.006 4.74993C114.704 4.74993 117.311 5.72079 119.351 7.485C119.191 7.66375 119.036 7.845 118.888 8.03125C118.822 8.10765 118.773 8.19638 118.743 8.29216C118.712 8.38795 118.702 8.48885 118.711 8.58887C118.721 8.68888 118.75 8.78598 118.798 8.8744C118.846 8.96281 118.91 9.04074 118.989 9.10356C119.067 9.16638 119.158 9.21281 119.254 9.24009C119.351 9.26737 119.452 9.27495 119.552 9.26238C119.651 9.2498 119.748 9.21733 119.834 9.16689C119.921 9.11645 119.997 9.04907 120.058 8.96875C120.174 8.82375 120.296 8.68125 120.42 8.54125C122.247 10.5962 123.256 13.2503 123.256 16C123.256 18.7497 122.247 21.4038 120.42 23.4587H120.414ZM107.74 18.125C107.618 18.8479 107.434 19.5589 107.19 20.25C107.159 20.3451 107.109 20.433 107.044 20.5085C106.978 20.5841 106.898 20.6457 106.808 20.6899C106.719 20.7341 106.621 20.7599 106.521 20.7658C106.421 20.7716 106.321 20.7575 106.227 20.7241C106.133 20.6908 106.046 20.6389 105.972 20.5716C105.898 20.5042 105.838 20.4228 105.796 20.332C105.754 20.2413 105.731 20.143 105.728 20.0431C105.724 19.9431 105.741 19.8435 105.776 19.75C105.991 19.1401 106.153 18.5128 106.26 17.875C106.293 17.6787 106.403 17.5037 106.565 17.3884C106.645 17.3312 106.736 17.2905 106.832 17.2685C106.928 17.2465 107.028 17.2436 107.125 17.26C107.222 17.2764 107.315 17.3118 107.399 17.3642C107.482 17.4165 107.555 17.4848 107.612 17.5651C107.669 17.6455 107.709 17.7362 107.732 17.8323C107.754 17.9284 107.756 18.0278 107.74 18.125ZM107.74 13.875C107.756 13.9722 107.754 14.0717 107.732 14.1678C107.71 14.2638 107.669 14.3546 107.612 14.435C107.555 14.5153 107.482 14.5836 107.399 14.636C107.315 14.6883 107.222 14.7236 107.125 14.74C107.084 14.7464 107.042 14.7498 107 14.75C106.823 14.7498 106.652 14.687 106.516 14.5726C106.381 14.4582 106.291 14.2996 106.261 14.125C106.154 13.4872 105.992 12.8599 105.778 12.25C105.742 12.1565 105.725 12.0569 105.729 11.9569C105.732 11.857 105.756 11.7587 105.798 11.668C105.84 11.5772 105.899 11.4958 105.973 11.4284C106.047 11.3611 106.134 11.3092 106.228 11.2759C106.323 11.2425 106.423 11.2284 106.522 11.2342C106.622 11.2401 106.72 11.2659 106.81 11.3101C106.899 11.3543 106.979 11.4159 107.045 11.4915C107.11 11.567 107.16 11.6549 107.191 11.75C107.435 12.4411 107.619 13.1521 107.74 13.875ZM118.224 19.75C118.259 19.8435 118.276 19.9431 118.272 20.0431C118.269 20.143 118.246 20.2413 118.204 20.332C118.162 20.4228 118.102 20.5042 118.028 20.5716C117.954 20.6389 117.867 20.6908 117.773 20.7241C117.679 20.7575 117.579 20.7716 117.479 20.7658C117.379 20.7599 117.281 20.7341 117.192 20.6899C117.102 20.6457 117.022 20.5841 116.956 20.5085C116.891 20.433 116.841 20.3451 116.81 20.25C116.566 19.5589 116.382 18.8479 116.26 18.125C116.227 17.9287 116.273 17.7273 116.388 17.5651C116.504 17.4029 116.679 17.2932 116.875 17.26C117.071 17.2268 117.273 17.273 117.435 17.3884C117.597 17.5037 117.707 17.6787 117.74 17.875C117.847 18.5128 118.009 19.1401 118.224 19.75ZM118.224 12.25C118.009 12.8599 117.847 13.4872 117.74 14.125C117.71 14.2996 117.62 14.4582 117.485 14.5726C117.35 14.687 117.178 14.7498 117.001 14.75C116.959 14.7498 116.918 14.7464 116.876 14.74C116.779 14.7238 116.686 14.6886 116.602 14.6364C116.519 14.5842 116.446 14.516 116.389 14.4358C116.332 14.3556 116.291 14.2649 116.269 14.1689C116.247 14.0729 116.244 13.9734 116.26 13.8763C116.382 13.1533 116.566 12.4424 116.81 11.7513C116.841 11.6562 116.891 11.5683 116.956 11.4927C117.022 11.4172 117.102 11.3555 117.192 11.3113C117.281 11.2671 117.379 11.2414 117.479 11.2355C117.579 11.2296 117.679 11.2438 117.773 11.2771C117.867 11.3104 117.954 11.3623 118.028 11.4297C118.102 11.497 118.162 11.5785 118.204 11.6692C118.246 11.76 118.269 11.8582 118.272 11.9582C118.276 12.0582 118.259 12.1578 118.224 12.2513V12.25Z" fill="currentColor"/>
<path d="M160 2.5C157.33 2.5 154.72 3.29176 152.5 4.77516C150.28 6.25856 148.549 8.36697 147.528 10.8338C146.506 13.3006 146.239 16.015 146.759 18.6337C147.28 21.2525 148.566 23.6579 150.454 25.5459C152.342 27.434 154.748 28.7197 157.366 29.2406C159.985 29.7615 162.699 29.4942 165.166 28.4724C167.633 27.4506 169.741 25.7203 171.225 23.5002C172.708 21.2801 173.5 18.67 173.5 16C173.496 12.4208 172.072 8.98932 169.542 6.45844C167.011 3.92756 163.579 2.50397 160 2.5ZM153.625 24.3325C154.017 23.8306 154.374 23.3018 154.693 22.75C154.799 22.5792 154.869 22.3889 154.901 22.1902C154.932 21.9916 154.923 21.7887 154.874 21.5936C154.825 21.3986 154.737 21.2153 154.616 21.0547C154.495 20.8942 154.343 20.7596 154.169 20.659C153.995 20.5584 153.802 20.4939 153.603 20.4692C153.403 20.4445 153.201 20.4602 153.007 20.5153C152.814 20.5704 152.634 20.6639 152.477 20.7901C152.321 20.9163 152.191 21.0727 152.096 21.25C151.913 21.5631 151.714 21.8664 151.5 22.1588C150.198 20.3693 149.496 18.2131 149.496 16C149.496 13.7869 150.198 11.6307 151.5 9.84125C151.714 10.1336 151.913 10.4369 152.096 10.75C152.191 10.9273 152.321 11.0837 152.477 11.2099C152.634 11.3361 152.814 11.4296 153.007 11.4847C153.201 11.5398 153.403 11.5555 153.603 11.5308C153.802 11.5061 153.995 11.4416 154.169 11.341C154.343 11.2404 154.495 11.1058 154.616 10.9453C154.737 10.7847 154.825 10.6014 154.874 10.4064C154.923 10.2113 154.932 10.0084 154.901 9.80977C154.869 9.61112 154.799 9.42075 154.693 9.25C154.374 8.69817 154.017 8.16937 153.625 7.6675C155.454 6.262 157.697 5.50006 160.004 5.50006C162.311 5.50006 164.553 6.262 166.383 7.6675C165.988 8.16914 165.628 8.69794 165.308 9.25C165.201 9.42075 165.131 9.61112 165.099 9.80977C165.068 10.0084 165.077 10.2113 165.126 10.4064C165.175 10.6014 165.263 10.7847 165.384 10.9453C165.505 11.1058 165.657 11.2404 165.831 11.341C166.005 11.4416 166.198 11.5061 166.397 11.5308C166.597 11.5555 166.799 11.5398 166.993 11.4847C167.186 11.4296 167.366 11.3361 167.523 11.2099C167.679 11.0837 167.809 10.9273 167.904 10.75C168.087 10.4369 168.286 10.1336 168.5 9.84125C169.802 11.6307 170.504 13.7869 170.504 16C170.504 18.2131 169.802 20.3693 168.5 22.1588C168.287 21.8659 168.089 21.5622 167.908 21.2488C167.813 21.0715 167.683 20.9151 167.527 20.7889C167.37 20.6626 167.19 20.5692 166.996 20.5141C166.803 20.4589 166.6 20.4432 166.401 20.4679C166.201 20.4926 166.009 20.5572 165.835 20.6578C165.661 20.7584 165.508 20.8929 165.387 21.0535C165.266 21.2141 165.179 21.3973 165.13 21.5924C165.081 21.7874 165.072 21.9903 165.103 22.189C165.134 22.3876 165.205 22.578 165.311 22.7488C165.628 23.3009 165.984 23.8301 166.375 24.3325C164.546 25.738 162.303 26.4999 159.996 26.4999C157.689 26.4999 155.447 25.738 153.618 24.3325H153.625ZM156.4 14.315C156.468 14.8741 156.501 15.4368 156.5 16C156.5 16.5633 156.465 17.126 156.396 17.685C156.351 18.0478 156.175 18.3817 155.901 18.6238C155.627 18.866 155.274 18.9997 154.909 19C154.846 18.9999 154.783 18.9962 154.721 18.9888C154.327 18.9394 153.968 18.7354 153.723 18.4215C153.479 18.1077 153.37 17.7097 153.419 17.315C153.473 16.8787 153.5 16.4396 153.5 16C153.5 15.5604 153.473 15.1213 153.419 14.685C153.394 14.4895 153.408 14.2911 153.46 14.101C153.512 13.911 153.601 13.733 153.722 13.5774C153.843 13.4217 153.993 13.2914 154.165 13.1938C154.336 13.0963 154.525 13.0334 154.72 13.0087C154.916 12.9841 155.114 12.9983 155.304 13.0503C155.494 13.1024 155.672 13.1914 155.828 13.3122C155.983 13.433 156.114 13.5834 156.211 13.7546C156.309 13.9258 156.372 14.1145 156.396 14.31L156.4 14.315ZM165.283 18.9888C165.22 18.9962 165.158 18.9999 165.095 19C164.729 18.9997 164.376 18.866 164.103 18.6238C163.829 18.3817 163.653 18.0478 163.608 17.685C163.469 16.5643 163.469 15.4307 163.608 14.31C163.632 14.1145 163.695 13.9258 163.793 13.7546C163.89 13.5834 164.02 13.433 164.176 13.3122C164.332 13.1914 164.51 13.1024 164.7 13.0503C164.89 12.9983 165.088 12.9841 165.284 13.0087C165.479 13.0334 165.668 13.0963 165.839 13.1938C166.01 13.2914 166.161 13.4217 166.282 13.5774C166.402 13.733 166.491 13.911 166.543 14.101C166.596 14.2911 166.61 14.4895 166.585 14.685C166.477 15.5567 166.477 16.4383 166.585 17.31C166.61 17.5061 166.596 17.7052 166.544 17.8958C166.492 18.0865 166.402 18.2649 166.281 18.4209C166.16 18.577 166.008 18.7074 165.837 18.8049C165.665 18.9023 165.475 18.9648 165.279 18.9888H165.283Z" fill="currentColor"/>
<path d="M218.169 7.91C218.126 7.85684 218.073 7.81295 218.013 7.78101C217.953 7.74907 217.887 7.72976 217.819 7.72425C217.751 7.71875 217.683 7.72718 217.618 7.74902C217.554 7.77086 217.494 7.80564 217.444 7.85125C217.02 8.23703 216.628 8.65494 216.269 9.10125C216.11 9.30532 215.881 9.44202 215.626 9.48397C215.371 9.52592 215.109 9.47003 214.894 9.3275C214.78 9.24911 214.685 9.14817 214.612 9.031C214.54 8.91382 214.492 8.78294 214.473 8.64656C214.453 8.51019 214.462 8.37126 214.499 8.23849C214.536 8.10572 214.599 7.98196 214.686 7.875C215.082 7.38002 215.514 6.91462 215.977 6.4825C216.031 6.4336 216.073 6.37366 216.101 6.30684C216.129 6.24003 216.142 6.16792 216.14 6.09552C216.137 6.02311 216.119 5.95214 216.086 5.88752C216.053 5.8229 216.007 5.76616 215.95 5.72125C213.675 3.95738 210.878 3.00009 208 3.00009C205.121 3.00009 202.325 3.95738 200.05 5.72125C199.993 5.76616 199.947 5.8229 199.914 5.88752C199.881 5.95214 199.863 6.02311 199.86 6.09552C199.858 6.16792 199.871 6.24003 199.899 6.30684C199.927 6.37366 199.969 6.4336 200.022 6.4825C200.478 6.90707 200.903 7.36364 201.294 7.84875C201.451 8.04054 201.534 8.28318 201.526 8.53136C201.518 8.77955 201.42 9.01633 201.25 9.1975C201.151 9.29954 201.032 9.37934 200.899 9.43157C200.767 9.4838 200.626 9.50727 200.484 9.50041C200.342 9.49355 200.203 9.45652 200.076 9.39178C199.95 9.32705 199.839 9.2361 199.75 9.125C199.385 8.66898 198.984 8.24264 198.551 7.85C198.501 7.80467 198.441 7.77013 198.377 7.74851C198.312 7.72689 198.244 7.71864 198.176 7.72426C198.109 7.72987 198.043 7.74924 197.983 7.78117C197.923 7.81311 197.87 7.85694 197.827 7.91C195.994 10.208 194.996 13.0605 194.996 16C194.996 18.9395 195.994 21.792 197.827 24.09C197.87 24.1432 197.923 24.187 197.983 24.219C198.043 24.2509 198.109 24.2702 198.177 24.2757C198.245 24.2812 198.313 24.2728 198.378 24.251C198.443 24.2291 198.502 24.1944 198.552 24.1487C198.976 23.763 199.369 23.3451 199.727 22.8987C199.886 22.6947 200.116 22.558 200.371 22.516C200.626 22.4741 200.887 22.53 201.102 22.6725C201.216 22.7506 201.312 22.8513 201.385 22.9683C201.458 23.0854 201.506 23.2162 201.525 23.3526C201.545 23.489 201.537 23.628 201.5 23.7609C201.464 23.8938 201.4 24.0178 201.314 24.125C200.918 24.62 200.486 25.0854 200.022 25.5175C199.969 25.5664 199.927 25.6263 199.899 25.6932C199.871 25.76 199.858 25.8321 199.86 25.9045C199.863 25.9769 199.881 26.0479 199.914 26.1125C199.947 26.1771 199.993 26.2338 200.05 26.2787C202.325 28.0426 205.121 28.9999 208 28.9999C210.878 28.9999 213.675 28.0426 215.95 26.2787C216.007 26.2338 216.053 26.1771 216.086 26.1125C216.119 26.0479 216.137 25.9769 216.14 25.9045C216.142 25.8321 216.129 25.76 216.101 25.6932C216.073 25.6263 216.031 25.5664 215.977 25.5175C215.514 25.0854 215.082 24.62 214.686 24.125C214.6 24.0178 214.537 23.8941 214.501 23.7615C214.465 23.6289 214.457 23.4903 214.477 23.3544C214.497 23.2184 214.545 23.088 214.617 22.9714C214.69 22.8547 214.786 22.7542 214.899 22.6762C215.114 22.5337 215.376 22.4778 215.631 22.5198C215.886 22.5617 216.115 22.6984 216.274 22.9025C216.633 23.3488 217.025 23.7667 217.449 24.1525C217.499 24.1981 217.559 24.2329 217.623 24.2547C217.688 24.2766 217.756 24.285 217.824 24.2795C217.892 24.274 217.958 24.2547 218.018 24.2227C218.078 24.1908 218.131 24.1469 218.174 24.0937C220.007 21.7957 221.005 18.9433 221.005 16.0037C221.005 13.0642 220.007 10.2118 218.174 7.91375L218.169 7.91ZM202.214 11.0375C202.464 10.973 202.728 11.0053 202.955 11.128C203.182 11.2506 203.355 11.4545 203.437 11.6987C203.676 12.3814 203.857 13.0825 203.98 13.795C204.01 13.9407 204.008 14.0913 203.973 14.2359C203.938 14.3805 203.871 14.5155 203.777 14.631C203.683 14.7464 203.565 14.8395 203.43 14.9033C203.296 14.9671 203.149 15.0002 203 15C202.748 15.0008 202.505 14.9067 202.32 14.7364C202.135 14.5661 202.02 14.3321 202 14.0812C201.952 13.5262 201.861 12.9675 201.6 12.4762C201.529 12.344 201.488 12.1973 201.481 12.0472C201.474 11.897 201.501 11.7473 201.56 11.609C201.619 11.4708 201.709 11.3476 201.822 11.2486C201.935 11.1497 202.069 11.0775 202.214 11.0375ZM203.98 18.1987C203.856 18.9249 203.671 19.6391 203.426 20.3337C203.379 20.4679 203.303 20.5904 203.205 20.693C203.106 20.7956 202.987 20.876 202.854 20.9287C202.722 20.9815 202.58 21.0055 202.438 20.999C202.296 20.9925 202.157 20.9558 202.03 20.8912C201.811 20.7746 201.643 20.5826 201.555 20.3509C201.467 20.1192 201.466 19.8635 201.552 19.6312C201.757 19.0466 201.911 18.4457 202.014 17.835C202.037 17.6951 202.09 17.5617 202.169 17.4438C202.248 17.3259 202.351 17.226 202.471 17.151C202.591 17.0759 202.726 17.0273 202.867 17.0084C203.007 16.9895 203.15 17.0007 203.286 17.0412C203.523 17.1168 203.724 17.276 203.852 17.4891C203.979 17.7021 204.025 17.9544 203.98 18.1987ZM213.97 20.8912C213.843 20.9558 213.704 20.9925 213.562 20.999C213.42 21.0055 213.278 20.9815 213.146 20.9287C213.013 20.876 212.894 20.7956 212.795 20.693C212.697 20.5904 212.621 20.4679 212.574 20.3337C212.329 19.6391 212.143 18.9249 212.02 18.1987C211.975 17.9545 212.021 17.7023 212.149 17.4893C212.276 17.2763 212.477 17.117 212.714 17.0412C212.85 17.0007 212.993 16.9895 213.133 17.0084C213.274 17.0273 213.409 17.0759 213.529 17.151C213.649 17.226 213.752 17.3259 213.831 17.4438C213.91 17.5617 213.963 17.6951 213.986 17.835C214.089 18.4457 214.243 19.0466 214.447 19.6312C214.534 19.8635 214.533 20.1192 214.445 20.3509C214.357 20.5826 214.189 20.7746 213.97 20.8912ZM214.396 12.4762C214.135 12.9675 214.044 13.5262 213.996 14.0812C213.983 14.2282 213.938 14.3705 213.864 14.498C213.79 14.6254 213.688 14.7349 213.567 14.8185C213.445 14.9022 213.307 14.9579 213.161 14.9817C213.016 15.0055 212.867 14.9968 212.725 14.9562C212.486 14.8834 212.282 14.7254 212.152 14.5123C212.022 14.2992 211.975 14.0458 212.019 13.8C212.141 13.086 212.323 12.3836 212.562 11.7C212.645 11.4553 212.817 11.251 213.044 11.1281C213.271 11.0051 213.536 10.9728 213.786 11.0375C213.931 11.078 214.064 11.1504 214.177 11.2496C214.29 11.3487 214.379 11.4719 214.437 11.6101C214.496 11.7483 214.523 11.8979 214.516 12.0479C214.508 12.1978 214.468 12.3442 214.396 12.4762Z" fill="currentColor"/>
<path opacity="0.2" d="M247.582 7.44749C248.719 8.56296 249.621 9.89396 250.236 11.3625C250.852 12.8311 251.168 14.4077 251.166 16C251.168 17.5923 250.852 19.1689 250.236 20.6375C249.621 22.106 248.719 23.437 247.582 24.5525C246.448 23.4358 245.547 22.1046 244.932 20.6362C244.317 19.1679 244 17.5919 244 16C244 14.4081 244.317 12.8321 244.932 11.3637C245.547 9.89543 246.448 8.56417 247.582 7.44749ZM264.417 7.44749C263.283 8.56417 262.382 9.89543 261.767 11.3637C261.152 12.8321 260.835 14.4081 260.835 16C260.835 17.5919 261.152 19.1679 261.767 20.6362C262.382 22.1046 263.283 23.4358 264.417 24.5525C265.552 23.4358 266.453 22.1046 267.068 20.6362C267.683 19.1679 268 17.5919 268 16C268 14.4081 267.683 12.8321 267.068 11.3637C266.453 9.89543 265.552 8.56417 264.417 7.44749Z" fill="currentColor"/>
<path d="M256 3C253.429 3 250.915 3.76244 248.778 5.1909C246.64 6.61935 244.974 8.64968 243.99 11.0251C243.006 13.4006 242.748 16.0144 243.25 18.5362C243.751 21.0579 244.99 23.3743 246.808 25.1924C248.626 27.0105 250.942 28.2486 253.464 28.7502C255.986 29.2518 258.599 28.9944 260.975 28.0104C263.35 27.0265 265.381 25.3603 266.809 23.2224C268.238 21.0846 269 18.5712 269 16C268.996 12.5533 267.626 9.24882 265.188 6.81163C262.751 4.37445 259.447 3.00364 256 3ZM249.011 24.4888C249.114 24.3638 249.216 24.2475 249.314 24.125C249.396 24.0223 249.457 23.9045 249.493 23.7782C249.53 23.6519 249.541 23.5197 249.527 23.3891C249.512 23.2584 249.472 23.1319 249.409 23.0168C249.345 22.9017 249.26 22.8002 249.157 22.7181C249.054 22.636 248.936 22.575 248.81 22.5385C248.684 22.5019 248.552 22.4906 248.421 22.5052C248.29 22.5198 248.164 22.5599 248.049 22.6234C247.934 22.6868 247.832 22.7723 247.75 22.875L247.583 23.0775C245.912 21.0974 244.996 18.5904 244.996 16C244.996 13.4096 245.912 10.9026 247.583 8.9225L247.75 9.125C247.832 9.22768 247.934 9.31318 248.049 9.37664C248.164 9.44009 248.29 9.48024 248.421 9.49481C248.552 9.50938 248.684 9.49807 248.81 9.46154C248.936 9.425 249.054 9.36395 249.157 9.28187C249.26 9.1998 249.345 9.0983 249.409 8.98318C249.472 8.86806 249.512 8.74157 249.527 8.61093C249.541 8.48029 249.53 8.34806 249.493 8.22179C249.457 8.09551 249.396 7.97768 249.314 7.875C249.216 7.75 249.114 7.625 249.011 7.51125C250.978 5.88782 253.449 4.99988 256 4.99988C258.551 4.99988 261.022 5.88782 262.989 7.51125C262.886 7.63625 262.784 7.75125 262.686 7.875C262.604 7.97768 262.543 8.09551 262.507 8.22179C262.47 8.34806 262.459 8.48029 262.473 8.61093C262.488 8.74157 262.528 8.86806 262.591 8.98318C262.655 9.0983 262.74 9.1998 262.843 9.28187C262.946 9.36395 263.064 9.425 263.19 9.46154C263.316 9.49807 263.448 9.50938 263.579 9.49481C263.71 9.48024 263.836 9.44009 263.951 9.37664C264.066 9.31318 264.168 9.22768 264.25 9.125L264.418 8.9225C266.088 10.9026 267.004 13.4096 267.004 16C267.004 18.5904 266.088 21.0974 264.418 23.0775L264.25 22.875C264.17 22.7679 264.068 22.6781 263.953 22.6108C263.837 22.5436 263.709 22.5003 263.576 22.4835C263.443 22.4667 263.308 22.4768 263.179 22.5132C263.05 22.5496 262.93 22.6115 262.825 22.6953C262.721 22.779 262.634 22.8829 262.57 23.0008C262.507 23.1187 262.468 23.2482 262.455 23.3815C262.442 23.5149 262.457 23.6494 262.497 23.7771C262.537 23.9048 262.603 24.0231 262.69 24.125C262.788 24.25 262.89 24.3687 262.993 24.4888C261.025 26.1122 258.554 27.0001 256.004 27.0001C253.453 27.0001 250.982 26.1122 249.015 24.4888H249.011ZM251.986 18.165C251.862 18.9026 251.675 19.6282 251.426 20.3337C251.338 20.5839 251.153 20.7886 250.914 20.9029C250.675 21.0172 250.4 21.0316 250.149 20.9431C249.899 20.8546 249.695 20.6704 249.58 20.4309C249.466 20.1914 249.451 19.9164 249.54 19.6663C249.751 19.0707 249.909 18.458 250.014 17.835C250.034 17.7045 250.081 17.5794 250.15 17.4669C250.219 17.3544 250.31 17.2567 250.417 17.1795C250.524 17.1023 250.646 17.047 250.774 17.017C250.903 16.987 251.036 16.9828 251.167 17.0046C251.297 17.0264 251.422 17.0738 251.533 17.144C251.645 17.2143 251.742 17.306 251.818 17.4139C251.895 17.5218 251.949 17.6437 251.977 17.7726C252.006 17.9016 252.009 18.0349 251.986 18.165ZM251.986 13.835C252.03 14.0966 251.968 14.3648 251.814 14.5807C251.66 14.7966 251.427 14.9425 251.165 14.9862C251.11 14.9951 251.055 14.9997 251 15C250.764 14.9997 250.535 14.9157 250.355 14.7628C250.174 14.6099 250.054 14.3981 250.015 14.165C249.911 13.542 249.752 12.9293 249.541 12.3337C249.453 12.0836 249.467 11.8086 249.581 11.5691C249.696 11.3296 249.9 11.1454 250.151 11.0569C250.401 10.9684 250.676 10.9828 250.915 11.0971C251.155 11.2114 251.339 11.4161 251.428 11.6663C251.675 12.3718 251.862 13.0974 251.986 13.835ZM261.85 20.9425C261.6 21.031 261.325 21.0165 261.086 20.9024C260.846 20.7882 260.662 20.5837 260.574 20.3337C260.325 19.6282 260.138 18.9026 260.014 18.165C259.991 18.0349 259.994 17.9016 260.023 17.7726C260.051 17.6437 260.105 17.5218 260.182 17.4139C260.258 17.306 260.355 17.2143 260.467 17.144C260.578 17.0738 260.703 17.0264 260.833 17.0046C260.964 16.9828 261.097 16.987 261.226 17.017C261.354 17.047 261.476 17.1023 261.583 17.1795C261.69 17.2567 261.781 17.3544 261.85 17.4669C261.919 17.5794 261.966 17.7045 261.986 17.835C262.091 18.458 262.249 19.0707 262.46 19.6663C262.504 19.7901 262.523 19.9214 262.516 20.0525C262.509 20.1837 262.476 20.3122 262.419 20.4308C262.363 20.5493 262.283 20.6555 262.186 20.7433C262.088 20.8311 261.974 20.8988 261.85 20.9425ZM260.014 13.835C260.138 13.0974 260.325 12.3718 260.574 11.6663C260.662 11.4161 260.847 11.2114 261.086 11.0971C261.325 10.9828 261.6 10.9684 261.851 11.0569C262.101 11.1454 262.305 11.3296 262.42 11.5691C262.534 11.8086 262.549 12.0836 262.46 12.3337C262.249 12.9293 262.091 13.542 261.986 14.165C261.947 14.3984 261.827 14.6103 261.646 14.7632C261.466 14.9161 261.237 15 261 15C260.944 14.9998 260.889 14.9952 260.834 14.9862C260.572 14.9422 260.339 14.7962 260.186 14.5803C260.032 14.3645 259.97 14.0964 260.014 13.835Z" fill="currentColor"/>
</g>
<defs>
<clipPath id="clip0_17_15584">
<rect width="272" height="32" rx="5" fill="white"/>
</clipPath>
</defs>
</svg>
