<svg width="272" height="32" viewBox="0 0 272 32" fill="none" xmlns="http://www.w3.org/2000/svg">
<g clip-path="url(#clip0_17_15542)">
<path d="M23 11C22.9025 11 22.805 11 22.7088 11C23.0199 9.95528 23.0828 8.85232 22.8924 7.77901C22.702 6.70569 22.2635 5.69168 21.6119 4.81776C20.9604 3.94385 20.1137 3.23418 19.1394 2.7453C18.1651 2.25641 17.0901 2.00183 16 2.00183C14.9099 2.00183 13.8349 2.25641 12.8606 2.7453C11.8863 3.23418 11.0397 3.94385 10.3881 4.81776C9.73654 5.69168 9.29808 6.70569 9.10765 7.77901C8.91723 8.85232 8.9801 9.95528 9.29127 11C9.19377 11 9.09752 11 9.00002 11C7.94728 11.0005 6.90822 11.2385 5.96018 11.6961C5.01214 12.1538 4.17954 12.8194 3.52435 13.6434C2.86916 14.4674 2.40827 15.4286 2.17597 16.4554C1.94367 17.4821 1.94595 18.5481 2.18265 19.5739C2.41934 20.5997 2.88435 21.5588 3.54307 22.38C4.20178 23.2012 5.03723 23.8632 5.98722 24.3168C6.93721 24.7705 7.97728 25.0039 9.03001 24.9999C10.0827 24.9959 11.121 24.7546 12.0675 24.2937L11.0425 27.7125C10.9977 27.8618 10.9884 28.0195 11.0154 28.173C11.0424 28.3266 11.1048 28.4717 11.1979 28.5968C11.2909 28.7218 11.4119 28.8234 11.5511 28.8935C11.6904 28.9635 11.8441 29 12 29H20C20.1559 29 20.3096 28.9635 20.4489 28.8935C20.5882 28.8234 20.7091 28.7218 20.8022 28.5968C20.8952 28.4717 20.9577 28.3266 20.9847 28.173C21.0116 28.0195 21.0023 27.8618 20.9575 27.7125L19.9325 24.2937C20.879 24.7546 21.9173 24.9959 22.97 24.9999C24.0228 25.0039 25.0628 24.7705 26.0128 24.3168C26.9628 23.8632 27.7983 23.2012 28.457 22.38C29.1157 21.5588 29.5807 20.5997 29.8174 19.5739C30.0541 18.5481 30.0564 17.4821 29.8241 16.4554C29.5918 15.4286 29.1309 14.4674 28.4757 13.6434C27.8205 12.8194 26.9879 12.1538 26.0399 11.6961C25.0918 11.2385 24.0527 11.0005 23 11ZM23 23C22.1722 22.9999 21.3575 22.7942 20.6288 22.4015C19.9001 22.0088 19.2803 21.4413 18.825 20.75C18.6924 20.5505 18.4926 20.4053 18.262 20.3407C18.0313 20.2761 17.7851 20.2964 17.5682 20.398C17.3513 20.4996 17.178 20.6756 17.0799 20.8942C16.9819 21.1127 16.9655 21.3592 17.0338 21.5887L18.6588 26.9962H13.3463L14.9713 21.5887C15.0438 21.3576 15.03 21.1079 14.9323 20.8862C14.8347 20.6644 14.6598 20.4857 14.4403 20.3831C14.2207 20.2806 13.9714 20.2613 13.7387 20.3288C13.506 20.3963 13.3057 20.5459 13.175 20.75C12.6583 21.5326 11.932 22.154 11.079 22.5435C10.2259 22.9329 9.28056 23.0746 8.35082 22.9524C7.42108 22.8302 6.54445 22.449 5.82102 21.8524C5.0976 21.2557 4.55655 20.4676 4.25965 19.5781C3.96276 18.6886 3.92199 17.7336 4.14199 16.822C4.362 15.9104 4.83392 15.0791 5.50386 14.423C6.17379 13.7668 7.01475 13.3123 7.93069 13.1113C8.84663 12.9103 9.80064 12.9709 10.6838 13.2862C10.8821 13.3572 11.0977 13.3636 11.2999 13.3048C11.5021 13.2459 11.6806 13.1247 11.8099 12.9584C11.9392 12.7922 12.0126 12.5893 12.0198 12.3788C12.027 12.1684 11.9676 11.961 11.85 11.7862C11.3444 11.0338 11.0528 10.158 11.0065 9.25266C10.9603 8.34728 11.161 7.44635 11.5873 6.64627C12.0136 5.84619 12.6494 5.17707 13.4267 4.71049C14.2039 4.24391 15.0935 3.99743 16 3.99743C16.9066 3.99743 17.7961 4.24391 18.5734 4.71049C19.3506 5.17707 19.9864 5.84619 20.4127 6.64627C20.839 7.44635 21.0398 8.34728 20.9935 9.25266C20.9472 10.158 20.6557 11.0338 20.15 11.7862C20.0324 11.961 19.973 12.1684 19.9802 12.3788C19.9874 12.5893 20.0609 12.7922 20.1901 12.9584C20.3194 13.1247 20.4979 13.2459 20.7001 13.3048C20.9023 13.3636 21.118 13.3572 21.3163 13.2862C22.0021 13.0436 22.7327 12.9536 23.4569 13.0225C24.1812 13.0913 24.8817 13.3174 25.5096 13.6849C26.1374 14.0525 26.6775 14.5526 27.0922 15.1504C27.5068 15.7482 27.786 16.4292 27.9102 17.1461C28.0345 17.8629 28.0008 18.5982 27.8116 19.3007C27.6223 20.0032 27.282 20.6559 26.8145 21.2133C26.347 21.7707 25.7634 22.2193 25.1046 22.5279C24.4458 22.8365 23.7275 22.9976 23 23Z" fill="currentColor"/>
<path d="M71 11.5C70.6542 11.5 70.309 11.5272 69.9675 11.5813C70.3945 10.5924 70.569 9.51288 70.4754 8.43983C70.3818 7.36678 70.023 6.33381 69.4313 5.43378C68.8396 4.53376 68.0334 3.79489 67.0854 3.2836C66.1373 2.77231 65.0771 2.50464 64 2.50464C62.9229 2.50464 61.8626 2.77231 60.9146 3.2836C59.9665 3.79489 59.1604 4.53376 58.5687 5.43378C57.977 6.33381 57.6182 7.36678 57.5246 8.43983C57.431 9.51288 57.6055 10.5924 58.0325 11.5813C57.691 11.5272 57.3457 11.5 57 11.5C55.9691 11.5004 54.9531 11.746 54.0359 12.2165C53.1186 12.687 52.3264 13.369 51.7247 14.206C51.123 15.0431 50.729 16.0112 50.5753 17.0306C50.4215 18.0499 50.5124 19.0912 50.8405 20.0685C51.1686 21.0458 51.7244 21.9311 52.462 22.6512C53.1997 23.3713 54.098 23.9056 55.083 24.2101C56.0679 24.5145 57.111 24.5803 58.1264 24.4021C59.1418 24.2239 60.1002 23.8067 60.9225 23.185L59.5212 27.8563C59.4988 27.9309 59.4942 28.0098 59.5077 28.0865C59.5212 28.1633 59.5524 28.2358 59.5989 28.2984C59.6454 28.3609 59.7059 28.4117 59.7755 28.4467C59.8452 28.4817 59.922 28.5 60 28.5H68C68.0779 28.5 68.1548 28.4817 68.2244 28.4467C68.2941 28.4117 68.3545 28.3609 68.4011 28.2984C68.4476 28.2358 68.4788 28.1633 68.4923 28.0865C68.5058 28.0098 68.5011 27.9309 68.4787 27.8563L67.0775 23.185C67.8998 23.8067 68.8582 24.2239 69.8736 24.4021C70.8889 24.5803 71.9321 24.5145 72.917 24.2101C73.9019 23.9056 74.8003 23.3713 75.5379 22.6512C76.2756 21.9311 76.8314 21.0458 77.1595 20.0685C77.4875 19.0912 77.5785 18.0499 77.4247 17.0306C77.271 16.0112 76.877 15.0431 76.2753 14.206C75.6735 13.369 74.8814 12.687 73.9641 12.2165C73.0469 11.746 72.0309 11.5004 71 11.5ZM71 23.5C70.0898 23.5009 69.1937 23.2756 68.3923 22.8442C67.5908 22.4128 66.9092 21.789 66.4087 21.0288C66.3427 20.9283 66.2427 20.8549 66.1269 20.8222C66.0112 20.7895 65.8876 20.7995 65.7787 20.8506C65.6698 20.9016 65.583 20.9902 65.5341 21.1C65.4852 21.2099 65.4775 21.3337 65.5125 21.4488L67.3275 27.5H60.6725L62.4875 21.4488C62.5225 21.3337 62.5148 21.2099 62.4659 21.1C62.417 20.9902 62.3302 20.9016 62.2213 20.8506C62.1124 20.7995 61.9887 20.7895 61.873 20.8222C61.7573 20.8549 61.6573 20.9283 61.5912 21.0288C61.0229 21.8897 60.2239 22.5736 59.2855 23.0021C58.3471 23.4306 57.3071 23.5865 56.2842 23.4521C55.2614 23.3176 54.297 22.8982 53.5012 22.2418C52.7053 21.5853 52.1102 20.7183 51.7837 19.7397C51.4572 18.7611 51.4125 17.7104 51.6547 16.7076C51.897 15.7048 52.4163 14.7903 53.1536 14.0687C53.8908 13.347 54.8161 12.8472 55.8238 12.6264C56.8315 12.4056 57.8811 12.4727 58.8525 12.82C58.9516 12.8552 59.0593 12.8583 59.1603 12.8288C59.2613 12.7993 59.3504 12.7387 59.4149 12.6556C59.4794 12.5725 59.5161 12.4712 59.5197 12.3661C59.5233 12.2609 59.4937 12.1573 59.435 12.07C58.8779 11.2424 58.5564 10.279 58.5048 9.28269C58.4533 8.28642 58.6737 7.2949 59.1424 6.41429C59.6112 5.53367 60.3106 4.79713 61.1658 4.28352C62.0211 3.76992 62.9999 3.49859 63.9975 3.49859C64.9951 3.49859 65.9739 3.76992 66.8291 4.28352C67.6843 4.79713 68.3838 5.53367 68.8525 6.41429C69.3213 7.2949 69.5417 8.28642 69.4901 9.28269C69.4386 10.279 69.1171 11.2424 68.56 12.07C68.5013 12.1573 68.4717 12.2609 68.4753 12.3661C68.4789 12.4712 68.5156 12.5725 68.5801 12.6556C68.6446 12.7387 68.7337 12.7993 68.8347 12.8288C68.9357 12.8583 69.0434 12.8552 69.1425 12.82C69.8972 12.5507 70.7016 12.4495 71.4995 12.5236C72.2973 12.5976 73.0694 12.8451 73.7616 13.2487C74.4538 13.6524 75.0495 14.2024 75.5069 14.8603C75.9643 15.5182 76.2725 16.2681 76.4098 17.0576C76.5471 17.847 76.5102 18.657 76.3018 19.4307C76.0934 20.2044 75.7184 20.9232 75.2031 21.5369C74.6878 22.1505 74.0447 22.6442 73.3186 22.9833C72.5926 23.3224 71.8013 23.4987 71 23.5Z" fill="currentColor"/>
<path d="M119 11.25C118.784 11.25 118.569 11.26 118.355 11.28C118.719 10.2612 118.834 9.16981 118.688 8.0977C118.542 7.02558 118.141 6.00419 117.518 5.11961C116.895 4.23503 116.068 3.51319 115.108 3.01492C114.147 2.51666 113.081 2.25656 111.999 2.25656C110.917 2.25656 109.851 2.51666 108.891 3.01492C107.93 3.51319 107.104 4.23503 106.481 5.11961C105.858 6.00419 105.457 7.02558 105.311 8.0977C105.165 9.16981 105.279 10.2612 105.644 11.28C105.431 11.26 105.216 11.25 105 11.25C103.96 11.2505 102.934 11.4914 102.002 11.954C101.07 12.4166 100.258 13.0882 99.6285 13.9166C98.9992 14.7449 98.5699 15.7075 98.374 16.7291C98.1782 17.7508 98.2211 18.8039 98.4995 19.8063C98.7778 20.8086 99.2841 21.733 99.9788 22.5074C100.673 23.2817 101.538 23.8851 102.504 24.2702C103.47 24.6554 104.513 24.812 105.549 24.7279C106.586 24.6437 107.59 24.321 108.481 23.785L107.281 27.785C107.248 27.897 107.241 28.0153 107.261 28.1304C107.282 28.2455 107.328 28.3543 107.398 28.448C107.468 28.5418 107.559 28.6179 107.663 28.6703C107.768 28.7227 107.883 28.75 108 28.75H116C116.117 28.75 116.232 28.7227 116.337 28.6703C116.441 28.6179 116.532 28.5418 116.602 28.448C116.672 28.3543 116.719 28.2455 116.739 28.1304C116.759 28.0153 116.752 27.897 116.719 27.785L115.519 23.785C116.41 24.321 117.414 24.6437 118.451 24.7279C119.487 24.812 120.53 24.6554 121.496 24.2702C122.462 23.8851 123.327 23.2817 124.021 22.5074C124.716 21.733 125.222 20.8086 125.501 19.8063C125.779 18.8039 125.822 17.7508 125.626 16.7291C125.43 15.7075 125.001 14.7449 124.371 13.9166C123.742 13.0882 122.93 12.4166 121.998 11.954C121.066 11.4914 120.04 11.2505 119 11.25ZM119 23.25C118.131 23.251 117.276 23.0359 116.511 22.6241C115.746 22.2124 115.095 21.6169 114.618 20.8913C114.518 20.7416 114.369 20.6325 114.196 20.5837C114.023 20.535 113.839 20.5497 113.676 20.6253C113.513 20.701 113.383 20.8325 113.309 20.9959C113.235 21.1594 113.222 21.344 113.273 21.5163L114.993 27.25H109.008L110.728 21.52C110.778 21.3478 110.765 21.1631 110.691 20.9997C110.617 20.8362 110.487 20.7047 110.324 20.6291C110.161 20.5535 109.977 20.5387 109.804 20.5875C109.631 20.6363 109.482 20.7454 109.383 20.895C108.84 21.7168 108.077 22.3694 107.181 22.7783C106.286 23.1872 105.293 23.3359 104.317 23.2075C103.34 23.079 102.42 22.6786 101.66 22.0519C100.901 21.4252 100.333 20.5976 100.021 19.6635C99.7095 18.7293 99.6669 17.7264 99.8982 16.7692C100.129 15.8121 100.625 14.9392 101.329 14.2504C102.033 13.5616 102.916 13.0846 103.878 12.8739C104.84 12.6632 105.842 12.7272 106.769 13.0588C106.918 13.112 107.079 13.117 107.231 13.0729C107.383 13.0288 107.517 12.9379 107.614 12.8131C107.711 12.6884 107.766 12.5362 107.771 12.3783C107.777 12.2204 107.732 12.0648 107.644 11.9338C107.113 11.1437 106.807 10.2241 106.758 9.27348C106.71 8.32283 106.92 7.37686 107.368 6.53677C107.816 5.69669 108.483 4.99411 109.299 4.5042C110.115 4.01429 111.049 3.75549 112.001 3.75549C112.953 3.75549 113.887 4.01429 114.703 4.5042C115.519 4.99411 116.187 5.69669 116.635 6.53677C117.082 7.37686 117.293 8.32283 117.244 9.27348C117.196 10.2241 116.89 11.1437 116.359 11.9338C116.271 12.0648 116.226 12.2204 116.231 12.3783C116.237 12.5362 116.292 12.6884 116.389 12.8131C116.486 12.9379 116.62 13.0288 116.772 13.0729C116.923 13.117 117.085 13.112 117.234 13.0588C117.955 12.8 118.724 12.702 119.486 12.7719C120.249 12.8417 120.987 13.0776 121.649 13.463C122.311 13.8484 122.881 14.374 123.318 15.0029C123.755 15.6318 124.05 16.3488 124.18 17.1035C124.311 17.8582 124.275 18.6324 124.075 19.3718C123.875 20.1111 123.516 20.7977 123.022 21.3834C122.528 21.9691 121.912 22.4397 121.218 22.7621C120.523 23.0846 119.766 23.2511 119 23.25Z" fill="currentColor"/>
<path d="M167.349 10.5075C167.571 9.4179 167.548 8.29252 167.282 7.21285C167.015 6.13317 166.512 5.12623 165.809 4.26492C165.106 3.40361 164.22 2.7095 163.215 2.23283C162.21 1.75617 161.112 1.50888 160 1.50888C158.888 1.50888 157.79 1.75617 156.785 2.23283C155.78 2.7095 154.894 3.40361 154.191 4.26492C153.488 5.12623 152.985 6.13317 152.718 7.21285C152.452 8.29252 152.429 9.4179 152.651 10.5075C151.597 10.5586 150.566 10.8315 149.624 11.3086C148.683 11.7856 147.853 12.4559 147.188 13.2758C146.523 14.0956 146.039 15.0465 145.767 16.0663C145.495 17.0861 145.442 18.1517 145.61 19.1937C145.778 20.2356 146.164 21.2303 146.743 22.1127C147.322 22.9952 148.081 23.7455 148.969 24.3147C149.858 24.8838 150.857 25.259 151.901 25.4156C152.945 25.5723 154.01 25.5069 155.026 25.2238L154.526 27.7063C154.483 27.9241 154.488 28.1488 154.542 28.3643C154.596 28.5798 154.697 28.7806 154.838 28.9522C154.979 29.1239 155.157 29.262 155.357 29.3568C155.558 29.4515 155.778 29.5004 156 29.5H164C164.222 29.5 164.441 29.4509 164.642 29.356C164.842 29.2611 165.019 29.1229 165.16 28.9513C165.301 28.7797 165.402 28.579 165.456 28.3637C165.509 28.1484 165.515 27.9239 165.471 27.7063L164.971 25.2238C165.988 25.5069 167.053 25.5723 168.097 25.4156C169.14 25.259 170.139 24.8838 171.028 24.3147C171.917 23.7455 172.675 22.9952 173.254 22.1127C173.833 21.2303 174.219 20.2356 174.388 19.1937C174.556 18.1517 174.502 17.0861 174.23 16.0663C173.958 15.0465 173.474 14.0956 172.81 13.2758C172.145 12.4559 171.315 11.7856 170.373 11.3086C169.432 10.8315 168.4 10.5586 167.346 10.5075H167.349ZM167 22.5C165.847 22.5017 164.738 22.0595 163.902 21.265C163.671 21.0471 163.377 20.9084 163.061 20.8687C162.746 20.829 162.426 20.8905 162.148 21.0443C161.87 21.1981 161.648 21.4362 161.514 21.7244C161.38 22.0125 161.341 22.3357 161.402 22.6475L162.17 26.5H157.83L158.6 22.6475C158.662 22.3357 158.622 22.0125 158.488 21.7244C158.354 21.4362 158.132 21.1981 157.854 21.0443C157.576 20.8905 157.256 20.829 156.941 20.8687C156.626 20.9084 156.331 21.0471 156.1 21.265C155.519 21.8163 154.802 22.2026 154.022 22.3842C153.243 22.5659 152.429 22.5362 151.664 22.2982C150.9 22.0602 150.213 21.6226 149.674 21.0305C149.135 20.4384 148.764 19.7133 148.598 18.9299C148.433 18.1465 148.48 17.3332 148.734 16.5739C148.988 15.8147 149.44 15.1369 150.043 14.6106C150.647 14.0843 151.379 13.7284 152.166 13.5798C152.953 13.4311 153.765 13.4951 154.519 13.765C154.816 13.8716 155.14 13.8814 155.443 13.7932C155.747 13.705 156.015 13.5232 156.209 13.2738C156.403 13.0243 156.513 12.72 156.524 12.4041C156.534 12.0883 156.445 11.7771 156.269 11.515C155.766 10.773 155.498 9.89655 155.5 9C155.5 8.29682 155.665 7.60343 155.981 6.97544C156.298 6.34745 156.757 5.80234 157.322 5.38384C157.887 4.96533 158.542 4.68508 159.235 4.56555C159.928 4.44603 160.639 4.49056 161.312 4.69558C161.985 4.90059 162.6 5.26038 163.108 5.7461C163.617 6.23181 164.004 6.82993 164.24 7.49247C164.476 8.15502 164.553 8.86355 164.465 9.56124C164.377 10.2589 164.127 10.9264 163.735 11.51C163.558 11.7721 163.469 12.0833 163.48 12.3991C163.491 12.715 163.601 13.0193 163.795 13.2688C163.989 13.5182 164.257 13.7 164.56 13.7882C164.864 13.8764 165.187 13.8666 165.485 13.76C166.102 13.5405 166.76 13.4585 167.413 13.5197C168.065 13.581 168.697 13.784 169.263 14.1146C169.828 14.4452 170.315 14.8955 170.689 15.4338C171.063 15.9722 171.314 16.5857 171.426 17.2314C171.538 17.8772 171.508 18.5396 171.337 19.1723C171.166 19.8051 170.859 20.3929 170.438 20.8946C170.016 21.3964 169.49 21.8001 168.896 22.0774C168.303 22.3547 167.655 22.4989 167 22.5Z" fill="currentColor"/>
<path d="M222 18C222 19.2385 221.671 20.4547 221.046 21.5245C220.422 22.5943 219.526 23.4794 218.448 24.0894C217.37 24.6994 216.15 25.0126 214.911 24.9969C213.673 24.9811 212.461 24.6372 211.399 24H210.844L211.958 27.7125C212.002 27.8618 212.012 28.0195 211.985 28.173C211.958 28.3266 211.895 28.4717 211.802 28.5968C211.709 28.7218 211.588 28.8234 211.449 28.8935C211.31 28.9635 211.156 29 211 29H205C204.844 29 204.69 28.9635 204.551 28.8935C204.412 28.8234 204.291 28.7218 204.198 28.5968C204.105 28.4717 204.042 28.3266 204.015 28.173C203.988 28.0195 203.998 27.8618 204.043 27.7125L205.156 24H204.601C203.676 24.5558 202.635 24.8903 201.56 24.9772C200.484 25.0642 199.403 24.9013 198.401 24.5014C197.399 24.1014 196.503 23.4751 195.783 22.6715C195.062 21.8679 194.538 20.9087 194.25 19.8688C193.962 18.8288 193.918 17.7364 194.122 16.6768C194.326 15.6172 194.772 14.6191 195.426 13.7604C196.079 12.9018 196.922 12.2059 197.889 11.727C198.856 11.2481 199.921 10.9993 201 11C201.098 11 201.194 11 201.291 11C200.98 9.95528 200.917 8.85232 201.108 7.77901C201.298 6.70569 201.737 5.69168 202.388 4.81776C203.04 3.94385 203.886 3.23418 204.861 2.7453C205.835 2.25641 206.91 2.00183 208 2.00183C209.09 2.00183 210.165 2.25641 211.139 2.7453C212.114 3.23418 212.96 3.94385 213.612 4.81776C214.264 5.69168 214.702 6.70569 214.892 7.77901C215.083 8.85232 215.02 9.95528 214.709 11C214.805 11 214.903 11 215 11C216.856 11.002 218.635 11.7401 219.948 13.0524C221.26 14.3648 221.998 16.1441 222 18Z" fill="currentColor"/>
<path opacity="0.2" d="M269 18C269 19.2904 268.585 20.5466 267.815 21.5821C267.045 22.6175 265.961 23.3772 264.725 23.7482C263.489 24.1193 262.167 24.082 260.954 23.6418C259.741 23.2017 258.702 22.3822 257.991 21.305L260 28H252L254.009 21.305C253.389 22.2441 252.517 22.9898 251.493 23.4571C250.469 23.9243 249.335 24.0943 248.219 23.9474C247.103 23.8006 246.052 23.343 245.184 22.6268C244.315 21.9107 243.666 20.9648 243.31 19.8973C242.954 18.8298 242.905 17.6836 243.17 16.5897C243.434 15.4959 244.001 14.4984 244.805 13.7111C245.609 12.9239 246.618 12.3787 247.718 12.1378C248.817 11.8969 249.962 11.97 251.021 12.3487C250.414 11.4459 250.064 10.3949 250.008 9.30826C249.952 8.22162 250.193 7.14026 250.704 6.1799C251.216 5.21954 251.979 4.41634 252.912 3.85626C253.844 3.29618 254.912 3.00031 256 3.00031C257.088 3.00031 258.156 3.29618 259.089 3.85626C260.021 4.41634 260.784 5.21954 261.296 6.1799C261.807 7.14026 262.048 8.22162 261.992 9.30826C261.936 10.3949 261.586 11.4459 260.979 12.3487C261.885 12.0247 262.855 11.9232 263.808 12.0527C264.761 12.1823 265.669 12.5391 266.456 13.0931C267.242 13.6472 267.884 14.3822 268.327 15.2361C268.769 16.0901 269 17.038 269 18Z" fill="currentColor"/>
<path d="M263 11C262.903 11 262.805 11 262.709 11C263.02 9.95528 263.083 8.85232 262.892 7.77901C262.702 6.70569 262.263 5.69168 261.612 4.81776C260.96 3.94385 260.114 3.23418 259.139 2.7453C258.165 2.25641 257.09 2.00183 256 2.00183C254.91 2.00183 253.835 2.25641 252.861 2.7453C251.886 3.23418 251.04 3.94385 250.388 4.81776C249.737 5.69168 249.298 6.70569 249.108 7.77901C248.917 8.85232 248.98 9.95528 249.291 11C249.194 11 249.098 11 249 11C247.947 11.0005 246.908 11.2385 245.96 11.6961C245.012 12.1538 244.18 12.8194 243.524 13.6434C242.869 14.4674 242.408 15.4286 242.176 16.4554C241.944 17.4821 241.946 18.5481 242.183 19.5739C242.419 20.5997 242.884 21.5588 243.543 22.38C244.202 23.2012 245.037 23.8632 245.987 24.3168C246.937 24.7705 247.977 25.0039 249.03 24.9999C250.083 24.9959 251.121 24.7546 252.068 24.2937L251.043 27.7125C250.998 27.8618 250.988 28.0195 251.015 28.173C251.042 28.3266 251.105 28.4717 251.198 28.5968C251.291 28.7218 251.412 28.8234 251.551 28.8935C251.69 28.9635 251.844 29 252 29H260C260.156 29 260.31 28.9635 260.449 28.8935C260.588 28.8234 260.709 28.7218 260.802 28.5968C260.895 28.4717 260.958 28.3266 260.985 28.173C261.012 28.0195 261.002 27.8618 260.958 27.7125L259.933 24.2937C260.879 24.7546 261.917 24.9959 262.97 24.9999C264.023 25.0039 265.063 24.7705 266.013 24.3168C266.963 23.8632 267.798 23.2012 268.457 22.38C269.116 21.5588 269.581 20.5997 269.817 19.5739C270.054 18.5481 270.056 17.4821 269.824 16.4554C269.592 15.4286 269.131 14.4674 268.476 13.6434C267.82 12.8194 266.988 12.1538 266.04 11.6961C265.092 11.2385 264.053 11.0005 263 11ZM263 23C262.172 22.9999 261.357 22.7942 260.629 22.4015C259.9 22.0088 259.28 21.4413 258.825 20.75C258.692 20.5505 258.493 20.4053 258.262 20.3407C258.031 20.2761 257.785 20.2964 257.568 20.398C257.351 20.4996 257.178 20.6756 257.08 20.8942C256.982 21.1127 256.965 21.3592 257.034 21.5887L258.659 26.9962H253.346L254.971 21.5887C255.044 21.3576 255.03 21.1079 254.932 20.8862C254.835 20.6644 254.66 20.4857 254.44 20.3831C254.221 20.2806 253.971 20.2613 253.739 20.3288C253.506 20.3963 253.306 20.5459 253.175 20.75C252.658 21.5326 251.932 22.154 251.079 22.5435C250.226 22.9329 249.281 23.0746 248.351 22.9524C247.421 22.8302 246.544 22.449 245.821 21.8524C245.098 21.2557 244.557 20.4676 244.26 19.5781C243.963 18.6886 243.922 17.7336 244.142 16.822C244.362 15.9104 244.834 15.0791 245.504 14.423C246.174 13.7668 247.015 13.3123 247.931 13.1113C248.847 12.9103 249.801 12.9709 250.684 13.2862C250.882 13.3572 251.098 13.3636 251.3 13.3048C251.502 13.2459 251.681 13.1247 251.81 12.9584C251.939 12.7922 252.013 12.5893 252.02 12.3788C252.027 12.1684 251.968 11.961 251.85 11.7862C251.344 11.0338 251.053 10.158 251.007 9.25266C250.96 8.34728 251.161 7.44635 251.587 6.64627C252.014 5.84619 252.649 5.17707 253.427 4.71049C254.204 4.24391 255.093 3.99743 256 3.99743C256.907 3.99743 257.796 4.24391 258.573 4.71049C259.351 5.17707 259.986 5.84619 260.413 6.64627C260.839 7.44635 261.04 8.34728 260.993 9.25266C260.947 10.158 260.656 11.0338 260.15 11.7862C260.032 11.961 259.973 12.1684 259.98 12.3788C259.987 12.5893 260.061 12.7922 260.19 12.9584C260.319 13.1247 260.498 13.2459 260.7 13.3048C260.902 13.3636 261.118 13.3572 261.316 13.2862C262.002 13.0436 262.733 12.9536 263.457 13.0225C264.181 13.0913 264.882 13.3174 265.51 13.6849C266.137 14.0525 266.678 14.5526 267.092 15.1504C267.507 15.7482 267.786 16.4292 267.91 17.1461C268.034 17.8629 268.001 18.5982 267.812 19.3007C267.622 20.0032 267.282 20.6559 266.814 21.2133C266.347 21.7707 265.763 22.2193 265.105 22.5279C264.446 22.8365 263.728 22.9976 263 23Z" fill="currentColor"/>
</g>
<defs>
<clipPath id="clip0_17_15542">
<rect width="272" height="32" rx="5" fill="white"/>
</clipPath>
</defs>
</svg>
