<svg width="272" height="32" viewBox="0 0 272 32" fill="none" xmlns="http://www.w3.org/2000/svg">
<g clip-path="url(#clip0_17_15500)">
<path d="M30.48 9.52377C30.2544 9.32708 29.9754 9.20187 29.6785 9.16403C29.3817 9.1262 29.0802 9.17745 28.8125 9.31127L22.5362 12.4363L17.2962 3.73252C17.1615 3.50918 16.9714 3.32443 16.7443 3.19618C16.5172 3.06794 16.2608 3.00055 16 3.00055C15.7392 3.00055 15.4828 3.06794 15.2557 3.19618C15.0286 3.32443 14.8384 3.50918 14.7037 3.73252L9.46375 12.44L3.19 9.31502C2.92292 9.18238 2.62262 9.13158 2.32678 9.16899C2.03094 9.2064 1.75274 9.33035 1.52709 9.52529C1.30143 9.72024 1.13839 9.97748 1.0584 10.2648C0.978416 10.552 0.985058 10.8565 1.07749 11.14L5.70249 25.31C5.749 25.4524 5.82688 25.5825 5.93039 25.6907C6.0339 25.7989 6.16039 25.8825 6.30054 25.9353C6.44068 25.9881 6.59089 26.0087 6.74008 25.9957C6.88927 25.9827 7.03363 25.9363 7.16249 25.86C7.19374 25.8413 10.39 24 16 24C21.61 24 24.8062 25.8413 24.835 25.8588C24.9639 25.9358 25.1085 25.9828 25.2581 25.9963C25.4076 26.0098 25.5583 25.9894 25.6989 25.9367C25.8396 25.884 25.9665 25.8003 26.0703 25.6918C26.1742 25.5833 26.2522 25.4528 26.2987 25.31L30.9237 11.1438C31.0188 10.8602 31.0274 10.5547 30.9484 10.2662C30.8694 9.97777 30.7063 9.71931 30.48 9.52377ZM24.75 23.6038C23.25 22.9675 20.26 22 16 22C11.74 22 8.74999 22.9675 7.24999 23.6038L3.33874 11.625L8.97249 14.4338C9.3135 14.6019 9.70513 14.6363 10.0702 14.5301C10.4353 14.4239 10.7474 14.1849 10.945 13.86L16 5.45752L21.055 13.8575C21.2526 14.182 21.5644 14.4209 21.9292 14.5271C22.294 14.6332 22.6854 14.5991 23.0262 14.4313L28.6612 11.625L24.75 23.6038Z" fill="currentColor"/>
<path d="M78.1512 9.90123C78.0005 9.76953 77.8139 9.68566 77.6154 9.66028C77.4168 9.63491 77.2152 9.66918 77.0362 9.75873L70.3575 13.0887C70.355 13.0908 70.3519 13.0919 70.3487 13.0919C70.3455 13.0919 70.3424 13.0908 70.34 13.0887L64.875 3.99123C64.7848 3.84136 64.6575 3.71736 64.5052 3.63127C64.353 3.54518 64.1811 3.49994 64.0062 3.49994C63.8313 3.49994 63.6594 3.54518 63.5072 3.63127C63.355 3.71736 63.2276 3.84136 63.1375 3.99123L57.66 13.0825C57.6574 13.0849 57.6541 13.0862 57.6506 13.0862C57.6471 13.0862 57.6438 13.0849 57.6412 13.0825L50.9662 9.75998C50.7872 9.67041 50.5856 9.63594 50.3869 9.66091C50.1883 9.68589 50.0015 9.76919 49.8502 9.9003C49.6989 10.0314 49.5898 10.2044 49.5368 10.3975C49.4839 10.5906 49.4893 10.795 49.5525 10.985L54.1775 25.155C54.2007 25.2263 54.2396 25.2916 54.2915 25.3458C54.3433 25.4001 54.4067 25.4419 54.4769 25.4683C54.5472 25.4948 54.6225 25.505 54.6972 25.4984C54.7719 25.4917 54.8442 25.4684 54.9087 25.43C54.94 25.41 58.2287 23.5 64 23.5C69.7712 23.5 73.0587 25.41 73.0912 25.4287C73.1556 25.4671 73.2278 25.4906 73.3025 25.4973C73.3772 25.504 73.4524 25.4939 73.5226 25.4676C73.5928 25.4413 73.6562 25.3995 73.7081 25.3454C73.76 25.2913 73.7991 25.2262 73.8225 25.155L78.4475 10.985C78.5113 10.7953 78.5172 10.591 78.4644 10.398C78.4117 10.205 78.3026 10.032 78.1512 9.90123ZM73.0537 24.2862C72.4117 23.9872 71.7502 23.732 71.0737 23.5225C69.5925 23.0562 67.1625 22.5 64 22.5C60.8375 22.5 58.4075 23.0562 56.925 23.5225C56.2486 23.7325 55.5871 23.9876 54.945 24.2862L50.5 10.665C50.5014 10.6619 50.5037 10.6593 50.5066 10.6576C50.5095 10.6558 50.5128 10.6549 50.5162 10.655L57.1912 13.9825C57.4195 14.0955 57.6819 14.1188 57.9265 14.0478C58.1712 13.9767 58.3802 13.8165 58.5125 13.5987L63.985 4.50623C63.986 4.50412 63.9876 4.50234 63.9896 4.50109C63.9916 4.49984 63.9939 4.49918 63.9962 4.49918C63.9986 4.49918 64.0009 4.49984 64.0028 4.50109C64.0048 4.50234 64.0064 4.50412 64.0075 4.50623L69.48 13.5987C69.6121 13.8162 69.8209 13.9763 70.0652 14.0475C70.3095 14.1188 70.5716 14.096 70.8 13.9837L77.4875 10.6512C77.4914 10.6527 77.4946 10.6555 77.4964 10.6592C77.4983 10.663 77.4987 10.6673 77.4975 10.6712L73.0537 24.2862Z" fill="currentColor"/>
<path d="M126.315 9.71252C126.127 9.5485 125.895 9.44406 125.647 9.41246C125.4 9.38086 125.148 9.42351 124.925 9.53502L118.441 12.7675L113.083 3.86127C112.97 3.67466 112.811 3.52028 112.622 3.41312C112.432 3.30595 112.218 3.24963 112 3.24963C111.782 3.24963 111.568 3.30595 111.378 3.41312C111.189 3.52028 111.03 3.67466 110.918 3.86127L105.559 12.7675L99.0775 9.53627C98.8544 9.42486 98.6033 9.38204 98.3558 9.41321C98.1084 9.44438 97.8757 9.54815 97.6871 9.71142C97.4986 9.87469 97.3626 10.0901 97.2964 10.3306C97.2302 10.5711 97.2367 10.8257 97.315 11.0625L101.94 25.2325C101.975 25.3395 102.033 25.4372 102.111 25.5185C102.189 25.5998 102.284 25.6626 102.389 25.7022C102.494 25.7418 102.607 25.7572 102.719 25.7473C102.831 25.7374 102.94 25.7025 103.036 25.645C103.045 25.645 103.856 25.165 105.361 24.6975C106.75 24.265 109.026 23.75 112 23.75C114.974 23.75 117.25 24.265 118.64 24.6975C120.14 25.165 120.956 25.64 120.963 25.6438C121.059 25.7015 121.168 25.7367 121.28 25.7468C121.392 25.7569 121.505 25.7416 121.61 25.7021C121.716 25.6626 121.811 25.5999 121.889 25.5186C121.967 25.4373 122.025 25.3395 122.06 25.2325L126.685 11.065C126.766 10.8284 126.774 10.5731 126.708 10.332C126.642 10.0909 126.505 9.87512 126.315 9.71252ZM120.904 23.9413C119.529 23.3263 116.479 22.25 112 22.25C107.521 22.25 104.471 23.3263 103.096 23.9413L98.915 11.1313L105.084 14.2063C105.369 14.3466 105.696 14.3753 106 14.2867C106.305 14.1981 106.566 13.9986 106.731 13.7275L112 4.97752L117.269 13.7338C117.434 14.0046 117.694 14.2038 117.999 14.2924C118.304 14.381 118.63 14.3525 118.915 14.2125L125.085 11.1363L120.904 23.9413Z" fill="currentColor"/>
<path d="M174.807 9.14622C174.508 8.8837 174.137 8.71657 173.742 8.66624C173.347 8.61591 172.946 8.68468 172.59 8.86372L166.727 11.7862L161.727 3.47497C161.548 3.17759 161.295 2.93157 160.993 2.76078C160.691 2.58999 160.35 2.50024 160.002 2.50024C159.655 2.50024 159.314 2.58999 159.012 2.76078C158.71 2.93157 158.457 3.17759 158.277 3.47497L153.277 11.7862L147.414 8.86497C147.058 8.68744 146.658 8.61906 146.264 8.66844C145.87 8.71782 145.499 8.88275 145.199 9.14245C144.898 9.40216 144.681 9.74502 144.575 10.1278C144.469 10.5107 144.478 10.9163 144.602 11.2937L149.227 25.4625C149.297 25.6759 149.414 25.871 149.569 26.0334C149.724 26.1957 149.914 26.3212 150.124 26.4005C150.334 26.4798 150.559 26.5109 150.783 26.4916C151.006 26.4722 151.223 26.4029 151.416 26.2887C151.446 26.2712 154.549 24.5 160 24.5C165.451 24.5 168.554 26.2737 168.577 26.2875C168.771 26.4031 168.988 26.4738 169.212 26.4941C169.437 26.5144 169.663 26.484 169.874 26.405C170.085 26.3259 170.275 26.2004 170.431 26.0377C170.587 25.8749 170.704 25.6792 170.774 25.465L175.399 11.3037C175.526 10.9261 175.538 10.519 175.433 10.1346C175.328 9.75016 175.11 9.40599 174.807 9.14622ZM168.441 22.94C166.772 22.3 163.9 21.5 160 21.5C156.1 21.5 153.227 22.3025 151.559 22.9425L148.184 12.6037L152.75 14.875C153.204 15.0989 153.725 15.1447 154.211 15.0033C154.697 14.862 155.112 14.5437 155.375 14.1112L160 6.42497L164.625 14.1125C164.888 14.5449 165.303 14.8632 165.789 15.0043C166.275 15.1455 166.796 15.0993 167.25 14.875L171.815 12.6L168.441 22.94Z" fill="currentColor"/>
<path d="M222.921 11.1438L218.296 25.31C218.25 25.4528 218.172 25.5833 218.068 25.6918C217.964 25.8003 217.837 25.884 217.696 25.9367C217.556 25.9894 217.405 26.0098 217.256 25.9963C217.106 25.9828 216.961 25.9358 216.832 25.8588C216.804 25.8413 213.607 24 207.997 24C202.387 24 199.191 25.8413 199.16 25.86C199.031 25.9363 198.887 25.9827 198.738 25.9957C198.588 26.0087 198.438 25.9881 198.298 25.9353C198.158 25.8825 198.031 25.7989 197.928 25.6907C197.824 25.5825 197.746 25.4524 197.7 25.31L193.077 11.14C192.984 10.8564 192.977 10.5515 193.057 10.2638C193.137 9.97604 193.3 9.71831 193.525 9.52298C193.751 9.32765 194.03 9.20345 194.326 9.166C194.622 9.12855 194.923 9.17953 195.19 9.31252L201.464 12.4375L206.704 3.73002C206.838 3.50668 207.029 3.32193 207.256 3.19368C207.483 3.06544 207.739 2.99805 208 2.99805C208.261 2.99805 208.517 3.06544 208.744 3.19368C208.971 3.32193 209.162 3.50668 209.296 3.73002L214.536 12.4375L220.812 9.31252C221.08 9.17933 221.381 9.12843 221.678 9.16623C221.974 9.20404 222.253 9.32886 222.479 9.52493C222.704 9.721 222.867 9.97953 222.945 10.2679C223.024 10.5562 223.016 10.8615 222.921 11.145V11.1438Z" fill="currentColor"/>
<path opacity="0.2" d="M269.972 10.8275L265.347 25C265.347 25 262 23 256 23C250 23 246.652 25 246.652 25L242.027 10.8287C241.994 10.7324 241.99 10.6282 242.017 10.5297C242.043 10.4312 242.098 10.3427 242.175 10.2756C242.251 10.2085 242.346 10.1658 242.448 10.153C242.549 10.1402 242.651 10.1579 242.742 10.2037L249.419 13.5312C249.534 13.589 249.668 13.6011 249.792 13.5649C249.916 13.5288 250.022 13.4471 250.089 13.3362L255.56 4.24999C255.606 4.17528 255.67 4.11359 255.747 4.07081C255.823 4.02802 255.91 4.00555 255.997 4.00555C256.085 4.00555 256.171 4.02802 256.248 4.07081C256.325 4.11359 256.389 4.17528 256.435 4.24999L261.906 13.3425C261.973 13.4528 262.079 13.5341 262.203 13.5702C262.326 13.6063 262.459 13.5946 262.575 13.5375L269.254 10.2075C269.344 10.1612 269.447 10.1429 269.548 10.1551C269.649 10.1673 269.744 10.2093 269.822 10.2759C269.899 10.3424 269.954 10.4304 269.981 10.5287C270.008 10.6269 270.005 10.7309 269.972 10.8275Z" fill="currentColor"/>
<path d="M270.48 9.52377C270.254 9.32708 269.975 9.20187 269.679 9.16403C269.382 9.1262 269.08 9.17745 268.812 9.31127L262.536 12.4363L257.296 3.73252C257.162 3.50918 256.971 3.32443 256.744 3.19618C256.517 3.06794 256.261 3.00055 256 3.00055C255.739 3.00055 255.483 3.06794 255.256 3.19618C255.029 3.32443 254.838 3.50918 254.704 3.73252L249.464 12.44L243.19 9.31502C242.923 9.18238 242.623 9.13158 242.327 9.16899C242.031 9.2064 241.753 9.33035 241.527 9.52529C241.301 9.72024 241.138 9.97748 241.058 10.2648C240.978 10.552 240.985 10.8565 241.077 11.14L245.702 25.31C245.749 25.4524 245.827 25.5825 245.93 25.6907C246.034 25.7989 246.16 25.8825 246.301 25.9353C246.441 25.9881 246.591 26.0087 246.74 25.9957C246.889 25.9827 247.034 25.9363 247.162 25.86C247.194 25.8413 250.39 24 256 24C261.61 24 264.806 25.8413 264.835 25.8588C264.964 25.9358 265.109 25.9828 265.258 25.9963C265.408 26.0098 265.558 25.9894 265.699 25.9367C265.84 25.884 265.966 25.8003 266.07 25.6918C266.174 25.5833 266.252 25.4528 266.299 25.31L270.924 11.1438C271.019 10.8602 271.027 10.5547 270.948 10.2662C270.869 9.97777 270.706 9.71931 270.48 9.52377ZM264.75 23.6038C263.25 22.9675 260.26 22 256 22C251.74 22 248.75 22.9675 247.25 23.6038L243.339 11.625L248.972 14.4338C249.314 14.6019 249.705 14.6363 250.07 14.5301C250.435 14.4239 250.747 14.1849 250.945 13.86L256 5.45752L261.055 13.8575C261.253 14.182 261.564 14.4209 261.929 14.5271C262.294 14.6332 262.685 14.5991 263.026 14.4313L268.661 11.625L264.75 23.6038Z" fill="currentColor"/>
</g>
<defs>
<clipPath id="clip0_17_15500">
<rect width="272" height="32" rx="5" fill="white"/>
</clipPath>
</defs>
</svg>
