<svg width="272" height="32" viewBox="0 0 272 32" fill="none" xmlns="http://www.w3.org/2000/svg">
<g clip-path="url(#clip0_17_15416)">
<path d="M24 4H8C6.93913 4 5.92172 4.42143 5.17157 5.17157C4.42143 5.92172 4 6.93913 4 8V24C4 25.0609 4.42143 26.0783 5.17157 26.8284C5.92172 27.5786 6.93913 28 8 28H24C25.0609 28 26.0783 27.5786 26.8284 26.8284C27.5786 26.0783 28 25.0609 28 24V8C28 6.93913 27.5786 5.92172 26.8284 5.17157C26.0783 4.42143 25.0609 4 24 4ZM26 24C26 24.5304 25.7893 25.0391 25.4142 25.4142C25.0391 25.7893 24.5304 26 24 26H8C7.46957 26 6.96086 25.7893 6.58579 25.4142C6.21071 25.0391 6 24.5304 6 24V8C6 7.46957 6.21071 6.96086 6.58579 6.58579C6.96086 6.21071 7.46957 6 8 6H24C24.5304 6 25.0391 6.21071 25.4142 6.58579C25.7893 6.96086 26 7.46957 26 8V24ZM13 10.5C13 10.7967 12.912 11.0867 12.7472 11.3334C12.5824 11.58 12.3481 11.7723 12.074 11.8858C11.7999 11.9994 11.4983 12.0291 11.2074 11.9712C10.9164 11.9133 10.6491 11.7704 10.4393 11.5607C10.2296 11.3509 10.0867 11.0836 10.0288 10.7926C9.97094 10.5017 10.0006 10.2001 10.1142 9.92597C10.2277 9.65189 10.42 9.41762 10.6666 9.2528C10.9133 9.08797 11.2033 9 11.5 9C11.8978 9 12.2794 9.15804 12.5607 9.43934C12.842 9.72064 13 10.1022 13 10.5ZM22 10.5C22 10.7967 21.912 11.0867 21.7472 11.3334C21.5824 11.58 21.3481 11.7723 21.074 11.8858C20.7999 11.9994 20.4983 12.0291 20.2074 11.9712C19.9164 11.9133 19.6491 11.7704 19.4393 11.5607C19.2296 11.3509 19.0867 11.0836 19.0288 10.7926C18.9709 10.5017 19.0007 10.2001 19.1142 9.92597C19.2277 9.65189 19.42 9.41762 19.6666 9.2528C19.9133 9.08797 20.2033 9 20.5 9C20.8978 9 21.2794 9.15804 21.5607 9.43934C21.842 9.72064 22 10.1022 22 10.5ZM13 16C13 16.2967 12.912 16.5867 12.7472 16.8334C12.5824 17.08 12.3481 17.2723 12.074 17.3858C11.7999 17.4993 11.4983 17.5291 11.2074 17.4712C10.9164 17.4133 10.6491 17.2704 10.4393 17.0607C10.2296 16.8509 10.0867 16.5836 10.0288 16.2926C9.97094 16.0017 10.0006 15.7001 10.1142 15.426C10.2277 15.1519 10.42 14.9176 10.6666 14.7528C10.9133 14.588 11.2033 14.5 11.5 14.5C11.8978 14.5 12.2794 14.658 12.5607 14.9393C12.842 15.2206 13 15.6022 13 16ZM22 16C22 16.2967 21.912 16.5867 21.7472 16.8334C21.5824 17.08 21.3481 17.2723 21.074 17.3858C20.7999 17.4993 20.4983 17.5291 20.2074 17.4712C19.9164 17.4133 19.6491 17.2704 19.4393 17.0607C19.2296 16.8509 19.0867 16.5836 19.0288 16.2926C18.9709 16.0017 19.0007 15.7001 19.1142 15.426C19.2277 15.1519 19.42 14.9176 19.6666 14.7528C19.9133 14.588 20.2033 14.5 20.5 14.5C20.8978 14.5 21.2794 14.658 21.5607 14.9393C21.842 15.2206 22 15.6022 22 16ZM13 21.5C13 21.7967 12.912 22.0867 12.7472 22.3334C12.5824 22.58 12.3481 22.7723 12.074 22.8858C11.7999 22.9993 11.4983 23.0291 11.2074 22.9712C10.9164 22.9133 10.6491 22.7704 10.4393 22.5607C10.2296 22.3509 10.0867 22.0836 10.0288 21.7926C9.97094 21.5017 10.0006 21.2001 10.1142 20.926C10.2277 20.6519 10.42 20.4176 10.6666 20.2528C10.9133 20.088 11.2033 20 11.5 20C11.8978 20 12.2794 20.158 12.5607 20.4393C12.842 20.7206 13 21.1022 13 21.5ZM22 21.5C22 21.7967 21.912 22.0867 21.7472 22.3334C21.5824 22.58 21.3481 22.7723 21.074 22.8858C20.7999 22.9993 20.4983 23.0291 20.2074 22.9712C19.9164 22.9133 19.6491 22.7704 19.4393 22.5607C19.2296 22.3509 19.0867 22.0836 19.0288 21.7926C18.9709 21.5017 19.0007 21.2001 19.1142 20.926C19.2277 20.6519 19.42 20.4176 19.6666 20.2528C19.9133 20.088 20.2033 20 20.5 20C20.8978 20 21.2794 20.158 21.5607 20.4393C21.842 20.7206 22 21.1022 22 21.5Z" fill="currentColor"/>
<path d="M72 4.5H56C55.0717 4.5 54.1815 4.86875 53.5251 5.52513C52.8687 6.1815 52.5 7.07174 52.5 8V24C52.5 24.9283 52.8687 25.8185 53.5251 26.4749C54.1815 27.1313 55.0717 27.5 56 27.5H72C72.9283 27.5 73.8185 27.1313 74.4749 26.4749C75.1313 25.8185 75.5 24.9283 75.5 24V8C75.5 7.07174 75.1313 6.1815 74.4749 5.52513C73.8185 4.86875 72.9283 4.5 72 4.5ZM74.5 24C74.5 24.663 74.2366 25.2989 73.7678 25.7678C73.2989 26.2366 72.663 26.5 72 26.5H56C55.337 26.5 54.7011 26.2366 54.2322 25.7678C53.7634 25.2989 53.5 24.663 53.5 24V8C53.5 7.33696 53.7634 6.70107 54.2322 6.23223C54.7011 5.76339 55.337 5.5 56 5.5H72C72.663 5.5 73.2989 5.76339 73.7678 6.23223C74.2366 6.70107 74.5 7.33696 74.5 8V24ZM60.5 10.5C60.5 10.6978 60.4414 10.8911 60.3315 11.0556C60.2216 11.22 60.0654 11.3482 59.8827 11.4239C59.7 11.4996 59.4989 11.5194 59.3049 11.4808C59.1109 11.4422 58.9327 11.347 58.7929 11.2071C58.653 11.0673 58.5578 10.8891 58.5192 10.6951C58.4806 10.5011 58.5004 10.3 58.5761 10.1173C58.6518 9.93459 58.78 9.77841 58.9444 9.66853C59.1089 9.55865 59.3022 9.5 59.5 9.5C59.7652 9.5 60.0196 9.60536 60.2071 9.79289C60.3946 9.98043 60.5 10.2348 60.5 10.5ZM69.5 10.5C69.5 10.6978 69.4414 10.8911 69.3315 11.0556C69.2216 11.22 69.0654 11.3482 68.8827 11.4239C68.7 11.4996 68.4989 11.5194 68.3049 11.4808C68.1109 11.4422 67.9327 11.347 67.7929 11.2071C67.653 11.0673 67.5578 10.8891 67.5192 10.6951C67.4806 10.5011 67.5004 10.3 67.5761 10.1173C67.6518 9.93459 67.78 9.77841 67.9444 9.66853C68.1089 9.55865 68.3022 9.5 68.5 9.5C68.7652 9.5 69.0196 9.60536 69.2071 9.79289C69.3946 9.98043 69.5 10.2348 69.5 10.5ZM60.5 16C60.5 16.1978 60.4414 16.3911 60.3315 16.5556C60.2216 16.72 60.0654 16.8482 59.8827 16.9239C59.7 16.9996 59.4989 17.0194 59.3049 16.9808C59.1109 16.9422 58.9327 16.847 58.7929 16.7071C58.653 16.5673 58.5578 16.3891 58.5192 16.1951C58.4806 16.0011 58.5004 15.8 58.5761 15.6173C58.6518 15.4346 58.78 15.2784 58.9444 15.1685C59.1089 15.0586 59.3022 15 59.5 15C59.7652 15 60.0196 15.1054 60.2071 15.2929C60.3946 15.4804 60.5 15.7348 60.5 16ZM69.5 16C69.5 16.1978 69.4414 16.3911 69.3315 16.5556C69.2216 16.72 69.0654 16.8482 68.8827 16.9239C68.7 16.9996 68.4989 17.0194 68.3049 16.9808C68.1109 16.9422 67.9327 16.847 67.7929 16.7071C67.653 16.5673 67.5578 16.3891 67.5192 16.1951C67.4806 16.0011 67.5004 15.8 67.5761 15.6173C67.6518 15.4346 67.78 15.2784 67.9444 15.1685C68.1089 15.0586 68.3022 15 68.5 15C68.7652 15 69.0196 15.1054 69.2071 15.2929C69.3946 15.4804 69.5 15.7348 69.5 16ZM60.5 21.5C60.5 21.6978 60.4414 21.8911 60.3315 22.0556C60.2216 22.22 60.0654 22.3482 59.8827 22.4239C59.7 22.4996 59.4989 22.5194 59.3049 22.4808C59.1109 22.4422 58.9327 22.347 58.7929 22.2071C58.653 22.0673 58.5578 21.8891 58.5192 21.6951C58.4806 21.5011 58.5004 21.3 58.5761 21.1173C58.6518 20.9346 58.78 20.7784 58.9444 20.6685C59.1089 20.5586 59.3022 20.5 59.5 20.5C59.7652 20.5 60.0196 20.6054 60.2071 20.7929C60.3946 20.9804 60.5 21.2348 60.5 21.5ZM69.5 21.5C69.5 21.6978 69.4414 21.8911 69.3315 22.0556C69.2216 22.22 69.0654 22.3482 68.8827 22.4239C68.7 22.4996 68.4989 22.5194 68.3049 22.4808C68.1109 22.4422 67.9327 22.347 67.7929 22.2071C67.653 22.0673 67.5578 21.8891 67.5192 21.6951C67.4806 21.5011 67.5004 21.3 67.5761 21.1173C67.6518 20.9346 67.78 20.7784 67.9444 20.6685C68.1089 20.5586 68.3022 20.5 68.5 20.5C68.7652 20.5 69.0196 20.6054 69.2071 20.7929C69.3946 20.9804 69.5 21.2348 69.5 21.5Z" fill="currentColor"/>
<path d="M120 4.25H104C103.005 4.25 102.052 4.64509 101.348 5.34835C100.645 6.05161 100.25 7.00544 100.25 8V24C100.25 24.9946 100.645 25.9484 101.348 26.6517C102.052 27.3549 103.005 27.75 104 27.75H120C120.995 27.75 121.948 27.3549 122.652 26.6517C123.355 25.9484 123.75 24.9946 123.75 24V8C123.75 7.00544 123.355 6.05161 122.652 5.34835C121.948 4.64509 120.995 4.25 120 4.25ZM122.25 24C122.25 24.5967 122.013 25.169 121.591 25.591C121.169 26.0129 120.597 26.25 120 26.25H104C103.403 26.25 102.831 26.0129 102.409 25.591C101.987 25.169 101.75 24.5967 101.75 24V8C101.75 7.40326 101.987 6.83097 102.409 6.40901C102.831 5.98705 103.403 5.75 104 5.75H120C120.597 5.75 121.169 5.98705 121.591 6.40901C122.013 6.83097 122.25 7.40326 122.25 8V24ZM108.75 10.5C108.75 10.7472 108.677 10.9889 108.539 11.1945C108.402 11.4 108.207 11.5602 107.978 11.6548C107.75 11.7495 107.499 11.7742 107.256 11.726C107.014 11.6778 106.791 11.5587 106.616 11.3839C106.441 11.2091 106.322 10.9863 106.274 10.7439C106.226 10.5014 106.251 10.2501 106.345 10.0216C106.44 9.79324 106.6 9.59801 106.806 9.46066C107.011 9.32331 107.253 9.25 107.5 9.25C107.832 9.25 108.149 9.3817 108.384 9.61612C108.618 9.85054 108.75 10.1685 108.75 10.5ZM117.75 10.5C117.75 10.7472 117.677 10.9889 117.539 11.1945C117.402 11.4 117.207 11.5602 116.978 11.6548C116.75 11.7495 116.499 11.7742 116.256 11.726C116.014 11.6778 115.791 11.5587 115.616 11.3839C115.441 11.2091 115.322 10.9863 115.274 10.7439C115.226 10.5014 115.251 10.2501 115.345 10.0216C115.44 9.79324 115.6 9.59801 115.806 9.46066C116.011 9.32331 116.253 9.25 116.5 9.25C116.832 9.25 117.149 9.3817 117.384 9.61612C117.618 9.85054 117.75 10.1685 117.75 10.5ZM108.75 16C108.75 16.2472 108.677 16.4889 108.539 16.6945C108.402 16.9 108.207 17.0602 107.978 17.1549C107.75 17.2495 107.499 17.2742 107.256 17.226C107.014 17.1777 106.791 17.0587 106.616 16.8839C106.441 16.7091 106.322 16.4863 106.274 16.2439C106.226 16.0014 106.251 15.7501 106.345 15.5216C106.44 15.2932 106.6 15.098 106.806 14.9607C107.011 14.8233 107.253 14.75 107.5 14.75C107.832 14.75 108.149 14.8817 108.384 15.1161C108.618 15.3505 108.75 15.6685 108.75 16ZM117.75 16C117.75 16.2472 117.677 16.4889 117.539 16.6945C117.402 16.9 117.207 17.0602 116.978 17.1549C116.75 17.2495 116.499 17.2742 116.256 17.226C116.014 17.1777 115.791 17.0587 115.616 16.8839C115.441 16.7091 115.322 16.4863 115.274 16.2439C115.226 16.0014 115.251 15.7501 115.345 15.5216C115.44 15.2932 115.6 15.098 115.806 14.9607C116.011 14.8233 116.253 14.75 116.5 14.75C116.832 14.75 117.149 14.8817 117.384 15.1161C117.618 15.3505 117.75 15.6685 117.75 16ZM108.75 21.5C108.75 21.7472 108.677 21.9889 108.539 22.1945C108.402 22.4 108.207 22.5602 107.978 22.6549C107.75 22.7495 107.499 22.7742 107.256 22.726C107.014 22.6777 106.791 22.5587 106.616 22.3839C106.441 22.2091 106.322 21.9863 106.274 21.7439C106.226 21.5014 106.251 21.2501 106.345 21.0216C106.44 20.7932 106.6 20.598 106.806 20.4607C107.011 20.3233 107.253 20.25 107.5 20.25C107.832 20.25 108.149 20.3817 108.384 20.6161C108.618 20.8505 108.75 21.1685 108.75 21.5ZM117.75 21.5C117.75 21.7472 117.677 21.9889 117.539 22.1945C117.402 22.4 117.207 22.5602 116.978 22.6549C116.75 22.7495 116.499 22.7742 116.256 22.726C116.014 22.6777 115.791 22.5587 115.616 22.3839C115.441 22.2091 115.322 21.9863 115.274 21.7439C115.226 21.5014 115.251 21.2501 115.345 21.0216C115.44 20.7932 115.6 20.598 115.806 20.4607C116.011 20.3233 116.253 20.25 116.5 20.25C116.832 20.25 117.149 20.3817 117.384 20.6161C117.618 20.8505 117.75 21.1685 117.75 21.5Z" fill="currentColor"/>
<path d="M168 3.5H152C150.807 3.5 149.662 3.97411 148.818 4.81802C147.974 5.66193 147.5 6.80653 147.5 8V24C147.5 25.1935 147.974 26.3381 148.818 27.182C149.662 28.0259 150.807 28.5 152 28.5H168C169.193 28.5 170.338 28.0259 171.182 27.182C172.026 26.3381 172.5 25.1935 172.5 24V8C172.5 6.80653 172.026 5.66193 171.182 4.81802C170.338 3.97411 169.193 3.5 168 3.5ZM169.5 24C169.5 24.3978 169.342 24.7794 169.061 25.0607C168.779 25.342 168.398 25.5 168 25.5H152C151.602 25.5 151.221 25.342 150.939 25.0607C150.658 24.7794 150.5 24.3978 150.5 24V8C150.5 7.60218 150.658 7.22064 150.939 6.93934C151.221 6.65804 151.602 6.5 152 6.5H168C168.398 6.5 168.779 6.65804 169.061 6.93934C169.342 7.22064 169.5 7.60218 169.5 8V24ZM158 10.5C158 10.8956 157.883 11.2822 157.663 11.6111C157.443 11.94 157.131 12.1964 156.765 12.3478C156.4 12.4991 155.998 12.5387 155.61 12.4616C155.222 12.3844 154.865 12.1939 154.586 11.9142C154.306 11.6345 154.116 11.2781 154.038 10.8902C153.961 10.5022 154.001 10.1001 154.152 9.73463C154.304 9.36918 154.56 9.05682 154.889 8.83706C155.218 8.6173 155.604 8.5 156 8.5C156.53 8.5 157.039 8.71071 157.414 9.08579C157.789 9.46086 158 9.96957 158 10.5ZM166 10.5C166 10.8956 165.883 11.2822 165.663 11.6111C165.443 11.94 165.131 12.1964 164.765 12.3478C164.4 12.4991 163.998 12.5387 163.61 12.4616C163.222 12.3844 162.865 12.1939 162.586 11.9142C162.306 11.6345 162.116 11.2781 162.038 10.8902C161.961 10.5022 162.001 10.1001 162.152 9.73463C162.304 9.36918 162.56 9.05682 162.889 8.83706C163.218 8.6173 163.604 8.5 164 8.5C164.53 8.5 165.039 8.71071 165.414 9.08579C165.789 9.46086 166 9.96957 166 10.5ZM158 16C158 16.3956 157.883 16.7822 157.663 17.1111C157.443 17.44 157.131 17.6964 156.765 17.8478C156.4 17.9991 155.998 18.0387 155.61 17.9616C155.222 17.8844 154.865 17.6939 154.586 17.4142C154.306 17.1345 154.116 16.7781 154.038 16.3902C153.961 16.0022 154.001 15.6001 154.152 15.2346C154.304 14.8692 154.56 14.5568 154.889 14.3371C155.218 14.1173 155.604 14 156 14C156.53 14 157.039 14.2107 157.414 14.5858C157.789 14.9609 158 15.4696 158 16ZM166 16C166 16.3956 165.883 16.7822 165.663 17.1111C165.443 17.44 165.131 17.6964 164.765 17.8478C164.4 17.9991 163.998 18.0387 163.61 17.9616C163.222 17.8844 162.865 17.6939 162.586 17.4142C162.306 17.1345 162.116 16.7781 162.038 16.3902C161.961 16.0022 162.001 15.6001 162.152 15.2346C162.304 14.8692 162.56 14.5568 162.889 14.3371C163.218 14.1173 163.604 14 164 14C164.53 14 165.039 14.2107 165.414 14.5858C165.789 14.9609 166 15.4696 166 16ZM158 21.5C158 21.8956 157.883 22.2822 157.663 22.6111C157.443 22.94 157.131 23.1964 156.765 23.3478C156.4 23.4991 155.998 23.5387 155.61 23.4616C155.222 23.3844 154.865 23.1939 154.586 22.9142C154.306 22.6345 154.116 22.2781 154.038 21.8902C153.961 21.5022 154.001 21.1001 154.152 20.7346C154.304 20.3692 154.56 20.0568 154.889 19.8371C155.218 19.6173 155.604 19.5 156 19.5C156.53 19.5 157.039 19.7107 157.414 20.0858C157.789 20.4609 158 20.9696 158 21.5ZM166 21.5C166 21.8956 165.883 22.2822 165.663 22.6111C165.443 22.94 165.131 23.1964 164.765 23.3478C164.4 23.4991 163.998 23.5387 163.61 23.4616C163.222 23.3844 162.865 23.1939 162.586 22.9142C162.306 22.6345 162.116 22.2781 162.038 21.8902C161.961 21.5022 162.001 21.1001 162.152 20.7346C162.304 20.3692 162.56 20.0568 162.889 19.8371C163.218 19.6173 163.604 19.5 164 19.5C164.53 19.5 165.039 19.7107 165.414 20.0858C165.789 20.4609 166 20.9696 166 21.5Z" fill="currentColor"/>
<path d="M216 4H200C198.939 4 197.922 4.42143 197.172 5.17157C196.421 5.92172 196 6.93913 196 8V24C196 25.0609 196.421 26.0783 197.172 26.8284C197.922 27.5786 198.939 28 200 28H216C217.061 28 218.078 27.5786 218.828 26.8284C219.579 26.0783 220 25.0609 220 24V8C220 6.93913 219.579 5.92172 218.828 5.17157C218.078 4.42143 217.061 4 216 4ZM203.5 23C203.203 23 202.913 22.912 202.667 22.7472C202.42 22.5824 202.228 22.3481 202.114 22.074C202.001 21.7999 201.971 21.4983 202.029 21.2074C202.087 20.9164 202.23 20.6491 202.439 20.4393C202.649 20.2296 202.916 20.0867 203.207 20.0288C203.498 19.9709 203.8 20.0007 204.074 20.1142C204.348 20.2277 204.582 20.42 204.747 20.6666C204.912 20.9133 205 21.2033 205 21.5C205 21.8978 204.842 22.2794 204.561 22.5607C204.279 22.842 203.898 23 203.5 23ZM203.5 17.5C203.203 17.5 202.913 17.412 202.667 17.2472C202.42 17.0824 202.228 16.8481 202.114 16.574C202.001 16.2999 201.971 15.9983 202.029 15.7074C202.087 15.4164 202.23 15.1491 202.439 14.9393C202.649 14.7296 202.916 14.5867 203.207 14.5288C203.498 14.4709 203.8 14.5006 204.074 14.6142C204.348 14.7277 204.582 14.92 204.747 15.1666C204.912 15.4133 205 15.7033 205 16C205 16.3978 204.842 16.7794 204.561 17.0607C204.279 17.342 203.898 17.5 203.5 17.5ZM203.5 12C203.203 12 202.913 11.912 202.667 11.7472C202.42 11.5824 202.228 11.3481 202.114 11.074C202.001 10.7999 201.971 10.4983 202.029 10.2074C202.087 9.91639 202.23 9.64912 202.439 9.43934C202.649 9.22956 202.916 9.0867 203.207 9.02882C203.498 8.97094 203.8 9.00065 204.074 9.11418C204.348 9.22771 204.582 9.41997 204.747 9.66665C204.912 9.91332 205 10.2033 205 10.5C205 10.8978 204.842 11.2794 204.561 11.5607C204.279 11.842 203.898 12 203.5 12ZM212.5 23C212.203 23 211.913 22.912 211.667 22.7472C211.42 22.5824 211.228 22.3481 211.114 22.074C211.001 21.7999 210.971 21.4983 211.029 21.2074C211.087 20.9164 211.23 20.6491 211.439 20.4393C211.649 20.2296 211.916 20.0867 212.207 20.0288C212.498 19.9709 212.8 20.0007 213.074 20.1142C213.348 20.2277 213.582 20.42 213.747 20.6666C213.912 20.9133 214 21.2033 214 21.5C214 21.8978 213.842 22.2794 213.561 22.5607C213.279 22.842 212.898 23 212.5 23ZM212.5 17.5C212.203 17.5 211.913 17.412 211.667 17.2472C211.42 17.0824 211.228 16.8481 211.114 16.574C211.001 16.2999 210.971 15.9983 211.029 15.7074C211.087 15.4164 211.23 15.1491 211.439 14.9393C211.649 14.7296 211.916 14.5867 212.207 14.5288C212.498 14.4709 212.8 14.5006 213.074 14.6142C213.348 14.7277 213.582 14.92 213.747 15.1666C213.912 15.4133 214 15.7033 214 16C214 16.3978 213.842 16.7794 213.561 17.0607C213.279 17.342 212.898 17.5 212.5 17.5ZM212.5 12C212.203 12 211.913 11.912 211.667 11.7472C211.42 11.5824 211.228 11.3481 211.114 11.074C211.001 10.7999 210.971 10.4983 211.029 10.2074C211.087 9.91639 211.23 9.64912 211.439 9.43934C211.649 9.22956 211.916 9.0867 212.207 9.02882C212.498 8.97094 212.8 9.00065 213.074 9.11418C213.348 9.22771 213.582 9.41997 213.747 9.66665C213.912 9.91332 214 10.2033 214 10.5C214 10.8978 213.842 11.2794 213.561 11.5607C213.279 11.842 212.898 12 212.5 12Z" fill="currentColor"/>
<path opacity="0.2" d="M267 8V24C267 24.7956 266.684 25.5587 266.121 26.1213C265.559 26.6839 264.796 27 264 27H248C247.204 27 246.441 26.6839 245.879 26.1213C245.316 25.5587 245 24.7956 245 24V8C245 7.20435 245.316 6.44129 245.879 5.87868C246.441 5.31607 247.204 5 248 5H264C264.796 5 265.559 5.31607 266.121 5.87868C266.684 6.44129 267 7.20435 267 8Z" fill="currentColor"/>
<path d="M264 4H248C246.939 4 245.922 4.42143 245.172 5.17157C244.421 5.92172 244 6.93913 244 8V24C244 25.0609 244.421 26.0783 245.172 26.8284C245.922 27.5786 246.939 28 248 28H264C265.061 28 266.078 27.5786 266.828 26.8284C267.579 26.0783 268 25.0609 268 24V8C268 6.93913 267.579 5.92172 266.828 5.17157C266.078 4.42143 265.061 4 264 4ZM266 24C266 24.5304 265.789 25.0391 265.414 25.4142C265.039 25.7893 264.53 26 264 26H248C247.47 26 246.961 25.7893 246.586 25.4142C246.211 25.0391 246 24.5304 246 24V8C246 7.46957 246.211 6.96086 246.586 6.58579C246.961 6.21071 247.47 6 248 6H264C264.53 6 265.039 6.21071 265.414 6.58579C265.789 6.96086 266 7.46957 266 8V24ZM253 10.5C253 10.7967 252.912 11.0867 252.747 11.3334C252.582 11.58 252.348 11.7723 252.074 11.8858C251.8 11.9994 251.498 12.0291 251.207 11.9712C250.916 11.9133 250.649 11.7704 250.439 11.5607C250.23 11.3509 250.087 11.0836 250.029 10.7926C249.971 10.5017 250.001 10.2001 250.114 9.92597C250.228 9.65189 250.42 9.41762 250.667 9.2528C250.913 9.08797 251.203 9 251.5 9C251.898 9 252.279 9.15804 252.561 9.43934C252.842 9.72064 253 10.1022 253 10.5ZM262 10.5C262 10.7967 261.912 11.0867 261.747 11.3334C261.582 11.58 261.348 11.7723 261.074 11.8858C260.8 11.9994 260.498 12.0291 260.207 11.9712C259.916 11.9133 259.649 11.7704 259.439 11.5607C259.23 11.3509 259.087 11.0836 259.029 10.7926C258.971 10.5017 259.001 10.2001 259.114 9.92597C259.228 9.65189 259.42 9.41762 259.667 9.2528C259.913 9.08797 260.203 9 260.5 9C260.898 9 261.279 9.15804 261.561 9.43934C261.842 9.72064 262 10.1022 262 10.5ZM253 16C253 16.2967 252.912 16.5867 252.747 16.8334C252.582 17.08 252.348 17.2723 252.074 17.3858C251.8 17.4993 251.498 17.5291 251.207 17.4712C250.916 17.4133 250.649 17.2704 250.439 17.0607C250.23 16.8509 250.087 16.5836 250.029 16.2926C249.971 16.0017 250.001 15.7001 250.114 15.426C250.228 15.1519 250.42 14.9176 250.667 14.7528C250.913 14.588 251.203 14.5 251.5 14.5C251.898 14.5 252.279 14.658 252.561 14.9393C252.842 15.2206 253 15.6022 253 16ZM262 16C262 16.2967 261.912 16.5867 261.747 16.8334C261.582 17.08 261.348 17.2723 261.074 17.3858C260.8 17.4993 260.498 17.5291 260.207 17.4712C259.916 17.4133 259.649 17.2704 259.439 17.0607C259.23 16.8509 259.087 16.5836 259.029 16.2926C258.971 16.0017 259.001 15.7001 259.114 15.426C259.228 15.1519 259.42 14.9176 259.667 14.7528C259.913 14.588 260.203 14.5 260.5 14.5C260.898 14.5 261.279 14.658 261.561 14.9393C261.842 15.2206 262 15.6022 262 16ZM253 21.5C253 21.7967 252.912 22.0867 252.747 22.3334C252.582 22.58 252.348 22.7723 252.074 22.8858C251.8 22.9993 251.498 23.0291 251.207 22.9712C250.916 22.9133 250.649 22.7704 250.439 22.5607C250.23 22.3509 250.087 22.0836 250.029 21.7926C249.971 21.5017 250.001 21.2001 250.114 20.926C250.228 20.6519 250.42 20.4176 250.667 20.2528C250.913 20.088 251.203 20 251.5 20C251.898 20 252.279 20.158 252.561 20.4393C252.842 20.7206 253 21.1022 253 21.5ZM262 21.5C262 21.7967 261.912 22.0867 261.747 22.3334C261.582 22.58 261.348 22.7723 261.074 22.8858C260.8 22.9993 260.498 23.0291 260.207 22.9712C259.916 22.9133 259.649 22.7704 259.439 22.5607C259.23 22.3509 259.087 22.0836 259.029 21.7926C258.971 21.5017 259.001 21.2001 259.114 20.926C259.228 20.6519 259.42 20.4176 259.667 20.2528C259.913 20.088 260.203 20 260.5 20C260.898 20 261.279 20.158 261.561 20.4393C261.842 20.7206 262 21.1022 262 21.5Z" fill="currentColor"/>
</g>
<defs>
<clipPath id="clip0_17_15416">
<rect width="272" height="32" rx="5" fill="white"/>
</clipPath>
</defs>
</svg>
