<svg width="272" height="32" viewBox="0 0 272 32" fill="none" xmlns="http://www.w3.org/2000/svg">
<g clip-path="url(#clip0_17_15444)">
<path d="M24 4H8C6.93913 4 5.92172 4.42143 5.17157 5.17157C4.42143 5.92172 4 6.93913 4 8V24C4 25.0609 4.42143 26.0783 5.17157 26.8284C5.92172 27.5786 6.93913 28 8 28H24C25.0609 28 26.0783 27.5786 26.8284 26.8284C27.5786 26.0783 28 25.0609 28 24V8C28 6.93913 27.5786 5.92172 26.8284 5.17157C26.0783 4.42143 25.0609 4 24 4ZM26 24C26 24.5304 25.7893 25.0391 25.4142 25.4142C25.0391 25.7893 24.5304 26 24 26H8C7.46957 26 6.96086 25.7893 6.58579 25.4142C6.21071 25.0391 6 24.5304 6 24V8C6 7.46957 6.21071 6.96086 6.58579 6.58579C6.96086 6.21071 7.46957 6 8 6H24C24.5304 6 25.0391 6.21071 25.4142 6.58579C25.7893 6.96086 26 7.46957 26 8V24ZM14 12.5C14 12.7967 13.912 13.0867 13.7472 13.3334C13.5824 13.58 13.3481 13.7723 13.074 13.8858C12.7999 13.9994 12.4983 14.0291 12.2074 13.9712C11.9164 13.9133 11.6491 13.7704 11.4393 13.5607C11.2296 13.3509 11.0867 13.0836 11.0288 12.7926C10.9709 12.5017 11.0006 12.2001 11.1142 11.926C11.2277 11.6519 11.42 11.4176 11.6666 11.2528C11.9133 11.088 12.2033 11 12.5 11C12.8978 11 13.2794 11.158 13.5607 11.4393C13.842 11.7206 14 12.1022 14 12.5ZM21 12.5C21 12.7967 20.912 13.0867 20.7472 13.3334C20.5824 13.58 20.3481 13.7723 20.074 13.8858C19.7999 13.9994 19.4983 14.0291 19.2074 13.9712C18.9164 13.9133 18.6491 13.7704 18.4393 13.5607C18.2296 13.3509 18.0867 13.0836 18.0288 12.7926C17.9709 12.5017 18.0007 12.2001 18.1142 11.926C18.2277 11.6519 18.42 11.4176 18.6666 11.2528C18.9133 11.088 19.2033 11 19.5 11C19.8978 11 20.2794 11.158 20.5607 11.4393C20.842 11.7206 21 12.1022 21 12.5ZM14 19.5C14 19.7967 13.912 20.0867 13.7472 20.3334C13.5824 20.58 13.3481 20.7723 13.074 20.8858C12.7999 20.9993 12.4983 21.0291 12.2074 20.9712C11.9164 20.9133 11.6491 20.7704 11.4393 20.5607C11.2296 20.3509 11.0867 20.0836 11.0288 19.7926C10.9709 19.5017 11.0006 19.2001 11.1142 18.926C11.2277 18.6519 11.42 18.4176 11.6666 18.2528C11.9133 18.088 12.2033 18 12.5 18C12.8978 18 13.2794 18.158 13.5607 18.4393C13.842 18.7206 14 19.1022 14 19.5ZM21 19.5C21 19.7967 20.912 20.0867 20.7472 20.3334C20.5824 20.58 20.3481 20.7723 20.074 20.8858C19.7999 20.9993 19.4983 21.0291 19.2074 20.9712C18.9164 20.9133 18.6491 20.7704 18.4393 20.5607C18.2296 20.3509 18.0867 20.0836 18.0288 19.7926C17.9709 19.5017 18.0007 19.2001 18.1142 18.926C18.2277 18.6519 18.42 18.4176 18.6666 18.2528C18.9133 18.088 19.2033 18 19.5 18C19.8978 18 20.2794 18.158 20.5607 18.4393C20.842 18.7206 21 19.1022 21 19.5Z" fill="currentColor"/>
<path d="M72 4.5H56C55.0717 4.5 54.1815 4.86875 53.5251 5.52513C52.8687 6.1815 52.5 7.07174 52.5 8V24C52.5 24.9283 52.8687 25.8185 53.5251 26.4749C54.1815 27.1313 55.0717 27.5 56 27.5H72C72.9283 27.5 73.8185 27.1313 74.4749 26.4749C75.1313 25.8185 75.5 24.9283 75.5 24V8C75.5 7.07174 75.1313 6.1815 74.4749 5.52513C73.8185 4.86875 72.9283 4.5 72 4.5ZM74.5 24C74.5 24.663 74.2366 25.2989 73.7678 25.7678C73.2989 26.2366 72.663 26.5 72 26.5H56C55.337 26.5 54.7011 26.2366 54.2322 25.7678C53.7634 25.2989 53.5 24.663 53.5 24V8C53.5 7.33696 53.7634 6.70107 54.2322 6.23223C54.7011 5.76339 55.337 5.5 56 5.5H72C72.663 5.5 73.2989 5.76339 73.7678 6.23223C74.2366 6.70107 74.5 7.33696 74.5 8V24ZM61.5 12.5C61.5 12.6978 61.4414 12.8911 61.3315 13.0556C61.2216 13.22 61.0654 13.3482 60.8827 13.4239C60.7 13.4996 60.4989 13.5194 60.3049 13.4808C60.1109 13.4422 59.9327 13.347 59.7929 13.2071C59.653 13.0673 59.5578 12.8891 59.5192 12.6951C59.4806 12.5011 59.5004 12.3 59.5761 12.1173C59.6518 11.9346 59.78 11.7784 59.9444 11.6685C60.1089 11.5586 60.3022 11.5 60.5 11.5C60.7652 11.5 61.0196 11.6054 61.2071 11.7929C61.3946 11.9804 61.5 12.2348 61.5 12.5ZM68.5 12.5C68.5 12.6978 68.4414 12.8911 68.3315 13.0556C68.2216 13.22 68.0654 13.3482 67.8827 13.4239C67.7 13.4996 67.4989 13.5194 67.3049 13.4808C67.1109 13.4422 66.9327 13.347 66.7929 13.2071C66.653 13.0673 66.5578 12.8891 66.5192 12.6951C66.4806 12.5011 66.5004 12.3 66.5761 12.1173C66.6518 11.9346 66.78 11.7784 66.9444 11.6685C67.1089 11.5586 67.3022 11.5 67.5 11.5C67.7652 11.5 68.0196 11.6054 68.2071 11.7929C68.3946 11.9804 68.5 12.2348 68.5 12.5ZM61.5 19.5C61.5 19.6978 61.4414 19.8911 61.3315 20.0556C61.2216 20.22 61.0654 20.3482 60.8827 20.4239C60.7 20.4996 60.4989 20.5194 60.3049 20.4808C60.1109 20.4422 59.9327 20.347 59.7929 20.2071C59.653 20.0673 59.5578 19.8891 59.5192 19.6951C59.4806 19.5011 59.5004 19.3 59.5761 19.1173C59.6518 18.9346 59.78 18.7784 59.9444 18.6685C60.1089 18.5586 60.3022 18.5 60.5 18.5C60.7652 18.5 61.0196 18.6054 61.2071 18.7929C61.3946 18.9804 61.5 19.2348 61.5 19.5ZM68.5 19.5C68.5 19.6978 68.4414 19.8911 68.3315 20.0556C68.2216 20.22 68.0654 20.3482 67.8827 20.4239C67.7 20.4996 67.4989 20.5194 67.3049 20.4808C67.1109 20.4422 66.9327 20.347 66.7929 20.2071C66.653 20.0673 66.5578 19.8891 66.5192 19.6951C66.4806 19.5011 66.5004 19.3 66.5761 19.1173C66.6518 18.9346 66.78 18.7784 66.9444 18.6685C67.1089 18.5586 67.3022 18.5 67.5 18.5C67.7652 18.5 68.0196 18.6054 68.2071 18.7929C68.3946 18.9804 68.5 19.2348 68.5 19.5Z" fill="currentColor"/>
<path d="M120 4.25H104C103.005 4.25 102.052 4.64509 101.348 5.34835C100.645 6.05161 100.25 7.00544 100.25 8V24C100.25 24.9946 100.645 25.9484 101.348 26.6517C102.052 27.3549 103.005 27.75 104 27.75H120C120.995 27.75 121.948 27.3549 122.652 26.6517C123.355 25.9484 123.75 24.9946 123.75 24V8C123.75 7.00544 123.355 6.05161 122.652 5.34835C121.948 4.64509 120.995 4.25 120 4.25ZM122.25 24C122.25 24.5967 122.013 25.169 121.591 25.591C121.169 26.0129 120.597 26.25 120 26.25H104C103.403 26.25 102.831 26.0129 102.409 25.591C101.987 25.169 101.75 24.5967 101.75 24V8C101.75 7.40326 101.987 6.83097 102.409 6.40901C102.831 5.98705 103.403 5.75 104 5.75H120C120.597 5.75 121.169 5.98705 121.591 6.40901C122.013 6.83097 122.25 7.40326 122.25 8V24ZM109.75 12.5C109.75 12.7472 109.677 12.9889 109.539 13.1945C109.402 13.4 109.207 13.5602 108.978 13.6548C108.75 13.7495 108.499 13.7742 108.256 13.726C108.014 13.6778 107.791 13.5587 107.616 13.3839C107.441 13.2091 107.322 12.9863 107.274 12.7439C107.226 12.5014 107.251 12.2501 107.345 12.0216C107.44 11.7932 107.6 11.598 107.806 11.4607C108.011 11.3233 108.253 11.25 108.5 11.25C108.832 11.25 109.149 11.3817 109.384 11.6161C109.618 11.8505 109.75 12.1685 109.75 12.5ZM116.75 12.5C116.75 12.7472 116.677 12.9889 116.539 13.1945C116.402 13.4 116.207 13.5602 115.978 13.6548C115.75 13.7495 115.499 13.7742 115.256 13.726C115.014 13.6778 114.791 13.5587 114.616 13.3839C114.441 13.2091 114.322 12.9863 114.274 12.7439C114.226 12.5014 114.251 12.2501 114.345 12.0216C114.44 11.7932 114.6 11.598 114.806 11.4607C115.011 11.3233 115.253 11.25 115.5 11.25C115.832 11.25 116.149 11.3817 116.384 11.6161C116.618 11.8505 116.75 12.1685 116.75 12.5ZM109.75 19.5C109.75 19.7472 109.677 19.9889 109.539 20.1945C109.402 20.4 109.207 20.5602 108.978 20.6549C108.75 20.7495 108.499 20.7742 108.256 20.726C108.014 20.6777 107.791 20.5587 107.616 20.3839C107.441 20.2091 107.322 19.9863 107.274 19.7439C107.226 19.5014 107.251 19.2501 107.345 19.0216C107.44 18.7932 107.6 18.598 107.806 18.4607C108.011 18.3233 108.253 18.25 108.5 18.25C108.832 18.25 109.149 18.3817 109.384 18.6161C109.618 18.8505 109.75 19.1685 109.75 19.5ZM116.75 19.5C116.75 19.7472 116.677 19.9889 116.539 20.1945C116.402 20.4 116.207 20.5602 115.978 20.6549C115.75 20.7495 115.499 20.7742 115.256 20.726C115.014 20.6777 114.791 20.5587 114.616 20.3839C114.441 20.2091 114.322 19.9863 114.274 19.7439C114.226 19.5014 114.251 19.2501 114.345 19.0216C114.44 18.7932 114.6 18.598 114.806 18.4607C115.011 18.3233 115.253 18.25 115.5 18.25C115.832 18.25 116.149 18.3817 116.384 18.6161C116.618 18.8505 116.75 19.1685 116.75 19.5Z" fill="currentColor"/>
<path d="M168 3.5H152C150.807 3.5 149.662 3.97411 148.818 4.81802C147.974 5.66193 147.5 6.80653 147.5 8V24C147.5 25.1935 147.974 26.3381 148.818 27.182C149.662 28.0259 150.807 28.5 152 28.5H168C169.193 28.5 170.338 28.0259 171.182 27.182C172.026 26.3381 172.5 25.1935 172.5 24V8C172.5 6.80653 172.026 5.66193 171.182 4.81802C170.338 3.97411 169.193 3.5 168 3.5ZM169.5 24C169.5 24.3978 169.342 24.7794 169.061 25.0607C168.779 25.342 168.398 25.5 168 25.5H152C151.602 25.5 151.221 25.342 150.939 25.0607C150.658 24.7794 150.5 24.3978 150.5 24V8C150.5 7.60218 150.658 7.22064 150.939 6.93934C151.221 6.65804 151.602 6.5 152 6.5H168C168.398 6.5 168.779 6.65804 169.061 6.93934C169.342 7.22064 169.5 7.60218 169.5 8V24ZM158 12C158 12.3956 157.883 12.7822 157.663 13.1111C157.443 13.44 157.131 13.6964 156.765 13.8478C156.4 13.9991 155.998 14.0387 155.61 13.9616C155.222 13.8844 154.865 13.6939 154.586 13.4142C154.306 13.1345 154.116 12.7781 154.038 12.3902C153.961 12.0022 154.001 11.6001 154.152 11.2346C154.304 10.8692 154.56 10.5568 154.889 10.3371C155.218 10.1173 155.604 10 156 10C156.53 10 157.039 10.2107 157.414 10.5858C157.789 10.9609 158 11.4696 158 12ZM166 12C166 12.3956 165.883 12.7822 165.663 13.1111C165.443 13.44 165.131 13.6964 164.765 13.8478C164.4 13.9991 163.998 14.0387 163.61 13.9616C163.222 13.8844 162.865 13.6939 162.586 13.4142C162.306 13.1345 162.116 12.7781 162.038 12.3902C161.961 12.0022 162.001 11.6001 162.152 11.2346C162.304 10.8692 162.56 10.5568 162.889 10.3371C163.218 10.1173 163.604 10 164 10C164.53 10 165.039 10.2107 165.414 10.5858C165.789 10.9609 166 11.4696 166 12ZM158 20C158 20.3956 157.883 20.7822 157.663 21.1111C157.443 21.44 157.131 21.6964 156.765 21.8478C156.4 21.9991 155.998 22.0387 155.61 21.9616C155.222 21.8844 154.865 21.6939 154.586 21.4142C154.306 21.1345 154.116 20.7781 154.038 20.3902C153.961 20.0022 154.001 19.6001 154.152 19.2346C154.304 18.8692 154.56 18.5568 154.889 18.3371C155.218 18.1173 155.604 18 156 18C156.53 18 157.039 18.2107 157.414 18.5858C157.789 18.9609 158 19.4696 158 20ZM166 20C166 20.3956 165.883 20.7822 165.663 21.1111C165.443 21.44 165.131 21.6964 164.765 21.8478C164.4 21.9991 163.998 22.0387 163.61 21.9616C163.222 21.8844 162.865 21.6939 162.586 21.4142C162.306 21.1345 162.116 20.7781 162.038 20.3902C161.961 20.0022 162.001 19.6001 162.152 19.2346C162.304 18.8692 162.56 18.5568 162.889 18.3371C163.218 18.1173 163.604 18 164 18C164.53 18 165.039 18.2107 165.414 18.5858C165.789 18.9609 166 19.4696 166 20Z" fill="currentColor"/>
<path d="M216 4H200C198.939 4 197.922 4.42143 197.172 5.17157C196.421 5.92172 196 6.93913 196 8V24C196 25.0609 196.421 26.0783 197.172 26.8284C197.922 27.5786 198.939 28 200 28H216C217.061 28 218.078 27.5786 218.828 26.8284C219.579 26.0783 220 25.0609 220 24V8C220 6.93913 219.579 5.92172 218.828 5.17157C218.078 4.42143 217.061 4 216 4ZM204.5 21C204.203 21 203.913 20.912 203.667 20.7472C203.42 20.5824 203.228 20.3481 203.114 20.074C203.001 19.7999 202.971 19.4983 203.029 19.2074C203.087 18.9164 203.23 18.6491 203.439 18.4393C203.649 18.2296 203.916 18.0867 204.207 18.0288C204.498 17.9709 204.8 18.0007 205.074 18.1142C205.348 18.2277 205.582 18.42 205.747 18.6666C205.912 18.9133 206 19.2033 206 19.5C206 19.8978 205.842 20.2794 205.561 20.5607C205.279 20.842 204.898 21 204.5 21ZM204.5 14C204.203 14 203.913 13.912 203.667 13.7472C203.42 13.5824 203.228 13.3481 203.114 13.074C203.001 12.7999 202.971 12.4983 203.029 12.2074C203.087 11.9164 203.23 11.6491 203.439 11.4393C203.649 11.2296 203.916 11.0867 204.207 11.0288C204.498 10.9709 204.8 11.0006 205.074 11.1142C205.348 11.2277 205.582 11.42 205.747 11.6666C205.912 11.9133 206 12.2033 206 12.5C206 12.8978 205.842 13.2794 205.561 13.5607C205.279 13.842 204.898 14 204.5 14ZM211.5 21C211.203 21 210.913 20.912 210.667 20.7472C210.42 20.5824 210.228 20.3481 210.114 20.074C210.001 19.7999 209.971 19.4983 210.029 19.2074C210.087 18.9164 210.23 18.6491 210.439 18.4393C210.649 18.2296 210.916 18.0867 211.207 18.0288C211.498 17.9709 211.8 18.0007 212.074 18.1142C212.348 18.2277 212.582 18.42 212.747 18.6666C212.912 18.9133 213 19.2033 213 19.5C213 19.8978 212.842 20.2794 212.561 20.5607C212.279 20.842 211.898 21 211.5 21ZM211.5 14C211.203 14 210.913 13.912 210.667 13.7472C210.42 13.5824 210.228 13.3481 210.114 13.074C210.001 12.7999 209.971 12.4983 210.029 12.2074C210.087 11.9164 210.23 11.6491 210.439 11.4393C210.649 11.2296 210.916 11.0867 211.207 11.0288C211.498 10.9709 211.8 11.0006 212.074 11.1142C212.348 11.2277 212.582 11.42 212.747 11.6666C212.912 11.9133 213 12.2033 213 12.5C213 12.8978 212.842 13.2794 212.561 13.5607C212.279 13.842 211.898 14 211.5 14Z" fill="currentColor"/>
<path opacity="0.2" d="M267 8V24C267 24.7956 266.684 25.5587 266.121 26.1213C265.559 26.6839 264.796 27 264 27H248C247.204 27 246.441 26.6839 245.879 26.1213C245.316 25.5587 245 24.7956 245 24V8C245 7.20435 245.316 6.44129 245.879 5.87868C246.441 5.31607 247.204 5 248 5H264C264.796 5 265.559 5.31607 266.121 5.87868C266.684 6.44129 267 7.20435 267 8Z" fill="currentColor"/>
<path d="M264 4H248C246.939 4 245.922 4.42143 245.172 5.17157C244.421 5.92172 244 6.93913 244 8V24C244 25.0609 244.421 26.0783 245.172 26.8284C245.922 27.5786 246.939 28 248 28H264C265.061 28 266.078 27.5786 266.828 26.8284C267.579 26.0783 268 25.0609 268 24V8C268 6.93913 267.579 5.92172 266.828 5.17157C266.078 4.42143 265.061 4 264 4ZM266 24C266 24.5304 265.789 25.0391 265.414 25.4142C265.039 25.7893 264.53 26 264 26H248C247.47 26 246.961 25.7893 246.586 25.4142C246.211 25.0391 246 24.5304 246 24V8C246 7.46957 246.211 6.96086 246.586 6.58579C246.961 6.21071 247.47 6 248 6H264C264.53 6 265.039 6.21071 265.414 6.58579C265.789 6.96086 266 7.46957 266 8V24ZM254 12.5C254 12.7967 253.912 13.0867 253.747 13.3334C253.582 13.58 253.348 13.7723 253.074 13.8858C252.8 13.9994 252.498 14.0291 252.207 13.9712C251.916 13.9133 251.649 13.7704 251.439 13.5607C251.23 13.3509 251.087 13.0836 251.029 12.7926C250.971 12.5017 251.001 12.2001 251.114 11.926C251.228 11.6519 251.42 11.4176 251.667 11.2528C251.913 11.088 252.203 11 252.5 11C252.898 11 253.279 11.158 253.561 11.4393C253.842 11.7206 254 12.1022 254 12.5ZM261 12.5C261 12.7967 260.912 13.0867 260.747 13.3334C260.582 13.58 260.348 13.7723 260.074 13.8858C259.8 13.9994 259.498 14.0291 259.207 13.9712C258.916 13.9133 258.649 13.7704 258.439 13.5607C258.23 13.3509 258.087 13.0836 258.029 12.7926C257.971 12.5017 258.001 12.2001 258.114 11.926C258.228 11.6519 258.42 11.4176 258.667 11.2528C258.913 11.088 259.203 11 259.5 11C259.898 11 260.279 11.158 260.561 11.4393C260.842 11.7206 261 12.1022 261 12.5ZM254 19.5C254 19.7967 253.912 20.0867 253.747 20.3334C253.582 20.58 253.348 20.7723 253.074 20.8858C252.8 20.9993 252.498 21.0291 252.207 20.9712C251.916 20.9133 251.649 20.7704 251.439 20.5607C251.23 20.3509 251.087 20.0836 251.029 19.7926C250.971 19.5017 251.001 19.2001 251.114 18.926C251.228 18.6519 251.42 18.4176 251.667 18.2528C251.913 18.088 252.203 18 252.5 18C252.898 18 253.279 18.158 253.561 18.4393C253.842 18.7206 254 19.1022 254 19.5ZM261 19.5C261 19.7967 260.912 20.0867 260.747 20.3334C260.582 20.58 260.348 20.7723 260.074 20.8858C259.8 20.9993 259.498 21.0291 259.207 20.9712C258.916 20.9133 258.649 20.7704 258.439 20.5607C258.23 20.3509 258.087 20.0836 258.029 19.7926C257.971 19.5017 258.001 19.2001 258.114 18.926C258.228 18.6519 258.42 18.4176 258.667 18.2528C258.913 18.088 259.203 18 259.5 18C259.898 18 260.279 18.158 260.561 18.4393C260.842 18.7206 261 19.1022 261 19.5Z" fill="currentColor"/>
</g>
<defs>
<clipPath id="clip0_17_15444">
<rect width="272" height="32" rx="5" fill="white"/>
</clipPath>
</defs>
</svg>
