<svg width="272" height="32" viewBox="0 0 272 32" fill="none" xmlns="http://www.w3.org/2000/svg">
<g clip-path="url(#clip0_17_15248)">
<path d="M27.8749 7.12502C26.5164 5.76984 24.6764 5.00775 22.7575 5.00541C20.8386 5.00307 18.9968 5.76066 17.6349 7.11252L15.9999 8.63127L14.3637 7.10752C13.0021 5.74978 11.157 4.98852 9.23416 4.99122C7.31133 4.99391 5.46832 5.76034 4.11057 7.1219C2.75283 8.48345 1.99157 10.3286 1.99427 12.2514C1.99697 14.1743 2.76339 16.0173 4.12495 17.375L15.2937 28.7075C15.3867 28.802 15.4977 28.877 15.62 28.9283C15.7423 28.9795 15.8736 29.0058 16.0062 29.0058C16.1388 29.0058 16.2701 28.9795 16.3924 28.9283C16.5147 28.877 16.6256 28.802 16.7187 28.7075L27.8749 17.375C29.2337 16.0155 29.9969 14.1721 29.9969 12.25C29.9969 10.3279 29.2337 8.48454 27.8749 7.12502ZM26.4562 15.97L15.9999 26.575L5.53745 15.96C4.55283 14.9754 3.99968 13.64 3.99968 12.2475C3.99968 10.8551 4.55283 9.51964 5.53745 8.53502C6.52207 7.55041 7.85749 6.99725 9.24995 6.99725C10.6424 6.99725 11.9778 7.55041 12.9624 8.53502L12.9874 8.56002L15.3187 10.7288C15.5038 10.901 15.7472 10.9967 15.9999 10.9967C16.2527 10.9967 16.4961 10.901 16.6812 10.7288L19.0124 8.56002L19.0374 8.53502C20.0227 7.55107 21.3585 6.99882 22.751 6.99975C24.1434 7.00069 25.4785 7.55474 26.4624 8.54002C27.4464 9.5253 27.9987 10.8611 27.9977 12.2536C27.9968 13.646 27.4427 14.9811 26.4574 15.965L26.4562 15.97Z" fill="currentColor"/>
<path d="M75.5225 7.47376C74.2561 6.21162 72.541 5.50291 70.7531 5.50291C68.9651 5.50291 67.2501 6.21162 65.9837 7.47376L64 9.31376L62.0162 7.46751C60.7496 6.20227 59.0323 5.49198 57.242 5.49292C55.4518 5.49386 53.7352 6.20594 52.47 7.47251C51.2047 8.73909 50.4944 10.4564 50.4954 12.2467C50.4963 14.0369 51.2084 15.7535 52.475 17.0188L63.6437 28.3513C63.6902 28.3985 63.7457 28.436 63.8068 28.4616C63.868 28.4872 63.9337 28.5004 64 28.5004C64.0663 28.5004 64.1319 28.4872 64.1931 28.4616C64.2542 28.436 64.3097 28.3985 64.3562 28.3513L75.5225 17.0213C76.1495 16.3944 76.6469 15.6502 76.9862 14.8311C77.3256 14.012 77.5003 13.1341 77.5003 12.2475C77.5003 11.3609 77.3256 10.483 76.9862 9.66389C76.6469 8.8448 76.1495 8.10059 75.5225 7.47376ZM74.8137 16.3163L64 27.2875L53.1837 16.3138C52.1053 15.2353 51.4994 13.7727 51.4994 12.2475C51.4994 10.7224 52.1053 9.2597 53.1837 8.18126C54.2621 7.10283 55.7248 6.49697 57.25 6.49697C58.7751 6.49697 60.2378 7.10283 61.3162 8.18126L61.3287 8.19376L63.6587 10.3638C63.7513 10.4502 63.8733 10.4983 64 10.4983C64.1266 10.4983 64.2486 10.4502 64.3412 10.3638L66.6712 8.19376L66.6837 8.18126C67.2138 7.62957 67.8486 7.18921 68.551 6.88597C69.2534 6.58273 70.0093 6.42272 70.7743 6.41531C71.5394 6.40789 72.2982 6.55323 73.0063 6.8428C73.7145 7.13237 74.3577 7.56035 74.8984 8.10167C75.4391 8.64299 75.8662 9.28677 76.1549 9.99528C76.4436 10.7038 76.588 11.4628 76.5797 12.2278C76.5713 12.9928 76.4104 13.7485 76.1063 14.4505C75.8022 15.1526 75.3611 15.7869 74.8087 16.3163H74.8137Z" fill="currentColor"/>
<path d="M123.7 7.29747C122.388 5.98812 120.611 5.25192 118.757 5.25005C116.904 5.24817 115.125 5.98077 113.81 7.28747L112 8.97247L110.19 7.28747C108.876 5.97548 107.095 5.23906 105.239 5.24024C103.382 5.24141 101.602 5.98007 100.29 7.29372C98.978 8.60737 98.2416 10.3884 98.2428 12.245C98.244 14.1016 98.9826 15.8817 100.296 17.1937L111.466 28.5262C111.536 28.5969 111.619 28.653 111.711 28.6913C111.802 28.7296 111.901 28.7493 112 28.7493C112.099 28.7493 112.198 28.7296 112.289 28.6913C112.381 28.653 112.464 28.5969 112.534 28.5262L123.7 17.1987C124.35 16.5487 124.866 15.7769 125.218 14.9275C125.57 14.078 125.751 13.1676 125.751 12.2481C125.751 11.3286 125.57 10.4182 125.218 9.56874C124.866 8.71929 124.35 7.94751 123.7 7.29747ZM122.635 16.1412L112 26.9312L101.361 16.1375C100.336 15.1048 99.7614 13.7079 99.7639 12.2526C99.7664 10.7973 100.346 9.40233 101.375 8.3732C102.403 7.34407 103.798 6.7647 105.254 6.76199C106.709 6.75927 108.106 7.33344 109.139 8.35872C109.145 8.3652 109.152 8.37106 109.159 8.37622L111.489 10.5462C111.628 10.6756 111.81 10.7475 112 10.7475C112.19 10.7475 112.372 10.6756 112.511 10.5462L114.841 8.37497C114.849 8.36981 114.855 8.36395 114.861 8.35747C115.372 7.84408 115.978 7.43649 116.647 7.15807C117.315 6.87965 118.031 6.73588 118.755 6.73502C119.479 6.73415 120.196 6.87619 120.865 7.153C121.534 7.42981 122.142 7.83595 122.653 8.34811C123.165 8.86028 123.57 9.46839 123.846 10.1376C124.122 10.8068 124.264 11.5239 124.262 12.2478C124.26 12.9717 124.116 13.6881 123.836 14.3561C123.557 15.024 123.149 15.6302 122.635 16.14V16.1412Z" fill="currentColor"/>
<path d="M172.23 6.76622C170.778 5.31894 168.813 4.50487 166.763 4.50183C164.714 4.49878 162.746 5.30701 161.29 6.74997L160 7.94747L158.71 6.74997C157.255 5.29825 155.282 4.48412 153.227 4.4867C151.171 4.48928 149.2 5.30835 147.749 6.76372C146.297 8.2191 145.483 10.1916 145.485 12.2472C145.488 14.3028 146.307 16.2732 147.763 17.725L158.931 29.0562C159.071 29.198 159.237 29.3105 159.421 29.3873C159.604 29.4642 159.801 29.5037 160 29.5037C160.199 29.5037 160.396 29.4642 160.579 29.3873C160.763 29.3105 160.929 29.198 161.069 29.0562L172.23 17.7325C172.95 17.0128 173.521 16.1583 173.911 15.2178C174.301 14.2773 174.501 13.2692 174.501 12.2512C174.501 11.2332 174.301 10.2252 173.911 9.28466C173.521 8.34417 172.95 7.48967 172.23 6.76997V6.76622ZM170.105 15.615L160 25.8625L149.891 15.6062C149.004 14.7148 148.506 13.5076 148.507 12.2495C148.508 10.9914 149.009 9.78527 149.898 8.89568C150.788 8.00609 151.994 7.50574 153.252 7.50444C154.51 7.50313 155.717 8.00098 156.609 8.88872C156.621 8.90122 156.634 8.91372 156.648 8.92497L158.978 11.095C159.255 11.3537 159.621 11.4975 160 11.4975C160.379 11.4975 160.745 11.3537 161.023 11.095L163.353 8.92497C163.366 8.91372 163.379 8.90122 163.391 8.88872C163.833 8.44814 164.357 8.09886 164.934 7.86082C165.51 7.62279 166.128 7.50066 166.752 7.50142C167.376 7.50217 167.993 7.62579 168.569 7.86522C169.146 8.10465 169.669 8.4552 170.109 8.89685C170.55 9.3385 170.899 9.86261 171.137 10.4392C171.375 11.0159 171.497 11.6338 171.497 12.2576C171.496 12.8814 171.372 13.499 171.133 14.0751C170.893 14.6511 170.543 15.1744 170.101 15.615H170.105Z" fill="currentColor"/>
<path d="M222 12.25C222.002 13.2023 221.815 14.1456 221.451 15.0253C221.086 15.9049 220.55 16.7036 219.875 17.375L208.712 28.7025C208.619 28.797 208.508 28.872 208.386 28.9232C208.264 28.9744 208.133 29.0008 208 29.0008C207.867 29.0008 207.736 28.9744 207.614 28.9232C207.491 28.872 207.38 28.797 207.287 28.7025L196.125 17.375C194.764 16.0157 193.999 14.1716 193.998 12.2481C193.997 10.3247 194.759 8.47961 196.119 7.11872C197.478 5.75783 199.322 4.99263 201.246 4.99146C203.169 4.99028 205.014 5.75324 206.375 7.11247L208 8.63122L209.636 7.10747C210.652 6.09696 211.944 5.40998 213.35 5.13326C214.755 4.85654 216.211 5.00249 217.534 5.55269C218.857 6.10288 219.987 7.03265 220.782 8.22462C221.577 9.41659 222.001 10.8173 222 12.25Z" fill="currentColor"/>
<path opacity="0.2" d="M267.17 16.67L256 28L244.83 16.67C243.658 15.4977 242.999 13.9078 242.999 12.25C242.999 10.5921 243.658 9.00223 244.83 7.82997C246.002 6.65771 247.592 5.99915 249.25 5.99915C250.908 5.99915 252.498 6.65771 253.67 7.82997L256 9.99997L258.33 7.82997C258.91 7.24953 259.599 6.78909 260.358 6.47496C261.116 6.16083 261.929 5.99915 262.75 5.99915C263.571 5.99915 264.384 6.16083 265.142 6.47496C265.9 6.78909 266.59 7.24953 267.17 7.82997C267.75 8.41041 268.211 9.0995 268.525 9.85788C268.839 10.6163 269.001 11.4291 269.001 12.25C269.001 13.0708 268.839 13.8837 268.525 14.6421C268.211 15.4004 267.75 16.0895 267.17 16.67Z" fill="currentColor"/>
<path d="M267.875 7.12502C266.516 5.76984 264.676 5.00775 262.758 5.00541C260.839 5.00307 258.997 5.76066 257.635 7.11252L256 8.63127L254.364 7.10752C253.002 5.74978 251.157 4.98852 249.234 4.99122C247.311 4.99391 245.468 5.76034 244.111 7.1219C242.753 8.48345 241.992 10.3286 241.994 12.2514C241.997 14.1743 242.763 16.0173 244.125 17.375L255.294 28.7075C255.387 28.802 255.498 28.877 255.62 28.9283C255.742 28.9795 255.874 29.0058 256.006 29.0058C256.139 29.0058 256.27 28.9795 256.392 28.9283C256.515 28.877 256.626 28.802 256.719 28.7075L267.875 17.375C269.234 16.0155 269.997 14.1721 269.997 12.25C269.997 10.3279 269.234 8.48454 267.875 7.12502ZM266.456 15.97L256 26.575L245.537 15.96C244.553 14.9754 244 13.64 244 12.2475C244 10.8551 244.553 9.51964 245.537 8.53502C246.522 7.55041 247.857 6.99725 249.25 6.99725C250.642 6.99725 251.978 7.55041 252.962 8.53502L252.987 8.56002L255.319 10.7288C255.504 10.901 255.747 10.9967 256 10.9967C256.253 10.9967 256.496 10.901 256.681 10.7288L259.012 8.56002L259.037 8.53502C260.023 7.55107 261.359 6.99882 262.751 6.99975C264.143 7.00069 265.478 7.55474 266.462 8.54002C267.446 9.5253 267.999 10.8611 267.998 12.2536C267.997 13.646 267.443 14.9811 266.457 15.965L266.456 15.97Z" fill="currentColor"/>
</g>
<defs>
<clipPath id="clip0_17_15248">
<rect width="272" height="32" rx="5" fill="white"/>
</clipPath>
</defs>
</svg>
