<svg width="272" height="32" viewBox="0 0 272 32" fill="none" xmlns="http://www.w3.org/2000/svg">
<g clip-path="url(#clip0_17_15192)">
<path d="M19.8325 23.5538C19.6856 23.7745 19.4571 23.9279 19.1971 23.9802C18.9371 24.0325 18.6671 23.9794 18.4463 23.8325C17.6338 23.2925 17 23 16 23C15 23 14.3663 23.2925 13.5538 23.8325C13.3329 23.9739 13.0654 24.0229 12.8088 23.969C12.5523 23.9151 12.3271 23.7625 12.1819 23.5442C12.0367 23.3259 11.983 23.0593 12.0325 22.8018C12.0819 22.5443 12.2305 22.3165 12.4462 22.1675C13.5 21.4663 14.5075 21 16 21C17.4925 21 18.5 21.4663 19.5537 22.1675C19.7745 22.3144 19.9279 22.543 19.9802 22.8029C20.0324 23.0629 19.9793 23.333 19.8325 23.5538ZM28 6.00003V12.9713C28 17.4513 26.7938 21.6775 24.6025 24.8688C22.3325 28.1763 19.2775 29.9938 16 29.9938C12.7225 29.9938 9.6675 28.1725 7.3975 24.8688C5.20625 21.68 4 17.4538 4 12.9738V6.00003C4.00011 5.67498 4.07945 5.35486 4.23115 5.06737C4.38284 4.77989 4.60232 4.53371 4.87058 4.35016C5.13884 4.1666 5.44779 4.05119 5.7707 4.01392C6.09361 3.97665 6.42073 4.01865 6.72375 4.13628C8.48 4.81878 12.0225 5.96378 16 5.96378C19.9775 5.96378 23.5188 4.81878 25.2763 4.13628C25.5793 4.01865 25.9064 3.97665 26.2293 4.01392C26.5522 4.05119 26.8612 4.1666 27.1294 4.35016C27.3977 4.53371 27.6172 4.77989 27.7689 5.06737C27.9205 5.35486 27.9999 5.67498 28 6.00003ZM26 6.00003C24.1125 6.73628 20.3037 7.96628 16 7.96628C11.6962 7.96628 7.8875 6.73378 6 6.00003V12.9738C6 17.0538 7.0825 20.8775 9.04625 23.74C10.9325 26.4875 13.4012 28 16 28C18.5988 28 21.0675 26.4875 22.9538 23.74C24.9175 20.875 26 17.0538 26 12.9738V6.00003ZM23.6675 14.25C23.5697 14.1623 23.4555 14.0948 23.3316 14.0512C23.2077 14.0076 23.0764 13.9889 22.9452 13.9961C22.814 14.0033 22.6855 14.0363 22.5671 14.0932C22.4487 14.15 22.3426 14.2297 22.255 14.3275C21.92 14.7025 21.1487 14.995 20.505 14.995C19.8612 14.995 19.085 14.7013 18.755 14.3275C18.6671 14.2287 18.5606 14.1482 18.4416 14.0905C18.3225 14.0329 18.1933 13.9992 18.0613 13.9915C17.9292 13.9838 17.797 14.0021 17.672 14.0455C17.5471 14.0889 17.4319 14.1565 17.3331 14.2444C17.2343 14.3323 17.1538 14.4388 17.0961 14.5578C17.0385 14.6769 17.0048 14.8061 16.9971 14.9381C16.9894 15.0702 17.0077 15.2024 17.0511 15.3274C17.0945 15.4523 17.1621 15.5675 17.25 15.6663C17.9637 16.4638 19.2675 17 20.5 17C21.7325 17 23.0312 16.4638 23.75 15.6663C23.838 15.5681 23.9056 15.4534 23.9491 15.3289C23.9926 15.2045 24.011 15.0726 24.0034 14.941C23.9957 14.8094 23.9621 14.6806 23.9044 14.562C23.8468 14.4434 23.7663 14.3374 23.6675 14.25ZM14.75 15.6663C14.8376 15.5678 14.9049 15.453 14.9481 15.3285C14.9913 15.204 15.0096 15.0722 15.0019 14.9406C14.9942 14.8091 14.9606 14.6803 14.9031 14.5617C14.8456 14.4431 14.7654 14.337 14.6669 14.2494C14.5684 14.1618 14.4536 14.0945 14.3291 14.0513C14.2046 14.0081 14.0728 13.9898 13.9412 13.9975C13.8097 14.0052 13.6809 14.0388 13.5623 14.0963C13.4437 14.1538 13.3376 14.234 13.25 14.3325C12.915 14.7075 12.1438 15 11.5 15C10.8562 15 10.08 14.7063 9.75 14.3325C9.66242 14.234 9.55631 14.1538 9.43771 14.0963C9.31911 14.0388 9.19035 14.0052 9.05878 13.9975C8.92721 13.9898 8.79541 14.0081 8.6709 14.0513C8.54639 14.0945 8.43162 14.1618 8.33313 14.2494C8.23463 14.337 8.15436 14.4431 8.09688 14.5617C8.03939 14.6803 8.00584 14.8091 7.99812 14.9406C7.9904 15.0722 8.00867 15.204 8.05189 15.3285C8.09511 15.453 8.16242 15.5678 8.25 15.6663C8.96875 16.4638 10.2725 17 11.5 17C12.7275 17 14.0312 16.4638 14.75 15.6663Z" fill="currentColor"/>
<path d="M67.4163 23.2762C67.3429 23.3865 67.2288 23.4632 67.099 23.4895C66.9691 23.5157 66.8342 23.4894 66.7238 23.4162C65.85 22.8362 65.125 22.5 64 22.5C62.875 22.5 62.15 22.8362 61.2763 23.4162C61.2217 23.4557 61.1597 23.4838 61.094 23.4988C61.0283 23.5138 60.9602 23.5153 60.8939 23.5033C60.8276 23.4913 60.7644 23.4661 60.7081 23.429C60.6518 23.392 60.6036 23.3439 60.5663 23.2878C60.529 23.2316 60.5035 23.1685 60.4912 23.1023C60.479 23.036 60.4802 22.9679 60.4949 22.9022C60.5096 22.8364 60.5375 22.7743 60.5768 22.7196C60.6161 22.6648 60.6661 22.6186 60.7238 22.5837C61.7013 21.9325 62.6338 21.5 64 21.5C65.3663 21.5 66.2988 21.9325 67.2763 22.5837C67.3866 22.657 67.4633 22.7712 67.4895 22.901C67.5157 23.0308 67.4894 23.1658 67.4163 23.2762ZM70.625 14.6662C70.2 15.1412 69.285 15.5 68.5 15.5C67.715 15.5 66.7975 15.1412 66.375 14.6662C66.2867 14.5667 66.1624 14.5065 66.0296 14.4986C65.8968 14.4908 65.7663 14.536 65.6669 14.6243C65.5674 14.7127 65.5071 14.8369 65.4993 14.9697C65.4914 15.1025 65.5367 15.233 65.625 15.3325C66.24 16.02 67.4213 16.5 68.5 16.5C69.5788 16.5 70.7575 16.02 71.375 15.3337C71.4635 15.2342 71.5089 15.1037 71.5012 14.9708C71.4934 14.8379 71.4332 14.7135 71.3337 14.625C71.2343 14.5364 71.1037 14.4911 70.9708 14.4988C70.8379 14.5065 70.7135 14.5667 70.625 14.6662ZM75.5 5.99995V12.9725C75.5 17.3475 74.325 21.4725 72.19 24.5875C70.0163 27.7562 67.1075 29.5 64 29.5C60.8925 29.5 57.9838 27.7562 55.81 24.5887C53.675 21.4787 52.5 17.3537 52.5 12.9737V5.99995C52.4998 5.75602 52.559 5.5157 52.6726 5.29984C52.7862 5.08397 52.9507 4.89907 53.1519 4.76116C53.3531 4.62325 53.585 4.53648 53.8273 4.50839C54.0696 4.4803 54.3151 4.51173 54.5425 4.59995C56.3325 5.29745 59.9413 6.46245 64 6.46245C68.0588 6.46245 71.6675 5.29745 73.4575 4.60245C73.6847 4.51431 73.93 4.48286 74.1721 4.51082C74.4142 4.53879 74.6459 4.62533 74.847 4.76295C75.0482 4.90058 75.2128 5.08514 75.3265 5.30068C75.4403 5.51622 75.4998 5.75623 75.5 5.99995ZM74.5 5.99995C74.5002 5.91867 74.4805 5.83858 74.4428 5.76661C74.405 5.69464 74.3502 5.63295 74.2833 5.58691C74.2163 5.54086 74.1391 5.51184 74.0584 5.50235C73.9776 5.49286 73.8958 5.50319 73.82 5.53245C71.965 6.24995 68.2213 7.46245 64 7.46245C59.7788 7.46245 56.035 6.24995 54.18 5.5337C54.1225 5.51184 54.0615 5.50041 54 5.49995C53.9003 5.49969 53.8029 5.53025 53.7213 5.58745C53.6535 5.63294 53.5979 5.69431 53.5594 5.76621C53.5208 5.83811 53.5004 5.91836 53.5 5.99995V12.9712C53.5 21.535 58.21 28.5 64 28.5C69.79 28.5 74.5 21.535 74.5 12.9737V5.99995ZM62.375 15.3325C62.4188 15.2832 62.4525 15.2258 62.4742 15.1635C62.4958 15.1013 62.505 15.0353 62.5012 14.9695C62.4973 14.9037 62.4806 14.8393 62.4519 14.78C62.4231 14.7206 62.383 14.6675 62.3338 14.6237C62.2845 14.5799 62.2271 14.5462 62.1648 14.5245C62.1026 14.5029 62.0366 14.4937 61.9708 14.4975C61.905 14.5014 61.8406 14.5181 61.7813 14.5469C61.7219 14.5756 61.6688 14.6157 61.625 14.665C61.2 15.14 60.285 15.4987 59.5 15.4987C58.715 15.4987 57.7975 15.14 57.375 14.665C57.2867 14.5655 57.1624 14.5052 57.0296 14.4974C56.8968 14.4895 56.7663 14.5347 56.6669 14.6231C56.5674 14.7114 56.5071 14.8357 56.4993 14.9685C56.4914 15.1013 56.5367 15.2317 56.625 15.3312C57.24 16.0187 58.4213 16.4987 59.5 16.4987C60.5788 16.4987 61.7575 16.02 62.375 15.3337V15.3325Z" fill="currentColor"/>
<path d="M115.625 23.415C115.57 23.497 115.5 23.5675 115.418 23.6223C115.337 23.6772 115.245 23.7154 115.148 23.7348C115.052 23.7542 114.952 23.7544 114.856 23.7353C114.759 23.7163 114.667 23.6784 114.585 23.6238C113.751 23.07 113.061 22.7488 112 22.7488C110.939 22.7488 110.25 23.0688 109.415 23.6238C109.333 23.6783 109.241 23.7161 109.144 23.735C109.048 23.754 108.948 23.7537 108.852 23.7342C108.755 23.7147 108.663 23.6763 108.581 23.6214C108.5 23.5664 108.429 23.4958 108.375 23.4138C108.321 23.3317 108.283 23.2397 108.264 23.143C108.245 23.0463 108.245 22.9468 108.265 22.8503C108.284 22.7537 108.322 22.6619 108.377 22.5802C108.432 22.4984 108.503 22.4283 108.585 22.3738C109.601 21.6988 110.57 21.2488 112 21.2488C113.43 21.2488 114.399 21.6988 115.415 22.3738C115.497 22.4283 115.568 22.4984 115.623 22.5803C115.678 22.6622 115.717 22.7541 115.736 22.8508C115.756 22.9475 115.756 23.0472 115.737 23.144C115.718 23.2408 115.68 23.3329 115.625 23.415ZM118.441 14.5C118.059 14.9275 117.224 15.25 116.5 15.25C115.776 15.25 114.941 14.9275 114.559 14.5C114.494 14.424 114.414 14.3618 114.325 14.3169C114.236 14.2721 114.138 14.2455 114.039 14.2388C113.939 14.2321 113.839 14.2455 113.744 14.278C113.65 14.3105 113.563 14.3616 113.488 14.4282C113.414 14.4949 113.353 14.5758 113.311 14.6661C113.268 14.7564 113.244 14.8544 113.239 14.9542C113.235 15.0541 113.25 15.1538 113.285 15.2475C113.32 15.3412 113.373 15.4271 113.441 15.5C114.11 16.25 115.34 16.75 116.5 16.75C117.66 16.75 118.89 16.25 119.559 15.5C119.627 15.4271 119.68 15.3412 119.715 15.2475C119.75 15.1538 119.765 15.0541 119.761 14.9542C119.756 14.8544 119.732 14.7564 119.689 14.6661C119.647 14.5758 119.586 14.4949 119.512 14.4282C119.437 14.3616 119.35 14.3105 119.256 14.278C119.161 14.2455 119.061 14.2321 118.961 14.2388C118.862 14.2455 118.764 14.2721 118.675 14.3169C118.586 14.3618 118.506 14.424 118.441 14.5ZM123.75 6.00002V12.9713C123.75 17.4025 122.559 21.5788 120.396 24.7288C118.175 27.9675 115.193 29.75 112 29.75C108.807 29.75 105.825 27.9675 103.604 24.73C101.441 21.58 100.25 17.4038 100.25 12.9725V6.00002C100.251 5.71619 100.321 5.43688 100.454 5.18618C100.587 4.93548 100.779 4.72091 101.014 4.56098C101.248 4.40104 101.518 4.30055 101.8 4.26815C102.082 4.23575 102.368 4.27243 102.633 4.37502C104.406 5.05752 107.983 6.21252 112 6.21252C116.017 6.21252 119.594 5.05752 121.368 4.37502C121.632 4.27243 121.918 4.23575 122.2 4.26815C122.482 4.30055 122.752 4.40104 122.986 4.56098C123.221 4.72091 123.413 4.93548 123.546 5.18618C123.679 5.43688 123.749 5.71619 123.75 6.00002ZM122.25 6.00002C122.25 5.95938 122.24 5.91933 122.221 5.88335C122.202 5.84736 122.175 5.81652 122.142 5.7935C122.108 5.77047 122.07 5.75596 122.029 5.75122C121.989 5.74647 121.948 5.75164 121.91 5.76627C120.039 6.50002 116.263 7.71252 112 7.71252C107.738 7.71252 103.961 6.50002 102.09 5.76752C102.052 5.75281 102.011 5.74752 101.971 5.75209C101.931 5.75667 101.892 5.77097 101.859 5.79377C101.825 5.81672 101.798 5.8475 101.779 5.88344C101.76 5.91938 101.75 5.95939 101.75 6.00002V12.97C101.75 21.3963 106.349 28.25 112 28.25C117.651 28.25 122.25 21.3963 122.25 12.9725V6.00002ZM110.559 15.5C110.627 15.4271 110.68 15.3412 110.715 15.2475C110.75 15.1538 110.765 15.0541 110.761 14.9542C110.756 14.8544 110.732 14.7564 110.689 14.6661C110.647 14.5758 110.586 14.4949 110.512 14.4282C110.437 14.3616 110.35 14.3105 110.256 14.278C110.161 14.2455 110.061 14.2321 109.961 14.2388C109.862 14.2455 109.764 14.2721 109.675 14.3169C109.586 14.3618 109.506 14.424 109.441 14.5C109.059 14.9275 108.224 15.25 107.5 15.25C106.776 15.25 105.941 14.9275 105.559 14.5C105.425 14.3571 105.24 14.2722 105.044 14.2636C104.849 14.255 104.657 14.3233 104.511 14.454C104.365 14.5846 104.276 14.7672 104.263 14.9627C104.25 15.1582 104.314 15.351 104.441 15.5C105.11 16.25 106.34 16.75 107.5 16.75C108.66 16.75 109.89 16.25 110.559 15.5Z" fill="currentColor"/>
<path d="M171.411 3.93755C171.076 3.70832 170.69 3.56416 170.287 3.51756C169.883 3.47095 169.475 3.52329 169.096 3.67005C167.375 4.34005 163.896 5.46255 160 5.46255C156.104 5.46255 152.625 4.33755 150.904 3.67005C150.525 3.5232 150.116 3.47085 149.713 3.51755C149.309 3.56424 148.923 3.70856 148.588 3.93802C148.253 4.16749 147.978 4.47518 147.789 4.83447C147.599 5.19376 147.5 5.59382 147.5 6.00005V12.9713C147.5 17.5513 148.738 21.8775 150.985 25.1525C153.351 28.6013 156.552 30.5 160 30.5C163.448 30.5 166.649 28.6013 169.015 25.155C171.262 21.875 172.5 17.5538 172.5 12.9738V6.00005C172.5 5.59366 172.401 5.19344 172.211 4.83406C172.021 4.47467 171.747 4.16695 171.411 3.93755ZM169.5 12.9738C169.5 16.9538 168.449 20.6775 166.541 23.4575C164.75 26.0638 162.429 27.5 160 27.5C157.571 27.5 155.25 26.0638 153.459 23.4575C151.551 20.6775 150.5 16.9538 150.5 12.9738V6.7238C152.574 7.46755 156.084 8.4663 160 8.4663C163.916 8.4663 167.426 7.4663 169.5 6.7238V12.9738ZM161.236 14.1888C161.343 14.0229 161.481 13.8797 161.643 13.7672C161.805 13.6548 161.987 13.5753 162.18 13.5334C162.372 13.4915 162.571 13.488 162.765 13.523C162.959 13.558 163.144 13.6309 163.31 13.7375C163.666 13.9641 164.079 14.0845 164.501 14.0845C164.923 14.0845 165.336 13.9641 165.692 13.7375C166.027 13.5221 166.434 13.4484 166.823 13.5328C167.212 13.6172 167.552 13.8527 167.767 14.1875C167.983 14.5224 168.057 14.9291 167.972 15.3182C167.888 15.7074 167.652 16.0471 167.317 16.2625C166.478 16.7999 165.502 17.0855 164.505 17.0855C163.508 17.0855 162.532 16.7999 161.692 16.2625C161.526 16.1565 161.383 16.0186 161.27 15.857C161.157 15.6953 161.077 15.5129 161.034 15.3203C160.992 15.1277 160.988 14.9286 161.023 14.7344C161.057 14.5403 161.13 14.3549 161.236 14.1888ZM158.312 16.2613C157.473 16.799 156.497 17.0847 155.5 17.0847C154.503 17.0847 153.527 16.799 152.688 16.2613C152.353 16.0458 152.117 15.7062 152.033 15.3172C151.991 15.1246 151.988 14.9256 152.023 14.7317C152.058 14.5377 152.131 14.3526 152.238 14.1869C152.345 14.0212 152.483 13.8781 152.645 13.7659C152.807 13.6536 152.99 13.5743 153.182 13.5326C153.571 13.4483 153.978 13.5221 154.312 13.7375C154.669 13.9645 155.082 14.0851 155.504 14.0851C155.927 14.0851 156.34 13.9645 156.696 13.7375C157.031 13.5221 157.437 13.4483 157.827 13.5326C158.216 13.6169 158.555 13.8523 158.771 14.1869C158.986 14.5216 159.06 14.9282 158.976 15.3172C158.891 15.7062 158.656 16.0458 158.321 16.2613H158.312ZM163.798 23.4388C163.699 23.6093 163.567 23.7587 163.411 23.8784C163.255 23.9981 163.076 24.0858 162.886 24.1366C162.695 24.1873 162.497 24.2 162.302 24.174C162.106 24.148 161.918 24.0838 161.747 23.985C161.219 23.6668 160.614 23.4986 159.998 23.4986C159.381 23.4986 158.776 23.6668 158.248 23.985C158.077 24.0936 157.886 24.1665 157.686 24.1993C157.487 24.2321 157.282 24.2242 157.086 24.1761C156.889 24.128 156.705 24.0406 156.543 23.9192C156.381 23.7978 156.245 23.645 156.144 23.4698C156.043 23.2947 155.978 23.1009 155.954 22.9C155.929 22.6992 155.946 22.4955 156.002 22.3012C156.059 22.107 156.154 21.9261 156.282 21.7695C156.41 21.6129 156.568 21.4838 156.748 21.39C157.732 20.8088 158.854 20.5022 159.998 20.5022C161.141 20.5022 162.263 20.8088 163.247 21.39C163.592 21.5888 163.844 21.9163 163.947 22.3005C164.05 22.6847 163.996 23.0942 163.798 23.4388Z" fill="currentColor"/>
<path d="M219.125 4.34998C218.857 4.16595 218.548 4.05027 218.225 4.01301C217.902 3.97575 217.575 4.01806 217.272 4.13623C215.519 4.81873 211.977 5.96373 208 5.96373C204.023 5.96373 200.48 4.81873 198.724 4.13623C198.421 4.0186 198.094 3.9766 197.771 4.01387C197.448 4.05114 197.139 4.16655 196.871 4.35011C196.602 4.53367 196.383 4.77984 196.231 5.06733C196.079 5.35481 196 5.67493 196 5.99998V12.9712C196 17.4512 197.206 21.6775 199.398 24.8687C201.668 28.1762 204.722 29.9937 208 29.9937C211.278 29.9937 214.333 28.1725 216.603 24.8687C218.794 21.68 220 17.4537 220 12.9737V5.99998C219.999 5.67451 219.919 5.35411 219.767 5.06657C219.614 4.77904 219.394 4.53305 219.125 4.34998ZM200.25 15.6662C200.073 15.4673 199.983 15.2063 199.998 14.9406C200.006 14.809 200.039 14.6802 200.097 14.5616C200.154 14.443 200.235 14.3369 200.333 14.2494C200.432 14.1618 200.546 14.0945 200.671 14.0512C200.795 14.008 200.927 13.9898 201.059 13.9975C201.324 14.0131 201.573 14.1336 201.75 14.3325C202.085 14.7075 202.856 15 203.5 15C204.144 15 204.92 14.7062 205.25 14.3325C205.338 14.234 205.444 14.1537 205.562 14.0962C205.681 14.0388 205.81 14.0052 205.941 13.9975C206.073 13.9898 206.205 14.008 206.329 14.0512C206.454 14.0945 206.568 14.1618 206.667 14.2494C206.765 14.3369 206.846 14.443 206.903 14.5616C206.961 14.6802 206.994 14.809 207.002 14.9406C207.01 15.0721 206.991 15.2039 206.948 15.3285C206.905 15.453 206.838 15.5677 206.75 15.6662C206.031 16.4637 204.727 17 203.5 17C202.273 17 200.969 16.4637 200.25 15.6662ZM211.827 23.5537C211.737 23.6902 211.614 23.8023 211.469 23.8802C211.325 23.958 211.164 23.9991 211 24C210.803 24.0003 210.611 23.942 210.448 23.8325C209.634 23.2925 209 23 208 23C207 23 206.366 23.2925 205.554 23.8325C205.333 23.9739 205.065 24.0229 204.809 23.9689C204.552 23.915 204.327 23.7625 204.182 23.5441C204.037 23.3258 203.983 23.0592 204.032 22.8017C204.082 22.5443 204.231 22.3165 204.446 22.1675C205.5 21.4662 206.507 21 208 21C209.493 21 210.5 21.4662 211.554 22.1675C211.775 22.3144 211.928 22.5429 211.98 22.8029C212.032 23.0628 211.979 23.3329 211.833 23.5537H211.827ZM215.74 15.6662C215.026 16.4637 213.722 17 212.49 17C211.257 17 209.959 16.4637 209.24 15.6662C209.063 15.466 208.973 15.2037 208.99 14.937C209.006 14.6704 209.128 14.4212 209.328 14.2444C209.528 14.0675 209.791 13.9774 210.057 13.9939C210.324 14.0105 210.573 14.1322 210.75 14.3325C211.085 14.7075 211.856 15 212.5 15C213.144 15 213.92 14.7062 214.25 14.3325C214.338 14.234 214.444 14.1537 214.562 14.0962C214.681 14.0388 214.81 14.0052 214.941 13.9975C215.073 13.9898 215.205 14.008 215.329 14.0512C215.454 14.0945 215.568 14.1618 215.667 14.2494C215.765 14.3369 215.846 14.443 215.903 14.5616C215.961 14.6802 215.994 14.809 216.002 14.9406C216.01 15.0721 215.991 15.2039 215.948 15.3285C215.905 15.453 215.838 15.5677 215.75 15.6662H215.74Z" fill="currentColor"/>
<path opacity="0.2" d="M267 6.00006V12.9713C267 21.8251 262.075 29.0001 256 29.0001C249.925 29.0001 245 21.8251 245 12.9738V6.00006C245 5.83745 245.039 5.67725 245.115 5.53333C245.191 5.38941 245.3 5.26612 245.434 5.17414C245.568 5.08216 245.723 5.02427 245.884 5.00548C246.046 4.98669 246.21 5.00757 246.361 5.06631C248.25 5.80131 251.889 6.96381 256 6.96381C260.111 6.96381 263.75 5.80131 265.639 5.06881C265.79 5.01015 265.954 4.98924 266.115 5.00791C266.276 5.02657 266.431 5.08424 266.565 5.17594C266.699 5.26763 266.808 5.39058 266.884 5.53417C266.96 5.67776 267 5.83767 267 6.00006Z" fill="currentColor"/>
<path d="M259.833 23.5538C259.686 23.7745 259.457 23.9279 259.197 23.9802C258.937 24.0325 258.667 23.9794 258.446 23.8325C257.634 23.2925 257 23 256 23C255 23 254.366 23.2925 253.554 23.8325C253.333 23.9739 253.065 24.0229 252.809 23.969C252.552 23.9151 252.327 23.7625 252.182 23.5442C252.037 23.3259 251.983 23.0593 252.032 22.8018C252.082 22.5443 252.231 22.3165 252.446 22.1675C253.5 21.4663 254.507 21 256 21C257.493 21 258.5 21.4663 259.554 22.1675C259.775 22.3144 259.928 22.543 259.98 22.8029C260.032 23.0629 259.979 23.333 259.833 23.5538ZM263.667 14.25C263.57 14.1623 263.456 14.0948 263.332 14.0512C263.208 14.0076 263.076 13.9889 262.945 13.9961C262.814 14.0033 262.686 14.0363 262.567 14.0932C262.449 14.15 262.343 14.2297 262.255 14.3275C261.92 14.7025 261.149 14.995 260.505 14.995C259.861 14.995 259.085 14.7013 258.755 14.3275C258.667 14.2287 258.561 14.1482 258.442 14.0905C258.323 14.0329 258.193 13.9992 258.061 13.9915C257.929 13.9838 257.797 14.0021 257.672 14.0455C257.547 14.0889 257.432 14.1565 257.333 14.2444C257.234 14.3323 257.154 14.4388 257.096 14.5578C257.038 14.6769 257.005 14.8061 256.997 14.9381C256.989 15.0702 257.008 15.2024 257.051 15.3274C257.095 15.4523 257.162 15.5675 257.25 15.6663C257.964 16.4638 259.267 17 260.5 17C261.733 17 263.031 16.4638 263.75 15.6663C263.838 15.5681 263.906 15.4534 263.949 15.3289C263.993 15.2045 264.011 15.0726 264.003 14.941C263.996 14.8094 263.962 14.6806 263.904 14.562C263.847 14.4434 263.766 14.3374 263.667 14.25ZM268 6.00003V12.9713C268 17.4513 266.794 21.6775 264.603 24.8688C262.333 28.1763 259.278 29.9938 256 29.9938C252.722 29.9938 249.668 28.1725 247.398 24.8688C245.206 21.68 244 17.4538 244 12.9738V6.00003C244 5.67498 244.079 5.35486 244.231 5.06737C244.383 4.77989 244.602 4.53371 244.871 4.35016C245.139 4.1666 245.448 4.05119 245.771 4.01392C246.094 3.97665 246.421 4.01865 246.724 4.13628C248.48 4.81878 252.023 5.96378 256 5.96378C259.977 5.96378 263.519 4.81878 265.276 4.13628C265.579 4.01865 265.906 3.97665 266.229 4.01392C266.552 4.05119 266.861 4.1666 267.129 4.35016C267.398 4.53371 267.617 4.77989 267.769 5.06737C267.921 5.35486 268 5.67498 268 6.00003ZM266 6.00003C264.112 6.73628 260.304 7.96628 256 7.96628C251.696 7.96628 247.888 6.73378 246 6.00003V12.9738C246 17.0538 247.083 20.8775 249.046 23.74C250.933 26.4875 253.401 28 256 28C258.599 28 261.068 26.4875 262.954 23.74C264.918 20.875 266 17.0538 266 12.9738V6.00003ZM254.75 15.6638C254.837 15.5653 254.905 15.4505 254.948 15.3261C254.991 15.2017 255.009 15.0699 255.001 14.9385C254.993 14.807 254.96 14.6784 254.902 14.56C254.844 14.4415 254.764 14.3356 254.666 14.2482C254.567 14.1607 254.452 14.0936 254.328 14.0505C254.203 14.0075 254.072 13.9893 253.94 13.9972C253.809 14.005 253.68 14.0386 253.562 14.0962C253.443 14.1537 253.337 14.234 253.25 14.3325C252.915 14.7075 252.144 15 251.5 15C250.856 15 250.08 14.7063 249.75 14.3325C249.662 14.234 249.556 14.1538 249.438 14.0963C249.319 14.0388 249.19 14.0052 249.059 13.9975C248.927 13.9898 248.795 14.0081 248.671 14.0513C248.546 14.0945 248.432 14.1618 248.333 14.2494C248.235 14.337 248.154 14.4431 248.097 14.5617C248.039 14.6803 248.006 14.8091 247.998 14.9406C247.99 15.0722 248.009 15.204 248.052 15.3285C248.095 15.453 248.162 15.5678 248.25 15.6663C248.969 16.4638 250.273 17 251.5 17C252.727 17 254.031 16.4638 254.75 15.6663V15.6638Z" fill="currentColor"/>
</g>
<defs>
<clipPath id="clip0_17_15192">
<rect width="272" height="32" rx="5" fill="white"/>
</clipPath>
</defs>
</svg>
