<svg width="272" height="32" viewBox="0 0 272 32" fill="none" xmlns="http://www.w3.org/2000/svg">
<g clip-path="url(#clip0_17_15164)">
<path d="M25.875 4H6.125C5.56141 4 5.02091 4.22388 4.6224 4.6224C4.22388 5.02091 4 5.56141 4 6.125V12.2762C4.00053 12.6846 4.1187 13.0842 4.34039 13.4271C4.56207 13.77 4.87787 14.0419 5.25 14.21L13.075 17.7663C11.9164 18.4146 11.0055 19.429 10.4851 20.6504C9.9647 21.8719 9.86413 23.2314 10.1992 24.5162C10.5342 25.8009 11.2859 26.9383 12.3365 27.75C13.3871 28.5618 14.6773 29.0022 16.005 29.0022C17.3327 29.0022 18.6229 28.5618 19.6735 27.75C20.7241 26.9383 21.4758 25.8009 21.8108 24.5162C22.1459 23.2314 22.0453 21.8719 21.5249 20.6504C21.0045 19.429 20.0936 18.4146 18.935 17.7663L26.75 14.21C27.1221 14.0419 27.4379 13.77 27.6596 13.4271C27.8813 13.0842 27.9995 12.6846 28 12.2762V6.125C28 5.56141 27.7761 5.02091 27.3776 4.6224C26.9791 4.22388 26.4386 4 25.875 4ZM20 6V15.0837L16 16.9013L12 15.0837V6H20ZM6 12.2762V6.125C6 6.09185 6.01317 6.06005 6.03661 6.03661C6.06005 6.01317 6.09185 6 6.125 6H10V14.1737L6.07375 12.39C6.05182 12.3801 6.0332 12.3642 6.02012 12.344C6.00703 12.3238 6.00005 12.3003 6 12.2762ZM16 27C15.2089 27 14.4355 26.7654 13.7777 26.3259C13.1199 25.8864 12.6072 25.2616 12.3045 24.5307C12.0017 23.7998 11.9225 22.9956 12.0769 22.2196C12.2312 21.4437 12.6122 20.731 13.1716 20.1716C13.731 19.6122 14.4437 19.2312 15.2196 19.0769C15.9956 18.9225 16.7998 19.0017 17.5307 19.3045C18.2616 19.6072 18.8864 20.1199 19.3259 20.7777C19.7654 21.4355 20 22.2089 20 23C20 24.0609 19.5786 25.0783 18.8284 25.8284C18.0783 26.5786 17.0609 27 16 27ZM26 12.2762C26 12.3003 25.993 12.3238 25.9799 12.344C25.9668 12.3642 25.9482 12.3801 25.9263 12.39L22 14.1737V6H25.875C25.9082 6 25.9399 6.01317 25.9634 6.03661C25.9868 6.06005 26 6.09185 26 6.125V12.2762Z" fill="currentColor"/>
<path d="M73.875 4.5H54.125C53.9116 4.5 53.7003 4.54203 53.5031 4.6237C53.306 4.70536 53.1268 4.82506 52.976 4.97595C52.8251 5.12685 52.7054 5.30599 52.6237 5.50314C52.542 5.70029 52.5 5.9116 52.5 6.125V12.2762C52.5011 12.5873 52.5914 12.8915 52.7602 13.1527C52.9291 13.414 53.1693 13.6213 53.4525 13.75L62.2925 17.7675C61.0483 18.1738 59.9898 19.0106 59.3072 20.1273C58.6246 21.2441 58.3626 22.5676 58.5684 23.8602C58.7741 25.1528 59.434 26.3297 60.4296 27.1793C61.4252 28.029 62.6911 28.4957 64 28.4957C65.3089 28.4957 66.5748 28.029 67.5704 27.1793C68.566 26.3297 69.2259 25.1528 69.4316 23.8602C69.6374 22.5676 69.3754 21.2441 68.6928 20.1273C68.0102 19.0106 66.9517 18.1738 65.7075 17.7675L74.5475 13.75C74.8307 13.6213 75.0709 13.414 75.2398 13.1527C75.4086 12.8915 75.4989 12.5873 75.5 12.2762V6.125C75.5 5.9116 75.458 5.70029 75.3763 5.50314C75.2946 5.30599 75.1749 5.12685 75.024 4.97595C74.8732 4.82506 74.694 4.70536 74.4969 4.6237C74.2997 4.54203 74.0884 4.5 73.875 4.5ZM68.5 5.5V15.405L64 17.4513L59.5 15.405V5.5H68.5ZM53.5 12.2762V6.125C53.5 5.95924 53.5658 5.80027 53.6831 5.68306C53.8003 5.56585 53.9592 5.5 54.125 5.5H58.5V14.9513L53.8663 12.845C53.7571 12.7953 53.6645 12.7153 53.5995 12.6145C53.5346 12.5136 53.5 12.3962 53.5 12.2762ZM68.5 23C68.5 23.89 68.2361 24.76 67.7416 25.5001C67.2471 26.2401 66.5443 26.8169 65.7221 27.1575C64.8998 27.4981 63.995 27.5872 63.1221 27.4135C62.2492 27.2399 61.4474 26.8113 60.818 26.182C60.1887 25.5526 59.7601 24.7508 59.5865 23.8779C59.4128 23.005 59.5019 22.1002 59.8425 21.2779C60.1831 20.4557 60.7599 19.7529 61.4999 19.2584C62.24 18.7639 63.11 18.5 64 18.5C65.1935 18.5 66.3381 18.9741 67.182 19.818C68.0259 20.6619 68.5 21.8065 68.5 23ZM74.5 12.2762C74.5 12.3962 74.4654 12.5136 74.4005 12.6145C74.3355 12.7153 74.2429 12.7953 74.1338 12.845L69.5 14.9513V5.5H73.875C74.0408 5.5 74.1997 5.56585 74.3169 5.68306C74.4342 5.80027 74.5 5.95924 74.5 6.125V12.2762Z" fill="currentColor"/>
<path d="M121.875 4.25H102.125C101.628 4.25 101.151 4.44754 100.799 4.79917C100.448 5.15081 100.25 5.62772 100.25 6.125V12.2762C100.25 12.6361 100.354 12.9883 100.549 13.2909C100.743 13.5934 101.021 13.8335 101.349 13.9825L109.649 17.75C108.448 18.2882 107.467 19.2222 106.872 20.396C106.277 21.5698 106.102 22.9124 106.377 24.1995C106.652 25.4866 107.361 26.6403 108.384 27.468C109.407 28.2957 110.684 28.7473 112 28.7473C113.316 28.7473 114.593 28.2957 115.616 27.468C116.639 26.6403 117.348 25.4866 117.623 24.1995C117.898 22.9124 117.723 21.5698 117.128 20.396C116.533 19.2222 115.552 18.2882 114.351 17.75L122.651 13.9775C122.978 13.8289 123.255 13.5896 123.45 13.288C123.645 12.9864 123.749 12.6353 123.75 12.2762V6.125C123.75 5.62772 123.552 5.15081 123.201 4.79917C122.849 4.44754 122.372 4.25 121.875 4.25ZM116.25 5.75V15.25L112 17.1812L107.75 15.25V5.75H116.25ZM101.75 12.2762V6.125C101.75 6.02554 101.79 5.93016 101.86 5.85984C101.93 5.78951 102.026 5.75 102.125 5.75H106.25V14.5625L101.97 12.6175C101.904 12.5877 101.849 12.5397 101.81 12.4792C101.771 12.4187 101.75 12.3482 101.75 12.2762ZM116.25 23C116.25 23.8406 116.001 24.6623 115.534 25.3612C115.067 26.0601 114.403 26.6048 113.626 26.9265C112.85 27.2482 111.995 27.3323 111.171 27.1683C110.346 27.0043 109.589 26.5996 108.995 26.0052C108.4 25.4108 107.996 24.6536 107.832 23.8291C107.668 23.0047 107.752 22.1502 108.074 21.3736C108.395 20.597 108.94 19.9332 109.639 19.4663C110.338 18.9993 111.159 18.75 112 18.75C113.127 18.75 114.208 19.1978 115.005 19.9948C115.802 20.7918 116.25 21.8728 116.25 23ZM122.25 12.2762C122.25 12.3482 122.229 12.4187 122.19 12.4792C122.151 12.5397 122.096 12.5877 122.03 12.6175L117.75 14.5625V5.75H121.875C121.974 5.75 122.07 5.78951 122.14 5.85984C122.21 5.93016 122.25 6.02554 122.25 6.125V12.2762Z" fill="currentColor"/>
<path d="M169.875 3.5H150.125C149.429 3.5 148.761 3.77656 148.269 4.26884C147.777 4.76113 147.5 5.42881 147.5 6.125V12.2762C147.5 12.7801 147.645 13.2733 147.918 13.6968C148.191 14.1204 148.58 14.4565 149.039 14.665L156.039 17.8487C154.961 18.6756 154.17 19.8191 153.776 21.1188C153.382 22.4184 153.405 23.8088 153.841 25.0948C154.278 26.3808 155.106 27.4977 156.21 28.2887C157.314 29.0797 158.638 29.5051 159.996 29.5051C161.354 29.5051 162.678 29.0797 163.782 28.2887C164.886 27.4977 165.715 26.3808 166.151 25.0948C166.588 23.8088 166.611 22.4184 166.217 21.1188C165.822 19.8191 165.031 18.6756 163.954 17.8487L170.954 14.665C171.414 14.4576 171.804 14.122 172.079 13.6983C172.353 13.2747 172.499 12.7809 172.5 12.2762V6.125C172.5 5.42881 172.223 4.76113 171.731 4.26884C171.239 3.77656 170.571 3.5 169.875 3.5ZM160 16.3525L156.5 14.7612V6.5H163.5V14.7612L160 16.3525ZM150.5 6.5H153.5V13.3975L150.5 12.0337V6.5ZM160 26.5C159.308 26.5 158.631 26.2947 158.056 25.9101C157.48 25.5256 157.031 24.9789 156.766 24.3394C156.502 23.6999 156.432 22.9961 156.567 22.3172C156.702 21.6383 157.036 21.0146 157.525 20.5251C158.015 20.0356 158.638 19.7023 159.317 19.5673C159.996 19.4322 160.7 19.5015 161.339 19.7664C161.979 20.0313 162.526 20.4799 162.91 21.0555C163.295 21.6311 163.5 22.3078 163.5 23C163.5 23.9283 163.131 24.8185 162.475 25.4749C161.818 26.1313 160.928 26.5 160 26.5ZM169.5 12.0337L166.5 13.3975V6.5H169.5V12.0337Z" fill="currentColor"/>
<path d="M217.875 4H198.125C197.561 4 197.021 4.22388 196.622 4.6224C196.224 5.02091 196 5.56141 196 6.125V12.2762C196.001 12.6846 196.119 13.0842 196.34 13.4271C196.562 13.77 196.878 14.0419 197.25 14.21L205.075 17.7663C203.916 18.4146 203.006 19.429 202.485 20.6504C201.965 21.8719 201.864 23.2314 202.199 24.5162C202.534 25.8009 203.286 26.9383 204.336 27.75C205.387 28.5618 206.677 29.0022 208.005 29.0022C209.333 29.0022 210.623 28.5618 211.674 27.75C212.724 26.9383 213.476 25.8009 213.811 24.5162C214.146 23.2314 214.045 21.8719 213.525 20.6504C213.004 19.429 212.094 18.4146 210.935 17.7663L218.75 14.21C219.122 14.0419 219.438 13.77 219.66 13.4271C219.881 13.0842 219.999 12.6846 220 12.2762V6.125C220 5.56141 219.776 5.02091 219.378 4.6224C218.979 4.22388 218.439 4 217.875 4ZM204 6H212V15.0837L208 16.9013L204 15.0837V6ZM208 27C207.209 27 206.436 26.7654 205.778 26.3259C205.12 25.8864 204.607 25.2616 204.304 24.5307C204.002 23.7998 203.923 22.9956 204.077 22.2196C204.231 21.4437 204.612 20.731 205.172 20.1716C205.731 19.6122 206.444 19.2312 207.22 19.0769C207.996 18.9225 208.8 19.0017 209.531 19.3045C210.262 19.6072 210.886 20.1199 211.326 20.7777C211.765 21.4355 212 22.2089 212 23C212 24.0609 211.579 25.0783 210.828 25.8284C210.078 26.5786 209.061 27 208 27Z" fill="currentColor"/>
<path opacity="0.2" d="M261 23C261 23.9889 260.707 24.9556 260.157 25.7779C259.608 26.6001 258.827 27.241 257.913 27.6194C257 27.9978 255.994 28.0969 255.025 27.9039C254.055 27.711 253.164 27.2348 252.464 26.5355C251.765 25.8363 251.289 24.9454 251.096 23.9755C250.903 23.0055 251.002 22.0002 251.381 21.0866C251.759 20.173 252.4 19.3921 253.222 18.8427C254.044 18.2932 255.011 18 256 18C257.326 18 258.598 18.5268 259.536 19.4645C260.473 20.4021 261 21.6739 261 23ZM265.875 5H261V15.7275L266.34 13.3C266.537 13.2106 266.704 13.0664 266.821 12.8846C266.938 12.7029 267 12.4912 267 12.275V6.125C267 5.82663 266.881 5.54048 266.67 5.3295C266.46 5.11853 266.173 5 265.875 5ZM251 5H246.125C245.827 5 245.54 5.11853 245.33 5.3295C245.119 5.54048 245 5.82663 245 6.125V12.275C245 12.4912 245.062 12.7029 245.179 12.8846C245.296 13.0664 245.463 13.2106 245.66 13.3L251 15.7275V5Z" fill="currentColor"/>
<path d="M265.875 4H246.125C245.561 4 245.021 4.22388 244.622 4.6224C244.224 5.02091 244 5.56141 244 6.125V12.2762C244.001 12.6846 244.119 13.0842 244.34 13.4271C244.562 13.77 244.878 14.0419 245.25 14.21L253.075 17.7663C251.916 18.4146 251.006 19.429 250.485 20.6504C249.965 21.8719 249.864 23.2314 250.199 24.5162C250.534 25.8009 251.286 26.9383 252.336 27.75C253.387 28.5618 254.677 29.0022 256.005 29.0022C257.333 29.0022 258.623 28.5618 259.674 27.75C260.724 26.9383 261.476 25.8009 261.811 24.5162C262.146 23.2314 262.045 21.8719 261.525 20.6504C261.004 19.429 260.094 18.4146 258.935 17.7663L266.75 14.21C267.122 14.0419 267.438 13.77 267.66 13.4271C267.881 13.0842 267.999 12.6846 268 12.2762V6.125C268 5.56141 267.776 5.02091 267.378 4.6224C266.979 4.22388 266.439 4 265.875 4ZM260 6V15.0837L256 16.9013L252 15.0837V6H260ZM246 12.2762V6.125C246 6.09185 246.013 6.06005 246.037 6.03661C246.06 6.01317 246.092 6 246.125 6H250V14.1737L246.074 12.39C246.052 12.3801 246.033 12.3642 246.02 12.344C246.007 12.3238 246 12.3003 246 12.2762ZM256 27C255.209 27 254.436 26.7654 253.778 26.3259C253.12 25.8864 252.607 25.2616 252.304 24.5307C252.002 23.7998 251.923 22.9956 252.077 22.2196C252.231 21.4437 252.612 20.731 253.172 20.1716C253.731 19.6122 254.444 19.2312 255.22 19.0769C255.996 18.9225 256.8 19.0017 257.531 19.3045C258.262 19.6072 258.886 20.1199 259.326 20.7777C259.765 21.4355 260 22.2089 260 23C260 24.0609 259.579 25.0783 258.828 25.8284C258.078 26.5786 257.061 27 256 27ZM266 12.2762C266 12.3003 265.993 12.3238 265.98 12.344C265.967 12.3642 265.948 12.3801 265.926 12.39L262 14.1737V6H265.875C265.908 6 265.94 6.01317 265.963 6.03661C265.987 6.06005 266 6.09185 266 6.125V12.2762Z" fill="currentColor"/>
</g>
<defs>
<clipPath id="clip0_17_15164">
<rect width="272" height="32" rx="5" fill="white"/>
</clipPath>
</defs>
</svg>
