<svg width="272" height="32" viewBox="0 0 272 32" fill="none" xmlns="http://www.w3.org/2000/svg">
<g clip-path="url(#clip0_17_15150)">
<path d="M29 15C28.996 11.5534 27.6251 8.24911 25.188 5.812C22.7509 3.37488 19.4466 2.00397 16 2C12.5534 2.00397 9.24911 3.37488 6.812 5.812C4.37489 8.24911 3.00397 11.5534 3 15C2.99973 15.151 3.03393 15.3001 3.09999 15.436C3.16606 15.5718 3.26226 15.6907 3.38125 15.7837C3.3869 15.7898 3.39319 15.7953 3.4 15.8L15 24.5V27H14C13.7348 27 13.4804 27.1054 13.2929 27.2929C13.1054 27.4804 13 27.7348 13 28C13 28.2652 13.1054 28.5196 13.2929 28.7071C13.4804 28.8946 13.7348 29 14 29H18C18.2652 29 18.5196 28.8946 18.7071 28.7071C18.8946 28.5196 19 28.2652 19 28C19 27.7348 18.8946 27.4804 18.7071 27.2929C18.5196 27.1054 18.2652 27 18 27H17V24.5L28.6 15.8C28.7242 15.7069 28.825 15.5861 28.8944 15.4472C28.9639 15.3084 29 15.1552 29 15ZM26.955 14H21.9788C21.7863 9.25625 20.24 6.19625 18.84 4.375C21.0133 4.95932 22.9558 6.19474 24.4064 7.91532C25.857 9.63589 26.7464 11.7592 26.955 14ZM16 4.25C16.6698 4.84187 17.2538 5.52428 17.735 6.2775C18.6863 7.75 19.8063 10.2338 19.9775 14H12.0225C12.1938 10.2338 13.3138 7.75 14.265 6.2825C14.7459 5.52754 15.3299 4.84344 16 4.25ZM19.3 16L16 21.9412L12.7 16H19.3ZM10.4113 16L12.8488 20.3862L7 16H10.4113ZM21.5888 16H25L19.1513 20.3862L21.5888 16ZM13.16 4.375C11.76 6.19625 10.2138 9.25625 10.0213 14H5.045C5.2536 11.7592 6.14295 9.63589 7.5936 7.91532C9.04424 6.19474 10.9867 4.95932 13.16 4.375Z" fill="currentColor"/>
<path d="M76.5 15C76.5 11.6848 75.183 8.50537 72.8388 6.16117C70.4946 3.81696 67.3152 2.5 64 2.5C60.6848 2.5 57.5054 3.81696 55.1612 6.16117C52.817 8.50537 51.5 11.6848 51.5 15C51.5002 15.0692 51.5147 15.1375 51.5427 15.2008C51.5707 15.264 51.6115 15.3208 51.6625 15.3675C51.6742 15.3792 51.6867 15.3901 51.7 15.4L63.5 24.25V27.5H62C61.8674 27.5 61.7402 27.5527 61.6464 27.6464C61.5527 27.7402 61.5 27.8674 61.5 28C61.5 28.1326 61.5527 28.2598 61.6464 28.3536C61.7402 28.4473 61.8674 28.5 62 28.5H66C66.1326 28.5 66.2598 28.4473 66.3536 28.3536C66.4473 28.2598 66.5 28.1326 66.5 28C66.5 27.8674 66.4473 27.7402 66.3536 27.6464C66.2598 27.5527 66.1326 27.5 66 27.5H64.5V24.25L76.3 15.4C76.3621 15.3534 76.4125 15.293 76.4472 15.2236C76.4819 15.1542 76.5 15.0776 76.5 15ZM75.4888 14.5H69.5C69.375 8.4225 67.0162 5.1075 65.5 3.59875C68.1795 3.95482 70.6484 5.24199 72.4746 7.23494C74.3007 9.22789 75.3677 11.7996 75.4888 14.5ZM64 3.61125C64.8333 4.26938 65.5514 5.06142 66.125 5.955C67.17 7.54125 68.4088 10.2937 68.5 14.5H59.5063C59.5975 10.2937 60.8363 7.54125 61.8813 5.955C62.4526 5.06163 63.1686 4.26956 64 3.61125ZM68.15 15.5L64 22.97L59.85 15.5H68.15ZM58.7063 15.5L62.4237 22.1925L53.5 15.5H58.7063ZM69.2938 15.5H74.5L65.5763 22.1925L69.2938 15.5ZM62.5 3.59875C60.9838 5.1075 58.625 8.4225 58.5 14.5H52.5113C52.6323 11.7996 53.6993 9.22789 55.5254 7.23494C57.3516 5.24199 59.8205 3.95482 62.5 3.59875Z" fill="currentColor"/>
<path d="M124.75 15C124.75 11.6185 123.407 8.37548 121.016 5.98439C118.625 3.5933 115.382 2.25 112 2.25C108.618 2.25 105.375 3.5933 102.984 5.98439C100.593 8.37548 99.25 11.6185 99.25 15C99.2502 15.1128 99.2758 15.224 99.3249 15.3255C99.374 15.427 99.4454 15.5161 99.5338 15.5863L99.55 15.6L111.25 24.375V27.25H110C109.801 27.25 109.61 27.329 109.47 27.4697C109.329 27.6103 109.25 27.8011 109.25 28C109.25 28.1989 109.329 28.3897 109.47 28.5303C109.61 28.671 109.801 28.75 110 28.75H114C114.199 28.75 114.39 28.671 114.53 28.5303C114.671 28.3897 114.75 28.1989 114.75 28C114.75 27.8011 114.671 27.6103 114.53 27.4697C114.39 27.329 114.199 27.25 114 27.25H112.75V24.375L124.45 15.6C124.543 15.5301 124.619 15.4396 124.671 15.3354C124.723 15.2313 124.75 15.1164 124.75 15ZM123.225 14.25H117.737C117.575 8.885 115.675 5.6725 114.184 3.9625C116.611 4.4471 118.811 5.71696 120.445 7.57617C122.079 9.43537 123.056 11.7806 123.225 14.25ZM112 3.92875C112.75 4.55866 113.4 5.29925 113.927 6.125C115.657 8.76 116.155 11.875 116.236 14.25H107.764C107.896 10.265 109.075 7.6425 110.073 6.125C110.599 5.29872 111.249 4.55803 112 3.92875ZM115.725 15.75L112 22.4562L108.275 15.75H115.725ZM106.559 15.75L109.636 21.29L102.25 15.75H106.559ZM117.441 15.75H121.75L114.364 21.29L117.441 15.75ZM109.816 3.9625C108.325 5.6725 106.425 8.885 106.262 14.25H100.775C100.944 11.7806 101.921 9.43537 103.555 7.57617C105.189 5.71696 107.389 4.4471 109.816 3.9625Z" fill="currentColor"/>
<path d="M173.5 15C173.496 11.4208 172.072 7.98932 169.542 5.45844C167.011 2.92756 163.579 1.50397 160 1.5C156.421 1.50397 152.989 2.92756 150.458 5.45844C147.928 7.98932 146.504 11.4208 146.5 15C146.5 15.2064 146.543 15.4105 146.626 15.5996C146.709 15.7886 146.83 15.9586 146.981 16.0987L147.009 16.1238C147.03 16.1425 147.053 16.1625 147.076 16.18L147.1 16.2L158.5 24.75V26.5H158C157.602 26.5 157.221 26.658 156.939 26.9393C156.658 27.2206 156.5 27.6022 156.5 28C156.5 28.3978 156.658 28.7794 156.939 29.0607C157.221 29.342 157.602 29.5 158 29.5H162C162.398 29.5 162.779 29.342 163.061 29.0607C163.342 28.7794 163.5 28.3978 163.5 28C163.5 27.6022 163.342 27.2206 163.061 26.9393C162.779 26.658 162.398 26.5 162 26.5H161.5V24.75L172.9 16.2C173.086 16.0603 173.237 15.8791 173.342 15.6708C173.446 15.4625 173.5 15.2329 173.5 15ZM170.394 13.5H166.454C166.23 9.84125 165.204 7.18375 164.087 5.33C165.751 6.03633 167.205 7.15891 168.31 8.58975C169.414 10.0206 170.132 11.7116 170.394 13.5ZM156.552 13.5C156.894 8.595 158.875 6.01375 160 4.9225C161.125 6.01375 163.106 8.595 163.448 13.5H156.552ZM155.913 5.33C154.788 7.18375 153.77 9.84125 153.546 13.5H149.606C149.868 11.7116 150.586 10.0206 151.69 8.58975C152.795 7.15891 154.249 6.03633 155.913 5.33ZM152.5 16.5H158.5V21L152.5 16.5ZM161.5 16.5H167.5L161.5 21V16.5Z" fill="currentColor"/>
<path d="M221 15C220.996 11.5534 219.625 8.24911 217.188 5.812C214.751 3.37488 211.447 2.00397 208 2C204.553 2.00397 201.249 3.37488 198.812 5.812C196.375 8.24911 195.004 11.5534 195 15C195 15.1551 195.037 15.3081 195.106 15.4467C195.176 15.5853 195.277 15.7059 195.401 15.7987L207 24.5V27H206C205.735 27 205.48 27.1054 205.293 27.2929C205.105 27.4804 205 27.7348 205 28C205 28.2652 205.105 28.5196 205.293 28.7071C205.48 28.8946 205.735 29 206 29H210C210.265 29 210.52 28.8946 210.707 28.7071C210.895 28.5196 211 28.2652 211 28C211 27.7348 210.895 27.4804 210.707 27.2929C210.52 27.1054 210.265 27 210 27H209V24.5L220.6 15.8C220.724 15.7069 220.825 15.5861 220.894 15.4472C220.964 15.3084 221 15.1552 221 15ZM218.955 14H213.979C213.786 9.25625 212.24 6.19625 210.84 4.375C213.013 4.95932 214.956 6.19474 216.406 7.91532C217.857 9.63589 218.746 11.7592 218.955 14ZM211.3 16L208 21.9412L204.7 16H211.3ZM202.411 16L204.849 20.3862L199 16H202.411ZM213.589 16H217L211.151 20.3862L213.589 16ZM205.16 4.375C203.76 6.19625 202.214 9.25625 202.021 14H197.045C197.254 11.7592 198.143 9.63589 199.594 7.91532C201.044 6.19474 202.987 4.95932 205.16 4.375Z" fill="currentColor"/>
<path opacity="0.2" d="M256 3C256 3 251 6 251 15H244C244 11.8174 245.264 8.76515 247.515 6.51472C249.765 4.26428 252.817 3 256 3ZM256 3C256 3 261 6 261 15H268C268 11.8174 266.736 8.76515 264.485 6.51472C262.235 4.26428 259.183 3 256 3Z" fill="currentColor"/>
<path d="M269 15C268.996 11.5534 267.625 8.24911 265.188 5.812C262.751 3.37488 259.447 2.00397 256 2C252.553 2.00397 249.249 3.37488 246.812 5.812C244.375 8.24911 243.004 11.5534 243 15C243 15.1529 243.035 15.3038 243.103 15.441C243.171 15.5781 243.269 15.698 243.39 15.7913L243.4 15.8L255 24.5V27H254C253.735 27 253.48 27.1054 253.293 27.2929C253.105 27.4804 253 27.7348 253 28C253 28.2652 253.105 28.5196 253.293 28.7071C253.48 28.8946 253.735 29 254 29H258C258.265 29 258.52 28.8946 258.707 28.7071C258.895 28.5196 259 28.2652 259 28C259 27.7348 258.895 27.4804 258.707 27.2929C258.52 27.1054 258.265 27 258 27H257V24.5L268.6 15.8C268.724 15.7069 268.825 15.5861 268.894 15.4472C268.964 15.3084 269 15.1552 269 15ZM266.955 14H261.979C261.786 9.25625 260.24 6.19625 258.84 4.375C261.013 4.95932 262.956 6.19474 264.406 7.91532C265.857 9.63589 266.746 11.7592 266.955 14ZM256 4.25C256.67 4.84187 257.254 5.52428 257.735 6.2775C258.686 7.75 259.806 10.2338 259.978 14H252.023C252.194 10.2338 253.314 7.75 254.265 6.2825C254.746 5.52754 255.33 4.84344 256 4.25ZM259.3 16L256 21.9412L252.7 16H259.3ZM250.411 16L252.849 20.3862L247 16H250.411ZM261.589 16H265L259.151 20.3862L261.589 16ZM253.16 4.375C251.76 6.19625 250.214 9.25625 250.021 14H245.045C245.254 11.7592 246.143 9.63589 247.594 7.91532C249.044 6.19474 250.987 4.95932 253.16 4.375Z" fill="currentColor"/>
</g>
<defs>
<clipPath id="clip0_17_15150">
<rect width="272" height="32" rx="5" fill="white"/>
</clipPath>
</defs>
</svg>
