<svg width="272" height="32" viewBox="0 0 272 32" fill="none" xmlns="http://www.w3.org/2000/svg">
<g clip-path="url(#clip0_17_15136)">
<path d="M28.7074 27.2925L22.6549 21.2412C22.7924 21.2 22.9287 21.1562 23.0637 21.1075C24.9316 20.4271 26.4529 19.033 27.2934 17.2315C28.1339 15.43 28.2249 13.3685 27.5462 11.5C27.4554 11.2509 27.2695 11.0481 27.0293 10.936C26.789 10.824 26.5141 10.8119 26.2649 10.9025L20.7399 12.9125C20.7799 12.835 20.8199 12.7575 20.8562 12.6775C21.4834 11.3336 21.698 9.83386 21.473 8.36796C21.248 6.90206 20.5934 5.53577 19.592 4.44182C18.5907 3.34786 17.2874 2.57535 15.8471 2.22193C14.4067 1.86851 12.894 1.95005 11.4999 2.45625C11.3762 2.50069 11.2624 2.56911 11.1651 2.65759C11.0678 2.74607 10.9889 2.85287 10.9329 2.97189C10.8769 3.0909 10.845 3.21979 10.8389 3.35116C10.8328 3.48254 10.8527 3.61382 10.8974 3.7375L12.9074 9.2625C12.8299 9.2225 12.7524 9.1825 12.6724 9.14625C11.3282 8.51987 9.82847 8.30606 8.36276 8.53185C6.89705 8.75763 5.53117 9.41288 4.43778 10.4148C3.34438 11.4167 2.57255 12.7202 2.21985 14.1607C1.86714 15.6011 1.94939 17.1138 2.45619 18.5075C2.54694 18.7566 2.73288 18.9594 2.97313 19.0715C3.21339 19.1835 3.4883 19.1956 3.73744 19.105L9.26244 17.0937C9.22244 17.1725 9.18244 17.25 9.14619 17.33C8.51981 18.6742 8.306 20.174 8.53179 21.6397C8.75758 23.1054 9.41283 24.4713 10.4147 25.5647C11.4166 26.6581 12.7202 27.4299 14.1606 27.7826C15.6011 28.1353 17.1137 28.0531 18.5074 27.5462C18.7565 27.4555 18.9594 27.2696 19.0714 27.0293C19.1835 26.7891 19.1955 26.5141 19.1049 26.265L17.0937 20.74C17.1724 20.78 17.2499 20.82 17.3299 20.8562C18.2123 21.2694 19.1668 21.5064 20.1399 21.5537L27.2924 28.7075C27.4801 28.8951 27.7346 29.0006 27.9999 29.0006C28.2653 29.0006 28.5198 28.8951 28.7074 28.7075C28.8951 28.5199 29.0005 28.2654 29.0005 28C29.0005 27.7346 28.8951 27.4801 28.7074 27.2925ZM16.3837 4.51875C17.2937 4.9416 18.0707 5.60537 18.6306 6.43816C19.1904 7.27096 19.5117 8.24104 19.5598 9.24337C19.6078 10.2457 19.3807 11.2421 18.903 12.1246C18.4254 13.0071 17.7154 13.7421 16.8499 14.25L13.1487 4.07875C14.2467 3.89164 15.3756 4.04519 16.3837 4.51875ZM4.07869 16.8525C3.86146 15.5825 4.09695 14.2766 4.7441 13.1626C5.39125 12.0485 6.40897 11.1969 7.61975 10.7565C8.83053 10.3161 10.1575 10.3147 11.3692 10.7525C12.5809 11.1904 13.6004 12.0398 14.2499 13.1525L4.07869 16.8525ZM13.6249 25.4837C12.7161 25.0604 11.9403 24.3967 11.3814 23.5644C10.8225 22.7321 10.5016 21.7629 10.4536 20.7615C10.4056 19.7601 10.6323 18.7646 11.109 17.8826C11.5858 17.0007 12.2946 16.2658 13.1587 15.7575L16.8587 25.9237C15.7611 26.1108 14.6326 25.9573 13.6249 25.4837ZM20.5699 19.5612H20.5562C19.5899 19.5686 18.6386 19.322 17.7976 18.8462C16.9565 18.3704 16.2551 17.682 15.7637 16.85L25.9299 13.1487C26.0604 13.9317 26.0202 14.7336 25.8119 15.4995C25.6036 16.2655 25.2322 16.9773 24.7231 17.5864C24.214 18.1954 23.5793 18.6872 22.8625 19.028C22.1457 19.3689 21.3636 19.5508 20.5699 19.5612Z" fill="currentColor"/>
<path d="M76.3537 27.6462L69.6687 20.9625C70.0855 20.8908 70.495 20.782 70.8925 20.6375C72.6368 20.0025 74.0576 18.7006 74.8422 17.0182C75.6268 15.3358 75.7109 13.4107 75.0762 11.6662C75.0537 11.6045 75.0193 11.5478 74.9749 11.4993C74.9305 11.4509 74.877 11.4117 74.8175 11.3839C74.7579 11.3562 74.6935 11.3405 74.6279 11.3376C74.5622 11.3348 74.4967 11.3449 74.435 11.3675L67.5212 13.8837C67.8705 13.446 68.1667 12.9685 68.4037 12.4612C68.9883 11.2066 69.1879 9.80677 68.9771 8.43876C68.7663 7.07074 68.1547 5.79592 67.2196 4.77543C66.2845 3.75493 65.0678 3.03459 63.7233 2.70544C62.3789 2.37629 60.967 2.45311 59.6662 2.9262C59.5418 2.97158 59.4405 3.06445 59.3845 3.18443C59.3285 3.30441 59.3224 3.44171 59.3675 3.5662L61.8837 10.4812C61.4463 10.1315 60.9688 9.83526 60.4612 9.5987C59.2066 9.01408 57.8068 8.81454 56.4388 9.02531C55.0707 9.23607 53.7959 9.84767 52.7754 10.7828C51.7549 11.718 51.0346 12.9346 50.7054 14.2791C50.3763 15.6235 50.4531 17.0354 50.9262 18.3362C50.9478 18.399 50.9817 18.4569 51.0259 18.5065C51.0701 18.5561 51.1238 18.5963 51.1837 18.625C51.2433 18.6527 51.3077 18.6683 51.3733 18.6711C51.439 18.6739 51.5045 18.6638 51.5662 18.6412L58.4812 16.125C57.5253 17.3167 56.9856 18.7884 56.9443 20.3156C56.903 21.8427 57.3625 23.3414 58.2526 24.5831C59.1426 25.8247 60.4145 26.7411 61.874 27.1923C63.3336 27.6436 64.9006 27.605 66.3362 27.0825C66.3979 27.06 66.4546 27.0256 66.5031 26.9812C66.5515 26.9368 66.5907 26.8833 66.6185 26.8237C66.6462 26.7642 66.662 26.6997 66.6648 26.6341C66.6676 26.5685 66.6575 26.5029 66.635 26.4412L64.125 19.5212C64.5625 19.8707 65.04 20.167 65.5475 20.4037C66.4283 20.8152 67.3854 21.0383 68.3575 21.0587L75.6525 28.3537C75.7463 28.4475 75.8735 28.5002 76.0062 28.5002C76.1389 28.5002 76.2661 28.4475 76.36 28.3537C76.4538 28.2599 76.5065 28.1326 76.5065 28C76.5065 27.8673 76.4538 27.74 76.36 27.6462H76.3537ZM60.485 3.7137C61.9372 3.318 63.4851 3.48256 64.8216 4.17475C66.1582 4.86694 67.1857 6.03619 67.7005 7.45057C68.2153 8.86496 68.1797 10.4212 67.6007 11.8105C67.0218 13.1999 65.9418 14.3209 64.575 14.9512L60.485 3.7137ZM63.6362 15.2975L62.705 15.6362L62.365 14.705L63.2975 14.365L63.6362 15.2975ZM51.7137 17.5175C51.318 16.0652 51.4826 14.5173 52.1747 13.1808C52.8669 11.8442 54.0362 10.8167 55.4506 10.3019C56.865 9.78711 58.4212 9.82273 59.8105 10.4017C61.1999 10.9806 62.3209 12.0606 62.9512 13.4275L51.7137 17.5175ZM65.5175 26.2887C64.0652 26.6844 62.5173 26.5198 61.1808 25.8277C59.8442 25.1355 58.8167 23.9662 58.3019 22.5518C57.7871 21.1374 57.8227 19.5812 58.4017 18.1919C58.9806 16.8025 60.0606 15.6815 61.4275 15.0512L65.5175 26.2887ZM68.5537 20.0612C67.3989 20.0699 66.266 19.7458 65.2906 19.1275C64.3152 18.5093 63.5386 17.6231 63.0537 16.575L74.2912 12.485C74.5321 13.3696 74.5671 14.2977 74.3934 15.198C74.2198 16.0983 73.8421 16.9468 73.2894 17.6783C72.7367 18.4099 72.0237 19.0051 71.2052 19.4182C70.3866 19.8312 69.4843 20.0512 68.5675 20.0612H68.5537Z" fill="currentColor"/>
<path d="M124.53 27.4701L118.172 21.1126C118.445 21.0477 118.715 20.9675 118.979 20.8726C120.785 20.2148 122.257 18.8663 123.069 17.1236C123.882 15.3809 123.969 13.3869 123.311 11.5801C123.243 11.3933 123.103 11.2412 122.923 11.1573C122.743 11.0734 122.537 11.0645 122.35 11.1326L116.187 13.3751C116.351 13.1152 116.499 12.8455 116.63 12.5676C117.235 11.2681 117.442 9.81832 117.224 8.40148C117.005 6.98464 116.372 5.66434 115.403 4.60747C114.434 3.5506 113.174 2.80459 111.782 2.46375C110.389 2.12291 108.927 2.20254 107.58 2.69257C107.393 2.76075 107.241 2.9003 107.157 3.08055C107.073 3.2608 107.064 3.467 107.132 3.65382L109.375 9.81506C109.115 9.65206 108.845 9.50512 108.567 9.37507C107.268 8.76966 105.818 8.56309 104.401 8.78147C102.985 8.99984 101.664 9.63335 100.607 10.6019C99.5505 11.5705 98.8045 12.8307 98.4636 14.2231C98.1228 15.6156 98.2024 17.0778 98.6924 18.4251C98.7606 18.6117 98.8999 18.7636 99.0799 18.8476C99.1692 18.8892 99.2659 18.9129 99.3643 18.9172C99.4628 18.9214 99.5611 18.9063 99.6537 18.8726L105.815 16.6251C105.651 16.8855 105.504 17.1561 105.375 17.4351C104.862 18.5395 104.635 19.7552 104.715 20.9703C104.795 22.1854 105.18 23.3608 105.834 24.3883C106.487 25.4157 107.389 26.2622 108.456 26.8497C109.522 27.4372 110.72 27.7468 111.937 27.7501C112.785 27.7488 113.626 27.5994 114.422 27.3088C114.61 27.2416 114.762 27.1029 114.847 26.9231C114.932 26.7433 114.942 26.5372 114.875 26.3501L112.625 20.1876C113.712 20.8767 114.964 21.263 116.25 21.3063L123.474 28.5301C123.616 28.6625 123.804 28.7347 123.998 28.7312C124.193 28.7278 124.378 28.6491 124.515 28.5117C124.653 28.3743 124.731 28.1889 124.735 27.9946C124.738 27.8003 124.666 27.6122 124.534 27.4701H124.53ZM108.815 3.88882C110.177 3.58575 111.603 3.78857 112.827 4.45944C114.051 5.13032 114.989 6.22345 115.467 7.53498C115.944 8.84651 115.928 10.2869 115.422 11.5875C114.916 12.8882 113.953 13.9602 112.715 14.6038L108.815 3.88882ZM99.8887 17.1876C99.5856 15.8252 99.7884 14.399 100.459 13.1751C101.13 11.9512 102.223 11.0131 103.535 10.5358C104.846 10.0584 106.287 10.0744 107.587 10.5807C108.888 11.087 109.96 12.0491 110.604 13.2876L99.8887 17.1876ZM113.187 26.1126C111.825 26.4156 110.399 26.2128 109.175 25.5419C107.951 24.8711 107.013 23.7779 106.536 22.4664C106.058 21.1549 106.074 19.7145 106.581 18.4139C107.087 17.1132 108.049 16.0412 109.287 15.3976L113.187 26.1126ZM116.556 19.8113C115.494 19.821 114.451 19.5369 113.54 18.9905C112.63 18.4441 111.888 17.6566 111.397 16.7151L122.112 12.8151C122.297 13.6504 122.293 14.5164 122.101 15.35C121.909 16.1837 121.534 16.9641 121.003 17.6345C120.471 18.3049 119.797 18.8485 119.029 19.2257C118.261 19.6029 117.419 19.8042 116.564 19.8151L116.556 19.8113Z" fill="currentColor"/>
<path d="M173.061 26.94L167.561 21.44C169.464 20.6498 170.988 19.1561 171.817 17.27C172.646 15.3839 172.715 13.2508 172.01 11.315C171.874 10.9412 171.595 10.6368 171.234 10.4688C170.874 10.3007 170.461 10.2827 170.088 10.4187L165.636 12.0437C166.113 10.6175 166.178 9.08576 165.824 7.62423C165.47 6.16269 164.711 4.83055 163.634 3.78059C162.558 2.73063 161.207 2.00538 159.737 1.688C158.267 1.37063 156.738 1.474 155.324 1.98625C154.95 2.12236 154.646 2.40137 154.478 2.7619C154.309 3.12243 154.291 3.53496 154.428 3.90875L156.053 8.36C154.625 7.88157 153.092 7.81547 151.629 8.1693C150.166 8.52312 148.833 9.2825 147.782 10.3602C146.731 11.4379 146.006 12.7902 145.689 14.2617C145.372 15.7332 145.477 17.2642 145.991 18.6787C146.127 19.0525 146.406 19.3569 146.767 19.525C147.127 19.6931 147.54 19.7111 147.914 19.575L152.365 17.95C151.883 19.3774 151.815 20.9118 152.168 22.3764C152.52 23.8409 153.28 25.176 154.358 26.2277C155.437 27.2793 156.791 28.0048 158.264 28.3203C159.737 28.6359 161.269 28.5288 162.684 28.0112C163.058 27.8751 163.362 27.5961 163.53 27.2356C163.698 26.8751 163.716 26.4625 163.58 26.0887L161.961 21.64C162.596 21.8539 163.256 21.9866 163.924 22.035L170.945 29.0562C171.227 29.338 171.609 29.4963 172.008 29.4963C172.406 29.4963 172.788 29.338 173.07 29.0562C173.352 28.7745 173.51 28.3923 173.51 27.9937C173.51 27.5952 173.352 27.213 173.07 26.9312L173.061 26.94ZM160.173 4.9725C160.951 5.33568 161.624 5.89352 162.124 6.59216C162.625 7.2908 162.937 8.10667 163.03 8.96102C163.123 9.81536 162.995 10.6794 162.657 11.4696C162.319 12.2598 161.783 12.9497 161.101 13.4725L157.838 4.50625C158.642 4.47042 159.443 4.63041 160.173 4.9725ZM148.506 16.165C148.457 15.1008 148.75 14.0488 149.341 13.1623C149.932 12.2759 150.79 11.6013 151.791 11.237C152.792 10.8727 153.884 10.8377 154.906 11.137C155.928 11.4364 156.829 12.0545 157.475 12.9012L148.506 16.165ZM157.83 25.03C157.051 24.6668 156.379 24.109 155.878 23.4103C155.378 22.7117 155.066 21.8958 154.973 21.0415C154.879 20.1871 155.008 19.3231 155.346 18.5329C155.683 17.7426 156.219 17.0528 156.901 16.53L160.165 25.5C159.36 25.5346 158.559 25.3733 157.83 25.03ZM162.386 18.5912C161.655 18.2522 161.018 17.7409 160.528 17.1012L169.5 13.8375C169.538 14.6961 169.353 15.55 168.965 16.3166C168.577 17.0833 167.997 17.7369 167.282 18.2143C166.568 18.6917 165.742 18.9769 164.885 19.0423C164.028 19.1076 163.169 18.951 162.39 18.5875L162.386 18.5912Z" fill="currentColor"/>
<path d="M220.707 27.2925L214.655 21.2412C214.792 21.2 214.929 21.1562 215.064 21.1075C216.932 20.4271 218.453 19.033 219.293 17.2315C220.134 15.43 220.225 13.3685 219.546 11.5C219.455 11.2509 219.27 11.0481 219.029 10.936C218.789 10.824 218.514 10.8119 218.265 10.9025L212.74 12.9125C212.78 12.835 212.82 12.7575 212.856 12.6775C213.483 11.3336 213.698 9.83386 213.473 8.36796C213.248 6.90206 212.593 5.53577 211.592 4.44182C210.591 3.34786 209.287 2.57535 207.847 2.22193C206.407 1.86851 204.894 1.95005 203.5 2.45625C203.376 2.50069 203.262 2.56911 203.165 2.65759C203.068 2.74607 202.989 2.85287 202.933 2.97189C202.877 3.0909 202.845 3.21979 202.839 3.35116C202.833 3.48254 202.853 3.61382 202.897 3.7375L204.909 9.265C204.83 9.225 204.752 9.18375 204.672 9.14C203.328 8.51362 201.828 8.29981 200.363 8.5256C198.897 8.75138 197.531 9.40663 196.438 10.4085C195.344 11.4104 194.573 12.714 194.22 14.1544C193.867 15.5949 193.949 17.1075 194.456 18.5012C194.547 18.7503 194.733 18.9532 194.973 19.0652C195.213 19.1773 195.488 19.1893 195.737 19.0987L201.262 17.0875C201.222 17.1662 201.182 17.2437 201.146 17.3237C200.52 18.668 200.306 20.1677 200.532 21.6334C200.758 23.0991 201.413 24.465 202.415 25.5584C203.417 26.6518 204.72 27.4236 206.161 27.7763C207.601 28.1291 209.114 28.0468 210.507 27.54C210.757 27.4493 210.959 27.2633 211.071 27.0231C211.183 26.7828 211.196 26.5079 211.105 26.2587L209.095 20.7362C209.172 20.775 209.25 20.8137 209.33 20.85C210.212 21.2632 211.167 21.5001 212.14 21.5475L219.292 28.7012C219.48 28.8889 219.735 28.9943 220 28.9943C220.265 28.9943 220.52 28.8889 220.707 28.7012C220.895 28.5136 221.001 28.2591 221.001 27.9937C221.001 27.7284 220.895 27.4739 220.707 27.2862V27.2925ZM205.625 25.4837C204.716 25.0604 203.94 24.3967 203.381 23.5644C202.822 22.7321 202.502 21.7629 202.454 20.7615C202.406 19.7601 202.632 18.7646 203.109 17.8826C203.586 17.0007 204.295 16.2658 205.159 15.7575L208.859 25.9237C207.761 26.1108 206.633 25.9573 205.625 25.4837ZM211.05 11.8275C210.581 12.8405 209.813 13.6858 208.85 14.25L205.149 4.07875C206.137 3.91269 207.153 4.02001 208.085 4.38912C209.017 4.75824 209.83 5.37509 210.437 6.17302C211.044 6.97095 211.422 7.91959 211.528 8.9164C211.635 9.91322 211.468 10.9203 211.044 11.8287L211.05 11.8275Z" fill="currentColor"/>
<path opacity="0.2" d="M255.61 13.7176L243.394 18.1663C243.102 17.3642 242.97 16.5124 243.007 15.6595C243.045 14.8067 243.249 13.9695 243.61 13.1957C244.338 11.6331 245.658 10.4238 247.278 9.83382C248.897 9.24388 250.685 9.32164 252.248 10.05C253.811 10.7783 255.02 12.0976 255.61 13.7176ZM266.61 11.8338L254.394 16.2826C254.984 17.9025 256.193 19.2218 257.756 19.9502C258.529 20.3108 259.367 20.5155 260.219 20.5526C261.072 20.5897 261.924 20.4584 262.726 20.1663C263.528 19.8742 264.265 19.427 264.894 18.8501C265.524 18.2733 266.033 17.5782 266.394 16.8044C266.754 16.0307 266.959 15.1935 266.996 14.3406C267.033 13.4878 266.902 12.636 266.61 11.8338Z" fill="currentColor"/>
<path d="M268.707 27.2925L262.655 21.2412C262.792 21.2 262.929 21.1562 263.064 21.1075C264.932 20.4271 266.453 19.033 267.293 17.2315C268.134 15.43 268.225 13.3685 267.546 11.5C267.455 11.2509 267.27 11.0481 267.029 10.936C266.789 10.824 266.514 10.8119 266.265 10.9025L260.74 12.9125C260.78 12.835 260.82 12.7575 260.856 12.6775C261.483 11.3336 261.698 9.83386 261.473 8.36796C261.248 6.90206 260.593 5.53577 259.592 4.44182C258.591 3.34786 257.287 2.57535 255.847 2.22193C254.407 1.86851 252.894 1.95005 251.5 2.45625C251.376 2.50069 251.262 2.56911 251.165 2.65759C251.068 2.74607 250.989 2.85287 250.933 2.97189C250.877 3.0909 250.845 3.21979 250.839 3.35116C250.833 3.48254 250.853 3.61382 250.897 3.7375L252.907 9.2625C252.83 9.2225 252.752 9.1825 252.672 9.14625C251.328 8.51987 249.828 8.30606 248.363 8.53185C246.897 8.75763 245.531 9.41288 244.438 10.4148C243.344 11.4167 242.573 12.7202 242.22 14.1607C241.867 15.6011 241.949 17.1138 242.456 18.5075C242.547 18.7566 242.733 18.9594 242.973 19.0715C243.213 19.1835 243.488 19.1956 243.737 19.105L249.262 17.0937C249.222 17.1725 249.182 17.25 249.146 17.33C248.52 18.6742 248.306 20.174 248.532 21.6397C248.758 23.1054 249.413 24.4713 250.415 25.5647C251.417 26.6581 252.72 27.4299 254.161 27.7826C255.601 28.1353 257.114 28.0531 258.507 27.5462C258.757 27.4555 258.959 27.2696 259.071 27.0293C259.183 26.7891 259.196 26.5141 259.105 26.265L257.094 20.74C257.172 20.78 257.25 20.82 257.33 20.8562C258.212 21.2694 259.167 21.5064 260.14 21.5537L267.292 28.7075C267.48 28.8951 267.735 29.0006 268 29.0006C268.265 29.0006 268.52 28.8951 268.707 28.7075C268.895 28.5199 269.001 28.2654 269.001 28C269.001 27.7346 268.895 27.4801 268.707 27.2925ZM256.384 4.51875C257.294 4.9416 258.071 5.60537 258.631 6.43816C259.19 7.27096 259.512 8.24104 259.56 9.24337C259.608 10.2457 259.381 11.2421 258.903 12.1246C258.425 13.0071 257.715 13.7421 256.85 14.25L253.149 4.07875C254.247 3.89164 255.376 4.04519 256.384 4.51875ZM244.079 16.8525C243.861 15.5825 244.097 14.2766 244.744 13.1626C245.391 12.0485 246.409 11.1969 247.62 10.7565C248.831 10.3161 250.158 10.3147 251.369 10.7525C252.581 11.1904 253.6 12.0398 254.25 13.1525L244.079 16.8525ZM253.625 25.4837C252.716 25.0604 251.94 24.3967 251.381 23.5644C250.822 22.7321 250.502 21.7629 250.454 20.7615C250.406 19.7601 250.632 18.7646 251.109 17.8826C251.586 17.0007 252.295 16.2658 253.159 15.7575L256.859 25.9237C255.761 26.1108 254.633 25.9573 253.625 25.4837ZM260.57 19.5612H260.556C259.59 19.5686 258.639 19.322 257.798 18.8462C256.956 18.3704 256.255 17.682 255.764 16.85L265.93 13.1487C266.06 13.9317 266.02 14.7336 265.812 15.4995C265.604 16.2655 265.232 16.9773 264.723 17.5864C264.214 18.1954 263.579 18.6872 262.863 19.028C262.146 19.3689 261.364 19.5508 260.57 19.5612Z" fill="currentColor"/>
</g>
<defs>
<clipPath id="clip0_17_15136">
<rect width="272" height="32" rx="5" fill="white"/>
</clipPath>
</defs>
</svg>
