<svg width="272" height="32" viewBox="0 0 272 32" fill="none" xmlns="http://www.w3.org/2000/svg">
<g clip-path="url(#clip0_17_15122)">
<path d="M16 3C13.4288 3 10.9154 3.76244 8.77759 5.1909C6.63975 6.61935 4.97351 8.64968 3.98957 11.0251C3.00563 13.4006 2.74819 16.0144 3.2498 18.5362C3.75141 21.0579 4.98953 23.3743 6.80762 25.1924C8.6257 27.0105 10.9421 28.2486 13.4638 28.7502C15.9856 29.2518 18.5995 28.9944 20.9749 28.0104C23.3503 27.0265 25.3807 25.3603 26.8091 23.2224C28.2376 21.0846 29 18.5712 29 16C28.9964 12.5533 27.6256 9.24882 25.1884 6.81163C22.7512 4.37445 19.4467 3.00364 16 3ZM16 22C14.8133 22 13.6533 21.6481 12.6666 20.9888C11.6799 20.3295 10.9109 19.3925 10.4567 18.2961C10.0026 17.1997 9.88378 15.9933 10.1153 14.8295C10.3468 13.6656 10.9183 12.5965 11.7574 11.7574C12.5965 10.9182 13.6656 10.3468 14.8295 10.1153C15.9934 9.88378 17.1997 10.0026 18.2961 10.4567C19.3925 10.9108 20.3295 11.6799 20.9888 12.6666C21.6481 13.6533 22 14.8133 22 16C21.9984 17.5908 21.3657 19.116 20.2408 20.2408C19.116 21.3657 17.5908 21.9983 16 22ZM20.9013 9.68375C19.7711 8.80035 18.4231 8.23888 17 8.05875V5.04625C19.2192 5.24616 21.3245 6.11831 23.035 7.54625L20.9013 9.68375ZM15 8.065C13.5769 8.24513 12.2289 8.8066 11.0988 9.69L8.96501 7.55C10.6755 6.12206 12.7808 5.24991 15 5.05V8.065ZM9.68376 11.0988C8.80036 12.2289 8.23889 13.5769 8.05876 15H5.04626C5.24617 12.7808 6.11832 10.6755 7.54626 8.965L9.68376 11.0988ZM8.06501 17C8.24514 18.4231 8.80661 19.7711 9.69001 20.9013L7.55001 23.035C6.12207 21.3245 5.24992 19.2192 5.05001 17H8.06501ZM11.0988 22.3162C12.2296 23.1974 13.5775 23.7567 15 23.935V26.9538C12.7808 26.7538 10.6755 25.8817 8.96501 24.4538L11.0988 22.3162ZM17 23.935C18.4225 23.7567 19.7704 23.1974 20.9013 22.3162L23.035 24.45C21.3245 25.8779 19.2192 26.7501 17 26.95V23.935ZM22.3163 20.9013C23.1974 19.7704 23.7567 18.4225 23.935 17H26.9538C26.7538 19.2192 25.8817 21.3245 24.4538 23.035L22.3163 20.9013ZM23.935 15C23.7567 13.5775 23.1974 12.2296 22.3163 11.0988L24.45 8.965C25.8779 10.6755 26.7501 12.7808 26.95 15H23.935Z" fill="currentColor"/>
<path d="M64 3.5C61.5277 3.5 59.111 4.23311 57.0554 5.60663C54.9998 6.98015 53.3976 8.93238 52.4515 11.2165C51.5054 13.5005 51.2579 16.0139 51.7402 18.4386C52.2225 20.8634 53.413 23.0907 55.1612 24.8388C56.9093 26.587 59.1366 27.7775 61.5614 28.2598C63.9861 28.7421 66.4995 28.4946 68.7835 27.5485C71.0676 26.6024 73.0199 25.0002 74.3934 22.9446C75.7669 20.889 76.5 18.4723 76.5 16C76.4964 12.6859 75.1782 9.5086 72.8348 7.16518C70.4914 4.82177 67.3141 3.50364 64 3.5ZM64 22.5C62.7144 22.5 61.4577 22.1188 60.3888 21.4046C59.3199 20.6903 58.4868 19.6752 57.9948 18.4874C57.5028 17.2997 57.3741 15.9928 57.6249 14.7319C57.8757 13.471 58.4948 12.3128 59.4038 11.4038C60.3129 10.4948 61.471 9.8757 62.7319 9.6249C63.9928 9.37409 65.2997 9.50281 66.4874 9.99478C67.6752 10.4868 68.6903 11.3199 69.4046 12.3888C70.1188 13.4577 70.5 14.7144 70.5 16C70.498 17.7233 69.8126 19.3754 68.594 20.594C67.3755 21.8126 65.7233 22.498 64 22.5ZM68.9338 10.3588C67.6988 9.27383 66.1402 8.62702 64.5 8.51875V4.51125C67.2021 4.62695 69.776 5.69498 71.7663 7.52625L68.9338 10.3588ZM63.5 8.51875C61.8598 8.62702 60.3012 9.27383 59.0663 10.3588L56.2338 7.52625C58.224 5.69498 60.7979 4.62695 63.5 4.51125V8.51875ZM58.3588 11.0662C57.2738 12.3012 56.627 13.8598 56.5188 15.5H52.5113C52.627 12.7979 53.695 10.224 55.5263 8.23375L58.3588 11.0662ZM56.5188 16.5C56.627 18.1402 57.2738 19.6988 58.3588 20.9338L55.5263 23.7663C53.695 21.776 52.627 19.2021 52.5113 16.5H56.5188ZM59.0663 21.6413C60.3012 22.7262 61.8598 23.373 63.5 23.4813V27.4888C60.7979 27.373 58.224 26.305 56.2338 24.4737L59.0663 21.6413ZM64.5 23.4813C66.1402 23.373 67.6988 22.7262 68.9338 21.6413L71.7663 24.4737C69.776 26.305 67.2021 27.373 64.5 27.4888V23.4813ZM69.6413 20.9338C70.7262 19.6988 71.373 18.1402 71.4813 16.5H75.4888C75.3731 19.2021 74.305 21.776 72.4738 23.7663L69.6413 20.9338ZM71.4813 15.5C71.373 13.8598 70.7262 12.3012 69.6413 11.0662L72.4738 8.23375C74.305 10.224 75.3731 12.7979 75.4888 15.5H71.4813Z" fill="currentColor"/>
<path d="M112 3.25C109.478 3.25 107.013 3.99777 104.916 5.39876C102.82 6.79975 101.186 8.79103 100.221 11.1208C99.2555 13.4505 99.003 16.0141 99.495 18.4874C99.987 20.9607 101.201 23.2325 102.984 25.0156C104.768 26.7987 107.039 28.0131 109.513 28.505C111.986 28.997 114.549 28.7445 116.879 27.7795C119.209 26.8144 121.2 25.1802 122.601 23.0835C124.002 20.9868 124.75 18.5217 124.75 16C124.746 12.6197 123.401 9.379 121.011 6.98877C118.621 4.59854 115.38 3.25397 112 3.25ZM112 22.25C110.764 22.25 109.555 21.8834 108.528 21.1967C107.5 20.5099 106.699 19.5338 106.226 18.3918C105.753 17.2497 105.629 15.9931 105.87 14.7807C106.111 13.5683 106.707 12.4547 107.581 11.5806C108.455 10.7065 109.568 10.1112 110.781 9.87009C111.993 9.62893 113.25 9.75271 114.392 10.2258C115.534 10.6988 116.51 11.4999 117.197 12.5277C117.883 13.5555 118.25 14.7639 118.25 16C118.248 17.657 117.589 19.2456 116.417 20.4172C115.246 21.5889 113.657 22.248 112 22.25ZM116.921 10.0175C115.735 9.03745 114.282 8.43493 112.75 8.2875V4.775C115.211 4.93818 117.549 5.90877 119.403 7.53625L116.921 10.0175ZM111.25 8.2875C109.718 8.43493 108.265 9.03745 107.079 10.0175L104.598 7.53625C106.451 5.90877 108.789 4.93818 111.25 4.775V8.2875ZM106.018 11.0787C105.037 12.2653 104.435 13.7181 104.288 15.25H100.775C100.938 12.789 101.909 10.4505 103.536 8.5975L106.018 11.0787ZM104.288 16.75C104.435 18.2819 105.037 19.7347 106.018 20.9212L103.536 23.4025C101.909 21.5495 100.938 19.211 100.775 16.75H104.288ZM107.079 21.9825C108.265 22.9626 109.718 23.5651 111.25 23.7125V27.225C108.789 27.0618 106.451 26.0912 104.598 24.4638L107.079 21.9825ZM112.75 23.7125C114.282 23.5651 115.735 22.9626 116.921 21.9825L119.403 24.4638C117.549 26.0912 115.211 27.0618 112.75 27.225V23.7125ZM117.983 20.9212C118.963 19.7347 119.565 18.2819 119.713 16.75H123.225C123.062 19.211 122.091 21.5495 120.464 23.4025L117.983 20.9212ZM119.713 15.25C119.565 13.7181 118.963 12.2653 117.983 11.0787L120.464 8.5975C122.091 10.4505 123.062 12.789 123.225 15.25H119.713Z" fill="currentColor"/>
<path d="M160 2.5C157.33 2.5 154.72 3.29176 152.5 4.77516C150.28 6.25856 148.549 8.36697 147.528 10.8338C146.506 13.3006 146.239 16.015 146.759 18.6337C147.28 21.2525 148.566 23.6579 150.454 25.5459C152.342 27.434 154.748 28.7197 157.366 29.2406C159.985 29.7615 162.699 29.4942 165.166 28.4724C167.633 27.4506 169.741 25.7203 171.225 23.5002C172.708 21.2801 173.5 18.67 173.5 16C173.496 12.4208 172.072 8.98932 169.542 6.45844C167.011 3.92756 163.579 2.50397 160 2.5ZM160 20.5C159.11 20.5 158.24 20.2361 157.5 19.7416C156.76 19.2471 156.183 18.5443 155.843 17.7221C155.502 16.8998 155.413 15.995 155.586 15.1221C155.76 14.2492 156.189 13.4474 156.818 12.818C157.447 12.1887 158.249 11.7601 159.122 11.5865C159.995 11.4128 160.9 11.5019 161.722 11.8425C162.544 12.1831 163.247 12.7599 163.742 13.4999C164.236 14.24 164.5 15.11 164.5 16C164.5 17.1935 164.026 18.3381 163.182 19.182C162.338 20.0259 161.193 20.5 160 20.5ZM164.133 9.75C163.334 9.21735 162.44 8.84424 161.5 8.65125V5.60875C163.236 5.85806 164.882 6.54072 166.285 7.59375L164.133 9.75ZM158.5 8.65125C157.56 8.84424 156.666 9.21735 155.868 9.75L153.715 7.59375C155.118 6.54072 156.764 5.85806 158.5 5.60875V8.65125ZM153.75 11.8675C153.217 12.6659 152.844 13.5598 152.651 14.5H149.609C149.858 12.7637 150.541 11.1181 151.594 9.715L153.75 11.8675ZM152.651 17.5C152.844 18.4402 153.217 19.3341 153.75 20.1325L151.594 22.285C150.541 20.8819 149.858 19.2363 149.609 17.5H152.651ZM155.868 22.25C156.666 22.7826 157.56 23.1558 158.5 23.3487V26.3913C156.764 26.1419 155.118 25.4593 153.715 24.4062L155.868 22.25ZM161.5 23.3487C162.44 23.1558 163.334 22.7826 164.133 22.25L166.285 24.4025C164.882 25.4569 163.237 26.1408 161.5 26.3913V23.3487ZM166.25 20.1325C166.783 19.3341 167.156 18.4402 167.349 17.5H170.391C170.142 19.2363 169.459 20.8819 168.406 22.285L166.25 20.1325ZM167.349 14.5C167.156 13.5598 166.783 12.6659 166.25 11.8675L168.403 9.715C169.457 11.1177 170.141 12.7633 170.391 14.5H167.349Z" fill="currentColor"/>
<path d="M208 3C205.429 3 202.915 3.76244 200.778 5.1909C198.64 6.61935 196.974 8.64968 195.99 11.0251C195.006 13.4006 194.748 16.0144 195.25 18.5362C195.751 21.0579 196.99 23.3743 198.808 25.1924C200.626 27.0105 202.942 28.2486 205.464 28.7502C207.986 29.2518 210.599 28.9944 212.975 28.0104C215.35 27.0265 217.381 25.3603 218.809 23.2224C220.238 21.0846 221 18.5712 221 16C220.996 12.5533 219.626 9.24882 217.188 6.81163C214.751 4.37445 211.447 3.00364 208 3ZM199.55 8.965L201.684 11.0988C200.8 12.2289 200.239 13.5769 200.059 15H197.046C197.247 12.7804 198.121 10.675 199.55 8.965ZM197.046 17H200.065C200.245 18.4231 200.807 19.7711 201.69 20.9013L199.55 23.035C198.121 21.325 197.247 19.2196 197.046 17ZM207 26.9538C204.781 26.7538 202.675 25.8817 200.965 24.4538L203.099 22.32C204.23 23.1998 205.578 23.7578 207 23.935V26.9538ZM207 8.065C205.577 8.24513 204.229 8.8066 203.099 9.69L200.965 7.55C202.675 6.12206 204.781 5.24991 207 5.05V8.065ZM218.954 15H215.935C215.757 13.5775 215.197 12.2296 214.316 11.0988L216.45 8.965C217.879 10.675 218.753 12.7804 218.954 15ZM209 5.04625C211.219 5.24616 213.325 6.11831 215.035 7.54625L212.901 9.68375C211.771 8.80035 210.423 8.23888 209 8.05875V5.04625ZM209 26.9538V23.935C210.422 23.7567 211.77 23.1974 212.901 22.3162L215.035 24.45C213.325 25.8793 211.22 26.7528 209 26.9538ZM216.45 23.035L214.316 20.9013C215.197 19.7704 215.757 18.4225 215.935 17H218.954C218.753 19.2196 217.879 21.325 216.45 23.035Z" fill="currentColor"/>
<path opacity="0.2" d="M256 4C253.627 4 251.307 4.70379 249.333 6.02236C247.36 7.34094 245.822 9.21509 244.913 11.4078C244.005 13.6005 243.768 16.0133 244.231 18.3411C244.694 20.6689 245.836 22.8071 247.515 24.4853C249.193 26.1635 251.331 27.3064 253.659 27.7694C255.987 28.2324 258.399 27.9948 260.592 27.0866C262.785 26.1783 264.659 24.6402 265.978 22.6668C267.296 20.6935 268 18.3734 268 16C268 12.8174 266.736 9.76515 264.485 7.51472C262.235 5.26428 259.183 4 256 4ZM256 23C254.616 23 253.262 22.5895 252.111 21.8203C250.96 21.0511 250.063 19.9579 249.533 18.6788C249.003 17.3997 248.864 15.9922 249.135 14.6344C249.405 13.2765 250.071 12.0292 251.05 11.0503C252.029 10.0713 253.277 9.4046 254.634 9.1345C255.992 8.86441 257.4 9.00303 258.679 9.53284C259.958 10.0627 261.051 10.9599 261.82 12.111C262.589 13.2622 263 14.6155 263 16C263 17.8565 262.263 19.637 260.95 20.9497C259.637 22.2625 257.857 23 256 23Z" fill="currentColor"/>
<path d="M256 3C253.429 3 250.915 3.76244 248.778 5.1909C246.64 6.61935 244.974 8.64968 243.99 11.0251C243.006 13.4006 242.748 16.0144 243.25 18.5362C243.751 21.0579 244.99 23.3743 246.808 25.1924C248.626 27.0105 250.942 28.2486 253.464 28.7502C255.986 29.2518 258.599 28.9944 260.975 28.0104C263.35 27.0265 265.381 25.3603 266.809 23.2224C268.238 21.0846 269 18.5712 269 16C268.996 12.5533 267.626 9.24882 265.188 6.81163C262.751 4.37445 259.447 3.00364 256 3ZM256 22C254.813 22 253.653 21.6481 252.667 20.9888C251.68 20.3295 250.911 19.3925 250.457 18.2961C250.003 17.1997 249.884 15.9933 250.115 14.8295C250.347 13.6656 250.918 12.5965 251.757 11.7574C252.596 10.9182 253.666 10.3468 254.829 10.1153C255.993 9.88378 257.2 10.0026 258.296 10.4567C259.392 10.9108 260.33 11.6799 260.989 12.6666C261.648 13.6533 262 14.8133 262 16C261.998 17.5908 261.366 19.116 260.241 20.2408C259.116 21.3657 257.591 21.9983 256 22ZM260.901 9.68375C259.771 8.80035 258.423 8.23888 257 8.05875V5.04625C259.219 5.24616 261.325 6.11831 263.035 7.54625L260.901 9.68375ZM255 8.065C253.577 8.24513 252.229 8.8066 251.099 9.69L248.965 7.55C250.675 6.12206 252.781 5.24991 255 5.05V8.065ZM249.684 11.0988C248.8 12.2289 248.239 13.5769 248.059 15H245.046C245.246 12.7808 246.118 10.6755 247.546 8.965L249.684 11.0988ZM248.065 17C248.245 18.4231 248.807 19.7711 249.69 20.9013L247.55 23.035C246.122 21.3245 245.25 19.2192 245.05 17H248.065ZM251.099 22.3162C252.23 23.1974 253.578 23.7567 255 23.935V26.9538C252.781 26.7538 250.675 25.8817 248.965 24.4538L251.099 22.3162ZM257 23.935C258.422 23.7567 259.77 23.1974 260.901 22.3162L263.035 24.45C261.325 25.8779 259.219 26.7501 257 26.95V23.935ZM262.316 20.9013C263.197 19.7704 263.757 18.4225 263.935 17H266.954C266.754 19.2192 265.882 21.3245 264.454 23.035L262.316 20.9013ZM263.935 15C263.757 13.5775 263.197 12.2296 262.316 11.0988L264.45 8.965C265.878 10.6755 266.75 12.7808 266.95 15H263.935Z" fill="currentColor"/>
</g>
<defs>
<clipPath id="clip0_17_15122">
<rect width="272" height="32" rx="5" fill="white"/>
</clipPath>
</defs>
</svg>
