<svg width="272" height="32" viewBox="0 0 272 32" fill="none" xmlns="http://www.w3.org/2000/svg">
<g clip-path="url(#clip0_17_15080)">
<path d="M11.5 13C10.8078 13 10.1311 13.2053 9.5555 13.5899C8.97993 13.9744 8.53133 14.5211 8.26642 15.1606C8.00151 15.8001 7.9322 16.5039 8.06725 17.1828C8.2023 17.8617 8.53564 18.4854 9.02513 18.9749C9.51461 19.4644 10.1382 19.7977 10.8172 19.9327C11.4961 20.0678 12.1999 19.9985 12.8394 19.7336C13.4789 19.4687 14.0256 19.0201 14.4101 18.4445C14.7947 17.8689 15 17.1922 15 16.5C15 15.5717 14.6313 14.6815 13.9749 14.0251C13.3185 13.3687 12.4283 13 11.5 13ZM11.5 18C11.2033 18 10.9133 17.912 10.6666 17.7472C10.42 17.5824 10.2277 17.3481 10.1142 17.074C10.0006 16.7999 9.97094 16.4983 10.0288 16.2074C10.0867 15.9164 10.2296 15.6491 10.4393 15.4393C10.6491 15.2296 10.9164 15.0867 11.2074 15.0288C11.4983 14.9709 11.7999 15.0006 12.074 15.1142C12.3481 15.2277 12.5824 15.42 12.7472 15.6666C12.912 15.9133 13 16.2033 13 16.5C13 16.8978 12.842 17.2794 12.5607 17.5607C12.2794 17.842 11.8978 18 11.5 18ZM20.5 13C19.8078 13 19.1311 13.2053 18.5555 13.5899C17.9799 13.9744 17.5313 14.5211 17.2664 15.1606C17.0015 15.8001 16.9322 16.5039 17.0673 17.1828C17.2023 17.8617 17.5356 18.4854 18.0251 18.9749C18.5146 19.4644 19.1383 19.7977 19.8172 19.9327C20.4961 20.0678 21.1999 19.9985 21.8394 19.7336C22.4789 19.4687 23.0256 19.0201 23.4101 18.4445C23.7947 17.8689 24 17.1922 24 16.5C24 15.5717 23.6313 14.6815 22.9749 14.0251C22.3185 13.3687 21.4283 13 20.5 13ZM20.5 18C20.2033 18 19.9133 17.912 19.6666 17.7472C19.42 17.5824 19.2277 17.3481 19.1142 17.074C19.0007 16.7999 18.9709 16.4983 19.0288 16.2074C19.0867 15.9164 19.2296 15.6491 19.4393 15.4393C19.6491 15.2296 19.9164 15.0867 20.2074 15.0288C20.4983 14.9709 20.7999 15.0006 21.074 15.1142C21.3481 15.2277 21.5824 15.42 21.7472 15.6666C21.912 15.9133 22 16.2033 22 16.5C22 16.8978 21.842 17.2794 21.5607 17.5607C21.2794 17.842 20.8978 18 20.5 18ZM16 2C8.83125 2 3 7.6075 3 14.5C3 18.7625 5.28375 22.75 9 25.035V27C9 27.5304 9.21071 28.0391 9.58579 28.4142C9.96086 28.7893 10.4696 29 11 29H21C21.5304 29 22.0391 28.7893 22.4142 28.4142C22.7893 28.0391 23 27.5304 23 27V25.035C26.7162 22.75 29 18.7625 29 14.5C29 7.6075 23.1688 2 16 2ZM21.515 23.5863C21.3589 23.6728 21.2288 23.7997 21.1382 23.9535C21.0476 24.1074 20.9999 24.2827 21 24.4613V27H19V24C19 23.7348 18.8946 23.4804 18.7071 23.2929C18.5196 23.1054 18.2652 23 18 23C17.7348 23 17.4804 23.1054 17.2929 23.2929C17.1054 23.4804 17 23.7348 17 24V27H15V24C15 23.7348 14.8946 23.4804 14.7071 23.2929C14.5196 23.1054 14.2652 23 14 23C13.7348 23 13.4804 23.1054 13.2929 23.2929C13.1054 23.4804 13 23.7348 13 24V27H11V24.4613C11.0001 24.2827 10.9524 24.1074 10.8618 23.9535C10.7712 23.7997 10.6411 23.6728 10.485 23.5863C7.10125 21.7113 5 18.23 5 14.5C5 8.71 9.935 4 16 4C22.065 4 27 8.71 27 14.5C27 18.2288 24.8988 21.7113 21.515 23.5863Z" fill="currentColor"/>
<path d="M59.5 13.5C58.9067 13.5 58.3266 13.6759 57.8333 14.0056C57.3399 14.3352 56.9554 14.8038 56.7284 15.3519C56.5013 15.9001 56.4419 16.5033 56.5576 17.0853C56.6734 17.6672 56.9591 18.2018 57.3787 18.6213C57.7982 19.0409 58.3328 19.3266 58.9147 19.4424C59.4967 19.5581 60.0999 19.4987 60.6481 19.2716C61.1962 19.0446 61.6648 18.6601 61.9944 18.1667C62.3241 17.6734 62.5 17.0933 62.5 16.5C62.5 15.7044 62.1839 14.9413 61.6213 14.3787C61.0587 13.8161 60.2956 13.5 59.5 13.5ZM59.5 18.5C59.1044 18.5 58.7178 18.3827 58.3889 18.1629C58.06 17.9432 57.8036 17.6308 57.6522 17.2654C57.5009 16.8999 57.4613 16.4978 57.5384 16.1098C57.6156 15.7219 57.8061 15.3655 58.0858 15.0858C58.3655 14.8061 58.7219 14.6156 59.1098 14.5384C59.4978 14.4613 59.8999 14.5009 60.2654 14.6522C60.6308 14.8036 60.9432 15.06 61.1629 15.3889C61.3827 15.7178 61.5 16.1044 61.5 16.5C61.5 17.0304 61.2893 17.5391 60.9142 17.9142C60.5391 18.2893 60.0304 18.5 59.5 18.5ZM68.5 13.5C67.9067 13.5 67.3266 13.6759 66.8333 14.0056C66.3399 14.3352 65.9554 14.8038 65.7284 15.3519C65.5013 15.9001 65.4419 16.5033 65.5576 17.0853C65.6734 17.6672 65.9591 18.2018 66.3787 18.6213C66.7982 19.0409 67.3328 19.3266 67.9147 19.4424C68.4967 19.5581 69.0999 19.4987 69.6481 19.2716C70.1962 19.0446 70.6648 18.6601 70.9944 18.1667C71.3241 17.6734 71.5 17.0933 71.5 16.5C71.5 15.7044 71.1839 14.9413 70.6213 14.3787C70.0587 13.8161 69.2956 13.5 68.5 13.5ZM68.5 18.5C68.1044 18.5 67.7178 18.3827 67.3889 18.1629C67.06 17.9432 66.8036 17.6308 66.6522 17.2654C66.5009 16.8999 66.4613 16.4978 66.5384 16.1098C66.6156 15.7219 66.8061 15.3655 67.0858 15.0858C67.3655 14.8061 67.7219 14.6156 68.1098 14.5384C68.4978 14.4613 68.8999 14.5009 69.2654 14.6522C69.6308 14.8036 69.9432 15.06 70.1629 15.3889C70.3827 15.7178 70.5 16.1044 70.5 16.5C70.5 17.0304 70.2893 17.5391 69.9142 17.9142C69.5391 18.2893 69.0304 18.5 68.5 18.5ZM64 2.5C57.1075 2.5 51.5 7.88375 51.5 14.5C51.5 18.6787 53.7912 22.58 57.5 24.75V27C57.5 27.3978 57.658 27.7794 57.9393 28.0607C58.2206 28.342 58.6022 28.5 59 28.5H69C69.3978 28.5 69.7794 28.342 70.0607 28.0607C70.342 27.7794 70.5 27.3978 70.5 27V24.75C74.2087 22.5775 76.5 18.6763 76.5 14.5C76.5 7.88375 70.8925 2.5 64 2.5ZM69.7575 24.0238C69.6794 24.067 69.6144 24.1305 69.5691 24.2074C69.5238 24.2843 69.5 24.372 69.5 24.4613V27C69.5 27.1326 69.4473 27.2598 69.3536 27.3536C69.2598 27.4473 69.1326 27.5 69 27.5H66.5V24C66.5 23.8674 66.4473 23.7402 66.3536 23.6464C66.2598 23.5527 66.1326 23.5 66 23.5C65.8674 23.5 65.7402 23.5527 65.6464 23.6464C65.5527 23.7402 65.5 23.8674 65.5 24V27.5H62.5V24C62.5 23.8674 62.4473 23.7402 62.3536 23.6464C62.2598 23.5527 62.1326 23.5 62 23.5C61.8674 23.5 61.7402 23.5527 61.6464 23.6464C61.5527 23.7402 61.5 23.8674 61.5 24V27.5H59C58.8674 27.5 58.7402 27.4473 58.6464 27.3536C58.5527 27.2598 58.5 27.1326 58.5 27V24.4613C58.5 24.372 58.4762 24.2843 58.4309 24.2074C58.3856 24.1305 58.3206 24.067 58.2425 24.0238C54.7 22.06 52.5 18.4113 52.5 14.5C52.5 8.435 57.6588 3.5 64 3.5C70.3412 3.5 75.5 8.435 75.5 14.5C75.5 18.4113 73.3 22.06 69.7575 24.0238Z" fill="currentColor"/>
<path d="M107.5 13.25C106.857 13.25 106.229 13.4406 105.694 13.7977C105.16 14.1548 104.743 14.6624 104.497 15.2563C104.251 15.8501 104.187 16.5036 104.312 17.134C104.438 17.7645 104.747 18.3436 105.202 18.7981C105.656 19.2526 106.236 19.5621 106.866 19.6876C107.496 19.813 108.15 19.7486 108.744 19.5026C109.338 19.2566 109.845 18.8401 110.202 18.3056C110.559 17.7711 110.75 17.1428 110.75 16.5C110.75 15.638 110.408 14.8114 109.798 14.2019C109.189 13.5924 108.362 13.25 107.5 13.25ZM107.5 18.25C107.154 18.25 106.816 18.1474 106.528 17.9551C106.24 17.7628 106.016 17.4895 105.883 17.1697C105.751 16.8499 105.716 16.4981 105.784 16.1586C105.851 15.8191 106.018 15.5073 106.263 15.2626C106.507 15.0178 106.819 14.8511 107.159 14.7836C107.498 14.7161 107.85 14.7508 108.17 14.8832C108.489 15.0157 108.763 15.24 108.955 15.5278C109.147 15.8155 109.25 16.1539 109.25 16.5C109.25 16.9641 109.066 17.4092 108.737 17.7374C108.409 18.0656 107.964 18.25 107.5 18.25ZM116.5 13.25C115.857 13.25 115.229 13.4406 114.694 13.7977C114.16 14.1548 113.743 14.6624 113.497 15.2563C113.251 15.8501 113.187 16.5036 113.312 17.134C113.438 17.7645 113.747 18.3436 114.202 18.7981C114.656 19.2526 115.236 19.5621 115.866 19.6876C116.496 19.813 117.15 19.7486 117.744 19.5026C118.338 19.2566 118.845 18.8401 119.202 18.3056C119.559 17.7711 119.75 17.1428 119.75 16.5C119.75 15.638 119.408 14.8114 118.798 14.2019C118.189 13.5924 117.362 13.25 116.5 13.25ZM116.5 18.25C116.154 18.25 115.816 18.1474 115.528 17.9551C115.24 17.7628 115.016 17.4895 114.883 17.1697C114.751 16.8499 114.716 16.4981 114.784 16.1586C114.851 15.8191 115.018 15.5073 115.263 15.2626C115.507 15.0178 115.819 14.8511 116.159 14.7836C116.498 14.7161 116.85 14.7508 117.17 14.8832C117.489 15.0157 117.763 15.24 117.955 15.5278C118.147 15.8155 118.25 16.1539 118.25 16.5C118.25 16.9641 118.066 17.4092 117.737 17.7374C117.409 18.0656 116.964 18.25 116.5 18.25ZM112 2.25C104.97 2.25 99.25 7.75 99.25 14.5C99.25 18.7213 101.537 22.6637 105.25 24.8937V27C105.25 27.4641 105.434 27.9092 105.763 28.2374C106.091 28.5656 106.536 28.75 107 28.75H117C117.464 28.75 117.909 28.5656 118.237 28.2374C118.566 27.9092 118.75 27.4641 118.75 27V24.8937C122.462 22.6637 124.75 18.7213 124.75 14.5C124.75 7.75 119.03 2.25 112 2.25ZM117.636 23.805C117.519 23.8699 117.422 23.9651 117.354 24.0805C117.286 24.1959 117.25 24.3273 117.25 24.4613V27C117.25 27.0663 117.224 27.1299 117.177 27.1768C117.13 27.2237 117.066 27.25 117 27.25H114.75V24C114.75 23.8011 114.671 23.6103 114.53 23.4697C114.39 23.329 114.199 23.25 114 23.25C113.801 23.25 113.61 23.329 113.47 23.4697C113.329 23.6103 113.25 23.8011 113.25 24V27.25H110.75V24C110.75 23.8011 110.671 23.6103 110.53 23.4697C110.39 23.329 110.199 23.25 110 23.25C109.801 23.25 109.61 23.329 109.47 23.4697C109.329 23.6103 109.25 23.8011 109.25 24V27.25H107C106.934 27.25 106.87 27.2237 106.823 27.1768C106.776 27.1299 106.75 27.0663 106.75 27V24.4613C106.75 24.3273 106.714 24.1959 106.646 24.0805C106.578 23.9651 106.481 23.8699 106.364 23.805C102.901 21.8862 100.75 18.32 100.75 14.5C100.75 8.5725 105.796 3.75 112 3.75C118.204 3.75 123.25 8.5725 123.25 14.5C123.25 18.32 121.099 21.8862 117.636 23.805Z" fill="currentColor"/>
<path d="M158.5 16.5C158.5 17.0933 158.324 17.6734 157.994 18.1667C157.665 18.6601 157.196 19.0446 156.648 19.2716C156.1 19.4987 155.497 19.5581 154.915 19.4424C154.333 19.3266 153.798 19.0409 153.379 18.6213C152.959 18.2018 152.673 17.6672 152.558 17.0853C152.442 16.5033 152.501 15.9001 152.728 15.3519C152.955 14.8038 153.34 14.3352 153.833 14.0056C154.327 13.6759 154.907 13.5 155.5 13.5C156.296 13.5 157.059 13.8161 157.621 14.3787C158.184 14.9413 158.5 15.7044 158.5 16.5ZM164.5 13.5C163.907 13.5 163.327 13.6759 162.833 14.0056C162.34 14.3352 161.955 14.8038 161.728 15.3519C161.501 15.9001 161.442 16.5033 161.558 17.0853C161.673 17.6672 161.959 18.2018 162.379 18.6213C162.798 19.0409 163.333 19.3266 163.915 19.4424C164.497 19.5581 165.1 19.4987 165.648 19.2716C166.196 19.0446 166.665 18.6601 166.994 18.1667C167.324 17.6734 167.5 17.0933 167.5 16.5C167.5 15.7044 167.184 14.9413 166.621 14.3787C166.059 13.8161 165.296 13.5 164.5 13.5ZM173.5 14.5C173.5 18.2313 171.869 21.7225 169 24.19V27C169 27.663 168.737 28.2989 168.268 28.7678C167.799 29.2366 167.163 29.5 166.5 29.5H153.5C152.837 29.5 152.201 29.2366 151.732 28.7678C151.263 28.2989 151 27.663 151 27V24.19C148.125 21.7225 146.5 18.2313 146.5 14.5C146.5 7.33125 152.556 1.5 160 1.5C167.444 1.5 173.5 7.33125 173.5 14.5ZM170.5 14.5C170.5 8.98625 165.79 4.5 160 4.5C154.21 4.5 149.5 8.98625 149.5 14.5C149.5 17.5387 150.926 20.375 153.414 22.2875C153.596 22.4276 153.744 22.6078 153.846 22.8142C153.947 23.0205 154 23.2475 154 23.4775V26.5H156V24C156 23.6022 156.158 23.2206 156.439 22.9393C156.721 22.658 157.102 22.5 157.5 22.5C157.898 22.5 158.279 22.658 158.561 22.9393C158.842 23.2206 159 23.6022 159 24V26.5H161V24C161 23.6022 161.158 23.2206 161.439 22.9393C161.721 22.658 162.102 22.5 162.5 22.5C162.898 22.5 163.279 22.658 163.561 22.9393C163.842 23.2206 164 23.6022 164 24V26.5H166V23.4775C166 23.2477 166.053 23.021 166.155 22.8149C166.256 22.6087 166.404 22.4287 166.586 22.2887C169.074 20.375 170.5 17.5387 170.5 14.5Z" fill="currentColor"/>
<path d="M208 2C200.831 2 195 7.6075 195 14.5C195 18.7625 197.284 22.75 201 25.035V27C201 27.5304 201.211 28.0391 201.586 28.4142C201.961 28.7893 202.47 29 203 29H204C204.133 29 204.26 28.9473 204.354 28.8536C204.447 28.7598 204.5 28.6326 204.5 28.5V25.0338C204.497 24.7757 204.591 24.5259 204.764 24.3345C204.937 24.1432 205.177 24.0246 205.434 24.0025C205.571 23.9934 205.708 24.0126 205.837 24.0587C205.966 24.1049 206.084 24.1771 206.184 24.2709C206.284 24.3647 206.364 24.478 206.418 24.6039C206.472 24.7297 206.5 24.8654 206.5 25.0025V28.5025C206.5 28.6351 206.553 28.7623 206.646 28.8561C206.74 28.9498 206.867 29.0025 207 29.0025H209C209.133 29.0025 209.26 28.9498 209.354 28.8561C209.447 28.7623 209.5 28.6351 209.5 28.5025V25.0338C209.497 24.7757 209.591 24.5259 209.764 24.3345C209.937 24.1432 210.177 24.0246 210.434 24.0025C210.571 23.9934 210.708 24.0126 210.837 24.0587C210.966 24.1049 211.084 24.1771 211.184 24.2709C211.284 24.3647 211.364 24.478 211.418 24.6039C211.472 24.7297 211.5 24.8654 211.5 25.0025V28.5025C211.5 28.6351 211.553 28.7623 211.646 28.8561C211.74 28.9498 211.867 29.0025 212 29.0025H213C213.53 29.0025 214.039 28.7918 214.414 28.4167C214.789 28.0416 215 27.5329 215 27.0025V25.035C218.716 22.75 221 18.7625 221 14.5C221 7.6075 215.169 2 208 2ZM203.5 19C203.006 19 202.522 18.8534 202.111 18.5787C201.7 18.304 201.38 17.9135 201.19 17.4567C201.001 16.9999 200.952 16.4972 201.048 16.0123C201.144 15.5273 201.383 15.0819 201.732 14.7322C202.082 14.3826 202.527 14.1445 203.012 14.048C203.497 13.9516 204 14.0011 204.457 14.1903C204.914 14.3795 205.304 14.7 205.579 15.1111C205.853 15.5222 206 16.0055 206 16.5C206 17.163 205.737 17.7989 205.268 18.2678C204.799 18.7366 204.163 19 203.5 19ZM212.5 19C212.006 19 211.522 18.8534 211.111 18.5787C210.7 18.304 210.38 17.9135 210.19 17.4567C210.001 16.9999 209.952 16.4972 210.048 16.0123C210.144 15.5273 210.383 15.0819 210.732 14.7322C211.082 14.3826 211.527 14.1445 212.012 14.048C212.497 13.9516 213 14.0011 213.457 14.1903C213.914 14.3795 214.304 14.7 214.579 15.1111C214.853 15.5222 215 16.0055 215 16.5C215 17.163 214.737 17.7989 214.268 18.2678C213.799 18.7366 213.163 19 212.5 19Z" fill="currentColor"/>
<path opacity="0.2" d="M256 3C249.375 3 244 8.14875 244 14.5C244 18.7563 246.414 22.4725 250 24.4613V27C250 27.2652 250.105 27.5196 250.293 27.7071C250.48 27.8946 250.735 28 251 28H261C261.265 28 261.52 27.8946 261.707 27.7071C261.895 27.5196 262 27.2652 262 27V24.4613C265.586 22.4725 268 18.7563 268 14.5C268 8.14875 262.625 3 256 3ZM251.5 19C251.006 19 250.522 18.8534 250.111 18.5787C249.7 18.304 249.38 17.9135 249.19 17.4567C249.001 16.9999 248.952 16.4972 249.048 16.0123C249.144 15.5273 249.383 15.0819 249.732 14.7322C250.082 14.3826 250.527 14.1445 251.012 14.048C251.497 13.9516 252 14.0011 252.457 14.1903C252.914 14.3795 253.304 14.7 253.579 15.1111C253.853 15.5222 254 16.0055 254 16.5C254 17.163 253.737 17.7989 253.268 18.2678C252.799 18.7366 252.163 19 251.5 19ZM260.5 19C260.006 19 259.522 18.8534 259.111 18.5787C258.7 18.304 258.38 17.9135 258.19 17.4567C258.001 16.9999 257.952 16.4972 258.048 16.0123C258.144 15.5273 258.383 15.0819 258.732 14.7322C259.082 14.3826 259.527 14.1445 260.012 14.048C260.497 13.9516 261 14.0011 261.457 14.1903C261.914 14.3795 262.304 14.7 262.579 15.1111C262.853 15.5222 263 16.0055 263 16.5C263 17.163 262.737 17.7989 262.268 18.2678C261.799 18.7366 261.163 19 260.5 19Z" fill="currentColor"/>
<path d="M251.5 13C250.808 13 250.131 13.2053 249.556 13.5899C248.98 13.9744 248.531 14.5211 248.266 15.1606C248.002 15.8001 247.932 16.5039 248.067 17.1828C248.202 17.8617 248.536 18.4854 249.025 18.9749C249.515 19.4644 250.138 19.7977 250.817 19.9327C251.496 20.0678 252.2 19.9985 252.839 19.7336C253.479 19.4687 254.026 19.0201 254.41 18.4445C254.795 17.8689 255 17.1922 255 16.5C255 15.5717 254.631 14.6815 253.975 14.0251C253.318 13.3687 252.428 13 251.5 13ZM251.5 18C251.203 18 250.913 17.912 250.667 17.7472C250.42 17.5824 250.228 17.3481 250.114 17.074C250.001 16.7999 249.971 16.4983 250.029 16.2074C250.087 15.9164 250.23 15.6491 250.439 15.4393C250.649 15.2296 250.916 15.0867 251.207 15.0288C251.498 14.9709 251.8 15.0006 252.074 15.1142C252.348 15.2277 252.582 15.42 252.747 15.6666C252.912 15.9133 253 16.2033 253 16.5C253 16.8978 252.842 17.2794 252.561 17.5607C252.279 17.842 251.898 18 251.5 18ZM260.5 13C259.808 13 259.131 13.2053 258.556 13.5899C257.98 13.9744 257.531 14.5211 257.266 15.1606C257.002 15.8001 256.932 16.5039 257.067 17.1828C257.202 17.8617 257.536 18.4854 258.025 18.9749C258.515 19.4644 259.138 19.7977 259.817 19.9327C260.496 20.0678 261.2 19.9985 261.839 19.7336C262.479 19.4687 263.026 19.0201 263.41 18.4445C263.795 17.8689 264 17.1922 264 16.5C264 15.5717 263.631 14.6815 262.975 14.0251C262.318 13.3687 261.428 13 260.5 13ZM260.5 18C260.203 18 259.913 17.912 259.667 17.7472C259.42 17.5824 259.228 17.3481 259.114 17.074C259.001 16.7999 258.971 16.4983 259.029 16.2074C259.087 15.9164 259.23 15.6491 259.439 15.4393C259.649 15.2296 259.916 15.0867 260.207 15.0288C260.498 14.9709 260.8 15.0006 261.074 15.1142C261.348 15.2277 261.582 15.42 261.747 15.6666C261.912 15.9133 262 16.2033 262 16.5C262 16.8978 261.842 17.2794 261.561 17.5607C261.279 17.842 260.898 18 260.5 18ZM256 2C248.831 2 243 7.6075 243 14.5C243 18.7625 245.284 22.75 249 25.035V27C249 27.5304 249.211 28.0391 249.586 28.4142C249.961 28.7893 250.47 29 251 29H261C261.53 29 262.039 28.7893 262.414 28.4142C262.789 28.0391 263 27.5304 263 27V25.035C266.716 22.75 269 18.7625 269 14.5C269 7.6075 263.169 2 256 2ZM261.515 23.5863C261.359 23.6728 261.229 23.7997 261.138 23.9535C261.048 24.1074 261 24.2827 261 24.4613V27H259V24C259 23.7348 258.895 23.4804 258.707 23.2929C258.52 23.1054 258.265 23 258 23C257.735 23 257.48 23.1054 257.293 23.2929C257.105 23.4804 257 23.7348 257 24V27H255V24C255 23.7348 254.895 23.4804 254.707 23.2929C254.52 23.1054 254.265 23 254 23C253.735 23 253.48 23.1054 253.293 23.2929C253.105 23.4804 253 23.7348 253 24V27H251V24.4613C251 24.2827 250.952 24.1074 250.862 23.9535C250.771 23.7997 250.641 23.6728 250.485 23.5863C247.101 21.7113 245 18.23 245 14.5C245 8.71 249.935 4 256 4C262.065 4 267 8.71 267 14.5C267 18.2288 264.899 21.7113 261.515 23.5863Z" fill="currentColor"/>
</g>
<defs>
<clipPath id="clip0_17_15080">
<rect width="272" height="32" rx="5" fill="white"/>
</clipPath>
</defs>
</svg>
