<svg width="272" height="32" viewBox="0 0 272 32" fill="none" xmlns="http://www.w3.org/2000/svg">
<g clip-path="url(#clip0_17_6030)">
<path d="M11.2925 8.7075C11.1049 8.51986 10.9994 8.26536 10.9994 8C10.9994 7.73464 11.1049 7.48014 11.2925 7.2925C11.4801 7.10486 11.7346 6.99944 12 6.99944C12.2654 6.99944 12.5199 7.10486 12.7075 7.2925L15 9.58625V3C15 2.73478 15.1054 2.48043 15.2929 2.29289C15.4804 2.10536 15.7348 2 16 2C16.2652 2 16.5196 2.10536 16.7071 2.29289C16.8946 2.48043 17 2.73478 17 3V9.58625L19.2925 7.2925C19.4801 7.10486 19.7346 6.99944 20 6.99944C20.2654 6.99944 20.5199 7.10486 20.7075 7.2925C20.8951 7.48014 21.0006 7.73464 21.0006 8C21.0006 8.26536 20.8951 8.51986 20.7075 8.7075L16.7075 12.7075C16.6146 12.8005 16.5043 12.8742 16.3829 12.9246C16.2615 12.9749 16.1314 13.0008 16 13.0008C15.8686 13.0008 15.7385 12.9749 15.6171 12.9246C15.4957 12.8742 15.3854 12.8005 15.2925 12.7075L11.2925 8.7075ZM16.7075 19.2925C16.6146 19.1995 16.5043 19.1258 16.3829 19.0754C16.2615 19.0251 16.1314 18.9992 16 18.9992C15.8686 18.9992 15.7385 19.0251 15.6171 19.0754C15.4957 19.1258 15.3854 19.1995 15.2925 19.2925L11.2925 23.2925C11.1996 23.3854 11.1259 23.4957 11.0756 23.6171C11.0253 23.7385 10.9994 23.8686 10.9994 24C10.9994 24.1314 11.0253 24.2615 11.0756 24.3829C11.1259 24.5043 11.1996 24.6146 11.2925 24.7075C11.4801 24.8951 11.7346 25.0006 12 25.0006C12.1314 25.0006 12.2615 24.9747 12.3829 24.9244C12.5043 24.8741 12.6146 24.8004 12.7075 24.7075L15 22.4137V29C15 29.2652 15.1054 29.5196 15.2929 29.7071C15.4804 29.8946 15.7348 30 16 30C16.2652 30 16.5196 29.8946 16.7071 29.7071C16.8946 29.5196 17 29.2652 17 29V22.4137L19.2925 24.7075C19.3854 24.8004 19.4957 24.8741 19.6171 24.9244C19.7385 24.9747 19.8686 25.0006 20 25.0006C20.1314 25.0006 20.2615 24.9747 20.3829 24.9244C20.5043 24.8741 20.6146 24.8004 20.7075 24.7075C20.8004 24.6146 20.8741 24.5043 20.9244 24.3829C20.9747 24.2615 21.0006 24.1314 21.0006 24C21.0006 23.8686 20.9747 23.7385 20.9244 23.6171C20.8741 23.4957 20.8004 23.3854 20.7075 23.2925L16.7075 19.2925ZM29 15H22.4137L24.7075 12.7075C24.8004 12.6146 24.8741 12.5043 24.9244 12.3829C24.9747 12.2615 25.0006 12.1314 25.0006 12C25.0006 11.8686 24.9747 11.7385 24.9244 11.6171C24.8741 11.4957 24.8004 11.3854 24.7075 11.2925C24.6146 11.1996 24.5043 11.1259 24.3829 11.0756C24.2615 11.0253 24.1314 10.9994 24 10.9994C23.8686 10.9994 23.7385 11.0253 23.6171 11.0756C23.4957 11.1259 23.3854 11.1996 23.2925 11.2925L19.2925 15.2925C19.1995 15.3854 19.1258 15.4957 19.0754 15.6171C19.0251 15.7385 18.9992 15.8686 18.9992 16C18.9992 16.1314 19.0251 16.2615 19.0754 16.3829C19.1258 16.5043 19.1995 16.6146 19.2925 16.7075L23.2925 20.7075C23.3854 20.8004 23.4957 20.8741 23.6171 20.9244C23.7385 20.9747 23.8686 21.0006 24 21.0006C24.1314 21.0006 24.2615 20.9747 24.3829 20.9244C24.5043 20.8741 24.6146 20.8004 24.7075 20.7075C24.8004 20.6146 24.8741 20.5043 24.9244 20.3829C24.9747 20.2615 25.0006 20.1314 25.0006 20C25.0006 19.8686 24.9747 19.7385 24.9244 19.6171C24.8741 19.4957 24.8004 19.3854 24.7075 19.2925L22.4137 17H29C29.2652 17 29.5196 16.8946 29.7071 16.7071C29.8946 16.5196 30 16.2652 30 16C30 15.7348 29.8946 15.4804 29.7071 15.2929C29.5196 15.1054 29.2652 15 29 15ZM12.7075 15.2925L8.7075 11.2925C8.51986 11.1049 8.26536 10.9994 8 10.9994C7.73464 10.9994 7.48014 11.1049 7.2925 11.2925C7.10486 11.4801 6.99944 11.7346 6.99944 12C6.99944 12.2654 7.10486 12.5199 7.2925 12.7075L9.58625 15H3C2.73478 15 2.48043 15.1054 2.29289 15.2929C2.10536 15.4804 2 15.7348 2 16C2 16.2652 2.10536 16.5196 2.29289 16.7071C2.48043 16.8946 2.73478 17 3 17H9.58625L7.2925 19.2925C7.19959 19.3854 7.12589 19.4957 7.07561 19.6171C7.02532 19.7385 6.99944 19.8686 6.99944 20C6.99944 20.1314 7.02532 20.2615 7.07561 20.3829C7.12589 20.5043 7.19959 20.6146 7.2925 20.7075C7.38541 20.8004 7.49571 20.8741 7.6171 20.9244C7.7385 20.9747 7.86861 21.0006 8 21.0006C8.13139 21.0006 8.2615 20.9747 8.3829 20.9244C8.50429 20.8741 8.61459 20.8004 8.7075 20.7075L12.7075 16.7075C12.8005 16.6146 12.8742 16.5043 12.9246 16.3829C12.9749 16.2615 13.0008 16.1314 13.0008 16C13.0008 15.8686 12.9749 15.7385 12.9246 15.6171C12.8742 15.4957 12.8005 15.3854 12.7075 15.2925Z" fill="currentColor"/>
<path d="M59.6462 8.35375C59.5524 8.25993 59.4997 8.13268 59.4997 8C59.4997 7.86732 59.5524 7.74007 59.6462 7.64625C59.7401 7.55243 59.8673 7.49972 60 7.49972C60.1327 7.49972 60.2599 7.55243 60.3538 7.64625L63.5 10.7925V3C63.5 2.86739 63.5527 2.74021 63.6464 2.64645C63.7402 2.55268 63.8674 2.5 64 2.5C64.1326 2.5 64.2598 2.55268 64.3536 2.64645C64.4473 2.74021 64.5 2.86739 64.5 3V10.7925L67.6462 7.64625C67.6927 7.59979 67.7479 7.56294 67.8086 7.5378C67.8692 7.51266 67.9343 7.49972 68 7.49972C68.0657 7.49972 68.1308 7.51266 68.1914 7.5378C68.2521 7.56294 68.3073 7.59979 68.3538 7.64625C68.4002 7.6927 68.4371 7.74786 68.4622 7.80855C68.4873 7.86925 68.5003 7.9343 68.5003 8C68.5003 8.0657 68.4873 8.13075 68.4622 8.19145C68.4371 8.25214 68.4002 8.3073 68.3538 8.35375L64.3538 12.3538C64.3073 12.4002 64.2522 12.4371 64.1915 12.4623C64.1308 12.4874 64.0657 12.5004 64 12.5004C63.9343 12.5004 63.8692 12.4874 63.8085 12.4623C63.7478 12.4371 63.6927 12.4002 63.6462 12.3538L59.6462 8.35375ZM64.3538 19.6462C64.3073 19.5998 64.2522 19.5629 64.1915 19.5377C64.1308 19.5126 64.0657 19.4996 64 19.4996C63.9343 19.4996 63.8692 19.5126 63.8085 19.5377C63.7478 19.5629 63.6927 19.5998 63.6462 19.6462L59.6462 23.6462C59.5524 23.7401 59.4997 23.8673 59.4997 24C59.4997 24.1327 59.5524 24.2599 59.6462 24.3538C59.7401 24.4476 59.8673 24.5003 60 24.5003C60.1327 24.5003 60.2599 24.4476 60.3538 24.3538L63.5 21.2075V29C63.5 29.1326 63.5527 29.2598 63.6464 29.3536C63.7402 29.4473 63.8674 29.5 64 29.5C64.1326 29.5 64.2598 29.4473 64.3536 29.3536C64.4473 29.2598 64.5 29.1326 64.5 29V21.2075L67.6462 24.3538C67.7401 24.4476 67.8673 24.5003 68 24.5003C68.1327 24.5003 68.2599 24.4476 68.3538 24.3538C68.4476 24.2599 68.5003 24.1327 68.5003 24C68.5003 23.8673 68.4476 23.7401 68.3538 23.6462L64.3538 19.6462ZM77 15.5H69.2075L72.3538 12.3538C72.4002 12.3073 72.4371 12.2521 72.4622 12.1914C72.4873 12.1308 72.5003 12.0657 72.5003 12C72.5003 11.9343 72.4873 11.8692 72.4622 11.8086C72.4371 11.7479 72.4002 11.6927 72.3538 11.6462C72.3073 11.5998 72.2521 11.5629 72.1914 11.5378C72.1308 11.5127 72.0657 11.4997 72 11.4997C71.9343 11.4997 71.8692 11.5127 71.8086 11.5378C71.7479 11.5629 71.6927 11.5998 71.6462 11.6462L67.6462 15.6462C67.5998 15.6927 67.5629 15.7478 67.5377 15.8085C67.5126 15.8692 67.4996 15.9343 67.4996 16C67.4996 16.0657 67.5126 16.1308 67.5377 16.1915C67.5629 16.2522 67.5998 16.3073 67.6462 16.3538L71.6462 20.3538C71.7401 20.4476 71.8673 20.5003 72 20.5003C72.1327 20.5003 72.2599 20.4476 72.3538 20.3538C72.4476 20.2599 72.5003 20.1327 72.5003 20C72.5003 19.8673 72.4476 19.7401 72.3538 19.6462L69.2075 16.5H77C77.1326 16.5 77.2598 16.4473 77.3536 16.3536C77.4473 16.2598 77.5 16.1326 77.5 16C77.5 15.8674 77.4473 15.7402 77.3536 15.6464C77.2598 15.5527 77.1326 15.5 77 15.5ZM60.3538 15.6462L56.3538 11.6462C56.2599 11.5524 56.1327 11.4997 56 11.4997C55.8673 11.4997 55.7401 11.5524 55.6462 11.6462C55.5524 11.7401 55.4997 11.8673 55.4997 12C55.4997 12.1327 55.5524 12.2599 55.6462 12.3538L58.7925 15.5H51C50.8674 15.5 50.7402 15.5527 50.6464 15.6464C50.5527 15.7402 50.5 15.8674 50.5 16C50.5 16.1326 50.5527 16.2598 50.6464 16.3536C50.7402 16.4473 50.8674 16.5 51 16.5H58.7925L55.6462 19.6462C55.5524 19.7401 55.4997 19.8673 55.4997 20C55.4997 20.1327 55.5524 20.2599 55.6463 20.3538C55.7401 20.4476 55.8673 20.5003 56 20.5003C56.1327 20.5003 56.2599 20.4476 56.3538 20.3538L60.3538 16.3538C60.4002 16.3073 60.4371 16.2522 60.4623 16.1915C60.4874 16.1308 60.5004 16.0657 60.5004 16C60.5004 15.9343 60.4874 15.8692 60.4623 15.8085C60.4371 15.7478 60.4002 15.6927 60.3538 15.6462Z" fill="currentColor"/>
<path d="M107.47 8.53C107.338 8.38783 107.265 8.19978 107.269 8.00548C107.272 7.81118 107.351 7.62579 107.488 7.48838C107.626 7.35097 107.811 7.27225 108.005 7.26883C108.2 7.2654 108.388 7.33752 108.53 7.47L111.25 10.1888V3C111.25 2.80109 111.329 2.61032 111.47 2.46967C111.61 2.32902 111.801 2.25 112 2.25C112.199 2.25 112.39 2.32902 112.53 2.46967C112.671 2.61032 112.75 2.80109 112.75 3V10.1888L115.47 7.47C115.612 7.33752 115.8 7.2654 115.995 7.26883C116.189 7.27225 116.374 7.35097 116.512 7.48838C116.649 7.62579 116.728 7.81118 116.731 8.00548C116.735 8.19978 116.662 8.38783 116.53 8.53L112.53 12.53C112.389 12.6705 112.199 12.7493 112 12.7493C111.801 12.7493 111.611 12.6705 111.47 12.53L107.47 8.53ZM112.53 19.47C112.389 19.3295 112.199 19.2507 112 19.2507C111.801 19.2507 111.611 19.3295 111.47 19.47L107.47 23.47C107.338 23.6122 107.265 23.8002 107.269 23.9945C107.272 24.1888 107.351 24.3742 107.488 24.5116C107.626 24.649 107.811 24.7277 108.005 24.7312C108.2 24.7346 108.388 24.6625 108.53 24.53L111.25 21.8113V29C111.25 29.1989 111.329 29.3897 111.47 29.5303C111.61 29.671 111.801 29.75 112 29.75C112.199 29.75 112.39 29.671 112.53 29.5303C112.671 29.3897 112.75 29.1989 112.75 29V21.8113L115.47 24.53C115.612 24.6625 115.8 24.7346 115.995 24.7312C116.189 24.7277 116.374 24.649 116.512 24.5116C116.649 24.3742 116.728 24.1888 116.731 23.9945C116.735 23.8002 116.662 23.6122 116.53 23.47L112.53 19.47ZM125 15.25H117.811L120.53 12.53C120.662 12.3878 120.735 12.1998 120.731 12.0055C120.728 11.8112 120.649 11.6258 120.512 11.4884C120.374 11.351 120.189 11.2723 119.995 11.2688C119.8 11.2654 119.612 11.3375 119.47 11.47L115.47 15.47C115.33 15.6106 115.251 15.8012 115.251 16C115.251 16.1988 115.33 16.3894 115.47 16.53L119.47 20.53C119.612 20.6625 119.8 20.7346 119.995 20.7312C120.189 20.7277 120.374 20.649 120.512 20.5116C120.649 20.3742 120.728 20.1888 120.731 19.9945C120.735 19.8002 120.662 19.6122 120.53 19.47L117.811 16.75H125C125.199 16.75 125.39 16.671 125.53 16.5303C125.671 16.3897 125.75 16.1989 125.75 16C125.75 15.8011 125.671 15.6103 125.53 15.4697C125.39 15.329 125.199 15.25 125 15.25ZM108.53 15.47L104.53 11.47C104.388 11.3375 104.2 11.2654 104.005 11.2688C103.811 11.2723 103.626 11.351 103.488 11.4884C103.351 11.6258 103.272 11.8112 103.269 12.0055C103.265 12.1998 103.338 12.3878 103.47 12.53L106.189 15.25H99C98.8011 15.25 98.6103 15.329 98.4697 15.4697C98.329 15.6103 98.25 15.8011 98.25 16C98.25 16.1989 98.329 16.3897 98.4697 16.5303C98.6103 16.671 98.8011 16.75 99 16.75H106.189L103.47 19.47C103.396 19.5387 103.337 19.6215 103.296 19.7135C103.255 19.8055 103.233 19.9048 103.231 20.0055C103.23 20.1062 103.248 20.2062 103.286 20.2996C103.324 20.393 103.38 20.4778 103.451 20.549C103.522 20.6203 103.607 20.6764 103.7 20.7141C103.794 20.7518 103.894 20.7704 103.995 20.7686C104.095 20.7668 104.195 20.7448 104.287 20.7038C104.379 20.6628 104.461 20.6037 104.53 20.53L108.53 16.53C108.67 16.3894 108.749 16.1988 108.749 16C108.749 15.8012 108.67 15.6106 108.53 15.47Z" fill="currentColor"/>
<path d="M154.939 9.06125C154.657 8.77946 154.499 8.39726 154.499 7.99875C154.499 7.60024 154.657 7.21804 154.939 6.93625C155.221 6.65446 155.603 6.49615 156.001 6.49615C156.4 6.49615 156.782 6.65446 157.064 6.93625L158.5 8.375V3C158.5 2.60218 158.658 2.22064 158.939 1.93934C159.221 1.65804 159.602 1.5 160 1.5C160.398 1.5 160.779 1.65804 161.061 1.93934C161.342 2.22064 161.5 2.60218 161.5 3V8.375L162.939 6.935C163.221 6.65321 163.603 6.4949 164.001 6.4949C164.4 6.4949 164.782 6.65321 165.064 6.935C165.346 7.21679 165.504 7.59899 165.504 7.9975C165.504 8.39601 165.346 8.77821 165.064 9.06L161.064 13.06C160.924 13.1998 160.759 13.3108 160.576 13.3865C160.394 13.4622 160.199 13.5012 160.001 13.5012C159.804 13.5012 159.608 13.4622 159.426 13.3865C159.244 13.3108 159.078 13.1998 158.939 13.06L154.939 9.06125ZM161.064 18.9363C160.924 18.7964 160.759 18.6855 160.576 18.6097C160.394 18.534 160.199 18.4951 160.001 18.4951C159.804 18.4951 159.608 18.534 159.426 18.6097C159.244 18.6855 159.078 18.7964 158.939 18.9363L154.939 22.9363C154.799 23.0758 154.689 23.2414 154.613 23.4237C154.538 23.606 154.499 23.8014 154.499 23.9988C154.499 24.3973 154.657 24.7795 154.939 25.0613C155.221 25.343 155.603 25.5014 156.001 25.5014C156.4 25.5014 156.782 25.343 157.064 25.0613L158.5 23.625V29C158.5 29.3978 158.658 29.7794 158.939 30.0607C159.221 30.342 159.602 30.5 160 30.5C160.398 30.5 160.779 30.342 161.061 30.0607C161.342 29.7794 161.5 29.3978 161.5 29V23.625L162.939 25.065C163.221 25.3468 163.603 25.5051 164.001 25.5051C164.4 25.5051 164.782 25.3468 165.064 25.065C165.346 24.7832 165.504 24.401 165.504 24.0025C165.504 23.604 165.346 23.2218 165.064 22.94L161.064 18.9363ZM173 14.5H167.625L169.065 13.0612C169.347 12.7795 169.505 12.3973 169.505 11.9987C169.505 11.6002 169.347 11.218 169.065 10.9362C168.783 10.6545 168.401 10.4961 168.003 10.4961C167.604 10.4961 167.222 10.6545 166.94 10.9362L162.94 14.9362C162.8 15.0756 162.689 15.2412 162.613 15.4235C162.538 15.6058 162.499 15.8013 162.499 15.9987C162.499 16.1962 162.538 16.3917 162.613 16.574C162.689 16.7563 162.8 16.9219 162.94 17.0613L166.94 21.0613C167.222 21.343 167.604 21.5014 168.003 21.5014C168.401 21.5014 168.783 21.343 169.065 21.0613C169.347 20.7795 169.505 20.3973 169.505 19.9988C169.505 19.6002 169.347 19.218 169.065 18.9363L167.625 17.5H173C173.398 17.5 173.779 17.342 174.061 17.0607C174.342 16.7794 174.5 16.3978 174.5 16C174.5 15.6022 174.342 15.2206 174.061 14.9393C173.779 14.658 173.398 14.5 173 14.5ZM157.061 14.9388L153.061 10.9388C152.779 10.657 152.397 10.4986 151.999 10.4986C151.6 10.4986 151.218 10.657 150.936 10.9388C150.654 11.2205 150.496 11.6027 150.496 12.0013C150.496 12.3998 150.654 12.782 150.936 13.0638L152.375 14.5H147C146.602 14.5 146.221 14.658 145.939 14.9393C145.658 15.2206 145.5 15.6022 145.5 16C145.5 16.3978 145.658 16.7794 145.939 17.0607C146.221 17.342 146.602 17.5 147 17.5H152.375L150.939 18.9387C150.799 19.0783 150.689 19.2439 150.613 19.4262C150.538 19.6085 150.499 19.8039 150.499 20.0012C150.499 20.3998 150.657 20.782 150.939 21.0637C151.221 21.3455 151.603 21.5039 152.001 21.5039C152.4 21.5039 152.782 21.3455 153.064 21.0637L157.064 17.0637C157.203 16.9242 157.314 16.7585 157.39 16.5761C157.465 16.3937 157.504 16.1982 157.504 16.0007C157.503 15.8033 157.464 15.6079 157.388 15.4256C157.312 15.2434 157.201 15.0779 157.061 14.9388Z" fill="currentColor"/>
<path d="M204.708 16.7075L200.708 20.7075C200.568 20.8475 200.389 20.9429 200.195 20.9815C200.001 21.0202 199.8 21.0004 199.617 20.9246C199.434 20.8489 199.278 20.7206 199.168 20.556C199.058 20.3914 199 20.1979 199 20V17H195C194.735 17 194.48 16.8946 194.293 16.7071C194.105 16.5196 194 16.2652 194 16C194 15.7348 194.105 15.4804 194.293 15.2929C194.48 15.1054 194.735 15 195 15H199V12C199 11.8021 199.058 11.6086 199.168 11.444C199.278 11.2794 199.434 11.1511 199.617 11.0754C199.8 10.9996 200.001 10.9798 200.195 11.0185C200.389 11.0571 200.568 11.1525 200.708 11.2925L204.708 15.2925C204.8 15.3854 204.874 15.4957 204.925 15.6171C204.975 15.7385 205.001 15.8686 205.001 16C205.001 16.1314 204.975 16.2615 204.925 16.3829C204.874 16.5043 204.8 16.6146 204.708 16.7075ZM207.292 12.7075C207.385 12.8005 207.496 12.8742 207.617 12.9246C207.738 12.9749 207.869 13.0008 208 13.0008C208.131 13.0008 208.262 12.9749 208.383 12.9246C208.504 12.8742 208.615 12.8005 208.708 12.7075L212.708 8.7075C212.848 8.56765 212.943 8.38939 212.982 8.19531C213.02 8.00122 213 7.80003 212.925 7.61721C212.849 7.43439 212.721 7.27815 212.556 7.16828C212.391 7.05841 212.198 6.99984 212 7H209V3C209 2.73478 208.895 2.48043 208.707 2.29289C208.52 2.10536 208.265 2 208 2C207.735 2 207.48 2.10536 207.293 2.29289C207.105 2.48043 207 2.73478 207 3V7H204C203.802 6.99984 203.609 7.05841 203.444 7.16828C203.279 7.27815 203.151 7.43439 203.075 7.61721C203 7.80003 202.98 8.00122 203.018 8.19531C203.057 8.38939 203.152 8.56765 203.292 8.7075L207.292 12.7075ZM208.708 19.2925C208.615 19.1995 208.504 19.1258 208.383 19.0754C208.262 19.0251 208.131 18.9992 208 18.9992C207.869 18.9992 207.738 19.0251 207.617 19.0754C207.496 19.1258 207.385 19.1995 207.292 19.2925L203.292 23.2925C203.152 23.4324 203.057 23.6106 203.018 23.8047C202.98 23.9988 203 24.2 203.075 24.3828C203.151 24.5656 203.279 24.7218 203.444 24.8317C203.609 24.9416 203.802 25.0002 204 25H207V29C207 29.2652 207.105 29.5196 207.293 29.7071C207.48 29.8946 207.735 30 208 30C208.265 30 208.52 29.8946 208.707 29.7071C208.895 29.5196 209 29.2652 209 29V25H212C212.198 25.0002 212.391 24.9416 212.556 24.8317C212.721 24.7218 212.849 24.5656 212.925 24.3828C213 24.2 213.02 23.9988 212.982 23.8047C212.943 23.6106 212.848 23.4324 212.708 23.2925L208.708 19.2925ZM221 15H217V12C217 11.8021 216.942 11.6086 216.832 11.444C216.722 11.2794 216.566 11.1511 216.383 11.0754C216.2 10.9996 215.999 10.9798 215.805 11.0185C215.611 11.0571 215.432 11.1525 215.292 11.2925L211.292 15.2925C211.2 15.3854 211.126 15.4957 211.075 15.6171C211.025 15.7385 210.999 15.8686 210.999 16C210.999 16.1314 211.025 16.2615 211.075 16.3829C211.126 16.5043 211.2 16.6146 211.292 16.7075L215.292 20.7075C215.432 20.8475 215.611 20.9429 215.805 20.9815C215.999 21.0202 216.2 21.0004 216.383 20.9246C216.566 20.8489 216.722 20.7206 216.832 20.556C216.942 20.3914 217 20.1979 217 20V17H221C221.265 17 221.52 16.8946 221.707 16.7071C221.895 16.5196 222 16.2652 222 16C222 15.7348 221.895 15.4804 221.707 15.2929C221.52 15.1054 221.265 15 221 15Z" fill="currentColor"/>
<path opacity="0.2" d="M256 12L252 8H260L256 12ZM252 24H260L256 20L252 24ZM260 16L264 20V12L260 16ZM248 12V20L252 16L248 12Z" fill="currentColor"/>
<path d="M255.292 12.7075C255.385 12.8005 255.496 12.8742 255.617 12.9246C255.738 12.9749 255.869 13.0008 256 13.0008C256.131 13.0008 256.262 12.9749 256.383 12.9246C256.504 12.8742 256.615 12.8005 256.708 12.7075L260.708 8.7075C260.848 8.56765 260.943 8.38939 260.982 8.19531C261.02 8.00122 261 7.80003 260.925 7.61721C260.849 7.43439 260.721 7.27815 260.556 7.16828C260.391 7.05841 260.198 6.99984 260 7H257V3C257 2.73478 256.895 2.48043 256.707 2.29289C256.52 2.10536 256.265 2 256 2C255.735 2 255.48 2.10536 255.293 2.29289C255.105 2.48043 255 2.73478 255 3V7H252C251.802 6.99984 251.609 7.05841 251.444 7.16828C251.279 7.27815 251.151 7.43439 251.075 7.61721C251 7.80003 250.98 8.00122 251.018 8.19531C251.057 8.38939 251.152 8.56765 251.292 8.7075L255.292 12.7075ZM257.586 9L256 10.5863L254.414 9H257.586ZM256.711 19.2925C256.618 19.1995 256.508 19.1258 256.387 19.0754C256.265 19.0251 256.135 18.9992 256.004 18.9992C255.872 18.9992 255.742 19.0251 255.621 19.0754C255.499 19.1258 255.389 19.1995 255.296 19.2925L251.296 23.2925C251.156 23.4321 251.061 23.61 251.022 23.8038C250.984 23.9975 251.003 24.1984 251.078 24.3811C251.154 24.5637 251.281 24.72 251.445 24.8302C251.609 24.9403 251.802 24.9994 252 25H255V29C255 29.2652 255.105 29.5196 255.293 29.7071C255.48 29.8946 255.735 30 256 30C256.265 30 256.52 29.8946 256.707 29.7071C256.895 29.5196 257 29.2652 257 29V25H260C260.198 25.0002 260.391 24.9416 260.556 24.8317C260.721 24.7218 260.849 24.5656 260.925 24.3828C261 24.2 261.02 23.9988 260.982 23.8047C260.943 23.6106 260.848 23.4324 260.708 23.2925L256.711 19.2925ZM254.414 23L256 21.4137L257.586 23H254.414ZM269 15H265V12C265 11.8021 264.942 11.6086 264.832 11.444C264.722 11.2794 264.566 11.1511 264.383 11.0754C264.2 10.9996 263.999 10.9798 263.805 11.0185C263.611 11.0571 263.432 11.1525 263.292 11.2925L259.292 15.2925C259.2 15.3854 259.126 15.4957 259.075 15.6171C259.025 15.7385 258.999 15.8686 258.999 16C258.999 16.1314 259.025 16.2615 259.075 16.3829C259.126 16.5043 259.2 16.6146 259.292 16.7075L263.292 20.7075C263.432 20.8475 263.611 20.9429 263.805 20.9815C263.999 21.0202 264.2 21.0004 264.383 20.9246C264.566 20.8489 264.722 20.7206 264.832 20.556C264.942 20.3914 265 20.1979 265 20V17H269C269.265 17 269.52 16.8946 269.707 16.7071C269.895 16.5196 270 16.2652 270 16C270 15.7348 269.895 15.4804 269.707 15.2929C269.52 15.1054 269.265 15 269 15ZM263 17.5863L261.414 16L263 14.4137V17.5863ZM252.708 15.2925L248.708 11.2925C248.568 11.1525 248.389 11.0571 248.195 11.0185C248.001 10.9798 247.8 10.9996 247.617 11.0754C247.434 11.1511 247.278 11.2794 247.168 11.444C247.058 11.6086 247 11.8021 247 12V15H243C242.735 15 242.48 15.1054 242.293 15.2929C242.105 15.4804 242 15.7348 242 16C242 16.2652 242.105 16.5196 242.293 16.7071C242.48 16.8946 242.735 17 243 17H247V20C247 20.1979 247.058 20.3914 247.168 20.556C247.278 20.7206 247.434 20.8489 247.617 20.9246C247.8 21.0004 248.001 21.0202 248.195 20.9815C248.389 20.9429 248.568 20.8475 248.708 20.7075L252.708 16.7075C252.8 16.6146 252.874 16.5043 252.925 16.3829C252.975 16.2615 253.001 16.1314 253.001 16C253.001 15.8686 252.975 15.7385 252.925 15.6171C252.874 15.4957 252.8 15.3854 252.708 15.2925ZM249 17.5863V14.4137L250.586 16L249 17.5863Z" fill="currentColor"/>
</g>
<defs>
<clipPath id="clip0_17_6030">
<rect width="272" height="32" rx="5" fill="white"/>
</clipPath>
</defs>
</svg>
