<svg width="272" height="32" viewBox="0 0 272 32" fill="none" xmlns="http://www.w3.org/2000/svg">
<g clip-path="url(#clip0_17_6982)">
<path d="M16 3C13.4288 3 10.9154 3.76244 8.77759 5.1909C6.63975 6.61935 4.97351 8.64968 3.98957 11.0251C3.00563 13.4006 2.74819 16.0144 3.2498 18.5362C3.75141 21.0579 4.98953 23.3743 6.80762 25.1924C8.6257 27.0105 10.9421 28.2486 13.4638 28.7502C15.9856 29.2518 18.5995 28.9944 20.9749 28.0104C23.3503 27.0265 25.3807 25.3603 26.8091 23.2224C28.2376 21.0846 29 18.5712 29 16C28.9964 12.5533 27.6256 9.24882 25.1884 6.81163C22.7512 4.37445 19.4467 3.00364 16 3ZM16 27C13.8244 27 11.6977 26.3549 9.88873 25.1462C8.07979 23.9375 6.66989 22.2195 5.83733 20.2095C5.00477 18.1995 4.78693 15.9878 5.21137 13.854C5.63581 11.7202 6.68345 9.7602 8.22183 8.22183C9.76021 6.68345 11.7202 5.6358 13.854 5.21136C15.9878 4.78692 18.1995 5.00476 20.2095 5.83733C22.2195 6.66989 23.9375 8.07979 25.1462 9.88873C26.3549 11.6977 27 13.8244 27 16C26.9967 18.9164 25.8367 21.7123 23.7745 23.7745C21.7123 25.8367 18.9164 26.9967 16 27ZM22 16C22 16.2652 21.8946 16.5196 21.7071 16.7071C21.5196 16.8946 21.2652 17 21 17H13.4138L15.7075 19.2925C15.8004 19.3854 15.8741 19.4957 15.9244 19.6171C15.9747 19.7385 16.0006 19.8686 16.0006 20C16.0006 20.1314 15.9747 20.2615 15.9244 20.3829C15.8741 20.5043 15.8004 20.6146 15.7075 20.7075C15.6146 20.8004 15.5043 20.8741 15.3829 20.9244C15.2615 20.9747 15.1314 21.0006 15 21.0006C14.8686 21.0006 14.7385 20.9747 14.6171 20.9244C14.4957 20.8741 14.3854 20.8004 14.2925 20.7075L10.2925 16.7075C10.1995 16.6146 10.1258 16.5043 10.0754 16.3829C10.0251 16.2615 9.99922 16.1314 9.99922 16C9.99922 15.8686 10.0251 15.7385 10.0754 15.6171C10.1258 15.4957 10.1995 15.3854 10.2925 15.2925L14.2925 11.2925C14.4801 11.1049 14.7346 10.9994 15 10.9994C15.2654 10.9994 15.5199 11.1049 15.7075 11.2925C15.8951 11.4801 16.0006 11.7346 16.0006 12C16.0006 12.2654 15.8951 12.5199 15.7075 12.7075L13.4138 15H21C21.2652 15 21.5196 15.1054 21.7071 15.2929C21.8946 15.4804 22 15.7348 22 16Z" fill="currentColor"/>
<path d="M64 3.5C61.5277 3.5 59.111 4.23311 57.0554 5.60663C54.9998 6.98015 53.3976 8.93238 52.4515 11.2165C51.5054 13.5005 51.2579 16.0139 51.7402 18.4386C52.2225 20.8634 53.413 23.0907 55.1612 24.8388C56.9093 26.587 59.1366 27.7775 61.5614 28.2598C63.9861 28.7421 66.4995 28.4946 68.7835 27.5485C71.0676 26.6024 73.0199 25.0002 74.3934 22.9446C75.7669 20.889 76.5 18.4723 76.5 16C76.4964 12.6859 75.1782 9.5086 72.8348 7.16518C70.4914 4.82177 67.3141 3.50364 64 3.5ZM64 27.5C61.7255 27.5 59.5021 26.8255 57.6109 25.5619C55.7198 24.2983 54.2458 22.5022 53.3754 20.4009C52.505 18.2995 52.2772 15.9872 52.721 13.7565C53.1647 11.5257 54.26 9.47658 55.8683 7.86827C57.4766 6.25997 59.5257 5.1647 61.7565 4.72097C63.9872 4.27724 66.2995 4.50498 68.4009 5.37539C70.5022 6.24579 72.2983 7.71978 73.5619 9.61094C74.8255 11.5021 75.5 13.7255 75.5 16C75.4967 19.049 74.284 21.9721 72.1281 24.1281C69.9721 26.284 67.049 27.4967 64 27.5ZM69.5 16C69.5 16.1326 69.4473 16.2598 69.3536 16.3536C69.2598 16.4473 69.1326 16.5 69 16.5H60.2075L63.3538 19.6462C63.4476 19.7401 63.5003 19.8673 63.5003 20C63.5003 20.1327 63.4476 20.2599 63.3538 20.3538C63.2599 20.4476 63.1327 20.5003 63 20.5003C62.8673 20.5003 62.7401 20.4476 62.6463 20.3538L58.6463 16.3538C58.5998 16.3073 58.5629 16.2522 58.5377 16.1915C58.5126 16.1308 58.4996 16.0657 58.4996 16C58.4996 15.9343 58.5126 15.8692 58.5377 15.8085C58.5629 15.7478 58.5998 15.6927 58.6463 15.6462L62.6463 11.6462C62.7401 11.5524 62.8673 11.4997 63 11.4997C63.1327 11.4997 63.2599 11.5524 63.3538 11.6462C63.4476 11.7401 63.5003 11.8673 63.5003 12C63.5003 12.1327 63.4476 12.2599 63.3538 12.3538L60.2075 15.5H69C69.1326 15.5 69.2598 15.5527 69.3536 15.6464C69.4473 15.7402 69.5 15.8674 69.5 16Z" fill="currentColor"/>
<path d="M112 3.25C109.478 3.25 107.013 3.99777 104.916 5.39876C102.82 6.79975 101.186 8.79103 100.221 11.1208C99.2555 13.4505 99.003 16.0141 99.495 18.4874C99.987 20.9607 101.201 23.2325 102.984 25.0156C104.768 26.7987 107.039 28.0131 109.513 28.505C111.986 28.997 114.549 28.7445 116.879 27.7795C119.209 26.8144 121.2 25.1802 122.601 23.0835C124.002 20.9868 124.75 18.5217 124.75 16C124.746 12.6197 123.401 9.379 121.011 6.98877C118.621 4.59854 115.38 3.25397 112 3.25ZM112 27.25C109.775 27.25 107.6 26.5902 105.75 25.354C103.9 24.1179 102.458 22.3609 101.606 20.3052C100.755 18.2495 100.532 15.9875 100.966 13.8052C101.4 11.6229 102.472 9.61839 104.045 8.04505C105.618 6.47171 107.623 5.40025 109.805 4.96617C111.988 4.53208 114.25 4.75487 116.305 5.60636C118.361 6.45784 120.118 7.89978 121.354 9.74984C122.59 11.5999 123.25 13.775 123.25 16C123.247 18.9827 122.06 21.8422 119.951 23.9513C117.842 26.0604 114.983 27.2467 112 27.25ZM117.75 16C117.75 16.1989 117.671 16.3897 117.53 16.5303C117.39 16.671 117.199 16.75 117 16.75H108.811L111.53 19.47C111.604 19.5387 111.663 19.6215 111.704 19.7135C111.745 19.8055 111.767 19.9048 111.769 20.0055C111.77 20.1062 111.752 20.2062 111.714 20.2996C111.676 20.393 111.62 20.4778 111.549 20.549C111.478 20.6203 111.393 20.6764 111.3 20.7141C111.206 20.7518 111.106 20.7704 111.005 20.7686C110.905 20.7668 110.805 20.7448 110.713 20.7038C110.621 20.6628 110.539 20.6037 110.47 20.53L106.47 16.53C106.33 16.3894 106.251 16.1988 106.251 16C106.251 15.8012 106.33 15.6106 106.47 15.47L110.47 11.47C110.612 11.3375 110.8 11.2654 110.995 11.2688C111.189 11.2723 111.374 11.351 111.512 11.4884C111.649 11.6258 111.728 11.8112 111.731 12.0055C111.735 12.1998 111.662 12.3878 111.53 12.53L108.811 15.25H117C117.199 15.25 117.39 15.329 117.53 15.4697C117.671 15.6103 117.75 15.8011 117.75 16Z" fill="currentColor"/>
<path d="M160 2.5C157.33 2.5 154.72 3.29176 152.5 4.77516C150.28 6.25856 148.549 8.36697 147.528 10.8338C146.506 13.3006 146.239 16.015 146.759 18.6337C147.28 21.2525 148.566 23.6579 150.454 25.5459C152.342 27.434 154.748 28.7197 157.366 29.2406C159.985 29.7615 162.699 29.4942 165.166 28.4724C167.633 27.4506 169.741 25.7203 171.225 23.5002C172.708 21.2801 173.5 18.67 173.5 16C173.496 12.4208 172.072 8.98932 169.542 6.45844C167.011 3.92756 163.579 2.50397 160 2.5ZM160 26.5C157.923 26.5 155.893 25.8842 154.167 24.7304C152.44 23.5767 151.094 21.9368 150.299 20.0182C149.505 18.0996 149.297 15.9884 149.702 13.9516C150.107 11.9148 151.107 10.0438 152.575 8.57538C154.044 7.10693 155.915 6.1069 157.952 5.70175C159.988 5.29661 162.1 5.50454 164.018 6.29926C165.937 7.09399 167.577 8.4398 168.73 10.1665C169.884 11.8932 170.5 13.9233 170.5 16C170.497 18.7839 169.39 21.4528 167.421 23.4213C165.453 25.3898 162.784 26.497 160 26.5ZM166.5 16C166.5 16.3978 166.342 16.7794 166.061 17.0607C165.779 17.342 165.398 17.5 165 17.5H158.625L160.065 18.9387C160.347 19.2205 160.505 19.6027 160.505 20.0012C160.505 20.3998 160.347 20.782 160.065 21.0637C159.783 21.3455 159.401 21.5039 159.003 21.5039C158.604 21.5039 158.222 21.3455 157.94 21.0637L153.94 17.0637C153.8 16.9244 153.689 16.7588 153.614 16.5765C153.538 16.3941 153.499 16.1987 153.499 16.0012C153.499 15.8038 153.538 15.6083 153.614 15.426C153.689 15.2437 153.8 15.0781 153.94 14.9388L157.94 10.9388C158.08 10.7992 158.245 10.6885 158.427 10.613C158.61 10.5375 158.805 10.4986 159.003 10.4986C159.2 10.4986 159.395 10.5375 159.578 10.613C159.76 10.6885 159.925 10.7992 160.065 10.9388C160.205 11.0783 160.315 11.2439 160.391 11.4262C160.466 11.6085 160.505 11.8039 160.505 12.0013C160.505 12.1986 160.466 12.394 160.391 12.5763C160.315 12.7586 160.205 12.9242 160.065 13.0638L158.625 14.5H165C165.398 14.5 165.779 14.658 166.061 14.9393C166.342 15.2206 166.5 15.6022 166.5 16Z" fill="currentColor"/>
<path d="M208 3C205.429 3 202.915 3.76244 200.778 5.1909C198.64 6.61935 196.974 8.64968 195.99 11.0251C195.006 13.4006 194.748 16.0144 195.25 18.5362C195.751 21.0579 196.99 23.3743 198.808 25.1924C200.626 27.0105 202.942 28.2486 205.464 28.7502C207.986 29.2518 210.599 28.9944 212.975 28.0104C215.35 27.0265 217.381 25.3603 218.809 23.2224C220.238 21.0846 221 18.5712 221 16C220.996 12.5533 219.626 9.24882 217.188 6.81163C214.751 4.37445 211.447 3.00364 208 3ZM213 17H205.414L207.708 19.2925C207.8 19.3854 207.874 19.4957 207.924 19.6171C207.975 19.7385 208.001 19.8686 208.001 20C208.001 20.1314 207.975 20.2615 207.924 20.3829C207.874 20.5043 207.8 20.6146 207.708 20.7075C207.615 20.8004 207.504 20.8741 207.383 20.9244C207.262 20.9747 207.131 21.0006 207 21.0006C206.869 21.0006 206.739 20.9747 206.617 20.9244C206.496 20.8741 206.385 20.8004 206.293 20.7075L202.293 16.7075C202.2 16.6146 202.126 16.5043 202.075 16.3829C202.025 16.2615 201.999 16.1314 201.999 16C201.999 15.8686 202.025 15.7385 202.075 15.6171C202.126 15.4957 202.2 15.3854 202.293 15.2925L206.293 11.2925C206.48 11.1049 206.735 10.9994 207 10.9994C207.265 10.9994 207.52 11.1049 207.708 11.2925C207.895 11.4801 208.001 11.7346 208.001 12C208.001 12.2654 207.895 12.5199 207.708 12.7075L205.414 15H213C213.265 15 213.52 15.1054 213.707 15.2929C213.895 15.4804 214 15.7348 214 16C214 16.2652 213.895 16.5196 213.707 16.7071C213.52 16.8946 213.265 17 213 17Z" fill="currentColor"/>
<path opacity="0.2" d="M268 16C268 18.3734 267.296 20.6935 265.978 22.6668C264.659 24.6402 262.785 26.1783 260.592 27.0866C258.399 27.9948 255.987 28.2324 253.659 27.7694C251.331 27.3064 249.193 26.1635 247.515 24.4853C245.836 22.8071 244.694 20.6689 244.231 18.3411C243.768 16.0133 244.005 13.6005 244.913 11.4078C245.822 9.21509 247.36 7.34094 249.333 6.02236C251.307 4.70379 253.627 4 256 4C259.183 4 262.235 5.26428 264.485 7.51472C266.736 9.76515 268 12.8174 268 16Z" fill="currentColor"/>
<path d="M256 3C253.429 3 250.915 3.76244 248.778 5.1909C246.64 6.61935 244.974 8.64968 243.99 11.0251C243.006 13.4006 242.748 16.0144 243.25 18.5362C243.751 21.0579 244.99 23.3743 246.808 25.1924C248.626 27.0105 250.942 28.2486 253.464 28.7502C255.986 29.2518 258.599 28.9944 260.975 28.0104C263.35 27.0265 265.381 25.3603 266.809 23.2224C268.238 21.0846 269 18.5712 269 16C268.996 12.5533 267.626 9.24882 265.188 6.81163C262.751 4.37445 259.447 3.00364 256 3ZM256 27C253.824 27 251.698 26.3549 249.889 25.1462C248.08 23.9375 246.67 22.2195 245.837 20.2095C245.005 18.1995 244.787 15.9878 245.211 13.854C245.636 11.7202 246.683 9.7602 248.222 8.22183C249.76 6.68345 251.72 5.6358 253.854 5.21136C255.988 4.78692 258.2 5.00476 260.21 5.83733C262.22 6.66989 263.937 8.07979 265.146 9.88873C266.355 11.6977 267 13.8244 267 16C266.997 18.9164 265.837 21.7123 263.775 23.7745C261.712 25.8367 258.916 26.9967 256 27ZM262 16C262 16.2652 261.895 16.5196 261.707 16.7071C261.52 16.8946 261.265 17 261 17H253.414L255.708 19.2925C255.8 19.3854 255.874 19.4957 255.924 19.6171C255.975 19.7385 256.001 19.8686 256.001 20C256.001 20.1314 255.975 20.2615 255.924 20.3829C255.874 20.5043 255.8 20.6146 255.708 20.7075C255.615 20.8004 255.504 20.8741 255.383 20.9244C255.262 20.9747 255.131 21.0006 255 21.0006C254.869 21.0006 254.739 20.9747 254.617 20.9244C254.496 20.8741 254.385 20.8004 254.293 20.7075L250.293 16.7075C250.2 16.6146 250.126 16.5043 250.075 16.3829C250.025 16.2615 249.999 16.1314 249.999 16C249.999 15.8686 250.025 15.7385 250.075 15.6171C250.126 15.4957 250.2 15.3854 250.293 15.2925L254.293 11.2925C254.48 11.1049 254.735 10.9994 255 10.9994C255.265 10.9994 255.52 11.1049 255.708 11.2925C255.895 11.4801 256.001 11.7346 256.001 12C256.001 12.2654 255.895 12.5199 255.708 12.7075L253.414 15H261C261.265 15 261.52 15.1054 261.707 15.2929C261.895 15.4804 262 15.7348 262 16Z" fill="currentColor"/>
</g>
<defs>
<clipPath id="clip0_17_6982">
<rect width="272" height="32" rx="5" fill="white"/>
</clipPath>
</defs>
</svg>
