<svg width="272" height="32" viewBox="0 0 272 32" fill="none" xmlns="http://www.w3.org/2000/svg">
<g clip-path="url(#clip0_17_5876)">
<path d="M28.7076 23.7075L24.7076 27.7075C24.6147 27.8005 24.5044 27.8742 24.383 27.9246C24.2616 27.9749 24.1315 28.0008 24.0001 28.0008C23.8687 28.0008 23.7385 27.9749 23.6171 27.9246C23.4957 27.8742 23.3854 27.8005 23.2926 27.7075L19.2926 23.7075C19.1049 23.5199 18.9995 23.2654 18.9995 23C18.9995 22.7346 19.1049 22.4801 19.2926 22.2925C19.4802 22.1049 19.7347 21.9994 20.0001 21.9994C20.2654 21.9994 20.5199 22.1049 20.7076 22.2925L23.0001 24.5863V17.4137L16.0001 10.4137L9.00007 17.4137V24.5863L11.2926 22.2925C11.4802 22.1049 11.7347 21.9994 12.0001 21.9994C12.2654 21.9994 12.5199 22.1049 12.7076 22.2925C12.8952 22.4801 13.0006 22.7346 13.0006 23C13.0006 23.2654 12.8952 23.5199 12.7076 23.7075L8.70757 27.7075C8.6147 27.8005 8.50441 27.8742 8.38301 27.9246C8.26161 27.9749 8.13148 28.0008 8.00007 28.0008C7.86865 28.0008 7.73853 27.9749 7.61713 27.9246C7.49573 27.8742 7.38544 27.8005 7.29257 27.7075L3.29257 23.7075C3.19966 23.6146 3.12596 23.5043 3.07567 23.3829C3.02539 23.2615 2.99951 23.1314 2.99951 23C2.99951 22.8686 3.02539 22.7385 3.07567 22.6171C3.12596 22.4957 3.19966 22.3854 3.29257 22.2925C3.48021 22.1049 3.7347 21.9994 4.00007 21.9994C4.13146 21.9994 4.26157 22.0253 4.38296 22.0756C4.50436 22.1259 4.61466 22.1996 4.70757 22.2925L7.00007 24.5863V17C6.99996 16.8686 7.02574 16.7385 7.07593 16.6171C7.12612 16.4958 7.19973 16.3854 7.29257 16.2925L15.0001 8.58625V3C15.0001 2.73478 15.1054 2.48043 15.293 2.29289C15.4805 2.10536 15.7349 2 16.0001 2C16.2653 2 16.5196 2.10536 16.7072 2.29289C16.8947 2.48043 17.0001 2.73478 17.0001 3V8.58625L24.7076 16.2925C24.8004 16.3854 24.874 16.4958 24.9242 16.6171C24.9744 16.7385 25.0002 16.8686 25.0001 17V24.5863L27.2926 22.2925C27.4802 22.1049 27.7347 21.9994 28.0001 21.9994C28.2654 21.9994 28.5199 22.1049 28.7076 22.2925C28.8952 22.4801 29.0006 22.7346 29.0006 23C29.0006 23.2654 28.8952 23.5199 28.7076 23.7075Z" fill="currentColor"/>
<path d="M76.3538 23.3538L72.3538 27.3538C72.3073 27.4002 72.2522 27.4371 72.1915 27.4623C72.1308 27.4874 72.0657 27.5004 72 27.5004C71.9343 27.5004 71.8693 27.4874 71.8086 27.4623C71.7479 27.4371 71.6927 27.4002 71.6463 27.3538L67.6463 23.3538C67.5525 23.2599 67.4998 23.1327 67.4998 23C67.4998 22.8673 67.5525 22.7401 67.6463 22.6462C67.7401 22.5524 67.8674 22.4997 68 22.4997C68.1327 22.4997 68.26 22.5524 68.3538 22.6462L71.5 25.7925V17.2075L64 9.7075L56.5 17.2075V25.7925L59.6463 22.6462C59.7401 22.5524 59.8674 22.4997 60 22.4997C60.1327 22.4997 60.26 22.5524 60.3538 22.6462C60.4476 22.7401 60.5003 22.8673 60.5003 23C60.5003 23.1327 60.4476 23.2599 60.3538 23.3538L56.3538 27.3538C56.3073 27.4002 56.2522 27.4371 56.1915 27.4623C56.1308 27.4874 56.0657 27.5004 56 27.5004C55.9343 27.5004 55.8693 27.4874 55.8086 27.4623C55.7479 27.4371 55.6927 27.4002 55.6463 27.3538L51.6463 23.3538C51.5525 23.2599 51.4998 23.1327 51.4998 23C51.4998 22.8673 51.5525 22.7401 51.6463 22.6462C51.7401 22.5524 51.8674 22.4997 52 22.4997C52.1327 22.4997 52.26 22.5524 52.3538 22.6462L55.5 25.7925V17C55.5 16.9343 55.5129 16.8693 55.538 16.8086C55.5631 16.7479 55.5999 16.6927 55.6463 16.6462L63.5 8.7925V3C63.5 2.86739 63.5527 2.74021 63.6465 2.64645C63.7402 2.55268 63.8674 2.5 64 2.5C64.1326 2.5 64.2598 2.55268 64.3536 2.64645C64.4474 2.74021 64.5 2.86739 64.5 3V8.7925L72.3538 16.6462C72.4002 16.6927 72.437 16.7479 72.4621 16.8086C72.4872 16.8693 72.5001 16.9343 72.5 17V25.7925L75.6463 22.6462C75.6927 22.5998 75.7479 22.5629 75.8086 22.5378C75.8693 22.5127 75.9343 22.4997 76 22.4997C76.0657 22.4997 76.1308 22.5127 76.1915 22.5378C76.2522 22.5629 76.3073 22.5998 76.3538 22.6462C76.4002 22.6927 76.4371 22.7479 76.4622 22.8086C76.4874 22.8692 76.5003 22.9343 76.5003 23C76.5003 23.0657 76.4874 23.1308 76.4622 23.1914C76.4371 23.2521 76.4002 23.3073 76.3538 23.3538Z" fill="currentColor"/>
<path d="M124.53 23.53L120.53 27.53C120.389 27.6705 120.199 27.7493 120 27.7493C119.801 27.7493 119.611 27.6705 119.47 27.53L115.47 23.53C115.338 23.3878 115.265 23.1998 115.269 23.0055C115.272 22.8112 115.351 22.6258 115.488 22.4884C115.626 22.351 115.811 22.2723 116.006 22.2688C116.2 22.2654 116.388 22.3375 116.53 22.47L119.25 25.1887V17.3137L112 10.0638L104.75 17.3137V25.1887L107.47 22.47C107.612 22.3375 107.8 22.2654 107.995 22.2688C108.189 22.2723 108.374 22.351 108.512 22.4884C108.649 22.6258 108.728 22.8112 108.731 23.0055C108.735 23.1998 108.663 23.3878 108.53 23.53L104.53 27.53C104.389 27.6705 104.199 27.7493 104 27.7493C103.801 27.7493 103.611 27.6705 103.47 27.53L99.4701 23.53C99.3376 23.3878 99.2655 23.1998 99.2689 23.0055C99.2723 22.8112 99.3511 22.6258 99.4885 22.4884C99.6259 22.351 99.8113 22.2723 100.006 22.2688C100.2 22.2654 100.388 22.3375 100.53 22.47L103.25 25.1887V17C103.25 16.8012 103.329 16.6105 103.47 16.47L111.25 8.68875V3C111.25 2.80109 111.329 2.61032 111.47 2.46967C111.61 2.32902 111.801 2.25 112 2.25C112.199 2.25 112.39 2.32902 112.53 2.46967C112.671 2.61032 112.75 2.80109 112.75 3V8.68875L120.53 16.47C120.671 16.6105 120.75 16.8012 120.75 17V25.1887L123.47 22.47C123.612 22.3375 123.8 22.2654 123.995 22.2688C124.189 22.2723 124.374 22.351 124.512 22.4884C124.649 22.6258 124.728 22.8112 124.731 23.0055C124.735 23.1998 124.663 23.3878 124.53 23.53Z" fill="currentColor"/>
<path d="M173.061 24.0613L169.061 28.0613C168.922 28.2011 168.756 28.312 168.574 28.3878C168.392 28.4635 168.196 28.5024 167.999 28.5024C167.801 28.5024 167.606 28.4635 167.423 28.3878C167.241 28.312 167.075 28.2011 166.936 28.0613L162.936 24.0613C162.654 23.7795 162.496 23.3973 162.496 22.9988C162.496 22.6002 162.654 22.218 162.936 21.9363C163.218 21.6545 163.6 21.4961 163.999 21.4961C164.397 21.4961 164.779 21.6545 165.061 21.9363L166.5 23.375V17.625L160 11.125L153.5 17.625V23.375L154.939 21.935C155.22 21.6532 155.603 21.4949 156.001 21.4949C156.4 21.4949 156.782 21.6532 157.064 21.935C157.345 22.2168 157.504 22.599 157.504 22.9975C157.504 23.396 157.345 23.7782 157.064 24.06L153.064 28.06C152.924 28.1998 152.759 28.3108 152.576 28.3865C152.394 28.4622 152.199 28.5012 152.001 28.5012C151.804 28.5012 151.608 28.4622 151.426 28.3865C151.244 28.3108 151.078 28.1998 150.939 28.06L146.939 24.06C146.657 23.7782 146.499 23.396 146.499 22.9975C146.499 22.599 146.657 22.2168 146.939 21.935C147.22 21.6532 147.603 21.4949 148.001 21.4949C148.4 21.4949 148.782 21.6532 149.064 21.935L150.5 23.375V17C150.5 16.803 150.538 16.6078 150.614 16.4257C150.689 16.2436 150.799 16.0782 150.939 15.9388L158.5 8.375V3C158.5 2.60218 158.658 2.22064 158.939 1.93934C159.221 1.65804 159.602 1.5 160 1.5C160.398 1.5 160.779 1.65804 161.061 1.93934C161.342 2.22064 161.5 2.60218 161.5 3V8.375L169.061 15.935C169.201 16.0749 169.312 16.2409 169.387 16.4237C169.462 16.6065 169.501 16.8023 169.5 17V23.375L170.939 21.935C171.078 21.7955 171.244 21.6848 171.426 21.6093C171.608 21.5338 171.804 21.4949 172.001 21.4949C172.198 21.4949 172.394 21.5338 172.576 21.6093C172.758 21.6848 172.924 21.7955 173.064 21.935C173.203 22.0745 173.314 22.2402 173.389 22.4225C173.465 22.6048 173.504 22.8002 173.504 22.9975C173.504 23.1948 173.465 23.3902 173.389 23.5725C173.314 23.7548 173.203 23.9205 173.064 24.06L173.061 24.0613Z" fill="currentColor"/>
<path d="M220.708 23.7075L216.708 27.7075C216.615 27.8005 216.504 27.8742 216.383 27.9246C216.262 27.9749 216.131 28.0008 216 28.0008C215.869 28.0008 215.739 27.9749 215.617 27.9246C215.496 27.8742 215.385 27.8005 215.293 27.7075L211.293 23.7075C211.153 23.5676 211.057 23.3894 211.019 23.1953C210.98 23.0012 211 22.8 211.075 22.6172C211.151 22.4344 211.279 22.2782 211.444 22.1683C211.609 22.0584 211.802 21.9998 212 22H215V17.4137L208 10.4137L201 17.4137V22H204C204.198 21.9998 204.391 22.0584 204.556 22.1683C204.721 22.2782 204.849 22.4344 204.925 22.6172C205 22.8 205.02 23.0012 204.982 23.1953C204.943 23.3894 204.848 23.5676 204.708 23.7075L200.708 27.7075C200.615 27.8005 200.504 27.8742 200.383 27.9246C200.262 27.9749 200.131 28.0008 200 28.0008C199.869 28.0008 199.739 27.9749 199.617 27.9246C199.496 27.8742 199.385 27.8005 199.293 27.7075L195.293 23.7075C195.153 23.5676 195.057 23.3894 195.019 23.1953C194.98 23.0012 195 22.8 195.075 22.6172C195.151 22.4344 195.279 22.2782 195.444 22.1683C195.609 22.0584 195.802 21.9998 196 22H199V17C199 16.8686 199.026 16.7385 199.076 16.6171C199.126 16.4958 199.2 16.3854 199.293 16.2925L207 8.58625V3C207 2.73478 207.105 2.48043 207.293 2.29289C207.48 2.10536 207.735 2 208 2C208.265 2 208.52 2.10536 208.707 2.29289C208.895 2.48043 209 2.73478 209 3V8.58625L216.708 16.2925C216.8 16.3854 216.874 16.4958 216.924 16.6171C216.974 16.7385 217 16.8686 217 17V22H220C220.198 21.9998 220.391 22.0584 220.556 22.1683C220.721 22.2782 220.849 22.4344 220.925 22.6172C221 22.8 221.02 23.0012 220.982 23.1953C220.943 23.3894 220.848 23.5676 220.708 23.7075Z" fill="currentColor"/>
<path opacity="0.2" d="M244 23H252L248 27L244 23ZM260 23L264 27L268 23H260Z" fill="currentColor"/>
<path d="M268.924 22.6175C268.848 22.4348 268.72 22.2786 268.556 22.1686C268.391 22.0587 268.198 22 268 22H265V17C265 16.8686 264.974 16.7385 264.924 16.6171C264.874 16.4958 264.8 16.3854 264.708 16.2925L257 8.58625V3C257 2.73478 256.895 2.48043 256.707 2.29289C256.52 2.10536 256.265 2 256 2C255.735 2 255.48 2.10536 255.293 2.29289C255.105 2.48043 255 2.73478 255 3V8.58625L247.293 16.2925C247.2 16.3854 247.126 16.4958 247.076 16.6171C247.026 16.7385 247 16.8686 247 17V22H244C243.802 21.9998 243.609 22.0584 243.444 22.1683C243.279 22.2782 243.151 22.4344 243.075 22.6172C243 22.8 242.98 23.0012 243.019 23.1953C243.057 23.3894 243.153 23.5676 243.293 23.7075L247.293 27.7075C247.385 27.8005 247.496 27.8742 247.617 27.9246C247.739 27.9749 247.869 28.0008 248 28.0008C248.131 28.0008 248.262 27.9749 248.383 27.9246C248.504 27.8742 248.615 27.8005 248.708 27.7075L252.708 23.7075C252.848 23.5676 252.943 23.3894 252.982 23.1953C253.02 23.0012 253 22.8 252.925 22.6172C252.849 22.4344 252.721 22.2782 252.556 22.1683C252.391 22.0584 252.198 21.9998 252 22H249V17.4137L256 10.4137L263 17.4137V22H260C259.802 21.9998 259.609 22.0584 259.444 22.1683C259.279 22.2782 259.151 22.4344 259.075 22.6172C259 22.8 258.98 23.0012 259.019 23.1953C259.057 23.3894 259.153 23.5676 259.293 23.7075L263.293 27.7075C263.385 27.8005 263.496 27.8742 263.617 27.9246C263.739 27.9749 263.869 28.0008 264 28.0008C264.131 28.0008 264.262 27.9749 264.383 27.9246C264.504 27.8742 264.615 27.8005 264.708 27.7075L268.708 23.7075C268.847 23.5676 268.943 23.3893 268.981 23.1953C269.02 23.0013 269 22.8002 268.924 22.6175ZM248 25.5863L246.414 24H249.586L248 25.5863ZM264 25.5863L262.414 24H265.586L264 25.5863Z" fill="currentColor"/>
</g>
<defs>
<clipPath id="clip0_17_5876">
<rect width="272" height="32" rx="5" fill="white"/>
</clipPath>
</defs>
</svg>
