<svg width="272" height="32" viewBox="0 0 272 32" fill="none" xmlns="http://www.w3.org/2000/svg">
<g clip-path="url(#clip0_17_6464)">
<path d="M23.7075 15.2925C23.8005 15.3854 23.8742 15.4957 23.9246 15.6171C23.9749 15.7385 24.0008 15.8686 24.0008 16C24.0008 16.1314 23.9749 16.2615 23.9246 16.3829C23.8742 16.5043 23.8005 16.6146 23.7075 16.7075L14.7075 25.7075C14.6146 25.8004 14.5043 25.8741 14.3829 25.9244C14.2615 25.9747 14.1314 26.0006 14 26.0006C13.8686 26.0006 13.7385 25.9747 13.6171 25.9244C13.4957 25.8741 13.3854 25.8004 13.2925 25.7075C13.1996 25.6146 13.1259 25.5043 13.0756 25.3829C13.0253 25.2615 12.9994 25.1314 12.9994 25C12.9994 24.8686 13.0253 24.7385 13.0756 24.6171C13.1259 24.4957 13.1996 24.3854 13.2925 24.2925L20.5863 17H4C3.73478 17 3.48043 16.8946 3.29289 16.7071C3.10536 16.5196 3 16.2652 3 16C3 15.7348 3.10536 15.4804 3.29289 15.2929C3.48043 15.1054 3.73478 15 4 15H20.5863L13.2925 7.7075C13.1049 7.51986 12.9994 7.26536 12.9994 7C12.9994 6.73464 13.1049 6.48014 13.2925 6.2925C13.4801 6.10486 13.7346 5.99944 14 5.99944C14.2654 5.99944 14.5199 6.10486 14.7075 6.2925L23.7075 15.2925ZM27 4C26.7348 4 26.4804 4.10536 26.2929 4.29289C26.1054 4.48043 26 4.73478 26 5V27C26 27.2652 26.1054 27.5196 26.2929 27.7071C26.4804 27.8946 26.7348 28 27 28C27.2652 28 27.5196 27.8946 27.7071 27.7071C27.8946 27.5196 28 27.2652 28 27V5C28 4.73478 27.8946 4.48043 27.7071 4.29289C27.5196 4.10536 27.2652 4 27 4Z" fill="currentColor"/>
<path d="M71.3538 15.6462C71.4002 15.6927 71.4371 15.7478 71.4623 15.8085C71.4874 15.8692 71.5004 15.9343 71.5004 16C71.5004 16.0657 71.4874 16.1308 71.4623 16.1915C71.4371 16.2522 71.4002 16.3073 71.3538 16.3538L62.3538 25.3538C62.2599 25.4476 62.1327 25.5003 62 25.5003C61.8673 25.5003 61.7401 25.4476 61.6462 25.3538C61.5524 25.2599 61.4997 25.1327 61.4997 25C61.4997 24.8673 61.5524 24.7401 61.6462 24.6462L69.7925 16.5H52C51.8674 16.5 51.7402 16.4473 51.6464 16.3536C51.5527 16.2598 51.5 16.1326 51.5 16C51.5 15.8674 51.5527 15.7402 51.6464 15.6464C51.7402 15.5527 51.8674 15.5 52 15.5H69.7925L61.6462 7.35375C61.5524 7.25993 61.4997 7.13268 61.4997 7C61.4997 6.86732 61.5524 6.74007 61.6462 6.64625C61.7401 6.55243 61.8673 6.49972 62 6.49972C62.1327 6.49972 62.2599 6.55243 62.3538 6.64625L71.3538 15.6462ZM75 4.5C74.8674 4.5 74.7402 4.55268 74.6464 4.64645C74.5527 4.74021 74.5 4.86739 74.5 5V27C74.5 27.1326 74.5527 27.2598 74.6464 27.3536C74.7402 27.4473 74.8674 27.5 75 27.5C75.1326 27.5 75.2598 27.4473 75.3536 27.3536C75.4473 27.2598 75.5 27.1326 75.5 27V5C75.5 4.86739 75.4473 4.74021 75.3536 4.64645C75.2598 4.55268 75.1326 4.5 75 4.5Z" fill="currentColor"/>
<path d="M119.53 15.47C119.67 15.6106 119.749 15.8012 119.749 16C119.749 16.1988 119.67 16.3894 119.53 16.53L110.53 25.53C110.388 25.6625 110.2 25.7346 110.005 25.7312C109.811 25.7277 109.626 25.649 109.488 25.5116C109.351 25.3742 109.272 25.1888 109.269 24.9945C109.265 24.8002 109.338 24.6122 109.47 24.47L117.189 16.75H100C99.8011 16.75 99.6103 16.671 99.4697 16.5303C99.329 16.3897 99.25 16.1989 99.25 16C99.25 15.8011 99.329 15.6103 99.4697 15.4697C99.6103 15.329 99.8011 15.25 100 15.25H117.189L109.47 7.53C109.338 7.38783 109.265 7.19978 109.269 7.00548C109.272 6.81118 109.351 6.62579 109.488 6.48838C109.626 6.35097 109.811 6.27225 110.005 6.26883C110.2 6.2654 110.388 6.33752 110.53 6.47L119.53 15.47ZM123 4.25C122.801 4.25 122.61 4.32902 122.47 4.46967C122.329 4.61032 122.25 4.80109 122.25 5V27C122.25 27.1989 122.329 27.3897 122.47 27.5303C122.61 27.671 122.801 27.75 123 27.75C123.199 27.75 123.39 27.671 123.53 27.5303C123.671 27.3897 123.75 27.1989 123.75 27V5C123.75 4.80109 123.671 4.61032 123.53 4.46967C123.39 4.32902 123.199 4.25 123 4.25Z" fill="currentColor"/>
<path d="M167.061 14.9388C167.201 15.0781 167.312 15.2437 167.388 15.426C167.463 15.6083 167.502 15.8038 167.502 16.0012C167.502 16.1987 167.463 16.3941 167.388 16.5765C167.312 16.7588 167.201 16.9244 167.061 17.0637L158.061 26.0637C157.779 26.3455 157.397 26.5039 156.999 26.5039C156.6 26.5039 156.218 26.3455 155.936 26.0637C155.654 25.782 155.496 25.3998 155.496 25.0012C155.496 24.6027 155.654 24.2205 155.936 23.9387L162.375 17.5H148C147.602 17.5 147.221 17.342 146.939 17.0607C146.658 16.7794 146.5 16.3978 146.5 16C146.5 15.6022 146.658 15.2206 146.939 14.9393C147.221 14.658 147.602 14.5 148 14.5H162.375L155.939 8.06125C155.657 7.77946 155.499 7.39726 155.499 6.99875C155.499 6.60024 155.657 6.21804 155.939 5.93625C156.221 5.65446 156.603 5.49615 157.001 5.49615C157.4 5.49615 157.782 5.65446 158.064 5.93625L167.061 14.9388ZM171 3.5C170.602 3.5 170.221 3.65804 169.939 3.93934C169.658 4.22064 169.5 4.60218 169.5 5V27C169.5 27.3978 169.658 27.7794 169.939 28.0607C170.221 28.342 170.602 28.5 171 28.5C171.398 28.5 171.779 28.342 172.061 28.0607C172.342 27.7794 172.5 27.3978 172.5 27V5C172.5 4.60218 172.342 4.22064 172.061 3.93934C171.779 3.65804 171.398 3.5 171 3.5Z" fill="currentColor"/>
<path d="M220 5V27C220 27.2652 219.895 27.5196 219.707 27.7071C219.52 27.8946 219.265 28 219 28C218.735 28 218.48 27.8946 218.293 27.7071C218.105 27.5196 218 27.2652 218 27V5C218 4.73478 218.105 4.48043 218.293 4.29289C218.48 4.10536 218.735 4 219 4C219.265 4 219.52 4.10536 219.707 4.29289C219.895 4.48043 220 4.73478 220 5ZM206.708 6.2925C206.568 6.15249 206.389 6.05712 206.195 6.01847C206.001 5.97982 205.8 5.99962 205.617 6.07538C205.434 6.15113 205.278 6.27942 205.168 6.44402C205.058 6.60861 205 6.8021 205 7V15H196C195.735 15 195.48 15.1054 195.293 15.2929C195.105 15.4804 195 15.7348 195 16C195 16.2652 195.105 16.5196 195.293 16.7071C195.48 16.8946 195.735 17 196 17H205V25C205 25.1979 205.058 25.3914 205.168 25.556C205.278 25.7206 205.434 25.8489 205.617 25.9246C205.8 26.0004 206.001 26.0202 206.195 25.9815C206.389 25.9429 206.568 25.8475 206.708 25.7075L215.708 16.7075C215.8 16.6146 215.874 16.5043 215.925 16.3829C215.975 16.2615 216.001 16.1314 216.001 16C216.001 15.8686 215.975 15.7385 215.925 15.6171C215.874 15.4957 215.8 15.3854 215.708 15.2925L206.708 6.2925Z" fill="currentColor"/>
<path opacity="0.2" d="M263 16L254 25V7L263 16Z" fill="currentColor"/>
<path d="M254.708 6.2925C254.568 6.15249 254.389 6.05712 254.195 6.01847C254.001 5.97982 253.8 5.99962 253.617 6.07538C253.434 6.15113 253.278 6.27942 253.168 6.44402C253.058 6.60861 253 6.8021 253 7V15H244C243.735 15 243.48 15.1054 243.293 15.2929C243.105 15.4804 243 15.7348 243 16C243 16.2652 243.105 16.5196 243.293 16.7071C243.48 16.8946 243.735 17 244 17H253V25C253 25.1979 253.058 25.3914 253.168 25.556C253.278 25.7206 253.434 25.8489 253.617 25.9246C253.8 26.0004 254.001 26.0202 254.195 25.9815C254.389 25.9429 254.568 25.8475 254.708 25.7075L263.708 16.7075C263.8 16.6146 263.874 16.5043 263.925 16.3829C263.975 16.2615 264.001 16.1314 264.001 16C264.001 15.8686 263.975 15.7385 263.925 15.6171C263.874 15.4957 263.8 15.3854 263.708 15.2925L254.708 6.2925ZM255 22.5863V9.41375L261.586 16L255 22.5863ZM268 5V27C268 27.2652 267.895 27.5196 267.707 27.7071C267.52 27.8946 267.265 28 267 28C266.735 28 266.48 27.8946 266.293 27.7071C266.105 27.5196 266 27.2652 266 27V5C266 4.73478 266.105 4.48043 266.293 4.29289C266.48 4.10536 266.735 4 267 4C267.265 4 267.52 4.10536 267.707 4.29289C267.895 4.48043 268 4.73478 268 5Z" fill="currentColor"/>
</g>
<defs>
<clipPath id="clip0_17_6464">
<rect width="272" height="32" rx="5" fill="white"/>
</clipPath>
</defs>
</svg>
