<svg width="272" height="32" viewBox="0 0 272 32" fill="none" xmlns="http://www.w3.org/2000/svg">
<g clip-path="url(#clip0_17_6674)">
<path d="M28.9238 16.6175C28.8482 16.4348 28.72 16.2786 28.5556 16.1686C28.3912 16.0587 28.1978 16 28.0001 16H23.0001V9C23.0001 8.73478 22.8947 8.48043 22.7072 8.29289C22.5196 8.10536 22.2653 8 22.0001 8H10.0001C9.73484 8 9.48048 8.10536 9.29295 8.29289C9.10541 8.48043 9.00006 8.73478 9.00006 9V16H4.00006C3.80216 15.9998 3.60867 16.0584 3.44407 16.1683C3.27948 16.2782 3.15119 16.4344 3.07543 16.6172C2.99968 16.8 2.97988 17.0012 3.01853 17.1953C3.05718 17.3894 3.15254 17.5676 3.29256 17.7075L15.2926 29.7075C15.3854 29.8005 15.4957 29.8742 15.6171 29.9246C15.7385 29.9749 15.8686 30.0008 16.0001 30.0008C16.1315 30.0008 16.2616 29.9749 16.383 29.9246C16.5044 29.8742 16.6147 29.8005 16.7076 29.7075L28.7076 17.7075C28.8474 17.5676 28.9425 17.3893 28.981 17.1953C29.0195 17.0013 28.9996 16.8002 28.9238 16.6175ZM16.0001 27.5863L6.41381 18H10.0001C10.2653 18 10.5196 17.8946 10.7072 17.7071C10.8947 17.5196 11.0001 17.2652 11.0001 17V10H21.0001V17C21.0001 17.2652 21.1054 17.5196 21.2929 17.7071C21.4805 17.8946 21.7348 18 22.0001 18H25.5863L16.0001 27.5863ZM9.00006 5C9.00006 4.73478 9.10541 4.48043 9.29295 4.29289C9.48048 4.10536 9.73484 4 10.0001 4H22.0001C22.2653 4 22.5196 4.10536 22.7072 4.29289C22.8947 4.48043 23.0001 4.73478 23.0001 5C23.0001 5.26522 22.8947 5.51957 22.7072 5.70711C22.5196 5.89464 22.2653 6 22.0001 6H10.0001C9.73484 6 9.48048 5.89464 9.29295 5.70711C9.10541 5.51957 9.00006 5.26522 9.00006 5Z" fill="currentColor"/>
<path d="M76.4624 16.8088C76.4245 16.7173 76.3604 16.6391 76.278 16.5841C76.1957 16.5292 76.0989 16.4999 75.9999 16.5H70.4999V9C70.4999 8.86739 70.4472 8.74021 70.3535 8.64645C70.2597 8.55268 70.1325 8.5 69.9999 8.5H57.9999C57.8673 8.5 57.7401 8.55268 57.6464 8.64645C57.5526 8.74021 57.4999 8.86739 57.4999 9V16.5H51.9999C51.901 16.4999 51.8042 16.5292 51.7219 16.5841C51.6396 16.6391 51.5755 16.7172 51.5376 16.8086C51.4997 16.9 51.4898 17.0006 51.5091 17.0977C51.5285 17.1947 51.5761 17.2838 51.6462 17.3538L63.6462 29.3538C63.6926 29.4002 63.7477 29.4371 63.8084 29.4623C63.8691 29.4874 63.9342 29.5004 63.9999 29.5004C64.0656 29.5004 64.1307 29.4874 64.1914 29.4623C64.2521 29.4371 64.3072 29.4002 64.3537 29.3538L76.3537 17.3538C76.4237 17.2839 76.4714 17.1948 76.4907 17.0978C76.5101 17.0007 76.5002 16.9002 76.4624 16.8088ZM63.9999 28.2925L53.2074 17.5H57.9999C58.1325 17.5 58.2597 17.4473 58.3535 17.3536C58.4472 17.2598 58.4999 17.1326 58.4999 17V9.5H69.4999V17C69.4999 17.1326 69.5526 17.2598 69.6464 17.3536C69.7401 17.4473 69.8673 17.5 69.9999 17.5H74.7924L63.9999 28.2925ZM57.4999 5C57.4999 4.86739 57.5526 4.74021 57.6464 4.64645C57.7401 4.55268 57.8673 4.5 57.9999 4.5H69.9999C70.1325 4.5 70.2597 4.55268 70.3535 4.64645C70.4472 4.74021 70.4999 4.86739 70.4999 5C70.4999 5.13261 70.4472 5.25979 70.3535 5.35355C70.2597 5.44732 70.1325 5.5 69.9999 5.5H57.9999C57.8673 5.5 57.7401 5.44732 57.6464 5.35355C57.5526 5.25979 57.4999 5.13261 57.4999 5Z" fill="currentColor"/>
<path d="M124.693 16.7125C124.636 16.5756 124.54 16.4586 124.416 16.3763C124.293 16.294 124.148 16.25 124 16.25H118.75V9C118.75 8.80109 118.671 8.61032 118.53 8.46967C118.39 8.32902 118.199 8.25 118 8.25H106C105.801 8.25 105.61 8.32902 105.47 8.46967C105.329 8.61032 105.25 8.80109 105.25 9V16.25H100C99.8518 16.2501 99.707 16.2942 99.5837 16.3766C99.4605 16.459 99.3645 16.5761 99.3078 16.7131C99.2511 16.85 99.2362 17.0007 99.2651 17.1461C99.294 17.2915 99.3653 17.4251 99.4701 17.53L111.47 29.53C111.611 29.6705 111.801 29.7493 112 29.7493C112.199 29.7493 112.389 29.6705 112.53 29.53L124.53 17.53C124.635 17.4251 124.706 17.2914 124.735 17.1459C124.764 17.0004 124.749 16.8496 124.693 16.7125ZM112 27.9387L101.811 17.75H106C106.199 17.75 106.39 17.671 106.53 17.5303C106.671 17.3897 106.75 17.1989 106.75 17V9.75H117.25V17C117.25 17.1989 117.329 17.3897 117.47 17.5303C117.61 17.671 117.801 17.75 118 17.75H122.189L112 27.9387ZM105.25 5C105.25 4.80109 105.329 4.61032 105.47 4.46967C105.61 4.32902 105.801 4.25 106 4.25H118C118.199 4.25 118.39 4.32902 118.53 4.46967C118.671 4.61032 118.75 4.80109 118.75 5C118.75 5.19891 118.671 5.38968 118.53 5.53033C118.39 5.67098 118.199 5.75 118 5.75H106C105.801 5.75 105.61 5.67098 105.47 5.53033C105.329 5.38968 105.25 5.19891 105.25 5Z" fill="currentColor"/>
<path d="M173.386 16.4263C173.273 16.152 173.08 15.9177 172.834 15.7528C172.587 15.5879 172.297 15.4999 172 15.5H167.5V10C167.5 9.60218 167.342 9.22064 167.061 8.93934C166.779 8.65804 166.398 8.5 166 8.5H154C153.602 8.5 153.221 8.65804 152.939 8.93934C152.658 9.22064 152.5 9.60218 152.5 10V15.5H148C147.703 15.5 147.413 15.588 147.166 15.7529C146.92 15.9178 146.727 16.1522 146.614 16.4264C146.501 16.7006 146.471 17.0023 146.529 17.2933C146.587 17.5843 146.73 17.8515 146.94 18.0613L158.94 30.0613C159.079 30.2011 159.245 30.312 159.427 30.3878C159.61 30.4635 159.805 30.5024 160.002 30.5024C160.2 30.5024 160.395 30.4635 160.578 30.3878C160.76 30.312 160.926 30.2011 161.065 30.0613L173.065 18.0613C173.274 17.851 173.416 17.5835 173.473 17.2925C173.531 17.0014 173.5 16.7 173.386 16.4263ZM160 26.875L151.625 18.5H154C154.398 18.5 154.779 18.342 155.061 18.0607C155.342 17.7794 155.5 17.3978 155.5 17V11.5H164.5V17C164.5 17.3978 164.658 17.7794 164.939 18.0607C165.221 18.342 165.602 18.5 166 18.5H168.375L160 26.875ZM152.5 5C152.5 4.60218 152.658 4.22064 152.939 3.93934C153.221 3.65804 153.602 3.5 154 3.5H166C166.398 3.5 166.779 3.65804 167.061 3.93934C167.342 4.22064 167.5 4.60218 167.5 5C167.5 5.39782 167.342 5.77936 167.061 6.06066C166.779 6.34196 166.398 6.5 166 6.5H154C153.602 6.5 153.221 6.34196 152.939 6.06066C152.658 5.77936 152.5 5.39782 152.5 5Z" fill="currentColor"/>
<path d="M201 5C201 4.73478 201.105 4.48043 201.293 4.29289C201.48 4.10536 201.735 4 202 4H214C214.265 4 214.52 4.10536 214.707 4.29289C214.895 4.48043 215 4.73478 215 5C215 5.26522 214.895 5.51957 214.707 5.70711C214.52 5.89464 214.265 6 214 6H202C201.735 6 201.48 5.89464 201.293 5.70711C201.105 5.51957 201 5.26522 201 5ZM220.924 16.6175C220.848 16.4348 220.72 16.2786 220.556 16.1686C220.391 16.0587 220.198 16 220 16H215V9C215 8.73478 214.895 8.48043 214.707 8.29289C214.52 8.10536 214.265 8 214 8H202C201.735 8 201.48 8.10536 201.293 8.29289C201.105 8.48043 201 8.73478 201 9V16H196C195.802 15.9998 195.609 16.0584 195.444 16.1683C195.279 16.2782 195.151 16.4344 195.075 16.6172C195 16.8 194.98 17.0012 195.019 17.1953C195.057 17.3894 195.153 17.5676 195.293 17.7075L207.293 29.7075C207.385 29.8005 207.496 29.8742 207.617 29.9246C207.739 29.9749 207.869 30.0008 208 30.0008C208.131 30.0008 208.262 29.9749 208.383 29.9246C208.504 29.8742 208.615 29.8005 208.708 29.7075L220.708 17.7075C220.847 17.5676 220.943 17.3893 220.981 17.1953C221.02 17.0013 221 16.8002 220.924 16.6175Z" fill="currentColor"/>
<path opacity="0.2" d="M268 17L256 29L244 17H250V9H262V17H268Z" fill="currentColor"/>
<path d="M268.924 16.6175C268.848 16.4348 268.72 16.2786 268.556 16.1686C268.391 16.0587 268.198 16 268 16H263V9C263 8.73478 262.895 8.48043 262.707 8.29289C262.52 8.10536 262.265 8 262 8H250C249.735 8 249.48 8.10536 249.293 8.29289C249.105 8.48043 249 8.73478 249 9V16H244C243.802 15.9998 243.609 16.0584 243.444 16.1683C243.279 16.2782 243.151 16.4344 243.075 16.6172C243 16.8 242.98 17.0012 243.019 17.1953C243.057 17.3894 243.153 17.5676 243.293 17.7075L255.293 29.7075C255.385 29.8005 255.496 29.8742 255.617 29.9246C255.739 29.9749 255.869 30.0008 256 30.0008C256.131 30.0008 256.262 29.9749 256.383 29.9246C256.504 29.8742 256.615 29.8005 256.708 29.7075L268.708 17.7075C268.847 17.5676 268.943 17.3893 268.981 17.1953C269.02 17.0013 269 16.8002 268.924 16.6175ZM256 27.5863L246.414 18H250C250.265 18 250.52 17.8946 250.707 17.7071C250.895 17.5196 251 17.2652 251 17V10H261V17C261 17.2652 261.105 17.5196 261.293 17.7071C261.48 17.8946 261.735 18 262 18H265.586L256 27.5863ZM249 5C249 4.73478 249.105 4.48043 249.293 4.29289C249.48 4.10536 249.735 4 250 4H262C262.265 4 262.52 4.10536 262.707 4.29289C262.895 4.48043 263 4.73478 263 5C263 5.26522 262.895 5.51957 262.707 5.70711C262.52 5.89464 262.265 6 262 6H250C249.735 6 249.48 5.89464 249.293 5.70711C249.105 5.51957 249 5.26522 249 5Z" fill="currentColor"/>
</g>
<defs>
<clipPath id="clip0_17_6674">
<rect width="272" height="32" rx="5" fill="white"/>
</clipPath>
</defs>
</svg>
