<svg width="272" height="32" viewBox="0 0 272 32" fill="none" xmlns="http://www.w3.org/2000/svg">
<g clip-path="url(#clip0_17_5974)">
<path d="M26.7076 22.7076L22.7076 26.7076C22.5199 26.8952 22.2654 27.0006 22.0001 27.0006C21.7347 27.0006 21.4802 26.8952 21.2926 26.7076C21.1049 26.5199 20.9995 26.2654 20.9995 26.0001C20.9995 25.7347 21.1049 25.4802 21.2926 25.2926L23.5863 23.0001H6.00005C5.73484 23.0001 5.48048 22.8947 5.29295 22.7072C5.10541 22.5196 5.00005 22.2653 5.00005 22.0001C5.00005 21.7349 5.10541 21.4805 5.29295 21.293C5.48048 21.1054 5.73484 21.0001 6.00005 21.0001H23.5863L21.2926 18.7076C21.1049 18.5199 20.9995 18.2654 20.9995 18.0001C20.9995 17.7347 21.1049 17.4802 21.2926 17.2926C21.4802 17.1049 21.7347 16.9995 22.0001 16.9995C22.2654 16.9995 22.5199 17.1049 22.7076 17.2926L26.7076 21.2926C26.8005 21.3854 26.8743 21.4957 26.9246 21.6171C26.9749 21.7385 27.0008 21.8687 27.0008 22.0001C27.0008 22.1315 26.9749 22.2616 26.9246 22.383C26.8743 22.5044 26.8005 22.6147 26.7076 22.7076ZM9.29255 14.7076C9.48019 14.8952 9.73469 15.0006 10.0001 15.0006C10.2654 15.0006 10.5199 14.8952 10.7076 14.7076C10.8952 14.5199 11.0006 14.2654 11.0006 14.0001C11.0006 13.7347 10.8952 13.4802 10.7076 13.2926L8.4138 11.0001H26.0001C26.2653 11.0001 26.5196 10.8947 26.7072 10.7072C26.8947 10.5196 27.0001 10.2653 27.0001 10.0001C27.0001 9.73485 26.8947 9.4805 26.7072 9.29296C26.5196 9.10542 26.2653 9.00007 26.0001 9.00007H8.4138L10.7076 6.70757C10.8952 6.51993 11.0006 6.26543 11.0006 6.00007C11.0006 5.7347 10.8952 5.48021 10.7076 5.29257C10.5199 5.10493 10.2654 4.99951 10.0001 4.99951C9.73469 4.99951 9.48019 5.10493 9.29255 5.29257L5.29255 9.29257C5.19958 9.38544 5.12582 9.49573 5.07549 9.61713C5.02517 9.73853 4.99927 9.86865 4.99927 10.0001C4.99927 10.1315 5.02517 10.2616 5.07549 10.383C5.12582 10.5044 5.19958 10.6147 5.29255 10.7076L9.29255 14.7076Z" fill="currentColor"/>
<path d="M74.3537 21.646C74.4001 21.6925 74.437 21.7476 74.4622 21.8083C74.4873 21.869 74.5003 21.9341 74.5003 21.9998C74.5003 22.0655 74.4873 22.1306 74.4622 22.1913C74.437 22.252 74.4001 22.3071 74.3537 22.3535L70.3537 26.3535C70.2598 26.4474 70.1326 26.5001 69.9999 26.5001C69.8672 26.5001 69.74 26.4474 69.6462 26.3535C69.5523 26.2597 69.4996 26.1325 69.4996 25.9998C69.4996 25.8671 69.5523 25.7399 69.6462 25.646L72.7924 22.4998H53.9999C53.8673 22.4998 53.7401 22.4471 53.6464 22.3533C53.5526 22.2596 53.4999 22.1324 53.4999 21.9998C53.4999 21.8672 53.5526 21.74 53.6464 21.6462C53.7401 21.5525 53.8673 21.4998 53.9999 21.4998H72.7924L69.6462 18.3535C69.5523 18.2597 69.4996 18.1325 69.4996 17.9998C69.4996 17.8671 69.5523 17.7399 69.6462 17.646C69.74 17.5522 69.8672 17.4995 69.9999 17.4995C70.1326 17.4995 70.2598 17.5522 70.3537 17.646L74.3537 21.646ZM57.6462 14.3535C57.6926 14.4 57.7478 14.4368 57.8085 14.462C57.8692 14.4871 57.9342 14.5001 57.9999 14.5001C58.0656 14.5001 58.1307 14.4871 58.1914 14.462C58.252 14.4368 58.3072 14.4 58.3537 14.3535C58.4001 14.3071 58.437 14.2519 58.4621 14.1912C58.4872 14.1305 58.5002 14.0655 58.5002 13.9998C58.5002 13.9341 58.4872 13.869 58.4621 13.8083C58.437 13.7476 58.4001 13.6925 58.3537 13.646L55.2074 10.4998H73.9999C74.1325 10.4998 74.2597 10.4471 74.3535 10.3533C74.4472 10.2596 74.4999 10.1324 74.4999 9.99979C74.4999 9.86718 74.4472 9.74 74.3535 9.64624C74.2597 9.55247 74.1325 9.49979 73.9999 9.49979H55.2074L58.3537 6.35354C58.4001 6.30708 58.437 6.25193 58.4621 6.19124C58.4872 6.13054 58.5002 6.06549 58.5002 5.99979C58.5002 5.93409 58.4872 5.86904 58.4621 5.80834C58.437 5.74764 58.4001 5.69249 58.3537 5.64604C58.3072 5.59958 58.252 5.56273 58.1914 5.53759C58.1307 5.51245 58.0656 5.49951 57.9999 5.49951C57.9342 5.49951 57.8692 5.51245 57.8085 5.53759C57.7478 5.56273 57.6926 5.59958 57.6462 5.64604L53.6462 9.64604C53.5997 9.69248 53.5628 9.74762 53.5376 9.80832C53.5125 9.86902 53.4995 9.93408 53.4995 9.99979C53.4995 10.0655 53.5125 10.1306 53.5376 10.1913C53.5628 10.252 53.5997 10.3071 53.6462 10.3535L57.6462 14.3535Z" fill="currentColor"/>
<path d="M122.53 21.4698C122.67 21.6105 122.749 21.8011 122.749 21.9998C122.749 22.1986 122.67 22.3892 122.53 22.5298L118.53 26.5298C118.388 26.6623 118.2 26.7344 118.005 26.731C117.811 26.7276 117.626 26.6489 117.488 26.5115C117.351 26.3741 117.272 26.1887 117.269 25.9944C117.265 25.8001 117.338 25.612 117.47 25.4698L120.189 22.7498H102C101.801 22.7498 101.61 22.6708 101.47 22.5302C101.329 22.3895 101.25 22.1988 101.25 21.9998C101.25 21.8009 101.329 21.6102 101.47 21.4695C101.61 21.3289 101.801 21.2498 102 21.2498H120.189L117.47 18.5298C117.338 18.3877 117.265 18.1996 117.269 18.0053C117.272 17.811 117.351 17.6256 117.488 17.4882C117.626 17.3508 117.811 17.2721 118.005 17.2687C118.2 17.2652 118.388 17.3374 118.53 17.4698L122.53 21.4698ZM105.47 14.5298C105.612 14.6623 105.8 14.7345 105.995 14.731C106.189 14.7276 106.374 14.6489 106.512 14.5115C106.649 14.3741 106.728 14.1887 106.731 13.9944C106.735 13.8001 106.662 13.612 106.53 13.4698L103.811 10.7498H122C122.199 10.7498 122.39 10.6708 122.53 10.5302C122.671 10.3895 122.75 10.1988 122.75 9.99985C122.75 9.80093 122.671 9.61017 122.53 9.46952C122.39 9.32886 122.199 9.24985 122 9.24985H103.811L106.53 6.52985C106.662 6.38767 106.735 6.19963 106.731 6.00532C106.728 5.81102 106.649 5.62564 106.512 5.48822C106.374 5.35081 106.189 5.2721 105.995 5.26867C105.8 5.26524 105.612 5.33737 105.47 5.46985L101.47 9.46985C101.33 9.61047 101.251 9.8011 101.251 9.99985C101.251 10.1986 101.33 10.3892 101.47 10.5298L105.47 14.5298Z" fill="currentColor"/>
<path d="M171.061 23.0612L167.061 27.0612C166.78 27.343 166.397 27.5013 165.999 27.5013C165.6 27.5013 165.218 27.343 164.936 27.0612C164.655 26.7794 164.496 26.3972 164.496 25.9987C164.496 25.6002 164.655 25.218 164.936 24.9362L166.375 23.4999H150C149.602 23.4999 149.221 23.3419 148.939 23.0606C148.658 22.7793 148.5 22.3978 148.5 21.9999C148.5 21.6021 148.658 21.2206 148.939 20.9393C149.221 20.658 149.602 20.4999 150 20.4999H166.375L164.935 19.0612C164.653 18.7794 164.495 18.3972 164.495 17.9987C164.495 17.6002 164.653 17.218 164.935 16.9362C165.217 16.6544 165.599 16.4961 165.998 16.4961C166.396 16.4961 166.778 16.6544 167.06 16.9362L171.06 20.9362C171.2 21.0755 171.311 21.241 171.387 21.4233C171.463 21.6056 171.502 21.801 171.502 21.9984C171.502 22.1959 171.463 22.3914 171.388 22.5737C171.312 22.7561 171.201 22.9218 171.061 23.0612ZM152.936 15.0612C153.218 15.343 153.6 15.5013 153.999 15.5013C154.397 15.5013 154.78 15.343 155.061 15.0612C155.343 14.7794 155.501 14.3972 155.501 13.9987C155.501 13.6002 155.343 13.218 155.061 12.9362L153.625 11.4999H170C170.398 11.4999 170.779 11.3419 171.061 11.0606C171.342 10.7793 171.5 10.3978 171.5 9.99995C171.5 9.60212 171.342 9.22059 171.061 8.93929C170.779 8.65798 170.398 8.49995 170 8.49995H153.625L155.061 7.0612C155.343 6.7794 155.501 6.39721 155.501 5.9987C155.501 5.60018 155.343 5.21799 155.061 4.9362C154.78 4.6544 154.397 4.49609 153.999 4.49609C153.6 4.49609 153.218 4.6544 152.936 4.9362L148.936 8.9362C148.796 9.07555 148.686 9.24114 148.61 9.42347C148.534 9.6058 148.495 9.80127 148.495 9.9987C148.495 10.1961 148.534 10.3916 148.61 10.5739C148.686 10.7563 148.796 10.9218 148.936 11.0612L152.936 15.0612Z" fill="currentColor"/>
<path d="M197.293 10.7073C197.2 10.6144 197.126 10.5041 197.075 10.3828C197.025 10.2614 196.999 10.1312 196.999 9.99981C196.999 9.8684 197.025 9.73827 197.075 9.61687C197.126 9.49547 197.2 9.38518 197.293 9.29231L201.293 5.29231C201.432 5.1523 201.611 5.05693 201.805 5.01828C201.999 4.97963 202.2 4.99944 202.383 5.07519C202.566 5.15094 202.722 5.27923 202.832 5.44383C202.942 5.60842 203 5.80192 203 5.99981V8.99981H218C218.265 8.99981 218.52 9.10517 218.707 9.2927C218.895 9.48024 219 9.73459 219 9.99981C219 10.265 218.895 10.5194 218.707 10.7069C218.52 10.8945 218.265 10.9998 218 10.9998H203V13.9998C203 14.1977 202.942 14.3912 202.832 14.5558C202.722 14.7204 202.566 14.8487 202.383 14.9244C202.2 15.0002 201.999 15.02 201.805 14.9813C201.611 14.9427 201.432 14.8473 201.293 14.7073L197.293 10.7073ZM218.708 21.2923L214.708 17.2923C214.568 17.1523 214.389 17.0569 214.195 17.0183C214.001 16.9796 213.8 16.9994 213.617 17.0752C213.434 17.1509 213.278 17.2792 213.168 17.4438C213.058 17.6084 213 17.8019 213 17.9998V20.9998H198C197.735 20.9998 197.48 21.1052 197.293 21.2927C197.105 21.4802 197 21.7346 197 21.9998C197 22.265 197.105 22.5194 197.293 22.7069C197.48 22.8945 197.735 22.9998 198 22.9998H213V25.9998C213 26.1977 213.058 26.3912 213.168 26.5558C213.278 26.7204 213.434 26.8487 213.617 26.9244C213.8 27.0002 214.001 27.02 214.195 26.9813C214.389 26.9427 214.568 26.8473 214.708 26.7073L218.708 22.7073C218.801 22.6144 218.874 22.5042 218.925 22.3828C218.975 22.2614 219.001 22.1312 219.001 21.9998C219.001 21.8684 218.975 21.7383 218.925 21.6169C218.874 21.4955 218.801 21.3852 218.708 21.2923Z" fill="currentColor"/>
<path opacity="0.2" d="M266 22L262 26V18L266 22ZM250 14V6L246 10L250 14Z" fill="currentColor"/>
<path d="M266.708 21.2923L262.708 17.2923C262.568 17.1523 262.389 17.0569 262.195 17.0183C262.001 16.9796 261.8 16.9994 261.617 17.0752C261.434 17.1509 261.278 17.2792 261.168 17.4438C261.058 17.6084 261 17.8019 261 17.9998V20.9998H246C245.735 20.9998 245.48 21.1052 245.293 21.2927C245.105 21.4802 245 21.7346 245 21.9998C245 22.265 245.105 22.5194 245.293 22.7069C245.48 22.8945 245.735 22.9998 246 22.9998H261V25.9998C261 26.1977 261.058 26.3912 261.168 26.5558C261.278 26.7204 261.434 26.8487 261.617 26.9244C261.8 27.0002 262.001 27.02 262.195 26.9813C262.389 26.9427 262.568 26.8473 262.708 26.7073L266.708 22.7073C266.801 22.6144 266.874 22.5042 266.925 22.3828C266.975 22.2614 267.001 22.1312 267.001 21.9998C267.001 21.8684 266.975 21.7383 266.925 21.6169C266.874 21.4955 266.801 21.3852 266.708 21.2923ZM263 23.5861V20.4136L264.586 21.9998L263 23.5861ZM249.293 14.7111C249.433 14.8513 249.611 14.9467 249.806 14.9853C250 15.0238 250.202 15.0037 250.385 14.9275C250.568 14.8513 250.724 14.7224 250.833 14.5572C250.943 14.392 251.001 14.198 251 13.9998V10.9998H266C266.265 10.9998 266.52 10.8945 266.707 10.7069C266.895 10.5194 267 10.265 267 9.99981C267 9.73459 266.895 9.48024 266.707 9.2927C266.52 9.10517 266.265 8.99981 266 8.99981H251V5.99981C251 5.80192 250.942 5.60842 250.832 5.44383C250.722 5.27923 250.566 5.15094 250.383 5.07519C250.2 4.99944 249.999 4.97963 249.805 5.01828C249.611 5.05693 249.432 5.1523 249.293 5.29231L245.293 9.29231C245.2 9.38518 245.126 9.49547 245.075 9.61687C245.025 9.73827 244.999 9.8684 244.999 9.99981C244.999 10.1312 245.025 10.2614 245.075 10.3828C245.126 10.5041 245.2 10.6144 245.293 10.7073L249.293 14.7111ZM249 8.41356V11.5861L247.414 9.99981L249 8.41356Z" fill="currentColor"/>
</g>
<defs>
<clipPath id="clip0_17_5974">
<rect width="272" height="32" rx="5" fill="white"/>
</clipPath>
</defs>
</svg>
