<svg width="272" height="32" viewBox="0 0 272 32" fill="none" xmlns="http://www.w3.org/2000/svg">
<g clip-path="url(#clip0_17_6716)">
<path d="M26.7075 10.7076L20.7075 16.7076C20.5199 16.8952 20.2654 17.0006 20 17.0006C19.7346 17.0006 19.4801 16.8952 19.2925 16.7076C19.1049 16.5199 18.9994 16.2654 18.9994 16.0001C18.9994 15.7347 19.1049 15.4802 19.2925 15.2926L23.5863 11.0001H9V28.0001C9 28.2653 8.89464 28.5196 8.70711 28.7072C8.51957 28.8947 8.26522 29.0001 8 29.0001C7.73478 29.0001 7.48043 28.8947 7.29289 28.7072C7.10536 28.5196 7 28.2653 7 28.0001V10.0001C7 9.73485 7.10536 9.4805 7.29289 9.29296C7.48043 9.10542 7.73478 9.00007 8 9.00007H23.5863L19.2925 4.70757C19.1049 4.51993 18.9994 4.26543 18.9994 4.00007C18.9994 3.7347 19.1049 3.48021 19.2925 3.29257C19.4801 3.10493 19.7346 2.99951 20 2.99951C20.2654 2.99951 20.5199 3.10493 20.7075 3.29257L26.7075 9.29257C26.8005 9.38544 26.8742 9.49573 26.9246 9.61713C26.9749 9.73853 27.0008 9.86865 27.0008 10.0001C27.0008 10.1315 26.9749 10.2616 26.9246 10.383C26.8742 10.5044 26.8005 10.6147 26.7075 10.7076Z" fill="currentColor"/>
<path d="M74.3538 10.3538L68.3538 16.3538C68.2599 16.4476 68.1327 16.5003 68 16.5003C67.8673 16.5003 67.7401 16.4476 67.6462 16.3538C67.5524 16.26 67.4997 16.1327 67.4997 16C67.4997 15.8674 67.5524 15.7401 67.6462 15.6463L72.7925 10.5H56.5V28C56.5 28.1326 56.4473 28.2598 56.3536 28.3536C56.2598 28.4474 56.1326 28.5 56 28.5C55.8674 28.5 55.7402 28.4474 55.6464 28.3536C55.5527 28.2598 55.5 28.1326 55.5 28V10C55.5 9.86743 55.5527 9.74025 55.6464 9.64648C55.7402 9.55271 55.8674 9.50003 56 9.50003H72.7925L67.6462 4.35378C67.5998 4.30733 67.5629 4.25218 67.5378 4.19148C67.5127 4.13079 67.4997 4.06573 67.4997 4.00003C67.4997 3.93434 67.5127 3.86928 67.5378 3.80859C67.5629 3.74789 67.5998 3.69274 67.6462 3.64628C67.6927 3.59983 67.7479 3.56298 67.8086 3.53784C67.8692 3.5127 67.9343 3.49976 68 3.49976C68.0657 3.49976 68.1308 3.5127 68.1914 3.53784C68.2521 3.56298 68.3073 3.59983 68.3538 3.64628L74.3538 9.64628C74.4002 9.69272 74.4371 9.74786 74.4623 9.80856C74.4874 9.86926 74.5004 9.93433 74.5004 10C74.5004 10.0657 74.4874 10.1308 74.4623 10.1915C74.4371 10.2522 74.4002 10.3073 74.3538 10.3538Z" fill="currentColor"/>
<path d="M122.53 10.5301L116.53 16.5301C116.388 16.6626 116.2 16.7347 116.005 16.7313C115.811 16.7278 115.626 16.6491 115.488 16.5117C115.351 16.3743 115.272 16.1889 115.269 15.9946C115.265 15.8003 115.338 15.6123 115.47 15.4701L120.189 10.7501H104.75V28.0001C104.75 28.199 104.671 28.3898 104.53 28.5304C104.39 28.6711 104.199 28.7501 104 28.7501C103.801 28.7501 103.61 28.6711 103.47 28.5304C103.329 28.3898 103.25 28.199 103.25 28.0001V10.0001C103.25 9.80118 103.329 9.61041 103.47 9.46976C103.61 9.32911 103.801 9.25009 104 9.25009H120.189L115.47 4.53009C115.338 4.38792 115.265 4.19987 115.269 4.00557C115.272 3.81127 115.351 3.62588 115.488 3.48847C115.626 3.35106 115.811 3.27234 116.005 3.26892C116.2 3.26549 116.388 3.33761 116.53 3.47009L122.53 9.47009C122.67 9.61072 122.749 9.80134 122.749 10.0001C122.749 10.1988 122.67 10.3895 122.53 10.5301Z" fill="currentColor"/>
<path d="M171.061 11.0612L165.061 17.0612C164.779 17.343 164.397 17.5013 163.999 17.5013C163.6 17.5013 163.218 17.343 162.936 17.0612C162.654 16.7794 162.496 16.3972 162.496 15.9987C162.496 15.6002 162.654 15.218 162.936 14.9362L166.375 11.4999H153.5V27.9999C153.5 28.3978 153.342 28.7793 153.061 29.0606C152.779 29.3419 152.398 29.4999 152 29.4999C151.602 29.4999 151.221 29.3419 150.939 29.0606C150.658 28.7793 150.5 28.3978 150.5 27.9999V9.99995C150.5 9.60212 150.658 9.22059 150.939 8.93929C151.221 8.65798 151.602 8.49995 152 8.49995H166.375L162.939 5.0612C162.799 4.92167 162.689 4.75602 162.613 4.57372C162.538 4.39141 162.499 4.19602 162.499 3.9987C162.499 3.80137 162.538 3.60598 162.613 3.42367C162.689 3.24137 162.799 3.07573 162.939 2.9362C163.078 2.79667 163.244 2.68599 163.426 2.61047C163.609 2.53496 163.804 2.49609 164.001 2.49609C164.199 2.49609 164.394 2.53496 164.576 2.61047C164.759 2.68599 164.924 2.79667 165.064 2.9362L171.064 8.9362C171.203 9.07572 171.314 9.24144 171.39 9.42385C171.465 9.60627 171.504 9.80179 171.504 9.99922C171.503 10.1966 171.464 10.3921 171.388 10.5743C171.312 10.7565 171.201 10.922 171.061 11.0612Z" fill="currentColor"/>
<path d="M218.708 10.7076L212.708 16.7076C212.568 16.8476 212.389 16.9429 212.195 16.9816C212.001 17.0202 211.8 17.0004 211.617 16.9247C211.434 16.8489 211.278 16.7206 211.168 16.556C211.058 16.3914 211 16.198 211 16.0001V11.0001H201V28.0001C201 28.2653 200.895 28.5196 200.707 28.7072C200.52 28.8947 200.265 29.0001 200 29.0001C199.735 29.0001 199.48 28.8947 199.293 28.7072C199.105 28.5196 199 28.2653 199 28.0001V10.0001C199 9.73484 199.105 9.48048 199.293 9.29295C199.48 9.10541 199.735 9.00006 200 9.00006H211V4.00006C211 3.80216 211.058 3.60867 211.168 3.44407C211.278 3.27948 211.434 3.15119 211.617 3.07543C211.8 2.99968 212.001 2.97988 212.195 3.01853C212.389 3.05718 212.568 3.15254 212.708 3.29256L218.708 9.29255C218.8 9.38543 218.874 9.49572 218.925 9.61712C218.975 9.73851 219.001 9.86864 219.001 10.0001C219.001 10.1315 218.975 10.2616 218.925 10.383C218.874 10.5044 218.8 10.6147 218.708 10.7076Z" fill="currentColor"/>
<path opacity="0.2" d="M266 10L260 16V4L266 10Z" fill="currentColor"/>
<path d="M266.708 9.29255L260.708 3.29256C260.568 3.15254 260.389 3.05718 260.195 3.01853C260.001 2.97988 259.8 2.99968 259.617 3.07543C259.434 3.15119 259.278 3.27948 259.168 3.44407C259.058 3.60867 259 3.80216 259 4.00006V9.00006H248C247.735 9.00006 247.48 9.10541 247.293 9.29295C247.105 9.48048 247 9.73484 247 10.0001V28.0001C247 28.2653 247.105 28.5196 247.293 28.7072C247.48 28.8947 247.735 29.0001 248 29.0001C248.265 29.0001 248.52 28.8947 248.707 28.7072C248.895 28.5196 249 28.2653 249 28.0001V11.0001H259V16.0001C259 16.198 259.058 16.3914 259.168 16.556C259.278 16.7206 259.434 16.8489 259.617 16.9247C259.8 17.0004 260.001 17.0202 260.195 16.9816C260.389 16.9429 260.568 16.8476 260.708 16.7076L266.708 10.7076C266.8 10.6147 266.874 10.5044 266.925 10.383C266.975 10.2616 267.001 10.1315 267.001 10.0001C267.001 9.86864 266.975 9.73851 266.925 9.61712C266.874 9.49572 266.8 9.38543 266.708 9.29255ZM261 13.5863V6.41381L264.586 10.0001L261 13.5863Z" fill="currentColor"/>
</g>
<defs>
<clipPath id="clip0_17_6716">
<rect width="272" height="32" rx="5" fill="white"/>
</clipPath>
</defs>
</svg>
