<svg width="272" height="32" viewBox="0 0 272 32" fill="none" xmlns="http://www.w3.org/2000/svg">
<g clip-path="url(#clip0_17_6800)">
<path d="M29.0001 8C29.0001 8.26522 28.8947 8.51957 28.7072 8.70711C28.5196 8.89464 28.2653 9 28.0001 9H11.0001V23.5863L15.2926 19.2925C15.4802 19.1049 15.7347 18.9994 16.0001 18.9994C16.2654 18.9994 16.5199 19.1049 16.7076 19.2925C16.8952 19.4801 17.0006 19.7346 17.0006 20C17.0006 20.2654 16.8952 20.5199 16.7076 20.7075L10.7076 26.7075C10.6147 26.8005 10.5044 26.8742 10.383 26.9246C10.2616 26.9749 10.1315 27.0008 10.0001 27.0008C9.86865 27.0008 9.73853 26.9749 9.61713 26.9246C9.49573 26.8742 9.38544 26.8005 9.29257 26.7075L3.29257 20.7075C3.10493 20.5199 2.99951 20.2654 2.99951 20C2.99951 19.7346 3.10493 19.4801 3.29257 19.2925C3.48021 19.1049 3.7347 18.9994 4.00007 18.9994C4.26543 18.9994 4.51993 19.1049 4.70757 19.2925L9.00007 23.5863V8C9.00007 7.73478 9.10542 7.48043 9.29296 7.29289C9.4805 7.10536 9.73485 7 10.0001 7H28.0001C28.2653 7 28.5196 7.10536 28.7072 7.29289C28.8947 7.48043 29.0001 7.73478 29.0001 8Z" fill="currentColor"/>
<path d="M76.5 8C76.5 8.13261 76.4474 8.25979 76.3536 8.35355C76.2598 8.44732 76.1326 8.5 76 8.5H58.5V24.7925L63.6463 19.6462C63.7401 19.5524 63.8674 19.4997 64 19.4997C64.1327 19.4997 64.26 19.5524 64.3538 19.6462C64.4476 19.7401 64.5003 19.8673 64.5003 20C64.5003 20.1327 64.4476 20.2599 64.3538 20.3538L58.3538 26.3538C58.3073 26.4002 58.2522 26.4371 58.1915 26.4623C58.1308 26.4874 58.0657 26.5004 58 26.5004C57.9343 26.5004 57.8693 26.4874 57.8086 26.4623C57.7479 26.4371 57.6927 26.4002 57.6463 26.3538L51.6463 20.3538C51.5525 20.2599 51.4998 20.1327 51.4998 20C51.4998 19.8673 51.5525 19.7401 51.6463 19.6462C51.7401 19.5524 51.8674 19.4997 52 19.4997C52.1327 19.4997 52.26 19.5524 52.3538 19.6462L57.5 24.7925V8C57.5 7.86739 57.5527 7.74021 57.6465 7.64645C57.7402 7.55268 57.8674 7.5 58 7.5H76C76.1326 7.5 76.2598 7.55268 76.3536 7.64645C76.4474 7.74021 76.5 7.86739 76.5 8Z" fill="currentColor"/>
<path d="M124.75 8C124.75 8.19891 124.671 8.38968 124.53 8.53033C124.39 8.67098 124.199 8.75 124 8.75H106.75V24.1887L111.47 19.47C111.612 19.3375 111.8 19.2654 111.995 19.2688C112.189 19.2723 112.374 19.351 112.512 19.4884C112.649 19.6258 112.728 19.8112 112.731 20.0055C112.735 20.1998 112.663 20.3878 112.53 20.53L106.53 26.53C106.389 26.6705 106.199 26.7493 106 26.7493C105.801 26.7493 105.611 26.6705 105.47 26.53L99.4701 20.53C99.3376 20.3878 99.2655 20.1998 99.2689 20.0055C99.2723 19.8112 99.3511 19.6258 99.4885 19.4884C99.6259 19.351 99.8113 19.2723 100.006 19.2688C100.2 19.2654 100.388 19.3375 100.53 19.47L105.25 24.1887V8C105.25 7.80109 105.329 7.61032 105.47 7.46967C105.61 7.32902 105.801 7.25 106 7.25H124C124.199 7.25 124.39 7.32902 124.53 7.46967C124.671 7.61032 124.75 7.80109 124.75 8Z" fill="currentColor"/>
<path d="M173.5 8C173.5 8.39782 173.342 8.77936 173.061 9.06066C172.779 9.34196 172.398 9.5 172 9.5H155.5V22.375L158.939 18.935C159.22 18.6532 159.603 18.4949 160.001 18.4949C160.4 18.4949 160.782 18.6532 161.064 18.935C161.345 19.2168 161.504 19.599 161.504 19.9975C161.504 20.396 161.345 20.7782 161.064 21.06L155.064 27.06C154.924 27.1998 154.759 27.3108 154.576 27.3865C154.394 27.4622 154.199 27.5012 154.001 27.5012C153.804 27.5012 153.608 27.4622 153.426 27.3865C153.244 27.3108 153.078 27.1998 152.939 27.06L146.939 21.06C146.657 20.7782 146.499 20.396 146.499 19.9975C146.499 19.599 146.657 19.2168 146.939 18.935C147.22 18.6532 147.603 18.4949 148.001 18.4949C148.4 18.4949 148.782 18.6532 149.064 18.935L152.5 22.375V8C152.5 7.60218 152.658 7.22064 152.939 6.93934C153.221 6.65804 153.602 6.5 154 6.5H172C172.398 6.5 172.779 6.65804 173.061 6.93934C173.342 7.22064 173.5 7.60218 173.5 8Z" fill="currentColor"/>
<path d="M221 8C221 8.26522 220.895 8.51957 220.707 8.70711C220.52 8.89464 220.265 9 220 9H203V19H208C208.198 18.9998 208.391 19.0584 208.556 19.1683C208.721 19.2782 208.849 19.4344 208.925 19.6172C209 19.8 209.02 20.0012 208.982 20.1953C208.943 20.3894 208.848 20.5676 208.708 20.7075L202.708 26.7075C202.615 26.8005 202.504 26.8742 202.383 26.9246C202.262 26.9749 202.131 27.0008 202 27.0008C201.869 27.0008 201.739 26.9749 201.617 26.9246C201.496 26.8742 201.385 26.8005 201.293 26.7075L195.293 20.7075C195.153 20.5676 195.057 20.3894 195.019 20.1953C194.98 20.0012 195 19.8 195.075 19.6172C195.151 19.4344 195.279 19.2782 195.444 19.1683C195.609 19.0584 195.802 18.9998 196 19H201V8C201 7.73478 201.105 7.48043 201.293 7.29289C201.48 7.10536 201.735 7 202 7H220C220.265 7 220.52 7.10536 220.707 7.29289C220.895 7.48043 221 7.73478 221 8Z" fill="currentColor"/>
<path opacity="0.2" d="M256 20L250 26L244 20H256Z" fill="currentColor"/>
<path d="M268 7H250C249.735 7 249.48 7.10536 249.293 7.29289C249.105 7.48043 249 7.73478 249 8V19H244C243.802 18.9998 243.609 19.0584 243.444 19.1683C243.279 19.2782 243.151 19.4344 243.075 19.6172C243 19.8 242.98 20.0012 243.019 20.1953C243.057 20.3894 243.153 20.5676 243.293 20.7075L249.293 26.7075C249.385 26.8005 249.496 26.8742 249.617 26.9246C249.739 26.9749 249.869 27.0008 250 27.0008C250.131 27.0008 250.262 26.9749 250.383 26.9246C250.504 26.8742 250.615 26.8005 250.708 26.7075L256.708 20.7075C256.848 20.5676 256.943 20.3894 256.982 20.1953C257.02 20.0012 257 19.8 256.925 19.6172C256.849 19.4344 256.721 19.2782 256.556 19.1683C256.391 19.0584 256.198 18.9998 256 19H251V9H268C268.265 9 268.52 8.89464 268.707 8.70711C268.895 8.51957 269 8.26522 269 8C269 7.73478 268.895 7.48043 268.707 7.29289C268.52 7.10536 268.265 7 268 7ZM250 24.5863L246.414 21H253.586L250 24.5863Z" fill="currentColor"/>
</g>
<defs>
<clipPath id="clip0_17_6800">
<rect width="272" height="32" rx="5" fill="white"/>
</clipPath>
</defs>
</svg>
