<svg width="272" height="32" viewBox="0 0 272 32" fill="none" xmlns="http://www.w3.org/2000/svg">
<g clip-path="url(#clip0_17_6926)">
<path d="M21 12V18C21 18.2652 20.8946 18.5196 20.7071 18.7071C20.5196 18.8946 20.2652 19 20 19C19.7348 19 19.4804 18.8946 19.2929 18.7071C19.1054 18.5196 19 18.2652 19 18V14.4137L12.7075 20.7075C12.6146 20.8004 12.5043 20.8741 12.3829 20.9244C12.2615 20.9747 12.1314 21.0006 12 21.0006C11.8686 21.0006 11.7385 20.9747 11.6171 20.9244C11.4957 20.8741 11.3854 20.8004 11.2925 20.7075C11.1996 20.6146 11.1259 20.5043 11.0756 20.3829C11.0253 20.2615 10.9994 20.1314 10.9994 20C10.9994 19.8686 11.0253 19.7385 11.0756 19.6171C11.1259 19.4957 11.1996 19.3854 11.2925 19.2925L17.5863 13H14C13.7348 13 13.4804 12.8946 13.2929 12.7071C13.1054 12.5196 13 12.2652 13 12C13 11.7348 13.1054 11.4804 13.2929 11.2929C13.4804 11.1054 13.7348 11 14 11H20C20.2652 11 20.5196 11.1054 20.7071 11.2929C20.8946 11.4804 21 11.7348 21 12ZM29 16C29 18.5712 28.2376 21.0846 26.8091 23.2224C25.3807 25.3603 23.3503 27.0265 20.9749 28.0104C18.5995 28.9944 15.9856 29.2518 13.4638 28.7502C10.9421 28.2486 8.6257 27.0105 6.80762 25.1924C4.98953 23.3743 3.75141 21.0579 3.2498 18.5362C2.74819 16.0144 3.00563 13.4006 3.98957 11.0251C4.97351 8.64968 6.63975 6.61935 8.77759 5.1909C10.9154 3.76244 13.4288 3 16 3C19.4467 3.00364 22.7512 4.37445 25.1884 6.81163C27.6256 9.24882 28.9964 12.5533 29 16ZM27 16C27 13.8244 26.3549 11.6977 25.1462 9.88873C23.9375 8.07979 22.2195 6.66989 20.2095 5.83733C18.1995 5.00476 15.9878 4.78692 13.854 5.21136C11.7202 5.6358 9.76021 6.68345 8.22183 8.22183C6.68345 9.7602 5.63581 11.7202 5.21137 13.854C4.78693 15.9878 5.00477 18.1995 5.83733 20.2095C6.66989 22.2195 8.07979 23.9375 9.88873 25.1462C11.6977 26.3549 13.8244 27 16 27C18.9164 26.9967 21.7123 25.8367 23.7745 23.7745C25.8367 21.7123 26.9967 18.9164 27 16Z" fill="currentColor"/>
<path d="M64 3.5C61.5277 3.5 59.111 4.23311 57.0554 5.60663C54.9998 6.98015 53.3976 8.93238 52.4515 11.2165C51.5054 13.5005 51.2579 16.0139 51.7402 18.4386C52.2225 20.8634 53.413 23.0907 55.1612 24.8388C56.9093 26.587 59.1366 27.7775 61.5614 28.2598C63.9861 28.7421 66.4995 28.4946 68.7835 27.5485C71.0676 26.6024 73.0199 25.0002 74.3934 22.9446C75.7669 20.889 76.5 18.4723 76.5 16C76.4964 12.6859 75.1782 9.5086 72.8348 7.16518C70.4914 4.82177 67.3141 3.50364 64 3.5ZM64 27.5C61.7255 27.5 59.5021 26.8255 57.6109 25.5619C55.7198 24.2983 54.2458 22.5022 53.3754 20.4009C52.505 18.2995 52.2772 15.9872 52.721 13.7565C53.1647 11.5257 54.26 9.47658 55.8683 7.86827C57.4766 6.25997 59.5257 5.1647 61.7565 4.72097C63.9872 4.27724 66.2995 4.50498 68.4009 5.37539C70.5022 6.24579 72.2983 7.71978 73.5619 9.61094C74.8255 11.5021 75.5 13.7255 75.5 16C75.4967 19.049 74.284 21.9721 72.1281 24.1281C69.9721 26.284 67.049 27.4967 64 27.5ZM68.5 12V18C68.5 18.1326 68.4473 18.2598 68.3536 18.3536C68.2598 18.4473 68.1326 18.5 68 18.5C67.8674 18.5 67.7402 18.4473 67.6465 18.3536C67.5527 18.2598 67.5 18.1326 67.5 18V13.2075L60.3538 20.3538C60.2599 20.4476 60.1327 20.5003 60 20.5003C59.8673 20.5003 59.7401 20.4476 59.6463 20.3538C59.5524 20.2599 59.4997 20.1327 59.4997 20C59.4997 19.8673 59.5524 19.7401 59.6463 19.6462L66.7925 12.5H62C61.8674 12.5 61.7402 12.4473 61.6465 12.3536C61.5527 12.2598 61.5 12.1326 61.5 12C61.5 11.8674 61.5527 11.7402 61.6465 11.6464C61.7402 11.5527 61.8674 11.5 62 11.5H68C68.1326 11.5 68.2598 11.5527 68.3536 11.6464C68.4473 11.7402 68.5 11.8674 68.5 12Z" fill="currentColor"/>
<path d="M112 3.25C109.478 3.25 107.013 3.99777 104.916 5.39876C102.82 6.79975 101.186 8.79103 100.221 11.1208C99.2555 13.4505 99.003 16.0141 99.495 18.4874C99.987 20.9607 101.201 23.2325 102.984 25.0156C104.768 26.7987 107.039 28.0131 109.513 28.505C111.986 28.997 114.549 28.7445 116.879 27.7795C119.209 26.8144 121.2 25.1802 122.601 23.0835C124.002 20.9868 124.75 18.5217 124.75 16C124.746 12.6197 123.401 9.379 121.011 6.98877C118.621 4.59854 115.38 3.25397 112 3.25ZM112 27.25C109.775 27.25 107.6 26.5902 105.75 25.354C103.9 24.1179 102.458 22.3609 101.606 20.3052C100.755 18.2495 100.532 15.9875 100.966 13.8052C101.4 11.6229 102.472 9.61839 104.045 8.04505C105.618 6.47171 107.623 5.40025 109.805 4.96617C111.988 4.53208 114.25 4.75487 116.305 5.60636C118.361 6.45784 120.118 7.89978 121.354 9.74984C122.59 11.5999 123.25 13.775 123.25 16C123.247 18.9827 122.06 21.8422 119.951 23.9513C117.842 26.0604 114.983 27.2467 112 27.25ZM116.75 12V18C116.75 18.1989 116.671 18.3897 116.53 18.5303C116.39 18.671 116.199 18.75 116 18.75C115.801 18.75 115.61 18.671 115.47 18.5303C115.329 18.3897 115.25 18.1989 115.25 18V13.8112L108.53 20.53C108.388 20.6625 108.2 20.7346 108.005 20.7312C107.811 20.7277 107.626 20.649 107.488 20.5116C107.351 20.3742 107.272 20.1888 107.269 19.9945C107.265 19.8002 107.338 19.6122 107.47 19.47L114.189 12.75H110C109.801 12.75 109.61 12.671 109.47 12.5303C109.329 12.3897 109.25 12.1989 109.25 12C109.25 11.8011 109.329 11.6103 109.47 11.4697C109.61 11.329 109.801 11.25 110 11.25H116C116.199 11.25 116.39 11.329 116.53 11.4697C116.671 11.6103 116.75 11.8011 116.75 12Z" fill="currentColor"/>
<path d="M160 2.5C157.33 2.5 154.72 3.29176 152.5 4.77516C150.28 6.25856 148.549 8.36697 147.528 10.8338C146.506 13.3006 146.239 16.015 146.759 18.6337C147.28 21.2525 148.566 23.6579 150.454 25.5459C152.342 27.434 154.748 28.7197 157.366 29.2406C159.985 29.7615 162.699 29.4942 165.166 28.4724C167.633 27.4506 169.741 25.7203 171.225 23.5002C172.708 21.2801 173.5 18.67 173.5 16C173.496 12.4208 172.072 8.98932 169.542 6.45844C167.011 3.92756 163.579 2.50397 160 2.5ZM160 26.5C157.923 26.5 155.893 25.8842 154.167 24.7304C152.44 23.5767 151.094 21.9368 150.299 20.0182C149.505 18.0996 149.297 15.9884 149.702 13.9516C150.107 11.9148 151.107 10.0438 152.575 8.57538C154.044 7.10693 155.915 6.1069 157.952 5.70175C159.988 5.29661 162.1 5.50454 164.018 6.29926C165.937 7.09399 167.577 8.4398 168.73 10.1665C169.884 11.8932 170.5 13.9233 170.5 16C170.497 18.7839 169.39 21.4528 167.421 23.4213C165.453 25.3898 162.784 26.497 160 26.5ZM165.5 12V18C165.5 18.3978 165.342 18.7794 165.061 19.0607C164.779 19.342 164.398 19.5 164 19.5C163.602 19.5 163.221 19.342 162.939 19.0607C162.658 18.7794 162.5 18.3978 162.5 18V15.625L157.061 21.065C156.779 21.3468 156.397 21.5051 155.999 21.5051C155.6 21.5051 155.218 21.3468 154.936 21.065C154.654 20.7832 154.496 20.401 154.496 20.0025C154.496 19.604 154.654 19.2218 154.936 18.94L160.375 13.5H158C157.602 13.5 157.221 13.342 156.939 13.0607C156.658 12.7794 156.5 12.3978 156.5 12C156.5 11.6022 156.658 11.2206 156.939 10.9393C157.221 10.658 157.602 10.5 158 10.5H164C164.398 10.5 164.779 10.658 165.061 10.9393C165.342 11.2206 165.5 11.6022 165.5 12Z" fill="currentColor"/>
<path d="M208 3C205.429 3 202.915 3.76244 200.778 5.1909C198.64 6.61935 196.974 8.64968 195.99 11.0251C195.006 13.4006 194.748 16.0144 195.25 18.5362C195.751 21.0579 196.99 23.3743 198.808 25.1924C200.626 27.0105 202.942 28.2486 205.464 28.7502C207.986 29.2518 210.599 28.9944 212.975 28.0104C215.35 27.0265 217.381 25.3603 218.809 23.2224C220.238 21.0846 221 18.5712 221 16C220.996 12.5533 219.626 9.24882 217.188 6.81163C214.751 4.37445 211.447 3.00364 208 3ZM213 18C213 18.2652 212.895 18.5196 212.707 18.7071C212.52 18.8946 212.265 19 212 19C211.735 19 211.48 18.8946 211.293 18.7071C211.105 18.5196 211 18.2652 211 18V14.4137L204.708 20.7075C204.615 20.8004 204.504 20.8741 204.383 20.9244C204.262 20.9747 204.131 21.0006 204 21.0006C203.869 21.0006 203.739 20.9747 203.617 20.9244C203.496 20.8741 203.385 20.8004 203.293 20.7075C203.2 20.6146 203.126 20.5043 203.076 20.3829C203.025 20.2615 202.999 20.1314 202.999 20C202.999 19.8686 203.025 19.7385 203.076 19.6171C203.126 19.4957 203.2 19.3854 203.293 19.2925L209.586 13H206C205.735 13 205.48 12.8946 205.293 12.7071C205.105 12.5196 205 12.2652 205 12C205 11.7348 205.105 11.4804 205.293 11.2929C205.48 11.1054 205.735 11 206 11H212C212.265 11 212.52 11.1054 212.707 11.2929C212.895 11.4804 213 11.7348 213 12V18Z" fill="currentColor"/>
<path opacity="0.2" d="M268 16C268 18.3734 267.296 20.6935 265.978 22.6668C264.659 24.6402 262.785 26.1783 260.592 27.0866C258.399 27.9948 255.987 28.2324 253.659 27.7694C251.331 27.3064 249.193 26.1635 247.515 24.4853C245.836 22.8071 244.694 20.6689 244.231 18.3411C243.768 16.0133 244.005 13.6005 244.913 11.4078C245.822 9.21509 247.36 7.34094 249.333 6.02236C251.307 4.70379 253.627 4 256 4C259.183 4 262.235 5.26428 264.485 7.51472C266.736 9.76515 268 12.8174 268 16Z" fill="currentColor"/>
<path d="M256 3C253.429 3 250.915 3.76244 248.778 5.1909C246.64 6.61935 244.974 8.64968 243.99 11.0251C243.006 13.4006 242.748 16.0144 243.25 18.5362C243.751 21.0579 244.99 23.3743 246.808 25.1924C248.626 27.0105 250.942 28.2486 253.464 28.7502C255.986 29.2518 258.599 28.9944 260.975 28.0104C263.35 27.0265 265.381 25.3603 266.809 23.2224C268.238 21.0846 269 18.5712 269 16C268.996 12.5533 267.626 9.24882 265.188 6.81163C262.751 4.37445 259.447 3.00364 256 3ZM256 27C253.824 27 251.698 26.3549 249.889 25.1462C248.08 23.9375 246.67 22.2195 245.837 20.2095C245.005 18.1995 244.787 15.9878 245.211 13.854C245.636 11.7202 246.683 9.7602 248.222 8.22183C249.76 6.68345 251.72 5.6358 253.854 5.21136C255.988 4.78692 258.2 5.00476 260.21 5.83733C262.22 6.66989 263.937 8.07979 265.146 9.88873C266.355 11.6977 267 13.8244 267 16C266.997 18.9164 265.837 21.7123 263.775 23.7745C261.712 25.8367 258.916 26.9967 256 27ZM261 12V18C261 18.2652 260.895 18.5196 260.707 18.7071C260.52 18.8946 260.265 19 260 19C259.735 19 259.48 18.8946 259.293 18.7071C259.105 18.5196 259 18.2652 259 18V14.4137L252.708 20.7075C252.615 20.8004 252.504 20.8741 252.383 20.9244C252.262 20.9747 252.131 21.0006 252 21.0006C251.869 21.0006 251.739 20.9747 251.617 20.9244C251.496 20.8741 251.385 20.8004 251.293 20.7075C251.2 20.6146 251.126 20.5043 251.076 20.3829C251.025 20.2615 250.999 20.1314 250.999 20C250.999 19.8686 251.025 19.7385 251.076 19.6171C251.126 19.4957 251.2 19.3854 251.293 19.2925L257.586 13H254C253.735 13 253.48 12.8946 253.293 12.7071C253.105 12.5196 253 12.2652 253 12C253 11.7348 253.105 11.4804 253.293 11.2929C253.48 11.1054 253.735 11 254 11H260C260.265 11 260.52 11.1054 260.707 11.2929C260.895 11.4804 261 11.7348 261 12Z" fill="currentColor"/>
</g>
<defs>
<clipPath id="clip0_17_6926">
<rect width="272" height="32" rx="5" fill="white"/>
</clipPath>
</defs>
</svg>
