<svg width="272" height="32" viewBox="0 0 272 32" fill="none" xmlns="http://www.w3.org/2000/svg">
<g clip-path="url(#clip0_17_6254)">
<path d="M29.0001 14C28.9977 16.121 28.1541 18.1545 26.6544 19.6543C25.1546 21.1541 23.1211 21.9977 21.0001 22H6.4138L10.7076 26.2925C10.8952 26.4801 11.0006 26.7346 11.0006 27C11.0006 27.2654 10.8952 27.5199 10.7076 27.7075C10.5199 27.8951 10.2654 28.0006 10.0001 28.0006C9.73469 28.0006 9.48019 27.8951 9.29255 27.7075L3.29255 21.7075C3.19958 21.6146 3.12582 21.5043 3.07549 21.3829C3.02517 21.2615 2.99927 21.1314 2.99927 21C2.99927 20.8686 3.02517 20.7385 3.07549 20.6171C3.12582 20.4957 3.19958 20.3854 3.29255 20.2925L9.29255 14.2925C9.48019 14.1049 9.73469 13.9994 10.0001 13.9994C10.2654 13.9994 10.5199 14.1049 10.7076 14.2925C10.8952 14.4801 11.0006 14.7346 11.0006 15C11.0006 15.2654 10.8952 15.5199 10.7076 15.7075L6.4138 20H21.0001C22.5914 20 24.1175 19.3679 25.2427 18.2426C26.3679 17.1174 27.0001 15.5913 27.0001 14C27.0001 12.4087 26.3679 10.8826 25.2427 9.75736C24.1175 8.63214 22.5914 8 21.0001 8H10.0001C9.73484 8 9.48048 7.89464 9.29295 7.70711C9.10541 7.51957 9.00005 7.26522 9.00005 7C9.00005 6.73478 9.10541 6.48043 9.29295 6.29289C9.48048 6.10536 9.73484 6 10.0001 6H21.0001C23.1211 6.00232 25.1546 6.84591 26.6544 8.3457C28.1541 9.84549 28.9977 11.879 29.0001 14Z" fill="currentColor"/>
<path d="M76.4999 14C76.4976 15.9884 75.7067 17.8947 74.3006 19.3007C72.8946 20.7068 70.9883 21.4977 68.9999 21.5H53.2074L58.3537 26.6462C58.4001 26.6927 58.437 26.7479 58.4621 26.8086C58.4872 26.8692 58.5002 26.9343 58.5002 27C58.5002 27.0657 58.4872 27.1308 58.4621 27.1914C58.437 27.2521 58.4001 27.3073 58.3537 27.3538C58.3072 27.4002 58.252 27.4371 58.1914 27.4622C58.1307 27.4873 58.0656 27.5003 57.9999 27.5003C57.9342 27.5003 57.8692 27.4873 57.8085 27.4622C57.7478 27.4371 57.6926 27.4002 57.6462 27.3538L51.6462 21.3538C51.5997 21.3073 51.5628 21.2522 51.5376 21.1915C51.5125 21.1308 51.4995 21.0657 51.4995 21C51.4995 20.9343 51.5125 20.8692 51.5376 20.8085C51.5628 20.7478 51.5997 20.6927 51.6462 20.6462L57.6462 14.6462C57.74 14.5524 57.8672 14.4997 57.9999 14.4997C58.1326 14.4997 58.2598 14.5524 58.3537 14.6462C58.4475 14.7401 58.5002 14.8673 58.5002 15C58.5002 15.1327 58.4475 15.2599 58.3537 15.3538L53.2074 20.5H68.9999C70.7238 20.5 72.3771 19.8152 73.5961 18.5962C74.8151 17.3772 75.4999 15.7239 75.4999 14C75.4999 12.2761 74.8151 10.6228 73.5961 9.40381C72.3771 8.18482 70.7238 7.5 68.9999 7.5H57.9999C57.8673 7.5 57.7401 7.44732 57.6464 7.35355C57.5526 7.25979 57.4999 7.13261 57.4999 7C57.4999 6.86739 57.5526 6.74021 57.6464 6.64645C57.7401 6.55268 57.8673 6.5 57.9999 6.5H68.9999C70.9883 6.50232 72.8946 7.29324 74.3006 8.69926C75.7067 10.1053 76.4976 12.0116 76.4999 14Z" fill="currentColor"/>
<path d="M124.75 14C124.748 16.0547 123.93 18.0246 122.478 19.4775C121.025 20.9304 119.055 21.7477 117 21.75H101.811L106.53 26.47C106.604 26.5387 106.663 26.6215 106.704 26.7135C106.745 26.8055 106.767 26.9048 106.769 27.0055C106.77 27.1062 106.752 27.2062 106.714 27.2996C106.676 27.393 106.62 27.4778 106.549 27.549C106.478 27.6203 106.393 27.6764 106.3 27.7141C106.206 27.7518 106.106 27.7704 106.006 27.7686C105.905 27.7668 105.806 27.7448 105.714 27.7038C105.622 27.6628 105.539 27.6037 105.47 27.53L99.4701 21.53C99.3296 21.3894 99.2507 21.1988 99.2507 21C99.2507 20.8012 99.3296 20.6106 99.4701 20.47L105.47 14.47C105.612 14.3375 105.8 14.2654 105.995 14.2688C106.189 14.2723 106.374 14.351 106.512 14.4884C106.649 14.6258 106.728 14.8112 106.731 15.0055C106.735 15.1998 106.663 15.3878 106.53 15.53L101.811 20.25H117C118.658 20.25 120.247 19.5915 121.419 18.4194C122.592 17.2473 123.25 15.6576 123.25 14C123.25 12.3424 122.592 10.7527 121.419 9.58058C120.247 8.40848 118.658 7.75 117 7.75H106C105.801 7.75 105.61 7.67098 105.47 7.53033C105.329 7.38968 105.25 7.19891 105.25 7C105.25 6.80109 105.329 6.61032 105.47 6.46967C105.61 6.32902 105.801 6.25 106 6.25H117C119.055 6.25232 121.025 7.06957 122.478 8.52248C123.93 9.97539 124.748 11.9453 124.75 14Z" fill="currentColor"/>
<path d="M173.5 14C173.498 16.2536 172.601 18.4143 171.008 20.0078C169.414 21.6014 167.254 22.4977 165 22.5H151.625L155.065 25.9387C155.204 26.0783 155.315 26.2439 155.391 26.4262C155.466 26.6085 155.505 26.8039 155.505 27.0012C155.505 27.1986 155.466 27.394 155.391 27.5763C155.315 27.7586 155.204 27.9242 155.065 28.0637C154.925 28.2033 154.76 28.314 154.577 28.3895C154.395 28.465 154.2 28.5039 154.002 28.5039C153.805 28.5039 153.61 28.465 153.427 28.3895C153.245 28.314 153.079 28.2033 152.94 28.0637L146.94 22.0637C146.8 21.9244 146.689 21.7588 146.613 21.5765C146.538 21.3941 146.499 21.1987 146.499 21.0012C146.499 20.8038 146.538 20.6083 146.613 20.426C146.689 20.2437 146.8 20.0781 146.94 19.9387L152.94 13.9388C153.079 13.7992 153.245 13.6885 153.427 13.613C153.61 13.5375 153.805 13.4986 154.002 13.4986C154.2 13.4986 154.395 13.5375 154.577 13.613C154.76 13.6885 154.925 13.7992 155.065 13.9388C155.204 14.0783 155.315 14.2439 155.391 14.4262C155.466 14.6085 155.505 14.8039 155.505 15.0013C155.505 15.1986 155.466 15.394 155.391 15.5763C155.315 15.7586 155.204 15.9242 155.065 16.0637L151.625 19.5H165C166.459 19.5 167.858 18.9205 168.889 17.8891C169.92 16.8576 170.5 15.4587 170.5 14C170.5 12.5413 169.92 11.1424 168.889 10.1109C167.858 9.07946 166.459 8.5 165 8.5H154C153.602 8.5 153.221 8.34196 152.939 8.06066C152.658 7.77936 152.5 7.39782 152.5 7C152.5 6.60218 152.658 6.22064 152.939 5.93934C153.221 5.65804 153.602 5.5 154 5.5H165C167.254 5.50232 169.414 6.39859 171.008 7.99215C172.601 9.58571 173.498 11.7464 173.5 14Z" fill="currentColor"/>
<path d="M221 14C220.998 16.121 220.154 18.1545 218.654 19.6543C217.155 21.1541 215.121 21.9977 213 22H203V27C203 27.1979 202.942 27.3914 202.832 27.556C202.722 27.7206 202.566 27.8489 202.383 27.9246C202.2 28.0004 201.999 28.0202 201.805 27.9815C201.611 27.9429 201.432 27.8475 201.293 27.7075L195.293 21.7075C195.2 21.6146 195.126 21.5043 195.075 21.3829C195.025 21.2615 194.999 21.1314 194.999 21C194.999 20.8686 195.025 20.7385 195.075 20.6171C195.126 20.4957 195.2 20.3854 195.293 20.2925L201.293 14.2925C201.432 14.1525 201.611 14.0571 201.805 14.0185C201.999 13.9798 202.2 13.9996 202.383 14.0754C202.566 14.1511 202.722 14.2794 202.832 14.444C202.942 14.6086 203 14.8021 203 15V20H213C214.591 20 216.117 19.3679 217.243 18.2426C218.368 17.1174 219 15.5913 219 14C219 12.4087 218.368 10.8826 217.243 9.75736C216.117 8.63214 214.591 8 213 8H202C201.735 8 201.48 7.89464 201.293 7.70711C201.105 7.51957 201 7.26522 201 7C201 6.73478 201.105 6.48043 201.293 6.29289C201.48 6.10536 201.735 6 202 6H213C215.121 6.00232 217.155 6.84591 218.654 8.3457C220.154 9.84549 220.998 11.879 221 14Z" fill="currentColor"/>
<path opacity="0.2" d="M250 15V27L244 21L250 15Z" fill="currentColor"/>
<path d="M261 6H250C249.735 6 249.48 6.10536 249.293 6.29289C249.105 6.48043 249 6.73478 249 7C249 7.26522 249.105 7.51957 249.293 7.70711C249.48 7.89464 249.735 8 250 8H261C262.591 8 264.117 8.63214 265.243 9.75736C266.368 10.8826 267 12.4087 267 14C267 15.5913 266.368 17.1174 265.243 18.2426C264.117 19.3679 262.591 20 261 20H251V15C251 14.8021 250.942 14.6086 250.832 14.444C250.722 14.2794 250.566 14.1511 250.383 14.0754C250.2 13.9996 249.999 13.9798 249.805 14.0185C249.611 14.0571 249.432 14.1525 249.293 14.2925L243.293 20.2925C243.2 20.3854 243.126 20.4957 243.075 20.6171C243.025 20.7385 242.999 20.8686 242.999 21C242.999 21.1314 243.025 21.2615 243.075 21.3829C243.126 21.5043 243.2 21.6146 243.293 21.7075L249.293 27.7075C249.432 27.8475 249.611 27.9429 249.805 27.9815C249.999 28.0202 250.2 28.0004 250.383 27.9246C250.566 27.8489 250.722 27.7206 250.832 27.556C250.942 27.3914 251 27.1979 251 27V22H261C263.122 22 265.157 21.1571 266.657 19.6569C268.157 18.1566 269 16.1217 269 14C269 11.8783 268.157 9.84344 266.657 8.34315C265.157 6.84285 263.122 6 261 6ZM249 24.5863L245.414 21L249 17.4137V24.5863Z" fill="currentColor"/>
</g>
<defs>
<clipPath id="clip0_17_6254">
<rect width="272" height="32" rx="5" fill="white"/>
</clipPath>
</defs>
</svg>
