<svg width="272" height="32" viewBox="0 0 272 32" fill="none" xmlns="http://www.w3.org/2000/svg">
<g clip-path="url(#clip0_17_6912)">
<path d="M29.9999 6.99997V13C29.9999 13.2652 29.8946 13.5195 29.707 13.7071C29.5195 13.8946 29.2651 14 28.9999 14H22.9999C22.7347 14 22.4804 13.8946 22.2928 13.7071C22.1053 13.5195 21.9999 13.2652 21.9999 13C21.9999 12.7348 22.1053 12.4804 22.2928 12.2929C22.4804 12.1053 22.7347 12 22.9999 12H26.4249L23.1012 8.95497L23.0699 8.92497C21.68 7.53559 19.9115 6.58654 17.9854 6.19641C16.0592 5.80627 14.0608 5.99233 12.2398 6.73135C10.4188 7.47037 8.85588 8.72958 7.74635 10.3517C6.63682 11.9738 6.02985 13.8868 6.00126 15.8519C5.97267 17.817 6.52373 19.7469 7.58559 21.4006C8.64746 23.0543 10.1731 24.3584 11.9718 25.1501C13.7706 25.9418 15.7627 26.1859 17.6994 25.852C19.6361 25.518 21.4314 24.6208 22.8612 23.2725C23.054 23.0901 23.3113 22.9918 23.5765 22.9992C23.8418 23.0066 24.0932 23.1191 24.2756 23.3118C24.4579 23.5046 24.5562 23.7619 24.5488 24.0272C24.5414 24.2924 24.429 24.5439 24.2362 24.7262C22.013 26.8346 19.0639 28.0069 15.9999 28H15.8349C13.8696 27.9731 11.941 27.4638 10.2186 26.517C8.49613 25.5701 7.03266 24.2147 5.95675 22.5698C4.88085 20.9249 4.22545 19.0409 4.04818 17.0834C3.8709 15.1259 4.17717 13.1548 4.94007 11.3434C5.70296 9.532 6.89912 7.93571 8.42342 6.69484C9.94771 5.45397 11.7535 4.60652 13.682 4.22697C15.6105 3.84741 17.6027 3.94738 19.4836 4.51808C21.3644 5.08878 23.0763 6.11275 24.4687 7.49997L27.9999 10.725V6.99997C27.9999 6.73476 28.1053 6.4804 28.2928 6.29287C28.4804 6.10533 28.7347 5.99997 28.9999 5.99997C29.2651 5.99997 29.5195 6.10533 29.707 6.29287C29.8946 6.4804 29.9999 6.73476 29.9999 6.99997Z" fill="currentColor"/>
<path d="M77.5001 7.00003V13C77.5001 13.1326 77.4474 13.2598 77.3536 13.3536C77.2598 13.4474 77.1327 13.5 77.0001 13.5H71.0001C70.8674 13.5 70.7403 13.4474 70.6465 13.3536C70.5527 13.2598 70.5001 13.1326 70.5001 13C70.5001 12.8674 70.5527 12.7402 70.6465 12.6465C70.7403 12.5527 70.8674 12.5 71.0001 12.5H75.7126L71.4413 8.58628L71.4251 8.57128C69.9657 7.11231 68.1087 6.1157 66.0862 5.70598C64.0637 5.29626 61.9653 5.49159 60.0532 6.26757C58.141 7.04354 56.4999 8.36576 55.3349 10.069C54.1699 11.7723 53.5325 13.7811 53.5026 15.8445C53.4726 17.9079 54.0513 19.9343 55.1664 21.6707C56.2815 23.4071 57.8835 24.7764 59.7723 25.6076C61.6611 26.4387 63.753 26.6949 65.7865 26.3441C67.8201 25.9933 69.7052 25.051 71.2063 23.635C71.3028 23.5439 71.4315 23.4948 71.5642 23.4985C71.6969 23.5023 71.8226 23.5586 71.9138 23.655C72.005 23.7515 72.0541 23.8802 72.0503 24.0129C72.0466 24.1456 71.9903 24.2714 71.8938 24.3625C69.7634 26.3837 66.9367 27.5072 64.0001 27.5H63.8426C61.9594 27.473 60.1118 26.9838 58.4619 26.0756C56.812 25.1673 55.4105 23.8678 54.3804 22.2911C53.3503 20.7145 52.7232 18.909 52.5542 17.0332C52.3852 15.1575 52.6795 13.269 53.4111 11.5336C54.1428 9.79816 55.2894 8.26902 56.7504 7.08048C58.2113 5.89195 59.9418 5.0804 61.7897 4.71715C63.6377 4.35391 65.5466 4.45007 67.3487 4.99721C69.1508 5.54434 70.791 6.52569 72.1251 7.85503L76.5001 11.8613V7.00003C76.5001 6.86743 76.5527 6.74025 76.6465 6.64648C76.7403 6.55271 76.8674 6.50003 77.0001 6.50003C77.1327 6.50003 77.2598 6.55271 77.3536 6.64648C77.4474 6.74025 77.5001 6.86743 77.5001 7.00003Z" fill="currentColor"/>
<path d="M125.75 7.00006V13.0001C125.75 13.199 125.671 13.3897 125.53 13.5304C125.39 13.671 125.199 13.7501 125 13.7501H119C118.801 13.7501 118.61 13.671 118.47 13.5304C118.329 13.3897 118.25 13.199 118.25 13.0001C118.25 12.8011 118.329 12.6104 118.47 12.4697C118.61 12.3291 118.801 12.2501 119 12.2501H123.069L119.271 8.77506C119.264 8.76756 119.256 8.75881 119.247 8.75131C117.823 7.32733 116.01 6.35475 114.035 5.95506C112.061 5.55537 110.013 5.74629 108.146 6.50398C106.28 7.26166 104.678 8.55251 103.541 10.2153C102.404 11.878 101.782 13.839 101.753 15.8532C101.724 17.8674 102.289 19.8455 103.377 21.5404C104.466 23.2353 106.03 24.5719 107.874 25.3832C109.717 26.1945 111.759 26.4445 113.744 26.102C115.729 25.7596 117.57 24.8398 119.035 23.4576C119.18 23.321 119.373 23.2475 119.572 23.2532C119.77 23.2589 119.959 23.3435 120.096 23.4882C120.232 23.6329 120.306 23.8259 120.3 24.0248C120.294 24.2237 120.21 24.4122 120.065 24.5488C117.887 26.6117 115 27.7579 112 27.7501H111.84C109.916 27.723 108.028 27.2237 106.342 26.2963C104.656 25.3688 103.224 24.0415 102.171 22.4309C101.118 20.8203 100.476 18.9757 100.303 17.0593C100.13 15.1429 100.43 13.2132 101.177 11.4399C101.924 9.66656 103.095 8.10381 104.587 6.88897C106.079 5.67413 107.847 4.84437 109.735 4.4726C111.623 4.10084 113.574 4.19843 115.415 4.75683C117.257 5.31522 118.933 6.31731 120.296 7.67506L124.25 11.2938V7.00006C124.25 6.80114 124.329 6.61038 124.47 6.46973C124.61 6.32907 124.801 6.25006 125 6.25006C125.199 6.25006 125.39 6.32907 125.53 6.46973C125.671 6.61038 125.75 6.80114 125.75 7.00006Z" fill="currentColor"/>
<path d="M174.5 6.99998V13C174.5 13.3978 174.342 13.7793 174.061 14.0606C173.779 14.3419 173.398 14.5 173 14.5H167C166.602 14.5 166.221 14.3419 165.939 14.0606C165.658 13.7793 165.5 13.3978 165.5 13C165.5 12.6022 165.658 12.2206 165.939 11.9393C166.221 11.658 166.602 11.5 167 11.5H169.137L166.762 9.32748C166.746 9.31248 166.73 9.29748 166.715 9.28123C165.614 8.18068 164.259 7.36764 162.77 6.91365C161.28 6.45967 159.702 6.37865 158.175 6.67773C156.647 6.97681 155.216 7.64682 154.008 8.6288C152.799 9.61079 151.851 10.8747 151.246 12.3092C150.641 13.7437 150.398 15.305 150.538 16.8555C150.678 18.4061 151.197 19.8985 152.049 21.2014C152.902 22.5043 154.061 23.5777 155.426 24.3273C156.79 25.0769 158.318 25.4796 159.875 25.5H160C162.425 25.5058 164.759 24.5784 166.519 22.91C166.808 22.6366 167.194 22.4894 167.592 22.5007C167.99 22.5119 168.367 22.6807 168.64 22.97C168.913 23.2592 169.061 23.6452 169.049 24.043C169.038 24.4408 168.869 24.8179 168.58 25.0912C166.264 27.2867 163.191 28.5073 160 28.5H159.829C157.783 28.4711 155.775 27.9404 153.982 26.9543C152.188 25.9682 150.665 24.557 149.544 22.8445C148.424 21.132 147.741 19.1706 147.556 17.1326C147.371 15.0946 147.689 13.0423 148.482 11.1559C149.275 9.26953 150.52 7.60673 152.106 6.31352C153.692 5.02032 155.571 4.13628 157.578 3.73902C159.586 3.34176 161.66 3.44343 163.619 4.03511C165.578 4.62679 167.362 5.69037 168.814 7.13248L171.5 9.58998V6.99998C171.5 6.60216 171.658 6.22062 171.939 5.93932C172.221 5.65802 172.602 5.49998 173 5.49998C173.398 5.49998 173.779 5.65802 174.061 5.93932C174.342 6.22062 174.5 6.60216 174.5 6.99998Z" fill="currentColor"/>
<path d="M222 6.99997V13C222 13.2652 221.895 13.5195 221.707 13.7071C221.519 13.8946 221.265 14 221 14H215C214.802 14.0001 214.609 13.9416 214.444 13.8317C214.279 13.7218 214.151 13.5656 214.075 13.3828C214 13.1999 213.98 12.9988 214.018 12.8047C214.057 12.6106 214.152 12.4323 214.292 12.2925L216.417 10.1675L215.099 8.96122L215.067 8.93122C213.678 7.54184 211.909 6.59279 209.983 6.20266C208.057 5.81252 206.058 5.99858 204.237 6.7376C202.416 7.47662 200.853 8.73583 199.744 10.3579C198.634 11.98 198.027 13.8931 197.999 15.8582C197.97 17.8232 198.521 19.7531 199.583 21.4068C200.645 23.0605 202.171 24.3647 203.969 25.1563C205.768 25.948 207.76 26.1921 209.697 25.8582C211.634 25.5243 213.429 24.6271 214.859 23.2787C214.954 23.1884 215.066 23.1178 215.189 23.071C215.312 23.0241 215.443 23.0018 215.574 23.0055C215.705 23.0091 215.835 23.0386 215.955 23.0923C216.075 23.1459 216.183 23.2226 216.273 23.3181C216.363 23.4136 216.434 23.5259 216.481 23.6486C216.528 23.7713 216.55 23.9021 216.546 24.0334C216.543 24.1648 216.513 24.2941 216.46 24.414C216.406 24.534 216.329 24.6422 216.234 24.7325C214.01 26.838 211.062 28.0079 208 28H207.835C205.87 27.9731 203.941 27.4638 202.219 26.517C200.496 25.5701 199.033 24.2147 197.957 22.5698C196.881 20.9249 196.225 19.0409 196.048 17.0834C195.871 15.1259 196.177 13.1548 196.94 11.3434C197.703 9.532 198.899 7.93571 200.423 6.69484C201.948 5.45397 203.753 4.60652 205.682 4.22697C207.611 3.84741 209.603 3.94738 211.484 4.51808C213.364 5.08878 215.076 6.11275 216.469 7.49997L217.835 8.74997L220.292 6.28747C220.433 6.14716 220.611 6.05168 220.806 6.01319C221 5.97469 221.202 5.99492 221.385 6.07129C221.568 6.14767 221.724 6.27674 221.834 6.4421C221.943 6.60747 222.001 6.80165 222 6.99997Z" fill="currentColor"/>
<path opacity="0.2" d="M269 7V13H263L269 7Z" fill="currentColor"/>
<path d="M269.382 6.07122C269.2 5.99543 268.999 5.97551 268.805 6.01401C268.611 6.0525 268.432 6.14767 268.292 6.28747L265.835 8.74997L264.469 7.49997C263.076 6.11275 261.364 5.08878 259.484 4.51808C257.603 3.94738 255.611 3.84741 253.682 4.22697C251.753 4.60652 249.948 5.45397 248.423 6.69484C246.899 7.93571 245.703 9.532 244.94 11.3434C244.177 13.1548 243.871 15.1259 244.048 17.0834C244.225 19.0409 244.881 20.9249 245.957 22.5698C247.033 24.2147 248.496 25.5701 250.219 26.517C251.941 27.4638 253.87 27.9731 255.835 28H256C259.063 28.0065 262.012 26.8343 264.235 24.7262C264.428 24.5439 264.54 24.2924 264.548 24.0272C264.555 23.7619 264.457 23.5046 264.274 23.3118C264.092 23.1191 263.841 23.0066 263.575 22.9992C263.31 22.9918 263.053 23.0901 262.86 23.2725C261.43 24.6207 259.635 25.5177 257.698 25.8515C255.761 26.1853 253.769 25.941 251.97 25.1491C250.172 24.3573 248.646 23.053 247.585 21.3992C246.523 19.7454 245.972 17.8155 246.001 15.8504C246.029 13.8854 246.637 11.9724 247.746 10.3504C248.856 8.72835 250.419 7.46928 252.24 6.73042C254.061 5.99156 256.059 5.80567 257.986 6.19597C259.912 6.58628 261.68 7.53547 263.07 8.92497L263.101 8.95497L264.42 10.1612L262.295 12.2862C262.153 12.4256 262.056 12.6042 262.016 12.7991C261.976 12.994 261.995 13.1964 262.071 13.3804C262.146 13.5644 262.275 13.7217 262.441 13.8321C262.606 13.9424 262.801 14.0009 263 14H269C269.265 14 269.519 13.8946 269.707 13.7071C269.895 13.5195 270 13.2652 270 13V6.99997C270.001 6.80134 269.943 6.60693 269.833 6.44152C269.723 6.27611 269.566 6.1472 269.382 6.07122ZM268 12H265.414L268 9.40997V12Z" fill="currentColor"/>
</g>
<defs>
<clipPath id="clip0_17_6912">
<rect width="272" height="32" rx="5" fill="white"/>
</clipPath>
</defs>
</svg>
