<svg width="272" height="32" viewBox="0 0 272 32" fill="none" xmlns="http://www.w3.org/2000/svg">
<g clip-path="url(#clip0_17_7080)">
<path d="M25.7075 22.7075L19.7075 28.7075C19.6146 28.8005 19.5043 28.8742 19.3829 28.9246C19.2615 28.9749 19.1314 29.0008 19 29.0008C18.8686 29.0008 18.7385 28.9749 18.6171 28.9246C18.4957 28.8742 18.3854 28.8005 18.2925 28.7075L12.2925 22.7075C12.1049 22.5199 11.9994 22.2654 11.9994 22C11.9994 21.7346 12.1049 21.4801 12.2925 21.2925C12.4801 21.1049 12.7346 20.9994 13 20.9994C13.2654 20.9994 13.5199 21.1049 13.7075 21.2925L18 25.5863V16C17.9967 13.0836 16.8367 10.2877 14.7745 8.22548C12.7123 6.1633 9.91637 5.00331 7 5C6.73478 5 6.48043 4.89464 6.29289 4.70711C6.10536 4.51957 6 4.26522 6 4C6 3.73478 6.10536 3.48043 6.29289 3.29289C6.48043 3.10536 6.73478 3 7 3C10.4467 3.00364 13.7512 4.37445 16.1884 6.81163C18.6256 9.24882 19.9964 12.5533 20 16V25.5863L24.2925 21.2925C24.4801 21.1049 24.7346 20.9994 25 20.9994C25.2654 20.9994 25.5199 21.1049 25.7075 21.2925C25.8951 21.4801 26.0006 21.7346 26.0006 22C26.0006 22.2654 25.8951 22.5199 25.7075 22.7075Z" fill="currentColor"/>
<path d="M73.3538 22.3538L67.3538 28.3538C67.3073 28.4002 67.2522 28.4371 67.1915 28.4623C67.1308 28.4874 67.0657 28.5004 67 28.5004C66.9343 28.5004 66.8692 28.4874 66.8085 28.4623C66.7478 28.4371 66.6927 28.4002 66.6462 28.3538L60.6462 22.3538C60.5524 22.2599 60.4997 22.1327 60.4997 22C60.4997 21.8673 60.5524 21.7401 60.6462 21.6462C60.7401 21.5524 60.8673 21.4997 61 21.4997C61.1327 21.4997 61.2599 21.5524 61.3538 21.6462L66.5 26.7925V16C66.4967 12.951 65.284 10.0279 63.1281 7.87193C60.9721 5.71597 58.049 4.50331 55 4.5C54.8674 4.5 54.7402 4.44732 54.6464 4.35355C54.5527 4.25979 54.5 4.13261 54.5 4C54.5 3.86739 54.5527 3.74021 54.6464 3.64645C54.7402 3.55268 54.8674 3.5 55 3.5C58.3141 3.50364 61.4914 4.82177 63.8348 7.16518C66.1782 9.5086 67.4964 12.6859 67.5 16V26.7925L72.6462 21.6462C72.7401 21.5524 72.8673 21.4997 73 21.4997C73.1327 21.4997 73.2599 21.5524 73.3538 21.6462C73.4476 21.7401 73.5003 21.8673 73.5003 22C73.5003 22.1327 73.4476 22.2599 73.3538 22.3538Z" fill="currentColor"/>
<path d="M121.53 22.53L115.53 28.53C115.389 28.6705 115.199 28.7493 115 28.7493C114.801 28.7493 114.611 28.6705 114.47 28.53L108.47 22.53C108.338 22.3878 108.265 22.1998 108.269 22.0055C108.272 21.8112 108.351 21.6258 108.488 21.4884C108.626 21.351 108.811 21.2723 109.005 21.2688C109.2 21.2654 109.388 21.3375 109.53 21.47L114.25 26.1887V16C114.247 13.0173 113.06 10.1578 110.951 8.0487C108.842 5.93964 105.983 4.75331 103 4.75C102.801 4.75 102.61 4.67098 102.47 4.53033C102.329 4.38968 102.25 4.19891 102.25 4C102.25 3.80109 102.329 3.61032 102.47 3.46967C102.61 3.32902 102.801 3.25 103 3.25C106.38 3.25397 109.621 4.59854 112.011 6.98877C114.401 9.379 115.746 12.6197 115.75 16V26.1887L120.47 21.47C120.612 21.3375 120.8 21.2654 120.995 21.2688C121.189 21.2723 121.374 21.351 121.512 21.4884C121.649 21.6258 121.728 21.8112 121.731 22.0055C121.735 22.1998 121.662 22.3878 121.53 22.53Z" fill="currentColor"/>
<path d="M170.061 23.0613L164.061 29.0613C163.922 29.2011 163.756 29.312 163.574 29.3878C163.392 29.4635 163.196 29.5024 162.999 29.5024C162.801 29.5024 162.606 29.4635 162.424 29.3878C162.241 29.312 162.076 29.2011 161.936 29.0613L155.936 23.0613C155.654 22.7795 155.496 22.3973 155.496 21.9988C155.496 21.6002 155.654 21.218 155.936 20.9363C156.218 20.6545 156.6 20.4961 156.999 20.4961C157.397 20.4961 157.779 20.6545 158.061 20.9363L161.5 24.375V16C161.497 13.2161 160.39 10.5472 158.421 8.57867C156.453 6.61018 153.784 5.50298 151 5.5C150.602 5.5 150.221 5.34196 149.939 5.06066C149.658 4.77936 149.5 4.39782 149.5 4C149.5 3.60218 149.658 3.22064 149.939 2.93934C150.221 2.65804 150.602 2.5 151 2.5C154.579 2.50397 158.011 3.92756 160.542 6.45844C163.072 8.98932 164.496 12.4208 164.5 16V24.375L167.939 20.935C168.221 20.6532 168.603 20.4949 169.001 20.4949C169.4 20.4949 169.782 20.6532 170.064 20.935C170.346 21.2168 170.504 21.599 170.504 21.9975C170.504 22.396 170.346 22.7782 170.064 23.06L170.061 23.0613Z" fill="currentColor"/>
<path d="M217.708 22.7075L211.708 28.7075C211.615 28.8005 211.504 28.8742 211.383 28.9246C211.262 28.9749 211.131 29.0008 211 29.0008C210.869 29.0008 210.738 28.9749 210.617 28.9246C210.496 28.8742 210.385 28.8005 210.292 28.7075L204.292 22.7075C204.152 22.5676 204.057 22.3894 204.018 22.1953C203.98 22.0012 204 21.8 204.075 21.6172C204.151 21.4344 204.279 21.2782 204.444 21.1683C204.609 21.0584 204.802 20.9998 205 21H210V16C209.997 13.0836 208.837 10.2877 206.775 8.22548C204.712 6.1633 201.916 5.00331 199 5C198.735 5 198.48 4.89464 198.293 4.70711C198.105 4.51957 198 4.26522 198 4C198 3.73478 198.105 3.48043 198.293 3.29289C198.48 3.10536 198.735 3 199 3C202.447 3.00364 205.751 4.37445 208.188 6.81163C210.626 9.24882 211.996 12.5533 212 16V21H217C217.198 20.9998 217.391 21.0584 217.556 21.1683C217.721 21.2782 217.849 21.4344 217.925 21.6172C218 21.8 218.02 22.0012 217.982 22.1953C217.943 22.3894 217.848 22.5676 217.708 22.7075Z" fill="currentColor"/>
<path opacity="0.2" d="M265 22L259 28L253 22H265Z" fill="currentColor"/>
<path d="M265.924 21.6175C265.848 21.4348 265.72 21.2786 265.556 21.1686C265.391 21.0587 265.198 21 265 21H260V16C259.996 12.5533 258.626 9.24882 256.188 6.81163C253.751 4.37445 250.447 3.00364 247 3C246.735 3 246.48 3.10536 246.293 3.29289C246.105 3.48043 246 3.73478 246 4C246 4.26522 246.105 4.51957 246.293 4.70711C246.48 4.89464 246.735 5 247 5C249.916 5.00331 252.712 6.1633 254.775 8.22548C256.837 10.2877 257.997 13.0836 258 16V21H253C252.802 20.9998 252.609 21.0584 252.444 21.1683C252.279 21.2782 252.151 21.4344 252.075 21.6172C252 21.8 251.98 22.0012 252.018 22.1953C252.057 22.3894 252.152 22.5676 252.292 22.7075L258.292 28.7075C258.385 28.8005 258.496 28.8742 258.617 28.9246C258.738 28.9749 258.869 29.0008 259 29.0008C259.131 29.0008 259.262 28.9749 259.383 28.9246C259.504 28.8742 259.615 28.8005 259.708 28.7075L265.708 22.7075C265.847 22.5676 265.942 22.3893 265.981 22.1953C266.019 22.0013 266 21.8002 265.924 21.6175ZM259 26.5863L255.414 23H262.586L259 26.5863Z" fill="currentColor"/>
</g>
<defs>
<clipPath id="clip0_17_7080">
<rect width="272" height="32" rx="5" fill="white"/>
</clipPath>
</defs>
</svg>
