<svg width="272" height="32" viewBox="0 0 272 32" fill="none" xmlns="http://www.w3.org/2000/svg">
<g clip-path="url(#clip0_17_6212)">
<path d="M26.0001 9.99981V20.9998C26.0001 23.1215 25.1572 25.1564 23.6569 26.6567C22.1566 28.157 20.1218 28.9998 18.0001 28.9998C15.8783 28.9998 13.8435 28.157 12.3432 26.6567C10.8429 25.1564 10.0001 23.1215 10.0001 20.9998V6.41356L5.70757 10.7073C5.51993 10.895 5.26543 11.0004 5.00007 11.0004C4.7347 11.0004 4.48021 10.895 4.29257 10.7073C4.10493 10.5197 3.99951 10.2652 3.99951 9.99981C3.99951 9.73445 4.10493 9.47995 4.29257 9.29231L10.2926 3.29231C10.3854 3.19933 10.4957 3.12557 10.6171 3.07525C10.7385 3.02493 10.8687 2.99902 11.0001 2.99902C11.1315 2.99902 11.2616 3.02493 11.383 3.07525C11.5044 3.12557 11.6147 3.19933 11.7076 3.29231L17.7076 9.29231C17.8952 9.47995 18.0006 9.73445 18.0006 9.99981C18.0006 10.2652 17.8952 10.5197 17.7076 10.7073C17.5199 10.895 17.2654 11.0004 17.0001 11.0004C16.7347 11.0004 16.4802 10.895 16.2926 10.7073L12.0001 6.41356V20.9998C12.0001 22.5911 12.6322 24.1172 13.7574 25.2425C14.8826 26.3677 16.4088 26.9998 18.0001 26.9998C19.5914 26.9998 21.1175 26.3677 22.2427 25.2425C23.3679 24.1172 24.0001 22.5911 24.0001 20.9998V9.99981C24.0001 9.73459 24.1054 9.48024 24.293 9.2927C24.4805 9.10517 24.7349 8.99981 25.0001 8.99981C25.2653 8.99981 25.5196 9.10517 25.7072 9.2927C25.8947 9.48024 26.0001 9.73459 26.0001 9.99981Z" fill="currentColor"/>
<path d="M73.5 9.99991V20.9999C73.5 22.989 72.7099 24.8967 71.3033 26.3032C69.8968 27.7097 67.9892 28.4999 66 28.4999C64.0109 28.4999 62.1033 27.7097 60.6967 26.3032C59.2902 24.8967 58.5 22.989 58.5 20.9999V5.20741L53.3538 10.3537C53.26 10.4475 53.1327 10.5002 53 10.5002C52.8674 10.5002 52.7401 10.4475 52.6463 10.3537C52.5525 10.2598 52.4998 10.1326 52.4998 9.99991C52.4998 9.86722 52.5525 9.73997 52.6463 9.64615L58.6463 3.64616C58.6927 3.59967 58.7479 3.56279 58.8086 3.53763C58.8693 3.51246 58.9343 3.49951 59 3.49951C59.0657 3.49951 59.1308 3.51246 59.1915 3.53763C59.2522 3.56279 59.3073 3.59967 59.3538 3.64616L65.3538 9.64615C65.4476 9.73997 65.5003 9.86722 65.5003 9.99991C65.5003 10.1326 65.4476 10.2598 65.3538 10.3537C65.26 10.4475 65.1327 10.5002 65 10.5002C64.8674 10.5002 64.7401 10.4475 64.6463 10.3537L59.5 5.20741V20.9999C59.5 22.7238 60.1849 24.3771 61.4038 25.5961C62.6228 26.8151 64.2761 27.4999 66 27.4999C67.7239 27.4999 69.3772 26.8151 70.5962 25.5961C71.8152 24.3771 72.5 22.7238 72.5 20.9999V9.99991C72.5 9.8673 72.5527 9.74012 72.6465 9.64635C72.7402 9.55258 72.8674 9.49991 73 9.49991C73.1326 9.49991 73.2598 9.55258 73.3536 9.64635C73.4474 9.74012 73.5 9.8673 73.5 9.99991Z" fill="currentColor"/>
<path d="M121.75 9.99983V20.9998C121.75 23.0553 120.934 25.0265 119.48 26.4799C118.027 27.9333 116.056 28.7498 114 28.7498C111.945 28.7498 109.973 27.9333 108.52 26.4799C107.067 25.0265 106.25 23.0553 106.25 20.9998V5.81108L101.53 10.5298C101.388 10.6623 101.2 10.7344 101.006 10.731C100.811 10.7276 100.626 10.6489 100.488 10.5114C100.351 10.374 100.272 10.1887 100.269 9.99435C100.265 9.80005 100.338 9.612 100.47 9.46983L106.47 3.46983C106.611 3.32938 106.801 3.25049 107 3.25049C107.199 3.25049 107.389 3.32938 107.53 3.46983L113.53 9.46983C113.604 9.53849 113.663 9.62129 113.704 9.71329C113.745 9.80529 113.767 9.9046 113.769 10.0053C113.77 10.106 113.752 10.206 113.714 10.2994C113.676 10.3928 113.62 10.4776 113.549 10.5489C113.478 10.6201 113.393 10.6762 113.3 10.714C113.206 10.7517 113.106 10.7702 113.006 10.7684C112.905 10.7666 112.806 10.7446 112.714 10.7036C112.622 10.6626 112.539 10.6035 112.47 10.5298L107.75 5.81108V20.9998C107.75 22.6574 108.409 24.2471 109.581 25.4192C110.753 26.5913 112.342 27.2498 114 27.2498C115.658 27.2498 117.247 26.5913 118.42 25.4192C119.592 24.2471 120.25 22.6574 120.25 20.9998V9.99983C120.25 9.80092 120.329 9.61015 120.47 9.4695C120.61 9.32885 120.801 9.24983 121 9.24983C121.199 9.24983 121.39 9.32885 121.53 9.4695C121.671 9.61015 121.75 9.80092 121.75 9.99983Z" fill="currentColor"/>
<path d="M170.5 10.0001V21C170.5 23.2544 169.604 25.4164 168.01 27.0105C166.416 28.6045 164.254 29.5 162 29.5C159.746 29.5 157.584 28.6045 155.99 27.0105C154.395 25.4164 153.5 23.2544 153.5 21V7.62505L150.061 11.0613C149.779 11.3431 149.397 11.5014 148.999 11.5014C148.6 11.5014 148.218 11.3431 147.936 11.0613C147.654 10.7795 147.496 10.3973 147.496 9.9988C147.496 9.60029 147.654 9.21809 147.936 8.9363L153.936 2.9363C154.076 2.79646 154.241 2.6855 154.423 2.6098C154.606 2.53409 154.801 2.49512 154.999 2.49512C155.196 2.49512 155.392 2.53409 155.574 2.6098C155.756 2.6855 155.922 2.79646 156.061 2.9363L162.061 8.9363C162.343 9.21809 162.501 9.60029 162.501 9.9988C162.501 10.3973 162.343 10.7795 162.061 11.0613C161.779 11.3431 161.397 11.5014 160.999 11.5014C160.6 11.5014 160.218 11.3431 159.936 11.0613L156.5 7.62505V21C156.5 22.4587 157.079 23.8577 158.111 24.8891C159.142 25.9206 160.541 26.5 162 26.5C163.459 26.5 164.858 25.9206 165.889 24.8891C166.92 23.8577 167.5 22.4587 167.5 21V10.0001C167.5 9.60223 167.658 9.22069 167.939 8.93939C168.221 8.65809 168.602 8.50005 169 8.50005C169.398 8.50005 169.779 8.65809 170.061 8.93939C170.342 9.22069 170.5 9.60223 170.5 10.0001Z" fill="currentColor"/>
<path d="M218 9.99981V20.9998C218 23.1215 217.157 25.1564 215.657 26.6567C214.157 28.157 212.122 28.9998 210 28.9998C207.878 28.9998 205.843 28.157 204.343 26.6567C202.843 25.1564 202 23.1215 202 20.9998V10.9998H197C196.802 11 196.609 10.9414 196.444 10.8315C196.279 10.7217 196.151 10.5654 196.075 10.3826C196 10.1998 195.98 9.99859 196.019 9.8045C196.057 9.61042 196.153 9.43217 196.293 9.29231L202.293 3.29231C202.385 3.19933 202.496 3.12557 202.617 3.07525C202.739 3.02493 202.869 2.99902 203 2.99902C203.131 2.99902 203.262 3.02493 203.383 3.07525C203.504 3.12557 203.615 3.19933 203.708 3.29231L209.708 9.29231C209.848 9.43217 209.943 9.61042 209.982 9.8045C210.02 9.99859 210 10.1998 209.925 10.3826C209.849 10.5654 209.721 10.7217 209.556 10.8315C209.391 10.9414 209.198 11 209 10.9998H204V20.9998C204 22.5911 204.632 24.1172 205.757 25.2425C206.883 26.3677 208.409 26.9998 210 26.9998C211.591 26.9998 213.117 26.3677 214.243 25.2425C215.368 24.1172 216 22.5911 216 20.9998V9.99981C216 9.73459 216.105 9.48024 216.293 9.2927C216.48 9.10517 216.735 8.99981 217 8.99981C217.265 8.99981 217.52 9.10517 217.707 9.2927C217.895 9.48024 218 9.73459 218 9.99981Z" fill="currentColor"/>
<path opacity="0.2" d="M257 10H245L251 4L257 10Z" fill="currentColor"/>
<path d="M265 8.99981C264.735 8.99981 264.48 9.10517 264.293 9.2927C264.105 9.48024 264 9.73459 264 9.99981V20.9998C264 22.5911 263.368 24.1172 262.243 25.2425C261.117 26.3677 259.591 26.9998 258 26.9998C256.409 26.9998 254.883 26.3677 253.757 25.2425C252.632 24.1172 252 22.5911 252 20.9998V10.9998H257C257.198 11 257.391 10.9414 257.556 10.8315C257.721 10.7217 257.849 10.5654 257.925 10.3826C258 10.1998 258.02 9.99859 257.982 9.8045C257.943 9.61042 257.848 9.43217 257.708 9.29231L251.708 3.29231C251.615 3.19933 251.504 3.12557 251.383 3.07525C251.262 3.02493 251.131 2.99902 251 2.99902C250.869 2.99902 250.739 3.02493 250.617 3.07525C250.496 3.12557 250.385 3.19933 250.293 3.29231L244.293 9.29231C244.153 9.43217 244.057 9.61042 244.019 9.8045C243.98 9.99859 244 10.1998 244.075 10.3826C244.151 10.5654 244.279 10.7217 244.444 10.8315C244.609 10.9414 244.802 11 245 10.9998H250V20.9998C250 23.1215 250.843 25.1564 252.343 26.6567C253.843 28.157 255.878 28.9998 258 28.9998C260.122 28.9998 262.157 28.157 263.657 26.6567C265.157 25.1564 266 23.1215 266 20.9998V9.99981C266 9.73459 265.895 9.48024 265.707 9.2927C265.52 9.10517 265.265 8.99981 265 8.99981ZM251 5.41356L254.586 8.99981H247.414L251 5.41356Z" fill="currentColor"/>
</g>
<defs>
<clipPath id="clip0_17_6212">
<rect width="272" height="32" rx="5" fill="white"/>
</clipPath>
</defs>
</svg>
