<svg width="272" height="32" viewBox="0 0 272 32" fill="none" xmlns="http://www.w3.org/2000/svg">
<g clip-path="url(#clip0_17_6338)">
<path d="M26 4H6C5.46957 4 4.96086 4.21071 4.58579 4.58579C4.21071 4.96086 4 5.46957 4 6V26C4 26.5304 4.21071 27.0391 4.58579 27.4142C4.96086 27.7893 5.46957 28 6 28H26C26.5304 28 27.0391 27.7893 27.4142 27.4142C27.7893 27.0391 28 26.5304 28 26V6C28 5.46957 27.7893 4.96086 27.4142 4.58579C27.0391 4.21071 26.5304 4 26 4ZM26 26H6V6H26V26ZM10.2925 16.7075C10.1995 16.6146 10.1258 16.5043 10.0754 16.3829C10.0251 16.2615 9.99921 16.1314 9.99921 16C9.99921 15.8686 10.0251 15.7385 10.0754 15.6171C10.1258 15.4957 10.1995 15.3854 10.2925 15.2925L14.2925 11.2925C14.4801 11.1049 14.7346 10.9994 15 10.9994C15.2654 10.9994 15.5199 11.1049 15.7075 11.2925C15.8951 11.4801 16.0006 11.7346 16.0006 12C16.0006 12.2654 15.8951 12.5199 15.7075 12.7075L13.4137 15H21C21.2652 15 21.5196 15.1054 21.7071 15.2929C21.8946 15.4804 22 15.7348 22 16C22 16.2652 21.8946 16.5196 21.7071 16.7071C21.5196 16.8946 21.2652 17 21 17H13.4137L15.7075 19.2925C15.8004 19.3854 15.8741 19.4957 15.9244 19.6171C15.9747 19.7385 16.0006 19.8686 16.0006 20C16.0006 20.1314 15.9747 20.2615 15.9244 20.3829C15.8741 20.5043 15.8004 20.6146 15.7075 20.7075C15.6146 20.8004 15.5043 20.8741 15.3829 20.9244C15.2615 20.9747 15.1314 21.0006 15 21.0006C14.8686 21.0006 14.7385 20.9747 14.6171 20.9244C14.4957 20.8741 14.3854 20.8004 14.2925 20.7075L10.2925 16.7075Z" fill="currentColor"/>
<path d="M74 4.5H54C53.6022 4.5 53.2206 4.65804 52.9393 4.93934C52.658 5.22064 52.5 5.60218 52.5 6V26C52.5 26.3978 52.658 26.7794 52.9393 27.0607C53.2206 27.342 53.6022 27.5 54 27.5H74C74.3978 27.5 74.7794 27.342 75.0607 27.0607C75.342 26.7794 75.5 26.3978 75.5 26V6C75.5 5.60218 75.342 5.22064 75.0607 4.93934C74.7794 4.65804 74.3978 4.5 74 4.5ZM74.5 26C74.5 26.1326 74.4473 26.2598 74.3536 26.3536C74.2598 26.4473 74.1326 26.5 74 26.5H54C53.8674 26.5 53.7402 26.4473 53.6464 26.3536C53.5527 26.2598 53.5 26.1326 53.5 26V6C53.5 5.86739 53.5527 5.74021 53.6464 5.64645C53.7402 5.55268 53.8674 5.5 54 5.5H74C74.1326 5.5 74.2598 5.55268 74.3536 5.64645C74.4473 5.74021 74.5 5.86739 74.5 6V26ZM69.5 16C69.5 16.1326 69.4473 16.2598 69.3536 16.3536C69.2598 16.4473 69.1326 16.5 69 16.5H60.2075L63.3538 19.6462C63.4476 19.7401 63.5003 19.8673 63.5003 20C63.5003 20.1327 63.4476 20.2599 63.3538 20.3538C63.2599 20.4476 63.1327 20.5003 63 20.5003C62.8673 20.5003 62.7401 20.4476 62.6462 20.3538L58.6462 16.3538C58.5998 16.3073 58.5629 16.2522 58.5377 16.1915C58.5126 16.1308 58.4996 16.0657 58.4996 16C58.4996 15.9343 58.5126 15.8692 58.5377 15.8085C58.5629 15.7478 58.5998 15.6927 58.6462 15.6462L62.6462 11.6462C62.7401 11.5524 62.8673 11.4997 63 11.4997C63.1327 11.4997 63.2599 11.5524 63.3538 11.6462C63.4476 11.7401 63.5003 11.8673 63.5003 12C63.5003 12.1327 63.4476 12.2599 63.3538 12.3538L60.2075 15.5H69C69.1326 15.5 69.2598 15.5527 69.3536 15.6464C69.4473 15.7402 69.5 15.8674 69.5 16Z" fill="currentColor"/>
<path d="M122 4.25H102C101.536 4.25 101.091 4.43437 100.763 4.76256C100.434 5.09075 100.25 5.53587 100.25 6V26C100.25 26.4641 100.434 26.9092 100.763 27.2374C101.091 27.5656 101.536 27.75 102 27.75H122C122.464 27.75 122.909 27.5656 123.237 27.2374C123.566 26.9092 123.75 26.4641 123.75 26V6C123.75 5.53587 123.566 5.09075 123.237 4.76256C122.909 4.43437 122.464 4.25 122 4.25ZM122.25 26C122.25 26.0663 122.224 26.1299 122.177 26.1768C122.13 26.2237 122.066 26.25 122 26.25H102C101.934 26.25 101.87 26.2237 101.823 26.1768C101.776 26.1299 101.75 26.0663 101.75 26V6C101.75 5.9337 101.776 5.87011 101.823 5.82322C101.87 5.77634 101.934 5.75 102 5.75H122C122.066 5.75 122.13 5.77634 122.177 5.82322C122.224 5.87011 122.25 5.9337 122.25 6V26ZM117.75 16C117.75 16.1989 117.671 16.3897 117.53 16.5303C117.39 16.671 117.199 16.75 117 16.75H108.811L111.53 19.47C111.604 19.5387 111.663 19.6215 111.704 19.7135C111.745 19.8055 111.767 19.9048 111.769 20.0055C111.77 20.1062 111.752 20.2062 111.714 20.2996C111.676 20.393 111.62 20.4778 111.549 20.549C111.478 20.6203 111.393 20.6764 111.3 20.7141C111.206 20.7518 111.106 20.7704 111.005 20.7686C110.905 20.7668 110.805 20.7448 110.713 20.7038C110.621 20.6628 110.539 20.6037 110.47 20.53L106.47 16.53C106.33 16.3894 106.251 16.1988 106.251 16C106.251 15.8012 106.33 15.6106 106.47 15.47L110.47 11.47C110.612 11.3375 110.8 11.2654 110.995 11.2688C111.189 11.2723 111.374 11.351 111.512 11.4884C111.649 11.6258 111.728 11.8112 111.731 12.0055C111.735 12.1998 111.662 12.3878 111.53 12.53L108.811 15.25H117C117.199 15.25 117.39 15.329 117.53 15.4697C117.671 15.6103 117.75 15.8011 117.75 16Z" fill="currentColor"/>
<path d="M170 3.5H150C149.337 3.5 148.701 3.76339 148.232 4.23223C147.763 4.70107 147.5 5.33696 147.5 6V26C147.5 26.663 147.763 27.2989 148.232 27.7678C148.701 28.2366 149.337 28.5 150 28.5H170C170.663 28.5 171.299 28.2366 171.768 27.7678C172.237 27.2989 172.5 26.663 172.5 26V6C172.5 5.33696 172.237 4.70107 171.768 4.23223C171.299 3.76339 170.663 3.5 170 3.5ZM169.5 25.5H150.5V6.5H169.5V25.5ZM153.939 17.0613C153.799 16.9219 153.688 16.7563 153.612 16.574C153.537 16.3917 153.498 16.1962 153.498 15.9987C153.498 15.8013 153.537 15.6058 153.612 15.4235C153.688 15.2412 153.799 15.0756 153.939 14.9362L157.939 10.9362C158.221 10.6545 158.603 10.4961 159.001 10.4961C159.4 10.4961 159.782 10.6545 160.064 10.9362C160.346 11.218 160.504 11.6002 160.504 11.9987C160.504 12.3973 160.346 12.7795 160.064 13.0612L158.625 14.5H165C165.398 14.5 165.779 14.658 166.061 14.9393C166.342 15.2206 166.5 15.6022 166.5 16C166.5 16.3978 166.342 16.7794 166.061 17.0607C165.779 17.342 165.398 17.5 165 17.5H158.625L160.065 18.9387C160.347 19.2205 160.505 19.6027 160.505 20.0012C160.505 20.3998 160.347 20.782 160.065 21.0637C159.783 21.3455 159.401 21.5039 159.002 21.5039C158.604 21.5039 158.222 21.3455 157.94 21.0637L153.939 17.0613Z" fill="currentColor"/>
<path d="M218 4H198C197.47 4 196.961 4.21071 196.586 4.58579C196.211 4.96086 196 5.46957 196 6V26C196 26.5304 196.211 27.0391 196.586 27.4142C196.961 27.7893 197.47 28 198 28H218C218.53 28 219.039 27.7893 219.414 27.4142C219.789 27.0391 220 26.5304 220 26V6C220 5.46957 219.789 4.96086 219.414 4.58579C219.039 4.21071 218.53 4 218 4ZM213 17H205.414L207.708 19.2925C207.8 19.3854 207.874 19.4957 207.924 19.6171C207.975 19.7385 208.001 19.8686 208.001 20C208.001 20.1314 207.975 20.2615 207.924 20.3829C207.874 20.5043 207.8 20.6146 207.708 20.7075C207.615 20.8004 207.504 20.8741 207.383 20.9244C207.262 20.9747 207.131 21.0006 207 21.0006C206.869 21.0006 206.738 20.9747 206.617 20.9244C206.496 20.8741 206.385 20.8004 206.292 20.7075L202.292 16.7075C202.2 16.6146 202.126 16.5043 202.075 16.3829C202.025 16.2615 201.999 16.1314 201.999 16C201.999 15.8686 202.025 15.7385 202.075 15.6171C202.126 15.4957 202.2 15.3854 202.292 15.2925L206.292 11.2925C206.48 11.1049 206.735 10.9994 207 10.9994C207.265 10.9994 207.52 11.1049 207.708 11.2925C207.895 11.4801 208.001 11.7346 208.001 12C208.001 12.2654 207.895 12.5199 207.708 12.7075L205.414 15H213C213.265 15 213.52 15.1054 213.707 15.2929C213.895 15.4804 214 15.7348 214 16C214 16.2652 213.895 16.5196 213.707 16.7071C213.52 16.8946 213.265 17 213 17Z" fill="currentColor"/>
<path opacity="0.2" d="M267 6V26C267 26.2652 266.895 26.5196 266.707 26.7071C266.52 26.8946 266.265 27 266 27H246C245.735 27 245.48 26.8946 245.293 26.7071C245.105 26.5196 245 26.2652 245 26V6C245 5.73478 245.105 5.48043 245.293 5.29289C245.48 5.10536 245.735 5 246 5H266C266.265 5 266.52 5.10536 266.707 5.29289C266.895 5.48043 267 5.73478 267 6Z" fill="currentColor"/>
<path d="M266 4H246C245.47 4 244.961 4.21071 244.586 4.58579C244.211 4.96086 244 5.46957 244 6V26C244 26.5304 244.211 27.0391 244.586 27.4142C244.961 27.7893 245.47 28 246 28H266C266.53 28 267.039 27.7893 267.414 27.4142C267.789 27.0391 268 26.5304 268 26V6C268 5.46957 267.789 4.96086 267.414 4.58579C267.039 4.21071 266.53 4 266 4ZM266 26H246V6H266V26ZM250.292 16.7075C250.2 16.6146 250.126 16.5043 250.075 16.3829C250.025 16.2615 249.999 16.1314 249.999 16C249.999 15.8686 250.025 15.7385 250.075 15.6171C250.126 15.4957 250.2 15.3854 250.292 15.2925L254.292 11.2925C254.48 11.1049 254.735 10.9994 255 10.9994C255.265 10.9994 255.52 11.1049 255.708 11.2925C255.895 11.4801 256.001 11.7346 256.001 12C256.001 12.2654 255.895 12.5199 255.708 12.7075L253.414 15H261C261.265 15 261.52 15.1054 261.707 15.2929C261.895 15.4804 262 15.7348 262 16C262 16.2652 261.895 16.5196 261.707 16.7071C261.52 16.8946 261.265 17 261 17H253.414L255.708 19.2925C255.8 19.3854 255.874 19.4957 255.924 19.6171C255.975 19.7385 256.001 19.8686 256.001 20C256.001 20.1314 255.975 20.2615 255.924 20.3829C255.874 20.5043 255.8 20.6146 255.708 20.7075C255.615 20.8004 255.504 20.8741 255.383 20.9244C255.262 20.9747 255.131 21.0006 255 21.0006C254.869 21.0006 254.738 20.9747 254.617 20.9244C254.496 20.8741 254.385 20.8004 254.292 20.7075L250.292 16.7075Z" fill="currentColor"/>
</g>
<defs>
<clipPath id="clip0_17_6338">
<rect width="272" height="32" rx="5" fill="white"/>
</clipPath>
</defs>
</svg>
