<svg width="272" height="32" viewBox="0 0 272 32" fill="none" xmlns="http://www.w3.org/2000/svg">
<g clip-path="url(#clip0_17_6856)">
<path d="M25.0001 10.9999V23.9999C25.0001 24.2652 24.8947 24.5195 24.7072 24.7071C24.5196 24.8946 24.2653 24.9999 24.0001 24.9999H11.0001C10.7349 24.9999 10.4805 24.8946 10.293 24.7071C10.1054 24.5195 10.0001 24.2652 10.0001 23.9999C10.0001 23.7347 10.1054 23.4804 10.293 23.2928C10.4805 23.1053 10.7349 22.9999 11.0001 22.9999H21.5863L7.29257 8.70745C7.10493 8.51981 6.99951 8.26531 6.99951 7.99995C6.99951 7.73458 7.10493 7.48009 7.29257 7.29245C7.48021 7.1048 7.7347 6.99939 8.00007 6.99939C8.26543 6.99939 8.51993 7.1048 8.70757 7.29245L23.0001 21.5862V10.9999C23.0001 10.7347 23.1054 10.4804 23.293 10.2928C23.4805 10.1053 23.7349 9.99995 24.0001 9.99995C24.2653 9.99995 24.5196 10.1053 24.7072 10.2928C24.8947 10.4804 25.0001 10.7347 25.0001 10.9999Z" fill="currentColor"/>
<path d="M72.5 11V24C72.5 24.1326 72.4474 24.2598 72.3536 24.3536C72.2598 24.4474 72.1326 24.5 72 24.5H59C58.8674 24.5 58.7402 24.4474 58.6465 24.3536C58.5527 24.2598 58.5 24.1326 58.5 24C58.5 23.8674 58.5527 23.7402 58.6465 23.6465C58.7402 23.5527 58.8674 23.5 59 23.5H70.7925L55.6463 8.35378C55.5525 8.25996 55.4998 8.13272 55.4998 8.00003C55.4998 7.86735 55.5525 7.7401 55.6463 7.64628C55.7401 7.55246 55.8674 7.49976 56 7.49976C56.1327 7.49976 56.26 7.55246 56.3538 7.64628L71.5 22.7925V11C71.5 10.8674 71.5527 10.7402 71.6465 10.6465C71.7402 10.5527 71.8674 10.5 72 10.5C72.1326 10.5 72.2598 10.5527 72.3536 10.6465C72.4474 10.7402 72.5 10.8674 72.5 11Z" fill="currentColor"/>
<path d="M120.75 11V24C120.75 24.1989 120.671 24.3896 120.53 24.5303C120.39 24.671 120.199 24.75 120 24.75H107C106.801 24.75 106.61 24.671 106.47 24.5303C106.329 24.3896 106.25 24.1989 106.25 24C106.25 23.8011 106.329 23.6103 106.47 23.4696C106.61 23.329 106.801 23.25 107 23.25H118.19L103.47 8.52997C103.338 8.38779 103.265 8.19975 103.269 8.00545C103.272 7.81115 103.351 7.62576 103.488 7.48835C103.626 7.35093 103.811 7.27222 104.006 7.26879C104.2 7.26537 104.388 7.33749 104.53 7.46997L119.25 22.19V11C119.25 10.8011 119.329 10.6103 119.47 10.4696C119.61 10.329 119.801 10.25 120 10.25C120.199 10.25 120.39 10.329 120.53 10.4696C120.671 10.6103 120.75 10.8011 120.75 11Z" fill="currentColor"/>
<path d="M169.5 11V24C169.5 24.3978 169.342 24.7793 169.061 25.0606C168.779 25.3419 168.398 25.5 168 25.5H155C154.602 25.5 154.221 25.3419 153.939 25.0606C153.658 24.7793 153.5 24.3978 153.5 24C153.5 23.6021 153.658 23.2206 153.939 22.9393C154.221 22.658 154.602 22.5 155 22.5H164.375L150.939 9.05998C150.799 8.92045 150.688 8.7548 150.613 8.5725C150.537 8.39019 150.499 8.1948 150.499 7.99747C150.499 7.59896 150.657 7.21677 150.939 6.93497C151.22 6.65318 151.603 6.49487 152.001 6.49487C152.4 6.49487 152.782 6.65318 153.064 6.93497L166.5 20.375V11C166.5 10.6021 166.658 10.2206 166.939 9.93931C167.221 9.65801 167.602 9.49997 168 9.49997C168.398 9.49997 168.779 9.65801 169.061 9.93931C169.342 10.2206 169.5 10.6021 169.5 11Z" fill="currentColor"/>
<path d="M217 10.9999V23.9999C217 24.2652 216.895 24.5195 216.707 24.7071C216.52 24.8946 216.265 24.9999 216 24.9999H203C202.802 25.0001 202.609 24.9415 202.444 24.8317C202.279 24.7218 202.151 24.5656 202.075 24.3827C202 24.1999 201.98 23.9987 202.019 23.8046C202.057 23.6106 202.153 23.4323 202.293 23.2924L208.086 17.4999L199.293 8.70745C199.105 8.51981 199 8.26531 199 7.99995C199 7.73458 199.105 7.48009 199.293 7.29245C199.48 7.1048 199.735 6.99939 200 6.99939C200.265 6.99939 200.52 7.1048 200.708 7.29245L209.5 16.0862L215.293 10.2924C215.432 10.1524 215.611 10.0571 215.805 10.0184C215.999 9.97977 216.2 9.99957 216.383 10.0753C216.566 10.1511 216.722 10.2794 216.832 10.444C216.942 10.6086 217 10.802 217 10.9999Z" fill="currentColor"/>
<path opacity="0.2" d="M264 11V24H251L264 11Z" fill="currentColor"/>
<path d="M264.383 10.0762C264.2 10.0004 263.999 9.98049 263.805 10.019C263.611 10.0575 263.432 10.1526 263.293 10.2924L257.5 16.0862L248.708 7.29245C248.52 7.1048 248.265 6.99939 248 6.99939C247.735 6.99939 247.48 7.1048 247.293 7.29245C247.105 7.48009 247 7.73458 247 7.99995C247 8.26531 247.105 8.51981 247.293 8.70745L256.086 17.4999L250.293 23.2924C250.153 23.4323 250.057 23.6106 250.019 23.8046C249.98 23.9987 250 24.1999 250.075 24.3827C250.151 24.5656 250.279 24.7218 250.444 24.8317C250.609 24.9415 250.802 25.0001 251 24.9999H264C264.265 24.9999 264.52 24.8946 264.707 24.7071C264.895 24.5195 265 24.2652 265 23.9999V10.9999C265 10.8022 264.941 10.6088 264.831 10.4444C264.722 10.28 264.565 10.1518 264.383 10.0762ZM263 22.9999H253.414L258.206 18.2074L263 13.4137V22.9999Z" fill="currentColor"/>
</g>
<defs>
<clipPath id="clip0_17_6856">
<rect width="272" height="32" rx="5" fill="white"/>
</clipPath>
</defs>
</svg>
