<svg width="272" height="32" viewBox="0 0 272 32" fill="none" xmlns="http://www.w3.org/2000/svg">
<g clip-path="url(#clip0_17_7178)">
<path d="M30 11V19C30 19.2652 29.8946 19.5196 29.7071 19.7071C29.5196 19.8946 29.2652 20 29 20H21C20.7348 20 20.4804 19.8946 20.2929 19.7071C20.1054 19.5196 20 19.2652 20 19C20 18.7348 20.1054 18.4804 20.2929 18.2929C20.4804 18.1054 20.7348 18 21 18H26.575L23.78 15.2238C22.2418 13.6849 20.2818 12.6367 18.1479 12.2118C16.014 11.787 13.802 12.0045 11.7917 12.8369C9.78144 13.6693 8.06317 15.0792 6.85423 16.8882C5.6453 18.6973 5.00002 20.8242 5 23C5 23.2652 4.89464 23.5196 4.70711 23.7071C4.51957 23.8946 4.26522 24 4 24C3.73478 24 3.48043 23.8946 3.29289 23.7071C3.10536 23.5196 3 23.2652 3 23C2.99996 20.4288 3.76237 17.9154 5.19082 15.7775C6.61928 13.6396 8.64962 11.9733 11.0251 10.9894C13.4006 10.0054 16.0145 9.74795 18.5362 10.2496C21.058 10.7512 23.3744 11.9894 25.1925 13.8075L28 16.5963V11C28 10.7348 28.1054 10.4804 28.2929 10.2929C28.4804 10.1054 28.7348 10 29 10C29.2652 10 29.5196 10.1054 29.7071 10.2929C29.8946 10.4804 30 10.7348 30 11Z" fill="currentColor"/>
<path d="M77.5 11V19C77.5 19.1326 77.4473 19.2598 77.3536 19.3536C77.2598 19.4473 77.1326 19.5 77 19.5H69C68.8674 19.5 68.7402 19.4473 68.6464 19.3536C68.5527 19.2598 68.5 19.1326 68.5 19C68.5 18.8674 68.5527 18.7402 68.6464 18.6464C68.7402 18.5527 68.8674 18.5 69 18.5H75.7875L72.1325 14.875C70.5246 13.2668 68.4761 12.1715 66.2458 11.7274C64.0155 11.2833 61.7036 11.5104 59.6024 12.38C57.5012 13.2496 55.7049 14.7227 54.4407 16.613C53.1765 18.5033 52.5012 20.7259 52.5 23C52.5 23.1326 52.4473 23.2598 52.3536 23.3536C52.2598 23.4473 52.1326 23.5 52 23.5C51.8674 23.5 51.7402 23.4473 51.6464 23.3536C51.5527 23.2598 51.5 23.1326 51.5 23C51.5 20.5278 52.2332 18.111 53.6067 16.0555C54.9802 13.9999 56.9324 12.3977 59.2165 11.4517C61.5005 10.5056 64.0138 10.258 66.4386 10.7403C68.8633 11.2226 71.0906 12.4131 72.8388 14.1613L76.5 17.7987V11C76.5 10.8674 76.5527 10.7402 76.6464 10.6464C76.7402 10.5527 76.8674 10.5 77 10.5C77.1326 10.5 77.2598 10.5527 77.3536 10.6464C77.4473 10.7402 77.5 10.8674 77.5 11Z" fill="currentColor"/>
<path d="M125.75 11V19C125.75 19.1989 125.671 19.3897 125.53 19.5303C125.39 19.671 125.199 19.75 125 19.75H117C116.801 19.75 116.61 19.671 116.47 19.5303C116.329 19.3897 116.25 19.1989 116.25 19C116.25 18.8011 116.329 18.6103 116.47 18.4697C116.61 18.329 116.801 18.25 117 18.25H123.181L119.956 15.0463C118.383 13.4725 116.378 12.4007 114.196 11.9663C112.014 11.532 109.752 11.7545 107.696 12.6059C105.64 13.4573 103.883 14.8993 102.646 16.7494C101.41 18.5996 100.75 20.7748 100.75 23C100.75 23.1989 100.671 23.3897 100.53 23.5303C100.39 23.671 100.199 23.75 100 23.75C99.8011 23.75 99.6103 23.671 99.4697 23.5303C99.329 23.3897 99.25 23.1989 99.25 23C99.2502 20.4785 99.9981 18.0136 101.399 15.9171C102.8 13.8206 104.791 12.1866 107.121 11.2217C109.451 10.2568 112.014 10.0043 114.487 10.4961C116.96 10.988 119.232 12.2021 121.015 13.985L124.25 17.1975V11C124.25 10.8011 124.329 10.6103 124.47 10.4697C124.61 10.329 124.801 10.25 125 10.25C125.199 10.25 125.39 10.329 125.53 10.4697C125.671 10.6103 125.75 10.8011 125.75 11Z" fill="currentColor"/>
<path d="M174.5 11V19C174.5 19.3978 174.342 19.7794 174.061 20.0607C173.779 20.342 173.398 20.5 173 20.5H165C164.602 20.5 164.221 20.342 163.939 20.0607C163.658 19.7794 163.5 19.3978 163.5 19C163.5 18.6022 163.658 18.2206 163.939 17.9393C164.221 17.658 164.602 17.5 165 17.5H169.362L167.427 15.5787C165.959 14.1095 164.089 13.1087 162.052 12.7029C160.015 12.297 157.903 12.5045 155.984 13.2989C154.065 14.0933 152.424 15.439 151.27 17.1658C150.116 18.8927 149.5 20.923 149.5 23C149.5 23.3978 149.342 23.7794 149.061 24.0607C148.779 24.342 148.398 24.5 148 24.5C147.602 24.5 147.221 24.342 146.939 24.0607C146.658 23.7794 146.5 23.3978 146.5 23C146.5 20.3299 147.292 17.7197 148.775 15.4995C150.258 13.2793 152.367 11.5489 154.834 10.527C157.301 9.50521 160.015 9.23786 162.634 9.75881C165.253 10.2798 167.658 11.5656 169.546 13.4537L171.5 15.395V11C171.5 10.6022 171.658 10.2206 171.939 9.93934C172.221 9.65803 172.602 9.5 173 9.5C173.398 9.5 173.779 9.65803 174.061 9.93934C174.342 10.2206 174.5 10.6022 174.5 11Z" fill="currentColor"/>
<path d="M222 11V19C222 19.2652 221.895 19.5196 221.707 19.7071C221.52 19.8946 221.265 20 221 20H213C212.802 20.0001 212.609 19.9416 212.444 19.8317C212.279 19.7218 212.151 19.5656 212.075 19.3828C212 19.2 211.98 18.9988 212.018 18.8047C212.057 18.6106 212.152 18.4323 212.292 18.2925L215.566 15.02C214.006 13.5411 212.046 12.552 209.929 12.1749C207.812 11.7979 205.632 12.0494 203.656 12.8984C201.681 13.7474 199.998 15.1567 198.815 16.952C197.632 18.7473 197.001 20.85 197 23C197 23.2652 196.895 23.5196 196.707 23.7071C196.52 23.8946 196.265 24 196 24C195.735 24 195.48 23.8946 195.293 23.7071C195.105 23.5196 195 23.2652 195 23C195 20.4538 195.748 17.9637 197.15 15.8387C198.553 13.7138 200.549 12.0474 202.89 11.0466C205.231 10.0457 207.815 9.75439 210.32 10.2088C212.825 10.6631 215.142 11.8432 216.983 13.6025L220.292 10.2925C220.432 10.1525 220.611 10.0571 220.805 10.0185C220.999 9.97981 221.2 9.99962 221.383 10.0754C221.566 10.1511 221.722 10.2794 221.832 10.444C221.942 10.6086 222 10.8021 222 11Z" fill="currentColor"/>
<path opacity="0.2" d="M269 11V19H261L269 11Z" fill="currentColor"/>
<path d="M269.382 10.0762C269.2 10.0004 268.999 9.98053 268.805 10.019C268.611 10.0575 268.432 10.1527 268.292 10.2925L264.983 13.6037C263.142 11.8445 260.825 10.6645 258.32 10.2101C255.815 9.75565 253.232 10.0469 250.89 11.0476C248.549 12.0483 246.554 13.7144 245.151 15.8392C243.748 17.964 243 20.4539 243 23C243 23.2652 243.105 23.5196 243.293 23.7071C243.48 23.8946 243.735 24 244 24C244.265 24 244.52 23.8946 244.707 23.7071C244.895 23.5196 245 23.2652 245 23C245.001 20.85 245.632 18.7473 246.815 16.952C247.998 15.1567 249.681 13.7474 251.656 12.8984C253.632 12.0494 255.812 11.7979 257.929 12.1749C260.046 12.552 262.006 13.5411 263.566 15.02L260.292 18.2925C260.152 18.4323 260.057 18.6106 260.018 18.8047C259.98 18.9988 260 19.2 260.075 19.3828C260.151 19.5656 260.279 19.7218 260.444 19.8317C260.609 19.9416 260.802 20.0001 261 20H269C269.265 20 269.52 19.8946 269.707 19.7071C269.895 19.5196 270 19.2652 270 19V11C270 10.8022 269.941 10.6089 269.831 10.4445C269.721 10.28 269.565 10.1519 269.382 10.0762ZM268 18H263.414L268 13.4137V18Z" fill="currentColor"/>
</g>
<defs>
<clipPath id="clip0_17_7178">
<rect width="272" height="32" rx="5" fill="white"/>
</clipPath>
</defs>
</svg>
