<svg width="272" height="32" viewBox="0 0 272 32" fill="none" xmlns="http://www.w3.org/2000/svg">
<g clip-path="url(#clip0_17_6170)">
<path d="M29.0001 18.0001C28.9977 20.1211 28.1541 22.1546 26.6544 23.6544C25.1546 25.1542 23.1211 25.9978 21.0001 26.0001H10.0001C9.73484 26.0001 9.48048 25.8947 9.29295 25.7072C9.10541 25.5196 9.00005 25.2653 9.00005 25.0001C9.00005 24.7349 9.10541 24.4805 9.29295 24.293C9.48048 24.1054 9.73484 24.0001 10.0001 24.0001H21.0001C22.5914 24.0001 24.1175 23.3679 25.2427 22.2427C26.3679 21.1175 27.0001 19.5914 27.0001 18.0001C27.0001 16.4088 26.3679 14.8826 25.2427 13.7574C24.1175 12.6322 22.5914 12.0001 21.0001 12.0001H6.4138L10.7076 16.2926C10.8952 16.4802 11.0006 16.7347 11.0006 17.0001C11.0006 17.2654 10.8952 17.5199 10.7076 17.7076C10.5199 17.8952 10.2654 18.0006 10.0001 18.0006C9.73469 18.0006 9.48019 17.8952 9.29255 17.7076L3.29255 11.7076C3.19958 11.6147 3.12582 11.5044 3.07549 11.383C3.02517 11.2616 2.99927 11.1315 2.99927 11.0001C2.99927 10.8687 3.02517 10.7385 3.07549 10.6171C3.12582 10.4957 3.19958 10.3854 3.29255 10.2926L9.29255 4.29257C9.48019 4.10493 9.73469 3.99951 10.0001 3.99951C10.2654 3.99951 10.5199 4.10493 10.7076 4.29257C10.8952 4.48021 11.0006 4.7347 11.0006 5.00007C11.0006 5.26543 10.8952 5.51993 10.7076 5.70757L6.4138 10.0001H21.0001C23.1211 10.0024 25.1546 10.846 26.6544 12.3458C28.1541 13.8456 28.9977 15.879 29.0001 18.0001Z" fill="currentColor"/>
<path d="M76.4999 17.9998C76.4976 19.9882 75.7067 21.8945 74.3006 23.3005C72.8946 24.7066 70.9883 25.4975 68.9999 25.4998H57.9999C57.8673 25.4998 57.7401 25.4471 57.6464 25.3533C57.5526 25.2596 57.4999 25.1324 57.4999 24.9998C57.4999 24.8672 57.5526 24.74 57.6464 24.6462C57.7401 24.5525 57.8673 24.4998 57.9999 24.4998H68.9999C70.7238 24.4998 72.3771 23.815 73.5961 22.596C74.8151 21.377 75.4999 19.7237 75.4999 17.9998C75.4999 16.2759 74.8151 14.6226 73.5961 13.4036C72.3771 12.1846 70.7238 11.4998 68.9999 11.4998H53.2074L58.3537 16.646C58.4475 16.7399 58.5002 16.8671 58.5002 16.9998C58.5002 17.1325 58.4475 17.2597 58.3537 17.3535C58.2598 17.4474 58.1326 17.5001 57.9999 17.5001C57.8672 17.5001 57.74 17.4474 57.6462 17.3535L51.6462 11.3535C51.5997 11.3071 51.5628 11.252 51.5376 11.1913C51.5125 11.1306 51.4995 11.0655 51.4995 10.9998C51.4995 10.9341 51.5125 10.869 51.5376 10.8083C51.5628 10.7476 51.5997 10.6925 51.6462 10.646L57.6462 4.64604C57.74 4.55222 57.8672 4.49951 57.9999 4.49951C58.1326 4.49951 58.2598 4.55222 58.3537 4.64604C58.4475 4.73986 58.5002 4.86711 58.5002 4.99979C58.5002 5.13247 58.4475 5.25972 58.3537 5.35354L53.2074 10.4998H68.9999C70.9883 10.5021 72.8946 11.293 74.3006 12.699C75.7067 14.1051 76.4976 16.0114 76.4999 17.9998Z" fill="currentColor"/>
<path d="M124.75 17.9998C124.748 20.0546 123.93 22.0245 122.478 23.4774C121.025 24.9303 119.055 25.7475 117 25.7498H106C105.801 25.7498 105.61 25.6708 105.47 25.5302C105.329 25.3895 105.25 25.1988 105.25 24.9998C105.25 24.8009 105.329 24.6102 105.47 24.4695C105.61 24.3289 105.801 24.2498 106 24.2498H117C118.658 24.2498 120.247 23.5914 121.419 22.4193C122.592 21.2472 123.25 19.6574 123.25 17.9998C123.25 16.3422 122.592 14.7525 121.419 13.5804C120.247 12.4083 118.658 11.7498 117 11.7498H101.811L106.53 16.4698C106.604 16.5385 106.663 16.6213 106.704 16.7133C106.745 16.8053 106.767 16.9046 106.769 17.0053C106.77 17.106 106.752 17.2061 106.714 17.2994C106.676 17.3928 106.62 17.4777 106.549 17.5489C106.478 17.6201 106.393 17.6762 106.3 17.714C106.206 17.7517 106.106 17.7702 106.006 17.7684C105.905 17.7667 105.806 17.7446 105.714 17.7036C105.622 17.6626 105.539 17.6035 105.47 17.5298L99.4701 11.5298C99.3296 11.3892 99.2507 11.1986 99.2507 10.9998C99.2507 10.8011 99.3296 10.6105 99.4701 10.4698L105.47 4.46985C105.612 4.33737 105.8 4.26524 105.995 4.26867C106.189 4.2721 106.374 4.35081 106.512 4.48822C106.649 4.62564 106.728 4.81102 106.731 5.00532C106.735 5.19963 106.663 5.38767 106.53 5.52985L101.811 10.2498H117C119.055 10.2522 121.025 11.0694 122.478 12.5223C123.93 13.9752 124.748 15.9451 124.75 17.9998Z" fill="currentColor"/>
<path d="M173.5 17.9999C173.498 20.2535 172.601 22.4142 171.008 24.0077C169.414 25.6013 167.254 26.4976 165 26.4999H154C153.602 26.4999 153.221 26.3419 152.939 26.0605C152.658 25.7792 152.5 25.3977 152.5 24.9999C152.5 24.6021 152.658 24.2205 152.939 23.9392C153.221 23.6579 153.602 23.4999 154 23.4999H165C166.459 23.4999 167.858 22.9204 168.889 21.889C169.92 20.8575 170.5 19.4586 170.5 17.9999C170.5 16.5412 169.92 15.1423 168.889 14.1108C167.858 13.0793 166.459 12.4999 165 12.4999H151.625L155.065 15.9386C155.347 16.2204 155.505 16.6026 155.505 17.0011C155.505 17.3997 155.347 17.7818 155.065 18.0636C154.783 18.3454 154.401 18.5037 154.002 18.5037C153.604 18.5037 153.222 18.3454 152.94 18.0636L146.94 12.0636C146.8 11.9243 146.689 11.7587 146.613 11.5764C146.538 11.394 146.499 11.1986 146.499 11.0011C146.499 10.8037 146.538 10.6082 146.613 10.4259C146.689 10.2436 146.8 10.078 146.94 9.93864L152.94 3.93864C153.222 3.65684 153.604 3.49854 154.002 3.49854C154.401 3.49854 154.783 3.65684 155.065 3.93864C155.347 4.22043 155.505 4.60262 155.505 5.00114C155.505 5.39965 155.347 5.78184 155.065 6.06364L151.625 9.49989H165C167.253 9.50253 169.414 10.3989 171.007 11.9924C172.601 13.5859 173.497 15.7464 173.5 17.9999Z" fill="currentColor"/>
<path d="M221 17.9998C220.998 20.1208 220.154 22.1543 218.654 23.6541C217.155 25.1539 215.121 25.9975 213 25.9998H202C201.735 25.9998 201.48 25.8945 201.293 25.7069C201.105 25.5194 201 25.265 201 24.9998C201 24.7346 201.105 24.4802 201.293 24.2927C201.48 24.1052 201.735 23.9998 202 23.9998H213C214.591 23.9998 216.117 23.3677 217.243 22.2425C218.368 21.1172 219 19.5911 219 17.9998C219 16.4085 218.368 14.8824 217.243 13.7572C216.117 12.632 214.591 11.9998 213 11.9998H203V16.9998C203 17.1977 202.942 17.3912 202.832 17.5558C202.722 17.7204 202.566 17.8487 202.383 17.9244C202.2 18.0002 201.999 18.02 201.805 17.9813C201.611 17.9427 201.432 17.8473 201.293 17.7073L195.293 11.7073C195.2 11.6144 195.126 11.5041 195.075 11.3828C195.025 11.2614 194.999 11.1312 194.999 10.9998C194.999 10.8684 195.025 10.7383 195.075 10.6169C195.126 10.4955 195.2 10.3852 195.293 10.2923L201.293 4.29231C201.432 4.1523 201.611 4.05693 201.805 4.01828C201.999 3.97963 202.2 3.99944 202.383 4.07519C202.566 4.15094 202.722 4.27923 202.832 4.44383C202.942 4.60842 203 4.80192 203 4.99981V9.99981H213C215.121 10.0021 217.155 10.8457 218.654 12.3455C220.154 13.8453 220.998 15.8788 221 17.9998Z" fill="currentColor"/>
<path opacity="0.2" d="M250 5V17L244 11L250 5Z" fill="currentColor"/>
<path d="M261 9.99981H251V4.99981C251 4.80192 250.942 4.60842 250.832 4.44383C250.722 4.27923 250.566 4.15094 250.383 4.07519C250.2 3.99944 249.999 3.97963 249.805 4.01828C249.611 4.05693 249.432 4.1523 249.293 4.29231L243.293 10.2923C243.2 10.3852 243.126 10.4955 243.075 10.6169C243.025 10.7383 242.999 10.8684 242.999 10.9998C242.999 11.1312 243.025 11.2614 243.075 11.3828C243.126 11.5041 243.2 11.6144 243.293 11.7073L249.293 17.7073C249.432 17.8473 249.611 17.9427 249.805 17.9813C249.999 18.02 250.2 18.0002 250.383 17.9244C250.566 17.8487 250.722 17.7204 250.832 17.5558C250.942 17.3912 251 17.1977 251 16.9998V11.9998H261C262.591 11.9998 264.117 12.632 265.243 13.7572C266.368 14.8824 267 16.4085 267 17.9998C267 19.5911 266.368 21.1172 265.243 22.2425C264.117 23.3677 262.591 23.9998 261 23.9998H250C249.735 23.9998 249.48 24.1052 249.293 24.2927C249.105 24.4802 249 24.7346 249 24.9998C249 25.265 249.105 25.5194 249.293 25.7069C249.48 25.8945 249.735 25.9998 250 25.9998H261C263.122 25.9998 265.157 25.157 266.657 23.6567C268.157 22.1564 269 20.1215 269 17.9998C269 15.8781 268.157 13.8432 266.657 12.343C265.157 10.8427 263.122 9.99981 261 9.99981ZM249 14.5861L245.414 10.9998L249 7.41356V14.5861Z" fill="currentColor"/>
</g>
<defs>
<clipPath id="clip0_17_6170">
<rect width="272" height="32" rx="5" fill="white"/>
</clipPath>
</defs>
</svg>
