<svg width="272" height="32" viewBox="0 0 272 32" fill="none" xmlns="http://www.w3.org/2000/svg">
<g clip-path="url(#clip0_17_7164)">
<path d="M10.7076 18.2925C10.8952 18.4801 11.0006 18.7346 11.0006 19C11.0006 19.2654 10.8952 19.5199 10.7076 19.7075C10.5199 19.8951 10.2654 20.0006 10.0001 20.0006C9.73469 20.0006 9.48019 19.8951 9.29255 19.7075L3.29255 13.7075C3.19958 13.6146 3.12582 13.5043 3.07549 13.3829C3.02517 13.2615 2.99927 13.1314 2.99927 13C2.99927 12.8686 3.02517 12.7385 3.07549 12.6171C3.12582 12.4957 3.19958 12.3854 3.29255 12.2925L9.29255 6.29251C9.48019 6.10487 9.73469 5.99945 10.0001 5.99945C10.2654 5.99945 10.5199 6.10487 10.7076 6.29251C10.8952 6.48015 11.0006 6.73464 11.0006 7.00001C11.0006 7.26537 10.8952 7.51987 10.7076 7.70751L5.4138 13L10.7076 18.2925ZM16.0001 12H12.4138L16.7076 7.70751C16.8952 7.51987 17.0006 7.26537 17.0006 7.00001C17.0006 6.73464 16.8952 6.48015 16.7076 6.29251C16.5199 6.10487 16.2654 5.99945 16.0001 5.99945C15.7347 5.99945 15.4802 6.10487 15.2926 6.29251L9.29255 12.2925C9.19958 12.3854 9.12582 12.4957 9.07549 12.6171C9.02517 12.7385 8.99927 12.8686 8.99927 13C8.99927 13.1314 9.02517 13.2615 9.07549 13.3829C9.12582 13.5043 9.19958 13.6146 9.29255 13.7075L15.2926 19.7075C15.3855 19.8004 15.4958 19.8741 15.6172 19.9244C15.7386 19.9747 15.8687 20.0006 16.0001 20.0006C16.1314 20.0006 16.2616 19.9747 16.383 19.9244C16.5043 19.8741 16.6146 19.8004 16.7076 19.7075C16.8005 19.6146 16.8742 19.5043 16.9244 19.3829C16.9747 19.2615 17.0006 19.1314 17.0006 19C17.0006 18.8686 16.9747 18.7385 16.9244 18.6171C16.8742 18.4957 16.8005 18.3854 16.7076 18.2925L12.4138 14H16.0001C18.9164 14.0033 21.7124 15.1633 23.7746 17.2255C25.8368 19.2877 26.9967 22.0836 27.0001 25C27.0001 25.2652 27.1054 25.5196 27.2929 25.7071C27.4805 25.8947 27.7348 26 28.0001 26C28.2653 26 28.5196 25.8947 28.7072 25.7071C28.8947 25.5196 29.0001 25.2652 29.0001 25C28.9964 21.5533 27.6256 18.2488 25.1884 15.8116C22.7512 13.3745 19.4468 12.0036 16.0001 12Z" fill="currentColor"/>
<path d="M58.3537 18.6463C58.4475 18.7401 58.5002 18.8673 58.5002 19C58.5002 19.1327 58.4475 19.2599 58.3537 19.3538C58.2598 19.4476 58.1326 19.5003 57.9999 19.5003C57.8672 19.5003 57.74 19.4476 57.6462 19.3538L51.6462 13.3538C51.5997 13.3073 51.5628 13.2522 51.5376 13.1915C51.5125 13.1308 51.4995 13.0657 51.4995 13C51.4995 12.9343 51.5125 12.8692 51.5376 12.8085C51.5628 12.7478 51.5997 12.6927 51.6462 12.6463L57.6462 6.64625C57.6926 6.5998 57.7478 6.56295 57.8085 6.53781C57.8692 6.51267 57.9342 6.49973 57.9999 6.49973C58.0656 6.49973 58.1307 6.51267 58.1914 6.53781C58.252 6.56295 58.3072 6.5998 58.3537 6.64625C58.4001 6.69271 58.437 6.74786 58.4621 6.80856C58.4872 6.86925 58.5002 6.93431 58.5002 7C58.5002 7.0657 58.4872 7.13076 58.4621 7.19145C58.437 7.25215 58.4001 7.3073 58.3537 7.35375L52.7074 13L58.3537 18.6463ZM63.9999 12.5H59.2074L64.3537 7.35375C64.4475 7.25993 64.5002 7.13269 64.5002 7C64.5002 6.86732 64.4475 6.74007 64.3537 6.64625C64.2598 6.55243 64.1326 6.49973 63.9999 6.49973C63.8672 6.49973 63.74 6.55243 63.6462 6.64625L57.6462 12.6463C57.5997 12.6927 57.5628 12.7478 57.5376 12.8085C57.5125 12.8692 57.4995 12.9343 57.4995 13C57.4995 13.0657 57.5125 13.1308 57.5376 13.1915C57.5628 13.2522 57.5997 13.3073 57.6462 13.3538L63.6462 19.3538C63.74 19.4476 63.8672 19.5003 63.9999 19.5003C64.1326 19.5003 64.2598 19.4476 64.3537 19.3538C64.4475 19.2599 64.5002 19.1327 64.5002 19C64.5002 18.8673 64.4475 18.7401 64.3537 18.6463L59.2074 13.5H63.9999C67.0489 13.5033 69.972 14.716 72.128 16.8719C74.2839 19.0279 75.4966 21.951 75.4999 25C75.4999 25.1326 75.5526 25.2598 75.6464 25.3536C75.7401 25.4473 75.8673 25.5 75.9999 25.5C76.1325 25.5 76.2597 25.4473 76.3535 25.3536C76.4472 25.2598 76.4999 25.1326 76.4999 25C76.4963 21.6859 75.1781 18.5086 72.8347 16.1652C70.4913 13.8218 67.314 12.5036 63.9999 12.5Z" fill="currentColor"/>
<path d="M106.53 18.47C106.604 18.5387 106.663 18.6215 106.704 18.7135C106.745 18.8055 106.767 18.9048 106.769 19.0055C106.77 19.1062 106.752 19.2062 106.714 19.2996C106.676 19.393 106.62 19.4778 106.549 19.549C106.478 19.6203 106.393 19.6764 106.3 19.7141C106.206 19.7518 106.106 19.7704 106.006 19.7686C105.905 19.7668 105.806 19.7448 105.714 19.7038C105.622 19.6628 105.539 19.6037 105.47 19.53L99.4701 13.53C99.3296 13.3894 99.2507 13.1987 99.2507 13C99.2507 12.8012 99.3296 12.6106 99.4701 12.47L105.47 6.47C105.612 6.33752 105.8 6.2654 105.995 6.26882C106.189 6.27225 106.374 6.35096 106.512 6.48838C106.649 6.62579 106.728 6.81118 106.731 7.00548C106.735 7.19978 106.663 7.38782 106.53 7.53L101.061 13L106.53 18.47ZM112 12.25H107.811L112.53 7.53C112.663 7.38782 112.735 7.19978 112.731 7.00548C112.728 6.81118 112.649 6.62579 112.512 6.48838C112.374 6.35096 112.189 6.27225 111.995 6.26882C111.8 6.2654 111.612 6.33752 111.47 6.47L105.47 12.47C105.33 12.6106 105.251 12.8012 105.251 13C105.251 13.1987 105.33 13.3894 105.47 13.53L111.47 19.53C111.612 19.6625 111.8 19.7346 111.995 19.7312C112.189 19.7277 112.374 19.649 112.512 19.5116C112.649 19.3742 112.728 19.1888 112.731 18.9945C112.735 18.8002 112.663 18.6122 112.53 18.47L107.811 13.75H112C114.983 13.7533 117.842 14.9396 119.951 17.0487C122.06 19.1578 123.247 22.0173 123.25 25C123.25 25.1989 123.329 25.3897 123.47 25.5303C123.61 25.671 123.801 25.75 124 25.75C124.199 25.75 124.39 25.671 124.53 25.5303C124.671 25.3897 124.75 25.1989 124.75 25C124.746 21.6197 123.402 18.379 121.011 15.9888C118.621 13.5985 115.38 12.254 112 12.25Z" fill="currentColor"/>
<path d="M155.061 17.9388C155.343 18.2205 155.501 18.6027 155.501 19.0013C155.501 19.3998 155.343 19.782 155.061 20.0638C154.78 20.3455 154.397 20.5039 153.999 20.5039C153.6 20.5039 153.218 20.3455 152.936 20.0638L146.936 14.0638C146.796 13.9244 146.686 13.7588 146.61 13.5765C146.534 13.3942 146.495 13.1987 146.495 13.0013C146.495 12.8038 146.534 12.6084 146.61 12.426C146.686 12.2437 146.796 12.0781 146.936 11.9388L152.936 5.93876C153.218 5.65696 153.6 5.49865 153.999 5.49865C154.397 5.49865 154.78 5.65696 155.061 5.93876C155.343 6.22055 155.501 6.60274 155.501 7.00126C155.501 7.39977 155.343 7.78196 155.061 8.06376L150.125 13L155.061 17.9388ZM160 11.5H158.625L162.065 8.06001C162.205 7.92048 162.315 7.75483 162.391 7.57253C162.466 7.39022 162.505 7.19483 162.505 6.99751C162.505 6.80018 162.466 6.60479 162.391 6.42248C162.315 6.24018 162.205 6.07453 162.065 5.93501C161.926 5.79548 161.76 5.68479 161.578 5.60928C161.395 5.53377 161.2 5.4949 161.003 5.4949C160.604 5.4949 160.222 5.65321 159.94 5.93501L153.94 11.935C153.8 12.0744 153.689 12.2399 153.614 12.4223C153.538 12.6046 153.499 12.8001 153.499 12.9975C153.499 13.1949 153.538 13.3904 153.614 13.5727C153.689 13.7551 153.8 13.9206 153.94 14.06L159.94 20.06C160.222 20.3418 160.604 20.5001 161.003 20.5001C161.401 20.5001 161.783 20.3418 162.065 20.06C162.347 19.7782 162.505 19.396 162.505 18.9975C162.505 18.599 162.347 18.2168 162.065 17.935L158.625 14.5H160C162.784 14.503 165.453 15.6102 167.421 17.5787C169.39 19.5472 170.497 22.2161 170.5 25C170.5 25.3978 170.658 25.7794 170.939 26.0607C171.221 26.342 171.602 26.5 172 26.5C172.398 26.5 172.779 26.342 173.061 26.0607C173.342 25.7794 173.5 25.3978 173.5 25C173.496 21.4208 172.072 17.9893 169.542 15.4584C167.011 12.9276 163.579 11.504 160 11.5Z" fill="currentColor"/>
<path d="M202.708 18.2925C202.895 18.4801 203.001 18.7346 203.001 19C203.001 19.2654 202.895 19.5199 202.708 19.7075C202.52 19.8951 202.265 20.0006 202 20.0006C201.735 20.0006 201.48 19.8951 201.293 19.7075L195.293 13.7075C195.2 13.6146 195.126 13.5043 195.075 13.3829C195.025 13.2615 194.999 13.1314 194.999 13C194.999 12.8686 195.025 12.7385 195.075 12.6171C195.126 12.4957 195.2 12.3854 195.293 12.2925L201.293 6.29249C201.48 6.10485 201.735 5.99944 202 5.99944C202.265 5.99944 202.52 6.10485 202.708 6.29249C202.895 6.48013 203.001 6.73463 203.001 6.99999C203.001 7.26536 202.895 7.51985 202.708 7.70749L197.414 13L202.708 18.2925ZM209 12.0375V6.99999C209 6.8021 208.942 6.60861 208.832 6.44401C208.722 6.27942 208.566 6.15112 208.383 6.07537C208.2 5.99962 207.999 5.97981 207.805 6.01846C207.611 6.05712 207.432 6.15248 207.293 6.29249L201.293 12.2925C201.2 12.3854 201.126 12.4957 201.075 12.6171C201.025 12.7385 200.999 12.8686 200.999 13C200.999 13.1314 201.025 13.2615 201.075 13.3829C201.126 13.5043 201.2 13.6146 201.293 13.7075L207.293 19.7075C207.432 19.8475 207.611 19.9429 207.805 19.9815C207.999 20.0202 208.2 20.0004 208.383 19.9246C208.566 19.8489 208.722 19.7206 208.832 19.556C208.942 19.3914 209 19.1979 209 19V14.0462C211.732 14.2987 214.271 15.5616 216.12 17.5875C217.97 19.6135 218.997 22.2568 219 25C219 25.2652 219.105 25.5196 219.293 25.7071C219.48 25.8946 219.735 26 220 26C220.265 26 220.52 25.8946 220.707 25.7071C220.895 25.5196 221 25.2652 221 25C220.996 21.7264 219.759 18.5745 217.535 16.1722C215.311 13.7699 212.264 12.2937 209 12.0375Z" fill="currentColor"/>
<path opacity="0.2" d="M256 7V19L250 13L256 7Z" fill="currentColor"/>
<path d="M250.708 18.2925C250.895 18.4801 251.001 18.7346 251.001 19C251.001 19.2654 250.895 19.5199 250.708 19.7075C250.52 19.8951 250.265 20.0006 250 20.0006C249.735 20.0006 249.48 19.8951 249.293 19.7075L243.293 13.7075C243.2 13.6146 243.126 13.5043 243.075 13.3829C243.025 13.2615 242.999 13.1314 242.999 13C242.999 12.8686 243.025 12.7385 243.075 12.6171C243.126 12.4957 243.2 12.3854 243.293 12.2925L249.293 6.29249C249.48 6.10485 249.735 5.99944 250 5.99944C250.265 5.99944 250.52 6.10485 250.708 6.29249C250.895 6.48013 251.001 6.73463 251.001 6.99999C251.001 7.26536 250.895 7.51985 250.708 7.70749L245.414 13L250.708 18.2925ZM269 25C269 25.2652 268.895 25.5196 268.707 25.7071C268.52 25.8946 268.265 26 268 26C267.735 26 267.48 25.8946 267.293 25.7071C267.105 25.5196 267 25.2652 267 25C266.997 22.2568 265.97 19.6135 264.12 17.5875C262.271 15.5616 259.732 14.2987 257 14.0462V19C257 19.1979 256.942 19.3914 256.832 19.556C256.722 19.7206 256.566 19.8489 256.383 19.9246C256.2 20.0004 255.999 20.0202 255.805 19.9815C255.611 19.9429 255.432 19.8475 255.293 19.7075L249.293 13.7075C249.2 13.6146 249.126 13.5043 249.075 13.3829C249.025 13.2615 248.999 13.1314 248.999 13C248.999 12.8686 249.025 12.7385 249.075 12.6171C249.126 12.4957 249.2 12.3854 249.293 12.2925L255.293 6.29249C255.432 6.15248 255.611 6.05712 255.805 6.01846C255.999 5.97981 256.2 5.99962 256.383 6.07537C256.566 6.15112 256.722 6.27942 256.832 6.44401C256.942 6.60861 257 6.8021 257 6.99999V12.0375C260.264 12.2937 263.311 13.7699 265.535 16.1722C267.759 18.5745 268.996 21.7264 269 25ZM255 9.41374L251.414 13L255 16.5862V9.41374Z" fill="currentColor"/>
</g>
<defs>
<clipPath id="clip0_17_7164">
<rect width="272" height="32" rx="5" fill="white"/>
</clipPath>
</defs>
</svg>
