<svg width="272" height="32" viewBox="0 0 272 32" fill="none" xmlns="http://www.w3.org/2000/svg">
<g clip-path="url(#clip0_17_6184)">
<path d="M27.7075 10.7073C27.6146 10.8003 27.5043 10.874 27.3829 10.9244C27.2615 10.9747 27.1314 11.0006 27 11.0006C26.8686 11.0006 26.7385 10.9747 26.6171 10.9244C26.4957 10.874 26.3854 10.8003 26.2925 10.7073L22 6.41356V20.9998C22 23.1215 21.1571 25.1564 19.6569 26.6567C18.1566 28.157 16.1217 28.9998 14 28.9998C11.8783 28.9998 9.84344 28.157 8.34315 26.6567C6.84285 25.1564 6 23.1215 6 20.9998V9.99981C6 9.73459 6.10536 9.48024 6.29289 9.2927C6.48043 9.10517 6.73478 8.99981 7 8.99981C7.26522 8.99981 7.51957 9.10517 7.70711 9.2927C7.89464 9.48024 8 9.73459 8 9.99981V20.9998C8 22.5911 8.63214 24.1172 9.75736 25.2425C10.8826 26.3677 12.4087 26.9998 14 26.9998C15.5913 26.9998 17.1174 26.3677 18.2426 25.2425C19.3679 24.1172 20 22.5911 20 20.9998V6.41356L15.7075 10.7073C15.5199 10.895 15.2654 11.0004 15 11.0004C14.7346 11.0004 14.4801 10.895 14.2925 10.7073C14.1049 10.5197 13.9994 10.2652 13.9994 9.99981C13.9994 9.73445 14.1049 9.47995 14.2925 9.29231L20.2925 3.29231C20.3854 3.19933 20.4957 3.12557 20.6171 3.07525C20.7385 3.02493 20.8686 2.99902 21 2.99902C21.1314 2.99902 21.2615 3.02493 21.3829 3.07525C21.5043 3.12557 21.6146 3.19933 21.7075 3.29231L27.7075 9.29231C27.8005 9.38518 27.8742 9.49547 27.9246 9.61687C27.9749 9.73827 28.0008 9.86839 28.0008 9.99981C28.0008 10.1312 27.9749 10.2614 27.9246 10.3828C27.8742 10.5041 27.8005 10.6144 27.7075 10.7073Z" fill="currentColor"/>
<path d="M75.3538 10.3537C75.3073 10.4001 75.2522 10.437 75.1915 10.4622C75.1308 10.4873 75.0657 10.5003 75 10.5003C74.9343 10.5003 74.8692 10.4873 74.8085 10.4622C74.7478 10.437 74.6927 10.4001 74.6462 10.3537L69.5 5.20741V20.9999C69.5 22.989 68.7098 24.8967 67.3033 26.3032C65.8968 27.7097 63.9891 28.4999 62 28.4999C60.0109 28.4999 58.1032 27.7097 56.6967 26.3032C55.2902 24.8967 54.5 22.989 54.5 20.9999V9.99991C54.5 9.8673 54.5527 9.74012 54.6464 9.64635C54.7402 9.55258 54.8674 9.49991 55 9.49991C55.1326 9.49991 55.2598 9.55258 55.3536 9.64635C55.4473 9.74012 55.5 9.8673 55.5 9.99991V20.9999C55.5 22.7238 56.1848 24.3771 57.4038 25.5961C58.6228 26.8151 60.2761 27.4999 62 27.4999C63.7239 27.4999 65.3772 26.8151 66.5962 25.5961C67.8152 24.3771 68.5 22.7238 68.5 20.9999V5.20741L63.3538 10.3537C63.2599 10.4475 63.1327 10.5002 63 10.5002C62.8673 10.5002 62.7401 10.4475 62.6462 10.3537C62.5524 10.2598 62.4997 10.1326 62.4997 9.99991C62.4997 9.86722 62.5524 9.73997 62.6462 9.64615L68.6462 3.64616C68.6927 3.59967 68.7478 3.56279 68.8085 3.53763C68.8692 3.51246 68.9343 3.49951 69 3.49951C69.0657 3.49951 69.1308 3.51246 69.1915 3.53763C69.2522 3.56279 69.3073 3.59967 69.3538 3.64616L75.3538 9.64615C75.4002 9.69259 75.4371 9.74774 75.4623 9.80843C75.4874 9.86913 75.5004 9.9342 75.5004 9.99991C75.5004 10.0656 75.4874 10.1307 75.4623 10.1914C75.4371 10.2521 75.4002 10.3072 75.3538 10.3537Z" fill="currentColor"/>
<path d="M123.53 10.5298C123.389 10.6703 123.199 10.7492 123 10.7492C122.801 10.7492 122.611 10.6703 122.47 10.5298L117.75 5.81108V20.9998C117.75 23.0553 116.933 25.0265 115.48 26.4799C114.027 27.9333 112.055 28.7498 110 28.7498C107.945 28.7498 105.973 27.9333 104.52 26.4799C103.067 25.0265 102.25 23.0553 102.25 20.9998V9.99983C102.25 9.80092 102.329 9.61015 102.47 9.4695C102.61 9.32885 102.801 9.24983 103 9.24983C103.199 9.24983 103.39 9.32885 103.53 9.4695C103.671 9.61015 103.75 9.80092 103.75 9.99983V20.9998C103.75 22.6574 104.408 24.2471 105.581 25.4192C106.753 26.5913 108.342 27.2498 110 27.2498C111.658 27.2498 113.247 26.5913 114.419 25.4192C115.592 24.2471 116.25 22.6574 116.25 20.9998V5.81108L111.53 10.5298C111.388 10.6623 111.2 10.7344 111.005 10.731C110.811 10.7276 110.626 10.6489 110.488 10.5114C110.351 10.374 110.272 10.1887 110.269 9.99435C110.265 9.80005 110.338 9.612 110.47 9.46983L116.47 3.46983C116.611 3.32938 116.801 3.25049 117 3.25049C117.199 3.25049 117.389 3.32938 117.53 3.46983L123.53 9.46983C123.67 9.61045 123.749 9.80108 123.749 9.99983C123.749 10.1986 123.67 10.3892 123.53 10.5298Z" fill="currentColor"/>
<path d="M172.061 11.0613C171.922 11.2011 171.756 11.3121 171.574 11.3878C171.392 11.4635 171.196 11.5025 170.999 11.5025C170.801 11.5025 170.606 11.4635 170.424 11.3878C170.241 11.3121 170.076 11.2011 169.936 11.0613L166.5 7.62505V21C166.5 23.2544 165.604 25.4164 164.01 27.0105C162.416 28.6045 160.254 29.5 158 29.5C155.746 29.5 153.584 28.6045 151.99 27.0105C150.396 25.4164 149.5 23.2544 149.5 21V10.0001C149.5 9.60223 149.658 9.22069 149.939 8.93939C150.221 8.65809 150.602 8.50005 151 8.50005C151.398 8.50005 151.779 8.65809 152.061 8.93939C152.342 9.22069 152.5 9.60223 152.5 10.0001V21C152.5 22.4587 153.079 23.8577 154.111 24.8891C155.142 25.9206 156.541 26.5 158 26.5C159.459 26.5 160.858 25.9206 161.889 24.8891C162.921 23.8577 163.5 22.4587 163.5 21V7.62505L160.061 11.0613C159.922 11.2008 159.756 11.3115 159.574 11.387C159.391 11.4625 159.196 11.5014 158.999 11.5014C158.801 11.5014 158.606 11.4625 158.424 11.387C158.241 11.3115 158.076 11.2008 157.936 11.0613C157.797 10.9218 157.686 10.7561 157.611 10.5738C157.535 10.3915 157.496 10.1961 157.496 9.9988C157.496 9.80148 157.535 9.60608 157.611 9.42378C157.686 9.24148 157.797 9.07583 157.936 8.9363L163.936 2.9363C164.076 2.79646 164.241 2.6855 164.424 2.6098C164.606 2.53409 164.801 2.49512 164.999 2.49512C165.196 2.49512 165.392 2.53409 165.574 2.6098C165.756 2.6855 165.922 2.79646 166.061 2.9363L172.061 8.9363C172.201 9.07565 172.312 9.24124 172.388 9.42357C172.463 9.6059 172.502 9.80138 172.502 9.9988C172.502 10.1962 172.463 10.3917 172.388 10.574C172.312 10.7564 172.201 10.9219 172.061 11.0613Z" fill="currentColor"/>
<path d="M219.924 10.3823C219.848 10.5651 219.72 10.7213 219.556 10.8312C219.391 10.9411 219.198 10.9998 219 10.9998H214V20.9998C214 23.1215 213.157 25.1564 211.657 26.6567C210.157 28.157 208.122 28.9998 206 28.9998C203.878 28.9998 201.843 28.157 200.343 26.6567C198.843 25.1564 198 23.1215 198 20.9998V9.99981C198 9.73459 198.105 9.48024 198.293 9.2927C198.48 9.10517 198.735 8.99981 199 8.99981C199.265 8.99981 199.52 9.10517 199.707 9.2927C199.895 9.48024 200 9.73459 200 9.99981V20.9998C200 22.5911 200.632 24.1172 201.757 25.2425C202.883 26.3677 204.409 26.9998 206 26.9998C207.591 26.9998 209.117 26.3677 210.243 25.2425C211.368 24.1172 212 22.5911 212 20.9998V10.9998H207C206.802 11 206.609 10.9414 206.444 10.8315C206.279 10.7217 206.151 10.5654 206.075 10.3826C206 10.1998 205.98 9.99859 206.018 9.8045C206.057 9.61042 206.152 9.43217 206.292 9.29231L212.292 3.29231C212.385 3.19933 212.496 3.12557 212.617 3.07525C212.738 3.02493 212.869 2.99902 213 2.99902C213.131 2.99902 213.262 3.02493 213.383 3.07525C213.504 3.12557 213.615 3.19933 213.708 3.29231L219.708 9.29231C219.847 9.43224 219.942 9.61049 219.981 9.80451C220.019 9.99853 220 10.1996 219.924 10.3823Z" fill="currentColor"/>
<path opacity="0.2" d="M267 10H255L261 4L267 10Z" fill="currentColor"/>
<path d="M267.708 9.29231L261.708 3.29231C261.615 3.19933 261.504 3.12557 261.383 3.07525C261.262 3.02493 261.131 2.99902 261 2.99902C260.869 2.99902 260.738 3.02493 260.617 3.07525C260.496 3.12557 260.385 3.19933 260.292 3.29231L254.292 9.29231C254.152 9.43217 254.057 9.61042 254.018 9.8045C253.98 9.99859 254 10.1998 254.075 10.3826C254.151 10.5654 254.279 10.7217 254.444 10.8315C254.609 10.9414 254.802 11 255 10.9998H260V20.9998C260 22.5911 259.368 24.1172 258.243 25.2425C257.117 26.3677 255.591 26.9998 254 26.9998C252.409 26.9998 250.883 26.3677 249.757 25.2425C248.632 24.1172 248 22.5911 248 20.9998V9.99981C248 9.73459 247.895 9.48024 247.707 9.2927C247.52 9.10517 247.265 8.99981 247 8.99981C246.735 8.99981 246.48 9.10517 246.293 9.2927C246.105 9.48024 246 9.73459 246 9.99981V20.9998C246 23.1215 246.843 25.1564 248.343 26.6567C249.843 28.157 251.878 28.9998 254 28.9998C256.122 28.9998 258.157 28.157 259.657 26.6567C261.157 25.1564 262 23.1215 262 20.9998V10.9998H267C267.198 11 267.391 10.9414 267.556 10.8315C267.721 10.7217 267.849 10.5654 267.925 10.3826C268 10.1998 268.02 9.99859 267.982 9.8045C267.943 9.61042 267.848 9.43217 267.708 9.29231ZM257.414 8.99981L261 5.41356L264.586 8.99981H257.414Z" fill="currentColor"/>
</g>
<defs>
<clipPath id="clip0_17_6184">
<rect width="272" height="32" rx="5" fill="white"/>
</clipPath>
</defs>
</svg>
