<svg width="272" height="32" viewBox="0 0 272 32" fill="none" xmlns="http://www.w3.org/2000/svg">
<g clip-path="url(#clip0_17_6324)">
<path d="M28 13C28 13.2652 27.8946 13.5196 27.7071 13.7071C27.5196 13.8946 27.2652 14 27 14C26.7348 14 26.4804 13.8946 26.2929 13.7071C26.1054 13.5196 26 13.2652 26 13V7.415L17.7087 15.7075C17.5211 15.8951 17.2666 16.0006 17.0012 16.0006C16.7359 16.0006 16.4814 15.8951 16.2938 15.7075C16.1061 15.5199 16.0007 15.2654 16.0007 15C16.0007 14.7346 16.1061 14.4801 16.2938 14.2925L24.585 6H19C18.7348 6 18.4804 5.89464 18.2929 5.70711C18.1054 5.51957 18 5.26522 18 5C18 4.73478 18.1054 4.48043 18.2929 4.29289C18.4804 4.10536 18.7348 4 19 4H27C27.2652 4 27.5196 4.10536 27.7071 4.29289C27.8946 4.48043 28 4.73478 28 5V13ZM23 16C22.7348 16 22.4804 16.1054 22.2929 16.2929C22.1054 16.4804 22 16.7348 22 17V26H6V10H15C15.2652 10 15.5196 9.89464 15.7071 9.70711C15.8946 9.51957 16 9.26522 16 9C16 8.73478 15.8946 8.48043 15.7071 8.29289C15.5196 8.10536 15.2652 8 15 8H6C5.46957 8 4.96086 8.21071 4.58579 8.58579C4.21071 8.96086 4 9.46957 4 10V26C4 26.5304 4.21071 27.0391 4.58579 27.4142C4.96086 27.7893 5.46957 28 6 28H22C22.5304 28 23.0391 27.7893 23.4142 27.4142C23.7893 27.0391 24 26.5304 24 26V17C24 16.7348 23.8946 16.4804 23.7071 16.2929C23.5196 16.1054 23.2652 16 23 16Z" fill="currentColor"/>
<path d="M75.5 13C75.5 13.1326 75.4473 13.2598 75.3536 13.3536C75.2598 13.4473 75.1326 13.5 75 13.5C74.8674 13.5 74.7402 13.4473 74.6464 13.3536C74.5527 13.2598 74.5 13.1326 74.5 13V6.2075L65.355 15.3538C65.2612 15.4476 65.1339 15.5003 65.0012 15.5003C64.8686 15.5003 64.7413 15.4476 64.6475 15.3538C64.5537 15.2599 64.501 15.1327 64.501 15C64.501 14.8673 64.5537 14.7401 64.6475 14.6462L73.7925 5.5H67C66.8674 5.5 66.7402 5.44732 66.6464 5.35355C66.5527 5.25979 66.5 5.13261 66.5 5C66.5 4.86739 66.5527 4.74021 66.6464 4.64645C66.7402 4.55268 66.8674 4.5 67 4.5H75C75.1326 4.5 75.2598 4.55268 75.3536 4.64645C75.4473 4.74021 75.5 4.86739 75.5 5V13ZM71 16.5C70.8674 16.5 70.7402 16.5527 70.6464 16.6464C70.5527 16.7402 70.5 16.8674 70.5 17V26C70.5 26.1326 70.4473 26.2598 70.3536 26.3536C70.2598 26.4473 70.1326 26.5 70 26.5H54C53.8674 26.5 53.7402 26.4473 53.6464 26.3536C53.5527 26.2598 53.5 26.1326 53.5 26V10C53.5 9.86739 53.5527 9.74021 53.6464 9.64645C53.7402 9.55268 53.8674 9.5 54 9.5H63C63.1326 9.5 63.2598 9.44732 63.3536 9.35355C63.4473 9.25979 63.5 9.13261 63.5 9C63.5 8.86739 63.4473 8.74021 63.3536 8.64645C63.2598 8.55268 63.1326 8.5 63 8.5H54C53.6022 8.5 53.2206 8.65804 52.9393 8.93934C52.658 9.22064 52.5 9.60218 52.5 10V26C52.5 26.3978 52.658 26.7794 52.9393 27.0607C53.2206 27.342 53.6022 27.5 54 27.5H70C70.3978 27.5 70.7794 27.342 71.0607 27.0607C71.342 26.7794 71.5 26.3978 71.5 26V17C71.5 16.8674 71.4473 16.7402 71.3536 16.6464C71.2598 16.5527 71.1326 16.5 71 16.5Z" fill="currentColor"/>
<path d="M123.75 13C123.75 13.1989 123.671 13.3897 123.53 13.5303C123.39 13.671 123.199 13.75 123 13.75C122.801 13.75 122.61 13.671 122.47 13.5303C122.329 13.3897 122.25 13.1989 122.25 13V6.81125L113.531 15.53C113.389 15.6625 113.201 15.7346 113.007 15.7312C112.812 15.7277 112.627 15.649 112.49 15.5116C112.352 15.3742 112.274 15.1888 112.27 14.9945C112.267 14.8002 112.339 14.6122 112.471 14.47L121.189 5.75H115C114.801 5.75 114.61 5.67098 114.47 5.53033C114.329 5.38968 114.25 5.19891 114.25 5C114.25 4.80109 114.329 4.61032 114.47 4.46967C114.61 4.32902 114.801 4.25 115 4.25H123C123.199 4.25 123.39 4.32902 123.53 4.46967C123.671 4.61032 123.75 4.80109 123.75 5V13ZM119 16.25C118.801 16.25 118.61 16.329 118.47 16.4697C118.329 16.6103 118.25 16.8011 118.25 17V26C118.25 26.0663 118.224 26.1299 118.177 26.1768C118.13 26.2237 118.066 26.25 118 26.25H102C101.934 26.25 101.87 26.2237 101.823 26.1768C101.776 26.1299 101.75 26.0663 101.75 26V10C101.75 9.9337 101.776 9.87011 101.823 9.82322C101.87 9.77634 101.934 9.75 102 9.75H111C111.199 9.75 111.39 9.67098 111.53 9.53033C111.671 9.38968 111.75 9.19891 111.75 9C111.75 8.80109 111.671 8.61032 111.53 8.46967C111.39 8.32902 111.199 8.25 111 8.25H102C101.536 8.25 101.091 8.43437 100.763 8.76256C100.434 9.09075 100.25 9.53587 100.25 10V26C100.25 26.4641 100.434 26.9092 100.763 27.2374C101.091 27.5656 101.536 27.75 102 27.75H118C118.464 27.75 118.909 27.5656 119.237 27.2374C119.566 26.9092 119.75 26.4641 119.75 26V17C119.75 16.8011 119.671 16.6103 119.53 16.4697C119.39 16.329 119.199 16.25 119 16.25Z" fill="currentColor"/>
<path d="M172.5 13C172.5 13.3978 172.342 13.7794 172.061 14.0607C171.779 14.342 171.398 14.5 171 14.5C170.602 14.5 170.221 14.342 169.939 14.0607C169.658 13.7794 169.5 13.3978 169.5 13V8.625L162.061 16.0637C161.779 16.3455 161.397 16.5039 160.999 16.5039C160.6 16.5039 160.218 16.3455 159.936 16.0637C159.654 15.782 159.496 15.3998 159.496 15.0013C159.496 14.6027 159.654 14.2205 159.936 13.9388L167.375 6.5H163C162.602 6.5 162.221 6.34196 161.939 6.06066C161.658 5.77936 161.5 5.39782 161.5 5C161.5 4.60218 161.658 4.22064 161.939 3.93934C162.221 3.65804 162.602 3.5 163 3.5H171C171.398 3.5 171.779 3.65804 172.061 3.93934C172.342 4.22064 172.5 4.60218 172.5 5V13ZM167 16C166.602 16 166.221 16.158 165.939 16.4393C165.658 16.7206 165.5 17.1022 165.5 17.5V25.5H150.5V10.5H158.5C158.898 10.5 159.279 10.342 159.561 10.0607C159.842 9.77936 160 9.39782 160 9C160 8.60218 159.842 8.22064 159.561 7.93934C159.279 7.65804 158.898 7.5 158.5 7.5H150C149.337 7.5 148.701 7.76339 148.232 8.23223C147.763 8.70107 147.5 9.33696 147.5 10V26C147.5 26.663 147.763 27.2989 148.232 27.7678C148.701 28.2366 149.337 28.5 150 28.5H166C166.663 28.5 167.299 28.2366 167.768 27.7678C168.237 27.2989 168.5 26.663 168.5 26V17.5C168.5 17.1022 168.342 16.7206 168.061 16.4393C167.779 16.158 167.398 16 167 16Z" fill="currentColor"/>
<path d="M216 17V26C216 26.5304 215.789 27.0391 215.414 27.4142C215.039 27.7893 214.53 28 214 28H198C197.47 28 196.961 27.7893 196.586 27.4142C196.211 27.0391 196 26.5304 196 26V10C196 9.46957 196.211 8.96086 196.586 8.58579C196.961 8.21071 197.47 8 198 8H207C207.265 8 207.52 8.10536 207.707 8.29289C207.895 8.48043 208 8.73478 208 9C208 9.26522 207.895 9.51957 207.707 9.70711C207.52 9.89464 207.265 10 207 10H198V26H214V17C214 16.7348 214.105 16.4804 214.293 16.2929C214.48 16.1054 214.735 16 215 16C215.265 16 215.52 16.1054 215.707 16.2929C215.895 16.4804 216 16.7348 216 17ZM220 5C220 4.73478 219.895 4.48043 219.707 4.29289C219.52 4.10536 219.265 4 219 4H211C210.802 3.99984 210.609 4.05841 210.444 4.16828C210.279 4.27815 210.151 4.43439 210.075 4.61721C210 4.80003 209.98 5.00122 210.018 5.19531C210.057 5.38939 210.152 5.56764 210.292 5.7075L213.586 9L208.292 14.2925C208.105 14.4801 207.999 14.7346 207.999 15C207.999 15.2654 208.105 15.5199 208.292 15.7075C208.48 15.8951 208.735 16.0006 209 16.0006C209.265 16.0006 209.52 15.8951 209.708 15.7075L215 10.4138L218.292 13.7075C218.432 13.8475 218.611 13.9429 218.805 13.9815C218.999 14.0202 219.2 14.0004 219.383 13.9246C219.566 13.8489 219.722 13.7206 219.832 13.556C219.942 13.3914 220 13.1979 220 13V5Z" fill="currentColor"/>
<path opacity="0.2" d="M263 10V26C263 26.2652 262.895 26.5196 262.707 26.7071C262.52 26.8946 262.265 27 262 27H246C245.735 27 245.48 26.8946 245.293 26.7071C245.105 26.5196 245 26.2652 245 26V10C245 9.73478 245.105 9.48043 245.293 9.29289C245.48 9.10536 245.735 9 246 9H262C262.265 9 262.52 9.10536 262.707 9.29289C262.895 9.48043 263 9.73478 263 10Z" fill="currentColor"/>
<path d="M268 13C268 13.2652 267.895 13.5196 267.707 13.7071C267.52 13.8946 267.265 14 267 14C266.735 14 266.48 13.8946 266.293 13.7071C266.105 13.5196 266 13.2652 266 13V7.415L257.709 15.7075C257.521 15.8951 257.267 16.0006 257.001 16.0006C256.736 16.0006 256.481 15.8951 256.294 15.7075C256.106 15.5199 256.001 15.2654 256.001 15C256.001 14.7346 256.106 14.4801 256.294 14.2925L264.585 6H259C258.735 6 258.48 5.89464 258.293 5.70711C258.105 5.51957 258 5.26522 258 5C258 4.73478 258.105 4.48043 258.293 4.29289C258.48 4.10536 258.735 4 259 4H267C267.265 4 267.52 4.10536 267.707 4.29289C267.895 4.48043 268 4.73478 268 5V13ZM263 16C262.735 16 262.48 16.1054 262.293 16.2929C262.105 16.4804 262 16.7348 262 17V26H246V10H255C255.265 10 255.52 9.89464 255.707 9.70711C255.895 9.51957 256 9.26522 256 9C256 8.73478 255.895 8.48043 255.707 8.29289C255.52 8.10536 255.265 8 255 8H246C245.47 8 244.961 8.21071 244.586 8.58579C244.211 8.96086 244 9.46957 244 10V26C244 26.5304 244.211 27.0391 244.586 27.4142C244.961 27.7893 245.47 28 246 28H262C262.53 28 263.039 27.7893 263.414 27.4142C263.789 27.0391 264 26.5304 264 26V17C264 16.7348 263.895 16.4804 263.707 16.2929C263.52 16.1054 263.265 16 263 16Z" fill="currentColor"/>
</g>
<defs>
<clipPath id="clip0_17_6324">
<rect width="272" height="32" rx="5" fill="white"/>
</clipPath>
</defs>
</svg>
