<svg width="272" height="32" viewBox="0 0 272 32" fill="none" xmlns="http://www.w3.org/2000/svg">
<g clip-path="url(#clip0_17_6128)">
<path d="M24.7075 24.7075C24.6146 24.8005 24.5043 24.8742 24.3829 24.9246C24.2615 24.9749 24.1314 25.0008 24 25.0008C23.8686 25.0008 23.7385 24.9749 23.6171 24.9246C23.4957 24.8742 23.3854 24.8005 23.2925 24.7075L9 10.4137V21C9 21.2652 8.89464 21.5196 8.70711 21.7071C8.51957 21.8946 8.26522 22 8 22C7.73478 22 7.48043 21.8946 7.29289 21.7071C7.10536 21.5196 7 21.2652 7 21V8C7 7.73478 7.10536 7.48043 7.29289 7.29289C7.48043 7.10536 7.73478 7 8 7H21C21.2652 7 21.5196 7.10536 21.7071 7.29289C21.8946 7.48043 22 7.73478 22 8C22 8.26522 21.8946 8.51957 21.7071 8.70711C21.5196 8.89464 21.2652 9 21 9H10.4137L24.7075 23.2925C24.8005 23.3854 24.8742 23.4957 24.9246 23.6171C24.9749 23.7385 25.0008 23.8686 25.0008 24C25.0008 24.1314 24.9749 24.2615 24.9246 24.3829C24.8742 24.5043 24.8005 24.6146 24.7075 24.7075Z" fill="currentColor"/>
<path d="M72.3538 24.3538C72.3073 24.4002 72.2522 24.4371 72.1915 24.4623C72.1308 24.4874 72.0657 24.5004 72 24.5004C71.9343 24.5004 71.8692 24.4874 71.8085 24.4623C71.7478 24.4371 71.6927 24.4002 71.6462 24.3538L56.5 9.2075V21C56.5 21.1326 56.4473 21.2598 56.3536 21.3536C56.2598 21.4473 56.1326 21.5 56 21.5C55.8674 21.5 55.7402 21.4473 55.6464 21.3536C55.5527 21.2598 55.5 21.1326 55.5 21V8C55.5 7.86739 55.5527 7.74021 55.6464 7.64645C55.7402 7.55268 55.8674 7.5 56 7.5H69C69.1326 7.5 69.2598 7.55268 69.3536 7.64645C69.4473 7.74021 69.5 7.86739 69.5 8C69.5 8.13261 69.4473 8.25979 69.3536 8.35355C69.2598 8.44732 69.1326 8.5 69 8.5H57.2075L72.3538 23.6462C72.4002 23.6927 72.4371 23.7478 72.4623 23.8085C72.4874 23.8692 72.5004 23.9343 72.5004 24C72.5004 24.0657 72.4874 24.1308 72.4623 24.1915C72.4371 24.2522 72.4002 24.3073 72.3538 24.3538Z" fill="currentColor"/>
<path d="M120.53 24.53C120.389 24.6705 120.199 24.7493 120 24.7493C119.801 24.7493 119.611 24.6705 119.47 24.53L104.75 9.81V21C104.75 21.1989 104.671 21.3897 104.53 21.5303C104.39 21.671 104.199 21.75 104 21.75C103.801 21.75 103.61 21.671 103.47 21.5303C103.329 21.3897 103.25 21.1989 103.25 21V8C103.25 7.80109 103.329 7.61032 103.47 7.46967C103.61 7.32902 103.801 7.25 104 7.25H117C117.199 7.25 117.39 7.32902 117.53 7.46967C117.671 7.61032 117.75 7.80109 117.75 8C117.75 8.19891 117.671 8.38968 117.53 8.53033C117.39 8.67098 117.199 8.75 117 8.75H105.81L120.53 23.47C120.67 23.6106 120.749 23.8012 120.749 24C120.749 24.1988 120.67 24.3894 120.53 24.53Z" fill="currentColor"/>
<path d="M169.061 25.0613C168.922 25.2011 168.756 25.312 168.574 25.3878C168.392 25.4635 168.196 25.5024 167.999 25.5024C167.801 25.5024 167.606 25.4635 167.424 25.3878C167.241 25.312 167.076 25.2011 166.936 25.0613L153.5 11.625V21C153.5 21.3978 153.342 21.7794 153.061 22.0607C152.779 22.342 152.398 22.5 152 22.5C151.602 22.5 151.221 22.342 150.939 22.0607C150.658 21.7794 150.5 21.3978 150.5 21V8C150.5 7.60218 150.658 7.22064 150.939 6.93934C151.221 6.65804 151.602 6.5 152 6.5H165C165.398 6.5 165.779 6.65804 166.061 6.93934C166.342 7.22064 166.5 7.60218 166.5 8C166.5 8.39782 166.342 8.77936 166.061 9.06066C165.779 9.34196 165.398 9.5 165 9.5H155.625L169.061 22.9387C169.201 23.0781 169.311 23.2435 169.387 23.4256C169.462 23.6077 169.501 23.8029 169.501 24C169.501 24.1971 169.462 24.3923 169.387 24.5744C169.311 24.7565 169.201 24.9219 169.061 25.0613Z" fill="currentColor"/>
<path d="M216.708 24.7075C216.615 24.8005 216.504 24.8742 216.383 24.9246C216.262 24.9749 216.131 25.0008 216 25.0008C215.869 25.0008 215.738 24.9749 215.617 24.9246C215.496 24.8742 215.385 24.8005 215.292 24.7075L206.5 15.9137L200.708 21.7075C200.568 21.8475 200.389 21.9429 200.195 21.9815C200.001 22.0202 199.8 22.0004 199.617 21.9246C199.434 21.8489 199.278 21.7206 199.168 21.556C199.058 21.3914 199 21.1979 199 21V8C199 7.73478 199.105 7.48043 199.293 7.29289C199.48 7.10536 199.735 7 200 7H213C213.198 6.99984 213.391 7.05841 213.556 7.16828C213.721 7.27815 213.849 7.43439 213.925 7.61721C214 7.80003 214.02 8.00122 213.982 8.19531C213.943 8.38939 213.848 8.56765 213.708 8.7075L207.914 14.5L216.708 23.2925C216.8 23.3854 216.874 23.4957 216.925 23.6171C216.975 23.7385 217.001 23.8686 217.001 24C217.001 24.1314 216.975 24.2615 216.925 24.3829C216.874 24.5043 216.8 24.6146 216.708 24.7075Z" fill="currentColor"/>
<path opacity="0.2" d="M261 8L248 21V8H261Z" fill="currentColor"/>
<path d="M264.708 23.2925L255.914 14.5L261.708 8.7075C261.848 8.56765 261.943 8.38939 261.982 8.19531C262.02 8.00122 262 7.80003 261.925 7.61721C261.849 7.43439 261.721 7.27815 261.556 7.16828C261.391 7.05841 261.198 6.99984 261 7H248C247.735 7 247.48 7.10536 247.293 7.29289C247.105 7.48043 247 7.73478 247 8V21C247 21.1979 247.058 21.3914 247.168 21.556C247.278 21.7206 247.434 21.8489 247.617 21.9246C247.8 22.0004 248.001 22.0202 248.195 21.9815C248.389 21.9429 248.568 21.8475 248.708 21.7075L254.5 15.9137L263.292 24.7075C263.385 24.8004 263.496 24.8741 263.617 24.9244C263.738 24.9747 263.869 25.0006 264 25.0006C264.131 25.0006 264.262 24.9747 264.383 24.9244C264.504 24.8741 264.615 24.8004 264.708 24.7075C264.8 24.6146 264.874 24.5043 264.924 24.3829C264.975 24.2615 265.001 24.1314 265.001 24C265.001 23.8686 264.975 23.7385 264.924 23.6171C264.874 23.4957 264.8 23.3854 264.708 23.2925ZM249 9H258.586L253.794 13.7925L249 18.5863V9Z" fill="currentColor"/>
</g>
<defs>
<clipPath id="clip0_17_6128">
<rect width="272" height="32" rx="5" fill="white"/>
</clipPath>
</defs>
</svg>
