<svg width="272" height="32" viewBox="0 0 272 32" fill="none" xmlns="http://www.w3.org/2000/svg">
<g clip-path="url(#clip0_17_6058)">
<path d="M29.7076 16.7076L25.7076 20.7076C25.5199 20.8952 25.2654 21.0006 25.0001 21.0006C24.7347 21.0006 24.4802 20.8952 24.2926 20.7076C24.1049 20.5199 23.9995 20.2654 23.9995 20.0001C23.9995 19.7347 24.1049 19.4802 24.2926 19.2926L26.5863 17.0001H5.4138L7.70755 19.2926C7.8952 19.4802 8.00061 19.7347 8.00061 20.0001C8.00061 20.2654 7.8952 20.5199 7.70755 20.7076C7.51991 20.8952 7.26542 21.0006 7.00005 21.0006C6.73469 21.0006 6.4802 20.8952 6.29255 20.7076L2.29255 16.7076C2.19958 16.6147 2.12582 16.5044 2.07549 16.383C2.02517 16.2616 1.99927 16.1315 1.99927 16.0001C1.99927 15.8687 2.02517 15.7385 2.07549 15.6171C2.12582 15.4957 2.19958 15.3854 2.29255 15.2926L6.29255 11.2926C6.4802 11.1049 6.73469 10.9995 7.00005 10.9995C7.26542 10.9995 7.51991 11.1049 7.70755 11.2926C7.8952 11.4802 8.00061 11.7347 8.00061 12.0001C8.00061 12.2654 7.8952 12.5199 7.70755 12.7076L5.4138 15.0001H26.5863L24.2926 12.7076C24.1049 12.5199 23.9995 12.2654 23.9995 12.0001C23.9995 11.7347 24.1049 11.4802 24.2926 11.2926C24.4802 11.1049 24.7347 10.9995 25.0001 10.9995C25.2654 10.9995 25.5199 11.1049 25.7076 11.2926L29.7076 15.2926C29.8005 15.3854 29.8743 15.4957 29.9246 15.6171C29.9749 15.7385 30.0008 15.8687 30.0008 16.0001C30.0008 16.1315 29.9749 16.2616 29.9246 16.383C29.8743 16.5044 29.8005 16.6147 29.7076 16.7076Z" fill="currentColor"/>
<path d="M77.3537 16.3535L73.3537 20.3535C73.2598 20.4474 73.1326 20.5001 72.9999 20.5001C72.8672 20.5001 72.74 20.4474 72.6462 20.3535C72.5523 20.2597 72.4996 20.1325 72.4996 19.9998C72.4996 19.8671 72.5523 19.7399 72.6462 19.646L75.7924 16.4998H52.2074L55.3537 19.646C55.4475 19.7399 55.5002 19.8671 55.5002 19.9998C55.5002 20.1325 55.4475 20.2597 55.3537 20.3535C55.2598 20.4474 55.1326 20.5001 54.9999 20.5001C54.8672 20.5001 54.74 20.4474 54.6462 20.3535L50.6462 16.3535C50.5997 16.3071 50.5628 16.252 50.5376 16.1913C50.5125 16.1306 50.4995 16.0655 50.4995 15.9998C50.4995 15.9341 50.5125 15.869 50.5376 15.8083C50.5628 15.7476 50.5997 15.6925 50.6462 15.646L54.6462 11.646C54.6926 11.5996 54.7478 11.5627 54.8085 11.5376C54.8692 11.5125 54.9342 11.4995 54.9999 11.4995C55.0656 11.4995 55.1307 11.5125 55.1914 11.5376C55.252 11.5627 55.3072 11.5996 55.3537 11.646C55.4001 11.6925 55.437 11.7476 55.4621 11.8083C55.4872 11.869 55.5002 11.9341 55.5002 11.9998C55.5002 12.0655 55.4872 12.1305 55.4621 12.1912C55.437 12.2519 55.4001 12.3071 55.3537 12.3535L52.2074 15.4998H75.7924L72.6462 12.3535C72.5523 12.2597 72.4996 12.1325 72.4996 11.9998C72.4996 11.8671 72.5523 11.7399 72.6462 11.646C72.74 11.5522 72.8672 11.4995 72.9999 11.4995C73.1326 11.4995 73.2598 11.5522 73.3537 11.646L77.3537 15.646C77.4001 15.6925 77.437 15.7476 77.4622 15.8083C77.4873 15.869 77.5003 15.9341 77.5003 15.9998C77.5003 16.0655 77.4873 16.1306 77.4622 16.1913C77.437 16.252 77.4001 16.3071 77.3537 16.3535Z" fill="currentColor"/>
<path d="M125.53 16.5298L121.53 20.5298C121.388 20.6623 121.2 20.7345 121.005 20.731C120.811 20.7276 120.626 20.6489 120.488 20.5115C120.351 20.3741 120.272 20.1887 120.269 19.9944C120.265 19.8001 120.338 19.612 120.47 19.4698L123.189 16.7498H100.814L103.533 19.4698C103.606 19.5385 103.665 19.6213 103.706 19.7133C103.747 19.8053 103.769 19.9046 103.771 20.0053C103.773 20.106 103.754 20.2061 103.717 20.2994C103.679 20.3928 103.623 20.4777 103.552 20.5489C103.48 20.6201 103.395 20.6762 103.302 20.714C103.209 20.7517 103.109 20.7702 103.008 20.7684C102.907 20.7667 102.808 20.7446 102.716 20.7036C102.624 20.6626 102.541 20.6035 102.473 20.5298L98.4725 16.5298C98.3321 16.3892 98.2532 16.1986 98.2532 15.9998C98.2532 15.8011 98.3321 15.6105 98.4725 15.4698L102.473 11.4698C102.615 11.3374 102.803 11.2652 102.997 11.2687C103.191 11.2721 103.377 11.3508 103.514 11.4882C103.652 11.6256 103.73 11.811 103.734 12.0053C103.737 12.1996 103.665 12.3877 103.533 12.5298L100.811 15.2498H123.186L120.468 12.5298C120.335 12.3877 120.263 12.1996 120.266 12.0053C120.27 11.811 120.348 11.6256 120.486 11.4882C120.623 11.3508 120.809 11.2721 121.003 11.2687C121.197 11.2652 121.385 11.3374 121.528 11.4698L125.528 15.4698C125.668 15.6101 125.748 15.8006 125.748 15.9993C125.749 16.1981 125.67 16.3889 125.53 16.5298Z" fill="currentColor"/>
<path d="M174.061 17.0612L170.061 21.0612C169.779 21.343 169.397 21.5013 168.999 21.5013C168.6 21.5013 168.218 21.343 167.936 21.0612C167.654 20.7794 167.496 20.3972 167.496 19.9987C167.496 19.6002 167.654 19.218 167.936 18.9362L169.375 17.4999H150.625L152.065 18.9387C152.347 19.2205 152.505 19.6027 152.505 20.0012C152.505 20.3997 152.347 20.7819 152.065 21.0637C151.783 21.3455 151.401 21.5038 151.002 21.5038C150.604 21.5038 150.222 21.3455 149.94 21.0637L145.94 17.0637C145.8 16.9243 145.689 16.7588 145.613 16.5764C145.538 16.3941 145.499 16.1986 145.499 16.0012C145.499 15.8038 145.538 15.6083 145.613 15.426C145.689 15.2436 145.8 15.0781 145.94 14.9387L149.94 10.9387C150.222 10.6569 150.604 10.4986 151.002 10.4986C151.2 10.4986 151.395 10.5375 151.577 10.613C151.76 10.6885 151.925 10.7992 152.065 10.9387C152.204 11.0782 152.315 11.2439 152.391 11.4262C152.466 11.6085 152.505 11.8039 152.505 12.0012C152.505 12.1985 152.466 12.3939 152.391 12.5762C152.315 12.7585 152.204 12.9242 152.065 13.0637L150.625 14.4999H169.375L167.935 13.0612C167.795 12.9217 167.685 12.756 167.609 12.5737C167.534 12.3914 167.495 12.196 167.495 11.9987C167.495 11.8014 167.534 11.606 167.609 11.4237C167.685 11.2414 167.795 11.0757 167.935 10.9362C168.217 10.6544 168.599 10.4961 168.997 10.4961C169.195 10.4961 169.39 10.535 169.572 10.6105C169.755 10.686 169.92 10.7967 170.06 10.9362L174.06 14.9362C174.2 15.0755 174.311 15.241 174.387 15.4233C174.463 15.6056 174.502 15.801 174.502 15.9984C174.502 16.1959 174.463 16.3914 174.387 16.5737C174.312 16.7561 174.201 16.9218 174.061 17.0612Z" fill="currentColor"/>
<path d="M221.708 16.7073L217.708 20.7073C217.568 20.8473 217.389 20.9427 217.195 20.9813C217.001 21.02 216.8 21.0002 216.617 20.9244C216.434 20.8487 216.278 20.7204 216.168 20.5558C216.058 20.3912 216 20.1977 216 19.9998V16.9998H200V19.9998C200 20.1977 199.942 20.3912 199.832 20.5558C199.722 20.7204 199.566 20.8487 199.383 20.9244C199.2 21.0002 198.999 21.02 198.805 20.9813C198.611 20.9427 198.432 20.8473 198.293 20.7073L194.293 16.7073C194.2 16.6144 194.126 16.5041 194.075 16.3828C194.025 16.2614 193.999 16.1312 193.999 15.9998C193.999 15.8684 194.025 15.7383 194.075 15.6169C194.126 15.4955 194.2 15.3852 194.293 15.2923L198.293 11.2923C198.432 11.1523 198.611 11.0569 198.805 11.0183C198.999 10.9796 199.2 10.9994 199.383 11.0752C199.566 11.1509 199.722 11.2792 199.832 11.4438C199.942 11.6084 200 11.8019 200 11.9998V14.9998H216V11.9998C216 11.8019 216.058 11.6084 216.168 11.4438C216.278 11.2792 216.434 11.1509 216.617 11.0752C216.8 10.9994 217.001 10.9796 217.195 11.0183C217.389 11.0569 217.568 11.1523 217.708 11.2923L221.708 15.2923C221.801 15.3852 221.874 15.4955 221.925 15.6169C221.975 15.7383 222.001 15.8684 222.001 15.9998C222.001 16.1312 221.975 16.2614 221.925 16.3828C221.874 16.5041 221.801 16.6144 221.708 16.7073Z" fill="currentColor"/>
<path opacity="0.2" d="M243 16L247 12V20L243 16ZM265 12V20L269 16L265 12Z" fill="currentColor"/>
<path d="M269.708 15.2923L265.708 11.2923C265.568 11.1523 265.389 11.0569 265.195 11.0183C265.001 10.9796 264.8 10.9994 264.617 11.0752C264.434 11.1509 264.278 11.2792 264.168 11.4438C264.058 11.6084 264 11.8019 264 11.9998V14.9998H248V11.9998C248 11.8019 247.942 11.6084 247.832 11.4438C247.722 11.2792 247.566 11.1509 247.383 11.0752C247.2 10.9994 246.999 10.9796 246.805 11.0183C246.611 11.0569 246.432 11.1523 246.293 11.2923L242.293 15.2923C242.2 15.3852 242.126 15.4955 242.075 15.6169C242.025 15.7383 241.999 15.8684 241.999 15.9998C241.999 16.1312 242.025 16.2614 242.075 16.3828C242.126 16.5041 242.2 16.6144 242.293 16.7073L246.293 20.7073C246.432 20.8473 246.611 20.9427 246.805 20.9813C246.999 21.02 247.2 21.0002 247.383 20.9244C247.566 20.8487 247.722 20.7204 247.832 20.5558C247.942 20.3912 248 20.1977 248 19.9998V16.9998H264V19.9998C264 20.1977 264.058 20.3912 264.168 20.5558C264.278 20.7204 264.434 20.8487 264.617 20.9244C264.8 21.0002 265.001 21.02 265.195 20.9813C265.389 20.9427 265.568 20.8473 265.708 20.7073L269.708 16.7073C269.801 16.6144 269.874 16.5041 269.925 16.3828C269.975 16.2614 270.001 16.1312 270.001 15.9998C270.001 15.8684 269.975 15.7383 269.925 15.6169C269.874 15.4955 269.801 15.3852 269.708 15.2923ZM246 17.5861L244.414 15.9998L246 14.4136V17.5861ZM266 17.5861V14.4136L267.586 15.9998L266 17.5861Z" fill="currentColor"/>
</g>
<defs>
<clipPath id="clip0_17_6058">
<rect width="272" height="32" rx="5" fill="white"/>
</clipPath>
</defs>
</svg>
