<svg width="272" height="32" viewBox="0 0 272 32" fill="none" xmlns="http://www.w3.org/2000/svg">
<g clip-path="url(#clip0_17_5988)">
<path d="M26.7076 6.70757L20.4138 13.0001H24.0001C24.2653 13.0001 24.5196 13.1054 24.7072 13.293C24.8947 13.4805 25.0001 13.7349 25.0001 14.0001C25.0001 14.2653 24.8947 14.5196 24.7072 14.7072C24.5196 14.8947 24.2653 15.0001 24.0001 15.0001H18.0001C17.7349 15.0001 17.4805 14.8947 17.293 14.7072C17.1054 14.5196 17.0001 14.2653 17.0001 14.0001V8.00007C17.0001 7.73485 17.1054 7.4805 17.293 7.29296C17.4805 7.10542 17.7349 7.00007 18.0001 7.00007C18.2653 7.00007 18.5196 7.10542 18.7072 7.29296C18.8947 7.4805 19.0001 7.73485 19.0001 8.00007V11.5863L25.2926 5.29257C25.4802 5.10493 25.7347 4.99951 26.0001 4.99951C26.2654 4.99951 26.5199 5.10493 26.7076 5.29257C26.8952 5.48021 27.0006 5.7347 27.0006 6.00007C27.0006 6.26543 26.8952 6.51993 26.7076 6.70757ZM14.0001 17.0001H8.00007C7.73485 17.0001 7.4805 17.1054 7.29296 17.293C7.10542 17.4805 7.00007 17.7349 7.00007 18.0001C7.00007 18.2653 7.10542 18.5196 7.29296 18.7072C7.4805 18.8947 7.73485 19.0001 8.00007 19.0001H11.5863L5.29257 25.2926C5.10493 25.4802 4.99951 25.7347 4.99951 26.0001C4.99951 26.2654 5.10493 26.5199 5.29257 26.7076C5.48021 26.8952 5.7347 27.0006 6.00007 27.0006C6.26543 27.0006 6.51993 26.8952 6.70757 26.7076L13.0001 20.4138V24.0001C13.0001 24.2653 13.1054 24.5196 13.293 24.7072C13.4805 24.8947 13.7349 25.0001 14.0001 25.0001C14.2653 25.0001 14.5196 24.8947 14.7072 24.7072C14.8947 24.5196 15.0001 24.2653 15.0001 24.0001V18.0001C15.0001 17.7349 14.8947 17.4805 14.7072 17.293C14.5196 17.1054 14.2653 17.0001 14.0001 17.0001Z" fill="currentColor"/>
<path d="M74.3538 6.35354L67.2075 13.4998H72C72.1326 13.4998 72.2598 13.5525 72.3536 13.6462C72.4474 13.74 72.5 13.8672 72.5 13.9998C72.5 14.1324 72.4474 14.2596 72.3536 14.3533C72.2598 14.4471 72.1326 14.4998 72 14.4998H66C65.8674 14.4998 65.7402 14.4471 65.6465 14.3533C65.5527 14.2596 65.5 14.1324 65.5 13.9998V7.99979C65.5 7.86718 65.5527 7.74 65.6465 7.64624C65.7402 7.55247 65.8674 7.49979 66 7.49979C66.1326 7.49979 66.2598 7.55247 66.3536 7.64624C66.4474 7.74 66.5 7.86718 66.5 7.99979V12.7923L73.6463 5.64604C73.6927 5.59958 73.7479 5.56273 73.8086 5.53759C73.8693 5.51245 73.9343 5.49951 74 5.49951C74.0657 5.49951 74.1308 5.51245 74.1915 5.53759C74.2522 5.56273 74.3073 5.59958 74.3538 5.64604C74.4002 5.69249 74.4371 5.74764 74.4622 5.80834C74.4874 5.86904 74.5003 5.93409 74.5003 5.99979C74.5003 6.06549 74.4874 6.13054 74.4622 6.19124C74.4371 6.25193 74.4002 6.30708 74.3538 6.35354ZM62 17.4998H56C55.8674 17.4998 55.7402 17.5525 55.6465 17.6462C55.5527 17.74 55.5 17.8672 55.5 17.9998C55.5 18.1324 55.5527 18.2596 55.6465 18.3533C55.7402 18.4471 55.8674 18.4998 56 18.4998H60.7925L53.6463 25.646C53.5525 25.7399 53.4998 25.8671 53.4998 25.9998C53.4998 26.1325 53.5525 26.2597 53.6463 26.3535C53.7401 26.4474 53.8674 26.5001 54 26.5001C54.1327 26.5001 54.26 26.4474 54.3538 26.3535L61.5 19.2073V23.9998C61.5 24.1324 61.5527 24.2596 61.6465 24.3533C61.7402 24.4471 61.8674 24.4998 62 24.4998C62.1326 24.4998 62.2598 24.4471 62.3536 24.3533C62.4474 24.2596 62.5 24.1324 62.5 23.9998V17.9998C62.5 17.8672 62.4474 17.74 62.3536 17.6462C62.2598 17.5525 62.1326 17.4998 62 17.4998Z" fill="currentColor"/>
<path d="M122.53 6.52985L115.81 13.2498H120C120.199 13.2498 120.39 13.3289 120.53 13.4695C120.671 13.6102 120.75 13.8009 120.75 13.9998C120.75 14.1988 120.671 14.3895 120.53 14.5302C120.39 14.6708 120.199 14.7498 120 14.7498H114C113.801 14.7498 113.61 14.6708 113.47 14.5302C113.329 14.3895 113.25 14.1988 113.25 13.9998V7.99985C113.25 7.80093 113.329 7.61017 113.47 7.46952C113.61 7.32886 113.801 7.24985 114 7.24985C114.199 7.24985 114.39 7.32886 114.53 7.46952C114.671 7.61017 114.75 7.80093 114.75 7.99985V12.1898L121.47 5.46985C121.612 5.33737 121.8 5.26524 121.994 5.26867C122.189 5.2721 122.374 5.35081 122.512 5.48822C122.649 5.62564 122.728 5.81102 122.731 6.00532C122.735 6.19963 122.662 6.38767 122.53 6.52985ZM110 17.2498H104C103.801 17.2498 103.61 17.3289 103.47 17.4695C103.329 17.6102 103.25 17.8009 103.25 17.9998C103.25 18.1988 103.329 18.3895 103.47 18.5302C103.61 18.6708 103.801 18.7498 104 18.7498H108.19L101.47 25.4698C101.396 25.5385 101.337 25.6213 101.296 25.7133C101.255 25.8053 101.233 25.9046 101.231 26.0053C101.23 26.106 101.248 26.2061 101.286 26.2994C101.324 26.3928 101.38 26.4777 101.451 26.5489C101.522 26.6201 101.607 26.6762 101.7 26.714C101.794 26.7517 101.894 26.7702 101.994 26.7684C102.095 26.7667 102.194 26.7446 102.286 26.7036C102.378 26.6626 102.461 26.6035 102.53 26.5298L109.25 19.8098V23.9998C109.25 24.1988 109.329 24.3895 109.47 24.5302C109.61 24.6708 109.801 24.7498 110 24.7498C110.199 24.7498 110.39 24.6708 110.53 24.5302C110.671 24.3895 110.75 24.1988 110.75 23.9998V17.9998C110.75 17.8009 110.671 17.6102 110.53 17.4695C110.39 17.3289 110.199 17.2498 110 17.2498Z" fill="currentColor"/>
<path d="M171.061 7.06022L166.125 12.0002H168.5C168.898 12.0002 169.279 12.1583 169.561 12.4396C169.842 12.7209 170 13.1024 170 13.5002C170 13.898 169.842 14.2796 169.561 14.5609C169.279 14.8422 168.898 15.0002 168.5 15.0002H162.5C162.102 15.0002 161.721 14.8422 161.439 14.5609C161.158 14.2796 161 13.898 161 13.5002V7.50022C161 7.10239 161.158 6.72086 161.439 6.43956C161.721 6.15825 162.102 6.00022 162.5 6.00022C162.898 6.00022 163.279 6.15825 163.561 6.43956C163.842 6.72086 164 7.10239 164 7.50022V9.87522L168.939 4.93522C169.22 4.65343 169.603 4.49512 170.001 4.49512C170.4 4.49512 170.782 4.65343 171.064 4.93522C171.345 5.21701 171.504 5.5992 171.504 5.99772C171.504 6.39623 171.345 6.77843 171.064 7.06022H171.061ZM157.5 17.0002H151.5C151.102 17.0002 150.721 17.1583 150.439 17.4396C150.158 17.7209 150 18.1024 150 18.5002C150 18.898 150.158 19.2796 150.439 19.5609C150.721 19.8422 151.102 20.0002 151.5 20.0002H153.875L148.939 24.939C148.657 25.2208 148.499 25.603 148.499 26.0015C148.499 26.4 148.657 26.7822 148.939 27.064C149.22 27.3458 149.603 27.5041 150.001 27.5041C150.4 27.5041 150.782 27.3458 151.064 27.064L156 22.1252V24.5002C156 24.898 156.158 25.2796 156.439 25.5609C156.721 25.8422 157.102 26.0002 157.5 26.0002C157.898 26.0002 158.279 25.8422 158.561 25.5609C158.842 25.2796 159 24.898 159 24.5002V18.5002C159 18.1024 158.842 17.7209 158.561 17.4396C158.279 17.1583 157.898 17.0002 157.5 17.0002Z" fill="currentColor"/>
<path d="M207 17.9998V23.9998C207 24.1977 206.942 24.3912 206.832 24.5558C206.722 24.7204 206.566 24.8487 206.383 24.9244C206.2 25.0002 205.999 25.02 205.805 24.9813C205.611 24.9427 205.432 24.8473 205.293 24.7073L203 22.4136L198.708 26.7073C198.52 26.895 198.265 27.0004 198 27.0004C197.735 27.0004 197.48 26.895 197.293 26.7073C197.105 26.5197 197 26.2652 197 25.9998C197 25.7344 197.105 25.4799 197.293 25.2923L201.586 20.9998L199.293 18.7073C199.153 18.5675 199.057 18.3892 199.019 18.1951C198.98 18.001 199 17.7998 199.075 17.617C199.151 17.4342 199.279 17.278 199.444 17.1681C199.609 17.0582 199.802 16.9997 200 16.9998H206C206.265 16.9998 206.52 17.1052 206.707 17.2927C206.895 17.4802 207 17.7346 207 17.9998ZM218.708 5.29231C218.615 5.19933 218.504 5.12557 218.383 5.07525C218.262 5.02493 218.131 4.99902 218 4.99902C217.869 4.99902 217.739 5.02493 217.617 5.07525C217.496 5.12557 217.385 5.19933 217.293 5.29231L213 9.58606L210.708 7.29231C210.568 7.1523 210.389 7.05693 210.195 7.01828C210.001 6.97963 209.8 6.99944 209.617 7.07519C209.434 7.15094 209.278 7.27923 209.168 7.44383C209.058 7.60842 209 7.80191 209 7.99981V13.9998C209 14.265 209.105 14.5194 209.293 14.7069C209.48 14.8945 209.735 14.9998 210 14.9998H216C216.198 15 216.391 14.9414 216.556 14.8315C216.721 14.7217 216.849 14.5654 216.925 14.3826C217 14.1998 217.02 13.9986 216.982 13.8045C216.943 13.6104 216.848 13.4322 216.708 13.2923L214.414 10.9998L218.708 6.70731C218.801 6.61444 218.874 6.50415 218.925 6.38275C218.975 6.26135 219.001 6.13123 219.001 5.99981C219.001 5.86839 218.975 5.73827 218.925 5.61687C218.874 5.49547 218.801 5.38518 218.708 5.29231Z" fill="currentColor"/>
<path opacity="0.2" d="M264 14H258V8L264 14ZM254 24V18H248L254 24Z" fill="currentColor"/>
<path d="M266.708 5.29231C266.615 5.19933 266.504 5.12557 266.383 5.07525C266.262 5.02493 266.131 4.99902 266 4.99902C265.869 4.99902 265.739 5.02493 265.617 5.07525C265.496 5.12557 265.385 5.19933 265.293 5.29231L261 9.58606L258.708 7.29231C258.568 7.1523 258.389 7.05693 258.195 7.01828C258.001 6.97963 257.8 6.99944 257.617 7.07519C257.434 7.15094 257.278 7.27923 257.168 7.44383C257.058 7.60842 257 7.80191 257 7.99981V13.9998C257 14.265 257.105 14.5194 257.293 14.7069C257.48 14.8945 257.735 14.9998 258 14.9998H264C264.198 15 264.391 14.9414 264.556 14.8315C264.721 14.7217 264.849 14.5654 264.925 14.3826C265 14.1998 265.02 13.9986 264.982 13.8045C264.943 13.6104 264.848 13.4322 264.708 13.2923L262.414 10.9998L266.708 6.70731C266.801 6.61444 266.874 6.50415 266.925 6.38275C266.975 6.26135 267.001 6.13123 267.001 5.99981C267.001 5.86839 266.975 5.73827 266.925 5.61687C266.874 5.49547 266.801 5.38518 266.708 5.29231ZM259 12.9998V10.4136L261.586 12.9998H259ZM254 16.9998H248C247.802 16.9997 247.609 17.0582 247.444 17.1681C247.279 17.278 247.151 17.4342 247.075 17.617C247 17.7998 246.98 18.001 247.019 18.1951C247.057 18.3892 247.153 18.5675 247.293 18.7073L249.586 20.9998L245.293 25.2923C245.105 25.4799 245 25.7344 245 25.9998C245 26.2652 245.105 26.5197 245.293 26.7073C245.48 26.895 245.735 27.0004 246 27.0004C246.265 27.0004 246.52 26.895 246.708 26.7073L251 22.4136L253.293 24.7073C253.432 24.8473 253.611 24.9427 253.805 24.9813C253.999 25.02 254.2 25.0002 254.383 24.9244C254.566 24.8487 254.722 24.7204 254.832 24.5558C254.942 24.3912 255 24.1977 255 23.9998V17.9998C255 17.7346 254.895 17.4802 254.707 17.2927C254.52 17.1052 254.265 16.9998 254 16.9998ZM253 21.5861L250.414 18.9998H253V21.5861Z" fill="currentColor"/>
</g>
<defs>
<clipPath id="clip0_17_5988">
<rect width="272" height="32" rx="5" fill="white"/>
</clipPath>
</defs>
</svg>
