<svg width="272" height="32" viewBox="0 0 272 32" fill="none" xmlns="http://www.w3.org/2000/svg">
<g clip-path="url(#clip0_17_7024)">
<path d="M16 3C13.4288 3 10.9154 3.76244 8.77759 5.1909C6.63975 6.61935 4.97351 8.64968 3.98957 11.0251C3.00563 13.4006 2.74819 16.0144 3.2498 18.5362C3.75141 21.0579 4.98953 23.3743 6.80762 25.1924C8.6257 27.0105 10.9421 28.2486 13.4638 28.7502C15.9856 29.2518 18.5995 28.9944 20.9749 28.0104C23.3503 27.0265 25.3807 25.3603 26.8091 23.2224C28.2376 21.0846 29 18.5712 29 16C28.9964 12.5533 27.6256 9.24882 25.1884 6.81163C22.7512 4.37445 19.4467 3.00364 16 3ZM16 27C13.8244 27 11.6977 26.3549 9.88873 25.1462C8.07979 23.9375 6.66989 22.2195 5.83733 20.2095C5.00477 18.1995 4.78693 15.9878 5.21137 13.854C5.63581 11.7202 6.68345 9.7602 8.22183 8.22183C9.76021 6.68345 11.7202 5.6358 13.854 5.21136C15.9878 4.78692 18.1995 5.00476 20.2095 5.83733C22.2195 6.66989 23.9375 8.07979 25.1462 9.88873C26.3549 11.6977 27 13.8244 27 16C26.9967 18.9164 25.8367 21.7123 23.7745 23.7745C21.7123 25.8367 18.9164 26.9967 16 27ZM20.7075 16.2925C20.8005 16.3854 20.8742 16.4957 20.9246 16.6171C20.9749 16.7385 21.0008 16.8686 21.0008 17C21.0008 17.1314 20.9749 17.2615 20.9246 17.3829C20.8742 17.5043 20.8005 17.6146 20.7075 17.7075L16.7075 21.7075C16.6146 21.8005 16.5043 21.8742 16.3829 21.9246C16.2615 21.9749 16.1314 22.0008 16 22.0008C15.8686 22.0008 15.7385 21.9749 15.6171 21.9246C15.4957 21.8742 15.3854 21.8005 15.2925 21.7075L11.2925 17.7075C11.1049 17.5199 10.9994 17.2654 10.9994 17C10.9994 16.7346 11.1049 16.4801 11.2925 16.2925C11.4801 16.1049 11.7346 15.9994 12 15.9994C12.2654 15.9994 12.5199 16.1049 12.7075 16.2925L15 18.5863V11C15 10.7348 15.1054 10.4804 15.2929 10.2929C15.4804 10.1054 15.7348 10 16 10C16.2652 10 16.5196 10.1054 16.7071 10.2929C16.8946 10.4804 17 10.7348 17 11V18.5863L19.2925 16.2925C19.3854 16.1995 19.4957 16.1258 19.6171 16.0754C19.7385 16.0251 19.8686 15.9992 20 15.9992C20.1314 15.9992 20.2615 16.0251 20.3829 16.0754C20.5043 16.1258 20.6146 16.1995 20.7075 16.2925Z" fill="currentColor"/>
<path d="M64 3.5C61.5277 3.5 59.111 4.23311 57.0554 5.60663C54.9998 6.98015 53.3976 8.93238 52.4515 11.2165C51.5054 13.5005 51.2579 16.0139 51.7402 18.4386C52.2225 20.8634 53.413 23.0907 55.1612 24.8388C56.9093 26.587 59.1366 27.7775 61.5614 28.2598C63.9861 28.7421 66.4995 28.4946 68.7835 27.5485C71.0676 26.6024 73.0199 25.0002 74.3934 22.9446C75.7669 20.889 76.5 18.4723 76.5 16C76.4964 12.6859 75.1782 9.5086 72.8348 7.16518C70.4914 4.82177 67.3141 3.50364 64 3.5ZM64 27.5C61.7255 27.5 59.5021 26.8255 57.6109 25.5619C55.7198 24.2983 54.2458 22.5022 53.3754 20.4009C52.505 18.2995 52.2772 15.9872 52.721 13.7565C53.1647 11.5257 54.26 9.47658 55.8683 7.86827C57.4766 6.25997 59.5257 5.1647 61.7565 4.72097C63.9872 4.27724 66.2995 4.50498 68.4009 5.37539C70.5022 6.24579 72.2983 7.71978 73.5619 9.61094C74.8255 11.5021 75.5 13.7255 75.5 16C75.4967 19.049 74.284 21.9721 72.1281 24.1281C69.9721 26.284 67.049 27.4967 64 27.5ZM68.3538 16.6462C68.4002 16.6927 68.4371 16.7478 68.4623 16.8085C68.4874 16.8692 68.5004 16.9343 68.5004 17C68.5004 17.0657 68.4874 17.1308 68.4623 17.1915C68.4371 17.2522 68.4002 17.3073 68.3538 17.3538L64.3538 21.3538C64.3073 21.4002 64.2522 21.4371 64.1915 21.4623C64.1308 21.4874 64.0657 21.5004 64 21.5004C63.9343 21.5004 63.8692 21.4874 63.8085 21.4623C63.7478 21.4371 63.6927 21.4002 63.6463 21.3538L59.6463 17.3538C59.5524 17.2599 59.4997 17.1327 59.4997 17C59.4997 16.8673 59.5524 16.7401 59.6463 16.6462C59.7401 16.5524 59.8673 16.4997 60 16.4997C60.1327 16.4997 60.2599 16.5524 60.3538 16.6462L63.5 19.7925V11C63.5 10.8674 63.5527 10.7402 63.6465 10.6464C63.7402 10.5527 63.8674 10.5 64 10.5C64.1326 10.5 64.2598 10.5527 64.3536 10.6464C64.4473 10.7402 64.5 10.8674 64.5 11V19.7925L67.6463 16.6462C67.6927 16.5998 67.7478 16.5629 67.8085 16.5377C67.8692 16.5126 67.9343 16.4996 68 16.4996C68.0657 16.4996 68.1308 16.5126 68.1915 16.5377C68.2522 16.5629 68.3073 16.5998 68.3538 16.6462Z" fill="currentColor"/>
<path d="M112 3.25C109.478 3.25 107.013 3.99777 104.916 5.39876C102.82 6.79975 101.186 8.79103 100.221 11.1208C99.2555 13.4505 99.003 16.0141 99.495 18.4874C99.987 20.9607 101.201 23.2325 102.984 25.0156C104.768 26.7987 107.039 28.0131 109.513 28.505C111.986 28.997 114.549 28.7445 116.879 27.7795C119.209 26.8144 121.2 25.1802 122.601 23.0835C124.002 20.9868 124.75 18.5217 124.75 16C124.746 12.6197 123.401 9.379 121.011 6.98877C118.621 4.59854 115.38 3.25397 112 3.25ZM112 27.25C109.775 27.25 107.6 26.5902 105.75 25.354C103.9 24.1179 102.458 22.3609 101.606 20.3052C100.755 18.2495 100.532 15.9875 100.966 13.8052C101.4 11.6229 102.472 9.61839 104.045 8.04505C105.618 6.47171 107.623 5.40025 109.805 4.96617C111.988 4.53208 114.25 4.75487 116.305 5.60636C118.361 6.45784 120.118 7.89978 121.354 9.74984C122.59 11.5999 123.25 13.775 123.25 16C123.247 18.9827 122.06 21.8422 119.951 23.9513C117.842 26.0604 114.983 27.2467 112 27.25ZM116.53 16.47C116.67 16.6106 116.749 16.8012 116.749 17C116.749 17.1988 116.67 17.3894 116.53 17.53L112.53 21.53C112.389 21.6705 112.199 21.7493 112 21.7493C111.801 21.7493 111.611 21.6705 111.47 21.53L107.47 17.53C107.338 17.3878 107.265 17.1998 107.269 17.0055C107.272 16.8112 107.351 16.6258 107.488 16.4884C107.626 16.351 107.811 16.2723 108.005 16.2688C108.2 16.2654 108.388 16.3375 108.53 16.47L111.25 19.1887V11C111.25 10.8011 111.329 10.6103 111.47 10.4697C111.61 10.329 111.801 10.25 112 10.25C112.199 10.25 112.39 10.329 112.53 10.4697C112.671 10.6103 112.75 10.8011 112.75 11V19.1887L115.47 16.47C115.611 16.3295 115.801 16.2507 116 16.2507C116.199 16.2507 116.389 16.3295 116.53 16.47Z" fill="currentColor"/>
<path d="M160 2.5C157.33 2.5 154.72 3.29176 152.5 4.77516C150.28 6.25856 148.549 8.36697 147.528 10.8338C146.506 13.3006 146.239 16.015 146.759 18.6337C147.28 21.2525 148.566 23.6579 150.454 25.5459C152.342 27.434 154.748 28.7197 157.366 29.2406C159.985 29.7615 162.699 29.4942 165.166 28.4724C167.633 27.4506 169.741 25.7203 171.225 23.5002C172.708 21.2801 173.5 18.67 173.5 16C173.496 12.4208 172.072 8.98932 169.542 6.45844C167.011 3.92756 163.579 2.50397 160 2.5ZM160 26.5C157.923 26.5 155.893 25.8842 154.167 24.7304C152.44 23.5767 151.094 21.9368 150.299 20.0182C149.505 18.0996 149.297 15.9884 149.702 13.9516C150.107 11.9148 151.107 10.0438 152.575 8.57538C154.044 7.10693 155.915 6.1069 157.952 5.70175C159.988 5.29661 162.1 5.50454 164.018 6.29926C165.937 7.09399 167.577 8.4398 168.73 10.1665C169.884 11.8932 170.5 13.9233 170.5 16C170.497 18.7839 169.39 21.4528 167.421 23.4213C165.453 25.3898 162.784 26.497 160 26.5ZM165.061 15.9388C165.201 16.0781 165.312 16.2437 165.388 16.426C165.463 16.6083 165.502 16.8038 165.502 17.0012C165.502 17.1987 165.463 17.3941 165.388 17.5765C165.312 17.7588 165.201 17.9244 165.061 18.0637L161.061 22.0637C160.922 22.2036 160.756 22.3145 160.574 22.3903C160.392 22.466 160.196 22.5049 159.999 22.5049C159.801 22.5049 159.606 22.466 159.424 22.3903C159.241 22.3145 159.076 22.2036 158.936 22.0637L154.936 18.0637C154.797 17.9242 154.686 17.7586 154.611 17.5763C154.535 17.394 154.496 17.1986 154.496 17.0012C154.496 16.8039 154.535 16.6085 154.611 16.4262C154.686 16.2439 154.797 16.0783 154.936 15.9388C155.076 15.7992 155.241 15.6885 155.424 15.613C155.606 15.5375 155.801 15.4986 155.999 15.4986C156.196 15.4986 156.391 15.5375 156.574 15.613C156.756 15.6885 156.922 15.7992 157.061 15.9388L158.5 17.375V11C158.5 10.6022 158.658 10.2206 158.939 9.93934C159.221 9.65804 159.602 9.5 160 9.5C160.398 9.5 160.779 9.65804 161.061 9.93934C161.342 10.2206 161.5 10.6022 161.5 11V17.375L162.939 15.935C163.078 15.7958 163.244 15.6854 163.426 15.6103C163.608 15.5351 163.804 15.4966 164.001 15.4969C164.198 15.4973 164.393 15.5365 164.575 15.6123C164.757 15.6881 164.922 15.799 165.061 15.9388Z" fill="currentColor"/>
<path d="M208 3C205.429 3 202.915 3.76244 200.778 5.1909C198.64 6.61935 196.974 8.64968 195.99 11.0251C195.006 13.4006 194.748 16.0144 195.25 18.5362C195.751 21.0579 196.99 23.3743 198.808 25.1924C200.626 27.0105 202.942 28.2486 205.464 28.7502C207.986 29.2518 210.599 28.9944 212.975 28.0104C215.35 27.0265 217.381 25.3603 218.809 23.2224C220.238 21.0846 221 18.5712 221 16C220.996 12.5533 219.626 9.24882 217.188 6.81163C214.751 4.37445 211.447 3.00364 208 3ZM212.708 17.7075L208.708 21.7075C208.615 21.8005 208.504 21.8742 208.383 21.9246C208.262 21.9749 208.131 22.0008 208 22.0008C207.869 22.0008 207.738 21.9749 207.617 21.9246C207.496 21.8742 207.385 21.8005 207.293 21.7075L203.293 17.7075C203.105 17.5199 202.999 17.2654 202.999 17C202.999 16.7346 203.105 16.4801 203.293 16.2925C203.48 16.1049 203.735 15.9994 204 15.9994C204.265 15.9994 204.52 16.1049 204.708 16.2925L207 18.5863V11C207 10.7348 207.105 10.4804 207.293 10.2929C207.48 10.1054 207.735 10 208 10C208.265 10 208.52 10.1054 208.707 10.2929C208.895 10.4804 209 10.7348 209 11V18.5863L211.293 16.2925C211.48 16.1049 211.735 15.9994 212 15.9994C212.265 15.9994 212.52 16.1049 212.708 16.2925C212.895 16.4801 213.001 16.7346 213.001 17C213.001 17.2654 212.895 17.5199 212.708 17.7075Z" fill="currentColor"/>
<path opacity="0.2" d="M268 16C268 18.3734 267.296 20.6935 265.978 22.6668C264.659 24.6402 262.785 26.1783 260.592 27.0866C258.399 27.9948 255.987 28.2324 253.659 27.7694C251.331 27.3064 249.193 26.1635 247.515 24.4853C245.836 22.8071 244.694 20.6689 244.231 18.3411C243.768 16.0133 244.005 13.6005 244.913 11.4078C245.822 9.21509 247.36 7.34094 249.333 6.02236C251.307 4.70379 253.627 4 256 4C259.183 4 262.235 5.26428 264.485 7.51472C266.736 9.76515 268 12.8174 268 16Z" fill="currentColor"/>
<path d="M256 3C253.429 3 250.915 3.76244 248.778 5.1909C246.64 6.61935 244.974 8.64968 243.99 11.0251C243.006 13.4006 242.748 16.0144 243.25 18.5362C243.751 21.0579 244.99 23.3743 246.808 25.1924C248.626 27.0105 250.942 28.2486 253.464 28.7502C255.986 29.2518 258.599 28.9944 260.975 28.0104C263.35 27.0265 265.381 25.3603 266.809 23.2224C268.238 21.0846 269 18.5712 269 16C268.996 12.5533 267.626 9.24882 265.188 6.81163C262.751 4.37445 259.447 3.00364 256 3ZM256 27C253.824 27 251.698 26.3549 249.889 25.1462C248.08 23.9375 246.67 22.2195 245.837 20.2095C245.005 18.1995 244.787 15.9878 245.211 13.854C245.636 11.7202 246.683 9.7602 248.222 8.22183C249.76 6.68345 251.72 5.6358 253.854 5.21136C255.988 4.78692 258.2 5.00476 260.21 5.83733C262.22 6.66989 263.937 8.07979 265.146 9.88873C266.355 11.6977 267 13.8244 267 16C266.997 18.9164 265.837 21.7123 263.775 23.7745C261.712 25.8367 258.916 26.9967 256 27ZM260.708 16.2925C260.8 16.3854 260.874 16.4957 260.925 16.6171C260.975 16.7385 261.001 16.8686 261.001 17C261.001 17.1314 260.975 17.2615 260.925 17.3829C260.874 17.5043 260.8 17.6146 260.708 17.7075L256.708 21.7075C256.615 21.8005 256.504 21.8742 256.383 21.9246C256.262 21.9749 256.131 22.0008 256 22.0008C255.869 22.0008 255.738 21.9749 255.617 21.9246C255.496 21.8742 255.385 21.8005 255.293 21.7075L251.293 17.7075C251.105 17.5199 250.999 17.2654 250.999 17C250.999 16.7346 251.105 16.4801 251.293 16.2925C251.48 16.1049 251.735 15.9994 252 15.9994C252.265 15.9994 252.52 16.1049 252.708 16.2925L255 18.5863V11C255 10.7348 255.105 10.4804 255.293 10.2929C255.48 10.1054 255.735 10 256 10C256.265 10 256.52 10.1054 256.707 10.2929C256.895 10.4804 257 10.7348 257 11V18.5863L259.293 16.2925C259.385 16.1995 259.496 16.1258 259.617 16.0754C259.738 16.0251 259.869 15.9992 260 15.9992C260.131 15.9992 260.262 16.0251 260.383 16.0754C260.504 16.1258 260.615 16.1995 260.708 16.2925Z" fill="currentColor"/>
</g>
<defs>
<clipPath id="clip0_17_7024">
<rect width="272" height="32" rx="5" fill="white"/>
</clipPath>
</defs>
</svg>
