<svg width="272" height="32" viewBox="0 0 272 32" fill="none" xmlns="http://www.w3.org/2000/svg">
<g clip-path="url(#clip0_17_6772)">
<path d="M30.0001 10V19C30.0001 19.2652 29.8947 19.5196 29.7072 19.7071C29.5196 19.8946 29.2653 20 29.0001 20C28.7349 20 28.4805 19.8946 28.293 19.7071C28.1054 19.5196 28.0001 19.2652 28.0001 19V12.4137L15.7076 24.7075C15.6147 24.8005 15.5044 24.8742 15.383 24.9246C15.2616 24.9749 15.1315 25.0008 15.0001 25.0008C14.8687 25.0008 14.7385 24.9749 14.6171 24.9246C14.4957 24.8742 14.3854 24.8005 14.2926 24.7075L2.29257 12.7075C2.10493 12.5199 1.99951 12.2654 1.99951 12C1.99951 11.7346 2.10493 11.4801 2.29257 11.2925C2.48021 11.1049 2.7347 10.9994 3.00007 10.9994C3.26543 10.9994 3.51993 11.1049 3.70757 11.2925L15.0001 22.5863L26.5863 11H20.0001C19.7349 11 19.4805 10.8946 19.293 10.7071C19.1054 10.5196 19.0001 10.2652 19.0001 10C19.0001 9.73478 19.1054 9.48043 19.293 9.29289C19.4805 9.10536 19.7349 9 20.0001 9H29.0001C29.2653 9 29.5196 9.10536 29.7072 9.29289C29.8947 9.48043 30.0001 9.73478 30.0001 10Z" fill="currentColor"/>
<path d="M77.5 10V19C77.5 19.1326 77.4474 19.2598 77.3536 19.3536C77.2598 19.4473 77.1326 19.5 77 19.5C76.8674 19.5 76.7402 19.4473 76.6465 19.3536C76.5527 19.2598 76.5 19.1326 76.5 19V11.2075L63.3538 24.3538C63.3073 24.4002 63.2522 24.4371 63.1915 24.4623C63.1308 24.4874 63.0657 24.5004 63 24.5004C62.9343 24.5004 62.8693 24.4874 62.8086 24.4623C62.7479 24.4371 62.6927 24.4002 62.6463 24.3538L50.6463 12.3538C50.5525 12.2599 50.4998 12.1327 50.4998 12C50.4998 11.8673 50.5525 11.7401 50.6463 11.6462C50.7401 11.5524 50.8674 11.4997 51 11.4997C51.1327 11.4997 51.26 11.5524 51.3538 11.6462L63 23.2925L75.7925 10.5H68C67.8674 10.5 67.7402 10.4473 67.6465 10.3536C67.5527 10.2598 67.5 10.1326 67.5 10C67.5 9.86739 67.5527 9.74021 67.6465 9.64645C67.7402 9.55268 67.8674 9.5 68 9.5H77C77.1326 9.5 77.2598 9.55268 77.3536 9.64645C77.4474 9.74021 77.5 9.86739 77.5 10Z" fill="currentColor"/>
<path d="M125.75 10V19C125.75 19.1989 125.671 19.3897 125.53 19.5303C125.39 19.671 125.199 19.75 125 19.75C124.801 19.75 124.61 19.671 124.47 19.5303C124.329 19.3897 124.25 19.1989 124.25 19V11.81L111.53 24.53C111.389 24.6705 111.199 24.7493 111 24.7493C110.801 24.7493 110.611 24.6705 110.47 24.53L98.4701 12.53C98.3376 12.3878 98.2655 12.1998 98.2689 12.0055C98.2723 11.8112 98.3511 11.6258 98.4885 11.4884C98.6259 11.351 98.8113 11.2723 99.0056 11.2688C99.1999 11.2654 99.3879 11.3375 99.5301 11.47L111 22.9387L123.19 10.75H116C115.801 10.75 115.61 10.671 115.47 10.5303C115.329 10.3897 115.25 10.1989 115.25 10C115.25 9.80109 115.329 9.61032 115.47 9.46967C115.61 9.32902 115.801 9.25 116 9.25H125C125.199 9.25 125.39 9.32902 125.53 9.46967C125.671 9.61032 125.75 9.80109 125.75 10Z" fill="currentColor"/>
<path d="M174.5 10V19C174.5 19.3978 174.342 19.7794 174.061 20.0607C173.779 20.342 173.398 20.5 173 20.5C172.602 20.5 172.221 20.342 171.939 20.0607C171.658 19.7794 171.5 19.3978 171.5 19V13.625L160.061 25.065C159.922 25.2048 159.756 25.3158 159.574 25.3915C159.392 25.4672 159.196 25.5062 158.999 25.5062C158.801 25.5062 158.606 25.4672 158.423 25.3915C158.241 25.3158 158.076 25.2048 157.936 25.065L145.936 13.065C145.654 12.7832 145.496 12.401 145.496 12.0025C145.496 11.604 145.654 11.2218 145.936 10.94C146.218 10.6582 146.6 10.4999 146.999 10.4999C147.397 10.4999 147.779 10.6582 148.061 10.94L159 21.875L169.375 11.5H164C163.602 11.5 163.221 11.342 162.939 11.0607C162.658 10.7794 162.5 10.3978 162.5 10C162.5 9.60218 162.658 9.22064 162.939 8.93934C163.221 8.65804 163.602 8.5 164 8.5H173C173.398 8.5 173.779 8.65804 174.061 8.93934C174.342 9.22064 174.5 9.60218 174.5 10Z" fill="currentColor"/>
<path d="M222 10V19C222 19.1979 221.942 19.3914 221.832 19.556C221.722 19.7206 221.566 19.8489 221.383 19.9246C221.2 20.0004 220.999 20.0202 220.805 19.9815C220.611 19.9429 220.432 19.8475 220.293 19.7075L216.5 15.9138L207.708 24.7075C207.615 24.8005 207.504 24.8742 207.383 24.9246C207.262 24.9749 207.131 25.0008 207 25.0008C206.869 25.0008 206.739 24.9749 206.617 24.9246C206.496 24.8742 206.385 24.8005 206.293 24.7075L194.293 12.7075C194.105 12.5199 194 12.2654 194 12C194 11.7346 194.105 11.4801 194.293 11.2925C194.48 11.1049 194.735 10.9994 195 10.9994C195.265 10.9994 195.52 11.1049 195.708 11.2925L207 22.5863L215.086 14.5L211.293 10.7075C211.153 10.5676 211.057 10.3894 211.019 10.1953C210.98 10.0012 211 9.80003 211.075 9.61721C211.151 9.43439 211.279 9.27815 211.444 9.16828C211.609 9.05841 211.802 8.99984 212 9H221C221.265 9 221.52 9.10536 221.707 9.29289C221.895 9.48043 222 9.73478 222 10Z" fill="currentColor"/>
<path opacity="0.2" d="M269 10V19L260 10H269Z" fill="currentColor"/>
<path d="M269 9H260C259.802 8.99984 259.609 9.05841 259.444 9.16828C259.279 9.27815 259.151 9.43439 259.075 9.61721C259 9.80003 258.98 10.0012 259.019 10.1953C259.057 10.3894 259.153 10.5676 259.293 10.7075L263.086 14.5L255 22.5863L243.708 11.2925C243.52 11.1049 243.265 10.9994 243 10.9994C242.735 10.9994 242.48 11.1049 242.293 11.2925C242.105 11.4801 242 11.7346 242 12C242 12.2654 242.105 12.5199 242.293 12.7075L254.293 24.7075C254.385 24.8005 254.496 24.8742 254.617 24.9246C254.739 24.9749 254.869 25.0008 255 25.0008C255.131 25.0008 255.262 24.9749 255.383 24.9246C255.504 24.8742 255.615 24.8005 255.708 24.7075L264.5 15.9138L268.293 19.7075C268.432 19.8475 268.611 19.9429 268.805 19.9815C268.999 20.0202 269.2 20.0004 269.383 19.9246C269.566 19.8489 269.722 19.7206 269.832 19.556C269.942 19.3914 270 19.1979 270 19V10C270 9.73478 269.895 9.48043 269.707 9.29289C269.52 9.10536 269.265 9 269 9ZM268 16.5863L262.414 11H268V16.5863Z" fill="currentColor"/>
</g>
<defs>
<clipPath id="clip0_17_6772">
<rect width="272" height="32" rx="5" fill="white"/>
</clipPath>
</defs>
</svg>
