<svg width="272" height="32" viewBox="0 0 272 32" fill="none" xmlns="http://www.w3.org/2000/svg">
<g clip-path="url(#clip0_17_5848)">
<path d="M25.1924 6.80766C22.7544 4.36966 19.4478 3 15.9999 3C12.5521 3 9.24542 4.36966 6.80741 6.80766C4.36941 9.24566 2.99976 12.5523 2.99976 16.0002C2.99976 19.448 4.36941 22.7547 6.80741 25.1927C9.24542 27.6307 12.5521 29.0003 15.9999 29.0003C19.4478 29.0003 22.7544 27.6307 25.1924 25.1927C27.6304 22.7547 29.0001 19.448 29.0001 16.0002C29.0001 12.5523 27.6304 9.24566 25.1924 6.80766ZM23.7787 23.7789C22.2402 25.3171 20.2802 26.3646 18.1465 26.7889C16.0127 27.2132 13.8011 26.9953 11.7912 26.1627C9.78128 25.3301 8.06341 23.9202 6.85479 22.1113C5.64616 20.3024 5.00107 18.1757 5.00107 16.0002C5.00107 13.8246 5.64616 11.698 6.85479 9.88906C8.06341 8.08015 9.78128 6.67025 11.7912 5.83764C13.8011 5.00503 16.0127 4.7871 18.1465 5.2114C20.2802 5.63571 22.2402 6.68319 23.7787 8.22141C25.8386 10.2861 26.9954 13.0836 26.9954 16.0002C26.9954 18.9167 25.8386 21.7142 23.7787 23.7789ZM20.7074 10.2927C20.8004 10.3855 20.8742 10.4958 20.9245 10.6172C20.9748 10.7386 21.0007 10.8687 21.0007 11.0002C21.0007 11.1316 20.9748 11.2617 20.9245 11.3831C20.8742 11.5045 20.8004 11.6148 20.7074 11.7077L16.7074 15.7077C16.6145 15.8006 16.5043 15.8744 16.3829 15.9247C16.2615 15.975 16.1313 16.0009 15.9999 16.0009C15.8685 16.0009 15.7384 15.975 15.617 15.9247C15.4956 15.8744 15.3853 15.8006 15.2924 15.7077L11.2924 11.7077C11.1048 11.52 10.9994 11.2655 10.9994 11.0002C10.9994 10.7348 11.1048 10.4803 11.2924 10.2927C11.4801 10.105 11.7346 9.9996 11.9999 9.9996C12.2653 9.9996 12.5198 10.105 12.7074 10.2927L15.9999 13.5864L19.2924 10.2927C19.3853 10.1997 19.4956 10.1259 19.617 10.0756C19.7384 10.0253 19.8685 9.99937 19.9999 9.99937C20.1313 9.99937 20.2615 10.0253 20.3829 10.0756C20.5043 10.1259 20.6145 10.1997 20.7074 10.2927ZM20.7074 17.2927C20.8004 17.3855 20.8742 17.4958 20.9245 17.6172C20.9748 17.7386 21.0007 17.8687 21.0007 18.0002C21.0007 18.1316 20.9748 18.2617 20.9245 18.3831C20.8742 18.5045 20.8004 18.6148 20.7074 18.7077L16.7074 22.7077C16.6145 22.8006 16.5043 22.8744 16.3829 22.9247C16.2615 22.975 16.1313 23.0009 15.9999 23.0009C15.8685 23.0009 15.7384 22.975 15.617 22.9247C15.4956 22.8744 15.3853 22.8006 15.2924 22.7077L11.2924 18.7077C11.1048 18.52 10.9994 18.2655 10.9994 18.0002C10.9994 17.7348 11.1048 17.4803 11.2924 17.2927C11.4801 17.105 11.7346 16.9996 11.9999 16.9996C12.2653 16.9996 12.5198 17.105 12.7074 17.2927L15.9999 20.5864L19.2924 17.2927C19.3853 17.1997 19.4956 17.1259 19.617 17.0756C19.7384 17.0253 19.8685 16.9994 19.9999 16.9994C20.1313 16.9994 20.2615 17.0253 20.3829 17.0756C20.5043 17.1259 20.6145 17.1997 20.7074 17.2927Z" fill="currentColor"/>
<path d="M72.8386 7.16139C71.6798 5.99231 70.3014 5.06364 68.7826 4.42871C67.2639 3.79377 65.6347 3.46506 63.9886 3.46146C62.3424 3.45785 60.7118 3.77942 59.1903 4.4077C57.6688 5.03598 56.2863 5.9586 55.1223 7.12259C53.9584 8.28658 53.0357 9.66902 52.4075 11.1905C51.7792 12.712 51.4576 14.3427 51.4612 15.9888C51.4648 17.6349 51.7935 19.2641 52.4285 20.7829C53.0634 22.3016 53.9921 23.68 55.1611 24.8389C56.32 26.008 57.6984 26.9366 59.2172 27.5716C60.7359 28.2065 62.3651 28.5352 64.0112 28.5388C65.6574 28.5424 67.288 28.2208 68.8095 27.5926C70.331 26.9643 71.7134 26.0417 72.8774 24.8777C74.0414 23.7137 74.964 22.3313 75.5923 20.8097C76.2206 19.2882 76.5422 17.6576 76.5386 16.0115C76.535 14.3653 76.2063 12.7361 75.5713 11.2174C74.9364 9.69865 74.0077 8.32027 72.8386 7.16139ZM72.1311 24.1314C70.2497 26.0126 67.7742 27.1833 65.1264 27.4439C62.4786 27.7045 59.8223 27.039 57.6102 25.5607C55.3981 24.0824 53.767 21.8828 52.9949 19.3367C52.2227 16.7906 52.3572 14.0556 53.3756 11.5976C54.3939 9.13957 56.233 7.11071 58.5796 5.85668C60.9261 4.60266 63.6349 4.20106 66.2443 4.72032C68.8537 5.23958 71.2024 6.64756 72.8901 8.70437C74.5778 10.7612 75.5001 13.3395 75.4999 16.0001C75.5041 17.5109 75.2085 19.0075 74.6302 20.4033C74.052 21.7991 73.2025 23.0662 72.1311 24.1314ZM68.3536 10.6464C68.4001 10.6928 68.437 10.748 68.4622 10.8087C68.4873 10.8694 68.5003 10.9344 68.5003 11.0001C68.5003 11.0658 68.4873 11.1309 68.4622 11.1916C68.437 11.2523 68.4001 11.3074 68.3536 11.3539L64.3536 15.3539C64.3072 15.4004 64.2521 15.4373 64.1914 15.4624C64.1307 15.4876 64.0656 15.5005 63.9999 15.5005C63.9342 15.5005 63.8691 15.4876 63.8084 15.4624C63.7477 15.4373 63.6926 15.4004 63.6461 15.3539L59.6461 11.3539C59.5523 11.2601 59.4996 11.1328 59.4996 11.0001C59.4996 10.8675 59.5523 10.7402 59.6461 10.6464C59.74 10.5526 59.8672 10.4999 59.9999 10.4999C60.1326 10.4999 60.2598 10.5526 60.3536 10.6464L63.9999 14.2926L67.6461 10.6464C67.6926 10.5999 67.7477 10.563 67.8084 10.5379C67.8691 10.5127 67.9342 10.4997 67.9999 10.4997C68.0656 10.4997 68.1307 10.5127 68.1914 10.5379C68.2521 10.563 68.3072 10.5999 68.3536 10.6464ZM68.3536 17.6464C68.4001 17.6928 68.437 17.748 68.4622 17.8087C68.4873 17.8694 68.5003 17.9344 68.5003 18.0001C68.5003 18.0658 68.4873 18.1309 68.4622 18.1916C68.437 18.2523 68.4001 18.3074 68.3536 18.3539L64.3536 22.3539C64.3072 22.4004 64.2521 22.4373 64.1914 22.4624C64.1307 22.4876 64.0656 22.5005 63.9999 22.5005C63.9342 22.5005 63.8691 22.4876 63.8084 22.4624C63.7477 22.4373 63.6926 22.4004 63.6461 22.3539L59.6461 18.3539C59.5523 18.2601 59.4996 18.1328 59.4996 18.0001C59.4996 17.8675 59.5523 17.7402 59.6461 17.6464C59.74 17.5526 59.8672 17.4999 59.9999 17.4999C60.1326 17.4999 60.2598 17.5526 60.3536 17.6464L63.9999 21.2926L67.6461 17.6464C67.6926 17.5999 67.7477 17.563 67.8084 17.5379C67.8691 17.5127 67.9342 17.4997 67.9999 17.4997C68.0656 17.4997 68.1307 17.5127 68.1914 17.5379C68.2521 17.563 68.3072 17.5999 68.3536 17.6464Z" fill="currentColor"/>
<path d="M121.015 6.98391C119.831 5.79996 118.425 4.8608 116.879 4.22005C115.332 3.5793 113.674 3.24951 111.999 3.24951C108.618 3.24951 105.375 4.59281 102.984 6.98391C100.593 9.375 99.2493 12.618 99.2493 15.9995C99.2493 19.381 100.593 22.6241 102.984 25.0152C105.375 27.4062 108.618 28.7495 111.999 28.7495C115.381 28.7495 118.624 27.4062 121.015 25.0152C123.406 22.6241 124.749 19.381 124.749 15.9995C124.749 12.618 123.406 9.375 121.015 6.98391ZM119.955 23.9552C118.382 25.5285 116.377 26.5999 114.195 27.034C112.012 27.4681 109.75 27.2453 107.695 26.3938C105.639 25.5423 103.882 24.1004 102.646 22.2503C101.41 20.4003 100.75 18.2252 100.75 16.0002C100.75 13.7751 101.41 11.6001 102.646 9.75001C103.882 7.89996 105.639 6.45801 107.695 5.60652C109.75 4.75503 112.012 4.53224 114.195 4.96631C116.377 5.40038 118.382 6.47183 119.955 8.04516C122.062 10.1566 123.245 13.0175 123.245 16.0002C123.245 18.9829 122.062 21.8437 119.955 23.9552ZM116.53 10.4702C116.67 10.6108 116.749 10.8014 116.749 11.0002C116.749 11.1989 116.67 11.3895 116.53 11.5302L112.53 15.5302C112.389 15.6706 112.199 15.7495 112 15.7495C111.801 15.7495 111.611 15.6706 111.47 15.5302L107.47 11.5302C107.337 11.388 107.265 11.1999 107.269 11.0056C107.272 10.8113 107.351 10.6259 107.488 10.4885C107.626 10.3511 107.811 10.2724 108.005 10.269C108.2 10.2656 108.388 10.3377 108.53 10.4702L112 13.9389L115.47 10.4702C115.611 10.3297 115.801 10.2508 116 10.2508C116.199 10.2508 116.389 10.3297 116.53 10.4702ZM116.53 17.4702C116.67 17.6108 116.749 17.8014 116.749 18.0002C116.749 18.1989 116.67 18.3895 116.53 18.5302L112.53 22.5302C112.389 22.6706 112.199 22.7495 112 22.7495C111.801 22.7495 111.611 22.6706 111.47 22.5302L107.47 18.5302C107.337 18.388 107.265 18.1999 107.269 18.0056C107.272 17.8113 107.351 17.6259 107.488 17.4885C107.626 17.3511 107.811 17.2724 108.005 17.269C108.2 17.2656 108.388 17.3377 108.53 17.4702L112 20.9389L115.47 17.4702C115.611 17.3297 115.801 17.2508 116 17.2508C116.199 17.2508 116.389 17.3297 116.53 17.4702Z" fill="currentColor"/>
<path d="M169.55 6.45001C167.661 4.56315 165.256 3.27854 162.638 2.75857C160.019 2.2386 157.305 2.50661 154.839 3.52873C152.373 4.55085 150.265 6.28119 148.782 8.501C147.3 10.7208 146.508 13.3304 146.508 16C146.508 18.6696 147.3 21.2792 148.782 23.499C150.265 25.7188 152.373 27.4492 154.839 28.4713C157.305 29.4934 160.019 29.7614 162.638 29.2414C165.256 28.7215 167.661 27.4369 169.55 25.55C172.079 23.0153 173.5 19.5808 173.5 16C173.5 12.4192 172.079 8.98467 169.55 6.45001ZM167.425 23.4275C165.956 24.8951 164.085 25.8944 162.049 26.2988C160.012 26.7033 157.901 26.4949 155.983 25.7C154.065 24.905 152.426 23.5592 151.272 21.8326C150.119 20.1061 149.503 18.0764 149.503 16C149.503 13.9236 150.119 11.8939 151.272 10.1674C152.426 8.44083 154.065 7.09501 155.983 6.30005C157.901 5.50509 160.012 5.29668 162.049 5.70116C164.085 6.10565 165.956 7.10487 167.425 8.57251C169.392 10.5435 170.498 13.2145 170.498 15.9995C170.499 18.7845 169.394 21.4559 167.427 23.4275H167.425ZM165.062 9.93626C165.202 10.0756 165.313 10.2412 165.389 10.4235C165.465 10.6059 165.504 10.8013 165.504 10.9988C165.504 11.1962 165.465 11.3917 165.389 11.574C165.313 11.7563 165.202 11.9219 165.062 12.0613L161.062 16.0613C160.923 16.2011 160.757 16.312 160.575 16.3878C160.393 16.4635 160.197 16.5024 160 16.5024C159.803 16.5024 159.607 16.4635 159.425 16.3878C159.242 16.312 159.077 16.2011 158.937 16.0613L154.937 12.0613C154.798 11.9217 154.687 11.7561 154.612 11.5738C154.536 11.3915 154.497 11.1961 154.497 10.9988C154.497 10.8014 154.536 10.606 154.612 10.4237C154.687 10.2414 154.798 10.0758 154.937 9.93626C155.077 9.79673 155.243 9.68605 155.425 9.61053C155.607 9.53502 155.803 9.49615 156 9.49615C156.197 9.49615 156.393 9.53502 156.575 9.61053C156.757 9.68605 156.923 9.79673 157.062 9.93626L160 12.875L162.941 9.93376C163.223 9.6528 163.605 9.49523 164.002 9.4957C164.4 9.49617 164.781 9.65464 165.062 9.93626ZM165.062 16.9363C165.202 17.0756 165.313 17.2412 165.389 17.4235C165.465 17.6059 165.504 17.8013 165.504 17.9988C165.504 18.1962 165.465 18.3917 165.389 18.574C165.313 18.7563 165.202 18.9219 165.062 19.0613L161.062 23.0613C160.923 23.2011 160.757 23.312 160.575 23.3878C160.393 23.4635 160.197 23.5024 160 23.5024C159.803 23.5024 159.607 23.4635 159.425 23.3878C159.242 23.312 159.077 23.2011 158.937 23.0613L154.937 19.0613C154.798 18.9217 154.687 18.7561 154.612 18.5738C154.536 18.3915 154.497 18.1961 154.497 17.9988C154.497 17.8014 154.536 17.606 154.612 17.4237C154.687 17.2414 154.798 17.0758 154.937 16.9363C155.077 16.7967 155.243 16.686 155.425 16.6105C155.607 16.535 155.803 16.4962 156 16.4962C156.197 16.4962 156.393 16.535 156.575 16.6105C156.757 16.686 156.923 16.7967 157.062 16.9363L160 19.875L162.941 16.935C163.223 16.6544 163.605 16.4973 164.003 16.4982C164.401 16.4991 164.782 16.6581 165.062 16.94V16.9363Z" fill="currentColor"/>
<path d="M217.196 6.80393C215.068 4.67159 212.266 3.34324 209.269 3.04529C206.271 2.74735 203.263 3.49825 200.757 5.17001C198.25 6.84177 196.402 9.33092 195.525 12.2132C194.649 15.0954 194.799 18.1924 195.951 20.9762C197.102 23.76 199.184 26.0583 201.84 27.4794C204.496 28.9005 207.563 29.3564 210.518 28.7695C213.473 28.1825 216.132 26.589 218.044 24.2605C219.955 21.932 221 19.0127 221 16.0002C221 12.552 219.632 9.2448 217.196 6.80393ZM212.709 18.7089L208.709 22.7089C208.616 22.8019 208.505 22.8757 208.384 22.926C208.263 22.9763 208.133 23.0022 208.001 23.0022C207.87 23.0022 207.74 22.9763 207.618 22.926C207.497 22.8757 207.387 22.8019 207.294 22.7089L203.294 18.7089C203.201 18.616 203.127 18.5057 203.077 18.3843C203.026 18.2629 203.001 18.1328 203.001 18.0014C203.001 17.87 203.026 17.7399 203.077 17.6185C203.127 17.4971 203.201 17.3868 203.294 17.2939C203.387 17.201 203.497 17.1273 203.618 17.077C203.74 17.0268 203.87 17.0009 204.001 17.0009C204.133 17.0009 204.263 17.0268 204.384 17.077C204.505 17.1273 204.616 17.201 204.709 17.2939L208 20.5889L211.294 17.2939C211.481 17.1063 211.736 17.0009 212.001 17.0009C212.267 17.0009 212.521 17.1063 212.709 17.2939C212.896 17.4816 213.002 17.7361 213.002 18.0014C213.002 18.2668 212.896 18.5213 212.709 18.7089ZM212.709 11.7089L208.709 15.7089C208.616 15.8019 208.505 15.8757 208.384 15.926C208.263 15.9763 208.133 16.0022 208.001 16.0022C207.87 16.0022 207.74 15.9763 207.618 15.926C207.497 15.8757 207.387 15.8019 207.294 15.7089L203.294 11.7089C203.201 11.616 203.127 11.5057 203.077 11.3843C203.026 11.2629 203.001 11.1328 203.001 11.0014C203.001 10.87 203.026 10.7399 203.077 10.6185C203.127 10.4971 203.201 10.3868 203.294 10.2939C203.387 10.201 203.497 10.1273 203.618 10.077C203.74 10.0268 203.87 10.0009 204.001 10.0009C204.133 10.0009 204.263 10.0268 204.384 10.077C204.505 10.1273 204.616 10.201 204.709 10.2939L208 13.5852L211.294 10.2902C211.481 10.1025 211.736 9.99713 212.001 9.99713C212.267 9.99713 212.521 10.1025 212.709 10.2902C212.896 10.4778 213.002 10.7323 213.002 10.9977C213.002 11.263 212.896 11.5175 212.709 11.7052V11.7089Z" fill="currentColor"/>
<path opacity="0.2" d="M264.485 24.485C262.807 26.1633 260.669 27.3063 258.341 27.7694C256.013 28.2325 253.6 27.9949 251.407 27.0866C249.215 26.1784 247.341 24.6403 246.022 22.6669C244.703 20.6935 244 18.3734 244 16C244 13.6266 244.703 11.3065 246.022 9.33308C247.341 7.35967 249.215 5.8216 251.407 4.91338C253.6 4.00515 256.013 3.76755 258.341 4.23064C260.669 4.69373 262.807 5.8367 264.485 7.51501C266.735 9.76542 268 12.8175 268 16C268 19.1825 266.735 22.2346 264.485 24.485Z" fill="currentColor"/>
<path d="M265.192 6.80766C262.754 4.36966 259.448 3 256 3C252.552 3 249.245 4.36966 246.807 6.80766C244.369 9.24566 243 12.5523 243 16.0002C243 19.448 244.369 22.7547 246.807 25.1927C249.245 27.6307 252.552 29.0003 256 29.0003C259.448 29.0003 262.754 27.6307 265.192 25.1927C267.63 22.7547 269 19.448 269 16.0002C269 12.5523 267.63 9.24566 265.192 6.80766ZM263.779 23.7789C262.24 25.3171 260.28 26.3646 258.146 26.7889C256.013 27.2132 253.801 26.9953 251.791 26.1627C249.781 25.3301 248.063 23.9202 246.855 22.1113C245.646 20.3024 245.001 18.1757 245.001 16.0002C245.001 13.8246 245.646 11.698 246.855 9.88906C248.063 8.08015 249.781 6.67025 251.791 5.83764C253.801 5.00503 256.013 4.7871 258.146 5.2114C260.28 5.63571 262.24 6.68319 263.779 8.22141C265.839 10.2861 266.995 13.0836 266.995 16.0002C266.995 18.9167 265.839 21.7142 263.779 23.7789ZM260.707 10.2927C260.8 10.3855 260.874 10.4958 260.924 10.6172C260.975 10.7386 261.001 10.8687 261.001 11.0002C261.001 11.1316 260.975 11.2617 260.924 11.3831C260.874 11.5045 260.8 11.6148 260.707 11.7077L256.707 15.7077C256.615 15.8006 256.504 15.8744 256.383 15.9247C256.261 15.975 256.131 16.0009 256 16.0009C255.868 16.0009 255.738 15.975 255.617 15.9247C255.496 15.8744 255.385 15.8006 255.292 15.7077L251.292 11.7077C251.105 11.52 250.999 11.2655 250.999 11.0002C250.999 10.7348 251.105 10.4803 251.292 10.2927C251.48 10.105 251.735 9.9996 252 9.9996C252.265 9.9996 252.52 10.105 252.707 10.2927L256 13.5864L259.292 10.2927C259.385 10.1997 259.496 10.1259 259.617 10.0756C259.738 10.0253 259.868 9.99937 260 9.99937C260.131 9.99937 260.261 10.0253 260.383 10.0756C260.504 10.1259 260.615 10.1997 260.707 10.2927ZM260.707 17.2927C260.8 17.3855 260.874 17.4958 260.924 17.6172C260.975 17.7386 261.001 17.8687 261.001 18.0002C261.001 18.1316 260.975 18.2617 260.924 18.3831C260.874 18.5045 260.8 18.6148 260.707 18.7077L256.707 22.7077C256.615 22.8006 256.504 22.8744 256.383 22.9247C256.261 22.975 256.131 23.0009 256 23.0009C255.868 23.0009 255.738 22.975 255.617 22.9247C255.496 22.8744 255.385 22.8006 255.292 22.7077L251.292 18.7077C251.105 18.52 250.999 18.2655 250.999 18.0002C250.999 17.7348 251.105 17.4803 251.292 17.2927C251.48 17.105 251.735 16.9996 252 16.9996C252.265 16.9996 252.52 17.105 252.707 17.2927L256 20.5864L259.292 17.2927C259.385 17.1997 259.496 17.1259 259.617 17.0756C259.738 17.0253 259.868 16.9994 260 16.9994C260.131 16.9994 260.261 17.0253 260.383 17.0756C260.504 17.1259 260.615 17.1997 260.707 17.2927Z" fill="currentColor"/>
</g>
<defs>
<clipPath id="clip0_17_5848">
<rect width="272" height="32" rx="5" fill="white"/>
</clipPath>
</defs>
</svg>
