<svg width="272" height="32" viewBox="0 0 272 32" fill="none" xmlns="http://www.w3.org/2000/svg">
<g clip-path="url(#clip0_17_5820)">
<path d="M25.1924 6.80766C22.7544 4.36966 19.4478 3 15.9999 3C12.5521 3 9.24542 4.36966 6.80741 6.80766C4.36941 9.24566 2.99976 12.5523 2.99976 16.0002C2.99976 19.448 4.36941 22.7547 6.80741 25.1927C9.24542 27.6307 12.5521 29.0003 15.9999 29.0003C19.4478 29.0003 22.7544 27.6307 25.1924 25.1927C27.6304 22.7547 29.0001 19.448 29.0001 16.0002C29.0001 12.5523 27.6304 9.24566 25.1924 6.80766ZM23.7787 23.7789C22.2402 25.3171 20.2802 26.3646 18.1465 26.7889C16.0127 27.2132 13.8011 26.9953 11.7912 26.1627C9.78128 25.3301 8.06341 23.9202 6.85479 22.1113C5.64616 20.3024 5.00107 18.1757 5.00107 16.0002C5.00107 13.8246 5.64616 11.698 6.85479 9.88906C8.06341 8.08015 9.78128 6.67025 11.7912 5.83764C13.8011 5.00503 16.0127 4.7871 18.1465 5.2114C20.2802 5.63571 22.2402 6.68319 23.7787 8.22141C25.8386 10.2861 26.9954 13.0836 26.9954 16.0002C26.9954 18.9167 25.8386 21.7142 23.7787 23.7789ZM15.7074 15.2927C15.8004 15.3855 15.8741 15.4958 15.9245 15.6172C15.9748 15.7386 16.0007 15.8687 16.0007 16.0002C16.0007 16.1316 15.9748 16.2617 15.9245 16.3831C15.8741 16.5045 15.8004 16.6148 15.7074 16.7077L11.7074 20.7077C11.6145 20.8006 11.5042 20.8743 11.3828 20.9246C11.2614 20.9748 11.1313 21.0007 10.9999 21.0007C10.8685 21.0007 10.7384 20.9748 10.617 20.9246C10.4956 20.8743 10.3853 20.8006 10.2924 20.7077C10.1995 20.6147 10.1258 20.5044 10.0755 20.3831C10.0252 20.2617 9.99936 20.1316 9.99936 20.0002C9.99936 19.8688 10.0252 19.7387 10.0755 19.6173C10.1258 19.4959 10.1995 19.3856 10.2924 19.2927L13.5862 16.0002L10.2924 12.7077C10.1048 12.52 9.99936 12.2655 9.99936 12.0002C9.99936 11.7348 10.1048 11.4803 10.2924 11.2927C10.4801 11.105 10.7345 10.9996 10.9999 10.9996C11.2653 10.9996 11.5198 11.105 11.7074 11.2927L15.7074 15.2927ZM22.7074 15.2927C22.8004 15.3855 22.8742 15.4958 22.9245 15.6172C22.9748 15.7386 23.0007 15.8687 23.0007 16.0002C23.0007 16.1316 22.9748 16.2617 22.9245 16.3831C22.8742 16.5045 22.8004 16.6148 22.7074 16.7077L18.7074 20.7077C18.5198 20.8953 18.2653 21.0007 17.9999 21.0007C17.7346 21.0007 17.4801 20.8953 17.2924 20.7077C17.1048 20.52 16.9994 20.2655 16.9994 20.0002C16.9994 19.7348 17.1048 19.4803 17.2924 19.2927L20.5862 16.0002L17.2924 12.7077C17.1048 12.52 16.9994 12.2655 16.9994 12.0002C16.9994 11.7348 17.1048 11.4803 17.2924 11.2927C17.4801 11.105 17.7346 10.9996 17.9999 10.9996C18.2653 10.9996 18.5198 11.105 18.7074 11.2927L22.7074 15.2927Z" fill="currentColor"/>
<path d="M72.8386 7.16139C71.6798 5.99231 70.3014 5.06364 68.7826 4.42871C67.2639 3.79377 65.6347 3.46506 63.9886 3.46146C62.3424 3.45785 60.7118 3.77942 59.1903 4.4077C57.6688 5.03598 56.2863 5.9586 55.1223 7.12259C53.9584 8.28658 53.0357 9.66902 52.4075 11.1905C51.7792 12.712 51.4576 14.3427 51.4612 15.9888C51.4648 17.6349 51.7935 19.2641 52.4285 20.7829C53.0634 22.3016 53.9921 23.68 55.1611 24.8389C56.32 26.008 57.6984 26.9366 59.2172 27.5716C60.7359 28.2065 62.3651 28.5352 64.0112 28.5388C65.6574 28.5424 67.288 28.2208 68.8095 27.5926C70.331 26.9643 71.7134 26.0417 72.8774 24.8777C74.0414 23.7137 74.964 22.3313 75.5923 20.8097C76.2206 19.2882 76.5422 17.6576 76.5386 16.0115C76.535 14.3653 76.2063 12.7361 75.5713 11.2174C74.9364 9.69865 74.0077 8.32027 72.8386 7.16139ZM72.1311 24.1314C70.2497 26.0126 67.7742 27.1833 65.1264 27.4439C62.4786 27.7045 59.8223 27.039 57.6102 25.5607C55.3981 24.0824 53.767 21.8828 52.9949 19.3367C52.2227 16.7906 52.3572 14.0556 53.3756 11.5976C54.3939 9.13957 56.233 7.11071 58.5796 5.85668C60.9261 4.60266 63.6349 4.20106 66.2443 4.72032C68.8537 5.23958 71.2024 6.64756 72.8901 8.70437C74.5778 10.7612 75.5001 13.3395 75.4999 16.0001C75.5041 17.5109 75.2085 19.0075 74.6302 20.4033C74.052 21.7991 73.2025 23.0662 72.1311 24.1314ZM63.3536 15.6464C63.4001 15.6928 63.437 15.748 63.4622 15.8087C63.4873 15.8694 63.5003 15.9344 63.5003 16.0001C63.5003 16.0658 63.4873 16.1309 63.4622 16.1916C63.437 16.2523 63.4001 16.3074 63.3536 16.3539L59.3536 20.3539C59.2598 20.4477 59.1326 20.5004 58.9999 20.5004C58.8672 20.5004 58.74 20.4477 58.6461 20.3539C58.5523 20.2601 58.4996 20.1328 58.4996 20.0001C58.4996 19.8675 58.5523 19.7402 58.6461 19.6464L62.2924 16.0001L58.6461 12.3539C58.5523 12.2601 58.4996 12.1328 58.4996 12.0001C58.4996 11.8675 58.5523 11.7402 58.6461 11.6464C58.74 11.5526 58.8672 11.4999 58.9999 11.4999C59.1326 11.4999 59.2598 11.5526 59.3536 11.6464L63.3536 15.6464ZM70.3536 15.6464C70.4001 15.6928 70.437 15.748 70.4622 15.8087C70.4873 15.8694 70.5003 15.9344 70.5003 16.0001C70.5003 16.0658 70.4873 16.1309 70.4622 16.1916C70.437 16.2523 70.4001 16.3074 70.3536 16.3539L66.3536 20.3539C66.2598 20.4477 66.1326 20.5004 65.9999 20.5004C65.8672 20.5004 65.74 20.4477 65.6461 20.3539C65.5523 20.2601 65.4996 20.1328 65.4996 20.0001C65.4996 19.8675 65.5523 19.7402 65.6461 19.6464L69.2924 16.0001L65.6461 12.3539C65.5523 12.2601 65.4996 12.1328 65.4996 12.0001C65.4996 11.8675 65.5523 11.7402 65.6461 11.6464C65.74 11.5526 65.8672 11.4999 65.9999 11.4999C66.1326 11.4999 66.2598 11.5526 66.3536 11.6464L70.3536 15.6464Z" fill="currentColor"/>
<path d="M121.015 6.98391C119.831 5.79996 118.425 4.8608 116.879 4.22005C115.332 3.5793 113.674 3.24951 111.999 3.24951C108.618 3.24951 105.375 4.59281 102.984 6.98391C100.593 9.375 99.2493 12.618 99.2493 15.9995C99.2493 19.381 100.593 22.6241 102.984 25.0152C105.375 27.4062 108.618 28.7495 111.999 28.7495C115.381 28.7495 118.624 27.4062 121.015 25.0152C123.406 22.6241 124.749 19.381 124.749 15.9995C124.749 12.618 123.406 9.375 121.015 6.98391ZM119.955 23.9552C118.382 25.5285 116.377 26.5999 114.195 27.034C112.012 27.4681 109.75 27.2453 107.695 26.3938C105.639 25.5423 103.882 24.1004 102.646 22.2503C101.41 20.4003 100.75 18.2252 100.75 16.0002C100.75 13.7751 101.41 11.6001 102.646 9.75001C103.882 7.89996 105.639 6.45801 107.695 5.60652C109.75 4.75503 112.012 4.53224 114.195 4.96631C116.377 5.40038 118.382 6.47183 119.955 8.04516C122.062 10.1566 123.245 13.0175 123.245 16.0002C123.245 18.9829 122.062 21.8437 119.955 23.9552ZM111.53 15.4702C111.67 15.6108 111.749 15.8014 111.749 16.0002C111.749 16.1989 111.67 16.3895 111.53 16.5302L107.53 20.5302C107.388 20.6626 107.2 20.7348 107.005 20.7313C106.811 20.7279 106.626 20.6492 106.488 20.5118C106.351 20.3744 106.272 20.189 106.269 19.9947C106.265 19.8004 106.337 19.6123 106.47 19.4702L109.939 16.0002L106.47 12.5302C106.337 12.388 106.265 12.1999 106.269 12.0056C106.272 11.8113 106.351 11.6259 106.488 11.4885C106.626 11.3511 106.811 11.2724 107.005 11.269C107.2 11.2656 107.388 11.3377 107.53 11.4702L111.53 15.4702ZM118.53 15.4702C118.67 15.6108 118.749 15.8014 118.749 16.0002C118.749 16.1989 118.67 16.3895 118.53 16.5302L114.53 20.5302C114.388 20.6626 114.2 20.7348 114.005 20.7313C113.811 20.7279 113.626 20.6492 113.488 20.5118C113.351 20.3744 113.272 20.189 113.269 19.9947C113.265 19.8004 113.337 19.6123 113.47 19.4702L116.939 16.0002L113.47 12.5302C113.337 12.388 113.265 12.1999 113.269 12.0056C113.272 11.8113 113.351 11.6259 113.488 11.4885C113.626 11.3511 113.811 11.2724 114.005 11.269C114.2 11.2656 114.388 11.3377 114.53 11.4702L118.53 15.4702Z" fill="currentColor"/>
<path d="M169.55 6.45001C167.661 4.56315 165.256 3.27854 162.638 2.75857C160.019 2.2386 157.305 2.50661 154.839 3.52873C152.373 4.55085 150.265 6.28119 148.782 8.501C147.3 10.7208 146.508 13.3304 146.508 16C146.508 18.6696 147.3 21.2792 148.782 23.499C150.265 25.7188 152.373 27.4492 154.839 28.4713C157.305 29.4934 160.019 29.7614 162.638 29.2414C165.256 28.7215 167.661 27.4369 169.55 25.55C172.079 23.0153 173.5 19.5808 173.5 16C173.5 12.4192 172.079 8.98467 169.55 6.45001ZM167.425 23.4275C165.956 24.8951 164.085 25.8944 162.049 26.2988C160.012 26.7033 157.901 26.4949 155.983 25.7C154.065 24.905 152.426 23.5592 151.272 21.8326C150.119 20.1061 149.503 18.0764 149.503 16C149.503 13.9236 150.119 11.8939 151.272 10.1674C152.426 8.44083 154.065 7.09501 155.983 6.30005C157.901 5.50509 160.012 5.29668 162.049 5.70116C164.085 6.10565 165.956 7.10487 167.425 8.57251C169.392 10.5435 170.498 13.2145 170.498 15.9995C170.499 18.7845 169.394 21.4559 167.427 23.4275H167.425ZM160.059 14.9388C160.199 15.0781 160.309 15.2437 160.385 15.426C160.461 15.6084 160.5 15.8038 160.5 16.0013C160.5 16.1987 160.461 16.3942 160.385 16.5765C160.309 16.7588 160.199 16.9244 160.059 17.0638L156.059 21.0638C155.777 21.3455 155.395 21.5039 154.996 21.5039C154.598 21.5039 154.215 21.3455 153.934 21.0638C153.652 20.782 153.494 20.3998 153.494 20.0013C153.494 19.6027 153.652 19.2205 153.934 18.9388L156.875 16L153.936 13.0588C153.654 12.777 153.496 12.3948 153.496 11.9963C153.496 11.7989 153.535 11.6035 153.61 11.4212C153.686 11.2389 153.797 11.0733 153.936 10.9338C154.076 10.7942 154.241 10.6835 154.424 10.608C154.606 10.5325 154.801 10.4937 154.999 10.4937C155.397 10.4937 155.779 10.652 156.061 10.9338L160.059 14.9388ZM167.059 17.0638L163.059 21.0638C162.777 21.3455 162.395 21.5039 161.996 21.5039C161.598 21.5039 161.215 21.3455 160.934 21.0638C160.652 20.782 160.494 20.3998 160.494 20.0013C160.494 19.6027 160.652 19.2205 160.934 18.9388L163.875 16L160.935 13.0588C160.653 12.777 160.495 12.3948 160.495 11.9963C160.495 11.7989 160.534 11.6035 160.609 11.4212C160.685 11.2389 160.795 11.0733 160.935 10.9338C161.074 10.7942 161.24 10.6835 161.422 10.608C161.605 10.5325 161.8 10.4937 161.997 10.4937C162.396 10.4937 162.778 10.652 163.06 10.9338L167.06 14.9338C167.2 15.0729 167.312 15.2385 167.388 15.4209C167.464 15.6033 167.504 15.799 167.504 15.9967C167.505 16.1944 167.466 16.3903 167.39 16.573C167.315 16.7557 167.204 16.9216 167.064 17.0613L167.059 17.0638Z" fill="currentColor"/>
<path d="M217.196 6.80264C215.378 4.98583 213.061 3.74896 210.54 3.24838C208.018 2.7478 205.405 3.00599 203.03 3.9903C200.656 4.97461 198.626 6.64086 197.198 8.77842C195.77 10.916 195.008 13.4289 195.008 15.9995C195.008 18.5701 195.77 21.083 197.198 23.2206C198.626 25.3582 200.656 27.0244 203.03 28.0087C205.405 28.993 208.018 29.2512 210.54 28.7507C213.061 28.2501 215.378 27.0132 217.196 25.1964C219.632 22.7553 221 19.4478 221 15.9995C221 12.5512 219.632 9.24374 217.196 6.80264ZM207.707 16.7076L203.707 20.7076C203.615 20.8006 203.504 20.8743 203.383 20.9245C203.261 20.9748 203.131 21.0007 203 21.0007C202.869 21.0007 202.738 20.9748 202.617 20.9245C202.496 20.8743 202.385 20.8006 202.292 20.7076C202.2 20.6147 202.126 20.5044 202.076 20.383C202.025 20.2616 201.999 20.1315 201.999 20.0001C201.999 19.8687 202.025 19.7386 202.076 19.6172C202.126 19.4959 202.2 19.3856 202.292 19.2926L205.585 16.0001L202.29 12.7051C202.197 12.6122 202.123 12.5019 202.073 12.3805C202.023 12.2591 201.997 12.129 201.997 11.9976C201.997 11.8662 202.023 11.7361 202.073 11.6147C202.123 11.4934 202.197 11.3831 202.29 11.2901C202.383 11.1972 202.493 11.1235 202.615 11.0732C202.736 11.023 202.866 10.9971 202.997 10.9971C203.129 10.9971 203.259 11.023 203.38 11.0732C203.502 11.1235 203.612 11.1972 203.705 11.2901L207.705 15.2901C207.798 15.3829 207.873 15.4932 207.923 15.6147C207.974 15.7363 208.001 15.8667 208.001 15.9984C208.001 16.1301 207.975 16.2605 207.925 16.3823C207.875 16.504 207.801 16.6146 207.707 16.7076ZM214.707 16.7076L210.707 20.7076C210.52 20.8953 210.265 21.0007 210 21.0007C209.735 21.0007 209.48 20.8953 209.292 20.7076C209.105 20.52 208.999 20.2655 208.999 20.0001C208.999 19.7348 209.105 19.4803 209.292 19.2926L212.589 16.0001L209.294 12.7051C209.201 12.6122 209.127 12.5019 209.077 12.3805C209.027 12.2591 209.001 12.129 209.001 11.9976C209.001 11.8662 209.027 11.7361 209.077 11.6147C209.127 11.4934 209.201 11.3831 209.294 11.2901C209.387 11.1972 209.497 11.1235 209.618 11.0732C209.74 11.023 209.87 10.9971 210.001 10.9971C210.133 10.9971 210.263 11.023 210.384 11.0732C210.505 11.1235 210.616 11.1972 210.709 11.2901L214.709 15.2901C214.802 15.383 214.876 15.4934 214.927 15.6149C214.978 15.7365 215.004 15.8669 215.004 15.9986C215.004 16.1303 214.978 16.2608 214.928 16.3825C214.877 16.5041 214.803 16.6146 214.71 16.7076H214.707Z" fill="currentColor"/>
<path opacity="0.2" d="M264.485 24.485C262.807 26.1633 260.669 27.3063 258.341 27.7694C256.013 28.2325 253.6 27.9949 251.407 27.0866C249.215 26.1784 247.341 24.6403 246.022 22.6669C244.703 20.6935 244 18.3734 244 16C244 13.6266 244.703 11.3065 246.022 9.33308C247.341 7.35967 249.215 5.8216 251.407 4.91338C253.6 4.00515 256.013 3.76755 258.341 4.23064C260.669 4.69373 262.807 5.8367 264.485 7.51501C266.735 9.76542 268 12.8175 268 16C268 19.1825 266.735 22.2346 264.485 24.485Z" fill="currentColor"/>
<path d="M265.192 6.80766C262.754 4.36966 259.448 3 256 3C252.552 3 249.245 4.36966 246.807 6.80766C244.369 9.24566 243 12.5523 243 16.0002C243 19.448 244.369 22.7547 246.807 25.1927C249.245 27.6307 252.552 29.0003 256 29.0003C259.448 29.0003 262.754 27.6307 265.192 25.1927C267.63 22.7547 269 19.448 269 16.0002C269 12.5523 267.63 9.24566 265.192 6.80766ZM263.779 23.7789C262.24 25.3171 260.28 26.3646 258.146 26.7889C256.013 27.2132 253.801 26.9953 251.791 26.1627C249.781 25.3301 248.063 23.9202 246.855 22.1113C245.646 20.3024 245.001 18.1757 245.001 16.0002C245.001 13.8246 245.646 11.698 246.855 9.88906C248.063 8.08015 249.781 6.67025 251.791 5.83764C253.801 5.00503 256.013 4.7871 258.146 5.2114C260.28 5.63571 262.24 6.68319 263.779 8.22141C265.839 10.2861 266.995 13.0836 266.995 16.0002C266.995 18.9167 265.839 21.7142 263.779 23.7789ZM255.707 15.2927C255.8 15.3855 255.874 15.4958 255.924 15.6172C255.975 15.7386 256.001 15.8687 256.001 16.0002C256.001 16.1316 255.975 16.2617 255.924 16.3831C255.874 16.5045 255.8 16.6148 255.707 16.7077L251.707 20.7077C251.615 20.8006 251.504 20.8743 251.383 20.9246C251.261 20.9748 251.131 21.0007 251 21.0007C250.869 21.0007 250.738 20.9748 250.617 20.9246C250.496 20.8743 250.385 20.8006 250.292 20.7077C250.2 20.6147 250.126 20.5044 250.076 20.3831C250.025 20.2617 249.999 20.1316 249.999 20.0002C249.999 19.8688 250.025 19.7387 250.076 19.6173C250.126 19.4959 250.2 19.3856 250.292 19.2927L253.586 16.0002L250.292 12.7077C250.105 12.52 249.999 12.2655 249.999 12.0002C249.999 11.7348 250.105 11.4803 250.292 11.2927C250.48 11.105 250.735 10.9996 251 10.9996C251.265 10.9996 251.52 11.105 251.707 11.2927L255.707 15.2927ZM262.707 15.2927C262.8 15.3855 262.874 15.4958 262.924 15.6172C262.975 15.7386 263.001 15.8687 263.001 16.0002C263.001 16.1316 262.975 16.2617 262.924 16.3831C262.874 16.5045 262.8 16.6148 262.707 16.7077L258.707 20.7077C258.52 20.8953 258.265 21.0007 258 21.0007C257.735 21.0007 257.48 20.8953 257.292 20.7077C257.105 20.52 256.999 20.2655 256.999 20.0002C256.999 19.7348 257.105 19.4803 257.292 19.2927L260.586 16.0002L257.292 12.7077C257.105 12.52 256.999 12.2655 256.999 12.0002C256.999 11.7348 257.105 11.4803 257.292 11.2927C257.48 11.105 257.735 10.9996 258 10.9996C258.265 10.9996 258.52 11.105 258.707 11.2927L262.707 15.2927Z" fill="currentColor"/>
</g>
<defs>
<clipPath id="clip0_17_5820">
<rect width="272" height="32" rx="5" fill="white"/>
</clipPath>
</defs>
</svg>
