<svg width="272" height="32" viewBox="0 0 272 32" fill="none" xmlns="http://www.w3.org/2000/svg">
<g clip-path="url(#clip0_17_5624)">
<path d="M26.7076 20.7073C26.6147 20.8003 26.5044 20.874 26.383 20.9244C26.2616 20.9747 26.1315 21.0006 26.0001 21.0006C25.8687 21.0006 25.7385 20.9747 25.6171 20.9244C25.4957 20.874 25.3854 20.8003 25.2926 20.7073L16.0001 11.4136L6.70757 20.7073C6.51993 20.895 6.26543 21.0004 6.00007 21.0004C5.7347 21.0004 5.48021 20.895 5.29257 20.7073C5.10493 20.5197 4.99951 20.2652 4.99951 19.9998C4.99951 19.7344 5.10493 19.4799 5.29257 19.2923L15.2926 9.29231C15.3854 9.19933 15.4957 9.12557 15.6171 9.07525C15.7385 9.02493 15.8687 8.99902 16.0001 8.99902C16.1315 8.99902 16.2616 9.02493 16.383 9.07525C16.5044 9.12557 16.6147 9.19933 16.7076 9.29231L26.7076 19.2923C26.8005 19.3852 26.8743 19.4955 26.9246 19.6169C26.975 19.7383 27.0009 19.8684 27.0009 19.9998C27.0009 20.1312 26.975 20.2614 26.9246 20.3828C26.8743 20.5041 26.8005 20.6144 26.7076 20.7073Z" fill="currentColor"/>
<path d="M74.3538 20.3537C74.3073 20.4001 74.2522 20.437 74.1915 20.4622C74.1308 20.4873 74.0657 20.5003 74 20.5003C73.9343 20.5003 73.8693 20.4873 73.8086 20.4622C73.7479 20.437 73.6927 20.4001 73.6463 20.3537L64 10.7074L54.3538 20.3537C54.26 20.4475 54.1327 20.5002 54 20.5002C53.8674 20.5002 53.7401 20.4475 53.6463 20.3537C53.5525 20.2598 53.4998 20.1326 53.4998 19.9999C53.4998 19.8672 53.5525 19.74 53.6463 19.6462L63.6463 9.64615C63.6927 9.59967 63.7479 9.56279 63.8086 9.53762C63.8693 9.51246 63.9343 9.49951 64 9.49951C64.0657 9.49951 64.1308 9.51246 64.1915 9.53762C64.2522 9.56279 64.3073 9.59967 64.3538 9.64615L74.3538 19.6462C74.4003 19.6926 74.4372 19.7477 74.4623 19.8084C74.4875 19.8691 74.5004 19.9342 74.5004 19.9999C74.5004 20.0656 74.4875 20.1307 74.4623 20.1914C74.4372 20.2521 74.4003 20.3072 74.3538 20.3537Z" fill="currentColor"/>
<path d="M122.53 20.5298C122.389 20.6703 122.199 20.7492 122 20.7492C121.801 20.7492 121.611 20.6703 121.47 20.5298L112 11.0611L102.53 20.5298C102.388 20.6623 102.2 20.7344 102.006 20.731C101.811 20.7276 101.626 20.6489 101.488 20.5114C101.351 20.374 101.272 20.1887 101.269 19.9944C101.265 19.8 101.338 19.612 101.47 19.4698L111.47 9.46983C111.611 9.32938 111.801 9.25049 112 9.25049C112.199 9.25049 112.389 9.32938 112.53 9.46983L122.53 19.4698C122.671 19.6105 122.749 19.8011 122.749 19.9998C122.749 20.1986 122.671 20.3892 122.53 20.5298Z" fill="currentColor"/>
<path d="M171.061 21.0613C170.922 21.2011 170.756 21.3121 170.574 21.3878C170.392 21.4635 170.196 21.5025 169.999 21.5025C169.801 21.5025 169.606 21.4635 169.423 21.3878C169.241 21.3121 169.076 21.2011 168.936 21.0613L160 12.125L151.061 21.0613C150.779 21.3431 150.397 21.5014 149.999 21.5014C149.6 21.5014 149.218 21.3431 148.936 21.0613C148.654 20.7795 148.496 20.3973 148.496 19.9988C148.496 19.6003 148.654 19.2181 148.936 18.9363L158.936 8.9363C159.076 8.79646 159.241 8.6855 159.423 8.6098C159.606 8.53409 159.801 8.49512 159.999 8.49512C160.196 8.49512 160.392 8.53409 160.574 8.6098C160.756 8.6855 160.922 8.79646 161.061 8.9363L171.061 18.9363C171.201 19.0757 171.312 19.2412 171.388 19.4236C171.463 19.6059 171.502 19.8014 171.502 19.9988C171.502 20.1962 171.463 20.3917 171.388 20.574C171.312 20.7564 171.201 20.9219 171.061 21.0613Z" fill="currentColor"/>
<path d="M218.924 20.3823C218.848 20.5651 218.72 20.7213 218.556 20.8312C218.391 20.9411 218.198 20.9998 218 20.9998H198C197.802 21 197.609 20.9414 197.444 20.8315C197.279 20.7217 197.151 20.5654 197.075 20.3826C197 20.1998 196.98 19.9986 197.019 19.8045C197.057 19.6104 197.153 19.4322 197.293 19.2923L207.293 9.29231C207.385 9.19933 207.496 9.12557 207.617 9.07525C207.739 9.02493 207.869 8.99902 208 8.99902C208.131 8.99902 208.262 9.02493 208.383 9.07525C208.504 9.12557 208.615 9.19933 208.708 9.29231L218.708 19.2923C218.847 19.4322 218.943 19.6105 218.981 19.8045C219.02 19.9985 219 20.1996 218.924 20.3823Z" fill="currentColor"/>
<path opacity="0.2" d="M266 20H246L256 10L266 20Z" fill="currentColor"/>
<path d="M266.708 19.2923L256.708 9.29231C256.615 9.19933 256.504 9.12557 256.383 9.07525C256.262 9.02493 256.131 8.99902 256 8.99902C255.869 8.99902 255.739 9.02493 255.617 9.07525C255.496 9.12557 255.385 9.19933 255.293 9.29231L245.293 19.2923C245.153 19.4322 245.057 19.6104 245.019 19.8045C244.98 19.9986 245 20.1998 245.075 20.3826C245.151 20.5654 245.279 20.7217 245.444 20.8315C245.609 20.9414 245.802 21 246 20.9998H266C266.198 21 266.391 20.9414 266.556 20.8315C266.721 20.7217 266.849 20.5654 266.925 20.3826C267 20.1998 267.02 19.9986 266.982 19.8045C266.943 19.6104 266.848 19.4322 266.708 19.2923ZM248.414 18.9998L256 11.4136L263.586 18.9998H248.414Z" fill="currentColor"/>
</g>
<defs>
<clipPath id="clip0_17_5624">
<rect width="272" height="32" rx="5" fill="white"/>
</clipPath>
</defs>
</svg>
