<svg width="272" height="32" viewBox="0 0 272 32" fill="none" xmlns="http://www.w3.org/2000/svg">
<g clip-path="url(#clip0_17_5694)">
<path d="M17.7076 16.7076L7.70757 26.7076C7.51993 26.8952 7.26543 27.0006 7.00007 27.0006C6.7347 27.0006 6.48021 26.8952 6.29257 26.7076C6.10493 26.5199 5.99951 26.2654 5.99951 26.0001C5.99951 25.7347 6.10493 25.4802 6.29257 25.2926L15.5863 16.0001L6.29257 6.70757C6.10493 6.51993 5.99951 6.26543 5.99951 6.00007C5.99951 5.7347 6.10493 5.48021 6.29257 5.29257C6.48021 5.10493 6.7347 4.99951 7.00007 4.99951C7.26543 4.99951 7.51993 5.10493 7.70757 5.29257L17.7076 15.2926C17.8005 15.3854 17.8743 15.4957 17.9246 15.6171C17.975 15.7385 18.0009 15.8687 18.0009 16.0001C18.0009 16.1315 17.975 16.2616 17.9246 16.383C17.8743 16.5044 17.8005 16.6147 17.7076 16.7076ZM27.7076 15.2926L17.7076 5.29257C17.5199 5.10493 17.2654 4.99951 17.0001 4.99951C16.7347 4.99951 16.4802 5.10493 16.2926 5.29257C16.1049 5.48021 15.9995 5.7347 15.9995 6.00007C15.9995 6.26543 16.1049 6.51993 16.2926 6.70757L25.5863 16.0001L16.2926 25.2926C16.1049 25.4802 15.9995 25.7347 15.9995 26.0001C15.9995 26.2654 16.1049 26.5199 16.2926 26.7076C16.4802 26.8952 16.7347 27.0006 17.0001 27.0006C17.2654 27.0006 17.5199 26.8952 17.7076 26.7076L27.7076 16.7076C27.8005 16.6147 27.8743 16.5044 27.9246 16.383C27.975 16.2616 28.0009 16.1315 28.0009 16.0001C28.0009 15.8687 27.975 15.7385 27.9246 15.6171C27.8743 15.4957 27.8005 15.3854 27.7076 15.2926Z" fill="currentColor"/>
<path d="M65.3538 16.3535L55.3538 26.3535C55.3073 26.4 55.2522 26.4368 55.1915 26.462C55.1308 26.4871 55.0657 26.5001 55 26.5001C54.9343 26.5001 54.8693 26.4871 54.8086 26.462C54.7479 26.4368 54.6927 26.4 54.6463 26.3535C54.5998 26.3071 54.563 26.2519 54.5378 26.1912C54.5127 26.1305 54.4998 26.0655 54.4998 25.9998C54.4998 25.9341 54.5127 25.869 54.5378 25.8083C54.563 25.7476 54.5998 25.6925 54.6463 25.646L64.2925 15.9998L54.6463 6.35354C54.5525 6.25972 54.4998 6.13247 54.4998 5.99979C54.4998 5.86711 54.5525 5.73986 54.6463 5.64604C54.7401 5.55222 54.8674 5.49951 55 5.49951C55.1327 5.49951 55.26 5.55222 55.3538 5.64604L65.3538 15.646C65.4003 15.6925 65.4372 15.7476 65.4623 15.8083C65.4875 15.869 65.5004 15.9341 65.5004 15.9998C65.5004 16.0655 65.4875 16.1306 65.4623 16.1913C65.4372 16.252 65.4003 16.3071 65.3538 16.3535ZM75.3538 15.646L65.3538 5.64604C65.26 5.55222 65.1327 5.49951 65 5.49951C64.8674 5.49951 64.7401 5.55222 64.6463 5.64604C64.5525 5.73986 64.4998 5.86711 64.4998 5.99979C64.4998 6.13247 64.5525 6.25972 64.6463 6.35354L74.2925 15.9998L64.6463 25.646C64.5998 25.6925 64.563 25.7476 64.5378 25.8083C64.5127 25.869 64.4998 25.9341 64.4998 25.9998C64.4998 26.0655 64.5127 26.1305 64.5378 26.1912C64.563 26.2519 64.5998 26.3071 64.6463 26.3535C64.6927 26.4 64.7479 26.4368 64.8086 26.462C64.8693 26.4871 64.9343 26.5001 65 26.5001C65.0657 26.5001 65.1308 26.4871 65.1915 26.462C65.2522 26.4368 65.3073 26.4 65.3538 26.3535L75.3538 16.3535C75.4003 16.3071 75.4372 16.252 75.4623 16.1913C75.4875 16.1306 75.5004 16.0655 75.5004 15.9998C75.5004 15.9341 75.4875 15.869 75.4623 15.8083C75.4372 15.7476 75.4003 15.6925 75.3538 15.646Z" fill="currentColor"/>
<path d="M113.53 16.5298L103.53 26.5298C103.388 26.6623 103.2 26.7344 103.006 26.731C102.811 26.7276 102.626 26.6489 102.488 26.5115C102.351 26.3741 102.272 26.1887 102.269 25.9944C102.265 25.8001 102.338 25.612 102.47 25.4698L111.939 15.9998L102.47 6.52985C102.338 6.38767 102.265 6.19963 102.269 6.00532C102.272 5.81102 102.351 5.62564 102.488 5.48822C102.626 5.35081 102.811 5.2721 103.006 5.26867C103.2 5.26524 103.388 5.33737 103.53 5.46985L113.53 15.4698C113.671 15.6105 113.749 15.8011 113.749 15.9998C113.749 16.1986 113.671 16.3892 113.53 16.5298ZM123.53 15.4698L113.53 5.46985C113.388 5.33737 113.2 5.26524 113.006 5.26867C112.811 5.2721 112.626 5.35081 112.488 5.48822C112.351 5.62564 112.272 5.81102 112.269 6.00532C112.265 6.19963 112.338 6.38767 112.47 6.52985L121.939 15.9998L112.47 25.4698C112.396 25.5385 112.337 25.6213 112.296 25.7133C112.255 25.8053 112.233 25.9046 112.231 26.0053C112.23 26.106 112.248 26.2061 112.286 26.2994C112.324 26.3928 112.38 26.4777 112.451 26.5489C112.522 26.6201 112.607 26.6762 112.7 26.714C112.794 26.7517 112.894 26.7702 112.995 26.7684C113.095 26.7667 113.195 26.7446 113.287 26.7036C113.379 26.6626 113.461 26.6035 113.53 26.5298L123.53 16.5298C123.671 16.3892 123.749 16.1986 123.749 15.9998C123.749 15.8011 123.671 15.6105 123.53 15.4698Z" fill="currentColor"/>
<path d="M162.061 17.0612L152.061 27.0612C151.922 27.2007 151.756 27.3114 151.574 27.3869C151.391 27.4624 151.196 27.5013 150.999 27.5013C150.801 27.5013 150.606 27.4624 150.424 27.3869C150.241 27.3114 150.076 27.2007 149.936 27.0612C149.797 26.9217 149.686 26.756 149.61 26.5737C149.535 26.3914 149.496 26.196 149.496 25.9987C149.496 25.8014 149.535 25.606 149.61 25.4237C149.686 25.2414 149.797 25.0757 149.936 24.9362L158.875 15.9999L149.939 7.0612C149.657 6.7794 149.499 6.39721 149.499 5.9987C149.499 5.60018 149.657 5.21799 149.939 4.9362C150.22 4.6544 150.603 4.49609 151.001 4.49609C151.4 4.49609 151.782 4.6544 152.064 4.9362L162.064 14.9362C162.203 15.0757 162.314 15.2414 162.39 15.4239C162.465 15.6063 162.504 15.8018 162.504 15.9992C162.503 16.1966 162.464 16.3921 162.388 16.5743C162.312 16.7565 162.201 16.922 162.061 17.0612ZM172.061 14.9362L162.061 4.9362C161.922 4.79667 161.756 4.68599 161.574 4.61047C161.391 4.53496 161.196 4.49609 160.999 4.49609C160.801 4.49609 160.606 4.53496 160.424 4.61047C160.241 4.68599 160.076 4.79667 159.936 4.9362C159.797 5.07573 159.686 5.24137 159.61 5.42367C159.535 5.60598 159.496 5.80137 159.496 5.9987C159.496 6.19602 159.535 6.39141 159.61 6.57372C159.686 6.75602 159.797 6.92167 159.936 7.0612L168.875 15.9999L159.935 24.9387C159.653 25.2205 159.495 25.6027 159.495 26.0012C159.495 26.3997 159.653 26.7819 159.935 27.0637C160.217 27.3455 160.599 27.5038 160.997 27.5038C161.396 27.5038 161.778 27.3455 162.06 27.0637L172.06 17.0637C172.2 16.9244 172.311 16.7589 172.387 16.5766C172.463 16.3943 172.502 16.1989 172.502 16.0015C172.502 15.804 172.463 15.6085 172.387 15.4262C172.312 15.2438 172.201 15.0781 172.061 14.9387V14.9362Z" fill="currentColor"/>
<path d="M219.708 16.7073L209.708 26.7073C209.568 26.8473 209.389 26.9427 209.195 26.9813C209.001 27.02 208.8 27.0002 208.617 26.9244C208.434 26.8487 208.278 26.7204 208.168 26.5558C208.058 26.3912 208 26.1977 208 25.9998V18.4136L199.708 26.7073C199.568 26.8473 199.389 26.9427 199.195 26.9813C199.001 27.02 198.8 27.0002 198.617 26.9244C198.434 26.8487 198.278 26.7204 198.168 26.5558C198.058 26.3912 198 26.1977 198 25.9998V5.99981C198 5.80192 198.058 5.60842 198.168 5.44383C198.278 5.27923 198.434 5.15094 198.617 5.07519C198.8 4.99944 199.001 4.97963 199.195 5.01828C199.389 5.05693 199.568 5.1523 199.708 5.29231L208 13.5861V5.99981C208 5.80192 208.058 5.60842 208.168 5.44383C208.278 5.27923 208.434 5.15094 208.617 5.07519C208.8 4.99944 209.001 4.97963 209.195 5.01828C209.389 5.05693 209.568 5.1523 209.708 5.29231L219.708 15.2923C219.8 15.3852 219.874 15.4955 219.925 15.6169C219.975 15.7383 220.001 15.8684 220.001 15.9998C220.001 16.1312 219.975 16.2614 219.925 16.3828C219.874 16.5041 219.8 16.6144 219.708 16.7073Z" fill="currentColor"/>
<path opacity="0.2" d="M257 16L247 26V6L257 16Z" fill="currentColor"/>
<path d="M257.708 15.2923L247.708 5.29231C247.568 5.1523 247.389 5.05693 247.195 5.01828C247.001 4.97963 246.8 4.99944 246.617 5.07519C246.434 5.15094 246.278 5.27923 246.168 5.44383C246.058 5.60842 246 5.80192 246 5.99981V25.9998C246 26.1977 246.058 26.3912 246.168 26.5558C246.278 26.7204 246.434 26.8487 246.617 26.9244C246.8 27.0002 247.001 27.02 247.195 26.9813C247.389 26.9427 247.568 26.8473 247.708 26.7073L257.708 16.7073C257.8 16.6144 257.874 16.5041 257.925 16.3828C257.975 16.2614 258.001 16.1312 258.001 15.9998C258.001 15.8684 257.975 15.7383 257.925 15.6169C257.874 15.4955 257.8 15.3852 257.708 15.2923ZM248 23.5861V8.41356L255.586 15.9998L248 23.5861ZM267.708 16.7111L257.708 26.7111C257.52 26.8987 257.265 27.0041 257 27.0041C256.735 27.0041 256.48 26.8987 256.292 26.7111C256.105 26.5234 255.999 26.2689 255.999 26.0036C255.999 25.7382 256.105 25.4837 256.292 25.2961L265.586 15.9998L256.292 6.70731C256.105 6.51967 255.999 6.26517 255.999 5.99981C255.999 5.73445 256.105 5.47995 256.292 5.29231C256.48 5.10467 256.735 4.99925 257 4.99925C257.265 4.99925 257.52 5.10467 257.708 5.29231L267.708 15.2923C267.8 15.3852 267.874 15.4955 267.925 15.6169C267.975 15.7383 268.001 15.8684 268.001 15.9998C268.001 16.1312 267.975 16.2614 267.925 16.3828C267.874 16.5041 267.8 16.6144 267.708 16.7073V16.7111Z" fill="currentColor"/>
</g>
<defs>
<clipPath id="clip0_17_5694">
<rect width="272" height="32" rx="5" fill="white"/>
</clipPath>
</defs>
</svg>
