<svg width="272" height="32" viewBox="0 0 272 32" fill="none" xmlns="http://www.w3.org/2000/svg">
<g clip-path="url(#clip0_17_5750)">
<path d="M16 3C13.4288 3 10.9154 3.76244 8.77759 5.1909C6.63975 6.61935 4.97351 8.64968 3.98957 11.0251C3.00563 13.4006 2.74819 16.0144 3.2498 18.5362C3.75141 21.0579 4.98953 23.3743 6.80762 25.1924C8.6257 27.0105 10.9421 28.2486 13.4638 28.7502C15.9856 29.2518 18.5995 28.9944 20.9749 28.0104C23.3503 27.0265 25.3807 25.3603 26.8091 23.2224C28.2376 21.0846 29 18.5712 29 16C28.9964 12.5533 27.6256 9.24882 25.1884 6.81163C22.7512 4.37445 19.4467 3.00364 16 3ZM16 27C13.8244 27 11.6977 26.3549 9.88873 25.1462C8.07979 23.9375 6.66989 22.2195 5.83733 20.2095C5.00477 18.1995 4.78693 15.9878 5.21137 13.854C5.63581 11.7202 6.68345 9.7602 8.22183 8.22183C9.76021 6.68345 11.7202 5.6358 13.854 5.21136C15.9878 4.78692 18.1995 5.00476 20.2095 5.83733C22.2195 6.66989 23.9375 8.07979 25.1462 9.88873C26.3549 11.6977 27 13.8244 27 16C26.9967 18.9164 25.8367 21.7123 23.7745 23.7745C21.7123 25.8367 18.9164 26.9967 16 27ZM21.7075 17.2925C21.8004 17.3854 21.8741 17.4957 21.9244 17.6171C21.9747 17.7385 22.0006 17.8686 22.0006 18C22.0006 18.1314 21.9747 18.2615 21.9244 18.3829C21.8741 18.5043 21.8004 18.6146 21.7075 18.7075C21.6146 18.8004 21.5043 18.8741 21.3829 18.9244C21.2615 18.9747 21.1314 19.0006 21 19.0006C20.8686 19.0006 20.7385 18.9747 20.6171 18.9244C20.4957 18.8741 20.3854 18.8004 20.2925 18.7075L16 14.4137L11.7075 18.7075C11.6146 18.8004 11.5043 18.8741 11.3829 18.9244C11.2615 18.9747 11.1314 19.0006 11 19.0006C10.8686 19.0006 10.7385 18.9747 10.6171 18.9244C10.4957 18.8741 10.3854 18.8004 10.2925 18.7075C10.1996 18.6146 10.1259 18.5043 10.0756 18.3829C10.0253 18.2615 9.99945 18.1314 9.99945 18C9.99945 17.8686 10.0253 17.7385 10.0756 17.6171C10.1259 17.4957 10.1996 17.3854 10.2925 17.2925L15.2925 12.2925C15.3854 12.1995 15.4957 12.1258 15.6171 12.0754C15.7385 12.0251 15.8686 11.9992 16 11.9992C16.1314 11.9992 16.2615 12.0251 16.3829 12.0754C16.5043 12.1258 16.6146 12.1995 16.7075 12.2925L21.7075 17.2925Z" fill="currentColor"/>
<path d="M64 3.5C61.5277 3.5 59.111 4.23311 57.0554 5.60663C54.9998 6.98015 53.3976 8.93238 52.4515 11.2165C51.5054 13.5005 51.2579 16.0139 51.7402 18.4386C52.2225 20.8634 53.413 23.0907 55.1612 24.8388C56.9093 26.587 59.1366 27.7775 61.5614 28.2598C63.9861 28.7421 66.4995 28.4946 68.7835 27.5485C71.0676 26.6024 73.0199 25.0002 74.3934 22.9446C75.7669 20.889 76.5 18.4723 76.5 16C76.4964 12.6859 75.1782 9.5086 72.8348 7.16518C70.4914 4.82177 67.3141 3.50364 64 3.5ZM64 27.5C61.7255 27.5 59.5021 26.8255 57.6109 25.5619C55.7198 24.2983 54.2458 22.5022 53.3754 20.4009C52.505 18.2995 52.2772 15.9872 52.721 13.7565C53.1647 11.5257 54.26 9.47658 55.8683 7.86827C57.4766 6.25997 59.5257 5.1647 61.7565 4.72097C63.9872 4.27724 66.2995 4.50498 68.4009 5.37539C70.5022 6.24579 72.2983 7.71978 73.5619 9.61094C74.8255 11.5021 75.5 13.7255 75.5 16C75.4967 19.049 74.284 21.9721 72.1281 24.1281C69.9721 26.284 67.049 27.4967 64 27.5ZM69.3538 17.6462C69.4476 17.7401 69.5003 17.8673 69.5003 18C69.5003 18.1327 69.4476 18.2599 69.3538 18.3538C69.2599 18.4476 69.1327 18.5003 69 18.5003C68.8673 18.5003 68.7401 18.4476 68.6463 18.3538L64 13.7075L59.3538 18.3538C59.2599 18.4476 59.1327 18.5003 59 18.5003C58.8673 18.5003 58.7401 18.4476 58.6463 18.3538C58.5524 18.2599 58.4997 18.1327 58.4997 18C58.4997 17.8673 58.5524 17.7401 58.6463 17.6462L63.6463 12.6462C63.6927 12.5998 63.7478 12.5629 63.8085 12.5377C63.8692 12.5126 63.9343 12.4996 64 12.4996C64.0657 12.4996 64.1308 12.5126 64.1915 12.5377C64.2522 12.5629 64.3073 12.5998 64.3538 12.6462L69.3538 17.6462Z" fill="currentColor"/>
<path d="M112 3.25C109.478 3.25 107.013 3.99777 104.916 5.39876C102.82 6.79975 101.186 8.79103 100.221 11.1208C99.2555 13.4505 99.003 16.0141 99.495 18.4874C99.987 20.9607 101.201 23.2325 102.984 25.0156C104.768 26.7987 107.039 28.0131 109.513 28.505C111.986 28.997 114.549 28.7445 116.879 27.7795C119.209 26.8144 121.2 25.1802 122.601 23.0835C124.002 20.9868 124.75 18.5217 124.75 16C124.746 12.6197 123.401 9.379 121.011 6.98877C118.621 4.59854 115.38 3.25397 112 3.25ZM112 27.25C109.775 27.25 107.6 26.5902 105.75 25.354C103.9 24.1179 102.458 22.3609 101.606 20.3052C100.755 18.2495 100.532 15.9875 100.966 13.8052C101.4 11.6229 102.472 9.61839 104.045 8.04505C105.618 6.47171 107.623 5.40025 109.805 4.96617C111.988 4.53208 114.25 4.75487 116.305 5.60636C118.361 6.45784 120.118 7.89978 121.354 9.74984C122.59 11.5999 123.25 13.775 123.25 16C123.247 18.9827 122.06 21.8422 119.951 23.9513C117.842 26.0604 114.983 27.2467 112 27.25ZM117.53 17.47C117.604 17.5387 117.663 17.6215 117.704 17.7135C117.745 17.8055 117.767 17.9048 117.769 18.0055C117.77 18.1062 117.752 18.2062 117.714 18.2996C117.676 18.393 117.62 18.4778 117.549 18.549C117.478 18.6203 117.393 18.6764 117.3 18.7141C117.206 18.7518 117.106 18.7704 117.005 18.7686C116.905 18.7668 116.805 18.7448 116.713 18.7038C116.621 18.6628 116.539 18.6037 116.47 18.53L112 14.0612L107.53 18.53C107.388 18.6625 107.2 18.7346 107.005 18.7312C106.811 18.7277 106.626 18.649 106.488 18.5116C106.351 18.3742 106.272 18.1888 106.269 17.9945C106.265 17.8002 106.338 17.6122 106.47 17.47L111.47 12.47C111.611 12.3295 111.801 12.2507 112 12.2507C112.199 12.2507 112.389 12.3295 112.53 12.47L117.53 17.47Z" fill="currentColor"/>
<path d="M160 2.5C157.33 2.5 154.72 3.29176 152.5 4.77516C150.28 6.25856 148.549 8.36697 147.528 10.8338C146.506 13.3006 146.239 16.015 146.759 18.6337C147.28 21.2525 148.566 23.6579 150.454 25.5459C152.342 27.434 154.748 28.7197 157.366 29.2406C159.985 29.7615 162.699 29.4942 165.166 28.4724C167.633 27.4506 169.741 25.7203 171.225 23.5002C172.708 21.2801 173.5 18.67 173.5 16C173.496 12.4208 172.072 8.98932 169.542 6.45844C167.011 3.92756 163.579 2.50397 160 2.5ZM160 26.5C157.923 26.5 155.893 25.8842 154.167 24.7304C152.44 23.5767 151.094 21.9368 150.299 20.0182C149.505 18.0996 149.297 15.9884 149.702 13.9516C150.107 11.9148 151.107 10.0438 152.575 8.57538C154.044 7.10693 155.915 6.1069 157.952 5.70175C159.988 5.29661 162.1 5.50454 164.018 6.29926C165.937 7.09399 167.577 8.4398 168.73 10.1665C169.884 11.8932 170.5 13.9233 170.5 16C170.497 18.7839 169.39 21.4528 167.421 23.4213C165.453 25.3898 162.784 26.497 160 26.5ZM166.061 16.9387C166.343 17.2205 166.501 17.6027 166.501 18.0012C166.501 18.3998 166.343 18.782 166.061 19.0637C165.779 19.3455 165.397 19.5039 164.999 19.5039C164.6 19.5039 164.218 19.3455 163.936 19.0637L160 15.125L156.061 19.0613C155.779 19.343 155.397 19.5014 154.999 19.5014C154.6 19.5014 154.218 19.343 153.936 19.0613C153.654 18.7795 153.496 18.3973 153.496 17.9988C153.496 17.6002 153.654 17.218 153.936 16.9363L158.936 11.9362C159.076 11.7964 159.241 11.6855 159.424 11.6097C159.606 11.534 159.801 11.4951 159.999 11.4951C160.196 11.4951 160.392 11.534 160.574 11.6097C160.756 11.6855 160.922 11.7964 161.061 11.9362L166.061 16.9387Z" fill="currentColor"/>
<path d="M208 3C205.429 3 202.915 3.76244 200.778 5.1909C198.64 6.61935 196.974 8.64968 195.99 11.0251C195.006 13.4006 194.748 16.0144 195.25 18.5362C195.751 21.0579 196.99 23.3743 198.808 25.1924C200.626 27.0105 202.942 28.2486 205.464 28.7502C207.986 29.2518 210.599 28.9944 212.975 28.0104C215.35 27.0265 217.381 25.3603 218.809 23.2224C220.238 21.0846 221 18.5712 221 16C220.996 12.5533 219.626 9.24882 217.188 6.81163C214.751 4.37445 211.447 3.00364 208 3ZM213.708 18.7075C213.615 18.8005 213.504 18.8742 213.383 18.9246C213.262 18.9749 213.131 19.0008 213 19.0008C212.869 19.0008 212.738 18.9749 212.617 18.9246C212.496 18.8742 212.385 18.8005 212.293 18.7075L208 14.4137L203.708 18.7075C203.615 18.8004 203.504 18.8741 203.383 18.9244C203.262 18.9747 203.131 19.0006 203 19.0006C202.869 19.0006 202.739 18.9747 202.617 18.9244C202.496 18.8741 202.385 18.8004 202.293 18.7075C202.2 18.6146 202.126 18.5043 202.076 18.3829C202.025 18.2615 201.999 18.1314 201.999 18C201.999 17.8686 202.025 17.7385 202.076 17.6171C202.126 17.4957 202.2 17.3854 202.293 17.2925L207.293 12.2925C207.385 12.1995 207.496 12.1258 207.617 12.0754C207.738 12.0251 207.869 11.9992 208 11.9992C208.131 11.9992 208.262 12.0251 208.383 12.0754C208.504 12.1258 208.615 12.1995 208.708 12.2925L213.708 17.2925C213.8 17.3854 213.874 17.4957 213.925 17.6171C213.975 17.7385 214.001 17.8686 214.001 18C214.001 18.1314 213.975 18.2615 213.925 18.3829C213.874 18.5043 213.8 18.6146 213.708 18.7075Z" fill="currentColor"/>
<path opacity="0.2" d="M268 16C268 18.3734 267.296 20.6935 265.978 22.6668C264.659 24.6402 262.785 26.1783 260.592 27.0866C258.399 27.9948 255.987 28.2324 253.659 27.7694C251.331 27.3064 249.193 26.1635 247.515 24.4853C245.836 22.8071 244.694 20.6689 244.231 18.3411C243.768 16.0133 244.005 13.6005 244.913 11.4078C245.822 9.21509 247.36 7.34094 249.333 6.02236C251.307 4.70379 253.627 4 256 4C259.183 4 262.235 5.26428 264.485 7.51472C266.736 9.76515 268 12.8174 268 16Z" fill="currentColor"/>
<path d="M256 3C253.429 3 250.915 3.76244 248.778 5.1909C246.64 6.61935 244.974 8.64968 243.99 11.0251C243.006 13.4006 242.748 16.0144 243.25 18.5362C243.751 21.0579 244.99 23.3743 246.808 25.1924C248.626 27.0105 250.942 28.2486 253.464 28.7502C255.986 29.2518 258.599 28.9944 260.975 28.0104C263.35 27.0265 265.381 25.3603 266.809 23.2224C268.238 21.0846 269 18.5712 269 16C268.996 12.5533 267.626 9.24882 265.188 6.81163C262.751 4.37445 259.447 3.00364 256 3ZM256 27C253.824 27 251.698 26.3549 249.889 25.1462C248.08 23.9375 246.67 22.2195 245.837 20.2095C245.005 18.1995 244.787 15.9878 245.211 13.854C245.636 11.7202 246.683 9.7602 248.222 8.22183C249.76 6.68345 251.72 5.6358 253.854 5.21136C255.988 4.78692 258.2 5.00476 260.21 5.83733C262.22 6.66989 263.937 8.07979 265.146 9.88873C266.355 11.6977 267 13.8244 267 16C266.997 18.9164 265.837 21.7123 263.775 23.7745C261.712 25.8367 258.916 26.9967 256 27ZM261.708 17.2925C261.8 17.3854 261.874 17.4957 261.924 17.6171C261.975 17.7385 262.001 17.8686 262.001 18C262.001 18.1314 261.975 18.2615 261.924 18.3829C261.874 18.5043 261.8 18.6146 261.708 18.7075C261.615 18.8004 261.504 18.8741 261.383 18.9244C261.262 18.9747 261.131 19.0006 261 19.0006C260.869 19.0006 260.739 18.9747 260.617 18.9244C260.496 18.8741 260.385 18.8004 260.293 18.7075L256 14.4137L251.708 18.7075C251.615 18.8004 251.504 18.8741 251.383 18.9244C251.262 18.9747 251.131 19.0006 251 19.0006C250.869 19.0006 250.739 18.9747 250.617 18.9244C250.496 18.8741 250.385 18.8004 250.293 18.7075C250.2 18.6146 250.126 18.5043 250.076 18.3829C250.025 18.2615 249.999 18.1314 249.999 18C249.999 17.8686 250.025 17.7385 250.076 17.6171C250.126 17.4957 250.2 17.3854 250.293 17.2925L255.293 12.2925C255.385 12.1995 255.496 12.1258 255.617 12.0754C255.738 12.0251 255.869 11.9992 256 11.9992C256.131 11.9992 256.262 12.0251 256.383 12.0754C256.504 12.1258 256.615 12.1995 256.708 12.2925L261.708 17.2925Z" fill="currentColor"/>
</g>
<defs>
<clipPath id="clip0_17_5750">
<rect width="272" height="32" rx="5" fill="white"/>
</clipPath>
</defs>
</svg>
