<svg width="272" height="32" viewBox="0 0 272 32" fill="none" xmlns="http://www.w3.org/2000/svg">
<g clip-path="url(#clip0_17_5708)">
<path d="M25.7076 25.2926C25.8005 25.3855 25.8742 25.4958 25.9244 25.6172C25.9747 25.7386 26.0006 25.8687 26.0006 26.0001C26.0006 26.1315 25.9747 26.2616 25.9244 26.383C25.8742 26.5044 25.8005 26.6147 25.7076 26.7076C25.6146 26.8005 25.5043 26.8742 25.3829 26.9245C25.2616 26.9747 25.1314 27.0006 25.0001 27.0006C24.8687 27.0006 24.7386 26.9747 24.6172 26.9245C24.4958 26.8742 24.3855 26.8005 24.2926 26.7076L14.2926 16.7076C14.1996 16.6147 14.1258 16.5044 14.0755 16.383C14.0252 16.2616 13.9993 16.1315 13.9993 16.0001C13.9993 15.8687 14.0252 15.7385 14.0755 15.6171C14.1258 15.4957 14.1996 15.3854 14.2926 15.2926L24.2926 5.29257C24.4802 5.10493 24.7347 4.99951 25.0001 4.99951C25.2654 4.99951 25.5199 5.10493 25.7076 5.29257C25.8952 5.48021 26.0006 5.7347 26.0006 6.00007C26.0006 6.26543 25.8952 6.51993 25.7076 6.70757L16.4138 16.0001L25.7076 25.2926ZM6.4138 16.0001L15.7076 6.70757C15.8952 6.51993 16.0006 6.26543 16.0006 6.00007C16.0006 5.7347 15.8952 5.48021 15.7076 5.29257C15.5199 5.10493 15.2654 4.99951 15.0001 4.99951C14.7347 4.99951 14.4802 5.10493 14.2926 5.29257L4.29255 15.2926C4.19958 15.3854 4.12582 15.4957 4.07549 15.6171C4.02517 15.7385 3.99927 15.8687 3.99927 16.0001C3.99927 16.1315 4.02517 16.2616 4.07549 16.383C4.12582 16.5044 4.19958 16.6147 4.29255 16.7076L14.2926 26.7076C14.3855 26.8005 14.4958 26.8742 14.6172 26.9245C14.7386 26.9747 14.8687 27.0006 15.0001 27.0006C15.1314 27.0006 15.2616 26.9747 15.383 26.9245C15.5043 26.8742 15.6146 26.8005 15.7076 26.7076C15.8005 26.6147 15.8742 26.5044 15.9244 26.383C15.9747 26.2616 16.0006 26.1315 16.0006 26.0001C16.0006 25.8687 15.9747 25.7386 15.9244 25.6172C15.8742 25.4958 15.8005 25.3855 15.7076 25.2926L6.4138 16.0001Z" fill="currentColor"/>
<path d="M73.3537 25.646C73.4475 25.7399 73.5002 25.8671 73.5002 25.9998C73.5002 26.1325 73.4475 26.2597 73.3537 26.3535C73.2598 26.4474 73.1326 26.5001 72.9999 26.5001C72.8672 26.5001 72.74 26.4474 72.6462 26.3535L62.6462 16.3535C62.5997 16.3071 62.5628 16.252 62.5376 16.1913C62.5125 16.1306 62.4995 16.0655 62.4995 15.9998C62.4995 15.9341 62.5125 15.869 62.5376 15.8083C62.5628 15.7476 62.5997 15.6925 62.6462 15.646L72.6462 5.64604C72.6926 5.59958 72.7478 5.56273 72.8085 5.53759C72.8692 5.51245 72.9342 5.49951 72.9999 5.49951C73.0656 5.49951 73.1307 5.51245 73.1914 5.53759C73.252 5.56273 73.3072 5.59958 73.3537 5.64604C73.4001 5.69249 73.437 5.74764 73.4621 5.80834C73.4872 5.86904 73.5002 5.93409 73.5002 5.99979C73.5002 6.06549 73.4872 6.13054 73.4621 6.19124C73.437 6.25193 73.4001 6.30708 73.3537 6.35354L63.7074 15.9998L73.3537 25.646ZM53.7074 15.9998L63.3537 6.35354C63.4475 6.25972 63.5002 6.13247 63.5002 5.99979C63.5002 5.86711 63.4475 5.73986 63.3537 5.64604C63.2598 5.55222 63.1326 5.49951 62.9999 5.49951C62.8672 5.49951 62.74 5.55222 62.6462 5.64604L52.6462 15.646C52.5997 15.6925 52.5628 15.7476 52.5376 15.8083C52.5125 15.869 52.4995 15.9341 52.4995 15.9998C52.4995 16.0655 52.5125 16.1306 52.5376 16.1913C52.5628 16.252 52.5997 16.3071 52.6462 16.3535L62.6462 26.3535C62.6926 26.4 62.7478 26.4368 62.8085 26.462C62.8692 26.4871 62.9342 26.5001 62.9999 26.5001C63.0656 26.5001 63.1307 26.4871 63.1914 26.462C63.252 26.4368 63.3072 26.4 63.3537 26.3535C63.4001 26.3071 63.437 26.2519 63.4621 26.1912C63.4872 26.1305 63.5002 26.0655 63.5002 25.9998C63.5002 25.9341 63.4872 25.869 63.4621 25.8083C63.437 25.7476 63.4001 25.6925 63.3537 25.646L53.7074 15.9998Z" fill="currentColor"/>
<path d="M121.53 25.4698C121.604 25.5385 121.663 25.6213 121.704 25.7133C121.745 25.8053 121.767 25.9046 121.769 26.0053C121.77 26.106 121.752 26.2061 121.714 26.2994C121.676 26.3928 121.62 26.4777 121.549 26.5489C121.478 26.6201 121.393 26.6762 121.3 26.714C121.206 26.7517 121.106 26.7702 121.006 26.7684C120.905 26.7667 120.806 26.7446 120.714 26.7036C120.622 26.6626 120.539 26.6035 120.47 26.5298L110.47 16.5298C110.33 16.3892 110.251 16.1986 110.251 15.9998C110.251 15.8011 110.33 15.6105 110.47 15.4698L120.47 5.46985C120.612 5.33737 120.8 5.26524 120.995 5.26867C121.189 5.2721 121.374 5.35081 121.512 5.48822C121.649 5.62564 121.728 5.81102 121.731 6.00532C121.735 6.19963 121.663 6.38767 121.53 6.52985L112.061 15.9998L121.53 25.4698ZM102.061 15.9998L111.53 6.52985C111.663 6.38767 111.735 6.19963 111.731 6.00532C111.728 5.81102 111.649 5.62564 111.512 5.48822C111.374 5.35081 111.189 5.2721 110.995 5.26867C110.8 5.26524 110.612 5.33737 110.47 5.46985L100.47 15.4698C100.33 15.6105 100.251 15.8011 100.251 15.9998C100.251 16.1986 100.33 16.3892 100.47 16.5298L110.47 26.5298C110.539 26.6035 110.622 26.6626 110.714 26.7036C110.806 26.7446 110.905 26.7667 111.006 26.7684C111.106 26.7702 111.206 26.7517 111.3 26.714C111.393 26.6762 111.478 26.6201 111.549 26.5489C111.62 26.4777 111.676 26.3928 111.714 26.2994C111.752 26.2061 111.77 26.106 111.769 26.0053C111.767 25.9046 111.745 25.8053 111.704 25.7133C111.663 25.6213 111.604 25.5385 111.53 25.4698L102.061 15.9998Z" fill="currentColor"/>
<path d="M170.061 24.9387C170.343 25.2205 170.501 25.6027 170.501 26.0012C170.501 26.3997 170.343 26.7819 170.061 27.0637C169.779 27.3455 169.397 27.5038 168.999 27.5038C168.6 27.5038 168.218 27.3455 167.936 27.0637L157.936 17.0637C157.796 16.9243 157.685 16.7587 157.61 16.5764C157.534 16.3941 157.495 16.1986 157.495 16.0012C157.495 15.8038 157.534 15.6083 157.61 15.426C157.685 15.2436 157.796 15.0781 157.936 14.9387L167.936 4.9387C168.218 4.6569 168.6 4.49859 168.999 4.49859C169.397 4.49859 169.779 4.6569 170.061 4.9387C170.343 5.22049 170.501 5.60268 170.501 6.0012C170.501 6.39971 170.343 6.7819 170.061 7.0637L161.125 15.9999L170.061 24.9387ZM151.125 15.9999L160.065 7.0612C160.347 6.7794 160.505 6.39721 160.505 5.9987C160.505 5.60018 160.347 5.21799 160.065 4.9362C159.783 4.6544 159.401 4.49609 159.002 4.49609C158.604 4.49609 158.222 4.6544 157.94 4.9362L147.94 14.9362C147.8 15.0756 147.689 15.2411 147.613 15.4235C147.538 15.6058 147.499 15.8013 147.499 15.9987C147.499 16.1961 147.538 16.3916 147.613 16.5739C147.689 16.7563 147.8 16.9218 147.94 17.0612L157.94 27.0612C158.079 27.2007 158.245 27.3114 158.427 27.3869C158.61 27.4624 158.805 27.5013 159.002 27.5013C159.2 27.5013 159.395 27.4624 159.577 27.3869C159.76 27.3114 159.925 27.2007 160.065 27.0612C160.204 26.9217 160.315 26.756 160.391 26.5737C160.466 26.3914 160.505 26.196 160.505 25.9987C160.505 25.8014 160.466 25.606 160.391 25.4237C160.315 25.2414 160.204 25.0757 160.065 24.9362L151.125 15.9999Z" fill="currentColor"/>
<path d="M218 5.99981V25.9998C218 26.1977 217.942 26.3912 217.832 26.5558C217.722 26.7204 217.566 26.8487 217.383 26.9244C217.2 27.0002 216.999 27.02 216.805 26.9813C216.611 26.9427 216.432 26.8473 216.293 26.7073L208 18.4136V25.9998C208 26.1977 207.942 26.3912 207.832 26.5558C207.722 26.7204 207.566 26.8487 207.383 26.9244C207.2 27.0002 206.999 27.02 206.805 26.9813C206.611 26.9427 206.432 26.8473 206.293 26.7073L196.293 16.7073C196.2 16.6144 196.126 16.5041 196.075 16.3828C196.025 16.2614 195.999 16.1312 195.999 15.9998C195.999 15.8684 196.025 15.7383 196.075 15.6169C196.126 15.4955 196.2 15.3852 196.293 15.2923L206.293 5.29231C206.432 5.1523 206.611 5.05693 206.805 5.01828C206.999 4.97963 207.2 4.99944 207.383 5.07519C207.566 5.15094 207.722 5.27923 207.832 5.44383C207.942 5.60842 208 5.80192 208 5.99981V13.5861L216.293 5.29231C216.432 5.1523 216.611 5.05693 216.805 5.01828C216.999 4.97963 217.2 4.99944 217.383 5.07519C217.566 5.15094 217.722 5.27923 217.832 5.44383C217.942 5.60842 218 5.80192 218 5.99981Z" fill="currentColor"/>
<path opacity="0.2" d="M265 6V26L255 16L265 6Z" fill="currentColor"/>
<path d="M265.383 5.07632C265.2 5.00052 264.999 4.98061 264.805 5.0191C264.611 5.05759 264.432 5.15276 264.293 5.29257L254.293 15.2926C254.2 15.3854 254.126 15.4957 254.075 15.6171C254.025 15.7385 253.999 15.8687 253.999 16.0001C253.999 16.1315 254.025 16.2616 254.075 16.383C254.126 16.5044 254.2 16.6147 254.293 16.7076L264.293 26.7076C264.432 26.8476 264.611 26.9429 264.805 26.9816C264.999 27.0202 265.2 27.0004 265.383 26.9247C265.566 26.8489 265.722 26.7206 265.832 26.556C265.942 26.3915 266 26.198 266 26.0001V6.00007C266 5.80229 265.941 5.60896 265.831 5.44453C265.721 5.28011 265.565 5.15197 265.383 5.07632ZM264 23.5863L256.414 16.0001L264 8.41382V23.5863ZM255.708 25.2926C255.8 25.3855 255.874 25.4958 255.924 25.6172C255.975 25.7386 256.001 25.8687 256.001 26.0001C256.001 26.1315 255.975 26.2616 255.924 26.383C255.874 26.5044 255.8 26.6147 255.708 26.7076C255.615 26.8005 255.504 26.8742 255.383 26.9245C255.262 26.9747 255.131 27.0006 255 27.0006C254.869 27.0006 254.739 26.9747 254.617 26.9245C254.496 26.8742 254.385 26.8005 254.293 26.7076L244.293 16.7076C244.2 16.6147 244.126 16.5044 244.075 16.383C244.025 16.2616 243.999 16.1315 243.999 16.0001C243.999 15.8687 244.025 15.7385 244.075 15.6171C244.126 15.4957 244.2 15.3854 244.293 15.2926L254.293 5.29257C254.48 5.10493 254.735 4.99951 255 4.99951C255.265 4.99951 255.52 5.10493 255.708 5.29257C255.895 5.48021 256.001 5.7347 256.001 6.00007C256.001 6.26543 255.895 6.51993 255.708 6.70757L246.414 16.0001L255.708 25.2926Z" fill="currentColor"/>
</g>
<defs>
<clipPath id="clip0_17_5708">
<rect width="272" height="32" rx="5" fill="white"/>
</clipPath>
</defs>
</svg>
