<svg width="272" height="32" viewBox="0 0 272 32" fill="none" xmlns="http://www.w3.org/2000/svg">
<g clip-path="url(#clip0_17_5596)">
<path d="M11.9999 25.9998C11.9999 26.265 11.8945 26.5193 11.707 26.7069C11.5195 26.8944 11.2651 26.9998 10.9999 26.9998H4.99988C4.47343 26.9995 3.95633 26.8606 3.50052 26.5972C3.04472 26.3337 2.66627 25.955 2.40318 25.499C2.14009 25.043 2.00163 24.5258 2.00171 23.9993C2.00179 23.4729 2.14041 22.9557 2.40363 22.4998L6.68988 15.0935L4.93363 15.5623C4.80642 15.5963 4.67375 15.6048 4.54321 15.5875C4.41267 15.5703 4.28682 15.5274 4.17284 15.4615C3.94264 15.3283 3.77476 15.1092 3.70613 14.8523C3.63751 14.5953 3.67376 14.3217 3.80691 14.0915C3.94006 13.8613 4.1592 13.6934 4.41613 13.6248L8.51238 12.5285C8.63927 12.4945 8.77162 12.4858 8.90187 12.503C9.03212 12.5201 9.15771 12.5628 9.27147 12.6285C9.38523 12.6942 9.48493 12.7816 9.56488 12.8859C9.64482 12.9901 9.70344 13.1091 9.73738 13.236L10.8361 17.3323C10.8708 17.4597 10.8799 17.5928 10.8629 17.7238C10.8459 17.8548 10.8031 17.9812 10.7369 18.0956C10.6708 18.2099 10.5827 18.3101 10.4776 18.3902C10.3726 18.4703 10.2527 18.5288 10.1249 18.5623C10.04 18.5844 9.95262 18.5957 9.86488 18.596C9.6449 18.5958 9.43112 18.5231 9.25666 18.3891C9.08221 18.2551 8.9568 18.0673 8.89988 17.8548L8.42488 16.086L4.13863 23.4998C4.05106 23.6514 4.00486 23.8234 4.00465 23.9986C4.00444 24.1737 4.05023 24.3458 4.13743 24.4977C4.22464 24.6496 4.3502 24.7759 4.50155 24.864C4.65291 24.9521 4.82475 24.9989 4.99988 24.9998H10.9999C11.2651 24.9998 11.5195 25.1051 11.707 25.2927C11.8945 25.4802 11.9999 25.7346 11.9999 25.9998ZM29.5911 22.4998L26.6986 17.4998C26.5603 17.2821 26.3431 17.1263 26.0926 17.065C25.8421 17.0036 25.5776 17.0414 25.3543 17.1705C25.131 17.2996 24.9662 17.5099 24.8943 17.7576C24.8225 18.0053 24.8491 18.2712 24.9686 18.4998L27.8611 23.4998C27.9487 23.6514 27.9949 23.8234 27.9951 23.9986C27.9953 24.1737 27.9495 24.3458 27.8623 24.4977C27.7751 24.6496 27.6496 24.7759 27.4982 24.864C27.3469 24.9521 27.175 24.9989 26.9999 24.9998H18.4136L19.7061 23.7073C19.8938 23.5198 19.9993 23.2655 19.9994 23.0002C19.9995 22.735 19.8942 22.4805 19.7068 22.2929C19.5193 22.1053 19.2649 21.9998 18.9997 21.9997C18.7345 21.9995 18.48 22.1048 18.2924 22.2923L15.2924 25.2923C15.1994 25.3851 15.1256 25.4954 15.0753 25.6168C15.025 25.7382 14.9991 25.8684 14.9991 25.9998C14.9991 26.1312 15.025 26.2613 15.0753 26.3827C15.1256 26.5041 15.1994 26.6144 15.2924 26.7073L18.2924 29.7073C18.3853 29.8001 18.4956 29.8737 18.6169 29.9239C18.7383 29.9741 18.8684 29.9999 18.9997 29.9999C19.131 29.9998 19.2611 29.9739 19.3824 29.9236C19.5037 29.8733 19.6139 29.7996 19.7068 29.7066C19.7996 29.6137 19.8732 29.5035 19.9234 29.3821C19.9736 29.2607 19.9994 29.1307 19.9994 28.9993C19.9993 28.868 19.9734 28.738 19.9231 28.6166C19.8728 28.4953 19.799 28.3851 19.7061 28.2923L18.4136 26.9998H26.9999C27.5263 26.9995 28.0434 26.8606 28.4992 26.5972C28.955 26.3337 29.3335 25.955 29.5966 25.499C29.8597 25.043 29.9981 24.5258 29.9981 23.9993C29.998 23.4729 29.8594 22.9557 29.5961 22.4998H29.5911ZM15.9999 3.99977C16.1756 3.99801 16.3486 4.04348 16.5008 4.13144C16.6529 4.21939 16.7787 4.3466 16.8649 4.49977L21.1511 11.906L19.3911 11.4335C19.1381 11.3741 18.8719 11.4156 18.6489 11.5491C18.4259 11.6826 18.2637 11.8977 18.1965 12.1488C18.1294 12.3999 18.1627 12.6673 18.2893 12.8942C18.4159 13.1212 18.626 13.29 18.8749 13.3648L22.9724 14.4635C23.0569 14.4857 23.1438 14.4971 23.2311 14.4973C23.4511 14.4971 23.6649 14.4243 23.8394 14.2903C24.0138 14.1563 24.1392 13.9685 24.1961 13.756L25.2949 9.65727C25.3326 9.5293 25.3443 9.39508 25.3294 9.26251C25.3144 9.12994 25.2731 9.00169 25.2079 8.88533C25.1426 8.76898 25.0547 8.66685 24.9494 8.58498C24.844 8.50311 24.7234 8.44314 24.5945 8.40861C24.4657 8.37408 24.3312 8.36568 24.199 8.38391C24.0669 8.40215 23.9397 8.44664 23.825 8.51478C23.7103 8.58291 23.6104 8.67331 23.5311 8.78065C23.4519 8.88798 23.395 9.01009 23.3636 9.13977L22.8886 10.911L18.5961 3.49977C18.3326 3.04457 17.954 2.66666 17.4983 2.40394C17.0426 2.14122 16.5259 2.00293 15.9999 2.00293C15.4739 2.00293 14.9571 2.14122 14.5015 2.40394C14.0458 2.66666 13.6672 3.04457 13.4036 3.49977L10.5086 8.49977C10.3842 8.72884 10.3542 8.99741 10.4249 9.24829C10.4957 9.49917 10.6615 9.71252 10.8873 9.8429C11.113 9.97327 11.3807 10.0104 11.6333 9.94627C11.886 9.88218 12.1036 9.72197 12.2399 9.49977L15.1349 4.49977C15.2211 4.3466 15.3468 4.21939 15.499 4.13144C15.6511 4.04348 15.8241 3.99801 15.9999 3.99977Z" fill="currentColor"/>
<path d="M59.4999 26.0002C59.4999 26.1328 59.4472 26.26 59.3535 26.3537C59.2597 26.4475 59.1325 26.5002 58.9999 26.5002H52.9999C52.5612 26.4999 52.1302 26.3843 51.7504 26.1647C51.3705 25.9452 51.0551 25.6296 50.8358 25.2496C50.6166 24.8696 50.5012 24.4386 50.5012 23.9998C50.5013 23.5611 50.6168 23.1301 50.8362 22.7502L55.7287 14.2977L52.7999 15.0814C52.7356 15.1017 52.6678 15.1087 52.6006 15.102C52.5335 15.0954 52.4684 15.0752 52.4093 15.0427C52.3502 15.0103 52.2982 14.9662 52.2566 14.9131C52.2149 14.86 52.1844 14.7991 52.167 14.7339C52.1495 14.6688 52.1454 14.6008 52.1549 14.534C52.1644 14.4672 52.1873 14.403 52.2223 14.3453C52.2572 14.2876 52.3035 14.2376 52.3583 14.1983C52.4131 14.1589 52.4753 14.1311 52.5412 14.1164L56.6374 13.0202C56.7009 13.0032 56.7672 12.9989 56.8324 13.0075C56.8976 13.0162 56.9604 13.0376 57.0173 13.0706C57.0742 13.1036 57.124 13.1475 57.1639 13.1997C57.2039 13.252 57.2331 13.3116 57.2499 13.3752L58.3487 17.4714C58.3831 17.5994 58.3653 17.7358 58.2992 17.8506C58.2331 17.9655 58.1241 18.0494 57.9962 18.0839C57.9555 18.0953 57.9134 18.1012 57.8712 18.1014C57.7606 18.1011 57.6533 18.0641 57.566 17.9962C57.4786 17.9284 57.4163 17.8335 57.3887 17.7264L56.6012 14.7927L51.7062 23.2502C51.5747 23.4778 51.5054 23.736 51.5052 23.9988C51.505 24.2617 51.5738 24.52 51.7048 24.7479C51.8359 24.9758 52.0245 25.1652 52.2518 25.2972C52.4791 25.4293 52.7371 25.4992 52.9999 25.5002H58.9999C59.1325 25.5002 59.2597 25.5528 59.3535 25.6466C59.4472 25.7404 59.4999 25.8676 59.4999 26.0002ZM77.1599 22.7502L74.2674 17.7502C74.2011 17.6353 74.0919 17.5515 73.9638 17.5171C73.8357 17.4828 73.6992 17.5007 73.5843 17.567C73.4694 17.6333 73.3856 17.7426 73.3512 17.8707C73.3169 17.9988 73.3349 18.1353 73.4012 18.2502L76.2937 23.2502C76.4251 23.4778 76.4944 23.736 76.4946 23.9988C76.4949 24.2617 76.426 24.52 76.295 24.7479C76.164 24.9758 75.9753 25.1652 75.7481 25.2972C75.5208 25.4293 75.2628 25.4992 74.9999 25.5002H65.2074L67.3537 23.3539C67.4475 23.2601 67.5002 23.1329 67.5002 23.0002C67.5002 22.8675 67.4475 22.7402 67.3537 22.6464C67.2598 22.5526 67.1326 22.4999 66.9999 22.4999C66.8672 22.4999 66.74 22.5526 66.6462 22.6464L63.6462 25.6464C63.5997 25.6929 63.5628 25.748 63.5376 25.8087C63.5125 25.8694 63.4995 25.9345 63.4995 26.0002C63.4995 26.0659 63.5125 26.1309 63.5376 26.1916C63.5628 26.2523 63.5997 26.3075 63.6462 26.3539L66.6462 29.3539C66.74 29.4477 66.8672 29.5004 66.9999 29.5004C67.1326 29.5004 67.2598 29.4477 67.3537 29.3539C67.4475 29.2601 67.5002 29.1329 67.5002 29.0002C67.5002 28.8675 67.4475 28.7402 67.3537 28.6464L65.2074 26.5002H74.9999C75.4386 26.4999 75.8696 26.3843 76.2494 26.1647C76.6293 25.9452 76.9447 25.6296 77.164 25.2496C77.3832 24.8696 77.4986 24.4386 77.4986 23.9998C77.4985 23.5611 77.383 23.1301 77.1637 22.7502H77.1599ZM65.2974 4.25017L70.1899 12.7027L67.2612 11.9177C67.133 11.8834 66.9965 11.9013 66.8816 11.9677C66.7668 12.034 66.683 12.1433 66.6487 12.2714C66.6143 12.3996 66.6323 12.5361 66.6987 12.6509C66.765 12.7658 66.8743 12.8496 67.0024 12.8839L71.0999 13.9814C71.1406 13.993 71.1826 13.9989 71.2249 13.9989C71.3355 13.9986 71.4428 13.9616 71.5301 13.8937C71.6174 13.8259 71.6798 13.731 71.7074 13.6239L72.8062 9.52517C72.8264 9.46082 72.8334 9.39304 72.8268 9.32591C72.8201 9.25878 72.7999 9.19369 72.7675 9.13455C72.735 9.07542 72.6909 9.02347 72.6379 8.98182C72.5848 8.94018 72.5238 8.9097 72.4587 8.89223C72.3935 8.87476 72.3255 8.87066 72.2587 8.88016C72.1919 8.88967 72.1278 8.91259 72.0701 8.94755C72.0124 8.98251 71.9624 9.02878 71.923 9.08358C71.8837 9.13838 71.8558 9.20057 71.8412 9.26642L71.0537 12.2002L66.1637 3.75017C65.9441 3.37074 65.6285 3.05572 65.2488 2.83672C64.869 2.61772 64.4383 2.50244 63.9999 2.50244C63.5615 2.50244 63.1308 2.61772 62.751 2.83672C62.3713 3.05572 62.0558 3.37074 61.8362 3.75017L58.9412 8.75017C58.8749 8.86504 58.8569 9.00155 58.8912 9.12966C58.9256 9.25777 59.0094 9.36699 59.1243 9.43329C59.2392 9.4996 59.3757 9.51755 59.5038 9.48321C59.6319 9.44887 59.7411 9.36504 59.8074 9.25017L62.7012 4.25017C62.8329 4.02257 63.0222 3.83361 63.2501 3.70225C63.4779 3.5709 63.7363 3.50175 63.9993 3.50175C64.2623 3.50175 64.5207 3.5709 64.7485 3.70225C64.9763 3.83361 65.1656 4.02257 65.2974 4.25017Z" fill="currentColor"/>
<path d="M107.75 25.9999C107.75 26.1988 107.671 26.3896 107.53 26.5302C107.39 26.6709 107.199 26.7499 107 26.7499H101C100.518 26.7488 100.044 26.6209 99.6273 26.379C99.2102 26.1372 98.864 25.7899 98.6234 25.3721C98.3828 24.9542 98.2563 24.4804 98.2566 23.9983C98.2569 23.5161 98.3839 23.0425 98.625 22.6249L103.214 14.6949L100.869 15.3199C100.676 15.3713 100.472 15.3442 100.299 15.2446C100.127 15.1449 100.001 14.9809 99.95 14.7887C99.8986 14.5964 99.9257 14.3916 100.025 14.2193C100.125 14.047 100.289 13.9213 100.481 13.8699L104.578 12.7737C104.673 12.7476 104.773 12.7408 104.871 12.7535C104.969 12.7662 105.064 12.7982 105.15 12.8477C105.235 12.8972 105.311 12.9632 105.371 13.0419C105.431 13.1206 105.475 13.2104 105.5 13.3062L106.6 17.4012C106.626 17.4963 106.632 17.5955 106.619 17.6932C106.606 17.7908 106.575 17.885 106.525 17.9703C106.476 18.0556 106.411 18.1304 106.332 18.1904C106.254 18.2504 106.165 18.2944 106.07 18.3199C106.006 18.3371 105.941 18.3459 105.875 18.3462C105.71 18.346 105.55 18.2914 105.419 18.1908C105.288 18.0903 105.194 17.9493 105.151 17.7899L104.526 15.4399L99.9225 23.3749C99.813 23.5646 99.7553 23.7797 99.7551 23.9987C99.7548 24.2177 99.8121 24.4329 99.9213 24.6227C100.03 24.8126 100.187 24.9705 100.377 25.0806C100.566 25.1906 100.781 25.249 101 25.2499H107C107.199 25.2499 107.39 25.3289 107.53 25.4696C107.671 25.6102 107.75 25.801 107.75 25.9999ZM125.375 22.6249L122.483 17.6249C122.379 17.4617 122.216 17.3448 122.028 17.2988C121.84 17.2528 121.642 17.2811 121.474 17.3779C121.307 17.4748 121.183 17.6325 121.129 17.8183C121.075 18.0041 121.095 18.2035 121.185 18.3749L124.078 23.3749C124.187 23.5646 124.245 23.7797 124.245 23.9987C124.245 24.2177 124.188 24.4329 124.079 24.6227C123.97 24.8126 123.813 24.9705 123.623 25.0806C123.434 25.1906 123.219 25.249 123 25.2499H113.81L115.53 23.5299C115.663 23.3877 115.735 23.1997 115.731 23.0054C115.728 22.8111 115.649 22.6257 115.512 22.4883C115.374 22.3509 115.189 22.2722 114.995 22.2687C114.8 22.2653 114.612 22.3374 114.47 22.4699L111.47 25.4699C111.33 25.6105 111.251 25.8012 111.251 25.9999C111.251 26.1987 111.33 26.3893 111.47 26.5299L114.47 29.5299C114.612 29.6624 114.8 29.7345 114.995 29.7311C115.189 29.7277 115.374 29.6489 115.512 29.5115C115.649 29.3741 115.728 29.1887 115.731 28.9944C115.735 28.8001 115.663 28.6121 115.53 28.4699L113.81 26.7499H123C123.482 26.7488 123.956 26.6209 124.373 26.379C124.79 26.1372 125.136 25.7899 125.377 25.3721C125.617 24.9542 125.744 24.4804 125.743 23.9983C125.743 23.5161 125.616 23.0425 125.375 22.6249ZM113.081 4.37491L117.671 12.3049L115.326 11.6799C115.14 11.6434 114.947 11.679 114.785 11.7794C114.624 11.8799 114.507 12.0377 114.458 12.2211C114.409 12.4045 114.431 12.5997 114.52 12.7675C114.609 12.9352 114.758 13.063 114.938 13.1249L119.035 14.2237C119.227 14.2748 119.432 14.2476 119.604 14.1479C119.776 14.0483 119.901 13.8845 119.953 13.6924L121.051 9.59491C121.081 9.49848 121.092 9.39695 121.082 9.29644C121.071 9.19592 121.041 9.09849 120.992 9.00997C120.944 8.92146 120.878 8.8437 120.798 8.78135C120.719 8.71901 120.627 8.67337 120.53 8.64716C120.432 8.62096 120.33 8.61474 120.23 8.62887C120.13 8.643 120.034 8.6772 119.948 8.7294C119.861 8.78161 119.786 8.85075 119.727 8.93268C119.668 9.0146 119.626 9.10763 119.604 9.20616L118.973 11.5587L114.375 3.62491C114.133 3.20993 113.786 2.86566 113.369 2.6264C112.953 2.38713 112.481 2.26123 112 2.26123C111.52 2.26123 111.047 2.38713 110.631 2.6264C110.214 2.86566 109.867 3.20993 109.625 3.62491L106.725 8.62491C106.63 8.79688 106.606 8.99933 106.659 9.18871C106.711 9.37809 106.836 9.53926 107.006 9.63755C107.176 9.73584 107.378 9.76339 107.569 9.71427C107.759 9.66515 107.922 9.54329 108.024 9.37491L110.919 4.37491C111.029 4.18549 111.186 4.02826 111.376 3.91896C111.566 3.80966 111.781 3.75213 112 3.75213C112.219 3.75213 112.434 3.80966 112.624 3.91896C112.814 4.02826 112.971 4.18549 113.081 4.37491Z" fill="currentColor"/>
<path d="M156.5 25.9999C156.5 26.3977 156.342 26.7792 156.061 27.0605C155.779 27.3418 155.398 27.4999 155 27.4999H149C148.386 27.4995 147.783 27.3374 147.251 27.0301C146.719 26.7227 146.278 26.2808 145.971 25.7488C145.664 25.2169 145.502 24.6135 145.502 23.9993C145.503 23.3851 145.664 22.7818 145.971 22.2499L149.653 15.8899L149.058 16.0486C148.866 16.1042 148.665 16.1209 148.467 16.0979C148.268 16.0748 148.077 16.0124 147.903 15.9143C147.729 15.8162 147.577 15.6844 147.454 15.5267C147.332 15.3689 147.243 15.1883 147.191 14.9955C147.139 14.8027 147.127 14.6015 147.154 14.4037C147.181 14.206 147.248 14.0157 147.349 13.8439C147.451 13.6721 147.586 13.5224 147.746 13.4034C147.906 13.2845 148.089 13.1987 148.283 13.1511L152.379 12.0549C152.763 11.9521 153.172 12.0061 153.516 12.2048C153.861 12.4036 154.112 12.7309 154.215 13.1149L155.314 17.2111C155.371 17.4033 155.39 17.605 155.368 17.8044C155.346 18.0037 155.284 18.1967 155.187 18.3718C155.089 18.547 154.957 18.7007 154.799 18.824C154.641 18.9473 154.459 19.0376 154.266 19.0896C154.072 19.1416 153.87 19.1543 153.671 19.1268C153.472 19.0993 153.281 19.0322 153.109 18.9296C152.937 18.8269 152.787 18.6907 152.668 18.5291C152.549 18.3675 152.464 18.1837 152.418 17.9886L152.26 17.3749L148.573 23.7499C148.529 23.8255 148.506 23.9112 148.506 23.9985C148.505 24.0858 148.528 24.1716 148.571 24.2475C148.614 24.3233 148.677 24.3865 148.752 24.4308C148.827 24.4751 148.913 24.4989 149 24.4999H155C155.398 24.4999 155.779 24.6579 156.061 24.9392C156.342 25.2205 156.5 25.602 156.5 25.9999ZM160 4.49986C160.088 4.49824 160.175 4.52066 160.251 4.56471C160.327 4.60877 160.39 4.67278 160.433 4.74986L164.114 11.1086L163.52 10.9499C163.327 10.8911 163.125 10.8719 162.924 10.8932C162.724 10.9145 162.53 10.976 162.354 11.074C162.178 11.172 162.023 11.3044 161.899 11.4634C161.776 11.6225 161.685 11.8048 161.633 11.9995C161.582 12.1943 161.57 12.3975 161.598 12.597C161.627 12.7965 161.695 12.9882 161.799 13.1606C161.904 13.3331 162.041 13.4828 162.205 13.6008C162.368 13.7188 162.554 13.8026 162.75 13.8474L166.846 14.9461C167.23 15.0488 167.64 14.9949 167.984 14.7961C168.328 14.5974 168.579 14.2701 168.683 13.8861L169.775 9.78736C169.878 9.4028 169.824 8.99303 169.625 8.64819C169.527 8.47745 169.396 8.32779 169.239 8.20775C169.083 8.08772 168.904 7.99966 168.714 7.94861C168.329 7.84551 167.92 7.8994 167.575 8.09842C167.23 8.29744 166.978 8.6253 166.875 9.00986L166.711 9.61736L163.029 3.24986C162.721 2.71889 162.28 2.27809 161.748 1.97165C161.216 1.66521 160.614 1.50391 160 1.50391C159.387 1.50391 158.784 1.66521 158.252 1.97165C157.721 2.27809 157.279 2.71889 156.971 3.24986L154.076 8.24986C153.97 8.42062 153.899 8.61098 153.868 8.80963C153.837 9.00828 153.846 9.21117 153.895 9.40624C153.944 9.6013 154.031 9.78456 154.152 9.94512C154.274 10.1057 154.426 10.2402 154.6 10.3408C154.774 10.4414 154.966 10.506 155.166 10.5307C155.366 10.5554 155.568 10.5397 155.761 10.4845C155.955 10.4294 156.135 10.336 156.292 10.2098C156.448 10.0835 156.578 9.92715 156.673 9.74986L159.568 4.74986C159.61 4.67278 159.673 4.60877 159.749 4.56471C159.825 4.52066 159.912 4.49824 160 4.49986ZM174.024 22.2499L171.131 17.2499C171.036 17.0726 170.907 16.9162 170.75 16.79C170.594 16.6638 170.414 16.5703 170.22 16.5152C170.027 16.46 169.824 16.4444 169.625 16.469C169.425 16.4937 169.233 16.5583 169.058 16.6589C168.884 16.7595 168.732 16.8941 168.611 17.0546C168.49 17.2152 168.403 17.3984 168.354 17.5935C168.305 17.7885 168.296 17.9914 168.327 18.1901C168.358 18.3887 168.429 18.5791 168.535 18.7499L171.428 23.7499C171.471 23.8258 171.495 23.912 171.495 23.9997C171.495 24.0875 171.472 24.1736 171.428 24.2496C171.384 24.3256 171.321 24.3888 171.245 24.4327C171.169 24.4766 171.083 24.4998 170.995 24.4999H163.625L164.064 24.0611C164.203 23.9216 164.314 23.7559 164.39 23.5736C164.465 23.3913 164.504 23.1959 164.504 22.9986C164.504 22.8013 164.465 22.6059 164.39 22.4236C164.314 22.2413 164.203 22.0756 164.064 21.9361C163.924 21.7966 163.759 21.6859 163.576 21.6104C163.394 21.5349 163.199 21.496 163.001 21.496C162.804 21.496 162.609 21.5349 162.426 21.6104C162.244 21.6859 162.078 21.7966 161.939 21.9361L158.939 24.9361C158.799 25.0755 158.688 25.2411 158.612 25.4234C158.537 25.6057 158.498 25.8012 158.498 25.9986C158.498 26.196 158.537 26.3915 158.612 26.5738C158.688 26.7562 158.799 26.9218 158.939 27.0611L161.939 30.0611C162.078 30.2006 162.244 30.3113 162.426 30.3868C162.609 30.4623 162.804 30.5012 163.001 30.5012C163.199 30.5012 163.394 30.4623 163.576 30.3868C163.759 30.3113 163.924 30.2006 164.064 30.0611C164.203 29.9216 164.314 29.7559 164.39 29.5736C164.465 29.3913 164.504 29.1959 164.504 28.9986C164.504 28.8013 164.465 28.6059 164.39 28.4236C164.314 28.2413 164.203 28.0756 164.064 27.9361L163.625 27.4999H171C171.614 27.4995 172.218 27.3374 172.749 27.0301C173.281 26.7227 173.723 26.2808 174.029 25.7488C174.336 25.2169 174.498 24.6135 174.498 23.9993C174.498 23.3851 174.336 22.7818 174.029 22.2499H174.024Z" fill="currentColor"/>
<path d="M204 25.9998C204 26.265 203.895 26.5193 203.707 26.7069C203.519 26.8944 203.265 26.9998 203 26.9998H197C196.473 26.9995 195.956 26.8606 195.501 26.5972C195.045 26.3337 194.666 25.955 194.403 25.499C194.14 25.043 194.002 24.5258 194.002 23.9993C194.002 23.4729 194.14 22.9557 194.404 22.4998L197.904 16.4623L196.176 15.4623C196.003 15.3642 195.863 15.2167 195.774 15.0386C195.685 14.8605 195.652 14.66 195.678 14.4627C195.703 14.2654 195.787 14.0803 195.919 13.931C196.051 13.7817 196.224 13.6751 196.416 13.6248L200.512 12.5285C200.639 12.4945 200.772 12.4858 200.902 12.503C201.032 12.5201 201.158 12.5628 201.271 12.6285C201.385 12.6942 201.485 12.7816 201.565 12.8859C201.645 12.9901 201.703 13.1091 201.737 13.236L202.836 17.3323C202.887 17.5234 202.881 17.7254 202.817 17.9128C202.754 18.1001 202.636 18.2644 202.479 18.3849C202.322 18.5053 202.133 18.5765 201.935 18.5894C201.738 18.6023 201.541 18.5563 201.37 18.4573L199.635 17.4573L196.139 23.4998C196.051 23.6514 196.005 23.8234 196.005 23.9986C196.004 24.1737 196.05 24.3458 196.137 24.4977C196.225 24.6496 196.35 24.7759 196.502 24.864C196.653 24.9521 196.825 24.9989 197 24.9998H203C203.265 24.9998 203.519 25.1051 203.707 25.2927C203.895 25.4802 204 25.7346 204 25.9998ZM208 3.99977C208.176 3.99801 208.349 4.04348 208.501 4.13144C208.653 4.21939 208.779 4.3466 208.865 4.49977L212.365 10.5373L210.637 11.5373C210.467 11.6364 210.331 11.7835 210.244 11.96C210.157 12.1366 210.124 12.3348 210.15 12.5298C210.175 12.7249 210.257 12.9081 210.386 13.0567C210.515 13.2052 210.685 13.3123 210.875 13.3648L214.972 14.4635C215.057 14.4857 215.144 14.4971 215.231 14.4973C215.451 14.4971 215.665 14.4243 215.839 14.2903C216.014 14.1563 216.139 13.9685 216.196 13.756L217.295 9.65727C217.346 9.46634 217.339 9.26456 217.276 9.07742C217.212 8.89027 217.095 8.72615 216.938 8.60577C216.781 8.4854 216.592 8.41417 216.395 8.40109C216.198 8.38801 216.001 8.43366 215.83 8.53227L214.094 9.53227L210.596 3.49977C210.333 3.04457 209.954 2.66666 209.498 2.40394C209.043 2.14122 208.526 2.00293 208 2.00293C207.474 2.00293 206.957 2.14122 206.501 2.40394C206.046 2.66666 205.667 3.04457 205.404 3.49977L202.509 8.49977C202.384 8.72884 202.354 8.99741 202.425 9.24829C202.496 9.49917 202.662 9.71252 202.887 9.8429C203.113 9.97327 203.381 10.0104 203.633 9.94627C203.886 9.88218 204.104 9.72197 204.24 9.49977L207.135 4.49977C207.221 4.3466 207.347 4.21939 207.499 4.13144C207.651 4.04348 207.824 3.99801 208 3.99977ZM221.591 22.4998L218.699 17.4998C218.56 17.2821 218.343 17.1263 218.093 17.065C217.842 17.0036 217.578 17.0414 217.354 17.1705C217.131 17.2996 216.966 17.5099 216.894 17.7576C216.822 18.0053 216.849 18.2712 216.969 18.4998L219.861 23.4998C219.949 23.6514 219.995 23.8234 219.995 23.9986C219.995 24.1737 219.95 24.3458 219.862 24.4977C219.775 24.6496 219.65 24.7759 219.498 24.864C219.347 24.9521 219.175 24.9989 219 24.9998H212V22.9998C212 22.8019 211.941 22.6084 211.832 22.4438C211.722 22.2792 211.565 22.1509 211.383 22.0751C211.2 21.9994 210.999 21.9796 210.805 22.0182C210.61 22.0569 210.432 22.1523 210.292 22.2923L207.292 25.2923C207.199 25.3851 207.126 25.4954 207.075 25.6168C207.025 25.7382 206.999 25.8684 206.999 25.9998C206.999 26.1312 207.025 26.2613 207.075 26.3827C207.126 26.5041 207.199 26.6144 207.292 26.7073L210.292 29.7073C210.432 29.8473 210.61 29.9426 210.805 29.9813C210.999 30.02 211.2 30.0001 211.383 29.9244C211.565 29.8486 211.722 29.7203 211.832 29.5558C211.941 29.3912 212 29.1977 212 28.9998V26.9998H219C219.526 26.9995 220.043 26.8606 220.499 26.5972C220.955 26.3337 221.334 25.955 221.597 25.499C221.86 25.043 221.998 24.5258 221.998 23.9993C221.998 23.4729 221.859 22.9557 221.596 22.4998H221.591Z" fill="currentColor"/>
<path opacity="0.2" d="M267 26.0001H245C244.649 25.9997 244.304 25.907 244.001 25.7314C243.697 25.5557 243.445 25.3032 243.269 24.9992C243.094 24.6952 243.002 24.3505 243.002 23.9996C243.002 23.6487 243.094 23.304 243.27 23.0001L254.27 4.00008C254.446 3.69642 254.698 3.44429 255.002 3.26901C255.306 3.09373 255.65 3.00146 256.001 3.00146C256.352 3.00146 256.697 3.09373 257 3.26901C257.304 3.44429 257.557 3.69642 257.732 4.00008L268.732 23.0001C268.908 23.3042 269 23.6491 269 24.0002C269 24.3513 268.908 24.6962 268.732 25.0003C268.557 25.3043 268.304 25.5568 268 25.7323C267.696 25.9078 267.351 26.0002 267 26.0001Z" fill="currentColor"/>
<path d="M252 25.9998C252 26.265 251.895 26.5193 251.707 26.7069C251.519 26.8944 251.265 26.9998 251 26.9998H245C244.473 26.9995 243.956 26.8606 243.501 26.5972C243.045 26.3337 242.666 25.955 242.403 25.499C242.14 25.043 242.002 24.5258 242.002 23.9993C242.002 23.4729 242.14 22.9557 242.404 22.4998L246.69 15.0935L244.934 15.5623C244.806 15.5963 244.674 15.6048 244.543 15.5875C244.413 15.5703 244.287 15.5274 244.173 15.4615C243.943 15.3283 243.775 15.1092 243.706 14.8523C243.638 14.5953 243.674 14.3217 243.807 14.0915C243.94 13.8613 244.159 13.6934 244.416 13.6248L248.512 12.5285C248.639 12.4945 248.772 12.4858 248.902 12.503C249.032 12.5201 249.158 12.5628 249.271 12.6285C249.385 12.6942 249.485 12.7816 249.565 12.8859C249.645 12.9901 249.703 13.1091 249.737 13.236L250.836 17.3323C250.871 17.4597 250.88 17.5928 250.863 17.7238C250.846 17.8548 250.803 17.9812 250.737 18.0956C250.671 18.2099 250.583 18.3101 250.478 18.3902C250.373 18.4703 250.253 18.5288 250.125 18.5623C250.04 18.5844 249.953 18.5957 249.865 18.596C249.645 18.5958 249.431 18.5231 249.257 18.3891C249.082 18.2551 248.957 18.0673 248.9 17.8548L248.425 16.086L244.139 23.4998C244.051 23.6514 244.005 23.8234 244.005 23.9986C244.004 24.1737 244.05 24.3458 244.137 24.4977C244.225 24.6496 244.35 24.7759 244.502 24.864C244.653 24.9521 244.825 24.9989 245 24.9998H251C251.265 24.9998 251.519 25.1051 251.707 25.2927C251.895 25.4802 252 25.7346 252 25.9998ZM269.591 22.4998L266.699 17.4998C266.56 17.2821 266.343 17.1263 266.093 17.065C265.842 17.0036 265.578 17.0414 265.354 17.1705C265.131 17.2996 264.966 17.5099 264.894 17.7576C264.822 18.0053 264.849 18.2712 264.969 18.4998L267.861 23.4998C267.949 23.6514 267.995 23.8234 267.995 23.9986C267.995 24.1737 267.95 24.3458 267.862 24.4977C267.775 24.6496 267.65 24.7759 267.498 24.864C267.347 24.9521 267.175 24.9989 267 24.9998H258.414L259.706 23.7073C259.894 23.5198 259.999 23.2655 259.999 23.0002C259.999 22.735 259.894 22.4805 259.707 22.2929C259.519 22.1053 259.265 21.9998 259 21.9997C258.734 21.9995 258.48 22.1048 258.292 22.2923L255.292 25.2923C255.199 25.3851 255.126 25.4954 255.075 25.6168C255.025 25.7382 254.999 25.8684 254.999 25.9998C254.999 26.1312 255.025 26.2613 255.075 26.3827C255.126 26.5041 255.199 26.6144 255.292 26.7073L258.292 29.7073C258.385 29.8001 258.496 29.8737 258.617 29.9239C258.738 29.9741 258.868 29.9999 259 29.9999C259.131 29.9998 259.261 29.9739 259.382 29.9236C259.504 29.8733 259.614 29.7996 259.707 29.7066C259.8 29.6137 259.873 29.5035 259.923 29.3821C259.974 29.2607 259.999 29.1307 259.999 28.9993C259.999 28.868 259.973 28.738 259.923 28.6166C259.873 28.4953 259.799 28.3851 259.706 28.2923L258.414 26.9998H267C267.526 26.9995 268.043 26.8606 268.499 26.5972C268.955 26.3337 269.334 25.955 269.597 25.499C269.86 25.043 269.998 24.5258 269.998 23.9993C269.998 23.4729 269.859 22.9557 269.596 22.4998H269.591ZM256 3.99977C256.176 3.99801 256.349 4.04348 256.501 4.13144C256.653 4.21939 256.779 4.3466 256.865 4.49977L261.151 11.906L259.391 11.4335C259.138 11.3741 258.872 11.4156 258.649 11.5491C258.426 11.6826 258.264 11.8977 258.197 12.1488C258.129 12.3999 258.163 12.6673 258.289 12.8942C258.416 13.1212 258.626 13.29 258.875 13.3648L262.972 14.4635C263.057 14.4857 263.144 14.4971 263.231 14.4973C263.451 14.4971 263.665 14.4243 263.839 14.2903C264.014 14.1563 264.139 13.9685 264.196 13.756L265.295 9.65727C265.333 9.5293 265.344 9.39508 265.329 9.26251C265.314 9.12994 265.273 9.00169 265.208 8.88533C265.143 8.76898 265.055 8.66685 264.949 8.58498C264.844 8.50311 264.723 8.44314 264.595 8.40861C264.466 8.37408 264.331 8.36568 264.199 8.38391C264.067 8.40215 263.94 8.44664 263.825 8.51478C263.71 8.58291 263.61 8.67331 263.531 8.78065C263.452 8.88798 263.395 9.01009 263.364 9.13977L262.889 10.911L258.596 3.49977C258.333 3.04457 257.954 2.66666 257.498 2.40394C257.043 2.14122 256.526 2.00293 256 2.00293C255.474 2.00293 254.957 2.14122 254.501 2.40394C254.046 2.66666 253.667 3.04457 253.404 3.49977L250.509 8.49977C250.384 8.72884 250.354 8.99741 250.425 9.24829C250.496 9.49917 250.662 9.71252 250.887 9.8429C251.113 9.97327 251.381 10.0104 251.633 9.94627C251.886 9.88218 252.104 9.72197 252.24 9.49977L255.135 4.49977C255.221 4.3466 255.347 4.21939 255.499 4.13144C255.651 4.04348 255.824 3.99801 256 3.99977Z" fill="currentColor"/>
</g>
<defs>
<clipPath id="clip0_17_5596">
<rect width="272" height="32" rx="5" fill="white"/>
</clipPath>
</defs>
</svg>
