<svg width="272" height="32" viewBox="0 0 272 32" fill="none" xmlns="http://www.w3.org/2000/svg">
<g clip-path="url(#clip0_17_17213)">
<path d="M26 7H22.535L20.8312 4.445C20.74 4.30819 20.6164 4.196 20.4714 4.11838C20.3264 4.04076 20.1645 4.0001 20 4H12C11.8355 4.0001 11.6736 4.04076 11.5286 4.11838C11.3836 4.196 11.26 4.30819 11.1687 4.445L9.46375 7H6C5.20435 7 4.44129 7.31607 3.87868 7.87868C3.31607 8.44129 3 9.20435 3 10V24C3 24.7956 3.31607 25.5587 3.87868 26.1213C4.44129 26.6839 5.20435 27 6 27H26C26.7956 27 27.5587 26.6839 28.1213 26.1213C28.6839 25.5587 29 24.7956 29 24V10C29 9.20435 28.6839 8.44129 28.1213 7.87868C27.5587 7.31607 26.7956 7 26 7ZM27 24C27 24.2652 26.8946 24.5196 26.7071 24.7071C26.5196 24.8946 26.2652 25 26 25H6C5.73478 25 5.48043 24.8946 5.29289 24.7071C5.10536 24.5196 5 24.2652 5 24V10C5 9.73478 5.10536 9.48043 5.29289 9.29289C5.48043 9.10536 5.73478 9 6 9H10C10.1647 9.00011 10.3268 8.95954 10.4721 8.88191C10.6173 8.80428 10.7411 8.69199 10.8325 8.555L12.535 6H19.4638L21.1675 8.555C21.2589 8.69199 21.3827 8.80428 21.5279 8.88191C21.6732 8.95954 21.8353 9.00011 22 9H26C26.2652 9 26.5196 9.10536 26.7071 9.29289C26.8946 9.48043 27 9.73478 27 10V24ZM21 17C21 17.2652 20.8946 17.5196 20.7071 17.7071C20.5196 17.8946 20.2652 18 20 18H17V21C17 21.2652 16.8946 21.5196 16.7071 21.7071C16.5196 21.8946 16.2652 22 16 22C15.7348 22 15.4804 21.8946 15.2929 21.7071C15.1054 21.5196 15 21.2652 15 21V18H12C11.7348 18 11.4804 17.8946 11.2929 17.7071C11.1054 17.5196 11 17.2652 11 17C11 16.7348 11.1054 16.4804 11.2929 16.2929C11.4804 16.1054 11.7348 16 12 16H15V13C15 12.7348 15.1054 12.4804 15.2929 12.2929C15.4804 12.1054 15.7348 12 16 12C16.2652 12 16.5196 12.1054 16.7071 12.2929C16.8946 12.4804 17 12.7348 17 13V16H20C20.2652 16 20.5196 16.1054 20.7071 16.2929C20.8946 16.4804 21 16.7348 21 17Z" fill="currentColor"/>
<path d="M74 7.5H70.2663L68.415 4.7225C68.3694 4.65418 68.3077 4.59814 68.2353 4.55934C68.163 4.52053 68.0821 4.50015 68 4.5H60C59.9179 4.50015 59.837 4.52053 59.7647 4.55934C59.6923 4.59814 59.6306 4.65418 59.585 4.7225L57.7312 7.5H54C53.337 7.5 52.7011 7.76339 52.2322 8.23223C51.7634 8.70107 51.5 9.33696 51.5 10V24C51.5 24.663 51.7634 25.2989 52.2322 25.7678C52.7011 26.2366 53.337 26.5 54 26.5H74C74.663 26.5 75.2989 26.2366 75.7678 25.7678C76.2366 25.2989 76.5 24.663 76.5 24V10C76.5 9.33696 76.2366 8.70107 75.7678 8.23223C75.2989 7.76339 74.663 7.5 74 7.5ZM75.5 24C75.5 24.3978 75.342 24.7794 75.0607 25.0607C74.7794 25.342 74.3978 25.5 74 25.5H54C53.6022 25.5 53.2206 25.342 52.9393 25.0607C52.658 24.7794 52.5 24.3978 52.5 24V10C52.5 9.60218 52.658 9.22064 52.9393 8.93934C53.2206 8.65804 53.6022 8.5 54 8.5H58C58.0823 8.50005 58.1634 8.47977 58.236 8.44096C58.3086 8.40214 58.3706 8.34599 58.4163 8.2775L60.2662 5.5H67.7313L69.5837 8.2775C69.6294 8.34599 69.6914 8.40214 69.764 8.44096C69.8366 8.47977 69.9177 8.50005 70 8.5H74C74.3978 8.5 74.7794 8.65804 75.0607 8.93934C75.342 9.22064 75.5 9.60218 75.5 10V24ZM68.5 17C68.5 17.1326 68.4473 17.2598 68.3536 17.3536C68.2598 17.4473 68.1326 17.5 68 17.5H64.5V21C64.5 21.1326 64.4473 21.2598 64.3536 21.3536C64.2598 21.4473 64.1326 21.5 64 21.5C63.8674 21.5 63.7402 21.4473 63.6464 21.3536C63.5527 21.2598 63.5 21.1326 63.5 21V17.5H60C59.8674 17.5 59.7402 17.4473 59.6464 17.3536C59.5527 17.2598 59.5 17.1326 59.5 17C59.5 16.8674 59.5527 16.7402 59.6464 16.6464C59.7402 16.5527 59.8674 16.5 60 16.5H63.5V13C63.5 12.8674 63.5527 12.7402 63.6464 12.6464C63.7402 12.5527 63.8674 12.5 64 12.5C64.1326 12.5 64.2598 12.5527 64.3536 12.6464C64.4473 12.7402 64.5 12.8674 64.5 13V16.5H68C68.1326 16.5 68.2598 16.5527 68.3536 16.6464C68.4473 16.7402 68.5 16.8674 68.5 17Z" fill="currentColor"/>
<path d="M122 7.25H118.401L116.625 4.58375C116.556 4.48092 116.463 4.39665 116.354 4.33842C116.245 4.28019 116.124 4.24982 116 4.25H108C107.876 4.24982 107.755 4.28019 107.646 4.33842C107.537 4.39665 107.444 4.48092 107.375 4.58375L105.597 7.25H102C101.271 7.25 100.571 7.53973 100.055 8.05546C99.5397 8.57118 99.25 9.27066 99.25 10V24C99.25 24.7293 99.5397 25.4288 100.055 25.9445C100.571 26.4603 101.271 26.75 102 26.75H122C122.729 26.75 123.429 26.4603 123.945 25.9445C124.46 25.4288 124.75 24.7293 124.75 24V10C124.75 9.27066 124.46 8.57118 123.945 8.05546C123.429 7.53973 122.729 7.25 122 7.25ZM123.25 24C123.25 24.3315 123.118 24.6495 122.884 24.8839C122.649 25.1183 122.332 25.25 122 25.25H102C101.668 25.25 101.351 25.1183 101.116 24.8839C100.882 24.6495 100.75 24.3315 100.75 24V10C100.75 9.66848 100.882 9.35054 101.116 9.11612C101.351 8.8817 101.668 8.75 102 8.75H106C106.124 8.75018 106.245 8.71981 106.354 8.66158C106.463 8.60336 106.556 8.51908 106.625 8.41625L108.401 5.75H115.597L117.375 8.41625C117.444 8.51908 117.537 8.60336 117.646 8.66158C117.755 8.71981 117.876 8.75018 118 8.75H122C122.332 8.75 122.649 8.8817 122.884 9.11612C123.118 9.35054 123.25 9.66848 123.25 10V24ZM116.75 17C116.75 17.1989 116.671 17.3897 116.53 17.5303C116.39 17.671 116.199 17.75 116 17.75H112.75V21C112.75 21.1989 112.671 21.3897 112.53 21.5303C112.39 21.671 112.199 21.75 112 21.75C111.801 21.75 111.61 21.671 111.47 21.5303C111.329 21.3897 111.25 21.1989 111.25 21V17.75H108C107.801 17.75 107.61 17.671 107.47 17.5303C107.329 17.3897 107.25 17.1989 107.25 17C107.25 16.8011 107.329 16.6103 107.47 16.4697C107.61 16.329 107.801 16.25 108 16.25H111.25V13C111.25 12.8011 111.329 12.6103 111.47 12.4697C111.61 12.329 111.801 12.25 112 12.25C112.199 12.25 112.39 12.329 112.53 12.4697C112.671 12.6103 112.75 12.8011 112.75 13V16.25H116C116.199 16.25 116.39 16.329 116.53 16.4697C116.671 16.6103 116.75 16.8011 116.75 17Z" fill="currentColor"/>
<path d="M170 6.5H166.802L165.25 4.1675C165.113 3.96185 164.927 3.79329 164.709 3.67684C164.491 3.56038 164.247 3.49964 164 3.5H156C155.753 3.49964 155.509 3.56038 155.291 3.67684C155.073 3.79329 154.887 3.96185 154.75 4.1675L153.196 6.5H150C149.072 6.5 148.182 6.86875 147.525 7.52513C146.869 8.18151 146.5 9.07174 146.5 10V24C146.5 24.9283 146.869 25.8185 147.525 26.4749C148.182 27.1313 149.072 27.5 150 27.5H170C170.46 27.5 170.915 27.4095 171.339 27.2336C171.764 27.0577 172.15 26.7999 172.475 26.4749C172.8 26.1499 173.058 25.764 173.234 25.3394C173.409 24.9148 173.5 24.4596 173.5 24V10C173.5 9.54037 173.409 9.08525 173.234 8.66061C173.058 8.23597 172.8 7.85013 172.475 7.52513C172.15 7.20012 171.764 6.94231 171.339 6.76642C170.915 6.59053 170.46 6.5 170 6.5ZM170.5 24C170.5 24.1326 170.447 24.2598 170.354 24.3536C170.26 24.4473 170.133 24.5 170 24.5H150C149.867 24.5 149.74 24.4473 149.646 24.3536C149.553 24.2598 149.5 24.1326 149.5 24V10C149.5 9.86739 149.553 9.74022 149.646 9.64645C149.74 9.55268 149.867 9.5 150 9.5H154C154.247 9.50037 154.491 9.43962 154.709 9.32317C154.927 9.20671 155.113 9.03816 155.25 8.8325L156.802 6.5H163.196L164.75 8.8325C164.887 9.03816 165.073 9.20671 165.291 9.32317C165.509 9.43962 165.753 9.50037 166 9.5H170C170.133 9.5 170.26 9.55268 170.354 9.64645C170.447 9.74022 170.5 9.86739 170.5 10V24ZM165.5 17C165.5 17.3978 165.342 17.7794 165.061 18.0607C164.779 18.342 164.398 18.5 164 18.5H161.5V21C161.5 21.3978 161.342 21.7794 161.061 22.0607C160.779 22.342 160.398 22.5 160 22.5C159.602 22.5 159.221 22.342 158.939 22.0607C158.658 21.7794 158.5 21.3978 158.5 21V18.5H156C155.602 18.5 155.221 18.342 154.939 18.0607C154.658 17.7794 154.5 17.3978 154.5 17C154.5 16.6022 154.658 16.2206 154.939 15.9393C155.221 15.658 155.602 15.5 156 15.5H158.5V13C158.5 12.6022 158.658 12.2206 158.939 11.9393C159.221 11.658 159.602 11.5 160 11.5C160.398 11.5 160.779 11.658 161.061 11.9393C161.342 12.2206 161.5 12.6022 161.5 13V15.5H164C164.398 15.5 164.779 15.658 165.061 15.9393C165.342 16.2206 165.5 16.6022 165.5 17Z" fill="currentColor"/>
<path d="M218 7H214.535L212.831 4.445C212.74 4.30819 212.616 4.196 212.471 4.11838C212.326 4.04076 212.164 4.0001 212 4H204C203.836 4.0001 203.674 4.04076 203.529 4.11838C203.384 4.196 203.26 4.30819 203.169 4.445L201.464 7H198C197.204 7 196.441 7.31607 195.879 7.87868C195.316 8.44129 195 9.20435 195 10V24C195 24.7956 195.316 25.5587 195.879 26.1213C196.441 26.6839 197.204 27 198 27H218C218.796 27 219.559 26.6839 220.121 26.1213C220.684 25.5587 221 24.7956 221 24V10C221 9.20435 220.684 8.44129 220.121 7.87868C219.559 7.31607 218.796 7 218 7ZM212 18H209V21C209 21.2652 208.895 21.5196 208.707 21.7071C208.52 21.8946 208.265 22 208 22C207.735 22 207.48 21.8946 207.293 21.7071C207.105 21.5196 207 21.2652 207 21V18H204C203.735 18 203.48 17.8946 203.293 17.7071C203.105 17.5196 203 17.2652 203 17C203 16.7348 203.105 16.4804 203.293 16.2929C203.48 16.1054 203.735 16 204 16H207V13C207 12.7348 207.105 12.4804 207.293 12.2929C207.48 12.1054 207.735 12 208 12C208.265 12 208.52 12.1054 208.707 12.2929C208.895 12.4804 209 12.7348 209 13V16H212C212.265 16 212.52 16.1054 212.707 16.2929C212.895 16.4804 213 16.7348 213 17C213 17.2652 212.895 17.5196 212.707 17.7071C212.52 17.8946 212.265 18 212 18Z" fill="currentColor"/>
<path opacity="0.2" d="M268 10V24C268 24.5304 267.789 25.0391 267.414 25.4142C267.039 25.7893 266.53 26 266 26H246C245.47 26 244.961 25.7893 244.586 25.4142C244.211 25.0391 244 24.5304 244 24V10C244 9.46957 244.211 8.96086 244.586 8.58579C244.961 8.21071 245.47 8 246 8H250L252 5H260L262 8H266C266.53 8 267.039 8.21071 267.414 8.58579C267.789 8.96086 268 9.46957 268 10Z" fill="currentColor"/>
<path d="M266 7H262.535L260.831 4.445C260.74 4.30819 260.616 4.196 260.471 4.11838C260.326 4.04076 260.164 4.0001 260 4H252C251.836 4.0001 251.674 4.04076 251.529 4.11838C251.384 4.196 251.26 4.30819 251.169 4.445L249.464 7H246C245.204 7 244.441 7.31607 243.879 7.87868C243.316 8.44129 243 9.20435 243 10V24C243 24.7956 243.316 25.5587 243.879 26.1213C244.441 26.6839 245.204 27 246 27H266C266.796 27 267.559 26.6839 268.121 26.1213C268.684 25.5587 269 24.7956 269 24V10C269 9.20435 268.684 8.44129 268.121 7.87868C267.559 7.31607 266.796 7 266 7ZM267 24C267 24.2652 266.895 24.5196 266.707 24.7071C266.52 24.8946 266.265 25 266 25H246C245.735 25 245.48 24.8946 245.293 24.7071C245.105 24.5196 245 24.2652 245 24V10C245 9.73478 245.105 9.48043 245.293 9.29289C245.48 9.10536 245.735 9 246 9H250C250.165 9.00011 250.327 8.95954 250.472 8.88191C250.617 8.80428 250.741 8.69199 250.833 8.555L252.535 6H259.464L261.167 8.555C261.259 8.69199 261.383 8.80428 261.528 8.88191C261.673 8.95954 261.835 9.00011 262 9H266C266.265 9 266.52 9.10536 266.707 9.29289C266.895 9.48043 267 9.73478 267 10V24ZM261 17C261 17.2652 260.895 17.5196 260.707 17.7071C260.52 17.8946 260.265 18 260 18H257V21C257 21.2652 256.895 21.5196 256.707 21.7071C256.52 21.8946 256.265 22 256 22C255.735 22 255.48 21.8946 255.293 21.7071C255.105 21.5196 255 21.2652 255 21V18H252C251.735 18 251.48 17.8946 251.293 17.7071C251.105 17.5196 251 17.2652 251 17C251 16.7348 251.105 16.4804 251.293 16.2929C251.48 16.1054 251.735 16 252 16H255V13C255 12.7348 255.105 12.4804 255.293 12.2929C255.48 12.1054 255.735 12 256 12C256.265 12 256.52 12.1054 256.707 12.2929C256.895 12.4804 257 12.7348 257 13V16H260C260.265 16 260.52 16.1054 260.707 16.2929C260.895 16.4804 261 16.7348 261 17Z" fill="currentColor"/>
</g>
<defs>
<clipPath id="clip0_17_17213">
<rect width="272" height="32" rx="5" fill="white"/>
</clipPath>
</defs>
</svg>
