<svg width="272" height="32" viewBox="0 0 272 32" fill="none" xmlns="http://www.w3.org/2000/svg">
<g clip-path="url(#clip0_17_17185)">
<path d="M6.74 4.32752C6.65218 4.22853 6.54559 4.14795 6.4264 4.09046C6.30721 4.03297 6.1778 3.9997 6.04566 3.99259C5.91352 3.98549 5.78128 4.00467 5.65661 4.04905C5.53194 4.09342 5.41732 4.1621 5.31939 4.2511C5.22146 4.3401 5.14216 4.44765 5.0861 4.56752C5.03004 4.68739 4.99833 4.81719 4.99281 4.94941C4.98728 5.08162 5.00806 5.21362 5.05392 5.33775C5.09979 5.46187 5.16983 5.57567 5.26 5.67252L6.46625 7.00002H6C5.20435 7.00002 4.44129 7.31609 3.87868 7.8787C3.31607 8.44131 3 9.20437 3 10V24C3 24.7957 3.31607 25.5587 3.87868 26.1213C4.44129 26.684 5.20435 27 6 27H24.6488L25.26 27.6725C25.3478 27.7715 25.4544 27.8521 25.5736 27.9096C25.6928 27.9671 25.8222 28.0003 25.9543 28.0075C26.0865 28.0146 26.2187 27.9954 26.3434 27.951C26.4681 27.9066 26.5827 27.8379 26.6806 27.7489C26.7785 27.66 26.8578 27.5524 26.9139 27.4325C26.97 27.3127 27.0017 27.1829 27.0072 27.0506C27.0127 26.9184 26.9919 26.7864 26.9461 26.6623C26.9002 26.5382 26.8302 26.4244 26.74 26.3275L6.74 4.32752ZM13.1975 14.4038L17.8225 19.49C17.2741 19.8259 16.6431 20.0025 16 20C15.3504 20 14.7137 19.8191 14.161 19.4778C13.6084 19.1364 13.1617 18.648 12.8708 18.0672C12.5799 17.4864 12.4564 16.8361 12.5141 16.1891C12.5718 15.5421 12.8085 14.9239 13.1975 14.4038ZM6 25C5.73478 25 5.48043 24.8947 5.29289 24.7071C5.10536 24.5196 5 24.2652 5 24V10C5 9.73481 5.10536 9.48045 5.29289 9.29292C5.48043 9.10538 5.73478 9.00002 6 9.00002H8.285L11.8363 12.9075C11.1483 13.7051 10.7038 14.6834 10.5556 15.7261C10.4074 16.7689 10.5617 17.8323 11.0002 18.79C11.4388 19.7476 12.143 20.5592 13.0294 21.1282C13.9157 21.6973 14.9467 21.9999 16 22C17.1393 21.9976 18.25 21.6431 19.18 20.985L22.83 25H6ZM29 10V23.25C29 23.5152 28.8946 23.7696 28.7071 23.9571C28.5196 24.1447 28.2652 24.25 28 24.25C27.7348 24.25 27.4804 24.1447 27.2929 23.9571C27.1054 23.7696 27 23.5152 27 23.25V10C27 9.73481 26.8946 9.48045 26.7071 9.29292C26.5196 9.10538 26.2652 9.00002 26 9.00002H22C21.8355 8.99992 21.6736 8.95926 21.5286 8.88164C21.3836 8.80402 21.26 8.69183 21.1688 8.55502L19.4638 6.00002H12.53C12.3688 6.19998 12.1368 6.33022 11.8821 6.36375C11.6274 6.39729 11.3696 6.33153 11.1621 6.18013C10.9546 6.02872 10.8133 5.80327 10.7676 5.55052C10.7218 5.29776 10.775 5.03708 10.9163 4.82252L11.1663 4.44752C11.2575 4.3099 11.3814 4.197 11.5268 4.11892C11.6723 4.04083 11.8349 3.99998 12 4.00002H20C20.1647 3.99992 20.3268 4.04048 20.4721 4.11811C20.6173 4.19574 20.7411 4.30804 20.8325 4.44502L22.535 7.00002H26C26.7956 7.00002 27.5587 7.31609 28.1213 7.8787C28.6839 8.44131 29 9.20437 29 10Z" fill="currentColor"/>
<path d="M54.375 4.66376C54.2858 4.56431 54.1608 4.50435 54.0274 4.49708C53.894 4.48982 53.7632 4.53584 53.6638 4.62501C53.5643 4.71419 53.5043 4.83923 53.4971 4.97261C53.4898 5.106 53.5358 5.23681 53.625 5.33626L55.5975 7.50001H54C53.337 7.50001 52.7011 7.76341 52.2322 8.23225C51.7634 8.70109 51.5 9.33697 51.5 10V24C51.5 24.6631 51.7634 25.2989 52.2322 25.7678C52.7011 26.2366 53.337 26.5 54 26.5H72.875L73.635 27.3363C73.6789 27.3858 73.7322 27.426 73.7918 27.4548C73.8514 27.4835 73.9161 27.5002 73.9822 27.5037C74.0482 27.5073 74.1144 27.4977 74.1767 27.4755C74.239 27.4533 74.2963 27.419 74.3453 27.3745C74.3943 27.33 74.4339 27.2762 74.4619 27.2163C74.49 27.1563 74.5058 27.0914 74.5086 27.0253C74.5114 26.9592 74.501 26.8932 74.478 26.8312C74.4551 26.7691 74.4201 26.7122 74.375 26.6638L54.375 4.66376ZM66.5725 19.5675C65.853 20.174 64.941 20.5046 64 20.5C63.2065 20.5002 62.4309 20.2643 61.7718 19.8225C61.1127 19.3806 60.5999 18.7527 60.2987 18.0186C59.9974 17.2845 59.9213 16.4774 60.0801 15.6999C60.2388 14.9225 60.6251 14.2098 61.19 13.6525L66.5725 19.5675ZM54 25.5C53.6022 25.5 53.2206 25.342 52.9393 25.0607C52.658 24.7794 52.5 24.3978 52.5 24V10C52.5 9.60219 52.658 9.22066 52.9393 8.93935C53.2206 8.65805 53.6022 8.50001 54 8.50001H56.5L60.5112 12.9125C59.5797 13.8164 59.0361 15.0471 58.9955 16.3445C58.9549 17.6419 59.4204 18.9042 60.2936 19.8646C61.1669 20.825 62.3793 21.4081 63.6747 21.4908C64.9701 21.5734 66.2468 21.1491 67.235 20.3075L71.9613 25.5H54ZM76.5 10V23.25C76.5 23.3826 76.4473 23.5098 76.3536 23.6036C76.2598 23.6973 76.1326 23.75 76 23.75C75.8674 23.75 75.7402 23.6973 75.6464 23.6036C75.5527 23.5098 75.5 23.3826 75.5 23.25V10C75.5 9.60219 75.342 9.22066 75.0607 8.93935C74.7794 8.65805 74.3978 8.50001 74 8.50001H70C69.9179 8.49986 69.837 8.47948 69.7647 8.44068C69.6923 8.40187 69.6306 8.34583 69.585 8.27751L67.7313 5.50001H60.2662L60.1637 5.65376C60.1283 5.71063 60.0818 5.75979 60.0271 5.79834C59.9723 5.83688 59.9103 5.86403 59.8448 5.87816C59.7793 5.89229 59.7117 5.89311 59.6459 5.88058C59.58 5.86806 59.5174 5.84243 59.4617 5.80524C59.406 5.76804 59.3583 5.72002 59.3215 5.66404C59.2847 5.60806 59.2596 5.54526 59.2475 5.47936C59.2355 5.41346 59.2368 5.34582 59.2514 5.28044C59.266 5.21505 59.2936 5.15327 59.3325 5.09876L59.5825 4.72376C59.6282 4.65486 59.6902 4.59836 59.7631 4.55931C59.8359 4.52027 59.9173 4.49989 60 4.50001H68C68.0823 4.49996 68.1634 4.52024 68.236 4.55906C68.3086 4.59787 68.3706 4.65402 68.4163 4.72251L70.2663 7.50001H74C74.663 7.50001 75.2989 7.76341 75.7678 8.23225C76.2366 8.70109 76.5 9.33697 76.5 10Z" fill="currentColor"/>
<path d="M102.555 4.5C102.418 4.37256 102.238 4.30112 102.05 4.29972C101.863 4.29833 101.682 4.36709 101.543 4.49248C101.404 4.61787 101.316 4.7908 101.298 4.97726C101.28 5.16372 101.333 5.35019 101.445 5.5L103.031 7.25H102C101.271 7.25 100.571 7.53973 100.055 8.05546C99.5397 8.57118 99.25 9.27066 99.25 10V24C99.25 24.7293 99.5397 25.4288 100.055 25.9445C100.571 26.4603 101.271 26.75 102 26.75H120.759L121.445 27.5C121.579 27.6472 121.766 27.7352 121.965 27.7445C122.163 27.7539 122.358 27.6839 122.505 27.55C122.652 27.4161 122.74 27.2291 122.75 27.0304C122.759 26.8316 122.689 26.6372 122.555 26.49L102.555 4.5ZM109.188 14.025L114.201 19.5413C113.562 20.0061 112.791 20.2544 112 20.25C111.278 20.2499 110.572 20.0417 109.966 19.6502C109.36 19.2587 108.879 18.7007 108.582 18.043C108.286 17.3853 108.185 16.6559 108.292 15.9423C108.399 15.2287 108.71 14.5613 109.188 14.02V14.025ZM102 25.25C101.668 25.25 101.351 25.1183 101.116 24.8839C100.882 24.6495 100.75 24.3315 100.75 24V10C100.75 9.66848 100.882 9.35054 101.116 9.11612C101.351 8.8817 101.668 8.75 102 8.75H104.395L108.174 12.9063C107.262 13.8675 106.747 15.138 106.733 16.4628C106.719 17.7876 107.206 19.0688 108.097 20.0494C108.988 21.03 110.217 21.6375 111.537 21.75C112.857 21.8626 114.171 21.4719 115.215 20.6563L119.395 25.25H102ZM124.75 10V23.25C124.75 23.4489 124.671 23.6397 124.53 23.7803C124.39 23.921 124.199 24 124 24C123.801 24 123.61 23.921 123.47 23.7803C123.329 23.6397 123.25 23.4489 123.25 23.25V10C123.25 9.66848 123.118 9.35054 122.884 9.11612C122.649 8.8817 122.332 8.75 122 8.75H118C117.876 8.75019 117.755 8.71981 117.646 8.66158C117.537 8.60336 117.444 8.51908 117.375 8.41625L115.597 5.75H108.401L108.373 5.7925C108.262 5.95826 108.091 6.07345 107.896 6.11271C107.7 6.15198 107.498 6.11211 107.332 6.00188C107.166 5.89165 107.051 5.72008 107.012 5.52493C106.972 5.32977 107.012 5.12701 107.123 4.96125L107.373 4.58625C107.441 4.48261 107.534 4.39762 107.644 4.33893C107.753 4.28024 107.876 4.24968 108 4.25H116C116.124 4.24982 116.245 4.28019 116.354 4.33842C116.463 4.39665 116.556 4.48092 116.625 4.58375L118.401 7.25H122C122.729 7.25 123.429 7.53973 123.945 8.05546C124.46 8.57118 124.75 9.27066 124.75 10Z" fill="currentColor"/>
<path d="M151.11 3.99125C150.978 3.84277 150.818 3.7219 150.64 3.63566C150.461 3.54942 150.267 3.49952 150.068 3.48886C149.87 3.4782 149.672 3.50698 149.485 3.57354C149.298 3.6401 149.126 3.74312 148.979 3.87661C148.832 4.01011 148.713 4.17144 148.629 4.35124C148.545 4.53105 148.497 4.72575 148.489 4.92408C148.481 5.1224 148.512 5.3204 148.581 5.50659C148.65 5.69278 148.755 5.86347 148.89 6.00875L149.39 6.555C148.58 6.69831 147.847 7.12208 147.319 7.752C146.79 8.38192 146.5 9.17778 146.5 10V24C146.5 24.9283 146.869 25.8185 147.525 26.4749C148.182 27.1313 149.072 27.5 150 27.5H168.427L168.89 28.0088C169.159 28.2977 169.531 28.4689 169.925 28.4854C170.32 28.5019 170.705 28.3622 170.997 28.0968C171.289 27.8313 171.465 27.4614 171.486 27.0673C171.507 26.6731 171.372 26.2865 171.11 25.9913L151.11 3.99125ZM157.279 15.2413L161 19.33C160.443 19.5272 159.84 19.5556 159.267 19.4115C158.694 19.2674 158.176 18.9572 157.779 18.52C157.381 18.0827 157.122 17.5378 157.033 16.9536C156.944 16.3694 157.029 15.772 157.279 15.2363V15.2413ZM150 24.5C149.867 24.5 149.74 24.4473 149.646 24.3536C149.553 24.2598 149.5 24.1326 149.5 24V10C149.5 9.8674 149.553 9.74022 149.646 9.64645C149.74 9.55268 149.867 9.5 150 9.5H152.064L155.179 12.9263C154.353 14.0425 153.94 15.4104 154.01 16.797C154.081 18.1835 154.629 19.5028 155.563 20.5301C156.497 21.5573 157.758 22.2289 159.132 22.4304C160.506 22.6319 161.907 22.3508 163.096 21.635L165.7 24.5H150ZM173.5 10V21.7675C173.5 22.1653 173.342 22.5469 173.061 22.8282C172.779 23.1095 172.398 23.2675 172 23.2675C171.602 23.2675 171.221 23.1095 170.939 22.8282C170.658 22.5469 170.5 22.1653 170.5 21.7675V10C170.5 9.8674 170.447 9.74022 170.354 9.64645C170.26 9.55268 170.133 9.5 170 9.5H166C165.753 9.50037 165.509 9.43962 165.291 9.32317C165.073 9.20671 164.887 9.03816 164.75 8.8325L163.196 6.5H156.757C156.36 6.5 155.978 6.34197 155.697 6.06066C155.416 5.77936 155.257 5.39783 155.257 5C155.257 4.60218 155.416 4.22065 155.697 3.93934C155.978 3.65804 156.36 3.5 156.757 3.5H164C164.247 3.49964 164.491 3.56038 164.709 3.67684C164.927 3.79329 165.113 3.96185 165.25 4.1675L166.802 6.5H170C170.46 6.5 170.915 6.59053 171.339 6.76643C171.764 6.94232 172.15 7.20013 172.475 7.52513C172.8 7.85014 173.058 8.23597 173.234 8.66061C173.409 9.08525 173.5 9.54038 173.5 10Z" fill="currentColor"/>
<path d="M198.74 4.32752C198.652 4.22853 198.546 4.14795 198.426 4.09046C198.307 4.03297 198.178 3.9997 198.046 3.99259C197.914 3.98549 197.781 4.00467 197.657 4.04905C197.532 4.09342 197.417 4.1621 197.319 4.2511C197.221 4.3401 197.142 4.44765 197.086 4.56752C197.03 4.68739 196.998 4.81719 196.993 4.94941C196.987 5.08162 197.008 5.21362 197.054 5.33775C197.1 5.46187 197.17 5.57567 197.26 5.67252L198.466 7.00002H198C197.204 7.00002 196.441 7.31609 195.879 7.8787C195.316 8.44131 195 9.20437 195 10V24C195 24.7957 195.316 25.5587 195.879 26.1213C196.441 26.684 197.204 27 198 27H216.649L217.26 27.6725C217.348 27.7715 217.454 27.8521 217.574 27.9096C217.693 27.9671 217.822 28.0003 217.954 28.0075C218.086 28.0146 218.219 27.9954 218.343 27.951C218.468 27.9066 218.583 27.8379 218.681 27.7489C218.779 27.66 218.858 27.5524 218.914 27.4325C218.97 27.3127 219.002 27.1829 219.007 27.0506C219.013 26.9184 218.992 26.7864 218.946 26.6623C218.9 26.5382 218.83 26.4244 218.74 26.3275L198.74 4.32752ZM208 21C207.149 20.9999 206.315 20.7583 205.595 20.3031C204.875 19.848 204.3 19.198 203.935 18.4288C203.57 17.6595 203.431 16.8025 203.533 15.9572C203.636 15.112 203.976 14.3133 204.515 13.6538L210.5 20.24C209.761 20.737 208.89 21.0016 208 21ZM221 10V23.25C221 23.4519 220.939 23.649 220.825 23.8154C220.711 23.9819 220.549 24.1099 220.361 24.1827C220.172 24.2554 219.966 24.2695 219.77 24.2231C219.574 24.1767 219.396 24.0719 219.26 23.9225L203.01 6.04752C202.86 5.88263 202.77 5.67244 202.753 5.4503C202.736 5.22815 202.794 5.00677 202.917 4.82127L203.167 4.44627C203.259 4.30905 203.383 4.19651 203.528 4.11866C203.673 4.04081 203.835 4.00005 204 4.00002H212C212.165 3.99992 212.327 4.04048 212.472 4.11811C212.617 4.19574 212.741 4.30804 212.833 4.44502L214.535 7.00002H218C218.796 7.00002 219.559 7.31609 220.121 7.8787C220.684 8.44131 221 9.20437 221 10Z" fill="currentColor"/>
<path opacity="0.2" d="M266 8H262L260 5H252L250 8H246C245.47 8 244.961 8.21071 244.586 8.58579C244.211 8.96086 244 9.46957 244 10V24C244 24.5304 244.211 25.0391 244.586 25.4142C244.961 25.7893 245.47 26 246 26H266C266.53 26 267.039 25.7893 267.414 25.4142C267.789 25.0391 268 24.5304 268 24V10C268 9.46957 267.789 8.96086 267.414 8.58579C267.039 8.21071 266.53 8 266 8ZM256 21C255.11 21 254.24 20.7361 253.5 20.2416C252.76 19.7471 252.183 19.0443 251.843 18.2221C251.502 17.3998 251.413 16.495 251.586 15.6221C251.76 14.7492 252.189 13.9474 252.818 13.318C253.447 12.6887 254.249 12.2601 255.122 12.0865C255.995 11.9128 256.9 12.0019 257.722 12.3425C258.544 12.6831 259.247 13.2599 259.742 13.9999C260.236 14.74 260.5 15.61 260.5 16.5C260.5 17.6935 260.026 18.8381 259.182 19.682C258.338 20.5259 257.193 21 256 21Z" fill="currentColor"/>
<path d="M246.74 4.32752C246.652 4.22853 246.546 4.14795 246.426 4.09046C246.307 4.03297 246.178 3.9997 246.046 3.99259C245.914 3.98549 245.781 4.00467 245.657 4.04905C245.532 4.09342 245.417 4.1621 245.319 4.2511C245.221 4.3401 245.142 4.44765 245.086 4.56752C245.03 4.68739 244.998 4.81719 244.993 4.94941C244.987 5.08162 245.008 5.21362 245.054 5.33775C245.1 5.46187 245.17 5.57567 245.26 5.67252L246.466 7.00002H246C245.204 7.00002 244.441 7.31609 243.879 7.8787C243.316 8.44131 243 9.20437 243 10V24C243 24.7957 243.316 25.5587 243.879 26.1213C244.441 26.684 245.204 27 246 27H264.649L265.26 27.6725C265.348 27.7715 265.454 27.8521 265.574 27.9096C265.693 27.9671 265.822 28.0003 265.954 28.0075C266.086 28.0146 266.219 27.9954 266.343 27.951C266.468 27.9066 266.583 27.8379 266.681 27.7489C266.779 27.66 266.858 27.5524 266.914 27.4325C266.97 27.3127 267.002 27.1829 267.007 27.0506C267.013 26.9184 266.992 26.7864 266.946 26.6623C266.9 26.5382 266.83 26.4244 266.74 26.3275L246.74 4.32752ZM253.198 14.4038L257.823 19.49C257.274 19.8259 256.643 20.0025 256 20C255.35 20 254.714 19.8191 254.161 19.4778C253.608 19.1364 253.162 18.648 252.871 18.0672C252.58 17.4864 252.456 16.8361 252.514 16.1891C252.572 15.5421 252.808 14.9239 253.198 14.4038ZM246 25C245.735 25 245.48 24.8947 245.293 24.7071C245.105 24.5196 245 24.2652 245 24V10C245 9.73481 245.105 9.48045 245.293 9.29292C245.48 9.10538 245.735 9.00002 246 9.00002H248.285L251.836 12.9075C251.148 13.7051 250.704 14.6834 250.556 15.7261C250.407 16.7689 250.562 17.8323 251 18.79C251.439 19.7476 252.143 20.5592 253.029 21.1282C253.916 21.6973 254.947 21.9999 256 22C257.139 21.9976 258.25 21.6431 259.18 20.985L262.83 25H246ZM269 10V23.25C269 23.5152 268.895 23.7696 268.707 23.9571C268.52 24.1447 268.265 24.25 268 24.25C267.735 24.25 267.48 24.1447 267.293 23.9571C267.105 23.7696 267 23.5152 267 23.25V10C267 9.73481 266.895 9.48045 266.707 9.29292C266.52 9.10538 266.265 9.00002 266 9.00002H262C261.836 8.99992 261.674 8.95926 261.529 8.88164C261.384 8.80402 261.26 8.69183 261.169 8.55502L259.464 6.00002H252.53C252.369 6.19998 252.137 6.33022 251.882 6.36375C251.627 6.39729 251.37 6.33153 251.162 6.18013C250.955 6.02872 250.813 5.80327 250.768 5.55052C250.722 5.29776 250.775 5.03708 250.916 4.82252L251.166 4.44752C251.257 4.3099 251.381 4.197 251.527 4.11892C251.672 4.04083 251.835 3.99998 252 4.00002H260C260.165 3.99992 260.327 4.04048 260.472 4.11811C260.617 4.19574 260.741 4.30804 260.833 4.44502L262.535 7.00002H266C266.796 7.00002 267.559 7.31609 268.121 7.8787C268.684 8.44131 269 9.20437 269 10Z" fill="currentColor"/>
</g>
<defs>
<clipPath id="clip0_17_17185">
<rect width="272" height="32" rx="5" fill="white"/>
</clipPath>
</defs>
</svg>
