<svg width="272" height="32" viewBox="0 0 272 32" fill="none" xmlns="http://www.w3.org/2000/svg">
<g clip-path="url(#clip0_17_17227)">
<path d="M26 7H22.535L20.8312 4.445C20.74 4.30819 20.6164 4.196 20.4714 4.11838C20.3264 4.04076 20.1645 4.0001 20 4H12C11.8355 4.0001 11.6736 4.04076 11.5286 4.11838C11.3836 4.196 11.26 4.30819 11.1687 4.445L9.46375 7H6C5.20435 7 4.44129 7.31607 3.87868 7.87868C3.31607 8.44129 3 9.20435 3 10V24C3 24.7956 3.31607 25.5587 3.87868 26.1213C4.44129 26.6839 5.20435 27 6 27H26C26.7956 27 27.5587 26.6839 28.1213 26.1213C28.6839 25.5587 29 24.7956 29 24V10C29 9.20435 28.6839 8.44129 28.1213 7.87868C27.5587 7.31607 26.7956 7 26 7ZM27 24C27 24.2652 26.8946 24.5196 26.7071 24.7071C26.5196 24.8946 26.2652 25 26 25H6C5.73478 25 5.48043 24.8946 5.29289 24.7071C5.10536 24.5196 5 24.2652 5 24V10C5 9.73478 5.10536 9.48043 5.29289 9.29289C5.48043 9.10536 5.73478 9 6 9H10C10.1647 9.00011 10.3268 8.95954 10.4721 8.88191C10.6173 8.80428 10.7411 8.69199 10.8325 8.555L12.535 6H19.4638L21.1675 8.555C21.2589 8.69199 21.3827 8.80428 21.5279 8.88191C21.6732 8.95954 21.8353 9.00011 22 9H26C26.2652 9 26.5196 9.10536 26.7071 9.29289C26.8946 9.48043 27 9.73478 27 10V24ZM16 11C14.9122 11 13.8488 11.3226 12.9444 11.9269C12.0399 12.5313 11.3349 13.3902 10.9187 14.3952C10.5024 15.4002 10.3935 16.5061 10.6057 17.573C10.8179 18.6399 11.3417 19.6199 12.1109 20.3891C12.8801 21.1583 13.8601 21.6821 14.927 21.8943C15.9939 22.1065 17.0998 21.9976 18.1048 21.5813C19.1098 21.1651 19.9687 20.4601 20.5731 19.5556C21.1774 18.6512 21.5 17.5878 21.5 16.5C21.4983 15.0418 20.9184 13.6438 19.8873 12.6127C18.8562 11.5816 17.4582 11.0017 16 11ZM16 20C15.3078 20 14.6311 19.7947 14.0555 19.4101C13.4799 19.0256 13.0313 18.4789 12.7664 17.8394C12.5015 17.1999 12.4322 16.4961 12.5673 15.8172C12.7023 15.1383 13.0356 14.5146 13.5251 14.0251C14.0146 13.5356 14.6383 13.2023 15.3172 13.0673C15.9961 12.9322 16.6999 13.0015 17.3394 13.2664C17.9789 13.5313 18.5256 13.9799 18.9101 14.5555C19.2947 15.1311 19.5 15.8078 19.5 16.5C19.5 17.4283 19.1313 18.3185 18.4749 18.9749C17.8185 19.6313 16.9283 20 16 20Z" fill="currentColor"/>
<path d="M74 7.5H70.2663L68.415 4.7225C68.3694 4.65418 68.3077 4.59814 68.2353 4.55934C68.163 4.52053 68.0821 4.50015 68 4.5H60C59.9179 4.50015 59.837 4.52053 59.7647 4.55934C59.6923 4.59814 59.6306 4.65418 59.585 4.7225L57.7312 7.5H54C53.337 7.5 52.7011 7.76339 52.2322 8.23223C51.7634 8.70107 51.5 9.33696 51.5 10V24C51.5 24.663 51.7634 25.2989 52.2322 25.7678C52.7011 26.2366 53.337 26.5 54 26.5H74C74.663 26.5 75.2989 26.2366 75.7678 25.7678C76.2366 25.2989 76.5 24.663 76.5 24V10C76.5 9.33696 76.2366 8.70107 75.7678 8.23223C75.2989 7.76339 74.663 7.5 74 7.5ZM75.5 24C75.5 24.3978 75.342 24.7794 75.0607 25.0607C74.7794 25.342 74.3978 25.5 74 25.5H54C53.6022 25.5 53.2206 25.342 52.9393 25.0607C52.658 24.7794 52.5 24.3978 52.5 24V10C52.5 9.60218 52.658 9.22064 52.9393 8.93934C53.2206 8.65804 53.6022 8.5 54 8.5H58C58.0823 8.50005 58.1634 8.47977 58.236 8.44096C58.3086 8.40214 58.3706 8.34599 58.4163 8.2775L60.2662 5.5H67.7313L69.5837 8.2775C69.6294 8.34599 69.6914 8.40214 69.764 8.44096C69.8366 8.47977 69.9177 8.50005 70 8.5H74C74.3978 8.5 74.7794 8.65804 75.0607 8.93934C75.342 9.22064 75.5 9.60218 75.5 10V24ZM64 11.5C63.0111 11.5 62.0444 11.7932 61.2221 12.3427C60.3999 12.8921 59.759 13.673 59.3806 14.5866C59.0022 15.5002 58.9031 16.5055 59.0961 17.4755C59.289 18.4454 59.7652 19.3363 60.4645 20.0355C61.1637 20.7348 62.0546 21.211 63.0245 21.4039C63.9945 21.5969 64.9998 21.4978 65.9134 21.1194C66.827 20.741 67.6079 20.1001 68.1573 19.2779C68.7068 18.4556 69 17.4889 69 16.5C69 15.1739 68.4732 13.9021 67.5355 12.9645C66.5979 12.0268 65.3261 11.5 64 11.5ZM64 20.5C63.2089 20.5 62.4355 20.2654 61.7777 19.8259C61.1199 19.3864 60.6072 18.7616 60.3045 18.0307C60.0017 17.2998 59.9225 16.4956 60.0769 15.7196C60.2312 14.9437 60.6122 14.231 61.1716 13.6716C61.731 13.1122 62.4437 12.7312 63.2196 12.5769C63.9956 12.4225 64.7998 12.5017 65.5307 12.8045C66.2616 13.1072 66.8864 13.6199 67.3259 14.2777C67.7654 14.9355 68 15.7089 68 16.5C68 17.5609 67.5786 18.5783 66.8284 19.3284C66.0783 20.0786 65.0609 20.5 64 20.5Z" fill="currentColor"/>
<path d="M122 7.25H118.401L116.625 4.58375C116.556 4.48092 116.463 4.39665 116.354 4.33842C116.245 4.28019 116.124 4.24982 116 4.25H108C107.876 4.24982 107.755 4.28019 107.646 4.33842C107.537 4.39665 107.444 4.48092 107.375 4.58375L105.597 7.25H102C101.271 7.25 100.571 7.53973 100.055 8.05546C99.5397 8.57118 99.25 9.27066 99.25 10V24C99.25 24.7293 99.5397 25.4288 100.055 25.9445C100.571 26.4603 101.271 26.75 102 26.75H122C122.729 26.75 123.429 26.4603 123.945 25.9445C124.46 25.4288 124.75 24.7293 124.75 24V10C124.75 9.27066 124.46 8.57118 123.945 8.05546C123.429 7.53973 122.729 7.25 122 7.25ZM123.25 24C123.25 24.3315 123.118 24.6495 122.884 24.8839C122.649 25.1183 122.332 25.25 122 25.25H102C101.668 25.25 101.351 25.1183 101.116 24.8839C100.882 24.6495 100.75 24.3315 100.75 24V10C100.75 9.66848 100.882 9.35054 101.116 9.11612C101.351 8.8817 101.668 8.75 102 8.75H106C106.124 8.75018 106.245 8.71981 106.354 8.66158C106.463 8.60336 106.556 8.51908 106.625 8.41625L108.401 5.75H115.597L117.375 8.41625C117.444 8.51908 117.537 8.60336 117.646 8.66158C117.755 8.71981 117.876 8.75018 118 8.75H122C122.332 8.75 122.649 8.8817 122.884 9.11612C123.118 9.35054 123.25 9.66848 123.25 10V24ZM112 11.25C110.962 11.25 109.947 11.5579 109.083 12.1348C108.22 12.7117 107.547 13.5316 107.15 14.4909C106.752 15.4502 106.648 16.5058 106.851 17.5242C107.053 18.5426 107.553 19.4781 108.288 20.2123C109.022 20.9465 109.957 21.4466 110.976 21.6491C111.994 21.8517 113.05 21.7477 114.009 21.3504C114.968 20.953 115.788 20.2801 116.365 19.4167C116.942 18.5534 117.25 17.5384 117.25 16.5C117.25 15.1076 116.697 13.7723 115.712 12.7877C114.728 11.8031 113.392 11.25 112 11.25ZM112 20.25C111.258 20.25 110.533 20.0301 109.917 19.618C109.3 19.206 108.819 18.6203 108.535 17.9351C108.252 17.2498 108.177 16.4958 108.322 15.7684C108.467 15.041 108.824 14.3728 109.348 13.8484C109.873 13.3239 110.541 12.9668 111.268 12.8221C111.996 12.6774 112.75 12.7516 113.435 13.0355C114.12 13.3193 114.706 13.7999 115.118 14.4166C115.53 15.0333 115.75 15.7583 115.75 16.5C115.75 17.4946 115.355 18.4484 114.652 19.1517C113.948 19.8549 112.995 20.25 112 20.25Z" fill="currentColor"/>
<path d="M170 6.5H166.802L165.25 4.1675C165.113 3.96185 164.927 3.79329 164.709 3.67684C164.491 3.56038 164.247 3.49964 164 3.5H156C155.753 3.49964 155.509 3.56038 155.291 3.67684C155.073 3.79329 154.887 3.96185 154.75 4.1675L153.196 6.5H150C149.072 6.5 148.182 6.86875 147.525 7.52513C146.869 8.18151 146.5 9.07174 146.5 10V24C146.5 24.9283 146.869 25.8185 147.525 26.4749C148.182 27.1313 149.072 27.5 150 27.5H170C170.46 27.5 170.915 27.4095 171.339 27.2336C171.764 27.0577 172.15 26.7999 172.475 26.4749C172.8 26.1499 173.058 25.764 173.234 25.3394C173.409 24.9148 173.5 24.4596 173.5 24V10C173.5 9.54037 173.409 9.08525 173.234 8.66061C173.058 8.23597 172.8 7.85013 172.475 7.52513C172.15 7.20012 171.764 6.94231 171.339 6.76642C170.915 6.59053 170.46 6.5 170 6.5ZM170.5 24C170.5 24.1326 170.447 24.2598 170.354 24.3536C170.26 24.4473 170.133 24.5 170 24.5H150C149.867 24.5 149.74 24.4473 149.646 24.3536C149.553 24.2598 149.5 24.1326 149.5 24V10C149.5 9.86739 149.553 9.74022 149.646 9.64645C149.74 9.55268 149.867 9.5 150 9.5H154C154.247 9.50037 154.491 9.43962 154.709 9.32317C154.927 9.20671 155.113 9.03816 155.25 8.8325L156.802 6.5H163.196L164.75 8.8325C164.887 9.03816 165.073 9.20671 165.291 9.32317C165.509 9.43962 165.753 9.50037 166 9.5H170C170.133 9.5 170.26 9.55268 170.354 9.64645C170.447 9.74022 170.5 9.86739 170.5 10V24ZM160 10.5C158.813 10.5 157.653 10.8519 156.667 11.5112C155.68 12.1705 154.911 13.1075 154.457 14.2039C154.003 15.3003 153.884 16.5067 154.115 17.6705C154.347 18.8344 154.918 19.9035 155.757 20.7426C156.596 21.5818 157.666 22.1532 158.829 22.3847C159.993 22.6162 161.2 22.4974 162.296 22.0433C163.392 21.5892 164.33 20.8201 164.989 19.8334C165.648 18.8467 166 17.6867 166 16.5C165.998 14.9092 165.366 13.384 164.241 12.2592C163.116 11.1343 161.591 10.5017 160 10.5ZM160 19.5C159.407 19.5 158.827 19.3241 158.333 18.9944C157.84 18.6648 157.455 18.1962 157.228 17.6481C157.001 17.0999 156.942 16.4967 157.058 15.9147C157.173 15.3328 157.459 14.7982 157.879 14.3787C158.298 13.9591 158.833 13.6734 159.415 13.5576C159.997 13.4419 160.6 13.5013 161.148 13.7284C161.696 13.9554 162.165 14.3399 162.494 14.8333C162.824 15.3266 163 15.9067 163 16.5C163 17.2957 162.684 18.0587 162.121 18.6213C161.559 19.1839 160.796 19.5 160 19.5Z" fill="currentColor"/>
<path d="M218 7H214.535L212.831 4.445C212.74 4.30819 212.616 4.196 212.471 4.11838C212.326 4.04076 212.164 4.0001 212 4H204C203.836 4.0001 203.674 4.04076 203.529 4.11838C203.384 4.196 203.26 4.30819 203.169 4.445L201.464 7H198C197.204 7 196.441 7.31607 195.879 7.87868C195.316 8.44129 195 9.20435 195 10V24C195 24.7956 195.316 25.5587 195.879 26.1213C196.441 26.6839 197.204 27 198 27H218C218.796 27 219.559 26.6839 220.121 26.1213C220.684 25.5587 221 24.7956 221 24V10C221 9.20435 220.684 8.44129 220.121 7.87868C219.559 7.31607 218.796 7 218 7ZM212.5 16.5C212.5 17.39 212.236 18.26 211.742 19.0001C211.247 19.7401 210.544 20.3169 209.722 20.6575C208.9 20.9981 207.995 21.0872 207.122 20.9135C206.249 20.7399 205.447 20.3113 204.818 19.682C204.189 19.0526 203.76 18.2508 203.586 17.3779C203.413 16.505 203.502 15.6002 203.843 14.7779C204.183 13.9557 204.76 13.2529 205.5 12.7584C206.24 12.2639 207.11 12 208 12C209.193 12 210.338 12.4741 211.182 13.318C212.026 14.1619 212.5 15.3065 212.5 16.5Z" fill="currentColor"/>
<path opacity="0.2" d="M266 8H262L260 5H252L250 8H246C245.47 8 244.961 8.21071 244.586 8.58579C244.211 8.96086 244 9.46957 244 10V24C244 24.5304 244.211 25.0391 244.586 25.4142C244.961 25.7893 245.47 26 246 26H266C266.53 26 267.039 25.7893 267.414 25.4142C267.789 25.0391 268 24.5304 268 24V10C268 9.46957 267.789 8.96086 267.414 8.58579C267.039 8.21071 266.53 8 266 8ZM256 21C255.11 21 254.24 20.7361 253.5 20.2416C252.76 19.7471 252.183 19.0443 251.843 18.2221C251.502 17.3998 251.413 16.495 251.586 15.6221C251.76 14.7492 252.189 13.9474 252.818 13.318C253.447 12.6887 254.249 12.2601 255.122 12.0865C255.995 11.9128 256.9 12.0019 257.722 12.3425C258.544 12.6831 259.247 13.2599 259.742 13.9999C260.236 14.74 260.5 15.61 260.5 16.5C260.5 17.6935 260.026 18.8381 259.182 19.682C258.338 20.5259 257.193 21 256 21Z" fill="currentColor"/>
<path d="M266 7H262.535L260.831 4.445C260.74 4.30819 260.616 4.196 260.471 4.11838C260.326 4.04076 260.164 4.0001 260 4H252C251.836 4.0001 251.674 4.04076 251.529 4.11838C251.384 4.196 251.26 4.30819 251.169 4.445L249.464 7H246C245.204 7 244.441 7.31607 243.879 7.87868C243.316 8.44129 243 9.20435 243 10V24C243 24.7956 243.316 25.5587 243.879 26.1213C244.441 26.6839 245.204 27 246 27H266C266.796 27 267.559 26.6839 268.121 26.1213C268.684 25.5587 269 24.7956 269 24V10C269 9.20435 268.684 8.44129 268.121 7.87868C267.559 7.31607 266.796 7 266 7ZM267 24C267 24.2652 266.895 24.5196 266.707 24.7071C266.52 24.8946 266.265 25 266 25H246C245.735 25 245.48 24.8946 245.293 24.7071C245.105 24.5196 245 24.2652 245 24V10C245 9.73478 245.105 9.48043 245.293 9.29289C245.48 9.10536 245.735 9 246 9H250C250.165 9.00011 250.327 8.95954 250.472 8.88191C250.617 8.80428 250.741 8.69199 250.833 8.555L252.535 6H259.464L261.167 8.555C261.259 8.69199 261.383 8.80428 261.528 8.88191C261.673 8.95954 261.835 9.00011 262 9H266C266.265 9 266.52 9.10536 266.707 9.29289C266.895 9.48043 267 9.73478 267 10V24ZM256 11C254.912 11 253.849 11.3226 252.944 11.9269C252.04 12.5313 251.335 13.3902 250.919 14.3952C250.502 15.4002 250.393 16.5061 250.606 17.573C250.818 18.6399 251.342 19.6199 252.111 20.3891C252.88 21.1583 253.86 21.6821 254.927 21.8943C255.994 22.1065 257.1 21.9976 258.105 21.5813C259.11 21.1651 259.969 20.4601 260.573 19.5556C261.177 18.6512 261.5 17.5878 261.5 16.5C261.498 15.0418 260.918 13.6438 259.887 12.6127C258.856 11.5816 257.458 11.0017 256 11ZM256 20C255.308 20 254.631 19.7947 254.056 19.4101C253.48 19.0256 253.031 18.4789 252.766 17.8394C252.502 17.1999 252.432 16.4961 252.567 15.8172C252.702 15.1383 253.036 14.5146 253.525 14.0251C254.015 13.5356 254.638 13.2023 255.317 13.0673C255.996 12.9322 256.7 13.0015 257.339 13.2664C257.979 13.5313 258.526 13.9799 258.91 14.5555C259.295 15.1311 259.5 15.8078 259.5 16.5C259.5 17.4283 259.131 18.3185 258.475 18.9749C257.818 19.6313 256.928 20 256 20Z" fill="currentColor"/>
</g>
<defs>
<clipPath id="clip0_17_17227">
<rect width="272" height="32" rx="5" fill="white"/>
</clipPath>
</defs>
</svg>
