<svg width="272" height="32" viewBox="0 0 272 32" fill="none" xmlns="http://www.w3.org/2000/svg">
<g clip-path="url(#clip0_17_17157)">
<path d="M28 6H4C3.46957 6 2.96086 6.21071 2.58579 6.58579C2.21071 6.96086 2 7.46957 2 8V24C2 24.5304 2.21071 25.0391 2.58579 25.4142C2.96086 25.7893 3.46957 26 4 26H28C28.5304 26 29.0391 25.7893 29.4142 25.4142C29.7893 25.0391 30 24.5304 30 24V8C30 7.46957 29.7893 6.96086 29.4142 6.58579C29.0391 6.21071 28.5304 6 28 6ZM28 24H4V8H28V24ZM14.865 18.9638C14.9978 19.1933 15.0339 19.4662 14.9654 19.7225C14.897 19.9787 14.7296 20.1972 14.5 20.33C13.7399 20.7689 12.8777 21 12 21C11.1223 21 10.26 20.769 9.49989 20.3302C8.73976 19.8914 8.10855 19.2602 7.66968 18.5001C7.23082 17.7399 6.99978 16.8777 6.99978 16C6.99978 15.1223 7.23082 14.2601 7.66968 13.4999C8.10855 12.7398 8.73976 12.1086 9.49989 11.6698C10.26 11.231 11.1223 11 12 11C12.8777 11 13.7399 11.2311 14.5 11.67C14.6174 11.7337 14.7208 11.8203 14.8041 11.9246C14.8875 12.029 14.9491 12.1489 14.9853 12.2775C15.0215 12.406 15.0316 12.5405 15.0151 12.673C14.9985 12.8055 14.9555 12.9333 14.8887 13.049C14.8219 13.1646 14.7327 13.2657 14.6262 13.3463C14.5197 13.4268 14.3981 13.4853 14.2687 13.5181C14.1392 13.5509 14.0045 13.5575 13.8725 13.5374C13.7405 13.5174 13.6138 13.4711 13.5 13.4012C13.0439 13.1382 12.5267 12.9998 12.0002 13C11.4737 13.0002 10.9565 13.1389 10.5006 13.4023C10.0447 13.6656 9.66612 14.0443 9.40292 14.5003C9.13973 14.9563 9.00117 15.4735 9.00117 16C9.00117 16.5265 9.13973 17.0437 9.40292 17.4997C9.66612 17.9557 10.0447 18.3344 10.5006 18.5977C10.9565 18.8611 11.4737 18.9998 12.0002 19C12.5267 19.0002 13.0439 18.8618 13.5 18.5987C13.7295 18.4664 14.0021 18.4305 14.258 18.4989C14.5139 18.5673 14.7322 18.7345 14.865 18.9638ZM24.865 18.9638C24.9978 19.1933 25.0339 19.4662 24.9654 19.7225C24.897 19.9787 24.7296 20.1972 24.5 20.33C23.7399 20.7689 22.8777 21 22 21C21.1223 21 20.26 20.769 19.4999 20.3302C18.7398 19.8914 18.1085 19.2602 17.6697 18.5001C17.2308 17.7399 16.9998 16.8777 16.9998 16C16.9998 15.1223 17.2308 14.2601 17.6697 13.4999C18.1085 12.7398 18.7398 12.1086 19.4999 11.6698C20.26 11.231 21.1223 11 22 11C22.8777 11 23.7399 11.2311 24.5 11.67C24.6174 11.7337 24.7208 11.8203 24.8041 11.9246C24.8875 12.029 24.9491 12.1489 24.9853 12.2775C25.0215 12.406 25.0316 12.5405 25.0151 12.673C24.9985 12.8055 24.9555 12.9333 24.8887 13.049C24.8219 13.1646 24.7327 13.2657 24.6262 13.3463C24.5197 13.4268 24.3981 13.4853 24.2687 13.5181C24.1392 13.5509 24.0045 13.5575 23.8725 13.5374C23.7405 13.5174 23.6138 13.4711 23.5 13.4012C23.0439 13.1382 22.5267 12.9998 22.0002 13C21.4737 13.0002 20.9565 13.1389 20.5006 13.4023C20.0447 13.6656 19.6661 14.0443 19.4029 14.5003C19.1397 14.9563 19.0012 15.4735 19.0012 16C19.0012 16.5265 19.1397 17.0437 19.4029 17.4997C19.6661 17.9557 20.0447 18.3344 20.5006 18.5977C20.9565 18.8611 21.4737 18.9998 22.0002 19C22.5267 19.0002 23.0439 18.8618 23.5 18.5987C23.7295 18.4664 24.0021 18.4305 24.258 18.4989C24.5139 18.5673 24.7322 18.7345 24.865 18.9638Z" fill="currentColor"/>
<path d="M76 6.5H52C51.6022 6.5 51.2206 6.65804 50.9393 6.93934C50.658 7.22064 50.5 7.60218 50.5 8V24C50.5 24.3978 50.658 24.7794 50.9393 25.0607C51.2206 25.342 51.6022 25.5 52 25.5H76C76.3978 25.5 76.7794 25.342 77.0607 25.0607C77.342 24.7794 77.5 24.3978 77.5 24V8C77.5 7.60218 77.342 7.22064 77.0607 6.93934C76.7794 6.65804 76.3978 6.5 76 6.5ZM76.5 24C76.5 24.1326 76.4473 24.2598 76.3536 24.3536C76.2598 24.4473 76.1326 24.5 76 24.5H52C51.8674 24.5 51.7402 24.4473 51.6464 24.3536C51.5527 24.2598 51.5 24.1326 51.5 24V8C51.5 7.86739 51.5527 7.74021 51.6464 7.64645C51.7402 7.55268 51.8674 7.5 52 7.5H76C76.1326 7.5 76.2598 7.55268 76.3536 7.64645C76.4473 7.74021 76.5 7.86739 76.5 8V24ZM62.4325 19.2138C62.4655 19.2706 62.4869 19.3334 62.4956 19.3986C62.5042 19.4637 62.5 19.53 62.483 19.5935C62.4661 19.657 62.4368 19.7165 62.3968 19.7687C62.3568 19.8209 62.3069 19.8646 62.25 19.8975C61.5659 20.2923 60.7899 20.5001 60.0001 20.5C59.2102 20.4999 58.4343 20.2919 57.7503 19.8969C57.0663 19.5019 56.4984 18.9339 56.1035 18.2498C55.7086 17.5658 55.5007 16.7898 55.5007 16C55.5007 15.2102 55.7086 14.4342 56.1035 13.7502C56.4984 13.0661 57.0663 12.4981 57.7503 12.1031C58.4343 11.7081 59.2102 11.5001 60.0001 11.5C60.7899 11.4999 61.5659 11.7077 62.25 12.1025C62.3588 12.1717 62.4367 12.2802 62.4674 12.4055C62.4981 12.5308 62.4792 12.663 62.4146 12.7747C62.3501 12.8863 62.2449 12.9687 62.1211 13.0047C61.9972 13.0406 61.8643 13.0273 61.75 12.9675C61.2179 12.6609 60.6145 12.4996 60.0003 12.5C59.3862 12.5004 58.783 12.6623 58.2512 12.9696C57.7195 13.2769 57.278 13.7187 56.971 14.2506C56.664 14.7825 56.5024 15.3859 56.5024 16C56.5024 16.6141 56.664 17.2175 56.971 17.7494C57.278 18.2813 57.7195 18.7231 58.2512 19.0304C58.783 19.3377 59.3862 19.4996 60.0003 19.5C60.6145 19.5004 61.2179 19.3391 61.75 19.0325C61.8646 18.9662 62.0008 18.9481 62.1287 18.982C62.2567 19.016 62.3659 19.0993 62.4325 19.2138ZM72.4325 19.2138C72.4655 19.2706 72.4869 19.3334 72.4956 19.3986C72.5042 19.4637 72.5 19.53 72.483 19.5935C72.4661 19.657 72.4368 19.7165 72.3968 19.7687C72.3568 19.8209 72.3069 19.8646 72.25 19.8975C71.5659 20.2923 70.7899 20.5001 70.0001 20.5C69.2102 20.4999 68.4343 20.2919 67.7503 19.8969C67.0663 19.5019 66.4984 18.9339 66.1035 18.2498C65.7086 17.5658 65.5007 16.7898 65.5007 16C65.5007 15.2102 65.7086 14.4342 66.1035 13.7502C66.4984 13.0661 67.0663 12.4981 67.7503 12.1031C68.4343 11.7081 69.2102 11.5001 70.0001 11.5C70.7899 11.4999 71.5659 11.7077 72.25 12.1025C72.3588 12.1717 72.4367 12.2802 72.4674 12.4055C72.4981 12.5308 72.4792 12.663 72.4146 12.7747C72.3501 12.8863 72.2449 12.9687 72.1211 13.0047C71.9972 13.0406 71.8643 13.0273 71.75 12.9675C71.2179 12.6609 70.6145 12.4996 70.0003 12.5C69.3862 12.5004 68.783 12.6623 68.2512 12.9696C67.7195 13.2769 67.278 13.7187 66.971 14.2506C66.664 14.7825 66.5024 15.3859 66.5024 16C66.5024 16.6141 66.664 17.2175 66.971 17.7494C67.278 18.2813 67.7195 18.7231 68.2512 19.0304C68.783 19.3377 69.3862 19.4996 70.0003 19.5C70.6145 19.5004 71.2179 19.3391 71.75 19.0325C71.8646 18.9662 72.0008 18.9481 72.1287 18.982C72.2567 19.016 72.3659 19.0993 72.4325 19.2138Z" fill="currentColor"/>
<path d="M124 6.25H100C99.5359 6.25 99.0908 6.43437 98.7626 6.76256C98.4344 7.09075 98.25 7.53587 98.25 8V24C98.25 24.4641 98.4344 24.9092 98.7626 25.2374C99.0908 25.5656 99.5359 25.75 100 25.75H124C124.464 25.75 124.909 25.5656 125.237 25.2374C125.566 24.9092 125.75 24.4641 125.75 24V8C125.75 7.53587 125.566 7.09075 125.237 6.76256C124.909 6.43437 124.464 6.25 124 6.25ZM124.25 24C124.25 24.0663 124.224 24.1299 124.177 24.1768C124.13 24.2237 124.066 24.25 124 24.25H100C99.9337 24.25 99.8701 24.2237 99.8232 24.1768C99.7763 24.1299 99.75 24.0663 99.75 24V8C99.75 7.9337 99.7763 7.87011 99.8232 7.82322C99.8701 7.77634 99.9337 7.75 100 7.75H124C124.066 7.75 124.13 7.77634 124.177 7.82322C124.224 7.87011 124.25 7.9337 124.25 8V24ZM110.649 19.0888C110.698 19.174 110.73 19.2682 110.743 19.3658C110.756 19.4635 110.75 19.5628 110.724 19.658C110.699 19.7532 110.655 19.8424 110.595 19.9206C110.535 19.9988 110.46 20.0644 110.375 20.1138C109.653 20.5306 108.834 20.75 108 20.75C107.166 20.75 106.347 20.5305 105.625 20.1136C104.903 19.6966 104.303 19.097 103.887 18.3749C103.47 17.6529 103.25 16.8338 103.25 16C103.25 15.1662 103.47 14.3471 103.887 13.6251C104.303 12.903 104.903 12.3034 105.625 11.8864C106.347 11.4695 107.166 11.25 108 11.25C108.834 11.25 109.653 11.4694 110.375 11.8862C110.465 11.9331 110.544 11.9977 110.608 12.076C110.672 12.1543 110.719 12.2447 110.748 12.3418C110.776 12.439 110.784 12.5408 110.772 12.6413C110.76 12.7417 110.727 12.8386 110.677 12.9261C110.626 13.0137 110.558 13.0901 110.477 13.1508C110.396 13.2115 110.304 13.2552 110.206 13.2793C110.108 13.3033 110.005 13.3073 109.906 13.2909C109.806 13.2745 109.71 13.238 109.625 13.1838C109.131 12.8989 108.571 12.7491 108 12.7494C107.43 12.7497 106.87 12.9 106.376 13.1853C105.882 13.4706 105.472 13.8809 105.187 14.3748C104.902 14.8688 104.752 15.4291 104.752 15.9994C104.752 16.5697 104.902 17.13 105.187 17.6239C105.472 18.1179 105.882 18.5281 106.376 18.8134C106.87 19.0988 107.43 19.2491 108 19.2494C108.571 19.2496 109.131 19.0998 109.625 18.815C109.797 18.7157 110.002 18.6888 110.193 18.7401C110.385 18.7914 110.549 18.9168 110.649 19.0888ZM120.649 19.0888C120.698 19.174 120.73 19.2682 120.743 19.3658C120.756 19.4635 120.75 19.5628 120.724 19.658C120.699 19.7532 120.655 19.8424 120.595 19.9206C120.535 19.9988 120.46 20.0644 120.375 20.1138C119.653 20.5306 118.834 20.75 118 20.75C117.166 20.75 116.347 20.5305 115.625 20.1136C114.903 19.6966 114.303 19.097 113.887 18.3749C113.47 17.6529 113.25 16.8338 113.25 16C113.25 15.1662 113.47 14.3471 113.887 13.6251C114.303 12.903 114.903 12.3034 115.625 11.8864C116.347 11.4695 117.166 11.25 118 11.25C118.834 11.25 119.653 11.4694 120.375 11.8862C120.465 11.9331 120.544 11.9977 120.608 12.076C120.672 12.1543 120.719 12.2447 120.748 12.3418C120.776 12.439 120.784 12.5408 120.772 12.6413C120.76 12.7417 120.727 12.8386 120.677 12.9261C120.626 13.0137 120.558 13.0901 120.477 13.1508C120.396 13.2115 120.304 13.2552 120.206 13.2793C120.108 13.3033 120.005 13.3073 119.906 13.2909C119.806 13.2745 119.71 13.238 119.625 13.1838C119.131 12.8989 118.571 12.7491 118 12.7494C117.43 12.7497 116.87 12.9 116.376 13.1853C115.882 13.4706 115.472 13.8809 115.187 14.3748C114.902 14.8688 114.752 15.4291 114.752 15.9994C114.752 16.5697 114.902 17.13 115.187 17.6239C115.472 18.1179 115.882 18.5281 116.376 18.8134C116.87 19.0988 117.43 19.2491 118 19.2494C118.571 19.2496 119.131 19.0998 119.625 18.815C119.797 18.7157 120.002 18.6888 120.193 18.7401C120.385 18.7914 120.549 18.9168 120.649 19.0888Z" fill="currentColor"/>
<path d="M172 5.5H148C147.337 5.5 146.701 5.76339 146.232 6.23223C145.763 6.70107 145.5 7.33696 145.5 8V24C145.5 24.663 145.763 25.2989 146.232 25.7678C146.701 26.2366 147.337 26.5 148 26.5H172C172.663 26.5 173.299 26.2366 173.768 25.7678C174.237 25.2989 174.5 24.663 174.5 24V8C174.5 7.33696 174.237 6.70107 173.768 6.23223C173.299 5.76339 172.663 5.5 172 5.5ZM171.5 23.5H148.5V8.5H171.5V23.5ZM150.5 16C150.5 15.0345 150.754 14.086 151.237 13.2498C151.719 12.4136 152.414 11.7192 153.25 11.2364C154.086 10.7536 155.034 10.4994 156 10.4994C156.965 10.4994 157.914 10.7535 158.75 11.2362C159.087 11.439 159.33 11.7658 159.429 12.1465C159.527 12.5271 159.472 12.931 159.275 13.2714C159.079 13.6118 158.756 13.8615 158.378 13.9666C157.999 14.0718 157.594 14.0241 157.25 13.8337C156.87 13.6148 156.439 13.4997 156 13.5C155.562 13.5003 155.131 13.616 154.751 13.8355C154.371 14.055 154.056 14.3706 153.837 14.7505C153.617 15.1304 153.502 15.5614 153.502 16C153.502 16.4386 153.617 16.8696 153.837 17.2495C154.056 17.6294 154.371 17.945 154.751 18.1645C155.131 18.384 155.562 18.4997 156 18.5C156.439 18.5003 156.87 18.3852 157.25 18.1663C157.421 18.0601 157.611 17.9893 157.81 17.9581C158.008 17.927 158.211 17.9361 158.406 17.9849C158.601 18.0337 158.785 18.1213 158.945 18.2423C159.106 18.3634 159.24 18.5155 159.341 18.6896C159.442 18.8637 159.506 19.0563 159.531 19.2558C159.556 19.4554 159.54 19.6579 159.485 19.8513C159.43 20.0447 159.336 20.225 159.21 20.3815C159.084 20.538 158.927 20.6676 158.75 20.7625C157.914 21.2452 156.966 21.4993 156 21.4994C155.035 21.4994 154.086 21.2453 153.25 20.7627C152.414 20.28 151.72 19.5858 151.237 18.7498C150.754 17.9138 150.5 16.9654 150.5 16ZM160.5 16C160.5 15.0345 160.754 14.086 161.237 13.2498C161.719 12.4136 162.414 11.7192 163.25 11.2364C164.086 10.7536 165.034 10.4994 166 10.4994C166.965 10.4994 167.914 10.7535 168.75 11.2362C169.087 11.439 169.33 11.7658 169.429 12.1465C169.527 12.5271 169.472 12.931 169.275 13.2714C169.079 13.6118 168.756 13.8615 168.378 13.9666C167.999 14.0718 167.594 14.0241 167.25 13.8337C166.87 13.6148 166.439 13.4997 166 13.5C165.562 13.5003 165.131 13.616 164.751 13.8355C164.371 14.055 164.056 14.3706 163.837 14.7505C163.617 15.1304 163.502 15.5614 163.502 16C163.502 16.4386 163.617 16.8696 163.837 17.2495C164.056 17.6294 164.371 17.945 164.751 18.1645C165.131 18.384 165.562 18.4997 166 18.5C166.439 18.5003 166.87 18.3852 167.25 18.1663C167.421 18.0601 167.611 17.9893 167.81 17.9581C168.008 17.927 168.211 17.9361 168.406 17.9849C168.601 18.0337 168.785 18.1213 168.945 18.2423C169.106 18.3634 169.24 18.5155 169.341 18.6896C169.442 18.8637 169.506 19.0563 169.531 19.2558C169.556 19.4554 169.54 19.6579 169.485 19.8513C169.43 20.0447 169.336 20.225 169.21 20.3815C169.084 20.538 168.927 20.6676 168.75 20.7625C167.914 21.2452 166.966 21.4993 166 21.4994C165.035 21.4994 164.086 21.2453 163.25 20.7627C162.414 20.28 161.72 19.5858 161.237 18.7498C160.754 17.9138 160.5 16.9654 160.5 16Z" fill="currentColor"/>
<path d="M220 6H196C195.47 6 194.961 6.21071 194.586 6.58579C194.211 6.96086 194 7.46957 194 8V24C194 24.5304 194.211 25.0391 194.586 25.4142C194.961 25.7893 195.47 26 196 26H220C220.53 26 221.039 25.7893 221.414 25.4142C221.789 25.0391 222 24.5304 222 24V8C222 7.46957 221.789 6.96086 221.414 6.58579C221.039 6.21071 220.53 6 220 6ZM206.5 20.33C205.74 20.7689 204.878 21 204 21C203.122 21 202.26 20.769 201.5 20.3302C200.74 19.8914 200.109 19.2602 199.67 18.5001C199.231 17.7399 199 16.8777 199 16C199 15.1223 199.231 14.2601 199.67 13.4999C200.109 12.7398 200.74 12.1086 201.5 11.6698C202.26 11.231 203.122 11 204 11C204.878 11 205.74 11.2311 206.5 11.67C206.617 11.7337 206.721 11.8203 206.804 11.9246C206.887 12.029 206.949 12.1489 206.985 12.2775C207.022 12.406 207.032 12.5405 207.015 12.673C206.998 12.8055 206.956 12.9333 206.889 13.049C206.822 13.1646 206.733 13.2657 206.626 13.3463C206.52 13.4268 206.398 13.4853 206.269 13.5181C206.139 13.5509 206.005 13.5575 205.873 13.5374C205.74 13.5174 205.614 13.4711 205.5 13.4012C205.044 13.1382 204.527 12.9998 204 13C203.474 13.0002 202.956 13.1389 202.501 13.4023C202.045 13.6656 201.666 14.0443 201.403 14.5003C201.14 14.9563 201.001 15.4735 201.001 16C201.001 16.5265 201.14 17.0437 201.403 17.4997C201.666 17.9557 202.045 18.3344 202.501 18.5977C202.956 18.8611 203.474 18.9998 204 19C204.527 19.0002 205.044 18.8618 205.5 18.5987C205.729 18.4744 205.998 18.4443 206.249 18.5151C206.499 18.5858 206.713 18.7517 206.843 18.9774C206.973 19.2031 207.011 19.4708 206.946 19.7234C206.882 19.9761 206.722 20.1937 206.5 20.33ZM216.5 20.33C215.74 20.7689 214.878 21 214 21C213.122 21 212.26 20.769 211.5 20.3302C210.74 19.8914 210.109 19.2602 209.67 18.5001C209.231 17.7399 209 16.8777 209 16C209 15.1223 209.231 14.2601 209.67 13.4999C210.109 12.7398 210.74 12.1086 211.5 11.6698C212.26 11.231 213.122 11 214 11C214.878 11 215.74 11.2311 216.5 11.67C216.617 11.7337 216.721 11.8203 216.804 11.9246C216.887 12.029 216.949 12.1489 216.985 12.2775C217.022 12.406 217.032 12.5405 217.015 12.673C216.998 12.8055 216.956 12.9333 216.889 13.049C216.822 13.1646 216.733 13.2657 216.626 13.3463C216.52 13.4268 216.398 13.4853 216.269 13.5181C216.139 13.5509 216.005 13.5575 215.873 13.5374C215.741 13.5174 215.614 13.4711 215.5 13.4012C215.044 13.1382 214.527 12.9998 214 13C213.474 13.0002 212.956 13.1389 212.501 13.4023C212.045 13.6656 211.666 14.0443 211.403 14.5003C211.14 14.9563 211.001 15.4735 211.001 16C211.001 16.5265 211.14 17.0437 211.403 17.4997C211.666 17.9557 212.045 18.3344 212.501 18.5977C212.956 18.8611 213.474 18.9998 214 19C214.527 19.0002 215.044 18.8618 215.5 18.5987C215.729 18.4744 215.998 18.4443 216.249 18.5151C216.499 18.5858 216.713 18.7517 216.843 18.9774C216.973 19.2031 217.011 19.4708 216.946 19.7234C216.882 19.9761 216.722 20.1937 216.5 20.33Z" fill="currentColor"/>
<path opacity="0.2" d="M269 8V24C269 24.2652 268.895 24.5196 268.707 24.7071C268.52 24.8946 268.265 25 268 25H244C243.735 25 243.48 24.8946 243.293 24.7071C243.105 24.5196 243 24.2652 243 24V8C243 7.73478 243.105 7.48043 243.293 7.29289C243.48 7.10536 243.735 7 244 7H268C268.265 7 268.52 7.10536 268.707 7.29289C268.895 7.48043 269 7.73478 269 8Z" fill="currentColor"/>
<path d="M268 6H244C243.47 6 242.961 6.21071 242.586 6.58579C242.211 6.96086 242 7.46957 242 8V24C242 24.5304 242.211 25.0391 242.586 25.4142C242.961 25.7893 243.47 26 244 26H268C268.53 26 269.039 25.7893 269.414 25.4142C269.789 25.0391 270 24.5304 270 24V8C270 7.46957 269.789 6.96086 269.414 6.58579C269.039 6.21071 268.53 6 268 6ZM268 24H244V8H268V24ZM254.866 18.9638C254.932 19.0775 254.975 19.2031 254.992 19.3333C255.009 19.4635 255 19.5959 254.966 19.7227C254.932 19.8496 254.873 19.9686 254.793 20.0727C254.714 20.1769 254.614 20.2644 254.5 20.33C253.74 20.7689 252.878 21 252 21C251.122 21 250.26 20.769 249.5 20.3302C248.74 19.8914 248.109 19.2602 247.67 18.5001C247.231 17.7399 247 16.8777 247 16C247 15.1223 247.231 14.2601 247.67 13.4999C248.109 12.7398 248.74 12.1086 249.5 11.6698C250.26 11.231 251.122 11 252 11C252.878 11 253.74 11.2311 254.5 11.67C254.617 11.7337 254.721 11.8203 254.804 11.9246C254.887 12.029 254.949 12.1489 254.985 12.2775C255.022 12.406 255.032 12.5405 255.015 12.673C254.998 12.8055 254.956 12.9333 254.889 13.049C254.822 13.1646 254.733 13.2657 254.626 13.3463C254.52 13.4268 254.398 13.4853 254.269 13.5181C254.139 13.5509 254.005 13.5575 253.873 13.5374C253.74 13.5174 253.614 13.4711 253.5 13.4012C253.044 13.1382 252.527 12.9998 252 13C251.474 13.0002 250.956 13.1389 250.501 13.4023C250.045 13.6656 249.666 14.0443 249.403 14.5003C249.14 14.9563 249.001 15.4735 249.001 16C249.001 16.5265 249.14 17.0437 249.403 17.4997C249.666 17.9557 250.045 18.3344 250.501 18.5977C250.956 18.8611 251.474 18.9998 252 19C252.527 19.0002 253.044 18.8618 253.5 18.5987C253.73 18.466 254.002 18.4299 254.259 18.4983C254.515 18.5668 254.733 18.7342 254.866 18.9638ZM264.866 18.9638C264.932 19.0775 264.975 19.2031 264.992 19.3333C265.009 19.4635 265 19.5959 264.966 19.7227C264.932 19.8496 264.873 19.9686 264.793 20.0727C264.714 20.1769 264.614 20.2644 264.5 20.33C263.74 20.7689 262.878 21 262 21C261.122 21 260.26 20.769 259.5 20.3302C258.74 19.8914 258.109 19.2602 257.67 18.5001C257.231 17.7399 257 16.8777 257 16C257 15.1223 257.231 14.2601 257.67 13.4999C258.109 12.7398 258.74 12.1086 259.5 11.6698C260.26 11.231 261.122 11 262 11C262.878 11 263.74 11.2311 264.5 11.67C264.617 11.7337 264.721 11.8203 264.804 11.9246C264.887 12.029 264.949 12.1489 264.985 12.2775C265.022 12.406 265.032 12.5405 265.015 12.673C264.998 12.8055 264.956 12.9333 264.889 13.049C264.822 13.1646 264.733 13.2657 264.626 13.3463C264.52 13.4268 264.398 13.4853 264.269 13.5181C264.139 13.5509 264.005 13.5575 263.873 13.5374C263.741 13.5174 263.614 13.4711 263.5 13.4012C263.044 13.1382 262.527 12.9998 262 13C261.474 13.0002 260.956 13.1389 260.501 13.4023C260.045 13.6656 259.666 14.0443 259.403 14.5003C259.14 14.9563 259.001 15.4735 259.001 16C259.001 16.5265 259.14 17.0437 259.403 17.4997C259.666 17.9557 260.045 18.3344 260.501 18.5977C260.956 18.8611 261.474 18.9998 262 19C262.527 19.0002 263.044 18.8618 263.5 18.5987C263.73 18.466 264.002 18.4299 264.259 18.4983C264.515 18.5668 264.733 18.7342 264.866 18.9638Z" fill="currentColor"/>
</g>
<defs>
<clipPath id="clip0_17_17157">
<rect width="272" height="32" rx="5" fill="white"/>
</clipPath>
</defs>
</svg>
