<svg width="272" height="32" viewBox="0 0 272 32" fill="none" xmlns="http://www.w3.org/2000/svg">
<g clip-path="url(#clip0_17_17115)">
<path d="M19 12V6C19 5.73478 19.1054 5.48043 19.2929 5.29289C19.4804 5.10536 19.7348 5 20 5C20.2652 5 20.5196 5.10536 20.7071 5.29289C20.8946 5.48043 21 5.73478 21 6V11H26C26.2652 11 26.5196 11.1054 26.7071 11.2929C26.8946 11.4804 27 11.7348 27 12C27 12.2652 26.8946 12.5196 26.7071 12.7071C26.5196 12.8946 26.2652 13 26 13H20C19.7348 13 19.4804 12.8946 19.2929 12.7071C19.1054 12.5196 19 12.2652 19 12ZM12 19H6C5.73478 19 5.48043 19.1054 5.29289 19.2929C5.10536 19.4804 5 19.7348 5 20C5 20.2652 5.10536 20.5196 5.29289 20.7071C5.48043 20.8946 5.73478 21 6 21H11V26C11 26.2652 11.1054 26.5196 11.2929 26.7071C11.4804 26.8946 11.7348 27 12 27C12.2652 27 12.5196 26.8946 12.7071 26.7071C12.8946 26.5196 13 26.2652 13 26V20C13 19.7348 12.8946 19.4804 12.7071 19.2929C12.5196 19.1054 12.2652 19 12 19ZM26 19H20C19.7348 19 19.4804 19.1054 19.2929 19.2929C19.1054 19.4804 19 19.7348 19 20V26C19 26.2652 19.1054 26.5196 19.2929 26.7071C19.4804 26.8946 19.7348 27 20 27C20.2652 27 20.5196 26.8946 20.7071 26.7071C20.8946 26.5196 21 26.2652 21 26V21H26C26.2652 21 26.5196 20.8946 26.7071 20.7071C26.8946 20.5196 27 20.2652 27 20C27 19.7348 26.8946 19.4804 26.7071 19.2929C26.5196 19.1054 26.2652 19 26 19ZM12 5C11.7348 5 11.4804 5.10536 11.2929 5.29289C11.1054 5.48043 11 5.73478 11 6V11H6C5.73478 11 5.48043 11.1054 5.29289 11.2929C5.10536 11.4804 5 11.7348 5 12C5 12.2652 5.10536 12.5196 5.29289 12.7071C5.48043 12.8946 5.73478 13 6 13H12C12.2652 13 12.5196 12.8946 12.7071 12.7071C12.8946 12.5196 13 12.2652 13 12V6C13 5.73478 12.8946 5.48043 12.7071 5.29289C12.5196 5.10536 12.2652 5 12 5Z" fill="currentColor"/>
<path d="M67.5 12V6C67.5 5.86739 67.5527 5.74021 67.6464 5.64645C67.7402 5.55268 67.8674 5.5 68 5.5C68.1326 5.5 68.2598 5.55268 68.3536 5.64645C68.4473 5.74021 68.5 5.86739 68.5 6V11.5H74C74.1326 11.5 74.2598 11.5527 74.3536 11.6464C74.4473 11.7402 74.5 11.8674 74.5 12C74.5 12.1326 74.4473 12.2598 74.3536 12.3536C74.2598 12.4473 74.1326 12.5 74 12.5H68C67.8674 12.5 67.7402 12.4473 67.6464 12.3536C67.5527 12.2598 67.5 12.1326 67.5 12ZM60 19.5H54C53.8674 19.5 53.7402 19.5527 53.6464 19.6464C53.5527 19.7402 53.5 19.8674 53.5 20C53.5 20.1326 53.5527 20.2598 53.6464 20.3536C53.7402 20.4473 53.8674 20.5 54 20.5H59.5V26C59.5 26.1326 59.5527 26.2598 59.6464 26.3536C59.7402 26.4473 59.8674 26.5 60 26.5C60.1326 26.5 60.2598 26.4473 60.3536 26.3536C60.4473 26.2598 60.5 26.1326 60.5 26V20C60.5 19.8674 60.4473 19.7402 60.3536 19.6464C60.2598 19.5527 60.1326 19.5 60 19.5ZM74 19.5H68C67.8674 19.5 67.7402 19.5527 67.6464 19.6464C67.5527 19.7402 67.5 19.8674 67.5 20V26C67.5 26.1326 67.5527 26.2598 67.6464 26.3536C67.7402 26.4473 67.8674 26.5 68 26.5C68.1326 26.5 68.2598 26.4473 68.3536 26.3536C68.4473 26.2598 68.5 26.1326 68.5 26V20.5H74C74.1326 20.5 74.2598 20.4473 74.3536 20.3536C74.4473 20.2598 74.5 20.1326 74.5 20C74.5 19.8674 74.4473 19.7402 74.3536 19.6464C74.2598 19.5527 74.1326 19.5 74 19.5ZM60 5.5C59.8674 5.5 59.7402 5.55268 59.6464 5.64645C59.5527 5.74021 59.5 5.86739 59.5 6V11.5H54C53.8674 11.5 53.7402 11.5527 53.6464 11.6464C53.5527 11.7402 53.5 11.8674 53.5 12C53.5 12.1326 53.5527 12.2598 53.6464 12.3536C53.7402 12.4473 53.8674 12.5 54 12.5H60C60.1326 12.5 60.2598 12.4473 60.3536 12.3536C60.4473 12.2598 60.5 12.1326 60.5 12V6C60.5 5.86739 60.4473 5.74021 60.3536 5.64645C60.2598 5.55268 60.1326 5.5 60 5.5Z" fill="currentColor"/>
<path d="M115.25 12V6C115.25 5.80109 115.329 5.61032 115.47 5.46967C115.61 5.32902 115.801 5.25 116 5.25C116.199 5.25 116.39 5.32902 116.53 5.46967C116.671 5.61032 116.75 5.80109 116.75 6V11.25H122C122.199 11.25 122.39 11.329 122.53 11.4697C122.671 11.6103 122.75 11.8011 122.75 12C122.75 12.1989 122.671 12.3897 122.53 12.5303C122.39 12.671 122.199 12.75 122 12.75H116C115.801 12.75 115.61 12.671 115.47 12.5303C115.329 12.3897 115.25 12.1989 115.25 12ZM108 19.25H102C101.801 19.25 101.61 19.329 101.47 19.4697C101.329 19.6103 101.25 19.8011 101.25 20C101.25 20.1989 101.329 20.3897 101.47 20.5303C101.61 20.671 101.801 20.75 102 20.75H107.25V26C107.25 26.1989 107.329 26.3897 107.47 26.5303C107.61 26.671 107.801 26.75 108 26.75C108.199 26.75 108.39 26.671 108.53 26.5303C108.671 26.3897 108.75 26.1989 108.75 26V20C108.75 19.8011 108.671 19.6103 108.53 19.4697C108.39 19.329 108.199 19.25 108 19.25ZM122 19.25H116C115.801 19.25 115.61 19.329 115.47 19.4697C115.329 19.6103 115.25 19.8011 115.25 20V26C115.25 26.1989 115.329 26.3897 115.47 26.5303C115.61 26.671 115.801 26.75 116 26.75C116.199 26.75 116.39 26.671 116.53 26.5303C116.671 26.3897 116.75 26.1989 116.75 26V20.75H122C122.199 20.75 122.39 20.671 122.53 20.5303C122.671 20.3897 122.75 20.1989 122.75 20C122.75 19.8011 122.671 19.6103 122.53 19.4697C122.39 19.329 122.199 19.25 122 19.25ZM108 5.25C107.801 5.25 107.61 5.32902 107.47 5.46967C107.329 5.61032 107.25 5.80109 107.25 6V11.25H102C101.801 11.25 101.61 11.329 101.47 11.4697C101.329 11.6103 101.25 11.8011 101.25 12C101.25 12.1989 101.329 12.3897 101.47 12.5303C101.61 12.671 101.801 12.75 102 12.75H108C108.199 12.75 108.39 12.671 108.53 12.5303C108.671 12.3897 108.75 12.1989 108.75 12V6C108.75 5.80109 108.671 5.61032 108.53 5.46967C108.39 5.32902 108.199 5.25 108 5.25Z" fill="currentColor"/>
<path d="M162.5 12V6C162.5 5.60218 162.658 5.22064 162.939 4.93934C163.221 4.65804 163.602 4.5 164 4.5C164.398 4.5 164.779 4.65804 165.061 4.93934C165.342 5.22064 165.5 5.60218 165.5 6V10.5H170C170.398 10.5 170.779 10.658 171.061 10.9393C171.342 11.2206 171.5 11.6022 171.5 12C171.5 12.3978 171.342 12.7794 171.061 13.0607C170.779 13.342 170.398 13.5 170 13.5H164C163.602 13.5 163.221 13.342 162.939 13.0607C162.658 12.7794 162.5 12.3978 162.5 12ZM156 18.5H150C149.602 18.5 149.221 18.658 148.939 18.9393C148.658 19.2206 148.5 19.6022 148.5 20C148.5 20.3978 148.658 20.7794 148.939 21.0607C149.221 21.342 149.602 21.5 150 21.5H154.5V26C154.5 26.3978 154.658 26.7794 154.939 27.0607C155.221 27.342 155.602 27.5 156 27.5C156.398 27.5 156.779 27.342 157.061 27.0607C157.342 26.7794 157.5 26.3978 157.5 26V20C157.5 19.6022 157.342 19.2206 157.061 18.9393C156.779 18.658 156.398 18.5 156 18.5ZM170 18.5H164C163.602 18.5 163.221 18.658 162.939 18.9393C162.658 19.2206 162.5 19.6022 162.5 20V26C162.5 26.3978 162.658 26.7794 162.939 27.0607C163.221 27.342 163.602 27.5 164 27.5C164.398 27.5 164.779 27.342 165.061 27.0607C165.342 26.7794 165.5 26.3978 165.5 26V21.5H170C170.398 21.5 170.779 21.342 171.061 21.0607C171.342 20.7794 171.5 20.3978 171.5 20C171.5 19.6022 171.342 19.2206 171.061 18.9393C170.779 18.658 170.398 18.5 170 18.5ZM156 4.5C155.602 4.5 155.221 4.65804 154.939 4.93934C154.658 5.22064 154.5 5.60218 154.5 6V10.5H150C149.602 10.5 149.221 10.658 148.939 10.9393C148.658 11.2206 148.5 11.6022 148.5 12C148.5 12.3978 148.658 12.7794 148.939 13.0607C149.221 13.342 149.602 13.5 150 13.5H156C156.398 13.5 156.779 13.342 157.061 13.0607C157.342 12.7794 157.5 12.3978 157.5 12V6C157.5 5.60218 157.342 5.22064 157.061 4.93934C156.779 4.65804 156.398 4.5 156 4.5Z" fill="currentColor"/>
<path d="M211 12V5.99999C211 5.8021 211.058 5.60861 211.168 5.44401C211.278 5.27942 211.434 5.15112 211.617 5.07537C211.8 4.99962 212.001 4.97981 212.195 5.01846C212.389 5.05712 212.568 5.15248 212.707 5.29249L218.707 11.2925C218.848 11.4323 218.943 11.6106 218.982 11.8047C219.02 11.9988 219 12.2 218.925 12.3828C218.849 12.5656 218.721 12.7218 218.556 12.8317C218.391 12.9416 218.198 13.0001 218 13H212C211.735 13 211.48 12.8946 211.293 12.7071C211.105 12.5196 211 12.2652 211 12ZM204 19H198C197.802 18.9998 197.609 19.0584 197.444 19.1683C197.279 19.2781 197.151 19.4344 197.075 19.6172C197 19.8 196.98 20.0012 197.018 20.1953C197.057 20.3894 197.152 20.5676 197.292 20.7075L203.292 26.7075C203.432 26.8475 203.611 26.9429 203.805 26.9815C203.999 27.0202 204.2 27.0004 204.383 26.9246C204.566 26.8489 204.722 26.7206 204.832 26.556C204.942 26.3914 205 26.1979 205 26V20C205 19.7348 204.895 19.4804 204.707 19.2929C204.52 19.1054 204.265 19 204 19ZM204.382 5.07624C204.2 5.00045 203.999 4.98053 203.805 5.01903C203.611 5.05752 203.432 5.15269 203.292 5.29249L197.292 11.2925C197.152 11.4323 197.057 11.6106 197.018 11.8047C196.98 11.9988 197 12.2 197.075 12.3828C197.151 12.5656 197.279 12.7218 197.444 12.8317C197.609 12.9416 197.802 13.0001 198 13H204C204.265 13 204.52 12.8946 204.707 12.7071C204.895 12.5196 205 12.2652 205 12V5.99999C205 5.80221 204.941 5.60889 204.831 5.44446C204.721 5.28004 204.565 5.1519 204.382 5.07624ZM218 19H212C211.735 19 211.48 19.1054 211.293 19.2929C211.105 19.4804 211 19.7348 211 20V26C211 26.1979 211.058 26.3914 211.168 26.556C211.278 26.7206 211.434 26.8489 211.617 26.9246C211.8 27.0004 212.001 27.0202 212.195 26.9815C212.389 26.9429 212.568 26.8475 212.707 26.7075L218.707 20.7075C218.848 20.5676 218.943 20.3894 218.982 20.1953C219.02 20.0012 219 19.8 218.925 19.6172C218.849 19.4344 218.721 19.2781 218.556 19.1683C218.391 19.0584 218.198 18.9998 218 19Z" fill="currentColor"/>
<path opacity="0.2" d="M266 12H260V6L266 12ZM252 26V20H246L252 26ZM260 26L266 20H260V26ZM252 12V6L246 12H252Z" fill="currentColor"/>
<path d="M260 13H266C266.198 13.0001 266.391 12.9416 266.556 12.8317C266.721 12.7218 266.849 12.5656 266.925 12.3828C267 12.2 267.02 11.9988 266.982 11.8047C266.943 11.6106 266.848 11.4323 266.707 11.2925L260.707 5.29249C260.568 5.15248 260.389 5.05712 260.195 5.01846C260.001 4.97981 259.8 4.99962 259.617 5.07537C259.434 5.15112 259.278 5.27942 259.168 5.44401C259.058 5.60861 259 5.8021 259 5.99999V12C259 12.2652 259.105 12.5196 259.293 12.7071C259.48 12.8946 259.735 13 260 13ZM261 8.41374L263.586 11H261V8.41374ZM252 19H246C245.802 18.9998 245.609 19.0584 245.444 19.1683C245.279 19.2781 245.151 19.4344 245.075 19.6172C245 19.8 244.98 20.0012 245.018 20.1953C245.057 20.3894 245.152 20.5676 245.292 20.7075L251.292 26.7075C251.432 26.8475 251.611 26.9429 251.805 26.9815C251.999 27.0202 252.2 27.0004 252.383 26.9246C252.566 26.8489 252.722 26.7206 252.832 26.556C252.942 26.3914 253 26.1979 253 26V20C253 19.7348 252.895 19.4804 252.707 19.2929C252.52 19.1054 252.265 19 252 19ZM251 23.5862L248.414 21H251V23.5862ZM266 19H260C259.735 19 259.48 19.1054 259.293 19.2929C259.105 19.4804 259 19.7348 259 20V26C259 26.1979 259.058 26.3914 259.168 26.556C259.278 26.7206 259.434 26.8489 259.617 26.9246C259.8 27.0004 260.001 27.0202 260.195 26.9815C260.389 26.9429 260.568 26.8475 260.707 26.7075L266.707 20.7075C266.848 20.5676 266.943 20.3894 266.982 20.1953C267.02 20.0012 267 19.8 266.925 19.6172C266.849 19.4344 266.721 19.2781 266.556 19.1683C266.391 19.0584 266.198 18.9998 266 19ZM261 23.5862V21H263.586L261 23.5862ZM252.382 5.07624C252.2 5.00045 251.999 4.98053 251.805 5.01903C251.611 5.05752 251.432 5.15269 251.292 5.29249L245.292 11.2925C245.152 11.4323 245.057 11.6106 245.018 11.8047C244.98 11.9988 245 12.2 245.075 12.3828C245.151 12.5656 245.279 12.7218 245.444 12.8317C245.609 12.9416 245.802 13.0001 246 13H252C252.265 13 252.52 12.8946 252.707 12.7071C252.895 12.5196 253 12.2652 253 12V5.99999C253 5.80221 252.941 5.60889 252.831 5.44446C252.721 5.28004 252.565 5.1519 252.382 5.07624ZM251 11H248.414L251 8.41374V11Z" fill="currentColor"/>
</g>
<defs>
<clipPath id="clip0_17_17115">
<rect width="272" height="32" rx="5" fill="white"/>
</clipPath>
</defs>
</svg>
