<svg width="272" height="32" viewBox="0 0 272 32" fill="none" xmlns="http://www.w3.org/2000/svg">
<g clip-path="url(#clip0_17_17073)">
<path d="M27 13C27 13.2652 26.8946 13.5196 26.7071 13.7071C26.5196 13.8946 26.2652 14 26 14C25.7348 14 25.4804 13.8946 25.2929 13.7071C25.1054 13.5196 25 13.2652 25 13C25 10.6131 24.0518 8.32387 22.364 6.63604C20.6761 4.94821 18.3869 4 16 4C13.6131 4 11.3239 4.94821 9.63604 6.63604C7.94821 8.32387 7 10.6131 7 13C7 16.3375 8.06625 17.365 9.19625 18.455C10.2762 19.5 11.5 20.6763 11.5 23.5C11.5 24.6935 11.9741 25.8381 12.818 26.682C13.6619 27.5259 14.8065 28 16 28C17.28 28 18.3063 27.48 19.2288 26.3638C19.3114 26.2596 19.4139 26.173 19.5304 26.109C19.6469 26.045 19.775 26.0048 19.9072 25.9909C20.0393 25.9769 20.173 25.9895 20.3003 26.0278C20.4275 26.0661 20.5459 26.1294 20.6484 26.214C20.751 26.2986 20.8356 26.4027 20.8974 26.5204C20.9592 26.6381 20.9969 26.7669 21.0084 26.8993C21.0198 27.0318 21.0047 27.1651 20.964 27.2917C20.9233 27.4182 20.8578 27.5353 20.7712 27.6362C19.4762 29.205 17.875 30 16 30C14.2767 29.998 12.6246 29.3126 11.406 28.094C10.1874 26.8754 9.50199 25.2233 9.5 23.5C9.5 21.5263 8.79 20.8413 7.8075 19.895C6.5575 18.6875 5 17.1875 5 13C5 10.0826 6.15893 7.28473 8.22183 5.22183C10.2847 3.15893 13.0826 2 16 2C18.9174 2 21.7153 3.15893 23.7782 5.22183C25.8411 7.28473 27 10.0826 27 13ZM22.2337 20.135C22.12 20.0691 21.9944 20.0262 21.8641 20.0089C21.7338 19.9915 21.6013 20.0001 21.4743 20.034C21.3473 20.0679 21.2282 20.1265 21.1239 20.2064C21.0195 20.2864 20.932 20.3862 20.8662 20.5C20.7562 20.6908 20.5863 20.8399 20.3829 20.9242C20.1795 21.0085 19.9539 21.0233 19.7412 20.9663C19.5285 20.9093 19.3406 20.7837 19.2065 20.609C19.0725 20.4343 18.9999 20.2202 19 20C19 18.8337 19.6025 18.03 20.3 17.1C21.0962 16.0375 22 14.8337 22 13C22 11.4087 21.3679 9.88258 20.2426 8.75736C19.1174 7.63214 17.5913 7 16 7C14.4087 7 12.8826 7.63214 11.7574 8.75736C10.6321 9.88258 10 11.4087 10 13C10 13.2652 10.1054 13.5196 10.2929 13.7071C10.4804 13.8946 10.7348 14 11 14C11.2652 14 11.5196 13.8946 11.7071 13.7071C11.8946 13.5196 12 13.2652 12 13C12 11.9391 12.4214 10.9217 13.1716 10.1716C13.9217 9.42143 14.9391 9 16 9C17.0609 9 18.0783 9.42143 18.8284 10.1716C19.5786 10.9217 20 11.9391 20 13C20 14.1663 19.3975 14.97 18.7 15.9C17.9038 16.9625 17 18.1663 17 20C17.0002 20.6602 17.2182 21.3019 17.6202 21.8257C18.0222 22.3494 18.5858 22.7259 19.2235 22.8968C19.8612 23.0677 20.5375 23.0234 21.1475 22.7709C21.7575 22.5183 22.2672 22.0716 22.5975 21.5C22.73 21.2707 22.7661 20.9982 22.6979 20.7423C22.6297 20.4864 22.4628 20.268 22.2337 20.135Z" fill="currentColor"/>
<path d="M74.5 13C74.5 13.1326 74.4473 13.2598 74.3536 13.3536C74.2598 13.4473 74.1326 13.5 74 13.5C73.8674 13.5 73.7402 13.4473 73.6464 13.3536C73.5527 13.2598 73.5 13.1326 73.5 13C73.5 10.4804 72.4991 8.06408 70.7175 6.28249C68.9359 4.50089 66.5196 3.5 64 3.5C61.4804 3.5 59.0641 4.50089 57.2825 6.28249C55.5009 8.06408 54.5 10.4804 54.5 13C54.5 16.55 55.6938 17.7013 56.8488 18.815C57.9062 19.8337 59 20.8888 59 23.5C59 24.8261 59.5268 26.0979 60.4645 27.0355C61.4021 27.9732 62.6739 28.5 64 28.5C65.4213 28.5 66.6038 27.905 67.615 26.6812C67.7007 26.5831 67.8214 26.5223 67.9513 26.5118C68.0812 26.5013 68.2101 26.5419 68.3105 26.625C68.4109 26.7081 68.4748 26.8271 68.4887 26.9567C68.5027 27.0863 68.4654 27.2162 68.385 27.3188C67.19 28.7663 65.7137 29.5 64 29.5C62.4092 29.4983 60.884 28.8657 59.7592 27.7408C58.6343 26.616 58.0017 25.0908 58 23.5C58 21.3137 57.145 20.4888 56.155 19.535C54.91 18.335 53.5 16.9738 53.5 13C53.5 10.2152 54.6062 7.54451 56.5754 5.57538C58.5445 3.60625 61.2152 2.5 64 2.5C66.7848 2.5 69.4555 3.60625 71.4246 5.57538C73.3938 7.54451 74.5 10.2152 74.5 13ZM69.9825 20.5675C69.8678 20.5013 69.7315 20.4834 69.6035 20.5176C69.4755 20.5518 69.3664 20.6354 69.3 20.75C69.1351 21.0364 68.8802 21.2604 68.575 21.3871C68.2697 21.5138 67.9311 21.5361 67.6119 21.4506C67.2926 21.3651 67.0106 21.1765 66.8095 20.9142C66.6084 20.6519 66.4996 20.3305 66.5 20C66.5 18.6663 67.18 17.76 67.9 16.8C68.6862 15.75 69.5 14.6663 69.5 13C69.5 11.5413 68.9205 10.1424 67.8891 9.11091C66.8576 8.07946 65.4587 7.5 64 7.5C62.5413 7.5 61.1424 8.07946 60.1109 9.11091C59.0795 10.1424 58.5 11.5413 58.5 13C58.5 13.1326 58.5527 13.2598 58.6464 13.3536C58.7402 13.4473 58.8674 13.5 59 13.5C59.1326 13.5 59.2598 13.4473 59.3536 13.3536C59.4473 13.2598 59.5 13.1326 59.5 13C59.5 11.8065 59.9741 10.6619 60.818 9.81802C61.6619 8.97411 62.8065 8.5 64 8.5C65.1935 8.5 66.3381 8.97411 67.182 9.81802C68.0259 10.6619 68.5 11.8065 68.5 13C68.5 14.3337 67.82 15.24 67.1 16.2C66.3138 17.25 65.5 18.3337 65.5 20C65.5 20.5503 65.6816 21.0852 66.0166 21.5218C66.3517 21.9584 66.8214 22.2723 67.3529 22.4147C67.8845 22.5571 68.4482 22.5202 68.9566 22.3096C69.4651 22.099 69.8898 21.7266 70.165 21.25C70.2312 21.1353 70.2491 20.999 70.2149 20.871C70.1807 20.743 70.0971 20.6339 69.9825 20.5675Z" fill="currentColor"/>
<path d="M122.75 13C122.75 13.1989 122.671 13.3897 122.53 13.5303C122.39 13.671 122.199 13.75 122 13.75C121.801 13.75 121.61 13.671 121.47 13.5303C121.329 13.3897 121.25 13.1989 121.25 13C121.25 10.5467 120.275 8.19397 118.541 6.45926C116.806 4.72455 114.453 3.75 112 3.75C109.547 3.75 107.194 4.72455 105.459 6.45926C103.725 8.19397 102.75 10.5467 102.75 13C102.75 16.4438 103.854 17.5075 105.023 18.635C105.561 19.1537 106.119 19.6912 106.542 20.4438C107.019 21.2887 107.25 22.2875 107.25 23.5C107.25 24.7598 107.75 25.968 108.641 26.8588C109.532 27.7496 110.74 28.25 112 28.25C113.342 28.25 114.461 27.685 115.421 26.5225C115.484 26.4465 115.561 26.3836 115.648 26.3374C115.735 26.2911 115.83 26.2625 115.928 26.2531C116.026 26.2437 116.125 26.2537 116.22 26.2826C116.314 26.3114 116.401 26.3585 116.478 26.4212C116.554 26.484 116.616 26.561 116.663 26.648C116.709 26.7351 116.737 26.8303 116.747 26.9284C116.756 27.0265 116.746 27.1255 116.717 27.2197C116.689 27.3139 116.641 27.4015 116.579 27.4775C115.333 28.985 113.792 29.75 112 29.75C110.343 29.748 108.754 29.0889 107.583 27.9172C106.411 26.7456 105.752 25.157 105.75 23.5C105.75 21.42 104.97 20.6675 103.981 19.7138C102.765 18.5413 101.25 17.08 101.25 13C101.25 10.1489 102.383 7.41462 104.399 5.3986C106.415 3.38259 109.149 2.25 112 2.25C114.851 2.25 117.585 3.38259 119.601 5.3986C121.617 7.41462 122.75 10.1489 122.75 13ZM118.108 20.3512C117.935 20.252 117.731 20.225 117.539 20.2764C117.347 20.3277 117.183 20.4531 117.084 20.625C116.946 20.8639 116.734 21.0508 116.48 21.1565C116.225 21.2622 115.943 21.2809 115.677 21.2096C115.41 21.1383 115.175 20.981 115.008 20.7623C114.84 20.5435 114.75 20.2756 114.75 20C114.75 18.75 115.375 17.9163 116.1 16.95C116.875 15.9188 117.75 14.75 117.75 13C117.75 11.475 117.144 10.0125 116.066 8.93414C114.988 7.8558 113.525 7.25 112 7.25C110.475 7.25 109.012 7.8558 107.934 8.93414C106.856 10.0125 106.25 11.475 106.25 13C106.25 13.1989 106.329 13.3897 106.47 13.5303C106.61 13.671 106.801 13.75 107 13.75C107.199 13.75 107.39 13.671 107.53 13.5303C107.671 13.3897 107.75 13.1989 107.75 13C107.75 11.8728 108.198 10.7918 108.995 9.9948C109.792 9.19777 110.873 8.75 112 8.75C113.127 8.75 114.208 9.19777 115.005 9.9948C115.802 10.7918 116.25 11.8728 116.25 13C116.25 14.25 115.625 15.0837 114.9 16.05C114.125 17.0812 113.25 18.25 113.25 20C113.25 20.6053 113.45 21.1936 113.818 21.6737C114.187 22.1539 114.704 22.4991 115.288 22.6557C115.873 22.8124 116.493 22.7718 117.052 22.5402C117.611 22.3087 118.078 21.8991 118.381 21.375C118.481 21.2029 118.507 20.9984 118.456 20.8065C118.405 20.6146 118.279 20.4508 118.108 20.3512Z" fill="currentColor"/>
<path d="M171.5 13C171.5 13.3978 171.342 13.7794 171.061 14.0607C170.779 14.342 170.398 14.5 170 14.5C169.602 14.5 169.221 14.342 168.939 14.0607C168.658 13.7794 168.5 13.3978 168.5 13C168.5 10.7457 167.604 8.58365 166.01 6.98959C164.416 5.39553 162.254 4.5 160 4.5C157.746 4.5 155.584 5.39553 153.99 6.98959C152.396 8.58365 151.5 10.7457 151.5 13C151.5 16.125 152.447 17.0375 153.544 18.095C154.64 19.1525 156 20.4637 156 23.5C156 24.5609 156.421 25.5783 157.172 26.3284C157.922 27.0786 158.939 27.5 160 27.5C161.125 27.5 162.024 27.0375 162.844 26.045C163.1 25.7481 163.462 25.5634 163.853 25.5304C164.244 25.4974 164.632 25.6188 164.934 25.8686C165.237 26.1183 165.429 26.4766 165.471 26.8666C165.512 27.2566 165.399 27.6473 165.156 27.955C163.761 29.6437 162.026 30.5 160 30.5C158.144 30.498 156.365 29.7599 155.052 28.4476C153.74 27.1352 153.002 25.3559 153 23.5C153 21.7388 152.421 21.18 151.461 20.25C150.141 18.9825 148.5 17.3988 148.5 13C148.5 9.95001 149.712 7.02494 151.868 4.86827C154.025 2.7116 156.95 1.5 160 1.5C163.05 1.5 165.975 2.7116 168.132 4.86827C170.288 7.02494 171.5 9.95001 171.5 13ZM166.484 19.7013C166.313 19.6025 166.125 19.5384 165.93 19.5125C165.734 19.4866 165.536 19.4994 165.345 19.5503C165.155 19.6011 164.976 19.689 164.82 19.8088C164.664 19.9287 164.532 20.0782 164.434 20.2488C164.379 20.3444 164.294 20.4193 164.192 20.4617C164.09 20.504 163.977 20.5116 163.871 20.483C163.764 20.4545 163.67 20.3915 163.603 20.3039C163.536 20.2164 163.5 20.1091 163.5 19.9988C163.5 19.0475 163.956 18.3913 164.7 17.3988C165.5 16.3313 166.5 15 166.5 13C166.5 11.2761 165.815 9.62279 164.596 8.40381C163.377 7.18482 161.724 6.5 160 6.5C158.276 6.5 156.623 7.18482 155.404 8.40381C154.185 9.62279 153.5 11.2761 153.5 13C153.5 13.3978 153.658 13.7794 153.939 14.0607C154.221 14.342 154.602 14.5 155 14.5C155.398 14.5 155.779 14.342 156.061 14.0607C156.342 13.7794 156.5 13.3978 156.5 13C156.5 12.0717 156.869 11.1815 157.525 10.5251C158.182 9.86875 159.072 9.5 160 9.5C160.928 9.5 161.818 9.86875 162.475 10.5251C163.131 11.1815 163.5 12.0717 163.5 13C163.5 13.9513 163.044 14.6075 162.3 15.6C161.5 16.6688 160.5 18 160.5 20C160.5 20.7705 160.754 21.5195 161.223 22.1308C161.692 22.7422 162.35 23.1816 163.094 23.381C163.838 23.5804 164.628 23.5287 165.34 23.2338C166.051 22.9389 166.646 22.4173 167.031 21.75C167.23 21.4057 167.284 20.9965 167.182 20.6123C167.079 20.2281 166.828 19.9004 166.484 19.7013Z" fill="currentColor"/>
<path d="M208 3C205.429 3 202.915 3.76244 200.778 5.1909C198.64 6.61935 196.974 8.64968 195.99 11.0251C195.006 13.4006 194.748 16.0144 195.25 18.5362C195.751 21.0579 196.99 23.3743 198.808 25.1924C200.626 27.0105 202.942 28.2486 205.464 28.7502C207.986 29.2518 210.599 28.9944 212.975 28.0104C215.35 27.0265 217.381 25.3603 218.809 23.2224C220.238 21.0846 221 18.5712 221 16C220.996 12.5533 219.626 9.24882 217.188 6.81163C214.751 4.37445 211.447 3.00364 208 3ZM210.5 19C210.557 18.9998 210.613 18.9905 210.666 18.9725C210.915 18.8893 211.186 18.9071 211.422 19.022C211.658 19.137 211.839 19.3399 211.926 19.587C212.014 19.8342 212.001 20.1058 211.89 20.3434C211.779 20.5811 211.579 20.7657 211.334 20.8575C210.957 20.9909 210.553 21.0319 210.157 20.9769C209.76 20.922 209.383 20.7728 209.057 20.5418C208.73 20.3108 208.464 20.0049 208.28 19.6496C208.096 19.2943 208 18.9 208 18.5C208 17.3938 208.596 16.5962 209.125 15.8912C209.596 15.2662 210 14.7188 210 14C210 13.4696 209.789 12.9609 209.414 12.5858C209.039 12.2107 208.53 12 208 12C207.47 12 206.961 12.2107 206.586 12.5858C206.211 12.9609 206 13.4696 206 14C206 14.2652 205.895 14.5196 205.707 14.7071C205.52 14.8946 205.265 15 205 15C204.735 15 204.48 14.8946 204.293 14.7071C204.105 14.5196 204 14.2652 204 14C204 12.9391 204.421 11.9217 205.172 11.1716C205.922 10.4214 206.939 10 208 10C209.061 10 210.078 10.4214 210.828 11.1716C211.579 11.9217 212 12.9391 212 14C212 15.3837 211.293 16.3288 210.725 17.0888C210.275 17.69 210 18.08 210 18.5C210 18.6326 210.053 18.7598 210.146 18.8536C210.24 18.9473 210.367 19 210.5 19ZM215 15C214.735 15 214.48 14.8946 214.293 14.7071C214.105 14.5196 214 14.2652 214 14C214 12.4087 213.368 10.8826 212.243 9.75736C211.117 8.63214 209.591 8 208 8C206.409 8 204.883 8.63214 203.757 9.75736C202.632 10.8826 202 12.4087 202 14C202 15.4875 202.839 16.5625 203.728 17.7C204.603 18.815 205.5 19.9688 205.5 21.5C205.5 21.9924 205.645 22.4739 205.917 22.8841C206.19 23.2942 206.577 23.6148 207.031 23.8056C207.485 23.9964 207.985 24.0489 208.469 23.9565C208.953 23.8641 209.398 23.6309 209.75 23.2862C209.842 23.1885 209.954 23.1105 210.077 23.0567C210.2 23.003 210.333 22.9747 210.468 22.9735C210.602 22.9723 210.736 22.9983 210.86 23.0499C210.984 23.1014 211.097 23.1775 211.191 23.2736C211.285 23.3697 211.359 23.4838 211.408 23.609C211.457 23.7343 211.48 23.8681 211.476 24.0026C211.472 24.1371 211.441 24.2693 211.385 24.3915C211.329 24.5137 211.248 24.6233 211.149 24.7138C210.516 25.3337 209.714 25.753 208.844 25.9191C207.974 26.0852 207.074 25.9907 206.257 25.6476C205.44 25.3044 204.743 24.7277 204.252 23.9899C203.762 23.2521 203.5 22.3859 203.5 21.5C203.5 20.6575 202.875 19.8575 202.151 18.9312C201.193 17.7037 200 16.1763 200 14C200 11.8783 200.843 9.84344 202.343 8.34315C203.843 6.84285 205.878 6 208 6C210.122 6 212.157 6.84285 213.657 8.34315C215.157 9.84344 216 11.8783 216 14C216 14.2652 215.895 14.5196 215.707 14.7071C215.52 14.8946 215.265 15 215 15Z" fill="currentColor"/>
<path opacity="0.2" d="M266 13C266 18 264.195 22 260 27C258.991 28.2213 257.708 29 256 29C254.541 29 253.142 28.4205 252.111 27.3891C251.079 26.3576 250.5 24.9587 250.5 23.5C250.5 18.3137 246 20 246 13C246 10.3478 247.054 7.8043 248.929 5.92893C250.804 4.05357 253.348 3 256 3C258.652 3 261.196 4.05357 263.071 5.92893C264.946 7.8043 266 10.3478 266 13Z" fill="currentColor"/>
<path d="M267 13C267 13.2652 266.895 13.5196 266.707 13.7071C266.52 13.8946 266.265 14 266 14C265.735 14 265.48 13.8946 265.293 13.7071C265.105 13.5196 265 13.2652 265 13C265 10.6131 264.052 8.32387 262.364 6.63604C260.676 4.94821 258.387 4 256 4C253.613 4 251.324 4.94821 249.636 6.63604C247.948 8.32387 247 10.6131 247 13C247 16.3375 248.066 17.365 249.196 18.455C250.276 19.5 251.5 20.6763 251.5 23.5C251.5 24.6935 251.974 25.8381 252.818 26.682C253.662 27.5259 254.807 28 256 28C257.28 28 258.306 27.48 259.229 26.3638C259.311 26.2596 259.414 26.173 259.53 26.109C259.647 26.045 259.775 26.0048 259.907 25.9909C260.039 25.9769 260.173 25.9895 260.3 26.0278C260.428 26.0661 260.546 26.1294 260.648 26.214C260.751 26.2986 260.836 26.4027 260.897 26.5204C260.959 26.6381 260.997 26.7669 261.008 26.8993C261.02 27.0318 261.005 27.1651 260.964 27.2917C260.923 27.4182 260.858 27.5353 260.771 27.6362C259.476 29.205 257.875 30 256 30C254.277 29.998 252.625 29.3126 251.406 28.094C250.187 26.8754 249.502 25.2233 249.5 23.5C249.5 21.5263 248.79 20.8413 247.807 19.895C246.557 18.6875 245 17.1875 245 13C245 10.0826 246.159 7.28473 248.222 5.22183C250.285 3.15893 253.083 2 256 2C258.917 2 261.715 3.15893 263.778 5.22183C265.841 7.28473 267 10.0826 267 13ZM262.234 20.135C262.12 20.0691 261.994 20.0262 261.864 20.0089C261.734 19.9915 261.601 20.0001 261.474 20.034C261.347 20.0679 261.228 20.1265 261.124 20.2064C261.02 20.2864 260.932 20.3862 260.866 20.5C260.756 20.6908 260.586 20.8399 260.383 20.9242C260.179 21.0085 259.954 21.0233 259.741 20.9663C259.529 20.9093 259.341 20.7837 259.207 20.609C259.073 20.4343 259 20.2202 259 20C259 18.8337 259.602 18.03 260.3 17.1C261.096 16.0375 262 14.8337 262 13C262 11.4087 261.368 9.88258 260.243 8.75736C259.117 7.63214 257.591 7 256 7C254.409 7 252.883 7.63214 251.757 8.75736C250.632 9.88258 250 11.4087 250 13C250 13.2652 250.105 13.5196 250.293 13.7071C250.48 13.8946 250.735 14 251 14C251.265 14 251.52 13.8946 251.707 13.7071C251.895 13.5196 252 13.2652 252 13C252 11.9391 252.421 10.9217 253.172 10.1716C253.922 9.42143 254.939 9 256 9C257.061 9 258.078 9.42143 258.828 10.1716C259.579 10.9217 260 11.9391 260 13C260 14.1663 259.398 14.97 258.7 15.9C257.904 16.9625 257 18.1663 257 20C257 20.6602 257.218 21.3019 257.62 21.8257C258.022 22.3494 258.586 22.7259 259.223 22.8968C259.861 23.0677 260.537 23.0234 261.147 22.7709C261.757 22.5183 262.267 22.0716 262.597 21.5C262.73 21.2707 262.766 20.9982 262.698 20.7423C262.63 20.4864 262.463 20.268 262.234 20.135Z" fill="currentColor"/>
</g>
<defs>
<clipPath id="clip0_17_17073">
<rect width="272" height="32" rx="5" fill="white"/>
</clipPath>
</defs>
</svg>
