<svg width="272" height="32" viewBox="0 0 272 32" fill="none" xmlns="http://www.w3.org/2000/svg">
<g clip-path="url(#clip0_17_17017)">
<path d="M10 12C10 12.2652 9.89464 12.5196 9.70711 12.7071C9.51957 12.8946 9.26522 13 9 13H3C2.73478 13 2.48043 12.8946 2.29289 12.7071C2.10536 12.5196 2 12.2652 2 12C2 11.7348 2.10536 11.4804 2.29289 11.2929C2.48043 11.1054 2.73478 11 3 11H9C9.26522 11 9.51957 11.1054 9.70711 11.2929C9.89464 11.4804 10 11.7348 10 12ZM9 15H3C2.73478 15 2.48043 15.1054 2.29289 15.2929C2.10536 15.4804 2 15.7348 2 16C2 16.2652 2.10536 16.5196 2.29289 16.7071C2.48043 16.8946 2.73478 17 3 17H9C9.26522 17 9.51957 16.8946 9.70711 16.7071C9.89464 16.5196 10 16.2652 10 16C10 15.7348 9.89464 15.4804 9.70711 15.2929C9.51957 15.1054 9.26522 15 9 15ZM9 19H3C2.73478 19 2.48043 19.1054 2.29289 19.2929C2.10536 19.4804 2 19.7348 2 20C2 20.2652 2.10536 20.5196 2.29289 20.7071C2.48043 20.8946 2.73478 21 3 21H9C9.26522 21 9.51957 20.8946 9.70711 20.7071C9.89464 20.5196 10 20.2652 10 20C10 19.7348 9.89464 19.4804 9.70711 19.2929C9.51957 19.1054 9.26522 19 9 19ZM9 23H3C2.73478 23 2.48043 23.1054 2.29289 23.2929C2.10536 23.4804 2 23.7348 2 24C2 24.2652 2.10536 24.5196 2.29289 24.7071C2.48043 24.8946 2.73478 25 3 25H9C9.26522 25 9.51957 24.8946 9.70711 24.7071C9.89464 24.5196 10 24.2652 10 24C10 23.7348 9.89464 23.4804 9.70711 23.2929C9.51957 23.1054 9.26522 23 9 23ZM19 15H13C12.7348 15 12.4804 15.1054 12.2929 15.2929C12.1054 15.4804 12 15.7348 12 16C12 16.2652 12.1054 16.5196 12.2929 16.7071C12.4804 16.8946 12.7348 17 13 17H19C19.2652 17 19.5196 16.8946 19.7071 16.7071C19.8946 16.5196 20 16.2652 20 16C20 15.7348 19.8946 15.4804 19.7071 15.2929C19.5196 15.1054 19.2652 15 19 15ZM19 19H13C12.7348 19 12.4804 19.1054 12.2929 19.2929C12.1054 19.4804 12 19.7348 12 20C12 20.2652 12.1054 20.5196 12.2929 20.7071C12.4804 20.8946 12.7348 21 13 21H19C19.2652 21 19.5196 20.8946 19.7071 20.7071C19.8946 20.5196 20 20.2652 20 20C20 19.7348 19.8946 19.4804 19.7071 19.2929C19.5196 19.1054 19.2652 19 19 19ZM19 23H13C12.7348 23 12.4804 23.1054 12.2929 23.2929C12.1054 23.4804 12 23.7348 12 24C12 24.2652 12.1054 24.5196 12.2929 24.7071C12.4804 24.8946 12.7348 25 13 25H19C19.2652 25 19.5196 24.8946 19.7071 24.7071C19.8946 24.5196 20 24.2652 20 24C20 23.7348 19.8946 23.4804 19.7071 23.2929C19.5196 23.1054 19.2652 23 19 23ZM29 11H23C22.7348 11 22.4804 11.1054 22.2929 11.2929C22.1054 11.4804 22 11.7348 22 12C22 12.2652 22.1054 12.5196 22.2929 12.7071C22.4804 12.8946 22.7348 13 23 13H29C29.2652 13 29.5196 12.8946 29.7071 12.7071C29.8946 12.5196 30 12.2652 30 12C30 11.7348 29.8946 11.4804 29.7071 11.2929C29.5196 11.1054 29.2652 11 29 11ZM23 9H29C29.2652 9 29.5196 8.89464 29.7071 8.70711C29.8946 8.51957 30 8.26522 30 8C30 7.73478 29.8946 7.48043 29.7071 7.29289C29.5196 7.10536 29.2652 7 29 7H23C22.7348 7 22.4804 7.10536 22.2929 7.29289C22.1054 7.48043 22 7.73478 22 8C22 8.26522 22.1054 8.51957 22.2929 8.70711C22.4804 8.89464 22.7348 9 23 9ZM29 15H23C22.7348 15 22.4804 15.1054 22.2929 15.2929C22.1054 15.4804 22 15.7348 22 16C22 16.2652 22.1054 16.5196 22.2929 16.7071C22.4804 16.8946 22.7348 17 23 17H29C29.2652 17 29.5196 16.8946 29.7071 16.7071C29.8946 16.5196 30 16.2652 30 16C30 15.7348 29.8946 15.4804 29.7071 15.2929C29.5196 15.1054 29.2652 15 29 15ZM29 19H23C22.7348 19 22.4804 19.1054 22.2929 19.2929C22.1054 19.4804 22 19.7348 22 20C22 20.2652 22.1054 20.5196 22.2929 20.7071C22.4804 20.8946 22.7348 21 23 21H29C29.2652 21 29.5196 20.8946 29.7071 20.7071C29.8946 20.5196 30 20.2652 30 20C30 19.7348 29.8946 19.4804 29.7071 19.2929C29.5196 19.1054 29.2652 19 29 19ZM29 23H23C22.7348 23 22.4804 23.1054 22.2929 23.2929C22.1054 23.4804 22 23.7348 22 24C22 24.2652 22.1054 24.5196 22.2929 24.7071C22.4804 24.8946 22.7348 25 23 25H29C29.2652 25 29.5196 24.8946 29.7071 24.7071C29.8946 24.5196 30 24.2652 30 24C30 23.7348 29.8946 23.4804 29.7071 23.2929C29.5196 23.1054 29.2652 23 29 23Z" fill="currentColor"/>
<path d="M57.5 12C57.5 12.1326 57.4473 12.2598 57.3536 12.3536C57.2598 12.4473 57.1326 12.5 57 12.5H51C50.8674 12.5 50.7402 12.4473 50.6464 12.3536C50.5527 12.2598 50.5 12.1326 50.5 12C50.5 11.8674 50.5527 11.7402 50.6464 11.6464C50.7402 11.5527 50.8674 11.5 51 11.5H57C57.1326 11.5 57.2598 11.5527 57.3536 11.6464C57.4473 11.7402 57.5 11.8674 57.5 12ZM57 15.5H51C50.8674 15.5 50.7402 15.5527 50.6464 15.6464C50.5527 15.7402 50.5 15.8674 50.5 16C50.5 16.1326 50.5527 16.2598 50.6464 16.3536C50.7402 16.4473 50.8674 16.5 51 16.5H57C57.1326 16.5 57.2598 16.4473 57.3536 16.3536C57.4473 16.2598 57.5 16.1326 57.5 16C57.5 15.8674 57.4473 15.7402 57.3536 15.6464C57.2598 15.5527 57.1326 15.5 57 15.5ZM57 19.5H51C50.8674 19.5 50.7402 19.5527 50.6464 19.6464C50.5527 19.7402 50.5 19.8674 50.5 20C50.5 20.1326 50.5527 20.2598 50.6464 20.3536C50.7402 20.4473 50.8674 20.5 51 20.5H57C57.1326 20.5 57.2598 20.4473 57.3536 20.3536C57.4473 20.2598 57.5 20.1326 57.5 20C57.5 19.8674 57.4473 19.7402 57.3536 19.6464C57.2598 19.5527 57.1326 19.5 57 19.5ZM57 23.5H51C50.8674 23.5 50.7402 23.5527 50.6464 23.6464C50.5527 23.7402 50.5 23.8674 50.5 24C50.5 24.1326 50.5527 24.2598 50.6464 24.3536C50.7402 24.4473 50.8674 24.5 51 24.5H57C57.1326 24.5 57.2598 24.4473 57.3536 24.3536C57.4473 24.2598 57.5 24.1326 57.5 24C57.5 23.8674 57.4473 23.7402 57.3536 23.6464C57.2598 23.5527 57.1326 23.5 57 23.5ZM67 15.5H61C60.8674 15.5 60.7402 15.5527 60.6464 15.6464C60.5527 15.7402 60.5 15.8674 60.5 16C60.5 16.1326 60.5527 16.2598 60.6464 16.3536C60.7402 16.4473 60.8674 16.5 61 16.5H67C67.1326 16.5 67.2598 16.4473 67.3536 16.3536C67.4473 16.2598 67.5 16.1326 67.5 16C67.5 15.8674 67.4473 15.7402 67.3536 15.6464C67.2598 15.5527 67.1326 15.5 67 15.5ZM67 19.5H61C60.8674 19.5 60.7402 19.5527 60.6464 19.6464C60.5527 19.7402 60.5 19.8674 60.5 20C60.5 20.1326 60.5527 20.2598 60.6464 20.3536C60.7402 20.4473 60.8674 20.5 61 20.5H67C67.1326 20.5 67.2598 20.4473 67.3536 20.3536C67.4473 20.2598 67.5 20.1326 67.5 20C67.5 19.8674 67.4473 19.7402 67.3536 19.6464C67.2598 19.5527 67.1326 19.5 67 19.5ZM67 23.5H61C60.8674 23.5 60.7402 23.5527 60.6464 23.6464C60.5527 23.7402 60.5 23.8674 60.5 24C60.5 24.1326 60.5527 24.2598 60.6464 24.3536C60.7402 24.4473 60.8674 24.5 61 24.5H67C67.1326 24.5 67.2598 24.4473 67.3536 24.3536C67.4473 24.2598 67.5 24.1326 67.5 24C67.5 23.8674 67.4473 23.7402 67.3536 23.6464C67.2598 23.5527 67.1326 23.5 67 23.5ZM77 11.5H71C70.8674 11.5 70.7402 11.5527 70.6464 11.6464C70.5527 11.7402 70.5 11.8674 70.5 12C70.5 12.1326 70.5527 12.2598 70.6464 12.3536C70.7402 12.4473 70.8674 12.5 71 12.5H77C77.1326 12.5 77.2598 12.4473 77.3536 12.3536C77.4473 12.2598 77.5 12.1326 77.5 12C77.5 11.8674 77.4473 11.7402 77.3536 11.6464C77.2598 11.5527 77.1326 11.5 77 11.5ZM71 8.5H77C77.1326 8.5 77.2598 8.44732 77.3536 8.35355C77.4473 8.25979 77.5 8.13261 77.5 8C77.5 7.86739 77.4473 7.74021 77.3536 7.64645C77.2598 7.55268 77.1326 7.5 77 7.5H71C70.8674 7.5 70.7402 7.55268 70.6464 7.64645C70.5527 7.74021 70.5 7.86739 70.5 8C70.5 8.13261 70.5527 8.25979 70.6464 8.35355C70.7402 8.44732 70.8674 8.5 71 8.5ZM77 15.5H71C70.8674 15.5 70.7402 15.5527 70.6464 15.6464C70.5527 15.7402 70.5 15.8674 70.5 16C70.5 16.1326 70.5527 16.2598 70.6464 16.3536C70.7402 16.4473 70.8674 16.5 71 16.5H77C77.1326 16.5 77.2598 16.4473 77.3536 16.3536C77.4473 16.2598 77.5 16.1326 77.5 16C77.5 15.8674 77.4473 15.7402 77.3536 15.6464C77.2598 15.5527 77.1326 15.5 77 15.5ZM77 19.5H71C70.8674 19.5 70.7402 19.5527 70.6464 19.6464C70.5527 19.7402 70.5 19.8674 70.5 20C70.5 20.1326 70.5527 20.2598 70.6464 20.3536C70.7402 20.4473 70.8674 20.5 71 20.5H77C77.1326 20.5 77.2598 20.4473 77.3536 20.3536C77.4473 20.2598 77.5 20.1326 77.5 20C77.5 19.8674 77.4473 19.7402 77.3536 19.6464C77.2598 19.5527 77.1326 19.5 77 19.5ZM77 23.5H71C70.8674 23.5 70.7402 23.5527 70.6464 23.6464C70.5527 23.7402 70.5 23.8674 70.5 24C70.5 24.1326 70.5527 24.2598 70.6464 24.3536C70.7402 24.4473 70.8674 24.5 71 24.5H77C77.1326 24.5 77.2598 24.4473 77.3536 24.3536C77.4473 24.2598 77.5 24.1326 77.5 24C77.5 23.8674 77.4473 23.7402 77.3536 23.6464C77.2598 23.5527 77.1326 23.5 77 23.5Z" fill="currentColor"/>
<path d="M105.75 12C105.75 12.1989 105.671 12.3897 105.53 12.5303C105.39 12.671 105.199 12.75 105 12.75H99C98.8011 12.75 98.6103 12.671 98.4697 12.5303C98.329 12.3897 98.25 12.1989 98.25 12C98.25 11.8011 98.329 11.6103 98.4697 11.4697C98.6103 11.329 98.8011 11.25 99 11.25H105C105.199 11.25 105.39 11.329 105.53 11.4697C105.671 11.6103 105.75 11.8011 105.75 12ZM105 15.25H99C98.8011 15.25 98.6103 15.329 98.4697 15.4697C98.329 15.6103 98.25 15.8011 98.25 16C98.25 16.1989 98.329 16.3897 98.4697 16.5303C98.6103 16.671 98.8011 16.75 99 16.75H105C105.199 16.75 105.39 16.671 105.53 16.5303C105.671 16.3897 105.75 16.1989 105.75 16C105.75 15.8011 105.671 15.6103 105.53 15.4697C105.39 15.329 105.199 15.25 105 15.25ZM105 19.25H99C98.8011 19.25 98.6103 19.329 98.4697 19.4697C98.329 19.6103 98.25 19.8011 98.25 20C98.25 20.1989 98.329 20.3897 98.4697 20.5303C98.6103 20.671 98.8011 20.75 99 20.75H105C105.199 20.75 105.39 20.671 105.53 20.5303C105.671 20.3897 105.75 20.1989 105.75 20C105.75 19.8011 105.671 19.6103 105.53 19.4697C105.39 19.329 105.199 19.25 105 19.25ZM105 23.25H99C98.8011 23.25 98.6103 23.329 98.4697 23.4697C98.329 23.6103 98.25 23.8011 98.25 24C98.25 24.1989 98.329 24.3897 98.4697 24.5303C98.6103 24.671 98.8011 24.75 99 24.75H105C105.199 24.75 105.39 24.671 105.53 24.5303C105.671 24.3897 105.75 24.1989 105.75 24C105.75 23.8011 105.671 23.6103 105.53 23.4697C105.39 23.329 105.199 23.25 105 23.25ZM115 15.25H109C108.801 15.25 108.61 15.329 108.47 15.4697C108.329 15.6103 108.25 15.8011 108.25 16C108.25 16.1989 108.329 16.3897 108.47 16.5303C108.61 16.671 108.801 16.75 109 16.75H115C115.199 16.75 115.39 16.671 115.53 16.5303C115.671 16.3897 115.75 16.1989 115.75 16C115.75 15.8011 115.671 15.6103 115.53 15.4697C115.39 15.329 115.199 15.25 115 15.25ZM115 19.25H109C108.801 19.25 108.61 19.329 108.47 19.4697C108.329 19.6103 108.25 19.8011 108.25 20C108.25 20.1989 108.329 20.3897 108.47 20.5303C108.61 20.671 108.801 20.75 109 20.75H115C115.199 20.75 115.39 20.671 115.53 20.5303C115.671 20.3897 115.75 20.1989 115.75 20C115.75 19.8011 115.671 19.6103 115.53 19.4697C115.39 19.329 115.199 19.25 115 19.25ZM115 23.25H109C108.801 23.25 108.61 23.329 108.47 23.4697C108.329 23.6103 108.25 23.8011 108.25 24C108.25 24.1989 108.329 24.3897 108.47 24.5303C108.61 24.671 108.801 24.75 109 24.75H115C115.199 24.75 115.39 24.671 115.53 24.5303C115.671 24.3897 115.75 24.1989 115.75 24C115.75 23.8011 115.671 23.6103 115.53 23.4697C115.39 23.329 115.199 23.25 115 23.25ZM125 11.25H119C118.801 11.25 118.61 11.329 118.47 11.4697C118.329 11.6103 118.25 11.8011 118.25 12C118.25 12.1989 118.329 12.3897 118.47 12.5303C118.61 12.671 118.801 12.75 119 12.75H125C125.199 12.75 125.39 12.671 125.53 12.5303C125.671 12.3897 125.75 12.1989 125.75 12C125.75 11.8011 125.671 11.6103 125.53 11.4697C125.39 11.329 125.199 11.25 125 11.25ZM119 8.75H125C125.199 8.75 125.39 8.67098 125.53 8.53033C125.671 8.38968 125.75 8.19891 125.75 8C125.75 7.80109 125.671 7.61032 125.53 7.46967C125.39 7.32902 125.199 7.25 125 7.25H119C118.801 7.25 118.61 7.32902 118.47 7.46967C118.329 7.61032 118.25 7.80109 118.25 8C118.25 8.19891 118.329 8.38968 118.47 8.53033C118.61 8.67098 118.801 8.75 119 8.75ZM125 15.25H119C118.801 15.25 118.61 15.329 118.47 15.4697C118.329 15.6103 118.25 15.8011 118.25 16C118.25 16.1989 118.329 16.3897 118.47 16.5303C118.61 16.671 118.801 16.75 119 16.75H125C125.199 16.75 125.39 16.671 125.53 16.5303C125.671 16.3897 125.75 16.1989 125.75 16C125.75 15.8011 125.671 15.6103 125.53 15.4697C125.39 15.329 125.199 15.25 125 15.25ZM125 19.25H119C118.801 19.25 118.61 19.329 118.47 19.4697C118.329 19.6103 118.25 19.8011 118.25 20C118.25 20.1989 118.329 20.3897 118.47 20.5303C118.61 20.671 118.801 20.75 119 20.75H125C125.199 20.75 125.39 20.671 125.53 20.5303C125.671 20.3897 125.75 20.1989 125.75 20C125.75 19.8011 125.671 19.6103 125.53 19.4697C125.39 19.329 125.199 19.25 125 19.25ZM125 23.25H119C118.801 23.25 118.61 23.329 118.47 23.4697C118.329 23.6103 118.25 23.8011 118.25 24C118.25 24.1989 118.329 24.3897 118.47 24.5303C118.61 24.671 118.801 24.75 119 24.75H125C125.199 24.75 125.39 24.671 125.53 24.5303C125.671 24.3897 125.75 24.1989 125.75 24C125.75 23.8011 125.671 23.6103 125.53 23.4697C125.39 23.329 125.199 23.25 125 23.25Z" fill="currentColor"/>
<path d="M154 13.5C154 13.8978 153.842 14.2794 153.561 14.5607C153.279 14.842 152.898 15 152.5 15H147C146.602 15 146.221 14.842 145.939 14.5607C145.658 14.2794 145.5 13.8978 145.5 13.5C145.5 13.1022 145.658 12.7206 145.939 12.4393C146.221 12.158 146.602 12 147 12H152.5C152.898 12 153.279 12.158 153.561 12.4393C153.842 12.7206 154 13.1022 154 13.5ZM152.5 17H147C146.602 17 146.221 17.158 145.939 17.4393C145.658 17.7206 145.5 18.1022 145.5 18.5C145.5 18.8978 145.658 19.2794 145.939 19.5607C146.221 19.842 146.602 20 147 20H152.5C152.898 20 153.279 19.842 153.561 19.5607C153.842 19.2794 154 18.8978 154 18.5C154 18.1022 153.842 17.7206 153.561 17.4393C153.279 17.158 152.898 17 152.5 17ZM152.5 22H147C146.602 22 146.221 22.158 145.939 22.4393C145.658 22.7206 145.5 23.1022 145.5 23.5C145.5 23.8978 145.658 24.2794 145.939 24.5607C146.221 24.842 146.602 25 147 25H152.5C152.898 25 153.279 24.842 153.561 24.5607C153.842 24.2794 154 23.8978 154 23.5C154 23.1022 153.842 22.7206 153.561 22.4393C153.279 22.158 152.898 22 152.5 22ZM162.75 17H157.25C156.852 17 156.471 17.158 156.189 17.4393C155.908 17.7206 155.75 18.1022 155.75 18.5C155.75 18.8978 155.908 19.2794 156.189 19.5607C156.471 19.842 156.852 20 157.25 20H162.75C163.148 20 163.529 19.842 163.811 19.5607C164.092 19.2794 164.25 18.8978 164.25 18.5C164.25 18.1022 164.092 17.7206 163.811 17.4393C163.529 17.158 163.148 17 162.75 17ZM162.75 22H157.25C156.852 22 156.471 22.158 156.189 22.4393C155.908 22.7206 155.75 23.1022 155.75 23.5C155.75 23.8978 155.908 24.2794 156.189 24.5607C156.471 24.842 156.852 25 157.25 25H162.75C163.148 25 163.529 24.842 163.811 24.5607C164.092 24.2794 164.25 23.8978 164.25 23.5C164.25 23.1022 164.092 22.7206 163.811 22.4393C163.529 22.158 163.148 22 162.75 22ZM167.5 10H173C173.398 10 173.779 9.84196 174.061 9.56066C174.342 9.27936 174.5 8.89782 174.5 8.5C174.5 8.10218 174.342 7.72064 174.061 7.43934C173.779 7.15804 173.398 7 173 7H167.5C167.102 7 166.721 7.15804 166.439 7.43934C166.158 7.72064 166 8.10218 166 8.5C166 8.89782 166.158 9.27936 166.439 9.56066C166.721 9.84196 167.102 10 167.5 10ZM173 12H167.5C167.102 12 166.721 12.158 166.439 12.4393C166.158 12.7206 166 13.1022 166 13.5C166 13.8978 166.158 14.2794 166.439 14.5607C166.721 14.842 167.102 15 167.5 15H173C173.398 15 173.779 14.842 174.061 14.5607C174.342 14.2794 174.5 13.8978 174.5 13.5C174.5 13.1022 174.342 12.7206 174.061 12.4393C173.779 12.158 173.398 12 173 12ZM173 17H167.5C167.102 17 166.721 17.158 166.439 17.4393C166.158 17.7206 166 18.1022 166 18.5C166 18.8978 166.158 19.2794 166.439 19.5607C166.721 19.842 167.102 20 167.5 20H173C173.398 20 173.779 19.842 174.061 19.5607C174.342 19.2794 174.5 18.8978 174.5 18.5C174.5 18.1022 174.342 17.7206 174.061 17.4393C173.779 17.158 173.398 17 173 17ZM173 22H167.5C167.102 22 166.721 22.158 166.439 22.4393C166.158 22.7206 166 23.1022 166 23.5C166 23.8978 166.158 24.2794 166.439 24.5607C166.721 24.842 167.102 25 167.5 25H173C173.398 25 173.779 24.842 174.061 24.5607C174.342 24.2794 174.5 23.8978 174.5 23.5C174.5 23.1022 174.342 22.7206 174.061 22.4393C173.779 22.158 173.398 22 173 22Z" fill="currentColor"/>
<path d="M202 12C202 12.2652 201.895 12.5196 201.707 12.7071C201.52 12.8946 201.265 13 201 13H195C194.735 13 194.48 12.8946 194.293 12.7071C194.105 12.5196 194 12.2652 194 12C194 11.7348 194.105 11.4804 194.293 11.2929C194.48 11.1054 194.735 11 195 11H201C201.265 11 201.52 11.1054 201.707 11.2929C201.895 11.4804 202 11.7348 202 12ZM211 15H205C204.735 15 204.48 15.1054 204.293 15.2929C204.105 15.4804 204 15.7348 204 16C204 16.2652 204.105 16.5196 204.293 16.7071C204.48 16.8946 204.735 17 205 17H211C211.265 17 211.52 16.8946 211.707 16.7071C211.895 16.5196 212 16.2652 212 16C212 15.7348 211.895 15.4804 211.707 15.2929C211.52 15.1054 211.265 15 211 15ZM215 9H221C221.265 9 221.52 8.89464 221.707 8.70711C221.895 8.51957 222 8.26522 222 8C222 7.73478 221.895 7.48043 221.707 7.29289C221.52 7.10536 221.265 7 221 7H215C214.735 7 214.48 7.10536 214.293 7.29289C214.105 7.48043 214 7.73478 214 8C214 8.26522 214.105 8.51957 214.293 8.70711C214.48 8.89464 214.735 9 215 9ZM201 15H195C194.735 15 194.48 15.1054 194.293 15.2929C194.105 15.4804 194 15.7348 194 16V24C194 24.2652 194.105 24.5196 194.293 24.7071C194.48 24.8946 194.735 25 195 25H201C201.265 25 201.52 24.8946 201.707 24.7071C201.895 24.5196 202 24.2652 202 24V16C202 15.7348 201.895 15.4804 201.707 15.2929C201.52 15.1054 201.265 15 201 15ZM221 11H215C214.735 11 214.48 11.1054 214.293 11.2929C214.105 11.4804 214 11.7348 214 12V24C214 24.2652 214.105 24.5196 214.293 24.7071C214.48 24.8946 214.735 25 215 25H221C221.265 25 221.52 24.8946 221.707 24.7071C221.895 24.5196 222 24.2652 222 24V12C222 11.7348 221.895 11.4804 221.707 11.2929C221.52 11.1054 221.265 11 221 11ZM211 19H205C204.735 19 204.48 19.1054 204.293 19.2929C204.105 19.4804 204 19.7348 204 20V24C204 24.2652 204.105 24.5196 204.293 24.7071C204.48 24.8946 204.735 25 205 25H211C211.265 25 211.52 24.8946 211.707 24.7071C211.895 24.5196 212 24.2652 212 24V20C212 19.7348 211.895 19.4804 211.707 19.2929C211.52 19.1054 211.265 19 211 19Z" fill="currentColor"/>
<path opacity="0.2" d="M243 16H249V24H243V16ZM253 24H259V20H253V24ZM263 12V24H269V12H263Z" fill="currentColor"/>
<path d="M250 12C250 12.2652 249.895 12.5196 249.707 12.7071C249.52 12.8946 249.265 13 249 13H243C242.735 13 242.48 12.8946 242.293 12.7071C242.105 12.5196 242 12.2652 242 12C242 11.7348 242.105 11.4804 242.293 11.2929C242.48 11.1054 242.735 11 243 11H249C249.265 11 249.52 11.1054 249.707 11.2929C249.895 11.4804 250 11.7348 250 12ZM259 15H253C252.735 15 252.48 15.1054 252.293 15.2929C252.105 15.4804 252 15.7348 252 16C252 16.2652 252.105 16.5196 252.293 16.7071C252.48 16.8946 252.735 17 253 17H259C259.265 17 259.52 16.8946 259.707 16.7071C259.895 16.5196 260 16.2652 260 16C260 15.7348 259.895 15.4804 259.707 15.2929C259.52 15.1054 259.265 15 259 15ZM263 9H269C269.265 9 269.52 8.89464 269.707 8.70711C269.895 8.51957 270 8.26522 270 8C270 7.73478 269.895 7.48043 269.707 7.29289C269.52 7.10536 269.265 7 269 7H263C262.735 7 262.48 7.10536 262.293 7.29289C262.105 7.48043 262 7.73478 262 8C262 8.26522 262.105 8.51957 262.293 8.70711C262.48 8.89464 262.735 9 263 9ZM250 16V24C250 24.2652 249.895 24.5196 249.707 24.7071C249.52 24.8946 249.265 25 249 25H243C242.735 25 242.48 24.8946 242.293 24.7071C242.105 24.5196 242 24.2652 242 24V16C242 15.7348 242.105 15.4804 242.293 15.2929C242.48 15.1054 242.735 15 243 15H249C249.265 15 249.52 15.1054 249.707 15.2929C249.895 15.4804 250 15.7348 250 16ZM248 17H244V23H248V17ZM260 20V24C260 24.2652 259.895 24.5196 259.707 24.7071C259.52 24.8946 259.265 25 259 25H253C252.735 25 252.48 24.8946 252.293 24.7071C252.105 24.5196 252 24.2652 252 24V20C252 19.7348 252.105 19.4804 252.293 19.2929C252.48 19.1054 252.735 19 253 19H259C259.265 19 259.52 19.1054 259.707 19.2929C259.895 19.4804 260 19.7348 260 20ZM258 21H254V23H258V21ZM270 12V24C270 24.2652 269.895 24.5196 269.707 24.7071C269.52 24.8946 269.265 25 269 25H263C262.735 25 262.48 24.8946 262.293 24.7071C262.105 24.5196 262 24.2652 262 24V12C262 11.7348 262.105 11.4804 262.293 11.2929C262.48 11.1054 262.735 11 263 11H269C269.265 11 269.52 11.1054 269.707 11.2929C269.895 11.4804 270 11.7348 270 12ZM268 13H264V23H268V13Z" fill="currentColor"/>
</g>
<defs>
<clipPath id="clip0_17_17017">
<rect width="272" height="32" rx="5" fill="white"/>
</clipPath>
</defs>
</svg>
