<svg width="272" height="32" viewBox="0 0 272 32" fill="none" xmlns="http://www.w3.org/2000/svg">
<g clip-path="url(#clip0_17_17003)">
<path d="M17 15V27C17 27.2652 16.8946 27.5196 16.7071 27.7071C16.5196 27.8946 16.2652 28 16 28C15.7348 28 15.4804 27.8946 15.2929 27.7071C15.1054 27.5196 15 27.2652 15 27V15C15 14.7348 15.1054 14.4804 15.2929 14.2929C15.4804 14.1054 15.7348 14 16 14C16.2652 14 16.5196 14.1054 16.7071 14.2929C16.8946 14.4804 17 14.7348 17 15ZM25 24C24.7348 24 24.4804 24.1054 24.2929 24.2929C24.1054 24.4804 24 24.7348 24 25V27C24 27.2652 24.1054 27.5196 24.2929 27.7071C24.4804 27.8946 24.7348 28 25 28C25.2652 28 25.5196 27.8946 25.7071 27.7071C25.8946 27.5196 26 27.2652 26 27V25C26 24.7348 25.8946 24.4804 25.7071 24.2929C25.5196 24.1054 25.2652 24 25 24ZM28 20H26V5C26 4.73478 25.8946 4.48043 25.7071 4.29289C25.5196 4.10536 25.2652 4 25 4C24.7348 4 24.4804 4.10536 24.2929 4.29289C24.1054 4.48043 24 4.73478 24 5V20H22C21.7348 20 21.4804 20.1054 21.2929 20.2929C21.1054 20.4804 21 20.7348 21 21C21 21.2652 21.1054 21.5196 21.2929 21.7071C21.4804 21.8946 21.7348 22 22 22H28C28.2652 22 28.5196 21.8946 28.7071 21.7071C28.8946 21.5196 29 21.2652 29 21C29 20.7348 28.8946 20.4804 28.7071 20.2929C28.5196 20.1054 28.2652 20 28 20ZM7 20C6.73478 20 6.48043 20.1054 6.29289 20.2929C6.10536 20.4804 6 20.7348 6 21V27C6 27.2652 6.10536 27.5196 6.29289 27.7071C6.48043 27.8946 6.73478 28 7 28C7.26522 28 7.51957 27.8946 7.70711 27.7071C7.89464 27.5196 8 27.2652 8 27V21C8 20.7348 7.89464 20.4804 7.70711 20.2929C7.51957 20.1054 7.26522 20 7 20ZM10 16H8V5C8 4.73478 7.89464 4.48043 7.70711 4.29289C7.51957 4.10536 7.26522 4 7 4C6.73478 4 6.48043 4.10536 6.29289 4.29289C6.10536 4.48043 6 4.73478 6 5V16H4C3.73478 16 3.48043 16.1054 3.29289 16.2929C3.10536 16.4804 3 16.7348 3 17C3 17.2652 3.10536 17.5196 3.29289 17.7071C3.48043 17.8946 3.73478 18 4 18H10C10.2652 18 10.5196 17.8946 10.7071 17.7071C10.8946 17.5196 11 17.2652 11 17C11 16.7348 10.8946 16.4804 10.7071 16.2929C10.5196 16.1054 10.2652 16 10 16ZM19 10H17V5C17 4.73478 16.8946 4.48043 16.7071 4.29289C16.5196 4.10536 16.2652 4 16 4C15.7348 4 15.4804 4.10536 15.2929 4.29289C15.1054 4.48043 15 4.73478 15 5V10H13C12.7348 10 12.4804 10.1054 12.2929 10.2929C12.1054 10.4804 12 10.7348 12 11C12 11.2652 12.1054 11.5196 12.2929 11.7071C12.4804 11.8946 12.7348 12 13 12H19C19.2652 12 19.5196 11.8946 19.7071 11.7071C19.8946 11.5196 20 11.2652 20 11C20 10.7348 19.8946 10.4804 19.7071 10.2929C19.5196 10.1054 19.2652 10 19 10Z" fill="currentColor"/>
<path d="M64.5 15V27C64.5 27.1326 64.4473 27.2598 64.3536 27.3536C64.2598 27.4473 64.1326 27.5 64 27.5C63.8674 27.5 63.7402 27.4473 63.6464 27.3536C63.5527 27.2598 63.5 27.1326 63.5 27V15C63.5 14.8674 63.5527 14.7402 63.6464 14.6464C63.7402 14.5527 63.8674 14.5 64 14.5C64.1326 14.5 64.2598 14.5527 64.3536 14.6464C64.4473 14.7402 64.5 14.8674 64.5 15ZM73 24.5C72.8674 24.5 72.7402 24.5527 72.6464 24.6464C72.5527 24.7402 72.5 24.8674 72.5 25V27C72.5 27.1326 72.5527 27.2598 72.6464 27.3536C72.7402 27.4473 72.8674 27.5 73 27.5C73.1326 27.5 73.2598 27.4473 73.3536 27.3536C73.4473 27.2598 73.5 27.1326 73.5 27V25C73.5 24.8674 73.4473 24.7402 73.3536 24.6464C73.2598 24.5527 73.1326 24.5 73 24.5ZM76 20.5H73.5V5C73.5 4.86739 73.4473 4.74021 73.3536 4.64645C73.2598 4.55268 73.1326 4.5 73 4.5C72.8674 4.5 72.7402 4.55268 72.6464 4.64645C72.5527 4.74021 72.5 4.86739 72.5 5V20.5H70C69.8674 20.5 69.7402 20.5527 69.6464 20.6464C69.5527 20.7402 69.5 20.8674 69.5 21C69.5 21.1326 69.5527 21.2598 69.6464 21.3536C69.7402 21.4473 69.8674 21.5 70 21.5H76C76.1326 21.5 76.2598 21.4473 76.3536 21.3536C76.4473 21.2598 76.5 21.1326 76.5 21C76.5 20.8674 76.4473 20.7402 76.3536 20.6464C76.2598 20.5527 76.1326 20.5 76 20.5ZM55 20.5C54.8674 20.5 54.7402 20.5527 54.6464 20.6464C54.5527 20.7402 54.5 20.8674 54.5 21V27C54.5 27.1326 54.5527 27.2598 54.6464 27.3536C54.7402 27.4473 54.8674 27.5 55 27.5C55.1326 27.5 55.2598 27.4473 55.3536 27.3536C55.4473 27.2598 55.5 27.1326 55.5 27V21C55.5 20.8674 55.4473 20.7402 55.3536 20.6464C55.2598 20.5527 55.1326 20.5 55 20.5ZM58 16.5H55.5V5C55.5 4.86739 55.4473 4.74021 55.3536 4.64645C55.2598 4.55268 55.1326 4.5 55 4.5C54.8674 4.5 54.7402 4.55268 54.6464 4.64645C54.5527 4.74021 54.5 4.86739 54.5 5V16.5H52C51.8674 16.5 51.7402 16.5527 51.6464 16.6464C51.5527 16.7402 51.5 16.8674 51.5 17C51.5 17.1326 51.5527 17.2598 51.6464 17.3536C51.7402 17.4473 51.8674 17.5 52 17.5H58C58.1326 17.5 58.2598 17.4473 58.3536 17.3536C58.4473 17.2598 58.5 17.1326 58.5 17C58.5 16.8674 58.4473 16.7402 58.3536 16.6464C58.2598 16.5527 58.1326 16.5 58 16.5ZM67 10.5H64.5V5C64.5 4.86739 64.4473 4.74021 64.3536 4.64645C64.2598 4.55268 64.1326 4.5 64 4.5C63.8674 4.5 63.7402 4.55268 63.6464 4.64645C63.5527 4.74021 63.5 4.86739 63.5 5V10.5H61C60.8674 10.5 60.7402 10.5527 60.6464 10.6464C60.5527 10.7402 60.5 10.8674 60.5 11C60.5 11.1326 60.5527 11.2598 60.6464 11.3536C60.7402 11.4473 60.8674 11.5 61 11.5H67C67.1326 11.5 67.2598 11.4473 67.3536 11.3536C67.4473 11.2598 67.5 11.1326 67.5 11C67.5 10.8674 67.4473 10.7402 67.3536 10.6464C67.2598 10.5527 67.1326 10.5 67 10.5Z" fill="currentColor"/>
<path d="M112.75 15V27C112.75 27.1989 112.671 27.3897 112.53 27.5303C112.39 27.671 112.199 27.75 112 27.75C111.801 27.75 111.61 27.671 111.47 27.5303C111.329 27.3897 111.25 27.1989 111.25 27V15C111.25 14.8011 111.329 14.6103 111.47 14.4697C111.61 14.329 111.801 14.25 112 14.25C112.199 14.25 112.39 14.329 112.53 14.4697C112.671 14.6103 112.75 14.8011 112.75 15ZM121 24.25C120.801 24.25 120.61 24.329 120.47 24.4697C120.329 24.6103 120.25 24.8011 120.25 25V27C120.25 27.1989 120.329 27.3897 120.47 27.5303C120.61 27.671 120.801 27.75 121 27.75C121.199 27.75 121.39 27.671 121.53 27.5303C121.671 27.3897 121.75 27.1989 121.75 27V25C121.75 24.8011 121.671 24.6103 121.53 24.4697C121.39 24.329 121.199 24.25 121 24.25ZM124 20.25H121.75V5C121.75 4.80109 121.671 4.61032 121.53 4.46967C121.39 4.32902 121.199 4.25 121 4.25C120.801 4.25 120.61 4.32902 120.47 4.46967C120.329 4.61032 120.25 4.80109 120.25 5V20.25H118C117.801 20.25 117.61 20.329 117.47 20.4697C117.329 20.6103 117.25 20.8011 117.25 21C117.25 21.1989 117.329 21.3897 117.47 21.5303C117.61 21.671 117.801 21.75 118 21.75H124C124.199 21.75 124.39 21.671 124.53 21.5303C124.671 21.3897 124.75 21.1989 124.75 21C124.75 20.8011 124.671 20.6103 124.53 20.4697C124.39 20.329 124.199 20.25 124 20.25ZM103 20.25C102.801 20.25 102.61 20.329 102.47 20.4697C102.329 20.6103 102.25 20.8011 102.25 21V27C102.25 27.1989 102.329 27.3897 102.47 27.5303C102.61 27.671 102.801 27.75 103 27.75C103.199 27.75 103.39 27.671 103.53 27.5303C103.671 27.3897 103.75 27.1989 103.75 27V21C103.75 20.8011 103.671 20.6103 103.53 20.4697C103.39 20.329 103.199 20.25 103 20.25ZM106 16.25H103.75V5C103.75 4.80109 103.671 4.61032 103.53 4.46967C103.39 4.32902 103.199 4.25 103 4.25C102.801 4.25 102.61 4.32902 102.47 4.46967C102.329 4.61032 102.25 4.80109 102.25 5V16.25H100C99.8011 16.25 99.6103 16.329 99.4697 16.4697C99.329 16.6103 99.25 16.8011 99.25 17C99.25 17.1989 99.329 17.3897 99.4697 17.5303C99.6103 17.671 99.8011 17.75 100 17.75H106C106.199 17.75 106.39 17.671 106.53 17.5303C106.671 17.3897 106.75 17.1989 106.75 17C106.75 16.8011 106.671 16.6103 106.53 16.4697C106.39 16.329 106.199 16.25 106 16.25ZM115 10.25H112.75V5C112.75 4.80109 112.671 4.61032 112.53 4.46967C112.39 4.32902 112.199 4.25 112 4.25C111.801 4.25 111.61 4.32902 111.47 4.46967C111.329 4.61032 111.25 4.80109 111.25 5V10.25H109C108.801 10.25 108.61 10.329 108.47 10.4697C108.329 10.6103 108.25 10.8011 108.25 11C108.25 11.1989 108.329 11.3897 108.47 11.5303C108.61 11.671 108.801 11.75 109 11.75H115C115.199 11.75 115.39 11.671 115.53 11.5303C115.671 11.3897 115.75 11.1989 115.75 11C115.75 10.8011 115.671 10.6103 115.53 10.4697C115.39 10.329 115.199 10.25 115 10.25Z" fill="currentColor"/>
<path d="M161.5 15.5V27C161.5 27.3978 161.342 27.7794 161.061 28.0607C160.779 28.342 160.398 28.5 160 28.5C159.602 28.5 159.221 28.342 158.939 28.0607C158.658 27.7794 158.5 27.3978 158.5 27V15.5C158.5 15.1022 158.658 14.7206 158.939 14.4393C159.221 14.158 159.602 14 160 14C160.398 14 160.779 14.158 161.061 14.4393C161.342 14.7206 161.5 15.1022 161.5 15.5ZM169 24C168.602 24 168.221 24.158 167.939 24.4393C167.658 24.7206 167.5 25.1022 167.5 25.5V27C167.5 27.3978 167.658 27.7794 167.939 28.0607C168.221 28.342 168.602 28.5 169 28.5C169.398 28.5 169.779 28.342 170.061 28.0607C170.342 27.7794 170.5 27.3978 170.5 27V25.5C170.5 25.1022 170.342 24.7206 170.061 24.4393C169.779 24.158 169.398 24 169 24ZM172 19H170.5V5C170.5 4.60218 170.342 4.22064 170.061 3.93934C169.779 3.65804 169.398 3.5 169 3.5C168.602 3.5 168.221 3.65804 167.939 3.93934C167.658 4.22064 167.5 4.60218 167.5 5V19H166C165.602 19 165.221 19.158 164.939 19.4393C164.658 19.7206 164.5 20.1022 164.5 20.5C164.5 20.8978 164.658 21.2794 164.939 21.5607C165.221 21.842 165.602 22 166 22H172C172.398 22 172.779 21.842 173.061 21.5607C173.342 21.2794 173.5 20.8978 173.5 20.5C173.5 20.1022 173.342 19.7206 173.061 19.4393C172.779 19.158 172.398 19 172 19ZM151 20C150.602 20 150.221 20.158 149.939 20.4393C149.658 20.7206 149.5 21.1022 149.5 21.5V27C149.5 27.3978 149.658 27.7794 149.939 28.0607C150.221 28.342 150.602 28.5 151 28.5C151.398 28.5 151.779 28.342 152.061 28.0607C152.342 27.7794 152.5 27.3978 152.5 27V21.5C152.5 21.1022 152.342 20.7206 152.061 20.4393C151.779 20.158 151.398 20 151 20ZM154 15H152.5V5C152.5 4.60218 152.342 4.22064 152.061 3.93934C151.779 3.65804 151.398 3.5 151 3.5C150.602 3.5 150.221 3.65804 149.939 3.93934C149.658 4.22064 149.5 4.60218 149.5 5V15H148C147.602 15 147.221 15.158 146.939 15.4393C146.658 15.7206 146.5 16.1022 146.5 16.5C146.5 16.8978 146.658 17.2794 146.939 17.5607C147.221 17.842 147.602 18 148 18H154C154.398 18 154.779 17.842 155.061 17.5607C155.342 17.2794 155.5 16.8978 155.5 16.5C155.5 16.1022 155.342 15.7206 155.061 15.4393C154.779 15.158 154.398 15 154 15ZM163 9H161.5V5C161.5 4.60218 161.342 4.22064 161.061 3.93934C160.779 3.65804 160.398 3.5 160 3.5C159.602 3.5 159.221 3.65804 158.939 3.93934C158.658 4.22064 158.5 4.60218 158.5 5V9H157C156.602 9 156.221 9.15804 155.939 9.43934C155.658 9.72064 155.5 10.1022 155.5 10.5C155.5 10.8978 155.658 11.2794 155.939 11.5607C156.221 11.842 156.602 12 157 12H163C163.398 12 163.779 11.842 164.061 11.5607C164.342 11.2794 164.5 10.8978 164.5 10.5C164.5 10.1022 164.342 9.72064 164.061 9.43934C163.779 9.15804 163.398 9 163 9Z" fill="currentColor"/>
<path d="M209 15V27C209 27.2652 208.895 27.5196 208.707 27.7071C208.52 27.8946 208.265 28 208 28C207.735 28 207.48 27.8946 207.293 27.7071C207.105 27.5196 207 27.2652 207 27V15C207 14.7348 207.105 14.4804 207.293 14.2929C207.48 14.1054 207.735 14 208 14C208.265 14 208.52 14.1054 208.707 14.2929C208.895 14.4804 209 14.7348 209 15ZM217 24C216.735 24 216.48 24.1054 216.293 24.2929C216.105 24.4804 216 24.7348 216 25V27C216 27.2652 216.105 27.5196 216.293 27.7071C216.48 27.8946 216.735 28 217 28C217.265 28 217.52 27.8946 217.707 27.7071C217.895 27.5196 218 27.2652 218 27V25C218 24.7348 217.895 24.4804 217.707 24.2929C217.52 24.1054 217.265 24 217 24ZM220 18H218V5C218 4.73478 217.895 4.48043 217.707 4.29289C217.52 4.10536 217.265 4 217 4C216.735 4 216.48 4.10536 216.293 4.29289C216.105 4.48043 216 4.73478 216 5V18H214C213.735 18 213.48 18.1054 213.293 18.2929C213.105 18.4804 213 18.7348 213 19V21C213 21.2652 213.105 21.5196 213.293 21.7071C213.48 21.8946 213.735 22 214 22H220C220.265 22 220.52 21.8946 220.707 21.7071C220.895 21.5196 221 21.2652 221 21V19C221 18.7348 220.895 18.4804 220.707 18.2929C220.52 18.1054 220.265 18 220 18ZM199 20C198.735 20 198.48 20.1054 198.293 20.2929C198.105 20.4804 198 20.7348 198 21V27C198 27.2652 198.105 27.5196 198.293 27.7071C198.48 27.8946 198.735 28 199 28C199.265 28 199.52 27.8946 199.707 27.7071C199.895 27.5196 200 27.2652 200 27V21C200 20.7348 199.895 20.4804 199.707 20.2929C199.52 20.1054 199.265 20 199 20ZM202 14H200V5C200 4.73478 199.895 4.48043 199.707 4.29289C199.52 4.10536 199.265 4 199 4C198.735 4 198.48 4.10536 198.293 4.29289C198.105 4.48043 198 4.73478 198 5V14H196C195.735 14 195.48 14.1054 195.293 14.2929C195.105 14.4804 195 14.7348 195 15V17C195 17.2652 195.105 17.5196 195.293 17.7071C195.48 17.8946 195.735 18 196 18H202C202.265 18 202.52 17.8946 202.707 17.7071C202.895 17.5196 203 17.2652 203 17V15C203 14.7348 202.895 14.4804 202.707 14.2929C202.52 14.1054 202.265 14 202 14ZM211 8H209V5C209 4.73478 208.895 4.48043 208.707 4.29289C208.52 4.10536 208.265 4 208 4C207.735 4 207.48 4.10536 207.293 4.29289C207.105 4.48043 207 4.73478 207 5V8H205C204.735 8 204.48 8.10536 204.293 8.29289C204.105 8.48043 204 8.73478 204 9V11C204 11.2652 204.105 11.5196 204.293 11.7071C204.48 11.8946 204.735 12 205 12H211C211.265 12 211.52 11.8946 211.707 11.7071C211.895 11.5196 212 11.2652 212 11V9C212 8.73478 211.895 8.48043 211.707 8.29289C211.52 8.10536 211.265 8 211 8Z" fill="currentColor"/>
<path opacity="0.2" d="M265 5V27H247V5H265Z" fill="currentColor"/>
<path d="M257 15V27C257 27.2652 256.895 27.5196 256.707 27.7071C256.52 27.8946 256.265 28 256 28C255.735 28 255.48 27.8946 255.293 27.7071C255.105 27.5196 255 27.2652 255 27V15C255 14.7348 255.105 14.4804 255.293 14.2929C255.48 14.1054 255.735 14 256 14C256.265 14 256.52 14.1054 256.707 14.2929C256.895 14.4804 257 14.7348 257 15ZM265 24C264.735 24 264.48 24.1054 264.293 24.2929C264.105 24.4804 264 24.7348 264 25V27C264 27.2652 264.105 27.5196 264.293 27.7071C264.48 27.8946 264.735 28 265 28C265.265 28 265.52 27.8946 265.707 27.7071C265.895 27.5196 266 27.2652 266 27V25C266 24.7348 265.895 24.4804 265.707 24.2929C265.52 24.1054 265.265 24 265 24ZM268 20H266V5C266 4.73478 265.895 4.48043 265.707 4.29289C265.52 4.10536 265.265 4 265 4C264.735 4 264.48 4.10536 264.293 4.29289C264.105 4.48043 264 4.73478 264 5V20H262C261.735 20 261.48 20.1054 261.293 20.2929C261.105 20.4804 261 20.7348 261 21C261 21.2652 261.105 21.5196 261.293 21.7071C261.48 21.8946 261.735 22 262 22H268C268.265 22 268.52 21.8946 268.707 21.7071C268.895 21.5196 269 21.2652 269 21C269 20.7348 268.895 20.4804 268.707 20.2929C268.52 20.1054 268.265 20 268 20ZM247 20C246.735 20 246.48 20.1054 246.293 20.2929C246.105 20.4804 246 20.7348 246 21V27C246 27.2652 246.105 27.5196 246.293 27.7071C246.48 27.8946 246.735 28 247 28C247.265 28 247.52 27.8946 247.707 27.7071C247.895 27.5196 248 27.2652 248 27V21C248 20.7348 247.895 20.4804 247.707 20.2929C247.52 20.1054 247.265 20 247 20ZM250 16H248V5C248 4.73478 247.895 4.48043 247.707 4.29289C247.52 4.10536 247.265 4 247 4C246.735 4 246.48 4.10536 246.293 4.29289C246.105 4.48043 246 4.73478 246 5V16H244C243.735 16 243.48 16.1054 243.293 16.2929C243.105 16.4804 243 16.7348 243 17C243 17.2652 243.105 17.5196 243.293 17.7071C243.48 17.8946 243.735 18 244 18H250C250.265 18 250.52 17.8946 250.707 17.7071C250.895 17.5196 251 17.2652 251 17C251 16.7348 250.895 16.4804 250.707 16.2929C250.52 16.1054 250.265 16 250 16ZM259 10H257V5C257 4.73478 256.895 4.48043 256.707 4.29289C256.52 4.10536 256.265 4 256 4C255.735 4 255.48 4.10536 255.293 4.29289C255.105 4.48043 255 4.73478 255 5V10H253C252.735 10 252.48 10.1054 252.293 10.2929C252.105 10.4804 252 10.7348 252 11C252 11.2652 252.105 11.5196 252.293 11.7071C252.48 11.8946 252.735 12 253 12H259C259.265 12 259.52 11.8946 259.707 11.7071C259.895 11.5196 260 11.2652 260 11C260 10.7348 259.895 10.4804 259.707 10.2929C259.52 10.1054 259.265 10 259 10Z" fill="currentColor"/>
</g>
<defs>
<clipPath id="clip0_17_17003">
<rect width="272" height="32" rx="5" fill="white"/>
</clipPath>
</defs>
</svg>
