<svg width="272" height="32" viewBox="0 0 272 32" fill="none" xmlns="http://www.w3.org/2000/svg">
<g clip-path="url(#clip0_17_16933)">
<path d="M25 3H7C6.46957 3 5.96086 3.21071 5.58579 3.58579C5.21071 3.96086 5 4.46957 5 5V27C5 27.5304 5.21071 28.0391 5.58579 28.4142C5.96086 28.7893 6.46957 29 7 29H25C25.5304 29 26.0391 28.7893 26.4142 28.4142C26.7893 28.0391 27 27.5304 27 27V5C27 4.46957 26.7893 3.96086 26.4142 3.58579C26.0391 3.21071 25.5304 3 25 3ZM25 27H7V5H25V27ZM12 9.5C12 9.79667 11.912 10.0867 11.7472 10.3334C11.5824 10.58 11.3481 10.7723 11.074 10.8858C10.7999 10.9994 10.4983 11.0291 10.2074 10.9712C9.91639 10.9133 9.64912 10.7704 9.43934 10.5607C9.22956 10.3509 9.0867 10.0836 9.02882 9.79264C8.97094 9.50166 9.00065 9.20006 9.11418 8.92597C9.22771 8.65189 9.41997 8.41762 9.66665 8.2528C9.91332 8.08797 10.2033 8 10.5 8C10.8978 8 11.2794 8.15804 11.5607 8.43934C11.842 8.72064 12 9.10218 12 9.5ZM12 22.5C12 22.7967 11.912 23.0867 11.7472 23.3334C11.5824 23.58 11.3481 23.7723 11.074 23.8858C10.7999 23.9993 10.4983 24.0291 10.2074 23.9712C9.91639 23.9133 9.64912 23.7704 9.43934 23.5607C9.22956 23.3509 9.0867 23.0836 9.02882 22.7926C8.97094 22.5017 9.00065 22.2001 9.11418 21.926C9.22771 21.6519 9.41997 21.4176 9.66665 21.2528C9.91332 21.088 10.2033 21 10.5 21C10.8978 21 11.2794 21.158 11.5607 21.4393C11.842 21.7206 12 22.1022 12 22.5ZM12 16C12 16.2967 11.912 16.5867 11.7472 16.8334C11.5824 17.08 11.3481 17.2723 11.074 17.3858C10.7999 17.4993 10.4983 17.5291 10.2074 17.4712C9.91639 17.4133 9.64912 17.2704 9.43934 17.0607C9.22956 16.8509 9.0867 16.5836 9.02882 16.2926C8.97094 16.0017 9.00065 15.7001 9.11418 15.426C9.22771 15.1519 9.41997 14.9176 9.66665 14.7528C9.91332 14.588 10.2033 14.5 10.5 14.5C10.8978 14.5 11.2794 14.658 11.5607 14.9393C11.842 15.2206 12 15.6022 12 16Z" fill="currentColor"/>
<path d="M73 3.5H55C54.6022 3.5 54.2206 3.65804 53.9393 3.93934C53.658 4.22064 53.5 4.60218 53.5 5V27C53.5 27.3978 53.658 27.7794 53.9393 28.0607C54.2206 28.342 54.6022 28.5 55 28.5H73C73.3978 28.5 73.7794 28.342 74.0607 28.0607C74.342 27.7794 74.5 27.3978 74.5 27V5C74.5 4.60218 74.342 4.22064 74.0607 3.93934C73.7794 3.65804 73.3978 3.5 73 3.5ZM73.5 27C73.5 27.1326 73.4473 27.2598 73.3536 27.3536C73.2598 27.4473 73.1326 27.5 73 27.5H55C54.8674 27.5 54.7402 27.4473 54.6464 27.3536C54.5527 27.2598 54.5 27.1326 54.5 27V5C54.5 4.86739 54.5527 4.74021 54.6464 4.64645C54.7402 4.55268 54.8674 4.5 55 4.5H73C73.1326 4.5 73.2598 4.55268 73.3536 4.64645C73.4473 4.74021 73.5 4.86739 73.5 5V27ZM59.5 10C59.5 10.1978 59.4414 10.3911 59.3315 10.5556C59.2216 10.72 59.0654 10.8482 58.8827 10.9239C58.7 10.9996 58.4989 11.0194 58.3049 10.9808C58.1109 10.9422 57.9327 10.847 57.7929 10.7071C57.653 10.5673 57.5578 10.3891 57.5192 10.1951C57.4806 10.0011 57.5004 9.80004 57.5761 9.61732C57.6518 9.43459 57.78 9.27841 57.9444 9.16853C58.1089 9.05865 58.3022 9 58.5 9C58.7652 9 59.0196 9.10536 59.2071 9.29289C59.3946 9.48043 59.5 9.73478 59.5 10ZM59.5 22C59.5 22.1978 59.4414 22.3911 59.3315 22.5556C59.2216 22.72 59.0654 22.8482 58.8827 22.9239C58.7 22.9996 58.4989 23.0194 58.3049 22.9808C58.1109 22.9422 57.9327 22.847 57.7929 22.7071C57.653 22.5673 57.5578 22.3891 57.5192 22.1951C57.4806 22.0011 57.5004 21.8 57.5761 21.6173C57.6518 21.4346 57.78 21.2784 57.9444 21.1685C58.1089 21.0586 58.3022 21 58.5 21C58.7652 21 59.0196 21.1054 59.2071 21.2929C59.3946 21.4804 59.5 21.7348 59.5 22ZM59.5 16C59.5 16.1978 59.4414 16.3911 59.3315 16.5556C59.2216 16.72 59.0654 16.8482 58.8827 16.9239C58.7 16.9996 58.4989 17.0194 58.3049 16.9808C58.1109 16.9422 57.9327 16.847 57.7929 16.7071C57.653 16.5673 57.5578 16.3891 57.5192 16.1951C57.4806 16.0011 57.5004 15.8 57.5761 15.6173C57.6518 15.4346 57.78 15.2784 57.9444 15.1685C58.1089 15.0586 58.3022 15 58.5 15C58.7652 15 59.0196 15.1054 59.2071 15.2929C59.3946 15.4804 59.5 15.7348 59.5 16Z" fill="currentColor"/>
<path d="M121 3.25H103C102.536 3.25 102.091 3.43437 101.763 3.76256C101.434 4.09075 101.25 4.53587 101.25 5V27C101.25 27.4641 101.434 27.9092 101.763 28.2374C102.091 28.5656 102.536 28.75 103 28.75H121C121.464 28.75 121.909 28.5656 122.237 28.2374C122.566 27.9092 122.75 27.4641 122.75 27V5C122.75 4.53587 122.566 4.09075 122.237 3.76256C121.909 3.43437 121.464 3.25 121 3.25ZM121.25 27C121.25 27.0663 121.224 27.1299 121.177 27.1768C121.13 27.2237 121.066 27.25 121 27.25H103C102.934 27.25 102.87 27.2237 102.823 27.1768C102.776 27.1299 102.75 27.0663 102.75 27V5C102.75 4.9337 102.776 4.87011 102.823 4.82322C102.87 4.77634 102.934 4.75 103 4.75H121C121.066 4.75 121.13 4.77634 121.177 4.82322C121.224 4.87011 121.25 4.9337 121.25 5V27ZM107.75 10C107.75 10.2472 107.677 10.4889 107.539 10.6945C107.402 10.9 107.207 11.0602 106.978 11.1548C106.75 11.2495 106.499 11.2742 106.256 11.226C106.014 11.1778 105.791 11.0587 105.616 10.8839C105.441 10.7091 105.322 10.4863 105.274 10.2439C105.226 10.0014 105.251 9.75005 105.345 9.52165C105.44 9.29324 105.6 9.09801 105.806 8.96066C106.011 8.82331 106.253 8.75 106.5 8.75C106.832 8.75 107.149 8.8817 107.384 9.11612C107.618 9.35054 107.75 9.66848 107.75 10ZM107.75 22C107.75 22.2472 107.677 22.4889 107.539 22.6945C107.402 22.9 107.207 23.0602 106.978 23.1549C106.75 23.2495 106.499 23.2742 106.256 23.226C106.014 23.1777 105.791 23.0587 105.616 22.8839C105.441 22.7091 105.322 22.4863 105.274 22.2439C105.226 22.0014 105.251 21.7501 105.345 21.5216C105.44 21.2932 105.6 21.098 105.806 20.9607C106.011 20.8233 106.253 20.75 106.5 20.75C106.832 20.75 107.149 20.8817 107.384 21.1161C107.618 21.3505 107.75 21.6685 107.75 22ZM107.75 16C107.75 16.2472 107.677 16.4889 107.539 16.6945C107.402 16.9 107.207 17.0602 106.978 17.1549C106.75 17.2495 106.499 17.2742 106.256 17.226C106.014 17.1777 105.791 17.0587 105.616 16.8839C105.441 16.7091 105.322 16.4863 105.274 16.2439C105.226 16.0014 105.251 15.7501 105.345 15.5216C105.44 15.2932 105.6 15.098 105.806 14.9607C106.011 14.8233 106.253 14.75 106.5 14.75C106.832 14.75 107.149 14.8817 107.384 15.1161C107.618 15.3505 107.75 15.6685 107.75 16Z" fill="currentColor"/>
<path d="M169 2.5H151C150.337 2.5 149.701 2.76339 149.232 3.23223C148.763 3.70107 148.5 4.33696 148.5 5V27C148.5 27.663 148.763 28.2989 149.232 28.7678C149.701 29.2366 150.337 29.5 151 29.5H169C169.663 29.5 170.299 29.2366 170.768 28.7678C171.237 28.2989 171.5 27.663 171.5 27V5C171.5 4.33696 171.237 3.70107 170.768 3.23223C170.299 2.76339 169.663 2.5 169 2.5ZM168.5 26.5H151.5V5.5H168.5V26.5ZM153.5 10C153.5 9.60444 153.617 9.21776 153.837 8.88886C154.057 8.55996 154.369 8.30362 154.735 8.15224C155.1 8.00087 155.502 7.96126 155.89 8.03843C156.278 8.1156 156.635 8.30608 156.914 8.58579C157.194 8.86549 157.384 9.22186 157.462 9.60982C157.539 9.99778 157.499 10.3999 157.348 10.7654C157.196 11.1308 156.94 11.4432 156.611 11.6629C156.282 11.8827 155.896 12 155.5 12C154.97 12 154.461 11.7893 154.086 11.4142C153.711 11.0391 153.5 10.5304 153.5 10ZM153.5 22C153.5 21.6044 153.617 21.2178 153.837 20.8889C154.057 20.56 154.369 20.3036 154.735 20.1522C155.1 20.0009 155.502 19.9613 155.89 20.0384C156.278 20.1156 156.635 20.3061 156.914 20.5858C157.194 20.8655 157.384 21.2219 157.462 21.6098C157.539 21.9978 157.499 22.3999 157.348 22.7654C157.196 23.1308 156.94 23.4432 156.611 23.6629C156.282 23.8827 155.896 24 155.5 24C154.97 24 154.461 23.7893 154.086 23.4142C153.711 23.0391 153.5 22.5304 153.5 22ZM153.5 16C153.5 15.6044 153.617 15.2178 153.837 14.8889C154.057 14.56 154.369 14.3036 154.735 14.1522C155.1 14.0009 155.502 13.9613 155.89 14.0384C156.278 14.1156 156.635 14.3061 156.914 14.5858C157.194 14.8655 157.384 15.2219 157.462 15.6098C157.539 15.9978 157.499 16.3999 157.348 16.7654C157.196 17.1308 156.94 17.4432 156.611 17.6629C156.282 17.8827 155.896 18 155.5 18C154.97 18 154.461 17.7893 154.086 17.4142C153.711 17.0391 153.5 16.5304 153.5 16Z" fill="currentColor"/>
<path d="M217 3H199C198.47 3 197.961 3.21071 197.586 3.58579C197.211 3.96086 197 4.46957 197 5V27C197 27.5304 197.211 28.0391 197.586 28.4142C197.961 28.7893 198.47 29 199 29H217C217.53 29 218.039 28.7893 218.414 28.4142C218.789 28.0391 219 27.5304 219 27V5C219 4.46957 218.789 3.96086 218.414 3.58579C218.039 3.21071 217.53 3 217 3ZM201.5 23.5C201.203 23.5 200.913 23.412 200.667 23.2472C200.42 23.0824 200.228 22.8481 200.114 22.574C200.001 22.2999 199.971 21.9983 200.029 21.7074C200.087 21.4164 200.23 21.1491 200.439 20.9393C200.649 20.7296 200.916 20.5867 201.207 20.5288C201.498 20.4709 201.8 20.5007 202.074 20.6142C202.348 20.7277 202.582 20.92 202.747 21.1666C202.912 21.4133 203 21.7033 203 22C203 22.3978 202.842 22.7794 202.561 23.0607C202.279 23.342 201.898 23.5 201.5 23.5ZM201.5 17.5C201.203 17.5 200.913 17.412 200.667 17.2472C200.42 17.0824 200.228 16.8481 200.114 16.574C200.001 16.2999 199.971 15.9983 200.029 15.7074C200.087 15.4164 200.23 15.1491 200.439 14.9393C200.649 14.7296 200.916 14.5867 201.207 14.5288C201.498 14.4709 201.8 14.5006 202.074 14.6142C202.348 14.7277 202.582 14.92 202.747 15.1666C202.912 15.4133 203 15.7033 203 16C203 16.3978 202.842 16.7794 202.561 17.0607C202.279 17.342 201.898 17.5 201.5 17.5ZM201.5 11.5C201.203 11.5 200.913 11.412 200.667 11.2472C200.42 11.0824 200.228 10.8481 200.114 10.574C200.001 10.2999 199.971 9.99834 200.029 9.70736C200.087 9.41639 200.23 9.14912 200.439 8.93934C200.649 8.72956 200.916 8.5867 201.207 8.52882C201.498 8.47094 201.8 8.50065 202.074 8.61418C202.348 8.72771 202.582 8.91997 202.747 9.16665C202.912 9.41332 203 9.70333 203 10C203 10.3978 202.842 10.7794 202.561 11.0607C202.279 11.342 201.898 11.5 201.5 11.5Z" fill="currentColor"/>
<path opacity="0.2" d="M266 5V27C266 27.2652 265.895 27.5196 265.707 27.7071C265.52 27.8946 265.265 28 265 28H247C246.735 28 246.48 27.8946 246.293 27.7071C246.105 27.5196 246 27.2652 246 27V5C246 4.73478 246.105 4.48043 246.293 4.29289C246.48 4.10536 246.735 4 247 4H265C265.265 4 265.52 4.10536 265.707 4.29289C265.895 4.48043 266 4.73478 266 5Z" fill="currentColor"/>
<path d="M265 3H247C246.47 3 245.961 3.21071 245.586 3.58579C245.211 3.96086 245 4.46957 245 5V27C245 27.5304 245.211 28.0391 245.586 28.4142C245.961 28.7893 246.47 29 247 29H265C265.53 29 266.039 28.7893 266.414 28.4142C266.789 28.0391 267 27.5304 267 27V5C267 4.46957 266.789 3.96086 266.414 3.58579C266.039 3.21071 265.53 3 265 3ZM265 27H247V5H265V27ZM252 10C252 10.2967 251.912 10.5867 251.747 10.8334C251.582 11.08 251.348 11.2723 251.074 11.3858C250.8 11.4994 250.498 11.5291 250.207 11.4712C249.916 11.4133 249.649 11.2704 249.439 11.0607C249.23 10.8509 249.087 10.5836 249.029 10.2926C248.971 10.0017 249.001 9.70006 249.114 9.42597C249.228 9.15189 249.42 8.91762 249.667 8.7528C249.913 8.58797 250.203 8.5 250.5 8.5C250.898 8.5 251.279 8.65804 251.561 8.93934C251.842 9.22064 252 9.60218 252 10ZM252 22C252 22.2967 251.912 22.5867 251.747 22.8334C251.582 23.08 251.348 23.2723 251.074 23.3858C250.8 23.4993 250.498 23.5291 250.207 23.4712C249.916 23.4133 249.649 23.2704 249.439 23.0607C249.23 22.8509 249.087 22.5836 249.029 22.2926C248.971 22.0017 249.001 21.7001 249.114 21.426C249.228 21.1519 249.42 20.9176 249.667 20.7528C249.913 20.588 250.203 20.5 250.5 20.5C250.898 20.5 251.279 20.658 251.561 20.9393C251.842 21.2206 252 21.6022 252 22ZM252 16C252 16.2967 251.912 16.5867 251.747 16.8334C251.582 17.08 251.348 17.2723 251.074 17.3858C250.8 17.4993 250.498 17.5291 250.207 17.4712C249.916 17.4133 249.649 17.2704 249.439 17.0607C249.23 16.8509 249.087 16.5836 249.029 16.2926C248.971 16.0017 249.001 15.7001 249.114 15.426C249.228 15.1519 249.42 14.9176 249.667 14.7528C249.913 14.588 250.203 14.5 250.5 14.5C250.898 14.5 251.279 14.658 251.561 14.9393C251.842 15.2206 252 15.6022 252 16Z" fill="currentColor"/>
</g>
<defs>
<clipPath id="clip0_17_16933">
<rect width="272" height="32" rx="5" fill="white"/>
</clipPath>
</defs>
</svg>
