<svg width="272" height="32" viewBox="0 0 272 32" fill="none" xmlns="http://www.w3.org/2000/svg">
<g clip-path="url(#clip0_17_16947)">
<path d="M28 27H22.92C25.5691 25.3309 27.5265 22.7614 28.4321 19.7642C29.3376 16.7669 29.1304 13.5434 27.8486 10.6868C26.5668 7.83009 24.2966 5.53234 21.4555 4.21618C18.6145 2.90003 15.3938 2.654 12.3858 3.52336C9.37787 4.39271 6.78498 6.31898 5.08413 8.94781C3.38328 11.5766 2.68888 14.7312 3.12866 17.8313C3.56843 20.9313 5.11281 23.7683 7.4777 25.8203C9.84259 27.8724 12.8689 29.0015 16 29H28C28.2652 29 28.5196 28.8946 28.7071 28.7071C28.8946 28.5195 29 28.2652 29 28C29 27.7347 28.8946 27.4804 28.7071 27.2929C28.5196 27.1053 28.2652 27 28 27ZM5 16C5 13.8244 5.64514 11.6976 6.85383 9.88869C8.06253 8.07975 9.78049 6.66985 11.7905 5.83728C13.8005 5.00472 16.0122 4.78688 18.146 5.21132C20.2798 5.63576 22.2398 6.68341 23.7782 8.22178C25.3166 9.76016 26.3642 11.7202 26.7886 13.854C27.2131 15.9878 26.9952 18.1995 26.1627 20.2095C25.3301 22.2195 23.9202 23.9374 22.1113 25.1461C20.3023 26.3548 18.1756 27 16 27C13.0836 26.9966 10.2877 25.8367 8.22548 23.7745C6.16329 21.7123 5.00331 18.9163 5 16ZM16 13C16.5933 13 17.1734 12.824 17.6667 12.4944C18.1601 12.1647 18.5446 11.6962 18.7716 11.148C18.9987 10.5998 19.0581 9.99663 18.9424 9.41469C18.8266 8.83274 18.5409 8.2982 18.1213 7.87864C17.7018 7.45908 17.1672 7.17336 16.5853 7.0576C16.0033 6.94185 15.4001 7.00126 14.8519 7.22832C14.3038 7.45538 13.8352 7.8399 13.5056 8.33325C13.1759 8.8266 13 9.40661 13 9.99996C13 10.7956 13.3161 11.5587 13.8787 12.1213C14.4413 12.6839 15.2043 13 16 13ZM16 8.99996C16.1978 8.99996 16.3911 9.05861 16.5556 9.16849C16.72 9.27837 16.8482 9.43455 16.9239 9.61727C16.9996 9.8 17.0194 10.0011 16.9808 10.195C16.9422 10.389 16.847 10.5672 16.7071 10.7071C16.5673 10.8469 16.3891 10.9422 16.1951 10.9807C16.0011 11.0193 15.8 10.9995 15.6173 10.9238C15.4346 10.8482 15.2784 10.72 15.1685 10.5555C15.0586 10.3911 15 10.1977 15 9.99996C15 9.73474 15.1054 9.48039 15.2929 9.29285C15.4804 9.10532 15.7348 8.99996 16 8.99996ZM19 22C19 21.4066 18.8241 20.8266 18.4944 20.3332C18.1648 19.8399 17.6962 19.4554 17.148 19.2283C16.5999 19.0013 15.9967 18.9418 15.4147 19.0576C14.8328 19.1734 14.2982 19.4591 13.8787 19.8786C13.4591 20.2982 13.1734 20.8327 13.0576 21.4147C12.9419 21.9966 13.0013 22.5998 13.2284 23.148C13.4554 23.6962 13.8399 24.1647 14.3333 24.4944C14.8266 24.824 15.4067 25 16 25C16.7956 25 17.5587 24.6839 18.1213 24.1213C18.6839 23.5587 19 22.7956 19 22ZM15 22C15 21.8022 15.0586 21.6088 15.1685 21.4444C15.2784 21.2799 15.4346 21.1518 15.6173 21.0761C15.8 21.0004 16.0011 20.9806 16.1951 21.0192C16.3891 21.0578 16.5673 21.153 16.7071 21.2929C16.847 21.4327 16.9422 21.6109 16.9808 21.8049C17.0194 21.9988 16.9996 22.1999 16.9239 22.3826C16.8482 22.5654 16.72 22.7215 16.5556 22.8314C16.3911 22.9413 16.1978 23 16 23C15.7348 23 15.4804 22.8946 15.2929 22.7071C15.1054 22.5195 15 22.2652 15 22ZM22 19C22.5933 19 23.1734 18.824 23.6667 18.4944C24.1601 18.1647 24.5446 17.6962 24.7716 17.148C24.9987 16.5998 25.0581 15.9966 24.9424 15.4147C24.8266 14.8327 24.5409 14.2982 24.1213 13.8786C23.7018 13.4591 23.1672 13.1734 22.5853 13.0576C22.0033 12.9418 21.4001 13.0013 20.8519 13.2283C20.3038 13.4554 19.8352 13.8399 19.5056 14.3332C19.1759 14.8266 19 15.4066 19 16C19 16.7956 19.3161 17.5587 19.8787 18.1213C20.4413 18.6839 21.2044 19 22 19ZM22 15C22.1978 15 22.3911 15.0586 22.5556 15.1685C22.72 15.2784 22.8482 15.4345 22.9239 15.6173C22.9996 15.8 23.0194 16.0011 22.9808 16.195C22.9422 16.389 22.847 16.5672 22.7071 16.7071C22.5673 16.8469 22.3891 16.9422 22.1951 16.9807C22.0011 17.0193 21.8 16.9995 21.6173 16.9238C21.4346 16.8482 21.2784 16.72 21.1685 16.5555C21.0586 16.3911 21 16.1977 21 16C21 15.7347 21.1054 15.4804 21.2929 15.2929C21.4804 15.1053 21.7348 15 22 15ZM10 13C9.40666 13 8.82664 13.1759 8.33329 13.5055C7.83994 13.8352 7.45542 14.3037 7.22836 14.8519C7.0013 15.4001 6.94189 16.0033 7.05764 16.5852C7.1734 17.1672 7.45912 17.7017 7.87868 18.1213C8.29824 18.5408 8.83279 18.8266 9.41473 18.9423C9.99667 19.0581 10.5999 18.9987 11.148 18.7716C11.6962 18.5445 12.1648 18.16 12.4944 17.6667C12.8241 17.1733 13 16.5933 13 16C13 15.2043 12.6839 14.4412 12.1213 13.8786C11.5587 13.316 10.7956 13 10 13ZM10 17C9.80222 17 9.60888 16.9413 9.44443 16.8314C9.27998 16.7215 9.15181 16.5654 9.07612 16.3826C9.00043 16.1999 8.98063 15.9988 9.01921 15.8049C9.0578 15.6109 9.15304 15.4327 9.29289 15.2929C9.43274 15.153 9.61093 15.0578 9.80491 15.0192C9.99889 14.9806 10.2 15.0004 10.3827 15.0761C10.5654 15.1518 10.7216 15.2799 10.8315 15.4444C10.9413 15.6088 11 15.8022 11 16C11 16.2652 10.8946 16.5195 10.7071 16.7071C10.5196 16.8946 10.2652 17 10 17Z" fill="currentColor"/>
<path d="M76 27.5H68.8975C71.7474 26.286 74.045 24.0569 75.3449 21.2451C76.6447 18.4332 76.8541 15.2389 75.9326 12.2814C75.011 9.32386 73.0241 6.8139 70.3571 5.23812C67.69 3.66234 64.5329 3.133 61.4978 3.75273C58.4626 4.37246 55.7657 6.09711 53.93 8.5923C52.0942 11.0875 51.2503 14.1755 51.5619 17.2575C51.8735 20.3395 53.3185 23.1961 55.6166 25.2733C57.9147 27.3505 60.9022 28.5004 64 28.5H76C76.1326 28.5 76.2598 28.4474 76.3535 28.3536C76.4473 28.2598 76.5 28.1326 76.5 28C76.5 27.8674 76.4473 27.7402 76.3535 27.6465C76.2598 27.5527 76.1326 27.5 76 27.5ZM52.5 16C52.5 13.7255 53.1744 11.5021 54.4381 9.61097C55.7017 7.71981 57.4978 6.24582 59.5991 5.37542C61.7005 4.50501 64.0127 4.27727 66.2435 4.721C68.4743 5.16473 70.5234 6.26 72.1317 7.8683C73.74 9.47661 74.8353 11.5257 75.279 13.7565C75.7227 15.9873 75.495 18.2995 74.6246 20.4009C73.7542 22.5022 72.2802 24.2983 70.389 25.5619C68.4979 26.8256 66.2745 27.5 64 27.5C60.951 27.4967 58.0279 26.2841 55.8719 24.1281C53.716 21.9722 52.5033 19.049 52.5 16ZM64 12.5C64.4944 12.5 64.9778 12.3534 65.3889 12.0787C65.8 11.804 66.1205 11.4136 66.3097 10.9567C66.4989 10.4999 66.5484 9.99726 66.4519 9.5123C66.3555 9.02735 66.1174 8.5819 65.7677 8.23226C65.4181 7.88263 64.9727 7.64453 64.4877 7.54807C64.0028 7.4516 63.5001 7.50111 63.0433 7.69033C62.5865 7.87955 62.196 8.19998 61.9213 8.61111C61.6466 9.02223 61.5 9.50558 61.5 10C61.5 10.6631 61.7634 11.299 62.2322 11.7678C62.7011 12.2366 63.3369 12.5 64 12.5ZM64 8.50003C64.2967 8.50003 64.5867 8.588 64.8333 8.75283C65.08 8.91765 65.2723 9.15192 65.3858 9.42601C65.4993 9.7001 65.529 10.0017 65.4712 10.2927C65.4133 10.5836 65.2704 10.8509 65.0606 11.0607C64.8509 11.2705 64.5836 11.4133 64.2926 11.4712C64.0016 11.5291 63.7 11.4994 63.426 11.3859C63.1519 11.2723 62.9176 11.0801 62.7528 10.8334C62.588 10.5867 62.5 10.2967 62.5 10C62.5 9.60221 62.658 9.22067 62.9393 8.93937C63.2206 8.65807 63.6022 8.50003 64 8.50003ZM66.5 22C66.5 21.5056 66.3534 21.0222 66.0787 20.6111C65.804 20.2 65.4135 19.8796 64.9567 19.6903C64.4999 19.5011 63.9972 19.4516 63.5123 19.5481C63.0273 19.6445 62.5818 19.8826 62.2322 20.2323C61.8826 20.5819 61.6445 21.0274 61.548 21.5123C61.4516 21.9973 61.5011 22.4999 61.6903 22.9567C61.8795 23.4136 62.1999 23.804 62.6111 24.0787C63.0222 24.3534 63.5055 24.5 64 24.5C64.663 24.5 65.2989 24.2366 65.7677 23.7678C66.2366 23.299 66.5 22.6631 66.5 22ZM62.5 22C62.5 21.7034 62.588 21.4133 62.7528 21.1667C62.9176 20.92 63.1519 20.7277 63.426 20.6142C63.7 20.5007 64.0016 20.471 64.2926 20.5289C64.5836 20.5867 64.8509 20.7296 65.0606 20.9394C65.2704 21.1491 65.4133 21.4164 65.4712 21.7074C65.529 21.9984 65.4993 22.3 65.3858 22.5741C65.2723 22.8481 65.08 23.0824 64.8333 23.2472C64.5867 23.4121 64.2967 23.5 64 23.5C63.6022 23.5 63.2206 23.342 62.9393 23.0607C62.658 22.7794 62.5 22.3979 62.5 22ZM70 18.5C70.4944 18.5 70.9778 18.3534 71.3889 18.0787C71.8 17.804 72.1205 17.4136 72.3097 16.9567C72.4989 16.4999 72.5484 15.9973 72.4519 15.5123C72.3555 15.0274 72.1174 14.5819 71.7677 14.2323C71.4181 13.8826 70.9727 13.6445 70.4877 13.5481C70.0028 13.4516 69.5001 13.5011 69.0433 13.6903C68.5865 13.8796 68.196 14.2 67.9213 14.6111C67.6466 15.0222 67.5 15.5056 67.5 16C67.5 16.6631 67.7634 17.299 68.2322 17.7678C68.7011 18.2366 69.3369 18.5 70 18.5ZM70 14.5C70.2967 14.5 70.5867 14.588 70.8333 14.7528C71.08 14.9176 71.2723 15.1519 71.3858 15.426C71.4993 15.7001 71.529 16.0017 71.4712 16.2927C71.4133 16.5836 71.2704 16.8509 71.0606 17.0607C70.8509 17.2705 70.5836 17.4133 70.2926 17.4712C70.0016 17.5291 69.7 17.4994 69.426 17.3858C69.1519 17.2723 68.9176 17.0801 68.7528 16.8334C68.588 16.5867 68.5 16.2967 68.5 16C68.5 15.6022 68.658 15.2207 68.9393 14.9394C69.2206 14.6581 69.6022 14.5 70 14.5ZM58 13.5C57.5055 13.5 57.0222 13.6467 56.6111 13.9214C56.1999 14.1961 55.8795 14.5865 55.6903 15.0433C55.5011 15.5001 55.4516 16.0028 55.548 16.4878C55.6445 16.9727 55.8826 17.4182 56.2322 17.7678C56.5818 18.1174 57.0273 18.3555 57.5123 18.452C57.9972 18.5485 58.4999 18.4989 58.9567 18.3097C59.4135 18.1205 59.804 17.8001 60.0787 17.389C60.3534 16.9778 60.5 16.4945 60.5 16C60.5 15.337 60.2366 14.7011 59.7677 14.2323C59.2989 13.7634 58.663 13.5 58 13.5ZM58 17.5C57.7033 17.5 57.4133 17.4121 57.1666 17.2472C56.92 17.0824 56.7277 16.8481 56.6142 16.5741C56.5006 16.3 56.4709 15.9984 56.5288 15.7074C56.5867 15.4164 56.7295 15.1491 56.9393 14.9394C57.1491 14.7296 57.4164 14.5867 57.7073 14.5289C57.9983 14.471 58.2999 14.5007 58.574 14.6142C58.8481 14.7277 59.0824 14.92 59.2472 15.1667C59.412 15.4134 59.5 15.7034 59.5 16C59.5 16.3979 59.3419 16.7794 59.0606 17.0607C58.7793 17.342 58.3978 17.5 58 17.5Z" fill="currentColor"/>
<path d="M124 27.25H118C120.746 25.7857 122.861 23.3678 123.947 20.4519C125.034 17.5361 125.017 14.3235 123.899 11.4195C122.781 8.51555 120.64 6.12063 117.878 4.68598C115.117 3.25133 111.926 2.876 108.908 3.6307C105.889 4.38541 103.25 6.21804 101.489 8.78333C99.7277 11.3486 98.9653 14.4694 99.3455 17.5579C99.7257 20.6463 101.222 23.489 103.553 25.5505C105.884 27.6121 108.888 28.75 112 28.75H124C124.199 28.75 124.39 28.671 124.53 28.5303C124.671 28.3897 124.75 28.1989 124.75 28C124.75 27.8011 124.671 27.6103 124.53 27.4697C124.39 27.329 124.199 27.25 124 27.25ZM100.75 16C100.75 13.775 101.41 11.5999 102.646 9.74985C103.882 7.8998 105.639 6.45786 107.695 5.60637C109.75 4.75489 112.012 4.5321 114.195 4.96618C116.377 5.40027 118.382 6.47173 119.955 8.04507C121.528 9.61841 122.6 11.623 123.034 13.8053C123.468 15.9875 123.245 18.2495 122.394 20.3052C121.542 22.3609 120.1 24.1179 118.25 25.3541C116.4 26.5902 114.225 27.25 112 27.25C109.017 27.2467 106.158 26.0604 104.049 23.9513C101.94 21.8422 100.753 18.9827 100.75 16ZM112 12.75C112.544 12.75 113.076 12.5887 113.528 12.2866C113.98 11.9844 114.332 11.5549 114.541 11.0524C114.749 10.5499 114.803 9.99697 114.697 9.46352C114.591 8.93007 114.329 8.44007 113.945 8.05548C113.56 7.67088 113.07 7.40897 112.536 7.30286C112.003 7.19675 111.45 7.25121 110.948 7.45935C110.445 7.66749 110.016 8.01997 109.713 8.4722C109.411 8.92444 109.25 9.45612 109.25 10C109.25 10.7294 109.54 11.4288 110.055 11.9446C110.571 12.4603 111.271 12.75 112 12.75ZM112 8.75002C112.247 8.75002 112.489 8.82333 112.694 8.96068C112.9 9.09803 113.06 9.29326 113.155 9.52166C113.249 9.75007 113.274 10.0014 113.226 10.2439C113.178 10.4864 113.059 10.7091 112.884 10.8839C112.709 11.0587 112.486 11.1778 112.244 11.226C112.001 11.2742 111.75 11.2495 111.522 11.1549C111.293 11.0603 111.098 10.9 110.961 10.6945C110.823 10.4889 110.75 10.2472 110.75 10C110.75 9.6685 110.882 9.35056 111.116 9.11614C111.351 8.88172 111.668 8.75002 112 8.75002ZM114.75 22C114.75 21.4561 114.589 20.9244 114.287 20.4722C113.984 20.02 113.555 19.6675 113.052 19.4594C112.55 19.2512 111.997 19.1968 111.463 19.3029C110.93 19.409 110.44 19.6709 110.055 20.0555C109.671 20.4401 109.409 20.9301 109.303 21.4635C109.197 21.997 109.251 22.5499 109.459 23.0524C109.667 23.5549 110.02 23.9844 110.472 24.2866C110.924 24.5887 111.456 24.75 112 24.75C112.729 24.75 113.429 24.4603 113.945 23.9446C114.46 23.4288 114.75 22.7294 114.75 22ZM110.75 22C110.75 21.7528 110.823 21.5111 110.961 21.3056C111.098 21.1 111.293 20.9398 111.522 20.8452C111.75 20.7506 112.001 20.7258 112.244 20.774C112.486 20.8223 112.709 20.9413 112.884 21.1161C113.059 21.291 113.178 21.5137 113.226 21.7562C113.274 21.9986 113.249 22.25 113.155 22.4784C113.06 22.7068 112.9 22.902 112.694 23.0394C112.489 23.1767 112.247 23.25 112 23.25C111.668 23.25 111.351 23.1183 111.116 22.8839C110.882 22.6495 110.75 22.3315 110.75 22ZM118 18.75C118.544 18.75 119.076 18.5887 119.528 18.2866C119.98 17.9844 120.332 17.5549 120.541 17.0524C120.749 16.5499 120.803 15.997 120.697 15.4635C120.591 14.9301 120.329 14.4401 119.945 14.0555C119.56 13.6709 119.07 13.409 118.536 13.3029C118.003 13.1967 117.45 13.2512 116.948 13.4594C116.445 13.6675 116.016 14.02 115.713 14.4722C115.411 14.9244 115.25 15.4561 115.25 16C115.25 16.7294 115.54 17.4288 116.055 17.9446C116.571 18.4603 117.271 18.75 118 18.75ZM118 14.75C118.247 14.75 118.489 14.8233 118.694 14.9607C118.9 15.098 119.06 15.2933 119.155 15.5217C119.249 15.7501 119.274 16.0014 119.226 16.2439C119.178 16.4864 119.059 16.7091 118.884 16.8839C118.709 17.0587 118.486 17.1778 118.244 17.226C118.001 17.2742 117.75 17.2495 117.522 17.1549C117.293 17.0603 117.098 16.9 116.961 16.6945C116.823 16.4889 116.75 16.2472 116.75 16C116.75 15.6685 116.882 15.3506 117.116 15.1161C117.351 14.8817 117.668 14.75 118 14.75ZM106 13.25C105.456 13.25 104.924 13.4113 104.472 13.7135C104.02 14.0157 103.667 14.4451 103.459 14.9476C103.251 15.4501 103.197 16.0031 103.303 16.5365C103.409 17.07 103.671 17.56 104.055 17.9446C104.44 18.3292 104.93 18.5911 105.463 18.6972C105.997 18.8033 106.55 18.7488 107.052 18.5407C107.555 18.3325 107.984 17.9801 108.287 17.5278C108.589 17.0756 108.75 16.5439 108.75 16C108.75 15.2707 108.46 14.5712 107.945 14.0555C107.429 13.5398 106.729 13.25 106 13.25ZM106 17.25C105.753 17.25 105.511 17.1767 105.306 17.0394C105.1 16.902 104.94 16.7068 104.845 16.4784C104.751 16.25 104.726 15.9986 104.774 15.7562C104.822 15.5137 104.941 15.291 105.116 15.1161C105.291 14.9413 105.514 14.8223 105.756 14.774C105.999 14.7258 106.25 14.7506 106.478 14.8452C106.707 14.9398 106.902 15.1 107.039 15.3056C107.177 15.5111 107.25 15.7528 107.25 16C107.25 16.3315 107.118 16.6495 106.884 16.8839C106.649 17.1183 106.331 17.25 106 17.25Z" fill="currentColor"/>
<path d="M172 26.5H168.475C170.95 24.4989 172.638 21.687 173.241 18.5615C173.843 15.436 173.322 12.1982 171.768 9.42026C170.214 6.64235 167.727 4.50329 164.749 3.3812C161.77 2.2591 158.491 2.22622 155.49 3.28838C152.489 4.35054 149.961 6.43932 148.352 9.18552C146.742 11.9317 146.155 15.1585 146.695 18.2954C147.235 21.4324 148.866 24.2775 151.301 26.3278C153.736 28.3782 156.817 29.5018 160 29.5H172C172.398 29.5 172.779 29.342 173.061 29.0607C173.342 28.7794 173.5 28.3978 173.5 28C173.5 27.6022 173.342 27.2207 173.061 26.9394C172.779 26.658 172.398 26.5 172 26.5ZM149.5 16C149.5 13.9233 150.116 11.8932 151.27 10.1665C152.423 8.43981 154.063 7.094 155.982 6.29928C157.9 5.50456 160.012 5.29662 162.048 5.70177C164.085 6.10691 165.956 7.10694 167.425 8.57539C168.893 10.0438 169.893 11.9148 170.298 13.9516C170.703 15.9884 170.495 18.0996 169.701 20.0182C168.906 21.9368 167.56 23.5767 165.833 24.7304C164.107 25.8842 162.077 26.5 160 26.5C157.216 26.497 154.547 25.3898 152.579 23.4213C150.61 21.4529 149.503 18.7839 149.5 16ZM157.5 10.5C157.5 10.0056 157.647 9.52221 157.921 9.11109C158.196 8.69996 158.586 8.37953 159.043 8.19031C159.5 8.00109 160.003 7.95159 160.488 8.04805C160.973 8.14451 161.418 8.38261 161.768 8.73225C162.117 9.08188 162.355 9.52733 162.452 10.0123C162.548 10.4972 162.499 10.9999 162.31 11.4567C162.12 11.9135 161.8 12.304 161.389 12.5787C160.978 12.8534 160.494 13 160 13C159.337 13 158.701 12.7366 158.232 12.2678C157.763 11.7989 157.5 11.1631 157.5 10.5ZM160 24C159.506 24 159.022 23.8534 158.611 23.5787C158.2 23.304 157.879 22.9135 157.69 22.4567C157.501 21.9999 157.452 21.4972 157.548 21.0123C157.644 20.5273 157.883 20.0819 158.232 19.7322C158.582 19.3826 159.027 19.1445 159.512 19.048C159.997 18.9516 160.5 19.0011 160.957 19.1903C161.414 19.3795 161.804 19.7 162.079 20.1111C162.353 20.5222 162.5 21.0056 162.5 21.5C162.5 21.8283 162.435 22.1534 162.31 22.4567C162.184 22.76 162 23.0356 161.768 23.2678C161.536 23.4999 161.26 23.6841 160.957 23.8097C160.653 23.9353 160.328 24 160 24ZM163 16C163 15.5056 163.147 15.0222 163.421 14.6111C163.696 14.2 164.086 13.8795 164.543 13.6903C165 13.5011 165.503 13.4516 165.988 13.548C166.473 13.6445 166.918 13.8826 167.268 14.2322C167.617 14.5819 167.855 15.0273 167.952 15.5123C168.048 15.9972 167.999 16.4999 167.81 16.9567C167.62 17.4135 167.3 17.804 166.889 18.0787C166.478 18.3534 165.994 18.5 165.5 18.5C164.837 18.5 164.201 18.2366 163.732 17.7678C163.263 17.2989 163 16.6631 163 16ZM157 16C157 16.4945 156.853 16.9778 156.579 17.3889C156.304 17.8001 155.914 18.1205 155.457 18.3097C155 18.4989 154.497 18.5484 154.012 18.452C153.527 18.3555 153.082 18.1174 152.732 17.7678C152.383 17.4181 152.144 16.9727 152.048 16.4877C151.952 16.0028 152.001 15.5001 152.19 15.0433C152.379 14.5865 152.7 14.196 153.111 13.9213C153.522 13.6466 154.006 13.5 154.5 13.5C155.163 13.5 155.799 13.7634 156.268 14.2322C156.737 14.7011 157 15.337 157 16Z" fill="currentColor"/>
<path d="M220 27H214.92C217.569 25.3309 219.527 22.7614 220.432 19.7642C221.338 16.7669 221.13 13.5434 219.849 10.6868C218.567 7.83009 216.297 5.53234 213.456 4.21618C210.615 2.90003 207.394 2.654 204.386 3.52336C201.378 4.39271 198.785 6.31898 197.084 8.94781C195.383 11.5766 194.689 14.7312 195.129 17.8313C195.568 20.9313 197.113 23.7683 199.478 25.8203C201.843 27.8724 204.869 29.0015 208 29H220C220.265 29 220.52 28.8946 220.707 28.7071C220.895 28.5195 221 28.2652 221 28C221 27.7347 220.895 27.4804 220.707 27.2929C220.52 27.1053 220.265 27 220 27ZM202 18.5C201.506 18.5 201.022 18.3533 200.611 18.0786C200.2 17.8039 199.88 17.4135 199.69 16.9567C199.501 16.4999 199.452 15.9972 199.548 15.5122C199.644 15.0273 199.883 14.5818 200.232 14.2322C200.582 13.8826 201.027 13.6445 201.512 13.548C201.997 13.4515 202.5 13.501 202.957 13.6903C203.414 13.8795 203.804 14.1999 204.079 14.611C204.353 15.0222 204.5 15.5055 204.5 16C204.5 16.663 204.237 17.2989 203.768 17.7677C203.299 18.2366 202.663 18.5 202 18.5ZM208 24.5C207.506 24.5 207.022 24.3533 206.611 24.0786C206.2 23.8039 205.88 23.4135 205.69 22.9567C205.501 22.4999 205.452 21.9972 205.548 21.5122C205.644 21.0273 205.883 20.5818 206.232 20.2322C206.582 19.8826 207.027 19.6445 207.512 19.548C207.997 19.4515 208.5 19.501 208.957 19.6903C209.414 19.8795 209.804 20.1999 210.079 20.611C210.353 21.0222 210.5 21.5055 210.5 22C210.5 22.663 210.237 23.2989 209.768 23.7677C209.299 24.2366 208.663 24.5 208 24.5ZM208 12.5C207.506 12.5 207.022 12.3533 206.611 12.0786C206.2 11.8039 205.88 11.4135 205.69 10.9567C205.501 10.4999 205.452 9.99718 205.548 9.51223C205.644 9.02728 205.883 8.58182 206.232 8.23219C206.582 7.88256 207.027 7.64446 207.512 7.548C207.997 7.45153 208.5 7.50104 208.957 7.69026C209.414 7.87948 209.804 8.19991 210.079 8.61103C210.353 9.02216 210.5 9.50551 210.5 9.99996C210.5 10.663 210.237 11.2989 209.768 11.7677C209.299 12.2366 208.663 12.5 208 12.5ZM211.5 16C211.5 15.5055 211.647 15.0222 211.921 14.611C212.196 14.1999 212.586 13.8795 213.043 13.6903C213.5 13.501 214.003 13.4515 214.488 13.548C214.973 13.6445 215.418 13.8826 215.768 14.2322C216.117 14.5818 216.356 15.0273 216.452 15.5122C216.548 15.9972 216.499 16.4999 216.31 16.9567C216.12 17.4135 215.8 17.8039 215.389 18.0786C214.978 18.3533 214.494 18.5 214 18.5C213.337 18.5 212.701 18.2366 212.232 17.7677C211.763 17.2989 211.5 16.663 211.5 16Z" fill="currentColor"/>
<path opacity="0.2" d="M256 4C253.627 4 251.307 4.70379 249.333 6.02236C247.36 7.34094 245.822 9.21509 244.913 11.4078C244.005 13.6005 243.768 16.0133 244.231 18.3411C244.694 20.6689 245.836 22.8071 247.515 24.4853C249.193 26.1635 251.331 27.3064 253.659 27.7694C255.987 28.2324 258.399 27.9948 260.592 27.0866C262.785 26.1783 264.659 24.6402 265.978 22.6668C267.296 20.6935 268 18.3734 268 16C268 12.8174 266.736 9.76515 264.485 7.51472C262.235 5.26428 259.183 4 256 4ZM250 18C249.604 18 249.218 17.8827 248.889 17.6629C248.56 17.4432 248.304 17.1308 248.152 16.7654C248.001 16.3999 247.961 15.9978 248.038 15.6098C248.116 15.2219 248.306 14.8655 248.586 14.5858C248.865 14.3061 249.222 14.1156 249.61 14.0384C249.998 13.9613 250.4 14.0009 250.765 14.1522C251.131 14.3036 251.443 14.56 251.663 14.8889C251.883 15.2178 252 15.6044 252 16C252 16.5304 251.789 17.0391 251.414 17.4142C251.039 17.7893 250.53 18 250 18ZM256 24C255.604 24 255.218 23.8827 254.889 23.6629C254.56 23.4432 254.304 23.1308 254.152 22.7654C254.001 22.3999 253.961 21.9978 254.038 21.6098C254.116 21.2219 254.306 20.8655 254.586 20.5858C254.865 20.3061 255.222 20.1156 255.61 20.0384C255.998 19.9613 256.4 20.0009 256.765 20.1522C257.131 20.3036 257.443 20.56 257.663 20.8889C257.883 21.2178 258 21.6044 258 22C258 22.5304 257.789 23.0391 257.414 23.4142C257.039 23.7893 256.53 24 256 24ZM256 12C255.604 12 255.218 11.8827 254.889 11.6629C254.56 11.4432 254.304 11.1308 254.152 10.7654C254.001 10.3999 253.961 9.99778 254.038 9.60982C254.116 9.22186 254.306 8.86549 254.586 8.58579C254.865 8.30608 255.222 8.1156 255.61 8.03843C255.998 7.96126 256.4 8.00087 256.765 8.15224C257.131 8.30362 257.443 8.55996 257.663 8.88886C257.883 9.21776 258 9.60444 258 10C258 10.5304 257.789 11.0391 257.414 11.4142C257.039 11.7893 256.53 12 256 12ZM262 18C261.604 18 261.218 17.8827 260.889 17.6629C260.56 17.4432 260.304 17.1308 260.152 16.7654C260.001 16.3999 259.961 15.9978 260.038 15.6098C260.116 15.2219 260.306 14.8655 260.586 14.5858C260.865 14.3061 261.222 14.1156 261.61 14.0384C261.998 13.9613 262.4 14.0009 262.765 14.1522C263.131 14.3036 263.443 14.56 263.663 14.8889C263.883 15.2178 264 15.6044 264 16C264 16.5304 263.789 17.0391 263.414 17.4142C263.039 17.7893 262.53 18 262 18Z" fill="currentColor"/>
<path d="M268 27H262.92C265.569 25.3309 267.527 22.7614 268.432 19.7642C269.338 16.7669 269.13 13.5434 267.849 10.6868C266.567 7.83009 264.297 5.53234 261.456 4.21618C258.615 2.90003 255.394 2.654 252.386 3.52336C249.378 4.39271 246.785 6.31898 245.084 8.94781C243.383 11.5766 242.689 14.7312 243.129 17.8313C243.568 20.9313 245.113 23.7683 247.478 25.8203C249.843 27.8724 252.869 29.0015 256 29H268C268.265 29 268.52 28.8946 268.707 28.7071C268.895 28.5195 269 28.2652 269 28C269 27.7347 268.895 27.4804 268.707 27.2929C268.52 27.1053 268.265 27 268 27ZM245 16C245 13.8244 245.645 11.6976 246.854 9.88869C248.063 8.07975 249.78 6.66985 251.79 5.83728C253.8 5.00472 256.012 4.78688 258.146 5.21132C260.28 5.63576 262.24 6.68341 263.778 8.22178C265.317 9.76016 266.364 11.7202 266.789 13.854C267.213 15.9878 266.995 18.1995 266.163 20.2095C265.33 22.2195 263.92 23.9374 262.111 25.1461C260.302 26.3548 258.176 27 256 27C253.084 26.9966 250.288 25.8367 248.225 23.7745C246.163 21.7123 245.003 18.9163 245 16ZM256 13C256.593 13 257.173 12.824 257.667 12.4944C258.16 12.1647 258.545 11.6962 258.772 11.148C258.999 10.5998 259.058 9.99663 258.942 9.41469C258.827 8.83274 258.541 8.2982 258.121 7.87864C257.702 7.45908 257.167 7.17336 256.585 7.0576C256.003 6.94185 255.4 7.00126 254.852 7.22832C254.304 7.45538 253.835 7.8399 253.506 8.33325C253.176 8.8266 253 9.40661 253 9.99996C253 10.7956 253.316 11.5587 253.879 12.1213C254.441 12.6839 255.204 13 256 13ZM256 8.99996C256.198 8.99996 256.391 9.05861 256.556 9.16849C256.72 9.27837 256.848 9.43455 256.924 9.61727C257 9.8 257.019 10.0011 256.981 10.195C256.942 10.389 256.847 10.5672 256.707 10.7071C256.567 10.8469 256.389 10.9422 256.195 10.9807C256.001 11.0193 255.8 10.9995 255.617 10.9238C255.435 10.8482 255.278 10.72 255.169 10.5555C255.059 10.3911 255 10.1977 255 9.99996C255 9.73474 255.105 9.48039 255.293 9.29285C255.48 9.10532 255.735 8.99996 256 8.99996ZM259 22C259 21.4066 258.824 20.8266 258.494 20.3332C258.165 19.8399 257.696 19.4554 257.148 19.2283C256.6 19.0013 255.997 18.9418 255.415 19.0576C254.833 19.1734 254.298 19.4591 253.879 19.8786C253.459 20.2982 253.173 20.8327 253.058 21.4147C252.942 21.9966 253.001 22.5998 253.228 23.148C253.455 23.6962 253.84 24.1647 254.333 24.4944C254.827 24.824 255.407 25 256 25C256.796 25 257.559 24.6839 258.121 24.1213C258.684 23.5587 259 22.7956 259 22ZM255 22C255 21.8022 255.059 21.6088 255.169 21.4444C255.278 21.2799 255.435 21.1518 255.617 21.0761C255.8 21.0004 256.001 20.9806 256.195 21.0192C256.389 21.0578 256.567 21.153 256.707 21.2929C256.847 21.4327 256.942 21.6109 256.981 21.8049C257.019 21.9988 257 22.1999 256.924 22.3826C256.848 22.5654 256.72 22.7215 256.556 22.8314C256.391 22.9413 256.198 23 256 23C255.735 23 255.48 22.8946 255.293 22.7071C255.105 22.5195 255 22.2652 255 22ZM262 19C262.593 19 263.173 18.824 263.667 18.4944C264.16 18.1647 264.545 17.6962 264.772 17.148C264.999 16.5998 265.058 15.9966 264.942 15.4147C264.827 14.8327 264.541 14.2982 264.121 13.8786C263.702 13.4591 263.167 13.1734 262.585 13.0576C262.003 12.9418 261.4 13.0013 260.852 13.2283C260.304 13.4554 259.835 13.8399 259.506 14.3332C259.176 14.8266 259 15.4066 259 16C259 16.7956 259.316 17.5587 259.879 18.1213C260.441 18.6839 261.204 19 262 19ZM262 15C262.198 15 262.391 15.0586 262.556 15.1685C262.72 15.2784 262.848 15.4345 262.924 15.6173C263 15.8 263.019 16.0011 262.981 16.195C262.942 16.389 262.847 16.5672 262.707 16.7071C262.567 16.8469 262.389 16.9422 262.195 16.9807C262.001 17.0193 261.8 16.9995 261.617 16.9238C261.435 16.8482 261.278 16.72 261.169 16.5555C261.059 16.3911 261 16.1977 261 16C261 15.7347 261.105 15.4804 261.293 15.2929C261.48 15.1053 261.735 15 262 15ZM250 13C249.407 13 248.827 13.1759 248.333 13.5055C247.84 13.8352 247.455 14.3037 247.228 14.8519C247.001 15.4001 246.942 16.0033 247.058 16.5852C247.173 17.1672 247.459 17.7017 247.879 18.1213C248.298 18.5408 248.833 18.8266 249.415 18.9423C249.997 19.0581 250.6 18.9987 251.148 18.7716C251.696 18.5445 252.165 18.16 252.494 17.6667C252.824 17.1733 253 16.5933 253 16C253 15.2043 252.684 14.4412 252.121 13.8786C251.559 13.316 250.796 13 250 13ZM250 17C249.802 17 249.609 16.9413 249.444 16.8314C249.28 16.7215 249.152 16.5654 249.076 16.3826C249 16.1999 248.981 15.9988 249.019 15.8049C249.058 15.6109 249.153 15.4327 249.293 15.2929C249.433 15.153 249.611 15.0578 249.805 15.0192C249.999 14.9806 250.2 15.0004 250.383 15.0761C250.565 15.1518 250.722 15.2799 250.831 15.4444C250.941 15.6088 251 15.8022 251 16C251 16.2652 250.895 16.5195 250.707 16.7071C250.52 16.8946 250.265 17 250 17Z" fill="currentColor"/>
</g>
<defs>
<clipPath id="clip0_17_16947">
<rect width="272" height="32" rx="5" fill="white"/>
</clipPath>
</defs>
</svg>
