<svg width="272" height="32" viewBox="0 0 272 32" fill="none" xmlns="http://www.w3.org/2000/svg">
<g clip-path="url(#clip0_17_16877)">
<path d="M18 9V23C18 23.2652 17.8946 23.5196 17.7071 23.7071C17.5196 23.8946 17.2652 24 17 24C16.7348 24 16.4804 23.8946 16.2929 23.7071C16.1054 23.5196 16 23.2652 16 23V9C16 8.73478 16.1054 8.48043 16.2929 8.29289C16.4804 8.10536 16.7348 8 17 8C17.2652 8 17.5196 8.10536 17.7071 8.29289C17.8946 8.48043 18 8.73478 18 9ZM28 8H22C21.7348 8 21.4804 8.10536 21.2929 8.29289C21.1054 8.48043 21 8.73478 21 9V23C21 23.2652 21.1054 23.5196 21.2929 23.7071C21.4804 23.8946 21.7348 24 22 24C22.2652 24 22.5196 23.8946 22.7071 23.7071C22.8946 23.5196 23 23.2652 23 23V17H27C27.2652 17 27.5196 16.8946 27.7071 16.7071C27.8946 16.5196 28 16.2652 28 16C28 15.7348 27.8946 15.4804 27.7071 15.2929C27.5196 15.1054 27.2652 15 27 15H23V10H28C28.2652 10 28.5196 9.89464 28.7071 9.70711C28.8946 9.51957 29 9.26522 29 9C29 8.73478 28.8946 8.48043 28.7071 8.29289C28.5196 8.10536 28.2652 8 28 8ZM12 15H9C8.73478 15 8.48043 15.1054 8.29289 15.2929C8.10536 15.4804 8 15.7348 8 16C8 16.2652 8.10536 16.5196 8.29289 16.7071C8.48043 16.8946 8.73478 17 9 17H11V19C11 19.7956 10.6839 20.5587 10.1213 21.1213C9.55871 21.6839 8.79565 22 8 22C7.20435 22 6.44129 21.6839 5.87868 21.1213C5.31607 20.5587 5 19.7956 5 19V13C5 12.2044 5.31607 11.4413 5.87868 10.8787C6.44129 10.3161 7.20435 10 8 10C9.39875 10 10.7013 10.9675 11.0312 12.25C11.0976 12.5069 11.2632 12.727 11.4918 12.8618C11.7203 12.9966 11.9931 13.0351 12.25 12.9688C12.5069 12.9024 12.727 12.7368 12.8618 12.5082C12.9966 12.2797 13.0351 12.0069 12.9688 11.75C12.4087 9.5775 10.32 8 8 8C6.67392 8 5.40215 8.52678 4.46447 9.46447C3.52678 10.4021 3 11.6739 3 13V19C3 20.3261 3.52678 21.5979 4.46447 22.5355C5.40215 23.4732 6.67392 24 8 24C9.32608 24 10.5979 23.4732 11.5355 22.5355C12.4732 21.5979 13 20.3261 13 19V16C13 15.7348 12.8946 15.4804 12.7071 15.2929C12.5196 15.1054 12.2652 15 12 15Z" fill="currentColor"/>
<path d="M65.5 9V23C65.5 23.1326 65.4473 23.2598 65.3536 23.3536C65.2598 23.4473 65.1326 23.5 65 23.5C64.8674 23.5 64.7402 23.4473 64.6464 23.3536C64.5527 23.2598 64.5 23.1326 64.5 23V9C64.5 8.86739 64.5527 8.74021 64.6464 8.64645C64.7402 8.55268 64.8674 8.5 65 8.5C65.1326 8.5 65.2598 8.55268 65.3536 8.64645C65.4473 8.74021 65.5 8.86739 65.5 9ZM76 8.5H70C69.8674 8.5 69.7402 8.55268 69.6464 8.64645C69.5527 8.74021 69.5 8.86739 69.5 9V23C69.5 23.1326 69.5527 23.2598 69.6464 23.3536C69.7402 23.4473 69.8674 23.5 70 23.5C70.1326 23.5 70.2598 23.4473 70.3536 23.3536C70.4473 23.2598 70.5 23.1326 70.5 23V16.5H75C75.1326 16.5 75.2598 16.4473 75.3536 16.3536C75.4473 16.2598 75.5 16.1326 75.5 16C75.5 15.8674 75.4473 15.7402 75.3536 15.6464C75.2598 15.5527 75.1326 15.5 75 15.5H70.5V9.5H76C76.1326 9.5 76.2598 9.44732 76.3536 9.35355C76.4473 9.25979 76.5 9.13261 76.5 9C76.5 8.86739 76.4473 8.74021 76.3536 8.64645C76.2598 8.55268 76.1326 8.5 76 8.5ZM60 15.5H57C56.8674 15.5 56.7402 15.5527 56.6464 15.6464C56.5527 15.7402 56.5 15.8674 56.5 16C56.5 16.1326 56.5527 16.2598 56.6464 16.3536C56.7402 16.4473 56.8674 16.5 57 16.5H59.5V19C59.5 19.9283 59.1313 20.8185 58.4749 21.4749C57.8185 22.1313 56.9283 22.5 56 22.5C55.0717 22.5 54.1815 22.1313 53.5251 21.4749C52.8687 20.8185 52.5 19.9283 52.5 19V13C52.5 12.0717 52.8687 11.1815 53.5251 10.5251C54.1815 9.86875 55.0717 9.5 56 9.5C57.625 9.5 59.125 10.625 59.5162 12.125C59.5306 12.1907 59.558 12.2529 59.597 12.3077C59.6359 12.3626 59.6855 12.409 59.7428 12.4443C59.8 12.4795 59.8639 12.5028 59.9304 12.5128C59.9969 12.5228 60.0647 12.5193 60.1298 12.5025C60.195 12.4857 60.256 12.4559 60.3094 12.4149C60.3627 12.3739 60.4072 12.3226 60.4403 12.264C60.4733 12.2054 60.4942 12.1408 60.5017 12.0739C60.5091 12.0071 60.503 11.9394 60.4838 11.875C59.9813 9.92 58.095 8.5 56 8.5C54.8065 8.5 53.6619 8.97411 52.818 9.81802C51.9741 10.6619 51.5 11.8065 51.5 13V19C51.5 20.1935 51.9741 21.3381 52.818 22.182C53.6619 23.0259 54.8065 23.5 56 23.5C57.1935 23.5 58.3381 23.0259 59.182 22.182C60.0259 21.3381 60.5 20.1935 60.5 19V16C60.5 15.8674 60.4473 15.7402 60.3536 15.6464C60.2598 15.5527 60.1326 15.5 60 15.5Z" fill="currentColor"/>
<path d="M113.75 9V23C113.75 23.1989 113.671 23.3897 113.53 23.5303C113.39 23.671 113.199 23.75 113 23.75C112.801 23.75 112.61 23.671 112.47 23.5303C112.329 23.3897 112.25 23.1989 112.25 23V9C112.25 8.80109 112.329 8.61032 112.47 8.46967C112.61 8.32902 112.801 8.25 113 8.25C113.199 8.25 113.39 8.32902 113.53 8.46967C113.671 8.61032 113.75 8.80109 113.75 9ZM124 8.25H118C117.801 8.25 117.61 8.32902 117.47 8.46967C117.329 8.61032 117.25 8.80109 117.25 9V23C117.25 23.1989 117.329 23.3897 117.47 23.5303C117.61 23.671 117.801 23.75 118 23.75C118.199 23.75 118.39 23.671 118.53 23.5303C118.671 23.3897 118.75 23.1989 118.75 23V16.75H123C123.199 16.75 123.39 16.671 123.53 16.5303C123.671 16.3897 123.75 16.1989 123.75 16C123.75 15.8011 123.671 15.6103 123.53 15.4697C123.39 15.329 123.199 15.25 123 15.25H118.75V9.75H124C124.199 9.75 124.39 9.67098 124.53 9.53033C124.671 9.38968 124.75 9.19891 124.75 9C124.75 8.80109 124.671 8.61032 124.53 8.46967C124.39 8.32902 124.199 8.25 124 8.25ZM108 15.25H105C104.801 15.25 104.61 15.329 104.47 15.4697C104.329 15.6103 104.25 15.8011 104.25 16C104.25 16.1989 104.329 16.3897 104.47 16.5303C104.61 16.671 104.801 16.75 105 16.75H107.25V19C107.25 19.862 106.908 20.6886 106.298 21.2981C105.689 21.9076 104.862 22.25 104 22.25C103.138 22.25 102.311 21.9076 101.702 21.2981C101.092 20.6886 100.75 19.862 100.75 19V13C100.75 12.138 101.092 11.3114 101.702 10.7019C102.311 10.0924 103.138 9.75 104 9.75C105.509 9.75 106.916 10.7975 107.274 12.1875C107.298 12.2829 107.342 12.3725 107.401 12.4512C107.46 12.5298 107.534 12.5961 107.619 12.6461C107.704 12.6961 107.798 12.729 107.895 12.7427C107.993 12.7565 108.092 12.7509 108.188 12.7262C108.283 12.7016 108.372 12.6585 108.451 12.5992C108.53 12.54 108.596 12.4658 108.646 12.381C108.696 12.2961 108.729 12.2022 108.743 12.1047C108.756 12.0072 108.751 11.9079 108.726 11.8125C108.195 9.75 106.207 8.25 104 8.25C102.74 8.25 101.532 8.75045 100.641 9.64124C99.7504 10.532 99.25 11.7402 99.25 13V19C99.25 20.2598 99.7504 21.468 100.641 22.3588C101.532 23.2496 102.74 23.75 104 23.75C105.26 23.75 106.468 23.2496 107.359 22.3588C108.25 21.468 108.75 20.2598 108.75 19V16C108.75 15.8011 108.671 15.6103 108.53 15.4697C108.39 15.329 108.199 15.25 108 15.25Z" fill="currentColor"/>
<path d="M162.5 9V23C162.5 23.3978 162.342 23.7794 162.061 24.0607C161.779 24.342 161.398 24.5 161 24.5C160.602 24.5 160.221 24.342 159.939 24.0607C159.658 23.7794 159.5 23.3978 159.5 23V9C159.5 8.60218 159.658 8.22064 159.939 7.93934C160.221 7.65804 160.602 7.5 161 7.5C161.398 7.5 161.779 7.65804 162.061 7.93934C162.342 8.22064 162.5 8.60218 162.5 9ZM172 10.5C172.398 10.5 172.779 10.342 173.061 10.0607C173.342 9.77936 173.5 9.39782 173.5 9C173.5 8.60218 173.342 8.22064 173.061 7.93934C172.779 7.65804 172.398 7.5 172 7.5H166C165.602 7.5 165.221 7.65804 164.939 7.93934C164.658 8.22064 164.5 8.60218 164.5 9V23C164.5 23.3978 164.658 23.7794 164.939 24.0607C165.221 24.342 165.602 24.5 166 24.5C166.398 24.5 166.779 24.342 167.061 24.0607C167.342 23.7794 167.5 23.3978 167.5 23V17.5H171C171.398 17.5 171.779 17.342 172.061 17.0607C172.342 16.7794 172.5 16.3978 172.5 16C172.5 15.6022 172.342 15.2206 172.061 14.9393C171.779 14.658 171.398 14.5 171 14.5H167.5V10.5H172ZM156 14.5H153C152.602 14.5 152.221 14.658 151.939 14.9393C151.658 15.2206 151.5 15.6022 151.5 16C151.5 16.3978 151.658 16.7794 151.939 17.0607C152.221 17.342 152.602 17.5 153 17.5H154.5V19C154.5 19.663 154.237 20.2989 153.768 20.7678C153.299 21.2366 152.663 21.5 152 21.5C151.337 21.5 150.701 21.2366 150.232 20.7678C149.763 20.2989 149.5 19.663 149.5 19V13C149.5 12.337 149.763 11.7011 150.232 11.2322C150.701 10.7634 151.337 10.5 152 10.5C152.459 10.5025 152.91 10.621 153.311 10.8443C153.712 11.0676 154.05 11.3886 154.294 11.7775C154.5 12.1178 154.833 12.3623 155.219 12.4571C155.606 12.5519 156.014 12.4893 156.354 12.2831C156.695 12.0769 156.939 11.744 157.034 11.3575C157.129 10.9711 157.066 10.5628 156.86 10.2225C156.35 9.39139 155.635 8.70481 154.785 8.22822C153.934 7.75163 152.975 7.50092 152 7.5C150.542 7.50165 149.144 8.08165 148.113 9.11274C147.082 10.1438 146.502 11.5418 146.5 13V19C146.5 20.4587 147.079 21.8576 148.111 22.8891C149.142 23.9205 150.541 24.5 152 24.5C153.459 24.5 154.858 23.9205 155.889 22.8891C156.921 21.8576 157.5 20.4587 157.5 19V16C157.5 15.6022 157.342 15.2206 157.061 14.9393C156.779 14.658 156.398 14.5 156 14.5Z" fill="currentColor"/>
<path d="M219 5H197C196.47 5 195.961 5.21071 195.586 5.58579C195.211 5.96086 195 6.46957 195 7V25C195 25.5304 195.211 26.0391 195.586 26.4142C195.961 26.7893 196.47 27 197 27H219C219.53 27 220.039 26.7893 220.414 26.4142C220.789 26.0391 221 25.5304 221 25V7C221 6.46957 220.789 5.96086 220.414 5.58579C220.039 5.21071 219.53 5 219 5ZM206 18C206 19.0609 205.579 20.0783 204.828 20.8284C204.078 21.5786 203.061 22 202 22C200.939 22 199.922 21.5786 199.172 20.8284C198.421 20.0783 198 19.0609 198 18V14C198 13.19 198.246 12.3991 198.706 11.7319C199.165 11.0648 199.816 10.5529 200.573 10.2639C201.33 9.97486 202.156 9.92241 202.943 10.1135C203.731 10.3045 204.441 10.73 204.981 11.3337C205.074 11.4307 205.146 11.5453 205.194 11.6707C205.241 11.7961 205.263 11.9298 205.257 12.0638C205.252 12.1978 205.22 12.3294 205.163 12.4507C205.106 12.572 205.025 12.6806 204.925 12.77C204.825 12.8594 204.708 12.9277 204.581 12.971C204.454 13.0143 204.32 13.0316 204.186 13.022C204.052 13.0123 203.922 12.9758 203.803 12.9147C203.683 12.8536 203.577 12.7691 203.491 12.6663C203.221 12.3641 202.866 12.1511 202.472 12.0555C202.078 11.9598 201.665 11.9861 201.286 12.1307C200.908 12.2753 200.582 12.5315 200.352 12.8653C200.123 13.1991 200 13.5948 200 14V18C200 18.5304 200.211 19.0391 200.586 19.4142C200.961 19.7893 201.47 20 202 20C202.53 20 203.039 19.7893 203.414 19.4142C203.789 19.0391 204 18.5304 204 18V17H203C202.735 17 202.48 16.8946 202.293 16.7071C202.105 16.5196 202 16.2652 202 16C202 15.7348 202.105 15.4804 202.293 15.2929C202.48 15.1054 202.735 15 203 15H205C205.265 15 205.52 15.1054 205.707 15.2929C205.895 15.4804 206 15.7348 206 16V18ZM210 21C210 21.2652 209.895 21.5196 209.707 21.7071C209.52 21.8946 209.265 22 209 22C208.735 22 208.48 21.8946 208.293 21.7071C208.105 21.5196 208 21.2652 208 21V11C208 10.7348 208.105 10.4804 208.293 10.2929C208.48 10.1054 208.735 10 209 10C209.265 10 209.52 10.1054 209.707 10.2929C209.895 10.4804 210 10.7348 210 11V21ZM217 12H214V15H216C216.265 15 216.52 15.1054 216.707 15.2929C216.895 15.4804 217 15.7348 217 16C217 16.2652 216.895 16.5196 216.707 16.7071C216.52 16.8946 216.265 17 216 17H214V21C214 21.2652 213.895 21.5196 213.707 21.7071C213.52 21.8946 213.265 22 213 22C212.735 22 212.48 21.8946 212.293 21.7071C212.105 21.5196 212 21.2652 212 21V11C212 10.7348 212.105 10.4804 212.293 10.2929C212.48 10.1054 212.735 10 213 10H217C217.265 10 217.52 10.1054 217.707 10.2929C217.895 10.4804 218 10.7348 218 11C218 11.2652 217.895 11.5196 217.707 11.7071C217.52 11.8946 217.265 12 217 12Z" fill="currentColor"/>
<path opacity="0.2" d="M269 7V25C269 25.5304 268.789 26.0391 268.414 26.4142C268.039 26.7893 267.53 27 267 27H245C244.47 27 243.961 26.7893 243.586 26.4142C243.211 26.0391 243 25.5304 243 25V7C243 6.46957 243.211 5.96086 243.586 5.58579C243.961 5.21071 244.47 5 245 5H267C267.53 5 268.039 5.21071 268.414 5.58579C268.789 5.96086 269 6.46957 269 7Z" fill="currentColor"/>
<path d="M266 11C266 11.2652 265.895 11.5196 265.707 11.7071C265.52 11.8946 265.265 12 265 12H262V15H264C264.265 15 264.52 15.1054 264.707 15.2929C264.895 15.4804 265 15.7348 265 16C265 16.2652 264.895 16.5196 264.707 16.7071C264.52 16.8946 264.265 17 264 17H262V21C262 21.2652 261.895 21.5196 261.707 21.7071C261.52 21.8946 261.265 22 261 22C260.735 22 260.48 21.8946 260.293 21.7071C260.105 21.5196 260 21.2652 260 21V11C260 10.7348 260.105 10.4804 260.293 10.2929C260.48 10.1054 260.735 10 261 10H265C265.265 10 265.52 10.1054 265.707 10.2929C265.895 10.4804 266 10.7348 266 11ZM257 10C256.735 10 256.48 10.1054 256.293 10.2929C256.105 10.4804 256 10.7348 256 11V21C256 21.2652 256.105 21.5196 256.293 21.7071C256.48 21.8946 256.735 22 257 22C257.265 22 257.52 21.8946 257.707 21.7071C257.895 21.5196 258 21.2652 258 21V11C258 10.7348 257.895 10.4804 257.707 10.2929C257.52 10.1054 257.265 10 257 10ZM253 15H251C250.735 15 250.48 15.1054 250.293 15.2929C250.105 15.4804 250 15.7348 250 16C250 16.2652 250.105 16.5196 250.293 16.7071C250.48 16.8946 250.735 17 251 17H252V18C252 18.5304 251.789 19.0391 251.414 19.4142C251.039 19.7893 250.53 20 250 20C249.47 20 248.961 19.7893 248.586 19.4142C248.211 19.0391 248 18.5304 248 18V14C248 13.5948 248.123 13.1991 248.352 12.8653C248.582 12.5315 248.908 12.2753 249.286 12.1307C249.665 11.9861 250.078 11.9598 250.472 12.0555C250.866 12.1511 251.221 12.3641 251.491 12.6663C251.577 12.7691 251.683 12.8536 251.803 12.9147C251.922 12.9758 252.052 13.0123 252.186 13.022C252.32 13.0316 252.454 13.0143 252.581 12.971C252.708 12.9277 252.825 12.8594 252.925 12.77C253.025 12.6806 253.106 12.572 253.163 12.4507C253.22 12.3294 253.252 12.1978 253.257 12.0638C253.263 11.9298 253.241 11.7961 253.194 11.6707C253.146 11.5453 253.074 11.4307 252.981 11.3337C252.441 10.73 251.731 10.3045 250.943 10.1135C250.156 9.92241 249.33 9.97486 248.573 10.2639C247.816 10.5529 247.165 11.0648 246.706 11.7319C246.246 12.3991 246 13.19 246 14V18C246 19.0609 246.421 20.0783 247.172 20.8284C247.922 21.5786 248.939 22 250 22C251.061 22 252.078 21.5786 252.828 20.8284C253.579 20.0783 254 19.0609 254 18V16C254 15.7348 253.895 15.4804 253.707 15.2929C253.52 15.1054 253.265 15 253 15Z" fill="currentColor"/>
</g>
<defs>
<clipPath id="clip0_17_16877">
<rect width="272" height="32" rx="5" fill="white"/>
</clipPath>
</defs>
</svg>
