<svg width="272" height="32" viewBox="0 0 272 32" fill="none" xmlns="http://www.w3.org/2000/svg">
<g clip-path="url(#clip0_17_16849)">
<path d="M25.2362 7.8325C24.04 6.62422 22.6172 5.66377 21.0492 5.00613C19.4813 4.3485 17.799 4.00659 16.0987 4H16C12.5522 4 9.24558 5.36964 6.80761 7.80761C4.36964 10.2456 3 13.5522 3 17V24C3 24.7956 3.31607 25.5587 3.87868 26.1213C4.44129 26.6839 5.20435 27 6 27H8C8.79565 27 9.55871 26.6839 10.1213 26.1213C10.6839 25.5587 11 24.7956 11 24V19C11 18.2044 10.6839 17.4413 10.1213 16.8787C9.55871 16.3161 8.79565 16 8 16H5.045C5.29449 13.267 6.55656 10.726 8.58346 8.87578C10.6103 7.02558 13.2556 5.99986 16 6H16.0837C18.8167 6.01155 21.4468 7.04338 23.4585 8.89324C25.4702 10.7431 26.7185 13.2776 26.9587 16H24C23.2044 16 22.4413 16.3161 21.8787 16.8787C21.3161 17.4413 21 18.2044 21 19V24C21 24.7956 21.3161 25.5587 21.8787 26.1213C22.4413 26.6839 23.2044 27 24 27H26C26.7956 27 27.5587 26.6839 28.1213 26.1213C28.6839 25.5587 29 24.7956 29 24V17C29.0065 15.2995 28.6774 13.6144 28.0316 12.0412C27.3857 10.4681 26.4358 9.03788 25.2362 7.8325ZM8 18C8.26522 18 8.51957 18.1054 8.70711 18.2929C8.89464 18.4804 9 18.7348 9 19V24C9 24.2652 8.89464 24.5196 8.70711 24.7071C8.51957 24.8946 8.26522 25 8 25H6C5.73478 25 5.48043 24.8946 5.29289 24.7071C5.10536 24.5196 5 24.2652 5 24V18H8ZM27 24C27 24.2652 26.8946 24.5196 26.7071 24.7071C26.5196 24.8946 26.2652 25 26 25H24C23.7348 25 23.4804 24.8946 23.2929 24.7071C23.1054 24.5196 23 24.2652 23 24V19C23 18.7348 23.1054 18.4804 23.2929 18.2929C23.4804 18.1054 23.7348 18 24 18H27V24Z" fill="currentColor"/>
<path d="M72.8813 8.18495C71.1351 6.42793 68.9067 5.22891 66.4783 4.73986C64.05 4.25081 61.5311 4.49377 59.241 5.43793C56.9509 6.38209 54.9926 7.98494 53.6145 10.0433C52.2364 12.1017 51.5005 14.5228 51.5 16.9999V24C51.5 24.663 51.7634 25.2989 52.2322 25.7677C52.7011 26.2366 53.337 26.5 54 26.5H56C56.663 26.5 57.2989 26.2366 57.7678 25.7677C58.2366 25.2989 58.5 24.663 58.5 24V18.9999C58.5 18.3369 58.2366 17.701 57.7678 17.2322C57.2989 16.7633 56.663 16.4999 56 16.4999H52.51C52.6389 13.5392 53.9057 10.7424 56.0465 8.69302C58.1872 6.6436 61.0364 5.49972 64 5.49995H64.0875C67.0382 5.51453 69.8698 6.66587 71.9935 8.71456C74.1171 10.7632 75.3694 13.5516 75.49 16.4999H72C71.337 16.4999 70.7011 16.7633 70.2322 17.2322C69.7634 17.701 69.5 18.3369 69.5 18.9999V24C69.5 24.663 69.7634 25.2989 70.2322 25.7677C70.7011 26.2366 71.337 26.5 72 26.5H74C74.663 26.5 75.2989 26.2366 75.7678 25.7677C76.2366 25.2989 76.5 24.663 76.5 24V16.9999C76.5063 15.3648 76.1899 13.7445 75.569 12.2319C74.948 10.7192 74.0346 9.34399 72.8813 8.18495ZM56 17.4999C56.3978 17.4999 56.7794 17.658 57.0607 17.9393C57.342 18.2206 57.5 18.6021 57.5 18.9999V24C57.5 24.3978 57.342 24.7793 57.0607 25.0606C56.7794 25.3419 56.3978 25.5 56 25.5H54C53.6022 25.5 53.2206 25.3419 52.9393 25.0606C52.658 24.7793 52.5 24.3978 52.5 24V17.4999H56ZM75.5 24C75.5 24.3978 75.342 24.7793 75.0607 25.0606C74.7794 25.3419 74.3978 25.5 74 25.5H72C71.6022 25.5 71.2206 25.3419 70.9393 25.0606C70.658 24.7793 70.5 24.3978 70.5 24V18.9999C70.5 18.6021 70.658 18.2206 70.9393 17.9393C71.2206 17.658 71.6022 17.4999 72 17.4999H75.5V24Z" fill="currentColor"/>
<path d="M121.059 8.00875C119.886 6.82324 118.49 5.88096 116.952 5.23595C115.414 4.59094 113.764 4.25588 112.096 4.25H112C108.618 4.25 105.375 5.5933 102.984 7.98439C100.593 10.3755 99.25 13.6185 99.25 17V24C99.25 24.7293 99.5397 25.4288 100.055 25.9445C100.571 26.4603 101.271 26.75 102 26.75H104C104.729 26.75 105.429 26.4603 105.945 25.9445C106.46 25.4288 106.75 24.7293 106.75 24V19C106.75 18.2707 106.46 17.5712 105.945 17.0555C105.429 16.5397 104.729 16.25 104 16.25H100.775C100.921 14.0893 101.687 12.0165 102.981 10.2799C104.275 8.54323 106.042 7.21639 108.071 6.45823C110.099 5.70007 112.303 5.54273 114.419 6.00506C116.535 6.46738 118.473 7.52977 120 9.065C121.912 10.9892 123.058 13.5429 123.226 16.25H120C119.271 16.25 118.571 16.5397 118.055 17.0555C117.54 17.5712 117.25 18.2707 117.25 19V24C117.25 24.7293 117.54 25.4288 118.055 25.9445C118.571 26.4603 119.271 26.75 120 26.75H122C122.729 26.75 123.429 26.4603 123.945 25.9445C124.46 25.4288 124.75 24.7293 124.75 24V17C124.756 15.3322 124.433 13.6795 123.8 12.1367C123.167 10.5938 122.235 9.19104 121.059 8.00875ZM104 17.75C104.332 17.75 104.649 17.8817 104.884 18.1161C105.118 18.3505 105.25 18.6685 105.25 19V24C105.25 24.3315 105.118 24.6495 104.884 24.8839C104.649 25.1183 104.332 25.25 104 25.25H102C101.668 25.25 101.351 25.1183 101.116 24.8839C100.882 24.6495 100.75 24.3315 100.75 24V17.75H104ZM123.25 24C123.25 24.3315 123.118 24.6495 122.884 24.8839C122.649 25.1183 122.332 25.25 122 25.25H120C119.668 25.25 119.351 25.1183 119.116 24.8839C118.882 24.6495 118.75 24.3315 118.75 24V19C118.75 18.6685 118.882 18.3505 119.116 18.1161C119.351 17.8817 119.668 17.75 120 17.75H123.25V24Z" fill="currentColor"/>
<path d="M169.591 7.48124C167.706 5.58357 165.299 4.2885 162.677 3.76019C160.054 3.23188 157.334 3.49412 154.86 4.51367C152.387 5.53322 150.272 7.26416 148.784 9.48708C147.295 11.71 146.501 14.3248 146.5 17V24C146.5 24.9282 146.869 25.8185 147.525 26.4749C148.182 27.1312 149.072 27.5 150 27.5H152C152.928 27.5 153.818 27.1312 154.475 26.4749C155.131 25.8185 155.5 24.9282 155.5 24V19C155.5 18.0717 155.131 17.1815 154.475 16.5251C153.818 15.8687 152.928 15.5 152 15.5H149.605C149.967 13.0011 151.217 10.7161 153.126 9.06337C155.035 7.41062 157.475 6.50064 160 6.49999H160.08C162.594 6.51075 165.02 7.4262 166.914 9.07886C168.808 10.7315 170.044 13.0109 170.395 15.5H168C167.072 15.5 166.182 15.8687 165.525 16.5251C164.869 17.1815 164.5 18.0717 164.5 19V24C164.5 24.9282 164.869 25.8185 165.525 26.4749C166.182 27.1312 167.072 27.5 168 27.5H170C170.46 27.5 170.915 27.4095 171.339 27.2336C171.764 27.0577 172.15 26.7999 172.475 26.4749C172.8 26.1499 173.058 25.764 173.234 25.3394C173.409 24.9147 173.5 24.4596 173.5 24V17C173.507 15.2342 173.165 13.4844 172.494 11.851C171.824 10.2176 170.837 8.73261 169.591 7.48124ZM152 18.5C152.133 18.5 152.26 18.5527 152.354 18.6464C152.447 18.7402 152.5 18.8674 152.5 19V24C152.5 24.1326 152.447 24.2598 152.354 24.3535C152.26 24.4473 152.133 24.5 152 24.5H150C149.867 24.5 149.74 24.4473 149.646 24.3535C149.553 24.2598 149.5 24.1326 149.5 24V18.5H152ZM170.5 24C170.5 24.1326 170.447 24.2598 170.354 24.3535C170.26 24.4473 170.133 24.5 170 24.5H168C167.867 24.5 167.74 24.4473 167.646 24.3535C167.553 24.2598 167.5 24.1326 167.5 24V19C167.5 18.8674 167.553 18.7402 167.646 18.6464C167.74 18.5527 167.867 18.5 168 18.5H170.5V24Z" fill="currentColor"/>
<path d="M221 17.0001V24.0001C221 24.7957 220.684 25.5588 220.121 26.1214C219.559 26.684 218.796 27.0001 218 27.0001H216C215.204 27.0001 214.441 26.684 213.879 26.1214C213.316 25.5588 213 24.7957 213 24.0001V19.0001C213 18.2044 213.316 17.4414 213.879 16.8788C214.441 16.3161 215.204 16.0001 216 16.0001H218.956C218.716 13.2777 217.468 10.7432 215.456 8.89332C213.444 7.04345 210.814 6.01162 208.081 6.00008H208C205.256 5.99994 202.61 7.02566 200.583 8.87585C198.557 10.726 197.294 13.2671 197.045 16.0001H200C200.796 16.0001 201.559 16.3161 202.121 16.8788C202.684 17.4414 203 18.2044 203 19.0001V24.0001C203 24.7957 202.684 25.5588 202.121 26.1214C201.559 26.684 200.796 27.0001 200 27.0001H198C197.204 27.0001 196.441 26.684 195.879 26.1214C195.316 25.5588 195 24.7957 195 24.0001V17.0001C195.003 14.4249 195.77 11.9085 197.203 9.76936C198.637 7.63018 200.673 5.96441 203.053 4.98289C205.434 4.00136 208.053 3.74822 210.577 4.25549C213.102 4.76276 215.419 6.00765 217.236 7.83258C218.436 9.03796 219.386 10.4682 220.032 12.0413C220.677 13.6144 221.007 15.2995 221 17.0001Z" fill="currentColor"/>
<path opacity="0.2" d="M250 19V24C250 24.5304 249.789 25.0391 249.414 25.4142C249.039 25.7893 248.53 26 248 26H246C245.47 26 244.961 25.7893 244.586 25.4142C244.211 25.0391 244 24.5304 244 24V17H248C248.53 17 249.039 17.2107 249.414 17.5858C249.789 17.9609 250 18.4696 250 19ZM264 17C263.47 17 262.961 17.2107 262.586 17.5858C262.211 17.9609 262 18.4696 262 19V24C262 24.5304 262.211 25.0391 262.586 25.4142C262.961 25.7893 263.47 26 264 26H266C266.53 26 267.039 25.7893 267.414 25.4142C267.789 25.0391 268 24.5304 268 24V17H264Z" fill="currentColor"/>
<path d="M265.236 7.83253C263.42 6.00577 261.103 4.75925 258.577 4.25094C256.052 3.74263 253.433 3.9954 251.051 4.97723C248.67 5.95906 246.633 7.62575 245.2 9.7661C243.767 11.9064 243.001 14.4241 243 17V24C243 24.7957 243.316 25.5587 243.879 26.1214C244.441 26.684 245.204 27 246 27H248C248.796 27 249.559 26.684 250.121 26.1214C250.684 25.5587 251 24.7957 251 24V19C251 18.2044 250.684 17.4413 250.121 16.8787C249.559 16.3161 248.796 16 248 16H245.045C245.294 13.267 246.557 10.726 248.583 8.87581C250.61 7.02561 253.256 5.9999 256 6.00003H256.084C258.817 6.01158 261.447 7.04341 263.458 8.89327C265.47 10.7431 266.719 13.2777 266.959 16H264C263.204 16 262.441 16.3161 261.879 16.8787C261.316 17.4413 261 18.2044 261 19V24C261 24.7957 261.316 25.5587 261.879 26.1214C262.441 26.684 263.204 27 264 27H266C266.796 27 267.559 26.684 268.121 26.1214C268.684 25.5587 269 24.7957 269 24V17C269.007 15.2995 268.677 13.6144 268.032 12.0413C267.386 10.4681 266.436 9.03792 265.236 7.83253ZM248 18C248.265 18 248.52 18.1054 248.707 18.2929C248.895 18.4805 249 18.7348 249 19V24C249 24.2653 248.895 24.5196 248.707 24.7071C248.52 24.8947 248.265 25 248 25H246C245.735 25 245.48 24.8947 245.293 24.7071C245.105 24.5196 245 24.2653 245 24V18H248ZM267 24C267 24.2653 266.895 24.5196 266.707 24.7071C266.52 24.8947 266.265 25 266 25H264C263.735 25 263.48 24.8947 263.293 24.7071C263.105 24.5196 263 24.2653 263 24V19C263 18.7348 263.105 18.4805 263.293 18.2929C263.48 18.1054 263.735 18 264 18H267V24Z" fill="currentColor"/>
</g>
<defs>
<clipPath id="clip0_17_16849">
<rect width="272" height="32" rx="5" fill="white"/>
</clipPath>
</defs>
</svg>
