<svg width="272" height="32" viewBox="0 0 272 32" fill="none" xmlns="http://www.w3.org/2000/svg">
<g clip-path="url(#clip0_17_16765)">
<path d="M23.3925 14.355L26.74 10.6725C26.9146 10.4757 27.0046 10.2179 26.9905 9.95516C26.9763 9.6924 26.8592 9.4458 26.6645 9.26883C26.4697 9.09185 26.2131 8.99877 25.9502 9.00975C25.6873 9.02074 25.4393 9.13491 25.26 9.32751L22.6912 12.1525L20.5412 5.39376C20.4136 4.98857 20.1598 4.6348 19.8168 4.38406C19.4739 4.13333 19.0598 3.99876 18.635 4.00001H13.3637C12.9389 3.99876 12.5248 4.13333 12.1819 4.38406C11.839 4.6348 11.5851 4.98857 11.4575 5.39376L5.09373 25.3938C4.99837 25.6936 4.97507 26.0116 5.02574 26.3221C5.07642 26.6326 5.19962 26.9268 5.38535 27.1807C5.57108 27.4347 5.81409 27.6412 6.09464 27.7835C6.3752 27.9259 6.68538 28.0001 6.99998 28H25C25.3146 28.0001 25.6248 27.9259 25.9053 27.7835C26.1859 27.6412 26.4289 27.4347 26.6146 27.1807C26.8003 26.9268 26.9235 26.6326 26.9742 26.3221C27.0249 26.0116 27.0016 25.6936 26.9062 25.3938L23.3925 14.355ZM23.09 20H18.26L21.8375 16.065L23.09 20ZM13.3637 6.00001H18.635L21.135 13.8625L15.5575 20H8.90873L13.3637 6.00001ZM6.99998 26L8.27248 22H23.7262L25 26H6.99998Z" fill="currentColor"/>
<path d="M70.8288 14.2313L74.375 10.3363C74.4192 10.287 74.4532 10.2295 74.4751 10.1672C74.4971 10.1048 74.5065 10.0386 74.5029 9.9726C74.4993 9.90656 74.4828 9.84187 74.4542 9.78222C74.4256 9.72258 74.3855 9.66916 74.3363 9.625C74.287 9.58084 74.2295 9.54682 74.1672 9.52487C74.1048 9.50292 74.0386 9.49347 73.9726 9.49707C73.9066 9.50067 73.8419 9.51724 73.7822 9.54584C73.7226 9.57444 73.6692 9.61451 73.625 9.66375L70.4775 13.125L68.065 5.54C67.9676 5.23752 67.7765 4.97381 67.5195 4.7869C67.2625 4.59998 66.9528 4.49952 66.635 4.5H61.365C61.0466 4.49986 60.7364 4.60105 60.4793 4.78891C60.2222 4.97678 60.0316 5.24159 59.935 5.545L53.5725 25.545C53.501 25.7697 53.4834 26.0081 53.5213 26.2408C53.5592 26.4736 53.6513 26.6941 53.7904 26.8846C53.9295 27.075 54.1115 27.23 54.3216 27.3369C54.5318 27.4438 54.7642 27.4997 55 27.5H73C73.2359 27.4999 73.4685 27.4442 73.6788 27.3373C73.8891 27.2305 74.0713 27.0755 74.2105 26.8851C74.3497 26.6946 74.442 26.474 74.4799 26.2411C74.5178 26.0083 74.5003 25.7698 74.4288 25.545L70.8288 14.2313ZM71.7738 20.5H65.125L70.0463 15.0863L71.7738 20.5ZM60.8875 5.84875C60.9197 5.7474 60.9833 5.65894 61.0692 5.59623C61.155 5.53351 61.2587 5.4998 61.365 5.5H66.635C66.7413 5.4998 66.845 5.53351 66.9308 5.59623C67.0167 5.65894 67.0803 5.7474 67.1125 5.84875L69.7013 13.985L63.7788 20.5H56.2263L60.8875 5.84875ZM73.4025 26.295C73.3562 26.3584 73.2956 26.4099 73.2257 26.4455C73.1558 26.4812 73.0785 26.4998 73 26.5H55C54.9214 26.5 54.8439 26.4814 54.7739 26.4458C54.7038 26.4102 54.6431 26.3586 54.5967 26.2951C54.5503 26.2317 54.5196 26.1582 54.5069 26.0807C54.4942 26.0031 54.5 25.9237 54.5238 25.8488L55.9088 21.5H72.0913L73.475 25.8488C73.4988 25.9236 73.5047 26.003 73.4921 26.0805C73.4795 26.1581 73.4488 26.2315 73.4025 26.295Z" fill="currentColor"/>
<path d="M122.666 25.4688L119.11 14.2925L122.554 10.5C122.666 10.3502 122.719 10.1637 122.7 9.97727C122.682 9.79081 122.595 9.61788 122.456 9.49249C122.317 9.3671 122.136 9.29834 121.948 9.29973C121.761 9.30112 121.581 9.37257 121.444 9.50001L118.585 12.6463L116.302 5.46876C116.191 5.11437 115.969 4.80496 115.669 4.5857C115.369 4.36644 115.007 4.24882 114.635 4.25001H109.365C108.993 4.24882 108.631 4.36644 108.331 4.5857C108.031 4.80496 107.809 5.11437 107.697 5.46876L101.334 25.4688C101.25 25.731 101.23 26.0092 101.274 26.2809C101.318 26.5526 101.426 26.81 101.588 27.0322C101.75 27.2545 101.963 27.4353 102.208 27.56C102.453 27.6847 102.725 27.7498 103 27.75H121C121.275 27.75 121.547 27.6851 121.792 27.5604C122.038 27.4358 122.25 27.255 122.413 27.0327C122.575 26.8104 122.683 26.553 122.727 26.2812C122.772 26.0095 122.751 25.7311 122.667 25.4688H122.666ZM119.431 20.25H113.695L117.945 15.5763L119.431 20.25ZM109.125 5.92376C109.141 5.873 109.173 5.82876 109.216 5.7975C109.26 5.76624 109.312 5.7496 109.365 5.75001H114.635C114.688 5.7496 114.74 5.76624 114.784 5.7975C114.827 5.82876 114.859 5.873 114.875 5.92376L117.42 13.9238L111.67 20.25H104.569L109.125 5.92376ZM121.2 26.1475C121.177 26.1795 121.147 26.2055 121.113 26.2233C121.078 26.2412 121.039 26.2503 121 26.25H103C102.961 26.2499 102.922 26.2406 102.887 26.2227C102.852 26.2048 102.822 26.1789 102.798 26.1471C102.775 26.1154 102.76 26.0786 102.754 26.0398C102.748 26.0009 102.751 25.9612 102.762 25.9238L104.091 21.75H119.909L121.236 25.9238C121.249 25.9612 121.252 26.0011 121.246 26.0401C121.24 26.0791 121.224 26.116 121.2 26.1475Z" fill="currentColor"/>
<path d="M171.381 25.2425L167.956 14.4775L171.11 11.0088C171.372 10.7135 171.507 10.3269 171.486 9.93274C171.465 9.5386 171.289 9.1687 170.997 8.90324C170.705 8.63778 170.32 8.49815 169.925 8.51463C169.531 8.5311 169.159 8.70236 168.89 8.99126L166.905 11.1738L165.018 5.24251C164.858 4.73607 164.541 4.29388 164.112 3.98042C163.684 3.66696 163.166 3.49864 162.635 3.50001H157.364C156.833 3.49864 156.315 3.66696 155.887 3.98042C155.458 4.29388 155.141 4.73607 154.981 5.24251L148.618 25.2425C148.498 25.6172 148.469 26.0147 148.533 26.4028C148.596 26.7909 148.75 27.1585 148.982 27.4759C149.214 27.7932 149.518 28.0514 149.869 28.2293C150.219 28.4073 150.607 28.5 151 28.5H169C169.393 28.5 169.781 28.4073 170.131 28.2293C170.482 28.0514 170.786 27.7932 171.018 27.4759C171.25 27.1585 171.404 26.7909 171.467 26.4028C171.531 26.0147 171.502 25.6172 171.383 25.2425H171.381ZM166.406 19.5H163.39L165.625 17.0425L166.406 19.5ZM157.729 6.50001H162.27L164.573 13.7388L159.336 19.5H153.593L157.729 6.50001ZM151.684 25.5L152.638 22.5H167.361L168.315 25.5H151.684Z" fill="currentColor"/>
<path d="M215.392 14.355L218.74 10.6725C218.915 10.4757 219.005 10.2179 218.99 9.95516C218.976 9.6924 218.859 9.4458 218.664 9.26883C218.47 9.09185 218.213 8.99877 217.95 9.00975C217.687 9.02074 217.439 9.13491 217.26 9.32751L214.691 12.1525L212.541 5.39376C212.414 4.98857 212.16 4.6348 211.817 4.38406C211.474 4.13333 211.06 3.99876 210.635 4.00001H205.364C204.939 3.99876 204.525 4.13333 204.182 4.38406C203.839 4.6348 203.585 4.98857 203.457 5.39376L197.094 25.3938C196.998 25.6936 196.975 26.0116 197.026 26.3221C197.076 26.6326 197.2 26.9268 197.385 27.1807C197.571 27.4347 197.814 27.6412 198.095 27.7835C198.375 27.9259 198.685 28.0001 199 28H217C217.315 28.0001 217.625 27.9259 217.905 27.7835C218.186 27.6412 218.429 27.4347 218.615 27.1807C218.8 26.9268 218.924 26.6326 218.974 26.3221C219.025 26.0116 219.002 25.6936 218.906 25.3938L215.392 14.355ZM200.909 20L205.364 6.00001H210.635L213.135 13.8625L207.557 20H200.909ZM210.26 20L213.837 16.065L215.087 20H210.26Z" fill="currentColor"/>
<path opacity="0.2" d="M265 27H247C246.843 27.0002 246.687 26.9631 246.547 26.892C246.407 26.8208 246.285 26.7175 246.192 26.5904C246.099 26.4634 246.037 26.3162 246.012 26.1608C245.987 26.0054 245.998 25.8462 246.046 25.6963L247.546 21H264.458L265.958 25.6963C266.005 25.8465 266.017 26.006 265.992 26.1617C265.966 26.3174 265.904 26.4648 265.811 26.5919C265.717 26.7191 265.595 26.8223 265.454 26.8933C265.313 26.9642 265.158 27.0007 265 27Z" fill="currentColor"/>
<path d="M263.392 14.355L266.74 10.6725C266.915 10.4757 267.005 10.2179 266.99 9.95516C266.976 9.6924 266.859 9.4458 266.664 9.26883C266.47 9.09185 266.213 8.99877 265.95 9.00975C265.687 9.02074 265.439 9.13491 265.26 9.32751L262.691 12.1525L260.541 5.39376C260.414 4.98857 260.16 4.6348 259.817 4.38406C259.474 4.13333 259.06 3.99876 258.635 4.00001H253.364C252.939 3.99876 252.525 4.13333 252.182 4.38406C251.839 4.6348 251.585 4.98857 251.457 5.39376L245.094 25.3938C244.998 25.6936 244.975 26.0116 245.026 26.3221C245.076 26.6326 245.2 26.9268 245.385 27.1807C245.571 27.4347 245.814 27.6412 246.095 27.7835C246.375 27.9259 246.685 28.0001 247 28H265C265.315 28.0001 265.625 27.9259 265.905 27.7835C266.186 27.6412 266.429 27.4347 266.615 27.1807C266.8 26.9268 266.924 26.6326 266.974 26.3221C267.025 26.0116 267.002 25.6936 266.906 25.3938L263.392 14.355ZM263.09 20H258.26L261.837 16.065L263.09 20ZM253.364 6.00001H258.635L261.135 13.8625L255.557 20H248.909L253.364 6.00001ZM247 26L248.272 22H263.726L265 26H247Z" fill="currentColor"/>
</g>
<defs>
<clipPath id="clip0_17_16765">
<rect width="272" height="32" rx="5" fill="white"/>
</clipPath>
</defs>
</svg>
