<svg width="272" height="32" viewBox="0 0 272 32" fill="none" xmlns="http://www.w3.org/2000/svg">
<g clip-path="url(#clip0_17_16737)">
<path d="M26.74 26.3274L6.74001 4.32739C6.65219 4.22839 6.5456 4.14782 6.42641 4.09032C6.30722 4.03283 6.1778 3.99957 6.04566 3.99246C5.91352 3.98535 5.78129 4.00454 5.65662 4.04891C5.53195 4.09329 5.41733 4.16196 5.3194 4.25096C5.22146 4.33996 5.14217 4.44751 5.08611 4.56738C5.03005 4.68725 4.99834 4.81705 4.99282 4.94927C4.98729 5.08149 5.00806 5.21348 5.05393 5.33761C5.09979 5.46174 5.16984 5.57553 5.26001 5.67239L10 10.8861V15.9999C10.0001 17.0767 10.2901 18.1337 10.8395 19.0599C11.3888 19.9861 12.1773 20.7474 13.1222 21.2639C14.0671 21.7804 15.1336 22.0331 16.2098 21.9954C17.286 21.9578 18.3323 21.6312 19.2388 21.0499L20.5988 22.5499C19.4001 23.392 17.9932 23.8888 16.5315 23.9861C15.0699 24.0834 13.6095 23.7776 12.3098 23.1018C11.01 22.4261 9.92078 21.4065 9.1608 20.1541C8.40082 18.9018 7.99929 17.4648 8.00001 15.9999C8.00001 15.7347 7.89465 15.4803 7.70711 15.2928C7.51958 15.1052 7.26522 14.9999 7.00001 14.9999C6.73479 14.9999 6.48044 15.1052 6.2929 15.2928C6.10536 15.4803 6.00001 15.7347 6.00001 15.9999C6.00305 18.4781 6.92491 20.8671 8.58731 22.705C10.2497 24.5428 12.5346 25.699 15 25.9499V28.9999C15 29.2651 15.1054 29.5195 15.2929 29.707C15.4804 29.8945 15.7348 29.9999 16 29.9999C16.2652 29.9999 16.5196 29.8945 16.7071 29.707C16.8947 29.5195 17 29.2651 17 28.9999V25.9486C18.7935 25.7702 20.5051 25.1088 21.9525 24.0349L25.26 27.6724C25.3478 27.7714 25.4544 27.852 25.5736 27.9095C25.6928 27.9669 25.8222 28.0002 25.9544 28.0073C26.0865 28.0144 26.2187 27.9952 26.3434 27.9509C26.4681 27.9065 26.5827 27.8378 26.6806 27.7488C26.7786 27.6598 26.8578 27.5523 26.9139 27.4324C26.97 27.3125 27.0017 27.1827 27.0072 27.0505C27.0127 26.9183 26.992 26.7863 26.9461 26.6622C26.9002 26.538 26.8302 26.4242 26.74 26.3274ZM16 19.9999C14.9391 19.9999 13.9217 19.5785 13.1716 18.8283C12.4214 18.0782 12 17.0608 12 15.9999V13.0861L17.865 19.5386C17.29 19.8416 16.6499 19.9999 16 19.9999ZM10.895 4.84739C11.581 3.73655 12.6106 2.87979 13.8276 2.40708C15.0446 1.93438 16.3826 1.87153 17.6385 2.22807C18.8945 2.58461 19.9999 3.34109 20.787 4.38272C21.5741 5.42436 22 6.6943 22 7.99989V15.5536C22 15.8189 21.8947 16.0732 21.7071 16.2607C21.5196 16.4483 21.2652 16.5536 21 16.5536C20.7348 16.5536 20.4804 16.4483 20.2929 16.2607C20.1054 16.0732 20 15.8189 20 15.5536V7.99989C20.0005 7.12903 19.7168 6.28181 19.1919 5.58689C18.667 4.89198 17.9297 4.38733 17.0919 4.1496C16.2542 3.91187 15.3617 3.95405 14.5501 4.26972C13.7384 4.5854 13.052 5.15732 12.595 5.89864C12.5284 6.01522 12.439 6.11721 12.3322 6.19851C12.2254 6.27981 12.1032 6.33876 11.9731 6.37185C11.843 6.40494 11.7075 6.41149 11.5748 6.39111C11.4421 6.37073 11.3149 6.32383 11.2007 6.25322C11.0865 6.1826 10.9877 6.08972 10.9102 5.9801C10.8327 5.87048 10.778 5.74638 10.7495 5.61518C10.721 5.48399 10.7191 5.34839 10.7441 5.21648C10.7691 5.08457 10.8205 4.95904 10.895 4.84739ZM23.455 18.9086C23.8168 17.9816 24.0017 16.995 24 15.9999C24 15.7347 24.1054 15.4803 24.2929 15.2928C24.4804 15.1052 24.7348 14.9999 25 14.9999C25.2652 14.9999 25.5196 15.1052 25.7071 15.2928C25.8947 15.4803 26 15.7347 26 15.9999C26.0018 17.244 25.7703 18.4774 25.3175 19.6361C25.2717 19.7611 25.2015 19.8758 25.1108 19.9733C25.0202 20.0708 24.911 20.1492 24.7896 20.2039C24.6683 20.2586 24.5372 20.2886 24.4041 20.292C24.2711 20.2954 24.1386 20.2723 24.0146 20.2238C23.8906 20.1754 23.7775 20.1027 23.682 20.01C23.5865 19.9172 23.5104 19.8064 23.4583 19.6839C23.4062 19.5614 23.379 19.4297 23.3785 19.2966C23.3779 19.1635 23.4039 19.0316 23.455 18.9086Z" fill="currentColor"/>
<path d="M74.375 26.6638L54.375 4.6638C54.2858 4.56434 54.1608 4.50438 54.0274 4.49712C53.894 4.48985 53.7632 4.53587 53.6638 4.62505C53.5643 4.71423 53.5044 4.83926 53.4971 4.97265C53.4898 5.10603 53.5358 5.23684 53.625 5.3363L58.5 10.6938V16C58.5 17.0231 58.7853 18.0258 59.3239 18.8956C59.8625 19.7653 60.6329 20.4677 61.5487 20.9236C62.4645 21.3796 63.4893 21.5711 64.508 21.4766C65.5266 21.3821 66.4987 21.0054 67.315 20.3888L69.3363 22.6138C68.0879 23.6206 66.5802 24.2538 64.9873 24.44C63.3943 24.6263 61.7812 24.3581 60.3343 23.6665C58.8873 22.9748 57.6655 21.8879 56.8101 20.5313C55.9547 19.1747 55.5005 17.6038 55.5 16C55.5 15.8674 55.4473 15.7403 55.3536 15.6465C55.2598 15.5527 55.1326 15.5 55 15.5C54.8674 15.5 54.7402 15.5527 54.6465 15.6465C54.5527 15.7403 54.5 15.8674 54.5 16C54.5029 18.4321 55.4373 20.7707 57.1113 22.5351C58.7852 24.2995 61.0714 25.3556 63.5 25.4863V29C63.5 29.1327 63.5527 29.2598 63.6465 29.3536C63.7402 29.4474 63.8674 29.5 64 29.5C64.1326 29.5 64.2598 29.4474 64.3536 29.3536C64.4473 29.2598 64.5 29.1327 64.5 29V25.4863C66.5167 25.3837 68.4477 24.6391 70.0113 23.3613L73.625 27.3363C73.6689 27.3858 73.7222 27.4261 73.7818 27.4548C73.8414 27.4836 73.9061 27.5002 73.9722 27.5038C74.0383 27.5073 74.1044 27.4977 74.1667 27.4755C74.229 27.4533 74.2864 27.419 74.3353 27.3745C74.3843 27.33 74.4239 27.2762 74.452 27.2163C74.48 27.1564 74.4958 27.0915 74.4986 27.0254C74.5014 26.9592 74.491 26.8932 74.4681 26.8312C74.4451 26.7691 74.4101 26.7122 74.365 26.6638H74.375ZM64 20.5C62.8065 20.5 61.6619 20.0259 60.818 19.182C59.9741 18.3381 59.5 17.1935 59.5 16V11.7938L66.6375 19.645C65.8706 20.2013 64.9474 20.5006 64 20.5ZM59.32 5.11005C59.9488 4.09157 60.8926 3.30601 62.0083 2.87256C63.124 2.43912 64.3506 2.38147 65.5021 2.70834C66.6535 3.03522 67.6668 3.72879 68.3884 4.6838C69.1099 5.63881 69.5002 6.80312 69.5 8.00005V15.5538C69.5 15.6864 69.4473 15.8136 69.3536 15.9074C69.2598 16.0011 69.1326 16.0538 69 16.0538C68.8674 16.0538 68.7402 16.0011 68.6465 15.9074C68.5527 15.8136 68.5 15.6864 68.5 15.5538V8.00005C68.5003 7.02054 68.181 6.06768 67.5905 5.28614C67.0001 4.50459 66.1708 3.93704 65.2284 3.66965C64.2861 3.40226 63.2823 3.44963 62.3694 3.80456C61.4564 4.1595 60.6842 4.80263 60.17 5.6363C60.1363 5.69379 60.0914 5.74395 60.038 5.78384C59.9846 5.82373 59.9237 5.85253 59.859 5.86857C59.7943 5.8846 59.7271 5.88753 59.6612 5.87719C59.5954 5.86685 59.5323 5.84345 59.4756 5.80836C59.4189 5.77327 59.3698 5.72721 59.3312 5.67287C59.2926 5.61853 59.2652 5.55703 59.2507 5.49196C59.2363 5.4269 59.2349 5.3596 59.2468 5.29401C59.2587 5.22842 59.2836 5.16588 59.32 5.11005ZM71.9213 19.0913C72.3053 18.106 72.5016 17.0575 72.5 16C72.5 15.8674 72.5527 15.7403 72.6465 15.6465C72.7402 15.5527 72.8674 15.5 73 15.5C73.1326 15.5 73.2598 15.5527 73.3536 15.6465C73.4473 15.7403 73.5 15.8674 73.5 16C73.502 17.1821 73.2824 18.354 72.8525 19.455C72.8158 19.5487 72.7516 19.6292 72.6684 19.6858C72.5853 19.7425 72.4869 19.7727 72.3863 19.7725C72.3242 19.773 72.2627 19.7615 72.205 19.7388C72.0815 19.6905 71.9823 19.5952 71.9291 19.4738C71.8759 19.3524 71.8731 19.2148 71.9213 19.0913Z" fill="currentColor"/>
<path d="M122.555 26.5001L102.555 4.50009C102.418 4.37265 102.238 4.3012 102.05 4.29981C101.863 4.29842 101.682 4.36718 101.543 4.49257C101.404 4.61796 101.316 4.79089 101.298 4.97735C101.28 5.1638 101.333 5.35028 101.445 5.50009L106.25 10.7901V16.0001C106.25 17.0501 106.538 18.0801 107.082 18.9782C107.625 19.8764 108.405 20.6085 109.335 21.0951C110.266 21.5817 111.312 21.8043 112.36 21.7386C113.408 21.6729 114.418 21.3216 115.28 20.7226L116.971 22.5838C115.747 23.5084 114.289 24.0732 112.761 24.2147C111.233 24.3562 109.696 24.0688 108.323 23.3848C106.949 22.7009 105.794 21.6475 104.986 20.3429C104.178 19.0384 103.75 17.5345 103.75 16.0001C103.75 15.8012 103.671 15.6104 103.53 15.4698C103.39 15.3291 103.199 15.2501 103 15.2501C102.801 15.2501 102.61 15.3291 102.47 15.4698C102.329 15.6104 102.25 15.8012 102.25 16.0001C102.253 18.455 103.181 20.8185 104.849 22.6196C106.517 24.4208 108.803 25.5274 111.25 25.7188V29.0001C111.25 29.199 111.329 29.3898 111.47 29.5304C111.61 29.6711 111.801 29.7501 112 29.7501C112.199 29.7501 112.39 29.6711 112.53 29.5304C112.671 29.3898 112.75 29.199 112.75 29.0001V25.7188C114.655 25.5742 116.475 24.8706 117.983 23.6963L121.445 27.5001C121.579 27.6473 121.766 27.7352 121.965 27.7446C122.163 27.754 122.358 27.684 122.505 27.5501C122.652 27.4162 122.74 27.2292 122.75 27.0304C122.759 26.8317 122.689 26.6373 122.555 26.4901V26.5001ZM112 20.2501C110.873 20.2501 109.792 19.8023 108.995 19.0053C108.198 18.2083 107.75 17.1273 107.75 16.0001V12.4401L114.259 19.6001C113.582 20.0253 112.799 20.2506 112 20.2501ZM107.108 4.97884C107.765 3.91418 108.752 3.09302 109.918 2.63995C111.084 2.18687 112.367 2.12662 113.57 2.46833C114.774 2.81004 115.833 3.53506 116.588 4.53338C117.342 5.5317 117.75 6.74883 117.75 8.00009V15.5538C117.75 15.7528 117.671 15.9435 117.53 16.0842C117.39 16.2248 117.199 16.3038 117 16.3038C116.801 16.3038 116.61 16.2248 116.47 16.0842C116.329 15.9435 116.25 15.7528 116.25 15.5538V8.00009C116.25 7.07491 115.949 6.17487 115.391 5.43664C114.834 4.69841 114.05 4.16231 113.16 3.90975C112.27 3.65719 111.322 3.70196 110.46 4.03727C109.597 4.37257 108.868 4.9801 108.383 5.76759C108.332 5.85467 108.265 5.9308 108.185 5.99143C108.105 6.05207 108.014 6.09599 107.916 6.12058C107.819 6.14517 107.717 6.14992 107.618 6.13457C107.519 6.11922 107.423 6.08406 107.338 6.0312C107.253 5.97833 107.179 5.90883 107.12 5.82682C107.062 5.74482 107.021 5.65198 107 5.55382C106.978 5.45566 106.977 5.35418 106.995 5.2554C107.014 5.15663 107.052 5.06258 107.108 4.97884ZM119.688 19.0001C120.061 18.0441 120.252 17.0265 120.25 16.0001C120.25 15.8012 120.329 15.6104 120.47 15.4698C120.61 15.3291 120.801 15.2501 121 15.2501C121.199 15.2501 121.39 15.3291 121.53 15.4698C121.671 15.6104 121.75 15.8012 121.75 16.0001C121.752 17.2133 121.526 18.4162 121.085 19.5463C121.03 19.687 120.934 19.8079 120.809 19.8931C120.685 19.9783 120.537 20.0238 120.386 20.0238C120.264 20.0239 120.144 19.9942 120.036 19.9371C119.928 19.8801 119.835 19.7976 119.766 19.6966C119.697 19.5957 119.654 19.4795 119.641 19.3581C119.627 19.2367 119.643 19.1138 119.688 19.0001Z" fill="currentColor"/>
<path d="M151.11 3.99125C150.978 3.84276 150.818 3.72189 150.64 3.63565C150.461 3.54942 150.267 3.49952 150.068 3.48885C149.87 3.47819 149.672 3.50697 149.485 3.57353C149.298 3.6401 149.126 3.74311 148.979 3.87661C148.832 4.01011 148.713 4.17143 148.629 4.35124C148.545 4.53104 148.498 4.72575 148.489 4.92407C148.481 5.1224 148.512 5.32039 148.581 5.50658C148.65 5.69278 148.755 5.86346 148.89 6.00875L153.5 11.08V15C153.499 16.0718 153.763 17.1273 154.269 18.0723C154.775 19.0174 155.506 19.8227 156.398 20.4166C157.291 21.0105 158.316 21.3746 159.383 21.4764C160.45 21.5782 161.525 21.4145 162.514 21L163.921 22.5487C162.711 23.1791 161.365 23.5055 160 23.5C157.746 23.4977 155.586 22.6014 153.992 21.0078C152.399 19.4143 151.502 17.2536 151.5 15C151.5 14.6022 151.342 14.2206 151.061 13.9393C150.779 13.658 150.398 13.5 150 13.5C149.602 13.5 149.221 13.658 148.939 13.9393C148.658 14.2206 148.5 14.6022 148.5 15C148.504 17.7893 149.519 20.4825 151.358 22.5795C153.197 24.6766 155.735 26.035 158.5 26.4025V29C158.5 29.3978 158.658 29.7794 158.939 30.0607C159.221 30.342 159.602 30.5 160 30.5C160.398 30.5 160.779 30.342 161.061 30.0607C161.342 29.7794 161.5 29.3978 161.5 29V26.4037C163.092 26.2004 164.623 25.66 165.99 24.8187L168.89 28.0087C169.159 28.2977 169.531 28.4689 169.925 28.4854C170.32 28.5019 170.705 28.3622 170.997 28.0968C171.289 27.8313 171.465 27.4614 171.486 27.0673C171.507 26.6731 171.372 26.2865 171.11 25.9912L151.11 3.99125ZM160 18.5C159.072 18.5 158.182 18.1313 157.525 17.4749C156.869 16.8185 156.5 15.9283 156.5 15V14.375L160.238 18.4862C160.159 18.5 160.08 18.5 160 18.5ZM155.334 5.65875C155.19 5.52338 155.074 5.36094 154.993 5.18075C154.912 5.00055 154.868 4.80616 154.862 4.60871C154.857 4.41127 154.89 4.21467 154.961 4.0302C155.031 3.84572 155.138 3.67701 155.274 3.53375C156.167 2.58718 157.325 1.93078 158.596 1.64956C159.867 1.36835 161.193 1.47528 162.403 1.95651C163.612 2.43774 164.65 3.27108 165.38 4.34861C166.111 5.42614 166.501 6.69819 166.5 8V14.0675C166.5 14.4653 166.342 14.8469 166.061 15.1282C165.779 15.4095 165.398 15.5675 165 15.5675C164.602 15.5675 164.221 15.4095 163.939 15.1282C163.658 14.8469 163.5 14.4653 163.5 14.0675V8C163.5 7.29921 163.29 6.61457 162.896 6.03471C162.502 5.45486 161.944 5.00649 161.293 4.74766C160.641 4.48884 159.927 4.43147 159.243 4.58298C158.559 4.7345 157.936 5.08792 157.455 5.5975C157.32 5.74087 157.158 5.85619 156.978 5.93687C156.798 6.01755 156.604 6.062 156.407 6.06769C156.21 6.07337 156.014 6.04019 155.83 5.97002C155.646 5.89985 155.477 5.79408 155.334 5.65875ZM167.875 18.1975C168.289 17.1823 168.501 16.0963 168.5 15C168.5 14.6022 168.658 14.2206 168.939 13.9393C169.221 13.658 169.602 13.5 170 13.5C170.398 13.5 170.779 13.658 171.061 13.9393C171.342 14.2206 171.5 14.6022 171.5 15C171.502 16.4831 171.216 17.9524 170.658 19.3262C170.498 19.6801 170.208 19.9585 169.848 20.1031C169.488 20.2476 169.086 20.247 168.727 20.1014C168.367 19.9558 168.078 19.6766 167.92 19.3222C167.762 18.9679 167.747 18.5661 167.879 18.2012L167.875 18.1975Z" fill="currentColor"/>
<path d="M218.673 27.7399C218.476 27.9182 218.217 28.0113 217.952 27.9986C217.687 27.986 217.438 27.8686 217.26 27.6724L213.953 24.0349C212.505 25.1088 210.794 25.7702 209 25.9486V28.9999C209 29.2651 208.895 29.5195 208.707 29.707C208.52 29.8945 208.265 29.9999 208 29.9999C207.735 29.9999 207.48 29.8945 207.293 29.707C207.105 29.5195 207 29.2651 207 28.9999V25.9499C204.535 25.699 202.25 24.5428 200.587 22.705C198.925 20.8671 198.003 18.4781 198 15.9999C198 15.7347 198.105 15.4803 198.293 15.2928C198.48 15.1052 198.735 14.9999 199 14.9999C199.265 14.9999 199.52 15.1052 199.707 15.2928C199.895 15.4803 200 15.7347 200 15.9999C200 17.4644 200.402 18.9007 201.163 20.1523C201.923 21.404 203.012 22.4229 204.312 23.098C205.612 23.7731 207.072 24.0786 208.533 23.981C209.994 23.8835 211.4 23.3867 212.599 22.5449L211.239 21.0449C210.333 21.6259 209.287 21.9525 208.211 21.9904C207.135 22.0282 206.069 21.776 205.124 21.2601C204.18 20.7442 203.391 19.9836 202.841 19.0582C202.292 18.1327 202.001 17.0763 202 15.9999V10.8861L197.26 5.67239C197.17 5.57553 197.1 5.46174 197.054 5.33761C197.008 5.21348 196.987 5.08149 196.993 4.94927C196.998 4.81705 197.03 4.68725 197.086 4.56738C197.142 4.44751 197.221 4.33996 197.319 4.25096C197.417 4.16196 197.532 4.09329 197.657 4.04891C197.781 4.00454 197.914 3.98535 198.046 3.99246C198.178 3.99957 198.307 4.03283 198.426 4.09032C198.546 4.14782 198.652 4.22839 198.74 4.32739L218.74 26.3274C218.918 26.5237 219.011 26.7827 218.999 27.0476C218.986 27.3125 218.869 27.5615 218.673 27.7399ZM212.26 16.2261C212.396 16.3755 212.574 16.4803 212.77 16.5267C212.966 16.5731 213.172 16.5591 213.361 16.4863C213.549 16.4135 213.711 16.2855 213.825 16.119C213.939 15.9526 214 15.7555 214 15.5536V7.99989C214 6.6943 213.574 5.42436 212.787 4.38272C212 3.34109 210.895 2.58461 209.639 2.22807C208.383 1.87153 207.045 1.93438 205.828 2.40708C204.611 2.87979 203.581 3.73655 202.895 4.84739C202.78 5.03152 202.728 5.24807 202.747 5.46432C202.766 5.68058 202.855 5.8848 203 6.04614L212.26 16.2261ZM216.023 20.2049C216.145 20.2526 216.275 20.2757 216.407 20.273C216.538 20.2702 216.668 20.2416 216.788 20.1888C216.908 20.1359 217.017 20.06 217.108 19.9651C217.199 19.8703 217.27 19.7585 217.318 19.6361C217.77 18.4774 218.002 17.244 218 15.9999C218 15.7347 217.895 15.4803 217.707 15.2928C217.52 15.1052 217.265 14.9999 217 14.9999C216.735 14.9999 216.48 15.1052 216.293 15.2928C216.105 15.4803 216 15.7347 216 15.9999C216.002 16.995 215.817 17.9816 215.455 18.9086C215.407 19.031 215.384 19.1616 215.386 19.293C215.389 19.4244 215.417 19.554 215.47 19.6744C215.523 19.7948 215.599 19.9036 215.693 19.9946C215.788 20.0857 215.9 20.1571 216.023 20.2049Z" fill="currentColor"/>
<path opacity="0.2" d="M261 8V16C261 17.3261 260.473 18.5979 259.536 19.5355C258.598 20.4732 257.326 21 256 21C254.674 21 253.402 20.4732 252.464 19.5355C251.527 18.5979 251 17.3261 251 16V8C251 6.67392 251.527 5.40215 252.464 4.46447C253.402 3.52678 254.674 3 256 3C257.326 3 258.598 3.52678 259.536 4.46447C260.473 5.40215 261 6.67392 261 8Z" fill="currentColor"/>
<path d="M266.74 26.3274L246.74 4.32739C246.652 4.22839 246.546 4.14782 246.426 4.09032C246.307 4.03283 246.178 3.99957 246.046 3.99246C245.914 3.98535 245.781 4.00454 245.657 4.04891C245.532 4.09329 245.417 4.16196 245.319 4.25096C245.221 4.33996 245.142 4.44751 245.086 4.56738C245.03 4.68725 244.998 4.81705 244.993 4.94927C244.987 5.08149 245.008 5.21348 245.054 5.33761C245.1 5.46174 245.17 5.57553 245.26 5.67239L250 10.8861V15.9999C250 17.0767 250.29 18.1337 250.839 19.0599C251.389 19.9861 252.177 20.7474 253.122 21.2639C254.067 21.7804 255.134 22.0331 256.21 21.9954C257.286 21.9578 258.332 21.6312 259.239 21.0499L260.599 22.5499C259.4 23.392 257.993 23.8888 256.532 23.9861C255.07 24.0834 253.61 23.7776 252.31 23.1018C251.01 22.4261 249.921 21.4065 249.161 20.1541C248.401 18.9018 247.999 17.4648 248 15.9999C248 15.7347 247.895 15.4803 247.707 15.2928C247.52 15.1052 247.265 14.9999 247 14.9999C246.735 14.9999 246.48 15.1052 246.293 15.2928C246.105 15.4803 246 15.7347 246 15.9999C246.003 18.4781 246.925 20.8671 248.587 22.705C250.25 24.5428 252.535 25.699 255 25.9499V28.9999C255 29.2651 255.105 29.5195 255.293 29.707C255.48 29.8945 255.735 29.9999 256 29.9999C256.265 29.9999 256.52 29.8945 256.707 29.707C256.895 29.5195 257 29.2651 257 28.9999V25.9486C258.794 25.7702 260.505 25.1088 261.953 24.0349L265.26 27.6724C265.348 27.7714 265.454 27.852 265.574 27.9095C265.693 27.9669 265.822 28.0002 265.954 28.0073C266.086 28.0144 266.219 27.9952 266.343 27.9509C266.468 27.9065 266.583 27.8378 266.681 27.7488C266.779 27.6598 266.858 27.5523 266.914 27.4324C266.97 27.3125 267.002 27.1827 267.007 27.0505C267.013 26.9183 266.992 26.7863 266.946 26.6622C266.9 26.538 266.83 26.4242 266.74 26.3274ZM256 19.9999C254.939 19.9999 253.922 19.5785 253.172 18.8283C252.421 18.0782 252 17.0608 252 15.9999V13.0861L257.865 19.5386C257.29 19.8416 256.65 19.9999 256 19.9999ZM250.895 4.84739C251.581 3.73655 252.611 2.87979 253.828 2.40708C255.045 1.93438 256.383 1.87153 257.639 2.22807C258.895 2.58461 260 3.34109 260.787 4.38272C261.574 5.42436 262 6.6943 262 7.99989V15.5536C262 15.8189 261.895 16.0732 261.707 16.2607C261.52 16.4483 261.265 16.5536 261 16.5536C260.735 16.5536 260.48 16.4483 260.293 16.2607C260.105 16.0732 260 15.8189 260 15.5536V7.99989C260 7.12903 259.717 6.28181 259.192 5.58689C258.667 4.89198 257.93 4.38733 257.092 4.1496C256.254 3.91187 255.362 3.95405 254.55 4.26972C253.738 4.5854 253.052 5.15732 252.595 5.89864C252.528 6.01522 252.439 6.11721 252.332 6.19851C252.225 6.27981 252.103 6.33876 251.973 6.37185C251.843 6.40494 251.708 6.41149 251.575 6.39111C251.442 6.37073 251.315 6.32383 251.201 6.25322C251.087 6.1826 250.988 6.08972 250.91 5.9801C250.833 5.87048 250.778 5.74638 250.749 5.61518C250.721 5.48399 250.719 5.34839 250.744 5.21648C250.769 5.08457 250.82 4.95904 250.895 4.84739ZM263.455 18.9086C263.817 17.9816 264.002 16.995 264 15.9999C264 15.7347 264.105 15.4803 264.293 15.2928C264.48 15.1052 264.735 14.9999 265 14.9999C265.265 14.9999 265.52 15.1052 265.707 15.2928C265.895 15.4803 266 15.7347 266 15.9999C266.002 17.244 265.77 18.4774 265.318 19.6361C265.272 19.7611 265.201 19.8758 265.111 19.9733C265.02 20.0708 264.911 20.1492 264.79 20.2039C264.668 20.2586 264.537 20.2886 264.404 20.292C264.271 20.2954 264.139 20.2723 264.015 20.2238C263.891 20.1754 263.778 20.1027 263.682 20.01C263.586 19.9172 263.51 19.8064 263.458 19.6839C263.406 19.5614 263.379 19.4297 263.378 19.2966C263.378 19.1635 263.404 19.0316 263.455 18.9086Z" fill="currentColor"/>
</g>
<defs>
<clipPath id="clip0_17_16737">
<rect width="272" height="32" rx="5" fill="white"/>
</clipPath>
</defs>
</svg>
