<svg width="272" height="32" viewBox="0 0 272 32" fill="none" xmlns="http://www.w3.org/2000/svg">
<g clip-path="url(#clip0_17_16639)">
<path d="M11 14C11 13.7348 11.1054 13.4804 11.2929 13.2929C11.4804 13.1054 11.7348 13 12 13H22C22.2652 13 22.5196 13.1054 22.7071 13.2929C22.8946 13.4804 23 13.7348 23 14C23 14.2652 22.8946 14.5196 22.7071 14.7071C22.5196 14.8946 22.2652 15 22 15H12C11.7348 15 11.4804 14.8946 11.2929 14.7071C11.1054 14.5196 11 14.2652 11 14ZM12 19H22C22.2652 19 22.5196 18.8946 22.7071 18.7071C22.8946 18.5196 23 18.2652 23 18C23 17.7348 22.8946 17.4804 22.7071 17.2929C22.5196 17.1054 22.2652 17 22 17H12C11.7348 17 11.4804 17.1054 11.2929 17.2929C11.1054 17.4804 11 17.7348 11 18C11 18.2652 11.1054 18.5196 11.2929 18.7071C11.4804 18.8946 11.7348 19 12 19ZM29 8V23C29 23.7956 28.6839 24.5587 28.1213 25.1213C27.5587 25.6839 26.7956 26 26 26H4C3.20673 26 2.44574 25.6858 1.88353 25.1262C1.32131 24.5665 1.00364 23.807 1 23.0138V11C1 10.7348 1.10536 10.4804 1.29289 10.2929C1.48043 10.1054 1.73478 10 2 10C2.26522 10 2.51957 10.1054 2.70711 10.2929C2.89464 10.4804 3 10.7348 3 11V23C3 23.2652 3.10536 23.5196 3.29289 23.7071C3.48043 23.8946 3.73478 24 4 24C4.26522 24 4.51957 23.8946 4.70711 23.7071C4.89464 23.5196 5 23.2652 5 23V8C5 7.46957 5.21071 6.96086 5.58579 6.58579C5.96086 6.21071 6.46957 6 7 6H27C27.5304 6 28.0391 6.21071 28.4142 6.58579C28.7893 6.96086 29 7.46957 29 8ZM27 8H7V23C7.0005 23.3407 6.94257 23.6789 6.82875 24H26C26.2652 24 26.5196 23.8946 26.7071 23.7071C26.8946 23.5196 27 23.2652 27 23V8Z" fill="currentColor"/>
<path d="M70.5 14C70.5 14.1326 70.4473 14.2598 70.3536 14.3536C70.2598 14.4473 70.1326 14.5 70 14.5H60C59.8674 14.5 59.7402 14.4473 59.6464 14.3536C59.5527 14.2598 59.5 14.1326 59.5 14C59.5 13.8674 59.5527 13.7402 59.6464 13.6464C59.7402 13.5527 59.8674 13.5 60 13.5H70C70.1326 13.5 70.2598 13.5527 70.3536 13.6464C70.4473 13.7402 70.5 13.8674 70.5 14ZM70 17.5H60C59.8674 17.5 59.7402 17.5527 59.6464 17.6464C59.5527 17.7402 59.5 17.8674 59.5 18C59.5 18.1326 59.5527 18.2598 59.6464 18.3536C59.7402 18.4473 59.8674 18.5 60 18.5H70C70.1326 18.5 70.2598 18.4473 70.3536 18.3536C70.4473 18.2598 70.5 18.1326 70.5 18C70.5 17.8674 70.4473 17.7402 70.3536 17.6464C70.2598 17.5527 70.1326 17.5 70 17.5ZM76.5 8V23C76.5 23.663 76.2366 24.2989 75.7678 24.7678C75.2989 25.2366 74.663 25.5 74 25.5H52C51.3387 25.5 50.7043 25.238 50.2358 24.7713C49.7672 24.3046 49.5026 23.6713 49.5 23.01V11C49.5 10.8674 49.5527 10.7402 49.6464 10.6464C49.7402 10.5527 49.8674 10.5 50 10.5C50.1326 10.5 50.2598 10.5527 50.3536 10.6464C50.4473 10.7402 50.5 10.8674 50.5 11V23C50.5 23.3978 50.658 23.7794 50.9393 24.0607C51.2206 24.342 51.6022 24.5 52 24.5C52.3978 24.5 52.7794 24.342 53.0607 24.0607C53.342 23.7794 53.5 23.3978 53.5 23V8C53.5 7.60218 53.658 7.22064 53.9393 6.93934C54.2206 6.65804 54.6022 6.5 55 6.5H75C75.3978 6.5 75.7794 6.65804 76.0607 6.93934C76.342 7.22064 76.5 7.60218 76.5 8ZM75.5 8C75.5 7.86739 75.4473 7.74021 75.3536 7.64645C75.2598 7.55268 75.1326 7.5 75 7.5H55C54.8674 7.5 54.7402 7.55268 54.6464 7.64645C54.5527 7.74021 54.5 7.86739 54.5 8V23C54.5013 23.5411 54.3257 24.0679 54 24.5H74C74.3978 24.5 74.7794 24.342 75.0607 24.0607C75.342 23.7794 75.5 23.3978 75.5 23V8Z" fill="currentColor"/>
<path d="M118.75 14C118.75 14.1989 118.671 14.3897 118.53 14.5303C118.39 14.671 118.199 14.75 118 14.75H108C107.801 14.75 107.61 14.671 107.47 14.5303C107.329 14.3897 107.25 14.1989 107.25 14C107.25 13.8011 107.329 13.6103 107.47 13.4697C107.61 13.329 107.801 13.25 108 13.25H118C118.199 13.25 118.39 13.329 118.53 13.4697C118.671 13.6103 118.75 13.8011 118.75 14ZM118 17.25H108C107.801 17.25 107.61 17.329 107.47 17.4697C107.329 17.6103 107.25 17.8011 107.25 18C107.25 18.1989 107.329 18.3897 107.47 18.5303C107.61 18.671 107.801 18.75 108 18.75H118C118.199 18.75 118.39 18.671 118.53 18.5303C118.671 18.3897 118.75 18.1989 118.75 18C118.75 17.8011 118.671 17.6103 118.53 17.4697C118.39 17.329 118.199 17.25 118 17.25ZM124.75 8V23C124.75 23.7293 124.46 24.4288 123.945 24.9445C123.429 25.4603 122.729 25.75 122 25.75H100C99.2726 25.75 98.5748 25.4618 98.0594 24.9485C97.544 24.4352 97.253 23.7386 97.25 23.0112V11C97.25 10.8011 97.329 10.6103 97.4697 10.4697C97.6103 10.329 97.8011 10.25 98 10.25C98.1989 10.25 98.3897 10.329 98.5303 10.4697C98.671 10.6103 98.75 10.8011 98.75 11V23C98.75 23.3315 98.8817 23.6495 99.1161 23.8839C99.3505 24.1183 99.6685 24.25 100 24.25C100.332 24.25 100.649 24.1183 100.884 23.8839C101.118 23.6495 101.25 23.3315 101.25 23V8C101.25 7.53587 101.434 7.09075 101.763 6.76256C102.091 6.43437 102.536 6.25 103 6.25H123C123.464 6.25 123.909 6.43437 124.237 6.76256C124.566 7.09075 124.75 7.53587 124.75 8ZM123.25 8C123.25 7.9337 123.224 7.87011 123.177 7.82322C123.13 7.77634 123.066 7.75 123 7.75H103C102.934 7.75 102.87 7.77634 102.823 7.82322C102.776 7.87011 102.75 7.9337 102.75 8V23C102.751 23.4347 102.647 23.8633 102.449 24.25H122C122.332 24.25 122.649 24.1183 122.884 23.8839C123.118 23.6495 123.25 23.3315 123.25 23V8Z" fill="currentColor"/>
<path d="M155.5 13.5C155.5 13.1022 155.658 12.7206 155.939 12.4393C156.221 12.158 156.602 12 157 12H166C166.398 12 166.779 12.158 167.061 12.4393C167.342 12.7206 167.5 13.1022 167.5 13.5C167.5 13.8978 167.342 14.2794 167.061 14.5607C166.779 14.842 166.398 15 166 15H157C156.602 15 156.221 14.842 155.939 14.5607C155.658 14.2794 155.5 13.8978 155.5 13.5ZM157 20H166C166.398 20 166.779 19.842 167.061 19.5607C167.342 19.2794 167.5 18.8978 167.5 18.5C167.5 18.1022 167.342 17.7206 167.061 17.4393C166.779 17.158 166.398 17 166 17H157C156.602 17 156.221 17.158 155.939 17.4393C155.658 17.7206 155.5 18.1022 155.5 18.5C155.5 18.8978 155.658 19.2794 155.939 19.5607C156.221 19.842 156.602 20 157 20ZM173.5 8V23C173.5 23.4596 173.409 23.9148 173.234 24.3394C173.058 24.764 172.8 25.1499 172.475 25.4749C172.15 25.7999 171.764 26.0577 171.339 26.2336C170.915 26.4095 170.46 26.5 170 26.5H148.5C147.439 26.5 146.422 26.0786 145.672 25.3284C144.921 24.5783 144.5 23.5609 144.5 22.5V11C144.5 10.6022 144.658 10.2206 144.939 9.93934C145.221 9.65804 145.602 9.5 146 9.5C146.398 9.5 146.779 9.65804 147.061 9.93934C147.342 10.2206 147.5 10.6022 147.5 11V22.5C147.5 22.7652 147.605 23.0196 147.793 23.2071C147.98 23.3946 148.235 23.5 148.5 23.5C148.765 23.5 149.02 23.3946 149.207 23.2071C149.395 23.0196 149.5 22.7652 149.5 22.5V8C149.5 7.33696 149.763 6.70107 150.232 6.23223C150.701 5.76339 151.337 5.5 152 5.5H171C171.663 5.5 172.299 5.76339 172.768 6.23223C173.237 6.70107 173.5 7.33696 173.5 8ZM170.5 8.5H152.5V22.5C152.501 22.8373 152.459 23.1733 152.375 23.5H170C170.133 23.5 170.26 23.4473 170.354 23.3536C170.447 23.2598 170.5 23.1326 170.5 23V8.5Z" fill="currentColor"/>
<path d="M219 6H199C198.47 6 197.961 6.21071 197.586 6.58579C197.211 6.96086 197 7.46957 197 8V23C197 23.2652 196.895 23.5196 196.707 23.7071C196.52 23.8946 196.265 24 196 24C195.735 24 195.48 23.8946 195.293 23.7071C195.105 23.5196 195 23.2652 195 23V11C195 10.7348 194.895 10.4804 194.707 10.2929C194.52 10.1054 194.265 10 194 10C193.735 10 193.48 10.1054 193.293 10.2929C193.105 10.4804 193 10.7348 193 11V23.0138C193.004 23.807 193.321 24.5665 193.884 25.1262C194.446 25.6858 195.207 26 196 26H218C218.796 26 219.559 25.6839 220.121 25.1213C220.684 24.5587 221 23.7956 221 23V8C221 7.46957 220.789 6.96086 220.414 6.58579C220.039 6.21071 219.53 6 219 6ZM214 19H204C203.735 19 203.48 18.8946 203.293 18.7071C203.105 18.5196 203 18.2652 203 18C203 17.7348 203.105 17.4804 203.293 17.2929C203.48 17.1054 203.735 17 204 17H214C214.265 17 214.52 17.1054 214.707 17.2929C214.895 17.4804 215 17.7348 215 18C215 18.2652 214.895 18.5196 214.707 18.7071C214.52 18.8946 214.265 19 214 19ZM214 15H204C203.735 15 203.48 14.8946 203.293 14.7071C203.105 14.5196 203 14.2652 203 14C203 13.7348 203.105 13.4804 203.293 13.2929C203.48 13.1054 203.735 13 204 13H214C214.265 13 214.52 13.1054 214.707 13.2929C214.895 13.4804 215 13.7348 215 14C215 14.2652 214.895 14.5196 214.707 14.7071C214.52 14.8946 214.265 15 214 15Z" fill="currentColor"/>
<path opacity="0.2" d="M268 8V23C268 23.5304 267.789 24.0391 267.414 24.4142C267.039 24.7893 266.53 25 266 25H244C244.53 25 245.039 24.7893 245.414 24.4142C245.789 24.0391 246 23.5304 246 23V8C246 7.73478 246.105 7.48043 246.293 7.29289C246.48 7.10536 246.735 7 247 7H267C267.265 7 267.52 7.10536 267.707 7.29289C267.895 7.48043 268 7.73478 268 8Z" fill="currentColor"/>
<path d="M251 14C251 13.7348 251.105 13.4804 251.293 13.2929C251.48 13.1054 251.735 13 252 13H262C262.265 13 262.52 13.1054 262.707 13.2929C262.895 13.4804 263 13.7348 263 14C263 14.2652 262.895 14.5196 262.707 14.7071C262.52 14.8946 262.265 15 262 15H252C251.735 15 251.48 14.8946 251.293 14.7071C251.105 14.5196 251 14.2652 251 14ZM252 19H262C262.265 19 262.52 18.8946 262.707 18.7071C262.895 18.5196 263 18.2652 263 18C263 17.7348 262.895 17.4804 262.707 17.2929C262.52 17.1054 262.265 17 262 17H252C251.735 17 251.48 17.1054 251.293 17.2929C251.105 17.4804 251 17.7348 251 18C251 18.2652 251.105 18.5196 251.293 18.7071C251.48 18.8946 251.735 19 252 19ZM269 8V23C269 23.7956 268.684 24.5587 268.121 25.1213C267.559 25.6839 266.796 26 266 26H244C243.207 26 242.446 25.6858 241.884 25.1262C241.321 24.5665 241.004 23.807 241 23.0138V11C241 10.7348 241.105 10.4804 241.293 10.2929C241.48 10.1054 241.735 10 242 10C242.265 10 242.52 10.1054 242.707 10.2929C242.895 10.4804 243 10.7348 243 11V23C243 23.2652 243.105 23.5196 243.293 23.7071C243.48 23.8946 243.735 24 244 24C244.265 24 244.52 23.8946 244.707 23.7071C244.895 23.5196 245 23.2652 245 23V8C245 7.46957 245.211 6.96086 245.586 6.58579C245.961 6.21071 246.47 6 247 6H267C267.53 6 268.039 6.21071 268.414 6.58579C268.789 6.96086 269 7.46957 269 8ZM267 8H247V23C247 23.3407 246.943 23.6789 246.829 24H266C266.265 24 266.52 23.8946 266.707 23.7071C266.895 23.5196 267 23.2652 267 23V8Z" fill="currentColor"/>
</g>
<defs>
<clipPath id="clip0_17_16639">
<rect width="272" height="32" rx="5" fill="white"/>
</clipPath>
</defs>
</svg>
