<svg width="272" height="32" viewBox="0 0 272 32" fill="none" xmlns="http://www.w3.org/2000/svg">
<g clip-path="url(#clip0_17_16456)">
<path d="M2.99999 16.0001C3.00264 13.6139 3.9517 11.3263 5.63896 9.63903C7.32621 7.95178 9.61386 7.00271 12 7.00007H25.5862L24.2925 5.70757C24.1049 5.51993 23.9994 5.26543 23.9994 5.00007C23.9994 4.7347 24.1049 4.48021 24.2925 4.29257C24.4801 4.10493 24.7346 3.99951 25 3.99951C25.2654 3.99951 25.5199 4.10493 25.7075 4.29257L28.7075 7.29257C28.8005 7.38544 28.8742 7.49573 28.9246 7.61713C28.9749 7.73853 29.0008 7.86865 29.0008 8.00007C29.0008 8.13148 28.9749 8.26161 28.9246 8.38301C28.8742 8.50441 28.8005 8.6147 28.7075 8.70757L25.7075 11.7076C25.5199 11.8952 25.2654 12.0006 25 12.0006C24.7346 12.0006 24.4801 11.8952 24.2925 11.7076C24.1049 11.5199 23.9994 11.2654 23.9994 11.0001C23.9994 10.7347 24.1049 10.4802 24.2925 10.2926L25.5862 9.00007H12C10.1441 9.00205 8.36476 9.74019 7.05244 11.0525C5.74011 12.3648 5.00198 14.1442 4.99999 16.0001C4.99999 16.2653 4.89464 16.5196 4.7071 16.7072C4.51956 16.8947 4.26521 17.0001 3.99999 17.0001C3.73478 17.0001 3.48042 16.8947 3.29289 16.7072C3.10535 16.5196 2.99999 16.2653 2.99999 16.0001ZM28 15.0001C27.7348 15.0001 27.4804 15.1054 27.2929 15.293C27.1053 15.4805 27 15.7349 27 16.0001C26.998 17.856 26.2599 19.6353 24.9475 20.9476C23.6352 22.2599 21.8559 22.9981 20 23.0001H6.41374L7.70749 21.7076C7.8004 21.6147 7.8741 21.5044 7.92439 21.383C7.97467 21.2616 8.00055 21.1315 8.00055 21.0001C8.00055 20.8687 7.97467 20.7386 7.92439 20.6172C7.8741 20.4958 7.8004 20.3855 7.70749 20.2926C7.61458 20.1997 7.50428 20.126 7.38289 20.0757C7.2615 20.0254 7.13139 19.9995 6.99999 19.9995C6.8686 19.9995 6.73849 20.0254 6.6171 20.0757C6.4957 20.126 6.3854 20.1997 6.29249 20.2926L3.29249 23.2926C3.19952 23.3854 3.12576 23.4957 3.07543 23.6171C3.02511 23.7385 2.99921 23.8687 2.99921 24.0001C2.99921 24.1315 3.02511 24.2616 3.07543 24.383C3.12576 24.5044 3.19952 24.6147 3.29249 24.7076L6.29249 27.7076C6.3854 27.8005 6.4957 27.8742 6.6171 27.9245C6.73849 27.9747 6.8686 28.0006 6.99999 28.0006C7.13139 28.0006 7.2615 27.9747 7.38289 27.9245C7.50428 27.8742 7.61458 27.8005 7.70749 27.7076C7.8004 27.6147 7.8741 27.5044 7.92439 27.383C7.97467 27.2616 8.00055 27.1315 8.00055 27.0001C8.00055 26.8687 7.97467 26.7386 7.92439 26.6172C7.8741 26.4958 7.8004 26.3855 7.70749 26.2926L6.41374 25.0001H20C22.3861 24.9974 24.6738 24.0484 26.361 22.3611C28.0483 20.6739 28.9973 18.3862 29 16.0001C29 15.7349 28.8946 15.4805 28.7071 15.293C28.5196 15.1054 28.2652 15.0001 28 15.0001ZM17 20.0001C17.2652 20.0001 17.5196 19.8947 17.7071 19.7072C17.8946 19.5196 18 19.2653 18 19.0001V13.0001C18.0001 12.8295 17.9566 12.6618 17.8736 12.5128C17.7907 12.3638 17.6709 12.2385 17.5259 12.1488C17.3808 12.0591 17.2153 12.008 17.0449 12.0004C16.8745 11.9927 16.705 12.0287 16.5525 12.1051L14.5525 13.1051C14.3153 13.2238 14.1349 13.4318 14.0511 13.6835C13.9673 13.9351 13.9869 14.2097 14.1056 14.4469C14.2243 14.6841 14.4324 14.8645 14.684 14.9483C14.9357 15.0321 15.2103 15.0125 15.4475 14.8938L16 14.6176V19.0001C16 19.2653 16.1053 19.5196 16.2929 19.7072C16.4804 19.8947 16.7348 20.0001 17 20.0001Z" fill="currentColor"/>
<path d="M51.5 16C51.5023 13.7464 52.3986 11.5857 53.9922 9.99218C55.5857 8.39863 57.7464 7.50235 60 7.50003H74.7925L72.6463 5.35378C72.5525 5.25996 72.4997 5.13272 72.4997 5.00003C72.4997 4.86735 72.5525 4.7401 72.6463 4.64628C72.7401 4.55246 72.8673 4.49976 73 4.49976C73.1327 4.49976 73.26 4.55246 73.3538 4.64628L76.3538 7.64628C76.4003 7.69272 76.4371 7.74786 76.4623 7.80856C76.4875 7.86926 76.5004 7.93433 76.5004 8.00003C76.5004 8.06574 76.4875 8.13081 76.4623 8.1915C76.4371 8.2522 76.4003 8.30735 76.3538 8.35378L73.3538 11.3538C73.26 11.4476 73.1327 11.5003 73 11.5003C72.8673 11.5003 72.7401 11.4476 72.6463 11.3538C72.5525 11.26 72.4997 11.1327 72.4997 11C72.4997 10.8674 72.5525 10.7401 72.6463 10.6463L74.7925 8.50003H60C58.0116 8.50235 56.1053 9.29327 54.6993 10.6993C53.2933 12.1053 52.5023 14.0116 52.5 16C52.5 16.1326 52.4473 16.2598 52.3536 16.3536C52.2598 16.4474 52.1326 16.5 52 16.5C51.8674 16.5 51.7402 16.4474 51.6465 16.3536C51.5527 16.2598 51.5 16.1326 51.5 16ZM76 15.5C75.8674 15.5 75.7402 15.5527 75.6465 15.6465C75.5527 15.7402 75.5 15.8674 75.5 16C75.4977 17.9884 74.7068 19.8948 73.3008 21.3008C71.8947 22.7068 69.9884 23.4977 68 23.5H53.2075L55.3538 21.3538C55.4476 21.26 55.5003 21.1327 55.5003 21C55.5003 20.8674 55.4476 20.7401 55.3538 20.6463C55.26 20.5525 55.1327 20.4998 55 20.4998C54.8673 20.4998 54.7401 20.5525 54.6463 20.6463L51.6463 23.6463C51.5998 23.6927 51.5629 23.7479 51.5377 23.8086C51.5126 23.8693 51.4996 23.9343 51.4996 24C51.4996 24.0657 51.5126 24.1308 51.5377 24.1915C51.5629 24.2522 51.5998 24.3073 51.6463 24.3538L54.6463 27.3538C54.7401 27.4476 54.8673 27.5003 55 27.5003C55.1327 27.5003 55.26 27.4476 55.3538 27.3538C55.4476 27.26 55.5003 27.1327 55.5003 27C55.5003 26.8674 55.4476 26.7401 55.3538 26.6463L53.2075 24.5H68C70.2537 24.4977 72.4143 23.6014 74.0079 22.0079C75.6014 20.4143 76.4977 18.2537 76.5 16C76.5 15.8674 76.4473 15.7402 76.3536 15.6465C76.2598 15.5527 76.1326 15.5 76 15.5ZM65 19.5C65.1326 19.5 65.2598 19.4474 65.3536 19.3536C65.4473 19.2598 65.5 19.1326 65.5 19V13C65.5001 12.9148 65.4783 12.8309 65.4368 12.7564C65.3954 12.6819 65.3355 12.6192 65.263 12.5744C65.1904 12.5296 65.1077 12.504 65.0225 12.5002C64.9373 12.4964 64.8525 12.5144 64.7763 12.5525L62.7763 13.5525C62.6576 13.6119 62.5673 13.7159 62.5254 13.8418C62.4834 13.9677 62.4932 14.1051 62.5525 14.2238C62.6119 14.3425 62.7159 14.4327 62.8418 14.4747C62.9677 14.5166 63.1051 14.5069 63.2238 14.4475L64.5 13.81V19C64.5 19.1326 64.5527 19.2598 64.6465 19.3536C64.7402 19.4474 64.8674 19.5 65 19.5Z" fill="currentColor"/>
<path d="M99.25 16.0001C99.2526 13.6803 100.175 11.4562 101.816 9.81583C103.456 8.17546 105.68 7.25274 108 7.25009H122.189L120.47 5.53009C120.338 5.38792 120.265 5.19987 120.269 5.00557C120.272 4.81127 120.351 4.62588 120.488 4.48847C120.626 4.35106 120.811 4.27234 121.005 4.26892C121.2 4.26549 121.388 4.33761 121.53 4.47009L124.53 7.47009C124.67 7.61072 124.749 7.80134 124.749 8.00009C124.749 8.19884 124.67 8.38946 124.53 8.53009L121.53 11.5301C121.388 11.6626 121.2 11.7347 121.005 11.7313C120.811 11.7278 120.626 11.6491 120.488 11.5117C120.351 11.3743 120.272 11.1889 120.269 10.9946C120.265 10.8003 120.338 10.6123 120.47 10.4701L122.189 8.75009H108C106.078 8.75241 104.235 9.51699 102.876 10.8761C101.517 12.2353 100.752 14.078 100.75 16.0001C100.75 16.199 100.671 16.3898 100.53 16.5304C100.39 16.6711 100.199 16.7501 100 16.7501C99.8011 16.7501 99.6103 16.6711 99.4697 16.5304C99.329 16.3898 99.25 16.199 99.25 16.0001ZM124 15.2501C123.801 15.2501 123.61 15.3291 123.47 15.4698C123.329 15.6104 123.25 15.8012 123.25 16.0001C123.248 17.9222 122.483 19.7649 121.124 21.1241C119.765 22.4832 117.922 23.2478 116 23.2501H101.811L103.53 21.5301C103.662 21.3879 103.735 21.1999 103.731 21.0056C103.728 20.8113 103.649 20.6259 103.512 20.4885C103.374 20.3511 103.189 20.2723 102.995 20.2689C102.8 20.2655 102.612 20.3376 102.47 20.4701L99.47 23.4701C99.3295 23.6107 99.2507 23.8013 99.2507 24.0001C99.2507 24.1988 99.3295 24.3895 99.47 24.5301L102.47 27.5301C102.612 27.6626 102.8 27.7347 102.995 27.7313C103.189 27.7278 103.374 27.6491 103.512 27.5117C103.649 27.3743 103.728 27.1889 103.731 26.9946C103.735 26.8003 103.662 26.6123 103.53 26.4701L101.811 24.7501H116C118.32 24.7474 120.544 23.8247 122.184 22.1844C123.825 20.544 124.747 18.3199 124.75 16.0001C124.75 15.8012 124.671 15.6104 124.53 15.4698C124.39 15.3291 124.199 15.2501 124 15.2501ZM113 19.7501C113.199 19.7501 113.39 19.6711 113.53 19.5304C113.671 19.3898 113.75 19.199 113.75 19.0001V13.0001C113.75 12.8723 113.717 12.7466 113.655 12.6349C113.593 12.5232 113.503 12.4293 113.395 12.3621C113.286 12.2948 113.162 12.2565 113.034 12.2506C112.906 12.2448 112.779 12.2717 112.665 12.3288L110.665 13.3288C110.574 13.3709 110.492 13.4309 110.424 13.5052C110.357 13.5795 110.305 13.6666 110.272 13.7614C110.238 13.8562 110.224 13.9567 110.231 14.0569C110.237 14.1572 110.263 14.2551 110.308 14.345C110.353 14.4348 110.416 14.5148 110.492 14.58C110.568 14.6453 110.657 14.6945 110.753 14.7248C110.849 14.7552 110.949 14.7659 111.049 14.7565C111.149 14.7471 111.247 14.7177 111.335 14.6701L112.25 14.2126V19.0001C112.25 19.199 112.329 19.3898 112.47 19.5304C112.61 19.6711 112.801 19.7501 113 19.7501Z" fill="currentColor"/>
<path d="M146.5 15.9999C146.503 13.4812 147.504 11.0664 149.285 9.28535C151.066 7.50433 153.481 6.50259 156 6.49995H168.375L167.935 6.0612C167.795 5.92167 167.685 5.75602 167.609 5.57372C167.534 5.39141 167.495 5.19602 167.495 4.9987C167.495 4.80137 167.534 4.60598 167.609 4.42367C167.685 4.24137 167.795 4.07573 167.935 3.9362C168.075 3.79667 168.24 3.68599 168.423 3.61047C168.605 3.53496 168.8 3.49609 168.998 3.49609C169.195 3.49609 169.39 3.53496 169.573 3.61047C169.755 3.68599 169.92 3.79667 170.06 3.9362L173.06 6.9362C173.2 7.07555 173.311 7.24114 173.387 7.42347C173.462 7.6058 173.501 7.80127 173.501 7.9987C173.501 8.19612 173.462 8.3916 173.387 8.57392C173.311 8.75625 173.2 8.92184 173.06 9.0612L170.06 12.0612C169.778 12.343 169.396 12.5013 168.998 12.5013C168.599 12.5013 168.217 12.343 167.935 12.0612C167.653 11.7794 167.495 11.3972 167.495 10.9987C167.495 10.6002 167.653 10.218 167.935 9.9362L168.375 9.49995H156C154.277 9.50193 152.625 10.1874 151.406 11.4059C150.187 12.6245 149.502 14.2766 149.5 15.9999C149.5 16.3978 149.342 16.7793 149.061 17.0606C148.779 17.3419 148.398 17.4999 148 17.4999C147.602 17.4999 147.221 17.3419 146.939 17.0606C146.658 16.7793 146.5 16.3978 146.5 15.9999ZM172 14.4999C171.602 14.4999 171.221 14.658 170.939 14.9393C170.658 15.2206 170.5 15.6021 170.5 15.9999C170.498 17.7232 169.813 19.3754 168.594 20.5939C167.375 21.8125 165.723 22.498 164 22.4999H151.625L152.065 22.0612C152.205 21.9217 152.315 21.756 152.391 21.5737C152.466 21.3914 152.505 21.196 152.505 20.9987C152.505 20.8014 152.466 20.606 152.391 20.4237C152.315 20.2414 152.205 20.0757 152.065 19.9362C151.925 19.7967 151.76 19.686 151.578 19.6105C151.395 19.535 151.2 19.4961 151.003 19.4961C150.805 19.4961 150.61 19.535 150.428 19.6105C150.245 19.686 150.08 19.7967 149.94 19.9362L146.94 22.9362C146.8 23.0756 146.689 23.2411 146.614 23.4235C146.538 23.6058 146.499 23.8013 146.499 23.9987C146.499 24.1961 146.538 24.3916 146.614 24.5739C146.689 24.7563 146.8 24.9218 146.94 25.0612L149.94 28.0612C150.08 28.2007 150.245 28.3114 150.428 28.3869C150.61 28.4624 150.805 28.5013 151.003 28.5013C151.2 28.5013 151.395 28.4624 151.578 28.3869C151.76 28.3114 151.925 28.2007 152.065 28.0612C152.205 27.9217 152.315 27.756 152.391 27.5737C152.466 27.3914 152.505 27.196 152.505 26.9987C152.505 26.8014 152.466 26.606 152.391 26.4237C152.315 26.2414 152.205 26.0757 152.065 25.9362L151.625 25.4999H164C166.519 25.4973 168.934 24.4956 170.715 22.7145C172.496 20.9335 173.497 18.5187 173.5 15.9999C173.5 15.6021 173.342 15.2206 173.061 14.9393C172.779 14.658 172.398 14.4999 172 14.4999ZM161 20.4999C161.398 20.4999 161.779 20.3419 162.061 20.0606C162.342 19.7793 162.5 19.3978 162.5 18.9999V12.9999C162.5 12.7443 162.435 12.4929 162.31 12.2695C162.186 12.0462 162.007 11.8584 161.789 11.7239C161.572 11.5894 161.324 11.5127 161.068 11.501C160.813 11.4894 160.559 11.5433 160.33 11.6574L158.33 12.6574C157.999 12.8339 157.746 13.128 157.621 13.4817C157.496 13.8355 157.508 14.2232 157.655 14.5684C157.802 14.9136 158.073 15.1913 158.415 15.3466C158.756 15.5019 159.143 15.5236 159.5 15.4074V18.9999C159.5 19.3978 159.658 19.7793 159.939 20.0606C160.221 20.3419 160.602 20.4999 161 20.4999Z" fill="currentColor"/>
<path d="M195 16.0001C195.003 13.6139 195.952 11.3263 197.639 9.63902C199.326 7.95176 201.614 7.0027 204 7.00006H216V5.00006C216 4.80216 216.058 4.60867 216.168 4.44407C216.278 4.27948 216.434 4.15119 216.617 4.07543C216.8 3.99968 217.001 3.97988 217.195 4.01853C217.389 4.05718 217.568 4.15254 217.707 4.29256L220.707 7.29256C220.8 7.38543 220.874 7.49572 220.925 7.61711C220.975 7.73851 221.001 7.86864 221.001 8.00006C221.001 8.13147 220.975 8.2616 220.925 8.383C220.874 8.50439 220.8 8.61468 220.707 8.70756L217.707 11.7076C217.568 11.8476 217.389 11.9429 217.195 11.9816C217.001 12.0202 216.8 12.0004 216.617 11.9247C216.434 11.8489 216.278 11.7206 216.168 11.556C216.058 11.3914 216 11.198 216 11.0001V9.00006H204C202.144 9.00204 200.365 9.74018 199.052 11.0525C197.74 12.3648 197.002 14.1441 197 16.0001C197 16.2653 196.895 16.5196 196.707 16.7072C196.52 16.8947 196.265 17.0001 196 17.0001C195.735 17.0001 195.48 16.8947 195.293 16.7072C195.105 16.5196 195 16.2653 195 16.0001ZM220 15.0001C219.735 15.0001 219.48 15.1054 219.293 15.2929C219.105 15.4805 219 15.7348 219 16.0001C218.998 17.856 218.26 19.6353 216.948 20.9476C215.635 22.2599 213.856 22.9981 212 23.0001H200V21.0001C200 20.8022 199.942 20.6087 199.832 20.4441C199.722 20.2795 199.566 20.1512 199.383 20.0754C199.2 19.9997 198.999 19.9799 198.805 20.0185C198.611 20.0572 198.432 20.1525 198.292 20.2926L195.292 23.2926C195.2 23.3854 195.126 23.4957 195.075 23.6171C195.025 23.7385 194.999 23.8686 194.999 24.0001C194.999 24.1315 195.025 24.2616 195.075 24.383C195.126 24.5044 195.2 24.6147 195.292 24.7076L198.292 27.7076C198.432 27.8476 198.611 27.9429 198.805 27.9816C198.999 28.0202 199.2 28.0004 199.383 27.9247C199.566 27.8489 199.722 27.7206 199.832 27.556C199.942 27.3914 200 27.198 200 27.0001V25.0001H212C214.386 24.9974 216.674 24.0483 218.361 22.3611C220.048 20.6738 220.997 18.3862 221 16.0001C221 15.7348 220.895 15.4805 220.707 15.2929C220.52 15.1054 220.265 15.0001 220 15.0001ZM209 20.0001C209.265 20.0001 209.52 19.8947 209.707 19.7072C209.895 19.5196 210 19.2653 210 19.0001V13.0001C210 12.8295 209.957 12.6618 209.874 12.5128C209.791 12.3638 209.671 12.2385 209.526 12.1488C209.381 12.0591 209.215 12.008 209.045 12.0003C208.875 11.9927 208.705 12.0287 208.552 12.1051L206.552 13.1051C206.315 13.2237 206.135 13.4318 206.051 13.6834C205.967 13.9351 205.987 14.2097 206.106 14.4469C206.224 14.6841 206.432 14.8645 206.684 14.9483C206.936 15.0321 207.21 15.0125 207.447 14.8938L208 14.6176V19.0001C208 19.2653 208.105 19.5196 208.293 19.7072C208.48 19.8947 208.735 20.0001 209 20.0001Z" fill="currentColor"/>
<path opacity="0.2" d="M268 8V16C268 18.1217 267.157 20.1566 265.657 21.6569C264.157 23.1571 262.122 24 260 24H244V16C244 13.8783 244.843 11.8434 246.343 10.3431C247.843 8.84285 249.878 8 252 8H268Z" fill="currentColor"/>
<path d="M243 16.0001C243.003 13.6139 243.952 11.3263 245.639 9.63903C247.326 7.95178 249.614 7.00271 252 7.00007H265.586L264.292 5.70757C264.105 5.51993 263.999 5.26543 263.999 5.00007C263.999 4.7347 264.105 4.48021 264.292 4.29257C264.48 4.10493 264.735 3.99951 265 3.99951C265.265 3.99951 265.52 4.10493 265.707 4.29257L268.707 7.29257C268.8 7.38544 268.874 7.49573 268.925 7.61713C268.975 7.73853 269.001 7.86865 269.001 8.00007C269.001 8.13148 268.975 8.26161 268.925 8.38301C268.874 8.50441 268.8 8.6147 268.707 8.70757L265.707 11.7076C265.52 11.8952 265.265 12.0006 265 12.0006C264.735 12.0006 264.48 11.8952 264.292 11.7076C264.105 11.5199 263.999 11.2654 263.999 11.0001C263.999 10.7347 264.105 10.4802 264.292 10.2926L265.586 9.00007H252C250.144 9.00205 248.365 9.74019 247.052 11.0525C245.74 12.3648 245.002 14.1442 245 16.0001C245 16.2653 244.895 16.5196 244.707 16.7072C244.52 16.8947 244.265 17.0001 244 17.0001C243.735 17.0001 243.48 16.8947 243.293 16.7072C243.105 16.5196 243 16.2653 243 16.0001ZM268 15.0001C267.735 15.0001 267.48 15.1054 267.293 15.293C267.105 15.4805 267 15.7349 267 16.0001C266.998 17.856 266.26 19.6353 264.948 20.9476C263.635 22.2599 261.856 22.9981 260 23.0001H246.414L247.707 21.7076C247.8 21.6147 247.874 21.5044 247.924 21.383C247.975 21.2616 248.001 21.1315 248.001 21.0001C248.001 20.8687 247.975 20.7386 247.924 20.6172C247.874 20.4958 247.8 20.3855 247.707 20.2926C247.615 20.1997 247.504 20.126 247.383 20.0757C247.261 20.0254 247.131 19.9995 247 19.9995C246.869 19.9995 246.738 20.0254 246.617 20.0757C246.496 20.126 246.385 20.1997 246.292 20.2926L243.292 23.2926C243.2 23.3854 243.126 23.4957 243.075 23.6171C243.025 23.7385 242.999 23.8687 242.999 24.0001C242.999 24.1315 243.025 24.2616 243.075 24.383C243.126 24.5044 243.2 24.6147 243.292 24.7076L246.292 27.7076C246.385 27.8005 246.496 27.8742 246.617 27.9245C246.738 27.9747 246.869 28.0006 247 28.0006C247.131 28.0006 247.261 27.9747 247.383 27.9245C247.504 27.8742 247.615 27.8005 247.707 27.7076C247.8 27.6147 247.874 27.5044 247.924 27.383C247.975 27.2616 248.001 27.1315 248.001 27.0001C248.001 26.8687 247.975 26.7386 247.924 26.6172C247.874 26.4958 247.8 26.3855 247.707 26.2926L246.414 25.0001H260C262.386 24.9974 264.674 24.0484 266.361 22.3611C268.048 20.6739 268.997 18.3862 269 16.0001C269 15.7349 268.895 15.4805 268.707 15.293C268.52 15.1054 268.265 15.0001 268 15.0001ZM257 20.0001C257.265 20.0001 257.52 19.8947 257.707 19.7072C257.895 19.5196 258 19.2653 258 19.0001V13.0001C258 12.8295 257.957 12.6618 257.874 12.5128C257.791 12.3638 257.671 12.2385 257.526 12.1488C257.381 12.0591 257.215 12.008 257.045 12.0004C256.875 11.9927 256.705 12.0287 256.552 12.1051L254.552 13.1051C254.315 13.2238 254.135 13.4318 254.051 13.6835C253.967 13.9351 253.987 14.2097 254.106 14.4469C254.224 14.6841 254.432 14.8645 254.684 14.9483C254.936 15.0321 255.21 15.0125 255.447 14.8938L256 14.6176V19.0001C256 19.2653 256.105 19.5196 256.293 19.7072C256.48 19.8947 256.735 20.0001 257 20.0001Z" fill="currentColor"/>
</g>
<defs>
<clipPath id="clip0_17_16456">
<rect width="272" height="32" rx="5" fill="white"/>
</clipPath>
</defs>
</svg>
