<svg width="272" height="32" viewBox="0 0 272 32" fill="none" xmlns="http://www.w3.org/2000/svg">
<g clip-path="url(#clip0_17_16442)">
<path d="M27.9712 7.24995C27.6576 7.07849 27.3038 6.99419 26.9466 7.00584C26.5893 7.01749 26.2418 7.12466 25.94 7.3162L16 13.6425V8.97995C15.9985 8.62391 15.9015 8.27478 15.7191 7.96902C15.5367 7.66327 15.2755 7.41209 14.9629 7.24172C14.6502 7.07135 14.2976 6.98804 13.9418 7.00048C13.5859 7.01292 13.24 7.12066 12.94 7.31245L1.91624 14.3325C1.63538 14.5107 1.4041 14.757 1.24385 15.0485C1.0836 15.34 0.999573 15.6673 0.999573 16C0.999573 16.3326 1.0836 16.6599 1.24385 16.9514C1.4041 17.2429 1.63538 17.4892 1.91624 17.6675L12.94 24.6875C13.24 24.8792 13.5859 24.987 13.9418 24.9994C14.2976 25.0119 14.6502 24.9286 14.9629 24.7582C15.2755 24.5878 15.5367 24.3366 15.7191 24.0309C15.9015 23.7251 15.9985 23.376 16 23.02V18.3575L25.94 24.6875C26.24 24.8792 26.5859 24.987 26.9418 24.9994C27.2976 25.0119 27.6502 24.9286 27.9629 24.7582C28.2755 24.5878 28.5367 24.3366 28.7191 24.0309C28.9015 23.7251 28.9985 23.376 29 23.02V8.97995C28.999 8.62593 28.903 8.27867 28.722 7.97438C28.5411 7.67009 28.2818 7.41992 27.9712 7.24995ZM14 22.9912L3.02249 16L14 9.00745V22.9912ZM27 22.9912L16.0225 16L27 9.00745V22.9912Z" fill="currentColor"/>
<path d="M75.7312 7.68502C75.4962 7.55645 75.2311 7.49317 74.9633 7.50175C74.6956 7.51032 74.4351 7.59043 74.2087 7.73377L63.5 14.5538V8.98002C63.5019 8.71462 63.4313 8.45375 63.2958 8.22553C63.1604 7.99732 62.9651 7.81042 62.7312 7.68502C62.4962 7.55645 62.2311 7.49317 61.9634 7.50175C61.6956 7.51032 61.4351 7.59043 61.2087 7.73377L50.185 14.75C49.9751 14.8833 49.8023 15.0674 49.6826 15.2852C49.5628 15.5031 49.5001 15.7477 49.5001 15.9963C49.5001 16.2449 49.5628 16.4894 49.6826 16.7073C49.8023 16.9252 49.9751 17.1093 50.185 17.2425L61.2087 24.2625C61.4351 24.4058 61.6956 24.486 61.9634 24.4945C62.2311 24.5031 62.4962 24.4398 62.7312 24.3113C62.9646 24.1862 63.1594 23.9998 63.2949 23.7724C63.4303 23.5449 63.5012 23.2848 63.5 23.02V17.4463L74.2087 24.2663C74.4351 24.4096 74.6956 24.4897 74.9633 24.4983C75.2311 24.5069 75.4962 24.4436 75.7312 24.315C75.9651 24.1896 76.1604 24.0027 76.2958 23.7745C76.4313 23.5463 76.5019 23.2854 76.5 23.02V8.98002C76.5019 8.71462 76.4313 8.45375 76.2958 8.22553C76.1604 7.99732 75.9651 7.81042 75.7312 7.68502ZM62.5 23.02C62.5006 23.106 62.4776 23.1905 62.4336 23.2644C62.3895 23.3382 62.326 23.3985 62.25 23.4388C62.1729 23.4814 62.0858 23.5023 61.9978 23.4995C61.9098 23.4966 61.8241 23.47 61.75 23.4225L50.7225 16.4025C50.6543 16.3598 50.5981 16.3004 50.5591 16.23C50.5202 16.1596 50.4997 16.0805 50.4997 16C50.4997 15.9195 50.5202 15.8404 50.5591 15.77C50.5981 15.6996 50.6543 15.6402 50.7225 15.5975L61.75 8.57752C61.8294 8.52628 61.9218 8.49894 62.0162 8.49877C62.0998 8.49932 62.1819 8.52081 62.255 8.56127C62.331 8.60152 62.3945 8.66184 62.4386 8.73568C62.4826 8.80951 62.5056 8.89403 62.505 8.98002L62.5 23.02ZM75.5 23.02C75.5006 23.106 75.4776 23.1905 75.4336 23.2644C75.3895 23.3382 75.326 23.3985 75.25 23.4388C75.1729 23.4814 75.0858 23.5023 74.9978 23.4995C74.9097 23.4966 74.8241 23.47 74.75 23.4225L63.7275 16.4025C63.6593 16.3598 63.6031 16.3004 63.5641 16.23C63.5252 16.1596 63.5047 16.0805 63.5047 16C63.5047 15.9195 63.5252 15.8404 63.5641 15.77C63.6031 15.6996 63.6593 15.6402 63.7275 15.5975L74.75 8.57752C74.8294 8.52628 74.9218 8.49894 75.0162 8.49877C75.0998 8.49932 75.1819 8.52081 75.255 8.56127C75.331 8.60152 75.3945 8.66184 75.4386 8.73568C75.4826 8.80951 75.5056 8.89403 75.505 8.98002L75.5 23.02Z" fill="currentColor"/>
<path d="M123.851 7.46503C123.577 7.3149 123.267 7.24105 122.955 7.25116C122.642 7.26127 122.338 7.35498 122.074 7.52253L111.75 14.0988V8.98003C111.75 8.67014 111.666 8.366 111.508 8.09948C111.35 7.83295 111.123 7.61382 110.851 7.46503C110.577 7.3149 110.267 7.24105 109.955 7.25116C109.642 7.26127 109.338 7.35498 109.074 7.52253L98.0513 14.5438C97.8057 14.6993 97.6035 14.9143 97.4634 15.1689C97.3233 15.4235 97.2498 15.7094 97.2498 16C97.2498 16.2906 97.3233 16.5765 97.4634 16.8311C97.6035 17.0857 97.8057 17.3008 98.0513 17.4563L109.074 24.4775C109.338 24.6451 109.642 24.7388 109.955 24.7489C110.267 24.759 110.577 24.6852 110.851 24.535C111.123 24.3862 111.35 24.1671 111.508 23.9006C111.666 23.6341 111.75 23.3299 111.75 23.02V17.9013L122.074 24.4775C122.338 24.6451 122.642 24.7388 122.955 24.7489C123.267 24.759 123.577 24.6852 123.851 24.535C124.123 24.3862 124.35 24.1671 124.508 23.9006C124.666 23.6341 124.75 23.3299 124.75 23.02V8.98003C124.75 8.67014 124.666 8.366 124.508 8.09948C124.35 7.83295 124.123 7.61382 123.851 7.46503ZM110.25 23.02C110.251 23.0617 110.239 23.1026 110.217 23.1379C110.195 23.1731 110.163 23.2012 110.125 23.2188C110.087 23.2409 110.043 23.2519 109.999 23.2506C109.955 23.2493 109.912 23.2357 109.875 23.2113L98.8563 16.1913C98.8237 16.1711 98.7968 16.1429 98.7782 16.1095C98.7596 16.076 98.7498 16.0383 98.7498 16C98.7498 15.9617 98.7596 15.9241 98.7782 15.8906C98.7968 15.8571 98.8237 15.829 98.8563 15.8088L109.875 8.78878C109.912 8.76379 109.955 8.74991 110 8.74878C110.044 8.74848 110.087 8.75969 110.125 8.78128C110.163 8.79886 110.195 8.82696 110.217 8.86222C110.239 8.89748 110.251 8.93839 110.25 8.98003V23.02ZM123.25 23.02C123.251 23.0617 123.239 23.1026 123.217 23.1379C123.195 23.1731 123.163 23.2012 123.125 23.2188C123.087 23.2409 123.043 23.2519 122.999 23.2506C122.955 23.2493 122.912 23.2357 122.875 23.2113L111.851 16.1913C111.819 16.1711 111.792 16.1429 111.773 16.1095C111.755 16.076 111.745 16.0383 111.745 16C111.745 15.9617 111.755 15.9241 111.773 15.8906C111.792 15.8571 111.819 15.829 111.851 15.8088L122.875 8.78878C122.912 8.76379 122.955 8.74991 123 8.74878C123.044 8.74848 123.087 8.75969 123.125 8.78128C123.163 8.79886 123.195 8.82696 123.217 8.86222C123.239 8.89748 123.251 8.93839 123.25 8.98003V23.02Z" fill="currentColor"/>
<path d="M172.213 6.80756C171.82 6.59276 171.378 6.48711 170.931 6.50162C170.484 6.51613 170.049 6.65027 169.671 6.89006L160.5 12.7313V8.98131C160.499 8.53556 160.378 8.09834 160.15 7.71534C159.922 7.33233 159.595 7.0176 159.204 6.80403C158.812 6.59045 158.371 6.48588 157.926 6.50123C157.48 6.51659 157.047 6.6513 156.671 6.89131L145.649 13.9113C145.297 14.1346 145.007 14.4431 144.806 14.8082C144.606 15.1734 144.5 15.5834 144.5 16.0001C144.5 16.4168 144.606 16.8267 144.806 17.1919C145.007 17.557 145.297 17.8656 145.649 18.0888L156.671 25.1101C157.047 25.3501 157.48 25.4848 157.926 25.5001C158.371 25.5155 158.812 25.4109 159.204 25.1973C159.595 24.9838 159.922 24.669 160.15 24.286C160.378 23.903 160.499 23.4658 160.5 23.0201V19.2701L169.671 25.1113C170.047 25.3514 170.48 25.4861 170.926 25.5014C171.371 25.5167 171.813 25.412 172.204 25.1983C172.596 24.9846 172.922 24.6697 173.15 24.2865C173.378 23.9033 173.499 23.4659 173.5 23.0201V8.98006C173.5 8.53581 173.38 8.09982 173.153 7.71766C172.927 7.33549 172.602 7.02117 172.213 6.80756ZM157.5 22.0801L147.954 16.0001L157.5 9.92006V22.0801ZM170.5 22.0801L160.954 16.0001L170.5 9.92006V22.0801Z" fill="currentColor"/>
<path d="M221 8.97995V23.02C220.998 23.3758 220.901 23.7247 220.718 24.0302C220.536 24.3357 220.275 24.5867 219.962 24.757C219.65 24.9273 219.297 25.0107 218.942 24.9984C218.586 24.9862 218.24 24.8788 217.94 24.6875L208 18.3575V23.02C207.998 23.3758 207.901 23.7247 207.718 24.0302C207.536 24.3357 207.275 24.5867 206.962 24.757C206.65 24.9273 206.297 25.0107 205.942 24.9984C205.586 24.9862 205.24 24.8788 204.94 24.6875L193.916 17.6675C193.635 17.4892 193.404 17.2429 193.244 16.9514C193.084 16.6599 193 16.3326 193 16C193 15.6673 193.084 15.34 193.244 15.0485C193.404 14.757 193.635 14.5107 193.916 14.3325L204.94 7.31245C205.24 7.12066 205.586 7.01292 205.942 7.00048C206.298 6.98804 206.65 7.07135 206.963 7.24172C207.276 7.41209 207.537 7.66327 207.719 7.96902C207.902 8.27478 207.999 8.62391 208 8.97995V13.6425L217.94 7.31245C218.24 7.12066 218.586 7.01292 218.942 7.00048C219.298 6.98804 219.65 7.07135 219.963 7.24172C220.276 7.41209 220.537 7.66327 220.719 7.96902C220.902 8.27478 220.999 8.62391 221 8.97995Z" fill="currentColor"/>
<path opacity="0.2" d="M268 8.98119V23.0187C267.998 23.1954 267.95 23.3685 267.858 23.52C267.767 23.6714 267.637 23.7957 267.482 23.8798C267.326 23.9639 267.151 24.0048 266.975 23.9982C266.798 23.9917 266.626 23.9379 266.478 23.8424L255.454 16.8237C255.315 16.7357 255.2 16.6141 255.121 16.4701C255.042 16.3261 255 16.1643 255 15.9999C255 15.8355 255.042 15.6738 255.121 15.5298C255.2 15.3858 255.315 15.2641 255.454 15.1762L266.478 8.15744C266.626 8.06202 266.798 8.00823 266.975 8.00166C267.151 7.99509 267.326 8.03599 267.482 8.1201C267.637 8.20421 267.767 8.32846 267.858 8.4799C267.95 8.63134 267.998 8.80445 268 8.98119ZM253.478 8.15744L242.454 15.1762C242.315 15.2641 242.2 15.3858 242.121 15.5298C242.042 15.6738 242 15.8355 242 15.9999C242 16.1643 242.042 16.3261 242.121 16.4701C242.2 16.6141 242.315 16.7357 242.454 16.8237L253.478 23.8424C253.626 23.9379 253.798 23.9917 253.975 23.9982C254.151 24.0048 254.326 23.9639 254.482 23.8798C254.637 23.7957 254.767 23.6714 254.858 23.52C254.95 23.3685 254.998 23.1954 255 23.0187V8.98119C254.998 8.80445 254.95 8.63134 254.858 8.4799C254.767 8.32846 254.637 8.20421 254.482 8.1201C254.326 8.03599 254.151 7.99509 253.975 8.00166C253.798 8.00823 253.626 8.06202 253.478 8.15744Z" fill="currentColor"/>
<path d="M267.971 7.24995C267.658 7.07849 267.304 6.99419 266.947 7.00584C266.589 7.01749 266.242 7.12466 265.94 7.3162L256 13.6425V8.97995C255.999 8.62391 255.902 8.27478 255.719 7.96902C255.537 7.66327 255.276 7.41209 254.963 7.24172C254.65 7.07135 254.298 6.98804 253.942 7.00048C253.586 7.01292 253.24 7.12066 252.94 7.31245L241.916 14.3325C241.635 14.5107 241.404 14.757 241.244 15.0485C241.084 15.34 241 15.6673 241 16C241 16.3326 241.084 16.6599 241.244 16.9514C241.404 17.2429 241.635 17.4892 241.916 17.6675L252.94 24.6875C253.24 24.8792 253.586 24.987 253.942 24.9994C254.298 25.0119 254.65 24.9286 254.963 24.7582C255.276 24.5878 255.537 24.3366 255.719 24.0309C255.902 23.7251 255.999 23.376 256 23.02V18.3575L265.94 24.6875C266.24 24.8792 266.586 24.987 266.942 24.9994C267.298 25.0119 267.65 24.9286 267.963 24.7582C268.276 24.5878 268.537 24.3366 268.719 24.0309C268.902 23.7251 268.999 23.376 269 23.02V8.97995C268.999 8.62593 268.903 8.27867 268.722 7.97438C268.541 7.67009 268.282 7.41992 267.971 7.24995ZM254 22.9912L243.022 16L254 9.00745V22.9912ZM267 22.9912L256.022 16L267 9.00745V22.9912Z" fill="currentColor"/>
</g>
<defs>
<clipPath id="clip0_17_16442">
<rect width="272" height="32" rx="5" fill="white"/>
</clipPath>
</defs>
</svg>
