<svg width="272" height="32" viewBox="0 0 272 32" fill="none" xmlns="http://www.w3.org/2000/svg">
<g clip-path="url(#clip0_17_16414)">
<path d="M29 7V25C29 25.5304 28.7893 26.0391 28.4142 26.4142C28.0391 26.7893 27.5304 27 27 27H18C17.7348 27 17.4804 26.8946 17.2929 26.7071C17.1054 26.5196 17 26.2652 17 26C17 25.7348 17.1054 25.4804 17.2929 25.2929C17.4804 25.1054 17.7348 25 18 25H27V7H5V12C5 12.2652 4.89464 12.5196 4.70711 12.7071C4.51957 12.8946 4.26522 13 4 13C3.73478 13 3.48043 12.8946 3.29289 12.7071C3.10536 12.5196 3 12.2652 3 12V7C3 6.46957 3.21071 5.96086 3.58579 5.58579C3.96086 5.21071 4.46957 5 5 5H27C27.5304 5 28.0391 5.21071 28.4142 5.58579C28.7893 5.96086 29 6.46957 29 7ZM4 23C3.73478 23 3.48043 23.1054 3.29289 23.2929C3.10536 23.4804 3 23.7348 3 24C3 24.2652 3.10536 24.5196 3.29289 24.7071C3.48043 24.8946 3.73478 25 4 25C4.26522 25 4.51957 25.1054 4.70711 25.2929C4.89464 25.4804 5 25.7348 5 26C5 26.2652 5.10536 26.5196 5.29289 26.7071C5.48043 26.8946 5.73478 27 6 27C6.26522 27 6.51957 26.8946 6.70711 26.7071C6.89464 26.5196 7 26.2652 7 26C7 25.2044 6.68393 24.4413 6.12132 23.8787C5.55871 23.3161 4.79565 23 4 23ZM4 19C3.73478 19 3.48043 19.1054 3.29289 19.2929C3.10536 19.4804 3 19.7348 3 20C3 20.2652 3.10536 20.5196 3.29289 20.7071C3.48043 20.8946 3.73478 21 4 21C5.32608 21 6.59785 21.5268 7.53553 22.4645C8.47322 23.4021 9 24.6739 9 26C9 26.2652 9.10536 26.5196 9.29289 26.7071C9.48043 26.8946 9.73478 27 10 27C10.2652 27 10.5196 26.8946 10.7071 26.7071C10.8946 26.5196 11 26.2652 11 26C10.998 24.1441 10.2599 22.3648 8.94755 21.0524C7.63523 19.7401 5.85591 19.002 4 19ZM4 15C3.73478 15 3.48043 15.1054 3.29289 15.2929C3.10536 15.4804 3 15.7348 3 16C3 16.2652 3.10536 16.5196 3.29289 16.7071C3.48043 16.8946 3.73478 17 4 17C6.38614 17.0026 8.67378 17.9517 10.361 19.639C12.0483 21.3262 12.9974 23.6139 13 26C13 26.2652 13.1054 26.5196 13.2929 26.7071C13.4804 26.8946 13.7348 27 14 27C14.2652 27 14.5196 26.8946 14.7071 26.7071C14.8946 26.5196 15 26.2652 15 26C14.9967 23.0836 13.8367 20.2877 11.7745 18.2255C9.71234 16.1633 6.91637 15.0033 4 15Z" fill="currentColor"/>
<path d="M76.5 7V25C76.5 25.3978 76.342 25.7794 76.0607 26.0607C75.7794 26.342 75.3978 26.5 75 26.5H66C65.8674 26.5 65.7402 26.4473 65.6464 26.3536C65.5527 26.2598 65.5 26.1326 65.5 26C65.5 25.8674 65.5527 25.7402 65.6464 25.6464C65.7402 25.5527 65.8674 25.5 66 25.5H75C75.1326 25.5 75.2598 25.4473 75.3536 25.3536C75.4473 25.2598 75.5 25.1326 75.5 25V7C75.5 6.86739 75.4473 6.74021 75.3536 6.64645C75.2598 6.55268 75.1326 6.5 75 6.5H53C52.8674 6.5 52.7402 6.55268 52.6464 6.64645C52.5527 6.74021 52.5 6.86739 52.5 7V12C52.5 12.1326 52.4473 12.2598 52.3536 12.3536C52.2598 12.4473 52.1326 12.5 52 12.5C51.8674 12.5 51.7402 12.4473 51.6464 12.3536C51.5527 12.2598 51.5 12.1326 51.5 12V7C51.5 6.60218 51.658 6.22064 51.9393 5.93934C52.2206 5.65804 52.6022 5.5 53 5.5H75C75.3978 5.5 75.7794 5.65804 76.0607 5.93934C76.342 6.22064 76.5 6.60218 76.5 7ZM52 23.5C51.8674 23.5 51.7402 23.5527 51.6464 23.6464C51.5527 23.7402 51.5 23.8674 51.5 24C51.5 24.1326 51.5527 24.2598 51.6464 24.3536C51.7402 24.4473 51.8674 24.5 52 24.5C52.3978 24.5 52.7794 24.658 53.0607 24.9393C53.342 25.2206 53.5 25.6022 53.5 26C53.5 26.1326 53.5527 26.2598 53.6464 26.3536C53.7402 26.4473 53.8674 26.5 54 26.5C54.1326 26.5 54.2598 26.4473 54.3536 26.3536C54.4473 26.2598 54.5 26.1326 54.5 26C54.5 25.337 54.2366 24.7011 53.7678 24.2322C53.2989 23.7634 52.663 23.5 52 23.5ZM52 19.5C51.8674 19.5 51.7402 19.5527 51.6464 19.6464C51.5527 19.7402 51.5 19.8674 51.5 20C51.5 20.1326 51.5527 20.2598 51.6464 20.3536C51.7402 20.4473 51.8674 20.5 52 20.5C53.4582 20.5017 54.8562 21.0816 55.8873 22.1127C56.9184 23.1438 57.4983 24.5418 57.5 26C57.5 26.1326 57.5527 26.2598 57.6464 26.3536C57.7402 26.4473 57.8674 26.5 58 26.5C58.1326 26.5 58.2598 26.4473 58.3536 26.3536C58.4473 26.2598 58.5 26.1326 58.5 26C58.498 24.2767 57.8126 22.6246 56.594 21.406C55.3754 20.1874 53.7233 19.502 52 19.5ZM52 15.5C51.8674 15.5 51.7402 15.5527 51.6464 15.6464C51.5527 15.7402 51.5 15.8674 51.5 16C51.5 16.1326 51.5527 16.2598 51.6464 16.3536C51.7402 16.4473 51.8674 16.5 52 16.5C54.5187 16.5026 56.9336 17.5044 58.7146 19.2854C60.4956 21.0664 61.4974 23.4813 61.5 26C61.5 26.1326 61.5527 26.2598 61.6464 26.3536C61.7402 26.4473 61.8674 26.5 62 26.5C62.1326 26.5 62.2598 26.4473 62.3536 26.3536C62.4473 26.2598 62.5 26.1326 62.5 26C62.497 23.2161 61.3898 20.5472 59.4213 18.5787C57.4528 16.6102 54.7839 15.503 52 15.5Z" fill="currentColor"/>
<path d="M124.75 7V25C124.75 25.4641 124.566 25.9092 124.237 26.2374C123.909 26.5656 123.464 26.75 123 26.75H114C113.801 26.75 113.61 26.671 113.47 26.5303C113.329 26.3897 113.25 26.1989 113.25 26C113.25 25.8011 113.329 25.6103 113.47 25.4697C113.61 25.329 113.801 25.25 114 25.25H123C123.066 25.25 123.13 25.2237 123.177 25.1768C123.224 25.1299 123.25 25.0663 123.25 25V7C123.25 6.9337 123.224 6.87011 123.177 6.82322C123.13 6.77634 123.066 6.75 123 6.75H101C100.934 6.75 100.87 6.77634 100.823 6.82322C100.776 6.87011 100.75 6.9337 100.75 7V12C100.75 12.1989 100.671 12.3897 100.53 12.5303C100.39 12.671 100.199 12.75 100 12.75C99.8011 12.75 99.6103 12.671 99.4697 12.5303C99.329 12.3897 99.25 12.1989 99.25 12V7C99.25 6.53587 99.4344 6.09075 99.7626 5.76256C100.091 5.43437 100.536 5.25 101 5.25H123C123.464 5.25 123.909 5.43437 124.237 5.76256C124.566 6.09075 124.75 6.53587 124.75 7ZM100 23.25C99.8011 23.25 99.6103 23.329 99.4697 23.4697C99.329 23.6103 99.25 23.8011 99.25 24C99.25 24.1989 99.329 24.3897 99.4697 24.5303C99.6103 24.671 99.8011 24.75 100 24.75C100.332 24.75 100.649 24.8817 100.884 25.1161C101.118 25.3505 101.25 25.6685 101.25 26C101.25 26.1989 101.329 26.3897 101.47 26.5303C101.61 26.671 101.801 26.75 102 26.75C102.199 26.75 102.39 26.671 102.53 26.5303C102.671 26.3897 102.75 26.1989 102.75 26C102.75 25.2707 102.46 24.5712 101.945 24.0555C101.429 23.5397 100.729 23.25 100 23.25ZM100 19.25C99.8011 19.25 99.6103 19.329 99.4697 19.4697C99.329 19.6103 99.25 19.8011 99.25 20C99.25 20.1989 99.329 20.3897 99.4697 20.5303C99.6103 20.671 99.8011 20.75 100 20.75C101.392 20.75 102.728 21.3031 103.712 22.2877C104.697 23.2723 105.25 24.6076 105.25 26C105.25 26.1989 105.329 26.3897 105.47 26.5303C105.61 26.671 105.801 26.75 106 26.75C106.199 26.75 106.39 26.671 106.53 26.5303C106.671 26.3897 106.75 26.1989 106.75 26C106.748 24.2104 106.036 22.4947 104.771 21.2292C103.505 19.9638 101.79 19.252 100 19.25ZM100 15.25C99.8011 15.25 99.6103 15.329 99.4697 15.4697C99.329 15.6103 99.25 15.8011 99.25 16C99.25 16.1989 99.329 16.3897 99.4697 16.5303C99.6103 16.671 99.8011 16.75 100 16.75C102.452 16.753 104.803 17.7285 106.537 19.4626C108.272 21.1966 109.247 23.5477 109.25 26C109.25 26.1989 109.329 26.3897 109.47 26.5303C109.61 26.671 109.801 26.75 110 26.75C110.199 26.75 110.39 26.671 110.53 26.5303C110.671 26.3897 110.75 26.1989 110.75 26C110.747 23.1499 109.613 20.4176 107.598 18.4023C105.582 16.387 102.85 15.2533 100 15.25Z" fill="currentColor"/>
<path d="M173 7.5V24.5C173 25.163 172.737 25.7989 172.268 26.2678C171.799 26.7366 171.163 27 170.5 27H165.5C165.102 27 164.721 26.842 164.439 26.5607C164.158 26.2794 164 25.8978 164 25.5C164 25.1022 164.158 24.7206 164.439 24.4393C164.721 24.158 165.102 24 165.5 24H170V8H150V8.5C150 8.89782 149.842 9.27936 149.561 9.56066C149.279 9.84196 148.898 10 148.5 10C148.102 10 147.721 9.84196 147.439 9.56066C147.158 9.27936 147 8.89782 147 8.5V7.5C147 6.83696 147.263 6.20107 147.732 5.73223C148.201 5.26339 148.837 5 149.5 5H170.5C171.163 5 171.799 5.26339 172.268 5.73223C172.737 6.20107 173 6.83696 173 7.5ZM148.5 22C148.102 22 147.721 22.158 147.439 22.4393C147.158 22.7206 147 23.1022 147 23.5C147 23.8978 147.158 24.2794 147.439 24.5607C147.721 24.842 148.102 25 148.5 25C148.633 25 148.76 25.0527 148.854 25.1464C148.947 25.2402 149 25.3674 149 25.5C149 25.8978 149.158 26.2794 149.439 26.5607C149.721 26.842 150.102 27 150.5 27C150.898 27 151.279 26.842 151.561 26.5607C151.842 26.2794 152 25.8978 152 25.5C152 24.5717 151.631 23.6815 150.975 23.0251C150.318 22.3687 149.428 22 148.5 22ZM148.5 17C148.102 17 147.721 17.158 147.439 17.4393C147.158 17.7206 147 18.1022 147 18.5C147 18.8978 147.158 19.2794 147.439 19.5607C147.721 19.842 148.102 20 148.5 20C149.958 20.0017 151.356 20.5816 152.387 21.6127C153.418 22.6438 153.998 24.0418 154 25.5C154 25.8978 154.158 26.2794 154.439 26.5607C154.721 26.842 155.102 27 155.5 27C155.898 27 156.279 26.842 156.561 26.5607C156.842 26.2794 157 25.8978 157 25.5C156.998 23.2464 156.101 21.0857 154.508 19.4922C152.914 17.8986 150.754 17.0023 148.5 17ZM148.5 12C148.102 12 147.721 12.158 147.439 12.4393C147.158 12.7206 147 13.1022 147 13.5C147 13.8978 147.158 14.2794 147.439 14.5607C147.721 14.842 148.102 15 148.5 15C151.284 15.003 153.953 16.1102 155.921 18.0787C157.89 20.0472 158.997 22.7161 159 25.5C159 25.8978 159.158 26.2794 159.439 26.5607C159.721 26.842 160.102 27 160.5 27C160.898 27 161.279 26.842 161.561 26.5607C161.842 26.2794 162 25.8978 162 25.5C161.996 21.9208 160.572 18.4893 158.042 15.9584C155.511 13.4276 152.079 12.004 148.5 12Z" fill="currentColor"/>
<path d="M199 26C199 26.2652 198.895 26.5196 198.707 26.7071C198.52 26.8946 198.265 27 198 27C197.735 27 197.48 26.8946 197.293 26.7071C197.105 26.5196 197 26.2652 197 26C197 25.7348 196.895 25.4804 196.707 25.2929C196.52 25.1054 196.265 25 196 25C195.735 25 195.48 24.8946 195.293 24.7071C195.105 24.5196 195 24.2652 195 24C195 23.7348 195.105 23.4804 195.293 23.2929C195.48 23.1054 195.735 23 196 23C196.796 23 197.559 23.3161 198.121 23.8787C198.684 24.4413 199 25.2044 199 26ZM196 19C195.735 19 195.48 19.1054 195.293 19.2929C195.105 19.4804 195 19.7348 195 20C195 20.2652 195.105 20.5196 195.293 20.7071C195.48 20.8946 195.735 21 196 21C197.326 21 198.598 21.5268 199.536 22.4645C200.473 23.4021 201 24.6739 201 26C201 26.2652 201.105 26.5196 201.293 26.7071C201.48 26.8946 201.735 27 202 27C202.265 27 202.52 26.8946 202.707 26.7071C202.895 26.5196 203 26.2652 203 26C202.998 24.1441 202.26 22.3648 200.948 21.0524C199.635 19.7401 197.856 19.002 196 19ZM196 15C195.735 15 195.48 15.1054 195.293 15.2929C195.105 15.4804 195 15.7348 195 16C195 16.2652 195.105 16.5196 195.293 16.7071C195.48 16.8946 195.735 17 196 17C198.386 17.0026 200.674 17.9517 202.361 19.639C204.048 21.3262 204.997 23.6139 205 26C205 26.2652 205.105 26.5196 205.293 26.7071C205.48 26.8946 205.735 27 206 27C206.265 27 206.52 26.8946 206.707 26.7071C206.895 26.5196 207 26.2652 207 26C206.997 23.0836 205.837 20.2877 203.775 18.2255C201.712 16.1633 198.916 15.0033 196 15ZM219 5H197C196.47 5 195.961 5.21071 195.586 5.58579C195.211 5.96086 195 6.46957 195 7V12C195 12.2652 195.105 12.5196 195.293 12.7071C195.48 12.8946 195.735 13 196 13C199.447 13.0036 202.751 14.3744 205.188 16.8116C207.626 19.2488 208.996 22.5533 209 26C209 26.2652 209.105 26.5196 209.293 26.7071C209.48 26.8946 209.735 27 210 27H219C219.53 27 220.039 26.7893 220.414 26.4142C220.789 26.0391 221 25.5304 221 25V7C221 6.46957 220.789 5.96086 220.414 5.58579C220.039 5.21071 219.53 5 219 5Z" fill="currentColor"/>
<path opacity="0.2" d="M268 7V25C268 25.2652 267.895 25.5196 267.707 25.7071C267.52 25.8946 267.265 26 267 26H246C246 25.4696 245.789 24.9609 245.414 24.5858C245.039 24.2107 244.53 24 244 24V7C244 6.73478 244.105 6.48043 244.293 6.29289C244.48 6.10536 244.735 6 245 6H267C267.265 6 267.52 6.10536 267.707 6.29289C267.895 6.48043 268 6.73478 268 7Z" fill="currentColor"/>
<path d="M269 7V25C269 25.5304 268.789 26.0391 268.414 26.4142C268.039 26.7893 267.53 27 267 27H258C257.735 27 257.48 26.8946 257.293 26.7071C257.105 26.5196 257 26.2652 257 26C257 25.7348 257.105 25.4804 257.293 25.2929C257.48 25.1054 257.735 25 258 25H267V7H245V12C245 12.2652 244.895 12.5196 244.707 12.7071C244.52 12.8946 244.265 13 244 13C243.735 13 243.48 12.8946 243.293 12.7071C243.105 12.5196 243 12.2652 243 12V7C243 6.46957 243.211 5.96086 243.586 5.58579C243.961 5.21071 244.47 5 245 5H267C267.53 5 268.039 5.21071 268.414 5.58579C268.789 5.96086 269 6.46957 269 7ZM244 23C243.735 23 243.48 23.1054 243.293 23.2929C243.105 23.4804 243 23.7348 243 24C243 24.2652 243.105 24.5196 243.293 24.7071C243.48 24.8946 243.735 25 244 25C244.265 25 244.52 25.1054 244.707 25.2929C244.895 25.4804 245 25.7348 245 26C245 26.2652 245.105 26.5196 245.293 26.7071C245.48 26.8946 245.735 27 246 27C246.265 27 246.52 26.8946 246.707 26.7071C246.895 26.5196 247 26.2652 247 26C247 25.2044 246.684 24.4413 246.121 23.8787C245.559 23.3161 244.796 23 244 23ZM244 19C243.735 19 243.48 19.1054 243.293 19.2929C243.105 19.4804 243 19.7348 243 20C243 20.2652 243.105 20.5196 243.293 20.7071C243.48 20.8946 243.735 21 244 21C245.326 21 246.598 21.5268 247.536 22.4645C248.473 23.4021 249 24.6739 249 26C249 26.2652 249.105 26.5196 249.293 26.7071C249.48 26.8946 249.735 27 250 27C250.265 27 250.52 26.8946 250.707 26.7071C250.895 26.5196 251 26.2652 251 26C250.998 24.1441 250.26 22.3648 248.948 21.0524C247.635 19.7401 245.856 19.002 244 19ZM244 15C243.735 15 243.48 15.1054 243.293 15.2929C243.105 15.4804 243 15.7348 243 16C243 16.2652 243.105 16.5196 243.293 16.7071C243.48 16.8946 243.735 17 244 17C246.386 17.0026 248.674 17.9517 250.361 19.639C252.048 21.3262 252.997 23.6139 253 26C253 26.2652 253.105 26.5196 253.293 26.7071C253.48 26.8946 253.735 27 254 27C254.265 27 254.52 26.8946 254.707 26.7071C254.895 26.5196 255 26.2652 255 26C254.997 23.0836 253.837 20.2877 251.775 18.2255C249.712 16.1633 246.916 15.0033 244 15Z" fill="currentColor"/>
</g>
<defs>
<clipPath id="clip0_17_16414">
<rect width="272" height="32" rx="5" fill="white"/>
</clipPath>
</defs>
</svg>
