<svg width="272" height="32" viewBox="0 0 272 32" fill="none" xmlns="http://www.w3.org/2000/svg">
<g clip-path="url(#clip0_17_16386)">
<path d="M29.7075 22.2926C29.8005 22.3854 29.8742 22.4957 29.9246 22.6171C29.9749 22.7385 30.0008 22.8687 30.0008 23.0001C30.0008 23.1315 29.9749 23.2616 29.9246 23.383C29.8742 23.5044 29.8005 23.6147 29.7075 23.7076L26.7075 26.7076C26.5199 26.8952 26.2654 27.0006 26 27.0006C25.7346 27.0006 25.4801 26.8952 25.2925 26.7076C25.1049 26.5199 24.9994 26.2654 24.9994 26.0001C24.9994 25.7347 25.1049 25.4802 25.2925 25.2926L26.5863 24.0001H21.515C21.1971 23.9997 20.8838 23.9235 20.6012 23.7779C20.3186 23.6322 20.0748 23.4213 19.89 23.1626L10.485 10.0001H4C3.73478 10.0001 3.48043 9.89471 3.29289 9.70717C3.10536 9.51964 3 9.26528 3 9.00007C3 8.73485 3.10536 8.4805 3.29289 8.29296C3.48043 8.10542 3.73478 8.00007 4 8.00007H10.485C10.8029 8.00046 11.1162 8.07664 11.3988 8.22229C11.6814 8.36794 11.9252 8.57886 12.11 8.83757L21.515 22.0001H26.5863L25.2925 20.7076C25.1049 20.5199 24.9994 20.2654 24.9994 20.0001C24.9994 19.7347 25.1049 19.4802 25.2925 19.2926C25.4801 19.1049 25.7346 18.9995 26 18.9995C26.2654 18.9995 26.5199 19.1049 26.7075 19.2926L29.7075 22.2926ZM17.875 13.3751C17.9819 13.4514 18.1027 13.5059 18.2307 13.5356C18.3586 13.5652 18.4911 13.5693 18.6207 13.5477C18.7502 13.5262 18.8742 13.4793 18.9856 13.4097C19.097 13.3402 19.1937 13.2494 19.27 13.1426L21.52 10.0026H26.5912L25.2925 11.2926C25.1049 11.4802 24.9994 11.7347 24.9994 12.0001C24.9994 12.2654 25.1049 12.5199 25.2925 12.7076C25.4801 12.8952 25.7346 13.0006 26 13.0006C26.2654 13.0006 26.5199 12.8952 26.7075 12.7076L29.7075 9.70757C29.8005 9.6147 29.8742 9.50441 29.9246 9.38301C29.9749 9.26161 30.0008 9.13148 30.0008 9.00007C30.0008 8.86865 29.9749 8.73853 29.9246 8.61713C29.8742 8.49573 29.8005 8.38544 29.7075 8.29257L26.7075 5.29257C26.5199 5.10493 26.2654 4.99951 26 4.99951C25.7346 4.99951 25.4801 5.10493 25.2925 5.29257C25.1049 5.48021 24.9994 5.7347 24.9994 6.00007C24.9994 6.26543 25.1049 6.51993 25.2925 6.70757L26.5863 8.00007H21.515C21.1971 8.00046 20.8838 8.07664 20.6012 8.22229C20.3186 8.36794 20.0748 8.57886 19.89 8.83757L17.6437 11.9776C17.567 12.0844 17.512 12.2054 17.4821 12.3336C17.4521 12.4617 17.4478 12.5945 17.4693 12.7243C17.4908 12.8542 17.5377 12.9785 17.6073 13.0901C17.6769 13.2018 17.7679 13.2986 17.875 13.3751ZM14.125 18.6251C14.0181 18.5487 13.8973 18.4942 13.7693 18.4646C13.6414 18.4349 13.5089 18.4308 13.3793 18.4524C13.2498 18.474 13.1258 18.5209 13.0144 18.5904C12.903 18.6599 12.8063 18.7507 12.73 18.8576L10.485 22.0001H4C3.73478 22.0001 3.48043 22.1054 3.29289 22.293C3.10536 22.4805 3 22.7349 3 23.0001C3 23.2653 3.10536 23.5196 3.29289 23.7072C3.48043 23.8947 3.73478 24.0001 4 24.0001H10.485C10.8029 23.9997 11.1162 23.9235 11.3988 23.7779C11.6814 23.6322 11.9252 23.4213 12.11 23.1626L14.3538 20.0226C14.4307 19.9158 14.4858 19.795 14.5159 19.667C14.546 19.5389 14.5506 19.4062 14.5294 19.2764C14.5081 19.1465 14.4614 19.0222 14.3921 18.9104C14.3227 18.7987 14.2319 18.7017 14.125 18.6251Z" fill="currentColor"/>
<path d="M77.3538 22.646C77.4002 22.6925 77.4371 22.7476 77.4623 22.8083C77.4874 22.869 77.5004 22.9341 77.5004 22.9998C77.5004 23.0655 77.4874 23.1306 77.4623 23.1913C77.4371 23.252 77.4002 23.3071 77.3538 23.3535L74.3538 26.3535C74.2599 26.4474 74.1327 26.5001 74 26.5001C73.8673 26.5001 73.7401 26.4474 73.6462 26.3535C73.5524 26.2597 73.4997 26.1325 73.4997 25.9998C73.4997 25.8671 73.5524 25.7399 73.6462 25.646L75.7925 23.4998H69.515C69.2764 23.5003 69.0411 23.4438 68.8287 23.3351C68.6163 23.2264 68.4329 23.0686 68.2938 22.8748L58.8925 9.70854C58.8461 9.64381 58.7849 9.59109 58.714 9.55478C58.6432 9.51847 58.5646 9.49962 58.485 9.49979H52C51.8674 9.49979 51.7402 9.44711 51.6464 9.35334C51.5527 9.25958 51.5 9.1324 51.5 8.99979C51.5 8.86718 51.5527 8.74 51.6464 8.64624C51.7402 8.55247 51.8674 8.49979 52 8.49979H58.485C58.7236 8.49933 58.9589 8.55579 59.1713 8.66449C59.3837 8.77319 59.5671 8.93099 59.7063 9.12479L69.1075 22.2885C69.1539 22.3533 69.2151 22.406 69.286 22.4423C69.3568 22.4786 69.4354 22.4975 69.515 22.4973H75.7925L73.6462 20.351C73.5524 20.2572 73.4997 20.13 73.4997 19.9973C73.4997 19.8646 73.5524 19.7374 73.6462 19.6435C73.7401 19.5497 73.8673 19.497 74 19.497C74.1327 19.497 74.2599 19.5497 74.3538 19.6435L77.3538 22.646ZM66.1675 12.966C66.2209 13.0042 66.2814 13.0315 66.3453 13.0463C66.4093 13.0611 66.4756 13.0632 66.5403 13.0524C66.6051 13.0416 66.6671 13.0181 66.7228 12.9834C66.7785 12.9486 66.8268 12.9032 66.865 12.8498L69.1075 9.70854C69.1539 9.64381 69.2151 9.59109 69.286 9.55478C69.3568 9.51847 69.4354 9.49962 69.515 9.49979H75.7925L73.6462 11.646C73.5998 11.6925 73.5629 11.7476 73.5378 11.8083C73.5127 11.869 73.4997 11.9341 73.4997 11.9998C73.4997 12.0655 73.5127 12.1305 73.5378 12.1912C73.5629 12.2519 73.5998 12.3071 73.6462 12.3535C73.6927 12.4 73.7479 12.4368 73.8086 12.462C73.8692 12.4871 73.9343 12.5001 74 12.5001C74.0657 12.5001 74.1308 12.4871 74.1914 12.462C74.2521 12.4368 74.3073 12.4 74.3538 12.3535L77.3538 9.35354C77.4002 9.3071 77.4371 9.25196 77.4623 9.19126C77.4874 9.13056 77.5004 9.0655 77.5004 8.99979C77.5004 8.93408 77.4874 8.86902 77.4623 8.80832C77.4371 8.74762 77.4002 8.69248 77.3538 8.64604L74.3538 5.64604C74.3073 5.59958 74.2521 5.56273 74.1914 5.53759C74.1308 5.51245 74.0657 5.49951 74 5.49951C73.9343 5.49951 73.8692 5.51245 73.8086 5.53759C73.7479 5.56273 73.6927 5.59958 73.6462 5.64604C73.5998 5.69249 73.5629 5.74764 73.5378 5.80834C73.5127 5.86904 73.4997 5.93409 73.4997 5.99979C73.4997 6.06549 73.5127 6.13054 73.5378 6.19124C73.5629 6.25193 73.5998 6.30708 73.6462 6.35354L75.7925 8.49979H69.515C69.2764 8.49933 69.0411 8.55579 68.8287 8.66449C68.6163 8.77319 68.4329 8.93099 68.2938 9.12479L66.0513 12.2685C66.0131 12.322 65.9858 12.3824 65.971 12.4464C65.9562 12.5103 65.9541 12.5766 65.9649 12.6414C65.9757 12.7061 65.9992 12.7681 66.0339 12.8239C66.0687 12.8796 66.1141 12.9279 66.1675 12.966ZM61.8325 19.0335C61.7791 18.9954 61.7186 18.9681 61.6547 18.9533C61.5907 18.9385 61.5244 18.9364 61.4597 18.9472C61.3949 18.958 61.3329 18.9814 61.2772 19.0162C61.2215 19.051 61.1732 19.0964 61.135 19.1498L58.8925 22.291C58.8461 22.3558 58.7849 22.4085 58.714 22.4448C58.6432 22.4811 58.5646 22.5 58.485 22.4998H52C51.8674 22.4998 51.7402 22.5525 51.6464 22.6462C51.5527 22.74 51.5 22.8672 51.5 22.9998C51.5 23.1324 51.5527 23.2596 51.6464 23.3533C51.7402 23.4471 51.8674 23.4998 52 23.4998H58.485C58.7236 23.5003 58.9589 23.4438 59.1713 23.3351C59.3837 23.2264 59.5671 23.0686 59.7063 22.8748L61.9487 19.7335C61.9873 19.68 62.0149 19.6194 62.0299 19.5552C62.045 19.491 62.0471 19.4244 62.0363 19.3593C62.0255 19.2943 62.0019 19.232 61.967 19.1761C61.932 19.1202 61.8863 19.0717 61.8325 19.0335Z" fill="currentColor"/>
<path d="M125.53 22.4698C125.67 22.6105 125.749 22.8011 125.749 22.9998C125.749 23.1986 125.67 23.3892 125.53 23.5298L122.53 26.5298C122.388 26.6623 122.2 26.7344 122.005 26.731C121.811 26.7276 121.626 26.6489 121.488 26.5115C121.351 26.3741 121.272 26.1887 121.269 25.9944C121.265 25.8001 121.338 25.612 121.47 25.4698L123.19 23.7498H117.515C117.236 23.7495 116.962 23.6829 116.714 23.5556C116.466 23.4282 116.252 23.2437 116.09 23.0173L106.689 9.85485C106.666 9.82236 106.635 9.79589 106.6 9.77762C106.564 9.75935 106.525 9.74983 106.485 9.74985H100C99.8011 9.74985 99.6103 9.67083 99.4697 9.53018C99.329 9.38952 99.25 9.19876 99.25 8.99985C99.25 8.80093 99.329 8.61017 99.4697 8.46952C99.6103 8.32886 99.8011 8.24985 100 8.24985H106.485C106.764 8.25016 107.038 8.31676 107.286 8.44412C107.534 8.57149 107.748 8.75598 107.91 8.98235L117.311 22.1448C117.334 22.1773 117.365 22.2038 117.4 22.2221C117.436 22.2403 117.475 22.2499 117.515 22.2498H123.19L121.47 20.5298C121.338 20.3877 121.265 20.1996 121.269 20.0053C121.272 19.811 121.351 19.6256 121.488 19.4882C121.626 19.3508 121.811 19.2721 122.005 19.2687C122.2 19.2652 122.388 19.3374 122.53 19.4698L125.53 22.4698ZM114.021 13.1698C114.101 13.2271 114.192 13.2679 114.288 13.2901C114.384 13.3123 114.483 13.3153 114.581 13.2991C114.678 13.2828 114.771 13.2476 114.854 13.1954C114.938 13.1432 115.01 13.075 115.067 12.9948L117.317 9.85485C117.341 9.82236 117.371 9.79589 117.407 9.77762C117.442 9.75935 117.481 9.74983 117.521 9.74985H123.196L121.47 11.4698C121.396 11.5385 121.337 11.6213 121.296 11.7133C121.255 11.8053 121.233 11.9046 121.231 12.0053C121.23 12.106 121.248 12.2061 121.286 12.2994C121.324 12.3928 121.38 12.4777 121.451 12.5489C121.522 12.6201 121.607 12.6762 121.7 12.714C121.794 12.7517 121.894 12.7702 121.995 12.7684C122.095 12.7667 122.195 12.7446 122.287 12.7036C122.379 12.6626 122.461 12.6035 122.53 12.5298L125.53 9.52985C125.67 9.38922 125.749 9.1986 125.749 8.99985C125.749 8.8011 125.67 8.61047 125.53 8.46985L122.53 5.46985C122.388 5.33737 122.2 5.26524 122.005 5.26867C121.811 5.2721 121.626 5.35081 121.488 5.48822C121.351 5.62564 121.272 5.81102 121.269 6.00532C121.265 6.19963 121.338 6.38767 121.47 6.52985L123.19 8.24985H117.515C117.236 8.25016 116.962 8.31676 116.714 8.44412C116.466 8.57149 116.252 8.75598 116.09 8.98235L113.847 12.1248C113.732 12.2865 113.686 12.4874 113.718 12.6833C113.751 12.8792 113.86 13.0542 114.021 13.1698ZM109.979 18.8298C109.899 18.7726 109.808 18.7318 109.712 18.7096C109.616 18.6874 109.517 18.6844 109.419 18.7006C109.322 18.7169 109.229 18.7521 109.146 18.8043C109.062 18.8565 108.99 18.9246 108.932 19.0048L106.689 22.1448C106.666 22.1773 106.635 22.2038 106.6 22.2221C106.564 22.2403 106.525 22.2499 106.485 22.2498H100C99.8011 22.2498 99.6103 22.3289 99.4697 22.4695C99.329 22.6102 99.25 22.8009 99.25 22.9998C99.25 23.1988 99.329 23.3895 99.4697 23.5302C99.6103 23.6708 99.8011 23.7498 100 23.7498H106.485C106.764 23.7495 107.038 23.6829 107.286 23.5556C107.534 23.4282 107.748 23.2437 107.91 23.0173L110.153 19.8748C110.268 19.7131 110.314 19.5123 110.282 19.3164C110.249 19.1205 110.14 18.9455 109.979 18.8298Z" fill="currentColor"/>
<path d="M174.061 21.9386C174.201 22.078 174.312 22.2436 174.388 22.4259C174.463 22.6082 174.502 22.8037 174.502 23.0011C174.502 23.1986 174.463 23.394 174.388 23.5764C174.312 23.7587 174.201 23.9243 174.061 24.0636L171.061 27.0636C170.779 27.3454 170.397 27.5037 169.999 27.5037C169.6 27.5037 169.218 27.3454 168.936 27.0636C168.654 26.7818 168.496 26.3997 168.496 26.0011C168.496 25.6026 168.654 25.2204 168.936 24.9386L169.375 24.4999H165.515C165.117 24.4999 164.725 24.4049 164.371 24.2227C164.017 24.0405 163.711 23.7764 163.48 23.4524L154.227 10.4999H148C147.602 10.4999 147.221 10.3419 146.939 10.0605C146.658 9.77924 146.5 9.39771 146.5 8.99989C146.5 8.60206 146.658 8.22053 146.939 7.93923C147.221 7.65792 147.602 7.49989 148 7.49989H154.485C154.883 7.50022 155.275 7.59528 155.629 7.77722C155.983 7.95915 156.288 8.22272 156.52 8.54614L165.77 21.4999H169.375L168.935 21.0611C168.653 20.7793 168.495 20.3972 168.495 19.9986C168.495 19.6001 168.653 19.2179 168.935 18.9361C169.217 18.6543 169.599 18.496 169.997 18.496C170.396 18.496 170.778 18.6543 171.06 18.9361L174.061 21.9386ZM157.8 19.0799C157.64 18.9654 157.458 18.8836 157.267 18.8391C157.075 18.7947 156.876 18.7885 156.682 18.8209C156.487 18.8533 156.301 18.9236 156.134 19.0279C155.967 19.1322 155.822 19.2683 155.708 19.4286L154.227 21.4999H148C147.602 21.4999 147.221 21.6579 146.939 21.9392C146.658 22.2205 146.5 22.6021 146.5 22.9999C146.5 23.3977 146.658 23.7792 146.939 24.0605C147.221 24.3419 147.602 24.4999 148 24.4999H154.485C154.883 24.4999 155.275 24.4049 155.629 24.2227C155.983 24.0405 156.289 23.7764 156.52 23.4524L158.145 21.1724C158.377 20.8491 158.47 20.4471 158.406 20.0547C158.341 19.6623 158.123 19.3117 157.8 19.0799ZM162.2 12.9199C162.36 13.0344 162.542 13.1162 162.733 13.1606C162.925 13.2051 163.124 13.2113 163.318 13.1789C163.513 13.1465 163.699 13.0762 163.866 12.9719C164.033 12.8676 164.178 12.7314 164.292 12.5711L165.772 10.4999H169.375L168.935 10.9386C168.653 11.2204 168.495 11.6026 168.495 12.0011C168.495 12.3997 168.653 12.7818 168.935 13.0636C169.217 13.3454 169.599 13.5037 169.997 13.5037C170.396 13.5037 170.778 13.3454 171.06 13.0636L174.06 10.0636C174.2 9.92428 174.311 9.75869 174.387 9.57636C174.462 9.39404 174.501 9.19856 174.501 9.00114C174.501 8.80372 174.462 8.60824 174.387 8.42591C174.311 8.24358 174.2 8.07799 174.06 7.93864L171.06 4.93864C170.778 4.65684 170.396 4.49854 169.997 4.49854C169.599 4.49854 169.217 4.65684 168.935 4.93864C168.653 5.22043 168.495 5.60262 168.495 6.00114C168.495 6.39965 168.653 6.78184 168.935 7.06364L169.375 7.49989H165.515C165.117 7.50022 164.725 7.59528 164.371 7.77722C164.017 7.95915 163.712 8.22272 163.48 8.54614L161.855 10.8274C161.623 11.1507 161.53 11.5527 161.594 11.9451C161.659 12.3374 161.877 12.6881 162.2 12.9199Z" fill="currentColor"/>
<path d="M221.708 22.2923C221.8 22.3852 221.874 22.4955 221.925 22.6169C221.975 22.7383 222.001 22.8684 222.001 22.9998C222.001 23.1312 221.975 23.2614 221.925 23.3828C221.874 23.5042 221.8 23.6144 221.708 23.7073L218.708 26.7073C218.568 26.8473 218.389 26.9427 218.195 26.9813C218.001 27.02 217.8 27.0002 217.617 26.9244C217.434 26.8487 217.278 26.7204 217.168 26.5558C217.058 26.3912 217 26.1977 217 25.9998V23.9998H213.515C213.197 23.9994 212.884 23.9232 212.601 23.7776C212.319 23.6319 212.075 23.421 211.89 23.1623L202.485 9.99981H196C195.735 9.99981 195.48 9.89445 195.293 9.70692C195.105 9.51938 195 9.26503 195 8.99981C195 8.73459 195.105 8.48024 195.293 8.2927C195.48 8.10517 195.735 7.99981 196 7.99981H202.485C202.803 8.0002 203.116 8.07638 203.399 8.22203C203.681 8.36768 203.925 8.5786 204.11 8.83731L213.515 21.9998H217V19.9998C217 19.8019 217.058 19.6084 217.168 19.4438C217.278 19.2792 217.434 19.1509 217.617 19.0752C217.8 18.9994 218.001 18.9796 218.195 19.0183C218.389 19.0569 218.568 19.1523 218.708 19.2923L221.708 22.2923ZM209.875 13.3748C209.982 13.4511 210.103 13.5057 210.231 13.5353C210.359 13.5649 210.491 13.5691 210.621 13.5475C210.75 13.5259 210.874 13.479 210.986 13.4095C211.097 13.34 211.194 13.2492 211.27 13.1423L213.52 10.0023H217V11.9998C217 12.1977 217.058 12.3912 217.168 12.5558C217.278 12.7204 217.434 12.8487 217.617 12.9244C217.8 13.0002 218.001 13.02 218.195 12.9813C218.389 12.9427 218.568 12.8473 218.708 12.7073L221.708 9.70731C221.8 9.61444 221.874 9.50415 221.925 9.38275C221.975 9.26135 222.001 9.13123 222.001 8.99981C222.001 8.8684 221.975 8.73827 221.925 8.61687C221.874 8.49547 221.8 8.38518 221.708 8.29231L218.708 5.29231C218.568 5.1523 218.389 5.05693 218.195 5.01828C218.001 4.97963 217.8 4.99944 217.617 5.07519C217.434 5.15094 217.278 5.27923 217.168 5.44383C217.058 5.60842 217 5.80192 217 5.99981V7.99981H213.515C213.197 8.0002 212.884 8.07638 212.601 8.22203C212.319 8.36768 212.075 8.5786 211.89 8.83731L209.644 11.9773C209.567 12.0842 209.512 12.2052 209.482 12.3333C209.452 12.4614 209.448 12.5942 209.469 12.7241C209.491 12.8539 209.538 12.9782 209.607 13.0899C209.677 13.2015 209.768 13.2984 209.875 13.3748ZM206.125 18.6248C206.018 18.5485 205.897 18.4939 205.769 18.4643C205.641 18.4347 205.509 18.4305 205.379 18.4521C205.25 18.4737 205.126 18.5206 205.014 18.5901C204.903 18.6597 204.806 18.7504 204.73 18.8573L202.485 21.9998H196C195.735 21.9998 195.48 22.1052 195.293 22.2927C195.105 22.4802 195 22.7346 195 22.9998C195 23.265 195.105 23.5194 195.293 23.7069C195.48 23.8945 195.735 23.9998 196 23.9998H202.485C202.803 23.9994 203.116 23.9232 203.399 23.7776C203.681 23.6319 203.925 23.421 204.11 23.1623L206.354 20.0223C206.431 19.9156 206.486 19.7947 206.516 19.6667C206.546 19.5386 206.551 19.4059 206.529 19.2761C206.508 19.1463 206.461 19.0219 206.392 18.9102C206.323 18.7984 206.232 18.7014 206.125 18.6248Z" fill="currentColor"/>
<path opacity="0.2" d="M251.299 9.41875L256 16L251.299 22.5812C251.206 22.7108 251.084 22.8163 250.943 22.8892C250.801 22.962 250.644 23 250.485 23H244V9H250.485C250.644 9 250.801 9.03799 250.943 9.11082C251.084 9.18366 251.206 9.28922 251.299 9.41875ZM261.515 9C261.356 9 261.199 9.03799 261.057 9.11082C260.916 9.18366 260.794 9.28922 260.701 9.41875L256 16L260.701 22.5812C260.794 22.7108 260.916 22.8163 261.057 22.8892C261.199 22.962 261.356 23 261.515 23H269V9H261.515Z" fill="currentColor"/>
<path d="M269.708 22.2926C269.8 22.3854 269.874 22.4957 269.925 22.6171C269.975 22.7385 270.001 22.8687 270.001 23.0001C270.001 23.1315 269.975 23.2616 269.925 23.383C269.874 23.5044 269.8 23.6147 269.708 23.7076L266.708 26.7076C266.52 26.8952 266.265 27.0006 266 27.0006C265.735 27.0006 265.48 26.8952 265.292 26.7076C265.105 26.5199 264.999 26.2654 264.999 26.0001C264.999 25.7347 265.105 25.4802 265.292 25.2926L266.586 24.0001H261.515C261.197 23.9997 260.884 23.9235 260.601 23.7779C260.319 23.6322 260.075 23.4213 259.89 23.1626L250.485 10.0001H244C243.735 10.0001 243.48 9.89471 243.293 9.70717C243.105 9.51964 243 9.26528 243 9.00007C243 8.73485 243.105 8.4805 243.293 8.29296C243.48 8.10542 243.735 8.00007 244 8.00007H250.485C250.803 8.00046 251.116 8.07664 251.399 8.22229C251.681 8.36794 251.925 8.57886 252.11 8.83757L261.515 22.0001H266.586L265.292 20.7076C265.105 20.5199 264.999 20.2654 264.999 20.0001C264.999 19.7347 265.105 19.4802 265.292 19.2926C265.48 19.1049 265.735 18.9995 266 18.9995C266.265 18.9995 266.52 19.1049 266.708 19.2926L269.708 22.2926ZM257.875 13.3751C257.982 13.4514 258.103 13.5059 258.231 13.5356C258.359 13.5652 258.491 13.5693 258.621 13.5477C258.75 13.5262 258.874 13.4793 258.986 13.4097C259.097 13.3402 259.194 13.2494 259.27 13.1426L261.52 10.0026H266.591L265.292 11.2926C265.105 11.4802 264.999 11.7347 264.999 12.0001C264.999 12.2654 265.105 12.5199 265.292 12.7076C265.48 12.8952 265.735 13.0006 266 13.0006C266.265 13.0006 266.52 12.8952 266.708 12.7076L269.708 9.70757C269.8 9.6147 269.874 9.50441 269.925 9.38301C269.975 9.26161 270.001 9.13148 270.001 9.00007C270.001 8.86865 269.975 8.73853 269.925 8.61713C269.874 8.49573 269.8 8.38544 269.708 8.29257L266.708 5.29257C266.52 5.10493 266.265 4.99951 266 4.99951C265.735 4.99951 265.48 5.10493 265.292 5.29257C265.105 5.48021 264.999 5.7347 264.999 6.00007C264.999 6.26543 265.105 6.51993 265.292 6.70757L266.586 8.00007H261.515C261.197 8.00046 260.884 8.07664 260.601 8.22229C260.319 8.36794 260.075 8.57886 259.89 8.83757L257.644 11.9776C257.567 12.0844 257.512 12.2054 257.482 12.3336C257.452 12.4617 257.448 12.5945 257.469 12.7243C257.491 12.8542 257.538 12.9785 257.607 13.0901C257.677 13.2018 257.768 13.2986 257.875 13.3751ZM254.125 18.6251C254.018 18.5487 253.897 18.4942 253.769 18.4646C253.641 18.4349 253.509 18.4308 253.379 18.4524C253.25 18.474 253.126 18.5209 253.014 18.5904C252.903 18.6599 252.806 18.7507 252.73 18.8576L250.485 22.0001H244C243.735 22.0001 243.48 22.1054 243.293 22.293C243.105 22.4805 243 22.7349 243 23.0001C243 23.2653 243.105 23.5196 243.293 23.7072C243.48 23.8947 243.735 24.0001 244 24.0001H250.485C250.803 23.9997 251.116 23.9235 251.399 23.7779C251.681 23.6322 251.925 23.4213 252.11 23.1626L254.354 20.0226C254.431 19.9158 254.486 19.795 254.516 19.667C254.546 19.5389 254.551 19.4062 254.529 19.2764C254.508 19.1465 254.461 19.0222 254.392 18.9104C254.323 18.7987 254.232 18.7017 254.125 18.6251Z" fill="currentColor"/>
</g>
<defs>
<clipPath id="clip0_17_16386">
<rect width="272" height="32" rx="5" fill="white"/>
</clipPath>
</defs>
</svg>
