<svg width="272" height="32" viewBox="0 0 272 32" fill="none" xmlns="http://www.w3.org/2000/svg">
<g clip-path="url(#clip0_17_16344)">
<path d="M16 3C13.4288 3 10.9154 3.76244 8.77759 5.1909C6.63975 6.61935 4.97351 8.64968 3.98957 11.0251C3.00563 13.4006 2.74819 16.0144 3.2498 18.5362C3.75141 21.0579 4.98953 23.3743 6.80762 25.1924C8.6257 27.0105 10.9421 28.2486 13.4638 28.7502C15.9856 29.2518 18.5995 28.9944 20.9749 28.0104C23.3503 27.0265 25.3807 25.3603 26.8091 23.2224C28.2376 21.0846 29 18.5712 29 16C28.9964 12.5533 27.6256 9.24882 25.1884 6.81163C22.7512 4.37445 19.4467 3.00364 16 3ZM16 27C13.8244 27 11.6977 26.3549 9.88873 25.1462C8.07979 23.9375 6.66989 22.2195 5.83733 20.2095C5.00477 18.1995 4.78693 15.9878 5.21137 13.854C5.63581 11.7202 6.68345 9.7602 8.22183 8.22183C9.76021 6.68345 11.7202 5.6358 13.854 5.21136C15.9878 4.78692 18.1995 5.00476 20.2095 5.83733C22.2195 6.66989 23.9375 8.07979 25.1462 9.88873C26.3549 11.6977 27 13.8244 27 16C26.9967 18.9164 25.8367 21.7123 23.7745 23.7745C21.7123 25.8367 18.9164 26.9967 16 27ZM20.485 10.125C20.3288 10.0385 20.1522 9.99551 19.9738 10.0003C19.7953 10.0052 19.6213 10.0577 19.47 10.1525L13 14.1962V11C13 10.7348 12.8946 10.4804 12.7071 10.2929C12.5196 10.1054 12.2652 10 12 10C11.7348 10 11.4804 10.1054 11.2929 10.2929C11.1054 10.4804 11 10.7348 11 11V21C11 21.2652 11.1054 21.5196 11.2929 21.7071C11.4804 21.8946 11.7348 22 12 22C12.2652 22 12.5196 21.8946 12.7071 21.7071C12.8946 21.5196 13 21.2652 13 21V17.8037L19.47 21.8475C19.6213 21.9421 19.7952 21.9944 19.9736 21.9992C20.152 22.0039 20.3284 21.9607 20.4846 21.8743C20.6407 21.7878 20.7708 21.6611 20.8614 21.5074C20.9521 21.3537 20.9999 21.1785 21 21V11C21.0001 10.8215 20.9524 10.6461 20.8618 10.4923C20.7712 10.3384 20.6411 10.2116 20.485 10.125ZM19 19.1963L13.8863 16L19 12.8038V19.1963Z" fill="currentColor"/>
<path d="M64 3.5C61.5277 3.5 59.111 4.23311 57.0554 5.60663C54.9998 6.98015 53.3976 8.93238 52.4515 11.2165C51.5054 13.5005 51.2579 16.0139 51.7402 18.4386C52.2225 20.8634 53.413 23.0907 55.1612 24.8388C56.9093 26.587 59.1366 27.7775 61.5614 28.2598C63.9861 28.7421 66.4995 28.4946 68.7835 27.5485C71.0676 26.6024 73.0199 25.0002 74.3934 22.9446C75.7669 20.889 76.5 18.4723 76.5 16C76.4964 12.6859 75.1782 9.5086 72.8348 7.16518C70.4914 4.82177 67.3141 3.50364 64 3.5ZM64 27.5C61.7255 27.5 59.5021 26.8255 57.6109 25.5619C55.7198 24.2983 54.2458 22.5022 53.3754 20.4009C52.505 18.2995 52.2772 15.9872 52.721 13.7565C53.1647 11.5257 54.26 9.47658 55.8683 7.86827C57.4766 6.25997 59.5257 5.1647 61.7565 4.72097C63.9872 4.27724 66.2995 4.50498 68.4009 5.37539C70.5022 6.24579 72.2983 7.71978 73.5619 9.61094C74.8255 11.5021 75.5 13.7255 75.5 16C75.4967 19.049 74.284 21.9721 72.1281 24.1281C69.9721 26.284 67.049 27.4967 64 27.5ZM68.2425 10.5625C68.1644 10.5193 68.0761 10.4978 67.9869 10.5002C67.8976 10.5026 67.8107 10.5289 67.735 10.5763L60.5 15.0975V11C60.5 10.8674 60.4473 10.7402 60.3536 10.6464C60.2598 10.5527 60.1326 10.5 60 10.5C59.8674 10.5 59.7402 10.5527 59.6465 10.6464C59.5527 10.7402 59.5 10.8674 59.5 11V21C59.5 21.1326 59.5527 21.2598 59.6465 21.3536C59.7402 21.4473 59.8674 21.5 60 21.5C60.1326 21.5 60.2598 21.4473 60.3536 21.3536C60.4473 21.2598 60.5 21.1326 60.5 21V16.9025L67.735 21.4237C67.8144 21.4735 67.9063 21.4999 68 21.5C68.0848 21.4998 68.1682 21.4783 68.2425 21.4375C68.3206 21.3942 68.3856 21.3308 68.4309 21.2539C68.4762 21.1769 68.5 21.0893 68.5 21V11C68.5 10.9107 68.4762 10.8231 68.4309 10.7461C68.3856 10.6692 68.3206 10.6058 68.2425 10.5625ZM67.5 20.0975L60.9438 16L67.5 11.9025V20.0975Z" fill="currentColor"/>
<path d="M112 3.25C109.478 3.25 107.013 3.99777 104.916 5.39876C102.82 6.79975 101.186 8.79103 100.221 11.1208C99.2555 13.4505 99.003 16.0141 99.495 18.4874C99.987 20.9607 101.201 23.2325 102.984 25.0156C104.768 26.7987 107.039 28.0131 109.513 28.505C111.986 28.997 114.549 28.7445 116.879 27.7795C119.209 26.8144 121.2 25.1802 122.601 23.0835C124.002 20.9868 124.75 18.5217 124.75 16C124.746 12.6197 123.401 9.379 121.011 6.98877C118.621 4.59854 115.38 3.25397 112 3.25ZM112 27.25C109.775 27.25 107.6 26.5902 105.75 25.354C103.9 24.1179 102.458 22.3609 101.606 20.3052C100.755 18.2495 100.532 15.9875 100.966 13.8052C101.4 11.6229 102.472 9.61839 104.045 8.04505C105.618 6.47171 107.623 5.40025 109.805 4.96617C111.988 4.53208 114.25 4.75487 116.305 5.60636C118.361 6.45784 120.118 7.89978 121.354 9.74984C122.59 11.5999 123.25 13.775 123.25 16C123.247 18.9827 122.06 21.8422 119.951 23.9513C117.842 26.0604 114.983 27.2467 112 27.25ZM116.364 10.3438C116.247 10.2788 116.114 10.2464 115.98 10.2499C115.847 10.2535 115.716 10.2928 115.603 10.3638L108.75 14.6462V11C108.75 10.8011 108.671 10.6103 108.53 10.4697C108.39 10.329 108.199 10.25 108 10.25C107.801 10.25 107.61 10.329 107.47 10.4697C107.329 10.6103 107.25 10.8011 107.25 11V21C107.25 21.1989 107.329 21.3897 107.47 21.5303C107.61 21.671 107.801 21.75 108 21.75C108.199 21.75 108.39 21.671 108.53 21.5303C108.671 21.3897 108.75 21.1989 108.75 21V17.3538L115.603 21.6362C115.716 21.7072 115.847 21.7465 115.98 21.75C116.114 21.7535 116.247 21.7211 116.364 21.6562C116.481 21.5912 116.578 21.4961 116.646 21.3808C116.714 21.2654 116.75 21.1339 116.75 21V11C116.75 10.8661 116.714 10.7346 116.646 10.6192C116.578 10.5038 116.481 10.4087 116.364 10.3438ZM115.25 19.6462L109.415 16L115.25 12.3538V19.6462Z" fill="currentColor"/>
<path d="M160 2.5C157.33 2.5 154.72 3.29176 152.5 4.77516C150.28 6.25856 148.549 8.36697 147.528 10.8338C146.506 13.3006 146.239 16.015 146.759 18.6337C147.28 21.2525 148.566 23.6579 150.454 25.5459C152.342 27.434 154.748 28.7197 157.366 29.2406C159.985 29.7615 162.699 29.4942 165.166 28.4724C167.633 27.4506 169.741 25.7203 171.225 23.5002C172.708 21.2801 173.5 18.67 173.5 16C173.496 12.4208 172.072 8.98932 169.542 6.45844C167.011 3.92756 163.579 2.50397 160 2.5ZM160 26.5C157.923 26.5 155.893 25.8842 154.167 24.7304C152.44 23.5767 151.094 21.9368 150.299 20.0182C149.505 18.0996 149.297 15.9884 149.702 13.9516C150.107 11.9148 151.107 10.0438 152.575 8.57538C154.044 7.10693 155.915 6.1069 157.952 5.70175C159.988 5.29661 162.1 5.50454 164.018 6.29926C165.937 7.09399 167.577 8.4398 168.73 10.1665C169.884 11.8932 170.5 13.9233 170.5 16C170.497 18.7839 169.39 21.4528 167.421 23.4213C165.453 25.3898 162.784 26.497 160 26.5ZM164.728 9.6875C164.493 9.55764 164.229 9.49286 163.961 9.49989C163.693 9.50693 163.432 9.58552 163.205 9.7275L157.5 13.2937V11C157.5 10.6022 157.342 10.2206 157.061 9.93934C156.779 9.65804 156.398 9.5 156 9.5C155.602 9.5 155.221 9.65804 154.939 9.93934C154.658 10.2206 154.5 10.6022 154.5 11V21C154.5 21.3978 154.658 21.7794 154.939 22.0607C155.221 22.342 155.602 22.5 156 22.5C156.398 22.5 156.779 22.342 157.061 22.0607C157.342 21.7794 157.5 21.3978 157.5 21V18.7062L163.205 22.2725C163.432 22.4144 163.693 22.493 163.961 22.5C164.228 22.507 164.493 22.4422 164.727 22.3123C164.962 22.1825 165.157 21.9923 165.293 21.7615C165.428 21.5307 165.5 21.2678 165.5 21V11C165.5 10.7322 165.429 10.4692 165.293 10.2384C165.157 10.0076 164.962 9.81739 164.728 9.6875ZM162.5 18.2938L158.83 16L162.5 13.7063V18.2938Z" fill="currentColor"/>
<path d="M208 3C205.429 3 202.915 3.76244 200.778 5.1909C198.64 6.61935 196.974 8.64968 195.99 11.0251C195.006 13.4006 194.748 16.0144 195.25 18.5362C195.751 21.0579 196.99 23.3743 198.808 25.1924C200.626 27.0105 202.942 28.2486 205.464 28.7502C207.986 29.2518 210.599 28.9944 212.975 28.0104C215.35 27.0265 217.381 25.3603 218.809 23.2224C220.238 21.0846 221 18.5712 221 16C220.996 12.5533 219.626 9.24882 217.188 6.81163C214.751 4.37445 211.447 3.00364 208 3ZM213 21C213 21.1837 212.949 21.3639 212.854 21.5208C212.758 21.6776 212.621 21.8051 212.458 21.8892C212.294 21.9733 212.111 22.0107 211.928 21.9974C211.744 21.9841 211.568 21.9205 211.419 21.8137L205 17.2288V21C205 21.2652 204.895 21.5196 204.707 21.7071C204.52 21.8946 204.265 22 204 22C203.735 22 203.48 21.8946 203.293 21.7071C203.105 21.5196 203 21.2652 203 21V11C203 10.7348 203.105 10.4804 203.293 10.2929C203.48 10.1054 203.735 10 204 10C204.265 10 204.52 10.1054 204.707 10.2929C204.895 10.4804 205 10.7348 205 11V14.7712L211.419 10.1862C211.568 10.0795 211.744 10.0159 211.928 10.0026C212.111 9.98929 212.294 10.0267 212.458 10.1108C212.621 10.1949 212.758 10.3224 212.854 10.4792C212.949 10.6361 213 10.8163 213 11V21Z" fill="currentColor"/>
<path opacity="0.2" d="M256 4C253.627 4 251.307 4.70379 249.333 6.02236C247.36 7.34094 245.822 9.21509 244.913 11.4078C244.005 13.6005 243.768 16.0133 244.231 18.3411C244.694 20.6689 245.836 22.8071 247.515 24.4853C249.193 26.1635 251.331 27.3064 253.659 27.7694C255.987 28.2324 258.399 27.9948 260.592 27.0866C262.785 26.1783 264.659 24.6402 265.978 22.6668C267.296 20.6935 268 18.3734 268 16C268 12.8174 266.736 9.76515 264.485 7.51472C262.235 5.26428 259.183 4 256 4ZM260 21L252 16L260 11V21Z" fill="currentColor"/>
<path d="M256 3C253.429 3 250.915 3.76244 248.778 5.1909C246.64 6.61935 244.974 8.64968 243.99 11.0251C243.006 13.4006 242.748 16.0144 243.25 18.5362C243.751 21.0579 244.99 23.3743 246.808 25.1924C248.626 27.0105 250.942 28.2486 253.464 28.7502C255.986 29.2518 258.599 28.9944 260.975 28.0104C263.35 27.0265 265.381 25.3603 266.809 23.2224C268.238 21.0846 269 18.5712 269 16C268.996 12.5533 267.626 9.24882 265.188 6.81163C262.751 4.37445 259.447 3.00364 256 3ZM256 27C253.824 27 251.698 26.3549 249.889 25.1462C248.08 23.9375 246.67 22.2195 245.837 20.2095C245.005 18.1995 244.787 15.9878 245.211 13.854C245.636 11.7202 246.683 9.7602 248.222 8.22183C249.76 6.68345 251.72 5.6358 253.854 5.21136C255.988 4.78692 258.2 5.00476 260.21 5.83733C262.22 6.66989 263.937 8.07979 265.146 9.88873C266.355 11.6977 267 13.8244 267 16C266.997 18.9164 265.837 21.7123 263.775 23.7745C261.712 25.8367 258.916 26.9967 256 27ZM260.485 10.125C260.329 10.0385 260.152 9.99551 259.974 10.0003C259.795 10.0052 259.621 10.0577 259.47 10.1525L253 14.1962V11C253 10.7348 252.895 10.4804 252.707 10.2929C252.52 10.1054 252.265 10 252 10C251.735 10 251.48 10.1054 251.293 10.2929C251.105 10.4804 251 10.7348 251 11V21C251 21.2652 251.105 21.5196 251.293 21.7071C251.48 21.8946 251.735 22 252 22C252.265 22 252.52 21.8946 252.707 21.7071C252.895 21.5196 253 21.2652 253 21V17.8037L259.47 21.8475C259.621 21.9421 259.795 21.9944 259.974 21.9992C260.152 22.0039 260.328 21.9607 260.485 21.8743C260.641 21.7878 260.771 21.6611 260.861 21.5074C260.952 21.3537 261 21.1785 261 21V11C261 10.8215 260.952 10.6461 260.862 10.4923C260.771 10.3384 260.641 10.2116 260.485 10.125ZM259 19.1963L253.886 16L259 12.8038V19.1963Z" fill="currentColor"/>
</g>
<defs>
<clipPath id="clip0_17_16344">
<rect width="272" height="32" rx="5" fill="white"/>
</clipPath>
</defs>
</svg>
