<svg width="272" height="32" viewBox="0 0 272 32" fill="none" xmlns="http://www.w3.org/2000/svg">
<g clip-path="url(#clip0_17_16232)">
<path d="M19.4387 3.10105C19.2706 3.0191 19.0828 2.98597 18.8968 3.00542C18.7107 3.02486 18.5338 3.0961 18.3862 3.21105L9.65625 9.9998H4C3.46957 9.9998 2.96086 10.2105 2.58579 10.5856C2.21071 10.9607 2 11.4694 2 11.9998V19.9998C2 20.5302 2.21071 21.0389 2.58579 21.414C2.96086 21.7891 3.46957 21.9998 4 21.9998H9.65625L18.3862 28.7885C18.534 28.9034 18.711 28.9745 18.8971 28.9937C19.0832 29.013 19.271 28.9796 19.4391 28.8975C19.6072 28.8153 19.7489 28.6876 19.8481 28.5289C19.9472 28.3702 19.9999 28.1869 20 27.9998V3.9998C20 3.81246 19.9474 3.62888 19.8482 3.46998C19.749 3.31108 19.6071 3.18324 19.4387 3.10105ZM4 11.9998H9V19.9998H4V11.9998ZM18 25.9548L11 20.511V11.4885L18 6.0448V25.9548ZM26 15.9998C26.0009 17.2179 25.5563 18.3943 24.75 19.3073C24.5733 19.5014 24.3274 19.6183 24.0653 19.6327C23.8032 19.6471 23.546 19.5579 23.3491 19.3843C23.1522 19.2107 23.0315 18.9667 23.0129 18.7049C22.9944 18.443 23.0795 18.1844 23.25 17.9848C23.7323 17.437 23.9984 16.7322 23.9984 16.0023C23.9984 15.2724 23.7323 14.5676 23.25 14.0198C23.1607 13.9217 23.0918 13.8068 23.0474 13.6818C23.0029 13.5569 22.9838 13.4243 22.9911 13.2918C22.9984 13.1594 23.0319 13.0297 23.0898 12.9104C23.1477 12.791 23.2287 12.6844 23.3282 12.5966C23.4277 12.5089 23.5437 12.4419 23.6694 12.3994C23.795 12.3569 23.9279 12.3399 24.0602 12.3492C24.1925 12.3586 24.3217 12.3942 24.4401 12.4539C24.5585 12.5137 24.6639 12.5964 24.75 12.6973C25.5545 13.6095 25.9989 14.7836 26 15.9998Z" fill="currentColor"/>
<path d="M67.22 3.55138C67.1359 3.50998 67.0418 3.49307 66.9485 3.50258C66.8553 3.51208 66.7665 3.54762 66.6925 3.60513L57.8287 10.5001H52C51.6022 10.5001 51.2206 10.6582 50.9393 10.9395C50.658 11.2208 50.5 11.6023 50.5 12.0001V20.0001C50.5 20.398 50.658 20.7795 50.9393 21.0608C51.2206 21.3421 51.6022 21.5001 52 21.5001H57.8287L66.6925 28.3951C66.7808 28.4628 66.8888 28.4997 67 28.5001C67.0763 28.5004 67.1517 28.4829 67.22 28.4489C67.304 28.4077 67.3747 28.3439 67.4242 28.2646C67.4737 28.1852 67.5 28.0936 67.5 28.0001V4.00013C67.5 3.90664 67.4737 3.81502 67.4242 3.7357C67.3747 3.65638 67.304 3.59252 67.22 3.55138ZM51.5 20.0001V12.0001C51.5 11.8675 51.5527 11.7403 51.6464 11.6466C51.7402 11.5528 51.8674 11.5001 52 11.5001H57.5V20.5001H52C51.8674 20.5001 51.7402 20.4475 51.6464 20.3537C51.5527 20.2599 51.5 20.1327 51.5 20.0001ZM66.5 26.9776L58.5 20.7501V11.2501L66.5 5.02763V26.9776ZM73.5 16.0001C73.5003 17.0965 73.1002 18.1553 72.375 18.9776C72.3315 19.0269 72.2787 19.0671 72.2197 19.0959C72.1607 19.1248 72.0965 19.1417 72.0309 19.1458C71.8985 19.154 71.7682 19.1092 71.6688 19.0214C71.5693 18.9335 71.5088 18.8098 71.5006 18.6773C71.4965 18.6117 71.5054 18.546 71.5268 18.4839C71.5481 18.4217 71.5815 18.3644 71.625 18.3151C72.1875 17.6761 72.4978 16.854 72.4978 16.0026C72.4978 15.1513 72.1875 14.3292 71.625 13.6901C71.5442 13.5898 71.5052 13.4621 71.5162 13.3338C71.5272 13.2054 71.5874 13.0862 71.6841 13.0011C71.7808 12.916 71.9066 12.8715 72.0354 12.8769C72.1641 12.8823 72.2858 12.9372 72.375 13.0301C73.0985 13.8505 73.4984 14.9063 73.5 16.0001Z" fill="currentColor"/>
<path d="M115.33 3.32646C115.204 3.2647 115.063 3.23957 114.923 3.25394C114.784 3.2683 114.651 3.32158 114.54 3.40771L105.743 10.2502H100C99.5359 10.2502 99.0908 10.4346 98.7626 10.7628C98.4344 11.091 98.25 11.5361 98.25 12.0002V20.0002C98.25 20.4643 98.4344 20.9095 98.7626 21.2376C99.0908 21.5658 99.5359 21.7502 100 21.7502H105.743L114.54 28.5927C114.651 28.6788 114.784 28.732 114.923 28.7464C115.063 28.7608 115.204 28.7356 115.33 28.6739C115.456 28.6122 115.562 28.5163 115.636 28.3972C115.711 28.2781 115.75 28.1406 115.75 28.0002V4.00021C115.75 3.85985 115.711 3.7223 115.636 3.6032C115.562 3.48409 115.456 3.38821 115.33 3.32646ZM99.75 20.0002V12.0002C99.75 11.9339 99.7763 11.8703 99.8232 11.8234C99.8701 11.7765 99.9337 11.7502 100 11.7502H105.25V20.2502H100C99.9337 20.2502 99.8701 20.2239 99.8232 20.177C99.7763 20.1301 99.75 20.0665 99.75 20.0002ZM114.25 26.4665L106.75 20.634V11.3665L114.25 5.53396V26.4665ZM121.75 16.0002C121.751 17.1575 121.329 18.2752 120.562 19.1427C120.497 19.2166 120.418 19.2769 120.33 19.3202C120.241 19.3635 120.145 19.389 120.047 19.3951C119.949 19.4013 119.85 19.388 119.757 19.356C119.664 19.3241 119.578 19.2741 119.504 19.209C119.43 19.1438 119.37 19.0647 119.326 18.9762C119.283 18.8878 119.258 18.7916 119.251 18.6933C119.245 18.595 119.258 18.4964 119.29 18.4032C119.322 18.3101 119.372 18.2241 119.438 18.1502C119.96 17.5567 120.249 16.793 120.249 16.0021C120.249 15.2112 119.96 14.4475 119.438 13.854C119.313 13.7039 119.251 13.511 119.266 13.3164C119.281 13.1217 119.372 12.9406 119.518 12.8115C119.665 12.6824 119.856 12.6156 120.051 12.6251C120.246 12.6347 120.429 12.7199 120.562 12.8627C121.327 13.7293 121.749 14.8448 121.75 16.0002Z" fill="currentColor"/>
<path d="M163.659 2.65243C163.406 2.52909 163.125 2.47904 162.845 2.50799C162.566 2.53694 162.3 2.64372 162.079 2.81618L153.485 9.49993H148C147.337 9.49993 146.701 9.76332 146.232 10.2322C145.763 10.701 145.5 11.3369 145.5 11.9999V19.9999C145.5 20.663 145.763 21.2989 146.232 21.7677C146.701 22.2365 147.337 22.4999 148 22.4999H153.485L162.079 29.1837C162.3 29.3562 162.566 29.463 162.845 29.4919C163.125 29.5209 163.407 29.4708 163.659 29.3475C163.911 29.2241 164.124 29.0324 164.272 28.7942C164.421 28.556 164.5 28.2808 164.5 27.9999V3.99993C164.5 3.71909 164.421 3.4439 164.272 3.20568C164.124 2.96745 163.911 2.77576 163.659 2.65243ZM148.5 12.4999H152.5V19.4999H148.5V12.4999ZM161.5 24.9324L155.5 20.2662V11.7337L161.5 7.06743V24.9324ZM170.5 15.9999C170.5 17.3398 170.011 18.6337 169.125 19.6387C168.862 19.937 168.491 20.1186 168.094 20.1435C167.697 20.1683 167.306 20.0344 167.007 19.7712C166.709 19.508 166.528 19.137 166.503 18.7399C166.478 18.3428 166.612 17.952 166.875 17.6537C167.277 17.1971 167.499 16.6096 167.499 16.0012C167.499 15.3928 167.277 14.8052 166.875 14.3487C166.629 14.048 166.51 13.6638 166.541 13.2768C166.573 12.8899 166.754 12.5303 167.045 12.2737C167.337 12.0171 167.716 11.8834 168.104 11.9009C168.492 11.9184 168.858 12.0856 169.125 12.3674C170.01 13.3704 170.499 14.662 170.5 15.9999Z" fill="currentColor"/>
<path d="M218 16.0002C218.001 17.2183 217.556 18.3947 216.75 19.3077C216.573 19.5019 216.327 19.6187 216.065 19.6331C215.803 19.6476 215.546 19.5583 215.349 19.3847C215.152 19.2112 215.031 18.9671 215.013 18.7053C214.994 18.4435 215.08 18.1848 215.25 17.9852C215.732 17.4374 215.998 16.7326 215.998 16.0027C215.998 15.2729 215.732 14.568 215.25 14.0202C215.08 13.8206 214.994 13.562 215.013 13.3002C215.031 13.0383 215.152 12.7943 215.349 12.6207C215.546 12.4471 215.803 12.3579 216.065 12.3723C216.327 12.3867 216.573 12.5036 216.75 12.6977C217.554 13.6099 217.999 14.784 218 16.0002ZM212 4.00023V28.0002C212 28.1873 211.947 28.3707 211.848 28.5294C211.749 28.688 211.607 28.8157 211.439 28.8979C211.271 28.9801 211.083 29.0134 210.897 28.9942C210.711 28.9749 210.534 28.9038 210.386 28.789L201.656 22.0002H196C195.47 22.0002 194.961 21.7895 194.586 21.4144C194.211 21.0394 194 20.5307 194 20.0002V12.0002C194 11.4698 194.211 10.9611 194.586 10.586C194.961 10.2109 195.47 10.0002 196 10.0002H201.656L210.386 3.21148C210.534 3.09663 210.711 3.02554 210.897 3.00629C211.083 2.98703 211.271 3.02038 211.439 3.10255C211.607 3.18472 211.749 3.3124 211.848 3.47109C211.947 3.62978 212 3.81311 212 4.00023ZM201 12.0002H196V20.0002H201V12.0002Z" fill="currentColor"/>
<path opacity="0.2" d="M250 11V21H244C243.735 21 243.48 20.8946 243.293 20.7071C243.105 20.5196 243 20.2652 243 20V12C243 11.7348 243.105 11.4804 243.293 11.2929C243.48 11.1054 243.735 11 244 11H250Z" fill="currentColor"/>
<path d="M259.439 3.10105C259.271 3.0191 259.083 2.98597 258.897 3.00542C258.711 3.02486 258.534 3.0961 258.386 3.21105L249.656 9.9998H244C243.47 9.9998 242.961 10.2105 242.586 10.5856C242.211 10.9607 242 11.4694 242 11.9998V19.9998C242 20.5302 242.211 21.0389 242.586 21.414C242.961 21.7891 243.47 21.9998 244 21.9998H249.656L258.386 28.7885C258.534 28.9034 258.711 28.9745 258.897 28.9937C259.083 29.013 259.271 28.9796 259.439 28.8975C259.607 28.8153 259.749 28.6876 259.848 28.5289C259.947 28.3702 260 28.1869 260 27.9998V3.9998C260 3.81246 259.947 3.62888 259.848 3.46998C259.749 3.31108 259.607 3.18324 259.439 3.10105ZM244 11.9998H249V19.9998H244V11.9998ZM258 25.9548L251 20.511V11.4885L258 6.0448V25.9548ZM266 15.9998C266.001 17.2179 265.556 18.3943 264.75 19.3073C264.573 19.5014 264.327 19.6183 264.065 19.6327C263.803 19.6471 263.546 19.5579 263.349 19.3843C263.152 19.2107 263.031 18.9667 263.013 18.7049C262.994 18.443 263.08 18.1844 263.25 17.9848C263.732 17.437 263.998 16.7322 263.998 16.0023C263.998 15.2724 263.732 14.5676 263.25 14.0198C263.161 13.9217 263.092 13.8068 263.047 13.6818C263.003 13.5569 262.984 13.4243 262.991 13.2918C262.998 13.1594 263.032 13.0297 263.09 12.9104C263.148 12.791 263.229 12.6844 263.328 12.5966C263.428 12.5089 263.544 12.4419 263.669 12.3994C263.795 12.3569 263.928 12.3399 264.06 12.3492C264.193 12.3586 264.322 12.3942 264.44 12.4539C264.559 12.5137 264.664 12.5964 264.75 12.6973C265.554 13.6095 265.999 14.7836 266 15.9998Z" fill="currentColor"/>
</g>
<defs>
<clipPath id="clip0_17_16232">
<rect width="272" height="32" rx="5" fill="white"/>
</clipPath>
</defs>
</svg>
