<svg width="272" height="32" viewBox="0 0 272 32" fill="none" xmlns="http://www.w3.org/2000/svg">
<g clip-path="url(#clip0_17_16133)">
<path d="M6.74 4.32764C6.65218 4.22865 6.54559 4.14807 6.4264 4.09058C6.30721 4.03309 6.1778 3.99982 6.04566 3.99271C5.91352 3.9856 5.78128 4.00479 5.65661 4.04917C5.53194 4.09354 5.41732 4.16222 5.31939 4.25121C5.22146 4.34021 5.14216 4.44776 5.0861 4.56763C5.03004 4.6875 4.99833 4.81731 4.99281 4.94952C4.98728 5.08174 5.00806 5.21374 5.05392 5.33786C5.09979 5.46199 5.16983 5.57578 5.26 5.67264L9.19375 10.0001H4C3.46957 10.0001 2.96086 10.2109 2.58579 10.5859C2.21071 10.961 2 11.4697 2 12.0001V20.0001C2 20.5306 2.21071 21.0393 2.58579 21.4144C2.96086 21.7894 3.46957 22.0001 4 22.0001H9.65625L18.3862 28.7889C18.534 28.9037 18.711 28.9748 18.8971 28.9941C19.0832 29.0133 19.271 28.98 19.4391 28.8978C19.6072 28.8156 19.7489 28.688 19.8481 28.5293C19.9472 28.3706 19.9999 28.1873 20 28.0001V21.8864L25.26 27.6726C25.3478 27.7716 25.4544 27.8522 25.5736 27.9097C25.6928 27.9672 25.8222 28.0005 25.9543 28.0076C26.0865 28.0147 26.2187 27.9955 26.3434 27.9511C26.4681 27.9067 26.5827 27.8381 26.6806 27.7491C26.7785 27.6601 26.8578 27.5525 26.9139 27.4326C26.97 27.3128 27.0017 27.183 27.0072 27.0508C27.0127 26.9185 26.9919 26.7865 26.9461 26.6624C26.9002 26.5383 26.8302 26.4245 26.74 26.3276L6.74 4.32764ZM4 12.0001H9V20.0001H4V12.0001ZM18 25.9551L11 20.5114V11.9864L18 19.6864V25.9551ZM23.25 17.9839C23.7323 17.4361 23.9984 16.7313 23.9984 16.0014C23.9984 15.2715 23.7323 14.5667 23.25 14.0189C23.1581 13.9212 23.0868 13.8061 23.0403 13.6803C22.9939 13.5546 22.9731 13.4207 22.9794 13.2868C22.9857 13.1529 23.0189 13.0216 23.0769 12.9007C23.135 12.7798 23.2167 12.6719 23.3174 12.5833C23.418 12.4946 23.5354 12.4272 23.6626 12.3848C23.7898 12.3425 23.9243 12.3262 24.0579 12.3368C24.1916 12.3475 24.3217 12.3849 24.4406 12.4469C24.5595 12.5089 24.6647 12.5942 24.75 12.6976C25.5543 13.6107 25.9981 14.7858 25.9981 16.0026C25.9981 17.2195 25.5543 18.3945 24.75 19.3076C24.6631 19.4061 24.5576 19.4865 24.4396 19.5443C24.3216 19.602 24.1934 19.6359 24.0623 19.6441C23.9312 19.6523 23.7998 19.6346 23.6755 19.592C23.5513 19.5494 23.4366 19.4827 23.3381 19.3958C23.2396 19.3088 23.1592 19.2034 23.1015 19.0854C23.0438 18.9674 23.0098 18.8392 23.0017 18.7081C22.9935 18.577 23.0112 18.4455 23.0538 18.3213C23.0964 18.197 23.1631 18.0824 23.25 17.9839ZM13.23 8.48389C13.1493 8.38024 13.0898 8.26171 13.0549 8.13506C13.02 8.0084 13.0104 7.87612 13.0267 7.74576C13.0429 7.6154 13.0847 7.48952 13.1496 7.37531C13.2145 7.2611 13.3013 7.1608 13.405 7.08014L18.3862 3.20514C18.5344 3.08997 18.712 3.0188 18.8987 2.99978C19.0853 2.98076 19.2736 3.01465 19.4419 3.09758C19.6103 3.18051 19.7519 3.30912 19.8506 3.46873C19.9492 3.62834 20.001 3.81249 20 4.00014V13.3539C20 13.6191 19.8946 13.8735 19.7071 14.061C19.5196 14.2485 19.2652 14.3539 19 14.3539C18.7348 14.3539 18.4804 14.2485 18.2929 14.061C18.1054 13.8735 18 13.6191 18 13.3539V6.04514L14.6325 8.67014C14.4225 8.83208 14.1567 8.90396 13.8937 8.86997C13.6307 8.83598 13.392 8.6989 13.23 8.48889V8.48389ZM31 16.0001C31.0014 18.4604 30.0947 20.8346 28.4538 22.6676C28.2756 22.8604 28.0288 22.9754 27.7667 22.9878C27.5045 23.0002 27.248 22.9091 27.0524 22.734C26.8568 22.559 26.7379 22.314 26.7214 22.0521C26.7048 21.7902 26.7918 21.5322 26.9638 21.3339C28.2755 19.8672 29.0007 17.9685 29.0007 16.0008C29.0007 14.033 28.2755 12.1343 26.9638 10.6676C26.8737 10.5702 26.804 10.4558 26.7586 10.3312C26.7131 10.2066 26.693 10.0741 26.6993 9.94161C26.7055 9.8091 26.7381 9.67916 26.7951 9.55936C26.8521 9.43957 26.9323 9.3323 27.0312 9.24383C27.13 9.15535 27.2455 9.08742 27.3708 9.044C27.4962 9.00058 27.6289 8.98254 27.7613 8.99092C27.8937 8.9993 28.0231 9.03394 28.142 9.09282C28.2609 9.15171 28.3669 9.23365 28.4538 9.33389C30.0952 11.1662 31.002 13.5402 31 16.0001Z" fill="currentColor"/>
<path d="M54.375 4.66352C54.2858 4.56406 54.1608 4.5041 54.0274 4.49684C53.894 4.48957 53.7632 4.53559 53.6638 4.62477C53.5643 4.71394 53.5043 4.83898 53.4971 4.97236C53.4898 5.10575 53.5358 5.23656 53.625 5.33601L58.125 10.2735L57.8287 10.4998H52C51.6022 10.4998 51.2206 10.6578 50.9393 10.9391C50.658 11.2204 50.5 11.6019 50.5 11.9998V19.9998C50.5 20.3976 50.658 20.7791 50.9393 21.0604C51.2206 21.3417 51.6022 21.4998 52 21.4998H57.8287L66.6925 28.3948C66.7808 28.4624 66.8888 28.4993 67 28.4998C67.0763 28.5 67.1517 28.4825 67.22 28.4485C67.304 28.4074 67.3747 28.3435 67.4242 28.2642C67.4737 28.1849 67.5 28.0933 67.5 27.9998V20.5935L73.625 27.336C73.6689 27.3855 73.7222 27.4258 73.7818 27.4545C73.8414 27.4833 73.9061 27.4999 73.9722 27.5035C74.0382 27.507 74.1044 27.4974 74.1667 27.4753C74.229 27.4531 74.2863 27.4187 74.3353 27.3742C74.3843 27.3297 74.4239 27.276 74.4519 27.216C74.48 27.1561 74.4958 27.0912 74.4986 27.0251C74.5014 26.959 74.491 26.893 74.468 26.8309C74.4451 26.7688 74.4101 26.7119 74.365 26.6635L54.375 4.66352ZM51.5 19.9998V11.9998C51.5 11.8672 51.5527 11.74 51.6464 11.6462C51.7402 11.5524 51.8674 11.4998 52 11.4998H57.5V20.4998H52C51.8674 20.4998 51.7402 20.4471 51.6464 20.3533C51.5527 20.2596 51.5 20.1324 51.5 19.9998ZM66.5 26.9773L58.5 20.7498V11.2498L58.7937 11.021L66.5 19.4998V26.9773ZM71.625 18.3148C72.1875 17.6757 72.4978 16.8536 72.4978 16.0023C72.4978 15.1509 72.1875 14.3288 71.625 13.6898C71.5804 13.6407 71.5459 13.5833 71.5237 13.5208C71.5015 13.4583 71.4919 13.392 71.4955 13.3258C71.4992 13.2596 71.516 13.1947 71.5449 13.135C71.5738 13.0754 71.6144 13.022 71.6641 12.9782C71.7139 12.9343 71.7719 12.9008 71.8347 12.8796C71.8975 12.8583 71.9639 12.8498 72.0301 12.8545C72.0963 12.8592 72.1608 12.877 72.22 12.9068C72.2792 12.9367 72.3319 12.9781 72.375 13.0285C73.0988 13.8503 73.4982 14.9078 73.4982 16.0029C73.4982 17.098 73.0988 18.1555 72.375 18.9773C72.3319 19.0277 72.2792 19.0691 72.22 19.0989C72.1608 19.1288 72.0963 19.1466 72.0301 19.1513C71.9639 19.156 71.8975 19.1475 71.8347 19.1262C71.7719 19.105 71.7139 19.0715 71.6641 19.0276C71.6144 18.9837 71.5738 18.9304 71.5449 18.8707C71.516 18.8111 71.4992 18.7462 71.4955 18.68C71.4919 18.6138 71.5015 18.5475 71.5237 18.485C71.5459 18.4225 71.5804 18.3651 71.625 18.316V18.3148ZM61.625 8.18101C61.5437 8.07639 61.5072 7.94377 61.5236 7.81228C61.54 7.6808 61.608 7.5612 61.7125 7.47976L66.6938 3.60477C66.7677 3.54749 66.8562 3.5121 66.9492 3.50259C67.0422 3.49309 67.136 3.50985 67.22 3.55099C67.3039 3.59213 67.3747 3.65599 67.4242 3.73532C67.4737 3.81464 67.5 3.90626 67.5 3.99977V13.3535C67.5 13.4861 67.4473 13.6133 67.3536 13.7071C67.2598 13.8008 67.1326 13.8535 67 13.8535C66.8674 13.8535 66.7402 13.8008 66.6464 13.7071C66.5527 13.6133 66.5 13.4861 66.5 13.3535V5.02227L62.3263 8.27226C62.2742 8.31232 62.2148 8.34174 62.1514 8.35883C62.088 8.37593 62.0218 8.38036 61.9567 8.37189C61.8916 8.36342 61.8288 8.3422 61.7719 8.30945C61.715 8.2767 61.665 8.23306 61.625 8.18101ZM78.5 15.9998C78.5016 18.3369 77.6403 20.5924 76.0812 22.3335C75.9927 22.433 75.8683 22.4932 75.7354 22.5009C75.6025 22.5087 75.472 22.4633 75.3725 22.3748C75.273 22.2862 75.2128 22.1618 75.2051 22.0289C75.1974 21.896 75.2427 21.7655 75.3312 21.666C76.7249 20.1077 77.4954 18.0904 77.4954 15.9998C77.4954 13.9091 76.7249 11.8919 75.3312 10.3335C75.2427 10.2341 75.1974 10.1035 75.2051 9.9706C75.2128 9.83768 75.273 9.71328 75.3725 9.62476C75.472 9.53625 75.6025 9.49087 75.7354 9.4986C75.8683 9.50634 75.9927 9.56656 76.0812 9.66602C77.6403 11.4072 78.5016 13.6626 78.5 15.9998Z" fill="currentColor"/>
<path d="M102.555 4.50013C102.418 4.37269 102.238 4.30125 102.05 4.29985C101.863 4.29846 101.682 4.36722 101.543 4.49261C101.404 4.618 101.316 4.79093 101.298 4.97739C101.28 5.16385 101.333 5.35032 101.445 5.50013L105.75 10.2426L105.74 10.2501H100C99.5359 10.2501 99.0908 10.4345 98.7626 10.7627C98.4344 11.0909 98.25 11.536 98.25 12.0001V20.0001C98.25 20.4643 98.4344 20.9094 98.7626 21.2376C99.0908 21.5658 99.5359 21.7501 100 21.7501H105.743L114.54 28.5926C114.651 28.6787 114.784 28.732 114.923 28.7463C115.063 28.7607 115.204 28.7356 115.33 28.6738C115.456 28.6121 115.562 28.5163 115.636 28.3972C115.711 28.278 115.75 28.1405 115.75 28.0001V21.2401L121.445 27.5001C121.579 27.6473 121.766 27.7353 121.965 27.7447C122.163 27.754 122.358 27.6841 122.505 27.5501C122.652 27.4162 122.74 27.2293 122.75 27.0305C122.759 26.8317 122.689 26.6373 122.555 26.4901L102.555 4.50013ZM99.75 20.0001V12.0001C99.75 11.9338 99.7763 11.8702 99.8232 11.8234C99.8701 11.7765 99.9337 11.7501 100 11.7501H105.25V20.2501H100C99.9337 20.2501 99.8701 20.2238 99.8232 20.1769C99.7763 20.13 99.75 20.0664 99.75 20.0001ZM114.25 26.4664L106.75 20.6339V11.3664L106.764 11.3564L114.25 19.5901V26.4664ZM119.438 18.1501C119.96 17.5566 120.249 16.7929 120.249 16.002C120.249 15.2111 119.96 14.4474 119.438 13.8539C119.369 13.7806 119.316 13.6942 119.282 13.6001C119.247 13.5059 119.232 13.4058 119.237 13.3056C119.242 13.2055 119.267 13.1073 119.31 13.017C119.354 12.9266 119.415 12.8459 119.49 12.7796C119.565 12.7133 119.653 12.6628 119.748 12.631C119.843 12.5992 119.944 12.5868 120.044 12.5946C120.144 12.6023 120.241 12.63 120.33 12.6761C120.419 12.7221 120.498 12.7856 120.562 12.8626C121.327 13.7301 121.748 14.8465 121.748 16.0026C121.748 17.1587 121.327 18.2752 120.562 19.1426C120.431 19.2918 120.245 19.3826 120.047 19.395C119.848 19.4075 119.653 19.3405 119.504 19.2089C119.355 19.0773 119.264 18.8918 119.251 18.6932C119.239 18.4947 119.306 18.2993 119.438 18.1501ZM109.426 8.33513C109.366 8.25733 109.321 8.16839 109.295 8.07338C109.269 7.97838 109.262 7.87917 109.274 7.78144C109.287 7.6837 109.318 7.58934 109.367 7.50376C109.416 7.41817 109.481 7.34303 109.559 7.28263L114.54 3.40763C114.651 3.32154 114.784 3.26829 114.923 3.25393C115.063 3.23958 115.204 3.26469 115.33 3.32642C115.456 3.38815 115.562 3.48401 115.636 3.60311C115.711 3.72221 115.75 3.85977 115.75 4.00013V13.3539C115.75 13.5528 115.671 13.7436 115.53 13.8842C115.39 14.0249 115.199 14.1039 115 14.1039C114.801 14.1039 114.61 14.0249 114.47 13.8842C114.329 13.7436 114.25 13.5528 114.25 13.3539V5.53388L110.479 8.46638C110.322 8.58855 110.123 8.64335 109.925 8.61873C109.728 8.59412 109.548 8.49211 109.426 8.33513ZM126.75 16.0001C126.752 18.3987 125.868 20.7134 124.267 22.5001C124.203 22.5761 124.123 22.6384 124.034 22.6832C123.945 22.7281 123.847 22.7546 123.747 22.7613C123.648 22.768 123.548 22.7547 123.453 22.7222C123.359 22.6896 123.272 22.6386 123.197 22.5719C123.123 22.5053 123.062 22.4244 123.019 22.3341C122.977 22.2437 122.952 22.1458 122.948 22.0459C122.944 21.9461 122.959 21.8464 122.994 21.7526C123.029 21.6589 123.082 21.5731 123.15 21.5001C124.503 19.9876 125.251 18.0294 125.251 16.0001C125.251 13.9708 124.503 12.0127 123.15 10.5001C123.082 10.4272 123.029 10.3414 122.994 10.2476C122.959 10.1539 122.944 10.0542 122.948 9.95433C122.952 9.85448 122.977 9.75652 123.019 9.66619C123.062 9.57587 123.123 9.49501 123.197 9.42836C123.272 9.36171 123.359 9.31062 123.453 9.27809C123.548 9.24556 123.648 9.23225 123.747 9.23894C123.847 9.24563 123.945 9.27218 124.034 9.31703C124.123 9.36188 124.203 9.42414 124.267 9.50013C125.868 11.2869 126.752 13.6016 126.75 16.0001Z" fill="currentColor"/>
<path d="M151.11 3.99118C150.978 3.84269 150.818 3.72182 150.64 3.63558C150.461 3.54934 150.267 3.49945 150.068 3.48878C149.87 3.47812 149.672 3.5069 149.485 3.57346C149.298 3.64002 149.126 3.74304 148.979 3.87654C148.832 4.01003 148.713 4.17136 148.629 4.35117C148.545 4.53097 148.497 4.72568 148.489 4.924C148.481 5.12232 148.512 5.32032 148.581 5.50651C148.65 5.6927 148.755 5.86339 148.89 6.00868L152.064 9.49993H148C147.337 9.49993 146.701 9.76332 146.232 10.2322C145.763 10.701 145.5 11.3369 145.5 11.9999V19.9999C145.5 20.663 145.763 21.2989 146.232 21.7677C146.701 22.2365 147.337 22.4999 148 22.4999H153.485L162.079 29.1837C162.3 29.3562 162.566 29.463 162.845 29.4919C163.125 29.5209 163.407 29.4708 163.659 29.3475C163.911 29.2241 164.124 29.0324 164.272 28.7942C164.421 28.556 164.5 28.2808 164.5 27.9999V23.1799L168.89 28.0087C169.159 28.2976 169.531 28.4688 169.925 28.4853C170.32 28.5018 170.705 28.3622 170.997 28.0967C171.289 27.8312 171.465 27.4613 171.486 27.0672C171.507 26.6731 171.372 26.2864 171.11 25.9912L151.11 3.99118ZM148.5 12.4999H152.5V19.4999H148.5V12.4999ZM161.5 24.9324L155.5 20.2662V13.2799L161.5 19.8749V24.9324ZM157.625 8.18243C157.504 8.0269 157.415 7.84907 157.363 7.65911C157.311 7.46915 157.296 7.27077 157.321 7.0753C157.345 6.87983 157.408 6.69109 157.506 6.51988C157.603 6.34866 157.733 6.19832 157.889 6.07743L162.077 2.81868C162.299 2.64596 162.564 2.53888 162.844 2.50962C163.123 2.48037 163.405 2.53012 163.657 2.65321C163.91 2.7763 164.123 2.96779 164.272 3.20587C164.421 3.44396 164.5 3.71908 164.5 3.99993V11.8674C164.5 12.2653 164.342 12.6468 164.061 12.9281C163.779 13.2094 163.398 13.3674 163 13.3674C162.602 13.3674 162.221 13.2094 161.939 12.9281C161.658 12.6468 161.5 12.2653 161.5 11.8674V7.06743L159.731 8.44243C159.576 8.5636 159.398 8.65293 159.208 8.70532C159.018 8.75771 158.819 8.77213 158.624 8.74775C158.428 8.72337 158.239 8.66067 158.068 8.56324C157.896 8.46581 157.746 8.33556 157.625 8.17993V8.18243ZM166.875 14.3512C166.629 14.0505 166.51 13.6663 166.541 13.2793C166.573 12.8924 166.754 12.5328 167.045 12.2762C167.337 12.0195 167.716 11.8859 168.104 11.9034C168.492 11.9209 168.858 12.0881 169.125 12.3699C169.871 13.2182 170.338 14.2756 170.462 15.3986C170.586 16.5215 170.362 17.6554 169.819 18.6462C169.616 18.9726 169.296 19.2088 168.924 19.3061C168.553 19.4035 168.158 19.3545 167.821 19.1694C167.485 18.9843 167.232 18.6771 167.115 18.3111C166.999 17.9451 167.027 17.5483 167.194 17.2024C167.397 16.8344 167.502 16.4204 167.5 15.9999C167.499 15.3918 167.277 14.8048 166.875 14.3487V14.3512ZM175.5 15.9999C175.498 18.4321 174.654 20.7886 173.111 22.6687C172.987 22.8233 172.833 22.9518 172.659 23.0466C172.485 23.1414 172.293 23.2007 172.096 23.221C171.898 23.2413 171.699 23.2223 171.509 23.165C171.319 23.1077 171.142 23.0132 170.989 22.8871C170.836 22.761 170.709 22.6058 170.616 22.4304C170.523 22.255 170.466 22.0629 170.448 21.8653C170.43 21.6676 170.452 21.4684 170.511 21.2791C170.571 21.0898 170.667 20.9142 170.795 20.7624C171.932 19.3789 172.537 17.634 172.499 15.8435C172.462 14.0529 171.785 12.3348 170.591 10.9999C170.455 10.8541 170.348 10.6824 170.279 10.4949C170.21 10.3075 170.178 10.108 170.187 9.90833C170.196 9.70863 170.245 9.5127 170.33 9.33205C170.416 9.1514 170.536 8.98968 170.685 8.85638C170.834 8.72309 171.009 8.62091 171.198 8.55585C171.387 8.49079 171.587 8.46417 171.786 8.47754C171.986 8.49091 172.18 8.54401 172.359 8.63372C172.538 8.72343 172.696 8.84794 172.826 8.99993C174.549 10.9242 175.502 13.4169 175.5 15.9999Z" fill="currentColor"/>
<path d="M198.74 4.32751C198.652 4.22852 198.546 4.14794 198.426 4.09045C198.307 4.03295 198.178 3.99969 198.046 3.99258C197.914 3.98547 197.781 4.00466 197.657 4.04903C197.532 4.09341 197.417 4.16208 197.319 4.25108C197.221 4.34008 197.142 4.44763 197.086 4.5675C197.03 4.68737 196.998 4.81718 196.993 4.94939C196.987 5.08161 197.008 5.2136 197.054 5.33773C197.1 5.46186 197.17 5.57565 197.26 5.67251L201.194 10H196C195.47 10 194.961 10.2107 194.586 10.5858C194.211 10.9609 194 11.4696 194 12V20C194 20.5304 194.211 21.0392 194.586 21.4142C194.961 21.7893 195.47 22 196 22H201.656L210.386 28.7888C210.534 28.9036 210.711 28.9747 210.897 28.9939C211.083 29.0132 211.271 28.9799 211.439 28.8977C211.607 28.8155 211.749 28.6878 211.848 28.5291C211.947 28.3705 212 28.1871 212 28V21.8863L217.26 27.6725C217.348 27.7715 217.454 27.8521 217.574 27.9096C217.693 27.9671 217.822 28.0003 217.954 28.0074C218.086 28.0145 218.219 27.9954 218.343 27.951C218.468 27.9066 218.583 27.8379 218.681 27.7489C218.779 27.6599 218.858 27.5524 218.914 27.4325C218.97 27.3126 219.002 27.1828 219.007 27.0506C219.013 26.9184 218.992 26.7864 218.946 26.6623C218.9 26.5382 218.83 26.4244 218.74 26.3275L198.74 4.32751ZM196 12H201V20H196V12ZM215.25 17.9838C215.732 17.436 215.998 16.7311 215.998 16.0013C215.998 15.2714 215.732 14.5666 215.25 14.0188C215.158 13.9211 215.087 13.806 215.04 13.6802C214.994 13.5544 214.973 13.4206 214.979 13.2867C214.986 13.1527 215.019 13.0214 215.077 12.9006C215.135 12.7797 215.217 12.6718 215.317 12.5831C215.418 12.4945 215.535 12.427 215.663 12.3847C215.79 12.3424 215.924 12.326 216.058 12.3367C216.192 12.3474 216.322 12.3848 216.441 12.4468C216.56 12.5088 216.665 12.594 216.75 12.6975C217.554 13.6106 217.998 14.7857 217.998 16.0025C217.998 17.2193 217.554 18.3944 216.75 19.3075C216.574 19.5064 216.327 19.6275 216.062 19.644C215.798 19.6605 215.537 19.5712 215.338 19.3956C215.139 19.2201 215.018 18.9727 215.002 18.7079C214.985 18.4432 215.074 18.1827 215.25 17.9838ZM205.279 8.54751C205.186 8.44561 205.115 8.32563 205.071 8.19509C205.027 8.06455 205.01 7.92628 205.022 7.78894C205.033 7.65161 205.073 7.51819 205.139 7.39705C205.205 7.27591 205.295 7.16968 205.404 7.08501L210.385 3.21001C210.533 3.09473 210.71 3.02332 210.896 3.00391C211.083 2.9845 211.271 3.01789 211.439 3.10025C211.608 3.18261 211.75 3.31064 211.849 3.46973C211.948 3.62882 212 3.81257 212 4.00001V13.3538C212 13.5556 211.939 13.7527 211.825 13.9192C211.711 14.0856 211.549 14.2136 211.361 14.2864C211.172 14.3592 210.966 14.3733 210.77 14.3268C210.574 14.2804 210.396 14.1756 210.26 14.0263L205.279 8.54751ZM223 16C223.001 18.4603 222.095 20.8345 220.454 22.6675C220.276 22.8603 220.029 22.9753 219.767 22.9877C219.504 23.0001 219.248 22.9089 219.052 22.7339C218.857 22.5588 218.738 22.3139 218.721 22.052C218.705 21.79 218.792 21.5321 218.964 21.3338C220.276 19.8671 221.001 17.9684 221.001 16.0006C221.001 14.0329 220.276 12.1342 218.964 10.6675C218.874 10.5701 218.804 10.4557 218.759 10.3311C218.713 10.2064 218.693 10.074 218.699 9.94148C218.706 9.80897 218.738 9.67903 218.795 9.55923C218.852 9.43944 218.932 9.33217 219.031 9.2437C219.13 9.15522 219.245 9.08729 219.371 9.04387C219.496 9.00045 219.629 8.98241 219.761 8.99079C219.894 8.99917 220.023 9.03381 220.142 9.09269C220.261 9.15157 220.367 9.23352 220.454 9.33376C222.095 11.166 223.002 13.54 223 16Z" fill="currentColor"/>
<path opacity="0.2" d="M250 11V21H244C243.735 21 243.48 20.8946 243.293 20.7071C243.105 20.5196 243 20.2652 243 20V12C243 11.7348 243.105 11.4804 243.293 11.2929C243.48 11.1054 243.735 11 244 11H250Z" fill="currentColor"/>
<path d="M246.74 4.32764C246.652 4.22865 246.546 4.14807 246.426 4.09058C246.307 4.03309 246.178 3.99982 246.046 3.99271C245.914 3.9856 245.781 4.00479 245.657 4.04917C245.532 4.09354 245.417 4.16222 245.319 4.25121C245.221 4.34021 245.142 4.44776 245.086 4.56763C245.03 4.6875 244.998 4.81731 244.993 4.94952C244.987 5.08174 245.008 5.21374 245.054 5.33786C245.1 5.46199 245.17 5.57578 245.26 5.67264L249.194 10.0001H244C243.47 10.0001 242.961 10.2109 242.586 10.5859C242.211 10.961 242 11.4697 242 12.0001V20.0001C242 20.5306 242.211 21.0393 242.586 21.4144C242.961 21.7894 243.47 22.0001 244 22.0001H249.656L258.386 28.7889C258.534 28.9037 258.711 28.9748 258.897 28.9941C259.083 29.0133 259.271 28.98 259.439 28.8978C259.607 28.8156 259.749 28.688 259.848 28.5293C259.947 28.3706 260 28.1873 260 28.0001V21.8864L265.26 27.6726C265.348 27.7716 265.454 27.8522 265.574 27.9097C265.693 27.9672 265.822 28.0005 265.954 28.0076C266.086 28.0147 266.219 27.9955 266.343 27.9511C266.468 27.9067 266.583 27.8381 266.681 27.7491C266.779 27.6601 266.858 27.5525 266.914 27.4326C266.97 27.3128 267.002 27.183 267.007 27.0508C267.013 26.9185 266.992 26.7865 266.946 26.6624C266.9 26.5383 266.83 26.4245 266.74 26.3276L246.74 4.32764ZM244 12.0001H249V20.0001H244V12.0001ZM258 25.9551L251 20.5114V11.9864L258 19.6864V25.9551ZM263.25 17.9839C263.732 17.4361 263.998 16.7313 263.998 16.0014C263.998 15.2715 263.732 14.5667 263.25 14.0189C263.158 13.9212 263.087 13.8061 263.04 13.6803C262.994 13.5546 262.973 13.4207 262.979 13.2868C262.986 13.1529 263.019 13.0216 263.077 12.9007C263.135 12.7798 263.217 12.6719 263.317 12.5833C263.418 12.4946 263.535 12.4272 263.663 12.3848C263.79 12.3425 263.924 12.3262 264.058 12.3368C264.192 12.3475 264.322 12.3849 264.441 12.4469C264.56 12.5089 264.665 12.5942 264.75 12.6976C265.554 13.6107 265.998 14.7858 265.998 16.0026C265.998 17.2195 265.554 18.3945 264.75 19.3076C264.663 19.4061 264.558 19.4865 264.44 19.5443C264.322 19.602 264.193 19.6359 264.062 19.6441C263.931 19.6523 263.8 19.6346 263.676 19.592C263.551 19.5494 263.437 19.4827 263.338 19.3958C263.24 19.3088 263.159 19.2034 263.101 19.0854C263.044 18.9674 263.01 18.8392 263.002 18.7081C262.993 18.577 263.011 18.4455 263.054 18.3213C263.096 18.197 263.163 18.0824 263.25 17.9839ZM253.23 8.48389C253.149 8.38024 253.09 8.26171 253.055 8.13506C253.02 8.0084 253.01 7.87612 253.027 7.74576C253.043 7.6154 253.085 7.48952 253.15 7.37531C253.215 7.2611 253.301 7.1608 253.405 7.08014L258.386 3.20514C258.534 3.08997 258.712 3.0188 258.899 2.99978C259.085 2.98076 259.274 3.01465 259.442 3.09758C259.61 3.18051 259.752 3.30912 259.851 3.46873C259.949 3.62834 260.001 3.81249 260 4.00014V13.3539C260 13.6191 259.895 13.8735 259.707 14.061C259.52 14.2485 259.265 14.3539 259 14.3539C258.735 14.3539 258.48 14.2485 258.293 14.061C258.105 13.8735 258 13.6191 258 13.3539V6.04514L254.632 8.67014C254.422 8.83208 254.157 8.90396 253.894 8.86997C253.631 8.83598 253.392 8.6989 253.23 8.48889V8.48389ZM271 16.0001C271.001 18.4604 270.095 20.8346 268.454 22.6676C268.276 22.8604 268.029 22.9754 267.767 22.9878C267.504 23.0002 267.248 22.9091 267.052 22.734C266.857 22.559 266.738 22.314 266.721 22.0521C266.705 21.7902 266.792 21.5322 266.964 21.3339C268.276 19.8672 269.001 17.9685 269.001 16.0008C269.001 14.033 268.276 12.1343 266.964 10.6676C266.874 10.5702 266.804 10.4558 266.759 10.3312C266.713 10.2066 266.693 10.0741 266.699 9.94161C266.706 9.8091 266.738 9.67916 266.795 9.55936C266.852 9.43957 266.932 9.3323 267.031 9.24383C267.13 9.15535 267.245 9.08742 267.371 9.044C267.496 9.00058 267.629 8.98254 267.761 8.99092C267.894 8.9993 268.023 9.03394 268.142 9.09282C268.261 9.15171 268.367 9.23365 268.454 9.33389C270.095 11.1662 271.002 13.5402 271 16.0001Z" fill="currentColor"/>
</g>
<defs>
<clipPath id="clip0_17_16133">
<rect width="272" height="32" rx="5" fill="white"/>
</clipPath>
</defs>
</svg>
