<svg width="272" height="32" viewBox="0 0 272 32" fill="none" xmlns="http://www.w3.org/2000/svg">
<g clip-path="url(#clip0_17_16104)">
<path d="M25.0912 5H6.90875C6.40272 5.00066 5.91761 5.20197 5.55979 5.55979C5.20197 5.91761 5.00066 6.40272 5 6.90875V25.0912C5.00066 25.5973 5.20197 26.0824 5.55979 26.4402C5.91761 26.798 6.40272 26.9993 6.90875 27H25.0912C25.5973 26.9993 26.0824 26.798 26.4402 26.4402C26.798 26.0824 26.9993 25.5973 27 25.0912V6.90875C26.9993 6.40272 26.798 5.91761 26.4402 5.55979C26.0824 5.20197 25.5973 5.00066 25.0912 5ZM25 25H7V7H25V25Z" fill="currentColor"/>
<path d="M73.0912 5.5H54.9088C54.5353 5.50066 54.1774 5.64929 53.9133 5.91334C53.6493 6.17739 53.5007 6.53533 53.5 6.90875V25.0912C53.5007 25.4647 53.6493 25.8226 53.9133 26.0867C54.1774 26.3507 54.5353 26.4993 54.9088 26.5H73.0912C73.4647 26.4993 73.8226 26.3507 74.0867 26.0867C74.3507 25.8226 74.4993 25.4647 74.5 25.0912V6.90875C74.4993 6.53533 74.3507 6.17739 74.0867 5.91334C73.8226 5.64929 73.4647 5.50066 73.0912 5.5ZM73.5 25.0912C73.4997 25.1996 73.4565 25.3033 73.3799 25.3799C73.3033 25.4565 73.1996 25.4997 73.0912 25.5H54.9088C54.8004 25.4997 54.6967 25.4565 54.6201 25.3799C54.5435 25.3033 54.5003 25.1996 54.5 25.0912V6.90875C54.5003 6.80044 54.5435 6.69667 54.6201 6.62008C54.6967 6.5435 54.8004 6.50033 54.9088 6.5H73.0912C73.1996 6.50033 73.3033 6.5435 73.3799 6.62008C73.4565 6.69667 73.4997 6.80044 73.5 6.90875V25.0912Z" fill="currentColor"/>
<path d="M121.091 5.25H102.909C102.469 5.25033 102.047 5.4252 101.736 5.7362C101.425 6.04721 101.25 6.46892 101.25 6.90875V25.0912C101.25 25.5311 101.425 25.9528 101.736 26.2638C102.047 26.5748 102.469 26.7497 102.909 26.75H121.091C121.531 26.7497 121.953 26.5748 122.264 26.2638C122.575 25.9528 122.75 25.5311 122.75 25.0912V6.90875C122.75 6.46892 122.575 6.04721 122.264 5.7362C121.953 5.4252 121.531 5.25033 121.091 5.25ZM121.25 25.0912C121.25 25.1334 121.233 25.1737 121.204 25.2035C121.174 25.2333 121.133 25.25 121.091 25.25H102.909C102.867 25.25 102.826 25.2333 102.796 25.2035C102.767 25.1737 102.75 25.1334 102.75 25.0912V6.90875C102.75 6.86665 102.767 6.82627 102.796 6.7965C102.826 6.76673 102.867 6.75 102.909 6.75H121.091C121.133 6.75 121.174 6.76673 121.204 6.7965C121.233 6.82627 121.25 6.86665 121.25 6.90875V25.0912Z" fill="currentColor"/>
<path d="M169.091 4.5H150.909C150.27 4.50099 149.658 4.75509 149.207 5.2066C148.755 5.65812 148.501 6.27021 148.5 6.90875V25.0912C148.501 25.7298 148.755 26.3419 149.207 26.7934C149.658 27.2449 150.27 27.499 150.909 27.5H169.091C169.73 27.499 170.342 27.2449 170.793 26.7934C171.245 26.3419 171.499 25.7298 171.5 25.0912V6.90875C171.499 6.27021 171.245 5.65812 170.793 5.2066C170.342 4.75509 169.73 4.50099 169.091 4.5ZM168.5 24.5H151.5V7.5H168.5V24.5Z" fill="currentColor"/>
<path d="M219 6.90875V25.0912C218.999 25.5973 218.798 26.0824 218.44 26.4402C218.082 26.798 217.597 26.9993 217.091 27H198.909C198.403 26.9993 197.918 26.798 197.56 26.4402C197.202 26.0824 197.001 25.5973 197 25.0912V6.90875C197.001 6.40272 197.202 5.91761 197.56 5.55979C197.918 5.20197 198.403 5.00066 198.909 5H217.091C217.597 5.00066 218.082 5.20197 218.44 5.55979C218.798 5.91761 218.999 6.40272 219 6.90875Z" fill="currentColor"/>
<path opacity="0.2" d="M266 6.90875V25.0912C266 25.3322 265.904 25.5631 265.733 25.7335C265.563 25.9038 265.332 25.9997 265.091 26H246.909C246.668 25.9997 246.437 25.9038 246.267 25.7335C246.096 25.5631 246 25.3322 246 25.0912V6.90875C246 6.66784 246.096 6.43688 246.267 6.26653C246.437 6.09618 246.668 6.00033 246.909 6H265.091C265.332 6.00033 265.563 6.09618 265.733 6.26653C265.904 6.43688 266 6.66784 266 6.90875Z" fill="currentColor"/>
<path d="M265.091 5H246.909C246.403 5.00066 245.918 5.20197 245.56 5.55979C245.202 5.91761 245.001 6.40272 245 6.90875V25.0912C245.001 25.5973 245.202 26.0824 245.56 26.4402C245.918 26.798 246.403 26.9993 246.909 27H265.091C265.597 26.9993 266.082 26.798 266.44 26.4402C266.798 26.0824 266.999 25.5973 267 25.0912V6.90875C266.999 6.40272 266.798 5.91761 266.44 5.55979C266.082 5.20197 265.597 5.00066 265.091 5ZM265 25H247V7H265V25Z" fill="currentColor"/>
</g>
<defs>
<clipPath id="clip0_17_16104">
<rect width="272" height="32" rx="5" fill="white"/>
</clipPath>
</defs>
</svg>
