<svg width="272" height="32" viewBox="0 0 272 32" fill="none" xmlns="http://www.w3.org/2000/svg">
<g clip-path="url(#clip0_17_16076)">
<path d="M28 6H4C3.46957 6 2.96086 6.21071 2.58579 6.58579C2.21071 6.96086 2 7.46957 2 8V24C2 24.5304 2.21071 25.0391 2.58579 25.4142C2.96086 25.7893 3.46957 26 4 26H28C28.5304 26 29.0391 25.7893 29.4142 25.4142C29.7893 25.0391 30 24.5304 30 24V8C30 7.46957 29.7893 6.96086 29.4142 6.58579C29.0391 6.21071 28.5304 6 28 6ZM28 24H4V8H28V24ZM6 17C6 16.7348 6.10536 16.4804 6.29289 16.2929C6.48043 16.1054 6.73478 16 7 16H9C9.26522 16 9.51957 16.1054 9.70711 16.2929C9.89464 16.4804 10 16.7348 10 17C10 17.2652 9.89464 17.5196 9.70711 17.7071C9.51957 17.8946 9.26522 18 9 18H7C6.73478 18 6.48043 17.8946 6.29289 17.7071C6.10536 17.5196 6 17.2652 6 17ZM26 17C26 17.2652 25.8946 17.5196 25.7071 17.7071C25.5196 17.8946 25.2652 18 25 18H13C12.7348 18 12.4804 17.8946 12.2929 17.7071C12.1054 17.5196 12 17.2652 12 17C12 16.7348 12.1054 16.4804 12.2929 16.2929C12.4804 16.1054 12.7348 16 13 16H25C25.2652 16 25.5196 16.1054 25.7071 16.2929C25.8946 16.4804 26 16.7348 26 17ZM20 21C20 21.2652 19.8946 21.5196 19.7071 21.7071C19.5196 21.8946 19.2652 22 19 22H7C6.73478 22 6.48043 21.8946 6.29289 21.7071C6.10536 21.5196 6 21.2652 6 21C6 20.7348 6.10536 20.4804 6.29289 20.2929C6.48043 20.1054 6.73478 20 7 20H19C19.2652 20 19.5196 20.1054 19.7071 20.2929C19.8946 20.4804 20 20.7348 20 21ZM26 21C26 21.2652 25.8946 21.5196 25.7071 21.7071C25.5196 21.8946 25.2652 22 25 22H23C22.7348 22 22.4804 21.8946 22.2929 21.7071C22.1054 21.5196 22 21.2652 22 21C22 20.7348 22.1054 20.4804 22.2929 20.2929C22.4804 20.1054 22.7348 20 23 20H25C25.2652 20 25.5196 20.1054 25.7071 20.2929C25.8946 20.4804 26 20.7348 26 21Z" fill="currentColor"/>
<path d="M76 6.5H52C51.6022 6.5 51.2206 6.65804 50.9393 6.93934C50.658 7.22064 50.5 7.60218 50.5 8V24C50.5 24.3978 50.658 24.7794 50.9393 25.0607C51.2206 25.342 51.6022 25.5 52 25.5H76C76.3978 25.5 76.7794 25.342 77.0607 25.0607C77.342 24.7794 77.5 24.3978 77.5 24V8C77.5 7.60218 77.342 7.22064 77.0607 6.93934C76.7794 6.65804 76.3978 6.5 76 6.5ZM76.5 24C76.5 24.1326 76.4473 24.2598 76.3536 24.3536C76.2598 24.4473 76.1326 24.5 76 24.5H52C51.8674 24.5 51.7402 24.4473 51.6464 24.3536C51.5527 24.2598 51.5 24.1326 51.5 24V8C51.5 7.86739 51.5527 7.74021 51.6464 7.64645C51.7402 7.55268 51.8674 7.5 52 7.5H76C76.1326 7.5 76.2598 7.55268 76.3536 7.64645C76.4473 7.74021 76.5 7.86739 76.5 8V24ZM54.5 17C54.5 16.8674 54.5527 16.7402 54.6464 16.6464C54.7402 16.5527 54.8674 16.5 55 16.5H57C57.1326 16.5 57.2598 16.5527 57.3536 16.6464C57.4473 16.7402 57.5 16.8674 57.5 17C57.5 17.1326 57.4473 17.2598 57.3536 17.3536C57.2598 17.4473 57.1326 17.5 57 17.5H55C54.8674 17.5 54.7402 17.4473 54.6464 17.3536C54.5527 17.2598 54.5 17.1326 54.5 17ZM73.5 17C73.5 17.1326 73.4473 17.2598 73.3536 17.3536C73.2598 17.4473 73.1326 17.5 73 17.5H61C60.8674 17.5 60.7402 17.4473 60.6464 17.3536C60.5527 17.2598 60.5 17.1326 60.5 17C60.5 16.8674 60.5527 16.7402 60.6464 16.6464C60.7402 16.5527 60.8674 16.5 61 16.5H73C73.1326 16.5 73.2598 16.5527 73.3536 16.6464C73.4473 16.7402 73.5 16.8674 73.5 17ZM67.5 21C67.5 21.1326 67.4473 21.2598 67.3536 21.3536C67.2598 21.4473 67.1326 21.5 67 21.5H55C54.8674 21.5 54.7402 21.4473 54.6464 21.3536C54.5527 21.2598 54.5 21.1326 54.5 21C54.5 20.8674 54.5527 20.7402 54.6464 20.6464C54.7402 20.5527 54.8674 20.5 55 20.5H67C67.1326 20.5 67.2598 20.5527 67.3536 20.6464C67.4473 20.7402 67.5 20.8674 67.5 21ZM73.5 21C73.5 21.1326 73.4473 21.2598 73.3536 21.3536C73.2598 21.4473 73.1326 21.5 73 21.5H71C70.8674 21.5 70.7402 21.4473 70.6464 21.3536C70.5527 21.2598 70.5 21.1326 70.5 21C70.5 20.8674 70.5527 20.7402 70.6464 20.6464C70.7402 20.5527 70.8674 20.5 71 20.5H73C73.1326 20.5 73.2598 20.5527 73.3536 20.6464C73.4473 20.7402 73.5 20.8674 73.5 21Z" fill="currentColor"/>
<path d="M124 6.25H100C99.5359 6.25 99.0908 6.43437 98.7626 6.76256C98.4344 7.09075 98.25 7.53587 98.25 8V24C98.25 24.4641 98.4344 24.9092 98.7626 25.2374C99.0908 25.5656 99.5359 25.75 100 25.75H124C124.464 25.75 124.909 25.5656 125.237 25.2374C125.566 24.9092 125.75 24.4641 125.75 24V8C125.75 7.53587 125.566 7.09075 125.237 6.76256C124.909 6.43437 124.464 6.25 124 6.25ZM124.25 24C124.25 24.0663 124.224 24.1299 124.177 24.1768C124.13 24.2237 124.066 24.25 124 24.25H100C99.9337 24.25 99.8701 24.2237 99.8232 24.1768C99.7763 24.1299 99.75 24.0663 99.75 24V8C99.75 7.9337 99.7763 7.87011 99.8232 7.82322C99.8701 7.77634 99.9337 7.75 100 7.75H124C124.066 7.75 124.13 7.77634 124.177 7.82322C124.224 7.87011 124.25 7.9337 124.25 8V24ZM102.25 17C102.25 16.8011 102.329 16.6103 102.47 16.4697C102.61 16.329 102.801 16.25 103 16.25H105C105.199 16.25 105.39 16.329 105.53 16.4697C105.671 16.6103 105.75 16.8011 105.75 17C105.75 17.1989 105.671 17.3897 105.53 17.5303C105.39 17.671 105.199 17.75 105 17.75H103C102.801 17.75 102.61 17.671 102.47 17.5303C102.329 17.3897 102.25 17.1989 102.25 17ZM121.75 17C121.75 17.1989 121.671 17.3897 121.53 17.5303C121.39 17.671 121.199 17.75 121 17.75H109C108.801 17.75 108.61 17.671 108.47 17.5303C108.329 17.3897 108.25 17.1989 108.25 17C108.25 16.8011 108.329 16.6103 108.47 16.4697C108.61 16.329 108.801 16.25 109 16.25H121C121.199 16.25 121.39 16.329 121.53 16.4697C121.671 16.6103 121.75 16.8011 121.75 17ZM115.75 21C115.75 21.1989 115.671 21.3897 115.53 21.5303C115.39 21.671 115.199 21.75 115 21.75H103C102.801 21.75 102.61 21.671 102.47 21.5303C102.329 21.3897 102.25 21.1989 102.25 21C102.25 20.8011 102.329 20.6103 102.47 20.4697C102.61 20.329 102.801 20.25 103 20.25H115C115.199 20.25 115.39 20.329 115.53 20.4697C115.671 20.6103 115.75 20.8011 115.75 21ZM121.75 21C121.75 21.1989 121.671 21.3897 121.53 21.5303C121.39 21.671 121.199 21.75 121 21.75H119C118.801 21.75 118.61 21.671 118.47 21.5303C118.329 21.3897 118.25 21.1989 118.25 21C118.25 20.8011 118.329 20.6103 118.47 20.4697C118.61 20.329 118.801 20.25 119 20.25H121C121.199 20.25 121.39 20.329 121.53 20.4697C121.671 20.6103 121.75 20.8011 121.75 21Z" fill="currentColor"/>
<path d="M172 5.5H148C147.337 5.5 146.701 5.76339 146.232 6.23223C145.763 6.70107 145.5 7.33696 145.5 8V24C145.5 24.663 145.763 25.2989 146.232 25.7678C146.701 26.2366 147.337 26.5 148 26.5H172C172.663 26.5 173.299 26.2366 173.768 25.7678C174.237 25.2989 174.5 24.663 174.5 24V8C174.5 7.33696 174.237 6.70107 173.768 6.23223C173.299 5.76339 172.663 5.5 172 5.5ZM171.5 23.5H148.5V8.5H171.5V23.5ZM150 16C150 15.6022 150.158 15.2206 150.439 14.9393C150.721 14.658 151.102 14.5 151.5 14.5H153.5C153.898 14.5 154.279 14.658 154.561 14.9393C154.842 15.2206 155 15.6022 155 16C155 16.3978 154.842 16.7794 154.561 17.0607C154.279 17.342 153.898 17.5 153.5 17.5H151.5C151.102 17.5 150.721 17.342 150.439 17.0607C150.158 16.7794 150 16.3978 150 16ZM157 16C157 15.6022 157.158 15.2206 157.439 14.9393C157.721 14.658 158.102 14.5 158.5 14.5H168.5C168.898 14.5 169.279 14.658 169.561 14.9393C169.842 15.2206 170 15.6022 170 16C170 16.3978 169.842 16.7794 169.561 17.0607C169.279 17.342 168.898 17.5 168.5 17.5H158.5C158.102 17.5 157.721 17.342 157.439 17.0607C157.158 16.7794 157 16.3978 157 16ZM150 20.5C150 20.1022 150.158 19.7206 150.439 19.4393C150.721 19.158 151.102 19 151.5 19H161.5C161.898 19 162.279 19.158 162.561 19.4393C162.842 19.7206 163 20.1022 163 20.5C163 20.8978 162.842 21.2794 162.561 21.5607C162.279 21.842 161.898 22 161.5 22H151.5C151.102 22 150.721 21.842 150.439 21.5607C150.158 21.2794 150 20.8978 150 20.5ZM170 20.5C170 20.8978 169.842 21.2794 169.561 21.5607C169.279 21.842 168.898 22 168.5 22H166.5C166.102 22 165.721 21.842 165.439 21.5607C165.158 21.2794 165 20.8978 165 20.5C165 20.1022 165.158 19.7206 165.439 19.4393C165.721 19.158 166.102 19 166.5 19H168.5C168.898 19 169.279 19.158 169.561 19.4393C169.842 19.7206 170 20.1022 170 20.5Z" fill="currentColor"/>
<path d="M220 6H196C195.47 6 194.961 6.21071 194.586 6.58579C194.211 6.96086 194 7.46957 194 8V24C194 24.5304 194.211 25.0391 194.586 25.4142C194.961 25.7893 195.47 26 196 26H220C220.53 26 221.039 25.7893 221.414 25.4142C221.789 25.0391 222 24.5304 222 24V8C222 7.46957 221.789 6.96086 221.414 6.58579C221.039 6.21071 220.53 6 220 6ZM199 16H201C201.265 16 201.52 16.1054 201.707 16.2929C201.895 16.4804 202 16.7348 202 17C202 17.2652 201.895 17.5196 201.707 17.7071C201.52 17.8946 201.265 18 201 18H199C198.735 18 198.48 17.8946 198.293 17.7071C198.105 17.5196 198 17.2652 198 17C198 16.7348 198.105 16.4804 198.293 16.2929C198.48 16.1054 198.735 16 199 16ZM211 22H199C198.735 22 198.48 21.8946 198.293 21.7071C198.105 21.5196 198 21.2652 198 21C198 20.7348 198.105 20.4804 198.293 20.2929C198.48 20.1054 198.735 20 199 20H211C211.265 20 211.52 20.1054 211.707 20.2929C211.895 20.4804 212 20.7348 212 21C212 21.2652 211.895 21.5196 211.707 21.7071C211.52 21.8946 211.265 22 211 22ZM217 22H215C214.735 22 214.48 21.8946 214.293 21.7071C214.105 21.5196 214 21.2652 214 21C214 20.7348 214.105 20.4804 214.293 20.2929C214.48 20.1054 214.735 20 215 20H217C217.265 20 217.52 20.1054 217.707 20.2929C217.895 20.4804 218 20.7348 218 21C218 21.2652 217.895 21.5196 217.707 21.7071C217.52 21.8946 217.265 22 217 22ZM217 18H205C204.735 18 204.48 17.8946 204.293 17.7071C204.105 17.5196 204 17.2652 204 17C204 16.7348 204.105 16.4804 204.293 16.2929C204.48 16.1054 204.735 16 205 16H217C217.265 16 217.52 16.1054 217.707 16.2929C217.895 16.4804 218 16.7348 218 17C218 17.2652 217.895 17.5196 217.707 17.7071C217.52 17.8946 217.265 18 217 18Z" fill="currentColor"/>
<path opacity="0.2" d="M269 8V24C269 24.2652 268.895 24.5196 268.707 24.7071C268.52 24.8946 268.265 25 268 25H244C243.735 25 243.48 24.8946 243.293 24.7071C243.105 24.5196 243 24.2652 243 24V8C243 7.73478 243.105 7.48043 243.293 7.29289C243.48 7.10536 243.735 7 244 7H268C268.265 7 268.52 7.10536 268.707 7.29289C268.895 7.48043 269 7.73478 269 8Z" fill="currentColor"/>
<path d="M268 6H244C243.47 6 242.961 6.21071 242.586 6.58579C242.211 6.96086 242 7.46957 242 8V24C242 24.5304 242.211 25.0391 242.586 25.4142C242.961 25.7893 243.47 26 244 26H268C268.53 26 269.039 25.7893 269.414 25.4142C269.789 25.0391 270 24.5304 270 24V8C270 7.46957 269.789 6.96086 269.414 6.58579C269.039 6.21071 268.53 6 268 6ZM268 24H244V8H268V24ZM246 17C246 16.7348 246.105 16.4804 246.293 16.2929C246.48 16.1054 246.735 16 247 16H249C249.265 16 249.52 16.1054 249.707 16.2929C249.895 16.4804 250 16.7348 250 17C250 17.2652 249.895 17.5196 249.707 17.7071C249.52 17.8946 249.265 18 249 18H247C246.735 18 246.48 17.8946 246.293 17.7071C246.105 17.5196 246 17.2652 246 17ZM266 17C266 17.2652 265.895 17.5196 265.707 17.7071C265.52 17.8946 265.265 18 265 18H253C252.735 18 252.48 17.8946 252.293 17.7071C252.105 17.5196 252 17.2652 252 17C252 16.7348 252.105 16.4804 252.293 16.2929C252.48 16.1054 252.735 16 253 16H265C265.265 16 265.52 16.1054 265.707 16.2929C265.895 16.4804 266 16.7348 266 17ZM260 21C260 21.2652 259.895 21.5196 259.707 21.7071C259.52 21.8946 259.265 22 259 22H247C246.735 22 246.48 21.8946 246.293 21.7071C246.105 21.5196 246 21.2652 246 21C246 20.7348 246.105 20.4804 246.293 20.2929C246.48 20.1054 246.735 20 247 20H259C259.265 20 259.52 20.1054 259.707 20.2929C259.895 20.4804 260 20.7348 260 21ZM266 21C266 21.2652 265.895 21.5196 265.707 21.7071C265.52 21.8946 265.265 22 265 22H263C262.735 22 262.48 21.8946 262.293 21.7071C262.105 21.5196 262 21.2652 262 21C262 20.7348 262.105 20.4804 262.293 20.2929C262.48 20.1054 262.735 20 263 20H265C265.265 20 265.52 20.1054 265.707 20.2929C265.895 20.4804 266 20.7348 266 21Z" fill="currentColor"/>
</g>
<defs>
<clipPath id="clip0_17_16076">
<rect width="272" height="32" rx="5" fill="white"/>
</clipPath>
</defs>
</svg>
