<svg width="272" height="32" viewBox="0 0 272 32" fill="none" xmlns="http://www.w3.org/2000/svg">
<g clip-path="url(#clip0_17_16062)">
<path d="M27 8.00007H18.4137L22.7075 3.70757C22.8951 3.51993 23.0006 3.26543 23.0006 3.00007C23.0006 2.7347 22.8951 2.48021 22.7075 2.29257C22.5199 2.10493 22.2654 1.99951 22 1.99951C21.7346 1.99951 21.4801 2.10493 21.2925 2.29257L16 7.58632L10.7075 2.29257C10.6146 2.19966 10.5043 2.12596 10.3829 2.07567C10.2615 2.02539 10.1314 1.99951 10 1.99951C9.86861 1.99951 9.7385 2.02539 9.6171 2.07567C9.49571 2.12596 9.38541 2.19966 9.2925 2.29257C9.10486 2.48021 8.99944 2.7347 8.99944 3.00007C8.99944 3.26543 9.10486 3.51993 9.2925 3.70757L13.5863 8.00007H5C4.46957 8.00007 3.96086 8.21078 3.58579 8.58585C3.21071 8.96093 3 9.46963 3 10.0001V25.0001C3 25.5305 3.21071 26.0392 3.58579 26.4143C3.96086 26.7894 4.46957 27.0001 5 27.0001H27C27.5304 27.0001 28.0391 26.7894 28.4142 26.4143C28.7893 26.0392 29 25.5305 29 25.0001V10.0001C29 9.46963 28.7893 8.96093 28.4142 8.58585C28.0391 8.21078 27.5304 8.00007 27 8.00007ZM5 10.0001H18V25.0001H5V10.0001ZM27 25.0001H20V10.0001H27V25.0001ZM25 14.5001C25 14.7967 24.912 15.0867 24.7472 15.3334C24.5824 15.5801 24.3481 15.7724 24.074 15.8859C23.7999 15.9994 23.4983 16.0291 23.2074 15.9712C22.9164 15.9134 22.6491 15.7705 22.4393 15.5607C22.2296 15.3509 22.0867 15.0837 22.0288 14.7927C21.9709 14.5017 22.0007 14.2001 22.1142 13.926C22.2277 13.652 22.42 13.4177 22.6666 13.2529C22.9133 13.088 23.2033 13.0001 23.5 13.0001C23.8978 13.0001 24.2794 13.1581 24.5607 13.4394C24.842 13.7207 25 14.1022 25 14.5001ZM25 20.5001C25 20.7967 24.912 21.0868 24.7472 21.3334C24.5824 21.5801 24.3481 21.7724 24.074 21.8859C23.7999 21.9994 23.4983 22.0291 23.2074 21.9712C22.9164 21.9134 22.6491 21.7705 22.4393 21.5607C22.2296 21.351 22.0867 21.0837 22.0288 20.7927C21.9709 20.5017 22.0007 20.2001 22.1142 19.926C22.2277 19.652 22.42 19.4177 22.6666 19.2529C22.9133 19.088 23.2033 19.0001 23.5 19.0001C23.8978 19.0001 24.2794 19.1581 24.5607 19.4394C24.842 19.7207 25 20.1022 25 20.5001Z" fill="currentColor"/>
<path d="M75 8.49979H65.2075L70.3538 3.35354C70.4002 3.30708 70.4371 3.25193 70.4622 3.19124C70.4873 3.13054 70.5003 3.06549 70.5003 2.99979C70.5003 2.93409 70.4873 2.86904 70.4622 2.80834C70.4371 2.74764 70.4002 2.69249 70.3538 2.64604C70.3073 2.59958 70.2521 2.56273 70.1914 2.53759C70.1308 2.51245 70.0657 2.49951 70 2.49951C69.9343 2.49951 69.8692 2.51245 69.8086 2.53759C69.7479 2.56273 69.6927 2.59958 69.6462 2.64604L64 8.29229L58.3538 2.64604C58.2599 2.55222 58.1327 2.49951 58 2.49951C57.8673 2.49951 57.7401 2.55222 57.6462 2.64604C57.5524 2.73986 57.4997 2.86711 57.4997 2.99979C57.4997 3.13247 57.5524 3.25972 57.6462 3.35354L62.7925 8.49979H53C52.6022 8.49979 52.2206 8.65782 51.9393 8.93913C51.658 9.22043 51.5 9.60196 51.5 9.99979V24.9998C51.5 25.3976 51.658 25.7791 51.9393 26.0604C52.2206 26.3418 52.6022 26.4998 53 26.4998H75C75.3978 26.4998 75.7794 26.3418 76.0607 26.0604C76.342 25.7791 76.5 25.3976 76.5 24.9998V9.99979C76.5 9.60196 76.342 9.22043 76.0607 8.93913C75.7794 8.65782 75.3978 8.49979 75 8.49979ZM52.5 24.9998V9.99979C52.5 9.86718 52.5527 9.74 52.6464 9.64624C52.7402 9.55247 52.8674 9.49979 53 9.49979H66.5V25.4998H53C52.8674 25.4998 52.7402 25.4471 52.6464 25.3533C52.5527 25.2596 52.5 25.1324 52.5 24.9998ZM75.5 24.9998C75.5 25.1324 75.4473 25.2596 75.3536 25.3533C75.2598 25.4471 75.1326 25.4998 75 25.4998H67.5V9.49979H75C75.1326 9.49979 75.2598 9.55247 75.3536 9.64624C75.4473 9.74 75.5 9.86718 75.5 9.99979V24.9998ZM72.5 14.4998C72.5 14.6976 72.4414 14.8909 72.3315 15.0554C72.2216 15.2198 72.0654 15.348 71.8827 15.4237C71.7 15.4994 71.4989 15.5192 71.3049 15.4806C71.1109 15.442 70.9327 15.3467 70.7929 15.2069C70.653 15.067 70.5578 14.8889 70.5192 14.6949C70.4806 14.5009 70.5004 14.2998 70.5761 14.1171C70.6518 13.9344 70.78 13.7782 70.9444 13.6683C71.1089 13.5584 71.3022 13.4998 71.5 13.4998C71.7652 13.4998 72.0196 13.6051 72.2071 13.7927C72.3946 13.9802 72.5 14.2346 72.5 14.4998ZM72.5 20.4998C72.5 20.6976 72.4414 20.8909 72.3315 21.0554C72.2216 21.2198 72.0654 21.348 71.8827 21.4237C71.7 21.4994 71.4989 21.5192 71.3049 21.4806C71.1109 21.442 70.9327 21.3468 70.7929 21.2069C70.653 21.067 70.5578 20.8889 70.5192 20.6949C70.4806 20.5009 70.5004 20.2998 70.5761 20.1171C70.6518 19.9344 70.78 19.7782 70.9444 19.6683C71.1089 19.5584 71.3022 19.4998 71.5 19.4998C71.7652 19.4998 72.0196 19.6051 72.2071 19.7927C72.3946 19.9802 72.5 20.2346 72.5 20.4998Z" fill="currentColor"/>
<path d="M123 8.25015H113.81L118.53 3.53015C118.662 3.38798 118.735 3.19993 118.731 3.00563C118.728 2.81133 118.649 2.62594 118.512 2.48853C118.374 2.35112 118.189 2.27241 117.995 2.26898C117.8 2.26555 117.612 2.33767 117.47 2.47015L112 7.9389L106.53 2.47015C106.461 2.39647 106.379 2.33736 106.287 2.29637C106.195 2.25538 106.095 2.23334 105.995 2.23156C105.894 2.22979 105.794 2.24831 105.7 2.28603C105.607 2.32375 105.522 2.3799 105.451 2.45112C105.38 2.52233 105.324 2.60717 105.286 2.70056C105.248 2.79394 105.23 2.89397 105.231 2.99468C105.233 3.09538 105.255 3.19469 105.296 3.28669C105.337 3.37869 105.396 3.46149 105.47 3.53015L110.19 8.25015H101C100.536 8.25015 100.091 8.43453 99.7626 8.76272C99.4344 9.09091 99.25 9.53602 99.25 10.0002V25.0002C99.25 25.4643 99.4344 25.9094 99.7626 26.2376C100.091 26.5658 100.536 26.7502 101 26.7502H123C123.464 26.7502 123.909 26.5658 124.237 26.2376C124.566 25.9094 124.75 25.4643 124.75 25.0002V10.0002C124.75 9.53602 124.566 9.09091 124.237 8.76272C123.909 8.43453 123.464 8.25015 123 8.25015ZM100.75 25.0002V10.0002C100.75 9.93385 100.776 9.87026 100.823 9.82338C100.87 9.77649 100.934 9.75015 101 9.75015H114.25V25.2502H101C100.934 25.2502 100.87 25.2238 100.823 25.1769C100.776 25.13 100.75 25.0665 100.75 25.0002ZM123.25 25.0002C123.25 25.0665 123.224 25.13 123.177 25.1769C123.13 25.2238 123.066 25.2502 123 25.2502H115.75V9.75015H123C123.066 9.75015 123.13 9.77649 123.177 9.82338C123.224 9.87026 123.25 9.93385 123.25 10.0002V25.0002ZM120.75 14.5002C120.75 14.7474 120.677 14.9891 120.539 15.1946C120.402 15.4002 120.207 15.5604 119.978 15.655C119.75 15.7496 119.499 15.7744 119.256 15.7261C119.014 15.6779 118.791 15.5589 118.616 15.384C118.441 15.2092 118.322 14.9865 118.274 14.744C118.226 14.5015 118.251 14.2502 118.345 14.0218C118.44 13.7934 118.6 13.5982 118.806 13.4608C119.011 13.3235 119.253 13.2502 119.5 13.2502C119.832 13.2502 120.149 13.3818 120.384 13.6163C120.618 13.8507 120.75 14.1686 120.75 14.5002ZM120.75 20.5002C120.75 20.7474 120.677 20.9891 120.539 21.1946C120.402 21.4002 120.207 21.5604 119.978 21.655C119.75 21.7496 119.499 21.7744 119.256 21.7261C119.014 21.6779 118.791 21.5589 118.616 21.384C118.441 21.2092 118.322 20.9865 118.274 20.744C118.226 20.5015 118.251 20.2502 118.345 20.0218C118.44 19.7934 118.6 19.5982 118.806 19.4608C119.011 19.3235 119.253 19.2502 119.5 19.2502C119.832 19.2502 120.149 19.3818 120.384 19.6163C120.618 19.8507 120.75 20.1686 120.75 20.5002Z" fill="currentColor"/>
<path d="M171 7.50022H163.625L167.065 4.06022C167.347 3.77843 167.505 3.39623 167.505 2.99772C167.505 2.5992 167.347 2.21701 167.065 1.93522C166.783 1.65343 166.401 1.49512 166.003 1.49512C165.604 1.49512 165.222 1.65343 164.94 1.93522L160 6.87522L155.061 1.93897C154.779 1.65718 154.397 1.49887 153.999 1.49887C153.6 1.49887 153.218 1.65718 152.936 1.93897C152.654 2.22076 152.496 2.60295 152.496 3.00147C152.496 3.39998 152.654 3.78218 152.936 4.06397L156.375 7.50022H149C148.337 7.50022 147.701 7.76361 147.232 8.23245C146.763 8.70129 146.5 9.33718 146.5 10.0002V25.0002C146.5 25.6633 146.763 26.2991 147.232 26.768C147.701 27.2368 148.337 27.5002 149 27.5002H171C171.663 27.5002 172.299 27.2368 172.768 26.768C173.237 26.2991 173.5 25.6633 173.5 25.0002V10.0002C173.5 9.33718 173.237 8.70129 172.768 8.23245C172.299 7.76361 171.663 7.50022 171 7.50022ZM149.5 10.5002H160V24.5002H149.5V10.5002ZM170.5 24.5002H163V10.5002H170.5V24.5002ZM165 14.5002C165 14.1047 165.117 13.718 165.337 13.3891C165.557 13.0602 165.869 12.8038 166.235 12.6525C166.6 12.5011 167.002 12.4615 167.39 12.5386C167.778 12.6158 168.135 12.8063 168.414 13.086C168.694 13.3657 168.884 13.7221 168.962 14.11C169.039 14.498 168.999 14.9001 168.848 15.2656C168.696 15.631 168.44 15.9434 168.111 16.1632C167.782 16.3829 167.396 16.5002 167 16.5002C166.47 16.5002 165.961 16.2895 165.586 15.9144C165.211 15.5394 165 15.0307 165 14.5002ZM169 20.5002C169 20.8958 168.883 21.2825 168.663 21.6114C168.443 21.9403 168.131 22.1966 167.765 22.348C167.4 22.4994 166.998 22.539 166.61 22.4618C166.222 22.3846 165.865 22.1941 165.586 21.9144C165.306 21.6347 165.116 21.2784 165.038 20.8904C164.961 20.5024 165.001 20.1003 165.152 19.7349C165.304 19.3694 165.56 19.057 165.889 18.8373C166.218 18.6175 166.604 18.5002 167 18.5002C167.53 18.5002 168.039 18.7109 168.414 19.086C168.789 19.4611 169 19.9698 169 20.5002Z" fill="currentColor"/>
<path d="M219 8.00007H210.414L214.708 3.70757C214.895 3.51993 215.001 3.26543 215.001 3.00007C215.001 2.7347 214.895 2.48021 214.708 2.29257C214.52 2.10493 214.265 1.99951 214 1.99951C213.735 1.99951 213.48 2.10493 213.292 2.29257L208 7.58632L202.708 2.29257C202.615 2.19966 202.504 2.12596 202.383 2.07567C202.262 2.02539 202.131 1.99951 202 1.99951C201.869 1.99951 201.738 2.02539 201.617 2.07567C201.496 2.12596 201.385 2.19966 201.292 2.29257C201.105 2.48021 200.999 2.7347 200.999 3.00007C200.999 3.26543 201.105 3.51993 201.292 3.70757L205.586 8.00007H197C196.47 8.00007 195.961 8.21078 195.586 8.58585C195.211 8.96093 195 9.46963 195 10.0001V25.0001C195 25.5305 195.211 26.0392 195.586 26.4143C195.961 26.7894 196.47 27.0001 197 27.0001H219C219.53 27.0001 220.039 26.7894 220.414 26.4143C220.789 26.0392 221 25.5305 221 25.0001V10.0001C221 9.46963 220.789 8.96093 220.414 8.58585C220.039 8.21078 219.53 8.00007 219 8.00007ZM219 25.0001H212V10.0001H219V25.0001ZM217 14.5001C217 14.7967 216.912 15.0867 216.747 15.3334C216.582 15.5801 216.348 15.7724 216.074 15.8859C215.8 15.9994 215.498 16.0291 215.207 15.9712C214.916 15.9134 214.649 15.7705 214.439 15.5607C214.23 15.3509 214.087 15.0837 214.029 14.7927C213.971 14.5017 214.001 14.2001 214.114 13.926C214.228 13.652 214.42 13.4177 214.667 13.2529C214.913 13.088 215.203 13.0001 215.5 13.0001C215.898 13.0001 216.279 13.1581 216.561 13.4394C216.842 13.7207 217 14.1022 217 14.5001ZM217 20.5001C217 20.7967 216.912 21.0868 216.747 21.3334C216.582 21.5801 216.348 21.7724 216.074 21.8859C215.8 21.9994 215.498 22.0291 215.207 21.9712C214.916 21.9134 214.649 21.7705 214.439 21.5607C214.23 21.351 214.087 21.0837 214.029 20.7927C213.971 20.5017 214.001 20.2001 214.114 19.926C214.228 19.652 214.42 19.4177 214.667 19.2529C214.913 19.088 215.203 19.0001 215.5 19.0001C215.898 19.0001 216.279 19.1581 216.561 19.4394C216.842 19.7207 217 20.1022 217 20.5001Z" fill="currentColor"/>
<path opacity="0.2" d="M259 9V26H245C244.735 26 244.48 25.8946 244.293 25.7071C244.105 25.5196 244 25.2652 244 25V10C244 9.73478 244.105 9.48043 244.293 9.29289C244.48 9.10536 244.735 9 245 9H259Z" fill="currentColor"/>
<path d="M267 8.00007H258.414L262.708 3.70757C262.895 3.51993 263.001 3.26543 263.001 3.00007C263.001 2.7347 262.895 2.48021 262.708 2.29257C262.52 2.10493 262.265 1.99951 262 1.99951C261.735 1.99951 261.48 2.10493 261.292 2.29257L256 7.58632L250.708 2.29257C250.615 2.19966 250.504 2.12596 250.383 2.07567C250.262 2.02539 250.131 1.99951 250 1.99951C249.869 1.99951 249.738 2.02539 249.617 2.07567C249.496 2.12596 249.385 2.19966 249.292 2.29257C249.105 2.48021 248.999 2.7347 248.999 3.00007C248.999 3.26543 249.105 3.51993 249.292 3.70757L253.586 8.00007H245C244.47 8.00007 243.961 8.21078 243.586 8.58585C243.211 8.96093 243 9.46963 243 10.0001V25.0001C243 25.5305 243.211 26.0392 243.586 26.4143C243.961 26.7894 244.47 27.0001 245 27.0001H267C267.53 27.0001 268.039 26.7894 268.414 26.4143C268.789 26.0392 269 25.5305 269 25.0001V10.0001C269 9.46963 268.789 8.96093 268.414 8.58585C268.039 8.21078 267.53 8.00007 267 8.00007ZM245 10.0001H258V25.0001H245V10.0001ZM267 25.0001H260V10.0001H267V25.0001ZM265 14.5001C265 14.7967 264.912 15.0867 264.747 15.3334C264.582 15.5801 264.348 15.7724 264.074 15.8859C263.8 15.9994 263.498 16.0291 263.207 15.9712C262.916 15.9134 262.649 15.7705 262.439 15.5607C262.23 15.3509 262.087 15.0837 262.029 14.7927C261.971 14.5017 262.001 14.2001 262.114 13.926C262.228 13.652 262.42 13.4177 262.667 13.2529C262.913 13.088 263.203 13.0001 263.5 13.0001C263.898 13.0001 264.279 13.1581 264.561 13.4394C264.842 13.7207 265 14.1022 265 14.5001ZM265 20.5001C265 20.7967 264.912 21.0868 264.747 21.3334C264.582 21.5801 264.348 21.7724 264.074 21.8859C263.8 21.9994 263.498 22.0291 263.207 21.9712C262.916 21.9134 262.649 21.7705 262.439 21.5607C262.23 21.351 262.087 21.0837 262.029 20.7927C261.971 20.5017 262.001 20.2001 262.114 19.926C262.228 19.652 262.42 19.4177 262.667 19.2529C262.913 19.088 263.203 19.0001 263.5 19.0001C263.898 19.0001 264.279 19.1581 264.561 19.4394C264.842 19.7207 265 20.1022 265 20.5001Z" fill="currentColor"/>
</g>
<defs>
<clipPath id="clip0_17_16062">
<rect width="272" height="32" rx="5" fill="white"/>
</clipPath>
</defs>
</svg>
