<svg width="272" height="32" viewBox="0 0 272 32" fill="none" xmlns="http://www.w3.org/2000/svg">
<g clip-path="url(#clip0_17_16006)">
<path d="M16 3C13.4288 3 10.9154 3.76244 8.77759 5.1909C6.63975 6.61935 4.97351 8.64968 3.98957 11.0251C3.00563 13.4006 2.74819 16.0144 3.2498 18.5362C3.75141 21.0579 4.98953 23.3743 6.80762 25.1924C8.6257 27.0105 10.9421 28.2486 13.4638 28.7502C15.9856 29.2518 18.5995 28.9944 20.9749 28.0104C23.3503 27.0265 25.3807 25.3603 26.8091 23.2224C28.2376 21.0846 29 18.5712 29 16C28.9964 12.5533 27.6256 9.24882 25.1884 6.81163C22.7512 4.37445 19.4467 3.00364 16 3ZM16 27C13.8244 27 11.6977 26.3549 9.88873 25.1462C8.07979 23.9375 6.66989 22.2195 5.83733 20.2095C5.00477 18.1995 4.78693 15.9878 5.21137 13.854C5.63581 11.7202 6.68345 9.7602 8.22183 8.22183C9.76021 6.68345 11.7202 5.6358 13.854 5.21136C15.9878 4.78692 18.1995 5.00476 20.2095 5.83733C22.2195 6.66989 23.9375 8.07979 25.1462 9.88873C26.3549 11.6977 27 13.8244 27 16C26.9967 18.9164 25.8367 21.7123 23.7745 23.7745C21.7123 25.8367 18.9164 26.9967 16 27ZM16 9C14.1441 9.00199 12.3648 9.74012 11.0525 11.0524C9.74013 12.3648 9.00199 14.1441 9.00001 16C9.00001 16.2652 8.89465 16.5196 8.70711 16.7071C8.51958 16.8946 8.26522 17 8.00001 17C7.73479 17 7.48044 16.8946 7.2929 16.7071C7.10536 16.5196 7.00001 16.2652 7.00001 16C7.00265 13.6139 7.95171 11.3262 9.63897 9.63896C11.3262 7.95171 13.6139 7.00265 16 7C16.2652 7 16.5196 7.10536 16.7071 7.29289C16.8946 7.48043 17 7.73478 17 8C17 8.26522 16.8946 8.51957 16.7071 8.70711C16.5196 8.89464 16.2652 9 16 9ZM25 16C24.9974 18.3861 24.0483 20.6738 22.361 22.361C20.6738 24.0483 18.3861 24.9974 16 25C15.7348 25 15.4804 24.8946 15.2929 24.7071C15.1054 24.5196 15 24.2652 15 24C15 23.7348 15.1054 23.4804 15.2929 23.2929C15.4804 23.1054 15.7348 23 16 23C17.8559 22.998 19.6352 22.2599 20.9476 20.9476C22.2599 19.6352 22.998 17.8559 23 16C23 15.7348 23.1054 15.4804 23.2929 15.2929C23.4804 15.1054 23.7348 15 24 15C24.2652 15 24.5196 15.1054 24.7071 15.2929C24.8946 15.4804 25 15.7348 25 16ZM20 16C20 15.2089 19.7654 14.4355 19.3259 13.7777C18.8864 13.1199 18.2616 12.6072 17.5307 12.3045C16.7998 12.0017 15.9956 11.9225 15.2196 12.0769C14.4437 12.2312 13.731 12.6122 13.1716 13.1716C12.6122 13.731 12.2312 14.4437 12.0769 15.2196C11.9225 15.9956 12.0017 16.7998 12.3045 17.5307C12.6072 18.2616 13.1199 18.8864 13.7777 19.3259C14.4355 19.7654 15.2089 20 16 20C17.0609 20 18.0783 19.5786 18.8284 18.8284C19.5786 18.0783 20 17.0609 20 16ZM14 16C14 15.6044 14.1173 15.2178 14.3371 14.8889C14.5568 14.56 14.8692 14.3036 15.2346 14.1522C15.6001 14.0009 16.0022 13.9613 16.3902 14.0384C16.7781 14.1156 17.1345 14.3061 17.4142 14.5858C17.6939 14.8655 17.8844 15.2219 17.9616 15.6098C18.0387 15.9978 17.9991 16.3999 17.8478 16.7654C17.6964 17.1308 17.44 17.4432 17.1111 17.6629C16.7822 17.8827 16.3956 18 16 18C15.4696 18 14.9609 17.7893 14.5858 17.4142C14.2107 17.0391 14 16.5304 14 16Z" fill="currentColor"/>
<path d="M64 3.5C61.5277 3.5 59.111 4.23311 57.0554 5.60663C54.9998 6.98015 53.3976 8.93238 52.4515 11.2165C51.5054 13.5005 51.2579 16.0139 51.7402 18.4386C52.2225 20.8634 53.413 23.0907 55.1612 24.8388C56.9093 26.587 59.1366 27.7775 61.5614 28.2598C63.9861 28.7421 66.4995 28.4946 68.7835 27.5485C71.0676 26.6024 73.0199 25.0002 74.3934 22.9446C75.7669 20.889 76.5 18.4723 76.5 16C76.4964 12.6859 75.1782 9.5086 72.8348 7.16518C70.4914 4.82177 67.3141 3.50364 64 3.5ZM64 27.5C61.7255 27.5 59.5021 26.8255 57.6109 25.5619C55.7198 24.2983 54.2458 22.5022 53.3754 20.4009C52.505 18.2995 52.2772 15.9872 52.721 13.7565C53.1647 11.5257 54.26 9.47658 55.8683 7.86827C57.4766 6.25997 59.5257 5.1647 61.7565 4.72097C63.9872 4.27724 66.2995 4.50498 68.4009 5.37539C70.5022 6.24579 72.2983 7.71978 73.5619 9.61094C74.8255 11.5021 75.5 13.7255 75.5 16C75.4967 19.049 74.284 21.9721 72.1281 24.1281C69.9721 26.284 67.049 27.4967 64 27.5ZM64 8.5C62.0116 8.50232 60.1053 9.29324 58.6993 10.6993C57.2932 12.1053 56.5023 14.0116 56.5 16C56.5 16.1326 56.4473 16.2598 56.3536 16.3536C56.2598 16.4473 56.1326 16.5 56 16.5C55.8674 16.5 55.7402 16.4473 55.6465 16.3536C55.5527 16.2598 55.5 16.1326 55.5 16C55.5023 13.7464 56.3986 11.5857 57.9922 9.99215C59.5857 8.39859 61.7464 7.50232 64 7.5C64.1326 7.5 64.2598 7.55268 64.3536 7.64645C64.4473 7.74021 64.5 7.86739 64.5 8C64.5 8.13261 64.4473 8.25979 64.3536 8.35355C64.2598 8.44732 64.1326 8.5 64 8.5ZM72.5 16C72.4977 18.2536 71.6014 20.4143 70.0079 22.0078C68.4143 23.6014 66.2536 24.4977 64 24.5C63.8674 24.5 63.7402 24.4473 63.6465 24.3536C63.5527 24.2598 63.5 24.1326 63.5 24C63.5 23.8674 63.5527 23.7402 63.6465 23.6464C63.7402 23.5527 63.8674 23.5 64 23.5C65.9884 23.4977 67.8947 22.7068 69.3007 21.3007C70.7068 19.8947 71.4977 17.9884 71.5 16C71.5 15.8674 71.5527 15.7402 71.6465 15.6464C71.7402 15.5527 71.8674 15.5 72 15.5C72.1326 15.5 72.2598 15.5527 72.3536 15.6464C72.4473 15.7402 72.5 15.8674 72.5 16ZM67.5 16C67.5 15.3078 67.2947 14.6311 66.9101 14.0555C66.5256 13.4799 65.9789 13.0313 65.3394 12.7664C64.6999 12.5015 63.9961 12.4322 63.3172 12.5673C62.6383 12.7023 62.0146 13.0356 61.5251 13.5251C61.0356 14.0146 60.7023 14.6383 60.5673 15.3172C60.4322 15.9961 60.5015 16.6999 60.7664 17.3394C61.0313 17.9789 61.4799 18.5256 62.0555 18.9101C62.6311 19.2947 63.3078 19.5 64 19.5C64.9283 19.5 65.8185 19.1313 66.4749 18.4749C67.1313 17.8185 67.5 16.9283 67.5 16ZM61.5 16C61.5 15.5055 61.6466 15.0222 61.9213 14.6111C62.196 14.2 62.5865 13.8795 63.0433 13.6903C63.5001 13.5011 64.0028 13.4516 64.4877 13.548C64.9727 13.6445 65.4181 13.8826 65.7678 14.2322C66.1174 14.5819 66.3555 15.0273 66.452 15.5123C66.5484 15.9972 66.4989 16.4999 66.3097 16.9567C66.1205 17.4135 65.8001 17.804 65.3889 18.0787C64.9778 18.3534 64.4945 18.5 64 18.5C63.337 18.5 62.7011 18.2366 62.2322 17.7678C61.7634 17.2989 61.5 16.663 61.5 16Z" fill="currentColor"/>
<path d="M112 3.25C109.478 3.25 107.013 3.99777 104.916 5.39876C102.82 6.79975 101.186 8.79103 100.221 11.1208C99.2555 13.4505 99.003 16.0141 99.495 18.4874C99.987 20.9607 101.201 23.2325 102.984 25.0156C104.768 26.7987 107.039 28.0131 109.513 28.505C111.986 28.997 114.549 28.7445 116.879 27.7795C119.209 26.8144 121.2 25.1802 122.601 23.0835C124.002 20.9868 124.75 18.5217 124.75 16C124.746 12.6197 123.401 9.379 121.011 6.98877C118.621 4.59854 115.38 3.25397 112 3.25ZM112 27.25C109.775 27.25 107.6 26.5902 105.75 25.354C103.9 24.1179 102.458 22.3609 101.606 20.3052C100.755 18.2495 100.532 15.9875 100.966 13.8052C101.4 11.6229 102.472 9.61839 104.045 8.04505C105.618 6.47171 107.623 5.40025 109.805 4.96617C111.988 4.53208 114.25 4.75487 116.305 5.60636C118.361 6.45784 120.118 7.89978 121.354 9.74984C122.59 11.5999 123.25 13.775 123.25 16C123.247 18.9827 122.06 21.8422 119.951 23.9513C117.842 26.0604 114.983 27.2467 112 27.25ZM112 8.75C110.078 8.75232 108.235 9.5169 106.876 10.876C105.517 12.2352 104.752 14.0779 104.75 16C104.75 16.1989 104.671 16.3897 104.53 16.5303C104.39 16.671 104.199 16.75 104 16.75C103.801 16.75 103.61 16.671 103.47 16.5303C103.329 16.3897 103.25 16.1989 103.25 16C103.253 13.6802 104.175 11.4561 105.816 9.81574C107.456 8.17537 109.68 7.25265 112 7.25C112.199 7.25 112.39 7.32902 112.53 7.46967C112.671 7.61032 112.75 7.80109 112.75 8C112.75 8.19891 112.671 8.38968 112.53 8.53033C112.39 8.67098 112.199 8.75 112 8.75ZM120.75 16C120.747 18.3198 119.825 20.5439 118.184 22.1843C116.544 23.8246 114.32 24.7474 112 24.75C111.801 24.75 111.61 24.671 111.47 24.5303C111.329 24.3897 111.25 24.1989 111.25 24C111.25 23.8011 111.329 23.6103 111.47 23.4697C111.61 23.329 111.801 23.25 112 23.25C113.922 23.2477 115.765 22.4831 117.124 21.124C118.483 19.7648 119.248 17.9221 119.25 16C119.25 15.8011 119.329 15.6103 119.47 15.4697C119.61 15.329 119.801 15.25 120 15.25C120.199 15.25 120.39 15.329 120.53 15.4697C120.671 15.6103 120.75 15.8011 120.75 16ZM115.75 16C115.75 15.2583 115.53 14.5333 115.118 13.9166C114.706 13.2999 114.12 12.8193 113.435 12.5355C112.75 12.2516 111.996 12.1774 111.268 12.3221C110.541 12.4667 109.873 12.8239 109.348 13.3483C108.824 13.8728 108.467 14.541 108.322 15.2684C108.177 15.9958 108.252 16.7498 108.535 17.4351C108.819 18.1203 109.3 18.706 109.917 19.118C110.533 19.5301 111.258 19.75 112 19.75C112.995 19.75 113.948 19.3549 114.652 18.6517C115.355 17.9484 115.75 16.9946 115.75 16ZM109.75 16C109.75 15.555 109.882 15.12 110.129 14.75C110.376 14.38 110.728 14.0916 111.139 13.9213C111.55 13.751 112.003 13.7064 112.439 13.7932C112.875 13.88 113.276 14.0943 113.591 14.409C113.906 14.7237 114.12 15.1246 114.207 15.561C114.294 15.9975 114.249 16.4499 114.079 16.861C113.908 17.2722 113.62 17.6236 113.25 17.8708C112.88 18.118 112.445 18.25 112 18.25C111.403 18.25 110.831 18.0129 110.409 17.591C109.987 17.169 109.75 16.5967 109.75 16Z" fill="currentColor"/>
<path d="M160 2.5C157.33 2.5 154.72 3.29176 152.5 4.77516C150.28 6.25856 148.549 8.36697 147.528 10.8338C146.506 13.3006 146.239 16.015 146.759 18.6337C147.28 21.2525 148.566 23.6579 150.454 25.5459C152.342 27.434 154.748 28.7197 157.366 29.2406C159.985 29.7615 162.699 29.4942 165.166 28.4724C167.633 27.4506 169.741 25.7203 171.225 23.5002C172.708 21.2801 173.5 18.67 173.5 16C173.496 12.4208 172.072 8.98932 169.542 6.45844C167.011 3.92756 163.579 2.50397 160 2.5ZM160 26.5C157.923 26.5 155.893 25.8842 154.167 24.7304C152.44 23.5767 151.094 21.9368 150.299 20.0182C149.505 18.0996 149.297 15.9884 149.702 13.9516C150.107 11.9148 151.107 10.0438 152.575 8.57538C154.044 7.10693 155.915 6.1069 157.952 5.70175C159.988 5.29661 162.1 5.50454 164.018 6.29926C165.937 7.09399 167.577 8.4398 168.73 10.1665C169.884 11.8932 170.5 13.9233 170.5 16C170.497 18.7839 169.39 21.4528 167.421 23.4213C165.453 25.3898 162.784 26.497 160 26.5ZM160 11C158.674 11 157.402 11.5268 156.464 12.4645C155.527 13.4021 155 14.6739 155 16C155 16.3978 154.842 16.7794 154.561 17.0607C154.279 17.342 153.898 17.5 153.5 17.5C153.102 17.5 152.721 17.342 152.439 17.0607C152.158 16.7794 152 16.3978 152 16C152.002 13.879 152.846 11.8455 154.346 10.3457C155.845 8.84591 157.879 8.00232 160 8C160.398 8 160.779 8.15804 161.061 8.43934C161.342 8.72064 161.5 9.10218 161.5 9.5C161.5 9.89782 161.342 10.2794 161.061 10.5607C160.779 10.842 160.398 11 160 11ZM168 16C167.998 18.121 167.154 20.1545 165.654 21.6543C164.155 23.1541 162.121 23.9977 160 24C159.602 24 159.221 23.842 158.939 23.5607C158.658 23.2794 158.5 22.8978 158.5 22.5C158.5 22.1022 158.658 21.7206 158.939 21.4393C159.221 21.158 159.602 21 160 21C161.326 21 162.598 20.4732 163.536 19.5355C164.473 18.5979 165 17.3261 165 16C165 15.6022 165.158 15.2206 165.439 14.9393C165.721 14.658 166.102 14.5 166.5 14.5C166.898 14.5 167.279 14.658 167.561 14.9393C167.842 15.2206 168 15.6022 168 16ZM160 18.5C159.506 18.5 159.022 18.3534 158.611 18.0787C158.2 17.804 157.88 17.4135 157.69 16.9567C157.501 16.4999 157.452 15.9972 157.548 15.5123C157.645 15.0273 157.883 14.5819 158.232 14.2322C158.582 13.8826 159.027 13.6445 159.512 13.548C159.997 13.4516 160.5 13.5011 160.957 13.6903C161.414 13.8795 161.804 14.2 162.079 14.6111C162.353 15.0222 162.5 15.5055 162.5 16C162.5 16.663 162.237 17.2989 161.768 17.7678C161.299 18.2366 160.663 18.5 160 18.5Z" fill="currentColor"/>
<path d="M208 3C205.429 3 202.915 3.76244 200.778 5.1909C198.64 6.61935 196.974 8.64968 195.99 11.0251C195.006 13.4006 194.748 16.0144 195.25 18.5362C195.751 21.0579 196.99 23.3743 198.808 25.1924C200.626 27.0105 202.942 28.2486 205.464 28.7502C207.986 29.2518 210.599 28.9944 212.975 28.0104C215.35 27.0265 217.381 25.3603 218.809 23.2224C220.238 21.0846 221 18.5712 221 16C220.996 12.5533 219.626 9.24882 217.188 6.81163C214.751 4.37445 211.447 3.00364 208 3ZM201 16C201 16.2652 200.895 16.5196 200.707 16.7071C200.52 16.8946 200.265 17 200 17C199.735 17 199.48 16.8946 199.293 16.7071C199.105 16.5196 199 16.2652 199 16C199.003 13.6139 199.952 11.3262 201.639 9.63896C203.326 7.95171 205.614 7.00265 208 7C208.265 7 208.52 7.10536 208.707 7.29289C208.895 7.48043 209 7.73478 209 8C209 8.26522 208.895 8.51957 208.707 8.70711C208.52 8.89464 208.265 9 208 9C206.144 9.00199 204.365 9.74012 203.052 11.0524C201.74 12.3648 201.002 14.1441 201 16ZM205 16C205 15.4067 205.176 14.8266 205.506 14.3333C205.835 13.8399 206.304 13.4554 206.852 13.2284C207.4 13.0013 208.003 12.9419 208.585 13.0576C209.167 13.1734 209.702 13.4591 210.121 13.8787C210.541 14.2982 210.827 14.8328 210.942 15.4147C211.058 15.9967 210.999 16.5999 210.772 17.1481C210.545 17.6962 210.16 18.1648 209.667 18.4944C209.173 18.8241 208.593 19 208 19C207.204 19 206.441 18.6839 205.879 18.1213C205.316 17.5587 205 16.7956 205 16ZM208 25C207.735 25 207.48 24.8946 207.293 24.7071C207.105 24.5196 207 24.2652 207 24C207 23.7348 207.105 23.4804 207.293 23.2929C207.48 23.1054 207.735 23 208 23C209.856 22.998 211.635 22.2599 212.948 20.9476C214.26 19.6352 214.998 17.8559 215 16C215 15.7348 215.105 15.4804 215.293 15.2929C215.48 15.1054 215.735 15 216 15C216.265 15 216.52 15.1054 216.707 15.2929C216.895 15.4804 217 15.7348 217 16C216.997 18.3861 216.048 20.6738 214.361 22.361C212.674 24.0483 210.386 24.9974 208 25Z" fill="currentColor"/>
<path opacity="0.2" d="M256 4C253.627 4 251.307 4.70379 249.333 6.02236C247.36 7.34094 245.822 9.21509 244.913 11.4078C244.005 13.6005 243.768 16.0133 244.231 18.3411C244.694 20.6689 245.836 22.8071 247.515 24.4853C249.193 26.1635 251.331 27.3064 253.659 27.7694C255.987 28.2324 258.399 27.9948 260.592 27.0866C262.785 26.1783 264.659 24.6402 265.978 22.6668C267.296 20.6935 268 18.3734 268 16C268 12.8174 266.736 9.76515 264.485 7.51472C262.235 5.26428 259.183 4 256 4ZM256 19C255.407 19 254.827 18.8241 254.333 18.4944C253.84 18.1648 253.455 17.6962 253.228 17.1481C253.001 16.5999 252.942 15.9967 253.058 15.4147C253.173 14.8328 253.459 14.2982 253.879 13.8787C254.298 13.4591 254.833 13.1734 255.415 13.0576C255.997 12.9419 256.6 13.0013 257.148 13.2284C257.696 13.4554 258.165 13.8399 258.494 14.3333C258.824 14.8266 259 15.4067 259 16C259 16.7956 258.684 17.5587 258.121 18.1213C257.559 18.6839 256.796 19 256 19Z" fill="currentColor"/>
<path d="M256 3C253.429 3 250.915 3.76244 248.778 5.1909C246.64 6.61935 244.974 8.64968 243.99 11.0251C243.006 13.4006 242.748 16.0144 243.25 18.5362C243.751 21.0579 244.99 23.3743 246.808 25.1924C248.626 27.0105 250.942 28.2486 253.464 28.7502C255.986 29.2518 258.599 28.9944 260.975 28.0104C263.35 27.0265 265.381 25.3603 266.809 23.2224C268.238 21.0846 269 18.5712 269 16C268.996 12.5533 267.626 9.24882 265.188 6.81163C262.751 4.37445 259.447 3.00364 256 3ZM256 27C253.824 27 251.698 26.3549 249.889 25.1462C248.08 23.9375 246.67 22.2195 245.837 20.2095C245.005 18.1995 244.787 15.9878 245.211 13.854C245.636 11.7202 246.683 9.7602 248.222 8.22183C249.76 6.68345 251.72 5.6358 253.854 5.21136C255.988 4.78692 258.2 5.00476 260.21 5.83733C262.22 6.66989 263.937 8.07979 265.146 9.88873C266.355 11.6977 267 13.8244 267 16C266.997 18.9164 265.837 21.7123 263.775 23.7745C261.712 25.8367 258.916 26.9967 256 27ZM256 9C254.144 9.00199 252.365 9.74012 251.052 11.0524C249.74 12.3648 249.002 14.1441 249 16C249 16.2652 248.895 16.5196 248.707 16.7071C248.52 16.8946 248.265 17 248 17C247.735 17 247.48 16.8946 247.293 16.7071C247.105 16.5196 247 16.2652 247 16C247.003 13.6139 247.952 11.3262 249.639 9.63896C251.326 7.95171 253.614 7.00265 256 7C256.265 7 256.52 7.10536 256.707 7.29289C256.895 7.48043 257 7.73478 257 8C257 8.26522 256.895 8.51957 256.707 8.70711C256.52 8.89464 256.265 9 256 9ZM265 16C264.997 18.3861 264.048 20.6738 262.361 22.361C260.674 24.0483 258.386 24.9974 256 25C255.735 25 255.48 24.8946 255.293 24.7071C255.105 24.5196 255 24.2652 255 24C255 23.7348 255.105 23.4804 255.293 23.2929C255.48 23.1054 255.735 23 256 23C257.856 22.998 259.635 22.2599 260.948 20.9476C262.26 19.6352 262.998 17.8559 263 16C263 15.7348 263.105 15.4804 263.293 15.2929C263.48 15.1054 263.735 15 264 15C264.265 15 264.52 15.1054 264.707 15.2929C264.895 15.4804 265 15.7348 265 16ZM260 16C260 15.2089 259.765 14.4355 259.326 13.7777C258.886 13.1199 258.262 12.6072 257.531 12.3045C256.8 12.0017 255.996 11.9225 255.22 12.0769C254.444 12.2312 253.731 12.6122 253.172 13.1716C252.612 13.731 252.231 14.4437 252.077 15.2196C251.923 15.9956 252.002 16.7998 252.304 17.5307C252.607 18.2616 253.12 18.8864 253.778 19.3259C254.436 19.7654 255.209 20 256 20C257.061 20 258.078 19.5786 258.828 18.8284C259.579 18.0783 260 17.0609 260 16ZM254 16C254 15.6044 254.117 15.2178 254.337 14.8889C254.557 14.56 254.869 14.3036 255.235 14.1522C255.6 14.0009 256.002 13.9613 256.39 14.0384C256.778 14.1156 257.135 14.3061 257.414 14.5858C257.694 14.8655 257.884 15.2219 257.962 15.6098C258.039 15.9978 257.999 16.3999 257.848 16.7654C257.696 17.1308 257.44 17.4432 257.111 17.6629C256.782 17.8827 256.396 18 256 18C255.47 18 254.961 17.7893 254.586 17.4142C254.211 17.0391 254 16.5304 254 16Z" fill="currentColor"/>
</g>
<defs>
<clipPath id="clip0_17_16006">
<rect width="272" height="32" rx="5" fill="white"/>
</clipPath>
</defs>
</svg>
