<svg width="272" height="32" viewBox="0 0 272 32" fill="none" xmlns="http://www.w3.org/2000/svg">
<g clip-path="url(#clip0_17_15978)">
<path d="M29.905 16.425C27.155 22.275 24.73 25 22.255 25C19.1175 25 17.1637 20.835 15.095 16.425C13.4625 12.945 11.6125 9 9.74999 9C7.69999 9 5.21124 13.6512 3.90999 16.425C3.79421 16.66 3.59084 16.8402 3.3436 16.9268C3.09636 17.0134 2.825 16.9996 2.58787 16.8882C2.35074 16.7769 2.16677 16.5769 2.07554 16.3313C1.98431 16.0857 1.99308 15.8142 2.09999 15.575C4.83874 9.725 7.26999 7 9.74999 7C12.8875 7 14.8412 11.165 16.91 15.575C18.5375 19.055 20.3875 23 22.25 23C24.3 23 26.7887 18.3488 28.09 15.575C28.2058 15.34 28.4091 15.1598 28.6564 15.0732C28.9036 14.9866 29.175 15.0004 29.4121 15.1118C29.6492 15.2231 29.8332 15.4231 29.9244 15.6687C30.0157 15.9143 30.0069 16.1858 29.9 16.425H29.905Z" fill="currentColor"/>
<path d="M77.4525 16.2125C74.8 21.8662 72.5125 24.5 70.25 24.5C67.43 24.5 65.5412 20.4737 63.5425 16.2125C61.7687 12.4212 59.93 8.5 57.75 8.5C55.975 8.5 53.8587 11.095 51.4575 16.2125C51.3996 16.33 51.2979 16.4201 51.1743 16.4634C51.0507 16.5067 50.915 16.4998 50.7964 16.4441C50.6779 16.3884 50.5859 16.2884 50.5403 16.1657C50.4947 16.0429 50.499 15.9071 50.5525 15.7875C53.2 10.1338 55.4875 7.5 57.75 7.5C60.57 7.5 62.4587 11.5263 64.4575 15.7875C66.2312 19.5788 68.07 23.5 70.25 23.5C72.025 23.5 74.1412 20.905 76.5425 15.7875C76.6004 15.67 76.7021 15.5799 76.8257 15.5366C76.9493 15.4933 77.085 15.5002 77.2036 15.5559C77.3221 15.6116 77.4141 15.7116 77.4597 15.8343C77.5053 15.9571 77.5009 16.0929 77.4475 16.2125H77.4525Z" fill="currentColor"/>
<path d="M125.679 16.3188C122.98 22.0713 120.625 24.75 118.25 24.75C115.271 24.75 113.35 20.655 111.316 16.3188C109.658 12.7713 107.771 8.75 105.75 8.75C104.603 8.75 102.625 10.0625 99.6838 16.3188C99.5969 16.495 99.4444 16.6301 99.259 16.6951C99.0735 16.7601 98.87 16.7497 98.6922 16.6662C98.5143 16.5826 98.3764 16.4327 98.3079 16.2485C98.2395 16.0643 98.2461 15.8606 98.3263 15.6812C101.02 9.92875 103.375 7.25 105.75 7.25C108.729 7.25 110.65 11.345 112.684 15.6812C114.343 19.2287 116.229 23.25 118.25 23.25C119.398 23.25 121.381 21.9375 124.316 15.6812C124.403 15.505 124.556 15.3699 124.741 15.3049C124.926 15.2399 125.13 15.2503 125.308 15.3338C125.486 15.4174 125.624 15.5673 125.692 15.7515C125.761 15.9357 125.754 16.1394 125.674 16.3188H125.679Z" fill="currentColor"/>
<path d="M174.357 16.6375C171.482 22.7625 168.982 25.5 166.255 25.5C162.8 25.5 160.78 21.195 158.642 16.6375C157.75 14.7225 156.816 12.75 155.865 11.3413C155.049 10.1363 154.316 9.5 153.75 9.5C153.272 9.5 151.47 10.015 148.364 16.6375C148.195 16.9977 147.889 17.276 147.515 17.4111C147.33 17.478 147.133 17.5078 146.936 17.4987C146.74 17.4896 146.546 17.4418 146.368 17.3581C146.008 17.189 145.73 16.8838 145.594 16.5096C145.459 16.1353 145.478 15.7227 145.647 15.3625C148.522 9.2375 151.022 6.5 153.75 6.5C157.205 6.5 159.225 10.805 161.362 15.3625C162.261 17.2775 163.189 19.2563 164.14 20.6588C164.956 21.8638 165.689 22.5 166.265 22.5C166.742 22.5 168.545 21.985 171.651 15.3625C171.82 15.0023 172.126 14.724 172.5 14.5889C172.874 14.4537 173.287 14.4728 173.647 14.6419C174.007 14.811 174.285 15.1162 174.42 15.4904C174.556 15.8647 174.537 16.2773 174.367 16.6375H174.357Z" fill="currentColor"/>
<path d="M219 5H197C196.47 5 195.961 5.21071 195.586 5.58579C195.211 5.96086 195 6.46957 195 7V25C195 25.5304 195.211 26.0391 195.586 26.4142C195.961 26.7893 196.47 27 197 27H219C219.53 27 220.039 26.7893 220.414 26.4142C220.789 26.0391 221 25.5304 221 25V7C221 6.46957 220.789 5.96086 220.414 5.58579C220.039 5.21071 219.53 5 219 5ZM218.403 16.43C216.318 20.805 214.52 22.75 212.571 22.75C210.111 22.75 208.648 19.68 207.097 16.43C206 14.125 204.625 11.25 203.429 11.25C202.961 11.25 201.633 11.75 199.403 16.43C199.285 16.6628 199.08 16.8403 198.833 16.9245C198.586 17.0087 198.316 16.993 198.08 16.8808C197.845 16.7685 197.662 16.5686 197.572 16.3237C197.482 16.0788 197.491 15.8083 197.597 15.57C199.682 11.1987 201.48 9.25 203.429 9.25C205.889 9.25 207.352 12.32 208.903 15.57C210 17.875 211.375 20.75 212.571 20.75C213.039 20.75 214.368 20.25 216.597 15.57C216.652 15.4482 216.73 15.3386 216.828 15.2475C216.925 15.1564 217.04 15.0857 217.165 15.0396C217.29 14.9935 217.423 14.9729 217.556 14.9791C217.69 14.9852 217.82 15.0179 217.941 15.0752C218.061 15.1326 218.169 15.2135 218.257 15.3131C218.346 15.4127 218.414 15.5291 218.457 15.6553C218.5 15.7815 218.517 15.9151 218.508 16.0482C218.499 16.1812 218.463 16.311 218.403 16.43Z" fill="currentColor"/>
<path opacity="0.2" d="M269 16.0001C262.5 29.8564 259.25 22.9289 256 16.0001H269ZM243 16.0001H256C252.75 9.07135 249.5 2.14385 243 16.0001Z" fill="currentColor"/>
<path d="M269.905 16.425C267.155 22.275 264.73 25 262.255 25C259.117 25 257.164 20.835 255.095 16.425C253.462 12.945 251.612 9 249.75 9C247.7 9 245.211 13.6512 243.91 16.425C243.794 16.66 243.591 16.8402 243.344 16.9268C243.096 17.0134 242.825 16.9996 242.588 16.8882C242.351 16.7769 242.167 16.5769 242.076 16.3313C241.984 16.0857 241.993 15.8142 242.1 15.575C244.839 9.725 247.27 7 249.75 7C252.887 7 254.841 11.165 256.91 15.575C258.537 19.055 260.387 23 262.25 23C264.3 23 266.789 18.3488 268.09 15.575C268.206 15.34 268.409 15.1598 268.656 15.0732C268.904 14.9866 269.175 15.0004 269.412 15.1118C269.649 15.2231 269.833 15.4231 269.924 15.6687C270.016 15.9143 270.007 16.1858 269.9 16.425H269.905Z" fill="currentColor"/>
</g>
<defs>
<clipPath id="clip0_17_15978">
<rect width="272" height="32" rx="5" fill="white"/>
</clipPath>
</defs>
</svg>
