<svg width="272" height="32" viewBox="0 0 272 32" fill="none" xmlns="http://www.w3.org/2000/svg">
<g clip-path="url(#clip0_17_4093)">
<path d="M23.0712 16L26.5349 12.535C27.0125 12.0738 27.3934 11.522 27.6554 10.912C27.9175 10.302 28.0554 9.6459 28.0612 8.98201C28.0669 8.31811 27.9404 7.65971 27.689 7.04523C27.4376 6.43075 27.0664 5.87249 26.5969 5.40303C26.1274 4.93356 25.5692 4.5623 24.9547 4.31089C24.3402 4.05949 23.6818 3.93298 23.0179 3.93875C22.354 3.94452 21.6979 4.08245 21.0879 4.34449C20.4779 4.60654 19.9262 4.98745 19.4649 5.465L15.9999 8.92875L12.5349 5.465C12.0737 4.98745 11.522 4.60654 10.9119 4.34449C10.3019 4.08245 9.64582 3.94452 8.98192 3.93875C8.31803 3.93298 7.65963 4.05949 7.04515 4.31089C6.43067 4.5623 5.87241 4.93356 5.40294 5.40303C4.93348 5.87249 4.56221 6.43075 4.31081 7.04523C4.0594 7.65971 3.9329 8.31811 3.93867 8.98201C3.94443 9.6459 4.08237 10.302 4.34441 10.912C4.60646 11.522 4.98737 12.0738 5.46492 12.535L8.92867 16L5.46492 19.465C4.98737 19.9262 4.60646 20.478 4.34441 21.088C4.08237 21.698 3.94443 22.3541 3.93867 23.018C3.9329 23.6819 4.0594 24.3403 4.31081 24.9548C4.56221 25.5693 4.93348 26.1275 5.40294 26.597C5.87241 27.0664 6.43067 27.4377 7.04515 27.6891C7.65963 27.9405 8.31803 28.067 8.98192 28.0613C9.64582 28.0555 10.3019 27.9176 10.9119 27.6555C11.522 27.3935 12.0737 27.0126 12.5349 26.535L15.9999 23.0713L19.4649 26.535C19.9262 27.0126 20.4779 27.3935 21.0879 27.6555C21.6979 27.9176 22.354 28.0555 23.0179 28.0613C23.6818 28.067 24.3402 27.9405 24.9547 27.6891C25.5692 27.4377 26.1274 27.0664 26.5969 26.597C27.0664 26.1275 27.4376 25.5693 27.689 24.9548C27.9404 24.3403 28.0669 23.6819 28.0612 23.018C28.0554 22.3541 27.9175 21.698 27.6554 21.088C27.3934 20.478 27.0125 19.9262 26.5349 19.465L23.0712 16ZM20.8749 6.875C21.154 6.59594 21.4853 6.37458 21.8499 6.22356C22.2145 6.07253 22.6053 5.9948 22.9999 5.9948C23.3946 5.9948 23.7854 6.07253 24.15 6.22356C24.5146 6.37458 24.8459 6.59594 25.1249 6.875C25.404 7.15406 25.6253 7.48535 25.7764 7.84996C25.9274 8.21457 26.0051 8.60535 26.0051 9C26.0051 9.39465 25.9274 9.78543 25.7764 10.15C25.6253 10.5147 25.404 10.8459 25.1249 11.125L21.6599 14.59L17.4137 10.3438L20.8749 6.875ZM20.2387 16L15.9999 20.2425L11.7574 16L15.9999 11.7575L20.2387 16ZM6.87492 11.125C6.59586 10.8459 6.3745 10.5147 6.22347 10.15C6.07245 9.78543 5.99471 9.39465 5.99471 9C5.99471 8.60535 6.07245 8.21457 6.22347 7.84996C6.3745 7.48535 6.59586 7.15406 6.87492 6.875C7.15398 6.59594 7.48527 6.37458 7.84988 6.22356C8.21448 6.07253 8.60527 5.9948 8.99992 5.9948C9.39457 5.9948 9.78535 6.07253 10.15 6.22356C10.5146 6.37458 10.8459 6.59594 11.1249 6.875L14.5899 10.34L10.3437 14.5863L6.87492 11.125ZM11.1249 25.125C10.8459 25.4041 10.5146 25.6254 10.15 25.7764C9.78535 25.9275 9.39457 26.0052 8.99992 26.0052C8.60527 26.0052 8.21448 25.9275 7.84988 25.7764C7.48527 25.6254 7.15398 25.4041 6.87492 25.125C6.59586 24.8459 6.3745 24.5147 6.22347 24.15C6.07245 23.7854 5.99471 23.3947 5.99471 23C5.99471 22.6054 6.07245 22.2146 6.22347 21.85C6.3745 21.4854 6.59586 21.1541 6.87492 20.875L10.3399 17.41L14.5824 21.6525L11.1249 25.125ZM25.1249 25.125C24.8462 25.4047 24.515 25.6266 24.1504 25.778C23.7857 25.9294 23.3948 26.0074 22.9999 26.0074C22.6051 26.0074 22.2141 25.9294 21.8495 25.778C21.4848 25.6266 21.1536 25.4047 20.8749 25.125L17.4099 21.66L21.6524 17.4175L25.1249 20.875C25.4046 21.1537 25.6265 21.4849 25.7779 21.8495C25.9293 22.2142 26.0073 22.6052 26.0073 23C26.0073 23.3948 25.9293 23.7858 25.7779 24.1505C25.6265 24.5151 25.4046 24.8463 25.1249 25.125ZM14.4999 16C14.4999 15.7033 14.5879 15.4133 14.7527 15.1666C14.9175 14.92 15.1518 14.7277 15.4259 14.6142C15.7 14.5007 16.0016 14.4709 16.2926 14.5288C16.5835 14.5867 16.8508 14.7296 17.0606 14.9393C17.2704 15.1491 17.4132 15.4164 17.4711 15.7074C17.529 15.9983 17.4993 16.2999 17.3857 16.574C17.2722 16.8481 17.0799 17.0824 16.8333 17.2472C16.5866 17.412 16.2966 17.5 15.9999 17.5C15.6021 17.5 15.2206 17.342 14.9393 17.0607C14.658 16.7794 14.4999 16.3978 14.4999 16Z" fill="currentColor"/>
<path d="M70.3635 16L74.1823 12.1825C75.0263 11.3385 75.5005 10.1937 75.5005 9C75.5005 7.80633 75.0263 6.66155 74.1823 5.8175C73.3382 4.97345 72.1934 4.49927 70.9998 4.49927C69.8061 4.49927 68.6613 4.97345 67.8173 5.8175L63.9998 9.63625L60.1823 5.8175C59.3382 4.97345 58.1934 4.49927 56.9998 4.49927C55.8061 4.49927 54.6613 4.97345 53.8173 5.8175C52.9732 6.66155 52.499 7.80633 52.499 9C52.499 10.1937 52.9732 11.3385 53.8173 12.1825L57.636 16L53.8173 19.8175C52.9732 20.6616 52.499 21.8063 52.499 23C52.499 24.1937 52.9732 25.3385 53.8173 26.1825C54.6613 27.0266 55.8061 27.5007 56.9998 27.5007C58.1934 27.5007 59.3382 27.0266 60.1823 26.1825L63.9998 22.3638L67.8173 26.1825C68.6613 27.0266 69.8061 27.5007 70.9998 27.5007C72.1934 27.5007 73.3382 27.0266 74.1823 26.1825C75.0263 25.3385 75.5005 24.1937 75.5005 23C75.5005 21.8063 75.0263 20.6616 74.1823 19.8175L70.3635 16ZM68.5248 6.525C69.1812 5.86859 70.0715 5.49982 70.9998 5.49982C71.9281 5.49982 72.8183 5.86859 73.4748 6.525C74.1312 7.18141 74.4999 8.0717 74.4999 9C74.4999 9.92831 74.1312 10.8186 73.4748 11.475L69.656 15.2925L64.7073 10.3438L68.5248 6.525ZM68.9498 16L63.9998 20.95L59.0498 16L63.9998 11.05L68.9498 16ZM54.5248 11.475C53.8683 10.8186 53.4996 9.92831 53.4996 9C53.4996 8.0717 53.8683 7.18141 54.5248 6.525C55.1812 5.86859 56.0715 5.49982 56.9998 5.49982C57.9281 5.49982 58.8183 5.86859 59.4748 6.525L63.2923 10.3438L58.3435 15.2925L54.5248 11.475ZM59.4748 25.475C58.8183 26.1314 57.9281 26.5002 56.9998 26.5002C56.0715 26.5002 55.1812 26.1314 54.5248 25.475C53.8683 24.8186 53.4996 23.9283 53.4996 23C53.4996 22.0717 53.8683 21.1814 54.5248 20.525L58.3435 16.7075L63.2923 21.6563L59.4748 25.475ZM73.4748 25.475C73.1497 25.8 72.7639 26.0579 72.3392 26.2338C71.9146 26.4097 71.4594 26.5003 70.9998 26.5003C70.5401 26.5003 70.0849 26.4097 69.6603 26.2338C69.2356 26.0579 68.8498 25.8 68.5248 25.475L64.7073 21.6563L69.656 16.7075L73.4748 20.525C73.7998 20.85 74.0576 21.2359 74.2336 21.6605C74.4095 22.0852 74.5 22.5403 74.5 23C74.5 23.4597 74.4095 23.9148 74.2336 24.3395C74.0576 24.7641 73.7998 25.15 73.4748 25.475ZM62.9998 16C62.9998 15.8022 63.0584 15.6089 63.1683 15.4444C63.2782 15.28 63.4343 15.1518 63.6171 15.0761C63.7998 15.0004 64.0009 14.9806 64.1948 15.0192C64.3888 15.0578 64.567 15.153 64.7069 15.2929C64.8467 15.4327 64.942 15.6109 64.9805 15.8049C65.0191 15.9989 64.9993 16.2 64.9236 16.3827C64.8479 16.5654 64.7198 16.7216 64.5553 16.8315C64.3909 16.9414 64.1975 17 63.9998 17C63.7345 17 63.4802 16.8946 63.2927 16.7071C63.1051 16.5196 62.9998 16.2652 62.9998 16Z" fill="currentColor"/>
<path d="M118.718 16L122.359 12.3588C122.801 11.918 123.153 11.3943 123.393 10.8176C123.633 10.2409 123.756 9.62257 123.757 8.99796C123.758 8.37336 123.635 7.75475 123.396 7.17757C123.158 6.60038 122.808 6.07595 122.366 5.63428C121.924 5.19262 121.4 4.8424 120.823 4.60367C120.245 4.36495 119.627 4.2424 119.002 4.24304C118.378 4.24369 117.759 4.36752 117.183 4.60744C116.606 4.84737 116.082 5.19867 115.641 5.64125L112 9.2825L108.359 5.64125C107.918 5.19867 107.394 4.84737 106.818 4.60744C106.241 4.36752 105.623 4.24369 104.998 4.24304C104.373 4.2424 103.755 4.36495 103.178 4.60367C102.601 4.8424 102.076 5.19262 101.634 5.63428C101.193 6.07595 100.843 6.60038 100.604 7.17757C100.365 7.75475 100.243 8.37336 100.243 8.99796C100.244 9.62257 100.368 10.2409 100.608 10.8176C100.847 11.3943 101.199 11.918 101.641 12.3588L105.283 16L101.641 19.6413C101.199 20.082 100.847 20.6057 100.608 21.1824C100.368 21.7591 100.244 22.3774 100.243 23.002C100.243 23.6266 100.365 24.2452 100.604 24.8224C100.843 25.3996 101.193 25.9241 101.634 26.3657C102.076 26.8074 102.601 27.1576 103.178 27.3963C103.755 27.6351 104.373 27.7576 104.998 27.757C105.623 27.7563 106.241 27.6325 106.818 27.3926C107.394 27.1526 107.918 26.8013 108.359 26.3588L112 22.7175L115.641 26.3588C116.082 26.8013 116.606 27.1526 117.183 27.3926C117.759 27.6325 118.378 27.7563 119.002 27.757C119.627 27.7576 120.245 27.6351 120.823 27.3963C121.4 27.1576 121.924 26.8074 122.366 26.3657C122.808 25.9241 123.158 25.3996 123.396 24.8224C123.635 24.2452 123.758 23.6266 123.757 23.002C123.756 22.3774 123.633 21.7591 123.393 21.1824C123.153 20.6057 122.801 20.082 122.359 19.6413L118.718 16ZM116.703 6.7025C117.003 6.39295 117.361 6.14618 117.758 5.97658C118.154 5.80697 118.58 5.7179 119.011 5.71457C119.442 5.71123 119.87 5.7937 120.269 5.95716C120.668 6.12062 121.03 6.36181 121.335 6.66669C121.639 6.97156 121.881 7.33403 122.044 7.73298C122.207 8.13193 122.29 8.5594 122.286 8.99048C122.283 9.42157 122.194 9.84766 122.024 10.2439C121.854 10.6402 121.607 10.9988 121.298 11.2988L117.656 14.94L113.061 10.3438L116.703 6.7025ZM116.596 16L112 20.5963L107.404 16L112 11.4038L116.596 16ZM102.703 11.2975C102.39 10.9984 102.139 10.6397 101.967 10.2425C101.794 9.84531 101.703 9.41766 101.698 8.98466C101.693 8.55166 101.775 8.12204 101.938 7.72103C102.102 7.32002 102.343 6.95572 102.65 6.64952C102.956 6.34333 103.32 6.1014 103.721 5.93797C104.122 5.77454 104.552 5.6929 104.985 5.69783C105.418 5.70277 105.845 5.79418 106.243 5.96671C106.64 6.13924 106.998 6.3894 107.298 6.7025L110.939 10.3438L106.344 14.94L102.703 11.2975ZM107.298 25.2975C106.998 25.6106 106.64 25.8608 106.243 26.0333C105.845 26.2058 105.418 26.2972 104.985 26.3022C104.552 26.3071 104.122 26.2255 103.721 26.062C103.32 25.8986 102.956 25.6567 102.65 25.3505C102.343 25.0443 102.102 24.68 101.938 24.279C101.775 23.878 101.693 23.4483 101.698 23.0153C101.703 22.5823 101.794 22.1547 101.967 21.7575C102.139 21.3603 102.39 21.0016 102.703 20.7025L106.344 17.0613L110.939 21.6563L107.298 25.2975ZM121.298 25.2975C120.688 25.9066 119.862 26.2488 119 26.2488C118.138 26.2488 117.312 25.9066 116.703 25.2975L113.06 21.6563L117.656 17.06L121.298 20.7025C121.907 21.3119 122.249 22.1383 122.249 23C122.249 23.8617 121.907 24.6881 121.298 25.2975ZM110.75 16C110.75 15.7528 110.823 15.5111 110.961 15.3055C111.098 15.1 111.293 14.9398 111.522 14.8452C111.75 14.7505 112.002 14.7258 112.244 14.774C112.486 14.8223 112.709 14.9413 112.884 15.1161C113.059 15.2909 113.178 15.5137 113.226 15.7561C113.274 15.9986 113.25 16.2499 113.155 16.4784C113.06 16.7068 112.9 16.902 112.695 17.0393C112.489 17.1767 112.247 17.25 112 17.25C111.669 17.25 111.351 17.1183 111.116 16.8839C110.882 16.6495 110.75 16.3315 110.75 16Z" fill="currentColor"/>
<path d="M167.779 16L170.889 12.8888C171.41 12.3805 171.826 11.7738 172.111 11.1036C172.397 10.4335 172.546 9.71335 172.551 8.985C172.556 8.25665 172.416 7.5346 172.139 6.86077C171.863 6.18693 171.455 5.57473 170.94 5.0597C170.425 4.54466 169.813 4.13706 169.139 3.86054C168.465 3.58403 167.743 3.44411 167.015 3.4489C166.287 3.4537 165.566 3.60312 164.896 3.88848C164.226 4.17385 163.619 4.58948 163.111 5.11125L160 8.22125L156.889 5.11125C156.38 4.58948 155.774 4.17385 155.104 3.88848C154.433 3.60312 153.713 3.4537 152.985 3.4489C152.257 3.44411 151.535 3.58403 150.861 3.86054C150.187 4.13706 149.575 4.54466 149.06 5.0597C148.545 5.57473 148.137 6.18693 147.86 6.86077C147.584 7.5346 147.444 8.25665 147.449 8.985C147.454 9.71335 147.603 10.4335 147.888 11.1036C148.174 11.7738 148.589 12.3805 149.111 12.8888L152.221 16L149.111 19.1113C148.589 19.6195 148.174 20.2262 147.888 20.8964C147.603 21.5665 147.454 22.2867 147.449 23.015C147.444 23.7434 147.584 24.4654 147.86 25.1392C148.137 25.8131 148.545 26.4253 149.06 26.9403C149.575 27.4553 150.187 27.8629 150.861 28.1395C151.535 28.416 152.257 28.5559 152.985 28.5511C153.713 28.5463 154.433 28.3969 155.104 28.1115C155.774 27.8262 156.38 27.4105 156.889 26.8888L160 23.7788L163.111 26.8888C163.619 27.4105 164.226 27.8262 164.896 28.1115C165.566 28.3969 166.287 28.5463 167.015 28.5511C167.743 28.5559 168.465 28.416 169.139 28.1395C169.813 27.8629 170.425 27.4553 170.94 26.9403C171.455 26.4253 171.863 25.8131 172.139 25.1392C172.416 24.4654 172.556 23.7434 172.551 23.015C172.546 22.2867 172.397 21.5665 172.111 20.8964C171.826 20.2262 171.41 19.6195 170.889 19.1113L167.779 16ZM165.232 7.2325C165.463 6.99373 165.739 6.80327 166.044 6.67225C166.349 6.54123 166.677 6.47226 167.009 6.46938C167.341 6.46649 167.67 6.52975 167.977 6.65545C168.285 6.78115 168.564 6.96678 168.798 7.20152C169.033 7.43625 169.219 7.71538 169.345 8.02262C169.47 8.32986 169.533 8.65906 169.531 8.99101C169.528 9.32295 169.459 9.651 169.328 9.95601C169.197 10.261 169.006 10.5369 168.767 10.7675L165.656 13.875L162.125 10.3438L165.232 7.2325ZM163.535 16L160 19.535L156.465 16L160 12.465L163.535 16ZM151.232 10.7675C150.994 10.5369 150.803 10.261 150.672 9.95601C150.541 9.651 150.472 9.32295 150.469 8.99101C150.466 8.65906 150.53 8.32986 150.655 8.02262C150.781 7.71538 150.967 7.43625 151.201 7.20152C151.436 6.96678 151.715 6.78115 152.023 6.65545C152.33 6.52975 152.659 6.46649 152.991 6.46938C153.323 6.47226 153.651 6.54123 153.956 6.67225C154.261 6.80327 154.537 6.99373 154.767 7.2325L157.875 10.3438L154.344 13.875L151.232 10.7675ZM154.767 24.7675C154.537 25.0063 154.261 25.1967 153.956 25.3278C153.651 25.4588 153.323 25.5277 152.991 25.5306C152.659 25.5335 152.33 25.4703 152.023 25.3446C151.715 25.2189 151.436 25.0332 151.201 24.7985C150.967 24.5638 150.781 24.2846 150.655 23.9774C150.53 23.6701 150.466 23.341 150.469 23.009C150.472 22.6771 150.541 22.349 150.672 22.044C150.803 21.739 150.994 21.4631 151.232 21.2325L154.344 18.125L157.875 21.6563L154.767 24.7675ZM168.767 24.7675C168.299 25.2362 167.663 25.4995 167 25.4995C166.337 25.4995 165.701 25.2362 165.232 24.7675L162.125 21.6563L165.656 18.125L168.767 21.2363C169.236 21.7051 169.499 22.3408 169.499 23.0038C169.499 23.6667 169.236 24.3024 168.767 24.7713V24.7675Z" fill="currentColor"/>
<path d="M208 17.5C208.828 17.5 209.5 16.8284 209.5 16C209.5 15.1716 208.828 14.5 208 14.5C207.172 14.5 206.5 15.1716 206.5 16C206.5 16.8284 207.172 17.5 208 17.5Z" fill="currentColor"/>
<path d="M215.071 16L218.535 12.535C219.012 12.0738 219.393 11.522 219.655 10.912C219.917 10.302 220.055 9.6459 220.061 8.98201C220.067 8.31811 219.94 7.65971 219.689 7.04523C219.438 6.43075 219.066 5.87249 218.597 5.40303C218.127 4.93356 217.569 4.5623 216.955 4.31089C216.34 4.05949 215.682 3.93298 215.018 3.93875C214.354 3.94452 213.698 4.08245 213.088 4.34449C212.478 4.60654 211.926 4.98745 211.465 5.465L208 8.92875L204.535 5.465C204.074 4.98745 203.522 4.60654 202.912 4.34449C202.302 4.08245 201.646 3.94452 200.982 3.93875C200.318 3.93298 199.66 4.05949 199.045 4.31089C198.431 4.5623 197.872 4.93356 197.403 5.40303C196.933 5.87249 196.562 6.43075 196.311 7.04523C196.059 7.65971 195.933 8.31811 195.939 8.98201C195.944 9.6459 196.082 10.302 196.344 10.912C196.606 11.522 196.987 12.0738 197.465 12.535L200.929 16L197.465 19.465C196.987 19.9262 196.606 20.478 196.344 21.088C196.082 21.698 195.944 22.3541 195.939 23.018C195.933 23.6819 196.059 24.3403 196.311 24.9548C196.562 25.5693 196.933 26.1275 197.403 26.597C197.872 27.0664 198.431 27.4377 199.045 27.6891C199.66 27.9405 200.318 28.067 200.982 28.0613C201.646 28.0555 202.302 27.9176 202.912 27.6555C203.522 27.3935 204.074 27.0126 204.535 26.535L208 23.0713L211.465 26.535C211.926 27.0126 212.478 27.3935 213.088 27.6555C213.698 27.9176 214.354 28.0555 215.018 28.0613C215.682 28.067 216.34 27.9405 216.955 27.6891C217.569 27.4377 218.127 27.0664 218.597 26.597C219.066 26.1275 219.438 25.5693 219.689 24.9548C219.94 24.3403 220.067 23.6819 220.061 23.018C220.055 22.3541 219.917 21.698 219.655 21.088C219.393 20.478 219.012 19.9262 218.535 19.465L215.071 16ZM208 11.7575L212.242 16L208 20.2425L203.757 16L208 11.7575ZM212.875 6.8825C213.438 6.31892 214.201 6.0019 214.997 6.0012C215.794 6.0005 216.558 6.31616 217.121 6.87875C217.685 7.44134 218.002 8.20477 218.002 9.0011C218.003 9.79743 217.688 10.5614 217.125 11.125L213.66 14.59L209.414 10.3438L212.875 6.8825ZM203.125 25.125C202.846 25.4041 202.515 25.6254 202.15 25.7764C201.785 25.9275 201.395 26.0052 201 26.0052C200.605 26.0052 200.214 25.9275 199.85 25.7764C199.485 25.6254 199.154 25.4041 198.875 25.125C198.596 24.8459 198.374 24.5147 198.223 24.15C198.072 23.7854 197.995 23.3947 197.995 23C197.995 22.6054 198.072 22.2146 198.223 21.85C198.374 21.4854 198.596 21.1541 198.875 20.875L202.34 17.41L206.582 21.6525L203.125 25.125Z" fill="currentColor"/>
<path opacity="0.2" d="M265.829 11.8287L261.656 16L256 10.3437L260.171 6.17125C260.921 5.42102 261.939 4.99954 263 4.99954C263.525 4.99954 264.046 5.10302 264.531 5.30406C265.016 5.5051 265.457 5.79977 265.829 6.17125C266.2 6.54273 266.495 6.98373 266.696 7.46909C266.897 7.95445 267 8.47465 267 9C267 9.52535 266.897 10.0455 266.696 10.5309C266.495 11.0163 266.2 11.4573 265.829 11.8287ZM246.171 20.1712C245.421 20.9215 245 21.939 245 23C245 23.5253 245.103 24.0455 245.304 24.5309C245.505 25.0163 245.8 25.4573 246.171 25.8288C246.543 26.2002 246.984 26.4949 247.469 26.6959C247.954 26.897 248.475 27.0005 249 27.0005C250.061 27.0005 251.078 26.579 251.829 25.8288L256 21.6562L250.344 16L246.171 20.1712ZM250.344 16L256 10.3437L251.829 6.17125C251.078 5.42102 250.061 4.99954 249 4.99954C247.939 4.99954 246.921 5.42102 246.171 6.17125C245.421 6.92148 245 7.93901 245 9C245 10.061 245.421 11.0785 246.171 11.8287L250.344 16ZM261.656 16L256 21.6562L260.171 25.8288C260.921 26.579 261.939 27.0005 263 27.0005C264.061 27.0005 265.078 26.579 265.829 25.8288C266.579 25.0785 267 24.061 267 23C267 21.939 266.579 20.9215 265.829 20.1712L261.656 16Z" fill="currentColor"/>
<path d="M263.071 16L266.535 12.535C267.012 12.0738 267.393 11.522 267.655 10.912C267.917 10.302 268.055 9.6459 268.061 8.98201C268.067 8.31811 267.94 7.65971 267.689 7.04523C267.438 6.43075 267.066 5.87249 266.597 5.40303C266.127 4.93356 265.569 4.5623 264.955 4.31089C264.34 4.05949 263.682 3.93298 263.018 3.93875C262.354 3.94452 261.698 4.08245 261.088 4.34449C260.478 4.60654 259.926 4.98745 259.465 5.465L256 8.92875L252.535 5.465C252.074 4.98745 251.522 4.60654 250.912 4.34449C250.302 4.08245 249.646 3.94452 248.982 3.93875C248.318 3.93298 247.66 4.05949 247.045 4.31089C246.431 4.5623 245.872 4.93356 245.403 5.40303C244.933 5.87249 244.562 6.43075 244.311 7.04523C244.059 7.65971 243.933 8.31811 243.939 8.98201C243.944 9.6459 244.082 10.302 244.344 10.912C244.606 11.522 244.987 12.0738 245.465 12.535L248.929 16L245.465 19.465C244.987 19.9262 244.606 20.478 244.344 21.088C244.082 21.698 243.944 22.3541 243.939 23.018C243.933 23.6819 244.059 24.3403 244.311 24.9548C244.562 25.5693 244.933 26.1275 245.403 26.597C245.872 27.0664 246.431 27.4377 247.045 27.6891C247.66 27.9405 248.318 28.067 248.982 28.0613C249.646 28.0555 250.302 27.9176 250.912 27.6555C251.522 27.3935 252.074 27.0126 252.535 26.535L256 23.0713L259.465 26.535C259.926 27.0126 260.478 27.3935 261.088 27.6555C261.698 27.9176 262.354 28.0555 263.018 28.0613C263.682 28.067 264.34 27.9405 264.955 27.6891C265.569 27.4377 266.127 27.0664 266.597 26.597C267.066 26.1275 267.438 25.5693 267.689 24.9548C267.94 24.3403 268.067 23.6819 268.061 23.018C268.055 22.3541 267.917 21.698 267.655 21.088C267.393 20.478 267.012 19.9262 266.535 19.465L263.071 16ZM260.875 6.875C261.154 6.59594 261.485 6.37458 261.85 6.22356C262.214 6.07253 262.605 5.9948 263 5.9948C263.395 5.9948 263.785 6.07253 264.15 6.22356C264.515 6.37458 264.846 6.59594 265.125 6.875C265.404 7.15406 265.625 7.48535 265.776 7.84996C265.927 8.21457 266.005 8.60535 266.005 9C266.005 9.39465 265.927 9.78543 265.776 10.15C265.625 10.5147 265.404 10.8459 265.125 11.125L261.66 14.59L257.414 10.3438L260.875 6.875ZM260.239 16L256 20.2425L251.757 16L256 11.7575L260.239 16ZM246.875 11.125C246.596 10.8459 246.374 10.5147 246.223 10.15C246.072 9.78543 245.995 9.39465 245.995 9C245.995 8.60535 246.072 8.21457 246.223 7.84996C246.374 7.48535 246.596 7.15406 246.875 6.875C247.154 6.59594 247.485 6.37458 247.85 6.22356C248.214 6.07253 248.605 5.9948 249 5.9948C249.395 5.9948 249.785 6.07253 250.15 6.22356C250.515 6.37458 250.846 6.59594 251.125 6.875L254.59 10.34L250.344 14.5863L246.875 11.125ZM251.125 25.125C250.846 25.4041 250.515 25.6254 250.15 25.7764C249.785 25.9275 249.395 26.0052 249 26.0052C248.605 26.0052 248.214 25.9275 247.85 25.7764C247.485 25.6254 247.154 25.4041 246.875 25.125C246.596 24.8459 246.374 24.5147 246.223 24.15C246.072 23.7854 245.995 23.3947 245.995 23C245.995 22.6054 246.072 22.2146 246.223 21.85C246.374 21.4854 246.596 21.1541 246.875 20.875L250.34 17.41L254.582 21.6525L251.125 25.125ZM265.125 25.125C264.846 25.4047 264.515 25.6266 264.15 25.778C263.786 25.9294 263.395 26.0074 263 26.0074C262.605 26.0074 262.214 25.9294 261.849 25.778C261.485 25.6266 261.154 25.4047 260.875 25.125L257.41 21.66L261.652 17.4175L265.125 20.875C265.405 21.1537 265.627 21.4849 265.778 21.8495C265.929 22.2142 266.007 22.6052 266.007 23C266.007 23.3948 265.929 23.7858 265.778 24.1505C265.627 24.5151 265.405 24.8463 265.125 25.125ZM254.5 16C254.5 15.7033 254.588 15.4133 254.753 15.1666C254.918 14.92 255.152 14.7277 255.426 14.6142C255.7 14.5007 256.002 14.4709 256.293 14.5288C256.584 14.5867 256.851 14.7296 257.061 14.9393C257.27 15.1491 257.413 15.4164 257.471 15.7074C257.529 15.9983 257.499 16.2999 257.386 16.574C257.272 16.8481 257.08 17.0824 256.833 17.2472C256.587 17.412 256.297 17.5 256 17.5C255.602 17.5 255.221 17.342 254.939 17.0607C254.658 16.7794 254.5 16.3978 254.5 16Z" fill="currentColor"/>
</g>
<defs>
<clipPath id="clip0_17_4093">
<rect width="272" height="32" rx="5" fill="white"/>
</clipPath>
</defs>
</svg>
