<svg width="272" height="32" viewBox="0 0 272 32" fill="none" xmlns="http://www.w3.org/2000/svg">
<g clip-path="url(#clip0_17_3967)">
<path d="M28.7913 17.6325C28.4642 17.3805 28.0894 17.1977 27.6894 17.0951C27.2895 16.9926 26.8729 16.9726 26.465 17.0362C28.8125 14.6662 30 12.31 30 10C30 6.69125 27.3387 4 24.0675 4C23.1995 3.99454 22.3408 4.17915 21.5518 4.54085C20.7627 4.90256 20.0624 5.43259 19.5 6.09375C18.9376 5.43259 18.2373 4.90256 17.4482 4.54085C16.6592 4.17915 15.8005 3.99454 14.9325 4C11.6613 4 9 6.69125 9 10C9 11.375 9.405 12.7112 10.2575 14.125C9.5593 14.3019 8.92211 14.6648 8.41375 15.175L5.58625 18H2C1.46957 18 0.960859 18.2107 0.585786 18.5858C0.210714 18.9609 0 19.4696 0 20L0 25C0 25.5304 0.210714 26.0391 0.585786 26.4142C0.960859 26.7893 1.46957 27 2 27H15C15.0818 27 15.1632 26.99 15.2425 26.97L23.2425 24.97C23.2935 24.9579 23.3433 24.9411 23.3913 24.92L28.25 22.8525L28.305 22.8275C28.772 22.5942 29.1718 22.2458 29.4669 21.8152C29.7621 21.3846 29.9427 20.886 29.9918 20.3663C30.041 19.8466 29.957 19.3229 29.7478 18.8447C29.5387 18.3664 29.2112 17.9492 28.7962 17.6325H28.7913ZM14.9325 6C15.707 5.98866 16.4673 6.20859 17.1162 6.63166C17.765 7.05473 18.273 7.66171 18.575 8.375C18.6503 8.55841 18.7785 8.71528 18.9432 8.82568C19.1079 8.93608 19.3017 8.99503 19.5 8.99503C19.6983 8.99503 19.8921 8.93608 20.0568 8.82568C20.2215 8.71528 20.3497 8.55841 20.425 8.375C20.727 7.66171 21.235 7.05473 21.8838 6.63166C22.5327 6.20859 23.293 5.98866 24.0675 6C26.1987 6 28 7.83125 28 10C28 12.4387 26.0262 15.1975 22.2925 17.9875L20.9062 18.3062C21.0279 17.7922 21.0317 17.2574 20.9172 16.7417C20.8028 16.226 20.5731 15.7429 20.2454 15.3287C19.9177 14.9144 19.5005 14.5796 19.0251 14.3495C18.5496 14.1194 18.0282 13.9999 17.5 14H12.585C11.5063 12.545 11 11.265 11 10C11 7.83125 12.8013 6 14.9325 6ZM2 20H5V25H2V20ZM27.4287 21.0262L22.6787 23.0487L14.875 25H7V19.4137L9.82875 16.5862C10.0138 16.3997 10.2341 16.2518 10.4768 16.1512C10.7195 16.0506 10.9798 15.9992 11.2425 16H17.5C17.8978 16 18.2794 16.158 18.5607 16.4393C18.842 16.7206 19 17.1022 19 17.5C19 17.8978 18.842 18.2794 18.5607 18.5607C18.2794 18.842 17.8978 19 17.5 19H14C13.7348 19 13.4804 19.1054 13.2929 19.2929C13.1054 19.4804 13 19.7348 13 20C13 20.2652 13.1054 20.5196 13.2929 20.7071C13.4804 20.8946 13.7348 21 14 21H18C18.0753 20.9998 18.1503 20.9914 18.2237 20.975L26.5987 19.0487L26.6375 19.0387C26.8932 18.9678 27.166 18.9939 27.4036 19.112C27.6412 19.2301 27.8267 19.4319 27.9245 19.6786C28.0222 19.9253 28.0253 20.1994 27.9331 20.4482C27.8409 20.6969 27.6599 20.9028 27.425 21.0262H27.4287Z" fill="currentColor"/>
<path d="M76.4875 18.03C76.175 17.7894 75.8111 17.6244 75.4242 17.5478C75.0374 17.4713 74.6381 17.4853 74.2575 17.5887L72.7638 17.9325C75.9075 15.235 77.5 12.5725 77.5 9.99999C77.5 6.96749 75.0625 4.49999 72.0675 4.49999C71.1641 4.49277 70.2731 4.71124 69.4755 5.13559C68.6779 5.55994 67.9988 6.17672 67.5 6.92999C67.0012 6.17672 66.3221 5.55994 65.5245 5.13559C64.7269 4.71124 63.8359 4.49277 62.9325 4.49999C59.9375 4.49999 57.5 6.96749 57.5 9.99999C57.5 11.4812 58.0138 12.93 59.1012 14.5C58.2221 14.5327 57.3881 14.8977 56.7675 15.5212L53.7925 18.5H50C49.6022 18.5 49.2206 18.658 48.9393 18.9393C48.658 19.2206 48.5 19.6022 48.5 20V25C48.5 25.3978 48.658 25.7793 48.9393 26.0606C49.2206 26.342 49.6022 26.5 50 26.5H63C63.0421 26.5003 63.0841 26.4952 63.125 26.485L71.125 24.485C71.1505 24.4784 71.1756 24.47 71.2 24.46L76.0525 22.3925L76.08 22.38C76.471 22.1846 76.8058 21.8928 77.0528 21.5323C77.2999 21.1717 77.4511 20.7542 77.4923 20.3191C77.5334 19.8839 77.4631 19.4455 77.288 19.045C77.1128 18.6445 76.8387 18.2952 76.4912 18.03H76.4875ZM62.9325 5.49999C63.8067 5.48907 64.6643 5.73921 65.3956 6.21841C66.1269 6.69761 66.6985 7.38408 67.0375 8.18999C67.0752 8.2817 67.1393 8.36013 67.2216 8.41533C67.304 8.47053 67.4009 8.50001 67.5 8.50001C67.5991 8.50001 67.696 8.47053 67.7784 8.41533C67.8607 8.36013 67.9248 8.2817 67.9625 8.18999C68.3015 7.38408 68.8731 6.69761 69.6044 6.21841C70.3357 5.73921 71.1933 5.48907 72.0675 5.49999C74.47 5.49999 76.5 7.56124 76.5 9.99999C76.5 12.6587 74.4837 15.5 70.5075 18.4512L68.0938 19C68.3599 18.5449 68.5001 18.0272 68.5 17.5C68.5 16.7043 68.1839 15.9413 67.6213 15.3787C67.0587 14.8161 66.2956 14.5 65.5 14.5H60.3363C59.0863 12.875 58.5 11.4375 58.5 9.99999C58.5 7.56124 60.53 5.49999 62.9325 5.49999ZM49.5 25V20C49.5 19.8674 49.5527 19.7402 49.6464 19.6464C49.7402 19.5527 49.8674 19.5 50 19.5H53.5V25.5H50C49.8674 25.5 49.7402 25.4473 49.6464 25.3535C49.5527 25.2598 49.5 25.1326 49.5 25ZM75.6413 21.4787L70.84 23.525L62.9388 25.5H54.5V19.2075L57.475 16.2325C57.7065 15.9995 57.9819 15.8149 58.2853 15.6891C58.5887 15.5634 58.9141 15.4991 59.2425 15.5H65.5C66.0304 15.5 66.5391 15.7107 66.9142 16.0858C67.2893 16.4608 67.5 16.9696 67.5 17.5C67.5 18.0304 67.2893 18.5391 66.9142 18.9142C66.5391 19.2893 66.0304 19.5 65.5 19.5H62C61.8674 19.5 61.7402 19.5527 61.6464 19.6464C61.5527 19.7402 61.5 19.8674 61.5 20C61.5 20.1326 61.5527 20.2598 61.6464 20.3535C61.7402 20.4473 61.8674 20.5 62 20.5H66C66.0379 20.5002 66.0756 20.496 66.1125 20.4875L74.4875 18.5612H74.5075C74.8828 18.4617 75.2816 18.5043 75.6274 18.6809C75.9732 18.8574 76.2415 19.1555 76.381 19.5178C76.5205 19.8801 76.5212 20.2812 76.3831 20.6441C76.2449 21.0069 75.9776 21.3059 75.6325 21.4837L75.6413 21.4787Z" fill="currentColor"/>
<path d="M124.64 17.8312C124.298 17.5675 123.899 17.3865 123.475 17.3024C123.051 17.2183 122.613 17.2333 122.196 17.3462L121.656 17.4712C124.375 14.9437 125.75 12.4387 125.75 9.99999C125.75 6.82999 123.201 4.24999 120.067 4.24999C119.184 4.24445 118.311 4.44491 117.518 4.83546C116.725 5.22602 116.034 5.79592 115.5 6.49999C114.966 5.79592 114.275 5.22602 113.482 4.83546C112.689 4.44491 111.816 4.24445 110.932 4.24999C107.799 4.24999 105.25 6.82999 105.25 9.99999C105.25 11.4225 105.704 12.8112 106.661 14.295C105.876 14.416 105.151 14.7853 104.591 15.3487L101.69 18.25H98C97.5359 18.25 97.0908 18.4344 96.7626 18.7626C96.4344 19.0907 96.25 19.5359 96.25 20V25C96.25 25.4641 96.4344 25.9092 96.7626 26.2374C97.0908 26.5656 97.5359 26.75 98 26.75H111C111.062 26.75 111.123 26.7424 111.182 26.7275L119.183 24.7275C119.22 24.7174 119.258 24.7049 119.294 24.69L124.146 22.625L124.188 22.6062C124.617 22.392 124.984 22.072 125.255 21.6765C125.526 21.281 125.692 20.823 125.738 20.3455C125.783 19.8681 125.706 19.387 125.514 18.9476C125.322 18.5081 125.021 18.1248 124.64 17.8337V17.8312ZM110.932 5.74999C111.757 5.73898 112.567 5.97434 113.257 6.42593C113.947 6.87753 114.487 7.52483 114.808 8.28499C114.864 8.42255 114.96 8.5402 115.084 8.623C115.207 8.70581 115.353 8.75001 115.501 8.75001C115.65 8.75001 115.795 8.70581 115.919 8.623C116.042 8.5402 116.138 8.42255 116.195 8.28499C116.515 7.52483 117.055 6.87753 117.746 6.42593C118.436 5.97434 119.245 5.73898 120.07 5.74999C122.335 5.74999 124.25 7.69624 124.25 9.99999C124.25 12.53 122.227 15.375 118.4 18.2187L116.541 18.6462C116.727 18.1544 116.79 17.625 116.726 17.1033C116.662 16.5816 116.472 16.0833 116.173 15.651C115.874 15.2187 115.474 14.8655 115.009 14.6215C114.543 14.3774 114.026 14.25 113.5 14.25H108.459C107.295 12.7087 106.75 11.3512 106.75 9.99999C106.75 7.69624 108.665 5.74999 110.932 5.74999ZM97.75 25V20C97.75 19.9337 97.7763 19.8701 97.8232 19.8232C97.8701 19.7763 97.9337 19.75 98 19.75H101.25V25.25H98C97.9337 25.25 97.8701 25.2237 97.8232 25.1768C97.7763 25.1299 97.75 25.0663 97.75 25ZM123.535 21.25L118.76 23.2837L110.908 25.25H102.75V19.3112L105.651 16.4087C105.86 16.1992 106.108 16.033 106.381 15.9199C106.654 15.8069 106.947 15.7491 107.243 15.75H113.5C113.964 15.75 114.409 15.9344 114.737 16.2626C115.066 16.5907 115.25 17.0359 115.25 17.5C115.25 17.9641 115.066 18.4092 114.737 18.7374C114.409 19.0656 113.964 19.25 113.5 19.25H110C109.801 19.25 109.61 19.329 109.47 19.4697C109.329 19.6103 109.25 19.8011 109.25 20C109.25 20.1989 109.329 20.3897 109.47 20.5303C109.61 20.671 109.801 20.75 110 20.75H114C114.056 20.7501 114.113 20.7438 114.167 20.7312L122.542 18.805L122.573 18.7975C122.888 18.7116 123.224 18.7451 123.516 18.8917C123.808 19.0383 124.035 19.2876 124.154 19.5918C124.274 19.8959 124.277 20.2334 124.162 20.5395C124.048 20.8456 123.825 21.0986 123.535 21.25Z" fill="currentColor"/>
<path d="M173.095 17.235C172.654 16.8972 172.14 16.6665 171.595 16.5613C173.524 14.3675 174.5 12.1713 174.5 10C174.5 6.41626 171.614 3.50001 168.067 3.50001C166.36 3.49182 164.718 4.15905 163.5 5.35626C162.282 4.15905 160.64 3.49182 158.932 3.50001C155.386 3.50001 152.5 6.41626 152.5 10C152.5 11.2688 152.84 12.5375 153.528 13.8375C152.979 14.064 152.48 14.3971 152.061 14.8175L149.375 17.5H146.5C145.837 17.5 145.201 17.7634 144.732 18.2322C144.263 18.7011 144 19.337 144 20V25C144 25.6631 144.263 26.2989 144.732 26.7678C145.201 27.2366 145.837 27.5 146.5 27.5H159C159.123 27.5001 159.245 27.485 159.364 27.455L167.364 25.455C167.44 25.4362 167.515 25.4112 167.587 25.38L172.44 23.3125C172.469 23.3013 172.496 23.2888 172.524 23.275C173.066 23.0035 173.531 22.5984 173.874 22.0978C174.217 21.5972 174.427 21.0175 174.484 20.4134C174.541 19.8093 174.444 19.2006 174.201 18.6445C173.958 18.0885 173.577 17.6034 173.095 17.235ZM158.932 6.50001C159.608 6.48959 160.272 6.68098 160.838 7.04973C161.405 7.41847 161.848 7.94779 162.112 8.57001C162.226 8.84513 162.418 9.08044 162.665 9.24604C162.912 9.41164 163.203 9.50006 163.5 9.50006C163.797 9.50006 164.088 9.41164 164.335 9.24604C164.582 9.08044 164.774 8.84513 164.888 8.57001C165.152 7.94779 165.595 7.41847 166.162 7.04973C166.728 6.68098 167.392 6.48959 168.067 6.50001C169.927 6.50001 171.5 8.10251 171.5 10C171.5 12.2575 169.625 14.855 166.077 17.5238L165.5 17.6575C165.5 17.605 165.5 17.5525 165.5 17.5C165.5 16.4391 165.079 15.4217 164.328 14.6716C163.578 13.9214 162.561 13.5 161.5 13.5H156.839C155.927 12.22 155.5 11.0963 155.5 10C155.5 8.10251 157.073 6.50001 158.932 6.50001ZM147 20.5H148.5V24.5H147V20.5ZM171.21 20.5763L166.521 22.5763L158.815 24.5H151.5V19.625L154.182 16.9425C154.321 16.8023 154.486 16.6911 154.668 16.6151C154.85 16.5392 155.045 16.5 155.243 16.5H161.5C161.765 16.5 162.02 16.6054 162.207 16.7929C162.395 16.9804 162.5 17.2348 162.5 17.5C162.5 17.7652 162.395 18.0196 162.207 18.2071C162.02 18.3947 161.765 18.5 161.5 18.5H158C157.602 18.5 157.221 18.658 156.939 18.9394C156.658 19.2207 156.5 19.6022 156.5 20C156.5 20.3978 156.658 20.7794 156.939 21.0607C157.221 21.342 157.602 21.5 158 21.5H162C162.113 21.5 162.226 21.4875 162.336 21.4625L170.711 19.5363L170.77 19.5213C170.855 19.498 170.945 19.4948 171.032 19.5118C171.119 19.5287 171.2 19.5655 171.271 19.6192C171.341 19.6728 171.398 19.742 171.437 19.8212C171.477 19.9005 171.497 19.9878 171.497 20.0763C171.498 20.1776 171.472 20.2773 171.421 20.3651C171.371 20.453 171.298 20.5258 171.21 20.5763Z" fill="currentColor"/>
<path d="M220.791 17.6325C220.464 17.3805 220.089 17.1977 219.689 17.0951C219.29 16.9926 218.873 16.9726 218.465 17.0362C220.812 14.6662 222 12.31 222 10C222 6.69125 219.339 4 216.067 4C215.2 3.99454 214.341 4.17915 213.552 4.54085C212.763 4.90256 212.062 5.43259 211.5 6.09375C210.938 5.43259 210.237 4.90256 209.448 4.54085C208.659 4.17915 207.8 3.99454 206.932 4C203.661 4 201 6.69125 201 10C201 11.375 201.405 12.7112 202.257 14.125C201.559 14.3019 200.922 14.6648 200.414 15.175L197.586 18H194C193.47 18 192.961 18.2107 192.586 18.5858C192.211 18.9609 192 19.4696 192 20V25C192 25.5304 192.211 26.0391 192.586 26.4142C192.961 26.7893 193.47 27 194 27H207C207.082 27 207.163 26.99 207.243 26.97L215.243 24.97C215.293 24.9579 215.343 24.9411 215.391 24.92L220.25 22.8525L220.305 22.8275C220.772 22.5942 221.172 22.2458 221.467 21.8152C221.762 21.3846 221.943 20.886 221.992 20.3663C222.041 19.8466 221.957 19.3229 221.748 18.8447C221.539 18.3664 221.211 17.9492 220.796 17.6325H220.791ZM219.429 21.0262L214.679 23.0487L206.875 25H199V19.4137L201.829 16.5862C202.014 16.3997 202.234 16.2518 202.477 16.1512C202.719 16.0506 202.98 15.9992 203.243 16H209.5C209.898 16 210.279 16.158 210.561 16.4393C210.842 16.7206 211 17.1022 211 17.5C211 17.8978 210.842 18.2794 210.561 18.5607C210.279 18.842 209.898 19 209.5 19H206C205.735 19 205.48 19.1054 205.293 19.2929C205.105 19.4804 205 19.7348 205 20C205 20.2652 205.105 20.5196 205.293 20.7071C205.48 20.8946 205.735 21 206 21H210C210.075 20.9998 210.15 20.9914 210.224 20.975L218.599 19.0487L218.638 19.0387C218.893 18.9678 219.166 18.9939 219.404 19.112C219.641 19.2301 219.827 19.4319 219.924 19.6786C220.022 19.9253 220.025 20.1994 219.933 20.4482C219.841 20.6969 219.66 20.9028 219.425 21.0262H219.429Z" fill="currentColor"/>
<path opacity="0.2" d="M242 19H246V26H242C241.735 26 241.48 25.8946 241.293 25.7071C241.105 25.5195 241 25.2652 241 25V20C241 19.7348 241.105 19.4804 241.293 19.2929C241.48 19.1053 241.735 19 242 19ZM264.067 4.99997C263.094 4.98855 262.139 5.26796 261.326 5.80242C260.512 6.33688 259.876 7.10206 259.5 7.99997C259.124 7.10206 258.488 6.33688 257.674 5.80242C256.861 5.26796 255.906 4.98855 254.932 4.99997C252.209 4.99997 250 7.28872 250 9.99997C250 11.82 250.875 13.4637 252.091 15H257.5C258.163 15 258.799 15.2634 259.268 15.7322C259.737 16.201 260 16.8369 260 17.5C260 18.163 259.737 18.7989 259.268 19.2677C258.799 19.7366 258.163 20 257.5 20H258L262.722 18.915C265.478 16.8837 269 13.6537 269 9.99997C269 7.28872 266.791 4.99997 264.067 4.99997Z" fill="currentColor"/>
<path d="M268.791 17.6325C268.464 17.3805 268.089 17.1977 267.689 17.0951C267.29 16.9926 266.873 16.9726 266.465 17.0362C268.812 14.6662 270 12.31 270 10C270 6.69125 267.339 4 264.067 4C263.2 3.99454 262.341 4.17915 261.552 4.54085C260.763 4.90256 260.062 5.43259 259.5 6.09375C258.938 5.43259 258.237 4.90256 257.448 4.54085C256.659 4.17915 255.8 3.99454 254.932 4C251.661 4 249 6.69125 249 10C249 11.375 249.405 12.7112 250.257 14.125C249.559 14.3019 248.922 14.6648 248.414 15.175L245.586 18H242C241.47 18 240.961 18.2107 240.586 18.5858C240.211 18.9609 240 19.4696 240 20V25C240 25.5304 240.211 26.0391 240.586 26.4142C240.961 26.7893 241.47 27 242 27H255C255.082 27 255.163 26.99 255.243 26.97L263.243 24.97C263.293 24.9579 263.343 24.9411 263.391 24.92L268.25 22.8525L268.305 22.8275C268.772 22.5942 269.172 22.2458 269.467 21.8152C269.762 21.3846 269.943 20.886 269.992 20.3663C270.041 19.8466 269.957 19.3229 269.748 18.8447C269.539 18.3664 269.211 17.9492 268.796 17.6325H268.791ZM254.932 6C255.707 5.98866 256.467 6.20859 257.116 6.63166C257.765 7.05473 258.273 7.66171 258.575 8.375C258.65 8.55841 258.779 8.71528 258.943 8.82568C259.108 8.93608 259.302 8.99503 259.5 8.99503C259.698 8.99503 259.892 8.93608 260.057 8.82568C260.221 8.71528 260.35 8.55841 260.425 8.375C260.727 7.66171 261.235 7.05473 261.884 6.63166C262.533 6.20859 263.293 5.98866 264.067 6C266.199 6 268 7.83125 268 10C268 12.4387 266.026 15.1975 262.292 17.9875L260.906 18.3062C261.028 17.7922 261.032 17.2574 260.917 16.7417C260.803 16.226 260.573 15.7429 260.245 15.3287C259.918 14.9144 259.501 14.5796 259.025 14.3495C258.55 14.1194 258.028 13.9999 257.5 14H252.585C251.506 12.545 251 11.265 251 10C251 7.83125 252.801 6 254.932 6ZM242 20H245V25H242V20ZM267.429 21.0262L262.679 23.0487L254.875 25H247V19.4137L249.829 16.5862C250.014 16.3997 250.234 16.2518 250.477 16.1512C250.719 16.0506 250.98 15.9992 251.243 16H257.5C257.898 16 258.279 16.158 258.561 16.4393C258.842 16.7206 259 17.1022 259 17.5C259 17.8978 258.842 18.2794 258.561 18.5607C258.279 18.842 257.898 19 257.5 19H254C253.735 19 253.48 19.1054 253.293 19.2929C253.105 19.4804 253 19.7348 253 20C253 20.2652 253.105 20.5196 253.293 20.7071C253.48 20.8946 253.735 21 254 21H258C258.075 20.9998 258.15 20.9914 258.224 20.975L266.599 19.0487L266.638 19.0387C266.893 18.9678 267.166 18.9939 267.404 19.112C267.641 19.2301 267.827 19.4319 267.924 19.6786C268.022 19.9253 268.025 20.1994 267.933 20.4482C267.841 20.6969 267.66 20.9028 267.425 21.0262H267.429Z" fill="currentColor"/>
</g>
<defs>
<clipPath id="clip0_17_3967">
<rect width="272" height="32" rx="5" fill="white"/>
</clipPath>
</defs>
</svg>
