<svg width="272" height="32" viewBox="0 0 272 32" fill="none" xmlns="http://www.w3.org/2000/svg">
<g clip-path="url(#clip0_17_3813)">
<path d="M9.5 15C9.5 15.2967 9.41203 15.5867 9.2472 15.8334C9.08238 16.08 8.84811 16.2723 8.57403 16.3858C8.29994 16.4993 7.99834 16.5291 7.70736 16.4712C7.41639 16.4133 7.14912 16.2704 6.93934 16.0607C6.72956 15.8509 6.5867 15.5836 6.52882 15.2926C6.47094 15.0017 6.50065 14.7001 6.61418 14.426C6.72771 14.1519 6.91997 13.9176 7.16664 13.7528C7.41332 13.588 7.70333 13.5 8 13.5C8.39782 13.5 8.77936 13.658 9.06066 13.9393C9.34196 14.2206 9.5 14.6022 9.5 15ZM30 15V26C30 26.5304 29.7893 27.0391 29.4142 27.4142C29.0391 27.7893 28.5304 28 28 28H14C13.4696 28 12.9609 27.7893 12.5858 27.4142C12.2107 27.0391 12 26.5304 12 26V23.2938C10.9213 25.0463 9.5225 26 8 26C6.26625 26 4.6925 24.7637 3.57 22.5187C2.5575 20.5 2 17.8237 2 15C2 12.1763 2.5575 9.50625 3.57 7.48125C4.6925 5.23625 6.26625 4 8 4H24C25.7337 4 27.3075 5.23625 28.43 7.48125C29.4425 9.50625 30 12.1763 30 15ZM12 15C12 9.69625 9.8925 6 8 6C6.1075 6 4 9.69625 4 15C4 20.3037 6.1075 24 8 24C9.8925 24 12 20.3037 12 15ZM28 26V16H26C25.7348 16 25.4804 15.8946 25.2929 15.7071C25.1054 15.5196 25 15.2652 25 15C25 14.7348 25.1054 14.4804 25.2929 14.2929C25.4804 14.1054 25.7348 14 26 14H27.9737C27.73 9.2375 25.77 6 24 6H11.515C11.8661 6.46371 12.1725 6.95968 12.43 7.48125C13.3225 9.26625 13.86 11.5512 13.9762 14H16C16.2652 14 16.5196 14.1054 16.7071 14.2929C16.8946 14.4804 17 14.7348 17 15C17 15.2652 16.8946 15.5196 16.7071 15.7071C16.5196 15.8946 16.2652 16 16 16H14V26H28ZM22 14H20C19.7348 14 19.4804 14.1054 19.2929 14.2929C19.1054 14.4804 19 14.7348 19 15C19 15.2652 19.1054 15.5196 19.2929 15.7071C19.4804 15.8946 19.7348 16 20 16H22C22.2652 16 22.5196 15.8946 22.7071 15.7071C22.8946 15.5196 23 15.2652 23 15C23 14.7348 22.8946 14.4804 22.7071 14.2929C22.5196 14.1054 22.2652 14 22 14Z" fill="currentColor"/>
<path d="M57 15C57 15.1978 56.9414 15.3911 56.8315 15.5556C56.7216 15.72 56.5654 15.8482 56.3827 15.9239C56.2 15.9996 55.9989 16.0194 55.8049 15.9808C55.6109 15.9422 55.4327 15.847 55.2929 15.7071C55.153 15.5673 55.0578 15.3891 55.0192 15.1951C54.9806 15.0011 55.0004 14.8 55.0761 14.6173C55.1518 14.4346 55.28 14.2784 55.4444 14.1685C55.6089 14.0586 55.8022 14 56 14C56.2652 14 56.5196 14.1054 56.7071 14.2929C56.8946 14.4804 57 14.7348 57 15ZM77.5 15V26C77.5 26.3978 77.342 26.7794 77.0607 27.0607C76.7794 27.342 76.3978 27.5 76 27.5H62C61.6022 27.5 61.2206 27.342 60.9393 27.0607C60.658 26.7794 60.5 26.3978 60.5 26V21.1075C59.5125 23.7825 57.875 25.5 56 25.5C52.9162 25.5 50.5 20.8875 50.5 15C50.5 9.1125 52.9162 4.5 56 4.5H72C75.0837 4.5 77.5 9.1125 77.5 15ZM60.5 15C60.5 9.85 58.4388 5.5 56 5.5C53.5612 5.5 51.5 9.85 51.5 15C51.5 20.15 53.5612 24.5 56 24.5C58.4388 24.5 60.5 20.15 60.5 15ZM76.5 26V15.5H74C73.8674 15.5 73.7402 15.4473 73.6464 15.3536C73.5527 15.2598 73.5 15.1326 73.5 15C73.5 14.8674 73.5527 14.7402 73.6464 14.6464C73.7402 14.5527 73.8674 14.5 74 14.5H76.5C76.375 9.5725 74.3663 5.5 72.0063 5.5H58.3813C60.1675 7.1 61.3987 10.47 61.4937 14.5H63.9937C64.1264 14.5 64.2535 14.5527 64.3473 14.6464C64.4411 14.7402 64.4937 14.8674 64.4937 15C64.4937 15.1326 64.4411 15.2598 64.3473 15.3536C64.2535 15.4473 64.1264 15.5 63.9937 15.5H61.5V26C61.5 26.1326 61.5527 26.2598 61.6464 26.3536C61.7402 26.4473 61.8674 26.5 62 26.5H76C76.1326 26.5 76.2598 26.4473 76.3536 26.3536C76.4473 26.2598 76.5 26.1326 76.5 26ZM70 14.5H68C67.8674 14.5 67.7402 14.5527 67.6464 14.6464C67.5527 14.7402 67.5 14.8674 67.5 15C67.5 15.1326 67.5527 15.2598 67.6464 15.3536C67.7402 15.4473 67.8674 15.5 68 15.5H70C70.1326 15.5 70.2598 15.4473 70.3536 15.3536C70.4473 15.2598 70.5 15.1326 70.5 15C70.5 14.8674 70.4473 14.7402 70.3536 14.6464C70.2598 14.5527 70.1326 14.5 70 14.5Z" fill="currentColor"/>
<path d="M105.25 15C105.25 15.2472 105.177 15.4889 105.039 15.6945C104.902 15.9 104.707 16.0602 104.478 16.1549C104.25 16.2495 103.999 16.2742 103.756 16.226C103.514 16.1777 103.291 16.0587 103.116 15.8839C102.941 15.7091 102.822 15.4863 102.774 15.2439C102.726 15.0014 102.751 14.7501 102.845 14.5216C102.94 14.2932 103.1 14.098 103.306 13.9607C103.511 13.8233 103.753 13.75 104 13.75C104.332 13.75 104.649 13.8817 104.884 14.1161C105.118 14.3505 105.25 14.6685 105.25 15ZM125.75 15V26C125.75 26.4641 125.566 26.9092 125.237 27.2374C124.909 27.5656 124.464 27.75 124 27.75H110C109.536 27.75 109.091 27.5656 108.763 27.2374C108.434 26.9092 108.25 26.4641 108.25 26V22.31C107.206 24.4362 105.7 25.75 104 25.75C100.776 25.75 98.25 21.0275 98.25 15C98.25 8.9725 100.776 4.25 104 4.25H120C123.224 4.25 125.75 8.9725 125.75 15ZM108.25 15C108.25 9.4675 106.052 5.75 104 5.75C101.947 5.75 99.75 9.4675 99.75 15C99.75 20.5325 101.947 24.25 104 24.25C106.052 24.25 108.25 20.5338 108.25 15ZM124.25 26V15.75H122C121.801 15.75 121.61 15.671 121.47 15.5303C121.329 15.3897 121.25 15.1989 121.25 15C121.25 14.8011 121.329 14.6103 121.47 14.4697C121.61 14.329 121.801 14.25 122 14.25H124.235C124.046 9.135 121.959 5.75 120 5.75H106.97C108.541 7.49 109.606 10.5925 109.735 14.25H112C112.199 14.25 112.39 14.329 112.53 14.4697C112.671 14.6103 112.75 14.8011 112.75 15C112.75 15.1989 112.671 15.3897 112.53 15.5303C112.39 15.671 112.199 15.75 112 15.75H109.75V26C109.75 26.0663 109.776 26.1299 109.823 26.1768C109.87 26.2237 109.934 26.25 110 26.25H124C124.066 26.25 124.13 26.2237 124.177 26.1768C124.224 26.1299 124.25 26.0663 124.25 26ZM118 14.25H116C115.801 14.25 115.61 14.329 115.47 14.4697C115.329 14.6103 115.25 14.8011 115.25 15C115.25 15.1989 115.329 15.3897 115.47 15.5303C115.61 15.671 115.801 15.75 116 15.75H118C118.199 15.75 118.39 15.671 118.53 15.5303C118.671 15.3897 118.75 15.1989 118.75 15C118.75 14.8011 118.671 14.6103 118.53 14.4697C118.39 14.329 118.199 14.25 118 14.25Z" fill="currentColor"/>
<path d="M154 15C154 15.3956 153.883 15.7822 153.663 16.1111C153.443 16.44 153.131 16.6964 152.765 16.8478C152.4 16.9991 151.998 17.0387 151.61 16.9616C151.222 16.8844 150.865 16.6939 150.586 16.4142C150.306 16.1345 150.116 15.7781 150.038 15.3902C149.961 15.0022 150.001 14.6001 150.152 14.2346C150.304 13.8692 150.56 13.5568 150.889 13.3371C151.218 13.1173 151.604 13 152 13C152.53 13 153.039 13.2107 153.414 13.5858C153.789 13.9609 154 14.4696 154 15ZM174.5 15V26C174.5 26.663 174.237 27.2989 173.768 27.7678C173.299 28.2366 172.663 28.5 172 28.5H158C157.337 28.5 156.701 28.2366 156.232 27.7678C155.763 27.2989 155.5 26.663 155.5 26V24.7987C154.5 25.8838 153.307 26.5 152 26.5C148.294 26.5 145.5 21.5562 145.5 15C145.5 8.44375 148.294 3.5 152 3.5H168C171.706 3.5 174.5 8.44375 174.5 15ZM155.5 15C155.5 12.5925 155.024 10.26 154.194 8.6C153.536 7.285 152.716 6.5 152 6.5C151.284 6.5 150.464 7.285 149.806 8.6C148.976 10.26 148.5 12.5925 148.5 15C148.5 17.4075 148.976 19.74 149.806 21.4C150.464 22.715 151.284 23.5 152 23.5C152.716 23.5 153.536 22.715 154.194 21.4C155.024 19.74 155.5 17.4075 155.5 15ZM171.5 25.5V16.5H170.5C170.102 16.5 169.721 16.342 169.439 16.0607C169.158 15.7794 169 15.3978 169 15C169 14.6022 169.158 14.2206 169.439 13.9393C169.721 13.658 170.102 13.5 170.5 13.5H171.438C171.284 11.6438 170.85 9.91125 170.194 8.6C169.538 7.28875 168.716 6.5 168 6.5H156.467C157.544 8.26375 158.261 10.695 158.45 13.5H159.5C159.898 13.5 160.279 13.658 160.561 13.9393C160.842 14.2206 161 14.6022 161 15C161 15.3978 160.842 15.7794 160.561 16.0607C160.279 16.342 159.898 16.5 159.5 16.5H158.5V25.5H171.5ZM165.5 13.5H164.5C164.102 13.5 163.721 13.658 163.439 13.9393C163.158 14.2206 163 14.6022 163 15C163 15.3978 163.158 15.7794 163.439 16.0607C163.721 16.342 164.102 16.5 164.5 16.5H165.5C165.898 16.5 166.279 16.342 166.561 16.0607C166.842 15.7794 167 15.3978 167 15C167 14.6022 166.842 14.2206 166.561 13.9393C166.279 13.658 165.898 13.5 165.5 13.5Z" fill="currentColor"/>
<path d="M215 15C215 15.2652 214.895 15.5196 214.707 15.7071C214.52 15.8946 214.265 16 214 16H212C211.735 16 211.48 15.8946 211.293 15.7071C211.105 15.5196 211 15.2652 211 15C211 14.7348 211.105 14.4804 211.293 14.2929C211.48 14.1054 211.735 14 212 14H214C214.265 14 214.52 14.1054 214.707 14.2929C214.895 14.4804 215 14.7348 215 15ZM222 15V26C222 26.5304 221.789 27.0391 221.414 27.4142C221.039 27.7893 220.53 28 220 28H206C205.47 28 204.961 27.7893 204.586 27.4142C204.211 27.0391 204 26.5304 204 26V23.2938C202.921 25.0463 201.523 26 200 26C198.266 26 196.692 24.7637 195.57 22.5187C194.557 20.5 194 17.8237 194 15C194 12.1763 194.557 9.50625 195.57 7.48125C196.692 5.23625 198.266 4 200 4H216C217.734 4 219.308 5.23625 220.43 7.48125C221.443 9.50625 222 12.1763 222 15ZM201.5 15C201.5 14.7033 201.412 14.4133 201.247 14.1666C201.082 13.92 200.848 13.7277 200.574 13.6142C200.3 13.5006 199.998 13.4709 199.707 13.5288C199.416 13.5867 199.149 13.7296 198.939 13.9393C198.73 14.1491 198.587 14.4164 198.529 14.7074C198.471 14.9983 198.501 15.2999 198.614 15.574C198.728 15.8481 198.92 16.0824 199.167 16.2472C199.413 16.412 199.703 16.5 200 16.5C200.398 16.5 200.779 16.342 201.061 16.0607C201.342 15.7794 201.5 15.3978 201.5 15ZM220 16H218C217.735 16 217.48 15.8946 217.293 15.7071C217.105 15.5196 217 15.2652 217 15C217 14.7348 217.105 14.4804 217.293 14.2929C217.48 14.1054 217.735 14 218 14H219.974C219.73 9.2375 217.77 6 216 6H203.515C203.866 6.46371 204.173 6.95968 204.43 7.48125C205.323 9.26625 205.86 11.5512 205.976 14H208C208.265 14 208.52 14.1054 208.707 14.2929C208.895 14.4804 209 14.7348 209 15C209 15.2652 208.895 15.5196 208.707 15.7071C208.52 15.8946 208.265 16 208 16H206V26H220V16Z" fill="currentColor"/>
<path opacity="0.2" d="M253 15C253 20.5225 250.761 25 248 25C245.239 25 243 20.5225 243 15C243 9.4775 245.239 5 248 5C250.761 5 253 9.4775 253 15Z" fill="currentColor"/>
<path d="M249.5 15C249.5 15.2967 249.412 15.5867 249.247 15.8334C249.082 16.08 248.848 16.2723 248.574 16.3858C248.3 16.4993 247.998 16.5291 247.707 16.4712C247.416 16.4133 247.149 16.2704 246.939 16.0607C246.73 15.8509 246.587 15.5836 246.529 15.2926C246.471 15.0017 246.501 14.7001 246.614 14.426C246.728 14.1519 246.92 13.9176 247.167 13.7528C247.413 13.588 247.703 13.5 248 13.5C248.398 13.5 248.779 13.658 249.061 13.9393C249.342 14.2206 249.5 14.6022 249.5 15ZM270 15V26C270 26.5304 269.789 27.0391 269.414 27.4142C269.039 27.7893 268.53 28 268 28H254C253.47 28 252.961 27.7893 252.586 27.4142C252.211 27.0391 252 26.5304 252 26V23.2938C250.921 25.0463 249.523 26 248 26C246.266 26 244.692 24.7637 243.57 22.5187C242.557 20.5 242 17.8237 242 15C242 12.1763 242.557 9.50625 243.57 7.48125C244.692 5.23625 246.266 4 248 4H264C265.734 4 267.308 5.23625 268.43 7.48125C269.443 9.50625 270 12.1763 270 15ZM252 15C252 9.69625 249.892 6 248 6C246.108 6 244 9.69625 244 15C244 20.3037 246.108 24 248 24C249.892 24 252 20.3037 252 15ZM268 26V16H266C265.735 16 265.48 15.8946 265.293 15.7071C265.105 15.5196 265 15.2652 265 15C265 14.7348 265.105 14.4804 265.293 14.2929C265.48 14.1054 265.735 14 266 14H267.974C267.73 9.2375 265.77 6 264 6H251.515C251.866 6.46371 252.173 6.95968 252.43 7.48125C253.323 9.26625 253.86 11.5512 253.976 14H256C256.265 14 256.52 14.1054 256.707 14.2929C256.895 14.4804 257 14.7348 257 15C257 15.2652 256.895 15.5196 256.707 15.7071C256.52 15.8946 256.265 16 256 16H254V26H268ZM262 14H260C259.735 14 259.48 14.1054 259.293 14.2929C259.105 14.4804 259 14.7348 259 15C259 15.2652 259.105 15.5196 259.293 15.7071C259.48 15.8946 259.735 16 260 16H262C262.265 16 262.52 15.8946 262.707 15.7071C262.895 15.5196 263 15.2652 263 15C263 14.7348 262.895 14.4804 262.707 14.2929C262.52 14.1054 262.265 14 262 14Z" fill="currentColor"/>
</g>
<defs>
<clipPath id="clip0_17_3813">
<rect width="272" height="32" rx="5" fill="white"/>
</clipPath>
</defs>
</svg>
