<svg width="272" height="32" viewBox="0 0 272 32" fill="none" xmlns="http://www.w3.org/2000/svg">
<g clip-path="url(#clip0_17_10499)">
<path d="M28 6H4C3.46957 6 2.96086 6.21071 2.58579 6.58579C2.21071 6.96086 2 7.46957 2 8V11C2 11.5304 2.21071 12.0391 2.58579 12.4142C2.96086 12.7893 3.46957 13 4 13V24C4 24.5304 4.21071 25.0391 4.58579 25.4142C4.96086 25.7893 5.46957 26 6 26H26C26.5304 26 27.0391 25.7893 27.4142 25.4142C27.7893 25.0391 28 24.5304 28 24V13C28.5304 13 29.0391 12.7893 29.4142 12.4142C29.7893 12.0391 30 11.5304 30 11V8C30 7.46957 29.7893 6.96086 29.4142 6.58579C29.0391 6.21071 28.5304 6 28 6ZM26 24H6V13H26V24ZM28 11H4V8H28V11ZM12 17C12 16.7348 12.1054 16.4804 12.2929 16.2929C12.4804 16.1054 12.7348 16 13 16H19C19.2652 16 19.5196 16.1054 19.7071 16.2929C19.8946 16.4804 20 16.7348 20 17C20 17.2652 19.8946 17.5196 19.7071 17.7071C19.5196 17.8946 19.2652 18 19 18H13C12.7348 18 12.4804 17.8946 12.2929 17.7071C12.1054 17.5196 12 17.2652 12 17Z" fill="currentColor"/>
<path d="M76 6.5H52C51.6022 6.5 51.2206 6.65804 50.9393 6.93934C50.658 7.22064 50.5 7.60218 50.5 8V11C50.5 11.3978 50.658 11.7794 50.9393 12.0607C51.2206 12.342 51.6022 12.5 52 12.5H52.5V24C52.5 24.3978 52.658 24.7794 52.9393 25.0607C53.2206 25.342 53.6022 25.5 54 25.5H74C74.3978 25.5 74.7794 25.342 75.0607 25.0607C75.342 24.7794 75.5 24.3978 75.5 24V12.5H76C76.3978 12.5 76.7794 12.342 77.0607 12.0607C77.342 11.7794 77.5 11.3978 77.5 11V8C77.5 7.60218 77.342 7.22064 77.0607 6.93934C76.7794 6.65804 76.3978 6.5 76 6.5ZM74.5 24C74.5 24.1326 74.4473 24.2598 74.3536 24.3536C74.2598 24.4473 74.1326 24.5 74 24.5H54C53.8674 24.5 53.7402 24.4473 53.6464 24.3536C53.5527 24.2598 53.5 24.1326 53.5 24V12.5H74.5V24ZM76.5 11C76.5 11.1326 76.4473 11.2598 76.3536 11.3536C76.2598 11.4473 76.1326 11.5 76 11.5H52C51.8674 11.5 51.7402 11.4473 51.6464 11.3536C51.5527 11.2598 51.5 11.1326 51.5 11V8C51.5 7.86739 51.5527 7.74021 51.6464 7.64645C51.7402 7.55268 51.8674 7.5 52 7.5H76C76.1326 7.5 76.2598 7.55268 76.3536 7.64645C76.4473 7.74021 76.5 7.86739 76.5 8V11ZM60.5 17C60.5 16.8674 60.5527 16.7402 60.6464 16.6464C60.7402 16.5527 60.8674 16.5 61 16.5H67C67.1326 16.5 67.2598 16.5527 67.3536 16.6464C67.4473 16.7402 67.5 16.8674 67.5 17C67.5 17.1326 67.4473 17.2598 67.3536 17.3536C67.2598 17.4473 67.1326 17.5 67 17.5H61C60.8674 17.5 60.7402 17.4473 60.6464 17.3536C60.5527 17.2598 60.5 17.1326 60.5 17Z" fill="currentColor"/>
<path d="M124 6.25H100C99.5359 6.25 99.0908 6.43437 98.7626 6.76256C98.4344 7.09075 98.25 7.53587 98.25 8V11C98.25 11.4641 98.4344 11.9092 98.7626 12.2374C99.0908 12.5656 99.5359 12.75 100 12.75H100.25V24C100.25 24.4641 100.434 24.9092 100.763 25.2374C101.091 25.5656 101.536 25.75 102 25.75H122C122.464 25.75 122.909 25.5656 123.237 25.2374C123.566 24.9092 123.75 24.4641 123.75 24V12.75H124C124.464 12.75 124.909 12.5656 125.237 12.2374C125.566 11.9092 125.75 11.4641 125.75 11V8C125.75 7.53587 125.566 7.09075 125.237 6.76256C124.909 6.43437 124.464 6.25 124 6.25ZM122.25 24C122.25 24.0663 122.224 24.1299 122.177 24.1768C122.13 24.2237 122.066 24.25 122 24.25H102C101.934 24.25 101.87 24.2237 101.823 24.1768C101.776 24.1299 101.75 24.0663 101.75 24V12.75H122.25V24ZM124.25 11C124.25 11.0663 124.224 11.1299 124.177 11.1768C124.13 11.2237 124.066 11.25 124 11.25H100C99.9337 11.25 99.8701 11.2237 99.8232 11.1768C99.7763 11.1299 99.75 11.0663 99.75 11V8C99.75 7.9337 99.7763 7.87011 99.8232 7.82322C99.8701 7.77634 99.9337 7.75 100 7.75H124C124.066 7.75 124.13 7.77634 124.177 7.82322C124.224 7.87011 124.25 7.9337 124.25 8V11ZM108.25 17C108.25 16.8011 108.329 16.6103 108.47 16.4697C108.61 16.329 108.801 16.25 109 16.25H115C115.199 16.25 115.39 16.329 115.53 16.4697C115.671 16.6103 115.75 16.8011 115.75 17C115.75 17.1989 115.671 17.3897 115.53 17.5303C115.39 17.671 115.199 17.75 115 17.75H109C108.801 17.75 108.61 17.671 108.47 17.5303C108.329 17.3897 108.25 17.1989 108.25 17Z" fill="currentColor"/>
<path d="M172 5.5H148C147.337 5.5 146.701 5.76339 146.232 6.23223C145.763 6.70107 145.5 7.33696 145.5 8V11C145.5 11.5763 145.699 12.135 146.063 12.5815C146.428 13.0279 146.935 13.3347 147.5 13.45V24C147.5 24.663 147.763 25.2989 148.232 25.7678C148.701 26.2366 149.337 26.5 150 26.5H170C170.663 26.5 171.299 26.2366 171.768 25.7678C172.237 25.2989 172.5 24.663 172.5 24V13.45C173.065 13.3347 173.572 13.0279 173.937 12.5815C174.301 12.135 174.5 11.5763 174.5 11V8C174.5 7.33696 174.237 6.70107 173.768 6.23223C173.299 5.76339 172.663 5.5 172 5.5ZM148.5 8.5H171.5V10.5H148.5V8.5ZM150.5 23.5V13.5H169.5V23.5H150.5ZM164.5 17C164.5 17.3978 164.342 17.7794 164.061 18.0607C163.779 18.342 163.398 18.5 163 18.5H157C156.602 18.5 156.221 18.342 155.939 18.0607C155.658 17.7794 155.5 17.3978 155.5 17C155.5 16.6022 155.658 16.2206 155.939 15.9393C156.221 15.658 156.602 15.5 157 15.5H163C163.398 15.5 163.779 15.658 164.061 15.9393C164.342 16.2206 164.5 16.6022 164.5 17Z" fill="currentColor"/>
<path d="M220 6H196C195.47 6 194.961 6.21071 194.586 6.58579C194.211 6.96086 194 7.46957 194 8V11C194 11.5304 194.211 12.0391 194.586 12.4142C194.961 12.7893 195.47 13 196 13V24C196 24.5304 196.211 25.0391 196.586 25.4142C196.961 25.7893 197.47 26 198 26H218C218.53 26 219.039 25.7893 219.414 25.4142C219.789 25.0391 220 24.5304 220 24V13C220.53 13 221.039 12.7893 221.414 12.4142C221.789 12.0391 222 11.5304 222 11V8C222 7.46957 221.789 6.96086 221.414 6.58579C221.039 6.21071 220.53 6 220 6ZM211 18H205C204.735 18 204.48 17.8946 204.293 17.7071C204.105 17.5196 204 17.2652 204 17C204 16.7348 204.105 16.4804 204.293 16.2929C204.48 16.1054 204.735 16 205 16H211C211.265 16 211.52 16.1054 211.707 16.2929C211.895 16.4804 212 16.7348 212 17C212 17.2652 211.895 17.5196 211.707 17.7071C211.52 17.8946 211.265 18 211 18ZM220 11H196V8H220V11Z" fill="currentColor"/>
<path opacity="0.2" d="M267 12V24C267 24.2652 266.895 24.5196 266.707 24.7071C266.52 24.8946 266.265 25 266 25H246C245.735 25 245.48 24.8946 245.293 24.7071C245.105 24.5196 245 24.2652 245 24V12H267Z" fill="currentColor"/>
<path d="M268 6H244C243.47 6 242.961 6.21071 242.586 6.58579C242.211 6.96086 242 7.46957 242 8V11C242 11.5304 242.211 12.0391 242.586 12.4142C242.961 12.7893 243.47 13 244 13V24C244 24.5304 244.211 25.0391 244.586 25.4142C244.961 25.7893 245.47 26 246 26H266C266.53 26 267.039 25.7893 267.414 25.4142C267.789 25.0391 268 24.5304 268 24V13C268.53 13 269.039 12.7893 269.414 12.4142C269.789 12.0391 270 11.5304 270 11V8C270 7.46957 269.789 6.96086 269.414 6.58579C269.039 6.21071 268.53 6 268 6ZM266 24H246V13H266V24ZM268 11H244V8H268V11ZM252 17C252 16.7348 252.105 16.4804 252.293 16.2929C252.48 16.1054 252.735 16 253 16H259C259.265 16 259.52 16.1054 259.707 16.2929C259.895 16.4804 260 16.7348 260 17C260 17.2652 259.895 17.5196 259.707 17.7071C259.52 17.8946 259.265 18 259 18H253C252.735 18 252.48 17.8946 252.293 17.7071C252.105 17.5196 252 17.2652 252 17Z" fill="currentColor"/>
</g>
<defs>
<clipPath id="clip0_17_10499">
<rect width="272" height="32" rx="5" fill="white"/>
</clipPath>
</defs>
</svg>
