<svg width="272" height="32" viewBox="0 0 272 32" fill="none" xmlns="http://www.w3.org/2000/svg">
<g clip-path="url(#clip0_17_10443)">
<path d="M27 7H22V6C22 5.20435 21.6839 4.44129 21.1213 3.87868C20.5587 3.31607 19.7956 3 19 3H13C12.2044 3 11.4413 3.31607 10.8787 3.87868C10.3161 4.44129 10 5.20435 10 6V7H5C4.46957 7 3.96086 7.21071 3.58579 7.58579C3.21071 7.96086 3 8.46957 3 9V25C3 25.5304 3.21071 26.0391 3.58579 26.4142C3.96086 26.7893 4.46957 27 5 27H27C27.5304 27 28.0391 26.7893 28.4142 26.4142C28.7893 26.0391 29 25.5304 29 25V9C29 8.46957 28.7893 7.96086 28.4142 7.58579C28.0391 7.21071 27.5304 7 27 7ZM5 14H27V20H5V14ZM12 6C12 5.73478 12.1054 5.48043 12.2929 5.29289C12.4804 5.10536 12.7348 5 13 5H19C19.2652 5 19.5196 5.10536 19.7071 5.29289C19.8946 5.48043 20 5.73478 20 6V7H12V6ZM27 9V12H5V9H27ZM27 25H5V22H27V25Z" fill="currentColor"/>
<path d="M75 7.5H69.5V6C69.5 5.33696 69.2366 4.70107 68.7678 4.23223C68.2989 3.76339 67.663 3.5 67 3.5H61C60.337 3.5 59.7011 3.76339 59.2322 4.23223C58.7634 4.70107 58.5 5.33696 58.5 6V7.5H53C52.6022 7.5 52.2206 7.65804 51.9393 7.93934C51.658 8.22064 51.5 8.60218 51.5 9V25C51.5 25.3978 51.658 25.7794 51.9393 26.0607C52.2206 26.342 52.6022 26.5 53 26.5H75C75.3978 26.5 75.7794 26.342 76.0607 26.0607C76.342 25.7794 76.5 25.3978 76.5 25V9C76.5 8.60218 76.342 8.22064 76.0607 7.93934C75.7794 7.65804 75.3978 7.5 75 7.5ZM52.5 13.5H75.5V20.5H52.5V13.5ZM59.5 6C59.5 5.60218 59.658 5.22064 59.9393 4.93934C60.2206 4.65804 60.6022 4.5 61 4.5H67C67.3978 4.5 67.7794 4.65804 68.0607 4.93934C68.342 5.22064 68.5 5.60218 68.5 6V7.5H59.5V6ZM53 8.5H75C75.1326 8.5 75.2598 8.55268 75.3536 8.64645C75.4473 8.74021 75.5 8.86739 75.5 9V12.5H52.5V9C52.5 8.86739 52.5527 8.74021 52.6464 8.64645C52.7402 8.55268 52.8674 8.5 53 8.5ZM75 25.5H53C52.8674 25.5 52.7402 25.4473 52.6464 25.3536C52.5527 25.2598 52.5 25.1326 52.5 25V21.5H75.5V25C75.5 25.1326 75.4473 25.2598 75.3536 25.3536C75.2598 25.4473 75.1326 25.5 75 25.5Z" fill="currentColor"/>
<path d="M123 7.25H117.75V6C117.75 5.27065 117.46 4.57118 116.945 4.05546C116.429 3.53973 115.729 3.25 115 3.25H109C108.271 3.25 107.571 3.53973 107.055 4.05546C106.54 4.57118 106.25 5.27065 106.25 6V7.25H101C100.536 7.25 100.091 7.43437 99.7626 7.76256C99.4344 8.09075 99.25 8.53587 99.25 9V25C99.25 25.4641 99.4344 25.9092 99.7626 26.2374C100.091 26.5656 100.536 26.75 101 26.75H123C123.464 26.75 123.909 26.5656 124.237 26.2374C124.566 25.9092 124.75 25.4641 124.75 25V9C124.75 8.53587 124.566 8.09075 124.237 7.76256C123.909 7.43437 123.464 7.25 123 7.25ZM100.75 13.75H123.25V20.25H100.75V13.75ZM107.75 6C107.75 5.66848 107.882 5.35054 108.116 5.11612C108.351 4.8817 108.668 4.75 109 4.75H115C115.332 4.75 115.649 4.8817 115.884 5.11612C116.118 5.35054 116.25 5.66848 116.25 6V7.25H107.75V6ZM101 8.75H123C123.066 8.75 123.13 8.77634 123.177 8.82322C123.224 8.87011 123.25 8.9337 123.25 9V12.25H100.75V9C100.75 8.9337 100.776 8.87011 100.823 8.82322C100.87 8.77634 100.934 8.75 101 8.75ZM123 25.25H101C100.934 25.25 100.87 25.2237 100.823 25.1768C100.776 25.1299 100.75 25.0663 100.75 25V21.75H123.25V25C123.25 25.0663 123.224 25.1299 123.177 25.1768C123.13 25.2237 123.066 25.25 123 25.25Z" fill="currentColor"/>
<path d="M171 6.5H166.5V5C166.5 4.07174 166.131 3.1815 165.475 2.52513C164.818 1.86875 163.928 1.5 163 1.5H157C156.072 1.5 155.182 1.86875 154.525 2.52513C153.869 3.1815 153.5 4.07174 153.5 5V6.5H149C148.337 6.5 147.701 6.76339 147.232 7.23223C146.763 7.70107 146.5 8.33696 146.5 9V25C146.5 25.663 146.763 26.2989 147.232 26.7678C147.701 27.2366 148.337 27.5 149 27.5H171C171.663 27.5 172.299 27.2366 172.768 26.7678C173.237 26.2989 173.5 25.663 173.5 25V9C173.5 8.33696 173.237 7.70107 172.768 7.23223C172.299 6.76339 171.663 6.5 171 6.5ZM149.5 14.5H170.5V19.5H149.5V14.5ZM156.5 5C156.5 4.86739 156.553 4.74021 156.646 4.64645C156.74 4.55268 156.867 4.5 157 4.5H163C163.133 4.5 163.26 4.55268 163.354 4.64645C163.447 4.74021 163.5 4.86739 163.5 5V6.5H156.5V5ZM170.5 9.5V11.5H149.5V9.5H170.5ZM149.5 24.5V22.5H170.5V24.5H149.5Z" fill="currentColor"/>
<path d="M195.5 14H220.5C220.633 14 220.76 14.0527 220.854 14.1464C220.947 14.2402 221 14.3674 221 14.5V19.5C221 19.6326 220.947 19.7598 220.854 19.8536C220.76 19.9473 220.633 20 220.5 20H195.5C195.367 20 195.24 19.9473 195.146 19.8536C195.053 19.7598 195 19.6326 195 19.5V14.5C195 14.3674 195.053 14.2402 195.146 14.1464C195.24 14.0527 195.367 14 195.5 14ZM195 25C195 25.5304 195.211 26.0391 195.586 26.4142C195.961 26.7893 196.47 27 197 27H219C219.53 27 220.039 26.7893 220.414 26.4142C220.789 26.0391 221 25.5304 221 25V22.5C221 22.3674 220.947 22.2402 220.854 22.1464C220.76 22.0527 220.633 22 220.5 22H195.5C195.367 22 195.24 22.0527 195.146 22.1464C195.053 22.2402 195 22.3674 195 22.5V25ZM221 9V11.5C221 11.6326 220.947 11.7598 220.854 11.8536C220.76 11.9473 220.633 12 220.5 12H195.5C195.367 12 195.24 11.9473 195.146 11.8536C195.053 11.7598 195 11.6326 195 11.5V9C195 8.46957 195.211 7.96086 195.586 7.58579C195.961 7.21071 196.47 7 197 7H202V6C202 5.20435 202.316 4.44129 202.879 3.87868C203.441 3.31607 204.204 3 205 3H211C211.796 3 212.559 3.31607 213.121 3.87868C213.684 4.44129 214 5.20435 214 6V7H219C219.53 7 220.039 7.21071 220.414 7.58579C220.789 7.96086 221 8.46957 221 9ZM212 6C212 5.73478 211.895 5.48043 211.707 5.29289C211.52 5.10536 211.265 5 211 5H205C204.735 5 204.48 5.10536 204.293 5.29289C204.105 5.48043 204 5.73478 204 6V7H212V6Z" fill="currentColor"/>
<path opacity="0.2" d="M268 9V13H244V9C244 8.73478 244.105 8.48043 244.293 8.29289C244.48 8.10536 244.735 8 245 8H267C267.265 8 267.52 8.10536 267.707 8.29289C267.895 8.48043 268 8.73478 268 9ZM244 25C244 25.2652 244.105 25.5196 244.293 25.7071C244.48 25.8946 244.735 26 245 26H267C267.265 26 267.52 25.8946 267.707 25.7071C267.895 25.5196 268 25.2652 268 25V21H244V25Z" fill="currentColor"/>
<path d="M267 7H262V6C262 5.20435 261.684 4.44129 261.121 3.87868C260.559 3.31607 259.796 3 259 3H253C252.204 3 251.441 3.31607 250.879 3.87868C250.316 4.44129 250 5.20435 250 6V7H245C244.47 7 243.961 7.21071 243.586 7.58579C243.211 7.96086 243 8.46957 243 9V25C243 25.5304 243.211 26.0391 243.586 26.4142C243.961 26.7893 244.47 27 245 27H267C267.53 27 268.039 26.7893 268.414 26.4142C268.789 26.0391 269 25.5304 269 25V9C269 8.46957 268.789 7.96086 268.414 7.58579C268.039 7.21071 267.53 7 267 7ZM245 14H267V20H245V14ZM252 6C252 5.73478 252.105 5.48043 252.293 5.29289C252.48 5.10536 252.735 5 253 5H259C259.265 5 259.52 5.10536 259.707 5.29289C259.895 5.48043 260 5.73478 260 6V7H252V6ZM267 9V12H245V9H267ZM267 25H245V22H267V25Z" fill="currentColor"/>
</g>
<defs>
<clipPath id="clip0_17_10443">
<rect width="272" height="32" rx="5" fill="white"/>
</clipPath>
</defs>
</svg>
