<svg width="272" height="32" viewBox="0 0 272 32" fill="none" xmlns="http://www.w3.org/2000/svg">
<g clip-path="url(#clip0_17_10428)">
<path d="M23 9H5C4.46957 9 3.96086 9.21071 3.58579 9.58579C3.21071 9.96086 3 10.4696 3 11V25C3 25.5304 3.21071 26.0391 3.58579 26.4142C3.96086 26.7893 4.46957 27 5 27H23C23.5304 27 24.0391 26.7893 24.4142 26.4142C24.7893 26.0391 25 25.5304 25 25V11C25 10.4696 24.7893 9.96086 24.4142 9.58579C24.0391 9.21071 23.5304 9 23 9ZM23 25H5V11H23V25ZM29 7V22C29 22.2652 28.8946 22.5196 28.7071 22.7071C28.5196 22.8946 28.2652 23 28 23C27.7348 23 27.4804 22.8946 27.2929 22.7071C27.1054 22.5196 27 22.2652 27 22V7H8C7.73478 7 7.48043 6.89464 7.29289 6.70711C7.10536 6.51957 7 6.26522 7 6C7 5.73478 7.10536 5.48043 7.29289 5.29289C7.48043 5.10536 7.73478 5 8 5H27C27.5304 5 28.0391 5.21071 28.4142 5.58579C28.7893 5.96086 29 6.46957 29 7Z" fill="currentColor"/>
<path d="M71 9.5H53C52.6022 9.5 52.2206 9.65804 51.9393 9.93934C51.658 10.2206 51.5 10.6022 51.5 11V25C51.5 25.3978 51.658 25.7794 51.9393 26.0607C52.2206 26.342 52.6022 26.5 53 26.5H71C71.3978 26.5 71.7794 26.342 72.0607 26.0607C72.342 25.7794 72.5 25.3978 72.5 25V11C72.5 10.6022 72.342 10.2206 72.0607 9.93934C71.7794 9.65804 71.3978 9.5 71 9.5ZM71.5 25C71.5 25.1326 71.4473 25.2598 71.3536 25.3536C71.2598 25.4473 71.1326 25.5 71 25.5H53C52.8674 25.5 52.7402 25.4473 52.6464 25.3536C52.5527 25.2598 52.5 25.1326 52.5 25V11C52.5 10.8674 52.5527 10.7402 52.6464 10.6464C52.7402 10.5527 52.8674 10.5 53 10.5H71C71.1326 10.5 71.2598 10.5527 71.3536 10.6464C71.4473 10.7402 71.5 10.8674 71.5 11V25ZM76.5 7V22C76.5 22.1326 76.4473 22.2598 76.3536 22.3536C76.2598 22.4473 76.1326 22.5 76 22.5C75.8674 22.5 75.7402 22.4473 75.6464 22.3536C75.5527 22.2598 75.5 22.1326 75.5 22V7C75.5 6.86739 75.4473 6.74021 75.3536 6.64645C75.2598 6.55268 75.1326 6.5 75 6.5H56C55.8674 6.5 55.7402 6.44732 55.6464 6.35355C55.5527 6.25979 55.5 6.13261 55.5 6C55.5 5.86739 55.5527 5.74021 55.6464 5.64645C55.7402 5.55268 55.8674 5.5 56 5.5H75C75.3978 5.5 75.7794 5.65804 76.0607 5.93934C76.342 6.22064 76.5 6.60218 76.5 7Z" fill="currentColor"/>
<path d="M119 9.25H101C100.536 9.25 100.091 9.43437 99.7626 9.76256C99.4344 10.0908 99.25 10.5359 99.25 11V25C99.25 25.4641 99.4344 25.9092 99.7626 26.2374C100.091 26.5656 100.536 26.75 101 26.75H119C119.464 26.75 119.909 26.5656 120.237 26.2374C120.566 25.9092 120.75 25.4641 120.75 25V11C120.75 10.5359 120.566 10.0908 120.237 9.76256C119.909 9.43437 119.464 9.25 119 9.25ZM119.25 25C119.25 25.0663 119.224 25.1299 119.177 25.1768C119.13 25.2237 119.066 25.25 119 25.25H101C100.934 25.25 100.87 25.2237 100.823 25.1768C100.776 25.1299 100.75 25.0663 100.75 25V11C100.75 10.9337 100.776 10.8701 100.823 10.8232C100.87 10.7763 100.934 10.75 101 10.75H119C119.066 10.75 119.13 10.7763 119.177 10.8232C119.224 10.8701 119.25 10.9337 119.25 11V25ZM124.75 7V22C124.75 22.1989 124.671 22.3897 124.53 22.5303C124.39 22.671 124.199 22.75 124 22.75C123.801 22.75 123.61 22.671 123.47 22.5303C123.329 22.3897 123.25 22.1989 123.25 22V7C123.25 6.9337 123.224 6.87011 123.177 6.82322C123.13 6.77634 123.066 6.75 123 6.75H104C103.801 6.75 103.61 6.67098 103.47 6.53033C103.329 6.38968 103.25 6.19891 103.25 6C103.25 5.80109 103.329 5.61032 103.47 5.46967C103.61 5.32902 103.801 5.25 104 5.25H123C123.464 5.25 123.909 5.43437 124.237 5.76256C124.566 6.09075 124.75 6.53587 124.75 7Z" fill="currentColor"/>
<path d="M166.5 9H148.5C147.837 9 147.201 9.26339 146.732 9.73223C146.263 10.2011 146 10.837 146 11.5V25.5C146 26.163 146.263 26.7989 146.732 27.2678C147.201 27.7366 147.837 28 148.5 28H166.5C167.163 28 167.799 27.7366 168.268 27.2678C168.737 26.7989 169 26.163 169 25.5V11.5C169 10.837 168.737 10.2011 168.268 9.73223C167.799 9.26339 167.163 9 166.5 9ZM166 25H149V12H166V25ZM174 6.5V22C174 22.3978 173.842 22.7794 173.561 23.0607C173.279 23.342 172.898 23.5 172.5 23.5C172.102 23.5 171.721 23.342 171.439 23.0607C171.158 22.7794 171 22.3978 171 22V7H152C151.602 7 151.221 6.84196 150.939 6.56066C150.658 6.27936 150.5 5.89782 150.5 5.5C150.5 5.10218 150.658 4.72064 150.939 4.43934C151.221 4.15804 151.602 4 152 4H171.5C172.163 4 172.799 4.26339 173.268 4.73223C173.737 5.20107 174 5.83696 174 6.5Z" fill="currentColor"/>
<path d="M215 9H197C195.895 9 195 9.89543 195 11V25C195 26.1046 195.895 27 197 27H215C216.105 27 217 26.1046 217 25V11C217 9.89543 216.105 9 215 9Z" fill="currentColor"/>
<path d="M219 5H200C199.735 5 199.48 5.10536 199.293 5.29289C199.105 5.48043 199 5.73478 199 6C199 6.26522 199.105 6.51957 199.293 6.70711C199.48 6.89464 199.735 7 200 7H219V22C219 22.2652 219.105 22.5196 219.293 22.7071C219.48 22.8946 219.735 23 220 23C220.265 23 220.52 22.8946 220.707 22.7071C220.895 22.5196 221 22.2652 221 22V7C221 6.46957 220.789 5.96086 220.414 5.58579C220.039 5.21071 219.53 5 219 5Z" fill="currentColor"/>
<path opacity="0.2" d="M264 11V25C264 25.2652 263.895 25.5196 263.707 25.7071C263.52 25.8946 263.265 26 263 26H245C244.735 26 244.48 25.8946 244.293 25.7071C244.105 25.5196 244 25.2652 244 25V11C244 10.7348 244.105 10.4804 244.293 10.2929C244.48 10.1054 244.735 10 245 10H263C263.265 10 263.52 10.1054 263.707 10.2929C263.895 10.4804 264 10.7348 264 11Z" fill="currentColor"/>
<path d="M263 9H245C244.47 9 243.961 9.21071 243.586 9.58579C243.211 9.96086 243 10.4696 243 11V25C243 25.5304 243.211 26.0391 243.586 26.4142C243.961 26.7893 244.47 27 245 27H263C263.53 27 264.039 26.7893 264.414 26.4142C264.789 26.0391 265 25.5304 265 25V11C265 10.4696 264.789 9.96086 264.414 9.58579C264.039 9.21071 263.53 9 263 9ZM263 25H245V11H263V25ZM269 7V22C269 22.2652 268.895 22.5196 268.707 22.7071C268.52 22.8946 268.265 23 268 23C267.735 23 267.48 22.8946 267.293 22.7071C267.105 22.5196 267 22.2652 267 22V7H248C247.735 7 247.48 6.89464 247.293 6.70711C247.105 6.51957 247 6.26522 247 6C247 5.73478 247.105 5.48043 247.293 5.29289C247.48 5.10536 247.735 5 248 5H267C267.53 5 268.039 5.21071 268.414 5.58579C268.789 5.96086 269 6.46957 269 7Z" fill="currentColor"/>
</g>
<defs>
<clipPath id="clip0_17_10428">
<rect width="272" height="32" rx="5" fill="white"/>
</clipPath>
</defs>
</svg>
