<svg width="272" height="32" viewBox="0 0 272 32" fill="none" xmlns="http://www.w3.org/2000/svg">
<g clip-path="url(#clip0_17_10372)">
<path d="M23 8H5C4.73478 8 4.48043 8.10536 4.29289 8.29289C4.10536 8.48043 4 8.73478 4 9V27C4 27.2652 4.10536 27.5196 4.29289 27.7071C4.48043 27.8946 4.73478 28 5 28H23C23.2652 28 23.5196 27.8946 23.7071 27.7071C23.8946 27.5196 24 27.2652 24 27V9C24 8.73478 23.8946 8.48043 23.7071 8.29289C23.5196 8.10536 23.2652 8 23 8ZM22 26H6V10H22V26ZM28 5V23C28 23.2652 27.8946 23.5196 27.7071 23.7071C27.5196 23.8946 27.2652 24 27 24C26.7348 24 26.4804 23.8946 26.2929 23.7071C26.1054 23.5196 26 23.2652 26 23V6H9C8.73478 6 8.48043 5.89464 8.29289 5.70711C8.10536 5.51957 8 5.26522 8 5C8 4.73478 8.10536 4.48043 8.29289 4.29289C8.48043 4.10536 8.73478 4 9 4H27C27.2652 4 27.5196 4.10536 27.7071 4.29289C27.8946 4.48043 28 4.73478 28 5Z" fill="currentColor"/>
<path d="M71 8.5H53C52.8674 8.5 52.7402 8.55268 52.6464 8.64645C52.5527 8.74021 52.5 8.86739 52.5 9V27C52.5 27.1326 52.5527 27.2598 52.6464 27.3536C52.7402 27.4473 52.8674 27.5 53 27.5H71C71.1326 27.5 71.2598 27.4473 71.3536 27.3536C71.4473 27.2598 71.5 27.1326 71.5 27V9C71.5 8.86739 71.4473 8.74021 71.3536 8.64645C71.2598 8.55268 71.1326 8.5 71 8.5ZM70.5 26.5H53.5V9.5H70.5V26.5ZM75.5 5V23C75.5 23.1326 75.4473 23.2598 75.3536 23.3536C75.2598 23.4473 75.1326 23.5 75 23.5C74.8674 23.5 74.7402 23.4473 74.6464 23.3536C74.5527 23.2598 74.5 23.1326 74.5 23V5.5H57C56.8674 5.5 56.7402 5.44732 56.6464 5.35355C56.5527 5.25979 56.5 5.13261 56.5 5C56.5 4.86739 56.5527 4.74021 56.6464 4.64645C56.7402 4.55268 56.8674 4.5 57 4.5H75C75.1326 4.5 75.2598 4.55268 75.3536 4.64645C75.4473 4.74021 75.5 4.86739 75.5 5Z" fill="currentColor"/>
<path d="M119 8.25H101C100.801 8.25 100.61 8.32902 100.47 8.46967C100.329 8.61032 100.25 8.80109 100.25 9V27C100.25 27.1989 100.329 27.3897 100.47 27.5303C100.61 27.671 100.801 27.75 101 27.75H119C119.199 27.75 119.39 27.671 119.53 27.5303C119.671 27.3897 119.75 27.1989 119.75 27V9C119.75 8.80109 119.671 8.61032 119.53 8.46967C119.39 8.32902 119.199 8.25 119 8.25ZM118.25 26.25H101.75V9.75H118.25V26.25ZM123.75 5V23C123.75 23.1989 123.671 23.3897 123.53 23.5303C123.39 23.671 123.199 23.75 123 23.75C122.801 23.75 122.61 23.671 122.47 23.5303C122.329 23.3897 122.25 23.1989 122.25 23V5.75H105C104.801 5.75 104.61 5.67098 104.47 5.53033C104.329 5.38968 104.25 5.19891 104.25 5C104.25 4.80109 104.329 4.61032 104.47 4.46967C104.61 4.32902 104.801 4.25 105 4.25H123C123.199 4.25 123.39 4.32902 123.53 4.46967C123.671 4.61032 123.75 4.80109 123.75 5Z" fill="currentColor"/>
<path d="M166.5 8H149C148.602 8 148.221 8.15804 147.939 8.43934C147.658 8.72064 147.5 9.10218 147.5 9.5V27C147.5 27.3978 147.658 27.7794 147.939 28.0607C148.221 28.342 148.602 28.5 149 28.5H166.5C166.898 28.5 167.279 28.342 167.561 28.0607C167.842 27.7794 168 27.3978 168 27V9.5C168 9.10218 167.842 8.72064 167.561 8.43934C167.279 8.15804 166.898 8 166.5 8ZM165 25.5H150.5V11H165V25.5ZM172.5 5V22.5C172.5 22.8978 172.342 23.2794 172.061 23.5607C171.779 23.842 171.398 24 171 24C170.602 24 170.221 23.842 169.939 23.5607C169.658 23.2794 169.5 22.8978 169.5 22.5V6.5H153.5C153.102 6.5 152.721 6.34196 152.439 6.06066C152.158 5.77936 152 5.39782 152 5C152 4.60218 152.158 4.22064 152.439 3.93934C152.721 3.65804 153.102 3.5 153.5 3.5H171C171.398 3.5 171.779 3.65804 172.061 3.93934C172.342 4.22064 172.5 4.60218 172.5 5Z" fill="currentColor"/>
<path d="M216 9V27C216 27.2652 215.895 27.5196 215.707 27.7071C215.52 27.8946 215.265 28 215 28H197C196.735 28 196.48 27.8946 196.293 27.7071C196.105 27.5196 196 27.2652 196 27V9C196 8.73478 196.105 8.48043 196.293 8.29289C196.48 8.10536 196.735 8 197 8H215C215.265 8 215.52 8.10536 215.707 8.29289C215.895 8.48043 216 8.73478 216 9ZM219 4H201C200.735 4 200.48 4.10536 200.293 4.29289C200.105 4.48043 200 4.73478 200 5C200 5.26522 200.105 5.51957 200.293 5.70711C200.48 5.89464 200.735 6 201 6H218V23C218 23.2652 218.105 23.5196 218.293 23.7071C218.48 23.8946 218.735 24 219 24C219.265 24 219.52 23.8946 219.707 23.7071C219.895 23.5196 220 23.2652 220 23V5C220 4.73478 219.895 4.48043 219.707 4.29289C219.52 4.10536 219.265 4 219 4Z" fill="currentColor"/>
<path opacity="0.2" d="M263 9V27H245V9H263Z" fill="currentColor"/>
<path d="M263 8H245C244.735 8 244.48 8.10536 244.293 8.29289C244.105 8.48043 244 8.73478 244 9V27C244 27.2652 244.105 27.5196 244.293 27.7071C244.48 27.8946 244.735 28 245 28H263C263.265 28 263.52 27.8946 263.707 27.7071C263.895 27.5196 264 27.2652 264 27V9C264 8.73478 263.895 8.48043 263.707 8.29289C263.52 8.10536 263.265 8 263 8ZM262 26H246V10H262V26ZM268 5V23C268 23.2652 267.895 23.5196 267.707 23.7071C267.52 23.8946 267.265 24 267 24C266.735 24 266.48 23.8946 266.293 23.7071C266.105 23.5196 266 23.2652 266 23V6H249C248.735 6 248.48 5.89464 248.293 5.70711C248.105 5.51957 248 5.26522 248 5C248 4.73478 248.105 4.48043 248.293 4.29289C248.48 4.10536 248.735 4 249 4H267C267.265 4 267.52 4.10536 267.707 4.29289C267.895 4.48043 268 4.73478 268 5Z" fill="currentColor"/>
</g>
<defs>
<clipPath id="clip0_17_10372">
<rect width="272" height="32" rx="5" fill="white"/>
</clipPath>
</defs>
</svg>
