<svg width="272" height="32" viewBox="0 0 272 32" fill="none" xmlns="http://www.w3.org/2000/svg">
<g clip-path="url(#clip0_17_9924)">
<path d="M10.9425 19.3363L8.44246 26.3363C8.37314 26.5306 8.24542 26.6987 8.0768 26.8176C7.90817 26.9365 7.7069 27.0003 7.50058 27.0003C7.29427 27.0003 7.093 26.9365 6.92437 26.8176C6.75575 26.6987 6.62803 26.5306 6.55871 26.3363L4.05871 19.3363C4.01455 19.2126 3.99519 19.0814 4.00173 18.9502C4.00827 18.819 4.04058 18.6904 4.09681 18.5718C4.15305 18.4531 4.23212 18.3466 4.32949 18.2585C4.42687 18.1704 4.54065 18.1023 4.66433 18.0581C4.78802 18.014 4.9192 17.9946 5.05037 18.0011C5.18154 18.0077 5.31014 18.04 5.42883 18.0962C5.54751 18.1525 5.65396 18.2315 5.74209 18.3289C5.83022 18.4263 5.8983 18.5401 5.94246 18.6637L7.49996 23.0263L9.05871 18.6637C9.14789 18.4139 9.33265 18.2098 9.57234 18.0962C9.81204 17.9827 10.087 17.9689 10.3368 18.0581C10.5866 18.1473 10.7908 18.3321 10.9044 18.5718C11.0179 18.8115 11.0316 19.0864 10.9425 19.3363ZM26 20C26.2652 20 26.5195 19.8946 26.7071 19.7071C26.8946 19.5196 27 19.2652 27 19C27 18.7348 26.8946 18.4804 26.7071 18.2929C26.5195 18.1054 26.2652 18 26 18H22C21.7347 18 21.4804 18.1054 21.2929 18.2929C21.1053 18.4804 21 18.7348 21 19V26C21 26.2652 21.1053 26.5196 21.2929 26.7071C21.4804 26.8946 21.7347 27 22 27H26C26.2652 27 26.5195 26.8946 26.7071 26.7071C26.8946 26.5196 27 26.2652 27 26C27 25.7348 26.8946 25.4804 26.7071 25.2929C26.5195 25.1054 26.2652 25 26 25H23V23.5H25C25.2652 23.5 25.5195 23.3946 25.7071 23.2071C25.8946 23.0196 26 22.7652 26 22.5C26 22.2348 25.8946 21.9804 25.7071 21.7929C25.5195 21.6054 25.2652 21.5 25 21.5H23V20H26ZM18 18C17.7347 18 17.4804 18.1054 17.2929 18.2929C17.1053 18.4804 17 18.7348 17 19V23.75C17 24.0815 16.8683 24.3995 16.6338 24.6339C16.3994 24.8683 16.0815 25 15.75 25C15.4184 25 15.1005 24.8683 14.8661 24.6339C14.6317 24.3995 14.5 24.0815 14.5 23.75V19C14.5 18.7348 14.3946 18.4804 14.2071 18.2929C14.0195 18.1054 13.7652 18 13.5 18C13.2347 18 12.9804 18.1054 12.7929 18.2929C12.6053 18.4804 12.5 18.7348 12.5 19V23.75C12.5 24.612 12.8424 25.4386 13.4519 26.0481C14.0614 26.6576 14.888 27 15.75 27C16.6119 27 17.4386 26.6576 18.0481 26.0481C18.6576 25.4386 19 24.612 19 23.75V19C19 18.7348 18.8946 18.4804 18.7071 18.2929C18.5195 18.1054 18.2652 18 18 18ZM27 11V14C27 14.2652 26.8946 14.5196 26.7071 14.7071C26.5195 14.8946 26.2652 15 26 15C25.7347 15 25.4804 14.8946 25.2929 14.7071C25.1053 14.5196 25 14.2652 25 14V12H19C18.7347 12 18.4804 11.8946 18.2929 11.7071C18.1053 11.5196 18 11.2652 18 11V5H6.99996V14C6.99996 14.2652 6.8946 14.5196 6.70707 14.7071C6.51953 14.8946 6.26518 15 5.99996 15C5.73474 15 5.48039 14.8946 5.29285 14.7071C5.10532 14.5196 4.99996 14.2652 4.99996 14V5C4.99996 4.46957 5.21067 3.96086 5.58575 3.58579C5.96082 3.21071 6.46953 3 6.99996 3H19C19.1313 2.9999 19.2614 3.02568 19.3828 3.07586C19.5042 3.12605 19.6145 3.19967 19.7075 3.2925L26.7075 10.2925C26.8003 10.3854 26.8739 10.4958 26.9241 10.6172C26.9743 10.7385 27.0001 10.8686 27 11ZM23.5862 10L20 6.41375V10H23.5862Z" fill="currentColor"/>
<path d="M58.4713 19.1688L55.9713 26.1688C55.9368 26.2661 55.8729 26.3504 55.7886 26.41C55.7042 26.4696 55.6034 26.5016 55.5001 26.5016C55.3967 26.5016 55.296 26.4696 55.2116 26.41C55.1272 26.3504 55.0633 26.2661 55.0288 26.1688L52.5288 19.1688C52.4841 19.0438 52.4908 18.9061 52.5475 18.7861C52.6042 18.6661 52.7063 18.5735 52.8313 18.5287C52.9563 18.484 53.0939 18.4907 53.214 18.5475C53.334 18.6042 53.4266 18.7063 53.4713 18.8312L55.5001 24.5138L57.5288 18.8312C57.5736 18.7063 57.6661 18.6042 57.7862 18.5475C57.9062 18.4907 58.0438 18.484 58.1688 18.5287C58.2938 18.5735 58.3959 18.6661 58.4526 18.7861C58.5093 18.9061 58.5161 19.0438 58.4713 19.1688ZM74.0001 19.5C74.1327 19.5 74.2598 19.4473 74.3536 19.3536C74.4474 19.2598 74.5001 19.1326 74.5001 19C74.5001 18.8674 74.4474 18.7402 74.3536 18.6464C74.2598 18.5527 74.1327 18.5 74.0001 18.5H70.0001C69.8675 18.5 69.7403 18.5527 69.6465 18.6464C69.5527 18.7402 69.5001 18.8674 69.5001 19V26C69.5001 26.1326 69.5527 26.2598 69.6465 26.3536C69.7403 26.4473 69.8675 26.5 70.0001 26.5H74.0001C74.1327 26.5 74.2598 26.4473 74.3536 26.3536C74.4474 26.2598 74.5001 26.1326 74.5001 26C74.5001 25.8674 74.4474 25.7402 74.3536 25.6464C74.2598 25.5527 74.1327 25.5 74.0001 25.5H70.5001V23H73.0001C73.1327 23 73.2598 22.9473 73.3536 22.8536C73.4474 22.7598 73.5001 22.6326 73.5001 22.5C73.5001 22.3674 73.4474 22.2402 73.3536 22.1464C73.2598 22.0527 73.1327 22 73.0001 22H70.5001V19.5H74.0001ZM66.0001 18.5C65.8675 18.5 65.7403 18.5527 65.6465 18.6464C65.5527 18.7402 65.5001 18.8674 65.5001 19V23.75C65.5001 24.2141 65.3157 24.6592 64.9875 24.9874C64.6593 25.3156 64.2142 25.5 63.7501 25.5C63.2859 25.5 62.8408 25.3156 62.5126 24.9874C62.1844 24.6592 62.0001 24.2141 62.0001 23.75V19C62.0001 18.8674 61.9474 18.7402 61.8536 18.6464C61.7599 18.5527 61.6327 18.5 61.5001 18.5C61.3675 18.5 61.2403 18.5527 61.1465 18.6464C61.0527 18.7402 61.0001 18.8674 61.0001 19V23.75C61.0001 24.4793 61.2898 25.1788 61.8055 25.6945C62.3212 26.2103 63.0207 26.5 63.7501 26.5C64.4794 26.5 65.1789 26.2103 65.6946 25.6945C66.2103 25.1788 66.5001 24.4793 66.5001 23.75V19C66.5001 18.8674 66.4474 18.7402 66.3536 18.6464C66.2599 18.5527 66.1327 18.5 66.0001 18.5ZM74.5001 11V14C74.5001 14.1326 74.4474 14.2598 74.3536 14.3536C74.2598 14.4473 74.1327 14.5 74.0001 14.5C73.8675 14.5 73.7403 14.4473 73.6465 14.3536C73.5527 14.2598 73.5001 14.1326 73.5001 14V11.5H67.0001C66.8675 11.5 66.7403 11.4473 66.6465 11.3536C66.5527 11.2598 66.5001 11.1326 66.5001 11V4.5H55.0001C54.8675 4.5 54.7403 4.55268 54.6465 4.64645C54.5527 4.74022 54.5001 4.86739 54.5001 5V14C54.5001 14.1326 54.4474 14.2598 54.3536 14.3536C54.2598 14.4473 54.1327 14.5 54.0001 14.5C53.8675 14.5 53.7403 14.4473 53.6465 14.3536C53.5527 14.2598 53.5001 14.1326 53.5001 14V5C53.5001 4.60218 53.6581 4.22064 53.9394 3.93934C54.2207 3.65804 54.6022 3.5 55.0001 3.5H67.0001C67.0657 3.49995 67.1308 3.51284 67.1915 3.53793C67.2522 3.56303 67.3073 3.59983 67.3538 3.64625L74.3538 10.6462C74.4002 10.6927 74.437 10.7479 74.4621 10.8086C74.4872 10.8693 74.5001 10.9343 74.5001 11ZM72.7926 10.5L67.5001 5.20625V10.5H72.7926Z" fill="currentColor"/>
<path d="M106.706 19.25L104.206 26.25C104.154 26.3956 104.058 26.5216 103.932 26.6107C103.805 26.6998 103.655 26.7476 103.5 26.7476C103.345 26.7476 103.194 26.6998 103.068 26.6107C102.941 26.5216 102.846 26.3956 102.794 26.25L100.294 19.25C100.255 19.1561 100.237 19.0554 100.238 18.9539C100.24 18.8525 100.263 18.7525 100.304 18.66C100.346 18.5675 100.405 18.4844 100.48 18.4156C100.555 18.3469 100.642 18.294 100.738 18.2602C100.834 18.2263 100.935 18.2122 101.036 18.2187C101.138 18.2252 101.236 18.2522 101.327 18.298C101.417 18.3438 101.498 18.4074 101.563 18.4851C101.628 18.5628 101.677 18.6529 101.706 18.75L103.5 23.77L105.294 18.75C105.366 18.5714 105.505 18.4276 105.681 18.3486C105.857 18.2696 106.057 18.2614 106.239 18.3258C106.42 18.3902 106.57 18.5221 106.658 18.6942C106.745 18.8663 106.762 19.0654 106.706 19.25ZM122 19.75C122.199 19.75 122.39 19.671 122.53 19.5303C122.671 19.3897 122.75 19.1989 122.75 19C122.75 18.8011 122.671 18.6103 122.53 18.4697C122.39 18.329 122.199 18.25 122 18.25H118C117.801 18.25 117.61 18.329 117.47 18.4697C117.329 18.6103 117.25 18.8011 117.25 19V26C117.25 26.1989 117.329 26.3897 117.47 26.5303C117.61 26.671 117.801 26.75 118 26.75H122C122.199 26.75 122.39 26.671 122.53 26.5303C122.671 26.3897 122.75 26.1989 122.75 26C122.75 25.8011 122.671 25.6103 122.53 25.4697C122.39 25.329 122.199 25.25 122 25.25H118.75V23.25H121C121.199 23.25 121.39 23.171 121.53 23.0303C121.671 22.8897 121.75 22.6989 121.75 22.5C121.75 22.3011 121.671 22.1103 121.53 21.9697C121.39 21.829 121.199 21.75 121 21.75H118.75V19.75H122ZM114 18.25C113.801 18.25 113.61 18.329 113.47 18.4697C113.329 18.6103 113.25 18.8011 113.25 19V23.75C113.25 24.1478 113.092 24.5294 112.811 24.8107C112.529 25.092 112.148 25.25 111.75 25.25C111.352 25.25 110.971 25.092 110.689 24.8107C110.408 24.5294 110.25 24.1478 110.25 23.75V19C110.25 18.8011 110.171 18.6103 110.03 18.4697C109.89 18.329 109.699 18.25 109.5 18.25C109.301 18.25 109.11 18.329 108.97 18.4697C108.829 18.6103 108.75 18.8011 108.75 19V23.75C108.75 24.5456 109.066 25.3087 109.629 25.8713C110.191 26.4339 110.954 26.75 111.75 26.75C112.546 26.75 113.309 26.4339 113.871 25.8713C114.434 25.3087 114.75 24.5456 114.75 23.75V19C114.75 18.8011 114.671 18.6103 114.53 18.4697C114.39 18.329 114.199 18.25 114 18.25ZM122.75 11V14C122.75 14.1989 122.671 14.3897 122.53 14.5303C122.39 14.671 122.199 14.75 122 14.75C121.801 14.75 121.61 14.671 121.47 14.5303C121.329 14.3897 121.25 14.1989 121.25 14V11.75H115C114.801 11.75 114.61 11.671 114.47 11.5303C114.329 11.3897 114.25 11.1989 114.25 11V4.75H103C102.934 4.75 102.87 4.77634 102.823 4.82322C102.776 4.87011 102.75 4.9337 102.75 5V14C102.75 14.1989 102.671 14.3897 102.53 14.5303C102.39 14.671 102.199 14.75 102 14.75C101.801 14.75 101.61 14.671 101.47 14.5303C101.329 14.3897 101.25 14.1989 101.25 14V5C101.25 4.53587 101.434 4.09075 101.762 3.76256C102.091 3.43437 102.536 3.25 103 3.25H115C115.099 3.24992 115.196 3.26932 115.287 3.30707C115.379 3.34482 115.461 3.40019 115.531 3.47L122.531 10.47C122.671 10.6107 122.75 10.8013 122.75 11ZM120.19 10.25L115.75 5.81V10.25H120.19Z" fill="currentColor"/>
<path d="M154.912 19.5L152.412 26.5C152.308 26.7913 152.117 27.0432 151.864 27.2214C151.611 27.3996 151.309 27.4952 151 27.4952C150.691 27.4952 150.389 27.3996 150.136 27.2214C149.883 27.0432 149.692 26.7913 149.587 26.5L147.087 19.5C146.976 19.1308 147.011 18.7327 147.185 18.3884C147.359 18.0442 147.659 17.7803 148.023 17.6516C148.386 17.5229 148.786 17.5392 149.138 17.6972C149.489 17.8552 149.767 18.1427 149.912 18.5L151 21.54L152.087 18.5C152.233 18.1427 152.51 17.8552 152.862 17.6972C153.214 17.5392 153.614 17.5229 153.977 17.6516C154.341 17.7803 154.641 18.0442 154.815 18.3884C154.989 18.7327 155.024 19.1308 154.912 19.5ZM170.5 24.5H168V24H169.5C169.898 24 170.279 23.842 170.561 23.5607C170.842 23.2794 171 22.8978 171 22.5C171 22.1022 170.842 21.7206 170.561 21.4393C170.279 21.158 169.898 21 169.5 21H168V20.5H170.5C170.898 20.5 171.279 20.342 171.561 20.0607C171.842 19.7794 172 19.3978 172 19C172 18.6022 171.842 18.2206 171.561 17.9393C171.279 17.658 170.898 17.5 170.5 17.5H166.5C166.102 17.5 165.721 17.658 165.439 17.9393C165.158 18.2206 165 18.6022 165 19V26C165 26.3978 165.158 26.7794 165.439 27.0607C165.721 27.342 166.102 27.5 166.5 27.5H170.5C170.898 27.5 171.279 27.342 171.561 27.0607C171.842 26.7794 172 26.3978 172 26C172 25.6022 171.842 25.2206 171.561 24.9393C171.279 24.658 170.898 24.5 170.5 24.5ZM162 17.5C161.602 17.5 161.221 17.658 160.939 17.9393C160.658 18.2206 160.5 18.6022 160.5 19V23.75C160.5 23.9489 160.421 24.1397 160.28 24.2803C160.14 24.421 159.949 24.5 159.75 24.5C159.551 24.5 159.36 24.421 159.22 24.2803C159.079 24.1397 159 23.9489 159 23.75V19C159 18.6022 158.842 18.2206 158.561 17.9393C158.279 17.658 157.898 17.5 157.5 17.5C157.102 17.5 156.721 17.658 156.439 17.9393C156.158 18.2206 156 18.6022 156 19V23.75C156 24.7446 156.395 25.6984 157.098 26.4017C157.802 27.1049 158.755 27.5 159.75 27.5C160.745 27.5 161.698 27.1049 162.402 26.4017C163.105 25.6984 163.5 24.7446 163.5 23.75V19C163.5 18.6022 163.342 18.2206 163.061 17.9393C162.779 17.658 162.398 17.5 162 17.5ZM148.5 13.5V5C148.5 4.33696 148.763 3.70107 149.232 3.23223C149.701 2.76339 150.337 2.5 151 2.5H163C163.197 2.50001 163.392 2.53887 163.574 2.61437C163.756 2.68987 163.922 2.80052 164.061 2.94L171.061 9.94C171.342 10.2212 171.5 10.6025 171.5 11V13.5C171.5 13.8978 171.342 14.2794 171.061 14.5607C170.779 14.842 170.398 15 170 15C169.602 15 169.221 14.842 168.939 14.5607C168.658 14.2794 168.5 13.8978 168.5 13.5V13H162.5C162.102 13 161.721 12.842 161.439 12.5607C161.158 12.2794 161 11.8978 161 11.5V5.5H151.5V13.5C151.5 13.8978 151.342 14.2794 151.061 14.5607C150.779 14.842 150.398 15 150 15C149.602 15 149.221 14.842 148.939 14.5607C148.658 14.2794 148.5 13.8978 148.5 13.5ZM164 10H166.875L164 7.125V10Z" fill="currentColor"/>
<path d="M218.707 10.2925L211.707 3.2925C211.615 3.19967 211.504 3.12605 211.383 3.07586C211.261 3.02568 211.131 2.9999 211 3H199C198.47 3 197.961 3.21071 197.586 3.58579C197.211 3.96086 197 4.46957 197 5V14C197 14.2652 197.105 14.5196 197.293 14.7071C197.48 14.8946 197.735 15 198 15H218C218.265 15 218.52 14.8946 218.707 14.7071C218.895 14.5196 219 14.2652 219 14V11C219 10.8686 218.974 10.7385 218.924 10.6172C218.874 10.4958 218.8 10.3854 218.707 10.2925ZM211 11V5.5L216.5 11H211ZM202.942 19.3363L200.442 26.3363C200.373 26.5306 200.245 26.6987 200.077 26.8176C199.908 26.9365 199.707 27.0003 199.501 27.0003C199.294 27.0003 199.093 26.9365 198.924 26.8176C198.756 26.6987 198.628 26.5306 198.559 26.3363L196.059 19.3363C196.015 19.2126 195.995 19.0814 196.002 18.9502C196.008 18.819 196.041 18.6904 196.097 18.5718C196.153 18.4531 196.232 18.3466 196.329 18.2585C196.427 18.1704 196.541 18.1023 196.664 18.0581C196.788 18.014 196.919 17.9946 197.05 18.0011C197.182 18.0077 197.31 18.04 197.429 18.0962C197.548 18.1525 197.654 18.2315 197.742 18.3289C197.83 18.4263 197.898 18.5401 197.942 18.6637L199.5 23.0263L201.059 18.6637C201.148 18.4139 201.333 18.2098 201.572 18.0962C201.812 17.9827 202.087 17.9689 202.337 18.0581C202.587 18.1473 202.791 18.3321 202.904 18.5718C203.018 18.8115 203.032 19.0864 202.942 19.3363ZM215 20V21.5H217C217.265 21.5 217.52 21.6054 217.707 21.7929C217.895 21.9804 218 22.2348 218 22.5C218 22.7652 217.895 23.0196 217.707 23.2071C217.52 23.3946 217.265 23.5 217 23.5H215V25H218C218.265 25 218.52 25.1054 218.707 25.2929C218.895 25.4804 219 25.7348 219 26C219 26.2652 218.895 26.5196 218.707 26.7071C218.52 26.8946 218.265 27 218 27H214C213.735 27 213.48 26.8946 213.293 26.7071C213.105 26.5196 213 26.2652 213 26V19C213 18.7348 213.105 18.4804 213.293 18.2929C213.48 18.1054 213.735 18 214 18H218C218.265 18 218.52 18.1054 218.707 18.2929C218.895 18.4804 219 18.7348 219 19C219 19.2652 218.895 19.5196 218.707 19.7071C218.52 19.8946 218.265 20 218 20H215ZM211 19V23.75C211 24.612 210.658 25.4386 210.048 26.0481C209.439 26.6576 208.612 27 207.75 27C206.888 27 206.061 26.6576 205.452 26.0481C204.842 25.4386 204.5 24.612 204.5 23.75V19C204.5 18.7348 204.605 18.4804 204.793 18.2929C204.98 18.1054 205.235 18 205.5 18C205.765 18 206.02 18.1054 206.207 18.2929C206.395 18.4804 206.5 18.7348 206.5 19V23.75C206.5 24.0815 206.632 24.3995 206.866 24.6339C207.1 24.8683 207.418 25 207.75 25C208.081 25 208.399 24.8683 208.634 24.6339C208.868 24.3995 209 24.0815 209 23.75V19C209 18.7348 209.105 18.4804 209.293 18.2929C209.48 18.1054 209.735 18 210 18C210.265 18 210.52 18.1054 210.707 18.2929C210.895 18.4804 211 18.7348 211 19Z" fill="currentColor"/>
<path opacity="0.2" d="M266 11H259V4L266 11Z" fill="currentColor"/>
<path d="M250.942 19.3363L248.442 26.3363C248.373 26.5306 248.245 26.6987 248.077 26.8176C247.908 26.9365 247.707 27.0003 247.501 27.0003C247.294 27.0003 247.093 26.9365 246.924 26.8176C246.756 26.6987 246.628 26.5306 246.559 26.3363L244.059 19.3363C244.015 19.2126 243.995 19.0814 244.002 18.9502C244.008 18.819 244.041 18.6904 244.097 18.5718C244.153 18.4531 244.232 18.3466 244.329 18.2585C244.427 18.1704 244.541 18.1023 244.664 18.0581C244.788 18.014 244.919 17.9946 245.05 18.0011C245.182 18.0077 245.31 18.04 245.429 18.0962C245.548 18.1525 245.654 18.2315 245.742 18.3289C245.83 18.4263 245.898 18.5401 245.942 18.6637L247.5 23.0263L249.059 18.6637C249.148 18.4139 249.333 18.2098 249.572 18.0962C249.812 17.9827 250.087 17.9689 250.337 18.0581C250.587 18.1473 250.791 18.3321 250.904 18.5718C251.018 18.8115 251.032 19.0864 250.942 19.3363ZM266 20C266.265 20 266.52 19.8946 266.707 19.7071C266.895 19.5196 267 19.2652 267 19C267 18.7348 266.895 18.4804 266.707 18.2929C266.52 18.1054 266.265 18 266 18H262C261.735 18 261.48 18.1054 261.293 18.2929C261.105 18.4804 261 18.7348 261 19V26C261 26.2652 261.105 26.5196 261.293 26.7071C261.48 26.8946 261.735 27 262 27H266C266.265 27 266.52 26.8946 266.707 26.7071C266.895 26.5196 267 26.2652 267 26C267 25.7348 266.895 25.4804 266.707 25.2929C266.52 25.1054 266.265 25 266 25H263V23.5H265C265.265 23.5 265.52 23.3946 265.707 23.2071C265.895 23.0196 266 22.7652 266 22.5C266 22.2348 265.895 21.9804 265.707 21.7929C265.52 21.6054 265.265 21.5 265 21.5H263V20H266ZM258 18C257.735 18 257.48 18.1054 257.293 18.2929C257.105 18.4804 257 18.7348 257 19V23.75C257 24.0815 256.868 24.3995 256.634 24.6339C256.399 24.8683 256.081 25 255.75 25C255.418 25 255.1 24.8683 254.866 24.6339C254.632 24.3995 254.5 24.0815 254.5 23.75V19C254.5 18.7348 254.395 18.4804 254.207 18.2929C254.02 18.1054 253.765 18 253.5 18C253.235 18 252.98 18.1054 252.793 18.2929C252.605 18.4804 252.5 18.7348 252.5 19V23.75C252.5 24.612 252.842 25.4386 253.452 26.0481C254.061 26.6576 254.888 27 255.75 27C256.612 27 257.439 26.6576 258.048 26.0481C258.658 25.4386 259 24.612 259 23.75V19C259 18.7348 258.895 18.4804 258.707 18.2929C258.52 18.1054 258.265 18 258 18ZM267 11V14C267 14.2652 266.895 14.5196 266.707 14.7071C266.52 14.8946 266.265 15 266 15C265.735 15 265.48 14.8946 265.293 14.7071C265.105 14.5196 265 14.2652 265 14V12H259C258.735 12 258.48 11.8946 258.293 11.7071C258.105 11.5196 258 11.2652 258 11V5H247V14C247 14.2652 246.895 14.5196 246.707 14.7071C246.52 14.8946 246.265 15 246 15C245.735 15 245.48 14.8946 245.293 14.7071C245.105 14.5196 245 14.2652 245 14V5C245 4.46957 245.211 3.96086 245.586 3.58579C245.961 3.21071 246.47 3 247 3H259C259.131 2.9999 259.261 3.02568 259.383 3.07586C259.504 3.12605 259.615 3.19967 259.707 3.2925L266.707 10.2925C266.8 10.3854 266.874 10.4958 266.924 10.6172C266.974 10.7385 267 10.8686 267 11ZM263.586 10L260 6.41375V10H263.586Z" fill="currentColor"/>
</g>
<defs>
<clipPath id="clip0_17_9924">
<rect width="272" height="32" rx="5" fill="white"/>
</clipPath>
</defs>
</svg>
