<svg width="272" height="32" viewBox="0 0 272 32" fill="none" xmlns="http://www.w3.org/2000/svg">
<g clip-path="url(#clip0_17_10148)">
<path d="M26.7075 10.2925L19.7075 3.2925C19.6146 3.19967 19.5042 3.12605 19.3829 3.07586C19.2615 3.02568 19.1314 2.9999 19 3H7C6.46957 3 5.96086 3.21071 5.58579 3.58579C5.21071 3.96086 5 4.46957 5 5V14C5 14.2652 5.10536 14.5196 5.29289 14.7071C5.48043 14.8946 5.73478 15 6 15C6.26522 15 6.51957 14.8946 6.70711 14.7071C6.89464 14.5196 7 14.2652 7 14V5H18V11C18 11.2652 18.1054 11.5196 18.2929 11.7071C18.4804 11.8946 18.7348 12 19 12H25V27H22C21.7348 27 21.4804 27.1054 21.2929 27.2929C21.1054 27.4804 21 27.7348 21 28C21 28.2652 21.1054 28.5196 21.2929 28.7071C21.4804 28.8946 21.7348 29 22 29H25C25.5304 29 26.0391 28.7893 26.4142 28.4142C26.7893 28.0391 27 27.5304 27 27V11C27.0001 10.8686 26.9743 10.7385 26.9241 10.6172C26.8739 10.4958 26.8003 10.3854 26.7075 10.2925ZM20 6.41375L23.5863 10H20V6.41375ZM18.4762 24.5387C18.4373 24.9212 18.314 25.2903 18.1154 25.6195C17.9168 25.9487 17.6477 26.2297 17.3275 26.4425C16.6787 26.875 15.875 27 15.1412 27C14.5004 26.9963 13.8625 26.9124 13.2425 26.75C12.9871 26.6786 12.7705 26.5086 12.6404 26.2774C12.5103 26.0463 12.4773 25.7729 12.5487 25.5175C12.6202 25.2621 12.7902 25.0455 13.0213 24.9154C13.2525 24.7853 13.5258 24.7523 13.7812 24.8237C14.3287 24.9737 15.6562 25.1612 16.225 24.7787C16.335 24.705 16.4538 24.5888 16.4925 24.2875C16.535 23.9538 16.4038 23.775 14.895 23.3388C13.7263 23.0013 11.77 22.435 12.02 20.45C12.059 20.0751 12.18 19.7133 12.3744 19.3904C12.5688 19.0674 12.8319 18.7912 13.145 18.5812C14.625 17.5812 16.9838 18.1675 17.2488 18.2362C17.5053 18.3037 17.7246 18.4703 17.8584 18.6995C17.9921 18.9286 18.0293 19.2015 17.9619 19.4581C17.8944 19.7147 17.7278 19.934 17.4986 20.0677C17.2695 20.2015 16.9966 20.2387 16.74 20.1712C16.1788 20.025 14.8362 19.8512 14.2612 20.2412C14.1859 20.2921 14.1238 20.3603 14.0803 20.4401C14.0368 20.52 14.0131 20.6091 14.0112 20.7C13.9962 20.8125 13.9937 20.8363 14.15 20.9375C14.4387 21.1238 14.9563 21.2725 15.4563 21.4175C16.6863 21.7712 18.7562 22.375 18.4762 24.5387ZM10 19V23.75C10 24.612 9.65759 25.4386 9.0481 26.0481C8.4386 26.6576 7.61195 27 6.75 27C5.88805 27 5.0614 26.6576 4.4519 26.0481C3.84241 25.4386 3.5 24.612 3.5 23.75C3.5 23.4848 3.60536 23.2304 3.79289 23.0429C3.98043 22.8554 4.23478 22.75 4.5 22.75C4.76522 22.75 5.01957 22.8554 5.20711 23.0429C5.39464 23.2304 5.5 23.4848 5.5 23.75C5.5 24.0815 5.6317 24.3995 5.86612 24.6339C6.10054 24.8683 6.41848 25 6.75 25C7.08152 25 7.39946 24.8683 7.63388 24.6339C7.8683 24.3995 8 24.0815 8 23.75V19C8 18.7348 8.10536 18.4804 8.29289 18.2929C8.48043 18.1054 8.73478 18 9 18C9.26522 18 9.51957 18.1054 9.70711 18.2929C9.89464 18.4804 10 18.7348 10 19Z" fill="currentColor"/>
<path d="M74.3538 10.6462L67.3538 3.64625C67.3073 3.59983 67.2521 3.56303 67.1914 3.53793C67.1307 3.51284 67.0657 3.49995 67 3.5H55C54.6022 3.5 54.2206 3.65804 53.9393 3.93934C53.658 4.22064 53.5 4.60218 53.5 5V14C53.5 14.1326 53.5527 14.2598 53.6464 14.3536C53.7402 14.4473 53.8674 14.5 54 14.5C54.1326 14.5 54.2598 14.4473 54.3536 14.3536C54.4473 14.2598 54.5 14.1326 54.5 14V5C54.5 4.86739 54.5527 4.74022 54.6464 4.64645C54.7402 4.55268 54.8674 4.5 55 4.5H66.5V11C66.5 11.1326 66.5527 11.2598 66.6464 11.3536C66.7402 11.4473 66.8674 11.5 67 11.5H73.5V27C73.5 27.1326 73.4473 27.2598 73.3536 27.3536C73.2598 27.4473 73.1326 27.5 73 27.5H70C69.8674 27.5 69.7402 27.5527 69.6464 27.6464C69.5527 27.7402 69.5 27.8674 69.5 28C69.5 28.1326 69.5527 28.2598 69.6464 28.3536C69.7402 28.4473 69.8674 28.5 70 28.5H73C73.3978 28.5 73.7794 28.342 74.0607 28.0607C74.342 27.7794 74.5 27.3978 74.5 27V11C74.5001 10.9343 74.4872 10.8693 74.4621 10.8086C74.437 10.7479 74.4002 10.6927 74.3538 10.6462ZM67.5 5.20625L72.7925 10.5H67.5V5.20625ZM65.98 24.475C65.9488 24.786 65.8494 25.0862 65.6888 25.3543C65.5283 25.6225 65.3106 25.8519 65.0513 26.0263C64.5025 26.39 63.8013 26.4975 63.1488 26.4975C62.5501 26.4933 61.9543 26.4147 61.375 26.2638C61.2517 26.2244 61.1485 26.1387 61.0871 26.0248C61.0257 25.9109 61.0108 25.7776 61.0456 25.653C61.0804 25.5284 61.1622 25.4221 61.2737 25.3565C61.3853 25.2909 61.5179 25.2711 61.6438 25.3013C62.1713 25.4475 63.7137 25.7125 64.4975 25.1912C64.6374 25.0967 64.7541 24.9716 64.8388 24.8255C64.9234 24.6794 64.9738 24.5159 64.9862 24.3475C65.09 23.5413 64.4388 23.2612 63.0312 22.855C61.8212 22.505 60.3162 22.07 60.5138 20.5088C60.544 20.2054 60.6405 19.9123 60.7965 19.6503C60.9524 19.3883 61.164 19.1638 61.4163 18.9925C61.9862 18.6088 62.7913 18.4475 63.8038 18.515C64.2454 18.5441 64.6837 18.6115 65.1138 18.7162C65.242 18.7502 65.3516 18.8338 65.4183 18.9485C65.485 19.0633 65.5034 19.1998 65.4694 19.3281C65.4354 19.4564 65.3518 19.566 65.2371 19.6327C65.1223 19.6994 64.9858 19.7177 64.8575 19.6838C64.3212 19.5425 62.7563 19.2937 61.975 19.8225C61.8401 19.913 61.7277 20.0331 61.6465 20.1737C61.5652 20.3144 61.5173 20.4717 61.5063 20.6338C61.4237 21.28 61.9925 21.5087 63.3088 21.8937C64.5325 22.25 66.205 22.73 65.98 24.475ZM57.5 19V23.75C57.5 24.4793 57.2103 25.1788 56.6945 25.6945C56.1788 26.2103 55.4793 26.5 54.75 26.5C54.0207 26.5 53.3212 26.2103 52.8055 25.6945C52.2897 25.1788 52 24.4793 52 23.75C52 23.6174 52.0527 23.4902 52.1464 23.3964C52.2402 23.3027 52.3674 23.25 52.5 23.25C52.6326 23.25 52.7598 23.3027 52.8536 23.3964C52.9473 23.4902 53 23.6174 53 23.75C53 24.2141 53.1844 24.6592 53.5126 24.9874C53.8408 25.3156 54.2859 25.5 54.75 25.5C55.2141 25.5 55.6592 25.3156 55.9874 24.9874C56.3156 24.6592 56.5 24.2141 56.5 23.75V19C56.5 18.8674 56.5527 18.7402 56.6464 18.6464C56.7402 18.5527 56.8674 18.5 57 18.5C57.1326 18.5 57.2598 18.5527 57.3536 18.6464C57.4473 18.7402 57.5 18.8674 57.5 19Z" fill="currentColor"/>
<path d="M122.53 10.47L115.53 3.47C115.389 3.32931 115.199 3.25018 115 3.25H103C102.536 3.25 102.091 3.43437 101.763 3.76256C101.434 4.09075 101.25 4.53587 101.25 5V14C101.25 14.1989 101.329 14.3897 101.47 14.5303C101.61 14.671 101.801 14.75 102 14.75C102.199 14.75 102.39 14.671 102.53 14.5303C102.671 14.3897 102.75 14.1989 102.75 14V5C102.75 4.9337 102.776 4.87011 102.823 4.82322C102.87 4.77634 102.934 4.75 103 4.75H114.25V11C114.25 11.1989 114.329 11.3897 114.47 11.5303C114.61 11.671 114.801 11.75 115 11.75H121.25V27C121.25 27.0663 121.224 27.1299 121.177 27.1768C121.13 27.2237 121.066 27.25 121 27.25H118C117.801 27.25 117.61 27.329 117.47 27.4697C117.329 27.6103 117.25 27.8011 117.25 28C117.25 28.1989 117.329 28.3897 117.47 28.5303C117.61 28.671 117.801 28.75 118 28.75H121C121.464 28.75 121.909 28.5656 122.237 28.2374C122.566 27.9092 122.75 27.4641 122.75 27V11C122.75 10.8012 122.671 10.6105 122.53 10.47ZM115.75 5.81L120.19 10.25H115.75V5.81ZM114.229 24.5075C114.194 24.854 114.082 25.1885 113.903 25.487C113.723 25.7854 113.48 26.0404 113.19 26.2337C112.588 26.6325 111.831 26.7512 111.145 26.7512C110.525 26.7455 109.909 26.6615 109.31 26.5012C109.215 26.4747 109.126 26.4298 109.049 26.369C108.971 26.3082 108.907 26.2327 108.858 26.1469C108.761 25.9735 108.736 25.7685 108.789 25.5769C108.843 25.3853 108.97 25.2228 109.144 25.1251C109.317 25.0275 109.522 25.0027 109.714 25.0562C110.177 25.1812 111.661 25.445 112.362 24.9788C112.473 24.9042 112.564 24.8051 112.629 24.6892C112.694 24.5734 112.731 24.444 112.737 24.3113C112.81 23.7575 112.477 23.5287 110.962 23.0912C109.799 22.755 108.041 22.2475 108.266 20.4737C108.3 20.1349 108.409 19.8077 108.583 19.5152C108.758 19.2228 108.994 18.9722 109.276 18.7812C110.665 17.845 112.924 18.4063 113.177 18.4713C113.366 18.5256 113.525 18.6514 113.622 18.8218C113.719 18.9922 113.745 19.1937 113.695 19.3831C113.645 19.5726 113.523 19.7349 113.355 19.8355C113.186 19.9361 112.986 19.9668 112.795 19.9212C112.323 19.7962 110.814 19.5463 110.114 20.0263C110.009 20.0973 109.922 20.1916 109.86 20.3017C109.797 20.4118 109.761 20.5349 109.754 20.6612C109.702 21.0637 110.021 21.2587 111.379 21.65C112.615 22.0112 114.48 22.55 114.229 24.5075ZM105.75 19V23.75C105.75 24.5456 105.434 25.3087 104.871 25.8713C104.309 26.4339 103.546 26.75 102.75 26.75C101.954 26.75 101.191 26.4339 100.629 25.8713C100.066 25.3087 99.75 24.5456 99.75 23.75C99.75 23.5511 99.829 23.3603 99.9697 23.2197C100.11 23.079 100.301 23 100.5 23C100.699 23 100.89 23.079 101.03 23.2197C101.171 23.3603 101.25 23.5511 101.25 23.75C101.25 24.1478 101.408 24.5294 101.689 24.8107C101.971 25.092 102.352 25.25 102.75 25.25C103.148 25.25 103.529 25.092 103.811 24.8107C104.092 24.5294 104.25 24.1478 104.25 23.75V19C104.25 18.8011 104.329 18.6103 104.47 18.4697C104.61 18.329 104.801 18.25 105 18.25C105.199 18.25 105.39 18.329 105.53 18.4697C105.671 18.6103 105.75 18.8011 105.75 19Z" fill="currentColor"/>
<path d="M171.061 9.93875L164.061 2.93875C163.922 2.7995 163.756 2.68908 163.574 2.6138C163.392 2.53851 163.197 2.49985 163 2.5H151C150.337 2.5 149.701 2.76339 149.232 3.23223C148.763 3.70107 148.5 4.33696 148.5 5V13.5C148.5 13.8978 148.658 14.2794 148.939 14.5607C149.221 14.842 149.602 15 150 15C150.398 15 150.779 14.842 151.061 14.5607C151.342 14.2794 151.5 13.8978 151.5 13.5V5.5H161V11.5C161 11.8978 161.158 12.2794 161.439 12.5607C161.721 12.842 162.102 13 162.5 13H168.5V26.5H166.5C166.102 26.5 165.721 26.658 165.439 26.9393C165.158 27.2206 165 27.6022 165 28C165 28.3978 165.158 28.7794 165.439 29.0607C165.721 29.342 166.102 29.5 166.5 29.5H169C169.663 29.5 170.299 29.2366 170.768 28.7678C171.237 28.2989 171.5 27.663 171.5 27V11C171.5 10.803 171.461 10.6078 171.386 10.4257C171.311 10.2436 171.201 10.0782 171.061 9.93875ZM164 7.125L166.875 10H164V7.125ZM163.472 24.6063C163.425 25.0602 163.278 25.498 163.041 25.8883C162.804 26.2786 162.484 26.6117 162.104 26.8638C161.354 27.3638 160.445 27.5075 159.637 27.5075C158.952 27.503 158.27 27.4102 157.609 27.2313C157.226 27.1242 156.901 26.8692 156.705 26.5225C156.51 26.1758 156.46 25.7657 156.568 25.3825C156.675 24.9993 156.93 24.6743 157.276 24.479C157.623 24.2837 158.033 24.2342 158.416 24.3412C159.267 24.5737 160.291 24.5425 160.465 24.3487C160.478 24.3206 160.487 24.2907 160.491 24.26C160.249 24.1063 159.638 23.93 159.256 23.82C158.583 23.625 157.881 23.4225 157.288 23.0362C156.335 22.4212 155.886 21.48 156.024 20.3862C156.07 19.9411 156.214 19.5117 156.445 19.1283C156.676 18.7449 156.988 18.4169 157.36 18.1675C158.117 17.6562 159.131 17.4375 160.372 17.52C160.879 17.552 161.382 17.629 161.875 17.75C162.255 17.855 162.579 18.1056 162.776 18.4477C162.973 18.7897 163.027 19.1956 162.927 19.5772C162.826 19.9589 162.58 20.2857 162.24 20.4868C161.901 20.6878 161.495 20.7469 161.112 20.6513C160.317 20.4475 159.41 20.4625 159.104 20.61C159.427 20.7351 159.757 20.8432 160.093 20.9338C160.778 21.1313 161.552 21.355 162.192 21.7862C163.166 22.4437 163.625 23.4438 163.472 24.6025V24.6063ZM154.5 19V23.75C154.5 24.7446 154.105 25.6984 153.402 26.4016C152.698 27.1049 151.745 27.5 150.75 27.5C149.755 27.5 148.802 27.1049 148.098 26.4016C147.395 25.6984 147 24.7446 147 23.75C147 23.3522 147.158 22.9706 147.439 22.6893C147.721 22.408 148.102 22.25 148.5 22.25C148.898 22.25 149.279 22.408 149.561 22.6893C149.842 22.9706 150 23.3522 150 23.75C150 23.9489 150.079 24.1397 150.22 24.2803C150.36 24.421 150.551 24.5 150.75 24.5C150.949 24.5 151.14 24.421 151.28 24.2803C151.421 24.1397 151.5 23.9489 151.5 23.75V19C151.5 18.6022 151.658 18.2206 151.939 17.9393C152.221 17.658 152.602 17.5 153 17.5C153.398 17.5 153.779 17.658 154.061 17.9393C154.342 18.2206 154.5 18.6022 154.5 19Z" fill="currentColor"/>
<path d="M218.708 10.2925L211.708 3.2925C211.615 3.19967 211.504 3.12605 211.383 3.07586C211.261 3.02568 211.131 2.9999 211 3H199C198.47 3 197.961 3.21071 197.586 3.58579C197.211 3.96086 197 4.46957 197 5V14C197 14.2652 197.105 14.5196 197.293 14.7071C197.48 14.8946 197.735 15 198 15H212C212.265 15 212.52 15.1054 212.707 15.2929C212.895 15.4804 213 15.7348 213 16V28C213 28.2652 213.105 28.5196 213.293 28.7071C213.48 28.8946 213.735 29 214 29H217C217.53 29 218.039 28.7893 218.414 28.4142C218.789 28.0391 219 27.5304 219 27V11C219 10.8686 218.974 10.7385 218.924 10.6172C218.874 10.4958 218.8 10.3854 218.708 10.2925ZM211 11V5.5L216.5 11H211ZM210.476 24.5387C210.437 24.9212 210.314 25.2903 210.115 25.6195C209.917 25.9487 209.648 26.2297 209.327 26.4425C208.679 26.875 207.875 27 207.141 27C206.503 26.996 205.868 26.912 205.25 26.75C205.122 26.716 205.002 26.657 204.897 26.5763C204.792 26.4957 204.704 26.395 204.638 26.28C204.573 26.1651 204.53 26.0383 204.514 25.9069C204.498 25.7755 204.508 25.6422 204.543 25.5147C204.579 25.3871 204.639 25.2679 204.721 25.164C204.803 25.0601 204.905 24.9734 205.021 24.9092C205.137 24.8449 205.264 24.8043 205.396 24.7896C205.527 24.7749 205.66 24.7865 205.788 24.8237C206.335 24.9737 207.663 25.1612 208.231 24.7787C208.341 24.705 208.46 24.5888 208.499 24.2875C208.543 23.9538 208.41 23.775 206.901 23.3388C205.733 23.0013 203.776 22.435 204.026 20.45C204.065 20.0751 204.186 19.7133 204.381 19.3904C204.575 19.0674 204.838 18.7912 205.151 18.5812C206.631 17.5812 208.99 18.1675 209.255 18.2362C209.512 18.3037 209.731 18.4703 209.865 18.6995C209.998 18.9286 210.036 19.2015 209.968 19.4581C209.901 19.7147 209.734 19.934 209.505 20.0677C209.276 20.2015 209.003 20.2387 208.746 20.1712C208.185 20.025 206.842 19.8512 206.267 20.2412C206.192 20.2921 206.13 20.3603 206.087 20.4401C206.043 20.52 206.019 20.6091 206.017 20.7C206.002 20.8125 206 20.8363 206.156 20.9375C206.445 21.1238 206.962 21.2725 207.462 21.4175C208.686 21.7712 210.756 22.375 210.476 24.5387ZM202 19V23.75C202 24.612 201.658 25.4386 201.048 26.0481C200.439 26.6576 199.612 27 198.75 27C197.888 27 197.061 26.6576 196.452 26.0481C195.842 25.4386 195.5 24.612 195.5 23.75C195.5 23.4848 195.605 23.2304 195.793 23.0429C195.98 22.8554 196.235 22.75 196.5 22.75C196.765 22.75 197.02 22.8554 197.207 23.0429C197.395 23.2304 197.5 23.4848 197.5 23.75C197.5 24.0815 197.632 24.3995 197.866 24.6339C198.101 24.8683 198.418 25 198.75 25C199.082 25 199.399 24.8683 199.634 24.6339C199.868 24.3995 200 24.0815 200 23.75V19C200 18.7348 200.105 18.4804 200.293 18.2929C200.48 18.1054 200.735 18 201 18C201.265 18 201.52 18.1054 201.707 18.2929C201.895 18.4804 202 18.7348 202 19Z" fill="currentColor"/>
<path opacity="0.2" d="M266 11H259V4L266 11Z" fill="currentColor"/>
<path d="M266.708 10.2925L259.708 3.2925C259.615 3.19967 259.504 3.12605 259.383 3.07586C259.261 3.02568 259.131 2.9999 259 3H247C246.47 3 245.961 3.21071 245.586 3.58579C245.211 3.96086 245 4.46957 245 5V14C245 14.2652 245.105 14.5196 245.293 14.7071C245.48 14.8946 245.735 15 246 15C246.265 15 246.52 14.8946 246.707 14.7071C246.895 14.5196 247 14.2652 247 14V5H258V11C258 11.2652 258.105 11.5196 258.293 11.7071C258.48 11.8946 258.735 12 259 12H265V27H262C261.735 27 261.48 27.1054 261.293 27.2929C261.105 27.4804 261 27.7348 261 28C261 28.2652 261.105 28.5196 261.293 28.7071C261.48 28.8946 261.735 29 262 29H265C265.53 29 266.039 28.7893 266.414 28.4142C266.789 28.0391 267 27.5304 267 27V11C267 10.8686 266.974 10.7385 266.924 10.6172C266.874 10.4958 266.8 10.3854 266.708 10.2925ZM260 6.41375L263.586 10H260V6.41375ZM258.476 24.5387C258.437 24.9212 258.314 25.2903 258.115 25.6195C257.917 25.9487 257.648 26.2297 257.327 26.4425C256.679 26.875 255.875 27 255.141 27C254.503 26.996 253.868 26.912 253.25 26.75C253.122 26.716 253.002 26.657 252.897 26.5763C252.792 26.4957 252.704 26.395 252.638 26.28C252.573 26.1651 252.53 26.0383 252.514 25.9069C252.498 25.7755 252.508 25.6422 252.543 25.5147C252.579 25.3871 252.639 25.2679 252.721 25.164C252.803 25.0601 252.905 24.9734 253.021 24.9092C253.137 24.8449 253.264 24.8043 253.396 24.7896C253.527 24.7749 253.66 24.7865 253.788 24.8237C254.335 24.9737 255.663 25.1612 256.231 24.7787C256.341 24.705 256.46 24.5888 256.499 24.2875C256.543 23.9538 256.41 23.775 254.901 23.3388C253.733 23.0013 251.776 22.435 252.026 20.45C252.065 20.0751 252.186 19.7133 252.381 19.3904C252.575 19.0674 252.838 18.7912 253.151 18.5812C254.631 17.5812 256.99 18.1675 257.255 18.2362C257.512 18.3037 257.731 18.4703 257.865 18.6995C257.998 18.9286 258.036 19.2015 257.968 19.4581C257.901 19.7147 257.734 19.934 257.505 20.0677C257.276 20.2015 257.003 20.2387 256.746 20.1712C256.185 20.025 254.842 19.8512 254.267 20.2412C254.192 20.2921 254.13 20.3603 254.087 20.4401C254.043 20.52 254.019 20.6091 254.017 20.7C254.002 20.8125 254 20.8363 254.156 20.9375C254.445 21.1238 254.962 21.2725 255.462 21.4175C256.686 21.7712 258.756 22.375 258.476 24.5387ZM250 19V23.75C250 24.612 249.658 25.4386 249.048 26.0481C248.439 26.6576 247.612 27 246.75 27C245.888 27 245.061 26.6576 244.452 26.0481C243.842 25.4386 243.5 24.612 243.5 23.75C243.5 23.4848 243.605 23.2304 243.793 23.0429C243.98 22.8554 244.235 22.75 244.5 22.75C244.765 22.75 245.02 22.8554 245.207 23.0429C245.395 23.2304 245.5 23.4848 245.5 23.75C245.5 24.0815 245.632 24.3995 245.866 24.6339C246.101 24.8683 246.418 25 246.75 25C247.082 25 247.399 24.8683 247.634 24.6339C247.868 24.3995 248 24.0815 248 23.75V19C248 18.7348 248.105 18.4804 248.293 18.2929C248.48 18.1054 248.735 18 249 18C249.265 18 249.52 18.1054 249.707 18.2929C249.895 18.4804 250 18.7348 250 19Z" fill="currentColor"/>
</g>
<defs>
<clipPath id="clip0_17_10148">
<rect width="272" height="32" rx="5" fill="white"/>
</clipPath>
</defs>
</svg>
