<svg width="272" height="32" viewBox="0 0 272 32" fill="none" xmlns="http://www.w3.org/2000/svg">
<g clip-path="url(#clip0_17_10330)">
<path d="M26.7075 10.2925L19.7075 3.2925C19.6146 3.19967 19.5042 3.12605 19.3829 3.07586C19.2615 3.02568 19.1314 2.9999 19 3H7C6.46957 3 5.96086 3.21071 5.58579 3.58579C5.21071 3.96086 5 4.46957 5 5V27C5 27.5304 5.21071 28.0391 5.58579 28.4142C5.96086 28.7893 6.46957 29 7 29H25C25.5304 29 26.0391 28.7893 26.4142 28.4142C26.7893 28.0391 27 27.5304 27 27V11C27.0001 10.8686 26.9743 10.7385 26.9241 10.6172C26.8739 10.4958 26.8003 10.3854 26.7075 10.2925ZM20 6.41375L23.5863 10H20V6.41375ZM25 27H14V25H15C15.2652 25 15.5196 24.8946 15.7071 24.7071C15.8946 24.5196 16 24.2652 16 24C16 23.7348 15.8946 23.4804 15.7071 23.2929C15.5196 23.1054 15.2652 23 15 23H14V21H15C15.2652 21 15.5196 20.8946 15.7071 20.7071C15.8946 20.5196 16 20.2652 16 20C16 19.7348 15.8946 19.4804 15.7071 19.2929C15.5196 19.1054 15.2652 19 15 19H14V17H15C15.2652 17 15.5196 16.8946 15.7071 16.7071C15.8946 16.5196 16 16.2652 16 16C16 15.7348 15.8946 15.4804 15.7071 15.2929C15.5196 15.1054 15.2652 15 15 15H14V14C14 13.7348 13.8946 13.4804 13.7071 13.2929C13.5196 13.1054 13.2652 13 13 13C12.7348 13 12.4804 13.1054 12.2929 13.2929C12.1054 13.4804 12 13.7348 12 14V15H11C10.7348 15 10.4804 15.1054 10.2929 15.2929C10.1054 15.4804 10 15.7348 10 16C10 16.2652 10.1054 16.5196 10.2929 16.7071C10.4804 16.8946 10.7348 17 11 17H12V19H11C10.7348 19 10.4804 19.1054 10.2929 19.2929C10.1054 19.4804 10 19.7348 10 20C10 20.2652 10.1054 20.5196 10.2929 20.7071C10.4804 20.8946 10.7348 21 11 21H12V23H11C10.7348 23 10.4804 23.1054 10.2929 23.2929C10.1054 23.4804 10 23.7348 10 24C10 24.2652 10.1054 24.5196 10.2929 24.7071C10.4804 24.8946 10.7348 25 11 25H12V27H7V5H18V11C18 11.2652 18.1054 11.5196 18.2929 11.7071C18.4804 11.8946 18.7348 12 19 12H25V27Z" fill="currentColor"/>
<path d="M74.3538 10.6462L67.3538 3.64625C67.3073 3.59983 67.2521 3.56303 67.1914 3.53793C67.1307 3.51284 67.0657 3.49995 67 3.5H55C54.6022 3.5 54.2206 3.65804 53.9393 3.93934C53.658 4.22064 53.5 4.60218 53.5 5V27C53.5 27.3978 53.658 27.7794 53.9393 28.0607C54.2206 28.342 54.6022 28.5 55 28.5H73C73.3978 28.5 73.7794 28.342 74.0607 28.0607C74.342 27.7794 74.5 27.3978 74.5 27V11C74.5001 10.9343 74.4872 10.8693 74.4621 10.8086C74.437 10.7479 74.4002 10.6927 74.3538 10.6462ZM67.5 5.20625L72.7925 10.5H67.5V5.20625ZM73 27.5H61.5V24.5H63C63.1326 24.5 63.2598 24.4473 63.3536 24.3536C63.4473 24.2598 63.5 24.1326 63.5 24C63.5 23.8674 63.4473 23.7402 63.3536 23.6464C63.2598 23.5527 63.1326 23.5 63 23.5H61.5V20.5H63C63.1326 20.5 63.2598 20.4473 63.3536 20.3536C63.4473 20.2598 63.5 20.1326 63.5 20C63.5 19.8674 63.4473 19.7402 63.3536 19.6464C63.2598 19.5527 63.1326 19.5 63 19.5H61.5V16.5H63C63.1326 16.5 63.2598 16.4473 63.3536 16.3536C63.4473 16.2598 63.5 16.1326 63.5 16C63.5 15.8674 63.4473 15.7402 63.3536 15.6464C63.2598 15.5527 63.1326 15.5 63 15.5H61.5V14C61.5 13.8674 61.4473 13.7402 61.3536 13.6464C61.2598 13.5527 61.1326 13.5 61 13.5C60.8674 13.5 60.7402 13.5527 60.6464 13.6464C60.5527 13.7402 60.5 13.8674 60.5 14V15.5H59C58.8674 15.5 58.7402 15.5527 58.6464 15.6464C58.5527 15.7402 58.5 15.8674 58.5 16C58.5 16.1326 58.5527 16.2598 58.6464 16.3536C58.7402 16.4473 58.8674 16.5 59 16.5H60.5V19.5H59C58.8674 19.5 58.7402 19.5527 58.6464 19.6464C58.5527 19.7402 58.5 19.8674 58.5 20C58.5 20.1326 58.5527 20.2598 58.6464 20.3536C58.7402 20.4473 58.8674 20.5 59 20.5H60.5V23.5H59C58.8674 23.5 58.7402 23.5527 58.6464 23.6464C58.5527 23.7402 58.5 23.8674 58.5 24C58.5 24.1326 58.5527 24.2598 58.6464 24.3536C58.7402 24.4473 58.8674 24.5 59 24.5H60.5V27.5H55C54.8674 27.5 54.7402 27.4473 54.6464 27.3536C54.5527 27.2598 54.5 27.1326 54.5 27V5C54.5 4.86739 54.5527 4.74022 54.6464 4.64645C54.7402 4.55268 54.8674 4.5 55 4.5H66.5V11C66.5 11.1326 66.5527 11.2598 66.6464 11.3536C66.7402 11.4473 66.8674 11.5 67 11.5H73.5V27C73.5 27.1326 73.4473 27.2598 73.3536 27.3536C73.2598 27.4473 73.1326 27.5 73 27.5Z" fill="currentColor"/>
<path d="M122.53 10.47L115.53 3.47C115.389 3.32931 115.199 3.25018 115 3.25H103C102.536 3.25 102.091 3.43437 101.763 3.76256C101.434 4.09075 101.25 4.53587 101.25 5V27C101.25 27.4641 101.434 27.9092 101.763 28.2374C102.091 28.5656 102.536 28.75 103 28.75H121C121.464 28.75 121.909 28.5656 122.237 28.2374C122.566 27.9092 122.75 27.4641 122.75 27V11C122.75 10.8012 122.671 10.6105 122.53 10.47ZM115.75 5.81L120.19 10.25H115.75V5.81ZM121 27.25H109.75V24.75H111C111.199 24.75 111.39 24.671 111.53 24.5303C111.671 24.3897 111.75 24.1989 111.75 24C111.75 23.8011 111.671 23.6103 111.53 23.4697C111.39 23.329 111.199 23.25 111 23.25H109.75V20.75H111C111.199 20.75 111.39 20.671 111.53 20.5303C111.671 20.3897 111.75 20.1989 111.75 20C111.75 19.8011 111.671 19.6103 111.53 19.4697C111.39 19.329 111.199 19.25 111 19.25H109.75V16.75H111C111.199 16.75 111.39 16.671 111.53 16.5303C111.671 16.3897 111.75 16.1989 111.75 16C111.75 15.8011 111.671 15.6103 111.53 15.4697C111.39 15.329 111.199 15.25 111 15.25H109.75V14C109.75 13.8011 109.671 13.6103 109.53 13.4697C109.39 13.329 109.199 13.25 109 13.25C108.801 13.25 108.61 13.329 108.47 13.4697C108.329 13.6103 108.25 13.8011 108.25 14V15.25H107C106.801 15.25 106.61 15.329 106.47 15.4697C106.329 15.6103 106.25 15.8011 106.25 16C106.25 16.1989 106.329 16.3897 106.47 16.5303C106.61 16.671 106.801 16.75 107 16.75H108.25V19.25H107C106.801 19.25 106.61 19.329 106.47 19.4697C106.329 19.6103 106.25 19.8011 106.25 20C106.25 20.1989 106.329 20.3897 106.47 20.5303C106.61 20.671 106.801 20.75 107 20.75H108.25V23.25H107C106.801 23.25 106.61 23.329 106.47 23.4697C106.329 23.6103 106.25 23.8011 106.25 24C106.25 24.1989 106.329 24.3897 106.47 24.5303C106.61 24.671 106.801 24.75 107 24.75H108.25V27.25H103C102.934 27.25 102.87 27.2237 102.823 27.1768C102.776 27.1299 102.75 27.0663 102.75 27V5C102.75 4.9337 102.776 4.87011 102.823 4.82322C102.87 4.77634 102.934 4.75 103 4.75H114.25V11C114.25 11.1989 114.329 11.3897 114.47 11.5303C114.61 11.671 114.801 11.75 115 11.75H121.25V27C121.25 27.0663 121.224 27.1299 121.177 27.1768C121.13 27.2237 121.066 27.25 121 27.25Z" fill="currentColor"/>
<path d="M171.061 9.93875L164.061 2.93875C163.922 2.7995 163.756 2.68908 163.574 2.6138C163.392 2.53851 163.197 2.49985 163 2.5H151C150.337 2.5 149.701 2.76339 149.232 3.23223C148.763 3.70107 148.5 4.33696 148.5 5V27C148.5 27.663 148.763 28.2989 149.232 28.7678C149.701 29.2366 150.337 29.5 151 29.5H169C169.663 29.5 170.299 29.2366 170.768 28.7678C171.237 28.2989 171.5 27.663 171.5 27V11C171.5 10.803 171.461 10.6078 171.386 10.4257C171.311 10.2436 171.201 10.0782 171.061 9.93875ZM166.875 10H164V7.125L166.875 10ZM158.5 26.5V24H159C159.398 24 159.779 23.842 160.061 23.5607C160.342 23.2794 160.5 22.8978 160.5 22.5C160.5 22.1022 160.342 21.7206 160.061 21.4393C159.779 21.158 159.398 21 159 21H158.5V19H159C159.398 19 159.779 18.842 160.061 18.5607C160.342 18.2794 160.5 17.8978 160.5 17.5C160.5 17.1022 160.342 16.7206 160.061 16.4393C159.779 16.158 159.398 16 159 16H158.5V14.5C158.5 14.1022 158.342 13.7206 158.061 13.4393C157.779 13.158 157.398 13 157 13C156.602 13 156.221 13.158 155.939 13.4393C155.658 13.7206 155.5 14.1022 155.5 14.5V16H155C154.602 16 154.221 16.158 153.939 16.4393C153.658 16.7206 153.5 17.1022 153.5 17.5C153.5 17.8978 153.658 18.2794 153.939 18.5607C154.221 18.842 154.602 19 155 19H155.5V21H155C154.602 21 154.221 21.158 153.939 21.4393C153.658 21.7206 153.5 22.1022 153.5 22.5C153.5 22.8978 153.658 23.2794 153.939 23.5607C154.221 23.842 154.602 24 155 24H155.5V26.5H151.5V5.5H161V11.5C161 11.8978 161.158 12.2794 161.439 12.5607C161.721 12.842 162.102 13 162.5 13H168.5V26.5H158.5Z" fill="currentColor"/>
<path d="M218.708 10.2925L211.708 3.2925C211.615 3.19967 211.504 3.12605 211.383 3.07586C211.261 3.02568 211.131 2.9999 211 3H199C198.47 3 197.961 3.21071 197.586 3.58579C197.211 3.96086 197 4.46957 197 5V27C197 27.5304 197.211 28.0391 197.586 28.4142C197.961 28.7893 198.47 29 199 29H203.5C203.633 29 203.76 28.9473 203.854 28.8536C203.947 28.7598 204 28.6326 204 28.5V26H203.034C202.775 26.0041 202.525 25.91 202.333 25.7367C202.141 25.5634 202.022 25.3238 202 25.0662C201.991 24.9295 202.01 24.7923 202.056 24.6632C202.102 24.5341 202.175 24.4159 202.268 24.3159C202.362 24.2159 202.476 24.1363 202.601 24.0819C202.727 24.0276 202.863 23.9997 203 24H204V22H203.034C202.775 22.0041 202.525 21.91 202.333 21.7367C202.141 21.5634 202.022 21.3238 202 21.0662C201.991 20.9295 202.01 20.7923 202.056 20.6632C202.102 20.5341 202.175 20.4159 202.268 20.3159C202.362 20.2159 202.476 20.1363 202.601 20.0819C202.727 20.0276 202.863 19.9997 203 20H204V18H203.034C202.775 18.0041 202.525 17.91 202.333 17.7367C202.141 17.5634 202.022 17.3238 202 17.0662C201.991 16.9295 202.01 16.7923 202.056 16.6632C202.102 16.5341 202.175 16.4159 202.268 16.3159C202.362 16.2159 202.476 16.1363 202.601 16.0819C202.727 16.0276 202.863 15.9997 203 16H204V15.0337C203.997 14.7758 204.091 14.5261 204.264 14.3349C204.438 14.1436 204.677 14.0249 204.934 14.0025C205.071 13.9934 205.208 14.0126 205.337 14.0587C205.466 14.1049 205.584 14.1771 205.684 14.2709C205.784 14.3647 205.864 14.478 205.918 14.6039C205.972 14.7297 206 14.8654 206 15.0025V16.0025H206.966C207.224 15.999 207.474 16.0934 207.665 16.2666C207.857 16.4399 207.975 16.6791 207.998 16.9363C208.007 17.073 207.987 17.2102 207.941 17.3393C207.895 17.4684 207.823 17.5866 207.729 17.6866C207.635 17.7866 207.522 17.8662 207.396 17.9206C207.27 17.9749 207.135 18.0028 206.998 18.0025H205.998V20.0025H206.964C207.222 19.999 207.472 20.0934 207.663 20.2666C207.854 20.4399 207.973 20.6791 207.995 20.9363C208.004 21.073 207.985 21.2102 207.939 21.3393C207.893 21.4684 207.82 21.5866 207.727 21.6866C207.633 21.7866 207.519 21.8662 207.394 21.9206C207.268 21.9749 207.132 22.0028 206.995 22.0025H205.995V24.0025H206.961C207.219 23.999 207.469 24.0934 207.66 24.2666C207.852 24.4399 207.97 24.6791 207.993 24.9363C208.002 25.073 207.982 25.2102 207.936 25.3393C207.89 25.4684 207.818 25.5866 207.724 25.6866C207.63 25.7866 207.517 25.8662 207.391 25.9206C207.265 25.9749 207.13 26.0028 206.993 26.0025H205.993V28.5025C205.993 28.6351 206.045 28.7623 206.139 28.8561C206.233 28.9498 206.36 29.0025 206.493 29.0025H216.993C217.523 29.0025 218.032 28.7918 218.407 28.4167C218.782 28.0416 218.993 27.5329 218.993 27.0025V11C218.995 10.7358 218.892 10.4814 218.708 10.2925ZM211 11V5.5L216.5 11H211Z" fill="currentColor"/>
<path opacity="0.2" d="M266 11H259V4L266 11Z" fill="currentColor"/>
<path d="M266.708 10.2925L259.708 3.2925C259.615 3.19967 259.504 3.12605 259.383 3.07586C259.261 3.02568 259.131 2.9999 259 3H247C246.47 3 245.961 3.21071 245.586 3.58579C245.211 3.96086 245 4.46957 245 5V27C245 27.5304 245.211 28.0391 245.586 28.4142C245.961 28.7893 246.47 29 247 29H265C265.53 29 266.039 28.7893 266.414 28.4142C266.789 28.0391 267 27.5304 267 27V11C267 10.8686 266.974 10.7385 266.924 10.6172C266.874 10.4958 266.8 10.3854 266.708 10.2925ZM260 6.41375L263.586 10H260V6.41375ZM265 27H254V25H255C255.265 25 255.52 24.8946 255.707 24.7071C255.895 24.5196 256 24.2652 256 24C256 23.7348 255.895 23.4804 255.707 23.2929C255.52 23.1054 255.265 23 255 23H254V21H255C255.265 21 255.52 20.8946 255.707 20.7071C255.895 20.5196 256 20.2652 256 20C256 19.7348 255.895 19.4804 255.707 19.2929C255.52 19.1054 255.265 19 255 19H254V17H255C255.265 17 255.52 16.8946 255.707 16.7071C255.895 16.5196 256 16.2652 256 16C256 15.7348 255.895 15.4804 255.707 15.2929C255.52 15.1054 255.265 15 255 15H254V14C254 13.7348 253.895 13.4804 253.707 13.2929C253.52 13.1054 253.265 13 253 13C252.735 13 252.48 13.1054 252.293 13.2929C252.105 13.4804 252 13.7348 252 14V15H251C250.735 15 250.48 15.1054 250.293 15.2929C250.105 15.4804 250 15.7348 250 16C250 16.2652 250.105 16.5196 250.293 16.7071C250.48 16.8946 250.735 17 251 17H252V19H251C250.735 19 250.48 19.1054 250.293 19.2929C250.105 19.4804 250 19.7348 250 20C250 20.2652 250.105 20.5196 250.293 20.7071C250.48 20.8946 250.735 21 251 21H252V23H251C250.735 23 250.48 23.1054 250.293 23.2929C250.105 23.4804 250 23.7348 250 24C250 24.2652 250.105 24.5196 250.293 24.7071C250.48 24.8946 250.735 25 251 25H252V27H247V5H258V11C258 11.2652 258.105 11.5196 258.293 11.7071C258.48 11.8946 258.735 12 259 12H265V27Z" fill="currentColor"/>
</g>
<defs>
<clipPath id="clip0_17_10330">
<rect width="272" height="32" rx="5" fill="white"/>
</clipPath>
</defs>
</svg>
