<svg width="272" height="32" viewBox="0 0 272 32" fill="none" xmlns="http://www.w3.org/2000/svg">
<g clip-path="url(#clip0_17_10288)">
<path d="M12.3825 16.0763C12.1998 16.0005 11.9987 15.9805 11.8047 16.019C11.6107 16.0575 11.4324 16.1527 11.2925 16.2925L8.58625 19H6C5.73478 19 5.48043 19.1054 5.29289 19.2929C5.10536 19.4804 5 19.7348 5 20V25C5 25.2652 5.10536 25.5196 5.29289 25.7071C5.48043 25.8946 5.73478 26 6 26H8.58625L11.2925 28.7075C11.4324 28.8475 11.6106 28.9429 11.8047 28.9815C11.9988 29.0202 12.2 29.0004 12.3828 28.9246C12.5656 28.8489 12.7218 28.7206 12.8317 28.556C12.9416 28.3914 13.0002 28.1979 13 28V17C13 16.8022 12.9413 16.6089 12.8314 16.4445C12.7214 16.28 12.5652 16.1519 12.3825 16.0763ZM11 25.5863L9.7075 24.2925C9.61456 24.1997 9.50424 24.1261 9.38285 24.0759C9.26145 24.0257 9.13136 23.9999 9 24H7V21H9C9.13136 21.0001 9.26145 20.9743 9.38285 20.9241C9.50424 20.8739 9.61456 20.8003 9.7075 20.7075L11 19.4137V25.5863ZM19 22.5C18.999 23.382 18.7678 24.2485 18.3294 25.0138C17.8909 25.7791 17.2604 26.4168 16.5 26.8638C16.2723 26.9771 16.01 26.9995 15.7664 26.9262C15.5228 26.853 15.3163 26.6897 15.1888 26.4696C15.0614 26.2494 15.0227 25.989 15.0805 25.7413C15.1383 25.4936 15.2883 25.2772 15.5 25.1362C15.9585 24.8656 16.3384 24.4802 16.6024 24.0178C16.8663 23.5555 17.0052 23.0324 17.0052 22.5C17.0052 21.9676 16.8663 21.4445 16.6024 20.9822C16.3384 20.5198 15.9585 20.1344 15.5 19.8638C15.2883 19.7228 15.1383 19.5064 15.0805 19.2587C15.0227 19.011 15.0614 18.7506 15.1888 18.5304C15.3163 18.3103 15.5228 18.147 15.7664 18.0738C16.01 18.0005 16.2723 18.0229 16.5 18.1362C17.2604 18.5832 17.8909 19.2209 18.3294 19.9862C18.7678 20.7515 18.999 21.618 19 22.5ZM26.7075 10.2925L19.7075 3.2925C19.6146 3.19967 19.5042 3.12605 19.3829 3.07586C19.2615 3.02568 19.1314 2.9999 19 3H7C6.46957 3 5.96086 3.21071 5.58579 3.58579C5.21071 3.96086 5 4.46957 5 5V15C5 15.2652 5.10536 15.5196 5.29289 15.7071C5.48043 15.8946 5.73478 16 6 16C6.26522 16 6.51957 15.8946 6.70711 15.7071C6.89464 15.5196 7 15.2652 7 15V5H18V11C18 11.2652 18.1054 11.5196 18.2929 11.7071C18.4804 11.8946 18.7348 12 19 12H25V27H21C20.7348 27 20.4804 27.1054 20.2929 27.2929C20.1054 27.4804 20 27.7348 20 28C20 28.2652 20.1054 28.5196 20.2929 28.7071C20.4804 28.8946 20.7348 29 21 29H25C25.5304 29 26.0391 28.7893 26.4142 28.4142C26.7893 28.0391 27 27.5304 27 27V11C27.0001 10.8686 26.9743 10.7385 26.9241 10.6172C26.8739 10.4958 26.8003 10.3854 26.7075 10.2925ZM20 6.41375L23.5863 10H20V6.41375Z" fill="currentColor"/>
<path d="M60.1912 16.5375C60.0998 16.4997 59.9993 16.4898 59.9022 16.5092C59.8052 16.5285 59.7161 16.5762 59.6462 16.6462L56.7925 19.5H54C53.8674 19.5 53.7402 19.5527 53.6464 19.6464C53.5527 19.7402 53.5 19.8674 53.5 20V25C53.5 25.1326 53.5527 25.2598 53.6464 25.3536C53.7402 25.4473 53.8674 25.5 54 25.5H56.7925L59.6462 28.3538C59.7162 28.4238 59.8053 28.4714 59.9023 28.4908C59.9994 28.5101 60.1 28.5002 60.1914 28.4623C60.2828 28.4244 60.3609 28.3603 60.4159 28.278C60.4708 28.1957 60.5001 28.0989 60.5 28V17C60.5001 16.901 60.4708 16.8042 60.4159 16.7219C60.3609 16.6395 60.2827 16.5754 60.1912 16.5375ZM59.5 26.7875L57.3538 24.6462C57.3073 24.5998 57.2521 24.563 57.1914 24.5379C57.1307 24.5128 57.0657 24.4999 57 24.5H54.5V20.5H57C57.0657 20.5001 57.1307 20.4872 57.1914 20.4621C57.2521 20.437 57.3073 20.4002 57.3538 20.3538L59.5 18.2075V26.7875ZM66.5 22.5C66.4994 23.2944 66.2916 24.0749 65.897 24.7644C65.5024 25.4538 64.9347 26.0284 64.25 26.4312C64.1365 26.4857 64.0067 26.4953 63.8864 26.4582C63.7662 26.4211 63.6643 26.3401 63.6012 26.2312C63.5381 26.1223 63.5183 25.9936 63.5459 25.8708C63.5735 25.7481 63.6464 25.6402 63.75 25.5688C64.2839 25.2539 64.7264 24.8053 65.0339 24.2671C65.3413 23.7289 65.503 23.1198 65.503 22.5C65.503 21.8802 65.3413 21.2711 65.0339 20.7329C64.7264 20.1947 64.2839 19.7461 63.75 19.4312C63.6464 19.3598 63.5735 19.252 63.5459 19.1292C63.5183 19.0064 63.5381 18.8777 63.6012 18.7688C63.6643 18.6599 63.7662 18.5789 63.8864 18.5418C64.0067 18.5047 64.1365 18.5143 64.25 18.5688C64.9347 18.9716 65.5024 19.5462 65.897 20.2356C66.2916 20.9251 66.4994 21.7056 66.5 22.5ZM74.3538 10.6462L67.3538 3.64625C67.3073 3.59983 67.2521 3.56303 67.1914 3.53793C67.1307 3.51284 67.0657 3.49995 67 3.5H55C54.6022 3.5 54.2206 3.65804 53.9393 3.93934C53.658 4.22064 53.5 4.60218 53.5 5V15C53.5 15.1326 53.5527 15.2598 53.6464 15.3536C53.7402 15.4473 53.8674 15.5 54 15.5C54.1326 15.5 54.2598 15.4473 54.3536 15.3536C54.4473 15.2598 54.5 15.1326 54.5 15V5C54.5 4.86739 54.5527 4.74022 54.6464 4.64645C54.7402 4.55268 54.8674 4.5 55 4.5H66.5V11C66.5 11.1326 66.5527 11.2598 66.6464 11.3536C66.7402 11.4473 66.8674 11.5 67 11.5H73.5V27C73.5 27.1326 73.4473 27.2598 73.3536 27.3536C73.2598 27.4473 73.1326 27.5 73 27.5H69C68.8674 27.5 68.7402 27.5527 68.6464 27.6464C68.5527 27.7402 68.5 27.8674 68.5 28C68.5 28.1326 68.5527 28.2598 68.6464 28.3536C68.7402 28.4473 68.8674 28.5 69 28.5H73C73.3978 28.5 73.7794 28.342 74.0607 28.0607C74.342 27.7794 74.5 27.3978 74.5 27V11C74.5001 10.9343 74.4872 10.8693 74.4621 10.8086C74.437 10.7479 74.4002 10.6927 74.3538 10.6462ZM67.5 5.20625L72.7925 10.5H67.5V5.20625Z" fill="currentColor"/>
<path d="M108.288 16.3075C108.15 16.2507 108 16.2358 107.854 16.2647C107.709 16.2937 107.575 16.3651 107.47 16.47L104.689 19.25H102C101.801 19.25 101.61 19.329 101.47 19.4697C101.329 19.6103 101.25 19.8011 101.25 20V25C101.25 25.1989 101.329 25.3897 101.47 25.5303C101.61 25.671 101.801 25.75 102 25.75H104.689L107.47 28.53C107.575 28.6348 107.708 28.7061 107.854 28.735C107.999 28.7638 108.15 28.749 108.287 28.6923C108.424 28.6356 108.541 28.5395 108.623 28.4163C108.706 28.2931 108.75 28.1482 108.75 28V17C108.75 16.8518 108.706 16.7069 108.624 16.5837C108.541 16.4604 108.424 16.3643 108.288 16.3075ZM107.25 26.1825L105.53 24.47C105.389 24.3293 105.199 24.2502 105 24.25H102.75V20.75H105C105.199 20.7498 105.389 20.6707 105.53 20.53L107.25 18.8113V26.1825ZM114.75 22.5C114.749 23.3382 114.53 24.1617 114.113 24.8891C113.697 25.6165 113.098 26.2226 112.375 26.6475C112.204 26.7313 112.008 26.7472 111.827 26.692C111.645 26.6369 111.491 26.5147 111.395 26.3502C111.3 26.1858 111.271 25.9913 111.313 25.8061C111.356 25.6209 111.467 25.4587 111.625 25.3525C112.121 25.0597 112.532 24.6425 112.818 24.1423C113.103 23.6421 113.253 23.076 113.253 22.5C113.253 21.924 113.103 21.3579 112.818 20.8577C112.532 20.3575 112.121 19.9403 111.625 19.6475C111.467 19.5413 111.356 19.3791 111.313 19.1939C111.271 19.0087 111.3 18.8142 111.395 18.6498C111.491 18.4853 111.645 18.3631 111.827 18.308C112.008 18.2528 112.204 18.2687 112.375 18.3525C113.098 18.7774 113.697 19.3835 114.113 20.1109C114.53 20.8383 114.749 21.6618 114.75 22.5ZM122.53 10.47L115.53 3.47C115.389 3.32931 115.199 3.25018 115 3.25H103C102.536 3.25 102.091 3.43437 101.763 3.76256C101.434 4.09075 101.25 4.53587 101.25 5V15C101.25 15.1989 101.329 15.3897 101.47 15.5303C101.61 15.671 101.801 15.75 102 15.75C102.199 15.75 102.39 15.671 102.53 15.5303C102.671 15.3897 102.75 15.1989 102.75 15V5C102.75 4.9337 102.776 4.87011 102.823 4.82322C102.87 4.77634 102.934 4.75 103 4.75H114.25V11C114.25 11.1989 114.329 11.3897 114.47 11.5303C114.61 11.671 114.801 11.75 115 11.75H121.25V27C121.25 27.0663 121.224 27.1299 121.177 27.1768C121.13 27.2237 121.066 27.25 121 27.25H117C116.801 27.25 116.61 27.329 116.47 27.4697C116.329 27.6103 116.25 27.8011 116.25 28C116.25 28.1989 116.329 28.3897 116.47 28.5303C116.61 28.671 116.801 28.75 117 28.75H121C121.464 28.75 121.909 28.5656 122.237 28.2374C122.566 27.9092 122.75 27.4641 122.75 27V11C122.75 10.8012 122.671 10.6105 122.53 10.47ZM115.75 5.81L120.19 10.25H115.75V5.81Z" fill="currentColor"/>
<path d="M156.074 15.6138C155.8 15.5001 155.498 15.4704 155.207 15.5282C154.916 15.5861 154.649 15.7289 154.439 15.9388L151.875 18.5H149.5C149.102 18.5 148.721 18.658 148.439 18.9393C148.158 19.2206 148 19.6022 148 20V25C148 25.3978 148.158 25.7794 148.439 26.0607C148.721 26.342 149.102 26.5 149.5 26.5H151.875L154.435 29.06C154.645 29.2712 154.912 29.4154 155.204 29.4742C155.495 29.5329 155.798 29.5036 156.073 29.39C156.348 29.2764 156.583 29.0835 156.748 28.836C156.913 28.5885 157.001 28.2975 157 28V17C157 16.7032 156.912 16.4131 156.747 16.1663C156.582 15.9196 156.348 15.7273 156.074 15.6138ZM154 24.375L153.561 23.935C153.279 23.6551 152.897 23.4987 152.5 23.5H151V21.5H152.5C152.697 21.5002 152.892 21.4615 153.074 21.3862C153.256 21.3109 153.422 21.2005 153.561 21.0613L154 20.625V24.375ZM164 22.5C163.999 23.4689 163.746 24.4208 163.265 25.2617C162.783 26.1027 162.091 26.8035 161.256 27.295C161.086 27.406 160.895 27.4812 160.694 27.5161C160.494 27.5509 160.289 27.5446 160.091 27.4976C159.893 27.4506 159.707 27.3638 159.543 27.2425C159.38 27.1213 159.243 26.9681 159.141 26.7923C159.039 26.6165 158.973 26.4217 158.948 26.2198C158.924 26.018 158.941 25.8132 158.998 25.6179C159.054 25.4227 159.151 25.2411 159.28 25.0841C159.409 24.9272 159.569 24.7982 159.75 24.705C160.133 24.478 160.45 24.1554 160.67 23.7688C160.89 23.3822 161.006 22.9449 161.006 22.5C161.006 22.0551 160.89 21.6178 160.67 21.2312C160.45 20.8446 160.133 20.522 159.75 20.295C159.575 20.1981 159.422 20.0672 159.299 19.9101C159.175 19.7531 159.084 19.573 159.032 19.3803C158.979 19.1877 158.965 18.9865 158.991 18.7885C159.017 18.5905 159.082 18.3996 159.183 18.2271C159.284 18.0547 159.418 17.9041 159.577 17.7841C159.737 17.6642 159.919 17.5774 160.113 17.5287C160.307 17.4801 160.508 17.4706 160.705 17.5009C160.903 17.5312 161.092 17.6006 161.263 17.705C162.096 18.1973 162.787 18.8985 163.267 19.7393C163.747 20.5802 164 21.5317 164 22.5ZM171.061 9.93875L164.061 2.93875C163.922 2.7995 163.756 2.68908 163.574 2.6138C163.392 2.53851 163.197 2.49985 163 2.5H151C150.337 2.5 149.701 2.76339 149.232 3.23223C148.763 3.70107 148.5 4.33696 148.5 5V14.5C148.5 14.8978 148.658 15.2794 148.939 15.5607C149.221 15.842 149.602 16 150 16C150.398 16 150.779 15.842 151.061 15.5607C151.342 15.2794 151.5 14.8978 151.5 14.5V5.5H161V11.5C161 11.8978 161.158 12.2794 161.439 12.5607C161.721 12.842 162.102 13 162.5 13H168.5V26.5H165.5C165.102 26.5 164.721 26.658 164.439 26.9393C164.158 27.2206 164 27.6022 164 28C164 28.3978 164.158 28.7794 164.439 29.0607C164.721 29.342 165.102 29.5 165.5 29.5H169C169.663 29.5 170.299 29.2366 170.768 28.7678C171.237 28.2989 171.5 27.663 171.5 27V11C171.5 10.803 171.461 10.6078 171.386 10.4257C171.311 10.2436 171.201 10.0782 171.061 9.93875ZM164 7.125L166.875 10H164V7.125Z" fill="currentColor"/>
<path d="M211 22.5C210.999 23.382 210.768 24.2485 210.329 25.0138C209.891 25.7791 209.26 26.4168 208.5 26.8638C208.272 26.9771 208.01 26.9995 207.766 26.9262C207.523 26.853 207.316 26.6897 207.189 26.4696C207.061 26.2494 207.023 25.989 207.08 25.7413C207.138 25.4936 207.288 25.2772 207.5 25.1362C207.958 24.8656 208.338 24.4802 208.602 24.0178C208.866 23.5555 209.005 23.0324 209.005 22.5C209.005 21.9676 208.866 21.4445 208.602 20.9822C208.338 20.5198 207.958 20.1344 207.5 19.8638C207.288 19.7228 207.138 19.5064 207.08 19.2587C207.023 19.011 207.061 18.7506 207.189 18.5304C207.316 18.3103 207.523 18.147 207.766 18.0738C208.01 18.0005 208.272 18.0229 208.5 18.1362C209.26 18.5832 209.891 19.2209 210.329 19.9862C210.768 20.7515 210.999 21.618 211 22.5ZM204.382 16.0763C204.2 16.0005 203.999 15.9805 203.805 16.019C203.611 16.0575 203.432 16.1527 203.292 16.2925L200.586 19H198C197.735 19 197.48 19.1054 197.293 19.2929C197.105 19.4804 197 19.7348 197 20V25C197 25.2652 197.105 25.5196 197.293 25.7071C197.48 25.8946 197.735 26 198 26H200.586L203.292 28.7075C203.432 28.8475 203.611 28.9429 203.805 28.9815C203.999 29.0202 204.2 29.0004 204.383 28.9246C204.566 28.8489 204.722 28.7206 204.832 28.556C204.942 28.3914 205 28.1979 205 28V17C205 16.8022 204.941 16.6089 204.831 16.4445C204.721 16.28 204.565 16.1519 204.382 16.0763ZM219 11V27C219 27.5304 218.789 28.0391 218.414 28.4142C218.039 28.7893 217.53 29 217 29H213C212.735 29 212.48 28.8946 212.293 28.7071C212.105 28.5196 212 28.2652 212 28C212 27.7348 212.105 27.4804 212.293 27.2929C212.48 27.1054 212.735 27 213 27H217V12H211C210.735 12 210.48 11.8946 210.293 11.7071C210.105 11.5196 210 11.2652 210 11V5H199V15C199 15.2652 198.895 15.5196 198.707 15.7071C198.52 15.8946 198.265 16 198 16C197.735 16 197.48 15.8946 197.293 15.7071C197.105 15.5196 197 15.2652 197 15V5C197 4.46957 197.211 3.96086 197.586 3.58579C197.961 3.21071 198.47 3 199 3H211C211.131 2.9999 211.261 3.02568 211.383 3.07586C211.504 3.12605 211.615 3.19967 211.708 3.2925L218.708 10.2925C218.8 10.3854 218.874 10.4958 218.924 10.6172C218.974 10.7385 219 10.8686 219 11ZM212 10H215.586L212 6.41375V10Z" fill="currentColor"/>
<path opacity="0.2" d="M249 20L252 17V28L249 25H246V20H249ZM259 4V11H266L259 4Z" fill="currentColor"/>
<path d="M252.382 16.0763C252.2 16.0005 251.999 15.9805 251.805 16.019C251.611 16.0575 251.432 16.1527 251.292 16.2925L248.586 19H246C245.735 19 245.48 19.1054 245.293 19.2929C245.105 19.4804 245 19.7348 245 20V25C245 25.2652 245.105 25.5196 245.293 25.7071C245.48 25.8946 245.735 26 246 26H248.586L251.292 28.7075C251.432 28.8475 251.611 28.9429 251.805 28.9815C251.999 29.0202 252.2 29.0004 252.383 28.9246C252.566 28.8489 252.722 28.7206 252.832 28.556C252.942 28.3914 253 28.1979 253 28V17C253 16.8022 252.941 16.6089 252.831 16.4445C252.721 16.28 252.565 16.1519 252.382 16.0763ZM251 25.5863L249.708 24.2925C249.615 24.1997 249.504 24.1261 249.383 24.0759C249.261 24.0257 249.131 23.9999 249 24H247V21H249C249.131 21.0001 249.261 20.9743 249.383 20.9241C249.504 20.8739 249.615 20.8003 249.708 20.7075L251 19.4137V25.5863ZM259 22.5C258.999 23.382 258.768 24.2485 258.329 25.0138C257.891 25.7791 257.26 26.4168 256.5 26.8638C256.272 26.9771 256.01 26.9995 255.766 26.9262C255.523 26.853 255.316 26.6897 255.189 26.4696C255.061 26.2494 255.023 25.989 255.08 25.7413C255.138 25.4936 255.288 25.2772 255.5 25.1362C255.958 24.8656 256.338 24.4802 256.602 24.0178C256.866 23.5555 257.005 23.0324 257.005 22.5C257.005 21.9676 256.866 21.4445 256.602 20.9822C256.338 20.5198 255.958 20.1344 255.5 19.8638C255.288 19.7228 255.138 19.5064 255.08 19.2587C255.023 19.011 255.061 18.7506 255.189 18.5304C255.316 18.3103 255.523 18.147 255.766 18.0738C256.01 18.0005 256.272 18.0229 256.5 18.1362C257.26 18.5832 257.891 19.2209 258.329 19.9862C258.768 20.7515 258.999 21.618 259 22.5ZM266.708 10.2925L259.708 3.2925C259.615 3.19967 259.504 3.12605 259.383 3.07586C259.261 3.02568 259.131 2.9999 259 3H247C246.47 3 245.961 3.21071 245.586 3.58579C245.211 3.96086 245 4.46957 245 5V15C245 15.2652 245.105 15.5196 245.293 15.7071C245.48 15.8946 245.735 16 246 16C246.265 16 246.52 15.8946 246.707 15.7071C246.895 15.5196 247 15.2652 247 15V5H258V11C258 11.2652 258.105 11.5196 258.293 11.7071C258.48 11.8946 258.735 12 259 12H265V27H261C260.735 27 260.48 27.1054 260.293 27.2929C260.105 27.4804 260 27.7348 260 28C260 28.2652 260.105 28.5196 260.293 28.7071C260.48 28.8946 260.735 29 261 29H265C265.53 29 266.039 28.7893 266.414 28.4142C266.789 28.0391 267 27.5304 267 27V11C267 10.8686 266.974 10.7385 266.924 10.6172C266.874 10.4958 266.8 10.3854 266.708 10.2925ZM260 6.41375L263.586 10H260V6.41375Z" fill="currentColor"/>
</g>
<defs>
<clipPath id="clip0_17_10288">
<rect width="272" height="32" rx="5" fill="white"/>
</clipPath>
</defs>
</svg>
