<svg width="272" height="32" viewBox="0 0 272 32" fill="none" xmlns="http://www.w3.org/2000/svg">
<g clip-path="url(#clip0_17_10008)">
<path d="M6 15C6.26522 15 6.51957 14.8946 6.70711 14.7071C6.89464 14.5196 7 14.2652 7 14V5H18V11C18 11.2652 18.1054 11.5196 18.2929 11.7071C18.4804 11.8946 18.7348 12 19 12H25V14C25 14.2652 25.1054 14.5196 25.2929 14.7071C25.4804 14.8946 25.7348 15 26 15C26.2652 15 26.5196 14.8946 26.7071 14.7071C26.8946 14.5196 27 14.2652 27 14V11C27.0001 10.8686 26.9743 10.7385 26.9241 10.6172C26.8739 10.4958 26.8003 10.3854 26.7075 10.2925L19.7075 3.2925C19.6146 3.19967 19.5042 3.12605 19.3829 3.07586C19.2615 3.02568 19.1314 2.9999 19 3H7C6.46957 3 5.96086 3.21071 5.58579 3.58579C5.21071 3.96086 5 4.46957 5 5V14C5 14.2652 5.10536 14.5196 5.29289 14.7071C5.48043 14.8946 5.73478 15 6 15ZM20 6.41375L23.5863 10H20V6.41375ZM28.5 26C28.5 26.2652 28.3946 26.5196 28.2071 26.7071C28.0196 26.8946 27.7652 27 27.5 27H24C23.7348 27 23.4804 26.8946 23.2929 26.7071C23.1054 26.5196 23 26.2652 23 26V19C23 18.7348 23.1054 18.4804 23.2929 18.2929C23.4804 18.1054 23.7348 18 24 18C24.2652 18 24.5196 18.1054 24.7071 18.2929C24.8946 18.4804 25 18.7348 25 19V25H27.5C27.7652 25 28.0196 25.1054 28.2071 25.2929C28.3946 25.4804 28.5 25.7348 28.5 26ZM11.4775 24.5387C11.4385 24.9212 11.3153 25.2903 11.1167 25.6195C10.918 25.9487 10.649 26.2297 10.3287 26.4425C9.68 26.875 8.875 27 8.1425 27C7.50366 26.9966 6.8678 26.9126 6.25 26.75C5.9976 26.6761 5.78449 26.5057 5.65681 26.2758C5.52914 26.0458 5.49718 25.7749 5.56787 25.5215C5.63856 25.2682 5.80619 25.0529 6.03447 24.9223C6.26275 24.7917 6.53329 24.7563 6.7875 24.8237C7.335 24.9737 8.65625 25.1612 9.23125 24.7787C9.3425 24.705 9.46 24.5888 9.49875 24.2875C9.5425 23.9538 9.41 23.775 7.90125 23.3388C6.7325 23.0013 4.77625 22.435 5.02625 20.45C5.06516 20.075 5.18612 19.7132 5.38055 19.3903C5.57497 19.0673 5.8381 18.7911 6.15125 18.5812C7.63125 17.5812 9.99125 18.1675 10.255 18.2362C10.3821 18.2697 10.5013 18.3279 10.6058 18.4075C10.7104 18.487 10.7983 18.5864 10.8644 18.6999C10.9306 18.8135 10.9738 18.9389 10.9914 19.0691C11.0091 19.1993 11.001 19.3317 10.9675 19.4587C10.934 19.5858 10.8758 19.705 10.7963 19.8096C10.7167 19.9142 10.6173 20.002 10.5038 20.0682C10.3903 20.1343 10.2649 20.1775 10.1347 20.1952C10.0045 20.2129 9.87205 20.2047 9.745 20.1712C9.18375 20.025 7.8425 19.8512 7.2675 20.2412C7.19213 20.2921 7.13008 20.3603 7.08657 20.4401C7.04306 20.52 7.01938 20.6091 7.0175 20.7C7.0025 20.8125 7 20.835 7.1575 20.9375C7.44625 21.1238 7.9625 21.2725 8.46375 21.4175C9.6875 21.7712 11.7575 22.375 11.4775 24.5387ZM20.3525 24.9425C20.779 24.1993 21.0023 23.3569 21 22.5C21 20.0187 19.2063 18 17 18C14.7937 18 13 20.0187 13 22.5C13 24.9813 14.7937 27 17 27C17.7064 26.9975 18.3968 26.7899 18.9875 26.4025L19.2925 26.7075C19.4801 26.895 19.7346 27.0002 19.9998 27.0001C20.2651 27 20.5194 26.8945 20.7069 26.7069C20.8944 26.5192 20.9996 26.2648 20.9995 25.9996C20.9994 25.7343 20.8939 25.48 20.7062 25.2925L20.3525 24.9425ZM17 25C15.8975 25 15 23.875 15 22.5C15 21.125 15.8975 20 17 20C18.1025 20 19 21.125 19 22.5C19.0002 22.8187 18.9504 23.1355 18.8525 23.4387L18.7062 23.2925C18.6133 23.1997 18.5031 23.1261 18.3817 23.0758C18.2603 23.0256 18.1303 22.9998 17.9989 22.9999C17.7337 23 17.4794 23.1055 17.2919 23.2931C17.1044 23.4808 16.9991 23.7352 16.9993 24.0004C16.9994 24.2657 17.1049 24.52 17.2925 24.7075L17.5025 24.9163C17.3405 24.9706 17.1709 24.9988 17 25Z" fill="currentColor"/>
<path d="M53.9999 14.5C54.1325 14.5 54.2597 14.4473 54.3535 14.3536C54.4473 14.2598 54.4999 14.1326 54.4999 14V5C54.4999 4.86739 54.5526 4.74022 54.6464 4.64645C54.7402 4.55268 54.8673 4.5 54.9999 4.5H66.4999V11C66.4999 11.1326 66.5526 11.2598 66.6464 11.3536C66.7402 11.4473 66.8673 11.5 66.9999 11.5H73.4999V14C73.4999 14.1326 73.5526 14.2598 73.6464 14.3536C73.7402 14.4473 73.8673 14.5 73.9999 14.5C74.1325 14.5 74.2597 14.4473 74.3535 14.3536C74.4473 14.2598 74.4999 14.1326 74.4999 14V11C74.5 10.9343 74.4871 10.8693 74.462 10.8086C74.4369 10.7479 74.4001 10.6927 74.3537 10.6462L67.3537 3.64625C67.3072 3.59983 67.2521 3.56303 67.1914 3.53793C67.1307 3.51284 67.0656 3.49995 66.9999 3.5H54.9999C54.6021 3.5 54.2206 3.65804 53.9393 3.93934C53.658 4.22064 53.4999 4.60218 53.4999 5V14C53.4999 14.1326 53.5526 14.2598 53.6464 14.3536C53.7402 14.4473 53.8673 14.5 53.9999 14.5ZM67.4999 5.20625L72.7937 10.5H67.4999V5.20625ZM75.9999 26C75.9999 26.1326 75.9473 26.2598 75.8535 26.3536C75.7597 26.4473 75.6325 26.5 75.4999 26.5H71.9999C71.8673 26.5 71.7402 26.4473 71.6464 26.3536C71.5526 26.2598 71.4999 26.1326 71.4999 26V19C71.4999 18.8674 71.5526 18.7402 71.6464 18.6464C71.7402 18.5527 71.8673 18.5 71.9999 18.5C72.1325 18.5 72.2597 18.5527 72.3535 18.6464C72.4473 18.7402 72.4999 18.8674 72.4999 19V25.5H75.4999C75.6325 25.5 75.7597 25.5527 75.8535 25.6464C75.9473 25.7402 75.9999 25.8674 75.9999 26ZM58.9812 24.475C58.95 24.786 58.8506 25.0862 58.69 25.3543C58.5295 25.6225 58.3118 25.8519 58.0524 26.0263C57.4999 26.39 56.7974 26.5 56.1499 26.5C55.5508 26.495 54.9545 26.4157 54.3749 26.2638C54.2517 26.2244 54.1485 26.1387 54.087 26.0248C54.0256 25.9109 54.0107 25.7776 54.0455 25.653C54.0803 25.5284 54.1621 25.4221 54.2737 25.3565C54.3852 25.2909 54.5178 25.2711 54.6437 25.3013C55.1712 25.4475 56.7137 25.7125 57.4974 25.1912C57.6374 25.0967 57.754 24.9716 57.8387 24.8255C57.9233 24.6794 57.9738 24.5159 57.9862 24.3475C58.0899 23.5413 57.4387 23.2612 56.0312 22.855C54.8212 22.505 53.3162 22.07 53.5137 20.5088C53.544 20.2054 53.6405 19.9123 53.7964 19.6503C53.9524 19.3883 54.1639 19.1638 54.4162 18.9925C54.9862 18.6088 55.7912 18.4475 56.8037 18.515C57.2449 18.5441 57.6828 18.6114 58.1124 18.7162C58.2363 18.7533 58.341 18.837 58.4046 18.9496C58.4681 19.0623 58.4855 19.1951 58.4531 19.3203C58.4208 19.4455 58.3412 19.5533 58.231 19.6211C58.1209 19.6889 57.9888 19.7113 57.8624 19.6838C57.3249 19.5425 55.7612 19.2937 54.9799 19.8225C54.8452 19.9131 54.7329 20.0333 54.6517 20.1739C54.5704 20.3145 54.5224 20.4718 54.5112 20.6338C54.4287 21.28 54.9974 21.5087 56.3137 21.8937C57.5337 22.25 59.2062 22.73 58.9812 24.475ZM64.9999 18.5C63.0699 18.5 61.4999 20.2938 61.4999 22.5C61.4999 24.7062 63.0699 26.5 64.9999 26.5C65.7463 26.4958 66.4676 26.2304 67.0387 25.75L67.6462 26.3563C67.7408 26.446 67.8667 26.4952 67.9971 26.4934C68.1275 26.4916 68.252 26.439 68.3441 26.3467C68.4362 26.2544 68.4887 26.1298 68.4902 25.9994C68.4918 25.869 68.4423 25.7432 68.3524 25.6488L67.7199 25.0163C68.2336 24.2782 68.5061 23.3992 68.4999 22.5C68.4999 20.2938 66.9299 18.5 64.9999 18.5ZM64.9999 25.5C63.6249 25.5 62.4999 24.1537 62.4999 22.5C62.4999 20.8463 63.6249 19.5 64.9999 19.5C66.3749 19.5 67.4999 20.8463 67.4999 22.5C67.5039 23.1333 67.3308 23.755 66.9999 24.295L66.3512 23.6462C66.3052 23.5979 66.25 23.5593 66.1888 23.5326C66.1276 23.5059 66.0617 23.4918 65.995 23.491C65.9282 23.4902 65.862 23.5028 65.8002 23.528C65.7384 23.5532 65.6823 23.5905 65.6351 23.6377C65.588 23.685 65.5508 23.7411 65.5257 23.803C65.5006 23.8648 65.4881 23.9311 65.4891 23.9978C65.49 24.0645 65.5042 24.1304 65.531 24.1915C65.5578 24.2527 65.5965 24.3078 65.6449 24.3538L66.3287 25.0375C65.9488 25.3338 65.4817 25.4964 64.9999 25.5Z" fill="currentColor"/>
<path d="M102 14.75C102.199 14.75 102.39 14.671 102.53 14.5303C102.671 14.3897 102.75 14.1989 102.75 14V5C102.75 4.9337 102.776 4.87011 102.823 4.82322C102.87 4.77634 102.934 4.75 103 4.75H114.25V11C114.25 11.1989 114.329 11.3897 114.47 11.5303C114.61 11.671 114.801 11.75 115 11.75H121.25V14C121.25 14.1989 121.329 14.3897 121.47 14.5303C121.61 14.671 121.801 14.75 122 14.75C122.199 14.75 122.39 14.671 122.53 14.5303C122.671 14.3897 122.75 14.1989 122.75 14V11C122.75 10.9013 122.731 10.8036 122.693 10.7125C122.655 10.6213 122.6 10.5385 122.53 10.4688L115.53 3.46875C115.389 3.32852 115.199 3.24984 115 3.25H103C102.536 3.25 102.091 3.43437 101.763 3.76256C101.434 4.09075 101.25 4.53587 101.25 5V14C101.25 14.1989 101.329 14.3897 101.47 14.5303C101.61 14.671 101.801 14.75 102 14.75ZM115.75 5.81L120.19 10.25H115.75V5.81ZM124.25 26C124.25 26.1989 124.171 26.3897 124.03 26.5303C123.89 26.671 123.699 26.75 123.5 26.75H120C119.801 26.75 119.61 26.671 119.47 26.5303C119.329 26.3897 119.25 26.1989 119.25 26V19C119.25 18.8011 119.329 18.6103 119.47 18.4697C119.61 18.329 119.801 18.25 120 18.25C120.199 18.25 120.39 18.329 120.53 18.4697C120.671 18.6103 120.75 18.8011 120.75 19V25.25H123.5C123.699 25.25 123.89 25.329 124.03 25.4697C124.171 25.6103 124.25 25.8011 124.25 26ZM107.229 24.5C107.194 24.8467 107.083 25.1815 106.904 25.4803C106.725 25.779 106.481 26.0342 106.191 26.2275C105.589 26.6313 104.832 26.75 104.145 26.75C103.526 26.7442 102.909 26.6602 102.311 26.5C102.12 26.4465 101.957 26.319 101.859 26.1456C101.762 25.9723 101.737 25.7672 101.791 25.5756C101.844 25.384 101.972 25.2215 102.145 25.1239C102.318 25.0262 102.523 25.0015 102.715 25.055C103.179 25.18 104.662 25.4438 105.364 24.9775C105.474 24.903 105.565 24.8039 105.63 24.688C105.695 24.5721 105.732 24.4427 105.739 24.31C105.81 23.7563 105.479 23.5275 103.964 23.09C102.8 22.7537 101.042 22.2463 101.267 20.4725C101.302 20.1337 101.41 19.8064 101.584 19.514C101.759 19.2215 101.995 18.971 102.277 18.78C103.666 17.8438 105.925 18.405 106.177 18.47C106.275 18.4933 106.366 18.5357 106.447 18.5949C106.527 18.654 106.595 18.7287 106.647 18.8144C106.698 18.9002 106.732 18.9954 106.746 19.0943C106.76 19.1933 106.754 19.2941 106.728 19.3907C106.703 19.4873 106.658 19.5779 106.597 19.6571C106.536 19.7363 106.46 19.8025 106.373 19.8518C106.286 19.9011 106.19 19.9325 106.091 19.9442C105.992 19.956 105.891 19.9477 105.795 19.92C105.321 19.795 103.814 19.5513 103.115 20.025C103.01 20.0961 102.923 20.1903 102.861 20.3004C102.798 20.4106 102.762 20.5336 102.755 20.66C102.704 21.0625 103.022 21.2575 104.38 21.6488C105.616 22.01 107.481 22.5487 107.229 24.5ZM113 18.25C110.932 18.25 109.25 20.1562 109.25 22.5C109.25 24.8438 110.931 26.75 113 26.75C113.727 26.7469 114.434 26.5117 115.019 26.0788L115.47 26.53C115.539 26.6006 115.622 26.6568 115.713 26.6953C115.804 26.7338 115.902 26.7538 116.001 26.7543C116.1 26.7548 116.199 26.7356 116.29 26.698C116.382 26.6603 116.465 26.6049 116.535 26.535C116.605 26.465 116.66 26.3818 116.698 26.2903C116.736 26.1988 116.755 26.1007 116.755 26.0017C116.755 25.9027 116.735 25.8047 116.696 25.7135C116.658 25.6222 116.602 25.5395 116.531 25.47L116.042 24.9813C116.509 24.2382 116.755 23.3775 116.75 22.5C116.75 20.155 115.069 18.25 113 18.25ZM113 25.25C111.76 25.25 110.75 24.0163 110.75 22.5C110.75 20.9837 111.759 19.75 113 19.75C114.241 19.75 115.25 20.9837 115.25 22.5C115.252 22.9779 115.148 23.4503 114.944 23.8825L114.531 23.47C114.39 23.3312 114.2 23.2536 114.002 23.2543C113.804 23.255 113.615 23.3338 113.475 23.4737C113.335 23.6135 113.256 23.803 113.255 24.0008C113.254 24.1987 113.331 24.3889 113.47 24.53L113.939 24.9988C113.653 25.1618 113.329 25.2484 113 25.25Z" fill="currentColor"/>
<path d="M150 15C150.398 15 150.779 14.842 151.061 14.5607C151.342 14.2794 151.5 13.8978 151.5 13.5V5.5H161V11.5C161 11.8978 161.158 12.2794 161.439 12.5607C161.721 12.842 162.102 13 162.5 13H168.5V13.5C168.5 13.8978 168.658 14.2794 168.939 14.5607C169.221 14.842 169.602 15 170 15C170.398 15 170.779 14.842 171.061 14.5607C171.342 14.2794 171.5 13.8978 171.5 13.5V11C171.5 10.6025 171.342 10.2212 171.061 9.94L164.061 2.94C163.922 2.80052 163.757 2.68987 163.575 2.61437C163.392 2.53887 163.197 2.50001 163 2.5H151C150.337 2.5 149.701 2.76339 149.232 3.23223C148.763 3.70107 148.5 4.33696 148.5 5V13.5C148.5 13.8978 148.658 14.2794 148.939 14.5607C149.221 14.842 149.602 15 150 15ZM166.875 10H164V7.125L166.875 10ZM173.5 26C173.5 26.3978 173.342 26.7794 173.061 27.0607C172.779 27.342 172.398 27.5 172 27.5H168.5C168.102 27.5 167.721 27.342 167.439 27.0607C167.158 26.7794 167 26.3978 167 26V19C167 18.6022 167.158 18.2206 167.439 17.9393C167.721 17.658 168.102 17.5 168.5 17.5C168.898 17.5 169.279 17.658 169.561 17.9393C169.842 18.2206 170 18.6022 170 19V24.5H172C172.398 24.5 172.779 24.658 173.061 24.9393C173.342 25.2206 173.5 25.6022 173.5 26ZM155.473 24.6C155.424 25.0533 155.275 25.4901 155.037 25.8792C154.8 26.2682 154.479 26.5997 154.098 26.85C153.348 27.35 152.44 27.4937 151.631 27.4937C150.946 27.4893 150.264 27.3964 149.603 27.2175C149.41 27.1674 149.229 27.0793 149.07 26.9585C148.912 26.8377 148.779 26.6864 148.679 26.5137C148.58 26.3409 148.516 26.1501 148.491 25.9523C148.467 25.7545 148.481 25.5538 148.535 25.3619C148.589 25.1699 148.68 24.9906 148.804 24.8343C148.928 24.6781 149.081 24.5481 149.256 24.4519C149.43 24.3557 149.622 24.2953 149.821 24.2741C150.019 24.253 150.219 24.2716 150.41 24.3288C151.261 24.56 152.285 24.53 152.459 24.3363C152.472 24.3081 152.481 24.2782 152.485 24.2475C152.243 24.0938 151.633 23.9175 151.25 23.8062C150.576 23.6112 149.875 23.41 149.281 23.0238C148.329 22.4088 147.88 21.4675 148.019 20.375C148.065 19.9298 148.209 19.5001 148.439 19.1165C148.67 18.7329 148.982 18.4046 149.354 18.155C150.113 17.6438 151.125 17.4263 152.366 17.5088C152.875 17.5444 153.38 17.6251 153.875 17.75C154.256 17.855 154.579 18.1056 154.776 18.4477C154.973 18.7897 155.027 19.1956 154.927 19.5772C154.827 19.9589 154.58 20.2857 154.24 20.4868C153.901 20.6878 153.495 20.7469 153.113 20.6513C152.319 20.4475 151.411 20.4638 151.104 20.61C151.428 20.7351 151.758 20.8432 152.094 20.9338C152.778 21.1313 153.553 21.355 154.194 21.7862C155.166 22.4412 155.625 23.4412 155.473 24.6ZM164.973 24.85C165.323 24.1163 165.503 23.313 165.5 22.5C165.5 19.75 163.481 17.5 161 17.5C158.519 17.5 156.5 19.75 156.5 22.5C156.5 25.25 158.519 27.5 161 27.5C161.664 27.4997 162.319 27.338 162.906 27.0287L162.94 27.0613C163.222 27.343 163.604 27.5014 164.003 27.5014C164.401 27.5014 164.783 27.343 165.065 27.0613C165.347 26.7795 165.505 26.3973 165.505 25.9988C165.505 25.6002 165.347 25.218 165.065 24.9363L164.973 24.85ZM159.5 22.5C159.5 21.4163 160.188 20.5 161 20.5C161.813 20.5 162.5 21.4163 162.5 22.5C162.5 22.5287 162.5 22.5575 162.5 22.5863C162.241 22.496 161.963 22.4783 161.695 22.5352C161.427 22.5921 161.179 22.7213 160.979 22.9089C160.78 23.0965 160.635 23.3352 160.561 23.5992C160.488 23.8632 160.488 24.1423 160.561 24.4062C159.953 24.145 159.5 23.375 159.5 22.5Z" fill="currentColor"/>
<path d="M198 15H218C218.265 15 218.52 14.8946 218.707 14.7071C218.895 14.5196 219 14.2652 219 14V11C219 10.8686 218.974 10.7385 218.924 10.6172C218.874 10.4958 218.8 10.3854 218.708 10.2925L211.708 3.2925C211.615 3.19967 211.504 3.12605 211.383 3.07586C211.261 3.02568 211.131 2.9999 211 3H199C198.47 3 197.961 3.21071 197.586 3.58579C197.211 3.96086 197 4.46957 197 5V14C197 14.2652 197.105 14.5196 197.293 14.7071C197.48 14.8946 197.735 15 198 15ZM211 5.5L216.5 11H211V5.5ZM220.5 26C220.5 26.2652 220.395 26.5196 220.207 26.7071C220.02 26.8946 219.765 27 219.5 27H216C215.735 27 215.48 26.8946 215.293 26.7071C215.105 26.5196 215 26.2652 215 26V19C215 18.7348 215.105 18.4804 215.293 18.2929C215.48 18.1054 215.735 18 216 18C216.265 18 216.52 18.1054 216.707 18.2929C216.895 18.4804 217 18.7348 217 19V25H219.5C219.765 25 220.02 25.1054 220.207 25.2929C220.395 25.4804 220.5 25.7348 220.5 26ZM203.477 24.5387C203.439 24.9212 203.315 25.2903 203.117 25.6195C202.918 25.9487 202.649 26.2297 202.329 26.4425C201.68 26.875 200.875 27 200.142 27C199.504 26.9966 198.868 26.9126 198.25 26.75C197.998 26.6761 197.784 26.5057 197.657 26.2758C197.529 26.0458 197.497 25.7749 197.568 25.5215C197.639 25.2682 197.806 25.0529 198.034 24.9223C198.263 24.7917 198.533 24.7563 198.787 24.8237C199.335 24.9737 200.656 25.1612 201.231 24.7787C201.342 24.705 201.46 24.5888 201.499 24.2875C201.542 23.9538 201.41 23.775 199.901 23.3388C198.732 23.0013 196.776 22.435 197.026 20.45C197.065 20.075 197.186 19.7132 197.381 19.3903C197.575 19.0673 197.838 18.7911 198.151 18.5812C199.631 17.5812 201.991 18.1675 202.255 18.2362C202.382 18.2697 202.501 18.3279 202.606 18.4075C202.71 18.487 202.798 18.5864 202.864 18.6999C202.931 18.8135 202.974 18.9389 202.991 19.0691C203.009 19.1993 203.001 19.3317 202.967 19.4587C202.934 19.5858 202.876 19.705 202.796 19.8096C202.717 19.9142 202.617 20.002 202.504 20.0682C202.39 20.1343 202.265 20.1775 202.135 20.1952C202.004 20.2129 201.872 20.2047 201.745 20.1712C201.184 20.025 199.842 19.8512 199.267 20.2412C199.192 20.2921 199.13 20.3603 199.087 20.4401C199.043 20.52 199.019 20.6091 199.017 20.7C199.002 20.8125 199 20.835 199.157 20.9375C199.446 21.1238 199.962 21.2725 200.464 21.4175C201.688 21.7712 203.758 22.375 203.477 24.5387ZM212.353 24.9425C212.779 24.1993 213.002 23.3569 213 22.5C213 20.0187 211.206 18 209 18C206.794 18 205 20.0187 205 22.5C205 24.9813 206.794 27 209 27C209.706 26.9975 210.397 26.7899 210.987 26.4025L211.292 26.7075C211.48 26.895 211.735 27.0002 212 27.0001C212.265 27 212.519 26.8945 212.707 26.7069C212.894 26.5192 213 26.2648 212.999 25.9996C212.999 25.7343 212.894 25.48 212.706 25.2925L212.353 24.9425ZM209 25C207.898 25 207 23.875 207 22.5C207 21.125 207.898 20 209 20C210.102 20 211 21.125 211 22.5C211 22.8187 210.95 23.1355 210.853 23.4387L210.706 23.2925C210.613 23.1997 210.503 23.1261 210.382 23.0758C210.26 23.0256 210.13 22.9998 209.999 22.9999C209.734 23 209.479 23.1055 209.292 23.2931C209.104 23.4808 208.999 23.7352 208.999 24.0004C208.999 24.2657 209.105 24.52 209.292 24.7075L209.503 24.9163C209.34 24.9706 209.171 24.9988 209 25Z" fill="currentColor"/>
<path opacity="0.2" d="M266 11H259V4L266 11Z" fill="currentColor"/>
<path d="M246 15C246.265 15 246.52 14.8946 246.707 14.7071C246.895 14.5196 247 14.2652 247 14V5H258V11C258 11.2652 258.105 11.5196 258.293 11.7071C258.48 11.8946 258.735 12 259 12H265V14C265 14.2652 265.105 14.5196 265.293 14.7071C265.48 14.8946 265.735 15 266 15C266.265 15 266.52 14.8946 266.707 14.7071C266.895 14.5196 267 14.2652 267 14V11C267 10.8686 266.974 10.7385 266.924 10.6172C266.874 10.4958 266.8 10.3854 266.708 10.2925L259.708 3.2925C259.615 3.19967 259.504 3.12605 259.383 3.07586C259.261 3.02568 259.131 2.9999 259 3H247C246.47 3 245.961 3.21071 245.586 3.58579C245.211 3.96086 245 4.46957 245 5V14C245 14.2652 245.105 14.5196 245.293 14.7071C245.48 14.8946 245.735 15 246 15ZM260 6.41375L263.586 10H260V6.41375ZM268.5 26C268.5 26.2652 268.395 26.5196 268.207 26.7071C268.02 26.8946 267.765 27 267.5 27H264C263.735 27 263.48 26.8946 263.293 26.7071C263.105 26.5196 263 26.2652 263 26V19C263 18.7348 263.105 18.4804 263.293 18.2929C263.48 18.1054 263.735 18 264 18C264.265 18 264.52 18.1054 264.707 18.2929C264.895 18.4804 265 18.7348 265 19V25H267.5C267.765 25 268.02 25.1054 268.207 25.2929C268.395 25.4804 268.5 25.7348 268.5 26ZM251.477 24.5387C251.439 24.9212 251.315 25.2903 251.117 25.6195C250.918 25.9487 250.649 26.2297 250.329 26.4425C249.68 26.875 248.875 27 248.142 27C247.504 26.9966 246.868 26.9126 246.25 26.75C245.998 26.6761 245.784 26.5057 245.657 26.2758C245.529 26.0458 245.497 25.7749 245.568 25.5215C245.639 25.2682 245.806 25.0529 246.034 24.9223C246.263 24.7917 246.533 24.7563 246.787 24.8237C247.335 24.9737 248.656 25.1612 249.231 24.7787C249.342 24.705 249.46 24.5888 249.499 24.2875C249.542 23.9538 249.41 23.775 247.901 23.3388C246.732 23.0013 244.776 22.435 245.026 20.45C245.065 20.075 245.186 19.7132 245.381 19.3903C245.575 19.0673 245.838 18.7911 246.151 18.5812C247.631 17.5812 249.991 18.1675 250.255 18.2362C250.382 18.2697 250.501 18.3279 250.606 18.4075C250.71 18.487 250.798 18.5864 250.864 18.6999C250.931 18.8135 250.974 18.9389 250.991 19.0691C251.009 19.1993 251.001 19.3317 250.967 19.4587C250.934 19.5858 250.876 19.705 250.796 19.8096C250.717 19.9142 250.617 20.002 250.504 20.0682C250.39 20.1343 250.265 20.1775 250.135 20.1952C250.004 20.2129 249.872 20.2047 249.745 20.1712C249.184 20.025 247.842 19.8512 247.267 20.2412C247.192 20.2921 247.13 20.3603 247.087 20.4401C247.043 20.52 247.019 20.6091 247.017 20.7C247.002 20.8125 247 20.835 247.157 20.9375C247.446 21.1238 247.962 21.2725 248.464 21.4175C249.688 21.7712 251.758 22.375 251.477 24.5387ZM260.353 24.9425C260.779 24.1993 261.002 23.3569 261 22.5C261 20.0187 259.206 18 257 18C254.794 18 253 20.0187 253 22.5C253 24.9813 254.794 27 257 27C257.706 26.9975 258.397 26.7899 258.987 26.4025L259.292 26.7075C259.48 26.895 259.735 27.0002 260 27.0001C260.265 27 260.519 26.8945 260.707 26.7069C260.894 26.5192 261 26.2648 260.999 25.9996C260.999 25.7343 260.894 25.48 260.706 25.2925L260.353 24.9425ZM257 25C255.898 25 255 23.875 255 22.5C255 21.125 255.898 20 257 20C258.102 20 259 21.125 259 22.5C259 22.8187 258.95 23.1355 258.853 23.4387L258.706 23.2925C258.613 23.1997 258.503 23.1261 258.382 23.0758C258.26 23.0256 258.13 22.9998 257.999 22.9999C257.734 23 257.479 23.1055 257.292 23.2931C257.104 23.4808 256.999 23.7352 256.999 24.0004C256.999 24.2657 257.105 24.52 257.292 24.7075L257.503 24.9163C257.34 24.9706 257.171 24.9988 257 25Z" fill="currentColor"/>
</g>
<defs>
<clipPath id="clip0_17_10008">
<rect width="272" height="32" rx="5" fill="white"/>
</clipPath>
</defs>
</svg>
