<svg width="272" height="32" viewBox="0 0 272 32" fill="none" xmlns="http://www.w3.org/2000/svg">
<g clip-path="url(#clip0_17_10050)">
<path d="M28 19C28 19.2652 27.8946 19.5196 27.7071 19.7071C27.5196 19.8946 27.2652 20 27 20H25.5V26C25.5 26.2652 25.3946 26.5196 25.2071 26.7071C25.0196 26.8946 24.7652 27 24.5 27C24.2348 27 23.9804 26.8946 23.7929 26.7071C23.6054 26.5196 23.5 26.2652 23.5 26V20H22C21.7348 20 21.4804 19.8946 21.2929 19.7071C21.1054 19.5196 21 19.2652 21 19C21 18.7348 21.1054 18.4804 21.2929 18.2929C21.4804 18.1054 21.7348 18 22 18H27C27.2652 18 27.5196 18.1054 27.7071 18.2929C27.8946 18.4804 28 18.7348 28 19ZM11.5 21.5C11.5 22.4283 11.1313 23.3185 10.4749 23.9749C9.8185 24.6313 8.92826 25 8 25H7V26C7 26.2652 6.89464 26.5196 6.70711 26.7071C6.51957 26.8946 6.26522 27 6 27C5.73478 27 5.48043 26.8946 5.29289 26.7071C5.10536 26.5196 5 26.2652 5 26V19C5 18.7348 5.10536 18.4804 5.29289 18.2929C5.48043 18.1054 5.73478 18 6 18H8C8.92826 18 9.8185 18.3687 10.4749 19.0251C11.1313 19.6815 11.5 20.5717 11.5 21.5ZM9.5 21.5C9.5 21.1022 9.34196 20.7206 9.06066 20.4393C8.77936 20.158 8.39782 20 8 20H7V23H8C8.39782 23 8.77936 22.842 9.06066 22.5607C9.34196 22.2794 9.5 21.8978 9.5 21.5ZM20 21.5C20 22.4283 19.6313 23.3185 18.9749 23.9749C18.3185 24.6313 17.4283 25 16.5 25H15.5V26C15.5 26.2652 15.3946 26.5196 15.2071 26.7071C15.0196 26.8946 14.7652 27 14.5 27C14.2348 27 13.9804 26.8946 13.7929 26.7071C13.6054 26.5196 13.5 26.2652 13.5 26V19C13.5 18.7348 13.6054 18.4804 13.7929 18.2929C13.9804 18.1054 14.2348 18 14.5 18H16.5C17.4283 18 18.3185 18.3687 18.9749 19.0251C19.6313 19.6815 20 20.5717 20 21.5ZM18 21.5C18 21.1022 17.842 20.7206 17.5607 20.4393C17.2794 20.158 16.8978 20 16.5 20H15.5V23H16.5C16.8978 23 17.2794 22.842 17.5607 22.5607C17.842 22.2794 18 21.8978 18 21.5ZM5 14V5C5 4.46957 5.21071 3.96086 5.58579 3.58579C5.96086 3.21071 6.46957 3 7 3H19C19.1314 2.9999 19.2615 3.02568 19.3829 3.07586C19.5042 3.12605 19.6146 3.19967 19.7075 3.2925L26.7075 10.2925C26.8003 10.3854 26.8739 10.4958 26.9241 10.6172C26.9743 10.7385 27.0001 10.8686 27 11V14C27 14.2652 26.8946 14.5196 26.7071 14.7071C26.5196 14.8946 26.2652 15 26 15C25.7348 15 25.4804 14.8946 25.2929 14.7071C25.1054 14.5196 25 14.2652 25 14V12H19C18.7348 12 18.4804 11.8946 18.2929 11.7071C18.1054 11.5196 18 11.2652 18 11V5H7V14C7 14.2652 6.89464 14.5196 6.70711 14.7071C6.51957 14.8946 6.26522 15 6 15C5.73478 15 5.48043 14.8946 5.29289 14.7071C5.10536 14.5196 5 14.2652 5 14ZM20 10H23.5863L20 6.41375V10Z" fill="currentColor"/>
<path d="M75.5 19C75.5 19.1326 75.4473 19.2598 75.3536 19.3536C75.2598 19.4473 75.1326 19.5 75 19.5H73V26C73 26.1326 72.9473 26.2598 72.8536 26.3536C72.7598 26.4473 72.6326 26.5 72.5 26.5C72.3674 26.5 72.2402 26.4473 72.1464 26.3536C72.0527 26.2598 72 26.1326 72 26V19.5H70C69.8674 19.5 69.7402 19.4473 69.6464 19.3536C69.5527 19.2598 69.5 19.1326 69.5 19C69.5 18.8674 69.5527 18.7402 69.6464 18.6464C69.7402 18.5527 69.8674 18.5 70 18.5H75C75.1326 18.5 75.2598 18.5527 75.3536 18.6464C75.4473 18.7402 75.5 18.8674 75.5 19ZM59 21.5C59 22.2956 58.6839 23.0587 58.1213 23.6213C57.5587 24.1839 56.7956 24.5 56 24.5H54.5V26C54.5 26.1326 54.4473 26.2598 54.3536 26.3536C54.2598 26.4473 54.1326 26.5 54 26.5C53.8674 26.5 53.7402 26.4473 53.6464 26.3536C53.5527 26.2598 53.5 26.1326 53.5 26V19C53.5 18.8674 53.5527 18.7402 53.6464 18.6464C53.7402 18.5527 53.8674 18.5 54 18.5H56C56.7956 18.5 57.5587 18.8161 58.1213 19.3787C58.6839 19.9413 59 20.7044 59 21.5ZM58 21.5C58 20.9696 57.7893 20.4609 57.4142 20.0858C57.0391 19.7107 56.5304 19.5 56 19.5H54.5V23.5H56C56.5304 23.5 57.0391 23.2893 57.4142 22.9142C57.7893 22.5391 58 22.0304 58 21.5ZM67.5 21.5C67.5 22.2956 67.1839 23.0587 66.6213 23.6213C66.0587 24.1839 65.2956 24.5 64.5 24.5H63V26C63 26.1326 62.9473 26.2598 62.8536 26.3536C62.7598 26.4473 62.6326 26.5 62.5 26.5C62.3674 26.5 62.2402 26.4473 62.1464 26.3536C62.0527 26.2598 62 26.1326 62 26V19C62 18.8674 62.0527 18.7402 62.1464 18.6464C62.2402 18.5527 62.3674 18.5 62.5 18.5H64.5C65.2956 18.5 66.0587 18.8161 66.6213 19.3787C67.1839 19.9413 67.5 20.7044 67.5 21.5ZM66.5 21.5C66.5 20.9696 66.2893 20.4609 65.9142 20.0858C65.5391 19.7107 65.0304 19.5 64.5 19.5H63V23.5H64.5C65.0304 23.5 65.5391 23.2893 65.9142 22.9142C66.2893 22.5391 66.5 22.0304 66.5 21.5ZM53.5 14V5C53.5 4.60218 53.658 4.22064 53.9393 3.93934C54.2206 3.65804 54.6022 3.5 55 3.5H67C67.0657 3.49995 67.1307 3.51284 67.1914 3.53793C67.2521 3.56303 67.3073 3.59983 67.3538 3.64625L74.3538 10.6462C74.4002 10.6927 74.437 10.7479 74.4621 10.8086C74.4872 10.8693 74.5001 10.9343 74.5 11V14C74.5 14.1326 74.4473 14.2598 74.3536 14.3536C74.2598 14.4473 74.1326 14.5 74 14.5C73.8674 14.5 73.7402 14.4473 73.6464 14.3536C73.5527 14.2598 73.5 14.1326 73.5 14V11.5H67C66.8674 11.5 66.7402 11.4473 66.6464 11.3536C66.5527 11.2598 66.5 11.1326 66.5 11V4.5H55C54.8674 4.5 54.7402 4.55268 54.6464 4.64645C54.5527 4.74022 54.5 4.86739 54.5 5V14C54.5 14.1326 54.4473 14.2598 54.3536 14.3536C54.2598 14.4473 54.1326 14.5 54 14.5C53.8674 14.5 53.7402 14.4473 53.6464 14.3536C53.5527 14.2598 53.5 14.1326 53.5 14ZM67.5 10.5H72.7925L67.5 5.20625V10.5Z" fill="currentColor"/>
<path d="M123.75 19C123.75 19.1989 123.671 19.3897 123.53 19.5303C123.39 19.671 123.199 19.75 123 19.75H121.25V26C121.25 26.1989 121.171 26.3897 121.03 26.5303C120.89 26.671 120.699 26.75 120.5 26.75C120.301 26.75 120.11 26.671 119.97 26.5303C119.829 26.3897 119.75 26.1989 119.75 26V19.75H118C117.801 19.75 117.61 19.671 117.47 19.5303C117.329 19.3897 117.25 19.1989 117.25 19C117.25 18.8011 117.329 18.6103 117.47 18.4697C117.61 18.329 117.801 18.25 118 18.25H123C123.199 18.25 123.39 18.329 123.53 18.4697C123.671 18.6103 123.75 18.8011 123.75 19ZM107.25 21.5C107.25 22.362 106.908 23.1886 106.298 23.7981C105.689 24.4076 104.862 24.75 104 24.75H102.75V26C102.75 26.1989 102.671 26.3897 102.53 26.5303C102.39 26.671 102.199 26.75 102 26.75C101.801 26.75 101.61 26.671 101.47 26.5303C101.329 26.3897 101.25 26.1989 101.25 26V19C101.25 18.8011 101.329 18.6103 101.47 18.4697C101.61 18.329 101.801 18.25 102 18.25H104C104.862 18.25 105.689 18.5924 106.298 19.2019C106.908 19.8114 107.25 20.638 107.25 21.5ZM105.75 21.5C105.75 21.0359 105.566 20.5908 105.237 20.2626C104.909 19.9344 104.464 19.75 104 19.75H102.75V23.25H104C104.464 23.25 104.909 23.0656 105.237 22.7374C105.566 22.4092 105.75 21.9641 105.75 21.5ZM115.75 21.5C115.75 22.362 115.408 23.1886 114.798 23.7981C114.189 24.4076 113.362 24.75 112.5 24.75H111.25V26C111.25 26.1989 111.171 26.3897 111.03 26.5303C110.89 26.671 110.699 26.75 110.5 26.75C110.301 26.75 110.11 26.671 109.97 26.5303C109.829 26.3897 109.75 26.1989 109.75 26V19C109.75 18.8011 109.829 18.6103 109.97 18.4697C110.11 18.329 110.301 18.25 110.5 18.25H112.5C113.362 18.25 114.189 18.5924 114.798 19.2019C115.408 19.8114 115.75 20.638 115.75 21.5ZM114.25 21.5C114.25 21.0359 114.066 20.5908 113.737 20.2626C113.409 19.9344 112.964 19.75 112.5 19.75H111.25V23.25H112.5C112.964 23.25 113.409 23.0656 113.737 22.7374C114.066 22.4092 114.25 21.9641 114.25 21.5ZM101.25 14V5C101.25 4.53587 101.434 4.09075 101.763 3.76256C102.091 3.43437 102.536 3.25 103 3.25H115C115.099 3.24992 115.196 3.26932 115.288 3.30707C115.379 3.34482 115.462 3.40019 115.531 3.47L122.531 10.47C122.671 10.6107 122.75 10.8013 122.75 11V14C122.75 14.1989 122.671 14.3897 122.53 14.5303C122.39 14.671 122.199 14.75 122 14.75C121.801 14.75 121.61 14.671 121.47 14.5303C121.329 14.3897 121.25 14.1989 121.25 14V11.75H115C114.801 11.75 114.61 11.671 114.47 11.5303C114.329 11.3897 114.25 11.1989 114.25 11V4.75H103C102.934 4.75 102.87 4.77634 102.823 4.82322C102.776 4.87011 102.75 4.9337 102.75 5V14C102.75 14.1989 102.671 14.3897 102.53 14.5303C102.39 14.671 102.199 14.75 102 14.75C101.801 14.75 101.61 14.671 101.47 14.5303C101.329 14.3897 101.25 14.1989 101.25 14ZM115.75 10.25H120.19L115.75 5.81V10.25Z" fill="currentColor"/>
<path d="M173 19C173 19.3978 172.842 19.7794 172.561 20.0607C172.279 20.342 171.898 20.5 171.5 20.5H170.5V26C170.5 26.3978 170.342 26.7794 170.061 27.0607C169.779 27.342 169.398 27.5 169 27.5C168.602 27.5 168.221 27.342 167.939 27.0607C167.658 26.7794 167.5 26.3978 167.5 26V20.5H166.5C166.102 20.5 165.721 20.342 165.439 20.0607C165.158 19.7794 165 19.3978 165 19C165 18.6022 165.158 18.2206 165.439 17.9393C165.721 17.658 166.102 17.5 166.5 17.5H171.5C171.898 17.5 172.279 17.658 172.561 17.9393C172.842 18.2206 173 18.6022 173 19ZM155.5 21.5C155.5 22.5609 155.079 23.5783 154.328 24.3284C153.578 25.0786 152.561 25.5 151.5 25.5H151V26C151 26.3978 150.842 26.7794 150.561 27.0607C150.279 27.342 149.898 27.5 149.5 27.5C149.102 27.5 148.721 27.342 148.439 27.0607C148.158 26.7794 148 26.3978 148 26V19C148 18.6022 148.158 18.2206 148.439 17.9393C148.721 17.658 149.102 17.5 149.5 17.5H151.5C152.561 17.5 153.578 17.9214 154.328 18.6716C155.079 19.4217 155.5 20.4391 155.5 21.5ZM152.5 21.5C152.5 21.2348 152.395 20.9804 152.207 20.7929C152.02 20.6054 151.765 20.5 151.5 20.5H151V22.5H151.5C151.765 22.5 152.02 22.3946 152.207 22.2071C152.395 22.0196 152.5 21.7652 152.5 21.5ZM164.5 21.5C164.5 22.5609 164.079 23.5783 163.328 24.3284C162.578 25.0786 161.561 25.5 160.5 25.5H160V26C160 26.3978 159.842 26.7794 159.561 27.0607C159.279 27.342 158.898 27.5 158.5 27.5C158.102 27.5 157.721 27.342 157.439 27.0607C157.158 26.7794 157 26.3978 157 26V19C157 18.6022 157.158 18.2206 157.439 17.9393C157.721 17.658 158.102 17.5 158.5 17.5H160.5C161.561 17.5 162.578 17.9214 163.328 18.6716C164.079 19.4217 164.5 20.4391 164.5 21.5ZM161.5 21.5C161.5 21.2348 161.395 20.9804 161.207 20.7929C161.02 20.6054 160.765 20.5 160.5 20.5H160V22.5H160.5C160.765 22.5 161.02 22.3946 161.207 22.2071C161.395 22.0196 161.5 21.7652 161.5 21.5ZM148.5 13.5V5C148.5 4.33696 148.763 3.70107 149.232 3.23223C149.701 2.76339 150.337 2.5 151 2.5H163C163.197 2.50001 163.392 2.53887 163.574 2.61437C163.757 2.68987 163.922 2.80052 164.061 2.94L171.061 9.94C171.342 10.2212 171.5 10.6025 171.5 11V13.5C171.5 13.8978 171.342 14.2794 171.061 14.5607C170.779 14.842 170.398 15 170 15C169.602 15 169.221 14.842 168.939 14.5607C168.658 14.2794 168.5 13.8978 168.5 13.5V13H162.5C162.102 13 161.721 12.842 161.439 12.5607C161.158 12.2794 161 11.8978 161 11.5V5.5H151.5V13.5C151.5 13.8978 151.342 14.2794 151.061 14.5607C150.779 14.842 150.398 15 150 15C149.602 15 149.221 14.842 148.939 14.5607C148.658 14.2794 148.5 13.8978 148.5 13.5ZM164 10H166.875L164 7.125V10Z" fill="currentColor"/>
<path d="M220 19C220 19.2652 219.895 19.5196 219.707 19.7071C219.52 19.8946 219.265 20 219 20H217.5V26C217.5 26.2652 217.395 26.5196 217.207 26.7071C217.02 26.8946 216.765 27 216.5 27C216.235 27 215.98 26.8946 215.793 26.7071C215.605 26.5196 215.5 26.2652 215.5 26V20H214C213.735 20 213.48 19.8946 213.293 19.7071C213.105 19.5196 213 19.2652 213 19C213 18.7348 213.105 18.4804 213.293 18.2929C213.48 18.1054 213.735 18 214 18H219C219.265 18 219.52 18.1054 219.707 18.2929C219.895 18.4804 220 18.7348 220 19ZM203.5 21.5C203.5 22.4283 203.131 23.3185 202.475 23.9749C201.818 24.6313 200.928 25 200 25H199V26C199 26.2652 198.895 26.5196 198.707 26.7071C198.52 26.8946 198.265 27 198 27C197.735 27 197.48 26.8946 197.293 26.7071C197.105 26.5196 197 26.2652 197 26V19C197 18.7348 197.105 18.4804 197.293 18.2929C197.48 18.1054 197.735 18 198 18H200C200.928 18 201.818 18.3687 202.475 19.0251C203.131 19.6815 203.5 20.5717 203.5 21.5ZM201.5 21.5C201.5 21.1022 201.342 20.7206 201.061 20.4393C200.779 20.158 200.398 20 200 20H199V23H200C200.398 23 200.779 22.842 201.061 22.5607C201.342 22.2794 201.5 21.8978 201.5 21.5ZM212 21.5C212 22.4283 211.631 23.3185 210.975 23.9749C210.318 24.6313 209.428 25 208.5 25H207.5V26C207.5 26.2652 207.395 26.5196 207.207 26.7071C207.02 26.8946 206.765 27 206.5 27C206.235 27 205.98 26.8946 205.793 26.7071C205.605 26.5196 205.5 26.2652 205.5 26V19C205.5 18.7348 205.605 18.4804 205.793 18.2929C205.98 18.1054 206.235 18 206.5 18H208.5C209.428 18 210.318 18.3687 210.975 19.0251C211.631 19.6815 212 20.5717 212 21.5ZM210 21.5C210 21.1022 209.842 20.7206 209.561 20.4393C209.279 20.158 208.898 20 208.5 20H207.5V23H208.5C208.898 23 209.279 22.842 209.561 22.5607C209.842 22.2794 210 21.8978 210 21.5ZM197 14V5C197 4.46957 197.211 3.96086 197.586 3.58579C197.961 3.21071 198.47 3 199 3H211C211.131 2.9999 211.261 3.02568 211.383 3.07586C211.504 3.12605 211.615 3.19967 211.708 3.2925L218.708 10.2925C218.8 10.3854 218.874 10.4958 218.924 10.6172C218.974 10.7385 219 10.8686 219 11V14C219 14.2652 218.895 14.5196 218.707 14.7071C218.52 14.8946 218.265 15 218 15H198C197.735 15 197.48 14.8946 197.293 14.7071C197.105 14.5196 197 14.2652 197 14ZM211 11H216.5L211 5.5V11Z" fill="currentColor"/>
<path opacity="0.2" d="M266 11H259V4L266 11Z" fill="currentColor"/>
<path d="M268 19C268 19.2652 267.895 19.5196 267.707 19.7071C267.52 19.8946 267.265 20 267 20H265.5V26C265.5 26.2652 265.395 26.5196 265.207 26.7071C265.02 26.8946 264.765 27 264.5 27C264.235 27 263.98 26.8946 263.793 26.7071C263.605 26.5196 263.5 26.2652 263.5 26V20H262C261.735 20 261.48 19.8946 261.293 19.7071C261.105 19.5196 261 19.2652 261 19C261 18.7348 261.105 18.4804 261.293 18.2929C261.48 18.1054 261.735 18 262 18H267C267.265 18 267.52 18.1054 267.707 18.2929C267.895 18.4804 268 18.7348 268 19ZM251.5 21.5C251.5 22.4283 251.131 23.3185 250.475 23.9749C249.818 24.6313 248.928 25 248 25H247V26C247 26.2652 246.895 26.5196 246.707 26.7071C246.52 26.8946 246.265 27 246 27C245.735 27 245.48 26.8946 245.293 26.7071C245.105 26.5196 245 26.2652 245 26V19C245 18.7348 245.105 18.4804 245.293 18.2929C245.48 18.1054 245.735 18 246 18H248C248.928 18 249.818 18.3687 250.475 19.0251C251.131 19.6815 251.5 20.5717 251.5 21.5ZM249.5 21.5C249.5 21.1022 249.342 20.7206 249.061 20.4393C248.779 20.158 248.398 20 248 20H247V23H248C248.398 23 248.779 22.842 249.061 22.5607C249.342 22.2794 249.5 21.8978 249.5 21.5ZM260 21.5C260 22.4283 259.631 23.3185 258.975 23.9749C258.318 24.6313 257.428 25 256.5 25H255.5V26C255.5 26.2652 255.395 26.5196 255.207 26.7071C255.02 26.8946 254.765 27 254.5 27C254.235 27 253.98 26.8946 253.793 26.7071C253.605 26.5196 253.5 26.2652 253.5 26V19C253.5 18.7348 253.605 18.4804 253.793 18.2929C253.98 18.1054 254.235 18 254.5 18H256.5C257.428 18 258.318 18.3687 258.975 19.0251C259.631 19.6815 260 20.5717 260 21.5ZM258 21.5C258 21.1022 257.842 20.7206 257.561 20.4393C257.279 20.158 256.898 20 256.5 20H255.5V23H256.5C256.898 23 257.279 22.842 257.561 22.5607C257.842 22.2794 258 21.8978 258 21.5ZM245 14V5C245 4.46957 245.211 3.96086 245.586 3.58579C245.961 3.21071 246.47 3 247 3H259C259.131 2.9999 259.261 3.02568 259.383 3.07586C259.504 3.12605 259.615 3.19967 259.708 3.2925L266.708 10.2925C266.8 10.3854 266.874 10.4958 266.924 10.6172C266.974 10.7385 267 10.8686 267 11V14C267 14.2652 266.895 14.5196 266.707 14.7071C266.52 14.8946 266.265 15 266 15C265.735 15 265.48 14.8946 265.293 14.7071C265.105 14.5196 265 14.2652 265 14V12H259C258.735 12 258.48 11.8946 258.293 11.7071C258.105 11.5196 258 11.2652 258 11V5H247V14C247 14.2652 246.895 14.5196 246.707 14.7071C246.52 14.8946 246.265 15 246 15C245.735 15 245.48 14.8946 245.293 14.7071C245.105 14.5196 245 14.2652 245 14ZM260 10H263.586L260 6.41375V10Z" fill="currentColor"/>
</g>
<defs>
<clipPath id="clip0_17_10050">
<rect width="272" height="32" rx="5" fill="white"/>
</clipPath>
</defs>
</svg>
