<svg width="272" height="32" viewBox="0 0 272 32" fill="none" xmlns="http://www.w3.org/2000/svg">
<g clip-path="url(#clip0_17_9910)">
<path d="M26.7075 10.2925L19.7075 3.2925C19.6146 3.19967 19.5042 3.12605 19.3829 3.07586C19.2615 3.02568 19.1314 2.9999 19 3H7C6.46957 3 5.96086 3.21071 5.58579 3.58579C5.21071 3.96086 5 4.46957 5 5V27C5 27.5304 5.21071 28.0391 5.58579 28.4142C5.96086 28.7893 6.46957 29 7 29H25C25.5304 29 26.0391 28.7893 26.4142 28.4142C26.7893 28.0391 27 27.5304 27 27V11C27.0001 10.8686 26.9743 10.7385 26.9241 10.6172C26.8739 10.4958 26.8003 10.3854 26.7075 10.2925ZM20 6.41375L23.5863 10H20V6.41375ZM25 27H7V5H18V11C18 11.2652 18.1054 11.5196 18.2929 11.7071C18.4804 11.8946 18.7348 12 19 12H25V27ZM19.7075 16.7075L17.4137 19L19.7075 21.2925C19.8004 21.3854 19.8741 21.4957 19.9244 21.6171C19.9747 21.7385 20.0006 21.8686 20.0006 22C20.0006 22.1314 19.9747 22.2615 19.9244 22.3829C19.8741 22.5043 19.8004 22.6146 19.7075 22.7075C19.6146 22.8004 19.5043 22.8741 19.3829 22.9244C19.2615 22.9747 19.1314 23.0006 19 23.0006C18.8686 23.0006 18.7385 22.9747 18.6171 22.9244C18.4957 22.8741 18.3854 22.8004 18.2925 22.7075L16 20.4137L13.7075 22.7075C13.6146 22.8004 13.5043 22.8741 13.3829 22.9244C13.2615 22.9747 13.1314 23.0006 13 23.0006C12.8686 23.0006 12.7385 22.9747 12.6171 22.9244C12.4957 22.8741 12.3854 22.8004 12.2925 22.7075C12.1996 22.6146 12.1259 22.5043 12.0756 22.3829C12.0253 22.2615 11.9994 22.1314 11.9994 22C11.9994 21.8686 12.0253 21.7385 12.0756 21.6171C12.1259 21.4957 12.1996 21.3854 12.2925 21.2925L14.5863 19L12.2925 16.7075C12.1049 16.5199 11.9994 16.2654 11.9994 16C11.9994 15.7346 12.1049 15.4801 12.2925 15.2925C12.4801 15.1049 12.7346 14.9994 13 14.9994C13.2654 14.9994 13.5199 15.1049 13.7075 15.2925L16 17.5863L18.2925 15.2925C18.3854 15.1996 18.4957 15.1259 18.6171 15.0756C18.7385 15.0253 18.8686 14.9994 19 14.9994C19.1314 14.9994 19.2615 15.0253 19.3829 15.0756C19.5043 15.1259 19.6146 15.1996 19.7075 15.2925C19.8004 15.3854 19.8741 15.4957 19.9244 15.6171C19.9747 15.7385 20.0006 15.8686 20.0006 16C20.0006 16.1314 19.9747 16.2615 19.9244 16.3829C19.8741 16.5043 19.8004 16.6146 19.7075 16.7075Z" fill="currentColor"/>
<path d="M74.3538 10.6462L67.3538 3.64625C67.3073 3.59983 67.2521 3.56303 67.1914 3.53793C67.1307 3.51284 67.0657 3.49995 67 3.5H55C54.6022 3.5 54.2206 3.65804 53.9393 3.93934C53.658 4.22064 53.5 4.60218 53.5 5V27C53.5 27.3978 53.658 27.7794 53.9393 28.0607C54.2206 28.342 54.6022 28.5 55 28.5H73C73.3978 28.5 73.7794 28.342 74.0607 28.0607C74.342 27.7794 74.5 27.3978 74.5 27V11C74.5001 10.9343 74.4872 10.8693 74.4621 10.8086C74.437 10.7479 74.4002 10.6927 74.3538 10.6462ZM67.5 5.20625L72.7925 10.5H67.5V5.20625ZM73 27.5H55C54.8674 27.5 54.7402 27.4473 54.6464 27.3536C54.5527 27.2598 54.5 27.1326 54.5 27V5C54.5 4.86739 54.5527 4.74022 54.6464 4.64645C54.7402 4.55268 54.8674 4.5 55 4.5H66.5V11C66.5 11.1326 66.5527 11.2598 66.6464 11.3536C66.7402 11.4473 66.8674 11.5 67 11.5H73.5V27C73.5 27.1326 73.4473 27.2598 73.3536 27.3536C73.2598 27.4473 73.1326 27.5 73 27.5ZM67.3538 16.3538L64.7075 19L67.3538 21.6462C67.4476 21.7401 67.5003 21.8673 67.5003 22C67.5003 22.1327 67.4476 22.2599 67.3538 22.3538C67.2599 22.4476 67.1327 22.5003 67 22.5003C66.8673 22.5003 66.7401 22.4476 66.6462 22.3538L64 19.7075L61.3538 22.3538C61.2599 22.4476 61.1327 22.5003 61 22.5003C60.8673 22.5003 60.7401 22.4476 60.6462 22.3538C60.5524 22.2599 60.4997 22.1327 60.4997 22C60.4997 21.8673 60.5524 21.7401 60.6462 21.6462L63.2925 19L60.6462 16.3538C60.5998 16.3073 60.5629 16.2521 60.5378 16.1914C60.5127 16.1308 60.4997 16.0657 60.4997 16C60.4997 15.9343 60.5127 15.8692 60.5378 15.8086C60.5629 15.7479 60.5998 15.6927 60.6462 15.6462C60.6927 15.5998 60.7479 15.5629 60.8086 15.5378C60.8692 15.5127 60.9343 15.4997 61 15.4997C61.0657 15.4997 61.1308 15.5127 61.1914 15.5378C61.2521 15.5629 61.3073 15.5998 61.3538 15.6462L64 18.2925L66.6462 15.6462C66.6927 15.5998 66.7479 15.5629 66.8086 15.5378C66.8692 15.5127 66.9343 15.4997 67 15.4997C67.0657 15.4997 67.1308 15.5127 67.1914 15.5378C67.2521 15.5629 67.3073 15.5998 67.3538 15.6462C67.4002 15.6927 67.4371 15.7479 67.4622 15.8086C67.4873 15.8692 67.5003 15.9343 67.5003 16C67.5003 16.0657 67.4873 16.1308 67.4622 16.1914C67.4371 16.2521 67.4002 16.3073 67.3538 16.3538Z" fill="currentColor"/>
<path d="M122.53 10.47L115.53 3.47C115.389 3.32931 115.199 3.25018 115 3.25H103C102.536 3.25 102.091 3.43437 101.763 3.76256C101.434 4.09075 101.25 4.53587 101.25 5V27C101.25 27.4641 101.434 27.9092 101.763 28.2374C102.091 28.5656 102.536 28.75 103 28.75H121C121.464 28.75 121.909 28.5656 122.237 28.2374C122.566 27.9092 122.75 27.4641 122.75 27V11C122.75 10.8012 122.671 10.6105 122.53 10.47ZM115.75 5.81L120.19 10.25H115.75V5.81ZM121.25 27C121.25 27.0663 121.224 27.1299 121.177 27.1768C121.13 27.2237 121.066 27.25 121 27.25H103C102.934 27.25 102.87 27.2237 102.823 27.1768C102.776 27.1299 102.75 27.0663 102.75 27V5C102.75 4.9337 102.776 4.87011 102.823 4.82322C102.87 4.77634 102.934 4.75 103 4.75H114.25V11C114.25 11.1989 114.329 11.3897 114.47 11.5303C114.61 11.671 114.801 11.75 115 11.75H121.25V27ZM115.53 15.47C115.67 15.6106 115.749 15.8012 115.749 16C115.749 16.1988 115.67 16.3894 115.53 16.53L113.061 19L115.53 21.47C115.604 21.5387 115.663 21.6215 115.704 21.7135C115.745 21.8055 115.767 21.9048 115.769 22.0055C115.77 22.1062 115.752 22.2062 115.714 22.2996C115.676 22.393 115.62 22.4778 115.549 22.549C115.478 22.6203 115.393 22.6764 115.3 22.7141C115.206 22.7518 115.106 22.7704 115.005 22.7686C114.905 22.7668 114.805 22.7448 114.713 22.7038C114.621 22.6628 114.539 22.6037 114.47 22.53L112 20.0613L109.53 22.53C109.388 22.6625 109.2 22.7346 109.005 22.7312C108.811 22.7277 108.626 22.649 108.488 22.5116C108.351 22.3742 108.272 22.1888 108.269 21.9945C108.265 21.8002 108.338 21.6122 108.47 21.47L110.939 19L108.47 16.53C108.396 16.4613 108.337 16.3785 108.296 16.2865C108.255 16.1945 108.233 16.0952 108.231 15.9945C108.23 15.8938 108.248 15.7938 108.286 15.7004C108.324 15.607 108.38 15.5222 108.451 15.451C108.522 15.3797 108.607 15.3236 108.7 15.2859C108.794 15.2482 108.894 15.2296 108.995 15.2314C109.095 15.2332 109.195 15.2552 109.287 15.2962C109.379 15.3372 109.461 15.3963 109.53 15.47L112 17.9387L114.47 15.47C114.611 15.3295 114.801 15.2507 115 15.2507C115.199 15.2507 115.389 15.3295 115.53 15.47Z" fill="currentColor"/>
<path d="M171.061 9.94L164.061 2.94C163.922 2.80052 163.757 2.68987 163.574 2.61437C163.392 2.53887 163.197 2.50001 163 2.5H151C150.337 2.5 149.701 2.76339 149.232 3.23223C148.763 3.70107 148.5 4.33696 148.5 5V27C148.5 27.663 148.763 28.2989 149.232 28.7678C149.701 29.2366 150.337 29.5 151 29.5H169C169.663 29.5 170.299 29.2366 170.768 28.7678C171.237 28.2989 171.5 27.663 171.5 27V11C171.5 10.6025 171.342 10.2212 171.061 9.94ZM166.875 10H164V7.125L166.875 10ZM151.5 26.5V5.5H161V11.5C161 11.8978 161.158 12.2794 161.439 12.5607C161.721 12.842 162.102 13 162.5 13H168.5V26.5H151.5ZM164.061 17.0613L162.125 19L164.065 20.9387C164.347 21.2205 164.505 21.6027 164.505 22.0012C164.505 22.3998 164.347 22.782 164.065 23.0637C163.783 23.3455 163.401 23.5039 163.003 23.5039C162.604 23.5039 162.222 23.3455 161.94 23.0637L160 21.125L158.061 23.065C157.779 23.3468 157.397 23.5051 156.999 23.5051C156.6 23.5051 156.218 23.3468 155.936 23.065C155.654 22.7832 155.496 22.401 155.496 22.0025C155.496 21.604 155.654 21.2218 155.936 20.94L157.875 19L155.939 17.0613C155.799 16.9217 155.689 16.7561 155.613 16.5738C155.538 16.3915 155.499 16.1961 155.499 15.9987C155.499 15.8014 155.538 15.606 155.613 15.4237C155.689 15.2414 155.799 15.0758 155.939 14.9362C156.078 14.7967 156.244 14.686 156.426 14.6105C156.609 14.535 156.804 14.4961 157.001 14.4961C157.199 14.4961 157.394 14.535 157.576 14.6105C157.759 14.686 157.924 14.7967 158.064 14.9362L160 16.875L161.939 14.935C162.078 14.7955 162.244 14.6848 162.426 14.6093C162.609 14.5338 162.804 14.4949 163.001 14.4949C163.199 14.4949 163.394 14.5338 163.576 14.6093C163.759 14.6848 163.924 14.7955 164.064 14.935C164.203 15.0745 164.314 15.2402 164.389 15.4225C164.465 15.6048 164.504 15.8002 164.504 15.9975C164.504 16.1948 164.465 16.3902 164.389 16.5725C164.314 16.7548 164.203 16.9205 164.064 17.06L164.061 17.0613Z" fill="currentColor"/>
<path d="M218.708 10.2925L211.708 3.2925C211.615 3.19967 211.504 3.12605 211.383 3.07586C211.261 3.02568 211.131 2.9999 211 3H199C198.47 3 197.961 3.21071 197.586 3.58579C197.211 3.96086 197 4.46957 197 5V27C197 27.5304 197.211 28.0391 197.586 28.4142C197.961 28.7893 198.47 29 199 29H217C217.53 29 218.039 28.7893 218.414 28.4142C218.789 28.0391 219 27.5304 219 27V11C219 10.8686 218.974 10.7385 218.924 10.6172C218.874 10.4958 218.8 10.3854 218.708 10.2925ZM211.708 21.2925C211.8 21.3854 211.874 21.4957 211.924 21.6171C211.975 21.7385 212.001 21.8686 212.001 22C212.001 22.1314 211.975 22.2615 211.924 22.3829C211.874 22.5043 211.8 22.6146 211.708 22.7075C211.615 22.8004 211.504 22.8741 211.383 22.9244C211.262 22.9747 211.131 23.0006 211 23.0006C210.869 23.0006 210.738 22.9747 210.617 22.9244C210.496 22.8741 210.385 22.8004 210.292 22.7075L208 20.4137L205.708 22.7075C205.615 22.8004 205.504 22.8741 205.383 22.9244C205.262 22.9747 205.131 23.0006 205 23.0006C204.869 23.0006 204.738 22.9747 204.617 22.9244C204.496 22.8741 204.385 22.8004 204.292 22.7075C204.2 22.6146 204.126 22.5043 204.076 22.3829C204.025 22.2615 203.999 22.1314 203.999 22C203.999 21.8686 204.025 21.7385 204.076 21.6171C204.126 21.4957 204.2 21.3854 204.292 21.2925L206.586 19L204.292 16.7075C204.105 16.5199 203.999 16.2654 203.999 16C203.999 15.7346 204.105 15.4801 204.292 15.2925C204.48 15.1049 204.735 14.9994 205 14.9994C205.265 14.9994 205.52 15.1049 205.708 15.2925L208 17.5863L210.292 15.2925C210.385 15.1996 210.496 15.1259 210.617 15.0756C210.738 15.0253 210.869 14.9994 211 14.9994C211.131 14.9994 211.262 15.0253 211.383 15.0756C211.504 15.1259 211.615 15.1996 211.708 15.2925C211.8 15.3854 211.874 15.4957 211.924 15.6171C211.975 15.7385 212.001 15.8686 212.001 16C212.001 16.1314 211.975 16.2615 211.924 16.3829C211.874 16.5043 211.8 16.6146 211.708 16.7075L209.414 19L211.708 21.2925ZM211 11V5.5L216.5 11H211Z" fill="currentColor"/>
<path opacity="0.2" d="M266 11H259V4L266 11Z" fill="currentColor"/>
<path d="M266.708 10.2925L259.708 3.2925C259.615 3.19967 259.504 3.12605 259.383 3.07586C259.261 3.02568 259.131 2.9999 259 3H247C246.47 3 245.961 3.21071 245.586 3.58579C245.211 3.96086 245 4.46957 245 5V27C245 27.5304 245.211 28.0391 245.586 28.4142C245.961 28.7893 246.47 29 247 29H265C265.53 29 266.039 28.7893 266.414 28.4142C266.789 28.0391 267 27.5304 267 27V11C267 10.8686 266.974 10.7385 266.924 10.6172C266.874 10.4958 266.8 10.3854 266.708 10.2925ZM260 6.41375L263.586 10H260V6.41375ZM265 27H247V5H258V11C258 11.2652 258.105 11.5196 258.293 11.7071C258.48 11.8946 258.735 12 259 12H265V27ZM259.708 16.7075L257.414 19L259.708 21.2925C259.8 21.3854 259.874 21.4957 259.924 21.6171C259.975 21.7385 260.001 21.8686 260.001 22C260.001 22.1314 259.975 22.2615 259.924 22.3829C259.874 22.5043 259.8 22.6146 259.708 22.7075C259.615 22.8004 259.504 22.8741 259.383 22.9244C259.262 22.9747 259.131 23.0006 259 23.0006C258.869 23.0006 258.738 22.9747 258.617 22.9244C258.496 22.8741 258.385 22.8004 258.292 22.7075L256 20.4137L253.708 22.7075C253.615 22.8004 253.504 22.8741 253.383 22.9244C253.262 22.9747 253.131 23.0006 253 23.0006C252.869 23.0006 252.738 22.9747 252.617 22.9244C252.496 22.8741 252.385 22.8004 252.292 22.7075C252.2 22.6146 252.126 22.5043 252.076 22.3829C252.025 22.2615 251.999 22.1314 251.999 22C251.999 21.8686 252.025 21.7385 252.076 21.6171C252.126 21.4957 252.2 21.3854 252.292 21.2925L254.586 19L252.292 16.7075C252.105 16.5199 251.999 16.2654 251.999 16C251.999 15.7346 252.105 15.4801 252.292 15.2925C252.48 15.1049 252.735 14.9994 253 14.9994C253.265 14.9994 253.52 15.1049 253.708 15.2925L256 17.5863L258.292 15.2925C258.385 15.1996 258.496 15.1259 258.617 15.0756C258.738 15.0253 258.869 14.9994 259 14.9994C259.131 14.9994 259.262 15.0253 259.383 15.0756C259.504 15.1259 259.615 15.1996 259.708 15.2925C259.8 15.3854 259.874 15.4957 259.924 15.6171C259.975 15.7385 260.001 15.8686 260.001 16C260.001 16.1314 259.975 16.2615 259.924 16.3829C259.874 16.5043 259.8 16.6146 259.708 16.7075Z" fill="currentColor"/>
</g>
<defs>
<clipPath id="clip0_17_9910">
<rect width="272" height="32" rx="5" fill="white"/>
</clipPath>
</defs>
</svg>
