<svg width="272" height="32" viewBox="0 0 272 32" fill="none" xmlns="http://www.w3.org/2000/svg">
<g clip-path="url(#clip0_17_10246)">
<path d="M6 22.5C6 23.875 6.8975 25 8 25C8.24131 24.9946 8.47899 24.9402 8.69861 24.84C8.91822 24.7399 9.11518 24.5961 9.2775 24.4175C9.36701 24.3177 9.47568 24.2369 9.59705 24.1799C9.71842 24.1229 9.85 24.0909 9.98398 24.0858C10.118 24.0808 10.2516 24.1026 10.3769 24.1502C10.5023 24.1978 10.6168 24.2701 10.7136 24.3629C10.8105 24.4556 10.8877 24.5668 10.9406 24.69C10.9936 24.8132 11.0213 24.9457 11.022 25.0798C11.0227 25.2139 10.9964 25.3467 10.9448 25.4705C10.8931 25.5942 10.8171 25.7062 10.7212 25.8C10.3735 26.175 9.95265 26.4749 9.48467 26.6813C9.01669 26.8877 8.51145 26.9961 8 27C5.79375 27 4 24.9813 4 22.5C4 20.0187 5.79375 18 8 18C8.51145 18.0039 9.01669 18.1123 9.48467 18.3187C9.95265 18.5251 10.3735 18.825 10.7212 19.2C10.8171 19.2938 10.8931 19.4058 10.9448 19.5295C10.9964 19.6533 11.0227 19.7861 11.022 19.9202C11.0213 20.0543 10.9936 20.1868 10.9406 20.31C10.8877 20.4332 10.8105 20.5444 10.7136 20.6371C10.6168 20.7299 10.5023 20.8022 10.3769 20.8498C10.2516 20.8974 10.118 20.9192 9.98398 20.9142C9.85 20.9091 9.71842 20.8771 9.59705 20.8201C9.47568 20.7631 9.36701 20.6823 9.2775 20.5825C9.11518 20.4039 8.91822 20.2601 8.69861 20.16C8.47899 20.0598 8.24131 20.0054 8 20C6.8975 20 6 21.125 6 22.5ZM15.95 21.4137C15.45 21.2687 14.9325 21.12 14.6438 20.9338C14.4862 20.8325 14.49 20.8088 14.5037 20.6963C14.5056 20.6054 14.5293 20.5162 14.5728 20.4364C14.6163 20.3566 14.6784 20.2883 14.7537 20.2375C15.3287 19.8475 16.6713 20.0212 17.2325 20.1675C17.4891 20.235 17.762 20.1977 17.9911 20.064C18.2203 19.9303 18.3869 19.711 18.4544 19.4544C18.5218 19.1978 18.4846 18.9249 18.3509 18.6957C18.2171 18.4666 17.9978 18.3 17.7412 18.2325C17.4762 18.1637 15.1163 17.58 13.6375 18.5775C13.3243 18.7874 13.0612 19.0636 12.8668 19.3865C12.6724 19.7095 12.5514 20.0713 12.5125 20.4463C12.2625 22.4313 14.2175 22.9975 15.3875 23.335C16.8962 23.7712 17.0288 23.95 16.985 24.2838C16.9463 24.585 16.8275 24.7013 16.7175 24.775C16.1425 25.1575 14.8212 24.97 14.2738 24.82C14.0195 24.7526 13.749 24.788 13.5207 24.9186C13.2924 25.0492 13.1248 25.2645 13.0541 25.5178C12.9834 25.7711 13.0154 26.0421 13.1431 26.272C13.2707 26.5019 13.4839 26.6723 13.7362 26.7463C14.3558 26.9086 14.9933 26.9926 15.6337 26.9963C16.3625 26.9963 17.1712 26.8713 17.82 26.4387C18.1402 26.226 18.4093 25.9449 18.6079 25.6157C18.8065 25.2866 18.9298 24.9175 18.9688 24.535C19.25 22.375 17.185 21.7712 15.95 21.4137ZM23.95 21.4137C23.45 21.2687 22.9325 21.12 22.6437 20.9338C22.4875 20.8325 22.49 20.8088 22.5037 20.6963C22.5056 20.6054 22.5293 20.5162 22.5728 20.4364C22.6163 20.3566 22.6784 20.2883 22.7537 20.2375C23.3288 19.8475 24.6713 20.0212 25.2313 20.1675C25.4878 20.235 25.7607 20.1977 25.9899 20.064C26.219 19.9303 26.3857 19.711 26.4531 19.4544C26.5206 19.1978 26.4834 18.9249 26.3496 18.6957C26.2159 18.4666 25.9966 18.3 25.74 18.2325C25.4762 18.1637 23.115 17.58 21.6362 18.5775C21.3244 18.7882 21.0626 19.0647 20.8693 19.3876C20.676 19.7105 20.5559 20.0719 20.5175 20.4463C20.2675 22.4313 22.2237 22.9975 23.3925 23.335C24.9 23.7712 25.0325 23.95 24.99 24.2838C24.9513 24.585 24.8325 24.7013 24.7213 24.775C24.1462 25.1575 22.8263 24.97 22.2787 24.82C22.0228 24.7487 21.7491 24.782 21.5177 24.9126C21.2863 25.0432 21.1163 25.2603 21.045 25.5163C20.9737 25.7722 21.007 26.0459 21.1376 26.2773C21.2682 26.5087 21.4853 26.6787 21.7412 26.75C22.3612 26.9124 22.9991 26.9963 23.64 27C24.3675 27 25.1775 26.875 25.8263 26.4425C26.1463 26.2297 26.4152 25.9485 26.6136 25.6194C26.812 25.2902 26.935 24.9211 26.9737 24.5387C27.25 22.375 25.185 21.7712 23.9487 21.4137H23.95ZM5 14V5C5 4.46957 5.21071 3.96086 5.58579 3.58579C5.96086 3.21071 6.46957 3 7 3H19C19.1314 2.9999 19.2615 3.02568 19.3829 3.07586C19.5042 3.12605 19.6146 3.19967 19.7075 3.2925L26.7075 10.2925C26.8003 10.3854 26.8739 10.4958 26.9241 10.6172C26.9743 10.7385 27.0001 10.8686 27 11V14C27 14.2652 26.8946 14.5196 26.7071 14.7071C26.5196 14.8946 26.2652 15 26 15C25.7348 15 25.4804 14.8946 25.2929 14.7071C25.1054 14.5196 25 14.2652 25 14V12H19C18.7348 12 18.4804 11.8946 18.2929 11.7071C18.1054 11.5196 18 11.2652 18 11V5H7V14C7 14.2652 6.89464 14.5196 6.70711 14.7071C6.51957 14.8946 6.26522 15 6 15C5.73478 15 5.48043 14.8946 5.29289 14.7071C5.10536 14.5196 5 14.2652 5 14ZM20 10H23.585L20 6.41375V10Z" fill="currentColor"/>
<path d="M53.5 22.5C53.5 24.1537 54.625 25.5 56 25.5C56.309 25.4952 56.6137 25.4272 56.8955 25.3004C57.1773 25.1736 57.4302 24.9906 57.6388 24.7625C57.7306 24.6667 57.8567 24.6113 57.9894 24.6085C58.1221 24.6057 58.2504 24.6557 58.3462 24.7475C58.4421 24.8393 58.4975 24.9655 58.5003 25.0981C58.5031 25.2308 58.4531 25.3592 58.3612 25.455C58.0594 25.7805 57.6943 26.0411 57.2883 26.2207C56.8823 26.4004 56.4439 26.4954 56 26.5C54.07 26.5 52.5 24.705 52.5 22.5C52.5 20.295 54.07 18.5 56 18.5C56.4439 18.5046 56.8823 18.5996 57.2883 18.7793C57.6943 18.9589 58.0594 19.2195 58.3612 19.545C58.4531 19.6408 58.5031 19.7692 58.5003 19.9019C58.4975 20.0345 58.4421 20.1607 58.3462 20.2525C58.2504 20.3443 58.1221 20.3943 57.9894 20.3915C57.8567 20.3887 57.7306 20.3333 57.6388 20.2375C57.4302 20.0094 57.1773 19.8264 56.8955 19.6996C56.6137 19.5728 56.309 19.5048 56 19.5C54.625 19.5 53.5 20.8463 53.5 22.5ZM63.8112 21.8937C62.495 21.5187 61.9262 21.28 62.0075 20.6338C62.0191 20.4719 62.0673 20.3147 62.1485 20.1742C62.2297 20.0336 62.3418 19.9134 62.4762 19.8225C63.2587 19.2937 64.8225 19.5425 65.36 19.6838C65.4863 19.7113 65.6185 19.6889 65.7286 19.6211C65.8387 19.5533 65.9184 19.4455 65.9507 19.3203C65.9831 19.1951 65.9656 19.0623 65.9021 18.9496C65.8386 18.837 65.7339 18.7533 65.61 18.7162C65.1804 18.6114 64.7425 18.5441 64.3013 18.515C63.2863 18.4475 62.4837 18.6088 61.9137 18.9925C61.6613 19.1636 61.4496 19.3881 61.2936 19.6501C61.1377 19.9121 61.0413 20.2053 61.0112 20.5088C60.8137 22.07 62.3188 22.5087 63.5288 22.855C64.935 23.2612 65.5875 23.5413 65.4825 24.3475C65.4703 24.5158 65.4201 24.6792 65.3357 24.8254C65.2512 24.9715 65.1348 25.0966 64.995 25.1912C64.21 25.7125 62.6687 25.4475 62.1412 25.3013C62.0772 25.2808 62.0097 25.2735 61.9428 25.2797C61.8759 25.2859 61.8109 25.3055 61.7517 25.3375C61.6926 25.3694 61.6404 25.4129 61.5985 25.4654C61.5565 25.5179 61.5256 25.5783 61.5075 25.6431C61.4894 25.7078 61.4846 25.7755 61.4933 25.8422C61.502 25.9088 61.524 25.973 61.5581 26.031C61.5921 26.0889 61.6376 26.1394 61.6916 26.1794C61.7456 26.2194 61.8071 26.2481 61.8725 26.2638C62.4525 26.4159 63.0492 26.4953 63.6488 26.5C64.2963 26.5 65.0025 26.3925 65.5513 26.0287C65.8106 25.8544 66.0283 25.625 66.1888 25.3568C66.3494 25.0887 66.4488 24.7885 66.48 24.4775C66.705 22.73 65.0325 22.25 63.8112 21.8937ZM71.8113 21.8937C70.495 21.5187 69.9263 21.28 70.0075 20.6338C70.0191 20.4719 70.0673 20.3147 70.1485 20.1742C70.2297 20.0336 70.3418 19.9134 70.4762 19.8225C71.2587 19.2937 72.8225 19.5425 73.36 19.6838C73.4863 19.7113 73.6185 19.6889 73.7286 19.6211C73.8387 19.5533 73.9184 19.4455 73.9507 19.3203C73.9831 19.1951 73.9656 19.0623 73.9021 18.9496C73.8386 18.837 73.7339 18.7533 73.61 18.7162C73.18 18.6115 72.7417 18.5441 72.3 18.515C71.2862 18.4475 70.4825 18.6088 69.9137 18.9925C69.6613 19.1636 69.4496 19.3881 69.2936 19.6501C69.1377 19.9121 69.0413 20.2053 69.0112 20.5088C68.8125 22.07 70.3187 22.5087 71.5287 22.855C72.935 23.2612 73.5863 23.5413 73.4825 24.3475C73.4703 24.5158 73.4201 24.6792 73.3357 24.8254C73.2512 24.9715 73.1348 25.0966 72.995 25.1912C72.21 25.7125 70.6688 25.4475 70.1413 25.3013C70.0772 25.2808 70.0097 25.2735 69.9428 25.2797C69.8759 25.2859 69.8109 25.3055 69.7517 25.3375C69.6926 25.3694 69.6404 25.4129 69.5985 25.4654C69.5565 25.5179 69.5256 25.5783 69.5075 25.6431C69.4894 25.7078 69.4846 25.7755 69.4933 25.8422C69.502 25.9088 69.524 25.973 69.5581 26.031C69.5921 26.0889 69.6376 26.1394 69.6916 26.1794C69.7456 26.2194 69.8071 26.2481 69.8725 26.2638C70.4525 26.416 71.0491 26.4954 71.6488 26.5C72.295 26.5 73.0025 26.3925 73.5513 26.0287C73.8106 25.8544 74.0283 25.625 74.1888 25.3568C74.3494 25.0887 74.4488 24.7885 74.48 24.4775C74.7037 22.73 73.0325 22.25 71.8113 21.8937ZM73.5 11.5H67C66.8674 11.5 66.7402 11.4473 66.6464 11.3536C66.5527 11.2598 66.5 11.1326 66.5 11V4.5H55C54.8674 4.5 54.7402 4.55268 54.6464 4.64645C54.5527 4.74022 54.5 4.86739 54.5 5V14C54.5 14.1326 54.4473 14.2598 54.3536 14.3536C54.2598 14.4473 54.1326 14.5 54 14.5C53.8674 14.5 53.7402 14.4473 53.6464 14.3536C53.5527 14.2598 53.5 14.1326 53.5 14V5C53.5 4.60218 53.658 4.22064 53.9393 3.93934C54.2206 3.65804 54.6022 3.5 55 3.5H67C67.0657 3.49995 67.1307 3.51284 67.1914 3.53793C67.2521 3.56303 67.3073 3.59983 67.3538 3.64625L74.3538 10.6462C74.4002 10.6927 74.437 10.7479 74.4621 10.8086C74.4872 10.8693 74.5001 10.9343 74.5 11V14C74.5 14.1326 74.4473 14.2598 74.3536 14.3536C74.2598 14.4473 74.1326 14.5 74 14.5C73.8674 14.5 73.7402 14.4473 73.6464 14.3536C73.5527 14.2598 73.5 14.1326 73.5 14V11.5ZM72.7938 10.5L67.5 5.20625V10.5H72.7938Z" fill="currentColor"/>
<path d="M101.75 22.5C101.75 24.0163 102.759 25.25 104 25.25C104.275 25.2447 104.546 25.1834 104.797 25.07C105.047 24.9565 105.272 24.7932 105.458 24.59C105.595 24.4463 105.784 24.3631 105.983 24.3588C106.182 24.3544 106.374 24.4293 106.518 24.5669C106.662 24.7045 106.745 24.8935 106.749 25.0924C106.754 25.2913 106.679 25.4838 106.541 25.6275C106.216 25.9776 105.823 26.2578 105.386 26.4508C104.949 26.6438 104.478 26.7456 104 26.75C101.932 26.75 100.25 24.8438 100.25 22.5C100.25 20.1562 101.932 18.25 104 18.25C104.478 18.2547 104.95 18.3569 105.387 18.5504C105.824 18.7438 106.217 19.0244 106.541 19.375C106.609 19.4462 106.663 19.53 106.699 19.6219C106.734 19.7137 106.751 19.8116 106.749 19.9101C106.747 20.0086 106.726 20.1057 106.686 20.1959C106.646 20.286 106.589 20.3675 106.518 20.4356C106.447 20.5037 106.363 20.5572 106.271 20.5929C106.179 20.6286 106.082 20.6459 105.983 20.6437C105.885 20.6416 105.787 20.6201 105.697 20.5804C105.607 20.5407 105.526 20.4837 105.458 20.4125C105.272 20.2089 105.048 20.0451 104.797 19.9312C104.546 19.8173 104.275 19.7556 104 19.75C102.759 19.75 101.75 20.9825 101.75 22.5ZM111.875 21.6537C110.519 21.2625 110.2 21.0675 110.25 20.665C110.257 20.5385 110.293 20.4154 110.355 20.3052C110.418 20.1951 110.505 20.1009 110.61 20.03C111.309 19.5563 112.818 19.8025 113.29 19.925C113.386 19.9527 113.487 19.961 113.586 19.9492C113.685 19.9375 113.781 19.9061 113.868 19.8568C113.955 19.8075 114.031 19.7413 114.092 19.6621C114.153 19.5829 114.198 19.4923 114.223 19.3957C114.249 19.2991 114.255 19.1983 114.241 19.0993C114.227 19.0004 114.193 18.9052 114.142 18.8194C114.09 18.7337 114.022 18.659 113.942 18.5999C113.861 18.5407 113.77 18.4983 113.673 18.475C113.423 18.4088 111.161 17.85 109.773 18.785C109.49 18.9759 109.254 19.2264 109.079 19.5189C108.904 19.8113 108.796 20.1386 108.761 20.4775C108.537 22.2513 110.295 22.7587 111.458 23.095C112.973 23.5325 113.305 23.7613 113.234 24.315C113.227 24.4476 113.19 24.5769 113.125 24.6927C113.059 24.8085 112.968 24.9077 112.859 24.9825C112.159 25.4487 110.674 25.1875 110.211 25.06C110.114 25.024 110.01 25.0085 109.907 25.0146C109.803 25.0207 109.702 25.0483 109.61 25.0954C109.517 25.1426 109.436 25.2084 109.37 25.2887C109.304 25.3691 109.256 25.4621 109.228 25.562C109.201 25.6619 109.194 25.7665 109.208 25.8692C109.223 25.9719 109.259 26.0704 109.313 26.1586C109.368 26.2467 109.44 26.3226 109.526 26.3814C109.611 26.4401 109.708 26.4805 109.81 26.5C110.408 26.6596 111.024 26.7436 111.644 26.75C112.33 26.75 113.087 26.6313 113.689 26.2325C113.978 26.0392 114.222 25.7842 114.401 25.4857C114.581 25.1873 114.692 24.8528 114.728 24.5063C114.979 22.5487 113.115 22.01 111.875 21.6525V21.6537ZM119.875 21.6537C118.519 21.2625 118.199 21.0675 118.25 20.665C118.257 20.5386 118.293 20.4156 118.356 20.3054C118.418 20.1953 118.505 20.1011 118.61 20.03C119.31 19.5563 120.816 19.8012 121.29 19.925C121.482 19.9736 121.684 19.9446 121.855 19.8445C122.025 19.7443 122.149 19.5809 122.199 19.3899C122.25 19.1989 122.223 18.9957 122.125 18.8244C122.026 18.6531 121.864 18.5275 121.674 18.475C121.424 18.4075 119.161 17.85 117.772 18.785C117.491 18.9762 117.254 19.2268 117.08 19.5192C116.905 19.8116 116.797 20.1387 116.763 20.4775C116.538 22.2513 118.295 22.7587 119.459 23.095C120.974 23.5325 121.305 23.7613 121.234 24.315C121.227 24.4477 121.19 24.5771 121.125 24.693C121.06 24.8089 120.969 24.908 120.859 24.9825C120.157 25.4487 118.674 25.1875 118.21 25.06C118.025 25.0247 117.834 25.0601 117.674 25.1593C117.514 25.2584 117.397 25.4141 117.347 25.5953C117.296 25.7766 117.316 25.9702 117.401 26.1378C117.487 26.3054 117.632 26.4347 117.809 26.5C118.408 26.6596 119.024 26.7436 119.644 26.75C120.33 26.75 121.086 26.6313 121.689 26.2325C121.978 26.0392 122.222 25.7842 122.401 25.4857C122.581 25.1873 122.692 24.8528 122.728 24.5063C122.979 22.5487 121.114 22.01 119.875 21.6525V21.6537ZM121.25 11.75H115C114.801 11.75 114.61 11.671 114.47 11.5303C114.329 11.3897 114.25 11.1989 114.25 11V4.75H103C102.934 4.75 102.87 4.77634 102.823 4.82322C102.776 4.87011 102.75 4.9337 102.75 5V14C102.75 14.1989 102.671 14.3897 102.53 14.5303C102.39 14.671 102.199 14.75 102 14.75C101.801 14.75 101.61 14.671 101.47 14.5303C101.329 14.3897 101.25 14.1989 101.25 14V5C101.25 4.53587 101.434 4.09075 101.763 3.76256C102.091 3.43437 102.536 3.25 103 3.25H115C115.199 3.25018 115.389 3.32931 115.53 3.47L122.53 10.47C122.671 10.6105 122.75 10.8012 122.75 11V14C122.75 14.1989 122.671 14.3897 122.53 14.5303C122.39 14.671 122.199 14.75 122 14.75C121.801 14.75 121.61 14.671 121.47 14.5303C121.329 14.3897 121.25 14.1989 121.25 14V11.75ZM120.188 10.25L115.75 5.81V10.25H120.188Z" fill="currentColor"/>
<path d="M150 22.5C150 23.5837 150.688 24.5 151.5 24.5C151.674 24.4943 151.845 24.4534 152.002 24.3797C152.16 24.306 152.301 24.201 152.416 24.0713C152.691 23.7838 153.069 23.6175 153.467 23.6088C153.865 23.6001 154.25 23.7498 154.538 24.025C154.825 24.3002 154.991 24.6782 155 25.076C155.009 25.4739 154.859 25.8588 154.584 26.1462C154.189 26.5701 153.712 26.9088 153.182 27.1416C152.651 27.3744 152.079 27.4964 151.5 27.5C149.019 27.5 147 25.25 147 22.5C147 19.75 149.019 17.5 151.5 17.5C152.079 17.5036 152.651 17.6256 153.182 17.8584C153.712 18.0912 154.189 18.4299 154.584 18.8538C154.859 19.1412 155.009 19.5261 155 19.924C154.991 20.3218 154.825 20.6998 154.538 20.975C154.25 21.2502 153.865 21.3999 153.467 21.3912C153.069 21.3825 152.691 21.2162 152.416 20.9287C152.301 20.799 152.16 20.694 152.002 20.6203C151.845 20.5466 151.674 20.5057 151.5 20.5C150.688 20.5 150 21.4137 150 22.5ZM162.189 21.7862C161.549 21.355 160.774 21.1313 160.089 20.9338C159.754 20.8432 159.424 20.7351 159.1 20.61C159.406 20.4625 160.314 20.4475 161.109 20.6513C161.493 20.7529 161.903 20.6975 162.247 20.4973C162.591 20.2971 162.841 19.9685 162.942 19.5837C163.044 19.199 162.989 18.7897 162.789 18.4458C162.588 18.1019 162.26 17.8516 161.875 17.75C161.383 17.6286 160.881 17.5508 160.375 17.5175C159.134 17.435 158.125 17.6525 157.363 18.1637C156.991 18.4133 156.678 18.7415 156.447 19.1251C156.217 19.5088 156.073 19.9384 156.026 20.3838C155.889 21.4763 156.337 22.4175 157.29 23.0325C157.887 23.4187 158.585 23.62 159.259 23.815C159.634 23.9263 160.251 24.1025 160.494 24.2563C160.489 24.287 160.481 24.3169 160.468 24.345C160.296 24.5387 159.27 24.5688 158.419 24.3375C158.228 24.2803 158.027 24.2617 157.829 24.2829C157.631 24.304 157.439 24.3645 157.264 24.4606C157.09 24.5568 156.936 24.6868 156.812 24.8431C156.689 24.9993 156.597 25.1786 156.544 25.3706C156.49 25.5626 156.475 25.7633 156.5 25.961C156.525 26.1588 156.589 26.3496 156.688 26.5224C156.788 26.6952 156.92 26.8464 157.079 26.9672C157.237 27.0881 157.418 27.1761 157.611 27.2262C158.272 27.4041 158.953 27.4961 159.637 27.5C160.445 27.5 161.354 27.3538 162.104 26.8563C162.484 26.6051 162.803 26.2733 163.04 25.8843C163.276 25.4954 163.424 25.0589 163.472 24.6063C163.625 23.4412 163.166 22.4412 162.189 21.7838V21.7862ZM170.689 21.7862C170.049 21.355 169.274 21.1313 168.589 20.9338C168.254 20.8432 167.924 20.7351 167.6 20.61C167.906 20.4625 168.814 20.4475 169.609 20.6513C169.993 20.7529 170.403 20.6975 170.747 20.4973C171.091 20.2971 171.341 19.9685 171.442 19.5837C171.544 19.199 171.489 18.7897 171.289 18.4458C171.088 18.1019 170.76 17.8516 170.375 17.75C169.883 17.6286 169.381 17.5508 168.875 17.5175C167.634 17.435 166.625 17.6525 165.862 18.1637C165.491 18.4133 165.178 18.7415 164.947 19.1251C164.717 19.5088 164.573 19.9384 164.526 20.3838C164.389 21.4763 164.838 22.4175 165.79 23.0325C166.388 23.4187 167.085 23.62 167.759 23.815C168.134 23.9263 168.751 24.1025 168.994 24.2563C168.989 24.287 168.981 24.3169 168.968 24.345C168.796 24.5387 167.77 24.5688 166.919 24.3375C166.728 24.2803 166.527 24.2617 166.329 24.2829C166.131 24.304 165.939 24.3645 165.764 24.4606C165.59 24.5568 165.436 24.6868 165.312 24.8431C165.189 24.9993 165.097 25.1786 165.044 25.3706C164.99 25.5626 164.975 25.7633 165 25.961C165.025 26.1588 165.089 26.3496 165.188 26.5224C165.288 26.6952 165.42 26.8464 165.579 26.9672C165.737 27.0881 165.918 27.1761 166.111 27.2262C166.772 27.4041 167.453 27.4961 168.138 27.5C168.945 27.5 169.854 27.3538 170.604 26.8563C170.984 26.6051 171.303 26.2733 171.54 25.8843C171.776 25.4954 171.924 25.0589 171.972 24.6063C172.125 23.4412 171.666 22.4412 170.689 21.7838V21.7862ZM148.5 13.5V5C148.5 4.33696 148.763 3.70107 149.232 3.23223C149.701 2.76339 150.337 2.5 151 2.5H163C163.197 2.49985 163.392 2.53851 163.574 2.6138C163.756 2.68908 163.922 2.7995 164.061 2.93875L171.061 9.93875C171.201 10.0782 171.311 10.2436 171.386 10.4257C171.461 10.6078 171.5 10.803 171.5 11V13.5C171.5 13.8978 171.342 14.2794 171.061 14.5607C170.779 14.842 170.398 15 170 15C169.602 15 169.221 14.842 168.939 14.5607C168.658 14.2794 168.5 13.8978 168.5 13.5V13H162.5C162.102 13 161.721 12.842 161.439 12.5607C161.158 12.2794 161 11.8978 161 11.5V5.5H151.5V13.5C151.5 13.8978 151.342 14.2794 151.061 14.5607C150.779 14.842 150.398 15 150 15C149.602 15 149.221 14.842 148.939 14.5607C148.658 14.2794 148.5 13.8978 148.5 13.5ZM164 10H166.875L164 7.125V10Z" fill="currentColor"/>
<path d="M198 22.5C198 23.875 198.898 25 200 25C200.241 24.9946 200.479 24.9402 200.699 24.84C200.918 24.7399 201.115 24.5961 201.278 24.4175C201.367 24.3177 201.476 24.2369 201.597 24.1799C201.718 24.1229 201.85 24.0909 201.984 24.0858C202.118 24.0808 202.252 24.1026 202.377 24.1502C202.502 24.1978 202.617 24.2701 202.714 24.3629C202.81 24.4556 202.888 24.5668 202.941 24.69C202.994 24.8132 203.021 24.9457 203.022 25.0798C203.023 25.2139 202.996 25.3467 202.945 25.4705C202.893 25.5942 202.817 25.7062 202.721 25.8C202.373 26.175 201.953 26.4749 201.485 26.6813C201.017 26.8877 200.511 26.9961 200 27C197.794 27 196 24.9813 196 22.5C196 20.0187 197.794 18 200 18C200.511 18.0039 201.017 18.1123 201.485 18.3187C201.953 18.5251 202.373 18.825 202.721 19.2C202.817 19.2938 202.893 19.4058 202.945 19.5295C202.996 19.6533 203.023 19.7861 203.022 19.9202C203.021 20.0543 202.994 20.1868 202.941 20.31C202.888 20.4332 202.81 20.5444 202.714 20.6371C202.617 20.7299 202.502 20.8022 202.377 20.8498C202.252 20.8974 202.118 20.9192 201.984 20.9142C201.85 20.9091 201.718 20.8771 201.597 20.8201C201.476 20.7631 201.367 20.6823 201.278 20.5825C201.115 20.4036 200.918 20.2597 200.699 20.1596C200.479 20.0594 200.241 20.0051 200 20C198.898 20 198 21.125 198 22.5ZM207.95 21.4137C207.45 21.2687 206.932 21.12 206.644 20.9338C206.486 20.8325 206.49 20.8088 206.504 20.6963C206.506 20.6054 206.529 20.5162 206.573 20.4364C206.616 20.3566 206.678 20.2883 206.754 20.2375C207.329 19.8475 208.672 20.0212 209.233 20.1675C209.489 20.235 209.762 20.1977 209.991 20.064C210.22 19.9303 210.387 19.711 210.454 19.4544C210.522 19.1978 210.485 18.9249 210.351 18.6957C210.217 18.4666 209.998 18.3 209.741 18.2325C209.476 18.1637 207.116 17.58 205.637 18.5775C205.324 18.7874 205.061 19.0636 204.867 19.3865C204.672 19.7095 204.551 20.0713 204.512 20.4463C204.262 22.4313 206.217 22.9975 207.387 23.335C208.896 23.7712 209.029 23.95 208.985 24.2838C208.946 24.585 208.828 24.7013 208.718 24.775C208.143 25.1575 206.821 24.97 206.274 24.82C206.02 24.7526 205.749 24.788 205.521 24.9186C205.292 25.0492 205.125 25.2645 205.054 25.5178C204.983 25.7711 205.015 26.0421 205.143 26.272C205.271 26.5019 205.484 26.6723 205.736 26.7463C206.356 26.9086 206.993 26.9926 207.634 26.9963C208.363 26.9963 209.171 26.8713 209.82 26.4387C210.14 26.226 210.409 25.9449 210.608 25.6157C210.807 25.2866 210.93 24.9175 210.969 24.535C211.25 22.375 209.185 21.7712 207.95 21.4137ZM215.95 21.4137C215.45 21.2687 214.932 21.12 214.644 20.9338C214.487 20.8325 214.49 20.8088 214.504 20.6963C214.506 20.6054 214.529 20.5162 214.573 20.4364C214.616 20.3566 214.678 20.2883 214.754 20.2375C215.329 19.8475 216.671 20.0212 217.231 20.1675C217.488 20.235 217.761 20.1977 217.99 20.064C218.219 19.9303 218.386 19.711 218.453 19.4544C218.521 19.1978 218.483 18.9249 218.35 18.6957C218.216 18.4666 217.997 18.3 217.74 18.2325C217.476 18.1637 215.115 17.58 213.636 18.5775C213.324 18.7882 213.063 19.0647 212.869 19.3876C212.676 19.7105 212.556 20.0719 212.517 20.4463C212.267 22.4313 214.224 22.9975 215.392 23.335C216.9 23.7712 217.032 23.95 216.99 24.2838C216.951 24.585 216.833 24.7013 216.721 24.775C216.146 25.1575 214.826 24.97 214.279 24.82C214.023 24.7487 213.749 24.782 213.518 24.9126C213.286 25.0432 213.116 25.2603 213.045 25.5163C212.974 25.7722 213.007 26.0459 213.138 26.2773C213.268 26.5087 213.485 26.6787 213.741 26.75C214.361 26.9124 214.999 26.9963 215.64 27C216.368 27 217.177 26.875 217.826 26.4425C218.146 26.2297 218.415 25.9485 218.614 25.6194C218.812 25.2902 218.935 24.9211 218.974 24.5387C219.25 22.375 217.185 21.7712 215.949 21.4137H215.95ZM197 14V5C197 4.46957 197.211 3.96086 197.586 3.58579C197.961 3.21071 198.47 3 199 3H211C211.131 2.9999 211.261 3.02568 211.383 3.07586C211.504 3.12605 211.615 3.19967 211.708 3.2925L218.708 10.2925C218.8 10.3854 218.874 10.4958 218.924 10.6172C218.974 10.7385 219 10.8686 219 11V14C219 14.2652 218.895 14.5196 218.707 14.7071C218.52 14.8946 218.265 15 218 15H198C197.735 15 197.48 14.8946 197.293 14.7071C197.105 14.5196 197 14.2652 197 14ZM211 11H216.5L211 5.5V11Z" fill="currentColor"/>
<path opacity="0.2" d="M266 11H259V4L266 11Z" fill="currentColor"/>
<path d="M246 22.5C246 23.875 246.898 25 248 25C248.241 24.9949 248.479 24.9406 248.699 24.8404C248.918 24.7403 249.115 24.5964 249.278 24.4175C249.367 24.3177 249.476 24.2369 249.597 24.1799C249.718 24.1229 249.85 24.0909 249.984 24.0858C250.118 24.0808 250.252 24.1026 250.377 24.1502C250.502 24.1978 250.617 24.2701 250.714 24.3629C250.81 24.4556 250.888 24.5668 250.941 24.69C250.994 24.8132 251.021 24.9457 251.022 25.0798C251.023 25.2139 250.996 25.3467 250.945 25.4705C250.893 25.5942 250.817 25.7062 250.721 25.8C250.373 26.175 249.953 26.4749 249.485 26.6813C249.017 26.8877 248.511 26.9961 248 27C245.794 27 244 24.9813 244 22.5C244 20.0187 245.794 18 248 18C248.511 18.0039 249.017 18.1123 249.485 18.3187C249.953 18.5251 250.373 18.825 250.721 19.2C250.817 19.2938 250.893 19.4058 250.945 19.5295C250.996 19.6533 251.023 19.7861 251.022 19.9202C251.021 20.0543 250.994 20.1868 250.941 20.31C250.888 20.4332 250.81 20.5444 250.714 20.6371C250.617 20.7299 250.502 20.8022 250.377 20.8498C250.252 20.8974 250.118 20.9192 249.984 20.9142C249.85 20.9091 249.718 20.8771 249.597 20.8201C249.476 20.7631 249.367 20.6823 249.278 20.5825C249.115 20.4039 248.918 20.2601 248.699 20.16C248.479 20.0598 248.241 20.0054 248 20C246.898 20 246 21.125 246 22.5ZM255.95 21.4137C255.45 21.2687 254.932 21.12 254.644 20.9338C254.486 20.8325 254.49 20.8088 254.504 20.6963C254.506 20.6054 254.529 20.5162 254.573 20.4364C254.616 20.3566 254.678 20.2883 254.754 20.2375C255.329 19.8475 256.672 20.0212 257.233 20.1675C257.489 20.235 257.762 20.1977 257.991 20.064C258.22 19.9303 258.387 19.711 258.454 19.4544C258.522 19.1978 258.485 18.9249 258.351 18.6957C258.217 18.4666 257.998 18.3 257.741 18.2325C257.476 18.1637 255.116 17.58 253.637 18.5775C253.324 18.7874 253.061 19.0636 252.867 19.3865C252.672 19.7095 252.551 20.0713 252.512 20.4463C252.262 22.4313 254.217 22.9975 255.387 23.335C256.896 23.7712 257.029 23.95 256.985 24.2838C256.946 24.585 256.828 24.7013 256.718 24.775C256.143 25.1575 254.821 24.97 254.274 24.82C254.02 24.7526 253.749 24.788 253.521 24.9186C253.292 25.0492 253.125 25.2645 253.054 25.5178C252.983 25.7711 253.015 26.0421 253.143 26.272C253.271 26.5019 253.484 26.6723 253.736 26.7463C254.356 26.9086 254.993 26.9926 255.634 26.9963C256.363 26.9963 257.171 26.8713 257.82 26.4387C258.14 26.226 258.409 25.9449 258.608 25.6157C258.807 25.2866 258.93 24.9175 258.969 24.535C259.25 22.375 257.185 21.7712 255.95 21.4137ZM263.95 21.4137C263.45 21.2687 262.932 21.12 262.644 20.9338C262.487 20.8325 262.49 20.8088 262.504 20.6963C262.506 20.6054 262.529 20.5162 262.573 20.4364C262.616 20.3566 262.678 20.2883 262.754 20.2375C263.329 19.8475 264.671 20.0212 265.231 20.1675C265.488 20.235 265.761 20.1977 265.99 20.064C266.219 19.9303 266.386 19.711 266.453 19.4544C266.521 19.1978 266.483 18.9249 266.35 18.6957C266.216 18.4666 265.997 18.3 265.74 18.2325C265.476 18.1637 263.115 17.58 261.636 18.5775C261.324 18.7882 261.063 19.0647 260.869 19.3876C260.676 19.7105 260.556 20.0719 260.517 20.4463C260.267 22.4313 262.224 22.9975 263.392 23.335C264.9 23.7712 265.032 23.95 264.99 24.2838C264.951 24.585 264.833 24.7013 264.721 24.775C264.146 25.1575 262.826 24.97 262.279 24.82C262.023 24.7487 261.749 24.782 261.518 24.9126C261.286 25.0432 261.116 25.2603 261.045 25.5163C260.974 25.7722 261.007 26.0459 261.138 26.2773C261.268 26.5087 261.485 26.6787 261.741 26.75C262.361 26.9124 262.999 26.9963 263.64 27C264.368 27 265.177 26.875 265.826 26.4425C266.146 26.2297 266.415 25.9485 266.614 25.6194C266.812 25.2902 266.935 24.9211 266.974 24.5387C267.25 22.375 265.185 21.7712 263.949 21.4137H263.95ZM245 14V5C245 4.46957 245.211 3.96086 245.586 3.58579C245.961 3.21071 246.47 3 247 3H259C259.131 2.9999 259.261 3.02568 259.383 3.07586C259.504 3.12605 259.615 3.19967 259.708 3.2925L266.708 10.2925C266.8 10.3854 266.874 10.4958 266.924 10.6172C266.974 10.7385 267 10.8686 267 11V14C267 14.2652 266.895 14.5196 266.707 14.7071C266.52 14.8946 266.265 15 266 15C265.735 15 265.48 14.8946 265.293 14.7071C265.105 14.5196 265 14.2652 265 14V12H259C258.735 12 258.48 11.8946 258.293 11.7071C258.105 11.5196 258 11.2652 258 11V5H247V14C247 14.2652 246.895 14.5196 246.707 14.7071C246.52 14.8946 246.265 15 246 15C245.735 15 245.48 14.8946 245.293 14.7071C245.105 14.5196 245 14.2652 245 14ZM260 10H263.585L260 6.41375V10Z" fill="currentColor"/>
</g>
<defs>
<clipPath id="clip0_17_10246">
<rect width="272" height="32" rx="5" fill="white"/>
</clipPath>
</defs>
</svg>
