<svg width="272" height="32" viewBox="0 0 272 32" fill="none" xmlns="http://www.w3.org/2000/svg">
<g clip-path="url(#clip0_17_10260)">
<path d="M22.7075 18.2925C22.8005 18.3854 22.8742 18.4957 22.9246 18.6171C22.9749 18.7385 23.0008 18.8686 23.0008 19C23.0008 19.1314 22.9749 19.2615 22.9246 19.3829C22.8742 19.5043 22.8005 19.6146 22.7075 19.7075L19.7075 22.7075C19.5199 22.8951 19.2654 23.0006 19 23.0006C18.7346 23.0006 18.4801 22.8951 18.2925 22.7075C18.1049 22.5199 17.9994 22.2654 17.9994 22C17.9994 21.7346 18.1049 21.4801 18.2925 21.2925L20.5863 19L18.2925 16.7075C18.1049 16.5199 17.9994 16.2654 17.9994 16C17.9994 15.7346 18.1049 15.4801 18.2925 15.2925C18.4801 15.1049 18.7346 14.9994 19 14.9994C19.2654 14.9994 19.5199 15.1049 19.7075 15.2925L22.7075 18.2925ZM13.7075 15.2925C13.6146 15.1995 13.5043 15.1258 13.3829 15.0754C13.2615 15.0251 13.1314 14.9992 13 14.9992C12.8686 14.9992 12.7385 15.0251 12.6171 15.0754C12.4957 15.1258 12.3854 15.1995 12.2925 15.2925L9.2925 18.2925C9.19952 18.3854 9.12576 18.4957 9.07544 18.6171C9.02512 18.7385 8.99921 18.8686 8.99921 19C8.99921 19.1314 9.02512 19.2615 9.07544 19.3829C9.12576 19.5043 9.19952 19.6146 9.2925 19.7075L12.2925 22.7075C12.3854 22.8004 12.4957 22.8741 12.6171 22.9244C12.7385 22.9747 12.8686 23.0006 13 23.0006C13.1314 23.0006 13.2615 22.9747 13.3829 22.9244C13.5043 22.8741 13.6146 22.8004 13.7075 22.7075C13.8004 22.6146 13.8741 22.5043 13.9244 22.3829C13.9747 22.2615 14.0006 22.1314 14.0006 22C14.0006 21.8686 13.9747 21.7385 13.9244 21.6171C13.8741 21.4957 13.8004 21.3854 13.7075 21.2925L11.4137 19L13.7075 16.7075C13.8005 16.6146 13.8742 16.5043 13.9246 16.3829C13.9749 16.2615 14.0008 16.1314 14.0008 16C14.0008 15.8686 13.9749 15.7385 13.9246 15.6171C13.8742 15.4957 13.8005 15.3854 13.7075 15.2925ZM27 11V27C27 27.5304 26.7893 28.0391 26.4142 28.4142C26.0391 28.7893 25.5304 29 25 29H7C6.46957 29 5.96086 28.7893 5.58579 28.4142C5.21071 28.0391 5 27.5304 5 27V5C5 4.46957 5.21071 3.96086 5.58579 3.58579C5.96086 3.21071 6.46957 3 7 3H19C19.1314 2.9999 19.2615 3.02568 19.3829 3.07586C19.5042 3.12605 19.6146 3.19967 19.7075 3.2925L26.7075 10.2925C26.8003 10.3854 26.8739 10.4958 26.9241 10.6172C26.9743 10.7385 27.0001 10.8686 27 11ZM20 10H23.5863L20 6.41375V10ZM25 27V12H19C18.7348 12 18.4804 11.8946 18.2929 11.7071C18.1054 11.5196 18 11.2652 18 11V5H7V27H25Z" fill="currentColor"/>
<path d="M70.3538 18.6462C70.4002 18.6927 70.4371 18.7478 70.4623 18.8085C70.4874 18.8692 70.5004 18.9343 70.5004 19C70.5004 19.0657 70.4874 19.1308 70.4623 19.1915C70.4371 19.2522 70.4002 19.3073 70.3538 19.3538L67.3538 22.3538C67.2599 22.4476 67.1327 22.5003 67 22.5003C66.8673 22.5003 66.7401 22.4476 66.6462 22.3538C66.5524 22.2599 66.4997 22.1327 66.4997 22C66.4997 21.8673 66.5524 21.7401 66.6462 21.6462L69.2925 19L66.6462 16.3538C66.5998 16.3073 66.5629 16.2521 66.5378 16.1914C66.5127 16.1308 66.4997 16.0657 66.4997 16C66.4997 15.9343 66.5127 15.8692 66.5378 15.8086C66.5629 15.7479 66.5998 15.6927 66.6462 15.6462C66.6927 15.5998 66.7479 15.5629 66.8086 15.5378C66.8692 15.5127 66.9343 15.4997 67 15.4997C67.0657 15.4997 67.1308 15.5127 67.1914 15.5378C67.2521 15.5629 67.3073 15.5998 67.3538 15.6462L70.3538 18.6462ZM61.3538 15.6462C61.3073 15.5998 61.2522 15.5629 61.1915 15.5377C61.1308 15.5126 61.0657 15.4996 61 15.4996C60.9343 15.4996 60.8692 15.5126 60.8085 15.5377C60.7478 15.5629 60.6927 15.5998 60.6462 15.6462L57.6462 18.6462C57.5998 18.6927 57.5629 18.7478 57.5377 18.8085C57.5126 18.8692 57.4996 18.9343 57.4996 19C57.4996 19.0657 57.5126 19.1308 57.5377 19.1915C57.5629 19.2522 57.5998 19.3073 57.6462 19.3538L60.6462 22.3538C60.6927 22.4002 60.7479 22.4371 60.8086 22.4622C60.8692 22.4873 60.9343 22.5003 61 22.5003C61.0657 22.5003 61.1308 22.4873 61.1914 22.4622C61.2521 22.4371 61.3073 22.4002 61.3538 22.3538C61.4002 22.3073 61.4371 22.2521 61.4622 22.1914C61.4873 22.1308 61.5003 22.0657 61.5003 22C61.5003 21.9343 61.4873 21.8692 61.4622 21.8086C61.4371 21.7479 61.4002 21.6927 61.3538 21.6462L58.7075 19L61.3538 16.3538C61.4002 16.3073 61.4371 16.2522 61.4623 16.1915C61.4874 16.1308 61.5004 16.0657 61.5004 16C61.5004 15.9343 61.4874 15.8692 61.4623 15.8085C61.4371 15.7478 61.4002 15.6927 61.3538 15.6462ZM74.5 11V27C74.5 27.3978 74.342 27.7794 74.0607 28.0607C73.7794 28.342 73.3978 28.5 73 28.5H55C54.6022 28.5 54.2206 28.342 53.9393 28.0607C53.658 27.7794 53.5 27.3978 53.5 27V5C53.5 4.60218 53.658 4.22064 53.9393 3.93934C54.2206 3.65804 54.6022 3.5 55 3.5H67C67.0657 3.49995 67.1307 3.51284 67.1914 3.53793C67.2521 3.56303 67.3073 3.59983 67.3538 3.64625L74.3538 10.6462C74.4002 10.6927 74.437 10.7479 74.4621 10.8086C74.4872 10.8693 74.5001 10.9343 74.5 11ZM67.5 10.5H72.7925L67.5 5.20625V10.5ZM73.5 27V11.5H67C66.8674 11.5 66.7402 11.4473 66.6464 11.3536C66.5527 11.2598 66.5 11.1326 66.5 11V4.5H55C54.8674 4.5 54.7402 4.55268 54.6464 4.64645C54.5527 4.74022 54.5 4.86739 54.5 5V27C54.5 27.1326 54.5527 27.2598 54.6464 27.3536C54.7402 27.4473 54.8674 27.5 55 27.5H73C73.1326 27.5 73.2598 27.4473 73.3536 27.3536C73.4473 27.2598 73.5 27.1326 73.5 27Z" fill="currentColor"/>
<path d="M118.53 18.47C118.67 18.6106 118.749 18.8012 118.749 19C118.749 19.1988 118.67 19.3894 118.53 19.53L115.53 22.53C115.388 22.6625 115.2 22.7346 115.005 22.7312C114.811 22.7277 114.626 22.649 114.488 22.5116C114.351 22.3742 114.272 22.1888 114.269 21.9945C114.265 21.8002 114.338 21.6122 114.47 21.47L116.939 19L114.47 16.53C114.396 16.4613 114.337 16.3785 114.296 16.2865C114.255 16.1945 114.233 16.0952 114.231 15.9945C114.23 15.8938 114.248 15.7938 114.286 15.7004C114.324 15.607 114.38 15.5222 114.451 15.451C114.522 15.3797 114.607 15.3236 114.7 15.2859C114.794 15.2482 114.894 15.2296 114.995 15.2314C115.095 15.2332 115.195 15.2552 115.287 15.2962C115.379 15.3372 115.461 15.3963 115.53 15.47L118.53 18.47ZM109.53 15.47C109.389 15.3295 109.199 15.2507 109 15.2507C108.801 15.2507 108.611 15.3295 108.47 15.47L105.47 18.47C105.33 18.6106 105.251 18.8012 105.251 19C105.251 19.1988 105.33 19.3894 105.47 19.53L108.47 22.53C108.539 22.6037 108.621 22.6628 108.713 22.7038C108.805 22.7448 108.905 22.7668 109.005 22.7686C109.106 22.7704 109.206 22.7518 109.3 22.7141C109.393 22.6764 109.478 22.6203 109.549 22.549C109.62 22.4778 109.676 22.393 109.714 22.2996C109.752 22.2062 109.77 22.1062 109.769 22.0055C109.767 21.9048 109.745 21.8055 109.704 21.7135C109.663 21.6215 109.604 21.5387 109.53 21.47L107.061 19L109.53 16.53C109.67 16.3894 109.749 16.1988 109.749 16C109.749 15.8012 109.67 15.6106 109.53 15.47ZM122.75 11V27C122.75 27.4641 122.566 27.9092 122.237 28.2374C121.909 28.5656 121.464 28.75 121 28.75H103C102.536 28.75 102.091 28.5656 101.763 28.2374C101.434 27.9092 101.25 27.4641 101.25 27V5C101.25 4.53587 101.434 4.09075 101.763 3.76256C102.091 3.43437 102.536 3.25 103 3.25H115C115.099 3.24992 115.196 3.26932 115.288 3.30707C115.379 3.34482 115.462 3.40019 115.531 3.47L122.531 10.47C122.671 10.6107 122.75 10.8013 122.75 11ZM115.75 10.25H120.19L115.75 5.81V10.25ZM121.25 27V11.75H115C114.801 11.75 114.61 11.671 114.47 11.5303C114.329 11.3897 114.25 11.1989 114.25 11V4.75H103C102.934 4.75 102.87 4.77634 102.823 4.82322C102.776 4.87011 102.75 4.9337 102.75 5V27C102.75 27.0663 102.776 27.1299 102.823 27.1768C102.87 27.2237 102.934 27.25 103 27.25H121C121.066 27.25 121.13 27.2237 121.177 27.1768C121.224 27.1299 121.25 27.0663 121.25 27Z" fill="currentColor"/>
<path d="M166.561 17.9387C166.701 18.0781 166.812 18.2437 166.888 18.426C166.963 18.6083 167.002 18.8038 167.002 19.0012C167.002 19.1987 166.963 19.3941 166.888 19.5765C166.812 19.7588 166.701 19.9244 166.561 20.0637L163.561 23.0637C163.279 23.3455 162.897 23.5039 162.499 23.5039C162.1 23.5039 161.718 23.3455 161.436 23.0637C161.154 22.782 160.996 22.3998 160.996 22.0012C160.996 21.6027 161.154 21.2205 161.436 20.9387L163.375 19L161.435 17.0613C161.295 16.9217 161.185 16.7561 161.109 16.5738C161.034 16.3915 160.995 16.1961 160.995 15.9987C160.995 15.8014 161.034 15.606 161.109 15.4237C161.185 15.2414 161.295 15.0758 161.435 14.9362C161.575 14.7967 161.74 14.686 161.922 14.6105C162.105 14.535 162.3 14.4961 162.497 14.4961C162.695 14.4961 162.89 14.535 163.073 14.6105C163.255 14.686 163.42 14.7967 163.56 14.9362L166.561 17.9387ZM158.561 14.9388C158.422 14.7989 158.256 14.688 158.074 14.6122C157.892 14.5365 157.696 14.4976 157.499 14.4976C157.301 14.4976 157.106 14.5365 156.924 14.6122C156.741 14.688 156.576 14.7989 156.436 14.9388L153.436 17.9387C153.296 18.0781 153.185 18.2437 153.11 18.426C153.034 18.6083 152.995 18.8038 152.995 19.0012C152.995 19.1987 153.034 19.3941 153.11 19.5765C153.185 19.7588 153.296 19.9244 153.436 20.0637L156.436 23.0637C156.718 23.3455 157.1 23.5039 157.499 23.5039C157.897 23.5039 158.279 23.3455 158.561 23.0637C158.843 22.782 159.001 22.3998 159.001 22.0012C159.001 21.6027 158.843 21.2205 158.561 20.9387L156.625 19L158.565 17.0613C158.704 16.9217 158.815 16.7561 158.89 16.5738C158.965 16.3916 159.003 16.1963 159.003 15.9992C159.003 15.8021 158.964 15.607 158.888 15.425C158.812 15.243 158.701 15.0778 158.561 14.9388ZM171.5 11V27C171.5 27.663 171.237 28.2989 170.768 28.7678C170.299 29.2366 169.663 29.5 169 29.5H151C150.337 29.5 149.701 29.2366 149.232 28.7678C148.763 28.2989 148.5 27.663 148.5 27V5C148.5 4.33696 148.763 3.70107 149.232 3.23223C149.701 2.76339 150.337 2.5 151 2.5H163C163.197 2.50001 163.392 2.53887 163.574 2.61437C163.757 2.68987 163.922 2.80052 164.061 2.94L171.061 9.94C171.342 10.2212 171.5 10.6025 171.5 11ZM164 7.125V10H166.875L164 7.125ZM168.5 26.5V13H162.5C162.102 13 161.721 12.842 161.439 12.5607C161.158 12.2794 161 11.8978 161 11.5V5.5H151.5V26.5H168.5Z" fill="currentColor"/>
<path d="M218.708 10.2925L211.708 3.2925C211.615 3.19967 211.504 3.12605 211.383 3.07586C211.261 3.02568 211.131 2.9999 211 3H199C198.47 3 197.961 3.21071 197.586 3.58579C197.211 3.96086 197 4.46957 197 5V27C197 27.5304 197.211 28.0391 197.586 28.4142C197.961 28.7893 198.47 29 199 29H217C217.53 29 218.039 28.7893 218.414 28.4142C218.789 28.0391 219 27.5304 219 27V11C219 10.8686 218.974 10.7385 218.924 10.6172C218.874 10.4958 218.8 10.3854 218.708 10.2925ZM205.708 21.2925C205.8 21.3854 205.874 21.4957 205.924 21.6171C205.975 21.7385 206.001 21.8686 206.001 22C206.001 22.1314 205.975 22.2615 205.924 22.3829C205.874 22.5043 205.8 22.6146 205.708 22.7075C205.615 22.8004 205.504 22.8741 205.383 22.9244C205.262 22.9747 205.131 23.0006 205 23.0006C204.869 23.0006 204.738 22.9747 204.617 22.9244C204.496 22.8741 204.385 22.8004 204.292 22.7075L201.292 19.7075C201.2 19.6146 201.126 19.5043 201.075 19.3829C201.025 19.2615 200.999 19.1314 200.999 19C200.999 18.8686 201.025 18.7385 201.075 18.6171C201.126 18.4957 201.2 18.3854 201.292 18.2925L204.292 15.2925C204.48 15.1049 204.735 14.9994 205 14.9994C205.265 14.9994 205.52 15.1049 205.708 15.2925C205.895 15.4801 206.001 15.7346 206.001 16C206.001 16.2654 205.895 16.5199 205.708 16.7075L203.414 19L205.708 21.2925ZM214.708 19.7075L211.708 22.7075C211.52 22.8951 211.265 23.0006 211 23.0006C210.735 23.0006 210.48 22.8951 210.292 22.7075C210.105 22.5199 209.999 22.2654 209.999 22C209.999 21.7346 210.105 21.4801 210.292 21.2925L212.586 19L210.292 16.7075C210.105 16.5199 209.999 16.2654 209.999 16C209.999 15.7346 210.105 15.4801 210.292 15.2925C210.48 15.1049 210.735 14.9994 211 14.9994C211.265 14.9994 211.52 15.1049 211.708 15.2925L214.708 18.2925C214.8 18.3854 214.874 18.4957 214.925 18.6171C214.975 18.7385 215.001 18.8686 215.001 19C215.001 19.1314 214.975 19.2615 214.925 19.3829C214.874 19.5043 214.8 19.6146 214.708 19.7075ZM211 11V5.5L216.5 11H211Z" fill="currentColor"/>
<path opacity="0.2" d="M266 11H259V4L266 11Z" fill="currentColor"/>
<path d="M262.708 18.2925C262.8 18.3854 262.874 18.4957 262.925 18.6171C262.975 18.7385 263.001 18.8686 263.001 19C263.001 19.1314 262.975 19.2615 262.925 19.3829C262.874 19.5043 262.8 19.6146 262.708 19.7075L259.708 22.7075C259.52 22.8951 259.265 23.0006 259 23.0006C258.735 23.0006 258.48 22.8951 258.292 22.7075C258.105 22.5199 257.999 22.2654 257.999 22C257.999 21.7346 258.105 21.4801 258.292 21.2925L260.586 19L258.292 16.7075C258.105 16.5199 257.999 16.2654 257.999 16C257.999 15.7346 258.105 15.4801 258.292 15.2925C258.48 15.1049 258.735 14.9994 259 14.9994C259.265 14.9994 259.52 15.1049 259.708 15.2925L262.708 18.2925ZM253.708 15.2925C253.615 15.1995 253.504 15.1258 253.383 15.0754C253.262 15.0251 253.131 14.9992 253 14.9992C252.869 14.9992 252.738 15.0251 252.617 15.0754C252.496 15.1258 252.385 15.1995 252.292 15.2925L249.292 18.2925C249.2 18.3854 249.126 18.4957 249.075 18.6171C249.025 18.7385 248.999 18.8686 248.999 19C248.999 19.1314 249.025 19.2615 249.075 19.3829C249.126 19.5043 249.2 19.6146 249.292 19.7075L252.292 22.7075C252.385 22.8004 252.496 22.8741 252.617 22.9244C252.738 22.9747 252.869 23.0006 253 23.0006C253.131 23.0006 253.262 22.9747 253.383 22.9244C253.504 22.8741 253.615 22.8004 253.708 22.7075C253.8 22.6146 253.874 22.5043 253.924 22.3829C253.975 22.2615 254.001 22.1314 254.001 22C254.001 21.8686 253.975 21.7385 253.924 21.6171C253.874 21.4957 253.8 21.3854 253.708 21.2925L251.414 19L253.708 16.7075C253.8 16.6146 253.874 16.5043 253.925 16.3829C253.975 16.2615 254.001 16.1314 254.001 16C254.001 15.8686 253.975 15.7385 253.925 15.6171C253.874 15.4957 253.8 15.3854 253.708 15.2925ZM267 11V27C267 27.5304 266.789 28.0391 266.414 28.4142C266.039 28.7893 265.53 29 265 29H247C246.47 29 245.961 28.7893 245.586 28.4142C245.211 28.0391 245 27.5304 245 27V5C245 4.46957 245.211 3.96086 245.586 3.58579C245.961 3.21071 246.47 3 247 3H259C259.131 2.9999 259.261 3.02568 259.383 3.07586C259.504 3.12605 259.615 3.19967 259.708 3.2925L266.708 10.2925C266.8 10.3854 266.874 10.4958 266.924 10.6172C266.974 10.7385 267 10.8686 267 11ZM260 10H263.586L260 6.41375V10ZM265 27V12H259C258.735 12 258.48 11.8946 258.293 11.7071C258.105 11.5196 258 11.2652 258 11V5H247V27H265Z" fill="currentColor"/>
</g>
<defs>
<clipPath id="clip0_17_10260">
<rect width="272" height="32" rx="5" fill="white"/>
</clipPath>
</defs>
</svg>
