<svg width="272" height="32" viewBox="0 0 272 32" fill="none" xmlns="http://www.w3.org/2000/svg">
<g clip-path="url(#clip0_17_9770)">
<path d="M27 9H16.3337L12.8663 6.4C12.5196 6.14132 12.0988 6.00107 11.6663 6H5C4.46957 6 3.96086 6.21071 3.58579 6.58579C3.21071 6.96086 3 7.46957 3 8V25C3 25.5304 3.21071 26.0391 3.58579 26.4142C3.96086 26.7893 4.46957 27 5 27H27C27.5304 27 28.0391 26.7893 28.4142 26.4142C28.7893 26.0391 29 25.5304 29 25V11C29 10.4696 28.7893 9.96086 28.4142 9.58579C28.0391 9.21071 27.5304 9 27 9ZM5 8H11.6663L14.3337 10L11.6663 12H5V8ZM27 25H5V14H11.6663C12.0988 13.9989 12.5196 13.8587 12.8663 13.6L16.3337 11H27V25Z" fill="currentColor"/>
<path d="M75 9.5H64.1663L60.5662 6.8C60.3064 6.60567 59.9907 6.50045 59.6663 6.5H53C52.6022 6.5 52.2206 6.65804 51.9393 6.93934C51.658 7.22064 51.5 7.60218 51.5 8V25C51.5 25.3978 51.658 25.7794 51.9393 26.0607C52.2206 26.342 52.6022 26.5 53 26.5H75C75.3978 26.5 75.7794 26.342 76.0607 26.0607C76.342 25.7794 76.5 25.3978 76.5 25V11C76.5 10.6022 76.342 10.2206 76.0607 9.93934C75.7794 9.65804 75.3978 9.5 75 9.5ZM52.5 8C52.5 7.86739 52.5527 7.74021 52.6464 7.64645C52.7402 7.55268 52.8674 7.5 53 7.5H59.6663C59.7744 7.5 59.8797 7.53509 59.9663 7.6L63.1663 10L59.9663 12.4C59.8797 12.4649 59.7744 12.5 59.6663 12.5H52.5V8ZM75.5 25C75.5 25.1326 75.4473 25.2598 75.3536 25.3536C75.2598 25.4473 75.1326 25.5 75 25.5H53C52.8674 25.5 52.7402 25.4473 52.6464 25.3536C52.5527 25.2598 52.5 25.1326 52.5 25V13.5H59.6663C59.9907 13.4996 60.3064 13.3943 60.5662 13.2L64.1663 10.5H75C75.1326 10.5 75.2598 10.5527 75.3536 10.6464C75.4473 10.7402 75.5 10.8674 75.5 11V25Z" fill="currentColor"/>
<path d="M123 9.25H112.25L108.716 6.6C108.413 6.37281 108.045 6.25 107.666 6.25H101C100.536 6.25 100.091 6.43437 99.7626 6.76256C99.4344 7.09075 99.25 7.53587 99.25 8V25C99.25 25.4641 99.4344 25.9092 99.7626 26.2374C100.091 26.5656 100.536 26.75 101 26.75H123C123.464 26.75 123.909 26.5656 124.237 26.2374C124.566 25.9092 124.75 25.4641 124.75 25V11C124.75 10.5359 124.566 10.0908 124.237 9.76256C123.909 9.43437 123.464 9.25 123 9.25ZM100.75 8C100.75 7.9337 100.776 7.87011 100.823 7.82322C100.87 7.77634 100.934 7.75 101 7.75H107.666C107.72 7.75 107.773 7.76754 107.816 7.8L110.75 10L107.816 12.2C107.773 12.2325 107.72 12.25 107.666 12.25H100.75V8ZM123.25 25C123.25 25.0663 123.224 25.1299 123.177 25.1768C123.13 25.2237 123.066 25.25 123 25.25H101C100.934 25.25 100.87 25.2237 100.823 25.1768C100.776 25.1299 100.75 25.0663 100.75 25V13.75H107.666C108.045 13.75 108.413 13.6272 108.716 13.4L112.25 10.75H123C123.066 10.75 123.13 10.7763 123.177 10.8232C123.224 10.8701 123.25 10.9337 123.25 11V25Z" fill="currentColor"/>
<path d="M171 8.5H160.5L157.166 6C156.733 5.67641 156.207 5.50107 155.666 5.5H149C148.337 5.5 147.701 5.76339 147.232 6.23223C146.763 6.70107 146.5 7.33696 146.5 8V25C146.5 25.663 146.763 26.2989 147.232 26.7678C147.701 27.2366 148.337 27.5 149 27.5H171C171.663 27.5 172.299 27.2366 172.768 26.7678C173.237 26.2989 173.5 25.663 173.5 25V11C173.5 10.337 173.237 9.70107 172.768 9.23223C172.299 8.76339 171.663 8.5 171 8.5ZM149.5 8.5H155.5L157.5 10L155.5 11.5H149.5V8.5ZM170.5 24.5H149.5V14.5H155.666C156.207 14.4989 156.733 14.3236 157.166 14L160.5 11.5H170.5V24.5Z" fill="currentColor"/>
<path d="M219 9H208.333L204.865 6.4C204.519 6.14087 204.099 6.00054 203.667 6H197C196.47 6 195.961 6.21071 195.586 6.58579C195.211 6.96086 195 7.46957 195 8V25C195 25.5304 195.211 26.0391 195.586 26.4142C195.961 26.7893 196.47 27 197 27H219C219.53 27 220.039 26.7893 220.414 26.4142C220.789 26.0391 221 25.5304 221 25V11C221 10.4696 220.789 9.96086 220.414 9.58579C220.039 9.21071 219.53 9 219 9ZM197 8H203.667L206.334 10L203.666 12H197V8Z" fill="currentColor"/>
<path opacity="0.2" d="M256 10L252.266 12.8C252.093 12.9298 251.883 13 251.666 13H244V8C244 7.73478 244.105 7.48043 244.293 7.29289C244.48 7.10536 244.735 7 245 7H251.666C251.883 7 252.093 7.07018 252.266 7.2L256 10Z" fill="currentColor"/>
<path d="M267 9H256.334L252.866 6.4C252.52 6.14132 252.099 6.00107 251.666 6H245C244.47 6 243.961 6.21071 243.586 6.58579C243.211 6.96086 243 7.46957 243 8V25C243 25.5304 243.211 26.0391 243.586 26.4142C243.961 26.7893 244.47 27 245 27H267C267.53 27 268.039 26.7893 268.414 26.4142C268.789 26.0391 269 25.5304 269 25V11C269 10.4696 268.789 9.96086 268.414 9.58579C268.039 9.21071 267.53 9 267 9ZM245 8H251.666L254.334 10L251.666 12H245V8ZM267 25H245V14H251.666C252.099 13.9989 252.52 13.8587 252.866 13.6L256.334 11H267V25Z" fill="currentColor"/>
</g>
<defs>
<clipPath id="clip0_17_9770">
<rect width="272" height="32" rx="5" fill="white"/>
</clipPath>
</defs>
</svg>
