<svg width="272" height="32" viewBox="0 0 272 32" fill="none" xmlns="http://www.w3.org/2000/svg">
<g clip-path="url(#clip0_17_9560)">
<path d="M28 8H19.3337L15.8663 5.4C15.5196 5.14132 15.0988 5.00107 14.6663 5H9C8.46957 5 7.96086 5.21071 7.58579 5.58579C7.21071 5.96086 7 6.46957 7 7V9H5C4.46957 9 3.96086 9.21071 3.58579 9.58579C3.21071 9.96086 3 10.4696 3 11V25C3 25.5304 3.21071 26.0391 3.58579 26.4142C3.96086 26.7893 4.46957 27 5 27H24.1112C24.612 26.9993 25.092 26.8001 25.4461 26.4461C25.8001 26.092 25.9993 25.612 26 25.1112V23H28.1112C28.612 22.9993 29.092 22.8001 29.4461 22.4461C29.8001 22.092 29.9993 21.612 30 21.1112V10C30 9.46957 29.7893 8.96086 29.4142 8.58579C29.0391 8.21071 28.5304 8 28 8ZM24 25H5V11H10.6663L14.1337 13.6C14.4804 13.8587 14.9012 13.9989 15.3337 14H24V25ZM28 21H26V14C26 13.4696 25.7893 12.9609 25.4142 12.5858C25.0391 12.2107 24.5304 12 24 12H15.3337L11.8663 9.4C11.5196 9.14132 11.0988 9.00107 10.6663 9H9V7H14.6663L18.1338 9.6C18.4804 9.85868 18.9012 9.99893 19.3337 10H28V21Z" fill="currentColor"/>
<path d="M76 8.5H67.3337C67.2256 8.5 67.1203 8.46491 67.0338 8.4L63.5662 5.8C63.3064 5.60567 62.9907 5.50045 62.6663 5.5H57C56.6022 5.5 56.2206 5.65804 55.9393 5.93934C55.658 6.22064 55.5 6.60218 55.5 7V9.5H53C52.6022 9.5 52.2206 9.65804 51.9393 9.93934C51.658 10.2206 51.5 10.6022 51.5 11V25C51.5 25.3978 51.658 25.7794 51.9393 26.0607C52.2206 26.342 52.6022 26.5 53 26.5H72.1112C72.4795 26.4997 72.8325 26.3532 73.0929 26.0929C73.3532 25.8325 73.4997 25.4795 73.5 25.1112V22.5H76.1112C76.4795 22.4997 76.8325 22.3532 77.0929 22.0929C77.3532 21.8325 77.4997 21.4795 77.5 21.1112V10C77.5 9.60218 77.342 9.22064 77.0607 8.93934C76.7794 8.65804 76.3978 8.5 76 8.5ZM72.5 25.1112C72.4997 25.2143 72.4586 25.3129 72.3858 25.3858C72.3129 25.4586 72.2143 25.4997 72.1112 25.5H53C52.8674 25.5 52.7402 25.4473 52.6464 25.3536C52.5527 25.2598 52.5 25.1326 52.5 25V11C52.5 10.8674 52.5527 10.7402 52.6464 10.6464C52.7402 10.5527 52.8674 10.5 53 10.5H58.6663C58.7744 10.5 58.8797 10.5351 58.9663 10.6L62.4338 13.2C62.6936 13.3943 63.0093 13.4996 63.3337 13.5H72C72.1326 13.5 72.2598 13.5527 72.3536 13.6464C72.4473 13.7402 72.5 13.8674 72.5 14V25.1112ZM76.5 21.1112C76.4997 21.2143 76.4586 21.3129 76.3858 21.3858C76.3129 21.4586 76.2143 21.4997 76.1112 21.5H73.5V14C73.5 13.6022 73.342 13.2206 73.0607 12.9393C72.7794 12.658 72.3978 12.5 72 12.5H63.3337C63.2256 12.5 63.1203 12.4649 63.0337 12.4L59.5662 9.8C59.3064 9.60567 58.9907 9.50045 58.6663 9.5H56.5V7C56.5 6.86739 56.5527 6.74021 56.6464 6.64645C56.7402 6.55268 56.8674 6.5 57 6.5H62.6663C62.7744 6.5 62.8797 6.53509 62.9663 6.6L66.4338 9.2C66.6936 9.39433 67.0093 9.49955 67.3337 9.5H76C76.1326 9.5 76.2598 9.55268 76.3536 9.64645C76.4473 9.74021 76.5 9.86739 76.5 10V21.1112Z" fill="currentColor"/>
<path d="M124 8.25H115.334C115.28 8.25 115.227 8.23246 115.184 8.2L111.716 5.6C111.413 5.37281 111.045 5.25 110.666 5.25H105C104.536 5.25 104.091 5.43437 103.763 5.76256C103.434 6.09075 103.25 6.53587 103.25 7V9.25H101C100.536 9.25 100.091 9.43437 99.7626 9.76256C99.4344 10.0908 99.25 10.5359 99.25 11V25C99.25 25.4641 99.4344 25.9092 99.7626 26.2374C100.091 26.5656 100.536 26.75 101 26.75H120.111C120.546 26.7497 120.962 26.5769 121.27 26.2697C121.577 25.9624 121.75 25.5458 121.75 25.1112V22.75H124.111C124.546 22.7497 124.962 22.5769 125.27 22.2697C125.577 21.9624 125.75 21.5458 125.75 21.1112V10C125.75 9.53587 125.566 9.09075 125.237 8.76256C124.909 8.43437 124.464 8.25 124 8.25ZM120.25 25.1112C120.25 25.148 120.235 25.1833 120.209 25.2094C120.183 25.2354 120.148 25.25 120.111 25.25H101C100.934 25.25 100.87 25.2237 100.823 25.1768C100.776 25.1299 100.75 25.0663 100.75 25V11C100.75 10.9337 100.776 10.8701 100.823 10.8232C100.87 10.7763 100.934 10.75 101 10.75H106.666C106.72 10.75 106.773 10.7675 106.816 10.8L110.284 13.4C110.587 13.6272 110.955 13.75 111.334 13.75H120C120.066 13.75 120.13 13.7763 120.177 13.8232C120.224 13.8701 120.25 13.9337 120.25 14V25.1112ZM124.25 21.1112C124.25 21.1295 124.246 21.1475 124.239 21.1643C124.232 21.1812 124.222 21.1965 124.209 21.2094C124.196 21.2222 124.181 21.2325 124.164 21.2394C124.148 21.2464 124.129 21.25 124.111 21.25H121.75V14C121.75 13.5359 121.566 13.0908 121.237 12.7626C120.909 12.4344 120.464 12.25 120 12.25H111.334C111.28 12.25 111.227 12.2325 111.184 12.2L107.716 9.6C107.413 9.37281 107.045 9.25 106.666 9.25H104.75V7C104.75 6.9337 104.776 6.87011 104.823 6.82322C104.87 6.77634 104.934 6.75 105 6.75H110.666C110.72 6.75 110.773 6.76754 110.816 6.8L114.284 9.4C114.587 9.62719 114.955 9.75 115.334 9.75H124C124.066 9.75 124.13 9.77634 124.177 9.82322C124.224 9.87011 124.25 9.9337 124.25 10V21.1112Z" fill="currentColor"/>
<path d="M172.5 7H164L160.666 4.5C160.233 4.17641 159.707 4.00107 159.166 4H153.5C152.837 4 152.201 4.26339 151.732 4.73223C151.263 5.20107 151 5.83696 151 6.5V9H148.5C147.837 9 147.201 9.26339 146.732 9.73223C146.263 10.2011 146 10.837 146 11.5V25.5C146 26.163 146.263 26.7989 146.732 27.2678C147.201 27.7366 147.837 28 148.5 28H167.611C168.245 27.9993 168.852 27.7475 169.3 27.2996C169.747 26.8518 169.999 26.2446 170 25.6112V23H172.611C173.245 22.9993 173.852 22.7475 174.3 22.2996C174.747 21.8518 174.999 21.2446 175 20.6112V9.5C175 8.83696 174.737 8.20107 174.268 7.73223C173.799 7.26339 173.163 7 172.5 7ZM167 25H149V12H154L157.334 14.5C157.767 14.8236 158.293 14.9989 158.834 15H167V25ZM172 20H170V14.5C170 13.837 169.737 13.2011 169.268 12.7322C168.799 12.2634 168.163 12 167.5 12H159L155.666 9.5C155.233 9.17641 154.707 9.00107 154.166 9H154V7H159L162.334 9.5C162.767 9.82359 163.293 9.99893 163.834 10H172V20Z" fill="currentColor"/>
<path d="M220 8H211.334L207.866 5.4C207.52 5.14132 207.099 5.00107 206.666 5H201C200.47 5 199.961 5.21071 199.586 5.58579C199.211 5.96086 199 6.46957 199 7V9H197C196.47 9 195.961 9.21071 195.586 9.58579C195.211 9.96086 195 10.4696 195 11V25C195 25.5304 195.211 26.0391 195.586 26.4142C195.961 26.7893 196.47 27 197 27H216.111C216.612 26.9993 217.092 26.8001 217.446 26.4461C217.8 26.092 217.999 25.612 218 25.1112V23H220.111C220.612 22.9993 221.092 22.8001 221.446 22.4461C221.8 22.092 221.999 21.612 222 21.1112V10C222 9.46957 221.789 8.96086 221.414 8.58579C221.039 8.21071 220.53 8 220 8ZM220 21H218V14C218 13.4696 217.789 12.9609 217.414 12.5858C217.039 12.2107 216.53 12 216 12H207.334L203.866 9.4C203.52 9.14132 203.099 9.00107 202.666 9H201V7H206.666L210.134 9.6C210.48 9.85868 210.901 9.99893 211.334 10H220V21Z" fill="currentColor"/>
<path opacity="0.2" d="M269 10V21.1112C269 21.347 268.906 21.573 268.74 21.7397C268.573 21.9064 268.347 22 268.111 22H265V14C265 13.7348 264.895 13.4804 264.707 13.2929C264.52 13.1054 264.265 13 264 13H255.334C255.117 13 254.907 12.9298 254.734 12.8L251.266 10.2C251.093 10.0702 250.883 10 250.666 10H248V7C248 6.73478 248.105 6.48043 248.293 6.29289C248.48 6.10536 248.735 6 249 6H254.666C254.883 6 255.093 6.07018 255.266 6.2L258.734 8.8C258.907 8.92982 259.117 9 259.334 9H268C268.265 9 268.52 9.10536 268.707 9.29289C268.895 9.48043 269 9.73478 269 10Z" fill="currentColor"/>
<path d="M268 8H259.334L255.866 5.4C255.52 5.14132 255.099 5.00107 254.666 5H249C248.47 5 247.961 5.21071 247.586 5.58579C247.211 5.96086 247 6.46957 247 7V9H245C244.47 9 243.961 9.21071 243.586 9.58579C243.211 9.96086 243 10.4696 243 11V25C243 25.5304 243.211 26.0391 243.586 26.4142C243.961 26.7893 244.47 27 245 27H264.111C264.612 26.9993 265.092 26.8001 265.446 26.4461C265.8 26.092 265.999 25.612 266 25.1112V23H268.111C268.612 22.9993 269.092 22.8001 269.446 22.4461C269.8 22.092 269.999 21.612 270 21.1112V10C270 9.46957 269.789 8.96086 269.414 8.58579C269.039 8.21071 268.53 8 268 8ZM264 25H245V11H250.666L254.134 13.6C254.48 13.8587 254.901 13.9989 255.334 14H264V25ZM268 21H266V14C266 13.4696 265.789 12.9609 265.414 12.5858C265.039 12.2107 264.53 12 264 12H255.334L251.866 9.4C251.52 9.14132 251.099 9.00107 250.666 9H249V7H254.666L258.134 9.6C258.48 9.85868 258.901 9.99893 259.334 10H268V21Z" fill="currentColor"/>
</g>
<defs>
<clipPath id="clip0_17_9560">
<rect width="272" height="32" rx="5" fill="white"/>
</clipPath>
</defs>
</svg>
