<svg width="272" height="32" viewBox="0 0 272 32" fill="none" xmlns="http://www.w3.org/2000/svg">
<g clip-path="url(#clip0_17_9574)">
<path d="M26.8263 24.8275C27.3861 24.2683 27.7675 23.5555 27.9222 22.7795C28.0769 22.0035 27.9979 21.199 27.6953 20.4678C27.3927 19.7367 26.88 19.1117 26.2221 18.672C25.5642 18.2322 24.7907 17.9975 23.9994 17.9975C23.2081 17.9975 22.4345 18.2322 21.7766 18.672C21.1187 19.1117 20.6061 19.7367 20.3034 20.4678C20.0008 21.199 19.9219 22.0035 20.0766 22.7795C20.2313 23.5555 20.6127 24.2683 21.1725 24.8275C20.1209 25.4984 19.3581 26.5381 19.0338 27.7425C18.9655 27.9988 19.0018 28.2717 19.1347 28.5012C19.2676 28.7307 19.4862 28.898 19.7425 28.9663C19.8265 28.9884 19.9131 28.9998 20 29C20.2205 28.9999 20.4348 28.927 20.6096 28.7924C20.7844 28.6579 20.9097 28.4694 20.9662 28.2563C21.32 26.9275 22.5675 26 24 26C25.4325 26 26.68 26.9275 27.0338 28.2563C27.0654 28.3854 27.1225 28.5069 27.2017 28.6137C27.2809 28.7205 27.3806 28.8104 27.4949 28.8783C27.6093 28.9461 27.736 28.9904 27.8677 29.0087C27.9994 29.0269 28.1334 29.0187 28.2619 28.9846C28.3904 28.9504 28.5108 28.891 28.616 28.8097C28.7213 28.7285 28.8093 28.6271 28.8749 28.5114C28.9404 28.3958 28.9823 28.2682 28.998 28.1362C29.0137 28.0041 29.0029 27.8703 28.9662 27.7425C28.6416 26.5379 27.8783 25.4982 26.8263 24.8275ZM24 20C24.3956 20 24.7822 20.1173 25.1111 20.3371C25.44 20.5568 25.6964 20.8692 25.8478 21.2346C25.9991 21.6001 26.0387 22.0022 25.9616 22.3902C25.8844 22.7782 25.6939 23.1345 25.4142 23.4142C25.1345 23.6939 24.7781 23.8844 24.3902 23.9616C24.0022 24.0388 23.6001 23.9991 23.2346 23.8478C22.8692 23.6964 22.5568 23.44 22.3371 23.1112C22.1173 22.7823 22 22.3956 22 22C22 21.4696 22.2107 20.9609 22.5858 20.5858C22.9609 20.2107 23.4696 20 24 20ZM27 9.00001H16.4137L13 5.58626C12.815 5.39973 12.5947 5.25185 12.352 5.15121C12.1093 5.05057 11.849 4.99917 11.5863 5.00001H5C4.46957 5.00001 3.96086 5.21072 3.58579 5.5858C3.21071 5.96087 3 6.46958 3 7.00001V25.0763C3.00033 25.5862 3.20295 26.0751 3.56338 26.4357C3.92381 26.7964 4.41261 26.9993 4.9225 27H15.07C15.3352 27 15.5896 26.8947 15.7771 26.7071C15.9646 26.5196 16.07 26.2652 16.07 26C16.07 25.7348 15.9646 25.4804 15.7771 25.2929C15.5896 25.1054 15.3352 25 15.07 25H5V11H27V15C27 15.2652 27.1054 15.5196 27.2929 15.7071C27.4804 15.8947 27.7348 16 28 16C28.2652 16 28.5196 15.8947 28.7071 15.7071C28.8946 15.5196 29 15.2652 29 15V11C29 10.4696 28.7893 9.96087 28.4142 9.5858C28.0391 9.21072 27.5304 9.00001 27 9.00001ZM11.5863 7.00001L13.5863 9.00001H5V7.00001H11.5863Z" fill="currentColor"/>
<path d="M73.9375 24.9125C74.5634 24.4964 75.0388 23.8899 75.2933 23.1827C75.5478 22.4755 75.5678 21.7052 75.3505 20.9857C75.1332 20.2662 74.6901 19.6358 74.0866 19.1877C73.4832 18.7396 72.7516 18.4977 72 18.4977C71.2484 18.4977 70.5168 18.7396 69.9134 19.1877C69.3099 19.6358 68.8668 20.2662 68.6495 20.9857C68.4322 21.7052 68.4522 22.4755 68.7067 23.1827C68.9612 23.8899 69.4366 24.4964 70.0625 24.9125C69.4439 25.1851 68.8942 25.5926 68.4536 26.1052C68.013 26.6178 67.6928 27.2225 67.5163 27.875C67.4823 28.0031 67.5007 28.1395 67.5672 28.2541C67.6338 28.3687 67.7431 28.4522 67.8713 28.4862C67.9119 28.4978 67.954 28.5037 67.9963 28.5037C68.107 28.5037 68.2147 28.4668 68.3022 28.3989C68.3898 28.331 68.4523 28.236 68.48 28.1287C68.8912 26.5812 70.3363 25.5037 71.9963 25.5037C73.6562 25.5037 75.1013 26.585 75.5125 28.1287C75.5279 28.1937 75.5562 28.2549 75.5956 28.3088C75.6351 28.3627 75.6849 28.4081 75.7422 28.4424C75.7995 28.4767 75.8631 28.4992 75.9292 28.5085C75.9953 28.5178 76.0626 28.5138 76.1272 28.4967C76.1917 28.4796 76.2522 28.4497 76.305 28.4088C76.3578 28.368 76.4019 28.3169 76.4347 28.2588C76.4674 28.2006 76.4882 28.1364 76.4958 28.0701C76.5034 28.0038 76.4976 27.9366 76.4788 27.8725C76.3026 27.2209 75.983 26.6169 75.5433 26.1047C75.1036 25.5926 74.5549 25.1852 73.9375 24.9125ZM69.5 22C69.5 21.5055 69.6466 21.0222 69.9213 20.6111C70.196 20.2 70.5865 19.8795 71.0433 19.6903C71.5001 19.5011 72.0028 19.4516 72.4877 19.548C72.9727 19.6445 73.4181 19.8826 73.7678 20.2322C74.1174 20.5819 74.3555 21.0273 74.452 21.5123C74.5484 21.9972 74.4989 22.4999 74.3097 22.9567C74.1205 23.4135 73.8 23.804 73.3889 24.0787C72.9778 24.3534 72.4945 24.5 72 24.5C71.337 24.5 70.7011 24.2366 70.2322 23.7678C69.7634 23.2989 69.5 22.663 69.5 22ZM75 9.5H64.2075L60.6462 5.93875C60.365 5.65782 59.9838 5.50002 59.5863 5.5H53C52.6022 5.5 52.2206 5.65804 51.9393 5.93934C51.658 6.22064 51.5 6.60218 51.5 7V25.0763C51.5003 25.4535 51.6503 25.8153 51.9169 26.0822C52.1836 26.3491 52.5452 26.4993 52.9225 26.5H63.07C63.2026 26.5 63.3298 26.4473 63.4236 26.3536C63.5173 26.2598 63.57 26.1326 63.57 26C63.57 25.8674 63.5173 25.7402 63.4236 25.6464C63.3298 25.5527 63.2026 25.5 63.07 25.5H52.9225C52.8103 25.4997 52.7029 25.4549 52.6237 25.3754C52.5445 25.296 52.5 25.1884 52.5 25.0763V10.5H75C75.1326 10.5 75.2598 10.5527 75.3536 10.6464C75.4473 10.7402 75.5 10.8674 75.5 11V15C75.5 15.1326 75.5527 15.2598 75.6464 15.3536C75.7402 15.4473 75.8674 15.5 76 15.5C76.1326 15.5 76.2598 15.4473 76.3536 15.3536C76.4473 15.2598 76.5 15.1326 76.5 15V11C76.5 10.6022 76.342 10.2206 76.0607 9.93934C75.7794 9.65804 75.3978 9.5 75 9.5ZM53 6.5H59.5863C59.7185 6.50023 59.8452 6.55281 59.9388 6.64625L62.7925 9.5H52.5V7C52.5 6.86739 52.5527 6.74021 52.6464 6.64645C52.7402 6.55268 52.8674 6.5 53 6.5Z" fill="currentColor"/>
<path d="M122.41 24.875C123 24.3804 123.423 23.7163 123.622 22.973C123.821 22.2296 123.787 21.4429 123.524 20.7197C123.261 19.9964 122.781 19.3717 122.151 18.9302C121.521 18.4888 120.77 18.252 120 18.252C119.23 18.252 118.479 18.4888 117.849 18.9302C117.219 19.3717 116.739 19.9964 116.476 20.7197C116.213 21.4429 116.179 22.2296 116.378 22.973C116.577 23.7163 117 24.3804 117.59 24.875C117.026 25.183 116.53 25.6021 116.132 26.1069C115.734 26.6118 115.443 27.192 115.275 27.8125C115.25 27.9077 115.243 28.007 115.256 28.1046C115.27 28.2023 115.302 28.2964 115.351 28.3816C115.401 28.4668 115.466 28.5414 115.545 28.6012C115.623 28.661 115.712 28.7047 115.808 28.73C115.87 28.7463 115.935 28.7547 116 28.755C116.165 28.755 116.326 28.7004 116.457 28.5995C116.588 28.4987 116.683 28.3574 116.725 28.1975C117.108 26.75 118.454 25.75 120 25.75C121.546 25.75 122.892 26.75 123.275 28.1925C123.3 28.2877 123.344 28.377 123.404 28.4552C123.464 28.5335 123.539 28.5992 123.624 28.6486C123.709 28.698 123.803 28.7301 123.901 28.7431C123.999 28.7561 124.098 28.7497 124.193 28.7244C124.288 28.699 124.378 28.6552 124.456 28.5953C124.534 28.5354 124.6 28.4607 124.649 28.3755C124.699 28.2902 124.731 28.1961 124.744 28.0984C124.757 28.0007 124.75 27.9015 124.725 27.8063C124.557 27.1868 124.265 26.6079 123.867 26.1041C123.469 25.6004 122.974 25.1823 122.41 24.875ZM120 19.75C120.445 19.75 120.88 19.882 121.25 20.1292C121.62 20.3764 121.908 20.7278 122.079 21.139C122.249 21.5501 122.294 22.0025 122.207 22.439C122.12 22.8754 121.906 23.2763 121.591 23.591C121.276 23.9057 120.875 24.12 120.439 24.2068C120.002 24.2936 119.55 24.249 119.139 24.0787C118.728 23.9084 118.376 23.62 118.129 23.25C117.882 22.88 117.75 22.445 117.75 22C117.75 21.4033 117.987 20.831 118.409 20.409C118.831 19.9871 119.403 19.75 120 19.75ZM123 9.25H112.31L108.824 5.7625C108.661 5.59967 108.469 5.47056 108.256 5.3826C108.044 5.29464 107.816 5.24958 107.586 5.25H101C100.536 5.25 100.091 5.43438 99.7626 5.76257C99.4344 6.09075 99.25 6.53587 99.25 7V25.0763C99.2503 25.5198 99.4266 25.9452 99.7402 26.259C100.054 26.5727 100.479 26.7493 100.923 26.75H111.07C111.269 26.75 111.46 26.671 111.6 26.5303C111.741 26.3897 111.82 26.1989 111.82 26C111.82 25.8011 111.741 25.6103 111.6 25.4697C111.46 25.329 111.269 25.25 111.07 25.25H100.923C100.877 25.2494 100.833 25.2308 100.801 25.1983C100.769 25.1658 100.75 25.122 100.75 25.0763V10.75H123C123.066 10.75 123.13 10.7763 123.177 10.8232C123.224 10.8701 123.25 10.9337 123.25 11V15C123.25 15.1989 123.329 15.3897 123.47 15.5303C123.61 15.671 123.801 15.75 124 15.75C124.199 15.75 124.39 15.671 124.53 15.5303C124.671 15.3897 124.75 15.1989 124.75 15V11C124.75 10.5359 124.566 10.0908 124.237 9.76257C123.909 9.43438 123.464 9.25 123 9.25ZM101 6.75H107.586C107.652 6.75028 107.716 6.7768 107.762 6.82375L110.189 9.25H100.75V7C100.75 6.9337 100.776 6.87011 100.823 6.82323C100.87 6.77634 100.934 6.75 101 6.75Z" fill="currentColor"/>
<path d="M171.564 24.7425C172.078 24.0767 172.394 23.2803 172.479 22.4436C172.563 21.6068 172.411 20.7633 172.04 20.0085C171.669 19.2537 171.094 18.618 170.38 18.1734C169.666 17.7289 168.842 17.4932 168.001 17.4932C167.16 17.4932 166.336 17.7289 165.622 18.1734C164.908 18.618 164.333 19.2537 163.963 20.0085C163.592 20.7633 163.44 21.6068 163.524 22.4436C163.608 23.2803 163.925 24.0767 164.439 24.7425C163.518 25.4733 162.857 26.4815 162.554 27.6175C162.452 28.0019 162.507 28.411 162.707 28.7548C162.906 29.0987 163.234 29.3492 163.619 29.4513C163.743 29.4841 163.871 29.5005 164 29.5C164.331 29.4998 164.652 29.3903 164.914 29.1887C165.176 28.9871 165.364 28.7045 165.449 28.385C165.75 27.275 166.794 26.5 168 26.5C169.206 26.5 170.25 27.275 170.55 28.385C170.657 28.7636 170.909 29.0849 171.251 29.2794C171.594 29.474 171.998 29.5264 172.379 29.4252C172.759 29.324 173.084 29.0774 173.285 28.7385C173.485 28.3996 173.544 27.9957 173.449 27.6138C173.145 26.4789 172.484 25.472 171.564 24.7425ZM168 20.5C168.297 20.5 168.587 20.588 168.833 20.7528C169.08 20.9176 169.272 21.1519 169.386 21.426C169.499 21.7001 169.529 22.0017 169.471 22.2926C169.413 22.5836 169.27 22.8509 169.061 23.0607C168.851 23.2704 168.584 23.4133 168.293 23.4712C168.002 23.5291 167.7 23.4994 167.426 23.3858C167.152 23.2723 166.918 23.08 166.753 22.8334C166.588 22.5867 166.5 22.2967 166.5 22C166.5 21.6022 166.658 21.2206 166.939 20.9393C167.221 20.658 167.602 20.5 168 20.5ZM171 8.5H160.674L157.424 4.83875C157.189 4.57445 156.9 4.36302 156.578 4.21843C156.255 4.07385 155.905 3.9994 155.551 4H149C148.337 4 147.701 4.2634 147.232 4.73224C146.763 5.20108 146.5 5.83696 146.5 6.5V25.0763C146.501 25.7187 146.756 26.3346 147.21 26.7889C147.664 27.2433 148.28 27.499 148.923 27.5H158.07C158.468 27.5 158.849 27.342 159.131 27.0607C159.412 26.7794 159.57 26.3978 159.57 26C159.57 25.6022 159.412 25.2206 159.131 24.9393C158.849 24.658 158.468 24.5 158.07 24.5H149.5V11.5H170.5V13.5C170.5 13.8978 170.658 14.2794 170.939 14.5607C171.221 14.842 171.602 15 172 15C172.398 15 172.779 14.842 173.061 14.5607C173.342 14.2794 173.5 13.8978 173.5 13.5V11C173.5 10.337 173.237 9.70108 172.768 9.23224C172.299 8.7634 171.663 8.5 171 8.5ZM149.5 8.5V7H155.326L156.66 8.5H149.5Z" fill="currentColor"/>
<path d="M220.966 27.7425C221.006 27.8906 221.011 28.0458 220.981 28.1961C220.951 28.3464 220.886 28.4878 220.793 28.6093C220.7 28.7308 220.579 28.8293 220.442 28.897C220.304 28.9648 220.153 29 220 29H212C211.848 28.9997 211.697 28.9646 211.56 28.8972C211.424 28.8299 211.304 28.7322 211.211 28.6116C211.118 28.491 211.053 28.3506 211.022 28.2013C210.992 28.052 210.996 27.8976 211.034 27.75C211.358 26.5451 212.121 25.5049 213.173 24.8338C212.613 24.2745 212.232 23.5617 212.077 22.7857C211.922 22.0097 212.002 21.2053 212.304 20.4743C212.607 19.7432 213.12 19.1184 213.777 18.6787C214.435 18.2391 215.209 18.0044 216 18.0044C216.791 18.0044 217.565 18.2391 218.223 18.6787C218.88 19.1184 219.393 19.7432 219.696 20.4743C219.998 21.2053 220.078 22.0097 219.923 22.7857C219.768 23.5617 219.387 24.2745 218.827 24.8338C219.878 25.5031 220.64 26.5404 220.966 27.7425ZM221 11V15C221 15.2652 220.895 15.5196 220.707 15.7071C220.52 15.8947 220.265 16 220 16C219.735 16 219.48 15.8947 219.293 15.7071C219.105 15.5196 219 15.2652 219 15V11H197V25H207.07C207.335 25 207.59 25.1054 207.777 25.2929C207.965 25.4804 208.07 25.7348 208.07 26C208.07 26.2652 207.965 26.5196 207.777 26.7071C207.59 26.8947 207.335 27 207.07 27H196.923C196.413 26.9993 195.924 26.7966 195.564 26.4362C195.203 26.0758 195.001 25.5872 195 25.0775V7.00001C195 6.46958 195.211 5.96087 195.586 5.5858C195.961 5.21072 196.47 5.00001 197 5.00001H203.586C203.849 4.99917 204.109 5.05057 204.352 5.15121C204.595 5.25185 204.815 5.39973 205 5.58626L208.414 9.00001H219C219.53 9.00001 220.039 9.21072 220.414 9.5858C220.789 9.96087 221 10.4696 221 11ZM205.586 9.00001L203.586 7.00001H197V9.00001H205.586Z" fill="currentColor"/>
<path opacity="0.2" d="M267 22C267 22.5933 266.824 23.1734 266.494 23.6667C266.165 24.1601 265.696 24.5446 265.148 24.7716C264.6 24.9987 263.997 25.0581 263.415 24.9424C262.833 24.8266 262.298 24.5409 261.879 24.1213C261.459 23.7018 261.173 23.1672 261.058 22.5853C260.942 22.0033 261.001 21.4001 261.228 20.8519C261.455 20.3038 261.84 19.8352 262.333 19.5056C262.827 19.1759 263.407 19 264 19C264.796 19 265.559 19.3161 266.121 19.8787C266.684 20.4413 267 21.2044 267 22Z" fill="currentColor"/>
<path d="M266.826 24.8275C267.386 24.2683 267.767 23.5555 267.922 22.7795C268.077 22.0035 267.998 21.199 267.695 20.4678C267.393 19.7367 266.88 19.1117 266.222 18.672C265.564 18.2322 264.791 17.9975 263.999 17.9975C263.208 17.9975 262.435 18.2322 261.777 18.672C261.119 19.1117 260.606 19.7367 260.303 20.4678C260.001 21.199 259.922 22.0035 260.077 22.7795C260.231 23.5555 260.613 24.2683 261.173 24.8275C260.121 25.4984 259.358 26.5381 259.034 27.7425C258.965 27.9988 259.002 28.2717 259.135 28.5012C259.268 28.7307 259.486 28.898 259.743 28.9663C259.827 28.9884 259.913 28.9998 260 29C260.221 28.9999 260.435 28.927 260.61 28.7924C260.784 28.6579 260.91 28.4694 260.966 28.2563C261.32 26.9275 262.567 26 264 26C265.433 26 266.68 26.9275 267.034 28.2563C267.065 28.3854 267.123 28.5069 267.202 28.6137C267.281 28.7205 267.381 28.8104 267.495 28.8783C267.609 28.9461 267.736 28.9904 267.868 29.0087C267.999 29.0269 268.133 29.0187 268.262 28.9846C268.39 28.9504 268.511 28.891 268.616 28.8097C268.721 28.7285 268.809 28.6271 268.875 28.5114C268.94 28.3958 268.982 28.2682 268.998 28.1362C269.014 28.0041 269.003 27.8703 268.966 27.7425C268.642 26.5379 267.878 25.4982 266.826 24.8275ZM264 20C264.396 20 264.782 20.1173 265.111 20.3371C265.44 20.5568 265.696 20.8692 265.848 21.2346C265.999 21.6001 266.039 22.0022 265.962 22.3902C265.884 22.7782 265.694 23.1345 265.414 23.4142C265.135 23.6939 264.778 23.8844 264.39 23.9616C264.002 24.0388 263.6 23.9991 263.235 23.8478C262.869 23.6964 262.557 23.44 262.337 23.1112C262.117 22.7823 262 22.3956 262 22C262 21.4696 262.211 20.9609 262.586 20.5858C262.961 20.2107 263.47 20 264 20ZM267 9.00001H256.414L253 5.58626C252.815 5.39973 252.595 5.25185 252.352 5.15121C252.109 5.05057 251.849 4.99917 251.586 5.00001H245C244.47 5.00001 243.961 5.21072 243.586 5.5858C243.211 5.96087 243 6.46958 243 7.00001V25.0763C243 25.5862 243.203 26.0751 243.563 26.4357C243.924 26.7964 244.413 26.9993 244.923 27H255.07C255.335 27 255.59 26.8947 255.777 26.7071C255.965 26.5196 256.07 26.2652 256.07 26C256.07 25.7348 255.965 25.4804 255.777 25.2929C255.59 25.1054 255.335 25 255.07 25H245V11H267V15C267 15.2652 267.105 15.5196 267.293 15.7071C267.48 15.8947 267.735 16 268 16C268.265 16 268.52 15.8947 268.707 15.7071C268.895 15.5196 269 15.2652 269 15V11C269 10.4696 268.789 9.96087 268.414 9.5858C268.039 9.21072 267.53 9.00001 267 9.00001ZM251.586 7.00001L253.586 9.00001H245V7.00001H251.586Z" fill="currentColor"/>
</g>
<defs>
<clipPath id="clip0_17_9574">
<rect width="272" height="32" rx="5" fill="white"/>
</clipPath>
</defs>
</svg>
