<svg width="272" height="32" viewBox="0 0 272 32" fill="none" xmlns="http://www.w3.org/2000/svg">
<g clip-path="url(#clip0_17_9784)">
<path d="M27 9.00001H16.4137L13 5.58626C12.815 5.39973 12.5947 5.25185 12.352 5.15121C12.1093 5.05057 11.849 4.99917 11.5863 5.00001H5C4.46957 5.00001 3.96086 5.21072 3.58579 5.5858C3.21071 5.96087 3 6.46958 3 7.00001V25.0775C3.00066 25.5872 3.20342 26.0758 3.56382 26.4362C3.92421 26.7966 4.41282 26.9993 4.9225 27H27.1112C27.612 26.9993 28.092 26.8001 28.4461 26.4461C28.8001 26.092 28.9993 25.612 29 25.1113V11C29 10.4696 28.7893 9.96087 28.4142 9.5858C28.0391 9.21072 27.5304 9.00001 27 9.00001ZM11.5863 7.00001L13.5863 9.00001H5V7.00001H11.5863ZM27 25H5V11H27V25ZM13 17H19C19.2652 17 19.5196 17.1054 19.7071 17.2929C19.8946 17.4804 20 17.7348 20 18C20 18.2652 19.8946 18.5196 19.7071 18.7071C19.5196 18.8947 19.2652 19 19 19H13C12.7348 19 12.4804 18.8947 12.2929 18.7071C12.1054 18.5196 12 18.2652 12 18C12 17.7348 12.1054 17.4804 12.2929 17.2929C12.4804 17.1054 12.7348 17 13 17Z" fill="currentColor"/>
<path d="M75 9.50001H64.2075L60.6462 5.94001C60.5075 5.80012 60.3424 5.68919 60.1604 5.61366C59.9784 5.53812 59.7833 5.49949 59.5863 5.50001H53C52.6022 5.50001 52.2206 5.65804 51.9393 5.93934C51.658 6.22065 51.5 6.60218 51.5 7.00001V25.0775C51.5007 25.4546 51.6507 25.816 51.9174 26.0826C52.184 26.3493 52.5454 26.4993 52.9225 26.5H75.1112C75.4795 26.4997 75.8325 26.3533 76.0929 26.0929C76.3532 25.8325 76.4997 25.4795 76.5 25.1113V11C76.5 10.6022 76.342 10.2206 76.0607 9.93934C75.7794 9.65804 75.3978 9.50001 75 9.50001ZM53 6.50001H59.5863C59.7185 6.50023 59.8452 6.55282 59.9388 6.64625L62.7925 9.50001H52.5V7.00001C52.5 6.8674 52.5527 6.74022 52.6464 6.64645C52.7402 6.55268 52.8674 6.50001 53 6.50001ZM75.5 25.1113C75.4997 25.2143 75.4586 25.3129 75.3858 25.3858C75.3129 25.4586 75.2143 25.4997 75.1112 25.5H52.9225C52.8105 25.4997 52.7033 25.4551 52.6241 25.3759C52.5449 25.2967 52.5003 25.1895 52.5 25.0775V10.5H75C75.1326 10.5 75.2598 10.5527 75.3536 10.6465C75.4473 10.7402 75.5 10.8674 75.5 11V25.1113ZM67.5 18C67.5 18.1326 67.4473 18.2598 67.3536 18.3536C67.2598 18.4473 67.1326 18.5 67 18.5H61C60.8674 18.5 60.7402 18.4473 60.6464 18.3536C60.5527 18.2598 60.5 18.1326 60.5 18C60.5 17.8674 60.5527 17.7402 60.6464 17.6465C60.7402 17.5527 60.8674 17.5 61 17.5H67C67.1326 17.5 67.2598 17.5527 67.3536 17.6465C67.4473 17.7402 67.5 17.8674 67.5 18Z" fill="currentColor"/>
<path d="M123 9.25H112.311L108.824 5.7625C108.661 5.59967 108.469 5.47056 108.256 5.3826C108.044 5.29464 107.816 5.24958 107.586 5.25H101C100.536 5.25 100.091 5.43438 99.7626 5.76257C99.4344 6.09075 99.25 6.53587 99.25 7V25.0775C99.2503 25.521 99.4266 25.9462 99.7402 26.2598C100.054 26.5734 100.479 26.7497 100.923 26.75H123.111C123.546 26.7497 123.962 26.5769 124.27 26.2697C124.577 25.9624 124.75 25.5458 124.75 25.1113V11C124.75 10.5359 124.566 10.0908 124.237 9.76257C123.909 9.43438 123.464 9.25 123 9.25ZM101 6.75H107.586C107.652 6.75028 107.716 6.7768 107.762 6.82375L110.189 9.25H100.75V7C100.75 6.9337 100.776 6.87011 100.823 6.82323C100.87 6.77634 100.934 6.75 101 6.75ZM123.25 25.1113C123.25 25.1481 123.235 25.1833 123.209 25.2094C123.183 25.2354 123.148 25.25 123.111 25.25H100.923C100.877 25.2494 100.833 25.231 100.801 25.1988C100.769 25.1666 100.751 25.1231 100.75 25.0775V10.75H123C123.066 10.75 123.13 10.7763 123.177 10.8232C123.224 10.8701 123.25 10.9337 123.25 11V25.1113ZM115.75 18C115.75 18.1989 115.671 18.3897 115.53 18.5303C115.39 18.671 115.199 18.75 115 18.75H109C108.801 18.75 108.61 18.671 108.47 18.5303C108.329 18.3897 108.25 18.1989 108.25 18C108.25 17.8011 108.329 17.6103 108.47 17.4697C108.61 17.329 108.801 17.25 109 17.25H115C115.199 17.25 115.39 17.329 115.53 17.4697C115.671 17.6103 115.75 17.8011 115.75 18Z" fill="currentColor"/>
<path d="M155.5 18C155.5 17.6022 155.658 17.2207 155.939 16.9394C156.221 16.658 156.602 16.5 157 16.5H163C163.398 16.5 163.779 16.658 164.061 16.9394C164.342 17.2207 164.5 17.6022 164.5 18C164.5 18.3978 164.342 18.7794 164.061 19.0607C163.779 19.342 163.398 19.5 163 19.5H157C156.602 19.5 156.221 19.342 155.939 19.0607C155.658 18.7794 155.5 18.3978 155.5 18ZM173.5 11V25.1113C173.499 25.7446 173.247 26.3518 172.8 26.7996C172.352 27.2475 171.745 27.4993 171.111 27.5H148.923C148.28 27.499 147.665 27.2435 147.211 26.7894C146.757 26.3353 146.501 25.7197 146.5 25.0775V6.50001C146.5 5.83697 146.763 5.20108 147.232 4.73224C147.701 4.2634 148.337 4.00001 149 4.00001H155.551C155.905 3.99905 156.256 4.07333 156.579 4.21792C156.902 4.36252 157.191 4.57414 157.426 4.83876L160.676 8.50001H171C171.663 8.50001 172.299 8.7634 172.768 9.23224C173.237 9.70108 173.5 10.337 173.5 11ZM149.5 8.50001H156.66L155.326 7.00001H149.5V8.50001ZM170.5 11.5H149.5V24.5H170.5V11.5Z" fill="currentColor"/>
<path d="M219 9.00001H208.414L205 5.58626C204.815 5.39984 204.595 5.25203 204.352 5.1514C204.109 5.05077 203.849 4.99931 203.586 5.00001H197C196.47 5.00001 195.961 5.21072 195.586 5.58579C195.211 5.96087 195 6.46957 195 7.00001V25.0775C195.001 25.5873 195.204 26.0759 195.565 26.4363C195.925 26.7966 196.414 26.9993 196.924 27H219.111C219.612 26.9993 220.092 26.8001 220.446 26.4461C220.8 26.092 220.999 25.612 221 25.1113V11C221 10.4696 220.789 9.96087 220.414 9.58579C220.039 9.21072 219.53 9.00001 219 9.00001ZM197 7.00001H203.586L205.586 9.00001H197V7.00001ZM211 19H205C204.735 19 204.48 18.8947 204.293 18.7071C204.105 18.5196 204 18.2652 204 18C204 17.7348 204.105 17.4804 204.293 17.2929C204.48 17.1054 204.735 17 205 17H211C211.265 17 211.52 17.1054 211.707 17.2929C211.895 17.4804 212 17.7348 212 18C212 18.2652 211.895 18.5196 211.707 18.7071C211.52 18.8947 211.265 19 211 19Z" fill="currentColor"/>
<path opacity="0.2" d="M256 10H244V7C244 6.73478 244.105 6.48043 244.293 6.29289C244.48 6.10536 244.735 6 245 6H251.586C251.851 6.00012 252.105 6.10532 252.292 6.2925L256 10Z" fill="currentColor"/>
<path d="M267 9.00001H256.414L253 5.58626C252.815 5.39973 252.595 5.25185 252.352 5.15121C252.109 5.05057 251.849 4.99917 251.586 5.00001H245C244.47 5.00001 243.961 5.21072 243.586 5.5858C243.211 5.96087 243 6.46958 243 7.00001V25.0775C243.001 25.5872 243.203 26.0758 243.564 26.4362C243.924 26.7966 244.413 26.9993 244.923 27H267.111C267.612 26.9993 268.092 26.8001 268.446 26.4461C268.8 26.092 268.999 25.612 269 25.1113V11C269 10.4696 268.789 9.96087 268.414 9.5858C268.039 9.21072 267.53 9.00001 267 9.00001ZM245 7.00001H251.586L253.586 9.00001H245V7.00001ZM267 25H245V11H267V25ZM252 18C252 17.7348 252.105 17.4804 252.293 17.2929C252.48 17.1054 252.735 17 253 17H259C259.265 17 259.52 17.1054 259.707 17.2929C259.895 17.4804 260 17.7348 260 18C260 18.2652 259.895 18.5196 259.707 18.7071C259.52 18.8947 259.265 19 259 19H253C252.735 19 252.48 18.8947 252.293 18.7071C252.105 18.5196 252 18.2652 252 18Z" fill="currentColor"/>
</g>
<defs>
<clipPath id="clip0_17_9784">
<rect width="272" height="32" rx="5" fill="white"/>
</clipPath>
</defs>
</svg>
