<svg width="272" height="32" viewBox="0 0 272 32" fill="none" xmlns="http://www.w3.org/2000/svg">
<g clip-path="url(#clip0_17_9672)">
<path d="M3 10V8C3 7.46957 3.21071 6.96086 3.58579 6.58579C3.96086 6.21071 4.46957 6 5 6H11.6663C12.0988 6.00107 12.5196 6.14132 12.8663 6.4L16.6 9.2C16.7051 9.27879 16.7936 9.37751 16.8605 9.49051C16.9274 9.60351 16.9714 9.72858 16.99 9.85858C17.0085 9.98858 17.0013 10.121 16.9687 10.2482C16.9361 10.3754 16.8788 10.4949 16.8 10.6C16.7212 10.7051 16.6225 10.7936 16.5095 10.8605C16.3965 10.9274 16.2714 10.9714 16.1414 10.9899C16.0114 11.0085 15.879 11.0013 15.7518 10.9687C15.6246 10.9361 15.5051 10.8788 15.4 10.8L11.6663 8H5V10C5 10.2652 4.89464 10.5196 4.70711 10.7071C4.51957 10.8946 4.26522 11 4 11C3.73478 11 3.48043 10.8946 3.29289 10.7071C3.10536 10.5196 3 10.2652 3 10ZM11 25H5V24C5 23.7348 4.89464 23.4804 4.70711 23.2929C4.51957 23.1054 4.26522 23 4 23C3.73478 23 3.48043 23.1054 3.29289 23.2929C3.10536 23.4804 3 23.7348 3 24V25.0775C3.00066 25.5872 3.20342 26.0758 3.56382 26.4362C3.92421 26.7966 4.41282 26.9993 4.9225 27H11C11.2652 27 11.5196 26.8946 11.7071 26.7071C11.8946 26.5196 12 26.2652 12 26C12 25.7348 11.8946 25.4804 11.7071 25.2929C11.5196 25.1054 11.2652 25 11 25ZM20 25H16C15.7348 25 15.4804 25.1054 15.2929 25.2929C15.1054 25.4804 15 25.7348 15 26C15 26.2652 15.1054 26.5196 15.2929 26.7071C15.4804 26.8946 15.7348 27 16 27H20C20.2652 27 20.5196 26.8946 20.7071 26.7071C20.8946 26.5196 21 26.2652 21 26C21 25.7348 20.8946 25.4804 20.7071 25.2929C20.5196 25.1054 20.2652 25 20 25ZM28 18C27.7348 18 27.4804 18.1054 27.2929 18.2929C27.1054 18.4804 27 18.7348 27 19V25H25C24.7348 25 24.4804 25.1054 24.2929 25.2929C24.1054 25.4804 24 25.7348 24 26C24 26.2652 24.1054 26.5196 24.2929 26.7071C24.4804 26.8946 24.7348 27 25 27H27.1112C27.612 26.9993 28.092 26.8001 28.4461 26.4461C28.8001 26.092 28.9993 25.612 29 25.1112V19C29 18.7348 28.8946 18.4804 28.7071 18.2929C28.5196 18.1054 28.2652 18 28 18ZM27 9H21C20.7348 9 20.4804 9.10536 20.2929 9.29289C20.1054 9.48043 20 9.73478 20 10C20 10.2652 20.1054 10.5196 20.2929 10.7071C20.4804 10.8946 20.7348 11 21 11H27V14C27 14.2652 27.1054 14.5196 27.2929 14.7071C27.4804 14.8946 27.7348 15 28 15C28.2652 15 28.5196 14.8946 28.7071 14.7071C28.8946 14.5196 29 14.2652 29 14V11C29 10.4696 28.7893 9.96086 28.4142 9.58579C28.0391 9.21071 27.5304 9 27 9ZM4 20C4.26522 20 4.51957 19.8946 4.70711 19.7071C4.89464 19.5196 5 19.2652 5 19V15C5 14.7348 4.89464 14.4804 4.70711 14.2929C4.51957 14.1054 4.26522 14 4 14C3.73478 14 3.48043 14.1054 3.29289 14.2929C3.10536 14.4804 3 14.7348 3 15V19C3 19.2652 3.10536 19.5196 3.29289 19.7071C3.48043 19.8946 3.73478 20 4 20Z" fill="currentColor"/>
<path d="M63.7 10.4L59.9663 7.6C59.8797 7.53509 59.7744 7.5 59.6663 7.5H53C52.8674 7.5 52.7402 7.55268 52.6464 7.64645C52.5527 7.74021 52.5 7.86739 52.5 8V10C52.5 10.1326 52.4473 10.2598 52.3536 10.3536C52.2598 10.4473 52.1326 10.5 52 10.5C51.8674 10.5 51.7402 10.4473 51.6464 10.3536C51.5527 10.2598 51.5 10.1326 51.5 10V8C51.5 7.60218 51.658 7.22064 51.9393 6.93934C52.2206 6.65804 52.6022 6.5 53 6.5H59.6663C59.9907 6.50045 60.3064 6.60567 60.5662 6.8L64.3 9.6C64.4061 9.67957 64.4762 9.79801 64.495 9.92929C64.5137 10.0606 64.4796 10.1939 64.4 10.3C64.3204 10.4061 64.202 10.4762 64.0707 10.495C63.9394 10.5137 63.8061 10.4796 63.7 10.4ZM59 25.5H52.9225C52.8105 25.4997 52.7033 25.4551 52.6241 25.3759C52.5449 25.2967 52.5003 25.1895 52.5 25.0775V24C52.5 23.8674 52.4473 23.7402 52.3536 23.6464C52.2598 23.5527 52.1326 23.5 52 23.5C51.8674 23.5 51.7402 23.5527 51.6464 23.6464C51.5527 23.7402 51.5 23.8674 51.5 24V25.0775C51.5007 25.4546 51.6507 25.816 51.9174 26.0826C52.184 26.3493 52.5454 26.4993 52.9225 26.5H59C59.1326 26.5 59.2598 26.4473 59.3536 26.3536C59.4473 26.2598 59.5 26.1326 59.5 26C59.5 25.8674 59.4473 25.7402 59.3536 25.6464C59.2598 25.5527 59.1326 25.5 59 25.5ZM68 25.5H64C63.8674 25.5 63.7402 25.5527 63.6464 25.6464C63.5527 25.7402 63.5 25.8674 63.5 26C63.5 26.1326 63.5527 26.2598 63.6464 26.3536C63.7402 26.4473 63.8674 26.5 64 26.5H68C68.1326 26.5 68.2598 26.4473 68.3536 26.3536C68.4473 26.2598 68.5 26.1326 68.5 26C68.5 25.8674 68.4473 25.7402 68.3536 25.6464C68.2598 25.5527 68.1326 25.5 68 25.5ZM76 18.5C75.8674 18.5 75.7402 18.5527 75.6464 18.6464C75.5527 18.7402 75.5 18.8674 75.5 19V25.1112C75.4997 25.2143 75.4586 25.3129 75.3858 25.3858C75.3129 25.4586 75.2143 25.4997 75.1112 25.5H73C72.8674 25.5 72.7402 25.5527 72.6464 25.6464C72.5527 25.7402 72.5 25.8674 72.5 26C72.5 26.1326 72.5527 26.2598 72.6464 26.3536C72.7402 26.4473 72.8674 26.5 73 26.5H75.1112C75.4795 26.4997 75.8325 26.3532 76.0929 26.0929C76.3532 25.8325 76.4997 25.4795 76.5 25.1112V19C76.5 18.8674 76.4473 18.7402 76.3536 18.6464C76.2598 18.5527 76.1326 18.5 76 18.5ZM75 9.5H69C68.8674 9.5 68.7402 9.55268 68.6464 9.64645C68.5527 9.74021 68.5 9.86739 68.5 10C68.5 10.1326 68.5527 10.2598 68.6464 10.3536C68.7402 10.4473 68.8674 10.5 69 10.5H75C75.1326 10.5 75.2598 10.5527 75.3536 10.6464C75.4473 10.7402 75.5 10.8674 75.5 11V14C75.5 14.1326 75.5527 14.2598 75.6464 14.3536C75.7402 14.4473 75.8674 14.5 76 14.5C76.1326 14.5 76.2598 14.4473 76.3536 14.3536C76.4473 14.2598 76.5 14.1326 76.5 14V11C76.5 10.6022 76.342 10.2206 76.0607 9.93934C75.7794 9.65804 75.3978 9.5 75 9.5ZM52 19.5C52.1326 19.5 52.2598 19.4473 52.3536 19.3536C52.4473 19.2598 52.5 19.1326 52.5 19V15C52.5 14.8674 52.4473 14.7402 52.3536 14.6464C52.2598 14.5527 52.1326 14.5 52 14.5C51.8674 14.5 51.7402 14.5527 51.6464 14.6464C51.5527 14.7402 51.5 14.8674 51.5 15V19C51.5 19.1326 51.5527 19.2598 51.6464 19.3536C51.7402 19.4473 51.8674 19.5 52 19.5Z" fill="currentColor"/>
<path d="M111.55 10.6L107.816 7.8C107.773 7.76754 107.72 7.75 107.666 7.75H101C100.934 7.75 100.87 7.77634 100.823 7.82322C100.776 7.87011 100.75 7.9337 100.75 8V10C100.75 10.1989 100.671 10.3897 100.53 10.5303C100.39 10.671 100.199 10.75 100 10.75C99.8011 10.75 99.6103 10.671 99.4697 10.5303C99.329 10.3897 99.25 10.1989 99.25 10V8C99.25 7.53587 99.4344 7.09075 99.7626 6.76256C100.091 6.43437 100.536 6.25 101 6.25H107.666C108.045 6.25 108.413 6.37281 108.716 6.6L112.45 9.4C112.609 9.51935 112.714 9.69702 112.742 9.89393C112.771 10.0908 112.719 10.2909 112.6 10.45C112.481 10.6091 112.303 10.7143 112.106 10.7425C111.909 10.7706 111.709 10.7193 111.55 10.6ZM107 25.25H100.923C100.877 25.2494 100.833 25.231 100.801 25.1988C100.769 25.1665 100.751 25.123 100.75 25.0775V24C100.75 23.8011 100.671 23.6103 100.53 23.4697C100.39 23.329 100.199 23.25 100 23.25C99.8011 23.25 99.6103 23.329 99.4697 23.4697C99.329 23.6103 99.25 23.8011 99.25 24V25.0775C99.2503 25.521 99.4266 25.9462 99.7402 26.2598C100.054 26.5734 100.479 26.7497 100.923 26.75H107C107.199 26.75 107.39 26.671 107.53 26.5303C107.671 26.3897 107.75 26.1989 107.75 26C107.75 25.8011 107.671 25.6103 107.53 25.4697C107.39 25.329 107.199 25.25 107 25.25ZM116 25.25H112C111.801 25.25 111.61 25.329 111.47 25.4697C111.329 25.6103 111.25 25.8011 111.25 26C111.25 26.1989 111.329 26.3897 111.47 26.5303C111.61 26.671 111.801 26.75 112 26.75H116C116.199 26.75 116.39 26.671 116.53 26.5303C116.671 26.3897 116.75 26.1989 116.75 26C116.75 25.8011 116.671 25.6103 116.53 25.4697C116.39 25.329 116.199 25.25 116 25.25ZM124 18.25C123.801 18.25 123.61 18.329 123.47 18.4697C123.329 18.6103 123.25 18.8011 123.25 19V25.1112C123.25 25.148 123.235 25.1833 123.209 25.2094C123.183 25.2354 123.148 25.25 123.111 25.25H121C120.801 25.25 120.61 25.329 120.47 25.4697C120.329 25.6103 120.25 25.8011 120.25 26C120.25 26.1989 120.329 26.3897 120.47 26.5303C120.61 26.671 120.801 26.75 121 26.75H123.111C123.546 26.7497 123.962 26.5769 124.27 26.2697C124.577 25.9624 124.75 25.5458 124.75 25.1112V19C124.75 18.8011 124.671 18.6103 124.53 18.4697C124.39 18.329 124.199 18.25 124 18.25ZM123 9.25H117C116.801 9.25 116.61 9.32902 116.47 9.46967C116.329 9.61032 116.25 9.80109 116.25 10C116.25 10.1989 116.329 10.3897 116.47 10.5303C116.61 10.671 116.801 10.75 117 10.75H123C123.066 10.75 123.13 10.7763 123.177 10.8232C123.224 10.8701 123.25 10.9337 123.25 11V14C123.25 14.1989 123.329 14.3897 123.47 14.5303C123.61 14.671 123.801 14.75 124 14.75C124.199 14.75 124.39 14.671 124.53 14.5303C124.671 14.3897 124.75 14.1989 124.75 14V11C124.75 10.5359 124.566 10.0908 124.237 9.76256C123.909 9.43437 123.464 9.25 123 9.25ZM100 19.75C100.199 19.75 100.39 19.671 100.53 19.5303C100.671 19.3897 100.75 19.1989 100.75 19V15C100.75 14.8011 100.671 14.6103 100.53 14.4697C100.39 14.329 100.199 14.25 100 14.25C99.8011 14.25 99.6103 14.329 99.4697 14.4697C99.329 14.6103 99.25 14.8011 99.25 15V19C99.25 19.1989 99.329 19.3897 99.4697 19.5303C99.6103 19.671 99.8011 19.75 100 19.75Z" fill="currentColor"/>
<path d="M146.5 10V8C146.5 7.33696 146.763 6.70107 147.232 6.23223C147.701 5.76339 148.337 5.5 149 5.5H155.666C156.207 5.50107 156.733 5.67641 157.166 6L160.9 8.8C161.058 8.91819 161.19 9.06626 161.291 9.23576C161.391 9.40526 161.457 9.59286 161.485 9.78787C161.513 9.98287 161.502 10.1815 161.453 10.3723C161.404 10.5631 161.318 10.7424 161.2 10.9C161.082 11.0576 160.934 11.1904 160.764 11.2907C160.595 11.3911 160.407 11.4571 160.212 11.4849C160.017 11.5128 159.819 11.502 159.628 11.4531C159.437 11.4042 159.258 11.3182 159.1 11.2L155.5 8.5H149.5V10C149.5 10.3978 149.342 10.7794 149.061 11.0607C148.779 11.342 148.398 11.5 148 11.5C147.602 11.5 147.221 11.342 146.939 11.0607C146.658 10.7794 146.5 10.3978 146.5 10ZM155 24.5H149.5V24C149.5 23.6022 149.342 23.2206 149.061 22.9393C148.779 22.658 148.398 22.5 148 22.5C147.602 22.5 147.221 22.658 146.939 22.9393C146.658 23.2206 146.5 23.6022 146.5 24V25.0775C146.501 25.7197 146.757 26.3353 147.211 26.7894C147.665 27.2435 148.28 27.499 148.923 27.5H155C155.398 27.5 155.779 27.342 156.061 27.0607C156.342 26.7794 156.5 26.3978 156.5 26C156.5 25.6022 156.342 25.2206 156.061 24.9393C155.779 24.658 155.398 24.5 155 24.5ZM164 24.5H160C159.602 24.5 159.221 24.658 158.939 24.9393C158.658 25.2206 158.5 25.6022 158.5 26C158.5 26.3978 158.658 26.7794 158.939 27.0607C159.221 27.342 159.602 27.5 160 27.5H164C164.398 27.5 164.779 27.342 165.061 27.0607C165.342 26.7794 165.5 26.3978 165.5 26C165.5 25.6022 165.342 25.2206 165.061 24.9393C164.779 24.658 164.398 24.5 164 24.5ZM172 17.5C171.602 17.5 171.221 17.658 170.939 17.9393C170.658 18.2206 170.5 18.6022 170.5 19V24.5H169C168.602 24.5 168.221 24.658 167.939 24.9393C167.658 25.2206 167.5 25.6022 167.5 26C167.5 26.3978 167.658 26.7794 167.939 27.0607C168.221 27.342 168.602 27.5 169 27.5H171.111C171.745 27.4993 172.352 27.2475 172.8 26.7996C173.247 26.3518 173.499 25.7446 173.5 25.1112V19C173.5 18.6022 173.342 18.2206 173.061 17.9393C172.779 17.658 172.398 17.5 172 17.5ZM171 8.5H165C164.602 8.5 164.221 8.65804 163.939 8.93934C163.658 9.22064 163.5 9.60218 163.5 10C163.5 10.3978 163.658 10.7794 163.939 11.0607C164.221 11.342 164.602 11.5 165 11.5H170.5V14C170.5 14.3978 170.658 14.7794 170.939 15.0607C171.221 15.342 171.602 15.5 172 15.5C172.398 15.5 172.779 15.342 173.061 15.0607C173.342 14.7794 173.5 14.3978 173.5 14V11C173.5 10.337 173.237 9.70107 172.768 9.23223C172.299 8.76339 171.663 8.5 171 8.5ZM148 20.5C148.398 20.5 148.779 20.342 149.061 20.0607C149.342 19.7794 149.5 19.3978 149.5 19V15C149.5 14.6022 149.342 14.2206 149.061 13.9393C148.779 13.658 148.398 13.5 148 13.5C147.602 13.5 147.221 13.658 146.939 13.9393C146.658 14.2206 146.5 14.6022 146.5 15V19C146.5 19.3978 146.658 19.7794 146.939 20.0607C147.221 20.342 147.602 20.5 148 20.5Z" fill="currentColor"/>
<path d="M195 10V8C195 7.46957 195.211 6.96086 195.586 6.58579C195.961 6.21071 196.47 6 197 6H203.666C204.099 6.00107 204.52 6.14132 204.866 6.4L208.6 9.2C208.768 9.32593 208.892 9.5015 208.955 9.70183C209.017 9.90217 209.015 10.1171 208.949 10.3162C208.882 10.5153 208.755 10.6885 208.585 10.8112C208.414 10.934 208.21 11 208 11H196C195.735 11 195.48 10.8946 195.293 10.7071C195.105 10.5196 195 10.2652 195 10ZM203 25H197V24C197 23.7348 196.895 23.4804 196.707 23.2929C196.52 23.1054 196.265 23 196 23C195.735 23 195.48 23.1054 195.293 23.2929C195.105 23.4804 195 23.7348 195 24V25.0775C195.001 25.5872 195.203 26.0758 195.564 26.4362C195.924 26.7966 196.413 26.9993 196.923 27H203C203.265 27 203.52 26.8946 203.707 26.7071C203.895 26.5196 204 26.2652 204 26C204 25.7348 203.895 25.4804 203.707 25.2929C203.52 25.1054 203.265 25 203 25ZM212 25H208C207.735 25 207.48 25.1054 207.293 25.2929C207.105 25.4804 207 25.7348 207 26C207 26.2652 207.105 26.5196 207.293 26.7071C207.48 26.8946 207.735 27 208 27H212C212.265 27 212.52 26.8946 212.707 26.7071C212.895 26.5196 213 26.2652 213 26C213 25.7348 212.895 25.4804 212.707 25.2929C212.52 25.1054 212.265 25 212 25ZM220 18C219.735 18 219.48 18.1054 219.293 18.2929C219.105 18.4804 219 18.7348 219 19V25H217C216.735 25 216.48 25.1054 216.293 25.2929C216.105 25.4804 216 25.7348 216 26C216 26.2652 216.105 26.5196 216.293 26.7071C216.48 26.8946 216.735 27 217 27H219.111C219.612 26.9993 220.092 26.8001 220.446 26.4461C220.8 26.092 220.999 25.612 221 25.1112V19C221 18.7348 220.895 18.4804 220.707 18.2929C220.52 18.1054 220.265 18 220 18ZM219 9H213C212.735 9 212.48 9.10536 212.293 9.29289C212.105 9.48043 212 9.73478 212 10C212 10.2652 212.105 10.5196 212.293 10.7071C212.48 10.8946 212.735 11 213 11H219V14C219 14.2652 219.105 14.5196 219.293 14.7071C219.48 14.8946 219.735 15 220 15C220.265 15 220.52 14.8946 220.707 14.7071C220.895 14.5196 221 14.2652 221 14V11C221 10.4696 220.789 9.96086 220.414 9.58579C220.039 9.21071 219.53 9 219 9ZM196 20C196.265 20 196.52 19.8946 196.707 19.7071C196.895 19.5196 197 19.2652 197 19V15C197 14.7348 196.895 14.4804 196.707 14.2929C196.52 14.1054 196.265 14 196 14C195.735 14 195.48 14.1054 195.293 14.2929C195.105 14.4804 195 14.7348 195 15V19C195 19.2652 195.105 19.5196 195.293 19.7071C195.48 19.8946 195.735 20 196 20Z" fill="currentColor"/>
<path opacity="0.2" d="M268 11V25.1112C268 25.347 267.906 25.573 267.74 25.7397C267.573 25.9064 267.347 26 267.111 26H245C244.735 26 244.48 25.8946 244.293 25.7071C244.105 25.5196 244 25.2652 244 25V8C244 7.73478 244.105 7.48043 244.293 7.29289C244.48 7.10536 244.735 7 245 7H251.666C251.883 7 252.093 7.07018 252.266 7.2L255.734 9.8C255.907 9.92982 256.117 10 256.334 10H267C267.265 10 267.52 10.1054 267.707 10.2929C267.895 10.4804 268 10.7348 268 11Z" fill="currentColor"/>
<path d="M243 10V8C243 7.46957 243.211 6.96086 243.586 6.58579C243.961 6.21071 244.47 6 245 6H251.666C252.099 6.00107 252.52 6.14132 252.866 6.4L256.6 9.2C256.705 9.27879 256.794 9.37751 256.86 9.49051C256.927 9.60351 256.971 9.72858 256.99 9.85858C257.009 9.98858 257.001 10.121 256.969 10.2482C256.936 10.3754 256.879 10.4949 256.8 10.6C256.721 10.7051 256.622 10.7936 256.509 10.8605C256.396 10.9274 256.271 10.9714 256.141 10.9899C256.011 11.0085 255.879 11.0013 255.752 10.9687C255.625 10.9361 255.505 10.8788 255.4 10.8L251.666 8H245V10C245 10.2652 244.895 10.5196 244.707 10.7071C244.52 10.8946 244.265 11 244 11C243.735 11 243.48 10.8946 243.293 10.7071C243.105 10.5196 243 10.2652 243 10ZM251 25H245V24C245 23.7348 244.895 23.4804 244.707 23.2929C244.52 23.1054 244.265 23 244 23C243.735 23 243.48 23.1054 243.293 23.2929C243.105 23.4804 243 23.7348 243 24V25.0775C243.001 25.5872 243.203 26.0758 243.564 26.4362C243.924 26.7966 244.413 26.9993 244.923 27H251C251.265 27 251.52 26.8946 251.707 26.7071C251.895 26.5196 252 26.2652 252 26C252 25.7348 251.895 25.4804 251.707 25.2929C251.52 25.1054 251.265 25 251 25ZM260 25H256C255.735 25 255.48 25.1054 255.293 25.2929C255.105 25.4804 255 25.7348 255 26C255 26.2652 255.105 26.5196 255.293 26.7071C255.48 26.8946 255.735 27 256 27H260C260.265 27 260.52 26.8946 260.707 26.7071C260.895 26.5196 261 26.2652 261 26C261 25.7348 260.895 25.4804 260.707 25.2929C260.52 25.1054 260.265 25 260 25ZM268 18C267.735 18 267.48 18.1054 267.293 18.2929C267.105 18.4804 267 18.7348 267 19V25H265C264.735 25 264.48 25.1054 264.293 25.2929C264.105 25.4804 264 25.7348 264 26C264 26.2652 264.105 26.5196 264.293 26.7071C264.48 26.8946 264.735 27 265 27H267.111C267.612 26.9993 268.092 26.8001 268.446 26.4461C268.8 26.092 268.999 25.612 269 25.1112V19C269 18.7348 268.895 18.4804 268.707 18.2929C268.52 18.1054 268.265 18 268 18ZM267 9H261C260.735 9 260.48 9.10536 260.293 9.29289C260.105 9.48043 260 9.73478 260 10C260 10.2652 260.105 10.5196 260.293 10.7071C260.48 10.8946 260.735 11 261 11H267V14C267 14.2652 267.105 14.5196 267.293 14.7071C267.48 14.8946 267.735 15 268 15C268.265 15 268.52 14.8946 268.707 14.7071C268.895 14.5196 269 14.2652 269 14V11C269 10.4696 268.789 9.96086 268.414 9.58579C268.039 9.21071 267.53 9 267 9ZM244 20C244.265 20 244.52 19.8946 244.707 19.7071C244.895 19.5196 245 19.2652 245 19V15C245 14.7348 244.895 14.4804 244.707 14.2929C244.52 14.1054 244.265 14 244 14C243.735 14 243.48 14.1054 243.293 14.2929C243.105 14.4804 243 14.7348 243 15V19C243 19.2652 243.105 19.5196 243.293 19.7071C243.48 19.8946 243.735 20 244 20Z" fill="currentColor"/>
</g>
<defs>
<clipPath id="clip0_17_9672">
<rect width="272" height="32" rx="5" fill="white"/>
</clipPath>
</defs>
</svg>
