<svg width="272" height="32" viewBox="0 0 272 32" fill="none" xmlns="http://www.w3.org/2000/svg">
<g clip-path="url(#clip0_17_9728)">
<path d="M16 15C16.2652 15 16.5196 15.1054 16.7071 15.2929C16.8946 15.4804 17 15.7348 17 16V18H19C19.2652 18 19.5196 18.1054 19.7071 18.2929C19.8946 18.4804 20 18.7348 20 19C20 19.2652 19.8946 19.5196 19.7071 19.7071C19.5196 19.8946 19.2652 20 19 20H17V22C17 22.2652 16.8946 22.5196 16.7071 22.7071C16.5196 22.8946 16.2652 23 16 23C15.7348 23 15.4804 22.8946 15.2929 22.7071C15.1054 22.5196 15 22.2652 15 22V20H13C12.7348 20 12.4804 19.8946 12.2929 19.7071C12.1054 19.5196 12 19.2652 12 19C12 18.7348 12.1054 18.4804 12.2929 18.2929C12.4804 18.1054 12.7348 18 13 18H15V16C15 15.7348 15.1054 15.4804 15.2929 15.2929C15.4804 15.1054 15.7348 15 16 15ZM29 11V25C29 25.5304 28.7893 26.0391 28.4142 26.4142C28.0391 26.7893 27.5304 27 27 27H5C4.46957 27 3.96086 26.7893 3.58579 26.4142C3.21071 26.0391 3 25.5304 3 25V8C3 7.46957 3.21071 6.96086 3.58579 6.58579C3.96086 6.21071 4.46957 6 5 6H11.6663C12.0988 6.00107 12.5196 6.14132 12.8663 6.4L16.3337 9H27C27.5304 9 28.0391 9.21071 28.4142 9.58579C28.7893 9.96086 29 10.4696 29 11ZM5 12H11.6663L14.3337 10L11.6663 8H5V12ZM27 11H16.3337L12.8663 13.6C12.5196 13.8587 12.0988 13.9989 11.6663 14H5V25H27V11Z" fill="currentColor"/>
<path d="M75 9.5H64.1663L60.5662 6.8C60.3064 6.60567 59.9907 6.50045 59.6663 6.5H53C52.6022 6.5 52.2206 6.65804 51.9393 6.93934C51.658 7.22064 51.5 7.60218 51.5 8V25C51.5 25.3978 51.658 25.7794 51.9393 26.0607C52.2206 26.342 52.6022 26.5 53 26.5H75C75.3978 26.5 75.7794 26.342 76.0607 26.0607C76.342 25.7794 76.5 25.3978 76.5 25V11C76.5 10.6022 76.342 10.2206 76.0607 9.93934C75.7794 9.65804 75.3978 9.5 75 9.5ZM52.5 8C52.5 7.86739 52.5527 7.74021 52.6464 7.64645C52.7402 7.55268 52.8674 7.5 53 7.5H59.6663C59.7744 7.5 59.8797 7.53509 59.9663 7.6L63.1663 10L59.9663 12.4C59.8797 12.4649 59.7744 12.5 59.6663 12.5H52.5V8ZM75.5 25C75.5 25.1326 75.4473 25.2598 75.3536 25.3536C75.2598 25.4473 75.1326 25.5 75 25.5H53C52.8674 25.5 52.7402 25.4473 52.6464 25.3536C52.5527 25.2598 52.5 25.1326 52.5 25V13.5H59.6663C59.9907 13.4996 60.3064 13.3943 60.5662 13.2L64.1663 10.5H75C75.1326 10.5 75.2598 10.5527 75.3536 10.6464C75.4473 10.7402 75.5 10.8674 75.5 11V25ZM67.5 19C67.5 19.1326 67.4473 19.2598 67.3536 19.3536C67.2598 19.4473 67.1326 19.5 67 19.5H64.5V22C64.5 22.1326 64.4473 22.2598 64.3536 22.3536C64.2598 22.4473 64.1326 22.5 64 22.5C63.8674 22.5 63.7402 22.4473 63.6464 22.3536C63.5527 22.2598 63.5 22.1326 63.5 22V19.5H61C60.8674 19.5 60.7402 19.4473 60.6464 19.3536C60.5527 19.2598 60.5 19.1326 60.5 19C60.5 18.8674 60.5527 18.7402 60.6464 18.6464C60.7402 18.5527 60.8674 18.5 61 18.5H63.5V16C63.5 15.8674 63.5527 15.7402 63.6464 15.6464C63.7402 15.5527 63.8674 15.5 64 15.5C64.1326 15.5 64.2598 15.5527 64.3536 15.6464C64.4473 15.7402 64.5 15.8674 64.5 16V18.5H67C67.1326 18.5 67.2598 18.5527 67.3536 18.6464C67.4473 18.7402 67.5 18.8674 67.5 19Z" fill="currentColor"/>
<path d="M123 9.25H112.25L108.716 6.6C108.413 6.37281 108.045 6.25 107.666 6.25H101C100.536 6.25 100.091 6.43437 99.7626 6.76256C99.4344 7.09075 99.25 7.53587 99.25 8V25C99.25 25.4641 99.4344 25.9092 99.7626 26.2374C100.091 26.5656 100.536 26.75 101 26.75H123C123.464 26.75 123.909 26.5656 124.237 26.2374C124.566 25.9092 124.75 25.4641 124.75 25V11C124.75 10.5359 124.566 10.0908 124.237 9.76256C123.909 9.43437 123.464 9.25 123 9.25ZM100.75 8C100.75 7.9337 100.776 7.87011 100.823 7.82322C100.87 7.77634 100.934 7.75 101 7.75H107.666C107.72 7.75 107.773 7.76754 107.816 7.8L110.75 10L107.816 12.2C107.773 12.2325 107.72 12.25 107.666 12.25H100.75V8ZM123.25 25C123.25 25.0663 123.224 25.1299 123.177 25.1768C123.13 25.2237 123.066 25.25 123 25.25H101C100.934 25.25 100.87 25.2237 100.823 25.1768C100.776 25.1299 100.75 25.0663 100.75 25V13.75H107.666C108.045 13.75 108.413 13.6272 108.716 13.4L112.25 10.75H123C123.066 10.75 123.13 10.7763 123.177 10.8232C123.224 10.8701 123.25 10.9337 123.25 11V25ZM115.75 19C115.75 19.1989 115.671 19.3897 115.53 19.5303C115.39 19.671 115.199 19.75 115 19.75H112.75V22C112.75 22.1989 112.671 22.3897 112.53 22.5303C112.39 22.671 112.199 22.75 112 22.75C111.801 22.75 111.61 22.671 111.47 22.5303C111.329 22.3897 111.25 22.1989 111.25 22V19.75H109C108.801 19.75 108.61 19.671 108.47 19.5303C108.329 19.3897 108.25 19.1989 108.25 19C108.25 18.8011 108.329 18.6103 108.47 18.4697C108.61 18.329 108.801 18.25 109 18.25H111.25V16C111.25 15.8011 111.329 15.6103 111.47 15.4697C111.61 15.329 111.801 15.25 112 15.25C112.199 15.25 112.39 15.329 112.53 15.4697C112.671 15.6103 112.75 15.8011 112.75 16V18.25H115C115.199 18.25 115.39 18.329 115.53 18.4697C115.671 18.6103 115.75 18.8011 115.75 19Z" fill="currentColor"/>
<path d="M171 8.5H160.5L157.166 6C156.733 5.67641 156.207 5.50107 155.666 5.5H149C148.337 5.5 147.701 5.76339 147.232 6.23223C146.763 6.70107 146.5 7.33696 146.5 8V25C146.5 25.663 146.763 26.2989 147.232 26.7678C147.701 27.2366 148.337 27.5 149 27.5H171C171.663 27.5 172.299 27.2366 172.768 26.7678C173.237 26.2989 173.5 25.663 173.5 25V11C173.5 10.337 173.237 9.70107 172.768 9.23223C172.299 8.76339 171.663 8.5 171 8.5ZM149.5 8.5H155.5L157.5 10L155.5 11.5H149.5V8.5ZM170.5 24.5H149.5V14.5H155.666C156.207 14.4989 156.733 14.3236 157.166 14L160.5 11.5H170.5V24.5ZM161.5 15.5V17H163C163.398 17 163.779 17.158 164.061 17.4393C164.342 17.7206 164.5 18.1022 164.5 18.5C164.5 18.8978 164.342 19.2794 164.061 19.5607C163.779 19.842 163.398 20 163 20H161.5V21.5C161.5 21.8978 161.342 22.2794 161.061 22.5607C160.779 22.842 160.398 23 160 23C159.602 23 159.221 22.842 158.939 22.5607C158.658 22.2794 158.5 21.8978 158.5 21.5V20H157C156.602 20 156.221 19.842 155.939 19.5607C155.658 19.2794 155.5 18.8978 155.5 18.5C155.5 18.1022 155.658 17.7206 155.939 17.4393C156.221 17.158 156.602 17 157 17H158.5V15.5C158.5 15.1022 158.658 14.7206 158.939 14.4393C159.221 14.158 159.602 14 160 14C160.398 14 160.779 14.158 161.061 14.4393C161.342 14.7206 161.5 15.1022 161.5 15.5Z" fill="currentColor"/>
<path d="M219 9H208.333L204.865 6.4C204.519 6.14087 204.099 6.00054 203.667 6H197C196.47 6 195.961 6.21071 195.586 6.58579C195.211 6.96086 195 7.46957 195 8V25C195 25.5304 195.211 26.0391 195.586 26.4142C195.961 26.7893 196.47 27 197 27H219C219.53 27 220.039 26.7893 220.414 26.4142C220.789 26.0391 221 25.5304 221 25V11C221 10.4696 220.789 9.96086 220.414 9.58579C220.039 9.21071 219.53 9 219 9ZM197 12V8H203.667L206.334 10L203.666 12H197ZM211 20H209V22C209 22.2652 208.895 22.5196 208.707 22.7071C208.52 22.8946 208.265 23 208 23C207.735 23 207.48 22.8946 207.293 22.7071C207.105 22.5196 207 22.2652 207 22V20H205C204.735 20 204.48 19.8946 204.293 19.7071C204.105 19.5196 204 19.2652 204 19C204 18.7348 204.105 18.4804 204.293 18.2929C204.48 18.1054 204.735 18 205 18H207V16C207 15.7348 207.105 15.4804 207.293 15.2929C207.48 15.1054 207.735 15 208 15C208.265 15 208.52 15.1054 208.707 15.2929C208.895 15.4804 209 15.7348 209 16V18H211C211.265 18 211.52 18.1054 211.707 18.2929C211.895 18.4804 212 18.7348 212 19C212 19.2652 211.895 19.5196 211.707 19.7071C211.52 19.8946 211.265 20 211 20Z" fill="currentColor"/>
<path opacity="0.2" d="M256 10L252.266 12.8C252.093 12.9298 251.883 13 251.666 13H244V8C244 7.73478 244.105 7.48043 244.293 7.29289C244.48 7.10536 244.735 7 245 7H251.666C251.883 7 252.093 7.07018 252.266 7.2L256 10Z" fill="currentColor"/>
<path d="M267 9H256.334L252.866 6.4C252.52 6.14132 252.099 6.00107 251.666 6H245C244.47 6 243.961 6.21071 243.586 6.58579C243.211 6.96086 243 7.46957 243 8V25C243 25.5304 243.211 26.0391 243.586 26.4142C243.961 26.7893 244.47 27 245 27H267C267.53 27 268.039 26.7893 268.414 26.4142C268.789 26.0391 269 25.5304 269 25V11C269 10.4696 268.789 9.96086 268.414 9.58579C268.039 9.21071 267.53 9 267 9ZM245 8H251.666L254.334 10L251.666 12H245V8ZM267 25H245V14H251.666C252.099 13.9989 252.52 13.8587 252.866 13.6L256.334 11H267V25ZM257 16V18H259C259.265 18 259.52 18.1054 259.707 18.2929C259.895 18.4804 260 18.7348 260 19C260 19.2652 259.895 19.5196 259.707 19.7071C259.52 19.8946 259.265 20 259 20H257V22C257 22.2652 256.895 22.5196 256.707 22.7071C256.52 22.8946 256.265 23 256 23C255.735 23 255.48 22.8946 255.293 22.7071C255.105 22.5196 255 22.2652 255 22V20H253C252.735 20 252.48 19.8946 252.293 19.7071C252.105 19.5196 252 19.2652 252 19C252 18.7348 252.105 18.4804 252.293 18.2929C252.48 18.1054 252.735 18 253 18H255V16C255 15.7348 255.105 15.4804 255.293 15.2929C255.48 15.1054 255.735 15 256 15C256.265 15 256.52 15.1054 256.707 15.2929C256.895 15.4804 257 15.7348 257 16Z" fill="currentColor"/>
</g>
<defs>
<clipPath id="clip0_17_9728">
<rect width="272" height="32" rx="5" fill="white"/>
</clipPath>
</defs>
</svg>
