<svg width="272" height="32" viewBox="0 0 272 32" fill="none" xmlns="http://www.w3.org/2000/svg">
<g clip-path="url(#clip0_17_9630)">
<path d="M27 9H16.3337L12.8663 6.4C12.5196 6.14132 12.0988 6.00107 11.6663 6H5C4.46957 6 3.96086 6.21071 3.58579 6.58579C3.21071 6.96086 3 7.46957 3 8V25C3 25.5304 3.21071 26.0391 3.58579 26.4142C3.96086 26.7893 4.46957 27 5 27H27.1112C27.612 26.9993 28.092 26.8001 28.4461 26.4461C28.8001 26.092 28.9993 25.612 29 25.1112V11C29 10.4696 28.7893 9.96086 28.4142 9.58579C28.0391 9.21071 27.5304 9 27 9ZM27 25H5V8H11.6663L15.1337 10.6C15.4804 10.8587 15.9012 10.9989 16.3337 11H27V25ZM20 18C20 18.2652 19.8946 18.5196 19.7071 18.7071C19.5196 18.8946 19.2652 19 19 19H17V21C17 21.2652 16.8946 21.5196 16.7071 21.7071C16.5196 21.8946 16.2652 22 16 22C15.7348 22 15.4804 21.8946 15.2929 21.7071C15.1054 21.5196 15 21.2652 15 21V19H13C12.7348 19 12.4804 18.8946 12.2929 18.7071C12.1054 18.5196 12 18.2652 12 18C12 17.7348 12.1054 17.4804 12.2929 17.2929C12.4804 17.1054 12.7348 17 13 17H15V15C15 14.7348 15.1054 14.4804 15.2929 14.2929C15.4804 14.1054 15.7348 14 16 14C16.2652 14 16.5196 14.1054 16.7071 14.2929C16.8946 14.4804 17 14.7348 17 15V17H19C19.2652 17 19.5196 17.1054 19.7071 17.2929C19.8946 17.4804 20 17.7348 20 18Z" fill="currentColor"/>
<path d="M75 9.5H64.3337C64.2256 9.5 64.1203 9.46491 64.0338 9.4L60.5662 6.8C60.3064 6.60567 59.9907 6.50045 59.6663 6.5H53C52.6022 6.5 52.2206 6.65804 51.9393 6.93934C51.658 7.22064 51.5 7.60218 51.5 8V25C51.5 25.3978 51.658 25.7794 51.9393 26.0607C52.2206 26.342 52.6022 26.5 53 26.5H75.1112C75.4795 26.4997 75.8325 26.3532 76.0929 26.0929C76.3532 25.8325 76.4997 25.4795 76.5 25.1112V11C76.5 10.6022 76.342 10.2206 76.0607 9.93934C75.7794 9.65804 75.3978 9.5 75 9.5ZM75.5 25.1112C75.4997 25.2143 75.4586 25.3129 75.3858 25.3858C75.3129 25.4586 75.2143 25.4997 75.1112 25.5H53C52.8674 25.5 52.7402 25.4473 52.6464 25.3536C52.5527 25.2598 52.5 25.1326 52.5 25V8C52.5 7.86739 52.5527 7.74021 52.6464 7.64645C52.7402 7.55268 52.8674 7.5 53 7.5H59.6663C59.7744 7.5 59.8797 7.53509 59.9663 7.6L63.4338 10.2C63.6936 10.3943 64.0093 10.4996 64.3337 10.5H75C75.1326 10.5 75.2598 10.5527 75.3536 10.6464C75.4473 10.7402 75.5 10.8674 75.5 11V25.1112ZM67.5 18C67.5 18.1326 67.4473 18.2598 67.3536 18.3536C67.2598 18.4473 67.1326 18.5 67 18.5H64.5V21C64.5 21.1326 64.4473 21.2598 64.3536 21.3536C64.2598 21.4473 64.1326 21.5 64 21.5C63.8674 21.5 63.7402 21.4473 63.6464 21.3536C63.5527 21.2598 63.5 21.1326 63.5 21V18.5H61C60.8674 18.5 60.7402 18.4473 60.6464 18.3536C60.5527 18.2598 60.5 18.1326 60.5 18C60.5 17.8674 60.5527 17.7402 60.6464 17.6464C60.7402 17.5527 60.8674 17.5 61 17.5H63.5V15C63.5 14.8674 63.5527 14.7402 63.6464 14.6464C63.7402 14.5527 63.8674 14.5 64 14.5C64.1326 14.5 64.2598 14.5527 64.3536 14.6464C64.4473 14.7402 64.5 14.8674 64.5 15V17.5H67C67.1326 17.5 67.2598 17.5527 67.3536 17.6464C67.4473 17.7402 67.5 17.8674 67.5 18Z" fill="currentColor"/>
<path d="M123 9.25H112.334C112.28 9.25 112.227 9.23246 112.184 9.2L108.716 6.6C108.413 6.37281 108.045 6.25 107.666 6.25H101C100.536 6.25 100.091 6.43437 99.7626 6.76256C99.4344 7.09075 99.25 7.53587 99.25 8V25C99.25 25.4641 99.4344 25.9092 99.7626 26.2374C100.091 26.5656 100.536 26.75 101 26.75H123.111C123.546 26.7497 123.962 26.5769 124.27 26.2697C124.577 25.9624 124.75 25.5458 124.75 25.1112V11C124.75 10.5359 124.566 10.0908 124.237 9.76256C123.909 9.43437 123.464 9.25 123 9.25ZM123.25 25.1112C123.25 25.148 123.235 25.1833 123.209 25.2094C123.183 25.2354 123.148 25.25 123.111 25.25H101C100.934 25.25 100.87 25.2237 100.823 25.1768C100.776 25.1299 100.75 25.0663 100.75 25V8C100.75 7.9337 100.776 7.87011 100.823 7.82322C100.87 7.77634 100.934 7.75 101 7.75H107.666C107.72 7.75 107.773 7.76754 107.816 7.8L111.284 10.4C111.587 10.6272 111.955 10.75 112.334 10.75H123C123.066 10.75 123.13 10.7763 123.177 10.8232C123.224 10.8701 123.25 10.9337 123.25 11V25.1112ZM115.75 18C115.75 18.1989 115.671 18.3897 115.53 18.5303C115.39 18.671 115.199 18.75 115 18.75H112.75V21C112.75 21.1989 112.671 21.3897 112.53 21.5303C112.39 21.671 112.199 21.75 112 21.75C111.801 21.75 111.61 21.671 111.47 21.5303C111.329 21.3897 111.25 21.1989 111.25 21V18.75H109C108.801 18.75 108.61 18.671 108.47 18.5303C108.329 18.3897 108.25 18.1989 108.25 18C108.25 17.8011 108.329 17.6103 108.47 17.4697C108.61 17.329 108.801 17.25 109 17.25H111.25V15C111.25 14.8011 111.329 14.6103 111.47 14.4697C111.61 14.329 111.801 14.25 112 14.25C112.199 14.25 112.39 14.329 112.53 14.4697C112.671 14.6103 112.75 14.8011 112.75 15V17.25H115C115.199 17.25 115.39 17.329 115.53 17.4697C115.671 17.6103 115.75 17.8011 115.75 18Z" fill="currentColor"/>
<path d="M171 8.5H160.5L157.166 6C156.733 5.67641 156.207 5.50107 155.666 5.5H149C148.337 5.5 147.701 5.76339 147.232 6.23223C146.763 6.70107 146.5 7.33696 146.5 8V25C146.5 25.663 146.763 26.2989 147.232 26.7678C147.701 27.2366 148.337 27.5 149 27.5H171.111C171.745 27.4993 172.352 27.2475 172.8 26.7996C173.247 26.3518 173.499 25.7446 173.5 25.1112V11C173.5 10.337 173.237 9.70107 172.768 9.23223C172.299 8.76339 171.663 8.5 171 8.5ZM170.5 24.5H149.5V8.5H155.5L158.834 11C159.267 11.3236 159.793 11.4989 160.334 11.5H170.5V24.5ZM160 13.5C160.398 13.5 160.779 13.658 161.061 13.9393C161.342 14.2206 161.5 14.6022 161.5 15V16.5H163C163.398 16.5 163.779 16.658 164.061 16.9393C164.342 17.2206 164.5 17.6022 164.5 18C164.5 18.3978 164.342 18.7794 164.061 19.0607C163.779 19.342 163.398 19.5 163 19.5H161.5V21C161.5 21.3978 161.342 21.7794 161.061 22.0607C160.779 22.342 160.398 22.5 160 22.5C159.602 22.5 159.221 22.342 158.939 22.0607C158.658 21.7794 158.5 21.3978 158.5 21V19.5H157C156.602 19.5 156.221 19.342 155.939 19.0607C155.658 18.7794 155.5 18.3978 155.5 18C155.5 17.6022 155.658 17.2206 155.939 16.9393C156.221 16.658 156.602 16.5 157 16.5H158.5V15C158.5 14.6022 158.658 14.2206 158.939 13.9393C159.221 13.658 159.602 13.5 160 13.5Z" fill="currentColor"/>
<path d="M219 9H208.334L204.865 6.4C204.519 6.14087 204.099 6.00054 203.667 6H197C196.47 6 195.961 6.21071 195.586 6.58579C195.211 6.96086 195 7.46957 195 8V25C195 25.5304 195.211 26.0391 195.586 26.4142C195.961 26.7893 196.47 27 197 27H219.111C219.612 26.9993 220.092 26.8001 220.446 26.4461C220.8 26.092 220.999 25.612 221 25.1112V11C221 10.4696 220.789 9.96086 220.414 9.58579C220.039 9.21071 219.53 9 219 9ZM211 19H209V21C209 21.2652 208.895 21.5196 208.707 21.7071C208.52 21.8946 208.265 22 208 22C207.735 22 207.48 21.8946 207.293 21.7071C207.105 21.5196 207 21.2652 207 21V19H205C204.735 19 204.48 18.8946 204.293 18.7071C204.105 18.5196 204 18.2652 204 18C204 17.7348 204.105 17.4804 204.293 17.2929C204.48 17.1054 204.735 17 205 17H207V15C207 14.7348 207.105 14.4804 207.293 14.2929C207.48 14.1054 207.735 14 208 14C208.265 14 208.52 14.1054 208.707 14.2929C208.895 14.4804 209 14.7348 209 15V17H211C211.265 17 211.52 17.1054 211.707 17.2929C211.895 17.4804 212 17.7348 212 18C212 18.2652 211.895 18.5196 211.707 18.7071C211.52 18.8946 211.265 19 211 19Z" fill="currentColor"/>
<path opacity="0.2" d="M268 11V25.1112C268 25.347 267.906 25.573 267.74 25.7397C267.573 25.9064 267.347 26 267.111 26H245C244.735 26 244.48 25.8946 244.293 25.7071C244.105 25.5196 244 25.2652 244 25V8C244 7.73478 244.105 7.48043 244.293 7.29289C244.48 7.10536 244.735 7 245 7H251.666C251.883 7 252.093 7.07018 252.266 7.2L255.734 9.8C255.907 9.92982 256.117 10 256.334 10H267C267.265 10 267.52 10.1054 267.707 10.2929C267.895 10.4804 268 10.7348 268 11Z" fill="currentColor"/>
<path d="M267 9H256.334L252.866 6.4C252.52 6.14132 252.099 6.00107 251.666 6H245C244.47 6 243.961 6.21071 243.586 6.58579C243.211 6.96086 243 7.46957 243 8V25C243 25.5304 243.211 26.0391 243.586 26.4142C243.961 26.7893 244.47 27 245 27H267.111C267.612 26.9993 268.092 26.8001 268.446 26.4461C268.8 26.092 268.999 25.612 269 25.1112V11C269 10.4696 268.789 9.96086 268.414 9.58579C268.039 9.21071 267.53 9 267 9ZM267 25H245V8H251.666L255.134 10.6C255.48 10.8587 255.901 10.9989 256.334 11H267V25ZM260 18C260 18.2652 259.895 18.5196 259.707 18.7071C259.52 18.8946 259.265 19 259 19H257V21C257 21.2652 256.895 21.5196 256.707 21.7071C256.52 21.8946 256.265 22 256 22C255.735 22 255.48 21.8946 255.293 21.7071C255.105 21.5196 255 21.2652 255 21V19H253C252.735 19 252.48 18.8946 252.293 18.7071C252.105 18.5196 252 18.2652 252 18C252 17.7348 252.105 17.4804 252.293 17.2929C252.48 17.1054 252.735 17 253 17H255V15C255 14.7348 255.105 14.4804 255.293 14.2929C255.48 14.1054 255.735 14 256 14C256.265 14 256.52 14.1054 256.707 14.2929C256.895 14.4804 257 14.7348 257 15V17H259C259.265 17 259.52 17.1054 259.707 17.2929C259.895 17.4804 260 17.7348 260 18Z" fill="currentColor"/>
</g>
<defs>
<clipPath id="clip0_17_9630">
<rect width="272" height="32" rx="5" fill="white"/>
</clipPath>
</defs>
</svg>
