<svg width="272" height="32" viewBox="0 0 272 32" fill="none" xmlns="http://www.w3.org/2000/svg">
<g clip-path="url(#clip0_17_9448)">
<path d="M28.0001 16.0002C28.0001 16.2654 27.8947 16.5198 27.7072 16.7073C27.5196 16.8949 27.2653 17.0002 27.0001 17.0002H13.0001C12.7348 17.0002 12.4805 16.8949 12.2929 16.7073C12.1054 16.5198 12.0001 16.2654 12.0001 16.0002C12.0001 15.735 12.1054 15.4807 12.2929 15.2931C12.4805 15.1056 12.7348 15.0002 13.0001 15.0002H27.0001C27.2653 15.0002 27.5196 15.1056 27.7072 15.2931C27.8947 15.4807 28.0001 15.735 28.0001 16.0002ZM13.0001 9.00023H27.0001C27.2653 9.00023 27.5196 8.89487 27.7072 8.70733C27.8947 8.5198 28.0001 8.26544 28.0001 8.00023C28.0001 7.73501 27.8947 7.48066 27.7072 7.29312C27.5196 7.10558 27.2653 7.00023 27.0001 7.00023H13.0001C12.7348 7.00023 12.4805 7.10558 12.2929 7.29312C12.1054 7.48066 12.0001 7.73501 12.0001 8.00023C12.0001 8.26544 12.1054 8.5198 12.2929 8.70733C12.4805 8.89487 12.7348 9.00023 13.0001 9.00023ZM27.0001 23.0002H13.0001C12.7348 23.0002 12.4805 23.1056 12.2929 23.2931C12.1054 23.4807 12.0001 23.735 12.0001 24.0002C12.0001 24.2654 12.1054 24.5198 12.2929 24.7073C12.4805 24.8949 12.7348 25.0002 13.0001 25.0002H27.0001C27.2653 25.0002 27.5196 24.8949 27.7072 24.7073C27.8947 24.5198 28.0001 24.2654 28.0001 24.0002C28.0001 23.735 27.8947 23.4807 27.7072 23.2931C27.5196 23.1056 27.2653 23.0002 27.0001 23.0002ZM5.44756 6.89523L6.00006 6.61773V13.0002C6.00006 13.2654 6.10541 13.5198 6.29295 13.7073C6.48049 13.8949 6.73484 14.0002 7.00006 14.0002C7.26527 14.0002 7.51963 13.8949 7.70716 13.7073C7.8947 13.5198 8.00006 13.2654 8.00006 13.0002V5.00023C8.00018 4.82968 7.95668 4.66194 7.8737 4.51295C7.79072 4.36395 7.67101 4.23865 7.52596 4.14896C7.3809 4.05928 7.21532 4.00818 7.04494 4.00052C6.87457 3.99286 6.70507 4.02891 6.55256 4.10523L4.55256 5.10523C4.31519 5.22391 4.13469 5.43203 4.05076 5.6838C4.00921 5.80846 3.99262 5.94009 4.00193 6.07116C4.01125 6.20224 4.04629 6.3302 4.10506 6.44773C4.16382 6.56526 4.24516 6.67007 4.34443 6.75617C4.44371 6.84226 4.55896 6.90796 4.68363 6.94952C4.93539 7.03344 5.21019 7.01391 5.44756 6.89523ZM9.97131 19.5902C9.91601 19.1942 9.7812 18.8134 9.57498 18.4708C9.36876 18.1281 9.09539 17.8308 8.77131 17.5965C8.12219 17.1251 7.31594 16.9231 6.52125 17.0326C5.72656 17.1421 5.00501 17.5546 4.50756 18.184C4.31743 18.4281 4.16684 18.7006 4.06131 18.9915C4.0062 19.1167 3.97736 19.2519 3.97658 19.3886C3.9758 19.5254 4.00309 19.6609 4.05676 19.7867C4.11044 19.9126 4.18936 20.026 4.28864 20.1201C4.38792 20.2142 4.50545 20.287 4.63396 20.3338C4.76248 20.3807 4.89924 20.4007 5.03579 20.3926C5.17234 20.3845 5.30578 20.3485 5.42785 20.2867C5.54992 20.225 5.65802 20.1389 5.74548 20.0337C5.83294 19.9285 5.89788 19.8065 5.93631 19.6752C5.97131 19.5793 6.02107 19.4895 6.08381 19.409C6.26021 19.1892 6.51457 19.0459 6.79396 19.0088C7.07334 18.9718 7.35625 19.044 7.58381 19.2102C7.69327 19.2877 7.78584 19.3865 7.85589 19.5009C7.92595 19.6152 7.97202 19.7425 7.99131 19.8752C8.00895 20.0027 8.00066 20.1324 7.96693 20.2565C7.93321 20.3807 7.87475 20.4967 7.79506 20.5977C7.79141 20.6021 7.78807 20.6067 7.78506 20.6115L4.19881 25.4015C4.08767 25.5501 4.02011 25.7268 4.00367 25.9117C3.98723 26.0965 4.02257 26.2823 4.10573 26.4483C4.1889 26.6142 4.3166 26.7537 4.47454 26.8512C4.63249 26.9487 4.81445 27.0003 5.00006 27.0002H9.00006C9.26527 27.0002 9.51963 26.8949 9.70716 26.7073C9.8947 26.5198 10.0001 26.2654 10.0001 26.0002C10.0001 25.735 9.8947 25.4807 9.70716 25.2931C9.51963 25.1056 9.26527 25.0002 9.00006 25.0002H7.00006L9.38506 21.809C9.62686 21.4975 9.8034 21.1405 9.90413 20.7593C10.0049 20.3781 10.0277 19.9805 9.97131 19.5902Z" fill="currentColor"/>
<path d="M75.5001 15.9999C75.5001 16.1325 75.4474 16.2597 75.3536 16.3534C75.2599 16.4472 75.1327 16.4999 75.0001 16.4999H61.0001C60.8675 16.4999 60.7403 16.4472 60.6465 16.3534C60.5528 16.2597 60.5001 16.1325 60.5001 15.9999C60.5001 15.8673 60.5528 15.7401 60.6465 15.6463C60.7403 15.5525 60.8675 15.4999 61.0001 15.4999H75.0001C75.1327 15.4999 75.2599 15.5525 75.3536 15.6463C75.4474 15.7401 75.5001 15.8673 75.5001 15.9999ZM61.0001 8.49987H75.0001C75.1327 8.49987 75.2599 8.44719 75.3536 8.35342C75.4474 8.25966 75.5001 8.13248 75.5001 7.99987C75.5001 7.86726 75.4474 7.74008 75.3536 7.64632C75.2599 7.55255 75.1327 7.49987 75.0001 7.49987H61.0001C60.8675 7.49987 60.7403 7.55255 60.6465 7.64632C60.5528 7.74008 60.5001 7.86726 60.5001 7.99987C60.5001 8.13248 60.5528 8.25966 60.6465 8.35342C60.7403 8.44719 60.8675 8.49987 61.0001 8.49987ZM75.0001 23.4999H61.0001C60.8675 23.4999 60.7403 23.5525 60.6465 23.6463C60.5528 23.7401 60.5001 23.8673 60.5001 23.9999C60.5001 24.1325 60.5528 24.2597 60.6465 24.3534C60.7403 24.4472 60.8675 24.4999 61.0001 24.4999H75.0001C75.1327 24.4999 75.2599 24.4472 75.3536 24.3534C75.4474 24.2597 75.5001 24.1325 75.5001 23.9999C75.5001 23.8673 75.4474 23.7401 75.3536 23.6463C75.2599 23.5525 75.1327 23.4999 75.0001 23.4999ZM53.2238 6.44737L54.5001 5.80862V12.9999C54.5001 13.1325 54.5528 13.2597 54.6465 13.3534C54.7403 13.4472 54.8675 13.4999 55.0001 13.4999C55.1327 13.4999 55.2599 13.4472 55.3536 13.3534C55.4474 13.2597 55.5001 13.1325 55.5001 12.9999V4.99987C55.5001 4.9146 55.4784 4.83073 55.4369 4.75623C55.3954 4.68173 55.3356 4.61908 55.263 4.57424C55.1905 4.52939 55.1077 4.50384 55.0225 4.50002C54.9373 4.49619 54.8526 4.51421 54.7763 4.55237L52.7763 5.55237C52.6576 5.61171 52.5674 5.71577 52.5254 5.84165C52.4835 5.96754 52.4932 6.10494 52.5526 6.22362C52.6119 6.3423 52.716 6.43255 52.8419 6.47452C52.9677 6.51648 53.1051 6.50671 53.2238 6.44737ZM57.0001 25.4999H54.0001L56.9813 21.5099C57.1851 21.2511 57.3344 20.9539 57.4203 20.636C57.5063 20.318 57.527 19.986 57.4813 19.6599C57.4352 19.3301 57.3228 19.013 57.1509 18.7277C56.9791 18.4424 56.7513 18.1949 56.4813 17.9999C55.9375 17.6046 55.262 17.4349 54.5959 17.5262C53.9299 17.6176 53.3249 17.9628 52.9076 18.4899C52.7483 18.6932 52.6218 18.9201 52.5326 19.1624C52.5003 19.2834 52.5146 19.4122 52.5727 19.5231C52.6308 19.6341 52.7285 19.7192 52.8463 19.7617C52.9642 19.8041 53.0937 19.8008 53.2092 19.7523C53.3247 19.7038 53.4178 19.6137 53.4701 19.4999C53.5233 19.3551 53.5983 19.2194 53.6926 19.0974C53.9492 18.7746 54.3206 18.5635 54.7292 18.5083C55.1379 18.4531 55.552 18.558 55.8851 18.8011C56.0469 18.9176 56.1836 19.0655 56.2869 19.236C56.3903 19.4066 56.4581 19.5962 56.4863 19.7936C56.5136 19.9888 56.5009 20.1875 56.4492 20.3776C56.3974 20.5678 56.3075 20.7455 56.1851 20.8999L52.6001 25.7011C52.5447 25.7754 52.5111 25.8636 52.5029 25.9559C52.4948 26.0482 52.5125 26.1409 52.5539 26.2238C52.5954 26.3066 52.6591 26.3763 52.7379 26.425C52.8167 26.4738 52.9074 26.4997 53.0001 26.4999H57.0001C57.1327 26.4999 57.2599 26.4472 57.3536 26.3534C57.4474 26.2597 57.5001 26.1325 57.5001 25.9999C57.5001 25.8673 57.4474 25.7401 57.3536 25.6463C57.2599 25.5525 57.1327 25.4999 57.0001 25.4999Z" fill="currentColor"/>
<path d="M123.75 16.0002C123.75 16.1991 123.671 16.3899 123.53 16.5306C123.39 16.6712 123.199 16.7502 123 16.7502H109C108.801 16.7502 108.61 16.6712 108.47 16.5306C108.329 16.3899 108.25 16.1991 108.25 16.0002C108.25 15.8013 108.329 15.6105 108.47 15.4699C108.61 15.3292 108.801 15.2502 109 15.2502H123C123.199 15.2502 123.39 15.3292 123.53 15.4699C123.671 15.6105 123.75 15.8013 123.75 16.0002ZM109 8.75023H123C123.199 8.75023 123.39 8.67121 123.53 8.53055C123.671 8.3899 123.75 8.19914 123.75 8.00023C123.75 7.80131 123.671 7.61055 123.53 7.46989C123.39 7.32924 123.199 7.25023 123 7.25023H109C108.801 7.25023 108.61 7.32924 108.47 7.46989C108.329 7.61055 108.25 7.80131 108.25 8.00023C108.25 8.19914 108.329 8.3899 108.47 8.53055C108.61 8.67121 108.801 8.75023 109 8.75023ZM123 23.2502H109C108.801 23.2502 108.61 23.3292 108.47 23.4699C108.329 23.6105 108.25 23.8013 108.25 24.0002C108.25 24.1991 108.329 24.3899 108.47 24.5306C108.61 24.6712 108.801 24.7502 109 24.7502H123C123.199 24.7502 123.39 24.6712 123.53 24.5306C123.671 24.3899 123.75 24.1991 123.75 24.0002C123.75 23.8013 123.671 23.6105 123.53 23.4699C123.39 23.3292 123.199 23.2502 123 23.2502ZM101.335 6.67147L102.25 6.21397V13.0002C102.25 13.1991 102.329 13.3899 102.47 13.5306C102.61 13.6712 102.801 13.7502 103 13.7502C103.199 13.7502 103.39 13.6712 103.53 13.5306C103.671 13.3899 103.75 13.1991 103.75 13.0002V5.00023C103.75 4.8724 103.717 4.74669 103.655 4.63502C103.593 4.52336 103.503 4.42944 103.395 4.36219C103.286 4.29494 103.162 4.25659 103.034 4.25078C102.906 4.24496 102.779 4.27188 102.665 4.32898L100.665 5.32898C100.487 5.41782 100.351 5.57375 100.288 5.76246C100.225 5.95117 100.24 6.1572 100.329 6.33523C100.418 6.51325 100.573 6.64869 100.762 6.71175C100.951 6.77481 101.157 6.76032 101.335 6.67147ZM105 25.2502H102.5L105.185 21.6577C105.407 21.3725 105.569 21.0456 105.661 20.6964C105.754 20.3471 105.775 19.9828 105.724 19.6252C105.673 19.2623 105.55 18.9133 105.361 18.5993C105.172 18.2852 104.922 18.0126 104.625 17.7977C104.028 17.3647 103.288 17.179 102.557 17.2794C101.827 17.3798 101.164 17.7586 100.706 18.3365C100.532 18.5607 100.394 18.8103 100.296 19.0765C100.228 19.2635 100.237 19.4698 100.321 19.6502C100.405 19.8306 100.557 19.9702 100.744 20.0383C100.931 20.1065 101.138 20.0975 101.318 20.0135C101.498 19.9295 101.638 19.7772 101.706 19.5902C101.75 19.4701 101.813 19.3575 101.891 19.2565C102.108 18.9847 102.421 18.807 102.765 18.7604C103.109 18.7138 103.458 18.802 103.739 19.0065C103.873 19.1036 103.987 19.2268 104.073 19.3688C104.159 19.5107 104.215 19.6685 104.239 19.8327C104.26 19.9934 104.249 20.1569 104.206 20.3132C104.164 20.4696 104.089 20.6157 103.989 20.7427L103.981 20.754L100.4 25.5515C100.317 25.6629 100.266 25.7953 100.254 25.9338C100.242 26.0723 100.268 26.2116 100.33 26.3359C100.392 26.4603 100.488 26.5649 100.606 26.6381C100.725 26.7112 100.861 26.7501 101 26.7502H105C105.199 26.7502 105.39 26.6712 105.53 26.5306C105.671 26.3899 105.75 26.1991 105.75 26.0002C105.75 25.8013 105.671 25.6105 105.53 25.4699C105.39 25.3292 105.199 25.2502 105 25.2502Z" fill="currentColor"/>
<path d="M172.5 16.0002C172.5 16.398 172.342 16.7795 172.061 17.0608C171.779 17.3421 171.398 17.5002 171 17.5002H158.5C158.102 17.5002 157.721 17.3421 157.439 17.0608C157.158 16.7795 157 16.398 157 16.0002C157 15.6024 157.158 15.2208 157.439 14.9395C157.721 14.6582 158.102 14.5002 158.5 14.5002H171C171.398 14.5002 171.779 14.6582 172.061 14.9395C172.342 15.2208 172.5 15.6024 172.5 16.0002ZM158.5 9.50018H171C171.398 9.50018 171.779 9.34214 172.061 9.06084C172.342 8.77953 172.5 8.398 172.5 8.00018C172.5 7.60235 172.342 7.22082 172.061 6.93952C171.779 6.65821 171.398 6.50018 171 6.50018H158.5C158.102 6.50018 157.721 6.65821 157.439 6.93952C157.158 7.22082 157 7.60235 157 8.00018C157 8.398 157.158 8.77953 157.439 9.06084C157.721 9.34214 158.102 9.50018 158.5 9.50018ZM171 22.5002H158.5C158.102 22.5002 157.721 22.6582 157.439 22.9395C157.158 23.2208 157 23.6024 157 24.0002C157 24.398 157.158 24.7795 157.439 25.0608C157.721 25.3421 158.102 25.5002 158.5 25.5002H171C171.398 25.5002 171.779 25.3421 172.061 25.0608C172.342 24.7795 172.5 24.398 172.5 24.0002C172.5 23.6024 172.342 23.2208 172.061 22.9395C171.779 22.6582 171.398 22.5002 171 22.5002ZM149.5 7.41393V13.0002C149.5 13.398 149.658 13.7795 149.939 14.0608C150.221 14.3421 150.602 14.5002 151 14.5002C151.398 14.5002 151.779 14.3421 152.061 14.0608C152.342 13.7795 152.5 13.398 152.5 13.0002V5.00018C152.5 4.74464 152.435 4.49337 152.31 4.27021C152.186 4.04704 152.006 3.85938 151.789 3.72503C151.571 3.59068 151.323 3.51408 151.068 3.50251C150.813 3.49095 150.559 3.54479 150.33 3.65893L148.33 4.65893C147.999 4.83538 147.746 5.12948 147.621 5.48323C147.496 5.83698 147.508 6.22469 147.655 6.5699C147.802 6.91511 148.073 7.19275 148.415 7.34807C148.756 7.50338 149.143 7.5251 149.5 7.40893V7.41393ZM154.466 19.5214C154.402 19.0589 154.245 18.6142 154.004 18.214C153.764 17.8138 153.445 17.4664 153.066 17.1927C152.312 16.6453 151.375 16.4106 150.452 16.5378C149.529 16.665 148.691 17.1442 148.113 17.8752C147.891 18.1602 147.715 18.4783 147.591 18.8177C147.461 19.1901 147.483 19.5988 147.652 19.9553C147.821 20.3118 148.123 20.5874 148.494 20.7223C148.865 20.8573 149.274 20.8408 149.632 20.6764C149.991 20.512 150.27 20.2129 150.41 19.8439C150.428 19.799 150.453 19.7569 150.483 19.7189C150.58 19.6016 150.718 19.5256 150.869 19.5066C151.02 19.4875 151.172 19.5268 151.295 19.6164C151.349 19.6538 151.395 19.702 151.43 19.7579C151.464 19.8138 151.487 19.8763 151.496 19.9414C151.505 20.0027 151.501 20.0649 151.484 20.1245C151.467 20.184 151.439 20.2396 151.4 20.2877L151.384 20.3089L147.799 25.1027C147.632 25.3256 147.531 25.5905 147.507 25.8676C147.482 26.1448 147.535 26.4233 147.66 26.6721C147.784 26.9209 147.976 27.1301 148.212 27.2763C148.449 27.4226 148.722 27.5001 149 27.5002H153C153.398 27.5002 153.779 27.3421 154.061 27.0608C154.342 26.7795 154.5 26.398 154.5 26.0002C154.5 25.6024 154.342 25.2208 154.061 24.9395C153.779 24.6582 153.398 24.5002 153 24.5002H152L153.785 22.1114C154.066 21.7473 154.272 21.3305 154.389 20.8856C154.506 20.4406 154.532 19.9768 154.466 19.5214Z" fill="currentColor"/>
<path d="M220 15.0002V17.0002C220 17.2654 219.895 17.5198 219.707 17.7073C219.52 17.8949 219.265 18.0002 219 18.0002H205C204.735 18.0002 204.48 17.8949 204.293 17.7073C204.105 17.5198 204 17.2654 204 17.0002V15.0002C204 14.735 204.105 14.4807 204.293 14.2931C204.48 14.1056 204.735 14.0002 205 14.0002H219C219.265 14.0002 219.52 14.1056 219.707 14.2931C219.895 14.4807 220 14.735 220 15.0002ZM219 6.00023H205C204.735 6.00023 204.48 6.10558 204.293 6.29312C204.105 6.48066 204 6.73501 204 7.00023V9.00023C204 9.26544 204.105 9.5198 204.293 9.70733C204.48 9.89487 204.735 10.0002 205 10.0002H219C219.265 10.0002 219.52 9.89487 219.707 9.70733C219.895 9.5198 220 9.26544 220 9.00023V7.00023C220 6.73501 219.895 6.48066 219.707 6.29312C219.52 6.10558 219.265 6.00023 219 6.00023ZM219 22.0002H205C204.735 22.0002 204.48 22.1056 204.293 22.2931C204.105 22.4807 204 22.735 204 23.0002V25.0002C204 25.2654 204.105 25.5198 204.293 25.7073C204.48 25.8949 204.735 26.0002 205 26.0002H219C219.265 26.0002 219.52 25.8949 219.707 25.7073C219.895 25.5198 220 25.2654 220 25.0002V23.0002C220 22.735 219.895 22.4807 219.707 22.2931C219.52 22.1056 219.265 22.0002 219 22.0002ZM197.448 6.89523L198 6.61773V13.0002C198 13.2654 198.105 13.5198 198.293 13.7073C198.48 13.8949 198.735 14.0002 199 14.0002C199.265 14.0002 199.52 13.8949 199.707 13.7073C199.895 13.5198 200 13.2654 200 13.0002V5.00023C200 4.82968 199.957 4.66194 199.874 4.51295C199.791 4.36395 199.671 4.23865 199.526 4.14896C199.381 4.05928 199.215 4.00818 199.045 4.00052C198.875 3.99286 198.705 4.02891 198.553 4.10523L196.553 5.10523C196.315 5.22391 196.135 5.43203 196.051 5.6838C196.009 5.80846 195.993 5.94009 196.002 6.07116C196.011 6.20224 196.046 6.3302 196.105 6.44773C196.164 6.56526 196.245 6.67007 196.344 6.75617C196.444 6.84226 196.559 6.90796 196.684 6.94952C196.935 7.03344 197.21 7.01391 197.448 6.89523ZM201.971 19.5902C201.916 19.1942 201.781 18.8134 201.575 18.4708C201.369 18.1281 201.095 17.8308 200.771 17.5965C200.122 17.1251 199.316 16.9231 198.521 17.0326C197.727 17.1421 197.005 17.5546 196.508 18.184C196.317 18.4281 196.167 18.7006 196.061 18.9915C196.006 19.1167 195.977 19.2519 195.977 19.3886C195.976 19.5254 196.003 19.6609 196.057 19.7867C196.11 19.9126 196.189 20.026 196.289 20.1201C196.388 20.2142 196.505 20.287 196.634 20.3338C196.762 20.3807 196.899 20.4007 197.036 20.3926C197.172 20.3845 197.306 20.3485 197.428 20.2867C197.55 20.225 197.658 20.1389 197.745 20.0337C197.833 19.9285 197.898 19.8065 197.936 19.6752C197.971 19.5793 198.021 19.4895 198.084 19.409C198.26 19.1892 198.515 19.0459 198.794 19.0088C199.073 18.9718 199.356 19.044 199.584 19.2102C199.693 19.2877 199.786 19.3865 199.856 19.5009C199.926 19.6152 199.972 19.7425 199.991 19.8752C200.009 20.0027 200.001 20.1324 199.967 20.2565C199.933 20.3807 199.875 20.4967 199.795 20.5977C199.791 20.6021 199.788 20.6067 199.785 20.6115L196.199 25.4015C196.088 25.5501 196.02 25.7268 196.004 25.9117C195.987 26.0965 196.023 26.2823 196.106 26.4483C196.189 26.6142 196.317 26.7537 196.475 26.8512C196.632 26.9487 196.814 27.0003 197 27.0002H201C201.265 27.0002 201.52 26.8949 201.707 26.7073C201.895 26.5198 202 26.2654 202 26.0002C202 25.735 201.895 25.4807 201.707 25.2931C201.52 25.1056 201.265 25.0002 201 25.0002H199L201.385 21.809C201.627 21.4975 201.803 21.1405 201.904 20.7593C202.005 20.3781 202.028 19.9805 201.971 19.5902Z" fill="currentColor"/>
<path opacity="0.2" d="M267 8V24H253V8H267Z" fill="currentColor"/>
<path d="M268 16.0002C268 16.2654 267.895 16.5198 267.707 16.7073C267.52 16.8949 267.265 17.0002 267 17.0002H253C252.735 17.0002 252.48 16.8949 252.293 16.7073C252.105 16.5198 252 16.2654 252 16.0002C252 15.735 252.105 15.4807 252.293 15.2931C252.48 15.1056 252.735 15.0002 253 15.0002H267C267.265 15.0002 267.52 15.1056 267.707 15.2931C267.895 15.4807 268 15.735 268 16.0002ZM253 9.00023H267C267.265 9.00023 267.52 8.89487 267.707 8.70733C267.895 8.5198 268 8.26544 268 8.00023C268 7.73501 267.895 7.48066 267.707 7.29312C267.52 7.10558 267.265 7.00023 267 7.00023H253C252.735 7.00023 252.48 7.10558 252.293 7.29312C252.105 7.48066 252 7.73501 252 8.00023C252 8.26544 252.105 8.5198 252.293 8.70733C252.48 8.89487 252.735 9.00023 253 9.00023ZM267 23.0002H253C252.735 23.0002 252.48 23.1056 252.293 23.2931C252.105 23.4807 252 23.735 252 24.0002C252 24.2654 252.105 24.5198 252.293 24.7073C252.48 24.8949 252.735 25.0002 253 25.0002H267C267.265 25.0002 267.52 24.8949 267.707 24.7073C267.895 24.5198 268 24.2654 268 24.0002C268 23.735 267.895 23.4807 267.707 23.2931C267.52 23.1056 267.265 23.0002 267 23.0002ZM245.448 6.89523L246 6.61773V13.0002C246 13.2654 246.105 13.5198 246.293 13.7073C246.48 13.8949 246.735 14.0002 247 14.0002C247.265 14.0002 247.52 13.8949 247.707 13.7073C247.895 13.5198 248 13.2654 248 13.0002V5.00023C248 4.82968 247.957 4.66194 247.874 4.51295C247.791 4.36395 247.671 4.23865 247.526 4.14896C247.381 4.05928 247.215 4.00818 247.045 4.00052C246.875 3.99286 246.705 4.02891 246.553 4.10523L244.553 5.10523C244.315 5.22391 244.135 5.43203 244.051 5.6838C244.009 5.80846 243.993 5.94009 244.002 6.07116C244.011 6.20224 244.046 6.3302 244.105 6.44773C244.164 6.56526 244.245 6.67007 244.344 6.75617C244.444 6.84226 244.559 6.90796 244.684 6.94952C244.935 7.03344 245.21 7.01391 245.448 6.89523ZM249.971 19.5902C249.916 19.1942 249.781 18.8134 249.575 18.4708C249.369 18.1281 249.095 17.8308 248.771 17.5965C248.122 17.1251 247.316 16.9231 246.521 17.0326C245.727 17.1421 245.005 17.5546 244.508 18.184C244.317 18.4281 244.167 18.7006 244.061 18.9915C244.006 19.1167 243.977 19.2519 243.977 19.3886C243.976 19.5254 244.003 19.6609 244.057 19.7867C244.11 19.9126 244.189 20.026 244.289 20.1201C244.388 20.2142 244.505 20.287 244.634 20.3338C244.762 20.3807 244.899 20.4007 245.036 20.3926C245.172 20.3845 245.306 20.3485 245.428 20.2867C245.55 20.225 245.658 20.1389 245.745 20.0337C245.833 19.9285 245.898 19.8065 245.936 19.6752C245.971 19.5793 246.021 19.4895 246.084 19.409C246.26 19.1892 246.515 19.0459 246.794 19.0088C247.073 18.9718 247.356 19.044 247.584 19.2102C247.693 19.2877 247.786 19.3865 247.856 19.5009C247.926 19.6152 247.972 19.7425 247.991 19.8752C248.009 20.0027 248.001 20.1324 247.967 20.2565C247.933 20.3807 247.875 20.4967 247.795 20.5977C247.791 20.6021 247.788 20.6067 247.785 20.6115L244.199 25.4015C244.088 25.5501 244.02 25.7268 244.004 25.9117C243.987 26.0965 244.023 26.2823 244.106 26.4483C244.189 26.6142 244.317 26.7537 244.475 26.8512C244.632 26.9487 244.814 27.0003 245 27.0002H249C249.265 27.0002 249.52 26.8949 249.707 26.7073C249.895 26.5198 250 26.2654 250 26.0002C250 25.735 249.895 25.4807 249.707 25.2931C249.52 25.1056 249.265 25.0002 249 25.0002H247L249.385 21.809C249.627 21.4975 249.803 21.1405 249.904 20.7593C250.005 20.3781 250.028 19.9805 249.971 19.5902Z" fill="currentColor"/>
</g>
<defs>
<clipPath id="clip0_17_9448">
<rect width="272" height="32" rx="5" fill="white"/>
</clipPath>
</defs>
</svg>
