<svg width="272" height="32" viewBox="0 0 272 32" fill="none" xmlns="http://www.w3.org/2000/svg">
<g clip-path="url(#clip0_17_9434)">
<path d="M4 8C4 7.73478 4.10536 7.48043 4.29289 7.29289C4.48043 7.10536 4.73478 7 5 7H27C27.2652 7 27.5196 7.10536 27.7071 7.29289C27.8946 7.48043 28 7.73478 28 8C28 8.26522 27.8946 8.51957 27.7071 8.70711C27.5196 8.89464 27.2652 9 27 9H5C4.73478 9 4.48043 8.89464 4.29289 8.70711C4.10536 8.51957 4 8.26522 4 8ZM5 17H27C27.2652 17 27.5196 16.8946 27.7071 16.7071C27.8946 16.5196 28 16.2652 28 16C28 15.7348 27.8946 15.4804 27.7071 15.2929C27.5196 15.1054 27.2652 15 27 15H5C4.73478 15 4.48043 15.1054 4.29289 15.2929C4.10536 15.4804 4 15.7348 4 16C4 16.2652 4.10536 16.5196 4.29289 16.7071C4.48043 16.8946 4.73478 17 5 17ZM18 23H5C4.73478 23 4.48043 23.1054 4.29289 23.2929C4.10536 23.4804 4 23.7348 4 24C4 24.2652 4.10536 24.5196 4.29289 24.7071C4.48043 24.8946 4.73478 25 5 25H18C18.2652 25 18.5196 24.8946 18.7071 24.7071C18.8946 24.5196 19 24.2652 19 24C19 23.7348 18.8946 23.4804 18.7071 23.2929C18.5196 23.1054 18.2652 23 18 23ZM29 23H27V21C27 20.7348 26.8946 20.4804 26.7071 20.2929C26.5196 20.1054 26.2652 20 26 20C25.7348 20 25.4804 20.1054 25.2929 20.2929C25.1054 20.4804 25 20.7348 25 21V23H23C22.7348 23 22.4804 23.1054 22.2929 23.2929C22.1054 23.4804 22 23.7348 22 24C22 24.2652 22.1054 24.5196 22.2929 24.7071C22.4804 24.8946 22.7348 25 23 25H25V27C25 27.2652 25.1054 27.5196 25.2929 27.7071C25.4804 27.8946 25.7348 28 26 28C26.2652 28 26.5196 27.8946 26.7071 27.7071C26.8946 27.5196 27 27.2652 27 27V25H29C29.2652 25 29.5196 24.8946 29.7071 24.7071C29.8946 24.5196 30 24.2652 30 24C30 23.7348 29.8946 23.4804 29.7071 23.2929C29.5196 23.1054 29.2652 23 29 23Z" fill="currentColor"/>
<path d="M52.5 8C52.5 7.86739 52.5527 7.74021 52.6464 7.64645C52.7402 7.55268 52.8674 7.5 53 7.5H75C75.1326 7.5 75.2598 7.55268 75.3536 7.64645C75.4473 7.74021 75.5 7.86739 75.5 8C75.5 8.13261 75.4473 8.25979 75.3536 8.35355C75.2598 8.44732 75.1326 8.5 75 8.5H53C52.8674 8.5 52.7402 8.44732 52.6464 8.35355C52.5527 8.25979 52.5 8.13261 52.5 8ZM53 16.5H75C75.1326 16.5 75.2598 16.4473 75.3536 16.3536C75.4473 16.2598 75.5 16.1326 75.5 16C75.5 15.8674 75.4473 15.7402 75.3536 15.6464C75.2598 15.5527 75.1326 15.5 75 15.5H53C52.8674 15.5 52.7402 15.5527 52.6464 15.6464C52.5527 15.7402 52.5 15.8674 52.5 16C52.5 16.1326 52.5527 16.2598 52.6464 16.3536C52.7402 16.4473 52.8674 16.5 53 16.5ZM66 23.5H53C52.8674 23.5 52.7402 23.5527 52.6464 23.6464C52.5527 23.7402 52.5 23.8674 52.5 24C52.5 24.1326 52.5527 24.2598 52.6464 24.3536C52.7402 24.4473 52.8674 24.5 53 24.5H66C66.1326 24.5 66.2598 24.4473 66.3536 24.3536C66.4473 24.2598 66.5 24.1326 66.5 24C66.5 23.8674 66.4473 23.7402 66.3536 23.6464C66.2598 23.5527 66.1326 23.5 66 23.5ZM77 23.5H74.5V21C74.5 20.8674 74.4473 20.7402 74.3536 20.6464C74.2598 20.5527 74.1326 20.5 74 20.5C73.8674 20.5 73.7402 20.5527 73.6464 20.6464C73.5527 20.7402 73.5 20.8674 73.5 21V23.5H71C70.8674 23.5 70.7402 23.5527 70.6464 23.6464C70.5527 23.7402 70.5 23.8674 70.5 24C70.5 24.1326 70.5527 24.2598 70.6464 24.3536C70.7402 24.4473 70.8674 24.5 71 24.5H73.5V27C73.5 27.1326 73.5527 27.2598 73.6464 27.3536C73.7402 27.4473 73.8674 27.5 74 27.5C74.1326 27.5 74.2598 27.4473 74.3536 27.3536C74.4473 27.2598 74.5 27.1326 74.5 27V24.5H77C77.1326 24.5 77.2598 24.4473 77.3536 24.3536C77.4473 24.2598 77.5 24.1326 77.5 24C77.5 23.8674 77.4473 23.7402 77.3536 23.6464C77.2598 23.5527 77.1326 23.5 77 23.5Z" fill="currentColor"/>
<path d="M100.25 8C100.25 7.80109 100.329 7.61032 100.47 7.46967C100.61 7.32902 100.801 7.25 101 7.25H123C123.199 7.25 123.39 7.32902 123.53 7.46967C123.671 7.61032 123.75 7.80109 123.75 8C123.75 8.19891 123.671 8.38968 123.53 8.53033C123.39 8.67098 123.199 8.75 123 8.75H101C100.801 8.75 100.61 8.67098 100.47 8.53033C100.329 8.38968 100.25 8.19891 100.25 8ZM101 16.75H123C123.199 16.75 123.39 16.671 123.53 16.5303C123.671 16.3897 123.75 16.1989 123.75 16C123.75 15.8011 123.671 15.6103 123.53 15.4697C123.39 15.329 123.199 15.25 123 15.25H101C100.801 15.25 100.61 15.329 100.47 15.4697C100.329 15.6103 100.25 15.8011 100.25 16C100.25 16.1989 100.329 16.3897 100.47 16.5303C100.61 16.671 100.801 16.75 101 16.75ZM114 23.25H101C100.801 23.25 100.61 23.329 100.47 23.4697C100.329 23.6103 100.25 23.8011 100.25 24C100.25 24.1989 100.329 24.3897 100.47 24.5303C100.61 24.671 100.801 24.75 101 24.75H114C114.199 24.75 114.39 24.671 114.53 24.5303C114.671 24.3897 114.75 24.1989 114.75 24C114.75 23.8011 114.671 23.6103 114.53 23.4697C114.39 23.329 114.199 23.25 114 23.25ZM125 23.25H122.75V21C122.75 20.8011 122.671 20.6103 122.53 20.4697C122.39 20.329 122.199 20.25 122 20.25C121.801 20.25 121.61 20.329 121.47 20.4697C121.329 20.6103 121.25 20.8011 121.25 21V23.25H119C118.801 23.25 118.61 23.329 118.47 23.4697C118.329 23.6103 118.25 23.8011 118.25 24C118.25 24.1989 118.329 24.3897 118.47 24.5303C118.61 24.671 118.801 24.75 119 24.75H121.25V27C121.25 27.1989 121.329 27.3897 121.47 27.5303C121.61 27.671 121.801 27.75 122 27.75C122.199 27.75 122.39 27.671 122.53 27.5303C122.671 27.3897 122.75 27.1989 122.75 27V24.75H125C125.199 24.75 125.39 24.671 125.53 24.5303C125.671 24.3897 125.75 24.1989 125.75 24C125.75 23.8011 125.671 23.6103 125.53 23.4697C125.39 23.329 125.199 23.25 125 23.25Z" fill="currentColor"/>
<path d="M147.5 8C147.5 7.60218 147.658 7.22064 147.939 6.93934C148.221 6.65804 148.602 6.5 149 6.5H171C171.398 6.5 171.779 6.65804 172.061 6.93934C172.342 7.22064 172.5 7.60218 172.5 8C172.5 8.39782 172.342 8.77936 172.061 9.06066C171.779 9.34196 171.398 9.5 171 9.5H149C148.602 9.5 148.221 9.34196 147.939 9.06066C147.658 8.77936 147.5 8.39782 147.5 8ZM149 17.5H171C171.398 17.5 171.779 17.342 172.061 17.0607C172.342 16.7794 172.5 16.3978 172.5 16C172.5 15.6022 172.342 15.2206 172.061 14.9393C171.779 14.658 171.398 14.5 171 14.5H149C148.602 14.5 148.221 14.658 147.939 14.9393C147.658 15.2206 147.5 15.6022 147.5 16C147.5 16.3978 147.658 16.7794 147.939 17.0607C148.221 17.342 148.602 17.5 149 17.5ZM162 22.5H149C148.602 22.5 148.221 22.658 147.939 22.9393C147.658 23.2206 147.5 23.6022 147.5 24C147.5 24.3978 147.658 24.7794 147.939 25.0607C148.221 25.342 148.602 25.5 149 25.5H162C162.398 25.5 162.779 25.342 163.061 25.0607C163.342 24.7794 163.5 24.3978 163.5 24C163.5 23.6022 163.342 23.2206 163.061 22.9393C162.779 22.658 162.398 22.5 162 22.5ZM173 22.5H171.5V21C171.5 20.6022 171.342 20.2206 171.061 19.9393C170.779 19.658 170.398 19.5 170 19.5C169.602 19.5 169.221 19.658 168.939 19.9393C168.658 20.2206 168.5 20.6022 168.5 21V22.5H167C166.602 22.5 166.221 22.658 165.939 22.9393C165.658 23.2206 165.5 23.6022 165.5 24C165.5 24.3978 165.658 24.7794 165.939 25.0607C166.221 25.342 166.602 25.5 167 25.5H168.5V27C168.5 27.3978 168.658 27.7794 168.939 28.0607C169.221 28.342 169.602 28.5 170 28.5C170.398 28.5 170.779 28.342 171.061 28.0607C171.342 27.7794 171.5 27.3978 171.5 27V25.5H173C173.398 25.5 173.779 25.342 174.061 25.0607C174.342 24.7794 174.5 24.3978 174.5 24C174.5 23.6022 174.342 23.2206 174.061 22.9393C173.779 22.658 173.398 22.5 173 22.5Z" fill="currentColor"/>
<path d="M196 9V7C196 6.73478 196.105 6.48043 196.293 6.29289C196.48 6.10536 196.735 6 197 6H219C219.265 6 219.52 6.10536 219.707 6.29289C219.895 6.48043 220 6.73478 220 7V9C220 9.26522 219.895 9.51957 219.707 9.70711C219.52 9.89464 219.265 10 219 10H197C196.735 10 196.48 9.89464 196.293 9.70711C196.105 9.51957 196 9.26522 196 9ZM197 18H219C219.265 18 219.52 17.8946 219.707 17.7071C219.895 17.5196 220 17.2652 220 17V15C220 14.7348 219.895 14.4804 219.707 14.2929C219.52 14.1054 219.265 14 219 14H197C196.735 14 196.48 14.1054 196.293 14.2929C196.105 14.4804 196 14.7348 196 15V17C196 17.2652 196.105 17.5196 196.293 17.7071C196.48 17.8946 196.735 18 197 18ZM211 22H197C196.735 22 196.48 22.1054 196.293 22.2929C196.105 22.4804 196 22.7348 196 23V25C196 25.2652 196.105 25.5196 196.293 25.7071C196.48 25.8946 196.735 26 197 26H211C211.265 26 211.52 25.8946 211.707 25.7071C211.895 25.5196 212 25.2652 212 25V23C212 22.7348 211.895 22.4804 211.707 22.2929C211.52 22.1054 211.265 22 211 22ZM221 23H219V21C219 20.7348 218.895 20.4804 218.707 20.2929C218.52 20.1054 218.265 20 218 20C217.735 20 217.48 20.1054 217.293 20.2929C217.105 20.4804 217 20.7348 217 21V23H215C214.735 23 214.48 23.1054 214.293 23.2929C214.105 23.4804 214 23.7348 214 24C214 24.2652 214.105 24.5196 214.293 24.7071C214.48 24.8946 214.735 25 215 25H217V27C217 27.2652 217.105 27.5196 217.293 27.7071C217.48 27.8946 217.735 28 218 28C218.265 28 218.52 27.8946 218.707 27.7071C218.895 27.5196 219 27.2652 219 27V25H221C221.265 25 221.52 24.8946 221.707 24.7071C221.895 24.5196 222 24.2652 222 24C222 23.7348 221.895 23.4804 221.707 23.2929C221.52 23.1054 221.265 23 221 23Z" fill="currentColor"/>
<path opacity="0.2" d="M267 8V24H245V8H267Z" fill="currentColor"/>
<path d="M244 8C244 7.73478 244.105 7.48043 244.293 7.29289C244.48 7.10536 244.735 7 245 7H267C267.265 7 267.52 7.10536 267.707 7.29289C267.895 7.48043 268 7.73478 268 8C268 8.26522 267.895 8.51957 267.707 8.70711C267.52 8.89464 267.265 9 267 9H245C244.735 9 244.48 8.89464 244.293 8.70711C244.105 8.51957 244 8.26522 244 8ZM245 17H267C267.265 17 267.52 16.8946 267.707 16.7071C267.895 16.5196 268 16.2652 268 16C268 15.7348 267.895 15.4804 267.707 15.2929C267.52 15.1054 267.265 15 267 15H245C244.735 15 244.48 15.1054 244.293 15.2929C244.105 15.4804 244 15.7348 244 16C244 16.2652 244.105 16.5196 244.293 16.7071C244.48 16.8946 244.735 17 245 17ZM258 23H245C244.735 23 244.48 23.1054 244.293 23.2929C244.105 23.4804 244 23.7348 244 24C244 24.2652 244.105 24.5196 244.293 24.7071C244.48 24.8946 244.735 25 245 25H258C258.265 25 258.52 24.8946 258.707 24.7071C258.895 24.5196 259 24.2652 259 24C259 23.7348 258.895 23.4804 258.707 23.2929C258.52 23.1054 258.265 23 258 23ZM269 23H267V21C267 20.7348 266.895 20.4804 266.707 20.2929C266.52 20.1054 266.265 20 266 20C265.735 20 265.48 20.1054 265.293 20.2929C265.105 20.4804 265 20.7348 265 21V23H263C262.735 23 262.48 23.1054 262.293 23.2929C262.105 23.4804 262 23.7348 262 24C262 24.2652 262.105 24.5196 262.293 24.7071C262.48 24.8946 262.735 25 263 25H265V27C265 27.2652 265.105 27.5196 265.293 27.7071C265.48 27.8946 265.735 28 266 28C266.265 28 266.52 27.8946 266.707 27.7071C266.895 27.5196 267 27.2652 267 27V25H269C269.265 25 269.52 24.8946 269.707 24.7071C269.895 24.5196 270 24.2652 270 24C270 23.7348 269.895 23.4804 269.707 23.2929C269.52 23.1054 269.265 23 269 23Z" fill="currentColor"/>
</g>
<defs>
<clipPath id="clip0_17_9434">
<rect width="272" height="32" rx="5" fill="white"/>
</clipPath>
</defs>
</svg>
