<svg width="272" height="32" viewBox="0 0 272 32" fill="none" xmlns="http://www.w3.org/2000/svg">
<g clip-path="url(#clip0_17_9504)">
<path d="M28 16C28 16.2652 27.8946 16.5196 27.7071 16.7071C27.5196 16.8946 27.2652 17 27 17H5C4.73478 17 4.48043 16.8946 4.29289 16.7071C4.10536 16.5196 4 16.2652 4 16C4 15.7348 4.10536 15.4804 4.29289 15.2929C4.48043 15.1054 4.73478 15 5 15H27C27.2652 15 27.5196 15.1054 27.7071 15.2929C27.8946 15.4804 28 15.7348 28 16ZM5 9H27C27.2652 9 27.5196 8.89464 27.7071 8.70711C27.8946 8.51957 28 8.26522 28 8C28 7.73478 27.8946 7.48043 27.7071 7.29289C27.5196 7.10536 27.2652 7 27 7H5C4.73478 7 4.48043 7.10536 4.29289 7.29289C4.10536 7.48043 4 7.73478 4 8C4 8.26522 4.10536 8.51957 4.29289 8.70711C4.48043 8.89464 4.73478 9 5 9ZM27 23H5C4.73478 23 4.48043 23.1054 4.29289 23.2929C4.10536 23.4804 4 23.7348 4 24C4 24.2652 4.10536 24.5196 4.29289 24.7071C4.48043 24.8946 4.73478 25 5 25H27C27.2652 25 27.5196 24.8946 27.7071 24.7071C27.8946 24.5196 28 24.2652 28 24C28 23.7348 27.8946 23.4804 27.7071 23.2929C27.5196 23.1054 27.2652 23 27 23Z" fill="currentColor"/>
<path d="M75.5 16C75.5 16.1326 75.4473 16.2598 75.3536 16.3536C75.2598 16.4473 75.1326 16.5 75 16.5H53C52.8674 16.5 52.7402 16.4473 52.6464 16.3536C52.5527 16.2598 52.5 16.1326 52.5 16C52.5 15.8674 52.5527 15.7402 52.6464 15.6464C52.7402 15.5527 52.8674 15.5 53 15.5H75C75.1326 15.5 75.2598 15.5527 75.3536 15.6464C75.4473 15.7402 75.5 15.8674 75.5 16ZM53 8.5H75C75.1326 8.5 75.2598 8.44732 75.3536 8.35355C75.4473 8.25979 75.5 8.13261 75.5 8C75.5 7.86739 75.4473 7.74021 75.3536 7.64645C75.2598 7.55268 75.1326 7.5 75 7.5H53C52.8674 7.5 52.7402 7.55268 52.6464 7.64645C52.5527 7.74021 52.5 7.86739 52.5 8C52.5 8.13261 52.5527 8.25979 52.6464 8.35355C52.7402 8.44732 52.8674 8.5 53 8.5ZM75 23.5H53C52.8674 23.5 52.7402 23.5527 52.6464 23.6464C52.5527 23.7402 52.5 23.8674 52.5 24C52.5 24.1326 52.5527 24.2598 52.6464 24.3536C52.7402 24.4473 52.8674 24.5 53 24.5H75C75.1326 24.5 75.2598 24.4473 75.3536 24.3536C75.4473 24.2598 75.5 24.1326 75.5 24C75.5 23.8674 75.4473 23.7402 75.3536 23.6464C75.2598 23.5527 75.1326 23.5 75 23.5Z" fill="currentColor"/>
<path d="M123.75 16C123.75 16.1989 123.671 16.3897 123.53 16.5303C123.39 16.671 123.199 16.75 123 16.75H101C100.801 16.75 100.61 16.671 100.47 16.5303C100.329 16.3897 100.25 16.1989 100.25 16C100.25 15.8011 100.329 15.6103 100.47 15.4697C100.61 15.329 100.801 15.25 101 15.25H123C123.199 15.25 123.39 15.329 123.53 15.4697C123.671 15.6103 123.75 15.8011 123.75 16ZM101 8.75H123C123.199 8.75 123.39 8.67098 123.53 8.53033C123.671 8.38968 123.75 8.19891 123.75 8C123.75 7.80109 123.671 7.61032 123.53 7.46967C123.39 7.32902 123.199 7.25 123 7.25H101C100.801 7.25 100.61 7.32902 100.47 7.46967C100.329 7.61032 100.25 7.80109 100.25 8C100.25 8.19891 100.329 8.38968 100.47 8.53033C100.61 8.67098 100.801 8.75 101 8.75ZM123 23.25H101C100.801 23.25 100.61 23.329 100.47 23.4697C100.329 23.6103 100.25 23.8011 100.25 24C100.25 24.1989 100.329 24.3897 100.47 24.5303C100.61 24.671 100.801 24.75 101 24.75H123C123.199 24.75 123.39 24.671 123.53 24.5303C123.671 24.3897 123.75 24.1989 123.75 24C123.75 23.8011 123.671 23.6103 123.53 23.4697C123.39 23.329 123.199 23.25 123 23.25Z" fill="currentColor"/>
<path d="M172.5 16C172.5 16.3978 172.342 16.7794 172.061 17.0607C171.779 17.342 171.398 17.5 171 17.5H149C148.602 17.5 148.221 17.342 147.939 17.0607C147.658 16.7794 147.5 16.3978 147.5 16C147.5 15.6022 147.658 15.2206 147.939 14.9393C148.221 14.658 148.602 14.5 149 14.5H171C171.398 14.5 171.779 14.658 172.061 14.9393C172.342 15.2206 172.5 15.6022 172.5 16ZM149 9.5H171C171.398 9.5 171.779 9.34196 172.061 9.06066C172.342 8.77936 172.5 8.39782 172.5 8C172.5 7.60218 172.342 7.22064 172.061 6.93934C171.779 6.65804 171.398 6.5 171 6.5H149C148.602 6.5 148.221 6.65804 147.939 6.93934C147.658 7.22064 147.5 7.60218 147.5 8C147.5 8.39782 147.658 8.77936 147.939 9.06066C148.221 9.34196 148.602 9.5 149 9.5ZM171 22.5H149C148.602 22.5 148.221 22.658 147.939 22.9393C147.658 23.2206 147.5 23.6022 147.5 24C147.5 24.3978 147.658 24.7794 147.939 25.0607C148.221 25.342 148.602 25.5 149 25.5H171C171.398 25.5 171.779 25.342 172.061 25.0607C172.342 24.7794 172.5 24.3978 172.5 24C172.5 23.6022 172.342 23.2206 172.061 22.9393C171.779 22.658 171.398 22.5 171 22.5Z" fill="currentColor"/>
<path d="M220 15V17C220 17.2652 219.895 17.5196 219.707 17.7071C219.52 17.8946 219.265 18 219 18H197C196.735 18 196.48 17.8946 196.293 17.7071C196.105 17.5196 196 17.2652 196 17V15C196 14.7348 196.105 14.4804 196.293 14.2929C196.48 14.1054 196.735 14 197 14H219C219.265 14 219.52 14.1054 219.707 14.2929C219.895 14.4804 220 14.7348 220 15ZM219 22H197C196.735 22 196.48 22.1054 196.293 22.2929C196.105 22.4804 196 22.7348 196 23V25C196 25.2652 196.105 25.5196 196.293 25.7071C196.48 25.8946 196.735 26 197 26H219C219.265 26 219.52 25.8946 219.707 25.7071C219.895 25.5196 220 25.2652 220 25V23C220 22.7348 219.895 22.4804 219.707 22.2929C219.52 22.1054 219.265 22 219 22ZM219 6H197C196.735 6 196.48 6.10536 196.293 6.29289C196.105 6.48043 196 6.73478 196 7V9C196 9.26522 196.105 9.51957 196.293 9.70711C196.48 9.89464 196.735 10 197 10H219C219.265 10 219.52 9.89464 219.707 9.70711C219.895 9.51957 220 9.26522 220 9V7C220 6.73478 219.895 6.48043 219.707 6.29289C219.52 6.10536 219.265 6 219 6Z" fill="currentColor"/>
<path opacity="0.2" d="M267 8V24H245V8H267Z" fill="currentColor"/>
<path d="M268 16C268 16.2652 267.895 16.5196 267.707 16.7071C267.52 16.8946 267.265 17 267 17H245C244.735 17 244.48 16.8946 244.293 16.7071C244.105 16.5196 244 16.2652 244 16C244 15.7348 244.105 15.4804 244.293 15.2929C244.48 15.1054 244.735 15 245 15H267C267.265 15 267.52 15.1054 267.707 15.2929C267.895 15.4804 268 15.7348 268 16ZM245 9H267C267.265 9 267.52 8.89464 267.707 8.70711C267.895 8.51957 268 8.26522 268 8C268 7.73478 267.895 7.48043 267.707 7.29289C267.52 7.10536 267.265 7 267 7H245C244.735 7 244.48 7.10536 244.293 7.29289C244.105 7.48043 244 7.73478 244 8C244 8.26522 244.105 8.51957 244.293 8.70711C244.48 8.89464 244.735 9 245 9ZM267 23H245C244.735 23 244.48 23.1054 244.293 23.2929C244.105 23.4804 244 23.7348 244 24C244 24.2652 244.105 24.5196 244.293 24.7071C244.48 24.8946 244.735 25 245 25H267C267.265 25 267.52 24.8946 267.707 24.7071C267.895 24.5196 268 24.2652 268 24C268 23.7348 267.895 23.4804 267.707 23.2929C267.52 23.1054 267.265 23 267 23Z" fill="currentColor"/>
</g>
<defs>
<clipPath id="clip0_17_9504">
<rect width="272" height="32" rx="5" fill="white"/>
</clipPath>
</defs>
</svg>
