<svg width="272" height="32" viewBox="0 0 272 32" fill="none" xmlns="http://www.w3.org/2000/svg">
<g clip-path="url(#clip0_17_9378)">
<path d="M23 14C23 14.2652 22.8946 14.5196 22.7071 14.7071C22.5196 14.8946 22.2652 15 22 15H14C13.7348 15 13.4804 14.8946 13.2929 14.7071C13.1054 14.5196 13 14.2652 13 14C13 13.7348 13.1054 13.4804 13.2929 13.2929C13.4804 13.1054 13.7348 13 14 13H22C22.2652 13 22.5196 13.1054 22.7071 13.2929C22.8946 13.4804 23 13.7348 23 14ZM22 17H14C13.7348 17 13.4804 17.1054 13.2929 17.2929C13.1054 17.4804 13 17.7348 13 18C13 18.2652 13.1054 18.5196 13.2929 18.7071C13.4804 18.8946 13.7348 19 14 19H22C22.2652 19 22.5196 18.8946 22.7071 18.7071C22.8946 18.5196 23 18.2652 23 18C23 17.7348 22.8946 17.4804 22.7071 17.2929C22.5196 17.1054 22.2652 17 22 17ZM28 6V26C28 26.5304 27.7893 27.0391 27.4142 27.4142C27.0391 27.7893 26.5304 28 26 28H6C5.46957 28 4.96086 27.7893 4.58579 27.4142C4.21071 27.0391 4 26.5304 4 26V6C4 5.46957 4.21071 4.96086 4.58579 4.58579C4.96086 4.21071 5.46957 4 6 4H26C26.5304 4 27.0391 4.21071 27.4142 4.58579C27.7893 4.96086 28 5.46957 28 6ZM6 26H9V6H6V26ZM26 26V6H11V26H26Z" fill="currentColor"/>
<path d="M70.5 14C70.5 14.1326 70.4473 14.2598 70.3536 14.3536C70.2598 14.4473 70.1326 14.5 70 14.5H62C61.8674 14.5 61.7402 14.4473 61.6464 14.3536C61.5527 14.2598 61.5 14.1326 61.5 14C61.5 13.8674 61.5527 13.7402 61.6464 13.6464C61.7402 13.5527 61.8674 13.5 62 13.5H70C70.1326 13.5 70.2598 13.5527 70.3536 13.6464C70.4473 13.7402 70.5 13.8674 70.5 14ZM70 17.5H62C61.8674 17.5 61.7402 17.5527 61.6464 17.6464C61.5527 17.7402 61.5 17.8674 61.5 18C61.5 18.1326 61.5527 18.2598 61.6464 18.3536C61.7402 18.4473 61.8674 18.5 62 18.5H70C70.1326 18.5 70.2598 18.4473 70.3536 18.3536C70.4473 18.2598 70.5 18.1326 70.5 18C70.5 17.8674 70.4473 17.7402 70.3536 17.6464C70.2598 17.5527 70.1326 17.5 70 17.5ZM75.5 6V26C75.5 26.3978 75.342 26.7794 75.0607 27.0607C74.7794 27.342 74.3978 27.5 74 27.5H54C53.6022 27.5 53.2206 27.342 52.9393 27.0607C52.658 26.7794 52.5 26.3978 52.5 26V6C52.5 5.60218 52.658 5.22064 52.9393 4.93934C53.2206 4.65804 53.6022 4.5 54 4.5H74C74.3978 4.5 74.7794 4.65804 75.0607 4.93934C75.342 5.22064 75.5 5.60218 75.5 6ZM54 26.5H57.5V5.5H54C53.8674 5.5 53.7402 5.55268 53.6464 5.64645C53.5527 5.74021 53.5 5.86739 53.5 6V26C53.5 26.1326 53.5527 26.2598 53.6464 26.3536C53.7402 26.4473 53.8674 26.5 54 26.5ZM74.5 6C74.5 5.86739 74.4473 5.74021 74.3536 5.64645C74.2598 5.55268 74.1326 5.5 74 5.5H58.5V26.5H74C74.1326 26.5 74.2598 26.4473 74.3536 26.3536C74.4473 26.2598 74.5 26.1326 74.5 26V6Z" fill="currentColor"/>
<path d="M118.75 14C118.75 14.1989 118.671 14.3897 118.53 14.5303C118.39 14.671 118.199 14.75 118 14.75H110C109.801 14.75 109.61 14.671 109.47 14.5303C109.329 14.3897 109.25 14.1989 109.25 14C109.25 13.8011 109.329 13.6103 109.47 13.4697C109.61 13.329 109.801 13.25 110 13.25H118C118.199 13.25 118.39 13.329 118.53 13.4697C118.671 13.6103 118.75 13.8011 118.75 14ZM118 17.25H110C109.801 17.25 109.61 17.329 109.47 17.4697C109.329 17.6103 109.25 17.8011 109.25 18C109.25 18.1989 109.329 18.3897 109.47 18.5303C109.61 18.671 109.801 18.75 110 18.75H118C118.199 18.75 118.39 18.671 118.53 18.5303C118.671 18.3897 118.75 18.1989 118.75 18C118.75 17.8011 118.671 17.6103 118.53 17.4697C118.39 17.329 118.199 17.25 118 17.25ZM123.75 6V26C123.75 26.4641 123.566 26.9092 123.237 27.2374C122.909 27.5656 122.464 27.75 122 27.75H102C101.536 27.75 101.091 27.5656 100.763 27.2374C100.434 26.9092 100.25 26.4641 100.25 26V6C100.25 5.53587 100.434 5.09075 100.763 4.76256C101.091 4.43437 101.536 4.25 102 4.25H122C122.464 4.25 122.909 4.43437 123.237 4.76256C123.566 5.09075 123.75 5.53587 123.75 6ZM102 26.25H105.25V5.75H102C101.934 5.75 101.87 5.77634 101.823 5.82322C101.776 5.87011 101.75 5.9337 101.75 6V26C101.75 26.0663 101.776 26.1299 101.823 26.1768C101.87 26.2237 101.934 26.25 102 26.25ZM122.25 6C122.25 5.9337 122.224 5.87011 122.177 5.82322C122.13 5.77634 122.066 5.75 122 5.75H106.75V26.25H122C122.066 26.25 122.13 26.2237 122.177 26.1768C122.224 26.1299 122.25 26.0663 122.25 26V6Z" fill="currentColor"/>
<path d="M157.5 13.5C157.5 13.1022 157.658 12.7206 157.939 12.4393C158.221 12.158 158.602 12 159 12H166C166.398 12 166.779 12.158 167.061 12.4393C167.342 12.7206 167.5 13.1022 167.5 13.5C167.5 13.8978 167.342 14.2794 167.061 14.5607C166.779 14.842 166.398 15 166 15H159C158.602 15 158.221 14.842 157.939 14.5607C157.658 14.2794 157.5 13.8978 157.5 13.5ZM166 17H159C158.602 17 158.221 17.158 157.939 17.4393C157.658 17.7206 157.5 18.1022 157.5 18.5C157.5 18.8978 157.658 19.2794 157.939 19.5607C158.221 19.842 158.602 20 159 20H166C166.398 20 166.779 19.842 167.061 19.5607C167.342 19.2794 167.5 18.8978 167.5 18.5C167.5 18.1022 167.342 17.7206 167.061 17.4393C166.779 17.158 166.398 17 166 17ZM172.5 6V26C172.5 26.663 172.237 27.2989 171.768 27.7678C171.299 28.2366 170.663 28.5 170 28.5H150C149.337 28.5 148.701 28.2366 148.232 27.7678C147.763 27.2989 147.5 26.663 147.5 26V6C147.5 5.33696 147.763 4.70107 148.232 4.23223C148.701 3.76339 149.337 3.5 150 3.5H170C170.663 3.5 171.299 3.76339 171.768 4.23223C172.237 4.70107 172.5 5.33696 172.5 6ZM150.5 25.5H152.5V6.5H150.5V25.5ZM169.5 6.5H155.5V25.5H169.5V6.5Z" fill="currentColor"/>
<path d="M218 4H198C197.47 4 196.961 4.21071 196.586 4.58579C196.211 4.96086 196 5.46957 196 6V26C196 26.5304 196.211 27.0391 196.586 27.4142C196.961 27.7893 197.47 28 198 28H218C218.53 28 219.039 27.7893 219.414 27.4142C219.789 27.0391 220 26.5304 220 26V6C220 5.46957 219.789 4.96086 219.414 4.58579C219.039 4.21071 218.53 4 218 4ZM202 26H198V6H202V26ZM214 19H206C205.735 19 205.48 18.8946 205.293 18.7071C205.105 18.5196 205 18.2652 205 18C205 17.7348 205.105 17.4804 205.293 17.2929C205.48 17.1054 205.735 17 206 17H214C214.265 17 214.52 17.1054 214.707 17.2929C214.895 17.4804 215 17.7348 215 18C215 18.2652 214.895 18.5196 214.707 18.7071C214.52 18.8946 214.265 19 214 19ZM214 15H206C205.735 15 205.48 14.8946 205.293 14.7071C205.105 14.5196 205 14.2652 205 14C205 13.7348 205.105 13.4804 205.293 13.2929C205.48 13.1054 205.735 13 206 13H214C214.265 13 214.52 13.1054 214.707 13.2929C214.895 13.4804 215 13.7348 215 14C215 14.2652 214.895 14.5196 214.707 14.7071C214.52 14.8946 214.265 15 214 15Z" fill="currentColor"/>
<path opacity="0.2" d="M250 5V27H246C245.735 27 245.48 26.8946 245.293 26.7071C245.105 26.5196 245 26.2652 245 26V6C245 5.73478 245.105 5.48043 245.293 5.29289C245.48 5.10536 245.735 5 246 5H250Z" fill="currentColor"/>
<path d="M263 14C263 14.2652 262.895 14.5196 262.707 14.7071C262.52 14.8946 262.265 15 262 15H254C253.735 15 253.48 14.8946 253.293 14.7071C253.105 14.5196 253 14.2652 253 14C253 13.7348 253.105 13.4804 253.293 13.2929C253.48 13.1054 253.735 13 254 13H262C262.265 13 262.52 13.1054 262.707 13.2929C262.895 13.4804 263 13.7348 263 14ZM262 17H254C253.735 17 253.48 17.1054 253.293 17.2929C253.105 17.4804 253 17.7348 253 18C253 18.2652 253.105 18.5196 253.293 18.7071C253.48 18.8946 253.735 19 254 19H262C262.265 19 262.52 18.8946 262.707 18.7071C262.895 18.5196 263 18.2652 263 18C263 17.7348 262.895 17.4804 262.707 17.2929C262.52 17.1054 262.265 17 262 17ZM268 6V26C268 26.5304 267.789 27.0391 267.414 27.4142C267.039 27.7893 266.53 28 266 28H246C245.47 28 244.961 27.7893 244.586 27.4142C244.211 27.0391 244 26.5304 244 26V6C244 5.46957 244.211 4.96086 244.586 4.58579C244.961 4.21071 245.47 4 246 4H266C266.53 4 267.039 4.21071 267.414 4.58579C267.789 4.96086 268 5.46957 268 6ZM246 26H249V6H246V26ZM266 26V6H251V26H266Z" fill="currentColor"/>
</g>
<defs>
<clipPath id="clip0_17_9378">
<rect width="272" height="32" rx="5" fill="white"/>
</clipPath>
</defs>
</svg>
