<svg width="272" height="32" viewBox="0 0 272 32" fill="none" xmlns="http://www.w3.org/2000/svg">
<g clip-path="url(#clip0_17_9238)">
<path d="M29.415 10.1714L21.8287 2.58644C21.643 2.40067 21.4225 2.25331 21.1798 2.15277C20.9371 2.05223 20.677 2.00049 20.4143 2.00049C20.1517 2.00049 19.8916 2.05223 19.6489 2.15277C19.4062 2.25331 19.1857 2.40067 19 2.58644L12.2962 9.31144C10.9637 8.89394 7.92122 8.39019 4.74622 10.9539C4.52738 11.1299 4.34805 11.35 4.2199 11.5999C4.09175 11.8497 4.01766 12.1238 4.00245 12.4042C3.98724 12.6846 4.03125 12.9651 4.13161 13.2274C4.23198 13.4896 4.38645 13.7278 4.58497 13.9264L10.625 19.9639L5.29247 25.2927C5.10483 25.4803 4.99942 25.7348 4.99942 26.0002C4.99942 26.2656 5.10483 26.52 5.29247 26.7077C5.48011 26.8953 5.73461 27.0007 5.99997 27.0007C6.26534 27.0007 6.51983 26.8953 6.70747 26.7077L12.0362 21.3752L18.0725 27.4114C18.258 27.5978 18.4785 27.7457 18.7213 27.8467C18.9641 27.9478 19.2245 27.9999 19.4875 28.0002C19.535 28.0002 19.5812 28.0002 19.6287 28.0002C19.9138 27.9804 20.1913 27.8995 20.4424 27.763C20.6935 27.6265 20.9122 27.4375 21.0837 27.2089C23.5387 23.9464 23.3025 21.2939 22.7325 19.7089L29.4162 13.0002C29.6019 12.8144 29.7492 12.5938 29.8496 12.3511C29.95 12.1084 30.0017 11.8482 30.0015 11.5856C30.0014 11.3229 29.9496 11.0628 29.8489 10.8201C29.7483 10.5775 29.6008 10.3571 29.415 10.1714ZM28 11.5864L20.8412 18.7689C20.6934 18.9173 20.5959 19.1084 20.5625 19.3152C20.529 19.522 20.5614 19.734 20.655 19.9214C21.8375 22.2877 20.43 24.7452 19.4875 25.9989L5.99997 12.5102C7.50997 11.2927 8.95497 10.9714 10.06 10.9714C10.7611 10.9619 11.4565 11.0994 12.1012 11.3752C12.2893 11.4693 12.5023 11.5017 12.7099 11.4679C12.9175 11.434 13.1091 11.3355 13.2575 11.1864L20.415 4.00019L28 11.5852V11.5864Z" fill="currentColor"/>
<path d="M77.0613 10.525L69.475 2.93874C69.3357 2.7989 69.1701 2.68795 68.9878 2.61224C68.8054 2.53653 68.61 2.49756 68.4125 2.49756C68.2151 2.49756 68.0196 2.53653 67.8373 2.61224C67.655 2.68795 67.4894 2.7989 67.35 2.93874L60.4313 9.88374C59.4213 9.50874 56.3325 8.70249 53.0563 11.3425C52.8918 11.4742 52.7569 11.639 52.6603 11.8263C52.5638 12.0137 52.5078 12.2192 52.496 12.4296C52.4842 12.64 52.5169 12.8505 52.5919 13.0474C52.6669 13.2443 52.7825 13.4233 52.9313 13.5725L59.3225 19.9637L53.6463 25.6462C53.5525 25.7401 53.4998 25.8673 53.4998 26C53.4998 26.1327 53.5525 26.2599 53.6463 26.3537C53.7401 26.4476 53.8674 26.5003 54 26.5003C54.1327 26.5003 54.26 26.4476 54.3538 26.3537L60.0363 20.67L66.4263 27.06C66.5656 27.1995 66.731 27.3101 66.9131 27.3856C67.0952 27.4611 67.2904 27.5 67.4875 27.5C67.5225 27.5 67.5588 27.5 67.5938 27.5C67.8074 27.4849 68.0154 27.4242 68.2036 27.322C68.3918 27.2198 68.556 27.0784 68.685 26.9075C71.1638 23.6125 70.7488 21.01 70.1488 19.5862L77.0613 12.65C77.2011 12.5106 77.3121 12.345 77.3878 12.1627C77.4635 11.9804 77.5025 11.7849 77.5025 11.5875C77.5025 11.3901 77.4635 11.1946 77.3878 11.0123C77.3121 10.8299 77.2011 10.6643 77.0613 10.525ZM76.3538 11.9387L69.195 19.125C69.121 19.1991 69.0721 19.2946 69.0553 19.398C69.0385 19.5014 69.0546 19.6075 69.1013 19.7012C70.405 22.3075 68.8988 24.9512 67.885 26.305C67.8418 26.3615 67.787 26.4081 67.7242 26.4417C67.6615 26.4753 67.5924 26.4951 67.5214 26.4998C67.4504 26.5046 67.3792 26.4941 67.3126 26.4691C67.2459 26.4441 67.1854 26.4052 67.135 26.355L53.6463 12.8662C53.5956 12.8165 53.556 12.7564 53.5303 12.6902C53.5046 12.6239 53.4933 12.5529 53.4972 12.4819C53.5011 12.4109 53.5201 12.3416 53.553 12.2786C53.5858 12.2155 53.6317 12.1602 53.6875 12.1162C55.305 10.8162 56.8575 10.4675 58.055 10.4675C58.8355 10.456 59.6093 10.6111 60.325 10.9225C60.4189 10.9695 60.5253 10.9857 60.6289 10.9689C60.7326 10.9521 60.8283 10.903 60.9025 10.8287L68.0613 3.64624C68.1077 3.59975 68.1629 3.56287 68.2236 3.53771C68.2843 3.51255 68.3493 3.4996 68.415 3.4996C68.4807 3.4996 68.5458 3.51255 68.6065 3.53771C68.6672 3.56287 68.7224 3.59975 68.7688 3.64624L76.3538 11.2325C76.4473 11.3262 76.4998 11.4532 76.4998 11.5856C76.4998 11.718 76.4473 11.845 76.3538 11.9387Z" fill="currentColor"/>
<path d="M125.239 10.3485L117.652 2.76228C117.49 2.59957 117.297 2.47049 117.084 2.38242C116.872 2.29435 116.644 2.24902 116.414 2.24902C116.184 2.24902 115.957 2.29435 115.744 2.38242C115.532 2.47049 115.339 2.59957 115.176 2.76228L108.366 9.59602C107.176 9.18977 104.116 8.55352 100.902 11.1473C100.711 11.3013 100.554 11.4941 100.442 11.7129C100.329 11.9317 100.265 12.1717 100.251 12.4173C100.238 12.6628 100.277 12.9084 100.365 13.138C100.453 13.3676 100.588 13.576 100.762 13.7498L106.976 19.9635L101.47 25.4635C101.396 25.5322 101.337 25.615 101.296 25.707C101.255 25.799 101.233 25.8983 101.231 25.999C101.23 26.0997 101.248 26.1997 101.286 26.2931C101.324 26.3865 101.38 26.4713 101.451 26.5426C101.522 26.6138 101.607 26.6699 101.7 26.7076C101.794 26.7454 101.894 26.7639 101.994 26.7621C102.095 26.7603 102.194 26.7383 102.286 26.6973C102.378 26.6563 102.461 26.5972 102.53 26.5235L108.036 21.0173L114.25 27.236C114.412 27.3987 114.605 27.5279 114.818 27.616C115.03 27.7042 115.258 27.7496 115.487 27.7498C115.528 27.7498 115.57 27.7498 115.612 27.7498C115.862 27.7321 116.105 27.6611 116.324 27.5416C116.544 27.4222 116.736 27.257 116.886 27.0573C119.351 23.781 119.03 21.1535 118.444 19.6448L125.24 12.826C125.403 12.6634 125.532 12.4702 125.62 12.2576C125.708 12.045 125.753 11.8171 125.753 11.587C125.753 11.3569 125.708 11.129 125.619 10.9165C125.531 10.704 125.402 10.511 125.239 10.3485ZM124.177 11.7623L117.019 18.9448C116.908 19.0562 116.835 19.1997 116.81 19.3549C116.785 19.5101 116.809 19.6692 116.88 19.8098C118.122 22.2948 116.666 24.8498 115.687 26.1498C115.666 26.178 115.638 26.2013 115.607 26.2181C115.576 26.2349 115.541 26.2448 115.506 26.2472C115.47 26.2496 115.434 26.2443 115.401 26.2318C115.368 26.2194 115.338 26.1999 115.312 26.1748L101.822 12.6885C101.797 12.6635 101.778 12.6334 101.765 12.6002C101.752 12.567 101.747 12.5314 101.749 12.4959C101.751 12.4604 101.761 12.4258 101.777 12.3944C101.794 12.3629 101.817 12.3353 101.845 12.3135C103.407 11.0523 104.907 10.7185 106.057 10.7185C106.798 10.7074 107.533 10.8526 108.214 11.1448C108.355 11.2147 108.515 11.2384 108.67 11.2123C108.826 11.1863 108.969 11.1119 109.08 10.9998L116.237 3.82353C116.261 3.80028 116.288 3.78184 116.319 3.76926C116.349 3.75668 116.381 3.7502 116.414 3.7502C116.447 3.7502 116.48 3.75668 116.51 3.76926C116.54 3.78184 116.568 3.80028 116.591 3.82353L124.177 11.4085C124.201 11.4317 124.219 11.4593 124.232 11.4897C124.244 11.52 124.251 11.5525 124.251 11.5854C124.251 11.6183 124.244 11.6508 124.232 11.6811C124.219 11.7115 124.201 11.7391 124.177 11.7623Z" fill="currentColor"/>
<path d="M173.769 9.81773L166.182 2.23273C165.95 2.00029 165.674 1.81589 165.371 1.69008C165.067 1.56427 164.742 1.49951 164.414 1.49951C164.085 1.49951 163.76 1.56427 163.456 1.69008C163.153 1.81589 162.877 2.00029 162.645 2.23273L156.15 8.75023C154.596 8.33398 151.565 8.03523 148.432 10.5627C148.159 10.7828 147.935 11.058 147.775 11.3705C147.614 11.683 147.522 12.0256 147.503 12.3762C147.484 12.7268 147.539 13.0774 147.665 13.4053C147.791 13.7331 147.984 14.0308 148.232 14.279L153.915 19.9627L148.94 24.9377C148.658 25.2195 148.5 25.6017 148.5 26.0002C148.5 26.3987 148.658 26.7809 148.94 27.0627C149.222 27.3445 149.604 27.5028 150.002 27.5028C150.401 27.5028 150.783 27.3445 151.065 27.0627L156.04 22.0865L161.724 27.769C162.192 28.2368 162.827 28.4998 163.489 28.5002C163.546 28.5002 163.605 28.5002 163.664 28.494C164.02 28.4682 164.368 28.3661 164.682 28.1947C164.995 28.0233 165.269 27.7864 165.484 27.5002C166.07 26.7215 166.859 25.484 167.289 24.0002C167.719 22.5165 167.72 21.1402 167.309 19.8252L173.771 13.3415C174.236 12.8728 174.497 12.2392 174.496 11.5791C174.496 10.9189 174.234 10.2858 173.769 9.81773ZM164.486 18.4165C164.264 18.6392 164.118 18.9261 164.068 19.2365C164.018 19.547 164.067 19.8653 164.207 20.1465C164.636 21.004 165.07 22.7715 163.422 25.2277L150.76 12.5665C153.396 10.7427 155.701 11.7365 155.885 11.8165C156.165 11.9619 156.484 12.0125 156.796 11.9609C157.107 11.9093 157.393 11.7582 157.611 11.5302L164.415 4.70398L171.29 11.579L164.486 18.4165Z" fill="currentColor"/>
<path d="M221.416 12.9999L214.733 19.7062C215.303 21.2899 215.539 23.9424 213.084 27.2062C212.912 27.4357 212.693 27.6254 212.441 27.7624C212.189 27.8994 211.911 27.9804 211.625 27.9999C211.578 27.9999 211.531 27.9999 211.484 27.9999C211.221 28 210.961 27.9482 210.718 27.8476C210.475 27.747 210.255 27.5996 210.069 27.4137L204.036 21.3749L198.708 26.7074C198.52 26.8951 198.265 27.0005 198 27.0005C197.735 27.0005 197.48 26.8951 197.293 26.7074C197.105 26.5198 197 26.2653 197 25.9999C197 25.7345 197.105 25.4801 197.293 25.2924L202.625 19.9637L196.588 13.9262C196.389 13.7275 196.235 13.4892 196.134 13.2269C196.034 12.9646 195.99 12.6841 196.006 12.4037C196.021 12.1232 196.095 11.8492 196.223 11.5994C196.352 11.3496 196.531 11.1295 196.75 10.9537C199.928 8.38991 202.969 8.89366 204.3 9.31116L211 2.58741C211.186 2.40165 211.406 2.25429 211.649 2.15375C211.892 2.05321 212.152 2.00146 212.414 2.00146C212.677 2.00146 212.937 2.05321 213.18 2.15375C213.423 2.25429 213.643 2.40165 213.829 2.58741L221.415 10.1724C221.79 10.5473 222.001 11.0557 222.001 11.5859C222.001 12.1161 221.791 12.6247 221.416 12.9999Z" fill="currentColor"/>
<path opacity="0.2" d="M268.708 12.2923L261.549 19.4748C262.981 22.341 261.334 25.2073 260.285 26.5998C260.199 26.713 260.089 26.8065 259.964 26.8741C259.839 26.9416 259.701 26.9816 259.559 26.9914C259.417 27.0013 259.274 26.9806 259.141 26.931C259.007 26.8813 258.886 26.8038 258.785 26.7035L245.293 13.2198C245.193 13.1203 245.116 13.001 245.065 12.8695C245.015 12.738 244.993 12.5975 245.001 12.4569C245.009 12.3164 245.046 12.1791 245.11 12.054C245.175 11.9289 245.265 11.8189 245.375 11.731C249.081 8.74102 252.55 10.481 252.55 10.481L259.709 3.29852C259.896 3.11113 260.151 3.00586 260.416 3.00586C260.681 3.00586 260.935 3.11113 261.123 3.29852L268.708 10.8748C268.801 10.9677 268.875 11.0781 268.926 11.1998C268.976 11.3214 269.002 11.4518 269.002 11.5835C269.002 11.7152 268.976 11.8457 268.926 11.9673C268.875 12.0889 268.801 12.1994 268.708 12.2923Z" fill="currentColor"/>
<path d="M269.415 10.1714L261.829 2.58644C261.643 2.40067 261.423 2.25331 261.18 2.15277C260.937 2.05223 260.677 2.00049 260.414 2.00049C260.152 2.00049 259.892 2.05223 259.649 2.15277C259.406 2.25331 259.186 2.40067 259 2.58644L252.296 9.31144C250.964 8.89394 247.921 8.39019 244.746 10.9539C244.527 11.1299 244.348 11.35 244.22 11.5999C244.092 11.8497 244.018 12.1238 244.002 12.4042C243.987 12.6846 244.031 12.9651 244.132 13.2274C244.232 13.4896 244.386 13.7278 244.585 13.9264L250.625 19.9639L245.292 25.2927C245.105 25.4803 244.999 25.7348 244.999 26.0002C244.999 26.2656 245.105 26.52 245.292 26.7077C245.48 26.8953 245.735 27.0007 246 27.0007C246.265 27.0007 246.52 26.8953 246.707 26.7077L252.036 21.3752L258.072 27.4114C258.258 27.5978 258.479 27.7457 258.721 27.8467C258.964 27.9478 259.224 27.9999 259.487 28.0002C259.535 28.0002 259.581 28.0002 259.629 28.0002C259.914 27.9804 260.191 27.8995 260.442 27.763C260.693 27.6265 260.912 27.4375 261.084 27.2089C263.539 23.9464 263.302 21.2939 262.732 19.7089L269.416 13.0002C269.602 12.8144 269.749 12.5938 269.85 12.3511C269.95 12.1084 270.002 11.8482 270.002 11.5856C270.001 11.3229 269.95 11.0628 269.849 10.8201C269.748 10.5775 269.601 10.3571 269.415 10.1714ZM268 11.5864L260.841 18.7689C260.693 18.9173 260.596 19.1084 260.562 19.3152C260.529 19.522 260.561 19.734 260.655 19.9214C261.837 22.2877 260.43 24.7452 259.487 25.9989L246 12.5102C247.51 11.2927 248.955 10.9714 250.06 10.9714C250.761 10.9619 251.457 11.0994 252.101 11.3752C252.289 11.4693 252.502 11.5017 252.71 11.4679C252.917 11.434 253.109 11.3355 253.257 11.1864L260.415 4.00019L268 11.5852V11.5864Z" fill="currentColor"/>
</g>
<defs>
<clipPath id="clip0_17_9238">
<rect width="272" height="32" rx="5" fill="white"/>
</clipPath>
</defs>
</svg>
