<svg width="272" height="32" viewBox="0 0 272 32" fill="none" xmlns="http://www.w3.org/2000/svg">
<g clip-path="url(#clip0_17_8874)">
<path d="M14 5C13.7348 5 13.4804 5.10536 13.2929 5.29289C13.1054 5.48043 13 5.73478 13 6V8H3C2.46957 8 1.96086 8.21071 1.58579 8.58579C1.21071 8.96086 1 9.46957 1 10V22C1 22.5304 1.21071 23.0391 1.58579 23.4142C1.96086 23.7893 2.46957 24 3 24H13V26C13 26.2652 13.1054 26.5196 13.2929 26.7071C13.4804 26.8946 13.7348 27 14 27C14.2652 27 14.5196 26.8946 14.7071 26.7071C14.8946 26.5196 15 26.2652 15 26V6C15 5.73478 14.8946 5.48043 14.7071 5.29289C14.5196 5.10536 14.2652 5 14 5ZM3 22V10H13V22H3ZM31 10V22C31 22.5304 30.7893 23.0391 30.4142 23.4142C30.0391 23.7893 29.5304 24 29 24H18C17.7348 24 17.4804 23.8946 17.2929 23.7071C17.1054 23.5196 17 23.2652 17 23C17 22.7348 17.1054 22.4804 17.2929 22.2929C17.4804 22.1054 17.7348 22 18 22H29V10H18C17.7348 10 17.4804 9.89464 17.2929 9.70711C17.1054 9.51957 17 9.26522 17 9C17 8.73478 17.1054 8.48043 17.2929 8.29289C17.4804 8.10536 17.7348 8 18 8H29C29.5304 8 30.0391 8.21071 30.4142 8.58579C30.7893 8.96086 31 9.46957 31 10ZM11 14C11 14.2652 10.8946 14.5196 10.7071 14.7071C10.5196 14.8946 10.2652 15 10 15H9V18C9 18.2652 8.89464 18.5196 8.70711 18.7071C8.51957 18.8946 8.26522 19 8 19C7.73478 19 7.48043 18.8946 7.29289 18.7071C7.10536 18.5196 7 18.2652 7 18V15H6C5.73478 15 5.48043 14.8946 5.29289 14.7071C5.10536 14.5196 5 14.2652 5 14C5 13.7348 5.10536 13.4804 5.29289 13.2929C5.48043 13.1054 5.73478 13 6 13H10C10.2652 13 10.5196 13.1054 10.7071 13.2929C10.8946 13.4804 11 13.7348 11 14Z" fill="currentColor"/>
<path d="M62 5.5C61.8674 5.5 61.7402 5.55268 61.6464 5.64645C61.5527 5.74021 61.5 5.86739 61.5 6V8.5H51C50.6022 8.5 50.2206 8.65804 49.9393 8.93934C49.658 9.22064 49.5 9.60218 49.5 10V22C49.5 22.3978 49.658 22.7794 49.9393 23.0607C50.2206 23.342 50.6022 23.5 51 23.5H61.5V26C61.5 26.1326 61.5527 26.2598 61.6464 26.3536C61.7402 26.4473 61.8674 26.5 62 26.5C62.1326 26.5 62.2598 26.4473 62.3536 26.3536C62.4473 26.2598 62.5 26.1326 62.5 26V6C62.5 5.86739 62.4473 5.74021 62.3536 5.64645C62.2598 5.55268 62.1326 5.5 62 5.5ZM51 22.5C50.8674 22.5 50.7402 22.4473 50.6464 22.3536C50.5527 22.2598 50.5 22.1326 50.5 22V10C50.5 9.86739 50.5527 9.74021 50.6464 9.64645C50.7402 9.55268 50.8674 9.5 51 9.5H61.5V22.5H51ZM78.5 10V22C78.5 22.3978 78.342 22.7794 78.0607 23.0607C77.7794 23.342 77.3978 23.5 77 23.5H66C65.8674 23.5 65.7402 23.4473 65.6464 23.3536C65.5527 23.2598 65.5 23.1326 65.5 23C65.5 22.8674 65.5527 22.7402 65.6464 22.6464C65.7402 22.5527 65.8674 22.5 66 22.5H77C77.1326 22.5 77.2598 22.4473 77.3536 22.3536C77.4473 22.2598 77.5 22.1326 77.5 22V10C77.5 9.86739 77.4473 9.74021 77.3536 9.64645C77.2598 9.55268 77.1326 9.5 77 9.5H66C65.8674 9.5 65.7402 9.44732 65.6464 9.35355C65.5527 9.25979 65.5 9.13261 65.5 9C65.5 8.86739 65.5527 8.74021 65.6464 8.64645C65.7402 8.55268 65.8674 8.5 66 8.5H77C77.3978 8.5 77.7794 8.65804 78.0607 8.93934C78.342 9.22064 78.5 9.60218 78.5 10ZM58.5 14C58.5 14.1326 58.4473 14.2598 58.3536 14.3536C58.2598 14.4473 58.1326 14.5 58 14.5H56.5V18C56.5 18.1326 56.4473 18.2598 56.3536 18.3536C56.2598 18.4473 56.1326 18.5 56 18.5C55.8674 18.5 55.7402 18.4473 55.6464 18.3536C55.5527 18.2598 55.5 18.1326 55.5 18V14.5H54C53.8674 14.5 53.7402 14.4473 53.6464 14.3536C53.5527 14.2598 53.5 14.1326 53.5 14C53.5 13.8674 53.5527 13.7402 53.6464 13.6464C53.7402 13.5527 53.8674 13.5 54 13.5H58C58.1326 13.5 58.2598 13.5527 58.3536 13.6464C58.4473 13.7402 58.5 13.8674 58.5 14Z" fill="currentColor"/>
<path d="M110 5.25C109.801 5.25 109.61 5.32902 109.47 5.46967C109.329 5.61032 109.25 5.80109 109.25 6V8.25H99C98.5359 8.25 98.0908 8.43437 97.7626 8.76256C97.4344 9.09075 97.25 9.53587 97.25 10V22C97.25 22.4641 97.4344 22.9092 97.7626 23.2374C98.0908 23.5656 98.5359 23.75 99 23.75H109.25V26C109.25 26.1989 109.329 26.3897 109.47 26.5303C109.61 26.671 109.801 26.75 110 26.75C110.199 26.75 110.39 26.671 110.53 26.5303C110.671 26.3897 110.75 26.1989 110.75 26V6C110.75 5.80109 110.671 5.61032 110.53 5.46967C110.39 5.32902 110.199 5.25 110 5.25ZM99 22.25C98.9337 22.25 98.8701 22.2237 98.8232 22.1768C98.7763 22.1299 98.75 22.0663 98.75 22V10C98.75 9.9337 98.7763 9.87011 98.8232 9.82322C98.8701 9.77634 98.9337 9.75 99 9.75H109.25V22.25H99ZM126.75 10V22C126.75 22.4641 126.566 22.9092 126.237 23.2374C125.909 23.5656 125.464 23.75 125 23.75H114C113.801 23.75 113.61 23.671 113.47 23.5303C113.329 23.3897 113.25 23.1989 113.25 23C113.25 22.8011 113.329 22.6103 113.47 22.4697C113.61 22.329 113.801 22.25 114 22.25H125C125.066 22.25 125.13 22.2237 125.177 22.1768C125.224 22.1299 125.25 22.0663 125.25 22V10C125.25 9.9337 125.224 9.87011 125.177 9.82322C125.13 9.77634 125.066 9.75 125 9.75H114C113.801 9.75 113.61 9.67098 113.47 9.53033C113.329 9.38968 113.25 9.19891 113.25 9C113.25 8.80109 113.329 8.61032 113.47 8.46967C113.61 8.32902 113.801 8.25 114 8.25H125C125.464 8.25 125.909 8.43437 126.237 8.76256C126.566 9.09075 126.75 9.53587 126.75 10ZM106.75 14C106.75 14.1989 106.671 14.3897 106.53 14.5303C106.39 14.671 106.199 14.75 106 14.75H104.75V18C104.75 18.1989 104.671 18.3897 104.53 18.5303C104.39 18.671 104.199 18.75 104 18.75C103.801 18.75 103.61 18.671 103.47 18.5303C103.329 18.3897 103.25 18.1989 103.25 18V14.75H102C101.801 14.75 101.61 14.671 101.47 14.5303C101.329 14.3897 101.25 14.1989 101.25 14C101.25 13.8011 101.329 13.6103 101.47 13.4697C101.61 13.329 101.801 13.25 102 13.25H106C106.199 13.25 106.39 13.329 106.53 13.4697C106.671 13.6103 106.75 13.8011 106.75 14Z" fill="currentColor"/>
<path d="M158 4.5C157.602 4.5 157.221 4.65804 156.939 4.93934C156.658 5.22064 156.5 5.60218 156.5 6V7.5H147C146.672 7.5 146.347 7.56466 146.043 7.6903C145.74 7.81594 145.464 8.00009 145.232 8.23223C144.763 8.70107 144.5 9.33696 144.5 10V22C144.5 22.663 144.763 23.2989 145.232 23.7678C145.464 23.9999 145.74 24.1841 146.043 24.3097C146.347 24.4353 146.672 24.5 147 24.5H156.5V26C156.5 26.3978 156.658 26.7794 156.939 27.0607C157.221 27.342 157.602 27.5 158 27.5C158.398 27.5 158.779 27.342 159.061 27.0607C159.342 26.7794 159.5 26.3978 159.5 26V6C159.5 5.60218 159.342 5.22064 159.061 4.93934C158.779 4.65804 158.398 4.5 158 4.5ZM147.5 21.5V10.5H156.5V21.5H147.5ZM175.5 10V22C175.5 22.663 175.237 23.2989 174.768 23.7678C174.299 24.2366 173.663 24.5 173 24.5H163C162.602 24.5 162.221 24.342 161.939 24.0607C161.658 23.7794 161.5 23.3978 161.5 23C161.5 22.6022 161.658 22.2206 161.939 21.9393C162.221 21.658 162.602 21.5 163 21.5H172.5V10.5H163C162.602 10.5 162.221 10.342 161.939 10.0607C161.658 9.77936 161.5 9.39782 161.5 9C161.5 8.60218 161.658 8.22064 161.939 7.93934C162.221 7.65804 162.602 7.5 163 7.5H173C173.663 7.5 174.299 7.76339 174.768 8.23223C175.237 8.70107 175.5 9.33696 175.5 10ZM155 14C155 14.3978 154.842 14.7794 154.561 15.0607C154.279 15.342 153.898 15.5 153.5 15.5V18C153.5 18.3978 153.342 18.7794 153.061 19.0607C152.779 19.342 152.398 19.5 152 19.5C151.602 19.5 151.221 19.342 150.939 19.0607C150.658 18.7794 150.5 18.3978 150.5 18V15.5C150.102 15.5 149.721 15.342 149.439 15.0607C149.158 14.7794 149 14.3978 149 14C149 13.6022 149.158 13.2206 149.439 12.9393C149.721 12.658 150.102 12.5 150.5 12.5H153.5C153.898 12.5 154.279 12.658 154.561 12.9393C154.842 13.2206 155 13.6022 155 14Z" fill="currentColor"/>
<path d="M223 10V22C223 22.5304 222.789 23.0391 222.414 23.4142C222.039 23.7893 221.53 24 221 24H210C209.735 24 209.48 23.8946 209.293 23.7071C209.105 23.5196 209 23.2652 209 23V9C209 8.73478 209.105 8.48043 209.293 8.29289C209.48 8.10536 209.735 8 210 8H221C221.53 8 222.039 8.21071 222.414 8.58579C222.789 8.96086 223 9.46957 223 10ZM207 6V26C207 26.2652 206.895 26.5196 206.707 26.7071C206.52 26.8946 206.265 27 206 27C205.735 27 205.48 26.8946 205.293 26.7071C205.105 26.5196 205 26.2652 205 26V24H195C194.47 24 193.961 23.7893 193.586 23.4142C193.211 23.0391 193 22.5304 193 22V10C193 9.46957 193.211 8.96086 193.586 8.58579C193.961 8.21071 194.47 8 195 8H205V6C205 5.73478 205.105 5.48043 205.293 5.29289C205.48 5.10536 205.735 5 206 5C206.265 5 206.52 5.10536 206.707 5.29289C206.895 5.48043 207 5.73478 207 6ZM203 14C203 13.7348 202.895 13.4804 202.707 13.2929C202.52 13.1054 202.265 13 202 13H198C197.735 13 197.48 13.1054 197.293 13.2929C197.105 13.4804 197 13.7348 197 14C197 14.2652 197.105 14.5196 197.293 14.7071C197.48 14.8946 197.735 15 198 15H199V18C199 18.2652 199.105 18.5196 199.293 18.7071C199.48 18.8946 199.735 19 200 19C200.265 19 200.52 18.8946 200.707 18.7071C200.895 18.5196 201 18.2652 201 18V15H202C202.265 15 202.52 14.8946 202.707 14.7071C202.895 14.5196 203 14.2652 203 14Z" fill="currentColor"/>
<path opacity="0.2" d="M270 10V22C270 22.2652 269.895 22.5196 269.707 22.7071C269.52 22.8946 269.265 23 269 23H243C242.735 23 242.48 22.8946 242.293 22.7071C242.105 22.5196 242 22.2652 242 22V10C242 9.73478 242.105 9.48043 242.293 9.29289C242.48 9.10536 242.735 9 243 9H269C269.265 9 269.52 9.10536 269.707 9.29289C269.895 9.48043 270 9.73478 270 10Z" fill="currentColor"/>
<path d="M254 5C253.735 5 253.48 5.10536 253.293 5.29289C253.105 5.48043 253 5.73478 253 6V8H243C242.47 8 241.961 8.21071 241.586 8.58579C241.211 8.96086 241 9.46957 241 10V22C241 22.5304 241.211 23.0391 241.586 23.4142C241.961 23.7893 242.47 24 243 24H253V26C253 26.2652 253.105 26.5196 253.293 26.7071C253.48 26.8946 253.735 27 254 27C254.265 27 254.52 26.8946 254.707 26.7071C254.895 26.5196 255 26.2652 255 26V6C255 5.73478 254.895 5.48043 254.707 5.29289C254.52 5.10536 254.265 5 254 5ZM243 22V10H253V22H243ZM271 10V22C271 22.5304 270.789 23.0391 270.414 23.4142C270.039 23.7893 269.53 24 269 24H258C257.735 24 257.48 23.8946 257.293 23.7071C257.105 23.5196 257 23.2652 257 23C257 22.7348 257.105 22.4804 257.293 22.2929C257.48 22.1054 257.735 22 258 22H269V10H258C257.735 10 257.48 9.89464 257.293 9.70711C257.105 9.51957 257 9.26522 257 9C257 8.73478 257.105 8.48043 257.293 8.29289C257.48 8.10536 257.735 8 258 8H269C269.53 8 270.039 8.21071 270.414 8.58579C270.789 8.96086 271 9.46957 271 10ZM251 14C251 14.2652 250.895 14.5196 250.707 14.7071C250.52 14.8946 250.265 15 250 15H249V18C249 18.2652 248.895 18.5196 248.707 18.7071C248.52 18.8946 248.265 19 248 19C247.735 19 247.48 18.8946 247.293 18.7071C247.105 18.5196 247 18.2652 247 18V15H246C245.735 15 245.48 14.8946 245.293 14.7071C245.105 14.5196 245 14.2652 245 14C245 13.7348 245.105 13.4804 245.293 13.2929C245.48 13.1054 245.735 13 246 13H250C250.265 13 250.52 13.1054 250.707 13.2929C250.895 13.4804 251 13.7348 251 14Z" fill="currentColor"/>
</g>
<defs>
<clipPath id="clip0_17_8874">
<rect width="272" height="32" rx="5" fill="white"/>
</clipPath>
</defs>
</svg>
