<svg width="272" height="32" viewBox="0 0 272 32" fill="none" xmlns="http://www.w3.org/2000/svg">
<g clip-path="url(#clip0_17_8930)">
<path d="M28.0001 16.0001C28.0001 16.2653 27.8947 16.5196 27.7072 16.7072C27.5196 16.8947 27.2653 17.0001 27.0001 17.0001H14.0001C13.7348 17.0001 13.4805 16.8947 13.2929 16.7072C13.1054 16.5196 13.0001 16.2653 13.0001 16.0001C13.0001 15.7349 13.1054 15.4805 13.2929 15.293C13.4805 15.1054 13.7348 15.0001 14.0001 15.0001H27.0001C27.2653 15.0001 27.5196 15.1054 27.7072 15.293C27.8947 15.4805 28.0001 15.7349 28.0001 16.0001ZM14.0001 9.00007H27.0001C27.2653 9.00007 27.5196 8.89471 27.7072 8.70717C27.8947 8.51964 28.0001 8.26528 28.0001 8.00007C28.0001 7.73485 27.8947 7.4805 27.7072 7.29296C27.5196 7.10542 27.2653 7.00007 27.0001 7.00007H14.0001C13.7348 7.00007 13.4805 7.10542 13.2929 7.29296C13.1054 7.4805 13.0001 7.73485 13.0001 8.00007C13.0001 8.26528 13.1054 8.51964 13.2929 8.70717C13.4805 8.89471 13.7348 9.00007 14.0001 9.00007ZM27.0001 23.0001H5.00005C4.73484 23.0001 4.48048 23.1054 4.29295 23.293C4.10541 23.4805 4.00005 23.7349 4.00005 24.0001C4.00005 24.2653 4.10541 24.5196 4.29295 24.7072C4.48048 24.8947 4.73484 25.0001 5.00005 25.0001H27.0001C27.2653 25.0001 27.5196 24.8947 27.7072 24.7072C27.8947 24.5196 28.0001 24.2653 28.0001 24.0001C28.0001 23.7349 27.8947 23.4805 27.7072 23.293C27.5196 23.1054 27.2653 23.0001 27.0001 23.0001ZM9.00005 18.0001C9.19795 18.0002 9.39144 17.9417 9.55604 17.8318C9.72063 17.7219 9.84892 17.5657 9.92468 17.3829C10.0004 17.2 10.0202 16.9988 9.98158 16.8048C9.94293 16.6107 9.84757 16.4324 9.70755 16.2926L5.4138 12.0001L9.70755 7.70757C9.8952 7.51993 10.0006 7.26543 10.0006 7.00007C10.0006 6.7347 9.8952 6.48021 9.70755 6.29257C9.51991 6.10493 9.26542 5.99951 9.00005 5.99951C8.73469 5.99951 8.48019 6.10493 8.29255 6.29257L3.29255 11.2926C3.19958 11.3854 3.12582 11.4957 3.07549 11.6171C3.02517 11.7385 2.99927 11.8687 2.99927 12.0001C2.99927 12.1315 3.02517 12.2616 3.07549 12.383C3.12582 12.5044 3.19958 12.6147 3.29255 12.7076L8.29255 17.7076C8.38549 17.8004 8.49581 17.874 8.6172 17.9242C8.7386 17.9744 8.86869 18.0002 9.00005 18.0001Z" fill="currentColor"/>
<path d="M75.4999 15.9998C75.4999 16.1324 75.4472 16.2596 75.3535 16.3533C75.2597 16.4471 75.1325 16.4998 74.9999 16.4998H61.9999C61.8673 16.4998 61.7401 16.4471 61.6464 16.3533C61.5526 16.2596 61.4999 16.1324 61.4999 15.9998C61.4999 15.8672 61.5526 15.74 61.6464 15.6462C61.7401 15.5525 61.8673 15.4998 61.9999 15.4998H74.9999C75.1325 15.4998 75.2597 15.5525 75.3535 15.6462C75.4472 15.74 75.4999 15.8672 75.4999 15.9998ZM61.9999 8.49979H74.9999C75.1325 8.49979 75.2597 8.44711 75.3535 8.35334C75.4472 8.25958 75.4999 8.1324 75.4999 7.99979C75.4999 7.86718 75.4472 7.74 75.3535 7.64624C75.2597 7.55247 75.1325 7.49979 74.9999 7.49979H61.9999C61.8673 7.49979 61.7401 7.55247 61.6464 7.64624C61.5526 7.74 61.4999 7.86718 61.4999 7.99979C61.4999 8.1324 61.5526 8.25958 61.6464 8.35334C61.7401 8.44711 61.8673 8.49979 61.9999 8.49979ZM74.9999 23.4998H52.9999C52.8673 23.4998 52.7401 23.5525 52.6464 23.6462C52.5526 23.74 52.4999 23.8672 52.4999 23.9998C52.4999 24.1324 52.5526 24.2596 52.6464 24.3533C52.7401 24.4471 52.8673 24.4998 52.9999 24.4998H74.9999C75.1325 24.4998 75.2597 24.4471 75.3535 24.3533C75.4472 24.2596 75.4999 24.1324 75.4999 23.9998C75.4999 23.8672 75.4472 23.74 75.3535 23.6462C75.2597 23.5525 75.1325 23.4998 74.9999 23.4998ZM56.9999 17.4998C57.0989 17.4999 57.1956 17.4706 57.2779 17.4157C57.3602 17.3607 57.4243 17.2826 57.4622 17.1912C57.5001 17.0998 57.51 16.9992 57.4907 16.9021C57.4713 16.8051 57.4237 16.716 57.3537 16.646L52.7074 11.9998L57.3537 7.35354C57.4001 7.30708 57.437 7.25193 57.4621 7.19124C57.4872 7.13054 57.5002 7.06549 57.5002 6.99979C57.5002 6.93409 57.4872 6.86904 57.4621 6.80834C57.437 6.74764 57.4001 6.69249 57.3537 6.64604C57.3072 6.59958 57.252 6.56273 57.1914 6.53759C57.1307 6.51245 57.0656 6.49951 56.9999 6.49951C56.9342 6.49951 56.8692 6.51245 56.8085 6.53759C56.7478 6.56273 56.6926 6.59958 56.6462 6.64604L51.6462 11.646C51.5997 11.6925 51.5628 11.7476 51.5376 11.8083C51.5125 11.869 51.4995 11.9341 51.4995 11.9998C51.4995 12.0655 51.5125 12.1306 51.5376 12.1913C51.5628 12.252 51.5997 12.3071 51.6462 12.3535L56.6462 17.3535C56.6926 17.4 56.7478 17.4368 56.8085 17.4619C56.8692 17.487 56.9342 17.4998 56.9999 17.4998Z" fill="currentColor"/>
<path d="M123.75 15.9998C123.75 16.1988 123.671 16.3895 123.53 16.5302C123.39 16.6708 123.199 16.7498 123 16.7498H110C109.801 16.7498 109.61 16.6708 109.47 16.5302C109.329 16.3895 109.25 16.1988 109.25 15.9998C109.25 15.8009 109.329 15.6102 109.47 15.4695C109.61 15.3289 109.801 15.2498 110 15.2498H123C123.199 15.2498 123.39 15.3289 123.53 15.4695C123.671 15.6102 123.75 15.8009 123.75 15.9998ZM110 8.74985H123C123.199 8.74985 123.39 8.67083 123.53 8.53018C123.671 8.38952 123.75 8.19876 123.75 7.99985C123.75 7.80093 123.671 7.61017 123.53 7.46952C123.39 7.32886 123.199 7.24985 123 7.24985H110C109.801 7.24985 109.61 7.32886 109.47 7.46952C109.329 7.61017 109.25 7.80093 109.25 7.99985C109.25 8.19876 109.329 8.38952 109.47 8.53018C109.61 8.67083 109.801 8.74985 110 8.74985ZM123 23.2498H101C100.801 23.2498 100.61 23.3289 100.47 23.4695C100.329 23.6102 100.25 23.8009 100.25 23.9998C100.25 24.1988 100.329 24.3895 100.47 24.5302C100.61 24.6708 100.801 24.7498 101 24.7498H123C123.199 24.7498 123.39 24.6708 123.53 24.5302C123.671 24.3895 123.75 24.1988 123.75 23.9998C123.75 23.8009 123.671 23.6102 123.53 23.4695C123.39 23.3289 123.199 23.2498 123 23.2498ZM105 17.7498C105.148 17.7497 105.293 17.7057 105.416 17.6232C105.54 17.5408 105.636 17.4237 105.692 17.2868C105.749 17.1498 105.764 16.9991 105.735 16.8537C105.706 16.7083 105.635 16.5747 105.53 16.4698L101.061 11.9998L105.53 7.52985C105.663 7.38767 105.735 7.19963 105.731 7.00532C105.728 6.81102 105.649 6.62564 105.512 6.48822C105.374 6.35081 105.189 6.2721 104.995 6.26867C104.8 6.26524 104.612 6.33737 104.47 6.46985L99.4701 11.4698C99.3296 11.6105 99.2507 11.8011 99.2507 11.9998C99.2507 12.1986 99.3296 12.3892 99.4701 12.5298L104.47 17.5298C104.611 17.6705 104.801 17.7497 105 17.7498Z" fill="currentColor"/>
<path d="M172.5 16.0002C172.5 16.398 172.342 16.7796 172.061 17.0609C171.779 17.3422 171.398 17.5002 171 17.5002H159C158.602 17.5002 158.221 17.3422 157.939 17.0609C157.658 16.7796 157.5 16.398 157.5 16.0002C157.5 15.6024 157.658 15.2209 157.939 14.9396C158.221 14.6583 158.602 14.5002 159 14.5002H171C171.398 14.5002 171.779 14.6583 172.061 14.9396C172.342 15.2209 172.5 15.6024 172.5 16.0002ZM159 9.50022H171C171.398 9.50022 171.779 9.34218 172.061 9.06088C172.342 8.77957 172.5 8.39804 172.5 8.00022C172.5 7.60239 172.342 7.22086 172.061 6.93956C171.779 6.65825 171.398 6.50022 171 6.50022H159C158.602 6.50022 158.221 6.65825 157.939 6.93956C157.658 7.22086 157.5 7.60239 157.5 8.00022C157.5 8.39804 157.658 8.77957 157.939 9.06088C158.221 9.34218 158.602 9.50022 159 9.50022ZM171 22.5002H149C148.602 22.5002 148.221 22.6583 147.939 22.9396C147.658 23.2209 147.5 23.6024 147.5 24.0002C147.5 24.398 147.658 24.7796 147.939 25.0609C148.221 25.3422 148.602 25.5002 149 25.5002H171C171.398 25.5002 171.779 25.3422 172.061 25.0609C172.342 24.7796 172.5 24.398 172.5 24.0002C172.5 23.6024 172.342 23.2209 172.061 22.9396C171.779 22.6583 171.398 22.5002 171 22.5002ZM153 18.5002C153.297 18.5005 153.587 18.4126 153.834 18.2478C154.081 18.083 154.273 17.8486 154.387 17.5744C154.501 17.3002 154.53 16.9984 154.472 16.7073C154.414 16.4161 154.271 16.1488 154.061 15.939L150.125 12.0002L154.061 8.06022C154.201 7.92069 154.312 7.75504 154.387 7.57274C154.463 7.39044 154.501 7.19504 154.501 6.99772C154.501 6.80039 154.463 6.605 154.387 6.4227C154.312 6.24039 154.201 6.07475 154.061 5.93522C153.922 5.79569 153.756 5.68501 153.574 5.6095C153.392 5.53398 153.196 5.49512 152.999 5.49512C152.801 5.49512 152.606 5.53398 152.424 5.6095C152.241 5.68501 152.076 5.79569 151.936 5.93522L146.936 10.9352C146.796 11.0746 146.686 11.2402 146.61 11.4225C146.534 11.6048 146.495 11.8003 146.495 11.9977C146.495 12.1951 146.534 12.3906 146.61 12.5729C146.686 12.7553 146.796 12.9209 146.936 13.0602L151.936 18.0602C152.076 18.2 152.242 18.3108 152.424 18.3863C152.607 18.4618 152.803 18.5005 153 18.5002Z" fill="currentColor"/>
<path d="M220 15.9998C220 16.265 219.895 16.5194 219.707 16.7069C219.52 16.8945 219.265 16.9998 219 16.9998H206C205.735 16.9998 205.48 16.8945 205.293 16.7069C205.105 16.5194 205 16.265 205 15.9998C205 15.7346 205.105 15.4802 205.293 15.2927C205.48 15.1052 205.735 14.9998 206 14.9998H219C219.265 14.9998 219.52 15.1052 219.707 15.2927C219.895 15.4802 220 15.7346 220 15.9998ZM206 8.99981H219C219.265 8.99981 219.52 8.89445 219.707 8.70692C219.895 8.51938 220 8.26503 220 7.99981C220 7.73459 219.895 7.48024 219.707 7.2927C219.52 7.10517 219.265 6.99981 219 6.99981H206C205.735 6.99981 205.48 7.10517 205.293 7.2927C205.105 7.48024 205 7.73459 205 7.99981C205 8.26503 205.105 8.51938 205.293 8.70692C205.48 8.89445 205.735 8.99981 206 8.99981ZM219 22.9998H197C196.735 22.9998 196.48 23.1052 196.293 23.2927C196.105 23.4802 196 23.7346 196 23.9998C196 24.265 196.105 24.5194 196.293 24.7069C196.48 24.8945 196.735 24.9998 197 24.9998H219C219.265 24.9998 219.52 24.8945 219.707 24.7069C219.895 24.5194 220 24.265 220 23.9998C220 23.7346 219.895 23.4802 219.707 23.2927C219.52 23.1052 219.265 22.9998 219 22.9998ZM201 17.9998C201.265 17.9998 201.52 17.8945 201.707 17.7069C201.895 17.5194 202 17.265 202 16.9998V6.99981C202 6.80192 201.942 6.60842 201.832 6.44383C201.722 6.27923 201.566 6.15094 201.383 6.07519C201.2 5.99944 200.999 5.97963 200.805 6.01828C200.611 6.05693 200.432 6.1523 200.293 6.29231L195.293 11.2923C195.2 11.3852 195.126 11.4955 195.075 11.6169C195.025 11.7383 194.999 11.8684 194.999 11.9998C194.999 12.1312 195.025 12.2614 195.075 12.3828C195.126 12.5041 195.2 12.6144 195.293 12.7073L200.293 17.7073C200.385 17.8001 200.496 17.8738 200.617 17.9239C200.739 17.9741 200.869 17.9999 201 17.9998Z" fill="currentColor"/>
<path opacity="0.2" d="M249 7V17L244 12L249 7Z" fill="currentColor"/>
<path d="M268 15.9998C268 16.265 267.895 16.5194 267.707 16.7069C267.52 16.8945 267.265 16.9998 267 16.9998H254C253.735 16.9998 253.48 16.8945 253.293 16.7069C253.105 16.5194 253 16.265 253 15.9998C253 15.7346 253.105 15.4802 253.293 15.2927C253.48 15.1052 253.735 14.9998 254 14.9998H267C267.265 14.9998 267.52 15.1052 267.707 15.2927C267.895 15.4802 268 15.7346 268 15.9998ZM254 8.99981H267C267.265 8.99981 267.52 8.89445 267.707 8.70692C267.895 8.51938 268 8.26503 268 7.99981C268 7.73459 267.895 7.48024 267.707 7.2927C267.52 7.10517 267.265 6.99981 267 6.99981H254C253.735 6.99981 253.48 7.10517 253.293 7.2927C253.105 7.48024 253 7.73459 253 7.99981C253 8.26503 253.105 8.51938 253.293 8.70692C253.48 8.89445 253.735 8.99981 254 8.99981ZM267 22.9998H245C244.735 22.9998 244.48 23.1052 244.293 23.2927C244.105 23.4802 244 23.7346 244 23.9998C244 24.265 244.105 24.5194 244.293 24.7069C244.48 24.8945 244.735 24.9998 245 24.9998H267C267.265 24.9998 267.52 24.8945 267.707 24.7069C267.895 24.5194 268 24.265 268 23.9998C268 23.7346 267.895 23.4802 267.707 23.2927C267.52 23.1052 267.265 22.9998 267 22.9998ZM248.293 17.7073L243.293 12.7073C243.2 12.6144 243.126 12.5041 243.075 12.3828C243.025 12.2614 242.999 12.1312 242.999 11.9998C242.999 11.8684 243.025 11.7383 243.075 11.6169C243.126 11.4955 243.2 11.3852 243.293 11.2923L248.293 6.29231C248.432 6.1523 248.611 6.05693 248.805 6.01828C248.999 5.97963 249.2 5.99944 249.383 6.07519C249.566 6.15094 249.722 6.27923 249.832 6.44383C249.942 6.60842 250 6.80192 250 6.99981V16.9998C250 17.1977 249.942 17.3912 249.832 17.5558C249.722 17.7204 249.566 17.8487 249.383 17.9244C249.2 18.0002 248.999 18.02 248.805 17.9813C248.611 17.9427 248.432 17.8473 248.293 17.7073ZM248 9.41356L245.414 11.9998L248 14.5861V9.41356Z" fill="currentColor"/>
</g>
<defs>
<clipPath id="clip0_17_8930">
<rect width="272" height="32" rx="5" fill="white"/>
</clipPath>
</defs>
</svg>
