<svg width="272" height="32" viewBox="0 0 272 32" fill="none" xmlns="http://www.w3.org/2000/svg">
<g clip-path="url(#clip0_17_8888)">
<path d="M25 28C25 28.2652 24.8946 28.5196 24.7071 28.7071C24.5196 28.8946 24.2652 29 24 29H8C7.73478 29 7.48043 28.8946 7.29289 28.7071C7.10536 28.5196 7 28.2652 7 28C7 27.7348 7.10536 27.4804 7.29289 27.2929C7.48043 27.1054 7.73478 27 8 27H24C24.2652 27 24.5196 27.1054 24.7071 27.2929C24.8946 27.4804 25 27.7348 25 28ZM16 25C18.121 24.9977 20.1545 24.1541 21.6543 22.6543C23.1541 21.1545 23.9977 19.121 24 17V7C24 6.73478 23.8946 6.48043 23.7071 6.29289C23.5196 6.10536 23.2652 6 23 6C22.7348 6 22.4804 6.10536 22.2929 6.29289C22.1054 6.48043 22 6.73478 22 7V17C22 18.5913 21.3679 20.1174 20.2426 21.2426C19.1174 22.3679 17.5913 23 16 23C14.4087 23 12.8826 22.3679 11.7574 21.2426C10.6321 20.1174 10 18.5913 10 17V7C10 6.73478 9.89464 6.48043 9.70711 6.29289C9.51957 6.10536 9.26522 6 9 6C8.73478 6 8.48043 6.10536 8.29289 6.29289C8.10536 6.48043 8 6.73478 8 7V17C8.00232 19.121 8.84591 21.1545 10.3457 22.6543C11.8455 24.1541 13.879 24.9977 16 25Z" fill="currentColor"/>
<path d="M72.5 28C72.5 28.1326 72.4473 28.2598 72.3536 28.3536C72.2598 28.4473 72.1326 28.5 72 28.5H56C55.8674 28.5 55.7402 28.4473 55.6464 28.3536C55.5527 28.2598 55.5 28.1326 55.5 28C55.5 27.8674 55.5527 27.7402 55.6464 27.6464C55.7402 27.5527 55.8674 27.5 56 27.5H72C72.1326 27.5 72.2598 27.5527 72.3536 27.6464C72.4473 27.7402 72.5 27.8674 72.5 28ZM64 24.5C65.9884 24.4977 67.8947 23.7068 69.3007 22.3007C70.7068 20.8947 71.4977 18.9884 71.5 17V7C71.5 6.86739 71.4473 6.74021 71.3536 6.64645C71.2598 6.55268 71.1326 6.5 71 6.5C70.8674 6.5 70.7402 6.55268 70.6464 6.64645C70.5527 6.74021 70.5 6.86739 70.5 7V17C70.5 18.7239 69.8152 20.3772 68.5962 21.5962C67.3772 22.8152 65.7239 23.5 64 23.5C62.2761 23.5 60.6228 22.8152 59.4038 21.5962C58.1848 20.3772 57.5 18.7239 57.5 17V7C57.5 6.86739 57.4473 6.74021 57.3536 6.64645C57.2598 6.55268 57.1326 6.5 57 6.5C56.8674 6.5 56.7402 6.55268 56.6464 6.64645C56.5527 6.74021 56.5 6.86739 56.5 7V17C56.5023 18.9884 57.2932 20.8947 58.6993 22.3007C60.1053 23.7068 62.0116 24.4977 64 24.5Z" fill="currentColor"/>
<path d="M120.75 28C120.75 28.1989 120.671 28.3897 120.53 28.5303C120.39 28.671 120.199 28.75 120 28.75H104C103.801 28.75 103.61 28.671 103.47 28.5303C103.329 28.3897 103.25 28.1989 103.25 28C103.25 27.8011 103.329 27.6103 103.47 27.4697C103.61 27.329 103.801 27.25 104 27.25H120C120.199 27.25 120.39 27.329 120.53 27.4697C120.671 27.6103 120.75 27.8011 120.75 28ZM112 24.75C114.055 24.7477 116.025 23.9304 117.478 22.4775C118.93 21.0246 119.748 19.0547 119.75 17V7C119.75 6.80109 119.671 6.61032 119.53 6.46967C119.39 6.32902 119.199 6.25 119 6.25C118.801 6.25 118.61 6.32902 118.47 6.46967C118.329 6.61032 118.25 6.80109 118.25 7V17C118.25 18.6576 117.592 20.2473 116.419 21.4194C115.247 22.5915 113.658 23.25 112 23.25C110.342 23.25 108.753 22.5915 107.581 21.4194C106.408 20.2473 105.75 18.6576 105.75 17V7C105.75 6.80109 105.671 6.61032 105.53 6.46967C105.39 6.32902 105.199 6.25 105 6.25C104.801 6.25 104.61 6.32902 104.47 6.46967C104.329 6.61032 104.25 6.80109 104.25 7V17C104.252 19.0547 105.07 21.0246 106.522 22.4775C107.975 23.9304 109.945 24.7477 112 24.75Z" fill="currentColor"/>
<path d="M169.5 28C169.5 28.3978 169.342 28.7794 169.061 29.0607C168.779 29.342 168.398 29.5 168 29.5H152C151.602 29.5 151.221 29.342 150.939 29.0607C150.658 28.7794 150.5 28.3978 150.5 28C150.5 27.6022 150.658 27.2206 150.939 26.9393C151.221 26.658 151.602 26.5 152 26.5H168C168.398 26.5 168.779 26.658 169.061 26.9393C169.342 27.2206 169.5 27.6022 169.5 28ZM160 24.5C162.254 24.4977 164.414 23.6014 166.008 22.0078C167.601 20.4143 168.498 18.2536 168.5 16V7C168.5 6.60218 168.342 6.22064 168.061 5.93934C167.779 5.65804 167.398 5.5 167 5.5C166.602 5.5 166.221 5.65804 165.939 5.93934C165.658 6.22064 165.5 6.60218 165.5 7V16C165.5 17.4587 164.921 18.8576 163.889 19.8891C162.858 20.9205 161.459 21.5 160 21.5C158.541 21.5 157.142 20.9205 156.111 19.8891C155.079 18.8576 154.5 17.4587 154.5 16V7C154.5 6.60218 154.342 6.22064 154.061 5.93934C153.779 5.65804 153.398 5.5 153 5.5C152.602 5.5 152.221 5.65804 151.939 5.93934C151.658 6.22064 151.5 6.60218 151.5 7V16C151.502 18.2536 152.399 20.4143 153.992 22.0078C155.586 23.6014 157.746 24.4977 160 24.5Z" fill="currentColor"/>
<path d="M218 4H198C197.47 4 196.961 4.21071 196.586 4.58579C196.211 4.96086 196 5.46957 196 6V26C196 26.5304 196.211 27.0391 196.586 27.4142C196.961 27.7893 197.47 28 198 28H218C218.53 28 219.039 27.7893 219.414 27.4142C219.789 27.0391 220 26.5304 220 26V6C220 5.46957 219.789 4.96086 219.414 4.58579C219.039 4.21071 218.53 4 218 4ZM202 9C202 8.73478 202.105 8.48043 202.293 8.29289C202.48 8.10536 202.735 8 203 8C203.265 8 203.52 8.10536 203.707 8.29289C203.895 8.48043 204 8.73478 204 9V15C204 16.0609 204.421 17.0783 205.172 17.8284C205.922 18.5786 206.939 19 208 19C209.061 19 210.078 18.5786 210.828 17.8284C211.579 17.0783 212 16.0609 212 15V9C212 8.73478 212.105 8.48043 212.293 8.29289C212.48 8.10536 212.735 8 213 8C213.265 8 213.52 8.10536 213.707 8.29289C213.895 8.48043 214 8.73478 214 9V15C214 16.5913 213.368 18.1174 212.243 19.2426C211.117 20.3679 209.591 21 208 21C206.409 21 204.883 20.3679 203.757 19.2426C202.632 18.1174 202 16.5913 202 15V9ZM214 25H202C201.735 25 201.48 24.8946 201.293 24.7071C201.105 24.5196 201 24.2652 201 24C201 23.7348 201.105 23.4804 201.293 23.2929C201.48 23.1054 201.735 23 202 23H214C214.265 23 214.52 23.1054 214.707 23.2929C214.895 23.4804 215 23.7348 215 24C215 24.2652 214.895 24.5196 214.707 24.7071C214.52 24.8946 214.265 25 214 25Z" fill="currentColor"/>
<path opacity="0.2" d="M263 7V17C263 18.8565 262.263 20.637 260.95 21.9497C259.637 23.2625 257.857 24 256 24C254.143 24 252.363 23.2625 251.05 21.9497C249.737 20.637 249 18.8565 249 17V7H263Z" fill="currentColor"/>
<path d="M265 28C265 28.2652 264.895 28.5196 264.707 28.7071C264.52 28.8946 264.265 29 264 29H248C247.735 29 247.48 28.8946 247.293 28.7071C247.105 28.5196 247 28.2652 247 28C247 27.7348 247.105 27.4804 247.293 27.2929C247.48 27.1054 247.735 27 248 27H264C264.265 27 264.52 27.1054 264.707 27.2929C264.895 27.4804 265 27.7348 265 28ZM256 25C258.121 24.9977 260.155 24.1541 261.654 22.6543C263.154 21.1545 263.998 19.121 264 17V7C264 6.73478 263.895 6.48043 263.707 6.29289C263.52 6.10536 263.265 6 263 6C262.735 6 262.48 6.10536 262.293 6.29289C262.105 6.48043 262 6.73478 262 7V17C262 18.5913 261.368 20.1174 260.243 21.2426C259.117 22.3679 257.591 23 256 23C254.409 23 252.883 22.3679 251.757 21.2426C250.632 20.1174 250 18.5913 250 17V7C250 6.73478 249.895 6.48043 249.707 6.29289C249.52 6.10536 249.265 6 249 6C248.735 6 248.48 6.10536 248.293 6.29289C248.105 6.48043 248 6.73478 248 7V17C248.002 19.121 248.846 21.1545 250.346 22.6543C251.845 24.1541 253.879 24.9977 256 25Z" fill="currentColor"/>
</g>
<defs>
<clipPath id="clip0_17_8888">
<rect width="272" height="32" rx="5" fill="white"/>
</clipPath>
</defs>
</svg>
