<svg width="272" height="32" viewBox="0 0 272 32" fill="none" xmlns="http://www.w3.org/2000/svg">
<g clip-path="url(#clip0_17_8916)">
<path d="M28 16C28 16.2652 27.8946 16.5196 27.7071 16.7071C27.5196 16.8946 27.2652 17 27 17H21.9912C23.14 17.8888 24 19.15 24 21C24 22.6675 23.125 24.2125 21.5312 25.3487C20.0413 26.4137 18.0763 27 16 27C13.9237 27 11.9587 26.4137 10.4688 25.3487C8.875 24.2125 8 22.6675 8 21C8 20.7348 8.10536 20.4804 8.29289 20.2929C8.48043 20.1054 8.73478 20 9 20C9.26522 20 9.51957 20.1054 9.70711 20.2929C9.89464 20.4804 10 20.7348 10 21C10 23.1688 12.75 25 16 25C19.25 25 22 23.1688 22 21C22 19.1438 20.6825 18.0525 17.1537 17H5C4.73478 17 4.48043 16.8946 4.29289 16.7071C4.10536 16.5196 4 16.2652 4 16C4 15.7348 4.10536 15.4804 4.29289 15.2929C4.48043 15.1054 4.73478 15 5 15H27C27.2652 15 27.5196 15.1054 27.7071 15.2929C27.8946 15.4804 28 15.7348 28 16ZM9.54125 13C9.69934 13.0001 9.85521 12.9628 9.99607 12.8911C10.1369 12.8193 10.2588 12.7152 10.3516 12.5872C10.4444 12.4592 10.5056 12.3111 10.5301 12.1549C10.5546 11.9987 10.5417 11.839 10.4925 11.6888C10.4209 11.4663 10.3859 11.2337 10.3888 11C10.3888 8.72 12.8013 7 16 7C18.355 7 20.27 7.9275 21.125 9.48125C21.2601 9.69884 21.4735 9.85631 21.7212 9.92121C21.9689 9.98611 22.2321 9.95349 22.4565 9.83007C22.6809 9.70665 22.8494 9.50184 22.9273 9.25786C23.0051 9.01389 22.9864 8.74934 22.875 8.51875C21.6663 6.315 19.0963 5 16 5C11.6613 5 8.38875 7.57875 8.38875 11C8.38662 11.445 8.45497 11.8876 8.59125 12.3112C8.65684 12.5115 8.78401 12.6859 8.95461 12.8096C9.12521 12.9333 9.33053 12.9999 9.54125 13Z" fill="currentColor"/>
<path d="M75.5 16C75.5 16.1326 75.4473 16.2598 75.3536 16.3536C75.2598 16.4473 75.1326 16.5 75 16.5H68.145C70.0763 17.405 71.5 18.725 71.5 21C71.5 24.0325 68.135 26.5 64 26.5C59.865 26.5 56.5 24.0325 56.5 21C56.5 20.8674 56.5527 20.7402 56.6464 20.6464C56.7402 20.5527 56.8674 20.5 57 20.5C57.1326 20.5 57.2598 20.5527 57.3536 20.6464C57.4473 20.7402 57.5 20.8674 57.5 21C57.5 23.4813 60.4163 25.5 64 25.5C67.5837 25.5 70.5 23.4813 70.5 21C70.5 18.5575 68.4838 17.4625 65.2275 16.5H53C52.8674 16.5 52.7402 16.4473 52.6464 16.3536C52.5527 16.2598 52.5 16.1326 52.5 16C52.5 15.8674 52.5527 15.7402 52.6464 15.6464C52.7402 15.5527 52.8674 15.5 53 15.5H75C75.1326 15.5 75.2598 15.5527 75.3536 15.6464C75.4473 15.7402 75.5 15.8674 75.5 16ZM57.5413 12.5C57.5944 12.5003 57.6472 12.4919 57.6975 12.475C57.822 12.4335 57.9253 12.3447 57.9849 12.2278C58.0445 12.1109 58.0558 11.9752 58.0162 11.85C57.9308 11.577 57.8886 11.2923 57.8912 11.0063C57.8912 8.44125 60.5163 6.50625 64.0025 6.50625C66.5425 6.50625 68.6275 7.53125 69.5637 9.24625C69.6313 9.35504 69.738 9.43378 69.8619 9.46623C69.9857 9.49868 70.1173 9.48237 70.2295 9.42066C70.3417 9.35895 70.426 9.25655 70.4649 9.13456C70.5038 9.01257 70.4945 8.88029 70.4387 8.765C69.3175 6.71875 66.9113 5.5 64 5.5C59.9462 5.5 56.8888 7.865 56.8888 11C56.8866 11.3924 56.9465 11.7826 57.0662 12.1562C57.0992 12.2563 57.1628 12.3433 57.2481 12.4051C57.3334 12.4668 57.436 12.5 57.5413 12.5Z" fill="currentColor"/>
<path d="M123.75 16C123.75 16.1989 123.671 16.3897 123.53 16.5303C123.39 16.671 123.199 16.75 123 16.75H117.181C118.591 17.615 119.75 18.9225 119.75 21C119.75 24.17 116.274 26.75 112 26.75C107.726 26.75 104.25 24.17 104.25 21C104.25 20.8011 104.329 20.6103 104.47 20.4697C104.61 20.329 104.801 20.25 105 20.25C105.199 20.25 105.39 20.329 105.53 20.4697C105.671 20.6103 105.75 20.8011 105.75 21C105.75 23.3438 108.554 25.25 112 25.25C115.446 25.25 118.25 23.3438 118.25 21C118.25 18.7213 116.317 17.6763 113.191 16.75H101C100.801 16.75 100.61 16.671 100.47 16.5303C100.329 16.3897 100.25 16.1989 100.25 16C100.25 15.8011 100.329 15.6103 100.47 15.4697C100.61 15.329 100.801 15.25 101 15.25H123C123.199 15.25 123.39 15.329 123.53 15.4697C123.671 15.6103 123.75 15.8011 123.75 16ZM105.541 12.75C105.621 12.7497 105.7 12.737 105.776 12.7125C105.964 12.6495 106.12 12.5145 106.208 12.3372C106.297 12.1598 106.312 11.9546 106.25 11.7662C106.173 11.5183 106.135 11.2597 106.139 11C106.139 8.5775 108.659 6.75 112 6.75C114.448 6.75 116.445 7.72625 117.343 9.36125C117.438 9.53563 117.599 9.66481 117.791 9.72036C117.982 9.77592 118.187 9.75331 118.361 9.6575C118.536 9.56169 118.665 9.40053 118.72 9.20948C118.776 9.01843 118.753 8.81313 118.657 8.63875C117.493 6.51625 115 5.25 112 5.25C107.804 5.25 104.639 7.72125 104.639 11C104.636 11.4187 104.7 11.8352 104.829 12.2338C104.878 12.3839 104.973 12.5146 105.101 12.6073C105.229 12.7 105.383 12.75 105.541 12.75Z" fill="currentColor"/>
<path d="M172.5 16C172.5 16.3978 172.342 16.7794 172.061 17.0607C171.779 17.342 171.398 17.5 171 17.5H167.233C168.074 18.4696 168.525 19.7167 168.5 21C168.5 22.8062 167.524 24.54 165.821 25.7563C164.25 26.8813 162.18 27.5 160 27.5C157.82 27.5 155.75 26.8813 154.179 25.7563C152.476 24.54 151.5 22.8062 151.5 21C151.5 20.6022 151.658 20.2206 151.939 19.9393C152.221 19.658 152.602 19.5 153 19.5C153.398 19.5 153.779 19.658 154.061 19.9393C154.342 20.2206 154.5 20.6022 154.5 21C154.5 22.8975 157.019 24.5 160 24.5C162.981 24.5 165.5 22.8975 165.5 21C165.5 19.405 164.337 18.4775 161.081 17.5H149C148.602 17.5 148.221 17.342 147.939 17.0607C147.658 16.7794 147.5 16.3978 147.5 16C147.5 15.6022 147.658 15.2206 147.939 14.9393C148.221 14.658 148.602 14.5 149 14.5H171C171.398 14.5 171.779 14.658 172.061 14.9393C172.342 15.2206 172.5 15.6022 172.5 16ZM153.389 12.5C153.787 12.5 154.168 12.342 154.449 12.0607C154.731 11.7794 154.889 11.3978 154.889 11C154.889 9 157.086 7.5 160 7.5C162.17 7.5 163.921 8.33125 164.685 9.7225C164.887 10.0505 165.207 10.2882 165.58 10.3864C165.952 10.4846 166.348 10.4358 166.686 10.2501C167.023 10.0643 167.276 9.75588 167.392 9.38866C167.509 9.02144 167.479 8.62358 167.31 8.2775C166.016 5.9125 163.281 4.5 160 4.5C155.375 4.5 151.889 7.29375 151.889 11C151.889 11.3978 152.047 11.7794 152.328 12.0607C152.609 12.342 152.991 12.5 153.389 12.5Z" fill="currentColor"/>
<path d="M218 4H198C197.47 4 196.961 4.21071 196.586 4.58579C196.211 4.96086 196 5.46957 196 6V26C196 26.5304 196.211 27.0391 196.586 27.4142C196.961 27.7893 197.47 28 198 28H218C218.53 28 219.039 27.7893 219.414 27.4142C219.789 27.0391 220 26.5304 220 26V6C220 5.46957 219.789 4.96086 219.414 4.58579C219.039 4.21071 218.53 4 218 4ZM202.339 11.8225C202.75 9.57125 205.073 8 208 8C210.275 8 212.199 8.92625 213.147 10.4788C213.216 10.5909 213.262 10.7154 213.282 10.8451C213.302 10.9749 213.297 11.1074 213.266 11.2351C213.235 11.3628 213.179 11.4831 213.102 11.5893C213.025 11.6954 212.927 11.7853 212.815 11.8538C212.703 11.9222 212.578 11.9679 212.449 11.9882C212.319 12.0086 212.186 12.0031 212.059 11.9723C211.931 11.9414 211.811 11.8857 211.704 11.8083C211.598 11.7309 211.508 11.6334 211.44 11.5212C210.868 10.5825 209.549 10 208 10C206.087 10 204.534 10.9162 204.306 12.1775C204.265 12.4079 204.144 12.6165 203.964 12.7668C203.784 12.9171 203.558 12.9996 203.324 13C203.264 13.0001 203.204 12.9947 203.145 12.9838C202.884 12.9366 202.653 12.7878 202.501 12.57C202.35 12.3523 202.292 12.0834 202.339 11.8225ZM216 17H213.036C213.671 17.6758 214.017 18.5729 214 19.5C214 22.0238 211.365 24 208 24C205.014 24 202.521 22.4025 202.071 20.2C202.041 20.0698 202.037 19.9348 202.059 19.803C202.082 19.6711 202.131 19.5452 202.203 19.4326C202.275 19.3199 202.369 19.2229 202.479 19.1473C202.589 19.0716 202.714 19.0188 202.845 18.9921C202.976 18.9653 203.111 18.9651 203.242 18.9915C203.373 19.0179 203.498 19.0703 203.608 19.1456C203.719 19.2209 203.813 19.3176 203.885 19.43C203.958 19.5425 204.007 19.6683 204.03 19.8C204.28 21.0337 206.03 22 208 22C210.169 22 212 20.855 212 19.5C212 18.3575 211.155 17.6962 208.785 17H200C199.735 17 199.48 16.8946 199.293 16.7071C199.105 16.5196 199 16.2652 199 16C199 15.7348 199.105 15.4804 199.293 15.2929C199.48 15.1054 199.735 15 200 15H216C216.265 15 216.52 15.1054 216.707 15.2929C216.895 15.4804 217 15.7348 217 16C217 16.2652 216.895 16.5196 216.707 16.7071C216.52 16.8946 216.265 17 216 17Z" fill="currentColor"/>
<path opacity="0.2" d="M262 9.00012L255.086 15.3814C252.086 14.5439 249.389 13.5989 249.389 11.0064C249.389 8.24512 252.139 6.00637 256 6.00637C258.9 6.00012 261.046 7.20512 262 9.00012ZM255.086 15.3814L249 21.0001C249 23.7614 252.134 26.0001 256 26.0001C259.866 26.0001 263 23.7614 263 21.0001C263 17.3039 258.815 16.4251 255.086 15.3814Z" fill="currentColor"/>
<path d="M268 16C268 16.2652 267.895 16.5196 267.707 16.7071C267.52 16.8946 267.265 17 267 17H261.991C263.14 17.8888 264 19.15 264 21C264 22.6675 263.125 24.2125 261.531 25.3487C260.041 26.4137 258.076 27 256 27C253.924 27 251.959 26.4137 250.469 25.3487C248.875 24.2125 248 22.6675 248 21C248 20.7348 248.105 20.4804 248.293 20.2929C248.48 20.1054 248.735 20 249 20C249.265 20 249.52 20.1054 249.707 20.2929C249.895 20.4804 250 20.7348 250 21C250 23.1688 252.75 25 256 25C259.25 25 262 23.1688 262 21C262 19.1438 260.682 18.0525 257.154 17H245C244.735 17 244.48 16.8946 244.293 16.7071C244.105 16.5196 244 16.2652 244 16C244 15.7348 244.105 15.4804 244.293 15.2929C244.48 15.1054 244.735 15 245 15H267C267.265 15 267.52 15.1054 267.707 15.2929C267.895 15.4804 268 15.7348 268 16ZM249.541 13C249.699 13.0001 249.855 12.9628 249.996 12.8911C250.137 12.8193 250.259 12.7152 250.352 12.5872C250.444 12.4592 250.506 12.3111 250.53 12.1549C250.555 11.9987 250.542 11.839 250.493 11.6888C250.421 11.4663 250.386 11.2337 250.389 11C250.389 8.72 252.801 7 256 7C258.355 7 260.27 7.9275 261.125 9.48125C261.26 9.69884 261.473 9.85631 261.721 9.92121C261.969 9.98611 262.232 9.95349 262.457 9.83007C262.681 9.70665 262.849 9.50184 262.927 9.25786C263.005 9.01389 262.986 8.74934 262.875 8.51875C261.666 6.315 259.096 5 256 5C251.661 5 248.389 7.57875 248.389 11C248.387 11.445 248.455 11.8876 248.591 12.3112C248.657 12.5115 248.784 12.6859 248.955 12.8096C249.125 12.9333 249.331 12.9999 249.541 13Z" fill="currentColor"/>
</g>
<defs>
<clipPath id="clip0_17_8916">
<rect width="272" height="32" rx="5" fill="white"/>
</clipPath>
</defs>
</svg>
