<svg width="272" height="32" viewBox="0 0 272 32" fill="none" xmlns="http://www.w3.org/2000/svg">
<g clip-path="url(#clip0_17_12414)">
<path d="M25 7H4C3.20435 7 2.44129 7.31607 1.87868 7.87868C1.31607 8.44129 1 9.20435 1 10V22C1 22.7956 1.31607 23.5587 1.87868 24.1213C2.44129 24.6839 3.20435 25 4 25H25C25.7956 25 26.5587 24.6839 27.1213 24.1213C27.6839 23.5587 28 22.7956 28 22V10C28 9.20435 27.6839 8.44129 27.1213 7.87868C26.5587 7.31607 25.7956 7 25 7ZM26 22C26 22.2652 25.8946 22.5196 25.7071 22.7071C25.5196 22.8946 25.2652 23 25 23H4C3.73478 23 3.48043 22.8946 3.29289 22.7071C3.10536 22.5196 3 22.2652 3 22V10C3 9.73478 3.10536 9.48043 3.29289 9.29289C3.48043 9.10536 3.73478 9 4 9H25C25.2652 9 25.5196 9.10536 25.7071 9.29289C25.8946 9.48043 26 9.73478 26 10V22ZM32 12V20C32 20.2652 31.8946 20.5196 31.7071 20.7071C31.5196 20.8946 31.2652 21 31 21C30.7348 21 30.4804 20.8946 30.2929 20.7071C30.1054 20.5196 30 20.2652 30 20V12C30 11.7348 30.1054 11.4804 30.2929 11.2929C30.4804 11.1054 30.7348 11 31 11C31.2652 11 31.5196 11.1054 31.7071 11.2929C31.8946 11.4804 32 11.7348 32 12Z" fill="currentColor"/>
<path d="M73 7.5H52C51.337 7.5 50.7011 7.76339 50.2322 8.23223C49.7634 8.70107 49.5 9.33696 49.5 10V22C49.5 22.663 49.7634 23.2989 50.2322 23.7678C50.7011 24.2366 51.337 24.5 52 24.5H73C73.663 24.5 74.2989 24.2366 74.7678 23.7678C75.2366 23.2989 75.5 22.663 75.5 22V10C75.5 9.33696 75.2366 8.70107 74.7678 8.23223C74.2989 7.76339 73.663 7.5 73 7.5ZM74.5 22C74.5 22.3978 74.342 22.7794 74.0607 23.0607C73.7794 23.342 73.3978 23.5 73 23.5H52C51.6022 23.5 51.2206 23.342 50.9393 23.0607C50.658 22.7794 50.5 22.3978 50.5 22V10C50.5 9.60218 50.658 9.22064 50.9393 8.93934C51.2206 8.65804 51.6022 8.5 52 8.5H73C73.3978 8.5 73.7794 8.65804 74.0607 8.93934C74.342 9.22064 74.5 9.60218 74.5 10V22ZM79.5 12V20C79.5 20.1326 79.4473 20.2598 79.3536 20.3536C79.2598 20.4473 79.1326 20.5 79 20.5C78.8674 20.5 78.7402 20.4473 78.6464 20.3536C78.5527 20.2598 78.5 20.1326 78.5 20V12C78.5 11.8674 78.5527 11.7402 78.6464 11.6464C78.7402 11.5527 78.8674 11.5 79 11.5C79.1326 11.5 79.2598 11.5527 79.3536 11.6464C79.4473 11.7402 79.5 11.8674 79.5 12Z" fill="currentColor"/>
<path d="M121 7.25H100C99.2707 7.25 98.5712 7.53973 98.0555 8.05546C97.5397 8.57118 97.25 9.27065 97.25 10V22C97.25 22.7293 97.5397 23.4288 98.0555 23.9445C98.5712 24.4603 99.2707 24.75 100 24.75H121C121.729 24.75 122.429 24.4603 122.945 23.9445C123.46 23.4288 123.75 22.7293 123.75 22V10C123.75 9.27065 123.46 8.57118 122.945 8.05546C122.429 7.53973 121.729 7.25 121 7.25ZM122.25 22C122.25 22.3315 122.118 22.6495 121.884 22.8839C121.649 23.1183 121.332 23.25 121 23.25H100C99.6685 23.25 99.3505 23.1183 99.1161 22.8839C98.8817 22.6495 98.75 22.3315 98.75 22V10C98.75 9.66848 98.8817 9.35054 99.1161 9.11612C99.3505 8.8817 99.6685 8.75 100 8.75H121C121.332 8.75 121.649 8.8817 121.884 9.11612C122.118 9.35054 122.25 9.66848 122.25 10V22ZM127.75 12V20C127.75 20.1989 127.671 20.3897 127.53 20.5303C127.39 20.671 127.199 20.75 127 20.75C126.801 20.75 126.61 20.671 126.47 20.5303C126.329 20.3897 126.25 20.1989 126.25 20V12C126.25 11.8011 126.329 11.6103 126.47 11.4697C126.61 11.329 126.801 11.25 127 11.25C127.199 11.25 127.39 11.329 127.53 11.4697C127.671 11.6103 127.75 11.8011 127.75 12Z" fill="currentColor"/>
<path d="M168.5 6.5H147.5C146.572 6.5 145.682 6.86875 145.025 7.52513C144.369 8.1815 144 9.07174 144 10V22C144 22.9283 144.369 23.8185 145.025 24.4749C145.682 25.1313 146.572 25.5 147.5 25.5H168.5C169.428 25.5 170.318 25.1313 170.975 24.4749C171.631 23.8185 172 22.9283 172 22V10C172 9.07174 171.631 8.1815 170.975 7.52513C170.318 6.86875 169.428 6.5 168.5 6.5ZM169 22C169 22.1326 168.947 22.2598 168.854 22.3536C168.76 22.4473 168.633 22.5 168.5 22.5H147.5C147.367 22.5 147.24 22.4473 147.146 22.3536C147.053 22.2598 147 22.1326 147 22V10C147 9.86739 147.053 9.74021 147.146 9.64645C147.24 9.55268 147.367 9.5 147.5 9.5H168.5C168.633 9.5 168.76 9.55268 168.854 9.64645C168.947 9.74021 169 9.86739 169 10V22ZM176 13V19C176 19.3978 175.842 19.7794 175.561 20.0607C175.279 20.342 174.898 20.5 174.5 20.5C174.102 20.5 173.721 20.342 173.439 20.0607C173.158 19.7794 173 19.3978 173 19V13C173 12.6022 173.158 12.2206 173.439 11.9393C173.721 11.658 174.102 11.5 174.5 11.5C174.898 11.5 175.279 11.658 175.561 11.9393C175.842 12.2206 176 12.6022 176 13Z" fill="currentColor"/>
<path d="M217 7H196C195.204 7 194.441 7.31607 193.879 7.87868C193.316 8.44129 193 9.20435 193 10V22C193 22.7956 193.316 23.5587 193.879 24.1213C194.441 24.6839 195.204 25 196 25H217C217.796 25 218.559 24.6839 219.121 24.1213C219.684 23.5587 220 22.7956 220 22V10C220 9.20435 219.684 8.44129 219.121 7.87868C218.559 7.31607 217.796 7 217 7ZM218 22C218 22.2652 217.895 22.5196 217.707 22.7071C217.52 22.8946 217.265 23 217 23H196C195.735 23 195.48 22.8946 195.293 22.7071C195.105 22.5196 195 22.2652 195 22V10C195 9.73478 195.105 9.48043 195.293 9.29289C195.48 9.10536 195.735 9 196 9H217C217.265 9 217.52 9.10536 217.707 9.29289C217.895 9.48043 218 9.73478 218 10V22ZM224 12V20C224 20.2652 223.895 20.5196 223.707 20.7071C223.52 20.8946 223.265 21 223 21C222.735 21 222.48 20.8946 222.293 20.7071C222.105 20.5196 222 20.2652 222 20V12C222 11.7348 222.105 11.4804 222.293 11.2929C222.48 11.1054 222.735 11 223 11C223.265 11 223.52 11.1054 223.707 11.2929C223.895 11.4804 224 11.7348 224 12Z" fill="currentColor"/>
<path opacity="0.2" d="M267 10V22C267 22.5304 266.789 23.0391 266.414 23.4142C266.039 23.7893 265.53 24 265 24H244C243.47 24 242.961 23.7893 242.586 23.4142C242.211 23.0391 242 22.5304 242 22V10C242 9.46957 242.211 8.96086 242.586 8.58579C242.961 8.21071 243.47 8 244 8H265C265.53 8 266.039 8.21071 266.414 8.58579C266.789 8.96086 267 9.46957 267 10Z" fill="currentColor"/>
<path d="M265 7H244C243.204 7 242.441 7.31607 241.879 7.87868C241.316 8.44129 241 9.20435 241 10V22C241 22.7956 241.316 23.5587 241.879 24.1213C242.441 24.6839 243.204 25 244 25H265C265.796 25 266.559 24.6839 267.121 24.1213C267.684 23.5587 268 22.7956 268 22V10C268 9.20435 267.684 8.44129 267.121 7.87868C266.559 7.31607 265.796 7 265 7ZM266 22C266 22.2652 265.895 22.5196 265.707 22.7071C265.52 22.8946 265.265 23 265 23H244C243.735 23 243.48 22.8946 243.293 22.7071C243.105 22.5196 243 22.2652 243 22V10C243 9.73478 243.105 9.48043 243.293 9.29289C243.48 9.10536 243.735 9 244 9H265C265.265 9 265.52 9.10536 265.707 9.29289C265.895 9.48043 266 9.73478 266 10V22ZM272 12V20C272 20.2652 271.895 20.5196 271.707 20.7071C271.52 20.8946 271.265 21 271 21C270.735 21 270.48 20.8946 270.293 20.7071C270.105 20.5196 270 20.2652 270 20V12C270 11.7348 270.105 11.4804 270.293 11.2929C270.48 11.1054 270.735 11 271 11C271.265 11 271.52 11.1054 271.707 11.2929C271.895 11.4804 272 11.7348 272 12Z" fill="currentColor"/>
</g>
<defs>
<clipPath id="clip0_17_12414">
<rect width="272" height="32" rx="5" fill="white"/>
</clipPath>
</defs>
</svg>
