<svg width="272" height="32" viewBox="0 0 272 32" fill="none" xmlns="http://www.w3.org/2000/svg">
<g clip-path="url(#clip0_17_12246)">
<path d="M32 12V20C32 20.2652 31.8946 20.5196 31.7071 20.7071C31.5196 20.8946 31.2652 21 31 21C30.7348 21 30.4804 20.8946 30.2929 20.7071C30.1054 20.5196 30 20.2652 30 20V12C30 11.7348 30.1054 11.4804 30.2929 11.2929C30.4804 11.1054 30.7348 11 31 11C31.2652 11 31.5196 11.1054 31.7071 11.2929C31.8946 11.4804 32 11.7348 32 12ZM28 10V22C28 22.7956 27.6839 23.5587 27.1213 24.1213C26.5587 24.6839 25.7956 25 25 25H4C3.20435 25 2.44129 24.6839 1.87868 24.1213C1.31607 23.5587 1 22.7956 1 22V10C1 9.20435 1.31607 8.44129 1.87868 7.87868C2.44129 7.31607 3.20435 7 4 7H25C25.7956 7 26.5587 7.31607 27.1213 7.87868C27.6839 8.44129 28 9.20435 28 10ZM26 10C26 9.73478 25.8946 9.48043 25.7071 9.29289C25.5196 9.10536 25.2652 9 25 9H4C3.73478 9 3.48043 9.10536 3.29289 9.29289C3.10536 9.48043 3 9.73478 3 10V22C3 22.2652 3.10536 22.5196 3.29289 22.7071C3.48043 22.8946 3.73478 23 4 23H25C25.2652 23 25.5196 22.8946 25.7071 22.7071C25.8946 22.5196 26 22.2652 26 22V10ZM14.5 16.5C14.7652 16.5 15.0196 16.3946 15.2071 16.2071C15.3946 16.0196 15.5 15.7652 15.5 15.5V12C15.5 11.7348 15.3946 11.4804 15.2071 11.2929C15.0196 11.1054 14.7652 11 14.5 11C14.2348 11 13.9804 11.1054 13.7929 11.2929C13.6054 11.4804 13.5 11.7348 13.5 12V15.5C13.5 15.7652 13.6054 16.0196 13.7929 16.2071C13.9804 16.3946 14.2348 16.5 14.5 16.5ZM14.5 18C14.2033 18 13.9133 18.088 13.6666 18.2528C13.42 18.4176 13.2277 18.6519 13.1142 18.926C13.0006 19.2001 12.9709 19.5017 13.0288 19.7926C13.0867 20.0836 13.2296 20.3509 13.4393 20.5607C13.6491 20.7704 13.9164 20.9133 14.2074 20.9712C14.4983 21.0291 14.7999 20.9993 15.074 20.8858C15.3481 20.7723 15.5824 20.58 15.7472 20.3334C15.912 20.0867 16 19.7967 16 19.5C16 19.1022 15.842 18.7206 15.5607 18.4393C15.2794 18.158 14.8978 18 14.5 18Z" fill="currentColor"/>
<path d="M73 7.5H52C51.337 7.5 50.7011 7.76339 50.2322 8.23223C49.7634 8.70107 49.5 9.33696 49.5 10V22C49.5 22.663 49.7634 23.2989 50.2322 23.7678C50.7011 24.2366 51.337 24.5 52 24.5H73C73.663 24.5 74.2989 24.2366 74.7678 23.7678C75.2366 23.2989 75.5 22.663 75.5 22V10C75.5 9.33696 75.2366 8.70107 74.7678 8.23223C74.2989 7.76339 73.663 7.5 73 7.5ZM74.5 22C74.5 22.3978 74.342 22.7794 74.0607 23.0607C73.7794 23.342 73.3978 23.5 73 23.5H52C51.6022 23.5 51.2206 23.342 50.9393 23.0607C50.658 22.7794 50.5 22.3978 50.5 22V10C50.5 9.60218 50.658 9.22064 50.9393 8.93934C51.2206 8.65804 51.6022 8.5 52 8.5H73C73.3978 8.5 73.7794 8.65804 74.0607 8.93934C74.342 9.22064 74.5 9.60218 74.5 10V22ZM79.5 12V20C79.5 20.1326 79.4473 20.2598 79.3536 20.3536C79.2598 20.4473 79.1326 20.5 79 20.5C78.8674 20.5 78.7402 20.4473 78.6464 20.3536C78.5527 20.2598 78.5 20.1326 78.5 20V12C78.5 11.8674 78.5527 11.7402 78.6464 11.6464C78.7402 11.5527 78.8674 11.5 79 11.5C79.1326 11.5 79.2598 11.5527 79.3536 11.6464C79.4473 11.7402 79.5 11.8674 79.5 12ZM62 15.5V12C62 11.8674 62.0527 11.7402 62.1464 11.6464C62.2402 11.5527 62.3674 11.5 62.5 11.5C62.6326 11.5 62.7598 11.5527 62.8536 11.6464C62.9473 11.7402 63 11.8674 63 12V15.5C63 15.6326 62.9473 15.7598 62.8536 15.8536C62.7598 15.9473 62.6326 16 62.5 16C62.3674 16 62.2402 15.9473 62.1464 15.8536C62.0527 15.7598 62 15.6326 62 15.5ZM63.5 19.5C63.5 19.6978 63.4414 19.8911 63.3315 20.0556C63.2216 20.22 63.0654 20.3482 62.8827 20.4239C62.7 20.4996 62.4989 20.5194 62.3049 20.4808C62.1109 20.4422 61.9327 20.347 61.7929 20.2071C61.653 20.0673 61.5578 19.8891 61.5192 19.6951C61.4806 19.5011 61.5004 19.3 61.5761 19.1173C61.6518 18.9346 61.78 18.7784 61.9444 18.6685C62.1089 18.5586 62.3022 18.5 62.5 18.5C62.7652 18.5 63.0196 18.6054 63.2071 18.7929C63.3946 18.9804 63.5 19.2348 63.5 19.5Z" fill="currentColor"/>
<path d="M121 7.25H100C99.2707 7.25 98.5712 7.53973 98.0555 8.05546C97.5397 8.57118 97.25 9.27065 97.25 10V22C97.25 22.7293 97.5397 23.4288 98.0555 23.9445C98.5712 24.4603 99.2707 24.75 100 24.75H121C121.729 24.75 122.429 24.4603 122.945 23.9445C123.46 23.4288 123.75 22.7293 123.75 22V10C123.75 9.27065 123.46 8.57118 122.945 8.05546C122.429 7.53973 121.729 7.25 121 7.25ZM122.25 22C122.25 22.3315 122.118 22.6495 121.884 22.8839C121.649 23.1183 121.332 23.25 121 23.25H100C99.6685 23.25 99.3505 23.1183 99.1161 22.8839C98.8817 22.6495 98.75 22.3315 98.75 22V10C98.75 9.66848 98.8817 9.35054 99.1161 9.11612C99.3505 8.8817 99.6685 8.75 100 8.75H121C121.332 8.75 121.649 8.8817 121.884 9.11612C122.118 9.35054 122.25 9.66848 122.25 10V22ZM127.75 12V20C127.75 20.1989 127.671 20.3897 127.53 20.5303C127.39 20.671 127.199 20.75 127 20.75C126.801 20.75 126.61 20.671 126.47 20.5303C126.329 20.3897 126.25 20.1989 126.25 20V12C126.25 11.8011 126.329 11.6103 126.47 11.4697C126.61 11.329 126.801 11.25 127 11.25C127.199 11.25 127.39 11.329 127.53 11.4697C127.671 11.6103 127.75 11.8011 127.75 12ZM109.75 15.5V12C109.75 11.8011 109.829 11.6103 109.97 11.4697C110.11 11.329 110.301 11.25 110.5 11.25C110.699 11.25 110.89 11.329 111.03 11.4697C111.171 11.6103 111.25 11.8011 111.25 12V15.5C111.25 15.6989 111.171 15.8897 111.03 16.0303C110.89 16.171 110.699 16.25 110.5 16.25C110.301 16.25 110.11 16.171 109.97 16.0303C109.829 15.8897 109.75 15.6989 109.75 15.5ZM111.75 19.5C111.75 19.7472 111.677 19.9889 111.539 20.1945C111.402 20.4 111.207 20.5602 110.978 20.6549C110.75 20.7495 110.499 20.7742 110.256 20.726C110.014 20.6777 109.791 20.5587 109.616 20.3839C109.441 20.2091 109.322 19.9863 109.274 19.7439C109.226 19.5014 109.251 19.2501 109.345 19.0216C109.44 18.7932 109.6 18.598 109.806 18.4607C110.011 18.3233 110.253 18.25 110.5 18.25C110.832 18.25 111.149 18.3817 111.384 18.6161C111.618 18.8505 111.75 19.1685 111.75 19.5Z" fill="currentColor"/>
<path d="M168.5 6.5H147.5C146.572 6.5 145.682 6.86875 145.025 7.52513C144.369 8.1815 144 9.07174 144 10V22C144 22.9283 144.369 23.8185 145.025 24.4749C145.682 25.1313 146.572 25.5 147.5 25.5H168.5C169.428 25.5 170.318 25.1313 170.975 24.4749C171.631 23.8185 172 22.9283 172 22V10C172 9.07174 171.631 8.1815 170.975 7.52513C170.318 6.86875 169.428 6.5 168.5 6.5ZM169 22C169 22.1326 168.947 22.2598 168.854 22.3536C168.76 22.4473 168.633 22.5 168.5 22.5H147.5C147.367 22.5 147.24 22.4473 147.146 22.3536C147.053 22.2598 147 22.1326 147 22V10C147 9.86739 147.053 9.74021 147.146 9.64645C147.24 9.55268 147.367 9.5 147.5 9.5H168.5C168.633 9.5 168.76 9.55268 168.854 9.64645C168.947 9.74021 169 9.86739 169 10V22ZM176 13V19C176 19.3978 175.842 19.7794 175.561 20.0607C175.279 20.342 174.898 20.5 174.5 20.5C174.102 20.5 173.721 20.342 173.439 20.0607C173.158 19.7794 173 19.3978 173 19V13C173 12.6022 173.158 12.2206 173.439 11.9393C173.721 11.658 174.102 11.5 174.5 11.5C174.898 11.5 175.279 11.658 175.561 11.9393C175.842 12.2206 176 12.6022 176 13ZM157 14.5V12.5C157 12.1022 157.158 11.7206 157.439 11.4393C157.721 11.158 158.102 11 158.5 11C158.898 11 159.279 11.158 159.561 11.4393C159.842 11.7206 160 12.1022 160 12.5V14.5C160 14.8978 159.842 15.2794 159.561 15.5607C159.279 15.842 158.898 16 158.5 16C158.102 16 157.721 15.842 157.439 15.5607C157.158 15.2794 157 14.8978 157 14.5ZM160.5 19C160.5 19.3956 160.383 19.7822 160.163 20.1111C159.943 20.44 159.631 20.6964 159.265 20.8478C158.9 20.9991 158.498 21.0387 158.11 20.9616C157.722 20.8844 157.365 20.6939 157.086 20.4142C156.806 20.1345 156.616 19.7781 156.538 19.3902C156.461 19.0022 156.501 18.6001 156.652 18.2346C156.804 17.8692 157.06 17.5568 157.389 17.3371C157.718 17.1173 158.104 17 158.5 17C159.03 17 159.539 17.2107 159.914 17.5858C160.289 17.9609 160.5 18.4696 160.5 19Z" fill="currentColor"/>
<path d="M217 7H196C195.204 7 194.441 7.31607 193.879 7.87868C193.316 8.44129 193 9.20435 193 10V22C193 22.7956 193.316 23.5587 193.879 24.1213C194.441 24.6839 195.204 25 196 25H217C217.796 25 218.559 24.6839 219.121 24.1213C219.684 23.5587 220 22.7956 220 22V10C220 9.20435 219.684 8.44129 219.121 7.87868C218.559 7.31607 217.796 7 217 7ZM205.5 11C205.5 10.7348 205.605 10.4804 205.793 10.2929C205.98 10.1054 206.235 10 206.5 10C206.765 10 207.02 10.1054 207.207 10.2929C207.395 10.4804 207.5 10.7348 207.5 11V16C207.5 16.2652 207.395 16.5196 207.207 16.7071C207.02 16.8946 206.765 17 206.5 17C206.235 17 205.98 16.8946 205.793 16.7071C205.605 16.5196 205.5 16.2652 205.5 16V11ZM206.5 22C206.203 22 205.913 21.912 205.667 21.7472C205.42 21.5824 205.228 21.3481 205.114 21.074C205.001 20.7999 204.971 20.4983 205.029 20.2074C205.087 19.9164 205.23 19.6491 205.439 19.4393C205.649 19.2296 205.916 19.0867 206.207 19.0288C206.498 18.9709 206.8 19.0007 207.074 19.1142C207.348 19.2277 207.582 19.42 207.747 19.6666C207.912 19.9133 208 20.2033 208 20.5C208 20.8978 207.842 21.2794 207.561 21.5607C207.279 21.842 206.898 22 206.5 22ZM224 12V20C224 20.2652 223.895 20.5196 223.707 20.7071C223.52 20.8946 223.265 21 223 21C222.735 21 222.48 20.8946 222.293 20.7071C222.105 20.5196 222 20.2652 222 20V12C222 11.7348 222.105 11.4804 222.293 11.2929C222.48 11.1054 222.735 11 223 11C223.265 11 223.52 11.1054 223.707 11.2929C223.895 11.4804 224 11.7348 224 12Z" fill="currentColor"/>
<path opacity="0.2" d="M267 10V22C267 22.5304 266.789 23.0391 266.414 23.4142C266.039 23.7893 265.53 24 265 24H244C243.47 24 242.961 23.7893 242.586 23.4142C242.211 23.0391 242 22.5304 242 22V10C242 9.46957 242.211 8.96086 242.586 8.58579C242.961 8.21071 243.47 8 244 8H265C265.53 8 266.039 8.21071 266.414 8.58579C266.789 8.96086 267 9.46957 267 10Z" fill="currentColor"/>
<path d="M265 7H244C243.204 7 242.441 7.31607 241.879 7.87868C241.316 8.44129 241 9.20435 241 10V22C241 22.7956 241.316 23.5587 241.879 24.1213C242.441 24.6839 243.204 25 244 25H265C265.796 25 266.559 24.6839 267.121 24.1213C267.684 23.5587 268 22.7956 268 22V10C268 9.20435 267.684 8.44129 267.121 7.87868C266.559 7.31607 265.796 7 265 7ZM266 22C266 22.2652 265.895 22.5196 265.707 22.7071C265.52 22.8946 265.265 23 265 23H244C243.735 23 243.48 22.8946 243.293 22.7071C243.105 22.5196 243 22.2652 243 22V10C243 9.73478 243.105 9.48043 243.293 9.29289C243.48 9.10536 243.735 9 244 9H265C265.265 9 265.52 9.10536 265.707 9.29289C265.895 9.48043 266 9.73478 266 10V22ZM272 12V20C272 20.2652 271.895 20.5196 271.707 20.7071C271.52 20.8946 271.265 21 271 21C270.735 21 270.48 20.8946 270.293 20.7071C270.105 20.5196 270 20.2652 270 20V12C270 11.7348 270.105 11.4804 270.293 11.2929C270.48 11.1054 270.735 11 271 11C271.265 11 271.52 11.1054 271.707 11.2929C271.895 11.4804 272 11.7348 272 12ZM253.5 15.5V12C253.5 11.7348 253.605 11.4804 253.793 11.2929C253.98 11.1054 254.235 11 254.5 11C254.765 11 255.02 11.1054 255.207 11.2929C255.395 11.4804 255.5 11.7348 255.5 12V15.5C255.5 15.7652 255.395 16.0196 255.207 16.2071C255.02 16.3946 254.765 16.5 254.5 16.5C254.235 16.5 253.98 16.3946 253.793 16.2071C253.605 16.0196 253.5 15.7652 253.5 15.5ZM256 19.5C256 19.7967 255.912 20.0867 255.747 20.3334C255.582 20.58 255.348 20.7723 255.074 20.8858C254.8 20.9993 254.498 21.0291 254.207 20.9712C253.916 20.9133 253.649 20.7704 253.439 20.5607C253.23 20.3509 253.087 20.0836 253.029 19.7926C252.971 19.5017 253.001 19.2001 253.114 18.926C253.228 18.6519 253.42 18.4176 253.667 18.2528C253.913 18.088 254.203 18 254.5 18C254.898 18 255.279 18.158 255.561 18.4393C255.842 18.7206 256 19.1022 256 19.5Z" fill="currentColor"/>
</g>
<defs>
<clipPath id="clip0_17_12246">
<rect width="272" height="32" rx="5" fill="white"/>
</clipPath>
</defs>
</svg>
