<svg width="272" height="32" viewBox="0 0 272 32" fill="none" xmlns="http://www.w3.org/2000/svg">
<g clip-path="url(#clip0_17_12428)">
<path d="M18.8512 16.4737C18.941 16.6188 18.9921 16.7845 18.9998 16.9549C19.0075 17.1254 18.9714 17.2949 18.895 17.4475L16.895 21.4475C16.7763 21.6849 16.5682 21.8654 16.3164 21.9493C16.0647 22.0332 15.7899 22.0137 15.5525 21.895C15.3151 21.7763 15.1346 21.5682 15.0507 21.3164C14.9668 21.0647 14.9863 20.7899 15.105 20.5525L16.3825 18H14C13.8295 18.0001 13.6617 17.9566 13.5127 17.8736C13.3637 17.7907 13.2384 17.671 13.1487 17.5259C13.059 17.3808 13.0079 17.2153 13.0003 17.0449C12.9926 16.8745 13.0287 16.705 13.105 16.5525L15.105 12.5525C15.2237 12.3151 15.4318 12.1346 15.6836 12.0507C15.9353 11.9668 16.2101 11.9863 16.4475 12.105C16.6849 12.2237 16.8654 12.4318 16.9493 12.6836C17.0332 12.9353 17.0137 13.2101 16.895 13.4475L15.6175 16H18C18.1705 15.9998 18.3382 16.0433 18.4872 16.1262C18.6362 16.2091 18.7615 16.3288 18.8512 16.4737ZM12 2H20C20.2652 2 20.5196 1.89464 20.7071 1.70711C20.8946 1.51957 21 1.26522 21 1C21 0.734784 20.8946 0.48043 20.7071 0.292893C20.5196 0.105357 20.2652 0 20 0L12 0C11.7348 0 11.4804 0.105357 11.2929 0.292893C11.1054 0.48043 11 0.734784 11 1C11 1.26522 11.1054 1.51957 11.2929 1.70711C11.4804 1.89464 11.7348 2 12 2ZM25 7V28C25 28.7956 24.6839 29.5587 24.1213 30.1213C23.5587 30.6839 22.7956 31 22 31H10C9.20435 31 8.44129 30.6839 7.87868 30.1213C7.31607 29.5587 7 28.7956 7 28V7C7 6.20435 7.31607 5.44129 7.87868 4.87868C8.44129 4.31607 9.20435 4 10 4H22C22.7956 4 23.5587 4.31607 24.1213 4.87868C24.6839 5.44129 25 6.20435 25 7ZM23 7C23 6.73478 22.8946 6.48043 22.7071 6.29289C22.5196 6.10536 22.2652 6 22 6H10C9.73478 6 9.48043 6.10536 9.29289 6.29289C9.10536 6.48043 9 6.73478 9 7V28C9 28.2652 9.10536 28.5196 9.29289 28.7071C9.48043 28.8946 9.73478 29 10 29H22C22.2652 29 22.5196 28.8946 22.7071 28.7071C22.8946 28.5196 23 28.2652 23 28V7Z" fill="currentColor"/>
<path d="M66.425 16.7375C66.4699 16.8099 66.4955 16.8926 66.4994 16.9777C66.5034 17.0628 66.4855 17.1475 66.4475 17.2237L64.4475 21.2237C64.4059 21.3068 64.342 21.3767 64.263 21.4255C64.184 21.4743 64.0929 21.5001 64 21.5C63.9224 21.4996 63.8459 21.4816 63.7762 21.4475C63.7175 21.4181 63.665 21.3775 63.6219 21.3279C63.5789 21.2782 63.546 21.2206 63.5252 21.1583C63.5044 21.0959 63.4962 21.0301 63.5008 20.9645C63.5055 20.899 63.5231 20.835 63.5525 20.7763L65.1912 17.5H62C61.9147 17.5001 61.8309 17.4783 61.7564 17.4368C61.6819 17.3953 61.6192 17.3355 61.5744 17.2629C61.5295 17.1904 61.504 17.1076 61.5001 17.0224C61.4963 16.9373 61.5143 16.8525 61.5525 16.7763L63.5525 12.7762C63.6118 12.6576 63.7159 12.5673 63.8418 12.5254C63.9677 12.4834 64.1051 12.4932 64.2237 12.5525C64.3424 12.6118 64.4327 12.7159 64.4746 12.8418C64.5166 12.9677 64.5068 13.1051 64.4475 13.2238L62.8088 16.5H66C66.0852 16.5001 66.169 16.522 66.2434 16.5635C66.3177 16.6051 66.3803 16.665 66.425 16.7375ZM60 1.5H68C68.1326 1.5 68.2598 1.44732 68.3536 1.35355C68.4473 1.25979 68.5 1.13261 68.5 1C68.5 0.867392 68.4473 0.740215 68.3536 0.646447C68.2598 0.552678 68.1326 0.5 68 0.5H60C59.8674 0.5 59.7402 0.552678 59.6464 0.646447C59.5527 0.740215 59.5 0.867392 59.5 1C59.5 1.13261 59.5527 1.25979 59.6464 1.35355C59.7402 1.44732 59.8674 1.5 60 1.5ZM72.5 7V28C72.5 28.663 72.2366 29.2989 71.7678 29.7678C71.2989 30.2366 70.663 30.5 70 30.5H58C57.337 30.5 56.7011 30.2366 56.2322 29.7678C55.7634 29.2989 55.5 28.663 55.5 28V7C55.5 6.33696 55.7634 5.70107 56.2322 5.23223C56.7011 4.76339 57.337 4.5 58 4.5H70C70.663 4.5 71.2989 4.76339 71.7678 5.23223C72.2366 5.70107 72.5 6.33696 72.5 7ZM71.5 7C71.5 6.60218 71.342 6.22064 71.0607 5.93934C70.7794 5.65804 70.3978 5.5 70 5.5H58C57.6022 5.5 57.2206 5.65804 56.9393 5.93934C56.658 6.22064 56.5 6.60218 56.5 7V28C56.5 28.3978 56.658 28.7794 56.9393 29.0607C57.2206 29.342 57.6022 29.5 58 29.5H70C70.3978 29.5 70.7794 29.342 71.0607 29.0607C71.342 28.7794 71.5 28.3978 71.5 28V7Z" fill="currentColor"/>
<path d="M114.638 16.6063C114.705 16.7148 114.743 16.8387 114.749 16.9662C114.755 17.0938 114.728 17.2207 114.671 17.335L112.671 21.335C112.627 21.4231 112.566 21.5018 112.492 21.5664C112.418 21.631 112.331 21.6803 112.238 21.7115C112.144 21.7428 112.046 21.7553 111.947 21.7484C111.849 21.7414 111.753 21.7152 111.665 21.6712C111.577 21.6273 111.498 21.5663 111.434 21.492C111.369 21.4176 111.32 21.3312 111.288 21.2378C111.257 21.1443 111.245 21.0457 111.252 20.9474C111.259 20.8491 111.285 20.7532 111.329 20.665L112.786 17.75H110C109.872 17.75 109.746 17.7174 109.635 17.6552C109.523 17.593 109.429 17.5033 109.362 17.3946C109.295 17.2859 109.256 17.1618 109.251 17.0341C109.245 16.9064 109.272 16.7794 109.329 16.665L111.329 12.665C111.418 12.487 111.574 12.3515 111.762 12.2885C111.951 12.2254 112.157 12.2399 112.335 12.3287C112.513 12.4176 112.648 12.5735 112.712 12.7622C112.775 12.9509 112.76 13.157 112.671 13.335L111.214 16.25H114C114.128 16.2501 114.253 16.2829 114.365 16.3453C114.477 16.4076 114.57 16.4975 114.638 16.6063ZM108 1.75H116C116.199 1.75 116.39 1.67098 116.53 1.53033C116.671 1.38968 116.75 1.19891 116.75 1C116.75 0.801088 116.671 0.610322 116.53 0.46967C116.39 0.329018 116.199 0.25 116 0.25H108C107.801 0.25 107.61 0.329018 107.47 0.46967C107.329 0.610322 107.25 0.801088 107.25 1C107.25 1.19891 107.329 1.38968 107.47 1.53033C107.61 1.67098 107.801 1.75 108 1.75ZM120.75 7V28C120.75 28.7293 120.46 29.4288 119.945 29.9445C119.429 30.4603 118.729 30.75 118 30.75H106C105.271 30.75 104.571 30.4603 104.055 29.9445C103.54 29.4288 103.25 28.7293 103.25 28V7C103.25 6.27065 103.54 5.57118 104.055 5.05546C104.571 4.53973 105.271 4.25 106 4.25H118C118.729 4.25 119.429 4.53973 119.945 5.05546C120.46 5.57118 120.75 6.27065 120.75 7ZM119.25 7C119.25 6.66848 119.118 6.35054 118.884 6.11612C118.649 5.8817 118.332 5.75 118 5.75H106C105.668 5.75 105.351 5.8817 105.116 6.11612C104.882 6.35054 104.75 6.66848 104.75 7V28C104.75 28.3315 104.882 28.6495 105.116 28.8839C105.351 29.1183 105.668 29.25 106 29.25H118C118.332 29.25 118.649 29.1183 118.884 28.8839C119.118 28.6495 119.25 28.3315 119.25 28V7Z" fill="currentColor"/>
<path d="M163.276 16.7113C163.411 16.9289 163.487 17.1773 163.499 17.4328C163.51 17.6883 163.456 17.9425 163.341 18.1712L161.341 22.1712C161.255 22.3503 161.134 22.5104 160.985 22.6422C160.836 22.7741 160.663 22.875 160.474 22.9392C160.286 23.0033 160.087 23.0294 159.889 23.016C159.69 23.0025 159.497 22.9498 159.319 22.8608C159.141 22.7718 158.983 22.6484 158.853 22.4977C158.724 22.347 158.625 22.172 158.564 21.9829C158.502 21.7938 158.479 21.5944 158.495 21.3963C158.512 21.1982 158.567 21.0052 158.659 20.8288L159.573 19H158C157.744 19 157.493 18.9346 157.27 18.81C157.046 18.6854 156.858 18.5059 156.724 18.2883C156.59 18.0708 156.513 17.8225 156.502 17.567C156.49 17.3116 156.544 17.0574 156.659 16.8288L158.659 12.8287C158.745 12.6497 158.866 12.4896 159.015 12.3578C159.164 12.2259 159.337 12.125 159.526 12.0608C159.714 11.9967 159.913 11.9706 160.111 11.984C160.31 11.9975 160.503 12.0502 160.681 12.1392C160.859 12.2282 161.017 12.3516 161.147 12.5023C161.276 12.653 161.375 12.828 161.436 13.0171C161.498 13.2062 161.521 13.4056 161.505 13.6037C161.488 13.8019 161.433 13.9948 161.341 14.1713L160.427 16H162C162.256 15.9999 162.507 16.0652 162.731 16.1897C162.954 16.3142 163.142 16.4937 163.276 16.7113ZM157 3H163C163.398 3 163.779 2.84196 164.061 2.56066C164.342 2.27936 164.5 1.89782 164.5 1.5C164.5 1.10218 164.342 0.720644 164.061 0.43934C163.779 0.158035 163.398 0 163 0L157 0C156.602 0 156.221 0.158035 155.939 0.43934C155.658 0.720644 155.5 1.10218 155.5 1.5C155.5 1.89782 155.658 2.27936 155.939 2.56066C156.221 2.84196 156.602 3 157 3ZM169.5 7.5V28.5C169.5 29.4283 169.131 30.3185 168.475 30.9749C167.818 31.6313 166.928 32 166 32H154C153.072 32 152.182 31.6313 151.525 30.9749C150.869 30.3185 150.5 29.4283 150.5 28.5V7.5C150.5 6.57174 150.869 5.6815 151.525 5.02513C152.182 4.36875 153.072 4 154 4H166C166.928 4 167.818 4.36875 168.475 5.02513C169.131 5.6815 169.5 6.57174 169.5 7.5ZM166.5 7.5C166.5 7.36739 166.447 7.24021 166.354 7.14645C166.26 7.05268 166.133 7 166 7H154C153.867 7 153.74 7.05268 153.646 7.14645C153.553 7.24021 153.5 7.36739 153.5 7.5V28.5C153.5 28.6326 153.553 28.7598 153.646 28.8536C153.74 28.9473 153.867 29 154 29H166C166.133 29 166.26 28.9473 166.354 28.8536C166.447 28.7598 166.5 28.6326 166.5 28.5V7.5Z" fill="currentColor"/>
<path d="M214 4H202C201.204 4 200.441 4.31607 199.879 4.87868C199.316 5.44129 199 6.20435 199 7V28C199 28.7956 199.316 29.5587 199.879 30.1213C200.441 30.6839 201.204 31 202 31H214C214.796 31 215.559 30.6839 216.121 30.1213C216.684 29.5587 217 28.7956 217 28V7C217 6.20435 216.684 5.44129 216.121 4.87868C215.559 4.31607 214.796 4 214 4ZM210.895 17.4475L208.895 21.4475C208.836 21.565 208.755 21.6698 208.656 21.7559C208.556 21.842 208.441 21.9077 208.316 21.9493C208.192 21.9908 208.06 22.0074 207.929 21.9981C207.798 21.9888 207.67 21.9538 207.552 21.895C207.435 21.8362 207.33 21.7549 207.244 21.6556C207.158 21.5563 207.092 21.4411 207.051 21.3164C207.009 21.1918 206.993 21.0601 207.002 20.9291C207.011 20.798 207.046 20.67 207.105 20.5525L208.382 18H206C205.829 18.0001 205.662 17.9566 205.513 17.8736C205.364 17.7907 205.238 17.671 205.149 17.5259C205.059 17.3808 205.008 17.2153 205 17.0449C204.993 16.8745 205.029 16.705 205.105 16.5525L207.105 12.5525C207.224 12.3151 207.432 12.1346 207.684 12.0507C207.935 11.9668 208.21 11.9863 208.448 12.105C208.685 12.2237 208.865 12.4318 208.949 12.6836C209.033 12.9353 209.014 13.2101 208.895 13.4475L207.618 16H210C210.171 15.9999 210.338 16.0434 210.487 16.1264C210.636 16.2093 210.762 16.329 210.851 16.4741C210.941 16.6192 210.992 16.7847 211 16.9551C211.007 17.1255 210.971 17.295 210.895 17.4475ZM203 1C203 0.734784 203.105 0.48043 203.293 0.292893C203.48 0.105357 203.735 0 204 0L212 0C212.265 0 212.52 0.105357 212.707 0.292893C212.895 0.48043 213 0.734784 213 1C213 1.26522 212.895 1.51957 212.707 1.70711C212.52 1.89464 212.265 2 212 2H204C203.735 2 203.48 1.89464 203.293 1.70711C203.105 1.51957 203 1.26522 203 1Z" fill="currentColor"/>
<path opacity="0.2" d="M264 7V28C264 28.5304 263.789 29.0391 263.414 29.4142C263.039 29.7893 262.53 30 262 30H250C249.47 30 248.961 29.7893 248.586 29.4142C248.211 29.0391 248 28.5304 248 28V7C248 6.46957 248.211 5.96086 248.586 5.58579C248.961 5.21071 249.47 5 250 5H262C262.53 5 263.039 5.21071 263.414 5.58579C263.789 5.96086 264 6.46957 264 7Z" fill="currentColor"/>
<path d="M258.851 16.4737C258.941 16.6188 258.992 16.7845 259 16.9549C259.007 17.1254 258.971 17.2949 258.895 17.4475L256.895 21.4475C256.776 21.6849 256.568 21.8654 256.316 21.9493C256.065 22.0332 255.79 22.0137 255.552 21.895C255.315 21.7763 255.135 21.5682 255.051 21.3164C254.967 21.0647 254.986 20.7899 255.105 20.5525L256.382 18H254C253.829 18.0001 253.662 17.9566 253.513 17.8736C253.364 17.7907 253.238 17.671 253.149 17.5259C253.059 17.3808 253.008 17.2153 253 17.0449C252.993 16.8745 253.029 16.705 253.105 16.5525L255.105 12.5525C255.224 12.3151 255.432 12.1346 255.684 12.0507C255.935 11.9668 256.21 11.9863 256.448 12.105C256.685 12.2237 256.865 12.4318 256.949 12.6836C257.033 12.9353 257.014 13.2101 256.895 13.4475L255.618 16H258C258.171 15.9998 258.338 16.0433 258.487 16.1262C258.636 16.2091 258.762 16.3288 258.851 16.4737ZM252 2H260C260.265 2 260.52 1.89464 260.707 1.70711C260.895 1.51957 261 1.26522 261 1C261 0.734784 260.895 0.48043 260.707 0.292893C260.52 0.105357 260.265 0 260 0L252 0C251.735 0 251.48 0.105357 251.293 0.292893C251.105 0.48043 251 0.734784 251 1C251 1.26522 251.105 1.51957 251.293 1.70711C251.48 1.89464 251.735 2 252 2ZM265 7V28C265 28.7956 264.684 29.5587 264.121 30.1213C263.559 30.6839 262.796 31 262 31H250C249.204 31 248.441 30.6839 247.879 30.1213C247.316 29.5587 247 28.7956 247 28V7C247 6.20435 247.316 5.44129 247.879 4.87868C248.441 4.31607 249.204 4 250 4H262C262.796 4 263.559 4.31607 264.121 4.87868C264.684 5.44129 265 6.20435 265 7ZM263 7C263 6.73478 262.895 6.48043 262.707 6.29289C262.52 6.10536 262.265 6 262 6H250C249.735 6 249.48 6.10536 249.293 6.29289C249.105 6.48043 249 6.73478 249 7V28C249 28.2652 249.105 28.5196 249.293 28.7071C249.48 28.8946 249.735 29 250 29H262C262.265 29 262.52 28.8946 262.707 28.7071C262.895 28.5196 263 28.2652 263 28V7Z" fill="currentColor"/>
</g>
<defs>
<clipPath id="clip0_17_12428">
<rect width="272" height="32" rx="5" fill="white"/>
</clipPath>
</defs>
</svg>
