<svg width="272" height="32" viewBox="0 0 272 32" fill="none" xmlns="http://www.w3.org/2000/svg">
<g clip-path="url(#clip0_17_12344)">
<path d="M19 16C19 16.2652 18.8946 16.5196 18.7071 16.7071C18.5196 16.8946 18.2652 17 18 17H15.5V19.5C15.5 19.7652 15.3946 20.0196 15.2071 20.2071C15.0196 20.3946 14.7652 20.5 14.5 20.5C14.2348 20.5 13.9804 20.3946 13.7929 20.2071C13.6054 20.0196 13.5 19.7652 13.5 19.5V17H11C10.7348 17 10.4804 16.8946 10.2929 16.7071C10.1054 16.5196 10 16.2652 10 16C10 15.7348 10.1054 15.4804 10.2929 15.2929C10.4804 15.1054 10.7348 15 11 15H13.5V12.5C13.5 12.2348 13.6054 11.9804 13.7929 11.7929C13.9804 11.6054 14.2348 11.5 14.5 11.5C14.7652 11.5 15.0196 11.6054 15.2071 11.7929C15.3946 11.9804 15.5 12.2348 15.5 12.5V15H18C18.2652 15 18.5196 15.1054 18.7071 15.2929C18.8946 15.4804 19 15.7348 19 16ZM28 10V22C28 22.7956 27.6839 23.5587 27.1213 24.1213C26.5587 24.6839 25.7956 25 25 25H4C3.20435 25 2.44129 24.6839 1.87868 24.1213C1.31607 23.5587 1 22.7956 1 22V10C1 9.20435 1.31607 8.44129 1.87868 7.87868C2.44129 7.31607 3.20435 7 4 7H25C25.7956 7 26.5587 7.31607 27.1213 7.87868C27.6839 8.44129 28 9.20435 28 10ZM26 10C26 9.73478 25.8946 9.48043 25.7071 9.29289C25.5196 9.10536 25.2652 9 25 9H4C3.73478 9 3.48043 9.10536 3.29289 9.29289C3.10536 9.48043 3 9.73478 3 10V22C3 22.2652 3.10536 22.5196 3.29289 22.7071C3.48043 22.8946 3.73478 23 4 23H25C25.2652 23 25.5196 22.8946 25.7071 22.7071C25.8946 22.5196 26 22.2652 26 22V10ZM31 11C30.7348 11 30.4804 11.1054 30.2929 11.2929C30.1054 11.4804 30 11.7348 30 12V20C30 20.2652 30.1054 20.5196 30.2929 20.7071C30.4804 20.8946 30.7348 21 31 21C31.2652 21 31.5196 20.8946 31.7071 20.7071C31.8946 20.5196 32 20.2652 32 20V12C32 11.7348 31.8946 11.4804 31.7071 11.2929C31.5196 11.1054 31.2652 11 31 11Z" fill="currentColor"/>
<path d="M66.5 16C66.5 16.1326 66.4473 16.2598 66.3536 16.3536C66.2598 16.4473 66.1326 16.5 66 16.5H63V19.5C63 19.6326 62.9473 19.7598 62.8536 19.8536C62.7598 19.9473 62.6326 20 62.5 20C62.3674 20 62.2402 19.9473 62.1464 19.8536C62.0527 19.7598 62 19.6326 62 19.5V16.5H59C58.8674 16.5 58.7402 16.4473 58.6464 16.3536C58.5527 16.2598 58.5 16.1326 58.5 16C58.5 15.8674 58.5527 15.7402 58.6464 15.6464C58.7402 15.5527 58.8674 15.5 59 15.5H62V12.5C62 12.3674 62.0527 12.2402 62.1464 12.1464C62.2402 12.0527 62.3674 12 62.5 12C62.6326 12 62.7598 12.0527 62.8536 12.1464C62.9473 12.2402 63 12.3674 63 12.5V15.5H66C66.1326 15.5 66.2598 15.5527 66.3536 15.6464C66.4473 15.7402 66.5 15.8674 66.5 16ZM75.5 10V22C75.5 22.663 75.2366 23.2989 74.7678 23.7678C74.2989 24.2366 73.663 24.5 73 24.5H52C51.337 24.5 50.7011 24.2366 50.2322 23.7678C49.7634 23.2989 49.5 22.663 49.5 22V10C49.5 9.33696 49.7634 8.70107 50.2322 8.23223C50.7011 7.76339 51.337 7.5 52 7.5H73C73.663 7.5 74.2989 7.76339 74.7678 8.23223C75.2366 8.70107 75.5 9.33696 75.5 10ZM74.5 10C74.5 9.60218 74.342 9.22064 74.0607 8.93934C73.7794 8.65804 73.3978 8.5 73 8.5H52C51.6022 8.5 51.2206 8.65804 50.9393 8.93934C50.658 9.22064 50.5 9.60218 50.5 10V22C50.5 22.3978 50.658 22.7794 50.9393 23.0607C51.2206 23.342 51.6022 23.5 52 23.5H73C73.3978 23.5 73.7794 23.342 74.0607 23.0607C74.342 22.7794 74.5 22.3978 74.5 22V10ZM79 11.5C78.8674 11.5 78.7402 11.5527 78.6464 11.6464C78.5527 11.7402 78.5 11.8674 78.5 12V20C78.5 20.1326 78.5527 20.2598 78.6464 20.3536C78.7402 20.4473 78.8674 20.5 79 20.5C79.1326 20.5 79.2598 20.4473 79.3536 20.3536C79.4473 20.2598 79.5 20.1326 79.5 20V12C79.5 11.8674 79.4473 11.7402 79.3536 11.6464C79.2598 11.5527 79.1326 11.5 79 11.5Z" fill="currentColor"/>
<path d="M114.75 16C114.75 16.1989 114.671 16.3897 114.53 16.5303C114.39 16.671 114.199 16.75 114 16.75H111.25V19.5C111.25 19.6989 111.171 19.8897 111.03 20.0303C110.89 20.171 110.699 20.25 110.5 20.25C110.301 20.25 110.11 20.171 109.97 20.0303C109.829 19.8897 109.75 19.6989 109.75 19.5V16.75H107C106.801 16.75 106.61 16.671 106.47 16.5303C106.329 16.3897 106.25 16.1989 106.25 16C106.25 15.8011 106.329 15.6103 106.47 15.4697C106.61 15.329 106.801 15.25 107 15.25H109.75V12.5C109.75 12.3011 109.829 12.1103 109.97 11.9697C110.11 11.829 110.301 11.75 110.5 11.75C110.699 11.75 110.89 11.829 111.03 11.9697C111.171 12.1103 111.25 12.3011 111.25 12.5V15.25H114C114.199 15.25 114.39 15.329 114.53 15.4697C114.671 15.6103 114.75 15.8011 114.75 16ZM123.75 10V22C123.75 22.7293 123.46 23.4288 122.945 23.9445C122.429 24.4603 121.729 24.75 121 24.75H100C99.2707 24.75 98.5712 24.4603 98.0555 23.9445C97.5397 23.4288 97.25 22.7293 97.25 22V10C97.25 9.27065 97.5397 8.57118 98.0555 8.05546C98.5712 7.53973 99.2707 7.25 100 7.25H121C121.729 7.25 122.429 7.53973 122.945 8.05546C123.46 8.57118 123.75 9.27065 123.75 10ZM122.25 10C122.25 9.66848 122.118 9.35054 121.884 9.11612C121.649 8.8817 121.332 8.75 121 8.75H100C99.6685 8.75 99.3505 8.8817 99.1161 9.11612C98.8817 9.35054 98.75 9.66848 98.75 10V22C98.75 22.3315 98.8817 22.6495 99.1161 22.8839C99.3505 23.1183 99.6685 23.25 100 23.25H121C121.332 23.25 121.649 23.1183 121.884 22.8839C122.118 22.6495 122.25 22.3315 122.25 22V10ZM127 11.25C126.801 11.25 126.61 11.329 126.47 11.4697C126.329 11.6103 126.25 11.8011 126.25 12V20C126.25 20.1989 126.329 20.3897 126.47 20.5303C126.61 20.671 126.801 20.75 127 20.75C127.199 20.75 127.39 20.671 127.53 20.5303C127.671 20.3897 127.75 20.1989 127.75 20V12C127.75 11.8011 127.671 11.6103 127.53 11.4697C127.39 11.329 127.199 11.25 127 11.25Z" fill="currentColor"/>
<path d="M163 16C163 16.3978 162.842 16.7794 162.561 17.0607C162.279 17.342 161.898 17.5 161.5 17.5H160V19C160 19.3978 159.842 19.7794 159.561 20.0607C159.279 20.342 158.898 20.5 158.5 20.5C158.102 20.5 157.721 20.342 157.439 20.0607C157.158 19.7794 157 19.3978 157 19V17.5H155.5C155.102 17.5 154.721 17.342 154.439 17.0607C154.158 16.7794 154 16.3978 154 16C154 15.6022 154.158 15.2206 154.439 14.9393C154.721 14.658 155.102 14.5 155.5 14.5H157V13C157 12.6022 157.158 12.2206 157.439 11.9393C157.721 11.658 158.102 11.5 158.5 11.5C158.898 11.5 159.279 11.658 159.561 11.9393C159.842 12.2206 160 12.6022 160 13V14.5H161.5C161.898 14.5 162.279 14.658 162.561 14.9393C162.842 15.2206 163 15.6022 163 16ZM172 10V22C172 22.9283 171.631 23.8185 170.975 24.4749C170.318 25.1313 169.428 25.5 168.5 25.5H147.5C146.572 25.5 145.682 25.1313 145.025 24.4749C144.369 23.8185 144 22.9283 144 22V10C144 9.07174 144.369 8.1815 145.025 7.52513C145.682 6.86875 146.572 6.5 147.5 6.5H168.5C169.428 6.5 170.318 6.86875 170.975 7.52513C171.631 8.1815 172 9.07174 172 10ZM169 10C169 9.86739 168.947 9.74021 168.854 9.64645C168.76 9.55268 168.633 9.5 168.5 9.5H147.5C147.367 9.5 147.24 9.55268 147.146 9.64645C147.053 9.74021 147 9.86739 147 10V22C147 22.1326 147.053 22.2598 147.146 22.3536C147.24 22.4473 147.367 22.5 147.5 22.5H168.5C168.633 22.5 168.76 22.4473 168.854 22.3536C168.947 22.2598 169 22.1326 169 22V10ZM174.5 11.5C174.102 11.5 173.721 11.658 173.439 11.9393C173.158 12.2206 173 12.6022 173 13V19C173 19.3978 173.158 19.7794 173.439 20.0607C173.721 20.342 174.102 20.5 174.5 20.5C174.898 20.5 175.279 20.342 175.561 20.0607C175.842 19.7794 176 19.3978 176 19V13C176 12.6022 175.842 12.2206 175.561 11.9393C175.279 11.658 174.898 11.5 174.5 11.5Z" fill="currentColor"/>
<path d="M217 7H196C195.204 7 194.441 7.31607 193.879 7.87868C193.316 8.44129 193 9.20435 193 10V22C193 22.7956 193.316 23.5587 193.879 24.1213C194.441 24.6839 195.204 25 196 25H217C217.796 25 218.559 24.6839 219.121 24.1213C219.684 23.5587 220 22.7956 220 22V10C220 9.20435 219.684 8.44129 219.121 7.87868C218.559 7.31607 217.796 7 217 7ZM210 17H207.5V19.5C207.5 19.7652 207.395 20.0196 207.207 20.2071C207.02 20.3946 206.765 20.5 206.5 20.5C206.235 20.5 205.98 20.3946 205.793 20.2071C205.605 20.0196 205.5 19.7652 205.5 19.5V17H203C202.735 17 202.48 16.8946 202.293 16.7071C202.105 16.5196 202 16.2652 202 16C202 15.7348 202.105 15.4804 202.293 15.2929C202.48 15.1054 202.735 15 203 15H205.5V12.5C205.5 12.2348 205.605 11.9804 205.793 11.7929C205.98 11.6054 206.235 11.5 206.5 11.5C206.765 11.5 207.02 11.6054 207.207 11.7929C207.395 11.9804 207.5 12.2348 207.5 12.5V15H210C210.265 15 210.52 15.1054 210.707 15.2929C210.895 15.4804 211 15.7348 211 16C211 16.2652 210.895 16.5196 210.707 16.7071C210.52 16.8946 210.265 17 210 17ZM224 12V20C224 20.2652 223.895 20.5196 223.707 20.7071C223.52 20.8946 223.265 21 223 21C222.735 21 222.48 20.8946 222.293 20.7071C222.105 20.5196 222 20.2652 222 20V12C222 11.7348 222.105 11.4804 222.293 11.2929C222.48 11.1054 222.735 11 223 11C223.265 11 223.52 11.1054 223.707 11.2929C223.895 11.4804 224 11.7348 224 12Z" fill="currentColor"/>
<path opacity="0.2" d="M267 10V22C267 22.5304 266.789 23.0391 266.414 23.4142C266.039 23.7893 265.53 24 265 24H244C243.47 24 242.961 23.7893 242.586 23.4142C242.211 23.0391 242 22.5304 242 22V10C242 9.46957 242.211 8.96086 242.586 8.58579C242.961 8.21071 243.47 8 244 8H265C265.53 8 266.039 8.21071 266.414 8.58579C266.789 8.96086 267 9.46957 267 10Z" fill="currentColor"/>
<path d="M259 16C259 16.2652 258.895 16.5196 258.707 16.7071C258.52 16.8946 258.265 17 258 17H255.5V19.5C255.5 19.7652 255.395 20.0196 255.207 20.2071C255.02 20.3946 254.765 20.5 254.5 20.5C254.235 20.5 253.98 20.3946 253.793 20.2071C253.605 20.0196 253.5 19.7652 253.5 19.5V17H251C250.735 17 250.48 16.8946 250.293 16.7071C250.105 16.5196 250 16.2652 250 16C250 15.7348 250.105 15.4804 250.293 15.2929C250.48 15.1054 250.735 15 251 15H253.5V12.5C253.5 12.2348 253.605 11.9804 253.793 11.7929C253.98 11.6054 254.235 11.5 254.5 11.5C254.765 11.5 255.02 11.6054 255.207 11.7929C255.395 11.9804 255.5 12.2348 255.5 12.5V15H258C258.265 15 258.52 15.1054 258.707 15.2929C258.895 15.4804 259 15.7348 259 16ZM268 10V22C268 22.7956 267.684 23.5587 267.121 24.1213C266.559 24.6839 265.796 25 265 25H244C243.204 25 242.441 24.6839 241.879 24.1213C241.316 23.5587 241 22.7956 241 22V10C241 9.20435 241.316 8.44129 241.879 7.87868C242.441 7.31607 243.204 7 244 7H265C265.796 7 266.559 7.31607 267.121 7.87868C267.684 8.44129 268 9.20435 268 10ZM266 10C266 9.73478 265.895 9.48043 265.707 9.29289C265.52 9.10536 265.265 9 265 9H244C243.735 9 243.48 9.10536 243.293 9.29289C243.105 9.48043 243 9.73478 243 10V22C243 22.2652 243.105 22.5196 243.293 22.7071C243.48 22.8946 243.735 23 244 23H265C265.265 23 265.52 22.8946 265.707 22.7071C265.895 22.5196 266 22.2652 266 22V10ZM271 11C270.735 11 270.48 11.1054 270.293 11.2929C270.105 11.4804 270 11.7348 270 12V20C270 20.2652 270.105 20.5196 270.293 20.7071C270.48 20.8946 270.735 21 271 21C271.265 21 271.52 20.8946 271.707 20.7071C271.895 20.5196 272 20.2652 272 20V12C272 11.7348 271.895 11.4804 271.707 11.2929C271.52 11.1054 271.265 11 271 11Z" fill="currentColor"/>
</g>
<defs>
<clipPath id="clip0_17_12344">
<rect width="272" height="32" rx="5" fill="white"/>
</clipPath>
</defs>
</svg>
