<svg width="272" height="32" viewBox="0 0 272 32" fill="none" xmlns="http://www.w3.org/2000/svg">
<g clip-path="url(#clip0_17_12148)">
<path d="M21 28C21 28.2652 20.8946 28.5196 20.7071 28.7071C20.5196 28.8946 20.2652 29 20 29H12C11.7348 29 11.4804 28.8946 11.2929 28.7071C11.1053 28.5196 11 28.2652 11 28C11 27.7348 11.1053 27.4804 11.2929 27.2929C11.4804 27.1054 11.7348 27 12 27H20C20.2652 27 20.5196 27.1054 20.7071 27.2929C20.8946 27.4804 21 27.7348 21 28ZM18 17H15.875L18.8375 12.555C18.9382 12.404 18.996 12.2284 19.0045 12.0471C19.0131 11.8658 18.9721 11.6856 18.8861 11.5258C18.8 11.366 18.6721 11.2326 18.516 11.14C18.3599 11.0474 18.1815 10.999 18 11H14C13.7348 11 13.4804 11.1054 13.2929 11.2929C13.1053 11.4804 13 11.7348 13 12C13 12.2652 13.1053 12.5196 13.2929 12.7071C13.4804 12.8946 13.7348 13 14 13H16.1312L13.1687 17.445C13.0683 17.5955 13.0106 17.7705 13.0018 17.9513C12.993 18.1321 13.0334 18.3118 13.1187 18.4714C13.204 18.631 13.331 18.7645 13.4862 18.8576C13.6415 18.9507 13.819 18.9999 14 19H18C18.2652 19 18.5196 18.8946 18.7071 18.7071C18.8946 18.5196 19 18.2652 19 18C19 17.7348 18.8946 17.4804 18.7071 17.2929C18.5196 17.1054 18.2652 17 18 17ZM27.73 24C27.5566 24.3055 27.3049 24.5592 27.0008 24.7349C26.6967 24.9107 26.3512 25.0022 26 25H5.99999C5.64841 24.9995 5.30317 24.9064 4.99906 24.73C4.69495 24.5535 4.44272 24.3 4.2678 23.9951C4.09288 23.6901 4.00144 23.3444 4.0027 22.9928C4.00396 22.6412 4.09788 22.2962 4.27499 21.9925C4.96874 20.7975 5.99999 17.4175 5.99999 13C5.99999 10.3478 7.05356 7.8043 8.92892 5.92893C10.8043 4.05357 13.3478 3 16 3C18.6522 3 21.1957 4.05357 23.0711 5.92893C24.9464 7.8043 26 10.3478 26 13C26 17.4163 27.0325 20.7975 27.7262 21.9925C27.9051 22.2966 27.9997 22.6429 28.0004 22.9957C28.0011 23.3486 27.9077 23.6952 27.73 24ZM26 23C25.0337 21.3412 24 17.5063 24 13C24 10.8783 23.1571 8.84344 21.6568 7.34315C20.1566 5.84285 18.1217 5 16 5C13.8783 5 11.8434 5.84285 10.3431 7.34315C8.84284 8.84344 7.99999 10.8783 7.99999 13C7.99999 17.5075 6.96499 21.3425 5.99999 23H26Z" fill="currentColor"/>
<path d="M68.5001 28C68.5001 28.1326 68.4474 28.2598 68.3536 28.3536C68.2599 28.4473 68.1327 28.5 68.0001 28.5H60.0001C59.8675 28.5 59.7403 28.4473 59.6465 28.3536C59.5528 28.2598 59.5001 28.1326 59.5001 28C59.5001 27.8674 59.5528 27.7402 59.6465 27.6464C59.7403 27.5527 59.8675 27.5 60.0001 27.5H68.0001C68.1327 27.5 68.2599 27.5527 68.3536 27.6464C68.4474 27.7402 68.5001 27.8674 68.5001 28ZM66.0001 17.5H62.9338L66.4163 12.2775C66.4666 12.2022 66.4954 12.1146 66.4998 12.0242C66.5042 11.9338 66.484 11.8438 66.4412 11.764C66.3985 11.6842 66.3349 11.6175 66.2572 11.571C66.1795 11.5245 66.0906 11.4999 66.0001 11.5H62.0001C61.8675 11.5 61.7403 11.5527 61.6465 11.6464C61.5528 11.7402 61.5001 11.8674 61.5001 12C61.5001 12.1326 61.5528 12.2598 61.6465 12.3536C61.7403 12.4473 61.8675 12.5 62.0001 12.5H65.0663L61.5838 17.7225C61.5336 17.7978 61.5047 17.8854 61.5003 17.9758C61.496 18.0662 61.5162 18.1562 61.559 18.236C61.6017 18.3158 61.6653 18.3825 61.743 18.429C61.8207 18.4755 61.9095 18.5001 62.0001 18.5H66.0001C66.1327 18.5 66.2599 18.4473 66.3536 18.3536C66.4474 18.2598 66.5001 18.1326 66.5001 18C66.5001 17.8674 66.4474 17.7402 66.3536 17.6464C66.2599 17.5527 66.1327 17.5 66.0001 17.5ZM75.2976 23.75C75.1676 23.9792 74.9789 24.1695 74.7508 24.3014C74.5227 24.4332 74.2635 24.5018 74.0001 24.5H54.0001C53.7372 24.4991 53.4792 24.4291 53.2519 24.2971C53.0246 24.165 52.836 23.9756 52.705 23.7477C52.574 23.5198 52.5051 23.2615 52.5054 22.9987C52.5056 22.7358 52.5749 22.4776 52.7063 22.25C53.4276 21 54.5001 17.5163 54.5001 13C54.5001 10.4804 55.501 8.06408 57.2826 6.28249C59.0642 4.50089 61.4805 3.5 64.0001 3.5C66.5196 3.5 68.936 4.50089 70.7176 6.28249C72.4992 8.06408 73.5001 10.4804 73.5001 13C73.5001 17.5163 74.5738 21 75.2951 22.2437C75.4293 22.472 75.5002 22.7318 75.5007 22.9965C75.5011 23.2613 75.431 23.5213 75.2976 23.75ZM74.4288 22.75C73.5001 21.1462 72.5001 17.4137 72.5001 13C72.5001 10.7457 71.6046 8.58365 70.0105 6.98959C68.4164 5.39553 66.2544 4.5 64.0001 4.5C61.7457 4.5 59.5837 5.39553 57.9897 6.98959C56.3956 8.58365 55.5001 10.7457 55.5001 13C55.5001 17.415 54.5001 21.1462 53.5701 22.75C53.5262 22.826 53.5031 22.9122 53.5031 23C53.5031 23.0878 53.5262 23.174 53.5701 23.25C53.6128 23.3263 53.6753 23.3898 53.7509 23.4338C53.8265 23.4778 53.9126 23.5006 54.0001 23.5H74.0001C74.0876 23.5006 74.1736 23.4778 74.2493 23.4338C74.3249 23.3898 74.3874 23.3263 74.4301 23.25C74.4738 23.1739 74.4967 23.0876 74.4965 22.9998C74.4962 22.9121 74.4729 22.8259 74.4288 22.75Z" fill="currentColor"/>
<path d="M116.75 28C116.75 28.1989 116.671 28.3897 116.53 28.5303C116.39 28.671 116.199 28.75 116 28.75H108C107.801 28.75 107.61 28.671 107.47 28.5303C107.329 28.3897 107.25 28.1989 107.25 28C107.25 27.8011 107.329 27.6103 107.47 27.4697C107.61 27.329 107.801 27.25 108 27.25H116C116.199 27.25 116.39 27.329 116.53 27.4697C116.671 27.6103 116.75 27.8011 116.75 28ZM114 17.25H111.401L114.625 12.4163C114.7 12.3032 114.744 12.1718 114.75 12.0361C114.757 11.9004 114.726 11.7655 114.662 11.6457C114.598 11.526 114.502 11.4259 114.386 11.3562C114.269 11.2865 114.136 11.2498 114 11.25H110C109.801 11.25 109.61 11.329 109.47 11.4697C109.329 11.6103 109.25 11.8011 109.25 12C109.25 12.1989 109.329 12.3897 109.47 12.5303C109.61 12.671 109.801 12.75 110 12.75H112.599L109.375 17.5837C109.3 17.6968 109.256 17.8282 109.25 17.9639C109.243 18.0996 109.274 18.2345 109.338 18.3543C109.402 18.474 109.497 18.5741 109.614 18.6438C109.731 18.7135 109.864 18.7502 110 18.75H114C114.199 18.75 114.39 18.671 114.53 18.5303C114.671 18.3897 114.75 18.1989 114.75 18C114.75 17.8011 114.671 17.6103 114.53 17.4697C114.39 17.329 114.199 17.25 114 17.25ZM123.514 23.875C123.362 24.142 123.142 24.3639 122.876 24.5177C122.61 24.6714 122.308 24.7516 122.001 24.75H102C101.692 24.7494 101.39 24.6676 101.124 24.5131C100.858 24.3585 100.638 24.1366 100.485 23.8696C100.332 23.6027 100.252 23.3002 100.254 22.9926C100.255 22.685 100.337 22.3831 100.492 22.1175C101.199 20.9 102.25 17.4675 102.25 13C102.25 10.4141 103.277 7.93419 105.106 6.10571C106.934 4.27723 109.414 3.25 112 3.25C114.586 3.25 117.066 4.27723 118.894 6.10571C120.723 7.93419 121.75 10.4141 121.75 13C121.75 17.4662 122.802 20.9 123.51 22.1175C123.667 22.3837 123.75 22.6868 123.75 22.9957C123.751 23.3047 123.669 23.6082 123.514 23.875ZM122.212 22.875C121.266 21.25 120.25 17.46 120.25 13C120.25 10.812 119.381 8.71354 117.834 7.16637C116.286 5.61919 114.188 4.75 112 4.75C109.812 4.75 107.714 5.61919 106.166 7.16637C104.619 8.71354 103.75 10.812 103.75 13C103.75 17.4613 102.732 21.25 101.786 22.875C101.764 22.913 101.753 22.9561 101.753 23C101.753 23.0439 101.764 23.087 101.786 23.125C101.807 23.1633 101.838 23.1952 101.875 23.2172C101.912 23.2393 101.955 23.2506 101.999 23.25H122C122.043 23.2506 122.086 23.2393 122.124 23.2172C122.161 23.1952 122.192 23.1633 122.212 23.125C122.234 23.087 122.246 23.0439 122.246 23C122.246 22.9561 122.234 22.913 122.212 22.875Z" fill="currentColor"/>
<path d="M163.5 17.5C163.5 17.8978 163.342 18.2794 163.061 18.5607C162.779 18.842 162.398 19 162 19H158C157.728 19.0004 157.462 18.927 157.228 18.7876C156.995 18.6482 156.804 18.448 156.676 18.2085C156.547 17.969 156.487 17.6991 156.5 17.4277C156.513 17.1563 156.599 16.8935 156.75 16.6675L159.198 13H158C157.602 13 157.221 12.842 156.939 12.5607C156.658 12.2794 156.5 11.8978 156.5 11.5C156.5 11.1022 156.658 10.7206 156.939 10.4393C157.221 10.158 157.602 10 158 10H162C162.272 9.9996 162.539 10.073 162.772 10.2124C163.005 10.3518 163.196 10.552 163.324 10.7915C163.453 11.031 163.514 11.3009 163.501 11.5723C163.487 11.8437 163.401 12.1065 163.25 12.3325L160.803 16H162C162.398 16 162.779 16.158 163.061 16.4393C163.342 16.7206 163.5 17.1022 163.5 17.5ZM172.166 23.25C171.949 23.6322 171.634 23.9495 171.253 24.1693C170.872 24.389 170.44 24.5032 170 24.5H150C149.561 24.5027 149.129 24.3883 148.749 24.1686C148.368 23.9489 148.053 23.6318 147.836 23.25C147.617 22.8682 147.503 22.4355 147.504 21.9954C147.505 21.5553 147.622 21.1232 147.843 20.7425C148.924 18.875 149.5 16.1975 149.5 13C149.5 10.2152 150.606 7.54451 152.575 5.57538C154.545 3.60625 157.215 2.5 160 2.5C162.785 2.5 165.456 3.60625 167.425 5.57538C169.394 7.54451 170.5 10.2152 170.5 13C170.5 16.1962 171.074 18.875 172.159 20.7412C172.38 21.1219 172.498 21.5541 172.499 21.9945C172.501 22.4348 172.386 22.8678 172.168 23.25H172.166ZM169.166 21.5C168.061 19.25 167.5 16.3912 167.5 13C167.5 11.0109 166.71 9.10322 165.303 7.6967C163.897 6.29018 161.989 5.5 160 5.5C158.011 5.5 156.103 6.29018 154.697 7.6967C153.29 9.10322 152.5 11.0109 152.5 13C152.5 16.3925 151.94 19.25 150.834 21.5H169.166ZM164 26.5H156C155.602 26.5 155.221 26.658 154.939 26.9393C154.658 27.2206 154.5 27.6022 154.5 28C154.5 28.3978 154.658 28.7794 154.939 29.0607C155.221 29.342 155.602 29.5 156 29.5H164C164.398 29.5 164.779 29.342 165.061 29.0607C165.342 28.7794 165.5 28.3978 165.5 28C165.5 27.6022 165.342 27.2206 165.061 26.9393C164.779 26.658 164.398 26.5 164 26.5Z" fill="currentColor"/>
<path d="M213 28C213 28.2652 212.895 28.5196 212.707 28.7071C212.52 28.8946 212.265 29 212 29H204C203.735 29 203.48 28.8946 203.293 28.7071C203.105 28.5196 203 28.2652 203 28C203 27.7348 203.105 27.4804 203.293 27.2929C203.48 27.1054 203.735 27 204 27H212C212.265 27 212.52 27.1054 212.707 27.2929C212.895 27.4804 213 27.7348 213 28ZM219.731 24C219.558 24.3056 219.306 24.5595 219.001 24.7353C218.697 24.911 218.351 25.0024 218 25H198C197.648 24.9995 197.303 24.9064 196.999 24.73C196.695 24.5535 196.443 24.3 196.268 23.9951C196.093 23.6901 196.001 23.3444 196.003 22.9928C196.004 22.6412 196.098 22.2962 196.275 21.9925C196.969 20.7975 198 17.4175 198 13C198 10.3478 199.054 7.8043 200.929 5.92893C202.804 4.05357 205.348 3 208 3C210.652 3 213.196 4.05357 215.071 5.92893C216.946 7.8043 218 10.3478 218 13C218 17.4163 219.032 20.7975 219.726 21.9925C219.905 22.2966 220 22.6429 220 22.9957C220.001 23.3486 219.908 23.6952 219.73 24H219.731ZM211 18C211 17.7348 210.895 17.4804 210.707 17.2929C210.52 17.1054 210.265 17 210 17H207.875L210.837 12.555C210.938 12.404 210.996 12.2284 211.005 12.0471C211.013 11.8658 210.972 11.6856 210.886 11.5258C210.8 11.366 210.672 11.2326 210.516 11.14C210.36 11.0474 210.181 10.999 210 11H206C205.735 11 205.48 11.1054 205.293 11.2929C205.105 11.4804 205 11.7348 205 12C205 12.2652 205.105 12.5196 205.293 12.7071C205.48 12.8946 205.735 13 206 13H208.131L205.169 17.445C205.068 17.5955 205.011 17.7705 205.002 17.9513C204.993 18.1321 205.033 18.3118 205.119 18.4714C205.204 18.631 205.331 18.7645 205.486 18.8576C205.641 18.9507 205.819 18.9999 206 19H210C210.265 19 210.52 18.8946 210.707 18.7071C210.895 18.5196 211 18.2652 211 18Z" fill="currentColor"/>
<path opacity="0.2" d="M266 24H246C245.825 23.9989 245.653 23.952 245.502 23.8638C245.351 23.7756 245.226 23.6492 245.139 23.4974C245.052 23.3456 245.006 23.1735 245.006 22.9985C245.006 22.8235 245.053 22.6516 245.14 22.5C245.964 21.075 247 17.4762 247 13C247 10.6131 247.948 8.32387 249.636 6.63604C251.324 4.94821 253.613 4 256 4C258.387 4 260.676 4.94821 262.364 6.63604C264.052 8.32387 265 10.6131 265 13C265 17.4775 266.038 21.075 266.863 22.5C266.95 22.6518 266.996 22.8239 266.997 22.9991C266.997 23.1744 266.951 23.3466 266.863 23.4985C266.776 23.6504 266.65 23.7767 266.499 23.8647C266.347 23.9527 266.175 23.9994 266 24Z" fill="currentColor"/>
<path d="M261 28C261 28.2652 260.895 28.5196 260.707 28.7071C260.52 28.8946 260.265 29 260 29H252C251.735 29 251.48 28.8946 251.293 28.7071C251.105 28.5196 251 28.2652 251 28C251 27.7348 251.105 27.4804 251.293 27.2929C251.48 27.1054 251.735 27 252 27H260C260.265 27 260.52 27.1054 260.707 27.2929C260.895 27.4804 261 27.7348 261 28ZM258 17H255.875L258.837 12.555C258.938 12.404 258.996 12.2284 259.005 12.0471C259.013 11.8658 258.972 11.6856 258.886 11.5258C258.8 11.366 258.672 11.2326 258.516 11.14C258.36 11.0474 258.181 10.999 258 11H254C253.735 11 253.48 11.1054 253.293 11.2929C253.105 11.4804 253 11.7348 253 12C253 12.2652 253.105 12.5196 253.293 12.7071C253.48 12.8946 253.735 13 254 13H256.131L253.169 17.445C253.068 17.5955 253.011 17.7705 253.002 17.9513C252.993 18.1321 253.033 18.3118 253.119 18.4714C253.204 18.631 253.331 18.7645 253.486 18.8576C253.641 18.9507 253.819 18.9999 254 19H258C258.265 19 258.52 18.8946 258.707 18.7071C258.895 18.5196 259 18.2652 259 18C259 17.7348 258.895 17.4804 258.707 17.2929C258.52 17.1054 258.265 17 258 17ZM267.73 24C267.557 24.3055 267.305 24.5592 267.001 24.7349C266.697 24.9107 266.351 25.0022 266 25H246C245.648 24.9995 245.303 24.9064 244.999 24.73C244.695 24.5535 244.443 24.3 244.268 23.9951C244.093 23.6901 244.001 23.3444 244.003 22.9928C244.004 22.6412 244.098 22.2962 244.275 21.9925C244.969 20.7975 246 17.4175 246 13C246 10.3478 247.054 7.8043 248.929 5.92893C250.804 4.05357 253.348 3 256 3C258.652 3 261.196 4.05357 263.071 5.92893C264.946 7.8043 266 10.3478 266 13C266 17.4163 267.032 20.7975 267.726 21.9925C267.905 22.2966 268 22.6429 268 22.9957C268.001 23.3486 267.908 23.6952 267.73 24ZM266 23C265.034 21.3412 264 17.5063 264 13C264 10.8783 263.157 8.84344 261.657 7.34315C260.157 5.84285 258.122 5 256 5C253.878 5 251.843 5.84285 250.343 7.34315C248.843 8.84344 248 10.8783 248 13C248 17.5075 246.965 21.3425 246 23H266Z" fill="currentColor"/>
</g>
<defs>
<clipPath id="clip0_17_12148">
<rect width="272" height="32" rx="5" fill="white"/>
</clipPath>
</defs>
</svg>
