<svg width="272" height="32" viewBox="0 0 272 32" fill="none" xmlns="http://www.w3.org/2000/svg">
<g clip-path="url(#clip0_17_12092)">
<path d="M23.6 21.2L16.6663 16L23.6 10.8C23.7242 10.7069 23.825 10.5861 23.8944 10.4472C23.9639 10.3084 24 10.1552 24 10C24 9.84476 23.9639 9.69164 23.8944 9.55279C23.825 9.41393 23.7242 9.29315 23.6 9.2L15.6 3.2C15.4514 3.08857 15.2748 3.02072 15.0898 3.00404C14.9048 2.98736 14.7189 3.02252 14.5528 3.10557C14.3867 3.18863 14.247 3.31629 14.1494 3.47427C14.0517 3.63225 14 3.81429 14 4V14L7.6 9.2C7.38783 9.04087 7.12113 8.97254 6.85858 9.01005C6.59603 9.04756 6.35913 9.18783 6.2 9.4C6.04087 9.61217 5.97254 9.87887 6.01005 10.1414C6.04756 10.404 6.18783 10.6409 6.4 10.8L13.3338 16L6.4 21.2C6.29494 21.2788 6.20643 21.3775 6.13953 21.4905C6.07262 21.6035 6.02862 21.7286 6.01005 21.8586C5.97254 22.1211 6.04087 22.3878 6.2 22.6C6.35913 22.8122 6.59603 22.9524 6.85858 22.99C7.12113 23.0275 7.38783 22.9591 7.6 22.8L14 18V28C14 28.1857 14.0517 28.3678 14.1494 28.5257C14.247 28.6837 14.3867 28.8114 14.5528 28.8944C14.7189 28.9775 14.9048 29.0126 15.0898 28.996C15.2748 28.9793 15.4514 28.9114 15.6 28.8L23.6 22.8C23.7242 22.7069 23.825 22.5861 23.8944 22.4472C23.9639 22.3084 24 22.1552 24 22C24 21.8448 23.9639 21.6916 23.8944 21.5528C23.825 21.4139 23.7242 21.2931 23.6 21.2ZM16 6L21.3337 10L16 14V6ZM16 26V18L21.3337 22L16 26ZM6.5 17.5C6.20333 17.5 5.91332 17.412 5.66665 17.2472C5.41997 17.0824 5.22771 16.8481 5.11418 16.574C5.00065 16.2999 4.97094 15.9983 5.02882 15.7074C5.0867 15.4164 5.22956 15.1491 5.43934 14.9393C5.64912 14.7296 5.91639 14.5867 6.20737 14.5288C6.49834 14.4709 6.79994 14.5006 7.07403 14.6142C7.34811 14.7277 7.58238 14.92 7.74721 15.1666C7.91203 15.4133 8 15.7033 8 16C8 16.3978 7.84197 16.7794 7.56066 17.0607C7.27936 17.342 6.89783 17.5 6.5 17.5ZM26 16C26 16.2967 25.912 16.5867 25.7472 16.8334C25.5824 17.08 25.3481 17.2723 25.074 17.3858C24.7999 17.4993 24.4983 17.5291 24.2074 17.4712C23.9164 17.4133 23.6491 17.2704 23.4393 17.0607C23.2296 16.8509 23.0867 16.5836 23.0288 16.2926C22.9709 16.0017 23.0007 15.7001 23.1142 15.426C23.2277 15.1519 23.42 14.9176 23.6666 14.7528C23.9133 14.588 24.2033 14.5 24.5 14.5C24.8978 14.5 25.2794 14.658 25.5607 14.9393C25.842 15.2206 26 15.6022 26 16Z" fill="currentColor"/>
<path d="M71.3 21.6L63.8338 16L71.3 10.4C71.3621 10.3534 71.4125 10.293 71.4472 10.2236C71.4819 10.1542 71.5 10.0776 71.5 10C71.5 9.92238 71.4819 9.84582 71.4472 9.77639C71.4125 9.70697 71.3621 9.64657 71.3 9.6L63.3 3.6C63.2257 3.54429 63.1374 3.51036 63.0449 3.50202C62.9524 3.49368 62.8594 3.51126 62.7764 3.55279C62.6933 3.59431 62.6235 3.65815 62.5747 3.73713C62.5259 3.81612 62.5 3.90714 62.5 4V15L55.3 9.6C55.2475 9.5606 55.1877 9.53194 55.1241 9.51564C55.0605 9.49935 54.9943 9.49574 54.9293 9.50502C54.798 9.52378 54.6796 9.59391 54.6 9.7C54.5204 9.80609 54.4863 9.93944 54.505 10.0707C54.5238 10.202 54.5939 10.3204 54.7 10.4L62.1663 16L54.7 21.6C54.6475 21.6394 54.6032 21.6888 54.5698 21.7453C54.5363 21.8018 54.5143 21.8643 54.505 21.9293C54.4957 21.9943 54.4993 22.0605 54.5156 22.1241C54.5319 22.1877 54.5606 22.2475 54.6 22.3C54.6394 22.3525 54.6888 22.3968 54.7453 22.4302C54.8018 22.4637 54.8643 22.4857 54.9293 22.495C54.9943 22.5043 55.0605 22.5007 55.1241 22.4844C55.1877 22.4681 55.2475 22.4394 55.3 22.4L62.5 17V28C62.5 28.0929 62.5259 28.1839 62.5747 28.2629C62.6235 28.3419 62.6933 28.4057 62.7764 28.4472C62.8594 28.4887 62.9524 28.5063 63.0449 28.498C63.1374 28.4896 63.2257 28.4557 63.3 28.4L71.3 22.4C71.3621 22.3534 71.4125 22.293 71.4472 22.2236C71.4819 22.1542 71.5 22.0776 71.5 22C71.5 21.9224 71.4819 21.8458 71.4472 21.7764C71.4125 21.707 71.3621 21.6466 71.3 21.6ZM63.5 5L70.1663 10L63.5 15V5ZM63.5 27V17L70.1663 22L63.5 27ZM54.5 17C54.3022 17 54.1089 16.9414 53.9444 16.8315C53.78 16.7216 53.6518 16.5654 53.5761 16.3827C53.5004 16.2 53.4806 15.9989 53.5192 15.8049C53.5578 15.6109 53.653 15.4327 53.7929 15.2929C53.9327 15.153 54.1109 15.0578 54.3049 15.0192C54.4989 14.9806 54.7 15.0004 54.8827 15.0761C55.0654 15.1518 55.2216 15.28 55.3315 15.4444C55.4414 15.6089 55.5 15.8022 55.5 16C55.5 16.2652 55.3946 16.5196 55.2071 16.7071C55.0196 16.8946 54.7652 17 54.5 17ZM73.5 16C73.5 16.1978 73.4414 16.3911 73.3315 16.5556C73.2216 16.72 73.0654 16.8482 72.8827 16.9239C72.7 16.9996 72.4989 17.0194 72.3049 16.9808C72.1109 16.9422 71.9327 16.847 71.7929 16.7071C71.653 16.5673 71.5578 16.3891 71.5192 16.1951C71.4806 16.0011 71.5004 15.8 71.5761 15.6173C71.6518 15.4346 71.78 15.2784 71.9444 15.1685C72.1089 15.0586 72.3022 15 72.5 15C72.7652 15 73.0196 15.1054 73.2071 15.2929C73.3946 15.4804 73.5 15.7348 73.5 16Z" fill="currentColor"/>
<path d="M119.45 21.4L112.25 16L119.45 10.6C119.543 10.5301 119.619 10.4396 119.671 10.3354C119.723 10.2313 119.75 10.1164 119.75 10C119.75 9.88357 119.723 9.76873 119.671 9.66459C119.619 9.56045 119.543 9.46986 119.45 9.4L111.45 3.4C111.339 3.31643 111.206 3.26554 111.067 3.25303C110.929 3.24052 110.789 3.26689 110.665 3.32918C110.54 3.39147 110.435 3.48722 110.362 3.6057C110.289 3.72418 110.25 3.86072 110.25 4V14.5L103.45 9.4C103.371 9.34091 103.282 9.29791 103.186 9.27347C103.091 9.24902 102.991 9.24361 102.894 9.25754C102.796 9.27147 102.703 9.30446 102.618 9.35464C102.533 9.40483 102.459 9.47121 102.4 9.55C102.341 9.62879 102.298 9.71846 102.273 9.81387C102.249 9.90928 102.244 10.0086 102.258 10.1061C102.271 10.2036 102.304 10.2974 102.355 10.3821C102.405 10.4669 102.471 10.5409 102.55 10.6L109.75 16L102.55 21.4C102.391 21.5193 102.286 21.697 102.258 21.8939C102.229 22.0908 102.281 22.2909 102.4 22.45C102.519 22.6091 102.697 22.7143 102.894 22.7425C103.091 22.7706 103.291 22.7193 103.45 22.6L110.25 17.5V28C110.25 28.1393 110.289 28.2758 110.362 28.3943C110.435 28.5128 110.54 28.6085 110.665 28.6708C110.789 28.7331 110.929 28.7595 111.067 28.747C111.206 28.7345 111.339 28.6836 111.45 28.6L119.45 22.6C119.543 22.5301 119.619 22.4396 119.671 22.3354C119.723 22.2313 119.75 22.1164 119.75 22C119.75 21.8836 119.723 21.7687 119.671 21.6646C119.619 21.5604 119.543 21.4699 119.45 21.4ZM111.75 5.5L117.75 10L111.75 14.5V5.5ZM111.75 26.5V17.5L117.75 22L111.75 26.5ZM102.5 17.25C102.253 17.25 102.011 17.1767 101.806 17.0393C101.6 16.902 101.44 16.7068 101.345 16.4784C101.251 16.2499 101.226 15.9986 101.274 15.7561C101.322 15.5137 101.441 15.2909 101.616 15.1161C101.791 14.9413 102.014 14.8222 102.256 14.774C102.499 14.7258 102.75 14.7505 102.978 14.8452C103.207 14.9398 103.402 15.1 103.539 15.3055C103.677 15.5111 103.75 15.7528 103.75 16C103.75 16.3315 103.618 16.6495 103.384 16.8839C103.149 17.1183 102.832 17.25 102.5 17.25ZM121.75 16C121.75 16.2472 121.677 16.4889 121.539 16.6945C121.402 16.9 121.207 17.0602 120.978 17.1549C120.75 17.2495 120.499 17.2742 120.256 17.226C120.014 17.1777 119.791 17.0587 119.616 16.8839C119.441 16.7091 119.322 16.4863 119.274 16.2439C119.226 16.0014 119.251 15.7501 119.345 15.5216C119.44 15.2932 119.6 15.098 119.806 14.9607C120.011 14.8233 120.253 14.75 120.5 14.75C120.832 14.75 121.149 14.8817 121.384 15.1161C121.618 15.3505 121.75 15.6685 121.75 16Z" fill="currentColor"/>
<path d="M167.9 20.8L161.5 16L167.9 11.2C168.086 11.0603 168.238 10.8791 168.342 10.6708C168.446 10.4625 168.5 10.2329 168.5 10C168.5 9.76713 168.446 9.53746 168.342 9.32918C168.238 9.1209 168.086 8.93972 167.9 8.8L159.9 2.8C159.677 2.63286 159.412 2.53108 159.135 2.50606C158.857 2.48104 158.578 2.53378 158.329 2.65836C158.08 2.78294 157.87 2.97444 157.724 3.2114C157.578 3.44837 157.5 3.72143 157.5 4V13L151.9 8.8C151.582 8.56131 151.182 8.45882 150.788 8.51508C150.394 8.57134 150.039 8.78174 149.8 9.1C149.561 9.41826 149.459 9.81831 149.515 10.2121C149.571 10.606 149.782 10.9613 150.1 11.2L156.5 16L150.1 20.8C149.942 20.9182 149.81 21.0663 149.709 21.2358C149.609 21.4053 149.543 21.5929 149.515 21.7879C149.487 21.9829 149.498 22.1814 149.547 22.3723C149.596 22.5631 149.682 22.7424 149.8 22.9C149.918 23.0576 150.066 23.1904 150.236 23.2907C150.405 23.3911 150.593 23.4571 150.788 23.4849C150.983 23.5128 151.181 23.502 151.372 23.4531C151.563 23.4042 151.742 23.3182 151.9 23.2L157.5 19V28C157.5 28.2786 157.578 28.5516 157.724 28.7886C157.87 29.0256 158.08 29.2171 158.329 29.3416C158.578 29.4662 158.857 29.519 159.135 29.4939C159.412 29.4689 159.677 29.3671 159.9 29.2L167.9 23.2C168.086 23.0603 168.238 22.8791 168.342 22.6708C168.446 22.4625 168.5 22.2329 168.5 22C168.5 21.7671 168.446 21.5375 168.342 21.3292C168.238 21.1209 168.086 20.9397 167.9 20.8ZM160.5 7L164.5 10L160.5 13V7ZM160.5 25V19L164.5 22L160.5 25ZM150 18C149.604 18 149.218 17.8827 148.889 17.6629C148.56 17.4432 148.304 17.1308 148.152 16.7654C148.001 16.3999 147.961 15.9978 148.038 15.6098C148.116 15.2219 148.306 14.8655 148.586 14.5858C148.865 14.3061 149.222 14.1156 149.61 14.0384C149.998 13.9613 150.4 14.0009 150.765 14.1522C151.131 14.3036 151.443 14.56 151.663 14.8889C151.883 15.2178 152 15.6044 152 16C152 16.5304 151.789 17.0391 151.414 17.4142C151.039 17.7893 150.53 18 150 18ZM171 16C171 16.3956 170.883 16.7822 170.663 17.1111C170.443 17.44 170.131 17.6964 169.765 17.8478C169.4 17.9991 168.998 18.0387 168.61 17.9616C168.222 17.8844 167.865 17.6939 167.586 17.4142C167.306 17.1345 167.116 16.7781 167.038 16.3902C166.961 16.0022 167.001 15.6001 167.152 15.2346C167.304 14.8692 167.56 14.5568 167.889 14.3371C168.218 14.1173 168.604 14 169 14C169.53 14 170.039 14.2107 170.414 14.5858C170.789 14.9609 171 15.4696 171 16Z" fill="currentColor"/>
<path d="M216 22C216 22.1552 215.964 22.3084 215.894 22.4472C215.825 22.5861 215.724 22.7069 215.6 22.8L207.6 28.8C207.427 28.9298 207.216 29 207 29C206.735 29 206.48 28.8946 206.293 28.7071C206.105 28.5196 206 28.2652 206 28V18L199.6 22.8C199.495 22.8788 199.375 22.9361 199.248 22.9687C199.121 23.0013 198.989 23.0085 198.859 22.99C198.596 22.9524 198.359 22.8122 198.2 22.6C198.041 22.3878 197.973 22.1211 198.01 21.8586C198.048 21.596 198.188 21.3591 198.4 21.2L205.334 16L198.4 10.8C198.188 10.6409 198.048 10.404 198.01 10.1414C197.973 9.87887 198.041 9.61217 198.2 9.4C198.359 9.18783 198.596 9.04756 198.859 9.01005C199.121 8.97254 199.388 9.04087 199.6 9.2L206 14V4C206 3.81429 206.052 3.63225 206.149 3.47427C206.247 3.31629 206.387 3.18863 206.553 3.10557C206.719 3.02252 206.905 2.98736 207.09 3.00404C207.275 3.02072 207.451 3.08857 207.6 3.2L215.6 9.2C215.724 9.29315 215.825 9.41393 215.894 9.55279C215.964 9.69164 216 9.84476 216 10C216 10.1552 215.964 10.3084 215.894 10.4472C215.825 10.5861 215.724 10.7069 215.6 10.8L208.666 16L215.6 21.2C215.724 21.2931 215.825 21.4139 215.894 21.5528C215.964 21.6916 216 21.8448 216 22ZM200 16C200 15.7033 199.912 15.4133 199.747 15.1666C199.582 14.92 199.348 14.7277 199.074 14.6142C198.8 14.5006 198.498 14.4709 198.207 14.5288C197.916 14.5867 197.649 14.7296 197.439 14.9393C197.23 15.1491 197.087 15.4164 197.029 15.7074C196.971 15.9983 197.001 16.2999 197.114 16.574C197.228 16.8481 197.42 17.0824 197.667 17.2472C197.913 17.412 198.203 17.5 198.5 17.5C198.898 17.5 199.279 17.342 199.561 17.0607C199.842 16.7794 200 16.3978 200 16ZM216.5 14.5C216.203 14.5 215.913 14.588 215.667 14.7528C215.42 14.9176 215.228 15.1519 215.114 15.426C215.001 15.7001 214.971 16.0017 215.029 16.2926C215.087 16.5836 215.23 16.8509 215.439 17.0607C215.649 17.2704 215.916 17.4133 216.207 17.4712C216.498 17.5291 216.8 17.4993 217.074 17.3858C217.348 17.2723 217.582 17.08 217.747 16.8334C217.912 16.5867 218 16.2967 218 16C218 15.6022 217.842 15.2206 217.561 14.9393C217.279 14.658 216.898 14.5 216.5 14.5Z" fill="currentColor"/>
<path opacity="0.2" d="M263 10L255 16V4L263 10ZM255 28L263 22L255 16V28Z" fill="currentColor"/>
<path d="M263.6 21.2L256.666 16L263.6 10.8C263.724 10.7069 263.825 10.5861 263.894 10.4472C263.964 10.3084 264 10.1552 264 10C264 9.84476 263.964 9.69164 263.894 9.55279C263.825 9.41393 263.724 9.29315 263.6 9.2L255.6 3.2C255.451 3.08857 255.275 3.02072 255.09 3.00404C254.905 2.98736 254.719 3.02252 254.553 3.10557C254.387 3.18863 254.247 3.31629 254.149 3.47427C254.052 3.63225 254 3.81429 254 4V14L247.6 9.2C247.388 9.04087 247.121 8.97254 246.859 9.01005C246.596 9.04756 246.359 9.18783 246.2 9.4C246.041 9.61217 245.973 9.87887 246.01 10.1414C246.048 10.404 246.188 10.6409 246.4 10.8L253.334 16L246.4 21.2C246.295 21.2788 246.206 21.3775 246.14 21.4905C246.073 21.6035 246.029 21.7286 246.01 21.8586C245.973 22.1211 246.041 22.3878 246.2 22.6C246.359 22.8122 246.596 22.9524 246.859 22.99C247.121 23.0275 247.388 22.9591 247.6 22.8L254 18V28C254 28.1857 254.052 28.3678 254.149 28.5257C254.247 28.6837 254.387 28.8114 254.553 28.8944C254.719 28.9775 254.905 29.0126 255.09 28.996C255.275 28.9793 255.451 28.9114 255.6 28.8L263.6 22.8C263.724 22.7069 263.825 22.5861 263.894 22.4472C263.964 22.3084 264 22.1552 264 22C264 21.8448 263.964 21.6916 263.894 21.5528C263.825 21.4139 263.724 21.2931 263.6 21.2ZM256 6L261.334 10L256 14V6ZM256 26V18L261.334 22L256 26ZM246.5 17.5C246.203 17.5 245.913 17.412 245.667 17.2472C245.42 17.0824 245.228 16.8481 245.114 16.574C245.001 16.2999 244.971 15.9983 245.029 15.7074C245.087 15.4164 245.23 15.1491 245.439 14.9393C245.649 14.7296 245.916 14.5867 246.207 14.5288C246.498 14.4709 246.8 14.5006 247.074 14.6142C247.348 14.7277 247.582 14.92 247.747 15.1666C247.912 15.4133 248 15.7033 248 16C248 16.3978 247.842 16.7794 247.561 17.0607C247.279 17.342 246.898 17.5 246.5 17.5ZM266 16C266 16.2967 265.912 16.5867 265.747 16.8334C265.582 17.08 265.348 17.2723 265.074 17.3858C264.8 17.4993 264.498 17.5291 264.207 17.4712C263.916 17.4133 263.649 17.2704 263.439 17.0607C263.23 16.8509 263.087 16.5836 263.029 16.2926C262.971 16.0017 263.001 15.7001 263.114 15.426C263.228 15.1519 263.42 14.9176 263.667 14.7528C263.913 14.588 264.203 14.5 264.5 14.5C264.898 14.5 265.279 14.658 265.561 14.9393C265.842 15.2206 266 15.6022 266 16Z" fill="currentColor"/>
</g>
<defs>
<clipPath id="clip0_17_12092">
<rect width="272" height="32" rx="5" fill="white"/>
</clipPath>
</defs>
</svg>
