<svg width="272" height="32" viewBox="0 0 272 32" fill="none" xmlns="http://www.w3.org/2000/svg">
<g clip-path="url(#clip0_17_11994)">
<path d="M11 19V25C11 25.2652 10.8946 25.5196 10.7071 25.7071C10.5196 25.8946 10.2652 26 10 26C9.73478 26 9.48043 25.8946 9.29289 25.7071C9.10536 25.5196 9 25.2652 9 25V19C9 18.7348 9.10536 18.4804 9.29289 18.2929C9.48043 18.1054 9.73478 18 10 18C10.2652 18 10.5196 18.1054 10.7071 18.2929C10.8946 18.4804 11 18.7348 11 19ZM5 23C4.73478 23 4.48043 23.1054 4.29289 23.2929C4.10536 23.4804 4 23.7348 4 24V25C4 25.2652 4.10536 25.5196 4.29289 25.7071C4.48043 25.8946 4.73478 26 5 26C5.26522 26 5.51957 25.8946 5.70711 25.7071C5.89464 25.5196 6 25.2652 6 25V24C6 23.7348 5.89464 23.4804 5.70711 23.2929C5.51957 23.1054 5.26522 23 5 23Z" fill="currentColor"/>
<path d="M58.5 19V25C58.5 25.1326 58.4473 25.2598 58.3536 25.3536C58.2598 25.4473 58.1326 25.5 58 25.5C57.8674 25.5 57.7402 25.4473 57.6464 25.3536C57.5527 25.2598 57.5 25.1326 57.5 25V19C57.5 18.8674 57.5527 18.7402 57.6464 18.6464C57.7402 18.5527 57.8674 18.5 58 18.5C58.1326 18.5 58.2598 18.5527 58.3536 18.6464C58.4473 18.7402 58.5 18.8674 58.5 19ZM53 23.5C52.8674 23.5 52.7402 23.5527 52.6464 23.6464C52.5527 23.7402 52.5 23.8674 52.5 24V25C52.5 25.1326 52.5527 25.2598 52.6464 25.3536C52.7402 25.4473 52.8674 25.5 53 25.5C53.1326 25.5 53.2598 25.4473 53.3536 25.3536C53.4473 25.2598 53.5 25.1326 53.5 25V24C53.5 23.8674 53.4473 23.7402 53.3536 23.6464C53.2598 23.5527 53.1326 23.5 53 23.5Z" fill="currentColor"/>
<path d="M106.75 19V25C106.75 25.1989 106.671 25.3897 106.53 25.5303C106.39 25.671 106.199 25.75 106 25.75C105.801 25.75 105.61 25.671 105.47 25.5303C105.329 25.3897 105.25 25.1989 105.25 25V19C105.25 18.8011 105.329 18.6103 105.47 18.4697C105.61 18.329 105.801 18.25 106 18.25C106.199 18.25 106.39 18.329 106.53 18.4697C106.671 18.6103 106.75 18.8011 106.75 19ZM101 23.25C100.801 23.25 100.61 23.329 100.47 23.4697C100.329 23.6103 100.25 23.8011 100.25 24V25C100.25 25.1989 100.329 25.3897 100.47 25.5303C100.61 25.671 100.801 25.75 101 25.75C101.199 25.75 101.39 25.671 101.53 25.5303C101.671 25.3897 101.75 25.1989 101.75 25V24C101.75 23.8011 101.671 23.6103 101.53 23.4697C101.39 23.329 101.199 23.25 101 23.25Z" fill="currentColor"/>
<path d="M155.5 19V25C155.5 25.3978 155.342 25.7794 155.061 26.0607C154.779 26.342 154.398 26.5 154 26.5C153.602 26.5 153.221 26.342 152.939 26.0607C152.658 25.7794 152.5 25.3978 152.5 25V19C152.5 18.6022 152.658 18.2206 152.939 17.9393C153.221 17.658 153.602 17.5 154 17.5C154.398 17.5 154.779 17.658 155.061 17.9393C155.342 18.2206 155.5 18.6022 155.5 19ZM149 22.5C148.602 22.5 148.221 22.658 147.939 22.9393C147.658 23.2206 147.5 23.6022 147.5 24V25C147.5 25.3978 147.658 25.7794 147.939 26.0607C148.221 26.342 148.602 26.5 149 26.5C149.398 26.5 149.779 26.342 150.061 26.0607C150.342 25.7794 150.5 25.3978 150.5 25V24C150.5 23.6022 150.342 23.2206 150.061 22.9393C149.779 22.658 149.398 22.5 149 22.5Z" fill="currentColor"/>
<path d="M216.765 3.15365C216.4 3.00205 215.998 2.96223 215.609 3.03921C215.221 3.1162 214.865 3.30653 214.585 3.58615L194.585 23.5861C194.305 23.8659 194.115 24.2223 194.038 24.6103C193.961 24.9982 194.001 25.4003 194.152 25.7657C194.304 26.1311 194.56 26.4434 194.889 26.6631C195.218 26.8827 195.605 27 196 26.9999H216C216.531 26.9999 217.039 26.7892 217.414 26.4141C217.789 26.039 218 25.5303 218 24.9999V4.9999C218.001 4.60433 217.884 4.21751 217.664 3.88871C217.444 3.55992 217.131 3.30403 216.765 3.15365ZM216 24.9999H203V17.9999L216 4.9999V24.9999Z" fill="currentColor"/>
<path opacity="0.2" d="M250 17.5874V25.9999H244C243.802 26.0001 243.609 25.9415 243.444 25.8316C243.279 25.7218 243.151 25.5655 243.075 25.3827C243 25.1999 242.98 24.9987 243.019 24.8046C243.057 24.6105 243.153 24.4323 243.293 24.2924L250 17.5874Z" fill="currentColor"/>
<path d="M264.765 3.15365C264.4 3.00205 263.998 2.96223 263.609 3.03921C263.221 3.1162 262.865 3.30653 262.585 3.58615L242.585 23.5861C242.305 23.8659 242.115 24.2223 242.038 24.6103C241.961 24.9982 242.001 25.4003 242.152 25.7657C242.304 26.1311 242.56 26.4434 242.889 26.6631C243.218 26.8827 243.605 27 244 26.9999H264C264.531 26.9999 265.039 26.7892 265.414 26.4141C265.789 26.039 266 25.5303 266 24.9999V4.9999C266.001 4.60433 265.884 4.21751 265.664 3.88871C265.444 3.55992 265.131 3.30403 264.765 3.15365ZM249 19.9999V24.9999H244L249 19.9999ZM264 24.9999H251V17.9999L264 4.9999V24.9999Z" fill="currentColor"/>
</g>
<defs>
<clipPath id="clip0_17_11994">
<rect width="272" height="32" rx="5" fill="white"/>
</clipPath>
</defs>
</svg>
