<svg width="272" height="32" viewBox="0 0 272 32" fill="none" xmlns="http://www.w3.org/2000/svg">
<g clip-path="url(#clip0_17_11911)">
<path d="M21.7075 12.2925C21.8005 12.3854 21.8742 12.4957 21.9246 12.6171C21.9749 12.7385 22.0008 12.8686 22.0008 13C22.0008 13.1314 21.9749 13.2615 21.9246 13.3829C21.8742 13.5043 21.8005 13.6146 21.7075 13.7075L14.7075 20.7075C14.6146 20.8005 14.5043 20.8742 14.3829 20.9246C14.2615 20.9749 14.1314 21.0008 14 21.0008C13.8686 21.0008 13.7385 20.9749 13.6171 20.9246C13.4957 20.8742 13.3854 20.8005 13.2925 20.7075L10.2925 17.7075C10.1049 17.5199 9.99945 17.2654 9.99945 17C9.99945 16.7346 10.1049 16.4801 10.2925 16.2925C10.4801 16.1049 10.7346 15.9994 11 15.9994C11.2654 15.9994 11.5199 16.1049 11.7075 16.2925L14 18.5863L20.2925 12.2925C20.3854 12.1995 20.4957 12.1258 20.6171 12.0754C20.7385 12.0251 20.8686 11.9992 21 11.9992C21.1314 11.9992 21.2615 12.0251 21.3829 12.0754C21.5043 12.1258 21.6146 12.1995 21.7075 12.2925ZM29 16C29 18.5712 28.2376 21.0846 26.8091 23.2224C25.3807 25.3603 23.3503 27.0265 20.9749 28.0104C18.5995 28.9944 15.9856 29.2518 13.4638 28.7502C10.9421 28.2486 8.6257 27.0105 6.80762 25.1924C4.98953 23.3743 3.75141 21.0579 3.2498 18.5362C2.74819 16.0144 3.00563 13.4006 3.98957 11.0251C4.97351 8.64968 6.63975 6.61935 8.77759 5.1909C10.9154 3.76244 13.4288 3 16 3C19.4467 3.00364 22.7512 4.37445 25.1884 6.81163C27.6256 9.24882 28.9964 12.5533 29 16ZM27 16C27 13.8244 26.3549 11.6977 25.1462 9.88873C23.9375 8.07979 22.2195 6.66989 20.2095 5.83733C18.1995 5.00476 15.9878 4.78692 13.854 5.21136C11.7202 5.6358 9.76021 6.68345 8.22183 8.22183C6.68345 9.7602 5.63581 11.7202 5.21137 13.854C4.78693 15.9878 5.00477 18.1995 5.83733 20.2095C6.66989 22.2195 8.07979 23.9375 9.88873 25.1462C11.6977 26.3549 13.8244 27 16 27C18.9164 26.9967 21.7123 25.8367 23.7745 23.7745C25.8367 21.7123 26.9967 18.9164 27 16Z" fill="currentColor"/>
<path d="M69.3538 12.6462C69.4002 12.6927 69.4371 12.7478 69.4623 12.8085C69.4874 12.8692 69.5004 12.9343 69.5004 13C69.5004 13.0657 69.4874 13.1308 69.4623 13.1915C69.4371 13.2522 69.4002 13.3073 69.3538 13.3538L62.3538 20.3538C62.3073 20.4002 62.2522 20.4371 62.1915 20.4623C62.1308 20.4874 62.0657 20.5004 62 20.5004C61.9343 20.5004 61.8692 20.4874 61.8085 20.4623C61.7478 20.4371 61.6927 20.4002 61.6463 20.3538L58.6463 17.3538C58.5524 17.2599 58.4997 17.1327 58.4997 17C58.4997 16.8673 58.5524 16.7401 58.6463 16.6462C58.7401 16.5524 58.8673 16.4997 59 16.4997C59.1327 16.4997 59.2599 16.5524 59.3538 16.6462L62 19.2925L68.6463 12.6462C68.6927 12.5998 68.7478 12.5629 68.8085 12.5377C68.8692 12.5126 68.9343 12.4996 69 12.4996C69.0657 12.4996 69.1308 12.5126 69.1915 12.5377C69.2522 12.5629 69.3073 12.5998 69.3538 12.6462ZM76.5 16C76.5 18.4723 75.7669 20.889 74.3934 22.9446C73.0199 25.0002 71.0676 26.6024 68.7835 27.5485C66.4995 28.4946 63.9861 28.7421 61.5614 28.2598C59.1366 27.7775 56.9093 26.587 55.1612 24.8388C53.413 23.0907 52.2225 20.8634 51.7402 18.4386C51.2579 16.0139 51.5054 13.5005 52.4515 11.2165C53.3976 8.93238 54.9998 6.98015 57.0554 5.60663C59.111 4.23311 61.5277 3.5 64 3.5C67.3141 3.50364 70.4914 4.82177 72.8348 7.16518C75.1782 9.5086 76.4964 12.6859 76.5 16ZM75.5 16C75.5 13.7255 74.8255 11.5021 73.5619 9.61094C72.2983 7.71978 70.5022 6.24579 68.4009 5.37539C66.2995 4.50498 63.9872 4.27724 61.7565 4.72097C59.5257 5.1647 57.4766 6.25997 55.8683 7.86827C54.26 9.47658 53.1647 11.5257 52.721 13.7565C52.2772 15.9872 52.505 18.2995 53.3754 20.4009C54.2458 22.5022 55.7198 24.2983 57.6109 25.5619C59.5021 26.8255 61.7255 27.5 64 27.5C67.049 27.4967 69.9721 26.284 72.1281 24.1281C74.284 21.9721 75.4967 19.049 75.5 16Z" fill="currentColor"/>
<path d="M117.53 12.47C117.67 12.6106 117.749 12.8012 117.749 13C117.749 13.1988 117.67 13.3894 117.53 13.53L110.53 20.53C110.389 20.6705 110.199 20.7493 110 20.7493C109.801 20.7493 109.611 20.6705 109.47 20.53L106.47 17.53C106.338 17.3878 106.265 17.1998 106.269 17.0055C106.272 16.8112 106.351 16.6258 106.488 16.4884C106.626 16.351 106.811 16.2723 107.005 16.2688C107.2 16.2654 107.388 16.3375 107.53 16.47L110 18.9387L116.47 12.47C116.611 12.3295 116.801 12.2507 117 12.2507C117.199 12.2507 117.389 12.3295 117.53 12.47ZM124.75 16C124.75 18.5217 124.002 20.9868 122.601 23.0835C121.2 25.1802 119.209 26.8144 116.879 27.7795C114.549 28.7445 111.986 28.997 109.513 28.505C107.039 28.0131 104.768 26.7987 102.984 25.0156C101.201 23.2325 99.987 20.9607 99.495 18.4874C99.003 16.0141 99.2555 13.4505 100.221 11.1208C101.186 8.79103 102.82 6.79975 104.916 5.39876C107.013 3.99777 109.478 3.25 112 3.25C115.38 3.25397 118.621 4.59854 121.011 6.98877C123.401 9.379 124.746 12.6197 124.75 16ZM123.25 16C123.25 13.775 122.59 11.5999 121.354 9.74984C120.118 7.89978 118.361 6.45784 116.305 5.60636C114.25 4.75487 111.988 4.53208 109.805 4.96617C107.623 5.40025 105.618 6.47171 104.045 8.04505C102.472 9.61839 101.4 11.6229 100.966 13.8052C100.532 15.9875 100.755 18.2495 101.606 20.3052C102.458 22.3609 103.9 24.1179 105.75 25.354C107.6 26.5902 109.775 27.25 112 27.25C114.983 27.2467 117.842 26.0604 119.951 23.9513C122.06 21.8422 123.247 18.9827 123.25 16Z" fill="currentColor"/>
<path d="M166.061 11.9388C166.201 12.0781 166.312 12.2437 166.388 12.426C166.463 12.6083 166.502 12.8038 166.502 13.0013C166.502 13.1987 166.463 13.3942 166.388 13.5765C166.312 13.7588 166.201 13.9244 166.061 14.0638L159.061 21.0637C158.922 21.2036 158.756 21.3145 158.574 21.3903C158.392 21.466 158.196 21.5049 157.999 21.5049C157.801 21.5049 157.606 21.466 157.424 21.3903C157.241 21.3145 157.076 21.2036 156.936 21.0637L153.936 18.0637C153.797 17.9242 153.686 17.7586 153.611 17.5763C153.535 17.394 153.496 17.1986 153.496 17.0012C153.496 16.8039 153.535 16.6085 153.611 16.4262C153.686 16.2439 153.797 16.0783 153.936 15.9388C154.076 15.7992 154.241 15.6885 154.424 15.613C154.606 15.5375 154.801 15.4986 154.999 15.4986C155.196 15.4986 155.391 15.5375 155.574 15.613C155.756 15.6885 155.922 15.7992 156.061 15.9388L158 17.875L163.939 11.935C164.078 11.7958 164.244 11.6854 164.426 11.6103C164.608 11.5351 164.804 11.4966 165.001 11.4969C165.198 11.4973 165.393 11.5365 165.575 11.6123C165.757 11.6881 165.922 11.799 166.061 11.9388ZM173.5 16C173.5 18.67 172.708 21.2801 171.225 23.5002C169.741 25.7203 167.633 27.4506 165.166 28.4724C162.699 29.4942 159.985 29.7615 157.366 29.2406C154.748 28.7197 152.342 27.434 150.454 25.5459C148.566 23.6579 147.28 21.2525 146.759 18.6337C146.239 16.015 146.506 13.3006 147.528 10.8338C148.549 8.36697 150.28 6.25856 152.5 4.77516C154.72 3.29176 157.33 2.5 160 2.5C163.579 2.50397 167.011 3.92756 169.542 6.45844C172.072 8.98932 173.496 12.4208 173.5 16ZM170.5 16C170.5 13.9233 169.884 11.8932 168.73 10.1665C167.577 8.4398 165.937 7.09399 164.018 6.29926C162.1 5.50454 159.988 5.29661 157.952 5.70175C155.915 6.1069 154.044 7.10693 152.575 8.57538C151.107 10.0438 150.107 11.9148 149.702 13.9516C149.297 15.9884 149.505 18.0996 150.299 20.0182C151.094 21.9368 152.44 23.5767 154.167 24.7304C155.893 25.8842 157.923 26.5 160 26.5C162.784 26.497 165.453 25.3898 167.421 23.4213C169.39 21.4528 170.497 18.7839 170.5 16Z" fill="currentColor"/>
<path d="M208 3C205.429 3 202.915 3.76244 200.778 5.1909C198.64 6.61935 196.974 8.64968 195.99 11.0251C195.006 13.4006 194.748 16.0144 195.25 18.5362C195.751 21.0579 196.99 23.3743 198.808 25.1924C200.626 27.0105 202.942 28.2486 205.464 28.7502C207.986 29.2518 210.599 28.9944 212.975 28.0104C215.35 27.0265 217.381 25.3603 218.809 23.2224C220.238 21.0846 221 18.5712 221 16C220.996 12.5533 219.626 9.24882 217.188 6.81163C214.751 4.37445 211.447 3.00364 208 3ZM213.708 13.7075L206.708 20.7075C206.615 20.8005 206.504 20.8742 206.383 20.9246C206.262 20.9749 206.131 21.0008 206 21.0008C205.869 21.0008 205.738 20.9749 205.617 20.9246C205.496 20.8742 205.385 20.8005 205.293 20.7075L202.293 17.7075C202.105 17.5199 201.999 17.2654 201.999 17C201.999 16.7346 202.105 16.4801 202.293 16.2925C202.48 16.1049 202.735 15.9994 203 15.9994C203.265 15.9994 203.52 16.1049 203.708 16.2925L206 18.5863L212.293 12.2925C212.385 12.1996 212.496 12.1259 212.617 12.0756C212.739 12.0253 212.869 11.9994 213 11.9994C213.131 11.9994 213.262 12.0253 213.383 12.0756C213.504 12.1259 213.615 12.1996 213.708 12.2925C213.8 12.3854 213.874 12.4957 213.924 12.6171C213.975 12.7385 214.001 12.8686 214.001 13C214.001 13.1314 213.975 13.2615 213.924 13.3829C213.874 13.5043 213.8 13.6146 213.708 13.7075Z" fill="currentColor"/>
<path opacity="0.2" d="M268 16C268 18.3734 267.296 20.6935 265.978 22.6668C264.659 24.6402 262.785 26.1783 260.592 27.0866C258.399 27.9948 255.987 28.2324 253.659 27.7694C251.331 27.3064 249.193 26.1635 247.515 24.4853C245.836 22.8071 244.694 20.6689 244.231 18.3411C243.768 16.0133 244.005 13.6005 244.913 11.4078C245.822 9.21509 247.36 7.34094 249.333 6.02236C251.307 4.70379 253.627 4 256 4C259.183 4 262.235 5.26428 264.485 7.51472C266.736 9.76515 268 12.8174 268 16Z" fill="currentColor"/>
<path d="M261.708 12.2925C261.8 12.3854 261.874 12.4957 261.925 12.6171C261.975 12.7385 262.001 12.8686 262.001 13C262.001 13.1314 261.975 13.2615 261.925 13.3829C261.874 13.5043 261.8 13.6146 261.708 13.7075L254.708 20.7075C254.615 20.8005 254.504 20.8742 254.383 20.9246C254.262 20.9749 254.131 21.0008 254 21.0008C253.869 21.0008 253.738 20.9749 253.617 20.9246C253.496 20.8742 253.385 20.8005 253.293 20.7075L250.293 17.7075C250.105 17.5199 249.999 17.2654 249.999 17C249.999 16.7346 250.105 16.4801 250.293 16.2925C250.48 16.1049 250.735 15.9994 251 15.9994C251.265 15.9994 251.52 16.1049 251.708 16.2925L254 18.5863L260.293 12.2925C260.385 12.1995 260.496 12.1258 260.617 12.0754C260.738 12.0251 260.869 11.9992 261 11.9992C261.131 11.9992 261.262 12.0251 261.383 12.0754C261.504 12.1258 261.615 12.1995 261.708 12.2925ZM269 16C269 18.5712 268.238 21.0846 266.809 23.2224C265.381 25.3603 263.35 27.0265 260.975 28.0104C258.599 28.9944 255.986 29.2518 253.464 28.7502C250.942 28.2486 248.626 27.0105 246.808 25.1924C244.99 23.3743 243.751 21.0579 243.25 18.5362C242.748 16.0144 243.006 13.4006 243.99 11.0251C244.974 8.64968 246.64 6.61935 248.778 5.1909C250.915 3.76244 253.429 3 256 3C259.447 3.00364 262.751 4.37445 265.188 6.81163C267.626 9.24882 268.996 12.5533 269 16ZM267 16C267 13.8244 266.355 11.6977 265.146 9.88873C263.937 8.07979 262.22 6.66989 260.21 5.83733C258.2 5.00476 255.988 4.78692 253.854 5.21136C251.72 5.6358 249.76 6.68345 248.222 8.22183C246.683 9.7602 245.636 11.7202 245.211 13.854C244.787 15.9878 245.005 18.1995 245.837 20.2095C246.67 22.2195 248.08 23.9375 249.889 25.1462C251.698 26.3549 253.824 27 256 27C258.916 26.9967 261.712 25.8367 263.775 23.7745C265.837 21.7123 266.997 18.9164 267 16Z" fill="currentColor"/>
</g>
<defs>
<clipPath id="clip0_17_11911">
<rect width="272" height="32" rx="5" fill="white"/>
</clipPath>
</defs>
</svg>
