<svg width="272" height="32" viewBox="0 0 272 32" fill="none" xmlns="http://www.w3.org/2000/svg">
<g clip-path="url(#clip0_17_11869)">
<path d="M28.0001 6V26C28.0001 26.5304 27.7894 27.0391 27.4143 27.4142C27.0392 27.7893 26.5305 28 26.0001 28H17.0001C16.7349 28 16.4805 27.8946 16.293 27.7071C16.1054 27.5196 16.0001 27.2652 16.0001 27C16.0001 26.7348 16.1054 26.4804 16.293 26.2929C16.4805 26.1054 16.7349 26 17.0001 26H26.0001V6H6.00007V18C6.00007 18.2652 5.89471 18.5196 5.70717 18.7071C5.51964 18.8946 5.26528 19 5.00007 19C4.73485 19 4.4805 18.8946 4.29296 18.7071C4.10542 18.5196 4.00007 18.2652 4.00007 18V6C4.00007 5.46957 4.21078 4.96086 4.58585 4.58579C4.96093 4.21071 5.46963 4 6.00007 4H26.0001C26.5305 4 27.0392 4.21071 27.4143 4.58579C27.7894 4.96086 28.0001 5.46957 28.0001 6ZM15.7076 19.2925C15.6147 19.1995 15.5044 19.1258 15.383 19.0754C15.2616 19.0251 15.1315 18.9992 15.0001 18.9992C14.8687 18.9992 14.7385 19.0251 14.6171 19.0754C14.4957 19.1258 14.3854 19.1995 14.2926 19.2925L8.00007 25.5863L5.70757 23.2925C5.61466 23.1996 5.50436 23.1259 5.38296 23.0756C5.26157 23.0253 5.13146 22.9994 5.00007 22.9994C4.86867 22.9994 4.73856 23.0253 4.61717 23.0756C4.49578 23.1259 4.38548 23.1996 4.29257 23.2925C4.19966 23.3854 4.12596 23.4957 4.07567 23.6171C4.02539 23.7385 3.99951 23.8686 3.99951 24C3.99951 24.1314 4.02539 24.2615 4.07567 24.3829C4.12596 24.5043 4.19966 24.6146 4.29257 24.7075L7.29257 27.7075C7.38544 27.8005 7.49573 27.8742 7.61713 27.9246C7.73853 27.9749 7.86865 28.0008 8.00007 28.0008C8.13148 28.0008 8.26161 27.9749 8.38301 27.9246C8.50441 27.8742 8.6147 27.8005 8.70757 27.7075L15.7076 20.7075C15.8005 20.6146 15.8743 20.5043 15.9246 20.3829C15.975 20.2615 16.0009 20.1314 16.0009 20C16.0009 19.8686 15.975 19.7385 15.9246 19.6171C15.8743 19.4957 15.8005 19.3854 15.7076 19.2925Z" fill="currentColor"/>
<path d="M75.5 6V26C75.5 26.3978 75.342 26.7794 75.0607 27.0607C74.7794 27.342 74.3979 27.5 74 27.5H65C64.8674 27.5 64.7402 27.4473 64.6465 27.3536C64.5527 27.2598 64.5 27.1326 64.5 27C64.5 26.8674 64.5527 26.7402 64.6465 26.6464C64.7402 26.5527 64.8674 26.5 65 26.5H74C74.1326 26.5 74.2598 26.4473 74.3536 26.3536C74.4474 26.2598 74.5 26.1326 74.5 26V6C74.5 5.86739 74.4474 5.74021 74.3536 5.64645C74.2598 5.55268 74.1326 5.5 74 5.5H54C53.8674 5.5 53.7402 5.55268 53.6465 5.64645C53.5527 5.74021 53.5 5.86739 53.5 6V18C53.5 18.1326 53.4474 18.2598 53.3536 18.3536C53.2598 18.4473 53.1326 18.5 53 18.5C52.8674 18.5 52.7402 18.4473 52.6465 18.3536C52.5527 18.2598 52.5 18.1326 52.5 18V6C52.5 5.60218 52.6581 5.22064 52.9394 4.93934C53.2207 4.65804 53.6022 4.5 54 4.5H74C74.3979 4.5 74.7794 4.65804 75.0607 4.93934C75.342 5.22064 75.5 5.60218 75.5 6ZM62.6463 19.6462L56 26.2925L53.3538 23.6462C53.26 23.5524 53.1327 23.4997 53 23.4997C52.8674 23.4997 52.7401 23.5524 52.6463 23.6462C52.5525 23.7401 52.4998 23.8673 52.4998 24C52.4998 24.1327 52.5525 24.2599 52.6463 24.3538L55.6463 27.3538C55.6927 27.4002 55.7479 27.4371 55.8086 27.4623C55.8693 27.4874 55.9343 27.5004 56 27.5004C56.0657 27.5004 56.1308 27.4874 56.1915 27.4623C56.2522 27.4371 56.3073 27.4002 56.3538 27.3538L63.3538 20.3538C63.4476 20.2599 63.5003 20.1327 63.5003 20C63.5003 19.8673 63.4476 19.7401 63.3538 19.6462C63.26 19.5524 63.1327 19.4997 63 19.4997C62.8674 19.4997 62.7401 19.5524 62.6463 19.6462Z" fill="currentColor"/>
<path d="M123.75 6V26C123.75 26.4641 123.566 26.9092 123.237 27.2374C122.909 27.5656 122.464 27.75 122 27.75H113C112.801 27.75 112.61 27.671 112.47 27.5303C112.329 27.3897 112.25 27.1989 112.25 27C112.25 26.8011 112.329 26.6103 112.47 26.4697C112.61 26.329 112.801 26.25 113 26.25H122C122.066 26.25 122.13 26.2237 122.177 26.1768C122.224 26.1299 122.25 26.0663 122.25 26V6C122.25 5.9337 122.224 5.87011 122.177 5.82322C122.13 5.77634 122.066 5.75 122 5.75H102C101.934 5.75 101.87 5.77634 101.823 5.82322C101.776 5.87011 101.75 5.9337 101.75 6V18C101.75 18.1989 101.671 18.3897 101.53 18.5303C101.39 18.671 101.199 18.75 101 18.75C100.801 18.75 100.61 18.671 100.47 18.5303C100.329 18.3897 100.25 18.1989 100.25 18V6C100.25 5.53587 100.434 5.09075 100.763 4.76256C101.091 4.43437 101.536 4.25 102 4.25H122C122.464 4.25 122.909 4.43437 123.237 4.76256C123.566 5.09075 123.75 5.53587 123.75 6ZM110.47 19.47L104 25.9387L101.53 23.47C101.388 23.3375 101.2 23.2654 101.005 23.2688C100.811 23.2723 100.626 23.351 100.488 23.4884C100.351 23.6258 100.272 23.8112 100.269 24.0055C100.265 24.1998 100.338 24.3878 100.47 24.53L103.47 27.53C103.611 27.6705 103.801 27.7493 104 27.7493C104.199 27.7493 104.389 27.6705 104.53 27.53L111.53 20.53C111.662 20.3878 111.735 20.1998 111.731 20.0055C111.728 19.8112 111.649 19.6258 111.512 19.4884C111.374 19.351 111.189 19.2723 110.995 19.2688C110.8 19.2654 110.612 19.3375 110.47 19.47Z" fill="currentColor"/>
<path d="M172.5 6V26C172.5 26.663 172.237 27.2989 171.768 27.7678C171.299 28.2366 170.663 28.5 170 28.5H161.5C161.102 28.5 160.721 28.342 160.439 28.0607C160.158 27.7794 160 27.3978 160 27C160 26.6022 160.158 26.2206 160.439 25.9393C160.721 25.658 161.102 25.5 161.5 25.5H169.5V6.5H150.5V17.5C150.5 17.8978 150.342 18.2794 150.061 18.5607C149.779 18.842 149.398 19 149 19C148.602 19 148.221 18.842 147.939 18.5607C147.658 18.2794 147.5 17.8978 147.5 17.5V6C147.5 5.33696 147.763 4.70107 148.232 4.23223C148.701 3.76339 149.337 3.5 150 3.5H170C170.663 3.5 171.299 3.76339 171.768 4.23223C172.237 4.70107 172.5 5.33696 172.5 6ZM160.061 18.9387C159.922 18.7989 159.756 18.688 159.574 18.6122C159.392 18.5365 159.196 18.4976 158.999 18.4976C158.801 18.4976 158.606 18.5365 158.423 18.6122C158.241 18.688 158.076 18.7989 157.936 18.9387L152 24.875L150.061 22.9387C149.922 22.7992 149.756 22.6885 149.574 22.613C149.391 22.5375 149.196 22.4986 148.999 22.4986C148.801 22.4986 148.606 22.5375 148.424 22.613C148.241 22.6885 148.076 22.7992 147.936 22.9387C147.797 23.0783 147.686 23.2439 147.61 23.4262C147.535 23.6085 147.496 23.8039 147.496 24.0012C147.496 24.1986 147.535 24.394 147.61 24.5763C147.686 24.7586 147.797 24.9242 147.936 25.0637L150.936 28.0637C151.076 28.2036 151.241 28.3145 151.423 28.3903C151.606 28.466 151.801 28.5049 151.999 28.5049C152.196 28.5049 152.392 28.466 152.574 28.3903C152.756 28.3145 152.922 28.2036 153.061 28.0637L160.061 21.0637C160.201 20.9244 160.312 20.7588 160.388 20.5765C160.463 20.3941 160.502 20.1987 160.502 20.0012C160.502 19.8038 160.463 19.6083 160.388 19.426C160.312 19.2437 160.201 19.0781 160.061 18.9387Z" fill="currentColor"/>
<path d="M207.708 20.7075L200.708 27.7075C200.615 27.8005 200.504 27.8742 200.383 27.9246C200.262 27.9749 200.131 28.0008 200 28.0008C199.869 28.0008 199.739 27.9749 199.617 27.9246C199.496 27.8742 199.385 27.8005 199.293 27.7075L196.293 24.7075C196.2 24.6146 196.126 24.5043 196.076 24.3829C196.025 24.2615 196 24.1314 196 24C196 23.8686 196.025 23.7385 196.076 23.6171C196.126 23.4957 196.2 23.3854 196.293 23.2925C196.385 23.1996 196.496 23.1259 196.617 23.0756C196.739 23.0253 196.869 22.9994 197 22.9994C197.131 22.9994 197.262 23.0253 197.383 23.0756C197.504 23.1259 197.615 23.1996 197.708 23.2925L200 25.5863L206.293 19.2925C206.48 19.1049 206.735 18.9994 207 18.9994C207.265 18.9994 207.52 19.1049 207.708 19.2925C207.895 19.4801 208.001 19.7346 208.001 20C208.001 20.2654 207.895 20.5199 207.708 20.7075ZM218 4H198C197.47 4 196.961 4.21071 196.586 4.58579C196.211 4.96086 196 5.46957 196 6V19.5287C196 19.599 196.014 19.6685 196.042 19.7327C196.071 19.797 196.112 19.8546 196.164 19.9017C196.216 19.9489 196.277 19.9846 196.344 20.0065C196.411 20.0284 196.481 20.0359 196.551 20.0287C197.149 19.9611 197.753 20.0289 198.321 20.2271C198.888 20.4254 199.404 20.7489 199.829 21.1737C199.851 21.1964 199.878 21.2143 199.907 21.2265C199.937 21.2388 199.968 21.2451 200 21.2451C200.032 21.2451 200.063 21.2388 200.093 21.2265C200.122 21.2143 200.149 21.1964 200.171 21.1737L204.171 17.1737C204.922 16.4235 205.939 16.002 207 16.002C208.061 16.002 209.079 16.4235 209.829 17.1737C210.579 17.924 211.001 18.9415 211.001 20.0025C211.001 21.0635 210.579 22.081 209.829 22.8312L205.51 27.1488C205.44 27.2187 205.392 27.3078 205.373 27.4048C205.354 27.5019 205.364 27.6025 205.402 27.6939C205.439 27.7853 205.504 27.8634 205.586 27.9184C205.668 27.9733 205.765 28.0026 205.864 28.0025H218C218.531 28.0025 219.039 27.7918 219.414 27.4167C219.789 27.0416 220 26.5329 220 26.0025V6C220 5.46957 219.789 4.96086 219.414 4.58579C219.039 4.21071 218.531 4 218 4Z" fill="currentColor"/>
<path opacity="0.2" d="M267 6V26C267 26.2652 266.895 26.5196 266.707 26.7071C266.52 26.8946 266.265 27 266 27H248L245 24V6C245 5.73478 245.105 5.48043 245.293 5.29289C245.48 5.10536 245.735 5 246 5H266C266.265 5 266.52 5.10536 266.707 5.29289C266.895 5.48043 267 5.73478 267 6Z" fill="currentColor"/>
<path d="M268 6V26C268 26.5304 267.789 27.0391 267.414 27.4142C267.039 27.7893 266.531 28 266 28H257C256.735 28 256.48 27.8946 256.293 27.7071C256.105 27.5196 256 27.2652 256 27C256 26.7348 256.105 26.4804 256.293 26.2929C256.48 26.1054 256.735 26 257 26H266V6H246V18C246 18.2652 245.895 18.5196 245.707 18.7071C245.52 18.8946 245.265 19 245 19C244.735 19 244.48 18.8946 244.293 18.7071C244.105 18.5196 244 18.2652 244 18V6C244 5.46957 244.211 4.96086 244.586 4.58579C244.961 4.21071 245.47 4 246 4H266C266.531 4 267.039 4.21071 267.414 4.58579C267.789 4.96086 268 5.46957 268 6ZM255.708 19.2925C255.615 19.1995 255.504 19.1258 255.383 19.0754C255.262 19.0251 255.131 18.9992 255 18.9992C254.869 18.9992 254.739 19.0251 254.617 19.0754C254.496 19.1258 254.385 19.1995 254.293 19.2925L248 25.5863L245.708 23.2925C245.615 23.1996 245.504 23.1259 245.383 23.0756C245.262 23.0253 245.131 22.9994 245 22.9994C244.869 22.9994 244.739 23.0253 244.617 23.0756C244.496 23.1259 244.385 23.1996 244.293 23.2925C244.2 23.3854 244.126 23.4957 244.076 23.6171C244.025 23.7385 244 23.8686 244 24C244 24.1314 244.025 24.2615 244.076 24.3829C244.126 24.5043 244.2 24.6146 244.293 24.7075L247.293 27.7075C247.385 27.8005 247.496 27.8742 247.617 27.9246C247.739 27.9749 247.869 28.0008 248 28.0008C248.131 28.0008 248.262 27.9749 248.383 27.9246C248.504 27.8742 248.615 27.8005 248.708 27.7075L255.708 20.7075C255.801 20.6146 255.874 20.5043 255.925 20.3829C255.975 20.2615 256.001 20.1314 256.001 20C256.001 19.8686 255.975 19.7385 255.925 19.6171C255.874 19.4957 255.801 19.3854 255.708 19.2925Z" fill="currentColor"/>
</g>
<defs>
<clipPath id="clip0_17_11869">
<rect width="272" height="32" rx="5" fill="white"/>
</clipPath>
</defs>
</svg>
