<svg width="272" height="32" viewBox="0 0 272 32" fill="none" xmlns="http://www.w3.org/2000/svg">
<g clip-path="url(#clip0_17_11855)">
<path d="M18.7012 10.7139L7.50115 21.7139C7.31412 21.8978 7.06226 22.0009 6.79991 22.0009C6.53755 22.0009 6.2857 21.8978 6.09866 21.7139L1.29866 17.0001C1.20501 16.908 1.13041 16.7984 1.07913 16.6775C1.02785 16.5566 1.00089 16.4267 0.999791 16.2954C0.998688 16.164 1.02347 16.0338 1.07271 15.912C1.12195 15.7903 1.19469 15.6794 1.28678 15.5857C1.37887 15.4921 1.4885 15.4175 1.60942 15.3662C1.73034 15.3149 1.86017 15.288 1.99151 15.2869C2.12285 15.2858 2.25311 15.3105 2.37487 15.3598C2.49664 15.409 2.60751 15.4818 2.70116 15.5739L6.79991 19.5989L17.2999 9.28636C17.4892 9.10038 17.7446 8.99721 18.01 8.99955C18.1414 9.00071 18.2713 9.02774 18.3922 9.0791C18.5132 9.13045 18.6228 9.20513 18.7149 9.29886C18.807 9.39259 18.8797 9.50354 18.9289 9.62538C18.9781 9.74722 19.0029 9.87755 19.0017 10.0089C19.0005 10.1403 18.9735 10.2702 18.9222 10.3912C18.8708 10.5121 18.7961 10.6218 18.7024 10.7139H18.7012ZM30.7137 9.29886C30.6216 9.20506 30.512 9.13032 30.391 9.07892C30.2701 9.02752 30.1402 9.00047 30.0087 8.99931C29.8773 8.99815 29.747 9.0229 29.6251 9.07215C29.5033 9.12141 29.3923 9.1942 29.2987 9.28636L18.7987 19.5989L16.4449 17.2864C16.2556 17.1005 16.0002 16.9975 15.735 17C15.4698 17.0025 15.2163 17.1102 15.0305 17.2995C14.8447 17.4888 14.7417 17.7441 14.7442 18.0094C14.7466 18.2746 14.8544 18.528 15.0437 18.7139L18.0974 21.7139C18.2844 21.8978 18.5363 22.0009 18.7987 22.0009C19.061 22.0009 19.3129 21.8978 19.4999 21.7139L30.6999 10.7139C30.7938 10.6219 30.8686 10.5123 30.9201 10.3914C30.9716 10.2705 30.9988 10.1406 31.0001 10.0092C31.0014 9.87779 30.9767 9.74741 30.9276 9.62552C30.8784 9.50364 30.8057 9.39263 30.7137 9.29886Z" fill="currentColor"/>
<path d="M66.3501 10.3562L55.1501 21.3562C55.0566 21.4478 54.931 21.4991 54.8001 21.4991C54.6692 21.4991 54.5436 21.4478 54.4501 21.3562L49.6501 16.6424C49.5591 16.5488 49.5083 16.4233 49.5085 16.2928C49.5088 16.1622 49.5602 16.037 49.6516 15.9437C49.743 15.8505 49.8672 15.7968 49.9978 15.794C50.1283 15.7911 50.2547 15.8395 50.3501 15.9287L54.8001 20.3037L65.6501 9.64867C65.7459 9.56322 65.871 9.51792 65.9994 9.52216C66.1277 9.52641 66.2495 9.57987 66.3395 9.67148C66.4295 9.76308 66.4808 9.8858 66.4828 10.0142C66.4847 10.1426 66.4372 10.2668 66.3501 10.3612V10.3562ZM78.3501 9.64992C78.2564 9.55642 78.1294 9.50391 77.997 9.50391C77.8646 9.50391 77.7376 9.55642 77.6438 9.64992L66.7938 20.3049L64.0901 17.6499C64.0437 17.602 63.9882 17.5638 63.9269 17.5377C63.8655 17.5115 63.7996 17.4979 63.7329 17.4976C63.6662 17.4974 63.6001 17.5104 63.5386 17.5361C63.477 17.5617 63.4212 17.5994 63.3744 17.6469C63.3277 17.6944 63.2909 17.7508 63.2662 17.8128C63.2416 17.8748 63.2296 17.941 63.2309 18.0077C63.2322 18.0744 63.2469 18.1401 63.274 18.201C63.3012 18.2619 63.3402 18.3168 63.3888 18.3624L66.4438 21.3624C66.5373 21.454 66.663 21.5054 66.7938 21.5054C66.9247 21.5054 67.0504 21.454 67.1438 21.3624L78.3438 10.3624C78.3919 10.3167 78.4304 10.2619 78.4571 10.2012C78.4838 10.1405 78.4981 10.0751 78.4993 10.0088C78.5005 9.94248 78.4884 9.87661 78.4639 9.815C78.4393 9.75339 78.4028 9.69727 78.3563 9.64992H78.3501Z" fill="currentColor"/>
<path d="M114.525 10.5351L103.325 21.5351C103.185 21.6725 102.996 21.7495 102.8 21.7495C102.604 21.7495 102.415 21.6725 102.275 21.5351L97.475 16.8213C97.4047 16.7524 97.3486 16.6702 97.31 16.5796C97.2714 16.489 97.251 16.3917 97.25 16.2932C97.2491 16.1947 97.2675 16.097 97.3043 16.0056C97.341 15.9143 97.3954 15.831 97.4644 15.7607C97.5333 15.6904 97.6155 15.6343 97.7061 15.5957C97.7967 15.5571 97.894 15.5367 97.9925 15.5357C98.091 15.5347 98.1887 15.5531 98.2801 15.5899C98.3714 15.6267 98.4547 15.6811 98.525 15.7501L102.8 19.9476L113.475 9.46381C113.544 9.39093 113.628 9.33275 113.72 9.29275C113.812 9.25275 113.912 9.23174 114.013 9.23098C114.113 9.23022 114.213 9.24972 114.306 9.28832C114.399 9.32692 114.483 9.38382 114.554 9.45565C114.624 9.52748 114.679 9.61276 114.716 9.70642C114.753 9.80007 114.771 9.90018 114.768 10.0008C114.765 10.1014 114.742 10.2004 114.701 10.292C114.659 10.3836 114.599 10.4658 114.525 10.5338V10.5351ZM126.535 9.47506C126.396 9.33328 126.206 9.25259 126.007 9.25071C125.808 9.24884 125.617 9.32593 125.475 9.46506L114.8 19.9488L112.271 17.4651C112.201 17.396 112.118 17.3415 112.027 17.3046C111.935 17.2678 111.837 17.2492 111.739 17.2501C111.641 17.251 111.543 17.2712 111.453 17.3097C111.362 17.3482 111.28 17.4042 111.211 17.4744C111.142 17.5447 111.087 17.6279 111.05 17.7192C111.013 17.8105 110.995 17.9082 110.996 18.0067C110.997 18.1052 111.017 18.2025 111.055 18.2932C111.094 18.3839 111.15 18.466 111.22 18.5351L114.275 21.5351C114.415 21.6725 114.604 21.7495 114.8 21.7495C114.996 21.7495 115.185 21.6725 115.325 21.5351L126.525 10.5351C126.667 10.3958 126.747 10.2059 126.749 10.0071C126.751 9.80838 126.674 9.61701 126.535 9.47506Z" fill="currentColor"/>
<path d="M163.051 11.07L151.851 22.07C151.571 22.3456 151.193 22.5 150.8 22.5C150.407 22.5 150.029 22.3456 149.749 22.07L144.949 17.3563C144.808 17.2182 144.696 17.0538 144.619 16.8725C144.542 16.6911 144.501 16.4964 144.5 16.2994C144.496 15.9014 144.651 15.5183 144.929 15.2344C145.067 15.0938 145.232 14.9818 145.413 14.9047C145.594 14.8276 145.789 14.7871 145.986 14.7853C146.384 14.7816 146.767 14.9362 147.051 15.215L150.801 18.8975L160.95 8.93003C161.234 8.65122 161.617 8.49656 162.014 8.50007C162.412 8.50359 162.792 8.66499 163.071 8.94877C163.35 9.23256 163.505 9.61547 163.501 10.0133C163.498 10.4111 163.336 10.7912 163.052 11.07H163.051ZM175.07 8.94502C174.932 8.80395 174.767 8.69153 174.586 8.6142C174.404 8.53688 174.209 8.49619 174.011 8.49444C173.814 8.4927 173.618 8.52995 173.435 8.60405C173.252 8.67816 173.086 8.78766 172.945 8.92628L162.8 18.8975L161.815 17.93C161.531 17.6512 161.148 17.4966 160.75 17.5001C160.353 17.5036 159.973 17.665 159.694 17.9488C159.415 18.2326 159.26 18.6155 159.264 19.0133C159.267 19.4111 159.429 19.7912 159.712 20.07L161.749 22.07C162.029 22.3456 162.407 22.5 162.8 22.5C163.193 22.5 163.571 22.3456 163.851 22.07L175.051 11.07C175.192 10.932 175.304 10.7676 175.381 10.5863C175.458 10.405 175.498 10.2103 175.5 10.0133C175.502 9.81631 175.465 9.62092 175.391 9.43827C175.317 9.25562 175.208 9.08929 175.07 8.94877V8.94502Z" fill="currentColor"/>
<path d="M220 6H196C195.47 6 194.961 6.21071 194.586 6.58579C194.211 6.96086 194 7.46957 194 8V24C194 24.5304 194.211 25.0391 194.586 25.4142C194.961 25.7893 195.47 26 196 26H220C220.53 26 221.039 25.7893 221.414 25.4142C221.789 25.0391 222 24.5304 222 24V8C222 7.46957 221.789 6.96086 221.414 6.58579C221.039 6.21071 220.53 6 220 6ZM202 20C201.869 20.0001 201.739 19.9743 201.617 19.9241C201.496 19.8739 201.385 19.8003 201.292 19.7075L198.293 16.7075C198.105 16.5199 197.999 16.2654 197.999 16C197.999 15.7346 198.105 15.4801 198.293 15.2925C198.48 15.1049 198.735 14.9994 199 14.9994C199.265 14.9994 199.52 15.1049 199.707 15.2925L202 17.5863L208.292 11.2925C208.385 11.1996 208.496 11.1259 208.617 11.0756C208.738 11.0253 208.869 10.9994 209 10.9994C209.131 10.9994 209.262 11.0253 209.383 11.0756C209.504 11.1259 209.615 11.1996 209.708 11.2925C209.8 11.3854 209.874 11.4957 209.924 11.6171C209.975 11.7385 210.001 11.8686 210.001 12C210.001 12.1314 209.975 12.2615 209.924 12.3829C209.874 12.5043 209.8 12.6146 209.708 12.7075L202.708 19.7075C202.615 19.8003 202.504 19.8739 202.383 19.9241C202.261 19.9743 202.131 20.0001 202 20ZM218.708 12.7075L211.708 19.7075C211.615 19.8005 211.504 19.8742 211.383 19.9246C211.262 19.9749 211.131 20.0008 211 20.0008C210.869 20.0008 210.738 19.9749 210.617 19.9246C210.496 19.8742 210.385 19.8005 210.292 19.7075L208.292 17.7075C208.105 17.5199 207.999 17.2654 207.999 17C207.999 16.7346 208.105 16.4801 208.292 16.2925C208.48 16.1049 208.735 15.9994 209 15.9994C209.265 15.9994 209.52 16.1049 209.708 16.2925L211 17.5863L217.292 11.2925C217.385 11.1996 217.496 11.1259 217.617 11.0756C217.738 11.0253 217.869 10.9994 218 10.9994C218.131 10.9994 218.262 11.0253 218.383 11.0756C218.504 11.1259 218.615 11.1996 218.708 11.2925C218.8 11.3854 218.874 11.4957 218.924 11.6171C218.975 11.7385 219.001 11.8686 219.001 12C219.001 12.1314 218.975 12.2615 218.924 12.3829C218.874 12.5043 218.8 12.6146 218.708 12.7075Z" fill="currentColor"/>
<path opacity="0.2" d="M270 8V24C270 24.5304 269.789 25.0391 269.414 25.4142C269.039 25.7893 268.53 26 268 26H244C243.47 26 242.961 25.7893 242.586 25.4142C242.211 25.0391 242 24.5304 242 24V8C242 7.46957 242.211 6.96086 242.586 6.58579C242.961 6.21071 243.47 6 244 6H268C268.53 6 269.039 6.21071 269.414 6.58579C269.789 6.96086 270 7.46957 270 8Z" fill="currentColor"/>
<path d="M257.708 12.7076L250.708 19.7076C250.615 19.8005 250.504 19.8743 250.383 19.9246C250.262 19.9749 250.131 20.0008 250 20.0008C249.869 20.0008 249.739 19.9749 249.617 19.9246C249.496 19.8743 249.385 19.8005 249.293 19.7076L246.293 16.7076C246.105 16.5199 246 16.2654 246 16.0001C246 15.7347 246.105 15.4802 246.293 15.2926C246.48 15.1049 246.735 14.9995 247 14.9995C247.265 14.9995 247.52 15.1049 247.708 15.2926L250 17.5863L256.293 11.2926C256.385 11.1996 256.496 11.1259 256.617 11.0757C256.739 11.0254 256.869 10.9995 257 10.9995C257.131 10.9995 257.262 11.0254 257.383 11.0757C257.504 11.1259 257.615 11.1996 257.708 11.2926C257.8 11.3855 257.874 11.4958 257.924 11.6172C257.975 11.7386 258.001 11.8687 258.001 12.0001C258.001 12.1314 257.975 12.2616 257.924 12.383C257.874 12.5043 257.8 12.6146 257.708 12.7076ZM266.708 11.2926C266.615 11.1996 266.504 11.1258 266.383 11.0755C266.262 11.0252 266.131 10.9993 266 10.9993C265.869 10.9993 265.739 11.0252 265.617 11.0755C265.496 11.1258 265.385 11.1996 265.293 11.2926L259 17.5863L257.708 16.2926C257.52 16.1049 257.265 15.9995 257 15.9995C256.735 15.9995 256.48 16.1049 256.293 16.2926C256.105 16.4802 256 16.7347 256 17.0001C256 17.2654 256.105 17.5199 256.293 17.7076L258.293 19.7076C258.385 19.8005 258.496 19.8743 258.617 19.9246C258.739 19.9749 258.869 20.0008 259 20.0008C259.131 20.0008 259.262 19.9749 259.383 19.9246C259.504 19.8743 259.615 19.8005 259.708 19.7076L266.708 12.7076C266.801 12.6147 266.874 12.5044 266.925 12.383C266.975 12.2616 267.001 12.1315 267.001 12.0001C267.001 11.8686 266.975 11.7385 266.925 11.6171C266.874 11.4957 266.801 11.3854 266.708 11.2926Z" fill="currentColor"/>
</g>
<defs>
<clipPath id="clip0_17_11855">
<rect width="272" height="32" rx="5" fill="white"/>
</clipPath>
</defs>
</svg>
