<svg width="272" height="32" viewBox="0 0 272 32" fill="none" xmlns="http://www.w3.org/2000/svg">
<g clip-path="url(#clip0_17_11784)">
<path d="M6.74 4.32758C6.65218 4.22859 6.54559 4.14801 6.4264 4.09052C6.30721 4.03303 6.1778 3.99976 6.04566 3.99265C5.91352 3.98555 5.78128 4.00473 5.65661 4.04911C5.53194 4.09348 5.41732 4.16216 5.31939 4.25116C5.22146 4.34016 5.14216 4.44771 5.0861 4.56758C5.03004 4.68745 4.99833 4.81725 4.99281 4.94947C4.98728 5.08168 5.00806 5.21368 5.05392 5.33781C5.09979 5.46194 5.16983 5.57573 5.26 5.67258L10.165 11.0688L10.1575 11.0838C9.77416 11.0284 9.38734 11.0004 9 11.0001C6.87827 11.0001 4.84344 11.8429 3.34315 13.3432C1.84285 14.8435 1 16.8784 1 19.0001C1 21.1218 1.84285 23.1566 3.34315 24.6569C4.84344 26.1572 6.87827 27.0001 9 27.0001H20C21.3596 27.0027 22.7077 26.7513 23.975 26.2588L25.26 27.6726C25.3478 27.7716 25.4544 27.8522 25.5736 27.9096C25.6928 27.9671 25.8222 28.0004 25.9543 28.0075C26.0865 28.0146 26.2187 27.9954 26.3434 27.9511C26.4681 27.9067 26.5827 27.838 26.6806 27.749C26.7785 27.66 26.8578 27.5525 26.9139 27.4326C26.97 27.3127 27.0017 27.1829 27.0072 27.0507C27.0127 26.9185 26.9919 26.7865 26.9461 26.6624C26.9002 26.5382 26.8302 26.4244 26.74 26.3276L6.74 4.32758ZM20 25.0001H9C7.4087 25.0001 5.88258 24.3679 4.75736 23.2427C3.63214 22.1175 3 20.5914 3 19.0001C3 17.4088 3.63214 15.8827 4.75736 14.7574C5.88258 13.6322 7.4087 13.0001 9 13.0001C9.1375 13.0001 9.275 13.0001 9.4125 13.0151C9.13934 13.9866 9.00055 14.9909 9 16.0001C9 16.2653 9.10536 16.5197 9.29289 16.7072C9.48043 16.8947 9.73478 17.0001 10 17.0001C10.2652 17.0001 10.5196 16.8947 10.7071 16.7072C10.8946 16.5197 11 16.2653 11 16.0001C11.0004 14.8643 11.2149 13.7388 11.6325 12.6826L22.5075 24.6451C21.6927 24.8816 20.8484 25.0011 20 25.0001ZM31 16.0001C31.0016 18.7027 30.0069 21.311 28.2062 23.3263C28.026 23.5069 27.7835 23.6117 27.5284 23.6193C27.2734 23.6269 27.0251 23.5368 26.8343 23.3673C26.6436 23.1978 26.5249 22.9618 26.5025 22.7076C26.48 22.4535 26.5556 22.2003 26.7138 22.0001C28.1993 20.341 29.0169 18.19 29.0086 15.9631C29.0003 13.7362 28.1667 11.5914 26.6689 9.94336C25.171 8.29536 23.1154 7.2612 20.8994 7.04079C18.6834 6.82039 16.4643 7.4294 14.6713 8.75008C14.5655 8.82789 14.4454 8.8841 14.3178 8.9155C14.1903 8.9469 14.0579 8.95287 13.928 8.93308C13.7982 8.91329 13.6736 8.86812 13.5612 8.80016C13.4488 8.73219 13.3509 8.64276 13.2731 8.53696C13.116 8.32329 13.0502 8.05596 13.0901 7.79376C13.1301 7.53156 13.2726 7.29597 13.4862 7.13883C15.1249 5.9347 17.0652 5.20834 19.0917 5.04043C21.1182 4.87252 23.1516 5.26964 24.9661 6.18768C26.7805 7.10571 28.305 8.50873 29.3702 10.2409C30.4353 11.9731 30.9995 13.9666 31 16.0001Z" fill="currentColor"/>
<path d="M54.375 4.66376C54.2858 4.56431 54.1608 4.50435 54.0274 4.49708C53.894 4.48982 53.7632 4.53584 53.6638 4.62501C53.5643 4.71419 53.5043 4.83923 53.4971 4.97261C53.4898 5.106 53.5358 5.23681 53.625 5.33626L58.77 10.9913C58.655 11.2038 58.5471 11.42 58.4463 11.64C57.4199 11.4389 56.3629 11.4546 55.343 11.6862C54.3231 11.9178 53.363 12.3602 52.5242 12.9849C51.6854 13.6096 50.9865 14.4028 50.4724 15.3136C49.9584 16.2243 49.6405 17.2326 49.5392 18.2735C49.4379 19.3144 49.5554 20.3651 49.8842 21.3579C50.213 22.3507 50.7458 23.2638 51.4484 24.0385C52.151 24.8132 53.0078 25.4324 53.9639 25.8563C54.92 26.2802 55.9542 26.4995 57 26.5H68C69.4126 26.5033 70.811 26.2188 72.11 25.6638L73.625 27.3363C73.6689 27.3858 73.7222 27.426 73.7818 27.4548C73.8414 27.4835 73.9061 27.5002 73.9722 27.5037C74.0383 27.5073 74.1044 27.4977 74.1667 27.4755C74.229 27.4533 74.2864 27.419 74.3353 27.3745C74.3843 27.33 74.4239 27.2762 74.452 27.2163C74.48 27.1563 74.4958 27.0914 74.4986 27.0253C74.5014 26.9592 74.491 26.8932 74.4681 26.8312C74.4451 26.7691 74.4101 26.7122 74.365 26.6638L54.375 4.66376ZM68 25.5H57C55.2761 25.5 53.6228 24.8152 52.4038 23.5962C51.1848 22.3772 50.5 20.7239 50.5 19C50.5 17.2761 51.1848 15.6228 52.4038 14.4038C53.6228 13.1848 55.2761 12.5 57 12.5C57.3577 12.5011 57.7147 12.5312 58.0675 12.59C57.6917 13.6876 57.5 14.8398 57.5 16C57.5 16.1326 57.5527 16.2598 57.6465 16.3536C57.7402 16.4473 57.8674 16.5 58 16.5C58.1326 16.5 58.2598 16.4473 58.3536 16.3536C58.4473 16.2598 58.5 16.1326 58.5 16C58.4996 14.536 58.8376 13.0918 59.4875 11.78L71.3913 24.875C70.3089 25.2902 69.1593 25.5021 68 25.5ZM78.5 16C78.5015 18.5797 77.5518 21.0693 75.8325 22.9925C75.7888 23.0418 75.7357 23.0819 75.6765 23.1107C75.6172 23.1394 75.5529 23.1562 75.4871 23.1601C75.4214 23.164 75.3555 23.1549 75.2933 23.1333C75.231 23.1118 75.1736 23.0781 75.1244 23.0344C75.0751 22.9906 75.035 22.9376 75.0062 22.8784C74.9775 22.8191 74.9607 22.7548 74.9568 22.689C74.9529 22.6232 74.962 22.5574 74.9836 22.4951C75.0051 22.4329 75.0388 22.3755 75.0825 22.3263C76.6429 20.5741 77.4996 18.3065 77.4878 15.9603C77.4759 13.6141 76.5962 11.3553 75.0183 9.61901C73.4403 7.88271 71.2756 6.79176 68.9412 6.5563C66.6069 6.32085 64.2679 6.95755 62.375 8.34376C62.3221 8.38267 62.262 8.41076 62.1982 8.42645C62.1344 8.44213 62.0681 8.4451 62.0032 8.43517C61.9382 8.42525 61.8759 8.40263 61.8197 8.36861C61.7635 8.33459 61.7145 8.28983 61.6756 8.23689C61.6367 8.18395 61.6086 8.12387 61.593 8.06007C61.5773 7.99627 61.5743 7.93001 61.5842 7.86507C61.5942 7.80012 61.6168 7.73777 61.6508 7.68157C61.6848 7.62537 61.7296 7.57642 61.7825 7.53751C63.3469 6.38796 65.1994 5.69462 67.1341 5.53452C69.0689 5.37443 71.0101 5.75386 72.7422 6.63065C74.4743 7.50743 75.9294 8.84725 76.9458 10.5013C77.9623 12.1552 78.5002 14.0587 78.5 16Z" fill="currentColor"/>
<path d="M102.555 4.5001C102.418 4.37266 102.238 4.30122 102.05 4.29983C101.863 4.29843 101.682 4.3672 101.543 4.49258C101.404 4.61797 101.316 4.79091 101.298 4.97736C101.28 5.16382 101.333 5.35029 101.445 5.5001L106.468 11.0251C106.411 11.1339 106.355 11.2439 106.303 11.3551C105.247 11.1796 104.166 11.2246 103.129 11.4873C102.091 11.7501 101.12 12.2248 100.275 12.8816C99.4299 13.5385 98.7302 14.3632 98.2198 15.3038C97.7094 16.2443 97.3993 17.2805 97.3091 18.3468C97.2189 19.4132 97.3505 20.4866 97.6956 21.4996C98.0407 22.5126 98.5919 23.4431 99.3145 24.2326C100.037 25.022 100.915 25.6533 101.894 26.0865C102.872 26.5198 103.93 26.7458 105 26.7501H116C117.386 26.7532 118.76 26.4857 120.044 25.9626L121.445 27.5001C121.579 27.6473 121.766 27.7353 121.965 27.7446C122.163 27.754 122.358 27.684 122.505 27.5501C122.652 27.4162 122.74 27.2292 122.75 27.0305C122.759 26.8317 122.689 26.6373 122.555 26.4901L102.555 4.5001ZM116 25.2501H105C104.147 25.2516 103.303 25.0786 102.52 24.7417C101.736 24.4047 101.03 23.911 100.445 23.291C99.8591 22.6709 99.4067 21.9375 99.1153 21.1361C98.8238 20.3346 98.6995 19.482 98.7499 18.6307C98.8003 17.7794 99.0244 16.9474 99.4084 16.1859C99.7924 15.4244 100.328 14.7496 100.983 14.203C101.637 13.6563 102.397 13.2494 103.215 13.0073C104.032 12.7652 104.891 12.693 105.738 12.7951C105.414 13.8328 105.25 14.9133 105.25 16.0001C105.25 16.199 105.329 16.3898 105.47 16.5304C105.61 16.6711 105.801 16.7501 106 16.7501C106.199 16.7501 106.39 16.6711 106.53 16.5304C106.671 16.3898 106.75 16.199 106.75 16.0001C106.75 14.6991 107.024 13.4127 107.555 12.2251L118.958 24.7676C118.005 25.0889 117.006 25.2519 116 25.2501ZM126.75 16.0001C126.752 18.6411 125.779 21.19 124.019 23.1589C123.948 23.2375 123.862 23.3004 123.766 23.3435C123.67 23.3865 123.565 23.4088 123.46 23.4089C123.315 23.4088 123.174 23.3669 123.052 23.2881C122.931 23.2093 122.835 23.0971 122.776 22.9649C122.717 22.8328 122.697 22.6863 122.719 22.5433C122.742 22.4003 122.805 22.2668 122.901 22.1589C124.423 20.453 125.259 18.2442 125.248 15.9584C125.237 13.6726 124.381 11.4717 122.843 9.78023C121.306 8.08873 119.196 7.02639 116.922 6.79809C114.648 6.56978 112.369 7.19168 110.526 8.54385C110.447 8.60221 110.357 8.64436 110.261 8.6679C110.165 8.69145 110.066 8.69591 109.969 8.68106C109.871 8.6662 109.778 8.63231 109.694 8.58131C109.609 8.53032 109.536 8.46322 109.478 8.38385C109.419 8.30449 109.377 8.2144 109.353 8.11874C109.33 8.02309 109.325 7.92373 109.34 7.82634C109.37 7.62966 109.477 7.45296 109.638 7.3351C111.239 6.15899 113.136 5.44985 115.116 5.28645C117.096 5.12304 119.083 5.51177 120.856 6.40945C122.629 7.30713 124.118 8.67864 125.159 10.3717C126.199 12.0647 126.75 14.013 126.75 16.0001Z" fill="currentColor"/>
<path d="M151.11 3.99113C150.978 3.84264 150.818 3.72178 150.64 3.63554C150.461 3.5493 150.267 3.4994 150.068 3.48874C149.87 3.47808 149.672 3.50686 149.485 3.57342C149.298 3.63998 149.126 3.74299 148.979 3.87649C148.832 4.00999 148.713 4.17132 148.629 4.35112C148.545 4.53093 148.497 4.72563 148.489 4.92396C148.481 5.12228 148.512 5.32027 148.581 5.50647C148.65 5.69266 148.755 5.86335 148.89 6.00863L152.974 10.4999C150.719 10.5034 148.559 11.4022 146.967 12.9988C145.376 14.5953 144.483 16.7587 144.487 19.013C144.49 21.2673 145.389 23.428 146.986 25.0196C148.582 26.6112 150.746 27.5034 153 27.4999H164C165.306 27.5025 166.602 27.2809 167.832 26.8449L168.89 28.0086C169.159 28.2975 169.531 28.4688 169.925 28.4853C170.32 28.5017 170.705 28.3621 170.997 28.0967C171.289 27.8312 171.464 27.4613 171.486 27.0672C171.507 26.673 171.372 26.2864 171.11 25.9911L151.11 3.99113ZM164 24.4999H153C151.567 24.4908 150.194 23.9227 149.173 22.9165C148.153 21.9102 147.565 20.5454 147.536 19.1125C147.507 17.6797 148.038 16.2919 149.016 15.2448C149.995 14.1977 151.343 13.5738 152.775 13.5061C152.593 14.3249 152.5 15.1611 152.5 15.9999C152.5 16.3977 152.658 16.7792 152.939 17.0605C153.221 17.3418 153.602 17.4999 154 17.4999C154.398 17.4999 154.779 17.3418 155.061 17.0605C155.342 16.7792 155.5 16.3977 155.5 15.9999C155.5 15.2032 155.612 14.4105 155.832 13.6449L165.567 24.3536C165.051 24.4503 164.526 24.4993 164 24.4999ZM175.5 15.9999C175.505 18.4256 174.738 20.7899 173.309 22.7499C173.194 22.9128 173.049 23.0514 172.88 23.1575C172.712 23.2636 172.524 23.3351 172.327 23.3678C172.131 23.4005 171.93 23.3938 171.736 23.3481C171.543 23.3024 171.36 23.2186 171.199 23.1015C171.038 22.9844 170.902 22.8365 170.798 22.6663C170.695 22.4961 170.627 22.307 170.597 22.1101C170.568 21.9132 170.578 21.7124 170.627 21.5195C170.676 21.3265 170.763 21.1452 170.882 20.9861C172.031 19.405 172.599 17.4765 172.492 15.5252C172.385 13.574 171.609 11.7192 170.295 10.2732C168.98 8.82724 167.208 7.87834 165.275 7.5863C163.343 7.29427 161.369 7.67694 159.686 8.66988C159.344 8.86097 158.941 8.91077 158.563 8.80862C158.185 8.70648 157.862 8.46049 157.663 8.12325C157.464 7.786 157.404 7.38423 157.497 7.00381C157.591 6.62338 157.829 6.29448 158.161 6.08738C159.908 5.05783 161.896 4.50852 163.924 4.49515C165.952 4.48178 167.947 5.00483 169.708 6.01126C171.468 7.01769 172.931 8.47171 173.948 10.2259C174.966 11.9801 175.501 13.9721 175.5 15.9999Z" fill="currentColor"/>
<path d="M198.74 4.32758C198.652 4.22859 198.546 4.14801 198.426 4.09052C198.307 4.03303 198.178 3.99976 198.046 3.99265C197.913 3.98555 197.781 4.00473 197.657 4.04911C197.532 4.09348 197.417 4.16216 197.319 4.25116C197.221 4.34016 197.142 4.44771 197.086 4.56758C197.03 4.68745 196.998 4.81725 196.993 4.94947C196.987 5.08168 197.008 5.21368 197.054 5.33781C197.1 5.46194 197.17 5.57573 197.26 5.67258L202.165 11.0688L202.157 11.0838C201.07 10.9252 199.961 10.9924 198.9 11.2813C197.84 11.5702 196.85 12.0745 195.993 12.7629C195.136 13.4512 194.43 14.3088 193.919 15.2821C193.409 16.2554 193.104 17.3235 193.024 18.4198C192.944 19.5161 193.091 20.6171 193.456 21.6541C193.821 22.6911 194.395 23.6417 195.144 24.4468C195.892 25.2519 196.798 25.8942 197.806 26.3335C198.813 26.7727 199.901 26.9997 201 27.0001H212C213.36 27.0027 214.708 26.7513 215.975 26.2588L217.26 27.6726C217.348 27.7716 217.454 27.8522 217.574 27.9096C217.693 27.9671 217.822 28.0004 217.954 28.0075C218.086 28.0146 218.219 27.9954 218.343 27.9511C218.468 27.9067 218.583 27.838 218.681 27.749C218.779 27.66 218.858 27.5525 218.914 27.4326C218.97 27.3127 219.002 27.1829 219.007 27.0507C219.013 26.9185 218.992 26.7865 218.946 26.6624C218.9 26.5382 218.83 26.4244 218.74 26.3276L198.74 4.32758Z" fill="currentColor"/>
<path d="M212 5.00004C209.656 4.99403 207.372 5.7426 205.486 7.13504C205.373 7.21801 205.279 7.32378 205.21 7.4455C205.14 7.56722 205.097 7.70216 205.083 7.84158C205.069 7.981 205.085 8.12179 205.129 8.25482C205.173 8.38785 205.244 8.51015 205.339 8.61379L218.72 23.3325C218.814 23.4357 218.928 23.5181 219.055 23.5745C219.183 23.6309 219.321 23.66 219.46 23.66C219.6 23.6596 219.739 23.6296 219.867 23.5721C219.995 23.5146 220.109 23.4309 220.202 23.3263C221.616 21.7431 222.541 19.7848 222.867 17.6875C223.193 15.5902 222.904 13.4435 222.037 11.5062C221.17 9.56899 219.761 7.92396 217.98 6.76953C216.199 5.6151 214.122 5.00057 212 5.00004Z" fill="currentColor"/>
<path opacity="0.2" d="M270 15.9999C270 18.6521 268.946 21.1956 267.071 23.071C265.196 24.9463 262.652 25.9999 260 25.9999H249C248.007 25.9987 247.026 25.7864 246.122 25.3771C245.218 24.9679 244.411 24.371 243.755 23.6261C243.099 22.8812 242.609 22.0053 242.317 21.0565C242.026 20.1078 241.939 19.1079 242.064 18.1231C242.188 17.1384 242.52 16.1914 243.039 15.3449C243.557 14.4984 244.249 13.7718 245.07 13.2133C245.89 12.6548 246.82 12.2771 247.798 12.1054C248.775 11.9337 249.778 11.9719 250.74 12.2174V12.2299C251.615 10.0835 253.208 8.30781 255.248 7.20635C257.287 6.1049 259.646 5.74612 261.921 6.19138C264.196 6.63664 266.245 7.85828 267.719 9.64741C269.192 11.4365 269.999 13.682 270 15.9999Z" fill="currentColor"/>
<path d="M246.74 4.32758C246.652 4.22859 246.546 4.14801 246.426 4.09052C246.307 4.03303 246.178 3.99976 246.046 3.99265C245.914 3.98555 245.781 4.00473 245.657 4.04911C245.532 4.09348 245.417 4.16216 245.319 4.25116C245.221 4.34016 245.142 4.44771 245.086 4.56758C245.03 4.68745 244.998 4.81725 244.993 4.94947C244.987 5.08168 245.008 5.21368 245.054 5.33781C245.1 5.46194 245.17 5.57573 245.26 5.67258L250.165 11.0688L250.158 11.0838C249.774 11.0284 249.387 11.0004 249 11.0001C246.878 11.0001 244.843 11.8429 243.343 13.3432C241.843 14.8435 241 16.8784 241 19.0001C241 21.1218 241.843 23.1566 243.343 24.6569C244.843 26.1572 246.878 27.0001 249 27.0001H260C261.36 27.0027 262.708 26.7513 263.975 26.2588L265.26 27.6726C265.348 27.7716 265.454 27.8522 265.574 27.9096C265.693 27.9671 265.822 28.0004 265.954 28.0075C266.086 28.0146 266.219 27.9954 266.343 27.9511C266.468 27.9067 266.583 27.838 266.681 27.749C266.779 27.66 266.858 27.5525 266.914 27.4326C266.97 27.3127 267.002 27.1829 267.007 27.0507C267.013 26.9185 266.992 26.7865 266.946 26.6624C266.9 26.5382 266.83 26.4244 266.74 26.3276L246.74 4.32758ZM260 25.0001H249C247.409 25.0001 245.883 24.3679 244.757 23.2427C243.632 22.1175 243 20.5914 243 19.0001C243 17.4088 243.632 15.8827 244.757 14.7574C245.883 13.6322 247.409 13.0001 249 13.0001C249.137 13.0001 249.275 13.0001 249.413 13.0151C249.139 13.9866 249.001 14.9909 249 16.0001C249 16.2653 249.105 16.5197 249.293 16.7072C249.48 16.8947 249.735 17.0001 250 17.0001C250.265 17.0001 250.52 16.8947 250.707 16.7072C250.895 16.5197 251 16.2653 251 16.0001C251 14.8643 251.215 13.7388 251.632 12.6826L262.507 24.6451C261.693 24.8816 260.848 25.0011 260 25.0001ZM271 16.0001C271.002 18.7027 270.007 21.311 268.206 23.3263C268.026 23.5069 267.783 23.6117 267.528 23.6193C267.273 23.6269 267.025 23.5368 266.834 23.3673C266.644 23.1978 266.525 22.9618 266.502 22.7076C266.48 22.4535 266.556 22.2003 266.714 22.0001C268.199 20.341 269.017 18.19 269.009 15.9631C269 13.7362 268.167 11.5914 266.669 9.94336C265.171 8.29536 263.115 7.2612 260.899 7.04079C258.683 6.82039 256.464 7.4294 254.671 8.75008C254.565 8.82789 254.445 8.8841 254.318 8.9155C254.19 8.9469 254.058 8.95287 253.928 8.93308C253.798 8.91329 253.674 8.86812 253.561 8.80016C253.449 8.73219 253.351 8.64276 253.273 8.53696C253.116 8.32329 253.05 8.05596 253.09 7.79376C253.13 7.53156 253.273 7.29597 253.486 7.13883C255.125 5.9347 257.065 5.20834 259.092 5.04043C261.118 4.87252 263.152 5.26964 264.966 6.18768C266.781 7.10571 268.305 8.50873 269.37 10.2409C270.435 11.9731 270.999 13.9666 271 16.0001Z" fill="currentColor"/>
</g>
<defs>
<clipPath id="clip0_17_11784">
<rect width="272" height="32" rx="5" fill="white"/>
</clipPath>
</defs>
</svg>
