<svg width="272" height="32" viewBox="0 0 272 32" fill="none" xmlns="http://www.w3.org/2000/svg">
<g clip-path="url(#clip0_17_11770)">
<path d="M20.0001 5C17.9572 5.00157 15.955 5.57142 14.2175 6.64582C12.48 7.72023 11.0756 9.25682 10.1614 11.0837C9.07382 10.9251 7.96525 10.9923 6.90481 11.2811C5.84437 11.5699 4.85481 12.0741 3.99785 12.7622C3.14089 13.4504 2.43491 14.3077 1.92395 15.2808C1.413 16.2538 1.10802 17.3217 1.02804 18.4179C0.94807 19.514 1.09481 20.6149 1.45912 21.6518C1.82343 22.6887 2.39749 23.6395 3.14549 24.4447C3.8935 25.2499 4.7994 25.8924 5.80669 26.3321C6.81398 26.7717 7.90106 26.9991 9.00012 27H20.0001C22.9175 27 25.7154 25.8411 27.7783 23.7782C29.8412 21.7153 31.0001 18.9174 31.0001 16C31.0001 13.0826 29.8412 10.2847 27.7783 8.22183C25.7154 6.15893 22.9175 5 20.0001 5ZM20.0001 25H9.00012C7.40882 25 5.8827 24.3679 4.75748 23.2426C3.63226 22.1174 3.00012 20.5913 3.00012 19C3.00012 17.4087 3.63226 15.8826 4.75748 14.7574C5.8827 13.6321 7.40882 13 9.00012 13C9.13762 13 9.27512 13 9.41137 13.0138C9.1379 13.9856 8.99951 14.9904 9.00012 16C9.00012 16.2652 9.10547 16.5196 9.29301 16.7071C9.48055 16.8946 9.7349 17 10.0001 17C10.2653 17 10.5197 16.8946 10.7072 16.7071C10.8948 16.5196 11.0001 16.2652 11.0001 16C11.0001 14.22 11.528 12.4799 12.5169 10.9999C13.5058 9.51982 14.9114 8.36627 16.556 7.68508C18.2005 7.0039 20.0101 6.82567 21.7559 7.17293C23.5018 7.5202 25.1054 8.37737 26.3641 9.63604C27.6228 10.8947 28.4799 12.4984 28.8272 14.2442C29.1745 15.99 28.9962 17.7996 28.315 19.4442C27.6338 21.0887 26.4803 22.4943 25.0002 23.4832C23.5202 24.4722 21.7801 25 20.0001 25ZM19.0001 16V11C19.0001 10.7348 19.1055 10.4804 19.293 10.2929C19.4805 10.1054 19.7349 10 20.0001 10C20.2653 10 20.5197 10.1054 20.7072 10.2929C20.8948 10.4804 21.0001 10.7348 21.0001 11V16C21.0001 16.2652 20.8948 16.5196 20.7072 16.7071C20.5197 16.8946 20.2653 17 20.0001 17C19.7349 17 19.4805 16.8946 19.293 16.7071C19.1055 16.5196 19.0001 16.2652 19.0001 16ZM21.5001 20.5C21.5001 20.7967 21.4121 21.0867 21.2473 21.3334C21.0825 21.58 20.8482 21.7723 20.5741 21.8858C20.3001 21.9993 19.9985 22.0291 19.7075 21.9712C19.4165 21.9133 19.1492 21.7704 18.9395 21.5607C18.7297 21.3509 18.5868 21.0836 18.5289 20.7926C18.4711 20.5017 18.5008 20.2001 18.6143 19.926C18.7278 19.6519 18.9201 19.4176 19.1668 19.2528C19.4134 19.088 19.7034 19 20.0001 19C20.3979 19 20.7795 19.158 21.0608 19.4393C21.3421 19.7206 21.5001 20.1022 21.5001 20.5Z" fill="currentColor"/>
<path d="M68 5.5C65.9873 5.50183 64.0173 6.08137 62.3242 7.16977C60.6312 8.25817 59.2861 9.80968 58.4487 11.64C57.9714 11.547 57.4863 11.5001 57 11.5C55.0109 11.5 53.1032 12.2902 51.6967 13.6967C50.2902 15.1032 49.5 17.0109 49.5 19C49.5 20.9891 50.2902 22.8968 51.6967 24.3033C53.1032 25.7098 55.0109 26.5 57 26.5H68C70.7848 26.5 73.4555 25.3938 75.4246 23.4246C77.3938 21.4555 78.5 18.7848 78.5 16C78.5 13.2152 77.3938 10.5445 75.4246 8.57538C73.4555 6.60625 70.7848 5.5 68 5.5ZM68 25.5H57C56.1017 25.4992 55.2133 25.3122 54.3909 24.9508C53.5685 24.5895 52.83 24.0616 52.2219 23.4004C51.6137 22.7393 51.1492 21.9593 50.8577 21.1096C50.5661 20.2599 50.4539 19.3591 50.528 18.4638C50.6021 17.5686 50.8609 16.6985 51.2882 15.9083C51.7155 15.1181 52.3019 14.4251 53.0104 13.8729C53.719 13.3208 54.5343 12.9215 55.4049 12.7002C56.2755 12.479 57.1826 12.4406 58.0688 12.5875C57.691 13.6855 57.4988 14.8388 57.5 16C57.5 16.1326 57.5527 16.2598 57.6464 16.3536C57.7402 16.4473 57.8674 16.5 58 16.5C58.1326 16.5 58.2598 16.4473 58.3536 16.3536C58.4473 16.2598 58.5 16.1326 58.5 16C58.5 14.1211 59.0572 12.2843 60.101 10.7221C61.1449 9.15982 62.6286 7.94218 64.3645 7.22314C66.1004 6.50411 68.0105 6.31598 69.8534 6.68254C71.6962 7.0491 73.3889 7.95389 74.7175 9.28249C76.0461 10.6111 76.9509 12.3038 77.3175 14.1466C77.684 15.9895 77.4959 17.8996 76.7769 19.6355C76.0578 21.3714 74.8402 22.8551 73.2779 23.899C71.7157 24.9428 69.8789 25.5 68 25.5ZM67.5 16V11C67.5 10.8674 67.5527 10.7402 67.6464 10.6464C67.7402 10.5527 67.8674 10.5 68 10.5C68.1326 10.5 68.2598 10.5527 68.3536 10.6464C68.4473 10.7402 68.5 10.8674 68.5 11V16C68.5 16.1326 68.4473 16.2598 68.3536 16.3536C68.2598 16.4473 68.1326 16.5 68 16.5C67.8674 16.5 67.7402 16.4473 67.6464 16.3536C67.5527 16.2598 67.5 16.1326 67.5 16ZM69 20.5C69 20.6978 68.9414 20.8911 68.8315 21.0556C68.7216 21.22 68.5654 21.3482 68.3827 21.4239C68.2 21.4996 67.9989 21.5194 67.8049 21.4808C67.6109 21.4422 67.4327 21.347 67.2929 21.2071C67.153 21.0673 67.0578 20.8891 67.0192 20.6951C66.9806 20.5011 67.0004 20.3 67.0761 20.1173C67.1518 19.9346 67.28 19.7784 67.4444 19.6685C67.6089 19.5586 67.8022 19.5 68 19.5C68.2652 19.5 68.5196 19.6054 68.7071 19.7929C68.8946 19.9804 69 20.2348 69 20.5Z" fill="currentColor"/>
<path d="M116 5.25C113.972 5.25178 111.987 5.82624 110.271 6.90721C108.556 7.98817 107.18 9.53169 106.304 11.36C105.246 11.1799 104.163 11.2213 103.122 11.4815C102.082 11.7418 101.107 12.2152 100.258 12.8719C99.4102 13.5285 98.7076 14.3541 98.1949 15.2963C97.6823 16.2386 97.3709 17.277 97.2803 18.3458C97.1898 19.4146 97.3221 20.4906 97.6689 21.5057C98.0157 22.5207 98.5695 23.4527 99.2951 24.2427C100.021 25.0327 100.902 25.6634 101.884 26.095C102.866 26.5266 103.927 26.7496 105 26.75H116C118.851 26.75 121.585 25.6174 123.601 23.6014C125.617 21.5854 126.75 18.8511 126.75 16C126.75 13.1489 125.617 10.4146 123.601 8.3986C121.585 6.38259 118.851 5.25 116 5.25ZM116 25.25H105C103.342 25.25 101.753 24.5915 100.581 23.4194C99.4085 22.2473 98.75 20.6576 98.75 19C98.75 17.3424 99.4085 15.7527 100.581 14.5806C101.753 13.4085 103.342 12.75 105 12.75C105.247 12.7502 105.494 12.7648 105.739 12.7937C105.414 13.8315 105.249 14.9126 105.25 16C105.25 16.1989 105.329 16.3897 105.47 16.5303C105.61 16.671 105.801 16.75 106 16.75C106.199 16.75 106.39 16.671 106.53 16.5303C106.671 16.3897 106.75 16.1989 106.75 16C106.75 14.1705 107.293 12.3821 108.309 10.861C109.325 9.33982 110.77 8.15423 112.46 7.45411C114.15 6.754 116.01 6.57082 117.805 6.92774C119.599 7.28465 121.247 8.16563 122.541 9.45926C123.834 10.7529 124.715 12.4011 125.072 14.1954C125.429 15.9897 125.246 17.8496 124.546 19.5398C123.846 21.23 122.66 22.6747 121.139 23.6911C119.618 24.7075 117.83 25.25 116 25.25ZM115.25 16V11C115.25 10.8011 115.329 10.6103 115.47 10.4697C115.61 10.329 115.801 10.25 116 10.25C116.199 10.25 116.39 10.329 116.53 10.4697C116.671 10.6103 116.75 10.8011 116.75 11V16C116.75 16.1989 116.671 16.3897 116.53 16.5303C116.39 16.671 116.199 16.75 116 16.75C115.801 16.75 115.61 16.671 115.47 16.5303C115.329 16.3897 115.25 16.1989 115.25 16ZM117.25 20.5C117.25 20.7472 117.177 20.9889 117.039 21.1945C116.902 21.4 116.707 21.5602 116.478 21.6549C116.25 21.7495 115.999 21.7742 115.756 21.726C115.514 21.6777 115.291 21.5587 115.116 21.3839C114.941 21.2091 114.822 20.9863 114.774 20.7439C114.726 20.5014 114.751 20.2501 114.845 20.0216C114.94 19.7932 115.1 19.598 115.306 19.4607C115.511 19.3233 115.753 19.25 116 19.25C116.332 19.25 116.65 19.3817 116.884 19.6161C117.118 19.8505 117.25 20.1685 117.25 20.5Z" fill="currentColor"/>
<path d="M164 4.5C161.924 4.50101 159.887 5.06337 158.105 6.12754C156.322 7.1917 154.861 8.71806 153.875 10.545C152.728 10.4265 151.569 10.5426 150.468 10.8862C149.368 11.2298 148.349 11.7937 147.473 12.5437C146.597 13.2936 145.883 14.2139 145.374 15.2485C144.865 16.2831 144.572 17.4105 144.513 18.5619C144.453 19.7134 144.629 20.8649 145.028 21.9464C145.428 23.0279 146.044 24.0168 146.838 24.8529C147.632 25.689 148.587 26.3549 149.647 26.8099C150.706 27.265 151.847 27.4998 153 27.5H164C167.05 27.5 169.975 26.2884 172.132 24.1317C174.288 21.9751 175.5 19.05 175.5 16C175.5 12.95 174.288 10.0249 172.132 7.86827C169.975 5.7116 167.05 4.5 164 4.5ZM164 24.5H153C151.541 24.5302 150.13 23.9796 149.078 22.9695C148.025 21.9594 147.416 20.5724 147.386 19.1138C147.356 17.6551 147.907 16.2441 148.917 15.1913C149.927 14.1386 151.314 13.5302 152.772 13.5C152.59 14.3208 152.499 15.1592 152.5 16C152.5 16.3978 152.658 16.7794 152.939 17.0607C153.221 17.342 153.602 17.5 154 17.5C154.398 17.5 154.779 17.342 155.061 17.0607C155.342 16.7794 155.5 16.3978 155.5 16C155.5 14.3189 155.998 12.6755 156.932 11.2777C157.866 9.87984 159.194 8.79037 160.747 8.14702C162.3 7.50368 164.009 7.33535 165.658 7.66333C167.307 7.9913 168.822 8.80085 170.01 9.98959C171.199 11.1783 172.009 12.6929 172.337 14.3417C172.665 15.9906 172.496 17.6996 171.853 19.2528C171.21 20.806 170.12 22.1335 168.722 23.0675C167.324 24.0015 165.681 24.5 164 24.5ZM162.5 15V11C162.5 10.6022 162.658 10.2206 162.939 9.93934C163.221 9.65804 163.602 9.5 164 9.5C164.398 9.5 164.779 9.65804 165.061 9.93934C165.342 10.2206 165.5 10.6022 165.5 11V15C165.5 15.3978 165.342 15.7794 165.061 16.0607C164.779 16.342 164.398 16.5 164 16.5C163.602 16.5 163.221 16.342 162.939 16.0607C162.658 15.7794 162.5 15.3978 162.5 15ZM166 20C166 20.3956 165.883 20.7822 165.663 21.1111C165.443 21.44 165.131 21.6964 164.765 21.8478C164.4 21.9991 163.998 22.0387 163.61 21.9616C163.222 21.8844 162.865 21.6939 162.586 21.4142C162.306 21.1345 162.116 20.7781 162.038 20.3902C161.961 20.0022 162.001 19.6001 162.152 19.2346C162.304 18.8692 162.56 18.5568 162.889 18.3371C163.218 18.1173 163.604 18 164 18C164.53 18 165.039 18.2107 165.414 18.5858C165.789 18.9609 166 19.4696 166 20Z" fill="currentColor"/>
<path d="M222.991 15.565C222.764 9.6925 217.884 5 212.007 5C209.963 5.00032 207.96 5.56958 206.221 6.64404C204.482 7.71851 203.076 9.25577 202.161 11.0837C201.401 12.5992 201.003 14.2707 201 15.9663C201.004 16.2239 200.91 16.4735 200.738 16.6652C200.566 16.8568 200.328 16.9764 200.071 17C199.934 17.0098 199.796 16.9912 199.667 16.9453C199.537 16.8995 199.418 16.8274 199.318 16.7335C199.217 16.6397 199.137 16.5261 199.082 16.3999C199.028 16.2737 199 16.1375 199 16C198.999 14.6013 199.224 13.2116 199.668 11.885C199.697 11.7999 199.702 11.7086 199.684 11.6205C199.666 11.5325 199.624 11.451 199.563 11.3848C199.502 11.3185 199.425 11.2698 199.339 11.2439C199.253 11.218 199.161 11.2158 199.074 11.2375C197.341 11.6694 195.802 12.6678 194.702 14.0742C193.601 15.4805 193.002 17.2143 193 19C193 23.3988 196.719 27 201.125 27H212C213.481 26.9984 214.946 26.6982 216.308 26.1173C217.67 25.5364 218.901 24.6868 219.927 23.6193C220.953 22.5518 221.753 21.2883 222.28 19.9044C222.806 18.5205 223.048 17.0446 222.991 15.565ZM211 11C211 10.7348 211.105 10.4804 211.293 10.2929C211.48 10.1054 211.735 10 212 10C212.265 10 212.52 10.1054 212.707 10.2929C212.895 10.4804 213 10.7348 213 11V16C213 16.2652 212.895 16.5196 212.707 16.7071C212.52 16.8946 212.265 17 212 17C211.735 17 211.48 16.8946 211.293 16.7071C211.105 16.5196 211 16.2652 211 16V11ZM212 22C211.703 22 211.413 21.912 211.167 21.7472C210.92 21.5824 210.728 21.3481 210.614 21.074C210.501 20.7999 210.471 20.4983 210.529 20.2074C210.587 19.9164 210.73 19.6491 210.939 19.4393C211.149 19.2296 211.416 19.0867 211.707 19.0288C211.998 18.9709 212.3 19.0007 212.574 19.1142C212.848 19.2277 213.082 19.42 213.247 19.6666C213.412 19.9133 213.5 20.2033 213.5 20.5C213.5 20.8978 213.342 21.2794 213.061 21.5607C212.779 21.842 212.398 22 212 22Z" fill="currentColor"/>
<path opacity="0.2" d="M270 15.9525C270 18.6047 268.946 21.1483 267.071 23.0236C265.196 24.899 262.652 25.9525 260 25.9525H249C248.007 25.9513 247.026 25.739 246.122 25.3298C245.218 24.9205 244.411 24.3236 243.755 23.5787C243.099 22.8338 242.609 21.9579 242.317 21.0092C242.026 20.0604 241.939 19.0605 242.064 18.0758C242.188 17.091 242.52 16.144 243.039 15.2975C243.557 14.451 244.249 13.7244 245.07 13.1659C245.89 12.6074 246.82 12.2298 247.798 12.0581C248.775 11.8864 249.778 11.9246 250.74 12.17V12.1825C251.615 10.0362 253.208 8.26045 255.248 7.15899C257.287 6.05753 259.646 5.69876 261.921 6.14402C264.196 6.58928 266.245 7.81092 267.719 9.60004C269.192 11.3892 269.999 13.6347 270 15.9525Z" fill="currentColor"/>
<path d="M260 5C257.957 5.00157 255.955 5.57142 254.218 6.64582C252.48 7.72023 251.076 9.25682 250.161 11.0837C249.074 10.9251 247.965 10.9923 246.905 11.2811C245.844 11.5699 244.855 12.0741 243.998 12.7622C243.141 13.4504 242.435 14.3077 241.924 15.2808C241.413 16.2538 241.108 17.3217 241.028 18.4179C240.948 19.514 241.095 20.6149 241.459 21.6518C241.823 22.6887 242.397 23.6395 243.145 24.4447C243.893 25.2499 244.799 25.8924 245.807 26.3321C246.814 26.7717 247.901 26.9991 249 27H260C262.917 27 265.715 25.8411 267.778 23.7782C269.841 21.7153 271 18.9174 271 16C271 13.0826 269.841 10.2847 267.778 8.22183C265.715 6.15893 262.917 5 260 5ZM260 25H249C247.409 25 245.883 24.3679 244.757 23.2426C243.632 22.1174 243 20.5913 243 19C243 17.4087 243.632 15.8826 244.757 14.7574C245.883 13.6321 247.409 13 249 13C249.138 13 249.275 13 249.411 13.0138C249.138 13.9856 249 14.9904 249 16C249 16.2652 249.105 16.5196 249.293 16.7071C249.481 16.8946 249.735 17 250 17C250.265 17 250.52 16.8946 250.707 16.7071C250.895 16.5196 251 16.2652 251 16C251 14.22 251.528 12.4799 252.517 10.9999C253.506 9.51982 254.911 8.36627 256.556 7.68508C258.201 7.0039 260.01 6.82567 261.756 7.17293C263.502 7.5202 265.105 8.37737 266.364 9.63604C267.623 10.8947 268.48 12.4984 268.827 14.2442C269.174 15.99 268.996 17.7996 268.315 19.4442C267.634 21.0887 266.48 22.4943 265 23.4832C263.52 24.4722 261.78 25 260 25ZM259 16V11C259 10.7348 259.105 10.4804 259.293 10.2929C259.481 10.1054 259.735 10 260 10C260.265 10 260.52 10.1054 260.707 10.2929C260.895 10.4804 261 10.7348 261 11V16C261 16.2652 260.895 16.5196 260.707 16.7071C260.52 16.8946 260.265 17 260 17C259.735 17 259.481 16.8946 259.293 16.7071C259.105 16.5196 259 16.2652 259 16ZM261.5 20.5C261.5 20.7967 261.412 21.0867 261.247 21.3334C261.083 21.58 260.848 21.7723 260.574 21.8858C260.3 21.9993 259.998 22.0291 259.707 21.9712C259.417 21.9133 259.149 21.7704 258.939 21.5607C258.73 21.3509 258.587 21.0836 258.529 20.7926C258.471 20.5017 258.501 20.2001 258.614 19.926C258.728 19.6519 258.92 19.4176 259.167 19.2528C259.413 19.088 259.703 19 260 19C260.398 19 260.779 19.158 261.061 19.4393C261.342 19.7206 261.5 20.1022 261.5 20.5Z" fill="currentColor"/>
</g>
<defs>
<clipPath id="clip0_17_11770">
<rect width="272" height="32" rx="5" fill="white"/>
</clipPath>
</defs>
</svg>
