<svg width="272" height="32" viewBox="0 0 272 32" fill="none" xmlns="http://www.w3.org/2000/svg">
<g clip-path="url(#clip0_17_11742)">
<path d="M22.5 18H20V14H22.5C23.39 14 24.26 13.7361 25.0001 13.2416C25.7401 12.7471 26.3169 12.0443 26.6575 11.2221C26.9981 10.3998 27.0872 9.49501 26.9135 8.6221C26.7399 7.74918 26.3113 6.94736 25.682 6.31802C25.0526 5.68868 24.2508 5.2601 23.3779 5.08647C22.505 4.91283 21.6002 5.00195 20.7779 5.34254C19.9557 5.68314 19.2529 6.25991 18.7584 6.99994C18.2639 7.73996 18 8.60999 18 9.5V12H14V9.5C14 8.60999 13.7361 7.73996 13.2416 6.99994C12.7471 6.25991 12.0443 5.68314 11.2221 5.34254C10.3998 5.00195 9.49501 4.91283 8.6221 5.08647C7.74918 5.2601 6.94736 5.68868 6.31802 6.31802C5.68868 6.94736 5.2601 7.74918 5.08647 8.6221C4.91283 9.49501 5.00195 10.3998 5.34254 11.2221C5.68314 12.0443 6.25991 12.7471 6.99994 13.2416C7.73996 13.7361 8.60999 14 9.5 14H12V18H9.5C8.60999 18 7.73996 18.2639 6.99994 18.7584C6.25991 19.2529 5.68314 19.9557 5.34254 20.7779C5.00195 21.6002 4.91283 22.505 5.08647 23.3779C5.2601 24.2508 5.68868 25.0526 6.31802 25.682C6.94736 26.3113 7.74918 26.7399 8.6221 26.9135C9.49501 27.0872 10.3998 26.9981 11.2221 26.6575C12.0443 26.3169 12.7471 25.7401 13.2416 25.0001C13.7361 24.26 14 23.39 14 22.5V20H18V22.5C18 23.39 18.2639 24.26 18.7584 25.0001C19.2529 25.7401 19.9557 26.3169 20.7779 26.6575C21.6002 26.9981 22.505 27.0872 23.3779 26.9135C24.2508 26.7399 25.0526 26.3113 25.682 25.682C26.3113 25.0526 26.7399 24.2508 26.9135 23.3779C27.0872 22.505 26.9981 21.6002 26.6575 20.7779C26.3169 19.9557 25.7401 19.2529 25.0001 18.7584C24.26 18.2639 23.39 18 22.5 18ZM20 9.5C20 9.00555 20.1466 8.5222 20.4213 8.11108C20.696 7.69995 21.0865 7.37952 21.5433 7.1903C22.0001 7.00108 22.5028 6.95158 22.9877 7.04804C23.4727 7.1445 23.9181 7.3826 24.2678 7.73223C24.6174 8.08187 24.8555 8.52732 24.952 9.01228C25.0484 9.49723 24.9989 9.9999 24.8097 10.4567C24.6205 10.9135 24.3001 11.304 23.8889 11.5787C23.4778 11.8534 22.9945 12 22.5 12H20V9.5ZM7 9.5C7 8.83696 7.26339 8.20108 7.73223 7.73223C8.20108 7.26339 8.83696 7 9.5 7C10.163 7 10.7989 7.26339 11.2678 7.73223C11.7366 8.20108 12 8.83696 12 9.5V12H9.5C8.83696 12 8.20108 11.7366 7.73223 11.2678C7.26339 10.7989 7 10.163 7 9.5ZM12 22.5C12 22.9945 11.8534 23.4778 11.5787 23.8889C11.304 24.3001 10.9135 24.6205 10.4567 24.8097C9.9999 24.9989 9.49723 25.0484 9.01228 24.952C8.52732 24.8555 8.08187 24.6174 7.73223 24.2678C7.3826 23.9181 7.1445 23.4727 7.04804 22.9877C6.95158 22.5028 7.00108 22.0001 7.1903 21.5433C7.37952 21.0865 7.69995 20.696 8.11108 20.4213C8.5222 20.1466 9.00555 20 9.5 20H12V22.5ZM14 14H18V18H14V14ZM22.5 25C21.837 25 21.2011 24.7366 20.7322 24.2678C20.2634 23.7989 20 23.163 20 22.5V20H22.5C23.163 20 23.7989 20.2634 24.2678 20.7322C24.7366 21.2011 25 21.837 25 22.5C25 23.163 24.7366 23.7989 24.2678 24.2678C23.7989 24.7366 23.163 25 22.5 25Z" fill="currentColor"/>
<path d="M70.5 18.5H67.5V13.5H70.5C71.2911 13.5 72.0645 13.2654 72.7223 12.8259C73.3801 12.3864 73.8928 11.7616 74.1955 11.0307C74.4983 10.2998 74.5775 9.49556 74.4231 8.71964C74.2688 7.94372 73.8878 7.23098 73.3284 6.67157C72.769 6.11216 72.0563 5.7312 71.2804 5.57686C70.5044 5.42252 69.7002 5.50173 68.9693 5.80448C68.2384 6.10723 67.6136 6.61992 67.1741 7.27772C66.7346 7.93552 66.5 8.70888 66.5 9.5V12.5H61.5V9.5C61.5 8.70888 61.2654 7.93552 60.8259 7.27772C60.3864 6.61992 59.7616 6.10723 59.0307 5.80448C58.2998 5.50173 57.4956 5.42252 56.7196 5.57686C55.9437 5.7312 55.231 6.11216 54.6716 6.67157C54.1122 7.23098 53.7312 7.94372 53.5769 8.71964C53.4225 9.49556 53.5017 10.2998 53.8045 11.0307C54.1072 11.7616 54.6199 12.3864 55.2777 12.8259C55.9355 13.2654 56.7089 13.5 57.5 13.5H60.5V18.5H57.5C56.7089 18.5 55.9355 18.7346 55.2777 19.1741C54.6199 19.6136 54.1072 20.2384 53.8045 20.9693C53.5017 21.7002 53.4225 22.5044 53.5769 23.2804C53.7312 24.0563 54.1122 24.769 54.6716 25.3284C55.231 25.8878 55.9437 26.2688 56.7196 26.4231C57.4956 26.5775 58.2998 26.4983 59.0307 26.1955C59.7616 25.8928 60.3864 25.3801 60.8259 24.7223C61.2654 24.0645 61.5 23.2911 61.5 22.5V19.5H66.5V22.5C66.5 23.2911 66.7346 24.0645 67.1741 24.7223C67.6136 25.3801 68.2384 25.8928 68.9693 26.1955C69.7002 26.4983 70.5044 26.5775 71.2804 26.4231C72.0563 26.2688 72.769 25.8878 73.3284 25.3284C73.8878 24.769 74.2688 24.0563 74.4231 23.2804C74.5775 22.5044 74.4983 21.7002 74.1955 20.9693C73.8928 20.2384 73.3801 19.6136 72.7223 19.1741C72.0645 18.7346 71.2911 18.5 70.5 18.5ZM67.5 9.5C67.5 8.90666 67.6759 8.32664 68.0056 7.83329C68.3352 7.33994 68.8038 6.95543 69.352 6.72836C69.9001 6.5013 70.5033 6.44189 71.0853 6.55765C71.6672 6.6734 72.2018 6.95912 72.6213 7.37868C73.0409 7.79824 73.3266 8.33279 73.4424 8.91473C73.5581 9.49667 73.4987 10.0999 73.2716 10.6481C73.0446 11.1962 72.6601 11.6648 72.1667 11.9944C71.6734 12.3241 71.0933 12.5 70.5 12.5H67.5V9.5ZM54.5 9.5C54.5 8.70435 54.8161 7.94129 55.3787 7.37868C55.9413 6.81607 56.7044 6.5 57.5 6.5C58.2957 6.5 59.0587 6.81607 59.6213 7.37868C60.1839 7.94129 60.5 8.70435 60.5 9.5V12.5H57.5C56.7044 12.5 55.9413 12.1839 55.3787 11.6213C54.8161 11.0587 54.5 10.2957 54.5 9.5ZM60.5 22.5C60.5 23.0933 60.3241 23.6734 59.9944 24.1667C59.6648 24.6601 59.1962 25.0446 58.6481 25.2716C58.0999 25.4987 57.4967 25.5581 56.9147 25.4424C56.3328 25.3266 55.7982 25.0409 55.3787 24.6213C54.9591 24.2018 54.6734 23.6672 54.5576 23.0853C54.4419 22.5033 54.5013 21.9001 54.7284 21.352C54.9554 20.8038 55.3399 20.3352 55.8333 20.0056C56.3266 19.6759 56.9067 19.5 57.5 19.5H60.5V22.5ZM61.5 13.5H66.5V18.5H61.5V13.5ZM70.5 25.5C69.7044 25.5 68.9413 25.1839 68.3787 24.6213C67.8161 24.0587 67.5 23.2957 67.5 22.5V19.5H70.5C71.2957 19.5 72.0587 19.8161 72.6213 20.3787C73.1839 20.9413 73.5 21.7044 73.5 22.5C73.5 23.2957 73.1839 24.0587 72.6213 24.6213C72.0587 25.1839 71.2957 25.5 70.5 25.5Z" fill="currentColor"/>
<path d="M118.5 18.25H115.75V13.75H118.5C119.341 13.75 120.162 13.5007 120.861 13.0337C121.56 12.5668 122.105 11.903 122.426 11.1264C122.748 10.3498 122.832 9.49529 122.668 8.67087C122.504 7.84645 122.1 7.08917 121.505 6.4948C120.911 5.90042 120.154 5.49565 119.329 5.33166C118.505 5.16768 117.65 5.25184 116.874 5.57351C116.097 5.89519 115.433 6.43992 114.966 7.13883C114.499 7.83774 114.25 8.65943 114.25 9.5V12.25H109.75V9.5C109.75 8.65943 109.501 7.83774 109.034 7.13883C108.567 6.43992 107.903 5.89519 107.126 5.57351C106.35 5.25184 105.495 5.16768 104.671 5.33166C103.846 5.49565 103.089 5.90042 102.495 6.4948C101.9 7.08917 101.496 7.84645 101.332 8.67087C101.168 9.49529 101.252 10.3498 101.574 11.1264C101.895 11.903 102.44 12.5668 103.139 13.0337C103.838 13.5007 104.659 13.75 105.5 13.75H108.25V18.25H105.5C104.659 18.25 103.838 18.4993 103.139 18.9663C102.44 19.4333 101.895 20.097 101.574 20.8736C101.252 21.6502 101.168 22.5047 101.332 23.3291C101.496 24.1536 101.9 24.9108 102.495 25.5052C103.089 26.0996 103.846 26.5044 104.671 26.6683C105.495 26.8323 106.35 26.7482 107.126 26.4265C107.903 26.1048 108.567 25.5601 109.034 24.8612C109.501 24.1623 109.75 23.3406 109.75 22.5V19.75H114.25V22.5C114.25 23.3406 114.499 24.1623 114.966 24.8612C115.433 25.5601 116.097 26.1048 116.874 26.4265C117.65 26.7482 118.505 26.8323 119.329 26.6683C120.154 26.5044 120.911 26.0996 121.505 25.5052C122.1 24.9108 122.504 24.1536 122.668 23.3291C122.832 22.5047 122.748 21.6502 122.426 20.8736C122.105 20.097 121.56 19.4333 120.861 18.9663C120.162 18.4993 119.341 18.25 118.5 18.25ZM115.75 9.5C115.75 8.9561 115.911 8.42442 116.213 7.97218C116.516 7.51995 116.945 7.16747 117.448 6.95933C117.95 6.75119 118.503 6.69673 119.037 6.80284C119.57 6.90895 120.06 7.17086 120.445 7.55546C120.829 7.94005 121.091 8.43006 121.197 8.9635C121.303 9.49695 121.249 10.0499 121.041 10.5524C120.833 11.0549 120.48 11.4844 120.028 11.7865C119.576 12.0887 119.044 12.25 118.5 12.25H115.75V9.5ZM102.75 9.5C102.75 8.77066 103.04 8.07118 103.555 7.55546C104.071 7.03973 104.771 6.75 105.5 6.75C106.229 6.75 106.929 7.03973 107.445 7.55546C107.96 8.07118 108.25 8.77066 108.25 9.5V12.25H105.5C104.771 12.25 104.071 11.9603 103.555 11.4445C103.04 10.9288 102.75 10.2293 102.75 9.5ZM108.25 22.5C108.25 23.0439 108.089 23.5756 107.787 24.0278C107.484 24.4801 107.055 24.8325 106.552 25.0407C106.05 25.2488 105.497 25.3033 104.964 25.1972C104.43 25.0911 103.94 24.8291 103.555 24.4445C103.171 24.06 102.909 23.5699 102.803 23.0365C102.697 22.5031 102.751 21.9501 102.959 21.4476C103.167 20.9451 103.52 20.5156 103.972 20.2135C104.424 19.9113 104.956 19.75 105.5 19.75H108.25V22.5ZM109.75 13.75H114.25V18.25H109.75V13.75ZM118.5 25.25C117.771 25.25 117.071 24.9603 116.555 24.4445C116.04 23.9288 115.75 23.2293 115.75 22.5V19.75H118.5C119.229 19.75 119.929 20.0397 120.445 20.5555C120.96 21.0712 121.25 21.7707 121.25 22.5C121.25 23.2293 120.96 23.9288 120.445 24.4445C119.929 24.9603 119.229 25.25 118.5 25.25Z" fill="currentColor"/>
<path d="M166.5 17.5H164.5V14.5H166.5C167.489 14.5 168.456 14.2068 169.278 13.6573C170.1 13.1079 170.741 12.327 171.119 11.4134C171.498 10.4998 171.597 9.49446 171.404 8.52455C171.211 7.55465 170.735 6.66373 170.036 5.96447C169.336 5.26521 168.445 4.789 167.475 4.59608C166.506 4.40315 165.5 4.50217 164.587 4.8806C163.673 5.25904 162.892 5.89991 162.343 6.72215C161.793 7.5444 161.5 8.5111 161.5 9.5V11.5H158.5V9.5C158.5 8.5111 158.207 7.5444 157.657 6.72215C157.108 5.89991 156.327 5.25904 155.413 4.8806C154.5 4.50217 153.494 4.40315 152.525 4.59608C151.555 4.789 150.664 5.26521 149.964 5.96447C149.265 6.66373 148.789 7.55465 148.596 8.52455C148.403 9.49446 148.502 10.4998 148.881 11.4134C149.259 12.327 149.9 13.1079 150.722 13.6573C151.544 14.2068 152.511 14.5 153.5 14.5H155.5V17.5H153.5C152.511 17.5 151.544 17.7932 150.722 18.3427C149.9 18.8921 149.259 19.673 148.881 20.5866C148.502 21.5002 148.403 22.5055 148.596 23.4755C148.789 24.4454 149.265 25.3363 149.964 26.0355C150.664 26.7348 151.555 27.211 152.525 27.4039C153.494 27.5969 154.5 27.4978 155.413 27.1194C156.327 26.741 157.108 26.1001 157.657 25.2779C158.207 24.4556 158.5 23.4889 158.5 22.5V20.5H161.5V22.5C161.5 23.4889 161.793 24.4556 162.343 25.2779C162.892 26.1001 163.673 26.741 164.587 27.1194C165.5 27.4978 166.506 27.5969 167.475 27.4039C168.445 27.211 169.336 26.7348 170.036 26.0355C170.735 25.3363 171.211 24.4454 171.404 23.4755C171.597 22.5055 171.498 21.5002 171.119 20.5866C170.741 19.673 170.1 18.8921 169.278 18.3427C168.456 17.7932 167.489 17.5 166.5 17.5ZM164.5 9.5C164.5 9.10444 164.617 8.71776 164.837 8.38886C165.057 8.05996 165.369 7.80362 165.735 7.65224C166.1 7.50087 166.502 7.46126 166.89 7.53843C167.278 7.6156 167.635 7.80608 167.914 8.08579C168.194 8.36549 168.384 8.72186 168.462 9.10982C168.539 9.49778 168.499 9.89992 168.348 10.2654C168.196 10.6308 167.94 10.9432 167.611 11.1629C167.282 11.3827 166.896 11.5 166.5 11.5H164.5V9.5ZM151.5 9.5C151.5 8.96957 151.711 8.46086 152.086 8.08579C152.461 7.71072 152.97 7.5 153.5 7.5C154.03 7.5 154.539 7.71072 154.914 8.08579C155.289 8.46086 155.5 8.96957 155.5 9.5V11.5H153.5C152.97 11.5 152.461 11.2893 152.086 10.9142C151.711 10.5391 151.5 10.0304 151.5 9.5ZM155.5 22.5C155.5 22.8956 155.383 23.2822 155.163 23.6111C154.943 23.94 154.631 24.1964 154.265 24.3478C153.9 24.4991 153.498 24.5387 153.11 24.4616C152.722 24.3844 152.365 24.1939 152.086 23.9142C151.806 23.6345 151.616 23.2781 151.538 22.8902C151.461 22.5022 151.501 22.1001 151.652 21.7346C151.804 21.3692 152.06 21.0568 152.389 20.8371C152.718 20.6173 153.104 20.5 153.5 20.5H155.5V22.5ZM158.5 14.5H161.5V17.5H158.5V14.5ZM166.5 24.5C165.97 24.5 165.461 24.2893 165.086 23.9142C164.711 23.5391 164.5 23.0304 164.5 22.5V20.5H166.5C167.03 20.5 167.539 20.7107 167.914 21.0858C168.289 21.4609 168.5 21.9696 168.5 22.5C168.5 23.0304 168.289 23.5391 167.914 23.9142C167.539 24.2893 167.03 24.5 166.5 24.5Z" fill="currentColor"/>
<path d="M204.5 10.7975V12.5H202.797C202.348 12.5058 201.913 12.3416 201.58 12.0402C201.247 11.7389 201.039 11.3227 201 10.875C200.981 10.624 201.017 10.3719 201.105 10.136C201.192 9.9 201.33 9.68572 201.508 9.50774C201.686 9.32976 201.9 9.19227 202.136 9.10465C202.372 9.01702 202.624 8.98133 202.875 9C203.323 9.03938 203.739 9.24651 204.04 9.57986C204.342 9.91321 204.506 10.3482 204.5 10.7975ZM201 21.125C200.981 21.376 201.017 21.6281 201.105 21.864C201.192 22.1 201.33 22.3143 201.508 22.4923C201.686 22.6702 201.9 22.8077 202.136 22.8954C202.372 22.983 202.624 23.0187 202.875 23C203.322 22.9607 203.737 22.7543 204.039 22.422C204.34 22.0897 204.505 21.656 204.5 21.2075V19.5H202.797C202.348 19.4942 201.913 19.6584 201.58 19.9598C201.247 20.2611 201.039 20.6773 201 21.125ZM215 10.875C215.019 10.624 214.983 10.3719 214.895 10.136C214.808 9.9 214.67 9.68572 214.492 9.50774C214.314 9.32976 214.1 9.19227 213.864 9.10465C213.628 9.01702 213.376 8.98133 213.125 9C212.678 9.03932 212.263 9.24574 211.961 9.57803C211.66 9.91032 211.495 10.344 211.5 10.7925V12.5H213.202C213.652 12.5058 214.087 12.3416 214.42 12.0402C214.753 11.7389 214.961 11.3227 215 10.875ZM220 8V24C220 25.0609 219.579 26.0783 218.828 26.8284C218.078 27.5786 217.061 28 216 28H200C198.939 28 197.922 27.5786 197.172 26.8284C196.421 26.0783 196 25.0609 196 24V8C196 6.93913 196.421 5.92172 197.172 5.17157C197.922 4.42143 198.939 4 200 4H216C217.061 4 218.078 4.42143 218.828 5.17157C219.579 5.92172 220 6.93913 220 8ZM211.5 17.5V14.5H213.173C215.221 14.5 216.949 12.89 216.999 10.8438C217.012 10.3356 216.921 9.8301 216.732 9.35802C216.544 8.88594 216.261 8.45711 215.902 8.09761C215.543 7.7381 215.114 7.45542 214.642 7.26673C214.17 7.07805 213.664 6.9873 213.156 7C211.11 7.05125 209.5 8.77875 209.5 10.8275V12.5H206.5V10.8275C206.5 8.77875 204.89 7.05125 202.844 7C202.335 6.98713 201.83 7.07775 201.358 7.26636C200.886 7.45497 200.457 7.73762 200.097 8.09715C199.738 8.45667 199.455 8.88555 199.266 9.35772C199.078 9.82988 198.987 10.3355 199 10.8438C199.051 12.89 200.779 14.5 202.828 14.5H204.5V17.5H202.828C200.779 17.5 199.051 19.11 199 21.1562C198.987 21.6645 199.078 22.1701 199.266 22.6423C199.455 23.1145 199.738 23.5433 200.097 23.9029C200.457 24.2624 200.886 24.545 201.358 24.7336C201.83 24.9223 202.335 25.0129 202.844 25C204.89 24.95 206.5 23.2225 206.5 21.1737V19.5H209.5V21.1725C209.5 23.2213 211.11 24.9488 213.156 24.9988C213.664 25.0116 214.17 24.921 214.642 24.7325C215.114 24.544 215.543 24.2614 215.902 23.902C216.262 23.5426 216.545 23.1139 216.733 22.6419C216.922 22.1699 217.013 21.6644 217 21.1562C216.95 19.11 215.222 17.5 213.174 17.5H211.5ZM206.5 17.5H209.5V14.5H206.5V17.5ZM211.5 21.25C211.5 21.5961 211.603 21.9345 211.795 22.2222C211.987 22.51 212.261 22.7343 212.58 22.8668C212.9 22.9992 213.252 23.0339 213.591 22.9664C213.931 22.8988 214.243 22.7322 214.487 22.4874C214.732 22.2427 214.899 21.9309 214.966 21.5914C215.034 21.2519 214.999 20.9001 214.867 20.5803C214.734 20.2605 214.51 19.9872 214.222 19.7949C213.934 19.6026 213.596 19.5 213.25 19.5H211.5V21.25Z" fill="currentColor"/>
<path opacity="0.2" d="M266 9.5C266 10.4283 265.631 11.3185 264.975 11.9749C264.318 12.6313 263.428 13 262.5 13H259V9.5C259 8.57174 259.369 7.6815 260.025 7.02513C260.682 6.36875 261.572 6 262.5 6C263.428 6 264.318 6.36875 264.975 7.02513C265.631 7.6815 266 8.57174 266 9.5ZM249.5 6C248.572 6 247.682 6.36875 247.025 7.02513C246.369 7.6815 246 8.57174 246 9.5C246 10.4283 246.369 11.3185 247.025 11.9749C247.682 12.6313 248.572 13 249.5 13H253V9.5C253 8.57174 252.631 7.6815 251.975 7.02513C251.318 6.36875 250.428 6 249.5 6ZM262.5 19H259V22.5C259 23.4283 259.369 24.3185 260.025 24.9749C260.682 25.6313 261.572 26 262.5 26C263.428 26 264.318 25.6313 264.975 24.9749C265.631 24.3185 266 23.4283 266 22.5C266 21.5717 265.631 20.6815 264.975 20.0251C264.318 19.3687 263.428 19 262.5 19ZM246 22.5C246 23.4283 246.369 24.3185 247.025 24.9749C247.682 25.6313 248.572 26 249.5 26C250.428 26 251.318 25.6313 251.975 24.9749C252.631 24.3185 253 23.4283 253 22.5V19H249.5C248.572 19 247.682 19.3687 247.025 20.0251C246.369 20.6815 246 21.5717 246 22.5Z" fill="currentColor"/>
<path d="M262.5 18H260V14H262.5C263.39 14 264.26 13.7361 265 13.2416C265.74 12.7471 266.317 12.0443 266.657 11.2221C266.998 10.3998 267.087 9.49501 266.914 8.6221C266.74 7.74918 266.311 6.94736 265.682 6.31802C265.053 5.68868 264.251 5.2601 263.378 5.08647C262.505 4.91283 261.6 5.00195 260.778 5.34254C259.956 5.68314 259.253 6.25991 258.758 6.99994C258.264 7.73996 258 8.60999 258 9.5V12H254V9.5C254 8.60999 253.736 7.73996 253.242 6.99994C252.747 6.25991 252.044 5.68314 251.222 5.34254C250.4 5.00195 249.495 4.91283 248.622 5.08647C247.749 5.2601 246.947 5.68868 246.318 6.31802C245.689 6.94736 245.26 7.74918 245.086 8.6221C244.913 9.49501 245.002 10.3998 245.343 11.2221C245.683 12.0443 246.26 12.7471 247 13.2416C247.74 13.7361 248.61 14 249.5 14H252V18H249.5C248.61 18 247.74 18.2639 247 18.7584C246.26 19.2529 245.683 19.9557 245.343 20.7779C245.002 21.6002 244.913 22.505 245.086 23.3779C245.26 24.2508 245.689 25.0526 246.318 25.682C246.947 26.3113 247.749 26.7399 248.622 26.9135C249.495 27.0872 250.4 26.9981 251.222 26.6575C252.044 26.3169 252.747 25.7401 253.242 25.0001C253.736 24.26 254 23.39 254 22.5V20H258V22.5C258 23.39 258.264 24.26 258.758 25.0001C259.253 25.7401 259.956 26.3169 260.778 26.6575C261.6 26.9981 262.505 27.0872 263.378 26.9135C264.251 26.7399 265.053 26.3113 265.682 25.682C266.311 25.0526 266.74 24.2508 266.914 23.3779C267.087 22.505 266.998 21.6002 266.657 20.7779C266.317 19.9557 265.74 19.2529 265 18.7584C264.26 18.2639 263.39 18 262.5 18ZM260 9.5C260 9.00555 260.147 8.5222 260.421 8.11108C260.696 7.69995 261.086 7.37952 261.543 7.1903C262 7.00108 262.503 6.95158 262.988 7.04804C263.473 7.1445 263.918 7.3826 264.268 7.73223C264.617 8.08187 264.856 8.52732 264.952 9.01228C265.048 9.49723 264.999 9.9999 264.81 10.4567C264.62 10.9135 264.3 11.304 263.889 11.5787C263.478 11.8534 262.994 12 262.5 12H260V9.5ZM247 9.5C247 8.83696 247.263 8.20108 247.732 7.73223C248.201 7.26339 248.837 7 249.5 7C250.163 7 250.799 7.26339 251.268 7.73223C251.737 8.20108 252 8.83696 252 9.5V12H249.5C248.837 12 248.201 11.7366 247.732 11.2678C247.263 10.7989 247 10.163 247 9.5ZM252 22.5C252 22.9945 251.853 23.4778 251.579 23.8889C251.304 24.3001 250.914 24.6205 250.457 24.8097C250 24.9989 249.497 25.0484 249.012 24.952C248.527 24.8555 248.082 24.6174 247.732 24.2678C247.383 23.9181 247.145 23.4727 247.048 22.9877C246.952 22.5028 247.001 22.0001 247.19 21.5433C247.38 21.0865 247.7 20.696 248.111 20.4213C248.522 20.1466 249.006 20 249.5 20H252V22.5ZM254 14H258V18H254V14ZM262.5 25C261.837 25 261.201 24.7366 260.732 24.2678C260.263 23.7989 260 23.163 260 22.5V20H262.5C263.163 20 263.799 20.2634 264.268 20.7322C264.737 21.2011 265 21.837 265 22.5C265 23.163 264.737 23.7989 264.268 24.2678C263.799 24.7366 263.163 25 262.5 25Z" fill="currentColor"/>
</g>
<defs>
<clipPath id="clip0_17_11742">
<rect width="272" height="32" rx="5" fill="white"/>
</clipPath>
</defs>
</svg>
