<svg width="272" height="32" viewBox="0 0 272 32" fill="none" xmlns="http://www.w3.org/2000/svg">
<g clip-path="url(#clip0_17_11560)">
<path d="M28 9H26V8C26 7.20435 25.6839 6.44129 25.1213 5.87868C24.5587 5.31607 23.7956 5 23 5H5C4.20435 5 3.44129 5.31607 2.87868 5.87868C2.31607 6.44129 2 7.20435 2 8V20C2 20.7956 2.31607 21.5587 2.87868 22.1213C3.44129 22.6839 4.20435 23 5 23H19V24C19 24.7956 19.3161 25.5587 19.8787 26.1213C20.4413 26.6839 21.2044 27 22 27H28C28.7956 27 29.5587 26.6839 30.1213 26.1213C30.6839 25.5587 31 24.7956 31 24V12C31 11.2044 30.6839 10.4413 30.1213 9.87868C29.5587 9.31607 28.7956 9 28 9ZM5 21C4.73478 21 4.48043 20.8946 4.29289 20.7071C4.10536 20.5196 4 20.2652 4 20V8C4 7.73478 4.10536 7.48043 4.29289 7.29289C4.48043 7.10536 4.73478 7 5 7H23C23.2652 7 23.5196 7.10536 23.7071 7.29289C23.8946 7.48043 24 7.73478 24 8V9H22C21.2044 9 20.4413 9.31607 19.8787 9.87868C19.3161 10.4413 19 11.2044 19 12V21H5ZM29 24C29 24.2652 28.8946 24.5196 28.7071 24.7071C28.5196 24.8946 28.2652 25 28 25H22C21.7348 25 21.4804 24.8946 21.2929 24.7071C21.1054 24.5196 21 24.2652 21 24V12C21 11.7348 21.1054 11.4804 21.2929 11.2929C21.4804 11.1054 21.7348 11 22 11H28C28.2652 11 28.5196 11.1054 28.7071 11.2929C28.8946 11.4804 29 11.7348 29 12V24ZM17 26C17 26.2652 16.8946 26.5196 16.7071 26.7071C16.5196 26.8946 16.2652 27 16 27H11C10.7348 27 10.4804 26.8946 10.2929 26.7071C10.1054 26.5196 10 26.2652 10 26C10 25.7348 10.1054 25.4804 10.2929 25.2929C10.4804 25.1054 10.7348 25 11 25H16C16.2652 25 16.5196 25.1054 16.7071 25.2929C16.8946 25.4804 17 25.7348 17 26ZM27 14C27 14.2652 26.8946 14.5196 26.7071 14.7071C26.5196 14.8946 26.2652 15 26 15H24C23.7348 15 23.4804 14.8946 23.2929 14.7071C23.1054 14.5196 23 14.2652 23 14C23 13.7348 23.1054 13.4804 23.2929 13.2929C23.4804 13.1054 23.7348 13 24 13H26C26.2652 13 26.5196 13.1054 26.7071 13.2929C26.8946 13.4804 27 13.7348 27 14Z" fill="currentColor"/>
<path d="M76 9.5H73.5V8C73.5 7.33696 73.2366 6.70107 72.7678 6.23223C72.2989 5.76339 71.663 5.5 71 5.5H53C52.337 5.5 51.7011 5.76339 51.2322 6.23223C50.7634 6.70107 50.5 7.33696 50.5 8V20C50.5 20.663 50.7634 21.2989 51.2322 21.7678C51.7011 22.2366 52.337 22.5 53 22.5H67.5V24C67.5 24.663 67.7634 25.2989 68.2322 25.7678C68.7011 26.2366 69.337 26.5 70 26.5H76C76.663 26.5 77.2989 26.2366 77.7678 25.7678C78.2366 25.2989 78.5 24.663 78.5 24V12C78.5 11.337 78.2366 10.7011 77.7678 10.2322C77.2989 9.76339 76.663 9.5 76 9.5ZM53 21.5C52.6022 21.5 52.2206 21.342 51.9393 21.0607C51.658 20.7794 51.5 20.3978 51.5 20V8C51.5 7.60218 51.658 7.22064 51.9393 6.93934C52.2206 6.65804 52.6022 6.5 53 6.5H71C71.3978 6.5 71.7794 6.65804 72.0607 6.93934C72.342 7.22064 72.5 7.60218 72.5 8V9.5H70C69.337 9.5 68.7011 9.76339 68.2322 10.2322C67.7634 10.7011 67.5 11.337 67.5 12V21.5H53ZM77.5 24C77.5 24.3978 77.342 24.7794 77.0607 25.0607C76.7794 25.342 76.3978 25.5 76 25.5H70C69.6022 25.5 69.2206 25.342 68.9393 25.0607C68.658 24.7794 68.5 24.3978 68.5 24V12C68.5 11.6022 68.658 11.2206 68.9393 10.9393C69.2206 10.658 69.6022 10.5 70 10.5H76C76.3978 10.5 76.7794 10.658 77.0607 10.9393C77.342 11.2206 77.5 11.6022 77.5 12V24ZM64.5 26C64.5 26.1326 64.4473 26.2598 64.3536 26.3536C64.2598 26.4473 64.1326 26.5 64 26.5H59C58.8674 26.5 58.7402 26.4473 58.6464 26.3536C58.5527 26.2598 58.5 26.1326 58.5 26C58.5 25.8674 58.5527 25.7402 58.6464 25.6464C58.7402 25.5527 58.8674 25.5 59 25.5H64C64.1326 25.5 64.2598 25.5527 64.3536 25.6464C64.4473 25.7402 64.5 25.8674 64.5 26ZM74.5 14C74.5 14.1326 74.4473 14.2598 74.3536 14.3536C74.2598 14.4473 74.1326 14.5 74 14.5H72C71.8674 14.5 71.7402 14.4473 71.6464 14.3536C71.5527 14.2598 71.5 14.1326 71.5 14C71.5 13.8674 71.5527 13.7402 71.6464 13.6464C71.7402 13.5527 71.8674 13.5 72 13.5H74C74.1326 13.5 74.2598 13.5527 74.3536 13.6464C74.4473 13.7402 74.5 13.8674 74.5 14Z" fill="currentColor"/>
<path d="M124 9.25H121.75V8C121.75 7.27065 121.46 6.57118 120.945 6.05546C120.429 5.53973 119.729 5.25 119 5.25H101C100.271 5.25 99.5712 5.53973 99.0555 6.05546C98.5397 6.57118 98.25 7.27065 98.25 8V20C98.25 20.7293 98.5397 21.4288 99.0555 21.9445C99.5712 22.4603 100.271 22.75 101 22.75H115.25V24C115.25 24.7293 115.54 25.4288 116.055 25.9445C116.571 26.4603 117.271 26.75 118 26.75H124C124.729 26.75 125.429 26.4603 125.945 25.9445C126.46 25.4288 126.75 24.7293 126.75 24V12C126.75 11.2707 126.46 10.5712 125.945 10.0555C125.429 9.53973 124.729 9.25 124 9.25ZM101 21.25C100.668 21.25 100.351 21.1183 100.116 20.8839C99.8817 20.6495 99.75 20.3315 99.75 20V8C99.75 7.66848 99.8817 7.35054 100.116 7.11612C100.351 6.8817 100.668 6.75 101 6.75H119C119.332 6.75 119.649 6.8817 119.884 7.11612C120.118 7.35054 120.25 7.66848 120.25 8V9.25H118C117.271 9.25 116.571 9.53973 116.055 10.0555C115.54 10.5712 115.25 11.2707 115.25 12V21.25H101ZM125.25 24C125.25 24.3315 125.118 24.6495 124.884 24.8839C124.649 25.1183 124.332 25.25 124 25.25H118C117.668 25.25 117.351 25.1183 117.116 24.8839C116.882 24.6495 116.75 24.3315 116.75 24V12C116.75 11.6685 116.882 11.3505 117.116 11.1161C117.351 10.8817 117.668 10.75 118 10.75H124C124.332 10.75 124.649 10.8817 124.884 11.1161C125.118 11.3505 125.25 11.6685 125.25 12V24ZM112.75 26C112.75 26.1989 112.671 26.3897 112.53 26.5303C112.39 26.671 112.199 26.75 112 26.75H107C106.801 26.75 106.61 26.671 106.47 26.5303C106.329 26.3897 106.25 26.1989 106.25 26C106.25 25.8011 106.329 25.6103 106.47 25.4697C106.61 25.329 106.801 25.25 107 25.25H112C112.199 25.25 112.39 25.329 112.53 25.4697C112.671 25.6103 112.75 25.8011 112.75 26ZM122.75 14C122.75 14.1989 122.671 14.3897 122.53 14.5303C122.39 14.671 122.199 14.75 122 14.75H120C119.801 14.75 119.61 14.671 119.47 14.5303C119.329 14.3897 119.25 14.1989 119.25 14C119.25 13.8011 119.329 13.6103 119.47 13.4697C119.61 13.329 119.801 13.25 120 13.25H122C122.199 13.25 122.39 13.329 122.53 13.4697C122.671 13.6103 122.75 13.8011 122.75 14Z" fill="currentColor"/>
<path d="M172 9H170.5V8C170.5 7.07174 170.131 6.1815 169.475 5.52513C168.818 4.86875 167.928 4.5 167 4.5H149C148.072 4.5 147.182 4.86875 146.525 5.52513C145.869 6.1815 145.5 7.07174 145.5 8V19C145.5 19.9283 145.869 20.8185 146.525 21.4749C147.182 22.1313 148.072 22.5 149 22.5H161V24C161 24.9283 161.369 25.8185 162.025 26.4749C162.682 27.1313 163.572 27.5 164.5 27.5H172C172.928 27.5 173.818 27.1313 174.475 26.4749C175.131 25.8185 175.5 24.9283 175.5 24V12.5C175.5 11.5717 175.131 10.6815 174.475 10.0251C173.818 9.36875 172.928 9 172 9ZM149 19.5C148.867 19.5 148.74 19.4473 148.646 19.3536C148.553 19.2598 148.5 19.1326 148.5 19V8C148.5 7.86739 148.553 7.74021 148.646 7.64645C148.74 7.55268 148.867 7.5 149 7.5H167C167.133 7.5 167.26 7.55268 167.354 7.64645C167.447 7.74021 167.5 7.86739 167.5 8V9H164.5C163.572 9 162.682 9.36875 162.025 10.0251C161.369 10.6815 161 11.5717 161 12.5V19.5H149ZM172.5 24C172.5 24.1326 172.447 24.2598 172.354 24.3536C172.26 24.4473 172.133 24.5 172 24.5H164.5C164.367 24.5 164.24 24.4473 164.146 24.3536C164.053 24.2598 164 24.1326 164 24V12.5C164 12.3674 164.053 12.2402 164.146 12.1464C164.24 12.0527 164.367 12 164.5 12H172C172.133 12 172.26 12.0527 172.354 12.1464C172.447 12.2402 172.5 12.3674 172.5 12.5V24ZM159.5 26C159.5 26.3978 159.342 26.7794 159.061 27.0607C158.779 27.342 158.398 27.5 158 27.5H155C154.602 27.5 154.221 27.342 153.939 27.0607C153.658 26.7794 153.5 26.3978 153.5 26C153.5 25.6022 153.658 25.2206 153.939 24.9393C154.221 24.658 154.602 24.5 155 24.5H158C158.398 24.5 158.779 24.658 159.061 24.9393C159.342 25.2206 159.5 25.6022 159.5 26ZM170.5 15.5C170.5 15.8978 170.342 16.2794 170.061 16.5607C169.779 16.842 169.398 17 169 17H167.5C167.102 17 166.721 16.842 166.439 16.5607C166.158 16.2794 166 15.8978 166 15.5C166 15.1022 166.158 14.7206 166.439 14.4393C166.721 14.158 167.102 14 167.5 14H169C169.398 14 169.779 14.158 170.061 14.4393C170.342 14.7206 170.5 15.1022 170.5 15.5Z" fill="currentColor"/>
<path d="M220 9H218V8C218 7.20435 217.684 6.44129 217.121 5.87868C216.559 5.31607 215.796 5 215 5H197C196.204 5 195.441 5.31607 194.879 5.87868C194.316 6.44129 194 7.20435 194 8V20C194 20.7956 194.316 21.5587 194.879 22.1213C195.441 22.6839 196.204 23 197 23H211V24C211 24.7956 211.316 25.5587 211.879 26.1213C212.441 26.6839 213.204 27 214 27H220C220.796 27 221.559 26.6839 222.121 26.1213C222.684 25.5587 223 24.7956 223 24V12C223 11.2044 222.684 10.4413 222.121 9.87868C221.559 9.31607 220.796 9 220 9ZM221 24C221 24.2652 220.895 24.5196 220.707 24.7071C220.52 24.8946 220.265 25 220 25H214C213.735 25 213.48 24.8946 213.293 24.7071C213.105 24.5196 213 24.2652 213 24V12C213 11.7348 213.105 11.4804 213.293 11.2929C213.48 11.1054 213.735 11 214 11H220C220.265 11 220.52 11.1054 220.707 11.2929C220.895 11.4804 221 11.7348 221 12V24ZM209 26C209 26.2652 208.895 26.5196 208.707 26.7071C208.52 26.8946 208.265 27 208 27H203C202.735 27 202.48 26.8946 202.293 26.7071C202.105 26.5196 202 26.2652 202 26C202 25.7348 202.105 25.4804 202.293 25.2929C202.48 25.1054 202.735 25 203 25H208C208.265 25 208.52 25.1054 208.707 25.2929C208.895 25.4804 209 25.7348 209 26ZM219 14C219 14.2652 218.895 14.5196 218.707 14.7071C218.52 14.8946 218.265 15 218 15H216C215.735 15 215.48 14.8946 215.293 14.7071C215.105 14.5196 215 14.2652 215 14C215 13.7348 215.105 13.4804 215.293 13.2929C215.48 13.1054 215.735 13 216 13H218C218.265 13 218.52 13.1054 218.707 13.2929C218.895 13.4804 219 13.7348 219 14Z" fill="currentColor"/>
<path opacity="0.2" d="M265 8V10H262C261.47 10 260.961 10.2107 260.586 10.5858C260.211 10.9609 260 11.4696 260 12V22H245C244.47 22 243.961 21.7893 243.586 21.4142C243.211 21.0391 243 20.5304 243 20V8C243 7.46957 243.211 6.96086 243.586 6.58579C243.961 6.21071 244.47 6 245 6H263C263.53 6 264.039 6.21071 264.414 6.58579C264.789 6.96086 265 7.46957 265 8Z" fill="currentColor"/>
<path d="M268 9H266V8C266 7.20435 265.684 6.44129 265.121 5.87868C264.559 5.31607 263.796 5 263 5H245C244.204 5 243.441 5.31607 242.879 5.87868C242.316 6.44129 242 7.20435 242 8V20C242 20.7956 242.316 21.5587 242.879 22.1213C243.441 22.6839 244.204 23 245 23H259V24C259 24.7956 259.316 25.5587 259.879 26.1213C260.441 26.6839 261.204 27 262 27H268C268.796 27 269.559 26.6839 270.121 26.1213C270.684 25.5587 271 24.7956 271 24V12C271 11.2044 270.684 10.4413 270.121 9.87868C269.559 9.31607 268.796 9 268 9ZM245 21C244.735 21 244.48 20.8946 244.293 20.7071C244.105 20.5196 244 20.2652 244 20V8C244 7.73478 244.105 7.48043 244.293 7.29289C244.48 7.10536 244.735 7 245 7H263C263.265 7 263.52 7.10536 263.707 7.29289C263.895 7.48043 264 7.73478 264 8V9H262C261.204 9 260.441 9.31607 259.879 9.87868C259.316 10.4413 259 11.2044 259 12V21H245ZM269 24C269 24.2652 268.895 24.5196 268.707 24.7071C268.52 24.8946 268.265 25 268 25H262C261.735 25 261.48 24.8946 261.293 24.7071C261.105 24.5196 261 24.2652 261 24V12C261 11.7348 261.105 11.4804 261.293 11.2929C261.48 11.1054 261.735 11 262 11H268C268.265 11 268.52 11.1054 268.707 11.2929C268.895 11.4804 269 11.7348 269 12V24ZM257 26C257 26.2652 256.895 26.5196 256.707 26.7071C256.52 26.8946 256.265 27 256 27H251C250.735 27 250.48 26.8946 250.293 26.7071C250.105 26.5196 250 26.2652 250 26C250 25.7348 250.105 25.4804 250.293 25.2929C250.48 25.1054 250.735 25 251 25H256C256.265 25 256.52 25.1054 256.707 25.2929C256.895 25.4804 257 25.7348 257 26ZM267 14C267 14.2652 266.895 14.5196 266.707 14.7071C266.52 14.8946 266.265 15 266 15H264C263.735 15 263.48 14.8946 263.293 14.7071C263.105 14.5196 263 14.2652 263 14C263 13.7348 263.105 13.4804 263.293 13.2929C263.48 13.1054 263.735 13 264 13H266C266.265 13 266.52 13.1054 266.707 13.2929C266.895 13.4804 267 13.7348 267 14Z" fill="currentColor"/>
</g>
<defs>
<clipPath id="clip0_17_11560">
<rect width="272" height="32" rx="5" fill="white"/>
</clipPath>
</defs>
</svg>
