<svg width="272" height="32" viewBox="0 0 272 32" fill="none" xmlns="http://www.w3.org/2000/svg">
<g clip-path="url(#clip0_17_11602)">
<path d="M24 3H8C7.20435 3 6.44129 3.31607 5.87868 3.87868C5.31607 4.44129 5 5.20435 5 6V26C5 26.7956 5.31607 27.5587 5.87868 28.1213C6.44129 28.6839 7.20435 29 8 29H24C24.7956 29 25.5587 28.6839 26.1213 28.1213C26.6839 27.5587 27 26.7956 27 26V6C27 5.20435 26.6839 4.44129 26.1213 3.87868C25.5587 3.31607 24.7956 3 24 3ZM7 9H25V23H7V9ZM8 5H24C24.2652 5 24.5196 5.10536 24.7071 5.29289C24.8946 5.48043 25 5.73478 25 6V7H7V6C7 5.73478 7.10536 5.48043 7.29289 5.29289C7.48043 5.10536 7.73478 5 8 5ZM24 27H8C7.73478 27 7.48043 26.8946 7.29289 26.7071C7.10536 26.5196 7 26.2652 7 26V25H25V26C25 26.2652 24.8946 26.5196 24.7071 26.7071C24.5196 26.8946 24.2652 27 24 27Z" fill="currentColor"/>
<path d="M72 3.5H56C55.337 3.5 54.7011 3.76339 54.2322 4.23223C53.7634 4.70107 53.5 5.33696 53.5 6V26C53.5 26.663 53.7634 27.2989 54.2322 27.7678C54.7011 28.2366 55.337 28.5 56 28.5H72C72.663 28.5 73.2989 28.2366 73.7678 27.7678C74.2366 27.2989 74.5 26.663 74.5 26V6C74.5 5.33696 74.2366 4.70107 73.7678 4.23223C73.2989 3.76339 72.663 3.5 72 3.5ZM54.5 8.5H73.5V23.5H54.5V8.5ZM56 4.5H72C72.3978 4.5 72.7794 4.65804 73.0607 4.93934C73.342 5.22064 73.5 5.60218 73.5 6V7.5H54.5V6C54.5 5.60218 54.658 5.22064 54.9393 4.93934C55.2206 4.65804 55.6022 4.5 56 4.5ZM72 27.5H56C55.6022 27.5 55.2206 27.342 54.9393 27.0607C54.658 26.7794 54.5 26.3978 54.5 26V24.5H73.5V26C73.5 26.3978 73.342 26.7794 73.0607 27.0607C72.7794 27.342 72.3978 27.5 72 27.5Z" fill="currentColor"/>
<path d="M120 3.25H104C103.271 3.25 102.571 3.53973 102.055 4.05546C101.54 4.57118 101.25 5.27065 101.25 6V26C101.25 26.7293 101.54 27.4288 102.055 27.9445C102.571 28.4603 103.271 28.75 104 28.75H120C120.729 28.75 121.429 28.4603 121.945 27.9445C122.46 27.4288 122.75 26.7293 122.75 26V6C122.75 5.27065 122.46 4.57118 121.945 4.05546C121.429 3.53973 120.729 3.25 120 3.25ZM102.75 8.75H121.25V23.25H102.75V8.75ZM104 4.75H120C120.332 4.75 120.649 4.8817 120.884 5.11612C121.118 5.35054 121.25 5.66848 121.25 6V7.25H102.75V6C102.75 5.66848 102.882 5.35054 103.116 5.11612C103.351 4.8817 103.668 4.75 104 4.75ZM120 27.25H104C103.668 27.25 103.351 27.1183 103.116 26.8839C102.882 26.6495 102.75 26.3315 102.75 26V24.75H121.25V26C121.25 26.3315 121.118 26.6495 120.884 26.8839C120.649 27.1183 120.332 27.25 120 27.25Z" fill="currentColor"/>
<path d="M168 2.5H152C151.072 2.5 150.182 2.86875 149.525 3.52513C148.869 4.1815 148.5 5.07174 148.5 6V26C148.5 26.4596 148.591 26.9148 148.766 27.3394C148.942 27.764 149.2 28.1499 149.525 28.4749C149.85 28.7999 150.236 29.0577 150.661 29.2336C151.085 29.4095 151.54 29.5 152 29.5H168C168.46 29.5 168.915 29.4095 169.339 29.2336C169.764 29.0577 170.15 28.7999 170.475 28.4749C170.8 28.1499 171.058 27.764 171.234 27.3394C171.409 26.9148 171.5 26.4596 171.5 26V6C171.5 5.07174 171.131 4.1815 170.475 3.52513C169.818 2.86875 168.928 2.5 168 2.5ZM151.5 10.5H168.5V21.5H151.5V10.5ZM152 5.5H168C168.133 5.5 168.26 5.55268 168.354 5.64645C168.447 5.74021 168.5 5.86739 168.5 6V7.5H151.5V6C151.5 5.86739 151.553 5.74021 151.646 5.64645C151.74 5.55268 151.867 5.5 152 5.5ZM168 26.5H152C151.867 26.5 151.74 26.4473 151.646 26.3536C151.553 26.2598 151.5 26.1326 151.5 26V24.5H168.5V26C168.5 26.1326 168.447 26.2598 168.354 26.3536C168.26 26.4473 168.133 26.5 168 26.5Z" fill="currentColor"/>
<path d="M216 3H200C199.204 3 198.441 3.31607 197.879 3.87868C197.316 4.44129 197 5.20435 197 6V26C197 26.7956 197.316 27.5587 197.879 28.1213C198.441 28.6839 199.204 29 200 29H216C216.796 29 217.559 28.6839 218.121 28.1213C218.684 27.5587 219 26.7956 219 26V6C219 5.20435 218.684 4.44129 218.121 3.87868C217.559 3.31607 216.796 3 216 3ZM200 5H216C216.265 5 216.52 5.10536 216.707 5.29289C216.895 5.48043 217 5.73478 217 6V7H199V6C199 5.73478 199.105 5.48043 199.293 5.29289C199.48 5.10536 199.735 5 200 5ZM216 27H200C199.735 27 199.48 26.8946 199.293 26.7071C199.105 26.5196 199 26.2652 199 26V25H217V26C217 26.2652 216.895 26.5196 216.707 26.7071C216.52 26.8946 216.265 27 216 27Z" fill="currentColor"/>
<path opacity="0.2" d="M266 8V24H246V8H266Z" fill="currentColor"/>
<path d="M264 3H248C247.204 3 246.441 3.31607 245.879 3.87868C245.316 4.44129 245 5.20435 245 6V26C245 26.7956 245.316 27.5587 245.879 28.1213C246.441 28.6839 247.204 29 248 29H264C264.796 29 265.559 28.6839 266.121 28.1213C266.684 27.5587 267 26.7956 267 26V6C267 5.20435 266.684 4.44129 266.121 3.87868C265.559 3.31607 264.796 3 264 3ZM247 9H265V23H247V9ZM248 5H264C264.265 5 264.52 5.10536 264.707 5.29289C264.895 5.48043 265 5.73478 265 6V7H247V6C247 5.73478 247.105 5.48043 247.293 5.29289C247.48 5.10536 247.735 5 248 5ZM264 27H248C247.735 27 247.48 26.8946 247.293 26.7071C247.105 26.5196 247 26.2652 247 26V25H265V26C265 26.2652 264.895 26.5196 264.707 26.7071C264.52 26.8946 264.265 27 264 27Z" fill="currentColor"/>
</g>
<defs>
<clipPath id="clip0_17_11602">
<rect width="272" height="32" rx="5" fill="white"/>
</clipPath>
</defs>
</svg>
