<svg width="272" height="32" viewBox="0 0 272 32" fill="none" xmlns="http://www.w3.org/2000/svg">
<g clip-path="url(#clip0_17_11532)">
<path d="M16 12C15.2089 12 14.4355 12.2346 13.7777 12.6741C13.1199 13.1136 12.6072 13.7384 12.3045 14.4693C12.0017 15.2002 11.9225 16.0044 12.0769 16.7804C12.2312 17.5563 12.6122 18.269 13.1716 18.8284C13.731 19.3878 14.4437 19.7688 15.2196 19.9231C15.9956 20.0775 16.7998 19.9983 17.5307 19.6955C18.2616 19.3928 18.8864 18.8801 19.3259 18.2223C19.7654 17.5645 20 16.7911 20 16C20 14.9391 19.5786 13.9217 18.8284 13.1716C18.0783 12.4214 17.0609 12 16 12ZM16 18C15.6044 18 15.2178 17.8827 14.8889 17.6629C14.56 17.4432 14.3036 17.1308 14.1522 16.7654C14.0009 16.3999 13.9613 15.9978 14.0384 15.6098C14.1156 15.2219 14.3061 14.8655 14.5858 14.5858C14.8655 14.3061 15.2219 14.1156 15.6098 14.0384C15.9978 13.9613 16.3999 14.0009 16.7654 14.1522C17.1308 14.3036 17.4432 14.56 17.6629 14.8889C17.8827 15.2178 18 15.6044 18 16C18 16.5304 17.7893 17.0391 17.4142 17.4142C17.0391 17.7893 16.5304 18 16 18Z" fill="currentColor"/>
<path d="M64 12.5C63.3078 12.5 62.6311 12.7053 62.0555 13.0899C61.4799 13.4744 61.0313 14.0211 60.7664 14.6606C60.5015 15.3001 60.4322 16.0039 60.5673 16.6828C60.7023 17.3617 61.0356 17.9854 61.5251 18.4749C62.0146 18.9644 62.6383 19.2977 63.3172 19.4327C63.9961 19.5678 64.6999 19.4985 65.3394 19.2336C65.9789 18.9687 66.5256 18.5201 66.9101 17.9445C67.2947 17.3689 67.5 16.6922 67.5 16C67.5 15.0717 67.1313 14.1815 66.4749 13.5251C65.8185 12.8687 64.9283 12.5 64 12.5ZM64 18.5C63.5055 18.5 63.0222 18.3534 62.6111 18.0787C62.2 17.804 61.8795 17.4135 61.6903 16.9567C61.5011 16.4999 61.4516 15.9972 61.548 15.5123C61.6445 15.0273 61.8826 14.5819 62.2322 14.2322C62.5819 13.8826 63.0273 13.6445 63.5123 13.548C63.9972 13.4516 64.4999 13.5011 64.9567 13.6903C65.4135 13.8795 65.804 14.2 66.0787 14.6111C66.3534 15.0222 66.5 15.5055 66.5 16C66.5 16.663 66.2366 17.2989 65.7678 17.7678C65.2989 18.2366 64.663 18.5 64 18.5Z" fill="currentColor"/>
<path d="M112 12.25C111.258 12.25 110.533 12.4699 109.917 12.882C109.3 13.294 108.819 13.8797 108.535 14.5649C108.252 15.2502 108.177 16.0042 108.322 16.7316C108.467 17.459 108.824 18.1272 109.348 18.6517C109.873 19.1761 110.541 19.5332 111.268 19.6779C111.996 19.8226 112.75 19.7484 113.435 19.4645C114.12 19.1807 114.706 18.7001 115.118 18.0834C115.53 17.4667 115.75 16.7417 115.75 16C115.75 15.0054 115.355 14.0516 114.652 13.3483C113.948 12.6451 112.995 12.25 112 12.25ZM112 18.25C111.555 18.25 111.12 18.118 110.75 17.8708C110.38 17.6236 110.092 17.2722 109.921 16.861C109.751 16.4499 109.706 15.9975 109.793 15.561C109.88 15.1246 110.094 14.7237 110.409 14.409C110.724 14.0943 111.125 13.88 111.561 13.7932C111.998 13.7064 112.45 13.751 112.861 13.9213C113.272 14.0916 113.624 14.38 113.871 14.75C114.118 15.12 114.25 15.555 114.25 16C114.25 16.5967 114.013 17.169 113.591 17.591C113.169 18.0129 112.597 18.25 112 18.25Z" fill="currentColor"/>
<path d="M160 12C159.209 12 158.436 12.2346 157.778 12.6741C157.12 13.1136 156.607 13.7384 156.304 14.4693C156.002 15.2002 155.923 16.0044 156.077 16.7804C156.231 17.5563 156.612 18.269 157.172 18.8284C157.731 19.3878 158.444 19.7688 159.22 19.9231C159.996 20.0775 160.8 19.9983 161.531 19.6955C162.262 19.3928 162.886 18.8801 163.326 18.2223C163.765 17.5645 164 16.7911 164 16C164 14.9391 163.579 13.9217 162.828 13.1716C162.078 12.4214 161.061 12 160 12ZM160 17C159.802 17 159.609 16.9414 159.444 16.8315C159.28 16.7216 159.152 16.5654 159.076 16.3827C159 16.2 158.981 15.9989 159.019 15.8049C159.058 15.6109 159.153 15.4327 159.293 15.2929C159.433 15.153 159.611 15.0578 159.805 15.0192C159.999 14.9806 160.2 15.0004 160.383 15.0761C160.565 15.1518 160.722 15.28 160.831 15.4444C160.941 15.6089 161 15.8022 161 16C161 16.2652 160.895 16.5196 160.707 16.7071C160.52 16.8946 160.265 17 160 17Z" fill="currentColor"/>
<path d="M211.5 16C211.5 16.6922 211.295 17.3689 210.91 17.9445C210.526 18.5201 209.979 18.9687 209.339 19.2336C208.7 19.4985 207.996 19.5678 207.317 19.4327C206.638 19.2977 206.015 18.9644 205.525 18.4749C205.036 17.9854 204.702 17.3617 204.567 16.6828C204.432 16.0039 204.502 15.3001 204.766 14.6606C205.031 14.0211 205.48 13.4744 206.056 13.0899C206.631 12.7053 207.308 12.5 208 12.5C208.928 12.5 209.818 12.8687 210.475 13.5251C211.131 14.1815 211.5 15.0717 211.5 16Z" fill="currentColor"/>
<path opacity="0.2" d="M259 16C259 16.5933 258.824 17.1734 258.494 17.6667C258.165 18.1601 257.696 18.5446 257.148 18.7716C256.6 18.9987 255.997 19.0581 255.415 18.9424C254.833 18.8266 254.298 18.5409 253.879 18.1213C253.459 17.7018 253.173 17.1672 253.058 16.5853C252.942 16.0033 253.001 15.4001 253.228 14.8519C253.455 14.3038 253.84 13.8352 254.333 13.5056C254.827 13.1759 255.407 13 256 13C256.796 13 257.559 13.3161 258.121 13.8787C258.684 14.4413 259 15.2044 259 16Z" fill="currentColor"/>
<path d="M256 12C255.209 12 254.436 12.2346 253.778 12.6741C253.12 13.1136 252.607 13.7384 252.304 14.4693C252.002 15.2002 251.923 16.0044 252.077 16.7804C252.231 17.5563 252.612 18.269 253.172 18.8284C253.731 19.3878 254.444 19.7688 255.22 19.9231C255.996 20.0775 256.8 19.9983 257.531 19.6955C258.262 19.3928 258.886 18.8801 259.326 18.2223C259.765 17.5645 260 16.7911 260 16C260 14.9391 259.579 13.9217 258.828 13.1716C258.078 12.4214 257.061 12 256 12ZM256 18C255.604 18 255.218 17.8827 254.889 17.6629C254.56 17.4432 254.304 17.1308 254.152 16.7654C254.001 16.3999 253.961 15.9978 254.038 15.6098C254.116 15.2219 254.306 14.8655 254.586 14.5858C254.865 14.3061 255.222 14.1156 255.61 14.0384C255.998 13.9613 256.4 14.0009 256.765 14.1522C257.131 14.3036 257.443 14.56 257.663 14.8889C257.883 15.2178 258 15.6044 258 16C258 16.5304 257.789 17.0391 257.414 17.4142C257.039 17.7893 256.53 18 256 18Z" fill="currentColor"/>
</g>
<defs>
<clipPath id="clip0_17_11532">
<rect width="272" height="32" rx="5" fill="white"/>
</clipPath>
</defs>
</svg>
