<svg width="272" height="32" viewBox="0 0 272 32" fill="none" xmlns="http://www.w3.org/2000/svg">
<g clip-path="url(#clip0_17_11406)">
<path d="M17.5 16C17.5 16.2967 17.412 16.5867 17.2472 16.8334C17.0824 17.08 16.8481 17.2723 16.574 17.3858C16.2999 17.4994 15.9983 17.5291 15.7074 17.4712C15.4164 17.4133 15.1491 17.2704 14.9393 17.0607C14.7296 16.8509 14.5867 16.5836 14.5288 16.2926C14.4709 16.0017 14.5006 15.7001 14.6142 15.426C14.7277 15.1519 14.92 14.9176 15.1666 14.7528C15.4133 14.588 15.7033 14.5 16 14.5C16.3978 14.5 16.7794 14.658 17.0607 14.9393C17.342 15.2206 17.5 15.6022 17.5 16ZM16 9C16.2967 9 16.5867 8.91203 16.8334 8.74721C17.08 8.58238 17.2723 8.34811 17.3858 8.07403C17.4994 7.79994 17.5291 7.49834 17.4712 7.20737C17.4133 6.91639 17.2704 6.64912 17.0607 6.43934C16.8509 6.22956 16.5836 6.0867 16.2926 6.02882C16.0017 5.97094 15.7001 6.00065 15.426 6.11418C15.1519 6.22771 14.9176 6.41997 14.7528 6.66665C14.588 6.91332 14.5 7.20333 14.5 7.5C14.5 7.89783 14.658 8.27936 14.9393 8.56066C15.2206 8.84197 15.6022 9 16 9ZM16 23C15.7033 23 15.4133 23.088 15.1666 23.2528C14.92 23.4176 14.7277 23.6519 14.6142 23.926C14.5006 24.2001 14.4709 24.5017 14.5288 24.7926C14.5867 25.0836 14.7296 25.3509 14.9393 25.5607C15.1491 25.7704 15.4164 25.9133 15.7074 25.9712C15.9983 26.0291 16.2999 25.9993 16.574 25.8858C16.8481 25.7723 17.0824 25.58 17.2472 25.3334C17.412 25.0867 17.5 24.7967 17.5 24.5C17.5 24.1022 17.342 23.7206 17.0607 23.4393C16.7794 23.158 16.3978 23 16 23Z" fill="currentColor"/>
<path d="M63 7.5C63 7.30222 63.0586 7.10888 63.1685 6.94443C63.2784 6.77998 63.4346 6.65181 63.6173 6.57612C63.8 6.50043 64.0011 6.48063 64.1951 6.51922C64.3891 6.5578 64.5673 6.65304 64.7071 6.79289C64.847 6.93275 64.9422 7.11093 64.9808 7.30491C65.0194 7.49889 64.9996 7.69996 64.9239 7.88268C64.8482 8.06541 64.72 8.22159 64.5556 8.33147C64.3911 8.44135 64.1978 8.5 64 8.5C63.7348 8.5 63.4804 8.39464 63.2929 8.20711C63.1054 8.01957 63 7.76522 63 7.5ZM64 15C63.8022 15 63.6089 15.0587 63.4444 15.1685C63.28 15.2784 63.1518 15.4346 63.0761 15.6173C63.0004 15.8 62.9806 16.0011 63.0192 16.1951C63.0578 16.3891 63.153 16.5673 63.2929 16.7071C63.4327 16.847 63.6109 16.9422 63.8049 16.9808C63.9989 17.0194 64.2 16.9996 64.3827 16.9239C64.5654 16.8482 64.7216 16.72 64.8315 16.5556C64.9414 16.3911 65 16.1978 65 16C65 15.7348 64.8946 15.4804 64.7071 15.2929C64.5196 15.1054 64.2652 15 64 15ZM64 23.5C63.8022 23.5 63.6089 23.5586 63.4444 23.6685C63.28 23.7784 63.1518 23.9346 63.0761 24.1173C63.0004 24.3 62.9806 24.5011 63.0192 24.6951C63.0578 24.8891 63.153 25.0673 63.2929 25.2071C63.4327 25.347 63.6109 25.4422 63.8049 25.4808C63.9989 25.5194 64.2 25.4996 64.3827 25.4239C64.5654 25.3482 64.7216 25.22 64.8315 25.0556C64.9414 24.8911 65 24.6978 65 24.5C65 24.2348 64.8946 23.9804 64.7071 23.7929C64.5196 23.6054 64.2652 23.5 64 23.5Z" fill="currentColor"/>
<path d="M110.75 7.5C110.75 7.25277 110.823 7.0111 110.961 6.80554C111.098 6.59998 111.293 6.43976 111.522 6.34515C111.75 6.25054 112.001 6.22579 112.244 6.27402C112.486 6.32225 112.709 6.4413 112.884 6.61612C113.059 6.79093 113.178 7.01366 113.226 7.25614C113.274 7.49861 113.249 7.74995 113.155 7.97836C113.06 8.20676 112.9 8.40199 112.694 8.53934C112.489 8.67669 112.247 8.75 112 8.75C111.668 8.75 111.351 8.6183 111.116 8.38388C110.882 8.14946 110.75 7.83152 110.75 7.5ZM112 14.75C111.753 14.75 111.511 14.8233 111.306 14.9607C111.1 15.098 110.94 15.2932 110.845 15.5216C110.751 15.7501 110.726 16.0014 110.774 16.2439C110.822 16.4863 110.941 16.7091 111.116 16.8839C111.291 17.0587 111.514 17.1778 111.756 17.226C111.999 17.2742 112.25 17.2495 112.478 17.1549C112.707 17.0602 112.902 16.9 113.039 16.6945C113.177 16.4889 113.25 16.2472 113.25 16C113.25 15.6685 113.118 15.3505 112.884 15.1161C112.649 14.8817 112.332 14.75 112 14.75ZM112 23.25C111.753 23.25 111.511 23.3233 111.306 23.4607C111.1 23.598 110.94 23.7932 110.845 24.0216C110.751 24.2501 110.726 24.5014 110.774 24.7439C110.822 24.9863 110.941 25.2091 111.116 25.3839C111.291 25.5587 111.514 25.6777 111.756 25.726C111.999 25.7742 112.25 25.7495 112.478 25.6549C112.707 25.5602 112.902 25.4 113.039 25.1945C113.177 24.9889 113.25 24.7472 113.25 24.5C113.25 24.1685 113.118 23.8505 112.884 23.6161C112.649 23.3817 112.332 23.25 112 23.25Z" fill="currentColor"/>
<path d="M158 7.5C158 7.10444 158.117 6.71776 158.337 6.38886C158.557 6.05996 158.869 5.80362 159.235 5.65224C159.6 5.50087 160.002 5.46126 160.39 5.53843C160.778 5.6156 161.135 5.80608 161.414 6.08579C161.694 6.36549 161.884 6.72186 161.962 7.10982C162.039 7.49778 161.999 7.89992 161.848 8.26537C161.696 8.63082 161.44 8.94318 161.111 9.16294C160.782 9.3827 160.396 9.5 160 9.5C159.47 9.5 158.961 9.28929 158.586 8.91421C158.211 8.53914 158 8.03043 158 7.5ZM160 14C159.604 14 159.218 14.1173 158.889 14.3371C158.56 14.5568 158.304 14.8692 158.152 15.2346C158.001 15.6001 157.961 16.0022 158.038 16.3902C158.116 16.7781 158.306 17.1345 158.586 17.4142C158.865 17.6939 159.222 17.8844 159.61 17.9616C159.998 18.0387 160.4 17.9991 160.765 17.8478C161.131 17.6964 161.443 17.44 161.663 17.1111C161.883 16.7822 162 16.3956 162 16C162 15.4696 161.789 14.9609 161.414 14.5858C161.039 14.2107 160.53 14 160 14ZM160 22.5C159.604 22.5 159.218 22.6173 158.889 22.8371C158.56 23.0568 158.304 23.3692 158.152 23.7346C158.001 24.1001 157.961 24.5022 158.038 24.8902C158.116 25.2781 158.306 25.6345 158.586 25.9142C158.865 26.1939 159.222 26.3844 159.61 26.4616C159.998 26.5387 160.4 26.4991 160.765 26.3478C161.131 26.1964 161.443 25.94 161.663 25.6111C161.883 25.2822 162 24.8956 162 24.5C162 23.9696 161.789 23.4609 161.414 23.0858C161.039 22.7107 160.53 22.5 160 22.5Z" fill="currentColor"/>
<path d="M216 2H200C199.47 2 198.961 2.21071 198.586 2.58579C198.211 2.96086 198 3.46957 198 4V28C198 28.5304 198.211 29.0391 198.586 29.4142C198.961 29.7893 199.47 30 200 30H216C216.53 30 217.039 29.7893 217.414 29.4142C217.789 29.0391 218 28.5304 218 28V4C218 3.46957 217.789 2.96086 217.414 2.58579C217.039 2.21071 216.53 2 216 2ZM208 26C207.703 26 207.413 25.912 207.167 25.7472C206.92 25.5824 206.728 25.3481 206.614 25.074C206.501 24.7999 206.471 24.4983 206.529 24.2074C206.587 23.9164 206.73 23.6491 206.939 23.4393C207.149 23.2296 207.416 23.0867 207.707 23.0288C207.998 22.9709 208.3 23.0007 208.574 23.1142C208.848 23.2277 209.082 23.42 209.247 23.6666C209.412 23.9133 209.5 24.2033 209.5 24.5C209.5 24.8978 209.342 25.2794 209.061 25.5607C208.779 25.842 208.398 26 208 26ZM208 17.5C207.703 17.5 207.413 17.412 207.167 17.2472C206.92 17.0824 206.728 16.8481 206.614 16.574C206.501 16.2999 206.471 15.9983 206.529 15.7074C206.587 15.4164 206.73 15.1491 206.939 14.9393C207.149 14.7296 207.416 14.5867 207.707 14.5288C207.998 14.4709 208.3 14.5006 208.574 14.6142C208.848 14.7277 209.082 14.92 209.247 15.1666C209.412 15.4133 209.5 15.7033 209.5 16C209.5 16.3978 209.342 16.7794 209.061 17.0607C208.779 17.342 208.398 17.5 208 17.5ZM208 9C207.703 9 207.413 8.91203 207.167 8.7472C206.92 8.58238 206.728 8.34811 206.614 8.07403C206.501 7.79994 206.471 7.49834 206.529 7.20736C206.587 6.91639 206.73 6.64912 206.939 6.43934C207.149 6.22956 207.416 6.0867 207.707 6.02882C207.998 5.97094 208.3 6.00065 208.574 6.11418C208.848 6.22771 209.082 6.41997 209.247 6.66664C209.412 6.91332 209.5 7.20333 209.5 7.5C209.5 7.89782 209.342 8.27936 209.061 8.56066C208.779 8.84196 208.398 9 208 9Z" fill="currentColor"/>
<path opacity="0.2" d="M266 4V28C266 28.5304 265.789 29.0391 265.414 29.4142C265.039 29.7893 264.53 30 264 30H248C247.47 30 246.961 29.7893 246.586 29.4142C246.211 29.0391 246 28.5304 246 28V4C246 3.46957 246.211 2.96086 246.586 2.58579C246.961 2.21071 247.47 2 248 2H264C264.53 2 265.039 2.21071 265.414 2.58579C265.789 2.96086 266 3.46957 266 4Z" fill="currentColor"/>
<path d="M257.5 16C257.5 16.2967 257.412 16.5867 257.247 16.8334C257.082 17.08 256.848 17.2723 256.574 17.3858C256.3 17.4994 255.998 17.5291 255.707 17.4712C255.416 17.4133 255.149 17.2704 254.939 17.0607C254.73 16.8509 254.587 16.5836 254.529 16.2926C254.471 16.0017 254.501 15.7001 254.614 15.426C254.728 15.1519 254.92 14.9176 255.167 14.7528C255.413 14.588 255.703 14.5 256 14.5C256.398 14.5 256.779 14.658 257.061 14.9393C257.342 15.2206 257.5 15.6022 257.5 16ZM256 9C256.297 9 256.587 8.91203 256.833 8.74721C257.08 8.58238 257.272 8.34811 257.386 8.07403C257.499 7.79994 257.529 7.49834 257.471 7.20737C257.413 6.91639 257.27 6.64912 257.061 6.43934C256.851 6.22956 256.584 6.0867 256.293 6.02882C256.002 5.97094 255.7 6.00065 255.426 6.11418C255.152 6.22771 254.918 6.41997 254.753 6.66665C254.588 6.91332 254.5 7.20333 254.5 7.5C254.5 7.89783 254.658 8.27936 254.939 8.56066C255.221 8.84197 255.602 9 256 9ZM256 23C255.703 23 255.413 23.088 255.167 23.2528C254.92 23.4176 254.728 23.6519 254.614 23.926C254.501 24.2001 254.471 24.5017 254.529 24.7926C254.587 25.0836 254.73 25.3509 254.939 25.5607C255.149 25.7704 255.416 25.9133 255.707 25.9712C255.998 26.0291 256.3 25.9993 256.574 25.8858C256.848 25.7723 257.082 25.58 257.247 25.3334C257.412 25.0867 257.5 24.7967 257.5 24.5C257.5 24.1022 257.342 23.7206 257.061 23.4393C256.779 23.158 256.398 23 256 23Z" fill="currentColor"/>
</g>
<defs>
<clipPath id="clip0_17_11406">
<rect width="272" height="32" rx="5" fill="white"/>
</clipPath>
</defs>
</svg>
