<svg width="272" height="32" viewBox="0 0 272 32" fill="none" xmlns="http://www.w3.org/2000/svg">
<g clip-path="url(#clip0_17_11420)">
<path d="M16 12C15.2089 12 14.4355 12.2346 13.7777 12.6741C13.1199 13.1136 12.6072 13.7384 12.3045 14.4693C12.0017 15.2002 11.9225 16.0044 12.0769 16.7804C12.2312 17.5563 12.6122 18.269 13.1716 18.8284C13.731 19.3878 14.4437 19.7688 15.2196 19.9231C15.9956 20.0775 16.7998 19.9983 17.5307 19.6955C18.2616 19.3928 18.8864 18.8801 19.3259 18.2223C19.7654 17.5645 20 16.7911 20 16C20 14.9391 19.5786 13.9217 18.8284 13.1716C18.0783 12.4214 17.0609 12 16 12ZM16 18C15.6044 18 15.2178 17.8827 14.8889 17.6629C14.56 17.4432 14.3036 17.1308 14.1522 16.7654C14.0009 16.3999 13.9613 15.9978 14.0384 15.6098C14.1156 15.2219 14.3061 14.8655 14.5858 14.5858C14.8655 14.3061 15.2219 14.1156 15.6098 14.0384C15.9978 13.9613 16.3999 14.0009 16.7654 14.1522C17.1308 14.3036 17.4432 14.56 17.6629 14.8889C17.8827 15.2178 18 15.6044 18 16C18 16.5304 17.7893 17.0391 17.4142 17.4142C17.0391 17.7893 16.5304 18 16 18ZM16 10C16.7911 10 17.5645 9.76541 18.2223 9.32588C18.8801 8.88635 19.3928 8.26164 19.6955 7.53074C19.9983 6.79983 20.0775 5.99556 19.9231 5.21964C19.7688 4.44372 19.3878 3.73098 18.8284 3.17157C18.269 2.61216 17.5563 2.2312 16.7804 2.07686C16.0044 1.92252 15.2002 2.00173 14.4693 2.30448C13.7384 2.60723 13.1136 3.11992 12.6741 3.77772C12.2346 4.43552 12 5.20888 12 6C12 7.06087 12.4214 8.07828 13.1716 8.82843C13.9217 9.57857 14.9391 10 16 10ZM16 4C16.3956 4 16.7822 4.1173 17.1111 4.33706C17.44 4.55683 17.6964 4.86918 17.8478 5.23463C17.9991 5.60009 18.0387 6.00222 17.9616 6.39018C17.8844 6.77814 17.6939 7.13451 17.4142 7.41422C17.1345 7.69392 16.7781 7.8844 16.3902 7.96157C16.0022 8.03874 15.6001 7.99914 15.2346 7.84776C14.8692 7.69639 14.5568 7.44004 14.3371 7.11114C14.1173 6.78224 14 6.39556 14 6C14 5.46957 14.2107 4.96086 14.5858 4.58579C14.9609 4.21072 15.4696 4 16 4ZM16 22C15.2089 22 14.4355 22.2346 13.7777 22.6741C13.1199 23.1136 12.6072 23.7384 12.3045 24.4693C12.0017 25.2002 11.9225 26.0044 12.0769 26.7804C12.2312 27.5563 12.6122 28.269 13.1716 28.8284C13.731 29.3878 14.4437 29.7688 15.2196 29.9231C15.9956 30.0775 16.7998 29.9983 17.5307 29.6955C18.2616 29.3928 18.8864 28.8801 19.3259 28.2223C19.7654 27.5645 20 26.7911 20 26C20 24.9391 19.5786 23.9217 18.8284 23.1716C18.0783 22.4214 17.0609 22 16 22ZM16 28C15.6044 28 15.2178 27.8827 14.8889 27.6629C14.56 27.4432 14.3036 27.1308 14.1522 26.7654C14.0009 26.3999 13.9613 25.9978 14.0384 25.6098C14.1156 25.2219 14.3061 24.8655 14.5858 24.5858C14.8655 24.3061 15.2219 24.1156 15.6098 24.0384C15.9978 23.9613 16.3999 24.0009 16.7654 24.1522C17.1308 24.3036 17.4432 24.56 17.6629 24.8889C17.8827 25.2178 18 25.6044 18 26C18 26.5304 17.7893 27.0391 17.4142 27.4142C17.0391 27.7893 16.5304 28 16 28Z" fill="currentColor"/>
<path d="M64 12.5C63.3078 12.5 62.6311 12.7053 62.0555 13.0899C61.4799 13.4744 61.0313 14.0211 60.7664 14.6606C60.5015 15.3002 60.4322 16.0039 60.5673 16.6828C60.7023 17.3618 61.0356 17.9854 61.5251 18.4749C62.0146 18.9644 62.6383 19.2977 63.3172 19.4328C63.9961 19.5678 64.6999 19.4985 65.3394 19.2336C65.9789 18.9687 66.5256 18.5201 66.9101 17.9445C67.2947 17.3689 67.5 16.6922 67.5 16C67.5 15.0717 67.1313 14.1815 66.4749 13.5251C65.8185 12.8688 64.9283 12.5 64 12.5ZM64 18.5C63.5055 18.5 63.0222 18.3534 62.6111 18.0787C62.2 17.804 61.8795 17.4135 61.6903 16.9567C61.5011 16.4999 61.4516 15.9972 61.548 15.5123C61.6445 15.0273 61.8826 14.5819 62.2322 14.2322C62.5819 13.8826 63.0273 13.6445 63.5123 13.548C63.9972 13.4516 64.4999 13.5011 64.9567 13.6903C65.4135 13.8795 65.804 14.2 66.0787 14.6111C66.3534 15.0222 66.5 15.5055 66.5 16C66.5 16.663 66.2366 17.2989 65.7678 17.7678C65.2989 18.2366 64.663 18.5 64 18.5ZM64 9.5C64.6922 9.5 65.3689 9.29473 65.9445 8.91015C66.5201 8.52556 66.9687 7.97894 67.2336 7.33939C67.4985 6.69985 67.5678 5.99612 67.4328 5.31719C67.2977 4.63825 66.9644 4.01461 66.4749 3.52513C65.9854 3.03564 65.3618 2.7023 64.6828 2.56725C64.0039 2.4322 63.3002 2.50152 62.6606 2.76642C62.0211 3.03133 61.4744 3.47993 61.0899 4.05551C60.7053 4.63108 60.5 5.30777 60.5 6C60.5 6.92826 60.8688 7.8185 61.5251 8.47487C62.1815 9.13125 63.0717 9.5 64 9.5ZM64 3.5C64.4945 3.5 64.9778 3.64662 65.3889 3.92133C65.8001 4.19603 66.1205 4.58648 66.3097 5.04329C66.4989 5.50011 66.5484 6.00277 66.452 6.48773C66.3555 6.97268 66.1174 7.41814 65.7678 7.76777C65.4181 8.1174 64.9727 8.3555 64.4877 8.45196C64.0028 8.54843 63.5001 8.49892 63.0433 8.3097C62.5865 8.12048 62.196 7.80005 61.9213 7.38893C61.6466 6.9778 61.5 6.49445 61.5 6C61.5 5.33696 61.7634 4.70108 62.2322 4.23223C62.7011 3.76339 63.337 3.5 64 3.5ZM64 22.5C63.3078 22.5 62.6311 22.7053 62.0555 23.0899C61.4799 23.4744 61.0313 24.0211 60.7664 24.6606C60.5015 25.3002 60.4322 26.0039 60.5673 26.6828C60.7023 27.3618 61.0356 27.9854 61.5251 28.4749C62.0146 28.9644 62.6383 29.2977 63.3172 29.4328C63.9961 29.5678 64.6999 29.4985 65.3394 29.2336C65.9789 28.9687 66.5256 28.5201 66.9101 27.9445C67.2947 27.3689 67.5 26.6922 67.5 26C67.5 25.0717 67.1313 24.1815 66.4749 23.5251C65.8185 22.8687 64.9283 22.5 64 22.5ZM64 28.5C63.5055 28.5 63.0222 28.3534 62.6111 28.0787C62.2 27.804 61.8795 27.4135 61.6903 26.9567C61.5011 26.4999 61.4516 25.9972 61.548 25.5123C61.6445 25.0273 61.8826 24.5819 62.2322 24.2322C62.5819 23.8826 63.0273 23.6445 63.5123 23.548C63.9972 23.4516 64.4999 23.5011 64.9567 23.6903C65.4135 23.8795 65.804 24.2 66.0787 24.6111C66.3534 25.0222 66.5 25.5055 66.5 26C66.5 26.663 66.2366 27.2989 65.7678 27.7678C65.2989 28.2366 64.663 28.5 64 28.5Z" fill="currentColor"/>
<path d="M112 12.25C111.258 12.25 110.533 12.4699 109.917 12.882C109.3 13.294 108.819 13.8797 108.535 14.5649C108.252 15.2502 108.177 16.0042 108.322 16.7316C108.467 17.459 108.824 18.1272 109.348 18.6517C109.873 19.1761 110.541 19.5333 111.268 19.6779C111.996 19.8226 112.75 19.7484 113.435 19.4646C114.12 19.1807 114.706 18.7001 115.118 18.0834C115.53 17.4667 115.75 16.7417 115.75 16C115.75 15.0054 115.355 14.0516 114.652 13.3484C113.948 12.6451 112.995 12.25 112 12.25ZM112 18.25C111.555 18.25 111.12 18.118 110.75 17.8708C110.38 17.6236 110.092 17.2722 109.921 16.861C109.751 16.4499 109.706 15.9975 109.793 15.561C109.88 15.1246 110.094 14.7237 110.409 14.409C110.724 14.0943 111.125 13.8801 111.561 13.7932C111.998 13.7064 112.45 13.751 112.861 13.9213C113.272 14.0916 113.624 14.38 113.871 14.75C114.118 15.12 114.25 15.555 114.25 16C114.25 16.5967 114.013 17.169 113.591 17.591C113.169 18.0129 112.597 18.25 112 18.25ZM112 9.75C112.742 9.75 113.467 9.53007 114.083 9.11801C114.7 8.70596 115.181 8.12029 115.465 7.43506C115.748 6.74984 115.823 5.99584 115.678 5.26841C115.533 4.54098 115.176 3.8728 114.652 3.34835C114.127 2.8239 113.459 2.46675 112.732 2.32206C112.004 2.17736 111.25 2.25162 110.565 2.53545C109.88 2.81928 109.294 3.29993 108.882 3.91661C108.47 4.5333 108.25 5.25832 108.25 6C108.25 6.99456 108.645 7.94839 109.348 8.65165C110.052 9.35491 111.005 9.75 112 9.75ZM112 3.75C112.445 3.75 112.88 3.88196 113.25 4.1292C113.62 4.37643 113.908 4.72783 114.079 5.13896C114.249 5.5501 114.294 6.0025 114.207 6.43896C114.12 6.87541 113.906 7.27632 113.591 7.59099C113.276 7.90566 112.875 8.11995 112.439 8.20677C112.002 8.29359 111.55 8.24903 111.139 8.07873C110.728 7.90843 110.376 7.62005 110.129 7.25003C109.882 6.88002 109.75 6.44501 109.75 6C109.75 5.40326 109.987 4.83097 110.409 4.40901C110.831 3.98705 111.403 3.75 112 3.75ZM112 22.25C111.258 22.25 110.533 22.4699 109.917 22.882C109.3 23.294 108.819 23.8797 108.535 24.5649C108.252 25.2502 108.177 26.0042 108.322 26.7316C108.467 27.459 108.824 28.1272 109.348 28.6517C109.873 29.1761 110.541 29.5333 111.268 29.6779C111.996 29.8226 112.75 29.7484 113.435 29.4646C114.12 29.1807 114.706 28.7001 115.118 28.0834C115.53 27.4667 115.75 26.7417 115.75 26C115.75 25.0054 115.355 24.0516 114.652 23.3484C113.948 22.6451 112.995 22.25 112 22.25ZM112 28.25C111.555 28.25 111.12 28.118 110.75 27.8708C110.38 27.6236 110.092 27.2722 109.921 26.861C109.751 26.4499 109.706 25.9975 109.793 25.561C109.88 25.1246 110.094 24.7237 110.409 24.409C110.724 24.0943 111.125 23.8801 111.561 23.7932C111.998 23.7064 112.45 23.751 112.861 23.9213C113.272 24.0916 113.624 24.38 113.871 24.75C114.118 25.12 114.25 25.555 114.25 26C114.25 26.5967 114.013 27.169 113.591 27.591C113.169 28.0129 112.597 28.25 112 28.25Z" fill="currentColor"/>
<path d="M160 12C159.209 12 158.436 12.2346 157.778 12.6741C157.12 13.1136 156.607 13.7384 156.304 14.4693C156.002 15.2002 155.923 16.0044 156.077 16.7804C156.231 17.5563 156.612 18.269 157.172 18.8284C157.731 19.3878 158.444 19.7688 159.22 19.9231C159.996 20.0775 160.8 19.9983 161.531 19.6955C162.262 19.3928 162.886 18.8801 163.326 18.2223C163.765 17.5645 164 16.7911 164 16C164 14.9391 163.579 13.9217 162.828 13.1716C162.078 12.4214 161.061 12 160 12ZM160 17C159.802 17 159.609 16.9414 159.444 16.8315C159.28 16.7216 159.152 16.5654 159.076 16.3827C159 16.2 158.981 15.9989 159.019 15.8049C159.058 15.6109 159.153 15.4327 159.293 15.2929C159.433 15.153 159.611 15.0578 159.805 15.0192C159.999 14.9806 160.2 15.0004 160.383 15.0761C160.565 15.1518 160.722 15.28 160.831 15.4444C160.941 15.6089 161 15.8022 161 16C161 16.2652 160.895 16.5196 160.707 16.7071C160.52 16.8946 160.265 17 160 17ZM160 10C160.791 10 161.564 9.76541 162.222 9.32588C162.88 8.88635 163.393 8.26164 163.696 7.53074C163.998 6.79983 164.077 5.99556 163.923 5.21964C163.769 4.44372 163.388 3.73098 162.828 3.17157C162.269 2.61216 161.556 2.2312 160.78 2.07686C160.004 1.92252 159.2 2.00173 158.469 2.30448C157.738 2.60723 157.114 3.11992 156.674 3.77772C156.235 4.43552 156 5.20888 156 6C156 7.06087 156.421 8.07828 157.172 8.82843C157.922 9.57857 158.939 10 160 10ZM160 5C160.198 5 160.391 5.05865 160.556 5.16853C160.72 5.27841 160.848 5.43459 160.924 5.61732C161 5.80004 161.019 6.00111 160.981 6.19509C160.942 6.38907 160.847 6.56726 160.707 6.70711C160.567 6.84696 160.389 6.9422 160.195 6.98079C160.001 7.01937 159.8 6.99957 159.617 6.92388C159.435 6.84819 159.278 6.72002 159.169 6.55557C159.059 6.39112 159 6.19778 159 6C159 5.73479 159.105 5.48043 159.293 5.2929C159.48 5.10536 159.735 5 160 5ZM160 22C159.209 22 158.436 22.2346 157.778 22.6741C157.12 23.1136 156.607 23.7384 156.304 24.4693C156.002 25.2002 155.923 26.0044 156.077 26.7804C156.231 27.5563 156.612 28.269 157.172 28.8284C157.731 29.3878 158.444 29.7688 159.22 29.9231C159.996 30.0775 160.8 29.9983 161.531 29.6955C162.262 29.3928 162.886 28.8801 163.326 28.2223C163.765 27.5645 164 26.7911 164 26C164 24.9391 163.579 23.9217 162.828 23.1716C162.078 22.4214 161.061 22 160 22ZM160 27C159.802 27 159.609 26.9414 159.444 26.8315C159.28 26.7216 159.152 26.5654 159.076 26.3827C159 26.2 158.981 25.9989 159.019 25.8049C159.058 25.6109 159.153 25.4327 159.293 25.2929C159.433 25.153 159.611 25.0578 159.805 25.0192C159.999 24.9806 160.2 25.0004 160.383 25.0761C160.565 25.1518 160.722 25.28 160.831 25.4444C160.941 25.6089 161 25.8022 161 26C161 26.2652 160.895 26.5196 160.707 26.7071C160.52 26.8946 160.265 27 160 27Z" fill="currentColor"/>
<path d="M211.5 16C211.5 16.6922 211.295 17.3689 210.91 17.9445C210.526 18.5201 209.979 18.9687 209.339 19.2336C208.7 19.4985 207.996 19.5678 207.317 19.4328C206.638 19.2977 206.015 18.9644 205.525 18.4749C205.036 17.9854 204.702 17.3618 204.567 16.6828C204.432 16.0039 204.502 15.3002 204.766 14.6606C205.031 14.0211 205.48 13.4744 206.056 13.0899C206.631 12.7053 207.308 12.5 208 12.5C208.928 12.5 209.818 12.8688 210.475 13.5251C211.131 14.1815 211.5 15.0717 211.5 16ZM208 9.5C208.692 9.5 209.369 9.29473 209.944 8.91015C210.52 8.52556 210.969 7.97894 211.234 7.33939C211.498 6.69985 211.568 5.99612 211.433 5.31719C211.298 4.63825 210.964 4.01461 210.475 3.52513C209.985 3.03564 209.362 2.7023 208.683 2.56725C208.004 2.4322 207.3 2.50152 206.661 2.76642C206.021 3.03133 205.474 3.47993 205.09 4.05551C204.705 4.63108 204.5 5.30777 204.5 6C204.5 6.92826 204.869 7.8185 205.525 8.47487C206.182 9.13125 207.072 9.5 208 9.5ZM208 22.5C207.308 22.5 206.631 22.7053 206.056 23.0899C205.48 23.4744 205.031 24.0211 204.766 24.6606C204.502 25.3002 204.432 26.0039 204.567 26.6828C204.702 27.3618 205.036 27.9854 205.525 28.4749C206.015 28.9644 206.638 29.2977 207.317 29.4328C207.996 29.5678 208.7 29.4985 209.339 29.2336C209.979 28.9687 210.526 28.5201 210.91 27.9445C211.295 27.3689 211.5 26.6922 211.5 26C211.5 25.0717 211.131 24.1815 210.475 23.5251C209.818 22.8687 208.928 22.5 208 22.5Z" fill="currentColor"/>
<path opacity="0.2" d="M259 16C259 16.5933 258.824 17.1734 258.494 17.6667C258.165 18.1601 257.696 18.5446 257.148 18.7716C256.6 18.9987 255.997 19.0581 255.415 18.9424C254.833 18.8266 254.298 18.5409 253.879 18.1213C253.459 17.7018 253.173 17.1672 253.058 16.5853C252.942 16.0033 253.001 15.4001 253.228 14.852C253.455 14.3038 253.84 13.8352 254.333 13.5056C254.827 13.1759 255.407 13 256 13C256.796 13 257.559 13.3161 258.121 13.8787C258.684 14.4413 259 15.2044 259 16ZM256 9C256.593 9 257.173 8.82405 257.667 8.49441C258.16 8.16477 258.545 7.69623 258.772 7.14805C258.999 6.59987 259.058 5.99667 258.942 5.41473C258.827 4.83279 258.541 4.29824 258.121 3.87868C257.702 3.45912 257.167 3.1734 256.585 3.05765C256.003 2.94189 255.4 3.0013 254.852 3.22836C254.304 3.45543 253.835 3.83994 253.506 4.33329C253.176 4.82664 253 5.40666 253 6C253 6.79565 253.316 7.55871 253.879 8.12132C254.441 8.68393 255.204 9 256 9ZM256 23C255.407 23 254.827 23.1759 254.333 23.5056C253.84 23.8352 253.455 24.3038 253.228 24.852C253.001 25.4001 252.942 26.0033 253.058 26.5853C253.173 27.1672 253.459 27.7018 253.879 28.1213C254.298 28.5409 254.833 28.8266 255.415 28.9424C255.997 29.0581 256.6 28.9987 257.148 28.7716C257.696 28.5446 258.165 28.1601 258.494 27.6667C258.824 27.1734 259 26.5933 259 26C259 25.2044 258.684 24.4413 258.121 23.8787C257.559 23.3161 256.796 23 256 23Z" fill="currentColor"/>
<path d="M256 12C255.209 12 254.436 12.2346 253.778 12.6741C253.12 13.1136 252.607 13.7384 252.304 14.4693C252.002 15.2002 251.923 16.0044 252.077 16.7804C252.231 17.5563 252.612 18.269 253.172 18.8284C253.731 19.3878 254.444 19.7688 255.22 19.9231C255.996 20.0775 256.8 19.9983 257.531 19.6955C258.262 19.3928 258.886 18.8801 259.326 18.2223C259.765 17.5645 260 16.7911 260 16C260 14.9391 259.579 13.9217 258.828 13.1716C258.078 12.4214 257.061 12 256 12ZM256 18C255.604 18 255.218 17.8827 254.889 17.6629C254.56 17.4432 254.304 17.1308 254.152 16.7654C254.001 16.3999 253.961 15.9978 254.038 15.6098C254.116 15.2219 254.306 14.8655 254.586 14.5858C254.865 14.3061 255.222 14.1156 255.61 14.0384C255.998 13.9613 256.4 14.0009 256.765 14.1522C257.131 14.3036 257.443 14.56 257.663 14.8889C257.883 15.2178 258 15.6044 258 16C258 16.5304 257.789 17.0391 257.414 17.4142C257.039 17.7893 256.53 18 256 18ZM256 10C256.791 10 257.564 9.76541 258.222 9.32588C258.88 8.88635 259.393 8.26164 259.696 7.53074C259.998 6.79983 260.077 5.99556 259.923 5.21964C259.769 4.44372 259.388 3.73098 258.828 3.17157C258.269 2.61216 257.556 2.2312 256.78 2.07686C256.004 1.92252 255.2 2.00173 254.469 2.30448C253.738 2.60723 253.114 3.11992 252.674 3.77772C252.235 4.43552 252 5.20888 252 6C252 7.06087 252.421 8.07828 253.172 8.82843C253.922 9.57857 254.939 10 256 10ZM256 4C256.396 4 256.782 4.1173 257.111 4.33706C257.44 4.55683 257.696 4.86918 257.848 5.23463C257.999 5.60009 258.039 6.00222 257.962 6.39018C257.884 6.77814 257.694 7.13451 257.414 7.41422C257.135 7.69392 256.778 7.8844 256.39 7.96157C256.002 8.03874 255.6 7.99914 255.235 7.84776C254.869 7.69639 254.557 7.44004 254.337 7.11114C254.117 6.78224 254 6.39556 254 6C254 5.46957 254.211 4.96086 254.586 4.58579C254.961 4.21072 255.47 4 256 4ZM256 22C255.209 22 254.436 22.2346 253.778 22.6741C253.12 23.1136 252.607 23.7384 252.304 24.4693C252.002 25.2002 251.923 26.0044 252.077 26.7804C252.231 27.5563 252.612 28.269 253.172 28.8284C253.731 29.3878 254.444 29.7688 255.22 29.9231C255.996 30.0775 256.8 29.9983 257.531 29.6955C258.262 29.3928 258.886 28.8801 259.326 28.2223C259.765 27.5645 260 26.7911 260 26C260 24.9391 259.579 23.9217 258.828 23.1716C258.078 22.4214 257.061 22 256 22ZM256 28C255.604 28 255.218 27.8827 254.889 27.6629C254.56 27.4432 254.304 27.1308 254.152 26.7654C254.001 26.3999 253.961 25.9978 254.038 25.6098C254.116 25.2219 254.306 24.8655 254.586 24.5858C254.865 24.3061 255.222 24.1156 255.61 24.0384C255.998 23.9613 256.4 24.0009 256.765 24.1522C257.131 24.3036 257.443 24.56 257.663 24.8889C257.883 25.2178 258 25.6044 258 26C258 26.5304 257.789 27.0391 257.414 27.4142C257.039 27.7893 256.53 28 256 28Z" fill="currentColor"/>
</g>
<defs>
<clipPath id="clip0_17_11420">
<rect width="272" height="32" rx="5" fill="white"/>
</clipPath>
</defs>
</svg>
