<svg width="272" height="32" viewBox="0 0 272 32" fill="none" xmlns="http://www.w3.org/2000/svg">
<g clip-path="url(#clip0_17_11504)">
<path d="M9 11.5C9 11.7967 8.91203 12.0867 8.74721 12.3334C8.58238 12.58 8.34811 12.7723 8.07403 12.8858C7.79994 12.9994 7.49834 13.0291 7.20737 12.9712C6.91639 12.9133 6.64912 12.7704 6.43934 12.5607C6.22956 12.3509 6.0867 12.0836 6.02882 11.7926C5.97094 11.5017 6.00065 11.2001 6.11418 10.926C6.22771 10.6519 6.41997 10.4176 6.66665 10.2528C6.91332 10.088 7.20333 10 7.5 10C7.89783 10 8.27936 10.158 8.56066 10.4393C8.84197 10.7206 9 11.1022 9 11.5ZM16 10C15.7033 10 15.4133 10.088 15.1666 10.2528C14.92 10.4176 14.7277 10.6519 14.6142 10.926C14.5007 11.2001 14.4709 11.5017 14.5288 11.7926C14.5867 12.0836 14.7296 12.3509 14.9393 12.5607C15.1491 12.7704 15.4164 12.9133 15.7074 12.9712C15.9983 13.0291 16.2999 12.9994 16.574 12.8858C16.8481 12.7723 17.0824 12.58 17.2472 12.3334C17.412 12.0867 17.5 11.7967 17.5 11.5C17.5 11.1022 17.342 10.7206 17.0607 10.4393C16.7794 10.158 16.3978 10 16 10ZM24.5 13C24.7967 13 25.0867 12.912 25.3334 12.7472C25.58 12.5824 25.7723 12.3481 25.8858 12.074C25.9993 11.7999 26.0291 11.4983 25.9712 11.2074C25.9133 10.9164 25.7704 10.6491 25.5607 10.4393C25.3509 10.2296 25.0836 10.0867 24.7926 10.0288C24.5017 9.97094 24.2001 10.0006 23.926 10.1142C23.6519 10.2277 23.4176 10.42 23.2528 10.6666C23.088 10.9133 23 11.2033 23 11.5C23 11.8978 23.158 12.2794 23.4393 12.5607C23.7206 12.842 24.1022 13 24.5 13ZM7.5 19C7.20333 19 6.91332 19.088 6.66665 19.2528C6.41997 19.4176 6.22771 19.6519 6.11418 19.926C6.00065 20.2001 5.97094 20.5017 6.02882 20.7926C6.0867 21.0836 6.22956 21.3509 6.43934 21.5607C6.64912 21.7704 6.91639 21.9133 7.20737 21.9712C7.49834 22.0291 7.79994 21.9994 8.07403 21.8858C8.34811 21.7723 8.58238 21.58 8.74721 21.3334C8.91203 21.0867 9 20.7967 9 20.5C9 20.1022 8.84197 19.7206 8.56066 19.4393C8.27936 19.158 7.89783 19 7.5 19ZM16 19C15.7033 19 15.4133 19.088 15.1666 19.2528C14.92 19.4176 14.7277 19.6519 14.6142 19.926C14.5007 20.2001 14.4709 20.5017 14.5288 20.7926C14.5867 21.0836 14.7296 21.3509 14.9393 21.5607C15.1491 21.7704 15.4164 21.9133 15.7074 21.9712C15.9983 22.0291 16.2999 21.9994 16.574 21.8858C16.8481 21.7723 17.0824 21.58 17.2472 21.3334C17.412 21.0867 17.5 20.7967 17.5 20.5C17.5 20.1022 17.342 19.7206 17.0607 19.4393C16.7794 19.158 16.3978 19 16 19ZM24.5 19C24.2033 19 23.9133 19.088 23.6666 19.2528C23.42 19.4176 23.2277 19.6519 23.1142 19.926C23.0007 20.2001 22.9709 20.5017 23.0288 20.7926C23.0867 21.0836 23.2296 21.3509 23.4393 21.5607C23.6491 21.7704 23.9164 21.9133 24.2074 21.9712C24.4983 22.0291 24.7999 21.9994 25.074 21.8858C25.3481 21.7723 25.5824 21.58 25.7472 21.3334C25.912 21.0867 26 20.7967 26 20.5C26 20.1022 25.842 19.7206 25.5607 19.4393C25.2794 19.158 24.8978 19 24.5 19Z" fill="currentColor"/>
<path d="M56.5 11.5C56.5 11.6978 56.4414 11.8911 56.3315 12.0556C56.2216 12.22 56.0654 12.3482 55.8827 12.4239C55.7 12.4996 55.4989 12.5194 55.3049 12.4808C55.1109 12.4422 54.9327 12.347 54.7929 12.2071C54.653 12.0673 54.5578 11.8891 54.5192 11.6951C54.4806 11.5011 54.5004 11.3 54.5761 11.1173C54.6518 10.9346 54.78 10.7784 54.9444 10.6685C55.1089 10.5586 55.3022 10.5 55.5 10.5C55.7652 10.5 56.0196 10.6054 56.2071 10.7929C56.3946 10.9804 56.5 11.2348 56.5 11.5ZM64 10.5C63.8022 10.5 63.6089 10.5586 63.4444 10.6685C63.28 10.7784 63.1518 10.9346 63.0761 11.1173C63.0004 11.3 62.9806 11.5011 63.0192 11.6951C63.0578 11.8891 63.153 12.0673 63.2929 12.2071C63.4327 12.347 63.6109 12.4422 63.8049 12.4808C63.9989 12.5194 64.2 12.4996 64.3827 12.4239C64.5654 12.3482 64.7216 12.22 64.8315 12.0556C64.9414 11.8911 65 11.6978 65 11.5C65 11.2348 64.8946 10.9804 64.7071 10.7929C64.5196 10.6054 64.2652 10.5 64 10.5ZM72.5 12.5C72.6978 12.5 72.8911 12.4414 73.0556 12.3315C73.22 12.2216 73.3482 12.0654 73.4239 11.8827C73.4996 11.7 73.5194 11.4989 73.4808 11.3049C73.4422 11.1109 73.347 10.9327 73.2071 10.7929C73.0673 10.653 72.8891 10.5578 72.6951 10.5192C72.5011 10.4806 72.3 10.5004 72.1173 10.5761C71.9346 10.6518 71.7784 10.78 71.6685 10.9444C71.5586 11.1089 71.5 11.3022 71.5 11.5C71.5 11.7652 71.6054 12.0196 71.7929 12.2071C71.9804 12.3946 72.2348 12.5 72.5 12.5ZM55.5 19.5C55.3022 19.5 55.1089 19.5586 54.9444 19.6685C54.78 19.7784 54.6518 19.9346 54.5761 20.1173C54.5004 20.3 54.4806 20.5011 54.5192 20.6951C54.5578 20.8891 54.653 21.0673 54.7929 21.2071C54.9327 21.347 55.1109 21.4422 55.3049 21.4808C55.4989 21.5194 55.7 21.4996 55.8827 21.4239C56.0654 21.3482 56.2216 21.22 56.3315 21.0556C56.4414 20.8911 56.5 20.6978 56.5 20.5C56.5 20.2348 56.3946 19.9804 56.2071 19.7929C56.0196 19.6054 55.7652 19.5 55.5 19.5ZM64 19.5C63.8022 19.5 63.6089 19.5586 63.4444 19.6685C63.28 19.7784 63.1518 19.9346 63.0761 20.1173C63.0004 20.3 62.9806 20.5011 63.0192 20.6951C63.0578 20.8891 63.153 21.0673 63.2929 21.2071C63.4327 21.347 63.6109 21.4422 63.8049 21.4808C63.9989 21.5194 64.2 21.4996 64.3827 21.4239C64.5654 21.3482 64.7216 21.22 64.8315 21.0556C64.9414 20.8911 65 20.6978 65 20.5C65 20.2348 64.8946 19.9804 64.7071 19.7929C64.5196 19.6054 64.2652 19.5 64 19.5ZM72.5 19.5C72.3022 19.5 72.1089 19.5586 71.9444 19.6685C71.78 19.7784 71.6518 19.9346 71.5761 20.1173C71.5004 20.3 71.4806 20.5011 71.5192 20.6951C71.5578 20.8891 71.653 21.0673 71.7929 21.2071C71.9327 21.347 72.1109 21.4422 72.3049 21.4808C72.4989 21.5194 72.7 21.4996 72.8827 21.4239C73.0654 21.3482 73.2216 21.22 73.3315 21.0556C73.4414 20.8911 73.5 20.6978 73.5 20.5C73.5 20.2348 73.3946 19.9804 73.2071 19.7929C73.0196 19.6054 72.7652 19.5 72.5 19.5Z" fill="currentColor"/>
<path d="M104.75 11.5C104.75 11.7472 104.677 11.9889 104.539 12.1945C104.402 12.4 104.207 12.5602 103.978 12.6548C103.75 12.7495 103.499 12.7742 103.256 12.726C103.014 12.6778 102.791 12.5587 102.616 12.3839C102.441 12.2091 102.322 11.9863 102.274 11.7439C102.226 11.5014 102.251 11.2501 102.345 11.0216C102.44 10.7932 102.6 10.598 102.806 10.4607C103.011 10.3233 103.253 10.25 103.5 10.25C103.832 10.25 104.149 10.3817 104.384 10.6161C104.618 10.8505 104.75 11.1685 104.75 11.5ZM112 10.25C111.753 10.25 111.511 10.3233 111.306 10.4607C111.1 10.598 110.94 10.7932 110.845 11.0216C110.751 11.2501 110.726 11.5014 110.774 11.7439C110.822 11.9863 110.941 12.2091 111.116 12.3839C111.291 12.5587 111.514 12.6778 111.756 12.726C111.999 12.7742 112.25 12.7495 112.478 12.6548C112.707 12.5602 112.902 12.4 113.039 12.1945C113.177 11.9889 113.25 11.7472 113.25 11.5C113.25 11.1685 113.118 10.8505 112.884 10.6161C112.649 10.3817 112.332 10.25 112 10.25ZM120.5 12.75C120.747 12.75 120.989 12.6767 121.194 12.5393C121.4 12.402 121.56 12.2068 121.655 11.9784C121.749 11.7499 121.774 11.4986 121.726 11.2561C121.678 11.0137 121.559 10.7909 121.384 10.6161C121.209 10.4413 120.986 10.3223 120.744 10.274C120.501 10.2258 120.25 10.2505 120.022 10.3452C119.793 10.4398 119.598 10.6 119.461 10.8055C119.323 11.0111 119.25 11.2528 119.25 11.5C119.25 11.8315 119.382 12.1495 119.616 12.3839C119.851 12.6183 120.168 12.75 120.5 12.75ZM103.5 19.25C103.253 19.25 103.011 19.3233 102.806 19.4607C102.6 19.598 102.44 19.7932 102.345 20.0216C102.251 20.2501 102.226 20.5014 102.274 20.7439C102.322 20.9863 102.441 21.2091 102.616 21.3839C102.791 21.5587 103.014 21.6778 103.256 21.726C103.499 21.7742 103.75 21.7495 103.978 21.6549C104.207 21.5602 104.402 21.4 104.539 21.1945C104.677 20.9889 104.75 20.7472 104.75 20.5C104.75 20.1685 104.618 19.8505 104.384 19.6161C104.149 19.3817 103.832 19.25 103.5 19.25ZM112 19.25C111.753 19.25 111.511 19.3233 111.306 19.4607C111.1 19.598 110.94 19.7932 110.845 20.0216C110.751 20.2501 110.726 20.5014 110.774 20.7439C110.822 20.9863 110.941 21.2091 111.116 21.3839C111.291 21.5587 111.514 21.6778 111.756 21.726C111.999 21.7742 112.25 21.7495 112.478 21.6549C112.707 21.5602 112.902 21.4 113.039 21.1945C113.177 20.9889 113.25 20.7472 113.25 20.5C113.25 20.1685 113.118 19.8505 112.884 19.6161C112.649 19.3817 112.332 19.25 112 19.25ZM120.5 19.25C120.253 19.25 120.011 19.3233 119.806 19.4607C119.6 19.598 119.44 19.7932 119.345 20.0216C119.251 20.2501 119.226 20.5014 119.274 20.7439C119.322 20.9863 119.441 21.2091 119.616 21.3839C119.791 21.5587 120.014 21.6778 120.256 21.726C120.499 21.7742 120.75 21.7495 120.978 21.6549C121.207 21.5602 121.402 21.4 121.539 21.1945C121.677 20.9889 121.75 20.7472 121.75 20.5C121.75 20.1685 121.618 19.8505 121.384 19.6161C121.149 19.3817 120.832 19.25 120.5 19.25Z" fill="currentColor"/>
<path d="M153.5 11.5C153.5 11.8956 153.383 12.2822 153.163 12.6111C152.943 12.94 152.631 13.1964 152.265 13.3478C151.9 13.4991 151.498 13.5387 151.11 13.4616C150.722 13.3844 150.365 13.1939 150.086 12.9142C149.806 12.6345 149.616 12.2781 149.538 11.8902C149.461 11.5022 149.501 11.1001 149.652 10.7346C149.804 10.3692 150.06 10.0568 150.389 9.83706C150.718 9.6173 151.104 9.5 151.5 9.5C152.03 9.5 152.539 9.71072 152.914 10.0858C153.289 10.4609 153.5 10.9696 153.5 11.5ZM160 9.5C159.604 9.5 159.218 9.6173 158.889 9.83706C158.56 10.0568 158.304 10.3692 158.152 10.7346C158.001 11.1001 157.961 11.5022 158.038 11.8902C158.116 12.2781 158.306 12.6345 158.586 12.9142C158.865 13.1939 159.222 13.3844 159.61 13.4616C159.998 13.5387 160.4 13.4991 160.765 13.3478C161.131 13.1964 161.443 12.94 161.663 12.6111C161.883 12.2822 162 11.8956 162 11.5C162 10.9696 161.789 10.4609 161.414 10.0858C161.039 9.71072 160.53 9.5 160 9.5ZM168.5 13.5C168.896 13.5 169.282 13.3827 169.611 13.1629C169.94 12.9432 170.196 12.6308 170.348 12.2654C170.499 11.8999 170.539 11.4978 170.462 11.1098C170.384 10.7219 170.194 10.3655 169.914 10.0858C169.635 9.80608 169.278 9.6156 168.89 9.53843C168.502 9.46126 168.1 9.50087 167.735 9.65224C167.369 9.80362 167.057 10.06 166.837 10.3889C166.617 10.7178 166.5 11.1044 166.5 11.5C166.5 12.0304 166.711 12.5391 167.086 12.9142C167.461 13.2893 167.97 13.5 168.5 13.5ZM151.5 18.5C151.104 18.5 150.718 18.6173 150.389 18.8371C150.06 19.0568 149.804 19.3692 149.652 19.7346C149.501 20.1001 149.461 20.5022 149.538 20.8902C149.616 21.2781 149.806 21.6345 150.086 21.9142C150.365 22.1939 150.722 22.3844 151.11 22.4616C151.498 22.5387 151.9 22.4991 152.265 22.3478C152.631 22.1964 152.943 21.94 153.163 21.6111C153.383 21.2822 153.5 20.8956 153.5 20.5C153.5 19.9696 153.289 19.4609 152.914 19.0858C152.539 18.7107 152.03 18.5 151.5 18.5ZM160 18.5C159.604 18.5 159.218 18.6173 158.889 18.8371C158.56 19.0568 158.304 19.3692 158.152 19.7346C158.001 20.1001 157.961 20.5022 158.038 20.8902C158.116 21.2781 158.306 21.6345 158.586 21.9142C158.865 22.1939 159.222 22.3844 159.61 22.4616C159.998 22.5387 160.4 22.4991 160.765 22.3478C161.131 22.1964 161.443 21.94 161.663 21.6111C161.883 21.2822 162 20.8956 162 20.5C162 19.9696 161.789 19.4609 161.414 19.0858C161.039 18.7107 160.53 18.5 160 18.5ZM168.5 18.5C168.104 18.5 167.718 18.6173 167.389 18.8371C167.06 19.0568 166.804 19.3692 166.652 19.7346C166.501 20.1001 166.461 20.5022 166.538 20.8902C166.616 21.2781 166.806 21.6345 167.086 21.9142C167.365 22.1939 167.722 22.3844 168.11 22.4616C168.498 22.5387 168.9 22.4991 169.265 22.3478C169.631 22.1964 169.943 21.94 170.163 21.6111C170.383 21.2822 170.5 20.8956 170.5 20.5C170.5 19.9696 170.289 19.4609 169.914 19.0858C169.539 18.7107 169.03 18.5 168.5 18.5Z" fill="currentColor"/>
<path d="M220 6H196C195.47 6 194.961 6.21071 194.586 6.58579C194.211 6.96086 194 7.46957 194 8V24C194 24.5304 194.211 25.0391 194.586 25.4142C194.961 25.7893 195.47 26 196 26H220C220.53 26 221.039 25.7893 221.414 25.4142C221.789 25.0391 222 24.5304 222 24V8C222 7.46957 221.789 6.96086 221.414 6.58579C221.039 6.21071 220.53 6 220 6ZM200.5 21C200.203 21 199.913 20.912 199.667 20.7472C199.42 20.5824 199.228 20.3481 199.114 20.074C199.001 19.7999 198.971 19.4983 199.029 19.2074C199.087 18.9164 199.23 18.6491 199.439 18.4393C199.649 18.2296 199.916 18.0867 200.207 18.0288C200.498 17.9709 200.8 18.0007 201.074 18.1142C201.348 18.2277 201.582 18.42 201.747 18.6666C201.912 18.9133 202 19.2033 202 19.5C202 19.8978 201.842 20.2794 201.561 20.5607C201.279 20.842 200.898 21 200.5 21ZM200.5 14C200.203 14 199.913 13.912 199.667 13.7472C199.42 13.5824 199.228 13.3481 199.114 13.074C199.001 12.7999 198.971 12.4983 199.029 12.2074C199.087 11.9164 199.23 11.6491 199.439 11.4393C199.649 11.2296 199.916 11.0867 200.207 11.0288C200.498 10.9709 200.8 11.0006 201.074 11.1142C201.348 11.2277 201.582 11.42 201.747 11.6666C201.912 11.9133 202 12.2033 202 12.5C202 12.8978 201.842 13.2794 201.561 13.5607C201.279 13.842 200.898 14 200.5 14ZM208 21C207.703 21 207.413 20.912 207.167 20.7472C206.92 20.5824 206.728 20.3481 206.614 20.074C206.501 19.7999 206.471 19.4983 206.529 19.2074C206.587 18.9164 206.73 18.6491 206.939 18.4393C207.149 18.2296 207.416 18.0867 207.707 18.0288C207.998 17.9709 208.3 18.0007 208.574 18.1142C208.848 18.2277 209.082 18.42 209.247 18.6666C209.412 18.9133 209.5 19.2033 209.5 19.5C209.5 19.8978 209.342 20.2794 209.061 20.5607C208.779 20.842 208.398 21 208 21ZM208 14C207.703 14 207.413 13.912 207.167 13.7472C206.92 13.5824 206.728 13.3481 206.614 13.074C206.501 12.7999 206.471 12.4983 206.529 12.2074C206.587 11.9164 206.73 11.6491 206.939 11.4393C207.149 11.2296 207.416 11.0867 207.707 11.0288C207.998 10.9709 208.3 11.0006 208.574 11.1142C208.848 11.2277 209.082 11.42 209.247 11.6666C209.412 11.9133 209.5 12.2033 209.5 12.5C209.5 12.8978 209.342 13.2794 209.061 13.5607C208.779 13.842 208.398 14 208 14ZM215.5 21C215.203 21 214.913 20.912 214.667 20.7472C214.42 20.5824 214.228 20.3481 214.114 20.074C214.001 19.7999 213.971 19.4983 214.029 19.2074C214.087 18.9164 214.23 18.6491 214.439 18.4393C214.649 18.2296 214.916 18.0867 215.207 18.0288C215.498 17.9709 215.8 18.0007 216.074 18.1142C216.348 18.2277 216.582 18.42 216.747 18.6666C216.912 18.9133 217 19.2033 217 19.5C217 19.8978 216.842 20.2794 216.561 20.5607C216.279 20.842 215.898 21 215.5 21ZM215.5 14C215.203 14 214.913 13.912 214.667 13.7472C214.42 13.5824 214.228 13.3481 214.114 13.074C214.001 12.7999 213.971 12.4983 214.029 12.2074C214.087 11.9164 214.23 11.6491 214.439 11.4393C214.649 11.2296 214.916 11.0867 215.207 11.0288C215.498 10.9709 215.8 11.0006 216.074 11.1142C216.348 11.2277 216.582 11.42 216.747 11.6666C216.912 11.9133 217 12.2033 217 12.5C217 12.8978 216.842 13.2794 216.561 13.5607C216.279 13.842 215.898 14 215.5 14Z" fill="currentColor"/>
<path opacity="0.2" d="M270 8V24C270 24.5304 269.789 25.0391 269.414 25.4142C269.039 25.7893 268.53 26 268 26H244C243.47 26 242.961 25.7893 242.586 25.4142C242.211 25.0391 242 24.5304 242 24V8C242 7.46957 242.211 6.96086 242.586 6.58579C242.961 6.21071 243.47 6 244 6H268C268.53 6 269.039 6.21071 269.414 6.58579C269.789 6.96086 270 7.46957 270 8Z" fill="currentColor"/>
<path d="M249 11.5C249 11.7967 248.912 12.0867 248.747 12.3334C248.582 12.58 248.348 12.7723 248.074 12.8858C247.8 12.9994 247.498 13.0291 247.207 12.9712C246.916 12.9133 246.649 12.7704 246.439 12.5607C246.23 12.3509 246.087 12.0836 246.029 11.7926C245.971 11.5017 246.001 11.2001 246.114 10.926C246.228 10.6519 246.42 10.4176 246.667 10.2528C246.913 10.088 247.203 10 247.5 10C247.898 10 248.279 10.158 248.561 10.4393C248.842 10.7206 249 11.1022 249 11.5ZM256 10C255.703 10 255.413 10.088 255.167 10.2528C254.92 10.4176 254.728 10.6519 254.614 10.926C254.501 11.2001 254.471 11.5017 254.529 11.7926C254.587 12.0836 254.73 12.3509 254.939 12.5607C255.149 12.7704 255.416 12.9133 255.707 12.9712C255.998 13.0291 256.3 12.9994 256.574 12.8858C256.848 12.7723 257.082 12.58 257.247 12.3334C257.412 12.0867 257.5 11.7967 257.5 11.5C257.5 11.1022 257.342 10.7206 257.061 10.4393C256.779 10.158 256.398 10 256 10ZM264.5 13C264.797 13 265.087 12.912 265.333 12.7472C265.58 12.5824 265.772 12.3481 265.886 12.074C265.999 11.7999 266.029 11.4983 265.971 11.2074C265.913 10.9164 265.77 10.6491 265.561 10.4393C265.351 10.2296 265.084 10.0867 264.793 10.0288C264.502 9.97094 264.2 10.0006 263.926 10.1142C263.652 10.2277 263.418 10.42 263.253 10.6666C263.088 10.9133 263 11.2033 263 11.5C263 11.8978 263.158 12.2794 263.439 12.5607C263.721 12.842 264.102 13 264.5 13ZM247.5 19C247.203 19 246.913 19.088 246.667 19.2528C246.42 19.4176 246.228 19.6519 246.114 19.926C246.001 20.2001 245.971 20.5017 246.029 20.7926C246.087 21.0836 246.23 21.3509 246.439 21.5607C246.649 21.7704 246.916 21.9133 247.207 21.9712C247.498 22.0291 247.8 21.9994 248.074 21.8858C248.348 21.7723 248.582 21.58 248.747 21.3334C248.912 21.0867 249 20.7967 249 20.5C249 20.1022 248.842 19.7206 248.561 19.4393C248.279 19.158 247.898 19 247.5 19ZM256 19C255.703 19 255.413 19.088 255.167 19.2528C254.92 19.4176 254.728 19.6519 254.614 19.926C254.501 20.2001 254.471 20.5017 254.529 20.7926C254.587 21.0836 254.73 21.3509 254.939 21.5607C255.149 21.7704 255.416 21.9133 255.707 21.9712C255.998 22.0291 256.3 21.9994 256.574 21.8858C256.848 21.7723 257.082 21.58 257.247 21.3334C257.412 21.0867 257.5 20.7967 257.5 20.5C257.5 20.1022 257.342 19.7206 257.061 19.4393C256.779 19.158 256.398 19 256 19ZM264.5 19C264.203 19 263.913 19.088 263.667 19.2528C263.42 19.4176 263.228 19.6519 263.114 19.926C263.001 20.2001 262.971 20.5017 263.029 20.7926C263.087 21.0836 263.23 21.3509 263.439 21.5607C263.649 21.7704 263.916 21.9133 264.207 21.9712C264.498 22.0291 264.8 21.9994 265.074 21.8858C265.348 21.7723 265.582 21.58 265.747 21.3334C265.912 21.0867 266 20.7967 266 20.5C266 20.1022 265.842 19.7206 265.561 19.4393C265.279 19.158 264.898 19 264.5 19Z" fill="currentColor"/>
</g>
<defs>
<clipPath id="clip0_17_11504">
<rect width="272" height="32" rx="5" fill="white"/>
</clipPath>
</defs>
</svg>
