<svg width="272" height="32" viewBox="0 0 272 32" fill="none" xmlns="http://www.w3.org/2000/svg">
<g clip-path="url(#clip0_17_11462)">
<path d="M16 3C13.4288 3 10.9154 3.76244 8.77759 5.1909C6.63975 6.61935 4.97351 8.64968 3.98957 11.0251C3.00563 13.4006 2.74819 16.0144 3.2498 18.5362C3.75141 21.0579 4.98953 23.3743 6.80762 25.1924C8.6257 27.0105 10.9421 28.2486 13.4638 28.7502C15.9856 29.2518 18.5995 28.9944 20.9749 28.0104C23.3503 27.0265 25.3807 25.3603 26.8091 23.2224C28.2376 21.0846 29 18.5712 29 16C28.9964 12.5533 27.6256 9.24882 25.1884 6.81163C22.7512 4.37445 19.4467 3.00364 16 3ZM16 27C13.8244 27 11.6977 26.3549 9.88873 25.1462C8.07979 23.9375 6.66989 22.2195 5.83733 20.2095C5.00477 18.1995 4.78693 15.9878 5.21137 13.854C5.63581 11.7202 6.68345 9.7602 8.22183 8.22183C9.76021 6.68345 11.7202 5.6358 13.854 5.21136C15.9878 4.78692 18.1995 5.00476 20.2095 5.83733C22.2195 6.66989 23.9375 8.07979 25.1462 9.88873C26.3549 11.6977 27 13.8244 27 16C26.9967 18.9164 25.8367 21.7123 23.7745 23.7745C21.7123 25.8367 18.9164 26.9967 16 27ZM17.5 16C17.5 16.2967 17.412 16.5867 17.2472 16.8334C17.0824 17.08 16.8481 17.2723 16.574 17.3858C16.2999 17.4993 15.9983 17.5291 15.7074 17.4712C15.4164 17.4133 15.1491 17.2704 14.9393 17.0607C14.7296 16.8509 14.5867 16.5836 14.5288 16.2926C14.471 16.0017 14.5007 15.7001 14.6142 15.426C14.7277 15.1519 14.92 14.9176 15.1667 14.7528C15.4133 14.588 15.7033 14.5 16 14.5C16.3978 14.5 16.7794 14.658 17.0607 14.9393C17.342 15.2206 17.5 15.6022 17.5 16ZM23 16C23 16.2967 22.912 16.5867 22.7472 16.8334C22.5824 17.08 22.3481 17.2723 22.074 17.3858C21.7999 17.4993 21.4983 17.5291 21.2074 17.4712C20.9164 17.4133 20.6491 17.2704 20.4393 17.0607C20.2296 16.8509 20.0867 16.5836 20.0288 16.2926C19.9709 16.0017 20.0007 15.7001 20.1142 15.426C20.2277 15.1519 20.42 14.9176 20.6667 14.7528C20.9133 14.588 21.2033 14.5 21.5 14.5C21.8978 14.5 22.2794 14.658 22.5607 14.9393C22.842 15.2206 23 15.6022 23 16ZM12 16C12 16.2967 11.912 16.5867 11.7472 16.8334C11.5824 17.08 11.3481 17.2723 11.074 17.3858C10.7999 17.4993 10.4983 17.5291 10.2074 17.4712C9.9164 17.4133 9.64912 17.2704 9.43935 17.0607C9.22957 16.8509 9.08671 16.5836 9.02883 16.2926C8.97095 16.0017 9.00065 15.7001 9.11419 15.426C9.22772 15.1519 9.41998 14.9176 9.66665 14.7528C9.91332 14.588 10.2033 14.5 10.5 14.5C10.8978 14.5 11.2794 14.658 11.5607 14.9393C11.842 15.2206 12 15.6022 12 16Z" fill="currentColor"/>
<path d="M64 3.5C61.5277 3.5 59.111 4.23311 57.0554 5.60663C54.9998 6.98015 53.3976 8.93238 52.4515 11.2165C51.5054 13.5005 51.2579 16.0139 51.7402 18.4386C52.2225 20.8634 53.413 23.0907 55.1612 24.8388C56.9093 26.587 59.1366 27.7775 61.5614 28.2598C63.9861 28.7421 66.4995 28.4946 68.7835 27.5485C71.0676 26.6024 73.0199 25.0002 74.3934 22.9446C75.7669 20.889 76.5 18.4723 76.5 16C76.4964 12.6859 75.1782 9.5086 72.8348 7.16518C70.4914 4.82177 67.3141 3.50364 64 3.5ZM64 27.5C61.7255 27.5 59.5021 26.8255 57.6109 25.5619C55.7198 24.2983 54.2458 22.5022 53.3754 20.4009C52.505 18.2995 52.2772 15.9872 52.721 13.7565C53.1647 11.5257 54.26 9.47658 55.8683 7.86827C57.4766 6.25997 59.5257 5.1647 61.7565 4.72097C63.9872 4.27724 66.2995 4.50498 68.4009 5.37539C70.5022 6.24579 72.2983 7.71978 73.5619 9.61094C74.8255 11.5021 75.5 13.7255 75.5 16C75.4967 19.049 74.284 21.9721 72.1281 24.1281C69.9721 26.284 67.049 27.4967 64 27.5ZM65 16C65 16.1978 64.9414 16.3911 64.8315 16.5556C64.7216 16.72 64.5654 16.8482 64.3827 16.9239C64.2 16.9996 63.9989 17.0194 63.8049 16.9808C63.6109 16.9422 63.4328 16.847 63.2929 16.7071C63.153 16.5673 63.0578 16.3891 63.0192 16.1951C62.9806 16.0011 63.0004 15.8 63.0761 15.6173C63.1518 15.4346 63.28 15.2784 63.4444 15.1685C63.6089 15.0586 63.8022 15 64 15C64.2652 15 64.5196 15.1054 64.7071 15.2929C64.8946 15.4804 65 15.7348 65 16ZM59.5 16C59.5 16.1978 59.4414 16.3911 59.3315 16.5556C59.2216 16.72 59.0654 16.8482 58.8827 16.9239C58.7 16.9996 58.4989 17.0194 58.3049 16.9808C58.1109 16.9422 57.9328 16.847 57.7929 16.7071C57.653 16.5673 57.5578 16.3891 57.5192 16.1951C57.4806 16.0011 57.5004 15.8 57.5761 15.6173C57.6518 15.4346 57.78 15.2784 57.9444 15.1685C58.1089 15.0586 58.3022 15 58.5 15C58.7652 15 59.0196 15.1054 59.2071 15.2929C59.3946 15.4804 59.5 15.7348 59.5 16ZM70.5 16C70.5 16.1978 70.4414 16.3911 70.3315 16.5556C70.2216 16.72 70.0654 16.8482 69.8827 16.9239C69.7 16.9996 69.4989 17.0194 69.3049 16.9808C69.1109 16.9422 68.9328 16.847 68.7929 16.7071C68.653 16.5673 68.5578 16.3891 68.5192 16.1951C68.4806 16.0011 68.5004 15.8 68.5761 15.6173C68.6518 15.4346 68.78 15.2784 68.9444 15.1685C69.1089 15.0586 69.3022 15 69.5 15C69.7652 15 70.0196 15.1054 70.2071 15.2929C70.3946 15.4804 70.5 15.7348 70.5 16Z" fill="currentColor"/>
<path d="M112 3.25C109.478 3.25 107.013 3.99777 104.916 5.39876C102.82 6.79975 101.186 8.79103 100.221 11.1208C99.2555 13.4505 99.003 16.0141 99.495 18.4874C99.987 20.9607 101.201 23.2325 102.984 25.0156C104.768 26.7987 107.039 28.0131 109.513 28.505C111.986 28.997 114.549 28.7445 116.879 27.7795C119.209 26.8144 121.2 25.1802 122.601 23.0835C124.002 20.9868 124.75 18.5217 124.75 16C124.746 12.6197 123.401 9.379 121.011 6.98877C118.621 4.59854 115.38 3.25397 112 3.25ZM112 27.25C109.775 27.25 107.6 26.5902 105.75 25.354C103.9 24.1179 102.458 22.3609 101.606 20.3052C100.755 18.2495 100.532 15.9875 100.966 13.8052C101.4 11.6229 102.472 9.61839 104.045 8.04505C105.618 6.47171 107.623 5.40025 109.805 4.96617C111.988 4.53208 114.25 4.75487 116.305 5.60636C118.361 6.45784 120.118 7.89978 121.354 9.74984C122.59 11.5999 123.25 13.775 123.25 16C123.247 18.9827 122.06 21.8422 119.951 23.9513C117.842 26.0604 114.983 27.2467 112 27.25ZM113.25 16C113.25 16.2472 113.177 16.4889 113.039 16.6945C112.902 16.9 112.707 17.0602 112.478 17.1549C112.25 17.2495 111.999 17.2742 111.756 17.226C111.514 17.1777 111.291 17.0587 111.116 16.8839C110.941 16.7091 110.822 16.4863 110.774 16.2439C110.726 16.0014 110.751 15.7501 110.845 15.5216C110.94 15.2932 111.1 15.098 111.306 14.9607C111.511 14.8233 111.753 14.75 112 14.75C112.332 14.75 112.649 14.8817 112.884 15.1161C113.118 15.3505 113.25 15.6685 113.25 16ZM107.75 16C107.75 16.2472 107.677 16.4889 107.539 16.6945C107.402 16.9 107.207 17.0602 106.978 17.1549C106.75 17.2495 106.499 17.2742 106.256 17.226C106.014 17.1777 105.791 17.0587 105.616 16.8839C105.441 16.7091 105.322 16.4863 105.274 16.2439C105.226 16.0014 105.251 15.7501 105.345 15.5216C105.44 15.2932 105.6 15.098 105.806 14.9607C106.011 14.8233 106.253 14.75 106.5 14.75C106.832 14.75 107.149 14.8817 107.384 15.1161C107.618 15.3505 107.75 15.6685 107.75 16ZM118.75 16C118.75 16.2472 118.677 16.4889 118.539 16.6945C118.402 16.9 118.207 17.0602 117.978 17.1549C117.75 17.2495 117.499 17.2742 117.256 17.226C117.014 17.1777 116.791 17.0587 116.616 16.8839C116.441 16.7091 116.322 16.4863 116.274 16.2439C116.226 16.0014 116.251 15.7501 116.345 15.5216C116.44 15.2932 116.6 15.098 116.806 14.9607C117.011 14.8233 117.253 14.75 117.5 14.75C117.832 14.75 118.149 14.8817 118.384 15.1161C118.618 15.3505 118.75 15.6685 118.75 16Z" fill="currentColor"/>
<path d="M160 2.5C157.33 2.5 154.72 3.29176 152.5 4.77516C150.28 6.25856 148.549 8.36697 147.528 10.8338C146.506 13.3006 146.239 16.015 146.759 18.6337C147.28 21.2525 148.566 23.6579 150.454 25.5459C152.342 27.434 154.748 28.7197 157.366 29.2406C159.985 29.7615 162.699 29.4942 165.166 28.4724C167.633 27.4506 169.741 25.7203 171.225 23.5002C172.708 21.2801 173.5 18.67 173.5 16C173.496 12.4208 172.072 8.98932 169.542 6.45844C167.011 3.92756 163.579 2.50397 160 2.5ZM160 26.5C157.923 26.5 155.893 25.8842 154.167 24.7304C152.44 23.5767 151.094 21.9368 150.299 20.0182C149.505 18.0996 149.297 15.9884 149.702 13.9516C150.107 11.9148 151.107 10.0438 152.575 8.57538C154.044 7.10693 155.915 6.1069 157.952 5.70175C159.988 5.29661 162.1 5.50454 164.018 6.29926C165.937 7.09399 167.577 8.4398 168.73 10.1665C169.884 11.8932 170.5 13.9233 170.5 16C170.497 18.7839 169.39 21.4528 167.421 23.4213C165.453 25.3898 162.784 26.497 160 26.5ZM158 16C158 16.3956 157.883 16.7822 157.663 17.1111C157.443 17.44 157.131 17.6964 156.765 17.8478C156.4 17.9991 155.998 18.0387 155.61 17.9616C155.222 17.8844 154.865 17.6939 154.586 17.4142C154.306 17.1345 154.116 16.7781 154.038 16.3902C153.961 16.0022 154.001 15.6001 154.152 15.2346C154.304 14.8692 154.56 14.5568 154.889 14.3371C155.218 14.1173 155.604 14 156 14C156.53 14 157.039 14.2107 157.414 14.5858C157.789 14.9609 158 15.4696 158 16ZM166 16C166 16.3956 165.883 16.7822 165.663 17.1111C165.443 17.44 165.131 17.6964 164.765 17.8478C164.4 17.9991 163.998 18.0387 163.61 17.9616C163.222 17.8844 162.865 17.6939 162.586 17.4142C162.306 17.1345 162.116 16.7781 162.038 16.3902C161.961 16.0022 162.001 15.6001 162.152 15.2346C162.304 14.8692 162.56 14.5568 162.889 14.3371C163.218 14.1173 163.604 14 164 14C164.53 14 165.039 14.2107 165.414 14.5858C165.789 14.9609 166 15.4696 166 16Z" fill="currentColor"/>
<path d="M208 3C205.429 3 202.915 3.76244 200.778 5.1909C198.64 6.61935 196.974 8.64968 195.99 11.0251C195.006 13.4006 194.748 16.0144 195.25 18.5362C195.751 21.0579 196.99 23.3743 198.808 25.1924C200.626 27.0105 202.942 28.2486 205.464 28.7502C207.986 29.2518 210.599 28.9944 212.975 28.0104C215.35 27.0265 217.381 25.3603 218.809 23.2224C220.238 21.0846 221 18.5712 221 16C220.996 12.5535 219.625 9.2494 217.188 6.81236C214.751 4.37532 211.447 3.0043 208 3ZM202.5 17.5C202.203 17.5 201.913 17.412 201.667 17.2472C201.42 17.0824 201.228 16.8481 201.114 16.574C201.001 16.2999 200.971 15.9983 201.029 15.7074C201.087 15.4164 201.23 15.1491 201.439 14.9393C201.649 14.7296 201.916 14.5867 202.207 14.5288C202.498 14.4709 202.8 14.5006 203.074 14.6142C203.348 14.7277 203.582 14.92 203.747 15.1666C203.912 15.4133 204 15.7033 204 16C204 16.3978 203.842 16.7794 203.561 17.0607C203.279 17.342 202.898 17.5 202.5 17.5ZM208 17.5C207.703 17.5 207.413 17.412 207.167 17.2472C206.92 17.0824 206.728 16.8481 206.614 16.574C206.501 16.2999 206.471 15.9983 206.529 15.7074C206.587 15.4164 206.73 15.1491 206.939 14.9393C207.149 14.7296 207.416 14.5867 207.707 14.5288C207.998 14.4709 208.3 14.5006 208.574 14.6142C208.848 14.7277 209.082 14.92 209.247 15.1666C209.412 15.4133 209.5 15.7033 209.5 16C209.5 16.3978 209.342 16.7794 209.061 17.0607C208.779 17.342 208.398 17.5 208 17.5ZM213.5 17.5C213.203 17.5 212.913 17.412 212.667 17.2472C212.42 17.0824 212.228 16.8481 212.114 16.574C212.001 16.2999 211.971 15.9983 212.029 15.7074C212.087 15.4164 212.23 15.1491 212.439 14.9393C212.649 14.7296 212.916 14.5867 213.207 14.5288C213.498 14.4709 213.8 14.5006 214.074 14.6142C214.348 14.7277 214.582 14.92 214.747 15.1666C214.912 15.4133 215 15.7033 215 16C215 16.3978 214.842 16.7794 214.561 17.0607C214.279 17.342 213.898 17.5 213.5 17.5Z" fill="currentColor"/>
<path opacity="0.2" d="M268 16C268 18.3734 267.296 20.6935 265.978 22.6668C264.659 24.6402 262.785 26.1783 260.592 27.0866C258.399 27.9948 255.987 28.2324 253.659 27.7694C251.331 27.3064 249.193 26.1635 247.515 24.4853C245.836 22.8071 244.694 20.6689 244.231 18.3411C243.768 16.0133 244.005 13.6005 244.913 11.4078C245.822 9.21509 247.36 7.34094 249.333 6.02236C251.307 4.70379 253.627 4 256 4C259.183 4 262.235 5.26428 264.485 7.51472C266.736 9.76515 268 12.8174 268 16Z" fill="currentColor"/>
<path d="M256 3C253.429 3 250.915 3.76244 248.778 5.1909C246.64 6.61935 244.974 8.64968 243.99 11.0251C243.006 13.4006 242.748 16.0144 243.25 18.5362C243.751 21.0579 244.99 23.3743 246.808 25.1924C248.626 27.0105 250.942 28.2486 253.464 28.7502C255.986 29.2518 258.599 28.9944 260.975 28.0104C263.35 27.0265 265.381 25.3603 266.809 23.2224C268.238 21.0846 269 18.5712 269 16C268.996 12.5533 267.626 9.24882 265.188 6.81163C262.751 4.37445 259.447 3.00364 256 3ZM256 27C253.824 27 251.698 26.3549 249.889 25.1462C248.08 23.9375 246.67 22.2195 245.837 20.2095C245.005 18.1995 244.787 15.9878 245.211 13.854C245.636 11.7202 246.683 9.7602 248.222 8.22183C249.76 6.68345 251.72 5.6358 253.854 5.21136C255.988 4.78692 258.2 5.00476 260.21 5.83733C262.22 6.66989 263.937 8.07979 265.146 9.88873C266.355 11.6977 267 13.8244 267 16C266.997 18.9164 265.837 21.7123 263.775 23.7745C261.712 25.8367 258.916 26.9967 256 27ZM263 16C263 16.2967 262.912 16.5867 262.747 16.8334C262.582 17.08 262.348 17.2723 262.074 17.3858C261.8 17.4993 261.498 17.5291 261.207 17.4712C260.916 17.4133 260.649 17.2704 260.439 17.0607C260.23 16.8509 260.087 16.5836 260.029 16.2926C259.971 16.0017 260.001 15.7001 260.114 15.426C260.228 15.1519 260.42 14.9176 260.667 14.7528C260.913 14.588 261.203 14.5 261.5 14.5C261.898 14.5 262.279 14.658 262.561 14.9393C262.842 15.2206 263 15.6022 263 16ZM257.5 16C257.5 16.2967 257.412 16.5867 257.247 16.8334C257.082 17.08 256.848 17.2723 256.574 17.3858C256.3 17.4993 255.998 17.5291 255.707 17.4712C255.416 17.4133 255.149 17.2704 254.939 17.0607C254.73 16.8509 254.587 16.5836 254.529 16.2926C254.471 16.0017 254.501 15.7001 254.614 15.426C254.728 15.1519 254.92 14.9176 255.167 14.7528C255.413 14.588 255.703 14.5 256 14.5C256.398 14.5 256.779 14.658 257.061 14.9393C257.342 15.2206 257.5 15.6022 257.5 16ZM252 16C252 16.2967 251.912 16.5867 251.747 16.8334C251.582 17.08 251.348 17.2723 251.074 17.3858C250.8 17.4993 250.498 17.5291 250.207 17.4712C249.916 17.4133 249.649 17.2704 249.439 17.0607C249.23 16.8509 249.087 16.5836 249.029 16.2926C248.971 16.0017 249.001 15.7001 249.114 15.426C249.228 15.1519 249.42 14.9176 249.667 14.7528C249.913 14.588 250.203 14.5 250.5 14.5C250.898 14.5 251.279 14.658 251.561 14.9393C251.842 15.2206 252 15.6022 252 16Z" fill="currentColor"/>
</g>
<defs>
<clipPath id="clip0_17_11462">
<rect width="272" height="32" rx="5" fill="white"/>
</clipPath>
</defs>
</svg>
