<svg width="272" height="32" viewBox="0 0 272 32" fill="none" xmlns="http://www.w3.org/2000/svg">
<g clip-path="url(#clip0_17_11364)">
<path d="M23 2H9C8.46957 2 7.96086 2.21071 7.58579 2.58579C7.21071 2.96086 7 3.46957 7 4V9.66625C7.00107 10.0988 7.14132 10.5196 7.4 10.8663L10 14.3337V28C10 28.5304 10.2107 29.0391 10.5858 29.4142C10.9609 29.7893 11.4696 30 12 30H20C20.5304 30 21.0391 29.7893 21.4142 29.4142C21.7893 29.0391 22 28.5304 22 28V14.3337L24.6 10.8663C24.8587 10.5196 24.9989 10.0988 25 9.66625V4C25 3.46957 24.7893 2.96086 24.4142 2.58579C24.0391 2.21071 23.5304 2 23 2ZM9 4H23V7H9V4ZM20.4 13.1337C20.1413 13.4804 20.0011 13.9012 20 14.3337V28H12V14.3337C11.9989 13.9012 11.8587 13.4804 11.6 13.1337L9 9.66625V9H23V9.66625L20.4 13.1337ZM17 15V19C17 19.2652 16.8946 19.5196 16.7071 19.7071C16.5196 19.8946 16.2652 20 16 20C15.7348 20 15.4804 19.8946 15.2929 19.7071C15.1054 19.5196 15 19.2652 15 19V15C15 14.7348 15.1054 14.4804 15.2929 14.2929C15.4804 14.1054 15.7348 14 16 14C16.2652 14 16.5196 14.1054 16.7071 14.2929C16.8946 14.4804 17 14.7348 17 15Z" fill="currentColor"/>
<path d="M71 2.5H57C56.6022 2.5 56.2206 2.65804 55.9393 2.93934C55.658 3.22064 55.5 3.60218 55.5 4V9.66625C55.5004 9.99073 55.6057 10.3064 55.8 10.5662L58.4 14.0337C58.4649 14.1203 58.5 14.2256 58.5 14.3337V28C58.5 28.3978 58.658 28.7794 58.9393 29.0607C59.2206 29.342 59.6022 29.5 60 29.5H68C68.3978 29.5 68.7794 29.342 69.0607 29.0607C69.342 28.7794 69.5 28.3978 69.5 28V14.3337C69.5 14.2256 69.5351 14.1203 69.6 14.0337L72.2 10.5662C72.3943 10.3064 72.4996 9.99073 72.5 9.66625V4C72.5 3.80302 72.4612 3.60796 72.3858 3.42597C72.3104 3.24399 72.1999 3.07863 72.0607 2.93934C71.9214 2.80005 71.756 2.68956 71.574 2.61418C71.392 2.5388 71.197 2.5 71 2.5ZM57 3.5H71C71.1326 3.5 71.2598 3.55268 71.3536 3.64645C71.4473 3.74021 71.5 3.86739 71.5 4V7.5H56.5V4C56.5 3.86739 56.5527 3.74021 56.6464 3.64645C56.7402 3.55268 56.8674 3.5 57 3.5ZM71.4 9.96625L68.8 13.4338C68.6057 13.6936 68.5004 14.0093 68.5 14.3337V28C68.5 28.1326 68.4473 28.2598 68.3536 28.3536C68.2598 28.4473 68.1326 28.5 68 28.5H60C59.8674 28.5 59.7402 28.4473 59.6464 28.3536C59.5527 28.2598 59.5 28.1326 59.5 28V14.3337C59.4996 14.0093 59.3943 13.6936 59.2 13.4338L56.6 9.96625C56.5351 9.8797 56.5 9.77444 56.5 9.66625V8.5H71.5V9.66625C71.5 9.77444 71.4649 9.8797 71.4 9.96625ZM64.5 15V19C64.5 19.1326 64.4473 19.2598 64.3536 19.3536C64.2598 19.4473 64.1326 19.5 64 19.5C63.8674 19.5 63.7402 19.4473 63.6464 19.3536C63.5527 19.2598 63.5 19.1326 63.5 19V15C63.5 14.8674 63.5527 14.7402 63.6464 14.6464C63.7402 14.5527 63.8674 14.5 64 14.5C64.1326 14.5 64.2598 14.5527 64.3536 14.6464C64.4473 14.7402 64.5 14.8674 64.5 15Z" fill="currentColor"/>
<path d="M119 2.25H105C104.536 2.25 104.091 2.43437 103.763 2.76256C103.434 3.09075 103.25 3.53587 103.25 4V9.66625C103.25 10.0449 103.373 10.4133 103.6 10.7163L106.2 14.1825C106.233 14.2261 106.25 14.2792 106.25 14.3337V28C106.25 28.4641 106.434 28.9092 106.763 29.2374C107.091 29.5656 107.536 29.75 108 29.75H116C116.464 29.75 116.909 29.5656 117.237 29.2374C117.566 28.9092 117.75 28.4641 117.75 28V14.3337C117.75 14.2797 117.768 14.227 117.8 14.1838L120.4 10.7163C120.627 10.4133 120.75 10.0449 120.75 9.66625V4C120.75 3.53587 120.566 3.09075 120.237 2.76256C119.909 2.43437 119.464 2.25 119 2.25ZM105 3.75H119C119.066 3.75 119.13 3.77634 119.177 3.82322C119.224 3.87011 119.25 3.9337 119.25 4V7.25H104.75V4C104.75 3.9337 104.776 3.87011 104.823 3.82322C104.87 3.77634 104.934 3.75 105 3.75ZM119.2 9.81625L116.6 13.2837C116.373 13.5867 116.25 13.9551 116.25 14.3337V28C116.25 28.0663 116.224 28.1299 116.177 28.1768C116.13 28.2237 116.066 28.25 116 28.25H108C107.934 28.25 107.87 28.2237 107.823 28.1768C107.776 28.1299 107.75 28.0663 107.75 28V14.3337C107.75 13.9551 107.627 13.5867 107.4 13.2837L104.8 9.8175C104.767 9.77388 104.75 9.72077 104.75 9.66625V8.75H119.25V9.66625C119.25 9.72034 119.232 9.77298 119.2 9.81625ZM112.75 15V19C112.75 19.1989 112.671 19.3897 112.53 19.5303C112.39 19.671 112.199 19.75 112 19.75C111.801 19.75 111.61 19.671 111.47 19.5303C111.329 19.3897 111.25 19.1989 111.25 19V15C111.25 14.8011 111.329 14.6103 111.47 14.4697C111.61 14.329 111.801 14.25 112 14.25C112.199 14.25 112.39 14.329 112.53 14.4697C112.671 14.6103 112.75 14.8011 112.75 15Z" fill="currentColor"/>
<path d="M167 1.5H153C152.337 1.5 151.701 1.76339 151.232 2.23223C150.763 2.70107 150.5 3.33696 150.5 4V9.66625C150.501 10.207 150.676 10.733 151 11.1663L153.5 14.5V28C153.5 28.663 153.763 29.2989 154.232 29.7678C154.701 30.2366 155.337 30.5 156 30.5H164C164.663 30.5 165.299 30.2366 165.768 29.7678C166.237 29.2989 166.5 28.663 166.5 28V14.5L169 11.1663C169.324 10.733 169.499 10.207 169.5 9.66625V4C169.5 3.33696 169.237 2.70107 168.768 2.23223C168.299 1.76339 167.663 1.5 167 1.5ZM166.5 4.5V6.5H153.5V4.5H166.5ZM164 12.8337C163.676 13.267 163.501 13.793 163.5 14.3337V27.5H156.5V14.3337C156.499 13.793 156.324 13.267 156 12.8337L153.5 9.5H166.5L164 12.8337ZM161.5 15V19C161.5 19.3978 161.342 19.7794 161.061 20.0607C160.779 20.342 160.398 20.5 160 20.5C159.602 20.5 159.221 20.342 158.939 20.0607C158.658 19.7794 158.5 19.3978 158.5 19V15C158.5 14.6022 158.658 14.2206 158.939 13.9393C159.221 13.658 159.602 13.5 160 13.5C160.398 13.5 160.779 13.658 161.061 13.9393C161.342 14.2206 161.5 14.6022 161.5 15Z" fill="currentColor"/>
<path d="M215 2H201C200.47 2 199.961 2.21071 199.586 2.58579C199.211 2.96086 199 3.46957 199 4V9.66625C199.001 10.0988 199.141 10.5196 199.4 10.8663L202 14.3337V28C202 28.5304 202.211 29.0391 202.586 29.4142C202.961 29.7893 203.47 30 204 30H212C212.53 30 213.039 29.7893 213.414 29.4142C213.789 29.0391 214 28.5304 214 28V14.3337L216.6 10.8663C216.859 10.5196 216.999 10.0988 217 9.66625V4C217 3.46957 216.789 2.96086 216.414 2.58579C216.039 2.21071 215.53 2 215 2ZM209 19C209 19.2652 208.895 19.5196 208.707 19.7071C208.52 19.8946 208.265 20 208 20C207.735 20 207.48 19.8946 207.293 19.7071C207.105 19.5196 207 19.2652 207 19V15C207 14.7348 207.105 14.4804 207.293 14.2929C207.48 14.1054 207.735 14 208 14C208.265 14 208.52 14.1054 208.707 14.2929C208.895 14.4804 209 14.7348 209 15V19ZM201 7V4H215V7H201Z" fill="currentColor"/>
<path opacity="0.2" d="M264 8V9.66625C264 9.88262 263.93 10.0932 263.8 10.2662L261.2 13.7338C261.07 13.9068 261 14.1174 261 14.3337V28C261 28.2652 260.895 28.5196 260.707 28.7071C260.52 28.8946 260.265 29 260 29H252C251.735 29 251.48 28.8946 251.293 28.7071C251.105 28.5196 251 28.2652 251 28V14.3337C251 14.1174 250.93 13.9068 250.8 13.7338L248.2 10.2662C248.07 10.0932 248 9.88262 248 9.66625V8H264Z" fill="currentColor"/>
<path d="M263 2H249C248.47 2 247.961 2.21071 247.586 2.58579C247.211 2.96086 247 3.46957 247 4V9.66625C247.001 10.0988 247.141 10.5196 247.4 10.8663L250 14.3337V28C250 28.5304 250.211 29.0391 250.586 29.4142C250.961 29.7893 251.47 30 252 30H260C260.53 30 261.039 29.7893 261.414 29.4142C261.789 29.0391 262 28.5304 262 28V14.3337L264.6 10.8663C264.859 10.5196 264.999 10.0988 265 9.66625V4C265 3.46957 264.789 2.96086 264.414 2.58579C264.039 2.21071 263.53 2 263 2ZM249 4H263V7H249V4ZM260.4 13.1337C260.141 13.4804 260.001 13.9012 260 14.3337V28H252V14.3337C251.999 13.9012 251.859 13.4804 251.6 13.1337L249 9.66625V9H263V9.66625L260.4 13.1337ZM257 15V19C257 19.2652 256.895 19.5196 256.707 19.7071C256.52 19.8946 256.265 20 256 20C255.735 20 255.48 19.8946 255.293 19.7071C255.105 19.5196 255 19.2652 255 19V15C255 14.7348 255.105 14.4804 255.293 14.2929C255.48 14.1054 255.735 14 256 14C256.265 14 256.52 14.1054 256.707 14.2929C256.895 14.4804 257 14.7348 257 15Z" fill="currentColor"/>
</g>
<defs>
<clipPath id="clip0_17_11364">
<rect width="272" height="32" rx="5" fill="white"/>
</clipPath>
</defs>
</svg>
