<svg width="272" height="32" viewBox="0 0 272 32" fill="none" xmlns="http://www.w3.org/2000/svg">
<g clip-path="url(#clip0_17_11322)">
<path d="M16 10.0001C14.8133 10.0001 13.6533 10.352 12.6666 11.0113C11.6799 11.6706 10.9108 12.6077 10.4567 13.704C10.0026 14.8004 9.88377 16.0068 10.1153 17.1707C10.3468 18.3346 10.9182 19.4037 11.7574 20.2428C12.5965 21.0819 13.6656 21.6533 14.8295 21.8849C15.9933 22.1164 17.1997 21.9975 18.2961 21.5434C19.3925 21.0893 20.3295 20.3203 20.9888 19.3336C21.6481 18.3469 22 17.1868 22 16.0001C21.9983 14.4093 21.3657 12.8842 20.2408 11.7593C19.1159 10.6345 17.5908 10.0018 16 10.0001ZM16 20.0001C15.2089 20.0001 14.4355 19.7655 13.7777 19.326C13.1199 18.8865 12.6072 18.2618 12.3045 17.5309C12.0017 16.8 11.9225 15.9957 12.0769 15.2198C12.2312 14.4439 12.6122 13.7311 13.1716 13.1717C13.731 12.6123 14.4437 12.2313 15.2196 12.077C15.9956 11.9227 16.7998 12.0019 17.5307 12.3046C18.2616 12.6074 18.8863 13.1201 19.3259 13.7779C19.7654 14.4357 20 15.209 20 16.0001C20 17.061 19.5786 18.0784 18.8284 18.8286C18.0783 19.5787 17.0609 20.0001 16 20.0001ZM29.7425 13.4014C29.7146 13.2606 29.6568 13.1274 29.5729 13.0109C29.489 12.8945 29.381 12.7974 29.2562 12.7264L25.5275 10.6014L25.5125 6.39889C25.512 6.25416 25.4802 6.11125 25.4191 5.98003C25.358 5.84882 25.2692 5.73242 25.1587 5.63889C23.8062 4.49476 22.2485 3.61797 20.5687 3.05514C20.4365 3.01036 20.2963 2.99379 20.1572 3.0065C20.0181 3.0192 19.8832 3.06089 19.7612 3.12889L16 5.23139L12.235 3.12514C12.1129 3.05676 11.9779 3.01475 11.8386 3.00183C11.6993 2.98891 11.5588 3.00537 11.4262 3.05014C9.74768 3.61709 8.19186 4.49722 6.84124 5.64389C6.73095 5.73729 6.64222 5.85348 6.58115 5.98446C6.52008 6.11545 6.48813 6.25812 6.48749 6.40264L6.46874 10.6089L2.73999 12.7339C2.61525 12.8049 2.50725 12.902 2.42335 13.0184C2.33944 13.1349 2.2816 13.2681 2.25374 13.4089C1.91249 15.1237 1.91249 16.889 2.25374 18.6039C2.2816 18.7447 2.33944 18.8779 2.42335 18.9944C2.50725 19.1108 2.61525 19.2079 2.73999 19.2789L6.46874 21.4039L6.48374 25.6064C6.4842 25.7511 6.51606 25.894 6.57714 26.0252C6.63821 26.1565 6.72704 26.2729 6.83749 26.3664C8.19008 27.5105 9.74769 28.3873 11.4275 28.9501C11.5598 28.9949 11.7 29.0115 11.8391 28.9988C11.9781 28.9861 12.113 28.9444 12.235 28.8764L16 26.7689L19.765 28.8751C19.914 28.9582 20.0819 29.0012 20.2525 29.0001C20.3617 29.0001 20.4702 28.9824 20.5737 28.9476C22.2521 28.3814 23.8079 27.5022 25.1587 26.3564C25.269 26.263 25.3578 26.1468 25.4188 26.0158C25.4799 25.8848 25.5119 25.7422 25.5125 25.5976L25.5312 21.3914L29.26 19.2664C29.3847 19.1954 29.4927 19.0983 29.5766 18.9819C29.6605 18.8654 29.7184 18.7322 29.7462 18.5914C30.0856 16.8779 30.0843 15.1144 29.7425 13.4014ZM27.8675 17.7651L24.2962 19.7964C24.1398 19.8854 24.0102 20.0149 23.9212 20.1714C23.8487 20.2964 23.7725 20.4289 23.695 20.5539C23.5958 20.7115 23.5429 20.8939 23.5425 21.0801L23.5237 25.1114C22.5638 25.8652 21.4944 26.468 20.3525 26.8989L16.75 24.8914C16.6004 24.8086 16.4322 24.7656 16.2612 24.7664H16.2375C16.0862 24.7664 15.9337 24.7664 15.7825 24.7664C15.6036 24.7619 15.4267 24.8051 15.27 24.8914L11.665 26.9039C10.5206 26.4763 9.44827 25.8765 8.48499 25.1251L8.47124 21.1001C8.47063 20.9135 8.4178 20.7308 8.31874 20.5726C8.24124 20.4476 8.16499 20.3226 8.09374 20.1901C8.0054 20.0312 7.87585 19.8991 7.71874 19.8076L4.14374 17.7714C3.95874 16.6012 3.95874 15.4091 4.14374 14.2389L7.70874 12.2039C7.86522 12.1149 7.99477 11.9854 8.08374 11.8289C8.15624 11.7039 8.23249 11.5714 8.30999 11.4464C8.4092 11.2888 8.46204 11.1064 8.46249 10.9201L8.48124 6.88889C9.44115 6.13507 10.5106 5.53229 11.6525 5.10139L15.25 7.10889C15.4066 7.19568 15.5836 7.23884 15.7625 7.23389C15.9137 7.23389 16.0662 7.23389 16.2175 7.23389C16.3964 7.23836 16.5732 7.19522 16.73 7.10889L20.335 5.09639C21.4794 5.52398 22.5517 6.12381 23.515 6.87514L23.5287 10.9001C23.5294 11.0868 23.5822 11.2695 23.6812 11.4276C23.7587 11.5526 23.835 11.6776 23.9062 11.8101C23.9946 11.969 24.1241 12.1012 24.2812 12.1926L27.8562 14.2289C28.0437 15.4 28.0458 16.5934 27.8625 17.7651H27.8675Z" fill="currentColor"/>
<path d="M64 10.4999C62.9122 10.4999 61.8489 10.8225 60.9444 11.4268C60.0399 12.0312 59.335 12.8902 58.9187 13.8951C58.5024 14.9001 58.3935 16.006 58.6057 17.0729C58.8179 18.1398 59.3418 19.1198 60.1109 19.889C60.8801 20.6582 61.8601 21.182 62.927 21.3942C63.9939 21.6064 65.0998 21.4975 66.1048 21.0812C67.1098 20.665 67.9688 19.96 68.5731 19.0555C69.1775 18.1511 69.5 17.0877 69.5 15.9999C69.4984 14.5417 68.9184 13.1437 67.8873 12.1126C66.8562 11.0816 65.4582 10.5016 64 10.4999ZM64 20.4999C63.11 20.4999 62.24 20.236 61.5 19.7415C60.7599 19.2471 60.1832 18.5443 59.8426 17.722C59.502 16.8997 59.4129 15.9949 59.5865 15.122C59.7601 14.2491 60.1887 13.4473 60.818 12.8179C61.4474 12.1886 62.2492 11.76 63.1221 11.5864C63.995 11.4127 64.8998 11.5019 65.7221 11.8425C66.5444 12.183 67.2472 12.7598 67.7416 13.4998C68.2361 14.2399 68.5 15.1099 68.5 15.9999C68.5 17.1934 68.0259 18.338 67.182 19.1819C66.3381 20.0258 65.1935 20.4999 64 20.4999ZM77.25 13.4999C77.2353 13.4289 77.2054 13.3619 77.1622 13.3036C77.119 13.2454 77.0637 13.1972 77 13.1624L73.1388 10.9624C73.0996 10.8941 73.0579 10.8266 73.0138 10.7599L73.0125 6.39991C73.012 6.32825 72.9958 6.25757 72.9652 6.19281C72.9345 6.12804 72.8901 6.07074 72.835 6.02491C71.531 4.92097 70.0289 4.07511 68.4088 3.53241C68.3427 3.50993 68.2726 3.50154 68.2031 3.50778C68.1335 3.51402 68.0661 3.53476 68.005 3.56866L64.125 5.73366H63.875L60 3.56366C59.9391 3.52956 59.8717 3.5086 59.8021 3.50214C59.7326 3.49568 59.6625 3.50386 59.5963 3.52616C57.9768 4.07211 56.4757 4.92045 55.1725 6.02616C55.1181 6.07243 55.0741 6.12985 55.0437 6.19454C55.0133 6.25923 54.9971 6.32969 54.9963 6.40116L54.9763 10.7637L54.8513 10.9662L50.9875 13.1624C50.9262 13.1985 50.8733 13.2473 50.8323 13.3055C50.7914 13.3637 50.7633 13.43 50.75 13.4999C50.4225 15.1505 50.4225 16.8493 50.75 18.4999C50.764 18.5704 50.793 18.637 50.8351 18.6952C50.8772 18.7535 50.9313 18.802 50.9938 18.8374L54.855 21.0374C54.8942 21.1066 54.9359 21.1741 54.98 21.2399L54.995 25.5987C54.9956 25.6703 55.0117 25.741 55.0424 25.8058C55.073 25.8705 55.1174 25.9278 55.1725 25.9737C56.4766 27.0776 57.9787 27.9235 59.5988 28.4662C59.6649 28.4886 59.735 28.497 59.8045 28.4908C59.874 28.4845 59.9415 28.4638 60.0025 28.4299L63.875 26.2662H64.125L68 28.4362C68.061 28.4703 68.1284 28.4912 68.1979 28.4977C68.2675 28.5041 68.3376 28.496 68.4038 28.4737C70.0233 27.9277 71.5244 27.0794 72.8275 25.9737C72.882 25.9274 72.9259 25.87 72.9563 25.8053C72.9867 25.7406 73.0029 25.6701 73.0038 25.5987L73.0238 21.2362L73.1488 21.0337L77.0125 18.8374C77.0763 18.8025 77.1317 18.7541 77.1749 18.6956C77.2181 18.6371 77.248 18.5699 77.2625 18.4987C77.5858 16.8477 77.5815 15.1493 77.25 13.4999ZM76.315 18.0837L72.5375 20.2299C72.4583 20.2752 72.3931 20.3414 72.3488 20.4212C72.2725 20.5574 72.1925 20.6924 72.11 20.8262C72.0602 20.9047 72.0338 20.9957 72.0338 21.0887L72.0138 25.3574C70.9057 26.264 69.6499 26.9731 68.3013 27.4537L64.5013 25.3287C64.4248 25.2862 64.3387 25.2643 64.2513 25.2649H64.25C64.09 25.2649 63.9288 25.2649 63.77 25.2649C63.6805 25.2634 63.5922 25.2854 63.5138 25.3287L59.7075 27.4537C58.3566 26.9746 57.0979 26.2672 55.9863 25.3624L55.9713 21.0974C55.9714 21.004 55.945 20.9125 55.895 20.8337C55.8125 20.7087 55.7325 20.5662 55.6563 20.4299C55.612 20.3501 55.5467 20.284 55.4675 20.2387L51.6863 18.0849C51.44 16.7067 51.44 15.2957 51.6863 13.9174L55.4625 11.7699C55.5417 11.7246 55.607 11.6584 55.6513 11.5787C55.7275 11.4424 55.8075 11.3074 55.89 11.1749C55.9396 11.0958 55.966 11.0045 55.9663 10.9112L55.9863 6.64241C57.0943 5.73581 58.3502 5.0267 59.6988 4.54616L63.4988 6.67116C63.5772 6.71443 63.6655 6.73641 63.755 6.73491C63.915 6.73491 64.0763 6.73491 64.235 6.73491C64.3246 6.73701 64.4131 6.71499 64.4913 6.67116L68.2975 4.54616C69.6467 5.02576 70.9036 5.73309 72.0138 6.63741L72.0288 10.9024C72.0286 10.9958 72.0551 11.0873 72.105 11.1662C72.1875 11.2912 72.2675 11.4337 72.3438 11.5699C72.3881 11.6497 72.4533 11.7158 72.5325 11.7612L76.3138 13.9149C76.5613 15.2929 76.5625 16.7039 76.3175 18.0824L76.315 18.0837Z" fill="currentColor"/>
<path d="M112 10.2501C110.863 10.2501 109.751 10.5873 108.806 11.2192C107.86 11.851 107.123 12.749 106.688 13.7997C106.253 14.8504 106.139 16.0065 106.361 17.1219C106.582 18.2373 107.13 19.2618 107.934 20.066C108.738 20.8701 109.763 21.4178 110.878 21.6396C111.994 21.8615 113.15 21.7476 114.2 21.3124C115.251 20.8772 116.149 20.1402 116.781 19.1946C117.413 18.2491 117.75 17.1373 117.75 16.0001C117.748 14.4757 117.142 13.0143 116.064 11.9364C114.986 10.8585 113.524 10.2521 112 10.2501ZM112 20.2501C111.159 20.2501 110.338 20.0008 109.639 19.5339C108.94 19.0669 108.395 18.4031 108.074 17.6265C107.752 16.8499 107.668 15.9954 107.832 15.171C107.996 14.3466 108.4 13.5893 108.995 12.9949C109.589 12.4005 110.347 11.9958 111.171 11.8318C111.995 11.6678 112.85 11.7519 113.626 12.0736C114.403 12.3953 115.067 12.94 115.534 13.6389C116.001 14.3378 116.25 15.1595 116.25 16.0001C116.25 17.1273 115.802 18.2083 115.005 19.0053C114.208 19.8023 113.127 20.2501 112 20.2501ZM125.5 13.4501C125.478 13.3456 125.435 13.2469 125.372 13.1607C125.309 13.0745 125.228 13.0027 125.135 12.9501L121.33 10.7776L121.278 10.6889L121.263 6.40011C121.263 6.29177 121.239 6.18473 121.194 6.08633C121.148 5.98793 121.082 5.90052 121 5.83011C119.671 4.70645 118.141 3.84498 116.491 3.29136C116.392 3.25801 116.287 3.24578 116.183 3.25547C116.079 3.26516 115.978 3.29654 115.886 3.34761L112.058 5.48261H111.933L108.114 3.34511C108.022 3.29389 107.921 3.26253 107.816 3.25306C107.711 3.24358 107.606 3.2562 107.506 3.29011C105.857 3.84534 104.327 4.70899 103 5.83511C102.917 5.90515 102.851 5.99225 102.805 6.09044C102.759 6.18862 102.736 6.29554 102.735 6.40386L102.715 10.6964C102.698 10.7251 102.68 10.7551 102.664 10.7851L98.8638 12.9464C98.7704 12.9997 98.6896 13.0725 98.6269 13.1599C98.5641 13.2472 98.5209 13.3471 98.5001 13.4526C98.1663 15.1354 98.1663 16.8673 98.5001 18.5501C98.5218 18.6546 98.5656 18.7533 98.6286 18.8395C98.6915 18.9257 98.7721 18.9975 98.8651 19.0501L102.668 21.2164L102.72 21.3051L102.735 25.5939C102.734 25.7034 102.758 25.8118 102.804 25.9114C102.849 26.0109 102.916 26.0992 103 26.1701C104.329 27.2938 105.859 28.1552 107.509 28.7089C107.608 28.7422 107.713 28.7544 107.817 28.7447C107.921 28.7351 108.022 28.7037 108.114 28.6526L111.94 26.5176H112.065L115.885 28.6551C115.997 28.7169 116.122 28.7496 116.25 28.7501C116.332 28.7505 116.414 28.7369 116.491 28.7101C118.139 28.1542 119.666 27.2905 120.991 26.1651C121.074 26.0951 121.14 26.008 121.186 25.9098C121.232 25.8116 121.256 25.7047 121.256 25.5964L121.276 21.3039C121.294 21.2751 121.311 21.2451 121.328 21.2151L125.13 19.0539C125.224 19.0006 125.305 18.9279 125.368 18.8405C125.431 18.7531 125.474 18.6532 125.495 18.5476C125.83 16.8652 125.832 15.1332 125.5 13.4501ZM124.094 17.9239L120.415 20.0126C120.296 20.0809 120.197 20.1802 120.13 20.3001C120.056 20.4251 119.979 20.5639 119.898 20.6926C119.824 20.8111 119.784 20.9479 119.784 21.0876L119.764 25.2389C118.73 26.0675 117.568 26.7231 116.324 27.1801L112.625 25.1101C112.513 25.0472 112.387 25.0141 112.259 25.0139H112.241C112.086 25.0139 111.929 25.0139 111.774 25.0139C111.64 25.0106 111.507 25.0434 111.39 25.1089L107.681 27.1789C106.436 26.7241 105.272 26.0702 104.236 25.2426L104.221 21.0964C104.221 20.9567 104.182 20.8199 104.108 20.7014C104.028 20.5764 103.949 20.4414 103.875 20.3089C103.809 20.1889 103.71 20.0894 103.591 20.0214L99.9126 17.9251C99.6987 16.6511 99.6987 15.3504 99.9126 14.0764L103.585 11.9876C103.706 11.9201 103.806 11.8206 103.875 11.7001C103.949 11.5751 104.026 11.4364 104.108 11.3076C104.182 11.1891 104.221 11.0523 104.221 10.9126L104.241 6.76136C105.274 5.93319 106.434 5.27763 107.676 4.82011L111.375 6.89011C111.492 6.95665 111.625 6.98953 111.759 6.98511C111.914 6.98511 112.071 6.98511 112.226 6.98511C112.36 6.98833 112.493 6.95552 112.61 6.89011L116.316 4.82011C117.562 5.27482 118.725 5.92875 119.761 6.75636L119.776 10.9026C119.777 11.0423 119.816 11.1791 119.89 11.2976C119.97 11.4226 120.049 11.5576 120.123 11.6901C120.189 11.8101 120.287 11.9095 120.406 11.9776L124.088 14.0751C124.303 15.3489 124.304 16.6496 124.091 17.9239H124.094Z" fill="currentColor"/>
<path d="M160 9.49999C158.714 9.49999 157.458 9.88121 156.389 10.5954C155.32 11.3097 154.487 12.3248 153.995 13.5125C153.503 14.7003 153.374 16.0072 153.625 17.2681C153.876 18.529 154.495 19.6871 155.404 20.5962C156.313 21.5052 157.471 22.1243 158.732 22.3751C159.993 22.6259 161.3 22.4972 162.487 22.0052C163.675 21.5132 164.69 20.6801 165.405 19.6112C166.119 18.5423 166.5 17.2856 166.5 16C166.498 14.2767 165.813 12.6245 164.594 11.406C163.375 10.1874 161.723 9.50197 160 9.49999ZM160 19.5C159.308 19.5 158.631 19.2947 158.056 18.9101C157.48 18.5255 157.031 17.9789 156.766 17.3394C156.502 16.6998 156.432 15.9961 156.567 15.3172C156.702 14.6382 157.036 14.0146 157.525 13.5251C158.015 13.0356 158.638 12.7023 159.317 12.5672C159.996 12.4322 160.7 12.5015 161.339 12.7664C161.979 13.0313 162.526 13.4799 162.91 14.0555C163.295 14.6311 163.5 15.3078 163.5 16C163.5 16.9282 163.131 17.8185 162.475 18.4749C161.819 19.1312 160.928 19.5 160 19.5ZM174.233 13.3037C174.19 13.0925 174.103 12.8928 173.976 12.7183C173.85 12.5438 173.688 12.3985 173.5 12.2925L170.026 10.3112L170.013 6.39749C170.012 6.18034 169.964 5.96595 169.872 5.76912C169.78 5.57229 169.647 5.39773 169.481 5.25749C168.081 4.07308 166.47 3.16495 164.731 2.58124C164.533 2.51435 164.323 2.4897 164.114 2.50886C163.906 2.52802 163.704 2.59057 163.521 2.69249L160 4.65874L156.479 2.69124C156.296 2.58876 156.093 2.52579 155.884 2.50642C155.676 2.48704 155.465 2.51168 155.266 2.57874C153.527 3.16488 151.916 4.07556 150.516 5.26249C150.351 5.40257 150.218 5.57679 150.127 5.77315C150.035 5.96951 149.987 6.18336 149.986 6.39999L149.969 10.3175L146.5 12.2937C146.312 12.4002 146.15 12.5459 146.024 12.7208C145.898 12.8958 145.811 13.0959 145.769 13.3075C145.416 15.0864 145.416 16.9173 145.769 18.6962C145.811 18.9074 145.898 19.107 146.024 19.2815C146.15 19.456 146.313 19.6013 146.5 19.7075L149.978 21.6887L149.991 25.6025C149.992 25.8196 150.04 26.034 150.132 26.2309C150.223 26.4277 150.357 26.6022 150.523 26.7425C151.922 27.9269 153.534 28.835 155.273 29.4187C155.471 29.4856 155.681 29.5103 155.889 29.4911C156.098 29.472 156.3 29.4094 156.483 29.3075L160 27.3412L163.518 29.3087C163.701 29.4112 163.903 29.4742 164.112 29.4936C164.321 29.5129 164.531 29.4883 164.73 29.4212C166.469 28.8351 168.081 27.9244 169.48 26.7375C169.645 26.5974 169.778 26.4232 169.87 26.2268C169.961 26.0305 170.009 25.8166 170.01 25.6L170.028 21.6825L173.504 19.7062C173.691 19.5998 173.854 19.4541 173.98 19.2792C174.106 19.1042 174.193 18.9041 174.235 18.6925C174.587 16.9134 174.586 15.0825 174.233 13.3037ZM171.404 17.4512L168.044 19.3612C167.805 19.4966 167.608 19.6951 167.475 19.935C167.408 20.06 167.336 20.1762 167.263 20.295C167.114 20.5315 167.035 20.8047 167.034 21.0837L167.016 24.875C166.208 25.4835 165.322 25.9824 164.383 26.3587L160.989 24.46C160.765 24.3347 160.513 24.2688 160.256 24.2687H160.22C160.078 24.2687 159.933 24.2687 159.79 24.2687C159.522 24.2624 159.257 24.3275 159.023 24.4575L155.625 26.3525C154.684 25.978 153.796 25.4813 152.985 24.875L152.971 21.095C152.97 20.8155 152.891 20.5419 152.743 20.305C152.67 20.1875 152.598 20.0662 152.53 19.945C152.397 19.7066 152.2 19.5094 151.963 19.375L148.6 17.4537C148.469 16.4898 148.469 15.5127 148.6 14.5487L151.96 12.6387C152.198 12.5034 152.395 12.3054 152.529 12.0662C152.596 11.9412 152.668 11.8237 152.741 11.705C152.889 11.4685 152.969 11.1953 152.97 10.9162L152.984 7.12499C153.793 6.51821 154.678 6.02099 155.618 5.64624L159.011 7.54499C159.246 7.6765 159.511 7.74216 159.78 7.73499C159.923 7.73499 160.068 7.73499 160.21 7.73499C160.478 7.74133 160.743 7.67618 160.978 7.54624L164.375 5.64749C165.316 6.02194 166.204 6.51871 167.015 7.12499L167.029 10.905C167.03 11.1845 167.109 11.4581 167.258 11.695C167.33 11.8125 167.403 11.9337 167.47 12.055C167.603 12.2934 167.8 12.4906 168.038 12.625L171.4 14.5412C171.532 15.5066 171.534 16.4855 171.404 17.4512Z" fill="currentColor"/>
<path d="M221.742 13.4014C221.715 13.2606 221.657 13.1274 221.573 13.0109C221.489 12.8945 221.381 12.7974 221.256 12.7264L217.527 10.6014L217.512 6.39889C217.512 6.25416 217.48 6.11125 217.419 5.98003C217.358 5.84882 217.269 5.73242 217.159 5.63889C215.806 4.49476 214.249 3.61797 212.569 3.05514C212.436 3.01036 212.296 2.99379 212.157 3.0065C212.018 3.0192 211.883 3.06089 211.761 3.12889L208 5.23139L204.235 3.12514C204.113 3.05676 203.978 3.01475 203.839 3.00183C203.699 2.98891 203.559 3.00537 203.426 3.05014C201.747 3.61659 200.192 4.49677 198.841 5.64389C198.731 5.73729 198.642 5.85348 198.581 5.98446C198.52 6.11545 198.488 6.25812 198.487 6.40264L198.469 10.6089L194.74 12.7339C194.615 12.8049 194.507 12.902 194.423 13.0184C194.339 13.1349 194.282 13.2681 194.254 13.4089C193.912 15.1237 193.912 16.889 194.254 18.6039C194.282 18.7447 194.339 18.8779 194.423 18.9944C194.507 19.1108 194.615 19.2079 194.74 19.2789L198.469 21.4039L198.484 25.6076C198.484 25.7524 198.516 25.8953 198.577 26.0265C198.638 26.1577 198.727 26.2741 198.837 26.3676C200.19 27.5118 201.748 28.3886 203.427 28.9514C203.56 28.9962 203.7 29.0127 203.839 29C203.978 28.9873 204.113 28.9456 204.235 28.8776L208 26.7689L211.765 28.8751C211.914 28.9582 212.082 29.0012 212.252 29.0001C212.362 29.0001 212.47 28.9824 212.574 28.9476C214.252 28.3814 215.808 27.5022 217.159 26.3564C217.269 26.263 217.358 26.1468 217.419 26.0158C217.48 25.8848 217.512 25.7422 217.512 25.5976L217.531 21.3914L221.26 19.2664C221.385 19.1954 221.493 19.0983 221.577 18.9819C221.661 18.8654 221.718 18.7322 221.746 18.5914C222.086 16.8779 222.084 15.1144 221.742 13.4014ZM208 21.0001C207.011 21.0001 206.044 20.7069 205.222 20.1575C204.4 19.6081 203.759 18.8272 203.381 17.9136C203.002 16.9999 202.903 15.9946 203.096 15.0247C203.289 14.0548 203.765 13.1639 204.464 12.4646C205.164 11.7653 206.055 11.2891 207.025 11.0962C207.994 10.9033 209 11.0023 209.913 11.3807C210.827 11.7592 211.608 12.4 212.157 13.2223C212.707 14.0445 213 15.0112 213 16.0001C213 17.3262 212.473 18.598 211.536 19.5357C210.598 20.4734 209.326 21.0001 208 21.0001Z" fill="currentColor"/>
<path opacity="0.2" d="M268.763 13.595L264.781 11.3275C264.701 11.1825 264.618 11.0412 264.531 10.9012L264.516 6.40125C263.258 5.33939 261.811 4.5247 260.25 4L256.25 6.23625C256.083 6.23625 255.914 6.23625 255.75 6.23625L251.75 4C250.19 4.52641 248.743 5.34281 247.486 6.40625L247.466 10.9062C247.379 11.0462 247.295 11.1888 247.216 11.3325L243.236 13.595C242.923 15.1821 242.923 16.8154 243.236 18.4025L247.218 20.67C247.298 20.815 247.381 20.9563 247.468 21.0963L247.483 25.5963C248.741 26.6591 250.189 27.4747 251.75 28L255.75 25.7663C255.918 25.7663 256.086 25.7663 256.25 25.7663L260.25 28C261.809 27.4732 263.254 26.6568 264.51 25.5938L264.53 21.0938C264.618 20.9538 264.701 20.8112 264.78 20.6675L268.76 18.405C269.075 16.8172 269.076 15.1831 268.763 13.595ZM256 21C255.011 21 254.044 20.7068 253.222 20.1573C252.4 19.6079 251.759 18.827 251.381 17.9134C251.002 16.9998 250.903 15.9945 251.096 15.0245C251.289 14.0546 251.765 13.1637 252.465 12.4645C253.164 11.7652 254.055 11.289 255.025 11.0961C255.995 10.9031 257 11.0022 257.913 11.3806C258.827 11.759 259.608 12.3999 260.157 13.2221C260.707 14.0444 261 15.0111 261 16C261 17.3261 260.473 18.5979 259.536 19.5355C258.598 20.4732 257.326 21 256 21Z" fill="currentColor"/>
<path d="M256 10.0001C254.813 10.0001 253.653 10.352 252.667 11.0113C251.68 11.6706 250.911 12.6077 250.457 13.704C250.003 14.8004 249.884 16.0068 250.115 17.1707C250.347 18.3346 250.918 19.4037 251.757 20.2428C252.596 21.0819 253.666 21.6533 254.829 21.8849C255.993 22.1164 257.2 21.9975 258.296 21.5434C259.392 21.0893 260.33 20.3203 260.989 19.3336C261.648 18.3469 262 17.1868 262 16.0001C261.998 14.4093 261.366 12.8842 260.241 11.7593C259.116 10.6345 257.591 10.0018 256 10.0001ZM256 20.0001C255.209 20.0001 254.436 19.7655 253.778 19.326C253.12 18.8865 252.607 18.2618 252.304 17.5309C252.002 16.8 251.923 15.9957 252.077 15.2198C252.231 14.4439 252.612 13.7311 253.172 13.1717C253.731 12.6123 254.444 12.2313 255.22 12.077C255.996 11.9227 256.8 12.0019 257.531 12.3046C258.262 12.6074 258.886 13.1201 259.326 13.7779C259.765 14.4357 260 15.209 260 16.0001C260 17.061 259.579 18.0784 258.828 18.8286C258.078 19.5787 257.061 20.0001 256 20.0001ZM269.742 13.4014C269.715 13.2606 269.657 13.1274 269.573 13.0109C269.489 12.8945 269.381 12.7974 269.256 12.7264L265.527 10.6014L265.512 6.39889C265.512 6.25416 265.48 6.11125 265.419 5.98003C265.358 5.84882 265.269 5.73242 265.159 5.63889C263.806 4.49476 262.249 3.61797 260.569 3.05514C260.436 3.01036 260.296 2.99379 260.157 3.0065C260.018 3.0192 259.883 3.06089 259.761 3.12889L256 5.23139L252.235 3.12514C252.113 3.05676 251.978 3.01475 251.839 3.00183C251.699 2.98891 251.559 3.00537 251.426 3.05014C249.747 3.61659 248.192 4.49677 246.841 5.64389C246.731 5.73729 246.642 5.85348 246.581 5.98446C246.52 6.11545 246.488 6.25812 246.487 6.40264L246.469 10.6089L242.74 12.7339C242.615 12.8049 242.507 12.902 242.423 13.0184C242.339 13.1349 242.282 13.2681 242.254 13.4089C241.912 15.1237 241.912 16.889 242.254 18.6039C242.282 18.7447 242.339 18.8779 242.423 18.9944C242.507 19.1108 242.615 19.2079 242.74 19.2789L246.469 21.4039L246.484 25.6076C246.484 25.7524 246.516 25.8953 246.577 26.0265C246.638 26.1577 246.727 26.2741 246.837 26.3676C248.19 27.5118 249.748 28.3886 251.427 28.9514C251.56 28.9962 251.7 29.0127 251.839 29C251.978 28.9873 252.113 28.9456 252.235 28.8776L256 26.7689L259.765 28.8751C259.914 28.9582 260.082 29.0012 260.252 29.0001C260.362 29.0001 260.47 28.9824 260.574 28.9476C262.252 28.3814 263.808 27.5022 265.159 26.3564C265.269 26.263 265.358 26.1468 265.419 26.0158C265.48 25.8848 265.512 25.7422 265.512 25.5976L265.531 21.3914L269.26 19.2664C269.385 19.1954 269.493 19.0983 269.577 18.9819C269.661 18.8654 269.718 18.7322 269.746 18.5914C270.086 16.8779 270.084 15.1144 269.742 13.4014ZM267.867 17.7651L264.296 19.7964C264.14 19.8854 264.01 20.0149 263.921 20.1714C263.849 20.2964 263.772 20.4289 263.695 20.5539C263.596 20.7115 263.543 20.8939 263.542 21.0801L263.524 25.1114C262.564 25.8652 261.494 26.468 260.352 26.8989L256.75 24.8914C256.6 24.8086 256.432 24.7656 256.261 24.7664H256.237C256.086 24.7664 255.934 24.7664 255.782 24.7664C255.604 24.762 255.427 24.8052 255.27 24.8914L251.665 26.9039C250.521 26.4763 249.448 25.8765 248.485 25.1251L248.471 21.1001C248.471 20.9135 248.418 20.7308 248.319 20.5726C248.241 20.4476 248.165 20.3226 248.094 20.1901C248.005 20.0312 247.876 19.8991 247.719 19.8076L244.144 17.7714C243.959 16.6012 243.959 15.4091 244.144 14.2389L247.709 12.2039C247.865 12.1149 247.995 11.9854 248.084 11.8289C248.156 11.7039 248.232 11.5714 248.31 11.4464C248.409 11.2888 248.462 11.1064 248.462 10.9201L248.481 6.88889C249.441 6.13507 250.511 5.53229 251.652 5.10139L255.25 7.10889C255.407 7.19568 255.584 7.23884 255.762 7.23389C255.914 7.23389 256.066 7.23389 256.217 7.23389C256.396 7.23884 256.573 7.19568 256.73 7.10889L260.335 5.09639C261.479 5.52398 262.552 6.12381 263.515 6.87514L263.529 10.9001C263.529 11.0868 263.582 11.2695 263.681 11.4276C263.759 11.5526 263.835 11.6776 263.906 11.8101C263.995 11.969 264.124 12.1012 264.281 12.1926L267.856 14.2289C268.044 15.4 268.046 16.5934 267.862 17.7651H267.867Z" fill="currentColor"/>
</g>
<defs>
<clipPath id="clip0_17_11322">
<rect width="272" height="32" rx="5" fill="white"/>
</clipPath>
</defs>
</svg>
