<svg width="272" height="32" viewBox="0 0 272 32" fill="none" xmlns="http://www.w3.org/2000/svg">
<g clip-path="url(#clip0_17_11308)">
<path d="M26.0001 17.5001V22.0001C26.0001 25.1989 24.9389 27.3564 24.8939 27.4476C24.8108 27.6136 24.6832 27.7531 24.5254 27.8507C24.3675 27.9483 24.1857 28 24.0001 28.0001C23.8451 28.0002 23.6922 27.9638 23.5539 27.8939C23.3167 27.7753 23.1363 27.5674 23.0524 27.3159C22.9685 27.0644 22.9879 26.7898 23.1064 26.5526C23.1139 26.5376 24.0014 24.7014 24.0014 22.0001V17.5001C24.0014 17.1023 23.8433 16.7208 23.562 16.4395C23.2807 16.1582 22.8992 16.0001 22.5014 16.0001C22.1035 16.0001 21.722 16.1582 21.4407 16.4395C21.1594 16.7208 21.0014 17.1023 21.0014 17.5001V18.0001C21.0014 18.2653 20.896 18.5197 20.7085 18.7072C20.5209 18.8948 20.2666 19.0001 20.0014 19.0001C19.7361 19.0001 19.4818 18.8948 19.2942 18.7072C19.1067 18.5197 19.0014 18.2653 19.0014 18.0001V15.5001C19.0014 15.1023 18.8433 14.7208 18.562 14.4395C18.2807 14.1581 17.8992 14.0001 17.5014 14.0001C17.1035 14.0001 16.722 14.1581 16.4407 14.4395C16.1594 14.7208 16.0014 15.1023 16.0014 15.5001V17.0001C16.0014 17.2653 15.896 17.5197 15.7085 17.7072C15.5209 17.8948 15.2666 18.0001 15.0014 18.0001C14.7361 18.0001 14.4818 17.8948 14.2942 17.7072C14.1067 17.5197 14.0014 17.2653 14.0014 17.0001V8.50011C14.0014 8.10229 13.8433 7.72076 13.562 7.43945C13.2807 7.15815 12.8992 7.00011 12.5014 7.00011C12.1035 7.00011 11.722 7.15815 11.4407 7.43945C11.1594 7.72076 11.0014 8.10229 11.0014 8.50011V22.0001C11.0013 22.2174 10.9306 22.4287 10.7998 22.6022C10.669 22.7756 10.4852 22.9018 10.2763 22.9615C10.0674 23.0213 9.84479 23.0114 9.64205 22.9333C9.4393 22.8552 9.26749 22.7133 9.1526 22.5289L6.8176 18.7789L6.8001 18.7501C6.70161 18.5794 6.57046 18.4297 6.41413 18.3097C6.25781 18.1897 6.07937 18.1016 5.88901 18.0505C5.69865 17.9995 5.5001 17.9864 5.30468 18.0121C5.10927 18.0377 4.92082 18.1016 4.7501 18.2001C4.57938 18.2986 4.42974 18.4298 4.3097 18.5861C4.18967 18.7424 4.10161 18.9208 4.05053 19.1112C3.99946 19.3016 3.98638 19.5001 4.01205 19.6955C4.03771 19.8909 4.10161 20.0794 4.2001 20.2501L7.86135 26.5001C7.93841 26.6137 7.99124 26.742 8.01657 26.8769C8.04189 27.0119 8.03916 27.1506 8.00854 27.2844C7.97792 27.4182 7.92008 27.5443 7.8386 27.6548C7.75713 27.7653 7.65378 27.8579 7.53498 27.9267C7.41619 27.9955 7.2845 28.0391 7.14811 28.0548C7.01172 28.0705 6.87356 28.058 6.74224 28.018C6.61091 27.9779 6.48923 27.9113 6.38478 27.8222C6.28032 27.7331 6.19533 27.6235 6.1351 27.5001L2.4701 21.2501C2.00316 20.4477 1.8741 19.4926 2.11134 18.595C2.34857 17.6974 2.93266 16.9308 3.7351 16.4639C4.53755 15.9969 5.49262 15.8679 6.39022 16.1051C7.28781 16.3423 8.05441 16.9264 8.52135 17.7289L9.0001 18.5001V8.50011C9.0001 7.57186 9.36885 6.68162 10.0252 6.02524C10.6816 5.36886 11.5718 5.00011 12.5001 5.00011C13.4284 5.00011 14.3186 5.36886 14.975 6.02524C15.6314 6.68162 16.0001 7.57186 16.0001 8.50011V12.3376C16.4501 12.124 16.9406 12.009 17.4387 12.0001C17.9367 11.9913 18.431 12.0889 18.8883 12.2864C19.3456 12.4839 19.7555 12.7767 20.0906 13.1453C20.4257 13.5139 20.6782 13.9498 20.8314 14.4239C21.3644 14.1347 21.9635 13.989 22.5699 14.0011C23.1762 14.0132 23.769 14.1826 24.2901 14.4928C24.8113 14.803 25.2429 15.2432 25.5426 15.7704C25.8424 16.2976 26 16.8937 26.0001 17.5001ZM30.0001 6.00011H23.4139L25.7064 3.70761C25.894 3.52014 25.9995 3.2658 25.9996 3.00056C25.9997 2.73531 25.8945 2.48088 25.707 2.29324C25.5195 2.1056 25.2652 2.00012 24.9999 2C24.7347 1.99988 24.4802 2.10514 24.2926 2.29261L20.2926 6.29261C20.1996 6.38549 20.1259 6.49578 20.0755 6.61717C20.0252 6.73857 19.9993 6.8687 19.9993 7.00011C19.9993 7.13153 20.0252 7.26166 20.0755 7.38305C20.1259 7.50445 20.1996 7.61474 20.2926 7.70761L24.2926 11.7076C24.4802 11.8951 24.7347 12.0003 24.9999 12.0002C25.2652 12.0001 25.5195 11.8946 25.707 11.707C25.8945 11.5193 25.9997 11.2649 25.9996 10.9997C25.9995 10.7344 25.894 10.4801 25.7064 10.2926L23.4139 8.00011H30.0001C30.2653 8.00011 30.5197 7.89476 30.7072 7.70722C30.8947 7.51968 31.0001 7.26533 31.0001 7.00011C31.0001 6.7349 30.8947 6.48054 30.7072 6.29301C30.5197 6.10547 30.2653 6.00011 30.0001 6.00011Z" fill="currentColor"/>
<path d="M73.5 17.4998V21.9998C73.5 25.0823 72.49 27.1373 72.4475 27.2235C72.4181 27.2823 72.3774 27.3347 72.3278 27.3778C72.2781 27.4208 72.2205 27.4537 72.1582 27.4744C72.0959 27.4952 72.03 27.5035 71.9645 27.4989C71.899 27.4942 71.835 27.4767 71.7762 27.4473C71.7175 27.4179 71.665 27.3772 71.622 27.3276C71.579 27.278 71.5461 27.2203 71.5253 27.158C71.5045 27.0957 71.4963 27.0299 71.5009 26.9643C71.5056 26.8988 71.5231 26.8348 71.5525 26.776C71.5612 26.7573 72.5 24.8323 72.5 21.9998V17.4998C72.5 16.9694 72.2893 16.4606 71.9142 16.0856C71.5391 15.7105 71.0304 15.4998 70.5 15.4998C69.9695 15.4998 69.4608 15.7105 69.0858 16.0856C68.7107 16.4606 68.5 16.9694 68.5 17.4998V17.9998C68.5 18.1324 68.4473 18.2596 68.3535 18.3533C68.2598 18.4471 68.1326 18.4998 68 18.4998C67.8674 18.4998 67.7402 18.4471 67.6464 18.3533C67.5526 18.2596 67.5 18.1324 67.5 17.9998V15.4998C67.5 14.9694 67.2893 14.4606 66.9142 14.0856C66.5391 13.7105 66.0304 13.4998 65.5 13.4998C64.9695 13.4998 64.4608 13.7105 64.0858 14.0856C63.7107 14.4606 63.5 14.9694 63.5 15.4998V16.9998C63.5 17.1324 63.4473 17.2596 63.3535 17.3533C63.2598 17.4471 63.1326 17.4998 63 17.4998C62.8674 17.4998 62.7402 17.4471 62.6464 17.3533C62.5526 17.2596 62.5 17.1324 62.5 16.9998V8.49979C62.5 7.96936 62.2893 7.46065 61.9142 7.08558C61.5391 6.7105 61.0304 6.49979 60.5 6.49979C59.9695 6.49979 59.4608 6.7105 59.0858 7.08558C58.7107 7.46065 58.5 7.96936 58.5 8.49979V21.9998C58.4996 22.1082 58.464 22.2135 58.3986 22.2999C58.3332 22.3864 58.2415 22.4492 58.1372 22.4789C58.033 22.5087 57.922 22.5038 57.8208 22.4649C57.7196 22.4261 57.6338 22.3554 57.5762 22.2635L55.2412 18.5135C55.2378 18.5088 55.2349 18.5038 55.2325 18.4985C54.9673 18.0391 54.5304 17.7037 54.0179 17.5664C53.5055 17.429 52.9595 17.5008 52.5 17.766C52.0405 18.0313 51.7052 18.4681 51.5678 18.9806C51.4304 19.493 51.5023 20.0391 51.7675 20.4985L55.4312 26.7485C55.4856 26.862 55.4953 26.9918 55.4582 27.1121C55.4211 27.2324 55.34 27.3342 55.2312 27.3973C55.1223 27.4605 54.9936 27.4802 54.8708 27.4526C54.748 27.425 54.6401 27.3522 54.5687 27.2485L50.9025 20.9998C50.7047 20.659 50.5761 20.2826 50.5238 19.8921C50.4716 19.5016 50.4967 19.1046 50.5979 18.7239C50.8022 17.9548 51.3036 17.2985 51.9918 16.8992C52.6801 16.4998 53.4988 16.3903 54.2678 16.5946C55.0368 16.7989 55.6932 17.3003 56.0925 17.9885L57.5 20.2498V8.49979C57.5 7.70414 57.816 6.94108 58.3786 6.37847C58.9413 5.81586 59.7043 5.49979 60.5 5.49979C61.2956 5.49979 62.0587 5.81586 62.6213 6.37847C63.1839 6.94108 63.5 7.70414 63.5 8.49979V13.266C63.9171 12.8926 64.4304 12.6433 64.9819 12.5464C65.5333 12.4495 66.1009 12.5088 66.6203 12.7177C67.1398 12.9266 67.5904 13.2766 67.9213 13.7283C68.2522 14.18 68.45 14.7153 68.4925 15.2735C68.9233 14.8856 69.4572 14.6308 70.0298 14.5399C70.6024 14.4491 71.189 14.5261 71.7187 14.7616C72.2484 14.9971 72.6986 15.381 73.0147 15.867C73.3308 16.3529 73.4994 16.9201 73.5 17.4998ZM78 6.49979H70.2062L73.3537 3.35354C73.4475 3.25972 73.5002 3.13247 73.5002 2.99979C73.5002 2.86711 73.4475 2.73986 73.3537 2.64604C73.2599 2.55222 73.1327 2.49951 73 2.49951C72.8673 2.49951 72.74 2.55222 72.6462 2.64604L68.6462 6.64604C68.5997 6.69248 68.5629 6.74762 68.5377 6.80832C68.5125 6.86902 68.4996 6.93408 68.4996 6.99979C68.4996 7.0655 68.5125 7.13056 68.5377 7.19126C68.5629 7.25196 68.5997 7.3071 68.6462 7.35354L72.6462 11.3535C72.6927 11.4 72.7478 11.4368 72.8085 11.462C72.8692 11.4871 72.9343 11.5001 73 11.5001C73.0657 11.5001 73.1307 11.4871 73.1914 11.462C73.2521 11.4368 73.3073 11.4 73.3537 11.3535C73.4002 11.3071 73.437 11.2519 73.4622 11.1912C73.4873 11.1305 73.5002 11.0655 73.5002 10.9998C73.5002 10.9341 73.4873 10.869 73.4622 10.8083C73.437 10.7476 73.4002 10.6925 73.3537 10.646L70.2062 7.49979H78C78.1326 7.49979 78.2598 7.44711 78.3535 7.35334C78.4473 7.25957 78.5 7.1324 78.5 6.99979C78.5 6.86718 78.4473 6.74 78.3535 6.64624C78.2598 6.55247 78.1326 6.49979 78 6.49979Z" fill="currentColor"/>
<path d="M121.75 17.5001V22.0001C121.75 25.1413 120.715 27.2501 120.67 27.3351C120.628 27.4263 120.568 27.5081 120.494 27.5757C120.419 27.6433 120.332 27.6952 120.238 27.7285C120.143 27.7618 120.042 27.7756 119.942 27.7693C119.842 27.763 119.744 27.7366 119.654 27.6918C119.564 27.6469 119.484 27.5844 119.419 27.508C119.354 27.4317 119.304 27.343 119.274 27.2472C119.244 27.1515 119.233 27.0506 119.242 26.9506C119.252 26.8506 119.281 26.7535 119.329 26.6651C119.338 26.6476 120.25 24.7663 120.25 22.0001V17.5001C120.25 17.036 120.066 16.5908 119.738 16.2626C119.409 15.9345 118.964 15.7501 118.5 15.7501C118.036 15.7501 117.591 15.9345 117.263 16.2626C116.934 16.5908 116.75 17.036 116.75 17.5001V18.0001C116.75 18.199 116.671 18.3898 116.53 18.5304C116.39 18.6711 116.199 18.7501 116 18.7501C115.801 18.7501 115.61 18.6711 115.47 18.5304C115.329 18.3898 115.25 18.199 115.25 18.0001V15.5001C115.25 15.036 115.066 14.5908 114.738 14.2626C114.409 13.9345 113.964 13.7501 113.5 13.7501C113.036 13.7501 112.591 13.9345 112.263 14.2626C111.934 14.5908 111.75 15.036 111.75 15.5001V17.0001C111.75 17.199 111.671 17.3898 111.53 17.5304C111.39 17.6711 111.199 17.7501 111 17.7501C110.801 17.7501 110.61 17.6711 110.47 17.5304C110.329 17.3898 110.25 17.199 110.25 17.0001V8.50008C110.25 8.03596 110.066 7.59084 109.738 7.26265C109.409 6.93446 108.964 6.75008 108.5 6.75008C108.036 6.75008 107.591 6.93446 107.263 7.26265C106.934 7.59084 106.75 8.03596 106.75 8.50008V22.0001C106.75 22.1629 106.697 22.3212 106.599 22.4512C106.501 22.5811 106.363 22.6756 106.206 22.7204C106.05 22.7651 105.883 22.7577 105.731 22.6992C105.579 22.6408 105.45 22.5345 105.364 22.3963L103.029 18.6463C103.024 18.6397 103.02 18.6326 103.016 18.6251C102.784 18.2231 102.402 17.9298 101.954 17.8097C101.505 17.6895 101.028 17.7524 100.626 17.9845C100.224 18.2165 99.9304 18.5988 99.8103 19.0471C99.6902 19.4954 99.753 19.9731 99.9851 20.3751L103.646 26.6251C103.704 26.7103 103.743 26.8065 103.762 26.9075C103.781 27.0086 103.778 27.1125 103.755 27.2127C103.732 27.3128 103.689 27.4072 103.628 27.4899C103.567 27.5726 103.489 27.6419 103.4 27.6934C103.311 27.7449 103.213 27.7776 103.111 27.7894C103.009 27.8012 102.905 27.7919 102.807 27.7621C102.708 27.7322 102.617 27.6825 102.539 27.6159C102.461 27.5493 102.397 27.4674 102.351 27.3751L98.6864 21.1251C98.2532 20.3792 98.1342 19.4917 98.3553 18.658C98.5765 17.8243 99.1198 17.1126 99.8657 16.6795C100.612 16.2463 101.499 16.1273 102.333 16.3484C103.167 16.5696 103.878 17.1129 104.311 17.8588L105.25 19.3751V8.50008C105.25 7.63813 105.593 6.81148 106.202 6.20199C106.812 5.59249 107.638 5.25008 108.5 5.25008C109.362 5.25008 110.189 5.59249 110.798 6.20199C111.408 6.81148 111.75 7.63813 111.75 8.50008V12.7626C112.192 12.4801 112.695 12.3086 113.217 12.2628C113.74 12.2169 114.265 12.2981 114.749 12.4994C115.233 12.7006 115.661 13.016 115.997 13.4186C116.333 13.8212 116.566 14.299 116.678 14.8113C117.166 14.4804 117.736 14.2888 118.325 14.257C118.914 14.2252 119.501 14.3543 120.022 14.6307C120.544 14.9071 120.98 15.3202 121.284 15.8257C121.589 16.3312 121.75 16.91 121.75 17.5001ZM126 6.25008H118.81L121.53 3.53008C121.669 3.38896 121.746 3.19876 121.745 3.00091C121.744 2.80305 121.665 2.61358 121.525 2.47375C121.385 2.33393 121.196 2.25509 120.998 2.2544C120.8 2.25371 120.61 2.33124 120.469 2.47008L116.469 6.47008C116.328 6.61071 116.25 6.80133 116.25 7.00008C116.25 7.19883 116.328 7.38946 116.469 7.53008L120.469 11.5301C120.61 11.6689 120.8 11.7465 120.998 11.7458C121.196 11.7451 121.385 11.6662 121.525 11.5264C121.665 11.3866 121.744 11.1971 121.745 10.9993C121.746 10.8014 121.669 10.6112 121.53 10.4701L118.81 7.75008H126C126.199 7.75008 126.39 7.67107 126.53 7.53041C126.671 7.38976 126.75 7.199 126.75 7.00008C126.75 6.80117 126.671 6.61041 126.53 6.46975C126.39 6.3291 126.199 6.25008 126 6.25008Z" fill="currentColor"/>
<path d="M175.5 6.99989C175.5 7.39771 175.342 7.77924 175.061 8.06055C174.779 8.34185 174.398 8.49989 174 8.49989H168.625L170.064 9.93864C170.346 10.2204 170.504 10.6026 170.504 11.0011C170.504 11.3997 170.346 11.7818 170.064 12.0636C169.782 12.3454 169.4 12.5037 169.001 12.5037C168.603 12.5037 168.221 12.3454 167.939 12.0636L163.939 8.06364C163.799 7.92428 163.688 7.75869 163.612 7.57636C163.537 7.39404 163.498 7.19856 163.498 7.00114C163.498 6.80372 163.537 6.60824 163.612 6.42591C163.688 6.24358 163.799 6.07799 163.939 5.93864L167.939 1.93864C168.221 1.65684 168.603 1.49854 169.001 1.49854C169.4 1.49854 169.782 1.65684 170.064 1.93864C170.346 2.22043 170.504 2.60262 170.504 3.00114C170.504 3.39965 170.346 3.78184 170.064 4.06364L168.625 5.49989H174C174.398 5.49989 174.779 5.65792 175.061 5.93923C175.342 6.22053 175.5 6.60206 175.5 6.99989ZM166.5 14.4999C166.021 14.4982 165.546 14.5829 165.098 14.7499C164.694 13.9196 164.016 13.2543 163.178 12.867C162.34 12.4797 161.394 12.3942 160.5 12.6249V9.49989C160.5 8.43902 160.079 7.42161 159.328 6.67146C158.578 5.92131 157.561 5.49989 156.5 5.49989C155.439 5.49989 154.422 5.92131 153.672 6.67146C152.921 7.42161 152.5 8.43902 152.5 9.49989V17.8536C151.844 17.1081 150.935 16.6331 149.948 16.521C148.961 16.409 147.968 16.6678 147.162 17.2473C146.356 17.8268 145.794 18.6854 145.586 19.6562C145.377 20.627 145.537 21.6406 146.035 22.4999L146.05 22.5249L149.214 27.7749C149.316 27.9436 149.45 28.0907 149.608 28.2076C149.767 28.3246 149.947 28.4092 150.138 28.4565C150.329 28.5039 150.528 28.5131 150.723 28.4837C150.918 28.4542 151.105 28.3867 151.274 28.2849C151.443 28.1831 151.59 28.0491 151.707 27.8905C151.824 27.7319 151.908 27.5518 151.955 27.3605C152.003 27.1692 152.012 26.9705 151.983 26.7756C151.953 26.5808 151.886 26.3936 151.784 26.2249L148.625 20.9899C148.494 20.7591 148.46 20.4857 148.53 20.2297C148.6 19.9737 148.769 19.7562 149 19.6249C149.231 19.4936 149.504 19.4594 149.76 19.5297C150.016 19.6 150.234 19.7691 150.365 19.9999L150.391 20.0424L152.726 23.7924C152.898 24.0692 153.156 24.2824 153.46 24.3997C153.765 24.517 154.099 24.532 154.412 24.4425C154.726 24.3529 155.001 24.1637 155.198 23.9034C155.394 23.6431 155.5 23.3259 155.5 22.9999V9.49989C155.5 9.23467 155.605 8.98032 155.793 8.79278C155.98 8.60524 156.235 8.49989 156.5 8.49989C156.765 8.49989 157.02 8.60524 157.207 8.79278C157.395 8.98032 157.5 9.23467 157.5 9.49989V17.9999C157.5 18.3977 157.658 18.7792 157.939 19.0605C158.221 19.3419 158.602 19.4999 159 19.4999C159.398 19.4999 159.779 19.3419 160.061 19.0605C160.342 18.7792 160.5 18.3977 160.5 17.9999V16.4999C160.5 16.2347 160.605 15.9803 160.793 15.7928C160.98 15.6052 161.235 15.4999 161.5 15.4999C161.765 15.4999 162.02 15.6052 162.207 15.7928C162.395 15.9803 162.5 16.2347 162.5 16.4999V18.9999C162.5 19.3977 162.658 19.7792 162.939 20.0605C163.221 20.3419 163.602 20.4999 164 20.4999C164.398 20.4999 164.779 20.3419 165.061 20.0605C165.342 19.7792 165.5 19.3977 165.5 18.9999V18.4999C165.5 18.2347 165.605 17.9803 165.793 17.7928C165.98 17.6052 166.235 17.4999 166.5 17.4999C166.765 17.4999 167.02 17.6052 167.207 17.7928C167.395 17.9803 167.5 18.2347 167.5 18.4999V22.9999C167.5 24.3849 167.34 25.7086 167.073 26.5399C167.008 26.7283 166.982 26.9277 166.996 27.1264C167.009 27.325 167.062 27.519 167.152 27.6969C167.241 27.8749 167.365 28.0333 167.516 28.1629C167.667 28.2925 167.843 28.3907 168.032 28.4517C168.222 28.5128 168.422 28.5355 168.62 28.5186C168.818 28.5017 169.011 28.4454 169.188 28.3531C169.364 28.2607 169.52 28.1342 169.647 27.9809C169.774 27.8275 169.87 27.6504 169.928 27.4599C170.303 26.3149 170.5 24.7311 170.5 22.9999V18.4999C170.5 17.439 170.079 16.4216 169.328 15.6715C168.578 14.9213 167.561 14.4999 166.5 14.4999Z" fill="currentColor"/>
<path d="M218 16.0001V22.3663C218 25.5651 216.94 27.3576 216.895 27.4476C216.812 27.6137 216.684 27.7534 216.526 27.851C216.368 27.9486 216.186 28.0002 216 28.0001H199C198.826 28.0001 198.654 27.9545 198.503 27.8679C198.352 27.7813 198.226 27.6567 198.138 27.5063L194.269 20.0001C194.133 19.7656 194.047 19.506 194.015 19.2372C193.982 18.9683 194.005 18.6956 194.082 18.4358C194.158 18.176 194.286 17.9344 194.459 17.7256C194.631 17.5168 194.844 17.3453 195.085 17.2213C196.043 16.7213 197.223 17.1163 197.76 18.0488L200.385 22.6038C200.458 22.735 200.568 22.8416 200.702 22.9103C200.835 22.9791 200.986 23.0068 201.135 22.9901H201.15C201.39 22.9487 201.608 22.823 201.764 22.6356C201.919 22.4482 202.003 22.2113 202 21.9676V7.00007C202 6.72912 202.054 6.46094 202.161 6.2118C202.267 5.96265 202.423 5.73774 202.619 5.55071C202.815 5.36367 203.047 5.21842 203.301 5.12377C203.555 5.02911 203.826 4.98703 204.096 5.00007C205.173 5.05007 206 5.97757 206 7.05382V16.0001C206 16.1372 206.028 16.2728 206.082 16.3987C206.136 16.5246 206.216 16.6379 206.316 16.7317C206.416 16.8254 206.534 16.8977 206.663 16.9438C206.792 16.99 206.929 17.0092 207.066 17.0001C207.323 16.978 207.563 16.8593 207.736 16.668C207.909 16.4767 208.003 16.2269 208 15.9688V14.0001C208 13.7291 208.054 13.4609 208.161 13.2118C208.267 12.9627 208.423 12.7377 208.619 12.5507C208.815 12.3637 209.047 12.2184 209.301 12.1238C209.555 12.0291 209.826 11.987 210.096 12.0001C211.173 12.0501 212 12.9776 212 14.0538V17.0001C212 17.1372 212.028 17.2728 212.082 17.3987C212.136 17.5246 212.216 17.6379 212.316 17.7317C212.416 17.8254 212.534 17.8977 212.663 17.9438C212.792 17.99 212.929 18.0092 213.066 18.0001C213.323 17.9777 213.562 17.859 213.736 17.6677C213.909 17.4765 214.003 17.2268 214 16.9688V16.0588C214 14.9826 214.828 14.0588 215.904 14.0051C216.174 13.992 216.444 14.034 216.698 14.1283C216.951 14.2227 217.183 14.3675 217.379 14.554C217.575 14.7405 217.731 14.9648 217.838 15.2134C217.944 15.4619 218 15.7295 218 16.0001ZM222 6.00007H215.414L217.708 3.70757C217.8 3.61466 217.874 3.50436 217.924 3.38296C217.975 3.26157 218.001 3.13146 218.001 3.00007C218.001 2.86867 217.975 2.73856 217.924 2.61717C217.874 2.49578 217.8 2.38548 217.708 2.29257C217.615 2.19966 217.504 2.12596 217.383 2.07567C217.262 2.02539 217.131 1.99951 217 1.99951C216.869 1.99951 216.739 2.02539 216.617 2.07567C216.496 2.12596 216.385 2.19966 216.293 2.29257L212.293 6.29257C212.2 6.38544 212.126 6.49573 212.075 6.61713C212.025 6.73853 211.999 6.86865 211.999 7.00007C211.999 7.13148 212.025 7.26161 212.075 7.38301C212.126 7.50441 212.2 7.61469 212.293 7.70757L216.293 11.7076C216.385 11.8005 216.496 11.8742 216.617 11.9245C216.739 11.9747 216.869 12.0006 217 12.0006C217.131 12.0006 217.262 11.9747 217.383 11.9245C217.504 11.8742 217.615 11.8005 217.708 11.7076C217.8 11.6147 217.874 11.5044 217.924 11.383C217.975 11.2616 218.001 11.1315 218.001 11.0001C218.001 10.8687 217.975 10.7386 217.924 10.6172C217.874 10.4958 217.8 10.3855 217.708 10.2926L215.414 8.00007H222C222.265 8.00007 222.52 7.89471 222.707 7.70717C222.895 7.51964 223 7.26528 223 7.00007C223 6.73485 222.895 6.4805 222.707 6.29296C222.52 6.10542 222.265 6.00007 222 6.00007Z" fill="currentColor"/>
<path opacity="0.2" d="M265 17.5V22C265 25 264 27 264 27H247L243.335 20.75C243.009 20.1761 242.923 19.4964 243.096 18.8593C243.269 18.2222 243.687 17.6794 244.258 17.3493C244.83 17.0192 245.509 16.9287 246.147 17.0974C246.786 17.2661 247.331 17.6805 247.665 18.25L250 22V8.5C250 7.83696 250.263 7.20107 250.732 6.73223C251.201 6.26339 251.837 6 252.5 6C253.163 6 253.799 6.26339 254.268 6.73223C254.737 7.20107 255 7.83696 255 8.5V15.5C255 14.837 255.263 14.2011 255.732 13.7322C256.201 13.2634 256.837 13 257.5 13C258.163 13 258.799 13.2634 259.268 13.7322C259.737 14.2011 260 14.837 260 15.5V17.5C260 16.837 260.263 16.2011 260.732 15.7322C261.201 15.2634 261.837 15 262.5 15C263.163 15 263.799 15.2634 264.268 15.7322C264.737 16.2011 265 16.837 265 17.5Z" fill="currentColor"/>
<path d="M266 17.5001V22.0001C266 25.1989 264.939 27.3564 264.894 27.4476C264.811 27.6136 264.683 27.7531 264.525 27.8507C264.368 27.9483 264.186 28 264 28.0001C263.845 28.0002 263.692 27.9638 263.554 27.8939C263.317 27.7753 263.136 27.5674 263.052 27.3159C262.968 27.0644 262.988 26.7898 263.106 26.5526C263.114 26.5376 264.001 24.7014 264.001 22.0001V17.5001C264.001 17.1023 263.843 16.7208 263.562 16.4395C263.281 16.1582 262.899 16.0001 262.501 16.0001C262.104 16.0001 261.722 16.1582 261.441 16.4395C261.159 16.7208 261.001 17.1023 261.001 17.5001V18.0001C261.001 18.2653 260.896 18.5197 260.708 18.7072C260.521 18.8948 260.267 19.0001 260.001 19.0001C259.736 19.0001 259.482 18.8948 259.294 18.7072C259.107 18.5197 259.001 18.2653 259.001 18.0001V15.5001C259.001 15.1023 258.843 14.7208 258.562 14.4395C258.281 14.1581 257.899 14.0001 257.501 14.0001C257.104 14.0001 256.722 14.1581 256.441 14.4395C256.159 14.7208 256.001 15.1023 256.001 15.5001V17.0001C256.001 17.2653 255.896 17.5197 255.708 17.7072C255.521 17.8948 255.267 18.0001 255.001 18.0001C254.736 18.0001 254.482 17.8948 254.294 17.7072C254.107 17.5197 254.001 17.2653 254.001 17.0001V8.50011C254.001 8.10229 253.843 7.72076 253.562 7.43945C253.281 7.15815 252.899 7.00011 252.501 7.00011C252.104 7.00011 251.722 7.15815 251.441 7.43945C251.159 7.72076 251.001 8.10229 251.001 8.50011V22.0001C251.001 22.2174 250.931 22.4287 250.8 22.6022C250.669 22.7756 250.485 22.9018 250.276 22.9615C250.067 23.0213 249.845 23.0114 249.642 22.9333C249.439 22.8552 249.267 22.7133 249.153 22.5289L246.818 18.7789L246.8 18.7501C246.702 18.5794 246.57 18.4297 246.414 18.3097C246.258 18.1897 246.079 18.1016 245.889 18.0505C245.699 17.9995 245.5 17.9864 245.305 18.0121C245.109 18.0377 244.921 18.1016 244.75 18.2001C244.579 18.2986 244.43 18.4298 244.31 18.5861C244.19 18.7424 244.102 18.9208 244.051 19.1112C243.999 19.3016 243.986 19.5001 244.012 19.6955C244.038 19.8909 244.102 20.0794 244.2 20.2501L247.861 26.5001C247.938 26.6137 247.991 26.742 248.017 26.8769C248.042 27.0119 248.039 27.1506 248.009 27.2844C247.978 27.4182 247.92 27.5443 247.839 27.6548C247.757 27.7653 247.654 27.8579 247.535 27.9267C247.416 27.9955 247.284 28.0391 247.148 28.0548C247.012 28.0705 246.874 28.058 246.742 28.018C246.611 27.9779 246.489 27.9113 246.385 27.8222C246.28 27.7331 246.195 27.6235 246.135 27.5001L242.47 21.2501C242.003 20.4477 241.874 19.4926 242.111 18.595C242.349 17.6974 242.933 16.9308 243.735 16.4639C244.538 15.9969 245.493 15.8679 246.39 16.1051C247.288 16.3423 248.054 16.9264 248.521 17.7289L249 18.5001V8.50011C249 7.57186 249.369 6.68162 250.025 6.02524C250.682 5.36886 251.572 5.00011 252.5 5.00011C253.428 5.00011 254.319 5.36886 254.975 6.02524C255.631 6.68162 256 7.57186 256 8.50011V12.3376C256.45 12.124 256.941 12.009 257.439 12.0001C257.937 11.9913 258.431 12.0889 258.888 12.2864C259.346 12.4839 259.756 12.7767 260.091 13.1453C260.426 13.5139 260.678 13.9498 260.831 14.4239C261.364 14.1347 261.964 13.989 262.57 14.0011C263.176 14.0132 263.769 14.1826 264.29 14.4928C264.811 14.803 265.243 15.2432 265.543 15.7704C265.842 16.2976 266 16.8937 266 17.5001ZM270 6.00011H263.414L265.706 3.70761C265.894 3.52014 265.999 3.2658 266 3.00056C266 2.73531 265.894 2.48088 265.707 2.29324C265.52 2.1056 265.265 2.00012 265 2C264.735 1.99988 264.48 2.10514 264.293 2.29261L260.293 6.29261C260.2 6.38549 260.126 6.49578 260.076 6.61717C260.025 6.73857 259.999 6.8687 259.999 7.00011C259.999 7.13153 260.025 7.26166 260.076 7.38305C260.126 7.50445 260.2 7.61474 260.293 7.70761L264.293 11.7076C264.48 11.8951 264.735 12.0003 265 12.0002C265.265 12.0001 265.52 11.8946 265.707 11.707C265.894 11.5193 266 11.2649 266 10.9997C265.999 10.7344 265.894 10.4801 265.706 10.2926L263.414 8.00011H270C270.265 8.00011 270.52 7.89476 270.707 7.70722C270.895 7.51968 271 7.26533 271 7.00011C271 6.7349 270.895 6.48054 270.707 6.29301C270.52 6.10547 270.265 6.00011 270 6.00011Z" fill="currentColor"/>
</g>
<defs>
<clipPath id="clip0_17_11308">
<rect width="272" height="32" rx="5" fill="white"/>
</clipPath>
</defs>
</svg>
