<svg width="272" height="32" viewBox="0 0 272 32" fill="none" xmlns="http://www.w3.org/2000/svg">
<g clip-path="url(#clip0_17_11223)">
<path d="M27.9387 6H4.06375C3.51684 6 2.9923 6.21709 2.60534 6.60357C2.21839 6.99006 2.00066 7.51434 2 8.06125V23.9363C2 24.4832 2.21709 25.0077 2.60357 25.3947C2.99006 25.7816 3.51434 25.9993 4.06125 26H27.9363C28.4832 26 29.0077 25.7829 29.3947 25.3964C29.7816 25.0099 29.9993 24.4857 30 23.9387V8.06375C30 7.51684 29.7829 6.9923 29.3964 6.60534C29.0099 6.21839 28.4857 6.00066 27.9387 6ZM28 23.9387C28 23.9468 27.9984 23.9548 27.9953 23.9622C27.9923 23.9696 27.9877 23.9764 27.9821 23.9821C27.9764 23.9877 27.9696 23.9923 27.9622 23.9953C27.9548 23.9984 27.9468 24 27.9387 24H4.06375C4.05571 24 4.04774 23.9984 4.04031 23.9953C4.03288 23.9923 4.02613 23.9877 4.02044 23.9821C4.01475 23.9764 4.01024 23.9696 4.00716 23.9622C4.00408 23.9548 4.0025 23.9468 4.0025 23.9387V8.06375C4.0025 8.04751 4.00895 8.03193 4.02044 8.02044C4.03193 8.00895 4.04751 8.0025 4.06375 8.0025H27.9387C27.955 8.0025 27.9706 8.00895 27.9821 8.02044C27.9935 8.03193 28 8.04751 28 8.06375V23.9387ZM26 16C26 16.2652 25.8946 16.5196 25.7071 16.7071C25.5196 16.8946 25.2652 17 25 17H7C6.73478 17 6.48043 16.8946 6.29289 16.7071C6.10536 16.5196 6 16.2652 6 16C6 15.7348 6.10536 15.4804 6.29289 15.2929C6.48043 15.1054 6.73478 15 7 15H25C25.2652 15 25.5196 15.1054 25.7071 15.2929C25.8946 15.4804 26 15.7348 26 16ZM26 12C26 12.2652 25.8946 12.5196 25.7071 12.7071C25.5196 12.8946 25.2652 13 25 13H7C6.73478 13 6.48043 12.8946 6.29289 12.7071C6.10536 12.5196 6 12.2652 6 12C6 11.7348 6.10536 11.4804 6.29289 11.2929C6.48043 11.1054 6.73478 11 7 11H25C25.2652 11 25.5196 11.1054 25.7071 11.2929C25.8946 11.4804 26 11.7348 26 12ZM9 20C9 20.2652 8.89464 20.5196 8.70711 20.7071C8.51957 20.8946 8.26522 21 8 21H7C6.73478 21 6.48043 20.8946 6.29289 20.7071C6.10536 20.5196 6 20.2652 6 20C6 19.7348 6.10536 19.4804 6.29289 19.2929C6.48043 19.1054 6.73478 19 7 19H8C8.26522 19 8.51957 19.1054 8.70711 19.2929C8.89464 19.4804 9 19.7348 9 20ZM21 20C21 20.2652 20.8946 20.5196 20.7071 20.7071C20.5196 20.8946 20.2652 21 20 21H12C11.7348 21 11.4804 20.8946 11.2929 20.7071C11.1054 20.5196 11 20.2652 11 20C11 19.7348 11.1054 19.4804 11.2929 19.2929C11.4804 19.1054 11.7348 19 12 19H20C20.2652 19 20.5196 19.1054 20.7071 19.2929C20.8946 19.4804 21 19.7348 21 20ZM26 20C26 20.2652 25.8946 20.5196 25.7071 20.7071C25.5196 20.8946 25.2652 21 25 21H24C23.7348 21 23.4804 20.8946 23.2929 20.7071C23.1054 20.5196 23 20.2652 23 20C23 19.7348 23.1054 19.4804 23.2929 19.2929C23.4804 19.1054 23.7348 19 24 19H25C25.2652 19 25.5196 19.1054 25.7071 19.2929C25.8946 19.4804 26 19.7348 26 20Z" fill="currentColor"/>
<path d="M75.9387 6.5H52.0638C51.8586 6.49984 51.6553 6.54009 51.4657 6.61846C51.2761 6.69683 51.1037 6.81179 50.9585 6.95676C50.8133 7.10174 50.6981 7.27389 50.6194 7.4634C50.5407 7.65291 50.5002 7.85606 50.5 8.06125V23.9363C50.4998 24.1414 50.5401 24.3447 50.6185 24.5343C50.6968 24.7239 50.8118 24.8963 50.9568 25.0415C51.1017 25.1867 51.2739 25.3019 51.4634 25.3806C51.6529 25.4593 51.8561 25.4998 52.0613 25.5H75.9363C76.1414 25.5002 76.3447 25.4599 76.5343 25.3815C76.7239 25.3032 76.8963 25.1882 77.0415 25.0432C77.1867 24.8983 77.3019 24.7261 77.3806 24.5366C77.4593 24.3471 77.4998 24.1439 77.5 23.9387V8.06375C77.5002 7.85856 77.4599 7.65535 77.3815 7.46571C77.3032 7.27608 77.1882 7.10374 77.0432 6.95853C76.8983 6.81332 76.7261 6.69809 76.5366 6.61942C76.3471 6.54074 76.1439 6.50016 75.9387 6.5ZM76.5 23.9387C76.5 24.0876 76.4409 24.2304 76.3356 24.3356C76.2304 24.4409 76.0876 24.5 75.9387 24.5H52.0638C51.9898 24.5003 51.9166 24.4861 51.8482 24.458C51.7798 24.4299 51.7177 24.3886 51.6653 24.3365C51.6129 24.2844 51.5713 24.2224 51.543 24.1541C51.5146 24.0859 51.5 24.0127 51.5 23.9387V8.06375C51.4997 7.98984 51.5139 7.91658 51.542 7.8482C51.5701 7.77982 51.6114 7.71765 51.6635 7.66527C51.7156 7.61289 51.7776 7.57132 51.8459 7.54296C51.9141 7.5146 51.9873 7.5 52.0613 7.5H75.9363C76.0102 7.49967 76.0834 7.51395 76.1518 7.542C76.2202 7.57006 76.2823 7.61135 76.3347 7.6635C76.3871 7.71565 76.4287 7.77763 76.457 7.84589C76.4854 7.91415 76.5 7.98733 76.5 8.06125V23.9387ZM73.5 16C73.5 16.1326 73.4473 16.2598 73.3536 16.3536C73.2598 16.4473 73.1326 16.5 73 16.5H55C54.8674 16.5 54.7402 16.4473 54.6464 16.3536C54.5527 16.2598 54.5 16.1326 54.5 16C54.5 15.8674 54.5527 15.7402 54.6464 15.6464C54.7402 15.5527 54.8674 15.5 55 15.5H73C73.1326 15.5 73.2598 15.5527 73.3536 15.6464C73.4473 15.7402 73.5 15.8674 73.5 16ZM73.5 12C73.5 12.1326 73.4473 12.2598 73.3536 12.3536C73.2598 12.4473 73.1326 12.5 73 12.5H55C54.8674 12.5 54.7402 12.4473 54.6464 12.3536C54.5527 12.2598 54.5 12.1326 54.5 12C54.5 11.8674 54.5527 11.7402 54.6464 11.6464C54.7402 11.5527 54.8674 11.5 55 11.5H73C73.1326 11.5 73.2598 11.5527 73.3536 11.6464C73.4473 11.7402 73.5 11.8674 73.5 12ZM56.5 20C56.5 20.1326 56.4473 20.2598 56.3536 20.3536C56.2598 20.4473 56.1326 20.5 56 20.5H55C54.8674 20.5 54.7402 20.4473 54.6464 20.3536C54.5527 20.2598 54.5 20.1326 54.5 20C54.5 19.8674 54.5527 19.7402 54.6464 19.6464C54.7402 19.5527 54.8674 19.5 55 19.5H56C56.1326 19.5 56.2598 19.5527 56.3536 19.6464C56.4473 19.7402 56.5 19.8674 56.5 20ZM68.5 20C68.5 20.1326 68.4473 20.2598 68.3536 20.3536C68.2598 20.4473 68.1326 20.5 68 20.5H60C59.8674 20.5 59.7402 20.4473 59.6464 20.3536C59.5527 20.2598 59.5 20.1326 59.5 20C59.5 19.8674 59.5527 19.7402 59.6464 19.6464C59.7402 19.5527 59.8674 19.5 60 19.5H68C68.1326 19.5 68.2598 19.5527 68.3536 19.6464C68.4473 19.7402 68.5 19.8674 68.5 20ZM73.5 20C73.5 20.1326 73.4473 20.2598 73.3536 20.3536C73.2598 20.4473 73.1326 20.5 73 20.5H72C71.8674 20.5 71.7402 20.4473 71.6464 20.3536C71.5527 20.2598 71.5 20.1326 71.5 20C71.5 19.8674 71.5527 19.7402 71.6464 19.6464C71.7402 19.5527 71.8674 19.5 72 19.5H73C73.1326 19.5 73.2598 19.5527 73.3536 19.6464C73.4473 19.7402 73.5 19.8674 73.5 20Z" fill="currentColor"/>
<path d="M123.939 6.25H100.064C99.5831 6.25 99.1222 6.44075 98.7821 6.78035C98.442 7.11995 98.2507 7.58065 98.25 8.06125V23.9363C98.25 24.4169 98.4407 24.8778 98.7804 25.2179C99.12 25.558 99.5806 25.7493 100.061 25.75H123.936C124.417 25.75 124.878 25.5593 125.218 25.2196C125.558 24.88 125.749 24.4194 125.75 23.9387V8.06375C125.75 7.58315 125.559 7.12219 125.22 6.78212C124.88 6.44205 124.419 6.25066 123.939 6.25ZM124.25 23.9387C124.25 24.0213 124.217 24.1005 124.159 24.1588C124.1 24.2172 124.021 24.25 123.939 24.25H100.064C100.023 24.2503 99.9819 24.2425 99.9439 24.227C99.9058 24.2115 99.8712 24.1887 99.842 24.1597C99.8129 24.1308 99.7897 24.0964 99.7739 24.0584C99.7581 24.0205 99.75 23.9798 99.75 23.9387V8.06375C99.7497 8.02267 99.7575 7.98192 99.773 7.94387C99.7885 7.90582 99.8113 7.87121 99.8403 7.84205C99.8692 7.81288 99.9036 7.78973 99.9416 7.77393C99.9795 7.75813 100.02 7.75 100.061 7.75H123.936C123.977 7.74967 124.018 7.75748 124.056 7.77297C124.094 7.78847 124.129 7.81134 124.158 7.84027C124.187 7.86921 124.21 7.90363 124.226 7.94156C124.242 7.97949 124.25 8.02016 124.25 8.06125V23.9387ZM121.75 16C121.75 16.1989 121.671 16.3897 121.53 16.5303C121.39 16.671 121.199 16.75 121 16.75H103C102.801 16.75 102.61 16.671 102.47 16.5303C102.329 16.3897 102.25 16.1989 102.25 16C102.25 15.8011 102.329 15.6103 102.47 15.4697C102.61 15.329 102.801 15.25 103 15.25H121C121.199 15.25 121.39 15.329 121.53 15.4697C121.671 15.6103 121.75 15.8011 121.75 16ZM121.75 12C121.75 12.1989 121.671 12.3897 121.53 12.5303C121.39 12.671 121.199 12.75 121 12.75H103C102.801 12.75 102.61 12.671 102.47 12.5303C102.329 12.3897 102.25 12.1989 102.25 12C102.25 11.8011 102.329 11.6103 102.47 11.4697C102.61 11.329 102.801 11.25 103 11.25H121C121.199 11.25 121.39 11.329 121.53 11.4697C121.671 11.6103 121.75 11.8011 121.75 12ZM104.75 20C104.75 20.1989 104.671 20.3897 104.53 20.5303C104.39 20.671 104.199 20.75 104 20.75H103C102.801 20.75 102.61 20.671 102.47 20.5303C102.329 20.3897 102.25 20.1989 102.25 20C102.25 19.8011 102.329 19.6103 102.47 19.4697C102.61 19.329 102.801 19.25 103 19.25H104C104.199 19.25 104.39 19.329 104.53 19.4697C104.671 19.6103 104.75 19.8011 104.75 20ZM116.75 20C116.75 20.1989 116.671 20.3897 116.53 20.5303C116.39 20.671 116.199 20.75 116 20.75H108C107.801 20.75 107.61 20.671 107.47 20.5303C107.329 20.3897 107.25 20.1989 107.25 20C107.25 19.8011 107.329 19.6103 107.47 19.4697C107.61 19.329 107.801 19.25 108 19.25H116C116.199 19.25 116.39 19.329 116.53 19.4697C116.671 19.6103 116.75 19.8011 116.75 20ZM121.75 20C121.75 20.1989 121.671 20.3897 121.53 20.5303C121.39 20.671 121.199 20.75 121 20.75H120C119.801 20.75 119.61 20.671 119.47 20.5303C119.329 20.3897 119.25 20.1989 119.25 20C119.25 19.8011 119.329 19.6103 119.47 19.4697C119.61 19.329 119.801 19.25 120 19.25H121C121.199 19.25 121.39 19.329 121.53 19.4697C121.671 19.6103 121.75 19.8011 121.75 20Z" fill="currentColor"/>
<path d="M171.939 5.5H148.064C147.384 5.5 146.733 5.76977 146.252 6.25002C145.771 6.73028 145.501 7.38173 145.5 8.06125V23.9363C145.5 24.6158 145.77 25.2675 146.25 25.7482C146.73 26.2289 147.382 26.4993 148.061 26.5H171.936C172.616 26.5 173.267 26.2302 173.748 25.75C174.229 25.2697 174.499 24.6183 174.5 23.9387V8.06375C174.5 7.38423 174.23 6.73251 173.75 6.25179C173.27 5.77106 172.618 5.50066 171.939 5.5ZM171.5 23.5H148.5V8.5H171.5V23.5ZM150.5 16C150.5 15.6022 150.658 15.2206 150.939 14.9393C151.221 14.658 151.602 14.5 152 14.5H168C168.398 14.5 168.779 14.658 169.061 14.9393C169.342 15.2206 169.5 15.6022 169.5 16C169.5 16.3978 169.342 16.7794 169.061 17.0607C168.779 17.342 168.398 17.5 168 17.5H152C151.602 17.5 151.221 17.342 150.939 17.0607C150.658 16.7794 150.5 16.3978 150.5 16ZM150.5 11.5C150.5 11.1022 150.658 10.7206 150.939 10.4393C151.221 10.158 151.602 10 152 10H168C168.398 10 168.779 10.158 169.061 10.4393C169.342 10.7206 169.5 11.1022 169.5 11.5C169.5 11.8978 169.342 12.2794 169.061 12.5607C168.779 12.842 168.398 13 168 13H152C151.602 13 151.221 12.842 150.939 12.5607C150.658 12.2794 150.5 11.8978 150.5 11.5ZM150.5 20.5C150.5 20.1022 150.658 19.7206 150.939 19.4393C151.221 19.158 151.602 19 152 19H153C153.398 19 153.779 19.158 154.061 19.4393C154.342 19.7206 154.5 20.1022 154.5 20.5C154.5 20.8978 154.342 21.2794 154.061 21.5607C153.779 21.842 153.398 22 153 22H152C151.602 22 151.221 21.842 150.939 21.5607C150.658 21.2794 150.5 20.8978 150.5 20.5ZM164 20.5C164 20.8978 163.842 21.2794 163.561 21.5607C163.279 21.842 162.898 22 162.5 22H157.5C157.102 22 156.721 21.842 156.439 21.5607C156.158 21.2794 156 20.8978 156 20.5C156 20.1022 156.158 19.7206 156.439 19.4393C156.721 19.158 157.102 19 157.5 19H162.5C162.898 19 163.279 19.158 163.561 19.4393C163.842 19.7206 164 20.1022 164 20.5ZM169.5 20.5C169.5 20.8978 169.342 21.2794 169.061 21.5607C168.779 21.842 168.398 22 168 22H167C166.602 22 166.221 21.842 165.939 21.5607C165.658 21.2794 165.5 20.8978 165.5 20.5C165.5 20.1022 165.658 19.7206 165.939 19.4393C166.221 19.158 166.602 19 167 19H168C168.398 19 168.779 19.158 169.061 19.4393C169.342 19.7206 169.5 20.1022 169.5 20.5Z" fill="currentColor"/>
<path d="M219.939 6H196.064C195.517 6 194.992 6.21709 194.605 6.60357C194.218 6.99006 194.001 7.51434 194 8.06125V23.9363C194 24.4832 194.217 25.0077 194.604 25.3947C194.99 25.7816 195.514 25.9993 196.061 26H219.936C220.483 26 221.008 25.7829 221.395 25.3964C221.782 25.0099 221.999 24.4857 222 23.9387V8.06375C222 7.51684 221.783 6.9923 221.396 6.60534C221.01 6.21839 220.486 6.00066 219.939 6ZM200 21H198C197.735 21 197.48 20.8946 197.293 20.7071C197.105 20.5196 197 20.2652 197 20C197 19.7348 197.105 19.4804 197.293 19.2929C197.48 19.1054 197.735 19 198 19H200C200.265 19 200.52 19.1054 200.707 19.2929C200.895 19.4804 201 19.7348 201 20C201 20.2652 200.895 20.5196 200.707 20.7071C200.52 20.8946 200.265 21 200 21ZM212 21H204C203.735 21 203.48 20.8946 203.293 20.7071C203.105 20.5196 203 20.2652 203 20C203 19.7348 203.105 19.4804 203.293 19.2929C203.48 19.1054 203.735 19 204 19H212C212.265 19 212.52 19.1054 212.707 19.2929C212.895 19.4804 213 19.7348 213 20C213 20.2652 212.895 20.5196 212.707 20.7071C212.52 20.8946 212.265 21 212 21ZM218 21H216C215.735 21 215.48 20.8946 215.293 20.7071C215.105 20.5196 215 20.2652 215 20C215 19.7348 215.105 19.4804 215.293 19.2929C215.48 19.1054 215.735 19 216 19H218C218.265 19 218.52 19.1054 218.707 19.2929C218.895 19.4804 219 19.7348 219 20C219 20.2652 218.895 20.5196 218.707 20.7071C218.52 20.8946 218.265 21 218 21ZM218 17H198C197.735 17 197.48 16.8946 197.293 16.7071C197.105 16.5196 197 16.2652 197 16C197 15.7348 197.105 15.4804 197.293 15.2929C197.48 15.1054 197.735 15 198 15H218C218.265 15 218.52 15.1054 218.707 15.2929C218.895 15.4804 219 15.7348 219 16C219 16.2652 218.895 16.5196 218.707 16.7071C218.52 16.8946 218.265 17 218 17ZM218 13H198C197.735 13 197.48 12.8946 197.293 12.7071C197.105 12.5196 197 12.2652 197 12C197 11.7348 197.105 11.4804 197.293 11.2929C197.48 11.1054 197.735 11 198 11H218C218.265 11 218.52 11.1054 218.707 11.2929C218.895 11.4804 219 11.7348 219 12C219 12.2652 218.895 12.5196 218.707 12.7071C218.52 12.8946 218.265 13 218 13Z" fill="currentColor"/>
<path opacity="0.2" d="M269 8.06125V23.9363C269 24.2177 268.888 24.4876 268.689 24.6867C268.49 24.8857 268.22 24.9975 267.939 24.9975H244.064C243.924 24.9978 243.786 24.9707 243.657 24.9177C243.529 24.8646 243.411 24.7868 243.313 24.6884C243.214 24.5901 243.135 24.4733 243.082 24.3447C243.028 24.2161 243 24.0781 243 23.9388V8.06375C243 7.92418 243.027 7.78591 243.08 7.65686C243.133 7.52782 243.211 7.41053 243.31 7.31172C243.409 7.21291 243.526 7.13451 243.655 7.08102C243.783 7.02754 243.922 7 244.061 7H267.936C268.076 6.99967 268.214 7.02688 268.343 7.08007C268.472 7.13325 268.589 7.21137 268.688 7.30995C268.787 7.40853 268.865 7.52563 268.919 7.65455C268.972 7.78347 269 7.92168 269 8.06125Z" fill="currentColor"/>
<path d="M267.939 6H244.064C243.517 6 242.992 6.21709 242.605 6.60357C242.218 6.99006 242.001 7.51434 242 8.06125V23.9363C242 24.4832 242.217 25.0077 242.604 25.3947C242.99 25.7816 243.514 25.9993 244.061 26H267.936C268.483 26 269.008 25.7829 269.395 25.3964C269.782 25.0099 269.999 24.4857 270 23.9387V8.06375C270 7.51684 269.783 6.9923 269.396 6.60534C269.01 6.21839 268.486 6.00066 267.939 6ZM268 23.9387C268 23.9468 267.998 23.9548 267.995 23.9622C267.992 23.9696 267.988 23.9764 267.982 23.9821C267.976 23.9877 267.97 23.9923 267.962 23.9953C267.955 23.9984 267.947 24 267.939 24H244.064C244.056 24 244.048 23.9984 244.04 23.9953C244.033 23.9923 244.026 23.9877 244.02 23.9821C244.015 23.9764 244.01 23.9696 244.007 23.9622C244.004 23.9548 244.003 23.9468 244.003 23.9387V8.06375C244.003 8.04751 244.009 8.03193 244.02 8.02044C244.032 8.00895 244.048 8.0025 244.064 8.0025H267.939C267.955 8.0025 267.971 8.00895 267.982 8.02044C267.994 8.03193 268 8.04751 268 8.06375V23.9387ZM266 16C266 16.2652 265.895 16.5196 265.707 16.7071C265.52 16.8946 265.265 17 265 17H247C246.735 17 246.48 16.8946 246.293 16.7071C246.105 16.5196 246 16.2652 246 16C246 15.7348 246.105 15.4804 246.293 15.2929C246.48 15.1054 246.735 15 247 15H265C265.265 15 265.52 15.1054 265.707 15.2929C265.895 15.4804 266 15.7348 266 16ZM266 12C266 12.2652 265.895 12.5196 265.707 12.7071C265.52 12.8946 265.265 13 265 13H247C246.735 13 246.48 12.8946 246.293 12.7071C246.105 12.5196 246 12.2652 246 12C246 11.7348 246.105 11.4804 246.293 11.2929C246.48 11.1054 246.735 11 247 11H265C265.265 11 265.52 11.1054 265.707 11.2929C265.895 11.4804 266 11.7348 266 12ZM249 20C249 20.2652 248.895 20.5196 248.707 20.7071C248.52 20.8946 248.265 21 248 21H247C246.735 21 246.48 20.8946 246.293 20.7071C246.105 20.5196 246 20.2652 246 20C246 19.7348 246.105 19.4804 246.293 19.2929C246.48 19.1054 246.735 19 247 19H248C248.265 19 248.52 19.1054 248.707 19.2929C248.895 19.4804 249 19.7348 249 20ZM261 20C261 20.2652 260.895 20.5196 260.707 20.7071C260.52 20.8946 260.265 21 260 21H252C251.735 21 251.48 20.8946 251.293 20.7071C251.105 20.5196 251 20.2652 251 20C251 19.7348 251.105 19.4804 251.293 19.2929C251.48 19.1054 251.735 19 252 19H260C260.265 19 260.52 19.1054 260.707 19.2929C260.895 19.4804 261 19.7348 261 20ZM266 20C266 20.2652 265.895 20.5196 265.707 20.7071C265.52 20.8946 265.265 21 265 21H264C263.735 21 263.48 20.8946 263.293 20.7071C263.105 20.5196 263 20.2652 263 20C263 19.7348 263.105 19.4804 263.293 19.2929C263.48 19.1054 263.735 19 264 19H265C265.265 19 265.52 19.1054 265.707 19.2929C265.895 19.4804 266 19.7348 266 20Z" fill="currentColor"/>
</g>
<defs>
<clipPath id="clip0_17_11223">
<rect width="272" height="32" rx="5" fill="white"/>
</clipPath>
</defs>
</svg>
