<svg width="272" height="32" viewBox="0 0 272 32" fill="none" xmlns="http://www.w3.org/2000/svg">
<g clip-path="url(#clip0_17_11209)">
<path d="M29 21H28V9C28 8.20435 27.6839 7.44129 27.1213 6.87868C26.5587 6.31607 25.7956 6 25 6H7C6.20435 6 5.44129 6.31607 4.87868 6.87868C4.31607 7.44129 4 8.20435 4 9V21H3C2.73478 21 2.48043 21.1054 2.29289 21.2929C2.10536 21.4804 2 21.7348 2 22V24C2 24.7956 2.31607 25.5587 2.87868 26.1213C3.44129 26.6839 4.20435 27 5 27H27C27.7956 27 28.5587 26.6839 29.1213 26.1213C29.6839 25.5587 30 24.7956 30 24V22C30 21.7348 29.8946 21.4804 29.7071 21.2929C29.5196 21.1054 29.2652 21 29 21ZM6 9C6 8.73478 6.10536 8.48043 6.29289 8.29289C6.48043 8.10536 6.73478 8 7 8H25C25.2652 8 25.5196 8.10536 25.7071 8.29289C25.8946 8.48043 26 8.73478 26 9V21H6V9ZM28 24C28 24.2652 27.8946 24.5196 27.7071 24.7071C27.5196 24.8946 27.2652 25 27 25H5C4.73478 25 4.48043 24.8946 4.29289 24.7071C4.10536 24.5196 4 24.2652 4 24V23H28V24ZM19 11C19 11.2652 18.8946 11.5196 18.7071 11.7071C18.5196 11.8946 18.2652 12 18 12H14C13.7348 12 13.4804 11.8946 13.2929 11.7071C13.1054 11.5196 13 11.2652 13 11C13 10.7348 13.1054 10.4804 13.2929 10.2929C13.4804 10.1054 13.7348 10 14 10H18C18.2652 10 18.5196 10.1054 18.7071 10.2929C18.8946 10.4804 19 10.7348 19 11Z" fill="currentColor"/>
<path d="M77 21.5H75.5V9C75.5 8.33696 75.2366 7.70107 74.7678 7.23223C74.2989 6.76339 73.663 6.5 73 6.5H55C54.337 6.5 53.7011 6.76339 53.2322 7.23223C52.7634 7.70107 52.5 8.33696 52.5 9V21.5H51C50.8674 21.5 50.7402 21.5527 50.6464 21.6464C50.5527 21.7402 50.5 21.8674 50.5 22V24C50.5 24.663 50.7634 25.2989 51.2322 25.7678C51.7011 26.2366 52.337 26.5 53 26.5H75C75.663 26.5 76.2989 26.2366 76.7678 25.7678C77.2366 25.2989 77.5 24.663 77.5 24V22C77.5 21.8674 77.4473 21.7402 77.3536 21.6464C77.2598 21.5527 77.1326 21.5 77 21.5ZM53.5 9C53.5 8.60218 53.658 8.22064 53.9393 7.93934C54.2206 7.65804 54.6022 7.5 55 7.5H73C73.3978 7.5 73.7794 7.65804 74.0607 7.93934C74.342 8.22064 74.5 8.60218 74.5 9V21.5H53.5V9ZM76.5 24C76.5 24.3978 76.342 24.7794 76.0607 25.0607C75.7794 25.342 75.3978 25.5 75 25.5H53C52.6022 25.5 52.2206 25.342 51.9393 25.0607C51.658 24.7794 51.5 24.3978 51.5 24V22.5H76.5V24ZM66.5 11C66.5 11.1326 66.4473 11.2598 66.3536 11.3536C66.2598 11.4473 66.1326 11.5 66 11.5H62C61.8674 11.5 61.7402 11.4473 61.6464 11.3536C61.5527 11.2598 61.5 11.1326 61.5 11C61.5 10.8674 61.5527 10.7402 61.6464 10.6464C61.7402 10.5527 61.8674 10.5 62 10.5H66C66.1326 10.5 66.2598 10.5527 66.3536 10.6464C66.4473 10.7402 66.5 10.8674 66.5 11Z" fill="currentColor"/>
<path d="M125 21.25H123.75V9C123.75 8.27065 123.46 7.57118 122.945 7.05546C122.429 6.53973 121.729 6.25 121 6.25H103C102.271 6.25 101.571 6.53973 101.055 7.05546C100.54 7.57118 100.25 8.27065 100.25 9V21.25H99C98.8011 21.25 98.6103 21.329 98.4697 21.4697C98.329 21.6103 98.25 21.8011 98.25 22V24C98.25 24.7293 98.5397 25.4288 99.0555 25.9445C99.5712 26.4603 100.271 26.75 101 26.75H123C123.729 26.75 124.429 26.4603 124.945 25.9445C125.46 25.4288 125.75 24.7293 125.75 24V22C125.75 21.8011 125.671 21.6103 125.53 21.4697C125.39 21.329 125.199 21.25 125 21.25ZM101.75 9C101.75 8.66848 101.882 8.35054 102.116 8.11612C102.351 7.8817 102.668 7.75 103 7.75H121C121.332 7.75 121.649 7.8817 121.884 8.11612C122.118 8.35054 122.25 8.66848 122.25 9V21.25H101.75V9ZM124.25 24C124.25 24.3315 124.118 24.6495 123.884 24.8839C123.649 25.1183 123.332 25.25 123 25.25H101C100.668 25.25 100.351 25.1183 100.116 24.8839C99.8817 24.6495 99.75 24.3315 99.75 24V22.75H124.25V24ZM114.75 11C114.75 11.1989 114.671 11.3897 114.53 11.5303C114.39 11.671 114.199 11.75 114 11.75H110C109.801 11.75 109.61 11.671 109.47 11.5303C109.329 11.3897 109.25 11.1989 109.25 11C109.25 10.8011 109.329 10.6103 109.47 10.4697C109.61 10.329 109.801 10.25 110 10.25H114C114.199 10.25 114.39 10.329 114.53 10.4697C114.671 10.6103 114.75 10.8011 114.75 11Z" fill="currentColor"/>
<path d="M173 19.5H172.5V9C172.5 8.07174 172.131 7.1815 171.475 6.52513C170.818 5.86875 169.928 5.5 169 5.5H151C150.072 5.5 149.182 5.86875 148.525 6.52513C147.869 7.1815 147.5 8.07174 147.5 9V19.5H147C146.602 19.5 146.221 19.658 145.939 19.9393C145.658 20.2206 145.5 20.6022 145.5 21V24C145.5 24.9283 145.869 25.8185 146.525 26.4749C147.182 27.1313 148.072 27.5 149 27.5H171C171.928 27.5 172.818 27.1313 173.475 26.4749C174.131 25.8185 174.5 24.9283 174.5 24V21C174.5 20.6022 174.342 20.2206 174.061 19.9393C173.779 19.658 173.398 19.5 173 19.5ZM150.5 9C150.5 8.86739 150.553 8.74021 150.646 8.64645C150.74 8.55268 150.867 8.5 151 8.5H169C169.133 8.5 169.26 8.55268 169.354 8.64645C169.447 8.74021 169.5 8.86739 169.5 9V19.5H150.5V9ZM171.5 24C171.5 24.1326 171.447 24.2598 171.354 24.3536C171.26 24.4473 171.133 24.5 171 24.5H149C148.867 24.5 148.74 24.4473 148.646 24.3536C148.553 24.2598 148.5 24.1326 148.5 24V22.5H171.5V24ZM163.5 12C163.5 12.3978 163.342 12.7794 163.061 13.0607C162.779 13.342 162.398 13.5 162 13.5H158C157.602 13.5 157.221 13.342 156.939 13.0607C156.658 12.7794 156.5 12.3978 156.5 12C156.5 11.6022 156.658 11.2206 156.939 10.9393C157.221 10.658 157.602 10.5 158 10.5H162C162.398 10.5 162.779 10.658 163.061 10.9393C163.342 11.2206 163.5 11.6022 163.5 12Z" fill="currentColor"/>
<path d="M221 21H220V9C220 8.20435 219.684 7.44129 219.121 6.87868C218.559 6.31607 217.796 6 217 6H199C198.204 6 197.441 6.31607 196.879 6.87868C196.316 7.44129 196 8.20435 196 9V21H195C194.735 21 194.48 21.1054 194.293 21.2929C194.105 21.4804 194 21.7348 194 22V24C194 24.7956 194.316 25.5587 194.879 26.1213C195.441 26.6839 196.204 27 197 27H219C219.796 27 220.559 26.6839 221.121 26.1213C221.684 25.5587 222 24.7956 222 24V22C222 21.7348 221.895 21.4804 221.707 21.2929C221.52 21.1054 221.265 21 221 21ZM206 9H210C210.265 9 210.52 9.10536 210.707 9.29289C210.895 9.48043 211 9.73478 211 10C211 10.2652 210.895 10.5196 210.707 10.7071C210.52 10.8946 210.265 11 210 11H206C205.735 11 205.48 10.8946 205.293 10.7071C205.105 10.5196 205 10.2652 205 10C205 9.73478 205.105 9.48043 205.293 9.29289C205.48 9.10536 205.735 9 206 9ZM220 24C220 24.2652 219.895 24.5196 219.707 24.7071C219.52 24.8946 219.265 25 219 25H197C196.735 25 196.48 24.8946 196.293 24.7071C196.105 24.5196 196 24.2652 196 24V23H220V24Z" fill="currentColor"/>
<path opacity="0.2" d="M267 9V22H245V9C245 8.46957 245.211 7.96086 245.586 7.58579C245.961 7.21071 246.47 7 247 7H265C265.53 7 266.039 7.21071 266.414 7.58579C266.789 7.96086 267 8.46957 267 9Z" fill="currentColor"/>
<path d="M269 21H268V9C268 8.20435 267.684 7.44129 267.121 6.87868C266.559 6.31607 265.796 6 265 6H247C246.204 6 245.441 6.31607 244.879 6.87868C244.316 7.44129 244 8.20435 244 9V21H243C242.735 21 242.48 21.1054 242.293 21.2929C242.105 21.4804 242 21.7348 242 22V24C242 24.7956 242.316 25.5587 242.879 26.1213C243.441 26.6839 244.204 27 245 27H267C267.796 27 268.559 26.6839 269.121 26.1213C269.684 25.5587 270 24.7956 270 24V22C270 21.7348 269.895 21.4804 269.707 21.2929C269.52 21.1054 269.265 21 269 21ZM246 9C246 8.73478 246.105 8.48043 246.293 8.29289C246.48 8.10536 246.735 8 247 8H265C265.265 8 265.52 8.10536 265.707 8.29289C265.895 8.48043 266 8.73478 266 9V21H246V9ZM268 24C268 24.2652 267.895 24.5196 267.707 24.7071C267.52 24.8946 267.265 25 267 25H245C244.735 25 244.48 24.8946 244.293 24.7071C244.105 24.5196 244 24.2652 244 24V23H268V24ZM259 11C259 11.2652 258.895 11.5196 258.707 11.7071C258.52 11.8946 258.265 12 258 12H254C253.735 12 253.48 11.8946 253.293 11.7071C253.105 11.5196 253 11.2652 253 11C253 10.7348 253.105 10.4804 253.293 10.2929C253.48 10.1054 253.735 10 254 10H258C258.265 10 258.52 10.1054 258.707 10.2929C258.895 10.4804 259 10.7348 259 11Z" fill="currentColor"/>
</g>
<defs>
<clipPath id="clip0_17_11209">
<rect width="272" height="32" rx="5" fill="white"/>
</clipPath>
</defs>
</svg>
