<svg width="272" height="32" viewBox="0 0 272 32" fill="none" xmlns="http://www.w3.org/2000/svg">
<g clip-path="url(#clip0_17_11125)">
<path d="M17.1925 23.2952C17.3799 23.4827 17.4851 23.7369 17.4851 24.0021C17.4851 24.2672 17.3799 24.5214 17.1925 24.7089L15.95 25.9589C14.636 27.2721 12.8542 28.0095 10.9965 28.0089C9.13884 28.0083 7.3575 27.2698 6.04434 25.9558C4.73119 24.6418 3.9938 22.86 3.99439 21.0023C3.99497 19.1447 4.73349 17.3633 6.04747 16.0502L9.06247 13.0352C10.3246 11.7721 12.0217 11.039 13.8065 10.986C15.5913 10.9331 17.3289 11.5641 18.6637 12.7502C18.7622 12.8375 18.8425 12.9434 18.9001 13.0618C18.9577 13.1801 18.9914 13.3087 18.9993 13.4401C19.0072 13.5715 18.9891 13.7031 18.9461 13.8275C18.9031 13.952 18.836 14.0667 18.7487 14.1652C18.6614 14.2637 18.5555 14.344 18.4371 14.4016C18.3188 14.4591 18.1902 14.4928 18.0588 14.5007C17.9274 14.5086 17.7958 14.4906 17.6714 14.4476C17.5469 14.4046 17.4322 14.3375 17.3337 14.2502C16.3804 13.4036 15.1396 12.9531 13.8651 12.991C12.5907 13.0289 11.3789 13.5522 10.4775 14.4539L7.46247 17.4652C6.5246 18.403 5.99771 19.6751 5.99771 21.0014C5.99771 22.3278 6.5246 23.5998 7.46247 24.5377C8.40034 25.4755 9.67237 26.0024 10.9987 26.0024C12.3251 26.0024 13.5971 25.4755 14.535 24.5377L15.7775 23.2952C15.8703 23.2022 15.9806 23.1284 16.102 23.0781C16.2234 23.0278 16.3536 23.0019 16.485 23.0019C16.6164 23.0019 16.7465 23.0278 16.8679 23.0781C16.9893 23.1284 17.0996 23.2022 17.1925 23.2952ZM25.9525 6.04518C24.6383 4.73395 22.8577 3.99756 21.0012 3.99756C19.1448 3.99756 17.3641 4.73395 16.05 6.04518L14.8075 7.28893C14.62 7.47657 14.5147 7.731 14.5149 7.99624C14.515 8.26149 14.6205 8.51583 14.8081 8.7033C14.9957 8.89078 15.2502 8.99603 15.5154 8.99592C15.7807 8.9958 16.035 8.89032 16.2225 8.70268L17.465 7.46018C18.4028 6.52231 19.6749 5.99542 21.0012 5.99542C22.3276 5.99542 23.5996 6.52231 24.5375 7.46018C25.4753 8.39805 26.0022 9.67008 26.0022 10.9964C26.0022 12.3228 25.4753 13.5948 24.5375 14.5327L21.5225 17.5502C20.6206 18.4514 19.4085 18.974 18.134 19.0112C16.8596 19.0484 15.6191 18.5973 14.6662 17.7502C14.5677 17.6628 14.453 17.5958 14.3286 17.5528C14.2042 17.5098 14.0725 17.4917 13.9411 17.4996C13.6758 17.5156 13.4276 17.6363 13.2512 17.8352C13.1639 17.9337 13.0968 18.0484 13.0538 18.1728C13.0108 18.2972 12.9928 18.4289 13.0007 18.5603C13.0166 18.8256 13.1373 19.0738 13.3362 19.2502C14.6707 20.4365 16.4081 21.0681 18.1929 21.0156C19.9778 20.963 21.675 20.2304 22.9375 18.9677L25.9525 15.9527C27.2645 14.6384 28.0013 12.8572 28.0013 11.0002C28.0013 9.14313 27.2645 7.36196 25.9525 6.04768V6.04518Z" fill="currentColor"/>
<path d="M64.8387 23.6486C64.8852 23.695 64.922 23.7501 64.9472 23.8108C64.9724 23.8715 64.9853 23.9366 64.9853 24.0023C64.9853 24.068 64.9724 24.1331 64.9472 24.1938C64.922 24.2545 64.8852 24.3096 64.8387 24.3561L63.5962 25.5986C62.3768 26.8179 60.7231 27.5029 58.9987 27.5029C57.2743 27.5029 55.6205 26.8179 54.4012 25.5986C53.1818 24.3792 52.4968 22.7255 52.4968 21.0011C52.4968 19.2767 53.1818 17.6229 54.4012 16.4036L57.4162 13.3886C58.5884 12.2161 60.1643 11.5359 61.8215 11.4871C63.4788 11.4383 65.092 12.0246 66.3312 13.1261C66.3804 13.1697 66.4206 13.2227 66.4494 13.2819C66.4782 13.341 66.495 13.4053 66.499 13.471C66.5029 13.5367 66.4939 13.6025 66.4724 13.6647C66.4509 13.727 66.4173 13.7843 66.3737 13.8336C66.33 13.8828 66.2771 13.923 66.2179 13.9518C66.1587 13.9805 66.0944 13.9974 66.0287 14.0013C65.963 14.0053 65.8972 13.9963 65.835 13.9748C65.7728 13.9533 65.7154 13.9197 65.6662 13.8761C64.618 12.9444 63.2536 12.4483 61.8519 12.4892C60.4501 12.5301 59.117 13.1049 58.1249 14.0961L55.1087 17.1111C54.077 18.1428 53.4974 19.542 53.4974 21.0011C53.4974 22.4601 54.077 23.8594 55.1087 24.8911C56.1404 25.9228 57.5396 26.5024 58.9987 26.5024C60.4577 26.5024 61.857 25.9228 62.8887 24.8911L64.1312 23.6486C64.1776 23.6021 64.2328 23.5652 64.2935 23.54C64.3542 23.5149 64.4192 23.5019 64.4849 23.5019C64.5506 23.5019 64.6157 23.5149 64.6764 23.54C64.7371 23.5652 64.7922 23.6021 64.8387 23.6486ZM73.5987 6.39856C72.3784 5.18092 70.725 4.49707 69.0012 4.49707C67.2773 4.49707 65.6239 5.18092 64.4037 6.39856L63.1612 7.64106C63.1146 7.68793 63.0776 7.74352 63.0525 7.80466C63.0273 7.86579 63.0145 7.93129 63.0147 7.99739C63.0149 8.06349 63.028 8.12892 63.0535 8.18992C63.079 8.25093 63.1162 8.30632 63.163 8.35294C63.2099 8.39956 63.2655 8.43649 63.3266 8.46163C63.3878 8.48676 63.4533 8.49961 63.5194 8.49943C63.5855 8.49926 63.6509 8.48607 63.7119 8.46061C63.7729 8.43515 63.8283 8.39793 63.8749 8.35106L65.1174 7.10856C66.1491 6.07687 67.5484 5.49727 69.0074 5.49727C70.4665 5.49727 71.8657 6.07687 72.8974 7.10856C73.9291 8.14025 74.5087 9.53953 74.5087 10.9986C74.5087 12.4576 73.9291 13.8569 72.8974 14.8886L69.8749 17.9036C68.883 18.8949 67.55 19.4699 66.1482 19.511C64.7465 19.5522 63.382 19.0563 62.3337 18.1248C62.2844 18.0811 62.2271 18.0476 62.1649 18.0261C62.1026 18.0046 62.0368 17.9956 61.9711 17.9995C61.8384 18.0075 61.7144 18.0679 61.6262 18.1673C61.538 18.2668 61.4929 18.3972 61.5009 18.5299C61.5089 18.6625 61.5692 18.7866 61.6687 18.8748C62.9078 19.9763 64.5211 20.5626 66.1783 20.5138C67.8355 20.465 69.4115 19.7848 70.5837 18.6123L73.5987 15.5973C74.8167 14.377 75.5008 12.7233 75.5008 10.9992C75.5008 9.27505 74.8167 7.62134 73.5987 6.40106V6.39856Z" fill="currentColor"/>
<path d="M113.016 23.4713C113.086 23.5409 113.141 23.6237 113.179 23.7147C113.217 23.8058 113.236 23.9034 113.236 24.0019C113.236 24.1005 113.217 24.1981 113.179 24.2891C113.141 24.3802 113.086 24.4629 113.016 24.5325L111.772 25.775C110.506 27.0411 108.789 27.7524 106.999 27.7524C105.208 27.7524 103.491 27.0411 102.225 25.775C100.959 24.509 100.248 22.7918 100.248 21.0013C100.248 19.2108 100.959 17.4936 102.225 16.2275L105.239 13.2125C106.456 11.9938 108.093 11.2866 109.815 11.2358C111.537 11.1849 113.213 11.7941 114.5 12.9388C114.574 13.0044 114.634 13.084 114.677 13.1729C114.72 13.2619 114.745 13.3584 114.751 13.4571C114.757 13.5558 114.743 13.6546 114.711 13.748C114.679 13.8413 114.628 13.9274 114.562 14.0013C114.497 14.0752 114.417 14.1354 114.328 14.1785C114.239 14.2216 114.143 14.2468 114.044 14.2526C113.945 14.2584 113.847 14.2447 113.753 14.2123C113.66 14.1799 113.574 14.1294 113.5 14.0638C112.499 13.1745 111.196 12.7014 109.857 12.7411C108.519 12.7809 107.246 13.3305 106.3 14.2775L103.285 17.2875C102.3 18.2725 101.747 19.6084 101.747 21.0013C101.747 22.3942 102.3 23.7301 103.285 24.715C104.27 25.7 105.606 26.2533 106.999 26.2533C108.392 26.2533 109.727 25.7 110.712 24.715L111.955 23.4713C112.025 23.4016 112.107 23.3462 112.198 23.3085C112.289 23.2708 112.387 23.2513 112.486 23.2513C112.584 23.2513 112.682 23.2708 112.773 23.3085C112.864 23.3462 112.947 23.4016 113.016 23.4713ZM121.775 6.22129C120.508 4.95678 118.791 4.24658 117.001 4.24658C115.211 4.24658 113.494 4.95678 112.227 6.22129L110.984 7.46379C110.843 7.60452 110.764 7.79539 110.764 7.99441C110.764 8.19344 110.843 8.38431 110.984 8.52504C111.124 8.66577 111.315 8.74483 111.514 8.74483C111.713 8.74483 111.904 8.66577 112.045 8.52504L113.287 7.27504C114.272 6.29009 115.608 5.73675 117.001 5.73675C118.394 5.73675 119.73 6.29009 120.715 7.27504C121.7 8.25999 122.253 9.59586 122.253 10.9888C122.253 12.3817 121.7 13.7176 120.715 14.7025L117.7 17.7263C116.753 18.6734 115.481 19.223 114.142 19.2627C112.804 19.3024 111.501 18.8293 110.5 17.94C110.426 17.8744 110.34 17.8239 110.247 17.7915C110.153 17.7591 110.054 17.7454 109.956 17.7512C109.857 17.757 109.761 17.7822 109.672 17.8253C109.583 17.8685 109.503 17.9287 109.437 18.0025C109.372 18.0764 109.321 18.1625 109.289 18.2559C109.256 18.3492 109.243 18.4481 109.249 18.5467C109.254 18.6454 109.28 18.7419 109.323 18.8309C109.366 18.9198 109.426 18.9994 109.5 19.065C110.787 20.209 112.462 20.8178 114.184 20.7669C115.905 20.716 117.541 20.0093 118.759 18.7913L121.772 15.7763C122.4 15.1496 122.898 14.4052 123.238 13.5859C123.578 12.7665 123.753 11.8882 123.753 11.0012C123.754 10.1141 123.579 9.23572 123.239 8.4162C122.9 7.59667 122.402 6.8521 121.775 6.22504V6.22129Z" fill="currentColor"/>
<path d="M161.046 23.4413C161.186 23.5807 161.297 23.7463 161.373 23.9286C161.448 24.1109 161.487 24.3064 161.487 24.5038C161.487 24.7012 161.448 24.8967 161.373 25.079C161.297 25.2614 161.186 25.4269 161.046 25.5663L160.304 26.3088C158.897 27.7158 156.989 28.5062 154.999 28.5062C153.009 28.5062 151.101 27.7158 149.694 26.3088C148.287 24.9018 147.496 22.9936 147.496 21.0038C147.496 19.014 148.287 17.1058 149.694 15.6988L152.709 12.6851C154.061 11.3299 155.879 10.5428 157.793 10.4852C159.706 10.4276 161.569 11.1037 163 12.3751C163.148 12.5064 163.268 12.6655 163.354 12.8434C163.441 13.0212 163.491 13.2143 163.503 13.4117C163.514 13.609 163.487 13.8067 163.422 13.9934C163.357 14.1802 163.256 14.3523 163.125 14.5001C162.994 14.6478 162.835 14.7682 162.657 14.8545C162.479 14.9407 162.286 14.991 162.088 15.0027C161.891 15.0143 161.693 14.9869 161.507 14.9221C161.32 14.8573 161.148 14.7564 161 14.6251C160.142 13.863 159.025 13.4575 157.878 13.4917C156.731 13.5258 155.64 13.997 154.829 14.8088L151.816 17.8188C150.972 18.6629 150.498 19.8076 150.498 21.0013C150.498 22.195 150.972 23.3398 151.816 24.1838C152.66 25.0279 153.805 25.502 154.999 25.502C156.192 25.502 157.337 25.0279 158.181 24.1838L158.924 23.4413C159.063 23.3018 159.228 23.1912 159.411 23.1157C159.593 23.0402 159.788 23.0014 159.985 23.0014C160.182 23.0014 160.377 23.0402 160.559 23.1157C160.741 23.1912 160.907 23.3018 161.046 23.4413ZM170.306 5.6913C168.898 4.28649 166.99 3.49756 165.001 3.49756C163.012 3.49756 161.104 4.28649 159.696 5.6913L158.954 6.4338C158.672 6.7156 158.514 7.09779 158.514 7.4963C158.514 7.89482 158.672 8.27701 158.954 8.5588C159.236 8.8406 159.618 8.99891 160.016 8.99891C160.415 8.99891 160.797 8.8406 161.079 8.5588L161.821 7.8163C162.665 6.97225 163.81 6.49807 165.004 6.49807C166.197 6.49807 167.342 6.97225 168.186 7.8163C169.03 8.66036 169.504 9.80513 169.504 10.9988C169.504 12.1925 169.03 13.3373 168.186 14.1813L165.172 17.1963C164.361 18.0078 163.269 18.4782 162.122 18.5115C160.974 18.5447 159.858 18.1382 159 17.3751C158.852 17.2437 158.68 17.1428 158.493 17.078C158.307 17.0132 158.109 16.9858 157.912 16.9975C157.714 17.0091 157.521 17.0594 157.343 17.1457C157.165 17.2319 157.006 17.3523 156.875 17.5001C156.744 17.6478 156.643 17.8199 156.578 18.0067C156.513 18.1934 156.486 18.3911 156.497 18.5884C156.509 18.7858 156.559 18.9789 156.646 19.1567C156.732 19.3346 156.852 19.4937 157 19.6251C158.43 20.8961 160.292 21.5727 162.204 21.5162C164.116 21.4597 165.935 20.6745 167.287 19.3213L170.302 16.3076C171.709 14.8998 172.499 12.9914 172.5 11.0015C172.501 9.01149 171.712 7.10258 170.306 5.6938V5.6913Z" fill="currentColor"/>
<path d="M218 4H198C197.47 4 196.961 4.21071 196.586 4.58579C196.211 4.96086 196 5.46957 196 6V26C196 26.5304 196.211 27.0391 196.586 27.4142C196.961 27.7893 197.47 28 198 28H218C218.53 28 219.039 27.7893 219.414 27.4142C219.789 27.0391 220 26.5304 220 26V6C220 5.46957 219.789 4.96086 219.414 4.58579C219.039 4.21071 218.53 4 218 4ZM208.071 23.7075L207.389 24.3888C206.353 25.3978 204.961 25.9582 203.515 25.9487C202.069 25.9391 200.685 25.3604 199.662 24.3379C198.64 23.3153 198.061 21.9311 198.051 20.485C198.042 19.0389 198.602 17.6472 199.611 16.6112L202.611 13.6112C203.512 12.713 204.696 12.154 205.961 12.0291C207.227 11.9042 208.497 12.2212 209.556 12.9263C209.777 13.0738 209.93 13.3028 209.981 13.563C210.033 13.8233 209.979 14.0933 209.831 14.3138C209.684 14.5342 209.455 14.687 209.194 14.7386C208.934 14.7902 208.664 14.7363 208.444 14.5887C207.77 14.1392 206.962 13.9369 206.156 14.0165C205.351 14.096 204.597 14.4524 204.025 15.025L201.025 18.025C200.369 18.6814 200 19.5717 200 20.5C200 21.4283 200.369 22.3186 201.025 22.975C201.681 23.6314 202.572 24.0002 203.5 24.0002C204.428 24.0002 205.319 23.6314 205.975 22.975L206.656 22.2925C206.844 22.1049 207.098 21.9994 207.364 21.9994C207.629 21.9994 207.884 22.1049 208.071 22.2925C208.259 22.4801 208.364 22.7346 208.364 23C208.364 23.2654 208.259 23.5199 208.071 23.7075ZM216.389 15.3888L213.389 18.3888C212.488 19.287 211.304 19.846 210.039 19.9709C208.773 20.0958 207.503 19.7788 206.444 19.0737C206.223 18.9262 206.07 18.6972 206.019 18.437C205.967 18.1767 206.021 17.9067 206.169 17.6863C206.316 17.4658 206.545 17.313 206.806 17.2614C207.066 17.2098 207.336 17.2637 207.556 17.4112C208.23 17.8594 209.038 18.0609 209.843 17.9813C210.649 17.9018 211.402 17.5463 211.975 16.975L214.975 13.975C215.631 13.3186 216 12.4283 216 11.5C216 10.5717 215.631 9.68141 214.975 9.025C214.319 8.36859 213.428 7.99982 212.5 7.99982C211.572 7.99982 210.681 8.36859 210.025 9.025L209.344 9.7075C209.156 9.89514 208.902 10.0006 208.636 10.0006C208.371 10.0006 208.116 9.89514 207.929 9.7075C207.741 9.51986 207.636 9.26536 207.636 9C207.636 8.73464 207.741 8.48014 207.929 8.2925L208.611 7.61125C209.647 6.60223 211.039 6.04182 212.485 6.05134C213.931 6.06086 215.315 6.63955 216.338 7.66213C217.36 8.68471 217.939 10.0689 217.949 11.515C217.958 12.9611 217.398 14.3528 216.389 15.3888Z" fill="currentColor"/>
<path opacity="0.2" d="M266.243 14.2426L262.743 17.7426C261.845 18.6429 260.684 19.2332 259.428 19.4276C259.233 20.6838 258.643 21.8452 257.743 22.7426L254.243 26.2426C253.114 27.3527 251.593 27.972 250.01 27.9655C248.427 27.9591 246.911 27.3274 245.792 26.2082C244.673 25.089 244.041 23.5728 244.035 21.99C244.028 20.4072 244.648 18.8859 245.758 17.7576L249.258 14.2576C250.155 13.3574 251.316 12.767 252.573 12.5726C252.767 11.3164 253.357 10.155 254.258 9.25762L257.758 5.75762C258.886 4.64754 260.407 4.02827 261.99 4.03472C263.573 4.04116 265.089 4.67279 266.208 5.79203C267.327 6.91126 267.959 8.42742 267.966 10.0102C267.972 11.5931 267.353 13.1143 266.243 14.2426Z" fill="currentColor"/>
<path d="M257.192 23.2952C257.38 23.4827 257.485 23.7369 257.485 24.0021C257.485 24.2672 257.38 24.5214 257.192 24.7089L254.95 26.9589C253.636 28.2721 251.854 29.0095 249.997 29.0089C248.139 29.0083 246.357 28.2698 245.044 26.9558C243.731 25.6418 242.994 23.86 242.994 22.0023C242.995 20.1447 243.733 18.3633 245.047 17.0502L248.562 13.5364C249.824 12.2731 251.521 11.5399 253.306 11.4866C255.091 11.4334 256.829 12.0643 258.164 13.2502C258.363 13.4265 258.483 13.6747 258.499 13.9401C258.515 14.2054 258.425 14.4663 258.249 14.6652C258.072 14.8641 257.824 14.9848 257.559 15.0007C257.293 15.0167 257.033 14.9265 256.834 14.7502C255.88 13.9036 254.64 13.4531 253.365 13.491C252.091 13.5289 250.879 14.0522 249.977 14.9539L246.462 18.4652C245.525 19.403 244.998 20.6751 244.998 22.0014C244.998 23.3278 245.525 24.5998 246.462 25.5377C247.4 26.4755 248.672 27.0024 249.999 27.0024C251.325 27.0024 252.597 26.4755 253.535 25.5377L255.777 23.2952C255.87 23.2022 255.981 23.1284 256.102 23.0781C256.223 23.0278 256.354 23.0019 256.485 23.0019C256.616 23.0019 256.747 23.0278 256.868 23.0781C256.989 23.1284 257.1 23.2022 257.192 23.2952ZM266.952 5.04518C265.638 3.73395 263.858 2.99756 262.001 2.99756C260.145 2.99756 258.364 3.73395 257.05 5.04518L254.807 7.29143C254.62 7.47907 254.515 7.7335 254.515 7.99874C254.515 8.26399 254.62 8.51833 254.808 8.7058C254.996 8.89328 255.25 8.99853 255.515 8.99842C255.781 8.9983 256.035 8.89282 256.222 8.70518L258.465 6.46268C259.403 5.52481 260.675 4.99792 262.001 4.99792C263.328 4.99792 264.6 5.52481 265.537 6.46268C266.475 7.40055 267.002 8.67258 267.002 9.99893C267.002 11.3253 266.475 12.5973 265.537 13.5352L262.022 17.0502C261.121 17.9514 259.908 18.474 258.634 18.5112C257.36 18.5484 256.119 18.0973 255.166 17.2502C255.068 17.1628 254.953 17.0958 254.829 17.0528C254.704 17.0098 254.573 16.9917 254.441 16.9996C254.31 17.0075 254.181 17.0412 254.063 17.0988C253.944 17.1564 253.839 17.2367 253.751 17.3352C253.664 17.4337 253.597 17.5484 253.554 17.6728C253.511 17.7972 253.493 17.9289 253.501 18.0603C253.509 18.1917 253.542 18.3202 253.6 18.4386C253.657 18.557 253.738 18.6628 253.836 18.7502C255.171 19.9364 256.908 20.5677 258.693 20.5149C260.478 20.4622 262.175 19.7294 263.437 18.4664L266.952 14.9527C268.264 13.6384 269.001 11.8572 269.001 10.0002C269.001 8.14313 268.264 6.36196 266.952 5.04768V5.04518Z" fill="currentColor"/>
</g>
<defs>
<clipPath id="clip0_17_11125">
<rect width="272" height="32" rx="5" fill="white"/>
</clipPath>
</defs>
</svg>
