<svg width="272" height="32" viewBox="0 0 272 32" fill="none" xmlns="http://www.w3.org/2000/svg">
<g clip-path="url(#clip0_17_11111)">
<path d="M23.8288 8.17125C23.0799 7.42258 22.0648 7.00138 21.0059 6.99997C19.947 6.99857 18.9308 7.41707 18.18 8.16375L16.7237 9.69C16.5375 9.86408 16.2918 9.96045 16.0369 9.95942C15.7819 9.95839 15.537 9.86003 15.3522 9.68446C15.1674 9.50888 15.0566 9.26934 15.0425 9.0148C15.0283 8.76026 15.112 8.50994 15.2762 8.315L16.7412 6.77875C16.7463 6.77302 16.7518 6.7676 16.7575 6.7625C17.8858 5.65242 19.4071 5.03316 20.9899 5.0396C22.5727 5.04605 24.0889 5.67768 25.2081 6.79691C26.3273 7.91614 26.959 9.4323 26.9654 11.0151C26.9718 12.5979 26.3526 14.1192 25.2425 15.2475C25.2374 15.2532 25.232 15.2587 25.2262 15.2638L23.69 16.7288C23.4951 16.893 23.2447 16.9767 22.9902 16.9625C22.7357 16.9484 22.4961 16.8376 22.3205 16.6528C22.145 16.468 22.0466 16.2231 22.0456 15.9681C22.0446 15.7132 22.1409 15.4675 22.315 15.2812L23.8412 13.825C24.5888 13.0733 25.0074 12.0556 25.005 10.9955C25.0027 9.93543 24.5796 8.91961 23.8288 8.17125ZM15.2762 22.31L13.82 23.8363C13.0662 24.5683 12.0547 24.9744 11.004 24.9667C9.95327 24.959 8.94777 24.5382 8.20479 23.7952C7.4618 23.0522 7.041 22.0467 7.03332 20.996C7.02564 19.9453 7.4317 18.9338 8.16375 18.18L9.69 16.7237C9.86408 16.5375 9.96045 16.2918 9.95942 16.0369C9.95839 15.7819 9.86003 15.537 9.68446 15.3522C9.50888 15.1674 9.26934 15.0566 9.0148 15.0425C8.76026 15.0283 8.50994 15.112 8.315 15.2762L6.77375 16.7412C6.76802 16.7463 6.7626 16.7518 6.7575 16.7575C5.64742 17.8858 5.02816 19.4071 5.0346 20.9899C5.04105 22.5727 5.67268 24.0889 6.79191 25.2081C7.91114 26.3273 9.4273 26.959 11.0101 26.9654C12.5929 26.9718 14.1142 26.3526 15.2425 25.2425C15.2482 25.2374 15.2537 25.232 15.2587 25.2262L16.7237 23.69C16.8233 23.5969 16.9029 23.4844 16.9574 23.3595C17.0119 23.2346 17.0404 23.0998 17.0409 22.9635C17.0415 22.8271 17.0141 22.6921 16.9606 22.5668C16.9071 22.4414 16.8285 22.3283 16.7296 22.2344C16.6308 22.1405 16.5138 22.0678 16.3858 22.0208C16.2579 21.9738 16.1217 21.9534 15.9855 21.961C15.8494 21.9685 15.7163 22.0038 15.5943 22.0647C15.4723 22.1256 15.3641 22.2108 15.2762 22.315V22.31ZM26 19H23C22.7348 19 22.4804 19.1054 22.2929 19.2929C22.1054 19.4804 22 19.7348 22 20C22 20.2652 22.1054 20.5196 22.2929 20.7071C22.4804 20.8946 22.7348 21 23 21H26C26.2652 21 26.5196 20.8946 26.7071 20.7071C26.8946 20.5196 27 20.2652 27 20C27 19.7348 26.8946 19.4804 26.7071 19.2929C26.5196 19.1054 26.2652 19 26 19ZM6 13H9C9.26522 13 9.51957 12.8946 9.70711 12.7071C9.89464 12.5196 10 12.2652 10 12C10 11.7348 9.89464 11.4804 9.70711 11.2929C9.51957 11.1054 9.26522 11 9 11H6C5.73478 11 5.48043 11.1054 5.29289 11.2929C5.10536 11.4804 5 11.7348 5 12C5 12.2652 5.10536 12.5196 5.29289 12.7071C5.48043 12.8946 5.73478 13 6 13ZM20 22C19.7348 22 19.4804 22.1054 19.2929 22.2929C19.1054 22.4804 19 22.7348 19 23V26C19 26.2652 19.1054 26.5196 19.2929 26.7071C19.4804 26.8946 19.7348 27 20 27C20.2652 27 20.5196 26.8946 20.7071 26.7071C20.8946 26.5196 21 26.2652 21 26V23C21 22.7348 20.8946 22.4804 20.7071 22.2929C20.5196 22.1054 20.2652 22 20 22ZM12 10C12.2652 10 12.5196 9.89464 12.7071 9.70711C12.8946 9.51957 13 9.26522 13 9V6C13 5.73478 12.8946 5.48043 12.7071 5.29289C12.5196 5.10536 12.2652 5 12 5C11.7348 5 11.4804 5.10536 11.2929 5.29289C11.1054 5.48043 11 5.73478 11 6V9C11 9.26522 11.1054 9.51957 11.2929 9.70711C11.4804 9.89464 11.7348 10 12 10Z" fill="currentColor"/>
<path d="M72.1825 7.81771C71.3376 6.97531 70.1931 6.50227 69 6.50227C67.8069 6.50227 66.6624 6.97531 65.8175 7.81771L64.3612 9.34521C64.2683 9.43443 64.1445 9.48432 64.0156 9.48448C63.8868 9.48463 63.7629 9.43505 63.6697 9.34607C63.5765 9.25708 63.5213 9.13557 63.5155 9.00685C63.5097 8.87814 63.5539 8.75217 63.6387 8.65521L65.1025 7.12521C65.6101 6.60291 66.2164 6.18663 66.8862 5.90055C67.556 5.61446 68.276 5.46426 69.0043 5.45866C69.7326 5.45306 70.4548 5.59218 71.1289 5.86794C71.8031 6.14369 72.4157 6.5506 72.9313 7.06504C73.4469 7.57947 73.8552 8.19119 74.1324 8.8647C74.4097 9.5382 74.5505 10.2601 74.5465 10.9884C74.5425 11.7167 74.394 12.437 74.1094 13.1075C73.8248 13.7779 73.4099 14.3852 72.8887 14.894L71.345 16.3665C71.2982 16.4152 71.2421 16.4539 71.18 16.4803C71.1179 16.5067 71.0511 16.5203 70.9836 16.5202C70.9161 16.5202 70.8494 16.5064 70.7873 16.4798C70.7253 16.4532 70.6693 16.4144 70.6227 16.3656C70.576 16.3168 70.5398 16.259 70.5161 16.1958C70.4924 16.1326 70.4817 16.0653 70.4847 15.9979C70.4878 15.9304 70.5044 15.8643 70.5337 15.8035C70.5629 15.7427 70.6042 15.6884 70.655 15.644L72.19 14.179C73.0321 13.3342 73.5043 12.1896 73.5029 10.9968C73.5015 9.80397 73.0266 8.66052 72.1825 7.81771ZM63.6387 22.6552L62.1825 24.1827C61.3396 25.0281 60.1954 25.504 59.0016 25.5058C57.8078 25.5075 56.6622 25.035 55.8169 24.1921C54.9715 23.3492 54.4956 22.205 54.4938 21.0112C54.492 19.8174 54.9646 18.6718 55.8075 17.8265L57.3425 16.3615C57.4317 16.2685 57.4816 16.1447 57.4817 16.0159C57.4819 15.887 57.4323 15.7631 57.3433 15.6699C57.2544 15.5767 57.1328 15.5215 57.0041 15.5157C56.8754 15.51 56.7494 15.5541 56.6525 15.639L55.1112 17.1115C54.5773 17.6172 54.1502 18.225 53.8552 18.8987C53.5603 19.5725 53.4034 20.2985 53.394 21.0339C53.3846 21.7694 53.5227 22.4992 53.8003 23.1803C54.0779 23.8614 54.4893 24.4799 55.0101 24.9992C55.5309 25.5185 56.1506 25.9281 56.8325 26.2037C57.5144 26.4793 58.2446 26.6153 58.98 26.6038C59.7154 26.5922 60.441 26.4333 61.1139 26.1364C61.7867 25.8395 62.3932 25.4106 62.8975 24.8752L64.3612 23.3402C64.4099 23.2935 64.4487 23.2374 64.4751 23.1753C64.5015 23.1132 64.5151 23.0463 64.515 22.9789C64.5149 22.9114 64.5012 22.8446 64.4746 22.7825C64.448 22.7205 64.4091 22.6645 64.3603 22.6179C64.3115 22.5713 64.2538 22.535 64.1906 22.5113C64.1274 22.4876 64.0601 22.477 63.9926 22.48C63.9252 22.483 63.8591 22.4996 63.7983 22.5289C63.7374 22.5581 63.6832 22.5994 63.6387 22.6502V22.6552ZM74 19.5002H71C70.8674 19.5002 70.7402 19.5529 70.6464 19.6467C70.5527 19.7404 70.5 19.8676 70.5 20.0002C70.5 20.1328 70.5527 20.26 70.6464 20.3538C70.7402 20.4475 70.8674 20.5002 71 20.5002H74C74.1326 20.5002 74.2598 20.4475 74.3535 20.3538C74.4473 20.26 74.5 20.1328 74.5 20.0002C74.5 19.8676 74.4473 19.7404 74.3535 19.6467C74.2598 19.5529 74.1326 19.5002 74 19.5002ZM54 12.5002H57C57.1326 12.5002 57.2598 12.4475 57.3535 12.3538C57.4473 12.26 57.5 12.1328 57.5 12.0002C57.5 11.8676 57.4473 11.7404 57.3535 11.6467C57.2598 11.5529 57.1326 11.5002 57 11.5002H54C53.8674 11.5002 53.7402 11.5529 53.6464 11.6467C53.5527 11.7404 53.5 11.8676 53.5 12.0002C53.5 12.1328 53.5527 12.26 53.6464 12.3538C53.7402 12.4475 53.8674 12.5002 54 12.5002ZM68 22.5002C67.8674 22.5002 67.7402 22.5529 67.6464 22.6467C67.5527 22.7404 67.5 22.8676 67.5 23.0002V26.0002C67.5 26.1328 67.5527 26.26 67.6464 26.3538C67.7402 26.4475 67.8674 26.5002 68 26.5002C68.1326 26.5002 68.2598 26.4475 68.3535 26.3538C68.4473 26.26 68.5 26.1328 68.5 26.0002V23.0002C68.5 22.8676 68.4473 22.7404 68.3535 22.6467C68.2598 22.5529 68.1326 22.5002 68 22.5002ZM60 9.50021C60.1326 9.50021 60.2598 9.44753 60.3535 9.35376C60.4473 9.26 60.5 9.13282 60.5 9.00021V6.00021C60.5 5.8676 60.4473 5.74043 60.3535 5.64666C60.2598 5.55289 60.1326 5.50021 60 5.50021C59.8674 5.50021 59.7402 5.55289 59.6464 5.64666C59.5527 5.74043 59.5 5.8676 59.5 6.00021V9.00021C59.5 9.13282 59.5527 9.26 59.6464 9.35376C59.7402 9.44753 59.8674 9.50021 60 9.50021Z" fill="currentColor"/>
<path d="M120 8.00006C119.204 7.20538 118.126 6.7585 117.001 6.75733C115.877 6.75616 114.797 7.20079 114 7.99381L112.543 9.51756C112.475 9.59181 112.394 9.65186 112.303 9.69415C112.212 9.73644 112.114 9.76012 112.014 9.7638C111.914 9.76747 111.814 9.75107 111.72 9.71555C111.627 9.68003 111.541 9.62611 111.469 9.55699C111.396 9.48786 111.338 9.40492 111.299 9.31306C111.259 9.2212 111.238 9.12229 111.237 9.02214C111.235 8.922 111.254 8.82266 111.292 8.72999C111.33 8.63732 111.387 8.55318 111.458 8.48256L112.921 6.94756L112.934 6.93381C114.012 5.85537 115.475 5.24951 117 5.24951C118.525 5.24951 119.988 5.85537 121.066 6.93381C122.145 8.01224 122.751 9.47492 122.751 11.0001C122.751 12.5252 122.145 13.9879 121.066 15.0663L121.053 15.0788L119.518 16.5426C119.373 16.6737 119.182 16.7431 118.987 16.736C118.791 16.7288 118.607 16.6456 118.472 16.5041C118.337 16.3627 118.262 16.1741 118.264 15.9786C118.266 15.7831 118.345 15.5962 118.483 15.4576L120.011 14.0001C120.804 13.202 121.247 12.1224 121.245 10.9977C121.243 9.87311 120.795 8.79517 120 8.00006ZM111.453 22.4876L110 24.0113C109.203 24.8084 108.122 25.2563 106.994 25.2563C105.867 25.2563 104.786 24.8084 103.989 24.0113C103.192 23.2142 102.744 22.133 102.744 21.0057C102.744 19.8784 103.192 18.7972 103.989 18.0001L105.518 16.5413C105.592 16.4741 105.652 16.3927 105.694 16.3019C105.736 16.2112 105.76 16.1128 105.764 16.0127C105.767 15.9127 105.751 15.8129 105.716 15.7192C105.68 15.6256 105.626 15.54 105.557 15.4675C105.488 15.3951 105.405 15.3372 105.313 15.2973C105.221 15.2574 105.122 15.2363 105.022 15.2353C104.922 15.2342 104.823 15.2532 104.73 15.2912C104.637 15.3292 104.553 15.3853 104.483 15.4563L102.948 16.9213L102.934 16.9338C101.855 18.0122 101.25 19.4749 101.25 21.0001C101.25 22.5252 101.855 23.9879 102.934 25.0663C104.012 26.1447 105.475 26.7506 107 26.7506C108.525 26.7506 109.988 26.1447 111.066 25.0663L111.079 25.0526L112.543 23.5176C112.614 23.4469 112.67 23.3628 112.708 23.2701C112.746 23.1775 112.765 23.0781 112.764 22.978C112.763 22.8778 112.741 22.7789 112.702 22.6871C112.662 22.5952 112.604 22.5123 112.531 22.4431C112.459 22.374 112.373 22.3201 112.28 22.2846C112.186 22.2491 112.086 22.2326 111.986 22.2363C111.886 22.24 111.788 22.2637 111.697 22.306C111.606 22.3483 111.525 22.4083 111.458 22.4826L111.453 22.4876ZM122 19.2501H119C118.801 19.2501 118.61 19.3291 118.47 19.4697C118.329 19.6104 118.25 19.8011 118.25 20.0001C118.25 20.199 118.329 20.3897 118.47 20.5304C118.61 20.671 118.801 20.7501 119 20.7501H122C122.199 20.7501 122.39 20.671 122.53 20.5304C122.671 20.3897 122.75 20.199 122.75 20.0001C122.75 19.8011 122.671 19.6104 122.53 19.4697C122.39 19.3291 122.199 19.2501 122 19.2501ZM102 12.7501H105C105.199 12.7501 105.39 12.671 105.53 12.5304C105.671 12.3897 105.75 12.199 105.75 12.0001C105.75 11.8011 105.671 11.6104 105.53 11.4697C105.39 11.3291 105.199 11.2501 105 11.2501H102C101.801 11.2501 101.61 11.3291 101.47 11.4697C101.329 11.6104 101.25 11.8011 101.25 12.0001C101.25 12.199 101.329 12.3897 101.47 12.5304C101.61 12.671 101.801 12.7501 102 12.7501ZM116 22.2501C115.801 22.2501 115.61 22.3291 115.47 22.4697C115.329 22.6104 115.25 22.8011 115.25 23.0001V26.0001C115.25 26.199 115.329 26.3897 115.47 26.5304C115.61 26.671 115.801 26.7501 116 26.7501C116.199 26.7501 116.39 26.671 116.53 26.5304C116.671 26.3897 116.75 26.199 116.75 26.0001V23.0001C116.75 22.8011 116.671 22.6104 116.53 22.4697C116.39 22.3291 116.199 22.2501 116 22.2501ZM108 9.75006C108.199 9.75006 108.39 9.67104 108.53 9.53039C108.671 9.38974 108.75 9.19897 108.75 9.00006V6.00006C108.75 5.80115 108.671 5.61038 108.53 5.46973C108.39 5.32908 108.199 5.25006 108 5.25006C107.801 5.25006 107.61 5.32908 107.47 5.46973C107.329 5.61038 107.25 5.80115 107.25 6.00006V9.00006C107.25 9.19897 107.329 9.38974 107.47 9.53039C107.61 9.67104 107.801 9.75006 108 9.75006Z" fill="currentColor"/>
<path d="M162.56 8.49133L162.134 8.98258C162.005 9.13147 161.848 9.25348 161.672 9.34166C161.495 9.42984 161.304 9.48245 161.107 9.49649C160.911 9.51054 160.713 9.48574 160.526 9.42351C160.339 9.36129 160.166 9.26285 160.018 9.13383C159.869 9.00481 159.747 8.84772 159.658 8.67154C159.57 8.49536 159.518 8.30354 159.504 8.10703C159.475 7.71016 159.606 7.31827 159.866 7.01758L160.331 6.48133C160.355 6.45508 160.379 6.42883 160.404 6.40383C161.623 5.18483 163.276 4.5 165 4.5C165.854 4.5 166.699 4.66813 167.488 4.99479C168.276 5.32145 168.993 5.80024 169.596 6.40383C170.2 7.00742 170.679 7.72398 171.005 8.51261C171.332 9.30123 171.5 10.1465 171.5 11.0001C171.5 11.8537 171.332 12.6989 171.005 13.4876C170.679 14.2762 170.2 14.9927 169.596 15.5963C169.571 15.6213 169.545 15.6451 169.519 15.6688L168.983 16.1338C168.834 16.2629 168.661 16.3613 168.474 16.4235C168.287 16.4857 168.09 16.5105 167.893 16.4965C167.697 16.4824 167.505 16.4298 167.329 16.3417C167.152 16.2535 166.995 16.1315 166.866 15.9826C166.737 15.8337 166.639 15.6609 166.577 15.4739C166.514 15.287 166.49 15.0896 166.504 14.8931C166.518 14.6966 166.57 14.5048 166.659 14.3286C166.747 14.1524 166.869 13.9954 167.018 13.8663L167.509 13.4401C168.143 12.7794 168.494 11.8963 168.485 10.9803C168.475 10.0642 168.107 9.18829 167.46 8.54051C166.812 7.89274 165.936 7.52476 165.02 7.51556C164.104 7.50637 163.221 7.85669 162.56 8.49133ZM159.983 22.8663C159.834 22.7373 159.661 22.6388 159.474 22.5766C159.287 22.5143 159.09 22.4895 158.893 22.5036C158.697 22.5176 158.505 22.5702 158.329 22.6584C158.152 22.7466 157.995 22.8687 157.866 23.0176L157.44 23.5088C156.779 24.1435 155.896 24.4938 154.98 24.4846C154.064 24.4754 153.188 24.1074 152.541 23.4596C151.893 22.8119 151.525 21.9359 151.516 21.0199C151.506 20.1039 151.857 19.2207 152.491 18.5601L152.983 18.1338C153.283 17.8733 153.468 17.5039 153.496 17.107C153.525 16.7102 153.394 16.3183 153.134 16.0176C152.873 15.7169 152.504 15.532 152.107 15.5037C151.71 15.4753 151.318 15.6058 151.018 15.8663L150.481 16.3313C150.455 16.3551 150.429 16.3788 150.404 16.4038C149.185 17.6228 148.5 19.2762 148.5 21.0001C148.5 22.724 149.185 24.3773 150.404 25.5963C151.623 26.8153 153.276 27.5002 155 27.5002C156.724 27.5002 158.377 26.8153 159.596 25.5963C159.621 25.5713 159.645 25.5451 159.669 25.5188L160.134 24.9826C160.263 24.8337 160.361 24.6609 160.424 24.4739C160.486 24.287 160.511 24.0896 160.497 23.8931C160.483 23.6966 160.43 23.5048 160.342 23.3286C160.254 23.1524 160.131 22.9953 159.983 22.8663ZM170 18.5001H167.5C167.102 18.5001 166.721 18.6581 166.439 18.9394C166.158 19.2207 166 19.6023 166 20.0001C166 20.3979 166.158 20.7794 166.439 21.0607C166.721 21.342 167.102 21.5001 167.5 21.5001H170C170.398 21.5001 170.779 21.342 171.061 21.0607C171.342 20.7794 171.5 20.3979 171.5 20.0001C171.5 19.6023 171.342 19.2207 171.061 18.9394C170.779 18.6581 170.398 18.5001 170 18.5001ZM150 13.5001H152.5C152.898 13.5001 153.279 13.342 153.561 13.0607C153.842 12.7794 154 12.3979 154 12.0001C154 11.6023 153.842 11.2207 153.561 10.9394C153.279 10.6581 152.898 10.5001 152.5 10.5001H150C149.602 10.5001 149.221 10.6581 148.939 10.9394C148.658 11.2207 148.5 11.6023 148.5 12.0001C148.5 12.3979 148.658 12.7794 148.939 13.0607C149.221 13.342 149.602 13.5001 150 13.5001ZM164 22.0001C163.602 22.0001 163.221 22.1581 162.939 22.4394C162.658 22.7207 162.5 23.1023 162.5 23.5001V26.0001C162.5 26.3979 162.658 26.7794 162.939 27.0607C163.221 27.342 163.602 27.5001 164 27.5001C164.398 27.5001 164.779 27.342 165.061 27.0607C165.342 26.7794 165.5 26.3979 165.5 26.0001V23.5001C165.5 23.1023 165.342 22.7207 165.061 22.4394C164.779 22.1581 164.398 22.0001 164 22.0001ZM156 10.0001C156.398 10.0001 156.779 9.84204 157.061 9.56074C157.342 9.27944 157.5 8.8979 157.5 8.50008V6.00008C157.5 5.60225 157.342 5.22072 157.061 4.93942C156.779 4.65811 156.398 4.50008 156 4.50008C155.602 4.50008 155.221 4.65811 154.939 4.93942C154.658 5.22072 154.5 5.60225 154.5 6.00008V8.50008C154.5 8.8979 154.658 9.27944 154.939 9.56074C155.221 9.84204 155.602 10.0001 156 10.0001Z" fill="currentColor"/>
<path d="M218 4H198C197.47 4 196.961 4.21071 196.586 4.58579C196.211 4.96086 196 5.46957 196 6V26C196 26.5304 196.211 27.0391 196.586 27.4142C196.961 27.7893 197.47 28 198 28H218C218.53 28 219.039 27.7893 219.414 27.4142C219.789 27.0391 220 26.5304 220 26V6C220 5.46957 219.789 4.96086 219.414 4.58579C219.039 4.21071 218.53 4 218 4ZM204 8C204 7.73478 204.105 7.48043 204.293 7.29289C204.48 7.10536 204.735 7 205 7C205.265 7 205.52 7.10536 205.707 7.29289C205.895 7.48043 206 7.73478 206 8V10C206 10.2652 205.895 10.5196 205.707 10.7071C205.52 10.8946 205.265 11 205 11C204.735 11 204.48 10.8946 204.293 10.7071C204.105 10.5196 204 10.2652 204 10V8ZM200 12H202C202.265 12 202.52 12.1054 202.707 12.2929C202.895 12.4804 203 12.7348 203 13C203 13.2652 202.895 13.5196 202.707 13.7071C202.52 13.8946 202.265 14 202 14H200C199.735 14 199.48 13.8946 199.293 13.7071C199.105 13.5196 199 13.2652 199 13C199 12.7348 199.105 12.4804 199.293 12.2929C199.48 12.1054 199.735 12 200 12ZM208.01 22.7075L207.109 23.6087C206.668 24.0513 206.144 24.4026 205.568 24.6426C204.991 24.8825 204.373 25.0063 203.748 25.007C203.123 25.0076 202.505 24.8851 201.928 24.6463C201.35 24.4076 200.826 24.0574 200.384 23.6157C199.943 23.1741 199.592 22.6496 199.354 22.0724C199.115 21.4952 198.992 20.8766 198.993 20.252C198.994 19.6274 199.118 19.0091 199.357 18.4324C199.597 17.8557 199.949 17.332 200.391 16.8913L201.292 15.99C201.48 15.8024 201.734 15.6969 202 15.6968C202.265 15.6966 202.519 15.8019 202.707 15.9894C202.895 16.1769 203 16.4312 203 16.6964C203 16.9617 202.895 17.2161 202.708 17.4037L201.805 18.305C201.289 18.8208 200.999 19.5205 200.999 20.25C200.999 20.9795 201.289 21.6792 201.805 22.195C202.321 22.7108 203.02 23.0006 203.75 23.0006C204.48 23.0006 205.179 22.7108 205.695 22.195L206.596 21.2925C206.689 21.1997 206.799 21.1261 206.921 21.0758C207.042 21.0256 207.172 20.9998 207.304 20.9999C207.435 20.9999 207.565 21.0259 207.686 21.0762C207.808 21.1265 207.918 21.2002 208.011 21.2931C208.103 21.386 208.177 21.4963 208.227 21.6177C208.277 21.739 208.303 21.8691 208.303 22.0004C208.303 22.1318 208.277 22.2618 208.227 22.3831C208.177 22.5045 208.103 22.6147 208.01 22.7075ZM212 24C212 24.2652 211.895 24.5196 211.707 24.7071C211.52 24.8946 211.265 25 211 25C210.735 25 210.48 24.8946 210.293 24.7071C210.105 24.5196 210 24.2652 210 24V22C210 21.7348 210.105 21.4804 210.293 21.2929C210.48 21.1054 210.735 21 211 21C211.265 21 211.52 21.1054 211.707 21.2929C211.895 21.4804 212 21.7348 212 22V24ZM216 20H214C213.735 20 213.48 19.8946 213.293 19.7071C213.105 19.5196 213 19.2652 213 19C213 18.7348 213.105 18.4804 213.293 18.2929C213.48 18.1054 213.735 18 214 18H216C216.265 18 216.52 18.1054 216.707 18.2929C216.895 18.4804 217 18.7348 217 19C217 19.2652 216.895 19.5196 216.707 19.7071C216.52 19.8946 216.265 20 216 20ZM215.609 15.1088L214.708 16.01C214.52 16.1976 214.266 16.3031 214 16.3032C213.735 16.3034 213.481 16.1981 213.293 16.0106C213.105 15.8232 213 15.5688 213 15.3036C213 15.0383 213.105 14.7839 213.292 14.5962L214.195 13.695C214.711 13.1792 215.001 12.4795 215.001 11.75C215.001 11.0205 214.711 10.3208 214.195 9.805C213.679 9.28915 212.98 8.99935 212.25 8.99935C211.52 8.99935 210.821 9.28915 210.305 9.805L209.404 10.7075C209.216 10.895 208.962 11.0002 208.696 11.0001C208.431 11 208.177 10.8945 207.989 10.7069C207.802 10.5192 207.697 10.2648 207.697 9.99956C207.697 9.73431 207.802 9.47997 207.99 9.2925L208.891 8.39125C209.332 7.94867 209.856 7.59737 210.432 7.35744C211.009 7.11752 211.627 6.99369 212.252 6.99304C212.877 6.9924 213.495 7.11494 214.072 7.35367C214.65 7.5924 215.174 7.94262 215.616 8.38428C216.057 8.82595 216.408 9.35038 216.646 9.92757C216.885 10.5048 217.008 11.1234 217.007 11.748C217.006 12.3726 216.882 12.9909 216.643 13.5676C216.403 14.1443 216.051 14.668 215.609 15.1088Z" fill="currentColor"/>
<path opacity="0.2" d="M264.535 14.5351L254.535 24.5351C253.592 25.4459 252.329 25.9498 251.018 25.9385C249.707 25.9271 248.453 25.4012 247.526 24.4742C246.599 23.5471 246.073 22.2931 246.062 20.9821C246.05 19.6711 246.554 18.4081 247.465 17.4651L257.465 7.46508C258.408 6.55429 259.671 6.05032 260.982 6.06171C262.293 6.0731 263.547 6.59895 264.474 7.52599C265.401 8.45303 265.927 9.70709 265.938 11.0181C265.95 12.3291 265.446 13.5921 264.535 14.5351Z" fill="currentColor"/>
<path d="M263.829 8.17125C263.08 7.42258 262.065 7.00138 261.006 6.99997C259.947 6.99857 258.931 7.41707 258.18 8.16375L256.724 9.69C256.538 9.86408 256.292 9.96045 256.037 9.95942C255.782 9.95839 255.537 9.86003 255.352 9.68446C255.167 9.50888 255.057 9.26934 255.042 9.0148C255.028 8.76026 255.112 8.50994 255.276 8.315L256.741 6.77875C256.746 6.77302 256.752 6.7676 256.757 6.7625C257.886 5.65242 259.407 5.03316 260.99 5.0396C262.573 5.04605 264.089 5.67768 265.208 6.79691C266.327 7.91614 266.959 9.4323 266.965 11.0151C266.972 12.5979 266.353 14.1192 265.243 15.2475C265.237 15.2532 265.232 15.2587 265.226 15.2638L263.69 16.7288C263.495 16.893 263.245 16.9767 262.99 16.9625C262.736 16.9484 262.496 16.8376 262.321 16.6528C262.145 16.468 262.047 16.2231 262.046 15.9681C262.045 15.7132 262.141 15.4675 262.315 15.2812L263.841 13.825C264.589 13.0733 265.007 12.0556 265.005 10.9955C265.003 9.93543 264.58 8.91961 263.829 8.17125ZM255.276 22.31L253.82 23.8363C253.066 24.5683 252.055 24.9744 251.004 24.9667C249.953 24.959 248.948 24.5382 248.205 23.7952C247.462 23.0522 247.041 22.0467 247.033 20.996C247.026 19.9453 247.432 18.9338 248.164 18.18L249.69 16.7237C249.864 16.5375 249.96 16.2918 249.959 16.0369C249.958 15.7819 249.86 15.537 249.684 15.3522C249.509 15.1674 249.269 15.0566 249.015 15.0425C248.76 15.0283 248.51 15.112 248.315 15.2762L246.774 16.7412C246.768 16.7463 246.763 16.7518 246.758 16.7575C245.647 17.8858 245.028 19.4071 245.035 20.9899C245.041 22.5727 245.673 24.0889 246.792 25.2081C247.911 26.3273 249.427 26.959 251.01 26.9654C252.593 26.9718 254.114 26.3526 255.243 25.2425C255.248 25.2374 255.254 25.232 255.259 25.2262L256.724 23.69C256.823 23.5969 256.903 23.4844 256.957 23.3595C257.012 23.2346 257.04 23.0998 257.041 22.9635C257.041 22.8271 257.014 22.6921 256.961 22.5668C256.907 22.4414 256.828 22.3283 256.73 22.2344C256.631 22.1405 256.514 22.0678 256.386 22.0208C256.258 21.9738 256.122 21.9534 255.986 21.961C255.849 21.9685 255.716 22.0038 255.594 22.0647C255.472 22.1256 255.364 22.2108 255.276 22.315V22.31ZM266 19H263C262.735 19 262.48 19.1054 262.293 19.2929C262.105 19.4804 262 19.7348 262 20C262 20.2652 262.105 20.5196 262.293 20.7071C262.48 20.8946 262.735 21 263 21H266C266.265 21 266.52 20.8946 266.707 20.7071C266.895 20.5196 267 20.2652 267 20C267 19.7348 266.895 19.4804 266.707 19.2929C266.52 19.1054 266.265 19 266 19ZM246 13H249C249.265 13 249.52 12.8946 249.707 12.7071C249.895 12.5196 250 12.2652 250 12C250 11.7348 249.895 11.4804 249.707 11.2929C249.52 11.1054 249.265 11 249 11H246C245.735 11 245.48 11.1054 245.293 11.2929C245.105 11.4804 245 11.7348 245 12C245 12.2652 245.105 12.5196 245.293 12.7071C245.48 12.8946 245.735 13 246 13ZM260 22C259.735 22 259.48 22.1054 259.293 22.2929C259.105 22.4804 259 22.7348 259 23V26C259 26.2652 259.105 26.5196 259.293 26.7071C259.48 26.8946 259.735 27 260 27C260.265 27 260.52 26.8946 260.707 26.7071C260.895 26.5196 261 26.2652 261 26V23C261 22.7348 260.895 22.4804 260.707 22.2929C260.52 22.1054 260.265 22 260 22ZM252 10C252.265 10 252.52 9.89464 252.707 9.70711C252.895 9.51957 253 9.26522 253 9V6C253 5.73478 252.895 5.48043 252.707 5.29289C252.52 5.10536 252.265 5 252 5C251.735 5 251.48 5.10536 251.293 5.29289C251.105 5.48043 251 5.73478 251 6V9C251 9.26522 251.105 9.51957 251.293 9.70711C251.48 9.89464 251.735 10 252 10Z" fill="currentColor"/>
</g>
<defs>
<clipPath id="clip0_17_11111">
<rect width="272" height="32" rx="5" fill="white"/>
</clipPath>
</defs>
</svg>
