<svg width="272" height="32" viewBox="0 0 272 32" fill="none" xmlns="http://www.w3.org/2000/svg">
<g clip-path="url(#clip0_17_11041)">
<path d="M4 8C4 7.73478 4.10536 7.48043 4.29289 7.29289C4.48043 7.10536 4.73478 7 5 7H27C27.2652 7 27.5196 7.10536 27.7071 7.29289C27.8946 7.48043 28 7.73478 28 8C28 8.26522 27.8946 8.51957 27.7071 8.70711C27.5196 8.89464 27.2652 9 27 9H5C4.73478 9 4.48043 8.89464 4.29289 8.70711C4.10536 8.51957 4 8.26522 4 8ZM5 17H14C14.2652 17 14.5196 16.8946 14.7071 16.7071C14.8946 16.5196 15 16.2652 15 16C15 15.7348 14.8946 15.4804 14.7071 15.2929C14.5196 15.1054 14.2652 15 14 15H5C4.73478 15 4.48043 15.1054 4.29289 15.2929C4.10536 15.4804 4 15.7348 4 16C4 16.2652 4.10536 16.5196 4.29289 16.7071C4.48043 16.8946 4.73478 17 5 17ZM16 23H5C4.73478 23 4.48043 23.1054 4.29289 23.2929C4.10536 23.4804 4 23.7348 4 24C4 24.2652 4.10536 24.5196 4.29289 24.7071C4.48043 24.8946 4.73478 25 5 25H16C16.2652 25 16.5196 24.8946 16.7071 24.7071C16.8946 24.5196 17 24.2652 17 24C17 23.7348 16.8946 23.4804 16.7071 23.2929C16.5196 23.1054 16.2652 23 16 23ZM29.7075 24.7075C29.6146 24.8005 29.5043 24.8742 29.3829 24.9246C29.2615 24.9749 29.1314 25.0008 29 25.0008C28.8686 25.0008 28.7385 24.9749 28.6171 24.9246C28.4957 24.8742 28.3854 24.8005 28.2925 24.7075L25.75 22.17C24.716 22.8522 23.4657 23.1262 22.2412 22.9391C21.0167 22.752 19.9052 22.117 19.1222 21.1572C18.3392 20.1973 17.9403 18.981 18.0029 17.7439C18.0655 16.5067 18.5851 15.3369 19.461 14.461C20.3369 13.5851 21.5067 13.0655 22.7439 13.0029C23.981 12.9403 25.1973 13.3392 26.1572 14.1222C27.117 14.9052 27.752 16.0167 27.9391 17.2412C28.1262 18.4657 27.8522 19.716 27.17 20.75L29.7075 23.2875C29.8012 23.3805 29.8756 23.4911 29.9264 23.6129C29.9772 23.7348 30.0033 23.8655 30.0033 23.9975C30.0033 24.1295 29.9772 24.2602 29.9264 24.3821C29.8756 24.5039 29.8012 24.6145 29.7075 24.7075ZM23 21C23.5933 21 24.1734 20.8241 24.6667 20.4944C25.1601 20.1648 25.5446 19.6962 25.7716 19.1481C25.9987 18.5999 26.0581 17.9967 25.9424 17.4147C25.8266 16.8328 25.5409 16.2982 25.1213 15.8787C24.7018 15.4591 24.1672 15.1734 23.5853 15.0576C23.0033 14.9419 22.4001 15.0013 21.8519 15.2284C21.3038 15.4554 20.8352 15.8399 20.5056 16.3333C20.1759 16.8266 20 17.4067 20 18C20 18.7956 20.3161 19.5587 20.8787 20.1213C21.4413 20.6839 22.2044 21 23 21Z" fill="currentColor"/>
<path d="M52.5 8C52.5 7.86739 52.5527 7.74021 52.6464 7.64645C52.7402 7.55268 52.8674 7.5 53 7.5H75C75.1326 7.5 75.2598 7.55268 75.3536 7.64645C75.4473 7.74021 75.5 7.86739 75.5 8C75.5 8.13261 75.4473 8.25979 75.3536 8.35355C75.2598 8.44732 75.1326 8.5 75 8.5H53C52.8674 8.5 52.7402 8.44732 52.6464 8.35355C52.5527 8.25979 52.5 8.13261 52.5 8ZM53 16.5H62C62.1326 16.5 62.2598 16.4473 62.3536 16.3536C62.4473 16.2598 62.5 16.1326 62.5 16C62.5 15.8674 62.4473 15.7402 62.3536 15.6464C62.2598 15.5527 62.1326 15.5 62 15.5H53C52.8674 15.5 52.7402 15.5527 52.6464 15.6464C52.5527 15.7402 52.5 15.8674 52.5 16C52.5 16.1326 52.5527 16.2598 52.6464 16.3536C52.7402 16.4473 52.8674 16.5 53 16.5ZM64 23.5H53C52.8674 23.5 52.7402 23.5527 52.6464 23.6464C52.5527 23.7402 52.5 23.8674 52.5 24C52.5 24.1326 52.5527 24.2598 52.6464 24.3536C52.7402 24.4473 52.8674 24.5 53 24.5H64C64.1326 24.5 64.2598 24.4473 64.3536 24.3536C64.4473 24.2598 64.5 24.1326 64.5 24C64.5 23.8674 64.4473 23.7402 64.3536 23.6464C64.2598 23.5527 64.1326 23.5 64 23.5ZM77.3538 24.3538C77.3073 24.4002 77.2522 24.4371 77.1915 24.4623C77.1308 24.4874 77.0657 24.5004 77 24.5004C76.9343 24.5004 76.8692 24.4874 76.8085 24.4623C76.7478 24.4371 76.6927 24.4002 76.6462 24.3538L73.8062 21.5138C72.9062 22.233 71.7649 22.5802 70.6169 22.4842C69.4688 22.3882 68.401 21.8563 67.6329 20.9976C66.8648 20.1389 66.4546 19.0187 66.4867 17.8671C66.5187 16.7154 66.9905 15.6198 67.8051 14.8051C68.6198 13.9905 69.7154 13.5187 70.8671 13.4867C72.0187 13.4546 73.1389 13.8648 73.9976 14.6329C74.8563 15.401 75.3882 16.4688 75.4842 17.6169C75.5802 18.7649 75.233 19.9062 74.5138 20.8062L77.3538 23.6462C77.4002 23.6927 77.4371 23.7478 77.4623 23.8085C77.4874 23.8692 77.5004 23.9343 77.5004 24C77.5004 24.0657 77.4874 24.1308 77.4623 24.1915C77.4371 24.2522 77.4002 24.3073 77.3538 24.3538ZM71 21.5C71.6922 21.5 72.3689 21.2947 72.9445 20.9101C73.5201 20.5256 73.9687 19.9789 74.2336 19.3394C74.4985 18.6999 74.5678 17.9961 74.4327 17.3172C74.2977 16.6383 73.9644 16.0146 73.4749 15.5251C72.9854 15.0356 72.3617 14.7023 71.6828 14.5673C71.0039 14.4322 70.3001 14.5015 69.6606 14.7664C69.0211 15.0313 68.4744 15.4799 68.0899 16.0555C67.7053 16.6311 67.5 17.3078 67.5 18C67.5 18.9283 67.8687 19.8185 68.5251 20.4749C69.1815 21.1313 70.0717 21.5 71 21.5Z" fill="currentColor"/>
<path d="M100.25 8C100.25 7.80109 100.329 7.61032 100.47 7.46967C100.61 7.32902 100.801 7.25 101 7.25H123C123.199 7.25 123.39 7.32902 123.53 7.46967C123.671 7.61032 123.75 7.80109 123.75 8C123.75 8.19891 123.671 8.38968 123.53 8.53033C123.39 8.67098 123.199 8.75 123 8.75H101C100.801 8.75 100.61 8.67098 100.47 8.53033C100.329 8.38968 100.25 8.19891 100.25 8ZM101 16.75H110C110.199 16.75 110.39 16.671 110.53 16.5303C110.671 16.3897 110.75 16.1989 110.75 16C110.75 15.8011 110.671 15.6103 110.53 15.4697C110.39 15.329 110.199 15.25 110 15.25H101C100.801 15.25 100.61 15.329 100.47 15.4697C100.329 15.6103 100.25 15.8011 100.25 16C100.25 16.1989 100.329 16.3897 100.47 16.5303C100.61 16.671 100.801 16.75 101 16.75ZM112 23.25H101C100.801 23.25 100.61 23.329 100.47 23.4697C100.329 23.6103 100.25 23.8011 100.25 24C100.25 24.1989 100.329 24.3897 100.47 24.5303C100.61 24.671 100.801 24.75 101 24.75H112C112.199 24.75 112.39 24.671 112.53 24.5303C112.671 24.3897 112.75 24.1989 112.75 24C112.75 23.8011 112.671 23.6103 112.53 23.4697C112.39 23.329 112.199 23.25 112 23.25ZM125.53 24.53C125.389 24.6705 125.199 24.7493 125 24.7493C124.801 24.7493 124.611 24.6705 124.47 24.53L121.784 21.845C120.815 22.5471 119.617 22.8582 118.429 22.7164C117.24 22.5746 116.149 21.9902 115.373 21.0798C114.596 20.1694 114.191 18.9998 114.239 17.8041C114.286 16.6084 114.782 15.4745 115.628 14.6284C116.474 13.7822 117.608 13.286 118.804 13.2387C120 13.1913 121.169 13.5962 122.08 14.3728C122.99 15.1493 123.575 16.2404 123.716 17.4286C123.858 18.6168 123.547 19.8147 122.845 20.7838L125.53 23.47C125.67 23.6106 125.749 23.8012 125.749 24C125.749 24.1988 125.67 24.3894 125.53 24.53ZM119 21.25C119.643 21.25 120.271 21.0594 120.806 20.7023C121.34 20.3452 121.757 19.8376 122.003 19.2437C122.249 18.6499 122.313 17.9964 122.188 17.366C122.062 16.7355 121.753 16.1564 121.298 15.7019C120.844 15.2474 120.264 14.9378 119.634 14.8124C119.004 14.687 118.35 14.7514 117.756 14.9974C117.162 15.2434 116.655 15.6599 116.298 16.1944C115.941 16.7289 115.75 17.3572 115.75 18C115.75 18.862 116.092 19.6886 116.702 20.2981C117.311 20.9076 118.138 21.25 119 21.25Z" fill="currentColor"/>
<path d="M147.5 8C147.5 7.60218 147.658 7.22064 147.939 6.93934C148.221 6.65804 148.602 6.5 149 6.5H171C171.398 6.5 171.779 6.65804 172.061 6.93934C172.342 7.22064 172.5 7.60218 172.5 8C172.5 8.39782 172.342 8.77936 172.061 9.06066C171.779 9.34196 171.398 9.5 171 9.5H149C148.602 9.5 148.221 9.34196 147.939 9.06066C147.658 8.77936 147.5 8.39782 147.5 8ZM149 17.5H157C157.398 17.5 157.779 17.342 158.061 17.0607C158.342 16.7794 158.5 16.3978 158.5 16C158.5 15.6022 158.342 15.2206 158.061 14.9393C157.779 14.658 157.398 14.5 157 14.5H149C148.602 14.5 148.221 14.658 147.939 14.9393C147.658 15.2206 147.5 15.6022 147.5 16C147.5 16.3978 147.658 16.7794 147.939 17.0607C148.221 17.342 148.602 17.5 149 17.5ZM159 22.5H149C148.602 22.5 148.221 22.658 147.939 22.9393C147.658 23.2206 147.5 23.6022 147.5 24C147.5 24.3978 147.658 24.7794 147.939 25.0607C148.221 25.342 148.602 25.5 149 25.5H159C159.398 25.5 159.779 25.342 160.061 25.0607C160.342 24.7794 160.5 24.3978 160.5 24C160.5 23.6022 160.342 23.2206 160.061 22.9393C159.779 22.658 159.398 22.5 159 22.5ZM174.061 25.0613C173.922 25.2011 173.756 25.312 173.574 25.3878C173.392 25.4635 173.196 25.5024 172.999 25.5024C172.801 25.5024 172.606 25.4635 172.424 25.3878C172.241 25.312 172.076 25.2011 171.936 25.0613L169.676 22.8013C168.517 23.4477 167.163 23.6531 165.864 23.3796C164.566 23.1061 163.409 22.3722 162.609 21.3132C161.809 20.2542 161.419 18.9415 161.511 17.6174C161.603 16.2933 162.17 15.0471 163.109 14.1085C164.047 13.17 165.293 12.6025 166.617 12.5108C167.942 12.419 169.254 12.8092 170.313 13.6093C171.372 14.4094 172.106 15.5655 172.38 16.8643C172.653 18.1631 172.448 19.517 171.801 20.6763L174.061 22.935C174.201 23.0744 174.312 23.24 174.388 23.4225C174.464 23.6049 174.503 23.8006 174.503 23.9981C174.503 24.1957 174.464 24.3913 174.388 24.5738C174.312 24.7562 174.201 24.9219 174.061 25.0613ZM167 20.5C167.494 20.5 167.978 20.3534 168.389 20.0787C168.8 19.804 169.12 19.4135 169.31 18.9567C169.499 18.4999 169.548 17.9972 169.452 17.5123C169.356 17.0273 169.117 16.5819 168.768 16.2322C168.418 15.8826 167.973 15.6445 167.488 15.548C167.003 15.4516 166.5 15.5011 166.043 15.6903C165.586 15.8795 165.196 16.2 164.921 16.6111C164.647 17.0222 164.5 17.5055 164.5 18C164.5 18.3283 164.565 18.6534 164.69 18.9567C164.816 19.26 165 19.5356 165.232 19.7678C165.464 19.9999 165.74 20.1841 166.043 20.3097C166.347 20.4353 166.672 20.5 167 20.5Z" fill="currentColor"/>
<path d="M196 8C196 7.73478 196.105 7.48043 196.293 7.29289C196.48 7.10536 196.735 7 197 7H219C219.265 7 219.52 7.10536 219.707 7.29289C219.895 7.48043 220 7.73478 220 8C220 8.26522 219.895 8.51957 219.707 8.70711C219.52 8.89464 219.265 9 219 9H197C196.735 9 196.48 8.89464 196.293 8.70711C196.105 8.51957 196 8.26522 196 8ZM197 17H206C206.265 17 206.52 16.8946 206.707 16.7071C206.895 16.5196 207 16.2652 207 16C207 15.7348 206.895 15.4804 206.707 15.2929C206.52 15.1054 206.265 15 206 15H197C196.735 15 196.48 15.1054 196.293 15.2929C196.105 15.4804 196 15.7348 196 16C196 16.2652 196.105 16.5196 196.293 16.7071C196.48 16.8946 196.735 17 197 17ZM208 23H197C196.735 23 196.48 23.1054 196.293 23.2929C196.105 23.4804 196 23.7348 196 24C196 24.2652 196.105 24.5196 196.293 24.7071C196.48 24.8946 196.735 25 197 25H208C208.265 25 208.52 24.8946 208.707 24.7071C208.895 24.5196 209 24.2652 209 24C209 23.7348 208.895 23.4804 208.707 23.2929C208.52 23.1054 208.265 23 208 23ZM221.708 23.2925L219.17 20.75C219.852 19.716 220.126 18.4657 219.939 17.2412C219.752 16.0167 219.117 14.9052 218.157 14.1222C217.197 13.3392 215.981 12.9403 214.744 13.0029C213.507 13.0655 212.337 13.5851 211.461 14.461C210.585 15.3369 210.065 16.5067 210.003 17.7439C209.94 18.981 210.339 20.1973 211.122 21.1572C211.905 22.117 213.017 22.752 214.241 22.9391C215.466 23.1262 216.716 22.8522 217.75 22.17L220.288 24.7075C220.475 24.8951 220.73 25.0006 220.995 25.0006C221.26 25.0006 221.515 24.8951 221.702 24.7075C221.89 24.5199 221.996 24.2654 221.996 24C221.996 23.7346 221.89 23.4801 221.702 23.2925H221.708Z" fill="currentColor"/>
<path opacity="0.2" d="M267 18C267 18.7911 266.765 19.5645 266.326 20.2223C265.886 20.8801 265.262 21.3928 264.531 21.6955C263.8 21.9983 262.996 22.0775 262.22 21.9231C261.444 21.7688 260.731 21.3878 260.172 20.8284C259.612 20.269 259.231 19.5563 259.077 18.7804C258.923 18.0044 259.002 17.2002 259.304 16.4693C259.607 15.7384 260.12 15.1136 260.778 14.6741C261.436 14.2346 262.209 14 263 14C264.061 14 265.078 14.4214 265.828 15.1716C266.579 15.9217 267 16.9391 267 18Z" fill="currentColor"/>
<path d="M244 8C244 7.73478 244.105 7.48043 244.293 7.29289C244.48 7.10536 244.735 7 245 7H267C267.265 7 267.52 7.10536 267.707 7.29289C267.895 7.48043 268 7.73478 268 8C268 8.26522 267.895 8.51957 267.707 8.70711C267.52 8.89464 267.265 9 267 9H245C244.735 9 244.48 8.89464 244.293 8.70711C244.105 8.51957 244 8.26522 244 8ZM245 17H254C254.265 17 254.52 16.8946 254.707 16.7071C254.895 16.5196 255 16.2652 255 16C255 15.7348 254.895 15.4804 254.707 15.2929C254.52 15.1054 254.265 15 254 15H245C244.735 15 244.48 15.1054 244.293 15.2929C244.105 15.4804 244 15.7348 244 16C244 16.2652 244.105 16.5196 244.293 16.7071C244.48 16.8946 244.735 17 245 17ZM256 23H245C244.735 23 244.48 23.1054 244.293 23.2929C244.105 23.4804 244 23.7348 244 24C244 24.2652 244.105 24.5196 244.293 24.7071C244.48 24.8946 244.735 25 245 25H256C256.265 25 256.52 24.8946 256.707 24.7071C256.895 24.5196 257 24.2652 257 24C257 23.7348 256.895 23.4804 256.707 23.2929C256.52 23.1054 256.265 23 256 23ZM269.708 24.7075C269.615 24.8005 269.504 24.8742 269.383 24.9246C269.262 24.9749 269.131 25.0008 269 25.0008C268.869 25.0008 268.738 24.9749 268.617 24.9246C268.496 24.8742 268.385 24.8005 268.292 24.7075L265.75 22.17C264.716 22.8522 263.466 23.1262 262.241 22.9391C261.017 22.752 259.905 22.117 259.122 21.1572C258.339 20.1973 257.94 18.981 258.003 17.7439C258.065 16.5067 258.585 15.3369 259.461 14.461C260.337 13.5851 261.507 13.0655 262.744 13.0029C263.981 12.9403 265.197 13.3392 266.157 14.1222C267.117 14.9052 267.752 16.0167 267.939 17.2412C268.126 18.4657 267.852 19.716 267.17 20.75L269.708 23.2875C269.801 23.3805 269.876 23.4911 269.926 23.6129C269.977 23.7348 270.003 23.8655 270.003 23.9975C270.003 24.1295 269.977 24.2602 269.926 24.3821C269.876 24.5039 269.801 24.6145 269.708 24.7075ZM263 21C263.593 21 264.173 20.8241 264.667 20.4944C265.16 20.1648 265.545 19.6962 265.772 19.1481C265.999 18.5999 266.058 17.9967 265.942 17.4147C265.827 16.8328 265.541 16.2982 265.121 15.8787C264.702 15.4591 264.167 15.1734 263.585 15.0576C263.003 14.9419 262.4 15.0013 261.852 15.2284C261.304 15.4554 260.835 15.8399 260.506 16.3333C260.176 16.8266 260 17.4067 260 18C260 18.7956 260.316 19.5587 260.879 20.1213C261.441 20.6839 262.204 21 263 21Z" fill="currentColor"/>
</g>
<defs>
<clipPath id="clip0_17_11041">
<rect width="272" height="32" rx="5" fill="white"/>
</clipPath>
</defs>
</svg>
