<svg width="272" height="32" viewBox="0 0 272 32" fill="none" xmlns="http://www.w3.org/2000/svg">
<g clip-path="url(#clip0_17_10999)">
<path d="M19 13.9998C19 14.265 18.8947 14.5194 18.7071 14.7069C18.5196 14.8944 18.2653 14.9998 18 14.9998H15V17.9998C15 18.265 14.8947 18.5194 14.7071 18.7069C14.5196 18.8944 14.2653 18.9998 14 18.9998C13.7348 18.9998 13.4805 18.8944 13.2929 18.7069C13.1054 18.5194 13 18.265 13 17.9998V14.9998H10C9.73482 14.9998 9.48047 14.8944 9.29293 14.7069C9.1054 14.5194 9.00004 14.265 9.00004 13.9998C9.00004 13.7346 9.1054 13.4802 9.29293 13.2927C9.48047 13.1052 9.73482 12.9998 10 12.9998H13V9.9998C13 9.73458 13.1054 9.48023 13.2929 9.29269C13.4805 9.10515 13.7348 8.9998 14 8.9998C14.2653 8.9998 14.5196 9.10515 14.7071 9.29269C14.8947 9.48023 15 9.73458 15 9.9998V12.9998H18C18.2653 12.9998 18.5196 13.1052 18.7071 13.2927C18.8947 13.4802 19 13.7346 19 13.9998ZM28.7075 28.7073C28.6147 28.8003 28.5044 28.874 28.383 28.9244C28.2616 28.9747 28.1315 29.0006 28 29.0006C27.8686 29.0006 27.7385 28.9747 27.6171 28.9244C27.4957 28.874 27.3854 28.8003 27.2925 28.7073L21.035 22.4485C18.8572 24.2626 16.0638 25.1672 13.236 24.9741C10.4081 24.781 7.76361 23.5052 5.85251 21.412C3.9414 19.3188 2.91086 16.5694 2.97526 13.7357C3.03966 10.902 4.19404 8.20225 6.19827 6.19802C8.20249 4.1938 10.9023 3.03941 13.7359 2.97501C16.5696 2.91061 19.319 3.94116 21.4122 5.85226C23.5054 7.76337 24.7813 10.4079 24.9743 13.2357C25.1674 16.0635 24.2628 18.8569 22.4488 21.0348L28.7075 27.2923C28.8005 27.3852 28.8743 27.4955 28.9246 27.6169C28.9749 27.7383 29.0008 27.8684 29.0008 27.9998C29.0008 28.1312 28.9749 28.2613 28.9246 28.3827C28.8743 28.5041 28.8005 28.6144 28.7075 28.7073ZM14 22.9998C15.7801 22.9998 17.5201 22.472 19.0002 21.483C20.4802 20.4941 21.6338 19.0885 22.315 17.4439C22.9961 15.7994 23.1744 13.9898 22.8271 12.244C22.4798 10.4982 21.6227 8.89451 20.364 7.63584C19.1053 6.37716 17.5017 5.52 15.7559 5.17273C14.01 4.82546 12.2004 5.00369 10.5559 5.68488C8.91136 6.36607 7.50575 7.51962 6.51681 8.99966C5.52788 10.4797 5.00004 12.2198 5.00004 13.9998C5.00269 16.3859 5.95175 18.6736 7.639 20.3608C9.32626 22.0481 11.6139 22.9972 14 22.9998Z" fill="currentColor"/>
<path d="M66.4999 14.0001C66.4999 14.1327 66.4472 14.2599 66.3534 14.3537C66.2597 14.4475 66.1325 14.5001 65.9999 14.5001H62.4999V18.0001C62.4999 18.1327 62.4472 18.2599 62.3534 18.3537C62.2597 18.4475 62.1325 18.5001 61.9999 18.5001C61.8673 18.5001 61.7401 18.4475 61.6463 18.3537C61.5526 18.2599 61.4999 18.1327 61.4999 18.0001V14.5001H57.9999C57.8673 14.5001 57.7401 14.4475 57.6463 14.3537C57.5526 14.2599 57.4999 14.1327 57.4999 14.0001C57.4999 13.8675 57.5526 13.7404 57.6463 13.6466C57.7401 13.5528 57.8673 13.5001 57.9999 13.5001H61.4999V10.0001C61.4999 9.86753 61.5526 9.74035 61.6463 9.64658C61.7401 9.55281 61.8673 9.50014 61.9999 9.50014C62.1325 9.50014 62.2597 9.55281 62.3534 9.64658C62.4472 9.74035 62.4999 9.86753 62.4999 10.0001V13.5001H65.9999C66.1325 13.5001 66.2597 13.5528 66.3534 13.6466C66.4472 13.7404 66.4999 13.8675 66.4999 14.0001ZM76.3536 28.3539C76.3072 28.4004 76.2521 28.4373 76.1914 28.4624C76.1307 28.4876 76.0656 28.5005 75.9999 28.5005C75.9342 28.5005 75.8691 28.4876 75.8084 28.4624C75.7477 28.4373 75.6926 28.4004 75.6461 28.3539L69.0586 21.7664C67.0276 23.6127 64.3551 24.5914 61.6121 24.4934C58.8691 24.3954 56.2732 23.2285 54.3791 21.242C52.485 19.2555 51.4429 16.607 51.4756 13.8625C51.5083 11.1179 52.6131 8.49498 54.5539 6.55414C56.4947 4.6133 59.1177 3.50851 61.8622 3.47584C64.6068 3.44318 67.2553 4.48523 69.2418 6.37932C71.2283 8.27341 72.3952 10.8693 72.4932 13.6123C72.5911 16.3553 71.6124 19.0279 69.7661 21.0589L76.3536 27.6464C76.4001 27.6928 76.437 27.748 76.4622 27.8087C76.4873 27.8694 76.5003 27.9344 76.5003 28.0001C76.5003 28.0658 76.4873 28.1309 76.4622 28.1916C76.437 28.2523 76.4001 28.3075 76.3536 28.3539ZM61.9999 23.5001C63.8788 23.5001 65.7155 22.943 67.2778 21.8991C68.8401 20.8552 70.0577 19.3715 70.7767 17.6356C71.4958 15.8997 71.6839 13.9896 71.3174 12.1468C70.9508 10.304 70.046 8.61122 68.7174 7.28262C67.3888 5.95402 65.6961 5.04924 63.8533 4.68268C62.0104 4.31612 60.1003 4.50425 58.3644 5.22328C56.6285 5.94231 55.1448 7.15995 54.1009 8.72222C53.0571 10.2845 52.4999 12.1212 52.4999 14.0001C52.5025 16.5189 53.5043 18.9337 55.2853 20.7147C57.0663 22.4958 59.4811 23.4975 61.9999 23.5001Z" fill="currentColor"/>
<path d="M114.75 13.9998C114.75 14.1988 114.671 14.3895 114.53 14.5302C114.39 14.6708 114.199 14.7498 114 14.7498H110.75V17.9998C110.75 18.1988 110.671 18.3895 110.53 18.5302C110.39 18.6708 110.199 18.7498 110 18.7498C109.801 18.7498 109.61 18.6708 109.47 18.5302C109.329 18.3895 109.25 18.1988 109.25 17.9998V14.7498H106C105.801 14.7498 105.61 14.6708 105.47 14.5302C105.329 14.3895 105.25 14.1988 105.25 13.9998C105.25 13.8009 105.329 13.6102 105.47 13.4695C105.61 13.3289 105.801 13.2498 106 13.2498H109.25V9.99984C109.25 9.80093 109.329 9.61017 109.47 9.46951C109.61 9.32886 109.801 9.24984 110 9.24984C110.199 9.24984 110.39 9.32886 110.53 9.46951C110.671 9.61017 110.75 9.80093 110.75 9.99984V13.2498H114C114.199 13.2498 114.39 13.3289 114.53 13.4695C114.671 13.6102 114.75 13.8009 114.75 13.9998ZM124.53 28.5298C124.389 28.6703 124.199 28.7492 124 28.7492C123.801 28.7492 123.611 28.6703 123.47 28.5298L117.048 22.1073C114.941 23.9388 112.206 24.881 109.419 24.7352C106.632 24.5895 104.01 23.3672 102.106 21.326C100.203 19.2849 99.1657 16.5843 99.2143 13.7936C99.2629 11.0029 100.393 8.34012 102.367 6.3665C104.34 4.39288 107.003 3.26264 109.794 3.21404C112.585 3.16543 115.285 4.20226 117.326 6.10596C119.367 8.00965 120.59 10.6315 120.735 13.4188C120.881 16.2061 119.939 18.9411 118.108 21.0473L124.53 27.4698C124.671 27.6105 124.749 27.8011 124.749 27.9998C124.749 28.1986 124.671 28.3892 124.53 28.5298ZM110 23.2498C111.83 23.2498 113.618 22.7073 115.139 21.6909C116.66 20.6745 117.846 19.2299 118.546 17.5397C119.246 15.8494 119.429 13.9896 119.072 12.1953C118.715 10.4009 117.834 8.75274 116.541 7.45911C115.247 6.16547 113.599 5.28449 111.805 4.92758C110.01 4.57067 108.15 4.75385 106.46 5.45396C104.77 6.15407 103.325 7.33966 102.309 8.86082C101.293 10.382 100.75 12.1704 100.75 13.9998C100.753 16.4522 101.729 18.8032 103.463 20.5373C105.197 22.2714 107.548 23.2469 110 23.2498Z" fill="currentColor"/>
<path d="M163.5 13.9998C163.5 14.3977 163.342 14.7792 163.061 15.0605C162.779 15.3418 162.398 15.4998 162 15.4998H159.5V17.9998C159.5 18.3977 159.342 18.7792 159.061 19.0605C158.779 19.3418 158.398 19.4998 158 19.4998C157.602 19.4998 157.221 19.3418 156.939 19.0605C156.658 18.7792 156.5 18.3977 156.5 17.9998V15.4998H154C153.602 15.4998 153.221 15.3418 152.939 15.0605C152.658 14.7792 152.5 14.3977 152.5 13.9998C152.5 13.602 152.658 13.2205 152.939 12.9392C153.221 12.6579 153.602 12.4998 154 12.4998H156.5V9.99983C156.5 9.602 156.658 9.22047 156.939 8.93917C157.221 8.65786 157.602 8.49983 158 8.49983C158.398 8.49983 158.779 8.65786 159.061 8.93917C159.342 9.22047 159.5 9.602 159.5 9.99983V12.4998H162C162.398 12.4998 162.779 12.6579 163.061 12.9392C163.342 13.2205 163.5 13.602 163.5 13.9998ZM173.061 29.0611C172.922 29.2009 172.756 29.3119 172.574 29.3876C172.392 29.4633 172.196 29.5023 171.999 29.5023C171.801 29.5023 171.606 29.4633 171.424 29.3876C171.241 29.3119 171.076 29.2009 170.936 29.0611L165 23.1248C162.681 24.9047 159.771 25.7357 156.861 25.4492C153.952 25.1627 151.26 23.7802 149.333 21.5821C147.405 19.3841 146.385 16.535 146.481 13.613C146.577 10.6909 147.78 7.9146 149.848 5.84728C151.915 3.77996 154.691 2.57641 157.613 2.48078C160.535 2.38514 163.384 3.40459 165.582 5.33231C167.78 7.26004 169.163 9.95169 169.449 12.8613C169.736 15.7708 168.905 18.6804 167.125 20.9998L173.068 26.9411C173.348 27.2232 173.504 27.6049 173.503 28.0024C173.502 28.3999 173.343 28.7807 173.061 29.0611ZM158 22.4998C159.681 22.4998 161.325 22.0013 162.722 21.0673C164.12 20.1333 165.21 18.8058 165.853 17.2526C166.496 15.6995 166.665 13.9904 166.337 12.3416C166.009 10.6927 165.199 9.17817 164.01 7.98942C162.822 6.80067 161.307 5.99113 159.658 5.66315C158.01 5.33518 156.3 5.50351 154.747 6.14685C153.194 6.7902 151.867 7.87966 150.933 9.27748C149.999 10.6753 149.5 12.3187 149.5 13.9998C149.503 16.2534 150.399 18.4138 151.993 20.0073C153.586 21.6008 155.747 22.4972 158 22.4998Z" fill="currentColor"/>
<path d="M220.707 27.2927L214.45 21.0352C216.267 18.8557 217.174 16.0595 216.982 13.2283C216.79 10.3971 215.514 7.74894 213.42 5.83464C211.325 3.92033 208.573 2.88731 205.736 2.95049C202.899 3.01367 200.195 4.16817 198.188 6.17383C196.181 8.17948 195.024 10.8819 194.958 13.7188C194.892 16.5557 195.923 19.3087 197.835 21.4051C199.748 23.5016 202.395 24.7799 205.226 24.9743C208.057 25.1688 210.854 24.2642 213.035 22.4489L219.292 28.7077C219.385 28.8006 219.496 28.8743 219.617 28.9246C219.738 28.9748 219.869 29.0007 220 29.0007C220.131 29.0007 220.262 28.9748 220.383 28.9246C220.504 28.8743 220.615 28.8006 220.707 28.7077C220.8 28.6147 220.874 28.5044 220.924 28.3831C220.975 28.2617 221.001 28.1316 221.001 28.0002C221.001 27.8688 220.975 27.7387 220.924 27.6173C220.874 27.4959 220.8 27.3856 220.707 27.2927ZM210 15.0002H207V18.0002C207 18.2654 206.895 18.5197 206.707 18.7073C206.52 18.8948 206.265 19.0002 206 19.0002C205.735 19.0002 205.48 18.8948 205.293 18.7073C205.105 18.5197 205 18.2654 205 18.0002V15.0002H202C201.735 15.0002 201.48 14.8948 201.293 14.7073C201.105 14.5197 201 14.2654 201 14.0002C201 13.7349 201.105 13.4806 201.293 13.2931C201.48 13.1055 201.735 13.0002 202 13.0002H205V10.0002C205 9.73494 205.105 9.48059 205.293 9.29305C205.48 9.10552 205.735 9.00016 206 9.00016C206.265 9.00016 206.52 9.10552 206.707 9.29305C206.895 9.48059 207 9.73494 207 10.0002V13.0002H210C210.265 13.0002 210.52 13.1055 210.707 13.2931C210.895 13.4806 211 13.7349 211 14.0002C211 14.2654 210.895 14.5197 210.707 14.7073C210.52 14.8948 210.265 15.0002 210 15.0002Z" fill="currentColor"/>
<path opacity="0.2" d="M264 14C264 15.9778 263.414 17.9112 262.315 19.5557C261.216 21.2002 259.654 22.4819 257.827 23.2388C256 23.9957 253.989 24.1937 252.049 23.8079C250.109 23.422 248.327 22.4696 246.929 21.0711C245.53 19.6725 244.578 17.8907 244.192 15.9509C243.806 14.0111 244.004 12.0004 244.761 10.1732C245.518 8.3459 246.8 6.78412 248.444 5.6853C250.089 4.58649 252.022 4 254 4C255.313 4 256.614 4.25866 257.827 4.7612C259.04 5.26375 260.142 6.00035 261.071 6.92893C262 7.85752 262.736 8.95991 263.239 10.1732C263.741 11.3864 264 12.6868 264 14Z" fill="currentColor"/>
<path d="M268.707 27.2927L262.45 21.0352C264.267 18.8557 265.174 16.0595 264.982 13.2283C264.79 10.3971 263.514 7.74894 261.42 5.83464C259.325 3.92033 256.573 2.88731 253.736 2.95049C250.899 3.01367 248.195 4.16817 246.188 6.17383C244.181 8.17948 243.024 10.8819 242.958 13.7188C242.892 16.5557 243.923 19.3087 245.835 21.4051C247.748 23.5016 250.395 24.7799 253.226 24.9743C256.057 25.1688 258.854 24.2642 261.035 22.4489L267.292 28.7077C267.385 28.8006 267.496 28.8743 267.617 28.9246C267.738 28.9748 267.869 29.0007 268 29.0007C268.131 29.0007 268.262 28.9748 268.383 28.9246C268.504 28.8743 268.615 28.8006 268.707 28.7077C268.8 28.6147 268.874 28.5044 268.924 28.3831C268.975 28.2617 269.001 28.1316 269.001 28.0002C269.001 27.8688 268.975 27.7387 268.924 27.6173C268.874 27.4959 268.8 27.3856 268.707 27.2927ZM245 14.0002C245 12.2201 245.528 10.4801 246.517 9.00003C247.506 7.51999 248.911 6.36643 250.556 5.68524C252.2 5.00406 254.01 4.82583 255.756 5.17309C257.502 5.52036 259.105 6.37753 260.364 7.6362C261.623 8.89487 262.48 10.4985 262.827 12.2443C263.174 13.9902 262.996 15.7998 262.315 17.4443C261.634 19.0888 260.48 20.4945 259 21.4834C257.52 22.4723 255.78 23.0002 254 23.0002C251.614 22.9975 249.326 22.0485 247.639 20.3612C245.952 18.6739 245.003 16.3863 245 14.0002ZM259 14.0002C259 14.2654 258.895 14.5197 258.707 14.7073C258.52 14.8948 258.265 15.0002 258 15.0002H255V18.0002C255 18.2654 254.895 18.5197 254.707 18.7073C254.52 18.8948 254.265 19.0002 254 19.0002C253.735 19.0002 253.48 18.8948 253.293 18.7073C253.105 18.5197 253 18.2654 253 18.0002V15.0002H250C249.735 15.0002 249.48 14.8948 249.293 14.7073C249.105 14.5197 249 14.2654 249 14.0002C249 13.7349 249.105 13.4806 249.293 13.2931C249.48 13.1055 249.735 13.0002 250 13.0002H253V10.0002C253 9.73494 253.105 9.48059 253.293 9.29305C253.48 9.10552 253.735 9.00016 254 9.00016C254.265 9.00016 254.52 9.10552 254.707 9.29305C254.895 9.48059 255 9.73494 255 10.0002V13.0002H258C258.265 13.0002 258.52 13.1055 258.707 13.2931C258.895 13.4806 259 13.7349 259 14.0002Z" fill="currentColor"/>
</g>
<defs>
<clipPath id="clip0_17_10999">
<rect width="272" height="32" rx="5" fill="white"/>
</clipPath>
</defs>
</svg>
