<svg width="272" height="32" viewBox="0 0 272 32" fill="none" xmlns="http://www.w3.org/2000/svg">
<g clip-path="url(#clip0_17_10942)">
<path d="M18 2H14C11.879 2.00232 9.84549 2.84591 8.3457 4.3457C6.84591 5.84549 6.00232 7.87898 6 10V22C6.00232 24.121 6.84591 26.1545 8.3457 27.6543C9.84549 29.1541 11.879 29.9977 14 30H18C20.121 29.9977 22.1545 29.1541 23.6543 27.6543C25.1541 26.1545 25.9977 24.121 26 22V10C25.9977 7.87898 25.1541 5.84549 23.6543 4.3457C22.1545 2.84591 20.121 2.00232 18 2ZM24 22C23.9983 23.5908 23.3657 25.116 22.2408 26.2408C21.116 27.3657 19.5908 27.9983 18 28H14C12.4092 27.9983 10.884 27.3657 9.75919 26.2408C8.63433 25.116 8.00165 23.5908 8 22V10C8.00165 8.40921 8.63433 6.88405 9.75919 5.75919C10.884 4.63433 12.4092 4.00165 14 4H18C19.5908 4.00165 21.116 4.63433 22.2408 5.75919C23.3657 6.88405 23.9983 8.40921 24 10V22ZM17 8V14C17 14.2652 16.8946 14.5196 16.7071 14.7071C16.5196 14.8946 16.2652 15 16 15C15.7348 15 15.4804 14.8946 15.2929 14.7071C15.1054 14.5196 15 14.2652 15 14V8C15 7.73478 15.1054 7.48043 15.2929 7.29289C15.4804 7.10536 15.7348 7 16 7C16.2652 7 16.5196 7.10536 16.7071 7.29289C16.8946 7.48043 17 7.73478 17 8Z" fill="currentColor"/>
<path d="M66 2.5H62C60.0116 2.50232 58.1053 3.29324 56.6993 4.69926C55.2932 6.10528 54.5023 8.01159 54.5 10V22C54.5023 23.9884 55.2932 25.8947 56.6993 27.3007C58.1053 28.7068 60.0116 29.4977 62 29.5H66C67.9884 29.4977 69.8947 28.7068 71.3007 27.3007C72.7068 25.8947 73.4977 23.9884 73.5 22V10C73.4977 8.01159 72.7068 6.10528 71.3007 4.69926C69.8947 3.29324 67.9884 2.50232 66 2.5ZM72.5 22C72.498 23.7233 71.8126 25.3754 70.594 26.594C69.3754 27.8126 67.7233 28.498 66 28.5H62C60.2767 28.498 58.6246 27.8126 57.406 26.594C56.1874 25.3754 55.502 23.7233 55.5 22V10C55.502 8.2767 56.1874 6.62455 57.406 5.406C58.6246 4.18744 60.2767 3.50198 62 3.5H66C67.7233 3.50198 69.3754 4.18744 70.594 5.406C71.8126 6.62455 72.498 8.2767 72.5 10V22ZM64.5 8V14C64.5 14.1326 64.4473 14.2598 64.3536 14.3536C64.2598 14.4473 64.1326 14.5 64 14.5C63.8674 14.5 63.7402 14.4473 63.6464 14.3536C63.5527 14.2598 63.5 14.1326 63.5 14V8C63.5 7.86739 63.5527 7.74021 63.6464 7.64645C63.7402 7.55268 63.8674 7.5 64 7.5C64.1326 7.5 64.2598 7.55268 64.3536 7.64645C64.4473 7.74021 64.5 7.86739 64.5 8Z" fill="currentColor"/>
<path d="M114 2.25H110C107.945 2.25232 105.975 3.06958 104.522 4.52248C103.07 5.97539 102.252 7.94528 102.25 10V22C102.252 24.0547 103.07 26.0246 104.522 27.4775C105.975 28.9304 107.945 29.7477 110 29.75H114C116.055 29.7477 118.025 28.9304 119.478 27.4775C120.93 26.0246 121.748 24.0547 121.75 22V10C121.748 7.94528 120.93 5.97539 119.478 4.52248C118.025 3.06958 116.055 2.25232 114 2.25ZM120.25 22C120.248 23.657 119.589 25.2456 118.417 26.4172C117.246 27.5889 115.657 28.248 114 28.25H110C108.343 28.248 106.754 27.5889 105.583 26.4172C104.411 25.2456 103.752 23.657 103.75 22V10C103.752 8.34301 104.411 6.75445 105.583 5.58277C106.754 4.4111 108.343 3.75198 110 3.75H114C115.657 3.75198 117.246 4.4111 118.417 5.58277C119.589 6.75445 120.248 8.34301 120.25 10V22ZM112.75 8V14C112.75 14.1989 112.671 14.3897 112.53 14.5303C112.39 14.671 112.199 14.75 112 14.75C111.801 14.75 111.61 14.671 111.47 14.5303C111.329 14.3897 111.25 14.1989 111.25 14V8C111.25 7.80109 111.329 7.61032 111.47 7.46967C111.61 7.32902 111.801 7.25 112 7.25C112.199 7.25 112.39 7.32902 112.53 7.46967C112.671 7.61032 112.75 7.80109 112.75 8Z" fill="currentColor"/>
<path d="M162 1.5H158C155.746 1.50232 153.586 2.39859 151.992 3.99215C150.399 5.58571 149.502 7.74637 149.5 10V22C149.502 24.2536 150.399 26.4143 151.992 28.0078C153.586 29.6014 155.746 30.4977 158 30.5H162C164.254 30.4977 166.414 29.6014 168.008 28.0078C169.601 26.4143 170.498 24.2536 170.5 22V10C170.498 7.74637 169.601 5.58571 168.008 3.99215C166.414 2.39859 164.254 1.50232 162 1.5ZM167.5 22C167.498 23.4582 166.918 24.8562 165.887 25.8873C164.856 26.9184 163.458 27.4983 162 27.5H158C156.542 27.4983 155.144 26.9184 154.113 25.8873C153.082 24.8562 152.502 23.4582 152.5 22V10C152.502 8.54182 153.082 7.14383 154.113 6.11274C155.144 5.08165 156.542 4.50165 158 4.5H162C163.458 4.50165 164.856 5.08165 165.887 6.11274C166.918 7.14383 167.498 8.54182 167.5 10V22ZM161.5 8V14C161.5 14.3978 161.342 14.7794 161.061 15.0607C160.779 15.342 160.398 15.5 160 15.5C159.602 15.5 159.221 15.342 158.939 15.0607C158.658 14.7794 158.5 14.3978 158.5 14V8C158.5 7.60218 158.658 7.22064 158.939 6.93934C159.221 6.65804 159.602 6.5 160 6.5C160.398 6.5 160.779 6.65804 161.061 6.93934C161.342 7.22064 161.5 7.60218 161.5 8Z" fill="currentColor"/>
<path d="M210 2H206C203.879 2.00232 201.845 2.84591 200.346 4.3457C198.846 5.84549 198.002 7.87898 198 10V22C198.002 24.121 198.846 26.1545 200.346 27.6543C201.845 29.1541 203.879 29.9977 206 30H210C212.121 29.9977 214.155 29.1541 215.654 27.6543C217.154 26.1545 217.998 24.121 218 22V10C217.998 7.87898 217.154 5.84549 215.654 4.3457C214.155 2.84591 212.121 2.00232 210 2ZM209 14C209 14.2652 208.895 14.5196 208.707 14.7071C208.52 14.8946 208.265 15 208 15C207.735 15 207.48 14.8946 207.293 14.7071C207.105 14.5196 207 14.2652 207 14V8C207 7.73478 207.105 7.48043 207.293 7.29289C207.48 7.10536 207.735 7 208 7C208.265 7 208.52 7.10536 208.707 7.29289C208.895 7.48043 209 7.73478 209 8V14Z" fill="currentColor"/>
<path opacity="0.2" d="M265 10V22C265 23.8565 264.263 25.637 262.95 26.9497C261.637 28.2625 259.857 29 258 29H254C252.143 29 250.363 28.2625 249.05 26.9497C247.737 25.637 247 23.8565 247 22V10C247 8.14348 247.737 6.36301 249.05 5.05025C250.363 3.7375 252.143 3 254 3H258C259.857 3 261.637 3.7375 262.95 5.05025C264.263 6.36301 265 8.14348 265 10Z" fill="currentColor"/>
<path d="M258 2H254C251.879 2.00232 249.845 2.84591 248.346 4.3457C246.846 5.84549 246.002 7.87898 246 10V22C246.002 24.121 246.846 26.1545 248.346 27.6543C249.845 29.1541 251.879 29.9977 254 30H258C260.121 29.9977 262.155 29.1541 263.654 27.6543C265.154 26.1545 265.998 24.121 266 22V10C265.998 7.87898 265.154 5.84549 263.654 4.3457C262.155 2.84591 260.121 2.00232 258 2ZM264 22C263.998 23.5908 263.366 25.116 262.241 26.2408C261.116 27.3657 259.591 27.9983 258 28H254C252.409 27.9983 250.884 27.3657 249.759 26.2408C248.634 25.116 248.002 23.5908 248 22V10C248.002 8.40921 248.634 6.88405 249.759 5.75919C250.884 4.63433 252.409 4.00165 254 4H258C259.591 4.00165 261.116 4.63433 262.241 5.75919C263.366 6.88405 263.998 8.40921 264 10V22ZM257 8V14C257 14.2652 256.895 14.5196 256.707 14.7071C256.52 14.8946 256.265 15 256 15C255.735 15 255.48 14.8946 255.293 14.7071C255.105 14.5196 255 14.2652 255 14V8C255 7.73478 255.105 7.48043 255.293 7.29289C255.48 7.10536 255.735 7 256 7C256.265 7 256.52 7.10536 256.707 7.29289C256.895 7.48043 257 7.73478 257 8Z" fill="currentColor"/>
</g>
<defs>
<clipPath id="clip0_17_10942">
<rect width="272" height="32" rx="5" fill="white"/>
</clipPath>
</defs>
</svg>
