<svg width="272" height="32" viewBox="0 0 272 32" fill="none" xmlns="http://www.w3.org/2000/svg">
<g clip-path="url(#clip0_17_10844)">
<path d="M29.7076 2.29231C29.6147 2.19933 29.5044 2.12557 29.383 2.07525C29.2616 2.02493 29.1315 1.99902 29.0001 1.99902C28.8687 1.99902 28.7385 2.02493 28.6171 2.07525C28.4957 2.12557 28.3854 2.19933 28.2926 2.29231L21.7426 8.84356L21.0713 8.17106C20.3203 7.42225 19.3031 7.00175 18.2426 7.00175C17.1821 7.00175 16.1648 7.42225 15.4138 8.17106L12.5001 11.0861L11.7076 10.2923C11.5199 10.1047 11.2654 9.99925 11.0001 9.99925C10.7347 9.99925 10.4802 10.1047 10.2926 10.2923C10.1049 10.4799 9.99951 10.7344 9.99951 10.9998C9.99951 11.2652 10.1049 11.5197 10.2926 11.7073L11.0863 12.4998L8.17132 15.4136C7.79979 15.785 7.50507 16.226 7.30399 16.7114C7.10292 17.1967 6.99942 17.7169 6.99942 18.2423C6.99942 18.7677 7.10292 19.2879 7.30399 19.7733C7.50507 20.2586 7.79979 20.6996 8.17132 21.0711L8.84382 21.7423L2.29257 28.2923C2.19966 28.3852 2.12596 28.4955 2.07567 28.6169C2.02539 28.7383 1.99951 28.8684 1.99951 28.9998C1.99951 29.1312 2.02539 29.2613 2.07567 29.3827C2.12596 29.5041 2.19966 29.6144 2.29257 29.7073C2.48021 29.895 2.7347 30.0004 3.00007 30.0004C3.13146 30.0004 3.26157 29.9745 3.38296 29.9242C3.50436 29.8739 3.61466 29.8002 3.70757 29.7073L10.2576 23.1561L10.9288 23.8286C11.3003 24.2001 11.7413 24.4948 12.2266 24.6959C12.712 24.897 13.2322 25.0005 13.7576 25.0005C14.2829 25.0005 14.8032 24.897 15.2885 24.6959C15.7739 24.4948 16.2149 24.2001 16.5863 23.8286L19.5001 20.9136L20.2926 21.7073C20.3855 21.8002 20.4958 21.8739 20.6172 21.9242C20.7386 21.9745 20.8687 22.0004 21.0001 22.0004C21.1315 22.0004 21.2616 21.9745 21.383 21.9242C21.5044 21.8739 21.6147 21.8002 21.7076 21.7073C21.8005 21.6144 21.8742 21.5041 21.9245 21.3827C21.9747 21.2613 22.0006 21.1312 22.0006 20.9998C22.0006 20.8684 21.9747 20.7383 21.9245 20.6169C21.8742 20.4955 21.8005 20.3852 21.7076 20.2923L20.9138 19.4998L23.8288 16.5861C24.2003 16.2146 24.4951 15.7736 24.6961 15.2883C24.8972 14.8029 25.0007 14.2827 25.0007 13.7573C25.0007 13.2319 24.8972 12.7117 24.6961 12.2264C24.4951 11.741 24.2003 11.3 23.8288 10.9286L23.1563 10.2573L29.7076 3.70731C29.8005 3.61444 29.8743 3.50415 29.9246 3.38275C29.975 3.26135 30.0009 3.13123 30.0009 2.99981C30.0009 2.86839 29.975 2.73827 29.9246 2.61687C29.8743 2.49547 29.8005 2.38518 29.7076 2.29231ZM15.1713 22.4173C14.7963 22.7921 14.2878 23.0026 13.7576 23.0026C13.2274 23.0026 12.7189 22.7921 12.3438 22.4173L9.58632 19.6561C9.21153 19.281 9.00099 18.7725 9.00099 18.2423C9.00099 17.7121 9.21153 17.2036 9.58632 16.8286L12.5001 13.9136L18.0863 19.4998L15.1713 22.4173ZM22.4138 15.1748L19.5001 18.0861L13.9138 12.4998L16.8288 9.58606C17.2039 9.21127 17.7124 9.00074 18.2426 9.00074C18.7728 9.00074 19.2813 9.21127 19.6563 9.58606L22.4138 12.3361C22.6005 12.5219 22.7487 12.7428 22.8498 12.986C22.9509 13.2293 23.0029 13.4901 23.0029 13.7536C23.0029 14.017 22.9509 14.2778 22.8498 14.5211C22.7487 14.7643 22.6005 14.9852 22.4138 15.1711V15.1748ZM11.0513 4.31606C10.9674 4.06444 10.987 3.7898 11.1056 3.55256C11.2242 3.31533 11.4322 3.13493 11.6838 3.05106C11.9354 2.96719 12.2101 2.9867 12.4473 3.10532C12.6845 3.22394 12.8649 3.43194 12.9488 3.68356L13.9488 6.68356C13.9903 6.80815 14.0069 6.9397 13.9976 7.0707C13.9883 7.2017 13.9533 7.32959 13.8946 7.44706C13.8358 7.56452 13.7545 7.66927 13.6553 7.75532C13.5561 7.84137 13.4409 7.90703 13.3163 7.94856C13.0647 8.03243 12.7901 8.01292 12.5528 7.8943C12.4354 7.83557 12.3306 7.75427 12.2446 7.65506C12.1585 7.55584 12.0928 7.44065 12.0513 7.31606L11.0513 4.31606ZM3.05132 11.6836C3.09284 11.559 3.1585 11.4438 3.24455 11.3445C3.33059 11.2453 3.43534 11.164 3.55281 11.1053C3.67028 11.0466 3.79817 11.0115 3.92917 11.0022C4.06017 10.9929 4.19173 11.0095 4.31632 11.0511L7.31632 12.0511C7.44091 12.0926 7.5561 12.1583 7.65532 12.2443C7.75453 12.3304 7.83582 12.4351 7.89456 12.5526C7.95329 12.67 7.98831 12.7979 7.99762 12.9289C8.00693 13.0599 7.99035 13.1915 7.94882 13.3161C7.90729 13.4407 7.84162 13.5558 7.75557 13.6551C7.66953 13.7543 7.56478 13.8356 7.44731 13.8943C7.32985 13.953 7.20196 13.9881 7.07096 13.9974C6.93996 14.0067 6.80841 13.9901 6.68382 13.9486L3.68382 12.9486C3.55922 12.907 3.44402 12.8414 3.3448 12.7553C3.24558 12.6693 3.16429 12.5645 3.10555 12.4471C3.04682 12.3296 3.0118 12.2017 3.00249 12.0707C2.99319 11.9397 3.00978 11.8082 3.05132 11.6836ZM28.9488 20.3161C28.9073 20.4407 28.8416 20.5559 28.7556 20.6551C28.6695 20.7543 28.5648 20.8356 28.4473 20.8943C28.3299 20.9531 28.202 20.9881 28.071 20.9974C27.94 21.0067 27.8084 20.9901 27.6838 20.9486L24.6838 19.9486C24.4322 19.8647 24.2242 19.6843 24.1056 19.4471C23.987 19.2098 23.9674 18.9352 24.0513 18.6836C24.1352 18.4319 24.3156 18.2239 24.5528 18.1053C24.7901 17.9867 25.0647 17.9672 25.3163 18.0511L28.3163 19.0511C28.4409 19.0926 28.5561 19.1582 28.6553 19.2443C28.7546 19.3303 28.8358 19.4351 28.8946 19.5526C28.9533 19.67 28.9883 19.7979 28.9976 19.9289C29.007 20.0599 28.9904 20.1915 28.9488 20.3161ZM20.9488 27.6836C21.0327 27.9352 21.0132 28.2098 20.8946 28.4471C20.7759 28.6843 20.5679 28.8647 20.3163 28.9486C20.0647 29.0324 19.7901 29.0129 19.5528 28.8943C19.3156 28.7757 19.1352 28.5677 19.0513 28.3161L18.0513 25.3161C17.9674 25.0644 17.987 24.7898 18.1056 24.5526C18.2242 24.3153 18.4322 24.1349 18.6838 24.0511C18.9354 23.9672 19.2101 23.9867 19.4473 24.1053C19.6845 24.2239 19.8649 24.4319 19.9488 24.6836L20.9488 27.6836Z" fill="currentColor"/>
<path d="M77.3538 2.64616C77.3073 2.59967 77.2522 2.56279 77.1915 2.53763C77.1308 2.51246 77.0657 2.49951 77 2.49951C76.9343 2.49951 76.8693 2.51246 76.8086 2.53763C76.7479 2.56279 76.6927 2.59967 76.6463 2.64616L69.7425 9.54991L68.7175 8.5249C68.3925 8.19986 68.0067 7.94202 67.582 7.76611C67.1573 7.59019 66.7022 7.49965 66.2425 7.49965C65.7829 7.49965 65.3277 7.59019 64.9031 7.76611C64.4784 7.94202 64.0925 8.19986 63.7675 8.5249L60.5 11.7924L59.3538 10.6462C59.26 10.5523 59.1327 10.4996 59 10.4996C58.8674 10.4996 58.7401 10.5523 58.6463 10.6462C58.5525 10.74 58.4998 10.8672 58.4998 10.9999C58.4998 11.1326 58.5525 11.2598 58.6463 11.3537L59.7925 12.4999L56.525 15.7674C56.2 16.0924 55.9422 16.4783 55.7662 16.9029C55.5903 17.3276 55.4998 17.7827 55.4998 18.2424C55.4998 18.7021 55.5903 19.1572 55.7662 19.5819C55.9422 20.0065 56.2 20.3924 56.525 20.7174L57.55 21.7424L50.6463 28.6462C50.5525 28.74 50.4998 28.8672 50.4998 28.9999C50.4998 29.1326 50.5525 29.2598 50.6463 29.3537C50.7401 29.4475 50.8674 29.5002 51 29.5002C51.1327 29.5002 51.26 29.4475 51.3538 29.3537L58.2575 22.4499L59.2825 23.4749C59.6075 23.7999 59.9934 24.0578 60.4181 24.2337C60.8427 24.4096 61.2979 24.5002 61.7575 24.5002C62.2172 24.5002 62.6723 24.4096 63.097 24.2337C63.5217 24.0578 63.9075 23.7999 64.2325 23.4749L67.5 20.2074L68.6463 21.3537C68.7401 21.4475 68.8674 21.5002 69 21.5002C69.1327 21.5002 69.26 21.4475 69.3538 21.3537C69.4476 21.2598 69.5003 21.1326 69.5003 20.9999C69.5003 20.8672 69.4476 20.74 69.3538 20.6462L68.2075 19.4999L71.475 16.2324C71.8001 15.9074 72.0579 15.5215 72.2338 15.0969C72.4097 14.6722 72.5003 14.2171 72.5003 13.7574C72.5003 13.2977 72.4097 12.8426 72.2338 12.4179C72.0579 11.9933 71.8001 11.6074 71.475 11.2824L70.45 10.2574L77.3538 3.35366C77.4003 3.30722 77.4372 3.25207 77.4623 3.19138C77.4875 3.13068 77.5004 3.06561 77.5004 2.99991C77.5004 2.9342 77.4875 2.86913 77.4623 2.80843C77.4372 2.74774 77.4003 2.69259 77.3538 2.64616ZM63.525 22.7712C63.0562 23.2398 62.4204 23.5031 61.7575 23.5031C61.0946 23.5031 60.4589 23.2398 59.99 22.7712L57.2325 20.0099C56.7639 19.5411 56.5006 18.9053 56.5006 18.2424C56.5006 17.5795 56.7639 16.9437 57.2325 16.4749L60.5 13.2074L66.7925 19.4999L63.525 22.7712ZM70.7675 15.5287L67.5 18.7924L61.2075 12.4999L64.475 9.23241C64.9439 8.76373 65.5796 8.50044 66.2425 8.50044C66.9054 8.50044 67.5412 8.76373 68.01 9.23241L70.7675 11.9899C71.2362 12.4587 71.4995 13.0945 71.4995 13.7574C71.4995 14.4203 71.2362 15.0561 70.7675 15.5249V15.5287ZM59.5263 4.1574C59.5019 4.09432 59.4905 4.02693 59.4929 3.95933C59.4952 3.89172 59.5113 3.8253 59.5401 3.76408C59.5689 3.70287 59.6098 3.64813 59.6604 3.60318C59.7109 3.55824 59.7701 3.52402 59.8343 3.50261C59.8984 3.48119 59.9663 3.47301 60.0337 3.47858C60.1011 3.48415 60.1667 3.50333 60.2265 3.53498C60.2863 3.56663 60.339 3.61009 60.3815 3.66271C60.424 3.71534 60.4554 3.77605 60.4738 3.84116L61.4738 6.84116C61.4946 6.90345 61.5029 6.96923 61.4982 7.03473C61.4935 7.10023 61.476 7.16417 61.4467 7.22291C61.4173 7.28164 61.3767 7.33402 61.327 7.37704C61.2774 7.42006 61.2198 7.45289 61.1575 7.47366C61.1068 7.49096 61.0536 7.49983 61 7.49991C60.8951 7.49974 60.7929 7.46657 60.7079 7.4051C60.6229 7.34364 60.5593 7.25698 60.5263 7.1574L59.5263 4.1574ZM51.5263 11.8412C51.5683 11.7171 51.6573 11.6144 51.7742 11.5553C51.891 11.4962 52.0264 11.4852 52.1513 11.5249L55.1513 12.5249C55.2639 12.5619 55.3596 12.6377 55.4216 12.7387C55.4835 12.8397 55.5075 12.9595 55.4893 13.0766C55.4712 13.1937 55.412 13.3005 55.3224 13.378C55.2328 13.4556 55.1185 13.4988 55 13.4999C54.9465 13.4998 54.8932 13.491 54.8425 13.4737L51.8425 12.4737C51.7802 12.4529 51.7226 12.4201 51.673 12.377C51.6234 12.334 51.5828 12.2816 51.5534 12.2229C51.524 12.1642 51.5065 12.1002 51.5019 12.0347C51.4972 11.9692 51.5055 11.9035 51.5263 11.8412ZM76.4738 20.1587C76.4405 20.258 76.3769 20.3444 76.2919 20.4056C76.2069 20.4668 76.1048 20.4998 76 20.4999C75.9465 20.4998 75.8932 20.491 75.8425 20.4737L72.8425 19.4737C72.7199 19.4294 72.6193 19.339 72.5624 19.2217C72.5054 19.1044 72.4965 18.9695 72.5376 18.8457C72.5787 18.722 72.6665 18.6192 72.7823 18.5592C72.8981 18.4993 73.0328 18.487 73.1575 18.5249L76.1575 19.5249C76.22 19.5457 76.2777 19.5785 76.3274 19.6216C76.3771 19.6648 76.4178 19.7173 76.4472 19.7761C76.4766 19.835 76.4941 19.8991 76.4986 19.9647C76.5032 20.0304 76.4947 20.0963 76.4738 20.1587ZM68.4738 27.8412C68.4946 27.9035 68.5028 27.9692 68.4982 28.0347C68.4935 28.1002 68.476 28.1642 68.4467 28.2229C68.4173 28.2816 68.3767 28.334 68.327 28.377C68.2774 28.4201 68.2198 28.4529 68.1575 28.4737C68.1068 28.491 68.0536 28.4998 68 28.4999C67.8953 28.4998 67.7932 28.4668 67.7082 28.4056C67.6232 28.3444 67.5595 28.258 67.5263 28.1587L66.5263 25.1587C66.4899 25.0346 66.503 24.9012 66.5628 24.7865C66.6226 24.6719 66.7246 24.5849 66.8472 24.5438C66.9698 24.5027 67.1036 24.5107 67.2204 24.5662C67.3373 24.6216 67.4281 24.7202 67.4738 24.8412L68.4738 27.8412Z" fill="currentColor"/>
<path d="M125.53 2.46983C125.389 2.32938 125.199 2.25049 125 2.25049C124.801 2.25049 124.611 2.32938 124.47 2.46983L117.742 9.19608L116.894 8.34858C116.19 7.64556 115.237 7.25063 114.242 7.25063C113.248 7.25063 112.294 7.64556 111.591 8.34858L108.5 11.4386L107.53 10.4698C107.388 10.3373 107.2 10.2652 107.005 10.2687C106.811 10.2721 106.626 10.3508 106.488 10.4882C106.351 10.6256 106.272 10.811 106.269 11.0053C106.265 11.1996 106.337 11.3877 106.47 11.5298L107.439 12.4998L104.349 15.5911C103.646 16.2943 103.251 17.248 103.251 18.2423C103.251 19.2367 103.646 20.1903 104.349 20.8936L105.196 21.7423L98.4699 28.4698C98.3962 28.5385 98.3371 28.6213 98.2961 28.7133C98.2551 28.8053 98.2331 28.9046 98.2313 29.0053C98.2295 29.106 98.2481 29.206 98.2858 29.2994C98.3235 29.3928 98.3797 29.4776 98.4509 29.5489C98.5221 29.6201 98.6069 29.6762 98.7003 29.714C98.7937 29.7517 98.8937 29.7702 98.9944 29.7684C99.0951 29.7666 99.1944 29.7446 99.2864 29.7036C99.3784 29.6626 99.4612 29.6035 99.5299 29.5298L106.257 22.8036L107.106 23.6511C107.809 24.3541 108.763 24.749 109.757 24.749C110.752 24.749 111.705 24.3541 112.409 23.6511L115.5 20.5611L116.47 21.5298C116.612 21.6623 116.8 21.7344 116.994 21.731C117.189 21.7276 117.374 21.6489 117.512 21.5114C117.649 21.374 117.728 21.1887 117.731 20.9944C117.735 20.8 117.662 20.612 117.53 20.4698L116.561 19.4998L119.651 16.4086C120.354 15.7053 120.749 14.7517 120.749 13.7573C120.749 12.763 120.354 11.8093 119.651 11.1061L118.804 10.2573L125.53 3.52983C125.67 3.3892 125.749 3.19858 125.749 2.99983C125.749 2.80108 125.67 2.61045 125.53 2.46983ZM111.349 22.5948C111.14 22.8038 110.892 22.9696 110.619 23.0828C110.346 23.1959 110.053 23.2541 109.757 23.2541C109.462 23.2541 109.169 23.1959 108.896 23.0828C108.623 22.9696 108.375 22.8038 108.166 22.5948L105.409 19.8336C105.2 19.6246 105.034 19.3766 104.921 19.1035C104.808 18.8305 104.749 18.5379 104.749 18.2423C104.749 17.9468 104.808 17.6542 104.921 17.3811C105.034 17.1081 105.2 16.86 105.409 16.6511L108.5 13.5611L114.439 19.4998L111.349 22.5948ZM118.591 15.3523L115.5 18.4386L109.561 12.4998L112.651 9.40858C112.86 9.19957 113.108 9.03377 113.381 8.92065C113.654 8.80753 113.947 8.74931 114.242 8.74931C114.538 8.74931 114.831 8.80753 115.104 8.92065C115.377 9.03377 115.625 9.19957 115.834 9.40858L118.591 12.1661C118.8 12.375 118.966 12.6231 119.079 12.8961C119.192 13.1692 119.25 13.4618 119.25 13.7573C119.25 14.0529 119.192 14.3455 119.079 14.6185C118.966 14.8916 118.8 15.1396 118.591 15.3486V15.3523ZM107.289 4.23733C107.255 4.14337 107.241 4.04369 107.246 3.94411C107.252 3.84453 107.277 3.74706 107.321 3.6574C107.365 3.56774 107.426 3.48769 107.501 3.42194C107.576 3.35619 107.663 3.30605 107.758 3.27446C107.852 3.24287 107.952 3.23047 108.052 3.23798C108.151 3.24548 108.248 3.27275 108.337 3.31818C108.426 3.36361 108.504 3.42629 108.569 3.50255C108.633 3.57881 108.681 3.66713 108.711 3.76233L109.711 6.76233C109.745 6.85629 109.759 6.95597 109.753 7.05555C109.748 7.15512 109.723 7.25259 109.679 7.34225C109.635 7.43191 109.574 7.51196 109.499 7.57772C109.424 7.64347 109.337 7.69361 109.242 7.72519C109.148 7.75678 109.048 7.76919 108.948 7.76168C108.849 7.75417 108.752 7.72691 108.663 7.68148C108.574 7.63605 108.495 7.57337 108.431 7.49711C108.367 7.42084 108.318 7.33253 108.289 7.23733L107.289 4.23733ZM99.2887 11.7623C99.3517 11.5737 99.487 11.4179 99.6649 11.329C99.8429 11.2402 100.049 11.2256 100.237 11.2886L103.237 12.2886C103.333 12.3183 103.421 12.3667 103.497 12.431C103.573 12.4952 103.636 12.5741 103.682 12.6629C103.727 12.7516 103.754 12.8486 103.762 12.948C103.769 13.0475 103.757 13.1474 103.725 13.242C103.694 13.3366 103.644 13.424 103.578 13.499C103.512 13.574 103.432 13.6351 103.342 13.6788C103.253 13.7224 103.155 13.7478 103.056 13.7533C102.956 13.7589 102.856 13.7445 102.762 13.7111L99.7624 12.7111C99.5738 12.6481 99.4179 12.5127 99.3291 12.3348C99.2403 12.1569 99.2257 11.951 99.2887 11.7623ZM124.711 20.2373C124.648 20.4259 124.513 20.5818 124.335 20.6706C124.157 20.7595 123.951 20.774 123.762 20.7111L120.762 19.7111C120.577 19.6452 120.426 19.5095 120.34 19.3329C120.254 19.1564 120.24 18.9532 120.303 18.767C120.365 18.5807 120.497 18.4263 120.672 18.3368C120.847 18.2474 121.05 18.2301 121.237 18.2886L124.237 19.2886C124.426 19.3516 124.582 19.4869 124.671 19.6649C124.76 19.8428 124.774 20.0487 124.711 20.2373ZM116.711 27.7623C116.745 27.8563 116.759 27.956 116.753 28.0555C116.748 28.1551 116.723 28.2526 116.679 28.3423C116.635 28.4319 116.574 28.512 116.499 28.5777C116.424 28.6435 116.337 28.6936 116.242 28.7252C116.148 28.7568 116.048 28.7692 115.948 28.7617C115.849 28.7542 115.752 28.7269 115.663 28.6815C115.574 28.6361 115.495 28.5734 115.431 28.4971C115.367 28.4208 115.318 28.3325 115.289 28.2373L114.289 25.2373C114.255 25.1434 114.241 25.0437 114.246 24.9441C114.252 24.8445 114.277 24.7471 114.321 24.6574C114.365 24.5677 114.426 24.4877 114.501 24.4219C114.576 24.3562 114.663 24.306 114.758 24.2745C114.852 24.2429 114.952 24.2305 115.052 24.238C115.151 24.2455 115.248 24.2727 115.337 24.3182C115.426 24.3636 115.504 24.4263 115.569 24.5026C115.633 24.5788 115.681 24.6671 115.711 24.7623L116.711 27.7623Z" fill="currentColor"/>
<path d="M174.061 1.93874C173.922 1.7989 173.756 1.68795 173.574 1.61224C173.392 1.53653 173.196 1.49756 172.999 1.49756C172.801 1.49756 172.606 1.53653 172.423 1.61224C172.241 1.68795 172.075 1.7989 171.936 1.93874L165.742 8.13624L165.425 7.81749C164.58 6.97517 163.436 6.50216 162.243 6.50216C161.05 6.50216 159.906 6.97517 159.061 7.81749L156.5 10.375L156.061 9.93499C155.922 9.79546 155.756 9.68478 155.574 9.60927C155.391 9.53376 155.196 9.49489 154.999 9.49489C154.6 9.49489 154.218 9.6532 153.936 9.93499C153.797 10.0745 153.686 10.2402 153.61 10.4225C153.535 10.6048 153.496 10.8002 153.496 10.9975C153.496 11.396 153.654 11.7782 153.936 12.06L154.375 12.5L151.817 15.0612C150.974 15.9051 150.499 17.0497 150.499 18.2431C150.499 19.4365 150.974 20.5811 151.817 21.425L152.136 21.7425L145.939 27.9387C145.657 28.2205 145.499 28.6027 145.499 29.0012C145.499 29.3998 145.657 29.7819 145.939 30.0637C146.22 30.3455 146.603 30.5038 147.001 30.5038C147.4 30.5038 147.782 30.3455 148.064 30.0637L154.26 23.8662L154.577 24.185C155.422 25.027 156.566 25.4998 157.759 25.4998C158.952 25.4998 160.096 25.027 160.941 24.185L163.5 21.625L163.939 22.065C164.22 22.3468 164.603 22.5051 165.001 22.5051C165.4 22.5051 165.782 22.3468 166.064 22.065C166.345 21.7832 166.504 21.401 166.504 21.0025C166.504 20.604 166.345 20.2218 166.064 19.94L165.625 19.5L168.186 16.9387C169.03 16.0948 169.504 14.9503 169.504 13.7569C169.504 12.5634 169.03 11.4189 168.186 10.575L167.867 10.2575L174.065 4.06124C174.204 3.92169 174.314 3.75606 174.39 3.57383C174.465 3.3916 174.503 3.19634 174.503 2.99921C174.503 2.80209 174.463 2.60697 174.388 2.42501C174.312 2.24304 174.201 2.0778 174.061 1.93874ZM158.817 22.0637C158.678 22.2036 158.512 22.3145 158.33 22.3902C158.148 22.466 157.952 22.5049 157.755 22.5049C157.557 22.5049 157.362 22.466 157.18 22.3902C156.997 22.3145 156.832 22.2036 156.692 22.0637L153.939 19.3037C153.799 19.1644 153.688 18.9988 153.612 18.8165C153.536 18.6341 153.497 18.4387 153.497 18.2412C153.497 18.0438 153.536 17.8483 153.612 17.666C153.688 17.4837 153.799 17.3181 153.939 17.1787L156.5 14.625L161.375 19.5L158.817 22.0637ZM166.067 14.82L163.5 17.375L158.625 12.5L161.186 9.93874C161.325 9.7989 161.491 9.68795 161.673 9.61224C161.856 9.53653 162.051 9.49756 162.249 9.49756C162.446 9.49756 162.642 9.53653 162.824 9.61224C163.006 9.68795 163.172 9.7989 163.311 9.93874L166.069 12.6962C166.208 12.8356 166.319 13.0012 166.395 13.1835C166.471 13.3658 166.51 13.5613 166.51 13.7587C166.51 13.9562 166.471 14.1516 166.395 14.334C166.319 14.5163 166.208 14.6819 166.069 14.8212L166.067 14.82ZM146.577 11.5262C146.64 11.3393 146.738 11.1665 146.867 11.0177C146.996 10.8689 147.153 10.7469 147.33 10.6588C147.506 10.5707 147.698 10.5182 147.894 10.5043C148.091 10.4903 148.288 10.5152 148.475 10.5775L149.975 11.0775C150.166 11.136 150.344 11.2322 150.498 11.3604C150.652 11.4887 150.778 11.6465 150.87 11.8244C150.962 12.0023 151.017 12.1968 151.032 12.3964C151.048 12.596 151.023 12.7967 150.96 12.9866C150.896 13.1765 150.796 13.3519 150.664 13.5022C150.531 13.6526 150.37 13.775 150.19 13.8623C150.01 13.9495 149.814 13.9997 149.614 14.0101C149.414 14.0204 149.214 13.9906 149.026 13.9225L147.526 13.4225C147.149 13.2967 146.837 13.0263 146.659 12.6707C146.481 12.3152 146.452 11.9035 146.577 11.5262ZM154.577 4.47499C154.509 4.28675 154.479 4.08677 154.49 3.88683C154.5 3.6869 154.55 3.49106 154.638 3.31086C154.725 3.13065 154.847 2.96973 154.998 2.83758C155.148 2.70543 155.323 2.60471 155.513 2.54138C155.703 2.47805 155.904 2.45337 156.103 2.46881C156.303 2.48425 156.498 2.53949 156.675 2.63127C156.853 2.72306 157.011 2.84953 157.139 3.00323C157.268 3.15694 157.364 3.33477 157.422 3.52624L157.922 5.02624C158.037 5.40039 158 5.80437 157.821 6.15203C157.642 6.4997 157.333 6.76355 156.962 6.88731C156.591 7.01106 156.186 6.98494 155.834 6.81451C155.482 6.64408 155.211 6.34283 155.077 5.97499L154.577 4.47499ZM173.422 20.475C173.296 20.8522 173.026 21.1639 172.67 21.3416C172.314 21.5193 171.902 21.5484 171.525 21.4225L170.025 20.9225C169.657 20.7893 169.356 20.5177 169.185 20.1656C169.015 19.8134 168.989 19.4087 169.113 19.0376C169.236 18.6664 169.5 18.3584 169.848 18.179C170.196 17.9997 170.599 17.9632 170.974 18.0775L172.474 18.5775C172.661 18.6398 172.833 18.7383 172.982 18.8673C173.131 18.9964 173.253 19.1535 173.341 19.3297C173.429 19.5059 173.482 19.6978 173.496 19.8943C173.51 20.0908 173.485 20.2881 173.422 20.475ZM165.422 27.5262C165.492 27.7147 165.522 27.9152 165.512 28.1158C165.503 28.3163 165.453 28.5129 165.366 28.6938C165.279 28.8747 165.156 29.0363 165.005 29.169C164.855 29.3016 164.679 29.4027 164.488 29.4661C164.298 29.5296 164.096 29.5541 163.896 29.5383C163.696 29.5225 163.501 29.4667 163.323 29.3742C163.145 29.2816 162.987 29.1542 162.859 28.9996C162.731 28.8449 162.635 28.6661 162.577 28.4737L162.077 26.9737C162.008 26.7852 161.978 26.5848 161.987 26.3842C161.997 26.1836 162.047 25.9871 162.134 25.8062C162.221 25.6252 162.344 25.4637 162.495 25.331C162.645 25.1983 162.821 25.0973 163.012 25.0338C163.202 24.9704 163.403 24.9458 163.604 24.9616C163.804 24.9774 163.999 25.0333 164.177 25.1258C164.355 25.2184 164.513 25.3458 164.641 25.5004C164.769 25.6551 164.865 25.8339 164.922 26.0262L165.422 27.5262Z" fill="currentColor"/>
<path d="M221.708 2.29231C221.615 2.19933 221.504 2.12557 221.383 2.07525C221.262 2.02493 221.131 1.99902 221 1.99902C220.869 1.99902 220.739 2.02493 220.617 2.07525C220.496 2.12557 220.385 2.19933 220.293 2.29231L213.743 8.84356L213.071 8.17106C212.32 7.42225 211.303 7.00175 210.243 7.00175C209.182 7.00175 208.165 7.42225 207.414 8.17106L204.5 11.0861L203.708 10.2923C203.52 10.1047 203.265 9.99925 203 9.99925C202.735 9.99925 202.48 10.1047 202.293 10.2923C202.105 10.4799 202 10.7344 202 10.9998C202 11.2652 202.105 11.5197 202.293 11.7073L203.086 12.4998L200.171 15.4136C199.8 15.785 199.505 16.226 199.304 16.7114C199.103 17.1967 198.999 17.7169 198.999 18.2423C198.999 18.7677 199.103 19.2879 199.304 19.7733C199.505 20.2586 199.8 20.6996 200.171 21.0711L200.844 21.7423L194.293 28.2923C194.2 28.3852 194.126 28.4955 194.076 28.6169C194.025 28.7383 194 28.8684 194 28.9998C194 29.1312 194.025 29.2613 194.076 29.3827C194.126 29.5041 194.2 29.6144 194.293 29.7073C194.48 29.895 194.735 30.0004 195 30.0004C195.131 30.0004 195.262 29.9745 195.383 29.9242C195.504 29.8739 195.615 29.8002 195.708 29.7073L202.258 23.1561L202.929 23.8286C203.68 24.5771 204.697 24.9974 205.758 24.9974C206.818 24.9974 207.835 24.5771 208.586 23.8286L211.5 20.9136L212.293 21.7073C212.385 21.8002 212.496 21.8739 212.617 21.9242C212.739 21.9745 212.869 22.0004 213 22.0004C213.131 22.0004 213.262 21.9745 213.383 21.9242C213.504 21.8739 213.615 21.8002 213.708 21.7073C213.8 21.6144 213.874 21.5041 213.924 21.3827C213.975 21.2613 214.001 21.1312 214.001 20.9998C214.001 20.8684 213.975 20.7383 213.924 20.6169C213.874 20.4955 213.8 20.3852 213.708 20.2923L212.914 19.4998L215.829 16.5861C216.2 16.2146 216.495 15.7736 216.696 15.2883C216.897 14.8029 217.001 14.2827 217.001 13.7573C217.001 13.2319 216.897 12.7117 216.696 12.2264C216.495 11.741 216.2 11.3 215.829 10.9286L215.156 10.2573L221.708 3.70731C221.801 3.61444 221.874 3.50415 221.925 3.38275C221.975 3.26135 222.001 3.13123 222.001 2.99981C222.001 2.86839 221.975 2.73827 221.925 2.61687C221.874 2.49547 221.801 2.38518 221.708 2.29231ZM214.414 15.1673L211.5 18.0861L205.914 12.4998L208.829 9.58606C209.204 9.21127 209.712 9.00074 210.243 9.00074C210.773 9.00074 211.281 9.21127 211.656 9.58606L214.414 12.3361C214.6 12.5218 214.747 12.7423 214.847 12.985C214.948 13.2276 215 13.4878 215 13.7504C215 14.0131 214.948 14.2732 214.847 14.5159C214.747 14.7586 214.6 14.9791 214.414 15.1648V15.1673ZM203.051 4.31606C202.967 4.06444 202.987 3.7898 203.106 3.55256C203.224 3.31533 203.432 3.13493 203.684 3.05106C203.935 2.96719 204.21 2.9867 204.447 3.10532C204.685 3.22394 204.865 3.43194 204.949 3.68356L205.949 6.68356C205.99 6.80815 206.007 6.9397 205.998 7.0707C205.988 7.2017 205.953 7.32959 205.895 7.44706C205.836 7.56452 205.755 7.66927 205.655 7.75532C205.556 7.84137 205.441 7.90703 205.316 7.94856C205.065 8.03243 204.79 8.01292 204.553 7.8943C204.435 7.83557 204.331 7.75427 204.245 7.65506C204.159 7.55584 204.093 7.44065 204.051 7.31606L203.051 4.31606ZM195.051 11.6836C195.093 11.559 195.158 11.4438 195.245 11.3445C195.331 11.2453 195.435 11.164 195.553 11.1053C195.67 11.0466 195.798 11.0115 195.929 11.0022C196.06 10.9929 196.192 11.0095 196.316 11.0511L199.316 12.0511C199.441 12.0926 199.556 12.1583 199.655 12.2443C199.755 12.3304 199.836 12.4351 199.895 12.5526C199.953 12.67 199.988 12.7979 199.998 12.9289C200.007 13.0599 199.99 13.1915 199.949 13.3161C199.907 13.4407 199.842 13.5558 199.756 13.6551C199.67 13.7543 199.565 13.8356 199.447 13.8943C199.33 13.953 199.202 13.9881 199.071 13.9974C198.94 14.0067 198.808 13.9901 198.684 13.9486L195.684 12.9486C195.559 12.907 195.444 12.8414 195.345 12.7553C195.246 12.6693 195.164 12.5645 195.106 12.4471C195.047 12.3296 195.012 12.2017 195.002 12.0707C194.993 11.9397 195.01 11.8082 195.051 11.6836ZM220.949 20.3161C220.907 20.4407 220.842 20.5559 220.756 20.6551C220.67 20.7543 220.565 20.8356 220.447 20.8943C220.33 20.9531 220.202 20.9881 220.071 20.9974C219.94 21.0067 219.808 20.9901 219.684 20.9486L216.684 19.9486C216.432 19.8647 216.224 19.6843 216.106 19.4471C215.987 19.2098 215.967 18.9352 216.051 18.6836C216.135 18.4319 216.316 18.2239 216.553 18.1053C216.79 17.9867 217.065 17.9672 217.316 18.0511L220.316 19.0511C220.441 19.0926 220.556 19.1582 220.655 19.2443C220.755 19.3303 220.836 19.4351 220.895 19.5526C220.953 19.67 220.988 19.7979 220.998 19.9289C221.007 20.0599 220.99 20.1915 220.949 20.3161ZM212.949 27.6836C213.033 27.9352 213.013 28.2098 212.895 28.4471C212.776 28.6843 212.568 28.8647 212.316 28.9486C212.065 29.0324 211.79 29.0129 211.553 28.8943C211.316 28.7757 211.135 28.5677 211.051 28.3161L210.051 25.3161C209.967 25.0644 209.987 24.7898 210.106 24.5526C210.224 24.3153 210.432 24.1349 210.684 24.0511C210.935 23.9672 211.21 23.9867 211.447 24.1053C211.685 24.2239 211.865 24.4319 211.949 24.6836L212.949 27.6836Z" fill="currentColor"/>
<path opacity="0.2" d="M263.125 15.8752L255.875 23.1252C255.312 23.6878 254.549 24.0038 253.754 24.0038C252.958 24.0038 252.195 23.6878 251.633 23.1252L248.875 20.3639C248.314 19.8015 247.998 19.0393 247.998 18.2446C247.998 17.4499 248.314 16.6876 248.875 16.1252L256.125 8.87519C256.688 8.31263 257.451 7.99658 258.246 7.99658C259.042 7.99658 259.805 8.31263 260.368 8.87519L263.125 11.6364C263.686 12.1989 264.002 12.9611 264.002 13.7558C264.002 14.5505 263.686 15.3127 263.125 15.8752Z" fill="currentColor"/>
<path d="M269.708 2.29231C269.615 2.19933 269.504 2.12557 269.383 2.07525C269.262 2.02493 269.131 1.99902 269 1.99902C268.869 1.99902 268.739 2.02493 268.617 2.07525C268.496 2.12557 268.385 2.19933 268.293 2.29231L261.743 8.84356L261.071 8.17106C260.32 7.42225 259.303 7.00175 258.243 7.00175C257.182 7.00175 256.165 7.42225 255.414 8.17106L252.5 11.0861L251.708 10.2923C251.52 10.1047 251.265 9.99925 251 9.99925C250.735 9.99925 250.48 10.1047 250.293 10.2923C250.105 10.4799 250 10.7344 250 10.9998C250 11.2652 250.105 11.5197 250.293 11.7073L251.086 12.4998L248.171 15.4136C247.8 15.785 247.505 16.226 247.304 16.7114C247.103 17.1967 246.999 17.7169 246.999 18.2423C246.999 18.7677 247.103 19.2879 247.304 19.7733C247.505 20.2586 247.8 20.6996 248.171 21.0711L248.844 21.7423L242.293 28.2923C242.2 28.3852 242.126 28.4955 242.076 28.6169C242.025 28.7383 242 28.8684 242 28.9998C242 29.1312 242.025 29.2613 242.076 29.3827C242.126 29.5041 242.2 29.6144 242.293 29.7073C242.48 29.895 242.735 30.0004 243 30.0004C243.131 30.0004 243.262 29.9745 243.383 29.9242C243.504 29.8739 243.615 29.8002 243.708 29.7073L250.258 23.1561L250.929 23.8286C251.68 24.5771 252.697 24.9974 253.758 24.9974C254.818 24.9974 255.835 24.5771 256.586 23.8286L259.5 20.9136L260.293 21.7073C260.385 21.8002 260.496 21.8739 260.617 21.9242C260.739 21.9745 260.869 22.0004 261 22.0004C261.131 22.0004 261.262 21.9745 261.383 21.9242C261.504 21.8739 261.615 21.8002 261.708 21.7073C261.8 21.6144 261.874 21.5041 261.924 21.3827C261.975 21.2613 262.001 21.1312 262.001 20.9998C262.001 20.8684 261.975 20.7383 261.924 20.6169C261.874 20.4955 261.8 20.3852 261.708 20.2923L260.914 19.4998L263.829 16.5861C264.2 16.2146 264.495 15.7736 264.696 15.2883C264.897 14.8029 265.001 14.2827 265.001 13.7573C265.001 13.2319 264.897 12.7117 264.696 12.2264C264.495 11.741 264.2 11.3 263.829 10.9286L263.156 10.2573L269.708 3.70731C269.801 3.61444 269.874 3.50415 269.925 3.38275C269.975 3.26135 270.001 3.13123 270.001 2.99981C270.001 2.86839 269.975 2.73827 269.925 2.61687C269.874 2.49547 269.801 2.38518 269.708 2.29231ZM255.171 22.4173C254.796 22.7921 254.288 23.0026 253.758 23.0026C253.227 23.0026 252.719 22.7921 252.344 22.4173L249.586 19.6561C249.212 19.281 249.001 18.7725 249.001 18.2423C249.001 17.7121 249.212 17.2036 249.586 16.8286L252.5 13.9136L258.086 19.4998L255.171 22.4173ZM262.414 15.1748L259.5 18.0861L253.914 12.4998L256.829 9.58606C257.204 9.21127 257.712 9.00074 258.243 9.00074C258.773 9.00074 259.281 9.21127 259.656 9.58606L262.414 12.3361C262.6 12.5218 262.747 12.7423 262.847 12.985C262.948 13.2276 263 13.4878 263 13.7504C263 14.0131 262.948 14.2732 262.847 14.5159C262.747 14.7586 262.6 14.9791 262.414 15.1648V15.1748ZM251.051 4.31606C250.967 4.06444 250.987 3.7898 251.106 3.55256C251.224 3.31533 251.432 3.13493 251.684 3.05106C251.935 2.96719 252.21 2.9867 252.447 3.10532C252.685 3.22394 252.865 3.43194 252.949 3.68356L253.949 6.68356C253.99 6.80815 254.007 6.9397 253.998 7.0707C253.988 7.2017 253.953 7.32959 253.895 7.44706C253.836 7.56452 253.755 7.66927 253.655 7.75532C253.556 7.84137 253.441 7.90703 253.316 7.94856C253.065 8.03243 252.79 8.01292 252.553 7.8943C252.435 7.83557 252.331 7.75427 252.245 7.65506C252.159 7.55584 252.093 7.44065 252.051 7.31606L251.051 4.31606ZM243.051 11.6836C243.093 11.559 243.158 11.4438 243.245 11.3445C243.331 11.2453 243.435 11.164 243.553 11.1053C243.67 11.0466 243.798 11.0115 243.929 11.0022C244.06 10.9929 244.192 11.0095 244.316 11.0511L247.316 12.0511C247.441 12.0926 247.556 12.1583 247.655 12.2443C247.755 12.3304 247.836 12.4351 247.895 12.5526C247.953 12.67 247.988 12.7979 247.998 12.9289C248.007 13.0599 247.99 13.1915 247.949 13.3161C247.907 13.4407 247.842 13.5558 247.756 13.6551C247.67 13.7543 247.565 13.8356 247.447 13.8943C247.33 13.953 247.202 13.9881 247.071 13.9974C246.94 14.0067 246.808 13.9901 246.684 13.9486L243.684 12.9486C243.559 12.907 243.444 12.8414 243.345 12.7553C243.246 12.6693 243.164 12.5645 243.106 12.4471C243.047 12.3296 243.012 12.2017 243.002 12.0707C242.993 11.9397 243.01 11.8082 243.051 11.6836ZM268.949 20.3161C268.907 20.4407 268.842 20.5559 268.756 20.6551C268.67 20.7543 268.565 20.8356 268.447 20.8943C268.33 20.9531 268.202 20.9881 268.071 20.9974C267.94 21.0067 267.808 20.9901 267.684 20.9486L264.684 19.9486C264.432 19.8647 264.224 19.6843 264.106 19.4471C263.987 19.2098 263.967 18.9352 264.051 18.6836C264.135 18.4319 264.316 18.2239 264.553 18.1053C264.79 17.9867 265.065 17.9672 265.316 18.0511L268.316 19.0511C268.441 19.0926 268.556 19.1582 268.655 19.2443C268.755 19.3303 268.836 19.4351 268.895 19.5526C268.953 19.67 268.988 19.7979 268.998 19.9289C269.007 20.0599 268.99 20.1915 268.949 20.3161ZM260.949 27.6836C261.033 27.9352 261.013 28.2098 260.895 28.4471C260.776 28.6843 260.568 28.8647 260.316 28.9486C260.065 29.0324 259.79 29.0129 259.553 28.8943C259.316 28.7757 259.135 28.5677 259.051 28.3161L258.051 25.3161C257.967 25.0644 257.987 24.7898 258.106 24.5526C258.224 24.3153 258.432 24.1349 258.684 24.0511C258.935 23.9672 259.21 23.9867 259.447 24.1053C259.685 24.2239 259.865 24.4319 259.949 24.6836L260.949 27.6836Z" fill="currentColor"/>
</g>
<defs>
<clipPath id="clip0_17_10844">
<rect width="272" height="32" rx="5" fill="white"/>
</clipPath>
</defs>
</svg>
