<svg width="272" height="32" viewBox="0 0 272 32" fill="none" xmlns="http://www.w3.org/2000/svg">
<g clip-path="url(#clip0_17_10830)">
<path d="M15 16V6C15 5.73478 15.1054 5.48043 15.2929 5.29289C15.4804 5.10536 15.7348 5 16 5C16.2652 5 16.5196 5.10536 16.7071 5.29289C16.8946 5.48043 17 5.73478 17 6V16C17 16.2652 16.8946 16.5196 16.7071 16.7071C16.5196 16.8946 16.2652 17 16 17C15.7348 17 15.4804 16.8946 15.2929 16.7071C15.1054 16.5196 15 16.2652 15 16ZM22.5462 6.1625C22.3242 6.02213 22.0557 5.9748 21.799 6.03076C21.5423 6.08671 21.3179 6.24144 21.1744 6.46151C21.0309 6.68158 20.9797 6.94929 21.032 7.20678C21.0842 7.46426 21.2358 7.69083 21.4538 7.8375C24.3425 9.72125 26 12.6962 26 16C26 18.6522 24.9464 21.1957 23.0711 23.0711C21.1957 24.9464 18.6522 26 16 26C13.3478 26 10.8043 24.9464 8.92893 23.0711C7.05357 21.1957 6 18.6522 6 16C6 12.6962 7.6575 9.72125 10.5463 7.8375C10.7642 7.69083 10.9157 7.46426 10.968 7.20678C11.0203 6.94929 10.9691 6.68158 10.8256 6.46151C10.6821 6.24144 10.4577 6.08671 10.201 6.03076C9.94427 5.9748 9.67585 6.02213 9.45375 6.1625C5.9875 8.4225 4 12.0075 4 16C4 19.1826 5.26428 22.2348 7.51472 24.4853C9.76515 26.7357 12.8174 28 16 28C19.1826 28 22.2348 26.7357 24.4853 24.4853C26.7357 22.2348 28 19.1826 28 16C28 12.0075 26.0125 8.4225 22.5462 6.1625Z" fill="currentColor"/>
<path d="M63.5 16V6C63.5 5.86739 63.5527 5.74021 63.6464 5.64645C63.7402 5.55268 63.8674 5.5 64 5.5C64.1326 5.5 64.2598 5.55268 64.3536 5.64645C64.4473 5.74021 64.5 5.86739 64.5 6V16C64.5 16.1326 64.4473 16.2598 64.3536 16.3536C64.2598 16.4473 64.1326 16.5 64 16.5C63.8674 16.5 63.7402 16.4473 63.6464 16.3536C63.5527 16.2598 63.5 16.1326 63.5 16ZM70.2725 6.58125C70.2176 6.54232 70.1553 6.51489 70.0895 6.50059C70.0238 6.4863 69.9557 6.48544 69.8896 6.49807C69.8235 6.5107 69.7606 6.53656 69.7047 6.57409C69.6488 6.61162 69.601 6.66005 69.5643 6.71648C69.5276 6.77292 69.5027 6.83618 69.491 6.90249C69.4793 6.9688 69.4811 7.03678 69.4964 7.10236C69.5116 7.16794 69.5399 7.22977 69.5797 7.28414C69.6194 7.33851 69.6697 7.38429 69.7275 7.41875C72.76 9.39625 74.5 12.525 74.5 16C74.5 18.7848 73.3938 21.4555 71.4246 23.4246C69.4555 25.3938 66.7848 26.5 64 26.5C61.2152 26.5 58.5445 25.3938 56.5754 23.4246C54.6062 21.4555 53.5 18.7848 53.5 16C53.5 12.525 55.24 9.39625 58.2725 7.41875C58.3779 7.34406 58.4503 7.23147 58.4745 7.10459C58.4988 6.9777 58.4729 6.84636 58.4025 6.73809C58.332 6.62981 58.2224 6.55301 58.0966 6.52378C57.9707 6.49454 57.8385 6.51514 57.7275 6.58125C54.405 8.75 52.5 12.18 52.5 16C52.5 19.05 53.7116 21.9751 55.8683 24.1317C58.0249 26.2884 60.95 27.5 64 27.5C67.05 27.5 69.9751 26.2884 72.1317 24.1317C74.2884 21.9751 75.5 19.05 75.5 16C75.5 12.18 73.595 8.75 70.2725 6.58125Z" fill="currentColor"/>
<path d="M111.25 16V6C111.25 5.80109 111.329 5.61032 111.47 5.46967C111.61 5.32902 111.801 5.25 112 5.25C112.199 5.25 112.39 5.32902 112.53 5.46967C112.671 5.61032 112.75 5.80109 112.75 6V16C112.75 16.1989 112.671 16.3897 112.53 16.5303C112.39 16.671 112.199 16.75 112 16.75C111.801 16.75 111.61 16.671 111.47 16.5303C111.329 16.3897 111.25 16.1989 111.25 16ZM118.41 6.375C118.245 6.28497 118.051 6.26043 117.869 6.30625C117.686 6.35207 117.528 6.46489 117.424 6.62232C117.321 6.77974 117.281 6.97025 117.311 7.15601C117.342 7.34177 117.442 7.50918 117.59 7.625C120.551 9.55875 122.25 12.61 122.25 16C122.25 18.7185 121.17 21.3256 119.248 23.2478C117.326 25.1701 114.718 26.25 112 26.25C109.282 26.25 106.674 25.1701 104.752 23.2478C102.83 21.3256 101.75 18.7185 101.75 16C101.75 12.61 103.449 9.55875 106.41 7.625C106.558 7.50918 106.658 7.34177 106.689 7.15601C106.719 6.97025 106.679 6.77974 106.576 6.62232C106.472 6.46489 106.314 6.35207 106.131 6.30625C105.949 6.26043 105.755 6.28497 105.59 6.375C102.196 8.585 100.25 12.0938 100.25 16C100.25 19.1163 101.488 22.105 103.691 24.3085C105.895 26.5121 108.884 27.75 112 27.75C115.116 27.75 118.105 26.5121 120.309 24.3085C122.512 22.105 123.75 19.1163 123.75 16C123.75 12.0938 121.804 8.585 118.41 6.375Z" fill="currentColor"/>
<path d="M158.5 16V6C158.5 5.60218 158.658 5.22064 158.939 4.93934C159.221 4.65804 159.602 4.5 160 4.5C160.398 4.5 160.779 4.65804 161.061 4.93934C161.342 5.22064 161.5 5.60218 161.5 6V16C161.5 16.3978 161.342 16.7794 161.061 17.0607C160.779 17.342 160.398 17.5 160 17.5C159.602 17.5 159.221 17.342 158.939 17.0607C158.658 16.7794 158.5 16.3978 158.5 16ZM166.819 5.75C166.486 5.54491 166.086 5.47804 165.704 5.56365C165.322 5.64926 164.989 5.88057 164.776 6.20827C164.562 6.53596 164.485 6.93413 164.561 7.31787C164.636 7.70161 164.859 8.04058 165.181 8.2625C167.926 10.0462 169.5 12.875 169.5 16C169.5 18.5196 168.499 20.9359 166.718 22.7175C164.936 24.4991 162.52 25.5 160 25.5C157.48 25.5 155.064 24.4991 153.282 22.7175C151.501 20.9359 150.5 18.5196 150.5 16C150.5 12.875 152.074 10.0463 154.819 8.25625C155.124 8.02769 155.33 7.69162 155.396 7.31629C155.463 6.94097 155.383 6.55454 155.175 6.23549C154.966 5.91645 154.644 5.68871 154.274 5.59854C153.904 5.50837 153.513 5.56252 153.181 5.75C149.57 8.0975 147.5 11.8362 147.5 16C147.5 19.3152 148.817 22.4946 151.161 24.8388C153.505 27.183 156.685 28.5 160 28.5C163.315 28.5 166.495 27.183 168.839 24.8388C171.183 22.4946 172.5 19.3152 172.5 16C172.5 11.8362 170.43 8.0975 166.819 5.75Z" fill="currentColor"/>
<path d="M208 3C205.429 3 202.915 3.76244 200.778 5.1909C198.64 6.61935 196.974 8.64968 195.99 11.0251C195.006 13.4006 194.748 16.0144 195.25 18.5362C195.751 21.0579 196.99 23.3743 198.808 25.1924C200.626 27.0105 202.942 28.2486 205.464 28.7502C207.986 29.2518 210.599 28.9944 212.975 28.0104C215.35 27.0265 217.381 25.3603 218.809 23.2224C220.238 21.0846 221 18.5712 221 16C221 12.5522 219.63 9.24558 217.192 6.80761C214.754 4.36964 211.448 3 208 3ZM207 8C207 7.73478 207.105 7.48043 207.293 7.29289C207.48 7.10536 207.735 7 208 7C208.265 7 208.52 7.10536 208.707 7.29289C208.895 7.48043 209 7.73478 209 8V16C209 16.2652 208.895 16.5196 208.707 16.7071C208.52 16.8946 208.265 17 208 17C207.735 17 207.48 16.8946 207.293 16.7071C207.105 16.5196 207 16.2652 207 16V8ZM208 26C205.855 26.0002 203.766 25.3104 202.043 24.0324C200.319 22.7545 199.053 20.9562 198.43 18.9031C197.807 16.85 197.861 14.651 198.584 12.631C199.306 10.6109 200.66 8.87687 202.444 7.685C202.553 7.60794 202.676 7.55347 202.806 7.5248C202.937 7.49613 203.071 7.49385 203.203 7.51808C203.334 7.54232 203.459 7.59258 203.571 7.6659C203.682 7.73923 203.778 7.83414 203.852 7.94503C203.926 8.05592 203.978 8.18056 204.003 8.3116C204.028 8.44264 204.027 8.57742 204 8.70801C203.972 8.83859 203.919 8.96234 203.842 9.07195C203.766 9.18157 203.669 9.27483 203.556 9.34625C202.129 10.2996 201.046 11.6868 200.468 13.3027C199.89 14.9187 199.846 16.6779 200.344 18.3204C200.842 19.9628 201.856 21.4016 203.234 22.4241C204.613 23.4465 206.284 23.9985 208 23.9985C209.716 23.9985 211.387 23.4465 212.766 22.4241C214.144 21.4016 215.158 19.9628 215.656 18.3204C216.154 16.6779 216.11 14.9187 215.532 13.3027C214.954 11.6868 213.871 10.2996 212.444 9.34625C212.331 9.27483 212.234 9.18157 212.158 9.07195C212.081 8.96234 212.028 8.83859 212 8.70801C211.973 8.57742 211.972 8.44264 211.997 8.3116C212.022 8.18056 212.074 8.05592 212.148 7.94503C212.222 7.83414 212.318 7.73923 212.429 7.6659C212.541 7.59258 212.666 7.54232 212.797 7.51808C212.929 7.49385 213.063 7.49613 213.194 7.5248C213.324 7.55347 213.447 7.60794 213.556 7.685C215.34 8.87687 216.694 10.6109 217.416 12.631C218.139 14.651 218.193 16.85 217.57 18.9031C216.947 20.9562 215.681 22.7545 213.958 24.0324C212.234 25.3104 210.145 26.0002 208 26Z" fill="currentColor"/>
<path opacity="0.2" d="M267 16C267 18.1756 266.355 20.3023 265.146 22.1113C263.937 23.9202 262.22 25.3301 260.21 26.1627C258.2 26.9952 255.988 27.2131 253.854 26.7886C251.72 26.3642 249.76 25.3166 248.222 23.7782C246.683 22.2398 245.636 20.2798 245.211 18.146C244.787 16.0122 245.005 13.8005 245.837 11.7905C246.67 9.7805 248.08 8.06253 249.889 6.85383C251.698 5.64514 253.824 5 256 5C258.917 5 261.715 6.15893 263.778 8.22183C265.841 10.2847 267 13.0826 267 16Z" fill="currentColor"/>
<path d="M255 16V6C255 5.73478 255.105 5.48043 255.293 5.29289C255.48 5.10536 255.735 5 256 5C256.265 5 256.52 5.10536 256.707 5.29289C256.895 5.48043 257 5.73478 257 6V16C257 16.2652 256.895 16.5196 256.707 16.7071C256.52 16.8946 256.265 17 256 17C255.735 17 255.48 16.8946 255.293 16.7071C255.105 16.5196 255 16.2652 255 16ZM262.546 6.1625C262.324 6.02213 262.056 5.9748 261.799 6.03076C261.542 6.08671 261.318 6.24144 261.174 6.46151C261.031 6.68158 260.98 6.94929 261.032 7.20678C261.084 7.46426 261.236 7.69083 261.454 7.8375C264.343 9.72125 266 12.6962 266 16C266 18.6522 264.946 21.1957 263.071 23.0711C261.196 24.9464 258.652 26 256 26C253.348 26 250.804 24.9464 248.929 23.0711C247.054 21.1957 246 18.6522 246 16C246 12.6962 247.658 9.72125 250.546 7.8375C250.764 7.69083 250.916 7.46426 250.968 7.20678C251.02 6.94929 250.969 6.68158 250.826 6.46151C250.682 6.24144 250.458 6.08671 250.201 6.03076C249.944 5.9748 249.676 6.02213 249.454 6.1625C245.987 8.4225 244 12.0075 244 16C244 19.1826 245.264 22.2348 247.515 24.4853C249.765 26.7357 252.817 28 256 28C259.183 28 262.235 26.7357 264.485 24.4853C266.736 22.2348 268 19.1826 268 16C268 12.0075 266.012 8.4225 262.546 6.1625Z" fill="currentColor"/>
</g>
<defs>
<clipPath id="clip0_17_10830">
<rect width="272" height="32" rx="5" fill="white"/>
</clipPath>
</defs>
</svg>
