<svg width="272" height="32" viewBox="0 0 272 32" fill="none" xmlns="http://www.w3.org/2000/svg">
<g clip-path="url(#clip0_17_10755)">
<path d="M14 27C14 27.2652 13.8946 27.5196 13.7071 27.7071C13.5196 27.8946 13.2652 28 13 28H6C5.46957 28 4.96086 27.7893 4.58579 27.4142C4.21071 27.0391 4 26.5304 4 26V6C4 5.46957 4.21071 4.96086 4.58579 4.58579C4.96086 4.21071 5.46957 4 6 4H13C13.2652 4 13.5196 4.10536 13.7071 4.29289C13.8946 4.48043 14 4.73478 14 5C14 5.26522 13.8946 5.51957 13.7071 5.70711C13.5196 5.89464 13.2652 6 13 6H6V26H13C13.2652 26 13.5196 26.1054 13.7071 26.2929C13.8946 26.4804 14 26.7348 14 27ZM27.7075 15.2925L22.7075 10.2925C22.5199 10.1049 22.2654 9.99944 22 9.99944C21.7346 9.99944 21.4801 10.1049 21.2925 10.2925C21.1049 10.4801 20.9994 10.7346 20.9994 11C20.9994 11.2654 21.1049 11.5199 21.2925 11.7075L24.5863 15H13C12.7348 15 12.4804 15.1054 12.2929 15.2929C12.1054 15.4804 12 15.7348 12 16C12 16.2652 12.1054 16.5196 12.2929 16.7071C12.4804 16.8946 12.7348 17 13 17H24.5863L21.2925 20.2925C21.1049 20.4801 20.9994 20.7346 20.9994 21C20.9994 21.2654 21.1049 21.5199 21.2925 21.7075C21.4801 21.8951 21.7346 22.0006 22 22.0006C22.2654 22.0006 22.5199 21.8951 22.7075 21.7075L27.7075 16.7075C27.8005 16.6146 27.8742 16.5043 27.9246 16.3829C27.9749 16.2615 28.0008 16.1314 28.0008 16C28.0008 15.8686 27.9749 15.7385 27.9246 15.6171C27.8742 15.4957 27.8005 15.3854 27.7075 15.2925Z" fill="currentColor"/>
<path d="M61.5 27C61.5 27.1326 61.4473 27.2598 61.3536 27.3536C61.2598 27.4473 61.1326 27.5 61 27.5H54C53.6022 27.5 53.2206 27.342 52.9393 27.0607C52.658 26.7794 52.5 26.3978 52.5 26V6C52.5 5.60218 52.658 5.22064 52.9393 4.93934C53.2206 4.65804 53.6022 4.5 54 4.5H61C61.1326 4.5 61.2598 4.55268 61.3536 4.64645C61.4473 4.74021 61.5 4.86739 61.5 5C61.5 5.13261 61.4473 5.25979 61.3536 5.35355C61.2598 5.44732 61.1326 5.5 61 5.5H54C53.8674 5.5 53.7402 5.55268 53.6464 5.64645C53.5527 5.74021 53.5 5.86739 53.5 6V26C53.5 26.1326 53.5527 26.2598 53.6464 26.3536C53.7402 26.4473 53.8674 26.5 54 26.5H61C61.1326 26.5 61.2598 26.5527 61.3536 26.6464C61.4473 26.7402 61.5 26.8674 61.5 27ZM75.3538 15.6462L70.3538 10.6462C70.2599 10.5524 70.1327 10.4997 70 10.4997C69.8673 10.4997 69.7401 10.5524 69.6462 10.6462C69.5524 10.7401 69.4997 10.8673 69.4997 11C69.4997 11.1327 69.5524 11.2599 69.6462 11.3538L73.7925 15.5H61C60.8674 15.5 60.7402 15.5527 60.6464 15.6464C60.5527 15.7402 60.5 15.8674 60.5 16C60.5 16.1326 60.5527 16.2598 60.6464 16.3536C60.7402 16.4473 60.8674 16.5 61 16.5H73.7925L69.6462 20.6462C69.5524 20.7401 69.4997 20.8673 69.4997 21C69.4997 21.1327 69.5524 21.2599 69.6462 21.3538C69.7401 21.4476 69.8673 21.5003 70 21.5003C70.1327 21.5003 70.2599 21.4476 70.3538 21.3538L75.3538 16.3538C75.4002 16.3073 75.4371 16.2522 75.4623 16.1915C75.4874 16.1308 75.5004 16.0657 75.5004 16C75.5004 15.9343 75.4874 15.8692 75.4623 15.8085C75.4371 15.7478 75.4002 15.6927 75.3538 15.6462Z" fill="currentColor"/>
<path d="M109.75 27C109.75 27.1989 109.671 27.3897 109.53 27.5303C109.39 27.671 109.199 27.75 109 27.75H102C101.536 27.75 101.091 27.5656 100.763 27.2374C100.434 26.9092 100.25 26.4641 100.25 26V6C100.25 5.53587 100.434 5.09075 100.763 4.76256C101.091 4.43437 101.536 4.25 102 4.25H109C109.199 4.25 109.39 4.32902 109.53 4.46967C109.671 4.61032 109.75 4.80109 109.75 5C109.75 5.19891 109.671 5.38968 109.53 5.53033C109.39 5.67098 109.199 5.75 109 5.75H102C101.934 5.75 101.87 5.77634 101.823 5.82322C101.776 5.87011 101.75 5.9337 101.75 6V26C101.75 26.0663 101.776 26.1299 101.823 26.1768C101.87 26.2237 101.934 26.25 102 26.25H109C109.199 26.25 109.39 26.329 109.53 26.4697C109.671 26.6103 109.75 26.8011 109.75 27ZM123.53 15.47L118.53 10.47C118.388 10.3375 118.2 10.2654 118.005 10.2688C117.811 10.2723 117.626 10.351 117.488 10.4884C117.351 10.6258 117.272 10.8112 117.269 11.0055C117.265 11.1998 117.338 11.3878 117.47 11.53L121.189 15.25H109C108.801 15.25 108.61 15.329 108.47 15.4697C108.329 15.6103 108.25 15.8011 108.25 16C108.25 16.1989 108.329 16.3897 108.47 16.5303C108.61 16.671 108.801 16.75 109 16.75H121.189L117.47 20.47C117.396 20.5387 117.337 20.6215 117.296 20.7135C117.255 20.8055 117.233 20.9048 117.231 21.0055C117.23 21.1062 117.248 21.2062 117.286 21.2996C117.324 21.393 117.38 21.4778 117.451 21.549C117.522 21.6203 117.607 21.6764 117.7 21.7141C117.794 21.7518 117.894 21.7704 117.995 21.7686C118.095 21.7668 118.195 21.7448 118.287 21.7038C118.379 21.6628 118.461 21.6037 118.53 21.53L123.53 16.53C123.67 16.3894 123.749 16.1988 123.749 16C123.749 15.8012 123.67 15.6106 123.53 15.47Z" fill="currentColor"/>
<path d="M158.5 27C158.5 27.3978 158.342 27.7794 158.061 28.0607C157.779 28.342 157.398 28.5 157 28.5H150C149.337 28.5 148.701 28.2366 148.232 27.7678C147.763 27.2989 147.5 26.663 147.5 26V6C147.5 5.33696 147.763 4.70107 148.232 4.23223C148.701 3.76339 149.337 3.5 150 3.5H157C157.398 3.5 157.779 3.65804 158.061 3.93934C158.342 4.22064 158.5 4.60218 158.5 5C158.5 5.39782 158.342 5.77936 158.061 6.06066C157.779 6.34196 157.398 6.5 157 6.5H150.5V25.5H157C157.398 25.5 157.779 25.658 158.061 25.9393C158.342 26.2206 158.5 26.6022 158.5 27ZM172.061 14.9388L167.061 9.93875C166.779 9.65696 166.397 9.49865 165.999 9.49865C165.6 9.49865 165.218 9.65696 164.936 9.93875C164.654 10.2205 164.496 10.6027 164.496 11.0013C164.496 11.3998 164.654 11.782 164.936 12.0638L167.375 14.5H157C156.602 14.5 156.221 14.658 155.939 14.9393C155.658 15.2206 155.5 15.6022 155.5 16C155.5 16.3978 155.658 16.7794 155.939 17.0607C156.221 17.342 156.602 17.5 157 17.5H167.375L164.935 19.9387C164.653 20.2205 164.495 20.6027 164.495 21.0012C164.495 21.3998 164.653 21.782 164.935 22.0637C165.217 22.3455 165.599 22.5039 165.997 22.5039C166.396 22.5039 166.778 22.3455 167.06 22.0637L172.06 17.0637C172.2 16.9245 172.311 16.759 172.387 16.5767C172.463 16.3944 172.502 16.1989 172.502 16.0015C172.502 15.8041 172.463 15.6086 172.387 15.4262C172.312 15.2438 172.201 15.0782 172.061 14.9388Z" fill="currentColor"/>
<path d="M206 27C206 27.2652 205.895 27.5196 205.707 27.7071C205.52 27.8946 205.265 28 205 28H198C197.47 28 196.961 27.7893 196.586 27.4142C196.211 27.0391 196 26.5304 196 26V6C196 5.46957 196.211 4.96086 196.586 4.58579C196.961 4.21071 197.47 4 198 4H205C205.265 4 205.52 4.10536 205.707 4.29289C205.895 4.48043 206 4.73478 206 5C206 5.26522 205.895 5.51957 205.707 5.70711C205.52 5.89464 205.265 6 205 6H198V26H205C205.265 26 205.52 26.1054 205.707 26.2929C205.895 26.4804 206 26.7348 206 27ZM219.708 15.2925L214.708 10.2925C214.568 10.1525 214.389 10.0571 214.195 10.0185C214.001 9.97982 213.8 9.99963 213.617 10.0754C213.434 10.1511 213.278 10.2794 213.168 10.444C213.058 10.6086 213 10.8021 213 11V15H205C204.735 15 204.48 15.1054 204.293 15.2929C204.105 15.4804 204 15.7348 204 16C204 16.2652 204.105 16.5196 204.293 16.7071C204.48 16.8946 204.735 17 205 17H213V21C213 21.1979 213.058 21.3914 213.168 21.556C213.278 21.7206 213.434 21.8489 213.617 21.9246C213.8 22.0004 214.001 22.0202 214.195 21.9815C214.389 21.9429 214.568 21.8475 214.708 21.7075L219.708 16.7075C219.8 16.6146 219.874 16.5043 219.925 16.3829C219.975 16.2615 220.001 16.1314 220.001 16C220.001 15.8686 219.975 15.7385 219.925 15.6171C219.874 15.4957 219.8 15.3854 219.708 15.2925Z" fill="currentColor"/>
<path opacity="0.2" d="M267 16L262 21V11L267 16Z" fill="currentColor"/>
<path d="M254 27C254 27.2652 253.895 27.5196 253.707 27.7071C253.52 27.8946 253.265 28 253 28H246C245.47 28 244.961 27.7893 244.586 27.4142C244.211 27.0391 244 26.5304 244 26V6C244 5.46957 244.211 4.96086 244.586 4.58579C244.961 4.21071 245.47 4 246 4H253C253.265 4 253.52 4.10536 253.707 4.29289C253.895 4.48043 254 4.73478 254 5C254 5.26522 253.895 5.51957 253.707 5.70711C253.52 5.89464 253.265 6 253 6H246V26H253C253.265 26 253.52 26.1054 253.707 26.2929C253.895 26.4804 254 26.7348 254 27ZM267.708 16.7075L262.708 21.7075C262.568 21.8475 262.389 21.9429 262.195 21.9815C262.001 22.0202 261.8 22.0004 261.617 21.9246C261.434 21.8489 261.278 21.7206 261.168 21.556C261.058 21.3914 261 21.1979 261 21V17H253C252.735 17 252.48 16.8946 252.293 16.7071C252.105 16.5196 252 16.2652 252 16C252 15.7348 252.105 15.4804 252.293 15.2929C252.48 15.1054 252.735 15 253 15H261V11C261 10.8021 261.058 10.6086 261.168 10.444C261.278 10.2794 261.434 10.1511 261.617 10.0754C261.8 9.99963 262.001 9.97982 262.195 10.0185C262.389 10.0571 262.568 10.1525 262.708 10.2925L267.708 15.2925C267.8 15.3854 267.874 15.4957 267.925 15.6171C267.975 15.7385 268.001 15.8686 268.001 16C268.001 16.1314 267.975 16.2615 267.925 16.3829C267.874 16.5043 267.8 16.6146 267.708 16.7075ZM265.583 16L263 13.4137V18.5863L265.583 16Z" fill="currentColor"/>
</g>
<defs>
<clipPath id="clip0_17_10755">
<rect width="272" height="32" rx="5" fill="white"/>
</clipPath>
</defs>
</svg>
