<svg width="272" height="32" viewBox="0 0 272 32" fill="none" xmlns="http://www.w3.org/2000/svg">
<g clip-path="url(#clip0_17_10769)">
<path d="M17.7075 16.7075L12.7075 21.7075C12.6146 21.8004 12.5043 21.8741 12.3829 21.9244C12.2615 21.9747 12.1314 22.0006 12 22.0006C11.8686 22.0006 11.7385 21.9747 11.6171 21.9244C11.4957 21.8741 11.3854 21.8004 11.2925 21.7075C11.1996 21.6146 11.1259 21.5043 11.0756 21.3829C11.0253 21.2615 10.9994 21.1314 10.9994 21C10.9994 20.8686 11.0253 20.7385 11.0756 20.6171C11.1259 20.4957 11.1996 20.3854 11.2925 20.2925L14.5863 17H3C2.73478 17 2.48043 16.8946 2.29289 16.7071C2.10536 16.5196 2 16.2652 2 16C2 15.7348 2.10536 15.4804 2.29289 15.2929C2.48043 15.1054 2.73478 15 3 15H14.5863L11.2925 11.7075C11.1049 11.5199 10.9994 11.2654 10.9994 11C10.9994 10.7346 11.1049 10.4801 11.2925 10.2925C11.4801 10.1049 11.7346 9.99944 12 9.99944C12.2654 9.99944 12.5199 10.1049 12.7075 10.2925L17.7075 15.2925C17.8005 15.3854 17.8742 15.4957 17.9246 15.6171C17.9749 15.7385 18.0008 15.8686 18.0008 16C18.0008 16.1314 17.9749 16.2615 17.9246 16.3829C17.8742 16.5043 17.8005 16.6146 17.7075 16.7075ZM24 4H17C16.7348 4 16.4804 4.10536 16.2929 4.29289C16.1054 4.48043 16 4.73478 16 5C16 5.26522 16.1054 5.51957 16.2929 5.70711C16.4804 5.89464 16.7348 6 17 6H24V26H17C16.7348 26 16.4804 26.1054 16.2929 26.2929C16.1054 26.4804 16 26.7348 16 27C16 27.2652 16.1054 27.5196 16.2929 27.7071C16.4804 27.8946 16.7348 28 17 28H24C24.5304 28 25.0391 27.7893 25.4142 27.4142C25.7893 27.0391 26 26.5304 26 26V6C26 5.46957 25.7893 4.96086 25.4142 4.58579C25.0391 4.21071 24.5304 4 24 4Z" fill="currentColor"/>
<path d="M65.3538 16.3538L60.3538 21.3538C60.2599 21.4476 60.1327 21.5003 60 21.5003C59.8673 21.5003 59.7401 21.4476 59.6462 21.3538C59.5524 21.2599 59.4997 21.1327 59.4997 21C59.4997 20.8673 59.5524 20.7401 59.6462 20.6462L63.7925 16.5H51C50.8674 16.5 50.7402 16.4473 50.6464 16.3536C50.5527 16.2598 50.5 16.1326 50.5 16C50.5 15.8674 50.5527 15.7402 50.6464 15.6464C50.7402 15.5527 50.8674 15.5 51 15.5H63.7925L59.6462 11.3538C59.5524 11.2599 59.4997 11.1327 59.4997 11C59.4997 10.8673 59.5524 10.7401 59.6462 10.6462C59.7401 10.5524 59.8673 10.4997 60 10.4997C60.1327 10.4997 60.2599 10.5524 60.3538 10.6462L65.3538 15.6462C65.4002 15.6927 65.4371 15.7478 65.4623 15.8085C65.4874 15.8692 65.5004 15.9343 65.5004 16C65.5004 16.0657 65.4874 16.1308 65.4623 16.1915C65.4371 16.2522 65.4002 16.3073 65.3538 16.3538ZM72 4.5H65C64.8674 4.5 64.7402 4.55268 64.6464 4.64645C64.5527 4.74021 64.5 4.86739 64.5 5C64.5 5.13261 64.5527 5.25979 64.6464 5.35355C64.7402 5.44732 64.8674 5.5 65 5.5H72C72.1326 5.5 72.2598 5.55268 72.3536 5.64645C72.4473 5.74021 72.5 5.86739 72.5 6V26C72.5 26.1326 72.4473 26.2598 72.3536 26.3536C72.2598 26.4473 72.1326 26.5 72 26.5H65C64.8674 26.5 64.7402 26.5527 64.6464 26.6464C64.5527 26.7402 64.5 26.8674 64.5 27C64.5 27.1326 64.5527 27.2598 64.6464 27.3536C64.7402 27.4473 64.8674 27.5 65 27.5H72C72.3978 27.5 72.7794 27.342 73.0607 27.0607C73.342 26.7794 73.5 26.3978 73.5 26V6C73.5 5.60218 73.342 5.22064 73.0607 4.93934C72.7794 4.65804 72.3978 4.5 72 4.5Z" fill="currentColor"/>
<path d="M113.53 16.53L108.53 21.53C108.388 21.6625 108.2 21.7346 108.005 21.7312C107.811 21.7277 107.626 21.649 107.488 21.5116C107.351 21.3742 107.272 21.1888 107.269 20.9945C107.265 20.8002 107.338 20.6122 107.47 20.47L111.189 16.75H99C98.8011 16.75 98.6103 16.671 98.4697 16.5303C98.329 16.3897 98.25 16.1989 98.25 16C98.25 15.8011 98.329 15.6103 98.4697 15.4697C98.6103 15.329 98.8011 15.25 99 15.25H111.189L107.47 11.53C107.338 11.3878 107.265 11.1998 107.269 11.0055C107.272 10.8112 107.351 10.6258 107.488 10.4884C107.626 10.351 107.811 10.2723 108.005 10.2688C108.2 10.2654 108.388 10.3375 108.53 10.47L113.53 15.47C113.67 15.6106 113.749 15.8012 113.749 16C113.749 16.1988 113.67 16.3894 113.53 16.53ZM120 4.25H113C112.801 4.25 112.61 4.32902 112.47 4.46967C112.329 4.61032 112.25 4.80109 112.25 5C112.25 5.19891 112.329 5.38968 112.47 5.53033C112.61 5.67098 112.801 5.75 113 5.75H120C120.066 5.75 120.13 5.77634 120.177 5.82322C120.224 5.87011 120.25 5.9337 120.25 6V26C120.25 26.0663 120.224 26.1299 120.177 26.1768C120.13 26.2237 120.066 26.25 120 26.25H113C112.801 26.25 112.61 26.329 112.47 26.4697C112.329 26.6103 112.25 26.8011 112.25 27C112.25 27.1989 112.329 27.3897 112.47 27.5303C112.61 27.671 112.801 27.75 113 27.75H120C120.464 27.75 120.909 27.5656 121.237 27.2374C121.566 26.9092 121.75 26.4641 121.75 26V6C121.75 5.53587 121.566 5.09075 121.237 4.76256C120.909 4.43437 120.464 4.25 120 4.25Z" fill="currentColor"/>
<path d="M162.061 17.0613L157.061 22.0613C156.779 22.343 156.397 22.5014 155.999 22.5014C155.6 22.5014 155.218 22.343 154.936 22.0613C154.654 21.7795 154.496 21.3973 154.496 20.9988C154.496 20.6002 154.654 20.218 154.936 19.9363L157.375 17.5H147C146.602 17.5 146.221 17.342 145.939 17.0607C145.658 16.7794 145.5 16.3978 145.5 16C145.5 15.6022 145.658 15.2206 145.939 14.9393C146.221 14.658 146.602 14.5 147 14.5H157.375L154.939 12.0612C154.799 11.9217 154.689 11.7561 154.613 11.5738C154.538 11.3915 154.499 11.1961 154.499 10.9987C154.499 10.6002 154.657 10.218 154.939 9.93625C155.221 9.65446 155.603 9.49615 156.001 9.49615C156.4 9.49615 156.782 9.65446 157.064 9.93625L162.064 14.9362C162.203 15.0758 162.314 15.2415 162.39 15.4239C162.465 15.6063 162.504 15.8018 162.504 15.9993C162.503 16.1967 162.464 16.3921 162.388 16.5744C162.312 16.7566 162.201 16.9221 162.061 17.0613ZM168 3.5H161C160.602 3.5 160.221 3.65804 159.939 3.93934C159.658 4.22064 159.5 4.60218 159.5 5C159.5 5.39782 159.658 5.77936 159.939 6.06066C160.221 6.34196 160.602 6.5 161 6.5H167.5V25.5H161C160.602 25.5 160.221 25.658 159.939 25.9393C159.658 26.2206 159.5 26.6022 159.5 27C159.5 27.3978 159.658 27.7794 159.939 28.0607C160.221 28.342 160.602 28.5 161 28.5H168C168.663 28.5 169.299 28.2366 169.768 27.7678C170.237 27.2989 170.5 26.663 170.5 26V6C170.5 5.33696 170.237 4.70107 169.768 4.23223C169.299 3.76339 168.663 3.5 168 3.5Z" fill="currentColor"/>
<path d="M209.708 16.7075L204.708 21.7075C204.568 21.8475 204.389 21.9429 204.195 21.9815C204.001 22.0202 203.8 22.0004 203.617 21.9246C203.434 21.8489 203.278 21.7206 203.168 21.556C203.058 21.3914 203 21.1979 203 21V17H195C194.735 17 194.48 16.8946 194.293 16.7071C194.105 16.5196 194 16.2652 194 16C194 15.7348 194.105 15.4804 194.293 15.2929C194.48 15.1054 194.735 15 195 15H203V11C203 10.8021 203.058 10.6086 203.168 10.444C203.278 10.2794 203.434 10.1511 203.617 10.0754C203.8 9.99963 204.001 9.97982 204.195 10.0185C204.389 10.0571 204.568 10.1525 204.708 10.2925L209.708 15.2925C209.8 15.3854 209.874 15.4957 209.925 15.6171C209.975 15.7385 210.001 15.8686 210.001 16C210.001 16.1314 209.975 16.2615 209.925 16.3829C209.874 16.5043 209.8 16.6146 209.708 16.7075ZM216 4H209C208.735 4 208.48 4.10536 208.293 4.29289C208.105 4.48043 208 4.73478 208 5C208 5.26522 208.105 5.51957 208.293 5.70711C208.48 5.89464 208.735 6 209 6H216V26H209C208.735 26 208.48 26.1054 208.293 26.2929C208.105 26.4804 208 26.7348 208 27C208 27.2652 208.105 27.5196 208.293 27.7071C208.48 27.8946 208.735 28 209 28H216C216.53 28 217.039 27.7893 217.414 27.4142C217.789 27.0391 218 26.5304 218 26V6C218 5.46957 217.789 4.96086 217.414 4.58579C217.039 4.21071 216.53 4 216 4Z" fill="currentColor"/>
<path opacity="0.2" d="M257 16L252 21V11L257 16Z" fill="currentColor"/>
<path d="M257.708 15.2925L252.708 10.2925C252.568 10.1525 252.389 10.0571 252.195 10.0185C252.001 9.97982 251.8 9.99963 251.617 10.0754C251.434 10.1511 251.278 10.2794 251.168 10.444C251.058 10.6086 251 10.8021 251 11V15H243C242.735 15 242.48 15.1054 242.293 15.2929C242.105 15.4804 242 15.7348 242 16C242 16.2652 242.105 16.5196 242.293 16.7071C242.48 16.8946 242.735 17 243 17H251V21C251 21.1979 251.058 21.3914 251.168 21.556C251.278 21.7206 251.434 21.8489 251.617 21.9246C251.8 22.0004 252.001 22.0202 252.195 21.9815C252.389 21.9429 252.568 21.8475 252.708 21.7075L257.708 16.7075C257.8 16.6146 257.874 16.5043 257.925 16.3829C257.975 16.2615 258.001 16.1314 258.001 16C258.001 15.8686 257.975 15.7385 257.925 15.6171C257.874 15.4957 257.8 15.3854 257.708 15.2925ZM253 18.5863V13.4137L255.586 16L253 18.5863ZM266 6V26C266 26.5304 265.789 27.0391 265.414 27.4142C265.039 27.7893 264.53 28 264 28H257C256.735 28 256.48 27.8946 256.293 27.7071C256.105 27.5196 256 27.2652 256 27C256 26.7348 256.105 26.4804 256.293 26.2929C256.48 26.1054 256.735 26 257 26H264V6H257C256.735 6 256.48 5.89464 256.293 5.70711C256.105 5.51957 256 5.26522 256 5C256 4.73478 256.105 4.48043 256.293 4.29289C256.48 4.10536 256.735 4 257 4H264C264.53 4 265.039 4.21071 265.414 4.58579C265.789 4.96086 266 5.46957 266 6Z" fill="currentColor"/>
</g>
<defs>
<clipPath id="clip0_17_10769">
<rect width="272" height="32" rx="5" fill="white"/>
</clipPath>
</defs>
</svg>
