<svg width="272" height="32" viewBox="0 0 272 32" fill="none" xmlns="http://www.w3.org/2000/svg">
<g clip-path="url(#clip0_17_10685)">
<path d="M31.9575 20.7126C31.9581 20.7093 31.9581 20.7059 31.9575 20.7026L29.1712 11.4251C29.0496 11.0121 28.7971 10.6498 28.4517 10.3928C28.1063 10.1358 27.6868 9.99796 27.2563 10.0001H26C25.7348 10.0001 25.4804 10.1054 25.2929 10.293C25.1054 10.4805 25 10.7348 25 11.0001C25 11.2653 25.1054 11.5196 25.2929 11.7072C25.4804 11.8947 25.7348 12.0001 26 12.0001H27.2563L29.6562 20.0001H25.75L23.1712 11.4251C23.0496 11.0121 22.7971 10.6498 22.4517 10.3928C22.1063 10.1358 21.6868 9.99796 21.2563 10.0001H20C19.7348 10.0001 19.4804 10.1054 19.2929 10.293C19.1054 10.4805 19 10.7348 19 11.0001C19 11.2653 19.1054 11.5196 19.2929 11.7072C19.4804 11.8947 19.7348 12.0001 20 12.0001H21.2563L23.6562 20.0001H19.75L17.1712 11.4251C17.0496 11.0121 16.7971 10.6498 16.4517 10.3928C16.1063 10.1358 15.6868 9.99796 15.2563 10.0001H4.75C4.31842 9.9966 3.89746 10.1338 3.55081 10.3909C3.20416 10.648 2.95069 11.0111 2.82875 11.4251L0.04625 20.7001V20.7063C0.04625 20.7063 0.04625 20.7126 0.04625 20.7163C0.0174152 20.8082 0.00184159 20.9038 0 21.0001C0 21.2653 0.105357 21.5196 0.292893 21.7072C0.48043 21.8947 0.734784 22.0001 1 22.0001H31C31.1559 22 31.3096 21.9635 31.4489 21.8935C31.5881 21.8235 31.7091 21.7219 31.8021 21.5968C31.8952 21.4717 31.9577 21.3266 31.9846 21.1731C32.0116 21.0196 32.0023 20.8619 31.9575 20.7126ZM4.75 12.0001H15.2625L17.6625 20.0001H2.34375L4.75 12.0001Z" fill="currentColor"/>
<path d="M79.4764 20.8575L76.6901 11.57C76.5992 11.2605 76.4102 10.9888 76.1517 10.7959C75.8931 10.6029 75.579 10.4991 75.2564 10.5H74.0001C73.8675 10.5 73.7403 10.5527 73.6465 10.6465C73.5528 10.7402 73.5001 10.8674 73.5001 11C73.5001 11.1326 73.5528 11.2598 73.6465 11.3536C73.7403 11.4473 73.8675 11.5 74.0001 11.5H75.2564C75.3638 11.5 75.4685 11.5347 75.5547 11.5989C75.6409 11.6631 75.7042 11.7533 75.7351 11.8563L78.3276 20.5H73.3751L70.6926 11.5688C70.6013 11.2591 70.4119 10.9874 70.1529 10.7946C69.8939 10.6019 69.5792 10.4985 69.2564 10.5H68.0001C67.8675 10.5 67.7403 10.5527 67.6465 10.6465C67.5528 10.7402 67.5001 10.8674 67.5001 11C67.5001 11.1326 67.5528 11.2598 67.6465 11.3536C67.7403 11.4473 67.8675 11.5 68.0001 11.5H69.2564C69.3638 11.5 69.4685 11.5347 69.5547 11.5989C69.6409 11.6631 69.7042 11.7533 69.7351 11.8563L72.3276 20.5H67.3751L64.6926 11.5688C64.6013 11.2591 64.4119 10.9874 64.1529 10.7946C63.8939 10.6019 63.5792 10.4985 63.2564 10.5H52.7501C52.4272 10.4985 52.1126 10.6019 51.8536 10.7946C51.5945 10.9874 51.4051 11.2591 51.3139 11.5688L48.5214 20.8563C48.5214 20.8638 48.5214 20.8713 48.5214 20.8775C48.5028 20.9508 48.5012 21.0273 48.5165 21.1013C48.5318 21.1754 48.5637 21.245 48.6098 21.3049C48.6558 21.3648 48.7149 21.4135 48.7825 21.4473C48.8501 21.4811 48.9245 21.4991 49.0001 21.5H79.0001C79.1327 21.5 79.2599 21.4473 79.3537 21.3536C79.4474 21.2598 79.5001 21.1326 79.5001 21C79.4993 20.9516 79.4913 20.9036 79.4764 20.8575ZM52.2651 11.8575C52.2961 11.7533 52.3602 11.662 52.4477 11.5975C52.5352 11.533 52.6414 11.4988 52.7501 11.5H63.2626C63.3701 11.5 63.4747 11.5347 63.561 11.5989C63.6472 11.6631 63.7104 11.7533 63.7414 11.8563L66.3276 20.5H49.6726L52.2651 11.8575Z" fill="currentColor"/>
<path d="M127.719 20.7851L124.932 11.5001C124.826 11.1381 124.606 10.8204 124.303 10.5949C124.001 10.3694 123.633 10.2484 123.256 10.2501H122C121.801 10.2501 121.61 10.3291 121.47 10.4697C121.329 10.6104 121.25 10.8011 121.25 11.0001C121.25 11.199 121.329 11.3897 121.47 11.5304C121.61 11.671 121.801 11.7501 122 11.7501H123.256C123.311 11.7491 123.364 11.7659 123.408 11.7979C123.452 11.83 123.484 11.8755 123.5 11.9276L126 20.2501H121.557L118.932 11.5001C118.826 11.1381 118.606 10.8204 118.303 10.5949C118.001 10.3694 117.633 10.2484 117.256 10.2501H116C115.801 10.2501 115.61 10.3291 115.47 10.4697C115.329 10.6104 115.25 10.8011 115.25 11.0001C115.25 11.199 115.329 11.3897 115.47 11.5304C115.61 11.671 115.801 11.7501 116 11.7501H117.256C117.311 11.7491 117.364 11.7659 117.408 11.7979C117.452 11.83 117.484 11.8755 117.5 11.9276L120 20.2501H115.557L112.932 11.5001C112.826 11.1381 112.606 10.8204 112.303 10.5949C112.001 10.3694 111.633 10.2484 111.256 10.2501H100.75C100.372 10.247 100.003 10.3675 99.6992 10.593C99.3956 10.8186 99.1738 11.137 99.0675 11.5001L96.285 20.7751V20.7813V20.8001C96.2796 20.816 96.2754 20.8323 96.2725 20.8488C96.272 20.8509 96.272 20.853 96.2725 20.8551C96.2512 20.9631 96.2539 21.0744 96.2805 21.1813C96.3071 21.2881 96.3569 21.3877 96.4263 21.4732C96.4958 21.5586 96.5831 21.6277 96.6823 21.6755C96.7814 21.7234 96.8899 21.7488 97 21.7501H127C127.117 21.7501 127.232 21.7228 127.337 21.6704C127.441 21.6179 127.532 21.5418 127.602 21.4481C127.672 21.3543 127.718 21.2455 127.739 21.1304C127.759 21.0153 127.752 20.897 127.719 20.7851ZM100.5 11.9276C100.516 11.8744 100.549 11.8281 100.595 11.796C100.64 11.7638 100.694 11.7477 100.75 11.7501H111.262C111.316 11.7505 111.368 11.7681 111.411 11.8003C111.453 11.8325 111.485 11.8775 111.5 11.9288L114 20.2501H98.0075L100.5 11.9276Z" fill="currentColor"/>
<path d="M175.936 20.5688V20.5613C175.937 20.5576 175.937 20.5538 175.936 20.5501L173.15 11.2813C172.998 10.7652 172.682 10.3124 172.25 9.99118C171.819 9.66994 171.294 9.49759 170.756 9.50006H169.5C169.102 9.50006 168.721 9.6581 168.439 9.9394C168.158 10.2207 168 10.6022 168 11.0001C168 11.3979 168.158 11.7794 168.439 12.0607C168.721 12.342 169.102 12.5001 169.5 12.5001H170.384L172.484 19.5001H168.616L166.15 11.2813C165.998 10.7652 165.682 10.3124 165.25 9.99118C164.819 9.66994 164.294 9.49759 163.756 9.50006H162.5C162.102 9.50006 161.721 9.6581 161.439 9.9394C161.158 10.2207 161 10.6022 161 11.0001C161 11.3979 161.158 11.7794 161.439 12.0607C161.721 12.342 162.102 12.5001 162.5 12.5001H163.384L165.484 19.5001H161.616L159.15 11.2813C158.998 10.7652 158.682 10.3124 158.25 9.99118C157.819 9.66994 157.294 9.49759 156.756 9.50006H149.25C148.711 9.49623 148.185 9.66795 147.752 9.9893C147.319 10.3106 147.002 10.7641 146.85 11.2813L144.069 20.5501C144.068 20.5538 144.068 20.5576 144.069 20.5613V20.5688C144.061 20.5942 144.054 20.6201 144.049 20.6463C143.995 20.8665 143.992 21.0958 144.04 21.3173C144.088 21.5387 144.186 21.7464 144.325 21.9247C144.465 22.1031 144.643 22.2475 144.847 22.3472C145.05 22.4468 145.273 22.4991 145.5 22.5001H174.5C174.734 22.5 174.964 22.4453 175.173 22.3402C175.382 22.2352 175.564 22.0828 175.703 21.8952C175.843 21.7076 175.936 21.4899 175.977 21.2596C176.017 21.0293 176.003 20.7928 175.936 20.5688ZM149.616 12.5001H156.384L158.484 19.5001H147.516L149.616 12.5001Z" fill="currentColor"/>
<path d="M224 21.0001C224 21.2653 223.895 21.5196 223.707 21.7072C223.52 21.8947 223.265 22.0001 223 22.0001H193C192.844 22 192.69 21.9635 192.551 21.8935C192.412 21.8235 192.291 21.7219 192.198 21.5968C192.105 21.4717 192.042 21.3266 192.015 21.1731C191.988 21.0196 191.998 20.8619 192.042 20.7126V20.7063L194.829 11.4251C194.951 11.0111 195.204 10.648 195.551 10.3909C195.897 10.1338 196.318 9.9966 196.75 10.0001H207.262C207.693 9.99796 208.113 10.1358 208.458 10.3928C208.803 10.6498 209.056 11.0121 209.177 11.4251L211.75 20.0001H215.662L213.262 12.0001H212C211.735 12.0001 211.48 11.8947 211.293 11.7072C211.105 11.5196 211 11.2653 211 11.0001C211 10.7348 211.105 10.4805 211.293 10.293C211.48 10.1054 211.735 10.0001 212 10.0001H213.256C213.687 9.99796 214.106 10.1358 214.452 10.3928C214.797 10.6498 215.05 11.0121 215.171 11.4251L217.75 20.0001H221.662L219.262 12.0001H218C217.735 12.0001 217.48 11.8947 217.293 11.7072C217.105 11.5196 217 11.2653 217 11.0001C217 10.7348 217.105 10.4805 217.293 10.293C217.48 10.1054 217.735 10.0001 218 10.0001H219.256C219.687 9.99796 220.106 10.1358 220.452 10.3928C220.797 10.6498 221.05 11.0121 221.171 11.4251L223.954 20.6988C223.954 20.7021 223.954 20.7055 223.954 20.7088C223.983 20.8031 223.999 20.9012 224 21.0001Z" fill="currentColor"/>
<path opacity="0.2" d="M259 21H241L243.786 11.7125C243.848 11.5056 243.976 11.3243 244.15 11.1959C244.323 11.0674 244.534 10.9987 244.75 11H255.262C255.477 11.0001 255.687 11.0694 255.859 11.1978C256.032 11.3261 256.158 11.5066 256.22 11.7125L259 21Z" fill="currentColor"/>
<path d="M271.958 20.7126C271.958 20.7093 271.958 20.7059 271.958 20.7026L269.171 11.4251C269.05 11.0121 268.797 10.6498 268.452 10.3928C268.106 10.1358 267.687 9.99796 267.256 10.0001H266C265.735 10.0001 265.48 10.1054 265.293 10.293C265.105 10.4805 265 10.7348 265 11.0001C265 11.2653 265.105 11.5196 265.293 11.7072C265.48 11.8947 265.735 12.0001 266 12.0001H267.256L269.656 20.0001H265.75L263.171 11.4251C263.05 11.0121 262.797 10.6498 262.452 10.3928C262.106 10.1358 261.687 9.99796 261.256 10.0001H260C259.735 10.0001 259.48 10.1054 259.293 10.293C259.105 10.4805 259 10.7348 259 11.0001C259 11.2653 259.105 11.5196 259.293 11.7072C259.48 11.8947 259.735 12.0001 260 12.0001H261.256L263.656 20.0001H259.75L257.171 11.4251C257.05 11.0121 256.797 10.6498 256.452 10.3928C256.106 10.1358 255.687 9.99796 255.256 10.0001H244.75C244.318 9.9966 243.897 10.1338 243.551 10.3909C243.204 10.648 242.951 11.0111 242.829 11.4251L240.046 20.7001V20.7063C240.046 20.7063 240.046 20.7126 240.046 20.7163C240.017 20.8082 240.002 20.9038 240 21.0001C240 21.2653 240.105 21.5196 240.293 21.7072C240.48 21.8947 240.735 22.0001 241 22.0001H271C271.156 22 271.31 21.9635 271.449 21.8935C271.588 21.8235 271.709 21.7219 271.802 21.5968C271.895 21.4717 271.958 21.3266 271.985 21.1731C272.012 21.0196 272.002 20.8619 271.958 20.7126ZM244.75 12.0001H255.262L257.663 20.0001H242.344L244.75 12.0001Z" fill="currentColor"/>
</g>
<defs>
<clipPath id="clip0_17_10685">
<rect width="272" height="32" rx="5" fill="white"/>
</clipPath>
</defs>
</svg>
