<svg width="272" height="32" viewBox="0 0 272 32" fill="none" xmlns="http://www.w3.org/2000/svg">
<g clip-path="url(#clip0_17_10657)">
<path d="M22 7H10C7.61305 7 5.32387 7.94821 3.63604 9.63604C1.94821 11.3239 1 13.6131 1 16C1 18.3869 1.94821 20.6761 3.63604 22.364C5.32387 24.0518 7.61305 25 10 25H22C24.3869 25 26.6761 24.0518 28.364 22.364C30.0518 20.6761 31 18.3869 31 16C31 13.6131 30.0518 11.3239 28.364 9.63604C26.6761 7.94821 24.3869 7 22 7ZM22 23H10C8.14348 23 6.36301 22.2625 5.05025 20.9497C3.7375 19.637 3 17.8565 3 16C3 14.1435 3.7375 12.363 5.05025 11.0503C6.36301 9.7375 8.14348 9 10 9H22C23.8565 9 25.637 9.7375 26.9497 11.0503C28.2625 12.363 29 14.1435 29 16C29 17.8565 28.2625 19.637 26.9497 20.9497C25.637 22.2625 23.8565 23 22 23ZM22 11C21.0111 11 20.0444 11.2932 19.2221 11.8427C18.3999 12.3921 17.759 13.173 17.3806 14.0866C17.0022 15.0002 16.9031 16.0055 17.0961 16.9755C17.289 17.9454 17.7652 18.8363 18.4645 19.5355C19.1637 20.2348 20.0546 20.711 21.0245 20.9039C21.9945 21.0969 22.9998 20.9978 23.9134 20.6194C24.827 20.241 25.6079 19.6001 26.1573 18.7779C26.7068 17.9556 27 16.9889 27 16C27 14.6739 26.4732 13.4021 25.5355 12.4645C24.5979 11.5268 23.3261 11 22 11ZM22 19C21.4067 19 20.8266 18.8241 20.3333 18.4944C19.8399 18.1648 19.4554 17.6962 19.2284 17.1481C19.0013 16.5999 18.9419 15.9967 19.0576 15.4147C19.1734 14.8328 19.4591 14.2982 19.8787 13.8787C20.2982 13.4591 20.8328 13.1734 21.4147 13.0576C21.9967 12.9419 22.5999 13.0013 23.1481 13.2284C23.6962 13.4554 24.1648 13.8399 24.4944 14.3333C24.8241 14.8266 25 15.4067 25 16C25 16.7956 24.6839 17.5587 24.1213 18.1213C23.5587 18.6839 22.7956 19 22 19Z" fill="currentColor"/>
<path d="M70 7.5H58C55.7457 7.5 53.5837 8.39553 51.9896 9.98959C50.3955 11.5837 49.5 13.7457 49.5 16C49.5 18.2543 50.3955 20.4163 51.9896 22.0104C53.5837 23.6045 55.7457 24.5 58 24.5H70C72.2543 24.5 74.4163 23.6045 76.0104 22.0104C77.6045 20.4163 78.5 18.2543 78.5 16C78.5 13.7457 77.6045 11.5837 76.0104 9.98959C74.4163 8.39553 72.2543 7.5 70 7.5ZM70 23.5H58C56.0109 23.5 54.1032 22.7098 52.6967 21.3033C51.2902 19.8968 50.5 17.9891 50.5 16C50.5 14.0109 51.2902 12.1032 52.6967 10.6967C54.1032 9.29018 56.0109 8.5 58 8.5H70C71.9891 8.5 73.8968 9.29018 75.3033 10.6967C76.7098 12.1032 77.5 14.0109 77.5 16C77.5 17.9891 76.7098 19.8968 75.3033 21.3033C73.8968 22.7098 71.9891 23.5 70 23.5ZM70 11.5C69.11 11.5 68.24 11.7639 67.4999 12.2584C66.7599 12.7529 66.1831 13.4557 65.8425 14.2779C65.5019 15.1002 65.4128 16.005 65.5865 16.8779C65.7601 17.7508 66.1887 18.5526 66.818 19.182C67.4474 19.8113 68.2492 20.2399 69.1221 20.4135C69.995 20.5872 70.8998 20.4981 71.7221 20.1575C72.5443 19.8169 73.2471 19.2401 73.7416 18.5001C74.2361 17.76 74.5 16.89 74.5 16C74.5 14.8065 74.0259 13.6619 73.182 12.818C72.3381 11.9741 71.1935 11.5 70 11.5ZM70 19.5C69.3078 19.5 68.6311 19.2947 68.0555 18.9101C67.4799 18.5256 67.0313 17.9789 66.7664 17.3394C66.5015 16.6999 66.4322 15.9961 66.5673 15.3172C66.7023 14.6382 67.0356 14.0146 67.5251 13.5251C68.0146 13.0356 68.6383 12.7023 69.3172 12.5673C69.9961 12.4322 70.6999 12.5015 71.3394 12.7664C71.9789 13.0313 72.5256 13.4799 72.9101 14.0555C73.2947 14.6311 73.5 15.3078 73.5 16C73.5 16.9283 73.1313 17.8185 72.4749 18.4749C71.8185 19.1313 70.9283 19.5 70 19.5Z" fill="currentColor"/>
<path d="M118 7.25H106C103.679 7.25 101.454 8.17187 99.8128 9.81282C98.1719 11.4538 97.25 13.6794 97.25 16C97.25 18.3206 98.1719 20.5462 99.8128 22.1872C101.454 23.8281 103.679 24.75 106 24.75H118C120.321 24.75 122.546 23.8281 124.187 22.1872C125.828 20.5462 126.75 18.3206 126.75 16C126.75 13.6794 125.828 11.4538 124.187 9.81282C122.546 8.17187 120.321 7.25 118 7.25ZM118 23.25H106C104.077 23.25 102.233 22.4862 100.873 21.1265C99.5138 19.7669 98.75 17.9228 98.75 16C98.75 14.0772 99.5138 12.2331 100.873 10.8735C102.233 9.51384 104.077 8.75 106 8.75H118C119.923 8.75 121.767 9.51384 123.127 10.8735C124.486 12.2331 125.25 14.0772 125.25 16C125.25 17.9228 124.486 19.7669 123.127 21.1265C121.767 22.4862 119.923 23.25 118 23.25ZM118 11.25C117.061 11.25 116.142 11.5286 115.361 12.0505C114.58 12.5725 113.971 13.3143 113.612 14.1823C113.252 15.0502 113.158 16.0053 113.341 16.9267C113.525 17.8481 113.977 18.6945 114.641 19.3588C115.306 20.0231 116.152 20.4754 117.073 20.6587C117.995 20.842 118.95 20.7479 119.818 20.3884C120.686 20.0289 121.428 19.4201 121.949 18.639C122.471 17.8578 122.75 16.9395 122.75 16C122.75 14.7402 122.25 13.532 121.359 12.6412C120.468 11.7504 119.26 11.25 118 11.25ZM118 19.25C117.357 19.25 116.729 19.0594 116.194 18.7023C115.66 18.3452 115.243 17.8376 114.997 17.2437C114.751 16.6499 114.687 15.9964 114.812 15.366C114.938 14.7355 115.247 14.1564 115.702 13.7019C116.156 13.2474 116.736 12.9378 117.366 12.8124C117.996 12.687 118.65 12.7514 119.244 12.9974C119.838 13.2434 120.345 13.6599 120.702 14.1944C121.059 14.7289 121.25 15.3572 121.25 16C121.25 16.862 120.908 17.6886 120.298 18.2981C119.689 18.9076 118.862 19.25 118 19.25Z" fill="currentColor"/>
<path d="M166 6.5H154C151.48 6.5 149.064 7.50089 147.282 9.28249C145.501 11.0641 144.5 13.4804 144.5 16C144.5 18.5196 145.501 20.9359 147.282 22.7175C149.064 24.4991 151.48 25.5 154 25.5H166C168.52 25.5 170.936 24.4991 172.718 22.7175C174.499 20.9359 175.5 18.5196 175.5 16C175.5 13.4804 174.499 11.0641 172.718 9.28249C170.936 7.50089 168.52 6.5 166 6.5ZM166 22.5H154C152.276 22.5 150.623 21.8152 149.404 20.5962C148.185 19.3772 147.5 17.7239 147.5 16C147.5 14.2761 148.185 12.6228 149.404 11.4038C150.623 10.1848 152.276 9.5 154 9.5H166C167.724 9.5 169.377 10.1848 170.596 11.4038C171.815 12.6228 172.5 14.2761 172.5 16C172.5 17.7239 171.815 19.3772 170.596 20.5962C169.377 21.8152 167.724 22.5 166 22.5ZM166 11.5C165.11 11.5 164.24 11.7639 163.5 12.2584C162.76 12.7529 162.183 13.4557 161.843 14.2779C161.502 15.1002 161.413 16.005 161.586 16.8779C161.76 17.7508 162.189 18.5526 162.818 19.182C163.447 19.8113 164.249 20.2399 165.122 20.4135C165.995 20.5872 166.9 20.4981 167.722 20.1575C168.544 19.8169 169.247 19.2401 169.742 18.5001C170.236 17.76 170.5 16.89 170.5 16C170.5 14.8065 170.026 13.6619 169.182 12.818C168.338 11.9741 167.193 11.5 166 11.5ZM166 17.5C165.703 17.5 165.413 17.412 165.167 17.2472C164.92 17.0824 164.728 16.8481 164.614 16.574C164.501 16.2999 164.471 15.9983 164.529 15.7074C164.587 15.4164 164.73 15.1491 164.939 14.9393C165.149 14.7296 165.416 14.5867 165.707 14.5288C165.998 14.4709 166.3 14.5006 166.574 14.6142C166.848 14.7277 167.082 14.92 167.247 15.1666C167.412 15.4133 167.5 15.7033 167.5 16C167.5 16.3978 167.342 16.7794 167.061 17.0607C166.779 17.342 166.398 17.5 166 17.5Z" fill="currentColor"/>
<path d="M214 7H202C199.613 7 197.324 7.94821 195.636 9.63604C193.948 11.3239 193 13.6131 193 16C193 18.3869 193.948 20.6761 195.636 22.364C197.324 24.0518 199.613 25 202 25H214C216.387 25 218.676 24.0518 220.364 22.364C222.052 20.6761 223 18.3869 223 16C223 13.6131 222.052 11.3239 220.364 9.63604C218.676 7.94821 216.387 7 214 7ZM214 21C213.011 21 212.044 20.7068 211.222 20.1573C210.4 19.6079 209.759 18.827 209.381 17.9134C209.002 16.9998 208.903 15.9945 209.096 15.0245C209.289 14.0546 209.765 13.1637 210.464 12.4645C211.164 11.7652 212.055 11.289 213.025 11.0961C213.994 10.9031 215 11.0022 215.913 11.3806C216.827 11.759 217.608 12.3999 218.157 13.2221C218.707 14.0444 219 15.0111 219 16C219 17.3261 218.473 18.5979 217.536 19.5355C216.598 20.4732 215.326 21 214 21Z" fill="currentColor"/>
<path opacity="0.2" d="M266 16C266 16.7911 265.765 17.5645 265.326 18.2223C264.886 18.8801 264.262 19.3928 263.531 19.6955C262.8 19.9983 261.996 20.0775 261.22 19.9231C260.444 19.7688 259.731 19.3878 259.172 18.8284C258.612 18.269 258.231 17.5563 258.077 16.7804C257.923 16.0044 258.002 15.2002 258.304 14.4693C258.607 13.7384 259.12 13.1136 259.778 12.6741C260.436 12.2346 261.209 12 262 12C263.061 12 264.078 12.4214 264.828 13.1716C265.579 13.9217 266 14.9391 266 16Z" fill="currentColor"/>
<path d="M262 7H250C247.613 7 245.324 7.94821 243.636 9.63604C241.948 11.3239 241 13.6131 241 16C241 18.3869 241.948 20.6761 243.636 22.364C245.324 24.0518 247.613 25 250 25H262C264.387 25 266.676 24.0518 268.364 22.364C270.052 20.6761 271 18.3869 271 16C271 13.6131 270.052 11.3239 268.364 9.63604C266.676 7.94821 264.387 7 262 7ZM262 23H250C248.143 23 246.363 22.2625 245.05 20.9497C243.737 19.637 243 17.8565 243 16C243 14.1435 243.737 12.363 245.05 11.0503C246.363 9.7375 248.143 9 250 9H262C263.857 9 265.637 9.7375 266.95 11.0503C268.263 12.363 269 14.1435 269 16C269 17.8565 268.263 19.637 266.95 20.9497C265.637 22.2625 263.857 23 262 23ZM262 11C261.011 11 260.044 11.2932 259.222 11.8427C258.4 12.3921 257.759 13.173 257.381 14.0866C257.002 15.0002 256.903 16.0055 257.096 16.9755C257.289 17.9454 257.765 18.8363 258.464 19.5355C259.164 20.2348 260.055 20.711 261.025 20.9039C261.994 21.0969 263 20.9978 263.913 20.6194C264.827 20.241 265.608 19.6001 266.157 18.7779C266.707 17.9556 267 16.9889 267 16C267 14.6739 266.473 13.4021 265.536 12.4645C264.598 11.5268 263.326 11 262 11ZM262 19C261.407 19 260.827 18.8241 260.333 18.4944C259.84 18.1648 259.455 17.6962 259.228 17.1481C259.001 16.5999 258.942 15.9967 259.058 15.4147C259.173 14.8328 259.459 14.2982 259.879 13.8787C260.298 13.4591 260.833 13.1734 261.415 13.0576C261.997 12.9419 262.6 13.0013 263.148 13.2284C263.696 13.4554 264.165 13.8399 264.494 14.3333C264.824 14.8266 265 15.4067 265 16C265 16.7956 264.684 17.5587 264.121 18.1213C263.559 18.6839 262.796 19 262 19Z" fill="currentColor"/>
</g>
<defs>
<clipPath id="clip0_17_10657">
<rect width="272" height="32" rx="5" fill="white"/>
</clipPath>
</defs>
</svg>
