<svg width="272" height="32" viewBox="0 0 272 32" fill="none" xmlns="http://www.w3.org/2000/svg">
<g clip-path="url(#clip0_17_10615)">
<path d="M31.555 15.1675L25.555 11.1675C25.4044 11.067 25.2293 11.0093 25.0484 11.0005C24.8675 10.9918 24.6877 11.0323 24.528 11.1178C24.3684 11.2032 24.2349 11.3304 24.1419 11.4858C24.0489 11.6412 23.9999 11.8189 24 12V15H9V9.00001H13.125C13.3684 9.94267 13.9472 10.7642 14.753 11.3106C15.5588 11.857 16.5362 12.0908 17.502 11.9681C18.4678 11.8455 19.3557 11.3747 19.9993 10.6442C20.6429 9.91374 20.998 8.97358 20.998 8.00001C20.998 7.02644 20.6429 6.08628 19.9993 5.35578C19.3557 4.62527 18.4678 4.15457 17.502 4.03189C16.5362 3.90922 15.5588 4.143 14.753 4.68941C13.9472 5.23582 13.3684 6.05735 13.125 7.00001H9C8.46957 7.00001 7.96086 7.21072 7.58579 7.5858C7.21071 7.96087 7 8.46958 7 9.00001V15H1C0.734784 15 0.48043 15.1054 0.292893 15.2929C0.105357 15.4804 0 15.7348 0 16C0 16.2652 0.105357 16.5196 0.292893 16.7071C0.48043 16.8947 0.734784 17 1 17H7V23C7 23.5304 7.21071 24.0392 7.58579 24.4142C7.96086 24.7893 8.46957 25 9 25H13V26C13 26.5304 13.2107 27.0392 13.5858 27.4142C13.9609 27.7893 14.4696 28 15 28H19C19.5304 28 20.0391 27.7893 20.4142 27.4142C20.7893 27.0392 21 26.5304 21 26V22C21 21.4696 20.7893 20.9609 20.4142 20.5858C20.0391 20.2107 19.5304 20 19 20H15C14.4696 20 13.9609 20.2107 13.5858 20.5858C13.2107 20.9609 13 21.4696 13 22V23H9V17H24V20C23.9999 20.1811 24.0489 20.3588 24.1419 20.5142C24.2349 20.6696 24.3684 20.7968 24.528 20.8823C24.6877 20.9677 24.8675 21.0082 25.0484 20.9995C25.2293 20.9907 25.4044 20.933 25.555 20.8325L31.555 16.8325C31.6922 16.7412 31.8047 16.6175 31.8825 16.4722C31.9603 16.327 32.001 16.1648 32.001 16C32.001 15.8352 31.9603 15.673 31.8825 15.5278C31.8047 15.3826 31.6922 15.2588 31.555 15.1675ZM17 6.00001C17.3956 6.00001 17.7822 6.11731 18.1111 6.33707C18.44 6.55683 18.6964 6.86919 18.8478 7.23464C18.9991 7.60009 19.0387 8.00223 18.9616 8.39019C18.8844 8.77815 18.6939 9.13452 18.4142 9.41422C18.1345 9.69393 17.7781 9.88441 17.3902 9.96158C17.0022 10.0388 16.6001 9.99914 16.2346 9.84777C15.8692 9.69639 15.5568 9.44005 15.3371 9.11115C15.1173 8.78225 15 8.39557 15 8.00001C15 7.46958 15.2107 6.96087 15.5858 6.5858C15.9609 6.21072 16.4696 6.00001 17 6.00001ZM15 22H19V26H15V22ZM26 18.1313V13.875L29.1975 16L26 18.1313Z" fill="currentColor"/>
<path d="M79.2775 15.5838L73.2775 11.5838C73.2022 11.5335 73.1146 11.5046 73.0242 11.5003C72.9338 11.4959 72.8438 11.5161 72.764 11.5589C72.6842 11.6016 72.6175 11.6652 72.571 11.7429C72.5245 11.8206 72.4999 11.9095 72.5 12V15.5H56.5V9.00001C56.5 8.8674 56.5527 8.74022 56.6464 8.64645C56.7402 8.55268 56.8674 8.50001 57 8.50001H61.5363C61.6627 9.3758 62.1161 10.1712 62.8053 10.7262C63.4946 11.2811 64.3684 11.5544 65.251 11.491C66.1336 11.4277 66.9594 11.0323 67.5623 10.3846C68.1652 9.7369 68.5004 8.88488 68.5004 8.00001C68.5004 7.11514 68.1652 6.26311 67.5623 5.61539C66.9594 4.96768 66.1336 4.57236 65.251 4.50899C64.3684 4.44562 63.4946 4.71891 62.8053 5.27386C62.1161 5.8288 61.6627 6.62421 61.5363 7.50001H57C56.6022 7.50001 56.2206 7.65804 55.9393 7.93935C55.658 8.22065 55.5 8.60218 55.5 9.00001V15.5H49C48.8674 15.5 48.7402 15.5527 48.6464 15.6465C48.5527 15.7402 48.5 15.8674 48.5 16C48.5 16.1326 48.5527 16.2598 48.6464 16.3536C48.7402 16.4473 48.8674 16.5 49 16.5H55.5V23C55.5 23.3978 55.658 23.7794 55.9393 24.0607C56.2206 24.342 56.6022 24.5 57 24.5H61.5V26C61.5 26.3978 61.658 26.7794 61.9393 27.0607C62.2206 27.342 62.6022 27.5 63 27.5H67C67.3978 27.5 67.7794 27.342 68.0607 27.0607C68.342 26.7794 68.5 26.3978 68.5 26V22C68.5 21.6022 68.342 21.2207 68.0607 20.9393C67.7794 20.658 67.3978 20.5 67 20.5H63C62.6022 20.5 62.2206 20.658 61.9393 20.9393C61.658 21.2207 61.5 21.6022 61.5 22V23.5H57C56.8674 23.5 56.7402 23.4473 56.6464 23.3536C56.5527 23.2598 56.5 23.1326 56.5 23V16.5H72.5V20C72.4999 20.0905 72.5244 20.1794 72.5708 20.2571C72.6173 20.3348 72.684 20.3985 72.7638 20.4413C72.8436 20.484 72.9336 20.5043 73.0241 20.4999C73.1146 20.4955 73.2022 20.4666 73.2775 20.4163L79.2775 16.4163C79.3461 16.3706 79.4023 16.3087 79.4412 16.2361C79.4801 16.1635 79.5005 16.0824 79.5005 16C79.5005 15.9176 79.4801 15.8365 79.4412 15.7639C79.4023 15.6913 79.3461 15.6294 79.2775 15.5838ZM65 5.50001C65.4945 5.50001 65.9778 5.64663 66.3889 5.92133C66.8 6.19604 67.1205 6.58648 67.3097 7.0433C67.4989 7.50011 67.5484 8.00278 67.452 8.48773C67.3555 8.97268 67.1174 9.41814 66.7678 9.76777C66.4181 10.1174 65.9727 10.3555 65.4877 10.452C65.0028 10.5484 64.5001 10.4989 64.0433 10.3097C63.5865 10.1205 63.196 9.80005 62.9213 9.38893C62.6466 8.97781 62.5 8.49446 62.5 8.00001C62.5 7.33696 62.7634 6.70108 63.2322 6.23224C63.7011 5.7634 64.337 5.50001 65 5.50001ZM62.5 22C62.5 21.8674 62.5527 21.7402 62.6464 21.6465C62.7402 21.5527 62.8674 21.5 63 21.5H67C67.1326 21.5 67.2598 21.5527 67.3536 21.6465C67.4473 21.7402 67.5 21.8674 67.5 22V26C67.5 26.1326 67.4473 26.2598 67.3536 26.3536C67.2598 26.4473 67.1326 26.5 67 26.5H63C62.8674 26.5 62.7402 26.4473 62.6464 26.3536C62.5527 26.2598 62.5 26.1326 62.5 26V22ZM73.5 19.0663V12.9338L78.0987 16L73.5 19.0663Z" fill="currentColor"/>
<path d="M127.416 15.375L121.416 11.375C121.303 11.2996 121.172 11.2563 121.036 11.2498C120.9 11.2432 120.765 11.2737 120.646 11.3378C120.526 11.402 120.426 11.4975 120.356 11.6141C120.287 11.7308 120.25 11.8641 120.25 12V15.25H104.75V9.00001C104.75 8.9337 104.776 8.87012 104.823 8.82323C104.87 8.77635 104.934 8.75001 105 8.75001H109.325C109.511 9.66054 110.028 10.4696 110.777 11.0204C111.525 11.5712 112.452 11.8244 113.376 11.731C114.301 11.6376 115.158 11.2042 115.781 10.5149C116.404 9.82552 116.749 8.92932 116.749 8.00001C116.749 7.0707 116.404 6.1745 115.781 5.48514C115.158 4.79579 114.301 4.3624 113.376 4.269C112.452 4.17559 111.525 4.42883 110.777 4.97961C110.028 5.53039 109.511 6.33948 109.325 7.25001H105C104.536 7.25001 104.091 7.43438 103.763 7.76257C103.434 8.09076 103.25 8.53588 103.25 9.00001V15.25H97C96.8011 15.25 96.6103 15.329 96.4697 15.4697C96.329 15.6103 96.25 15.8011 96.25 16C96.25 16.1989 96.329 16.3897 96.4697 16.5303C96.6103 16.671 96.8011 16.75 97 16.75H103.25V23C103.25 23.4641 103.434 23.9093 103.763 24.2374C104.091 24.5656 104.536 24.75 105 24.75H109.25V26C109.25 26.4641 109.434 26.9093 109.763 27.2374C110.091 27.5656 110.536 27.75 111 27.75H115C115.464 27.75 115.909 27.5656 116.237 27.2374C116.566 26.9093 116.75 26.4641 116.75 26V22C116.75 21.5359 116.566 21.0908 116.237 20.7626C115.909 20.4344 115.464 20.25 115 20.25H111C110.536 20.25 110.091 20.4344 109.763 20.7626C109.434 21.0908 109.25 21.5359 109.25 22V23.25H105C104.934 23.25 104.87 23.2237 104.823 23.1768C104.776 23.1299 104.75 23.0663 104.75 23V16.75H120.25V20C120.25 20.1359 120.287 20.2692 120.356 20.3859C120.426 20.5025 120.526 20.598 120.646 20.6622C120.765 20.7264 120.9 20.7568 121.036 20.7502C121.172 20.7437 121.303 20.7004 121.416 20.625L127.416 16.625C127.519 16.5566 127.604 16.4637 127.663 16.3547C127.721 16.2456 127.752 16.1238 127.752 16C127.752 15.8762 127.721 15.7544 127.663 15.6453C127.604 15.5363 127.519 15.4434 127.416 15.375ZM113 5.75001C113.445 5.75001 113.88 5.88197 114.25 6.1292C114.62 6.37643 114.908 6.72784 115.079 7.13897C115.249 7.5501 115.294 8.0025 115.207 8.43896C115.12 8.87542 114.906 9.27633 114.591 9.591C114.276 9.90567 113.875 10.12 113.439 10.2068C113.002 10.2936 112.55 10.249 112.139 10.0787C111.728 9.90844 111.376 9.62005 111.129 9.25004C110.882 8.88003 110.75 8.44502 110.75 8.00001C110.75 7.40327 110.987 6.83098 111.409 6.40902C111.831 5.98706 112.403 5.75001 113 5.75001ZM110.75 22C110.75 21.9337 110.776 21.8701 110.823 21.8232C110.87 21.7763 110.934 21.75 111 21.75H115C115.066 21.75 115.13 21.7763 115.177 21.8232C115.224 21.8701 115.25 21.9337 115.25 22V26C115.25 26.0663 115.224 26.1299 115.177 26.1768C115.13 26.2237 115.066 26.25 115 26.25H111C110.934 26.25 110.87 26.2237 110.823 26.1768C110.776 26.1299 110.75 26.0663 110.75 26V22ZM121.75 18.5988V13.4013L125.647 16L121.75 18.5988Z" fill="currentColor"/>
<path d="M175.4 14.8L169.4 10.3C169.177 10.1329 168.912 10.0311 168.635 10.0061C168.357 9.98105 168.078 10.0338 167.829 10.1584C167.58 10.2829 167.37 10.4744 167.224 10.7114C167.078 10.9484 167 11.2214 167 11.5V14.5H153.5V9.50001H156.757C157.111 10.5008 157.808 11.3443 158.723 11.8815C159.639 12.4186 160.715 12.6147 161.761 12.4352C162.807 12.2557 163.756 11.7121 164.441 10.9005C165.125 10.0889 165.5 9.06154 165.5 8.00001C165.5 6.93848 165.125 5.91112 164.441 5.09952C163.756 4.28792 162.807 3.74432 161.761 3.56482C160.715 3.38531 159.639 3.58145 158.723 4.11856C157.808 4.65568 157.111 5.49919 156.757 6.50001H153C152.337 6.50001 151.701 6.7634 151.232 7.23224C150.763 7.70108 150.5 8.33697 150.5 9.00001V14.5H145.5C145.102 14.5 144.721 14.658 144.439 14.9393C144.158 15.2207 144 15.6022 144 16C144 16.3978 144.158 16.7794 144.439 17.0607C144.721 17.342 145.102 17.5 145.5 17.5H150.5V23C150.5 23.6631 150.763 24.2989 151.232 24.7678C151.701 25.2366 152.337 25.5 153 25.5H156.5V26C156.5 26.6631 156.763 27.2989 157.232 27.7678C157.701 28.2366 158.337 28.5 159 28.5H163C163.663 28.5 164.299 28.2366 164.768 27.7678C165.237 27.2989 165.5 26.6631 165.5 26V22C165.5 21.337 165.237 20.7011 164.768 20.2322C164.299 19.7634 163.663 19.5 163 19.5H159C158.337 19.5 157.701 19.7634 157.232 20.2322C156.763 20.7011 156.5 21.337 156.5 22V22.5H153.5V17.5H167V20.5C167 20.7786 167.078 21.0516 167.224 21.2886C167.37 21.5256 167.58 21.7171 167.829 21.8417C168.078 21.9662 168.357 22.019 168.635 21.9939C168.912 21.9689 169.177 21.8672 169.4 21.7L175.4 17.2C175.586 17.0603 175.737 16.8791 175.842 16.6708C175.946 16.4625 176 16.2329 176 16C176 15.7671 175.946 15.5375 175.842 15.3292C175.737 15.1209 175.586 14.9397 175.4 14.8ZM161 6.50001C161.297 6.50001 161.587 6.58798 161.833 6.7528C162.08 6.91763 162.272 7.1519 162.386 7.42598C162.499 7.70007 162.529 8.00167 162.471 8.29265C162.413 8.58362 162.27 8.85089 162.061 9.06067C161.851 9.27045 161.584 9.41331 161.293 9.47119C161.002 9.52907 160.7 9.49936 160.426 9.38583C160.152 9.2723 159.918 9.08004 159.753 8.83336C159.588 8.58669 159.5 8.29668 159.5 8.00001C159.5 7.60218 159.658 7.22065 159.939 6.93935C160.221 6.65804 160.602 6.50001 161 6.50001ZM159.5 22.5H162.5V25.5H159.5V22.5ZM170 17.5V14.5L172 16L170 17.5Z" fill="currentColor"/>
<path d="M223.5 16C223.5 16.0823 223.48 16.1634 223.441 16.236C223.402 16.3087 223.346 16.3706 223.278 16.4163L217.278 20.4163C217.202 20.4665 217.115 20.4954 217.024 20.4997C216.934 20.5041 216.844 20.4839 216.764 20.4411C216.684 20.3984 216.617 20.3348 216.571 20.2571C216.524 20.1794 216.5 20.0906 216.5 20V17H201V23H205.5V22C205.5 21.6022 205.658 21.2207 205.939 20.9393C206.221 20.658 206.602 20.5 207 20.5H211C211.398 20.5 211.779 20.658 212.061 20.9393C212.342 21.2207 212.5 21.6022 212.5 22V26C212.5 26.3978 212.342 26.7794 212.061 27.0607C211.779 27.342 211.398 27.5 211 27.5H207C206.602 27.5 206.221 27.342 205.939 27.0607C205.658 26.7794 205.5 26.3978 205.5 26V25H201C200.47 25 199.961 24.7893 199.586 24.4142C199.211 24.0391 199 23.5304 199 23V17H193C192.735 17 192.48 16.8947 192.293 16.7071C192.105 16.5196 192 16.2652 192 16C192 15.7348 192.105 15.4804 192.293 15.2929C192.48 15.1054 192.735 15 193 15H199V9.00001C199 8.46958 199.211 7.96087 199.586 7.58579C199.961 7.21072 200.47 7.00001 201 7.00001H205.646C205.886 6.19434 206.409 5.50206 207.117 5.04974C207.826 4.59743 208.674 4.4153 209.506 4.53667C210.338 4.65805 211.098 5.07481 211.648 5.71074C212.198 6.34668 212.5 7.1593 212.5 8.00001C212.5 8.84072 212.198 9.65334 211.648 10.2893C211.098 10.9252 210.338 11.342 209.506 11.4633C208.674 11.5847 207.826 11.4026 207.117 10.9503C206.409 10.498 205.886 9.80567 205.646 9.00001H201V15H216.5V12C216.5 11.9095 216.524 11.8206 216.571 11.7429C216.617 11.6652 216.684 11.6016 216.764 11.5589C216.844 11.5161 216.934 11.4959 217.024 11.5003C217.115 11.5047 217.202 11.5335 217.278 11.5838L223.278 15.5838C223.346 15.6295 223.402 15.6914 223.441 15.764C223.48 15.8366 223.5 15.9177 223.5 16Z" fill="currentColor"/>
<path opacity="0.2" d="M260 8C260 8.59334 259.824 9.17336 259.494 9.66671C259.165 10.1601 258.696 10.5446 258.148 10.7716C257.6 10.9987 256.997 11.0581 256.415 10.9424C255.833 10.8266 255.298 10.5409 254.879 10.1213C254.459 9.70176 254.173 9.16721 254.058 8.58527C253.942 8.00333 254.001 7.40013 254.228 6.85195C254.455 6.30377 254.84 5.83524 255.333 5.50559C255.827 5.17595 256.407 5 257 5C257.796 5 258.559 5.31607 259.121 5.87868C259.684 6.44129 260 7.20435 260 8ZM265 12V20L271 16L265 12ZM259 21H255C254.735 21 254.48 21.1054 254.293 21.2929C254.105 21.4804 254 21.7348 254 22V26C254 26.2652 254.105 26.5196 254.293 26.7071C254.48 26.8946 254.735 27 255 27H259C259.265 27 259.52 26.8946 259.707 26.7071C259.895 26.5196 260 26.2652 260 26V22C260 21.7348 259.895 21.4804 259.707 21.2929C259.52 21.1054 259.265 21 259 21Z" fill="currentColor"/>
<path d="M271.555 15.1675L265.555 11.1675C265.404 11.067 265.229 11.0093 265.048 11.0005C264.868 10.9918 264.688 11.0323 264.528 11.1178C264.368 11.2032 264.235 11.3304 264.142 11.4858C264.049 11.6412 264 11.8189 264 12V15H249V9.00001H253.125C253.368 9.94267 253.947 10.7642 254.753 11.3106C255.559 11.857 256.536 12.0908 257.502 11.9681C258.468 11.8455 259.356 11.3747 259.999 10.6442C260.643 9.91374 260.998 8.97358 260.998 8.00001C260.998 7.02644 260.643 6.08628 259.999 5.35578C259.356 4.62527 258.468 4.15457 257.502 4.03189C256.536 3.90922 255.559 4.143 254.753 4.68941C253.947 5.23582 253.368 6.05735 253.125 7.00001H249C248.47 7.00001 247.961 7.21072 247.586 7.5858C247.211 7.96087 247 8.46958 247 9.00001V15H241C240.735 15 240.48 15.1054 240.293 15.2929C240.105 15.4804 240 15.7348 240 16C240 16.2652 240.105 16.5196 240.293 16.7071C240.48 16.8947 240.735 17 241 17H247V23C247 23.5304 247.211 24.0392 247.586 24.4142C247.961 24.7893 248.47 25 249 25H253V26C253 26.5304 253.211 27.0392 253.586 27.4142C253.961 27.7893 254.47 28 255 28H259C259.53 28 260.039 27.7893 260.414 27.4142C260.789 27.0392 261 26.5304 261 26V22C261 21.4696 260.789 20.9609 260.414 20.5858C260.039 20.2107 259.53 20 259 20H255C254.47 20 253.961 20.2107 253.586 20.5858C253.211 20.9609 253 21.4696 253 22V23H249V17H264V20C264 20.1811 264.049 20.3588 264.142 20.5142C264.235 20.6696 264.368 20.7968 264.528 20.8823C264.688 20.9677 264.868 21.0082 265.048 20.9995C265.229 20.9907 265.404 20.933 265.555 20.8325L271.555 16.8325C271.692 16.7412 271.805 16.6175 271.882 16.4722C271.96 16.327 272.001 16.1648 272.001 16C272.001 15.8352 271.96 15.673 271.882 15.5278C271.805 15.3826 271.692 15.2588 271.555 15.1675ZM257 6.00001C257.396 6.00001 257.782 6.11731 258.111 6.33707C258.44 6.55683 258.696 6.86919 258.848 7.23464C258.999 7.60009 259.039 8.00223 258.962 8.39019C258.884 8.77815 258.694 9.13452 258.414 9.41422C258.135 9.69393 257.778 9.88441 257.39 9.96158C257.002 10.0388 256.6 9.99914 256.235 9.84777C255.869 9.69639 255.557 9.44005 255.337 9.11115C255.117 8.78225 255 8.39557 255 8.00001C255 7.46958 255.211 6.96087 255.586 6.5858C255.961 6.21072 256.47 6.00001 257 6.00001ZM255 22H259V26H255V22ZM266 18.1313V13.875L269.198 16L266 18.1313Z" fill="currentColor"/>
</g>
<defs>
<clipPath id="clip0_17_10615">
<rect width="272" height="32" rx="5" fill="white"/>
</clipPath>
</defs>
</svg>
