<svg width="272" height="32" viewBox="0 0 272 32" fill="none" xmlns="http://www.w3.org/2000/svg">
<g clip-path="url(#clip0_17_10569)">
<path d="M17.5001 25.5001C17.5001 25.7968 17.4121 26.0868 17.2473 26.3334C17.0825 26.5801 16.8482 26.7724 16.5741 26.8859C16.3 26.9994 15.9984 27.0291 15.7075 26.9713C15.4165 26.9134 15.1492 26.7705 14.9395 26.5608C14.7297 26.351 14.5868 26.0837 14.5289 25.7927C14.4711 25.5018 14.5008 25.2002 14.6143 24.9261C14.7278 24.652 14.9201 24.4177 15.1668 24.2529C15.4134 24.0881 15.7034 24.0001 16.0001 24.0001C16.3979 24.0001 16.7795 24.1581 17.0608 24.4394C17.3421 24.7207 17.5001 25.1023 17.5001 25.5001ZM21.5889 19.8163C19.9645 18.6358 18.0081 18 16.0001 18C13.9921 18 12.0357 18.6358 10.4114 19.8163C10.1969 19.9725 10.0532 20.2074 10.0119 20.4695C9.97067 20.7316 10.0352 20.9994 10.1914 21.2138C10.3475 21.4283 10.5825 21.572 10.8445 21.6133C11.1066 21.6545 11.3744 21.59 11.5889 21.4338C12.8708 20.5016 14.4151 19.9994 16.0001 19.9994C17.5852 19.9994 19.1295 20.5016 20.4114 21.4338C20.5176 21.5112 20.638 21.5668 20.7657 21.5976C20.8934 21.6284 21.0259 21.6337 21.1557 21.6133C21.2854 21.5928 21.4099 21.5471 21.522 21.4785C21.6341 21.41 21.7315 21.3201 21.8089 21.2138C21.8862 21.1076 21.9418 20.9872 21.9726 20.8595C22.0034 20.7318 22.0087 20.5993 21.9883 20.4695C21.9679 20.3398 21.9221 20.2153 21.8535 20.1032C21.785 19.9911 21.6951 19.8937 21.5889 19.8163Z" fill="currentColor"/>
<path d="M64.9999 25.5003C64.9999 25.6981 64.9412 25.8914 64.8313 26.0558C64.7215 26.2203 64.5653 26.3485 64.3826 26.4242C64.1998 26.4998 63.9988 26.5196 63.8048 26.4811C63.6108 26.4425 63.4326 26.3472 63.2928 26.2074C63.1529 26.0675 63.0577 25.8893 63.0191 25.6954C62.9805 25.5014 63.0003 25.3003 63.076 25.1176C63.1517 24.9349 63.2799 24.7787 63.4443 24.6688C63.6088 24.5589 63.8021 24.5003 63.9999 24.5003C64.2651 24.5003 64.5194 24.6056 64.707 24.7932C64.8945 24.9807 64.9999 25.2351 64.9999 25.5003ZM69.2936 20.2215C67.7553 19.1027 65.902 18.5 63.9999 18.5C62.0977 18.5 60.2444 19.1027 58.7061 20.2215C58.6504 20.2591 58.6029 20.3075 58.5663 20.3639C58.5298 20.4203 58.505 20.4834 58.4934 20.5496C58.4817 20.6158 58.4836 20.6836 58.4988 20.7491C58.514 20.8145 58.5422 20.8762 58.5818 20.9305C58.6214 20.9848 58.6715 21.0306 58.7292 21.0651C58.7868 21.0996 58.8509 21.1221 58.9174 21.1313C58.984 21.1405 59.0517 21.1361 59.1166 21.1186C59.1814 21.101 59.2421 21.0706 59.2949 21.029C60.6622 20.0348 62.3093 19.4992 63.9999 19.4992C65.6905 19.4992 67.3376 20.0348 68.7049 21.029C68.7577 21.0706 68.8183 21.101 68.8832 21.1186C68.948 21.1361 69.0158 21.1405 69.0823 21.1313C69.1489 21.1221 69.2129 21.0996 69.2706 21.0651C69.3282 21.0306 69.3783 20.9848 69.4179 20.9305C69.4575 20.8762 69.4858 20.8145 69.501 20.7491C69.5162 20.6836 69.518 20.6158 69.5064 20.5496C69.4948 20.4834 69.47 20.4203 69.4334 20.3639C69.3969 20.3075 69.3493 20.2591 69.2936 20.2215Z" fill="currentColor"/>
<path d="M113.25 25.4999C113.25 25.7472 113.177 25.9888 113.039 26.1944C112.902 26.4 112.707 26.5602 112.478 26.6548C112.25 26.7494 111.999 26.7742 111.756 26.7259C111.514 26.6777 111.291 26.5586 111.116 26.3838C110.941 26.209 110.822 25.9863 110.774 25.7438C110.726 25.5013 110.75 25.25 110.845 25.0216C110.94 24.7932 111.1 24.598 111.305 24.4606C111.511 24.3233 111.753 24.2499 112 24.2499C112.331 24.2499 112.649 24.3816 112.884 24.6161C113.118 24.8505 113.25 25.1684 113.25 25.4999ZM117.441 20.0187C115.86 18.8686 113.955 18.249 112 18.249C110.045 18.249 108.14 18.8686 106.559 20.0187C106.403 20.1375 106.299 20.3127 106.271 20.5067C106.242 20.7008 106.291 20.8983 106.407 21.0568C106.522 21.2154 106.695 21.3224 106.888 21.355C107.082 21.3876 107.28 21.3432 107.441 21.2312C108.766 20.2676 110.362 19.7486 112 19.7486C113.638 19.7486 115.234 20.2676 116.559 21.2312C116.719 21.3482 116.92 21.3965 117.117 21.3656C117.313 21.3346 117.489 21.2269 117.606 21.0662C117.723 20.9054 117.771 20.7047 117.741 20.5083C117.71 20.3119 117.602 20.1358 117.441 20.0187Z" fill="currentColor"/>
<path d="M162 25.4997C162 25.8953 161.883 26.282 161.663 26.6109C161.443 26.9398 161.131 27.1961 160.765 27.3475C160.4 27.4989 159.998 27.5385 159.61 27.4613C159.222 27.3841 158.865 27.1937 158.586 26.9139C158.306 26.6342 158.115 26.2779 158.038 25.8899C157.961 25.502 158.001 25.0998 158.152 24.7344C158.304 24.3689 158.56 24.0566 158.889 23.8368C159.218 23.617 159.604 23.4997 160 23.4997C160.53 23.4997 161.039 23.7104 161.414 24.0855C161.789 24.4606 162 24.9693 162 25.4997ZM165.882 19.4122C164.173 18.1688 162.114 17.499 160 17.499C157.886 17.499 155.827 18.1688 154.117 19.4122C153.796 19.6465 153.58 19.9988 153.519 20.3918C153.457 20.7848 153.554 21.1863 153.788 21.5079C154.022 21.8294 154.375 22.0448 154.768 22.1066C155.161 22.1683 155.562 22.0715 155.884 21.8372C157.08 20.9675 158.521 20.4991 160 20.4991C161.479 20.4991 162.92 20.9675 164.116 21.8372C164.438 22.0715 164.839 22.1683 165.232 22.1066C165.625 22.0448 165.978 21.8294 166.212 21.5079C166.446 21.1863 166.543 20.7848 166.481 20.3918C166.419 19.9988 166.204 19.6465 165.882 19.4122Z" fill="currentColor"/>
<path d="M222.986 10.1139C222.955 9.84845 222.87 9.592 222.738 9.35985C222.605 9.1277 222.428 8.9246 222.215 8.76266C218.129 5.65479 213.133 3.98086 208 4.00017C202.867 3.98086 197.87 5.65479 193.785 8.76266C193.572 8.9246 193.394 9.1277 193.262 9.35985C193.129 9.592 193.045 9.84845 193.014 10.1139C192.982 10.3787 193.005 10.6472 193.081 10.9028C193.157 11.1583 193.285 11.3957 193.456 11.6002L206.456 27.2789C206.644 27.5059 206.88 27.6883 207.147 27.813C207.414 27.9377 207.705 28.0017 208 28.0002C208.294 28.0009 208.584 27.9366 208.85 27.8119C209.116 27.6872 209.351 27.5052 209.539 27.2789L222.539 11.6002C222.711 11.3961 222.839 11.1589 222.916 10.9033C222.993 10.6477 223.017 10.3791 222.986 10.1139ZM213.296 19.6139C211.731 18.5605 209.887 17.9978 208 17.9978C206.113 17.9978 204.269 18.5605 202.704 19.6139L195.011 10.3427C198.746 7.50777 203.311 5.98169 208 6.00017C212.689 5.98169 217.254 7.50777 220.989 10.3427L213.296 19.6139Z" fill="currentColor"/>
<path opacity="0.2" d="M261.46 20.9845L256.769 26.6395C256.675 26.7524 256.557 26.8431 256.425 26.9054C256.292 26.9677 256.147 27 256 27C255.853 27 255.708 26.9677 255.576 26.9054C255.443 26.8431 255.325 26.7524 255.231 26.6395L250.54 20.9845C252.07 19.702 254.003 18.999 256 18.999C257.997 18.999 259.93 19.702 261.46 20.9845Z" fill="currentColor"/>
<path d="M270.986 10.1139C270.955 9.84845 270.87 9.592 270.738 9.35985C270.605 9.1277 270.428 8.9246 270.215 8.76266C266.129 5.65479 261.133 3.98086 256 4.00017C250.867 3.98086 245.87 5.65479 241.785 8.76266C241.572 8.9246 241.394 9.1277 241.262 9.35985C241.129 9.592 241.045 9.84845 241.014 10.1139C240.982 10.3787 241.005 10.6472 241.081 10.9028C241.157 11.1583 241.285 11.3957 241.456 11.6002L254.456 27.2789C254.644 27.5059 254.88 27.6883 255.147 27.813C255.414 27.9377 255.705 28.0017 256 28.0002C256.294 28.0009 256.584 27.9366 256.85 27.8119C257.116 27.6872 257.351 27.5052 257.539 27.2789L270.539 11.6002C270.711 11.3961 270.839 11.1589 270.916 10.9033C270.993 10.6477 271.017 10.3791 270.986 10.1139ZM256 26.0002L251.987 21.1627C253.188 20.4026 254.579 19.9991 256 19.9991C257.421 19.9991 258.812 20.4026 260.012 21.1627L256 26.0002ZM261.296 19.6152C259.731 18.5617 257.887 17.999 256 17.999C254.113 17.999 252.269 18.5617 250.704 19.6152L243.011 10.3427C246.746 7.50777 251.311 5.98169 256 6.00017C260.689 5.98169 265.254 7.50777 268.989 10.3427L261.296 19.6152Z" fill="currentColor"/>
</g>
<defs>
<clipPath id="clip0_17_10569">
<rect width="272" height="32" rx="5" fill="white"/>
</clipPath>
</defs>
</svg>
