<svg width="272" height="32" viewBox="0 0 272 32" fill="none" xmlns="http://www.w3.org/2000/svg">
<g clip-path="url(#clip0_17_10583)">
<path d="M17.5 25.4997C17.5 25.7963 17.412 26.0863 17.2472 26.333C17.0824 26.5797 16.8481 26.772 16.574 26.8855C16.2999 26.999 15.9983 27.0287 15.7073 26.9708C15.4164 26.913 15.1491 26.7701 14.9393 26.5603C14.7295 26.3505 14.5867 26.0833 14.5288 25.7923C14.4709 25.5013 14.5006 25.1997 14.6142 24.9256C14.7277 24.6516 14.92 24.4173 15.1666 24.2525C15.4133 24.0876 15.7033 23.9997 16 23.9997C16.3978 23.9997 16.7793 24.1577 17.0606 24.439C17.3419 24.7203 17.5 25.1018 17.5 25.4997ZM29.635 10.8747C25.7906 7.72139 20.9721 5.99805 16 5.99805C11.0278 5.99805 6.20936 7.72139 2.36499 10.8747C2.26346 10.9581 2.17935 11.0606 2.11746 11.1765C2.05557 11.2924 2.01712 11.4194 2.00429 11.5501C1.99146 11.6809 2.00452 11.8129 2.04271 11.9386C2.0809 12.0643 2.14347 12.1813 2.22686 12.2828C2.31025 12.3843 2.41282 12.4684 2.52871 12.5303C2.64461 12.5922 2.77156 12.6307 2.90232 12.6435C3.16639 12.6694 3.42994 12.5893 3.63499 12.4209C7.1215 9.56181 11.4911 7.99927 16 7.99927C20.5089 7.99927 24.8785 9.56181 28.365 12.4209C28.57 12.5893 28.8336 12.6694 29.0977 12.6435C29.3617 12.6176 29.6047 12.4878 29.7731 12.2828C29.9415 12.0777 30.0216 11.8142 29.9957 11.5501C29.9698 11.286 29.84 11.0431 29.635 10.8747ZM25.625 15.3459C22.8867 13.1779 19.4964 11.9983 16.0037 11.9983C12.5111 11.9983 9.12082 13.1779 6.38249 15.3459C6.17462 15.5107 6.04072 15.7513 6.01025 16.0148C5.97978 16.2782 6.05522 16.5431 6.21999 16.7509C6.38475 16.9588 6.62534 17.0927 6.88883 17.1232C7.15232 17.1536 7.41712 17.0782 7.62499 16.9134C10.0098 15.0257 12.9622 13.9986 16.0037 13.9986C19.0453 13.9986 21.9977 15.0257 24.3825 16.9134C24.4854 16.995 24.6034 17.0555 24.7297 17.0915C24.856 17.1275 24.9882 17.1383 25.1186 17.1232C25.2491 17.1081 25.3753 17.0675 25.4901 17.0036C25.6049 16.9397 25.7059 16.8539 25.7875 16.7509C25.8691 16.648 25.9296 16.53 25.9656 16.4037C26.0016 16.2774 26.0124 16.1452 25.9973 16.0148C25.9822 15.8843 25.9415 15.7581 25.8777 15.6433C25.8138 15.5285 25.7279 15.4275 25.625 15.3459ZM21.5925 19.8159C19.9682 18.6354 18.0117 17.9996 16.0037 17.9996C13.9957 17.9996 12.0393 18.6354 10.415 19.8159C10.2005 19.9721 10.0568 20.207 10.0156 20.4691C9.9743 20.7312 10.0388 20.9989 10.195 21.2134C10.3511 21.4279 10.5861 21.5716 10.8482 21.6128C11.1103 21.6541 11.378 21.5896 11.5925 21.4334C12.8744 20.5011 14.4187 19.999 16.0037 19.999C17.5888 19.999 19.1331 20.5011 20.415 21.4334C20.5212 21.5107 20.6416 21.5664 20.7693 21.5972C20.897 21.6279 21.0295 21.6333 21.1593 21.6128C21.2891 21.5924 21.4135 21.5466 21.5256 21.4781C21.6377 21.4096 21.7352 21.3196 21.8125 21.2134C21.8898 21.1072 21.9454 20.9868 21.9762 20.8591C22.007 20.7314 22.0123 20.5989 21.9919 20.4691C21.9715 20.3393 21.9257 20.2149 21.8572 20.1028C21.7886 19.9907 21.6987 19.8932 21.5925 19.8159Z" fill="currentColor"/>
<path d="M65 25.5004C65 25.6982 64.9413 25.8915 64.8314 26.0559C64.7216 26.2204 64.5654 26.3486 64.3826 26.4243C64.1999 26.4999 63.9989 26.5197 63.8049 26.4812C63.6109 26.4426 63.4327 26.3473 63.2929 26.2075C63.153 26.0676 63.0578 25.8894 63.0192 25.6955C62.9806 25.5015 63.0004 25.3004 63.0761 25.1177C63.1518 24.935 63.2799 24.7788 63.4444 24.6689C63.6088 24.559 63.8022 24.5004 64 24.5004C64.2652 24.5004 64.5195 24.6057 64.7071 24.7933C64.8946 24.9808 65 25.2352 65 25.5004ZM77.3175 11.2629C73.5626 8.18314 68.8563 6.5 64 6.5C59.1436 6.5 54.4374 8.18314 50.6825 11.2629C50.6314 11.3045 50.5891 11.3557 50.5579 11.4137C50.5267 11.4717 50.5073 11.5353 50.5008 11.6008C50.4942 11.6663 50.5007 11.7325 50.5198 11.7955C50.5389 11.8585 50.5702 11.9171 50.612 11.968C50.6538 12.0189 50.7053 12.061 50.7634 12.0919C50.8215 12.1228 50.8852 12.142 50.9508 12.1482C51.0163 12.1545 51.0824 12.1477 51.1454 12.1284C51.2083 12.109 51.2668 12.0774 51.3175 12.0354C54.8934 9.10272 59.3752 7.49999 64 7.49999C68.6247 7.49999 73.1065 9.10272 76.6825 12.0354C76.785 12.1189 76.9164 12.1584 77.048 12.1453C77.1796 12.1321 77.3006 12.0674 77.3845 11.9653C77.4685 11.8631 77.5086 11.7318 77.496 11.6002C77.4835 11.4686 77.4192 11.3473 77.3175 11.2629ZM73.31 15.7391C70.6597 13.6403 67.3781 12.4983 63.9975 12.4983C60.6168 12.4983 57.3352 13.6403 54.685 15.7391C54.6335 15.7802 54.5906 15.8309 54.5588 15.8885C54.5269 15.9462 54.5068 16.0095 54.4994 16.0749C54.492 16.1403 54.4976 16.2065 54.5158 16.2697C54.5341 16.333 54.5646 16.392 54.6056 16.4435C54.6466 16.495 54.6974 16.5378 54.755 16.5697C54.8126 16.6015 54.8759 16.6217 54.9413 16.6291C55.0067 16.6364 55.073 16.6309 55.1362 16.6126C55.1995 16.5944 55.2585 16.5639 55.31 16.5229C57.7829 14.566 60.844 13.5014 63.9975 13.5014C67.1509 13.5014 70.2121 14.566 72.685 16.5229C72.7364 16.5639 72.7955 16.5944 72.8587 16.6126C72.922 16.6309 72.9882 16.6364 73.0536 16.6291C73.119 16.6217 73.1823 16.6015 73.2399 16.5697C73.2975 16.5378 73.3483 16.495 73.3893 16.4435C73.4304 16.392 73.4609 16.333 73.4791 16.2697C73.4973 16.2065 73.5029 16.1403 73.4955 16.0749C73.4882 16.0095 73.468 15.9462 73.4361 15.8885C73.4043 15.8309 73.3614 15.7802 73.31 15.7391ZM69.2937 20.2216C67.7554 19.1028 65.9021 18.5001 64 18.5001C62.0978 18.5001 60.2445 19.1028 58.7062 20.2216C58.6493 20.2586 58.6005 20.3068 58.5628 20.3633C58.5251 20.4197 58.4993 20.4832 58.487 20.55C58.4746 20.6168 58.476 20.6853 58.491 20.7515C58.506 20.8177 58.5344 20.8802 58.5743 20.9351C58.6142 20.99 58.6649 21.0361 58.7233 21.0708C58.7817 21.1055 58.8465 21.1279 58.9138 21.1367C58.9811 21.1455 59.0495 21.1405 59.1148 21.122C59.1801 21.1035 59.241 21.0719 59.2937 21.0291C60.6618 20.0356 62.3092 19.5004 64 19.5004C65.6907 19.5004 67.3382 20.0356 68.7062 21.0291C68.8132 21.107 68.9467 21.1393 69.0774 21.1189C69.2082 21.0985 69.3255 21.0271 69.4037 20.9204C69.4424 20.8673 69.4702 20.8071 69.4856 20.7432C69.501 20.6794 69.5037 20.6131 69.4935 20.5482C69.4833 20.4833 69.4604 20.4211 69.4261 20.365C69.3918 20.309 69.3468 20.2603 69.2937 20.2216Z" fill="currentColor"/>
<path d="M113.25 25.5C113.25 25.7472 113.177 25.9889 113.039 26.1945C112.902 26.4 112.707 26.5603 112.478 26.6549C112.25 26.7495 111.999 26.7742 111.756 26.726C111.514 26.6778 111.291 26.5587 111.116 26.3839C110.941 26.2091 110.822 25.9864 110.774 25.7439C110.726 25.5014 110.751 25.2501 110.845 25.0217C110.94 24.7933 111.1 24.598 111.306 24.4607C111.511 24.3233 111.753 24.25 112 24.25C112.332 24.25 112.65 24.3817 112.884 24.6161C113.118 24.8506 113.25 25.1685 113.25 25.5ZM125.476 11.0688C121.677 7.95227 116.914 6.24902 112 6.24902C107.086 6.24902 102.323 7.95227 98.5238 11.0688C98.4473 11.1312 98.3838 11.2081 98.337 11.295C98.2902 11.382 98.2611 11.4774 98.2513 11.5757C98.2415 11.6739 98.2511 11.7732 98.2798 11.8677C98.3084 11.9622 98.3555 12.0502 98.4182 12.1265C98.4809 12.2028 98.5581 12.2659 98.6453 12.3123C98.7324 12.3587 98.8279 12.3874 98.9263 12.3968C99.0246 12.4062 99.1238 12.3961 99.2182 12.367C99.3126 12.338 99.4003 12.2906 99.4763 12.2275C103.008 9.33164 107.433 7.749 112 7.749C116.567 7.749 120.993 9.33164 124.524 12.2275C124.6 12.2906 124.688 12.338 124.782 12.367C124.876 12.3961 124.976 12.4062 125.074 12.3968C125.172 12.3874 125.268 12.3587 125.355 12.3123C125.442 12.2659 125.519 12.2028 125.582 12.1265C125.645 12.0502 125.692 11.9622 125.72 11.8677C125.749 11.7732 125.759 11.6739 125.749 11.5757C125.739 11.4774 125.71 11.382 125.663 11.295C125.616 11.2081 125.553 11.1312 125.476 11.0688ZM121.466 15.5425C118.772 13.4094 115.436 12.2488 112 12.2488C108.564 12.2488 105.228 13.4094 102.534 15.5425C102.378 15.6662 102.277 15.8467 102.255 16.0445C102.232 16.2422 102.288 16.4409 102.412 16.5969C102.536 16.7529 102.716 16.8533 102.914 16.8762C103.112 16.8991 103.31 16.8424 103.466 16.7188C105.895 14.7962 108.902 13.7501 112 13.7501C115.098 13.7501 118.105 14.7962 120.534 16.7188C120.667 16.8218 120.832 16.8768 121 16.875C121.156 16.875 121.308 16.8266 121.434 16.7365C121.561 16.6463 121.657 16.5189 121.708 16.3719C121.76 16.2249 121.764 16.0656 121.72 15.9161C121.677 15.7666 121.588 15.6343 121.466 15.5375V15.5425ZM117.441 20.0188C115.86 18.8686 113.955 18.2491 112 18.2491C110.045 18.2491 108.14 18.8686 106.559 20.0188C106.403 20.1376 106.299 20.3128 106.271 20.5068C106.243 20.7009 106.291 20.8983 106.407 21.0569C106.522 21.2155 106.695 21.3225 106.888 21.3551C107.082 21.3877 107.28 21.3433 107.441 21.2313C108.766 20.2677 110.362 19.7487 112 19.7487C113.638 19.7487 115.234 20.2677 116.559 21.2313C116.72 21.3483 116.92 21.3966 117.117 21.3656C117.313 21.3347 117.489 21.227 117.606 21.0663C117.723 20.9055 117.772 20.7048 117.741 20.5084C117.71 20.3119 117.602 20.1358 117.441 20.0188Z" fill="currentColor"/>
<path d="M162 25.4996C162 25.8952 161.883 26.2819 161.663 26.6108C161.443 26.9396 161.131 27.196 160.765 27.3474C160.4 27.4987 159.998 27.5384 159.61 27.4612C159.222 27.384 158.865 27.1935 158.586 26.9138C158.306 26.6341 158.116 26.2778 158.038 25.8898C157.961 25.5018 158.001 25.0997 158.152 24.7342C158.304 24.3688 158.56 24.0564 158.889 23.8367C159.218 23.6169 159.604 23.4996 160 23.4996C160.53 23.4996 161.039 23.7103 161.414 24.0854C161.789 24.4605 162 24.9692 162 25.4996ZM173.951 10.4884C170.018 7.26219 165.087 5.49902 160 5.49902C154.913 5.49902 149.982 7.26219 146.049 10.4884C145.896 10.6134 145.77 10.7671 145.677 10.9409C145.585 11.1146 145.527 11.305 145.508 11.501C145.488 11.6971 145.508 11.895 145.565 12.0835C145.622 12.272 145.716 12.4474 145.841 12.5996C145.966 12.7519 146.12 12.878 146.294 12.9708C146.467 13.0637 146.658 13.1213 146.854 13.1406C147.05 13.1599 147.248 13.1403 147.436 13.0831C147.625 13.0259 147.8 12.9321 147.952 12.8071C151.349 10.0215 155.607 8.49921 160 8.49921C164.393 8.49921 168.65 10.0215 172.047 12.8071C172.2 12.9321 172.375 13.0259 172.564 13.0831C172.752 13.1403 172.95 13.1599 173.146 13.1406C173.342 13.1213 173.532 13.0637 173.706 12.9708C173.88 12.878 174.034 12.7519 174.159 12.5996C174.284 12.4474 174.377 12.272 174.435 12.0835C174.492 11.895 174.511 11.6971 174.492 11.501C174.473 11.305 174.415 11.1146 174.322 10.9409C174.23 10.7671 174.103 10.6134 173.951 10.4884ZM169.931 14.9546C167.105 12.7169 163.605 11.4993 160 11.4993C156.395 11.4993 152.895 12.7169 150.069 14.9546C149.765 15.2041 149.571 15.5631 149.529 15.9542C149.487 16.3453 149.6 16.7371 149.845 17.0454C150.089 17.3537 150.444 17.5538 150.835 17.6025C151.225 17.6512 151.619 17.5447 151.931 17.3059C154.228 15.4879 157.071 14.4988 160 14.4988C162.929 14.4988 165.772 15.4879 168.069 17.3059C168.381 17.5447 168.775 17.6512 169.165 17.6025C169.556 17.5538 169.911 17.3537 170.155 17.0454C170.4 16.7371 170.513 16.3453 170.471 15.9542C170.429 15.5631 170.235 15.2041 169.931 14.9546ZM165.884 19.4121C164.174 18.169 162.114 17.4995 160 17.4995C157.886 17.4995 155.826 18.169 154.116 19.4121C153.795 19.6465 153.579 19.999 153.518 20.3921C153.456 20.7853 153.553 21.1868 153.787 21.5084C154.022 21.8299 154.374 22.0452 154.767 22.1069C155.161 22.1685 155.562 22.0715 155.884 21.8371C157.08 20.9674 158.521 20.499 160 20.499C161.479 20.499 162.92 20.9674 164.116 21.8371C164.275 21.9532 164.456 22.0367 164.647 22.083C164.839 22.1293 165.038 22.1374 165.232 22.1069C165.427 22.0764 165.614 22.0078 165.782 21.9051C165.95 21.8024 166.096 21.6676 166.212 21.5084C166.328 21.3491 166.412 21.1686 166.458 20.9771C166.505 20.7856 166.513 20.5868 166.482 20.3921C166.452 20.1975 166.383 20.0108 166.28 19.8426C166.178 19.6744 166.043 19.5282 165.884 19.4121Z" fill="currentColor"/>
<path d="M222.544 11.6002L209.544 27.2789C209.356 27.5059 209.12 27.6883 208.853 27.813C208.586 27.9377 208.295 28.0017 208 28.0002C207.706 28.0009 207.416 27.9366 207.15 27.8119C206.884 27.6872 206.649 27.5052 206.461 27.2789L193.456 11.6002C193.285 11.3957 193.157 11.1583 193.081 10.9028C193.005 10.6472 192.982 10.3787 193.014 10.1139C193.045 9.84845 193.129 9.592 193.262 9.35985C193.394 9.1277 193.572 8.9246 193.785 8.76266C197.87 5.65479 202.867 3.98086 208 4.00017C213.133 3.98086 218.129 5.65479 222.215 8.76266C222.428 8.9246 222.605 9.1277 222.738 9.35985C222.87 9.592 222.955 9.84845 222.986 10.1139C223.018 10.3787 222.995 10.6472 222.918 10.9028C222.842 11.1583 222.715 11.3957 222.544 11.6002Z" fill="currentColor"/>
<path opacity="0.2" d="M269.775 10.9614L256.775 26.6401C256.681 26.7529 256.564 26.8437 256.431 26.906C256.298 26.9683 256.153 27.0006 256.006 27.0006C255.859 27.0006 255.714 26.9683 255.582 26.906C255.449 26.8437 255.331 26.7529 255.237 26.6401L242.225 10.9614C242.141 10.8599 242.078 10.7424 242.04 10.616C242.003 10.4895 241.991 10.3567 242.006 10.2256C242.022 10.0946 242.063 9.96804 242.129 9.85363C242.195 9.73923 242.283 9.63938 242.389 9.56013C246.309 6.60088 251.088 5 256 5C260.912 5 265.69 6.60088 269.611 9.56013C269.717 9.63938 269.805 9.73923 269.871 9.85363C269.936 9.96804 269.978 10.0946 269.993 10.2256C270.009 10.3567 269.997 10.4895 269.96 10.616C269.922 10.7424 269.859 10.8599 269.775 10.9614Z" fill="currentColor"/>
<path d="M270.986 10.1139C270.955 9.84845 270.87 9.592 270.738 9.35985C270.605 9.1277 270.428 8.9246 270.215 8.76266C266.129 5.65479 261.133 3.98086 256 4.00017C250.867 3.98086 245.87 5.65479 241.785 8.76266C241.572 8.9246 241.394 9.1277 241.262 9.35985C241.129 9.592 241.045 9.84845 241.014 10.1139C240.982 10.3787 241.005 10.6472 241.081 10.9028C241.157 11.1583 241.285 11.3957 241.456 11.6002L254.456 27.2789C254.644 27.5059 254.88 27.6883 255.147 27.813C255.414 27.9377 255.705 28.0017 256 28.0002C256.294 28.0009 256.584 27.9366 256.85 27.8119C257.116 27.6872 257.351 27.5052 257.539 27.2789L270.539 11.6002C270.711 11.3961 270.839 11.1589 270.916 10.9033C270.993 10.6477 271.017 10.3791 270.986 10.1139ZM256 26.0002L243.011 10.3427C246.746 7.50777 251.311 5.98169 256 6.00017C260.689 5.98169 265.254 7.50777 268.989 10.3427L256 26.0002Z" fill="currentColor"/>
</g>
<defs>
<clipPath id="clip0_17_10583">
<rect width="272" height="32" rx="5" fill="white"/>
</clipPath>
</defs>
</svg>
