<svg width="272" height="32" viewBox="0 0 272 32" fill="none" xmlns="http://www.w3.org/2000/svg">
<g clip-path="url(#clip0_17_4851)">
<path d="M11.5 17.5C11.2033 17.5 10.9133 17.412 10.6667 17.2472C10.42 17.0824 10.2277 16.8481 10.1142 16.574C10.0007 16.2999 9.97095 15.9983 10.0288 15.7074C10.0867 15.4164 10.2296 15.1491 10.4393 14.9393C10.6491 14.7296 10.9164 14.5867 11.2074 14.5288C11.4983 14.4709 11.7999 14.5006 12.074 14.6142C12.3481 14.7277 12.5824 14.92 12.7472 15.1666C12.912 15.4133 13 15.7033 13 16C13 16.3978 12.842 16.7794 12.5607 17.0607C12.2794 17.342 11.8978 17.5 11.5 17.5ZM20.5 14.5C20.2033 14.5 19.9133 14.588 19.6667 14.7528C19.42 14.9176 19.2277 15.1519 19.1142 15.426C19.0007 15.7001 18.971 16.0017 19.0288 16.2926C19.0867 16.5836 19.2296 16.8509 19.4393 17.0607C19.6491 17.2704 19.9164 17.4133 20.2074 17.4712C20.4983 17.5291 20.7999 17.4993 21.074 17.3858C21.3481 17.2723 21.5824 17.08 21.7472 16.8334C21.912 16.5867 22 16.2967 22 16C22 15.6022 21.842 15.2206 21.5607 14.9393C21.2794 14.658 20.8978 14.5 20.5 14.5ZM18.9663 20.1537C18.0756 20.7065 17.0482 20.9994 16 20.9994C14.9518 20.9994 13.9244 20.7065 13.0338 20.1537C12.8093 20.0122 12.5378 19.9656 12.279 20.0242C12.0202 20.0828 11.7953 20.2418 11.6538 20.4662C11.5122 20.6907 11.4656 20.9622 11.5242 21.221C11.5828 21.4798 11.7418 21.7047 11.9663 21.8463C13.1764 22.6007 14.5739 23.0006 16 23.0006C17.4261 23.0006 18.8236 22.6007 20.0338 21.8463C20.2582 21.7047 20.4172 21.4798 20.4758 21.221C20.5344 20.9622 20.4878 20.6907 20.3463 20.4662C20.2047 20.2418 19.9798 20.0828 19.721 20.0242C19.4622 19.9656 19.1907 20.0122 18.9663 20.1537ZM29 16C29 18.5712 28.2376 21.0846 26.8091 23.2224C25.3807 25.3603 23.3503 27.0265 20.9749 28.0104C18.5995 28.9944 15.9856 29.2518 13.4638 28.7502C10.9421 28.2486 8.6257 27.0105 6.80762 25.1924C4.98953 23.3743 3.75141 21.0579 3.2498 18.5362C2.74819 16.0144 3.00563 13.4006 3.98957 11.0251C4.97351 8.64968 6.63975 6.61935 8.77759 5.1909C10.9154 3.76244 13.4288 3 16 3C19.4467 3.00364 22.7512 4.37445 25.1884 6.81163C27.6256 9.24882 28.9964 12.5533 29 16ZM27 16C26.9965 13.1683 25.9025 10.4468 23.9452 8.40047C21.9878 6.3542 19.3175 5.14044 16.4888 5.01125C15.04 7.0475 15 8.985 15 9C15 9.26522 15.1054 9.51957 15.2929 9.70711C15.4804 9.89464 15.7348 10 16 10C16.2652 10 16.5196 9.89464 16.7071 9.70711C16.8946 9.51957 17 9.26522 17 9C17 8.73478 17.1054 8.48043 17.2929 8.29289C17.4804 8.10536 17.7348 8 18 8C18.2652 8 18.5196 8.10536 18.7071 8.29289C18.8946 8.48043 19 8.73478 19 9C19 9.79565 18.6839 10.5587 18.1213 11.1213C17.5587 11.6839 16.7957 12 16 12C15.2044 12 14.4413 11.6839 13.8787 11.1213C13.3161 10.5587 13 9.79565 13 9C13 8.90875 13.0163 7.2125 14.0575 5.17125C11.998 5.54076 10.0865 6.49002 8.54748 7.90765C7.00845 9.32529 5.90568 11.1525 5.36857 13.1748C4.83147 15.1971 4.88231 17.3307 5.51513 19.3252C6.14796 21.3196 7.33651 23.0922 8.94132 24.4349C10.5461 25.7776 12.5006 26.6348 14.5754 26.9057C16.6503 27.1767 18.7593 26.8503 20.6552 25.9648C22.551 25.0793 24.1549 23.6714 25.2788 21.9064C26.4026 20.1414 26.9997 18.0924 27 16Z" fill="currentColor"/>
<path d="M59.5 17C59.3022 17 59.1089 16.9414 58.9444 16.8315C58.78 16.7216 58.6518 16.5654 58.5761 16.3827C58.5004 16.2 58.4806 15.9989 58.5192 15.8049C58.5578 15.6109 58.653 15.4327 58.7929 15.2929C58.9328 15.153 59.1109 15.0578 59.3049 15.0192C59.4989 14.9806 59.7 15.0004 59.8827 15.0761C60.0654 15.1518 60.2216 15.28 60.3315 15.4444C60.4414 15.6089 60.5 15.8022 60.5 16C60.5 16.2652 60.3946 16.5196 60.2071 16.7071C60.0196 16.8946 59.7652 17 59.5 17ZM68.5 15C68.3022 15 68.1089 15.0586 67.9444 15.1685C67.78 15.2784 67.6518 15.4346 67.5761 15.6173C67.5004 15.8 67.4806 16.0011 67.5192 16.1951C67.5578 16.3891 67.653 16.5673 67.7929 16.7071C67.9328 16.847 68.1109 16.9422 68.3049 16.9808C68.4989 17.0194 68.7 16.9996 68.8827 16.9239C69.0654 16.8482 69.2216 16.72 69.3315 16.5556C69.4414 16.3911 69.5 16.1978 69.5 16C69.5 15.7348 69.3946 15.4804 69.2071 15.2929C69.0196 15.1054 68.7652 15 68.5 15ZM67.2338 20.5775C66.2631 21.1809 65.1429 21.5007 64 21.5007C62.8571 21.5007 61.7369 21.1809 60.7663 20.5775C60.6544 20.5145 60.5227 20.4969 60.3982 20.5284C60.2738 20.5598 60.1662 20.638 60.0978 20.7465C60.0294 20.8551 60.0053 20.9859 60.0306 21.1117C60.0559 21.2375 60.1287 21.3488 60.2338 21.4225C61.3639 22.1263 62.6686 22.4993 64 22.4993C65.3314 22.4993 66.6361 22.1263 67.7663 21.4225C67.8253 21.3893 67.8769 21.3444 67.918 21.2906C67.9592 21.2367 67.9889 21.1751 68.0056 21.1095C68.0222 21.0438 68.0252 20.9755 68.0146 20.9086C68.004 20.8417 67.9799 20.7776 67.9438 20.7203C67.9077 20.663 67.8603 20.6136 67.8046 20.5752C67.7488 20.5368 67.6858 20.5101 67.6194 20.4967C67.553 20.4834 67.4846 20.4836 67.4183 20.4975C67.352 20.5114 67.2892 20.5386 67.2338 20.5775ZM76.5 16C76.5 18.4723 75.7669 20.889 74.3934 22.9446C73.0199 25.0002 71.0676 26.6024 68.7835 27.5485C66.4995 28.4946 63.9861 28.7421 61.5614 28.2598C59.1366 27.7775 56.9093 26.587 55.1612 24.8388C53.413 23.0907 52.2225 20.8634 51.7402 18.4386C51.2579 16.0139 51.5054 13.5005 52.4515 11.2165C53.3976 8.93238 54.9998 6.98015 57.0554 5.60663C59.111 4.23311 61.5277 3.5 64 3.5C67.3141 3.50364 70.4914 4.82177 72.8348 7.16518C75.1782 9.5086 76.4964 12.6859 76.5 16ZM75.5 16C75.4972 12.9926 74.3178 10.1057 72.214 7.95666C70.1102 5.80759 67.2491 4.56693 64.2425 4.5C62.5325 6.75875 62.5 8.97875 62.5 9C62.5 9.39782 62.658 9.77936 62.9393 10.0607C63.2206 10.342 63.6022 10.5 64 10.5C64.3978 10.5 64.7794 10.342 65.0607 10.0607C65.342 9.77936 65.5 9.39782 65.5 9C65.5 8.86739 65.5527 8.74021 65.6465 8.64645C65.7402 8.55268 65.8674 8.5 66 8.5C66.1326 8.5 66.2598 8.55268 66.3536 8.64645C66.4473 8.74021 66.5 8.86739 66.5 9C66.5 9.66304 66.2366 10.2989 65.7678 10.7678C65.2989 11.2366 64.663 11.5 64 11.5C63.337 11.5 62.7011 11.2366 62.2322 10.7678C61.7634 10.2989 61.5 9.66304 61.5 9C61.5 8.9025 61.52 6.83625 63 4.545C60.7765 4.73908 58.6576 5.57599 56.9016 6.95365C55.1456 8.33132 53.8284 10.1902 53.1107 12.3036C52.3931 14.417 52.3059 16.6936 52.8598 18.8556C53.4138 21.0177 54.5849 22.9719 56.2304 24.4798C57.8759 25.9878 59.9246 26.9843 62.1267 27.3478C64.3289 27.7114 66.5892 27.4263 68.6321 26.5273C70.6749 25.6283 72.412 24.1543 73.6316 22.285C74.8511 20.4157 75.5003 18.2319 75.5 16Z" fill="currentColor"/>
<path d="M107.5 17.25C107.253 17.25 107.011 17.1767 106.806 17.0393C106.6 16.902 106.44 16.7068 106.345 16.4784C106.251 16.2499 106.226 15.9986 106.274 15.7561C106.322 15.5137 106.441 15.2909 106.616 15.1161C106.791 14.9413 107.014 14.8222 107.256 14.774C107.499 14.7258 107.75 14.7505 107.978 14.8452C108.207 14.9398 108.402 15.1 108.539 15.3055C108.677 15.5111 108.75 15.7528 108.75 16C108.75 16.3315 108.618 16.6495 108.384 16.8839C108.149 17.1183 107.832 17.25 107.5 17.25ZM116.5 14.75C116.253 14.75 116.011 14.8233 115.806 14.9607C115.6 15.098 115.44 15.2932 115.345 15.5216C115.251 15.7501 115.226 16.0014 115.274 16.2439C115.322 16.4863 115.441 16.7091 115.616 16.8839C115.791 17.0587 116.014 17.1777 116.256 17.226C116.499 17.2742 116.75 17.2495 116.978 17.1549C117.207 17.0602 117.402 16.9 117.539 16.6945C117.677 16.4889 117.75 16.2472 117.75 16C117.75 15.6685 117.618 15.3505 117.384 15.1161C117.149 14.8817 116.832 14.75 116.5 14.75ZM115.1 20.365C114.169 20.9431 113.096 21.2494 112 21.2494C110.904 21.2494 109.831 20.9431 108.9 20.365C108.732 20.2589 108.528 20.2241 108.334 20.2681C108.14 20.3122 107.971 20.4316 107.865 20.6C107.759 20.7684 107.724 20.9721 107.768 21.1662C107.812 21.3603 107.932 21.5289 108.1 21.635C109.27 22.3641 110.621 22.7506 112 22.7506C113.379 22.7506 114.73 22.3641 115.9 21.635C115.983 21.5825 116.056 21.514 116.113 21.4336C116.17 21.3531 116.21 21.2623 116.232 21.1662C116.254 21.0701 116.256 20.9706 116.24 20.8735C116.223 20.7763 116.188 20.6834 116.135 20.6C116.082 20.5166 116.014 20.4444 115.934 20.3874C115.853 20.3305 115.762 20.29 115.666 20.2681C115.57 20.2463 115.471 20.2436 115.373 20.2603C115.276 20.2769 115.183 20.3125 115.1 20.365ZM124.75 16C124.75 18.5217 124.002 20.9868 122.601 23.0835C121.2 25.1802 119.209 26.8144 116.879 27.7795C114.549 28.7445 111.986 28.997 109.513 28.505C107.039 28.0131 104.768 26.7987 102.984 25.0156C101.201 23.2325 99.987 20.9607 99.495 18.4874C99.003 16.0141 99.2555 13.4505 100.221 11.1208C101.186 8.79103 102.82 6.79975 104.916 5.39876C107.013 3.99777 109.478 3.25 112 3.25C115.38 3.25397 118.621 4.59854 121.011 6.98877C123.401 9.379 124.746 12.6197 124.75 16ZM123.25 16C123.246 13.0808 122.11 10.277 120.079 8.17953C118.049 6.08205 115.284 4.85473 112.366 4.75625C110.788 6.90375 110.75 8.98125 110.75 9C110.75 9.33152 110.882 9.64946 111.116 9.88388C111.351 10.1183 111.668 10.25 112 10.25C112.332 10.25 112.649 10.1183 112.884 9.88388C113.118 9.64946 113.25 9.33152 113.25 9C113.25 8.80109 113.329 8.61032 113.47 8.46967C113.61 8.32902 113.801 8.25 114 8.25C114.199 8.25 114.39 8.32902 114.53 8.46967C114.671 8.61032 114.75 8.80109 114.75 9C114.75 9.72935 114.46 10.4288 113.945 10.9445C113.429 11.4603 112.729 11.75 112 11.75C111.271 11.75 110.571 11.4603 110.055 10.9445C109.54 10.4288 109.25 9.72935 109.25 9C109.25 8.90625 109.269 7.0225 110.518 4.8475C108.375 5.13237 106.359 6.0286 104.712 7.42896C103.065 8.82932 101.857 10.6745 101.231 12.7437C100.606 14.813 100.59 17.0186 101.185 19.0968C101.78 21.175 102.961 23.0377 104.587 24.4621C106.214 25.8864 108.216 26.8121 110.354 27.1284C112.493 27.4446 114.677 27.138 116.646 26.2453C118.615 25.3526 120.284 23.9116 121.456 22.0946C122.627 20.2777 123.25 18.1617 123.25 16Z" fill="currentColor"/>
<path d="M155.5 18C155.104 18 154.718 17.8827 154.389 17.6629C154.06 17.4432 153.804 17.1308 153.652 16.7654C153.501 16.3999 153.461 15.9978 153.538 15.6098C153.616 15.2219 153.806 14.8655 154.086 14.5858C154.365 14.3061 154.722 14.1156 155.11 14.0384C155.498 13.9613 155.9 14.0009 156.265 14.1522C156.631 14.3036 156.943 14.56 157.163 14.8889C157.383 15.2178 157.5 15.6044 157.5 16C157.5 16.5304 157.289 17.0391 156.914 17.4142C156.539 17.7893 156.03 18 155.5 18ZM164.5 14C164.104 14 163.718 14.1173 163.389 14.3371C163.06 14.5568 162.804 14.8692 162.652 15.2346C162.501 15.6001 162.461 16.0022 162.538 16.3902C162.616 16.7781 162.806 17.1345 163.086 17.4142C163.365 17.6939 163.722 17.8844 164.11 17.9616C164.498 18.0387 164.9 17.9991 165.265 17.8478C165.631 17.6964 165.943 17.44 166.163 17.1111C166.383 16.7822 166.5 16.3956 166.5 16C166.5 15.4696 166.289 14.9609 165.914 14.5858C165.539 14.2107 165.03 14 164.5 14ZM162.7 20.2313C161.889 20.7339 160.954 21.0001 160 21.0001C159.046 21.0001 158.111 20.7339 157.3 20.2313C157.133 20.1236 156.947 20.0501 156.752 20.0149C156.557 19.9798 156.356 19.9837 156.163 20.0265C155.969 20.0692 155.786 20.15 155.623 20.2641C155.461 20.3782 155.323 20.5233 155.217 20.6911C155.111 20.8589 155.04 21.0461 155.007 21.2417C154.974 21.4373 154.98 21.6375 155.025 21.8307C155.07 22.0239 155.153 22.2063 155.269 22.3674C155.384 22.5284 155.531 22.6648 155.7 22.7687C156.99 23.5733 158.48 23.9999 160 23.9999C161.52 23.9999 163.01 23.5733 164.3 22.7687C164.469 22.6648 164.616 22.5284 164.731 22.3674C164.847 22.2063 164.93 22.0239 164.975 21.8307C165.02 21.6375 165.026 21.4373 164.993 21.2417C164.96 21.0461 164.889 20.8589 164.783 20.6911C164.677 20.5233 164.539 20.3782 164.377 20.2641C164.214 20.15 164.031 20.0692 163.837 20.0265C163.644 19.9837 163.443 19.9798 163.248 20.0149C163.053 20.0501 162.867 20.1236 162.7 20.2313ZM173.5 16C173.5 18.67 172.708 21.2801 171.225 23.5002C169.741 25.7203 167.633 27.4506 165.166 28.4724C162.699 29.4942 159.985 29.7615 157.366 29.2406C154.748 28.7197 152.342 27.434 150.454 25.5459C148.566 23.6579 147.28 21.2525 146.759 18.6337C146.239 16.015 146.506 13.3006 147.528 10.8338C148.549 8.36697 150.28 6.25856 152.5 4.77516C154.72 3.29176 157.33 2.5 160 2.5C163.579 2.50397 167.011 3.92756 169.542 6.45844C172.072 8.98932 173.496 12.4208 173.5 16ZM170.5 16C170.496 13.3446 169.488 10.789 167.678 8.84658C165.867 6.90415 163.389 5.71882 160.74 5.52875C159.576 7.29 159.504 8.90375 159.5 9.0075C159.501 9.14011 159.555 9.26689 159.649 9.35995C159.744 9.45302 159.871 9.50474 160.004 9.50375C160.136 9.50276 160.263 9.44912 160.356 9.35465C160.449 9.26018 160.501 9.13261 160.5 9C160.5 8.60218 160.658 8.22064 160.939 7.93934C161.221 7.65804 161.602 7.5 162 7.5C162.398 7.5 162.779 7.65804 163.061 7.93934C163.342 8.22064 163.5 8.60218 163.5 9C163.5 9.92826 163.131 10.8185 162.475 11.4749C161.819 12.1313 160.928 12.5 160 12.5C159.072 12.5 158.182 12.1313 157.525 11.4749C156.869 10.8185 156.5 9.92826 156.5 9C156.5 8.91875 156.513 7.60125 157.19 5.885C155.306 6.40841 153.605 7.44774 152.279 8.88587C150.954 10.324 150.056 12.1038 149.688 14.0246C149.32 15.9454 149.495 17.9309 150.195 19.7573C150.894 21.5837 152.09 23.1785 153.647 24.3619C155.204 25.5453 157.061 26.2702 159.008 26.455C160.955 26.6398 162.915 26.2772 164.667 25.4079C166.419 24.5386 167.893 23.1973 168.924 21.5351C169.954 19.8728 170.5 17.9558 170.5 16Z" fill="currentColor"/>
<path d="M208.77 3.0125C208.682 3.00792 208.595 3.02641 208.517 3.06612C208.439 3.10582 208.373 3.16536 208.325 3.23875C207.037 5.185 207 6.97375 207 7C207 7.14882 207.034 7.29562 207.099 7.42972C207.163 7.56381 207.257 7.68181 207.373 7.77511C207.489 7.86841 207.624 7.93466 207.769 7.96903C207.914 8.00339 208.064 8.005 208.21 7.97375C208.437 7.91936 208.639 7.7894 208.782 7.60521C208.926 7.42101 209.003 7.19351 209 6.96C209.005 6.82322 209.037 6.68888 209.096 6.56529C209.155 6.4417 209.239 6.3315 209.342 6.2415C209.445 6.15151 209.565 6.08364 209.696 6.0421C209.826 6.00056 209.964 5.98623 210.1 6C210.351 6.02914 210.582 6.1506 210.748 6.34075C210.915 6.5309 211.004 6.77614 211 7.02875C210.995 7.8244 210.675 8.58569 210.109 9.14513C209.544 9.70457 208.779 10.0164 207.983 10.0119C207.187 10.0074 206.426 9.68704 205.867 9.12126C205.307 8.55549 204.995 7.79065 205 6.995C205 6.91625 205.011 5.6475 205.68 3.995C205.714 3.91044 205.724 3.81823 205.709 3.72834C205.694 3.63844 205.655 3.55427 205.596 3.48492C205.537 3.41557 205.46 3.36367 205.374 3.33482C205.288 3.30598 205.195 3.30129 205.106 3.32125C202.16 3.99806 199.541 5.67909 197.698 8.07595C195.856 10.4728 194.905 13.4361 195.009 16.4575C195.25 23.34 200.904 28.875 207.79 28.9875C211.187 29.0395 214.469 27.7597 216.934 25.4219C219.4 23.0841 220.852 19.8741 220.98 16.4791C221.108 13.0842 219.902 9.77393 217.62 7.25703C215.338 4.74014 212.161 3.21658 208.77 3.0125ZM202 15.9888C202 15.6921 202.088 15.4021 202.253 15.1554C202.418 14.9087 202.652 14.7165 202.926 14.6029C203.2 14.4894 203.502 14.4597 203.793 14.5176C204.084 14.5755 204.351 14.7183 204.561 14.9281C204.77 15.1379 204.913 15.4051 204.971 15.6961C205.029 15.9871 204.999 16.2887 204.886 16.5628C204.772 16.8369 204.58 17.0711 204.333 17.236C204.087 17.4008 203.797 17.4888 203.5 17.4888C203.102 17.4888 202.721 17.3307 202.439 17.0494C202.158 16.7681 202 16.3866 202 15.9888ZM212.034 22.835C210.823 23.5894 209.426 23.9893 208 23.9893C206.574 23.9893 205.176 23.5894 203.966 22.835C203.742 22.6934 203.583 22.4685 203.524 22.2097C203.465 21.9509 203.512 21.6794 203.654 21.455C203.795 21.2306 204.02 21.0716 204.279 21.0129C204.538 20.9543 204.809 21.0009 205.034 21.1425C205.924 21.6953 206.952 21.9882 208 21.9882C209.048 21.9882 210.076 21.6953 210.966 21.1425C211.077 21.0724 211.201 21.0249 211.331 21.0027C211.46 20.9804 211.593 20.9839 211.721 21.0129C211.849 21.042 211.97 21.0959 212.077 21.1718C212.185 21.2476 212.276 21.3439 212.346 21.455C212.416 21.5661 212.464 21.69 212.486 21.8195C212.508 21.949 212.505 22.0816 212.476 22.2097C212.447 22.3379 212.393 22.459 212.317 22.5663C212.241 22.6736 212.145 22.7649 212.034 22.835ZM212.5 17.4888C212.203 17.4888 211.913 17.4008 211.667 17.236C211.42 17.0711 211.228 16.8369 211.114 16.5628C211.001 16.2887 210.971 15.9871 211.029 15.6961C211.087 15.4051 211.229 15.1379 211.439 14.9281C211.649 14.7183 211.916 14.5755 212.207 14.5176C212.498 14.4597 212.8 14.4894 213.074 14.6029C213.348 14.7165 213.582 14.9087 213.747 15.1554C213.912 15.4021 214 15.6921 214 15.9888C214 16.3866 213.842 16.7681 213.561 17.0494C213.279 17.3307 212.898 17.4888 212.5 17.4888Z" fill="currentColor"/>
<path opacity="0.2" d="M268 16C268 18.3734 267.296 20.6935 265.978 22.6668C264.659 24.6402 262.785 26.1783 260.592 27.0866C258.399 27.9948 255.987 28.2324 253.659 27.7694C251.331 27.3064 249.193 26.1635 247.515 24.4853C245.836 22.8071 244.694 20.6689 244.231 18.3411C243.768 16.0133 244.005 13.6005 244.913 11.4078C245.822 9.21509 247.36 7.34094 249.333 6.02236C251.307 4.70379 253.627 4 256 4C259.183 4 262.235 5.26428 264.485 7.51472C266.736 9.76515 268 12.8174 268 16Z" fill="currentColor"/>
<path d="M251.5 17.5C251.203 17.5 250.913 17.412 250.667 17.2472C250.42 17.0824 250.228 16.8481 250.114 16.574C250.001 16.2999 249.971 15.9983 250.029 15.7074C250.087 15.4164 250.23 15.1491 250.439 14.9393C250.649 14.7296 250.916 14.5867 251.207 14.5288C251.498 14.4709 251.8 14.5006 252.074 14.6142C252.348 14.7277 252.582 14.92 252.747 15.1666C252.912 15.4133 253 15.7033 253 16C253 16.3978 252.842 16.7794 252.561 17.0607C252.279 17.342 251.898 17.5 251.5 17.5ZM260.5 14.5C260.203 14.5 259.913 14.588 259.667 14.7528C259.42 14.9176 259.228 15.1519 259.114 15.426C259.001 15.7001 258.971 16.0017 259.029 16.2926C259.087 16.5836 259.23 16.8509 259.439 17.0607C259.649 17.2704 259.916 17.4133 260.207 17.4712C260.498 17.5291 260.8 17.4993 261.074 17.3858C261.348 17.2723 261.582 17.08 261.747 16.8334C261.912 16.5867 262 16.2967 262 16C262 15.6022 261.842 15.2206 261.561 14.9393C261.279 14.658 260.898 14.5 260.5 14.5ZM258.966 20.1537C258.076 20.7065 257.048 20.9994 256 20.9994C254.952 20.9994 253.924 20.7065 253.034 20.1537C252.809 20.0122 252.538 19.9656 252.279 20.0242C252.02 20.0828 251.795 20.2418 251.654 20.4662C251.512 20.6907 251.466 20.9622 251.524 21.221C251.583 21.4798 251.742 21.7047 251.966 21.8463C253.176 22.6007 254.574 23.0006 256 23.0006C257.426 23.0006 258.824 22.6007 260.034 21.8463C260.258 21.7047 260.417 21.4798 260.476 21.221C260.534 20.9622 260.488 20.6907 260.346 20.4662C260.205 20.2418 259.98 20.0828 259.721 20.0242C259.462 19.9656 259.191 20.0122 258.966 20.1537ZM269 16C269 18.5712 268.238 21.0846 266.809 23.2224C265.381 25.3603 263.35 27.0265 260.975 28.0104C258.599 28.9944 255.986 29.2518 253.464 28.7502C250.942 28.2486 248.626 27.0105 246.808 25.1924C244.99 23.3743 243.751 21.0579 243.25 18.5362C242.748 16.0144 243.006 13.4006 243.99 11.0251C244.974 8.64968 246.64 6.61935 248.778 5.1909C250.915 3.76244 253.429 3 256 3C259.447 3.00364 262.751 4.37445 265.188 6.81163C267.626 9.24882 268.996 12.5533 269 16ZM267 16C266.997 13.1683 265.903 10.4468 263.945 8.40047C261.988 6.3542 259.318 5.14044 256.489 5.01125C255.04 7.0475 255 8.985 255 9C255 9.26522 255.105 9.51957 255.293 9.70711C255.48 9.89464 255.735 10 256 10C256.265 10 256.52 9.89464 256.707 9.70711C256.895 9.51957 257 9.26522 257 9C257 8.73478 257.105 8.48043 257.293 8.29289C257.48 8.10536 257.735 8 258 8C258.265 8 258.52 8.10536 258.707 8.29289C258.895 8.48043 259 8.73478 259 9C259 9.79565 258.684 10.5587 258.121 11.1213C257.559 11.6839 256.796 12 256 12C255.204 12 254.441 11.6839 253.879 11.1213C253.316 10.5587 253 9.79565 253 9C253 8.90875 253.016 7.2125 254.058 5.17125C251.998 5.54076 250.087 6.49002 248.547 7.90765C247.008 9.32529 245.906 11.1525 245.369 13.1748C244.831 15.1971 244.882 17.3307 245.515 19.3252C246.148 21.3196 247.337 23.0922 248.941 24.4349C250.546 25.7776 252.501 26.6348 254.575 26.9057C256.65 27.1767 258.759 26.8503 260.655 25.9648C262.551 25.0793 264.155 23.6714 265.279 21.9064C266.403 20.1414 267 18.0924 267 16Z" fill="currentColor"/>
</g>
<defs>
<clipPath id="clip0_17_4851">
<rect width="272" height="32" rx="5" fill="white"/>
</clipPath>
</defs>
</svg>
