<svg width="272" height="32" viewBox="0 0 272 32" fill="none" xmlns="http://www.w3.org/2000/svg">
<g clip-path="url(#clip0_17_4753)">
<path d="M26.9998 4H20.9998C20.7346 4 20.4802 4.10536 20.2927 4.29289C20.1052 4.48043 19.9998 4.73478 19.9998 5C19.9998 5.26522 20.1052 5.51957 20.2927 5.70711C20.4802 5.89464 20.7346 6 20.9998 6H24.5861L20.9998 9.58625L18.7073 7.29375C18.6145 7.20084 18.5043 7.12712 18.383 7.07681C18.2616 7.02649 18.1316 7.00057 18.0003 7.00051C17.8689 7.00045 17.7389 7.02626 17.6175 7.07647C17.4961 7.12668 17.3859 7.2003 17.2929 7.29313C17.2 7.38595 17.1263 7.49617 17.076 7.61749C17.0257 7.73881 16.9998 7.86885 16.9997 8.00018C16.9996 8.13152 17.0255 8.26158 17.0757 8.38294C17.1259 8.50431 17.1995 8.61459 17.2923 8.7075L19.5861 11L17.6161 12.97C15.8197 11.5365 13.5426 10.8452 11.2524 11.0381C8.96228 11.231 6.8329 12.2934 5.30157 14.0072C3.77025 15.721 2.95321 17.956 3.01825 20.2534C3.08329 22.5507 4.02547 24.7359 5.6513 26.3603C7.27714 27.9847 9.46322 28.925 11.7606 28.988C14.058 29.051 16.2923 28.232 18.0048 26.6992C19.7172 25.1663 20.7777 23.036 20.9686 20.7457C21.1595 18.4554 20.4662 16.1789 19.0311 14.3837L20.9998 12.4163L23.2923 14.7087C23.4798 14.8964 23.7341 15.0019 23.9994 15.002C24.2646 15.0021 24.5191 14.8969 24.7067 14.7094C24.8943 14.5219 24.9998 14.2676 24.9999 14.0023C25 13.7371 24.8948 13.4826 24.7073 13.295L22.4136 11L25.9998 7.415V11C25.9998 11.2652 26.1052 11.5196 26.2927 11.7071C26.4802 11.8946 26.7346 12 26.9998 12C27.265 12 27.5194 11.8946 27.7069 11.7071C27.8945 11.5196 27.9998 11.2652 27.9998 11V5C27.9998 4.73478 27.8945 4.48043 27.7069 4.29289C27.5194 4.10536 27.265 4 26.9998 4ZM16.9498 24.9538C15.8048 26.0988 14.2983 26.8116 12.6868 26.9705C11.0753 27.1294 9.45852 26.7247 8.11193 25.8253C6.76535 24.9259 5.77223 23.5875 5.30177 22.038C4.8313 20.4885 4.91259 18.8239 5.53178 17.3276C6.15098 15.8313 7.26977 14.596 8.69758 13.8321C10.1254 13.0682 11.7739 12.8229 13.3622 13.1381C14.9506 13.4533 16.3805 14.3094 17.4085 15.5606C18.4365 16.8118 18.9988 18.3807 18.9998 20C18.9998 21.8576 18.2625 23.6394 16.9498 24.9538Z" fill="currentColor"/>
<path d="M75.0001 4.5H69.0001C68.8675 4.5 68.7403 4.55268 68.6465 4.64645C68.5528 4.74021 68.5001 4.86739 68.5001 5C68.5001 5.13261 68.5528 5.25979 68.6465 5.35355C68.7403 5.44732 68.8675 5.5 69.0001 5.5H73.7926L69.0001 10.2937L66.3538 7.6475C66.3079 7.59908 66.2527 7.56034 66.1916 7.53357C66.1305 7.50679 66.0646 7.49253 65.9979 7.49162C65.9311 7.4907 65.8649 7.50316 65.8031 7.52825C65.7412 7.55334 65.685 7.59056 65.6378 7.6377C65.5906 7.68485 65.5532 7.74098 65.528 7.80278C65.5028 7.86458 65.4903 7.93079 65.4911 7.99753C65.4919 8.06426 65.506 8.13016 65.5327 8.19134C65.5593 8.25252 65.598 8.30774 65.6463 8.35375L68.2926 11L65.6463 13.6475C63.9912 12.1735 61.8268 11.4024 59.6125 11.498C57.3982 11.5936 55.3083 12.5483 53.7864 14.1595C52.2644 15.7706 51.4302 17.9115 51.4608 20.1276C51.4913 22.3437 52.3843 24.4607 53.9501 26.0293C55.5159 27.5979 57.6313 28.4946 59.8474 28.5291C62.0635 28.5636 64.2058 27.7331 65.8196 26.214C67.4335 24.6949 68.3919 22.6067 68.4914 20.3926C68.5909 18.1785 67.8237 16.0127 66.3526 14.355L69.0001 11.7087L71.6463 14.355C71.6928 14.4015 71.7479 14.4383 71.8086 14.4634C71.8693 14.4886 71.9344 14.5015 72.0001 14.5015C72.0658 14.5015 72.1308 14.4886 72.1915 14.4634C72.2522 14.4383 72.3074 14.4015 72.3538 14.355C72.4003 14.3085 72.4371 14.2534 72.4623 14.1927C72.4874 14.132 72.5004 14.0669 72.5004 14.0013C72.5004 13.9356 72.4874 13.8705 72.4623 13.8098C72.4371 13.7491 72.4003 13.694 72.3538 13.6475L69.7076 11L74.5001 6.2075V11C74.5001 11.1326 74.5528 11.2598 74.6465 11.3536C74.7403 11.4473 74.8675 11.5 75.0001 11.5C75.1327 11.5 75.2599 11.4473 75.3536 11.3536C75.4474 11.2598 75.5001 11.1326 75.5001 11V5C75.5001 4.86739 75.4474 4.74021 75.3536 4.64645C75.2599 4.55268 75.1327 4.5 75.0001 4.5ZM65.3038 25.3062C64.0771 26.5332 62.4628 27.2969 60.7362 27.4672C59.0095 27.6375 57.2772 27.2038 55.8344 26.2402C54.3916 25.2765 53.3275 23.8424 52.8235 22.1821C52.3195 20.5219 52.4067 18.7383 53.0702 17.1351C53.7338 15.532 54.9326 14.2085 56.4625 13.3901C57.9924 12.5717 59.7588 12.3091 61.4606 12.647C63.1624 12.9849 64.6945 13.9023 65.7957 15.2431C66.897 16.5838 67.4993 18.265 67.5001 20C67.5 21.9899 66.7101 23.8984 65.3038 25.3062Z" fill="currentColor"/>
<path d="M123 4.25H117C116.801 4.25 116.61 4.32902 116.47 4.46967C116.329 4.61032 116.25 4.80109 116.25 5C116.25 5.19891 116.329 5.38968 116.47 5.53033C116.61 5.67098 116.801 5.75 117 5.75H121.19L117 9.94L114.53 7.47C114.46 7.39947 114.378 7.34339 114.286 7.305C114.195 7.26661 114.097 7.24667 113.998 7.24632C113.899 7.24598 113.801 7.26524 113.71 7.303C113.618 7.34075 113.535 7.39625 113.465 7.4663C113.395 7.53635 113.34 7.61956 113.302 7.71112C113.264 7.80269 113.245 7.9008 113.246 7.99981C113.246 8.09881 113.266 8.19674 113.305 8.28796C113.343 8.37917 113.399 8.46186 113.47 8.53125L115.94 11L113.632 13.3075C111.907 11.8575 109.689 11.1298 107.44 11.2762C105.191 11.4226 103.085 12.4318 101.563 14.0932C100.04 15.7547 99.2176 17.94 99.2673 20.1931C99.317 22.4462 100.235 24.5931 101.829 26.1857C103.424 27.7784 105.572 28.6938 107.825 28.7408C110.078 28.7879 112.263 27.963 113.922 26.4383C115.582 24.9136 116.589 22.8069 116.732 20.5579C116.876 18.3088 116.146 16.0911 114.694 14.3675L117 12.0625L119.47 14.5325C119.611 14.6712 119.801 14.7485 119.999 14.7476C120.197 14.7466 120.386 14.6676 120.526 14.5276C120.666 14.3876 120.745 14.198 120.746 14.0002C120.746 13.8023 120.669 13.6122 120.53 13.4712L118.06 11L122.25 6.81125V11C122.25 11.1989 122.329 11.3897 122.47 11.5303C122.61 11.671 122.801 11.75 123 11.75C123.199 11.75 123.39 11.671 123.53 11.5303C123.671 11.3897 123.75 11.1989 123.75 11V5C123.75 4.80109 123.671 4.61032 123.53 4.46967C123.39 4.32902 123.199 4.25 123 4.25ZM113.125 25.125C111.939 26.3107 110.378 27.0484 108.708 27.2123C107.039 27.3762 105.364 26.9561 103.97 26.0238C102.576 25.0914 101.548 23.7044 101.061 22.0991C100.575 20.4938 100.66 18.7695 101.303 17.2201C101.945 15.6706 103.105 14.3919 104.585 13.6017C106.064 12.8116 107.772 12.5589 109.417 12.8868C111.062 13.2147 112.543 14.1028 113.606 15.3999C114.67 16.6969 115.251 18.3226 115.25 20C115.249 21.9225 114.485 23.766 113.125 25.125Z" fill="currentColor"/>
<path d="M171 3.5H165.5C165.102 3.5 164.721 3.65804 164.439 3.93934C164.158 4.22064 164 4.60218 164 5C164 5.39782 164.158 5.77936 164.439 6.06066C164.721 6.34196 165.102 6.5 165.5 6.5H167.375L165 8.875L163.061 6.94C162.779 6.65821 162.397 6.4999 161.999 6.4999C161.6 6.4999 161.218 6.65821 160.936 6.94C160.654 7.22179 160.496 7.60398 160.496 8.0025C160.496 8.40101 160.654 8.78321 160.936 9.065L162.875 11L161.572 12.3075C159.637 10.9066 157.245 10.2864 154.873 10.5703C152.501 10.8542 150.323 12.0215 148.773 13.8395C147.223 15.6576 146.415 17.9929 146.509 20.3801C146.604 22.7673 147.595 25.0311 149.284 26.7205C150.974 28.4098 153.238 29.4006 155.625 29.4955C158.012 29.5903 160.347 28.7822 162.165 27.2322C163.983 25.6822 165.151 23.5041 165.435 21.132C165.719 18.7598 165.098 16.3678 163.697 14.4325L165 13.125L166.939 15.065C167.22 15.3468 167.603 15.5051 168.001 15.5051C168.4 15.5051 168.782 15.3468 169.064 15.065C169.345 14.7832 169.504 14.401 169.504 14.0025C169.504 13.604 169.345 13.2218 169.064 12.94L167.125 11L169.5 8.625V10.5C169.5 10.8978 169.658 11.2794 169.939 11.5607C170.221 11.842 170.602 12 171 12C171.398 12 171.779 11.842 172.061 11.5607C172.342 11.2794 172.5 10.8978 172.5 10.5V5C172.5 4.60218 172.342 4.22064 172.061 3.93934C171.779 3.65804 171.398 3.5 171 3.5ZM160.596 24.6C159.533 25.6633 158.134 26.325 156.638 26.4725C155.141 26.62 153.64 26.2442 152.39 25.409C151.139 24.5738 150.217 23.3309 149.78 21.8921C149.343 20.4533 149.419 18.9076 149.994 17.5182C150.569 16.1289 151.608 14.9818 152.934 14.2725C154.26 13.5632 155.79 13.3355 157.265 13.6282C158.74 13.9209 160.068 14.7158 161.022 15.8777C161.977 17.0395 162.499 18.4964 162.5 20C162.5 21.7251 161.815 23.3797 160.596 24.6Z" fill="currentColor"/>
<path d="M207.99 18.75C208.039 19.3619 207.899 19.9741 207.59 20.5041C207.28 21.0341 206.815 21.4563 206.258 21.7137C205.701 21.9712 205.078 22.0515 204.473 21.9439C203.869 21.8362 203.312 21.5457 202.878 21.1117C202.444 20.6776 202.154 20.1209 202.046 19.5165C201.938 18.9122 202.019 18.2894 202.276 17.7321C202.534 17.1749 202.956 16.71 203.486 16.4003C204.016 16.0905 204.628 15.9508 205.24 16C205.95 16.0571 206.617 16.3652 207.121 16.869C207.625 17.3729 207.933 18.0397 207.99 18.75ZM219 5V27C219 27.5304 218.789 28.0391 218.414 28.4142C218.039 28.7893 217.53 29 217 29H199C198.47 29 197.961 28.7893 197.586 28.4142C197.211 28.0391 197 27.5304 197 27V5C197 4.46957 197.211 3.96086 197.586 3.58579C197.961 3.21071 198.47 3 199 3H217C217.53 3 218.039 3.21071 218.414 3.58579C218.789 3.96086 219 4.46957 219 5ZM216 9C216 8.73478 215.895 8.48043 215.707 8.29289C215.52 8.10536 215.265 8 215 8H211.534C211.275 7.99589 211.025 8.08997 210.833 8.26326C210.641 8.43656 210.522 8.67617 210.5 8.93375C210.491 9.07054 210.51 9.20773 210.556 9.33681C210.602 9.46589 210.675 9.58409 210.768 9.68409C210.862 9.78408 210.976 9.86372 211.101 9.91807C211.227 9.97241 211.363 10.0003 211.5 10H212.586L210.5 12.0863L209.208 10.7925C209.113 10.6977 209 10.623 208.876 10.5727C208.752 10.5224 208.619 10.4975 208.485 10.4996C208.351 10.5017 208.218 10.5307 208.096 10.5849C207.973 10.6391 207.863 10.7173 207.771 10.815C207.595 11.0128 207.502 11.2711 207.511 11.5359C207.521 11.8008 207.632 12.0517 207.823 12.2362L209.086 13.5L207.75 14.83C206.716 14.1478 205.466 13.8738 204.241 14.0609C203.017 14.248 201.905 14.883 201.122 15.8428C200.339 16.8027 199.94 18.019 200.003 19.2561C200.065 20.4933 200.585 21.6631 201.461 22.539C202.337 23.4149 203.507 23.9345 204.744 23.9971C205.981 24.0597 207.197 23.6608 208.157 22.8778C209.117 22.0948 209.752 20.9833 209.939 19.7588C210.126 18.5343 209.852 17.284 209.17 16.25L210.5 14.9137L211.792 16.2075C211.89 16.3047 212.006 16.3807 212.134 16.431C212.262 16.4812 212.399 16.5045 212.536 16.4995C212.673 16.4945 212.808 16.4612 212.932 16.4017C213.056 16.3422 213.166 16.2578 213.256 16.1537C213.42 15.9553 213.504 15.7024 213.49 15.4454C213.476 15.1883 213.366 14.9458 213.181 14.7662L211.914 13.5L214 11.4137V12.4663C213.997 12.7242 214.091 12.9739 214.264 13.1651C214.438 13.3564 214.677 13.4751 214.934 13.4975C215.071 13.5066 215.208 13.4874 215.337 13.4413C215.466 13.3951 215.584 13.3229 215.684 13.2291C215.784 13.1353 215.864 13.022 215.918 12.8961C215.972 12.7703 216 12.6346 216 12.4975V9Z" fill="currentColor"/>
<path opacity="0.2" d="M257.656 25.6563C256.538 26.7752 255.112 27.5373 253.56 27.8462C252.008 28.155 250.4 27.9967 248.938 27.3912C247.476 26.7858 246.227 25.7604 245.347 24.4447C244.468 23.1291 243.999 21.5823 243.999 20C243.999 18.4177 244.468 16.8709 245.347 15.5553C246.227 14.2396 247.476 13.2143 248.938 12.6088C250.4 12.0034 252.008 11.845 253.56 12.1538C255.112 12.4627 256.538 13.2248 257.656 14.3438C259.156 15.844 259.999 17.8786 259.999 20C259.999 22.1214 259.156 24.156 257.656 25.6563Z" fill="currentColor"/>
<path d="M267 4H261C260.735 4 260.48 4.10536 260.293 4.29289C260.105 4.48043 260 4.73478 260 5C260 5.26522 260.105 5.51957 260.293 5.70711C260.48 5.89464 260.735 6 261 6H264.586L261 9.58625L258.707 7.29375C258.614 7.20084 258.504 7.12712 258.383 7.07681C258.262 7.02649 258.132 7.00057 258 7.00051C257.869 7.00045 257.739 7.02626 257.618 7.07647C257.496 7.12668 257.386 7.2003 257.293 7.29313C257.2 7.38595 257.126 7.49617 257.076 7.61749C257.026 7.73881 257 7.86885 257 8.00018C257 8.13152 257.025 8.26158 257.076 8.38294C257.126 8.50431 257.199 8.61459 257.292 8.7075L259.586 11L257.616 12.97C255.82 11.5365 253.543 10.8452 251.252 11.0381C248.962 11.231 246.833 12.2934 245.302 14.0072C243.77 15.721 242.953 17.956 243.018 20.2534C243.083 22.5507 244.025 24.7359 245.651 26.3603C247.277 27.9847 249.463 28.925 251.761 28.988C254.058 29.051 256.292 28.232 258.005 26.6992C259.717 25.1663 260.778 23.036 260.969 20.7457C261.159 18.4554 260.466 16.1789 259.031 14.3837L261 12.4163L263.292 14.7087C263.48 14.8964 263.734 15.0019 263.999 15.002C264.265 15.0021 264.519 14.8969 264.707 14.7094C264.894 14.5219 265 14.2676 265 14.0023C265 13.7371 264.895 13.4826 264.707 13.295L262.414 11L266 7.415V11C266 11.2652 266.105 11.5196 266.293 11.7071C266.48 11.8946 266.735 12 267 12C267.265 12 267.519 11.8946 267.707 11.7071C267.894 11.5196 268 11.2652 268 11V5C268 4.73478 267.894 4.48043 267.707 4.29289C267.519 4.10536 267.265 4 267 4ZM256.95 24.9538C255.805 26.0988 254.298 26.8116 252.687 26.9705C251.075 27.1294 249.459 26.7247 248.112 25.8253C246.765 24.9259 245.772 23.5875 245.302 22.038C244.831 20.4885 244.913 18.8239 245.532 17.3276C246.151 15.8313 247.27 14.596 248.698 13.8321C250.125 13.0682 251.774 12.8229 253.362 13.1381C254.951 13.4533 256.381 14.3094 257.409 15.5606C258.436 16.8118 258.999 18.3807 259 20C259 21.8576 258.263 23.6394 256.95 24.9538Z" fill="currentColor"/>
</g>
<defs>
<clipPath id="clip0_17_4753">
<rect width="272" height="32" rx="5" fill="white"/>
</clipPath>
</defs>
</svg>
