<svg width="272" height="32" viewBox="0 0 272 32" fill="none" xmlns="http://www.w3.org/2000/svg">
<g clip-path="url(#clip0_17_4655)">
<path d="M27.5251 12.5L25.2751 8.6025C24.98 8.0908 24.5603 7.6621 24.0549 7.35631C23.5496 7.05053 22.9751 6.8776 22.3849 6.85365C21.7948 6.82969 21.2081 6.95548 20.6797 7.2193C20.1512 7.48313 19.6981 7.8764 19.3626 8.3625L17.4451 5.03875C17.1417 4.51348 16.7071 4.07606 16.1838 3.76937C15.6605 3.46268 15.0665 3.29726 14.46 3.28932C13.8534 3.28138 13.2553 3.43119 12.7241 3.72408C12.193 4.01696 11.747 4.44285 11.4301 4.96C10.811 4.40265 10.0135 4.08437 9.18077 4.06235C8.34808 4.04033 7.53483 4.31602 6.88718 4.83986C6.23953 5.3637 5.79994 6.10136 5.64742 6.92026C5.4949 7.73916 5.63943 8.58561 6.05506 9.3075L6.47256 10.0312C5.88374 10.0786 5.31647 10.2741 4.8236 10.5998C4.33074 10.9254 3.9283 11.3705 3.65379 11.8935C3.37928 12.4166 3.24163 13.0006 3.25365 13.5912C3.26568 14.1818 3.42699 14.7598 3.72256 15.2712L8.47256 23.4987C9.19186 24.752 10.1525 25.8502 11.2989 26.7299C12.4452 27.6096 13.7546 28.2533 15.1513 28.6237C16.0858 28.8734 17.049 28.9995 18.0163 28.9987C19.9455 28.9955 21.84 28.485 23.5096 27.5184C25.1792 26.5517 26.5652 25.163 27.5285 23.4915C28.4919 21.82 28.9987 19.9245 28.9981 17.9953C28.9975 16.066 28.4895 14.1709 27.5251 12.5ZM26.6913 20.3287C26.2307 22.0481 25.2705 23.5923 23.9323 24.7661C22.594 25.9398 20.9378 26.6903 19.173 26.9227C17.4082 27.1551 15.6141 26.859 14.0176 26.0717C12.4211 25.2845 11.0939 24.0415 10.2038 22.5L5.45381 14.2725C5.35532 14.1019 5.2914 13.9135 5.26571 13.7182C5.24001 13.5228 5.25305 13.3243 5.30406 13.134C5.40709 12.7497 5.65857 12.422 6.00319 12.2231C6.3478 12.0242 6.75732 11.9703 7.14165 12.0734C7.33196 12.1244 7.51035 12.2124 7.66664 12.3323C7.82293 12.4523 7.95407 12.6019 8.05256 12.7725L10.8026 17.535C10.8663 17.6523 10.9529 17.7557 11.0572 17.8391C11.1615 17.9224 11.2815 17.9841 11.41 18.0203C11.5386 18.0565 11.673 18.0666 11.8056 18.0501C11.9381 18.0335 12.0659 17.9905 12.1815 17.9237C12.2972 17.8569 12.3983 17.7677 12.4788 17.6612C12.5594 17.5547 12.6178 17.4331 12.6507 17.3037C12.6835 17.1742 12.6901 17.0395 12.67 16.9075C12.6499 16.7755 12.6036 16.6488 12.5338 16.535L7.78381 8.30875C7.63549 8.0518 7.56669 7.75665 7.58612 7.46061C7.60555 7.16456 7.71233 6.88093 7.89296 6.64558C8.07359 6.41022 8.31996 6.23372 8.6009 6.13839C8.88184 6.04305 9.18475 6.03317 9.47131 6.11C9.66193 6.16027 9.84065 6.24794 9.99708 6.36789C10.1535 6.48785 10.2845 6.6377 10.3826 6.80875L14.6326 14.17C14.7688 14.3922 14.9865 14.5524 15.2391 14.6165C15.4918 14.6806 15.7595 14.6435 15.9852 14.5131C16.2109 14.3827 16.3768 14.1694 16.4475 13.9185C16.5182 13.6676 16.4882 13.3991 16.3638 13.17L13.1138 7.545C12.9235 7.20106 12.8758 6.79616 12.9809 6.4174C13.0861 6.03864 13.3357 5.7163 13.6761 5.51972C14.0165 5.32314 14.4205 5.26805 14.8011 5.36628C15.1817 5.46452 15.5086 5.70823 15.7113 6.045L20.0001 13.4725C18.9083 14.3771 18.1715 15.6385 17.9198 17.0338C17.6682 18.4292 17.918 19.8685 18.6251 21.0975C18.7577 21.3272 18.9761 21.4949 19.2323 21.5636C19.4886 21.6323 19.7616 21.5964 19.9913 21.4637C20.2211 21.3311 20.3887 21.1127 20.4574 20.8565C20.5261 20.6003 20.4902 20.3272 20.3576 20.0975C19.8272 19.1788 19.6835 18.0871 19.958 17.0625C20.2325 16.0379 20.9027 15.1642 21.8213 14.6337C21.9351 14.5681 22.0348 14.4807 22.1148 14.3765C22.1948 14.2723 22.2535 14.1534 22.2875 14.0265C22.3215 13.8996 22.3302 13.7673 22.313 13.6371C22.2959 13.5068 22.2532 13.3812 22.1876 13.2675L20.9376 11.1025C20.7472 10.7586 20.6995 10.3537 20.8047 9.9749C20.9098 9.59614 21.1595 9.2738 21.4999 9.07722C21.8403 8.88064 22.2442 8.82555 22.6249 8.92378C23.0055 9.02202 23.3323 9.26573 23.5351 9.6025L25.7851 13.5C26.3802 14.5215 26.7668 15.651 26.9224 16.8229C27.0779 17.9949 26.9994 19.1861 26.6913 20.3275V20.3287ZM23.0338 3.74125C23.0678 3.61434 23.1264 3.49536 23.2063 3.39111C23.2863 3.28686 23.386 3.19939 23.4997 3.13368C23.6135 3.06798 23.7391 3.02534 23.8693 3.00819C23.9996 2.99104 24.1319 2.99973 24.2588 3.03375C26.2476 3.5675 27.8838 4.7975 28.8663 6.5C28.9989 6.72974 29.0348 7.00275 28.9661 7.25897C28.8975 7.51519 28.7298 7.73364 28.5001 7.86625C28.2703 7.99885 27.9973 8.03476 27.7411 7.96608C27.4849 7.89739 27.2664 7.72974 27.1338 7.5C26.4188 6.26 25.2138 5.36 23.7413 4.96625C23.6144 4.9323 23.4954 4.87368 23.3912 4.79374C23.2869 4.7138 23.1995 4.6141 23.1337 4.50033C23.068 4.38657 23.0254 4.26098 23.0083 4.13073C22.9911 4.00049 22.9998 3.86814 23.0338 3.74125ZM10.1138 29.625C10.0325 29.7282 9.93166 29.8144 9.81703 29.8786C9.7024 29.9428 9.57624 29.9838 9.44576 29.9993C9.31528 30.0147 9.18304 30.0043 9.05659 29.9686C8.93014 29.9329 8.81196 29.8726 8.70881 29.7912C7.33381 28.705 6.19506 27.3437 5.13381 25.5062C5.0012 25.2765 4.96529 25.0035 5.03398 24.7473C5.10266 24.491 5.27032 24.2726 5.50006 24.14C5.72981 24.0074 6.00282 23.9715 6.25904 24.0402C6.51526 24.1088 6.7337 24.2765 6.86631 24.5062C7.79631 26.1162 8.77506 27.2962 9.94756 28.2212C10.1557 28.3854 10.29 28.6255 10.3212 28.8887C10.3524 29.1519 10.2778 29.4168 10.1138 29.625Z" fill="currentColor"/>
<path d="M71.5175 3.87502C71.5345 3.81156 71.5638 3.75207 71.6038 3.69995C71.6438 3.64783 71.6936 3.60409 71.7505 3.57124C71.8074 3.53838 71.8702 3.51706 71.9353 3.50849C72.0004 3.49992 72.0666 3.50426 72.13 3.52127C73.9888 4.02127 75.5175 5.16752 76.4325 6.75377C76.4687 6.81068 76.493 6.87432 76.5039 6.94086C76.5149 7.0074 76.5123 7.07546 76.4962 7.14096C76.4802 7.20646 76.451 7.26803 76.4106 7.32198C76.3701 7.37593 76.3192 7.42114 76.2608 7.45489C76.2024 7.48864 76.1378 7.51022 76.0709 7.51836C76.0039 7.52649 75.936 7.52099 75.8713 7.50221C75.8065 7.48342 75.7462 7.45172 75.694 7.40903C75.6418 7.36633 75.5988 7.31352 75.5675 7.25377C74.785 5.89502 73.4713 4.91252 71.875 4.48252C71.7473 4.449 71.638 4.3663 71.571 4.25248C71.504 4.13866 71.4848 4.00296 71.5175 3.87502ZM57.6375 28.6075C56.4138 27.6425 55.395 26.4163 54.4325 24.75C54.3633 24.6412 54.2548 24.5633 54.1295 24.5326C54.0043 24.5019 53.872 24.5208 53.7603 24.5854C53.6487 24.6499 53.5663 24.7551 53.5304 24.8789C53.4944 25.0028 53.5077 25.1357 53.5675 25.25C54.595 27.03 55.6925 28.3463 57.0188 29.3925C57.1067 29.4619 57.2155 29.4998 57.3275 29.5C57.4314 29.5001 57.5328 29.4677 57.6175 29.4075C57.7022 29.3473 57.766 29.2622 57.8001 29.1641C57.8342 29.0659 57.8369 28.9596 57.8077 28.8598C57.7786 28.7601 57.7191 28.6719 57.6375 28.6075ZM76.1375 20.7163C75.5391 22.9458 74.2233 24.9164 72.3933 26.3237C70.5634 27.7309 68.321 28.4966 66.0125 28.5025C65.0893 28.5019 64.1702 28.38 63.2788 28.14C61.9455 27.7869 60.6954 27.1728 59.6012 26.3332C58.5069 25.4936 57.59 24.4452 56.9038 23.2488L52.1538 15.0213C51.8642 14.5197 51.7261 13.9451 51.7559 13.3667C51.7858 12.7883 51.9825 12.231 52.3221 11.7619C52.6618 11.2928 53.13 10.9321 53.6702 10.7233C54.2103 10.5144 54.7994 10.4664 55.3663 10.585L54.485 9.05752C54.1155 8.38636 54.0168 7.59926 54.2091 6.85762C54.4014 6.11598 54.8701 5.47602 55.5192 5.06898C56.1683 4.66194 56.9485 4.51867 57.6999 4.66854C58.4512 4.81842 59.1168 5.25009 59.56 5.87502C59.7384 5.323 60.073 4.83455 60.5234 4.46881C60.9737 4.10308 61.5204 3.87576 62.0973 3.81438C62.6741 3.75301 63.2564 3.8602 63.7736 4.12299C64.2908 4.38578 64.7207 4.79289 65.0113 5.29502L67.3963 9.42002C67.5771 8.87043 67.9129 8.38484 68.3634 8.02176C68.8138 7.65867 69.3596 7.43358 69.9351 7.37361C70.5105 7.31363 71.091 7.42133 71.6066 7.68373C72.1223 7.94612 72.551 8.35202 72.8413 8.85252L75.0913 12.75C75.7842 13.9425 76.2336 15.2607 76.4137 16.6281C76.5937 17.9955 76.5007 19.385 76.14 20.7163H76.1375ZM74.225 13.25L71.975 9.35252C71.8455 9.12165 71.6714 8.9188 71.4629 8.75572C71.2544 8.59264 71.0155 8.47258 70.7603 8.4025C70.505 8.33242 70.2383 8.31372 69.9758 8.34747C69.7132 8.38123 69.46 8.46677 69.2307 8.59914C69.0015 8.73151 68.8008 8.90807 68.6403 9.11859C68.4798 9.32911 68.3627 9.5694 68.2958 9.82552C68.2289 10.0816 68.2134 10.3485 68.2504 10.6106C68.2874 10.8727 68.3761 11.1249 68.5113 11.3525L69.7613 13.5175C69.7942 13.5744 69.8157 13.6372 69.8243 13.7023C69.833 13.7675 69.8287 13.8337 69.8118 13.8972C69.7948 13.9607 69.7655 14.0203 69.7256 14.0725C69.6856 14.1246 69.6357 14.1684 69.5788 14.2013C68.5454 14.7979 67.7913 15.7806 67.4823 16.9332C67.1733 18.0858 67.3348 19.314 67.9313 20.3475C67.9641 20.4044 67.9854 20.4672 67.994 20.5323C68.0025 20.5974 67.9982 20.6636 67.9812 20.727C67.9642 20.7904 67.9349 20.8499 67.8949 20.902C67.8549 20.9541 67.805 20.9978 67.7481 21.0306C67.6913 21.0635 67.6285 21.0848 67.5634 21.0933C67.4983 21.1019 67.4321 21.0976 67.3687 21.0806C67.3052 21.0636 67.2458 21.0342 67.1937 20.9942C67.1416 20.9543 67.0979 20.9044 67.065 20.8475C66.379 19.6581 66.1619 18.2554 66.4563 16.9143C66.7506 15.5732 67.5352 14.3903 68.6563 13.5975L64.145 5.78877C63.8763 5.33639 63.4402 5.00813 62.9311 4.87511C62.422 4.74209 61.8811 4.81503 61.4254 5.07813C60.9698 5.34123 60.6361 5.77329 60.4968 6.28068C60.3576 6.78806 60.4238 7.3299 60.6813 7.78877L63.9313 13.4138C63.9976 13.5286 64.0155 13.6651 63.9812 13.7933C63.9468 13.9214 63.863 14.0306 63.7481 14.0969C63.6333 14.1632 63.4968 14.1812 63.3687 14.1468C63.2406 14.1125 63.1313 14.0286 63.065 13.9138L58.815 6.55252C58.6855 6.32165 58.5114 6.1188 58.3029 5.95572C58.0944 5.79264 57.8555 5.67258 57.6003 5.6025C57.345 5.53242 57.0783 5.51372 56.8158 5.54747C56.5532 5.58123 56.3 5.66677 56.0707 5.79914C55.8415 5.93151 55.6408 6.10807 55.4803 6.31859C55.3198 6.52911 55.2027 6.7694 55.1358 7.02552C55.0689 7.28164 55.0534 7.5485 55.0904 7.81062C55.1274 8.07275 55.2161 8.32492 55.3513 8.55252L60.1013 16.7788C60.1341 16.8356 60.1554 16.8984 60.164 16.9635C60.1725 17.0287 60.1682 17.0948 60.1512 17.1583C60.1342 17.2217 60.1049 17.2812 60.0649 17.3333C60.0249 17.3854 59.975 17.4291 59.9181 17.4619C59.8613 17.4947 59.7985 17.516 59.7334 17.5246C59.6683 17.5332 59.6021 17.5288 59.5387 17.5118C59.4752 17.4948 59.4158 17.4655 59.3637 17.4255C59.3116 17.3855 59.2679 17.3356 59.235 17.2788L56.485 12.5163C56.3555 12.2854 56.1814 12.0826 55.9729 11.9195C55.7644 11.7564 55.5255 11.6363 55.2703 11.5663C55.015 11.4962 54.7483 11.4775 54.4858 11.5112C54.2232 11.545 53.97 11.6305 53.7407 11.7629C53.5115 11.8953 53.3108 12.0718 53.1503 12.2823C52.9898 12.4929 52.8727 12.7332 52.8058 12.9893C52.7389 13.2454 52.7234 13.5123 52.7604 13.7744C52.7974 14.0365 52.8861 14.2887 53.0213 14.5163L57.7713 22.7438C58.3808 23.8505 59.205 24.8245 60.1956 25.6087C61.1862 26.393 62.3232 26.9718 63.5402 27.3113C64.7572 27.6507 66.0297 27.744 67.2832 27.5857C68.5367 27.4273 69.746 27.0205 70.8404 26.3891C71.9348 25.7576 72.8922 24.9142 73.6566 23.9083C74.421 22.9023 74.9771 21.7539 75.2923 20.5304C75.6074 19.3069 75.6754 18.0328 75.4921 16.7827C75.3089 15.5326 74.8781 14.3316 74.225 13.25Z" fill="currentColor"/>
<path d="M119.275 3.80624C119.301 3.71111 119.345 3.62194 119.405 3.54383C119.465 3.46571 119.539 3.40017 119.625 3.35096C119.71 3.30174 119.804 3.26981 119.902 3.25699C119.999 3.24417 120.099 3.25071 120.194 3.27624C122.118 3.79124 123.694 4.98124 124.65 6.62499C124.75 6.79738 124.776 7.00222 124.725 7.19444C124.673 7.38667 124.547 7.55053 124.375 7.64999C124.203 7.74944 123.998 7.77634 123.806 7.72477C123.613 7.6732 123.45 7.54738 123.35 7.37499C122.6 6.07749 121.343 5.13624 119.806 4.72499C119.711 4.69959 119.622 4.65568 119.544 4.59575C119.465 4.53582 119.4 4.46106 119.35 4.37573C119.301 4.2904 119.269 4.19618 119.256 4.09847C119.243 4.00075 119.25 3.90145 119.275 3.80624ZM105.793 28.4112C104.594 27.4662 103.595 26.2637 102.65 24.625C102.551 24.4526 102.387 24.3268 102.195 24.2752C102.002 24.2236 101.797 24.2505 101.625 24.35C101.453 24.4494 101.327 24.6133 101.275 24.8055C101.224 24.9978 101.251 25.2026 101.35 25.375C102.395 27.1837 103.511 28.5225 104.864 29.5887C104.941 29.6521 105.03 29.6994 105.125 29.728C105.221 29.7565 105.321 29.7657 105.421 29.755C105.52 29.7443 105.616 29.714 105.703 29.6657C105.79 29.6174 105.867 29.5522 105.929 29.4738C105.991 29.3955 106.036 29.3056 106.063 29.2095C106.09 29.1133 106.097 29.0128 106.084 28.9139C106.071 28.8149 106.039 28.7195 105.989 28.6332C105.939 28.5469 105.872 28.4714 105.793 28.4112ZM124.383 20.7862C123.768 23.0672 122.42 25.0826 120.547 26.5217C118.673 27.9609 116.379 28.7439 114.016 28.75C113.071 28.7477 112.129 28.6216 111.216 28.375C109.852 28.0141 108.573 27.3865 107.452 26.5283C106.332 25.6701 105.393 24.5983 104.689 23.375L99.9388 15.1475C99.6466 14.6427 99.4955 14.0685 99.5016 13.4852C99.5077 12.9019 99.6707 12.331 99.9735 11.8324C100.276 11.3338 100.708 10.9258 101.222 10.6514C101.737 10.3769 102.316 10.246 102.899 10.2725L102.274 9.18124C101.881 8.4874 101.756 7.67317 101.924 6.89353C102.092 6.11388 102.541 5.42327 103.185 4.95315C103.83 4.48303 104.624 4.26623 105.418 4.34402C106.212 4.4218 106.949 4.78874 107.49 5.37499C107.748 4.84403 108.145 4.39321 108.639 4.07091C109.134 3.7486 109.706 3.56698 110.296 3.54552C110.886 3.52407 111.47 3.66359 111.987 3.94911C112.503 4.23464 112.932 4.6554 113.228 5.16624L115.359 8.85624C115.628 8.33916 116.031 7.90388 116.525 7.59597C117.02 7.28807 117.589 7.11886 118.171 7.10608C118.754 7.0933 119.329 7.23742 119.837 7.52333C120.345 7.80925 120.766 8.22645 121.058 8.73124L123.308 12.6287C124.017 13.8492 124.477 15.1981 124.661 16.5974C124.846 17.9967 124.751 19.4187 124.383 20.7812V20.7862ZM122.008 13.3787L119.758 9.48124C119.643 9.2822 119.49 9.10775 119.307 8.96784C119.125 8.82793 118.917 8.7253 118.695 8.66581C118.247 8.54567 117.769 8.60855 117.367 8.84061C117.168 8.95552 116.993 9.1085 116.854 9.29083C116.714 9.47316 116.611 9.68126 116.552 9.90325C116.431 10.3516 116.494 10.8293 116.726 11.2312L117.976 13.3962C118.026 13.4815 118.058 13.5757 118.071 13.6733C118.084 13.771 118.077 13.8703 118.052 13.9655C118.026 14.0606 117.982 14.1499 117.923 14.2281C117.863 14.3063 117.788 14.3719 117.703 14.4212C116.726 14.9847 116.014 15.9128 115.722 17.0015C115.43 18.0901 115.583 19.2501 116.146 20.2262C116.198 20.3116 116.232 20.4064 116.246 20.505C116.26 20.6036 116.255 20.704 116.23 20.8005C116.205 20.897 116.161 20.9875 116.101 21.0669C116.041 21.1462 115.965 21.2127 115.879 21.2626C115.793 21.3124 115.697 21.3445 115.598 21.3571C115.5 21.3697 115.399 21.3624 115.303 21.3357C115.207 21.3091 115.117 21.2636 115.039 21.2018C114.961 21.1401 114.896 21.0634 114.848 20.9762C114.152 19.7674 113.919 18.3474 114.191 16.9796C114.463 15.6118 115.222 14.3892 116.328 13.5387L111.928 5.91374C111.813 5.7147 111.66 5.54025 111.477 5.40034C111.295 5.26043 111.087 5.1578 110.865 5.09831C110.643 5.03882 110.411 5.02364 110.184 5.05363C109.956 5.08363 109.736 5.1582 109.537 5.27311C109.135 5.50518 108.842 5.88742 108.722 6.33575C108.601 6.78408 108.664 7.26177 108.896 7.66374L112.146 13.2887C112.198 13.3741 112.232 13.4689 112.246 13.5675C112.26 13.6661 112.255 13.7665 112.23 13.863C112.205 13.9595 112.161 14.05 112.101 14.1294C112.041 14.2087 111.965 14.2752 111.879 14.3251C111.793 14.3749 111.697 14.407 111.598 14.4196C111.5 14.4322 111.399 14.4249 111.303 14.3982C111.207 14.3716 111.117 14.3261 111.039 14.2643C110.961 14.2026 110.896 14.1259 110.848 14.0387L106.598 6.67749C106.483 6.47845 106.33 6.304 106.147 6.16409C105.965 6.02418 105.757 5.92155 105.535 5.86206C105.313 5.80257 105.081 5.78739 104.854 5.81738C104.626 5.84738 104.406 5.92195 104.207 6.03686C104.008 6.15177 103.833 6.30475 103.694 6.48708C103.554 6.66941 103.451 6.87751 103.392 7.0995C103.332 7.32149 103.317 7.55302 103.347 7.78088C103.377 8.00873 103.451 8.22845 103.566 8.42749L108.316 16.6537C108.368 16.7391 108.402 16.8339 108.416 16.9325C108.43 17.0311 108.425 17.1315 108.4 17.228C108.375 17.3245 108.331 17.415 108.271 17.4944C108.211 17.5737 108.135 17.6402 108.049 17.6901C107.963 17.7399 107.867 17.772 107.768 17.7846C107.67 17.7972 107.569 17.7899 107.473 17.7632C107.377 17.7366 107.287 17.6911 107.209 17.6293C107.131 17.5676 107.066 17.4909 107.018 17.4037L104.268 12.6412C104.153 12.4422 104 12.2677 103.817 12.1278C103.635 11.9879 103.427 11.8853 103.205 11.8258C102.983 11.7663 102.751 11.7511 102.524 11.7811C102.296 11.8111 102.076 11.8857 101.877 12.0006C101.475 12.2327 101.182 12.6149 101.062 13.0632C100.941 13.5116 101.004 13.9893 101.236 14.3912L105.988 22.625C107.22 24.7377 109.239 26.2762 111.603 26.9039C113.968 27.5316 116.484 27.1973 118.602 25.9743C120.721 24.7513 122.268 22.7391 122.907 20.3779C123.545 18.0167 123.222 15.4988 122.009 13.375L122.008 13.3787Z" fill="currentColor"/>
<path d="M154.201 30.9088C154.083 31.0664 153.935 31.1993 153.766 31.2998C153.596 31.4003 153.409 31.4664 153.214 31.4944C153.019 31.5223 152.82 31.5116 152.629 31.4628C152.438 31.414 152.259 31.3281 152.101 31.21C150.315 29.8727 148.82 28.1849 147.709 26.25C147.61 26.0794 147.546 25.891 147.521 25.6957C147.495 25.5003 147.508 25.3018 147.559 25.1115C147.61 24.9212 147.698 24.7429 147.818 24.5866C147.938 24.4303 148.088 24.2991 148.258 24.2006C148.429 24.1021 148.617 24.0382 148.813 24.0125C149.008 23.9868 149.206 23.9999 149.397 24.0509C149.587 24.1019 149.765 24.1899 149.922 24.3099C150.078 24.4298 150.209 24.5794 150.308 24.75C151.216 26.3333 152.438 27.7148 153.899 28.81C154.217 29.0483 154.428 29.4032 154.485 29.7968C154.541 30.1903 154.439 30.5903 154.201 30.9088ZM171.958 12.25C173.483 14.8914 173.896 18.0304 173.106 20.9765C172.317 23.9226 170.39 26.4344 167.748 27.9594C165.107 29.4844 161.968 29.8976 159.022 29.1082C156.076 28.3188 153.564 26.3914 152.039 23.75L147.289 15.5225C146.983 14.9937 146.803 14.402 146.761 13.7927C146.72 13.1833 146.818 12.5726 147.049 12.0072C147.28 11.4419 147.638 10.937 148.094 10.5312C148.551 10.1254 149.094 9.82953 149.683 9.66626L149.625 9.55751C149.229 8.87233 149.046 8.08519 149.098 7.29567C149.149 6.50614 149.434 5.7497 149.916 5.12202C150.398 4.49433 151.055 4.0236 151.804 3.76937C152.553 3.51514 153.361 3.48883 154.125 3.69376C154.554 3.81038 154.961 3.99842 155.328 4.25001C155.738 3.75194 156.263 3.36062 156.858 3.10947C157.452 2.85831 158.099 2.75478 158.742 2.80772C159.386 2.86065 160.006 3.06847 160.552 3.41344C161.098 3.75841 161.552 4.23028 161.875 4.78876L163.44 7.50001C163.876 7.07217 164.404 6.74974 164.983 6.55744C165.563 6.36513 166.179 6.30806 166.784 6.3906C167.389 6.47313 167.967 6.69308 168.474 7.03358C168.98 7.37409 169.403 7.82611 169.708 8.35501L171.958 12.25ZM169.36 13.75L167.11 9.85251C167.044 9.73867 166.957 9.63888 166.853 9.55884C166.749 9.47879 166.63 9.42005 166.503 9.38599C166.376 9.35192 166.243 9.34319 166.113 9.36028C165.983 9.37738 165.857 9.41998 165.743 9.48564C165.629 9.5513 165.53 9.63874 165.45 9.74297C165.37 9.84719 165.311 9.96617 165.277 10.0931C165.243 10.22 165.234 10.3524 165.251 10.4827C165.268 10.613 165.311 10.7387 165.376 10.8525L166.626 13.0163C166.825 13.3607 166.879 13.7701 166.776 14.1543C166.673 14.5385 166.422 14.8661 166.078 15.065C165.68 15.2948 165.331 15.6008 165.051 15.9654C164.771 16.3301 164.566 16.7463 164.447 17.1903C164.328 17.6343 164.297 18.0973 164.357 18.553C164.417 19.0088 164.567 19.4482 164.796 19.8463C164.895 20.0169 164.959 20.2053 164.985 20.4006C165.01 20.5959 164.997 20.7944 164.946 20.9847C164.895 21.175 164.807 21.3534 164.687 21.5097C164.567 21.666 164.418 21.7971 164.247 21.8956C164.076 21.9941 163.888 22.058 163.693 22.0837C163.497 22.1094 163.299 22.0964 163.109 22.0454C162.918 21.9944 162.74 21.9064 162.584 21.7864C162.427 21.6665 162.296 21.5169 162.198 21.3463C161.47 20.0792 161.189 18.604 161.401 17.1582C161.613 15.7123 162.305 14.3798 163.366 13.375L159.28 6.28876C159.148 6.05902 158.929 5.89136 158.673 5.82268C158.417 5.75399 158.144 5.78991 157.914 5.92251C157.684 6.05512 157.517 6.27356 157.448 6.52979C157.379 6.78601 157.415 7.05902 157.548 7.28876L160.798 12.9138C160.997 13.2584 161.05 13.6679 160.947 14.0522C160.844 14.4366 160.593 14.7642 160.248 14.9631C159.904 15.1621 159.494 15.2159 159.11 15.1129C158.725 15.0099 158.398 14.7584 158.199 14.4138L153.949 7.05251C153.816 6.82307 153.598 6.65562 153.342 6.58695C153.086 6.51828 152.814 6.554 152.584 6.68626C152.47 6.75191 152.37 6.83932 152.29 6.94351C152.21 7.04771 152.152 7.16664 152.118 7.29351C152.084 7.42039 152.075 7.55272 152.092 7.68295C152.109 7.81318 152.152 7.93876 152.218 8.05251L156.968 16.2788C157.066 16.4494 157.13 16.6378 157.156 16.8331C157.181 17.0284 157.168 17.2269 157.117 17.4172C157.066 17.6075 156.978 17.7859 156.858 17.9422C156.738 18.0985 156.589 18.2296 156.418 18.3281C156.248 18.4266 156.059 18.4905 155.864 18.5162C155.669 18.5419 155.47 18.5289 155.28 18.4779C155.09 18.4269 154.911 18.3389 154.755 18.2189C154.599 18.099 154.467 17.9494 154.369 17.7788L151.619 13.0163C151.555 12.8989 151.469 12.7955 151.364 12.7122C151.26 12.6288 151.14 12.5672 151.011 12.531C150.883 12.4947 150.748 12.4846 150.616 12.5012C150.483 12.5178 150.356 12.5607 150.24 12.6275C150.124 12.6943 150.023 12.7836 149.943 12.8901C149.862 12.9966 149.804 13.1181 149.771 13.2476C149.738 13.377 149.731 13.5117 149.751 13.6437C149.772 13.7758 149.818 13.9024 149.888 14.0163L154.638 22.25C155.765 24.2023 157.621 25.6269 159.799 26.2104C160.877 26.4993 162.002 26.573 163.108 26.4273C164.215 26.2816 165.282 25.9194 166.249 25.3613C167.216 24.8031 168.063 24.0601 168.742 23.1745C169.422 22.2889 169.92 21.2782 170.209 20.2C170.498 19.1218 170.572 17.9972 170.426 16.8906C170.281 15.7839 169.918 14.7167 169.36 13.75ZM174.038 5.85126C173.449 4.82547 172.664 3.92659 171.725 3.20671C170.787 2.48683 169.716 1.96026 168.573 1.65751C168.382 1.60654 168.184 1.59356 167.988 1.61931C167.793 1.64506 167.605 1.70903 167.434 1.80758C167.263 1.90613 167.114 2.03731 166.994 2.19366C166.874 2.35 166.786 2.52843 166.735 2.71876C166.684 2.9091 166.671 3.10761 166.697 3.30296C166.723 3.49831 166.787 3.68668 166.885 3.85731C166.984 4.02793 167.115 4.17748 167.271 4.29741C167.428 4.41733 167.606 4.50529 167.796 4.55626C168.558 4.75784 169.273 5.10869 169.898 5.58848C170.524 6.06827 171.048 6.66744 171.44 7.35126C171.537 7.52563 171.667 7.67902 171.823 7.80247C171.98 7.92592 172.159 8.01697 172.351 8.07028C172.543 8.12359 172.744 8.13811 172.942 8.11298C173.139 8.08785 173.33 8.02358 173.503 7.92392C173.675 7.82426 173.826 7.69121 173.947 7.53255C174.067 7.37388 174.155 7.19278 174.205 6.99981C174.255 6.80685 174.266 6.6059 174.237 6.4087C174.208 6.21149 174.14 6.02199 174.038 5.85126Z" fill="currentColor"/>
<path d="M215.034 3.74125C215.067 3.61434 215.126 3.49536 215.206 3.39111C215.286 3.28686 215.386 3.19939 215.499 3.13368C215.613 3.06798 215.739 3.02534 215.869 3.00819C215.999 2.99104 216.132 2.99973 216.259 3.03375C218.246 3.5675 219.884 4.7975 220.866 6.5C220.999 6.72974 221.035 7.00275 220.966 7.25897C220.897 7.51519 220.73 7.73364 220.5 7.86625C220.27 7.99885 219.997 8.03476 219.741 7.96608C219.485 7.89739 219.266 7.72974 219.134 7.5C218.419 6.26 217.214 5.36 215.741 4.96625C215.614 4.9323 215.495 4.87368 215.391 4.79374C215.287 4.7138 215.199 4.6141 215.133 4.50033C215.068 4.38657 215.025 4.26098 215.008 4.13073C214.991 4.00049 214.999 3.86814 215.034 3.74125ZM201.947 28.215C200.775 27.29 199.795 26.11 198.866 24.5C198.8 24.3862 198.713 24.2865 198.609 24.2066C198.505 24.1266 198.386 24.0679 198.259 24.0339C198.132 23.9999 198 23.9912 197.869 24.0083C197.739 24.0255 197.614 24.0681 197.5 24.1337C197.386 24.1994 197.286 24.2868 197.206 24.391C197.126 24.4952 197.068 24.6142 197.034 24.741C197 24.8679 196.991 25.0002 197.008 25.1304C197.025 25.2607 197.068 25.3862 197.134 25.5C198.195 27.3375 199.33 28.6987 200.709 29.785C200.917 29.9454 201.18 30.0172 201.441 29.9848C201.703 29.9524 201.94 29.8184 202.103 29.6118C202.266 29.4053 202.341 29.1428 202.312 28.8814C202.283 28.6199 202.152 28.3805 201.947 28.215ZM216.524 7.3025C216.394 7.07163 216.22 6.86878 216.011 6.7057C215.803 6.54262 215.564 6.42256 215.309 6.35248C215.053 6.2824 214.787 6.2637 214.524 6.29745C214.262 6.3312 214.008 6.41675 213.779 6.54912C213.55 6.68149 213.349 6.85805 213.189 7.06857C213.028 7.27909 212.911 7.51938 212.844 7.7755C212.777 8.03162 212.762 8.29848 212.799 8.5606C212.836 8.82273 212.925 9.0749 213.06 9.3025L215.06 12.7662C215.125 12.88 215.168 13.0056 215.185 13.1358C215.202 13.266 215.194 13.3984 215.16 13.5252C215.126 13.6521 215.067 13.7711 214.987 13.8752C214.907 13.9794 214.807 14.0669 214.694 14.1325C213.775 14.663 213.105 15.5366 212.83 16.5612C212.556 17.5859 212.699 18.6776 213.23 19.5962C213.362 19.826 213.398 20.099 213.33 20.3552C213.261 20.6114 213.093 20.8299 212.864 20.9625C212.634 21.0951 212.361 21.131 212.105 21.0623C211.848 20.9936 211.63 20.826 211.497 20.5962C210.79 19.3674 210.54 17.9279 210.792 16.5325C211.043 15.1371 211.78 13.8757 212.872 12.9712L207.829 4.24C207.563 3.78051 207.126 3.4452 206.614 3.30783C206.102 3.17046 205.556 3.24228 205.096 3.5075C204.637 3.77271 204.301 4.2096 204.164 4.72204C204.026 5.23448 204.098 5.78051 204.364 6.24L208.364 13.1687C208.488 13.3978 208.518 13.6664 208.447 13.9173C208.376 14.1681 208.211 14.3815 207.985 14.5119C207.759 14.6422 207.491 14.6793 207.239 14.6152C206.986 14.5512 206.769 14.3909 206.632 14.1687L201.632 5.5075C201.367 5.04801 200.93 4.7127 200.418 4.57533C199.905 4.43796 199.359 4.50978 198.9 4.775C198.44 5.04021 198.105 5.4771 197.968 5.98954C197.83 6.50198 197.902 7.04801 198.167 7.5075L203.667 17.0337C203.737 17.1476 203.783 17.2742 203.803 17.4063C203.824 17.5383 203.817 17.673 203.784 17.8024C203.751 17.9319 203.693 18.0534 203.612 18.1599C203.532 18.2664 203.431 18.3557 203.315 18.4225C203.199 18.4893 203.072 18.5322 202.939 18.5488C202.807 18.5654 202.672 18.5553 202.543 18.519C202.415 18.4828 202.295 18.4212 202.191 18.3378C202.086 18.2545 202 18.1511 201.936 18.0337L198.436 11.9725C198.305 11.745 198.13 11.5456 197.921 11.3856C197.713 11.2257 197.475 11.1083 197.221 11.0403C196.968 10.9723 196.703 10.9549 196.443 10.9892C196.182 11.0234 195.931 11.1087 195.704 11.24C195.476 11.3713 195.277 11.5462 195.117 11.7546C194.957 11.9629 194.839 12.2008 194.771 12.4545C194.703 12.7083 194.686 12.9729 194.72 13.2334C194.754 13.4938 194.84 13.745 194.971 13.9725L200.471 23.4987C201.933 26.0186 204.335 27.8555 207.15 28.6065C209.965 29.3575 212.962 28.9611 215.485 27.5045C218.008 26.0479 219.851 23.6499 220.608 20.8367C221.365 18.0235 220.975 15.0248 219.524 12.4987L216.524 7.3025Z" fill="currentColor"/>
<path opacity="0.2" d="M266.659 13L264.409 9.10247C264.075 8.53296 263.529 8.11862 262.891 7.94988C262.253 7.78114 261.574 7.8717 261.002 8.20179C260.43 8.53188 260.012 9.07471 259.839 9.71181C259.666 10.3489 259.752 11.0286 260.079 11.6025L256.579 5.53997C256.238 4.98483 255.694 4.58459 255.063 4.42445C254.431 4.26431 253.762 4.35692 253.198 4.68256C252.634 5.0082 252.219 5.54116 252.042 6.16799C251.865 6.79482 251.94 7.46602 252.25 8.03872L251.25 6.30747C250.916 5.73796 250.371 5.32362 249.732 5.15488C249.094 4.98614 248.415 5.0767 247.843 5.40679C247.272 5.73688 246.854 6.27971 246.681 6.91681C246.508 7.55392 246.594 8.23358 246.92 8.80747L248.42 11.4112L248.274 11.5362C247.815 11.1839 247.248 11.0017 246.669 11.0207C246.091 11.0396 245.537 11.2586 245.102 11.6403C244.668 12.0219 244.379 12.5426 244.285 13.1136C244.191 13.6845 244.298 14.2704 244.588 14.7712L249.338 23C250.664 25.2969 252.848 26.973 255.41 27.6595C257.972 28.346 260.701 27.9867 262.998 26.6606C265.295 25.3345 266.971 23.1503 267.658 20.5884C268.344 18.0266 267.985 15.2969 266.659 13ZM259.46 20.58L259.481 20.5675L259.499 20.5975L259.46 20.58Z" fill="currentColor"/>
<path d="M267.525 12.5L265.275 8.6025C264.98 8.0908 264.56 7.6621 264.055 7.35631C263.55 7.05053 262.975 6.8776 262.385 6.85365C261.795 6.82969 261.208 6.95548 260.68 7.2193C260.151 7.48313 259.698 7.8764 259.363 8.3625L257.445 5.03875C257.142 4.51348 256.707 4.07606 256.184 3.76937C255.66 3.46268 255.066 3.29726 254.46 3.28932C253.853 3.28138 253.255 3.43119 252.724 3.72408C252.193 4.01696 251.747 4.44285 251.43 4.96C250.811 4.40265 250.013 4.08437 249.181 4.06235C248.348 4.04033 247.535 4.31602 246.887 4.83986C246.24 5.3637 245.8 6.10136 245.647 6.92026C245.495 7.73916 245.639 8.58561 246.055 9.3075L246.473 10.0312C245.884 10.0786 245.316 10.2741 244.824 10.5998C244.331 10.9254 243.928 11.3705 243.654 11.8935C243.379 12.4166 243.242 13.0006 243.254 13.5912C243.266 14.1818 243.427 14.7598 243.723 15.2712L248.473 23.4987C249.192 24.752 250.152 25.8502 251.299 26.7299C252.445 27.6096 253.755 28.2533 255.151 28.6237C256.086 28.8734 257.049 28.9995 258.016 28.9987C259.946 28.9955 261.84 28.485 263.51 27.5184C265.179 26.5517 266.565 25.163 267.529 23.4915C268.492 21.82 268.999 19.9245 268.998 17.9953C268.997 16.066 268.489 14.1709 267.525 12.5ZM266.691 20.3287C266.231 22.0481 265.271 23.5923 263.932 24.7661C262.594 25.9398 260.938 26.6903 259.173 26.9227C257.408 27.1551 255.614 26.859 254.018 26.0717C252.421 25.2845 251.094 24.0415 250.204 22.5L245.454 14.2725C245.355 14.1019 245.291 13.9135 245.266 13.7182C245.24 13.5228 245.253 13.3243 245.304 13.134C245.407 12.7497 245.659 12.422 246.003 12.2231C246.348 12.0242 246.757 11.9703 247.142 12.0734C247.332 12.1244 247.51 12.2124 247.667 12.3323C247.823 12.4523 247.954 12.6019 248.053 12.7725L250.803 17.535C250.866 17.6523 250.953 17.7557 251.057 17.8391C251.162 17.9224 251.282 17.9841 251.41 18.0203C251.539 18.0565 251.673 18.0666 251.806 18.0501C251.938 18.0335 252.066 17.9905 252.182 17.9237C252.297 17.8569 252.398 17.7677 252.479 17.6612C252.559 17.5547 252.618 17.4331 252.651 17.3037C252.683 17.1742 252.69 17.0395 252.67 16.9075C252.65 16.7755 252.604 16.6488 252.534 16.535L247.784 8.30875C247.635 8.0518 247.567 7.75665 247.586 7.46061C247.606 7.16456 247.712 6.88093 247.893 6.64558C248.074 6.41022 248.32 6.23372 248.601 6.13839C248.882 6.04305 249.185 6.03317 249.471 6.11C249.662 6.16027 249.841 6.24794 249.997 6.36789C250.154 6.48785 250.285 6.6377 250.383 6.80875L254.633 14.17C254.769 14.3922 254.986 14.5524 255.239 14.6165C255.492 14.6806 255.759 14.6435 255.985 14.5131C256.211 14.3827 256.377 14.1694 256.448 13.9185C256.518 13.6676 256.488 13.3991 256.364 13.17L253.114 7.545C252.923 7.20106 252.876 6.79616 252.981 6.4174C253.086 6.03864 253.336 5.7163 253.676 5.51972C254.017 5.32314 254.42 5.26805 254.801 5.36628C255.182 5.46452 255.509 5.70823 255.711 6.045L260 13.4725C258.908 14.3771 258.171 15.6385 257.92 17.0338C257.668 18.4292 257.918 19.8685 258.625 21.0975C258.758 21.3272 258.976 21.4949 259.232 21.5636C259.489 21.6323 259.762 21.5964 259.991 21.4637C260.221 21.3311 260.389 21.1127 260.457 20.8565C260.526 20.6003 260.49 20.3272 260.358 20.0975C259.827 19.1788 259.683 18.0871 259.958 17.0625C260.232 16.0379 260.903 15.1642 261.821 14.6337C261.935 14.5681 262.035 14.4807 262.115 14.3765C262.195 14.2723 262.253 14.1534 262.287 14.0265C262.321 13.8996 262.33 13.7673 262.313 13.6371C262.296 13.5068 262.253 13.3812 262.188 13.2675L260.938 11.1025C260.747 10.7586 260.7 10.3537 260.805 9.9749C260.91 9.59614 261.159 9.2738 261.5 9.07722C261.84 8.88064 262.244 8.82555 262.625 8.92378C263.005 9.02202 263.332 9.26573 263.535 9.6025L265.785 13.5C266.38 14.5215 266.767 15.651 266.922 16.8229C267.078 17.9949 266.999 19.1861 266.691 20.3275V20.3287ZM263.034 3.74125C263.068 3.61434 263.126 3.49536 263.206 3.39111C263.286 3.28686 263.386 3.19939 263.5 3.13368C263.613 3.06798 263.739 3.02534 263.869 3.00819C264 2.99104 264.132 2.99973 264.259 3.03375C266.248 3.5675 267.884 4.7975 268.866 6.5C268.999 6.72974 269.035 7.00275 268.966 7.25897C268.897 7.51519 268.73 7.73364 268.5 7.86625C268.27 7.99885 267.997 8.03476 267.741 7.96608C267.485 7.89739 267.266 7.72974 267.134 7.5C266.419 6.26 265.214 5.36 263.741 4.96625C263.614 4.9323 263.495 4.87368 263.391 4.79374C263.287 4.7138 263.199 4.6141 263.134 4.50033C263.068 4.38657 263.025 4.26098 263.008 4.13073C262.991 4.00049 263 3.86814 263.034 3.74125ZM250.114 29.625C250.033 29.7282 249.932 29.8144 249.817 29.8786C249.702 29.9428 249.576 29.9838 249.446 29.9993C249.315 30.0147 249.183 30.0043 249.057 29.9686C248.93 29.9329 248.812 29.8726 248.709 29.7912C247.334 28.705 246.195 27.3437 245.134 25.5062C245.001 25.2765 244.965 25.0035 245.034 24.7473C245.103 24.491 245.27 24.2726 245.5 24.14C245.73 24.0074 246.003 23.9715 246.259 24.0402C246.515 24.1088 246.734 24.2765 246.866 24.5062C247.796 26.1162 248.775 27.2962 249.948 28.2212C250.156 28.3854 250.29 28.6255 250.321 28.8887C250.352 29.1519 250.278 29.4168 250.114 29.625Z" fill="currentColor"/>
</g>
<defs>
<clipPath id="clip0_17_4655">
<rect width="272" height="32" rx="5" fill="white"/>
</clipPath>
</defs>
</svg>
