<svg width="272" height="32" viewBox="0 0 272 32" fill="none" xmlns="http://www.w3.org/2000/svg">
<g clip-path="url(#clip0_17_4627)">
<path d="M29.4148 22.5L24.8848 17.9688L20.3273 2.93253C20.1978 2.50438 19.9647 2.11478 19.6486 1.79824C19.3326 1.4817 18.9433 1.248 18.5154 1.11783C18.0874 0.987666 17.634 0.965053 17.1952 1.052C16.7564 1.13894 16.3458 1.33276 15.9998 1.61628C15.6538 1.33276 15.2433 1.13894 14.8045 1.052C14.3657 0.965053 13.9123 0.987666 13.4843 1.11783C13.0563 1.248 12.6671 1.4817 12.351 1.79824C12.035 2.11478 11.8019 2.50438 11.6723 2.93253L7.11483 17.97L2.58483 22.5C2.21005 22.8751 1.99951 23.3836 1.99951 23.9138C1.99951 24.444 2.21005 24.9525 2.58483 25.3275L6.67108 29.4138C6.85681 29.5995 7.07731 29.7469 7.31999 29.8474C7.56267 29.948 7.82278 29.9997 8.08546 29.9997C8.34814 29.9997 8.60825 29.948 8.85093 29.8474C9.09361 29.7469 9.31411 29.5995 9.49984 29.4138L15.5348 23.375C15.7021 23.2073 15.8575 23.0281 15.9998 22.8388C16.1422 23.0281 16.2975 23.2073 16.4648 23.375L22.4998 29.415C22.6856 29.6008 22.9061 29.7482 23.1487 29.8487C23.3914 29.9492 23.6515 30.001 23.9142 30.001C24.1769 30.001 24.437 29.9492 24.6797 29.8487C24.9224 29.7482 25.1429 29.6008 25.3286 29.415L29.4148 25.3288C29.6006 25.1431 29.748 24.9226 29.8485 24.6799C29.949 24.4372 30.0008 24.1771 30.0008 23.9144C30.0008 23.6517 29.949 23.3916 29.8485 23.1489C29.748 22.9063 29.6006 22.6858 29.4148 22.5ZM8.08484 28L3.99983 23.915L5.58608 22.3288L9.67233 26.415L8.08484 28ZM14.9998 19.8438C15.0018 20.2383 14.9255 20.6292 14.7753 20.994C14.6251 21.3587 14.404 21.6901 14.1248 21.9688L11.0848 25L6.99984 20.915L8.70609 19.2075C8.82253 19.0911 8.9084 18.9477 8.95609 18.79L13.5811 3.51253C13.628 3.34253 13.7355 3.19556 13.8832 3.09931C14.031 3.00306 14.2089 2.96418 14.3833 2.99001C14.5578 3.01583 14.7168 3.10457 14.8303 3.2395C14.9439 3.37443 15.0042 3.54623 14.9998 3.72253V19.8438ZM17.8748 21.9688C17.5956 21.6901 17.3745 21.3587 17.2244 20.994C17.0742 20.6292 16.9978 20.2383 16.9998 19.8438V3.71878C16.9999 3.54559 17.0621 3.37818 17.1753 3.24704C17.2884 3.1159 17.4449 3.02976 17.6162 3.00431C17.7875 2.97886 17.9622 3.0158 18.1086 3.1084C18.255 3.20099 18.3632 3.34308 18.4136 3.50878L23.0386 18.7863C23.0863 18.9439 23.1721 19.0873 23.2886 19.2038L25.0998 21.015L20.9248 25.015L17.8748 21.9688ZM23.9148 28L22.3448 26.4288L26.5186 22.4288L27.9998 23.915L23.9148 28Z" fill="currentColor"/>
<path d="M77.0612 22.8538L72.4362 18.2288L67.8487 3.07751C67.7318 2.69176 67.5121 2.3451 67.2132 2.07468C66.9143 1.80425 66.5474 1.62026 66.152 1.54242C65.7565 1.46458 65.3472 1.49583 64.9681 1.63281C64.5891 1.76979 64.2544 2.00734 64 2.32001C63.7456 2.00734 63.4109 1.76979 63.0318 1.63281C62.6527 1.49583 62.2435 1.46458 61.848 1.54242C61.4525 1.62026 61.0857 1.80425 60.7868 2.07468C60.4879 2.3451 60.2682 2.69176 60.1512 3.07751L55.5575 18.235L50.9387 22.86C50.7989 22.9994 50.6879 23.165 50.6122 23.3473C50.5365 23.5296 50.4976 23.7251 50.4976 23.9225C50.4976 24.1199 50.5365 24.3154 50.6122 24.4977C50.6879 24.6801 50.7989 24.8457 50.9387 24.985L55.025 29.0613C55.1643 29.2011 55.3299 29.3121 55.5123 29.3878C55.6946 29.4635 55.8901 29.5024 56.0875 29.5024C56.2849 29.5024 56.4804 29.4635 56.6627 29.3878C56.845 29.3121 57.0106 29.2011 57.15 29.0613L63.185 23.025C63.514 22.697 63.7901 22.32 64.0037 21.9075C64.2173 22.32 64.4935 22.697 64.8225 23.025L70.8575 29.0613C70.9968 29.2011 71.1624 29.3121 71.3448 29.3878C71.5271 29.4635 71.7226 29.5024 71.92 29.5024C72.1174 29.5024 72.3129 29.4635 72.4952 29.3878C72.6775 29.3121 72.8431 29.2011 72.9825 29.0613L77.0687 24.975C77.349 24.6927 77.5057 24.3106 77.5043 23.9128C77.5029 23.515 77.3435 23.1341 77.0612 22.8538ZM56.4362 28.3538C56.3898 28.4002 56.3347 28.4371 56.274 28.4623C56.2133 28.4875 56.1482 28.5004 56.0825 28.5004C56.0168 28.5004 55.9517 28.4875 55.891 28.4623C55.8303 28.4371 55.7752 28.4002 55.7287 28.3538L51.6462 24.2688C51.5998 24.2223 51.5629 24.1672 51.5377 24.1065C51.5125 24.0458 51.4996 23.9807 51.4996 23.915C51.4996 23.8493 51.5125 23.7842 51.5377 23.7235C51.5629 23.6628 51.5998 23.6077 51.6462 23.5613L53.585 21.625L58.375 26.415L56.4362 28.3538ZM62.4725 22.3188L59.085 25.7075L54.2925 20.915L56.3525 18.8538C56.411 18.7958 56.454 18.724 56.4775 18.645L61.1025 3.36751C61.1842 3.08269 61.3665 2.83723 61.6156 2.67678C61.8647 2.51632 62.1636 2.4518 62.4567 2.4952C62.7498 2.5386 63.0172 2.68697 63.2091 2.91272C63.401 3.13848 63.5044 3.42624 63.5 3.72251V19.8475C63.5008 20.3067 63.4107 20.7615 63.2348 21.1857C63.0588 21.6099 62.8006 21.995 62.475 22.3188H62.4725ZM64.4975 19.8438V3.71876C64.4973 3.42552 64.6026 3.142 64.7941 2.91991C64.9856 2.69782 65.2505 2.55195 65.5406 2.50891C65.8306 2.46587 66.1265 2.52853 66.3742 2.68545C66.6219 2.84238 66.805 3.08312 66.89 3.36376L71.515 18.6413C71.5384 18.7202 71.5814 18.792 71.64 18.85L73.8125 21.0225L68.915 25.7113L65.525 22.3188C65.1989 21.9945 64.9405 21.6088 64.7645 21.184C64.5886 20.7591 64.4987 20.3036 64.5 19.8438H64.4975ZM76.3512 24.2688L72.2662 28.3538C72.2198 28.4002 72.1647 28.4371 72.104 28.4623C72.0433 28.4875 71.9782 28.5004 71.9125 28.5004C71.8468 28.5004 71.7817 28.4875 71.721 28.4623C71.6603 28.4371 71.6052 28.4002 71.5587 28.3538L69.625 26.4225L74.5225 21.7338L76.3487 23.5613C76.3956 23.6074 76.4328 23.6623 76.4584 23.7228C76.484 23.7833 76.4974 23.8483 76.4979 23.914C76.4984 23.9797 76.4859 24.0448 76.4611 24.1057C76.4364 24.1666 76.3999 24.222 76.3537 24.2688H76.3512Z" fill="currentColor"/>
<path d="M125.237 22.6775L120.664 18.1025L116.089 3C115.966 2.59411 115.74 2.22683 115.433 1.93356C115.127 1.64028 114.75 1.43092 114.339 1.32565C113.928 1.22038 113.497 1.22276 113.087 1.33255C112.678 1.44235 112.303 1.65586 112 1.9525C111.697 1.65586 111.322 1.44235 110.913 1.33255C110.503 1.22276 110.072 1.22038 109.661 1.32565C109.25 1.43092 108.873 1.64028 108.567 1.93356C108.26 2.22683 108.034 2.59411 107.911 3L103.336 18.1025L98.7625 22.6775C98.4346 23.0056 98.2505 23.4505 98.2505 23.9144C98.2505 24.3782 98.4346 24.8231 98.7625 25.1512L102.849 29.2375C103.177 29.5653 103.622 29.7495 104.086 29.7495C104.549 29.7495 104.994 29.5653 105.322 29.2375L111.359 23.2025C111.601 22.9605 111.816 22.6931 112 22.405C112.184 22.6931 112.399 22.9605 112.641 23.2025L118.677 29.2375C119.006 29.5653 119.451 29.7495 119.914 29.7495C120.378 29.7495 120.823 29.5653 121.151 29.2375L125.237 25.1512C125.565 24.8231 125.749 24.3782 125.749 23.9144C125.749 23.4505 125.565 23.0056 125.237 22.6775ZM104.262 28.1775C104.239 28.2007 104.212 28.2192 104.181 28.2318C104.151 28.2443 104.118 28.2508 104.086 28.2508C104.053 28.2508 104.02 28.2443 103.99 28.2318C103.96 28.2192 103.932 28.2007 103.909 28.1775L99.8225 24.0912C99.7992 24.068 99.7808 24.0405 99.7682 24.0101C99.7556 23.9798 99.7492 23.9472 99.7492 23.9144C99.7492 23.8815 99.7556 23.849 99.7682 23.8186C99.7808 23.7883 99.7992 23.7607 99.8225 23.7375L101.586 21.975L106.025 26.4137L104.262 28.1775ZM110.297 22.1412L107.086 25.3537L102.646 20.9137L104.53 19.03C104.617 18.9428 104.682 18.8355 104.717 18.7175L109.342 3.44C109.407 3.21316 109.552 3.0176 109.751 2.88975C109.949 2.76189 110.187 2.71045 110.42 2.74501C110.653 2.77957 110.866 2.89777 111.019 3.0776C111.172 3.25743 111.254 3.48663 111.25 3.7225V19.8475C111.251 20.2738 111.167 20.6959 111.003 21.0896C110.84 21.4833 110.6 21.8407 110.297 22.1412ZM112.75 19.8437V3.71875C112.75 3.48589 112.834 3.26092 112.987 3.08474C113.139 2.90855 113.349 2.79284 113.58 2.75864C113.81 2.72444 114.045 2.77402 114.242 2.89836C114.439 3.02271 114.584 3.21357 114.652 3.43625L119.277 18.7137C119.313 18.8317 119.378 18.9391 119.465 19.0262L121.456 21.0187L116.921 25.3612L113.697 22.1375C113.396 21.8366 113.157 21.479 112.995 21.0853C112.832 20.6916 112.749 20.2697 112.75 19.8437ZM124.177 24.0937L120.091 28.18C120.068 28.2032 120.04 28.2217 120.01 28.2343C119.98 28.2468 119.947 28.2533 119.914 28.2533C119.882 28.2533 119.849 28.2468 119.819 28.2343C119.788 28.2217 119.761 28.2032 119.737 28.18L117.987 26.43L122.524 22.0875L124.179 23.7412C124.224 23.7881 124.25 23.8511 124.25 23.9165C124.249 23.9819 124.223 24.0447 124.177 24.0912V24.0937Z" fill="currentColor"/>
<path d="M173.769 22.1475L169.328 17.7063L164.806 2.78755C164.663 2.31214 164.411 1.87638 164.071 1.51436C163.732 1.15235 163.312 0.873895 162.847 0.70079C162.382 0.527685 161.882 0.464624 161.389 0.51654C160.895 0.568456 160.42 0.733941 160 1.00005C159.581 0.733941 159.106 0.568456 158.612 0.51654C158.118 0.464624 157.619 0.527685 157.153 0.70079C156.688 0.873895 156.269 1.15235 155.929 1.51436C155.589 1.87638 155.337 2.31214 155.194 2.78755L150.673 17.7063L146.231 22.1475C145.763 22.6164 145.5 23.2521 145.5 23.915C145.5 24.578 145.763 25.2137 146.231 25.6825L150.318 29.7688C150.787 30.2375 151.422 30.5008 152.085 30.5008C152.748 30.5008 153.384 30.2375 153.853 29.7688L159.889 23.7338C159.928 23.695 159.964 23.6563 160 23.6163C160.036 23.6563 160.073 23.695 160.111 23.7338L166.148 29.7688C166.617 30.2375 167.252 30.5008 167.915 30.5008C168.578 30.5008 169.214 30.2375 169.683 29.7688L173.769 25.6825C174.238 25.2137 174.501 24.578 174.501 23.915C174.501 23.2521 174.238 22.6164 173.769 22.1475ZM152.085 27.2938L148.71 23.9188L150.085 22.5438L153.46 25.9188L152.085 27.2938ZM158.5 19.8438C158.501 20.1722 158.437 20.4976 158.311 20.801C158.185 21.1044 158.001 21.3798 157.768 21.6113L155.585 23.7938L152.21 20.4188L153.064 19.565C153.239 19.3909 153.368 19.1762 153.439 18.94L158.064 3.6613C158.08 3.61054 158.113 3.56709 158.158 3.53882C158.203 3.51056 158.257 3.49933 158.309 3.50719C158.362 3.51504 158.41 3.54146 158.445 3.58165C158.48 3.62184 158.499 3.67315 158.499 3.7263L158.5 19.8438ZM164.438 23.8163L162.233 21.6113C162 21.3798 161.815 21.1044 161.689 20.801C161.564 20.4976 161.499 20.1722 161.5 19.8438V3.7188C161.5 3.66565 161.52 3.61434 161.554 3.57415C161.589 3.53396 161.637 3.50754 161.69 3.49969C161.742 3.49183 161.796 3.50306 161.841 3.53132C161.886 3.55959 161.919 3.60304 161.935 3.6538L166.56 18.9325C166.632 19.1687 166.76 19.3834 166.935 19.5575L167.885 20.5075L164.438 23.8163ZM167.915 27.2938L166.559 25.9388L170.013 22.6338L171.294 23.915L167.915 27.2938Z" fill="currentColor"/>
<path d="M221.415 22.5L216.885 17.9688L212.327 2.93253C212.198 2.50438 211.965 2.11478 211.649 1.79824C211.333 1.4817 210.943 1.248 210.515 1.11783C210.087 0.987666 209.634 0.965053 209.195 1.052C208.756 1.13894 208.346 1.33276 208 1.61628C207.654 1.33276 207.243 1.13894 206.804 1.052C206.366 0.965053 205.912 0.987666 205.484 1.11783C205.056 1.248 204.667 1.4817 204.351 1.79824C204.035 2.11478 203.802 2.50438 203.672 2.93253L199.115 17.97L194.585 22.5C194.21 22.8751 194 23.3836 194 23.9138C194 24.444 194.21 24.9525 194.585 25.3275L198.671 29.4138C198.857 29.5995 199.077 29.7469 199.32 29.8474C199.563 29.948 199.823 29.9997 200.085 29.9997C200.348 29.9997 200.608 29.948 200.851 29.8474C201.094 29.7469 201.314 29.5995 201.5 29.4138L207.535 23.375C207.702 23.2073 207.858 23.0281 208 22.8388C208.142 23.0281 208.298 23.2073 208.465 23.375L214.5 29.415C214.686 29.6008 214.906 29.7482 215.149 29.8487C215.391 29.9492 215.652 30.001 215.914 30.001C216.177 30.001 216.437 29.9492 216.68 29.8487C216.922 29.7482 217.143 29.6008 217.329 29.415L221.415 25.3288C221.601 25.1431 221.748 24.9226 221.848 24.6799C221.949 24.4372 222.001 24.1771 222.001 23.9144C222.001 23.6517 221.949 23.3916 221.848 23.1489C221.748 22.9063 221.601 22.6858 221.415 22.5ZM207 19.8438C207.002 20.2383 206.926 20.6292 206.775 20.994C206.625 21.3587 206.404 21.6901 206.125 21.9688L203.085 25L199 20.915L200.706 19.2075C200.823 19.0911 200.908 18.9477 200.956 18.79L205.581 3.51253C205.628 3.34253 205.735 3.19556 205.883 3.09931C206.031 3.00306 206.209 2.96418 206.383 2.99001C206.558 3.01583 206.717 3.10457 206.83 3.2395C206.944 3.37443 207.004 3.54623 207 3.72253V19.8438ZM212.93 25.0163L209.875 21.965C209.596 21.6863 209.375 21.355 209.224 20.9902C209.074 20.6255 208.998 20.2345 209 19.84V3.71503C209 3.54184 209.062 3.37443 209.175 3.24329C209.288 3.11215 209.445 3.02601 209.616 3.00056C209.787 2.97511 209.962 3.01205 210.109 3.10465C210.255 3.19724 210.363 3.33933 210.414 3.50503L215.039 18.7825C215.086 18.9402 215.172 19.0836 215.289 19.2L217.1 21.0113L212.93 25.0163Z" fill="currentColor"/>
<path opacity="0.2" d="M268.708 24.6249L264.625 28.7074C264.438 28.8948 264.183 29.0001 263.918 29.0001C263.653 29.0001 263.399 28.8948 263.211 28.7074L260.918 26.4137L266.418 20.9137L268.711 23.2074C268.805 23.3006 268.878 23.4113 268.929 23.533C268.979 23.6548 269.004 23.7853 269.004 23.917C269.004 24.0487 268.977 24.179 268.926 24.3005C268.876 24.422 268.801 24.5323 268.708 24.6249ZM243.293 23.2074C243.105 23.395 243 23.6492 243 23.9143C243 24.1794 243.105 24.4337 243.293 24.6212L247.375 28.7074C247.563 28.8948 247.817 29.0001 248.082 29.0001C248.347 29.0001 248.601 28.8948 248.789 28.7074L251.083 26.4137L245.583 20.9137L243.293 23.2074Z" fill="currentColor"/>
<path d="M269.415 22.5L264.885 17.9688L260.327 2.93253C260.198 2.50438 259.965 2.11478 259.649 1.79824C259.333 1.4817 258.943 1.248 258.515 1.11783C258.087 0.987666 257.634 0.965053 257.195 1.052C256.756 1.13894 256.346 1.33276 256 1.61628C255.654 1.33276 255.243 1.13894 254.804 1.052C254.366 0.965053 253.912 0.987666 253.484 1.11783C253.056 1.248 252.667 1.4817 252.351 1.79824C252.035 2.11478 251.802 2.50438 251.672 2.93253L247.115 17.97L242.585 22.5C242.21 22.8751 242 23.3836 242 23.9138C242 24.444 242.21 24.9525 242.585 25.3275L246.671 29.4138C246.857 29.5995 247.077 29.7469 247.32 29.8474C247.563 29.948 247.823 29.9997 248.085 29.9997C248.348 29.9997 248.608 29.948 248.851 29.8474C249.094 29.7469 249.314 29.5995 249.5 29.4138L255.535 23.375C255.702 23.2073 255.858 23.0281 256 22.8388C256.142 23.0281 256.298 23.2073 256.465 23.375L262.5 29.415C262.686 29.6008 262.906 29.7482 263.149 29.8487C263.391 29.9492 263.652 30.001 263.914 30.001C264.177 30.001 264.437 29.9492 264.68 29.8487C264.922 29.7482 265.143 29.6008 265.329 29.415L269.415 25.3288C269.601 25.1431 269.748 24.9226 269.848 24.6799C269.949 24.4372 270.001 24.1771 270.001 23.9144C270.001 23.6517 269.949 23.3916 269.848 23.1489C269.748 22.9063 269.601 22.6858 269.415 22.5ZM248.085 28L244 23.915L245.586 22.3288L249.672 26.415L248.085 28ZM255 19.8438C255.002 20.2383 254.926 20.6292 254.775 20.994C254.625 21.3587 254.404 21.6901 254.125 21.9688L251.085 25L247 20.915L248.706 19.2075C248.823 19.0911 248.908 18.9477 248.956 18.79L253.581 3.51253C253.628 3.34253 253.735 3.19556 253.883 3.09931C254.031 3.00306 254.209 2.96418 254.383 2.99001C254.558 3.01583 254.717 3.10457 254.83 3.2395C254.944 3.37443 255.004 3.54623 255 3.72253V19.8438ZM257.875 21.9688C257.596 21.6901 257.375 21.3587 257.224 20.994C257.074 20.6292 256.998 20.2383 257 19.8438V3.71878C257 3.54559 257.062 3.37818 257.175 3.24704C257.288 3.1159 257.445 3.02976 257.616 3.00431C257.787 2.97886 257.962 3.0158 258.109 3.1084C258.255 3.20099 258.363 3.34308 258.414 3.50878L263.039 18.7863C263.086 18.9439 263.172 19.0873 263.289 19.2038L265.1 21.015L260.925 25.015L257.875 21.9688ZM263.915 28L262.345 26.4288L266.519 22.4288L268 23.915L263.915 28Z" fill="currentColor"/>
</g>
<defs>
<clipPath id="clip0_17_4627">
<rect width="272" height="32" rx="5" fill="white"/>
</clipPath>
</defs>
</svg>
