<svg width="272" height="32" viewBox="0 0 272 32" fill="none" xmlns="http://www.w3.org/2000/svg">
<g clip-path="url(#clip0_17_4739)">
<path d="M23.5 5.99999C22.9809 5.99926 22.4683 6.11502 22 6.33874V5.49999C22.0003 4.66581 21.7026 3.85893 21.1607 3.22478C20.6187 2.59062 19.8681 2.17089 19.044 2.04121C18.22 1.91154 17.3767 2.08045 16.6662 2.5175C15.9557 2.95456 15.4246 3.63102 15.1687 4.42499C14.6357 4.13589 14.0368 3.99022 13.4305 4.00225C12.8243 4.01428 12.2316 4.1836 11.7105 4.49362C11.1894 4.80364 10.7577 5.24372 10.4579 5.77074C10.158 6.29776 10.0002 6.89364 9.99996 7.49999V15.5L9.52246 14.7337C9.05866 13.9334 8.29687 13.3491 7.40359 13.1088C6.51031 12.8684 5.5582 12.9914 4.75537 13.451C3.95255 13.9106 3.3643 14.6693 3.11922 15.5613C2.87414 16.4533 2.99215 17.406 3.44746 18.2112C5.44746 22.4325 7.06371 25.4262 8.91246 27.2975C10.78 29.1925 12.9 30 16 30C18.9163 29.9967 21.7123 28.8367 23.7745 26.7745C25.8367 24.7123 26.9966 21.9164 27 19V9.49999C27 8.57174 26.6312 7.6815 25.9748 7.02512C25.3185 6.36874 24.4282 5.99999 23.5 5.99999ZM25 19C24.9973 21.3861 24.0483 23.6738 22.361 25.361C20.6737 27.0483 18.3861 27.9973 16 28C13.4525 28 11.8112 27.39 10.3337 25.8937C8.67996 24.2175 7.15746 21.375 5.23746 17.3225C5.22621 17.2977 5.21369 17.2735 5.19996 17.25C5.00105 16.9054 4.94718 16.4959 5.05021 16.1115C5.15323 15.7272 5.40472 15.3995 5.74933 15.2006C6.09395 15.0017 6.50347 14.9478 6.8878 15.0509C7.27213 15.1539 7.5998 15.4054 7.79871 15.75C7.8038 15.76 7.80965 15.7696 7.81621 15.7787L10.15 19.5287C10.2646 19.7137 10.4365 19.8563 10.6395 19.9347C10.8425 20.0132 11.0655 20.0233 11.2748 19.9635C11.484 19.9037 11.6681 19.7772 11.7989 19.6033C11.9298 19.4295 12.0004 19.2176 12 19V7.49999C12 7.10217 12.158 6.72064 12.4393 6.43933C12.7206 6.15803 13.1021 5.99999 13.5 5.99999C13.8978 5.99999 14.2793 6.15803 14.5606 6.43933C14.8419 6.72064 15 7.10217 15 7.49999V15C15 15.2652 15.1053 15.5196 15.2929 15.7071C15.4804 15.8946 15.7347 16 16 16C16.2652 16 16.5195 15.8946 16.7071 15.7071C16.8946 15.5196 17 15.2652 17 15V5.49999C17 5.10217 17.158 4.72064 17.4393 4.43933C17.7206 4.15803 18.1021 3.99999 18.5 3.99999C18.8978 3.99999 19.2793 4.15803 19.5606 4.43933C19.8419 4.72064 20 5.10217 20 5.49999V15C20 15.2652 20.1053 15.5196 20.2929 15.7071C20.4804 15.8946 20.7347 16 21 16C21.2652 16 21.5195 15.8946 21.7071 15.7071C21.8946 15.5196 22 15.2652 22 15V9.49999C22 9.10217 22.158 8.72064 22.4393 8.43933C22.7206 8.15803 23.1021 7.99999 23.5 7.99999C23.8978 7.99999 24.2793 8.15803 24.5606 8.43933C24.8419 8.72064 25 9.10217 25 9.49999V19Z" fill="currentColor"/>
<path d="M71.4999 6.49998C70.7615 6.49944 70.049 6.77241 69.4999 7.26623V5.49998C69.4989 4.7245 69.1977 3.97955 68.6593 3.42136C68.121 2.86317 67.3875 2.53512 66.6125 2.50602C65.8376 2.47692 65.0815 2.74902 64.5028 3.26526C63.9242 3.7815 63.5679 4.50176 63.5087 5.27498C63.078 4.88672 62.544 4.63159 61.9714 4.54047C61.3987 4.44934 60.812 4.52613 60.282 4.76153C59.7521 4.99693 59.3018 5.38087 58.9855 5.86687C58.6692 6.35288 58.5006 6.92013 58.4999 7.49998V17.25L57.0937 14.9925C56.6972 14.3026 56.0429 13.7985 55.2747 13.591C54.5065 13.3835 53.6873 13.4897 52.9974 13.8862C52.3076 14.2827 51.8034 14.937 51.596 15.7052C51.3885 16.4734 51.4947 17.2926 51.8912 17.9825C56.0549 26.765 58.2712 29.5 63.9999 29.5C66.7838 29.497 69.4528 28.3898 71.4213 26.4213C73.3898 24.4528 74.497 21.7838 74.4999 19V9.49998C74.4999 8.70433 74.1839 7.94127 73.6213 7.37866C73.0587 6.81605 72.2956 6.49998 71.4999 6.49998ZM73.4999 19C73.497 21.5186 72.4951 23.9333 70.7142 25.7142C68.9332 27.4952 66.5186 28.497 63.9999 28.5C59.3387 28.5 57.3012 27.0612 52.7862 17.5362L52.7674 17.5C52.51 17.0411 52.4437 16.4993 52.583 15.9919C52.7223 15.4845 53.0559 15.0524 53.5116 14.7893C53.9672 14.5262 54.5082 14.4533 55.0173 14.5863C55.5264 14.7193 55.9625 15.0476 56.2312 15.5C56.2346 15.5047 56.2375 15.5097 56.2399 15.515L58.5749 19.265C58.6323 19.3575 58.7183 19.4288 58.8198 19.468C58.9214 19.5072 59.033 19.5122 59.1377 19.4823C59.2423 19.4523 59.3343 19.389 59.3997 19.3019C59.4651 19.2149 59.5003 19.1089 59.4999 19V7.49998C59.4999 6.96955 59.7107 6.46084 60.0857 6.08577C60.4608 5.71069 60.9695 5.49998 61.4999 5.49998C62.0304 5.49998 62.5391 5.71069 62.9142 6.08577C63.2892 6.46084 63.4999 6.96955 63.4999 7.49998V15C63.4999 15.1326 63.5526 15.2598 63.6464 15.3535C63.7402 15.4473 63.8673 15.5 63.9999 15.5C64.1326 15.5 64.2597 15.4473 64.3535 15.3535C64.4473 15.2598 64.4999 15.1326 64.4999 15V5.49998C64.4999 4.96955 64.7107 4.46084 65.0857 4.08577C65.4608 3.71069 65.9695 3.49998 66.4999 3.49998C67.0304 3.49998 67.5391 3.71069 67.9142 4.08577C68.2892 4.46084 68.4999 4.96955 68.4999 5.49998V15C68.4999 15.1326 68.5526 15.2598 68.6464 15.3535C68.7402 15.4473 68.8673 15.5 68.9999 15.5C69.1326 15.5 69.2597 15.4473 69.3535 15.3535C69.4473 15.2598 69.4999 15.1326 69.4999 15V9.49998C69.4999 8.96955 69.7107 8.46084 70.0857 8.08577C70.4608 7.71069 70.9695 7.49998 71.4999 7.49998C72.0304 7.49998 72.5391 7.71069 72.9142 8.08577C73.2892 8.46084 73.4999 8.96955 73.4999 9.49998V19Z" fill="currentColor"/>
<path d="M119.5 6.25002C118.879 6.24932 118.272 6.42771 117.75 6.76377V5.50002C117.75 4.69798 117.454 3.92423 116.918 3.32762C116.382 2.73101 115.644 2.35368 114.846 2.26821C114.049 2.18274 113.248 2.39517 112.598 2.86463C111.947 3.33409 111.494 4.02743 111.324 4.81127C110.835 4.48003 110.266 4.28811 109.676 4.25611C109.087 4.22411 108.5 4.35325 107.978 4.62964C107.457 4.90604 107.02 5.31927 106.716 5.82497C106.411 6.33067 106.25 6.90974 106.25 7.50002V16.375L105.309 14.8625C104.88 14.1148 104.172 13.568 103.34 13.3425C102.508 13.117 101.62 13.2312 100.872 13.66C100.125 14.0888 99.578 14.7971 99.3525 15.6291C99.127 16.4611 99.2412 17.3485 99.67 18.0963C103.595 26.375 105.814 29.75 112 29.75C114.85 29.7467 117.582 28.6131 119.598 26.5978C121.613 24.5825 122.747 21.8501 122.75 19V9.50002C122.75 9.07323 122.666 8.65061 122.503 8.2563C122.339 7.86199 122.1 7.50372 121.798 7.20193C121.496 6.90014 121.138 6.66074 120.744 6.49741C120.349 6.33409 119.927 6.25002 119.5 6.25002ZM121.25 19C121.247 21.4524 120.272 23.8034 118.537 25.5375C116.803 27.2715 114.452 28.247 112 28.25C109.375 28.25 107.686 27.6188 106.156 26.0688C104.476 24.375 102.942 21.5 101.012 17.4288L100.984 17.375C100.752 16.9731 100.689 16.4954 100.809 16.047C100.929 15.5987 101.222 15.2165 101.624 14.9844C102.026 14.7523 102.504 14.6895 102.952 14.8096C103.401 14.9297 103.783 15.2231 104.015 15.625L104.027 15.6463L106.362 19.3963C106.448 19.535 106.577 19.6419 106.73 19.7007C106.882 19.7596 107.049 19.7672 107.206 19.7224C107.363 19.6775 107.501 19.5828 107.599 19.4524C107.697 19.322 107.75 19.1632 107.75 19V7.50002C107.75 7.03589 107.934 6.59077 108.263 6.26259C108.591 5.9344 109.036 5.75002 109.5 5.75002C109.964 5.75002 110.409 5.9344 110.737 6.26259C111.066 6.59077 111.25 7.03589 111.25 7.50002V15C111.25 15.1989 111.329 15.3897 111.47 15.5304C111.61 15.671 111.801 15.75 112 15.75C112.199 15.75 112.39 15.671 112.53 15.5304C112.671 15.3897 112.75 15.1989 112.75 15V5.50002C112.75 5.03589 112.934 4.59077 113.263 4.26259C113.591 3.9344 114.036 3.75002 114.5 3.75002C114.964 3.75002 115.409 3.9344 115.737 4.26259C116.066 4.59077 116.25 5.03589 116.25 5.50002V15C116.25 15.1989 116.329 15.3897 116.47 15.5304C116.61 15.671 116.801 15.75 117 15.75C117.199 15.75 117.39 15.671 117.53 15.5304C117.671 15.3897 117.75 15.1989 117.75 15V9.50002C117.75 9.03589 117.934 8.59077 118.263 8.26259C118.591 7.9344 119.036 7.75002 119.5 7.75002C119.964 7.75002 120.409 7.9344 120.737 8.26259C121.066 8.59077 121.25 9.03589 121.25 9.50002V19Z" fill="currentColor"/>
<path d="M167.5 5.50002C167.163 5.49937 166.827 5.54137 166.5 5.62502V5.50002C166.501 4.59453 166.195 3.71554 165.631 3.00677C165.068 2.298 164.28 1.80141 163.398 1.59819C162.515 1.39498 161.59 1.49716 160.773 1.88804C159.957 2.27892 159.297 2.93536 158.901 3.75002C158.296 3.52361 157.645 3.44726 157.003 3.52751C156.362 3.60776 155.75 3.84222 155.219 4.21083C154.688 4.57943 154.254 5.0712 153.955 5.64403C153.656 6.21686 153.5 6.8537 153.5 7.50002V13.8538C152.849 13.1107 151.945 12.635 150.964 12.5184C149.983 12.4018 148.993 12.6526 148.186 13.2224C147.378 13.7922 146.81 14.6407 146.592 15.6044C146.373 16.568 146.518 17.5786 147 18.4413C150.978 26.825 153.419 30.5 160 30.5C163.049 30.4967 165.972 29.284 168.128 27.1281C170.284 24.9721 171.497 22.049 171.5 19V9.50002C171.5 8.43916 171.079 7.42174 170.329 6.6716C169.578 5.92145 168.561 5.50002 167.5 5.50002ZM168.5 19C168.497 21.2536 167.601 23.414 166.008 25.0075C164.414 26.601 162.254 27.4974 160 27.5C155.521 27.5 153.786 25.75 149.69 17.1075C149.673 17.0713 149.654 17.035 149.634 17C149.51 16.771 149.479 16.5024 149.55 16.2515C149.621 16.0006 149.787 15.7873 150.013 15.6569C150.238 15.5265 150.506 15.4894 150.759 15.5535C151.011 15.6176 151.229 15.7778 151.365 16L151.391 16.0438L153.726 19.7938C153.899 20.0707 154.156 20.284 154.461 20.4012C154.765 20.5185 155.099 20.5334 155.413 20.4437C155.726 20.354 156.002 20.1645 156.198 19.904C156.395 19.6435 156.5 19.3262 156.5 19V7.50002C156.5 7.23481 156.606 6.98045 156.793 6.79292C156.981 6.60538 157.235 6.50002 157.5 6.50002C157.765 6.50002 158.02 6.60538 158.207 6.79292C158.395 6.98045 158.5 7.23481 158.5 7.50002V15C158.5 15.3978 158.658 15.7794 158.939 16.0607C159.221 16.342 159.602 16.5 160 16.5C160.398 16.5 160.78 16.342 161.061 16.0607C161.342 15.7794 161.5 15.3978 161.5 15V5.50002C161.5 5.23481 161.606 4.98045 161.793 4.79292C161.981 4.60538 162.235 4.50002 162.5 4.50002C162.765 4.50002 163.02 4.60538 163.207 4.79292C163.395 4.98045 163.5 5.23481 163.5 5.50002V15C163.5 15.3978 163.658 15.7794 163.939 16.0607C164.221 16.342 164.602 16.5 165 16.5C165.398 16.5 165.779 16.342 166.061 16.0607C166.342 15.7794 166.5 15.3978 166.5 15V9.50002C166.5 9.23481 166.606 8.98045 166.793 8.79292C166.981 8.60538 167.235 8.50002 167.5 8.50002C167.765 8.50002 168.02 8.60538 168.207 8.79292C168.395 8.98045 168.5 9.23481 168.5 9.50002V19Z" fill="currentColor"/>
<path d="M219 8V19.3662C219 25.1412 214.394 29.935 208.625 29.9987C207.225 30.0176 205.835 29.7553 204.538 29.2273C203.242 28.6993 202.064 27.9164 201.075 26.925C198.349 24.0412 195.269 17 195.269 17C195.133 16.7655 195.047 16.506 195.015 16.2371C194.982 15.9682 195.005 15.6956 195.082 15.4357C195.158 15.1759 195.286 14.9343 195.459 14.7255C195.631 14.5168 195.844 14.3452 196.085 14.2212C197.043 13.7212 198.223 14.1162 198.76 15.0487L201.385 19.6037C201.458 19.7349 201.568 19.8415 201.702 19.9103C201.835 19.979 201.986 20.0067 202.135 19.99H202.15C202.39 19.9487 202.608 19.823 202.764 19.6355C202.919 19.4481 203.003 19.2112 203 18.9675V6C203 5.72906 203.054 5.46087 203.161 5.21173C203.267 4.96258 203.423 4.73767 203.619 4.55064C203.815 4.3636 204.047 4.21835 204.301 4.1237C204.555 4.02904 204.826 3.98696 205.096 4C206.173 4.05 207 4.9775 207 6.05375V14C207 14.1371 207.028 14.2728 207.082 14.3986C207.136 14.5245 207.216 14.6378 207.316 14.7316C207.416 14.8254 207.534 14.8976 207.663 14.9438C207.792 14.9899 207.929 15.0091 208.066 15C208.323 14.9779 208.563 14.8593 208.736 14.668C208.909 14.4766 209.003 14.2268 209 13.9687V4C209 3.72906 209.054 3.46087 209.161 3.21173C209.267 2.96258 209.423 2.73767 209.619 2.55064C209.815 2.3636 210.047 2.21835 210.301 2.1237C210.555 2.02904 210.826 1.98696 211.096 2C212.173 2.05 213 2.9775 213 4.05375V15C213 15.1371 213.028 15.2728 213.082 15.3986C213.136 15.5245 213.216 15.6378 213.316 15.7316C213.416 15.8254 213.534 15.8976 213.663 15.9438C213.792 15.9899 213.929 16.0091 214.066 16C214.323 15.9779 214.563 15.8593 214.736 15.668C214.909 15.4766 215.003 15.2268 215 14.9687V8.05625C215 6.98 215.828 6.05625 216.904 6.0025C217.174 5.98947 217.444 6.03148 217.698 6.12598C217.952 6.22048 218.184 6.36551 218.38 6.55227C218.576 6.73904 218.732 6.96365 218.838 7.2125C218.945 7.46136 219 7.72927 219 8Z" fill="currentColor"/>
<path opacity="0.2" d="M266 9.5V19C266 20.3132 265.741 21.6136 265.239 22.8268C264.736 24.0401 264 25.1425 263.071 26.0711C262.142 26.9997 261.04 27.7362 259.827 28.2388C258.614 28.7413 257.313 29 256 29C250.478 29 248.406 26.34 244.335 17.75C244.009 17.1761 243.923 16.4964 244.096 15.8593C244.269 15.2222 244.687 14.6794 245.258 14.3493C245.83 14.0192 246.509 13.9287 247.147 14.0974C247.786 14.2661 248.331 14.6805 248.665 15.25L251 19V7.5C251 6.83696 251.263 6.20107 251.732 5.73223C252.201 5.26339 252.837 5 253.5 5C254.163 5 254.799 5.26339 255.268 5.73223C255.737 6.20107 256 6.83696 256 7.5V5.5C256 4.83696 256.263 4.20107 256.732 3.73223C257.201 3.26339 257.837 3 258.5 3C259.163 3 259.799 3.26339 260.268 3.73223C260.737 4.20107 261 4.83696 261 5.5V9.5C261 8.83696 261.263 8.20107 261.732 7.73223C262.201 7.26339 262.837 7 263.5 7C264.163 7 264.799 7.26339 265.268 7.73223C265.737 8.20107 266 8.83696 266 9.5Z" fill="currentColor"/>
<path d="M263.5 5.99999C262.981 5.99926 262.468 6.11502 262 6.33874V5.49999C262 4.66581 261.703 3.85893 261.161 3.22478C260.619 2.59062 259.868 2.17089 259.044 2.04121C258.22 1.91154 257.377 2.08045 256.666 2.5175C255.956 2.95456 255.425 3.63102 255.169 4.42499C254.636 4.13589 254.037 3.99022 253.431 4.00225C252.824 4.01428 252.232 4.1836 251.71 4.49362C251.189 4.80364 250.758 5.24372 250.458 5.77074C250.158 6.29776 250 6.89364 250 7.49999V15.5L249.522 14.7337C249.059 13.9334 248.297 13.3491 247.404 13.1088C246.51 12.8684 245.558 12.9914 244.755 13.451C243.953 13.9106 243.364 14.6693 243.119 15.5613C242.874 16.4533 242.992 17.406 243.447 18.2112C245.447 22.4325 247.064 25.4262 248.912 27.2975C250.78 29.1925 252.9 30 256 30C258.916 29.9967 261.712 28.8367 263.774 26.7745C265.837 24.7123 266.997 21.9164 267 19V9.49999C267 8.57174 266.631 7.6815 265.975 7.02512C265.318 6.36874 264.428 5.99999 263.5 5.99999ZM265 19C264.997 21.3861 264.048 23.6738 262.361 25.361C260.674 27.0483 258.386 27.9973 256 28C253.452 28 251.811 27.39 250.334 25.8937C248.68 24.2175 247.157 21.375 245.237 17.3225C245.226 17.2977 245.214 17.2735 245.2 17.25C245.001 16.9054 244.947 16.4959 245.05 16.1115C245.153 15.7272 245.405 15.3995 245.749 15.2006C246.094 15.0017 246.503 14.9478 246.888 15.0509C247.272 15.1539 247.6 15.4054 247.799 15.75C247.804 15.76 247.81 15.7696 247.816 15.7787L250.15 19.5287C250.265 19.7137 250.436 19.8563 250.639 19.9347C250.842 20.0132 251.066 20.0233 251.275 19.9635C251.484 19.9037 251.668 19.7772 251.799 19.6033C251.93 19.4295 252 19.2176 252 19V7.49999C252 7.10217 252.158 6.72064 252.439 6.43933C252.721 6.15803 253.102 5.99999 253.5 5.99999C253.898 5.99999 254.279 6.15803 254.561 6.43933C254.842 6.72064 255 7.10217 255 7.49999V15C255 15.2652 255.105 15.5196 255.293 15.7071C255.48 15.8946 255.735 16 256 16C256.265 16 256.52 15.8946 256.707 15.7071C256.895 15.5196 257 15.2652 257 15V5.49999C257 5.10217 257.158 4.72064 257.439 4.43933C257.721 4.15803 258.102 3.99999 258.5 3.99999C258.898 3.99999 259.279 4.15803 259.561 4.43933C259.842 4.72064 260 5.10217 260 5.49999V15C260 15.2652 260.105 15.5196 260.293 15.7071C260.48 15.8946 260.735 16 261 16C261.265 16 261.52 15.8946 261.707 15.7071C261.895 15.5196 262 15.2652 262 15V9.49999C262 9.10217 262.158 8.72064 262.439 8.43933C262.721 8.15803 263.102 7.99999 263.5 7.99999C263.898 7.99999 264.279 8.15803 264.561 8.43933C264.842 8.72064 265 9.10217 265 9.49999V19Z" fill="currentColor"/>
</g>
<defs>
<clipPath id="clip0_17_4739">
<rect width="272" height="32" rx="5" fill="white"/>
</clipPath>
</defs>
</svg>
