<svg width="272" height="32" viewBox="0 0 272 32" fill="none" xmlns="http://www.w3.org/2000/svg">
<g clip-path="url(#clip0_17_4543)">
<path d="M16.0002 10C16.7913 10 17.5646 9.76541 18.2224 9.32588C18.8802 8.88635 19.3929 8.26164 19.6957 7.53074C19.9984 6.79983 20.0776 5.99556 19.9233 5.21964C19.769 4.44372 19.388 3.73098 18.8286 3.17157C18.2692 2.61216 17.5564 2.2312 16.7805 2.07686C16.0046 1.92252 15.2003 2.00173 14.4694 2.30448C13.7385 2.60723 13.1138 3.11992 12.6743 3.77772C12.2348 4.43552 12.0002 5.20888 12.0002 6C12.0002 7.06087 12.4216 8.07828 13.1717 8.82843C13.9219 9.57857 14.9393 10 16.0002 10ZM16.0002 4C16.3957 4 16.7824 4.1173 17.1113 4.33706C17.4402 4.55683 17.6965 4.86918 17.8479 5.23463C17.9993 5.60009 18.0389 6.00222 17.9617 6.39018C17.8846 6.77814 17.6941 7.13451 17.4144 7.41422C17.1347 7.69392 16.7783 7.8844 16.3903 7.96157C16.0024 8.03874 15.6002 7.99914 15.2348 7.84776C14.8693 7.69639 14.557 7.44004 14.3372 7.11114C14.1175 6.78224 14.0002 6.39556 14.0002 6C14.0002 5.46957 14.2109 4.96086 14.5859 4.58579C14.961 4.21072 15.4697 4 16.0002 4ZM28.8577 16.515C28.79 16.628 28.7008 16.7265 28.595 16.8049C28.4893 16.8833 28.369 16.94 28.2413 16.9718C28.1135 17.0036 27.9808 17.0099 27.8506 16.9903C27.7204 16.9707 27.5954 16.9256 27.4827 16.8575C27.4389 16.8313 23.0939 14.2838 16.9977 14.0238V18.625L24.7477 27.3413C24.8348 27.4397 24.9017 27.5544 24.9446 27.6788C24.9874 27.8031 25.0053 27.9347 24.9973 28.066C24.9893 28.1973 24.9555 28.3257 24.8979 28.4439C24.8403 28.5621 24.7599 28.6678 24.6614 28.755C24.5629 28.8422 24.4482 28.9091 24.3239 28.9519C24.1995 28.9948 24.0679 29.0127 23.9367 29.0047C23.8054 28.9967 23.677 28.9629 23.5588 28.9052C23.4405 28.8476 23.3348 28.7672 23.2477 28.6688L16.0002 20.5L8.75015 28.6638C8.66299 28.7622 8.55728 28.8426 8.43906 28.9002C8.32084 28.9579 8.19242 28.9917 8.06114 28.9997C7.92986 29.0077 7.79829 28.9898 7.67394 28.9469C7.54959 28.9041 7.4349 28.8372 7.3364 28.75C7.23791 28.6628 7.15755 28.5571 7.09992 28.4389C7.04228 28.3207 7.00849 28.1923 7.00048 28.061C6.99247 27.9297 7.0104 27.7981 7.05324 27.6738C7.09608 27.5494 7.16299 27.4347 7.25015 27.3363L15.0002 18.625V14.0225C8.87515 14.2825 4.56015 16.83 4.51515 16.8575C4.4025 16.9267 4.27724 16.9729 4.14663 16.9934C4.01601 17.0139 3.88263 17.0082 3.7542 16.9768C3.62577 16.9454 3.50484 16.8889 3.39841 16.8104C3.29198 16.732 3.20216 16.6332 3.13415 16.5199C3.06614 16.4065 3.02129 16.2807 3.00219 16.1499C2.98309 16.0191 2.99012 15.8858 3.02288 15.7577C3.05564 15.6296 3.11347 15.5093 3.19304 15.4037C3.2726 15.2981 3.37231 15.2093 3.4864 15.1425C3.70015 15.0138 8.8064 12 16.0002 12C23.1939 12 28.3002 15.0138 28.5152 15.1425C28.6278 15.2101 28.726 15.2992 28.8042 15.4048C28.8824 15.5104 28.939 15.6303 28.9708 15.7578C29.0026 15.8852 29.009 16.0177 28.9895 16.1476C28.9701 16.2776 28.9253 16.4024 28.8577 16.515Z" fill="currentColor"/>
<path d="M76.4289 16.2575C76.3951 16.3138 76.3505 16.3629 76.2977 16.402C76.2449 16.4411 76.185 16.4694 76.1212 16.4853C76.0575 16.5012 75.9913 16.5044 75.9263 16.4947C75.8613 16.485 75.7989 16.4626 75.7426 16.4288C75.6951 16.4 71.0089 13.6425 64.5001 13.5063V18.81L72.3751 27.6675C72.4633 27.767 72.5084 27.8974 72.5004 28.0301C72.4924 28.1627 72.4321 28.2868 72.3326 28.375C72.2332 28.4632 72.1028 28.5083 71.9701 28.5003C71.8374 28.4923 71.7133 28.432 71.6251 28.3325L64.0001 19.75L56.3751 28.3325C56.2869 28.432 56.1629 28.4923 56.0302 28.5003C55.8975 28.5083 55.7671 28.4632 55.6676 28.375C55.5682 28.2868 55.5078 28.1627 55.4999 28.0301C55.4919 27.8974 55.5369 27.767 55.6251 27.6675L63.5001 18.81V13.5063C56.9914 13.6425 52.3051 16.4 52.2576 16.4288C52.1439 16.497 52.0077 16.5174 51.879 16.4853C51.7503 16.4531 51.6397 16.3712 51.5714 16.2575C51.5031 16.1438 51.4828 16.0076 51.5149 15.8789C51.547 15.7502 51.6289 15.6395 51.7426 15.5713C51.9514 15.4463 56.9426 12.5 64.0001 12.5C71.0576 12.5 76.0489 15.4463 76.2576 15.5713C76.314 15.6051 76.3631 15.6496 76.4021 15.7024C76.4412 15.7552 76.4695 15.8152 76.4854 15.8789C76.5013 15.9426 76.5045 16.0089 76.4948 16.0738C76.4851 16.1388 76.4627 16.2012 76.4289 16.2575ZM60.5001 6C60.5001 5.30777 60.7054 4.63108 61.09 4.05551C61.4746 3.47993 62.0212 3.03133 62.6607 2.76642C63.3003 2.50152 64.004 2.4322 64.683 2.56725C65.3619 2.7023 65.9855 3.03564 66.475 3.52513C66.9645 4.01461 67.2978 4.63825 67.4329 5.31719C67.5679 5.99612 67.4986 6.69985 67.2337 7.33939C66.9688 7.97894 66.5202 8.52556 65.9446 8.91015C65.3691 9.29473 64.6924 9.5 64.0001 9.5C63.0719 9.5 62.1816 9.13125 61.5253 8.47487C60.8689 7.8185 60.5001 6.92826 60.5001 6ZM61.5001 6C61.5001 6.49445 61.6468 6.9778 61.9215 7.38893C62.1962 7.80005 62.5866 8.12048 63.0434 8.3097C63.5002 8.49892 64.0029 8.54843 64.4879 8.45196C64.9728 8.3555 65.4183 8.1174 65.7679 7.76777C66.1175 7.41814 66.3556 6.97268 66.4521 6.48773C66.5486 6.00277 66.4991 5.50011 66.3098 5.04329C66.1206 4.58648 65.8002 4.19603 65.3891 3.92133C64.9779 3.64662 64.4946 3.5 64.0001 3.5C63.3371 3.5 62.7012 3.76339 62.2324 4.23223C61.7635 4.70108 61.5001 5.33696 61.5001 6Z" fill="currentColor"/>
<path d="M112 9.75C112.742 9.75 113.467 9.53007 114.084 9.11801C114.7 8.70596 115.181 8.12029 115.465 7.43506C115.749 6.74984 115.823 5.99584 115.678 5.26841C115.533 4.54098 115.176 3.8728 114.652 3.34835C114.127 2.8239 113.459 2.46675 112.732 2.32206C112.004 2.17736 111.25 2.25162 110.565 2.53545C109.88 2.81928 109.294 3.29993 108.882 3.91661C108.47 4.5333 108.25 5.25832 108.25 6C108.25 6.99456 108.645 7.94839 109.349 8.65165C110.052 9.35491 111.006 9.75 112 9.75ZM112 3.75C112.445 3.75 112.88 3.88196 113.25 4.1292C113.62 4.37643 113.909 4.72783 114.079 5.13896C114.249 5.5501 114.294 6.0025 114.207 6.43896C114.12 6.87541 113.906 7.27632 113.591 7.59099C113.277 7.90566 112.876 8.11995 112.439 8.20677C112.003 8.29359 111.55 8.24903 111.139 8.07873C110.728 7.90843 110.377 7.62005 110.129 7.25003C109.882 6.88002 109.75 6.44501 109.75 6C109.75 5.40326 109.987 4.83097 110.409 4.40901C110.831 3.98705 111.403 3.75 112 3.75ZM124.643 16.3863C124.539 16.5555 124.373 16.6769 124.18 16.7238C123.987 16.7706 123.784 16.7391 123.614 16.6363C123.568 16.61 119.053 13.9575 112.75 13.7613V18.7125L120.56 27.5C120.693 27.6492 120.761 27.8449 120.749 28.0442C120.737 28.2435 120.647 28.4299 120.498 28.5625C120.349 28.6951 120.153 28.763 119.954 28.7513C119.754 28.7396 119.568 28.6492 119.435 28.5L112 20.125L104.56 28.5C104.495 28.5739 104.415 28.6341 104.326 28.6772C104.237 28.7203 104.141 28.7455 104.042 28.7513C103.843 28.763 103.647 28.6951 103.498 28.5625C103.349 28.4299 103.258 28.2435 103.246 28.0442C103.235 27.8449 103.303 27.6492 103.435 27.5L111.25 18.715V13.7638C104.948 13.9638 100.431 16.6163 100.385 16.6388C100.215 16.7368 100.013 16.764 99.8226 16.7145C99.6323 16.6651 99.4691 16.5429 99.368 16.3743C99.2669 16.2058 99.2361 16.0042 99.2821 15.8131C99.3281 15.622 99.4473 15.4566 99.614 15.3525C99.8252 15.23 104.875 12.25 112 12.25C119.125 12.25 124.174 15.23 124.386 15.3575C124.557 15.46 124.679 15.6259 124.728 15.8188C124.776 16.0117 124.745 16.2158 124.643 16.3863Z" fill="currentColor"/>
<path d="M160 10.5C160.89 10.5 161.76 10.2361 162.5 9.74162C163.24 9.24715 163.817 8.54434 164.157 7.72208C164.498 6.89981 164.587 5.99501 164.413 5.1221C164.24 4.24918 163.811 3.44736 163.182 2.81802C162.553 2.18869 161.751 1.7601 160.878 1.58647C160.005 1.41283 159.1 1.50195 158.278 1.84254C157.456 2.18314 156.753 2.75991 156.258 3.49994C155.764 4.23996 155.5 5.10999 155.5 6C155.5 7.19348 155.974 8.33807 156.818 9.18198C157.662 10.0259 158.806 10.5 160 10.5ZM160 4.5C160.297 4.5 160.587 4.58798 160.833 4.7528C161.08 4.91762 161.272 5.15189 161.386 5.42598C161.499 5.70007 161.529 6.00167 161.471 6.29264C161.413 6.58361 161.27 6.85088 161.061 7.06066C160.851 7.27044 160.584 7.4133 160.293 7.47118C160.002 7.52906 159.7 7.49935 159.426 7.38582C159.152 7.27229 158.918 7.08003 158.753 6.83336C158.588 6.58668 158.5 6.29667 158.5 6C158.5 5.60218 158.658 5.22065 158.939 4.93934C159.221 4.65804 159.602 4.5 160 4.5ZM173.286 17.2713C173.185 17.4403 173.051 17.5877 172.893 17.7051C172.735 17.8225 172.555 17.9076 172.364 17.9554C172.172 18.0032 171.974 18.0129 171.779 17.9839C171.584 17.9548 171.396 17.8877 171.227 17.7863C171.187 17.7625 167.181 15.4213 161.5 15.0513V18.4263L169.125 27C169.256 27.1477 169.357 27.3199 169.422 27.5066C169.487 27.6934 169.514 27.8911 169.503 28.0884C169.491 28.2857 169.441 28.4788 169.354 28.6567C169.268 28.8345 169.148 28.9937 169 29.125C168.852 29.2563 168.68 29.3573 168.493 29.4221C168.307 29.4868 168.109 29.5142 167.912 29.5026C167.714 29.491 167.521 29.4406 167.343 29.3544C167.165 29.2682 167.006 29.1477 166.875 29L160 21.2613L153.125 29C152.994 29.1477 152.834 29.2682 152.657 29.3544C152.479 29.4406 152.286 29.491 152.088 29.5026C151.891 29.5142 151.693 29.4868 151.507 29.4221C151.32 29.3573 151.148 29.2563 151 29.125C150.852 28.9937 150.732 28.8345 150.646 28.6567C150.559 28.4788 150.509 28.2857 150.497 28.0884C150.486 27.8911 150.513 27.6934 150.578 27.5066C150.643 27.3199 150.744 27.1477 150.875 27L158.5 18.4263V15.0513C152.785 15.42 148.815 17.7613 148.772 17.7875C148.431 17.9922 148.023 18.053 147.637 17.9566C147.251 17.8601 146.919 17.6143 146.714 17.2731C146.51 16.932 146.449 16.5235 146.545 16.1375C146.642 15.7516 146.888 15.4197 147.229 15.215C147.447 15.0825 152.669 12 160 12C167.331 12 172.552 15.0825 172.771 15.2138C173.112 15.4183 173.358 15.75 173.455 16.1359C173.551 16.5217 173.491 16.9301 173.286 17.2713Z" fill="currentColor"/>
<path d="M203.986 6C203.986 5.20888 204.221 4.43552 204.66 3.77772C205.1 3.11992 205.724 2.60723 206.455 2.30448C207.186 2.00173 207.99 1.92252 208.766 2.07686C209.542 2.2312 210.255 2.61216 210.814 3.17157C211.374 3.73098 211.755 4.44372 211.909 5.21964C212.064 5.99556 211.984 6.79983 211.682 7.53074C211.379 8.26164 210.866 8.88635 210.208 9.32588C209.551 9.76541 208.777 10 207.986 10C206.925 10 205.908 9.57857 205.158 8.82843C204.407 8.07828 203.986 7.06087 203.986 6ZM220.515 15.1425C220.3 15.0138 215.194 12 208 12C200.806 12 195.7 15.0138 195.485 15.1425C195.257 15.2791 195.094 15.5004 195.029 15.7578C194.965 16.0152 195.006 16.2876 195.142 16.515C195.279 16.7424 195.5 16.9063 195.758 16.9705C196.015 17.0347 196.287 16.9941 196.515 16.8575C196.56 16.83 200.879 14.2825 207 14.0225V18.625L199.25 27.3363C199.163 27.4347 199.096 27.5494 199.053 27.6738C199.01 27.7981 198.992 27.9297 199 28.061C199.008 28.1923 199.042 28.3207 199.1 28.4389C199.157 28.5571 199.238 28.6628 199.336 28.75C199.435 28.8372 199.549 28.9041 199.674 28.9469C199.798 28.9898 199.929 29.0077 200.061 28.9997C200.192 28.9917 200.32 28.9579 200.439 28.9002C200.557 28.8426 200.663 28.7622 200.75 28.6638L208 20.5L215.25 28.6588C215.426 28.8577 215.674 28.9785 215.939 28.9947C216.204 29.0108 216.465 28.921 216.664 28.745C216.862 28.569 216.983 28.3211 216.999 28.056C217.016 27.7909 216.926 27.5302 216.75 27.3313L209 18.625V14.0238C215.096 14.2838 219.441 16.8313 219.485 16.8575C219.597 16.9251 219.722 16.9699 219.852 16.9893C219.982 17.0087 220.115 17.0023 220.242 16.9705C220.369 16.9387 220.489 16.8821 220.595 16.804C220.701 16.7258 220.79 16.6276 220.857 16.515C220.925 16.4024 220.97 16.2776 220.989 16.1476C221.008 16.0177 221.002 15.8853 220.97 15.7578C220.938 15.6304 220.882 15.5104 220.804 15.4049C220.726 15.2993 220.627 15.2101 220.515 15.1425Z" fill="currentColor"/>
<path opacity="0.2" d="M259 6C259 6.59334 258.824 7.17336 258.494 7.66671C258.165 8.16006 257.696 8.54458 257.148 8.77164C256.6 8.9987 255.997 9.05811 255.415 8.94236C254.833 8.8266 254.298 8.54088 253.879 8.12132C253.459 7.70176 253.173 7.16721 253.058 6.58527C252.942 6.00333 253.001 5.40013 253.228 4.85195C253.455 4.30377 253.84 3.83524 254.333 3.50559C254.827 3.17595 255.407 3 256 3C256.796 3 257.559 3.31607 258.121 3.87868C258.684 4.44129 259 5.20435 259 6Z" fill="currentColor"/>
<path d="M256 10C256.791 10 257.564 9.76541 258.222 9.32588C258.88 8.88635 259.393 8.26164 259.695 7.53074C259.998 6.79983 260.077 5.99556 259.923 5.21964C259.769 4.44372 259.388 3.73098 258.828 3.17157C258.269 2.61216 257.556 2.2312 256.78 2.07686C256.004 1.92252 255.2 2.00173 254.469 2.30448C253.738 2.60723 253.113 3.11992 252.674 3.77772C252.234 4.43552 252 5.20888 252 6C252 7.06087 252.421 8.07828 253.171 8.82843C253.921 9.57857 254.939 10 256 10ZM256 4C256.395 4 256.782 4.1173 257.111 4.33706C257.44 4.55683 257.696 4.86918 257.848 5.23463C257.999 5.60009 258.039 6.00222 257.961 6.39018C257.884 6.77814 257.694 7.13451 257.414 7.41422C257.134 7.69392 256.778 7.8844 256.39 7.96157C256.002 8.03874 255.6 7.99914 255.234 7.84776C254.869 7.69639 254.557 7.44004 254.337 7.11114C254.117 6.78224 254 6.39556 254 6C254 5.46957 254.21 4.96086 254.586 4.58579C254.961 4.21072 255.469 4 256 4ZM268.857 16.515C268.79 16.628 268.7 16.7265 268.595 16.8049C268.489 16.8833 268.369 16.94 268.241 16.9718C268.113 17.0036 267.98 17.0099 267.85 16.9903C267.72 16.9707 267.595 16.9256 267.482 16.8575C267.439 16.8313 263.094 14.2838 256.997 14.0238V18.625L264.747 27.3413C264.834 27.4397 264.901 27.5544 264.944 27.6788C264.987 27.8031 265.005 27.9347 264.997 28.066C264.989 28.1973 264.955 28.3257 264.898 28.4439C264.84 28.5621 264.76 28.6678 264.661 28.755C264.563 28.8422 264.448 28.9091 264.323 28.9519C264.199 28.9948 264.068 29.0127 263.936 29.0047C263.805 28.9967 263.677 28.9629 263.558 28.9052C263.44 28.8476 263.334 28.7672 263.247 28.6688L256 20.5L248.75 28.6638C248.663 28.7622 248.557 28.8426 248.439 28.9002C248.32 28.9579 248.192 28.9917 248.061 28.9997C247.929 29.0077 247.798 28.9898 247.674 28.9469C247.549 28.9041 247.435 28.8372 247.336 28.75C247.238 28.6628 247.157 28.5571 247.1 28.4389C247.042 28.3207 247.008 28.1923 247 28.061C246.992 27.9297 247.01 27.7981 247.053 27.6738C247.096 27.5494 247.163 27.4347 247.25 27.3363L255 18.625V14.0225C248.875 14.2825 244.56 16.83 244.515 16.8575C244.287 16.9941 244.015 17.0347 243.758 16.9705C243.5 16.9063 243.279 16.7424 243.142 16.515C243.006 16.2876 242.965 16.0152 243.029 15.7578C243.094 15.5004 243.257 15.2791 243.485 15.1425C243.7 15.0138 248.806 12 256 12C263.194 12 268.3 15.0138 268.515 15.1425C268.627 15.2101 268.726 15.2992 268.804 15.4048C268.882 15.5104 268.939 15.6303 268.97 15.7578C269.002 15.8852 269.009 16.0177 268.989 16.1476C268.97 16.2776 268.925 16.4024 268.857 16.515Z" fill="currentColor"/>
</g>
<defs>
<clipPath id="clip0_17_4543">
<rect width="272" height="32" rx="5" fill="white"/>
</clipPath>
</defs>
</svg>
