<svg width="272" height="32" viewBox="0 0 272 32" fill="none" xmlns="http://www.w3.org/2000/svg">
<g clip-path="url(#clip0_17_4375)">
<path d="M16 3C13.4288 3 10.9154 3.76244 8.77759 5.1909C6.63975 6.61935 4.97351 8.64968 3.98957 11.0251C3.00563 13.4006 2.74819 16.0144 3.2498 18.5362C3.75141 21.0579 4.98953 23.3743 6.80762 25.1924C8.6257 27.0105 10.9421 28.2486 13.4638 28.7502C15.9856 29.2518 18.5995 28.9944 20.9749 28.0104C23.3503 27.0265 25.3807 25.3603 26.8091 23.2224C28.2376 21.0846 29 18.5712 29 16C28.9964 12.5533 27.6256 9.24882 25.1884 6.81163C22.7512 4.37445 19.4467 3.00364 16 3ZM16 27C13.8244 27 11.6977 26.3549 9.88873 25.1462C8.07979 23.9375 6.66989 22.2195 5.83733 20.2095C5.00477 18.1995 4.78693 15.9878 5.21137 13.854C5.63581 11.7202 6.68345 9.7602 8.22183 8.22183C9.76021 6.68345 11.7202 5.6358 13.854 5.21136C15.9878 4.78692 18.1995 5.00476 20.2095 5.83733C22.2195 6.66989 23.9375 8.07979 25.1462 9.88873C26.3549 11.6977 27 13.8244 27 16C26.9967 18.9164 25.8367 21.7123 23.7745 23.7745C21.7123 25.8367 18.9164 26.9967 16 27ZM10 13.5C10 13.2033 10.088 12.9133 10.2528 12.6666C10.4176 12.42 10.6519 12.2277 10.926 12.1142C11.2001 12.0006 11.5017 11.9709 11.7926 12.0288C12.0836 12.0867 12.3509 12.2296 12.5607 12.4393C12.7704 12.6491 12.9133 12.9164 12.9712 13.2074C13.0291 13.4983 12.9994 13.7999 12.8858 14.074C12.7723 14.3481 12.58 14.5824 12.3334 14.7472C12.0867 14.912 11.7967 15 11.5 15C11.1022 15 10.7206 14.842 10.4393 14.5607C10.158 14.2794 10 13.8978 10 13.5ZM23 13.5C23 13.7652 22.8946 14.0196 22.7071 14.2071C22.5196 14.3946 22.2652 14.5 22 14.5H19C18.7348 14.5 18.4804 14.3946 18.2929 14.2071C18.1054 14.0196 18 13.7652 18 13.5C18 13.2348 18.1054 12.9804 18.2929 12.7929C18.4804 12.6054 18.7348 12.5 19 12.5H22C22.2652 12.5 22.5196 12.6054 22.7071 12.7929C22.8946 12.9804 23 13.2348 23 13.5ZM21.865 19.5C20.5788 21.7238 18.4413 23 16 23C13.5588 23 11.4213 21.725 10.1338 19.5C10.0681 19.3862 10.0255 19.2607 10.0084 19.1304C9.99122 19.0002 9.99991 18.8679 10.0339 18.741C10.0679 18.6142 10.1266 18.4952 10.2066 18.391C10.2865 18.2868 10.3862 18.1994 10.5 18.1338C10.6138 18.0681 10.7393 18.0255 10.8696 18.0083C10.9998 17.9912 11.1321 17.9999 11.259 18.0339C11.3859 18.0679 11.5048 18.1266 11.609 18.2066C11.7132 18.2865 11.8006 18.3862 11.8663 18.5C12.7988 20.1138 14.2663 21 16 21C17.7338 21 19.2013 20.1125 20.135 18.5C20.1975 18.3805 20.2836 18.2749 20.388 18.1895C20.4924 18.1041 20.6129 18.0407 20.7425 18.0031C20.872 17.9655 21.0078 17.9546 21.1417 17.9708C21.2756 17.9871 21.4048 18.0303 21.5215 18.0978C21.6383 18.1652 21.7402 18.2557 21.8211 18.3636C21.902 18.4715 21.9603 18.5946 21.9924 18.7256C22.0245 18.8566 22.0297 18.9927 22.0078 19.1258C21.9859 19.2589 21.9374 19.3862 21.865 19.5Z" fill="currentColor"/>
<path d="M64 3.5C61.5277 3.5 59.111 4.23311 57.0554 5.60663C54.9998 6.98015 53.3976 8.93238 52.4515 11.2165C51.5054 13.5005 51.2579 16.0139 51.7402 18.4386C52.2225 20.8634 53.413 23.0907 55.1612 24.8388C56.9093 26.587 59.1366 27.7775 61.5614 28.2598C63.9861 28.7421 66.4995 28.4946 68.7835 27.5485C71.0676 26.6024 73.0199 25.0002 74.3934 22.9446C75.7669 20.889 76.5 18.4723 76.5 16C76.4964 12.6859 75.1782 9.5086 72.8348 7.16518C70.4914 4.82177 67.3141 3.50364 64 3.5ZM64 27.5C61.7255 27.5 59.5021 26.8255 57.6109 25.5619C55.7198 24.2983 54.2458 22.5022 53.3754 20.4009C52.505 18.2995 52.2772 15.9872 52.721 13.7565C53.1647 11.5257 54.26 9.47658 55.8683 7.86827C57.4766 6.25997 59.5257 5.1647 61.7565 4.72097C63.9872 4.27724 66.2995 4.50498 68.4009 5.37539C70.5022 6.24579 72.2983 7.71978 73.5619 9.61094C74.8255 11.5021 75.5 13.7255 75.5 16C75.4967 19.049 74.284 21.9721 72.1281 24.1281C69.9721 26.284 67.049 27.4967 64 27.5ZM58.5 13.5C58.5 13.3022 58.5587 13.1089 58.6685 12.9444C58.7784 12.78 58.9346 12.6518 59.1173 12.5761C59.3 12.5004 59.5011 12.4806 59.6951 12.5192C59.8891 12.5578 60.0673 12.653 60.2071 12.7929C60.347 12.9327 60.4422 13.1109 60.4808 13.3049C60.5194 13.4989 60.4996 13.7 60.4239 13.8827C60.3482 14.0654 60.22 14.2216 60.0556 14.3315C59.8911 14.4414 59.6978 14.5 59.5 14.5C59.2348 14.5 58.9804 14.3946 58.7929 14.2071C58.6054 14.0196 58.5 13.7652 58.5 13.5ZM70.5 13.5C70.5 13.6326 70.4473 13.7598 70.3536 13.8536C70.2598 13.9473 70.1326 14 70 14H67C66.8674 14 66.7402 13.9473 66.6465 13.8536C66.5527 13.7598 66.5 13.6326 66.5 13.5C66.5 13.3674 66.5527 13.2402 66.6465 13.1464C66.7402 13.0527 66.8674 13 67 13H70C70.1326 13 70.2598 13.0527 70.3536 13.1464C70.4473 13.2402 70.5 13.3674 70.5 13.5ZM69.4325 19.25C68.2388 21.315 66.2588 22.5 64 22.5C61.7413 22.5 59.7613 21.315 58.5675 19.25C58.5077 19.1357 58.4944 19.0028 58.5303 18.8789C58.5663 18.7551 58.6487 18.6499 58.7603 18.5854C58.872 18.5208 59.0042 18.5019 59.1295 18.5326C59.2548 18.5633 59.3633 18.6412 59.4325 18.75C60.4588 20.5238 62.0813 21.5 64 21.5C65.9188 21.5 67.5413 20.5238 68.5675 18.75C68.5988 18.6902 68.6418 18.6374 68.694 18.5947C68.7462 18.552 68.8065 18.5204 68.8712 18.5016C68.936 18.4828 69.0039 18.4773 69.0708 18.4854C69.1378 18.4935 69.2024 18.5151 69.2608 18.5489C69.3192 18.5826 69.3701 18.6278 69.4106 18.6818C69.451 18.7357 69.4801 18.7973 69.4962 18.8628C69.5122 18.9283 69.5149 18.9964 69.5039 19.0629C69.493 19.1295 69.4687 19.1931 69.4325 19.25Z" fill="currentColor"/>
<path d="M112 3.25C109.478 3.25 107.013 3.99777 104.916 5.39876C102.82 6.79975 101.186 8.79103 100.221 11.1208C99.2555 13.4505 99.003 16.0141 99.495 18.4874C99.987 20.9607 101.201 23.2325 102.984 25.0156C104.768 26.7987 107.039 28.0131 109.513 28.505C111.986 28.997 114.549 28.7445 116.879 27.7795C119.209 26.8144 121.2 25.1802 122.601 23.0835C124.002 20.9868 124.75 18.5217 124.75 16C124.746 12.6197 123.401 9.379 121.011 6.98877C118.621 4.59854 115.38 3.25397 112 3.25ZM112 27.25C109.775 27.25 107.6 26.5902 105.75 25.354C103.9 24.1179 102.458 22.3609 101.606 20.3052C100.755 18.2495 100.532 15.9875 100.966 13.8052C101.4 11.6229 102.472 9.61839 104.045 8.04505C105.618 6.47171 107.623 5.40025 109.805 4.96617C111.988 4.53208 114.25 4.75487 116.305 5.60636C118.361 6.45784 120.118 7.89978 121.354 9.74984C122.59 11.5999 123.25 13.775 123.25 16C123.247 18.9827 122.06 21.8422 119.951 23.9513C117.842 26.0604 114.983 27.2467 112 27.25ZM106.25 13.5C106.25 13.2528 106.323 13.0111 106.461 12.8055C106.598 12.6 106.793 12.4398 107.022 12.3452C107.25 12.2505 107.501 12.2258 107.744 12.274C107.986 12.3222 108.209 12.4413 108.384 12.6161C108.559 12.7909 108.678 13.0137 108.726 13.2561C108.774 13.4986 108.749 13.7499 108.655 13.9784C108.56 14.2068 108.4 14.402 108.194 14.5393C107.989 14.6767 107.747 14.75 107.5 14.75C107.168 14.75 106.851 14.6183 106.616 14.3839C106.382 14.1495 106.25 13.8315 106.25 13.5ZM118.75 13.5C118.75 13.6989 118.671 13.8897 118.53 14.0303C118.39 14.171 118.199 14.25 118 14.25H115C114.801 14.25 114.61 14.171 114.47 14.0303C114.329 13.8897 114.25 13.6989 114.25 13.5C114.25 13.3011 114.329 13.1103 114.47 12.9697C114.61 12.829 114.801 12.75 115 12.75H118C118.199 12.75 118.39 12.829 118.53 12.9697C118.671 13.1103 118.75 13.3011 118.75 13.5ZM117.649 19.375C116.409 21.52 114.35 22.75 112 22.75C109.65 22.75 107.591 21.52 106.351 19.375C106.262 19.2036 106.242 19.0042 106.296 18.8184C106.349 18.6326 106.473 18.4748 106.64 18.378C106.808 18.2812 107.006 18.2529 107.194 18.2989C107.382 18.3449 107.545 18.4618 107.649 18.625C108.629 20.3175 110.174 21.25 112 21.25C113.826 21.25 115.375 20.3175 116.351 18.625C116.398 18.5354 116.463 18.4562 116.541 18.3921C116.619 18.3281 116.71 18.2805 116.807 18.2523C116.904 18.2242 117.006 18.2159 117.106 18.2281C117.207 18.2403 117.304 18.2727 117.391 18.3233C117.479 18.3739 117.555 18.4418 117.616 18.5227C117.677 18.6036 117.72 18.696 117.744 18.7942C117.768 18.8925 117.772 18.9946 117.756 19.0944C117.739 19.1942 117.703 19.2896 117.649 19.375Z" fill="currentColor"/>
<path d="M160 2.5C157.33 2.5 154.72 3.29176 152.5 4.77516C150.28 6.25856 148.549 8.36697 147.528 10.8338C146.506 13.3006 146.239 16.015 146.759 18.6337C147.28 21.2525 148.566 23.6579 150.454 25.5459C152.342 27.434 154.748 28.7197 157.366 29.2406C159.985 29.7615 162.699 29.4942 165.166 28.4724C167.633 27.4506 169.741 25.7203 171.225 23.5002C172.708 21.2801 173.5 18.67 173.5 16C173.496 12.4208 172.072 8.98932 169.542 6.45844C167.011 3.92756 163.579 2.50397 160 2.5ZM160 26.5C157.923 26.5 155.893 25.8842 154.167 24.7304C152.44 23.5767 151.094 21.9368 150.299 20.0182C149.505 18.0996 149.297 15.9884 149.702 13.9516C150.107 11.9148 151.107 10.0438 152.575 8.57538C154.044 7.10693 155.915 6.1069 157.952 5.70175C159.988 5.29661 162.1 5.50454 164.018 6.29926C165.937 7.09399 167.577 8.4398 168.73 10.1665C169.884 11.8932 170.5 13.9233 170.5 16C170.497 18.7839 169.39 21.4528 167.421 23.4213C165.453 25.3898 162.784 26.497 160 26.5ZM153.5 13.5C153.5 13.1044 153.617 12.7178 153.837 12.3889C154.057 12.06 154.369 11.8036 154.735 11.6522C155.1 11.5009 155.502 11.4613 155.89 11.5384C156.278 11.6156 156.635 11.8061 156.914 12.0858C157.194 12.3655 157.384 12.7219 157.462 13.1098C157.539 13.4978 157.499 13.8999 157.348 14.2654C157.196 14.6308 156.94 14.9432 156.611 15.1629C156.282 15.3827 155.896 15.5 155.5 15.5C154.97 15.5 154.461 15.2893 154.086 14.9142C153.711 14.5391 153.5 14.0304 153.5 13.5ZM167.5 13.5C167.5 13.8978 167.342 14.2794 167.061 14.5607C166.779 14.842 166.398 15 166 15H163C162.602 15 162.221 14.842 161.939 14.5607C161.658 14.2794 161.5 13.8978 161.5 13.5C161.5 13.1022 161.658 12.7206 161.939 12.4393C162.221 12.158 162.602 12 163 12H166C166.398 12 166.779 12.158 167.061 12.4393C167.342 12.7206 167.5 13.1022 167.5 13.5ZM166.299 19.75C164.924 22.1325 162.625 23.5 160 23.5C157.375 23.5 155.08 22.1338 153.701 19.75C153.511 19.4061 153.463 19.0012 153.568 18.6224C153.674 18.2436 153.923 17.9213 154.264 17.7247C154.604 17.5281 155.008 17.4731 155.389 17.5713C155.769 17.6695 156.096 17.9132 156.299 18.25C156.785 19.0912 157.913 20.5 160 20.5C162.088 20.5 163.215 19.09 163.701 18.25C163.798 18.0756 163.928 17.9222 164.084 17.7988C164.241 17.6753 164.42 17.5843 164.612 17.531C164.804 17.4777 165.005 17.4632 165.203 17.4883C165.401 17.5134 165.591 17.5777 165.764 17.6773C165.936 17.777 166.087 17.9101 166.208 18.0687C166.329 18.2274 166.416 18.4085 166.466 18.6014C166.516 18.7944 166.527 18.9954 166.498 19.1926C166.469 19.3898 166.402 19.5793 166.299 19.75Z" fill="currentColor"/>
<path d="M208 3C205.429 3 202.915 3.76244 200.778 5.1909C198.64 6.61935 196.974 8.64968 195.99 11.0251C195.006 13.4006 194.748 16.0144 195.25 18.5362C195.751 21.0579 196.99 23.3743 198.808 25.1924C200.626 27.0105 202.942 28.2486 205.464 28.7502C207.986 29.2518 210.599 28.9944 212.975 28.0104C215.35 27.0265 217.381 25.3603 218.809 23.2224C220.238 21.0846 221 18.5712 221 16C220.996 12.5533 219.626 9.24882 217.188 6.81163C214.751 4.37445 211.447 3.00364 208 3ZM203.5 12C203.797 12 204.087 12.088 204.333 12.2528C204.58 12.4176 204.772 12.6519 204.886 12.926C204.999 13.2001 205.029 13.5017 204.971 13.7926C204.913 14.0836 204.77 14.3509 204.561 14.5607C204.351 14.7704 204.084 14.9133 203.793 14.9712C203.502 15.0291 203.2 14.9994 202.926 14.8858C202.652 14.7723 202.418 14.58 202.253 14.3334C202.088 14.0867 202 13.7967 202 13.5C202 13.1022 202.158 12.7206 202.439 12.4393C202.721 12.158 203.102 12 203.5 12ZM213.865 19.5C212.579 21.7238 210.441 23 208 23C205.559 23 203.421 21.725 202.135 19.5C202.063 19.3862 202.014 19.2589 201.992 19.1258C201.97 18.9927 201.976 18.8566 202.008 18.7256C202.04 18.5946 202.098 18.4715 202.179 18.3636C202.26 18.2557 202.362 18.1652 202.478 18.0978C202.595 18.0303 202.724 17.9871 202.858 17.9708C202.992 17.9546 203.128 17.9655 203.258 18.0031C203.387 18.0407 203.508 18.1041 203.612 18.1895C203.716 18.2749 203.802 18.3805 203.865 18.5C204.799 20.1138 206.266 21 208 21C209.734 21 211.201 20.1125 212.135 18.5C212.198 18.3805 212.284 18.2749 212.388 18.1895C212.492 18.1041 212.613 18.0407 212.742 18.0031C212.872 17.9655 213.008 17.9546 213.142 17.9708C213.276 17.9871 213.405 18.0303 213.522 18.0978C213.638 18.1652 213.74 18.2557 213.821 18.3636C213.902 18.4715 213.96 18.5946 213.992 18.7256C214.024 18.8566 214.03 18.9927 214.008 19.1258C213.986 19.2589 213.937 19.3862 213.865 19.5ZM215 14.5H211C210.735 14.5 210.48 14.3946 210.293 14.2071C210.105 14.0196 210 13.7652 210 13.5C210 13.2348 210.105 12.9804 210.293 12.7929C210.48 12.6054 210.735 12.5 211 12.5H215C215.265 12.5 215.52 12.6054 215.707 12.7929C215.895 12.9804 216 13.2348 216 13.5C216 13.7652 215.895 14.0196 215.707 14.2071C215.52 14.3946 215.265 14.5 215 14.5Z" fill="currentColor"/>
<path opacity="0.2" d="M268 16C268 18.3734 267.296 20.6935 265.978 22.6668C264.659 24.6402 262.785 26.1783 260.592 27.0866C258.399 27.9948 255.987 28.2324 253.659 27.7694C251.331 27.3064 249.193 26.1635 247.515 24.4853C245.836 22.8071 244.694 20.6689 244.231 18.3411C243.768 16.0133 244.005 13.6005 244.913 11.4078C245.822 9.21509 247.36 7.34094 249.333 6.02236C251.307 4.70379 253.627 4 256 4C259.183 4 262.235 5.26428 264.485 7.51472C266.736 9.76515 268 12.8174 268 16Z" fill="currentColor"/>
<path d="M256 3C253.429 3 250.915 3.76244 248.778 5.1909C246.64 6.61935 244.974 8.64968 243.99 11.0251C243.006 13.4006 242.748 16.0144 243.25 18.5362C243.751 21.0579 244.99 23.3743 246.808 25.1924C248.626 27.0105 250.942 28.2486 253.464 28.7502C255.986 29.2518 258.599 28.9944 260.975 28.0104C263.35 27.0265 265.381 25.3603 266.809 23.2224C268.238 21.0846 269 18.5712 269 16C268.996 12.5533 267.626 9.24882 265.188 6.81163C262.751 4.37445 259.447 3.00364 256 3ZM256 27C253.824 27 251.698 26.3549 249.889 25.1462C248.08 23.9375 246.67 22.2195 245.837 20.2095C245.005 18.1995 244.787 15.9878 245.211 13.854C245.636 11.7202 246.683 9.7602 248.222 8.22183C249.76 6.68345 251.72 5.6358 253.854 5.21136C255.988 4.78692 258.2 5.00476 260.21 5.83733C262.22 6.66989 263.937 8.07979 265.146 9.88873C266.355 11.6977 267 13.8244 267 16C266.997 18.9164 265.837 21.7123 263.775 23.7745C261.712 25.8367 258.916 26.9967 256 27ZM250 13.5C250 13.2033 250.088 12.9133 250.253 12.6666C250.418 12.42 250.652 12.2277 250.926 12.1142C251.2 12.0006 251.502 11.9709 251.793 12.0288C252.084 12.0867 252.351 12.2296 252.561 12.4393C252.77 12.6491 252.913 12.9164 252.971 13.2074C253.029 13.4983 252.999 13.7999 252.886 14.074C252.772 14.3481 252.58 14.5824 252.333 14.7472C252.087 14.912 251.797 15 251.5 15C251.102 15 250.721 14.842 250.439 14.5607C250.158 14.2794 250 13.8978 250 13.5ZM263 13.5C263 13.7652 262.895 14.0196 262.707 14.2071C262.52 14.3946 262.265 14.5 262 14.5H259C258.735 14.5 258.48 14.3946 258.293 14.2071C258.105 14.0196 258 13.7652 258 13.5C258 13.2348 258.105 12.9804 258.293 12.7929C258.48 12.6054 258.735 12.5 259 12.5H262C262.265 12.5 262.52 12.6054 262.707 12.7929C262.895 12.9804 263 13.2348 263 13.5ZM261.865 19.5C260.579 21.7238 258.441 23 256 23C253.559 23 251.421 21.725 250.135 19.5C250.063 19.3862 250.014 19.2589 249.992 19.1258C249.97 18.9927 249.976 18.8566 250.008 18.7256C250.04 18.5946 250.098 18.4715 250.179 18.3636C250.26 18.2557 250.362 18.1652 250.478 18.0978C250.595 18.0303 250.724 17.9871 250.858 17.9708C250.992 17.9546 251.128 17.9655 251.258 18.0031C251.387 18.0407 251.508 18.1041 251.612 18.1895C251.716 18.2749 251.802 18.3805 251.865 18.5C252.799 20.1138 254.266 21 256 21C257.734 21 259.201 20.1125 260.135 18.5C260.198 18.3805 260.284 18.2749 260.388 18.1895C260.492 18.1041 260.613 18.0407 260.742 18.0031C260.872 17.9655 261.008 17.9546 261.142 17.9708C261.276 17.9871 261.405 18.0303 261.522 18.0978C261.638 18.1652 261.74 18.2557 261.821 18.3636C261.902 18.4715 261.96 18.5946 261.992 18.7256C262.024 18.8566 262.03 18.9927 262.008 19.1258C261.986 19.2589 261.937 19.3862 261.865 19.5Z" fill="currentColor"/>
</g>
<defs>
<clipPath id="clip0_17_4375">
<rect width="272" height="32" rx="5" fill="white"/>
</clipPath>
</defs>
</svg>
