<svg width="272" height="32" viewBox="0 0 272 32" fill="none" xmlns="http://www.w3.org/2000/svg">
<g clip-path="url(#clip0_17_4459)">
<path d="M11.5 19C11.2033 19 10.9133 18.912 10.6667 18.7472C10.42 18.5824 10.2277 18.3481 10.1142 18.074C10.0007 17.7999 9.97095 17.4983 10.0288 17.2074C10.0867 16.9164 10.2296 16.6491 10.4393 16.4393C10.6491 16.2296 10.9164 16.0867 11.2074 16.0288C11.4983 15.9709 11.7999 16.0007 12.074 16.1142C12.3481 16.2277 12.5824 16.42 12.7472 16.6666C12.912 16.9133 13 17.2033 13 17.5C13 17.8978 12.842 18.2794 12.5607 18.5607C12.2794 18.842 11.8978 19 11.5 19ZM20.5 16C20.2033 16 19.9133 16.088 19.6667 16.2528C19.42 16.4176 19.2277 16.6519 19.1142 16.926C19.0007 17.2001 18.971 17.5017 19.0288 17.7926C19.0867 18.0836 19.2296 18.3509 19.4393 18.5607C19.6491 18.7704 19.9164 18.9133 20.2074 18.9712C20.4983 19.0291 20.7999 18.9993 21.074 18.8858C21.3481 18.7723 21.5824 18.58 21.7472 18.3334C21.912 18.0867 22 17.7967 22 17.5C22 17.1022 21.842 16.7206 21.5607 16.4393C21.2794 16.158 20.8978 16 20.5 16ZM29 16C29 18.5712 28.2376 21.0846 26.8091 23.2224C25.3807 25.3603 23.3503 27.0265 20.9749 28.0104C18.5995 28.9944 15.9856 29.2518 13.4638 28.7502C10.9421 28.2486 8.6257 27.0105 6.80762 25.1924C4.98953 23.3743 3.75141 21.0579 3.2498 18.5362C2.74819 16.0144 3.00563 13.4006 3.98957 11.0251C4.97351 8.64968 6.63975 6.61935 8.77759 5.1909C10.9154 3.76244 13.4288 3 16 3C19.4467 3.00364 22.7512 4.37445 25.1884 6.81163C27.6256 9.24882 28.9964 12.5533 29 16ZM27 16C27 13.8244 26.3549 11.6977 25.1462 9.88873C23.9375 8.07979 22.2195 6.66989 20.2095 5.83733C18.1995 5.00476 15.9878 4.78692 13.854 5.21136C11.7202 5.6358 9.76021 6.68345 8.22183 8.22183C6.68345 9.7602 5.63581 11.7202 5.21137 13.854C4.78693 15.9878 5.00477 18.1995 5.83733 20.2095C6.66989 22.2195 8.07979 23.9375 9.88873 25.1462C11.6977 26.3549 13.8244 27 16 27C18.9164 26.9967 21.7123 25.8367 23.7745 23.7745C25.8367 21.7123 26.9967 18.9164 27 16ZM21.445 10.1675L16 13.7987L10.555 10.1737C10.3342 10.0266 10.064 9.9731 9.80378 10.0251C9.54358 10.0772 9.3147 10.2305 9.16751 10.4513C9.02031 10.672 8.96685 10.9423 9.0189 11.2025C9.07094 11.4627 9.22421 11.6916 9.44501 11.8387L15.445 15.8387C15.6093 15.9484 15.8025 16.0069 16 16.0069C16.1976 16.0069 16.3907 15.9484 16.555 15.8387L22.555 11.8387C22.7758 11.6916 22.9291 11.4627 22.9811 11.2025C23.0332 10.9423 22.9797 10.672 22.8325 10.4513C22.6853 10.2305 22.4564 10.0772 22.1962 10.0251C21.936 9.9731 21.6658 10.0266 21.445 10.1737V10.1675ZM19.5538 22.1675C18.5 21.4662 17.4925 21 16 21C14.5075 21 13.5 21.4662 12.4463 22.1675C12.2305 22.3165 12.0819 22.5443 12.0325 22.8018C11.983 23.0593 12.0367 23.3259 12.1819 23.5442C12.3271 23.7625 12.5523 23.915 12.8089 23.969C13.0654 24.0229 13.3329 23.9739 13.5538 23.8325C14.3663 23.2925 15 23 16 23C17 23 17.6338 23.2925 18.4463 23.8325C18.5555 23.908 18.6787 23.9609 18.8087 23.9882C18.9386 24.0156 19.0727 24.0168 19.2031 23.9917C19.3335 23.9667 19.4576 23.9159 19.5682 23.8424C19.6788 23.7689 19.7736 23.6741 19.8472 23.5635C19.9207 23.4529 19.9715 23.3288 19.9966 23.1984C20.0216 23.068 20.0205 22.9339 19.9932 22.804C19.9658 22.674 19.9129 22.5508 19.8375 22.4415C19.762 22.3323 19.6656 22.2391 19.5538 22.1675Z" fill="currentColor"/>
<path d="M60.5 17.5C60.5 17.6978 60.4414 17.8911 60.3315 18.0556C60.2216 18.22 60.0654 18.3482 59.8827 18.4239C59.7 18.4996 59.4989 18.5194 59.3049 18.4808C59.1109 18.4422 58.9328 18.347 58.7929 18.2071C58.653 18.0673 58.5578 17.8891 58.5192 17.6951C58.4806 17.5011 58.5004 17.3 58.5761 17.1173C58.6518 16.9346 58.78 16.7784 58.9444 16.6685C59.1089 16.5586 59.3022 16.5 59.5 16.5C59.7652 16.5 60.0196 16.6054 60.2071 16.7929C60.3946 16.9804 60.5 17.2348 60.5 17.5ZM68.5 16.5C68.3022 16.5 68.1089 16.5586 67.9444 16.6685C67.78 16.7784 67.6518 16.9346 67.5761 17.1173C67.5004 17.3 67.4806 17.5011 67.5192 17.6951C67.5578 17.8891 67.653 18.0673 67.7929 18.2071C67.9328 18.347 68.1109 18.4422 68.3049 18.4808C68.4989 18.5194 68.7 18.4996 68.8827 18.4239C69.0654 18.3482 69.2216 18.22 69.3315 18.0556C69.4414 17.8911 69.5 17.6978 69.5 17.5C69.5 17.2348 69.3946 16.9804 69.2071 16.7929C69.0196 16.6054 68.7652 16.5 68.5 16.5ZM76.5 16C76.5 18.4723 75.7669 20.889 74.3934 22.9446C73.0199 25.0002 71.0676 26.6024 68.7835 27.5485C66.4995 28.4946 63.9861 28.7421 61.5614 28.2598C59.1366 27.7775 56.9093 26.587 55.1612 24.8388C53.413 23.0907 52.2225 20.8634 51.7402 18.4386C51.2579 16.0139 51.5054 13.5005 52.4515 11.2165C53.3976 8.93238 54.9998 6.98015 57.0554 5.60663C59.111 4.23311 61.5277 3.5 64 3.5C67.3141 3.50364 70.4914 4.82177 72.8348 7.16518C75.1782 9.5086 76.4964 12.6859 76.5 16ZM75.5 16C75.5 13.7255 74.8255 11.5021 73.5619 9.61094C72.2983 7.71978 70.5022 6.24579 68.4009 5.37539C66.2995 4.50498 63.9872 4.27724 61.7565 4.72097C59.5257 5.1647 57.4766 6.25997 55.8683 7.86827C54.26 9.47658 53.1647 11.5257 52.721 13.7565C52.2772 15.9872 52.505 18.2995 53.3754 20.4009C54.2458 22.5022 55.7198 24.2983 57.6109 25.5619C59.5021 26.8255 61.7255 27.5 64 27.5C67.049 27.4967 69.9721 26.284 72.1281 24.1281C74.284 21.9721 75.4967 19.049 75.5 16ZM69.7225 10.5837L64 14.3988L58.2775 10.5837C58.2228 10.5473 58.1615 10.522 58.0971 10.5092C58.0326 10.4965 57.9663 10.4966 57.9019 10.5094C57.8375 10.5223 57.7762 10.5478 57.7216 10.5843C57.667 10.6209 57.6202 10.6678 57.5838 10.7225C57.5473 10.7772 57.522 10.8385 57.5092 10.9029C57.4965 10.9674 57.4966 11.0337 57.5094 11.0981C57.5223 11.1625 57.5478 11.2238 57.5843 11.2784C57.6209 11.333 57.6678 11.3798 57.7225 11.4163L63.7225 15.4163C63.8047 15.4711 63.9012 15.5003 64 15.5003C64.0988 15.5003 64.1953 15.4711 64.2775 15.4163L70.2775 11.4163C70.3322 11.3798 70.3791 11.333 70.4157 11.2784C70.4522 11.2238 70.4777 11.1625 70.4906 11.0981C70.5034 11.0337 70.5035 10.9674 70.4908 10.9029C70.478 10.8385 70.4527 10.7772 70.4163 10.7225C70.3798 10.6678 70.333 10.6209 70.2784 10.5843C70.2238 10.5478 70.1625 10.5223 70.0981 10.5094C70.0337 10.4966 69.9674 10.4965 69.9029 10.5092C69.8385 10.522 69.7772 10.5473 69.7225 10.5837ZM67.2763 22.5837C66.2988 21.9338 65.3675 21.5 64 21.5C62.6325 21.5 61.7013 21.9338 60.7238 22.5837C60.6661 22.6187 60.6161 22.6649 60.5768 22.7196C60.5375 22.7744 60.5097 22.8365 60.4949 22.9022C60.4802 22.968 60.479 23.0361 60.4912 23.1023C60.5035 23.1686 60.529 23.2317 60.5663 23.2878C60.6036 23.344 60.6518 23.392 60.7081 23.4291C60.7644 23.4661 60.8276 23.4914 60.8939 23.5034C60.9602 23.5154 61.0283 23.5138 61.094 23.4989C61.1597 23.4839 61.2217 23.4558 61.2763 23.4163C62.15 22.8363 62.875 22.5 64 22.5C65.125 22.5 65.85 22.8363 66.7238 23.4163C66.7783 23.4558 66.8403 23.4839 66.906 23.4989C66.9717 23.5138 67.0398 23.5154 67.1061 23.5034C67.1724 23.4914 67.2356 23.4661 67.2919 23.4291C67.3482 23.392 67.3965 23.344 67.4337 23.2878C67.471 23.2317 67.4965 23.1686 67.5088 23.1023C67.521 23.0361 67.5198 22.968 67.5051 22.9022C67.4904 22.8365 67.4625 22.7744 67.4232 22.7196C67.3839 22.6649 67.3339 22.6187 67.2763 22.5837Z" fill="currentColor"/>
<path d="M107.5 18.75C107.253 18.75 107.011 18.6767 106.806 18.5393C106.6 18.402 106.44 18.2068 106.345 17.9784C106.251 17.7499 106.226 17.4986 106.274 17.2561C106.322 17.0137 106.441 16.7909 106.616 16.6161C106.791 16.4413 107.014 16.3223 107.256 16.274C107.499 16.2258 107.75 16.2505 107.978 16.3451C108.207 16.4398 108.402 16.6 108.539 16.8055C108.677 17.0111 108.75 17.2528 108.75 17.5C108.75 17.8315 108.618 18.1495 108.384 18.3839C108.149 18.6183 107.832 18.75 107.5 18.75ZM116.5 16.25C116.253 16.25 116.011 16.3233 115.806 16.4607C115.6 16.598 115.44 16.7932 115.345 17.0216C115.251 17.2501 115.226 17.5014 115.274 17.7439C115.322 17.9863 115.441 18.2091 115.616 18.3839C115.791 18.5587 116.014 18.6777 116.256 18.726C116.499 18.7742 116.75 18.7495 116.978 18.6549C117.207 18.5602 117.402 18.4 117.539 18.1945C117.677 17.9889 117.75 17.7472 117.75 17.5C117.75 17.1685 117.618 16.8505 117.384 16.6161C117.149 16.3817 116.832 16.25 116.5 16.25ZM124.75 16C124.75 18.5217 124.002 20.9868 122.601 23.0835C121.2 25.1802 119.209 26.8144 116.879 27.7795C114.549 28.7445 111.986 28.997 109.513 28.505C107.039 28.0131 104.768 26.7987 102.984 25.0156C101.201 23.2325 99.987 20.9607 99.495 18.4874C99.003 16.0141 99.2555 13.4505 100.221 11.1208C101.186 8.79103 102.82 6.79975 104.916 5.39876C107.013 3.99777 109.478 3.25 112 3.25C115.38 3.25397 118.621 4.59854 121.011 6.98877C123.401 9.379 124.746 12.6197 124.75 16ZM123.25 16C123.25 13.775 122.59 11.5999 121.354 9.74984C120.118 7.89978 118.361 6.45784 116.305 5.60636C114.25 4.75487 111.988 4.53208 109.805 4.96617C107.623 5.40025 105.618 6.47171 104.045 8.04505C102.472 9.61839 101.4 11.6229 100.966 13.8052C100.532 15.9875 100.755 18.2495 101.606 20.3052C102.458 22.3609 103.9 24.1179 105.75 25.354C107.6 26.5902 109.775 27.25 112 27.25C114.983 27.2467 117.842 26.0604 119.951 23.9513C122.06 21.8422 123.247 18.9827 123.25 16ZM117.584 10.375L112 14.0988L106.416 10.375C106.334 10.3203 106.242 10.2824 106.145 10.2633C106.049 10.2442 105.949 10.2443 105.852 10.2637C105.756 10.2831 105.664 10.3213 105.582 10.3763C105.5 10.4312 105.43 10.5017 105.375 10.5837C105.32 10.6658 105.282 10.7579 105.263 10.8546C105.244 10.9514 105.244 11.0509 105.264 11.1476C105.303 11.3429 105.418 11.5146 105.584 11.625L111.584 15.625C111.707 15.7072 111.852 15.7511 112 15.7511C112.148 15.7511 112.293 15.7072 112.416 15.625L118.416 11.625C118.498 11.5703 118.569 11.5 118.624 11.4181C118.679 11.3362 118.717 11.2443 118.736 11.1476C118.756 11.0509 118.756 10.9514 118.737 10.8546C118.718 10.7579 118.68 10.6658 118.625 10.5837C118.57 10.5017 118.5 10.4312 118.418 10.3763C118.336 10.3213 118.244 10.2831 118.148 10.2637C118.051 10.2443 117.951 10.2442 117.855 10.2633C117.758 10.2824 117.666 10.3203 117.584 10.375ZM115.415 22.375C114.399 21.7 113.43 21.25 112 21.25C110.57 21.25 109.601 21.7 108.585 22.375C108.419 22.4851 108.304 22.6565 108.265 22.8515C108.225 23.0465 108.265 23.2492 108.375 23.415C108.485 23.5808 108.656 23.696 108.852 23.7354C109.047 23.7748 109.249 23.7351 109.415 23.625C110.249 23.0713 110.939 22.75 112 22.75C113.061 22.75 113.75 23.0713 114.585 23.625C114.707 23.7068 114.851 23.7503 114.999 23.75C115.16 23.7504 115.317 23.6987 115.447 23.6028C115.576 23.5068 115.672 23.3717 115.718 23.2173C115.765 23.063 115.761 22.8977 115.706 22.7459C115.651 22.5942 115.549 22.4641 115.415 22.375Z" fill="currentColor"/>
<path d="M155.5 19.5C155.104 19.5 154.718 19.3827 154.389 19.1629C154.06 18.9432 153.804 18.6308 153.652 18.2654C153.501 17.8999 153.461 17.4978 153.538 17.1098C153.616 16.7219 153.806 16.3655 154.086 16.0858C154.365 15.8061 154.722 15.6156 155.11 15.5384C155.498 15.4613 155.9 15.5009 156.265 15.6522C156.631 15.8036 156.943 16.06 157.163 16.3889C157.383 16.7178 157.5 17.1044 157.5 17.5C157.5 18.0304 157.289 18.5391 156.914 18.9142C156.539 19.2893 156.03 19.5 155.5 19.5ZM164.5 15.5C164.104 15.5 163.718 15.6173 163.389 15.8371C163.06 16.0568 162.804 16.3692 162.652 16.7346C162.501 17.1001 162.461 17.5022 162.538 17.8902C162.616 18.2781 162.806 18.6345 163.086 18.9142C163.365 19.1939 163.722 19.3844 164.11 19.4616C164.498 19.5387 164.9 19.4991 165.265 19.3478C165.631 19.1964 165.943 18.94 166.163 18.6111C166.383 18.2822 166.5 17.8956 166.5 17.5C166.5 16.9696 166.289 16.4609 165.914 16.0858C165.539 15.7107 165.03 15.5 164.5 15.5ZM173.5 16C173.5 18.67 172.708 21.2801 171.225 23.5002C169.741 25.7203 167.633 27.4506 165.166 28.4724C162.699 29.4942 159.985 29.7615 157.366 29.2406C154.748 28.7197 152.342 27.434 150.454 25.5459C148.566 23.6579 147.28 21.2525 146.759 18.6337C146.239 16.015 146.506 13.3006 147.528 10.8338C148.549 8.36697 150.28 6.25856 152.5 4.77516C154.72 3.29176 157.33 2.5 160 2.5C163.579 2.50397 167.011 3.92756 169.542 6.45844C172.072 8.98932 173.496 12.4208 173.5 16ZM170.5 16C170.5 13.9233 169.884 11.8932 168.73 10.1665C167.577 8.4398 165.937 7.09399 164.018 6.29926C162.1 5.50454 159.988 5.29661 157.952 5.70175C155.915 6.1069 154.044 7.10693 152.575 8.57538C151.107 10.0438 150.107 11.9148 149.702 13.9516C149.297 15.9884 149.505 18.0996 150.299 20.0182C151.094 21.9368 152.44 23.5767 154.167 24.7304C155.893 25.8842 157.923 26.5 160 26.5C162.784 26.497 165.453 25.3898 167.421 23.4213C169.39 21.4528 170.497 18.7839 170.5 16ZM154.668 12.75L159.168 15.75C159.414 15.9145 159.704 16.0022 160 16.0022C160.296 16.0022 160.586 15.9145 160.833 15.75L165.333 12.75C165.664 12.5292 165.894 12.1858 165.973 11.7952C166.051 11.4047 165.971 10.999 165.75 10.6675C165.529 10.336 165.186 10.1057 164.795 10.0275C164.405 9.94915 163.999 10.0292 163.668 10.25L160 12.6975L156.333 10.25C156.001 10.0292 155.595 9.94915 155.205 10.0275C154.814 10.1057 154.471 10.336 154.25 10.6675C154.029 10.999 153.949 11.4047 154.027 11.7952C154.106 12.1858 154.336 12.5292 154.668 12.75ZM163.25 20.89C162.266 20.3083 161.143 20.0014 160 20.0014C158.857 20.0014 157.734 20.3083 156.75 20.89C156.571 20.9838 156.412 21.1128 156.284 21.2694C156.156 21.426 156.061 21.6069 156.005 21.8012C155.948 21.9955 155.932 22.1992 155.956 22.4C155.981 22.6008 156.045 22.7946 156.147 22.9698C156.248 23.1449 156.384 23.2978 156.545 23.4192C156.707 23.5405 156.892 23.6279 157.088 23.6761C157.285 23.7242 157.489 23.7321 157.689 23.6992C157.888 23.6664 158.079 23.5935 158.25 23.485C158.778 23.1668 159.383 22.9986 160 22.9986C160.617 22.9986 161.222 23.1668 161.75 23.485C161.921 23.5935 162.112 23.6664 162.311 23.6992C162.511 23.7321 162.715 23.7242 162.912 23.6761C163.108 23.6279 163.293 23.5405 163.455 23.4192C163.617 23.2978 163.752 23.1449 163.853 22.9698C163.955 22.7946 164.019 22.6008 164.044 22.4C164.068 22.1992 164.052 21.9955 163.995 21.8012C163.939 21.6069 163.844 21.426 163.716 21.2694C163.588 21.1128 163.429 20.9838 163.25 20.89Z" fill="currentColor"/>
<path d="M208 3C205.429 3 202.915 3.76244 200.778 5.1909C198.64 6.61935 196.974 8.64968 195.99 11.0251C195.006 13.4006 194.748 16.0144 195.25 18.5362C195.751 21.0579 196.99 23.3743 198.808 25.1924C200.626 27.0105 202.942 28.2486 205.464 28.7502C207.986 29.2518 210.599 28.9944 212.975 28.0104C215.35 27.0265 217.381 25.3603 218.809 23.2224C220.238 21.0846 221 18.5712 221 16C220.996 12.5533 219.626 9.24882 217.188 6.81163C214.751 4.37445 211.447 3.00364 208 3ZM202 17.5C202 17.2033 202.088 16.9133 202.253 16.6666C202.418 16.42 202.652 16.2277 202.926 16.1142C203.2 16.0007 203.502 15.9709 203.793 16.0288C204.084 16.0867 204.351 16.2296 204.561 16.4393C204.77 16.6491 204.913 16.9164 204.971 17.2074C205.029 17.4983 204.999 17.7999 204.886 18.074C204.772 18.3481 204.58 18.5824 204.333 18.7472C204.087 18.912 203.797 19 203.5 19C203.102 19 202.721 18.842 202.439 18.5607C202.158 18.2794 202 17.8978 202 17.5ZM211.833 23.5537C211.686 23.7745 211.457 23.9279 211.197 23.9802C210.937 24.0324 210.667 23.9793 210.446 23.8325C209.634 23.2925 209 23 208 23C207 23 206.366 23.2925 205.554 23.8325C205.333 23.9739 205.065 24.0229 204.809 23.969C204.552 23.915 204.327 23.7625 204.182 23.5442C204.037 23.3259 203.983 23.0593 204.032 22.8018C204.082 22.5443 204.231 22.3165 204.446 22.1675C205.5 21.4662 206.508 21 208 21C209.493 21 210.5 21.4662 211.554 22.1675C211.775 22.3144 211.928 22.5429 211.98 22.8029C212.032 23.0629 211.979 23.3329 211.833 23.5537ZM212.5 19C212.203 19 211.913 18.912 211.667 18.7472C211.42 18.5824 211.228 18.3481 211.114 18.074C211.001 17.7999 210.971 17.4983 211.029 17.2074C211.087 16.9164 211.23 16.6491 211.439 16.4393C211.649 16.2296 211.916 16.0867 212.207 16.0288C212.498 15.9709 212.8 16.0007 213.074 16.1142C213.348 16.2277 213.582 16.42 213.747 16.6666C213.912 16.9133 214 17.2033 214 17.5C214 17.8978 213.842 18.2794 213.561 18.5607C213.279 18.842 212.898 19 212.5 19ZM214.555 11.8325L208.555 15.8325C208.391 15.9421 208.198 16.0007 208 16.0007C207.802 16.0007 207.609 15.9421 207.445 15.8325L201.445 11.8325C201.336 11.7596 201.242 11.6659 201.169 11.5567C201.096 11.4476 201.045 11.3251 201.019 11.1962C200.993 11.0674 200.993 10.9347 201.018 10.8058C201.044 10.6769 201.095 10.5543 201.168 10.445C201.315 10.2242 201.544 10.0709 201.804 10.0189C201.933 9.99312 202.065 9.99298 202.194 10.0185C202.323 10.044 202.446 10.0946 202.555 10.1675L208 13.7987L213.445 10.1737C213.554 10.1009 213.677 10.0502 213.806 10.0247C213.935 9.99923 214.067 9.99937 214.196 10.0251C214.325 10.0509 214.448 10.1018 214.557 10.1749C214.666 10.248 214.76 10.3419 214.833 10.4513C214.905 10.5606 214.956 10.6832 214.982 10.8121C215.007 10.941 215.007 11.0736 214.981 11.2025C214.955 11.3313 214.904 11.4538 214.831 11.563C214.758 11.6722 214.664 11.7659 214.555 11.8387V11.8325Z" fill="currentColor"/>
<path opacity="0.2" d="M268 16C268 18.3734 267.296 20.6935 265.978 22.6668C264.659 24.6402 262.785 26.1783 260.592 27.0866C258.399 27.9948 255.987 28.2324 253.659 27.7694C251.331 27.3064 249.193 26.1635 247.515 24.4853C245.836 22.8071 244.694 20.6689 244.231 18.3411C243.768 16.0133 244.005 13.6005 244.913 11.4078C245.822 9.21509 247.36 7.34094 249.333 6.02236C251.307 4.70379 253.627 4 256 4C259.183 4 262.235 5.26428 264.485 7.51472C266.736 9.76515 268 12.8174 268 16Z" fill="currentColor"/>
<path d="M251.5 19C251.203 19 250.913 18.912 250.667 18.7472C250.42 18.5824 250.228 18.3481 250.114 18.074C250.001 17.7999 249.971 17.4983 250.029 17.2074C250.087 16.9164 250.23 16.6491 250.439 16.4393C250.649 16.2296 250.916 16.0867 251.207 16.0288C251.498 15.9709 251.8 16.0007 252.074 16.1142C252.348 16.2277 252.582 16.42 252.747 16.6666C252.912 16.9133 253 17.2033 253 17.5C253 17.8978 252.842 18.2794 252.561 18.5607C252.279 18.842 251.898 19 251.5 19ZM260.5 16C260.203 16 259.913 16.088 259.667 16.2528C259.42 16.4176 259.228 16.6519 259.114 16.926C259.001 17.2001 258.971 17.5017 259.029 17.7926C259.087 18.0836 259.23 18.3509 259.439 18.5607C259.649 18.7704 259.916 18.9133 260.207 18.9712C260.498 19.0291 260.8 18.9993 261.074 18.8858C261.348 18.7723 261.582 18.58 261.747 18.3334C261.912 18.0867 262 17.7967 262 17.5C262 17.1022 261.842 16.7206 261.561 16.4393C261.279 16.158 260.898 16 260.5 16ZM269 16C269 18.5712 268.238 21.0846 266.809 23.2224C265.381 25.3603 263.35 27.0265 260.975 28.0104C258.599 28.9944 255.986 29.2518 253.464 28.7502C250.942 28.2486 248.626 27.0105 246.808 25.1924C244.99 23.3743 243.751 21.0579 243.25 18.5362C242.748 16.0144 243.006 13.4006 243.99 11.0251C244.974 8.64968 246.64 6.61935 248.778 5.1909C250.915 3.76244 253.429 3 256 3C259.447 3.00364 262.751 4.37445 265.188 6.81163C267.626 9.24882 268.996 12.5533 269 16ZM267 16C267 13.8244 266.355 11.6977 265.146 9.88873C263.937 8.07979 262.22 6.66989 260.21 5.83733C258.2 5.00476 255.988 4.78692 253.854 5.21136C251.72 5.6358 249.76 6.68345 248.222 8.22183C246.683 9.7602 245.636 11.7202 245.211 13.854C244.787 15.9878 245.005 18.1995 245.837 20.2095C246.67 22.2195 248.08 23.9375 249.889 25.1462C251.698 26.3549 253.824 27 256 27C258.916 26.9967 261.712 25.8367 263.775 23.7745C265.837 21.7123 266.997 18.9164 267 16ZM261.445 10.1675L256 13.7987L250.555 10.1737C250.334 10.0266 250.064 9.9731 249.804 10.0251C249.544 10.0772 249.315 10.2305 249.168 10.4513C249.02 10.672 248.967 10.9423 249.019 11.2025C249.071 11.4627 249.224 11.6916 249.445 11.8387L255.445 15.8387C255.609 15.9484 255.802 16.0069 256 16.0069C256.198 16.0069 256.391 15.9484 256.555 15.8387L262.555 11.8387C262.776 11.6916 262.929 11.4627 262.981 11.2025C263.033 10.9423 262.98 10.672 262.833 10.4513C262.685 10.2305 262.456 10.0772 262.196 10.0251C261.936 9.9731 261.666 10.0266 261.445 10.1737V10.1675ZM259.554 22.1675C258.5 21.4662 257.493 21 256 21C254.508 21 253.5 21.4662 252.446 22.1675C252.231 22.3165 252.082 22.5443 252.032 22.8018C251.983 23.0593 252.037 23.3259 252.182 23.5442C252.327 23.7625 252.552 23.915 252.809 23.969C253.065 24.0229 253.333 23.9739 253.554 23.8325C254.366 23.2925 255 23 256 23C257 23 257.634 23.2925 258.446 23.8325C258.556 23.908 258.679 23.9609 258.809 23.9882C258.939 24.0156 259.073 24.0168 259.203 23.9917C259.334 23.9667 259.458 23.9159 259.568 23.8424C259.679 23.7689 259.774 23.6741 259.847 23.5635C259.921 23.4529 259.971 23.3288 259.997 23.1984C260.022 23.068 260.02 22.9339 259.993 22.804C259.966 22.674 259.913 22.5508 259.837 22.4415C259.762 22.3323 259.666 22.2391 259.554 22.1675Z" fill="currentColor"/>
</g>
<defs>
<clipPath id="clip0_17_4459">
<rect width="272" height="32" rx="5" fill="white"/>
</clipPath>
</defs>
</svg>
