<svg width="272" height="32" viewBox="0 0 272 32" fill="none" xmlns="http://www.w3.org/2000/svg">
<g clip-path="url(#clip0_17_4207)">
<path d="M27 5H5C4.46957 5 3.96086 5.21071 3.58579 5.58579C3.21071 5.96086 3 6.46957 3 7V25C3 25.5304 3.21071 26.0391 3.58579 26.4142C3.96086 26.7893 4.46957 27 5 27H27C27.5304 27 28.0391 26.7893 28.4142 26.4142C28.7893 26.0391 29 25.5304 29 25V7C29 6.46957 28.7893 5.96086 28.4142 5.58579C28.0391 5.21071 27.5304 5 27 5ZM12 15C12 14.2089 12.2346 13.4355 12.6741 12.7777C13.1136 12.1199 13.7384 11.6072 14.4693 11.3045C15.2002 11.0017 16.0044 10.9225 16.7804 11.0769C17.5563 11.2312 18.269 11.6122 18.8284 12.1716C19.3878 12.731 19.7688 13.4437 19.9231 14.2196C20.0775 14.9956 19.9983 15.7998 19.6955 16.5307C19.3928 17.2616 18.8801 17.8864 18.2223 18.3259C17.5645 18.7654 16.7911 19 16 19C14.9391 19 13.9217 18.5786 13.1716 17.8284C12.4214 17.0783 12 16.0609 12 15ZM9.07125 25C9.77332 23.7836 10.7833 22.7734 11.9995 22.0711C13.2158 21.3688 14.5955 20.9991 16 20.9991C17.4045 20.9991 18.7842 21.3688 20.0005 22.0711C21.2167 22.7734 22.2267 23.7836 22.9287 25H9.07125ZM27 25H25.1663C24.1107 22.5894 22.1489 20.6909 19.705 19.715C20.6866 18.9444 21.4035 17.8868 21.7559 16.6896C22.1082 15.4924 22.0785 14.2151 21.6708 13.0355C21.2631 11.856 20.4978 10.833 19.4814 10.1088C18.4649 9.38473 17.248 8.99557 16 8.99557C14.752 8.99557 13.5351 9.38473 12.5186 10.1088C11.5022 10.833 10.7369 11.856 10.3292 13.0355C9.92149 14.2151 9.89175 15.4924 10.2441 16.6896C10.5965 17.8868 11.3134 18.9444 12.295 19.715C9.85107 20.6909 7.88932 22.5894 6.83375 25H5V7H27V25Z" fill="currentColor"/>
<path d="M75 5.5H53C52.6022 5.5 52.2206 5.65804 51.9393 5.93934C51.658 6.22064 51.5 6.60218 51.5 7V25C51.5 25.3978 51.658 25.7794 51.9393 26.0607C52.2206 26.342 52.6022 26.5 53 26.5H75C75.3978 26.5 75.7794 26.342 76.0607 26.0607C76.342 25.7794 76.5 25.3978 76.5 25V7C76.5 6.60218 76.342 6.22064 76.0607 5.93934C75.7794 5.65804 75.3978 5.5 75 5.5ZM56.25 25.5C56.9223 24.0075 58.0113 22.7408 59.3861 21.8523C60.7609 20.9637 62.363 20.4911 64 20.4911C65.637 20.4911 67.2391 20.9637 68.6139 21.8523C69.9887 22.7408 71.0777 24.0075 71.75 25.5H56.25ZM75.5 25C75.5 25.1326 75.4473 25.2598 75.3536 25.3536C75.2598 25.4473 75.1326 25.5 75 25.5H72.8337C72.2936 24.1424 71.4482 22.9273 70.3631 21.9489C69.278 20.9704 67.9823 20.2548 66.5763 19.8575C67.661 19.2824 68.5221 18.3609 69.0225 17.2398C69.5229 16.1186 69.6337 14.8623 69.3374 13.6708C69.0411 12.4794 68.3547 11.4213 67.3874 10.6651C66.4202 9.90898 65.2277 9.49819 64 9.49819C62.7723 9.49819 61.5798 9.90898 60.6126 10.6651C59.6453 11.4213 58.9589 12.4794 58.6626 13.6708C58.3663 14.8623 58.4771 16.1186 58.9775 17.2398C59.4779 18.3609 60.339 19.2824 61.4237 19.8575C60.0177 20.2548 58.722 20.9704 57.6369 21.9489C56.5518 22.9273 55.7064 24.1424 55.1663 25.5H53C52.8674 25.5 52.7402 25.4473 52.6464 25.3536C52.5527 25.2598 52.5 25.1326 52.5 25V7C52.5 6.86739 52.5527 6.74021 52.6464 6.64645C52.7402 6.55268 52.8674 6.5 53 6.5H75C75.1326 6.5 75.2598 6.55268 75.3536 6.64645C75.4473 6.74021 75.5 6.86739 75.5 7V25ZM64 19.5C63.11 19.5 62.24 19.2361 61.4999 18.7416C60.7599 18.2471 60.1831 17.5443 59.8425 16.7221C59.5019 15.8998 59.4128 14.995 59.5865 14.1221C59.7601 13.2492 60.1887 12.4474 60.818 11.818C61.4474 11.1887 62.2492 10.7601 63.1221 10.5865C63.995 10.4128 64.8998 10.5019 65.7221 10.8425C66.5443 11.1831 67.2471 11.7599 67.7416 12.4999C68.2361 13.24 68.5 14.11 68.5 15C68.5 16.1935 68.0259 17.3381 67.182 18.182C66.3381 19.0259 65.1935 19.5 64 19.5Z" fill="currentColor"/>
<path d="M123 5.25H101C100.536 5.25 100.091 5.43437 99.7626 5.76256C99.4344 6.09075 99.25 6.53587 99.25 7V25C99.25 25.4641 99.4344 25.9092 99.7626 26.2374C100.091 26.5656 100.536 26.75 101 26.75H123C123.464 26.75 123.909 26.5656 124.237 26.2374C124.566 25.9092 124.75 25.4641 124.75 25V7C124.75 6.53587 124.566 6.09075 124.237 5.76256C123.909 5.43437 123.464 5.25 123 5.25ZM107.75 15C107.75 14.1594 107.999 13.3377 108.466 12.6388C108.933 11.9399 109.597 11.3952 110.374 11.0735C111.15 10.7518 112.005 10.6677 112.829 10.8317C113.654 10.9956 114.411 11.4004 115.005 11.9948C115.6 12.5892 116.004 13.3464 116.168 14.1709C116.332 14.9953 116.248 15.8498 115.926 16.6264C115.605 17.403 115.06 18.0668 114.361 18.5337C113.662 19.0007 112.841 19.25 112 19.25C110.873 19.25 109.792 18.8022 108.995 18.0052C108.198 17.2082 107.75 16.1272 107.75 15ZM104.651 25.25C105.342 23.8954 106.394 22.7582 107.691 21.964C108.988 21.1698 110.479 20.7495 112 20.7495C113.521 20.7495 115.012 21.1698 116.309 21.964C117.606 22.7582 118.658 23.8954 119.349 25.25H104.651ZM123.25 25C123.25 25.0663 123.224 25.1299 123.177 25.1768C123.13 25.2237 123.066 25.25 123 25.25H121C120.469 23.9811 119.677 22.8385 118.674 21.897C117.671 20.9555 116.481 20.2362 115.181 19.7862C116.21 19.103 116.991 18.1067 117.41 16.9448C117.828 15.783 117.862 14.5172 117.505 13.335C117.148 12.1527 116.42 11.1167 115.428 10.3804C114.437 9.64405 113.235 9.24645 112 9.24645C110.765 9.24645 109.563 9.64405 108.572 10.3804C107.58 11.1167 106.852 12.1527 106.495 13.335C106.138 14.5172 106.172 15.783 106.59 16.9448C107.009 18.1067 107.79 19.103 108.819 19.7862C107.519 20.2362 106.329 20.9555 105.326 21.897C104.323 22.8385 103.531 23.9811 103 25.25H101C100.934 25.25 100.87 25.2237 100.823 25.1768C100.776 25.1299 100.75 25.0663 100.75 25V7C100.75 6.9337 100.776 6.87011 100.823 6.82322C100.87 6.77634 100.934 6.75 101 6.75H123C123.066 6.75 123.13 6.77634 123.177 6.82322C123.224 6.87011 123.25 6.9337 123.25 7V25Z" fill="currentColor"/>
<path d="M171 4.5H149C148.337 4.5 147.701 4.76339 147.232 5.23223C146.763 5.70107 146.5 6.33696 146.5 7V25C146.5 25.663 146.763 26.2989 147.232 26.7678C147.701 27.2366 148.337 27.5 149 27.5H171C171.663 27.5 172.299 27.2366 172.768 26.7678C173.237 26.2989 173.5 25.663 173.5 25V7C173.5 6.33696 173.237 5.70107 172.768 5.23223C172.299 4.76339 171.663 4.5 171 4.5ZM156.5 16C156.5 15.3078 156.705 14.6311 157.09 14.0555C157.474 13.4799 158.021 13.0313 158.661 12.7664C159.3 12.5015 160.004 12.4322 160.683 12.5673C161.362 12.7023 161.985 13.0356 162.475 13.5251C162.964 14.0146 163.298 14.6383 163.433 15.3172C163.568 15.9961 163.498 16.6999 163.234 17.3394C162.969 17.9789 162.52 18.5256 161.944 18.9101C161.369 19.2947 160.692 19.5 160 19.5C159.072 19.5 158.182 19.1313 157.525 18.4749C156.869 17.8185 156.5 16.9283 156.5 16ZM160 22.5C161.894 22.4939 163.72 23.209 165.106 24.5H154.894C156.28 23.209 158.106 22.4939 160 22.5ZM170.5 24.5H168.945C167.91 22.8027 166.411 21.4365 164.625 20.5625C165.526 19.6502 166.137 18.4919 166.381 17.2333C166.625 15.9747 166.492 14.6719 165.997 13.489C165.503 12.306 164.67 11.2957 163.603 10.5851C162.536 9.87445 161.282 9.49529 160 9.49529C158.718 9.49529 157.464 9.87445 156.397 10.5851C155.33 11.2957 154.497 12.306 154.003 13.489C153.508 14.6719 153.375 15.9747 153.619 17.2333C153.863 18.4919 154.474 19.6502 155.375 20.5625C153.589 21.4365 152.09 22.8027 151.055 24.5H149.5V7.5H170.5V24.5Z" fill="currentColor"/>
<path d="M213.5 15C213.5 16.0878 213.177 17.1512 212.573 18.0556C211.969 18.9601 211.11 19.6651 210.105 20.0813C209.1 20.4976 207.994 20.6065 206.927 20.3943C205.86 20.1821 204.88 19.6583 204.111 18.8891C203.342 18.1199 202.818 17.1399 202.606 16.073C202.393 15.0061 202.502 13.9002 202.919 12.8952C203.335 11.8902 204.04 11.0313 204.944 10.4269C205.849 9.82257 206.912 9.5 208 9.5C209.459 9.5 210.858 10.0795 211.889 11.1109C212.921 12.1424 213.5 13.5413 213.5 15ZM221 7V25C221 25.5304 220.789 26.0391 220.414 26.4142C220.039 26.7893 219.53 27 219 27H197C196.47 27 195.961 26.7893 195.586 26.4142C195.211 26.0391 195 25.5304 195 25V7C195 6.46957 195.211 5.96086 195.586 5.58579C195.961 5.21071 196.47 5 197 5H219C219.53 5 220.039 5.21071 220.414 5.58579C220.789 5.96086 221 6.46957 221 7ZM219 25V7H197V25H198.835C199.612 23.2225 200.889 21.7094 202.511 20.645C202.602 20.5846 202.711 20.5557 202.82 20.5627C202.929 20.5697 203.032 20.6122 203.115 20.6838C204.473 21.8554 206.207 22.5 208 22.5C209.793 22.5 211.527 21.8554 212.885 20.6838C212.968 20.6122 213.071 20.5697 213.18 20.5627C213.289 20.5557 213.398 20.5846 213.489 20.645C215.111 21.7094 216.388 23.2225 217.165 25H219Z" fill="currentColor"/>
<path opacity="0.2" d="M268 7V25C268 25.2652 267.895 25.5196 267.707 25.7071C267.52 25.8946 267.265 26 267 26H264.487C263.867 24.2449 262.718 22.7255 261.197 21.6509C259.677 20.5763 257.862 19.9995 256 20C256.989 20 257.956 19.7068 258.778 19.1573C259.6 18.6079 260.241 17.827 260.619 16.9134C260.998 15.9998 261.097 14.9945 260.904 14.0245C260.711 13.0546 260.235 12.1637 259.536 11.4645C258.836 10.7652 257.945 10.289 256.975 10.0961C256.006 9.90315 255 10.0022 254.087 10.3806C253.173 10.759 252.392 11.3999 251.843 12.2221C251.293 13.0444 251 14.0111 251 15C251 16.3261 251.527 17.5979 252.464 18.5355C253.402 19.4732 254.674 20 256 20C254.138 19.9995 252.323 20.5763 250.803 21.6509C249.282 22.7255 248.133 24.2449 247.512 26H245C244.735 26 244.48 25.8946 244.293 25.7071C244.105 25.5196 244 25.2652 244 25V7C244 6.73478 244.105 6.48043 244.293 6.29289C244.48 6.10536 244.735 6 245 6H267C267.265 6 267.52 6.10536 267.707 6.29289C267.895 6.48043 268 6.73478 268 7Z" fill="currentColor"/>
<path d="M267 5H245C244.47 5 243.961 5.21071 243.586 5.58579C243.211 5.96086 243 6.46957 243 7V25C243 25.5304 243.211 26.0391 243.586 26.4142C243.961 26.7893 244.47 27 245 27H267C267.53 27 268.039 26.7893 268.414 26.4142C268.789 26.0391 269 25.5304 269 25V7C269 6.46957 268.789 5.96086 268.414 5.58579C268.039 5.21071 267.53 5 267 5ZM252 15C252 14.2089 252.235 13.4355 252.674 12.7777C253.114 12.1199 253.738 11.6072 254.469 11.3045C255.2 11.0017 256.004 10.9225 256.78 11.0769C257.556 11.2312 258.269 11.6122 258.828 12.1716C259.388 12.731 259.769 13.4437 259.923 14.2196C260.077 14.9956 259.998 15.7998 259.696 16.5307C259.393 17.2616 258.88 17.8864 258.222 18.3259C257.564 18.7654 256.791 19 256 19C254.939 19 253.922 18.5786 253.172 17.8284C252.421 17.0783 252 16.0609 252 15ZM249.071 25C249.773 23.7836 250.783 22.7734 252 22.0711C253.216 21.3688 254.596 20.9991 256 20.9991C257.404 20.9991 258.784 21.3688 260 22.0711C261.217 22.7734 262.227 23.7836 262.929 25H249.071ZM267 25H265.166C264.111 22.5894 262.149 20.6909 259.705 19.715C260.687 18.9444 261.404 17.8868 261.756 16.6896C262.108 15.4924 262.079 14.2151 261.671 13.0355C261.263 11.856 260.498 10.833 259.481 10.1088C258.465 9.38473 257.248 8.99557 256 8.99557C254.752 8.99557 253.535 9.38473 252.519 10.1088C251.502 10.833 250.737 11.856 250.329 13.0355C249.921 14.2151 249.892 15.4924 250.244 16.6896C250.596 17.8868 251.313 18.9444 252.295 19.715C249.851 20.6909 247.889 22.5894 246.834 25H245V7H267V25Z" fill="currentColor"/>
</g>
<defs>
<clipPath id="clip0_17_4207">
<rect width="272" height="32" rx="5" fill="white"/>
</clipPath>
</defs>
</svg>
