<svg width="272" height="32" viewBox="0 0 272 32" fill="none" xmlns="http://www.w3.org/2000/svg">
<g clip-path="url(#clip0_17_4333)">
<path d="M16 3C13.4288 3 10.9154 3.76244 8.77759 5.1909C6.63975 6.61935 4.97351 8.64968 3.98957 11.0251C3.00563 13.4006 2.74819 16.0144 3.2498 18.5362C3.75141 21.0579 4.98953 23.3743 6.80762 25.1924C8.6257 27.0105 10.9421 28.2486 13.4638 28.7502C15.9856 29.2518 18.5995 28.9944 20.9749 28.0104C23.3503 27.0265 25.3807 25.3603 26.8091 23.2224C28.2376 21.0846 29 18.5712 29 16C28.9964 12.5533 27.6256 9.24882 25.1884 6.81163C22.7512 4.37445 19.4467 3.00364 16 3ZM9.26001 24.6875C9.98342 23.5561 10.98 22.625 12.1579 21.9801C13.3358 21.3351 14.6571 20.9971 16 20.9971C17.3429 20.9971 18.6642 21.3351 19.8421 21.9801C21.02 22.625 22.0166 23.5561 22.74 24.6875C20.8129 26.1862 18.4413 26.9999 16 26.9999C13.5587 26.9999 11.1871 26.1862 9.26001 24.6875ZM12 15C12 14.2089 12.2346 13.4355 12.6741 12.7777C13.1137 12.1199 13.7384 11.6072 14.4693 11.3045C15.2002 11.0017 16.0044 10.9225 16.7804 11.0769C17.5563 11.2312 18.269 11.6122 18.8284 12.1716C19.3878 12.731 19.7688 13.4437 19.9231 14.2196C20.0775 14.9956 19.9983 15.7998 19.6955 16.5307C19.3928 17.2616 18.8801 17.8864 18.2223 18.3259C17.5645 18.7654 16.7911 19 16 19C14.9391 19 13.9217 18.5786 13.1716 17.8284C12.4214 17.0783 12 16.0609 12 15ZM24.22 23.3013C23.1047 21.6851 21.5365 20.4348 19.7125 19.7075C20.6923 18.9358 21.4072 17.878 21.7579 16.6811C22.1086 15.4843 22.0776 14.2079 21.6693 13.0294C21.2609 11.851 20.4955 10.8291 19.4794 10.1059C18.4634 9.38262 17.2472 8.99397 16 8.99397C14.7528 8.99397 13.5366 9.38262 12.5206 10.1059C11.5045 10.8291 10.7391 11.851 10.3307 13.0294C9.92238 14.2079 9.8914 15.4843 10.2421 16.6811C10.5928 17.878 11.3077 18.9358 12.2875 19.7075C10.4635 20.4348 8.89529 21.6851 7.78001 23.3013C6.37072 21.7165 5.4496 19.7581 5.12756 17.6619C4.80553 15.5657 5.09631 13.4211 5.9649 11.4864C6.83349 9.55163 8.24285 7.90922 10.0233 6.75692C11.8037 5.60462 13.8792 4.99156 16 4.99156C18.1208 4.99156 20.1963 5.60462 21.9768 6.75692C23.7572 7.90922 25.1665 9.55163 26.0351 11.4864C26.9037 13.4211 27.1945 15.5657 26.8724 17.6619C26.5504 19.7581 25.6293 21.7165 24.22 23.3013Z" fill="currentColor"/>
<path d="M64 3.5C61.5277 3.5 59.111 4.23311 57.0554 5.60663C54.9998 6.98015 53.3976 8.93238 52.4515 11.2165C51.5054 13.5005 51.2579 16.0139 51.7402 18.4386C52.2225 20.8634 53.413 23.0907 55.1612 24.8388C56.9093 26.587 59.1366 27.7775 61.5614 28.2598C63.9861 28.7421 66.4995 28.4946 68.7835 27.5485C71.0676 26.6024 73.0199 25.0002 74.3934 22.9446C75.7669 20.889 76.5 18.4723 76.5 16C76.4964 12.6859 75.1782 9.5086 72.8348 7.16518C70.4914 4.82177 67.3141 3.50364 64 3.5ZM56.6088 24.8025C57.3506 23.4962 58.4255 22.4098 59.7239 21.654C61.0222 20.8982 62.4977 20.5 64 20.5C65.5023 20.5 66.9778 20.8982 68.2761 21.654C69.5745 22.4098 70.6494 23.4962 71.3913 24.8025C69.3224 26.5446 66.7047 27.5 64 27.5C61.2954 27.5 58.6776 26.5446 56.6088 24.8025ZM72.1463 24.1087C70.9041 22.0321 68.9128 20.5109 66.5825 19.8587C67.666 19.2826 68.5256 18.3606 69.0246 17.2395C69.5237 16.1184 69.6335 14.8626 69.3366 13.672C69.0397 12.4813 68.3531 11.4241 67.3861 10.6686C66.419 9.91314 65.2271 9.50275 64 9.50275C62.7729 9.50275 61.581 9.91314 60.614 10.6686C59.6469 11.4241 58.9604 12.4813 58.6634 13.672C58.3665 14.8626 58.4763 16.1184 58.9754 17.2395C59.4744 18.3606 60.3341 19.2826 61.4175 19.8587C59.0872 20.5109 57.0959 22.0321 55.8538 24.1087C54.2496 22.4988 53.1584 20.4496 52.718 18.22C52.2776 15.9903 52.5077 13.6802 53.3793 11.5812C54.2509 9.48226 55.7249 7.68863 57.6152 6.42682C59.5055 5.165 61.7273 4.49157 64 4.49157C66.2727 4.49157 68.4945 5.165 70.3848 6.42682C72.2751 7.68863 73.7491 9.48226 74.6207 11.5812C75.4923 13.6802 75.7224 15.9903 75.282 18.22C74.8416 20.4496 73.7504 22.4988 72.1463 24.1087ZM64 19.5C63.11 19.5 62.24 19.2361 61.4999 18.7416C60.7599 18.2471 60.1831 17.5443 59.8425 16.7221C59.502 15.8998 59.4128 14.995 59.5865 14.1221C59.7601 13.2492 60.1887 12.4474 60.818 11.818C61.4474 11.1887 62.2492 10.7601 63.1221 10.5865C63.995 10.4128 64.8998 10.5019 65.7221 10.8425C66.5443 11.1831 67.2472 11.7599 67.7416 12.4999C68.2361 13.24 68.5 14.11 68.5 15C68.5 16.1935 68.0259 17.3381 67.182 18.182C66.3381 19.0259 65.1935 19.5 64 19.5Z" fill="currentColor"/>
<path d="M112 3.25C109.478 3.25 107.013 3.99777 104.916 5.39876C102.82 6.79975 101.186 8.79103 100.221 11.1208C99.2555 13.4505 99.003 16.0141 99.495 18.4874C99.987 20.9607 101.201 23.2325 102.984 25.0156C104.768 26.7987 107.039 28.0131 109.513 28.505C111.986 28.997 114.549 28.7445 116.879 27.7795C119.209 26.8144 121.2 25.1802 122.601 23.0835C124.002 20.9868 124.75 18.5217 124.75 16C124.746 12.6197 123.401 9.379 121.011 6.98877C118.621 4.59854 115.38 3.25397 112 3.25ZM104.93 24.75C105.663 23.5303 106.7 22.5212 107.939 21.8206C109.178 21.12 110.577 20.7518 112 20.7518C113.423 20.7518 114.822 21.12 116.061 21.8206C117.3 22.5212 118.337 23.5303 119.07 24.75C117.07 26.3714 114.574 27.2563 112 27.2563C109.426 27.2563 106.93 26.3714 104.93 24.75ZM107.75 15C107.75 14.1594 107.999 13.3377 108.466 12.6388C108.933 11.9399 109.597 11.3952 110.374 11.0735C111.15 10.7518 112.005 10.6677 112.829 10.8317C113.654 10.9956 114.411 11.4004 115.005 11.9948C115.6 12.5892 116.004 13.3464 116.168 14.1709C116.332 14.9953 116.248 15.8498 115.926 16.6264C115.605 17.403 115.06 18.0668 114.361 18.5337C113.662 19.0007 112.841 19.25 112 19.25C110.873 19.25 109.792 18.8022 108.995 18.0052C108.198 17.2082 107.75 16.1272 107.75 15ZM120.189 23.705C119.01 21.8727 117.249 20.4908 115.189 19.7825C116.216 19.0983 116.996 18.1016 117.413 16.9399C117.83 15.7783 117.862 14.5132 117.505 13.3318C117.147 12.1504 116.419 11.1153 115.428 10.3797C114.437 9.64404 113.236 9.24686 112.001 9.24686C110.767 9.24686 109.565 9.64404 108.574 10.3797C107.583 11.1153 106.855 12.1504 106.498 13.3318C106.14 14.5132 106.172 15.7783 106.59 16.9399C107.007 18.1016 107.786 19.0983 108.814 19.7825C106.754 20.4908 104.992 21.8727 103.814 23.705C102.307 22.1064 101.302 20.1017 100.921 17.9382C100.541 15.7748 100.802 13.5474 101.673 11.5307C102.543 9.51396 103.985 7.79624 105.821 6.58946C107.656 5.38267 109.805 4.7396 112.001 4.7396C114.198 4.7396 116.346 5.38267 118.182 6.58946C120.017 7.79624 121.459 9.51396 122.33 11.5307C123.201 13.5474 123.462 15.7748 123.081 17.9382C122.701 20.1017 121.695 22.1064 120.189 23.705Z" fill="currentColor"/>
<path d="M160 2.5C157.33 2.5 154.72 3.29176 152.5 4.77516C150.28 6.25856 148.549 8.36697 147.528 10.8338C146.506 13.3006 146.239 16.015 146.759 18.6337C147.28 21.2525 148.566 23.6579 150.454 25.5459C152.342 27.434 154.748 28.7197 157.366 29.2406C159.985 29.7615 162.699 29.4942 165.166 28.4724C167.633 27.4506 169.741 25.7203 171.225 23.5002C172.708 21.2801 173.5 18.67 173.5 16C173.496 12.4208 172.072 8.98932 169.542 6.45844C167.011 3.92756 163.579 2.50397 160 2.5ZM153.946 24.5713C154.643 23.6191 155.554 22.8447 156.606 22.3108C157.657 21.7769 158.82 21.4987 160 21.4987C161.18 21.4987 162.343 21.7769 163.394 22.3108C164.446 22.8447 165.357 23.6191 166.054 24.5713C164.284 25.826 162.169 26.5 160 26.5C157.831 26.5 155.716 25.826 153.946 24.5713ZM156.5 15C156.5 14.3078 156.705 13.6311 157.09 13.0555C157.474 12.4799 158.021 12.0313 158.661 11.7664C159.3 11.5015 160.004 11.4322 160.683 11.5673C161.362 11.7023 161.985 12.0356 162.475 12.5251C162.964 13.0146 163.298 13.6383 163.433 14.3172C163.568 14.9961 163.498 15.6999 163.234 16.3394C162.969 16.9789 162.52 17.5256 161.945 17.9101C161.369 18.2947 160.692 18.5 160 18.5C159.072 18.5 158.182 18.1313 157.525 17.4749C156.869 16.8185 156.5 15.9283 156.5 15ZM168.25 22.4925C167.278 21.2559 166.039 20.2551 164.625 19.565C165.526 18.6527 166.137 17.4944 166.381 16.2358C166.625 14.9772 166.492 13.6744 165.997 12.4915C165.503 11.3085 164.67 10.2982 163.603 9.58757C162.536 8.87695 161.282 8.49779 160 8.49779C158.718 8.49779 157.464 8.87695 156.397 9.58757C155.33 10.2982 154.497 11.3085 154.003 12.4915C153.508 13.6744 153.375 14.9772 153.619 16.2358C153.863 17.4944 154.474 18.6527 155.375 19.565C153.961 20.2551 152.722 21.2559 151.75 22.4925C150.529 20.9444 149.768 19.0838 149.555 17.1236C149.342 15.1634 149.685 13.1828 150.546 11.4086C151.406 9.63437 152.748 8.13822 154.419 7.09139C156.09 6.04457 158.022 5.48938 159.994 5.48938C161.966 5.48938 163.897 6.04457 165.568 7.09139C167.239 8.13822 168.582 9.63437 169.442 11.4086C170.302 13.1828 170.645 15.1634 170.432 17.1236C170.219 19.0838 169.459 20.9444 168.238 22.4925H168.25Z" fill="currentColor"/>
<path d="M213.5 15C213.5 16.0878 213.177 17.1512 212.573 18.0556C211.969 18.9601 211.11 19.6651 210.105 20.0813C209.1 20.4976 207.994 20.6065 206.927 20.3943C205.86 20.1821 204.88 19.6583 204.111 18.8891C203.342 18.1199 202.818 17.1399 202.606 16.073C202.393 15.0061 202.502 13.9002 202.919 12.8952C203.335 11.8902 204.04 11.0313 204.944 10.4269C205.849 9.82257 206.912 9.5 208 9.5C209.458 9.50165 210.856 10.0816 211.887 11.1127C212.918 12.1438 213.498 13.5418 213.5 15ZM221 16C221 18.5712 220.238 21.0846 218.809 23.2224C217.381 25.3603 215.35 27.0265 212.975 28.0104C210.599 28.9944 207.986 29.2518 205.464 28.7502C202.942 28.2486 200.626 27.0105 198.808 25.1924C196.99 23.3743 195.751 21.0579 195.25 18.5362C194.748 16.0144 195.006 13.4006 195.99 11.0251C196.974 8.64968 198.64 6.61935 200.778 5.1909C202.915 3.76244 205.429 3 208 3C211.447 3.00364 214.751 4.37445 217.188 6.81163C219.626 9.24882 220.996 12.5533 221 16ZM219 16C218.998 14.5194 218.698 13.0544 218.117 11.6924C217.537 10.3305 216.687 9.09974 215.62 8.07367C214.552 7.04759 213.289 6.24732 211.905 5.7207C210.522 5.19408 209.046 4.95194 207.566 5.00875C201.679 5.23625 196.984 10.14 197 16.0312C197.006 18.7132 197.995 21.2998 199.78 23.3013C200.507 22.2468 201.431 21.3423 202.5 20.6375C202.591 20.5773 202.7 20.5486 202.809 20.5558C202.918 20.563 203.021 20.6058 203.104 20.6775C204.463 21.8529 206.199 22.4998 207.996 22.4998C209.793 22.4998 211.53 21.8529 212.889 20.6775C212.971 20.6058 213.075 20.563 213.184 20.5558C213.293 20.5486 213.401 20.5773 213.493 20.6375C214.563 21.342 215.488 22.2464 216.216 23.3013C218.01 21.2925 219.001 18.6932 219 16Z" fill="currentColor"/>
<path opacity="0.2" d="M268 16.0001C268.002 17.683 267.649 19.3474 266.964 20.8846C266.279 22.4218 265.277 23.7973 264.025 24.9214C263.272 23.4402 262.124 22.1965 260.707 21.3279C259.291 20.4592 257.662 19.9997 256 20.0001C256.989 20.0001 257.956 19.7069 258.778 19.1575C259.6 18.6081 260.241 17.8272 260.619 16.9135C260.998 15.9999 261.097 14.9946 260.904 14.0247C260.711 13.0548 260.235 12.1638 259.536 11.4646C258.836 10.7653 257.945 10.2891 256.975 10.0962C256.006 9.90326 255 10.0023 254.087 10.3807C253.173 10.7592 252.392 11.4 251.843 12.2223C251.293 13.0445 251 14.0112 251 15.0001C251 16.3262 251.527 17.598 252.464 18.5356C253.402 19.4733 254.674 20.0001 256 20.0001C254.338 19.9997 252.709 20.4592 251.293 21.3279C249.876 22.1965 248.728 23.4402 247.975 24.9214C246.488 23.5837 245.359 21.8954 244.69 20.0102C244.022 18.1249 243.835 16.1025 244.147 14.1267C244.459 12.1509 245.26 10.2845 246.478 8.69725C247.695 7.10995 249.289 5.85211 251.117 5.0381C252.944 4.22409 254.945 3.87974 256.94 4.03636C258.934 4.19297 260.857 4.8456 262.535 5.93488C264.212 7.02415 265.591 8.51553 266.546 10.2734C267.5 12.0313 268 13.9998 268 16.0001Z" fill="currentColor"/>
<path d="M256 3C253.429 3 250.915 3.76244 248.778 5.1909C246.64 6.61935 244.974 8.64968 243.99 11.0251C243.006 13.4006 242.748 16.0144 243.25 18.5362C243.751 21.0579 244.99 23.3743 246.808 25.1924C248.626 27.0105 250.942 28.2486 253.464 28.7502C255.986 29.2518 258.599 28.9944 260.975 28.0104C263.35 27.0265 265.381 25.3603 266.809 23.2224C268.238 21.0846 269 18.5712 269 16C268.996 12.5533 267.626 9.24882 265.188 6.81163C262.751 4.37445 259.447 3.00364 256 3ZM249.26 24.6875C249.983 23.5561 250.98 22.625 252.158 21.9801C253.336 21.3351 254.657 20.9971 256 20.9971C257.343 20.9971 258.664 21.3351 259.842 21.9801C261.02 22.625 262.017 23.5561 262.74 24.6875C260.813 26.1862 258.441 26.9999 256 26.9999C253.559 26.9999 251.187 26.1862 249.26 24.6875ZM252 15C252 14.2089 252.235 13.4355 252.674 12.7777C253.114 12.1199 253.738 11.6072 254.469 11.3045C255.2 11.0017 256.004 10.9225 256.78 11.0769C257.556 11.2312 258.269 11.6122 258.828 12.1716C259.388 12.731 259.769 13.4437 259.923 14.2196C260.077 14.9956 259.998 15.7998 259.696 16.5307C259.393 17.2616 258.88 17.8864 258.222 18.3259C257.564 18.7654 256.791 19 256 19C254.939 19 253.922 18.5786 253.172 17.8284C252.421 17.0783 252 16.0609 252 15ZM264.22 23.3013C263.105 21.6851 261.536 20.4348 259.713 19.7075C260.692 18.9358 261.407 17.878 261.758 16.6811C262.109 15.4843 262.078 14.2079 261.669 13.0294C261.261 11.851 260.495 10.8291 259.479 10.1059C258.463 9.38262 257.247 8.99397 256 8.99397C254.753 8.99397 253.537 9.38262 252.521 10.1059C251.505 10.8291 250.739 11.851 250.331 13.0294C249.922 14.2079 249.891 15.4843 250.242 16.6811C250.593 17.878 251.308 18.9358 252.288 19.7075C250.464 20.4348 248.895 21.6851 247.78 23.3013C246.371 21.7165 245.45 19.7581 245.128 17.6619C244.806 15.5657 245.096 13.4211 245.965 11.4864C246.833 9.55163 248.243 7.90922 250.023 6.75692C251.804 5.60462 253.879 4.99156 256 4.99156C258.121 4.99156 260.196 5.60462 261.977 6.75692C263.757 7.90922 265.167 9.55163 266.035 11.4864C266.904 13.4211 267.194 15.5657 266.872 17.6619C266.55 19.7581 265.629 21.7165 264.22 23.3013Z" fill="currentColor"/>
</g>
<defs>
<clipPath id="clip0_17_4333">
<rect width="272" height="32" rx="5" fill="white"/>
</clipPath>
</defs>
</svg>
