<svg width="272" height="32" viewBox="0 0 272 32" fill="none" xmlns="http://www.w3.org/2000/svg">
<g clip-path="url(#clip0_17_4221)">
<path d="M32.0002 17.0001C32.0002 17.2653 31.8948 17.5197 31.7073 17.7072C31.5197 17.8948 31.2654 18.0001 31.0002 18.0001H29.0002V20.0001C29.0002 20.2653 28.8948 20.5197 28.7073 20.7072C28.5197 20.8948 28.2654 21.0001 28.0002 21.0001C27.7349 21.0001 27.4806 20.8948 27.2931 20.7072C27.1055 20.5197 27.0002 20.2653 27.0002 20.0001V18.0001H25.0002C24.7349 18.0001 24.4806 17.8948 24.2931 17.7072C24.1055 17.5197 24.0002 17.2653 24.0002 17.0001C24.0002 16.7349 24.1055 16.4805 24.2931 16.293C24.4806 16.1055 24.7349 16.0001 25.0002 16.0001H27.0002V14.0001C27.0002 13.7349 27.1055 13.4805 27.2931 13.293C27.4806 13.1055 27.7349 13.0001 28.0002 13.0001C28.2654 13.0001 28.5197 13.1055 28.7073 13.293C28.8948 13.4805 29.0002 13.7349 29.0002 14.0001V16.0001H31.0002C31.2654 16.0001 31.5197 16.1055 31.7073 16.293C31.8948 16.4805 32.0002 16.7349 32.0002 17.0001ZM24.7664 24.3564C24.9371 24.5596 25.0202 24.8223 24.9972 25.0867C24.9742 25.3512 24.8471 25.5956 24.6439 25.7664C24.4407 25.9371 24.178 26.0201 23.9135 25.9971C23.6491 25.9742 23.4046 25.8471 23.2339 25.6439C20.7189 22.6489 17.2614 21.0001 13.5002 21.0001C9.73891 21.0001 6.28141 22.6489 3.76641 25.6439C3.59568 25.8469 3.35128 25.9738 3.08697 25.9967C2.82266 26.0196 2.5601 25.9365 2.35704 25.7657C2.15398 25.595 2.02707 25.3506 2.00421 25.0863C1.98135 24.822 2.06443 24.5594 2.23516 24.3564C4.10266 22.1339 6.42516 20.5551 9.00641 19.7101C7.43879 18.7337 6.23181 17.2734 5.56808 15.55C4.90435 13.8265 4.81997 11.9338 5.32773 10.1582C5.83548 8.38254 6.90772 6.82057 8.38225 5.70859C9.85678 4.59661 11.6533 3.99512 13.5002 3.99512C15.347 3.99512 17.1436 4.59661 18.6181 5.70859C20.0926 6.82057 21.1649 8.38254 21.6726 10.1582C22.1804 11.9338 22.096 13.8265 21.4322 15.55C20.7685 17.2734 19.5615 18.7337 17.9939 19.7101C20.5752 20.5551 22.8977 22.1339 24.7664 24.3564ZM13.5002 19.0001C14.7857 19.0001 16.0425 18.6189 17.1114 17.9047C18.1803 17.1904 19.0134 16.1753 19.5054 14.9876C19.9974 13.7998 20.1261 12.4929 19.8753 11.232C19.6245 9.97115 19.0054 8.81296 18.0964 7.90392C17.1873 6.99488 16.0291 6.37582 14.7683 6.12501C13.5074 5.87421 12.2004 6.00293 11.0127 6.4949C9.825 6.98687 8.80984 7.81999 8.09561 8.88891C7.38138 9.95783 7.00016 11.2145 7.00016 12.5001C7.00215 14.2234 7.68761 15.8756 8.90616 17.0941C10.1247 18.3127 11.7769 18.9981 13.5002 19.0001Z" fill="currentColor"/>
<path d="M79.5001 17.0001C79.5001 17.1327 79.4474 17.2599 79.3537 17.3537C79.2599 17.4474 79.1327 17.5001 79.0001 17.5001H76.5001V20.0001C76.5001 20.1327 76.4474 20.2599 76.3537 20.3537C76.2599 20.4474 76.1327 20.5001 76.0001 20.5001C75.8675 20.5001 75.7403 20.4474 75.6466 20.3537C75.5528 20.2599 75.5001 20.1327 75.5001 20.0001V17.5001H73.0001C72.8675 17.5001 72.7403 17.4474 72.6466 17.3537C72.5528 17.2599 72.5001 17.1327 72.5001 17.0001C72.5001 16.8675 72.5528 16.7403 72.6466 16.6465C72.7403 16.5528 72.8675 16.5001 73.0001 16.5001H75.5001V14.0001C75.5001 13.8675 75.5528 13.7403 75.6466 13.6465C75.7403 13.5528 75.8675 13.5001 76.0001 13.5001C76.1327 13.5001 76.2599 13.5528 76.3537 13.6465C76.4474 13.7403 76.5001 13.8675 76.5001 14.0001V16.5001H79.0001C79.1327 16.5001 79.2599 16.5528 79.3537 16.6465C79.4474 16.7403 79.5001 16.8675 79.5001 17.0001ZM72.3826 24.6789C72.461 24.781 72.4969 24.9095 72.4829 25.0375C72.4689 25.1655 72.406 25.2832 72.3074 25.366C72.2088 25.4488 72.0821 25.4904 71.9536 25.4821C71.8251 25.4738 71.7047 25.4162 71.6176 25.3214C69.0001 22.2126 65.4126 20.5001 61.5001 20.5001C57.5876 20.5001 54.0001 22.2126 51.3826 25.3214C51.3415 25.3749 51.29 25.4196 51.2312 25.4528C51.1723 25.4859 51.1074 25.5068 51.0402 25.5141C50.9731 25.5215 50.9052 25.5151 50.8406 25.4955C50.776 25.4759 50.716 25.4434 50.6643 25.4C50.6126 25.3565 50.5702 25.3031 50.5397 25.2428C50.5092 25.1826 50.4912 25.1168 50.4869 25.0494C50.4825 24.982 50.4919 24.9144 50.5143 24.8507C50.5368 24.7871 50.5719 24.7286 50.6176 24.6789C52.7064 22.1914 55.3839 20.5376 58.3539 19.8551C56.6594 19.1303 55.2672 17.8427 54.4125 16.2099C53.5578 14.5772 53.293 12.6994 53.6629 10.8939C54.0329 9.08851 55.0148 7.46616 56.4428 6.30111C57.8707 5.13606 59.6572 4.49976 61.5001 4.49976C63.3431 4.49976 65.1295 5.13606 66.5575 6.30111C67.9854 7.46616 68.9674 9.08851 69.3373 10.8939C69.7072 12.6994 69.4424 14.5772 68.5877 16.2099C67.733 17.8427 66.3408 19.1303 64.6464 19.8551C67.6164 20.5376 70.2939 22.1914 72.3826 24.6789ZM61.5001 19.5001C62.8846 19.5001 64.238 19.0896 65.3891 18.3204C66.5402 17.5512 67.4375 16.458 67.9673 15.1789C68.4971 13.8998 68.6357 12.4923 68.3656 11.1345C68.0955 9.7766 67.4288 8.52932 66.4499 7.55035C65.4709 6.57139 64.2236 5.9047 62.8657 5.6346C61.5079 5.36451 60.1004 5.50313 58.8213 6.03294C57.5422 6.56276 56.449 7.45997 55.6798 8.61111C54.9107 9.76225 54.5001 11.1156 54.5001 12.5001C54.5021 14.356 55.2402 16.1353 56.5526 17.4477C57.8649 18.76 59.6442 19.4981 61.5001 19.5001Z" fill="currentColor"/>
<path d="M127.75 16.9999C127.75 17.1988 127.671 17.3896 127.531 17.5302C127.39 17.6709 127.199 17.7499 127 17.7499H124.75V19.9999C124.75 20.1988 124.671 20.3896 124.531 20.5302C124.39 20.6709 124.199 20.7499 124 20.7499C123.801 20.7499 123.611 20.6709 123.47 20.5302C123.329 20.3896 123.25 20.1988 123.25 19.9999V17.7499H121C120.801 17.7499 120.611 17.6709 120.47 17.5302C120.329 17.3896 120.25 17.1988 120.25 16.9999C120.25 16.801 120.329 16.6102 120.47 16.4696C120.611 16.3289 120.801 16.2499 121 16.2499H123.25V13.9999C123.25 13.801 123.329 13.6102 123.47 13.4696C123.611 13.3289 123.801 13.2499 124 13.2499C124.199 13.2499 124.39 13.3289 124.531 13.4696C124.671 13.6102 124.75 13.801 124.75 13.9999V16.2499H127C127.199 16.2499 127.39 16.3289 127.531 16.4696C127.671 16.6102 127.75 16.801 127.75 16.9999ZM120.574 24.5174C120.641 24.5922 120.692 24.6798 120.724 24.7748C120.757 24.8698 120.77 24.9703 120.763 25.0704C120.756 25.1706 120.728 25.2682 120.683 25.3577C120.637 25.4471 120.574 25.5265 120.497 25.5911C120.421 25.6557 120.332 25.7042 120.236 25.7338C120.14 25.7634 120.039 25.7734 119.939 25.7632C119.839 25.7531 119.742 25.723 119.654 25.6748C119.566 25.6265 119.489 25.5611 119.426 25.4824C116.863 22.4311 113.336 20.7499 109.5 20.7499C105.664 20.7499 102.139 22.4311 99.5739 25.4824C99.444 25.6278 99.2625 25.7169 99.068 25.7308C98.8735 25.7447 98.6812 25.6822 98.5319 25.5567C98.3827 25.4312 98.2882 25.2525 98.2685 25.0584C98.2488 24.8644 98.3054 24.6703 98.4264 24.5174C100.393 22.1761 102.875 20.5599 105.625 19.7811C104 18.9166 102.711 17.5335 101.963 15.8519C101.214 14.1703 101.05 12.2868 101.496 10.5009C101.941 8.71507 102.971 7.12948 104.421 5.99639C105.872 4.8633 107.66 4.2478 109.5 4.2478C111.341 4.2478 113.129 4.8633 114.579 5.99639C116.029 7.12948 117.059 8.71507 117.505 10.5009C117.95 12.2868 117.786 14.1703 117.038 15.8519C116.289 17.5335 115 18.9166 113.375 19.7811C116.125 20.5599 118.608 22.1761 120.574 24.5174ZM109.5 19.2499C110.835 19.2499 112.14 18.854 113.25 18.1123C114.36 17.3706 115.225 16.3164 115.736 15.083C116.247 13.8496 116.381 12.4924 116.12 11.183C115.86 9.87365 115.217 8.67092 114.273 7.72691C113.329 6.78291 112.126 6.14003 110.817 5.87958C109.508 5.61913 108.15 5.7528 106.917 6.26369C105.684 6.77459 104.629 7.63975 103.888 8.74978C103.146 9.85981 102.75 11.1649 102.75 12.4999C102.752 14.2895 103.464 16.0052 104.729 17.2707C105.995 18.5361 107.711 19.2479 109.5 19.2499Z" fill="currentColor"/>
<path d="M176 16.9999C176 17.3978 175.842 17.7793 175.56 18.0606C175.279 18.3419 174.898 18.4999 174.5 18.4999H173.5V19.4999C173.5 19.8978 173.342 20.2793 173.06 20.5606C172.779 20.8419 172.398 20.9999 172 20.9999C171.602 20.9999 171.22 20.8419 170.939 20.5606C170.658 20.2793 170.5 19.8978 170.5 19.4999V18.4999H169.5C169.102 18.4999 168.72 18.3419 168.439 18.0606C168.158 17.7793 168 17.3978 168 16.9999C168 16.6021 168.158 16.2206 168.439 15.9393C168.72 15.658 169.102 15.4999 169.5 15.4999H170.5V14.4999C170.5 14.1021 170.658 13.7206 170.939 13.4393C171.22 13.158 171.602 12.9999 172 12.9999C172.398 12.9999 172.779 13.158 173.06 13.4393C173.342 13.7206 173.5 14.1021 173.5 14.4999V15.4999H174.5C174.898 15.4999 175.279 15.658 175.56 15.9393C175.842 16.2206 176 16.6021 176 16.9999ZM169.149 24.0349C169.404 24.3396 169.529 24.7335 169.494 25.1299C169.46 25.5263 169.269 25.8927 168.965 26.1487C168.66 26.4046 168.266 26.529 167.87 26.4946C167.473 26.4601 167.107 26.2696 166.851 25.9649C165.14 23.9274 162.125 21.4999 157.5 21.4999C153.889 21.4999 150.567 23.0849 148.149 25.9649C147.893 26.2696 147.526 26.4601 147.13 26.4946C146.733 26.529 146.339 26.4046 146.035 26.1487C145.73 25.8927 145.54 25.5263 145.505 25.1299C145.471 24.7335 145.595 24.3396 145.851 24.0349C147.481 22.0667 149.571 20.5317 151.937 19.5662C150.466 18.4095 149.392 16.823 148.865 15.0274C148.337 13.2318 148.383 11.3165 148.995 9.54791C149.607 7.77935 150.755 6.24555 152.279 5.15996C153.803 4.07436 155.628 3.49097 157.5 3.49097C159.371 3.49097 161.196 4.07436 162.721 5.15996C164.245 6.24555 165.393 7.77935 166.005 9.54791C166.617 11.3165 166.662 13.2318 166.135 15.0274C165.608 16.823 164.534 18.4095 163.062 19.5662C165.428 20.5313 167.519 22.0664 169.149 24.0349ZM157.5 18.4999C158.686 18.4999 159.847 18.148 160.833 17.4887C161.82 16.8295 162.589 15.8924 163.043 14.796C163.497 13.6997 163.616 12.4933 163.385 11.3294C163.153 10.1655 162.582 9.0964 161.742 8.25729C160.903 7.41817 159.834 6.84673 158.67 6.61521C157.506 6.3837 156.3 6.50252 155.204 6.95665C154.107 7.41078 153.17 8.17981 152.511 9.1665C151.852 10.1532 151.5 11.3132 151.5 12.4999C151.501 14.0907 152.134 15.6159 153.259 16.7407C154.384 17.8656 155.909 18.4983 157.5 18.4999Z" fill="currentColor"/>
<path d="M224 17.0001C224 17.2653 223.895 17.5197 223.707 17.7072C223.519 17.8948 223.265 18.0001 223 18.0001H221V20.0001C221 20.2653 220.895 20.5197 220.707 20.7072C220.519 20.8948 220.265 21.0001 220 21.0001C219.735 21.0001 219.48 20.8948 219.293 20.7072C219.105 20.5197 219 20.2653 219 20.0001V18.0001H217C216.735 18.0001 216.48 17.8948 216.293 17.7072C216.105 17.5197 216 17.2653 216 17.0001C216 16.7349 216.105 16.4805 216.293 16.293C216.48 16.1055 216.735 16.0001 217 16.0001H219V14.0001C219 13.7349 219.105 13.4805 219.293 13.293C219.48 13.1055 219.735 13.0001 220 13.0001C220.265 13.0001 220.519 13.1055 220.707 13.293C220.895 13.4805 221 13.7349 221 14.0001V16.0001H223C223.265 16.0001 223.519 16.1055 223.707 16.293C223.895 16.4805 224 16.7349 224 17.0001ZM210 19.7101C211.568 18.7337 212.774 17.2734 213.438 15.55C214.102 13.8265 214.186 11.9338 213.679 10.1582C213.171 8.38254 212.099 6.82057 210.624 5.70859C209.15 4.59661 207.353 3.99512 205.506 3.99512C203.659 3.99512 201.863 4.59661 200.388 5.70859C198.914 6.82057 197.841 8.38254 197.334 10.1582C196.826 11.9338 196.91 13.8265 197.574 15.55C198.238 17.2734 199.445 18.7337 201.012 19.7101C198.431 20.5551 196.109 22.1339 194.241 24.3564C194.119 24.5017 194.041 24.6788 194.015 24.8671C193.99 25.0553 194.019 25.2468 194.098 25.4192C194.178 25.5917 194.305 25.7379 194.465 25.8407C194.624 25.9436 194.81 25.9989 195 26.0001H216C216.19 26.0003 216.377 25.9461 216.538 25.8437C216.699 25.7414 216.827 25.5953 216.907 25.4226C216.988 25.2499 217.017 25.0578 216.992 24.8689C216.967 24.68 216.889 24.5022 216.766 24.3564C214.897 22.1339 212.575 20.5551 210 19.7101Z" fill="currentColor"/>
<path opacity="0.2" d="M261 12.5C261 13.9834 260.56 15.4334 259.736 16.6668C258.912 17.9001 257.741 18.8614 256.37 19.4291C255 19.9968 253.492 20.1453 252.037 19.8559C250.582 19.5665 249.246 18.8522 248.197 17.8033C247.148 16.7544 246.434 15.418 246.144 13.9632C245.855 12.5083 246.003 11.0003 246.571 9.62987C247.139 8.25943 248.1 7.08809 249.333 6.26398C250.567 5.43987 252.017 5 253.5 5C255.489 5 257.397 5.79018 258.803 7.1967C260.21 8.60322 261 10.5109 261 12.5Z" fill="currentColor"/>
<path d="M272 17.0001C272 17.2653 271.895 17.5197 271.707 17.7072C271.52 17.8948 271.265 18.0001 271 18.0001H269V20.0001C269 20.2653 268.895 20.5197 268.707 20.7072C268.52 20.8948 268.265 21.0001 268 21.0001C267.735 21.0001 267.481 20.8948 267.293 20.7072C267.106 20.5197 267 20.2653 267 20.0001V18.0001H265C264.735 18.0001 264.481 17.8948 264.293 17.7072C264.106 17.5197 264 17.2653 264 17.0001C264 16.7349 264.106 16.4805 264.293 16.293C264.481 16.1055 264.735 16.0001 265 16.0001H267V14.0001C267 13.7349 267.106 13.4805 267.293 13.293C267.481 13.1055 267.735 13.0001 268 13.0001C268.265 13.0001 268.52 13.1055 268.707 13.293C268.895 13.4805 269 13.7349 269 14.0001V16.0001H271C271.265 16.0001 271.52 16.1055 271.707 16.293C271.895 16.4805 272 16.7349 272 17.0001ZM264.766 24.3564C264.937 24.5596 265.02 24.8223 264.997 25.0867C264.974 25.3512 264.847 25.5956 264.644 25.7664C264.441 25.9371 264.178 26.0201 263.914 25.9971C263.649 25.9742 263.405 25.8471 263.234 25.6439C260.719 22.6489 257.261 21.0001 253.5 21.0001C249.739 21.0001 246.281 22.6489 243.766 25.6439C243.596 25.8469 243.351 25.9738 243.087 25.9967C242.823 26.0196 242.56 25.9365 242.357 25.7657C242.154 25.595 242.027 25.3506 242.004 25.0863C241.981 24.822 242.064 24.5594 242.235 24.3564C244.103 22.1339 246.425 20.5551 249.006 19.7101C247.439 18.7337 246.232 17.2734 245.568 15.55C244.904 13.8265 244.82 11.9338 245.328 10.1582C245.835 8.38254 246.908 6.82057 248.382 5.70859C249.857 4.59661 251.653 3.99512 253.5 3.99512C255.347 3.99512 257.144 4.59661 258.618 5.70859C260.093 6.82057 261.165 8.38254 261.673 10.1582C262.18 11.9338 262.096 13.8265 261.432 15.55C260.769 17.2734 259.562 18.7337 257.994 19.7101C260.575 20.5551 262.898 22.1339 264.766 24.3564ZM253.5 19.0001C254.786 19.0001 256.042 18.6189 257.111 17.9047C258.18 17.1904 259.013 16.1753 259.505 14.9876C259.997 13.7998 260.126 12.4929 259.875 11.232C259.624 9.97115 259.005 8.81296 258.096 7.90392C257.187 6.99488 256.029 6.37582 254.768 6.12501C253.507 5.87421 252.2 6.00293 251.013 6.4949C249.825 6.98687 248.81 7.81999 248.096 8.88891C247.381 9.95783 247 11.2145 247 12.5001C247.002 14.2234 247.688 15.8756 248.906 17.0941C250.125 18.3127 251.777 18.9981 253.5 19.0001Z" fill="currentColor"/>
</g>
<defs>
<clipPath id="clip0_17_4221">
<rect width="272" height="32" rx="5" fill="white"/>
</clipPath>
</defs>
</svg>
