<svg width="272" height="32" viewBox="0 0 272 32" fill="none" xmlns="http://www.w3.org/2000/svg">
<g clip-path="url(#clip0_17_4319)">
<path d="M28.5313 7.88375L27.9488 7.5475C28.0171 7.1857 28.0171 6.8143 27.9488 6.4525L28.5313 6.11625C28.761 5.98364 28.9287 5.7652 28.9974 5.50898C29.0661 5.25276 29.0301 4.97974 28.8975 4.75C28.7649 4.52026 28.5465 4.3526 28.2903 4.28392C28.034 4.21523 27.761 4.25114 27.5313 4.38375L26.9475 4.72125C26.6682 4.48157 26.347 4.29554 26 4.1725V3.5C26 3.23478 25.8947 2.98043 25.7071 2.79289C25.5196 2.60536 25.2652 2.5 25 2.5C24.7348 2.5 24.4805 2.60536 24.2929 2.79289C24.1054 2.98043 24 3.23478 24 3.5V4.1725C23.6531 4.29554 23.3319 4.48157 23.0525 4.72125L22.4688 4.38375C22.355 4.31809 22.2294 4.27548 22.0992 4.25835C21.969 4.24122 21.8367 4.24991 21.7098 4.28392C21.5829 4.31792 21.464 4.37659 21.3598 4.45656C21.2556 4.53653 21.1682 4.63624 21.1025 4.75C21.0369 4.86376 20.9943 4.98933 20.9771 5.11956C20.96 5.24979 20.9687 5.38211 21.0027 5.50898C21.0367 5.63585 21.0954 5.75477 21.1753 5.85897C21.2553 5.96316 21.355 6.05059 21.4688 6.11625L22.0513 6.4525C21.9829 6.8143 21.9829 7.1857 22.0513 7.5475L21.4688 7.88375C21.278 7.99377 21.1289 8.16367 21.0446 8.36709C20.9603 8.57052 20.9455 8.79609 21.0025 9.00879C21.0594 9.22149 21.185 9.40944 21.3598 9.54346C21.5345 9.67748 21.7486 9.75009 21.9688 9.75C22.1444 9.75054 22.3169 9.70438 22.4688 9.61625L23.0525 9.27875C23.3319 9.51843 23.6531 9.70446 24 9.8275V10.5C24 10.7652 24.1054 11.0196 24.2929 11.2071C24.4805 11.3946 24.7348 11.5 25 11.5C25.2652 11.5 25.5196 11.3946 25.7071 11.2071C25.8947 11.0196 26 10.7652 26 10.5V9.8275C26.347 9.70446 26.6682 9.51843 26.9475 9.27875L27.5313 9.61625C27.6831 9.70438 27.8557 9.75054 28.0313 9.75C28.2515 9.75009 28.4656 9.67748 28.6403 9.54346C28.815 9.40944 28.9406 9.22149 28.9976 9.00879C29.0546 8.79609 29.0398 8.57052 28.9555 8.36709C28.8711 8.16367 28.722 7.99377 28.5313 7.88375ZM24 7C24 6.80222 24.0587 6.60888 24.1686 6.44443C24.2784 6.27998 24.4346 6.15181 24.6173 6.07612C24.8001 6.00043 25.0011 5.98063 25.1951 6.01921C25.3891 6.0578 25.5673 6.15304 25.7071 6.29289C25.847 6.43275 25.9422 6.61093 25.9808 6.80491C26.0194 6.99889 25.9996 7.19996 25.9239 7.38268C25.8482 7.56541 25.7201 7.72159 25.5556 7.83147C25.3912 7.94135 25.1978 8 25 8C24.7348 8 24.4805 7.89464 24.2929 7.70711C24.1054 7.51957 24 7.26522 24 7ZM27.6688 13.0138C27.4072 13.0575 27.1738 13.2034 27.0197 13.4193C26.8657 13.6352 26.8038 13.9034 26.8475 14.165C26.9491 14.7714 27.0001 15.3852 27 16C27.0024 18.6927 26.0127 21.292 24.22 23.3013C23.1047 21.6851 21.5365 20.4348 19.7125 19.7075C20.6923 18.9358 21.4072 17.878 21.7579 16.6811C22.1086 15.4843 22.0777 14.2079 21.6693 13.0294C21.2609 11.851 20.4955 10.8291 19.4795 10.1059C18.4634 9.38262 17.2472 8.99397 16 8.99397C14.7529 8.99397 13.5367 9.38262 12.5206 10.1059C11.5046 10.8291 10.7391 11.851 10.3308 13.0294C9.92241 14.2079 9.89143 15.4843 10.2421 16.6811C10.5928 17.878 11.3078 18.9358 12.2875 19.7075C10.4636 20.4348 8.89532 21.6851 7.78003 23.3013C6.37343 21.7162 5.45462 19.7586 5.13409 17.6638C4.81355 15.569 5.10494 13.4262 5.9732 11.4931C6.84147 9.55995 8.24965 7.91877 10.0284 6.76688C11.8072 5.615 13.8809 5.00144 16 5C16.6149 4.9999 17.2286 5.05091 17.835 5.1525C18.0954 5.19359 18.3615 5.13019 18.5754 4.97611C18.7893 4.82203 18.9337 4.58972 18.9772 4.32973C19.0207 4.06973 18.9598 3.80307 18.8077 3.58776C18.6556 3.37245 18.4246 3.22591 18.165 3.18C15.4493 2.72314 12.6587 3.14117 10.1961 4.37372C7.73344 5.60627 5.72624 7.58956 4.46426 10.0372C3.20229 12.4849 2.75085 15.2703 3.17513 17.9913C3.59941 20.7123 4.87744 23.228 6.82472 25.1753C8.77199 27.1226 11.2877 28.4006 14.0087 28.8249C16.7297 29.2492 19.5151 28.7977 21.9628 27.5358C24.4105 26.2738 26.3938 24.2666 27.6263 21.804C28.8589 19.3413 29.2769 16.5507 28.82 13.835C28.7763 13.5734 28.6304 13.34 28.4145 13.186C28.1986 13.0319 27.9304 12.97 27.6688 13.0138ZM12 15C12 14.2089 12.2346 13.4355 12.6742 12.7777C13.1137 12.1199 13.7384 11.6072 14.4693 11.3045C15.2002 11.0017 16.0045 10.9225 16.7804 11.0769C17.5563 11.2312 18.269 11.6122 18.8285 12.1716C19.3879 12.731 19.7688 13.4437 19.9232 14.2196C20.0775 14.9956 19.9983 15.7998 19.6956 16.5307C19.3928 17.2616 18.8801 17.8864 18.2223 18.3259C17.5645 18.7654 16.7912 19 16 19C14.9392 19 13.9218 18.5786 13.1716 17.8284C12.4215 17.0783 12 16.0609 12 15ZM9.26003 24.6875C9.98345 23.5561 10.98 22.625 12.1579 21.9801C13.3358 21.3351 14.6571 20.9971 16 20.9971C17.3429 20.9971 18.6642 21.3351 19.8421 21.9801C21.02 22.625 22.0166 23.5561 22.74 24.6875C20.813 26.1862 18.4413 26.9999 16 26.9999C13.5588 26.9999 11.1871 26.1862 9.26003 24.6875Z" fill="currentColor"/>
<path d="M76.2812 8.3175L75.3749 7.79125C75.5483 7.278 75.5483 6.722 75.3749 6.20875L76.2862 5.6825C76.395 5.61332 76.4729 5.50476 76.5036 5.3795C76.5342 5.25424 76.5153 5.12197 76.4508 5.01032C76.3863 4.89867 76.2811 4.81627 76.1572 4.78034C76.0334 4.74441 75.9004 4.75772 75.7862 4.8175L74.8724 5.34375C74.5131 4.93726 74.0314 4.65866 73.4999 4.55V3.5C73.4999 3.36739 73.4472 3.24021 73.3535 3.14645C73.2597 3.05268 73.1325 3 72.9999 3C72.8673 3 72.7401 3.05268 72.6464 3.14645C72.5526 3.24021 72.4999 3.36739 72.4999 3.5V4.55C71.9702 4.65967 71.4904 4.93819 71.1324 5.34375L70.2187 4.8175C70.1618 4.78132 70.0981 4.75703 70.0316 4.74609C69.965 4.73514 69.897 4.73777 69.8315 4.75381C69.766 4.76986 69.7044 4.79898 69.6504 4.83944C69.5965 4.8799 69.5513 4.93085 69.5175 4.98924C69.4838 5.04762 69.4622 5.11222 69.4541 5.17917C69.4459 5.24611 69.4514 5.314 69.4702 5.37877C69.489 5.44353 69.5207 5.50383 69.5634 5.55602C69.6061 5.60822 69.6589 5.65124 69.7187 5.6825L70.6249 6.20875C70.4515 6.722 70.4515 7.278 70.6249 7.79125L69.7137 8.3175C69.6186 8.37265 69.5443 8.45758 69.5024 8.55916C69.4604 8.66075 69.4531 8.77332 69.4816 8.87948C69.5101 8.98563 69.5727 9.07945 69.6598 9.14643C69.747 9.21341 69.8538 9.24981 69.9637 9.25C70.0515 9.25033 70.1379 9.22701 70.2137 9.1825L71.1274 8.65625C71.4867 9.06274 71.9684 9.34134 72.4999 9.45V10.5C72.4999 10.6326 72.5526 10.7598 72.6464 10.8536C72.7401 10.9473 72.8673 11 72.9999 11C73.1325 11 73.2597 10.9473 73.3535 10.8536C73.4472 10.7598 73.4999 10.6326 73.4999 10.5V9.45C74.0296 9.34033 74.5095 9.06181 74.8674 8.65625L75.7812 9.1825C75.8569 9.22701 75.9433 9.25033 76.0312 9.25C76.1411 9.24981 76.2478 9.21341 76.335 9.14643C76.4221 9.07945 76.4848 8.98563 76.5132 8.87948C76.5417 8.77332 76.5344 8.66075 76.4924 8.55916C76.4505 8.45758 76.3762 8.37265 76.2812 8.3175ZM72.9999 8.5C72.7032 8.5 72.4132 8.41203 72.1666 8.2472C71.9199 8.08238 71.7276 7.84811 71.6141 7.57403C71.5006 7.29994 71.4709 6.99834 71.5287 6.70736C71.5866 6.41639 71.7295 6.14912 71.9393 5.93934C72.149 5.72956 72.4163 5.5867 72.7073 5.52882C72.9982 5.47094 73.2998 5.50065 73.5739 5.61418C73.848 5.72771 74.0823 5.91997 74.2471 6.16664C74.4119 6.41332 74.4999 6.70333 74.4999 7C74.4999 7.39782 74.3419 7.77936 74.0606 8.06066C73.7793 8.34196 73.3977 8.5 72.9999 8.5ZM75.7499 13.5075C75.6194 13.5295 75.5029 13.6024 75.426 13.7102C75.3492 13.818 75.3182 13.9519 75.3399 14.0825C75.4458 14.7162 75.4993 15.3575 75.4999 16C75.5009 17.5056 75.2052 18.9967 74.6298 20.388C74.0543 21.7794 73.2104 23.0437 72.1462 24.1087C70.904 22.0321 68.9127 20.5109 66.5824 19.8587C67.6659 19.2826 68.5255 18.3606 69.0246 17.2395C69.5236 16.1184 69.6334 14.8626 69.3365 13.672C69.0396 12.4813 68.353 11.4241 67.386 10.6686C66.4189 9.91314 65.227 9.50275 63.9999 9.50275C62.7728 9.50275 61.5809 9.91314 60.6139 10.6686C59.6468 11.4241 58.9603 12.4813 58.6633 13.672C58.3664 14.8626 58.4762 16.1184 58.9753 17.2395C59.4743 18.3606 60.334 19.2826 61.4174 19.8587C59.0871 20.5109 57.0958 22.0321 55.8537 24.1087C54.2524 22.4984 53.1637 20.4499 52.725 18.2217C52.2862 15.9935 52.517 13.6853 53.3883 11.588C54.2596 9.4908 55.7323 7.69849 57.6208 6.43709C59.5092 5.17568 61.7289 4.50166 63.9999 4.5C64.6424 4.50007 65.2837 4.55317 65.9174 4.65875C66.0476 4.67929 66.1806 4.6476 66.2876 4.57056C66.3945 4.49352 66.4667 4.37736 66.4885 4.24736C66.5102 4.11737 66.4798 3.98404 66.4037 3.87638C66.3277 3.76873 66.2122 3.69545 66.0824 3.6725C63.4724 3.23495 60.7908 3.638 58.4247 4.82349C56.0587 6.00899 54.1304 7.9156 52.9183 10.2682C51.7063 12.6207 51.273 15.2976 51.6811 17.9124C52.0892 20.5272 53.3176 22.9447 55.1889 24.816C57.0602 26.6873 59.4777 27.9157 62.0925 28.3238C64.7073 28.7319 67.3842 28.2987 69.7367 27.0866C72.0893 25.8745 73.9959 23.9463 75.1814 21.5802C76.3669 19.2141 76.77 16.5325 76.3324 13.9225C76.3221 13.8567 76.2988 13.7935 76.2638 13.7369C76.2288 13.6802 76.1828 13.6311 76.1285 13.5924C76.0742 13.5537 76.0128 13.5263 75.9478 13.5117C75.8828 13.4971 75.8155 13.4957 75.7499 13.5075ZM59.4999 15C59.4999 14.11 59.7638 13.24 60.2583 12.4999C60.7528 11.7599 61.4556 11.1831 62.2778 10.8425C63.1001 10.5019 64.0049 10.4128 64.8778 10.5865C65.7507 10.7601 66.5526 11.1887 67.1819 11.818C67.8112 12.4474 68.2398 13.2492 68.4134 14.1221C68.5871 14.995 68.498 15.8998 68.1574 16.7221C67.8168 17.5443 67.24 18.2471 66.5 18.7416C65.76 19.2361 64.8899 19.5 63.9999 19.5C62.8064 19.5 61.6618 19.0259 60.8179 18.182C59.974 17.3381 59.4999 16.1935 59.4999 15ZM56.6087 24.8025C57.3505 23.4959 58.4254 22.4092 59.7238 21.6532C61.0223 20.8972 62.498 20.4989 64.0005 20.4989C65.5031 20.4989 66.9787 20.8972 68.2772 21.6532C69.5757 22.4092 70.6506 23.4959 71.3924 24.8025C69.3233 26.5447 66.7054 27.5001 64.0005 27.5001C61.2957 27.5001 58.6777 26.5447 56.6087 24.8025Z" fill="currentColor"/>
<path d="M124.406 8.1L123.666 7.67375C123.778 7.23153 123.778 6.76847 123.666 6.32625L124.406 5.9C124.579 5.80054 124.705 5.63668 124.756 5.44445C124.808 5.25223 124.781 5.04739 124.681 4.875C124.582 4.70261 124.418 4.57679 124.226 4.52522C124.034 4.47364 123.829 4.50054 123.656 4.6L122.915 5.02875C122.589 4.71114 122.188 4.47963 121.75 4.355V3.5C121.75 3.30109 121.671 3.11032 121.531 2.96967C121.39 2.82902 121.199 2.75 121 2.75C120.801 2.75 120.611 2.82902 120.47 2.96967C120.329 3.11032 120.25 3.30109 120.25 3.5V4.355C119.812 4.47963 119.412 4.71114 119.085 5.02875L118.344 4.6C118.172 4.50054 117.967 4.47364 117.775 4.52522C117.582 4.57679 117.418 4.70261 117.319 4.875C117.22 5.04739 117.193 5.25223 117.244 5.44445C117.296 5.63668 117.422 5.80054 117.594 5.9L118.334 6.32625C118.222 6.76847 118.222 7.23153 118.334 7.67375L117.594 8.1C117.422 8.19946 117.296 8.36332 117.244 8.55555C117.193 8.74777 117.22 8.95261 117.319 9.125C117.418 9.29739 117.582 9.42321 117.775 9.47478C117.967 9.52636 118.172 9.49946 118.344 9.4L119.085 8.97125C119.412 9.28885 119.812 9.52037 120.25 9.645V10.5C120.25 10.6989 120.329 10.8897 120.47 11.0303C120.611 11.171 120.801 11.25 121 11.25C121.199 11.25 121.39 11.171 121.531 11.0303C121.671 10.8897 121.75 10.6989 121.75 10.5V9.645C122.188 9.52037 122.589 9.28885 122.915 8.97125L123.656 9.4C123.829 9.49946 124.034 9.52636 124.226 9.47478C124.418 9.42321 124.582 9.29739 124.681 9.125C124.781 8.95261 124.808 8.74777 124.756 8.55555C124.705 8.36332 124.579 8.19946 124.406 8.1ZM121 8.25C120.753 8.25 120.511 8.17669 120.306 8.03934C120.1 7.90199 119.94 7.70676 119.845 7.47835C119.751 7.24995 119.726 6.99861 119.774 6.75614C119.822 6.51366 119.942 6.29093 120.116 6.11612C120.291 5.9413 120.514 5.82225 120.756 5.77402C120.999 5.72579 121.25 5.75054 121.479 5.84515C121.707 5.93976 121.902 6.09998 122.04 6.30554C122.177 6.5111 122.25 6.75277 122.25 7C122.25 7.33152 122.119 7.64946 121.884 7.88388C121.65 8.1183 121.332 8.25 121 8.25ZM123.71 13.26C123.514 13.293 123.339 13.4026 123.224 13.5646C123.109 13.7265 123.062 13.9277 123.095 14.1237C123.198 14.7439 123.25 15.3714 123.25 16C123.252 18.8652 122.157 21.6225 120.189 23.705C119.011 21.8727 117.249 20.4908 115.189 19.7825C116.216 19.0983 116.996 18.1016 117.413 16.9399C117.83 15.7783 117.863 14.5132 117.505 13.3318C117.148 12.1504 116.42 11.1153 115.428 10.3797C114.437 9.64404 113.236 9.24686 112.001 9.24686C110.767 9.24686 109.566 9.64404 108.574 10.3797C107.583 11.1153 106.855 12.1504 106.498 13.3318C106.14 14.5132 106.173 15.7783 106.59 16.9399C107.007 18.1016 107.787 19.0983 108.814 19.7825C106.754 20.4908 104.992 21.8727 103.814 23.705C102.308 22.107 101.303 20.1031 100.923 17.9406C100.543 15.7781 100.804 13.5515 101.675 11.5358C102.545 9.52005 103.987 7.80331 105.822 6.59744C107.657 5.39156 109.805 4.74933 112 4.75C112.628 4.75018 113.256 4.80202 113.875 4.905C113.973 4.92347 114.074 4.92222 114.171 4.90133C114.269 4.88045 114.361 4.84034 114.443 4.78336C114.525 4.72638 114.594 4.65367 114.648 4.56947C114.701 4.48528 114.737 4.39129 114.754 4.293C114.77 4.19472 114.767 4.0941 114.744 3.99705C114.722 3.89999 114.68 3.80844 114.621 3.72774C114.563 3.64704 114.489 3.57881 114.404 3.52704C114.318 3.47528 114.224 3.44101 114.125 3.42625C112.005 3.06697 109.828 3.24983 107.798 3.95782C105.767 4.66581 103.948 5.87591 102.511 7.47555C101.074 9.07519 100.064 11.0124 99.577 13.1069C99.0895 15.2015 99.1398 17.3853 99.723 19.4552C100.306 21.5251 101.404 23.4138 102.913 24.9457C104.422 26.4775 106.295 27.6027 108.356 28.2166C110.417 28.8304 112.599 28.913 114.701 28.4566C116.803 28.0002 118.754 27.0197 120.375 25.6063C120.456 25.7763 120.585 25.6063 120.668 25.3425C122.219 23.905 123.388 22.1042 124.07 20.1023C124.752 18.1005 124.925 15.9605 124.574 13.875C124.541 13.6789 124.431 13.504 124.269 13.3887C124.107 13.2734 123.906 13.2271 123.71 13.26ZM107.75 15C107.75 14.1594 107.999 13.3377 108.466 12.6388C108.933 11.9399 109.597 11.3952 110.374 11.0735C111.15 10.7518 112.005 10.6677 112.829 10.8317C113.654 10.9956 114.411 11.4004 115.005 11.9948C115.6 12.5892 116.005 13.3464 116.169 14.1709C116.333 14.9953 116.248 15.8498 115.927 16.6264C115.605 17.403 115.06 18.0668 114.361 18.5337C113.662 19.0007 112.841 19.25 112 19.25C110.873 19.25 109.792 18.8022 108.995 18.0052C108.198 17.2082 107.75 16.1272 107.75 15ZM104.93 24.75C105.664 23.5303 106.7 22.5212 107.939 21.8206C109.178 21.12 110.577 20.7518 112 20.7518C113.423 20.7518 114.822 21.12 116.061 21.8206C117.3 22.5212 118.337 23.5303 119.07 24.75C117.071 26.3714 114.575 27.2563 112 27.2563C109.426 27.2563 106.93 26.3714 104.93 24.75Z" fill="currentColor"/>
<path d="M165.196 5.76375C165.319 5.38552 165.588 5.07165 165.942 4.89116C166.296 4.71067 166.708 4.67833 167.086 4.80125L167.5 4.935V4.5C167.5 4.10218 167.658 3.72064 167.939 3.43934C168.221 3.15804 168.602 3 169 3C169.398 3 169.779 3.15804 170.061 3.43934C170.342 3.72064 170.5 4.10218 170.5 4.5V4.935L170.914 4.80125C171.102 4.73619 171.302 4.70931 171.5 4.72218C171.699 4.73506 171.894 4.78744 172.072 4.87625C172.25 4.96506 172.409 5.08854 172.539 5.23945C172.67 5.39037 172.768 5.56571 172.83 5.75522C172.892 5.94474 172.915 6.14463 172.898 6.34323C172.882 6.54183 172.826 6.73515 172.734 6.9119C172.642 7.08865 172.515 7.24529 172.362 7.37266C172.209 7.50003 172.032 7.59559 171.841 7.65375L171.428 7.78875L171.678 8.14125C171.8 8.30012 171.889 8.4819 171.94 8.67583C171.991 8.86976 172.002 9.07191 171.973 9.27033C171.945 9.46876 171.877 9.65943 171.773 9.83108C171.67 10.0027 171.533 10.1519 171.37 10.2697C171.208 10.3875 171.024 10.4716 170.829 10.5171C170.633 10.5625 170.431 10.5684 170.234 10.5342C170.036 10.5001 169.847 10.4267 169.679 10.3185C169.51 10.2102 169.365 10.0692 169.251 9.90375L169 9.5525L168.75 9.90375C168.637 10.0692 168.491 10.2102 168.323 10.3185C168.154 10.4267 167.965 10.5001 167.768 10.5342C167.57 10.5684 167.368 10.5625 167.173 10.5171C166.977 10.4716 166.793 10.3875 166.631 10.2697C166.469 10.1519 166.332 10.0027 166.228 9.83108C166.125 9.65943 166.056 9.46876 166.028 9.27033C165.999 9.07191 166.011 8.86976 166.061 8.67583C166.112 8.4819 166.201 8.30012 166.324 8.14125L166.574 7.78875L166.16 7.65375C165.973 7.59295 165.799 7.49583 165.649 7.36794C165.499 7.24005 165.376 7.08389 165.287 6.90838C165.197 6.73287 165.143 6.54145 165.128 6.34505C165.112 6.14866 165.135 5.95113 165.196 5.76375ZM173.5 16C173.5 18.67 172.708 21.2801 171.225 23.5002C169.741 25.7203 167.633 27.4506 165.166 28.4724C162.699 29.4942 159.985 29.7615 157.366 29.2406C154.748 28.7197 152.342 27.434 150.454 25.5459C148.566 23.6579 147.28 21.2525 146.759 18.6337C146.239 16.015 146.506 13.3006 147.528 10.8338C148.549 8.36697 150.28 6.25856 152.5 4.77516C154.72 3.29176 157.33 2.5 160 2.5C160.754 2.49984 161.506 2.56214 162.25 2.68625C162.642 2.75255 162.992 2.97201 163.223 3.29633C163.453 3.62065 163.546 4.02327 163.479 4.41563C163.413 4.80798 163.194 5.15793 162.869 5.38848C162.545 5.61903 162.142 5.7113 161.75 5.645C161.172 5.54846 160.586 5.49996 160 5.5C158.029 5.49867 156.097 6.05259 154.426 7.0983C152.756 8.14402 151.413 9.63924 150.553 11.4127C149.692 13.1861 149.349 15.166 149.562 17.1256C149.775 19.0852 150.535 20.9452 151.756 22.4925C152.728 21.2559 153.968 20.2551 155.381 19.565C154.48 18.6527 153.869 17.4944 153.625 16.2358C153.381 14.9772 153.515 13.6744 154.009 12.4915C154.503 11.3085 155.336 10.2982 156.404 9.58757C157.471 8.87695 158.724 8.49779 160.006 8.49779C161.288 8.49779 162.542 8.87695 163.609 9.58757C164.676 10.2982 165.509 11.3085 166.004 12.4915C166.498 13.6744 166.631 14.9772 166.387 16.2358C166.143 17.4944 165.532 18.6527 164.631 19.565C166.045 20.2551 167.284 21.2559 168.256 22.4925C169.715 20.6432 170.505 18.3552 170.5 16C170.5 15.4137 170.451 14.8283 170.355 14.25C170.289 13.8576 170.381 13.455 170.612 13.1307C170.842 12.8064 171.192 12.5869 171.584 12.5206C171.977 12.4543 172.379 12.5466 172.704 12.7771C173.028 13.0077 173.247 13.3576 173.314 13.75C173.438 14.4936 173.5 15.2461 173.5 16ZM160 18.5C160.692 18.5 161.369 18.2947 161.945 17.9101C162.52 17.5256 162.969 16.9789 163.234 16.3394C163.498 15.6999 163.568 14.9961 163.433 14.3172C163.298 13.6383 162.964 13.0146 162.475 12.5251C161.985 12.0356 161.362 11.7023 160.683 11.5673C160.004 11.4322 159.3 11.5015 158.661 11.7664C158.021 12.0313 157.474 12.4799 157.09 13.0555C156.705 13.6311 156.5 14.3078 156.5 15C156.5 15.9283 156.869 16.8185 157.525 17.4749C158.182 18.1313 159.072 18.5 160 18.5ZM160 26.5C162.169 26.5016 164.285 25.8274 166.054 24.5713C165.357 23.6191 164.446 22.8447 163.394 22.3108C162.343 21.7769 161.18 21.4987 160 21.4987C158.82 21.4987 157.657 21.7769 156.606 22.3108C155.554 22.8447 154.643 23.6191 153.946 24.5713C155.715 25.8274 157.831 26.5016 160 26.5Z" fill="currentColor"/>
<path d="M220.531 7.88375L219.949 7.5475C220.017 7.1857 220.017 6.8143 219.949 6.4525L220.531 6.11625C220.761 5.98364 220.929 5.7652 220.997 5.50898C221.066 5.25276 221.03 4.97974 220.898 4.75C220.765 4.52026 220.546 4.3526 220.29 4.28392C220.034 4.21523 219.761 4.25114 219.531 4.38375L218.948 4.72125C218.668 4.48157 218.347 4.29554 218 4.1725V3.5C218 3.23478 217.895 2.98043 217.707 2.79289C217.52 2.60536 217.265 2.5 217 2.5C216.735 2.5 216.48 2.60536 216.293 2.79289C216.105 2.98043 216 3.23478 216 3.5V4.1725C215.653 4.29554 215.332 4.48157 215.053 4.72125L214.469 4.38375C214.355 4.31809 214.229 4.27548 214.099 4.25835C213.969 4.24122 213.837 4.24991 213.71 4.28392C213.583 4.31792 213.464 4.37659 213.36 4.45656C213.256 4.53653 213.168 4.63624 213.103 4.75C213.037 4.86376 212.994 4.98933 212.977 5.11956C212.96 5.24979 212.969 5.38211 213.003 5.50898C213.037 5.63585 213.095 5.75477 213.175 5.85897C213.255 5.96316 213.355 6.05059 213.469 6.11625L214.051 6.4525C213.983 6.8143 213.983 7.1857 214.051 7.5475L213.469 7.88375C213.278 7.99377 213.129 8.16367 213.045 8.36709C212.96 8.57052 212.945 8.79609 213.002 9.00879C213.059 9.22149 213.185 9.40944 213.36 9.54346C213.534 9.67748 213.749 9.75009 213.969 9.75C214.144 9.75054 214.317 9.70438 214.469 9.61625L215.053 9.27875C215.332 9.51843 215.653 9.70446 216 9.8275V10.5C216 10.7652 216.105 11.0196 216.293 11.2071C216.48 11.3946 216.735 11.5 217 11.5C217.265 11.5 217.52 11.3946 217.707 11.2071C217.895 11.0196 218 10.7652 218 10.5V9.8275C218.347 9.70446 218.668 9.51843 218.948 9.27875L219.531 9.61625C219.683 9.70438 219.856 9.75054 220.031 9.75C220.251 9.75009 220.466 9.67748 220.64 9.54346C220.815 9.40944 220.941 9.22149 220.998 9.00879C221.055 8.79609 221.04 8.57052 220.955 8.36709C220.871 8.16367 220.722 7.99377 220.531 7.88375ZM217 8C216.802 8 216.609 7.94135 216.444 7.83147C216.28 7.72159 216.152 7.56541 216.076 7.38268C216 7.19996 215.981 6.99889 216.019 6.80491C216.058 6.61093 216.153 6.43275 216.293 6.29289C216.433 6.15304 216.611 6.0578 216.805 6.01921C216.999 5.98063 217.2 6.00043 217.383 6.07612C217.565 6.15181 217.722 6.27998 217.832 6.44443C217.941 6.60888 218 6.80222 218 7C218 7.26522 217.895 7.51957 217.707 7.70711C217.52 7.89464 217.265 8 217 8ZM208 9.5C209.088 9.5 210.151 9.82257 211.056 10.4269C211.96 11.0313 212.665 11.8902 213.081 12.8952C213.498 13.9002 213.607 15.0061 213.394 16.073C213.182 17.1399 212.658 18.1199 211.889 18.8891C211.12 19.6583 210.14 20.1821 209.073 20.3943C208.006 20.6065 206.9 20.4976 205.895 20.0813C204.89 19.6651 204.031 18.9601 203.427 18.0556C202.823 17.1512 202.5 16.0878 202.5 15C202.5 13.5413 203.079 12.1424 204.111 11.1109C205.142 10.0795 206.541 9.5 208 9.5ZM220.82 13.835C221.277 16.5507 220.859 19.3413 219.626 21.804C218.394 24.2666 216.41 26.2738 213.963 27.5358C211.515 28.7977 208.73 29.2492 206.009 28.8249C203.288 28.4006 200.772 27.1226 198.825 25.1753C196.877 23.228 195.599 20.7123 195.175 17.9913C194.751 15.2703 195.202 12.4849 196.464 10.0372C197.726 7.58956 199.733 5.60627 202.196 4.37372C204.659 3.14117 207.449 2.72314 210.165 3.18C210.425 3.22591 210.656 3.37245 210.808 3.58776C210.96 3.80307 211.021 4.06973 210.977 4.32973C210.934 4.58972 210.789 4.82203 210.575 4.97611C210.362 5.13019 210.095 5.19359 209.835 5.1525C208.258 4.88716 206.641 4.96872 205.099 5.39151C203.556 5.8143 202.124 6.56816 200.903 7.60062C199.681 8.63309 198.699 9.91937 198.025 11.3699C197.351 12.8205 197.001 14.4005 197 16C196.998 18.6927 197.987 21.292 199.78 23.3013C200.507 22.2468 201.431 21.3423 202.5 20.6375C202.591 20.5773 202.7 20.5486 202.809 20.5558C202.918 20.563 203.021 20.6058 203.104 20.6775C204.462 21.8531 206.199 22.5001 207.996 22.5001C209.792 22.5001 211.529 21.8531 212.888 20.6775C212.97 20.6055 213.074 20.5626 213.183 20.5553C213.293 20.5481 213.401 20.577 213.493 20.6375C214.563 21.3423 215.488 22.2467 216.216 23.3013C218.01 21.2925 219.001 18.6932 219 16C219 15.3852 218.949 14.7714 218.848 14.165C218.825 14.0349 218.828 13.9016 218.856 13.7726C218.885 13.6437 218.939 13.5218 219.015 13.4139C219.092 13.306 219.189 13.2143 219.3 13.144C219.412 13.0738 219.537 13.0264 219.667 13.0046C219.798 12.9828 219.931 12.987 220.06 13.017C220.188 13.047 220.31 13.1023 220.417 13.1795C220.524 13.2567 220.615 13.3544 220.684 13.4669C220.753 13.5794 220.799 13.7045 220.82 13.835Z" fill="currentColor"/>
<path opacity="0.2" d="M268 16.0001C268.002 17.683 267.649 19.3473 266.964 20.8846C266.279 22.4218 265.277 23.7973 264.025 24.9213C263.272 23.4402 262.124 22.1964 260.707 21.3278C259.291 20.4592 257.661 19.9996 256 20.0001C256.989 20.0001 257.956 19.7068 258.778 19.1574C259.6 18.608 260.241 17.8271 260.619 16.9135C260.998 15.9999 261.097 14.9945 260.904 14.0246C260.711 13.0547 260.235 12.1638 259.535 11.4645C258.836 10.7653 257.945 10.2891 256.975 10.0961C256.005 9.90322 255 10.0022 254.087 10.3807C253.173 10.7591 252.392 11.4 251.843 12.2222C251.293 13.0445 251 14.0112 251 15.0001C251 16.3262 251.527 17.5979 252.464 18.5356C253.402 19.4733 254.674 20.0001 256 20.0001C254.338 19.9996 252.709 20.4592 251.293 21.3278C249.876 22.1964 248.728 23.4402 247.975 24.9213C245.684 22.8609 244.274 19.9984 244.036 16.9266C243.798 13.8548 244.75 10.8092 246.696 8.42048C248.642 6.03179 251.432 4.48306 254.489 4.09508C257.545 3.7071 260.634 4.50958 263.115 6.33632C262.99 6.69173 262.969 7.07508 263.053 7.44224C263.136 7.8094 263.322 8.14546 263.588 8.41175C263.855 8.67804 264.191 8.86373 264.558 8.94747C264.925 9.0312 265.308 9.00957 265.664 8.88507C267.185 10.9452 268.004 13.4394 268 16.0001Z" fill="currentColor"/>
<path d="M268.531 7.88375L267.949 7.5475C268.017 7.1857 268.017 6.8143 267.949 6.4525L268.531 6.11625C268.761 5.98364 268.929 5.7652 268.997 5.50898C269.066 5.25276 269.03 4.97974 268.898 4.75C268.765 4.52026 268.546 4.3526 268.29 4.28392C268.034 4.21523 267.761 4.25114 267.531 4.38375L266.948 4.72125C266.668 4.48157 266.347 4.29554 266 4.1725V3.5C266 3.23478 265.895 2.98043 265.707 2.79289C265.52 2.60536 265.265 2.5 265 2.5C264.735 2.5 264.48 2.60536 264.293 2.79289C264.105 2.98043 264 3.23478 264 3.5V4.1725C263.653 4.29554 263.332 4.48157 263.053 4.72125L262.469 4.38375C262.355 4.31809 262.229 4.27548 262.099 4.25835C261.969 4.24122 261.837 4.24991 261.71 4.28392C261.583 4.31792 261.464 4.37659 261.36 4.45656C261.256 4.53653 261.168 4.63624 261.103 4.75C261.037 4.86376 260.994 4.98933 260.977 5.11956C260.96 5.24979 260.969 5.38211 261.003 5.50898C261.037 5.63585 261.095 5.75477 261.175 5.85897C261.255 5.96316 261.355 6.05059 261.469 6.11625L262.051 6.4525C261.983 6.8143 261.983 7.1857 262.051 7.5475L261.469 7.88375C261.278 7.99377 261.129 8.16367 261.045 8.36709C260.96 8.57052 260.945 8.79609 261.002 9.00879C261.059 9.22149 261.185 9.40944 261.36 9.54346C261.534 9.67748 261.749 9.75009 261.969 9.75C262.144 9.75054 262.317 9.70438 262.469 9.61625L263.053 9.27875C263.332 9.51843 263.653 9.70446 264 9.8275V10.5C264 10.7652 264.105 11.0196 264.293 11.2071C264.48 11.3946 264.735 11.5 265 11.5C265.265 11.5 265.52 11.3946 265.707 11.2071C265.895 11.0196 266 10.7652 266 10.5V9.8275C266.347 9.70446 266.668 9.51843 266.948 9.27875L267.531 9.61625C267.683 9.70438 267.856 9.75054 268.031 9.75C268.251 9.75009 268.466 9.67748 268.64 9.54346C268.815 9.40944 268.941 9.22149 268.998 9.00879C269.055 8.79609 269.04 8.57052 268.955 8.36709C268.871 8.16367 268.722 7.99377 268.531 7.88375ZM264 7C264 6.80222 264.059 6.60888 264.169 6.44443C264.278 6.27998 264.435 6.15181 264.617 6.07612C264.8 6.00043 265.001 5.98063 265.195 6.01921C265.389 6.0578 265.567 6.15304 265.707 6.29289C265.847 6.43275 265.942 6.61093 265.981 6.80491C266.019 6.99889 266 7.19996 265.924 7.38268C265.848 7.56541 265.72 7.72159 265.556 7.83147C265.391 7.94135 265.198 8 265 8C264.735 8 264.48 7.89464 264.293 7.70711C264.105 7.51957 264 7.26522 264 7ZM267.669 13.0138C267.407 13.0575 267.174 13.2034 267.02 13.4193C266.866 13.6352 266.804 13.9034 266.848 14.165C266.949 14.7714 267 15.3852 267 16C267.002 18.6927 266.013 21.292 264.22 23.3013C263.105 21.6851 261.537 20.4348 259.713 19.7075C260.692 18.9358 261.407 17.878 261.758 16.6811C262.109 15.4843 262.078 14.2079 261.669 13.0294C261.261 11.851 260.496 10.8291 259.479 10.1059C258.463 9.38262 257.247 8.99397 256 8.99397C254.753 8.99397 253.537 9.38262 252.521 10.1059C251.505 10.8291 250.739 11.851 250.331 13.0294C249.922 14.2079 249.891 15.4843 250.242 16.6811C250.593 17.878 251.308 18.9358 252.288 19.7075C250.464 20.4348 248.895 21.6851 247.78 23.3013C246.373 21.7162 245.455 19.7586 245.134 17.6638C244.814 15.569 245.105 13.4262 245.973 11.4931C246.841 9.55995 248.25 7.91877 250.028 6.76688C251.807 5.615 253.881 5.00144 256 5C256.615 4.9999 257.229 5.05091 257.835 5.1525C258.095 5.19359 258.362 5.13019 258.575 4.97611C258.789 4.82203 258.934 4.58972 258.977 4.32973C259.021 4.06973 258.96 3.80307 258.808 3.58776C258.656 3.37245 258.425 3.22591 258.165 3.18C255.449 2.72314 252.659 3.14117 250.196 4.37372C247.733 5.60627 245.726 7.58956 244.464 10.0372C243.202 12.4849 242.751 15.2703 243.175 17.9913C243.599 20.7123 244.877 23.228 246.825 25.1753C248.772 27.1226 251.288 28.4006 254.009 28.8249C256.73 29.2492 259.515 28.7977 261.963 27.5358C264.41 26.2738 266.394 24.2666 267.626 21.804C268.859 19.3413 269.277 16.5507 268.82 13.835C268.776 13.5734 268.63 13.34 268.414 13.186C268.199 13.0319 267.93 12.97 267.669 13.0138ZM252 15C252 14.2089 252.235 13.4355 252.674 12.7777C253.114 12.1199 253.738 11.6072 254.469 11.3045C255.2 11.0017 256.004 10.9225 256.78 11.0769C257.556 11.2312 258.269 11.6122 258.828 12.1716C259.388 12.731 259.769 13.4437 259.923 14.2196C260.078 14.9956 259.998 15.7998 259.696 16.5307C259.393 17.2616 258.88 17.8864 258.222 18.3259C257.565 18.7654 256.791 19 256 19C254.939 19 253.922 18.5786 253.172 17.8284C252.421 17.0783 252 16.0609 252 15ZM249.26 24.6875C249.983 23.5561 250.98 22.625 252.158 21.9801C253.336 21.3351 254.657 20.9971 256 20.9971C257.343 20.9971 258.664 21.3351 259.842 21.9801C261.02 22.625 262.017 23.5561 262.74 24.6875C260.813 26.1862 258.441 26.9999 256 26.9999C253.559 26.9999 251.187 26.1862 249.26 24.6875Z" fill="currentColor"/>
</g>
<defs>
<clipPath id="clip0_17_4319">
<rect width="272" height="32" rx="5" fill="white"/>
</clipPath>
</defs>
</svg>
