<svg width="272" height="32" viewBox="0 0 272 32" fill="none" xmlns="http://www.w3.org/2000/svg">
<g clip-path="url(#clip0_17_13353)">
<path d="M30.9999 21V25C30.9999 25.2652 30.8945 25.5196 30.707 25.7071C30.5195 25.8946 30.2651 26 29.9999 26C29.7347 26 29.4803 25.8946 29.2928 25.7071C29.1052 25.5196 28.9999 25.2652 28.9999 25V23.4137L28.7236 23.6912C28.3361 24.1125 23.6799 29 15.9999 29C8.14489 29 3.45239 23.8863 3.25614 23.6688C3.07877 23.4707 2.98736 23.2102 3.00201 22.9448C3.01666 22.6793 3.13618 22.4305 3.33426 22.2531C3.53234 22.0758 3.79277 21.9844 4.05825 21.999C4.32373 22.0137 4.57252 22.1332 4.74989 22.3312C4.78364 22.375 9.06239 27 15.9999 27C22.9374 27 27.2161 22.375 27.2586 22.33C27.2692 22.3169 27.2805 22.3044 27.2924 22.2925L27.5861 22H25.9999C25.7347 22 25.4803 21.8946 25.2928 21.7071C25.1052 21.5196 24.9999 21.2652 24.9999 21C24.9999 20.7348 25.1052 20.4804 25.2928 20.2929C25.4803 20.1054 25.7347 20 25.9999 20H29.9999C30.2651 20 30.5195 20.1054 30.707 20.2929C30.8945 20.4804 30.9999 20.7348 30.9999 21ZM19.9999 11.8163V10.5C20.0006 9.48887 19.6607 8.50698 19.035 7.71265C18.4094 6.91832 17.5345 6.35785 16.5513 6.12159C15.5682 5.88534 14.5341 5.98708 13.6159 6.4104C12.6976 6.83373 11.9487 7.55397 11.4899 8.455C11.3692 8.69121 11.1596 8.86981 10.9073 8.9515C10.6549 9.0332 10.3805 9.0113 10.1443 8.89063C9.90805 8.76995 9.72946 8.56039 9.64776 8.30803C9.56607 8.05568 9.58796 7.78121 9.70864 7.545C10.3717 6.24396 11.4536 5.20409 12.7798 4.59301C14.1061 3.98193 15.5995 3.83525 17.0193 4.17659C18.4391 4.51793 19.7026 5.32742 20.6062 6.47458C21.5097 7.62174 22.0007 9.03973 21.9999 10.5V22C21.9999 22.2652 21.8945 22.5196 21.707 22.7071C21.5195 22.8946 21.2651 23 20.9999 23C20.7347 23 20.4803 22.8946 20.2928 22.7071C20.1052 22.5196 19.9999 22.2652 19.9999 22V21.1838C19.0812 22.0678 17.9228 22.6621 16.6689 22.8927C15.415 23.1234 14.121 22.9802 12.9479 22.481C11.7747 21.9818 10.7743 21.1486 10.0711 20.0852C9.36788 19.0217 8.99295 17.7749 8.99295 16.5C8.99295 15.2251 9.36788 13.9783 10.0711 12.9148C10.7743 11.8514 11.7747 11.0182 12.9479 10.519C14.121 10.0198 15.415 9.8766 16.6689 10.1073C17.9228 10.3379 19.0812 10.9322 19.9999 11.8163ZM19.9999 16.5C19.9999 15.61 19.736 14.74 19.2415 13.9999C18.747 13.2599 18.0442 12.6831 17.222 12.3425C16.3997 12.0019 15.4949 11.9128 14.622 12.0865C13.7491 12.2601 12.9472 12.6887 12.3179 13.318C11.6886 13.9474 11.26 14.7492 11.0864 15.6221C10.9127 16.495 11.0018 17.3998 11.3424 18.2221C11.683 19.0443 12.2598 19.7471 12.9998 20.2416C13.7398 20.7361 14.6099 21 15.4999 21C16.0908 21 16.676 20.8836 17.222 20.6575C17.7679 20.4313 18.264 20.0998 18.6819 19.682C19.0997 19.2641 19.4312 18.768 19.6573 18.2221C19.8835 17.6761 19.9999 17.0909 19.9999 16.5Z" fill="currentColor"/>
<path d="M78.4999 21V25C78.4999 25.1326 78.4472 25.2598 78.3535 25.3536C78.2597 25.4473 78.1325 25.5 77.9999 25.5C77.8673 25.5 77.7401 25.4473 77.6464 25.3536C77.5526 25.2598 77.4999 25.1326 77.4999 25V22.2075L76.3624 23.345C76.0649 23.6712 71.5374 28.5 63.9999 28.5C56.3649 28.5 51.8187 23.545 51.6249 23.335C51.5361 23.2355 51.4904 23.1049 51.4979 22.9717C51.5054 22.8386 51.5655 22.7138 51.6649 22.625C51.7644 22.5361 51.895 22.4904 52.0282 22.498C52.1613 22.5055 52.2861 22.5655 52.3749 22.665C52.4187 22.7137 56.8287 27.5 63.9999 27.5C71.1712 27.5 75.5849 22.7137 75.6249 22.665L75.6424 22.6462L76.7887 21.5H73.9999C73.8673 21.5 73.7401 21.4473 73.6464 21.3536C73.5526 21.2598 73.4999 21.1326 73.4999 21C73.4999 20.8674 73.5526 20.7402 73.6464 20.6464C73.7401 20.5527 73.8673 20.5 73.9999 20.5H77.9999C78.1325 20.5 78.2597 20.5527 78.3535 20.6464C78.4472 20.7402 78.4999 20.8674 78.4999 21ZM68.4999 13.1887V10.5C68.5005 9.3767 68.1228 8.28593 67.4277 7.40352C66.7326 6.52111 65.7606 5.89847 64.6684 5.63596C63.5762 5.37345 62.4274 5.48637 61.4072 5.95651C60.387 6.42666 59.5549 7.22664 59.0449 8.2275C59.0162 8.28794 58.9757 8.34202 58.9258 8.38652C58.8758 8.43103 58.8174 8.46505 58.7541 8.48658C58.6907 8.5081 58.6237 8.5167 58.557 8.51185C58.4902 8.50701 58.4252 8.48882 58.3656 8.45836C58.306 8.42791 58.2532 8.3858 58.2101 8.33455C58.1671 8.2833 58.1349 8.22393 58.1152 8.15998C58.0956 8.09602 58.089 8.02877 58.0958 7.96221C58.1026 7.89566 58.1227 7.83114 58.1549 7.7725C58.7672 6.57197 59.7658 5.61252 60.9899 5.04874C62.2139 4.48496 63.5921 4.34969 64.9024 4.6647C66.2127 4.97972 67.3789 5.72669 68.2129 6.78526C69.0469 7.84383 69.5003 9.15235 69.4999 10.5V22C69.4999 22.1326 69.4472 22.2598 69.3535 22.3536C69.2597 22.4473 69.1325 22.5 68.9999 22.5C68.8673 22.5 68.7401 22.4473 68.6464 22.3536C68.5526 22.2598 68.4999 22.1326 68.4999 22V19.8112C67.7881 20.8863 66.7489 21.7035 65.5363 22.1416C64.3236 22.5798 63.0021 22.6157 61.7675 22.244C60.5329 21.8723 59.4508 21.1128 58.6817 20.078C57.9125 19.0432 57.4972 17.7881 57.4972 16.4987C57.4972 15.2094 57.9125 13.9543 58.6817 12.9195C59.4508 11.8847 60.5329 11.1252 61.7675 10.7535C63.0021 10.3818 64.3236 10.4177 65.5363 10.8559C66.7489 11.294 67.7881 12.1112 68.4999 13.1862V13.1887ZM68.4999 16.5C68.4999 15.5111 68.2067 14.5444 67.6573 13.7221C67.1079 12.8999 66.327 12.259 65.4133 11.8806C64.4997 11.5022 63.4944 11.4031 62.5245 11.5961C61.5546 11.789 60.6636 12.2652 59.9644 12.9645C59.2651 13.6637 58.7889 14.5546 58.596 15.5245C58.4031 16.4945 58.5021 17.4998 58.8805 18.4134C59.259 19.327 59.8998 20.1079 60.7221 20.6573C61.5443 21.2068 62.511 21.5 63.4999 21.5C64.1565 21.5 64.8067 21.3707 65.4133 21.1194C66.02 20.8681 66.5712 20.4998 67.0354 20.0355C67.4997 19.5712 67.868 19.02 68.1193 18.4134C68.3706 17.8068 68.4999 17.1566 68.4999 16.5Z" fill="currentColor"/>
<path d="M126.75 21V25C126.75 25.1989 126.671 25.3897 126.53 25.5303C126.39 25.671 126.199 25.75 126 25.75C125.801 25.75 125.61 25.671 125.47 25.5303C125.329 25.3897 125.25 25.1989 125.25 25V22.81L124.542 23.5175C124.2 23.8938 119.607 28.75 112 28.75C104.25 28.75 99.6349 23.7163 99.4424 23.5C99.3703 23.4279 99.3136 23.3419 99.2758 23.2472C99.238 23.1525 99.2199 23.0511 99.2227 22.9492C99.2254 22.8473 99.2489 22.747 99.2917 22.6545C99.3345 22.5619 99.3958 22.4791 99.4717 22.411C99.5476 22.3429 99.6365 22.2911 99.7332 22.2585C99.8298 22.226 99.9321 22.2135 100.034 22.2219C100.135 22.2302 100.234 22.2592 100.324 22.307C100.414 22.3548 100.494 22.4205 100.557 22.5C100.6 22.5463 104.944 27.25 112 27.25C119.056 27.25 123.4 22.545 123.444 22.5L123.47 22.4725L124.19 21.7525H122C121.801 21.7525 121.61 21.6735 121.47 21.5328C121.329 21.3922 121.25 21.2014 121.25 21.0025C121.25 20.8036 121.329 20.6128 121.47 20.4722C121.61 20.3315 121.801 20.2525 122 20.2525H126C126.198 20.2525 126.389 20.3312 126.529 20.4713C126.67 20.6114 126.749 20.8015 126.75 21ZM116.25 12.445V10.5C116.251 9.43279 115.892 8.39646 115.231 7.55809C114.571 6.71972 113.648 6.12816 112.61 5.87878C111.572 5.6294 110.481 5.73673 109.512 6.18346C108.542 6.6302 107.752 7.39031 107.267 8.34125C107.224 8.43192 107.164 8.51304 107.089 8.57979C107.014 8.64654 106.926 8.69758 106.831 8.72987C106.736 8.76216 106.636 8.77505 106.535 8.76778C106.435 8.76051 106.338 8.73323 106.248 8.68755C106.159 8.64186 106.08 8.57871 106.015 8.50183C105.951 8.42495 105.902 8.3359 105.873 8.23997C105.843 8.14403 105.833 8.04316 105.844 7.94332C105.854 7.84349 105.884 7.74672 105.932 7.65875C106.57 6.4083 107.61 5.40899 108.885 4.8218C110.161 4.23462 111.596 4.09375 112.961 4.42189C114.326 4.75004 115.54 5.52809 116.409 6.6307C117.278 7.73331 117.75 9.09627 117.75 10.5V22C117.75 22.1989 117.671 22.3897 117.53 22.5303C117.39 22.671 117.199 22.75 117 22.75C116.801 22.75 116.61 22.671 116.47 22.5303C116.329 22.3897 116.25 22.1989 116.25 22V20.555C115.42 21.5278 114.313 22.2229 113.076 22.5465C111.839 22.8701 110.533 22.8066 109.333 22.3646C108.134 21.9226 107.098 21.1234 106.367 20.0748C105.636 19.0261 105.244 17.7784 105.244 16.5C105.244 15.2216 105.636 13.9739 106.367 12.9252C107.098 11.8766 108.134 11.0774 109.333 10.6354C110.533 10.1934 111.839 10.1299 113.076 10.4535C114.313 10.7771 115.42 11.4722 116.25 12.445ZM116.25 16.5C116.25 15.5605 115.971 14.6422 115.449 13.861C114.927 13.0799 114.186 12.4711 113.318 12.1116C112.45 11.7521 111.495 11.658 110.573 11.8413C109.652 12.0246 108.805 12.4769 108.141 13.1412C107.477 13.8055 107.024 14.6519 106.841 15.5733C106.658 16.4947 106.752 17.4498 107.111 18.3177C107.471 19.1857 108.08 19.9275 108.861 20.4495C109.642 20.9714 110.56 21.25 111.5 21.25C112.76 21.25 113.968 20.7496 114.859 19.8588C115.749 18.968 116.25 17.7598 116.25 16.5Z" fill="currentColor"/>
<path d="M175.5 21V25C175.5 25.3978 175.342 25.7794 175.061 26.0607C174.779 26.342 174.398 26.5 174 26.5C173.602 26.5 173.221 26.342 172.939 26.0607C172.658 25.7794 172.5 25.3978 172.5 25V24.6137C170.945 26.0512 166.531 29.5 160 29.5C151.925 29.5 147.088 24.2275 146.885 24C146.741 23.8559 146.627 23.6839 146.552 23.4945C146.476 23.3051 146.44 23.1023 146.446 22.8984C146.451 22.6946 146.498 22.494 146.584 22.3089C146.669 22.1239 146.792 21.9582 146.944 21.822C147.095 21.6859 147.273 21.5821 147.467 21.5171C147.66 21.452 147.864 21.4271 148.068 21.4437C148.271 21.4604 148.469 21.5183 148.649 21.614C148.829 21.7096 148.987 21.841 149.115 22C149.153 22.0412 153.3 26.5 160 26.5C165.331 26.5 169.043 23.6775 170.359 22.5H170C169.602 22.5 169.221 22.342 168.939 22.0607C168.658 21.7794 168.5 21.3978 168.5 21C168.5 20.6022 168.658 20.2206 168.939 19.9393C169.221 19.658 169.602 19.5 170 19.5H174C174.398 19.5 174.779 19.658 175.061 19.9393C175.342 20.2206 175.5 20.6022 175.5 21ZM163.5 10.76V10.5C163.5 9.63742 163.222 8.79786 162.706 8.10654C162.19 7.41522 161.464 6.90917 160.638 6.66388C159.811 6.41859 158.926 6.44719 158.117 6.74542C157.308 7.04365 156.616 7.59553 156.146 8.31875C155.929 8.65209 155.588 8.88552 155.199 8.96769C154.81 9.04985 154.404 8.97402 154.071 8.75687C153.737 8.53973 153.504 8.19905 153.422 7.8098C153.34 7.42054 153.415 7.01459 153.633 6.68125C154.456 5.41622 155.665 4.45106 157.082 3.92966C158.498 3.40826 160.045 3.35854 161.492 3.78792C162.938 4.2173 164.208 5.10279 165.11 6.31236C166.013 7.52193 166.5 8.9908 166.5 10.5V22C166.498 22.3764 166.354 22.7382 166.097 23.0134C165.84 23.2886 165.489 23.4572 165.114 23.4857C164.738 23.5142 164.366 23.4005 164.07 23.1672C163.775 22.9339 163.578 22.598 163.519 22.2262C162.471 22.9628 161.241 23.3978 159.963 23.4839C158.686 23.5699 157.409 23.3038 156.272 22.7144C155.135 22.125 154.181 21.235 153.515 20.1412C152.849 19.0475 152.495 17.7919 152.493 16.5111C152.491 15.2304 152.84 13.9737 153.503 12.8777C154.166 11.7818 155.116 10.8886 156.251 10.2955C157.386 9.70244 158.663 9.43212 159.941 9.51402C161.219 9.59591 162.45 10.0269 163.5 10.76ZM163.5 16.5C163.5 15.7089 163.265 14.9355 162.826 14.2777C162.386 13.6199 161.762 13.1072 161.031 12.8045C160.3 12.5017 159.496 12.4225 158.72 12.5769C157.944 12.7312 157.231 13.1122 156.672 13.6716C156.112 14.231 155.731 14.9437 155.577 15.7196C155.423 16.4956 155.502 17.2998 155.805 18.0307C156.107 18.7616 156.62 19.3864 157.278 19.8259C157.936 20.2654 158.709 20.5 159.5 20.5C160.561 20.5 161.578 20.0786 162.328 19.3284C163.079 18.5783 163.5 17.5609 163.5 16.5Z" fill="currentColor"/>
<path d="M211 17C211 17.5933 210.824 18.1734 210.494 18.6667C210.165 19.1601 209.696 19.5446 209.148 19.7716C208.6 19.9987 207.997 20.0581 207.415 19.9424C206.833 19.8266 206.298 19.5409 205.879 19.1213C205.459 18.7018 205.173 18.1672 205.058 17.5853C204.942 17.0033 205.001 16.4001 205.228 15.8519C205.455 15.3038 205.84 14.8352 206.333 14.5056C206.827 14.1759 207.407 14 208 14C208.796 14 209.559 14.3161 210.121 14.8787C210.684 15.4413 211 16.2044 211 17ZM221 16C221 18.5712 220.238 21.0846 218.809 23.2224C217.381 25.3603 215.35 27.0265 212.975 28.0104C210.599 28.9944 207.986 29.2518 205.464 28.7502C202.942 28.2486 200.626 27.0105 198.808 25.1924C196.99 23.3743 195.751 21.0579 195.25 18.5362C194.748 16.0144 195.006 13.4006 195.99 11.0251C196.974 8.64968 198.64 6.61935 200.778 5.1909C202.915 3.76244 205.429 3 208 3C211.447 3.00364 214.751 4.37445 217.188 6.81163C219.626 9.24882 220.996 12.5533 221 16ZM211 13C210.257 12.4429 209.374 12.1036 208.449 12.0202C207.524 11.9368 206.594 12.1126 205.764 12.5279C204.933 12.9431 204.235 13.5815 203.747 14.3713C203.259 15.1612 203 16.0714 203 17C203 17.9286 203.259 18.8388 203.747 19.6287C204.235 20.4185 204.933 21.0569 205.764 21.4721C206.594 21.8874 207.524 22.0632 208.449 21.9798C209.374 21.8964 210.257 21.5571 211 21C211 21.2652 211.105 21.5196 211.293 21.7071C211.48 21.8946 211.735 22 212 22C212.265 22 212.52 21.8946 212.707 21.7071C212.895 21.5196 213 21.2652 213 21V13C213 11.9152 212.648 10.8597 211.996 9.99285C211.343 9.12596 210.427 8.49468 209.385 8.19426C208.342 7.89384 207.231 7.94058 206.217 8.32741C205.204 8.71424 204.343 9.42019 203.766 10.3387C203.631 10.5631 203.588 10.8317 203.649 11.0869C203.709 11.342 203.867 11.5632 204.089 11.7029C204.311 11.8425 204.579 11.8894 204.835 11.8334C205.091 11.7775 205.315 11.6232 205.459 11.4038C205.805 10.8522 206.321 10.4282 206.929 10.1958C207.537 9.96334 208.205 9.93511 208.83 10.1154C209.456 10.2956 210.006 10.6745 210.398 11.1949C210.789 11.7153 211 12.3489 211 13ZM216.601 21.2013C216.389 21.0419 216.123 20.9731 215.86 21.0102C215.598 21.0472 215.361 21.187 215.201 21.3988C214.363 22.517 213.276 23.4246 212.026 24.0498C210.776 24.6749 209.398 25.0004 208 25.0004C206.602 25.0004 205.224 24.6749 203.974 24.0498C202.724 23.4246 201.637 22.517 200.799 21.3988C200.721 21.2906 200.623 21.199 200.509 21.1294C200.395 21.0599 200.269 21.0137 200.137 20.9936C200.006 20.9735 199.871 20.98 199.742 21.0125C199.613 21.0451 199.492 21.1031 199.385 21.1832C199.279 21.2633 199.189 21.3639 199.122 21.479C199.055 21.5941 199.012 21.7215 198.995 21.8535C198.978 21.9856 198.987 22.1198 199.023 22.2482C199.058 22.3766 199.119 22.4966 199.201 22.6012C200.226 23.9669 201.554 25.0753 203.082 25.8387C204.609 26.6022 206.293 26.9996 208 26.9996C209.707 26.9996 211.391 26.6022 212.918 25.8387C214.446 25.0753 215.774 23.9669 216.799 22.6012C216.958 22.3894 217.027 22.1229 216.99 21.8604C216.953 21.5978 216.813 21.3608 216.601 21.2013Z" fill="currentColor"/>
<path opacity="0.2" d="M261 16.5C261 17.5878 260.677 18.6512 260.073 19.5556C259.469 20.4601 258.61 21.1651 257.605 21.5813C256.6 21.9976 255.494 22.1065 254.427 21.8943C253.36 21.6821 252.38 21.1583 251.611 20.3891C250.842 19.6199 250.318 18.6399 250.106 17.573C249.893 16.5061 250.002 15.4002 250.419 14.3952C250.835 13.3902 251.54 12.5313 252.444 11.9269C253.349 11.3226 254.412 11 255.5 11C256.959 11 258.358 11.5795 259.389 12.6109C260.421 13.6424 261 15.0413 261 16.5Z" fill="currentColor"/>
<path d="M271 21V25C271 25.2652 270.895 25.5196 270.707 25.7071C270.519 25.8946 270.265 26 270 26C269.735 26 269.48 25.8946 269.293 25.7071C269.105 25.5196 269 25.2652 269 25V23.4137L268.724 23.6912C268.336 24.1125 263.68 29 256 29C248.145 29 243.452 23.8863 243.256 23.6688C243.079 23.4707 242.987 23.2102 243.002 22.9448C243.017 22.6793 243.136 22.4305 243.334 22.2531C243.532 22.0758 243.793 21.9844 244.058 21.999C244.324 22.0137 244.573 22.1332 244.75 22.3312C244.784 22.375 249.062 27 256 27C262.937 27 267.216 22.375 267.259 22.33C267.269 22.3169 267.28 22.3044 267.292 22.2925L267.586 22H266C265.735 22 265.48 21.8946 265.293 21.7071C265.105 21.5196 265 21.2652 265 21C265 20.7348 265.105 20.4804 265.293 20.2929C265.48 20.1054 265.735 20 266 20H270C270.265 20 270.519 20.1054 270.707 20.2929C270.895 20.4804 271 20.7348 271 21ZM260 11.8163V10.5C260.001 9.48887 259.661 8.50698 259.035 7.71265C258.409 6.91832 257.534 6.35785 256.551 6.12159C255.568 5.88534 254.534 5.98708 253.616 6.4104C252.698 6.83373 251.949 7.55397 251.49 8.455C251.369 8.69121 251.16 8.86981 250.907 8.9515C250.655 9.0332 250.38 9.0113 250.144 8.89063C249.908 8.76995 249.729 8.56039 249.648 8.30803C249.566 8.05568 249.588 7.78121 249.709 7.545C250.372 6.24396 251.454 5.20409 252.78 4.59301C254.106 3.98193 255.599 3.83525 257.019 4.17659C258.439 4.51793 259.703 5.32742 260.606 6.47458C261.51 7.62174 262.001 9.03973 262 10.5V22C262 22.2652 261.895 22.5196 261.707 22.7071C261.519 22.8946 261.265 23 261 23C260.735 23 260.48 22.8946 260.293 22.7071C260.105 22.5196 260 22.2652 260 22V21.1838C259.081 22.0678 257.923 22.6621 256.669 22.8927C255.415 23.1234 254.121 22.9802 252.948 22.481C251.775 21.9818 250.774 21.1486 250.071 20.0852C249.368 19.0217 248.993 17.7749 248.993 16.5C248.993 15.2251 249.368 13.9783 250.071 12.9148C250.774 11.8514 251.775 11.0182 252.948 10.519C254.121 10.0198 255.415 9.8766 256.669 10.1073C257.923 10.3379 259.081 10.9322 260 11.8163ZM260 16.5C260 15.61 259.736 14.74 259.241 13.9999C258.747 13.2599 258.044 12.6831 257.222 12.3425C256.4 12.0019 255.495 11.9128 254.622 12.0865C253.749 12.2601 252.947 12.6887 252.318 13.318C251.689 13.9474 251.26 14.7492 251.086 15.6221C250.913 16.495 251.002 17.3998 251.342 18.2221C251.683 19.0443 252.26 19.7471 253 20.2416C253.74 20.7361 254.61 21 255.5 21C256.091 21 256.676 20.8836 257.222 20.6575C257.768 20.4313 258.264 20.0998 258.682 19.682C259.1 19.2641 259.431 18.768 259.657 18.2221C259.883 17.6761 260 17.0909 260 16.5Z" fill="currentColor"/>
</g>
<defs>
<clipPath id="clip0_17_13353">
<rect width="272" height="32" rx="5" fill="white"/>
</clipPath>
</defs>
</svg>
