<svg width="272" height="32" viewBox="0 0 272 32" fill="none" xmlns="http://www.w3.org/2000/svg">
<g clip-path="url(#clip0_17_13325)">
<path d="M28.385 8.0775L16.385 3.0775C16.2632 3.02614 16.1323 2.99968 16 2.99968C15.8678 2.99968 15.7369 3.02614 15.615 3.0775L3.61501 8.0775C3.41199 8.16219 3.24256 8.31146 3.13296 8.50218C3.02336 8.69291 2.97971 8.91445 3.00876 9.1325L5.00876 24.1325C5.03027 24.2943 5.09108 24.4484 5.18586 24.5813C5.28064 24.7143 5.40652 24.8219 5.55251 24.895L15.5525 29.895C15.6914 29.9645 15.8447 30.0007 16 30.0007C16.1554 30.0007 16.3086 29.9645 16.4475 29.895L26.4475 24.895C26.5935 24.8219 26.7194 24.7143 26.8142 24.5813C26.9089 24.4484 26.9697 24.2943 26.9913 24.1325L28.9913 9.1325C29.0203 8.91445 28.9767 8.69291 28.8671 8.50218C28.7575 8.31146 28.588 8.16219 28.385 8.0775ZM25.0788 23.3425L16 27.8825L6.92126 23.3425L5.09251 9.625L16 5.08375L26.9075 9.625L25.0788 23.3425ZM15.125 10.515L10.125 19.515C10.0613 19.6299 10.0209 19.7562 10.006 19.8868C9.99115 20.0173 10.0021 20.1495 10.0383 20.2758C10.0746 20.4021 10.1353 20.52 10.2171 20.6228C10.2989 20.7256 10.4001 20.8113 10.515 20.875C10.6299 20.9387 10.7562 20.9791 10.8868 20.994C11.0173 21.0089 11.1495 20.9979 11.2758 20.9617C11.4021 20.9255 11.52 20.8647 11.6228 20.7829C11.7256 20.7011 11.8113 20.5999 11.875 20.485L13.25 18H18.75L20.125 20.485C20.1887 20.5999 20.2744 20.7011 20.3772 20.7829C20.48 20.8647 20.598 20.9255 20.7242 20.9617C20.8505 20.9979 20.9827 21.0089 21.1132 20.994C21.2438 20.9791 21.3701 20.9387 21.485 20.875C21.5999 20.8113 21.7012 20.7256 21.7829 20.6228C21.8647 20.52 21.9255 20.4021 21.9617 20.2758C21.9979 20.1495 22.0089 20.0173 21.994 19.8868C21.9791 19.7562 21.9387 19.6299 21.875 19.515L16.875 10.515C16.7885 10.3587 16.6618 10.2284 16.5079 10.1377C16.354 10.047 16.1786 9.99912 16 9.99912C15.8214 9.99912 15.646 10.047 15.4921 10.1377C15.3383 10.2284 15.2115 10.3587 15.125 10.515ZM17.6338 16H14.3663L16 13.0588L17.6338 16Z" fill="currentColor"/>
<path d="M76.1925 8.53875L64.1925 3.53876C64.1315 3.51331 64.0661 3.50021 64 3.50021C63.9339 3.50021 63.8685 3.51331 63.8075 3.53876L51.8075 8.53875C51.7052 8.58036 51.6195 8.65469 51.5639 8.75012C51.5083 8.84555 51.4858 8.95671 51.5 9.06626L53.5 24.0663C53.5107 24.1471 53.541 24.2241 53.5883 24.2906C53.6356 24.357 53.6984 24.4109 53.7713 24.4475L63.7713 29.4475C63.8407 29.4823 63.9173 29.5004 63.995 29.5004C64.0727 29.5004 64.1493 29.4823 64.2188 29.4475L74.2188 24.4475C74.2916 24.4109 74.3544 24.357 74.4017 24.2906C74.449 24.2241 74.4793 24.1471 74.49 24.0663L76.49 9.06626C76.5049 8.95789 76.4839 8.84762 76.4302 8.75234C76.3765 8.65706 76.293 8.58203 76.1925 8.53875ZM73.54 23.6713L64 28.4413L54.46 23.6713L52.5463 9.31376L64 4.54126L75.4538 9.31376L73.54 23.6713ZM63.5625 10.7575L58.5625 19.7575C58.5307 19.815 58.5104 19.8781 58.503 19.9434C58.4956 20.0087 58.5011 20.0747 58.5192 20.1379C58.5373 20.201 58.5676 20.26 58.6085 20.3114C58.6494 20.3628 58.7001 20.4057 58.7575 20.4375C58.815 20.4694 58.8781 20.4896 58.9434 20.497C59.0087 20.5044 59.0747 20.4989 59.1379 20.4808C59.201 20.4627 59.26 20.4324 59.3114 20.3915C59.3628 20.3506 59.4057 20.3 59.4375 20.2425L60.9613 17.5H67.0388L68.5625 20.2425C68.5944 20.3 68.6372 20.3506 68.6886 20.3915C68.74 20.4324 68.799 20.4627 68.8621 20.4808C68.9253 20.4989 68.9914 20.5044 69.0566 20.497C69.1219 20.4896 69.1851 20.4694 69.2425 20.4375C69.3 20.4057 69.3506 20.3628 69.3915 20.3114C69.4324 20.26 69.4627 20.201 69.4808 20.1379C69.4989 20.0747 69.5044 20.0087 69.497 19.9434C69.4896 19.8781 69.4694 19.815 69.4375 19.7575L64.4375 10.7575C64.3943 10.6794 64.3309 10.6142 64.2539 10.5689C64.177 10.5235 64.0893 10.4996 64 10.4996C63.9107 10.4996 63.823 10.5235 63.7461 10.5689C63.6691 10.6142 63.6057 10.6794 63.5625 10.7575ZM66.4838 16.5H61.5163L64 12.03L66.4838 16.5Z" fill="currentColor"/>
<path d="M124.289 8.3075L112.289 3.3075C112.104 3.23124 111.896 3.23124 111.711 3.3075L99.7113 8.3075C99.559 8.37096 99.4318 8.48289 99.3496 8.62594C99.2673 8.76899 99.2345 8.93518 99.2563 9.09875L101.256 24.0987C101.272 24.2203 101.318 24.3361 101.389 24.4359C101.461 24.5357 101.555 24.6165 101.665 24.6712L111.665 29.6712C111.769 29.7232 111.884 29.7502 112 29.7502C112.116 29.7502 112.231 29.7232 112.335 29.6712L122.335 24.6712C122.445 24.6165 122.539 24.5357 122.611 24.4359C122.682 24.3361 122.728 24.2203 122.744 24.0987L124.744 9.09875C124.766 8.93518 124.733 8.76899 124.651 8.62594C124.568 8.48289 124.441 8.37096 124.289 8.3075ZM121.309 23.5075L112 28.1612L102.691 23.5075L100.816 9.47125L112 4.8125L123.18 9.47125L121.309 23.5075ZM111.344 10.6325L106.344 19.6325C106.247 19.8065 106.224 20.0118 106.279 20.2031C106.334 20.3944 106.462 20.556 106.636 20.6525C106.81 20.749 107.016 20.7724 107.207 20.7175C107.398 20.6626 107.56 20.534 107.656 20.36L109.108 17.75H114.893L116.344 20.3637C116.409 20.4809 116.504 20.5784 116.619 20.6464C116.735 20.7143 116.866 20.7501 117 20.75C117.127 20.7502 117.252 20.7175 117.363 20.655C117.536 20.5586 117.665 20.3972 117.72 20.2061C117.774 20.0151 117.751 19.8102 117.655 19.6362L112.655 10.6362C112.59 10.519 112.495 10.4213 112.38 10.3533C112.264 10.2852 112.133 10.2493 111.999 10.2493C111.865 10.2493 111.733 10.2852 111.618 10.3533C111.502 10.4213 111.407 10.519 111.343 10.6362L111.344 10.6325ZM114.059 16.25H109.941L112 12.5437L114.059 16.25Z" fill="currentColor"/>
<path d="M172.576 7.615L160.576 2.615C160.393 2.53867 160.197 2.49937 159.999 2.49937C159.801 2.49937 159.604 2.53867 159.421 2.615L147.421 7.615C147.116 7.74198 146.862 7.96603 146.697 8.25239C146.533 8.53875 146.467 8.87141 146.511 9.19875L148.511 24.1987C148.544 24.4412 148.635 24.6721 148.777 24.8712C148.919 25.0703 149.108 25.2317 149.326 25.3412L159.326 30.3412C159.535 30.4455 159.765 30.4998 159.998 30.4998C160.231 30.4998 160.46 30.4455 160.669 30.3412L170.669 25.3412C170.888 25.2317 171.076 25.0703 171.218 24.8712C171.36 24.6721 171.451 24.4412 171.484 24.1987L173.484 9.19875C173.528 8.8717 173.463 8.53927 173.299 8.25295C173.135 7.96663 172.881 7.7424 172.576 7.615ZM168.625 23.0138L160 27.3225L151.381 23.0138L149.639 9.9425L160 5.625L170.361 9.9425L168.625 23.0138ZM158.689 10.2712L153.689 19.2712C153.593 19.4436 153.532 19.6331 153.51 19.829C153.487 20.0249 153.504 20.2232 153.558 20.4128C153.612 20.6023 153.703 20.7793 153.826 20.9337C153.948 21.0881 154.1 21.2168 154.273 21.3125C154.445 21.4082 154.634 21.469 154.83 21.4915C155.026 21.5139 155.225 21.4976 155.414 21.4434C155.604 21.3892 155.781 21.2982 155.935 21.1755C156.089 21.0529 156.218 20.9011 156.314 20.7288L157.271 19H162.729L163.689 20.7288C163.882 21.0768 164.206 21.3339 164.589 21.4434C164.971 21.5529 165.382 21.5058 165.73 21.3125C166.078 21.1192 166.335 20.7956 166.445 20.4128C166.554 20.03 166.507 19.6193 166.314 19.2712L161.314 10.2712C161.184 10.0368 160.994 9.84137 160.763 9.70529C160.532 9.56921 160.269 9.49743 160.001 9.49743C159.733 9.49743 159.47 9.56921 159.24 9.70529C159.009 9.84137 158.819 10.0368 158.689 10.2712ZM158.939 16L160 14.0887L161.061 16H158.939Z" fill="currentColor"/>
<path d="M208 13.0588L209.634 16H206.366L208 13.0588ZM220.991 9.1325L218.991 24.1325C218.97 24.2943 218.909 24.4484 218.814 24.5813C218.719 24.7143 218.594 24.8219 218.448 24.895L208.448 29.895C208.309 29.9645 208.155 30.0007 208 30.0007C207.845 30.0007 207.691 29.9645 207.553 29.895L197.553 24.895C197.407 24.8219 197.281 24.7143 197.186 24.5813C197.091 24.4484 197.03 24.2943 197.009 24.1325L195.009 9.1325C194.98 8.91445 195.023 8.69291 195.133 8.50218C195.243 8.31146 195.412 8.16219 195.615 8.0775L207.615 3.0775C207.737 3.02614 207.868 2.99968 208 2.99968C208.132 2.99968 208.263 3.02614 208.385 3.0775L220.385 8.0775C220.588 8.16219 220.757 8.31146 220.867 8.50218C220.977 8.69291 221.02 8.91445 220.991 9.1325ZM213.875 19.515L208.875 10.515C208.789 10.3587 208.662 10.2284 208.508 10.1377C208.354 10.047 208.179 9.99912 208 9.99912C207.821 9.99912 207.646 10.047 207.492 10.1377C207.338 10.2284 207.211 10.3587 207.125 10.515L202.125 19.515C202.061 19.6299 202.021 19.7562 202.006 19.8868C201.991 20.0173 202.002 20.1495 202.038 20.2758C202.075 20.4021 202.135 20.52 202.217 20.6228C202.299 20.7256 202.4 20.8113 202.515 20.875C202.63 20.9387 202.756 20.9791 202.887 20.994C203.017 21.0089 203.149 20.9979 203.276 20.9617C203.402 20.9255 203.52 20.8647 203.623 20.7829C203.726 20.7011 203.811 20.5999 203.875 20.485L205.25 18H210.75L212.125 20.485C212.189 20.5999 212.274 20.7011 212.377 20.7829C212.48 20.8647 212.598 20.9255 212.724 20.9617C212.851 20.9979 212.983 21.0089 213.113 20.994C213.244 20.9791 213.37 20.9387 213.485 20.875C213.6 20.8113 213.701 20.7256 213.783 20.6228C213.865 20.52 213.925 20.4021 213.962 20.2758C213.998 20.1495 214.009 20.0173 213.994 19.8868C213.979 19.7562 213.939 19.6299 213.875 19.515Z" fill="currentColor"/>
<path opacity="0.2" d="M268 9L266 24L256 29L246 24L244 9L256 4L268 9Z" fill="currentColor"/>
<path d="M268.385 8.0775L256.385 3.0775C256.263 3.02614 256.132 2.99968 256 2.99968C255.868 2.99968 255.737 3.02614 255.615 3.0775L243.615 8.0775C243.412 8.16219 243.243 8.31146 243.133 8.50218C243.023 8.69291 242.98 8.91445 243.009 9.1325L245.009 24.1325C245.03 24.2943 245.091 24.4484 245.186 24.5813C245.281 24.7143 245.407 24.8219 245.553 24.895L255.553 29.895C255.691 29.9645 255.845 30.0007 256 30.0007C256.155 30.0007 256.309 29.9645 256.448 29.895L266.448 24.895C266.594 24.8219 266.719 24.7143 266.814 24.5813C266.909 24.4484 266.97 24.2943 266.991 24.1325L268.991 9.1325C269.02 8.91445 268.977 8.69291 268.867 8.50218C268.757 8.31146 268.588 8.16219 268.385 8.0775ZM265.079 23.3425L256 27.8825L246.921 23.3425L245.093 9.625L256 5.08375L266.908 9.625L265.079 23.3425ZM255.125 10.515L250.125 19.515C250.061 19.6299 250.021 19.7562 250.006 19.8868C249.991 20.0173 250.002 20.1495 250.038 20.2758C250.075 20.4021 250.135 20.52 250.217 20.6228C250.299 20.7256 250.4 20.8113 250.515 20.875C250.63 20.9387 250.756 20.9791 250.887 20.994C251.017 21.0089 251.149 20.9979 251.276 20.9617C251.402 20.9255 251.52 20.8647 251.623 20.7829C251.726 20.7011 251.811 20.5999 251.875 20.485L253.25 18H258.75L260.125 20.485C260.189 20.5999 260.274 20.7011 260.377 20.7829C260.48 20.8647 260.598 20.9255 260.724 20.9617C260.851 20.9979 260.983 21.0089 261.113 20.994C261.244 20.9791 261.37 20.9387 261.485 20.875C261.6 20.8113 261.701 20.7256 261.783 20.6228C261.865 20.52 261.925 20.4021 261.962 20.2758C261.998 20.1495 262.009 20.0173 261.994 19.8868C261.979 19.7562 261.939 19.6299 261.875 19.515L256.875 10.515C256.789 10.3587 256.662 10.2284 256.508 10.1377C256.354 10.047 256.179 9.99912 256 9.99912C255.821 9.99912 255.646 10.047 255.492 10.1377C255.338 10.2284 255.211 10.3587 255.125 10.515ZM257.634 16H254.366L256 13.0588L257.634 16Z" fill="currentColor"/>
</g>
<defs>
<clipPath id="clip0_17_13325">
<rect width="272" height="32" rx="5" fill="white"/>
</clipPath>
</defs>
</svg>
