<svg width="272" height="32" viewBox="0 0 272 32" fill="none" xmlns="http://www.w3.org/2000/svg">
<g clip-path="url(#clip0_17_13311)">
<path d="M8.0425 24.5088L6.86125 26.5088C6.79444 26.6219 6.70601 26.7207 6.601 26.7996C6.496 26.8785 6.37647 26.936 6.24926 26.9687C5.99233 27.0349 5.71967 26.9962 5.49125 26.8613C5.26283 26.7263 5.09737 26.5062 5.03126 26.2493C4.96516 25.9923 5.00382 25.7197 5.13875 25.4913L6.32125 23.4913C6.38646 23.3751 6.47421 23.2732 6.57936 23.1914C6.68451 23.1096 6.80493 23.0497 6.93356 23.0151C7.06219 22.9805 7.19644 22.972 7.32842 22.99C7.46039 23.008 7.58744 23.0522 7.70211 23.12C7.81677 23.1877 7.91674 23.2778 7.99614 23.3847C8.07554 23.4916 8.13278 23.6134 8.16448 23.7427C8.19619 23.8721 8.20174 24.0065 8.18079 24.1381C8.15984 24.2696 8.11282 24.3956 8.0425 24.5088ZM29 19H23.025L19.1838 12.5C19.1185 12.3839 19.0308 12.2819 18.9256 12.2001C18.8205 12.1184 18.7001 12.0584 18.5714 12.0239C18.4428 11.9893 18.3086 11.9807 18.1766 11.9987C18.0446 12.0167 17.9176 12.0609 17.8029 12.1287C17.6882 12.1965 17.5883 12.2865 17.5089 12.3934C17.4295 12.5004 17.3722 12.6221 17.3405 12.7515C17.3088 12.8809 17.3033 13.0153 17.3242 13.1468C17.3452 13.2784 17.3922 13.4044 17.4625 13.5175L25.1388 26.5088C25.2737 26.7372 25.4938 26.9026 25.7507 26.9687C26.0077 27.0349 26.2803 26.9962 26.5088 26.8613C26.7372 26.7263 26.9026 26.5062 26.9687 26.2493C27.0348 25.9923 26.9962 25.7197 26.8612 25.4913L24.2075 21H29C29.2652 21 29.5196 20.8947 29.7071 20.7071C29.8946 20.5196 30 20.2652 30 20C30 19.7348 29.8946 19.4804 29.7071 19.2929C29.5196 19.1054 29.2652 19 29 19ZM17.8088 19H11.2975L19.8612 4.50876C19.9962 4.28034 20.0348 4.00768 19.9687 3.75076C19.9026 3.49383 19.7372 3.27369 19.5088 3.13876C19.2803 3.00383 19.0077 2.96517 18.7507 3.03128C18.4938 3.09738 18.2737 3.26284 18.1388 3.49126L16 7.11126L13.8612 3.48626C13.7944 3.37316 13.706 3.27433 13.601 3.1954C13.496 3.11648 13.3765 3.05901 13.2493 3.02628C12.9923 2.96017 12.7197 2.99883 12.4913 3.13376C12.2628 3.26869 12.0974 3.48883 12.0313 3.74576C11.9652 4.00268 12.0038 4.27534 12.1388 4.50376L14.8387 9.07251L8.975 19H3C2.73478 19 2.48043 19.1054 2.29289 19.2929C2.10536 19.4804 2 19.7348 2 20C2 20.2652 2.10536 20.5196 2.29289 20.7071C2.48043 20.8947 2.73478 21 3 21H17.8088C18.074 21 18.3283 20.8947 18.5159 20.7071C18.7034 20.5196 18.8088 20.2652 18.8088 20C18.8088 19.7348 18.7034 19.4804 18.5159 19.2929C18.3283 19.1054 18.074 19 17.8088 19Z" fill="currentColor"/>
<path d="M55.6125 24.25L54.43 26.25C54.4012 26.3138 54.3593 26.3708 54.3071 26.4173C54.2549 26.4639 54.1935 26.499 54.1268 26.5203C54.0602 26.5416 53.9898 26.5487 53.9203 26.5412C53.8507 26.5336 53.7835 26.5115 53.7231 26.4763C53.6626 26.4412 53.6101 26.3937 53.5692 26.337C53.5282 26.2803 53.4995 26.2157 53.4851 26.1472C53.4707 26.0787 53.4708 26.008 53.4854 25.9396C53.5 25.8712 53.5289 25.8066 53.57 25.75L54.75 23.75C54.8214 23.6464 54.9293 23.5735 55.0521 23.5459C55.1749 23.5184 55.3036 23.5381 55.4124 23.6012C55.5213 23.6643 55.6024 23.7662 55.6395 23.8864C55.6766 24.0067 55.6669 24.1365 55.6125 24.25ZM77 19.5H70.74L66.75 12.75C66.7166 12.6935 66.6724 12.644 66.6199 12.6046C66.5674 12.5651 66.5076 12.5364 66.444 12.52C66.3155 12.487 66.1792 12.5063 66.065 12.5738C65.9508 12.6412 65.8681 12.7513 65.835 12.8798C65.802 13.0082 65.8213 13.1446 65.8888 13.2588L73.57 26.25C73.602 26.3093 73.6456 26.3615 73.6982 26.4035C73.7508 26.4455 73.8114 26.4764 73.8762 26.4945C73.9411 26.5125 74.009 26.5172 74.0757 26.5084C74.1424 26.4996 74.2067 26.4773 74.2647 26.443C74.3226 26.4088 74.3731 26.3631 74.4129 26.3089C74.4528 26.2546 74.4813 26.1929 74.4968 26.1274C74.5122 26.0618 74.5143 25.9938 74.5028 25.9275C74.4913 25.8612 74.4666 25.7978 74.43 25.7413L71.3312 20.4913H77C77.1326 20.4913 77.2598 20.4386 77.3536 20.3448C77.4473 20.251 77.5 20.1239 77.5 19.9913C77.5 19.8587 77.4473 19.7315 77.3536 19.6377C77.2598 19.5439 77.1326 19.4913 77 19.4913V19.5ZM65.8088 19.5H58.4213L67.43 4.25001C67.4711 4.19343 67.5 4.12885 67.5146 4.06043C67.5292 3.99201 67.5293 3.92129 67.5149 3.85283C67.5005 3.78437 67.4718 3.7197 67.4308 3.66301C67.3899 3.60631 67.3374 3.55884 67.2769 3.52368C67.2165 3.48851 67.1493 3.46644 67.0797 3.45887C67.0102 3.4513 66.9398 3.45841 66.8732 3.47974C66.8065 3.50108 66.7451 3.53615 66.6929 3.58271C66.6407 3.62926 66.5988 3.68626 66.57 3.75001L64 8.09376L61.43 3.75001C61.4012 3.68626 61.3593 3.62926 61.3071 3.58271C61.2549 3.53615 61.1935 3.50108 61.1268 3.47974C61.0602 3.45841 60.9898 3.4513 60.9203 3.45887C60.8507 3.46644 60.7835 3.48851 60.7231 3.52368C60.6626 3.55884 60.6101 3.60631 60.5692 3.66301C60.5282 3.7197 60.4995 3.78437 60.4851 3.85283C60.4707 3.92129 60.4708 3.99201 60.4854 4.06043C60.5 4.12885 60.5289 4.19343 60.57 4.25001L63.4187 9.07251L57.26 19.5H51C50.8674 19.5 50.7402 19.5527 50.6464 19.6465C50.5527 19.7402 50.5 19.8674 50.5 20C50.5 20.1326 50.5527 20.2598 50.6464 20.3536C50.7402 20.4473 50.8674 20.5 51 20.5H65.8088C65.9414 20.5 66.0685 20.4473 66.1623 20.3536C66.2561 20.2598 66.3088 20.1326 66.3088 20C66.3088 19.8674 66.2561 19.7402 66.1623 19.6465C66.0685 19.5527 65.9414 19.5 65.8088 19.5Z" fill="currentColor"/>
<path d="M103.827 24.3813L102.646 26.3813C102.54 26.5406 102.377 26.6533 102.191 26.6964C102.004 26.7395 101.808 26.7097 101.643 26.613C101.478 26.5163 101.356 26.3602 101.302 26.1765C101.248 25.9928 101.267 25.7955 101.354 25.625L102.536 23.625C102.585 23.5377 102.651 23.4611 102.73 23.3996C102.808 23.3381 102.899 23.293 102.995 23.2669C103.092 23.2408 103.193 23.2343 103.292 23.2477C103.391 23.2612 103.486 23.2943 103.572 23.3451C103.658 23.396 103.733 23.4635 103.793 23.5438C103.853 23.6241 103.896 23.7154 103.919 23.8126C103.943 23.9097 103.947 24.0106 103.932 24.1093C103.916 24.208 103.88 24.3026 103.827 24.3875V24.3813ZM125 19.25H118.882L114.969 12.625C114.919 12.5402 114.852 12.4661 114.773 12.407C114.695 12.3479 114.605 12.3048 114.51 12.2803C114.414 12.2558 114.315 12.2504 114.217 12.2643C114.12 12.2781 114.026 12.3111 113.941 12.3612C113.856 12.4114 113.782 12.4778 113.723 12.5565C113.664 12.6353 113.621 12.725 113.597 12.8204C113.572 12.9158 113.567 13.0151 113.581 13.1126C113.594 13.2101 113.627 13.304 113.677 13.3887L121.354 26.38C121.455 26.5514 121.62 26.6756 121.813 26.7253C122.005 26.775 122.21 26.7461 122.381 26.645C122.553 26.5439 122.677 26.3788 122.727 26.1861C122.776 25.9934 122.747 25.7889 122.646 25.6175L119.771 20.7488H125C125.199 20.7488 125.39 20.6697 125.53 20.5291C125.671 20.3884 125.75 20.1977 125.75 19.9988C125.75 19.7998 125.671 19.6091 125.53 19.4684C125.39 19.3278 125.199 19.2487 125 19.2487V19.25ZM113.809 19.25H106.86L115.646 4.38125C115.733 4.21073 115.752 4.01343 115.698 3.82975C115.644 3.64606 115.522 3.4899 115.357 3.39324C115.192 3.29658 114.996 3.26674 114.809 3.30982C114.623 3.35291 114.46 3.46567 114.354 3.625L112 7.6025L109.646 3.625C109.545 3.4536 109.38 3.32939 109.187 3.2797C108.995 3.23 108.79 3.25889 108.619 3.36C108.447 3.46111 108.323 3.62617 108.273 3.81887C108.224 4.01156 108.253 4.2161 108.354 4.3875L111.125 9.0775L105.118 19.25H99C98.8011 19.25 98.6103 19.329 98.4697 19.4697C98.329 19.6103 98.25 19.8011 98.25 20C98.25 20.1989 98.329 20.3897 98.4697 20.5303C98.6103 20.671 98.8011 20.75 99 20.75H113.809C114.008 20.75 114.198 20.671 114.339 20.5303C114.48 20.3897 114.559 20.1989 114.559 20C114.559 19.8011 114.48 19.6103 114.339 19.4697C114.198 19.329 114.008 19.25 113.809 19.25Z" fill="currentColor"/>
<path d="M174.5 20C174.5 20.3978 174.342 20.7794 174.061 21.0607C173.779 21.342 173.398 21.5 173 21.5H169.084L171.291 25.2363C171.394 25.4059 171.463 25.5943 171.492 25.7906C171.522 25.9868 171.512 26.187 171.464 26.3795C171.416 26.572 171.33 26.753 171.211 26.9121C171.092 27.0711 170.943 27.205 170.772 27.306C170.601 27.4069 170.412 27.473 170.216 27.5003C170.019 27.5277 169.819 27.5157 169.627 27.4652C169.435 27.4146 169.255 27.3265 169.097 27.2059C168.94 27.0852 168.808 26.9345 168.709 26.7625L161.612 14.75C161.421 14.4081 161.372 14.0051 161.474 13.627C161.576 13.2488 161.822 12.9257 162.159 12.7265C162.496 12.5274 162.898 12.468 163.279 12.5612C163.659 12.6543 163.988 12.8926 164.195 13.225L167.31 18.5H173C173.398 18.5 173.779 18.658 174.061 18.9393C174.342 19.2206 174.5 19.6022 174.5 20ZM160.644 18.5H156.174L164.291 4.76375C164.394 4.59409 164.463 4.40568 164.492 4.20944C164.522 4.01319 164.512 3.81301 164.464 3.6205C164.416 3.42799 164.33 3.24697 164.211 3.08794C164.092 2.92891 163.943 2.79502 163.772 2.69404C163.601 2.59306 163.412 2.52699 163.216 2.49967C163.019 2.47234 162.819 2.4843 162.627 2.53485C162.435 2.5854 162.255 2.67353 162.097 2.79415C161.94 2.91476 161.808 3.06546 161.709 3.2375L160 6.125L158.291 3.2375C158.192 3.06546 158.06 2.91476 157.903 2.79415C157.745 2.67353 157.565 2.5854 157.373 2.53485C157.181 2.4843 156.981 2.47234 156.784 2.49967C156.588 2.52699 156.399 2.59306 156.228 2.69404C156.057 2.79502 155.908 2.92891 155.789 3.08794C155.67 3.24697 155.584 3.42799 155.536 3.6205C155.488 3.81301 155.478 4.01319 155.508 4.20944C155.537 4.40568 155.606 4.59409 155.709 4.76375L158.257 9.0775L152.69 18.5H147C146.602 18.5 146.221 18.658 145.939 18.9393C145.658 19.2206 145.5 19.6022 145.5 20C145.5 20.3978 145.658 20.7794 145.939 21.0607C146.221 21.342 146.602 21.5 147 21.5H160.644C161.042 21.5 161.423 21.342 161.704 21.0607C161.986 20.7794 162.144 20.3978 162.144 20C162.144 19.6022 161.986 19.2206 161.704 18.9393C161.423 18.658 161.042 18.5 160.644 18.5ZM151.354 23.7088C151.011 23.5065 150.603 23.4485 150.218 23.5474C149.833 23.6463 149.503 23.8941 149.3 24.2363L148.709 25.2363C148.606 25.4059 148.537 25.5943 148.508 25.7906C148.478 25.9868 148.488 26.187 148.536 26.3795C148.584 26.572 148.67 26.753 148.789 26.9121C148.908 27.0711 149.057 27.205 149.228 27.306C149.399 27.4069 149.588 27.473 149.784 27.5003C149.981 27.5277 150.181 27.5157 150.373 27.4652C150.565 27.4146 150.745 27.3265 150.903 27.2059C151.06 27.0852 151.192 26.9345 151.291 26.7625L151.883 25.7625C152.085 25.42 152.142 25.0113 152.043 24.6262C151.944 24.241 151.696 23.9111 151.354 23.7088Z" fill="currentColor"/>
<path d="M208 3C205.429 3 202.915 3.76244 200.778 5.1909C198.64 6.61935 196.974 8.64968 195.99 11.0251C195.006 13.4006 194.748 16.0144 195.25 18.5362C195.751 21.0579 196.99 23.3743 198.808 25.1924C200.626 27.0105 202.942 28.2486 205.464 28.7502C207.986 29.2518 210.599 28.9944 212.975 28.0104C215.35 27.0265 217.381 25.3603 218.809 23.2224C220.238 21.0846 221 18.5712 221 16C220.996 12.5533 219.626 9.24882 217.188 6.81163C214.751 4.37445 211.447 3.00364 208 3ZM202.458 22.515L201.858 23.515C201.79 23.6276 201.701 23.7258 201.595 23.8039C201.49 23.8821 201.37 23.9387 201.242 23.9705C201.115 24.0023 200.982 24.0087 200.852 23.9893C200.722 23.9699 200.598 23.9251 200.485 23.8575C200.372 23.7899 200.274 23.7007 200.196 23.5951C200.118 23.4896 200.061 23.3696 200.03 23.2422C199.998 23.1147 199.991 22.9823 200.011 22.8524C200.03 22.7224 200.075 22.5976 200.143 22.485L200.743 21.485C200.879 21.2576 201.1 21.0937 201.358 21.0295C201.615 20.9653 201.888 21.0059 202.115 21.1425C202.342 21.2791 202.506 21.5004 202.571 21.7578C202.635 22.0152 202.594 22.2876 202.458 22.515ZM208 19H199C198.735 19 198.48 18.8946 198.293 18.7071C198.105 18.5196 198 18.2652 198 18C198 17.7348 198.105 17.4804 198.293 17.2929C198.48 17.1054 198.735 17 199 17H203.434L206.834 11.3337L205.143 8.515C205.075 8.40239 205.03 8.27757 205.011 8.14765C204.991 8.01773 204.998 7.88526 205.03 7.75782C205.061 7.63037 205.118 7.51043 205.196 7.40486C205.274 7.29928 205.372 7.21013 205.485 7.1425C205.712 7.00591 205.985 6.96526 206.242 7.0295C206.37 7.0613 206.49 7.1179 206.595 7.19605C206.701 7.27421 206.79 7.37239 206.858 7.485L208 9.39L209.143 7.485C209.21 7.37239 209.299 7.27421 209.405 7.19605C209.51 7.1179 209.63 7.0613 209.758 7.0295C209.885 6.99769 210.018 6.9913 210.148 7.01069C210.278 7.03008 210.402 7.07487 210.515 7.1425C210.628 7.21013 210.726 7.29928 210.804 7.40486C210.882 7.51043 210.939 7.63037 210.971 7.75782C211.002 7.88526 211.009 8.01773 210.989 8.14765C210.97 8.27757 210.925 8.40239 210.858 8.515L205.766 17H208C208.265 17 208.52 17.1054 208.707 17.2929C208.895 17.4804 209 17.7348 209 18C209 18.2652 208.895 18.5196 208.707 18.7071C208.52 18.8946 208.265 19 208 19ZM217 19H213.766L215.858 22.485C215.994 22.7124 216.035 22.9848 215.971 23.2422C215.906 23.4996 215.742 23.7209 215.515 23.8575C215.288 23.9941 215.015 24.0347 214.758 23.9705C214.5 23.9063 214.279 23.7424 214.143 23.515L209.343 15.515C209.206 15.2876 209.165 15.0152 209.23 14.7578C209.294 14.5004 209.458 14.2791 209.685 14.1425C209.912 14.0059 210.185 13.9653 210.442 14.0295C210.7 14.0937 210.921 14.2576 211.058 14.485L212.566 17H217C217.265 17 217.52 17.1054 217.707 17.2929C217.895 17.4804 218 17.7348 218 18C218 18.2652 217.895 18.5196 217.707 18.7071C217.52 18.8946 217.265 19 217 19Z" fill="currentColor"/>
<path opacity="0.2" d="M262.455 20H249.545L256 9.07751L262.455 20Z" fill="currentColor"/>
<path d="M248.042 24.5088L246.861 26.5088C246.794 26.6219 246.706 26.7207 246.601 26.7996C246.496 26.8785 246.376 26.936 246.249 26.9687C245.992 27.0349 245.72 26.9962 245.491 26.8613C245.263 26.7263 245.097 26.5062 245.031 26.2493C244.965 25.9923 245.004 25.7197 245.139 25.4913L246.321 23.4913C246.386 23.3751 246.474 23.2732 246.579 23.1914C246.685 23.1096 246.805 23.0497 246.934 23.0151C247.062 22.9805 247.196 22.972 247.328 22.99C247.46 23.008 247.587 23.0522 247.702 23.12C247.817 23.1877 247.917 23.2778 247.996 23.3847C248.076 23.4916 248.133 23.6134 248.164 23.7427C248.196 23.8721 248.202 24.0065 248.181 24.1381C248.16 24.2696 248.113 24.3956 248.042 24.5088ZM269 19H263.025L259.184 12.5C259.119 12.3839 259.031 12.2819 258.926 12.2001C258.82 12.1184 258.7 12.0584 258.571 12.0239C258.443 11.9893 258.309 11.9807 258.177 11.9987C258.045 12.0167 257.918 12.0609 257.803 12.1287C257.688 12.1965 257.588 12.2865 257.509 12.3934C257.429 12.5004 257.372 12.6221 257.341 12.7515C257.309 12.8809 257.303 13.0153 257.324 13.1468C257.345 13.2784 257.392 13.4044 257.462 13.5175L265.139 26.5088C265.274 26.7372 265.494 26.9026 265.751 26.9687C266.008 27.0349 266.28 26.9962 266.509 26.8613C266.737 26.7263 266.903 26.5062 266.969 26.2493C267.035 25.9923 266.996 25.7197 266.861 25.4913L264.208 21H269C269.265 21 269.52 20.8947 269.707 20.7071C269.895 20.5196 270 20.2652 270 20C270 19.7348 269.895 19.4804 269.707 19.2929C269.52 19.1054 269.265 19 269 19ZM257.809 19H251.297L259.861 4.50876C259.996 4.28034 260.035 4.00768 259.969 3.75076C259.903 3.49383 259.737 3.27369 259.509 3.13876C259.28 3.00383 259.008 2.96517 258.751 3.03128C258.494 3.09738 258.274 3.26284 258.139 3.49126L256 7.11126L253.861 3.48626C253.794 3.37316 253.706 3.27433 253.601 3.1954C253.496 3.11648 253.376 3.05901 253.249 3.02628C252.992 2.96017 252.72 2.99883 252.491 3.13376C252.263 3.26869 252.097 3.48883 252.031 3.74576C251.965 4.00268 252.004 4.27534 252.139 4.50376L254.839 9.07251L248.975 19H243C242.735 19 242.48 19.1054 242.293 19.2929C242.105 19.4804 242 19.7348 242 20C242 20.2652 242.105 20.5196 242.293 20.7071C242.48 20.8947 242.735 21 243 21H257.809C258.074 21 258.328 20.8947 258.516 20.7071C258.703 20.5196 258.809 20.2652 258.809 20C258.809 19.7348 258.703 19.4804 258.516 19.2929C258.328 19.1054 258.074 19 257.809 19Z" fill="currentColor"/>
</g>
<defs>
<clipPath id="clip0_17_13311">
<rect width="272" height="32" rx="5" fill="white"/>
</clipPath>
</defs>
</svg>
