<svg width="272" height="32" viewBox="0 0 272 32" fill="none" xmlns="http://www.w3.org/2000/svg">
<g clip-path="url(#clip0_17_13255)">
<path d="M22 11C22.9516 10.9915 23.8856 11.2561 24.6912 11.7625C24.9179 11.9076 25.1793 11.989 25.4482 11.9983C25.7171 12.0076 25.9836 11.9444 26.2197 11.8153C26.4558 11.6862 26.6528 11.496 26.7901 11.2646C26.9273 11.0331 26.9999 10.7691 27 10.5V6C27 5.46957 26.7893 4.96086 26.4142 4.58579C26.0391 4.21071 25.5304 4 25 4H7C6.46957 4 5.96086 4.21071 5.58579 4.58579C5.21071 4.96086 5 5.46957 5 6V26C5 26.5304 5.21071 27.0391 5.58579 27.4142C5.96086 27.7893 6.46957 28 7 28H25C25.5304 28 26.0391 27.7893 26.4142 27.4142C26.7893 27.0391 27 26.5304 27 26V21.5C26.9997 21.2314 26.9272 20.9678 26.7902 20.7368C26.6532 20.5058 26.4566 20.3158 26.2211 20.1867C25.9856 20.0575 25.7197 19.994 25.4513 20.0027C25.1828 20.0115 24.9216 20.0921 24.695 20.2362C23.7887 20.8175 23.0188 21.0375 22.04 21H22C20.6739 21 19.4021 20.4732 18.4645 19.5355C17.5268 18.5979 17 17.3261 17 16C17 14.6739 17.5268 13.4021 18.4645 12.4645C19.4021 11.5268 20.6739 11 22 11ZM15 16C15.0023 17.8523 15.7378 19.6285 17.0457 20.9401C18.3537 22.2518 20.1277 22.9924 21.98 23C23.025 23.052 24.0656 22.8319 25 22.3612V26H7V6H25V9.65375C23.9305 9.15739 22.7534 8.9377 21.5769 9.01486C20.4003 9.09202 19.262 9.46355 18.2665 10.0953C17.271 10.7271 16.4501 11.5989 15.8794 12.6306C15.3086 13.6624 15.0062 14.8209 15 16Z" fill="currentColor"/>
<path d="M70 10.5C71.0472 10.4916 72.0749 10.7835 72.9613 11.3413C73.1123 11.4378 73.2865 11.492 73.4657 11.4982C73.6449 11.5043 73.8224 11.4622 73.9797 11.3762C74.137 11.2902 74.2683 11.1635 74.3598 11.0094C74.4514 10.8552 74.4998 10.6793 74.5 10.5V6C74.5 5.60218 74.342 5.22064 74.0607 4.93934C73.7794 4.65804 73.3978 4.5 73 4.5H55C54.6022 4.5 54.2206 4.65804 53.9393 4.93934C53.658 5.22064 53.5 5.60218 53.5 6V26C53.5 26.3978 53.658 26.7794 53.9393 27.0607C54.2206 27.342 54.6022 27.5 55 27.5H73C73.3978 27.5 73.7794 27.342 74.0607 27.0607C74.342 26.7794 74.5 26.3978 74.5 26V21.5C74.4998 21.3211 74.4516 21.1455 74.3604 20.9916C74.2693 20.8376 74.1385 20.7109 73.9817 20.6248C73.8249 20.5386 73.6479 20.496 73.469 20.5016C73.2902 20.5071 73.1162 20.5605 72.965 20.6562C71.965 21.2987 71.1125 21.5425 70.02 21.4988H70C68.5413 21.4988 67.1424 20.9193 66.1109 19.8878C65.0795 18.8564 64.5 17.4574 64.5 15.9987C64.5 14.5401 65.0795 13.1411 66.1109 12.1097C67.1424 11.0782 68.5413 10.4987 70 10.4987V10.5ZM63.5 16C63.5016 17.7217 64.1856 19.3725 65.4021 20.5908C66.6186 21.8092 68.2683 22.4957 69.99 22.5C71.2838 22.55 72.335 22.25 73.5 21.5V26C73.5 26.1326 73.4473 26.2598 73.3536 26.3536C73.2598 26.4473 73.1326 26.5 73 26.5H55C54.8674 26.5 54.7402 26.4473 54.6464 26.3536C54.5527 26.2598 54.5 26.1326 54.5 26V6C54.5 5.86739 54.5527 5.74021 54.6464 5.64645C54.7402 5.55268 54.8674 5.5 55 5.5H73C73.1326 5.5 73.2598 5.55268 73.3536 5.64645C73.4473 5.74021 73.5 5.86739 73.5 6V10.5C72.5141 9.88151 71.3807 9.53778 70.2174 9.50437C69.054 9.47096 67.9028 9.7491 66.883 10.31C65.8632 10.8709 65.0118 11.6941 64.417 12.6945C63.8223 13.6949 63.5056 14.8361 63.5 16Z" fill="currentColor"/>
<path d="M118 10.75C118.999 10.7414 119.98 11.0195 120.826 11.5513C121.015 11.6721 121.233 11.7399 121.457 11.7476C121.681 11.7554 121.903 11.7027 122.099 11.5953C122.296 11.4878 122.46 11.3294 122.575 11.1367C122.689 10.944 122.75 10.7241 122.75 10.5V6C122.75 5.53587 122.566 5.09075 122.237 4.76256C121.909 4.43437 121.464 4.25 121 4.25H103C102.536 4.25 102.091 4.43437 101.763 4.76256C101.434 5.09075 101.25 5.53587 101.25 6V26C101.25 26.4641 101.434 26.9092 101.763 27.2374C102.091 27.5656 102.536 27.75 103 27.75H121C121.464 27.75 121.909 27.5656 122.237 27.2374C122.566 26.9092 122.75 26.4641 122.75 26V21.5C122.75 21.2762 122.689 21.0567 122.575 20.8642C122.461 20.6717 122.298 20.5134 122.101 20.4057C121.905 20.2981 121.684 20.245 121.46 20.2522C121.237 20.2593 121.019 20.3263 120.83 20.4463C119.876 21.0575 119.066 21.2913 118.03 21.2488H118C116.608 21.2488 115.272 20.6956 114.288 19.7111C113.303 18.7265 112.75 17.3911 112.75 15.9987C112.75 14.6064 113.303 13.271 114.288 12.2864C115.272 11.3019 116.608 10.7487 118 10.7487V10.75ZM111.25 16C111.252 17.787 111.962 19.5005 113.224 20.7655C114.486 22.0305 116.198 22.7441 117.985 22.75C119.129 22.8107 120.265 22.531 121.25 21.9463V26C121.25 26.0663 121.224 26.1299 121.177 26.1768C121.13 26.2237 121.066 26.25 121 26.25H103C102.934 26.25 102.87 26.2237 102.823 26.1768C102.776 26.1299 102.75 26.0663 102.75 26V6C102.75 5.9337 102.776 5.87011 102.823 5.82322C102.87 5.77634 102.934 5.75 103 5.75H121C121.066 5.75 121.13 5.77634 121.177 5.82322C121.224 5.87011 121.25 5.9337 121.25 6V10.06C120.219 9.50519 119.062 9.22664 117.891 9.25142C116.721 9.2762 115.576 9.60348 114.57 10.2014C113.563 10.7994 112.728 11.6476 112.147 12.6637C111.565 13.6798 111.256 14.8292 111.25 16Z" fill="currentColor"/>
<path d="M166 11.5C166.856 11.4914 167.697 11.7287 168.423 12.1838C168.725 12.377 169.073 12.4854 169.432 12.4977C169.79 12.5099 170.145 12.4255 170.46 12.2534C170.775 12.0812 171.037 11.8276 171.22 11.5192C171.403 11.2107 171.5 10.8587 171.5 10.5V6C171.5 5.33696 171.237 4.70107 170.768 4.23223C170.299 3.76339 169.663 3.5 169 3.5H151C150.337 3.5 149.701 3.76339 149.232 4.23223C148.763 4.70107 148.5 5.33696 148.5 6V26C148.5 26.663 148.763 27.2989 149.232 27.7678C149.701 28.2366 150.337 28.5 151 28.5H169C169.663 28.5 170.299 28.2366 170.768 27.7678C171.237 27.2989 171.5 26.663 171.5 26V21.5C171.5 21.1416 171.403 20.7899 171.22 20.4816C171.038 20.1733 170.775 19.9198 170.461 19.7476C170.147 19.5754 169.792 19.4908 169.434 19.5026C169.076 19.5145 168.727 19.6224 168.425 19.815C167.602 20.3425 166.939 20.535 166.06 20.5H166C164.807 20.5 163.662 20.0259 162.818 19.182C161.974 18.3381 161.5 17.1935 161.5 16C161.5 14.8065 161.974 13.6619 162.818 12.818C163.662 11.9741 164.807 11.5 166 11.5ZM165.97 23.5C166.83 23.5425 167.69 23.415 168.5 23.125V25.5H151.5V6.5H168.5V8.9125C167.695 8.63778 166.85 8.49839 166 8.5C164.011 8.49602 162.102 9.28238 160.692 10.6861C159.283 12.0898 158.489 13.9959 158.485 15.985C158.481 17.9741 159.267 19.8834 160.671 21.2927C162.075 22.702 163.981 23.496 165.97 23.5Z" fill="currentColor"/>
<path d="M209 16C209 17.3261 209.527 18.5979 210.464 19.5355C211.402 20.4732 212.674 21 214 21H214.04C215.019 21.0375 215.79 20.8175 216.695 20.2362C216.922 20.0921 217.183 20.0115 217.451 20.0027C217.72 19.994 217.986 20.0575 218.221 20.1867C218.457 20.3158 218.653 20.5058 218.79 20.7368C218.927 20.9678 219 21.2314 219 21.5V26C219 26.5304 218.789 27.0391 218.414 27.4142C218.039 27.7893 217.53 28 217 28H199C198.47 28 197.961 27.7893 197.586 27.4142C197.211 27.0391 197 26.5304 197 26V6C197 5.46957 197.211 4.96086 197.586 4.58579C197.961 4.21071 198.47 4 199 4H217C217.53 4 218.039 4.21071 218.414 4.58579C218.789 4.96086 219 5.46957 219 6V10.5C219 10.7691 218.927 11.0331 218.79 11.2646C218.653 11.496 218.456 11.6862 218.22 11.8153C217.984 11.9444 217.717 12.0076 217.448 11.9983C217.179 11.989 216.918 11.9076 216.691 11.7625C215.932 11.2886 215.06 11.026 214.165 11.0016C213.271 10.9773 212.386 11.1922 211.602 11.624C210.818 12.0559 210.164 12.6891 209.706 13.4584C209.249 14.2277 209.005 15.105 209 16Z" fill="currentColor"/>
<path opacity="0.2" d="M256 16C256 17.5913 256.632 19.1174 257.757 20.2426C258.883 21.3679 260.409 22 262 22C263.284 22.0513 264.238 21.7188 265.235 21.0788C265.31 21.0316 265.397 21.0054 265.486 21.0029C265.575 21.0005 265.663 21.0218 265.741 21.0648C265.819 21.1077 265.884 21.1707 265.93 21.2472C265.975 21.3237 266 21.411 266 21.5V26C266 26.2652 265.895 26.5196 265.707 26.7071C265.52 26.8946 265.265 27 265 27H247C246.735 27 246.48 26.8946 246.293 26.7071C246.105 26.5196 246 26.2652 246 26V6C246 5.73478 246.105 5.48043 246.293 5.29289C246.48 5.10536 246.735 5 247 5H265C265.265 5 265.52 5.10536 265.707 5.29289C265.895 5.48043 266 5.73478 266 6V10.5C266 10.5895 265.975 10.6773 265.93 10.7542C265.884 10.831 265.818 10.8942 265.74 10.9372C265.661 10.9801 265.573 11.0011 265.483 10.9981C265.394 10.9951 265.307 10.9681 265.231 10.92C264.321 10.3496 263.274 10.0328 262.201 10.0024C261.127 9.97205 260.064 10.2291 259.123 10.7471C258.181 11.2651 257.396 12.0252 256.847 12.9487C256.298 13.8722 256.005 14.9256 256 16Z" fill="currentColor"/>
<path d="M262 11C262.952 10.9915 263.886 11.2561 264.691 11.7625C264.918 11.9076 265.179 11.989 265.448 11.9983C265.717 12.0076 265.984 11.9444 266.22 11.8153C266.456 11.6862 266.653 11.496 266.79 11.2646C266.927 11.0331 267 10.7691 267 10.5V6C267 5.46957 266.789 4.96086 266.414 4.58579C266.039 4.21071 265.53 4 265 4H247C246.47 4 245.961 4.21071 245.586 4.58579C245.211 4.96086 245 5.46957 245 6V26C245 26.5304 245.211 27.0391 245.586 27.4142C245.961 27.7893 246.47 28 247 28H265C265.53 28 266.039 27.7893 266.414 27.4142C266.789 27.0391 267 26.5304 267 26V21.5C267 21.2314 266.927 20.9678 266.79 20.7368C266.653 20.5058 266.457 20.3158 266.221 20.1867C265.986 20.0575 265.72 19.994 265.451 20.0027C265.183 20.0115 264.922 20.0921 264.695 20.2362C263.789 20.8175 263.019 21.0375 262.04 21H262C260.674 21 259.402 20.4732 258.464 19.5355C257.527 18.5979 257 17.3261 257 16C257 14.6739 257.527 13.4021 258.464 12.4645C259.402 11.5268 260.674 11 262 11ZM255 16C255.002 17.8523 255.738 19.6285 257.046 20.9401C258.354 22.2518 260.128 22.9924 261.98 23C263.025 23.0518 264.065 22.8317 265 22.3612V26H247V6H265V9.65375C263.93 9.15739 262.753 8.9377 261.577 9.01486C260.4 9.09202 259.262 9.46355 258.266 10.0953C257.271 10.7271 256.45 11.5989 255.879 12.6306C255.309 13.6624 255.006 14.8209 255 16Z" fill="currentColor"/>
</g>
<defs>
<clipPath id="clip0_17_13255">
<rect width="272" height="32" rx="5" fill="white"/>
</clipPath>
</defs>
</svg>
