<svg width="272" height="32" viewBox="0 0 272 32" fill="none" xmlns="http://www.w3.org/2000/svg">
<g clip-path="url(#clip0_17_13227)">
<path d="M27.96 8.26875L16.96 2.25C16.6659 2.08827 16.3357 2.00348 16 2.00348C15.6643 2.00348 15.3341 2.08827 15.04 2.25L4.04 8.2725C3.72586 8.44438 3.46363 8.69745 3.28069 9.00528C3.09775 9.31311 3.00081 9.66441 3 10.0225V21.9775C3.00081 22.3356 3.09775 22.6869 3.28069 22.9947C3.46363 23.3025 3.72586 23.5556 4.04 23.7275L15.04 29.7487C15.3339 29.9111 15.6642 29.9963 16 29.9963C16.3358 29.9963 16.6661 29.9111 16.96 29.7487L27.96 23.7275C28.2741 23.5556 28.5364 23.3025 28.7193 22.9947C28.9023 22.6869 28.9992 22.3356 29 21.9775V10.0225C28.9999 9.66377 28.9032 9.31169 28.7203 9.00314C28.5373 8.69459 28.2747 8.44093 27.96 8.26875ZM21 19V25.2612L17 27.4512V16.5925L27 11.1175V15.1175L21.52 18.1175C21.3618 18.204 21.23 18.3318 21.1384 18.4871C21.0469 18.6425 20.9991 18.8197 21 19ZM10.48 18.125L5 15.125V11.125L15 16.6V27.4587L11 25.2612V19C10.9996 18.821 10.9511 18.6453 10.8597 18.4914C10.7682 18.3375 10.6371 18.2109 10.48 18.125ZM10.3925 7.07375L15.5175 9.88C15.6647 9.96052 15.8297 10.0027 15.9975 10.0027C16.1653 10.0027 16.3303 9.96052 16.4775 9.88L21.6025 7.07375L25.9125 9.4325L16 14.86L6.0825 9.43L10.3925 7.07375ZM16 4L19.525 5.93L16 7.86125L12.475 5.93125L16 4ZM5 17.4025L9 19.5925V24.1662L5 21.9775V17.4025ZM23 24.1662V19.5925L27 17.4025V21.9775L23 24.1662Z" fill="currentColor"/>
<path d="M75.72 8.70751L64.72 2.68501C64.4992 2.56422 64.2516 2.50092 64 2.50092C63.7484 2.50092 63.5008 2.56422 63.28 2.68501L52.28 8.70751C52.044 8.83663 51.8471 9.02682 51.7099 9.25817C51.5727 9.48953 51.5002 9.75352 51.5 10.0225V21.9775C51.5002 22.2465 51.5727 22.5105 51.7099 22.7419C51.8471 22.9732 52.044 23.1634 52.28 23.2925L63.28 29.315C63.5006 29.4364 63.7482 29.5 64 29.5C64.2518 29.5 64.4994 29.4364 64.72 29.315L75.72 23.2925C75.956 23.1634 76.1529 22.9732 76.2901 22.7419C76.4273 22.5105 76.4998 22.2465 76.5 21.9775V10.0225C76.4998 9.75352 76.4273 9.48953 76.2901 9.25817C76.1529 9.02682 75.956 8.83663 75.72 8.70751ZM64 15.43L53.0413 9.43001L58.3925 6.50001L63.76 9.43751C63.8336 9.47778 63.9161 9.49888 64 9.49888C64.0839 9.49888 64.1664 9.47778 64.24 9.43751L69.6075 6.50001L74.9587 9.42876L64 15.43ZM63.76 3.56251C63.8334 3.52157 63.916 3.50008 64 3.50008C64.084 3.50008 64.1666 3.52157 64.24 3.56251L68.5662 5.93751L64 8.43001L59.4338 5.93001L63.76 3.56251ZM52.5 21.9775V16.5588L57.5 19.2963V25.0113L52.76 22.4163C52.6813 22.3732 52.6156 22.3097 52.5699 22.2325C52.5241 22.1553 52.5 22.0672 52.5 21.9775ZM58.5 25.5588V19C58.5 18.9103 58.4759 18.8222 58.4301 18.745C58.3844 18.6678 58.3187 18.6043 58.24 18.5613L52.5 15.4188V10.2738L63.5 16.2963V28.2963L58.5 25.5588ZM64.5 28.295V16.295L75.5 10.2725V15.4175L69.76 18.56C69.6811 18.6032 69.6153 18.6668 69.5695 18.7443C69.5238 18.8217 69.4998 18.9101 69.5 19V25.5588L64.5 28.295ZM75.24 22.42L70.5 25.0113V19.2963L75.5 16.5588V21.9775C75.5 22.0672 75.4759 22.1553 75.4301 22.2325C75.3844 22.3097 75.3187 22.3732 75.24 22.4163V22.42Z" fill="currentColor"/>
<path d="M123.84 8.48874L112.84 2.46624C112.583 2.3242 112.294 2.24969 112 2.24969C111.706 2.24969 111.417 2.3242 111.16 2.46624L100.16 8.48749C99.8846 8.63819 99.6548 8.86022 99.4946 9.13029C99.3345 9.40036 99.25 9.70853 99.25 10.0225V21.9775C99.25 22.2915 99.3345 22.5996 99.4946 22.8697C99.6548 23.1398 99.8846 23.3618 100.16 23.5125L111.16 29.5337C111.417 29.6756 111.706 29.7499 112 29.7499C112.294 29.7499 112.583 29.6756 112.84 29.5337L123.84 23.5125C124.115 23.3618 124.345 23.1398 124.505 22.8697C124.665 22.5996 124.75 22.2915 124.75 21.9775V10.0225C124.75 9.70874 124.665 9.40083 124.505 9.131C124.345 8.86117 124.115 8.63934 123.84 8.48874ZM112 15.145L101.561 9.42999L106.392 6.78624L111.642 9.66124C111.753 9.72163 111.877 9.75329 112.003 9.75329C112.128 9.75329 112.252 9.72163 112.362 9.66124L117.612 6.78624L122.444 9.42999L112 15.145ZM111.875 3.78124C111.912 3.76111 111.953 3.75056 111.995 3.75056C112.037 3.75056 112.078 3.76111 112.115 3.78124L116.04 5.93124L112 8.14499L107.954 5.93124L111.875 3.78124ZM100.75 21.9775V16.9775L105.25 19.44V24.585L100.875 22.1962C100.837 22.1741 100.805 22.1422 100.783 22.1038C100.761 22.0653 100.75 22.0218 100.75 21.9775ZM106.75 25.41V19C106.75 18.8655 106.714 18.7335 106.645 18.6178C106.576 18.5021 106.478 18.407 106.36 18.3425L100.75 15.2712V10.6962L111.25 16.4462V27.875L106.75 25.41ZM112.75 27.875V16.445L123.25 10.695V15.27L117.64 18.3412C117.522 18.4059 117.423 18.5012 117.355 18.6171C117.286 18.733 117.25 18.8653 117.25 19V25.41L112.75 27.875ZM123.125 22.1975L118.75 24.59V19.4437L123.25 16.9812V21.9812C123.25 22.0249 123.238 22.0677 123.216 22.1054C123.194 22.1431 123.163 22.1744 123.125 22.1962V22.1975Z" fill="currentColor"/>
<path d="M172.2 7.83128L161.2 1.80878C160.832 1.60646 160.42 1.50037 160 1.50037C159.58 1.50037 159.168 1.60646 158.8 1.80878L147.8 7.83003C147.406 8.04539 147.078 8.36271 146.849 8.74869C146.621 9.13468 146.5 9.57511 146.5 10.0238V21.9763C146.5 22.4249 146.621 22.8654 146.849 23.2514C147.078 23.6373 147.406 23.9547 147.8 24.17L158.8 30.1913C159.168 30.3938 159.58 30.5 160 30.5C160.42 30.5 160.832 30.3938 161.2 30.1913L172.2 24.1688C172.593 23.9535 172.922 23.6364 173.15 23.2506C173.379 22.8649 173.5 22.4247 173.5 21.9763V10.0238C173.5 9.57532 173.379 9.13515 173.15 8.7494C172.922 8.36366 172.593 8.04654 172.2 7.83128ZM164.5 19V24.965L161.5 26.6075V16.8888L170.5 11.9613V14.8263L165.28 17.6838C165.044 17.813 164.847 18.0034 164.71 18.235C164.572 18.4666 164.5 18.7308 164.5 19ZM154.72 17.6838L149.5 14.8263V11.9613L158.5 16.8888V26.6075L155.5 24.965V19C155.5 18.7308 155.428 18.4666 155.29 18.235C155.153 18.0034 154.956 17.813 154.72 17.6838ZM154.392 7.64128L159.28 10.3163C159.501 10.4376 159.748 10.5013 160 10.5013C160.252 10.5013 160.499 10.4376 160.72 10.3163L165.608 7.64128L168.875 9.43128L160 14.29L151.125 9.43128L154.392 7.64128ZM160 4.57128L162.484 5.93128L160 7.29128L157.516 5.93128L160 4.57128ZM149.5 18.25L152.5 19.8925V23.3263L149.5 21.68V18.25ZM167.5 23.3263V19.8888L170.5 18.25V21.6838L167.5 23.3263Z" fill="currentColor"/>
<path d="M220.736 9.03125C220.554 8.71229 220.286 8.45011 219.964 8.27375L208.96 2.25C208.666 2.08827 208.336 2.00348 208 2.00348C207.664 2.00348 207.334 2.08827 207.04 2.25L196.04 8.2725C195.718 8.44886 195.45 8.71104 195.267 9.03C195.093 9.33187 195.001 9.67401 195 10.0225V21.9775C195.001 22.3356 195.098 22.6869 195.281 22.9947C195.464 23.3025 195.726 23.5556 196.04 23.7275L207.04 29.7487C207.334 29.9111 207.664 29.9963 208 29.9963C208.336 29.9963 208.666 29.9111 208.96 29.7487L219.96 23.7275C220.274 23.5556 220.536 23.3025 220.719 22.9947C220.902 22.6869 220.999 22.3356 221 21.9775V10.0225C221 9.67477 220.909 9.33312 220.736 9.03125ZM207 27.4512L203 25.2612V19C203 18.821 202.951 18.6453 202.86 18.4914C202.768 18.3375 202.637 18.2109 202.48 18.125L197 15.125V11.125L207 16.6V27.4512ZM208 14.86L198.082 9.43L202.392 7.07125L207.517 9.8775C207.665 9.95802 207.83 10.0002 207.998 10.0002C208.165 10.0002 208.33 9.95802 208.478 9.8775L213.603 7.07125L217.913 9.43L208 14.86ZM219 15.1225L213.52 18.1225C213.363 18.2084 213.232 18.335 213.14 18.4889C213.049 18.6428 213 18.8185 213 18.9975V25.2587L209 27.4487V16.5925L219 11.1175V15.1225Z" fill="currentColor"/>
<path opacity="0.2" d="M244 15.7162L250 19V25.855L244.52 22.855C244.363 22.769 244.232 22.6425 244.14 22.4886C244.049 22.3347 244 22.159 244 21.98V15.7162ZM262 19V25.855L267.48 22.855C267.637 22.769 267.768 22.6425 267.86 22.4886C267.951 22.3347 268 22.159 268 21.98V15.7175L262 19ZM255.52 3.12499L250.395 5.93249L256 8.99999L261.608 5.92999L256.48 3.12499C256.333 3.04446 256.168 3.00226 256 3.00226C255.832 3.00226 255.667 3.04446 255.52 3.12499Z" fill="currentColor"/>
<path d="M267.96 8.26875L256.96 2.25C256.666 2.08827 256.336 2.00348 256 2.00348C255.664 2.00348 255.334 2.08827 255.04 2.25L244.04 8.2725C243.726 8.44438 243.464 8.69745 243.281 9.00528C243.098 9.31311 243.001 9.66441 243 10.0225V21.9775C243.001 22.3356 243.098 22.6869 243.281 22.9947C243.464 23.3025 243.726 23.5556 244.04 23.7275L255.04 29.7487C255.334 29.9111 255.664 29.9963 256 29.9963C256.336 29.9963 256.666 29.9111 256.96 29.7487L267.96 23.7275C268.274 23.5556 268.536 23.3025 268.719 22.9947C268.902 22.6869 268.999 22.3356 269 21.9775V10.0225C269 9.66377 268.903 9.31169 268.72 9.00314C268.537 8.69459 268.275 8.44093 267.96 8.26875ZM261 19V25.2612L257 27.4512V16.5925L267 11.1175V15.1175L261.52 18.1175C261.362 18.204 261.23 18.3318 261.138 18.4871C261.047 18.6425 260.999 18.8197 261 19ZM250.48 18.125L245 15.125V11.125L255 16.6V27.4587L251 25.2612V19C251 18.821 250.951 18.6453 250.86 18.4914C250.768 18.3375 250.637 18.2109 250.48 18.125ZM250.392 7.07375L255.517 9.88C255.665 9.96052 255.83 10.0027 255.998 10.0027C256.165 10.0027 256.33 9.96052 256.478 9.88L261.603 7.07375L265.913 9.4325L256 14.86L246.082 9.43L250.392 7.07375ZM256 4L259.525 5.93L256 7.86125L252.475 5.93125L256 4ZM245 17.4025L249 19.5925V24.1662L245 21.9775V17.4025ZM263 24.1662V19.5925L267 17.4025V21.9775L263 24.1662Z" fill="currentColor"/>
</g>
<defs>
<clipPath id="clip0_17_13227">
<rect width="272" height="32" rx="5" fill="white"/>
</clipPath>
</defs>
</svg>
