<svg width="272" height="32" viewBox="0 0 272 32" fill="none" xmlns="http://www.w3.org/2000/svg">
<g clip-path="url(#clip0_17_13213)">
<path d="M29 7H3C2.46957 7 1.96086 7.21071 1.58579 7.58579C1.21071 7.96086 1 8.46957 1 9V23C1 23.5304 1.21071 24.0391 1.58579 24.4142C1.96086 24.7893 2.46957 25 3 25H29C29.5304 25 30.0391 24.7893 30.4142 24.4142C30.7893 24.0391 31 23.5304 31 23V9C31 8.46957 30.7893 7.96086 30.4142 7.58579C30.0391 7.21071 29.5304 7 29 7ZM29 23H3V9H29V23ZM16 13V15H17C17.2652 15 17.5196 15.1054 17.7071 15.2929C17.8946 15.4804 18 15.7348 18 16C18 16.2652 17.8946 16.5196 17.7071 16.7071C17.5196 16.8946 17.2652 17 17 17H16V19H18C18.2652 19 18.5196 19.1054 18.7071 19.2929C18.8946 19.4804 19 19.7348 19 20C19 20.2652 18.8946 20.5196 18.7071 20.7071C18.5196 20.8946 18.2652 21 18 21H15C14.7348 21 14.4804 20.8946 14.2929 20.7071C14.1054 20.5196 14 20.2652 14 20V12C14 11.7348 14.1054 11.4804 14.2929 11.2929C14.4804 11.1054 14.7348 11 15 11H18C18.2652 11 18.5196 11.1054 18.7071 11.2929C18.8946 11.4804 19 11.7348 19 12C19 12.2652 18.8946 12.5196 18.7071 12.7071C18.5196 12.8946 18.2652 13 18 13H16ZM26.9625 12.2712L24.7125 20.2712C24.6534 20.481 24.5274 20.6657 24.3536 20.7972C24.1799 20.9288 23.9679 21 23.75 21C23.5321 21 23.3201 20.9288 23.1464 20.7972C22.9726 20.6657 22.8466 20.481 22.7875 20.2712L20.5375 12.2712C20.4668 12.0164 20.5 11.7439 20.6297 11.5134C20.7595 11.2829 20.9753 11.1132 21.2299 11.0415C21.4845 10.9697 21.7571 11.0018 21.9881 11.1306C22.2191 11.2594 22.3897 11.4745 22.4625 11.7288L23.75 16.3062L25.0375 11.7288C25.0727 11.6019 25.1326 11.4832 25.2138 11.3795C25.2949 11.2758 25.3958 11.1892 25.5105 11.1246C25.6253 11.06 25.7516 11.0187 25.8824 11.0031C26.0131 10.9874 26.1456 10.9978 26.2724 11.0335C26.3991 11.0692 26.5175 11.1296 26.6209 11.2112C26.7242 11.2928 26.8104 11.394 26.8745 11.509C26.9387 11.624 26.9794 11.7506 26.9945 11.8814C27.0096 12.0122 26.9987 12.1447 26.9625 12.2712ZM8 11H7C6.73478 11 6.48043 11.1054 6.29289 11.2929C6.10536 11.4804 6 11.7348 6 12V20C6 20.2652 6.10536 20.5196 6.29289 20.7071C6.48043 20.8946 6.73478 21 7 21H8C9.06087 21 10.0783 20.5786 10.8284 19.8284C11.5786 19.0783 12 18.0609 12 17V15C12 13.9391 11.5786 12.9217 10.8284 12.1716C10.0783 11.4214 9.06087 11 8 11ZM10 17C10 17.5304 9.78929 18.0391 9.41421 18.4142C9.03914 18.7893 8.53043 19 8 19V13C8.53043 13 9.03914 13.2107 9.41421 13.5858C9.78929 13.9609 10 14.4696 10 15V17Z" fill="currentColor"/>
<path d="M77 7.5H51C50.6022 7.5 50.2206 7.65804 49.9393 7.93934C49.658 8.22064 49.5 8.60218 49.5 9V23C49.5 23.3978 49.658 23.7794 49.9393 24.0607C50.2206 24.342 50.6022 24.5 51 24.5H77C77.3978 24.5 77.7794 24.342 78.0607 24.0607C78.342 23.7794 78.5 23.3978 78.5 23V9C78.5 8.60218 78.342 8.22064 78.0607 7.93934C77.7794 7.65804 77.3978 7.5 77 7.5ZM77.5 23C77.5 23.1326 77.4473 23.2598 77.3536 23.3536C77.2598 23.4473 77.1326 23.5 77 23.5H51C50.8674 23.5 50.7402 23.4473 50.6464 23.3536C50.5527 23.2598 50.5 23.1326 50.5 23V9C50.5 8.86739 50.5527 8.74021 50.6464 8.64645C50.7402 8.55268 50.8674 8.5 51 8.5H77C77.1326 8.5 77.2598 8.55268 77.3536 8.64645C77.4473 8.74021 77.5 8.86739 77.5 9V23ZM63.5 12.5V15.5H65C65.1326 15.5 65.2598 15.5527 65.3536 15.6464C65.4473 15.7402 65.5 15.8674 65.5 16C65.5 16.1326 65.4473 16.2598 65.3536 16.3536C65.2598 16.4473 65.1326 16.5 65 16.5H63.5V19.5H66C66.1326 19.5 66.2598 19.5527 66.3536 19.6464C66.4473 19.7402 66.5 19.8674 66.5 20C66.5 20.1326 66.4473 20.2598 66.3536 20.3536C66.2598 20.4473 66.1326 20.5 66 20.5H63C62.8674 20.5 62.7402 20.4473 62.6464 20.3536C62.5527 20.2598 62.5 20.1326 62.5 20V12C62.5 11.8674 62.5527 11.7402 62.6464 11.6464C62.7402 11.5527 62.8674 11.5 63 11.5H66C66.1326 11.5 66.2598 11.5527 66.3536 11.6464C66.4473 11.7402 66.5 11.8674 66.5 12C66.5 12.1326 66.4473 12.2598 66.3536 12.3536C66.2598 12.4473 66.1326 12.5 66 12.5H63.5ZM74.4813 12.135L72.2313 20.135C72.2017 20.2399 72.1387 20.3322 72.0518 20.398C71.9649 20.4638 71.859 20.4994 71.75 20.4994C71.641 20.4994 71.5351 20.4638 71.4482 20.398C71.3613 20.3322 71.2983 20.2399 71.2687 20.135L69.0187 12.135C68.999 12.0712 68.9923 12.0041 68.9989 11.9377C69.0055 11.8712 69.0254 11.8068 69.0574 11.7482C69.0893 11.6895 69.1326 11.6379 69.1849 11.5963C69.2371 11.5547 69.2971 11.5239 69.3614 11.5059C69.4257 11.4879 69.4929 11.4829 69.5592 11.4913C69.6254 11.4996 69.6893 11.5212 69.7471 11.5547C69.8049 11.5881 69.8553 11.6329 69.8956 11.6861C69.9358 11.7394 69.9649 11.8003 69.9813 11.865L71.75 18.1537L73.5187 11.865C73.5572 11.7405 73.6428 11.6359 73.7573 11.5736C73.8717 11.5112 74.006 11.4961 74.1315 11.5313C74.257 11.5665 74.3638 11.6493 74.4291 11.762C74.4944 11.8748 74.5131 12.0086 74.4813 12.135ZM56 11.5H55C54.8674 11.5 54.7402 11.5527 54.6464 11.6464C54.5527 11.7402 54.5 11.8674 54.5 12V20C54.5 20.1326 54.5527 20.2598 54.6464 20.3536C54.7402 20.4473 54.8674 20.5 55 20.5H56C56.9283 20.5 57.8185 20.1313 58.4749 19.4749C59.1313 18.8185 59.5 17.9283 59.5 17V15C59.5 14.0717 59.1313 13.1815 58.4749 12.5251C57.8185 11.8687 56.9283 11.5 56 11.5ZM58.5 17C58.5 17.663 58.2366 18.2989 57.7678 18.7678C57.2989 19.2366 56.663 19.5 56 19.5H55.5V12.5H56C56.663 12.5 57.2989 12.7634 57.7678 13.2322C58.2366 13.7011 58.5 14.337 58.5 15V17Z" fill="currentColor"/>
<path d="M125 7.25H99C98.5359 7.25 98.0908 7.43437 97.7626 7.76256C97.4344 8.09075 97.25 8.53587 97.25 9V23C97.25 23.4641 97.4344 23.9092 97.7626 24.2374C98.0908 24.5656 98.5359 24.75 99 24.75H125C125.464 24.75 125.909 24.5656 126.237 24.2374C126.566 23.9092 126.75 23.4641 126.75 23V9C126.75 8.53587 126.566 8.09075 126.237 7.76256C125.909 7.43437 125.464 7.25 125 7.25ZM125.25 23C125.25 23.0663 125.224 23.1299 125.177 23.1768C125.13 23.2237 125.066 23.25 125 23.25H99C98.9337 23.25 98.8701 23.2237 98.8232 23.1768C98.7763 23.1299 98.75 23.0663 98.75 23V9C98.75 8.9337 98.7763 8.87011 98.8232 8.82322C98.8701 8.77634 98.9337 8.75 99 8.75H125C125.066 8.75 125.13 8.77634 125.177 8.82322C125.224 8.87011 125.25 8.9337 125.25 9V23ZM111.75 12.75V15.25H113C113.199 15.25 113.39 15.329 113.53 15.4697C113.671 15.6103 113.75 15.8011 113.75 16C113.75 16.1989 113.671 16.3897 113.53 16.5303C113.39 16.671 113.199 16.75 113 16.75H111.75V19.25H114C114.199 19.25 114.39 19.329 114.53 19.4697C114.671 19.6103 114.75 19.8011 114.75 20C114.75 20.1989 114.671 20.3897 114.53 20.5303C114.39 20.671 114.199 20.75 114 20.75H111C110.801 20.75 110.61 20.671 110.47 20.5303C110.329 20.3897 110.25 20.1989 110.25 20V12C110.25 11.8011 110.329 11.6103 110.47 11.4697C110.61 11.329 110.801 11.25 111 11.25H114C114.199 11.25 114.39 11.329 114.53 11.4697C114.671 11.6103 114.75 11.8011 114.75 12C114.75 12.1989 114.671 12.3897 114.53 12.5303C114.39 12.671 114.199 12.75 114 12.75H111.75ZM122.722 12.2025L120.472 20.2025C120.429 20.3603 120.334 20.4994 120.204 20.5985C120.073 20.6976 119.914 20.7513 119.75 20.7513C119.586 20.7513 119.427 20.6976 119.296 20.5985C119.166 20.4994 119.071 20.3603 119.028 20.2025L116.778 12.2025C116.724 12.0109 116.748 11.8058 116.846 11.6323C116.943 11.4588 117.106 11.3312 117.298 11.2775C117.489 11.2238 117.694 11.2484 117.868 11.3459C118.041 11.4434 118.169 11.6059 118.222 11.7975L119.75 17.23L121.278 11.7975C121.331 11.6059 121.459 11.4434 121.632 11.3459C121.806 11.2484 122.011 11.2238 122.202 11.2775C122.394 11.3312 122.557 11.4588 122.654 11.6323C122.752 11.8058 122.776 12.0109 122.722 12.2025ZM104 11.25H103C102.801 11.25 102.61 11.329 102.47 11.4697C102.329 11.6103 102.25 11.8011 102.25 12V20C102.25 20.1989 102.329 20.3897 102.47 20.5303C102.61 20.671 102.801 20.75 103 20.75H104C104.995 20.75 105.948 20.3549 106.652 19.6517C107.355 18.9484 107.75 17.9946 107.75 17V15C107.75 14.0054 107.355 13.0516 106.652 12.3483C105.948 11.6451 104.995 11.25 104 11.25ZM106.25 17C106.25 17.5967 106.013 18.169 105.591 18.591C105.169 19.0129 104.597 19.25 104 19.25H103.75V12.75H104C104.597 12.75 105.169 12.9871 105.591 13.409C106.013 13.831 106.25 14.4033 106.25 15V17Z" fill="currentColor"/>
<path d="M173 6.5H147C146.672 6.5 146.347 6.56466 146.043 6.6903C145.74 6.81594 145.464 7.00009 145.232 7.23223C144.763 7.70107 144.5 8.33696 144.5 9V23C144.5 23.663 144.763 24.2989 145.232 24.7678C145.464 24.9999 145.74 25.1841 146.043 25.3097C146.347 25.4353 146.672 25.5 147 25.5H173C173.663 25.5 174.299 25.2366 174.768 24.7678C175.237 24.2989 175.5 23.663 175.5 23V9C175.5 8.33696 175.237 7.70107 174.768 7.23223C174.299 6.76339 173.663 6.5 173 6.5ZM172.5 22.5H147.5V9.5H172.5V22.5ZM157.5 19.5V12.5C157.5 12.1022 157.658 11.7206 157.939 11.4393C158.221 11.158 158.602 11 159 11H161.5C161.898 11 162.279 11.158 162.561 11.4393C162.842 11.7206 163 12.1022 163 12.5C163 12.8978 162.842 13.2794 162.561 13.5607C162.279 13.842 161.898 14 161.5 14H160.5V14.5C160.898 14.5 161.279 14.658 161.561 14.9393C161.842 15.2206 162 15.6022 162 16C162 16.3978 161.842 16.7794 161.561 17.0607C161.279 17.342 160.898 17.5 160.5 17.5V18H161.5C161.898 18 162.279 18.158 162.561 18.4393C162.842 18.7206 163 19.1022 163 19.5C163 19.8978 162.842 20.2794 162.561 20.5607C162.279 20.842 161.898 21 161.5 21H159C158.602 21 158.221 20.842 157.939 20.5607C157.658 20.2794 157.5 19.8978 157.5 19.5ZM164.058 12.9125C164.003 12.7231 163.987 12.5248 164.009 12.3291C164.032 12.1333 164.093 11.9439 164.188 11.7717C164.284 11.5994 164.413 11.4477 164.567 11.3252C164.721 11.2026 164.898 11.1117 165.087 11.0575C165.277 11.0033 165.475 10.987 165.671 11.0094C165.867 11.0319 166.056 11.0927 166.228 11.1883C166.401 11.284 166.552 11.4126 166.675 11.5669C166.797 11.7212 166.888 11.8981 166.942 12.0875L167.5 14.04L168.058 12.0875C168.167 11.7049 168.424 11.3815 168.772 11.1883C169.12 10.9952 169.53 10.9481 169.913 11.0575C170.295 11.1669 170.619 11.4238 170.812 11.7717C171.005 12.1196 171.052 12.5299 170.942 12.9125L168.942 19.9125C168.853 20.2261 168.664 20.502 168.404 20.6985C168.143 20.8949 167.826 21.0012 167.5 21.0012C167.174 21.0012 166.857 20.8949 166.596 20.6985C166.336 20.502 166.147 20.2261 166.058 19.9125L164.058 12.9125ZM151 21H152C153.193 21 154.338 20.5259 155.182 19.682C156.026 18.8381 156.5 17.6935 156.5 16.5V15.5C156.5 14.3065 156.026 13.1619 155.182 12.318C154.338 11.4741 153.193 11 152 11H151C150.602 11 150.221 11.158 149.939 11.4393C149.658 11.7206 149.5 12.1022 149.5 12.5V19.5C149.5 19.8978 149.658 20.2794 149.939 20.5607C150.221 20.842 150.602 21 151 21ZM152.5 14.0863C152.792 14.1896 153.046 14.3811 153.225 14.6342C153.404 14.8874 153.5 15.1899 153.5 15.5V16.5C153.5 16.8101 153.404 17.1126 153.225 17.3658C153.046 17.6189 152.792 17.8104 152.5 17.9137V14.0863Z" fill="currentColor"/>
<path d="M202 15V17C202 17.5304 201.789 18.0391 201.414 18.4142C201.039 18.7893 200.53 19 200 19V13C200.53 13 201.039 13.2107 201.414 13.5858C201.789 13.9609 202 14.4696 202 15ZM223 9V23C223 23.5304 222.789 24.0391 222.414 24.4142C222.039 24.7893 221.53 25 221 25H195C194.47 25 193.961 24.7893 193.586 24.4142C193.211 24.0391 193 23.5304 193 23V9C193 8.46957 193.211 7.96086 193.586 7.58579C193.961 7.21071 194.47 7 195 7H221C221.53 7 222.039 7.21071 222.414 7.58579C222.789 7.96086 223 8.46957 223 9ZM204 15C204 13.9391 203.579 12.9217 202.828 12.1716C202.078 11.4214 201.061 11 200 11H199C198.735 11 198.48 11.1054 198.293 11.2929C198.105 11.4804 198 11.7348 198 12V20C198 20.2652 198.105 20.5196 198.293 20.7071C198.48 20.8946 198.735 21 199 21H200C201.061 21 202.078 20.5786 202.828 19.8284C203.579 19.0783 204 18.0609 204 17V15ZM208 15V13H210C210.265 13 210.52 12.8946 210.707 12.7071C210.895 12.5196 211 12.2652 211 12C211 11.7348 210.895 11.4804 210.707 11.2929C210.52 11.1054 210.265 11 210 11H207C206.735 11 206.48 11.1054 206.293 11.2929C206.105 11.4804 206 11.7348 206 12V20C206 20.2652 206.105 20.5196 206.293 20.7071C206.48 20.8946 206.735 21 207 21H210C210.265 21 210.52 20.8946 210.707 20.7071C210.895 20.5196 211 20.2652 211 20C211 19.7348 210.895 19.4804 210.707 19.2929C210.52 19.1054 210.265 19 210 19H208V17H209C209.265 17 209.52 16.8946 209.707 16.7071C209.895 16.5196 210 16.2652 210 16C210 15.7348 209.895 15.4804 209.707 15.2929C209.52 15.1054 209.265 15 209 15H208ZM218.271 11.0375C218.016 10.9656 217.743 10.998 217.511 11.1276C217.28 11.2572 217.109 11.4735 217.038 11.7288L215.75 16.3062L214.462 11.7288C214.39 11.4745 214.219 11.2594 213.988 11.1306C213.757 11.0018 213.484 10.9697 213.23 11.0415C212.975 11.1132 212.76 11.2829 212.63 11.5134C212.5 11.7439 212.467 12.0164 212.538 12.2712L214.788 20.2712C214.847 20.481 214.973 20.6657 215.146 20.7972C215.32 20.9288 215.532 21 215.75 21C215.968 21 216.18 20.9288 216.354 20.7972C216.527 20.6657 216.653 20.481 216.712 20.2712L218.962 12.2712C219.034 12.016 219.002 11.7426 218.872 11.5112C218.743 11.2798 218.527 11.1094 218.271 11.0375Z" fill="currentColor"/>
<path opacity="0.2" d="M270 9V23C270 23.2652 269.895 23.5196 269.707 23.7071C269.52 23.8946 269.265 24 269 24H243C242.735 24 242.48 23.8946 242.293 23.7071C242.105 23.5196 242 23.2652 242 23V9C242 8.73478 242.105 8.48043 242.293 8.29289C242.48 8.10536 242.735 8 243 8H269C269.265 8 269.52 8.10536 269.707 8.29289C269.895 8.48043 270 8.73478 270 9Z" fill="currentColor"/>
<path d="M269 7H243C242.47 7 241.961 7.21071 241.586 7.58579C241.211 7.96086 241 8.46957 241 9V23C241 23.5304 241.211 24.0391 241.586 24.4142C241.961 24.7893 242.47 25 243 25H269C269.53 25 270.039 24.7893 270.414 24.4142C270.789 24.0391 271 23.5304 271 23V9C271 8.46957 270.789 7.96086 270.414 7.58579C270.039 7.21071 269.53 7 269 7ZM269 23H243V9H269V23ZM256 13V15H257C257.265 15 257.52 15.1054 257.707 15.2929C257.895 15.4804 258 15.7348 258 16C258 16.2652 257.895 16.5196 257.707 16.7071C257.52 16.8946 257.265 17 257 17H256V19H258C258.265 19 258.52 19.1054 258.707 19.2929C258.895 19.4804 259 19.7348 259 20C259 20.2652 258.895 20.5196 258.707 20.7071C258.52 20.8946 258.265 21 258 21H255C254.735 21 254.48 20.8946 254.293 20.7071C254.105 20.5196 254 20.2652 254 20V12C254 11.7348 254.105 11.4804 254.293 11.2929C254.48 11.1054 254.735 11 255 11H258C258.265 11 258.52 11.1054 258.707 11.2929C258.895 11.4804 259 11.7348 259 12C259 12.2652 258.895 12.5196 258.707 12.7071C258.52 12.8946 258.265 13 258 13H256ZM266.962 12.2712L264.712 20.2712C264.653 20.481 264.527 20.6657 264.354 20.7972C264.18 20.9288 263.968 21 263.75 21C263.532 21 263.32 20.9288 263.146 20.7972C262.973 20.6657 262.847 20.481 262.788 20.2712L260.538 12.2712C260.467 12.0164 260.5 11.7439 260.63 11.5134C260.76 11.2829 260.975 11.1132 261.23 11.0415C261.484 10.9697 261.757 11.0018 261.988 11.1306C262.219 11.2594 262.39 11.4745 262.462 11.7288L263.75 16.3062L265.038 11.7288C265.073 11.6019 265.133 11.4832 265.214 11.3795C265.295 11.2758 265.396 11.1892 265.511 11.1246C265.625 11.06 265.752 11.0187 265.882 11.0031C266.013 10.9874 266.146 10.9978 266.272 11.0335C266.399 11.0692 266.518 11.1296 266.621 11.2112C266.724 11.2928 266.81 11.394 266.875 11.509C266.939 11.624 266.979 11.7506 266.995 11.8814C267.01 12.0122 266.999 12.1447 266.962 12.2712ZM248 11H247C246.735 11 246.48 11.1054 246.293 11.2929C246.105 11.4804 246 11.7348 246 12V20C246 20.2652 246.105 20.5196 246.293 20.7071C246.48 20.8946 246.735 21 247 21H248C249.061 21 250.078 20.5786 250.828 19.8284C251.579 19.0783 252 18.0609 252 17V15C252 13.9391 251.579 12.9217 250.828 12.1716C250.078 11.4214 249.061 11 248 11ZM250 17C250 17.5304 249.789 18.0391 249.414 18.4142C249.039 18.7893 248.53 19 248 19V13C248.53 13 249.039 13.2107 249.414 13.5858C249.789 13.9609 250 14.4696 250 15V17Z" fill="currentColor"/>
</g>
<defs>
<clipPath id="clip0_17_13213">
<rect width="272" height="32" rx="5" fill="white"/>
</clipPath>
</defs>
</svg>
