<svg width="272" height="32" viewBox="0 0 272 32" fill="none" xmlns="http://www.w3.org/2000/svg">
<g clip-path="url(#clip0_17_13157)">
<path d="M16 3C13.4288 3 10.9154 3.76244 8.77759 5.1909C6.63975 6.61935 4.97351 8.64968 3.98957 11.0251C3.00563 13.4006 2.74819 16.0144 3.2498 18.5362C3.75141 21.0579 4.98953 23.3743 6.80762 25.1924C8.6257 27.0105 10.9421 28.2486 13.4638 28.7502C15.9856 29.2518 18.5995 28.9944 20.9749 28.0104C23.3503 27.0265 25.3807 25.3603 26.8091 23.2224C28.2376 21.0846 29 18.5712 29 16C28.9964 12.5533 27.6256 9.24882 25.1884 6.81163C22.7512 4.37445 19.4467 3.00364 16 3ZM17 26.9538V19H20C20.2652 19 20.5196 18.8946 20.7071 18.7071C20.8946 18.5196 21 18.2652 21 18C21 17.7348 20.8946 17.4804 20.7071 17.2929C20.5196 17.1054 20.2652 17 20 17H17V14C17 13.4696 17.2107 12.9609 17.5858 12.5858C17.9609 12.2107 18.4696 12 19 12H21C21.2652 12 21.5196 11.8946 21.7071 11.7071C21.8946 11.5196 22 11.2652 22 11C22 10.7348 21.8946 10.4804 21.7071 10.2929C21.5196 10.1054 21.2652 10 21 10H19C17.9391 10 16.9217 10.4214 16.1716 11.1716C15.4214 11.9217 15 12.9391 15 14V17H12C11.7348 17 11.4804 17.1054 11.2929 17.2929C11.1054 17.4804 11 17.7348 11 18C11 18.2652 11.1054 18.5196 11.2929 18.7071C11.4804 18.8946 11.7348 19 12 19H15V26.9538C12.181 26.6964 9.56971 25.3622 7.7093 23.2287C5.8489 21.0952 4.8826 18.3266 5.0114 15.4988C5.1402 12.671 6.35419 10.0017 8.40085 8.04613C10.4475 6.09057 13.1693 4.9993 16 4.9993C18.8307 4.9993 21.5525 6.09057 23.5992 8.04613C25.6458 10.0017 26.8598 12.671 26.9886 15.4988C27.1174 18.3266 26.1511 21.0952 24.2907 23.2287C22.4303 25.3622 19.819 26.6964 17 26.9538Z" fill="currentColor"/>
<path d="M64 3.5C61.5277 3.5 59.111 4.23311 57.0554 5.60663C54.9998 6.98015 53.3976 8.93238 52.4515 11.2165C51.5054 13.5005 51.2579 16.0139 51.7402 18.4386C52.2225 20.8634 53.413 23.0907 55.1612 24.8388C56.9093 26.587 59.1366 27.7775 61.5614 28.2598C63.9861 28.7421 66.4995 28.4946 68.7835 27.5485C71.0676 26.6024 73.0199 25.0002 74.3934 22.9446C75.7669 20.889 76.5 18.4723 76.5 16C76.4964 12.6859 75.1782 9.5086 72.8348 7.16518C70.4914 4.82177 67.3141 3.50364 64 3.5ZM64.5 27.4888V18.5H68C68.1326 18.5 68.2598 18.4473 68.3536 18.3536C68.4473 18.2598 68.5 18.1326 68.5 18C68.5 17.8674 68.4473 17.7402 68.3536 17.6464C68.2598 17.5527 68.1326 17.5 68 17.5H64.5V14C64.5 13.337 64.7634 12.7011 65.2322 12.2322C65.7011 11.7634 66.337 11.5 67 11.5H69C69.1326 11.5 69.2598 11.4473 69.3536 11.3536C69.4473 11.2598 69.5 11.1326 69.5 11C69.5 10.8674 69.4473 10.7402 69.3536 10.6464C69.2598 10.5527 69.1326 10.5 69 10.5H67C66.0717 10.5 65.1815 10.8687 64.5251 11.5251C63.8688 12.1815 63.5 13.0717 63.5 14V17.5H60C59.8674 17.5 59.7402 17.5527 59.6465 17.6464C59.5527 17.7402 59.5 17.8674 59.5 18C59.5 18.1326 59.5527 18.2598 59.6465 18.3536C59.7402 18.4473 59.8674 18.5 60 18.5H63.5V27.4888C60.4962 27.358 57.663 26.0561 55.6074 23.8618C53.5518 21.6676 52.4373 18.7555 52.5027 15.7496C52.5681 12.7436 53.8081 9.88277 55.9572 7.77996C58.1062 5.67716 60.9933 4.49962 64 4.49962C67.0067 4.49962 69.8938 5.67716 72.0428 7.77996C74.1919 9.88277 75.4319 12.7436 75.4973 15.7496C75.5627 18.7555 74.4482 21.6676 72.3926 23.8618C70.337 26.0561 67.5038 27.358 64.5 27.4888Z" fill="currentColor"/>
<path d="M112 3.25C109.478 3.25 107.013 3.99777 104.916 5.39876C102.82 6.79975 101.186 8.79103 100.221 11.1208C99.2555 13.4505 99.003 16.0141 99.495 18.4874C99.987 20.9607 101.201 23.2325 102.984 25.0156C104.768 26.7987 107.039 28.0131 109.513 28.505C111.986 28.997 114.549 28.7445 116.879 27.7795C119.209 26.8144 121.2 25.1802 122.601 23.0835C124.002 20.9868 124.75 18.5217 124.75 16C124.746 12.6197 123.401 9.379 121.011 6.98877C118.621 4.59854 115.38 3.25397 112 3.25ZM112.75 27.225V18.75H116C116.199 18.75 116.39 18.671 116.53 18.5303C116.671 18.3897 116.75 18.1989 116.75 18C116.75 17.8011 116.671 17.6103 116.53 17.4697C116.39 17.329 116.199 17.25 116 17.25H112.75V14C112.75 13.4033 112.987 12.831 113.409 12.409C113.831 11.9871 114.403 11.75 115 11.75H117C117.199 11.75 117.39 11.671 117.53 11.5303C117.671 11.3897 117.75 11.1989 117.75 11C117.75 10.8011 117.671 10.6103 117.53 10.4697C117.39 10.329 117.199 10.25 117 10.25H115C114.005 10.25 113.052 10.6451 112.348 11.3483C111.645 12.0516 111.25 13.0054 111.25 14V17.25H108C107.801 17.25 107.61 17.329 107.47 17.4697C107.329 17.6103 107.25 17.8011 107.25 18C107.25 18.1989 107.329 18.3897 107.47 18.5303C107.61 18.671 107.801 18.75 108 18.75H111.25V27.225C108.338 27.0304 105.615 25.7116 103.657 23.5471C101.699 21.3827 100.659 18.5419 100.756 15.6248C100.854 12.7077 102.081 9.94265 104.179 7.91351C106.277 5.88437 109.081 4.75003 112 4.75003C114.919 4.75003 117.723 5.88437 119.821 7.91351C121.919 9.94265 123.146 12.7077 123.244 15.6248C123.341 18.5419 122.301 21.3827 120.343 23.5471C118.385 25.7116 115.662 27.0304 112.75 27.225Z" fill="currentColor"/>
<path d="M160 2.5C157.33 2.5 154.72 3.29176 152.5 4.77516C150.28 6.25856 148.549 8.36697 147.528 10.8338C146.506 13.3006 146.239 16.015 146.759 18.6337C147.28 21.2525 148.566 23.6579 150.454 25.5459C152.342 27.434 154.748 28.7197 157.366 29.2406C159.985 29.7615 162.699 29.4942 165.166 28.4724C167.633 27.4506 169.741 25.7203 171.225 23.5002C172.708 21.2801 173.5 18.67 173.5 16C173.496 12.4208 172.072 8.98932 169.542 6.45844C167.011 3.92756 163.579 2.50397 160 2.5ZM161.5 26.3913V19.5H164C164.398 19.5 164.779 19.342 165.061 19.0607C165.342 18.7794 165.5 18.3978 165.5 18C165.5 17.6022 165.342 17.2206 165.061 16.9393C164.779 16.658 164.398 16.5 164 16.5H161.5V14C161.5 13.6022 161.658 13.2206 161.939 12.9393C162.221 12.658 162.602 12.5 163 12.5H165C165.398 12.5 165.779 12.342 166.061 12.0607C166.342 11.7794 166.5 11.3978 166.5 11C166.5 10.6022 166.342 10.2206 166.061 9.93934C165.779 9.65804 165.398 9.5 165 9.5H163C161.807 9.5 160.662 9.97411 159.818 10.818C158.974 11.6619 158.5 12.8065 158.5 14V16.5H156C155.602 16.5 155.221 16.658 154.939 16.9393C154.658 17.2206 154.5 17.6022 154.5 18C154.5 18.3978 154.658 18.7794 154.939 19.0607C155.221 19.342 155.602 19.5 156 19.5H158.5V26.3913C155.873 26.012 153.486 24.6517 151.822 22.584C150.157 20.5163 149.337 17.8948 149.527 15.247C149.717 12.5992 150.903 10.1217 152.846 8.31307C154.789 6.50444 157.345 5.49895 160 5.49895C162.655 5.49895 165.211 6.50444 167.154 8.31307C169.097 10.1217 170.283 12.5992 170.473 15.247C170.663 17.8948 169.843 20.5163 168.178 22.584C166.514 24.6517 164.127 26.012 161.5 26.3913Z" fill="currentColor"/>
<path d="M221 16C220.996 19.1773 219.83 22.2434 217.722 24.6208C215.614 26.9983 212.71 28.5229 209.556 28.9075C209.486 28.9155 209.415 28.9085 209.348 28.8869C209.28 28.8654 209.218 28.8298 209.166 28.7826C209.113 28.7353 209.071 28.6775 209.043 28.6128C209.014 28.5482 208.999 28.4782 209 28.4075V19H212C212.137 19.0003 212.273 18.9724 212.399 18.9181C212.524 18.8637 212.638 18.7841 212.732 18.6841C212.825 18.5841 212.898 18.4659 212.944 18.3368C212.99 18.2078 213.009 18.0706 213 17.9338C212.978 17.6766 212.859 17.4374 212.668 17.2642C212.477 17.0909 212.227 16.9966 211.969 17H209V14C209 13.4696 209.211 12.9609 209.586 12.5858C209.961 12.2107 210.47 12 211 12H213C213.137 12.0003 213.273 11.9724 213.399 11.9181C213.524 11.8638 213.638 11.7841 213.732 11.6841C213.825 11.5841 213.898 11.4659 213.944 11.3368C213.99 11.2078 214.009 11.0706 214 10.9338C213.978 10.6762 213.859 10.4366 213.667 10.2633C213.475 10.09 213.225 9.99592 212.966 10H211C209.939 10 208.922 10.4215 208.172 11.1716C207.421 11.9217 207 12.9392 207 14V17H204C203.863 16.9997 203.727 17.0276 203.601 17.082C203.475 17.1363 203.362 17.216 203.268 17.3159C203.175 17.4159 203.102 17.5341 203.056 17.6632C203.01 17.7923 202.991 17.9295 203 18.0663C203.022 18.3239 203.141 18.5635 203.333 18.7368C203.525 18.9101 203.775 19.0041 204.034 19H207V28.41C207 28.4806 206.986 28.5504 206.957 28.615C206.929 28.6795 206.887 28.7373 206.835 28.7845C206.782 28.8318 206.72 28.8674 206.653 28.889C206.586 28.9106 206.515 28.9178 206.445 28.91C203.207 28.5157 200.234 26.9199 198.117 24.4386C195.999 21.9573 194.89 18.7713 195.009 15.5113C195.259 8.76128 200.726 3.27378 207.481 3.01128C209.23 2.94354 210.975 3.22922 212.611 3.85124C214.246 4.47325 215.74 5.41883 217.002 6.6314C218.264 7.84397 219.269 9.29863 219.956 10.9084C220.643 12.5181 220.998 14.2499 221 16Z" fill="currentColor"/>
<path opacity="0.2" d="M268 16C268 18.3734 267.296 20.6935 265.978 22.6668C264.659 24.6402 262.785 26.1783 260.592 27.0866C258.399 27.9948 255.987 28.2324 253.659 27.7694C251.331 27.3064 249.193 26.1635 247.515 24.4853C245.836 22.8071 244.694 20.6689 244.231 18.3411C243.768 16.0133 244.005 13.6005 244.913 11.4078C245.822 9.21509 247.36 7.34094 249.333 6.02236C251.307 4.70379 253.627 4 256 4C259.183 4 262.235 5.26428 264.485 7.51472C266.736 9.76515 268 12.8174 268 16Z" fill="currentColor"/>
<path d="M256 3C253.429 3 250.915 3.76244 248.778 5.1909C246.64 6.61935 244.974 8.64968 243.99 11.0251C243.006 13.4006 242.748 16.0144 243.25 18.5362C243.751 21.0579 244.99 23.3743 246.808 25.1924C248.626 27.0105 250.942 28.2486 253.464 28.7502C255.986 29.2518 258.599 28.9944 260.975 28.0104C263.35 27.0265 265.381 25.3603 266.809 23.2224C268.238 21.0846 269 18.5712 269 16C268.996 12.5533 267.626 9.24882 265.188 6.81163C262.751 4.37445 259.447 3.00364 256 3ZM257 26.9538V19H260C260.265 19 260.52 18.8946 260.707 18.7071C260.895 18.5196 261 18.2652 261 18C261 17.7348 260.895 17.4804 260.707 17.2929C260.52 17.1054 260.265 17 260 17H257V14C257 13.4696 257.211 12.9609 257.586 12.5858C257.961 12.2107 258.47 12 259 12H261C261.265 12 261.52 11.8946 261.707 11.7071C261.895 11.5196 262 11.2652 262 11C262 10.7348 261.895 10.4804 261.707 10.2929C261.52 10.1054 261.265 10 261 10H259C257.939 10 256.922 10.4214 256.172 11.1716C255.421 11.9217 255 12.9391 255 14V17H252C251.735 17 251.48 17.1054 251.293 17.2929C251.105 17.4804 251 17.7348 251 18C251 18.2652 251.105 18.5196 251.293 18.7071C251.48 18.8946 251.735 19 252 19H255V26.9538C252.181 26.6964 249.57 25.3622 247.709 23.2287C245.849 21.0952 244.883 18.3266 245.011 15.4988C245.14 12.671 246.354 10.0017 248.401 8.04613C250.448 6.09057 253.169 4.9993 256 4.9993C258.831 4.9993 261.553 6.09057 263.599 8.04613C265.646 10.0017 266.86 12.671 266.989 15.4988C267.117 18.3266 266.151 21.0952 264.291 23.2287C262.43 25.3622 259.819 26.6964 257 26.9538Z" fill="currentColor"/>
</g>
<defs>
<clipPath id="clip0_17_13157">
<rect width="272" height="32" rx="5" fill="white"/>
</clipPath>
</defs>
</svg>
