<svg width="272" height="32" viewBox="0 0 272 32" fill="none" xmlns="http://www.w3.org/2000/svg">
<g clip-path="url(#clip0_17_13045)">
<path d="M29.7 18.9725L21.1412 4.94001C20.9622 4.65159 20.7123 4.41378 20.4154 4.24924C20.1185 4.0847 19.7844 3.9989 19.445 4.00001H12.5537C12.2144 3.99888 11.8805 4.08468 11.5838 4.24923C11.287 4.41378 11.0374 4.6516 10.8587 4.94001L10.8525 4.94876L2.30496 18.9625C2.11324 19.269 2.00816 19.6217 2.00089 19.9831C1.99363 20.3445 2.08445 20.7011 2.26371 21.015L5.67871 26.9925C5.85364 27.2986 6.10637 27.5529 6.41128 27.7299C6.71618 27.9068 7.06243 28 7.41496 28H24.5837C24.9362 28 25.2825 27.9068 25.5874 27.7299C25.8923 27.5529 26.145 27.2986 26.32 26.9925L29.735 21.015C29.9144 20.7032 30.0059 20.3486 29.9997 19.9889C29.9936 19.6292 29.89 19.278 29.7 18.9725ZM27.375 19H21.565L17.1662 11.6663L20.01 6.92626L27.375 19ZM12.7662 19L16 13.61L19.2337 19H12.7662ZM20.4337 21L23.4337 26H8.56621L11.5662 21H20.4337ZM16 9.72251L13.765 6.00001L18.2375 5.99376L16 9.72251ZM11.9887 6.92626L14.8337 11.6663L10.4337 19H4.62496L11.9887 6.92626ZM4.56746 21H9.23371L6.83996 24.99L4.56746 21ZM25.16 24.9913L22.765 21H27.4412L25.16 24.9913Z" fill="currentColor"/>
<path d="M77.2737 19.2325L68.7175 5.20501C68.5831 4.98871 68.3956 4.81037 68.1729 4.68697C67.9502 4.56357 67.6996 4.49921 67.445 4.50001H60.5537C60.2993 4.49931 60.0489 4.56372 59.8264 4.68712C59.6038 4.81052 59.4166 4.9888 59.2825 5.20501L50.7287 19.2275C50.5847 19.4574 50.5058 19.722 50.5003 19.9932C50.4948 20.2644 50.5629 20.532 50.6975 20.7675L54.1137 26.75C54.2455 26.9784 54.4352 27.1679 54.6637 27.2996C54.8921 27.4313 55.1513 27.5004 55.415 27.5H72.5837C72.8476 27.5006 73.107 27.4316 73.3357 27.2999C73.5644 27.1682 73.7543 26.9785 73.8862 26.75L77.3012 20.7738C77.4365 20.5384 77.5054 20.2708 77.5006 19.9993C77.4957 19.7279 77.4173 19.4629 77.2737 19.2325ZM76.2662 19.5H69.2824L64.5825 11.6663L68.0062 5.96001L76.2662 19.5ZM59.8825 19.5L64 12.6388L68.1162 19.5H59.8825ZM68.7162 20.5L72.3162 26.5H55.6837L59.2825 20.5H68.7162ZM64 10.695L60.8825 5.50001H67.1162L64 10.695ZM59.9925 5.96001L63.4162 11.6663L58.7175 19.5H51.7337L59.9925 5.96001ZM51.6975 20.5H58.1175L54.8287 25.9813L51.6975 20.5ZM73.1712 25.9813L69.8825 20.5H76.3025L73.1712 25.9813Z" fill="currentColor"/>
<path d="M125.487 19.1025L116.929 5.07251C116.772 4.82011 116.554 4.61201 116.294 4.46802C116.034 4.32404 115.742 4.24899 115.445 4.25001H108.554C108.257 4.24911 107.964 4.32421 107.705 4.46818C107.445 4.61215 107.227 4.8202 107.07 5.07251V5.07876L98.5162 19.095C98.3485 19.3633 98.2567 19.672 98.2506 19.9883C98.2444 20.3046 98.3241 20.6166 98.4812 20.8913L101.896 26.875C102.05 27.1415 102.271 27.3627 102.538 27.5164C102.805 27.67 103.107 27.7506 103.415 27.75H120.584C120.892 27.7508 121.194 27.6703 121.461 27.5167C121.728 27.363 121.95 27.1417 122.104 26.875L125.519 20.8975C125.676 20.6234 125.756 20.3117 125.751 19.9957C125.745 19.6796 125.654 19.371 125.487 19.1025ZM123.82 19.25H117.424L112.875 11.6663L116.01 6.44251L123.82 19.25ZM108.32 19.25L112 13.125L115.675 19.25H108.32ZM116.57 20.75L119.875 26.25H104.125L107.425 20.75H116.57ZM112 10.2088L109.325 5.75001H114.675L112 10.2088ZM107.991 6.44251L111.125 11.6663L106.575 19.25H100.179L107.991 6.44251ZM100.125 20.75H105.675L102.834 25.4863L100.125 20.75ZM121.162 25.4863L118.324 20.75H123.875L121.162 25.4863Z" fill="currentColor"/>
<path d="M174.125 18.7063L165.574 4.6888L165.565 4.67505C165.341 4.31353 165.028 4.0156 164.656 3.80984C164.284 3.60409 163.865 3.49741 163.44 3.50005H156.555C156.13 3.49741 155.711 3.60409 155.339 3.80984C154.967 4.0156 154.654 4.31353 154.43 4.67505L154.421 4.6888L145.875 18.7063C145.638 19.089 145.509 19.5287 145.501 19.9789C145.493 20.429 145.607 20.873 145.83 21.2638L149.25 27.24C149.468 27.6221 149.783 27.9398 150.164 28.1611C150.544 28.3823 150.976 28.4992 151.416 28.5H168.584C169.024 28.4992 169.456 28.3823 169.836 28.1611C170.217 27.9398 170.532 27.6221 170.75 27.24L174.165 21.2638C174.389 20.8734 174.504 20.4297 174.497 19.9795C174.49 19.5294 174.361 19.0895 174.125 18.7063ZM170.485 18.5H165.849L161.75 11.6663L164.015 7.89255L170.485 18.5ZM150.85 24L149.42 21.5H152.351L150.85 24ZM155.85 21.5H164.15L166.55 25.5H153.45L155.85 21.5ZM157.65 18.5L160 14.5825L162.35 18.5H157.65ZM167.65 21.5H170.581L169.15 24L167.65 21.5ZM160 8.75005L158.649 6.50005H161.351L160 8.75005ZM155.986 7.89255L158.25 11.6663L154.151 18.5H149.515L155.986 7.89255Z" fill="currentColor"/>
<path d="M221.7 18.9725L213.141 4.94001C212.962 4.65159 212.712 4.41378 212.415 4.24924C212.119 4.0847 211.784 3.9989 211.445 4.00001H204.554C204.214 3.99888 203.88 4.08468 203.584 4.24923C203.287 4.41378 203.037 4.6516 202.859 4.94001L202.852 4.94876L194.305 18.9625C194.113 19.269 194.008 19.6217 194.001 19.9831C193.994 20.3445 194.084 20.7011 194.264 21.015L197.679 26.9925C197.854 27.2986 198.106 27.5529 198.411 27.7299C198.716 27.9068 199.062 28 199.415 28H216.584C216.936 28 217.282 27.9068 217.587 27.7299C217.892 27.5529 218.145 27.2986 218.32 26.9925L221.735 21.015C221.914 20.7032 222.006 20.3486 222 19.9889C221.994 19.6292 221.89 19.278 221.7 18.9725ZM219.375 19H213.565L209.166 11.6663L212.01 6.92626L219.375 19ZM203.566 21H212.434L215.434 26H200.566L203.566 21ZM204.766 19L208 13.61L211.234 19H204.766ZM203.989 6.92626L206.834 11.6663L202.434 19H196.625L203.989 6.92626Z" fill="currentColor"/>
<path opacity="0.2" d="M243 20H251L246.89 26.85C246.748 26.7639 246.631 26.6435 246.548 26.5L243.131 20.5187C243.041 20.361 242.996 20.1816 243 20ZM261 20L265.11 26.85C265.252 26.7629 265.37 26.6412 265.453 26.4963L268.868 20.5187C268.958 20.3611 269.004 20.1817 269 20H261ZM252.554 5C252.386 5.00101 252.221 5.04398 252.074 5.125L256 11.6663L259.926 5.125C259.779 5.04383 259.613 5.00086 259.445 5H252.554Z" fill="currentColor"/>
<path d="M269.7 18.9725L261.141 4.94001C260.962 4.65159 260.712 4.41378 260.415 4.24924C260.119 4.0847 259.784 3.9989 259.445 4.00001H252.554C252.214 3.99888 251.88 4.08468 251.584 4.24923C251.287 4.41378 251.037 4.6516 250.859 4.94001L250.852 4.94876L242.305 18.9625C242.113 19.269 242.008 19.6217 242.001 19.9831C241.994 20.3445 242.084 20.7011 242.264 21.015L245.679 26.9925C245.854 27.2986 246.106 27.5529 246.411 27.7299C246.716 27.9068 247.062 28 247.415 28H264.584C264.936 28 265.282 27.9068 265.587 27.7299C265.892 27.5529 266.145 27.2986 266.32 26.9925L269.735 21.015C269.914 20.7032 270.006 20.3486 270 19.9889C269.994 19.6292 269.89 19.278 269.7 18.9725ZM267.375 19H261.565L257.166 11.6663L260.01 6.92626L267.375 19ZM252.766 19L256 13.61L259.234 19H252.766ZM260.434 21L263.434 26H248.566L251.566 21H260.434ZM256 9.72251L253.765 6.00001L258.237 5.99376L256 9.72251ZM251.989 6.92626L254.834 11.6663L250.434 19H244.625L251.989 6.92626ZM244.567 21H249.234L246.84 24.99L244.567 21ZM265.16 24.9913L262.765 21H267.441L265.16 24.9913Z" fill="currentColor"/>
</g>
<defs>
<clipPath id="clip0_17_13045">
<rect width="272" height="32" rx="5" fill="white"/>
</clipPath>
</defs>
</svg>
