<svg width="272" height="32" viewBox="0 0 272 32" fill="none" xmlns="http://www.w3.org/2000/svg">
<g clip-path="url(#clip0_17_13059)">
<path d="M16 3C13.4288 3 10.9154 3.76244 8.77759 5.1909C6.63975 6.61935 4.97351 8.64968 3.98957 11.0251C3.00563 13.4006 2.74819 16.0144 3.2498 18.5362C3.75141 21.0579 4.98953 23.3743 6.80762 25.1924C8.6257 27.0105 10.9421 28.2486 13.4638 28.7502C15.9856 29.2518 18.5995 28.9944 20.9749 28.0104C23.3503 27.0265 25.3807 25.3603 26.8091 23.2224C28.2376 21.0846 29 18.5712 29 16C28.9964 12.5533 27.6256 9.24882 25.1884 6.81163C22.7512 4.37445 19.4467 3.00364 16 3ZM16 5C17.8308 5.00076 19.6324 5.45844 21.2415 6.33154C22.8506 7.20465 24.2164 8.46558 25.215 10H16C14.737 10.0014 13.5065 10.4007 12.4833 11.1412C11.4601 11.8817 10.6961 12.9257 10.3 14.125L7.41501 9.125C8.44473 7.83729 9.75109 6.79786 11.2372 6.08378C12.7234 5.3697 14.3512 4.99929 16 5ZM20 16C20 16.7911 19.7654 17.5645 19.3259 18.2223C18.8864 18.8801 18.2616 19.3928 17.5307 19.6955C16.7998 19.9983 15.9956 20.0775 15.2196 19.9231C14.4437 19.7688 13.731 19.3878 13.1716 18.8284C12.6122 18.269 12.2312 17.5563 12.0769 16.7804C11.9225 16.0044 12.0017 15.2002 12.3045 14.4693C12.6072 13.7384 13.1199 13.1136 13.7777 12.6741C14.4355 12.2346 15.2089 12 16 12C17.0609 12 18.0783 12.4214 18.8284 13.1716C19.5786 13.9217 20 14.9391 20 16ZM5.00001 16C4.99793 14.2679 5.40752 12.5602 6.19501 11.0175L10.8038 19C10.8113 19.0125 10.82 19.0238 10.8275 19.035C11.4627 20.1188 12.4221 20.9758 13.5703 21.4854C14.7185 21.9949 15.9977 22.1312 17.2275 21.875L14.34 26.875C11.7418 26.4747 9.37227 25.1586 7.65944 23.1643C5.94662 21.1699 5.00336 18.6289 5.00001 16ZM16.5863 26.9837L21.1963 19C21.2063 18.9825 21.2138 18.965 21.2238 18.9475C21.8422 17.8568 22.1025 16.5995 21.968 15.3529C21.8334 14.1064 21.3107 12.9335 20.4738 12H26.25C26.8827 13.6211 27.1218 15.3693 26.9475 17.1008C26.7733 18.8323 26.1907 20.4977 25.2477 21.9603C24.3046 23.4229 23.028 24.6408 21.5228 25.5141C20.0175 26.3874 18.3265 26.8911 16.5888 26.9837H16.5863Z" fill="currentColor"/>
<path d="M64 3.5C61.5277 3.5 59.111 4.23311 57.0554 5.60663C54.9998 6.98015 53.3976 8.93238 52.4515 11.2165C51.5054 13.5005 51.2579 16.0139 51.7402 18.4386C52.2225 20.8634 53.413 23.0907 55.1612 24.8388C56.9093 26.587 59.1366 27.7775 61.5614 28.2598C63.9861 28.7421 66.4995 28.4946 68.7835 27.5485C71.0676 26.6024 73.0199 25.0002 74.3934 22.9446C75.7669 20.889 76.5 18.4723 76.5 16C76.4964 12.6859 75.1782 9.5086 72.8348 7.16518C70.4914 4.82177 67.3141 3.50364 64 3.5ZM64 4.5C66.0667 4.50143 68.095 5.0593 69.8717 6.11505C71.6484 7.1708 73.1081 8.68547 74.0975 10.5H64C62.6261 10.5017 61.3024 11.0169 60.2889 11.9446C59.2754 12.8723 58.6454 14.1453 58.5225 15.5138L54.8138 9.09C55.8839 7.66472 57.2711 6.50801 58.8654 5.71137C60.4598 4.91472 62.2177 4.5 64 4.5ZM64 20.5C63.11 20.5 62.24 20.2361 61.4999 19.7416C60.7599 19.2471 60.1831 18.5443 59.8425 17.7221C59.502 16.8998 59.4128 15.995 59.5865 15.1221C59.7601 14.2492 60.1887 13.4474 60.818 12.818C61.4474 12.1887 62.2492 11.7601 63.1221 11.5865C63.995 11.4128 64.8998 11.5019 65.7221 11.8425C66.5443 12.1831 67.2472 12.7599 67.7416 13.4999C68.2361 14.24 68.5 15.11 68.5 16C68.5 17.1935 68.0259 18.3381 67.182 19.182C66.3381 20.0259 65.1935 20.5 64 20.5ZM52.5 16C52.4979 13.8844 53.0824 11.8096 54.1888 10.0063L59.2375 18.75C59.2375 18.7612 59.2513 18.7712 59.2588 18.7825C59.9496 19.9629 61.056 20.843 62.3616 21.2506C63.6671 21.6582 65.0778 21.564 66.3175 20.9862L62.605 27.415C59.8188 27.071 57.2541 25.721 55.3933 23.6189C53.5324 21.5168 52.5035 18.8074 52.5 16ZM64 27.5C63.9038 27.5 63.8088 27.5 63.7138 27.5L68.7625 18.75C68.767 18.742 68.7708 18.7337 68.7738 18.725C69.455 17.5362 69.6668 16.1356 69.3675 14.7985C69.0682 13.4615 68.2794 12.2848 67.1563 11.5H74.5825C75.3261 13.2487 75.6247 15.1544 75.4518 17.0468C75.2788 18.9391 74.6396 20.7591 73.5913 22.3441C72.543 23.929 71.1183 25.2295 69.4446 26.1292C67.7709 27.029 65.9002 27.4999 64 27.5Z" fill="currentColor"/>
<path d="M112 3.25C109.478 3.25 107.013 3.99777 104.916 5.39876C102.82 6.79975 101.186 8.79103 100.221 11.1208C99.2555 13.4505 99.003 16.0141 99.495 18.4874C99.987 20.9607 101.201 23.2325 102.984 25.0156C104.768 26.7987 107.039 28.0131 109.513 28.505C111.986 28.997 114.549 28.7445 116.879 27.7795C119.209 26.8144 121.2 25.1802 122.601 23.0835C124.002 20.9868 124.75 18.5217 124.75 16C124.746 12.6197 123.401 9.379 121.011 6.98877C118.621 4.59854 115.38 3.25397 112 3.25ZM112 4.75C113.95 4.75057 115.866 5.25782 117.56 6.22201C119.255 7.1862 120.67 8.57423 121.666 10.25H112C110.689 10.2518 109.418 10.7009 108.397 11.5229C107.376 12.345 106.665 13.4909 106.384 14.7712L103.114 9.10875C104.164 7.75215 105.511 6.65401 107.051 5.89848C108.592 5.14294 110.284 4.75008 112 4.75ZM116.25 16C116.25 16.8406 116.001 17.6623 115.534 18.3612C115.067 19.0601 114.403 19.6048 113.626 19.9265C112.85 20.2482 111.995 20.3323 111.171 20.1683C110.346 20.0043 109.589 19.5996 108.995 19.0052C108.4 18.4108 107.996 17.6536 107.832 16.8291C107.668 16.0047 107.752 15.1502 108.074 14.3736C108.395 13.597 108.94 12.9333 109.639 12.4663C110.338 11.9993 111.159 11.75 112 11.75C113.127 11.75 114.208 12.1978 115.005 12.9948C115.802 13.7918 116.25 14.8728 116.25 16ZM100.75 16C100.747 14.0734 101.242 12.1788 102.188 10.5L107.02 18.875C107.028 18.8875 107.036 18.8975 107.044 18.9088C107.703 20.0357 108.726 20.9043 109.946 21.3715C111.165 21.8387 112.507 21.8765 113.75 21.4788L110.479 27.1462C107.785 26.7752 105.316 25.4424 103.528 23.3938C101.74 21.3453 100.754 18.7191 100.75 16ZM112.145 27.25L116.98 18.875L117.006 18.8237C117.648 17.6912 117.886 16.3741 117.68 15.0886C117.475 13.8032 116.838 12.6259 115.875 11.75H122.421C123.114 13.4469 123.381 15.2873 123.2 17.1111C123.02 18.9349 122.396 20.6869 121.384 22.2148C120.371 23.7426 119.001 25 117.392 25.8775C115.783 26.7551 113.984 27.2262 112.151 27.25H112.145Z" fill="currentColor"/>
<path d="M160 2.5C157.33 2.5 154.72 3.29176 152.5 4.77516C150.28 6.25856 148.549 8.36697 147.528 10.8338C146.506 13.3006 146.239 16.015 146.759 18.6337C147.28 21.2525 148.566 23.6579 150.454 25.5459C152.342 27.434 154.748 28.7197 157.366 29.2406C159.985 29.7615 162.699 29.4942 165.166 28.4724C167.633 27.4506 169.741 25.7203 171.225 23.5002C172.708 21.2801 173.5 18.67 173.5 16C173.496 12.4208 172.072 8.98932 169.542 6.45844C167.011 3.92756 163.579 2.50397 160 2.5ZM160 5.5C161.586 5.50031 163.152 5.86045 164.578 6.5533C166.005 7.24615 167.256 8.25367 168.238 9.5H160C158.809 9.50108 157.642 9.8288 156.625 10.4475C155.608 11.0662 154.78 11.9521 154.231 13.0087L152.023 9.18375C153.006 8.02877 154.229 7.10121 155.606 6.46518C156.984 5.82916 158.483 5.49984 160 5.5ZM163.5 16C163.5 16.6922 163.295 17.3689 162.91 17.9445C162.526 18.5201 161.979 18.9687 161.339 19.2336C160.7 19.4985 159.996 19.5678 159.317 19.4327C158.638 19.2977 158.015 18.9644 157.525 18.4749C157.036 17.9854 156.702 17.3617 156.567 16.6828C156.432 16.0039 156.502 15.3001 156.766 14.6606C157.031 14.0211 157.48 13.4744 158.056 13.0899C158.631 12.7053 159.308 12.5 160 12.5C160.928 12.5 161.819 12.8687 162.475 13.5251C163.131 14.1815 163.5 15.0717 163.5 16ZM149.5 16C149.499 14.6677 149.754 13.3477 150.25 12.1112L154.375 19.25C154.383 19.2638 154.393 19.275 154.4 19.2875C154.973 20.2644 155.791 21.0747 156.773 21.6382C157.755 22.2016 158.868 22.4987 160 22.5C160.099 22.5 160.197 22.4975 160.293 22.4925L158.083 26.3213C155.673 25.8708 153.497 24.5929 151.93 22.7083C150.363 20.8238 149.503 18.451 149.5 16ZM161.506 26.39L165.625 19.25C165.636 19.2313 165.645 19.2125 165.655 19.1925C166.237 18.1662 166.528 17.0003 166.496 15.8208C166.463 14.6414 166.11 13.4931 165.473 12.5H169.898C170.416 13.9631 170.603 15.523 170.446 17.0673C170.289 18.6115 169.791 20.1016 168.988 21.4302C168.185 22.7588 167.098 23.8928 165.804 24.7505C164.51 25.6081 163.043 26.1681 161.506 26.39Z" fill="currentColor"/>
<path d="M208 3C205.429 3 202.915 3.76244 200.778 5.1909C198.64 6.61935 196.974 8.64968 195.99 11.0251C195.006 13.4006 194.748 16.0144 195.25 18.5362C195.751 21.0579 196.99 23.3743 198.808 25.1924C200.626 27.0105 202.942 28.2486 205.464 28.7502C207.986 29.2518 210.599 28.9944 212.975 28.0104C215.35 27.0265 217.381 25.3603 218.809 23.2224C220.238 21.0846 221 18.5712 221 16C220.996 12.5533 219.626 9.24882 217.188 6.81163C214.751 4.37445 211.447 3.00364 208 3ZM208 5C209.831 5.00076 211.632 5.45844 213.242 6.33154C214.851 7.20465 216.216 8.46558 217.215 10H208C206.737 10.0014 205.506 10.4007 204.483 11.1412C203.46 11.8817 202.696 12.9257 202.3 14.125L199.415 9.125C200.445 7.83729 201.751 6.79786 203.237 6.08378C204.723 5.3697 206.351 4.99929 208 5ZM197 16C196.998 14.2679 197.408 12.5602 198.195 11.0175L202.804 19C202.811 19.0125 202.82 19.0238 202.828 19.035C203.463 20.1188 204.422 20.9758 205.57 21.4854C206.719 21.9949 207.998 22.1312 209.228 21.875L206.34 26.875C203.742 26.4747 201.372 25.1586 199.659 23.1643C197.947 21.1699 197.003 18.6289 197 16ZM208.586 26.9837L213.196 19C213.206 18.9825 213.214 18.965 213.224 18.9475C213.842 17.8568 214.103 16.5995 213.968 15.3529C213.833 14.1064 213.311 12.9335 212.474 12H218.25C218.883 13.6211 219.122 15.3693 218.948 17.1008C218.773 18.8323 218.191 20.4977 217.248 21.9603C216.305 23.4229 215.028 24.6408 213.523 25.5141C212.018 26.3874 210.327 26.8911 208.589 26.9837H208.586Z" fill="currentColor"/>
<path opacity="0.2" d="M261 16C261 16.9889 260.707 17.9556 260.157 18.7779C259.608 19.6001 258.827 20.241 257.913 20.6194C257 20.9978 255.994 21.0969 255.025 20.9039C254.055 20.711 253.164 20.2348 252.464 19.5355C251.765 18.8363 251.289 17.9454 251.096 16.9755C250.903 16.0055 251.002 15.0002 251.381 14.0866C251.759 13.173 252.4 12.3921 253.222 11.8427C254.044 11.2932 255.011 11 256 11C257.326 11 258.598 11.5268 259.536 12.4645C260.473 13.4021 261 14.6739 261 16Z" fill="currentColor"/>
<path d="M256 3C253.429 3 250.915 3.76244 248.778 5.1909C246.64 6.61935 244.974 8.64968 243.99 11.0251C243.006 13.4006 242.748 16.0144 243.25 18.5362C243.751 21.0579 244.99 23.3743 246.808 25.1924C248.626 27.0105 250.942 28.2486 253.464 28.7502C255.986 29.2518 258.599 28.9944 260.975 28.0104C263.35 27.0265 265.381 25.3603 266.809 23.2224C268.238 21.0846 269 18.5712 269 16C268.996 12.5533 267.626 9.24882 265.188 6.81163C262.751 4.37445 259.447 3.00364 256 3ZM256 5C257.831 5.00076 259.632 5.45844 261.242 6.33154C262.851 7.20465 264.216 8.46558 265.215 10H256C254.737 10.0014 253.506 10.4007 252.483 11.1412C251.46 11.8817 250.696 12.9257 250.3 14.125L247.415 9.125C248.445 7.83729 249.751 6.79786 251.237 6.08378C252.723 5.3697 254.351 4.99929 256 5ZM260 16C260 16.7911 259.765 17.5645 259.326 18.2223C258.886 18.8801 258.262 19.3928 257.531 19.6955C256.8 19.9983 255.996 20.0775 255.22 19.9231C254.444 19.7688 253.731 19.3878 253.172 18.8284C252.612 18.269 252.231 17.5563 252.077 16.7804C251.923 16.0044 252.002 15.2002 252.304 14.4693C252.607 13.7384 253.12 13.1136 253.778 12.6741C254.436 12.2346 255.209 12 256 12C257.061 12 258.078 12.4214 258.828 13.1716C259.579 13.9217 260 14.9391 260 16ZM254.34 26.875C252.62 26.6122 250.987 25.9451 249.575 24.9285C248.162 23.9119 247.012 22.5748 246.217 21.027C245.422 19.4792 245.005 17.7649 245.001 16.0248C244.998 14.2848 245.407 12.5687 246.195 11.0175L250.804 19C250.811 19.0125 250.82 19.0238 250.828 19.035C251.463 20.1188 252.422 20.9758 253.57 21.4854C254.719 21.9949 255.998 22.1312 257.228 21.875L254.34 26.875ZM256.59 26.9837L261.196 19C261.206 18.9825 261.214 18.965 261.224 18.9475C261.842 17.8568 262.103 16.5995 261.968 15.3529C261.833 14.1064 261.311 12.9335 260.474 12H266.25C266.883 13.6211 267.122 15.3693 266.948 17.1008C266.773 18.8323 266.191 20.4977 265.248 21.9603C264.305 23.4229 263.028 24.6408 261.523 25.5141C260.018 26.3874 258.327 26.8911 256.589 26.9837H256.59Z" fill="currentColor"/>
</g>
<defs>
<clipPath id="clip0_17_13059">
<rect width="272" height="32" rx="5" fill="white"/>
</clipPath>
</defs>
</svg>
