<svg width="272" height="32" viewBox="0 0 272 32" fill="none" xmlns="http://www.w3.org/2000/svg">
<g clip-path="url(#clip0_17_13031)">
<path d="M28 16C28.0001 18.8255 27.0032 21.5605 25.1849 23.7232C23.3665 25.8859 20.8433 27.3376 18.0597 27.8225C15.2761 28.3075 12.4106 27.7947 9.96801 26.3744C7.52539 24.9541 5.66229 22.7174 4.70686 20.0583C3.75142 17.3992 3.76495 14.4883 4.74505 11.8382C5.72516 9.18805 7.60897 6.96879 10.0647 5.57125C12.5204 4.17371 15.3905 3.68754 18.1695 4.19837C20.9485 4.70921 23.4581 6.18427 25.2563 8.36376C25.3455 8.46421 25.4136 8.58162 25.4565 8.70898C25.4994 8.83634 25.5162 8.97103 25.5058 9.10502C25.4955 9.239 25.4582 9.36953 25.3963 9.4888C25.3344 9.60807 25.2491 9.71364 25.1455 9.7992C25.0418 9.88475 24.922 9.94855 24.7932 9.98677C24.6643 10.025 24.5291 10.0368 24.3956 10.0216C24.2621 10.0064 24.133 9.96446 24.0161 9.89825C23.8991 9.83204 23.7967 9.74293 23.715 9.63626C22.2442 7.85291 20.201 6.63418 17.933 6.1874C15.665 5.74062 13.3122 6.09339 11.275 7.1857C9.23769 8.278 7.64178 10.0424 6.7587 12.1787C5.87562 14.3149 5.75992 16.6912 6.43128 18.9032C7.10265 21.1151 8.51961 23.0262 10.4411 24.3113C12.3626 25.5963 14.67 26.176 16.9707 25.9516C19.2714 25.7273 21.4233 24.7129 23.0604 23.0808C24.6975 21.4488 25.7186 19.3 25.95 17H16C15.7348 17 15.4804 16.8947 15.2929 16.7071C15.1054 16.5196 15 16.2652 15 16C15 15.7348 15.1054 15.4804 15.2929 15.2929C15.4804 15.1054 15.7348 15 16 15H27C27.2652 15 27.5196 15.1054 27.7071 15.2929C27.8946 15.4804 28 15.7348 28 16Z" fill="currentColor"/>
<path d="M75.5 16C75.4987 18.7078 74.5419 21.3284 72.7982 23.4C71.0545 25.4717 68.6356 26.8616 65.9677 27.3249C63.2998 27.7883 60.554 27.2953 58.2138 25.9328C55.8737 24.5704 54.0894 22.4259 53.1752 19.877C52.261 17.3282 52.2756 14.5385 53.2163 11.9993C54.157 9.46011 55.9636 7.33433 58.3178 5.99638C60.6721 4.65843 63.4229 4.19413 66.0858 4.68527C68.7488 5.17641 71.153 6.59147 72.875 8.68123C72.9595 8.7835 73 8.91517 72.9874 9.04726C72.9749 9.17936 72.9104 9.30106 72.8081 9.3856C72.7058 9.47014 72.5742 9.51059 72.4421 9.49804C72.31 9.4855 72.1883 9.421 72.1037 9.31873C70.545 7.42732 68.3737 6.14079 65.9661 5.68206C63.5585 5.22332 61.0662 5.62128 58.9212 6.80699C56.7761 7.99269 55.1135 9.89143 54.2213 12.1742C53.329 14.457 53.2635 16.9799 54.036 19.306C54.8085 21.632 56.3704 23.6145 58.451 24.9099C60.5316 26.2054 62.9998 26.7322 65.428 26.3991C67.8562 26.0659 70.0913 24.8938 71.7462 23.0859C73.401 21.278 74.3712 18.9481 74.4887 16.5H64C63.8674 16.5 63.7402 16.4473 63.6464 16.3535C63.5527 16.2598 63.5 16.1326 63.5 16C63.5 15.8674 63.5527 15.7402 63.6464 15.6464C63.7402 15.5527 63.8674 15.5 64 15.5H75C75.1326 15.5 75.2598 15.5527 75.3536 15.6464C75.4473 15.7402 75.5 15.8674 75.5 16Z" fill="currentColor"/>
<path d="M123.75 16C123.75 18.7667 122.774 21.4446 120.993 23.5621C119.212 25.6796 116.742 27.1009 114.016 27.5756C111.29 28.0504 108.485 27.5481 106.093 26.1572C103.701 24.7664 101.877 22.5762 100.942 19.9725C100.007 17.3687 100.02 14.5184 100.98 11.9236C101.94 9.32873 103.784 7.1558 106.189 5.78751C108.593 4.41921 111.404 3.94331 114.125 4.44362C116.846 4.94394 119.303 6.38838 121.064 8.52254C121.129 8.59813 121.178 8.686 121.209 8.78098C121.24 8.87596 121.252 8.97615 121.243 9.07565C121.235 9.17516 121.207 9.27199 121.16 9.36046C121.114 9.44893 121.051 9.52726 120.974 9.59086C120.897 9.65445 120.808 9.70203 120.712 9.7308C120.616 9.75957 120.516 9.76895 120.417 9.7584C120.317 9.74784 120.221 9.71756 120.134 9.66933C120.046 9.6211 119.969 9.5559 119.907 9.47754C118.392 7.64049 116.285 6.38829 113.947 5.93598C111.609 5.48367 109.187 5.85947 107.096 6.99886C105.005 8.13824 103.376 9.9701 102.488 12.1799C101.601 14.3896 101.511 16.8394 102.233 19.1085C102.955 21.3775 104.445 23.3243 106.446 24.6145C108.448 25.9047 110.836 26.4578 113.201 26.1788C115.566 25.8998 117.76 24.8061 119.406 23.0855C121.052 21.365 122.048 19.1249 122.222 16.75H112C111.801 16.75 111.61 16.671 111.47 16.5304C111.329 16.3897 111.25 16.199 111.25 16C111.25 15.8011 111.329 15.6104 111.47 15.4697C111.61 15.3291 111.801 15.25 112 15.25H123C123.199 15.25 123.39 15.3291 123.53 15.4697C123.671 15.6104 123.75 15.8011 123.75 16Z" fill="currentColor"/>
<path d="M172.5 16C172.5 18.9433 171.461 21.7921 169.567 24.0447C167.672 26.2973 165.044 27.8092 162.144 28.3141C159.245 28.819 156.26 28.2846 153.716 26.8049C151.171 25.3252 149.231 22.9951 148.236 20.2252C147.241 17.4552 147.255 14.423 148.276 11.6625C149.298 8.9021 151.26 6.59054 153.818 5.13498C156.376 3.67942 159.366 3.17323 162.261 3.70557C165.156 4.2379 167.77 5.77461 169.642 8.04503C169.768 8.19696 169.862 8.37209 169.92 8.56044C169.978 8.7488 169.998 8.94667 169.979 9.14278C169.96 9.33888 169.903 9.52938 169.811 9.70338C169.718 9.87739 169.593 10.0315 169.441 10.1569C169.289 10.2823 169.114 10.3766 168.925 10.4343C168.737 10.492 168.539 10.5121 168.343 10.4934C168.147 10.4746 167.956 10.4174 167.782 10.3251C167.608 10.2327 167.454 10.107 167.329 9.95503C165.946 8.27935 164.032 7.12799 161.903 6.69284C159.775 6.25769 157.562 6.56504 155.633 7.56366C153.704 8.56227 152.175 10.1918 151.302 12.1808C150.429 14.1697 150.263 16.3979 150.834 18.494C151.404 20.5901 152.675 22.4274 154.436 23.6998C156.196 24.9723 158.34 25.6029 160.509 25.4867C162.678 25.3704 164.742 24.5143 166.356 23.061C167.971 21.6077 169.038 19.645 169.381 17.5H160C159.602 17.5 159.221 17.342 158.939 17.0607C158.658 16.7794 158.5 16.3979 158.5 16C158.5 15.6022 158.658 15.2207 158.939 14.9394C159.221 14.6581 159.602 14.5 160 14.5H171C171.398 14.5 171.779 14.6581 172.061 14.9394C172.342 15.2207 172.5 15.6022 172.5 16Z" fill="currentColor"/>
<path d="M208 3C205.429 3 202.915 3.76244 200.778 5.1909C198.64 6.61935 196.974 8.64968 195.99 11.0251C195.006 13.4006 194.748 16.0144 195.25 18.5362C195.751 21.0579 196.99 23.3743 198.808 25.1924C200.626 27.0105 202.942 28.2486 205.464 28.7502C207.986 29.2518 210.599 28.9944 212.975 28.0104C215.35 27.0265 217.381 25.3603 218.809 23.2224C220.238 21.0846 221 18.5712 221 16C221 12.5522 219.63 9.24558 217.192 6.80761C214.754 4.36964 211.448 3 208 3ZM208 26C206.379 25.9998 204.783 25.6056 203.348 24.8514C201.913 24.0971 200.683 23.0054 199.764 21.6703C198.845 20.3352 198.264 18.7966 198.072 17.1872C197.879 15.5777 198.081 13.9456 198.659 12.4314C199.238 10.9172 200.176 9.56635 201.392 8.49512C202.609 7.42389 204.067 6.66441 205.643 6.28212C207.218 5.89982 208.862 5.90615 210.434 6.30057C212.007 6.69499 213.459 7.46568 214.668 8.54625C214.86 8.72439 214.975 8.97117 214.988 9.23334C215 9.4955 214.909 9.75205 214.734 9.94761C214.559 10.1432 214.314 10.2621 214.052 10.2786C213.79 10.2952 213.532 10.2082 213.334 10.0363C212.001 8.84376 210.306 8.13248 208.521 8.01602C206.736 7.89957 204.964 8.38466 203.487 9.39381C202.01 10.403 200.914 11.8779 200.374 13.5831C199.834 15.2883 199.881 17.1254 200.507 18.8008C201.133 20.4762 202.303 21.8934 203.83 22.8259C205.356 23.7584 207.151 24.1525 208.928 23.9451C210.704 23.7378 212.36 22.941 213.631 21.6821C214.902 20.4231 215.714 18.7747 215.938 17H208C207.735 17 207.48 16.8946 207.293 16.7071C207.105 16.5196 207 16.2652 207 16C207 15.7348 207.105 15.4804 207.293 15.2929C207.48 15.1054 207.735 15 208 15H217C217.265 15 217.52 15.1054 217.707 15.2929C217.895 15.4804 218 15.7348 218 16C217.997 18.6513 216.943 21.1931 215.068 23.0678C213.193 24.9425 210.651 25.997 208 26Z" fill="currentColor"/>
<path opacity="0.2" d="M267 16C267 18.1756 266.355 20.3023 265.146 22.1113C263.937 23.9202 262.22 25.3301 260.21 26.1627C258.2 26.9952 255.988 27.2131 253.854 26.7886C251.72 26.3642 249.76 25.3166 248.222 23.7782C246.683 22.2398 245.636 20.2798 245.211 18.146C244.787 16.0122 245.005 13.8005 245.837 11.7905C246.67 9.7805 248.08 8.06253 249.889 6.85383C251.698 5.64514 253.824 5 256 5C258.917 5 261.715 6.15893 263.778 8.22183C265.841 10.2847 267 13.0826 267 16Z" fill="currentColor"/>
<path d="M268 16C268 18.8255 267.003 21.5605 265.185 23.7232C263.367 25.8859 260.843 27.3376 258.06 27.8225C255.276 28.3075 252.411 27.7947 249.968 26.3744C247.525 24.9541 245.662 22.7174 244.707 20.0583C243.751 17.3992 243.765 14.4883 244.745 11.8382C245.725 9.18805 247.609 6.96879 250.065 5.57125C252.52 4.17371 255.391 3.68754 258.169 4.19837C260.948 4.70921 263.458 6.18427 265.256 8.36376C265.346 8.46421 265.414 8.58162 265.457 8.70898C265.499 8.83634 265.516 8.97103 265.506 9.10502C265.495 9.239 265.458 9.36953 265.396 9.4888C265.334 9.60807 265.249 9.71364 265.145 9.7992C265.042 9.88475 264.922 9.94855 264.793 9.98677C264.664 10.025 264.529 10.0368 264.396 10.0216C264.262 10.0064 264.133 9.96446 264.016 9.89825C263.899 9.83204 263.797 9.74293 263.715 9.63626C262.244 7.85291 260.201 6.63418 257.933 6.1874C255.665 5.74062 253.312 6.09339 251.275 7.1857C249.238 8.278 247.642 10.0424 246.759 12.1787C245.876 14.3149 245.76 16.6912 246.431 18.9032C247.103 21.1151 248.52 23.0262 250.441 24.3113C252.363 25.5963 254.67 26.176 256.971 25.9516C259.271 25.7273 261.423 24.7129 263.06 23.0808C264.697 21.4488 265.719 19.3 265.95 17H256C255.735 17 255.48 16.8947 255.293 16.7071C255.105 16.5196 255 16.2652 255 16C255 15.7348 255.105 15.4804 255.293 15.2929C255.48 15.1054 255.735 15 256 15H267C267.265 15 267.52 15.1054 267.707 15.2929C267.895 15.4804 268 15.7348 268 16Z" fill="currentColor"/>
</g>
<defs>
<clipPath id="clip0_17_13031">
<rect width="272" height="32" rx="5" fill="white"/>
</clipPath>
</defs>
</svg>
