<svg width="272" height="32" viewBox="0 0 272 32" fill="none" xmlns="http://www.w3.org/2000/svg">
<g clip-path="url(#clip0_17_12933)">
<path d="M9 8C7.41775 8 5.87103 8.46919 4.55544 9.34824C3.23985 10.2273 2.21447 11.4767 1.60897 12.9385C1.00347 14.4003 0.84504 16.0089 1.15372 17.5607C1.4624 19.1126 2.22433 20.538 3.34315 21.6569C4.46197 22.7757 5.88743 23.5376 7.43928 23.8463C8.99113 24.155 10.5997 23.9965 12.0615 23.391C13.5233 22.7855 14.7727 21.7602 15.6518 20.4446C16.5308 19.129 17 17.5823 17 16C16.9977 13.879 16.1541 11.8455 14.6543 10.3457C13.1545 8.84591 11.121 8.00232 9 8ZM9 22C7.81332 22 6.65328 21.6481 5.66658 20.9888C4.67989 20.3295 3.91085 19.3925 3.45673 18.2961C3.0026 17.1997 2.88378 15.9933 3.11529 14.8295C3.3468 13.6656 3.91825 12.5965 4.75736 11.7574C5.59648 10.9182 6.66558 10.3468 7.82946 10.1153C8.99335 9.88378 10.1997 10.0026 11.2961 10.4567C12.3925 10.9108 13.3295 11.6799 13.9888 12.6666C14.6481 13.6533 15 14.8133 15 16C14.9983 17.5908 14.3657 19.116 13.2408 20.2408C12.116 21.3657 10.5908 21.9983 9 22ZM23 8C22.29 8 20.95 8.345 19.96 10.6562C19.3413 12.1 19 14 19 16C19 18 19.3413 19.9 19.96 21.3438C20.95 23.655 22.29 24 23 24C23.71 24 25.05 23.655 26.04 21.3438C26.6588 19.9 27 18 27 16C27 14 26.6588 12.1 26.04 10.6562C25.05 8.345 23.71 8 23 8ZM23 22C22.295 22 21 19.7225 21 16C21 12.2775 22.295 10 23 10C23.705 10 25 12.2775 25 16C25 19.7225 23.705 22 23 22ZM31 9V23C31 23.2652 30.8946 23.5196 30.7071 23.7071C30.5196 23.8946 30.2652 24 30 24C29.7348 24 29.4804 23.8946 29.2929 23.7071C29.1054 23.5196 29 23.2652 29 23V9C29 8.73478 29.1054 8.48043 29.2929 8.29289C29.4804 8.10536 29.7348 8 30 8C30.2652 8 30.5196 8.10536 30.7071 8.29289C30.8946 8.48043 31 8.73478 31 9Z" fill="currentColor"/>
<path d="M57 8.5C55.5166 8.5 54.0666 8.93987 52.8332 9.76398C51.5999 10.5881 50.6386 11.7594 50.0709 13.1299C49.5032 14.5003 49.3547 16.0083 49.6441 17.4632C49.9335 18.918 50.6478 20.2544 51.6967 21.3033C52.7456 22.3522 54.082 23.0665 55.5368 23.3559C56.9917 23.6453 58.4997 23.4968 59.8701 22.9291C61.2406 22.3614 62.4119 21.4001 63.236 20.1668C64.0601 18.9334 64.5 17.4834 64.5 16C64.4977 14.0116 63.7068 12.1053 62.3007 10.6993C60.8947 9.29324 58.9884 8.50232 57 8.5ZM57 22.5C55.7144 22.5 54.4577 22.1188 53.3888 21.4046C52.3199 20.6903 51.4868 19.6752 50.9948 18.4874C50.5028 17.2997 50.3741 15.9928 50.6249 14.7319C50.8757 13.471 51.4948 12.3128 52.4038 11.4038C53.3129 10.4948 54.471 9.8757 55.7319 9.6249C56.9928 9.37409 58.2997 9.50281 59.4874 9.99478C60.6752 10.4868 61.6903 11.3199 62.4046 12.3888C63.1188 13.4577 63.5 14.7144 63.5 16C63.498 17.7233 62.8126 19.3754 61.594 20.594C60.3754 21.8126 58.7233 22.498 57 22.5ZM71 8.5C69 8.5 67.5 11.7238 67.5 16C67.5 20.2762 69 23.5 71 23.5C73 23.5 74.5 20.2762 74.5 16C74.5 11.7238 73 8.5 71 8.5ZM71 22.5C69.8175 22.5 68.5 19.83 68.5 16C68.5 12.17 69.8175 9.5 71 9.5C72.1825 9.5 73.5 12.17 73.5 16C73.5 19.83 72.1825 22.5 71 22.5ZM78.5 9V23C78.5 23.1326 78.4473 23.2598 78.3536 23.3536C78.2598 23.4473 78.1326 23.5 78 23.5C77.8674 23.5 77.7402 23.4473 77.6465 23.3536C77.5527 23.2598 77.5 23.1326 77.5 23V9C77.5 8.86739 77.5527 8.74021 77.6465 8.64645C77.7402 8.55268 77.8674 8.5 78 8.5C78.1326 8.5 78.2598 8.55268 78.3536 8.64645C78.4473 8.74021 78.5 8.86739 78.5 9Z" fill="currentColor"/>
<path d="M105 8.25C103.467 8.25 101.969 8.70453 100.694 9.55611C99.4199 10.4077 98.4265 11.6181 97.8399 13.0342C97.2534 14.4503 97.0999 16.0086 97.3989 17.5119C97.698 19.0153 98.4361 20.3962 99.5199 21.4801C100.604 22.5639 101.985 23.3021 103.488 23.6011C104.991 23.9001 106.55 23.7466 107.966 23.1601C109.382 22.5735 110.592 21.5802 111.444 20.3057C112.295 19.0312 112.75 17.5328 112.75 16C112.748 13.9453 111.93 11.9754 110.478 10.5225C109.025 9.06957 107.055 8.25232 105 8.25ZM105 22.25C103.764 22.25 102.555 21.8834 101.528 21.1967C100.5 20.5099 99.6988 19.5338 99.2258 18.3918C98.7527 17.2497 98.6289 15.9931 98.8701 14.7807C99.1113 13.5683 99.7065 12.4547 100.581 11.5806C101.455 10.7065 102.568 10.1113 103.781 9.87009C104.993 9.62893 106.25 9.75271 107.392 10.2258C108.534 10.6988 109.51 11.4999 110.197 12.5277C110.883 13.5555 111.25 14.7639 111.25 16C111.248 17.657 110.589 19.2456 109.417 20.4172C108.246 21.5889 106.657 22.248 105 22.25ZM119 8.25C116.863 8.25 115.25 11.5813 115.25 16C115.25 20.4187 116.863 23.75 119 23.75C121.138 23.75 122.75 20.4187 122.75 16C122.75 11.5813 121.138 8.25 119 8.25ZM119 22.25C118.083 22.25 116.75 19.815 116.75 16C116.75 12.185 118.083 9.75 119 9.75C119.918 9.75 121.25 12.185 121.25 16C121.25 19.815 119.918 22.25 119 22.25ZM126.75 9V23C126.75 23.1989 126.671 23.3897 126.53 23.5303C126.39 23.671 126.199 23.75 126 23.75C125.801 23.75 125.61 23.671 125.47 23.5303C125.329 23.3897 125.25 23.1989 125.25 23V9C125.25 8.80109 125.329 8.61032 125.47 8.46967C125.61 8.32902 125.801 8.25 126 8.25C126.199 8.25 126.39 8.32902 126.53 8.46967C126.671 8.61032 126.75 8.80109 126.75 9Z" fill="currentColor"/>
<path d="M152.5 7.5C150.819 7.5 149.175 7.99852 147.778 8.93251C146.38 9.8665 145.29 11.194 144.647 12.7472C144.004 14.3004 143.835 16.0094 144.163 17.6583C144.491 19.3071 145.301 20.8217 146.49 22.0104C147.678 23.1992 149.193 24.0087 150.842 24.3367C152.491 24.6646 154.2 24.4963 155.753 23.853C157.306 23.2096 158.634 22.1202 159.567 20.7223C160.501 19.3245 161 17.6811 161 16C160.998 13.7464 160.101 11.5857 158.508 9.99215C156.914 8.39859 154.754 7.50232 152.5 7.5ZM152.5 21.5C151.412 21.5 150.349 21.1774 149.444 20.5731C148.54 19.9687 147.835 19.1098 147.419 18.1048C147.002 17.0998 146.893 15.9939 147.106 14.927C147.318 13.8601 147.842 12.8801 148.611 12.1109C149.38 11.3417 150.36 10.8179 151.427 10.6057C152.494 10.3935 153.6 10.5024 154.605 10.9187C155.61 11.3349 156.469 12.0399 157.073 12.9444C157.677 13.8488 158 14.9122 158 16C157.998 17.4582 157.418 18.8562 156.387 19.8873C155.356 20.9184 153.958 21.4983 152.5 21.5ZM167 7.5C164.046 7.5 162.5 11.7762 162.5 16C162.5 20.2238 164.046 24.5 167 24.5C169.954 24.5 171.5 20.2238 171.5 16C171.5 11.7762 169.954 7.5 167 7.5ZM167 21.4837C166.533 21.2137 165.5 19.3475 165.5 16C165.5 12.6525 166.533 10.7862 167 10.5162C167.468 10.7862 168.5 12.6525 168.5 16C168.5 19.3475 167.468 21.2137 167 21.4837ZM176 9V23C176 23.3978 175.842 23.7794 175.561 24.0607C175.279 24.342 174.898 24.5 174.5 24.5C174.102 24.5 173.721 24.342 173.439 24.0607C173.158 23.7794 173 23.3978 173 23V9C173 8.60218 173.158 8.22064 173.439 7.93934C173.721 7.65804 174.102 7.5 174.5 7.5C174.898 7.5 175.279 7.65804 175.561 7.93934C175.842 8.22064 176 8.60218 176 9Z" fill="currentColor"/>
<path d="M209 16C209 17.5823 208.531 19.129 207.652 20.4446C206.773 21.7602 205.523 22.7855 204.061 23.391C202.6 23.9965 200.991 24.155 199.439 23.8463C197.887 23.5376 196.462 22.7757 195.343 21.6569C194.224 20.538 193.462 19.1126 193.154 17.5607C192.845 16.0089 193.003 14.4003 193.609 12.9385C194.214 11.4767 195.24 10.2273 196.555 9.34824C197.871 8.46919 199.418 8 201 8C203.121 8.00232 205.155 8.84591 206.654 10.3457C208.154 11.8455 208.998 13.879 209 16ZM215 8C214.29 8 212.95 8.345 211.96 10.6562C211.341 12.1 211 14 211 16C211 18 211.341 19.9 211.96 21.3438C212.95 23.655 214.29 24 215 24C215.71 24 217.05 23.655 218.04 21.3438C218.659 19.9 219 18 219 16C219 14 218.659 12.1 218.04 10.6562C217.05 8.345 215.71 8 215 8ZM222 8C221.735 8 221.48 8.10536 221.293 8.29289C221.105 8.48043 221 8.73478 221 9V23C221 23.2652 221.105 23.5196 221.293 23.7071C221.48 23.8946 221.735 24 222 24C222.265 24 222.52 23.8946 222.707 23.7071C222.895 23.5196 223 23.2652 223 23V9C223 8.73478 222.895 8.48043 222.707 8.29289C222.52 8.10536 222.265 8 222 8Z" fill="currentColor"/>
<path opacity="0.2" d="M256 16C256 17.3845 255.589 18.7378 254.82 19.889C254.051 21.0401 252.958 21.9373 251.679 22.4672C250.4 22.997 248.992 23.1356 247.634 22.8655C246.277 22.5954 245.029 21.9287 244.05 20.9497C243.071 19.9708 242.405 18.7235 242.135 17.3656C241.864 16.0078 242.003 14.6003 242.533 13.3212C243.063 12.0421 243.96 10.9489 245.111 10.1797C246.262 9.41054 247.616 9 249 9C250.857 9 252.637 9.7375 253.95 11.0503C255.263 12.363 256 14.1435 256 16ZM263 9C261.344 9 260 12.1337 260 16C260 19.8663 261.344 23 263 23C264.656 23 266 19.8663 266 16C266 12.1337 264.656 9 263 9Z" fill="currentColor"/>
<path d="M249 8C247.418 8 245.871 8.46919 244.555 9.34824C243.24 10.2273 242.214 11.4767 241.609 12.9385C241.003 14.4003 240.845 16.0089 241.154 17.5607C241.462 19.1126 242.224 20.538 243.343 21.6569C244.462 22.7757 245.887 23.5376 247.439 23.8463C248.991 24.155 250.6 23.9965 252.061 23.391C253.523 22.7855 254.773 21.7602 255.652 20.4446C256.531 19.129 257 17.5823 257 16C256.998 13.879 256.154 11.8455 254.654 10.3457C253.155 8.84591 251.121 8.00232 249 8ZM249 22C247.813 22 246.653 21.6481 245.667 20.9888C244.68 20.3295 243.911 19.3925 243.457 18.2961C243.003 17.1997 242.884 15.9933 243.115 14.8295C243.347 13.6656 243.918 12.5965 244.757 11.7574C245.596 10.9182 246.666 10.3468 247.829 10.1153C248.993 9.88378 250.2 10.0026 251.296 10.4567C252.392 10.9108 253.33 11.6799 253.989 12.6666C254.648 13.6533 255 14.8133 255 16C254.998 17.5908 254.366 19.116 253.241 20.2408C252.116 21.3657 250.591 21.9983 249 22ZM263 8C262.29 8 260.95 8.345 259.96 10.6562C259.341 12.1 259 14 259 16C259 18 259.341 19.9 259.96 21.3438C260.95 23.655 262.29 24 263 24C263.71 24 265.05 23.655 266.04 21.3438C266.659 19.9 267 18 267 16C267 14 266.659 12.1 266.04 10.6562C265.05 8.345 263.71 8 263 8ZM263 22C262.295 22 261 19.7225 261 16C261 12.2775 262.295 10 263 10C263.705 10 265 12.2775 265 16C265 19.7225 263.705 22 263 22ZM271 9V23C271 23.2652 270.895 23.5196 270.707 23.7071C270.52 23.8946 270.265 24 270 24C269.735 24 269.48 23.8946 269.293 23.7071C269.105 23.5196 269 23.2652 269 23V9C269 8.73478 269.105 8.48043 269.293 8.29289C269.48 8.10536 269.735 8 270 8C270.265 8 270.52 8.10536 270.707 8.29289C270.895 8.48043 271 8.73478 271 9Z" fill="currentColor"/>
</g>
<defs>
<clipPath id="clip0_17_12933">
<rect width="272" height="32" rx="5" fill="white"/>
</clipPath>
</defs>
</svg>
