<svg width="272" height="32" viewBox="0 0 272 32" fill="none" xmlns="http://www.w3.org/2000/svg">
<g clip-path="url(#clip0_17_12849)">
<path d="M14 13.0001C14 13.2653 13.8946 13.5197 13.7071 13.7072C13.5196 13.8947 13.2652 14.0001 13 14.0001H12V19.0001C12 19.2653 11.8946 19.5197 11.7071 19.7072C11.5196 19.8947 11.2652 20.0001 11 20.0001C10.7348 20.0001 10.4804 19.8947 10.2929 19.7072C10.1054 19.5197 10 19.2653 10 19.0001V14.0001H9C8.73478 14.0001 8.48043 13.8947 8.29289 13.7072C8.10536 13.5197 8 13.2653 8 13.0001C8 12.7349 8.10536 12.4805 8.29289 12.293C8.48043 12.1055 8.73478 12.0001 9 12.0001H13C13.2652 12.0001 13.5196 12.1055 13.7071 12.293C13.8946 12.4805 14 12.7349 14 13.0001ZM29 11.5926V19.0001C28.9998 20.2531 28.5291 21.4603 27.6811 22.3828C26.8332 23.3053 25.6698 23.8758 24.4212 23.9814C23.8264 25.461 22.8028 26.729 21.4821 27.6227C20.1613 28.5165 18.6036 28.995 17.0088 28.9971C15.4141 28.9991 13.8552 28.5244 12.5321 27.6341C11.2091 26.7437 10.1824 25.4782 9.58375 24.0001H5C4.46957 24.0001 3.96086 23.7894 3.58579 23.4143C3.21071 23.0392 3 22.5305 3 22.0001V10.0001C3 9.46967 3.21071 8.96096 3.58579 8.58589C3.96086 8.21082 4.46957 8.0001 5 8.0001H12.1012C11.8675 6.84821 12.047 5.65077 12.6082 4.61805C13.1695 3.58533 14.0766 2.78335 15.1704 2.35293C16.2641 1.92251 17.4745 1.89116 18.5891 2.26439C19.7036 2.63762 20.651 3.39157 21.265 4.39385C22.0354 4.02357 22.9042 3.90983 23.744 4.06929C24.5837 4.22876 25.3503 4.65304 25.9314 5.27995C26.5125 5.90686 26.8774 6.70343 26.9728 7.55287C27.0681 8.40232 26.8889 9.25997 26.4613 10.0001H27.4075C27.8297 10.0008 28.2343 10.1688 28.5328 10.4673C28.8313 10.7658 28.9993 11.1704 29 11.5926ZM14 7.0001C13.9999 7.34085 14.0582 7.6791 14.1725 8.0001H17C17.4135 8.00061 17.8166 8.12925 18.154 8.36833C18.4913 8.6074 18.7463 8.94516 18.8838 9.3351C19.2782 9.01683 19.5857 8.6038 19.7773 8.13455C19.9689 7.66531 20.0386 7.15516 19.9797 6.65172C19.9208 6.14828 19.7353 5.66798 19.4405 5.25563C19.1458 4.84328 18.7513 4.51235 18.294 4.29371C17.8368 4.07507 17.3315 3.97586 16.8255 4.00534C16.3195 4.03482 15.8292 4.19203 15.4004 4.46229C14.9716 4.73256 14.6183 5.10706 14.3734 5.55085C14.1285 5.99463 14 6.49323 14 7.0001ZM17 22.0001V10.0001H5V22.0001H17ZM23 12.0001H19V22.0001C19 22.5305 18.7893 23.0392 18.4142 23.4143C18.0391 23.7894 17.5304 24.0001 17 24.0001H11.805C12.4657 25.1434 13.485 26.0368 14.705 26.5419C15.9251 27.0469 17.2776 27.1354 18.5531 26.7936C19.8285 26.4518 20.9556 25.6989 21.7596 24.6514C22.5636 23.604 22.9996 22.3205 23 21.0001V12.0001ZM25 8.0001C24.9996 7.64428 24.9043 7.295 24.7239 6.9883C24.5435 6.6816 24.2845 6.42858 23.9737 6.25535C23.6629 6.08211 23.3115 5.99493 22.9558 6.0028C22.6 6.01066 22.2528 6.1133 21.95 6.3001C22.0426 6.94901 22.0064 7.6098 21.8434 8.24469C21.6804 8.87957 21.3938 9.47609 21 10.0001H23C23.5304 10.0001 24.0391 9.78939 24.4142 9.41432C24.7893 9.03924 25 8.53054 25 8.0001ZM27 12.0001H25V21.0001C25.0002 21.282 24.9851 21.5636 24.955 21.8439C25.5508 21.6438 26.0687 21.2617 26.4356 20.7514C26.8025 20.2412 27 19.6286 27 19.0001V12.0001Z" fill="currentColor"/>
<path d="M61.5 13C61.5 13.1326 61.4473 13.2598 61.3536 13.3535C61.2598 13.4473 61.1326 13.5 61 13.5H59.5V19C59.5 19.1326 59.4473 19.2598 59.3536 19.3535C59.2598 19.4473 59.1326 19.5 59 19.5C58.8674 19.5 58.7402 19.4473 58.6464 19.3535C58.5527 19.2598 58.5 19.1326 58.5 19V13.5H57C56.8674 13.5 56.7402 13.4473 56.6464 13.3535C56.5527 13.2598 56.5 13.1326 56.5 13C56.5 12.8674 56.5527 12.7402 56.6464 12.6464C56.7402 12.5527 56.8674 12.5 57 12.5H61C61.1326 12.5 61.2598 12.5527 61.3536 12.6464C61.4473 12.7402 61.5 12.8674 61.5 13ZM76.5 11.5925V19C76.5001 20.1814 76.0357 21.3155 75.2068 22.1575C74.378 22.9994 73.2513 23.4816 72.07 23.5C71.5528 24.9619 70.5952 26.2276 69.329 27.1228C68.0627 28.0181 66.5501 28.4987 64.9994 28.4987C63.4486 28.4987 61.936 28.0181 60.6698 27.1228C59.4035 26.2276 58.4459 24.9619 57.9288 23.5H53C52.6022 23.5 52.2206 23.342 51.9393 23.0607C51.658 22.7793 51.5 22.3978 51.5 22V9.99999C51.5 9.60217 51.658 9.22064 51.9393 8.93933C52.2206 8.65803 52.6022 8.49999 53 8.49999H60.7587C60.3804 7.41358 60.4325 6.22351 60.9043 5.17432C61.3762 4.12512 62.232 3.29648 63.2958 2.85866C64.3596 2.42083 65.5508 2.40707 66.6244 2.8202C67.6981 3.23333 68.5728 4.04198 69.0688 5.07999C69.795 4.60449 70.6721 4.41587 71.5297 4.55075C72.3872 4.68563 73.1641 5.13439 73.7093 5.80989C74.2546 6.48538 74.5293 7.3394 74.4803 8.20611C74.4312 9.07282 74.0618 9.89037 73.4438 10.5H75.405C75.5486 10.4998 75.6909 10.528 75.8237 10.5828C75.9564 10.6376 76.0771 10.718 76.1788 10.8195C76.2804 10.9209 76.3611 11.0414 76.4163 11.174C76.4714 11.3067 76.4998 11.4489 76.5 11.5925ZM69.4037 6.07624C69.5741 6.88702 69.5173 7.72909 69.2396 8.50964C68.9619 9.2902 68.4741 9.97895 67.83 10.5H71C71.4013 10.5001 71.7968 10.4035 72.153 10.2184C72.5091 10.0334 72.8155 9.76535 73.0462 9.43692C73.2768 9.10849 73.4251 8.72935 73.4783 8.33155C73.5315 7.93374 73.4882 7.52897 73.352 7.15145C73.2157 6.77393 72.9906 6.43475 72.6956 6.1626C72.4007 5.89044 72.0445 5.6933 71.6573 5.58784C71.27 5.48238 70.8631 5.47171 70.4708 5.55672C70.0786 5.64173 69.7126 5.81992 69.4037 6.07624ZM61.8387 8.49999H65C65.3978 8.49999 65.7794 8.65803 66.0607 8.93933C66.342 9.22064 66.5 9.60217 66.5 9.99999V10.1612C67.1256 9.86462 67.6491 9.38915 68.0044 8.79496C68.3597 8.20077 68.5308 7.51455 68.496 6.82311C68.4613 6.13167 68.2223 5.46606 67.8092 4.91048C67.3961 4.3549 66.8276 3.9343 66.1754 3.70188C65.5233 3.46946 64.8169 3.43567 64.1455 3.60477C63.4742 3.77387 62.8681 4.13827 62.4039 4.65189C61.9396 5.1655 61.6382 5.80525 61.5376 6.49022C61.437 7.17518 61.5418 7.8746 61.8387 8.49999ZM53 22.5H65C65.1326 22.5 65.2598 22.4473 65.3536 22.3535C65.4473 22.2598 65.5 22.1326 65.5 22V9.99999C65.5 9.86738 65.4473 9.74021 65.3536 9.64644C65.2598 9.55267 65.1326 9.49999 65 9.49999H53C52.8674 9.49999 52.7402 9.55267 52.6464 9.64644C52.5527 9.74021 52.5 9.86738 52.5 9.99999V22C52.5 22.1326 52.5527 22.2598 52.6464 22.3535C52.7402 22.4473 52.8674 22.5 53 22.5ZM71.5 21V12C71.5 11.8674 71.4473 11.7402 71.3536 11.6464C71.2598 11.5527 71.1326 11.5 71 11.5H66.5V22C66.5 22.3978 66.342 22.7793 66.0607 23.0607C65.7794 23.342 65.3978 23.5 65 23.5H59C59.5779 24.887 60.6186 26.031 61.9449 26.7373C63.2712 27.4435 64.8013 27.6685 66.2748 27.3738C67.7482 27.0791 69.0741 26.283 70.0267 25.1209C70.9794 23.9589 71.5 22.5026 71.5 21ZM75.5 11.5925C75.5 11.568 75.4903 11.5444 75.4729 11.5271C75.4556 11.5097 75.432 11.5 75.4075 11.5H72.4075C72.4653 11.6603 72.4949 11.8295 72.495 12V21C72.495 21.4978 72.4456 21.9944 72.3475 22.4825C73.2113 22.3963 74.0122 21.9922 74.5948 21.3487C75.1773 20.7051 75.4999 19.8681 75.5 19V11.5925Z" fill="currentColor"/>
<path d="M106.25 13.75H105C104.801 13.75 104.61 13.671 104.47 13.5304C104.329 13.3897 104.25 13.199 104.25 13C104.25 12.8011 104.329 12.6104 104.47 12.4697C104.61 12.3291 104.801 12.25 105 12.25H109C109.199 12.25 109.39 12.3291 109.53 12.4697C109.671 12.6104 109.75 12.8011 109.75 13C109.75 13.199 109.671 13.3897 109.53 13.5304C109.39 13.671 109.199 13.75 109 13.75H107.75V19C107.75 19.199 107.671 19.3897 107.53 19.5304C107.39 19.671 107.199 19.75 107 19.75C106.801 19.75 106.61 19.671 106.47 19.5304C106.329 19.3897 106.25 19.199 106.25 19V13.75ZM124.75 11.5925V19C124.75 20.2172 124.284 21.3882 123.447 22.2718C122.609 23.1554 121.465 23.6845 120.25 23.75C119.694 25.2229 118.702 26.4914 117.407 27.3866C116.112 28.2819 114.574 28.7614 113 28.7614C111.426 28.7614 109.888 28.2819 108.593 27.3866C107.298 26.4914 106.306 25.2229 105.75 23.75H101C100.536 23.75 100.091 23.5657 99.7626 23.2375C99.4344 22.9093 99.25 22.4642 99.25 22V10C99.25 9.53591 99.4344 9.09079 99.7626 8.7626C100.091 8.43441 100.536 8.25004 101 8.25004H108.417C108.114 7.1281 108.233 5.93395 108.751 4.89363C109.269 3.8533 110.151 3.039 111.229 2.60486C112.307 2.17072 113.506 2.14686 114.601 2.53781C115.695 2.92876 116.609 3.70738 117.167 4.72629C117.918 4.30522 118.79 4.15502 119.638 4.30089C120.486 4.44676 121.258 4.87983 121.825 5.52745C122.392 6.17506 122.718 6.99782 122.75 7.8577C122.782 8.71757 122.517 9.56226 122 10.25H123.41C123.766 10.251 124.106 10.3929 124.357 10.6445C124.608 10.8961 124.75 11.237 124.75 11.5925ZM117.677 6.18129C117.726 6.45154 117.75 6.72552 117.75 7.00004C117.75 8.20731 117.291 9.36937 116.465 10.25H119C119.355 10.2504 119.706 10.1666 120.022 10.0055C120.339 9.84443 120.613 9.61066 120.822 9.32332C121.031 9.03599 121.169 8.70326 121.224 8.35237C121.28 8.00148 121.252 7.6424 121.142 7.30452C121.032 6.96665 120.844 6.65958 120.593 6.40846C120.341 6.15734 120.034 5.9693 119.696 5.85972C119.358 5.75015 118.999 5.72217 118.648 5.77806C118.297 5.83395 117.965 5.97213 117.677 6.18129ZM110 8.25004H113C113.42 8.25053 113.827 8.40239 114.144 8.67784C114.462 8.95328 114.67 9.33389 114.73 9.75004C115.255 9.42004 115.674 8.94691 115.939 8.38644C116.203 7.82597 116.302 7.20153 116.223 6.58675C116.145 5.97198 115.892 5.3925 115.495 4.91665C115.098 4.4408 114.573 4.08842 113.982 3.90106C113.391 3.71371 112.759 3.69919 112.16 3.85922C111.562 4.01926 111.021 4.34716 110.603 4.80428C110.184 5.26139 109.905 5.82865 109.798 6.43917C109.691 7.04969 109.761 7.67801 110 8.25004ZM101 22.25H113C113.066 22.25 113.13 22.2237 113.177 22.1768C113.224 22.1299 113.25 22.0663 113.25 22V10C113.25 9.93374 113.224 9.87015 113.177 9.82326C113.13 9.77638 113.066 9.75004 113 9.75004H101C100.934 9.75004 100.87 9.77638 100.823 9.82326C100.776 9.87015 100.75 9.93374 100.75 10V22C100.75 22.0663 100.776 22.1299 100.823 22.1768C100.87 22.2237 100.934 22.25 101 22.25ZM119.25 21V12C119.25 11.9337 119.224 11.8701 119.177 11.8233C119.13 11.7764 119.066 11.75 119 11.75H114.75V22C114.75 22.4642 114.566 22.9093 114.237 23.2375C113.909 23.5657 113.464 23.75 113 23.75H107.387C108.009 25.0182 109.041 26.0386 110.317 26.6449C111.592 27.2511 113.036 27.4075 114.411 27.0886C115.787 26.7697 117.014 25.9942 117.893 24.8886C118.772 23.7829 119.25 22.4123 119.25 21ZM123.25 11.75H120.73C120.742 11.8328 120.749 11.9163 120.75 12V21C120.75 21.3959 120.72 21.7912 120.66 22.1825C121.392 22.0308 122.049 21.6314 122.521 21.0517C122.993 20.472 123.25 19.7474 123.25 19V11.75Z" fill="currentColor"/>
<path d="M158.5 13.0001C158.5 13.3979 158.342 13.7795 158.061 14.0608C157.779 14.3421 157.398 14.5001 157 14.5001H156.5V19.0001C156.5 19.3979 156.342 19.7795 156.061 20.0608C155.779 20.3421 155.398 20.5001 155 20.5001C154.602 20.5001 154.221 20.3421 153.939 20.0608C153.658 19.7795 153.5 19.3979 153.5 19.0001V14.5001H153C152.602 14.5001 152.221 14.3421 151.939 14.0608C151.658 13.7795 151.5 13.3979 151.5 13.0001C151.5 12.6023 151.658 12.2208 151.939 11.9395C152.221 11.6581 152.602 11.5001 153 11.5001H157C157.398 11.5001 157.779 11.6581 158.061 11.9395C158.342 12.2208 158.5 12.6023 158.5 13.0001ZM174 11.5926V19.0001C174.001 20.4165 173.456 21.7789 172.478 22.8034C171.5 23.828 170.165 24.4357 168.75 24.5001C168.097 25.9482 167.05 27.1842 165.73 28.0679C164.41 28.9516 162.869 29.4476 161.281 29.4996C159.693 29.5517 158.122 29.1577 156.747 28.3624C155.372 27.5671 154.247 26.4023 153.5 25.0001H148.5C147.837 25.0001 147.201 24.7367 146.732 24.2679C146.263 23.799 146 23.1632 146 22.5001V9.50011C146 8.83707 146.263 8.20119 146.732 7.73234C147.201 7.2635 147.837 7.00011 148.5 7.00011H155.5C155.501 5.82188 155.88 4.67503 156.581 3.72845C157.283 2.78187 158.27 2.0856 159.397 1.7422C160.524 1.3988 161.732 1.42642 162.842 1.82098C163.952 2.21555 164.906 2.9562 165.564 3.93386C166.367 3.55047 167.266 3.41404 168.148 3.54185C169.029 3.66966 169.852 4.05596 170.514 4.65186C171.175 5.24777 171.645 6.0265 171.864 6.88952C172.082 7.75254 172.04 8.66106 171.743 9.50011H171.907C172.462 9.50077 172.994 9.72145 173.386 10.1137C173.779 10.506 173.999 11.0378 174 11.5926ZM166.5 6.88636C166.5 6.92386 166.5 6.96136 166.5 7.00011C166.501 7.86876 166.297 8.72533 165.904 9.50011H167.5C167.744 9.50089 167.984 9.44231 168.2 9.32945C168.416 9.21659 168.601 9.05285 168.739 8.85237C168.878 8.6519 168.965 8.42073 168.994 8.17885C169.023 7.93696 168.993 7.69165 168.906 7.46412C168.819 7.23659 168.678 7.03368 168.494 6.87295C168.311 6.71221 168.092 6.59848 167.855 6.54159C167.618 6.4847 167.371 6.48636 167.135 6.54644C166.899 6.60651 166.681 6.72318 166.5 6.88636ZM158.5 7.00011H161.5C161.851 7.00028 162.198 7.07453 162.518 7.21799C162.838 7.36146 163.124 7.5709 163.358 7.83261C163.451 7.56505 163.499 7.28363 163.5 7.00011C163.5 6.33707 163.237 5.70119 162.768 5.23234C162.299 4.7635 161.663 4.50011 161 4.50011C160.337 4.50011 159.701 4.7635 159.232 5.23234C158.763 5.70119 158.5 6.33707 158.5 7.00011ZM149 22.0001H161V10.0001H149V22.0001ZM166.5 21.0001V12.5001H164V22.5001C164 23.1632 163.737 23.799 163.268 24.2679C162.799 24.7367 162.163 25.0001 161.5 25.0001H157.233C158.014 25.735 158.993 26.2252 160.05 26.4105C161.107 26.5958 162.195 26.468 163.18 26.0428C164.164 25.6177 165.004 24.9138 165.594 24.0178C166.184 23.1219 166.499 22.0729 166.5 21.0001ZM171 12.5001H169.5V21.0001C169.5 21.0989 169.5 21.1964 169.493 21.2939C169.94 21.1002 170.321 20.7799 170.589 20.3724C170.857 19.9648 171 19.4878 171 19.0001V12.5001Z" fill="currentColor"/>
<path d="M219.407 10.0001H218.461C218.815 9.39297 219.001 8.70274 219 8.0001C219 7.32318 218.829 6.65723 218.502 6.06463C218.175 5.47203 217.702 4.97215 217.129 4.61181C216.556 4.25147 215.901 4.04245 215.225 4.00433C214.549 3.96621 213.875 4.10024 213.265 4.39385C212.651 3.39157 211.704 2.63762 210.589 2.26439C209.475 1.89116 208.264 1.92251 207.17 2.35293C206.077 2.78335 205.169 3.58533 204.608 4.61805C204.047 5.65077 203.867 6.84821 204.101 8.0001H197C196.47 8.0001 195.961 8.21082 195.586 8.58589C195.211 8.96096 195 9.46967 195 10.0001V22.0001C195 22.5305 195.211 23.0392 195.586 23.4143C195.961 23.7894 196.47 24.0001 197 24.0001H201.584C202.182 25.4782 203.209 26.7437 204.532 27.6341C205.855 28.5244 207.414 28.9991 209.009 28.9971C210.604 28.995 212.161 28.5165 213.482 27.6227C214.803 26.729 215.826 25.461 216.421 23.9814C217.67 23.8758 218.833 23.3053 219.681 22.3828C220.529 21.4603 221 20.2531 221 19.0001V11.5926C220.999 11.1704 220.831 10.7658 220.533 10.4673C220.234 10.1688 219.83 10.0008 219.407 10.0001ZM209 4.0001C209.621 4.00006 210.226 4.19251 210.733 4.55091C211.239 4.90932 211.622 5.41604 211.829 6.00126C212.036 6.58648 212.056 7.22138 211.886 7.81847C211.717 8.41556 211.367 8.94544 210.884 9.3351C210.746 8.94516 210.491 8.6074 210.154 8.36833C209.817 8.12925 209.413 8.00061 209 8.0001H206.172C206.013 7.54768 205.963 7.0635 206.029 6.58818C206.095 6.11286 206.274 5.66028 206.551 5.26843C206.828 4.87658 207.195 4.55689 207.621 4.3362C208.047 4.11551 208.52 4.00025 209 4.0001ZM203 20.0001C202.735 20.0001 202.48 19.8947 202.293 19.7072C202.105 19.5197 202 19.2653 202 19.0001V14.0001H201C200.735 14.0001 200.48 13.8947 200.293 13.7072C200.105 13.5197 200 13.2653 200 13.0001C200 12.7349 200.105 12.4805 200.293 12.293C200.48 12.1055 200.735 12.0001 201 12.0001H205C205.265 12.0001 205.52 12.1055 205.707 12.293C205.895 12.4805 206 12.7349 206 13.0001C206 13.2653 205.895 13.5197 205.707 13.7072C205.52 13.8947 205.265 14.0001 205 14.0001H204V19.0001C204 19.2653 203.895 19.5197 203.707 19.7072C203.52 19.8947 203.265 20.0001 203 20.0001ZM215 21.0001C215 22.3205 214.564 23.604 213.76 24.6514C212.956 25.6989 211.829 26.4518 210.553 26.7936C209.278 27.1354 207.925 27.0469 206.705 26.5419C205.485 26.0368 204.466 25.1434 203.805 24.0001H209C209.53 24.0001 210.039 23.7894 210.414 23.4143C210.789 23.0392 211 22.5305 211 22.0001V12.0001H215V21.0001ZM215 10.0001H213C213.394 9.47609 213.68 8.87957 213.843 8.24469C214.006 7.6098 214.043 6.94901 213.95 6.3001C214.213 6.13703 214.511 6.03727 214.819 6.00866C215.127 5.98006 215.438 6.0234 215.726 6.13526C216.015 6.24713 216.274 6.42447 216.482 6.65332C216.691 6.88218 216.843 7.1563 216.928 7.4541C217.012 7.7519 217.026 8.06526 216.969 8.36949C216.912 8.67373 216.785 8.96054 216.598 9.20734C216.411 9.45415 216.17 9.65421 215.892 9.79177C215.615 9.92934 215.31 10.0007 215 10.0001ZM219 19.0001C219 19.6286 218.803 20.2412 218.436 20.7514C218.069 21.2617 217.551 21.6438 216.955 21.8439C216.985 21.5636 217 21.282 217 21.0001V12.0001H219V19.0001Z" fill="currentColor"/>
<path opacity="0.2" d="M258 10V22C258 22.2652 257.895 22.5196 257.707 22.7071C257.52 22.8946 257.265 23 257 23H245C244.735 23 244.48 22.8946 244.293 22.7071C244.105 22.5196 244 22.2652 244 22V10C244 9.73478 244.105 9.48043 244.293 9.29289C244.48 9.10536 244.735 9 245 9H257C257.265 9 257.52 9.10536 257.707 9.29289C257.895 9.48043 258 9.73478 258 10Z" fill="currentColor"/>
<path d="M250 19.0001V14.0001H249C248.735 14.0001 248.48 13.8947 248.293 13.7072C248.105 13.5197 248 13.2653 248 13.0001C248 12.7349 248.105 12.4805 248.293 12.293C248.48 12.1055 248.735 12.0001 249 12.0001H253C253.265 12.0001 253.52 12.1055 253.707 12.293C253.895 12.4805 254 12.7349 254 13.0001C254 13.2653 253.895 13.5197 253.707 13.7072C253.52 13.8947 253.265 14.0001 253 14.0001H252V19.0001C252 19.2653 251.895 19.5197 251.707 19.7072C251.52 19.8947 251.265 20.0001 251 20.0001C250.735 20.0001 250.48 19.8947 250.293 19.7072C250.105 19.5197 250 19.2653 250 19.0001ZM269 11.5926V19.0001C269 20.2531 268.529 21.4603 267.681 22.3828C266.833 23.3053 265.67 23.8758 264.421 23.9814C263.826 25.461 262.803 26.729 261.482 27.6227C260.161 28.5165 258.604 28.995 257.009 28.9971C255.414 28.9991 253.855 28.5244 252.532 27.6341C251.209 26.7437 250.182 25.4782 249.584 24.0001H245C244.47 24.0001 243.961 23.7894 243.586 23.4143C243.211 23.0392 243 22.5305 243 22.0001V10.0001C243 9.46967 243.211 8.96096 243.586 8.58589C243.961 8.21082 244.47 8.0001 245 8.0001H252.101C251.867 6.84821 252.047 5.65077 252.608 4.61805C253.169 3.58533 254.077 2.78335 255.17 2.35293C256.264 1.92251 257.475 1.89116 258.589 2.26439C259.704 2.63762 260.651 3.39157 261.265 4.39385C262.035 4.02357 262.904 3.90983 263.744 4.06929C264.584 4.22876 265.35 4.65304 265.931 5.27995C266.512 5.90686 266.877 6.70343 266.973 7.55287C267.068 8.40232 266.889 9.25997 266.461 10.0001H267.407C267.83 10.0008 268.234 10.1688 268.533 10.4673C268.831 10.7658 268.999 11.1704 269 11.5926ZM261.95 6.3001C262.043 6.94901 262.006 7.6098 261.843 8.24469C261.68 8.87957 261.394 9.47609 261 10.0001H263C263.31 10.0007 263.615 9.92934 263.892 9.79177C264.17 9.65421 264.411 9.45415 264.598 9.20734C264.785 8.96054 264.912 8.67373 264.969 8.36949C265.026 8.06526 265.012 7.7519 264.928 7.4541C264.843 7.1563 264.691 6.88218 264.482 6.65332C264.274 6.42447 264.015 6.24713 263.726 6.13526C263.438 6.0234 263.127 5.98006 262.819 6.00866C262.511 6.03727 262.213 6.13703 261.95 6.3001ZM254.172 8.0001H257C257.413 8.00061 257.817 8.12925 258.154 8.36833C258.491 8.6074 258.746 8.94516 258.884 9.3351C259.312 8.98979 259.637 8.53335 259.823 8.0157C260.01 7.49806 260.05 6.93914 259.94 6.40008C259.83 5.86102 259.574 5.36257 259.2 4.95925C258.826 4.55594 258.348 4.26328 257.819 4.11329C257.289 3.9633 256.729 3.96175 256.199 4.10882C255.669 4.25588 255.189 4.5459 254.813 4.94714C254.436 5.34839 254.178 5.84541 254.065 6.38386C253.952 6.92231 253.989 7.48144 254.172 8.0001ZM245 22.0001H257V10.0001H245V22.0001ZM263 21.0001V12.0001H259V22.0001C259 22.5305 258.789 23.0392 258.414 23.4143C258.039 23.7894 257.53 24.0001 257 24.0001H251.805C252.466 25.1434 253.485 26.0368 254.705 26.5419C255.925 27.0469 257.278 27.1354 258.553 26.7936C259.829 26.4518 260.956 25.6989 261.76 24.6514C262.564 23.604 263 22.3205 263 21.0001ZM267 12.0001H265V21.0001C265 21.282 264.985 21.5636 264.955 21.8439C265.551 21.6438 266.069 21.2617 266.436 20.7514C266.803 20.2412 267 19.6286 267 19.0001V12.0001Z" fill="currentColor"/>
</g>
<defs>
<clipPath id="clip0_17_12849">
<rect width="272" height="32" rx="5" fill="white"/>
</clipPath>
</defs>
</svg>
