<svg width="272" height="32" viewBox="0 0 272 32" fill="none" xmlns="http://www.w3.org/2000/svg">
<g clip-path="url(#clip0_17_12751)">
<path d="M27 14.0001C27 16.8213 26.0125 19.4001 24.2213 21.2638C22.5488 23.0001 20.2813 24.0001 18 24.0001C15.765 24.0001 14.2725 23.2676 13.3213 22.5001L11.9738 28.2288C11.9222 28.4483 11.7979 28.644 11.6211 28.784C11.4444 28.924 11.2255 29.0001 11 29.0001C10.9226 29 10.8454 28.9912 10.77 28.9738C10.6417 28.9444 10.5204 28.8899 10.4132 28.8134C10.306 28.737 10.2149 28.6401 10.1452 28.5284C10.0755 28.4167 10.0286 28.2923 10.0071 28.1623C9.98562 28.0324 9.99 27.8995 10.02 27.7713L14.02 10.7713C14.0807 10.5131 14.2414 10.2895 14.467 10.1498C14.6925 10.0101 14.9642 9.96566 15.2225 10.0263C15.4808 10.087 15.7043 10.2478 15.844 10.4733C15.9838 10.6988 16.0282 10.9706 15.9675 11.2288L13.855 20.2038C14.25 20.7501 15.4125 22.0001 18 22.0001C21.4413 22.0001 25 19.0076 25 14.0001C24.9995 12.6199 24.6815 11.2584 24.0707 10.0207C23.4599 8.78303 22.5727 7.70242 21.4776 6.86242C20.3825 6.02242 19.1088 5.44554 17.7552 5.17639C16.4015 4.90723 15.004 4.95301 13.6709 5.31018C12.3377 5.66736 11.1046 6.32636 10.0668 7.23623C9.02901 8.1461 8.21439 9.28246 7.68591 10.5574C7.15744 11.8324 6.92928 13.2119 7.01907 14.5891C7.10886 15.9664 7.5142 17.3045 8.20375 18.5001C8.32814 18.7291 8.35817 18.9977 8.28744 19.2486C8.21672 19.4995 8.05084 19.7128 7.82513 19.8432C7.59942 19.9736 7.33173 20.0107 7.07907 19.9466C6.82642 19.8825 6.60877 19.7223 6.4725 19.5001C5.62929 18.0388 5.13348 16.4032 5.02343 14.7198C4.91338 13.0363 5.19203 11.35 5.83783 9.79148C6.48362 8.2329 7.47927 6.84376 8.74775 5.73148C10.0162 4.6192 11.5236 3.81359 13.1531 3.37697C14.7827 2.94035 16.4909 2.88441 18.1456 3.21348C19.8003 3.54255 21.3571 4.24781 22.6956 5.27472C24.0341 6.30162 25.1185 7.62265 25.8649 9.13564C26.6113 10.6486 26.9997 12.313 27 14.0001Z" fill="currentColor"/>
<path d="M74.5 13.9999C74.5 16.6912 73.5625 19.1474 71.86 20.9174C70.2825 22.5587 68.1463 23.4999 66 23.4999C63.3313 23.4999 61.81 22.4049 61.03 21.5537L59.4863 28.1149C59.4604 28.2245 59.3983 28.3221 59.31 28.3919C59.2218 28.4618 59.1126 28.4998 59 28.4999C58.9613 28.4996 58.9227 28.495 58.885 28.4862C58.8208 28.4714 58.7602 28.4442 58.7066 28.406C58.653 28.3677 58.6074 28.3193 58.5726 28.2634C58.5378 28.2076 58.5143 28.1454 58.5036 28.0804C58.4928 28.0155 58.495 27.949 58.51 27.8849L62.51 10.8849C62.5444 10.7601 62.6258 10.6536 62.7372 10.5876C62.8485 10.5216 62.9811 10.5014 63.1071 10.5312C63.2331 10.561 63.3426 10.6385 63.4126 10.7473C63.4826 10.8562 63.5077 10.988 63.4825 11.1149L61.3225 20.2962C61.625 20.8024 62.875 22.4999 66 22.4999C69.6863 22.4999 73.5 19.3199 73.5 13.9999C73.4996 12.543 73.1641 11.1056 72.5194 9.79909C71.8748 8.49252 70.9383 7.35173 69.7823 6.46495C68.6263 5.57816 67.2818 4.96914 65.8529 4.68498C64.4239 4.40082 62.9487 4.44914 61.5414 4.82619C60.1341 5.20325 58.8324 5.89894 57.7369 6.85946C56.6414 7.81999 55.7815 9.01961 55.2238 10.3656C54.666 11.7115 54.4253 13.1677 54.5202 14.6216C54.6151 16.0754 55.0432 17.4879 55.7713 18.7499C55.8376 18.8648 55.8555 19.0013 55.8212 19.1294C55.7868 19.2575 55.703 19.3667 55.5881 19.4331C55.4733 19.4994 55.3367 19.5173 55.2086 19.483C55.0805 19.4486 54.9713 19.3648 54.905 19.2499C54.1003 17.8551 53.6272 16.2939 53.5223 14.687C53.4174 13.0801 53.6835 11.4707 54.3 9.98305C54.9165 8.49543 55.8669 7.16955 57.0777 6.10793C58.2884 5.0463 59.7272 4.27739 61.2826 3.86065C62.8381 3.44391 64.4685 3.39051 66.0479 3.70457C67.6273 4.01864 69.1132 4.69176 70.3909 5.67188C71.6686 6.65199 72.7037 7.91285 73.4162 9.35693C74.1287 10.801 74.4995 12.3896 74.5 13.9999Z" fill="currentColor"/>
<path d="M122.75 13.9999C122.75 16.7561 121.788 19.2736 120.04 21.0911C118.415 22.7811 116.214 23.7499 114 23.7499C111.573 23.7499 110.056 22.8661 109.171 22.0449L107.73 28.1699C107.692 28.3348 107.599 28.4818 107.466 28.5871C107.334 28.6924 107.169 28.7498 107 28.7499C106.942 28.7499 106.885 28.7432 106.829 28.7299C106.635 28.6844 106.468 28.5639 106.363 28.3949C106.258 28.2259 106.225 28.0222 106.27 27.8286L110.27 10.8286C110.291 10.7309 110.331 10.6383 110.388 10.5562C110.445 10.4742 110.517 10.4043 110.602 10.3507C110.686 10.2972 110.78 10.261 110.879 10.2443C110.977 10.2276 111.078 10.2308 111.175 10.2536C111.272 10.2764 111.364 10.3184 111.445 10.3772C111.526 10.4359 111.594 10.5102 111.646 10.5956C111.697 10.6811 111.731 10.776 111.746 10.8749C111.76 10.9737 111.755 11.0744 111.73 11.1711L109.594 20.2499C109.944 20.7911 111.151 22.2499 114 22.2499C117.564 22.2499 121.25 19.1636 121.25 13.9999C121.25 12.5813 120.923 11.1819 120.295 9.90977C119.667 8.63765 118.755 7.52696 117.63 6.66356C116.504 5.80017 115.195 5.20722 113.804 4.93056C112.413 4.6539 110.976 4.70095 109.606 5.06807C108.236 5.43518 106.968 6.11253 105.902 7.04772C104.835 7.98292 103.998 9.15091 103.455 10.4614C102.912 11.7718 102.677 13.1897 102.77 14.6052C102.862 16.0208 103.279 17.3961 103.988 18.6249C104.039 18.7102 104.073 18.805 104.087 18.9036C104.101 19.0022 104.096 19.1027 104.071 19.1992C104.046 19.2956 104.002 19.3862 103.942 19.4655C103.882 19.5449 103.806 19.6114 103.72 19.6612C103.634 19.711 103.538 19.7432 103.44 19.7557C103.341 19.7683 103.24 19.761 103.144 19.7344C103.048 19.7077 102.959 19.6622 102.88 19.6005C102.802 19.5388 102.737 19.4621 102.689 19.3749C101.865 17.9469 101.38 16.3484 101.273 14.7033C101.165 13.0581 101.438 11.4102 102.069 9.88714C102.7 8.36404 103.673 7.00653 104.913 5.91958C106.152 4.83263 107.625 4.04537 109.218 3.61869C110.81 3.19201 112.48 3.13734 114.097 3.4589C115.714 3.78047 117.235 4.46966 118.543 5.47317C119.851 6.47669 120.911 7.76763 121.641 9.24616C122.37 10.7247 122.75 12.3512 122.75 13.9999Z" fill="currentColor"/>
<path d="M171.5 14C171.5 16.95 170.464 19.6537 168.581 21.61C166.815 23.4462 164.416 24.5 162 24.5C160.069 24.5 158.653 23.9775 157.639 23.3362L156.46 28.3437C156.417 28.5372 156.335 28.7201 156.221 28.8819C156.106 29.0437 155.96 29.1812 155.792 29.2864C155.624 29.3916 155.437 29.4624 155.241 29.4948C155.046 29.5272 154.846 29.5205 154.653 29.475C154.46 29.4296 154.278 29.3463 154.117 29.2301C153.956 29.1138 153.82 28.9669 153.717 28.7978C153.613 28.6286 153.545 28.4407 153.514 28.2447C153.484 28.0488 153.493 27.8488 153.54 27.6562L157.54 10.6562C157.583 10.4628 157.665 10.2799 157.779 10.1181C157.894 9.95627 158.04 9.81879 158.208 9.71359C158.376 9.60839 158.563 9.53755 158.759 9.50518C158.954 9.4728 159.154 9.47953 159.347 9.52497C159.54 9.57041 159.722 9.65366 159.883 9.76991C160.044 9.88616 160.18 10.0331 160.283 10.2022C160.387 10.3714 160.455 10.5593 160.486 10.7553C160.516 10.9512 160.507 11.1512 160.46 11.3437L158.404 20.085C158.84 20.6075 159.895 21.5 162 21.5C165.195 21.5 168.5 18.6937 168.5 14C168.499 12.6966 168.199 11.4108 167.622 10.2421C167.045 9.07329 166.207 8.05286 165.173 7.25965C164.139 6.46644 162.936 5.9217 161.657 5.66755C160.379 5.4134 159.059 5.45664 157.8 5.79393C156.541 6.13122 155.377 6.75353 154.397 7.61275C153.417 8.47196 152.647 9.54506 152.148 10.7491C151.649 11.9531 151.433 13.2558 151.518 14.5564C151.603 15.8571 151.985 17.1208 152.636 18.25C152.82 18.5933 152.863 18.9946 152.756 19.3691C152.65 19.7436 152.401 20.0618 152.064 20.2566C151.727 20.4514 151.327 20.5075 150.95 20.4129C150.572 20.3184 150.246 20.0807 150.04 19.75C149.158 18.2224 148.64 16.5124 148.525 14.7523C148.409 12.9922 148.701 11.2292 149.376 9.59966C150.051 7.97013 151.092 6.51772 152.418 5.35478C153.744 4.19185 155.32 3.34955 157.024 2.89305C158.727 2.43655 160.513 2.37807 162.243 2.72214C163.973 3.06622 165.601 3.80362 167 4.87731C168.4 5.95101 169.533 7.33221 170.314 8.9141C171.094 10.496 171.5 12.2361 171.5 14Z" fill="currentColor"/>
<path d="M221 16.0876C220.953 23.1489 215.193 28.9289 208.133 28.9989C207.04 29.0104 205.951 28.8844 204.89 28.6239C204.826 28.6079 204.766 28.5796 204.713 28.5404C204.66 28.5012 204.616 28.452 204.582 28.3956C204.548 28.3392 204.526 28.2766 204.516 28.2115C204.507 28.1465 204.51 28.0801 204.526 28.0164L205.606 23.6976C206.66 24.2255 207.822 24.5003 209 24.5001C213.625 24.5001 217.338 20.3189 216.976 15.3301C216.878 14.0353 216.501 12.777 215.871 11.6416C215.241 10.5062 214.373 9.52063 213.325 8.75253C212.278 7.98444 211.078 7.45201 209.805 7.19179C208.533 6.93158 207.22 6.94975 205.955 7.24505C204.691 7.54035 203.505 8.10579 202.48 8.90255C201.454 9.69932 200.614 10.7085 200.015 11.8609C199.416 13.0133 199.074 14.2815 199.012 15.5786C198.95 16.8757 199.169 18.1708 199.655 19.3751C199.705 19.5008 199.781 19.6148 199.877 19.7105C199.973 19.8061 200.087 19.8812 200.213 19.9314C200.338 19.9815 200.473 20.0056 200.608 20.0021C200.744 19.9987 200.877 19.9678 201 19.9114C201.235 19.7976 201.417 19.5986 201.51 19.3549C201.603 19.1112 201.599 18.8412 201.5 18.6001C201.126 17.6628 200.96 16.6558 201.011 15.6481C201.063 14.6404 201.332 13.6558 201.8 12.7618C202.268 11.8677 202.923 11.0854 203.722 10.4684C204.52 9.85142 205.443 9.41433 206.426 9.1871C207.409 8.95987 208.43 8.94786 209.418 9.15192C210.406 9.35597 211.338 9.77126 212.151 10.3693C212.964 10.9674 213.638 11.7341 214.126 12.6168C214.615 13.4996 214.907 14.4776 214.983 15.4839C215.25 19.3001 212.466 22.5001 209 22.5001C207.981 22.4996 206.981 22.2213 206.108 21.6951L207.97 14.2426C208.029 13.9871 207.986 13.7186 207.849 13.4949C207.712 13.2712 207.493 13.1102 207.238 13.0466C206.984 12.983 206.715 13.0219 206.489 13.1549C206.263 13.2879 206.098 13.5043 206.03 13.7576L202.673 27.1889C202.654 27.262 202.62 27.3301 202.572 27.388C202.523 27.4459 202.463 27.4921 202.394 27.5233C202.325 27.5544 202.25 27.5696 202.175 27.5678C202.1 27.5659 202.026 27.5471 201.959 27.5126C199.838 26.3998 198.066 24.7228 196.838 22.6666C195.61 20.6104 194.974 18.2549 195 15.8601C195.075 8.81511 200.834 3.06512 207.875 3.00012C209.6 2.98349 211.311 3.31038 212.909 3.96173C214.506 4.61308 215.958 5.57587 217.18 6.79398C218.401 8.0121 219.368 9.46117 220.024 11.0568C220.68 12.6523 221.012 14.3625 221 16.0876Z" fill="currentColor"/>
<path opacity="0.2" d="M266 14C266 19.5225 262 23 258 23C254 23 252.796 20.3662 252.796 20.3662L255 11L256.642 4.02124C259.178 4.18449 261.556 5.30681 263.294 7.16023C265.032 9.01364 266 11.4591 266 14Z" fill="currentColor"/>
<path d="M267 14.0001C267 16.8213 266.013 19.4001 264.221 21.2638C262.549 23.0001 260.281 24.0001 258 24.0001C255.765 24.0001 254.273 23.2676 253.321 22.5001L251.974 28.2288C251.922 28.4483 251.798 28.644 251.621 28.784C251.444 28.924 251.225 29.0001 251 29.0001C250.923 29 250.845 28.9912 250.77 28.9738C250.642 28.9444 250.52 28.8899 250.413 28.8134C250.306 28.737 250.215 28.6401 250.145 28.5284C250.076 28.4167 250.029 28.2923 250.007 28.1623C249.986 28.0324 249.99 27.8995 250.02 27.7713L254.02 10.7713C254.081 10.5131 254.241 10.2895 254.467 10.1498C254.692 10.0101 254.964 9.96566 255.223 10.0263C255.481 10.087 255.704 10.2478 255.844 10.4733C255.984 10.6988 256.028 10.9706 255.968 11.2288L253.855 20.2038C254.25 20.7501 255.413 22.0001 258 22.0001C261.441 22.0001 265 19.0076 265 14.0001C264.999 12.6199 264.682 11.2584 264.071 10.0207C263.46 8.78303 262.573 7.70242 261.478 6.86242C260.382 6.02242 259.109 5.44554 257.755 5.17639C256.401 4.90723 255.004 4.95301 253.671 5.31018C252.338 5.66736 251.105 6.32636 250.067 7.23623C249.029 8.1461 248.214 9.28246 247.686 10.5574C247.157 11.8324 246.929 13.2119 247.019 14.5891C247.109 15.9664 247.514 17.3045 248.204 18.5001C248.328 18.7291 248.358 18.9977 248.287 19.2486C248.217 19.4995 248.051 19.7128 247.825 19.8432C247.599 19.9736 247.332 20.0107 247.079 19.9466C246.826 19.8825 246.609 19.7223 246.473 19.5001C245.629 18.0388 245.133 16.4032 245.023 14.7198C244.913 13.0363 245.192 11.35 245.838 9.79148C246.484 8.2329 247.479 6.84376 248.748 5.73148C250.016 4.6192 251.524 3.81359 253.153 3.37697C254.783 2.94035 256.491 2.88441 258.146 3.21348C259.8 3.54255 261.357 4.24781 262.696 5.27472C264.034 6.30162 265.119 7.62265 265.865 9.13564C266.611 10.6486 267 12.313 267 14.0001Z" fill="currentColor"/>
</g>
<defs>
<clipPath id="clip0_17_12751">
<rect width="272" height="32" rx="5" fill="white"/>
</clipPath>
</defs>
</svg>
