<svg width="272" height="32" viewBox="0 0 272 32" fill="none" xmlns="http://www.w3.org/2000/svg">
<g clip-path="url(#clip0_17_12723)">
<path d="M30.9999 13.0001C30.9998 12.2336 30.7793 11.4832 30.3649 10.8384C29.9505 10.1936 29.3595 9.68139 28.6623 9.36282C27.9652 9.04425 27.1911 8.93271 26.4324 9.04148C25.6736 9.15024 24.9621 9.47473 24.3824 9.97633C22.2887 8.86382 19.7874 8.19132 17.1749 8.03507L17.8237 4.13883L20.0387 4.47883C20.1511 5.17754 20.5068 5.81402 21.0431 6.27579C21.5794 6.73757 22.2616 6.99489 22.9693 7.00228C23.6769 7.00967 24.3644 6.76665 24.9102 6.31618C25.456 5.86571 25.825 5.23679 25.952 4.54058C26.0789 3.84437 25.9556 3.1257 25.604 2.51158C25.2523 1.89746 24.6948 1.42745 24.0301 1.1846C23.3654 0.941756 22.6362 0.941721 21.9715 1.1845C21.3067 1.42728 20.7492 1.89724 20.3974 2.51133L17.1474 2.01133C16.8874 1.97124 16.6221 2.03522 16.409 2.18941C16.1958 2.34361 16.052 2.57558 16.0087 2.83508L15.1499 8.02008C12.4199 8.13758 9.79744 8.81757 7.61744 9.97633C6.82132 9.30379 5.79416 8.96851 4.75457 9.04187C3.71499 9.11523 2.74508 9.59143 2.0513 10.3691C1.35751 11.1468 0.99464 12.1645 1.03991 13.2057C1.08518 14.2469 1.53503 15.2293 2.29369 15.9438C2.09926 16.612 2.00036 17.3042 1.99994 18.0001C1.99994 20.7413 3.49994 23.2938 6.23869 25.1863C8.85994 27.0001 12.3262 28.0001 15.9999 28.0001C19.6737 28.0001 23.1399 27.0001 25.7612 25.1863C28.4999 23.2938 29.9999 20.7413 29.9999 18.0001C29.9995 17.3042 29.9006 16.612 29.7062 15.9438C30.1128 15.5686 30.4376 15.1135 30.6602 14.6069C30.8828 14.1004 30.9985 13.5534 30.9999 13.0001ZM22.9999 3.00007C23.1977 3.00007 23.3911 3.05872 23.5555 3.16861C23.72 3.27849 23.8481 3.43467 23.9238 3.61739C23.9995 3.80012 24.0193 4.00118 23.9807 4.19517C23.9421 4.38915 23.8469 4.56733 23.7071 4.70718C23.5672 4.84703 23.389 4.94228 23.195 4.98086C23.0011 5.01945 22.8 4.99964 22.6173 4.92395C22.4345 4.84827 22.2784 4.72009 22.1685 4.55565C22.0586 4.3912 21.9999 4.19786 21.9999 4.00008C21.9999 3.73486 22.1053 3.4805 22.2928 3.29297C22.4804 3.10543 22.7347 3.00007 22.9999 3.00007ZM28.0162 14.7226C27.808 14.8459 27.6516 15.0405 27.576 15.2704C27.5004 15.5003 27.5107 15.7497 27.6049 15.9726C27.8647 16.617 27.9988 17.3052 27.9999 18.0001C27.9999 20.0663 26.8012 22.0338 24.6249 23.5413C22.3337 25.1251 19.2712 26.0001 15.9999 26.0001C12.7287 26.0001 9.66619 25.1251 7.37494 23.5413C5.19869 22.0338 3.99994 20.0663 3.99994 18.0001C4.00162 17.3076 4.13481 16.6216 4.39244 15.9788C4.48695 15.7563 4.49761 15.507 4.42246 15.2772C4.34731 15.0474 4.19143 14.8526 3.98369 14.7288C3.72932 14.5772 3.51181 14.3709 3.34685 14.125C3.1819 13.879 3.07362 13.5995 3.02985 13.3066C2.98607 13.0137 3.00789 12.7147 3.09372 12.4313C3.17956 12.1479 3.32727 11.887 3.52618 11.6676C3.7251 11.4482 3.97025 11.2757 4.24395 11.1626C4.51764 11.0495 4.81304 10.9986 5.10881 11.0135C5.40458 11.0285 5.69335 11.1089 5.95424 11.249C6.21514 11.3892 6.44166 11.5855 6.61744 11.8238C6.76253 12.0231 6.97612 12.1618 7.21721 12.2133C7.4583 12.2647 7.70989 12.2253 7.92369 12.1026L7.96869 12.0751C10.1812 10.7376 13.0312 10.0001 15.9999 10.0001C18.9662 10.0001 21.8162 10.7376 24.0287 12.0751L24.0812 12.1063C24.2947 12.2265 24.5449 12.2641 24.7843 12.2121C25.0237 12.16 25.2357 12.0218 25.3799 11.8238C25.5547 11.5835 25.7807 11.3851 26.0417 11.2431C26.3027 11.1011 26.5921 11.0191 26.8888 11.0029C27.1854 10.9867 27.482 11.0368 27.7569 11.1496C28.0318 11.2624 28.278 11.4351 28.4779 11.655C28.6777 11.8749 28.826 12.1366 28.912 12.421C28.998 12.7054 29.0195 13.0054 28.9751 13.2991C28.9306 13.5929 28.8213 13.8731 28.655 14.1193C28.4887 14.3655 28.2696 14.5716 28.0137 14.7226H28.0162ZM10.9999 18.0001C10.6044 18.0001 10.2177 17.8828 9.8888 17.663C9.55991 17.4433 9.30356 17.1309 9.15218 16.7654C9.00081 16.4 8.9612 15.9979 9.03837 15.6099C9.11554 15.2219 9.30603 14.8656 9.58573 14.5859C9.86544 14.3062 10.2218 14.1157 10.6098 14.0385C10.9977 13.9613 11.3999 14.0009 11.7653 14.1523C12.1308 14.3037 12.4431 14.56 12.6629 14.8889C12.8826 15.2178 12.9999 15.6045 12.9999 16.0001C12.9999 16.5305 12.7892 17.0392 12.4142 17.4143C12.0391 17.7894 11.5304 18.0001 10.9999 18.0001ZM22.9999 16.0001C22.9999 16.3956 22.8826 16.7823 22.6629 17.1112C22.4431 17.4401 22.1308 17.6965 21.7653 17.8478C21.3999 17.9992 20.9977 18.0388 20.6098 17.9616C20.2218 17.8845 19.8654 17.694 19.5857 17.4143C19.306 17.1346 19.1155 16.7782 19.0384 16.3903C18.9612 16.0023 19.0008 15.6002 19.1522 15.2347C19.3036 14.8693 19.5599 14.5569 19.8888 14.3371C20.2177 14.1174 20.6044 14.0001 20.9999 14.0001C21.5304 14.0001 22.0391 14.2108 22.4142 14.5859C22.7892 14.9609 22.9999 15.4696 22.9999 16.0001ZM20.8837 21.5313C20.9453 21.6474 20.9834 21.7744 20.9959 21.9052C21.0084 22.036 20.995 22.168 20.9565 22.2936C20.9179 22.4192 20.855 22.536 20.7713 22.6372C20.6876 22.7385 20.5848 22.8223 20.4687 22.8838C19.0927 23.6151 17.5582 23.9975 15.9999 23.9975C14.4417 23.9975 12.9072 23.6151 11.5312 22.8838C11.4151 22.8223 11.3123 22.7385 11.2287 22.6372C11.145 22.5359 11.0821 22.4191 11.0436 22.2935C11.005 22.1679 10.9916 22.036 11.0041 21.9052C11.0165 21.7744 11.0546 21.6474 11.1162 21.5313C11.1778 21.4153 11.2616 21.3125 11.3628 21.2288C11.4641 21.1451 11.5809 21.0822 11.7065 21.0437C11.8321 21.0052 11.964 20.9918 12.0948 21.0042C12.2256 21.0167 12.3526 21.0548 12.4687 21.1163C13.556 21.6944 14.7685 21.9967 15.9999 21.9967C17.2313 21.9967 18.4439 21.6944 19.5312 21.1163C19.6472 21.0547 19.7743 21.0166 19.9051 21.0041C20.0359 20.9916 20.1678 21.005 20.2934 21.0436C20.419 21.0821 20.5358 21.145 20.6371 21.2287C20.7384 21.3124 20.8222 21.4152 20.8837 21.5313Z" fill="currentColor"/>
<path d="M78.5 13.0001C78.4999 12.3003 78.2899 11.6166 77.8973 11.0372C77.5047 10.4579 76.9475 10.0096 76.2975 9.75012C75.6476 9.49067 74.9348 9.43203 74.2511 9.58176C73.5675 9.73149 72.9445 10.0827 72.4625 10.5901C70.225 9.32634 67.4625 8.59759 64.5875 8.50884L65.4112 3.56884L68.5 4.04509C68.5112 4.66451 68.7519 5.25771 69.1756 5.70971C69.5993 6.1617 70.1757 6.44029 70.7931 6.49146C71.4105 6.54263 72.0249 6.36275 72.5172 5.98667C73.0095 5.6106 73.3446 5.06513 73.4576 4.45601C73.5706 3.84689 73.4535 3.2175 73.1288 2.68987C72.8041 2.16224 72.2951 1.77394 71.7005 1.60026C71.1058 1.42658 70.4678 1.47988 69.9102 1.74983C69.3526 2.01978 68.9151 2.48715 68.6825 3.06134L65.0737 2.50634C64.9437 2.48611 64.811 2.51793 64.7043 2.59491C64.5976 2.6719 64.5255 2.78784 64.5037 2.91759L63.575 8.50634C60.64 8.57134 57.8175 9.30134 55.5375 10.5901C55.2061 10.2359 54.8046 9.95452 54.3587 9.76372C53.9127 9.57292 53.432 9.4769 52.947 9.48174C52.462 9.48659 51.9832 9.59219 51.5412 9.79186C51.0991 9.99153 50.7034 10.2809 50.3791 10.6416C50.0548 11.0023 49.8091 11.4265 49.6574 11.8872C49.5058 12.348 49.4515 12.8352 49.4981 13.318C49.5448 13.8008 49.6912 14.2686 49.9283 14.6918C50.1653 15.115 50.4877 15.4844 50.875 15.7763C50.6287 16.492 50.5021 17.2433 50.5 18.0001C50.5 20.5726 51.9287 22.9788 54.5225 24.7751C57.0612 26.5326 60.4275 27.5001 64 27.5001C67.5725 27.5001 70.9387 26.5326 73.4775 24.7751C76.0712 22.9788 77.5 20.5726 77.5 18.0001C77.4979 17.2433 77.3712 16.492 77.125 15.7763C77.5509 15.4493 77.8963 15.029 78.1346 14.5478C78.3729 14.0665 78.4979 13.5371 78.5 13.0001ZM71 2.50009C71.2967 2.50009 71.5867 2.58807 71.8333 2.75289C72.08 2.91771 72.2723 3.15198 72.3858 3.42607C72.4993 3.70016 72.529 4.00176 72.4712 4.29273C72.4133 4.5837 72.2704 4.85098 72.0606 5.06075C71.8509 5.27053 71.5836 5.41339 71.2926 5.47127C71.0017 5.52915 70.7001 5.49945 70.426 5.38591C70.1519 5.27238 69.9176 5.08012 69.7528 4.83345C69.588 4.58678 69.5 4.29677 69.5 4.00009C69.5 3.60227 69.658 3.22074 69.9393 2.93943C70.2206 2.65813 70.6022 2.50009 71 2.50009ZM76.0662 15.7813C76.351 16.4865 76.4983 17.2396 76.5 18.0001C76.5 22.6876 70.8925 26.5001 64 26.5001C57.1075 26.5001 51.5 22.6876 51.5 18.0001C51.5015 17.241 51.6478 16.4893 51.9312 15.7851C51.9787 15.674 51.9843 15.5496 51.947 15.4347C51.9098 15.3198 51.8323 15.2223 51.7287 15.1601C51.4097 14.9709 51.1367 14.7131 50.9295 14.4054C50.7224 14.0976 50.5864 13.7477 50.5313 13.3808C50.4762 13.014 50.5035 12.6395 50.6111 12.2845C50.7186 11.9295 50.9039 11.6029 51.1533 11.3284C51.4028 11.0538 51.7102 10.8382 52.0533 10.6972C52.3964 10.5562 52.7666 10.4933 53.137 10.5131C53.5074 10.5329 53.8688 10.6349 54.1949 10.8117C54.521 10.9884 54.8037 11.2355 55.0225 11.5351C55.0946 11.6339 55.2005 11.7029 55.32 11.7289C55.4396 11.755 55.5646 11.7363 55.6712 11.6763L55.7025 11.6563C58 10.2638 60.9387 9.50009 64 9.50009C67.06 9.50009 70 10.2638 72.2962 11.6513L72.3275 11.6713C72.4342 11.7313 72.5591 11.75 72.6787 11.7239C72.7983 11.6979 72.9041 11.6289 72.9762 11.5301C73.195 11.2305 73.4777 10.9834 73.8038 10.8067C74.13 10.6299 74.4913 10.5279 74.8617 10.5081C75.2322 10.4883 75.6023 10.5512 75.9454 10.6922C76.2885 10.8332 76.596 11.0488 76.8454 11.3234C77.0949 11.5979 77.2801 11.9245 77.3877 12.2795C77.4953 12.6345 77.5225 13.009 77.4674 13.3758C77.4123 13.7427 77.2763 14.0926 77.0692 14.4004C76.8621 14.7081 76.5891 14.9659 76.27 15.1551C76.1659 15.2171 76.0879 15.3148 76.0504 15.4299C76.013 15.5451 76.0186 15.67 76.0662 15.7813ZM68.4412 21.7663C68.5031 21.8833 68.5162 22.0199 68.4775 22.1464C68.4389 22.273 68.3517 22.379 68.235 22.4413C66.9309 23.1341 65.4767 23.4964 64 23.4964C62.5233 23.4964 61.0691 23.1341 59.765 22.4413C59.6503 22.3777 59.5652 22.2716 59.5281 22.1459C59.4909 22.0201 59.5046 21.8848 59.5662 21.7691C59.6279 21.6534 59.7325 21.5665 59.8576 21.5271C59.9827 21.4878 60.1182 21.4992 60.235 21.5588C61.3945 22.1745 62.6872 22.4964 64 22.4964C65.3128 22.4964 66.6055 22.1745 67.765 21.5588C67.823 21.528 67.8865 21.509 67.9519 21.5027C68.0173 21.4965 68.0833 21.5032 68.1461 21.5225C68.2089 21.5417 68.2673 21.5732 68.3179 21.615C68.3686 21.6569 68.4105 21.7083 68.4412 21.7663ZM59 17.5001C58.7033 17.5001 58.4133 17.4121 58.1666 17.2473C57.92 17.0825 57.7277 16.8482 57.6142 16.5741C57.5006 16.3 57.4709 15.9984 57.5288 15.7075C57.5867 15.4165 57.7295 15.1492 57.9393 14.9394C58.1491 14.7297 58.4164 14.5868 58.7074 14.5289C58.9983 14.471 59.2999 14.5007 59.574 14.6143C59.8481 14.7278 60.0824 14.9201 60.2472 15.1667C60.412 15.4134 60.5 15.7034 60.5 16.0001C60.5 16.3979 60.342 16.7794 60.0606 17.0608C59.7793 17.3421 59.3978 17.5001 59 17.5001ZM70.5 16.0001C70.5 16.2968 70.412 16.5868 70.2472 16.8334C70.0824 17.0801 69.8481 17.2724 69.574 17.3859C69.2999 17.4994 68.9983 17.5292 68.7074 17.4713C68.4164 17.4134 68.1491 17.2705 67.9393 17.0608C67.7296 16.851 67.5867 16.5837 67.5288 16.2927C67.4709 16.0018 67.5006 15.7002 67.6142 15.4261C67.7277 15.152 67.92 14.9177 68.1666 14.7529C68.4133 14.5881 68.7033 14.5001 69 14.5001C69.3978 14.5001 69.7793 14.6581 70.0606 14.9394C70.342 15.2207 70.5 15.6023 70.5 16.0001Z" fill="currentColor"/>
<path d="M126.75 13C126.75 12.2669 126.535 11.5501 126.131 10.938C125.728 10.3259 125.154 9.84542 124.48 9.55602C123.807 9.26662 123.063 9.18095 122.342 9.30962C121.62 9.43829 120.952 9.77565 120.42 10.28C118.25 9.09374 115.625 8.39624 112.881 8.27249L113.617 3.85374L116.262 4.26124C116.325 4.92198 116.625 5.53773 117.106 5.99489C117.587 6.45204 118.217 6.71975 118.881 6.74862C119.544 6.77749 120.195 6.56557 120.714 6.15197C121.233 5.73836 121.585 5.15098 121.705 4.49819C121.825 3.84541 121.705 3.17127 121.366 2.60015C121.028 2.02904 120.495 1.59949 119.865 1.39075C119.235 1.18202 118.551 1.20819 117.938 1.46444C117.326 1.72068 116.827 2.18971 116.534 2.78499L113.114 2.25874C112.919 2.22873 112.72 2.27655 112.561 2.39186C112.401 2.50717 112.293 2.68072 112.26 2.87499L111.362 8.26124C108.532 8.35374 105.811 9.05874 103.58 10.28C103.217 9.92879 102.788 9.65441 102.316 9.47329C101.845 9.29218 101.342 9.20804 100.838 9.22594C100.334 9.24384 99.8379 9.3634 99.3807 9.57746C98.9236 9.79152 98.5143 10.0957 98.1776 10.4717C97.8408 10.8477 97.5834 11.2878 97.4208 11.7657C97.2582 12.2436 97.1938 12.7494 97.2314 13.2527C97.2689 13.7561 97.4077 14.2467 97.6395 14.6952C97.8712 15.1436 98.1911 15.5406 98.58 15.8625C98.362 16.5541 98.2507 17.2749 98.25 18C98.25 20.6575 99.7175 23.1362 102.381 24.98C104.96 26.7662 108.375 27.75 112 27.75C115.625 27.75 119.04 26.7662 121.619 24.98C124.282 23.1362 125.75 20.6575 125.75 18C125.75 17.2749 125.639 16.5541 125.421 15.8625C125.836 15.5097 126.17 15.0711 126.4 14.577C126.629 14.0828 126.748 13.5448 126.75 13ZM119 2.74999C119.247 2.74999 119.489 2.8233 119.694 2.96065C119.9 3.098 120.06 3.29323 120.155 3.52163C120.249 3.75004 120.274 4.00137 120.226 4.24385C120.178 4.48633 120.059 4.70906 119.884 4.88387C119.709 5.05869 119.486 5.17774 119.244 5.22597C119.001 5.2742 118.75 5.24945 118.522 5.15484C118.293 5.06023 118.098 4.90001 117.961 4.69445C117.823 4.48889 117.75 4.24721 117.75 3.99999C117.75 3.66847 117.882 3.35052 118.116 3.1161C118.351 2.88168 118.668 2.74999 119 2.74999ZM124.144 14.9387C123.987 15.0314 123.87 15.1777 123.814 15.3503C123.757 15.523 123.765 15.7103 123.836 15.8775C124.108 16.5521 124.249 17.2726 124.25 18C124.25 22.5487 118.75 26.25 112 26.25C105.25 26.25 99.75 22.5487 99.75 18C99.7515 17.2743 99.8915 16.5557 100.162 15.8825C100.235 15.7149 100.244 15.5265 100.188 15.3527C100.131 15.179 100.013 15.0318 99.8562 14.9387C99.5689 14.7686 99.323 14.5367 99.1364 14.2597C98.9499 13.9827 98.8273 13.6677 98.7776 13.3375C98.7279 13.0073 98.7523 12.6702 98.8491 12.3505C98.9458 12.0309 99.1125 11.7369 99.3371 11.4897C99.5616 11.2425 99.8384 11.0484 100.147 10.9215C100.456 10.7946 100.789 10.738 101.123 10.7558C101.456 10.7737 101.782 10.8656 102.075 11.0248C102.369 11.184 102.623 11.4065 102.82 11.6762C102.928 11.8248 103.087 11.9285 103.266 11.9676C103.446 12.0068 103.634 11.9787 103.794 11.8887C103.808 11.8811 103.823 11.8728 103.836 11.8637C106.087 10.5 108.986 9.74999 112 9.74999C115.012 9.74999 117.91 10.5 120.161 11.8625L120.181 11.8762C120.342 11.9751 120.535 12.0094 120.72 11.9724C120.906 11.9353 121.07 11.8295 121.181 11.6762C121.378 11.4065 121.633 11.184 121.926 11.0248C122.22 10.8656 122.545 10.7737 122.878 10.7558C123.212 10.738 123.545 10.7946 123.854 10.9215C124.163 11.0484 124.44 11.2425 124.664 11.4897C124.889 11.7369 125.055 12.0309 125.152 12.3505C125.249 12.6702 125.273 13.0073 125.224 13.3375C125.174 13.6677 125.051 13.9827 124.865 14.2597C124.678 14.5367 124.432 14.7686 124.145 14.9387H124.144ZM116.662 21.6487C116.756 21.8245 116.775 22.03 116.717 22.2201C116.658 22.4102 116.527 22.5693 116.351 22.6625C115.011 23.3741 113.517 23.7462 112 23.7462C110.483 23.7462 108.989 23.3741 107.649 22.6625C107.477 22.5671 107.35 22.4082 107.294 22.22C107.238 22.0317 107.258 21.8291 107.35 21.6556C107.442 21.4821 107.599 21.3516 107.786 21.2921C107.973 21.2326 108.176 21.2489 108.351 21.3375C109.475 21.9346 110.728 22.2468 112 22.2468C113.272 22.2468 114.525 21.9346 115.649 21.3375C115.824 21.2444 116.03 21.2248 116.22 21.2832C116.41 21.3416 116.569 21.4731 116.662 21.6487ZM107 17.75C106.654 17.75 106.316 17.6474 106.028 17.4551C105.74 17.2628 105.516 16.9895 105.383 16.6697C105.251 16.3499 105.216 15.998 105.284 15.6586C105.351 15.3191 105.518 15.0073 105.763 14.7626C106.007 14.5178 106.319 14.3511 106.659 14.2836C106.998 14.2161 107.35 14.2507 107.67 14.3832C107.989 14.5157 108.263 14.74 108.455 15.0277C108.647 15.3155 108.75 15.6539 108.75 16C108.75 16.4641 108.566 16.9092 108.237 17.2374C107.909 17.5656 107.464 17.75 107 17.75ZM118.75 16C118.75 16.3461 118.647 16.6845 118.455 16.9722C118.263 17.26 117.989 17.4843 117.67 17.6168C117.35 17.7492 116.998 17.7839 116.659 17.7164C116.319 17.6488 116.007 17.4822 115.763 17.2374C115.518 16.9927 115.351 16.6809 115.284 16.3414C115.216 16.0019 115.251 15.6501 115.383 15.3303C115.516 15.0105 115.74 14.7372 116.028 14.5449C116.316 14.3526 116.654 14.25 117 14.25C117.464 14.25 117.909 14.4344 118.237 14.7626C118.566 15.0907 118.75 15.5359 118.75 16Z" fill="currentColor"/>
<path d="M175.5 12.9999C175.5 12.1671 175.268 11.3507 174.831 10.6416C174.394 9.93259 173.769 9.3587 173.025 8.98385C172.282 8.609 171.449 8.44791 170.619 8.5185C169.789 8.5891 168.995 8.88861 168.325 9.3837C166.269 8.37357 164.041 7.76075 161.758 7.57745L162.233 4.7262L164.191 5.05245C164.423 5.67095 164.852 6.19578 165.412 6.54552C165.972 6.89526 166.632 7.05038 167.29 6.9868C167.947 6.92323 168.565 6.64452 169.048 6.1939C169.531 5.74329 169.851 5.14595 169.96 4.49454C170.069 3.84313 169.959 3.17405 169.649 2.59108C169.339 2.00811 168.845 1.54383 168.244 1.27025C167.643 0.996668 166.968 0.929079 166.325 1.07796C165.681 1.22685 165.105 1.58388 164.685 2.0937L161.25 1.51995C161.056 1.48698 160.857 1.49266 160.665 1.53665C160.472 1.58064 160.291 1.66209 160.13 1.77632C159.969 1.89056 159.833 2.03535 159.728 2.20241C159.624 2.36948 159.553 2.55553 159.52 2.74995L158.723 7.5387C156.185 7.70245 153.75 8.33745 151.675 9.3837C150.77 8.72117 149.651 8.42037 148.536 8.54023C147.421 8.66009 146.391 9.19198 145.647 10.0317C144.904 10.8714 144.501 11.9584 144.517 13.0797C144.533 14.2011 144.968 15.2759 145.735 16.0937C145.579 16.7171 145.5 17.3573 145.5 17.9999C145.5 20.9112 147.081 23.6087 149.954 25.5974C152.658 27.4687 156.225 28.4999 160 28.4999C163.775 28.4999 167.343 27.4687 170.046 25.5974C172.919 23.6087 174.5 20.9112 174.5 17.9999C174.5 17.3573 174.421 16.7171 174.265 16.0937C175.056 15.2573 175.497 14.1508 175.5 12.9999ZM171.761 14.2924C171.448 14.4762 171.211 14.7676 171.096 15.1125C170.981 15.4573 170.996 15.8322 171.136 16.1674C171.373 16.7497 171.496 17.3716 171.5 17.9999C171.5 19.8974 170.375 21.7187 168.339 23.1312C166.131 24.6587 163.17 25.4999 160 25.4999C156.83 25.4999 153.875 24.6587 151.661 23.1312C149.625 21.7187 148.5 19.8974 148.5 17.9999C148.502 17.373 148.622 16.7521 148.855 16.1699C148.997 15.8357 149.012 15.4616 148.899 15.1168C148.785 14.772 148.551 14.48 148.239 14.2949C148.046 14.1822 147.88 14.0278 147.755 13.843C147.629 13.6582 147.546 13.4476 147.513 13.2267C147.479 13.0057 147.495 12.78 147.559 12.5661C147.624 12.3521 147.736 12.1553 147.886 11.99C148.036 11.8247 148.222 11.6951 148.429 11.6107C148.636 11.5263 148.859 11.4892 149.082 11.5022C149.305 11.5151 149.523 11.5777 149.718 11.6855C149.914 11.7932 150.084 11.9434 150.214 12.1249C150.436 12.4291 150.763 12.6388 151.133 12.7124C151.502 12.786 151.885 12.7182 152.206 12.5224L152.234 12.5062C154.368 11.2099 157.125 10.4999 160 10.4999C162.875 10.4999 165.625 11.2112 167.761 12.4999L167.789 12.5162C168.11 12.7141 168.494 12.7837 168.864 12.7112C169.234 12.6387 169.564 12.4294 169.786 12.1249C169.924 11.9313 170.106 11.7734 170.317 11.6647C170.528 11.5559 170.763 11.4994 171 11.4999C171.329 11.4999 171.649 11.6082 171.911 11.8079C172.172 12.0077 172.361 12.2879 172.447 12.6054C172.534 12.9229 172.514 13.2601 172.39 13.565C172.266 13.8698 172.045 14.1254 171.761 14.2924ZM155 18.4999C154.506 18.4999 154.022 18.3533 153.611 18.0786C153.2 17.8039 152.88 17.4135 152.69 16.9567C152.501 16.4998 152.452 15.9972 152.548 15.5122C152.645 15.0273 152.883 14.5818 153.232 14.2322C153.582 13.8825 154.027 13.6444 154.512 13.548C154.997 13.4515 155.5 13.501 155.957 13.6902C156.414 13.8795 156.804 14.1999 157.079 14.611C157.353 15.0221 157.5 15.5055 157.5 15.9999C157.5 16.663 157.237 17.2989 156.768 17.7677C156.299 18.2366 155.663 18.4999 155 18.4999ZM167.5 15.9999C167.5 16.4944 167.353 16.9777 167.079 17.3889C166.804 17.8 166.414 18.1204 165.957 18.3096C165.5 18.4989 164.997 18.5484 164.512 18.4519C164.027 18.3554 163.582 18.1173 163.232 17.7677C162.883 17.4181 162.645 16.9726 162.548 16.4877C162.452 16.0027 162.501 15.5001 162.69 15.0432C162.88 14.5864 163.2 14.196 163.611 13.9213C164.022 13.6466 164.506 13.4999 165 13.4999C165.663 13.4999 166.299 13.7633 166.768 14.2322C167.237 14.701 167.5 15.3369 167.5 15.9999ZM164.935 21.0649C164.993 21.2537 165.013 21.452 164.994 21.6485C164.975 21.845 164.917 22.0359 164.824 22.2101C164.731 22.3843 164.605 22.5384 164.452 22.6636C164.3 22.7889 164.124 22.8828 163.935 22.9399C161.364 23.6943 158.631 23.6943 156.06 22.9399C155.679 22.8239 155.359 22.5612 155.172 22.2096C154.984 21.8579 154.944 21.4462 155.06 21.0649C155.176 20.6837 155.439 20.3642 155.79 20.1766C156.142 19.9891 156.554 19.9489 156.935 20.0649C158.936 20.644 161.059 20.644 163.06 20.0649C163.249 20.0071 163.447 19.9872 163.644 20.0062C163.84 20.0252 164.031 20.0828 164.205 20.1757C164.379 20.2686 164.534 20.3949 164.659 20.5476C164.784 20.7002 164.878 20.876 164.935 21.0649Z" fill="currentColor"/>
<path d="M223 13.0001C223 12.2336 222.779 11.4832 222.365 10.8384C221.951 10.1936 221.36 9.68139 220.662 9.36282C219.965 9.04425 219.191 8.93271 218.432 9.04148C217.674 9.15024 216.962 9.47473 216.382 9.97633C214.289 8.86382 211.787 8.19132 209.175 8.03507L209.824 4.13883L212.039 4.47883C212.151 5.17754 212.507 5.81402 213.043 6.27579C213.579 6.73757 214.262 6.99489 214.969 7.00228C215.677 7.00967 216.364 6.76665 216.91 6.31618C217.456 5.86571 217.825 5.23679 217.952 4.54058C218.079 3.84437 217.956 3.1257 217.604 2.51158C217.252 1.89746 216.695 1.42745 216.03 1.1846C215.365 0.941756 214.636 0.941721 213.971 1.1845C213.307 1.42728 212.749 1.89724 212.397 2.51133L209.147 2.01133C208.887 1.97124 208.622 2.03522 208.409 2.18941C208.196 2.34361 208.052 2.57558 208.009 2.83508L207.15 8.02008C204.42 8.13758 201.797 8.81757 199.617 9.97633C198.821 9.30379 197.794 8.96851 196.755 9.04187C195.715 9.11523 194.745 9.59143 194.051 10.3691C193.358 11.1468 192.995 12.1645 193.04 13.2057C193.085 14.2469 193.535 15.2293 194.294 15.9438C194.099 16.612 194 17.3042 194 18.0001C194 20.7413 195.5 23.2938 198.239 25.1863C200.86 27.0001 204.326 28.0001 208 28.0001C211.674 28.0001 215.14 27.0001 217.761 25.1863C220.5 23.2938 222 20.7413 222 18.0001C222 17.3042 221.901 16.612 221.706 15.9438C222.113 15.5686 222.438 15.1135 222.66 14.6069C222.883 14.1004 222.998 13.5534 223 13.0001ZM215 3.00007C215.198 3.00007 215.391 3.05872 215.556 3.16861C215.72 3.27849 215.848 3.43467 215.924 3.61739C216 3.80012 216.019 4.00118 215.981 4.19517C215.942 4.38915 215.847 4.56733 215.707 4.70718C215.567 4.84703 215.389 4.94228 215.195 4.98086C215.001 5.01945 214.8 4.99964 214.617 4.92395C214.435 4.84827 214.278 4.72009 214.168 4.55565C214.059 4.3912 214 4.19786 214 4.00008C214 3.73486 214.105 3.4805 214.293 3.29297C214.48 3.10543 214.735 3.00007 215 3.00007ZM201 16.0001C201 15.6045 201.117 15.2178 201.337 14.8889C201.557 14.56 201.869 14.3037 202.235 14.1523C202.6 14.0009 203.002 13.9613 203.39 14.0385C203.778 14.1157 204.134 14.3062 204.414 14.5859C204.694 14.8656 204.884 15.2219 204.962 15.6099C205.039 15.9979 204.999 16.4 204.848 16.7654C204.696 17.1309 204.44 17.4433 204.111 17.663C203.782 17.8828 203.396 18.0001 203 18.0001C202.47 18.0001 201.961 17.7894 201.586 17.4143C201.211 17.0392 201 16.5305 201 16.0001ZM212.469 22.8838C211.093 23.6151 209.558 23.9975 208 23.9975C206.442 23.9975 204.907 23.6151 203.531 22.8838C203.415 22.8223 203.312 22.7385 203.229 22.6372C203.145 22.5359 203.082 22.4191 203.044 22.2935C203.005 22.1679 202.992 22.036 203.004 21.9052C203.017 21.7744 203.055 21.6474 203.116 21.5313C203.178 21.4153 203.262 21.3125 203.363 21.2288C203.464 21.1451 203.581 21.0822 203.706 21.0437C203.832 21.0052 203.964 20.9918 204.095 21.0042C204.226 21.0167 204.353 21.0548 204.469 21.1163C205.556 21.6944 206.769 21.9967 208 21.9967C209.231 21.9967 210.444 21.6944 211.531 21.1163C211.647 21.0548 211.774 21.0167 211.905 21.0042C212.036 20.9918 212.168 21.0052 212.293 21.0437C212.419 21.0822 212.536 21.1451 212.637 21.2288C212.738 21.3125 212.822 21.4153 212.884 21.5313C212.945 21.6474 212.983 21.7744 212.996 21.9052C213.008 22.036 212.995 22.1679 212.956 22.2935C212.918 22.4191 212.855 22.5359 212.771 22.6372C212.688 22.7385 212.585 22.8223 212.469 22.8838ZM213 18.0001C212.604 18.0001 212.218 17.8828 211.889 17.663C211.56 17.4433 211.304 17.1309 211.152 16.7654C211.001 16.4 210.961 15.9979 211.038 15.6099C211.116 15.2219 211.306 14.8656 211.586 14.5859C211.865 14.3062 212.222 14.1157 212.61 14.0385C212.998 13.9613 213.4 14.0009 213.765 14.1523C214.131 14.3037 214.443 14.56 214.663 14.8889C214.883 15.2178 215 15.6045 215 16.0001C215 16.5305 214.789 17.0392 214.414 17.4143C214.039 17.7894 213.53 18.0001 213 18.0001Z" fill="currentColor"/>
<path opacity="0.2" d="M268.526 15.5837C268.838 16.3513 268.999 17.1716 269 18C269 22.97 263.18 27 256 27C248.82 27 243 22.97 243 18C243.001 17.1716 243.162 16.3513 243.474 15.5837C243.091 15.3569 242.763 15.0476 242.514 14.6782C242.265 14.3089 242.102 13.8888 242.035 13.4484C241.969 13.008 242.002 12.5584 242.131 12.1323C242.26 11.7061 242.482 11.314 242.782 10.9844C243.081 10.6549 243.451 10.3961 243.863 10.227C244.274 10.0579 244.719 9.98254 245.164 10.0065C245.608 10.0305 246.042 10.1532 246.433 10.3657C246.825 10.5782 247.164 10.8751 247.426 11.235C249.715 9.84375 252.715 9 256 9C259.285 9 262.285 9.84375 264.574 11.235C264.836 10.8751 265.175 10.5782 265.567 10.3657C265.958 10.1532 266.392 10.0305 266.836 10.0065C267.281 9.98254 267.725 10.0579 268.137 10.227C268.549 10.3961 268.919 10.6549 269.218 10.9844C269.518 11.314 269.74 11.7061 269.869 12.1323C269.998 12.5584 270.031 13.008 269.965 13.4484C269.898 13.8888 269.735 14.3089 269.486 14.6782C269.237 15.0476 268.909 15.3569 268.526 15.5837Z" fill="currentColor"/>
<path d="M271 13.0001C271 12.2336 270.779 11.4832 270.365 10.8384C269.951 10.1936 269.36 9.68139 268.662 9.36282C267.965 9.04425 267.191 8.93271 266.432 9.04148C265.674 9.15024 264.962 9.47473 264.382 9.97633C262.289 8.86382 259.787 8.19132 257.175 8.03507L257.824 4.13883L260.039 4.47883C260.151 5.17754 260.507 5.81402 261.043 6.27579C261.579 6.73757 262.262 6.99489 262.969 7.00228C263.677 7.00967 264.364 6.76665 264.91 6.31618C265.456 5.86571 265.825 5.23679 265.952 4.54058C266.079 3.84437 265.956 3.1257 265.604 2.51158C265.252 1.89746 264.695 1.42745 264.03 1.1846C263.365 0.941756 262.636 0.941721 261.971 1.1845C261.307 1.42728 260.749 1.89724 260.397 2.51133L257.147 2.01133C256.887 1.97124 256.622 2.03522 256.409 2.18941C256.196 2.34361 256.052 2.57558 256.009 2.83508L255.15 8.02008C252.42 8.13758 249.797 8.81757 247.617 9.97633C246.821 9.30379 245.794 8.96851 244.755 9.04187C243.715 9.11523 242.745 9.59143 242.051 10.3691C241.358 11.1468 240.995 12.1645 241.04 13.2057C241.085 14.2469 241.535 15.2293 242.294 15.9438C242.099 16.612 242 17.3042 242 18.0001C242 20.7413 243.5 23.2938 246.239 25.1863C248.86 27.0001 252.326 28.0001 256 28.0001C259.674 28.0001 263.14 27.0001 265.761 25.1863C268.5 23.2938 270 20.7413 270 18.0001C270 17.3042 269.901 16.612 269.706 15.9438C270.113 15.5686 270.438 15.1135 270.66 14.6069C270.883 14.1004 270.998 13.5534 271 13.0001ZM263 3.00007C263.198 3.00007 263.391 3.05872 263.556 3.16861C263.72 3.27849 263.848 3.43467 263.924 3.61739C264 3.80012 264.019 4.00118 263.981 4.19517C263.942 4.38915 263.847 4.56733 263.707 4.70718C263.567 4.84703 263.389 4.94228 263.195 4.98086C263.001 5.01945 262.8 4.99964 262.617 4.92395C262.435 4.84827 262.278 4.72009 262.168 4.55565C262.059 4.3912 262 4.19786 262 4.00008C262 3.73486 262.105 3.4805 262.293 3.29297C262.48 3.10543 262.735 3.00007 263 3.00007ZM268.016 14.7226C267.808 14.8459 267.652 15.0405 267.576 15.2704C267.5 15.5003 267.511 15.7497 267.605 15.9726C267.865 16.6171 267.999 17.3052 268 18.0001C268 20.0663 266.801 22.0338 264.625 23.5413C262.334 25.1251 259.271 26.0001 256 26.0001C252.729 26.0001 249.666 25.1251 247.375 23.5413C245.199 22.0338 244 20.0663 244 18.0001C244.002 17.3076 244.135 16.6216 244.392 15.9788C244.487 15.7563 244.498 15.507 244.422 15.2772C244.347 15.0474 244.191 14.8526 243.984 14.7288C243.729 14.5772 243.512 14.3709 243.347 14.125C243.182 13.879 243.074 13.5995 243.03 13.3066C242.986 13.0137 243.008 12.7147 243.094 12.4313C243.18 12.1479 243.327 11.887 243.526 11.6676C243.725 11.4482 243.97 11.2757 244.244 11.1626C244.518 11.0495 244.813 10.9986 245.109 11.0135C245.405 11.0285 245.693 11.1089 245.954 11.249C246.215 11.3892 246.442 11.5855 246.617 11.8238C246.765 12.0267 246.984 12.1666 247.23 12.2157C247.476 12.2647 247.732 12.2195 247.946 12.0888L247.969 12.0751C250.181 10.7376 253.031 10.0001 256 10.0001C258.966 10.0001 261.816 10.7376 264.029 12.0751L264.051 12.0888C264.266 12.2195 264.521 12.2647 264.767 12.2157C265.013 12.1666 265.232 12.0267 265.38 11.8238C265.555 11.5835 265.781 11.3851 266.042 11.2431C266.303 11.1011 266.592 11.0191 266.889 11.0029C267.185 10.9867 267.482 11.0368 267.757 11.1496C268.032 11.2624 268.278 11.4351 268.478 11.655C268.678 11.8749 268.826 12.1366 268.912 12.421C268.998 12.7054 269.02 13.0054 268.975 13.2991C268.931 13.5929 268.821 13.8731 268.655 14.1193C268.489 14.3655 268.27 14.5716 268.014 14.7226H268.016ZM251 18.0001C250.604 18.0001 250.218 17.8828 249.889 17.663C249.56 17.4433 249.304 17.1309 249.152 16.7654C249.001 16.4 248.961 15.9979 249.038 15.6099C249.116 15.2219 249.306 14.8656 249.586 14.5859C249.865 14.3062 250.222 14.1157 250.61 14.0385C250.998 13.9613 251.4 14.0009 251.765 14.1523C252.131 14.3037 252.443 14.56 252.663 14.8889C252.883 15.2178 253 15.6045 253 16.0001C253 16.5305 252.789 17.0392 252.414 17.4143C252.039 17.7894 251.53 18.0001 251 18.0001ZM263 16.0001C263 16.3956 262.883 16.7823 262.663 17.1112C262.443 17.4401 262.131 17.6965 261.765 17.8478C261.4 17.9992 260.998 18.0388 260.61 17.9616C260.222 17.8845 259.865 17.694 259.586 17.4143C259.306 17.1346 259.116 16.7782 259.038 16.3903C258.961 16.0023 259.001 15.6002 259.152 15.2347C259.304 14.8693 259.56 14.5569 259.889 14.3371C260.218 14.1174 260.604 14.0001 261 14.0001C261.53 14.0001 262.039 14.2108 262.414 14.5859C262.789 14.9609 263 15.4696 263 16.0001ZM260.884 21.5313C260.945 21.6474 260.983 21.7744 260.996 21.9052C261.008 22.036 260.995 22.168 260.956 22.2936C260.918 22.4192 260.855 22.536 260.771 22.6372C260.688 22.7385 260.585 22.8223 260.469 22.8838C259.093 23.6151 257.558 23.9975 256 23.9975C254.442 23.9975 252.907 23.6151 251.531 22.8838C251.415 22.8223 251.312 22.7385 251.229 22.6372C251.145 22.5359 251.082 22.4191 251.044 22.2935C251.005 22.1679 250.992 22.036 251.004 21.9052C251.017 21.7744 251.055 21.6474 251.116 21.5313C251.178 21.4153 251.262 21.3125 251.363 21.2288C251.464 21.1451 251.581 21.0822 251.706 21.0437C251.832 21.0052 251.964 20.9918 252.095 21.0042C252.226 21.0167 252.353 21.0548 252.469 21.1163C253.556 21.6944 254.769 21.9967 256 21.9967C257.231 21.9967 258.444 21.6944 259.531 21.1163C259.647 21.0547 259.774 21.0166 259.905 21.0041C260.036 20.9916 260.168 21.005 260.293 21.0436C260.419 21.0821 260.536 21.145 260.637 21.2287C260.738 21.3124 260.822 21.4152 260.884 21.5313Z" fill="currentColor"/>
</g>
<defs>
<clipPath id="clip0_17_12723">
<rect width="272" height="32" rx="5" fill="white"/>
</clipPath>
</defs>
</svg>
