<svg width="272" height="32" viewBox="0 0 272 32" fill="none" xmlns="http://www.w3.org/2000/svg">
<g clip-path="url(#clip0_17_12709)">
<path d="M30.7499 12.3413L23.7499 4.34125C23.6563 4.23435 23.541 4.14863 23.4117 4.08979C23.2824 4.03094 23.142 4.00034 22.9999 4H8.99995C8.85786 4.00034 8.71749 4.03094 8.58816 4.08979C8.45884 4.14863 8.34354 4.23435 8.24995 4.34125L1.24994 12.3413C1.08664 12.5277 0.998397 12.7681 1.00232 13.016C1.00625 13.2638 1.10207 13.5013 1.2712 13.6825L15.2712 28.6825C15.3648 28.7828 15.478 28.8628 15.6038 28.9175C15.7296 28.9722 15.8653 29.0004 16.0024 29.0004C16.1396 29.0004 16.2753 28.9722 16.4011 28.9175C16.5269 28.8628 16.6401 28.7828 16.7337 28.6825L30.7337 13.6825C30.9021 13.5007 30.997 13.2628 31 13.015C31.0031 12.7672 30.9139 12.5271 30.7499 12.3413ZM27.7962 12H22.4999L17.9999 6H22.5462L27.7962 12ZM9.32244 14L13.0887 23.4163L4.30119 14H9.32244ZM20.5224 14L15.9999 25.3075L11.4774 14H20.5224ZM11.9999 12L15.9999 6.66625L19.9999 12H11.9999ZM22.6774 14H27.6987L18.9112 23.4163L22.6774 14ZM9.45369 6H13.9999L9.49994 12H4.2037L9.45369 6Z" fill="currentColor"/>
<path d="M78.375 12.6713L71.375 4.67125C71.3283 4.61769 71.2706 4.57471 71.206 4.54518C71.1413 4.51565 71.0711 4.50025 71 4.5H57C56.9289 4.50025 56.8587 4.51565 56.794 4.54518C56.7294 4.57471 56.6717 4.61769 56.625 4.67125L49.625 12.6713C49.5436 12.7645 49.4997 12.8846 49.5018 13.0084C49.5039 13.1322 49.5518 13.2508 49.6362 13.3413L63.6362 28.3412C63.683 28.3912 63.7395 28.431 63.8023 28.4583C63.8651 28.4855 63.9328 28.4995 64.0012 28.4995C64.0697 28.4995 64.1374 28.4855 64.2002 28.4583C64.263 28.431 64.3195 28.3912 64.3662 28.3412L78.3662 13.3413C78.4504 13.2505 78.4978 13.1317 78.4995 13.0079C78.5011 12.8842 78.4567 12.7642 78.375 12.6713ZM57.6612 13.5L62.545 25.7075L51.15 13.5H57.6612ZM69.2612 13.5L64 26.6537L58.7387 13.5H69.2612ZM59 12.5L64 5.83375L69 12.5H59ZM70.3387 13.5H76.85L65.455 25.7075L70.3387 13.5ZM76.8975 12.5H70.25L65 5.5H70.7725L76.8975 12.5ZM57.2275 5.5H63L57.75 12.5H51.1025L57.2275 5.5Z" fill="currentColor"/>
<path d="M126.565 12.5063L119.565 4.50627C119.494 4.42573 119.408 4.36119 119.31 4.31699C119.213 4.27279 119.107 4.24996 119 4.25002H105C104.893 4.24918 104.788 4.27103 104.691 4.31414C104.593 4.35725 104.506 4.42062 104.435 4.50002L97.4349 12.5C97.3142 12.6395 97.2491 12.8186 97.2521 13.0031C97.2551 13.1876 97.326 13.3645 97.4512 13.5L111.451 28.5C111.521 28.5754 111.606 28.6354 111.701 28.6765C111.795 28.7176 111.897 28.7388 112 28.7388C112.103 28.7388 112.205 28.7176 112.299 28.6765C112.394 28.6354 112.479 28.5754 112.549 28.5L126.549 13.5C126.672 13.3649 126.742 13.1893 126.745 13.0062C126.748 12.8232 126.684 12.6454 126.565 12.5063ZM105.492 13.75L109.817 24.5613L99.7262 13.75H105.492ZM116.892 13.75L112 25.98L107.107 13.75H116.892ZM107.5 12.25L112 6.25002L116.5 12.25H107.5ZM118.507 13.75H124.274L114.182 24.5613L118.507 13.75ZM124.347 12.25H118.375L113.5 5.75002H118.66L124.347 12.25ZM105.34 5.75002H110.5L105.625 12.25H99.6524L105.34 5.75002Z" fill="currentColor"/>
<path d="M175.125 12.0125L168.125 4.0125C167.985 3.85204 167.812 3.72334 167.618 3.63496C167.424 3.54659 167.213 3.50058 167 3.5H153C152.787 3.50058 152.576 3.54659 152.382 3.63496C152.188 3.72334 152.015 3.85204 151.875 4.0125L144.875 12.0125C144.63 12.2922 144.498 12.6528 144.504 13.0244C144.51 13.396 144.654 13.7521 144.907 14.0238L158.907 29.0238C159.048 29.174 159.218 29.2938 159.406 29.3757C159.595 29.4576 159.798 29.4999 160.004 29.4999C160.209 29.4999 160.413 29.4576 160.601 29.3757C160.79 29.2938 160.96 29.174 161.1 29.0238L175.1 14.0238C175.353 13.7512 175.495 13.3945 175.5 13.0229C175.504 12.6514 175.371 12.2913 175.125 12.0125ZM170.694 11.5H166.75L163 6.5H166.319L170.694 11.5ZM152.985 14.5L155.634 21.125L149.451 14.5H152.985ZM163.785 14.5L160 23.9613L156.215 14.5H163.785ZM157 11.5L160 7.5L163 11.5H157ZM167.015 14.5H170.549L164.366 21.125L167.015 14.5ZM153.681 6.5H157L153.25 11.5H149.306L153.681 6.5Z" fill="currentColor"/>
<path d="M222.75 12.3413L215.75 4.34125C215.656 4.23435 215.541 4.14863 215.412 4.08979C215.282 4.03094 215.142 4.00034 215 4H201C200.858 4.00034 200.717 4.03094 200.588 4.08979C200.459 4.14863 200.344 4.23435 200.25 4.34125L193.25 12.3413C193.087 12.5277 192.998 12.7681 193.002 13.016C193.006 13.2638 193.102 13.5013 193.271 13.6825L207.271 28.6825C207.365 28.7828 207.478 28.8628 207.604 28.9175C207.73 28.9722 207.865 29.0004 208.002 29.0004C208.14 29.0004 208.275 28.9722 208.401 28.9175C208.527 28.8628 208.64 28.7828 208.734 28.6825L222.734 13.6825C222.902 13.5007 222.997 13.2628 223 13.015C223.003 12.7672 222.914 12.5271 222.75 12.3413ZM219.796 12H214.5L210 6H214.546L219.796 12ZM201.322 14L205.089 23.4163L196.301 14H201.322ZM214.677 14H219.699L210.911 23.4163L214.677 14ZM201.454 6H206L201.5 12H196.204L201.454 6Z" fill="currentColor"/>
<path opacity="0.2" d="M270 13L256 28L250 13L256 5H263L270 13Z" fill="currentColor"/>
<path d="M270.75 12.3413L263.75 4.34125C263.656 4.23435 263.541 4.14863 263.412 4.08979C263.282 4.03094 263.142 4.00034 263 4H249C248.858 4.00034 248.717 4.03094 248.588 4.08979C248.459 4.14863 248.344 4.23435 248.25 4.34125L241.25 12.3413C241.087 12.5277 240.998 12.7681 241.002 13.016C241.006 13.2638 241.102 13.5013 241.271 13.6825L255.271 28.6825C255.365 28.7828 255.478 28.8628 255.604 28.9175C255.73 28.9722 255.865 29.0004 256.002 29.0004C256.14 29.0004 256.275 28.9722 256.401 28.9175C256.527 28.8628 256.64 28.7828 256.734 28.6825L270.734 13.6825C270.902 13.5007 270.997 13.2628 271 13.015C271.003 12.7672 270.914 12.5271 270.75 12.3413ZM267.796 12H262.5L258 6H262.546L267.796 12ZM249.322 14L253.089 23.4163L244.301 14H249.322ZM260.522 14L256 25.3075L251.477 14H260.522ZM252 12L256 6.66625L260 12H252ZM262.677 14H267.699L258.911 23.4163L262.677 14ZM249.454 6H254L249.5 12H244.204L249.454 6Z" fill="currentColor"/>
</g>
<defs>
<clipPath id="clip0_17_12709">
<rect width="272" height="32" rx="5" fill="white"/>
</clipPath>
</defs>
</svg>
