<svg width="272" height="32" viewBox="0 0 272 32" fill="none" xmlns="http://www.w3.org/2000/svg">
<g clip-path="url(#clip0_17_12625)">
<path d="M27 19.0112V27C27 27.2652 26.8946 27.5196 26.7071 27.7071C26.5196 27.8946 26.2652 28 26 28H6C5.73478 28 5.48043 27.8946 5.29289 27.7071C5.10536 27.5196 5 27.2652 5 27V19.0112C5 18.746 5.10536 18.4917 5.29289 18.3041C5.48043 18.1166 5.73478 18.0112 6 18.0112C6.26522 18.0112 6.51957 18.1166 6.70711 18.3041C6.89464 18.4917 7 18.746 7 19.0112V26H25V19.0112C25 18.746 25.1054 18.4917 25.2929 18.3041C25.4804 18.1166 25.7348 18.0112 26 18.0112C26.2652 18.0112 26.5196 18.1166 26.7071 18.3041C26.8946 18.4917 27 18.746 27 19.0112ZM11 23.0112H21C21.2652 23.0112 21.5196 22.9059 21.7071 22.7183C21.8946 22.5308 22 22.2765 22 22.0112C22 21.746 21.8946 21.4917 21.7071 21.3041C21.5196 21.1166 21.2652 21.0112 21 21.0112H11C10.7348 21.0112 10.4804 21.1166 10.2929 21.3041C10.1054 21.4917 10 21.746 10 22.0112C10 22.2765 10.1054 22.5308 10.2929 22.7183C10.4804 22.9059 10.7348 23.0112 11 23.0112ZM11.61 16.3862L21.2687 18.9712C21.3535 18.9944 21.4409 19.0062 21.5287 19.0062C21.77 19.0043 22.0024 18.9153 22.1831 18.7555C22.3638 18.5958 22.4807 18.3761 22.5122 18.1369C22.5437 17.8977 22.4878 17.6553 22.3546 17.4541C22.2214 17.253 22.02 17.1068 21.7875 17.0425L12.125 14.4512C11.9945 14.403 11.8554 14.3826 11.7166 14.3912C11.5778 14.3998 11.4423 14.4373 11.3188 14.5012C11.1952 14.5652 11.0864 14.6542 10.9992 14.7626C10.9121 14.8709 10.8485 14.9963 10.8125 15.1307C10.7765 15.265 10.769 15.4054 10.7904 15.5429C10.8117 15.6803 10.8615 15.8118 10.9366 15.9289C11.0116 16.046 11.1103 16.1461 11.2262 16.223C11.3422 16.2998 11.4729 16.3516 11.61 16.375V16.3862ZM13.9163 10.145L22.5763 15.145C22.69 15.2107 22.8156 15.2533 22.9458 15.2704C23.076 15.2876 23.2084 15.2789 23.3352 15.2449C23.4621 15.2109 23.5811 15.1522 23.6852 15.0722C23.7894 14.9922 23.8769 14.8925 23.9425 14.7787C24.0744 14.5492 24.1099 14.2768 24.0412 14.0212C23.9726 13.7655 23.8054 13.5475 23.5763 13.415L14.9163 8.40874C14.8024 8.33638 14.6752 8.2878 14.5421 8.26591C14.409 8.24402 14.2729 8.24928 14.1419 8.28137C14.0109 8.31345 13.8877 8.37171 13.7798 8.45262C13.6719 8.53354 13.5815 8.63544 13.514 8.75221C13.4465 8.86897 13.4033 8.99819 13.3871 9.13207C13.3708 9.26595 13.3818 9.40175 13.4194 9.53127C13.457 9.6608 13.5203 9.78139 13.6057 9.88578C13.6911 9.99018 13.7967 10.0762 13.9163 10.1387V10.145ZM24.8325 11.77C24.9254 11.8631 25.0357 11.9369 25.1572 11.9874C25.2787 12.0378 25.4089 12.0638 25.5404 12.0639C25.6719 12.064 25.8021 12.0383 25.9237 11.988C26.0452 11.9378 26.1557 11.8641 26.2488 11.7712C26.3418 11.6783 26.4157 11.568 26.4661 11.4465C26.5166 11.3251 26.5426 11.1949 26.5427 11.0634C26.5428 10.9319 26.517 10.8016 26.4668 10.6801C26.4166 10.5585 26.3429 10.4481 26.25 10.355L19.1787 3.29249C18.9898 3.1127 18.7382 3.01381 18.4774 3.01692C18.2167 3.02002 17.9674 3.12487 17.7828 3.30911C17.5983 3.49335 17.493 3.74241 17.4894 4.00317C17.4859 4.26393 17.5843 4.51577 17.7638 4.70499L24.8325 11.77Z" fill="currentColor"/>
<path d="M74.5 19.0113V27C74.5 27.1326 74.4473 27.2598 74.3536 27.3536C74.2598 27.4474 74.1326 27.5 74 27.5H54C53.8674 27.5 53.7402 27.4474 53.6464 27.3536C53.5527 27.2598 53.5 27.1326 53.5 27V19.0113C53.5 18.8787 53.5527 18.7515 53.6464 18.6577C53.7402 18.564 53.8674 18.5113 54 18.5113C54.1326 18.5113 54.2598 18.564 54.3536 18.6577C54.4473 18.7515 54.5 18.8787 54.5 19.0113V26.5H73.5V19.0113C73.5 18.8787 73.5527 18.7515 73.6464 18.6577C73.7402 18.564 73.8674 18.5113 74 18.5113C74.1326 18.5113 74.2598 18.564 74.3536 18.6577C74.4473 18.7515 74.5 18.8787 74.5 19.0113ZM59 22.5113H69C69.1326 22.5113 69.2598 22.4586 69.3536 22.3648C69.4473 22.2711 69.5 22.1439 69.5 22.0113C69.5 21.8787 69.4473 21.7515 69.3536 21.6577C69.2598 21.564 69.1326 21.5113 69 21.5113H59C58.8674 21.5113 58.7402 21.564 58.6464 21.6577C58.5527 21.7515 58.5 21.8787 58.5 22.0113C58.5 22.1439 58.5527 22.2711 58.6464 22.3648C58.7402 22.4586 58.8674 22.5113 59 22.5113ZM59.74 15.9038L69.3988 18.4875C69.4394 18.499 69.4815 18.5049 69.5238 18.505C69.6436 18.5026 69.7586 18.4571 69.8478 18.377C69.9369 18.2968 69.9943 18.1873 70.0095 18.0683C70.0246 17.9494 69.9965 17.829 69.9303 17.729C69.8641 17.6291 69.7642 17.5562 69.6488 17.5238L60 14.9338C59.9356 14.9136 59.8679 14.9065 59.8007 14.9132C59.7336 14.9198 59.6685 14.94 59.6094 14.9725C59.5502 15.0049 59.4983 15.049 59.4567 15.1021C59.415 15.1552 59.3845 15.2161 59.3671 15.2813C59.3496 15.3464 59.3455 15.4144 59.355 15.4812C59.3645 15.548 59.3874 15.6122 59.4224 15.6699C59.4573 15.7276 59.5036 15.7776 59.5584 15.8169C59.6132 15.8563 59.6754 15.8841 59.7413 15.8988L59.74 15.9038ZM62.1663 9.71129L70.8263 14.705C70.8832 14.7412 70.9468 14.7655 71.0133 14.7765C71.0799 14.7874 71.1479 14.7848 71.2134 14.7687C71.2789 14.7527 71.3405 14.7236 71.3945 14.6831C71.4484 14.6426 71.4936 14.5917 71.5274 14.5333C71.5611 14.4749 71.5827 14.4103 71.5908 14.3434C71.599 14.2764 71.5935 14.2085 71.5747 14.1438C71.5559 14.079 71.5242 14.0187 71.4815 13.9665C71.4388 13.9143 71.386 13.8713 71.3263 13.84L62.6663 8.84129C62.6093 8.80511 62.5457 8.78082 62.4792 8.76988C62.4126 8.75893 62.3446 8.76156 62.2791 8.7776C62.2136 8.79365 62.152 8.82278 62.098 8.86323C62.0441 8.90369 61.9989 8.95464 61.9651 9.01303C61.9314 9.07141 61.9098 9.13601 61.9017 9.20296C61.8935 9.2699 61.899 9.33779 61.9178 9.40256C61.9366 9.46732 61.9683 9.52762 62.011 9.57981C62.0537 9.63201 62.1065 9.67503 62.1663 9.70629V9.71129ZM73.1863 11.4188C73.2812 11.5051 73.4057 11.5517 73.5341 11.5487C73.6624 11.5458 73.7847 11.4936 73.8756 11.403C73.9665 11.3125 74.0191 11.1904 74.0225 11.0621C74.0259 10.9337 73.9798 10.8091 73.8937 10.7138L66.8225 3.65129C66.7766 3.60287 66.7214 3.56413 66.6603 3.53736C66.5992 3.51058 66.5333 3.49632 66.4666 3.49541C66.3998 3.4945 66.3336 3.50695 66.2717 3.53204C66.2099 3.55713 66.1537 3.59435 66.1065 3.6415C66.0592 3.68864 66.0219 3.74477 65.9967 3.80657C65.9715 3.86837 65.959 3.93458 65.9597 4.00132C65.9605 4.06805 65.9747 4.13395 66.0014 4.19513C66.028 4.25631 66.0667 4.31153 66.115 4.35754L73.1863 11.4188Z" fill="currentColor"/>
<path d="M122.75 19.0111V26.9999C122.75 27.1988 122.671 27.3896 122.53 27.5302C122.39 27.6709 122.199 27.7499 122 27.7499H102C101.801 27.7499 101.61 27.6709 101.47 27.5302C101.329 27.3896 101.25 27.1988 101.25 26.9999V19.0111C101.25 18.8122 101.329 18.6215 101.47 18.4808C101.61 18.3401 101.801 18.2611 102 18.2611C102.199 18.2611 102.39 18.3401 102.53 18.4808C102.671 18.6215 102.75 18.8122 102.75 19.0111V26.2499H121.25V19.0111C121.25 18.8122 121.329 18.6215 121.47 18.4808C121.61 18.3401 121.801 18.2611 122 18.2611C122.199 18.2611 122.39 18.3401 122.53 18.4808C122.671 18.6215 122.75 18.8122 122.75 19.0111ZM107 22.7611H117C117.199 22.7611 117.39 22.6821 117.53 22.5415C117.671 22.4008 117.75 22.21 117.75 22.0111C117.75 21.8122 117.671 21.6215 117.53 21.4808C117.39 21.3402 117.199 21.2611 117 21.2611H107C106.801 21.2611 106.61 21.3402 106.47 21.4808C106.329 21.6215 106.25 21.8122 106.25 22.0111C106.25 22.21 106.329 22.4008 106.47 22.5415C106.61 22.6821 106.801 22.7611 107 22.7611ZM107.675 16.1449L117.334 18.7286C117.431 18.7607 117.533 18.7726 117.635 18.7637C117.736 18.7547 117.835 18.7252 117.925 18.6767C118.015 18.6283 118.094 18.562 118.157 18.482C118.221 18.4019 118.267 18.3098 118.293 18.2112C118.32 18.1127 118.326 18.0097 118.311 17.9087C118.297 17.8077 118.262 17.7107 118.208 17.6238C118.155 17.5368 118.084 17.4617 118.001 17.403C117.917 17.3443 117.822 17.3032 117.722 17.2824L108.062 14.6924C107.966 14.6618 107.864 14.6511 107.763 14.6609C107.662 14.6708 107.565 14.7009 107.476 14.7496C107.387 14.7983 107.309 14.8645 107.246 14.9442C107.184 15.024 107.138 15.1155 107.112 15.2134C107.085 15.3113 107.079 15.4135 107.094 15.5138C107.108 15.6141 107.143 15.7105 107.195 15.7971C107.248 15.8837 107.318 15.9587 107.4 16.0176C107.482 16.0765 107.576 16.1181 107.675 16.1399V16.1449ZM110.041 9.92738L118.701 14.9274C118.815 14.9928 118.945 15.0272 119.076 15.0274C119.241 15.0266 119.4 14.9718 119.531 14.8714C119.661 14.771 119.755 14.6306 119.797 14.4718C119.84 14.3129 119.829 14.1445 119.767 13.9924C119.704 13.8402 119.593 13.7129 119.451 13.6299L110.791 8.62488C110.706 8.57062 110.61 8.53418 110.511 8.51776C110.411 8.50135 110.309 8.50529 110.21 8.52935C110.112 8.55342 110.02 8.59711 109.939 8.6578C109.858 8.71848 109.79 8.79491 109.74 8.88249C109.689 8.97006 109.657 9.06697 109.644 9.16738C109.632 9.2678 109.64 9.36964 109.669 9.46678C109.697 9.56393 109.744 9.65437 109.808 9.73267C109.872 9.81096 109.952 9.8755 110.041 9.92238V9.92738ZM121.01 11.5961C121.152 11.7286 121.34 11.8007 121.535 11.7973C121.729 11.7939 121.914 11.7152 122.052 11.5778C122.189 11.4403 122.268 11.255 122.271 11.0607C122.275 10.8664 122.202 10.6783 122.07 10.5361L115 3.46988C114.932 3.39455 114.849 3.33386 114.757 3.29149C114.664 3.24911 114.564 3.22594 114.463 3.22338C114.361 3.22082 114.26 3.23892 114.166 3.27659C114.072 3.31426 113.986 3.3707 113.914 3.4425C113.842 3.5143 113.785 3.59996 113.748 3.69427C113.71 3.78859 113.692 3.88959 113.694 3.99116C113.697 4.09273 113.72 4.19275 113.762 4.28514C113.804 4.37753 113.865 4.46037 113.94 4.52863L121.01 11.5961Z" fill="currentColor"/>
<path d="M171.5 18.9588V27.0001C171.5 27.3979 171.342 27.7794 171.061 28.0607C170.779 28.342 170.398 28.5001 170 28.5001H150C149.602 28.5001 149.221 28.342 148.939 28.0607C148.658 27.7794 148.5 27.3979 148.5 27.0001V18.9588C148.5 18.561 148.658 18.1795 148.939 17.8982C149.221 17.6169 149.602 17.4588 150 17.4588C150.398 17.4588 150.779 17.6169 151.061 17.8982C151.342 18.1795 151.5 18.561 151.5 18.9588V25.4876H168.5V18.9588C168.5 18.561 168.658 18.1795 168.939 17.8982C169.221 17.6169 169.602 17.4588 170 17.4588C170.398 17.4588 170.779 17.6169 171.061 17.8982C171.342 18.1795 171.5 18.561 171.5 18.9588ZM155 22.9763H165C165.392 22.965 165.764 22.8013 166.038 22.52C166.311 22.2386 166.464 21.8617 166.464 21.4694C166.464 21.0771 166.311 20.7003 166.038 20.4189C165.764 20.1376 165.392 19.9739 165 19.9626H155C154.608 19.9739 154.236 20.1376 153.962 20.4189C153.689 20.7003 153.536 21.0771 153.536 21.4694C153.536 21.8617 153.689 22.2386 153.962 22.52C154.236 22.8013 154.608 22.965 155 22.9763ZM156.025 14.1251L165.421 17.5613C165.797 17.6974 166.211 17.6787 166.573 17.5093C166.935 17.34 167.215 17.0338 167.351 16.6582C167.487 16.2826 167.468 15.8683 167.299 15.5065C167.129 15.1446 166.823 14.8649 166.448 14.7288L157.051 11.2938C156.676 11.1577 156.262 11.1764 155.9 11.3456C155.538 11.5149 155.259 11.8209 155.123 12.1963C154.986 12.5718 155.005 12.9859 155.174 13.3476C155.344 13.7093 155.65 13.989 156.025 14.1251ZM160 6.16132L167.661 12.6163C167.966 12.8718 168.36 12.9958 168.756 12.9611C169.152 12.9264 169.518 12.7359 169.774 12.4313C170.03 12.1247 170.155 11.7289 170.12 11.3306C170.085 10.9323 169.894 10.564 169.589 10.3063L161.93 3.85257C161.779 3.72595 161.605 3.63033 161.417 3.57116C161.229 3.512 161.031 3.49045 160.835 3.50774C160.638 3.52504 160.447 3.58084 160.273 3.67197C160.098 3.76309 159.943 3.88775 159.816 4.03882C159.561 4.3453 159.437 4.74035 159.471 5.13791C159.505 5.53547 159.696 5.90332 160 6.16132Z" fill="currentColor"/>
<path d="M218 4H198C197.47 4 196.961 4.21071 196.586 4.58579C196.211 4.96086 196 5.46957 196 6V26C196 26.5304 196.211 27.0391 196.586 27.4142C196.961 27.7893 197.47 28 198 28H218C218.53 28 219.039 27.7893 219.414 27.4142C219.789 27.0391 220 26.5304 220 26V6C220 5.46957 219.789 4.96086 219.414 4.58579C219.039 4.21071 218.53 4 218 4ZM208.858 5.8575C208.95 5.76452 209.061 5.69076 209.182 5.64044C209.303 5.59012 209.434 5.56421 209.565 5.56421C209.696 5.56421 209.827 5.59012 209.948 5.64044C210.069 5.69076 210.18 5.76452 210.272 5.8575L215.929 11.515C216.108 11.7041 216.207 11.9558 216.204 12.2166C216.2 12.4773 216.095 12.7265 215.911 12.9109C215.726 13.0953 215.477 13.2004 215.217 13.2037C214.956 13.207 214.704 13.1084 214.515 12.9288L208.858 7.2725C208.765 7.17963 208.691 7.06934 208.64 6.94794C208.59 6.82654 208.564 6.69642 208.564 6.565C208.564 6.43358 208.59 6.30346 208.64 6.18206C208.691 6.06066 208.765 5.95037 208.858 5.8575ZM204.523 12.3462C204.624 12.1013 204.819 11.9067 205.064 11.8052C205.309 11.7037 205.584 11.7036 205.829 11.805L213.22 14.8663C213.434 14.9543 213.612 15.1142 213.721 15.3185C213.831 15.5227 213.866 15.7588 213.821 15.9861C213.776 16.2135 213.653 16.4181 213.474 16.565C213.294 16.7119 213.069 16.7918 212.837 16.7913C212.706 16.7912 212.576 16.7648 212.455 16.7138L205.064 13.6525C204.819 13.551 204.624 13.3564 204.523 13.1114C204.421 12.8665 204.421 12.5912 204.523 12.3462ZM204 19H212C212.265 19 212.52 19.1054 212.707 19.2929C212.895 19.4804 213 19.7348 213 20C213 20.2652 212.895 20.5196 212.707 20.7071C212.52 20.8946 212.265 21 212 21H204C203.735 21 203.48 20.8946 203.293 20.7071C203.105 20.5196 203 20.2652 203 20C203 19.7348 203.105 19.4804 203.293 19.2929C203.48 19.1054 203.735 19 204 19ZM217 24C217 24.2652 216.895 24.5196 216.707 24.7071C216.52 24.8946 216.265 25 216 25H200C199.735 25 199.48 24.8946 199.293 24.7071C199.105 24.5196 199 24.2652 199 24V18C199 17.7348 199.105 17.4804 199.293 17.2929C199.48 17.1054 199.735 17 200 17C200.265 17 200.52 17.1054 200.707 17.2929C200.895 17.4804 201 17.7348 201 18V23H215V18C215 17.7348 215.105 17.4804 215.293 17.2929C215.48 17.1054 215.735 17 216 17C216.265 17 216.52 17.1054 216.707 17.2929C216.895 17.4804 217 17.7348 217 18V24Z" fill="currentColor"/>
<path opacity="0.2" d="M266 19V27H246V19H266Z" fill="currentColor"/>
<path d="M267 19.0112V27C267 27.2652 266.895 27.5196 266.707 27.7071C266.52 27.8946 266.265 28 266 28H246C245.735 28 245.48 27.8946 245.293 27.7071C245.105 27.5196 245 27.2652 245 27V19.0112C245 18.746 245.105 18.4917 245.293 18.3041C245.48 18.1166 245.735 18.0112 246 18.0112C246.265 18.0112 246.52 18.1166 246.707 18.3041C246.895 18.4917 247 18.746 247 19.0112V26H265V19.0112C265 18.746 265.105 18.4917 265.293 18.3041C265.48 18.1166 265.735 18.0112 266 18.0112C266.265 18.0112 266.52 18.1166 266.707 18.3041C266.895 18.4917 267 18.746 267 19.0112ZM251 23.0112H261C261.265 23.0112 261.52 22.9059 261.707 22.7183C261.895 22.5308 262 22.2765 262 22.0112C262 21.746 261.895 21.4917 261.707 21.3041C261.52 21.1166 261.265 21.0112 261 21.0112H251C250.735 21.0112 250.48 21.1166 250.293 21.3041C250.105 21.4917 250 21.746 250 22.0112C250 22.2765 250.105 22.5308 250.293 22.7183C250.48 22.9059 250.735 23.0112 251 23.0112ZM251.61 16.3862L261.269 18.9712C261.353 18.9944 261.441 19.0062 261.529 19.0062C261.77 19.0043 262.002 18.9153 262.183 18.7555C262.364 18.5958 262.481 18.3761 262.512 18.1369C262.544 17.8977 262.488 17.6553 262.355 17.4541C262.221 17.253 262.02 17.1068 261.788 17.0425L252.125 14.4512C251.995 14.403 251.855 14.3826 251.717 14.3912C251.578 14.3998 251.442 14.4373 251.319 14.5012C251.195 14.5652 251.086 14.6542 250.999 14.7626C250.912 14.8709 250.848 14.9963 250.813 15.1307C250.777 15.265 250.769 15.4054 250.79 15.5429C250.812 15.6803 250.862 15.8118 250.937 15.9289C251.012 16.046 251.11 16.1461 251.226 16.223C251.342 16.2998 251.473 16.3516 251.61 16.375V16.3862ZM253.916 10.145L262.576 15.145C262.69 15.2107 262.816 15.2533 262.946 15.2704C263.076 15.2876 263.208 15.2789 263.335 15.2449C263.462 15.2109 263.581 15.1522 263.685 15.0722C263.789 14.9922 263.877 14.8925 263.942 14.7787C264.074 14.5492 264.11 14.2768 264.041 14.0212C263.973 13.7655 263.805 13.5475 263.576 13.415L254.916 8.40874C254.802 8.33638 254.675 8.2878 254.542 8.26591C254.409 8.24402 254.273 8.24928 254.142 8.28137C254.011 8.31345 253.888 8.37171 253.78 8.45262C253.672 8.53354 253.582 8.63544 253.514 8.75221C253.447 8.86897 253.403 8.99819 253.387 9.13207C253.371 9.26595 253.382 9.40175 253.419 9.53127C253.457 9.6608 253.52 9.78139 253.606 9.88578C253.691 9.99018 253.797 10.0762 253.916 10.1387V10.145ZM264.833 11.77C264.925 11.8631 265.036 11.9369 265.157 11.9874C265.279 12.0378 265.409 12.0638 265.54 12.0639C265.672 12.064 265.802 12.0383 265.924 11.988C266.045 11.9378 266.156 11.8641 266.249 11.7712C266.342 11.6783 266.416 11.568 266.466 11.4465C266.517 11.3251 266.543 11.1949 266.543 11.0634C266.543 10.9319 266.517 10.8016 266.467 10.6801C266.417 10.5585 266.343 10.4481 266.25 10.355L259.179 3.29249C258.99 3.1127 258.738 3.01381 258.477 3.01692C258.217 3.02002 257.967 3.12487 257.783 3.30911C257.598 3.49335 257.493 3.74241 257.489 4.00317C257.486 4.26393 257.584 4.51577 257.764 4.70499L264.833 11.77Z" fill="currentColor"/>
</g>
<defs>
<clipPath id="clip0_17_12625">
<rect width="272" height="32" rx="5" fill="white"/>
</clipPath>
</defs>
</svg>
