<svg width="272" height="32" viewBox="0 0 272 32" fill="none" xmlns="http://www.w3.org/2000/svg">
<g clip-path="url(#clip0_17_12597)">
<path d="M29.6101 3.27376C29.4551 3.13997 29.2666 3.051 29.0649 3.01641C28.8631 2.98183 28.6557 3.00296 28.4651 3.07751L3.13257 12.9913C2.77355 13.1309 2.4696 13.3833 2.26648 13.7106C2.06335 14.0379 1.97205 14.4224 2.00632 14.806C2.04058 15.1897 2.19856 15.5519 2.45646 15.838C2.71437 16.1241 3.05825 16.3187 3.43632 16.3925L10.0001 17.6813V25C9.99878 25.3987 10.1172 25.7885 10.3401 26.119C10.563 26.4496 10.88 26.7055 11.2501 26.8538C11.6196 27.0046 12.0259 27.0409 12.4162 26.9577C12.8066 26.8746 13.1629 26.6759 13.4388 26.3875L16.6038 23.105L21.6251 27.5C21.9873 27.8213 22.4546 27.9992 22.9388 28C23.151 27.9998 23.3619 27.9665 23.5638 27.9013C23.8938 27.7966 24.1905 27.6073 24.4245 27.3522C24.6585 27.0971 24.8216 26.7852 24.8976 26.4475L29.9713 4.37501C30.0167 4.17595 30.0071 3.96829 29.9434 3.77429C29.8798 3.58029 29.7646 3.40727 29.6101 3.27376ZM21.9676 7.77376L10.7688 15.7938L4.56882 14.5775L21.9676 7.77376ZM12.0001 25V19.065L15.0988 21.7825L12.0001 25ZM22.9413 26L12.6063 16.9375L27.4813 6.27626L22.9413 26Z" fill="currentColor"/>
<path d="M77.2838 3.65238C77.1975 3.57785 77.0925 3.52831 76.9802 3.50914C76.8678 3.48998 76.7523 3.5019 76.6463 3.54363L51.3138 13.4574C51.0555 13.5576 50.8369 13.7391 50.6907 13.9744C50.5446 14.2098 50.4789 14.4862 50.5036 14.7622C50.5283 15.0381 50.642 15.2985 50.8276 15.5041C51.0132 15.7098 51.2606 15.8496 51.5325 15.9024L58.5 17.2699V24.9999C58.5 25.2989 58.5893 25.5912 58.7566 25.8391C58.9239 26.087 59.1614 26.2792 59.4388 26.3911C59.6172 26.4627 59.8077 26.4996 60 26.4999C60.2013 26.4994 60.4004 26.4585 60.5855 26.3794C60.7706 26.3004 60.938 26.1849 61.0775 26.0399L64.5775 22.4149L69.9525 27.1286C70.225 27.3689 70.5754 27.5022 70.9388 27.5036C71.0974 27.503 71.2551 27.4781 71.4063 27.4299C71.6537 27.3515 71.8763 27.2097 72.0518 27.0184C72.2273 26.8271 72.3495 26.5932 72.4063 26.3399L77.4838 4.26488C77.5092 4.15425 77.504 4.03878 77.4688 3.93087C77.4335 3.82297 77.3696 3.72669 77.2838 3.65238ZM51.5 14.6724C51.4927 14.6119 51.5063 14.5508 51.5386 14.4991C51.5709 14.4475 51.6199 14.4085 51.6775 14.3886L73.5088 5.84488L58.8838 16.3261L51.7263 14.9211C51.6656 14.9122 51.6099 14.8826 51.5686 14.8372C51.5274 14.7919 51.5031 14.7336 51.5 14.6724ZM60.3588 25.3449C60.2896 25.4161 60.2009 25.4651 60.1038 25.4857C60.0067 25.5063 59.9057 25.4976 59.8136 25.4606C59.7215 25.4236 59.6425 25.36 59.5867 25.278C59.5308 25.1959 59.5007 25.0991 59.5 24.9999V17.9624L63.8225 21.7499L60.3588 25.3449ZM71.4313 26.1124C71.4119 26.1973 71.3708 26.2756 71.3118 26.3397C71.2529 26.4038 71.1783 26.4514 71.0953 26.4778C71.0124 26.5042 70.9239 26.5085 70.8388 26.4902C70.7537 26.4719 70.6748 26.4317 70.61 26.3736L59.8038 16.8974L76.2663 5.09988L71.4313 26.1124Z" fill="currentColor"/>
<path d="M125.446 3.46259C125.326 3.35842 125.179 3.28917 125.022 3.26229C124.865 3.23542 124.703 3.25194 124.555 3.31009L99.2224 13.2238C98.9143 13.3444 98.6536 13.5617 98.4795 13.843C98.3054 14.1244 98.2273 14.4546 98.2569 14.7842C98.2864 15.1137 98.4222 15.4248 98.6436 15.6706C98.865 15.9165 99.1603 16.0838 99.4849 16.1476L106.25 17.4763V25.0001C106.25 25.3489 106.354 25.6897 106.55 25.9788C106.745 26.2678 107.022 26.492 107.345 26.6224C107.669 26.7528 108.024 26.7836 108.365 26.7108C108.706 26.638 109.018 26.465 109.26 26.2138L112.59 22.7601L117.787 27.3163C118.105 27.5971 118.514 27.7523 118.937 27.7526C119.122 27.7522 119.306 27.7231 119.482 27.6663C119.771 27.575 120.031 27.4095 120.236 27.1865C120.441 26.9634 120.583 26.6905 120.65 26.3951L125.727 4.32134C125.763 4.16615 125.756 4.00417 125.706 3.85284C125.657 3.70152 125.567 3.56659 125.446 3.46259ZM99.7562 14.6713C99.7514 14.6584 99.7514 14.6442 99.7562 14.6313C99.7618 14.627 99.7682 14.6236 99.7749 14.6213L119.739 6.80634L106.826 16.0563L99.7749 14.6763L99.7562 14.6713ZM108.18 25.1713C108.145 25.2071 108.101 25.2318 108.053 25.2422C108.004 25.2527 107.954 25.2485 107.907 25.2301C107.861 25.2117 107.822 25.1801 107.794 25.1391C107.766 25.0981 107.75 25.0497 107.75 25.0001V18.5138L111.461 21.7638L108.18 25.1713ZM119.189 26.0563C119.179 26.0986 119.159 26.1376 119.13 26.1693C119.1 26.2009 119.063 26.2241 119.021 26.2363C118.979 26.2512 118.933 26.2544 118.889 26.2456C118.845 26.2368 118.805 26.2163 118.771 26.1863L108.205 16.9176L123.875 5.68759L119.189 26.0563Z" fill="currentColor"/>
<path d="M173.936 2.89511C173.712 2.70205 173.44 2.57372 173.149 2.52394C172.857 2.47416 172.558 2.50482 172.282 2.61261L146.95 12.5264C146.49 12.7054 146.101 13.029 145.841 13.4483C145.581 13.8677 145.464 14.3601 145.508 14.8516C145.552 15.3431 145.754 15.807 146.085 16.1735C146.415 16.54 146.856 16.7893 147.34 16.8839L153.5 18.0926V25.0001C153.5 25.4985 153.649 25.9855 153.928 26.3986C154.206 26.8117 154.602 27.1321 155.065 27.3186C155.527 27.505 156.034 27.5491 156.521 27.4452C157.009 27.3412 157.454 27.0939 157.8 26.7351L160.634 23.7964L165.294 27.8751C165.619 28.161 166.013 28.3576 166.436 28.4456C166.86 28.5336 167.3 28.5101 167.712 28.3773C168.124 28.2445 168.494 28.0069 168.787 27.688C169.079 27.369 169.284 26.9795 169.381 26.5576L174.459 4.48886C174.525 4.20081 174.511 3.90019 174.419 3.61937C174.327 3.33854 174.16 3.08814 173.936 2.89511ZM162.426 9.69011L154.652 15.2614L150.349 14.4176L162.426 9.69011ZM156.5 23.7576V20.1689L158.375 21.8126L156.5 23.7576ZM166.645 25.0726L157.41 16.9764L170.699 7.45386L166.645 25.0726Z" fill="currentColor"/>
<path d="M221.61 3.27376C221.455 3.13997 221.267 3.051 221.065 3.01641C220.863 2.98183 220.656 3.00296 220.465 3.07751L195.133 12.9913C194.774 13.1309 194.47 13.3833 194.266 13.7106C194.063 14.0379 193.972 14.4224 194.006 14.806C194.041 15.1897 194.199 15.5519 194.456 15.838C194.714 16.1241 195.058 16.3187 195.436 16.3925L202 17.6813V25C201.999 25.3987 202.117 25.7885 202.34 26.119C202.563 26.4496 202.88 26.7055 203.25 26.8538C203.62 27.0046 204.026 27.0409 204.416 26.9577C204.807 26.8746 205.163 26.6759 205.439 26.3875L208.604 23.105L213.625 27.5C213.987 27.8213 214.455 27.9992 214.939 28C215.151 27.9998 215.362 27.9665 215.564 27.9013C215.894 27.7966 216.191 27.6073 216.425 27.3522C216.659 27.0971 216.822 26.7852 216.898 26.4475L221.971 4.37501C222.017 4.17595 222.007 3.96829 221.943 3.77429C221.88 3.58029 221.765 3.40727 221.61 3.27376ZM214.941 26L204.606 16.9375L219.481 6.27626L214.941 26Z" fill="currentColor"/>
<path opacity="0.2" d="M251 25.0001V16.8588L256.546 21.7226L252.72 25.6926C252.582 25.836 252.404 25.9349 252.209 25.9765C252.014 26.0182 251.811 26.0006 251.627 25.9262C251.442 25.8518 251.283 25.7239 251.172 25.5589C251.06 25.3939 251 25.1993 251 25.0001ZM268.829 4.00883L243.5 13.9226C243.343 13.9831 243.209 14.093 243.12 14.2358C243.03 14.3786 242.99 14.5465 243.004 14.7145C243.018 14.8824 243.086 15.0412 243.198 15.1671C243.31 15.293 243.46 15.3791 243.625 15.4126L251 16.8588L269 4.15258C269.005 4.13 269.004 4.10637 268.997 4.08433C268.99 4.06229 268.977 4.04272 268.959 4.02779C268.941 4.01287 268.919 4.00319 268.896 3.99984C268.873 3.99649 268.85 3.9996 268.829 4.00883Z" fill="currentColor"/>
<path d="M269.61 3.27376C269.455 3.13997 269.267 3.051 269.065 3.01641C268.863 2.98183 268.656 3.00296 268.465 3.07751L243.133 12.9913C242.774 13.1309 242.47 13.3833 242.266 13.7106C242.063 14.0379 241.972 14.4224 242.006 14.806C242.041 15.1897 242.199 15.5519 242.456 15.838C242.714 16.1241 243.058 16.3187 243.436 16.3925L250 17.6813V25C249.999 25.3987 250.117 25.7885 250.34 26.119C250.563 26.4496 250.88 26.7055 251.25 26.8538C251.62 27.0046 252.026 27.0409 252.416 26.9577C252.807 26.8746 253.163 26.6759 253.439 26.3875L256.604 23.105L261.625 27.5C261.987 27.8213 262.455 27.9992 262.939 28C263.151 27.9998 263.362 27.9665 263.564 27.9013C263.894 27.7966 264.191 27.6073 264.425 27.3522C264.659 27.0971 264.822 26.7852 264.898 26.4475L269.971 4.37501C270.017 4.17595 270.007 3.96829 269.943 3.77429C269.88 3.58029 269.765 3.40727 269.61 3.27376ZM261.968 7.77376L250.769 15.7938L244.568 14.5775L261.968 7.77376ZM252 25V19.065L255.099 21.7825L252 25ZM262.941 26L252.606 16.9375L267.481 6.27626L262.941 26Z" fill="currentColor"/>
</g>
<defs>
<clipPath id="clip0_17_12597">
<rect width="272" height="32" rx="5" fill="white"/>
</clipPath>
</defs>
</svg>
