<svg width="272" height="32" viewBox="0 0 272 32" fill="none" xmlns="http://www.w3.org/2000/svg">
<g clip-path="url(#clip0_17_12583)">
<path d="M31.7076 11.2926L26.7076 6.29255C26.6147 6.19958 26.5044 6.12582 26.383 6.07549C26.2616 6.02517 26.1315 5.99927 26.0001 5.99927C25.8686 5.99927 25.7385 6.02517 25.6171 6.07549C25.4957 6.12582 25.3854 6.19958 25.2926 6.29255L21.0001 10.5863L16.7076 6.29255C16.6147 6.19958 16.5044 6.12582 16.383 6.07549C16.2616 6.02517 16.1315 5.99927 16.0001 5.99927C15.8686 5.99927 15.7385 6.02517 15.6171 6.07549C15.4957 6.12582 15.3854 6.19958 15.2926 6.29255L11.0001 10.5863L6.70755 6.29255C6.61468 6.19958 6.50439 6.12582 6.38299 6.07549C6.2616 6.02517 6.13147 5.99927 6.00005 5.99927C5.86864 5.99927 5.73851 6.02517 5.61711 6.07549C5.49572 6.12582 5.38543 6.19958 5.29255 6.29255L0.292554 11.2926C0.199578 11.3854 0.125819 11.4957 0.0754945 11.6171C0.0251702 11.7385 -0.000732422 11.8686 -0.000732422 12.0001C-0.000732422 12.1315 0.0251702 12.2616 0.0754945 12.383C0.125819 12.5044 0.199578 12.6147 0.292554 12.7076L5.29255 17.7076C5.38543 17.8005 5.49572 17.8743 5.61711 17.9246C5.73851 17.9749 5.86864 18.0008 6.00005 18.0008C6.13147 18.0008 6.2616 17.9749 6.38299 17.9246C6.50439 17.8743 6.61468 17.8005 6.70755 17.7076L11.0001 13.4138L14.5863 17.0001L10.2926 21.2926C10.1996 21.3854 10.1258 21.4957 10.0755 21.6171C10.0252 21.7385 9.99927 21.8686 9.99927 22.0001C9.99927 22.1315 10.0252 22.2616 10.0755 22.383C10.1258 22.5044 10.1996 22.6147 10.2926 22.7076L15.2926 27.7076C15.3854 27.8005 15.4957 27.8743 15.6171 27.9246C15.7385 27.9749 15.8686 28.0008 16.0001 28.0008C16.1315 28.0008 16.2616 27.9749 16.383 27.9246C16.5044 27.8743 16.6147 27.8005 16.7076 27.7076L21.7076 22.7076C21.8005 22.6147 21.8743 22.5044 21.9246 22.383C21.9749 22.2616 22.0008 22.1315 22.0008 22.0001C22.0008 21.8686 21.9749 21.7385 21.9246 21.6171C21.8743 21.4957 21.8005 21.3854 21.7076 21.2926L17.4138 17.0001L21.0001 13.4138L25.2926 17.7076C25.3854 17.8005 25.4957 17.8743 25.6171 17.9246C25.7385 17.9749 25.8686 18.0008 26.0001 18.0008C26.1315 18.0008 26.2616 17.9749 26.383 17.9246C26.5044 17.8743 26.6147 17.8005 26.7076 17.7076L31.7076 12.7076C31.8005 12.6147 31.8743 12.5044 31.9246 12.383C31.9749 12.2616 32.0008 12.1315 32.0008 12.0001C32.0008 11.8686 31.9749 11.7385 31.9246 11.6171C31.8743 11.4957 31.8005 11.3854 31.7076 11.2926ZM6.00005 15.5863L2.4138 12.0001L6.00005 8.4138L9.5863 12.0001L6.00005 15.5863ZM16.0001 25.5863L12.4138 22.0001L16.0001 18.4138L19.5863 22.0001L16.0001 25.5863ZM16.0001 15.5863L12.4138 12.0001L16.0001 8.4138L19.5863 12.0001L16.0001 15.5863ZM26.0001 15.5863L22.4138 12.0001L26.0001 8.4138L29.5863 12.0001L26.0001 15.5863Z" fill="currentColor"/>
<path d="M79.3537 11.6462L74.3537 6.64615C74.3072 6.59967 74.2521 6.56279 74.1914 6.53763C74.1307 6.51246 74.0656 6.49951 73.9999 6.49951C73.9342 6.49951 73.8691 6.51246 73.8084 6.53763C73.7477 6.56279 73.6926 6.59967 73.6462 6.64615L68.9999 11.2924L64.3537 6.64615C64.3072 6.59967 64.2521 6.56279 64.1914 6.53763C64.1307 6.51246 64.0656 6.49951 63.9999 6.49951C63.9342 6.49951 63.8691 6.51246 63.8084 6.53763C63.7477 6.56279 63.6926 6.59967 63.6462 6.64615L58.9999 11.2924L54.3537 6.64615C54.3072 6.59967 54.2521 6.56279 54.1914 6.53763C54.1307 6.51246 54.0656 6.49951 53.9999 6.49951C53.9342 6.49951 53.8691 6.51246 53.8084 6.53763C53.7477 6.56279 53.6926 6.59967 53.6462 6.64615L48.6462 11.6462C48.5997 11.6926 48.5628 11.7477 48.5376 11.8084C48.5125 11.8691 48.4995 11.9342 48.4995 11.9999C48.4995 12.0656 48.5125 12.1307 48.5376 12.1914C48.5628 12.2521 48.5997 12.3072 48.6462 12.3537L53.6462 17.3537C53.6926 17.4001 53.7477 17.437 53.8084 17.4622C53.8691 17.4873 53.9342 17.5003 53.9999 17.5003C54.0656 17.5003 54.1307 17.4873 54.1914 17.4622C54.2521 17.437 54.3072 17.4001 54.3537 17.3537L58.9999 12.7074L63.2924 16.9999L58.6462 21.6462C58.5997 21.6926 58.5628 21.7477 58.5376 21.8084C58.5125 21.8691 58.4995 21.9342 58.4995 21.9999C58.4995 22.0656 58.5125 22.1307 58.5376 22.1914C58.5628 22.2521 58.5997 22.3072 58.6462 22.3537L63.6462 27.3537C63.6926 27.4001 63.7477 27.437 63.8084 27.4622C63.8691 27.4873 63.9342 27.5003 63.9999 27.5003C64.0656 27.5003 64.1307 27.4873 64.1914 27.4622C64.2521 27.437 64.3072 27.4001 64.3537 27.3537L69.3537 22.3537C69.4001 22.3072 69.437 22.2521 69.4622 22.1914C69.4873 22.1307 69.5003 22.0656 69.5003 21.9999C69.5003 21.9342 69.4873 21.8691 69.4622 21.8084C69.437 21.7477 69.4001 21.6926 69.3537 21.6462L64.7074 16.9999L68.9999 12.7074L73.6462 17.3537C73.6926 17.4001 73.7477 17.437 73.8084 17.4622C73.8691 17.4873 73.9342 17.5003 73.9999 17.5003C74.0656 17.5003 74.1307 17.4873 74.1914 17.4622C74.2521 17.437 74.3072 17.4001 74.3537 17.3537L79.3537 12.3537C79.4001 12.3072 79.437 12.2521 79.4622 12.1914C79.4873 12.1307 79.5003 12.0656 79.5003 11.9999C79.5003 11.9342 79.4873 11.8691 79.4622 11.8084C79.437 11.7477 79.4001 11.6926 79.3537 11.6462ZM53.9999 16.2924L49.7074 11.9999L53.9999 7.70741L58.2924 11.9999L53.9999 16.2924ZM63.9999 26.2924L59.7074 21.9999L63.9999 17.7074L68.2924 21.9999L63.9999 26.2924ZM63.9999 16.2924L59.7074 11.9999L63.9999 7.70741L68.2924 11.9999L63.9999 16.2924ZM73.9999 16.2924L69.7074 11.9999L73.9999 7.70741L78.2924 11.9999L73.9999 16.2924Z" fill="currentColor"/>
<path d="M127.53 11.4701L122.53 6.47007C122.389 6.32962 122.199 6.25073 122 6.25073C121.801 6.25073 121.611 6.32962 121.47 6.47007L117 10.9401L112.53 6.47007C112.389 6.32962 112.199 6.25073 112 6.25073C111.801 6.25073 111.611 6.32962 111.47 6.47007L107 10.9401L102.53 6.47007C102.389 6.32962 102.199 6.25073 102 6.25073C101.801 6.25073 101.611 6.32962 101.47 6.47007L96.4701 11.4701C96.3296 11.6107 96.2507 11.8013 96.2507 12.0001C96.2507 12.1988 96.3296 12.3894 96.4701 12.5301L101.47 17.5301C101.611 17.6705 101.801 17.7494 102 17.7494C102.199 17.7494 102.389 17.6705 102.53 17.5301L107 13.0601L110.94 17.0001L106.47 21.4701C106.33 21.6107 106.251 21.8013 106.251 22.0001C106.251 22.1988 106.33 22.3894 106.47 22.5301L111.47 27.5301C111.611 27.6705 111.801 27.7494 112 27.7494C112.199 27.7494 112.389 27.6705 112.53 27.5301L117.53 22.5301C117.671 22.3894 117.749 22.1988 117.749 22.0001C117.749 21.8013 117.671 21.6107 117.53 21.4701L113.06 17.0001L117 13.0601L121.47 17.5301C121.611 17.6705 121.801 17.7494 122 17.7494C122.199 17.7494 122.389 17.6705 122.53 17.5301L127.53 12.5301C127.671 12.3894 127.749 12.1988 127.749 12.0001C127.749 11.8013 127.671 11.6107 127.53 11.4701ZM102 15.9388L98.0613 12.0001L102 8.06132L105.939 12.0001L102 15.9388ZM112 25.9388L108.061 22.0001L112 18.0613L115.939 22.0001L112 25.9388ZM112 15.9388L108.061 12.0001L112 8.06132L115.939 12.0001L112 15.9388ZM122 15.9388L118.061 12.0001L122 8.06132L125.939 12.0001L122 15.9388Z" fill="currentColor"/>
<path d="M175.561 10.9387L170.811 6.18874C170.672 6.0489 170.506 5.93795 170.324 5.86224C170.142 5.78653 169.946 5.74756 169.749 5.74756C169.551 5.74756 169.356 5.78653 169.174 5.86224C168.991 5.93795 168.826 6.0489 168.686 6.18874L165 9.87499L161.061 5.93874C160.922 5.7989 160.756 5.68795 160.574 5.61224C160.392 5.53653 160.196 5.49756 159.999 5.49756C159.801 5.49756 159.606 5.53653 159.424 5.61224C159.241 5.68795 159.076 5.7989 158.936 5.93874L155 9.87499L151.311 6.18874C151.172 6.0489 151.006 5.93795 150.824 5.86224C150.642 5.78653 150.446 5.74756 150.249 5.74756C150.051 5.74756 149.856 5.78653 149.674 5.86224C149.491 5.93795 149.326 6.0489 149.186 6.18874L144.436 10.9387C144.296 11.0781 144.186 11.2437 144.11 11.426C144.034 11.6083 143.995 11.8038 143.995 12.0012C143.995 12.1987 144.034 12.3941 144.11 12.5765C144.186 12.7588 144.296 12.9244 144.436 13.0637L149.186 17.8137C149.326 17.9536 149.491 18.0645 149.674 18.1402C149.856 18.216 150.051 18.2549 150.249 18.2549C150.446 18.2549 150.642 18.216 150.824 18.1402C151.006 18.0645 151.172 17.9536 151.311 17.8137L155 14.125L157.875 17L153.939 20.9387C153.799 21.0781 153.688 21.2437 153.612 21.426C153.537 21.6083 153.498 21.8038 153.498 22.0012C153.498 22.1987 153.537 22.3941 153.612 22.5765C153.688 22.7588 153.799 22.9244 153.939 23.0637L158.939 28.0637C159.078 28.2036 159.244 28.3145 159.426 28.3902C159.608 28.466 159.804 28.5049 160.001 28.5049C160.199 28.5049 160.394 28.466 160.577 28.3902C160.759 28.3145 160.924 28.2036 161.064 28.0637L166.064 23.0637C166.204 22.9244 166.315 22.7588 166.39 22.5765C166.466 22.3941 166.505 22.1987 166.505 22.0012C166.505 21.8038 166.466 21.6083 166.39 21.426C166.315 21.2437 166.204 21.0781 166.064 20.9387L162.125 17L165 14.125L168.689 17.815C168.828 17.9548 168.994 18.0658 169.176 18.1415C169.358 18.2172 169.554 18.2562 169.751 18.2562C169.949 18.2562 170.144 18.2172 170.327 18.1415C170.509 18.0658 170.674 17.9548 170.814 17.815L175.564 13.065C175.704 12.9254 175.815 12.7597 175.89 12.5771C175.966 12.3946 176.005 12.1989 176.004 12.0013C176.004 11.8038 175.965 11.6082 175.889 11.4258C175.813 11.2435 175.701 11.078 175.561 10.9387ZM150.25 14.625L147.625 12L150.25 9.37499L152.875 12L150.25 14.625ZM160 24.875L157.125 22L160 19.125L162.875 22L160 24.875ZM160 14.875L157.125 12L160 9.12499L162.875 12L160 14.875ZM169.75 14.625L167.125 12L169.75 9.37499L172.375 12L169.75 14.625Z" fill="currentColor"/>
<path d="M223.708 12.7076L219.208 17.2076C219.115 17.3005 219.004 17.3743 218.883 17.4246C218.762 17.4749 218.631 17.5008 218.5 17.5008C218.369 17.5008 218.239 17.4749 218.117 17.4246C217.996 17.3743 217.885 17.3005 217.793 17.2076L213.293 12.7076L213.25 12.6601L213.208 12.7076L208.914 17.0001L213.208 21.2926C213.301 21.3854 213.374 21.4957 213.425 21.6171C213.475 21.7385 213.501 21.8686 213.501 22.0001C213.501 22.1315 213.475 22.2616 213.425 22.383C213.374 22.5044 213.301 22.6147 213.208 22.7076L208.708 27.2076C208.615 27.3005 208.504 27.3743 208.383 27.4246C208.262 27.4749 208.131 27.5008 208 27.5008C207.869 27.5008 207.739 27.4749 207.617 27.4246C207.496 27.3743 207.385 27.3005 207.293 27.2076L202.793 22.7076C202.7 22.6147 202.626 22.5044 202.575 22.383C202.525 22.2616 202.499 22.1315 202.499 22.0001C202.499 21.8686 202.525 21.7385 202.575 21.6171C202.626 21.4957 202.7 21.3854 202.793 21.2926L207.086 17.0001L202.793 12.7076L202.75 12.6601L202.708 12.7076L198.208 17.2076C198.115 17.3005 198.004 17.3743 197.883 17.4246C197.762 17.4749 197.631 17.5008 197.5 17.5008C197.369 17.5008 197.239 17.4749 197.117 17.4246C196.996 17.3743 196.885 17.3005 196.793 17.2076L192.293 12.7076C192.2 12.6147 192.126 12.5044 192.075 12.383C192.025 12.2616 191.999 12.1315 191.999 12.0001C191.999 11.8686 192.025 11.7385 192.075 11.6171C192.126 11.4957 192.2 11.3854 192.293 11.2926L196.793 6.79255C196.885 6.69958 196.996 6.62582 197.117 6.57549C197.239 6.52517 197.369 6.49927 197.5 6.49927C197.631 6.49927 197.762 6.52517 197.883 6.57549C198.004 6.62582 198.115 6.69958 198.208 6.79255L202.708 11.2926L202.75 11.3401L202.793 11.2926L207.293 6.79255C207.385 6.69958 207.496 6.62582 207.617 6.57549C207.739 6.52517 207.869 6.49927 208 6.49927C208.131 6.49927 208.262 6.52517 208.383 6.57549C208.504 6.62582 208.615 6.69958 208.708 6.79255L213.208 11.2926L213.25 11.3401L213.293 11.2926L217.793 6.79255C217.885 6.69958 217.996 6.62582 218.117 6.57549C218.239 6.52517 218.369 6.49927 218.5 6.49927C218.631 6.49927 218.762 6.52517 218.883 6.57549C219.004 6.62582 219.115 6.69958 219.208 6.79255L223.708 11.2926C223.801 11.3854 223.874 11.4957 223.925 11.6171C223.975 11.7385 224.001 11.8686 224.001 12.0001C224.001 12.1315 223.975 12.2616 223.925 12.383C223.874 12.5044 223.801 12.6147 223.708 12.7076Z" fill="currentColor"/>
<path opacity="0.2" d="M246 7L251 12L246 17L241 12L246 7ZM251 12L256 17L261 12L256 7L251 12ZM256 27L261 22L256 17L251 22L256 27ZM266 7L261 12L266 17L271 12L266 7Z" fill="currentColor"/>
<path d="M271.708 11.2926L266.708 6.29255C266.615 6.19958 266.504 6.12582 266.383 6.07549C266.262 6.02517 266.131 5.99927 266 5.99927C265.869 5.99927 265.739 6.02517 265.617 6.07549C265.496 6.12582 265.385 6.19958 265.293 6.29255L261 10.5863L256.708 6.29255C256.615 6.19958 256.504 6.12582 256.383 6.07549C256.262 6.02517 256.131 5.99927 256 5.99927C255.869 5.99927 255.739 6.02517 255.617 6.07549C255.496 6.12582 255.385 6.19958 255.293 6.29255L251 10.5863L246.708 6.29255C246.615 6.19958 246.504 6.12582 246.383 6.07549C246.262 6.02517 246.131 5.99927 246 5.99927C245.869 5.99927 245.739 6.02517 245.617 6.07549C245.496 6.12582 245.385 6.19958 245.293 6.29255L240.293 11.2926C240.2 11.3854 240.126 11.4957 240.075 11.6171C240.025 11.7385 239.999 11.8686 239.999 12.0001C239.999 12.1315 240.025 12.2616 240.075 12.383C240.126 12.5044 240.2 12.6147 240.293 12.7076L245.293 17.7076C245.385 17.8005 245.496 17.8743 245.617 17.9246C245.739 17.9749 245.869 18.0008 246 18.0008C246.131 18.0008 246.262 17.9749 246.383 17.9246C246.504 17.8743 246.615 17.8005 246.708 17.7076L251 13.4138L254.586 17.0001L250.293 21.2926C250.2 21.3854 250.126 21.4957 250.075 21.6171C250.025 21.7385 249.999 21.8686 249.999 22.0001C249.999 22.1315 250.025 22.2616 250.075 22.383C250.126 22.5044 250.2 22.6147 250.293 22.7076L255.293 27.7076C255.385 27.8005 255.496 27.8743 255.617 27.9246C255.739 27.9749 255.869 28.0008 256 28.0008C256.131 28.0008 256.262 27.9749 256.383 27.9246C256.504 27.8743 256.615 27.8005 256.708 27.7076L261.708 22.7076C261.801 22.6147 261.874 22.5044 261.925 22.383C261.975 22.2616 262.001 22.1315 262.001 22.0001C262.001 21.8686 261.975 21.7385 261.925 21.6171C261.874 21.4957 261.801 21.3854 261.708 21.2926L257.414 17.0001L261 13.4138L265.293 17.7076C265.385 17.8005 265.496 17.8743 265.617 17.9246C265.739 17.9749 265.869 18.0008 266 18.0008C266.131 18.0008 266.262 17.9749 266.383 17.9246C266.504 17.8743 266.615 17.8005 266.708 17.7076L271.708 12.7076C271.801 12.6147 271.874 12.5044 271.925 12.383C271.975 12.2616 272.001 12.1315 272.001 12.0001C272.001 11.8686 271.975 11.7385 271.925 11.6171C271.874 11.4957 271.801 11.3854 271.708 11.2926ZM246 15.5863L242.414 12.0001L246 8.4138L249.586 12.0001L246 15.5863ZM256 25.5863L252.414 22.0001L256 18.4138L259.586 22.0001L256 25.5863ZM256 15.5863L252.414 12.0001L256 8.4138L259.586 12.0001L256 15.5863ZM266 15.5863L262.414 12.0001L266 8.4138L269.586 12.0001L266 15.5863Z" fill="currentColor"/>
</g>
<defs>
<clipPath id="clip0_17_12583">
<rect width="272" height="32" rx="5" fill="white"/>
</clipPath>
</defs>
</svg>
