<svg width="272" height="32" viewBox="0 0 272 32" fill="none" xmlns="http://www.w3.org/2000/svg">
<g clip-path="url(#clip0_17_12485)">
<path d="M20.555 15.1675L14.555 11.1675C14.4044 11.067 14.2293 11.0093 14.0484 11.0005C13.8675 10.9918 13.6877 11.0323 13.528 11.1177C13.3684 11.2032 13.2349 11.3304 13.1419 11.4858C13.0489 11.6412 12.9999 11.8189 13 12V20C12.9999 20.1811 13.0489 20.3588 13.1419 20.5142C13.2349 20.6696 13.3684 20.7968 13.528 20.8823C13.6877 20.9677 13.8675 21.0082 14.0484 20.9995C14.2293 20.9907 14.4044 20.933 14.555 20.8325L20.555 16.8325C20.6922 16.7412 20.8047 16.6175 20.8825 16.4722C20.9603 16.327 21.001 16.1648 21.001 16C21.001 15.8352 20.9603 15.673 20.8825 15.5278C20.8047 15.3826 20.6922 15.2588 20.555 15.1675ZM15 18.1313V13.875L18.1975 16L15 18.1313ZM29.2913 8.69C29.1735 8.22919 28.9478 7.80298 28.6329 7.44654C28.318 7.09011 27.9228 6.81366 27.48 6.64C23.195 4.985 16.375 5 16 5C15.625 5 8.805 4.985 4.52 6.64C4.0772 6.81366 3.68204 7.09011 3.36712 7.44654C3.05219 7.80298 2.82653 8.22919 2.70875 8.69C2.385 9.9375 2 12.2175 2 16C2 19.7825 2.385 22.0625 2.70875 23.31C2.82636 23.771 3.05194 24.1975 3.36687 24.5542C3.68181 24.9108 4.07706 25.1875 4.52 25.3613C8.625 26.945 15.05 27 15.9175 27H16.0825C16.95 27 23.3787 26.945 27.48 25.3613C27.9229 25.1875 28.3182 24.9108 28.6331 24.5542C28.9481 24.1975 29.1736 23.771 29.2913 23.31C29.615 22.06 30 19.7825 30 16C30 12.2175 29.615 9.9375 29.2913 8.69ZM27.355 22.815C27.3169 22.9684 27.243 23.1105 27.1394 23.2298C27.0357 23.3491 26.9053 23.4421 26.7588 23.5013C22.8025 25.0288 16.0738 25.0013 16.0088 25.0013H16C15.9325 25.0013 9.20875 25.0263 5.25 23.5013C5.10346 23.4421 4.97303 23.3491 4.86938 23.2298C4.76574 23.1105 4.69184 22.9684 4.65375 22.815C4.35 21.6738 4 19.5713 4 16C4 12.4288 4.35 10.3263 4.645 9.19125C4.68239 9.03698 4.75596 8.89382 4.85965 8.77362C4.96333 8.65342 5.09413 8.55963 5.24125 8.5C9.05625 7.02625 15.4487 7 15.9725 7H16.0063C16.0738 7 22.8038 6.9775 26.7563 8.5C26.9028 8.55915 27.0332 8.65217 27.1369 8.77146C27.2405 8.89074 27.3144 9.03289 27.3525 9.18625C27.65 10.3263 28 12.4288 28 16C28 19.5713 27.65 21.6738 27.355 22.8088V22.815Z" fill="currentColor"/>
<path d="M68.2775 15.5838L62.2775 11.5838C62.2022 11.5335 62.1146 11.5047 62.0242 11.5003C61.9338 11.4959 61.8438 11.5162 61.764 11.5589C61.6842 11.6016 61.6175 11.6652 61.571 11.7429C61.5245 11.8206 61.4999 11.9095 61.5 12V20C61.4999 20.0906 61.5244 20.1794 61.5708 20.2571C61.6173 20.3349 61.684 20.3985 61.7638 20.4413C61.8436 20.484 61.9336 20.5043 62.0241 20.4999C62.1146 20.4955 62.2022 20.4666 62.2775 20.4163L68.2775 16.4163C68.3461 16.3706 68.4023 16.3088 68.4412 16.2361C68.4801 16.1635 68.5005 16.0824 68.5005 16C68.5005 15.9176 68.4801 15.8365 68.4412 15.7639C68.4023 15.6913 68.3461 15.6294 68.2775 15.5838ZM62.5 19.0663V12.9338L67.0987 16L62.5 19.0663ZM76.8075 8.81628C76.7098 8.43215 76.5221 8.07677 76.26 7.77945C75.9979 7.48213 75.6688 7.25139 75.3 7.10628C71.075 5.47378 64.2837 5.50003 64 5.50003C63.7163 5.50003 56.925 5.47378 52.7 7.10628C52.3313 7.25127 52.0023 7.48182 51.7402 7.77891C51.4781 8.076 51.2904 8.43113 51.1925 8.81503C50.875 10.0338 50.5 12.27 50.5 16C50.5 19.73 50.875 21.9663 51.1925 23.185C51.2904 23.5689 51.4781 23.924 51.7402 24.2211C52.0023 24.5182 52.3313 24.7488 52.7 24.8938C56.925 26.5263 63.7163 26.5 64 26.5H64.0888C64.95 26.5 71.2862 26.4463 75.3037 24.8938C75.6724 24.7488 76.0014 24.5182 76.2635 24.2211C76.5256 23.924 76.7133 23.5689 76.8113 23.185C77.125 21.965 77.5 19.73 77.5 16C77.5 12.27 77.125 10.0338 76.8075 8.81503V8.81628ZM75.84 22.9413C75.7819 23.1717 75.6699 23.385 75.5132 23.5636C75.3565 23.7423 75.1596 23.8811 74.9387 23.9688C70.8925 25.5238 64.0712 25.5 64 25.5C63.9288 25.5 57.1112 25.5238 53.065 23.9613C52.8441 23.8736 52.6472 23.7348 52.4905 23.5561C52.3339 23.3775 52.2218 23.1642 52.1638 22.9338C51.8588 21.7713 51.5 19.625 51.5 16C51.5 12.375 51.8587 10.2288 52.16 9.06628C52.2181 8.83587 52.3301 8.62255 52.4868 8.44391C52.6435 8.26527 52.8404 8.12641 53.0613 8.03878C57.1075 6.47628 63.9288 6.50003 64 6.50003C64.0712 6.50003 70.8888 6.47503 74.935 8.03878C75.1559 8.12641 75.3528 8.26527 75.5095 8.44391C75.6661 8.62255 75.7782 8.83587 75.8363 9.06628C76.1413 10.2288 76.5 12.375 76.5 16C76.5 19.625 76.1413 21.7713 75.84 22.9338V22.9413Z" fill="currentColor"/>
<path d="M116.416 15.375L110.416 11.375C110.303 11.2996 110.172 11.2563 110.036 11.2498C109.9 11.2432 109.765 11.2737 109.646 11.3379C109.526 11.402 109.426 11.4975 109.356 11.6142C109.287 11.7308 109.25 11.8642 109.25 12V20C109.25 20.1359 109.287 20.2693 109.356 20.3859C109.426 20.5025 109.526 20.598 109.646 20.6622C109.765 20.7264 109.9 20.7568 110.036 20.7503C110.172 20.7437 110.303 20.7004 110.416 20.625L116.416 16.625C116.519 16.5566 116.604 16.4637 116.663 16.3547C116.721 16.2456 116.752 16.1238 116.752 16C116.752 15.8763 116.721 15.7544 116.663 15.6454C116.604 15.5363 116.519 15.4434 116.416 15.375ZM110.75 18.5988V13.4013L114.647 16L110.75 18.5988ZM125.05 8.75003C124.941 8.3284 124.734 7.93857 124.446 7.61261C124.157 7.28664 123.795 7.03384 123.39 6.87502C119.125 5.22377 112.284 5.25002 112 5.25002C111.716 5.25002 104.875 5.22377 100.605 6.87502C100.201 7.03449 99.8397 7.28757 99.552 7.6135C99.2643 7.93943 99.058 8.32892 98.95 8.75003C98.6313 9.98628 98.25 12.25 98.25 16C98.25 19.75 98.6313 22.0138 98.95 23.25C99.0585 23.6716 99.2656 24.0615 99.5542 24.3874C99.8428 24.7134 100.205 24.9662 100.61 25.125C104.875 26.7763 111.715 26.75 112 26.75H112.089C112.953 26.75 119.339 26.695 123.395 25.125C123.8 24.9662 124.162 24.7134 124.451 24.3874C124.739 24.0615 124.946 23.6716 125.055 23.25C125.374 22.0163 125.755 19.7588 125.755 16C125.755 12.2413 125.375 9.98628 125.05 8.75003ZM123.597 22.875C123.549 23.0672 123.456 23.2451 123.326 23.3942C123.195 23.5433 123.032 23.6592 122.847 23.7325C118.847 25.2738 112.073 25.25 112 25.25C111.927 25.25 105.161 25.275 101.156 23.7288C100.972 23.6555 100.808 23.5395 100.678 23.3904C100.547 23.2413 100.454 23.0634 100.406 22.8713C100.105 21.7225 99.75 19.5975 99.75 16C99.75 12.4025 100.105 10.2775 100.403 9.12503C100.451 8.9329 100.544 8.75496 100.674 8.60587C100.805 8.45678 100.968 8.34081 101.153 8.26752C105.008 6.78252 111.441 6.75002 111.97 6.75002H112C112.068 6.75002 118.839 6.72502 122.844 8.27127C123.028 8.34456 123.192 8.46053 123.322 8.60962C123.453 8.75871 123.546 8.93665 123.594 9.12877C123.891 10.2775 124.246 12.4025 124.246 16.0038C124.246 19.605 123.895 21.7225 123.597 22.875Z" fill="currentColor"/>
<path d="M165.311 14.7388L158.311 10.2388C158.085 10.0931 157.823 10.0111 157.554 10.0014C157.285 9.99174 157.018 10.0547 156.781 10.1837C156.545 10.3128 156.348 10.5031 156.21 10.7347C156.073 10.9663 156 11.2306 156 11.5V20.5C156 20.7694 156.073 21.0337 156.21 21.2653C156.348 21.4969 156.545 21.6872 156.781 21.8163C157.018 21.9453 157.285 22.0083 157.554 21.9986C157.823 21.9889 158.085 21.9069 158.311 21.7613L165.311 17.2613C165.522 17.1254 165.696 16.9387 165.816 16.7184C165.936 16.498 165.999 16.251 165.999 16C165.999 15.749 165.936 15.502 165.816 15.2816C165.696 15.0613 165.522 14.8746 165.311 14.7388ZM159 17.75V14.25L161.726 16L159 17.75ZM173.776 8.5625C173.638 8.02462 173.374 7.52723 173.006 7.11127C172.638 6.69532 172.177 6.37271 171.66 6.17C167.3 4.48875 160.411 4.5 160 4.5C159.589 4.5 152.7 4.48875 148.34 6.1725C147.823 6.37521 147.362 6.69782 146.994 7.11377C146.626 7.52973 146.362 8.02712 146.224 8.565C145.894 9.84 145.5 12.165 145.5 16C145.5 19.835 145.894 22.16 146.224 23.435C146.362 23.9729 146.626 24.4703 146.994 24.8862C147.362 25.3022 147.823 25.6248 148.34 25.8275C152.526 27.4438 159.045 27.5 159.921 27.5H160.079C160.954 27.5 167.474 27.4438 171.66 25.8275C172.177 25.6248 172.638 25.3022 173.006 24.8862C173.374 24.4703 173.638 23.9729 173.776 23.435C174.106 22.16 174.5 19.835 174.5 16C174.5 12.165 174.106 9.84 173.776 8.565V8.5625ZM170.875 22.6825C170.857 22.7592 170.821 22.8305 170.77 22.8907C170.719 22.9508 170.655 22.9982 170.583 23.0288C166.847 24.47 160.534 24.5 160.04 24.5H159.991C159.925 24.5 153.286 24.5213 149.421 23.0288C149.348 22.9986 149.283 22.9515 149.231 22.8913C149.18 22.8311 149.143 22.7596 149.125 22.6825C148.89 21.7775 148.5 19.705 148.5 16C148.5 12.295 148.894 10.2225 149.125 9.3175C149.143 9.24083 149.179 9.1695 149.23 9.10933C149.281 9.04916 149.345 9.00185 149.418 8.97125C153.286 7.47875 159.924 7.5 159.99 7.5H160.009C160.076 7.5 166.714 7.47875 170.579 8.97125C170.652 9.00137 170.717 9.04847 170.769 9.10867C170.82 9.16887 170.857 9.24044 170.875 9.3175C171.11 10.2225 171.5 12.295 171.5 16C171.5 19.705 171.106 21.7775 170.875 22.6825Z" fill="currentColor"/>
<path d="M221.291 8.69C221.173 8.22919 220.948 7.80298 220.633 7.44654C220.318 7.09011 219.923 6.81366 219.48 6.64C215.195 4.985 208.375 5 208 5C207.625 5 200.805 4.985 196.52 6.64C196.077 6.81366 195.682 7.09011 195.367 7.44654C195.052 7.80298 194.827 8.22919 194.709 8.69C194.385 9.9375 194 12.2175 194 16C194 19.7825 194.385 22.0625 194.709 23.31C194.826 23.771 195.052 24.1975 195.367 24.5542C195.682 24.9108 196.077 25.1875 196.52 25.3613C200.625 26.945 207.05 27 207.917 27H208.083C208.95 27 215.379 26.945 219.48 25.3613C219.923 25.1875 220.318 24.9108 220.633 24.5542C220.948 24.1975 221.174 23.771 221.291 23.31C221.615 22.06 222 19.7825 222 16C222 12.2175 221.615 9.9375 221.291 8.69ZM212.278 16.4163L206.278 20.4163C206.202 20.4665 206.115 20.4954 206.024 20.4997C205.934 20.5041 205.844 20.4839 205.764 20.4411C205.684 20.3984 205.617 20.3348 205.571 20.2571C205.524 20.1794 205.5 20.0905 205.5 20V12C205.5 11.9095 205.524 11.8206 205.571 11.7429C205.617 11.6652 205.684 11.6016 205.764 11.5589C205.844 11.5161 205.934 11.4959 206.024 11.5003C206.115 11.5046 206.202 11.5335 206.278 11.5838L212.278 15.5838C212.346 15.6294 212.402 15.6913 212.441 15.7639C212.48 15.8365 212.5 15.9176 212.5 16C212.5 16.0824 212.48 16.1635 212.441 16.2361C212.402 16.3087 212.346 16.3706 212.278 16.4163Z" fill="currentColor"/>
<path opacity="0.2" d="M268.324 8.94137C268.247 8.63302 268.097 8.34746 267.888 8.10834C267.679 7.86922 267.415 7.68343 267.12 7.56637C262.935 5.95637 256 6.00012 256 6.00012C256 6.00012 249.065 5.95637 244.875 7.57262C244.58 7.68968 244.316 7.87547 244.107 8.11459C243.898 8.35371 243.748 8.63927 243.671 8.94762C243.384 10.0676 243 12.2614 243 16.0001C243 19.7389 243.384 21.9326 243.676 23.0589C243.754 23.3655 243.903 23.6495 244.111 23.8875C244.319 24.1254 244.581 24.3105 244.875 24.4276C249.065 26.0439 256 26.0001 256 26.0001C256 26.0001 262.935 26.0439 267.125 24.4276C267.42 24.3112 267.683 24.1263 267.892 23.8883C268.101 23.6504 268.251 23.3661 268.329 23.0589C268.621 21.9339 269.005 19.7389 269.005 16.0001C269.005 12.2614 268.616 10.0676 268.324 8.94137ZM254 20.0001V12.0001L260 16.0001L254 20.0001Z" fill="currentColor"/>
<path d="M260.555 15.1675L254.555 11.1675C254.404 11.067 254.229 11.0093 254.048 11.0005C253.868 10.9918 253.688 11.0323 253.528 11.1177C253.368 11.2032 253.235 11.3304 253.142 11.4858C253.049 11.6412 253 11.8189 253 12V20C253 20.1811 253.049 20.3588 253.142 20.5142C253.235 20.6696 253.368 20.7968 253.528 20.8823C253.688 20.9677 253.868 21.0082 254.048 20.9995C254.229 20.9907 254.404 20.933 254.555 20.8325L260.555 16.8325C260.692 16.7412 260.805 16.6175 260.882 16.4722C260.96 16.327 261.001 16.1648 261.001 16C261.001 15.8352 260.96 15.673 260.882 15.5278C260.805 15.3826 260.692 15.2588 260.555 15.1675ZM255 18.1313V13.875L258.198 16L255 18.1313ZM269.291 8.69C269.173 8.22919 268.948 7.80298 268.633 7.44654C268.318 7.09011 267.923 6.81366 267.48 6.64C263.195 4.985 256.375 5 256 5C255.625 5 248.805 4.985 244.52 6.64C244.077 6.81366 243.682 7.09011 243.367 7.44654C243.052 7.80298 242.827 8.22919 242.709 8.69C242.385 9.9375 242 12.2175 242 16C242 19.7825 242.385 22.0625 242.709 23.31C242.826 23.771 243.052 24.1975 243.367 24.5542C243.682 24.9108 244.077 25.1875 244.52 25.3613C248.625 26.945 255.05 27 255.917 27H256.083C256.95 27 263.379 26.945 267.48 25.3613C267.923 25.1875 268.318 24.9108 268.633 24.5542C268.948 24.1975 269.174 23.771 269.291 23.31C269.615 22.06 270 19.7825 270 16C270 12.2175 269.615 9.9375 269.291 8.69ZM267.355 22.815C267.317 22.9684 267.243 23.1105 267.139 23.2298C267.036 23.3491 266.905 23.4421 266.759 23.5013C262.803 25.0288 256.074 25.0013 255.994 25.0013C255.914 25.0013 249.198 25.0238 245.244 23.5013C245.097 23.4421 244.967 23.3491 244.863 23.2298C244.759 23.1105 244.686 22.9684 244.648 22.815C244.35 21.6738 244 19.5713 244 16C244 12.4288 244.35 10.3263 244.645 9.19125C244.682 9.03698 244.756 8.89382 244.86 8.77362C244.963 8.65342 245.094 8.55963 245.241 8.5C249.198 6.9775 255.925 7 256.006 7C256.088 7 262.802 6.9775 266.756 8.5C266.903 8.55915 267.033 8.65217 267.137 8.77146C267.241 8.89074 267.314 9.03289 267.353 9.18625C267.65 10.3263 268 12.4288 268 16C268 19.5713 267.65 21.6738 267.355 22.8088V22.815Z" fill="currentColor"/>
</g>
<defs>
<clipPath id="clip0_17_12485">
<rect width="272" height="32" rx="5" fill="white"/>
</clipPath>
</defs>
</svg>
