<svg width="272" height="32" viewBox="0 0 272 32" fill="none" xmlns="http://www.w3.org/2000/svg">
<g clip-path="url(#clip0_17_18376)">
<path d="M29.4475 16.105L20 11.3825V6C20 4.93913 19.5786 3.92172 18.8284 3.17157C18.0783 2.42143 17.0609 2 16 2C14.9391 2 13.9217 2.42143 13.1716 3.17157C12.4214 3.92172 12 4.93913 12 6V11.3825L2.5525 16.105C2.38636 16.1881 2.24667 16.3159 2.14908 16.474C2.05149 16.6321 1.99987 16.8142 2 17V21C2.00008 21.1479 2.03298 21.294 2.09632 21.4276C2.15965 21.5613 2.25186 21.6793 2.36628 21.773C2.4807 21.8667 2.61449 21.9339 2.75801 21.9697C2.90154 22.0055 3.05121 22.009 3.19625 21.98L12 20.22V22.5863L10.2925 24.2925C10.1997 24.3854 10.1261 24.4958 10.0759 24.6171C10.0257 24.7385 9.9999 24.8686 10 25V29C9.99972 29.1639 10.0397 29.3253 10.1165 29.4701C10.1933 29.615 10.3045 29.7387 10.4403 29.8304C10.5761 29.9221 10.7324 29.9791 10.8954 29.9962C11.0584 30.0134 11.2231 29.9902 11.375 29.9287L16 28.0775L20.625 29.9287C20.7769 29.9902 20.9416 30.0134 21.1046 29.9962C21.2676 29.9791 21.4239 29.9221 21.5597 29.8304C21.6955 29.7387 21.8067 29.615 21.8835 29.4701C21.9603 29.3253 22.0003 29.1639 22 29V25C22.0001 24.8686 21.9743 24.7385 21.9241 24.6171C21.8739 24.4958 21.8003 24.3854 21.7075 24.2925L20 22.5863V20.22L28.8037 21.98C28.9488 22.009 29.0985 22.0055 29.242 21.9697C29.3855 21.9339 29.5193 21.8667 29.6337 21.773C29.7481 21.6793 29.8403 21.5613 29.9037 21.4276C29.967 21.294 29.9999 21.1479 30 21V17C30.0001 16.8142 29.9485 16.6321 29.8509 16.474C29.7533 16.3159 29.6136 16.1881 29.4475 16.105ZM28 19.78L19.1963 18.02C19.0512 17.991 18.9015 17.9945 18.758 18.0303C18.6145 18.0661 18.4807 18.1333 18.3663 18.227C18.2519 18.3207 18.1597 18.4387 18.0963 18.5724C18.033 18.706 18.0001 18.8521 18 19V23C17.9999 23.1314 18.0257 23.2615 18.0759 23.3829C18.1261 23.5042 18.1997 23.6146 18.2925 23.7075L20 25.4137V27.5225L16.375 26.0713C16.1367 25.976 15.8708 25.976 15.6325 26.0713L12 27.5225V25.4137L13.7075 23.7075C13.8003 23.6146 13.8739 23.5042 13.9241 23.3829C13.9743 23.2615 14.0001 23.1314 14 23V19C13.9999 18.8521 13.967 18.706 13.9037 18.5724C13.8403 18.4387 13.7481 18.3207 13.6337 18.227C13.5193 18.1333 13.3855 18.0661 13.242 18.0303C13.0985 17.9945 12.9488 17.991 12.8038 18.02L4 19.78V17.6175L13.4475 12.895C13.6136 12.8119 13.7533 12.6841 13.8509 12.526C13.9485 12.3679 14.0001 12.1858 14 12V6C14 5.46957 14.2107 4.96086 14.5858 4.58579C14.9609 4.21071 15.4696 4 16 4C16.5304 4 17.0391 4.21071 17.4142 4.58579C17.7893 4.96086 18 5.46957 18 6V12C17.9999 12.1858 18.0515 12.3679 18.1491 12.526C18.2467 12.6841 18.3864 12.8119 18.5525 12.895L28 17.6175V19.78Z" fill="currentColor"/>
<path d="M77.2237 16.5525L67.5 11.6912V6C67.5 5.07174 67.1313 4.1815 66.4749 3.52513C65.8185 2.86875 64.9283 2.5 64 2.5C63.0717 2.5 62.1815 2.86875 61.5251 3.52513C60.8687 4.1815 60.5 5.07174 60.5 6V11.6912L50.7763 16.5525C50.6932 16.5941 50.6233 16.658 50.5745 16.737C50.5257 16.816 50.4999 16.9071 50.5 17V21C50.5001 21.0739 50.5165 21.1469 50.5481 21.2136C50.5798 21.2804 50.6258 21.3394 50.6829 21.3862C50.7401 21.4331 50.8069 21.4667 50.8786 21.4846C50.9503 21.5026 51.025 21.5044 51.0975 21.49L60.5 19.615V22.7975L58.6462 24.6462C58.5998 24.6927 58.563 24.7479 58.5379 24.8086C58.5128 24.8693 58.4999 24.9343 58.5 25V29C58.5 29.0817 58.5201 29.1622 58.5585 29.2344C58.5968 29.3066 58.6523 29.3682 58.72 29.414C58.7878 29.4598 58.8657 29.4882 58.947 29.4969C59.0282 29.5056 59.1104 29.4942 59.1862 29.4638L64 27.5387L68.8137 29.4638C68.8728 29.488 68.9361 29.5003 69 29.5C69.0999 29.5003 69.1976 29.4702 69.28 29.4137C69.3477 29.368 69.4031 29.3064 69.4415 29.2342C69.4798 29.1621 69.4999 29.0817 69.5 29V25C69.5001 24.9343 69.4872 24.8693 69.4621 24.8086C69.437 24.7479 69.4002 24.6927 69.3538 24.6462L67.5 22.7925V19.61L76.9025 21.485C76.9746 21.4993 77.0489 21.4976 77.1202 21.4799C77.1915 21.4623 77.2581 21.4291 77.3151 21.3828C77.3722 21.3365 77.4183 21.2782 77.4503 21.212C77.4822 21.1459 77.4992 21.0735 77.5 21V17C77.5001 16.9071 77.4743 16.816 77.4255 16.737C77.3767 16.658 77.3068 16.5941 77.2237 16.5525ZM76.5 20.39L67.0975 18.515C67.0254 18.5007 66.9511 18.5024 66.8798 18.5201C66.8085 18.5377 66.7419 18.5709 66.6849 18.6172C66.6278 18.6635 66.5817 18.7218 66.5497 18.788C66.5178 18.8541 66.5008 18.9265 66.5 19V23C66.4999 23.0657 66.5128 23.1307 66.5379 23.1914C66.563 23.2521 66.5998 23.3073 66.6462 23.3538L68.5 25.2075V28.2612L64.1863 26.5362C64.066 26.4876 63.9315 26.4876 63.8112 26.5362L59.5 28.2612V25.2075L61.3538 23.3538C61.4002 23.3073 61.437 23.2521 61.4621 23.1914C61.4872 23.1307 61.5001 23.0657 61.5 23V19C61.4999 18.9261 61.4835 18.8531 61.4519 18.7864C61.4202 18.7196 61.3742 18.6606 61.3171 18.6138C61.2599 18.5669 61.1931 18.5333 61.1214 18.5154C61.0497 18.4974 60.975 18.4956 60.9025 18.51L51.5 20.39V17.3088L61.2238 12.4475C61.3068 12.4059 61.3767 12.342 61.4255 12.263C61.4743 12.184 61.5001 12.0929 61.5 12V6C61.5 5.33696 61.7634 4.70107 62.2322 4.23223C62.7011 3.76339 63.337 3.5 64 3.5C64.663 3.5 65.2989 3.76339 65.7678 4.23223C66.2366 4.70107 66.5 5.33696 66.5 6V12C66.4999 12.0929 66.5257 12.184 66.5745 12.263C66.6233 12.342 66.6932 12.4059 66.7763 12.4475L76.5 17.3088V20.39Z" fill="currentColor"/>
<path d="M125.335 16.3288L115.75 11.5363V6C115.75 5.00544 115.355 4.05161 114.652 3.34835C113.948 2.64509 112.995 2.25 112 2.25C111.005 2.25 110.052 2.64509 109.348 3.34835C108.645 4.05161 108.25 5.00544 108.25 6V11.5363L98.665 16.3288C98.5403 16.391 98.4354 16.4868 98.3621 16.6054C98.2888 16.7239 98.25 16.8606 98.25 17V21C98.2501 21.111 98.2747 21.2205 98.3223 21.3208C98.3698 21.4211 98.439 21.5096 98.5248 21.5799C98.6107 21.6502 98.711 21.7006 98.8187 21.7274C98.9264 21.7542 99.0387 21.7568 99.1475 21.735L108.25 19.915V22.6887L106.47 24.47C106.329 24.6105 106.25 24.8012 106.25 25V29C106.25 29.1226 106.28 29.2433 106.338 29.3516C106.395 29.4598 106.478 29.5524 106.58 29.6211C106.681 29.6898 106.798 29.7326 106.92 29.7457C107.042 29.7588 107.165 29.7418 107.279 29.6963L112 27.8075L116.721 29.6963C116.835 29.7418 116.958 29.7588 117.08 29.7457C117.202 29.7326 117.319 29.6898 117.42 29.6211C117.522 29.5524 117.605 29.4598 117.662 29.3516C117.72 29.2433 117.75 29.1226 117.75 29V25C117.75 24.8012 117.671 24.6105 117.53 24.47L115.75 22.6887V19.915L124.853 21.735C124.961 21.7568 125.074 21.7542 125.181 21.7274C125.289 21.7006 125.389 21.6502 125.475 21.5799C125.561 21.5096 125.63 21.4211 125.678 21.3208C125.725 21.2205 125.75 21.111 125.75 21V17C125.75 16.8606 125.711 16.7239 125.638 16.6054C125.565 16.4868 125.46 16.391 125.335 16.3288ZM124.25 20.085L115.147 18.265C115.039 18.2432 114.926 18.2458 114.819 18.2726C114.711 18.2994 114.611 18.3498 114.525 18.4201C114.439 18.4904 114.37 18.5789 114.322 18.6792C114.275 18.7795 114.25 18.889 114.25 19V23C114.25 23.1988 114.329 23.3895 114.47 23.53L116.25 25.3113V27.8925L112.279 26.3037C112.1 26.2321 111.9 26.2321 111.721 26.3037L107.75 27.8925V25.3113L109.53 23.53C109.671 23.3895 109.75 23.1988 109.75 23V19C109.75 18.889 109.725 18.7795 109.678 18.6792C109.63 18.5789 109.561 18.4904 109.475 18.4201C109.389 18.3498 109.289 18.2994 109.181 18.2726C109.074 18.2458 108.961 18.2432 108.852 18.265L99.75 20.085V17.46L109.335 12.6675C109.459 12.6055 109.564 12.5103 109.637 12.3925C109.71 12.2746 109.749 12.1388 109.75 12V6C109.75 5.40326 109.987 4.83097 110.409 4.40901C110.831 3.98705 111.403 3.75 112 3.75C112.597 3.75 113.169 3.98705 113.591 4.40901C114.013 4.83097 114.25 5.40326 114.25 6V12C114.25 12.1394 114.289 12.2761 114.362 12.3946C114.435 12.5132 114.54 12.609 114.665 12.6713L124.25 17.4638V20.085Z" fill="currentColor"/>
<path d="M173.671 15.6587L164.5 11.0725V6C164.5 4.80653 164.026 3.66193 163.182 2.81802C162.338 1.97411 161.193 1.5 160 1.5C158.807 1.5 157.662 1.97411 156.818 2.81802C155.974 3.66193 155.5 4.80653 155.5 6V11.0725L146.329 15.6587C146.08 15.7834 145.87 15.9748 145.724 16.2117C145.578 16.4486 145.5 16.7215 145.5 17V21C145.5 21.2219 145.549 21.4411 145.644 21.6417C145.739 21.8423 145.877 22.0193 146.049 22.1601C146.22 22.3008 146.421 22.4017 146.636 22.4555C146.852 22.5093 147.076 22.5147 147.294 22.4713L155.5 20.83V22.375L153.939 23.9387C153.799 24.0782 153.689 24.2436 153.614 24.4257C153.539 24.6078 153.5 24.803 153.5 25V29C153.5 29.2452 153.56 29.4866 153.675 29.7031C153.79 29.9197 153.956 30.1048 154.159 30.2422C154.362 30.3796 154.596 30.4652 154.84 30.4914C155.083 30.5176 155.33 30.4836 155.557 30.3925L160 28.615L164.442 30.3925C164.62 30.4638 164.809 30.5003 165 30.5C165.398 30.5 165.779 30.342 166.061 30.0607C166.342 29.7794 166.5 29.3978 166.5 29V25C166.5 24.803 166.461 24.6078 166.386 24.4257C166.311 24.2436 166.201 24.0782 166.061 23.9387L164.5 22.375V20.83L172.706 22.4713C172.924 22.5147 173.148 22.5093 173.364 22.4555C173.579 22.4017 173.78 22.3008 173.951 22.1601C174.123 22.0193 174.261 21.8423 174.356 21.6417C174.451 21.4411 174.5 21.2219 174.5 21V17C174.5 16.7215 174.422 16.4486 174.276 16.2117C174.13 15.9748 173.92 15.7834 173.671 15.6587ZM171.5 19.17L163.294 17.5287C163.076 17.4853 162.852 17.4907 162.636 17.5445C162.421 17.5983 162.22 17.6992 162.049 17.8399C161.877 17.9807 161.739 18.1577 161.644 18.3583C161.549 18.5589 161.5 18.7781 161.5 19V23C161.5 23.197 161.539 23.3922 161.614 23.5743C161.689 23.7564 161.799 23.9218 161.939 24.0613L163.5 25.625V26.7887L160.558 25.6112C160.2 25.468 159.8 25.468 159.443 25.6112L156.5 26.785V25.625L158.061 24.065C158.201 23.9251 158.312 23.7591 158.387 23.5763C158.462 23.3935 158.501 23.1977 158.5 23V19C158.5 18.7781 158.451 18.5589 158.356 18.3583C158.261 18.1577 158.123 17.9807 157.951 17.8399C157.78 17.6992 157.579 17.5983 157.364 17.5445C157.148 17.4907 156.924 17.4853 156.706 17.5287L148.5 19.17V17.9275L157.671 13.3413C157.92 13.2166 158.13 13.0252 158.276 12.7883C158.422 12.5514 158.5 12.2785 158.5 12V6C158.5 5.60218 158.658 5.22064 158.939 4.93934C159.221 4.65804 159.602 4.5 160 4.5C160.398 4.5 160.779 4.65804 161.061 4.93934C161.342 5.22064 161.5 5.60218 161.5 6V12C161.5 12.2785 161.578 12.5514 161.724 12.7883C161.87 13.0252 162.08 13.2166 162.329 13.3413L171.5 17.9275V19.17Z" fill="currentColor"/>
<path d="M222 17V21C222 21.2652 221.895 21.5196 221.707 21.7071C221.52 21.8946 221.265 22 221 22C220.934 22.0002 220.868 21.9935 220.804 21.98L211.5 20.125V23.0912L213.708 25.2975C213.894 25.484 213.999 25.7364 214 26V29C214 29.1639 213.96 29.3253 213.884 29.4701C213.807 29.615 213.696 29.7387 213.56 29.8304C213.424 29.9221 213.268 29.9791 213.105 29.9962C212.942 30.0134 212.777 29.9902 212.625 29.9287L208 28.0775L203.375 29.9287C203.223 29.9902 203.058 30.0134 202.895 29.9962C202.732 29.9791 202.576 29.9221 202.44 29.8304C202.304 29.7387 202.193 29.615 202.116 29.4701C202.04 29.3253 202 29.1639 202 29V26C202 25.8686 202.026 25.7385 202.076 25.6171C202.126 25.4958 202.2 25.3854 202.292 25.2925L204.5 23.0863V20.125L195.196 21.98C195.132 21.9935 195.066 22.0002 195 22C194.735 22 194.48 21.8946 194.293 21.7071C194.105 21.5196 194 21.2652 194 21V17C194 16.8142 194.051 16.6321 194.149 16.474C194.247 16.3159 194.386 16.1881 194.553 16.105L204.5 11.1325V5.5C204.5 4.57174 204.869 3.6815 205.525 3.02513C206.182 2.36875 207.072 2 208 2C208.928 2 209.818 2.36875 210.475 3.02513C211.131 3.6815 211.5 4.57174 211.5 5.5V11.1325L221.448 16.105C221.614 16.1881 221.753 16.3159 221.851 16.474C221.949 16.6321 222 16.8142 222 17Z" fill="currentColor"/>
<path opacity="0.2" d="M259 19V23L261 25V29L256 27L251 29V25L253 23V19L243 21V17L253 12V6C253 5.20435 253.316 4.44129 253.879 3.87868C254.441 3.31607 255.204 3 256 3C256.796 3 257.559 3.31607 258.121 3.87868C258.684 4.44129 259 5.20435 259 6V12L269 17V21L259 19Z" fill="currentColor"/>
<path d="M269.448 16.105L260 11.3825V6C260 4.93913 259.579 3.92172 258.828 3.17157C258.078 2.42143 257.061 2 256 2C254.939 2 253.922 2.42143 253.172 3.17157C252.421 3.92172 252 4.93913 252 6V11.3825L242.553 16.105C242.386 16.1881 242.247 16.3159 242.149 16.474C242.051 16.6321 242 16.8142 242 17V21C242 21.1479 242.033 21.294 242.096 21.4276C242.16 21.5613 242.252 21.6793 242.366 21.773C242.481 21.8667 242.614 21.9339 242.758 21.9697C242.902 22.0055 243.051 22.009 243.196 21.98L252 20.22V22.5863L250.292 24.2925C250.2 24.3854 250.126 24.4958 250.076 24.6171C250.026 24.7385 250 24.8686 250 25V29C250 29.1639 250.04 29.3253 250.116 29.4701C250.193 29.615 250.304 29.7387 250.44 29.8304C250.576 29.9221 250.732 29.9791 250.895 29.9962C251.058 30.0134 251.223 29.9902 251.375 29.9287L256 28.0775L260.625 29.9287C260.777 29.9902 260.942 30.0134 261.105 29.9962C261.268 29.9791 261.424 29.9221 261.56 29.8304C261.696 29.7387 261.807 29.615 261.884 29.4701C261.96 29.3253 262 29.1639 262 29V25C262 24.8686 261.974 24.7385 261.924 24.6171C261.874 24.4958 261.8 24.3854 261.708 24.2925L260 22.5863V20.22L268.804 21.98C268.949 22.009 269.098 22.0055 269.242 21.9697C269.386 21.9339 269.519 21.8667 269.634 21.773C269.748 21.6793 269.84 21.5613 269.904 21.4276C269.967 21.294 270 21.1479 270 21V17C270 16.8142 269.949 16.6321 269.851 16.474C269.753 16.3159 269.614 16.1881 269.448 16.105ZM268 19.78L259.196 18.02C259.051 17.991 258.902 17.9945 258.758 18.0303C258.614 18.0661 258.481 18.1333 258.366 18.227C258.252 18.3207 258.16 18.4387 258.096 18.5724C258.033 18.706 258 18.8521 258 19V23C258 23.1314 258.026 23.2615 258.076 23.3829C258.126 23.5042 258.2 23.6146 258.292 23.7075L260 25.4137V27.5225L256.375 26.0713C256.137 25.976 255.871 25.976 255.632 26.0713L252 27.5225V25.4137L253.708 23.7075C253.8 23.6146 253.874 23.5042 253.924 23.3829C253.974 23.2615 254 23.1314 254 23V19C254 18.8521 253.967 18.706 253.904 18.5724C253.84 18.4387 253.748 18.3207 253.634 18.227C253.519 18.1333 253.386 18.0661 253.242 18.0303C253.098 17.9945 252.949 17.991 252.804 18.02L244 19.78V17.6175L253.448 12.895C253.614 12.8119 253.753 12.6841 253.851 12.526C253.949 12.3679 254 12.1858 254 12V6C254 5.46957 254.211 4.96086 254.586 4.58579C254.961 4.21071 255.47 4 256 4C256.53 4 257.039 4.21071 257.414 4.58579C257.789 4.96086 258 5.46957 258 6V12C258 12.1858 258.051 12.3679 258.149 12.526C258.247 12.6841 258.386 12.8119 258.552 12.895L268 17.6175V19.78Z" fill="currentColor"/>
</g>
<defs>
<clipPath id="clip0_17_18376">
<rect width="272" height="32" rx="5" fill="white"/>
</clipPath>
</defs>
</svg>
