<svg width="272" height="32" viewBox="0 0 272 32" fill="none" xmlns="http://www.w3.org/2000/svg">
<g clip-path="url(#clip0_17_18390)">
<path d="M28.6387 7.8525C28.4543 7.58913 28.209 7.37413 27.9237 7.22572C27.6384 7.07732 27.3216 6.99989 27 7H17V3H19C19.2652 3 19.5196 2.89464 19.7071 2.70711C19.8946 2.51957 20 2.26522 20 2C20 1.73478 19.8946 1.48043 19.7071 1.29289C19.5196 1.10536 19.2652 1 19 1H13C12.7348 1 12.4804 1.10536 12.2929 1.29289C12.1054 1.48043 12 1.73478 12 2C12 2.26522 12.1054 2.51957 12.2929 2.70711C12.4804 2.89464 12.7348 3 13 3H15V7H5C4.67888 7.00072 4.36266 7.07875 4.07807 7.2275C3.79348 7.37624 3.54889 7.59132 3.36498 7.85456C3.18107 8.11779 3.06325 8.42144 3.02148 8.73983C2.97971 9.05822 3.01521 9.38198 3.125 9.68375L6.39875 18.6838C6.53882 19.0688 6.79377 19.4015 7.12912 19.6369C7.46447 19.8723 7.86402 19.9991 8.27375 20H12V28C12 28.2652 12.1054 28.5196 12.2929 28.7071C12.4804 28.8946 12.7348 29 13 29C13.2652 29 13.5196 28.8946 13.7071 28.7071C13.8946 28.5196 14 28.2652 14 28V20H18V28C18 28.2652 18.1054 28.5196 18.2929 28.7071C18.4804 28.8946 18.7348 29 19 29C19.2652 29 19.5196 28.8946 19.7071 28.7071C19.8946 28.5196 20 28.2652 20 28V20H23.7275C24.1372 19.9991 24.5368 19.8723 24.8721 19.6369C25.2075 19.4015 25.4624 19.0688 25.6025 18.6838L28.8762 9.68375C28.9867 9.38189 29.0228 9.05785 28.9815 8.73907C28.9402 8.4203 28.8226 8.11619 28.6387 7.8525ZM13.835 18L12.1975 9H19.8025L18.165 18H13.835ZM5 9H10.165L11.8012 18H8.2725L5 9ZM23.7275 18H20.1987L21.835 9H27L23.7275 18Z" fill="currentColor"/>
<path d="M76.2287 8.13875C76.0903 7.94138 75.9064 7.78028 75.6925 7.66909C75.4786 7.5579 75.2411 7.4999 75 7.5H64.5V2.5H67C67.1326 2.5 67.2598 2.44732 67.3535 2.35355C67.4473 2.25979 67.5 2.13261 67.5 2C67.5 1.86739 67.4473 1.74021 67.3535 1.64645C67.2598 1.55268 67.1326 1.5 67 1.5H61C60.8674 1.5 60.7402 1.55268 60.6464 1.64645C60.5527 1.74021 60.5 1.86739 60.5 2C60.5 2.13261 60.5527 2.25979 60.6464 2.35355C60.7402 2.44732 60.8674 2.5 61 2.5H63.5V7.5H53C52.7589 7.49996 52.5213 7.55804 52.3074 7.66933C52.0935 7.78061 51.9096 7.94182 51.7712 8.13929C51.6329 8.33677 51.5442 8.56468 51.5126 8.80372C51.4811 9.04277 51.5076 9.28589 51.59 9.5125L54.8637 18.5125C54.9689 18.8017 55.1605 19.0516 55.4125 19.2283C55.6645 19.4049 55.9647 19.4998 56.2725 19.5H60.5V28C60.5 28.1326 60.5527 28.2598 60.6464 28.3536C60.7402 28.4473 60.8674 28.5 61 28.5C61.1326 28.5 61.2598 28.4473 61.3535 28.3536C61.4473 28.2598 61.5 28.1326 61.5 28V19.5H66.5V28C66.5 28.1326 66.5527 28.2598 66.6464 28.3536C66.7402 28.4473 66.8674 28.5 67 28.5C67.1326 28.5 67.2598 28.4473 67.3535 28.3536C67.4473 28.2598 67.5 28.1326 67.5 28V19.5H71.7275C72.0353 19.4998 72.3355 19.4049 72.5875 19.2283C72.8395 19.0516 73.0311 18.8017 73.1362 18.5125L76.41 9.5125C76.4925 9.28582 76.5191 9.04259 76.4875 8.80344C76.4559 8.5643 76.3672 8.33629 76.2287 8.13875ZM61.4175 18.5L59.5987 8.5H68.4012L66.5825 18.5H61.4175ZM55.8025 18.1712L52.53 9.17125C52.5024 9.09569 52.4935 9.0146 52.504 8.93487C52.5145 8.85513 52.544 8.7791 52.5902 8.71322C52.6363 8.64734 52.6976 8.59356 52.769 8.55644C52.8403 8.51932 52.9196 8.49996 53 8.5H58.5825L60.4 18.5H56.275C56.172 18.5006 56.0713 18.4693 55.9867 18.4104C55.9021 18.3516 55.8378 18.2681 55.8025 18.1712ZM75.47 9.17125L72.1975 18.1712C72.1624 18.2677 72.0984 18.3509 72.0143 18.4097C71.9302 18.4685 71.8301 18.5 71.7275 18.5H67.6025L69.4212 8.5H75C75.0804 8.49996 75.1597 8.51932 75.231 8.55644C75.3024 8.59356 75.3637 8.64734 75.4098 8.71322C75.4559 8.7791 75.4855 8.85513 75.496 8.93487C75.5065 9.0146 75.4975 9.09569 75.47 9.17125Z" fill="currentColor"/>
<path d="M124.434 8C124.273 7.76882 124.058 7.57992 123.809 7.44934C123.559 7.31877 123.282 7.25038 123 7.25H112.75V2.75H115C115.199 2.75 115.39 2.67098 115.53 2.53033C115.671 2.38968 115.75 2.19891 115.75 2C115.75 1.80109 115.671 1.61032 115.53 1.46967C115.39 1.32902 115.199 1.25 115 1.25H109C108.801 1.25 108.61 1.32902 108.47 1.46967C108.329 1.61032 108.25 1.80109 108.25 2C108.25 2.19891 108.329 2.38968 108.47 2.53033C108.61 2.67098 108.801 2.75 109 2.75H111.25V7.25H101C100.719 7.24997 100.442 7.31774 100.192 7.44755C99.9426 7.57736 99.7281 7.76539 99.5667 7.99572C99.4053 8.22605 99.3018 8.49189 99.2649 8.77072C99.2281 9.04955 99.259 9.33315 99.355 9.5975L102.629 18.5975C102.751 18.9351 102.975 19.2267 103.269 19.4329C103.563 19.6391 103.913 19.7498 104.273 19.75H108.25V28C108.25 28.1989 108.329 28.3897 108.47 28.5303C108.61 28.671 108.801 28.75 109 28.75C109.199 28.75 109.39 28.671 109.53 28.5303C109.671 28.3897 109.75 28.1989 109.75 28V19.75H114.25V28C114.25 28.1989 114.329 28.3897 114.47 28.5303C114.61 28.671 114.801 28.75 115 28.75C115.199 28.75 115.39 28.671 115.53 28.5303C115.671 28.3897 115.75 28.1989 115.75 28V19.75H119.728C120.087 19.7505 120.438 19.6402 120.733 19.434C121.028 19.2277 121.252 18.9357 121.375 18.5975L124.649 9.5975C124.744 9.33349 124.774 9.05054 124.736 8.77252C124.699 8.4945 124.595 8.22955 124.434 8ZM109.625 18.25L107.899 8.75H116.101L114.375 18.25H109.625ZM104.038 18.085L100.765 9.085C100.751 9.04727 100.747 9.00677 100.752 8.96696C100.757 8.92714 100.772 8.88917 100.795 8.85625C100.818 8.82289 100.848 8.79571 100.884 8.77716C100.92 8.75861 100.96 8.74927 101 8.75H106.375L108.103 18.25H104.273C104.221 18.25 104.171 18.2341 104.129 18.2046C104.087 18.1751 104.055 18.1333 104.038 18.085ZM123.235 9.085L119.963 18.085C119.945 18.1333 119.913 18.1751 119.871 18.2046C119.829 18.2341 119.779 18.25 119.728 18.25H115.899L117.625 8.75H123C123.04 8.74927 123.08 8.75861 123.116 8.77716C123.152 8.79571 123.182 8.82289 123.205 8.85625C123.228 8.88917 123.243 8.92714 123.248 8.96696C123.253 9.00677 123.249 9.04727 123.235 9.085Z" fill="currentColor"/>
<path d="M173.047 7.565C172.817 7.23603 172.51 6.96748 172.154 6.78209C171.798 6.5967 171.402 6.49994 171 6.5H161.5V3.5H163C163.398 3.5 163.779 3.34196 164.061 3.06066C164.342 2.77936 164.5 2.39782 164.5 2C164.5 1.60218 164.342 1.22064 164.061 0.93934C163.779 0.658035 163.398 0.5 163 0.5H157C156.602 0.5 156.221 0.658035 155.939 0.93934C155.658 1.22064 155.5 1.60218 155.5 2C155.5 2.39782 155.658 2.77936 155.939 3.06066C156.221 3.34196 156.602 3.5 157 3.5H158.5V6.5H149C148.598 6.49995 148.202 6.59676 147.846 6.78221C147.489 6.96767 147.183 7.2363 146.952 7.56537C146.722 7.89444 146.574 8.27423 146.521 8.67258C146.469 9.07093 146.513 9.4761 146.65 9.85375L149.924 18.8538C150.1 19.3354 150.42 19.7515 150.839 20.0459C151.259 20.3402 151.76 20.4987 152.272 20.5H155.5V28C155.5 28.3978 155.658 28.7794 155.939 29.0607C156.221 29.342 156.602 29.5 157 29.5C157.398 29.5 157.779 29.342 158.061 29.0607C158.342 28.7794 158.5 28.3978 158.5 28V20.5H161.5V28C161.5 28.3978 161.658 28.7794 161.939 29.0607C162.221 29.342 162.602 29.5 163 29.5C163.398 29.5 163.779 29.342 164.061 29.0607C164.342 28.7794 164.5 28.3978 164.5 28V20.5H167.727C168.24 20.4987 168.741 20.3402 169.16 20.0459C169.58 19.7515 169.9 19.3354 170.076 18.8538L173.35 9.85375C173.487 9.47603 173.531 9.07079 173.479 8.67237C173.426 8.27395 173.278 7.89409 173.047 7.565ZM158.25 17.5L156.797 9.5H163.202L161.75 17.5H158.25ZM149.714 9.5H153.75L155.205 17.5H152.625L149.714 9.5ZM167.375 17.5H164.797L166.25 9.5H170.284L167.375 17.5Z" fill="currentColor"/>
<path d="M220.639 7.8525C220.454 7.58913 220.209 7.37413 219.924 7.22572C219.638 7.07732 219.322 6.99989 219 7H209V3H211C211.265 3 211.52 2.89464 211.707 2.70711C211.895 2.51957 212 2.26522 212 2C212 1.73478 211.895 1.48043 211.707 1.29289C211.52 1.10536 211.265 1 211 1H205C204.735 1 204.48 1.10536 204.293 1.29289C204.105 1.48043 204 1.73478 204 2C204 2.26522 204.105 2.51957 204.293 2.70711C204.48 2.89464 204.735 3 205 3H207V7H197C196.679 7.00072 196.363 7.07875 196.078 7.2275C195.794 7.37624 195.549 7.59132 195.365 7.85456C195.181 8.11779 195.063 8.42144 195.022 8.73983C194.98 9.05822 195.015 9.38198 195.125 9.68375L198.399 18.6838C198.539 19.0688 198.794 19.4015 199.129 19.6369C199.464 19.8723 199.864 19.9991 200.274 20H215.728C216.137 19.9991 216.537 19.8723 216.872 19.6369C217.208 19.4015 217.462 19.0688 217.603 18.6838L220.876 9.68375C220.987 9.38189 221.023 9.05785 220.982 8.73907C220.94 8.4203 220.823 8.11619 220.639 7.8525ZM204.815 17.9837C204.756 17.9947 204.695 18.0001 204.635 18C204.401 17.9997 204.175 17.9173 203.995 17.7673C203.816 17.6172 203.694 17.409 203.653 17.1787L202.375 10.1788C202.352 10.0495 202.354 9.91685 202.382 9.78844C202.409 9.66003 202.462 9.53834 202.537 9.43034C202.688 9.21221 202.92 9.06303 203.181 9.01562C203.442 8.96822 203.711 9.02646 203.929 9.17755C204.037 9.25236 204.129 9.34771 204.2 9.45815C204.272 9.5686 204.32 9.69198 204.344 9.82125L205.616 16.8213C205.664 17.0816 205.606 17.3502 205.456 17.5681C205.306 17.786 205.075 17.9354 204.815 17.9837ZM213.625 10.1788L212.351 17.1787C212.309 17.409 212.188 17.6172 212.009 17.7673C211.829 17.9173 211.603 17.9997 211.369 18C211.308 18.0001 211.248 17.9947 211.189 17.9837C210.928 17.9363 210.697 17.7872 210.546 17.5692C210.395 17.3512 210.336 17.0822 210.384 16.8213L211.656 9.82125C211.704 9.56018 211.853 9.32863 212.071 9.17755C212.289 9.02646 212.558 8.96822 212.819 9.01562C213.08 9.06303 213.312 9.21221 213.463 9.43034C213.614 9.64847 213.672 9.91768 213.625 10.1788ZM212 22.5V28C212 28.2652 211.895 28.5196 211.707 28.7071C211.52 28.8946 211.265 29 211 29H205C204.735 29 204.48 28.8946 204.293 28.7071C204.105 28.5196 204 28.2652 204 28V22.5C204 22.3674 204.053 22.2402 204.146 22.1464C204.24 22.0527 204.367 22 204.5 22H211.5C211.633 22 211.76 22.0527 211.854 22.1464C211.947 22.2402 212 22.3674 212 22.5Z" fill="currentColor"/>
<path opacity="0.2" d="M267.939 9.34125L264.666 18.3412C264.596 18.5343 264.468 18.7011 264.3 18.8189C264.132 18.9368 263.932 19 263.726 19H248.274C248.068 19 247.868 18.9368 247.7 18.8189C247.532 18.7011 247.404 18.5343 247.334 18.3412L244.061 9.34125C244.006 9.1903 243.989 9.02838 244.01 8.86917C244.031 8.70996 244.09 8.55815 244.182 8.42659C244.274 8.29502 244.396 8.18757 244.539 8.11332C244.681 8.03906 244.839 8.0002 245 8H267C267.161 8.0002 267.319 8.03906 267.461 8.11332C267.604 8.18757 267.726 8.29502 267.818 8.42659C267.91 8.55815 267.969 8.70996 267.99 8.86917C268.011 9.02838 267.994 9.1903 267.939 9.34125Z" fill="currentColor"/>
<path d="M268.639 7.8525C268.454 7.58913 268.209 7.37413 267.924 7.22572C267.638 7.07732 267.322 6.99989 267 7H257V3H259C259.265 3 259.52 2.89464 259.707 2.70711C259.895 2.51957 260 2.26522 260 2C260 1.73478 259.895 1.48043 259.707 1.29289C259.52 1.10536 259.265 1 259 1H253C252.735 1 252.48 1.10536 252.293 1.29289C252.105 1.48043 252 1.73478 252 2C252 2.26522 252.105 2.51957 252.293 2.70711C252.48 2.89464 252.735 3 253 3H255V7H245C244.679 7.00072 244.363 7.07875 244.078 7.2275C243.794 7.37624 243.549 7.59132 243.365 7.85456C243.181 8.11779 243.063 8.42144 243.022 8.73983C242.98 9.05822 243.015 9.38198 243.125 9.68375L246.399 18.6838C246.539 19.0688 246.794 19.4015 247.129 19.6369C247.464 19.8723 247.864 19.9991 248.274 20H252V28C252 28.2652 252.105 28.5196 252.293 28.7071C252.48 28.8946 252.735 29 253 29C253.265 29 253.52 28.8946 253.707 28.7071C253.895 28.5196 254 28.2652 254 28V20H258V28C258 28.2652 258.105 28.5196 258.293 28.7071C258.48 28.8946 258.735 29 259 29C259.265 29 259.52 28.8946 259.707 28.7071C259.895 28.5196 260 28.2652 260 28V20H263.728C264.137 19.9991 264.537 19.8723 264.872 19.6369C265.208 19.4015 265.462 19.0688 265.603 18.6838L268.876 9.68375C268.987 9.38189 269.023 9.05785 268.982 8.73907C268.94 8.4203 268.823 8.11619 268.639 7.8525ZM253.835 18L252.198 9H259.803L258.165 18H253.835ZM245 9H250.165L251.801 18H248.273L245 9ZM263.728 18H260.199L261.835 9H267L263.728 18Z" fill="currentColor"/>
</g>
<defs>
<clipPath id="clip0_17_18390">
<rect width="272" height="32" rx="5" fill="white"/>
</clipPath>
</defs>
</svg>
