<svg width="272" height="32" viewBox="0 0 272 32" fill="none" xmlns="http://www.w3.org/2000/svg">
<g clip-path="url(#clip0_17_18264)">
<path d="M26 14C25.277 13.9997 24.56 14.1306 23.8838 14.3862L20.7413 9H24C24.2652 9 24.5196 9.10536 24.7071 9.29289C24.8946 9.48043 25 9.73478 25 10C25 10.2652 25.1054 10.5196 25.2929 10.7071C25.4804 10.8946 25.7348 11 26 11C26.2652 11 26.5196 10.8946 26.7071 10.7071C26.8946 10.5196 27 10.2652 27 10C27 9.20435 26.6839 8.44129 26.1213 7.87868C25.5587 7.31607 24.7957 7 24 7H19C18.8247 7.0004 18.6525 7.0469 18.5008 7.13483C18.3491 7.22276 18.2232 7.34903 18.1357 7.50098C18.0482 7.65294 18.0022 7.82522 18.0023 8.00057C18.0024 8.17591 18.0486 8.34815 18.1363 8.5L19.5925 11H12.4075L10.3638 7.5C10.2762 7.34831 10.1503 7.22229 9.99872 7.13454C9.84713 7.04679 9.67516 7.0004 9.50001 7H6.00001C5.73479 7 5.48044 7.10536 5.2929 7.29289C5.10536 7.48043 5.00001 7.73478 5.00001 8C5.00001 8.26522 5.10536 8.51957 5.2929 8.70711C5.48044 8.89464 5.73479 9 6.00001 9H8.92626L10.64 11.9388L8.67626 14.6325C7.32703 13.9573 5.77336 13.8137 4.32323 14.2301C2.87309 14.6466 1.63236 15.5927 0.846979 16.8809C0.0615959 18.1691 -0.211102 19.7054 0.0829403 21.1852C0.376983 22.665 1.2163 23.9803 2.43452 24.8704C3.65273 25.7605 5.16091 26.1604 6.6601 25.9908C8.15928 25.8212 9.54002 25.0945 10.5286 23.9548C11.5172 22.815 12.0415 21.3455 11.9975 19.8374C11.9536 18.3292 11.3446 16.8927 10.2913 15.8125L11.74 13.825L15.6363 20.5C15.6971 20.6223 15.7824 20.7308 15.8869 20.8189C15.9913 20.9069 16.1127 20.9726 16.2435 21.012C16.3743 21.0513 16.5118 21.0634 16.6475 21.0475C16.7832 21.0317 16.9142 20.9882 17.0324 20.9198C17.1507 20.8513 17.2536 20.7594 17.3349 20.6496C17.4162 20.5399 17.4742 20.4146 17.5053 20.2816C17.5363 20.1485 17.5398 20.0105 17.5154 19.8761C17.4911 19.7417 17.4395 19.6137 17.3638 19.5L13.5738 13H20.7588L22.1575 15.3962C21.0746 16.3013 20.3454 17.5592 20.0981 18.9487C19.8508 20.3382 20.1013 21.7704 20.8054 22.9936C21.5096 24.2167 22.6224 25.1525 23.9482 25.6363C25.274 26.1202 26.7279 26.1212 28.0544 25.6392C29.3809 25.1572 30.495 24.2231 31.2009 23.0009C31.9068 21.7788 32.1593 20.3469 31.914 18.9571C31.6686 17.5672 30.9412 16.3083 29.8596 15.4017C28.778 14.4951 27.4113 13.9988 26 14ZM10 20C10.0002 20.8556 9.72615 21.6887 9.21799 22.3769C8.70982 23.0652 7.99435 23.5725 7.17664 23.8241C6.35893 24.0758 5.48208 24.0587 4.67483 23.7752C3.86759 23.4918 3.17249 22.957 2.69162 22.2493C2.21074 21.5417 1.96943 20.6985 2.00311 19.8436C2.03679 18.9888 2.34369 18.1672 2.87874 17.4996C3.4138 16.832 4.14881 16.3535 4.97585 16.1344C5.80289 15.9154 6.67838 15.9673 7.47376 16.2825L5.19251 19.4075C5.10945 19.5131 5.04854 19.6344 5.01341 19.7641C4.97827 19.8938 4.96964 20.0293 4.98803 20.1624C5.00642 20.2955 5.05144 20.4236 5.12042 20.5389C5.18939 20.6542 5.2809 20.7544 5.38949 20.8336C5.49807 20.9128 5.62149 20.9692 5.75238 20.9996C5.88328 21.03 6.01895 21.0338 6.15131 21.0106C6.28367 20.9873 6.40999 20.9377 6.52274 20.8646C6.63548 20.7915 6.73233 20.6964 6.80751 20.585L9.08876 17.46C9.67865 18.1749 10.0009 19.0731 10 20ZM26 24C25.2077 23.9994 24.4335 23.7635 23.7755 23.3223C23.1174 22.8811 22.6052 22.2544 22.3038 21.5217C22.0024 20.7891 21.9254 19.9834 22.0825 19.2068C22.2396 18.4303 22.6238 17.7179 23.1863 17.16L25.1363 20.5C25.1971 20.6223 25.2824 20.7308 25.3869 20.8189C25.4913 20.9069 25.6127 20.9726 25.7435 21.012C25.8743 21.0513 26.0118 21.0634 26.1475 21.0475C26.2832 21.0317 26.4142 20.9882 26.5324 20.9198C26.6507 20.8513 26.7536 20.7594 26.8349 20.6496C26.9162 20.5399 26.9742 20.4146 27.0053 20.2816C27.0363 20.1485 27.0398 20.0105 27.0154 19.8761C26.9911 19.7417 26.9395 19.6137 26.8638 19.5L24.9125 16.1513C25.4627 15.9955 26.0399 15.9595 26.6052 16.0457C27.1705 16.132 27.7108 16.3384 28.1895 16.6511C28.6683 16.9639 29.0744 17.3756 29.3806 17.8586C29.6867 18.3416 29.8857 18.8846 29.9642 19.451C30.0427 20.0174 29.9988 20.5941 29.8355 21.1421C29.6722 21.6902 29.3934 22.1968 29.0177 22.6279C28.642 23.0591 28.1782 23.4046 27.6577 23.6413C27.1371 23.878 26.5718 24.0003 26 24Z" fill="currentColor"/>
<path d="M74 14.5C73.1954 14.4992 72.4006 14.6764 71.6725 15.0188L67.875 8.5H72C72.3978 8.5 72.7794 8.65804 73.0607 8.93934C73.342 9.22064 73.5 9.60218 73.5 10C73.5 10.1326 73.5527 10.2598 73.6465 10.3536C73.7402 10.4473 73.8674 10.5 74 10.5C74.1326 10.5 74.2598 10.4473 74.3536 10.3536C74.4473 10.2598 74.5 10.1326 74.5 10C74.5 9.33696 74.2366 8.70107 73.7678 8.23223C73.2989 7.76339 72.6631 7.5 72 7.5H67C66.9123 7.50009 66.8261 7.52326 66.7502 7.56718C66.6743 7.6111 66.6112 7.67423 66.5674 7.75022C66.5236 7.82622 66.5005 7.9124 66.5005 8.00013C66.5005 8.08785 66.5236 8.17403 66.5675 8.25L68.4625 11.5H60.125L57.9325 7.75C57.8887 7.67407 57.8256 7.61099 57.7497 7.56712C57.6738 7.52324 57.5877 7.50009 57.5 7.5H54C53.8674 7.5 53.7402 7.55268 53.6465 7.64645C53.5527 7.74021 53.5 7.86739 53.5 8C53.5 8.13261 53.5527 8.25979 53.6465 8.35355C53.7402 8.44732 53.8674 8.5 54 8.5H57.2125L59.2363 11.97L56.8213 15.2812C55.6055 14.543 54.1519 14.302 52.7629 14.6083C51.3739 14.9146 50.1565 15.7447 49.364 16.9258C48.5715 18.1069 48.2649 19.5481 48.5081 20.9495C48.7512 22.351 49.5254 23.6047 50.6694 24.4498C51.8135 25.2949 53.2393 25.6664 54.6503 25.4869C56.0613 25.3075 57.3488 24.5909 58.2448 23.4862C59.1408 22.3816 59.5765 20.974 59.461 19.5563C59.3456 18.1387 58.688 16.8201 57.625 15.875L59.7863 12.9125L64.0675 20.25C64.1114 20.3259 64.1744 20.389 64.2503 20.4329C64.3262 20.4768 64.4123 20.4999 64.5 20.5C64.5877 20.4992 64.6738 20.476 64.75 20.4325C64.8069 20.3994 64.8567 20.3554 64.8965 20.3031C64.9364 20.2507 64.9655 20.191 64.9822 20.1274C64.9989 20.0637 65.0029 19.9974 64.994 19.9322C64.985 19.867 64.9633 19.8043 64.93 19.7475L60.7013 12.4975H69.0438L70.8075 15.5212C69.7394 16.2826 68.9785 17.4006 68.6622 18.6736C68.3458 19.9466 68.4949 21.2907 69.0824 22.4635C69.6699 23.6363 70.6572 24.5604 71.8662 25.0693C73.0752 25.5781 74.4262 25.6382 75.6756 25.2385C76.9249 24.8388 77.9903 24.0058 78.6795 22.8898C79.3687 21.7737 79.6363 20.4481 79.4341 19.1521C79.2318 17.8561 78.5731 16.675 77.5767 15.8219C76.5802 14.9689 75.3117 14.5 74 14.5ZM58.5 20C58.5005 20.9897 58.1747 21.952 57.5731 22.7379C56.9715 23.5237 56.1275 24.0893 55.172 24.3471C54.2164 24.6048 53.2025 24.5404 52.2873 24.1637C51.3721 23.787 50.6065 23.1191 50.1093 22.2633C49.612 21.4076 49.4107 20.4118 49.5365 19.4301C49.6624 18.4485 50.1084 17.5356 50.8054 16.833C51.5025 16.1304 52.4117 15.6772 53.3924 15.5436C54.373 15.4099 55.3704 15.6033 56.23 16.0938L53.5963 19.705C53.518 19.8121 53.4855 19.9459 53.5059 20.0769C53.5263 20.2079 53.5979 20.3255 53.705 20.4037C53.8121 20.482 53.9459 20.5145 54.0769 20.4941C54.208 20.4737 54.3255 20.4021 54.4038 20.295L57.0375 16.6825C57.4985 17.1034 57.8667 17.6159 58.1185 18.1871C58.3703 18.7583 58.5003 19.3757 58.5 20ZM74 24.5C73.0544 24.4994 72.1329 24.2009 71.3666 23.6469C70.6002 23.0929 70.0278 22.3115 69.7307 21.4137C69.4336 20.516 69.4269 19.5474 69.7115 18.6456C69.9962 17.7438 70.5576 16.9546 71.3163 16.39L73.5663 20.2525C73.6101 20.3284 73.6731 20.3915 73.7491 20.4354C73.825 20.4793 73.9111 20.5024 73.9988 20.5025C74.0865 20.5017 74.1726 20.4785 74.2488 20.435C74.3056 20.4019 74.3554 20.3579 74.3953 20.3056C74.4351 20.2532 74.4642 20.1935 74.481 20.1299C74.4977 20.0662 74.5017 19.9999 74.4927 19.9347C74.4838 19.8695 74.462 19.8068 74.4288 19.75L72.1788 15.8888C72.7915 15.6161 73.4574 15.4838 74.1279 15.5016C74.7983 15.5194 75.4563 15.6869 76.0537 15.9917C76.6511 16.2965 77.1728 16.731 77.5807 17.2634C77.9885 17.7959 78.2722 18.4127 78.411 19.0689C78.5498 19.725 78.5401 20.4039 78.3828 21.0559C78.2254 21.7078 77.9243 22.3164 77.5015 22.837C77.0787 23.3576 76.5448 23.7771 75.939 24.0648C75.3332 24.3526 74.6707 24.5012 74 24.5Z" fill="currentColor"/>
<path d="M122 14.25C121.236 14.2495 120.479 14.4016 119.775 14.6975L116.306 8.75H120C120.332 8.75 120.649 8.8817 120.884 9.11612C121.118 9.35054 121.25 9.66848 121.25 10C121.25 10.1989 121.329 10.3897 121.47 10.5303C121.61 10.671 121.801 10.75 122 10.75C122.199 10.75 122.39 10.671 122.53 10.5303C122.671 10.3897 122.75 10.1989 122.75 10C122.75 9.27065 122.46 8.57118 121.945 8.05546C121.429 7.53973 120.729 7.25 120 7.25H115C114.869 7.25035 114.739 7.28527 114.626 7.35124C114.512 7.41721 114.418 7.51192 114.352 7.62587C114.286 7.73983 114.252 7.86902 114.252 8.0005C114.252 8.13199 114.287 8.26113 114.353 8.375L116.028 11.25H108.264L106.148 7.625C106.082 7.51128 105.987 7.41679 105.874 7.35098C105.76 7.28518 105.631 7.25035 105.5 7.25H102C101.801 7.25 101.61 7.32902 101.47 7.46967C101.329 7.61032 101.25 7.80109 101.25 8C101.25 8.19891 101.329 8.38968 101.47 8.53033C101.61 8.67098 101.801 8.75 102 8.75H105.069L106.944 11.955L104.75 14.9525C103.464 14.2465 101.957 14.0563 100.536 14.4205C99.1145 14.7847 97.885 15.6761 97.0968 16.9137C96.3087 18.1512 96.0209 19.6423 96.2919 21.0843C96.5629 22.5263 97.3724 23.8112 98.5561 24.6782C99.7398 25.5452 101.209 25.9293 102.666 25.7527C104.122 25.576 105.457 24.8518 106.399 23.727C107.341 22.6022 107.82 21.1611 107.739 19.6961C107.657 18.2311 107.021 16.852 105.96 15.8387L107.764 13.375L111.853 20.375C111.918 20.4889 112.013 20.5835 112.127 20.6493C112.241 20.7151 112.37 20.7499 112.501 20.75C112.633 20.7499 112.763 20.7145 112.876 20.6475C113.048 20.5473 113.173 20.3831 113.223 20.1909C113.274 19.9987 113.246 19.7943 113.146 19.6225L109.138 12.7475H116.901L118.48 15.455C117.404 16.289 116.658 17.4778 116.377 18.8099C116.095 20.1419 116.295 21.5308 116.941 22.7292C117.587 23.9276 118.638 24.8578 119.906 25.3542C121.173 25.8506 122.576 25.881 123.864 25.4401C125.153 24.9991 126.242 24.1153 126.94 22.9461C127.638 21.7769 127.898 20.398 127.674 19.055C127.45 17.712 126.757 16.4919 125.718 15.612C124.679 14.7321 123.362 14.2495 122 14.25ZM106.25 20C106.25 20.9227 105.95 21.8204 105.395 22.5575C104.84 23.2945 104.06 23.8309 103.173 24.0856C102.286 24.3403 101.341 24.2995 100.479 23.9693C99.6175 23.6391 98.8867 23.0374 98.3973 22.2552C97.9078 21.4731 97.6862 20.5528 97.7659 19.6336C97.8456 18.7143 98.2223 17.846 98.8391 17.1597C99.4559 16.4735 100.279 16.0066 101.185 15.8296C102.09 15.6527 103.029 15.7752 103.859 16.1787L101.394 19.5537C101.276 19.7145 101.228 19.9154 101.258 20.112C101.289 20.3087 101.397 20.4851 101.558 20.6025C101.718 20.7199 101.919 20.7685 102.116 20.7378C102.312 20.7071 102.489 20.5995 102.606 20.4387L105.069 17.0637C105.827 17.8531 106.251 18.9054 106.25 20ZM122 24.25C121.132 24.2481 120.285 23.9803 119.573 23.4826C118.862 22.9849 118.32 22.2811 118.02 21.4661C117.721 20.6511 117.678 19.7638 117.898 18.9238C118.118 18.0838 118.59 17.3313 119.25 16.7675L121.353 20.375C121.418 20.4889 121.513 20.5835 121.627 20.6493C121.741 20.7151 121.87 20.7499 122.001 20.75C122.133 20.7499 122.263 20.7145 122.376 20.6475C122.548 20.5473 122.673 20.3831 122.723 20.1909C122.774 19.9987 122.746 19.7943 122.646 19.6225L120.539 16.0088C121.122 15.7954 121.745 15.7124 122.363 15.7656C122.982 15.8188 123.581 16.0069 124.119 16.3166C124.657 16.6263 125.121 17.0502 125.478 17.5584C125.834 18.0665 126.075 18.6467 126.184 19.258C126.292 19.8693 126.265 20.497 126.105 21.0968C125.945 21.6966 125.655 22.2541 125.256 22.7299C124.858 23.2058 124.359 23.5885 123.797 23.8511C123.234 24.1137 122.621 24.2499 122 24.25Z" fill="currentColor"/>
<path d="M169.5 13.5C168.859 13.4997 168.222 13.5945 167.609 13.7812L165.111 9.5H168C168.133 9.5 168.26 9.55268 168.354 9.64645C168.447 9.74021 168.5 9.86739 168.5 10C168.5 10.3978 168.658 10.7794 168.939 11.0607C169.221 11.342 169.602 11.5 170 11.5C170.398 11.5 170.779 11.342 171.061 11.0607C171.342 10.7794 171.5 10.3978 171.5 10C171.5 9.07174 171.131 8.1815 170.475 7.52513C169.818 6.86875 168.928 6.5 168 6.5H162.5C162.237 6.50049 161.979 6.57015 161.751 6.70201C161.523 6.83386 161.334 7.02326 161.203 7.25121C161.072 7.47915 161.003 7.73763 161.003 8.0007C161.003 8.26377 161.072 8.52218 161.204 8.75L162.221 10.5H157.695L155.796 7.25C155.665 7.02238 155.476 6.83329 155.248 6.70166C155.021 6.57003 154.763 6.50049 154.5 6.5H150.5C150.102 6.5 149.721 6.65804 149.439 6.93934C149.158 7.22064 149 7.60218 149 8C149 8.39782 149.158 8.77936 149.439 9.06066C149.721 9.34196 150.102 9.5 150.5 9.5H153.639L155.022 11.875L153.25 14.1112C151.803 13.4321 150.156 13.3083 148.624 13.7634C147.091 14.2185 145.779 15.2208 144.937 16.5797C144.094 17.9387 143.781 19.5598 144.055 21.1348C144.33 22.7098 145.174 24.1291 146.426 25.123C147.678 26.1169 149.252 26.6161 150.848 26.5257C152.445 26.4354 153.952 25.7618 155.084 24.633C156.216 23.5041 156.894 21.9987 156.99 20.4028C157.085 18.8068 156.59 17.2315 155.6 15.9762L156.646 14.655L158.75 18.2563C158.842 18.4396 158.97 18.6022 159.127 18.734C159.284 18.8658 159.466 18.964 159.663 19.0226C159.859 19.0812 160.066 19.0989 160.269 19.0746C160.473 19.0504 160.669 18.9846 160.846 18.8815C161.023 18.7784 161.177 18.6401 161.299 18.4751C161.421 18.31 161.507 18.1219 161.553 17.9221C161.599 17.7224 161.604 17.5153 161.567 17.3137C161.53 17.1121 161.452 16.9203 161.337 16.75L159.445 13.5H163.971L165.02 15.2975C163.927 16.3404 163.232 17.7314 163.053 19.2315C162.874 20.7315 163.224 22.247 164.041 23.5173C164.859 24.7877 166.093 25.7337 167.532 26.1927C168.972 26.6517 170.526 26.5951 171.928 26.0325C173.33 25.47 174.492 24.4367 175.215 23.1102C175.938 21.7837 176.176 20.2469 175.889 18.7638C175.601 17.2807 174.807 15.944 173.641 14.9834C172.475 14.0228 171.011 13.4983 169.5 13.5ZM154 20C154 20.7261 153.774 21.4342 153.354 22.0263C152.934 22.6184 152.34 23.0651 151.655 23.3046C150.969 23.5441 150.226 23.5646 149.529 23.3631C148.831 23.1616 148.214 22.7481 147.761 22.18C147.309 21.6119 147.045 20.9172 147.005 20.1922C146.965 19.4673 147.152 18.7479 147.539 18.1337C147.927 17.5196 148.495 17.041 149.167 16.7644C149.838 16.4879 150.579 16.4269 151.286 16.59L149.324 19.0688C149.077 19.3807 148.964 19.778 149.01 20.1732C149.056 20.5685 149.257 20.9293 149.569 21.1763C149.881 21.4232 150.278 21.5362 150.673 21.4902C151.068 21.4443 151.429 21.2432 151.676 20.9312L153.639 18.4525C153.877 18.9336 154.001 19.4632 154 20ZM169.5 23.5C168.863 23.4997 168.239 23.3258 167.694 22.9969C167.149 22.668 166.703 22.1966 166.406 21.6336C166.109 21.0705 165.971 20.4371 166.007 19.8014C166.043 19.1658 166.252 18.552 166.611 18.0263L168.204 20.7563C168.41 21.0859 168.737 21.3224 169.115 21.4158C169.493 21.5091 169.892 21.452 170.228 21.2565C170.565 21.0611 170.812 20.7425 170.918 20.3681C171.024 19.9937 170.98 19.5928 170.796 19.25L169.202 16.52C169.301 16.5113 169.4 16.5063 169.5 16.5063C170.428 16.5063 171.318 16.875 171.975 17.5314C172.631 18.1878 173 19.078 173 20.0063C173 20.9345 172.631 21.8247 171.975 22.4811C171.318 23.1375 170.428 23.5063 169.5 23.5063V23.5Z" fill="currentColor"/>
<path d="M198.808 20.5888L202.291 15.8125C203.341 16.8901 203.948 18.3228 203.991 19.8266C204.034 21.3304 203.511 22.7956 202.525 23.9318C201.539 25.0681 200.162 25.7925 198.667 25.9614C197.172 26.1303 195.669 25.7315 194.454 24.844C193.239 23.9564 192.402 22.6449 192.109 21.1694C191.815 19.6938 192.087 18.1619 192.87 16.8772C193.653 15.5925 194.89 14.6488 196.335 14.233C197.781 13.8173 199.331 13.9598 200.676 14.6325L197.193 19.4112C197.109 19.5169 197.049 19.6382 197.013 19.7679C196.978 19.8976 196.97 20.033 196.988 20.1662C197.006 20.2993 197.051 20.4273 197.12 20.5426C197.189 20.658 197.281 20.7582 197.389 20.8374C197.498 20.9165 197.621 20.973 197.752 21.0034C197.883 21.0338 198.019 21.0375 198.151 21.0143C198.284 20.9911 198.41 20.9415 198.523 20.8683C198.635 20.7952 198.732 20.7001 198.808 20.5888ZM218 14C217.277 13.9997 216.56 14.1306 215.884 14.3862L218.864 19.5C218.939 19.6137 218.991 19.7417 219.015 19.8761C219.04 20.0105 219.036 20.1485 219.005 20.2816C218.974 20.4146 218.916 20.5399 218.835 20.6496C218.754 20.7594 218.651 20.8513 218.532 20.9198C218.414 20.9882 218.283 21.0317 218.148 21.0475C218.012 21.0634 217.874 21.0513 217.744 21.012C217.613 20.9726 217.491 20.9069 217.387 20.8189C217.282 20.7308 217.197 20.6223 217.136 20.5L214.158 15.3925C213.074 16.2966 212.343 17.5538 212.095 18.9431C211.846 20.3325 212.095 21.765 212.798 22.9888C213.501 24.2126 214.613 25.1494 215.939 25.6345C217.264 26.1196 218.718 26.1219 220.045 25.641C221.372 25.1601 222.487 24.2268 223.194 23.0053C223.901 21.7837 224.155 20.3519 223.91 18.9618C223.666 17.5717 222.94 16.3122 221.859 15.4047C220.778 14.4972 219.411 13.9998 218 14ZM212.741 9H216C216.265 9 216.52 9.10536 216.707 9.29289C216.895 9.48043 217 9.73478 217 10C217 10.2652 217.105 10.5196 217.293 10.7071C217.48 10.8946 217.735 11 218 11C218.265 11 218.52 10.8946 218.707 10.7071C218.895 10.5196 219 10.2652 219 10C219 9.20435 218.684 8.44129 218.121 7.87868C217.559 7.31607 216.796 7 216 7H211C210.825 7.0004 210.653 7.0469 210.501 7.13483C210.349 7.22276 210.223 7.34903 210.136 7.50098C210.048 7.65294 210.002 7.82522 210.002 8.00057C210.002 8.17591 210.049 8.34815 210.136 8.5L211.593 11H204.408L202.364 7.5C202.276 7.34831 202.15 7.22229 201.999 7.13454C201.847 7.04679 201.675 7.0004 201.5 7H198C197.735 7 197.48 7.10536 197.293 7.29289C197.105 7.48043 197 7.73478 197 8C197 8.26522 197.105 8.51957 197.293 8.70711C197.48 8.89464 197.735 9 198 9H200.926L202.64 11.9388L200.676 14.6325C201.277 14.9324 201.823 15.3313 202.291 15.8125L203.74 13.825L207.636 20.5C207.697 20.6223 207.782 20.7308 207.887 20.8189C207.991 20.9069 208.113 20.9726 208.244 21.012C208.374 21.0513 208.512 21.0634 208.648 21.0475C208.783 21.0317 208.914 20.9882 209.032 20.9198C209.151 20.8513 209.254 20.7594 209.335 20.6496C209.416 20.5399 209.474 20.4146 209.505 20.2816C209.536 20.1485 209.54 20.0105 209.515 19.8761C209.491 19.7417 209.439 19.6137 209.364 19.5L205.574 13H212.759L214.158 15.3962C214.673 14.9656 215.256 14.6242 215.884 14.3862L212.741 9Z" fill="currentColor"/>
<path opacity="0.2" d="M271 20C271 20.9889 270.707 21.9556 270.157 22.7779C269.608 23.6001 268.827 24.241 267.913 24.6194C267 24.9978 265.994 25.0969 265.025 24.9039C264.055 24.711 263.164 24.2348 262.464 23.5355C261.765 22.8363 261.289 21.9454 261.096 20.9755C260.903 20.0055 261.002 19.0002 261.381 18.0866C261.759 17.173 262.4 16.3921 263.222 15.8427C264.044 15.2932 265.011 15 266 15C267.326 15 268.598 15.5268 269.536 16.4645C270.473 17.4021 271 18.6739 271 20ZM246 15C245.011 15 244.044 15.2932 243.222 15.8427C242.4 16.3921 241.759 17.173 241.381 18.0866C241.002 19.0002 240.903 20.0055 241.096 20.9755C241.289 21.9454 241.765 22.8363 242.464 23.5355C243.164 24.2348 244.055 24.711 245.025 24.9039C245.994 25.0969 247 24.9978 247.913 24.6194C248.827 24.241 249.608 23.6001 250.157 22.7779C250.707 21.9556 251 20.9889 251 20C251 18.6739 250.473 17.4021 249.536 16.4645C248.598 15.5268 247.326 15 246 15Z" fill="currentColor"/>
<path d="M266 14C265.277 13.9997 264.56 14.1306 263.884 14.3862L260.741 9H264C264.265 9 264.52 9.10536 264.707 9.29289C264.895 9.48043 265 9.73478 265 10C265 10.2652 265.105 10.5196 265.293 10.7071C265.48 10.8946 265.735 11 266 11C266.265 11 266.52 10.8946 266.707 10.7071C266.895 10.5196 267 10.2652 267 10C267 9.20435 266.684 8.44129 266.121 7.87868C265.559 7.31607 264.796 7 264 7H259C258.825 7.0004 258.652 7.0469 258.501 7.13483C258.349 7.22276 258.223 7.34903 258.136 7.50098C258.048 7.65294 258.002 7.82522 258.002 8.00057C258.002 8.17591 258.049 8.34815 258.136 8.5L259.592 11H252.407L250.364 7.5C250.276 7.34831 250.15 7.22229 249.999 7.13454C249.847 7.04679 249.675 7.0004 249.5 7H246C245.735 7 245.48 7.10536 245.293 7.29289C245.105 7.48043 245 7.73478 245 8C245 8.26522 245.105 8.51957 245.293 8.70711C245.48 8.89464 245.735 9 246 9H248.926L250.64 11.9388L248.676 14.6325C247.327 13.9573 245.773 13.8137 244.323 14.2301C242.873 14.6466 241.632 15.5927 240.847 16.8809C240.062 18.1691 239.789 19.7054 240.083 21.1852C240.377 22.665 241.216 23.9803 242.434 24.8704C243.653 25.7605 245.161 26.1604 246.66 25.9908C248.159 25.8212 249.54 25.0945 250.529 23.9548C251.517 22.815 252.041 21.3455 251.997 19.8374C251.954 18.3292 251.345 16.8927 250.291 15.8125L251.74 13.825L255.636 20.5C255.697 20.6223 255.782 20.7308 255.887 20.8189C255.991 20.9069 256.113 20.9726 256.243 21.012C256.374 21.0513 256.512 21.0634 256.647 21.0475C256.783 21.0317 256.914 20.9882 257.032 20.9198C257.151 20.8513 257.254 20.7594 257.335 20.6496C257.416 20.5399 257.474 20.4146 257.505 20.2816C257.536 20.1485 257.54 20.0105 257.515 19.8761C257.491 19.7417 257.439 19.6137 257.364 19.5L253.574 13H260.759L262.157 15.3962C261.075 16.3013 260.345 17.5592 260.098 18.9487C259.851 20.3382 260.101 21.7704 260.805 22.9936C261.51 24.2167 262.622 25.1525 263.948 25.6363C265.274 26.1202 266.728 26.1212 268.054 25.6392C269.381 25.1572 270.495 24.2231 271.201 23.0009C271.907 21.7788 272.159 20.3469 271.914 18.9571C271.669 17.5672 270.941 16.3083 269.86 15.4017C268.778 14.4951 267.411 13.9988 266 14ZM250 20C250 20.8556 249.726 21.6887 249.218 22.3769C248.71 23.0652 247.994 23.5725 247.177 23.8241C246.359 24.0758 245.482 24.0587 244.675 23.7752C243.868 23.4918 243.172 22.957 242.692 22.2493C242.211 21.5417 241.969 20.6985 242.003 19.8436C242.037 18.9888 242.344 18.1672 242.879 17.4996C243.414 16.832 244.149 16.3535 244.976 16.1344C245.803 15.9154 246.678 15.9673 247.474 16.2825L245.192 19.4075C245.109 19.5131 245.049 19.6344 245.013 19.7641C244.978 19.8938 244.97 20.0293 244.988 20.1624C245.006 20.2955 245.051 20.4236 245.12 20.5389C245.189 20.6542 245.281 20.7544 245.389 20.8336C245.498 20.9128 245.621 20.9692 245.752 20.9996C245.883 21.03 246.019 21.0338 246.151 21.0106C246.284 20.9873 246.41 20.9377 246.523 20.8646C246.635 20.7915 246.732 20.6964 246.807 20.585L249.089 17.46C249.679 18.1749 250.001 19.0731 250 20ZM266 24C265.208 23.9994 264.433 23.7635 263.775 23.3223C263.117 22.8811 262.605 22.2544 262.304 21.5217C262.002 20.7891 261.925 19.9834 262.082 19.2068C262.24 18.4303 262.624 17.7179 263.186 17.16L265.136 20.5C265.197 20.6223 265.282 20.7308 265.387 20.8189C265.491 20.9069 265.613 20.9726 265.743 21.012C265.874 21.0513 266.012 21.0634 266.147 21.0475C266.283 21.0317 266.414 20.9882 266.532 20.9198C266.651 20.8513 266.754 20.7594 266.835 20.6496C266.916 20.5399 266.974 20.4146 267.005 20.2816C267.036 20.1485 267.04 20.0105 267.015 19.8761C266.991 19.7417 266.939 19.6137 266.864 19.5L264.912 16.1513C265.463 15.9955 266.04 15.9595 266.605 16.0457C267.171 16.132 267.711 16.3384 268.19 16.6511C268.668 16.9639 269.074 17.3756 269.381 17.8586C269.687 18.3416 269.886 18.8846 269.964 19.451C270.043 20.0174 269.999 20.5941 269.835 21.1421C269.672 21.6902 269.393 22.1968 269.018 22.6279C268.642 23.0591 268.178 23.4046 267.658 23.6413C267.137 23.878 266.572 24.0003 266 24Z" fill="currentColor"/>
</g>
<defs>
<clipPath id="clip0_17_18264">
<rect width="272" height="32" rx="5" fill="white"/>
</clipPath>
</defs>
</svg>
