<svg width="272" height="32" viewBox="0 0 272 32" fill="none" xmlns="http://www.w3.org/2000/svg">
<g clip-path="url(#clip0_17_18250)">
<path d="M27.6325 13.8287L26 13.2837V7C26 6.46957 25.7893 5.96086 25.4142 5.58579C25.0391 5.21071 24.5304 5 24 5H17V3C17 2.73478 16.8946 2.48043 16.7071 2.29289C16.5196 2.10536 16.2652 2 16 2C15.7348 2 15.4804 2.10536 15.2929 2.29289C15.1054 2.48043 15 2.73478 15 3V5H8C7.46957 5 6.96086 5.21071 6.58579 5.58579C6.21072 5.96086 6 6.46957 6 7V13.2837L4.3675 13.8287C3.96906 13.9616 3.62255 14.2165 3.3771 14.5573C3.13164 14.8981 2.99971 15.3075 3 15.7275V20.0125C2.99973 20.1051 3.01278 20.1973 3.03875 20.2862C5.00375 27.1725 13.8038 29.5437 15.5475 29.9487C15.8453 30.0171 16.1547 30.0171 16.4525 29.9487C18.1963 29.5437 26.9963 27.1725 28.9613 20.2862C28.9872 20.1973 29.0003 20.1051 29 20.0125V15.7275C29.0003 15.3075 28.8684 14.8981 28.6229 14.5573C28.3775 14.2165 28.0309 13.9616 27.6325 13.8287ZM8 7H24V12.6163L16.3163 10.0513C16.111 9.98282 15.889 9.98282 15.6838 10.0513L8 12.6163V7ZM27 19.8675C26.2775 22.2425 24.4313 24.2638 21.5063 25.8825C19.7707 26.8247 17.9197 27.5365 16 28C14.0825 27.536 12.2336 26.8242 10.5 25.8825C7.57 24.2638 5.7225 22.2413 5 19.8675V15.7262L15 12.3888V21C15 21.2652 15.1054 21.5196 15.2929 21.7071C15.4804 21.8946 15.7348 22 16 22C16.2652 22 16.5196 21.8946 16.7071 21.7071C16.8946 21.5196 17 21.2652 17 21V12.3888L27 15.7275V19.8675Z" fill="currentColor"/>
<path d="M75.475 14.3025L73.5 13.6438V7C73.5 6.60218 73.342 6.22064 73.0607 5.93934C72.7794 5.65804 72.3978 5.5 72 5.5H64.5V3C64.5 2.86739 64.4473 2.74021 64.3536 2.64645C64.2598 2.55268 64.1326 2.5 64 2.5C63.8674 2.5 63.7402 2.55268 63.6465 2.64645C63.5527 2.74021 63.5 2.86739 63.5 3V5.5H56C55.6022 5.5 55.2206 5.65804 54.9393 5.93934C54.658 6.22064 54.5 6.60218 54.5 7V13.6438L52.525 14.3025C52.2261 14.4023 51.9663 14.5936 51.7823 14.8494C51.5983 15.1052 51.4995 15.4124 51.5 15.7275V20.0112C51.4998 20.0577 51.5061 20.104 51.5188 20.1488C53.4075 26.7663 61.965 29.0662 63.6613 29.4613C63.8841 29.5129 64.1159 29.5129 64.3388 29.4613C66.035 29.0662 74.5888 26.7663 76.4813 20.1488C76.4939 20.104 76.5002 20.0577 76.5 20.0112V15.7275C76.5005 15.4124 76.4017 15.1052 76.2177 14.8494C76.0337 14.5936 75.7739 14.4023 75.475 14.3025ZM55.5 7C55.5 6.86739 55.5527 6.74021 55.6465 6.64645C55.7402 6.55268 55.8674 6.5 56 6.5H72C72.1326 6.5 72.2598 6.55268 72.3536 6.64645C72.4473 6.74021 72.5 6.86739 72.5 7V13.31L64.1588 10.5262C64.0557 10.4918 63.9443 10.4918 63.8413 10.5262L55.5 13.31V7ZM75.5 19.9412C74.75 22.4737 72.82 24.62 69.75 26.3162C67.9736 27.2811 66.0789 28.0097 64.1138 28.4837C64.0398 28.5012 63.9627 28.5012 63.8888 28.4837C61.9229 28.0107 60.0273 27.2829 58.25 26.3188C55.18 24.625 53.25 22.4737 52.5 19.9412V15.7275C52.4994 15.6219 52.5322 15.5189 52.5937 15.4331C52.6552 15.3474 52.7423 15.2832 52.8425 15.25L63.5 11.6938V21C63.5 21.1326 63.5527 21.2598 63.6465 21.3536C63.7402 21.4473 63.8674 21.5 64 21.5C64.1326 21.5 64.2598 21.4473 64.3536 21.3536C64.4473 21.2598 64.5 21.1326 64.5 21V11.6938L75.1575 15.25C75.2575 15.2832 75.3444 15.3471 75.4059 15.4326C75.4674 15.5181 75.5004 15.6209 75.5 15.7262V19.9412Z" fill="currentColor"/>
<path d="M123.554 14.0662L121.75 13.4637V7C121.75 6.53587 121.566 6.09075 121.237 5.76256C120.909 5.43437 120.464 5.25 120 5.25H112.75V3C112.75 2.80109 112.671 2.61032 112.53 2.46967C112.39 2.32902 112.199 2.25 112 2.25C111.801 2.25 111.61 2.32902 111.47 2.46967C111.329 2.61032 111.25 2.80109 111.25 3V5.25H104C103.536 5.25 103.091 5.43437 102.763 5.76256C102.434 6.09075 102.25 6.53587 102.25 7V13.4637L100.446 14.0662C100.098 14.1825 99.7946 14.4055 99.5799 14.7037C99.3652 15.0019 99.2498 15.3601 99.25 15.7275V20.0125C99.2502 20.0818 99.2598 20.1508 99.2788 20.2175C101.205 26.9675 109.884 29.305 111.604 29.705C111.865 29.765 112.135 29.765 112.396 29.705C114.116 29.305 122.795 26.97 124.721 20.2175C124.74 20.1508 124.75 20.0818 124.75 20.0125V15.7275C124.75 15.3601 124.635 15.0019 124.42 14.7037C124.205 14.4055 123.902 14.1825 123.554 14.0662ZM103.75 7C103.75 6.9337 103.776 6.87011 103.823 6.82322C103.87 6.77634 103.934 6.75 104 6.75H120C120.066 6.75 120.13 6.77634 120.177 6.82322C120.224 6.87011 120.25 6.9337 120.25 7V12.9625L112.237 10.2887C112.083 10.2373 111.917 10.2373 111.762 10.2887L103.75 12.9625V7ZM123.25 19.905C122.516 22.3575 120.625 24.4425 117.625 26.1C115.87 27.0559 113.998 27.7786 112.056 28.25C112.019 28.2585 111.981 28.2585 111.944 28.25C110.002 27.7786 108.13 27.0559 106.375 26.1C103.375 24.4425 101.486 22.3575 100.75 19.905V15.7275C100.75 15.6747 100.766 15.6232 100.797 15.5803C100.828 15.5374 100.871 15.5054 100.921 15.4888L111.25 12.0413V21C111.25 21.1989 111.329 21.3897 111.47 21.5303C111.61 21.671 111.801 21.75 112 21.75C112.199 21.75 112.39 21.671 112.53 21.5303C112.671 21.3897 112.75 21.1989 112.75 21V12.0413L123.079 15.4888C123.129 15.5054 123.172 15.5374 123.203 15.5803C123.234 15.6232 123.25 15.6747 123.25 15.7275V19.905Z" fill="currentColor"/>
<path d="M171.791 13.355L170.5 12.9237V7C170.5 6.33696 170.237 5.70107 169.768 5.23223C169.299 4.76339 168.663 4.5 168 4.5H161.5V3C161.5 2.60218 161.342 2.22064 161.061 1.93934C160.779 1.65804 160.398 1.5 160 1.5C159.602 1.5 159.221 1.65804 158.939 1.93934C158.658 2.22064 158.5 2.60218 158.5 3V4.5H152C151.337 4.5 150.701 4.76339 150.232 5.23223C149.763 5.70107 149.5 6.33696 149.5 7V12.9237L148.209 13.355C147.711 13.5212 147.277 13.8401 146.971 14.2664C146.664 14.6927 146.499 15.2048 146.5 15.73V20.0125C146.5 20.1516 146.52 20.2899 146.558 20.4237C148.6 27.58 157.643 30.0187 159.433 30.435C159.805 30.5216 160.192 30.5216 160.565 30.435C162.356 30.0187 171.399 27.58 173.44 20.4237C173.478 20.2899 173.497 20.1516 173.498 20.0125V15.7275C173.498 15.203 173.333 14.6918 173.027 14.266C172.721 13.8402 172.289 13.5215 171.791 13.355ZM152.5 7.5H167.5V11.9225L160.475 9.5775C160.167 9.47457 159.833 9.47457 159.525 9.5775L152.5 11.9225V7.5ZM170.5 19.7925C168.818 25.12 161.32 27.1675 160 27.4862C158.681 27.165 151.183 25.1213 149.5 19.7925V16.0863L158.5 13.0863V21C158.5 21.3978 158.658 21.7794 158.939 22.0607C159.221 22.342 159.602 22.5 160 22.5C160.398 22.5 160.779 22.342 161.061 22.0607C161.342 21.7794 161.5 21.3978 161.5 21V13.0825L170.5 16.0825V19.7925Z" fill="currentColor"/>
<path d="M219.633 13.8287L218 13.2837V7C218 6.46957 217.789 5.96086 217.414 5.58579C217.039 5.21071 216.53 5 216 5H209V3C209 2.73478 208.895 2.48043 208.707 2.29289C208.52 2.10536 208.265 2 208 2C207.735 2 207.48 2.10536 207.293 2.29289C207.105 2.48043 207 2.73478 207 3V5H200C199.47 5 198.961 5.21071 198.586 5.58579C198.211 5.96086 198 6.46957 198 7V13.2837L196.368 13.8287C195.969 13.9616 195.623 14.2165 195.377 14.5573C195.132 14.8981 195 15.3075 195 15.7275V20.0125C195 20.1051 195.013 20.1973 195.039 20.2862C197.004 27.1725 205.804 29.5437 207.548 29.9487C207.845 30.0171 208.155 30.0171 208.453 29.9487C210.196 29.5437 218.996 27.1725 220.961 20.2862C220.987 20.1973 221 20.1051 221 20.0125V15.7275C221 15.3075 220.868 14.8981 220.623 14.5573C220.377 14.2165 220.031 13.9616 219.633 13.8287ZM209 21C209 21.2652 208.895 21.5196 208.707 21.7071C208.52 21.8946 208.265 22 208 22C207.735 22 207.48 21.8946 207.293 21.7071C207.105 21.5196 207 21.2652 207 21V14C207 13.7348 207.105 13.4804 207.293 13.2929C207.48 13.1054 207.735 13 208 13C208.265 13 208.52 13.1054 208.707 13.2929C208.895 13.4804 209 13.7348 209 14V21ZM216 12.6163L208.316 10.0513C208.111 9.98282 207.889 9.98282 207.684 10.0513L200 12.6163V7H216V12.6163Z" fill="currentColor"/>
<path opacity="0.2" d="M268 15.7275V20.0125C266.179 26.3963 257.721 28.6262 256.226 28.9737C256.077 29.0087 255.923 29.0087 255.774 28.9737C254.279 28.625 245.821 26.3963 244 20.0125V15.7275C244 15.5174 244.066 15.3125 244.188 15.142C244.311 14.9715 244.484 14.8439 244.684 14.7775L256 11L267.316 14.7775C267.516 14.8439 267.689 14.9715 267.812 15.142C267.934 15.3125 268 15.5174 268 15.7275Z" fill="currentColor"/>
<path d="M267.633 13.8287L266 13.2837V7C266 6.46957 265.789 5.96086 265.414 5.58579C265.039 5.21071 264.53 5 264 5H257V3C257 2.73478 256.895 2.48043 256.707 2.29289C256.52 2.10536 256.265 2 256 2C255.735 2 255.48 2.10536 255.293 2.29289C255.105 2.48043 255 2.73478 255 3V5H248C247.47 5 246.961 5.21071 246.586 5.58579C246.211 5.96086 246 6.46957 246 7V13.2837L244.368 13.8287C243.969 13.9616 243.623 14.2165 243.377 14.5573C243.132 14.8981 243 15.3075 243 15.7275V20.0125C243 20.1051 243.013 20.1973 243.039 20.2862C245.004 27.1725 253.804 29.5437 255.548 29.9487C255.845 30.0171 256.155 30.0171 256.453 29.9487C258.196 29.5437 266.996 27.1725 268.961 20.2862C268.987 20.1973 269 20.1051 269 20.0125V15.7275C269 15.3075 268.868 14.8981 268.623 14.5573C268.377 14.2165 268.031 13.9616 267.633 13.8287ZM248 7H264V12.6163L256.316 10.0513C256.111 9.98282 255.889 9.98282 255.684 10.0513L248 12.6163V7ZM267 19.8675C266.278 22.2425 264.431 24.2638 261.506 25.8825C259.771 26.8247 257.92 27.5365 256 28C254.082 27.536 252.234 26.8242 250.5 25.8825C247.57 24.2638 245.723 22.2413 245 19.8675V15.7262L255 12.3888V21C255 21.2652 255.105 21.5196 255.293 21.7071C255.48 21.8946 255.735 22 256 22C256.265 22 256.52 21.8946 256.707 21.7071C256.895 21.5196 257 21.2652 257 21V12.3888L267 15.7275V19.8675Z" fill="currentColor"/>
</g>
<defs>
<clipPath id="clip0_17_18250">
<rect width="272" height="32" rx="5" fill="white"/>
</clipPath>
</defs>
</svg>
