<svg width="272" height="32" viewBox="0 0 272 32" fill="none" xmlns="http://www.w3.org/2000/svg">
<g clip-path="url(#clip0_17_18236)">
<path d="M23 4H9C7.93913 4 6.92172 4.42143 6.17157 5.17157C5.42143 5.92172 5 6.93913 5 8V26C5 26.5304 5.21071 27.0391 5.58579 27.4142C5.96086 27.7893 6.46957 28 7 28H10C10.5304 28 11.0391 27.7893 11.4142 27.4142C11.7893 27.0391 12 26.5304 12 26V24H20V26C20 26.5304 20.2107 27.0391 20.5858 27.4142C20.9609 27.7893 21.4696 28 22 28H25C25.5304 28 26.0391 27.7893 26.4142 27.4142C26.7893 27.0391 27 26.5304 27 26V8C27 6.93913 26.5786 5.92172 25.8284 5.17157C25.0783 4.42143 24.0609 4 23 4ZM7 22V15H25V22H7ZM7 10H25V13H7V10ZM9 6H23C23.5304 6 24.0391 6.21071 24.4142 6.58579C24.7893 6.96086 25 7.46957 25 8H7C7 7.46957 7.21071 6.96086 7.58579 6.58579C7.96086 6.21071 8.46957 6 9 6ZM10 26H7V24H10V26ZM22 26V24H25V26H22ZM13 18.5C13 18.7967 12.912 19.0867 12.7472 19.3334C12.5824 19.58 12.3481 19.7723 12.074 19.8858C11.7999 19.9993 11.4983 20.0291 11.2074 19.9712C10.9164 19.9133 10.6491 19.7704 10.4393 19.5607C10.2296 19.3509 10.0867 19.0836 10.0288 18.7926C9.97094 18.5017 10.0006 18.2001 10.1142 17.926C10.2277 17.6519 10.42 17.4176 10.6666 17.2528C10.9133 17.088 11.2033 17 11.5 17C11.8978 17 12.2794 17.158 12.5607 17.4393C12.842 17.7206 13 18.1022 13 18.5ZM22 18.5C22 18.7967 21.912 19.0867 21.7472 19.3334C21.5824 19.58 21.3481 19.7723 21.074 19.8858C20.7999 19.9993 20.4983 20.0291 20.2074 19.9712C19.9164 19.9133 19.6491 19.7704 19.4393 19.5607C19.2296 19.3509 19.0867 19.0836 19.0288 18.7926C18.9709 18.5017 19.0007 18.2001 19.1142 17.926C19.2277 17.6519 19.42 17.4176 19.6666 17.2528C19.9133 17.088 20.2033 17 20.5 17C20.8978 17 21.2794 17.158 21.5607 17.4393C21.842 17.7206 22 18.1022 22 18.5ZM31 10V13C31 13.2652 30.8946 13.5196 30.7071 13.7071C30.5196 13.8946 30.2652 14 30 14C29.7348 14 29.4804 13.8946 29.2929 13.7071C29.1054 13.5196 29 13.2652 29 13V10C29 9.73478 29.1054 9.48043 29.2929 9.29289C29.4804 9.10536 29.7348 9 30 9C30.2652 9 30.5196 9.10536 30.7071 9.29289C30.8946 9.48043 31 9.73478 31 10ZM3 10V13C3 13.2652 2.89464 13.5196 2.70711 13.7071C2.51957 13.8946 2.26522 14 2 14C1.73478 14 1.48043 13.8946 1.29289 13.7071C1.10536 13.5196 1 13.2652 1 13V10C1 9.73478 1.10536 9.48043 1.29289 9.29289C1.48043 9.10536 1.73478 9 2 9C2.26522 9 2.51957 9.10536 2.70711 9.29289C2.89464 9.48043 3 9.73478 3 10Z" fill="currentColor"/>
<path d="M71 4.5H57C56.0717 4.5 55.1815 4.86875 54.5251 5.52513C53.8687 6.1815 53.5 7.07174 53.5 8V26C53.5 26.3978 53.658 26.7794 53.9393 27.0607C54.2206 27.342 54.6022 27.5 55 27.5H58C58.3978 27.5 58.7794 27.342 59.0607 27.0607C59.342 26.7794 59.5 26.3978 59.5 26V23.5H68.5V26C68.5 26.3978 68.658 26.7794 68.9393 27.0607C69.2206 27.342 69.6022 27.5 70 27.5H73C73.3978 27.5 73.7794 27.342 74.0607 27.0607C74.342 26.7794 74.5 26.3978 74.5 26V8C74.5 7.07174 74.1313 6.1815 73.4749 5.52513C72.8185 4.86875 71.9283 4.5 71 4.5ZM54.5 22.5V14.5H73.5V22.5H54.5ZM73.5 13.5H54.5V9.5H73.5V13.5ZM58.5 26C58.5 26.1326 58.4473 26.2598 58.3536 26.3536C58.2598 26.4473 58.1326 26.5 58 26.5H55C54.8674 26.5 54.7402 26.4473 54.6464 26.3536C54.5527 26.2598 54.5 26.1326 54.5 26V23.5H58.5V26ZM73 26.5H70C69.8674 26.5 69.7402 26.4473 69.6464 26.3536C69.5527 26.2598 69.5 26.1326 69.5 26V23.5H73.5V26C73.5 26.1326 73.4473 26.2598 73.3536 26.3536C73.2598 26.4473 73.1326 26.5 73 26.5ZM73.5 8.5H54.5V8C54.5 7.33696 54.7634 6.70107 55.2322 6.23223C55.7011 5.76339 56.337 5.5 57 5.5H71C71.663 5.5 72.2989 5.76339 72.7678 6.23223C73.2366 6.70107 73.5 7.33696 73.5 8V8.5ZM60.5 18.5C60.5 18.6978 60.4414 18.8911 60.3315 19.0556C60.2216 19.22 60.0654 19.3482 59.8827 19.4239C59.7 19.4996 59.4989 19.5194 59.3049 19.4808C59.1109 19.4422 58.9327 19.347 58.7929 19.2071C58.653 19.0673 58.5578 18.8891 58.5192 18.6951C58.4806 18.5011 58.5004 18.3 58.5761 18.1173C58.6518 17.9346 58.78 17.7784 58.9444 17.6685C59.1089 17.5586 59.3022 17.5 59.5 17.5C59.7652 17.5 60.0196 17.6054 60.2071 17.7929C60.3946 17.9804 60.5 18.2348 60.5 18.5ZM69.5 18.5C69.5 18.6978 69.4414 18.8911 69.3315 19.0556C69.2216 19.22 69.0654 19.3482 68.8827 19.4239C68.7 19.4996 68.4989 19.5194 68.3049 19.4808C68.1109 19.4422 67.9327 19.347 67.7929 19.2071C67.653 19.0673 67.5578 18.8891 67.5192 18.6951C67.4806 18.5011 67.5004 18.3 67.5761 18.1173C67.6518 17.9346 67.78 17.7784 67.9444 17.6685C68.1089 17.5586 68.3022 17.5 68.5 17.5C68.7652 17.5 69.0196 17.6054 69.2071 17.7929C69.3946 17.9804 69.5 18.2348 69.5 18.5ZM78.5 10V13C78.5 13.1326 78.4473 13.2598 78.3536 13.3536C78.2598 13.4473 78.1326 13.5 78 13.5C77.8674 13.5 77.7402 13.4473 77.6464 13.3536C77.5527 13.2598 77.5 13.1326 77.5 13V10C77.5 9.86739 77.5527 9.74021 77.6464 9.64645C77.7402 9.55268 77.8674 9.5 78 9.5C78.1326 9.5 78.2598 9.55268 78.3536 9.64645C78.4473 9.74021 78.5 9.86739 78.5 10ZM50.5 10V13C50.5 13.1326 50.4473 13.2598 50.3536 13.3536C50.2598 13.4473 50.1326 13.5 50 13.5C49.8674 13.5 49.7402 13.4473 49.6464 13.3536C49.5527 13.2598 49.5 13.1326 49.5 13V10C49.5 9.86739 49.5527 9.74021 49.6464 9.64645C49.7402 9.55268 49.8674 9.5 50 9.5C50.1326 9.5 50.2598 9.55268 50.3536 9.64645C50.4473 9.74021 50.5 9.86739 50.5 10Z" fill="currentColor"/>
<path d="M119 4.25H105C104.005 4.25 103.052 4.64509 102.348 5.34835C101.645 6.05161 101.25 7.00544 101.25 8V26C101.25 26.4641 101.434 26.9092 101.763 27.2374C102.091 27.5656 102.536 27.75 103 27.75H106C106.464 27.75 106.909 27.5656 107.237 27.2374C107.566 26.9092 107.75 26.4641 107.75 26V23.75H116.25V26C116.25 26.4641 116.434 26.9092 116.763 27.2374C117.091 27.5656 117.536 27.75 118 27.75H121C121.464 27.75 121.909 27.5656 122.237 27.2374C122.566 26.9092 122.75 26.4641 122.75 26V8C122.75 7.00544 122.355 6.05161 121.652 5.34835C120.948 4.64509 119.995 4.25 119 4.25ZM102.75 22.25V14.75H121.25V22.25H102.75ZM102.75 9.75H121.25V13.25H102.75V9.75ZM105 5.75H119C119.597 5.75 120.169 5.98705 120.591 6.40901C121.013 6.83097 121.25 7.40326 121.25 8V8.25H102.75V8C102.75 7.40326 102.987 6.83097 103.409 6.40901C103.831 5.98705 104.403 5.75 105 5.75ZM106.25 26C106.25 26.0663 106.224 26.1299 106.177 26.1768C106.13 26.2237 106.066 26.25 106 26.25H103C102.934 26.25 102.87 26.2237 102.823 26.1768C102.776 26.1299 102.75 26.0663 102.75 26V23.75H106.25V26ZM121 26.25H118C117.934 26.25 117.87 26.2237 117.823 26.1768C117.776 26.1299 117.75 26.0663 117.75 26V23.75H121.25V26C121.25 26.0663 121.224 26.1299 121.177 26.1768C121.13 26.2237 121.066 26.25 121 26.25ZM108.75 18.5C108.75 18.7472 108.677 18.9889 108.539 19.1945C108.402 19.4 108.207 19.5602 107.978 19.6549C107.75 19.7495 107.499 19.7742 107.256 19.726C107.014 19.6777 106.791 19.5587 106.616 19.3839C106.441 19.2091 106.322 18.9863 106.274 18.7439C106.226 18.5014 106.251 18.2501 106.345 18.0216C106.44 17.7932 106.6 17.598 106.806 17.4607C107.011 17.3233 107.253 17.25 107.5 17.25C107.832 17.25 108.149 17.3817 108.384 17.6161C108.618 17.8505 108.75 18.1685 108.75 18.5ZM117.75 18.5C117.75 18.7472 117.677 18.9889 117.539 19.1945C117.402 19.4 117.207 19.5602 116.978 19.6549C116.75 19.7495 116.499 19.7742 116.256 19.726C116.014 19.6777 115.791 19.5587 115.616 19.3839C115.441 19.2091 115.322 18.9863 115.274 18.7439C115.226 18.5014 115.251 18.2501 115.345 18.0216C115.44 17.7932 115.6 17.598 115.806 17.4607C116.011 17.3233 116.253 17.25 116.5 17.25C116.832 17.25 117.149 17.3817 117.384 17.6161C117.618 17.8505 117.75 18.1685 117.75 18.5ZM126.75 10V13C126.75 13.1989 126.671 13.3897 126.53 13.5303C126.39 13.671 126.199 13.75 126 13.75C125.801 13.75 125.61 13.671 125.47 13.5303C125.329 13.3897 125.25 13.1989 125.25 13V10C125.25 9.80109 125.329 9.61032 125.47 9.46967C125.61 9.32902 125.801 9.25 126 9.25C126.199 9.25 126.39 9.32902 126.53 9.46967C126.671 9.61032 126.75 9.80109 126.75 10ZM98.75 10V13C98.75 13.1989 98.671 13.3897 98.5303 13.5303C98.3897 13.671 98.1989 13.75 98 13.75C97.8011 13.75 97.6103 13.671 97.4697 13.5303C97.329 13.3897 97.25 13.1989 97.25 13V10C97.25 9.80109 97.329 9.61032 97.4697 9.46967C97.6103 9.32902 97.8011 9.25 98 9.25C98.1989 9.25 98.3897 9.32902 98.5303 9.46967C98.671 9.61032 98.75 9.80109 98.75 10Z" fill="currentColor"/>
<path d="M167 3.5H153C151.807 3.5 150.662 3.97411 149.818 4.81802C148.974 5.66193 148.5 6.80653 148.5 8V26C148.5 26.663 148.763 27.2989 149.232 27.7678C149.701 28.2366 150.337 28.5 151 28.5H154.5C155.163 28.5 155.799 28.2366 156.268 27.7678C156.737 27.2989 157 26.663 157 26V24H163V26C163 26.663 163.263 27.2989 163.732 27.7678C164.201 28.2366 164.837 28.5 165.5 28.5H169C169.663 28.5 170.299 28.2366 170.768 27.7678C171.237 27.2989 171.5 26.663 171.5 26V8C171.5 6.80653 171.026 5.66193 170.182 4.81802C169.338 3.97411 168.193 3.5 167 3.5ZM151.5 21V14H168.5V21H151.5ZM153 6.5H167C167.398 6.5 167.779 6.65804 168.061 6.93934C168.342 7.22064 168.5 7.60218 168.5 8V11H151.5V8C151.5 7.60218 151.658 7.22064 151.939 6.93934C152.221 6.65804 152.602 6.5 153 6.5ZM154 25.5H151.5V24H154V25.5ZM166 25.5V24H168.5V25.5H166ZM157.5 17.5C157.5 17.8956 157.383 18.2822 157.163 18.6111C156.943 18.94 156.631 19.1964 156.265 19.3478C155.9 19.4991 155.498 19.5387 155.11 19.4616C154.722 19.3844 154.365 19.1939 154.086 18.9142C153.806 18.6345 153.616 18.2781 153.538 17.8902C153.461 17.5022 153.501 17.1001 153.652 16.7346C153.804 16.3692 154.06 16.0568 154.389 15.8371C154.718 15.6173 155.104 15.5 155.5 15.5C156.03 15.5 156.539 15.7107 156.914 16.0858C157.289 16.4609 157.5 16.9696 157.5 17.5ZM166.5 17.5C166.5 17.8956 166.383 18.2822 166.163 18.6111C165.943 18.94 165.631 19.1964 165.265 19.3478C164.9 19.4991 164.498 19.5387 164.11 19.4616C163.722 19.3844 163.365 19.1939 163.086 18.9142C162.806 18.6345 162.616 18.2781 162.538 17.8902C162.461 17.5022 162.501 17.1001 162.652 16.7346C162.804 16.3692 163.06 16.0568 163.389 15.8371C163.718 15.6173 164.104 15.5 164.5 15.5C165.03 15.5 165.539 15.7107 165.914 16.0858C166.289 16.4609 166.5 16.9696 166.5 17.5ZM176 10V13C176 13.3978 175.842 13.7794 175.561 14.0607C175.279 14.342 174.898 14.5 174.5 14.5C174.102 14.5 173.721 14.342 173.439 14.0607C173.158 13.7794 173 13.3978 173 13V10C173 9.60218 173.158 9.22064 173.439 8.93934C173.721 8.65804 174.102 8.5 174.5 8.5C174.898 8.5 175.279 8.65804 175.561 8.93934C175.842 9.22064 176 9.60218 176 10ZM147 10V13C147 13.3978 146.842 13.7794 146.561 14.0607C146.279 14.342 145.898 14.5 145.5 14.5C145.102 14.5 144.721 14.342 144.439 14.0607C144.158 13.7794 144 13.3978 144 13V10C144 9.60218 144.158 9.22064 144.439 8.93934C144.721 8.65804 145.102 8.5 145.5 8.5C145.898 8.5 146.279 8.65804 146.561 8.93934C146.842 9.22064 147 9.60218 147 10Z" fill="currentColor"/>
<path d="M223 10V13C223 13.2652 222.895 13.5196 222.707 13.7071C222.52 13.8946 222.265 14 222 14C221.735 14 221.48 13.8946 221.293 13.7071C221.105 13.5196 221 13.2652 221 13V10C221 9.73478 221.105 9.48043 221.293 9.29289C221.48 9.10536 221.735 9 222 9C222.265 9 222.52 9.10536 222.707 9.29289C222.895 9.48043 223 9.73478 223 10ZM194 9C193.735 9 193.48 9.10536 193.293 9.29289C193.105 9.48043 193 9.73478 193 10V13C193 13.2652 193.105 13.5196 193.293 13.7071C193.48 13.8946 193.735 14 194 14C194.265 14 194.52 13.8946 194.707 13.7071C194.895 13.5196 195 13.2652 195 13V10C195 9.73478 194.895 9.48043 194.707 9.29289C194.52 9.10536 194.265 9 194 9ZM219 8V26C219 26.5304 218.789 27.0391 218.414 27.4142C218.039 27.7893 217.53 28 217 28H214C213.47 28 212.961 27.7893 212.586 27.4142C212.211 27.0391 212 26.5304 212 26V25H204V26C204 26.5304 203.789 27.0391 203.414 27.4142C203.039 27.7893 202.53 28 202 28H199C198.47 28 197.961 27.7893 197.586 27.4142C197.211 27.0391 197 26.5304 197 26V8C197 6.93913 197.421 5.92172 198.172 5.17157C198.922 4.42143 199.939 4 201 4H215C216.061 4 217.078 4.42143 217.828 5.17157C218.579 5.92172 219 6.93913 219 8ZM205 18.5C205 18.2033 204.912 17.9133 204.747 17.6666C204.582 17.42 204.348 17.2277 204.074 17.1142C203.8 17.0007 203.498 16.9709 203.207 17.0288C202.916 17.0867 202.649 17.2296 202.439 17.4393C202.23 17.6491 202.087 17.9164 202.029 18.2074C201.971 18.4983 202.001 18.7999 202.114 19.074C202.228 19.3481 202.42 19.5824 202.667 19.7472C202.913 19.912 203.203 20 203.5 20C203.898 20 204.279 19.842 204.561 19.5607C204.842 19.2794 205 18.8978 205 18.5ZM214 18.5C214 18.2033 213.912 17.9133 213.747 17.6666C213.582 17.42 213.348 17.2277 213.074 17.1142C212.8 17.0007 212.498 16.9709 212.207 17.0288C211.916 17.0867 211.649 17.2296 211.439 17.4393C211.23 17.6491 211.087 17.9164 211.029 18.2074C210.971 18.4983 211.001 18.7999 211.114 19.074C211.228 19.3481 211.42 19.5824 211.667 19.7472C211.913 19.912 212.203 20 212.5 20C212.898 20 213.279 19.842 213.561 19.5607C213.842 19.2794 214 18.8978 214 18.5ZM217 9H199V14H217V9Z" fill="currentColor"/>
<path opacity="0.2" d="M246 23H251V26C251 26.2652 250.895 26.5196 250.707 26.7071C250.52 26.8946 250.265 27 250 27H247C246.735 27 246.48 26.8946 246.293 26.7071C246.105 26.5196 246 26.2652 246 26V23ZM261 26C261 26.2652 261.105 26.5196 261.293 26.7071C261.48 26.8946 261.735 27 262 27H265C265.265 27 265.52 26.8946 265.707 26.7071C265.895 26.5196 266 26.2652 266 26V23H261V26ZM246 9V14H266V9H246Z" fill="currentColor"/>
<path d="M263 4H249C247.939 4 246.922 4.42143 246.172 5.17157C245.421 5.92172 245 6.93913 245 8V26C245 26.5304 245.211 27.0391 245.586 27.4142C245.961 27.7893 246.47 28 247 28H250C250.53 28 251.039 27.7893 251.414 27.4142C251.789 27.0391 252 26.5304 252 26V24H260V26C260 26.5304 260.211 27.0391 260.586 27.4142C260.961 27.7893 261.47 28 262 28H265C265.53 28 266.039 27.7893 266.414 27.4142C266.789 27.0391 267 26.5304 267 26V8C267 6.93913 266.579 5.92172 265.828 5.17157C265.078 4.42143 264.061 4 263 4ZM247 22V15H265V22H247ZM247 10H265V13H247V10ZM249 6H263C263.53 6 264.039 6.21071 264.414 6.58579C264.789 6.96086 265 7.46957 265 8H247C247 7.46957 247.211 6.96086 247.586 6.58579C247.961 6.21071 248.47 6 249 6ZM250 26H247V24H250V26ZM262 26V24H265V26H262ZM253 18.5C253 18.7967 252.912 19.0867 252.747 19.3334C252.582 19.58 252.348 19.7723 252.074 19.8858C251.8 19.9993 251.498 20.0291 251.207 19.9712C250.916 19.9133 250.649 19.7704 250.439 19.5607C250.23 19.3509 250.087 19.0836 250.029 18.7926C249.971 18.5017 250.001 18.2001 250.114 17.926C250.228 17.6519 250.42 17.4176 250.667 17.2528C250.913 17.088 251.203 17 251.5 17C251.898 17 252.279 17.158 252.561 17.4393C252.842 17.7206 253 18.1022 253 18.5ZM262 18.5C262 18.7967 261.912 19.0867 261.747 19.3334C261.582 19.58 261.348 19.7723 261.074 19.8858C260.8 19.9993 260.498 20.0291 260.207 19.9712C259.916 19.9133 259.649 19.7704 259.439 19.5607C259.23 19.3509 259.087 19.0836 259.029 18.7926C258.971 18.5017 259.001 18.2001 259.114 17.926C259.228 17.6519 259.42 17.4176 259.667 17.2528C259.913 17.088 260.203 17 260.5 17C260.898 17 261.279 17.158 261.561 17.4393C261.842 17.7206 262 18.1022 262 18.5ZM271 10V13C271 13.2652 270.895 13.5196 270.707 13.7071C270.52 13.8946 270.265 14 270 14C269.735 14 269.48 13.8946 269.293 13.7071C269.105 13.5196 269 13.2652 269 13V10C269 9.73478 269.105 9.48043 269.293 9.29289C269.48 9.10536 269.735 9 270 9C270.265 9 270.52 9.10536 270.707 9.29289C270.895 9.48043 271 9.73478 271 10ZM243 10V13C243 13.2652 242.895 13.5196 242.707 13.7071C242.52 13.8946 242.265 14 242 14C241.735 14 241.48 13.8946 241.293 13.7071C241.105 13.5196 241 13.2652 241 13V10C241 9.73478 241.105 9.48043 241.293 9.29289C241.48 9.10536 241.735 9 242 9C242.265 9 242.52 9.10536 242.707 9.29289C242.895 9.48043 243 9.73478 243 10Z" fill="currentColor"/>
</g>
<defs>
<clipPath id="clip0_17_18236">
<rect width="272" height="32" rx="5" fill="white"/>
</clipPath>
</defs>
</svg>
