<svg width="272" height="32" viewBox="0 0 272 32" fill="none" xmlns="http://www.w3.org/2000/svg">
<g clip-path="url(#clip0_17_18124)">
<path d="M16 3C13.4288 3 10.9154 3.76244 8.77759 5.1909C6.63975 6.61935 4.97351 8.64968 3.98957 11.0251C3.00563 13.4006 2.74819 16.0144 3.2498 18.5362C3.75141 21.0579 4.98953 23.3743 6.80762 25.1924C8.6257 27.0105 10.9421 28.2486 13.4638 28.7502C15.9856 29.2518 18.5995 28.9944 20.9749 28.0104C23.3503 27.0265 25.3807 25.3603 26.8091 23.2224C28.2376 21.0846 29 18.5712 29 16C28.9964 12.5533 27.6256 9.24882 25.1884 6.81163C22.7512 4.37445 19.4467 3.00364 16 3ZM17 26.9538V23C17 22.7348 16.8946 22.4804 16.7071 22.2929C16.5196 22.1054 16.2652 22 16 22C15.7348 22 15.4804 22.1054 15.2929 22.2929C15.1054 22.4804 15 22.7348 15 23V26.9538C12.4401 26.7167 10.0438 25.5919 8.22593 23.7741C6.40809 21.9562 5.28326 19.5599 5.04626 17H9.00001C9.26522 17 9.51958 16.8946 9.70711 16.7071C9.89465 16.5196 10 16.2652 10 16C10 15.7348 9.89465 15.4804 9.70711 15.2929C9.51958 15.1054 9.26522 15 9.00001 15H5.04626C5.28326 12.4401 6.40809 10.0438 8.22593 8.22592C10.0438 6.40808 12.4401 5.28325 15 5.04625V9C15 9.26522 15.1054 9.51957 15.2929 9.70711C15.4804 9.89464 15.7348 10 16 10C16.2652 10 16.5196 9.89464 16.7071 9.70711C16.8946 9.51957 17 9.26522 17 9V5.04625C19.5599 5.28325 21.9562 6.40808 23.7741 8.22592C25.5919 10.0438 26.7168 12.4401 26.9538 15H23C22.7348 15 22.4804 15.1054 22.2929 15.2929C22.1054 15.4804 22 15.7348 22 16C22 16.2652 22.1054 16.5196 22.2929 16.7071C22.4804 16.8946 22.7348 17 23 17H26.9538C26.7168 19.5599 25.5919 21.9562 23.7741 23.7741C21.9562 25.5919 19.5599 26.7167 17 26.9538Z" fill="currentColor"/>
<path d="M64 3.5C61.5277 3.5 59.111 4.23311 57.0554 5.60663C54.9998 6.98015 53.3976 8.93238 52.4515 11.2165C51.5054 13.5005 51.2579 16.0139 51.7402 18.4386C52.2225 20.8634 53.413 23.0907 55.1612 24.8388C56.9093 26.587 59.1366 27.7775 61.5614 28.2598C63.9861 28.7421 66.4995 28.4946 68.7835 27.5485C71.0676 26.6024 73.0199 25.0002 74.3934 22.9446C75.7669 20.889 76.5 18.4723 76.5 16C76.4964 12.6859 75.1782 9.5086 72.8348 7.16518C70.4914 4.82177 67.3141 3.50364 64 3.5ZM64.5 27.4888V23C64.5 22.8674 64.4473 22.7402 64.3536 22.6464C64.2598 22.5527 64.1326 22.5 64 22.5C63.8674 22.5 63.7402 22.5527 63.6465 22.6464C63.5527 22.7402 63.5 22.8674 63.5 23V27.4888C60.627 27.3599 57.9063 26.1608 55.8727 24.1273C53.8392 22.0938 52.6401 19.373 52.5113 16.5H57C57.1326 16.5 57.2598 16.4473 57.3536 16.3536C57.4473 16.2598 57.5 16.1326 57.5 16C57.5 15.8674 57.4473 15.7402 57.3536 15.6464C57.2598 15.5527 57.1326 15.5 57 15.5H52.5113C52.6401 12.627 53.8392 9.90625 55.8727 7.87272C57.9063 5.83919 60.627 4.64009 63.5 4.51125V9C63.5 9.13261 63.5527 9.25979 63.6465 9.35355C63.7402 9.44732 63.8674 9.5 64 9.5C64.1326 9.5 64.2598 9.44732 64.3536 9.35355C64.4473 9.25979 64.5 9.13261 64.5 9V4.51125C67.373 4.64009 70.0938 5.83919 72.1273 7.87272C74.1608 9.90625 75.3599 12.627 75.4888 15.5H71C70.8674 15.5 70.7402 15.5527 70.6465 15.6464C70.5527 15.7402 70.5 15.8674 70.5 16C70.5 16.1326 70.5527 16.2598 70.6465 16.3536C70.7402 16.4473 70.8674 16.5 71 16.5H75.4888C75.3599 19.373 74.1608 22.0938 72.1273 24.1273C70.0938 26.1608 67.373 27.3599 64.5 27.4888Z" fill="currentColor"/>
<path d="M112 3.25C109.478 3.25 107.013 3.99777 104.916 5.39876C102.82 6.79975 101.186 8.79103 100.221 11.1208C99.2555 13.4505 99.003 16.0141 99.495 18.4874C99.987 20.9607 101.201 23.2325 102.984 25.0156C104.768 26.7987 107.039 28.0131 109.513 28.505C111.986 28.997 114.549 28.7445 116.879 27.7795C119.209 26.8144 121.2 25.1802 122.601 23.0835C124.002 20.9868 124.75 18.5217 124.75 16C124.746 12.6197 123.401 9.379 121.011 6.98877C118.621 4.59854 115.38 3.25397 112 3.25ZM112.75 27.225V23C112.75 22.8011 112.671 22.6103 112.53 22.4697C112.39 22.329 112.199 22.25 112 22.25C111.801 22.25 111.61 22.329 111.47 22.4697C111.329 22.6103 111.25 22.8011 111.25 23V27.225C108.533 27.0395 105.975 25.8763 104.049 23.9506C102.124 22.0249 100.961 19.467 100.775 16.75H105C105.199 16.75 105.39 16.671 105.53 16.5303C105.671 16.3897 105.75 16.1989 105.75 16C105.75 15.8011 105.671 15.6103 105.53 15.4697C105.39 15.329 105.199 15.25 105 15.25H100.775C100.961 12.533 102.124 9.97506 104.049 8.04937C105.975 6.12367 108.533 4.9605 111.25 4.775V9C111.25 9.19891 111.329 9.38968 111.47 9.53033C111.61 9.67098 111.801 9.75 112 9.75C112.199 9.75 112.39 9.67098 112.53 9.53033C112.671 9.38968 112.75 9.19891 112.75 9V4.775C115.467 4.9605 118.025 6.12367 119.951 8.04937C121.876 9.97506 123.04 12.533 123.225 15.25H119C118.801 15.25 118.61 15.329 118.47 15.4697C118.329 15.6103 118.25 15.8011 118.25 16C118.25 16.1989 118.329 16.3897 118.47 16.5303C118.61 16.671 118.801 16.75 119 16.75H123.225C123.04 19.467 121.876 22.0249 119.951 23.9506C118.025 25.8763 115.467 27.0395 112.75 27.225Z" fill="currentColor"/>
<path d="M160 2.5C157.33 2.5 154.72 3.29176 152.5 4.77516C150.28 6.25856 148.549 8.36697 147.528 10.8338C146.506 13.3006 146.239 16.015 146.759 18.6337C147.28 21.2525 148.566 23.6579 150.454 25.5459C152.342 27.434 154.748 28.7197 157.366 29.2406C159.985 29.7615 162.699 29.4942 165.166 28.4724C167.633 27.4506 169.741 25.7203 171.225 23.5002C172.708 21.2801 173.5 18.67 173.5 16C173.496 12.4208 172.072 8.98932 169.542 6.45844C167.011 3.92756 163.579 2.50397 160 2.5ZM161.5 26.3913V23C161.5 22.6022 161.342 22.2206 161.061 21.9393C160.779 21.658 160.398 21.5 160 21.5C159.602 21.5 159.221 21.658 158.939 21.9393C158.658 22.2206 158.5 22.6022 158.5 23V26.3913C156.258 26.0638 154.182 25.0217 152.58 23.4198C150.978 21.8178 149.936 19.7417 149.609 17.5H153C153.398 17.5 153.779 17.342 154.061 17.0607C154.342 16.7794 154.5 16.3978 154.5 16C154.5 15.6022 154.342 15.2206 154.061 14.9393C153.779 14.658 153.398 14.5 153 14.5H149.609C149.936 12.2583 150.978 10.1822 152.58 8.58024C154.182 6.97832 156.258 5.93617 158.5 5.60875V9C158.5 9.39782 158.658 9.77936 158.939 10.0607C159.221 10.342 159.602 10.5 160 10.5C160.398 10.5 160.779 10.342 161.061 10.0607C161.342 9.77936 161.5 9.39782 161.5 9V5.60875C163.742 5.93617 165.818 6.97832 167.42 8.58024C169.022 10.1822 170.064 12.2583 170.391 14.5H167C166.602 14.5 166.221 14.658 165.939 14.9393C165.658 15.2206 165.5 15.6022 165.5 16C165.5 16.3978 165.658 16.7794 165.939 17.0607C166.221 17.342 166.602 17.5 167 17.5H170.391C170.064 19.7417 169.022 21.8178 167.42 23.4198C165.818 25.0217 163.742 26.0638 161.5 26.3913Z" fill="currentColor"/>
<path d="M214 17H216.943C216.713 19.0274 215.802 20.9169 214.36 22.3597C212.917 23.8024 211.027 24.713 209 24.9425V22C209 21.7348 208.895 21.4804 208.707 21.2929C208.52 21.1054 208.265 21 208 21C207.735 21 207.48 21.1054 207.293 21.2929C207.105 21.4804 207 21.7348 207 22V24.9425C204.973 24.713 203.083 23.8024 201.64 22.3597C200.198 20.9169 199.287 19.0274 199.058 17H202C202.265 17 202.52 16.8946 202.707 16.7071C202.895 16.5196 203 16.2652 203 16C203 15.7348 202.895 15.4804 202.707 15.2929C202.52 15.1054 202.265 15 202 15H199.058C199.287 12.9726 200.198 11.0831 201.64 9.64035C203.083 8.19761 204.973 7.28703 207 7.0575V10C207 10.2652 207.105 10.5196 207.293 10.7071C207.48 10.8946 207.735 11 208 11C208.265 11 208.52 10.8946 208.707 10.7071C208.895 10.5196 209 10.2652 209 10V7.0575C211.027 7.28703 212.917 8.19761 214.36 9.64035C215.802 11.0831 216.713 12.9726 216.943 15H214C213.735 15 213.48 15.1054 213.293 15.2929C213.105 15.4804 213 15.7348 213 16C213 16.2652 213.105 16.5196 213.293 16.7071C213.48 16.8946 213.735 17 214 17ZM221 16C221 18.5712 220.238 21.0846 218.809 23.2224C217.381 25.3603 215.35 27.0265 212.975 28.0104C210.599 28.9944 207.986 29.2518 205.464 28.7502C202.942 28.2486 200.626 27.0105 198.808 25.1924C196.99 23.3743 195.751 21.0579 195.25 18.5362C194.748 16.0144 195.006 13.4006 195.99 11.0251C196.974 8.64968 198.64 6.61935 200.778 5.1909C202.915 3.76244 205.429 3 208 3C211.447 3.00364 214.751 4.37445 217.188 6.81163C219.626 9.24882 220.996 12.5533 221 16ZM219 16C219 13.8244 218.355 11.6977 217.146 9.88873C215.937 8.07979 214.22 6.66989 212.21 5.83733C210.2 5.00476 207.988 4.78692 205.854 5.21136C203.72 5.6358 201.76 6.68345 200.222 8.22183C198.683 9.7602 197.636 11.7202 197.211 13.854C196.787 15.9878 197.005 18.1995 197.837 20.2095C198.67 22.2195 200.08 23.9375 201.889 25.1462C203.698 26.3549 205.824 27 208 27C210.916 26.9967 213.712 25.8367 215.775 23.7745C217.837 21.7123 218.997 18.9164 219 16Z" fill="currentColor"/>
<path opacity="0.2" d="M268 16C268 18.3734 267.296 20.6935 265.978 22.6668C264.659 24.6402 262.785 26.1783 260.592 27.0866C258.399 27.9948 255.987 28.2324 253.659 27.7694C251.331 27.3064 249.193 26.1635 247.515 24.4853C245.836 22.8071 244.694 20.6689 244.231 18.3411C243.768 16.0133 244.005 13.6005 244.913 11.4078C245.822 9.21509 247.36 7.34094 249.333 6.02236C251.307 4.70379 253.627 4 256 4C259.183 4 262.235 5.26428 264.485 7.51472C266.736 9.76515 268 12.8174 268 16Z" fill="currentColor"/>
<path d="M256 3C253.429 3 250.915 3.76244 248.778 5.1909C246.64 6.61935 244.974 8.64968 243.99 11.0251C243.006 13.4006 242.748 16.0144 243.25 18.5362C243.751 21.0579 244.99 23.3743 246.808 25.1924C248.626 27.0105 250.942 28.2486 253.464 28.7502C255.986 29.2518 258.599 28.9944 260.975 28.0104C263.35 27.0265 265.381 25.3603 266.809 23.2224C268.238 21.0846 269 18.5712 269 16C268.996 12.5533 267.626 9.24882 265.188 6.81163C262.751 4.37445 259.447 3.00364 256 3ZM257 26.9538V23C257 22.7348 256.895 22.4804 256.707 22.2929C256.52 22.1054 256.265 22 256 22C255.735 22 255.48 22.1054 255.293 22.2929C255.105 22.4804 255 22.7348 255 23V26.9538C252.44 26.7167 250.044 25.5919 248.226 23.7741C246.408 21.9562 245.283 19.5599 245.046 17H249C249.265 17 249.52 16.8946 249.707 16.7071C249.895 16.5196 250 16.2652 250 16C250 15.7348 249.895 15.4804 249.707 15.2929C249.52 15.1054 249.265 15 249 15H245.046C245.283 12.4401 246.408 10.0438 248.226 8.22592C250.044 6.40808 252.44 5.28325 255 5.04625V9C255 9.26522 255.105 9.51957 255.293 9.70711C255.48 9.89464 255.735 10 256 10C256.265 10 256.52 9.89464 256.707 9.70711C256.895 9.51957 257 9.26522 257 9V5.04625C259.56 5.28325 261.956 6.40808 263.774 8.22592C265.592 10.0438 266.717 12.4401 266.954 15H263C262.735 15 262.48 15.1054 262.293 15.2929C262.105 15.4804 262 15.7348 262 16C262 16.2652 262.105 16.5196 262.293 16.7071C262.48 16.8946 262.735 17 263 17H266.954C266.717 19.5599 265.592 21.9562 263.774 23.7741C261.956 25.5919 259.56 26.7167 257 26.9538Z" fill="currentColor"/>
</g>
<defs>
<clipPath id="clip0_17_18124">
<rect width="272" height="32" rx="5" fill="white"/>
</clipPath>
</defs>
</svg>
