<svg width="272" height="32" viewBox="0 0 272 32" fill="none" xmlns="http://www.w3.org/2000/svg">
<g clip-path="url(#clip0_17_18054)">
<path d="M4.345 5.24997C4.23742 5.34322 4.15099 5.45836 4.09149 5.5877C4.032 5.71704 4.0008 5.8576 4 5.99997V27C4 27.2652 4.10536 27.5195 4.29289 27.7071C4.48043 27.8946 4.73478 28 5 28C5.26522 28 5.51957 27.8946 5.70711 27.7071C5.89464 27.5195 6 27.2652 6 27V21.4712C9.34875 18.8262 12.2337 20.2525 15.5562 21.8975C17.6062 22.9112 19.8137 24.0037 22.1812 24.0037C23.9225 24.0037 25.7488 23.41 27.6588 21.7537C27.7663 21.6605 27.8528 21.5453 27.9123 21.416C27.9718 21.2866 28.0029 21.1461 28.0037 21.0037V5.99997C28.0033 5.80802 27.9476 5.62027 27.8433 5.45911C27.7391 5.29796 27.5906 5.17022 27.4157 5.09114C27.2408 5.01206 27.0469 4.98499 26.857 5.01315C26.6672 5.04131 26.4894 5.12352 26.345 5.24997C22.845 8.27872 19.88 6.81122 16.4438 5.10997C12.8838 3.34497 8.8475 1.34872 4.345 5.24997ZM26 20.5312C22.6512 23.1762 19.7663 21.7487 16.4438 20.105C13.3188 18.5612 9.8425 16.8387 6 19.055V6.47372C9.34875 3.82872 12.2337 5.25497 15.5562 6.89872C18.6812 8.44247 22.1588 10.165 26 7.94872V20.5312Z" fill="currentColor"/>
<path d="M52.6737 5.63247C52.6197 5.67898 52.5763 5.7365 52.5463 5.80118C52.5163 5.86586 52.5006 5.93619 52.5 6.00747V27C52.5 27.1326 52.5527 27.2598 52.6464 27.3535C52.7402 27.4473 52.8674 27.5 53 27.5C53.1326 27.5 53.2598 27.4473 53.3536 27.3535C53.4473 27.2598 53.5 27.1326 53.5 27V21.2337C57.1762 18.185 60.385 19.7725 63.7788 21.45C65.8413 22.4712 67.945 23.5125 70.17 23.5125C71.8125 23.5125 73.5212 22.9437 75.3275 21.38C75.3813 21.3333 75.4245 21.2758 75.4543 21.2111C75.484 21.1464 75.4996 21.0762 75.5 21.005V6.00497C75.4995 5.90935 75.4715 5.81589 75.4195 5.73567C75.3674 5.65545 75.2935 5.59183 75.2064 5.55236C75.1193 5.51289 75.0227 5.49922 74.9281 5.51298C74.8335 5.52674 74.7448 5.56734 74.6725 5.62997C70.9225 8.87997 67.6725 7.26372 64.2213 5.55872C60.6338 3.78497 56.925 1.95247 52.6737 5.63247ZM74.5 20.7712C70.8237 23.8212 67.615 22.2337 64.2213 20.555C60.8688 18.8962 57.4088 17.18 53.5 19.9725V6.23997C57.1762 3.18997 60.385 4.77747 63.7788 6.45622C67.1313 8.11497 70.5912 9.83122 74.5 7.03872V20.7712Z" fill="currentColor"/>
<path d="M100.51 5.42128C100.429 5.49151 100.363 5.57842 100.318 5.67612C100.274 5.77382 100.25 5.88002 100.25 5.98753V27C100.25 27.1989 100.329 27.3897 100.47 27.5304C100.61 27.671 100.801 27.75 101 27.75C101.199 27.75 101.39 27.671 101.53 27.5304C101.671 27.3897 101.75 27.1989 101.75 27V21.3475C105.26 18.4988 108.235 19.9725 111.667 21.6688C113.682 22.6688 115.854 23.7413 118.167 23.7413C119.864 23.7413 121.637 23.1663 123.487 21.5638C123.569 21.494 123.635 21.4076 123.68 21.3104C123.725 21.2131 123.749 21.1073 123.75 21V5.98753C123.75 5.84367 123.709 5.7028 123.631 5.58173C123.554 5.46065 123.443 5.36447 123.312 5.30466C123.181 5.24484 123.036 5.22391 122.893 5.24437C122.751 5.26482 122.617 5.3258 122.509 5.42003C118.884 8.56003 115.849 7.05628 112.333 5.31503C108.846 3.58878 104.875 1.64503 100.51 5.42128ZM122.25 20.6463C118.74 23.4963 115.765 22.0213 112.333 20.3238C109.175 18.76 105.636 17.0088 101.75 19.5V6.34003C105.26 3.49003 108.235 4.96503 111.667 6.66003C114.825 8.22377 118.364 9.97503 122.25 7.48878V20.6463Z" fill="currentColor"/>
<path d="M148.018 4.85997C147.854 5.00151 147.723 5.17664 147.634 5.3734C147.545 5.57016 147.499 5.78389 147.5 5.99997V27C147.5 27.3978 147.658 27.7793 147.939 28.0606C148.221 28.3419 148.602 28.5 149 28.5C149.398 28.5 149.779 28.3419 150.061 28.0606C150.342 27.7793 150.5 27.3978 150.5 27V21.715C153.355 19.575 155.763 20.575 159.335 22.34C161.364 23.34 163.678 24.49 166.185 24.49C168.025 24.49 169.97 23.8725 171.983 22.13C172.145 21.9895 172.275 21.816 172.364 21.6211C172.453 21.4262 172.5 21.2144 172.5 21V5.99997C172.5 5.71237 172.417 5.43081 172.262 5.18884C172.107 4.94688 171.885 4.7547 171.623 4.63523C171.362 4.51575 171.071 4.474 170.786 4.51495C170.502 4.55591 170.235 4.67784 170.018 4.86622C166.929 7.54247 164.451 6.52997 160.665 4.65622C157.149 2.90872 152.771 0.742475 148.018 4.85997ZM169.5 20.2825C166.645 22.4237 164.238 21.4212 160.665 19.6575C157.77 18.22 154.291 16.5 150.5 18.2337V6.71122C153.355 4.57122 155.763 5.57122 159.335 7.33622C161.364 8.33622 163.678 9.48622 166.185 9.48622C167.33 9.48794 168.461 9.2401 169.5 8.75997V20.2825Z" fill="currentColor"/>
<path d="M220 6.00003V21C219.999 21.1424 219.968 21.2829 219.909 21.4123C219.849 21.5416 219.763 21.6568 219.655 21.75C217.745 23.4038 215.919 24 214.177 24C211.814 24 209.606 22.9075 207.552 21.8938C204.234 20.25 201.349 18.8263 198 21.4713V27C198 27.2652 197.895 27.5196 197.707 27.7071C197.52 27.8947 197.265 28 197 28C196.735 28 196.48 27.8947 196.293 27.7071C196.105 27.5196 196 27.2652 196 27V6.00003C196.001 5.85756 196.032 5.71695 196.092 5.5876C196.152 5.45826 196.238 5.34316 196.346 5.25003C200.846 1.35253 204.885 3.34878 208.445 5.11003C211.875 6.80753 214.849 8.27503 218.345 5.25003C218.49 5.12476 218.667 5.04355 218.856 5.01604C219.045 4.98853 219.239 5.01587 219.413 5.0948C219.587 5.17374 219.735 5.30098 219.839 5.46142C219.943 5.62186 219.999 5.80879 220 6.00003Z" fill="currentColor"/>
<path opacity="0.2" d="M267 6.00004V21C259 27.9288 253 14.0713 245 21V6.00004C253 -0.928714 259 12.9288 267 6.00004Z" fill="currentColor"/>
<path d="M244.345 5.24997C244.237 5.34322 244.151 5.45836 244.091 5.5877C244.032 5.71704 244.001 5.8576 244 5.99997V27C244 27.2652 244.105 27.5195 244.293 27.7071C244.48 27.8946 244.735 28 245 28C245.265 28 245.52 27.8946 245.707 27.7071C245.895 27.5195 246 27.2652 246 27V21.4712C249.349 18.8262 252.234 20.2525 255.556 21.8975C257.606 22.9112 259.814 24.0037 262.181 24.0037C263.923 24.0037 265.749 23.41 267.659 21.7537C267.766 21.6605 267.853 21.5453 267.912 21.416C267.972 21.2866 268.003 21.1461 268.004 21.0037V5.99997C268.003 5.80802 267.948 5.62027 267.843 5.45911C267.739 5.29796 267.591 5.17022 267.416 5.09114C267.241 5.01206 267.047 4.98499 266.857 5.01315C266.667 5.04131 266.489 5.12352 266.345 5.24997C262.845 8.27872 259.88 6.81122 256.444 5.10997C252.884 3.34497 248.847 1.34872 244.345 5.24997ZM266 20.5312C262.651 23.1762 259.766 21.7487 256.444 20.105C253.319 18.5612 249.842 16.8387 246 19.055V6.47372C249.349 3.82872 252.234 5.25497 255.556 6.89872C258.681 8.44247 262.159 10.165 266 7.94872V20.5312Z" fill="currentColor"/>
</g>
<defs>
<clipPath id="clip0_17_18054">
<rect width="272" height="32" rx="5" fill="white"/>
</clipPath>
</defs>
</svg>
