<svg width="272" height="32" viewBox="0 0 272 32" fill="none" xmlns="http://www.w3.org/2000/svg">
<g clip-path="url(#clip0_17_17886)">
<path d="M20 10C20 9.73478 20.1053 9.48043 20.2929 9.29289C20.4804 9.10536 20.7348 9 21 9H30C30.2652 9 30.5196 9.10536 30.7071 9.29289C30.8946 9.48043 31 9.73478 31 10C31 10.2652 30.8946 10.5196 30.7071 10.7071C30.5196 10.8946 30.2652 11 30 11H21C20.7348 11 20.4804 10.8946 20.2929 10.7071C20.1053 10.5196 20 10.2652 20 10ZM30 21H21C20.7348 21 20.4804 21.1054 20.2929 21.2929C20.1053 21.4804 20 21.7348 20 22C20 22.2652 20.1053 22.5196 20.2929 22.7071C20.4804 22.8946 20.7348 23 21 23H30C30.2652 23 30.5196 22.8946 30.7071 22.7071C30.8946 22.5196 31 22.2652 31 22C31 21.7348 30.8946 21.4804 30.7071 21.2929C30.5196 21.1054 30.2652 21 30 21ZM30 13H21C20.7348 13 20.4804 13.1054 20.2929 13.2929C20.1053 13.4804 20 13.7348 20 14C20 14.2652 20.1053 14.5196 20.2929 14.7071C20.4804 14.8946 20.7348 15 21 15H30C30.2652 15 30.5196 14.8946 30.7071 14.7071C30.8946 14.5196 31 14.2652 31 14C31 13.7348 30.8946 13.4804 30.7071 13.2929C30.5196 13.1054 30.2652 13 30 13ZM30 17H21C20.7348 17 20.4804 17.1054 20.2929 17.2929C20.1053 17.4804 20 17.7348 20 18C20 18.2652 20.1053 18.5196 20.2929 18.7071C20.4804 18.8946 20.7348 19 21 19H30C30.2652 19 30.5196 18.8946 30.7071 18.7071C30.8946 18.5196 31 18.2652 31 18C31 17.7348 30.8946 17.4804 30.7071 17.2929C30.5196 17.1054 30.2652 17 30 17ZM18 8V24C18 24.5304 17.7893 25.0391 17.4142 25.4142C17.0391 25.7893 16.5304 26 16 26H11C9.68033 26 8.37371 25.7389 7.15546 25.2316C5.93721 24.7243 4.83141 23.9808 3.90182 23.0442C2.97223 22.1075 2.23723 20.9961 1.73919 19.774C1.24115 18.5519 0.989923 17.2434 0.999986 15.9237C1.04124 10.4525 5.57749 6 11.1125 6H16C16.5304 6 17.0391 6.21071 17.4142 6.58579C17.7893 6.96086 18 7.46957 18 8ZM16 8H11.1125C6.67249 8 3.03249 11.5613 2.99999 15.9388C2.9919 16.9945 3.19286 18.0413 3.59128 19.019C3.9897 19.9967 4.57769 20.8859 5.32137 21.6352C6.06504 22.3846 6.94969 22.9794 7.9243 23.3852C8.89892 23.7911 9.94424 24 11 24H16V8Z" fill="currentColor"/>
<path d="M68.5 10C68.5 9.86739 68.5527 9.74021 68.6464 9.64645C68.7402 9.55268 68.8674 9.5 69 9.5H78C78.1326 9.5 78.2598 9.55268 78.3536 9.64645C78.4473 9.74021 78.5 9.86739 78.5 10C78.5 10.1326 78.4473 10.2598 78.3536 10.3536C78.2598 10.4473 78.1326 10.5 78 10.5H69C68.8674 10.5 68.7402 10.4473 68.6464 10.3536C68.5527 10.2598 68.5 10.1326 68.5 10ZM78 21.5H69C68.8674 21.5 68.7402 21.5527 68.6464 21.6464C68.5527 21.7402 68.5 21.8674 68.5 22C68.5 22.1326 68.5527 22.2598 68.6464 22.3536C68.7402 22.4473 68.8674 22.5 69 22.5H78C78.1326 22.5 78.2598 22.4473 78.3536 22.3536C78.4473 22.2598 78.5 22.1326 78.5 22C78.5 21.8674 78.4473 21.7402 78.3536 21.6464C78.2598 21.5527 78.1326 21.5 78 21.5ZM78 13.5H69C68.8674 13.5 68.7402 13.5527 68.6464 13.6464C68.5527 13.7402 68.5 13.8674 68.5 14C68.5 14.1326 68.5527 14.2598 68.6464 14.3536C68.7402 14.4473 68.8674 14.5 69 14.5H78C78.1326 14.5 78.2598 14.4473 78.3536 14.3536C78.4473 14.2598 78.5 14.1326 78.5 14C78.5 13.8674 78.4473 13.7402 78.3536 13.6464C78.2598 13.5527 78.1326 13.5 78 13.5ZM78 17.5H69C68.8674 17.5 68.7402 17.5527 68.6464 17.6464C68.5527 17.7402 68.5 17.8674 68.5 18C68.5 18.1326 68.5527 18.2598 68.6464 18.3536C68.7402 18.4473 68.8674 18.5 69 18.5H78C78.1326 18.5 78.2598 18.4473 78.3536 18.3536C78.4473 18.2598 78.5 18.1326 78.5 18C78.5 17.8674 78.4473 17.7402 78.3536 17.6464C78.2598 17.5527 78.1326 17.5 78 17.5ZM65.5 8V24C65.5 24.3978 65.342 24.7794 65.0607 25.0607C64.7794 25.342 64.3978 25.5 64 25.5H59C57.7463 25.5 56.505 25.2519 55.3477 24.77C54.1903 24.288 53.1398 23.5818 52.2567 22.6919C51.3736 21.8021 50.6754 20.7462 50.2022 19.5853C49.7291 18.4243 49.4904 17.1811 49.5 15.9275C49.5388 10.7287 53.8513 6.5 59.1125 6.5H64C64.3978 6.5 64.7794 6.65804 65.0607 6.93934C65.342 7.22064 65.5 7.60218 65.5 8ZM64.5 8C64.5 7.86739 64.4473 7.74021 64.3536 7.64645C64.2598 7.55268 64.1326 7.5 64 7.5H59.1125C54.3988 7.5 50.535 11.2838 50.5 15.935C50.4914 17.0567 50.705 18.169 51.1283 19.2078C51.5516 20.2466 52.1763 21.1913 52.9665 21.9875C53.7566 22.7837 54.6966 23.4156 55.7321 23.8468C56.7676 24.278 57.8783 24.5 59 24.5H64C64.1326 24.5 64.2598 24.4473 64.3536 24.3536C64.4473 24.2598 64.5 24.1326 64.5 24V8Z" fill="currentColor"/>
<path d="M116.25 10C116.25 9.80109 116.329 9.61032 116.47 9.46967C116.61 9.32902 116.801 9.25 117 9.25H126C126.199 9.25 126.39 9.32902 126.53 9.46967C126.671 9.61032 126.75 9.80109 126.75 10C126.75 10.1989 126.671 10.3897 126.53 10.5303C126.39 10.671 126.199 10.75 126 10.75H117C116.801 10.75 116.61 10.671 116.47 10.5303C116.329 10.3897 116.25 10.1989 116.25 10ZM126 21.25H117C116.801 21.25 116.61 21.329 116.47 21.4697C116.329 21.6103 116.25 21.8011 116.25 22C116.25 22.1989 116.329 22.3897 116.47 22.5303C116.61 22.671 116.801 22.75 117 22.75H126C126.199 22.75 126.39 22.671 126.53 22.5303C126.671 22.3897 126.75 22.1989 126.75 22C126.75 21.8011 126.671 21.6103 126.53 21.4697C126.39 21.329 126.199 21.25 126 21.25ZM126 13.25H117C116.801 13.25 116.61 13.329 116.47 13.4697C116.329 13.6103 116.25 13.8011 116.25 14C116.25 14.1989 116.329 14.3897 116.47 14.5303C116.61 14.671 116.801 14.75 117 14.75H126C126.199 14.75 126.39 14.671 126.53 14.5303C126.671 14.3897 126.75 14.1989 126.75 14C126.75 13.8011 126.671 13.6103 126.53 13.4697C126.39 13.329 126.199 13.25 126 13.25ZM126 17.25H117C116.801 17.25 116.61 17.329 116.47 17.4697C116.329 17.6103 116.25 17.8011 116.25 18C116.25 18.1989 116.329 18.3897 116.47 18.5303C116.61 18.671 116.801 18.75 117 18.75H126C126.199 18.75 126.39 18.671 126.53 18.5303C126.671 18.3897 126.75 18.1989 126.75 18C126.75 17.8011 126.671 17.6103 126.53 17.4697C126.39 17.329 126.199 17.25 126 17.25ZM113.75 8V24C113.75 24.4641 113.566 24.9092 113.237 25.2374C112.909 25.5656 112.464 25.75 112 25.75H107C105.713 25.75 104.439 25.4954 103.252 25.0008C102.064 24.5062 100.986 23.7815 100.08 22.8683C99.1732 21.9551 98.4565 20.8715 97.9709 19.6801C97.4853 18.4886 97.2403 17.2128 97.25 15.9263C97.29 10.5913 101.714 6.25 107.113 6.25H112C112.464 6.25 112.909 6.43437 113.237 6.76256C113.566 7.09075 113.75 7.53587 113.75 8ZM112.25 8C112.25 7.9337 112.224 7.87011 112.177 7.82322C112.13 7.77634 112.066 7.75 112 7.75H107.113C102.535 7.75 98.7838 11.4225 98.75 15.9375C98.7418 17.0262 98.9491 18.1057 99.36 19.1138C99.7709 20.122 100.377 21.0389 101.144 21.8116C101.911 22.5843 102.823 23.1976 103.828 23.6161C104.833 24.0346 105.911 24.25 107 24.25H112C112.066 24.25 112.13 24.2237 112.177 24.1768C112.224 24.1299 112.25 24.0663 112.25 24V8Z" fill="currentColor"/>
<path d="M164.5 10C164.5 9.60218 164.658 9.22064 164.939 8.93934C165.221 8.65804 165.602 8.5 166 8.5H174C174.398 8.5 174.779 8.65804 175.061 8.93934C175.342 9.22064 175.5 9.60218 175.5 10C175.5 10.3978 175.342 10.7794 175.061 11.0607C174.779 11.342 174.398 11.5 174 11.5H166C165.602 11.5 165.221 11.342 164.939 11.0607C164.658 10.7794 164.5 10.3978 164.5 10ZM174 20.5H166C165.602 20.5 165.221 20.658 164.939 20.9393C164.658 21.2206 164.5 21.6022 164.5 22C164.5 22.3978 164.658 22.7794 164.939 23.0607C165.221 23.342 165.602 23.5 166 23.5H174C174.398 23.5 174.779 23.342 175.061 23.0607C175.342 22.7794 175.5 22.3978 175.5 22C175.5 21.6022 175.342 21.2206 175.061 20.9393C174.779 20.658 174.398 20.5 174 20.5ZM174 14.5H166C165.602 14.5 165.221 14.658 164.939 14.9393C164.658 15.2206 164.5 15.6022 164.5 16C164.5 16.3978 164.658 16.7794 164.939 17.0607C165.221 17.342 165.602 17.5 166 17.5H174C174.398 17.5 174.779 17.342 175.061 17.0607C175.342 16.7794 175.5 16.3978 175.5 16C175.5 15.6022 175.342 15.2206 175.061 14.9393C174.779 14.658 174.398 14.5 174 14.5ZM162.5 8V24C162.5 24.663 162.237 25.2989 161.768 25.7678C161.299 26.2366 160.663 26.5 160 26.5H155C153.614 26.5 152.243 26.2259 150.964 25.6933C149.684 25.1607 148.523 24.3802 147.547 23.3968C146.571 22.4135 145.8 21.2466 145.277 19.9636C144.754 18.6806 144.49 17.3067 144.5 15.9213C144.542 10.175 149.304 5.5 155.112 5.5H160C160.663 5.5 161.299 5.76339 161.768 6.23223C162.237 6.70107 162.5 7.33696 162.5 8ZM159.5 8.5H155.112C150.946 8.5 147.531 11.8387 147.5 15.9425C147.492 16.9322 147.681 17.9137 148.054 18.8303C148.428 19.7469 148.979 20.5805 149.676 21.283C150.373 21.9856 151.203 22.5431 152.117 22.9236C153.03 23.3041 154.01 23.5 155 23.5H159.5V8.5Z" fill="currentColor"/>
<path d="M212 10C212 9.73478 212.105 9.48043 212.293 9.29289C212.48 9.10536 212.735 9 213 9H222C222.265 9 222.52 9.10536 222.707 9.29289C222.895 9.48043 223 9.73478 223 10C223 10.2652 222.895 10.5196 222.707 10.7071C222.52 10.8946 222.265 11 222 11H213C212.735 11 212.48 10.8946 212.293 10.7071C212.105 10.5196 212 10.2652 212 10ZM222 21H213C212.735 21 212.48 21.1054 212.293 21.2929C212.105 21.4804 212 21.7348 212 22C212 22.2652 212.105 22.5196 212.293 22.7071C212.48 22.8946 212.735 23 213 23H222C222.265 23 222.52 22.8946 222.707 22.7071C222.895 22.5196 223 22.2652 223 22C223 21.7348 222.895 21.4804 222.707 21.2929C222.52 21.1054 222.265 21 222 21ZM222 13H213C212.735 13 212.48 13.1054 212.293 13.2929C212.105 13.4804 212 13.7348 212 14C212 14.2652 212.105 14.5196 212.293 14.7071C212.48 14.8946 212.735 15 213 15H222C222.265 15 222.52 14.8946 222.707 14.7071C222.895 14.5196 223 14.2652 223 14C223 13.7348 222.895 13.4804 222.707 13.2929C222.52 13.1054 222.265 13 222 13ZM222 17H213C212.735 17 212.48 17.1054 212.293 17.2929C212.105 17.4804 212 17.7348 212 18C212 18.2652 212.105 18.5196 212.293 18.7071C212.48 18.8946 212.735 19 213 19H222C222.265 19 222.52 18.8946 222.707 18.7071C222.895 18.5196 223 18.2652 223 18C223 17.7348 222.895 17.4804 222.707 17.2929C222.52 17.1054 222.265 17 222 17ZM208 6H203.112C197.577 6 193.041 10.4525 193 15.9237C192.99 17.2434 193.241 18.5519 193.739 19.774C194.237 20.9961 194.972 22.1075 195.902 23.0442C196.831 23.9808 197.937 24.7243 199.155 25.2316C200.374 25.7389 201.68 26 203 26H208C208.53 26 209.039 25.7893 209.414 25.4142C209.789 25.0391 210 24.5304 210 24V8C210 7.46957 209.789 6.96086 209.414 6.58579C209.039 6.21071 208.53 6 208 6Z" fill="currentColor"/>
<path opacity="0.2" d="M257 8V24C257 24.2652 256.895 24.5196 256.707 24.7071C256.52 24.8946 256.265 25 256 25H251C249.812 25 248.636 24.765 247.54 24.3084C246.443 23.8518 245.448 23.1827 244.612 22.3397C243.775 21.4967 243.113 20.4964 242.665 19.3965C242.217 18.2966 241.991 17.1189 242 15.9312C242.038 10.9687 246.15 7 251.113 7H256C256.265 7 256.52 7.10536 256.707 7.29289C256.895 7.48043 257 7.73478 257 8Z" fill="currentColor"/>
<path d="M260 10C260 9.73478 260.105 9.48043 260.293 9.29289C260.48 9.10536 260.735 9 261 9H270C270.265 9 270.52 9.10536 270.707 9.29289C270.895 9.48043 271 9.73478 271 10C271 10.2652 270.895 10.5196 270.707 10.7071C270.52 10.8946 270.265 11 270 11H261C260.735 11 260.48 10.8946 260.293 10.7071C260.105 10.5196 260 10.2652 260 10ZM270 21H261C260.735 21 260.48 21.1054 260.293 21.2929C260.105 21.4804 260 21.7348 260 22C260 22.2652 260.105 22.5196 260.293 22.7071C260.48 22.8946 260.735 23 261 23H270C270.265 23 270.52 22.8946 270.707 22.7071C270.895 22.5196 271 22.2652 271 22C271 21.7348 270.895 21.4804 270.707 21.2929C270.52 21.1054 270.265 21 270 21ZM270 13H261C260.735 13 260.48 13.1054 260.293 13.2929C260.105 13.4804 260 13.7348 260 14C260 14.2652 260.105 14.5196 260.293 14.7071C260.48 14.8946 260.735 15 261 15H270C270.265 15 270.52 14.8946 270.707 14.7071C270.895 14.5196 271 14.2652 271 14C271 13.7348 270.895 13.4804 270.707 13.2929C270.52 13.1054 270.265 13 270 13ZM270 17H261C260.735 17 260.48 17.1054 260.293 17.2929C260.105 17.4804 260 17.7348 260 18C260 18.2652 260.105 18.5196 260.293 18.7071C260.48 18.8946 260.735 19 261 19H270C270.265 19 270.52 18.8946 270.707 18.7071C270.895 18.5196 271 18.2652 271 18C271 17.7348 270.895 17.4804 270.707 17.2929C270.52 17.1054 270.265 17 270 17ZM258 8V24C258 24.5304 257.789 25.0391 257.414 25.4142C257.039 25.7893 256.53 26 256 26H251C249.68 26 248.374 25.7389 247.155 25.2316C245.937 24.7243 244.831 23.9808 243.902 23.0442C242.972 22.1075 242.237 20.9961 241.739 19.774C241.241 18.5519 240.99 17.2434 241 15.9237C241.041 10.4525 245.577 6 251.112 6H256C256.53 6 257.039 6.21071 257.414 6.58579C257.789 6.96086 258 7.46957 258 8ZM256 8H251.112C246.672 8 243.032 11.5613 243 15.9388C242.992 16.9945 243.193 18.0413 243.591 19.019C243.99 19.9967 244.578 20.8859 245.321 21.6352C246.065 22.3846 246.95 22.9794 247.924 23.3852C248.899 23.7911 249.944 24 251 24H256V8Z" fill="currentColor"/>
</g>
<defs>
<clipPath id="clip0_17_17886">
<rect width="272" height="32" rx="5" fill="white"/>
</clipPath>
</defs>
</svg>
