<svg width="272" height="32" viewBox="0 0 272 32" fill="none" xmlns="http://www.w3.org/2000/svg">
<g clip-path="url(#clip0_17_17802)">
<path d="M24 9C24 9.26522 23.8946 9.51957 23.7071 9.70711C23.5196 9.89464 23.2652 10 23 10H20C19.7348 10 19.4804 9.89464 19.2929 9.70711C19.1054 9.51957 19 9.26522 19 9C19 8.73478 19.1054 8.48043 19.2929 8.29289C19.4804 8.10536 19.7348 8 20 8H23C23.2652 8 23.5196 8.10536 23.7071 8.29289C23.8946 8.48043 24 8.73478 24 9ZM23 12H20C19.7348 12 19.4804 12.1054 19.2929 12.2929C19.1054 12.4804 19 12.7348 19 13C19 13.2652 19.1054 13.5196 19.2929 13.7071C19.4804 13.8946 19.7348 14 20 14H23C23.2652 14 23.5196 13.8946 23.7071 13.7071C23.8946 13.5196 24 13.2652 24 13C24 12.7348 23.8946 12.4804 23.7071 12.2929C23.5196 12.1054 23.2652 12 23 12ZM9 10H12C12.2652 10 12.5196 9.89464 12.7071 9.70711C12.8946 9.51957 13 9.26522 13 9C13 8.73478 12.8946 8.48043 12.7071 8.29289C12.5196 8.10536 12.2652 8 12 8H9C8.73478 8 8.48043 8.10536 8.29289 8.29289C8.10536 8.48043 8 8.73478 8 9C8 9.26522 8.10536 9.51957 8.29289 9.70711C8.48043 9.89464 8.73478 10 9 10ZM12 12H9C8.73478 12 8.48043 12.1054 8.29289 12.2929C8.10536 12.4804 8 12.7348 8 13C8 13.2652 8.10536 13.5196 8.29289 13.7071C8.48043 13.8946 8.73478 14 9 14H12C12.2652 14 12.5196 13.8946 12.7071 13.7071C12.8946 13.5196 13 13.2652 13 13C13 12.7348 12.8946 12.4804 12.7071 12.2929C12.5196 12.1054 12.2652 12 12 12ZM28 6V28C28 28.2652 27.8946 28.5196 27.7071 28.7071C27.5196 28.8946 27.2652 29 27 29C26.7348 29 26.4804 28.8946 26.2929 28.7071C26.1054 28.5196 26 28.2652 26 28V26H17V28C17 28.2652 16.8946 28.5196 16.7071 28.7071C16.5196 28.8946 16.2652 29 16 29C15.7348 29 15.4804 28.8946 15.2929 28.7071C15.1054 28.5196 15 28.2652 15 28V26H6V28C6 28.2652 5.89464 28.5196 5.70711 28.7071C5.51957 28.8946 5.26522 29 5 29C4.73478 29 4.48043 28.8946 4.29289 28.7071C4.10536 28.5196 4 28.2652 4 28V6C4 5.46957 4.21071 4.96086 4.58579 4.58579C4.96086 4.21071 5.46957 4 6 4H26C26.5304 4 27.0391 4.21071 27.4142 4.58579C27.7893 4.96086 28 5.46957 28 6ZM15 24V6H6V24H15ZM17 24H26V6H17V24Z" fill="currentColor"/>
<path d="M71.5 9C71.5 9.13261 71.4473 9.25979 71.3536 9.35355C71.2598 9.44732 71.1326 9.5 71 9.5H68C67.8674 9.5 67.7402 9.44732 67.6464 9.35355C67.5527 9.25979 67.5 9.13261 67.5 9C67.5 8.86739 67.5527 8.74021 67.6464 8.64645C67.7402 8.55268 67.8674 8.5 68 8.5H71C71.1326 8.5 71.2598 8.55268 71.3536 8.64645C71.4473 8.74021 71.5 8.86739 71.5 9ZM71 12.5H68C67.8674 12.5 67.7402 12.5527 67.6464 12.6464C67.5527 12.7402 67.5 12.8674 67.5 13C67.5 13.1326 67.5527 13.2598 67.6464 13.3536C67.7402 13.4473 67.8674 13.5 68 13.5H71C71.1326 13.5 71.2598 13.4473 71.3536 13.3536C71.4473 13.2598 71.5 13.1326 71.5 13C71.5 12.8674 71.4473 12.7402 71.3536 12.6464C71.2598 12.5527 71.1326 12.5 71 12.5ZM57 9.5H60C60.1326 9.5 60.2598 9.44732 60.3536 9.35355C60.4473 9.25979 60.5 9.13261 60.5 9C60.5 8.86739 60.4473 8.74021 60.3536 8.64645C60.2598 8.55268 60.1326 8.5 60 8.5H57C56.8674 8.5 56.7402 8.55268 56.6464 8.64645C56.5527 8.74021 56.5 8.86739 56.5 9C56.5 9.13261 56.5527 9.25979 56.6464 9.35355C56.7402 9.44732 56.8674 9.5 57 9.5ZM60 12.5H57C56.8674 12.5 56.7402 12.5527 56.6464 12.6464C56.5527 12.7402 56.5 12.8674 56.5 13C56.5 13.1326 56.5527 13.2598 56.6464 13.3536C56.7402 13.4473 56.8674 13.5 57 13.5H60C60.1326 13.5 60.2598 13.4473 60.3536 13.3536C60.4473 13.2598 60.5 13.1326 60.5 13C60.5 12.8674 60.4473 12.7402 60.3536 12.6464C60.2598 12.5527 60.1326 12.5 60 12.5ZM75.5 6V28C75.5 28.1326 75.4473 28.2598 75.3536 28.3536C75.2598 28.4473 75.1326 28.5 75 28.5C74.8674 28.5 74.7402 28.4473 74.6464 28.3536C74.5527 28.2598 74.5 28.1326 74.5 28V25.5H64.5V28C64.5 28.1326 64.4473 28.2598 64.3536 28.3536C64.2598 28.4473 64.1326 28.5 64 28.5C63.8674 28.5 63.7402 28.4473 63.6464 28.3536C63.5527 28.2598 63.5 28.1326 63.5 28V25.5H53.5V28C53.5 28.1326 53.4473 28.2598 53.3536 28.3536C53.2598 28.4473 53.1326 28.5 53 28.5C52.8674 28.5 52.7402 28.4473 52.6464 28.3536C52.5527 28.2598 52.5 28.1326 52.5 28V6C52.5 5.60218 52.658 5.22064 52.9393 4.93934C53.2206 4.65804 53.6022 4.5 54 4.5H74C74.3978 4.5 74.7794 4.65804 75.0607 4.93934C75.342 5.22064 75.5 5.60218 75.5 6ZM63.5 24.5V5.5H54C53.8674 5.5 53.7402 5.55268 53.6464 5.64645C53.5527 5.74021 53.5 5.86739 53.5 6V24.5H63.5ZM64.5 24.5H74.5V6C74.5 5.86739 74.4473 5.74021 74.3536 5.64645C74.2598 5.55268 74.1326 5.5 74 5.5H64.5V24.5Z" fill="currentColor"/>
<path d="M119.75 9C119.75 9.19891 119.671 9.38968 119.53 9.53033C119.39 9.67098 119.199 9.75 119 9.75H116C115.801 9.75 115.61 9.67098 115.47 9.53033C115.329 9.38968 115.25 9.19891 115.25 9C115.25 8.80109 115.329 8.61032 115.47 8.46967C115.61 8.32902 115.801 8.25 116 8.25H119C119.199 8.25 119.39 8.32902 119.53 8.46967C119.671 8.61032 119.75 8.80109 119.75 9ZM119 12.25H116C115.801 12.25 115.61 12.329 115.47 12.4697C115.329 12.6103 115.25 12.8011 115.25 13C115.25 13.1989 115.329 13.3897 115.47 13.5303C115.61 13.671 115.801 13.75 116 13.75H119C119.199 13.75 119.39 13.671 119.53 13.5303C119.671 13.3897 119.75 13.1989 119.75 13C119.75 12.8011 119.671 12.6103 119.53 12.4697C119.39 12.329 119.199 12.25 119 12.25ZM105 9.75H108C108.199 9.75 108.39 9.67098 108.53 9.53033C108.671 9.38968 108.75 9.19891 108.75 9C108.75 8.80109 108.671 8.61032 108.53 8.46967C108.39 8.32902 108.199 8.25 108 8.25H105C104.801 8.25 104.61 8.32902 104.47 8.46967C104.329 8.61032 104.25 8.80109 104.25 9C104.25 9.19891 104.329 9.38968 104.47 9.53033C104.61 9.67098 104.801 9.75 105 9.75ZM108 12.25H105C104.801 12.25 104.61 12.329 104.47 12.4697C104.329 12.6103 104.25 12.8011 104.25 13C104.25 13.1989 104.329 13.3897 104.47 13.5303C104.61 13.671 104.801 13.75 105 13.75H108C108.199 13.75 108.39 13.671 108.53 13.5303C108.671 13.3897 108.75 13.1989 108.75 13C108.75 12.8011 108.671 12.6103 108.53 12.4697C108.39 12.329 108.199 12.25 108 12.25ZM123.75 6V28C123.75 28.1989 123.671 28.3897 123.53 28.5303C123.39 28.671 123.199 28.75 123 28.75C122.801 28.75 122.61 28.671 122.47 28.5303C122.329 28.3897 122.25 28.1989 122.25 28V25.75H112.75V28C112.75 28.1989 112.671 28.3897 112.53 28.5303C112.39 28.671 112.199 28.75 112 28.75C111.801 28.75 111.61 28.671 111.47 28.5303C111.329 28.3897 111.25 28.1989 111.25 28V25.75H101.75V28C101.75 28.1989 101.671 28.3897 101.53 28.5303C101.39 28.671 101.199 28.75 101 28.75C100.801 28.75 100.61 28.671 100.47 28.5303C100.329 28.3897 100.25 28.1989 100.25 28V6C100.25 5.53587 100.434 5.09075 100.763 4.76256C101.091 4.43437 101.536 4.25 102 4.25H122C122.464 4.25 122.909 4.43437 123.237 4.76256C123.566 5.09075 123.75 5.53587 123.75 6ZM111.25 24.25V5.75H102C101.934 5.75 101.87 5.77634 101.823 5.82322C101.776 5.87011 101.75 5.9337 101.75 6V24.25H111.25ZM112.75 24.25H122.25V6C122.25 5.9337 122.224 5.87011 122.177 5.82322C122.13 5.77634 122.066 5.75 122 5.75H112.75V24.25Z" fill="currentColor"/>
<path d="M168 10C168 10.3978 167.842 10.7794 167.561 11.0607C167.279 11.342 166.898 11.5 166.5 11.5H164.5C164.102 11.5 163.721 11.342 163.439 11.0607C163.158 10.7794 163 10.3978 163 10C163 9.60218 163.158 9.22064 163.439 8.93934C163.721 8.65804 164.102 8.5 164.5 8.5H166.5C166.898 8.5 167.279 8.65804 167.561 8.93934C167.842 9.22064 168 9.60218 168 10ZM166.5 13.5H164.5C164.102 13.5 163.721 13.658 163.439 13.9393C163.158 14.2206 163 14.6022 163 15C163 15.3978 163.158 15.7794 163.439 16.0607C163.721 16.342 164.102 16.5 164.5 16.5H166.5C166.898 16.5 167.279 16.342 167.561 16.0607C167.842 15.7794 168 15.3978 168 15C168 14.6022 167.842 14.2206 167.561 13.9393C167.279 13.658 166.898 13.5 166.5 13.5ZM153.5 11.5H155.5C155.898 11.5 156.279 11.342 156.561 11.0607C156.842 10.7794 157 10.3978 157 10C157 9.60218 156.842 9.22064 156.561 8.93934C156.279 8.65804 155.898 8.5 155.5 8.5H153.5C153.102 8.5 152.721 8.65804 152.439 8.93934C152.158 9.22064 152 9.60218 152 10C152 10.3978 152.158 10.7794 152.439 11.0607C152.721 11.342 153.102 11.5 153.5 11.5ZM155.5 13.5H153.5C153.102 13.5 152.721 13.658 152.439 13.9393C152.158 14.2206 152 14.6022 152 15C152 15.3978 152.158 15.7794 152.439 16.0607C152.721 16.342 153.102 16.5 153.5 16.5H155.5C155.898 16.5 156.279 16.342 156.561 16.0607C156.842 15.7794 157 15.3978 157 15C157 14.6022 156.842 14.2206 156.561 13.9393C156.279 13.658 155.898 13.5 155.5 13.5ZM172.5 6V28C172.5 28.3978 172.342 28.7794 172.061 29.0607C171.779 29.342 171.398 29.5 171 29.5C170.602 29.5 170.221 29.342 169.939 29.0607C169.658 28.7794 169.5 28.3978 169.5 28V26.5H161.5V28C161.5 28.3978 161.342 28.7794 161.061 29.0607C160.779 29.342 160.398 29.5 160 29.5C159.602 29.5 159.221 29.342 158.939 29.0607C158.658 28.7794 158.5 28.3978 158.5 28V26.5H150.5V28C150.5 28.3978 150.342 28.7794 150.061 29.0607C149.779 29.342 149.398 29.5 149 29.5C148.602 29.5 148.221 29.342 147.939 29.0607C147.658 28.7794 147.5 28.3978 147.5 28V6C147.5 5.33696 147.763 4.70107 148.232 4.23223C148.701 3.76339 149.337 3.5 150 3.5H170C170.663 3.5 171.299 3.76339 171.768 4.23223C172.237 4.70107 172.5 5.33696 172.5 6ZM158.5 23.5V6.5H150.5V23.5H158.5ZM161.5 23.5H169.5V6.5H161.5V23.5Z" fill="currentColor"/>
<path d="M218 4H198C197.47 4 196.961 4.21071 196.586 4.58579C196.211 4.96086 196 5.46957 196 6V28C196 28.2652 196.105 28.5196 196.293 28.7071C196.48 28.8946 196.735 29 197 29C197.265 29 197.52 28.8946 197.707 28.7071C197.895 28.5196 198 28.2652 198 28V26H207V28C207 28.2652 207.105 28.5196 207.293 28.7071C207.48 28.8946 207.735 29 208 29C208.265 29 208.52 28.8946 208.707 28.7071C208.895 28.5196 209 28.2652 209 28V26H218V28C218 28.2652 218.105 28.5196 218.293 28.7071C218.48 28.8946 218.735 29 219 29C219.265 29 219.52 28.8946 219.707 28.7071C219.895 28.5196 220 28.2652 220 28V6C220 5.46957 219.789 4.96086 219.414 4.58579C219.039 4.21071 218.53 4 218 4ZM204 14H199C198.735 14 198.48 13.8946 198.293 13.7071C198.105 13.5196 198 13.2652 198 13C198 12.7348 198.105 12.4804 198.293 12.2929C198.48 12.1054 198.735 12 199 12H204C204.265 12 204.52 12.1054 204.707 12.2929C204.895 12.4804 205 12.7348 205 13C205 13.2652 204.895 13.5196 204.707 13.7071C204.52 13.8946 204.265 14 204 14ZM204 10H199C198.735 10 198.48 9.89464 198.293 9.70711C198.105 9.51957 198 9.26522 198 9C198 8.73478 198.105 8.48043 198.293 8.29289C198.48 8.10536 198.735 8 199 8H204C204.265 8 204.52 8.10536 204.707 8.29289C204.895 8.48043 205 8.73478 205 9C205 9.26522 204.895 9.51957 204.707 9.70711C204.52 9.89464 204.265 10 204 10ZM209 23C209 23.2652 208.895 23.5196 208.707 23.7071C208.52 23.8946 208.265 24 208 24C207.735 24 207.48 23.8946 207.293 23.7071C207.105 23.5196 207 23.2652 207 23V7C207 6.73478 207.105 6.48043 207.293 6.29289C207.48 6.10536 207.735 6 208 6C208.265 6 208.52 6.10536 208.707 6.29289C208.895 6.48043 209 6.73478 209 7V23ZM217 14H212C211.735 14 211.48 13.8946 211.293 13.7071C211.105 13.5196 211 13.2652 211 13C211 12.7348 211.105 12.4804 211.293 12.2929C211.48 12.1054 211.735 12 212 12H217C217.265 12 217.52 12.1054 217.707 12.2929C217.895 12.4804 218 12.7348 218 13C218 13.2652 217.895 13.5196 217.707 13.7071C217.52 13.8946 217.265 14 217 14ZM217 10H212C211.735 10 211.48 9.89464 211.293 9.70711C211.105 9.51957 211 9.26522 211 9C211 8.73478 211.105 8.48043 211.293 8.29289C211.48 8.10536 211.735 8 212 8H217C217.265 8 217.52 8.10536 217.707 8.29289C217.895 8.48043 218 8.73478 218 9C218 9.26522 217.895 9.51957 217.707 9.70711C217.52 9.89464 217.265 10 217 10Z" fill="currentColor"/>
<path opacity="0.2" d="M267 6V25H245V6C245 5.73478 245.105 5.48043 245.293 5.29289C245.48 5.10536 245.735 5 246 5H266C266.265 5 266.52 5.10536 266.707 5.29289C266.895 5.48043 267 5.73478 267 6Z" fill="currentColor"/>
<path d="M264 9C264 9.26522 263.895 9.51957 263.707 9.70711C263.52 9.89464 263.265 10 263 10H260C259.735 10 259.48 9.89464 259.293 9.70711C259.105 9.51957 259 9.26522 259 9C259 8.73478 259.105 8.48043 259.293 8.29289C259.48 8.10536 259.735 8 260 8H263C263.265 8 263.52 8.10536 263.707 8.29289C263.895 8.48043 264 8.73478 264 9ZM263 12H260C259.735 12 259.48 12.1054 259.293 12.2929C259.105 12.4804 259 12.7348 259 13C259 13.2652 259.105 13.5196 259.293 13.7071C259.48 13.8946 259.735 14 260 14H263C263.265 14 263.52 13.8946 263.707 13.7071C263.895 13.5196 264 13.2652 264 13C264 12.7348 263.895 12.4804 263.707 12.2929C263.52 12.1054 263.265 12 263 12ZM249 10H252C252.265 10 252.52 9.89464 252.707 9.70711C252.895 9.51957 253 9.26522 253 9C253 8.73478 252.895 8.48043 252.707 8.29289C252.52 8.10536 252.265 8 252 8H249C248.735 8 248.48 8.10536 248.293 8.29289C248.105 8.48043 248 8.73478 248 9C248 9.26522 248.105 9.51957 248.293 9.70711C248.48 9.89464 248.735 10 249 10ZM252 12H249C248.735 12 248.48 12.1054 248.293 12.2929C248.105 12.4804 248 12.7348 248 13C248 13.2652 248.105 13.5196 248.293 13.7071C248.48 13.8946 248.735 14 249 14H252C252.265 14 252.52 13.8946 252.707 13.7071C252.895 13.5196 253 13.2652 253 13C253 12.7348 252.895 12.4804 252.707 12.2929C252.52 12.1054 252.265 12 252 12ZM268 6V28C268 28.2652 267.895 28.5196 267.707 28.7071C267.52 28.8946 267.265 29 267 29C266.735 29 266.48 28.8946 266.293 28.7071C266.105 28.5196 266 28.2652 266 28V26H257V28C257 28.2652 256.895 28.5196 256.707 28.7071C256.52 28.8946 256.265 29 256 29C255.735 29 255.48 28.8946 255.293 28.7071C255.105 28.5196 255 28.2652 255 28V26H246V28C246 28.2652 245.895 28.5196 245.707 28.7071C245.52 28.8946 245.265 29 245 29C244.735 29 244.48 28.8946 244.293 28.7071C244.105 28.5196 244 28.2652 244 28V6C244 5.46957 244.211 4.96086 244.586 4.58579C244.961 4.21071 245.47 4 246 4H266C266.53 4 267.039 4.21071 267.414 4.58579C267.789 4.96086 268 5.46957 268 6ZM255 24V6H246V24H255ZM257 24H266V6H257V24Z" fill="currentColor"/>
</g>
<defs>
<clipPath id="clip0_17_17802">
<rect width="272" height="32" rx="5" fill="white"/>
</clipPath>
</defs>
</svg>
