<svg width="272" height="32" viewBox="0 0 272 32" fill="none" xmlns="http://www.w3.org/2000/svg">
<g clip-path="url(#clip0_17_17746)">
<path d="M27 16C26.7375 15.9999 26.4754 16.0208 26.2162 16.0625L21.9363 4.64875C21.8648 4.45818 21.7368 4.29397 21.5695 4.17804C21.4022 4.06212 21.2035 4.00001 21 4H17C16.7348 4 16.4804 4.10536 16.2929 4.29289C16.1054 4.48043 16 4.73478 16 5C16 5.26522 16.1054 5.51957 16.2929 5.70711C16.4804 5.89464 16.7348 6 17 6H20.3075L24.345 16.7663C23.7711 17.1255 23.276 17.5972 22.8893 18.153C22.5026 18.7088 22.2324 19.337 22.095 20H17.0675L13.9425 11.6488C13.8706 11.4572 13.7417 11.2923 13.5732 11.1763C13.4047 11.0602 13.2046 10.9987 13 11H3C2.73478 11 2.48043 11.1054 2.29289 11.2929C2.10536 11.4804 2 11.7348 2 12C2 12.2652 2.10536 12.5196 2.29289 12.7071C2.48043 12.8946 2.73478 13 3 13H4V14.6737C2.80402 15.243 1.79365 16.1393 1.08578 17.2588C0.377915 18.3784 0.00147034 19.6754 0 21C0 21.2652 0.105357 21.5196 0.292893 21.7071C0.48043 21.8946 0.734784 22 1 22H2.1C2.32951 23.1303 2.94273 24.1465 3.83574 24.8764C4.72875 25.6063 5.84664 26.005 7 26.005C8.15336 26.005 9.27125 25.6063 10.1643 24.8764C11.0573 24.1465 11.6705 23.1303 11.9 22H22.1C22.2892 22.9269 22.7375 23.7811 23.3928 24.4634C24.0481 25.1458 24.8835 25.6282 25.8021 25.8546C26.7206 26.0811 27.6845 26.0423 28.5819 25.7428C29.4792 25.4433 30.2732 24.8954 30.8716 24.1627C31.47 23.4299 31.8483 22.5425 31.9624 21.6034C32.0766 20.6642 31.922 19.712 31.5166 18.8573C31.1112 18.0025 30.4716 17.2803 29.6721 16.7745C28.8726 16.2688 27.946 16.0002 27 16ZM5.33375 16.2838C5.52859 16.2148 5.69727 16.0871 5.81658 15.9183C5.93589 15.7495 5.99997 15.5479 6 15.3413V13H12.3075L14.9325 20H2.10125C2.27428 19.1546 2.6628 18.3682 3.22915 17.7171C3.79549 17.066 4.52045 16.5723 5.33375 16.2838ZM7 24C6.37977 23.9998 5.77485 23.8074 5.2685 23.4492C4.76214 23.0911 4.37924 22.5848 4.1725 22H9.8275C9.62076 22.5848 9.23786 23.0911 8.7315 23.4492C8.22515 23.8074 7.62023 23.9998 7 24ZM27 24C26.385 23.9993 25.7851 23.8097 25.2816 23.4567C24.778 23.1038 24.395 22.6046 24.1845 22.0268C23.974 21.449 23.9462 20.8204 24.1048 20.2263C24.2634 19.6321 24.6008 19.1011 25.0713 18.705L26.0637 21.3512C26.1099 21.4744 26.1798 21.5872 26.2695 21.6833C26.3593 21.7794 26.467 21.8568 26.5867 21.9113C26.7064 21.9657 26.8356 21.9961 26.967 22.0006C27.0984 22.0051 27.2294 21.9836 27.3525 21.9375C27.4756 21.8914 27.5884 21.8214 27.6845 21.7317C27.7806 21.642 27.8581 21.5342 27.9125 21.4145C27.967 21.2949 27.9973 21.1656 28.0018 21.0343C28.0063 20.9029 27.9849 20.7719 27.9387 20.6488L26.9438 18H27C27.7956 18 28.5587 18.3161 29.1213 18.8787C29.6839 19.4413 30 20.2044 30 21C30 21.7956 29.6839 22.5587 29.1213 23.1213C28.5587 23.6839 27.7956 24 27 24Z" fill="currentColor"/>
<path d="M75 16.5C74.6282 16.4997 74.2578 16.5459 73.8975 16.6375L69.4688 4.825C69.4331 4.7295 69.369 4.64719 69.2853 4.5891C69.2015 4.53101 69.1019 4.49992 69 4.5H65C64.8674 4.5 64.7402 4.55268 64.6464 4.64645C64.5527 4.74022 64.5 4.86739 64.5 5C64.5 5.13261 64.5527 5.25979 64.6464 5.35355C64.7402 5.44732 64.8674 5.5 65 5.5H68.6537L72.9625 16.99C72.2982 17.3282 71.7282 17.8259 71.3035 18.4384C70.8788 19.051 70.6126 19.7593 70.5287 20.5H64.7213L61.4712 11.825C61.4354 11.7291 61.371 11.6465 61.2867 11.5884C61.2025 11.5303 61.1024 11.4994 61 11.5H51C50.8674 11.5 50.7402 11.5527 50.6464 11.6464C50.5527 11.7402 50.5 11.8674 50.5 12C50.5 12.1326 50.5527 12.2598 50.6464 12.3536C50.7402 12.4473 50.8674 12.5 51 12.5H52.5V15C51.3164 15.4949 50.3054 16.3284 49.5938 17.3958C48.8821 18.4633 48.5016 19.7171 48.5 21C48.5 21.1326 48.5527 21.2598 48.6464 21.3536C48.7402 21.4473 48.8674 21.5 49 21.5H50.5287C50.6535 22.5985 51.1783 23.6126 52.0029 24.3489C52.8276 25.0852 53.8945 25.4921 55 25.4921C56.1055 25.4921 57.1724 25.0852 57.9971 24.3489C58.8217 23.6126 59.3465 22.5985 59.4712 21.5H70.5287C70.6253 22.3633 70.9696 23.1803 71.5203 23.8522C72.0709 24.5242 72.8042 25.0224 73.6318 25.2867C74.4593 25.551 75.3457 25.5701 76.1839 25.3417C77.022 25.1133 77.7762 24.6472 78.3553 23.9997C78.9344 23.3521 79.3136 22.5508 79.4473 21.6924C79.581 20.834 79.4633 19.9553 79.1085 19.1623C78.7538 18.3693 78.177 17.6959 77.448 17.2235C76.7189 16.7511 75.8687 16.4998 75 16.5ZM53.1663 15.8125C53.2638 15.7781 53.3483 15.7143 53.408 15.6299C53.4678 15.5455 53.4999 15.4447 53.5 15.3413V12.5H60.6538L63.6538 20.5H49.5287C49.625 19.4532 50.0186 18.4556 50.663 17.6251C51.3075 16.7946 52.1761 16.1657 53.1663 15.8125ZM55 24.5C54.1584 24.4999 53.3451 24.1966 52.7089 23.6456C52.0728 23.0947 51.6565 22.3329 51.5363 21.5H58.4637C58.3435 22.3329 57.9272 23.0947 57.2911 23.6456C56.6549 24.1966 55.8416 24.4999 55 24.5ZM75 24.5C74.2233 24.4996 73.4688 24.241 72.8553 23.7647C72.2418 23.2884 71.8041 22.6216 71.6113 21.8692C71.4184 21.1169 71.4812 20.3217 71.7899 19.609C72.0986 18.8963 72.6355 18.3065 73.3162 17.9325L74.5312 21.175C74.5542 21.2366 74.5891 21.293 74.6339 21.3411C74.6787 21.3891 74.7325 21.4279 74.7923 21.4552C74.8521 21.4825 74.9166 21.4977 74.9823 21.5C75.048 21.5024 75.1134 21.4917 75.175 21.4688C75.2366 21.4458 75.293 21.4109 75.3411 21.3661C75.3891 21.3213 75.4279 21.2675 75.4552 21.2077C75.4825 21.1479 75.4977 21.0834 75.5 21.0177C75.5024 20.952 75.4917 20.8866 75.4688 20.825L74.25 17.5812C74.73 17.476 75.2268 17.473 75.7081 17.5724C76.1893 17.6719 76.6443 17.8716 77.0432 18.1585C77.4422 18.4454 77.7763 18.8131 78.0237 19.2377C78.2712 19.6623 78.4264 20.1342 78.4794 20.6228C78.5323 21.1114 78.4818 21.6056 78.3311 22.0734C78.1804 22.5411 77.9329 22.9719 77.6047 23.3376C77.2764 23.7034 76.8749 23.9959 76.4261 24.1962C75.9773 24.3964 75.4914 24.5 75 24.5Z" fill="currentColor"/>
<path d="M123 16.25C122.683 16.2498 122.366 16.2816 122.055 16.345L117.702 4.73625C117.649 4.59333 117.553 4.4702 117.427 4.38332C117.302 4.29643 117.153 4.24992 117 4.25H113C112.801 4.25 112.61 4.32902 112.47 4.46967C112.329 4.61032 112.25 4.80109 112.25 5C112.25 5.19891 112.329 5.38968 112.47 5.53033C112.61 5.67098 112.801 5.75 113 5.75H116.48L120.651 16.875C120.034 17.2271 119.503 17.7129 119.098 18.297C118.693 18.881 118.424 19.5483 118.31 20.25H112.895L109.703 11.7362C109.649 11.5933 109.553 11.4702 109.427 11.3833C109.302 11.2964 109.153 11.2499 109 11.25H99C98.8011 11.25 98.6103 11.329 98.4697 11.4697C98.329 11.6103 98.25 11.8011 98.25 12C98.25 12.1989 98.329 12.3897 98.4697 12.5303C98.6103 12.671 98.8011 12.75 99 12.75H100.25V14.8337C99.0599 15.3667 98.0492 16.2323 97.3395 17.3263C96.6299 18.4202 96.2515 19.696 96.25 21C96.25 21.1989 96.329 21.3897 96.4697 21.5303C96.6103 21.671 96.8011 21.75 97 21.75H98.31C98.4922 22.8618 99.0636 23.8727 99.9222 24.6021C100.781 25.3315 101.871 25.732 102.997 25.732C104.124 25.732 105.214 25.3315 106.073 24.6021C106.931 23.8727 107.503 22.8618 107.685 21.75H118.31C118.453 22.646 118.85 23.4823 119.454 24.1598C120.058 24.8374 120.843 25.3278 121.716 25.5731C122.59 25.8184 123.516 25.8084 124.384 25.5441C125.252 25.2799 126.026 24.7725 126.615 24.082C127.204 23.3916 127.582 22.5469 127.706 21.6479C127.83 20.749 127.693 19.8334 127.313 19.0095C126.933 18.1856 126.325 17.4878 125.56 16.9988C124.796 16.5098 123.907 16.2499 123 16.25ZM101.25 16.0487C101.396 15.997 101.523 15.9012 101.612 15.7745C101.702 15.6478 101.75 15.4964 101.75 15.3413V12.75H108.48L111.292 20.25H97.8038C97.9412 19.3023 98.3349 18.4101 98.9422 17.6698C99.5495 16.9294 100.347 16.3689 101.25 16.0487ZM103 24.25C102.269 24.2498 101.559 24.0029 100.985 23.5492C100.411 23.0955 100.008 22.4616 99.8387 21.75H106.161C105.992 22.4616 105.589 23.0955 105.015 23.5492C104.441 24.0029 103.731 24.2498 103 24.25ZM123 24.25C122.304 24.2496 121.626 24.0256 121.067 23.6111C120.508 23.1966 120.096 22.6135 119.893 21.9476C119.69 21.2817 119.707 20.5682 119.94 19.9123C120.173 19.2563 120.61 18.6924 121.188 18.3037L122.298 21.2638C122.367 21.4501 122.509 21.601 122.69 21.6832C122.871 21.7655 123.077 21.7724 123.264 21.7025C123.45 21.6325 123.601 21.4915 123.683 21.3102C123.766 21.129 123.772 20.9226 123.702 20.7362L122.593 17.7763C122.728 17.7593 122.864 17.7505 123 17.75C123.862 17.75 124.689 18.0924 125.298 18.7019C125.908 19.3114 126.25 20.138 126.25 21C126.25 21.862 125.908 22.6886 125.298 23.2981C124.689 23.9076 123.862 24.25 123 24.25Z" fill="currentColor"/>
<path d="M170.5 15.5C170.347 15.5 170.196 15.5075 170.048 15.52L165.905 4.47375C165.798 4.18768 165.606 3.94116 165.355 3.76715C165.104 3.59313 164.805 3.49993 164.5 3.5H160.5C160.102 3.5 159.721 3.65804 159.439 3.93934C159.158 4.22064 159 4.60218 159 5C159 5.39782 159.158 5.77936 159.439 6.06066C159.721 6.34196 160.102 6.5 160.5 6.5H163.46L167.239 16.575C166.402 17.1922 165.756 18.0327 165.375 19H161.725L158.905 11.4738C158.798 11.1877 158.606 10.9412 158.355 10.7671C158.104 10.5931 157.805 10.4999 157.5 10.5H147.5C147.102 10.5 146.721 10.658 146.439 10.9393C146.158 11.2206 146 11.6022 146 12C146 12.3978 146.158 12.7794 146.439 13.0607C146.721 13.342 147.102 13.5 147.5 13.5H148V13.865C146.794 14.5036 145.784 15.4586 145.079 16.6275C144.375 17.7964 144.002 19.1351 144 20.5C144 20.8978 144.158 21.2794 144.439 21.5607C144.721 21.842 145.102 22 145.5 22H146.092C146.327 23.2628 146.996 24.4037 147.984 25.2249C148.972 26.046 150.216 26.4955 151.5 26.4955C152.784 26.4955 154.028 26.046 155.016 25.2249C156.004 24.4037 156.673 23.2628 156.908 22H165.093C165.283 23.0276 165.761 23.9799 166.473 24.7452C167.185 25.5105 168.1 26.0573 169.111 26.3214C170.122 26.5856 171.187 26.5562 172.182 26.2367C173.177 25.9172 174.061 25.3209 174.729 24.5175C175.397 23.7141 175.823 22.7369 175.956 21.7004C176.089 20.6639 175.924 19.6109 175.48 18.6647C175.037 17.7185 174.333 16.9184 173.451 16.3579C172.569 15.7974 171.545 15.4998 170.5 15.5ZM150 16.2563C150.293 16.1528 150.546 15.9612 150.725 15.7077C150.904 15.4543 151 15.1516 151 14.8413V13.5H156.46L158.523 19H147.257C147.481 18.3671 147.843 17.7922 148.318 17.3174C148.792 16.8427 149.367 16.4801 150 16.2563ZM151.5 23.5C151.014 23.4998 150.538 23.3577 150.131 23.0913C149.725 22.8249 149.404 22.4456 149.21 22H153.79C153.596 22.4456 153.275 22.8249 152.869 23.0913C152.462 23.3577 151.986 23.4998 151.5 23.5ZM170.5 23.5C170.006 23.5 169.522 23.3534 169.111 23.0787C168.7 22.804 168.38 22.4135 168.19 21.9567C168.001 21.4999 167.952 20.9972 168.048 20.5123C168.144 20.0273 168.383 19.5819 168.732 19.2322C169.082 18.8826 169.527 18.6445 170.012 18.548C170.497 18.4516 171 18.5011 171.457 18.6903C171.914 18.8795 172.304 19.2 172.579 19.6111C172.853 20.0222 173 20.5055 173 21C173 21.663 172.737 22.2989 172.268 22.7678C171.799 23.2366 171.163 23.5 170.5 23.5Z" fill="currentColor"/>
<path d="M219 16C218.737 15.9999 218.475 16.0208 218.216 16.0625L213.936 4.64875C213.865 4.45818 213.737 4.29397 213.57 4.17804C213.402 4.06212 213.204 4.00001 213 4H209C208.735 4 208.48 4.10536 208.293 4.29289C208.105 4.48043 208 4.73478 208 5C208 5.26522 208.105 5.51957 208.293 5.70711C208.48 5.89464 208.735 6 209 6H212.308L216.345 16.7663C215.771 17.1255 215.276 17.5972 214.889 18.153C214.503 18.7088 214.232 19.337 214.095 20H209.067L205.943 11.6488C205.871 11.4572 205.742 11.2923 205.573 11.1763C205.405 11.0602 205.205 10.9987 205 11H195C194.735 11 194.48 11.1054 194.293 11.2929C194.105 11.4804 194 11.7348 194 12C194 12.2652 194.105 12.5196 194.293 12.7071C194.48 12.8946 194.735 13 195 13H196V14.6737C194.804 15.243 193.794 16.1393 193.086 17.2588C192.378 18.3784 192.001 19.6754 192 21C192 21.2652 192.105 21.5196 192.293 21.7071C192.48 21.8946 192.735 22 193 22H194.1C194.33 23.1303 194.943 24.1465 195.836 24.8764C196.729 25.6063 197.847 26.005 199 26.005C200.153 26.005 201.271 25.6063 202.164 24.8764C203.057 24.1465 203.67 23.1303 203.9 22H214.1C214.289 22.9269 214.737 23.7811 215.393 24.4634C216.048 25.1458 216.884 25.6282 217.802 25.8546C218.721 26.0811 219.685 26.0423 220.582 25.7428C221.479 25.4433 222.273 24.8954 222.872 24.1627C223.47 23.4299 223.848 22.5425 223.962 21.6034C224.077 20.6642 223.922 19.712 223.517 18.8573C223.111 18.0025 222.472 17.2803 221.672 16.7745C220.873 16.2688 219.946 16.0002 219 16ZM199 24C198.38 23.9998 197.775 23.8074 197.268 23.4492C196.762 23.0911 196.379 22.5848 196.173 22H201.828C201.621 22.5848 201.238 23.0911 200.732 23.4492C200.225 23.8074 199.62 23.9998 199 24ZM219 24C218.385 23.9993 217.785 23.8097 217.282 23.4567C216.778 23.1038 216.395 22.6046 216.185 22.0268C215.974 21.449 215.946 20.8204 216.105 20.2263C216.263 19.6321 216.601 19.1011 217.071 18.705L218.064 21.3512C218.11 21.4744 218.18 21.5872 218.27 21.6833C218.359 21.7794 218.467 21.8568 218.587 21.9113C218.706 21.9657 218.836 21.9961 218.967 22.0006C219.098 22.0051 219.229 21.9836 219.353 21.9375C219.476 21.8914 219.588 21.8214 219.685 21.7317C219.781 21.642 219.858 21.5342 219.913 21.4145C219.967 21.2949 219.997 21.1656 220.002 21.0343C220.006 20.9029 219.985 20.7719 219.939 20.6488L218.944 18H219C219.796 18 220.559 18.3161 221.121 18.8787C221.684 19.4413 222 20.2044 222 21C222 21.7956 221.684 22.5587 221.121 23.1213C220.559 23.6839 219.796 24 219 24Z" fill="currentColor"/>
<path opacity="0.2" d="M256.375 21H241C241 19.7589 241.384 18.5482 242.1 17.5348C242.817 16.5213 243.83 15.7549 245 15.3413V12H253L256.375 21Z" fill="currentColor"/>
<path d="M267 16C266.737 15.9999 266.475 16.0208 266.216 16.0625L261.936 4.64875C261.865 4.45818 261.737 4.29397 261.57 4.17804C261.402 4.06212 261.204 4.00001 261 4H257C256.735 4 256.48 4.10536 256.293 4.29289C256.105 4.48043 256 4.73478 256 5C256 5.26522 256.105 5.51957 256.293 5.70711C256.48 5.89464 256.735 6 257 6H260.308L264.345 16.7663C263.771 17.1255 263.276 17.5972 262.889 18.153C262.503 18.7088 262.232 19.337 262.095 20H257.067L253.943 11.6488C253.871 11.4572 253.742 11.2923 253.573 11.1763C253.405 11.0602 253.205 10.9987 253 11H243C242.735 11 242.48 11.1054 242.293 11.2929C242.105 11.4804 242 11.7348 242 12C242 12.2652 242.105 12.5196 242.293 12.7071C242.48 12.8946 242.735 13 243 13H244V14.6737C242.804 15.243 241.794 16.1393 241.086 17.2588C240.378 18.3784 240.001 19.6754 240 21C240 21.2652 240.105 21.5196 240.293 21.7071C240.48 21.8946 240.735 22 241 22H242.1C242.33 23.1303 242.943 24.1465 243.836 24.8764C244.729 25.6063 245.847 26.005 247 26.005C248.153 26.005 249.271 25.6063 250.164 24.8764C251.057 24.1465 251.67 23.1303 251.9 22H262.1C262.289 22.9269 262.737 23.7811 263.393 24.4634C264.048 25.1458 264.884 25.6282 265.802 25.8546C266.721 26.0811 267.685 26.0423 268.582 25.7428C269.479 25.4433 270.273 24.8954 270.872 24.1627C271.47 23.4299 271.848 22.5425 271.962 21.6034C272.077 20.6642 271.922 19.712 271.517 18.8573C271.111 18.0025 270.472 17.2803 269.672 16.7745C268.873 16.2688 267.946 16.0002 267 16ZM247 24C246.38 23.9998 245.775 23.8074 245.268 23.4492C244.762 23.0911 244.379 22.5848 244.173 22H249.828C249.621 22.5848 249.238 23.0911 248.732 23.4492C248.225 23.8074 247.62 23.9998 247 24ZM242.101 20C242.274 19.1546 242.663 18.3682 243.229 17.7171C243.795 17.066 244.52 16.5723 245.334 16.2838C245.529 16.2148 245.697 16.0871 245.817 15.9183C245.936 15.7495 246 15.5479 246 15.3413V13H252.307L254.932 20H242.101ZM267 24C266.385 23.9993 265.785 23.8097 265.282 23.4567C264.778 23.1038 264.395 22.6046 264.185 22.0268C263.974 21.449 263.946 20.8204 264.105 20.2263C264.263 19.6321 264.601 19.1011 265.071 18.705L266.064 21.3512C266.11 21.4744 266.18 21.5872 266.27 21.6833C266.359 21.7794 266.467 21.8568 266.587 21.9113C266.706 21.9657 266.836 21.9961 266.967 22.0006C267.098 22.0051 267.229 21.9836 267.353 21.9375C267.476 21.8914 267.588 21.8214 267.685 21.7317C267.781 21.642 267.858 21.5342 267.913 21.4145C267.967 21.2949 267.997 21.1656 268.002 21.0343C268.006 20.9029 267.985 20.7719 267.939 20.6488L266.944 18H267C267.796 18 268.559 18.3161 269.121 18.8787C269.684 19.4413 270 20.2044 270 21C270 21.7956 269.684 22.5587 269.121 23.1213C268.559 23.6839 267.796 24 267 24Z" fill="currentColor"/>
</g>
<defs>
<clipPath id="clip0_17_17746">
<rect width="272" height="32" rx="5" fill="white"/>
</clipPath>
</defs>
</svg>
