<svg width="272" height="32" viewBox="0 0 272 32" fill="none" xmlns="http://www.w3.org/2000/svg">
<g clip-path="url(#clip0_17_17718)">
<path d="M28 16C27.6593 15.9999 27.321 16.0583 27 16.1725V16C27 10.7775 23.1163 8.1925 20.28 6.305C18.52 5.1325 17 4.125 17 3C17 2.73478 16.8946 2.48043 16.7071 2.29289C16.5196 2.10536 16.2652 2 16 2C15.7348 2 15.4804 2.10536 15.2929 2.29289C15.1054 2.48043 15 2.73478 15 3C15 4.125 13.48 5.1325 11.72 6.305C8.88375 8.1925 5 10.7775 5 16V16.1725C4.54758 16.0125 4.06339 15.9635 3.58807 16.0293C3.11275 16.0952 2.66018 16.2742 2.26833 16.5512C1.87648 16.8282 1.55679 17.1951 1.3361 17.6212C1.11541 18.0473 1.00015 18.5201 1 19V26C1 26.2652 1.10536 26.5196 1.29289 26.7071C1.48043 26.8946 1.73478 27 2 27H10C10.2652 27 10.5196 26.8946 10.7071 26.7071C10.8946 26.5196 11 26.2652 11 26V22C11 21.7348 11.1054 21.4804 11.2929 21.2929C11.4804 21.1054 11.7348 21 12 21C12.2652 21 12.5196 21.1054 12.7071 21.2929C12.8946 21.4804 13 21.7348 13 22V26C13 26.2652 13.1054 26.5196 13.2929 26.7071C13.4804 26.8946 13.7348 27 14 27H18C18.2652 27 18.5196 26.8946 18.7071 26.7071C18.8946 26.5196 19 26.2652 19 26V22C19 21.7348 19.1054 21.4804 19.2929 21.2929C19.4804 21.1054 19.7348 21 20 21C20.2652 21 20.5196 21.1054 20.7071 21.2929C20.8946 21.4804 21 21.7348 21 22V26C21 26.2652 21.1054 26.5196 21.2929 26.7071C21.4804 26.8946 21.7348 27 22 27H30C30.2652 27 30.5196 26.8946 30.7071 26.7071C30.8946 26.5196 31 26.2652 31 26V19C31 18.2044 30.6839 17.4413 30.1213 16.8787C29.5587 16.3161 28.7956 16 28 16ZM12.8287 7.97C14.0375 7.165 15.2037 6.385 16 5.47C16.7925 6.38875 17.9625 7.16875 19.1712 7.97C21.6712 9.635 24.4812 11.5063 24.935 15H7.06C7.51875 11.5063 10.325 9.635 12.8287 7.97ZM3 19C3 18.7348 3.10536 18.4804 3.29289 18.2929C3.48043 18.1054 3.73478 18 4 18C4.26522 18 4.51957 18.1054 4.70711 18.2929C4.89464 18.4804 5 18.7348 5 19V25H3V19ZM20 19C19.2044 19 18.4413 19.3161 17.8787 19.8787C17.3161 20.4413 17 21.2044 17 22V25H15V22C15 21.2044 14.6839 20.4413 14.1213 19.8787C13.5587 19.3161 12.7956 19 12 19C11.2044 19 10.4413 19.3161 9.87868 19.8787C9.31607 20.4413 9 21.2044 9 22V25H7V17H25V25H23V22C23 21.2044 22.6839 20.4413 22.1213 19.8787C21.5587 19.3161 20.7956 19 20 19ZM29 25H27V19C27 18.7348 27.1054 18.4804 27.2929 18.2929C27.4804 18.1054 27.7348 18 28 18C28.2652 18 28.5196 18.1054 28.7071 18.2929C28.8946 18.4804 29 18.7348 29 19V25Z" fill="currentColor"/>
<path d="M76 16.5C75.4589 16.4992 74.9324 16.6747 74.5 17V16C74.5 11.0462 70.8975 8.6475 68 6.72125C66.125 5.47125 64.5 4.38875 64.5 3C64.5 2.86739 64.4473 2.74021 64.3536 2.64645C64.2598 2.55268 64.1326 2.5 64 2.5C63.8674 2.5 63.7402 2.55268 63.6464 2.64645C63.5527 2.74021 63.5 2.86739 63.5 3C63.5 4.38875 61.875 5.47 60 6.72125C57.1025 8.6475 53.5 11.0462 53.5 16V17C53.1286 16.7214 52.6869 16.5518 52.2245 16.5101C51.7621 16.4684 51.2972 16.5563 50.882 16.7639C50.4667 16.9716 50.1175 17.2907 49.8734 17.6857C49.6293 18.0806 49.5 18.5357 49.5 19V26C49.5 26.1326 49.5527 26.2598 49.6464 26.3536C49.7402 26.4473 49.8674 26.5 50 26.5H58C58.1326 26.5 58.2598 26.4473 58.3536 26.3536C58.4473 26.2598 58.5 26.1326 58.5 26V22C58.5 21.6022 58.658 21.2206 58.9393 20.9393C59.2206 20.658 59.6022 20.5 60 20.5C60.3978 20.5 60.7794 20.658 61.0607 20.9393C61.342 21.2206 61.5 21.6022 61.5 22V26C61.5 26.1326 61.5527 26.2598 61.6464 26.3536C61.7402 26.4473 61.8674 26.5 62 26.5H66C66.1326 26.5 66.2598 26.4473 66.3536 26.3536C66.4473 26.2598 66.5 26.1326 66.5 26V22C66.5 21.6022 66.658 21.2206 66.9393 20.9393C67.2206 20.658 67.6022 20.5 68 20.5C68.3978 20.5 68.7794 20.658 69.0607 20.9393C69.342 21.2206 69.5 21.6022 69.5 22V26C69.5 26.1326 69.5527 26.2598 69.6464 26.3536C69.7402 26.4473 69.8674 26.5 70 26.5H78C78.1326 26.5 78.2598 26.4473 78.3536 26.3536C78.4473 26.2598 78.5 26.1326 78.5 26V19C78.5 18.337 78.2366 17.7011 77.7678 17.2322C77.2989 16.7634 76.663 16.5 76 16.5ZM60.5513 7.55375C62 6.58875 63.3138 5.71375 64 4.6425C64.6862 5.71375 66 6.58875 67.4487 7.55375C70.1763 9.375 73.25 11.4175 73.4837 15.5H54.5163C54.75 11.4175 57.8238 9.375 60.5513 7.55375ZM50.5 19C50.5 18.6022 50.658 18.2206 50.9393 17.9393C51.2206 17.658 51.6022 17.5 52 17.5C52.3978 17.5 52.7794 17.658 53.0607 17.9393C53.342 18.2206 53.5 18.6022 53.5 19V25.5H50.5V19ZM68 19.5C67.337 19.5 66.7011 19.7634 66.2322 20.2322C65.7634 20.7011 65.5 21.337 65.5 22V25.5H62.5V22C62.5 21.337 62.2366 20.7011 61.7678 20.2322C61.2989 19.7634 60.663 19.5 60 19.5C59.337 19.5 58.7011 19.7634 58.2322 20.2322C57.7634 20.7011 57.5 21.337 57.5 22V25.5H54.5V16.5H73.5V25.5H70.5V22C70.5 21.337 70.2366 20.7011 69.7678 20.2322C69.2989 19.7634 68.663 19.5 68 19.5ZM77.5 25.5H74.5V19C74.5 18.6022 74.658 18.2206 74.9393 17.9393C75.2206 17.658 75.6022 17.5 76 17.5C76.3978 17.5 76.7794 17.658 77.0607 17.9393C77.342 18.2206 77.5 18.6022 77.5 19V25.5Z" fill="currentColor"/>
<path d="M124 16.25C123.565 16.2495 123.137 16.3527 122.75 16.5513V16C122.75 10.9113 119.086 8.4725 116.141 6.5125C114.321 5.30125 112.75 4.25 112.75 3C112.75 2.80109 112.671 2.61032 112.53 2.46967C112.39 2.32902 112.199 2.25 112 2.25C111.801 2.25 111.61 2.32902 111.47 2.46967C111.329 2.61032 111.25 2.80109 111.25 3C111.25 4.25 109.679 5.30125 107.859 6.5125C104.914 8.4725 101.25 10.9113 101.25 16V16.5513C100.831 16.3373 100.364 16.2346 99.8935 16.2528C99.4233 16.271 98.9655 16.4096 98.5642 16.6553C98.1628 16.9011 97.8312 17.2457 97.6011 17.6562C97.371 18.0667 97.2501 18.5294 97.25 19V26C97.25 26.1989 97.329 26.3897 97.4697 26.5303C97.6103 26.671 97.8011 26.75 98 26.75H106C106.199 26.75 106.39 26.671 106.53 26.5303C106.671 26.3897 106.75 26.1989 106.75 26V22C106.75 21.6685 106.882 21.3505 107.116 21.1161C107.351 20.8817 107.668 20.75 108 20.75C108.332 20.75 108.649 20.8817 108.884 21.1161C109.118 21.3505 109.25 21.6685 109.25 22V26C109.25 26.1989 109.329 26.3897 109.47 26.5303C109.61 26.671 109.801 26.75 110 26.75H114C114.199 26.75 114.39 26.671 114.53 26.5303C114.671 26.3897 114.75 26.1989 114.75 26V22C114.75 21.6685 114.882 21.3505 115.116 21.1161C115.351 20.8817 115.668 20.75 116 20.75C116.332 20.75 116.649 20.8817 116.884 21.1161C117.118 21.3505 117.25 21.6685 117.25 22V26C117.25 26.1989 117.329 26.3897 117.47 26.5303C117.61 26.671 117.801 26.75 118 26.75H126C126.199 26.75 126.39 26.671 126.53 26.5303C126.671 26.3897 126.75 26.1989 126.75 26V19C126.75 18.2707 126.46 17.5712 125.945 17.0555C125.429 16.5397 124.729 16.25 124 16.25ZM108.69 7.76125C109.986 6.89875 111.238 6.06625 112 5.065C112.762 6.065 114.014 6.89875 115.31 7.76125C117.926 9.5 120.875 11.4637 121.216 15.25H102.784C103.125 11.4637 106.074 9.5 108.69 7.76125ZM98.75 19C98.75 18.6685 98.8817 18.3505 99.1161 18.1161C99.3505 17.8817 99.6685 17.75 100 17.75C100.332 17.75 100.649 17.8817 100.884 18.1161C101.118 18.3505 101.25 18.6685 101.25 19V25.25H98.75V19ZM116 19.25C115.271 19.25 114.571 19.5397 114.055 20.0555C113.54 20.5712 113.25 21.2707 113.25 22V25.25H110.75V22C110.75 21.2707 110.46 20.5712 109.945 20.0555C109.429 19.5397 108.729 19.25 108 19.25C107.271 19.25 106.571 19.5397 106.055 20.0555C105.54 20.5712 105.25 21.2707 105.25 22V25.25H102.75V16.75H121.25V25.25H118.75V22C118.75 21.2707 118.46 20.5712 117.945 20.0555C117.429 19.5397 116.729 19.25 116 19.25ZM125.25 25.25H122.75V19C122.75 18.6685 122.882 18.3505 123.116 18.1161C123.351 17.8817 123.668 17.75 124 17.75C124.332 17.75 124.649 17.8817 124.884 18.1161C125.118 18.3505 125.25 18.6685 125.25 19V25.25Z" fill="currentColor"/>
<path d="M171.5 15.5C171.16 15.4987 170.822 15.5407 170.493 15.625C170.331 10.4325 166.824 7.835 164.243 5.9275C162.773 4.84125 161.5 3.90125 161.5 3C161.5 2.60218 161.342 2.22064 161.061 1.93934C160.779 1.65804 160.398 1.5 160 1.5C159.602 1.5 159.221 1.65804 158.939 1.93934C158.658 2.22064 158.5 2.60218 158.5 3C158.5 3.90125 157.227 4.84125 155.75 5.93125C153.171 7.83875 149.664 10.4312 149.5 15.6287C148.909 15.4762 148.291 15.4608 147.693 15.5839C147.095 15.707 146.534 15.9653 146.051 16.3389C145.569 16.7126 145.178 17.1917 144.909 17.7396C144.64 18.2875 144.5 18.8897 144.5 19.5V26C144.5 26.3978 144.658 26.7794 144.939 27.0607C145.221 27.342 145.602 27.5 146 27.5H174C174.398 27.5 174.779 27.342 175.061 27.0607C175.342 26.7794 175.5 26.3978 175.5 26V19.5C175.5 18.4391 175.079 17.4217 174.328 16.6716C173.578 15.9214 172.561 15.5 171.5 15.5ZM149.5 24.5H147.5V19.5C147.5 19.2348 147.605 18.9804 147.793 18.7929C147.98 18.6054 148.235 18.5 148.5 18.5C148.765 18.5 149.02 18.6054 149.207 18.7929C149.395 18.9804 149.5 19.2348 149.5 19.5V24.5ZM157.539 8.3425C158.414 7.7 159.289 7.0475 160 6.30875C160.71 7.0475 161.593 7.7 162.461 8.3425C164.6 9.925 166.8 11.555 167.362 14.5H152.637C153.2 11.555 155.4 9.925 157.539 8.3425ZM167.5 24.5H164.5V21C164.5 20.6022 164.342 20.2206 164.061 19.9393C163.779 19.658 163.398 19.5 163 19.5C162.602 19.5 162.221 19.658 161.939 19.9393C161.658 20.2206 161.5 20.6022 161.5 21V24.5H158.5V21C158.5 20.6022 158.342 20.2206 158.061 19.9393C157.779 19.658 157.398 19.5 157 19.5C156.602 19.5 156.221 19.658 155.939 19.9393C155.658 20.2206 155.5 20.6022 155.5 21V24.5H152.5V17.5H167.5V24.5ZM172.5 24.5H170.5V19.5C170.5 19.2348 170.605 18.9804 170.793 18.7929C170.98 18.6054 171.235 18.5 171.5 18.5C171.765 18.5 172.02 18.6054 172.207 18.7929C172.395 18.9804 172.5 19.2348 172.5 19.5V24.5Z" fill="currentColor"/>
<path d="M220 16C219.659 15.9999 219.321 16.0583 219 16.1725V16C219 10.7775 215.116 8.1925 212.28 6.305C210.52 5.1325 209 4.125 209 3C209 2.73478 208.895 2.48043 208.707 2.29289C208.52 2.10536 208.265 2 208 2C207.735 2 207.48 2.10536 207.293 2.29289C207.105 2.48043 207 2.73478 207 3C207 4.125 205.48 5.1325 203.72 6.305C200.884 8.1925 197 10.7775 197 16V16.1725C196.548 16.0125 196.063 15.9635 195.588 16.0293C195.113 16.0952 194.66 16.2742 194.268 16.5512C193.876 16.8282 193.557 17.1951 193.336 17.6212C193.115 18.0473 193 18.5201 193 19V26C193 26.2652 193.105 26.5196 193.293 26.7071C193.48 26.8946 193.735 27 194 27H201C201.265 27 201.52 26.8946 201.707 26.7071C201.895 26.5196 202 26.2652 202 26V22C202 21.4696 202.211 20.9609 202.586 20.5858C202.961 20.2107 203.47 20 204 20C204.53 20 205.039 20.2107 205.414 20.5858C205.789 20.9609 206 21.4696 206 22V26C206 26.2652 206.105 26.5196 206.293 26.7071C206.48 26.8946 206.735 27 207 27H209C209.265 27 209.52 26.8946 209.707 26.7071C209.895 26.5196 210 26.2652 210 26V22C210 21.4696 210.211 20.9609 210.586 20.5858C210.961 20.2107 211.47 20 212 20C212.53 20 213.039 20.2107 213.414 20.5858C213.789 20.9609 214 21.4696 214 22V26C214 26.2652 214.105 26.5196 214.293 26.7071C214.48 26.8946 214.735 27 215 27H222C222.265 27 222.52 26.8946 222.707 26.7071C222.895 26.5196 223 26.2652 223 26V19C223 18.2044 222.684 17.4413 222.121 16.8787C221.559 16.3161 220.796 16 220 16ZM197 25H195V19C195 18.7348 195.105 18.4804 195.293 18.2929C195.48 18.1054 195.735 18 196 18C196.265 18 196.52 18.1054 196.707 18.2929C196.895 18.4804 197 18.7348 197 19V25ZM221 25H219V19C219 18.7348 219.105 18.4804 219.293 18.2929C219.48 18.1054 219.735 18 220 18C220.265 18 220.52 18.1054 220.707 18.2929C220.895 18.4804 221 18.7348 221 19V25Z" fill="currentColor"/>
<path opacity="0.2" d="M266 16H246C246 8 256 7 256 3C256 7 266 8 266 16Z" fill="currentColor"/>
<path d="M268 16C267.659 15.9999 267.321 16.0583 267 16.1725V16C267 10.7775 263.116 8.1925 260.28 6.305C258.52 5.1325 257 4.125 257 3C257 2.73478 256.895 2.48043 256.707 2.29289C256.52 2.10536 256.265 2 256 2C255.735 2 255.48 2.10536 255.293 2.29289C255.105 2.48043 255 2.73478 255 3C255 4.125 253.48 5.1325 251.72 6.305C248.884 8.1925 245 10.7775 245 16V16.1725C244.548 16.0125 244.063 15.9635 243.588 16.0293C243.113 16.0952 242.66 16.2742 242.268 16.5512C241.876 16.8282 241.557 17.1951 241.336 17.6212C241.115 18.0473 241 18.5201 241 19V26C241 26.2652 241.105 26.5196 241.293 26.7071C241.48 26.8946 241.735 27 242 27H250C250.265 27 250.52 26.8946 250.707 26.7071C250.895 26.5196 251 26.2652 251 26V22C251 21.7348 251.105 21.4804 251.293 21.2929C251.48 21.1054 251.735 21 252 21C252.265 21 252.52 21.1054 252.707 21.2929C252.895 21.4804 253 21.7348 253 22V26C253 26.2652 253.105 26.5196 253.293 26.7071C253.48 26.8946 253.735 27 254 27H258C258.265 27 258.52 26.8946 258.707 26.7071C258.895 26.5196 259 26.2652 259 26V22C259 21.7348 259.105 21.4804 259.293 21.2929C259.48 21.1054 259.735 21 260 21C260.265 21 260.52 21.1054 260.707 21.2929C260.895 21.4804 261 21.7348 261 22V26C261 26.2652 261.105 26.5196 261.293 26.7071C261.48 26.8946 261.735 27 262 27H270C270.265 27 270.52 26.8946 270.707 26.7071C270.895 26.5196 271 26.2652 271 26V19C271 18.2044 270.684 17.4413 270.121 16.8787C269.559 16.3161 268.796 16 268 16ZM245 25H243V19C243 18.7348 243.105 18.4804 243.293 18.2929C243.48 18.1054 243.735 18 244 18C244.265 18 244.52 18.1054 244.707 18.2929C244.895 18.4804 245 18.7348 245 19V25ZM252.829 7.97C254.037 7.165 255.204 6.385 256 5.47C256.792 6.38875 257.962 7.16875 259.171 7.97C261.671 9.635 264.481 11.5063 264.935 15H247.06C247.519 11.5063 250.325 9.635 252.829 7.97ZM265 25H263V22C263 21.2044 262.684 20.4413 262.121 19.8787C261.559 19.3161 260.796 19 260 19C259.204 19 258.441 19.3161 257.879 19.8787C257.316 20.4413 257 21.2044 257 22V25H255V22C255 21.2044 254.684 20.4413 254.121 19.8787C253.559 19.3161 252.796 19 252 19C251.204 19 250.441 19.3161 249.879 19.8787C249.316 20.4413 249 21.2044 249 22V25H247V17H265V25ZM269 25H267V19C267 18.7348 267.105 18.4804 267.293 18.2929C267.48 18.1054 267.735 18 268 18C268.265 18 268.52 18.1054 268.707 18.2929C268.895 18.4804 269 18.7348 269 19V25Z" fill="currentColor"/>
</g>
<defs>
<clipPath id="clip0_17_17718">
<rect width="272" height="32" rx="5" fill="white"/>
</clipPath>
</defs>
</svg>
