<svg width="272" height="32" viewBox="0 0 272 32" fill="none" xmlns="http://www.w3.org/2000/svg">
<g clip-path="url(#clip0_17_17662)">
<path d="M25 21C24.1132 21.0008 23.2517 21.2958 22.5505 21.8387C21.8493 22.3815 21.3479 23.1417 21.125 24H9C7.93913 24 6.92172 23.5786 6.17157 22.8284C5.42143 22.0783 5 21.0609 5 20C5 18.9391 5.42143 17.9217 6.17157 17.1716C6.92172 16.4214 7.93913 16 9 16H21C22.3261 16 23.5979 15.4732 24.5355 14.5355C25.4732 13.5979 26 12.3261 26 11C26 9.67392 25.4732 8.40215 24.5355 7.46447C23.5979 6.52678 22.3261 6 21 6H9C8.73478 6 8.48043 6.10536 8.29289 6.29289C8.10536 6.48043 8 6.73478 8 7C8 7.26522 8.10536 7.51957 8.29289 7.70711C8.48043 7.89464 8.73478 8 9 8H21C21.7956 8 22.5587 8.31607 23.1213 8.87868C23.6839 9.44129 24 10.2044 24 11C24 11.7956 23.6839 12.5587 23.1213 13.1213C22.5587 13.6839 21.7956 14 21 14H9C7.4087 14 5.88258 14.6321 4.75736 15.7574C3.63214 16.8826 3 18.4087 3 20C3 21.5913 3.63214 23.1174 4.75736 24.2426C5.88258 25.3679 7.4087 26 9 26H21.125C21.312 26.7243 21.6984 27.3816 22.2402 27.8974C22.7821 28.4131 23.4577 28.7666 24.1903 28.9176C24.923 29.0687 25.6833 29.0112 26.3849 28.7519C27.0866 28.4925 27.7014 28.0416 28.1596 27.4503C28.6179 26.859 28.9011 26.1511 28.9772 25.4069C29.0533 24.6628 28.9192 23.9122 28.5902 23.2404C28.2611 22.5686 27.7502 22.0026 27.1156 21.6065C26.481 21.2105 25.748 21.0004 25 21ZM25 27C24.6044 27 24.2178 26.8827 23.8889 26.6629C23.56 26.4432 23.3036 26.1308 23.1522 25.7654C23.0009 25.3999 22.9613 24.9978 23.0384 24.6098C23.1156 24.2219 23.3061 23.8655 23.5858 23.5858C23.8655 23.3061 24.2219 23.1156 24.6098 23.0384C24.9978 22.9613 25.3999 23.0009 25.7654 23.1522C26.1308 23.3036 26.4432 23.56 26.6629 23.8889C26.8827 24.2178 27 24.6044 27 25C27 25.5304 26.7893 26.0391 26.4142 26.4142C26.0391 26.7893 25.5304 27 25 27Z" fill="currentColor"/>
<path d="M73 21.5C72.1584 21.5001 71.3451 21.8034 70.7089 22.3544C70.0728 22.9053 69.6565 23.6671 69.5362 24.5H57C55.8065 24.5 54.6619 24.0259 53.818 23.182C52.9741 22.3381 52.5 21.1935 52.5 20C52.5 18.8065 52.9741 17.6619 53.818 16.818C54.6619 15.9741 55.8065 15.5 57 15.5H69C70.1935 15.5 71.3381 15.0259 72.182 14.182C73.0259 13.3381 73.5 12.1935 73.5 11C73.5 9.80653 73.0259 8.66193 72.182 7.81802C71.3381 6.97411 70.1935 6.5 69 6.5H57C56.8674 6.5 56.7402 6.55268 56.6464 6.64645C56.5527 6.74021 56.5 6.86739 56.5 7C56.5 7.13261 56.5527 7.25979 56.6464 7.35355C56.7402 7.44732 56.8674 7.5 57 7.5H69C69.9283 7.5 70.8185 7.86875 71.4749 8.52513C72.1313 9.1815 72.5 10.0717 72.5 11C72.5 11.9283 72.1313 12.8185 71.4749 13.4749C70.8185 14.1313 69.9283 14.5 69 14.5H57C55.5413 14.5 54.1424 15.0795 53.1109 16.1109C52.0795 17.1424 51.5 18.5413 51.5 20C51.5 21.4587 52.0795 22.8576 53.1109 23.8891C54.1424 24.9205 55.5413 25.5 57 25.5H69.5362C69.6321 26.164 69.9168 26.7865 70.3564 27.2933C70.7959 27.8001 71.3719 28.1699 72.0158 28.3587C72.6596 28.5474 73.344 28.5471 73.9877 28.3579C74.6313 28.1686 75.207 27.7983 75.6462 27.2912C76.0854 26.784 76.3696 26.1613 76.4649 25.4972C76.5602 24.8331 76.4626 24.1556 76.1838 23.5454C75.9049 22.9352 75.4566 22.4179 74.8921 22.0553C74.3277 21.6927 73.6709 21.4999 73 21.5ZM73 27.5C72.5055 27.5 72.0222 27.3534 71.6111 27.0787C71.2 26.804 70.8795 26.4135 70.6903 25.9567C70.5011 25.4999 70.4516 24.9972 70.548 24.5123C70.6445 24.0273 70.8826 23.5819 71.2322 23.2322C71.5819 22.8826 72.0273 22.6445 72.5123 22.548C72.9972 22.4516 73.4999 22.5011 73.9567 22.6903C74.4135 22.8795 74.804 23.2 75.0787 23.6111C75.3534 24.0222 75.5 24.5055 75.5 25C75.5 25.663 75.2366 26.2989 74.7678 26.7678C74.2989 27.2366 73.663 27.5 73 27.5Z" fill="currentColor"/>
<path d="M121 21.25C120.136 21.251 119.298 21.5499 118.629 22.0964C117.96 22.6429 117.499 23.4035 117.325 24.25H105C103.873 24.25 102.792 23.8022 101.995 23.0052C101.198 22.2082 100.75 21.1272 100.75 20C100.75 18.8728 101.198 17.7918 101.995 16.9948C102.792 16.1978 103.873 15.75 105 15.75H117C118.26 15.75 119.468 15.2496 120.359 14.3588C121.25 13.468 121.75 12.2598 121.75 11C121.75 9.74022 121.25 8.53204 120.359 7.64124C119.468 6.75045 118.26 6.25 117 6.25H105C104.801 6.25 104.61 6.32902 104.47 6.46967C104.329 6.61032 104.25 6.80109 104.25 7C104.25 7.19891 104.329 7.38968 104.47 7.53033C104.61 7.67098 104.801 7.75 105 7.75H117C117.862 7.75 118.689 8.09241 119.298 8.7019C119.908 9.3114 120.25 10.138 120.25 11C120.25 11.862 119.908 12.6886 119.298 13.2981C118.689 13.9076 117.862 14.25 117 14.25H105C103.475 14.25 102.012 14.8558 100.934 15.9341C99.8558 17.0125 99.25 18.475 99.25 20C99.25 21.525 99.8558 22.9875 100.934 24.0659C102.012 25.1442 103.475 25.75 105 25.75H117.325C117.467 26.4452 117.803 27.0859 118.295 27.5976C118.786 28.1093 119.413 28.4711 120.102 28.641C120.79 28.8108 121.513 28.7817 122.186 28.5571C122.859 28.3325 123.455 27.9216 123.904 27.372C124.353 26.8225 124.636 26.1569 124.722 25.4525C124.807 24.7482 124.691 24.034 124.387 23.3929C124.083 22.7519 123.604 22.2102 123.004 21.8309C122.404 21.4516 121.71 21.2501 121 21.25ZM121 27.25C120.555 27.25 120.12 27.118 119.75 26.8708C119.38 26.6236 119.092 26.2722 118.921 25.861C118.751 25.4499 118.706 24.9975 118.793 24.561C118.88 24.1246 119.094 23.7237 119.409 23.409C119.724 23.0943 120.125 22.8801 120.561 22.7932C120.998 22.7064 121.45 22.751 121.861 22.9213C122.272 23.0916 122.624 23.38 122.871 23.75C123.118 24.12 123.25 24.555 123.25 25C123.25 25.5967 123.013 26.169 122.591 26.591C122.169 27.0129 121.597 27.25 121 27.25Z" fill="currentColor"/>
<path d="M169 20.5C168.07 20.5013 167.163 20.7903 166.403 21.3274C165.644 21.8645 165.069 22.6234 164.757 23.5H153C152.072 23.5 151.182 23.1313 150.525 22.4749C149.869 21.8185 149.5 20.9283 149.5 20C149.5 19.0717 149.869 18.1815 150.525 17.5251C151.182 16.8687 152.072 16.5 153 16.5H165C166.459 16.5 167.858 15.9205 168.889 14.8891C169.921 13.8576 170.5 12.4587 170.5 11C170.5 9.54131 169.921 8.14236 168.889 7.11091C167.858 6.07946 166.459 5.5 165 5.5H153C152.602 5.5 152.221 5.65804 151.939 5.93934C151.658 6.22064 151.5 6.60218 151.5 7C151.5 7.39782 151.658 7.77936 151.939 8.06066C152.221 8.34196 152.602 8.5 153 8.5H165C165.663 8.5 166.299 8.76339 166.768 9.23223C167.237 9.70107 167.5 10.337 167.5 11C167.5 11.663 167.237 12.2989 166.768 12.7678C166.299 13.2366 165.663 13.5 165 13.5H153C151.276 13.5 149.623 14.1848 148.404 15.4038C147.185 16.6228 146.5 18.2761 146.5 20C146.5 21.7239 147.185 23.3772 148.404 24.5962C149.623 25.8152 151.276 26.5 153 26.5H164.757C165.032 27.2778 165.516 27.9651 166.155 28.4866C166.794 29.0082 167.565 29.344 168.382 29.4573C169.199 29.5707 170.032 29.4572 170.789 29.1293C171.546 28.8014 172.198 28.2716 172.674 27.598C173.151 26.9244 173.433 26.1328 173.489 25.3098C173.546 24.4867 173.376 23.6639 172.996 22.9313C172.617 22.1986 172.044 21.5843 171.339 21.1555C170.634 20.7267 169.825 20.5 169 20.5ZM169 26.5C168.703 26.5 168.413 26.412 168.167 26.2472C167.92 26.0824 167.728 25.8481 167.614 25.574C167.501 25.2999 167.471 24.9983 167.529 24.7074C167.587 24.4164 167.73 24.1491 167.939 23.9393C168.149 23.7296 168.416 23.5867 168.707 23.5288C168.998 23.4709 169.3 23.5007 169.574 23.6142C169.848 23.7277 170.082 23.92 170.247 24.1666C170.412 24.4133 170.5 24.7033 170.5 25C170.5 25.3978 170.342 25.7794 170.061 26.0607C169.779 26.342 169.398 26.5 169 26.5Z" fill="currentColor"/>
<path d="M217 21C216.113 21.0008 215.252 21.2958 214.551 21.8387C213.849 22.3815 213.348 23.1417 213.125 24H201C199.939 24 198.922 23.5786 198.172 22.8284C197.421 22.0783 197 21.0609 197 20C197 18.9391 197.421 17.9217 198.172 17.1716C198.922 16.4214 199.939 16 201 16H213C214.326 16 215.598 15.4732 216.536 14.5355C217.473 13.5979 218 12.3261 218 11C218 9.67392 217.473 8.40215 216.536 7.46447C215.598 6.52678 214.326 6 213 6H201C200.735 6 200.48 6.10536 200.293 6.29289C200.105 6.48043 200 6.73478 200 7C200 7.26522 200.105 7.51957 200.293 7.70711C200.48 7.89464 200.735 8 201 8H213C213.796 8 214.559 8.31607 215.121 8.87868C215.684 9.44129 216 10.2044 216 11C216 11.7956 215.684 12.5587 215.121 13.1213C214.559 13.6839 213.796 14 213 14H201C199.409 14 197.883 14.6321 196.757 15.7574C195.632 16.8826 195 18.4087 195 20C195 21.5913 195.632 23.1174 196.757 24.2426C197.883 25.3679 199.409 26 201 26H213.125C213.312 26.7243 213.698 27.3816 214.24 27.8974C214.782 28.4131 215.458 28.7666 216.19 28.9176C216.923 29.0687 217.683 29.0112 218.385 28.7519C219.087 28.4925 219.701 28.0416 220.16 27.4503C220.618 26.859 220.901 26.1511 220.977 25.4069C221.053 24.6628 220.919 23.9122 220.59 23.2404C220.261 22.5686 219.75 22.0026 219.116 21.6065C218.481 21.2105 217.748 21.0004 217 21Z" fill="currentColor"/>
<path opacity="0.2" d="M268 25C268 25.5933 267.824 26.1734 267.494 26.6667C267.165 27.1601 266.696 27.5446 266.148 27.7716C265.6 27.9987 264.997 28.0581 264.415 27.9424C263.833 27.8266 263.298 27.5409 262.879 27.1213C262.459 26.7018 262.173 26.1672 262.058 25.5853C261.942 25.0033 262.001 24.4001 262.228 23.8519C262.455 23.3038 262.84 22.8352 263.333 22.5056C263.827 22.1759 264.407 22 265 22C265.796 22 266.559 22.3161 267.121 22.8787C267.684 23.4413 268 24.2044 268 25Z" fill="currentColor"/>
<path d="M265 21C264.113 21.0008 263.252 21.2958 262.551 21.8387C261.849 22.3815 261.348 23.1417 261.125 24H249C247.939 24 246.922 23.5786 246.172 22.8284C245.421 22.0783 245 21.0609 245 20C245 18.9391 245.421 17.9217 246.172 17.1716C246.922 16.4214 247.939 16 249 16H261C262.326 16 263.598 15.4732 264.536 14.5355C265.473 13.5979 266 12.3261 266 11C266 9.67392 265.473 8.40215 264.536 7.46447C263.598 6.52678 262.326 6 261 6H249C248.735 6 248.48 6.10536 248.293 6.29289C248.105 6.48043 248 6.73478 248 7C248 7.26522 248.105 7.51957 248.293 7.70711C248.48 7.89464 248.735 8 249 8H261C261.796 8 262.559 8.31607 263.121 8.87868C263.684 9.44129 264 10.2044 264 11C264 11.7956 263.684 12.5587 263.121 13.1213C262.559 13.6839 261.796 14 261 14H249C247.409 14 245.883 14.6321 244.757 15.7574C243.632 16.8826 243 18.4087 243 20C243 21.5913 243.632 23.1174 244.757 24.2426C245.883 25.3679 247.409 26 249 26H261.125C261.312 26.7243 261.698 27.3816 262.24 27.8974C262.782 28.4131 263.458 28.7666 264.19 28.9176C264.923 29.0687 265.683 29.0112 266.385 28.7519C267.087 28.4925 267.701 28.0416 268.16 27.4503C268.618 26.859 268.901 26.1511 268.977 25.4069C269.053 24.6628 268.919 23.9122 268.59 23.2404C268.261 22.5686 267.75 22.0026 267.116 21.6065C266.481 21.2105 265.748 21.0004 265 21ZM265 27C264.604 27 264.218 26.8827 263.889 26.6629C263.56 26.4432 263.304 26.1308 263.152 25.7654C263.001 25.3999 262.961 24.9978 263.038 24.6098C263.116 24.2219 263.306 23.8655 263.586 23.5858C263.865 23.3061 264.222 23.1156 264.61 23.0384C264.998 22.9613 265.4 23.0009 265.765 23.1522C266.131 23.3036 266.443 23.56 266.663 23.8889C266.883 24.2178 267 24.6044 267 25C267 25.5304 266.789 26.0391 266.414 26.4142C266.039 26.7893 265.53 27 265 27Z" fill="currentColor"/>
</g>
<defs>
<clipPath id="clip0_17_17662">
<rect width="272" height="32" rx="5" fill="white"/>
</clipPath>
</defs>
</svg>
