<svg width="272" height="32" viewBox="0 0 272 32" fill="none" xmlns="http://www.w3.org/2000/svg">
<g clip-path="url(#clip0_17_17550)">
<path d="M31 7C31 7.26522 30.8946 7.51957 30.7071 7.70711C30.5196 7.89464 30.2652 8 30 8H24V13C24 13.2652 23.8946 13.5196 23.7071 13.7071C23.5196 13.8946 23.2652 14 23 14H17V19C17 19.2652 16.8946 19.5196 16.7071 19.7071C16.5196 19.8946 16.2652 20 16 20H10V25C10 25.2652 9.89464 25.5196 9.70711 25.7071C9.51957 25.8946 9.26522 26 9 26H2C1.73478 26 1.48043 25.8946 1.29289 25.7071C1.10536 25.5196 1 25.2652 1 25C1 24.7348 1.10536 24.4804 1.29289 24.2929C1.48043 24.1054 1.73478 24 2 24H8V19C8 18.7348 8.10536 18.4804 8.29289 18.2929C8.48043 18.1054 8.73478 18 9 18H15V13C15 12.7348 15.1054 12.4804 15.2929 12.2929C15.4804 12.1054 15.7348 12 16 12H22V7C22 6.73478 22.1054 6.48043 22.2929 6.29289C22.4804 6.10536 22.7348 6 23 6H30C30.2652 6 30.5196 6.10536 30.7071 6.29289C30.8946 6.48043 31 6.73478 31 7Z" fill="currentColor"/>
<path d="M78.5 7C78.5 7.13261 78.4473 7.25979 78.3536 7.35355C78.2598 7.44732 78.1326 7.5 78 7.5H71.5V13C71.5 13.1326 71.4473 13.2598 71.3536 13.3536C71.2598 13.4473 71.1326 13.5 71 13.5H64.5V19C64.5 19.1326 64.4473 19.2598 64.3536 19.3536C64.2598 19.4473 64.1326 19.5 64 19.5H57.5V25C57.5 25.1326 57.4473 25.2598 57.3536 25.3536C57.2598 25.4473 57.1326 25.5 57 25.5H50C49.8674 25.5 49.7402 25.4473 49.6464 25.3536C49.5527 25.2598 49.5 25.1326 49.5 25C49.5 24.8674 49.5527 24.7402 49.6464 24.6464C49.7402 24.5527 49.8674 24.5 50 24.5H56.5V19C56.5 18.8674 56.5527 18.7402 56.6464 18.6464C56.7402 18.5527 56.8674 18.5 57 18.5H63.5V13C63.5 12.8674 63.5527 12.7402 63.6464 12.6464C63.7402 12.5527 63.8674 12.5 64 12.5H70.5V7C70.5 6.86739 70.5527 6.74021 70.6464 6.64645C70.7402 6.55268 70.8674 6.5 71 6.5H78C78.1326 6.5 78.2598 6.55268 78.3536 6.64645C78.4473 6.74021 78.5 6.86739 78.5 7Z" fill="currentColor"/>
<path d="M126.75 7C126.75 7.19891 126.671 7.38968 126.53 7.53033C126.39 7.67098 126.199 7.75 126 7.75H119.75V13C119.75 13.1989 119.671 13.3897 119.53 13.5303C119.39 13.671 119.199 13.75 119 13.75H112.75V19C112.75 19.1989 112.671 19.3897 112.53 19.5303C112.39 19.671 112.199 19.75 112 19.75H105.75V25C105.75 25.1989 105.671 25.3897 105.53 25.5303C105.39 25.671 105.199 25.75 105 25.75H98C97.8011 25.75 97.6103 25.671 97.4697 25.5303C97.329 25.3897 97.25 25.1989 97.25 25C97.25 24.8011 97.329 24.6103 97.4697 24.4697C97.6103 24.329 97.8011 24.25 98 24.25H104.25V19C104.25 18.8011 104.329 18.6103 104.47 18.4697C104.61 18.329 104.801 18.25 105 18.25H111.25V13C111.25 12.8011 111.329 12.6103 111.47 12.4697C111.61 12.329 111.801 12.25 112 12.25H118.25V7C118.25 6.80109 118.329 6.61032 118.47 6.46967C118.61 6.32902 118.801 6.25 119 6.25H126C126.199 6.25 126.39 6.32902 126.53 6.46967C126.671 6.61032 126.75 6.80109 126.75 7Z" fill="currentColor"/>
<path d="M175.5 7C175.5 7.39782 175.342 7.77936 175.061 8.06066C174.779 8.34196 174.398 8.5 174 8.5H168.5V13C168.5 13.3978 168.342 13.7794 168.061 14.0607C167.779 14.342 167.398 14.5 167 14.5H161.5V19C161.5 19.3978 161.342 19.7794 161.061 20.0607C160.779 20.342 160.398 20.5 160 20.5H154.5V25C154.5 25.3978 154.342 25.7794 154.061 26.0607C153.779 26.342 153.398 26.5 153 26.5H146C145.602 26.5 145.221 26.342 144.939 26.0607C144.658 25.7794 144.5 25.3978 144.5 25C144.5 24.6022 144.658 24.2206 144.939 23.9393C145.221 23.658 145.602 23.5 146 23.5H151.5V19C151.5 18.6022 151.658 18.2206 151.939 17.9393C152.221 17.658 152.602 17.5 153 17.5H158.5V13C158.5 12.6022 158.658 12.2206 158.939 11.9393C159.221 11.658 159.602 11.5 160 11.5H165.5V7C165.5 6.60218 165.658 6.22064 165.939 5.93934C166.221 5.65804 166.602 5.5 167 5.5H174C174.398 5.5 174.779 5.65804 175.061 5.93934C175.342 6.22064 175.5 6.60218 175.5 7Z" fill="currentColor"/>
<path d="M222 7V25C222 25.2652 221.895 25.5196 221.707 25.7071C221.52 25.8946 221.265 26 221 26H193C192.735 26 192.48 25.8946 192.293 25.7071C192.105 25.5196 192 25.2652 192 25C192 24.7348 192.105 24.4804 192.293 24.2929C192.48 24.1054 192.735 24 193 24H199V19C199 18.7348 199.105 18.4804 199.293 18.2929C199.48 18.1054 199.735 18 200 18H206V13C206 12.7348 206.105 12.4804 206.293 12.2929C206.48 12.1054 206.735 12 207 12H213V7C213 6.73478 213.105 6.48043 213.293 6.29289C213.48 6.10536 213.735 6 214 6H221C221.265 6 221.52 6.10536 221.707 6.29289C221.895 6.48043 222 6.73478 222 7Z" fill="currentColor"/>
<path opacity="0.2" d="M270 7V24C270 24.2652 269.895 24.5196 269.707 24.7071C269.52 24.8946 269.265 25 269 25H249V19H256V13H263V7H270Z" fill="currentColor"/>
<path d="M271 7C271 7.26522 270.895 7.51957 270.707 7.70711C270.52 7.89464 270.265 8 270 8H264V13C264 13.2652 263.895 13.5196 263.707 13.7071C263.52 13.8946 263.265 14 263 14H257V19C257 19.2652 256.895 19.5196 256.707 19.7071C256.52 19.8946 256.265 20 256 20H250V25C250 25.2652 249.895 25.5196 249.707 25.7071C249.52 25.8946 249.265 26 249 26H242C241.735 26 241.48 25.8946 241.293 25.7071C241.105 25.5196 241 25.2652 241 25C241 24.7348 241.105 24.4804 241.293 24.2929C241.48 24.1054 241.735 24 242 24H248V19C248 18.7348 248.105 18.4804 248.293 18.2929C248.48 18.1054 248.735 18 249 18H255V13C255 12.7348 255.105 12.4804 255.293 12.2929C255.48 12.1054 255.735 12 256 12H262V7C262 6.73478 262.105 6.48043 262.293 6.29289C262.48 6.10536 262.735 6 263 6H270C270.265 6 270.52 6.10536 270.707 6.29289C270.895 6.48043 271 6.73478 271 7Z" fill="currentColor"/>
</g>
<defs>
<clipPath id="clip0_17_17550">
<rect width="272" height="32" rx="5" fill="white"/>
</clipPath>
</defs>
</svg>
