<svg width="272" height="32" viewBox="0 0 272 32" fill="none" xmlns="http://www.w3.org/2000/svg">
<g clip-path="url(#clip0_17_17466)">
<path d="M30 14H28.58L25.1562 8.00751C24.9813 7.70146 24.7286 7.44708 24.4237 7.27015C24.1188 7.09322 23.7725 7.00003 23.42 7.00001H20.6775L19.1775 3.25751C19.0302 2.88595 18.7745 2.5673 18.4437 2.34303C18.1129 2.11876 17.7222 1.99923 17.3225 2.00001H14.6775C14.2774 1.99873 13.8862 2.11802 13.5548 2.34232C13.2235 2.56663 12.9674 2.88555 12.82 3.25751L11.3225 7.00001H8.58C8.22748 7.00003 7.88123 7.09322 7.57632 7.27015C7.27141 7.44708 7.01869 7.70146 6.84375 8.00751L3.42 14H2C1.73478 14 1.48043 14.1054 1.29289 14.2929C1.10536 14.4804 1 14.7348 1 15C1 15.2652 1.10536 15.5196 1.29289 15.7071C1.48043 15.8947 1.73478 16 2 16H3V26C3 26.5304 3.21071 27.0392 3.58579 27.4142C3.96086 27.7893 4.46957 28 5 28H8C8.53043 28 9.03914 27.7893 9.41421 27.4142C9.78929 27.0392 10 26.5304 10 26V24H22V26C22 26.5304 22.2107 27.0392 22.5858 27.4142C22.9609 27.7893 23.4696 28 24 28H27C27.5304 28 28.0391 27.7893 28.4142 27.4142C28.7893 27.0392 29 26.5304 29 26V16H30C30.2652 16 30.5196 15.8947 30.7071 15.7071C30.8946 15.5196 31 15.2652 31 15C31 14.7348 30.8946 14.4804 30.7071 14.2929C30.5196 14.1054 30.2652 14 30 14ZM14.6775 4.00001H17.3225L18.5225 7.00001H13.4775L14.6775 4.00001ZM8.58 9.00001H23.42L26.2763 14H5.72375L8.58 9.00001ZM8 26H5V24H8V26ZM24 26V24H27V26H24ZM27 22H5V16H27V22ZM7 19C7 18.7348 7.10536 18.4804 7.29289 18.2929C7.48043 18.1054 7.73478 18 8 18H10C10.2652 18 10.5196 18.1054 10.7071 18.2929C10.8946 18.4804 11 18.7348 11 19C11 19.2652 10.8946 19.5196 10.7071 19.7071C10.5196 19.8947 10.2652 20 10 20H8C7.73478 20 7.48043 19.8947 7.29289 19.7071C7.10536 19.5196 7 19.2652 7 19ZM21 19C21 18.7348 21.1054 18.4804 21.2929 18.2929C21.4804 18.1054 21.7348 18 22 18H24C24.2652 18 24.5196 18.1054 24.7071 18.2929C24.8946 18.4804 25 18.7348 25 19C25 19.2652 24.8946 19.5196 24.7071 19.7071C24.5196 19.8947 24.2652 20 24 20H22C21.7348 20 21.4804 19.8947 21.2929 19.7071C21.1054 19.5196 21 19.2652 21 19Z" fill="currentColor"/>
<path d="M78 14.5H76.29L72.7225 8.25625C72.5906 8.02771 72.4007 7.83803 72.172 7.70635C71.9433 7.57466 71.6839 7.50564 71.42 7.50625H68.3388L66.7138 3.44875C66.6034 3.16954 66.4119 2.92987 66.1638 2.76073C65.9158 2.59158 65.6227 2.50076 65.3225 2.5H62.6775C62.3776 2.49976 62.0845 2.58943 61.836 2.75744C61.5876 2.92544 61.3952 3.16407 61.2837 3.4425L59.6613 7.5H56.58C56.3161 7.49939 56.0567 7.56841 55.828 7.7001C55.5993 7.83178 55.4094 8.02146 55.2775 8.25L51.71 14.5H50C49.8674 14.5 49.7402 14.5527 49.6464 14.6464C49.5527 14.7402 49.5 14.8674 49.5 15C49.5 15.1326 49.5527 15.2598 49.6464 15.3536C49.7402 15.4473 49.8674 15.5 50 15.5H51.5V26C51.5 26.3978 51.658 26.7794 51.9393 27.0607C52.2206 27.342 52.6022 27.5 53 27.5H56C56.3978 27.5 56.7794 27.342 57.0607 27.0607C57.342 26.7794 57.5 26.3978 57.5 26V23.5H70.5V26C70.5 26.3978 70.658 26.7794 70.9393 27.0607C71.2206 27.342 71.6022 27.5 72 27.5H75C75.3978 27.5 75.7794 27.342 76.0607 27.0607C76.342 26.7794 76.5 26.3978 76.5 26V15.5H78C78.1326 15.5 78.2598 15.4473 78.3536 15.3536C78.4473 15.2598 78.5 15.1326 78.5 15C78.5 14.8674 78.4473 14.7402 78.3536 14.6464C78.2598 14.5527 78.1326 14.5 78 14.5ZM62.2125 3.81375C62.2497 3.72095 62.314 3.64145 62.3969 3.58552C62.4797 3.52959 62.5775 3.4998 62.6775 3.5H65.3225C65.4225 3.4998 65.5203 3.52959 65.6031 3.58552C65.686 3.64145 65.7503 3.72095 65.7875 3.81375L67.2612 7.5H60.7388L62.2125 3.81375ZM56.1462 8.75C56.1902 8.67388 56.2534 8.61069 56.3296 8.5668C56.4057 8.52291 56.4921 8.49987 56.58 8.5H71.42C71.5079 8.49987 71.5943 8.52291 71.6704 8.5668C71.7466 8.61069 71.8098 8.67388 71.8538 8.75L75.1388 14.5H52.8612L56.1462 8.75ZM56.5 26C56.5 26.1326 56.4473 26.2598 56.3536 26.3536C56.2598 26.4473 56.1326 26.5 56 26.5H53C52.8674 26.5 52.7402 26.4473 52.6464 26.3536C52.5527 26.2598 52.5 26.1326 52.5 26V23.5H56.5V26ZM75 26.5H72C71.8674 26.5 71.7402 26.4473 71.6464 26.3536C71.5527 26.2598 71.5 26.1326 71.5 26V23.5H75.5V26C75.5 26.1326 75.4473 26.2598 75.3536 26.3536C75.2598 26.4473 75.1326 26.5 75 26.5ZM75.5 22.5H52.5V15.5H75.5V22.5ZM55.5 19C55.5 18.8674 55.5527 18.7402 55.6464 18.6464C55.7402 18.5527 55.8674 18.5 56 18.5H58C58.1326 18.5 58.2598 18.5527 58.3536 18.6464C58.4473 18.7402 58.5 18.8674 58.5 19C58.5 19.1326 58.4473 19.2598 58.3536 19.3536C58.2598 19.4473 58.1326 19.5 58 19.5H56C55.8674 19.5 55.7402 19.4473 55.6464 19.3536C55.5527 19.2598 55.5 19.1326 55.5 19ZM69.5 19C69.5 18.8674 69.5527 18.7402 69.6464 18.6464C69.7402 18.5527 69.8674 18.5 70 18.5H72C72.1326 18.5 72.2598 18.5527 72.3536 18.6464C72.4473 18.7402 72.5 18.8674 72.5 19C72.5 19.1326 72.4473 19.2598 72.3536 19.3536C72.2598 19.4473 72.1326 19.5 72 19.5H70C69.8674 19.5 69.7402 19.4473 69.6464 19.3536C69.5527 19.2598 69.5 19.1326 69.5 19Z" fill="currentColor"/>
<path d="M126 14.25H124.435L120.935 8.13126C120.781 7.86476 120.56 7.64354 120.293 7.48991C120.026 7.33629 119.724 7.2557 119.416 7.25626H116.504L114.948 3.35001C114.819 3.02457 114.595 2.74553 114.305 2.5493C114.015 2.35308 113.673 2.24878 113.323 2.25001H110.677C110.327 2.24878 109.985 2.35308 109.695 2.5493C109.405 2.74553 109.181 3.02457 109.052 3.35001L107.493 7.25001H104.58C104.272 7.24945 103.97 7.33004 103.703 7.48366C103.437 7.63729 103.215 7.85851 103.061 8.12501L99.5612 14.25H98C97.8011 14.25 97.6103 14.329 97.4697 14.4697C97.329 14.6103 97.25 14.8011 97.25 15C97.25 15.1989 97.329 15.3897 97.4697 15.5303C97.6103 15.671 97.8011 15.75 98 15.75H99.25V26C99.25 26.4641 99.4344 26.9093 99.7626 27.2374C100.091 27.5656 100.536 27.75 101 27.75H104C104.464 27.75 104.909 27.5656 105.237 27.2374C105.566 26.9093 105.75 26.4641 105.75 26V23.75H118.25V26C118.25 26.4641 118.434 26.9093 118.763 27.2374C119.091 27.5656 119.536 27.75 120 27.75H123C123.464 27.75 123.909 27.5656 124.237 27.2374C124.566 26.9093 124.75 26.4641 124.75 26V15.75H126C126.199 15.75 126.39 15.671 126.53 15.5303C126.671 15.3897 126.75 15.1989 126.75 15C126.75 14.8011 126.671 14.6103 126.53 14.4697C126.39 14.329 126.199 14.25 126 14.25ZM110.445 3.90751C110.464 3.86099 110.496 3.82111 110.537 3.79303C110.578 3.76495 110.627 3.74996 110.677 3.75001H113.323C113.373 3.74996 113.421 3.76495 113.463 3.79303C113.504 3.82111 113.536 3.86099 113.555 3.90751L114.892 7.25001H109.108L110.445 3.90751ZM104.364 8.87501C104.386 8.83704 104.417 8.80551 104.455 8.78357C104.493 8.76163 104.536 8.75006 104.58 8.75001H119.42C119.464 8.75006 119.507 8.76163 119.545 8.78357C119.583 8.80551 119.614 8.83704 119.636 8.87501L122.708 14.25H101.293L104.364 8.87501ZM104.25 26C104.25 26.0663 104.224 26.1299 104.177 26.1768C104.13 26.2237 104.066 26.25 104 26.25H101C100.934 26.25 100.87 26.2237 100.823 26.1768C100.776 26.1299 100.75 26.0663 100.75 26V23.75H104.25V26ZM123 26.25H120C119.934 26.25 119.87 26.2237 119.823 26.1768C119.776 26.1299 119.75 26.0663 119.75 26V23.75H123.25V26C123.25 26.0663 123.224 26.1299 123.177 26.1768C123.13 26.2237 123.066 26.25 123 26.25ZM123.25 22.25H100.75V15.75H123.25V22.25ZM103.25 19C103.25 18.8011 103.329 18.6103 103.47 18.4697C103.61 18.329 103.801 18.25 104 18.25H106C106.199 18.25 106.39 18.329 106.53 18.4697C106.671 18.6103 106.75 18.8011 106.75 19C106.75 19.1989 106.671 19.3897 106.53 19.5303C106.39 19.671 106.199 19.75 106 19.75H104C103.801 19.75 103.61 19.671 103.47 19.5303C103.329 19.3897 103.25 19.1989 103.25 19ZM117.25 19C117.25 18.8011 117.329 18.6103 117.47 18.4697C117.61 18.329 117.801 18.25 118 18.25H120C120.199 18.25 120.39 18.329 120.53 18.4697C120.671 18.6103 120.75 18.8011 120.75 19C120.75 19.1989 120.671 19.3897 120.53 19.5303C120.39 19.671 120.199 19.75 120 19.75H118C117.801 19.75 117.61 19.671 117.47 19.5303C117.329 19.3897 117.25 19.1989 117.25 19Z" fill="currentColor"/>
<path d="M174.5 14H173.319L169.558 8.14751C169.332 7.79481 169.02 7.50477 168.653 7.3042C168.285 7.10363 167.873 6.99901 167.454 7.00001H165.015L163.64 3.57126C163.456 3.107 163.137 2.70885 162.723 2.42861C162.31 2.14838 161.822 1.99903 161.323 2.00002H158.677C158.177 1.99828 157.689 2.14727 157.274 2.42755C156.86 2.70784 156.54 3.1064 156.356 3.57126L154.985 7.00001H152.546C152.127 6.99891 151.715 7.10363 151.347 7.30444C150.979 7.50525 150.668 7.79567 150.443 8.14877L146.681 14H145.5C145.102 14 144.721 14.1581 144.439 14.4394C144.158 14.7207 144 15.1022 144 15.5C144 15.8978 144.158 16.2794 144.439 16.5607C144.721 16.842 145.102 17 145.5 17H146V25.5C146 26.1631 146.263 26.7989 146.732 27.2678C147.201 27.7366 147.837 28 148.5 28H151.5C152.163 28 152.799 27.7366 153.268 27.2678C153.737 26.7989 154 26.1631 154 25.5V23H166V25.5C166 26.1631 166.263 26.7989 166.732 27.2678C167.201 27.7366 167.837 28 168.5 28H171.5C172.163 28 172.799 27.7366 173.268 27.2678C173.737 26.7989 174 26.1631 174 25.5V17H174.5C174.898 17 175.279 16.842 175.561 16.5607C175.842 16.2794 176 15.8978 176 15.5C176 15.1022 175.842 14.7207 175.561 14.4394C175.279 14.1581 174.898 14 174.5 14ZM159.015 5.00002H160.985L161.785 7.00001H158.215L159.015 5.00002ZM152.819 10H167.181L169.75 14H150.25L152.819 10ZM151 25H149V23H151V25ZM169 25V23H171V25H169ZM171 20H149V17H171V20Z" fill="currentColor"/>
<path d="M222 14H220.58L217.156 8.00751C216.981 7.70146 216.729 7.44708 216.424 7.27015C216.119 7.09322 215.773 7.00003 215.42 7.00001H212.677L211.177 3.25751C211.03 2.88595 210.775 2.5673 210.444 2.34303C210.113 2.11876 209.722 1.99923 209.323 2.00001H206.677C206.277 1.99873 205.886 2.11802 205.555 2.34232C205.224 2.56663 204.967 2.88555 204.82 3.25751L203.323 7.00001H200.58C200.227 7.00003 199.881 7.09322 199.576 7.27015C199.271 7.44708 199.019 7.70146 198.844 8.00751L195.42 14H194C193.735 14 193.48 14.1054 193.293 14.2929C193.105 14.4804 193 14.7348 193 15C193 15.2652 193.105 15.5196 193.293 15.7071C193.48 15.8947 193.735 16 194 16H195V26C195 26.5304 195.211 27.0392 195.586 27.4142C195.961 27.7893 196.47 28 197 28H200C200.53 28 201.039 27.7893 201.414 27.4142C201.789 27.0392 202 26.5304 202 26V24H214V26C214 26.5304 214.211 27.0392 214.586 27.4142C214.961 27.7893 215.47 28 216 28H219C219.53 28 220.039 27.7893 220.414 27.4142C220.789 27.0392 221 26.5304 221 26V16H222C222.265 16 222.52 15.8947 222.707 15.7071C222.895 15.5196 223 15.2652 223 15C223 14.7348 222.895 14.4804 222.707 14.2929C222.52 14.1054 222.265 14 222 14ZM206.677 4.00001H209.323L210.522 7.00001H205.477L206.677 4.00001ZM202 20H200C199.735 20 199.48 19.8947 199.293 19.7071C199.105 19.5196 199 19.2652 199 19C199 18.7348 199.105 18.4804 199.293 18.2929C199.48 18.1054 199.735 18 200 18H202C202.265 18 202.52 18.1054 202.707 18.2929C202.895 18.4804 203 18.7348 203 19C203 19.2652 202.895 19.5196 202.707 19.7071C202.52 19.8947 202.265 20 202 20ZM216 20H214C213.735 20 213.48 19.8947 213.293 19.7071C213.105 19.5196 213 19.2652 213 19C213 18.7348 213.105 18.4804 213.293 18.2929C213.48 18.1054 213.735 18 214 18H216C216.265 18 216.52 18.1054 216.707 18.2929C216.895 18.4804 217 18.7348 217 19C217 19.2652 216.895 19.5196 216.707 19.7071C216.52 19.8947 216.265 20 216 20Z" fill="currentColor"/>
<path opacity="0.2" d="M263 23H268V26C268 26.2652 267.895 26.5196 267.707 26.7071C267.52 26.8946 267.265 27 267 27H264C263.735 27 263.48 26.8946 263.293 26.7071C263.105 26.5196 263 26.2652 263 26V23ZM244 26C244 26.2652 244.105 26.5196 244.293 26.7071C244.48 26.8946 244.735 27 245 27H248C248.265 27 248.52 26.8946 248.707 26.7071C248.895 26.5196 249 26.2652 249 26V23H244V26ZM264.288 8.5C264.2 8.34777 264.073 8.22139 263.921 8.13361C263.769 8.04583 263.596 7.99974 263.42 8H248.58C248.404 7.99974 248.231 8.04583 248.079 8.13361C247.927 8.22139 247.8 8.34777 247.713 8.5L244 15H268L264.288 8.5Z" fill="currentColor"/>
<path d="M270 14H268.58L265.156 8.00751C264.981 7.70146 264.729 7.44708 264.424 7.27015C264.119 7.09322 263.773 7.00003 263.42 7.00001H260.677L259.177 3.25751C259.03 2.88595 258.775 2.5673 258.444 2.34303C258.113 2.11876 257.722 1.99923 257.323 2.00001H254.677C254.277 1.99873 253.886 2.11802 253.555 2.34232C253.224 2.56663 252.967 2.88555 252.82 3.25751L251.323 7.00001H248.58C248.227 7.00003 247.881 7.09322 247.576 7.27015C247.271 7.44708 247.019 7.70146 246.844 8.00751L243.42 14H242C241.735 14 241.48 14.1054 241.293 14.2929C241.105 14.4804 241 14.7348 241 15C241 15.2652 241.105 15.5196 241.293 15.7071C241.48 15.8947 241.735 16 242 16H243V26C243 26.5304 243.211 27.0392 243.586 27.4142C243.961 27.7893 244.47 28 245 28H248C248.53 28 249.039 27.7893 249.414 27.4142C249.789 27.0392 250 26.5304 250 26V24H262V26C262 26.5304 262.211 27.0392 262.586 27.4142C262.961 27.7893 263.47 28 264 28H267C267.53 28 268.039 27.7893 268.414 27.4142C268.789 27.0392 269 26.5304 269 26V16H270C270.265 16 270.52 15.8947 270.707 15.7071C270.895 15.5196 271 15.2652 271 15C271 14.7348 270.895 14.4804 270.707 14.2929C270.52 14.1054 270.265 14 270 14ZM254.677 4.00001H257.323L258.522 7.00001H253.477L254.677 4.00001ZM248.58 9.00001H263.42L266.276 14H245.724L248.58 9.00001ZM248 26H245V24H248V26ZM264 26V24H267V26H264ZM267 22H245V16H267V22ZM247 19C247 18.7348 247.105 18.4804 247.293 18.2929C247.48 18.1054 247.735 18 248 18H250C250.265 18 250.52 18.1054 250.707 18.2929C250.895 18.4804 251 18.7348 251 19C251 19.2652 250.895 19.5196 250.707 19.7071C250.52 19.8947 250.265 20 250 20H248C247.735 20 247.48 19.8947 247.293 19.7071C247.105 19.5196 247 19.2652 247 19ZM261 19C261 18.7348 261.105 18.4804 261.293 18.2929C261.48 18.1054 261.735 18 262 18H264C264.265 18 264.52 18.1054 264.707 18.2929C264.895 18.4804 265 18.7348 265 19C265 19.2652 264.895 19.5196 264.707 19.7071C264.52 19.8947 264.265 20 264 20H262C261.735 20 261.48 19.8947 261.293 19.7071C261.105 19.5196 261 19.2652 261 19Z" fill="currentColor"/>
</g>
<defs>
<clipPath id="clip0_17_17466">
<rect width="272" height="32" rx="5" fill="white"/>
</clipPath>
</defs>
</svg>
