<svg width="272" height="32" viewBox="0 0 272 32" fill="none" xmlns="http://www.w3.org/2000/svg">
<g clip-path="url(#clip0_17_17452)">
<path d="M31.9137 24.5938L23.9137 6.59375C23.8352 6.41702 23.707 6.26686 23.5448 6.16148C23.3827 6.05609 23.1934 6 23 6H8.99999C8.80825 6.00031 8.62065 6.05574 8.45953 6.15969C8.29841 6.26363 8.17057 6.41169 8.09124 6.58625C8.09088 6.58874 8.09088 6.59126 8.09124 6.59375V6.60875L0.0862383 24.5938C0.0185488 24.746 -0.0100246 24.9128 0.0031141 25.0789C0.0162528 25.245 0.0706872 25.4051 0.161471 25.5449C0.252256 25.6846 0.376512 25.7994 0.522951 25.8789C0.669389 25.9584 0.833368 26 0.999988 26H31C31.1666 26 31.3306 25.9584 31.477 25.8789C31.6235 25.7994 31.7477 25.6846 31.8385 25.5449C31.9293 25.4051 31.9837 25.245 31.9969 25.0789C32.01 24.9128 31.9814 24.746 31.9137 24.5938ZM7.99999 24H2.53874L7.99999 11.7125V24ZM9.99999 24V11.7125L15.4612 24H9.99999ZM17.65 24L10.5387 8H22.35L29.4612 24H17.65Z" fill="currentColor"/>
<path d="M79.4575 24.7975L71.4575 6.7975C71.4183 6.70892 71.3541 6.63365 71.2729 6.58083C71.1917 6.52802 71.0969 6.49993 71 6.5H57C56.9042 6.50033 56.8105 6.5282 56.73 6.58027C56.6496 6.63235 56.5858 6.70645 56.5463 6.79375V6.80125L48.5462 24.7925C48.5115 24.8686 48.4965 24.9521 48.5024 25.0356C48.5084 25.119 48.5351 25.1995 48.5803 25.2699C48.6254 25.3403 48.6875 25.3983 48.7608 25.4384C48.8341 25.4786 48.9164 25.4998 49 25.5H79C79.0833 25.5001 79.1653 25.4793 79.2385 25.4396C79.3117 25.4 79.3739 25.3426 79.4193 25.2729C79.4648 25.2031 79.4921 25.123 79.4987 25.04C79.5054 24.957 79.4912 24.8736 79.4575 24.7975ZM56.5 9.35625V24.5H49.77L56.5 9.35625ZM57.5 24.5V9.35625L64.23 24.5H57.5ZM65.325 24.5L57.77 7.5H70.675L78.23 24.5H65.325Z" fill="currentColor"/>
<path d="M127.685 24.695L119.685 6.695C119.626 6.56256 119.53 6.45004 119.408 6.37106C119.287 6.29209 119.145 6.25004 119 6.25H105C104.856 6.25021 104.716 6.29168 104.595 6.36945C104.474 6.44723 104.378 6.55806 104.319 6.68875V6.695V6.70625L96.315 24.695C96.2642 24.8092 96.2427 24.9342 96.2525 25.0588C96.2623 25.1834 96.3031 25.3036 96.3711 25.4084C96.4392 25.5132 96.5324 25.5994 96.6422 25.6591C96.752 25.7187 96.875 25.75 97 25.75H127C127.125 25.75 127.248 25.7187 127.358 25.6591C127.468 25.5994 127.561 25.5132 127.629 25.4084C127.697 25.3036 127.738 25.1834 127.748 25.0588C127.757 24.9342 127.736 24.8092 127.685 24.695ZM104.25 10.5337V24.25H98.1538L104.25 10.5337ZM105.75 24.25V10.5337L111.846 24.25H105.75ZM113.487 24.25L106.154 7.75H118.513L125.846 24.25H113.487Z" fill="currentColor"/>
<path d="M175.875 24.3913L167.875 6.39126C167.757 6.12536 167.564 5.89953 167.32 5.74129C167.076 5.58305 166.791 5.49921 166.5 5.50001H153.5C153.215 5.5003 152.937 5.58155 152.697 5.73427C152.456 5.887 152.265 6.10489 152.144 6.36251C152.138 6.37181 152.133 6.38141 152.129 6.39126L152.125 6.41251L144.125 24.3913C144.023 24.6199 143.981 24.8704 144.001 25.1198C144.021 25.3692 144.103 25.6097 144.239 25.8193C144.376 26.0289 144.563 26.201 144.783 26.3199C145.003 26.4388 145.25 26.5007 145.5 26.5H174.5C174.75 26.5007 174.997 26.4388 175.217 26.3199C175.437 26.201 175.624 26.0289 175.761 25.8193C175.897 25.6097 175.979 25.3692 175.999 25.1198C176.019 24.8704 175.977 24.6199 175.875 24.3913ZM152 14.0688V23.5H147.807L152 14.0688ZM155 23.5V14.0688L159.192 23.5H155ZM162.475 23.5L155.809 8.50001H165.525L172.192 23.5H162.475Z" fill="currentColor"/>
<path d="M223.914 24.5938L215.914 6.59375C215.835 6.41702 215.707 6.26686 215.545 6.16148C215.383 6.05609 215.193 6 215 6H201C200.807 6 200.617 6.05609 200.455 6.16148C200.293 6.26686 200.165 6.41702 200.086 6.59375V6.60875L192.086 24.5938C192.019 24.746 191.99 24.9128 192.003 25.0789C192.016 25.245 192.071 25.4051 192.161 25.5449C192.252 25.6846 192.377 25.7994 192.523 25.8789C192.669 25.9584 192.833 26 193 26H223C223.167 26 223.331 25.9584 223.477 25.8789C223.623 25.7994 223.748 25.6846 223.839 25.5449C223.929 25.4051 223.984 25.245 223.997 25.0789C224.01 24.9128 223.981 24.746 223.914 24.5938ZM200 24H194.539L200 11.7125V24ZM202 24V11.7125L207.461 24H202Z" fill="currentColor"/>
<path opacity="0.2" d="M257 25H241L249 7L257 25Z" fill="currentColor"/>
<path d="M271.914 24.5938L263.914 6.59375C263.835 6.41702 263.707 6.26686 263.545 6.16148C263.383 6.05609 263.193 6 263 6H249C248.808 6.00031 248.621 6.05574 248.46 6.15969C248.298 6.26363 248.171 6.41169 248.091 6.58625C248.091 6.58874 248.091 6.59126 248.091 6.59375V6.60875L240.086 24.5938C240.019 24.746 239.99 24.9128 240.003 25.0789C240.016 25.245 240.071 25.4051 240.161 25.5449C240.252 25.6846 240.377 25.7994 240.523 25.8789C240.669 25.9584 240.833 26 241 26H271C271.167 26 271.331 25.9584 271.477 25.8789C271.623 25.7994 271.748 25.6846 271.839 25.5449C271.929 25.4051 271.984 25.245 271.997 25.0789C272.01 24.9128 271.981 24.746 271.914 24.5938ZM248 24H242.539L248 11.7125V24ZM250 24V11.7125L255.461 24H250ZM257.65 24L250.539 8H262.35L269.461 24H257.65Z" fill="currentColor"/>
</g>
<defs>
<clipPath id="clip0_17_17452">
<rect width="272" height="32" rx="5" fill="white"/>
</clipPath>
</defs>
</svg>
