<svg width="272" height="32" viewBox="0 0 272 32" fill="none" xmlns="http://www.w3.org/2000/svg">
<g clip-path="url(#clip0_17_17368)">
<path d="M27.965 14.7375L25.1663 4.47375C25.0508 4.05039 24.7993 3.67676 24.4505 3.41044C24.1018 3.14412 23.6751 2.9999 23.2363 3H8.76376C8.32494 2.9999 7.89826 3.14412 7.5495 3.41044C7.20073 3.67676 6.94923 4.05039 6.83376 4.47375L4.03501 14.7375C3.98874 14.9094 3.98874 15.0906 4.03501 15.2625L6.83376 25.5263C6.94923 25.9496 7.20073 26.3232 7.5495 26.5896C7.89826 26.8559 8.32494 27.0001 8.76376 27H10L8.20001 29.4C8.12122 29.5051 8.06389 29.6246 8.0313 29.7518C7.99871 29.879 7.99149 30.0114 8.01006 30.1414C8.02864 30.2714 8.07263 30.3965 8.13954 30.5095C8.20645 30.6225 8.29496 30.7212 8.40001 30.8C8.50507 30.8788 8.62462 30.9361 8.75183 30.9687C8.87905 31.0013 9.01143 31.0085 9.14144 30.99C9.27144 30.9714 9.39651 30.9274 9.50951 30.8605C9.62251 30.7936 9.72122 30.7051 9.80001 30.6L12.5 27H19.5L22.2 30.6C22.3591 30.8122 22.596 30.9524 22.8586 30.99C23.1211 31.0275 23.3878 30.9591 23.6 30.8C23.8122 30.6409 23.9525 30.404 23.99 30.1414C24.0275 29.8789 23.9591 29.6122 23.8 29.4L22 27H23.2363C23.6751 27.0001 24.1018 26.8559 24.4505 26.5896C24.7993 26.3232 25.0508 25.9496 25.1663 25.5263L27.965 15.2625C28.0113 15.0906 28.0113 14.9094 27.965 14.7375ZM8.76376 5H23.2363L25.75 14.2113L16 15.9838L6.25001 14.2113L8.76376 5ZM6.38876 16.2675L15 17.835V25H8.76376L6.38876 16.2675ZM23.2363 25H17V17.835L25.6175 16.2675L23.2363 25ZM11 11C11 10.7348 11.1054 10.4804 11.2929 10.2929C11.4804 10.1054 11.7348 10 12 10H20C20.2652 10 20.5196 10.1054 20.7071 10.2929C20.8947 10.4804 21 10.7348 21 11C21 11.2652 20.8947 11.5196 20.7071 11.7071C20.5196 11.8946 20.2652 12 20 12H12C11.7348 12 11.4804 11.8946 11.2929 11.7071C11.1054 11.5196 11 11.2652 11 11Z" fill="currentColor"/>
<path d="M75.4825 14.875L72.6838 4.605C72.5971 4.28754 72.4084 4.00738 72.1469 3.8077C71.8853 3.60802 71.5653 3.4999 71.2363 3.5H56.7638C56.4347 3.4999 56.1147 3.60802 55.8531 3.8077C55.5916 4.00738 55.4029 4.28754 55.3163 4.605L52.5175 14.875C52.4938 14.9609 52.4938 15.0516 52.5175 15.1375L55.3163 25.4013C55.4041 25.7176 55.5932 25.9963 55.8547 26.1948C56.1161 26.3933 56.4355 26.5005 56.7638 26.5H59L56.6 29.7C56.5204 29.8061 56.4863 29.9394 56.505 30.0707C56.5238 30.202 56.5939 30.3204 56.7 30.4C56.8061 30.4796 56.9394 30.5137 57.0707 30.495C57.202 30.4762 57.3204 30.4061 57.4 30.3L60.25 26.5H67.75L70.6 30.3C70.6796 30.4061 70.798 30.4762 70.9293 30.495C71.0606 30.5137 71.1939 30.4796 71.3 30.4C71.4061 30.3204 71.4762 30.202 71.495 30.0707C71.5137 29.9394 71.4796 29.8061 71.4 29.7L69 26.5H71.2363C71.5653 26.5001 71.8853 26.392 72.1469 26.1923C72.4084 25.9926 72.5971 25.7125 72.6838 25.395L75.4825 15.1313C75.5051 15.0473 75.5051 14.9589 75.4825 14.875ZM56.2813 4.875C56.3089 4.76794 56.3712 4.67306 56.4586 4.60521C56.5459 4.53736 56.6532 4.50036 56.7638 4.5H71.2363C71.3468 4.50036 71.4542 4.53736 71.5415 4.60521C71.6288 4.67306 71.6911 4.76794 71.7188 4.875L74.375 14.605L64 16.4912L53.625 14.605L56.2813 4.875ZM56.2813 25.1375L53.6913 15.6375L63.5 17.4175V25.5H56.7638C56.654 25.5 56.5473 25.4639 56.4601 25.3973C56.3729 25.3306 56.3101 25.2371 56.2813 25.1313V25.1375ZM71.7188 25.1375C71.6899 25.2434 71.6271 25.3369 71.5399 25.4035C71.4527 25.4702 71.346 25.5063 71.2363 25.5063H64.5V17.4175L74.3088 15.6337L71.7188 25.1375ZM59.5 11C59.5 10.8674 59.5527 10.7402 59.6465 10.6464C59.7402 10.5527 59.8674 10.5 60 10.5H68C68.1326 10.5 68.2598 10.5527 68.3536 10.6464C68.4473 10.7402 68.5 10.8674 68.5 11C68.5 11.1326 68.4473 11.2598 68.3536 11.3536C68.2598 11.4473 68.1326 11.5 68 11.5H60C59.8674 11.5 59.7402 11.4473 59.6465 11.3536C59.5527 11.2598 59.5 11.1326 59.5 11Z" fill="currentColor"/>
<path d="M123.724 14.8025L120.925 4.54C120.824 4.16947 120.604 3.84244 120.299 3.60932C119.994 3.3762 119.62 3.24994 119.236 3.25H104.764C104.38 3.24994 104.006 3.3762 103.701 3.60932C103.396 3.84244 103.176 4.16947 103.075 4.54L100.276 14.8025C100.241 14.9318 100.241 15.0682 100.276 15.1975L103.075 25.46C103.176 25.8305 103.396 26.1576 103.701 26.3907C104.006 26.6238 104.38 26.7501 104.764 26.75H106.5L104.4 29.55C104.341 29.6288 104.298 29.7185 104.273 29.8139C104.249 29.9093 104.244 30.0086 104.258 30.1061C104.271 30.2036 104.304 30.2974 104.355 30.3821C104.405 30.4669 104.471 30.5409 104.55 30.6C104.629 30.6591 104.718 30.7021 104.814 30.7265C104.909 30.751 105.009 30.7564 105.106 30.7425C105.204 30.7285 105.297 30.6955 105.382 30.6454C105.467 30.5952 105.541 30.5288 105.6 30.45L108.375 26.75H115.625L118.4 30.45C118.519 30.6091 118.697 30.7143 118.894 30.7425C119.091 30.7706 119.291 30.7193 119.45 30.6C119.609 30.4807 119.714 30.303 119.742 30.1061C119.771 29.9092 119.719 29.7091 119.6 29.55L117.5 26.75H119.236C119.62 26.7501 119.994 26.6238 120.299 26.3907C120.604 26.1576 120.824 25.8305 120.925 25.46L123.724 15.1975C123.759 15.0682 123.759 14.9318 123.724 14.8025ZM104.523 4.93375C104.537 4.88092 104.569 4.83432 104.612 4.80112C104.656 4.76792 104.709 4.74996 104.764 4.75H119.236C119.291 4.74996 119.344 4.76792 119.388 4.80112C119.432 4.83432 119.463 4.88092 119.478 4.93375L122.061 14.4087L112 16.2375L101.939 14.4087L104.523 4.93375ZM104.523 25.0662L102.036 15.9513L111.25 17.625V25.25H104.764C104.709 25.25 104.656 25.2321 104.612 25.1989C104.569 25.1657 104.537 25.1191 104.523 25.0662ZM119.478 25.0662C119.463 25.1191 119.432 25.1657 119.388 25.1989C119.344 25.2321 119.291 25.25 119.236 25.25H112.75V17.625L121.964 15.95L119.478 25.0662ZM107.25 11C107.25 10.8011 107.329 10.6103 107.47 10.4697C107.61 10.329 107.801 10.25 108 10.25H116C116.199 10.25 116.39 10.329 116.53 10.4697C116.671 10.6103 116.75 10.8011 116.75 11C116.75 11.1989 116.671 11.3897 116.53 11.5303C116.39 11.671 116.199 11.75 116 11.75H108C107.801 11.75 107.61 11.671 107.47 11.5303C107.329 11.3897 107.25 11.1989 107.25 11Z" fill="currentColor"/>
<path d="M172.447 14.605L169.647 4.3425C169.503 3.81345 169.189 3.34649 168.753 3.01355C168.318 2.68061 167.785 2.50016 167.236 2.5H152.764C152.215 2.50016 151.682 2.68061 151.247 3.01355C150.811 3.34649 150.497 3.81345 150.352 4.3425L147.552 14.605C147.483 14.8637 147.483 15.1363 147.552 15.395L150.352 25.6575C150.497 26.1866 150.811 26.6535 151.247 26.9865C151.682 27.3194 152.215 27.4998 152.764 27.5H153L151.8 29.1C151.561 29.4183 151.459 29.8183 151.515 30.2121C151.571 30.606 151.782 30.9613 152.1 31.2C152.418 31.4387 152.818 31.5412 153.212 31.4849C153.606 31.4287 153.961 31.2183 154.2 30.9L156.75 27.5H163.25L165.8 30.9C166.039 31.2183 166.394 31.4287 166.788 31.4849C167.182 31.5412 167.582 31.4387 167.9 31.2C168.218 30.9613 168.429 30.606 168.485 30.2121C168.541 29.8183 168.439 29.4183 168.2 29.1L167 27.5H167.236C167.785 27.4998 168.318 27.3194 168.753 26.9865C169.189 26.6535 169.503 26.1866 169.647 25.6575L172.447 15.395C172.517 15.1363 172.517 14.8637 172.447 14.605ZM153.146 5.5H166.854L169.125 13.8162L160 15.475L150.875 13.8162L153.146 5.5ZM151.074 16.9013L158.5 18.25V24.5H153.146L151.074 16.9013ZM166.854 24.5H161.5V18.25L168.926 16.9L166.854 24.5ZM154.5 11C154.5 10.6022 154.658 10.2206 154.939 9.93934C155.221 9.65804 155.602 9.5 156 9.5H164C164.398 9.5 164.779 9.65804 165.061 9.93934C165.342 10.2206 165.5 10.6022 165.5 11C165.5 11.3978 165.342 11.7794 165.061 12.0607C164.779 12.342 164.398 12.5 164 12.5H156C155.602 12.5 155.221 12.342 154.939 12.0607C154.658 11.7794 154.5 11.3978 154.5 11Z" fill="currentColor"/>
<path d="M213 11C213 11.2652 212.895 11.5196 212.707 11.7071C212.52 11.8946 212.265 12 212 12H204C203.735 12 203.48 11.8946 203.293 11.7071C203.105 11.5196 203 11.2652 203 11C203 10.7348 203.105 10.4804 203.293 10.2929C203.48 10.1054 203.735 10 204 10H212C212.265 10 212.52 10.1054 212.707 10.2929C212.895 10.4804 213 10.7348 213 11ZM219.965 15.2625L217.166 25.5263C217.051 25.9496 216.799 26.3232 216.451 26.5896C216.102 26.8559 215.675 27.0001 215.236 27H214L215.8 29.4C215.879 29.5051 215.936 29.6246 215.969 29.7518C216.001 29.879 216.009 30.0114 215.99 30.1414C215.971 30.2714 215.927 30.3965 215.86 30.5095C215.794 30.6225 215.705 30.7212 215.6 30.8C215.495 30.8788 215.375 30.9361 215.248 30.9687C215.121 31.0013 214.989 31.0085 214.859 30.99C214.729 30.9714 214.604 30.9274 214.491 30.8605C214.378 30.7936 214.279 30.7051 214.2 30.6L211.5 27H204.5L201.8 30.6C201.721 30.7051 201.623 30.7936 201.51 30.8605C201.397 30.9274 201.271 30.9714 201.141 30.99C201.011 31.0085 200.879 31.0013 200.752 30.9687C200.625 30.9361 200.505 30.8788 200.4 30.8C200.295 30.7212 200.206 30.6225 200.14 30.5095C200.073 30.3965 200.029 30.2714 200.01 30.1414C199.991 30.0114 199.999 29.879 200.031 29.7518C200.064 29.6246 200.121 29.5051 200.2 29.4L202 27H200.764C200.325 27.0001 199.898 26.8559 199.549 26.5896C199.201 26.3232 198.949 25.9496 198.834 25.5263L196.035 15.2625C195.989 15.0906 195.989 14.9094 196.035 14.7375L198.834 4.47375C198.949 4.05039 199.201 3.67676 199.549 3.41044C199.898 3.14412 200.325 2.9999 200.764 3H215.236C215.675 2.9999 216.102 3.14412 216.451 3.41044C216.799 3.67676 217.051 4.05039 217.166 4.47375L219.965 14.7375C220.011 14.9094 220.011 15.0906 219.965 15.2625ZM209 19C209 18.7348 208.895 18.4804 208.707 18.2929C208.52 18.1054 208.265 18 208 18C207.735 18 207.48 18.1054 207.293 18.2929C207.105 18.4804 207 18.7348 207 19V24C207 24.2652 207.105 24.5196 207.293 24.7071C207.48 24.8946 207.735 25 208 25C208.265 25 208.52 24.8946 208.707 24.7071C208.895 24.5196 209 24.2652 209 24V19ZM217.75 14.2113L215.236 5H200.764L198.25 14.2113L208 15.9838L217.75 14.2113Z" fill="currentColor"/>
<path opacity="0.2" d="M267 15L264.201 25.2625C264.144 25.4743 264.018 25.6613 263.844 25.7945C263.669 25.9278 263.456 26 263.236 26H248.764C248.544 26 248.331 25.9278 248.156 25.7945C247.982 25.6613 247.856 25.4743 247.799 25.2625L245 15L256 17L267 15Z" fill="currentColor"/>
<path d="M267.965 14.7375L265.166 4.47375C265.051 4.05039 264.799 3.67676 264.451 3.41044C264.102 3.14412 263.675 2.9999 263.236 3H248.764C248.325 2.9999 247.898 3.14412 247.549 3.41044C247.201 3.67676 246.949 4.05039 246.834 4.47375L244.035 14.7375C243.989 14.9094 243.989 15.0906 244.035 15.2625L246.834 25.5263C246.949 25.9496 247.201 26.3232 247.549 26.5896C247.898 26.8559 248.325 27.0001 248.764 27H250L248.2 29.4C248.121 29.5051 248.064 29.6246 248.031 29.7518C247.999 29.879 247.991 30.0114 248.01 30.1414C248.029 30.2714 248.073 30.3965 248.14 30.5095C248.206 30.6225 248.295 30.7212 248.4 30.8C248.505 30.8788 248.625 30.9361 248.752 30.9687C248.879 31.0013 249.011 31.0085 249.141 30.99C249.271 30.9714 249.397 30.9274 249.51 30.8605C249.623 30.7936 249.721 30.7051 249.8 30.6L252.5 27H259.5L262.2 30.6C262.359 30.8122 262.596 30.9524 262.859 30.99C263.121 31.0275 263.388 30.9591 263.6 30.8C263.812 30.6409 263.952 30.404 263.99 30.1414C264.027 29.8789 263.959 29.6122 263.8 29.4L262 27H263.236C263.675 27.0001 264.102 26.8559 264.451 26.5896C264.799 26.3232 265.051 25.9496 265.166 25.5263L267.965 15.2625C268.011 15.0906 268.011 14.9094 267.965 14.7375ZM248.764 5H263.236L265.75 14.2113L256 15.9838L246.25 14.2113L248.764 5ZM246.389 16.2675L255 17.835V25H248.764L246.389 16.2675ZM263.236 25H257V17.835L265.618 16.2675L263.236 25ZM251 11C251 10.7348 251.105 10.4804 251.293 10.2929C251.48 10.1054 251.735 10 252 10H260C260.265 10 260.52 10.1054 260.707 10.2929C260.895 10.4804 261 10.7348 261 11C261 11.2652 260.895 11.5196 260.707 11.7071C260.52 11.8946 260.265 12 260 12H252C251.735 12 251.48 11.8946 251.293 11.7071C251.105 11.5196 251 11.2652 251 11Z" fill="currentColor"/>
</g>
<defs>
<clipPath id="clip0_17_17368">
<rect width="272" height="32" rx="5" fill="white"/>
</clipPath>
</defs>
</svg>
