<svg width="272" height="32" viewBox="0 0 272 32" fill="none" xmlns="http://www.w3.org/2000/svg">
<g clip-path="url(#clip0_17_5399)">
<path d="M19.4999 9.00001C18.6443 8.9995 17.7924 9.11428 16.9674 9.34126C16.6418 8.80989 16.2461 8.32471 15.7912 7.89876L16.9799 6.20251C17.0553 6.09491 17.1087 5.97352 17.1371 5.84528C17.1656 5.71703 17.1684 5.58444 17.1456 5.45508C17.1228 5.32572 17.0748 5.20211 17.0042 5.09132C16.9336 4.98054 16.8419 4.88473 16.7343 4.80939C16.6267 4.73404 16.5053 4.68063 16.3771 4.65219C16.2488 4.62376 16.1162 4.62087 15.9869 4.64368C15.8575 4.66648 15.7339 4.71455 15.6231 4.78513C15.5123 4.8557 15.4165 4.94741 15.3412 5.05501L14.1524 6.75001C13.1749 6.25644 12.095 5.99953 10.9999 6.00001C10.9274 6.00001 10.8549 6.00001 10.7824 6.00001L10.4212 3.96376C10.4022 3.83108 10.3568 3.70357 10.2876 3.5888C10.2183 3.47402 10.1268 3.37434 10.0183 3.29566C9.90976 3.21698 9.78654 3.16092 9.65594 3.1308C9.52534 3.10068 9.39002 3.09712 9.25802 3.12034C9.12602 3.14356 9.00003 3.19307 8.88754 3.26594C8.77505 3.33881 8.67836 3.43355 8.60321 3.54453C8.52806 3.65551 8.47599 3.78046 8.45009 3.91196C8.42418 4.04346 8.42498 4.17883 8.45243 4.31001L8.81243 6.35251C7.70337 6.71933 6.70352 7.3574 5.90368 8.20876L4.20118 7.01751C4.09366 6.94032 3.97189 6.88523 3.84292 6.85545C3.71396 6.82567 3.58036 6.82179 3.44988 6.84404C3.3194 6.86628 3.19464 6.91421 3.08282 6.98503C2.97101 7.05586 2.87437 7.14818 2.7985 7.25665C2.72264 7.36511 2.66906 7.48755 2.64087 7.61687C2.61269 7.7462 2.61046 7.87983 2.63431 8.01003C2.65816 8.14022 2.70763 8.26438 2.77983 8.37531C2.85203 8.48625 2.94554 8.58174 3.05493 8.65626L4.74993 9.84626C4.2546 10.8236 3.9976 11.9043 3.99993 13C3.99993 13.0713 3.99993 13.1438 3.99993 13.215L1.96368 13.575C1.71721 13.6182 1.49589 13.7522 1.34339 13.9506C1.1909 14.149 1.11832 14.3973 1.13999 14.6466C1.16165 14.8959 1.27598 15.128 1.46041 15.2971C1.64484 15.4662 1.88596 15.56 2.13618 15.56C2.19441 15.5599 2.25254 15.5549 2.30993 15.545L4.34993 15.185C4.52917 15.7307 4.7752 16.2522 5.08243 16.7375C4.12592 17.626 3.4591 18.7819 3.1688 20.0546C2.87851 21.3274 2.9782 22.6581 3.45489 23.8735C3.93158 25.0888 4.76318 26.1324 5.84139 26.8685C6.9196 27.6045 8.19445 27.9988 9.49993 28H19.4999C22.0195 28 24.4358 26.9991 26.2174 25.2175C27.999 23.4359 28.9999 21.0196 28.9999 18.5C28.9999 15.9805 27.999 13.5641 26.2174 11.7825C24.4358 10.0009 22.0195 9.00001 19.4999 9.00001ZM5.99993 13C6.00053 11.9411 6.33731 10.9097 6.96173 10.0545C7.58616 9.19922 8.46599 8.56431 9.47443 8.24123C10.4829 7.91816 11.5678 7.92358 12.573 8.25674C13.5782 8.5899 14.4516 9.23357 15.0674 10.095C13.0275 11.1685 11.4457 12.9448 10.6149 15.095C9.30036 14.8681 7.94781 15.05 6.73993 15.6163C6.25633 14.8293 6.0002 13.9237 5.99993 13ZM19.4999 26H9.49993C8.88446 25.9989 8.27576 25.8715 7.71148 25.6258C7.1472 25.38 6.63932 25.0211 6.21926 24.5713C5.79919 24.1215 5.47587 23.5903 5.26928 23.0105C5.06269 22.4307 4.97723 21.8148 5.01818 21.2006C5.05912 20.5865 5.22561 19.9874 5.50734 19.4402C5.78907 18.893 6.18006 18.4094 6.65612 18.0193C7.13219 17.6292 7.68321 17.3409 8.27513 17.1723C8.86704 17.0036 9.48726 16.9582 10.0974 17.0388C10.0512 17.335 10.0187 17.6375 10.0012 17.9425C9.99363 18.0738 10.012 18.2054 10.0553 18.3296C10.0986 18.4538 10.1659 18.5683 10.2534 18.6665C10.3409 18.7647 10.4469 18.8447 10.5654 18.9019C10.6838 18.9591 10.8124 18.9925 10.9437 19C11.075 19.0076 11.2065 18.9892 11.3307 18.9459C11.455 18.9026 11.5694 18.8353 11.6676 18.7478C11.7658 18.6603 11.8458 18.5543 11.9031 18.4358C11.9603 18.3174 11.9936 18.1888 12.0012 18.0575C12.0292 17.5587 12.108 17.0641 12.2362 16.5813C12.2362 16.5613 12.2474 16.5413 12.2512 16.5213C12.6187 15.1706 13.3566 13.9495 14.3814 12.996C15.4063 12.0425 16.6773 11.3946 18.0509 11.1253C19.4246 10.856 20.8462 10.9761 22.1552 11.472C23.4642 11.968 24.6085 12.82 25.4588 13.932C26.3091 15.0439 26.8317 16.3714 26.9674 17.7646C27.1031 19.1579 26.8466 20.5613 26.2269 21.8164C25.6071 23.0715 24.6488 24.1284 23.4601 24.8677C22.2714 25.6069 20.8997 25.9991 19.4999 26Z" fill="currentColor"/>
<path d="M67.5 9.50001C66.5604 9.49935 65.6265 9.64614 64.7325 9.93501C64.3306 9.18346 63.7844 8.51865 63.125 7.97876L64.57 5.91501C64.646 5.80627 64.6758 5.67176 64.6527 5.54107C64.6296 5.41038 64.5556 5.29422 64.4468 5.21813C64.3381 5.14205 64.2036 5.11228 64.0729 5.13537C63.9422 5.15846 63.826 5.23252 63.75 5.34126L62.3062 7.40501C61.305 6.81294 60.1632 6.50041 59 6.50001C58.7862 6.50001 58.575 6.51126 58.3675 6.53126L57.93 4.05001C57.9185 3.98533 57.8945 3.92354 57.8592 3.86815C57.8239 3.81276 57.7781 3.76487 57.7243 3.7272C57.6705 3.68954 57.6098 3.66284 57.5457 3.64863C57.4815 3.63442 57.4153 3.63297 57.3506 3.64438C57.2859 3.65579 57.2241 3.67983 57.1687 3.71512C57.1133 3.75041 57.0654 3.79626 57.0278 3.85006C56.9901 3.90386 56.9634 3.96456 56.9492 4.02867C56.935 4.09279 56.9335 4.15908 56.945 4.22376L57.3825 6.70376C56.0477 7.04988 54.857 7.81 53.9812 8.87501L51.915 7.42751C51.8059 7.35142 51.6711 7.32178 51.5401 7.34511C51.4092 7.36843 51.2929 7.44281 51.2168 7.55188C51.1407 7.66095 51.1111 7.79578 51.1344 7.9267C51.1578 8.05763 51.2321 8.17392 51.3412 8.25001L53.4075 9.69251C52.8122 10.693 52.4986 11.8358 52.5 13C52.5 13.2113 52.5112 13.4213 52.5312 13.625L50.05 14.0625C49.9267 14.0841 49.8161 14.1511 49.7398 14.2503C49.6636 14.3495 49.6273 14.4737 49.6381 14.5983C49.6489 14.7229 49.7061 14.839 49.7983 14.9235C49.8905 15.0081 50.0111 15.055 50.1362 15.055C50.1655 15.0549 50.1948 15.0524 50.2237 15.0475L52.705 14.61C52.91 15.4078 53.2646 16.1595 53.75 16.825C52.783 17.6029 52.0811 18.6614 51.7408 19.8548C51.4005 21.0482 51.4387 22.3178 51.85 23.4886C52.2613 24.6594 53.0255 25.6739 54.0374 26.3924C55.0492 27.1108 56.259 27.4978 57.5 27.5H67.5C69.8869 27.5 72.1761 26.5518 73.8639 24.864C75.5517 23.1761 76.5 20.887 76.5 18.5C76.5 16.1131 75.5517 13.8239 73.8639 12.136C72.1761 10.4482 69.8869 9.50001 67.5 9.50001ZM53.5 13C53.4998 11.7844 53.9025 10.6029 54.6449 9.64037C55.3874 8.67779 56.4278 7.98832 57.6036 7.67969C58.7794 7.37106 60.0244 7.46068 61.1438 7.93453C62.2633 8.40838 63.1943 9.23977 63.7912 10.2988C62.6552 10.8113 61.6376 11.5534 60.8025 12.4785C59.9674 13.4035 59.3328 14.4914 58.9387 15.6738C58.4678 15.5583 57.9848 15.4999 57.5 15.5C56.4756 15.4994 55.4683 15.7624 54.575 16.2638C53.8772 15.3186 53.5005 14.1748 53.5 13ZM67.5 26.5H57.5C56.7936 26.4995 56.0953 26.3493 55.4512 26.0593C54.8071 25.7693 54.2317 25.3461 53.763 24.8176C53.2943 24.2892 52.9429 23.6674 52.732 22.9932C52.521 22.3191 52.4553 21.6079 52.5392 20.9065C52.623 20.2051 52.8545 19.5294 53.2184 18.924C53.5824 18.3186 54.0704 17.7972 54.6505 17.3941C55.2306 16.991 55.8895 16.7154 56.5838 16.5854C57.2781 16.4554 57.9921 16.474 58.6787 16.64C58.5859 17.0787 58.5261 17.5237 58.5 17.9713C58.4923 18.1039 58.5377 18.2341 58.6261 18.3332C58.7144 18.4324 58.8386 18.4924 58.9712 18.5C59.1038 18.5076 59.234 18.4623 59.3332 18.3739C59.4323 18.2855 59.4923 18.1614 59.5 18.0288C59.5303 17.4938 59.614 16.9633 59.75 16.445C59.75 16.43 59.7587 16.415 59.7612 16.4C60.1514 14.9586 60.9369 13.655 62.029 12.6366C63.121 11.6181 64.4761 10.9252 65.9412 10.6363C67.4063 10.3474 68.9229 10.4739 70.3199 11.0016C71.7169 11.5292 72.9384 12.437 73.8467 13.6223C74.7549 14.8077 75.3136 16.2233 75.4596 17.7095C75.6056 19.1956 75.3332 20.693 74.673 22.0324C74.0129 23.3719 72.9914 24.5 71.7238 25.2895C70.4563 26.0789 68.9932 26.4982 67.5 26.5Z" fill="currentColor"/>
<path d="M115.5 9.25003C114.604 9.25006 113.712 9.38016 112.853 9.63628C112.484 8.99701 112.014 8.42233 111.46 7.93503L112.775 6.06003C112.832 5.97935 112.872 5.88832 112.893 5.79214C112.915 5.69596 112.917 5.59651 112.9 5.49947C112.883 5.40243 112.847 5.30971 112.794 5.22659C112.741 5.14347 112.672 5.07158 112.591 5.01503C112.511 4.95848 112.42 4.91837 112.324 4.897C112.227 4.87563 112.128 4.87341 112.031 4.89048C111.934 4.90754 111.841 4.94355 111.758 4.99645C111.675 5.04934 111.603 5.1181 111.546 5.19878L110.231 7.07378C109.24 6.53278 108.129 6.24952 107 6.25003C106.856 6.25003 106.715 6.25003 106.574 6.26503L106.175 4.00628C106.161 3.90672 106.127 3.81106 106.075 3.72496C106.023 3.63887 105.954 3.56411 105.873 3.50513C105.791 3.44615 105.699 3.40416 105.601 3.38164C105.503 3.35913 105.401 3.35656 105.302 3.37409C105.203 3.39161 105.109 3.42887 105.024 3.48366C104.94 3.53844 104.867 3.60962 104.811 3.69298C104.755 3.77633 104.716 3.87015 104.697 3.96885C104.677 4.06756 104.678 4.16913 104.699 4.26753L105.096 6.52503C103.875 6.88559 102.781 7.58414 101.94 8.54003L100.059 7.22253C99.896 7.10832 99.6943 7.06352 99.4983 7.09798C99.3024 7.13244 99.1281 7.24333 99.0139 7.40628C98.8997 7.56922 98.8549 7.77086 98.8893 7.96683C98.9238 8.16281 99.0347 8.33707 99.1976 8.45128L101.073 9.76628C100.531 10.7578 100.248 11.8701 100.25 13C100.25 13.1413 100.25 13.2825 100.265 13.4238L98.0064 13.8213C97.8219 13.8536 97.6562 13.9537 97.5418 14.1021C97.4274 14.2504 97.3727 14.4361 97.3884 14.6228C97.404 14.8094 97.489 14.9835 97.6265 15.1106C97.764 15.2378 97.9441 15.3089 98.1314 15.31C98.1754 15.3099 98.2193 15.3061 98.2626 15.2988L100.525 14.9C100.721 15.5672 101.019 16.1998 101.41 16.775C100.447 17.6091 99.7614 18.7178 99.4459 19.9524C99.1303 21.187 99.1997 22.4885 99.6447 23.6826C100.09 24.8766 100.889 25.9061 101.936 26.6331C102.982 27.3601 104.226 27.7498 105.5 27.75H115.5C117.953 27.75 120.306 26.7755 122.041 25.0408C123.776 23.3061 124.75 20.9533 124.75 18.5C124.75 16.0468 123.776 13.694 122.041 11.9593C120.306 10.2246 117.953 9.25003 115.5 9.25003ZM101.75 13C101.75 11.8626 102.119 10.7559 102.802 9.84627C103.485 8.93667 104.444 8.27345 105.537 7.95638C106.629 7.63932 107.795 7.68557 108.858 8.08817C109.922 8.49077 110.826 9.22794 111.435 10.1888C109.267 11.2466 107.596 13.1066 106.775 15.375C106.356 15.2901 105.928 15.2482 105.5 15.25C104.509 15.2493 103.532 15.4859 102.651 15.94C102.064 15.0719 101.75 14.048 101.75 13ZM115.5 26.25H105.5C104.839 26.2495 104.186 26.1111 103.581 25.8436C102.977 25.5761 102.435 25.1854 101.99 24.6965C101.545 24.2076 101.208 23.6312 100.998 23.0043C100.789 22.3774 100.713 21.7137 100.775 21.0556C100.836 20.3976 101.035 19.7597 101.357 19.1827C101.68 18.6057 102.119 18.1024 102.647 17.7049C103.175 17.3075 103.78 17.0246 104.424 16.8743C105.068 16.7241 105.736 16.7099 106.385 16.8325C106.318 17.2045 106.274 17.5802 106.251 17.9575C106.24 18.1564 106.308 18.3518 106.44 18.5007C106.573 18.6495 106.759 18.7397 106.958 18.7513C107.157 18.7629 107.352 18.695 107.501 18.5625C107.65 18.4301 107.74 18.2439 107.751 18.045C107.783 17.5279 107.867 17.0153 108.001 16.515C108.001 16.4963 108.011 16.4788 108.015 16.4613C108.394 15.0648 109.156 13.8021 110.215 12.8159C111.274 11.8297 112.587 11.1593 114.007 10.8805C115.427 10.6016 116.896 10.7254 118.249 11.2378C119.603 11.7503 120.785 12.631 121.664 13.7804C122.543 14.9299 123.083 16.3022 123.223 17.7424C123.363 19.1825 123.097 20.6332 122.456 21.9303C121.815 23.2274 120.824 24.3193 119.595 25.0827C118.365 25.846 116.947 26.2504 115.5 26.25Z" fill="currentColor"/>
<path d="M163.5 8.5C162.723 8.50007 161.949 8.59026 161.192 8.76875C160.968 8.44012 160.717 8.12997 160.442 7.84125L161.389 6.48875C161.617 6.16287 161.706 5.75965 161.637 5.36782C161.568 4.97599 161.346 4.62763 161.021 4.39937C160.695 4.17112 160.291 4.08168 159.9 4.15071C159.508 4.21975 159.159 4.44162 158.931 4.7675L157.984 6.125C157.105 5.74018 156.16 5.52799 155.201 5.5L154.914 3.875C154.838 3.48984 154.614 3.14983 154.29 2.92795C153.966 2.70607 153.568 2.62001 153.181 2.68824C152.795 2.75646 152.45 2.97354 152.222 3.29287C151.994 3.6122 151.9 4.00834 151.96 4.39625L152.247 6.02125C151.356 6.37549 150.541 6.89742 149.846 7.55875L148.489 6.6075C148.163 6.37925 147.76 6.2898 147.368 6.35884C146.976 6.42788 146.628 6.64974 146.399 6.97563C146.171 7.30151 146.082 7.70472 146.151 8.09655C146.22 8.48839 146.442 8.83675 146.767 9.065L148.125 10.0138C147.739 10.8918 147.527 11.8363 147.5 12.795L145.875 13.0825C145.505 13.1473 145.173 13.3483 144.945 13.6459C144.716 13.9434 144.607 14.3159 144.639 14.6899C144.672 15.0638 144.843 15.4119 145.12 15.6656C145.397 15.9193 145.758 16.06 146.134 16.06C146.222 16.0598 146.309 16.0523 146.396 16.0375L148.021 15.75C148.144 16.0614 148.288 16.3642 148.451 16.6562C147.502 17.6463 146.865 18.8934 146.619 20.2425C146.372 21.5916 146.528 22.9834 147.065 24.245C147.603 25.5066 148.5 26.5824 149.644 27.3388C150.788 28.0953 152.129 28.4991 153.5 28.5H163.5C166.152 28.5 168.696 27.4464 170.571 25.5711C172.446 23.6957 173.5 21.1522 173.5 18.5C173.5 15.8478 172.446 13.3043 170.571 11.4289C168.696 9.55357 166.152 8.5 163.5 8.5ZM155 8.5C155.621 8.5005 156.236 8.6297 156.805 8.87947C157.374 9.12925 157.885 9.49417 158.306 9.95125C156.527 11.0305 155.127 12.6356 154.299 14.545C154.034 14.5149 153.767 14.4999 153.5 14.5C152.63 14.4999 151.769 14.6623 150.959 14.9788C150.623 14.2927 150.467 13.5325 150.506 12.7696C150.545 12.0068 150.778 11.2665 151.182 10.6184C151.586 9.97029 152.149 9.43577 152.817 9.06516C153.485 8.69455 154.236 8.50006 155 8.5ZM163.5 25.5H153.5C152.439 25.5 151.422 25.0786 150.672 24.3284C149.921 23.5783 149.5 22.5609 149.5 21.5C149.5 20.4391 149.921 19.4217 150.672 18.6716C151.422 17.9214 152.439 17.5 153.5 17.5H153.535C153.521 17.6375 153.51 17.775 153.502 17.9125C153.479 18.3103 153.615 18.7011 153.88 18.9988C154.145 19.2965 154.517 19.4768 154.915 19.5C155.313 19.5232 155.704 19.3874 156.001 19.1225C156.299 18.8576 156.479 18.4853 156.502 18.0875C156.529 17.6231 156.602 17.1624 156.72 16.7125L156.739 16.6437C157.083 15.3837 157.773 14.2451 158.731 13.3565C159.688 12.4678 160.875 11.8644 162.157 11.6145C163.439 11.3645 164.766 11.4779 165.987 11.9419C167.208 12.4059 168.275 13.2019 169.068 14.2402C169.86 15.2785 170.347 16.5177 170.473 17.818C170.599 19.1182 170.358 20.4277 169.779 21.5986C169.2 22.7696 168.306 23.7554 167.196 24.4447C166.086 25.1341 164.806 25.4996 163.5 25.5Z" fill="currentColor"/>
<path d="M211.5 9.00001C210.644 8.9995 209.792 9.11428 208.967 9.34126C208.642 8.80989 208.246 8.32471 207.791 7.89876L208.98 6.20251C209.055 6.09491 209.109 5.97352 209.137 5.84528C209.166 5.71703 209.168 5.58444 209.146 5.45508C209.123 5.32572 209.075 5.20211 209.004 5.09132C208.934 4.98054 208.842 4.88473 208.734 4.80939C208.627 4.73404 208.505 4.68063 208.377 4.65219C208.249 4.62376 208.116 4.62087 207.987 4.64368C207.858 4.66648 207.734 4.71455 207.623 4.78513C207.512 4.8557 207.417 4.94741 207.341 5.05501L206.152 6.75001C205.175 6.25644 204.095 5.99953 203 6.00001C202.926 6.00001 202.855 6.00001 202.782 6.00001L202.421 3.96376C202.402 3.83108 202.357 3.70357 202.288 3.5888C202.218 3.47402 202.127 3.37434 202.018 3.29566C201.91 3.21698 201.787 3.16092 201.656 3.1308C201.525 3.10068 201.39 3.09712 201.258 3.12034C201.126 3.14356 201 3.19307 200.888 3.26594C200.775 3.33881 200.678 3.43355 200.603 3.54453C200.528 3.65551 200.476 3.78046 200.45 3.91196C200.424 4.04346 200.425 4.17883 200.452 4.31001L200.812 6.35251C199.703 6.71933 198.704 7.3574 197.904 8.20876L196.201 7.01751C196.094 6.94032 195.972 6.88523 195.843 6.85545C195.714 6.82567 195.58 6.82179 195.45 6.84404C195.319 6.86628 195.195 6.91421 195.083 6.98503C194.971 7.05586 194.874 7.14818 194.799 7.25665C194.723 7.36511 194.669 7.48755 194.641 7.61687C194.613 7.7462 194.61 7.87983 194.634 8.01003C194.658 8.14022 194.708 8.26438 194.78 8.37531C194.852 8.48625 194.946 8.58174 195.055 8.65626L196.75 9.84626C196.255 10.8236 195.998 11.9043 196 13C196 13.0713 196 13.1438 196 13.215L193.964 13.575C193.717 13.6182 193.496 13.7522 193.343 13.9506C193.191 14.149 193.118 14.3973 193.14 14.6466C193.162 14.8959 193.276 15.128 193.46 15.2971C193.645 15.4662 193.886 15.56 194.136 15.56C194.194 15.5599 194.253 15.5549 194.31 15.545L196.35 15.185C196.529 15.7307 196.775 16.2522 197.082 16.7375C196.126 17.626 195.459 18.7819 195.169 20.0546C194.879 21.3274 194.978 22.6581 195.455 23.8735C195.932 25.0888 196.763 26.1324 197.841 26.8685C198.92 27.6045 200.194 27.9988 201.5 28H211.5C214.019 28 216.436 26.9991 218.217 25.2175C219.999 23.4359 221 21.0196 221 18.5C221 15.9805 219.999 13.5641 218.217 11.7825C216.436 10.0009 214.019 9.00001 211.5 9.00001ZM202.615 15.095C201.3 14.8681 199.948 15.05 198.74 15.6163C198.072 14.5123 197.856 13.1926 198.138 11.9333C198.42 10.674 199.179 9.5726 200.254 8.85946C201.33 8.14631 202.639 7.87668 203.909 8.10696C205.179 8.33724 206.311 9.04959 207.067 10.095C205.028 11.1685 203.446 12.9448 202.615 15.095Z" fill="currentColor"/>
<path opacity="0.2" d="M256.48 10.5512C255.219 11.0298 254.09 11.8005 253.185 12.8C252.28 13.7995 251.625 14.9994 251.274 16.3012V16.2875C250.476 16.0166 249.628 15.9321 248.792 16.0404C247.957 16.1488 247.158 16.4471 246.456 16.9125C245.895 16.2598 245.481 15.4939 245.242 14.667C245.002 13.84 244.944 12.9712 245.07 12.1197C245.197 11.2681 245.505 10.4537 245.974 9.73179C246.443 9.00986 247.062 8.3973 247.788 7.9357C248.515 7.4741 249.332 7.17428 250.185 7.05658C251.038 6.93889 251.906 7.00608 252.731 7.2536C253.555 7.50112 254.317 7.92317 254.964 8.49109C255.611 9.059 256.128 9.75949 256.48 10.545V10.5512Z" fill="currentColor"/>
<path d="M259.5 9.00001C258.644 8.9995 257.792 9.11428 256.967 9.34126C256.642 8.80989 256.246 8.32471 255.791 7.89876L256.98 6.20251C257.055 6.09491 257.109 5.97352 257.137 5.84528C257.166 5.71703 257.168 5.58444 257.146 5.45508C257.123 5.32572 257.075 5.20211 257.004 5.09132C256.934 4.98054 256.842 4.88473 256.734 4.80939C256.627 4.73404 256.505 4.68063 256.377 4.65219C256.249 4.62376 256.116 4.62087 255.987 4.64368C255.858 4.66648 255.734 4.71455 255.623 4.78513C255.512 4.8557 255.417 4.94741 255.341 5.05501L254.152 6.75001C253.175 6.25644 252.095 5.99953 251 6.00001C250.927 6.00001 250.855 6.00001 250.782 6.00001L250.421 3.96376C250.402 3.83108 250.357 3.70357 250.288 3.5888C250.218 3.47402 250.127 3.37434 250.018 3.29566C249.91 3.21698 249.787 3.16092 249.656 3.1308C249.525 3.10068 249.39 3.09712 249.258 3.12034C249.126 3.14356 249 3.19307 248.888 3.26594C248.775 3.33881 248.678 3.43355 248.603 3.54453C248.528 3.65551 248.476 3.78046 248.45 3.91196C248.424 4.04346 248.425 4.17883 248.452 4.31001L248.812 6.35251C247.703 6.71933 246.704 7.3574 245.904 8.20876L244.201 7.01751C244.094 6.94032 243.972 6.88523 243.843 6.85545C243.714 6.82567 243.58 6.82179 243.45 6.84404C243.319 6.86628 243.195 6.91421 243.083 6.98503C242.971 7.05586 242.874 7.14818 242.799 7.25665C242.723 7.36511 242.669 7.48755 242.641 7.61687C242.613 7.7462 242.61 7.87983 242.634 8.01003C242.658 8.14022 242.708 8.26438 242.78 8.37531C242.852 8.48625 242.946 8.58174 243.055 8.65626L244.75 9.84626C244.255 10.8236 243.998 11.9043 244 13C244 13.0713 244 13.1438 244 13.215L241.964 13.575C241.717 13.6182 241.496 13.7522 241.343 13.9506C241.191 14.149 241.118 14.3973 241.14 14.6466C241.162 14.8959 241.276 15.128 241.46 15.2971C241.645 15.4662 241.886 15.56 242.136 15.56C242.194 15.5599 242.253 15.5549 242.31 15.545L244.35 15.185C244.529 15.7307 244.775 16.2522 245.082 16.7375C244.126 17.626 243.459 18.7819 243.169 20.0546C242.879 21.3274 242.978 22.6581 243.455 23.8735C243.932 25.0888 244.763 26.1324 245.841 26.8685C246.92 27.6045 248.194 27.9988 249.5 28H259.5C262.019 28 264.436 26.9991 266.217 25.2175C267.999 23.4359 269 21.0196 269 18.5C269 15.9805 267.999 13.5641 266.217 11.7825C264.436 10.0009 262.019 9.00001 259.5 9.00001ZM246 13C246.001 11.9411 246.337 10.9097 246.962 10.0545C247.586 9.19922 248.466 8.56431 249.474 8.24123C250.483 7.91816 251.568 7.92358 252.573 8.25674C253.578 8.5899 254.452 9.23357 255.067 10.095C253.028 11.1685 251.446 12.9448 250.615 15.095C249.3 14.8681 247.948 15.05 246.74 15.6163C246.256 14.8293 246 13.9237 246 13ZM259.5 26H249.5C248.884 25.9989 248.276 25.8715 247.711 25.6258C247.147 25.38 246.639 25.0211 246.219 24.5713C245.799 24.1215 245.476 23.5903 245.269 23.0105C245.063 22.4307 244.977 21.8148 245.018 21.2006C245.059 20.5865 245.226 19.9874 245.507 19.4402C245.789 18.893 246.18 18.4094 246.656 18.0193C247.132 17.6292 247.683 17.3409 248.275 17.1723C248.867 17.0036 249.487 16.9582 250.097 17.0388C250.051 17.335 250.019 17.6375 250.001 17.9425C249.994 18.0738 250.012 18.2054 250.055 18.3296C250.099 18.4538 250.166 18.5683 250.253 18.6665C250.341 18.7647 250.447 18.8447 250.565 18.9019C250.684 18.9591 250.812 18.9925 250.944 19C251.075 19.0076 251.207 18.9892 251.331 18.9459C251.455 18.9026 251.569 18.8353 251.668 18.7478C251.766 18.6603 251.846 18.5543 251.903 18.4358C251.96 18.3174 251.994 18.1888 252.001 18.0575C252.029 17.5587 252.108 17.0641 252.236 16.5813C252.236 16.5613 252.247 16.5413 252.251 16.5213C252.619 15.1706 253.357 13.9495 254.381 12.996C255.406 12.0425 256.677 11.3946 258.051 11.1253C259.425 10.856 260.846 10.9761 262.155 11.472C263.464 11.968 264.608 12.82 265.459 13.932C266.309 15.0439 266.832 16.3714 266.967 17.7646C267.103 19.1579 266.847 20.5613 266.227 21.8164C265.607 23.0715 264.649 24.1284 263.46 24.8677C262.271 25.6069 260.9 25.9991 259.5 26Z" fill="currentColor"/>
</g>
<defs>
<clipPath id="clip0_17_5399">
<rect width="272" height="32" rx="5" fill="white"/>
</clipPath>
</defs>
</svg>
