<svg width="272" height="32" viewBox="0 0 272 32" fill="none" xmlns="http://www.w3.org/2000/svg">
<g clip-path="url(#clip0_17_5371)">
<path d="M21.75 5.96871C20.206 4.18551 18.4682 2.57978 16.5688 1.18121C16.4006 1.06343 16.2003 1.00024 15.995 1.00024C15.7897 1.00024 15.5894 1.06343 15.4213 1.18121C13.5253 2.58036 11.7909 4.18607 10.25 5.96871C6.81375 9.91496 5 14.075 5 18C5 20.9173 6.15893 23.7152 8.22183 25.7781C10.2847 27.841 13.0826 29 16 29C18.9174 29 21.7153 27.841 23.7782 25.7781C25.8411 23.7152 27 20.9173 27 18C27 14.075 25.1863 9.91496 21.75 5.96871ZM16 27C13.6139 26.9973 11.3262 26.0483 9.63896 24.361C7.95171 22.6737 7.00265 20.3861 7 18C7 10.8462 13.9338 4.87496 16 3.24996C18.0662 4.87496 25 10.8437 25 18C24.9974 20.3861 24.0483 22.6737 22.361 24.361C20.6738 26.0483 18.3861 26.9973 16 27ZM22.9862 19.1675C22.7269 20.6158 22.0301 21.95 20.9896 22.9903C19.949 24.0307 18.6147 24.7272 17.1663 24.9862C17.1113 24.995 17.0557 24.9996 17 25C16.7492 24.9999 16.5075 24.9056 16.323 24.7357C16.1384 24.5658 16.0245 24.3327 16.0037 24.0828C15.9829 23.8328 16.0569 23.5841 16.2108 23.3861C16.3648 23.1881 16.5876 23.0552 16.835 23.0137C18.9062 22.665 20.6637 20.9075 21.015 18.8325C21.0594 18.5709 21.2059 18.3377 21.4223 18.1841C21.6387 18.0306 21.9072 17.9693 22.1688 18.0137C22.4303 18.0581 22.6635 18.2047 22.8171 18.421C22.9706 18.6374 23.0319 18.9059 22.9875 19.1675H22.9862Z" fill="currentColor"/>
<path d="M69.375 6.29755C67.8578 4.54437 66.1502 2.96549 64.2838 1.59005C64.1998 1.53143 64.0999 1.5 63.9975 1.5C63.8951 1.5 63.7952 1.53143 63.7113 1.59005C61.8465 2.96578 60.1406 4.54465 58.625 6.29755C55.2713 10.1513 53.5 14.1975 53.5 18C53.5 20.7848 54.6062 23.4555 56.5754 25.4247C58.5445 27.3938 61.2152 28.5 64 28.5C66.7848 28.5 69.4555 27.3938 71.4246 25.4247C73.3938 23.4555 74.5 20.7848 74.5 18C74.5 14.1975 72.7288 10.1513 69.375 6.29755ZM64 27.5C61.4813 27.4974 59.0664 26.4957 57.2854 24.7146C55.5044 22.9336 54.5026 20.5188 54.5 18C54.5 13.5125 57.1438 9.52505 59.3625 6.97005C60.7597 5.37085 62.3133 3.91528 64 2.62505C65.687 3.91686 67.2405 5.37411 68.6375 6.97505C70.8563 9.52505 73.5 13.5125 73.5 18C73.4974 20.5188 72.4956 22.9336 70.7146 24.7146C68.9336 26.4957 66.5187 27.4974 64 27.5ZM70.4925 19.0838C70.252 20.4304 69.6044 21.6708 68.6371 22.6379C67.6697 23.6051 66.4291 24.2523 65.0825 24.4925C65.0553 24.4975 65.0277 24.5 65 24.5C64.8752 24.4991 64.7553 24.4516 64.6637 24.3667C64.5722 24.2819 64.5158 24.1659 64.5054 24.0415C64.4951 23.9171 64.5316 23.7934 64.6079 23.6946C64.6841 23.5958 64.7946 23.5291 64.9175 23.5075C67.19 23.125 69.1213 21.1938 69.5075 18.9163C69.5344 18.7901 69.609 18.6792 69.7158 18.6068C69.8225 18.5343 69.9532 18.5059 70.0803 18.5276C70.2075 18.5492 70.3214 18.6191 70.3983 18.7228C70.4751 18.8265 70.5088 18.9558 70.4925 19.0838Z" fill="currentColor"/>
<path d="M117.566 6.13246C116.035 4.36394 114.313 2.77085 112.43 1.38246C112.304 1.29426 112.154 1.24695 112 1.24695C111.846 1.24695 111.696 1.29426 111.57 1.38246C109.687 2.77085 107.965 4.36394 106.434 6.13246C103.043 10.0325 101.25 14.1362 101.25 18C101.25 20.851 102.383 23.5853 104.399 25.6014C106.415 27.6174 109.149 28.75 112 28.75C114.851 28.75 117.585 27.6174 119.601 25.6014C121.617 23.5853 122.75 20.851 122.75 18C122.75 14.1362 120.958 10.0325 117.566 6.13246ZM112 27.25C109.548 27.247 107.197 26.2715 105.463 24.5374C103.728 22.8033 102.753 20.4523 102.75 18C102.75 10.5475 110.125 4.38371 112 2.93621C113.875 4.38371 121.25 10.5475 121.25 18C121.247 20.4523 120.272 22.8033 118.537 24.5374C116.803 26.2715 114.452 27.247 112 27.25ZM118.74 19.125C118.49 20.5225 117.818 21.8098 116.814 22.8137C115.81 23.8176 114.523 24.4899 113.125 24.74C113.084 24.7463 113.042 24.7496 113 24.75C112.811 24.7507 112.63 24.6804 112.49 24.553C112.351 24.4256 112.265 24.2506 112.25 24.0627C112.234 23.8748 112.289 23.6878 112.405 23.539C112.521 23.3903 112.689 23.2906 112.875 23.26C115.047 22.895 116.891 21.05 117.26 18.875C117.293 18.6787 117.403 18.5036 117.565 18.3883C117.645 18.3312 117.736 18.2905 117.832 18.2684C117.928 18.2464 118.028 18.2435 118.125 18.26C118.222 18.2764 118.315 18.3118 118.399 18.3641C118.482 18.4165 118.555 18.4848 118.612 18.5651C118.669 18.6454 118.709 18.7362 118.732 18.8323C118.754 18.9283 118.756 19.0278 118.74 19.125Z" fill="currentColor"/>
<path d="M160.86 0.771261C160.608 0.594859 160.308 0.500244 160 0.500244C159.692 0.500244 159.392 0.594859 159.14 0.771261C157.207 2.19572 155.439 3.83078 153.868 5.64626C150.356 9.67876 148.5 13.9525 148.5 18C148.5 21.05 149.712 23.9751 151.868 26.1317C154.025 28.2884 156.95 29.5 160 29.5C163.05 29.5 165.975 28.2884 168.132 26.1317C170.288 23.9751 171.5 21.05 171.5 18C171.5 8.33001 161.295 1.07501 160.86 0.771261ZM160 26.5C157.746 26.4977 155.586 25.6014 153.992 24.0079C152.399 22.4143 151.502 20.2536 151.5 18C151.5 13.8363 154 10.0788 156.087 7.66126C157.279 6.29224 158.588 5.02994 160 3.88876C161.412 5.02994 162.721 6.29224 163.913 7.66126C166 10.0788 168.5 13.8363 168.5 18C168.498 20.2536 167.601 22.4143 166.008 24.0079C164.414 25.6014 162.254 26.4977 160 26.5ZM166.202 19.95C165.889 20.9482 165.338 21.8558 164.598 22.5957C163.858 23.3357 162.951 23.886 161.952 24.2C161.807 24.2453 161.655 24.2685 161.503 24.2688C161.144 24.269 160.797 24.1408 160.525 23.9074C160.253 23.674 160.073 23.3508 160.019 22.9964C159.964 22.642 160.039 22.2798 160.228 21.9755C160.418 21.6711 160.71 21.4448 161.052 21.3375C161.59 21.1685 162.08 20.872 162.478 20.4733C162.877 20.0746 163.173 19.5855 163.343 19.0475C163.402 18.8596 163.497 18.6851 163.624 18.534C163.75 18.383 163.905 18.2584 164.08 18.1673C164.433 17.9832 164.844 17.9469 165.224 18.0663C165.412 18.1254 165.586 18.2209 165.737 18.3474C165.888 18.4739 166.013 18.629 166.104 18.8037C166.195 18.9784 166.251 19.1693 166.268 19.3655C166.286 19.5618 166.264 19.7596 166.205 19.9475L166.202 19.95Z" fill="currentColor"/>
<path d="M213.75 5.96871C212.206 4.18551 210.468 2.57978 208.569 1.18121C208.401 1.06343 208.2 1.00024 207.995 1.00024C207.79 1.00024 207.589 1.06343 207.421 1.18121C205.525 2.58036 203.791 4.18607 202.25 5.96871C198.814 9.91496 197 14.075 197 18C197 20.9173 198.159 23.7152 200.222 25.7781C202.285 27.841 205.083 29 208 29C210.917 29 213.715 27.841 215.778 25.7781C217.841 23.7152 219 20.9173 219 18C219 14.075 217.186 9.91496 213.75 5.96871ZM214.981 19.1675C214.722 20.6158 214.025 21.95 212.985 22.9903C211.944 24.0307 210.61 24.7272 209.161 24.9862C209.108 24.9948 209.054 24.9994 209 25C208.749 24.9999 208.508 24.9056 208.323 24.7357C208.138 24.5658 208.024 24.3327 208.004 24.0828C207.983 23.8328 208.057 23.5841 208.211 23.3861C208.365 23.1881 208.588 23.0552 208.835 23.0137C210.906 22.665 212.664 20.9075 213.015 18.8325C213.059 18.5709 213.206 18.3377 213.422 18.1841C213.639 18.0306 213.907 17.9693 214.169 18.0137C214.43 18.0581 214.664 18.2047 214.817 18.421C214.971 18.6374 215.032 18.9059 214.987 19.1675H214.981Z" fill="currentColor"/>
<path opacity="0.2" d="M266 18C266 20.6522 264.946 23.1957 263.071 25.0711C261.196 26.9464 258.652 28 256 28C253.348 28 250.804 26.9464 248.929 25.0711C247.054 23.1957 246 20.6522 246 18C246 9 256 2 256 2C256 2 266 9 266 18Z" fill="currentColor"/>
<path d="M261.75 5.96871C260.206 4.18551 258.468 2.57978 256.569 1.18121C256.401 1.06343 256.2 1.00024 255.995 1.00024C255.79 1.00024 255.589 1.06343 255.421 1.18121C253.525 2.58036 251.791 4.18607 250.25 5.96871C246.814 9.91496 245 14.075 245 18C245 20.9173 246.159 23.7152 248.222 25.7781C250.285 27.841 253.083 29 256 29C258.917 29 261.715 27.841 263.778 25.7781C265.841 23.7152 267 20.9173 267 18C267 14.075 265.186 9.91496 261.75 5.96871ZM256 27C253.614 26.9973 251.326 26.0483 249.639 24.361C247.952 22.6737 247.003 20.3861 247 18C247 10.8462 253.934 4.87496 256 3.24996C258.066 4.87496 265 10.8437 265 18C264.997 20.3861 264.048 22.6737 262.361 24.361C260.674 26.0483 258.386 26.9973 256 27ZM262.986 19.1675C262.727 20.6158 262.03 21.95 260.99 22.9903C259.949 24.0307 258.615 24.7272 257.166 24.9862C257.111 24.995 257.056 24.9996 257 25C256.749 24.9999 256.508 24.9056 256.323 24.7357C256.138 24.5658 256.024 24.3327 256.004 24.0828C255.983 23.8328 256.057 23.5841 256.211 23.3861C256.365 23.1881 256.588 23.0552 256.835 23.0137C258.906 22.665 260.664 20.9075 261.015 18.8325C261.059 18.5709 261.206 18.3377 261.422 18.1841C261.639 18.0306 261.907 17.9693 262.169 18.0137C262.43 18.0581 262.664 18.2047 262.817 18.421C262.971 18.6374 263.032 18.9059 262.987 19.1675H262.986Z" fill="currentColor"/>
</g>
<defs>
<clipPath id="clip0_17_5371">
<rect width="272" height="32" rx="5" fill="white"/>
</clipPath>
</defs>
</svg>
