<svg width="272" height="32" viewBox="0 0 272 32" fill="none" xmlns="http://www.w3.org/2000/svg">
<g clip-path="url(#clip0_17_5301)">
<path d="M20.9999 9.49996C20.9999 9.79663 20.9119 10.0866 20.7471 10.3333C20.5823 10.58 20.348 10.7722 20.0739 10.8858C19.7998 10.9993 19.4982 11.029 19.2073 10.9711C18.9163 10.9133 18.649 10.7704 18.4392 10.5606C18.2295 10.3508 18.0866 10.0836 18.0287 9.7926C17.9708 9.50163 18.0005 9.20003 18.1141 8.92594C18.2276 8.65185 18.4199 8.41758 18.6665 8.25276C18.9132 8.08793 19.2032 7.99996 19.4999 7.99996C19.8977 7.99996 20.2792 8.158 20.5605 8.4393C20.8419 8.72061 20.9999 9.10214 20.9999 9.49996ZM24.9424 20.8462C21.5599 24.2212 16.2649 25.64 9.15239 25.09C9.35155 26.5766 9.63072 28.142 9.98989 29.7862C10.0464 30.0453 9.99764 30.3162 9.85442 30.5394C9.71119 30.7625 9.4852 30.9197 9.22614 30.9762C9.15557 30.9921 9.08346 31 9.01114 31C8.78338 30.9995 8.56259 30.9214 8.38529 30.7784C8.208 30.6354 8.08482 30.4362 8.03614 30.2137C7.62697 28.3445 7.31906 26.5679 7.11239 24.8837C5.42906 24.6762 3.65364 24.3683 1.78614 23.96C1.52821 23.9021 1.30367 23.7445 1.1616 23.5216C1.01953 23.2987 0.971497 23.0286 1.028 22.7704C1.0845 22.5122 1.24094 22.2869 1.46312 22.1437C1.68529 22.0004 1.95513 21.951 2.21364 22.0062C3.85614 22.3645 5.42031 22.6437 6.90614 22.8437C6.35739 15.7325 7.78114 10.4387 11.1561 7.05746C16.6249 1.57246 25.3036 3.11246 26.9874 3.47746C27.3634 3.5594 27.708 3.74763 27.9801 4.01975C28.2522 4.29188 28.4405 4.63644 28.5224 5.01246C28.8874 6.69621 30.4286 15.375 24.9424 20.8462ZM23.0674 19.86C20.3168 19.4444 17.7717 18.1585 15.8053 16.1908C13.8389 14.2231 12.5548 11.6771 12.1411 8.92621C9.44489 11.97 8.37489 16.7087 8.92739 23.0687C15.2886 23.625 20.0274 22.555 23.0711 19.86H23.0674ZM26.5674 5.43621C24.5436 5.01781 22.4691 4.90071 20.4111 5.08871C17.8811 5.33871 15.7361 6.06746 14.0049 7.27121C14.0737 10.0942 15.2254 12.7825 17.2216 14.7797C19.2179 16.7769 21.9057 17.9299 24.7286 18C25.9311 16.2687 26.6649 14.125 26.9111 11.5937C27.0984 9.53545 26.9826 7.46085 26.5674 5.43621Z" fill="currentColor"/>
<path d="M68.5001 9.49998C68.5001 9.69776 68.4415 9.8911 68.3316 10.0556C68.2217 10.22 68.0656 10.3482 67.8828 10.4239C67.7001 10.4995 67.499 10.5194 67.3051 10.4808C67.1111 10.4422 66.9329 10.3469 66.793 10.2071C66.6532 10.0672 66.5579 9.88905 66.5194 9.69507C66.4808 9.50109 66.5006 9.30002 66.5763 9.1173C66.652 8.93457 66.7801 8.77839 66.9446 8.66851C67.109 8.55863 67.3024 8.49998 67.5001 8.49998C67.7654 8.49998 68.0197 8.60534 68.2073 8.79287C68.3948 8.98041 68.5001 9.23476 68.5001 9.49998ZM72.5889 20.5C69.2139 23.8637 63.8476 25.2175 56.5789 24.5462C56.7814 26.2296 57.0885 28.0137 57.5001 29.8987C57.529 30.0275 57.5057 30.1624 57.4355 30.2741C57.3652 30.3858 57.2537 30.4652 57.1251 30.495C57.0898 30.5024 57.0538 30.5062 57.0176 30.5062C56.9037 30.506 56.7932 30.4668 56.7046 30.3952C56.6159 30.3236 56.5544 30.2238 56.5301 30.1125C56.1135 28.2396 55.7923 26.3467 55.5676 24.4412C53.6635 24.2155 51.7719 23.8939 49.9001 23.4775C49.8339 23.466 49.7706 23.4413 49.7141 23.4048C49.6576 23.3683 49.609 23.3208 49.5713 23.2651C49.5336 23.2094 49.5075 23.1467 49.4946 23.0807C49.4817 23.0147 49.4823 22.9468 49.4962 22.881C49.5102 22.8152 49.5373 22.7529 49.5759 22.6978C49.6145 22.6427 49.6638 22.596 49.7209 22.5604C49.778 22.5249 49.8417 22.5012 49.9081 22.4908C49.9746 22.4804 50.0424 22.4835 50.1076 22.5C51.9901 22.9125 53.7726 23.22 55.4551 23.4225C54.7876 16.1512 56.1414 10.7825 59.5001 7.41248C64.7889 2.11123 73.2351 3.61248 74.8751 3.96748C75.1589 4.02887 75.4189 4.17067 75.6242 4.37594C75.8295 4.58121 75.9713 4.84125 76.0326 5.12498C76.3876 6.75998 77.8889 15.205 72.5889 20.5ZM71.8826 19.7925C71.9839 19.69 72.0826 19.585 72.1801 19.48C69.1545 19.2812 66.3042 17.9894 64.1603 15.8452C62.0163 13.701 60.7248 10.8507 60.5264 7.82498C60.4201 7.92373 60.3151 8.02248 60.2126 8.12498C57.0339 11.3037 55.7814 16.4725 56.4689 23.5275C63.5251 24.2162 68.6951 22.965 71.8826 19.7862V19.7925ZM75.0551 5.33123C75.0352 5.23632 74.988 5.14928 74.9194 5.0807C74.8508 5.01212 74.7638 4.96496 74.6689 4.94498C72.5949 4.5198 70.4698 4.40104 68.3614 4.59248C65.6376 4.85748 63.3376 5.67248 61.5001 7.01748C61.5048 10.0614 62.716 12.9793 64.8684 15.1317C67.0208 17.2841 69.9387 18.4954 72.9826 18.5C74.3276 16.6625 75.1426 14.3625 75.4076 11.6375C75.599 9.52947 75.4803 7.40478 75.0551 5.33123Z" fill="currentColor"/>
<path d="M116.75 9.50001C116.75 9.74723 116.677 9.98891 116.539 10.1945C116.402 10.4 116.207 10.5602 115.978 10.6549C115.75 10.7495 115.499 10.7742 115.256 10.726C115.014 10.6778 114.791 10.5587 114.616 10.3839C114.441 10.2091 114.322 9.98635 114.274 9.74387C114.226 9.50139 114.251 9.25006 114.345 9.02165C114.44 8.79324 114.6 8.59802 114.806 8.46067C115.011 8.32332 115.253 8.25001 115.5 8.25001C115.832 8.25001 116.15 8.3817 116.384 8.61612C116.618 8.85054 116.75 9.16849 116.75 9.50001ZM120.766 20.67C117.391 24.045 112.055 25.42 104.864 24.8163C105.065 26.3996 105.356 28.0742 105.739 29.84C105.781 30.0343 105.745 30.2374 105.637 30.4048C105.53 30.5721 105.361 30.69 105.166 30.7325C105.113 30.7439 105.059 30.7497 105.005 30.75C104.834 30.7497 104.669 30.691 104.536 30.5837C104.403 30.4764 104.31 30.3269 104.274 30.16C103.851 28.2258 103.536 26.3925 103.33 24.66C101.598 24.4525 99.7643 24.1379 97.8301 23.7163C97.6357 23.6725 97.4666 23.5533 97.36 23.3849C97.2535 23.2164 97.2182 23.0126 97.262 22.8181C97.3058 22.6237 97.425 22.4546 97.5934 22.3481C97.7618 22.2415 97.9657 22.2062 98.1601 22.25C99.9226 22.6358 101.596 22.9296 103.18 23.1313C102.571 15.9425 103.959 10.6113 107.329 7.23501C112.71 1.84126 121.271 3.36001 122.934 3.72251C123.263 3.79412 123.565 3.95886 123.803 4.1971C124.041 4.43534 124.206 4.73704 124.278 5.06626C124.638 6.72751 126.159 15.29 120.766 20.67ZM119.634 19.6788C116.741 19.3662 114.041 18.074 111.984 16.0163C109.926 13.9587 108.634 11.2594 108.321 8.36626C105.279 11.4725 104.071 16.48 104.696 23.2988C111.519 23.9313 116.526 22.7213 119.634 19.6788ZM122.811 5.38376C122.802 5.33571 122.778 5.29161 122.743 5.25694C122.709 5.22226 122.664 5.19855 122.616 5.18876C120.568 4.76881 118.469 4.65173 116.386 4.84126C113.761 5.09126 111.536 5.87126 109.751 7.14501C109.789 10.0783 110.971 12.881 113.045 14.9554C115.119 17.0299 117.922 18.2121 120.855 18.25C122.129 16.465 122.904 14.2425 123.159 11.615C123.349 9.53211 123.231 7.43265 122.811 5.38376Z" fill="currentColor"/>
<path d="M165.5 9.49995C165.5 9.89552 165.383 10.2822 165.163 10.6111C164.943 10.94 164.631 11.1963 164.265 11.3477C163.9 11.4991 163.498 11.5387 163.11 11.4615C162.722 11.3844 162.365 11.1939 162.086 10.9142C161.806 10.6345 161.615 10.2781 161.538 9.89013C161.461 9.50217 161.501 9.10004 161.652 8.73459C161.803 8.36914 162.06 8.05678 162.389 7.83702C162.718 7.61725 163.104 7.49995 163.5 7.49995C164.03 7.49995 164.539 7.71067 164.914 8.08574C165.289 8.46081 165.5 8.96952 165.5 9.49995ZM169.296 21.2012C165.909 24.5812 160.69 26.0625 153.732 25.625C153.921 26.915 154.171 28.2645 154.482 29.6737C154.524 29.8662 154.528 30.0651 154.493 30.259C154.459 30.4529 154.386 30.6381 154.28 30.804C154.173 30.9698 154.035 31.1131 153.874 31.2257C153.712 31.3382 153.53 31.4178 153.337 31.46C153.145 31.5021 152.946 31.5058 152.752 31.4711C152.558 31.4363 152.373 31.3637 152.207 31.2574C152.041 31.1511 151.898 31.0131 151.785 30.8514C151.673 30.6897 151.593 30.5074 151.551 30.315C151.171 28.5733 150.877 26.91 150.67 25.325C149.086 25.1175 147.424 24.8233 145.684 24.4425C145.295 24.3574 144.956 24.1215 144.741 23.7865C144.526 23.4515 144.454 23.0449 144.539 22.6562C144.624 22.2675 144.86 21.9285 145.195 21.7138C145.53 21.499 145.936 21.4262 146.325 21.5112C147.732 21.8195 149.081 22.0695 150.37 22.2612C149.94 15.3062 151.421 10.09 154.802 6.7012C160.456 1.03245 169.366 2.61245 171.095 2.9862C171.565 3.08881 171.995 3.32415 172.336 3.66428C172.676 4.0044 172.911 4.43501 173.014 4.90495C173.387 6.6337 174.967 15.5437 169.297 21.2L169.296 21.2012ZM165.91 20.1475C163.462 19.5769 161.225 18.3289 159.454 16.5462C157.671 14.7739 156.424 12.5363 155.852 10.0887C153.791 12.9637 152.967 17.1525 153.39 22.6062C158.844 23.03 163.034 22.2075 165.911 20.1462L165.91 20.1475ZM170.145 5.85495C168.272 5.50382 166.359 5.41297 164.461 5.58495C162.127 5.8112 160.139 6.45995 158.517 7.52745C158.647 10.1258 159.737 12.5834 161.577 14.423C163.416 16.2626 165.874 17.353 168.472 17.4825C169.536 15.8575 170.189 13.8725 170.415 11.5387C170.587 9.64072 170.496 7.72809 170.145 5.85495Z" fill="currentColor"/>
<path d="M213 9.49996C213 9.79663 212.912 10.0866 212.747 10.3333C212.582 10.58 212.348 10.7722 212.074 10.8858C211.8 10.9993 211.498 11.029 211.207 10.9711C210.916 10.9133 210.649 10.7704 210.439 10.5606C210.229 10.3508 210.087 10.0836 210.029 9.7926C209.971 9.50163 210.001 9.20003 210.114 8.92594C210.228 8.65185 210.42 8.41758 210.667 8.25276C210.913 8.08793 211.203 7.99996 211.5 7.99996C211.898 7.99996 212.279 8.158 212.561 8.4393C212.842 8.72061 213 9.10214 213 9.49996ZM216.942 20.8462C213.56 24.2212 208.265 25.64 201.152 25.09C201.352 26.5766 201.631 28.142 201.99 29.7862C202.046 30.0453 201.998 30.3162 201.854 30.5394C201.711 30.7625 201.485 30.9197 201.226 30.9762C201.156 30.9921 201.083 31 201.011 31C200.783 30.9995 200.563 30.9214 200.385 30.7784C200.208 30.6354 200.085 30.4362 200.036 30.2137C199.627 28.3445 199.319 26.5679 199.112 24.8837C197.429 24.6762 195.654 24.3683 193.786 23.96C193.528 23.9021 193.304 23.7445 193.162 23.5216C193.02 23.2987 192.971 23.0286 193.028 22.7704C193.084 22.5122 193.241 22.2869 193.463 22.1437C193.685 22.0004 193.955 21.951 194.214 22.0062C195.856 22.3645 197.42 22.6437 198.906 22.8437C198.357 15.7325 199.781 10.4387 203.156 7.05746C208.625 1.57246 217.304 3.11246 218.987 3.47746C219.363 3.5594 219.708 3.74763 219.98 4.01975C220.252 4.29188 220.44 4.63644 220.522 5.01246C220.887 6.69621 222.429 15.375 216.942 20.8462ZM218.567 5.43621C216.544 5.01781 214.469 4.90071 212.411 5.08871C209.881 5.33871 207.736 6.06746 206.005 7.27121C206.074 10.0942 207.225 12.7825 209.222 14.7797C211.218 16.7769 213.906 17.9299 216.729 18C217.931 16.2687 218.665 14.125 218.911 11.5937C219.098 9.53545 218.983 7.46085 218.567 5.43621Z" fill="currentColor"/>
<path opacity="0.2" d="M265.238 19C262.563 22.5 257.465 24.9862 248.015 23.9837C247.014 14.5324 249.5 9.4362 253 6.76245C253 6.8412 253 6.91995 253 6.99995C253 10.1825 254.264 13.2348 256.515 15.4852C258.765 17.7357 261.817 19 265 19H265.238Z" fill="currentColor"/>
<path d="M261 9.49996C261 9.79663 260.912 10.0866 260.747 10.3333C260.582 10.58 260.348 10.7722 260.074 10.8858C259.8 10.9993 259.498 11.029 259.207 10.9711C258.916 10.9133 258.649 10.7704 258.439 10.5606C258.229 10.3508 258.087 10.0836 258.029 9.7926C257.971 9.50163 258.001 9.20003 258.114 8.92594C258.228 8.65185 258.42 8.41758 258.667 8.25276C258.913 8.08793 259.203 7.99996 259.5 7.99996C259.898 7.99996 260.279 8.158 260.561 8.4393C260.842 8.72061 261 9.10214 261 9.49996ZM264.942 20.8462C261.56 24.2212 256.265 25.64 249.152 25.09C249.352 26.5766 249.631 28.142 249.99 29.7862C250.046 30.0453 249.998 30.3162 249.854 30.5394C249.711 30.7625 249.485 30.9197 249.226 30.9762C249.156 30.9921 249.083 31 249.011 31C248.783 30.9995 248.563 30.9214 248.385 30.7784C248.208 30.6354 248.085 30.4362 248.036 30.2137C247.627 28.3445 247.319 26.5679 247.112 24.8837C245.429 24.6762 243.654 24.3683 241.786 23.96C241.528 23.9021 241.304 23.7445 241.162 23.5216C241.02 23.2987 240.971 23.0286 241.028 22.7704C241.084 22.5122 241.241 22.2869 241.463 22.1437C241.685 22.0004 241.955 21.951 242.214 22.0062C243.856 22.3645 245.42 22.6437 246.906 22.8437C246.357 15.7325 247.781 10.4387 251.156 7.05746C256.625 1.57246 265.304 3.11246 266.987 3.47746C267.363 3.5594 267.708 3.74763 267.98 4.01975C268.252 4.29188 268.44 4.63644 268.522 5.01246C268.887 6.69621 270.429 15.375 264.942 20.8462ZM263.067 19.86C260.317 19.4444 257.772 18.1585 255.805 16.1908C253.839 14.2231 252.555 11.6771 252.141 8.92621C249.445 11.97 248.375 16.7087 248.927 23.0687C255.289 23.625 260.027 22.555 263.071 19.86H263.067ZM266.567 5.43621C264.544 5.01781 262.469 4.90071 260.411 5.08871C257.881 5.33871 255.736 6.06746 254.005 7.27121C254.074 10.0942 255.225 12.7825 257.222 14.7797C259.218 16.7769 261.906 17.9299 264.729 18C265.931 16.2687 266.665 14.125 266.911 11.5937C267.098 9.53545 266.983 7.46085 266.567 5.43621Z" fill="currentColor"/>
</g>
<defs>
<clipPath id="clip0_17_5301">
<rect width="272" height="32" rx="5" fill="white"/>
</clipPath>
</defs>
</svg>
