<svg width="272" height="32" viewBox="0 0 272 32" fill="none" xmlns="http://www.w3.org/2000/svg">
<g clip-path="url(#clip0_17_5245)">
<path d="M26 5.99998C24.4781 5.99861 22.9726 6.31494 21.58 6.92873C19.6925 3.75748 16.59 2.17873 16.4475 2.10498C16.3086 2.03546 16.1554 1.99927 16 1.99927C15.8446 1.99927 15.6914 2.03546 15.5525 2.10498C15.41 2.17748 12.3025 3.75748 10.42 6.92873C9.02735 6.31494 7.52191 5.99861 6 5.99998C5.73478 5.99998 5.48043 6.10534 5.29289 6.29288C5.10536 6.48041 5 6.73477 5 6.99998V12C5.0033 14.7432 6.03022 17.3865 7.87979 19.4125C9.72935 21.4384 12.2684 22.7012 15 22.9537V27.3825L10.4475 25.105C10.33 25.0462 10.202 25.0112 10.0709 25.0019C9.93986 24.9925 9.80823 25.0091 9.68357 25.0507C9.55891 25.0922 9.44365 25.1579 9.34438 25.244C9.24511 25.3301 9.16377 25.4349 9.105 25.5525C9.04623 25.67 9.01119 25.798 9.00188 25.929C8.99256 26.0601 9.00915 26.1918 9.05071 26.3164C9.09226 26.4411 9.15797 26.5563 9.24406 26.6556C9.33016 26.7549 9.43497 26.8362 9.5525 26.895L15.5525 29.895C15.6914 29.9645 15.8446 30.0007 16 30.0007C16.1554 30.0007 16.3086 29.9645 16.4475 29.895L22.4475 26.895C22.6849 26.7763 22.8654 26.5682 22.9493 26.3164C23.0332 26.0646 23.0137 25.7899 22.895 25.5525C22.7763 25.3151 22.5682 25.1346 22.3164 25.0507C22.0647 24.9668 21.7899 24.9863 21.5525 25.105L17 27.3825V22.9537C19.7316 22.7012 22.2707 21.4384 24.1202 19.4125C25.9698 17.3865 26.9967 14.7432 27 12V6.99998C27 6.73477 26.8946 6.48041 26.7071 6.29288C26.5196 6.10534 26.2652 5.99998 26 5.99998ZM15 20.945C12.8009 20.6964 10.7701 19.6472 9.29473 17.9976C7.81937 16.348 7.00257 14.2131 7 12V8.05498C9.19914 8.30362 11.2299 9.35273 12.7053 11.0024C14.1806 12.652 14.9974 14.7868 15 17V20.945ZM16 12.42C15.1588 10.5923 13.8345 9.02903 12.17 7.89873C13.3663 5.92498 15.17 4.66123 16 4.14873C16.8313 4.65873 18.635 5.92248 19.83 7.89873C18.1658 9.02932 16.8416 10.5925 16 12.42ZM25 12C24.9974 14.2131 24.1806 16.348 22.7053 17.9976C21.2299 19.6472 19.1991 20.6964 17 20.945V17C17.0026 14.7868 17.8194 12.652 19.2947 11.0024C20.7701 9.35273 22.8009 8.30362 25 8.05498V12Z" fill="currentColor"/>
<path d="M74 6.49999C72.396 6.49901 70.8134 6.86772 69.375 7.57749C67.6 4.26999 64.375 2.62374 64.2262 2.55249C64.1568 2.51773 64.0802 2.49963 64.0025 2.49963C63.9248 2.49963 63.8482 2.51773 63.7788 2.55249C63.6363 2.62374 60.4037 4.26999 58.63 7.57749C57.1901 6.86697 55.6057 6.49825 54 6.49999C53.8674 6.49999 53.7402 6.55267 53.6464 6.64644C53.5527 6.74021 53.5 6.86738 53.5 6.99999V12C53.5032 14.6972 54.543 17.29 56.4043 19.242C58.2656 21.1941 60.806 22.356 63.5 22.4875V28.1912L58.2238 25.5525C58.165 25.5231 58.101 25.5056 58.0355 25.5009C57.9699 25.4963 57.9041 25.5046 57.8418 25.5253C57.7795 25.5461 57.7218 25.579 57.6722 25.622C57.6226 25.6651 57.5819 25.7175 57.5525 25.7762C57.5231 25.835 57.5056 25.899 57.5009 25.9645C57.4963 26.0301 57.5046 26.0959 57.5254 26.1582C57.5461 26.2205 57.579 26.2782 57.622 26.3278C57.6651 26.3774 57.7175 26.4181 57.7762 26.4475L63.7762 29.4475C63.8457 29.4823 63.9223 29.5004 64 29.5004C64.0777 29.5004 64.1543 29.4823 64.2237 29.4475L70.2237 26.4475C70.3424 26.3882 70.4327 26.2841 70.4746 26.1582C70.5166 26.0323 70.5068 25.8949 70.4475 25.7762C70.3882 25.6576 70.2841 25.5673 70.1582 25.5253C70.0323 25.4834 69.8949 25.4932 69.7763 25.5525L64.5 28.1912V22.4875C67.194 22.356 69.7344 21.1941 71.5957 19.242C73.457 17.29 74.4968 14.6972 74.5 12V6.99999C74.5 6.86738 74.4473 6.74021 74.3536 6.64644C74.2598 6.55267 74.1326 6.49999 74 6.49999ZM64 3.56999C64.7388 3.99124 67.125 5.50124 68.5 8.06124C66.3657 9.37923 64.7705 11.4141 64 13.8012C63.2295 11.4141 61.6343 9.37923 59.5 8.06124C60.875 5.50874 63.2625 3.99249 64 3.56999ZM54.5 12V7.51249C56.9286 7.64383 59.2146 8.70028 60.8885 10.4648C62.5623 12.2293 63.4968 14.5679 63.5 17V21.4875C61.0714 21.3562 58.7854 20.2997 57.1115 18.5352C55.4377 16.7707 54.5032 14.4321 54.5 12ZM73.5 12C73.4968 14.4321 72.5623 16.7707 70.8885 18.5352C69.2146 20.2997 66.9286 21.3562 64.5 21.4875V17C64.5032 14.5679 65.4377 12.2293 67.1115 10.4648C68.7854 8.70028 71.0714 7.64383 73.5 7.51249V12Z" fill="currentColor"/>
<path d="M122 6.24998C120.438 6.24898 118.895 6.59032 117.479 7.24998C115.645 4.01248 112.479 2.40123 112.335 2.32873C112.231 2.27679 112.116 2.24976 112 2.24976C111.884 2.24976 111.769 2.27679 111.665 2.32873C111.523 2.40123 108.355 4.01248 106.521 7.24998C105.105 6.59032 103.562 6.24898 102 6.24998C101.801 6.24998 101.61 6.329 101.47 6.46965C101.329 6.6103 101.25 6.80107 101.25 6.99998V12C101.254 14.7199 102.287 17.3376 104.142 19.3267C105.997 21.3157 108.537 22.5285 111.25 22.7212V27.7862L106.335 25.3287C106.157 25.2399 105.951 25.2254 105.762 25.2885C105.574 25.3515 105.418 25.487 105.329 25.665C105.24 25.843 105.225 26.049 105.288 26.2377C105.352 26.4265 105.487 26.5824 105.665 26.6712L111.665 29.6712C111.769 29.7232 111.884 29.7502 112 29.7502C112.116 29.7502 112.231 29.7232 112.335 29.6712L118.335 26.6712C118.423 26.6272 118.502 26.5663 118.566 26.4919C118.631 26.4176 118.68 26.3312 118.712 26.2377C118.743 26.1443 118.755 26.0456 118.748 25.9474C118.741 25.8491 118.715 25.7531 118.671 25.665C118.627 25.5768 118.566 25.4982 118.492 25.4336C118.418 25.369 118.331 25.3197 118.238 25.2885C118.144 25.2572 118.046 25.2447 117.947 25.2516C117.849 25.2585 117.753 25.2847 117.665 25.3287L112.75 27.7862V22.7212C115.463 22.5285 118.003 21.3157 119.858 19.3267C121.713 17.3376 122.746 14.7199 122.75 12V6.99998C122.75 6.80107 122.671 6.6103 122.53 6.46965C122.39 6.329 122.199 6.24998 122 6.24998ZM112 3.85998C112.807 4.33998 114.884 5.73498 116.166 7.97748C114.283 9.199 112.827 10.9762 112 13.0625C111.173 10.9762 109.717 9.199 107.834 7.97748C109.116 5.72873 111.193 4.33873 112 3.85998ZM102.75 12V7.77998C105.065 7.97146 107.223 9.02544 108.797 10.7331C110.372 12.4407 111.247 14.6774 111.25 17V21.22C108.935 21.0288 106.777 19.9749 105.202 18.2672C103.628 16.5595 102.753 14.3226 102.75 12ZM121.25 12C121.247 14.3226 120.372 16.5595 118.798 18.2672C117.223 19.9749 115.065 21.0288 112.75 21.22V17C112.753 14.6774 113.628 12.4407 115.203 10.7331C116.777 9.02544 118.935 7.97146 121.25 7.77998V12Z" fill="currentColor"/>
<path d="M170 5.49995C168.555 5.49851 167.123 5.77081 165.779 6.30245C163.804 3.25245 160.814 1.72995 160.671 1.6587C160.463 1.55442 160.233 1.50012 160 1.50012C159.767 1.50012 159.537 1.55442 159.329 1.6587C159.186 1.72995 156.196 3.25245 154.221 6.30245C152.877 5.77081 151.445 5.49851 150 5.49995C149.602 5.49995 149.221 5.65798 148.939 5.93929C148.658 6.22059 148.5 6.60212 148.5 6.99995V11.9999C148.504 14.7892 149.519 17.4824 151.358 19.5795C153.197 21.6765 155.735 23.0349 158.5 23.4024V26.5724L154.671 24.6587C154.316 24.4875 153.908 24.4628 153.535 24.5899C153.162 24.7171 152.854 24.986 152.678 25.3383C152.502 25.6907 152.471 26.0984 152.593 26.4732C152.715 26.8479 152.979 27.1597 153.329 27.3412L159.329 30.3412C159.537 30.4455 159.767 30.4998 160 30.4998C160.233 30.4998 160.463 30.4455 160.671 30.3412L166.671 27.3412C166.85 27.2548 167.01 27.1337 167.142 26.9849C167.274 26.836 167.375 26.6625 167.439 26.4743C167.503 26.2862 167.529 26.0871 167.516 25.8888C167.503 25.6904 167.45 25.4967 167.361 25.3189C167.272 25.1411 167.148 24.9828 166.998 24.8531C166.847 24.7235 166.672 24.6251 166.483 24.5636C166.294 24.5022 166.094 24.479 165.896 24.4953C165.698 24.5116 165.505 24.5672 165.329 24.6587L161.5 26.5724V23.4024C164.265 23.0349 166.803 21.6765 168.642 19.5795C170.481 17.4824 171.496 14.7892 171.5 11.9999V6.99995C171.5 6.60212 171.342 6.22059 171.061 5.93929C170.779 5.65798 170.398 5.49995 170 5.49995ZM160 4.74245C160.796 5.26245 162.141 6.2812 163.151 7.76745C161.866 8.723 160.793 9.93478 160 11.3262C159.207 9.93505 158.134 8.72334 156.849 7.76745C157.859 6.2812 159.204 5.26245 160 4.74245ZM151.5 11.9999V8.63245C153.462 8.98691 155.237 10.0186 156.516 11.5477C157.795 13.0768 158.498 15.0063 158.5 16.9999V20.3674C156.538 20.0128 154.763 18.981 153.484 17.4519C152.205 15.9229 151.503 13.9935 151.5 11.9999ZM168.5 11.9999C168.497 13.9935 167.795 15.9229 166.516 17.4519C165.237 18.981 163.462 20.0128 161.5 20.3674V16.9999C161.502 15.0063 162.205 13.0768 163.484 11.5477C164.763 10.0186 166.538 8.98691 168.5 8.63245V11.9999Z" fill="currentColor"/>
<path d="M218 5.99998C216.478 5.99861 214.973 6.31494 213.58 6.92873C211.693 3.75748 208.59 2.17873 208.448 2.10498C208.309 2.03546 208.155 1.99927 208 1.99927C207.845 1.99927 207.691 2.03546 207.552 2.10498C207.41 2.17748 204.303 3.75748 202.42 6.92873C201.027 6.31494 199.522 5.99861 198 5.99998C197.735 5.99998 197.48 6.10534 197.293 6.29288C197.105 6.48041 197 6.73477 197 6.99998V12C197.003 14.7432 198.03 17.3865 199.88 19.4125C201.729 21.4384 204.268 22.7012 207 22.9537V27.3825L202.448 25.105C202.33 25.0462 202.202 25.0112 202.071 25.0019C201.94 24.9925 201.808 25.0091 201.684 25.0507C201.559 25.0922 201.444 25.1579 201.344 25.244C201.245 25.3301 201.164 25.4349 201.105 25.5525C201.046 25.67 201.011 25.798 201.002 25.929C200.993 26.0601 201.009 26.1918 201.051 26.3164C201.092 26.4411 201.158 26.5563 201.244 26.6556C201.33 26.7549 201.435 26.8362 201.552 26.895L207.552 29.895C207.691 29.9645 207.845 30.0007 208 30.0007C208.155 30.0007 208.309 29.9645 208.448 29.895L214.448 26.895C214.685 26.7763 214.865 26.5682 214.949 26.3164C215.033 26.0646 215.014 25.7899 214.895 25.5525C214.776 25.3151 214.568 25.1346 214.316 25.0507C214.065 24.9668 213.79 24.9863 213.552 25.105L209 27.3825V22.9537C211.732 22.7012 214.271 21.4384 216.12 19.4125C217.97 17.3865 218.997 14.7432 219 12V6.99998C219 6.73477 218.895 6.48041 218.707 6.29288C218.52 6.10534 218.265 5.99998 218 5.99998ZM199 12V8.05498C201.199 8.30362 203.23 9.35273 204.705 11.0024C206.181 12.652 206.997 14.7868 207 17V20.945C204.801 20.6964 202.77 19.6472 201.295 17.9976C199.819 16.348 199.003 14.2131 199 12ZM217 12C216.997 14.2131 216.181 16.348 214.705 17.9976C213.23 19.6472 211.199 20.6964 209 20.945V17C209.003 14.7868 209.819 12.652 211.295 11.0024C212.77 9.35273 214.801 8.30362 217 8.05498V12Z" fill="currentColor"/>
<path opacity="0.2" d="M261.154 8.25C259.592 9.11544 258.29 10.3834 257.383 11.9221C256.477 13.4609 255.999 15.2142 256 17C256 15.2142 255.523 13.4609 254.616 11.9221C253.71 10.3834 252.408 9.11544 250.846 8.25C252.5 4.75 256 3 256 3C256 3 259.5 4.75 261.154 8.25Z" fill="currentColor"/>
<path d="M266 5.99998C264.478 5.99861 262.973 6.31494 261.58 6.92873C259.693 3.75748 256.59 2.17873 256.448 2.10498C256.309 2.03546 256.155 1.99927 256 1.99927C255.845 1.99927 255.691 2.03546 255.552 2.10498C255.41 2.17748 252.303 3.75748 250.42 6.92873C249.027 6.31494 247.522 5.99861 246 5.99998C245.735 5.99998 245.48 6.10534 245.293 6.29288C245.105 6.48041 245 6.73477 245 6.99998V12C245.003 14.7432 246.03 17.3865 247.88 19.4125C249.729 21.4384 252.268 22.7012 255 22.9537V27.3825L250.448 25.105C250.33 25.0462 250.202 25.0112 250.071 25.0019C249.94 24.9925 249.808 25.0091 249.684 25.0507C249.559 25.0922 249.444 25.1579 249.344 25.244C249.245 25.3301 249.164 25.4349 249.105 25.5525C249.046 25.67 249.011 25.798 249.002 25.929C248.993 26.0601 249.009 26.1918 249.051 26.3164C249.092 26.4411 249.158 26.5563 249.244 26.6556C249.33 26.7549 249.435 26.8362 249.552 26.895L255.552 29.895C255.691 29.9645 255.845 30.0007 256 30.0007C256.155 30.0007 256.309 29.9645 256.448 29.895L262.448 26.895C262.685 26.7763 262.865 26.5682 262.949 26.3164C263.033 26.0646 263.014 25.7899 262.895 25.5525C262.776 25.3151 262.568 25.1346 262.316 25.0507C262.065 24.9668 261.79 24.9863 261.552 25.105L257 27.3825V22.9537C259.732 22.7012 262.271 21.4384 264.12 19.4125C265.97 17.3865 266.997 14.7432 267 12V6.99998C267 6.73477 266.895 6.48041 266.707 6.29288C266.52 6.10534 266.265 5.99998 266 5.99998ZM256 4.15123C256.831 4.66123 258.635 5.92498 259.83 7.90123C258.166 9.03113 256.842 10.5934 256 12.42C255.159 10.5923 253.834 9.02903 252.17 7.89873C253.366 5.92498 255.169 4.66123 256 4.15123ZM247 12V8.05498C249.199 8.30362 251.23 9.35273 252.705 11.0024C254.181 12.652 254.997 14.7868 255 17V20.945C252.801 20.6964 250.77 19.6472 249.295 17.9976C247.819 16.348 247.003 14.2131 247 12ZM265 12C264.997 14.2131 264.181 16.348 262.705 17.9976C261.23 19.6472 259.199 20.6964 257 20.945V17C257.003 14.7868 257.819 12.652 259.295 11.0024C260.77 9.35273 262.801 8.30362 265 8.05498V12Z" fill="currentColor"/>
</g>
<defs>
<clipPath id="clip0_17_5245">
<rect width="272" height="32" rx="5" fill="white"/>
</clipPath>
</defs>
</svg>
