<svg width="272" height="32" viewBox="0 0 272 32" fill="none" xmlns="http://www.w3.org/2000/svg">
<g clip-path="url(#clip0_17_5189)">
<path d="M20.5001 10C21.1923 10 21.869 9.79473 22.4446 9.41015C23.0202 9.02556 23.4688 8.47894 23.7337 7.83939C23.9986 7.19985 24.0679 6.49612 23.9328 5.81719C23.7978 5.13825 23.4644 4.51461 22.975 4.02513C22.4855 3.53564 21.8618 3.2023 21.1829 3.06725C20.504 2.9322 19.8002 3.00152 19.1607 3.26642C18.5212 3.53133 17.9745 3.97993 17.5899 4.55551C17.2054 5.13108 17.0001 5.80777 17.0001 6.5C17.0001 7.42826 17.3688 8.3185 18.0252 8.97487C18.6816 9.63125 19.5718 10 20.5001 10ZM20.5001 5C20.7968 5 21.0868 5.08798 21.3334 5.2528C21.5801 5.41762 21.7724 5.65189 21.8859 5.92598C21.9994 6.20007 22.0291 6.50167 21.9713 6.79264C21.9134 7.08361 21.7705 7.35088 21.5607 7.56066C21.351 7.77044 21.0837 7.9133 20.7927 7.97118C20.5017 8.02906 20.2002 7.99935 19.9261 7.88582C19.652 7.77229 19.4177 7.58003 19.2529 7.33336C19.0881 7.08668 19.0001 6.79667 19.0001 6.5C19.0001 6.10218 19.1581 5.72065 19.4394 5.43934C19.7207 5.15804 20.1023 5 20.5001 5ZM31.8601 24.49L25.0401 12.98C24.8642 12.6802 24.6126 12.4318 24.3105 12.2598C24.0084 12.0878 23.6665 11.9982 23.3188 12C22.9714 11.9982 22.6296 12.0878 22.3277 12.2598C22.0258 12.4318 21.7744 12.6802 21.5988 12.98L18.3288 18.5L12.7238 8.9875C12.5472 8.68733 12.2953 8.43848 11.9929 8.26559C11.6906 8.09269 11.3484 8.00174 11.0001 8.00174C10.6518 8.00174 10.3096 8.09269 10.0072 8.26559C9.7049 8.43848 9.45296 8.68733 9.27634 8.9875L0.138837 24.4925C0.0493954 24.6444 0.00167544 24.8172 0.000510147 24.9934C-0.000655151 25.1696 0.0447756 25.343 0.132201 25.4961C0.219626 25.6491 0.34594 25.7763 0.498349 25.8648C0.650758 25.9533 0.823848 25.9999 1.00009 26H31.0001C31.1766 26 31.3499 25.9532 31.5025 25.8645C31.6551 25.7758 31.7815 25.6483 31.8689 25.4949C31.9562 25.3415 32.0014 25.1678 31.9999 24.9913C31.9983 24.8148 31.9501 24.6418 31.8601 24.49ZM11.0001 10L13.9463 15H8.05384L11.0001 10ZM2.75009 24L6.87509 17H15.1251L17.4676 20.975L19.2501 24H2.75009ZM21.5713 24L19.4888 20.465L23.3188 14L29.2501 24H21.5713Z" fill="currentColor"/>
<path d="M68.5002 9.5C69.0935 9.5 69.6736 9.32405 70.1669 8.99441C70.6602 8.66477 71.0448 8.19623 71.2718 7.64805C71.4989 7.09987 71.5583 6.49667 71.4425 5.91473C71.3268 5.33279 71.0411 4.79824 70.6215 4.37868C70.202 3.95912 69.6674 3.6734 69.0855 3.55765C68.5035 3.44189 67.9003 3.5013 67.3521 3.72836C66.804 3.95543 66.3354 4.33994 66.0058 4.83329C65.6761 5.32664 65.5002 5.90666 65.5002 6.5C65.5002 7.29565 65.8163 8.05871 66.3789 8.62132C66.9415 9.18393 67.7045 9.5 68.5002 9.5ZM68.5002 4.5C68.8958 4.5 69.2824 4.6173 69.6113 4.83706C69.9402 5.05683 70.1966 5.36918 70.348 5.73463C70.4993 6.10009 70.5389 6.50222 70.4618 6.89018C70.3846 7.27814 70.1941 7.63451 69.9144 7.91422C69.6347 8.19392 69.2783 8.3844 68.8904 8.46157C68.5024 8.53874 68.1003 8.49914 67.7348 8.34776C67.3694 8.19639 67.057 7.94004 66.8373 7.61114C66.6175 7.28224 66.5002 6.89556 66.5002 6.5C66.5002 5.96957 66.7109 5.46086 67.086 5.08579C67.4611 4.71072 67.9698 4.5 68.5002 4.5ZM79.4302 24.75L72.6102 13.24C72.4788 13.0142 72.2903 12.827 72.0637 12.6971C71.837 12.5672 71.5802 12.4992 71.3189 12.5C71.0584 12.4987 70.802 12.5659 70.5756 12.6949C70.3492 12.8239 70.1607 13.0102 70.0289 13.235L66.3277 19.485L60.2927 9.23875C60.1602 9.01377 59.9713 8.82727 59.7446 8.69769C59.5179 8.56812 59.2613 8.49996 59.0002 8.49996C58.7391 8.49996 58.4825 8.56812 58.2558 8.69769C58.0291 8.82727 57.8402 9.01377 57.7077 9.23875L48.5689 24.75C48.5251 24.8259 48.502 24.9119 48.502 24.9996C48.5019 25.0872 48.5248 25.1733 48.5685 25.2492C48.6122 25.3252 48.675 25.3883 48.7508 25.4324C48.8266 25.4764 48.9126 25.4997 49.0002 25.5H79.0002C79.0877 25.4995 79.1735 25.476 79.2491 25.4319C79.3247 25.3878 79.3874 25.3246 79.431 25.2487C79.4745 25.1728 79.4973 25.0868 79.4972 24.9993C79.4971 24.9117 79.474 24.8258 79.4302 24.75ZM58.5689 9.75C58.6131 9.67481 58.6761 9.61247 58.7517 9.56914C58.8274 9.52582 58.913 9.50303 59.0002 9.50303C59.0874 9.50303 59.173 9.52582 59.2487 9.56914C59.3243 9.61247 59.3873 9.67481 59.4314 9.75L62.8214 15.5H55.1789L58.5689 9.75ZM49.8752 24.5L54.5889 16.5H63.4114L68.1252 24.5H49.8752ZM69.2864 24.5L66.9114 20.4638L70.8889 13.75C70.9332 13.6754 70.9961 13.6136 71.0715 13.5707C71.1469 13.5277 71.2322 13.5051 71.3189 13.5051C71.4057 13.5051 71.491 13.5277 71.5664 13.5707C71.6417 13.6136 71.7047 13.6754 71.7489 13.75L78.1239 24.5H69.2864Z" fill="currentColor"/>
<path d="M116.5 9.75C117.143 9.75 117.771 9.55939 118.306 9.20228C118.84 8.84516 119.257 8.33758 119.503 7.74372C119.749 7.14986 119.813 6.4964 119.688 5.86596C119.562 5.23552 119.253 4.65642 118.798 4.2019C118.344 3.74738 117.765 3.43785 117.134 3.31245C116.504 3.18705 115.85 3.25141 115.256 3.49739C114.663 3.74338 114.155 4.15994 113.798 4.6944C113.441 5.22886 113.25 5.85721 113.25 6.5C113.25 7.36196 113.593 8.1886 114.202 8.7981C114.812 9.40759 115.638 9.75 116.5 9.75ZM116.5 4.75C116.846 4.75 117.185 4.85264 117.472 5.04493C117.76 5.23722 117.984 5.51053 118.117 5.83031C118.249 6.15008 118.284 6.50194 118.217 6.84141C118.149 7.18088 117.982 7.4927 117.738 7.73744C117.493 7.98218 117.181 8.14885 116.842 8.21638C116.502 8.2839 116.15 8.24924 115.83 8.11679C115.511 7.98434 115.237 7.76004 115.045 7.47225C114.853 7.18446 114.75 6.84612 114.75 6.5C114.75 6.03587 114.935 5.59075 115.263 5.26256C115.591 4.93438 116.036 4.75 116.5 4.75ZM127.645 24.6175L120.825 13.1075C120.672 12.8462 120.452 12.6295 120.189 12.4791C119.926 12.3287 119.628 12.2497 119.325 12.25C119.022 12.2494 118.724 12.3283 118.461 12.4788C118.198 12.6292 117.978 12.846 117.825 13.1075L114.34 18.9888L108.52 9.11375C108.366 8.85117 108.145 8.6335 107.881 8.48226C107.616 8.33103 107.317 8.25148 107.012 8.25148C106.707 8.25148 106.408 8.33103 106.143 8.48226C105.879 8.6335 105.658 8.85117 105.504 9.11375L96.3539 24.625C96.2882 24.7388 96.2536 24.8678 96.2534 24.9992C96.2533 25.1306 96.2876 25.2597 96.3531 25.3736C96.4185 25.4875 96.5127 25.5822 96.6263 25.6483C96.7399 25.7144 96.8688 25.7494 97.0002 25.75H127C127.133 25.75 127.263 25.7149 127.377 25.6484C127.491 25.5818 127.586 25.4862 127.652 25.3712C127.717 25.2561 127.751 25.1258 127.75 24.9935C127.749 24.8611 127.713 24.7314 127.645 24.6175ZM106.784 9.875C106.806 9.83712 106.837 9.80567 106.875 9.78381C106.913 9.76195 106.956 9.75044 107 9.75044C107.044 9.75044 107.087 9.76195 107.125 9.78381C107.163 9.80567 107.194 9.83712 107.216 9.875L110.384 15.25H103.616L106.784 9.875ZM98.3127 24.25L102.733 16.75H111.269L113.681 20.8463L115.681 24.2463L98.3127 24.25ZM117.429 24.25L115.198 20.4638L119.104 13.875C119.126 13.8372 119.157 13.8058 119.195 13.7839C119.232 13.7619 119.275 13.7503 119.319 13.75C119.363 13.7493 119.406 13.7606 119.444 13.7827C119.482 13.8047 119.513 13.8366 119.534 13.875L125.684 24.25H117.429Z" fill="currentColor"/>
<path d="M164.5 10.5C165.291 10.5 166.065 10.2654 166.722 9.82588C167.38 9.38635 167.893 8.76164 168.196 8.03074C168.498 7.29983 168.578 6.49556 168.423 5.71964C168.269 4.94372 167.888 4.23098 167.328 3.67157C166.769 3.11216 166.056 2.7312 165.28 2.57686C164.504 2.42252 163.7 2.50173 162.969 2.80448C162.238 3.10723 161.614 3.61992 161.174 4.27772C160.735 4.93552 160.5 5.70888 160.5 6.5C160.5 7.56087 160.921 8.57828 161.672 9.32843C162.422 10.0786 163.439 10.5 164.5 10.5ZM164.5 5.5C164.698 5.5 164.891 5.55865 165.056 5.66853C165.22 5.77841 165.348 5.93459 165.424 6.11732C165.5 6.30004 165.519 6.50111 165.481 6.69509C165.442 6.88907 165.347 7.06726 165.207 7.20711C165.067 7.34696 164.889 7.4422 164.695 7.48079C164.501 7.51937 164.3 7.49957 164.117 7.42388C163.935 7.34819 163.778 7.22002 163.669 7.05557C163.559 6.89112 163.5 6.69778 163.5 6.5C163.5 6.23479 163.605 5.98043 163.793 5.7929C163.98 5.60536 164.235 5.5 164.5 5.5ZM175.79 24.235L168.97 12.725C168.75 12.3504 168.436 12.04 168.058 11.825C167.681 11.6101 167.253 11.498 166.819 11.5C166.384 11.498 165.957 11.61 165.58 11.825C165.203 12.04 164.888 12.3504 164.669 12.725L162.331 16.6688L157.654 8.73125C157.433 8.35647 157.118 8.04581 156.74 7.82999C156.363 7.61417 155.935 7.50065 155.5 7.50065C155.065 7.50065 154.637 7.61417 154.26 7.82999C153.882 8.04581 153.567 8.35647 153.346 8.73125L144.208 24.2388C144.073 24.4666 144.002 24.7258 144 24.9902C143.998 25.2546 144.067 25.5148 144.198 25.7444C144.329 25.9739 144.518 26.1647 144.747 26.2974C144.976 26.4301 145.236 26.5 145.5 26.5H174.5C174.765 26.5 175.025 26.4298 175.254 26.2968C175.483 26.1637 175.672 25.9724 175.803 25.7423C175.934 25.5123 176.002 25.2516 176 24.9869C175.997 24.7222 175.925 24.4627 175.79 24.235ZM155.5 10.9838L157.571 14.5H153.429L155.5 10.9838ZM148.125 23.5L151.66 17.5H159.34L161.038 20.3825V20.3913L162.875 23.5H148.125ZM166.358 23.5L164.07 19.625L166.82 14.9875L171.868 23.5H166.358Z" fill="currentColor"/>
<path d="M209 6.5C209 5.80777 209.205 5.13108 209.59 4.55551C209.975 3.97993 210.521 3.53133 211.161 3.26642C211.8 3.00152 212.504 2.9322 213.183 3.06725C213.862 3.2023 214.485 3.53564 214.975 4.02513C215.464 4.51461 215.798 5.13825 215.933 5.81719C216.068 6.49612 215.999 7.19985 215.734 7.83939C215.469 8.47894 215.02 9.02556 214.445 9.41015C213.869 9.79473 213.192 10 212.5 10C211.572 10 210.682 9.63125 210.025 8.97487C209.369 8.3185 209 7.42826 209 6.5ZM223.875 25.5C223.787 25.6524 223.66 25.7789 223.508 25.8667C223.355 25.9545 223.182 26.0005 223.006 26H193C192.824 25.9999 192.651 25.9533 192.498 25.8648C192.346 25.7763 192.22 25.6491 192.132 25.4961C192.045 25.343 191.999 25.1696 192.001 24.9934C192.002 24.8172 192.049 24.6444 192.139 24.4925L201.276 8.985C201.453 8.68483 201.705 8.43598 202.007 8.26309C202.31 8.09019 202.652 7.99924 203 7.99924C203.348 7.99924 203.691 8.09019 203.993 8.26309C204.295 8.43598 204.547 8.68483 204.724 8.985L210.329 18.5L213.599 12.9825C213.774 12.6822 214.025 12.4333 214.327 12.2609C214.629 12.0884 214.971 11.9984 215.319 12C215.666 11.9982 216.008 12.0878 216.311 12.2598C216.613 12.4318 216.864 12.6802 217.04 12.98L223.86 24.49C223.952 24.6419 224.002 24.8155 224.004 24.993C224.007 25.1705 223.962 25.3455 223.875 25.5ZM200.054 15H205.946L203 10L200.054 15Z" fill="currentColor"/>
<path opacity="0.2" d="M251.863 9.4925L255.706 16H246.294L250.138 9.4925C250.226 9.34213 250.352 9.21743 250.503 9.13079C250.655 9.04414 250.826 8.99856 251 8.99856C251.175 8.99856 251.346 9.04414 251.497 9.13079C251.648 9.21743 251.774 9.34213 251.863 9.4925ZM260.5 9C260.995 9 261.478 8.85338 261.889 8.57868C262.3 8.30397 262.621 7.91353 262.81 7.45671C262.999 6.99989 263.049 6.49723 262.952 6.01228C262.856 5.52732 262.618 5.08187 262.268 4.73223C261.918 4.3826 261.473 4.1445 260.988 4.04804C260.503 3.95157 260 4.00108 259.543 4.1903C259.087 4.37952 258.696 4.69995 258.422 5.11108C258.147 5.5222 258 6.00555 258 6.5C258 7.16304 258.264 7.79893 258.732 8.26777C259.201 8.73661 259.837 9 260.5 9ZM264.18 13.49C264.092 13.3405 263.966 13.2166 263.815 13.1306C263.664 13.0445 263.493 12.9992 263.32 12.9992C263.146 12.9992 262.975 13.0445 262.824 13.1306C262.673 13.2166 262.547 13.3405 262.459 13.49L258.326 20.4638L261 25H271L264.18 13.49Z" fill="currentColor"/>
<path d="M260.5 10C261.192 10 261.869 9.79473 262.445 9.41015C263.02 9.02556 263.469 8.47894 263.734 7.83939C263.999 7.19985 264.068 6.49612 263.933 5.81719C263.798 5.13825 263.464 4.51461 262.975 4.02513C262.485 3.53564 261.862 3.2023 261.183 3.06725C260.504 2.9322 259.8 3.00152 259.161 3.26642C258.521 3.53133 257.975 3.97993 257.59 4.55551C257.205 5.13108 257 5.80777 257 6.5C257 7.42826 257.369 8.3185 258.025 8.97487C258.682 9.63125 259.572 10 260.5 10ZM260.5 5C260.797 5 261.087 5.08798 261.333 5.2528C261.58 5.41762 261.772 5.65189 261.886 5.92598C261.999 6.20007 262.029 6.50167 261.971 6.79264C261.913 7.08361 261.771 7.35088 261.561 7.56066C261.351 7.77044 261.084 7.9133 260.793 7.97118C260.502 8.02906 260.2 7.99935 259.926 7.88582C259.652 7.77229 259.418 7.58003 259.253 7.33336C259.088 7.08668 259 6.79667 259 6.5C259 6.10218 259.158 5.72065 259.439 5.43934C259.721 5.15804 260.102 5 260.5 5ZM271.86 24.49L265.04 12.98C264.864 12.6802 264.613 12.4318 264.311 12.2598C264.008 12.0878 263.666 11.9982 263.319 12C262.971 11.9982 262.63 12.0878 262.328 12.2598C262.026 12.4318 261.774 12.6802 261.599 12.98L258.329 18.5L252.724 8.9875C252.547 8.68733 252.295 8.43848 251.993 8.26559C251.691 8.09269 251.348 8.00174 251 8.00174C250.652 8.00174 250.31 8.09269 250.007 8.26559C249.705 8.43848 249.453 8.68733 249.276 8.9875L240.139 24.4925C240.049 24.6444 240.002 24.8172 240.001 24.9934C239.999 25.1696 240.045 25.343 240.132 25.4961C240.22 25.6491 240.346 25.7763 240.498 25.8648C240.651 25.9533 240.824 25.9999 241 26H271C271.177 26 271.35 25.9532 271.503 25.8645C271.655 25.7758 271.782 25.6483 271.869 25.4949C271.956 25.3415 272.001 25.1678 272 24.9913C271.998 24.8148 271.95 24.6418 271.86 24.49ZM251 10L253.946 15H248.054L251 10ZM242.75 24L246.875 17H255.125L257.468 20.975L259.25 24H242.75ZM261.571 24L259.489 20.465L263.319 14L269.25 24H261.571Z" fill="currentColor"/>
</g>
<defs>
<clipPath id="clip0_17_5189">
<rect width="272" height="32" rx="5" fill="white"/>
</clipPath>
</defs>
</svg>
