<svg width="272" height="32" viewBox="0 0 272 32" fill="none" xmlns="http://www.w3.org/2000/svg">
<g clip-path="url(#clip0_17_5161)">
<path d="M30.6387 7.585C29.6825 5.93625 27.1587 5.565 23.3262 6.5025C21.5519 5.13056 19.4284 4.28372 17.1969 4.05821C14.9654 3.8327 12.7154 4.23754 10.7025 5.22675C8.68955 6.21597 6.99441 7.74989 5.80961 9.65427C4.62481 11.5587 3.99786 13.7571 3.99997 16C4.00013 16.5145 4.0327 17.0284 4.09747 17.5388C0.636224 21.125 0.686224 23.25 1.36247 24.415C1.99997 25.52 3.32997 26 5.07997 26C6.295 25.9749 7.50287 25.8071 8.67872 25.5C10.4532 26.8706 12.5765 27.7162 14.8074 27.9409C17.0383 28.1655 19.2876 27.7601 21.2997 26.7708C23.3118 25.7815 25.0063 24.2478 26.1906 22.3439C27.375 20.44 28.0018 18.2422 28 16C28.0002 15.4881 27.9681 14.9766 27.9037 14.4688C29.4662 12.8438 30.5062 11.3 30.86 9.97875C31.1037 9.06375 31.03 8.25875 30.6387 7.585ZM16 6C18.2649 6.00233 20.4622 6.77242 22.233 8.18454C24.0038 9.59666 25.2436 11.5674 25.75 13.775C23.6175 15.7825 20.7312 17.8413 17.9912 19.4163C14.5475 21.3925 11.56 22.625 9.17747 23.3C7.71007 21.9314 6.68869 20.1527 6.2463 18.1955C5.80392 16.2383 5.96103 14.1933 6.69717 12.3266C7.43332 10.4599 8.7144 8.85812 10.3736 7.72972C12.0329 6.60132 13.9934 5.99859 16 6ZM3.09247 23.4113C2.90997 23.0975 3.01122 22.5063 3.36997 21.7863C3.72473 21.1117 4.15635 20.4804 4.65622 19.905C5.15172 21.3406 5.91524 22.6691 6.90622 23.82C4.74997 24.1825 3.40497 23.9513 3.09247 23.4113ZM16 26C14.3139 26.0017 12.6551 25.5741 11.18 24.7575C13.8876 23.7999 16.5001 22.5922 18.9837 21.15C21.6812 19.6013 24.0687 17.9225 25.9925 16.265C25.9212 18.8689 24.8376 21.3425 22.9718 23.1603C21.1059 24.978 18.6049 25.9967 16 26ZM28.9275 9.46125C28.715 10.25 28.1537 11.1525 27.3487 12.1025C26.8545 10.6652 26.0909 9.33519 25.0987 8.18375C26.875 7.89 28.52 7.9125 28.9112 8.58875C29.0237 8.785 29.03 9.07875 28.9275 9.46125Z" fill="currentColor"/>
<path d="M78.2074 7.83497C77.3661 6.38747 74.8849 6.10997 71.2074 7.04747C69.404 5.5963 67.2047 4.7231 64.8971 4.54207C62.5895 4.36104 60.2809 4.88059 58.2733 6.0328C56.2657 7.185 54.6526 8.91622 53.6448 11.0001C52.637 13.0839 52.2816 15.4233 52.6249 17.7125C49.9524 20.4237 48.9449 22.7125 49.7899 24.165C50.3061 25.0537 51.4149 25.5037 53.0399 25.5037C54.0793 25.485 55.1137 25.3538 56.1249 25.1125C56.3424 25.0637 56.5649 25.01 56.7899 24.9525C58.4792 26.312 60.5186 27.1662 62.6726 27.4165C64.8266 27.6668 67.0074 27.3029 68.9635 26.367C70.9196 25.431 72.5712 23.9611 73.7278 22.1267C74.8843 20.2924 75.4986 18.1685 75.4999 16C75.5007 15.4256 75.459 14.8519 75.3749 14.2837C76.9711 12.6587 78.0386 11.1237 78.3749 9.84997C78.5861 9.06747 78.5286 8.38997 78.2074 7.83497ZM63.9999 5.49997C66.4272 5.50291 68.7788 6.34548 70.6558 7.88474C72.5327 9.424 73.8193 11.5652 74.2974 13.945C72.2761 15.9062 69.4474 18.005 66.2361 19.85C62.8224 21.8112 59.6349 23.1312 57.0349 23.85C55.4433 22.4361 54.3191 20.5719 53.8113 18.5045C53.3035 16.4371 53.4361 14.2642 54.1916 12.2739C54.947 10.2836 56.2896 8.56996 58.0413 7.36018C59.793 6.15041 61.871 5.50166 63.9999 5.49997ZM50.6561 23.6625C50.1249 22.75 50.9686 20.9625 52.8749 18.905C53.3917 20.8845 54.4273 22.6904 55.8749 24.1362C53.1074 24.75 51.1836 24.5725 50.6561 23.6625ZM63.9999 26.5C61.8535 26.5021 59.7585 25.843 57.9999 24.6125C60.6974 23.79 63.7286 22.4412 66.7311 20.7175C69.7624 18.975 72.4324 17.035 74.4599 15.1625C74.4824 15.4387 74.4974 15.7175 74.4974 16C74.4941 18.7833 73.3871 21.4517 71.4192 23.4201C69.4514 25.3884 66.7832 26.496 63.9999 26.5ZM77.4099 9.59122C77.1436 10.5912 76.3374 11.7975 75.1286 13.0987C74.6085 11.1146 73.5676 9.3055 72.1136 7.85872C74.8449 7.25622 76.8124 7.42622 77.3424 8.33747C77.5249 8.65372 77.5486 9.07497 77.4099 9.59122Z" fill="currentColor"/>
<path d="M126.424 7.71006C125.519 6.15006 123.049 5.83506 119.269 6.77381C117.537 5.40751 115.456 4.55661 113.263 4.31857C111.07 4.08054 108.855 4.46502 106.871 5.42795C104.886 6.39088 103.213 7.89332 102.044 9.76312C100.874 11.6329 100.254 13.7945 100.256 16.0001C100.256 16.5437 100.294 17.0866 100.369 17.6251C97.6362 20.4226 96.6737 22.7226 97.5825 24.2901C98.145 25.2601 99.3325 25.7513 101.065 25.7513C102.118 25.7331 103.166 25.6007 104.19 25.3563C104.371 25.3163 104.555 25.2713 104.741 25.2313C106.583 26.6828 108.817 27.5498 111.155 27.7207C113.494 27.8916 115.83 27.3586 117.863 26.1902C119.896 25.0219 121.532 23.2717 122.562 21.1651C123.592 19.0585 123.967 16.6919 123.64 14.3701C125.221 12.7451 126.279 11.2051 126.622 9.92006C126.845 9.06631 126.78 8.32381 126.424 7.71006ZM112 5.75006C114.347 5.75328 116.622 6.56072 118.446 8.03781C120.27 9.51491 121.533 11.5724 122.024 13.8676C120.024 15.7801 117.256 17.8263 114.111 19.6326C110.686 21.6026 107.599 22.8751 105.106 23.5751C103.579 22.1828 102.508 20.3614 102.034 18.3498C101.561 16.3381 101.706 14.2303 102.451 12.3028C103.197 10.3753 104.508 8.7181 106.212 7.54872C107.916 6.37934 109.933 5.75237 112 5.75006ZM98.875 23.5376C98.435 22.7788 99.1637 21.2176 100.75 19.4126C101.269 21.1185 102.17 22.6838 103.384 23.9901C100.927 24.4676 99.2987 24.2601 98.875 23.5376ZM112 26.2501C110.083 26.252 108.205 25.7125 106.581 24.6938C109.166 23.8551 112.026 22.5613 114.859 20.9338C117.712 19.2938 120.25 17.4751 122.24 15.6951C122.24 15.7963 122.247 15.8976 122.247 16.0001C122.245 18.7173 121.164 21.3225 119.243 23.2441C117.322 25.1657 114.717 26.2467 112 26.2501ZM125.169 9.52631C124.934 10.4013 124.259 11.4626 123.249 12.6026C122.73 10.8926 121.828 9.32358 120.611 8.01506C122.589 7.63381 124.611 7.57881 125.126 8.46256C125.275 8.71881 125.289 9.07756 125.169 9.52631Z" fill="currentColor"/>
<path d="M175.074 7.33379C174.285 5.97504 172.199 4.70129 166.804 6.12004C165.003 4.87749 162.897 4.15117 160.713 4.01972C158.529 3.88827 156.351 4.35669 154.414 5.37428C152.478 6.39187 150.856 7.91985 149.725 9.7928C148.595 11.6657 147.998 13.8123 148 16C148 16.3 148.011 16.5975 148.032 16.8925C144.07 20.8575 144.137 23.3 144.93 24.6663C145.675 25.9513 147.162 26.5 149.085 26.5C150.309 26.5 151.71 26.2775 153.204 25.8863C155.005 27.1271 157.111 27.8518 159.294 27.9819C161.477 28.112 163.654 27.6426 165.59 26.6245C167.526 25.6064 169.146 24.0784 170.276 22.2057C171.406 20.3331 172.002 18.1871 172 16C172 15.6988 171.989 15.4013 171.966 15.105C173.755 13.3075 174.949 11.5788 175.341 10.105C175.694 8.80254 175.39 7.87504 175.074 7.33379ZM160 7.00004C162.038 7.0028 164.016 7.69646 165.609 8.96779C167.203 10.2391 168.318 12.0131 168.774 14C167 15.5913 164.625 17.3238 161.74 18.9825C159.022 20.5438 156.296 21.7775 153.854 22.5638C152.538 21.3298 151.624 19.7292 151.229 17.9694C150.835 16.2095 150.978 14.3718 151.64 12.6943C152.303 11.0168 153.454 9.5771 154.944 8.56176C156.435 7.54643 158.196 7.00234 160 7.00004ZM147.524 23.1613C147.447 23.0275 147.502 22.1338 148.857 20.4475C149.278 21.4982 149.846 22.4838 150.544 23.375C148.39 23.7013 147.606 23.3013 147.524 23.1613ZM160 25C159.042 25.0002 158.089 24.8466 157.18 24.545C159.263 23.6973 161.285 22.7079 163.232 21.5838C165.173 20.4773 167.034 19.2381 168.804 17.875C168.372 19.89 167.262 21.6962 165.66 22.9926C164.058 24.2891 162.061 24.9976 160 25ZM172.446 9.3313C172.286 9.92879 171.845 10.69 171.147 11.5563C170.726 10.5042 170.158 9.51731 169.46 8.62504C171.439 8.32879 172.356 8.62504 172.479 8.83879C172.5 8.87504 172.526 9.03505 172.446 9.3313Z" fill="currentColor"/>
<path d="M219.902 14.4688C219.967 14.9766 220 15.488 220 16C220.002 18.2422 219.375 20.44 218.191 22.3439C217.006 24.2478 215.312 25.7815 213.3 26.7708C211.288 27.7601 209.038 28.1655 206.807 27.9409C204.576 27.7162 202.453 26.8706 200.679 25.5C203.827 24.73 207.531 23.1338 210.984 21.15C214.664 19.0363 217.77 16.6825 219.902 14.4688ZM222.639 7.585C221.682 5.93625 219.159 5.565 215.326 6.5025C213.552 5.13056 211.428 4.28372 209.197 4.05821C206.965 3.8327 204.715 4.23754 202.702 5.22675C200.69 6.21597 198.994 7.74989 197.81 9.65427C196.625 11.5587 195.998 13.7571 196 16C196 16.5145 196.033 17.0284 196.097 17.5388C192.636 21.125 192.686 23.25 193.362 24.415C194 25.52 195.33 26 197.08 26C198.295 25.9749 199.503 25.8071 200.679 25.5C200.034 25.0016 199.441 24.4396 198.909 23.8225C196.747 24.1825 195.409 23.9475 195.092 23.4113C194.91 23.0975 195.011 22.5063 195.37 21.7863C195.725 21.1119 196.156 20.4807 196.655 19.905C196.656 19.9013 196.656 19.8975 196.655 19.8938V19.9038C197.151 21.3391 197.915 22.6675 198.905 23.8188C201.522 23.3825 205.341 22.08 209.984 19.4125C213.5 17.3988 217.25 14.5838 219.349 12.1025C218.855 10.6652 218.091 9.33519 217.099 8.18375L217.082 8.165C217.082 8.17125 217.094 8.17625 217.099 8.18375C218.875 7.89 220.52 7.9125 220.911 8.58875C221.026 8.785 221.036 9.07875 220.93 9.46375C220.719 10.2525 220.156 11.155 219.351 12.105C219.616 12.8728 219.801 13.6657 219.905 14.4713C221.467 12.8463 222.507 11.3025 222.861 9.98125C223.104 9.06375 223.03 8.25875 222.639 7.585Z" fill="currentColor"/>
<path opacity="0.2" d="M267 16C267 18.1756 266.355 20.3023 265.146 22.1113C263.937 23.9202 262.22 25.3301 260.21 26.1627C258.2 26.9952 255.988 27.2131 253.854 26.7886C251.72 26.3642 249.76 25.3166 248.222 23.7782C246.683 22.2398 245.636 20.2798 245.211 18.146C244.787 16.0122 245.005 13.8005 245.837 11.7905C246.67 9.7805 248.08 8.06253 249.889 6.85383C251.698 5.64514 253.824 5 256 5C258.917 5 261.715 6.15893 263.778 8.22183C265.841 10.2847 267 13.0826 267 16Z" fill="currentColor"/>
<path d="M270.639 7.585C269.682 5.93625 267.159 5.565 263.326 6.5025C261.552 5.13056 259.428 4.28372 257.197 4.05821C254.965 3.8327 252.715 4.23754 250.702 5.22675C248.69 6.21597 246.994 7.74989 245.81 9.65427C244.625 11.5587 243.998 13.7571 244 16C244 16.5145 244.033 17.0284 244.097 17.5388C240.636 21.125 240.686 23.25 241.362 24.415C242 25.52 243.33 26 245.08 26C246.295 25.9749 247.503 25.8071 248.679 25.5C250.453 26.8706 252.576 27.7162 254.807 27.9409C257.038 28.1655 259.288 27.7601 261.3 26.7708C263.312 25.7815 265.006 24.2478 266.191 22.3439C267.375 20.44 268.002 18.2422 268 16C268 15.4881 267.968 14.9766 267.904 14.4688C269.466 12.8438 270.506 11.3 270.86 9.97875C271.104 9.06375 271.03 8.25875 270.639 7.585ZM256 6C258.265 6.00233 260.462 6.77242 262.233 8.18454C264.004 9.59666 265.244 11.5674 265.75 13.775C263.617 15.7825 260.731 17.8413 257.991 19.4163C254.547 21.3925 251.56 22.625 249.177 23.3C247.71 21.9314 246.689 20.1527 246.246 18.1955C245.804 16.2383 245.961 14.1933 246.697 12.3266C247.433 10.4599 248.714 8.85812 250.374 7.72972C252.033 6.60132 253.993 5.99859 256 6ZM243.092 23.4113C242.91 23.0975 243.011 22.5063 243.37 21.7863C243.725 21.1117 244.156 20.4804 244.656 19.905C245.152 21.3406 245.915 22.6691 246.906 23.82C244.75 24.1825 243.405 23.9513 243.092 23.4113ZM256 26C254.314 26.0017 252.655 25.5741 251.18 24.7575C253.888 23.7999 256.5 22.5922 258.984 21.15C261.681 19.6013 264.069 17.9225 265.992 16.265C265.921 18.8689 264.838 21.3425 262.972 23.1603C261.106 24.978 258.605 25.9967 256 26ZM268.927 9.46125C268.715 10.25 268.154 11.1525 267.349 12.1025C266.855 10.6652 266.091 9.33519 265.099 8.18375C266.875 7.89 268.52 7.9125 268.911 8.58875C269.024 8.785 269.03 9.07875 268.927 9.46125Z" fill="currentColor"/>
</g>
<defs>
<clipPath id="clip0_17_5161">
<rect width="272" height="32" rx="5" fill="white"/>
</clipPath>
</defs>
</svg>
