<svg width="272" height="32" viewBox="0 0 272 32" fill="none" xmlns="http://www.w3.org/2000/svg">
<g clip-path="url(#clip0_17_5147)">
<path d="M30.9536 4.98633C30.9393 4.74168 30.8357 4.5108 30.6624 4.33752C30.4891 4.16424 30.2583 4.06061 30.0136 4.04633C23.5436 3.67133 18.3486 5.63883 16.1161 9.32383C14.6411 11.7601 14.6436 14.7188 16.0961 17.5413C15.2694 18.5255 14.6652 19.6768 14.3249 20.9163L12.2911 18.8751C13.2686 16.8338 13.2311 14.7063 12.1661 12.9388C10.5161 10.2151 6.70737 8.75508 1.97862 9.03258C1.73398 9.04686 1.5031 9.15049 1.32982 9.32377C1.15653 9.49705 1.05291 9.72793 1.03862 9.97258C0.759874 14.7013 2.22112 18.5101 4.94487 20.1601C5.84371 20.7092 6.87656 20.9999 7.92987 21.0001C8.95225 20.9875 9.95872 20.7453 10.8749 20.2913L13.9999 23.4163V27.0001C13.9999 27.2653 14.1052 27.5196 14.2928 27.7072C14.4803 27.8947 14.7347 28.0001 14.9999 28.0001C15.2651 28.0001 15.5194 27.8947 15.707 27.7072C15.8945 27.5196 15.9999 27.2653 15.9999 27.0001V23.3138C15.9954 21.7229 16.5368 20.1787 17.5336 18.9388C18.8198 19.611 20.2463 19.9707 21.6974 19.9888C23.1003 19.9934 24.4773 19.6101 25.6761 18.8813C29.3611 16.6513 31.3336 11.4563 30.9536 4.98633ZM5.97612 18.4501C4.05862 17.2888 2.97362 14.5401 2.99987 11.0001C6.53987 10.9701 9.28862 12.0588 10.4499 13.9763C11.0561 14.9763 11.1549 16.1426 10.7574 17.3438L7.70612 14.2926C7.51706 14.113 7.26531 14.0143 7.00455 14.0176C6.74379 14.021 6.49465 14.126 6.31025 14.3104C6.12584 14.4948 6.02077 14.744 6.01744 15.0048C6.0141 15.2655 6.11275 15.5173 6.29237 15.7063L9.34362 18.7576C8.14237 19.1551 6.97738 19.0563 5.97612 18.4501ZM24.6399 17.1726C22.9649 18.1863 20.9961 18.2638 18.9961 17.4226L25.7074 10.7101C25.887 10.521 25.9857 10.2693 25.9823 10.0085C25.979 9.74774 25.8739 9.4986 25.6895 9.3142C25.5051 9.1298 25.256 9.02473 24.9952 9.02139C24.7344 9.01805 24.4827 9.11671 24.2936 9.29633L17.5811 16.0001C16.7361 14.0001 16.8124 12.0301 17.8311 10.3563C19.5736 7.48133 23.7061 5.87883 28.9974 6.00258C29.1174 11.2926 27.5174 15.4301 24.6399 17.1726Z" fill="currentColor"/>
<path d="M78.454 5.015C78.4465 4.8929 78.3946 4.77776 78.308 4.69138C78.2214 4.60499 78.1061 4.55336 77.984 4.54625C71.7027 4.17125 66.679 6.05875 64.544 9.5825C63.089 11.985 63.1477 14.8225 64.699 17.6087C63.6043 18.8113 62.8814 20.3053 62.6177 21.91L59.6815 18.9737C60.7602 16.9737 60.7827 14.9325 59.734 13.2C58.1815 10.6362 54.544 9.26625 50.0002 9.5325C49.8788 9.54017 49.7643 9.59188 49.6782 9.67795C49.5921 9.76402 49.5404 9.87852 49.5327 10C49.2665 14.5412 50.6365 18.1787 53.2002 19.7312C54.0231 20.2364 54.9697 20.5038 55.9352 20.5037C57.001 20.4856 58.0454 20.2021 58.974 19.6787L62.5002 23.2087C62.5002 23.2437 62.5002 23.2787 62.5002 23.3137V27C62.5002 27.1326 62.5529 27.2598 62.6467 27.3535C62.7404 27.4473 62.8676 27.5 63.0002 27.5C63.1328 27.5 63.26 27.4473 63.3538 27.3535C63.4476 27.2598 63.5002 27.1326 63.5002 27V23.3137C63.4955 21.4678 64.1767 19.6859 65.4115 18.3137C66.8477 19.1087 68.2952 19.5087 69.6915 19.5087C71.0068 19.509 72.2965 19.1451 73.4177 18.4575C76.9402 16.3212 78.824 11.2975 78.454 5.015ZM53.7177 18.875C51.559 17.57 50.3752 14.4612 50.5102 10.51C54.4615 10.375 57.5702 11.5587 58.8752 13.7175C59.6852 15.0562 59.699 16.6387 58.9327 18.2287L55.3527 14.6462C55.2576 14.5601 55.133 14.5138 55.0047 14.5169C54.8764 14.5201 54.7542 14.5725 54.6635 14.6632C54.5727 14.754 54.5203 14.8762 54.5172 15.0045C54.514 15.1328 54.5603 15.2574 54.6465 15.3525L58.2302 18.9362C56.639 19.7025 55.0565 19.6887 53.7177 18.875ZM72.899 17.6C70.8927 18.815 68.5127 18.7987 66.139 17.5687L73.354 10.3525C73.4439 10.258 73.4933 10.1322 73.4918 10.0018C73.4902 9.87145 73.4378 9.74683 73.3457 9.65454C73.2536 9.56226 73.129 9.50962 72.9986 9.50783C72.8683 9.50605 72.7423 9.55527 72.6477 9.645L65.4315 16.8612C64.2015 14.4862 64.1815 12.1112 65.4002 10.1012C67.289 6.97625 71.7852 5.285 77.479 5.52125C77.7165 11.215 76.019 15.7112 72.899 17.6Z" fill="currentColor"/>
<path d="M126.704 4.9999C126.693 4.81684 126.615 4.64415 126.485 4.51447C126.356 4.3848 126.183 4.30713 126 4.29615C119.625 3.92115 114.515 5.84865 112.331 9.45365C110.877 11.8549 110.909 14.7887 112.397 17.5787C111.443 18.6714 110.778 19.9861 110.462 21.4024L107.987 18.9262C109.006 16.9137 109 14.8074 107.947 13.0699C106.346 10.4261 102.625 9.00865 97.9875 9.28365C97.8042 9.29466 97.6314 9.37251 97.5017 9.50244C97.372 9.63237 97.2944 9.80537 97.2837 9.98865C97.0112 14.6249 98.4262 18.3462 101.07 19.9474C101.931 20.4736 102.921 20.7514 103.93 20.7499C104.975 20.7392 106.003 20.4823 106.93 19.9999L110.25 23.3099V26.9999C110.25 27.1988 110.329 27.3896 110.47 27.5302C110.61 27.6709 110.801 27.7499 111 27.7499C111.199 27.7499 111.39 27.6709 111.53 27.5302C111.671 27.3896 111.75 27.1988 111.75 26.9999V23.3136C111.745 21.5955 112.355 19.9323 113.47 18.6249C114.871 19.3661 116.31 19.7387 117.697 19.7387C119.055 19.7431 120.387 19.3724 121.546 18.6674C125.151 16.4861 127.079 11.3749 126.704 4.9999ZM101.847 18.6636C99.8087 17.4299 98.6737 14.4999 98.75 10.7499C102.5 10.6686 105.426 11.8049 106.66 13.8436C107.37 15.0149 107.43 16.3911 106.852 17.7924L103.53 14.4686C103.389 14.3279 103.198 14.2489 102.999 14.2489C102.8 14.2489 102.609 14.3279 102.469 14.4686C102.328 14.6094 102.249 14.8003 102.249 14.9993C102.249 15.1983 102.328 15.3892 102.469 15.5299L105.796 18.8562C104.395 19.4337 103.019 19.3749 101.847 18.6636ZM120.77 17.3861C118.927 18.5011 116.752 18.5337 114.561 17.4987L121.531 10.5299C121.601 10.4602 121.656 10.3775 121.694 10.2864C121.732 10.1954 121.751 10.0978 121.751 9.99927C121.751 9.90073 121.732 9.80315 121.694 9.7121C121.656 9.62106 121.601 9.53833 121.531 9.46865C121.462 9.39897 121.379 9.34369 121.288 9.30598C121.197 9.26827 121.099 9.24886 121.001 9.24886C120.902 9.24886 120.804 9.26827 120.713 9.30598C120.622 9.34369 120.54 9.39897 120.47 9.46865L113.5 16.4386C112.465 14.2474 112.5 12.0724 113.612 10.2311C115.427 7.23115 119.745 5.58365 125.237 5.7624C125.416 11.2499 123.767 15.5699 120.77 17.3861Z" fill="currentColor"/>
<path d="M175.452 4.95614C175.431 4.5896 175.275 4.24375 175.016 3.98411C174.756 3.72447 174.41 3.56908 174.044 3.54739C167.384 3.15489 162.019 5.21864 159.689 9.06489C158.171 11.5649 158.119 14.5861 159.506 17.4774C158.913 18.234 158.439 19.0771 158.101 19.9774L156.889 18.7649C157.787 16.6686 157.692 14.5011 156.589 12.6786C154.841 9.79489 150.861 8.24989 145.944 8.53489C145.577 8.55658 145.231 8.71197 144.972 8.97161C144.712 9.23125 144.557 9.5771 144.535 9.94364C144.25 14.8611 145.795 18.8411 148.681 20.5886C149.66 21.1853 150.785 21.4998 151.931 21.4974C152.909 21.4894 153.874 21.2822 154.769 20.8886L157.5 23.6249V26.9999C157.5 27.3977 157.658 27.7792 157.939 28.0605C158.221 28.3419 158.602 28.4999 159 28.4999C159.398 28.4999 159.779 28.3419 160.061 28.0605C160.342 27.7792 160.5 27.3977 160.5 26.9999V23.3136C160.497 21.9728 160.912 20.6643 161.686 19.5699C162.94 20.1663 164.309 20.4836 165.697 20.4999C167.192 20.5034 168.658 20.0942 169.935 19.3174C173.781 16.9811 175.845 11.6149 175.452 4.95614ZM150.235 18.0224C148.586 17.0224 147.587 14.5899 147.506 11.5061C150.59 11.5874 153.024 12.5874 154.022 14.2349C154.413 14.8702 154.573 15.6205 154.476 16.3599L153.06 14.9386C152.778 14.6568 152.396 14.4985 151.997 14.4985C151.599 14.4985 151.217 14.6568 150.935 14.9386C150.653 15.2204 150.495 15.6026 150.495 16.0011C150.495 16.3997 150.653 16.7818 150.935 17.0636L152.352 18.4811C151.615 18.5722 150.869 18.4105 150.235 18.0224ZM168.381 16.7499C167.049 17.5561 165.506 17.7086 163.905 17.2199L168.561 12.5649C168.843 12.2831 169.001 11.9009 169.001 11.5024C169.001 11.1039 168.843 10.7217 168.561 10.4399C168.279 10.1581 167.897 9.99979 167.499 9.99979C167.1 9.99979 166.718 10.1581 166.436 10.4399L161.78 15.0949C161.296 13.4999 161.449 11.9511 162.25 10.6249C163.846 7.98864 167.625 6.49114 172.5 6.49989C172.517 11.3749 171.017 15.1474 168.381 16.7499Z" fill="currentColor"/>
<path d="M217.676 18.8837C216.477 19.6124 215.101 19.9957 213.698 19.9912C212.522 19.9818 211.36 19.7414 210.278 19.2837C209.443 20.4616 208.997 21.8702 209 23.3137V26.9999C209 27.137 208.972 27.2727 208.918 27.3985C208.864 27.5244 208.784 27.6377 208.684 27.7315C208.584 27.8253 208.466 27.8975 208.337 27.9437C208.208 27.9899 208.071 28.009 207.934 27.9999C207.677 27.9775 207.438 27.8588 207.265 27.6676C207.091 27.4763 206.997 27.2267 207 26.9687V25.4137L202.173 20.5862C201.455 20.8539 200.696 20.9939 199.93 20.9999C198.876 21.0025 197.841 20.714 196.94 20.1662C194.216 18.5112 192.75 14.7024 193.034 9.97366C193.048 9.72902 193.152 9.49814 193.325 9.32486C193.498 9.15157 193.729 9.04795 193.974 9.03366C198.703 8.75491 202.511 10.2162 204.161 12.9399C204.81 14.0075 205.093 15.2572 204.968 16.4999C204.96 16.5962 204.924 16.6882 204.865 16.7647C204.806 16.8413 204.727 16.8991 204.635 16.9312C204.544 16.9633 204.446 16.9684 204.352 16.9458C204.258 16.9231 204.173 16.8738 204.106 16.8037L201.706 14.2912C201.517 14.1115 201.265 14.0129 201.005 14.0162C200.744 14.0196 200.495 14.1246 200.31 14.309C200.126 14.4934 200.021 14.7426 200.018 15.0033C200.014 15.2641 200.113 15.5159 200.293 15.7049L207.028 22.6112C207.035 22.5137 207.044 22.4162 207.054 22.3199C207.272 20.4658 208.091 18.7339 209.384 17.3874L215.708 10.7049C215.895 10.5174 216.001 10.2631 216.001 9.99786C216.001 9.73261 215.896 9.47818 215.708 9.29054C215.521 9.1029 215.266 8.99742 215.001 8.9973C214.736 8.99718 214.481 9.10244 214.294 9.28991L208.169 15.7674C208.107 15.8324 208.03 15.8797 207.944 15.9045C207.858 15.9293 207.767 15.9307 207.681 15.9085C207.594 15.8863 207.515 15.8413 207.452 15.7783C207.389 15.7152 207.344 15.6364 207.321 15.5499C206.729 13.3649 206.99 11.1899 208.121 9.32241C210.354 5.63741 215.549 3.66491 222.019 4.04491C222.263 4.0592 222.494 4.16282 222.668 4.33611C222.841 4.50939 222.945 4.74027 222.959 4.98491C223.334 11.4562 221.361 16.6512 217.676 18.8837Z" fill="currentColor"/>
<path opacity="0.2" d="M257.317 17.6825C253.327 11.0313 258.647 4.3813 269.954 5.0463C270.625 16.3525 263.969 21.6738 257.317 17.6825ZM242.032 10.0325C241.557 18.1088 246.309 21.9075 251.059 19.0588C253.909 14.3088 250.109 9.55755 242.032 10.0325Z" fill="currentColor"/>
<path d="M270.954 4.98633C270.939 4.74168 270.836 4.5108 270.663 4.33752C270.489 4.16424 270.258 4.06061 270.014 4.04633C263.544 3.67133 258.349 5.63883 256.116 9.32383C254.641 11.7588 254.644 14.7188 256.096 17.5413C255.27 18.5238 254.666 19.6728 254.325 20.9101L252.291 18.8751C253.269 16.8338 253.231 14.7051 252.166 12.9388C250.511 10.2163 246.702 8.75008 241.974 9.03383C241.729 9.04811 241.498 9.15174 241.325 9.32502C241.152 9.4983 241.048 9.72918 241.034 9.97383C240.755 14.7026 242.216 18.5113 244.94 20.1613C245.84 20.7109 246.875 21.0012 247.93 21.0001C248.952 20.9875 249.959 20.7453 250.875 20.2913L254 23.4163V27.0001C254 27.2653 254.105 27.5196 254.293 27.7072C254.48 27.8947 254.735 28.0001 255 28.0001C255.265 28.0001 255.52 27.8947 255.707 27.7072C255.895 27.5196 256 27.2653 256 27.0001V23.3138C255.996 21.7229 256.537 20.1787 257.534 18.9388C258.82 19.611 260.246 19.9707 261.697 19.9888C263.1 19.9934 264.477 19.6101 265.676 18.8813C269.361 16.6513 271.334 11.4563 270.954 4.98633ZM250.757 17.3426L247.706 14.2926C247.517 14.113 247.265 14.0143 247.005 14.0176C246.744 14.021 246.495 14.126 246.31 14.3104C246.126 14.4948 246.021 14.744 246.018 15.0048C246.014 15.2655 246.113 15.5173 246.292 15.7063L249.344 18.7576C248.142 19.1551 246.977 19.0563 245.976 18.4501C244.059 17.2888 242.974 14.5401 243 11.0001C246.539 10.9688 249.289 12.0588 250.45 13.9763C251.056 14.9776 251.155 16.1426 250.757 17.3426ZM264.64 17.1726C262.965 18.1863 260.996 18.2638 258.996 17.4226L265.707 10.7101C265.895 10.5226 266.001 10.2683 266.001 10.003C266.001 9.73777 265.896 9.48334 265.708 9.2957C265.521 9.10806 265.266 9.00258 265.001 9.00246C264.736 9.00235 264.481 9.1076 264.294 9.29508L257.581 16.0001C256.736 14.0001 256.812 12.0301 257.831 10.3563C259.574 7.48133 263.706 5.88133 268.997 6.00258C269.117 11.2926 267.517 15.4301 264.64 17.1726Z" fill="currentColor"/>
</g>
<defs>
<clipPath id="clip0_17_5147">
<rect width="272" height="32" rx="5" fill="white"/>
</clipPath>
</defs>
</svg>
