<svg width="272" height="32" viewBox="0 0 272 32" fill="none" xmlns="http://www.w3.org/2000/svg">
<g clip-path="url(#clip0_17_5077)">
<path d="M27.9712 18.7613C28.0026 18.8889 28.0085 19.0213 27.9887 19.1512C27.9689 19.281 27.9236 19.4057 27.8556 19.5181C27.7876 19.6304 27.6981 19.7283 27.5922 19.8061C27.4864 19.8838 27.3663 19.94 27.2387 19.9713L24.1587 20.7213L24.9662 23.7351C25.0002 23.862 25.0089 23.9943 24.9918 24.1246C24.9746 24.2548 24.932 24.3804 24.8663 24.4942C24.8006 24.6079 24.7131 24.7076 24.6088 24.7876C24.5046 24.8675 24.3856 24.9261 24.2587 24.9601C24.1745 24.9843 24.0876 24.9978 24 25.0001C23.78 24.9999 23.5662 24.9271 23.3917 24.7931C23.2173 24.6591 23.0919 24.4713 23.035 24.2588L22.07 20.6588L17 17.7326V23.5863L19.7075 26.2926C19.8004 26.3855 19.8741 26.4958 19.9243 26.6172C19.9746 26.7386 20.0005 26.8687 20.0005 27.0001C20.0005 27.1315 19.9746 27.2616 19.9243 27.383C19.8741 27.5044 19.8004 27.6147 19.7075 27.7076C19.6145 27.8005 19.5042 27.8742 19.3828 27.9245C19.2615 27.9747 19.1313 28.0006 19 28.0006C18.8686 28.0006 18.7384 27.9747 18.6171 27.9245C18.4957 27.8742 18.3854 27.8005 18.2925 27.7076L16 25.4138L13.7075 27.7076C13.6145 27.8005 13.5042 27.8742 13.3828 27.9245C13.2615 27.9747 13.1313 28.0006 13 28.0006C12.8686 28.0006 12.7384 27.9747 12.6171 27.9245C12.4957 27.8742 12.3854 27.8005 12.2925 27.7076C12.1995 27.6147 12.1258 27.5044 12.0756 27.383C12.0253 27.2616 11.9994 27.1315 11.9994 27.0001C11.9994 26.8687 12.0253 26.7386 12.0756 26.6172C12.1258 26.4958 12.1995 26.3855 12.2925 26.2926L15 23.5863V17.7326L9.9312 20.6588L8.9662 24.2588C8.90923 24.4715 8.78364 24.6595 8.60893 24.7935C8.43422 24.9275 8.22015 25.0001 7.99995 25.0001C7.9122 24.9999 7.82483 24.9886 7.73995 24.9663C7.61304 24.9324 7.49406 24.8738 7.38982 24.7938C7.28557 24.7139 7.19809 24.6142 7.13239 24.5004C7.06669 24.3866 7.02404 24.2611 7.0069 24.1308C6.98975 24.0006 6.99843 23.8682 7.03245 23.7413L7.83995 20.7276L4.75995 19.9776C4.50236 19.9142 4.28047 19.7512 4.1431 19.5243C4.00573 19.2974 3.96413 19.0252 4.02745 18.7676C4.09077 18.51 4.25383 18.2881 4.48075 18.1507C4.70767 18.0133 4.97986 17.9717 5.23745 18.0351L8.9187 18.9388L14 16.0001L8.91995 13.0676L5.2387 13.9713C5.1606 13.9907 5.08041 14.0003 4.99995 14.0001C4.75544 14.0002 4.51934 13.9108 4.33629 13.7487C4.15323 13.5866 4.03592 13.363 4.00652 13.1203C3.97712 12.8776 4.03767 12.6325 4.17673 12.4313C4.31579 12.2302 4.52372 12.087 4.7612 12.0288L7.8412 11.2788L7.0337 8.25882C6.96508 8.00255 7.00106 7.72952 7.13375 7.49979C7.26643 7.27006 7.48494 7.10244 7.7412 7.03382C7.99747 6.96519 8.2705 7.00118 8.50023 7.13386C8.72996 7.26654 8.89758 7.48505 8.9662 7.74132L9.9312 11.3413L15 14.2676V8.41382L12.2925 5.70757C12.1048 5.51993 11.9994 5.26543 11.9994 5.00007C11.9994 4.86867 12.0253 4.73856 12.0756 4.61717C12.1258 4.49578 12.1995 4.38548 12.2925 4.29257C12.3854 4.19966 12.4957 4.12596 12.6171 4.07567C12.7384 4.02539 12.8686 3.99951 13 3.99951C13.2653 3.99951 13.5198 4.10493 13.7075 4.29257L16 6.58632L18.2925 4.29257C18.4801 4.10493 18.7346 3.99951 19 3.99951C19.2653 3.99951 19.5198 4.10493 19.7075 4.29257C19.8951 4.48021 20.0005 4.7347 20.0005 5.00007C20.0005 5.26543 19.8951 5.51993 19.7075 5.70757L17 8.41382V14.2676L22.0687 11.3413L23.0337 7.74132C23.1023 7.48505 23.2699 7.26654 23.4997 7.13386C23.7294 7.00118 24.0024 6.96519 24.2587 7.03382C24.515 7.10244 24.7335 7.27006 24.8662 7.49979C24.9988 7.72952 25.0348 8.00255 24.9662 8.25882L24.1587 11.2726L27.2387 12.0226C27.4828 12.0747 27.6986 12.2162 27.8437 12.4194C27.9887 12.6225 28.0526 12.8726 28.0226 13.1204C27.9927 13.3682 27.8712 13.5959 27.682 13.7586C27.4927 13.9214 27.2495 14.0075 27 14.0001C26.9195 14.0003 26.8393 13.9907 26.7612 13.9713L23.08 13.0676L18 16.0001L23.08 18.9326L26.7612 18.0288C26.8887 17.9974 27.0212 17.9915 27.1511 18.0113C27.2809 18.0312 27.4056 18.0764 27.5179 18.1444C27.6303 18.2124 27.7282 18.3019 27.8059 18.4078C27.8837 18.5136 27.9399 18.6338 27.9712 18.7613Z" fill="currentColor"/>
<path d="M75.4851 18.8813C75.5164 19.0099 75.4954 19.1457 75.4268 19.2589C75.3581 19.372 75.2474 19.4534 75.1188 19.485L71.5438 20.36L72.4826 23.875C72.4996 23.9385 72.5039 24.0047 72.4954 24.0698C72.4868 24.1349 72.4655 24.1977 72.4326 24.2546C72.3998 24.3115 72.356 24.3613 72.3039 24.4013C72.2518 24.4413 72.1923 24.4706 72.1288 24.4875C72.0882 24.4991 72.0461 24.505 72.0038 24.505C71.8933 24.5047 71.7859 24.4677 71.6986 24.3998C71.6113 24.332 71.549 24.2371 71.5213 24.13L70.5001 20.33L64.5001 16.8663V23.7925L67.3538 26.6463C67.4003 26.6927 67.4371 26.7479 67.4623 26.8086C67.4874 26.8693 67.5004 26.9343 67.5004 27C67.5004 27.0657 67.4874 27.1308 67.4623 27.1915C67.4371 27.2522 67.4003 27.3073 67.3538 27.3538C67.3074 27.4002 67.2522 27.4371 67.1915 27.4622C67.1308 27.4874 67.0658 27.5003 67.0001 27.5003C66.9344 27.5003 66.8693 27.4874 66.8086 27.4622C66.7479 27.4371 66.6928 27.4002 66.6463 27.3538L64.0001 24.7075L61.3538 27.3538C61.26 27.4476 61.1328 27.5003 61.0001 27.5003C60.8674 27.5003 60.7402 27.4476 60.6463 27.3538C60.5525 27.26 60.4998 27.1327 60.4998 27C60.4998 26.8674 60.5525 26.7401 60.6463 26.6463L63.5001 23.7925V16.8663L57.5001 20.33L56.4826 24.125C56.4549 24.2321 56.3926 24.327 56.3053 24.3948C56.218 24.4627 56.1106 24.4997 56.0001 24.5C55.9578 24.5 55.9157 24.4941 55.8751 24.4825C55.8116 24.4656 55.7521 24.4363 55.7 24.3963C55.6479 24.3563 55.6042 24.3065 55.5713 24.2496C55.5384 24.1927 55.5171 24.1299 55.5086 24.0648C55.5 23.9997 55.5043 23.9335 55.5213 23.87L56.4601 20.3638L52.8851 19.4888C52.8211 19.473 52.7609 19.4448 52.7079 19.4058C52.6549 19.3668 52.61 19.3177 52.576 19.2613C52.5419 19.205 52.5193 19.1425 52.5093 19.0774C52.4994 19.0123 52.5024 18.9458 52.5182 18.8819C52.534 18.818 52.5622 18.7578 52.6012 18.7047C52.6402 18.6517 52.6893 18.6069 52.7457 18.5728C52.802 18.5387 52.8645 18.5161 52.9296 18.5062C52.9947 18.4963 53.0611 18.4993 53.1251 18.515L57.0001 19.4663L63.0001 16L57.0001 12.5338L53.1251 13.485C53.0842 13.4952 53.0422 13.5002 53.0001 13.5C52.8778 13.5009 52.7594 13.4569 52.6673 13.3763C52.5753 13.2958 52.516 13.1843 52.5006 13.063C52.4852 12.9417 52.5148 12.8189 52.5838 12.7179C52.6528 12.6169 52.7564 12.5448 52.8751 12.515L56.4501 11.64L55.5176 8.12503C55.4958 8.00118 55.5215 7.87367 55.5895 7.76791C55.6575 7.66214 55.7629 7.58589 55.8846 7.55435C56.0064 7.52282 56.1355 7.53831 56.2463 7.59774C56.3571 7.65717 56.4415 7.75618 56.4826 7.87503L57.5001 11.67L63.5001 15.1338V8.20753L60.6463 5.35378C60.5525 5.25996 60.4998 5.13272 60.4998 5.00003C60.4998 4.86735 60.5525 4.7401 60.6463 4.64628C60.7402 4.55246 60.8674 4.49976 61.0001 4.49976C61.1328 4.49976 61.26 4.55246 61.3538 4.64628L64.0001 7.29253L66.6463 4.64628C66.6928 4.59983 66.7479 4.56298 66.8086 4.53784C66.8693 4.5127 66.9344 4.49976 67.0001 4.49976C67.0658 4.49976 67.1308 4.5127 67.1915 4.53784C67.2522 4.56298 67.3074 4.59983 67.3538 4.64628C67.4003 4.69274 67.4371 4.74789 67.4623 4.80859C67.4874 4.86928 67.5004 4.93434 67.5004 5.00003C67.5004 5.06573 67.4874 5.13079 67.4623 5.19148C67.4371 5.25218 67.4003 5.30733 67.3538 5.35378L64.5001 8.20753V15.1338L70.5001 11.67L71.5176 7.87503C71.5587 7.75618 71.643 7.65717 71.7538 7.59774C71.8647 7.53831 71.9938 7.52282 72.1155 7.55435C72.2373 7.58589 72.3427 7.66214 72.4107 7.76791C72.4787 7.87367 72.5044 8.00118 72.4826 8.12503L71.5438 11.6313L75.1188 12.5063C75.2506 12.522 75.3707 12.5895 75.4528 12.6938C75.5348 12.7981 75.5721 12.9308 75.5563 13.0625C75.5406 13.1943 75.4731 13.3144 75.3688 13.3965C75.2645 13.4785 75.1319 13.5158 75.0001 13.5C74.958 13.5002 74.916 13.4952 74.8751 13.485L71.0001 12.5338L65.0001 16L71.0001 19.4663L74.8751 18.515C74.9392 18.4986 75.0059 18.4951 75.0714 18.5046C75.1369 18.5142 75.1999 18.5366 75.2566 18.5707C75.3133 18.6048 75.3628 18.6498 75.402 18.7031C75.4412 18.7564 75.4694 18.817 75.4851 18.8813Z" fill="currentColor"/>
<path d="M123.729 18.8213C123.752 18.917 123.757 19.0164 123.742 19.1139C123.727 19.2113 123.693 19.3048 123.642 19.3891C123.591 19.4734 123.524 19.5467 123.444 19.605C123.365 19.6633 123.274 19.7054 123.179 19.7288L119.851 20.5463L120.726 23.8063C120.752 23.9015 120.758 24.0007 120.746 24.0983C120.733 24.196 120.701 24.2902 120.652 24.3755C120.602 24.4608 120.537 24.5356 120.459 24.5956C120.381 24.6556 120.291 24.6996 120.196 24.7251C120.133 24.7413 120.068 24.7497 120.003 24.7501C119.837 24.7502 119.677 24.6957 119.546 24.5951C119.414 24.4945 119.32 24.3535 119.278 24.1938L118.284 20.5001L112.75 17.2988V23.6901L115.53 26.4701C115.604 26.5388 115.663 26.6216 115.704 26.7136C115.745 26.8056 115.767 26.9049 115.769 27.0056C115.77 27.1063 115.752 27.2063 115.714 27.2997C115.676 27.3931 115.62 27.4779 115.549 27.5491C115.478 27.6203 115.393 27.6765 115.3 27.7142C115.206 27.7519 115.106 27.7705 115.006 27.7687C114.905 27.7669 114.805 27.7449 114.713 27.7039C114.621 27.6629 114.539 27.6038 114.47 27.5301L112 25.0613L109.53 27.5301C109.388 27.6626 109.2 27.7347 109.006 27.7313C108.811 27.7278 108.626 27.6491 108.488 27.5117C108.351 27.3743 108.272 27.1889 108.269 26.9946C108.265 26.8003 108.338 26.6123 108.47 26.4701L111.25 23.6901V17.2988L105.716 20.5001L104.725 24.2001C104.681 24.3586 104.586 24.4982 104.455 24.5976C104.324 24.697 104.164 24.7506 104 24.7501C103.935 24.7497 103.87 24.7413 103.806 24.7251C103.711 24.6996 103.622 24.6556 103.544 24.5956C103.466 24.5356 103.4 24.4608 103.351 24.3755C103.302 24.2902 103.27 24.196 103.257 24.0983C103.244 24.0007 103.251 23.9015 103.276 23.8063L104.151 20.5463L100.824 19.7288C100.631 19.6814 100.464 19.5592 100.361 19.389C100.258 19.2188 100.226 19.0146 100.274 18.8213C100.321 18.6281 100.443 18.4615 100.614 18.3584C100.784 18.2552 100.988 18.2239 101.181 18.2713L104.96 19.2001L110.5 16.0001L104.958 12.8001L101.179 13.7288C101.12 13.7432 101.06 13.7504 101 13.7501C100.816 13.7505 100.639 13.6835 100.502 13.5618C100.364 13.4402 100.276 13.2724 100.254 13.0901C100.232 12.9078 100.278 12.7238 100.382 12.5729C100.487 12.422 100.643 12.3147 100.821 12.2713L104.149 11.4538L103.274 8.19384C103.246 8.09799 103.238 7.99755 103.249 7.89842C103.261 7.79929 103.292 7.70345 103.341 7.61653C103.39 7.52961 103.456 7.45335 103.535 7.39222C103.614 7.33109 103.704 7.28633 103.8 7.26054C103.897 7.23475 103.997 7.22846 104.096 7.24205C104.195 7.25563 104.29 7.28881 104.376 7.33964C104.462 7.39047 104.537 7.45794 104.596 7.53807C104.656 7.61821 104.699 7.70942 104.723 7.80634L105.714 11.5063L111.25 14.7013V8.31009L108.47 5.53009C108.338 5.38792 108.265 5.19987 108.269 5.00557C108.272 4.81127 108.351 4.62588 108.488 4.48847C108.626 4.35106 108.811 4.27234 109.006 4.26892C109.2 4.26549 109.388 4.33761 109.53 4.47009L112 6.93884L114.47 4.47009C114.612 4.33761 114.8 4.26549 114.995 4.26892C115.189 4.27234 115.374 4.35106 115.512 4.48847C115.649 4.62588 115.728 4.81127 115.731 5.00557C115.735 5.19987 115.663 5.38792 115.53 5.53009L112.75 8.31009V14.7013L118.284 11.5063L119.275 7.80634C119.299 7.70942 119.342 7.61821 119.401 7.53807C119.461 7.45794 119.536 7.39047 119.621 7.33964C119.707 7.28881 119.802 7.25563 119.901 7.24205C120 7.22846 120.101 7.23475 120.197 7.26054C120.294 7.28633 120.384 7.33109 120.463 7.39222C120.542 7.45335 120.608 7.52961 120.657 7.61653C120.706 7.70345 120.737 7.79929 120.748 7.89842C120.76 7.99755 120.752 8.09799 120.724 8.19384L119.849 11.4538L123.176 12.2713C123.354 12.3147 123.511 12.4218 123.615 12.5724C123.72 12.7231 123.765 12.9068 123.744 13.0889C123.722 13.2709 123.634 13.4388 123.497 13.5606C123.36 13.6824 123.183 13.7498 123 13.7501C122.94 13.7504 122.88 13.7432 122.821 13.7288L119.043 12.8001L113.5 16.0001L119.043 19.2001L122.821 18.2713C122.917 18.2478 123.016 18.2434 123.114 18.2583C123.211 18.2732 123.305 18.3072 123.389 18.3583C123.473 18.4093 123.547 18.4765 123.605 18.556C123.663 18.6354 123.705 18.7256 123.729 18.8213Z" fill="currentColor"/>
<path d="M172.456 18.6425C172.551 19.0287 172.488 19.4367 172.282 19.7768C172.076 20.1169 171.744 20.3613 171.357 20.4562L168.774 21.0912L169.449 23.6112C169.552 23.9955 169.498 24.4049 169.299 24.7495C169.1 25.0941 168.773 25.3456 168.389 25.4487C168.004 25.5518 167.595 25.4981 167.25 25.2993C166.906 25.1005 166.654 24.773 166.551 24.3887L165.64 20.9887L161.5 18.5975V23.375L164.06 25.935C164.199 26.0745 164.31 26.2402 164.386 26.4225C164.461 26.6048 164.5 26.8001 164.5 26.9975C164.5 27.1948 164.461 27.3902 164.386 27.5725C164.31 27.7548 164.199 27.9204 164.06 28.06C163.92 28.1995 163.755 28.3102 163.572 28.3857C163.39 28.4612 163.195 28.5001 162.997 28.5001C162.8 28.5001 162.605 28.4612 162.422 28.3857C162.24 28.3102 162.074 28.1995 161.935 28.06L160 26.125L158.061 28.065C157.922 28.2045 157.756 28.3152 157.574 28.3907C157.391 28.4662 157.196 28.5051 156.999 28.5051C156.801 28.5051 156.606 28.4662 156.424 28.3907C156.241 28.3152 156.076 28.2045 155.936 28.065C155.797 27.9254 155.686 27.7598 155.61 27.5775C155.535 27.3952 155.496 27.1998 155.496 27.0025C155.496 26.8052 155.535 26.6098 155.61 26.4275C155.686 26.2451 155.797 26.0795 155.936 25.94L158.5 23.375V18.5975L154.36 20.9887L153.449 24.3887C153.346 24.773 153.094 25.1005 152.749 25.2993C152.405 25.4981 151.995 25.5518 151.611 25.4487C151.227 25.3456 150.899 25.0941 150.701 24.7495C150.502 24.4049 150.448 23.9955 150.551 23.6112L151.226 21.0912L148.642 20.4562C148.447 20.4136 148.262 20.3321 148.098 20.2168C147.934 20.1014 147.795 19.9544 147.689 19.7845C147.583 19.6146 147.512 19.4251 147.481 19.2274C147.449 19.0296 147.457 18.8275 147.505 18.633C147.553 18.4385 147.639 18.2556 147.759 18.0949C147.878 17.9343 148.029 17.7992 148.202 17.6977C148.374 17.5961 148.565 17.5302 148.764 17.5038C148.962 17.4773 149.164 17.4909 149.357 17.5437L152.844 18.4L157 16L152.844 13.6L149.357 14.4562C149.24 14.4854 149.12 14.5001 149 14.5C148.634 14.4992 148.281 14.3644 148.007 14.1212C147.733 13.8779 147.558 13.543 147.514 13.1794C147.47 12.8159 147.561 12.4489 147.769 12.1476C147.977 11.8463 148.288 11.6315 148.644 11.5437L151.227 10.9087L150.552 8.38873C150.449 8.00449 150.503 7.59504 150.702 7.25044C150.901 6.90584 151.228 6.65433 151.612 6.55122C151.997 6.44812 152.406 6.50188 152.751 6.70067C153.095 6.89945 153.347 7.22699 153.45 7.61123L154.361 11.0112L158.5 13.4012V8.62498L155.94 6.05997C155.8 5.92045 155.69 5.7548 155.614 5.5725C155.539 5.39019 155.5 5.1948 155.5 4.99747C155.5 4.59896 155.658 4.21677 155.94 3.93497C156.222 3.65318 156.604 3.49487 157.002 3.49487C157.2 3.49487 157.395 3.53374 157.577 3.60925C157.76 3.68476 157.925 3.79545 158.065 3.93497L160 5.87497L161.939 3.93497C162.078 3.79545 162.244 3.68476 162.426 3.60925C162.608 3.53374 162.804 3.49487 163.001 3.49487C163.198 3.49487 163.394 3.53374 163.576 3.60925C163.758 3.68476 163.924 3.79545 164.064 3.93497C164.203 4.0745 164.314 4.24015 164.389 4.42245C164.465 4.60476 164.504 4.80015 164.504 4.99747C164.504 5.1948 164.465 5.39019 164.389 5.5725C164.314 5.7548 164.203 5.92045 164.064 6.05997L161.5 8.62498V13.405L165.64 11.015L166.551 7.61497C166.654 7.23074 166.906 6.90321 167.25 6.70442C167.595 6.50563 168.004 6.45187 168.389 6.55497C168.773 6.65808 169.1 6.90959 169.299 7.25419C169.498 7.59879 169.552 8.00824 169.449 8.39248L168.774 10.9125L171.357 11.5475C171.71 11.6382 172.017 11.8538 172.222 12.1542C172.427 12.4546 172.516 12.8193 172.472 13.1804C172.429 13.5415 172.255 13.8744 171.984 14.1171C171.713 14.3599 171.364 14.4959 171 14.5C170.879 14.5002 170.758 14.4855 170.641 14.4562L167.155 13.6L163 16L167.156 18.4L170.642 17.5437C171.029 17.4491 171.437 17.5116 171.777 17.7176C172.117 17.9237 172.361 18.2563 172.456 18.6425Z" fill="currentColor"/>
<path d="M208 3C205.429 3 202.915 3.76244 200.778 5.1909C198.64 6.61935 196.974 8.64968 195.99 11.0251C195.006 13.4006 194.748 16.0144 195.25 18.5362C195.751 21.0579 196.99 23.3743 198.808 25.1924C200.626 27.0105 202.942 28.2486 205.464 28.7502C207.986 29.2518 210.599 28.9944 212.975 28.0104C215.35 27.0265 217.381 25.3603 218.809 23.2224C220.238 21.0846 221 18.5712 221 16C220.996 12.5533 219.626 9.24882 217.188 6.81163C214.751 4.37445 211.447 3.00364 208 3ZM213.296 17.9025L215.664 17.0575C215.788 17.0133 215.919 16.994 216.05 17.0006C216.181 17.0071 216.31 17.0395 216.429 17.0958C216.547 17.1521 216.654 17.2312 216.742 17.3287C216.83 17.4261 216.898 17.54 216.943 17.6637C216.987 17.7875 217.006 17.9188 216.999 18.05C216.993 18.1813 216.961 18.3099 216.904 18.4287C216.848 18.5474 216.769 18.6539 216.671 18.7421C216.574 18.8302 216.46 18.8983 216.336 18.9425L214.401 19.6325L214.966 21.7412C215 21.8681 215.009 22.0005 214.992 22.1307C214.975 22.261 214.932 22.3866 214.866 22.5003C214.801 22.6141 214.713 22.7138 214.609 22.7937C214.505 22.8737 214.386 22.9323 214.259 22.9662C214.174 22.9884 214.087 22.9998 214 23C213.78 23.0001 213.566 22.9275 213.391 22.7934C213.216 22.6594 213.091 22.4715 213.034 22.2588L212.338 19.6588L209 17.7325V21.5863L210.708 23.2925C210.8 23.3854 210.874 23.4957 210.924 23.6171C210.975 23.7385 211.001 23.8686 211.001 24C211.001 24.1314 210.975 24.2615 210.924 24.3829C210.874 24.5043 210.8 24.6146 210.708 24.7075C210.615 24.8004 210.504 24.8741 210.383 24.9244C210.262 24.9747 210.131 25.0006 210 25.0006C209.869 25.0006 209.739 24.9747 209.617 24.9244C209.496 24.8741 209.385 24.8004 209.293 24.7075L208 23.4137L206.708 24.7075C206.615 24.8004 206.504 24.8741 206.383 24.9244C206.262 24.9747 206.131 25.0006 206 25.0006C205.869 25.0006 205.739 24.9747 205.617 24.9244C205.496 24.8741 205.385 24.8004 205.293 24.7075C205.2 24.6146 205.126 24.5043 205.076 24.3829C205.025 24.2615 204.999 24.1314 204.999 24C204.999 23.8686 205.025 23.7385 205.076 23.6171C205.126 23.4957 205.2 23.3854 205.293 23.2925L207 21.5863V17.7325L203.663 19.6588L202.966 22.2588C202.909 22.4715 202.784 22.6594 202.609 22.7934C202.434 22.9275 202.22 23.0001 202 23C201.913 22.9998 201.826 22.9884 201.741 22.9662C201.614 22.9323 201.495 22.8737 201.391 22.7937C201.287 22.7138 201.199 22.6141 201.134 22.5003C201.068 22.3866 201.025 22.261 201.008 22.1307C200.991 22.0005 201 21.8681 201.034 21.7412L201.599 19.6325L199.664 18.9425C199.414 18.8533 199.209 18.6685 199.096 18.4287C198.982 18.1889 198.968 17.9137 199.058 17.6637C199.147 17.4138 199.332 17.2095 199.571 17.0958C199.811 16.9821 200.086 16.9683 200.336 17.0575L202.704 17.9025L206 16L202.704 14.0975L200.336 14.9425C200.228 14.9804 200.115 14.9998 200 15C199.764 15.0005 199.535 14.9175 199.355 14.7657C199.174 14.6139 199.053 14.4031 199.013 14.1706C198.972 13.938 199.016 13.6988 199.135 13.4951C199.254 13.2914 199.441 13.1364 199.664 13.0575L201.599 12.3675L201.034 10.2587C200.965 10.0025 201.001 9.72945 201.134 9.49972C201.266 9.26999 201.485 9.10237 201.741 9.03375C201.998 8.96512 202.271 9.00111 202.5 9.13379C202.73 9.26648 202.898 9.48498 202.966 9.74125L203.663 12.3413L207 14.2675V10.4137L205.293 8.7075C205.105 8.51986 204.999 8.26536 204.999 8C204.999 7.73464 205.105 7.48014 205.293 7.2925C205.48 7.10486 205.735 6.99944 206 6.99944C206.265 6.99944 206.52 7.10486 206.708 7.2925L208 8.58625L209.293 7.2925C209.385 7.19959 209.496 7.12589 209.617 7.07561C209.739 7.02532 209.869 6.99944 210 6.99944C210.131 6.99944 210.262 7.02532 210.383 7.07561C210.504 7.12589 210.615 7.19959 210.708 7.2925C210.8 7.38541 210.874 7.49571 210.924 7.6171C210.975 7.7385 211.001 7.86861 211.001 8C211.001 8.13139 210.975 8.2615 210.924 8.3829C210.874 8.50429 210.8 8.61459 210.708 8.7075L209 10.4137V14.2675L212.338 12.3413L213.034 9.74125C213.102 9.48498 213.27 9.26648 213.5 9.13379C213.729 9.00111 214.002 8.96512 214.259 9.03375C214.515 9.10237 214.734 9.26999 214.866 9.49972C214.999 9.72945 215.035 10.0025 214.966 10.2587L214.401 12.3675L216.336 13.0575C216.559 13.1364 216.746 13.2914 216.865 13.4951C216.984 13.6988 217.028 13.938 216.987 14.1706C216.947 14.4031 216.826 14.6139 216.645 14.7657C216.465 14.9175 216.236 15.0005 216 15C215.885 14.9998 215.772 14.9804 215.664 14.9425L213.296 14.0975L210 16L213.296 17.9025Z" fill="currentColor"/>
<path opacity="0.2" d="M267.5 16C267.5 18.2745 266.826 20.4979 265.562 22.3891C264.298 24.2802 262.502 25.7542 260.401 26.6246C258.3 27.495 255.987 27.7228 253.756 27.279C251.526 26.8353 249.477 25.74 247.868 24.1317C246.26 22.5234 245.165 20.4743 244.721 18.2435C244.277 16.0128 244.505 13.7005 245.375 11.5991C246.246 9.49779 247.72 7.70174 249.611 6.4381C251.502 5.17446 253.726 4.5 256 4.5C259.049 4.50331 261.972 5.71597 264.128 7.87193C266.284 10.0279 267.497 12.951 267.5 16Z" fill="currentColor"/>
<path d="M267.971 18.7613C268.003 18.8889 268.009 19.0213 267.989 19.1512C267.969 19.281 267.924 19.4057 267.856 19.5181C267.788 19.6304 267.698 19.7283 267.592 19.8061C267.486 19.8838 267.366 19.94 267.239 19.9713L264.159 20.7213L264.966 23.7351C265 23.862 265.009 23.9943 264.992 24.1246C264.975 24.2548 264.932 24.3804 264.866 24.4942C264.801 24.6079 264.713 24.7076 264.609 24.7876C264.505 24.8675 264.386 24.9261 264.259 24.9601C264.175 24.9843 264.088 24.9978 264 25.0001C263.78 24.9999 263.566 24.9271 263.392 24.7931C263.217 24.6591 263.092 24.4713 263.035 24.2588L262.07 20.6588L257 17.7326V23.5863L259.707 26.2926C259.8 26.3855 259.874 26.4958 259.924 26.6172C259.975 26.7386 260.001 26.8687 260.001 27.0001C260.001 27.1315 259.975 27.2616 259.924 27.383C259.874 27.5044 259.8 27.6147 259.707 27.7076C259.615 27.8005 259.504 27.8742 259.383 27.9245C259.261 27.9747 259.131 28.0006 259 28.0006C258.869 28.0006 258.738 27.9747 258.617 27.9245C258.496 27.8742 258.385 27.8005 258.292 27.7076L256 25.4138L253.707 27.7076C253.615 27.8005 253.504 27.8742 253.383 27.9245C253.261 27.9747 253.131 28.0006 253 28.0006C252.869 28.0006 252.738 27.9747 252.617 27.9245C252.496 27.8742 252.385 27.8005 252.292 27.7076C252.2 27.6147 252.126 27.5044 252.076 27.383C252.025 27.2616 251.999 27.1315 251.999 27.0001C251.999 26.8687 252.025 26.7386 252.076 26.6172C252.126 26.4958 252.2 26.3855 252.292 26.2926L255 23.5863V17.7326L249.931 20.6588L248.966 24.2588C248.909 24.4715 248.784 24.6595 248.609 24.7935C248.434 24.9275 248.22 25.0001 248 25.0001C247.912 24.9999 247.825 24.9886 247.74 24.9663C247.613 24.9324 247.494 24.8738 247.39 24.7938C247.286 24.7139 247.198 24.6142 247.132 24.5004C247.067 24.3866 247.024 24.2611 247.007 24.1308C246.99 24.0006 246.998 23.8682 247.032 23.7413L247.84 20.7276L244.76 19.9776C244.502 19.9142 244.28 19.7512 244.143 19.5243C244.006 19.2974 243.964 19.0252 244.027 18.7676C244.091 18.51 244.254 18.2881 244.481 18.1507C244.708 18.0133 244.98 17.9717 245.237 18.0351L248.919 18.9388L254 16.0001L248.92 13.0676L245.239 13.9713C245.161 13.9907 245.08 14.0003 245 14.0001C244.755 14.0002 244.519 13.9108 244.336 13.7487C244.153 13.5866 244.036 13.363 244.007 13.1203C243.977 12.8776 244.038 12.6325 244.177 12.4313C244.316 12.2302 244.524 12.087 244.761 12.0288L247.841 11.2788L247.034 8.25882C246.965 8.00255 247.001 7.72952 247.134 7.49979C247.266 7.27006 247.485 7.10244 247.741 7.03382C247.997 6.96519 248.27 7.00118 248.5 7.13386C248.73 7.26654 248.898 7.48505 248.966 7.74132L249.931 11.3413L255 14.2676V8.41382L252.292 5.70757C252.105 5.51993 251.999 5.26543 251.999 5.00007C251.999 4.86867 252.025 4.73856 252.076 4.61717C252.126 4.49578 252.2 4.38548 252.292 4.29257C252.385 4.19966 252.496 4.12596 252.617 4.07567C252.738 4.02539 252.869 3.99951 253 3.99951C253.265 3.99951 253.52 4.10493 253.707 4.29257L256 6.58632L258.292 4.29257C258.48 4.10493 258.735 3.99951 259 3.99951C259.265 3.99951 259.52 4.10493 259.707 4.29257C259.895 4.48021 260.001 4.7347 260.001 5.00007C260.001 5.26543 259.895 5.51993 259.707 5.70757L257 8.41382V14.2676L262.069 11.3413L263.034 7.74132C263.102 7.48505 263.27 7.26654 263.5 7.13386C263.729 7.00118 264.002 6.96519 264.259 7.03382C264.515 7.10244 264.733 7.27006 264.866 7.49979C264.999 7.72952 265.035 8.00255 264.966 8.25882L264.159 11.2726L267.239 12.0226C267.483 12.0747 267.699 12.2162 267.844 12.4194C267.989 12.6225 268.053 12.8726 268.023 13.1204C267.993 13.3682 267.871 13.5959 267.682 13.7586C267.493 13.9214 267.249 14.0075 267 14.0001C266.919 14.0003 266.839 13.9907 266.761 13.9713L263.08 13.0676L258 16.0001L263.08 18.9326L266.761 18.0288C266.889 17.9974 267.021 17.9915 267.151 18.0113C267.281 18.0312 267.406 18.0764 267.518 18.1444C267.63 18.2124 267.728 18.3019 267.806 18.4078C267.884 18.5136 267.94 18.6338 267.971 18.7613Z" fill="currentColor"/>
</g>
<defs>
<clipPath id="clip0_17_5077">
<rect width="272" height="32" rx="5" fill="white"/>
</clipPath>
</defs>
</svg>
