<svg width="272" height="32" viewBox="0 0 272 32" fill="none" xmlns="http://www.w3.org/2000/svg">
<g clip-path="url(#clip0_17_5063)">
<path d="M24.6976 16.1325L18.2463 13.7575L15.8713 7.30125C15.7307 6.91916 15.4762 6.58941 15.1423 6.35648C14.8083 6.12356 14.411 5.99867 14.0038 5.99867C13.5967 5.99867 13.1993 6.12356 12.8654 6.35648C12.5314 6.58941 12.277 6.91916 12.1363 7.30125L9.75883 13.75L3.30258 16.125C2.92049 16.2656 2.59074 16.5201 2.35781 16.854C2.12489 17.188 2 17.5853 2 17.9925C2 18.3997 2.12489 18.797 2.35781 19.131C2.59074 19.4649 2.92049 19.7194 3.30258 19.86L9.75008 22.25L12.1251 28.7025C12.2657 29.0846 12.5202 29.4143 12.8541 29.6473C13.1881 29.8802 13.5854 30.0051 13.9926 30.0051C14.3997 30.0051 14.7971 29.8802 15.131 29.6473C15.465 29.4143 15.7194 29.0846 15.8601 28.7025L18.2351 22.2512L24.6913 19.8762C25.0734 19.7356 25.4032 19.4811 25.6361 19.1472C25.869 18.8133 25.9939 18.4159 25.9939 18.0088C25.9939 17.6016 25.869 17.2042 25.6361 16.8703C25.4032 16.5364 25.0734 16.2819 24.6913 16.1413L24.6976 16.1325ZM17.5488 20.375C17.2786 20.4742 17.0332 20.631 16.8296 20.8345C16.6261 21.0381 16.4693 21.2835 16.3701 21.5537L13.9951 27.9862L11.6251 21.5487C11.5258 21.2799 11.3695 21.0358 11.1669 20.8332C10.9643 20.6306 10.7201 20.4743 10.4513 20.375L4.01883 18L10.4513 15.625C10.7201 15.5257 10.9643 15.3694 11.1669 15.1668C11.3695 14.9642 11.5258 14.7201 11.6251 14.4513L14.0001 8.01875L16.3751 14.4513C16.4743 14.7215 16.6311 14.9669 16.8346 15.1705C17.0382 15.374 17.2836 15.5308 17.5538 15.63L23.9863 18.005L17.5488 20.375ZM18.0001 5C18.0001 4.73478 18.1054 4.48043 18.293 4.29289C18.4805 4.10536 18.7349 4 19.0001 4H21.0001V2C21.0001 1.73478 21.1054 1.48043 21.293 1.29289C21.4805 1.10536 21.7349 1 22.0001 1C22.2653 1 22.5197 1.10536 22.7072 1.29289C22.8947 1.48043 23.0001 1.73478 23.0001 2V4H25.0001C25.2653 4 25.5197 4.10536 25.7072 4.29289C25.8947 4.48043 26.0001 4.73478 26.0001 5C26.0001 5.26522 25.8947 5.51957 25.7072 5.70711C25.5197 5.89464 25.2653 6 25.0001 6H23.0001V8C23.0001 8.26522 22.8947 8.51957 22.7072 8.70711C22.5197 8.89464 22.2653 9 22.0001 9C21.7349 9 21.4805 8.89464 21.293 8.70711C21.1054 8.51957 21.0001 8.26522 21.0001 8V6H19.0001C18.7349 6 18.4805 5.89464 18.293 5.70711C18.1054 5.51957 18.0001 5.26522 18.0001 5ZM31.0001 11C31.0001 11.2652 30.8947 11.5196 30.7072 11.7071C30.5197 11.8946 30.2653 12 30.0001 12H29.0001V13C29.0001 13.2652 28.8947 13.5196 28.7072 13.7071C28.5197 13.8946 28.2653 14 28.0001 14C27.7349 14 27.4805 13.8946 27.293 13.7071C27.1054 13.5196 27.0001 13.2652 27.0001 13V12H26.0001C25.7349 12 25.4805 11.8946 25.293 11.7071C25.1054 11.5196 25.0001 11.2652 25.0001 11C25.0001 10.7348 25.1054 10.4804 25.293 10.2929C25.4805 10.1054 25.7349 10 26.0001 10H27.0001V9C27.0001 8.73478 27.1054 8.48043 27.293 8.29289C27.4805 8.10536 27.7349 8 28.0001 8C28.2653 8 28.5197 8.10536 28.7072 8.29289C28.8947 8.48043 29.0001 8.73478 29.0001 9V10H30.0001C30.2653 10 30.5197 10.1054 30.7072 10.2929C30.8947 10.4804 31.0001 10.7348 31.0001 11Z" fill="currentColor"/>
<path d="M72.525 16.6012L66.0675 14.2262C66.0011 14.2018 65.9407 14.1632 65.8906 14.1131C65.8406 14.0631 65.802 14.0027 65.7775 13.9362L63.4025 7.47875C63.2969 7.19289 63.1061 6.94627 62.8561 6.77209C62.606 6.59791 62.3085 6.50453 62.0038 6.50453C61.699 6.50453 61.4016 6.59791 61.1515 6.77209C60.9014 6.94627 60.7107 7.19289 60.605 7.47875L58.23 13.9362C58.2056 14.0027 58.167 14.0631 58.1169 14.1131C58.0668 14.1632 58.0065 14.2018 57.94 14.2262L51.4825 16.6012C51.1967 16.7069 50.95 16.8976 50.7759 17.1477C50.6017 17.3978 50.5083 17.6952 50.5083 18C50.5083 18.3048 50.6017 18.6022 50.7759 18.8523C50.95 19.1024 51.1967 19.2931 51.4825 19.3988L57.94 21.7738C58.0065 21.7982 58.0668 21.8368 58.1169 21.8869C58.167 21.9369 58.2056 21.9973 58.23 22.0637L60.605 28.5212C60.7107 28.8071 60.9014 29.0537 61.1515 29.2279C61.4016 29.4021 61.699 29.4955 62.0038 29.4955C62.3085 29.4955 62.606 29.4021 62.8561 29.2279C63.1061 29.0537 63.2969 28.8071 63.4025 28.5212L65.7775 22.0637C65.802 21.9973 65.8406 21.9369 65.8906 21.8869C65.9407 21.8368 66.0011 21.7982 66.0675 21.7738L72.525 19.3988C72.8109 19.2931 73.0575 19.1024 73.2317 18.8523C73.4059 18.6022 73.4992 18.3048 73.4992 18C73.4992 17.6952 73.4059 17.3978 73.2317 17.1477C73.0575 16.8976 72.8109 16.7069 72.525 16.6012ZM72.1788 18.46L65.7225 20.835C65.52 20.9096 65.3362 21.0272 65.1836 21.1798C65.031 21.3324 64.9134 21.5163 64.8388 21.7188L62.4638 28.175C62.4292 28.2692 62.3665 28.3505 62.2843 28.4079C62.202 28.4654 62.1041 28.4962 62.0038 28.4962C61.9034 28.4962 61.8055 28.4654 61.7233 28.4079C61.641 28.3505 61.5783 28.2692 61.5438 28.175L59.1688 21.7188C59.0942 21.5163 58.9765 21.3324 58.8239 21.1798C58.6714 21.0272 58.4875 20.9096 58.285 20.835L51.8288 18.46C51.7346 18.4254 51.6533 18.3628 51.5958 18.2805C51.5384 18.1982 51.5076 18.1003 51.5076 18C51.5076 17.8997 51.5384 17.8018 51.5958 17.7195C51.6533 17.6372 51.7346 17.5746 51.8288 17.54L58.285 15.165C58.4875 15.0904 58.6714 14.9728 58.8239 14.8202C58.9765 14.6676 59.0942 14.4837 59.1688 14.2812L61.5438 7.825C61.5783 7.73081 61.641 7.6495 61.7233 7.59206C61.8055 7.53462 61.9034 7.50382 62.0038 7.50382C62.1041 7.50382 62.202 7.53462 62.2843 7.59206C62.3665 7.6495 62.4292 7.73081 62.4638 7.825L64.8388 14.2812C64.9134 14.4837 65.031 14.6676 65.1836 14.8202C65.3362 14.9728 65.52 15.0904 65.7225 15.165L72.1788 17.54C72.273 17.5746 72.3543 17.6372 72.4117 17.7195C72.4691 17.8018 72.4999 17.8997 72.4999 18C72.4999 18.1003 72.4691 18.1982 72.4117 18.2805C72.3543 18.3628 72.273 18.4254 72.1788 18.46ZM66.5 5C66.5 4.86739 66.5527 4.74021 66.6465 4.64645C66.7402 4.55268 66.8674 4.5 67 4.5H69.5V2C69.5 1.86739 69.5527 1.74021 69.6465 1.64645C69.7402 1.55268 69.8674 1.5 70 1.5C70.1326 1.5 70.2598 1.55268 70.3536 1.64645C70.4473 1.74021 70.5 1.86739 70.5 2V4.5H73C73.1326 4.5 73.2598 4.55268 73.3536 4.64645C73.4473 4.74021 73.5 4.86739 73.5 5C73.5 5.13261 73.4473 5.25979 73.3536 5.35355C73.2598 5.44732 73.1326 5.5 73 5.5H70.5V8C70.5 8.13261 70.4473 8.25979 70.3536 8.35355C70.2598 8.44732 70.1326 8.5 70 8.5C69.8674 8.5 69.7402 8.44732 69.6465 8.35355C69.5527 8.25979 69.5 8.13261 69.5 8V5.5H67C66.8674 5.5 66.7402 5.44732 66.6465 5.35355C66.5527 5.25979 66.5 5.13261 66.5 5ZM78.5 11C78.5 11.1326 78.4473 11.2598 78.3536 11.3536C78.2598 11.4473 78.1326 11.5 78 11.5H76.5V13C76.5 13.1326 76.4473 13.2598 76.3536 13.3536C76.2598 13.4473 76.1326 13.5 76 13.5C75.8674 13.5 75.7402 13.4473 75.6465 13.3536C75.5527 13.2598 75.5 13.1326 75.5 13V11.5H74C73.8674 11.5 73.7402 11.4473 73.6465 11.3536C73.5527 11.2598 73.5 11.1326 73.5 11C73.5 10.8674 73.5527 10.7402 73.6465 10.6464C73.7402 10.5527 73.8674 10.5 74 10.5H75.5V9C75.5 8.86739 75.5527 8.74021 75.6465 8.64645C75.7402 8.55268 75.8674 8.5 76 8.5C76.1326 8.5 76.2598 8.55268 76.3536 8.64645C76.4473 8.74021 76.5 8.86739 76.5 9V10.5H78C78.1326 10.5 78.2598 10.5527 78.3536 10.6464C78.4473 10.7402 78.5 10.8674 78.5 11Z" fill="currentColor"/>
<path d="M120.611 16.3675L114.155 13.9925C114.122 13.9801 114.093 13.961 114.068 13.9364C114.043 13.9119 114.024 13.8825 114.011 13.85L111.636 7.3925C111.513 7.05867 111.291 6.77062 110.999 6.56716C110.707 6.3637 110.359 6.25462 110.004 6.25462C109.648 6.25462 109.301 6.3637 109.009 6.56716C108.717 6.77062 108.494 7.05867 108.371 7.3925L105.996 13.8488C105.984 13.8813 105.965 13.9109 105.94 13.9357C105.916 13.9604 105.886 13.9798 105.854 13.9925L99.3962 16.3675C99.0624 16.4906 98.7743 16.7131 98.5708 17.005C98.3674 17.2969 98.2583 17.6442 98.2583 18C98.2583 18.3558 98.3674 18.7031 98.5708 18.995C98.7743 19.2869 99.0624 19.5094 99.3962 19.6325L105.852 22.0075C105.885 22.0199 105.915 22.039 105.939 22.0636C105.964 22.0881 105.983 22.1175 105.996 22.15L108.371 28.6075C108.494 28.9413 108.717 29.2294 109.009 29.4328C109.301 29.6363 109.648 29.7454 110.004 29.7454C110.359 29.7454 110.707 29.6363 110.999 29.4328C111.291 29.2294 111.513 28.9413 111.636 28.6075L114.011 22.1513C114.024 22.1187 114.043 22.0891 114.067 22.0643C114.092 22.0396 114.121 22.0202 114.154 22.0075L120.611 19.6325C120.945 19.5094 121.233 19.2869 121.437 18.995C121.64 18.7031 121.749 18.3558 121.749 18C121.749 17.6442 121.64 17.2969 121.437 17.005C121.233 16.7131 120.945 16.4906 120.611 16.3675ZM120.092 18.225L113.635 20.6C113.399 20.6873 113.184 20.8248 113.006 21.0031C112.828 21.1813 112.691 21.3961 112.604 21.6325L110.229 28.0888C110.212 28.1347 110.181 28.1743 110.141 28.2023C110.1 28.2302 110.053 28.2452 110.004 28.2452C109.955 28.2452 109.907 28.2302 109.867 28.2023C109.826 28.1743 109.796 28.1347 109.779 28.0888L107.404 21.6313C107.316 21.3953 107.179 21.181 107.001 21.0031C106.823 20.8251 106.608 20.6876 106.372 20.6L99.9162 18.225C99.8703 18.208 99.8306 18.1773 99.8027 18.137C99.7747 18.0968 99.7597 18.049 99.7597 18C99.7597 17.951 99.7747 17.9032 99.8027 17.863C99.8306 17.8227 99.8703 17.792 99.9162 17.775L106.374 15.4C106.61 15.3127 106.825 15.1752 107.003 14.9969C107.181 14.8187 107.318 14.6039 107.405 14.3675L109.78 7.91125C109.797 7.86532 109.828 7.82571 109.868 7.79773C109.908 7.76976 109.956 7.75477 110.005 7.75477C110.054 7.75477 110.102 7.76976 110.142 7.79773C110.182 7.82571 110.213 7.86532 110.23 7.91125L112.605 14.3687C112.692 14.6051 112.83 14.8196 113.008 14.9977C113.186 15.1757 113.401 15.313 113.637 15.4L120.094 17.775C120.14 17.792 120.179 17.8227 120.207 17.863C120.235 17.9032 120.25 17.951 120.25 18C120.25 18.049 120.235 18.0968 120.207 18.137C120.179 18.1773 120.14 18.208 120.094 18.225H120.092ZM114.25 5C114.25 4.80109 114.329 4.61032 114.47 4.46967C114.61 4.32902 114.801 4.25 115 4.25H117.25V2C117.25 1.80109 117.329 1.61032 117.47 1.46967C117.61 1.32902 117.801 1.25 118 1.25C118.199 1.25 118.39 1.32902 118.53 1.46967C118.671 1.61032 118.75 1.80109 118.75 2V4.25H121C121.199 4.25 121.39 4.32902 121.53 4.46967C121.671 4.61032 121.75 4.80109 121.75 5C121.75 5.19891 121.671 5.38968 121.53 5.53033C121.39 5.67098 121.199 5.75 121 5.75H118.75V8C118.75 8.19891 118.671 8.38968 118.53 8.53033C118.39 8.67098 118.199 8.75 118 8.75C117.801 8.75 117.61 8.67098 117.47 8.53033C117.329 8.38968 117.25 8.19891 117.25 8V5.75H115C114.801 5.75 114.61 5.67098 114.47 5.53033C114.329 5.38968 114.25 5.19891 114.25 5ZM126.75 11C126.75 11.1989 126.671 11.3897 126.53 11.5303C126.39 11.671 126.199 11.75 126 11.75H124.75V13C124.75 13.1989 124.671 13.3897 124.53 13.5303C124.39 13.671 124.199 13.75 124 13.75C123.801 13.75 123.61 13.671 123.47 13.5303C123.329 13.3897 123.25 13.1989 123.25 13V11.75H122C121.801 11.75 121.61 11.671 121.47 11.5303C121.329 11.3897 121.25 11.1989 121.25 11C121.25 10.8011 121.329 10.6103 121.47 10.4697C121.61 10.329 121.801 10.25 122 10.25H123.25V9C123.25 8.80109 123.329 8.61032 123.47 8.46967C123.61 8.32902 123.801 8.25 124 8.25C124.199 8.25 124.39 8.32902 124.53 8.46967C124.671 8.61032 124.75 8.80109 124.75 9V10.25H126C126.199 10.25 126.39 10.329 126.53 10.4697C126.671 10.6103 126.75 10.8011 126.75 11Z" fill="currentColor"/>
<path d="M168.875 15.6637L162.639 13.3663L160.336 7.125C160.16 6.64722 159.842 6.23494 159.424 5.94374C159.006 5.65254 158.509 5.49642 158 5.49642C157.491 5.49642 156.994 5.65254 156.576 5.94374C156.158 6.23494 155.84 6.64722 155.664 7.125L153.366 13.3663L147.125 15.6637C146.647 15.8399 146.235 16.1583 145.944 16.5761C145.653 16.9938 145.497 17.4908 145.497 18C145.497 18.5092 145.653 19.0062 145.944 19.4239C146.235 19.8417 146.647 20.1601 147.125 20.3363L153.361 22.6338L155.664 28.875C155.84 29.3528 156.158 29.7651 156.576 30.0563C156.994 30.3475 157.491 30.5036 158 30.5036C158.509 30.5036 159.006 30.3475 159.424 30.0563C159.842 29.7651 160.16 29.3528 160.336 28.875L162.634 22.6388L168.875 20.3363C169.353 20.1601 169.765 19.8417 170.056 19.4239C170.348 19.0062 170.504 18.5092 170.504 18C170.504 17.4908 170.348 16.9938 170.056 16.5761C169.765 16.1583 169.353 15.8399 168.875 15.6637ZM161.375 19.9013C161.037 20.0256 160.73 20.2219 160.475 20.4766C160.221 20.7313 160.025 21.0382 159.9 21.3762L158 26.535L156.099 21.375C155.975 21.0373 155.778 20.7307 155.524 20.4762C155.269 20.2218 154.963 20.0256 154.625 19.9013L149.465 18L154.625 16.0987C154.963 15.9744 155.269 15.7782 155.524 15.5238C155.778 15.2693 155.975 14.9627 156.099 14.625L158 9.465L159.901 14.625C160.026 14.963 160.222 15.27 160.477 15.5247C160.731 15.7793 161.038 15.9757 161.376 16.1L166.535 18L161.375 19.9013ZM161.5 5C161.5 4.60218 161.658 4.22064 161.94 3.93934C162.221 3.65804 162.602 3.5 163 3.5H164.5V2C164.5 1.60218 164.658 1.22064 164.94 0.93934C165.221 0.658035 165.602 0.5 166 0.5C166.398 0.5 166.78 0.658035 167.061 0.93934C167.342 1.22064 167.5 1.60218 167.5 2V3.5H169C169.398 3.5 169.78 3.65804 170.061 3.93934C170.342 4.22064 170.5 4.60218 170.5 5C170.5 5.39782 170.342 5.77936 170.061 6.06066C169.78 6.34196 169.398 6.5 169 6.5H167.5V8C167.5 8.39782 167.342 8.77936 167.061 9.06066C166.78 9.34196 166.398 9.5 166 9.5C165.602 9.5 165.221 9.34196 164.94 9.06066C164.658 8.77936 164.5 8.39782 164.5 8V6.5H163C162.602 6.5 162.221 6.34196 161.94 6.06066C161.658 5.77936 161.5 5.39782 161.5 5ZM175.5 11C175.5 11.3978 175.342 11.7794 175.061 12.0607C174.78 12.342 174.398 12.5 174 12.5H173.5V13C173.5 13.3978 173.342 13.7794 173.061 14.0607C172.78 14.342 172.398 14.5 172 14.5C171.602 14.5 171.221 14.342 170.94 14.0607C170.658 13.7794 170.5 13.3978 170.5 13V12.5H170C169.602 12.5 169.221 12.342 168.94 12.0607C168.658 11.7794 168.5 11.3978 168.5 11C168.5 10.6022 168.658 10.2206 168.94 9.93934C169.221 9.65804 169.602 9.5 170 9.5H170.5V9C170.5 8.60218 170.658 8.22064 170.94 7.93934C171.221 7.65804 171.602 7.5 172 7.5C172.398 7.5 172.78 7.65804 173.061 7.93934C173.342 8.22064 173.5 8.60218 173.5 9V9.5H174C174.398 9.5 174.78 9.65804 175.061 9.93934C175.342 10.2206 175.5 10.6022 175.5 11Z" fill="currentColor"/>
<path d="M218 18C218.003 18.4077 217.879 18.8062 217.646 19.1407C217.412 19.4751 217.081 19.729 216.698 19.8675L210.241 22.2425L207.866 28.6938C207.726 29.0758 207.471 29.4056 207.137 29.6385C206.803 29.8714 206.406 29.9963 205.999 29.9963C205.592 29.9963 205.194 29.8714 204.86 29.6385C204.527 29.4056 204.272 29.0758 204.131 28.6938L201.75 22.25L195.298 19.875C194.916 19.7344 194.586 19.4799 194.353 19.146C194.12 18.812 193.995 18.4147 193.995 18.0075C193.995 17.6003 194.12 17.203 194.353 16.869C194.586 16.5351 194.916 16.2806 195.298 16.14L201.754 13.765L204.129 7.31375C204.27 6.93166 204.524 6.60191 204.858 6.36898C205.192 6.13606 205.589 6.01117 205.996 6.01117C206.404 6.01117 206.801 6.13606 207.135 6.36898C207.469 6.60191 207.723 6.93166 207.864 7.31375L210.239 13.77L216.69 16.145C217.073 16.2815 217.404 16.533 217.639 16.8651C217.873 17.1971 218 17.5935 218 18ZM211 6H213V8C213 8.26522 213.106 8.51957 213.293 8.70711C213.481 8.89464 213.735 9 214 9C214.265 9 214.52 8.89464 214.707 8.70711C214.895 8.51957 215 8.26522 215 8V6H217C217.265 6 217.52 5.89464 217.707 5.70711C217.895 5.51957 218 5.26522 218 5C218 4.73478 217.895 4.48043 217.707 4.29289C217.52 4.10536 217.265 4 217 4H215V2C215 1.73478 214.895 1.48043 214.707 1.29289C214.52 1.10536 214.265 1 214 1C213.735 1 213.481 1.10536 213.293 1.29289C213.106 1.48043 213 1.73478 213 2V4H211C210.735 4 210.481 4.10536 210.293 4.29289C210.106 4.48043 210 4.73478 210 5C210 5.26522 210.106 5.51957 210.293 5.70711C210.481 5.89464 210.735 6 211 6ZM222 10H221V9C221 8.73478 220.895 8.48043 220.707 8.29289C220.52 8.10536 220.265 8 220 8C219.735 8 219.481 8.10536 219.293 8.29289C219.106 8.48043 219 8.73478 219 9V10H218C217.735 10 217.481 10.1054 217.293 10.2929C217.106 10.4804 217 10.7348 217 11C217 11.2652 217.106 11.5196 217.293 11.7071C217.481 11.8946 217.735 12 218 12H219V13C219 13.2652 219.106 13.5196 219.293 13.7071C219.481 13.8946 219.735 14 220 14C220.265 14 220.52 13.8946 220.707 13.7071C220.895 13.5196 221 13.2652 221 13V12H222C222.265 12 222.52 11.8946 222.707 11.7071C222.895 11.5196 223 11.2652 223 11C223 10.7348 222.895 10.4804 222.707 10.2929C222.52 10.1054 222.265 10 222 10Z" fill="currentColor"/>
<path opacity="0.2" d="M264.352 18.9288L257.895 21.3038C257.76 21.353 257.638 21.431 257.537 21.5322C257.436 21.6335 257.358 21.7556 257.309 21.8901L254.934 28.3476C254.864 28.5374 254.737 28.7013 254.571 28.817C254.405 28.9327 254.207 28.9947 254.005 28.9947C253.803 28.9947 253.605 28.9327 253.439 28.817C253.273 28.7013 253.146 28.5374 253.076 28.3476L250.701 21.8901C250.652 21.7556 250.574 21.6335 250.473 21.5322C250.371 21.431 250.249 21.353 250.115 21.3038L243.657 18.9288C243.468 18.8587 243.304 18.7321 243.188 18.5661C243.072 18.4 243.01 18.2025 243.01 18.0001C243.01 17.7977 243.072 17.6001 243.188 17.4341C243.304 17.268 243.468 17.1414 243.657 17.0713L250.115 14.6963C250.249 14.6471 250.371 14.5691 250.473 14.4679C250.574 14.3666 250.652 14.2445 250.701 14.1101L253.076 7.65255C253.146 7.46268 253.273 7.29884 253.439 7.18312C253.605 7.06741 253.803 7.00537 254.005 7.00537C254.207 7.00537 254.405 7.06741 254.571 7.18312C254.737 7.29884 254.864 7.46268 254.934 7.65255L257.309 14.1101C257.358 14.2445 257.436 14.3666 257.537 14.4679C257.638 14.5691 257.76 14.6471 257.895 14.6963L264.352 17.0713C264.542 17.1414 264.706 17.268 264.822 17.4341C264.938 17.6001 265 17.7977 265 18.0001C265 18.2025 264.938 18.4 264.822 18.5661C264.706 18.7321 264.542 18.8587 264.352 18.9288Z" fill="currentColor"/>
<path d="M264.698 16.1325L258.246 13.7575L255.871 7.30125C255.731 6.91916 255.476 6.58941 255.142 6.35648C254.808 6.12356 254.411 5.99867 254.004 5.99867C253.597 5.99867 253.199 6.12356 252.865 6.35648C252.531 6.58941 252.277 6.91916 252.136 7.30125L249.759 13.75L243.303 16.125C242.92 16.2656 242.591 16.5201 242.358 16.854C242.125 17.188 242 17.5853 242 17.9925C242 18.3997 242.125 18.797 242.358 19.131C242.591 19.4649 242.92 19.7194 243.303 19.86L249.75 22.25L252.125 28.7025C252.266 29.0846 252.52 29.4143 252.854 29.6473C253.188 29.8802 253.585 30.0051 253.993 30.0051C254.4 30.0051 254.797 29.8802 255.131 29.6473C255.465 29.4143 255.719 29.0846 255.86 28.7025L258.235 22.2512L264.691 19.8762C265.073 19.7356 265.403 19.4811 265.636 19.1472C265.869 18.8133 265.994 18.4159 265.994 18.0088C265.994 17.6016 265.869 17.2042 265.636 16.8703C265.403 16.5364 265.073 16.2819 264.691 16.1413L264.698 16.1325ZM257.549 20.375C257.279 20.4742 257.033 20.631 256.83 20.8345C256.626 21.0381 256.469 21.2835 256.37 21.5537L253.995 27.9862L251.625 21.5487C251.526 21.2799 251.37 21.0358 251.167 20.8332C250.964 20.6306 250.72 20.4743 250.451 20.375L244.019 18L250.451 15.625C250.72 15.5257 250.964 15.3694 251.167 15.1668C251.37 14.9642 251.526 14.7201 251.625 14.4513L254 8.01875L256.375 14.4513C256.474 14.7215 256.631 14.9669 256.835 15.1705C257.038 15.374 257.284 15.5308 257.554 15.63L263.986 18.005L257.549 20.375ZM258 5C258 4.73478 258.105 4.48043 258.293 4.29289C258.481 4.10536 258.735 4 259 4H261V2C261 1.73478 261.105 1.48043 261.293 1.29289C261.481 1.10536 261.735 1 262 1C262.265 1 262.52 1.10536 262.707 1.29289C262.895 1.48043 263 1.73478 263 2V4H265C265.265 4 265.52 4.10536 265.707 4.29289C265.895 4.48043 266 4.73478 266 5C266 5.26522 265.895 5.51957 265.707 5.70711C265.52 5.89464 265.265 6 265 6H263V8C263 8.26522 262.895 8.51957 262.707 8.70711C262.52 8.89464 262.265 9 262 9C261.735 9 261.481 8.89464 261.293 8.70711C261.105 8.51957 261 8.26522 261 8V6H259C258.735 6 258.481 5.89464 258.293 5.70711C258.105 5.51957 258 5.26522 258 5ZM271 11C271 11.2652 270.895 11.5196 270.707 11.7071C270.52 11.8946 270.265 12 270 12H269V13C269 13.2652 268.895 13.5196 268.707 13.7071C268.52 13.8946 268.265 14 268 14C267.735 14 267.481 13.8946 267.293 13.7071C267.105 13.5196 267 13.2652 267 13V12H266C265.735 12 265.481 11.8946 265.293 11.7071C265.105 11.5196 265 11.2652 265 11C265 10.7348 265.105 10.4804 265.293 10.2929C265.481 10.1054 265.735 10 266 10H267V9C267 8.73478 267.105 8.48043 267.293 8.29289C267.481 8.10536 267.735 8 268 8C268.265 8 268.52 8.10536 268.707 8.29289C268.895 8.48043 269 8.73478 269 9V10H270C270.265 10 270.52 10.1054 270.707 10.2929C270.895 10.4804 271 10.7348 271 11Z" fill="currentColor"/>
</g>
<defs>
<clipPath id="clip0_17_5063">
<rect width="272" height="32" rx="5" fill="white"/>
</clipPath>
</defs>
</svg>
