<svg width="272" height="32" viewBox="0 0 272 32" fill="none" xmlns="http://www.w3.org/2000/svg">
<g clip-path="url(#clip0_17_5049)">
<path d="M28.6873 14.1251L20.7586 11.2501L17.8748 3.31257C17.7328 2.92982 17.4769 2.59971 17.1418 2.3666C16.8066 2.13349 16.4081 2.00854 15.9998 2.00854C15.5916 2.00854 15.1931 2.13349 14.8579 2.3666C14.5227 2.59971 14.2669 2.92982 14.1248 3.31257L11.2498 11.2413L3.31233 14.1251C2.92958 14.2671 2.59947 14.523 2.36636 14.8581C2.13325 15.1933 2.0083 15.5918 2.0083 16.0001C2.0083 16.4083 2.13325 16.8068 2.36636 17.142C2.59947 17.4772 2.92958 17.733 3.31233 17.8751L11.2411 20.7501L14.1248 28.6876C14.2669 29.0703 14.5227 29.4004 14.8579 29.6335C15.1931 29.8667 15.5916 29.9916 15.9998 29.9916C16.4081 29.9916 16.8066 29.8667 17.1418 29.6335C17.4769 29.4004 17.7328 29.0703 17.8748 28.6876L20.7586 20.7576L28.6873 17.8751C29.0701 17.733 29.4002 17.4772 29.6333 17.142C29.8664 16.8068 29.9914 16.4083 29.9914 16.0001C29.9914 15.5918 29.8664 15.1933 29.6333 14.8581C29.4002 14.523 29.0701 14.2671 28.6873 14.1251ZM20.0711 18.8751C19.7975 18.975 19.549 19.1335 19.343 19.3395C19.137 19.5455 18.9785 19.794 18.8786 20.0676L15.9998 27.9876L13.1248 20.0713C13.025 19.7966 12.8661 19.5472 12.6594 19.3405C12.4527 19.1338 12.2033 18.9749 11.9286 18.8751L4.01233 16.0001L11.9286 13.1251C12.2033 13.0252 12.4527 12.8663 12.6594 12.6597C12.8661 12.453 13.025 12.2035 13.1248 11.9288L15.9998 4.01257L18.8748 11.9288C18.9748 12.2024 19.1333 12.4509 19.3392 12.6569C19.5452 12.8629 19.7937 13.0214 20.0673 13.1213L27.9836 15.9963L20.0711 18.8751Z" fill="currentColor"/>
<path d="M76.5161 14.5963L68.5836 11.7113C68.5158 11.6867 68.4543 11.6476 68.4033 11.5966C68.3523 11.5456 68.3132 11.4841 68.2886 11.4163L65.4036 3.48382C65.2988 3.1957 65.1078 2.94682 64.8567 2.77094C64.6056 2.59507 64.3064 2.50073 63.9998 2.50073C63.6932 2.50073 63.3941 2.59507 63.1429 2.77094C62.8918 2.94682 62.7009 3.1957 62.5961 3.48382L59.7111 11.4163C59.6865 11.4841 59.6473 11.5456 59.5964 11.5966C59.5454 11.6476 59.4838 11.6867 59.4161 11.7113L51.4836 14.5963C51.1955 14.7011 50.9466 14.8921 50.7707 15.1432C50.5948 15.3943 50.5005 15.6935 50.5005 16.0001C50.5005 16.3067 50.5948 16.6058 50.7707 16.857C50.9466 17.1081 51.1955 17.299 51.4836 17.4038L59.4161 20.2888C59.4838 20.3134 59.5454 20.3526 59.5964 20.4035C59.6473 20.4545 59.6865 20.5161 59.7111 20.5838L62.5961 28.5163C62.7009 28.8044 62.8918 29.0533 63.1429 29.2292C63.3941 29.4051 63.6932 29.4994 63.9998 29.4994C64.3064 29.4994 64.6056 29.4051 64.8567 29.2292C65.1078 29.0533 65.2988 28.8044 65.4036 28.5163L68.2886 20.5838C68.3132 20.5161 68.3523 20.4545 68.4033 20.4035C68.4543 20.3526 68.5158 20.3134 68.5836 20.2888L76.5161 17.4038C76.8042 17.299 77.0531 17.1081 77.229 16.857C77.4048 16.6058 77.4992 16.3067 77.4992 16.0001C77.4992 15.6935 77.4048 15.3943 77.229 15.1432C77.0531 14.8921 76.8042 14.7011 76.5161 14.5963ZM76.1748 16.4713L68.2423 19.3551C68.037 19.4295 67.8505 19.5481 67.6961 19.7026C67.5416 19.857 67.423 20.0435 67.3486 20.2488L64.4648 28.1751C64.428 28.2683 64.3639 28.3484 64.281 28.4047C64.1981 28.4611 64.1001 28.4913 63.9998 28.4913C63.8995 28.4913 63.8016 28.4611 63.7187 28.4047C63.6357 28.3484 63.5717 28.2683 63.5348 28.1751L60.6511 20.2426C60.5766 20.0372 60.458 19.8508 60.3036 19.6963C60.1491 19.5419 59.9627 19.4233 59.7573 19.3488L51.8248 16.4651C51.7316 16.4282 51.6515 16.3642 51.5952 16.2812C51.5388 16.1983 51.5086 16.1004 51.5086 16.0001C51.5086 15.8998 51.5388 15.8018 51.5952 15.7189C51.6515 15.636 51.7316 15.5719 51.8248 15.5351L59.7573 12.6513C59.9627 12.5769 60.1491 12.4583 60.3036 12.3038C60.458 12.1494 60.5766 11.9629 60.6511 11.7576L63.5348 3.82507C63.5717 3.73181 63.6357 3.65179 63.7187 3.5954C63.8016 3.539 63.8995 3.50885 63.9998 3.50885C64.1001 3.50885 64.1981 3.539 64.281 3.5954C64.3639 3.65179 64.428 3.73181 64.4648 3.82507L67.3486 11.7576C67.423 11.9629 67.5416 12.1494 67.6961 12.3038C67.8505 12.4583 68.037 12.5769 68.2423 12.6513L76.1748 15.5351C76.2681 15.5719 76.3481 15.636 76.4045 15.7189C76.4609 15.8018 76.491 15.8998 76.491 16.0001C76.491 16.1004 76.4609 16.1983 76.4045 16.2812C76.3481 16.3642 76.2681 16.4282 76.1748 16.4651V16.4713Z" fill="currentColor"/>
<path d="M124.601 14.3613L116.67 11.4763C116.636 11.4642 116.606 11.4448 116.581 11.4195C116.555 11.3942 116.536 11.3637 116.524 11.33L113.639 3.39877C113.516 3.06239 113.294 2.77181 113 2.56647C112.707 2.36112 112.358 2.25098 112 2.25098C111.642 2.25098 111.293 2.36112 111 2.56647C110.706 2.77181 110.484 3.06239 110.361 3.39877L107.476 11.33C107.464 11.3637 107.445 11.3942 107.42 11.4195C107.394 11.4448 107.364 11.4642 107.33 11.4763L99.3988 14.3613C99.0624 14.4836 98.7718 14.7065 98.5665 14.9997C98.3611 15.2928 98.251 15.6421 98.251 16C98.251 16.358 98.3611 16.7072 98.5665 17.0004C98.7718 17.2936 99.0624 17.5164 99.3988 17.6388L107.33 20.5238C107.364 20.5359 107.394 20.5552 107.42 20.5805C107.445 20.6058 107.464 20.6364 107.476 20.67L110.361 28.6013C110.484 28.9377 110.706 29.2282 111 29.4336C111.293 29.6389 111.642 29.7491 112 29.7491C112.358 29.7491 112.707 29.6389 113 29.4336C113.294 29.2282 113.516 28.9377 113.639 28.6013L116.524 20.67C116.536 20.6364 116.555 20.6058 116.581 20.5805C116.606 20.5552 116.636 20.5359 116.67 20.5238L124.601 17.6388C124.938 17.5164 125.228 17.2936 125.434 17.0004C125.639 16.7072 125.749 16.358 125.749 16C125.749 15.6421 125.639 15.2928 125.434 14.9997C125.228 14.7065 124.938 14.4836 124.601 14.3613ZM124.089 16.2363L116.158 19.12C115.918 19.2075 115.701 19.3462 115.52 19.5265C115.34 19.7068 115.201 19.9243 115.114 20.1638L112.23 28.095C112.211 28.1401 112.179 28.1786 112.138 28.2056C112.097 28.2326 112.049 28.247 112 28.247C111.951 28.247 111.903 28.2326 111.862 28.2056C111.821 28.1786 111.789 28.1401 111.77 28.095L108.886 20.1638C108.799 19.9243 108.66 19.7068 108.48 19.5265C108.3 19.3462 108.082 19.2075 107.843 19.12L99.9113 16.23C99.8662 16.2108 99.8277 16.1788 99.8007 16.1379C99.7737 16.097 99.7593 16.049 99.7593 16C99.7593 15.951 99.7737 15.9031 99.8007 15.8622C99.8277 15.8213 99.8662 15.7892 99.9113 15.77L107.843 12.8863C108.082 12.7988 108.3 12.6601 108.48 12.4798C108.66 12.2995 108.799 12.082 108.886 11.8425L111.77 3.91127C111.789 3.86617 111.821 3.82772 111.862 3.80069C111.903 3.77366 111.951 3.75925 112 3.75925C112.049 3.75925 112.097 3.77366 112.138 3.80069C112.179 3.82772 112.211 3.86617 112.23 3.91127L115.114 11.8425C115.201 12.082 115.34 12.2995 115.52 12.4798C115.701 12.6601 115.918 12.7988 116.158 12.8863L124.089 15.77C124.134 15.7892 124.172 15.8213 124.199 15.8622C124.226 15.9031 124.241 15.951 124.241 16C124.241 16.049 124.226 16.097 124.199 16.1379C124.172 16.1788 124.134 16.2108 124.089 16.23V16.2363Z" fill="currentColor"/>
<path d="M172.857 13.6562L165.147 10.8524L162.344 3.1424C162.169 2.66123 161.85 2.24555 161.431 1.95181C161.011 1.65806 160.512 1.50049 160 1.50049C159.488 1.50049 158.988 1.65806 158.569 1.95181C158.15 2.24555 157.831 2.66123 157.656 3.1424L154.852 10.8524L147.142 13.6562C146.661 13.831 146.246 14.1498 145.952 14.5691C145.658 14.9884 145.5 15.4879 145.5 15.9999C145.5 16.5119 145.658 17.0114 145.952 17.4307C146.246 17.85 146.661 18.1688 147.142 18.3437L154.852 21.1474L157.656 28.8574C157.831 29.3386 158.15 29.7543 158.569 30.048C158.988 30.3417 159.488 30.4993 160 30.4993C160.512 30.4993 161.011 30.3417 161.431 30.048C161.85 29.7543 162.169 29.3386 162.344 28.8574L165.147 21.1474L172.857 18.3437C173.339 18.1688 173.754 17.85 174.048 17.4307C174.342 17.0114 174.499 16.5119 174.499 15.9999C174.499 15.4879 174.342 14.9884 174.048 14.5691C173.754 14.1498 173.339 13.831 172.857 13.6562ZM163.901 18.4062C163.558 18.5304 163.247 18.7285 162.989 18.9864C162.731 19.2443 162.533 19.5558 162.409 19.8987L160 26.5237L157.591 19.8987C157.467 19.5558 157.269 19.2443 157.011 18.9864C156.753 18.7285 156.442 18.5304 156.099 18.4062L149.474 15.9999L156.099 13.5912C156.442 13.4669 156.753 13.2688 157.011 13.0109C157.269 12.753 157.467 12.4416 157.591 12.0987L160 5.47365L162.409 12.0987C162.533 12.4416 162.731 12.753 162.989 13.0109C163.247 13.2688 163.558 13.4669 163.901 13.5912L170.526 15.9999L163.901 18.4062Z" fill="currentColor"/>
<path d="M222 16.0001C222.003 16.4102 221.878 16.8112 221.643 17.1472C221.408 17.4833 221.074 17.7377 220.687 17.8751L212.757 20.7588L209.875 28.6876C209.733 29.0703 209.477 29.4004 209.142 29.6335C208.807 29.8667 208.408 29.9916 208 29.9916C207.592 29.9916 207.193 29.8667 206.858 29.6335C206.523 29.4004 206.267 29.0703 206.125 28.6876L203.241 20.7501L195.312 17.8751C194.93 17.733 194.599 17.4772 194.366 17.142C194.133 16.8068 194.008 16.4083 194.008 16.0001C194.008 15.5918 194.133 15.1933 194.366 14.8581C194.599 14.523 194.93 14.2671 195.312 14.1251L203.25 11.2413L206.125 3.31257C206.267 2.92982 206.523 2.59971 206.858 2.3666C207.193 2.13349 207.592 2.00854 208 2.00854C208.408 2.00854 208.807 2.13349 209.142 2.3666C209.477 2.59971 209.733 2.92982 209.875 3.31257L212.759 11.2501L220.687 14.1251C221.074 14.2625 221.408 14.5169 221.643 14.8529C221.878 15.1889 222.003 15.5899 222 16.0001Z" fill="currentColor"/>
<path opacity="0.2" d="M268.345 16.9349L260.414 19.8187C260.277 19.8687 260.153 19.9478 260.051 20.0506C259.948 20.1533 259.869 20.2772 259.819 20.4137L256.935 28.3449C256.864 28.5363 256.736 28.7014 256.568 28.8179C256.401 28.9345 256.202 28.997 255.997 28.997C255.793 28.997 255.594 28.9345 255.426 28.8179C255.259 28.7014 255.131 28.5363 255.06 28.3449L252.181 20.4137C252.131 20.2772 252.052 20.1533 251.949 20.0506C251.847 19.9478 251.723 19.8687 251.586 19.8187L243.655 16.9349C243.464 16.8639 243.299 16.736 243.182 16.5684C243.065 16.4008 243.003 16.2016 243.003 15.9974C243.003 15.7933 243.065 15.5941 243.182 15.4265C243.299 15.2589 243.464 15.131 243.655 15.0599L251.586 12.1812C251.723 12.1312 251.847 12.0521 251.949 11.9493C252.052 11.8466 252.131 11.7226 252.181 11.5862L255.065 3.65494C255.136 3.46357 255.264 3.29851 255.431 3.18196C255.599 3.0654 255.798 3.00293 256.002 3.00293C256.207 3.00293 256.406 3.0654 256.573 3.18196C256.741 3.29851 256.869 3.46357 256.94 3.65494L259.824 11.5862C259.874 11.7226 259.953 11.8466 260.056 11.9493C260.158 12.0521 260.282 12.1312 260.419 12.1812L268.35 15.0649C268.539 15.1374 268.702 15.2658 268.817 15.4331C268.932 15.6005 268.993 15.7987 268.993 16.0017C268.992 16.2046 268.93 16.4025 268.814 16.5692C268.699 16.7359 268.535 16.8635 268.345 16.9349Z" fill="currentColor"/>
<path d="M268.687 14.1251L260.759 11.2501L257.875 3.31257C257.733 2.92982 257.477 2.59971 257.142 2.3666C256.807 2.13349 256.408 2.00854 256 2.00854C255.592 2.00854 255.193 2.13349 254.858 2.3666C254.523 2.59971 254.267 2.92982 254.125 3.31257L251.25 11.2413L243.312 14.1251C242.93 14.2671 242.599 14.523 242.366 14.8581C242.133 15.1933 242.008 15.5918 242.008 16.0001C242.008 16.4083 242.133 16.8068 242.366 17.142C242.599 17.4772 242.93 17.733 243.312 17.8751L251.241 20.7501L254.125 28.6876C254.267 29.0703 254.523 29.4004 254.858 29.6335C255.193 29.8667 255.592 29.9916 256 29.9916C256.408 29.9916 256.807 29.8667 257.142 29.6335C257.477 29.4004 257.733 29.0703 257.875 28.6876L260.759 20.7576L268.687 17.8751C269.07 17.733 269.4 17.4772 269.633 17.142C269.866 16.8068 269.991 16.4083 269.991 16.0001C269.991 15.5918 269.866 15.1933 269.633 14.8581C269.4 14.523 269.07 14.2671 268.687 14.1251ZM260.071 18.8751C259.797 18.975 259.549 19.1335 259.343 19.3395C259.137 19.5455 258.979 19.794 258.879 20.0676L256 27.9876L253.125 20.0713C253.025 19.7966 252.866 19.5472 252.659 19.3405C252.453 19.1338 252.203 18.9749 251.929 18.8751L244.012 16.0001L251.929 13.1251C252.203 13.0252 252.453 12.8663 252.659 12.6597C252.866 12.453 253.025 12.2035 253.125 11.9288L256 4.01257L258.875 11.9288C258.975 12.2024 259.133 12.4509 259.339 12.6569C259.545 12.8629 259.794 13.0214 260.067 13.1213L267.984 15.9963L260.071 18.8751Z" fill="currentColor"/>
</g>
<defs>
<clipPath id="clip0_17_5049">
<rect width="272" height="32" rx="5" fill="white"/>
</clipPath>
</defs>
</svg>
