<svg width="272" height="32" viewBox="0 0 272 32" fill="none" xmlns="http://www.w3.org/2000/svg">
<g clip-path="url(#clip0_17_5021)">
<path d="M15 5V4C15 3.73478 15.1054 3.48043 15.2929 3.29289C15.4804 3.10536 15.7348 3 16 3C16.2652 3 16.5196 3.10536 16.7071 3.29289C16.8946 3.48043 17 3.73478 17 4V5C17 5.26522 16.8946 5.51957 16.7071 5.70711C16.5196 5.89464 16.2652 6 16 6C15.7348 6 15.4804 5.89464 15.2929 5.70711C15.1054 5.51957 15 5.26522 15 5ZM24 16C24 17.5823 23.5308 19.129 22.6518 20.4446C21.7727 21.7602 20.5233 22.7855 19.0615 23.391C17.5997 23.9965 15.9911 24.155 14.4393 23.8463C12.8874 23.5376 11.462 22.7757 10.3431 21.6569C9.22433 20.538 8.4624 19.1126 8.15372 17.5607C7.84504 16.0089 8.00346 14.4003 8.60896 12.9385C9.21447 11.4767 10.2398 10.2273 11.5554 9.34824C12.871 8.46919 14.4177 8 16 8C18.121 8.00232 20.1545 8.84591 21.6543 10.3457C23.1541 11.8455 23.9977 13.879 24 16ZM22 16C22 14.8133 21.6481 13.6533 20.9888 12.6666C20.3295 11.6799 19.3925 10.9108 18.2961 10.4567C17.1997 10.0026 15.9933 9.88378 14.8295 10.1153C13.6656 10.3468 12.5965 10.9182 11.7574 11.7574C10.9182 12.5965 10.3468 13.6656 10.1153 14.8295C9.88378 15.9933 10.0026 17.1997 10.4567 18.2961C10.9108 19.3925 11.6799 20.3295 12.6666 20.9888C13.6533 21.6481 14.8133 22 16 22C17.5908 21.9983 19.116 21.3657 20.2408 20.2408C21.3657 19.116 21.9983 17.5908 22 16ZM7.2925 8.7075C7.48014 8.89514 7.73464 9.00056 8 9.00056C8.26536 9.00056 8.51986 8.89514 8.7075 8.7075C8.89514 8.51986 9.00056 8.26536 9.00056 8C9.00056 7.73464 8.89514 7.48014 8.7075 7.2925L7.7075 6.2925C7.51986 6.10486 7.26536 5.99944 7 5.99944C6.73464 5.99944 6.48014 6.10486 6.2925 6.2925C6.10486 6.48014 5.99944 6.73464 5.99944 7C5.99944 7.26536 6.10486 7.51986 6.2925 7.7075L7.2925 8.7075ZM7.2925 23.2925L6.2925 24.2925C6.10486 24.4801 5.99944 24.7346 5.99944 25C5.99944 25.2654 6.10486 25.5199 6.2925 25.7075C6.48014 25.8951 6.73464 26.0006 7 26.0006C7.26536 26.0006 7.51986 25.8951 7.7075 25.7075L8.7075 24.7075C8.80041 24.6146 8.87411 24.5043 8.92439 24.3829C8.97468 24.2615 9.00056 24.1314 9.00056 24C9.00056 23.8686 8.97468 23.7385 8.92439 23.6171C8.87411 23.4957 8.80041 23.3854 8.7075 23.2925C8.61459 23.1996 8.50429 23.1259 8.3829 23.0756C8.2615 23.0253 8.13139 22.9994 8 22.9994C7.86861 22.9994 7.7385 23.0253 7.6171 23.0756C7.49571 23.1259 7.38541 23.1996 7.2925 23.2925ZM24 9C24.1314 9.0001 24.2615 8.97432 24.3829 8.92414C24.5042 8.87395 24.6146 8.80033 24.7075 8.7075L25.7075 7.7075C25.8951 7.51986 26.0006 7.26536 26.0006 7C26.0006 6.73464 25.8951 6.48014 25.7075 6.2925C25.5199 6.10486 25.2654 5.99944 25 5.99944C24.7346 5.99944 24.4801 6.10486 24.2925 6.2925L23.2925 7.2925C23.1525 7.43236 23.0571 7.61061 23.0185 7.80469C22.9798 7.99878 22.9996 8.19997 23.0754 8.38279C23.1511 8.56561 23.2794 8.72185 23.444 8.83172C23.6086 8.94159 23.8021 9.00016 24 9ZM24.7075 23.2925C24.5199 23.1049 24.2654 22.9994 24 22.9994C23.7346 22.9994 23.4801 23.1049 23.2925 23.2925C23.1049 23.4801 22.9994 23.7346 22.9994 24C22.9994 24.2654 23.1049 24.5199 23.2925 24.7075L24.2925 25.7075C24.3854 25.8004 24.4957 25.8741 24.6171 25.9244C24.7385 25.9747 24.8686 26.0006 25 26.0006C25.1314 26.0006 25.2615 25.9747 25.3829 25.9244C25.5043 25.8741 25.6146 25.8004 25.7075 25.7075C25.8004 25.6146 25.8741 25.5043 25.9244 25.3829C25.9747 25.2615 26.0006 25.1314 26.0006 25C26.0006 24.8686 25.9747 24.7385 25.9244 24.6171C25.8741 24.4957 25.8004 24.3854 25.7075 24.2925L24.7075 23.2925ZM5 15H4C3.73478 15 3.48043 15.1054 3.29289 15.2929C3.10536 15.4804 3 15.7348 3 16C3 16.2652 3.10536 16.5196 3.29289 16.7071C3.48043 16.8946 3.73478 17 4 17H5C5.26522 17 5.51957 16.8946 5.70711 16.7071C5.89464 16.5196 6 16.2652 6 16C6 15.7348 5.89464 15.4804 5.70711 15.2929C5.51957 15.1054 5.26522 15 5 15ZM16 26C15.7348 26 15.4804 26.1054 15.2929 26.2929C15.1054 26.4804 15 26.7348 15 27V28C15 28.2652 15.1054 28.5196 15.2929 28.7071C15.4804 28.8946 15.7348 29 16 29C16.2652 29 16.5196 28.8946 16.7071 28.7071C16.8946 28.5196 17 28.2652 17 28V27C17 26.7348 16.8946 26.4804 16.7071 26.2929C16.5196 26.1054 16.2652 26 16 26ZM28 15H27C26.7348 15 26.4804 15.1054 26.2929 15.2929C26.1054 15.4804 26 15.7348 26 16C26 16.2652 26.1054 16.5196 26.2929 16.7071C26.4804 16.8946 26.7348 17 27 17H28C28.2652 17 28.5196 16.8946 28.7071 16.7071C28.8946 16.5196 29 16.2652 29 16C29 15.7348 28.8946 15.4804 28.7071 15.2929C28.5196 15.1054 28.2652 15 28 15Z" fill="currentColor"/>
<path d="M63.5 5V4C63.5 3.86739 63.5527 3.74021 63.6464 3.64645C63.7402 3.55268 63.8674 3.5 64 3.5C64.1326 3.5 64.2598 3.55268 64.3536 3.64645C64.4473 3.74021 64.5 3.86739 64.5 4V5C64.5 5.13261 64.4473 5.25979 64.3536 5.35355C64.2598 5.44732 64.1326 5.5 64 5.5C63.8674 5.5 63.7402 5.44732 63.6464 5.35355C63.5527 5.25979 63.5 5.13261 63.5 5ZM71.5 16C71.5 17.4834 71.0601 18.9334 70.236 20.1668C69.4119 21.4001 68.2406 22.3614 66.8701 22.9291C65.4997 23.4968 63.9917 23.6453 62.5368 23.3559C61.082 23.0665 59.7456 22.3522 58.6967 21.3033C57.6478 20.2544 56.9335 18.918 56.6441 17.4632C56.3547 16.0083 56.5032 14.5003 57.0709 13.1299C57.6386 11.7594 58.5999 10.5881 59.8332 9.76398C61.0666 8.93987 62.5166 8.5 64 8.5C65.9884 8.50232 67.8947 9.29324 69.3007 10.6993C70.7068 12.1053 71.4977 14.0116 71.5 16ZM70.5 16C70.5 14.7144 70.1188 13.4577 69.4046 12.3888C68.6903 11.3199 67.6752 10.4868 66.4874 9.99478C65.2997 9.50281 63.9928 9.37409 62.7319 9.6249C61.471 9.8757 60.3128 10.4948 59.4038 11.4038C58.4948 12.3128 57.8757 13.471 57.6249 14.7319C57.3741 15.9928 57.5028 17.2997 57.9948 18.4874C58.4868 19.6752 59.3199 20.6903 60.3888 21.4046C61.4577 22.1188 62.7144 22.5 64 22.5C65.7233 22.498 67.3754 21.8126 68.594 20.594C69.8126 19.3754 70.498 17.7233 70.5 16ZM55.6462 8.35375C55.7401 8.44757 55.8673 8.50028 56 8.50028C56.1327 8.50028 56.2599 8.44757 56.3538 8.35375C56.4476 8.25993 56.5003 8.13268 56.5003 8C56.5003 7.86732 56.4476 7.74007 56.3538 7.64625L55.3538 6.64625C55.2599 6.55243 55.1327 6.49972 55 6.49972C54.8673 6.49972 54.7401 6.55243 54.6462 6.64625C54.5524 6.74007 54.4997 6.86732 54.4997 7C54.4997 7.13268 54.5524 7.25993 54.6462 7.35375L55.6462 8.35375ZM55.6462 23.6462L54.6462 24.6462C54.5524 24.7401 54.4997 24.8673 54.4997 25C54.4997 25.1327 54.5524 25.2599 54.6463 25.3538C54.7401 25.4476 54.8673 25.5003 55 25.5003C55.1327 25.5003 55.2599 25.4476 55.3538 25.3538L56.3538 24.3538C56.4476 24.2599 56.5003 24.1327 56.5003 24C56.5003 23.8673 56.4476 23.7401 56.3538 23.6462C56.2599 23.5524 56.1327 23.4997 56 23.4997C55.8673 23.4997 55.7401 23.5524 55.6462 23.6462ZM72.6462 6.64625L71.6462 7.64625C71.5524 7.74007 71.4997 7.86732 71.4997 8C71.4997 8.13268 71.5524 8.25993 71.6462 8.35375C71.7401 8.44757 71.8673 8.50028 72 8.50028C72.1327 8.50028 72.2599 8.44757 72.3538 8.35375L73.3538 7.35375C73.4002 7.3073 73.4371 7.25214 73.4622 7.19145C73.4873 7.13075 73.5003 7.0657 73.5003 7C73.5003 6.9343 73.4873 6.86925 73.4622 6.80855C73.4371 6.74786 73.4002 6.6927 73.3538 6.64625C73.3073 6.59979 73.2521 6.56294 73.1914 6.5378C73.1308 6.51266 73.0657 6.49972 73 6.49972C72.9343 6.49972 72.8692 6.51266 72.8086 6.5378C72.7479 6.56294 72.6927 6.59979 72.6462 6.64625ZM72.3538 23.6462C72.2599 23.5524 72.1327 23.4997 72 23.4997C71.8673 23.4997 71.7401 23.5524 71.6462 23.6462C71.5524 23.7401 71.4997 23.8673 71.4997 24C71.4997 24.1327 71.5524 24.2599 71.6462 24.3538L72.6462 25.3538C72.7401 25.4476 72.8673 25.5003 73 25.5003C73.1327 25.5003 73.2599 25.4476 73.3538 25.3538C73.4476 25.2599 73.5003 25.1327 73.5003 25C73.5003 24.8673 73.4476 24.7401 73.3538 24.6462L72.3538 23.6462ZM53 15.5H52C51.8674 15.5 51.7402 15.5527 51.6464 15.6464C51.5527 15.7402 51.5 15.8674 51.5 16C51.5 16.1326 51.5527 16.2598 51.6464 16.3536C51.7402 16.4473 51.8674 16.5 52 16.5H53C53.1326 16.5 53.2598 16.4473 53.3536 16.3536C53.4473 16.2598 53.5 16.1326 53.5 16C53.5 15.8674 53.4473 15.7402 53.3536 15.6464C53.2598 15.5527 53.1326 15.5 53 15.5ZM64 26.5C63.8674 26.5 63.7402 26.5527 63.6464 26.6464C63.5527 26.7402 63.5 26.8674 63.5 27V28C63.5 28.1326 63.5527 28.2598 63.6464 28.3536C63.7402 28.4473 63.8674 28.5 64 28.5C64.1326 28.5 64.2598 28.4473 64.3536 28.3536C64.4473 28.2598 64.5 28.1326 64.5 28V27C64.5 26.8674 64.4473 26.7402 64.3536 26.6464C64.2598 26.5527 64.1326 26.5 64 26.5ZM76 15.5H75C74.8674 15.5 74.7402 15.5527 74.6464 15.6464C74.5527 15.7402 74.5 15.8674 74.5 16C74.5 16.1326 74.5527 16.2598 74.6464 16.3536C74.7402 16.4473 74.8674 16.5 75 16.5H76C76.1326 16.5 76.2598 16.4473 76.3536 16.3536C76.4473 16.2598 76.5 16.1326 76.5 16C76.5 15.8674 76.4473 15.7402 76.3536 15.6464C76.2598 15.5527 76.1326 15.5 76 15.5Z" fill="currentColor"/>
<path d="M111.25 5V4C111.25 3.80109 111.329 3.61032 111.47 3.46967C111.61 3.32902 111.801 3.25 112 3.25C112.199 3.25 112.39 3.32902 112.53 3.46967C112.671 3.61032 112.75 3.80109 112.75 4V5C112.75 5.19891 112.671 5.38968 112.53 5.53033C112.39 5.67098 112.199 5.75 112 5.75C111.801 5.75 111.61 5.67098 111.47 5.53033C111.329 5.38968 111.25 5.19891 111.25 5ZM119.75 16C119.75 17.5328 119.295 19.0312 118.444 20.3057C117.592 21.5802 116.382 22.5735 114.966 23.1601C113.55 23.7466 111.991 23.9001 110.488 23.6011C108.985 23.302 107.604 22.5639 106.52 21.4801C105.436 20.3962 104.698 19.0153 104.399 17.5119C104.1 16.0086 104.253 14.4503 104.84 13.0342C105.427 11.6181 106.42 10.4077 107.694 9.55611C108.969 8.70453 110.467 8.25 112 8.25C114.055 8.25232 116.025 9.06957 117.478 10.5225C118.93 11.9754 119.748 13.9453 119.75 16ZM118.25 16C118.25 14.7639 117.883 13.5555 117.197 12.5277C116.51 11.4999 115.534 10.6988 114.392 10.2258C113.25 9.75271 111.993 9.62893 110.781 9.87009C109.568 10.1112 108.455 10.7065 107.581 11.5806C106.707 12.4547 106.111 13.5683 105.87 14.7807C105.629 15.9931 105.753 17.2497 106.226 18.3918C106.699 19.5338 107.5 20.5099 108.528 21.1967C109.555 21.8834 110.764 22.25 112 22.25C113.657 22.248 115.246 21.5889 116.417 20.4172C117.589 19.2456 118.248 17.657 118.25 16ZM103.47 8.53C103.539 8.60369 103.621 8.66279 103.713 8.70378C103.805 8.74477 103.905 8.76682 104.005 8.76859C104.106 8.77037 104.206 8.75184 104.3 8.71412C104.393 8.6764 104.478 8.62026 104.549 8.54904C104.62 8.47782 104.676 8.39299 104.714 8.2996C104.752 8.20621 104.77 8.10618 104.769 8.00548C104.767 7.90478 104.745 7.80546 104.704 7.71346C104.663 7.62146 104.604 7.53866 104.53 7.47L103.53 6.47C103.388 6.33752 103.2 6.2654 103.005 6.26883C102.811 6.27225 102.626 6.35097 102.488 6.48838C102.351 6.62579 102.272 6.81118 102.269 7.00548C102.265 7.19978 102.338 7.38783 102.47 7.53L103.47 8.53ZM103.47 23.47L102.47 24.47C102.396 24.5387 102.337 24.6215 102.296 24.7135C102.255 24.8055 102.233 24.9048 102.231 25.0055C102.23 25.1062 102.248 25.2062 102.286 25.2996C102.324 25.393 102.38 25.4778 102.451 25.549C102.522 25.6203 102.607 25.6764 102.7 25.7141C102.794 25.7518 102.894 25.7704 102.995 25.7686C103.095 25.7668 103.195 25.7448 103.287 25.7038C103.379 25.6628 103.461 25.6037 103.53 25.53L104.53 24.53C104.604 24.4613 104.663 24.3785 104.704 24.2865C104.745 24.1945 104.767 24.0952 104.769 23.9945C104.77 23.8938 104.752 23.7938 104.714 23.7004C104.676 23.607 104.62 23.5222 104.549 23.451C104.478 23.3797 104.393 23.3236 104.3 23.2859C104.206 23.2482 104.106 23.2296 104.005 23.2314C103.905 23.2332 103.805 23.2552 103.713 23.2962C103.621 23.3372 103.539 23.3963 103.47 23.47ZM120.47 6.47L119.47 7.47C119.396 7.53866 119.337 7.62146 119.296 7.71346C119.255 7.80546 119.233 7.90478 119.231 8.00548C119.23 8.10618 119.248 8.20621 119.286 8.2996C119.324 8.39299 119.38 8.47782 119.451 8.54904C119.522 8.62026 119.607 8.6764 119.7 8.71412C119.794 8.75184 119.894 8.77037 119.995 8.76859C120.095 8.76682 120.195 8.74477 120.287 8.70378C120.379 8.66279 120.461 8.60369 120.53 8.53L121.53 7.53C121.662 7.38783 121.735 7.19978 121.731 7.00548C121.728 6.81118 121.649 6.62579 121.512 6.48838C121.374 6.35097 121.189 6.27225 120.995 6.26883C120.8 6.2654 120.612 6.33752 120.47 6.47ZM120.53 23.47C120.388 23.3375 120.2 23.2654 120.005 23.2688C119.811 23.2723 119.626 23.351 119.488 23.4884C119.351 23.6258 119.272 23.8112 119.269 24.0055C119.265 24.1998 119.338 24.3878 119.47 24.53L120.47 25.53C120.612 25.6625 120.8 25.7346 120.995 25.7312C121.189 25.7277 121.374 25.649 121.512 25.5116C121.649 25.3742 121.728 25.1888 121.731 24.9945C121.735 24.8002 121.662 24.6122 121.53 24.47L120.53 23.47ZM101 15.25H100C99.8011 15.25 99.6103 15.329 99.4697 15.4697C99.329 15.6103 99.25 15.8011 99.25 16C99.25 16.1989 99.329 16.3897 99.4697 16.5303C99.6103 16.671 99.8011 16.75 100 16.75H101C101.199 16.75 101.39 16.671 101.53 16.5303C101.671 16.3897 101.75 16.1989 101.75 16C101.75 15.8011 101.671 15.6103 101.53 15.4697C101.39 15.329 101.199 15.25 101 15.25ZM112 26.25C111.801 26.25 111.61 26.329 111.47 26.4697C111.329 26.6103 111.25 26.8011 111.25 27V28C111.25 28.1989 111.329 28.3897 111.47 28.5303C111.61 28.671 111.801 28.75 112 28.75C112.199 28.75 112.39 28.671 112.53 28.5303C112.671 28.3897 112.75 28.1989 112.75 28V27C112.75 26.8011 112.671 26.6103 112.53 26.4697C112.39 26.329 112.199 26.25 112 26.25ZM124 15.25H123C122.801 15.25 122.61 15.329 122.47 15.4697C122.329 15.6103 122.25 15.8011 122.25 16C122.25 16.1989 122.329 16.3897 122.47 16.5303C122.61 16.671 122.801 16.75 123 16.75H124C124.199 16.75 124.39 16.671 124.53 16.5303C124.671 16.3897 124.75 16.1989 124.75 16C124.75 15.8011 124.671 15.6103 124.53 15.4697C124.39 15.329 124.199 15.25 124 15.25Z" fill="currentColor"/>
<path d="M158.5 4.5V4C158.5 3.60218 158.658 3.22064 158.939 2.93934C159.221 2.65804 159.602 2.5 160 2.5C160.398 2.5 160.779 2.65804 161.061 2.93934C161.342 3.22064 161.5 3.60218 161.5 4V4.5C161.5 4.89782 161.342 5.27936 161.061 5.56066C160.779 5.84196 160.398 6 160 6C159.602 6 159.221 5.84196 158.939 5.56066C158.658 5.27936 158.5 4.89782 158.5 4.5ZM168.5 16C168.5 17.6811 168.001 19.3245 167.067 20.7223C166.133 22.1202 164.806 23.2096 163.253 23.853C161.7 24.4963 159.991 24.6646 158.342 24.3367C156.693 24.0087 155.178 23.1992 153.99 22.0104C152.801 20.8217 151.991 19.3071 151.663 17.6583C151.335 16.0094 151.504 14.3004 152.147 12.7472C152.79 11.194 153.88 9.8665 155.278 8.93251C156.675 7.99852 158.319 7.5 160 7.5C162.254 7.50232 164.414 8.39859 166.008 9.99215C167.601 11.5857 168.498 13.7464 168.5 16ZM165.5 16C165.5 14.9122 165.177 13.8488 164.573 12.9444C163.969 12.0399 163.11 11.3349 162.105 10.9187C161.1 10.5024 159.994 10.3935 158.927 10.6057C157.86 10.8179 156.88 11.3417 156.111 12.1109C155.342 12.8801 154.818 13.8601 154.606 14.927C154.393 15.9939 154.502 17.0998 154.919 18.1048C155.335 19.1098 156.04 19.9687 156.944 20.5731C157.849 21.1774 158.912 21.5 160 21.5C161.458 21.4983 162.856 20.9184 163.887 19.8873C164.918 18.8562 165.498 17.4582 165.5 16ZM150.439 8.56125C150.578 8.70078 150.744 8.81146 150.926 8.88697C151.109 8.96249 151.304 9.00135 151.501 9.00135C151.699 9.00135 151.894 8.96249 152.076 8.88697C152.259 8.81146 152.424 8.70078 152.564 8.56125C152.703 8.42172 152.814 8.25607 152.889 8.07377C152.965 7.89147 153.004 7.69607 153.004 7.49875C153.004 7.30143 152.965 7.10603 152.889 6.92373C152.814 6.74143 152.703 6.57578 152.564 6.43625L152.064 5.93625C151.782 5.65446 151.4 5.49615 151.001 5.49615C150.603 5.49615 150.221 5.65446 149.939 5.93625C149.657 6.21804 149.499 6.60024 149.499 6.99875C149.499 7.39726 149.657 7.77946 149.939 8.06125L150.439 8.56125ZM150.439 23.4363L149.939 23.9363C149.799 24.0758 149.689 24.2414 149.613 24.4237C149.538 24.606 149.499 24.8014 149.499 24.9988C149.499 25.1961 149.538 25.3915 149.613 25.5738C149.689 25.7561 149.799 25.9217 149.939 26.0613C150.221 26.343 150.603 26.5014 151.001 26.5014C151.199 26.5014 151.394 26.4625 151.576 26.387C151.759 26.3115 151.924 26.2008 152.064 26.0613L152.564 25.5613C152.846 25.2795 153.004 24.8973 153.004 24.4988C153.004 24.1002 152.846 23.718 152.564 23.4363C152.282 23.1545 151.9 22.9961 151.501 22.9961C151.103 22.9961 150.721 23.1545 150.439 23.4363ZM168.5 9C168.697 9.00015 168.892 8.96149 169.074 8.8862C169.256 8.81092 169.422 8.7005 169.561 8.56125L170.061 8.06125C170.343 7.77946 170.501 7.39726 170.501 6.99875C170.501 6.60024 170.343 6.21804 170.061 5.93625C169.779 5.65446 169.397 5.49615 168.999 5.49615C168.6 5.49615 168.218 5.65446 167.936 5.93625L167.436 6.43625C167.225 6.64605 167.081 6.91388 167.023 7.20567C166.965 7.49745 166.994 7.80002 167.108 8.07487C167.222 8.34973 167.416 8.58445 167.663 8.74919C167.911 8.91392 168.202 9.00123 168.5 9ZM169.561 23.4387C169.279 23.157 168.897 22.9986 168.499 22.9986C168.1 22.9986 167.718 23.157 167.436 23.4387C167.154 23.7205 166.996 24.1027 166.996 24.5012C166.996 24.8998 167.154 25.282 167.436 25.5637L167.936 26.0637C168.218 26.3455 168.6 26.5039 168.999 26.5039C169.397 26.5039 169.779 26.3455 170.061 26.0637C170.343 25.782 170.501 25.3998 170.501 25.0012C170.501 24.6027 170.343 24.2205 170.061 23.9387L169.561 23.4387ZM150 16C150 15.6022 149.842 15.2206 149.561 14.9393C149.279 14.658 148.898 14.5 148.5 14.5H148C147.602 14.5 147.221 14.658 146.939 14.9393C146.658 15.2206 146.5 15.6022 146.5 16C146.5 16.3978 146.658 16.7794 146.939 17.0607C147.221 17.342 147.602 17.5 148 17.5H148.5C148.898 17.5 149.279 17.342 149.561 17.0607C149.842 16.7794 150 16.3978 150 16ZM160 26C159.602 26 159.221 26.158 158.939 26.4393C158.658 26.7206 158.5 27.1022 158.5 27.5V28C158.5 28.3978 158.658 28.7794 158.939 29.0607C159.221 29.342 159.602 29.5 160 29.5C160.398 29.5 160.779 29.342 161.061 29.0607C161.342 28.7794 161.5 28.3978 161.5 28V27.5C161.5 27.1022 161.342 26.7206 161.061 26.4393C160.779 26.158 160.398 26 160 26ZM172 14.5H171.5C171.102 14.5 170.721 14.658 170.439 14.9393C170.158 15.2206 170 15.6022 170 16C170 16.3978 170.158 16.7794 170.439 17.0607C170.721 17.342 171.102 17.5 171.5 17.5H172C172.398 17.5 172.779 17.342 173.061 17.0607C173.342 16.7794 173.5 16.3978 173.5 16C173.5 15.6022 173.342 15.2206 173.061 14.9393C172.779 14.658 172.398 14.5 172 14.5Z" fill="currentColor"/>
<path d="M207 5V4C207 3.73478 207.105 3.48043 207.293 3.29289C207.48 3.10536 207.735 3 208 3C208.265 3 208.52 3.10536 208.707 3.29289C208.895 3.48043 209 3.73478 209 4V5C209 5.26522 208.895 5.51957 208.707 5.70711C208.52 5.89464 208.265 6 208 6C207.735 6 207.48 5.89464 207.293 5.70711C207.105 5.51957 207 5.26522 207 5ZM208 8C206.418 8 204.871 8.46919 203.555 9.34824C202.24 10.2273 201.214 11.4767 200.609 12.9385C200.003 14.4003 199.845 16.0089 200.154 17.5607C200.462 19.1126 201.224 20.538 202.343 21.6569C203.462 22.7757 204.887 23.5376 206.439 23.8463C207.991 24.155 209.6 23.9965 211.061 23.391C212.523 22.7855 213.773 21.7602 214.652 20.4446C215.531 19.129 216 17.5823 216 16C215.998 13.879 215.154 11.8455 213.654 10.3457C212.155 8.84591 210.121 8.00232 208 8ZM199.293 8.7075C199.48 8.89514 199.735 9.00056 200 9.00056C200.265 9.00056 200.52 8.89514 200.708 8.7075C200.895 8.51986 201.001 8.26536 201.001 8C201.001 7.73464 200.895 7.48014 200.708 7.2925L199.707 6.2925C199.52 6.10486 199.265 5.99944 199 5.99944C198.735 5.99944 198.48 6.10486 198.293 6.2925C198.105 6.48014 197.999 6.73464 197.999 7C197.999 7.26536 198.105 7.51986 198.293 7.7075L199.293 8.7075ZM199.293 23.2925L198.293 24.2925C198.105 24.4801 197.999 24.7346 197.999 25C197.999 25.2654 198.105 25.5199 198.293 25.7075C198.48 25.8951 198.735 26.0006 199 26.0006C199.265 26.0006 199.52 25.8951 199.707 25.7075L200.708 24.7075C200.8 24.6146 200.874 24.5043 200.924 24.3829C200.975 24.2615 201.001 24.1314 201.001 24C201.001 23.8686 200.975 23.7385 200.924 23.6171C200.874 23.4957 200.8 23.3854 200.708 23.2925C200.615 23.1996 200.504 23.1259 200.383 23.0756C200.262 23.0253 200.131 22.9994 200 22.9994C199.869 22.9994 199.738 23.0253 199.617 23.0756C199.496 23.1259 199.385 23.1996 199.293 23.2925ZM216 9C216.131 9.0001 216.261 8.97432 216.383 8.92414C216.504 8.87395 216.615 8.80033 216.708 8.7075L217.708 7.7075C217.895 7.51986 218.001 7.26536 218.001 7C218.001 6.73464 217.895 6.48014 217.708 6.2925C217.52 6.10486 217.265 5.99944 217 5.99944C216.735 5.99944 216.48 6.10486 216.292 6.2925L215.292 7.2925C215.152 7.43236 215.057 7.61061 215.018 7.80469C214.98 7.99878 215 8.19997 215.075 8.38279C215.151 8.56561 215.279 8.72185 215.444 8.83172C215.609 8.94159 215.802 9.00016 216 9ZM216.708 23.2925C216.52 23.1049 216.265 22.9994 216 22.9994C215.735 22.9994 215.48 23.1049 215.292 23.2925C215.105 23.4801 214.999 23.7346 214.999 24C214.999 24.2654 215.105 24.5199 215.292 24.7075L216.292 25.7075C216.385 25.8004 216.496 25.8741 216.617 25.9244C216.738 25.9747 216.869 26.0006 217 26.0006C217.131 26.0006 217.262 25.9747 217.383 25.9244C217.504 25.8741 217.615 25.8004 217.708 25.7075C217.8 25.6146 217.874 25.5043 217.924 25.3829C217.975 25.2615 218.001 25.1314 218.001 25C218.001 24.8686 217.975 24.7385 217.924 24.6171C217.874 24.4957 217.8 24.3854 217.708 24.2925L216.708 23.2925ZM197 15H196C195.735 15 195.48 15.1054 195.293 15.2929C195.105 15.4804 195 15.7348 195 16C195 16.2652 195.105 16.5196 195.293 16.7071C195.48 16.8946 195.735 17 196 17H197C197.265 17 197.52 16.8946 197.707 16.7071C197.895 16.5196 198 16.2652 198 16C198 15.7348 197.895 15.4804 197.707 15.2929C197.52 15.1054 197.265 15 197 15ZM208 26C207.735 26 207.48 26.1054 207.293 26.2929C207.105 26.4804 207 26.7348 207 27V28C207 28.2652 207.105 28.5196 207.293 28.7071C207.48 28.8946 207.735 29 208 29C208.265 29 208.52 28.8946 208.707 28.7071C208.895 28.5196 209 28.2652 209 28V27C209 26.7348 208.895 26.4804 208.707 26.2929C208.52 26.1054 208.265 26 208 26ZM220 15H219C218.735 15 218.48 15.1054 218.293 15.2929C218.105 15.4804 218 15.7348 218 16C218 16.2652 218.105 16.5196 218.293 16.7071C218.48 16.8946 218.735 17 219 17H220C220.265 17 220.52 16.8946 220.707 16.7071C220.895 16.5196 221 16.2652 221 16C221 15.7348 220.895 15.4804 220.707 15.2929C220.52 15.1054 220.265 15 220 15Z" fill="currentColor"/>
<path opacity="0.2" d="M263 16C263 17.3845 262.589 18.7378 261.82 19.889C261.051 21.0401 259.958 21.9373 258.679 22.4672C257.4 22.997 255.992 23.1356 254.634 22.8655C253.277 22.5954 252.029 21.9287 251.05 20.9497C250.071 19.9708 249.405 18.7235 249.135 17.3656C248.864 16.0078 249.003 14.6003 249.533 13.3212C250.063 12.0421 250.96 10.9489 252.111 10.1797C253.262 9.41054 254.616 9 256 9C257.857 9 259.637 9.7375 260.95 11.0503C262.263 12.363 263 14.1435 263 16Z" fill="currentColor"/>
<path d="M255 5V4C255 3.73478 255.105 3.48043 255.293 3.29289C255.48 3.10536 255.735 3 256 3C256.265 3 256.52 3.10536 256.707 3.29289C256.895 3.48043 257 3.73478 257 4V5C257 5.26522 256.895 5.51957 256.707 5.70711C256.52 5.89464 256.265 6 256 6C255.735 6 255.48 5.89464 255.293 5.70711C255.105 5.51957 255 5.26522 255 5ZM264 16C264 17.5823 263.531 19.129 262.652 20.4446C261.773 21.7602 260.523 22.7855 259.061 23.391C257.6 23.9965 255.991 24.155 254.439 23.8463C252.887 23.5376 251.462 22.7757 250.343 21.6569C249.224 20.538 248.462 19.1126 248.154 17.5607C247.845 16.0089 248.003 14.4003 248.609 12.9385C249.214 11.4767 250.24 10.2273 251.555 9.34824C252.871 8.46919 254.418 8 256 8C258.121 8.00232 260.155 8.84591 261.654 10.3457C263.154 11.8455 263.998 13.879 264 16ZM262 16C262 14.8133 261.648 13.6533 260.989 12.6666C260.33 11.6799 259.392 10.9108 258.296 10.4567C257.2 10.0026 255.993 9.88378 254.829 10.1153C253.666 10.3468 252.596 10.9182 251.757 11.7574C250.918 12.5965 250.347 13.6656 250.115 14.8295C249.884 15.9933 250.003 17.1997 250.457 18.2961C250.911 19.3925 251.68 20.3295 252.667 20.9888C253.653 21.6481 254.813 22 256 22C257.591 21.9983 259.116 21.3657 260.241 20.2408C261.366 19.116 261.998 17.5908 262 16ZM247.293 8.7075C247.48 8.89514 247.735 9.00056 248 9.00056C248.265 9.00056 248.52 8.89514 248.708 8.7075C248.895 8.51986 249.001 8.26536 249.001 8C249.001 7.73464 248.895 7.48014 248.708 7.2925L247.707 6.2925C247.52 6.10486 247.265 5.99944 247 5.99944C246.735 5.99944 246.48 6.10486 246.293 6.2925C246.105 6.48014 245.999 6.73464 245.999 7C245.999 7.26536 246.105 7.51986 246.293 7.7075L247.293 8.7075ZM247.293 23.2925L246.293 24.2925C246.105 24.4801 245.999 24.7346 245.999 25C245.999 25.2654 246.105 25.5199 246.293 25.7075C246.48 25.8951 246.735 26.0006 247 26.0006C247.265 26.0006 247.52 25.8951 247.707 25.7075L248.708 24.7075C248.8 24.6146 248.874 24.5043 248.924 24.3829C248.975 24.2615 249.001 24.1314 249.001 24C249.001 23.8686 248.975 23.7385 248.924 23.6171C248.874 23.4957 248.8 23.3854 248.708 23.2925C248.615 23.1996 248.504 23.1259 248.383 23.0756C248.262 23.0253 248.131 22.9994 248 22.9994C247.869 22.9994 247.738 23.0253 247.617 23.0756C247.496 23.1259 247.385 23.1996 247.293 23.2925ZM264 9C264.131 9.0001 264.261 8.97432 264.383 8.92414C264.504 8.87395 264.615 8.80033 264.708 8.7075L265.708 7.7075C265.895 7.51986 266.001 7.26536 266.001 7C266.001 6.73464 265.895 6.48014 265.708 6.2925C265.52 6.10486 265.265 5.99944 265 5.99944C264.735 5.99944 264.48 6.10486 264.292 6.2925L263.292 7.2925C263.152 7.43236 263.057 7.61061 263.018 7.80469C262.98 7.99878 263 8.19997 263.075 8.38279C263.151 8.56561 263.279 8.72185 263.444 8.83172C263.609 8.94159 263.802 9.00016 264 9ZM264.708 23.2925C264.52 23.1049 264.265 22.9994 264 22.9994C263.735 22.9994 263.48 23.1049 263.292 23.2925C263.105 23.4801 262.999 23.7346 262.999 24C262.999 24.2654 263.105 24.5199 263.292 24.7075L264.292 25.7075C264.385 25.8004 264.496 25.8741 264.617 25.9244C264.738 25.9747 264.869 26.0006 265 26.0006C265.131 26.0006 265.262 25.9747 265.383 25.9244C265.504 25.8741 265.615 25.8004 265.708 25.7075C265.8 25.6146 265.874 25.5043 265.924 25.3829C265.975 25.2615 266.001 25.1314 266.001 25C266.001 24.8686 265.975 24.7385 265.924 24.6171C265.874 24.4957 265.8 24.3854 265.708 24.2925L264.708 23.2925ZM245 15H244C243.735 15 243.48 15.1054 243.293 15.2929C243.105 15.4804 243 15.7348 243 16C243 16.2652 243.105 16.5196 243.293 16.7071C243.48 16.8946 243.735 17 244 17H245C245.265 17 245.52 16.8946 245.707 16.7071C245.895 16.5196 246 16.2652 246 16C246 15.7348 245.895 15.4804 245.707 15.2929C245.52 15.1054 245.265 15 245 15ZM256 26C255.735 26 255.48 26.1054 255.293 26.2929C255.105 26.4804 255 26.7348 255 27V28C255 28.2652 255.105 28.5196 255.293 28.7071C255.48 28.8946 255.735 29 256 29C256.265 29 256.52 28.8946 256.707 28.7071C256.895 28.5196 257 28.2652 257 28V27C257 26.7348 256.895 26.4804 256.707 26.2929C256.52 26.1054 256.265 26 256 26ZM268 15H267C266.735 15 266.48 15.1054 266.293 15.2929C266.105 15.4804 266 15.7348 266 16C266 16.2652 266.105 16.5196 266.293 16.7071C266.48 16.8946 266.735 17 267 17H268C268.265 17 268.52 16.8946 268.707 16.7071C268.895 16.5196 269 16.2652 269 16C269 15.7348 268.895 15.4804 268.707 15.2929C268.52 15.1054 268.265 15 268 15Z" fill="currentColor"/>
</g>
<defs>
<clipPath id="clip0_17_5021">
<rect width="272" height="32" rx="5" fill="white"/>
</clipPath>
</defs>
</svg>
