<svg width="272" height="32" viewBox="0 0 272 32" fill="none" xmlns="http://www.w3.org/2000/svg">
<g clip-path="url(#clip0_17_4951)">
<path d="M17 19.125V11C17 10.7348 16.8946 10.4804 16.7071 10.2929C16.5196 10.1054 16.2652 10 16 10C15.7348 10 15.4804 10.1054 15.2929 10.2929C15.1054 10.4804 15 10.7348 15 11V19.125C14.0573 19.3684 13.2358 19.9472 12.6894 20.753C12.143 21.5588 11.9092 22.5362 12.0319 23.502C12.1546 24.4678 12.6253 25.3557 13.3558 25.9993C14.0863 26.6429 15.0264 26.998 16 26.998C16.9736 26.998 17.9137 26.6429 18.6442 25.9993C19.3747 25.3557 19.8454 24.4678 19.9681 23.502C20.0908 22.5362 19.857 21.5588 19.3106 20.753C18.7642 19.9472 17.9427 19.3684 17 19.125ZM16 25C15.6044 25 15.2178 24.8827 14.8889 24.6629C14.56 24.4432 14.3036 24.1308 14.1522 23.7654C14.0009 23.3999 13.9613 22.9978 14.0384 22.6098C14.1156 22.2219 14.3061 21.8655 14.5858 21.5858C14.8655 21.3061 15.2219 21.1156 15.6098 21.0384C15.9978 20.9613 16.3999 21.0009 16.7654 21.1522C17.1308 21.3036 17.4432 21.56 17.6629 21.8889C17.8827 22.2178 18 22.6044 18 23C18 23.5304 17.7893 24.0391 17.4142 24.4142C17.0391 24.7893 16.5304 25 16 25ZM21 16.75V6C21 4.67392 20.4732 3.40215 19.5355 2.46447C18.5979 1.52678 17.3261 1 16 1C14.6739 1 13.4021 1.52678 12.4645 2.46447C11.5268 3.40215 11 4.67392 11 6V16.75C9.70615 17.7859 8.76599 19.1981 8.30946 20.7915C7.85293 22.3848 7.90256 24.0806 8.45149 25.6445C9.00043 27.2084 10.0216 28.5633 11.3738 29.5217C12.726 30.4802 14.3425 30.995 16 30.995C17.6575 30.995 19.274 30.4802 20.6262 29.5217C21.9784 28.5633 22.9996 27.2084 23.5485 25.6445C24.0974 24.0806 24.1471 22.3848 23.6905 20.7915C23.234 19.1981 22.2939 17.7859 21 16.75ZM16 29C14.7224 29.0001 13.4782 28.5924 12.4484 27.8363C11.4186 27.0801 10.6571 26.0151 10.2746 24.7961C9.8922 23.5771 9.90885 22.2678 10.3221 21.059C10.7354 19.8501 11.5238 18.8047 12.5725 18.075C12.7052 17.9823 12.8134 17.8589 12.8879 17.7152C12.9624 17.5715 13.0008 17.4118 13 17.25V6C13 5.20435 13.3161 4.44129 13.8787 3.87868C14.4413 3.31607 15.2044 3 16 3C16.7957 3 17.5587 3.31607 18.1213 3.87868C18.6839 4.44129 19 5.20435 19 6V17.25C19 17.411 19.0388 17.5696 19.1133 17.7124C19.1877 17.8551 19.2955 17.9778 19.4275 18.07C20.4784 18.799 21.2688 19.8446 21.6835 21.0545C22.0982 22.2643 22.1155 23.575 21.7328 24.7953C21.3501 26.0157 20.5875 27.0818 19.5562 27.8382C18.5249 28.5946 17.2789 29.0016 16 29Z" fill="currentColor"/>
<path d="M64.5 19.5362V11C64.5 10.8674 64.4473 10.7402 64.3536 10.6464C64.2598 10.5527 64.1326 10.5 64 10.5C63.8674 10.5 63.7402 10.5527 63.6464 10.6464C63.5527 10.7402 63.5 10.8674 63.5 11V19.5362C62.6242 19.6627 61.8288 20.1161 61.2739 20.8053C60.7189 21.4946 60.4456 22.3684 60.509 23.251C60.5724 24.1336 60.9677 24.9594 61.6154 25.5623C62.2631 26.1652 63.1151 26.5004 64 26.5004C64.8849 26.5004 65.7369 26.1652 66.3846 25.5623C67.0323 24.9594 67.4276 24.1336 67.491 23.251C67.5544 22.3684 67.2811 21.4946 66.7261 20.8053C66.1712 20.1161 65.3758 19.6627 64.5 19.5362ZM64 25.5C63.5055 25.5 63.0222 25.3534 62.6111 25.0787C62.2 24.804 61.8795 24.4135 61.6903 23.9567C61.5011 23.4999 61.4516 22.9972 61.548 22.5123C61.6445 22.0273 61.8826 21.5819 62.2322 21.2322C62.5819 20.8826 63.0273 20.6445 63.5123 20.548C63.9972 20.4516 64.4999 20.5011 64.9567 20.6903C65.4135 20.8795 65.804 21.2 66.0787 21.6111C66.3534 22.0222 66.5 22.5055 66.5 23C66.5 23.663 66.2366 24.2989 65.7678 24.7678C65.2989 25.2366 64.663 25.5 64 25.5ZM68.5 17V6C68.5 4.80653 68.0259 3.66193 67.182 2.81802C66.3381 1.97411 65.1935 1.5 64 1.5C62.8065 1.5 61.6619 1.97411 60.818 2.81802C59.9741 3.66193 59.5 4.80653 59.5 6V17C58.2407 17.9445 57.3105 19.2612 56.8411 20.7637C56.3718 22.2663 56.3871 23.8784 56.8849 25.3717C57.3827 26.865 58.3377 28.1639 59.6147 29.0843C60.8917 30.0047 62.4259 30.5 64 30.5C65.5741 30.5 67.1083 30.0047 68.3853 29.0843C69.6623 28.1639 70.6173 26.865 71.1151 25.3717C71.6129 23.8784 71.6282 22.2663 71.1589 20.7637C70.6895 19.2612 69.7593 17.9445 68.5 17ZM64 29.5C62.616 29.5001 61.2681 29.0585 60.1526 28.2394C59.037 27.4203 58.212 26.2666 57.7976 24.9461C57.3832 23.6256 57.4012 22.2073 57.8488 20.8977C58.2964 19.5881 59.1503 18.4556 60.2863 17.665C60.353 17.6184 60.4073 17.5563 60.4445 17.484C60.4818 17.4117 60.5008 17.3313 60.5 17.25V6C60.5 5.07174 60.8687 4.1815 61.5251 3.52513C62.1815 2.86875 63.0717 2.5 64 2.5C64.9283 2.5 65.8185 2.86875 66.4749 3.52513C67.1313 4.1815 67.5 5.07174 67.5 6V17.25C67.5 17.3305 67.5194 17.4098 67.5566 17.4812C67.5938 17.5526 67.6477 17.6139 67.7138 17.66C68.8519 18.4499 69.7078 19.5827 70.1569 20.8932C70.6059 22.2038 70.6244 23.6235 70.2098 24.9454C69.7952 26.2672 68.9691 27.422 67.8521 28.2413C66.735 29.0607 65.3853 29.5017 64 29.5Z" fill="currentColor"/>
<path d="M112.75 19.325V11C112.75 10.8011 112.671 10.6103 112.53 10.4697C112.39 10.329 112.199 10.25 112 10.25C111.801 10.25 111.61 10.329 111.47 10.4697C111.329 10.6103 111.25 10.8011 111.25 11V19.325C110.339 19.5109 109.53 20.0282 108.98 20.7767C108.429 21.5252 108.176 22.4515 108.269 23.3761C108.362 24.3007 108.796 25.1577 109.485 25.781C110.174 26.4042 111.071 26.7492 112 26.7492C112.929 26.7492 113.826 26.4042 114.515 25.781C115.204 25.1577 115.638 24.3007 115.731 23.3761C115.824 22.4515 115.571 21.5252 115.02 20.7767C114.47 20.0282 113.661 19.5109 112.75 19.325ZM112 25.25C111.555 25.25 111.12 25.118 110.75 24.8708C110.38 24.6236 110.092 24.2722 109.921 23.861C109.751 23.4499 109.706 22.9975 109.793 22.561C109.88 22.1246 110.094 21.7237 110.409 21.409C110.724 21.0943 111.125 20.8801 111.561 20.7932C111.998 20.7064 112.45 20.751 112.861 20.9213C113.272 21.0916 113.624 21.38 113.871 21.75C114.118 22.12 114.25 22.555 114.25 23C114.25 23.5967 114.013 24.169 113.591 24.591C113.169 25.0129 112.597 25.25 112 25.25ZM116.75 16.875V6C116.75 4.74022 116.25 3.53204 115.359 2.64124C114.468 1.75044 113.26 1.25 112 1.25C110.74 1.25 109.532 1.75044 108.641 2.64124C107.75 3.53204 107.25 4.74022 107.25 6V16.875C105.973 17.8654 105.038 19.23 104.575 20.7781C104.112 22.3262 104.144 23.9803 104.668 25.5091C105.191 27.0378 106.179 28.3647 107.494 29.3042C108.809 30.2437 110.384 30.7487 112 30.7487C113.616 30.7487 115.191 30.2437 116.506 29.3042C117.821 28.3647 118.809 27.0378 119.332 25.5091C119.856 23.9803 119.888 22.3262 119.425 20.7781C118.962 19.23 118.027 17.8654 116.75 16.875ZM112 29.25C110.671 29.2487 109.376 28.8235 108.305 28.0362C107.234 27.2489 106.441 26.1406 106.043 24.8721C105.645 23.6037 105.661 22.2413 106.09 20.983C106.519 19.7247 107.339 18.6359 108.429 17.875C108.529 17.805 108.611 17.7114 108.667 17.6025C108.723 17.4935 108.752 17.3725 108.75 17.25V6C108.75 5.13805 109.092 4.3114 109.702 3.7019C110.311 3.09241 111.138 2.75 112 2.75C112.862 2.75 113.689 3.09241 114.298 3.7019C114.908 4.3114 115.25 5.13805 115.25 6V17.25C115.25 17.3708 115.279 17.4898 115.335 17.5969C115.391 17.704 115.472 17.7959 115.571 17.865C116.666 18.6244 117.489 19.7137 117.921 20.974C118.353 22.2342 118.371 23.5995 117.972 24.8706C117.573 26.1418 116.779 27.2522 115.704 28.04C114.63 28.8278 113.332 29.2518 112 29.25Z" fill="currentColor"/>
<path d="M166.5 18.8363V7C166.5 5.27609 165.815 3.62279 164.596 2.40381C163.377 1.18482 161.724 0.5 160 0.5C158.276 0.5 156.623 1.18482 155.404 2.40381C154.185 3.62279 153.5 5.27609 153.5 7V18.8363C152.642 20.0317 152.131 21.4406 152.022 22.9079C151.913 24.3752 152.211 25.8441 152.883 27.1531C153.555 28.462 154.575 29.5604 155.83 30.3273C157.086 31.0942 158.529 31.4999 160 31.4999C161.471 31.4999 162.914 31.0942 164.17 30.3273C165.426 29.5604 166.445 28.462 167.117 27.1531C167.789 25.8441 168.087 24.3752 167.978 22.9079C167.869 21.4406 167.358 20.0317 166.5 18.8363ZM160 28.5C159.053 28.5 158.125 28.2309 157.324 27.724C156.524 27.2171 155.884 26.4933 155.479 25.6368C155.075 24.7803 154.921 23.8265 155.038 22.8863C155.154 21.9461 155.535 21.0583 156.136 20.3263C156.371 20.0541 156.5 19.7068 156.5 19.3475V7C156.5 6.07174 156.869 5.1815 157.525 4.52513C158.182 3.86875 159.072 3.5 160 3.5C160.928 3.5 161.819 3.86875 162.475 4.52513C163.131 5.1815 163.5 6.07174 163.5 7V19.3463C163.5 19.6969 163.622 20.0366 163.846 20.3062C164.453 21.0368 164.839 21.9249 164.959 22.8667C165.079 23.8085 164.929 24.7651 164.525 25.6246C164.122 26.4841 163.482 27.211 162.681 27.7202C161.879 28.2294 160.949 28.4998 160 28.5ZM163 23.5C163 24.0266 162.862 24.544 162.598 25.0001C162.335 25.4563 161.956 25.8351 161.5 26.0984C161.044 26.3618 160.527 26.5005 160 26.5006C159.474 26.5006 158.956 26.3621 158.5 26.0988C158.044 25.8355 157.665 25.4568 157.402 25.0008C157.139 24.5447 157 24.0274 157 23.5007C157 22.9741 157.139 22.4567 157.402 22.0006C157.665 21.5446 158.044 21.1658 158.5 20.9025V11.5C158.5 11.1022 158.658 10.7206 158.939 10.4393C159.221 10.158 159.602 10 160 10C160.398 10 160.779 10.158 161.061 10.4393C161.342 10.7206 161.5 11.1022 161.5 11.5V20.9025C161.956 21.1658 162.335 21.5444 162.598 22.0003C162.861 22.4563 163 22.9735 163 23.5Z" fill="currentColor"/>
<path d="M212 18.26V5C212 3.93913 211.579 2.92172 210.828 2.17157C210.078 1.42143 209.061 1 208 1C206.939 1 205.922 1.42143 205.172 2.17157C204.421 2.92172 204 3.93913 204 5V18.26C202.777 19.1116 201.858 20.3312 201.376 21.7415C200.894 23.1517 200.875 24.6789 201.321 26.1008C201.767 27.5226 202.656 28.765 203.857 29.647C205.058 30.529 206.51 31.0046 208 31.0046C209.49 31.0046 210.942 30.529 212.143 29.647C213.344 28.765 214.233 27.5226 214.679 26.1008C215.125 24.6789 215.106 23.1517 214.624 21.7415C214.142 20.3312 213.223 19.1116 212 18.26ZM208 3C208.53 3 209.039 3.21071 209.414 3.58579C209.789 3.96086 210 4.46957 210 5V10H206V5C206 4.46957 206.211 3.96086 206.586 3.58579C206.961 3.21071 207.47 3 208 3Z" fill="currentColor"/>
<path opacity="0.2" d="M260 17.25V6C260 4.93913 259.579 3.92172 258.828 3.17157C258.078 2.42143 257.061 2 256 2C254.939 2 253.922 2.42143 253.172 3.17157C252.421 3.92172 252 4.93913 252 6V17.25C250.777 18.1016 249.858 19.3212 249.376 20.7315C248.894 22.1417 248.875 23.6689 249.321 25.0908C249.767 26.5126 250.656 27.755 251.857 28.637C253.058 29.519 254.51 29.9946 256 29.9946C257.49 29.9946 258.942 29.519 260.143 28.637C261.344 27.755 262.233 26.5126 262.679 25.0908C263.125 23.6689 263.106 22.1417 262.624 20.7315C262.142 19.3212 261.223 18.1016 260 17.25ZM256 26C255.407 26 254.827 25.8241 254.333 25.4944C253.84 25.1648 253.455 24.6962 253.228 24.1481C253.001 23.5999 252.942 22.9967 253.058 22.4147C253.173 21.8328 253.459 21.2982 253.879 20.8787C254.298 20.4591 254.833 20.1734 255.415 20.0576C255.997 19.9419 256.6 20.0013 257.148 20.2284C257.696 20.4554 258.165 20.8399 258.494 21.3333C258.824 21.8266 259 22.4067 259 23C259 23.7956 258.684 24.5587 258.121 25.1213C257.559 25.6839 256.796 26 256 26Z" fill="currentColor"/>
<path d="M257 19.125V11C257 10.7348 256.895 10.4804 256.707 10.2929C256.52 10.1054 256.265 10 256 10C255.735 10 255.48 10.1054 255.293 10.2929C255.105 10.4804 255 10.7348 255 11V19.125C254.057 19.3684 253.236 19.9472 252.689 20.753C252.143 21.5588 251.909 22.5362 252.032 23.502C252.155 24.4678 252.625 25.3557 253.356 25.9993C254.086 26.6429 255.026 26.998 256 26.998C256.974 26.998 257.914 26.6429 258.644 25.9993C259.375 25.3557 259.845 24.4678 259.968 23.502C260.091 22.5362 259.857 21.5588 259.311 20.753C258.764 19.9472 257.943 19.3684 257 19.125ZM256 25C255.604 25 255.218 24.8827 254.889 24.6629C254.56 24.4432 254.304 24.1308 254.152 23.7654C254.001 23.3999 253.961 22.9978 254.038 22.6098C254.116 22.2219 254.306 21.8655 254.586 21.5858C254.865 21.3061 255.222 21.1156 255.61 21.0384C255.998 20.9613 256.4 21.0009 256.765 21.1522C257.131 21.3036 257.443 21.56 257.663 21.8889C257.883 22.2178 258 22.6044 258 23C258 23.5304 257.789 24.0391 257.414 24.4142C257.039 24.7893 256.53 25 256 25ZM261 16.75V6C261 4.67392 260.473 3.40215 259.536 2.46447C258.598 1.52678 257.326 1 256 1C254.674 1 253.402 1.52678 252.464 2.46447C251.527 3.40215 251 4.67392 251 6V16.75C249.706 17.7859 248.766 19.1981 248.309 20.7915C247.853 22.3848 247.903 24.0806 248.451 25.6445C249 27.2084 250.022 28.5633 251.374 29.5217C252.726 30.4802 254.343 30.995 256 30.995C257.657 30.995 259.274 30.4802 260.626 29.5217C261.978 28.5633 263 27.2084 263.549 25.6445C264.097 24.0806 264.147 22.3848 263.691 20.7915C263.234 19.1981 262.294 17.7859 261 16.75ZM256 29C254.722 29.0001 253.478 28.5924 252.448 27.8363C251.419 27.0801 250.657 26.0151 250.275 24.7961C249.892 23.5771 249.909 22.2678 250.322 21.059C250.735 19.8501 251.524 18.8047 252.573 18.075C252.705 17.9823 252.813 17.8589 252.888 17.7152C252.962 17.5715 253.001 17.4118 253 17.25V6C253 5.20435 253.316 4.44129 253.879 3.87868C254.441 3.31607 255.204 3 256 3C256.796 3 257.559 3.31607 258.121 3.87868C258.684 4.44129 259 5.20435 259 6V17.25C259 17.411 259.039 17.5696 259.113 17.7124C259.188 17.8551 259.295 17.9778 259.428 18.07C260.478 18.799 261.269 19.8446 261.684 21.0545C262.098 22.2643 262.115 23.575 261.733 24.7953C261.35 26.0157 260.588 27.0818 259.556 27.8382C258.525 28.5946 257.279 29.0016 256 29Z" fill="currentColor"/>
</g>
<defs>
<clipPath id="clip0_17_4951">
<rect width="272" height="32" rx="5" fill="white"/>
</clipPath>
</defs>
</svg>
