<svg width="272" height="32" viewBox="0 0 272 32" fill="none" xmlns="http://www.w3.org/2000/svg">
<g clip-path="url(#clip0_17_4965)">
<path d="M22.1763 10.0675C22.0261 9.84915 21.9687 9.5801 22.0167 9.31947C22.0648 9.05884 22.2143 8.82794 22.4325 8.6775C23.7325 7.78 25.7675 7.78 27.0675 8.6775C27.6925 9.11125 28.8025 9.11125 29.4325 8.6775C29.6508 8.53879 29.9144 8.49006 30.1679 8.54154C30.4213 8.59303 30.645 8.74073 30.7919 8.95362C30.9388 9.16652 30.9975 9.42805 30.9556 9.68329C30.9138 9.93854 30.7747 10.1676 30.5675 10.3225C29.8743 10.7617 29.0706 10.9949 28.25 10.9949C27.4294 10.9949 26.6257 10.7617 25.9325 10.3225C25.3075 9.88875 24.1975 9.88875 23.5675 10.3225C23.4594 10.3971 23.3377 10.4497 23.2093 10.4773C23.0808 10.5049 22.9482 10.5069 22.8191 10.4832C22.6899 10.4595 22.5666 10.4106 22.4563 10.3393C22.346 10.268 22.2508 10.1756 22.1763 10.0675ZM29.4325 12.6775C28.8075 13.1112 27.6975 13.1112 27.0675 12.6775C25.7675 11.78 23.7325 11.78 22.4325 12.6775C22.319 12.7496 22.2212 12.8439 22.1449 12.9548C22.0687 13.0656 22.0156 13.1907 21.9888 13.3225C21.962 13.4543 21.9621 13.5902 21.9891 13.7219C22.016 13.8537 22.0693 13.9787 22.1457 14.0894C22.2221 14.2002 22.32 14.2943 22.4337 14.3663C22.5473 14.4383 22.6743 14.4866 22.807 14.5084C22.9398 14.5301 23.0755 14.5249 23.2062 14.4929C23.3369 14.461 23.4598 14.403 23.5675 14.3225C24.1925 13.8888 25.3025 13.8888 25.9325 14.3225C26.6257 14.7617 27.4294 14.9949 28.25 14.9949C29.0706 14.9949 29.8743 14.7617 30.5675 14.3225C30.7747 14.1676 30.9138 13.9385 30.9556 13.6833C30.9975 13.428 30.9388 13.1665 30.7919 12.9536C30.645 12.7407 30.4213 12.593 30.1679 12.5415C29.9144 12.4901 29.6508 12.5388 29.4325 12.6775ZM19 23C18.9996 23.748 18.7895 24.481 18.3935 25.1156C17.9974 25.7502 17.4314 26.2611 16.7596 26.5902C16.0878 26.9192 15.3372 27.0533 14.5931 26.9772C13.8489 26.9011 13.141 26.6179 12.5497 26.1596C11.9584 25.7014 11.5075 25.0866 11.2481 24.3849C10.9888 23.6833 10.9313 22.923 11.0824 22.1903C11.2334 21.4577 11.5869 20.7821 12.1026 20.2402C12.6184 19.6984 13.2757 19.312 14 19.125V6C14 5.73478 14.1054 5.48043 14.2929 5.29289C14.4804 5.10536 14.7348 5 15 5C15.2652 5 15.5196 5.10536 15.7071 5.29289C15.8946 5.48043 16 5.73478 16 6V19.125C16.8583 19.3479 17.6185 19.8493 18.1613 20.5505C18.7042 21.2517 18.9992 22.1132 19 23ZM17 23C17 22.6044 16.8827 22.2178 16.6629 21.8889C16.4432 21.56 16.1308 21.3036 15.7654 21.1522C15.3999 21.0009 14.9978 20.9613 14.6098 21.0384C14.2219 21.1156 13.8655 21.3061 13.5858 21.5858C13.3061 21.8655 13.1156 22.2219 13.0384 22.6098C12.9613 22.9978 13.0009 23.3999 13.1522 23.7654C13.3036 24.1308 13.56 24.4432 13.8889 24.6629C14.2178 24.8827 14.6044 25 15 25C15.5304 25 16.0391 24.7893 16.4142 24.4142C16.7893 24.0391 17 23.5304 17 23ZM23 23C22.9992 24.3527 22.6553 25.6831 22.0006 26.8669C21.3459 28.0506 20.4017 29.049 19.2564 29.7687C18.111 30.4884 16.8018 30.906 15.4512 30.9823C14.1007 31.0586 12.7528 30.7911 11.5336 30.205C10.3145 29.6189 9.26389 28.7332 8.48003 27.6307C7.69617 26.5282 7.20467 25.245 7.05147 23.901C6.89827 22.557 7.08839 21.196 7.60404 19.9455C8.11969 18.6949 8.94403 17.5955 10 16.75V6C10 4.67392 10.5268 3.40215 11.4645 2.46447C12.4021 1.52678 13.6739 1 15 1C16.3261 1 17.5979 1.52678 18.5355 2.46447C19.4732 3.40215 20 4.67392 20 6V16.75C20.9363 17.5005 21.6919 18.4518 22.2112 19.5336C22.7305 20.6154 23 21.8 23 23ZM21 23C20.9992 22.0327 20.7649 21.0798 20.3171 20.2224C19.8692 19.3649 19.221 18.6283 18.4275 18.075C18.2948 17.9823 18.1866 17.8589 18.1121 17.7152C18.0376 17.5715 17.9992 17.4118 18 17.25V6C18 5.20435 17.6839 4.44129 17.1213 3.87868C16.5587 3.31607 15.7957 3 15 3C14.2044 3 13.4413 3.31607 12.8787 3.87868C12.3161 4.44129 12 5.20435 12 6V17.25C12 17.411 11.9612 17.5696 11.8867 17.7124C11.8123 17.8551 11.7045 17.9778 11.5725 18.07C10.7258 18.6593 10.0454 19.4568 9.59689 20.3858C9.14836 21.3147 8.9469 22.3435 9.01194 23.373C9.07699 24.4025 9.40635 25.3978 9.96822 26.2629C10.5301 27.1279 11.3055 27.8335 12.2196 28.3115C13.1337 28.7896 14.1556 29.0238 15.1866 28.9918C16.2176 28.9597 17.223 28.6623 18.1056 28.1284C18.9882 27.5945 19.7182 26.8421 20.2252 25.9437C20.7322 25.0454 20.9991 24.0315 21 23Z" fill="currentColor"/>
<path d="M70.5888 9.78375C70.5133 9.67495 70.4842 9.5407 70.5076 9.41041C70.531 9.28013 70.6052 9.16445 70.7138 9.08875C71.8538 8.30125 73.6413 8.30125 74.7813 9.08875C75.5763 9.63625 76.9188 9.63625 77.7138 9.08875C77.8229 9.01939 77.9547 8.99503 78.0814 9.02077C78.2082 9.04652 78.32 9.12036 78.3934 9.22681C78.4669 9.33326 78.4962 9.46402 78.4753 9.59165C78.4544 9.71927 78.3848 9.83382 78.2813 9.91125C77.6729 10.2967 76.9676 10.5013 76.2475 10.5013C75.5274 10.5013 74.8221 10.2967 74.2138 9.91125C73.4188 9.36375 72.0763 9.36375 71.2813 9.91125C71.1723 9.98562 71.0385 10.014 70.9088 9.99007C70.7791 9.96619 70.664 9.89203 70.5888 9.78375ZM77.7138 13.0887C76.9188 13.6362 75.5763 13.6362 74.7813 13.0887C73.6413 12.3012 71.8538 12.3012 70.7138 13.0887C70.657 13.1248 70.6081 13.172 70.57 13.2274C70.5318 13.2828 70.5053 13.3453 70.4919 13.4112C70.4785 13.4771 70.4786 13.5451 70.492 13.611C70.5055 13.6769 70.5322 13.7394 70.5704 13.7947C70.6085 13.8501 70.6575 13.8972 70.7143 13.9332C70.7712 13.9691 70.8346 13.9933 70.901 14.0042C70.9674 14.0151 71.0353 14.0124 71.1006 13.9965C71.1659 13.9805 71.2274 13.9515 71.2813 13.9113C72.0763 13.3638 73.4188 13.3638 74.2138 13.9113C74.8221 14.2967 75.5274 14.5013 76.2475 14.5013C76.9676 14.5013 77.6729 14.2967 78.2813 13.9113C78.3848 13.8338 78.4544 13.7193 78.4753 13.5916C78.4962 13.464 78.4669 13.3333 78.3934 13.2268C78.32 13.1204 78.2082 13.0465 78.0814 13.0208C77.9547 12.995 77.8229 13.0194 77.7138 13.0887ZM66.5 23C66.5001 23.6709 66.3073 24.3277 65.9447 24.8921C65.5821 25.4566 65.0648 25.9049 64.4546 26.1838C63.8444 26.4626 63.1669 26.5602 62.5028 26.4649C61.8387 26.3696 61.216 26.0854 60.7088 25.6462C60.2017 25.207 59.8314 24.6313 59.6422 23.9877C59.4529 23.344 59.4526 22.6596 59.6413 22.0158C59.8301 21.3719 60.1999 20.7959 60.7067 20.3564C61.2135 19.9168 61.836 19.6321 62.5 19.5362V6C62.5 5.86739 62.5527 5.74021 62.6464 5.64645C62.7402 5.55268 62.8674 5.5 63 5.5C63.1326 5.5 63.2598 5.55268 63.3536 5.64645C63.4473 5.74021 63.5 5.86739 63.5 6V19.5362C64.3329 19.6565 65.0947 20.0728 65.6456 20.7089C66.1966 21.3451 66.4999 22.1584 66.5 23ZM65.5 23C65.5 22.5055 65.3534 22.0222 65.0787 21.6111C64.804 21.2 64.4135 20.8795 63.9567 20.6903C63.4999 20.5011 62.9972 20.4516 62.5123 20.548C62.0273 20.6445 61.5819 20.8826 61.2322 21.2322C60.8826 21.5819 60.6445 22.0273 60.548 22.5123C60.4516 22.9972 60.5011 23.4999 60.6903 23.9567C60.8795 24.4135 61.2 24.804 61.6111 25.0787C62.0222 25.3534 62.5055 25.5 63 25.5C63.663 25.5 64.2989 25.2366 64.7678 24.7678C65.2366 24.2989 65.5 23.663 65.5 23ZM70.5 23C70.5 24.2784 70.1732 25.5356 69.5507 26.6522C68.9281 27.7688 68.0305 28.7078 66.943 29.3799C65.8555 30.052 64.6142 30.435 63.3371 30.4924C62.06 30.5499 60.7894 30.2799 59.6459 29.7082C58.5024 29.1365 57.5241 28.2819 56.8038 27.2258C56.0835 26.1696 55.6451 24.9468 55.5303 23.6735C55.4155 22.4003 55.6281 21.1188 56.1478 19.9508C56.6676 18.7828 57.4773 17.7671 58.5 17V6C58.5 4.80653 58.9741 3.66193 59.818 2.81802C60.6619 1.97411 61.8065 1.5 63 1.5C64.1935 1.5 65.3381 1.97411 66.182 2.81802C67.0259 3.66193 67.5 4.80653 67.5 6V17C68.431 17.699 69.1868 18.605 69.7074 19.6463C70.2281 20.6876 70.4994 21.8358 70.5 23ZM69.5 23C69.4994 21.9521 69.2458 20.9199 68.7607 19.991C68.2756 19.0622 67.5734 18.2642 66.7138 17.665C66.6471 17.6184 66.5927 17.5563 66.5555 17.484C66.5182 17.4117 66.4992 17.3313 66.5 17.25V6C66.5 5.07174 66.1313 4.1815 65.4749 3.52513C64.8185 2.86875 63.9283 2.5 63 2.5C62.0717 2.5 61.1815 2.86875 60.5251 3.52513C59.8688 4.1815 59.5 5.07174 59.5 6V17.25C59.5 17.3305 59.4806 17.4098 59.4434 17.4812C59.4062 17.5526 59.3523 17.6139 59.2863 17.66C58.3691 18.2985 57.6321 19.1626 57.1463 20.1689C56.6605 21.1753 56.4424 22.2899 56.513 23.4052C56.5836 24.5204 56.9405 25.5986 57.5493 26.5357C58.158 27.4728 58.9981 28.2371 59.9884 28.7548C60.9787 29.2726 62.0858 29.5263 63.2027 29.4914C64.3196 29.4566 65.4087 29.1344 66.3648 28.5559C67.3209 27.9775 68.1117 27.1623 68.6609 26.189C69.2101 25.2158 69.4991 24.1175 69.5 23Z" fill="currentColor"/>
<path d="M118.383 9.92625C118.326 9.84517 118.287 9.75385 118.266 9.65751C118.246 9.56116 118.244 9.46167 118.262 9.36474C118.28 9.26781 118.316 9.17533 118.37 9.09258C118.423 9.00983 118.493 8.93845 118.574 8.8825C119.794 8.04125 121.706 8.04125 122.926 8.8825C123.631 9.36875 124.869 9.36875 125.574 8.8825C125.738 8.76945 125.939 8.72609 126.135 8.76196C126.331 8.79782 126.504 8.90998 126.618 9.07375C126.731 9.23752 126.774 9.43949 126.738 9.63523C126.702 9.83097 126.59 10.0045 126.426 10.1175C125.775 10.5298 125.021 10.7487 124.25 10.7487C123.479 10.7487 122.725 10.5298 122.074 10.1175C121.369 9.63125 120.131 9.63125 119.426 10.1175C119.345 10.1735 119.254 10.213 119.158 10.2337C119.061 10.2544 118.962 10.2559 118.865 10.2382C118.768 10.2204 118.675 10.1837 118.593 10.1302C118.51 10.0767 118.438 10.0074 118.383 9.92625ZM125.574 12.8825C124.869 13.3687 123.631 13.3687 122.926 12.8825C121.706 12.0412 119.794 12.0412 118.574 12.8825C118.493 12.9385 118.423 13.0099 118.37 13.0926C118.316 13.1754 118.28 13.2678 118.262 13.3648C118.244 13.4617 118.246 13.5612 118.266 13.6575C118.287 13.7538 118.327 13.8452 118.383 13.9263C118.438 14.0073 118.51 14.0766 118.593 14.1301C118.675 14.1836 118.768 14.2203 118.865 14.238C118.962 14.2558 119.061 14.2543 119.157 14.2336C119.254 14.2129 119.345 14.1735 119.426 14.1175C120.131 13.6313 121.369 13.6313 122.074 14.1175C122.725 14.5298 123.479 14.7487 124.25 14.7487C125.021 14.7487 125.775 14.5298 126.426 14.1175C126.59 14.0045 126.702 13.831 126.738 13.6352C126.774 13.4395 126.731 13.2375 126.618 13.0737C126.504 12.91 126.331 12.7978 126.135 12.762C125.939 12.7261 125.738 12.7695 125.574 12.8825ZM114.75 23C114.75 23.7095 114.548 24.4044 114.169 25.0041C113.79 25.6037 113.248 26.0834 112.607 26.3874C111.966 26.6915 111.252 26.8075 110.547 26.7218C109.843 26.6362 109.178 26.3525 108.628 25.9037C108.078 25.4549 107.668 24.8594 107.443 24.1864C107.218 23.5134 107.189 22.7904 107.359 22.1015C107.529 21.4127 107.891 20.7861 108.402 20.2946C108.914 19.8031 109.555 19.4669 110.25 19.325V6C110.25 5.80109 110.329 5.61032 110.47 5.46967C110.61 5.32902 110.801 5.25 111 5.25C111.199 5.25 111.39 5.32902 111.53 5.46967C111.671 5.61032 111.75 5.80109 111.75 6V19.325C112.596 19.499 113.357 19.9595 113.904 20.629C114.45 21.2984 114.749 22.1358 114.75 23ZM113.25 23C113.25 22.555 113.118 22.12 112.871 21.75C112.624 21.38 112.272 21.0916 111.861 20.9213C111.45 20.751 110.998 20.7064 110.561 20.7932C110.125 20.8801 109.724 21.0943 109.409 21.409C109.094 21.7237 108.88 22.1246 108.793 22.561C108.706 22.9975 108.751 23.4499 108.921 23.861C109.092 24.2722 109.38 24.6236 109.75 24.8708C110.12 25.118 110.555 25.25 111 25.25C111.597 25.25 112.169 25.0129 112.591 24.591C113.013 24.169 113.25 23.5967 113.25 23ZM118.75 23C118.75 24.3157 118.415 25.6096 117.776 26.7599C117.138 27.9103 116.217 28.8791 115.1 29.5752C113.984 30.2713 112.709 30.6717 111.395 30.7387C110.081 30.8057 108.771 30.5371 107.59 29.9581C106.408 29.3792 105.394 28.5091 104.642 27.4297C103.889 26.3503 103.424 25.0971 103.29 23.7883C103.156 22.4795 103.358 21.1581 103.875 19.9486C104.393 18.7391 105.21 17.6814 106.25 16.875V6C106.25 4.74022 106.75 3.53204 107.641 2.64124C108.532 1.75044 109.74 1.25 111 1.25C112.26 1.25 113.468 1.75044 114.359 2.64124C115.25 3.53204 115.75 4.74022 115.75 6V16.875C116.684 17.5999 117.439 18.5286 117.959 19.5901C118.479 20.6517 118.75 21.818 118.75 23ZM117.25 23C117.249 21.9933 117.004 21.0018 116.538 20.1096C116.072 19.2174 115.397 18.4508 114.571 17.875C114.471 17.805 114.389 17.7114 114.333 17.6025C114.277 17.4935 114.248 17.3725 114.25 17.25V6C114.25 5.13805 113.908 4.3114 113.298 3.7019C112.689 3.09241 111.862 2.75 111 2.75C110.138 2.75 109.311 3.09241 108.702 3.7019C108.092 4.3114 107.75 5.13805 107.75 6V17.25C107.752 17.3725 107.723 17.4935 107.667 17.6025C107.611 17.7114 107.529 17.805 107.429 17.875C106.547 18.4892 105.838 19.3205 105.371 20.2886C104.904 21.2567 104.694 22.3289 104.763 23.4016C104.831 24.4743 105.175 25.5112 105.761 26.4123C106.347 27.3133 107.156 28.0479 108.109 28.5452C109.062 29.0424 110.127 29.2855 111.201 29.251C112.275 29.2164 113.322 28.9054 114.241 28.3479C115.16 27.7904 115.92 27.0054 116.447 26.0686C116.974 25.1318 117.251 24.0749 117.25 23Z" fill="currentColor"/>
<path d="M165.765 10.3512C165.539 10.0237 165.453 9.61989 165.525 9.22865C165.597 8.83741 165.821 8.49077 166.149 8.265C167.631 7.2425 169.869 7.2425 171.351 8.265C171.805 8.5775 172.695 8.5775 173.149 8.265C173.476 8.04308 173.878 7.95961 174.267 8.03278C174.656 8.10595 175 8.32982 175.225 8.65564C175.45 8.98145 175.536 9.38281 175.466 9.77228C175.396 10.1618 175.175 10.5078 174.851 10.735C174.076 11.2359 173.173 11.5024 172.25 11.5024C171.327 11.5024 170.424 11.2359 169.649 10.735C169.195 10.4225 168.305 10.4225 167.851 10.735C167.524 10.9608 167.12 11.0471 166.729 10.9752C166.337 10.9032 165.991 10.6788 165.765 10.3512ZM173.149 13.265C172.695 13.5775 171.805 13.5775 171.351 13.265C169.869 12.2425 167.631 12.2425 166.149 13.265C165.985 13.376 165.844 13.5184 165.736 13.684C165.627 13.8496 165.552 14.035 165.516 14.2296C165.479 14.4242 165.482 14.6241 165.523 14.8178C165.564 15.0115 165.643 15.1952 165.755 15.3582C165.867 15.5212 166.011 15.6604 166.177 15.7677C166.344 15.875 166.53 15.9482 166.725 15.9833C166.919 16.0183 167.119 16.0144 167.313 15.9718C167.506 15.9292 167.689 15.8487 167.851 15.735C168.305 15.4225 169.195 15.4225 169.649 15.735C170.424 16.2359 171.327 16.5024 172.25 16.5024C173.173 16.5024 174.076 16.2359 174.851 15.735C175.175 15.5078 175.396 15.1618 175.466 14.7723C175.536 14.3828 175.45 13.9815 175.225 13.6556C175 13.3298 174.656 13.1059 174.267 13.0328C173.878 12.9596 173.476 13.0431 173.149 13.265ZM164 18.8363C164.858 20.0317 165.369 21.4406 165.478 22.9079C165.587 24.3752 165.289 25.8441 164.617 27.1531C163.945 28.462 162.926 29.5604 161.67 30.3273C160.414 31.0942 158.971 31.4999 157.5 31.4999C156.029 31.4999 154.586 31.0942 153.33 30.3273C152.075 29.5604 151.055 28.462 150.383 27.1531C149.711 25.8441 149.413 24.3752 149.522 22.9079C149.631 21.4406 150.142 20.0317 151 18.8363V7C151 5.27609 151.685 3.62279 152.904 2.40381C154.123 1.18482 155.776 0.5 157.5 0.5C159.224 0.5 160.877 1.18482 162.096 2.40381C163.315 3.62279 164 5.27609 164 7V18.8363ZM162.5 23.5C162.5 22.3334 162.092 21.2036 161.346 20.3062C161.122 20.0366 161 19.6969 161 19.3463V7C161 6.07174 160.631 5.1815 159.975 4.52513C159.318 3.86875 158.428 3.5 157.5 3.5C156.572 3.5 155.682 3.86875 155.025 4.52513C154.369 5.1815 154 6.07174 154 7V19.3475C154 19.7068 153.871 20.0541 153.636 20.3263C153.127 20.9457 152.775 21.6783 152.609 22.4625C152.442 23.2466 152.467 24.0592 152.681 24.8318C152.894 25.6044 153.29 26.3144 153.836 26.9018C154.381 27.4892 155.06 27.9369 155.814 28.2071C156.569 28.4774 157.378 28.5622 158.172 28.4544C158.966 28.3467 159.723 28.0496 160.379 27.5881C161.034 27.1266 161.569 26.5144 161.938 25.8029C162.307 25.0914 162.5 24.3016 162.5 23.5ZM159 20.9025V7C159 6.60218 158.842 6.22064 158.561 5.93934C158.279 5.65804 157.898 5.5 157.5 5.5C157.102 5.5 156.721 5.65804 156.439 5.93934C156.158 6.22064 156 6.60218 156 7V20.9025C155.428 21.2327 154.981 21.7424 154.728 22.3525C154.476 22.9627 154.431 23.6391 154.602 24.277C154.773 24.9149 155.15 25.4786 155.674 25.8806C156.198 26.2827 156.84 26.5006 157.5 26.5006C158.16 26.5006 158.802 26.2827 159.326 25.8806C159.85 25.4786 160.227 24.9149 160.398 24.277C160.569 23.6391 160.524 22.9627 160.272 22.3525C160.019 21.7424 159.572 21.2327 159 20.9025Z" fill="currentColor"/>
<path d="M214.176 10.0675C214.026 9.84915 213.969 9.5801 214.017 9.31947C214.065 9.05884 214.214 8.82794 214.433 8.6775C215.733 7.78 217.767 7.78 219.067 8.6775C219.692 9.11125 220.803 9.11125 221.433 8.6775C221.651 8.53879 221.914 8.49006 222.168 8.54154C222.421 8.59303 222.645 8.74073 222.792 8.95362C222.939 9.16652 222.997 9.42805 222.956 9.68329C222.914 9.93854 222.775 10.1676 222.567 10.3225C221.874 10.7617 221.071 10.9949 220.25 10.9949C219.429 10.9949 218.626 10.7617 217.933 10.3225C217.308 9.88875 216.197 9.88875 215.567 10.3225C215.459 10.3971 215.338 10.4497 215.209 10.4773C215.081 10.5049 214.948 10.5069 214.819 10.4832C214.69 10.4595 214.567 10.4106 214.456 10.3393C214.346 10.268 214.251 10.1756 214.176 10.0675ZM221.433 12.6775C220.808 13.1112 219.697 13.1112 219.067 12.6775C217.767 11.78 215.733 11.78 214.433 12.6775C214.319 12.7496 214.221 12.8439 214.145 12.9548C214.069 13.0656 214.016 13.1907 213.989 13.3225C213.962 13.4543 213.962 13.5902 213.989 13.7219C214.016 13.8537 214.069 13.9787 214.146 14.0894C214.222 14.2002 214.32 14.2943 214.434 14.3663C214.547 14.4383 214.674 14.4866 214.807 14.5084C214.94 14.5301 215.076 14.5249 215.206 14.4929C215.337 14.461 215.46 14.403 215.567 14.3225C216.192 13.8888 217.303 13.8888 217.933 14.3225C218.626 14.7617 219.429 14.9949 220.25 14.9949C221.071 14.9949 221.874 14.7617 222.567 14.3225C222.775 14.1676 222.914 13.9385 222.956 13.6833C222.997 13.428 222.939 13.1665 222.792 12.9536C222.645 12.7407 222.421 12.593 222.168 12.5415C221.914 12.4901 221.651 12.5388 221.433 12.6775ZM214 24C214.001 25.2038 213.691 26.3875 213.101 27.4367C212.511 28.486 211.66 29.3652 210.63 29.9895C209.601 30.6139 208.428 30.9622 207.225 31.0009C206.022 31.0396 204.829 30.7674 203.762 30.2105C202.694 29.6535 201.789 28.8308 201.132 27.8217C200.476 26.8126 200.091 25.6512 200.014 24.4498C199.938 23.2484 200.172 22.0475 200.695 20.9633C201.218 19.879 202.012 18.9479 203 18.26V5C203 3.93913 203.421 2.92172 204.172 2.17157C204.922 1.42143 205.939 1 207 1C208.061 1 209.078 1.42143 209.828 2.17157C210.579 2.92172 211 3.93913 211 5V18.26C211.925 18.9044 212.681 19.7628 213.204 20.7622C213.726 21.7616 213.999 22.8723 214 24ZM209 5C209 4.46957 208.789 3.96086 208.414 3.58579C208.039 3.21071 207.53 3 207 3C206.47 3 205.961 3.21071 205.586 3.58579C205.211 3.96086 205 4.46957 205 5V10H209V5Z" fill="currentColor"/>
<path opacity="0.2" d="M259 17.25V6C259 4.93913 258.579 3.92172 257.828 3.17157C257.078 2.42143 256.061 2 255 2C253.939 2 252.922 2.42143 252.172 3.17157C251.421 3.92172 251 4.93913 251 6V17.25C249.777 18.1016 248.858 19.3212 248.376 20.7315C247.894 22.1417 247.875 23.6689 248.321 25.0908C248.767 26.5126 249.656 27.755 250.857 28.637C252.058 29.519 253.51 29.9946 255 29.9946C256.49 29.9946 257.942 29.519 259.143 28.637C260.344 27.755 261.233 26.5126 261.679 25.0908C262.125 23.6689 262.106 22.1417 261.624 20.7315C261.142 19.3212 260.223 18.1016 259 17.25ZM255 26C254.407 26 253.827 25.8241 253.333 25.4944C252.84 25.1648 252.455 24.6962 252.228 24.1481C252.001 23.5999 251.942 22.9967 252.058 22.4147C252.173 21.8328 252.459 21.2982 252.879 20.8787C253.298 20.4591 253.833 20.1734 254.415 20.0576C254.997 19.9419 255.6 20.0013 256.148 20.2284C256.696 20.4554 257.165 20.8399 257.494 21.3333C257.824 21.8266 258 22.4067 258 23C258 23.7956 257.684 24.5587 257.121 25.1213C256.559 25.6839 255.796 26 255 26Z" fill="currentColor"/>
<path d="M262.176 10.0675C262.026 9.84915 261.969 9.5801 262.017 9.31947C262.065 9.05884 262.214 8.82794 262.433 8.6775C263.733 7.78 265.767 7.78 267.067 8.6775C267.692 9.11125 268.803 9.11125 269.433 8.6775C269.651 8.53879 269.914 8.49006 270.168 8.54154C270.421 8.59303 270.645 8.74073 270.792 8.95362C270.939 9.16652 270.997 9.42805 270.956 9.68329C270.914 9.93854 270.775 10.1676 270.567 10.3225C269.874 10.7617 269.071 10.9949 268.25 10.9949C267.429 10.9949 266.626 10.7617 265.933 10.3225C265.308 9.88875 264.197 9.88875 263.567 10.3225C263.459 10.3971 263.338 10.4497 263.209 10.4773C263.081 10.5049 262.948 10.5069 262.819 10.4832C262.69 10.4595 262.567 10.4106 262.456 10.3393C262.346 10.268 262.251 10.1756 262.176 10.0675ZM269.433 12.6775C268.808 13.1112 267.697 13.1112 267.067 12.6775C265.767 11.78 263.733 11.78 262.433 12.6775C262.319 12.7496 262.221 12.8439 262.145 12.9548C262.069 13.0656 262.016 13.1907 261.989 13.3225C261.962 13.4543 261.962 13.5902 261.989 13.7219C262.016 13.8537 262.069 13.9787 262.146 14.0894C262.222 14.2002 262.32 14.2943 262.434 14.3663C262.547 14.4383 262.674 14.4866 262.807 14.5084C262.94 14.5301 263.076 14.5249 263.206 14.4929C263.337 14.461 263.46 14.403 263.567 14.3225C264.192 13.8888 265.303 13.8888 265.933 14.3225C266.626 14.7617 267.429 14.9949 268.25 14.9949C269.071 14.9949 269.874 14.7617 270.567 14.3225C270.775 14.1676 270.914 13.9385 270.956 13.6833C270.997 13.428 270.939 13.1665 270.792 12.9536C270.645 12.7407 270.421 12.593 270.168 12.5415C269.914 12.4901 269.651 12.5388 269.433 12.6775ZM259 23C259 23.748 258.789 24.481 258.393 25.1156C257.997 25.7502 257.431 26.2611 256.76 26.5902C256.088 26.9192 255.337 27.0533 254.593 26.9772C253.849 26.9011 253.141 26.6179 252.55 26.1596C251.958 25.7014 251.508 25.0866 251.248 24.3849C250.989 23.6833 250.931 22.923 251.082 22.1903C251.233 21.4577 251.587 20.7821 252.103 20.2402C252.618 19.6984 253.276 19.312 254 19.125V6C254 5.73478 254.105 5.48043 254.293 5.29289C254.48 5.10536 254.735 5 255 5C255.265 5 255.52 5.10536 255.707 5.29289C255.895 5.48043 256 5.73478 256 6V19.125C256.858 19.3479 257.618 19.8493 258.161 20.5505C258.704 21.2517 258.999 22.1132 259 23ZM257 23C257 22.6044 256.883 22.2178 256.663 21.8889C256.443 21.56 256.131 21.3036 255.765 21.1522C255.4 21.0009 254.998 20.9613 254.61 21.0384C254.222 21.1156 253.865 21.3061 253.586 21.5858C253.306 21.8655 253.116 22.2219 253.038 22.6098C252.961 22.9978 253.001 23.3999 253.152 23.7654C253.304 24.1308 253.56 24.4432 253.889 24.6629C254.218 24.8827 254.604 25 255 25C255.53 25 256.039 24.7893 256.414 24.4142C256.789 24.0391 257 23.5304 257 23ZM263 23C262.999 24.3527 262.655 25.6831 262.001 26.8669C261.346 28.0506 260.402 29.049 259.256 29.7687C258.111 30.4884 256.802 30.906 255.451 30.9823C254.101 31.0586 252.753 30.7911 251.534 30.205C250.314 29.6189 249.264 28.7332 248.48 27.6307C247.696 26.5282 247.205 25.245 247.051 23.901C246.898 22.557 247.088 21.196 247.604 19.9455C248.12 18.6949 248.944 17.5955 250 16.75V6C250 4.67392 250.527 3.40215 251.464 2.46447C252.402 1.52678 253.674 1 255 1C256.326 1 257.598 1.52678 258.536 2.46447C259.473 3.40215 260 4.67392 260 6V16.75C260.936 17.5005 261.692 18.4518 262.211 19.5336C262.73 20.6154 263 21.8 263 23ZM261 23C260.999 22.0327 260.765 21.0798 260.317 20.2224C259.869 19.3649 259.221 18.6283 258.428 18.075C258.295 17.9823 258.187 17.8589 258.112 17.7152C258.038 17.5715 257.999 17.4118 258 17.25V6C258 5.20435 257.684 4.44129 257.121 3.87868C256.559 3.31607 255.796 3 255 3C254.204 3 253.441 3.31607 252.879 3.87868C252.316 4.44129 252 5.20435 252 6V17.25C252 17.411 251.961 17.5696 251.887 17.7124C251.812 17.8551 251.705 17.9778 251.573 18.07C250.726 18.6593 250.045 19.4568 249.597 20.3858C249.148 21.3147 248.947 22.3435 249.012 23.373C249.077 24.4025 249.406 25.3978 249.968 26.2629C250.53 27.1279 251.306 27.8335 252.22 28.3115C253.134 28.7896 254.156 29.0238 255.187 28.9918C256.218 28.9597 257.223 28.6623 258.106 28.1284C258.988 27.5945 259.718 26.8421 260.225 25.9437C260.732 25.0454 260.999 24.0315 261 23Z" fill="currentColor"/>
</g>
<defs>
<clipPath id="clip0_17_4965">
<rect width="272" height="32" rx="5" fill="white"/>
</clipPath>
</defs>
</svg>
