<svg width="272" height="32" viewBox="0 0 272 32" fill="none" xmlns="http://www.w3.org/2000/svg">
<g clip-path="url(#clip0_17_4979)">
<path d="M31.1138 9.715L28.6138 10.5262L30.1562 12.6512C30.2378 12.7572 30.2972 12.8783 30.3311 13.0076C30.365 13.1369 30.3726 13.2717 30.3535 13.404C30.3344 13.5363 30.289 13.6634 30.22 13.7778C30.1509 13.8922 30.0596 13.9917 29.9515 14.0702C29.8434 14.1488 29.7206 14.2048 29.5904 14.2351C29.4602 14.2654 29.3253 14.2693 29.1936 14.2466C29.0619 14.2238 28.9361 14.1749 28.8236 14.1027C28.7111 14.0305 28.6143 13.9365 28.5387 13.8263L27 11.7013L25.4575 13.8263C25.2987 14.0326 25.0656 14.1689 24.8078 14.2061C24.5501 14.2433 24.288 14.1785 24.0773 14.0254C23.8666 13.8723 23.7239 13.6431 23.6796 13.3865C23.6353 13.1299 23.6928 12.8661 23.84 12.6512L25.3825 10.5262L22.8825 9.715C22.6302 9.63311 22.4208 9.45436 22.3003 9.21807C22.1798 8.98177 22.1581 8.70729 22.24 8.455C22.3219 8.20271 22.5006 7.99329 22.7369 7.8728C22.9732 7.7523 23.2477 7.73061 23.5 7.8125L26 8.625V6C26 5.73478 26.1054 5.48043 26.2929 5.29289C26.4804 5.10536 26.7348 5 27 5C27.2652 5 27.5196 5.10536 27.7071 5.29289C27.8946 5.48043 28 5.73478 28 6V8.625L30.5 7.81375C30.7523 7.7317 31.0268 7.75323 31.2632 7.8736C31.4997 7.99398 31.6786 8.20334 31.7606 8.45562C31.8427 8.70791 31.8211 8.98246 31.7008 9.21887C31.5804 9.45529 31.371 9.6342 31.1187 9.71625L31.1138 9.715ZM19 23C18.9996 23.748 18.7895 24.481 18.3935 25.1156C17.9974 25.7502 17.4314 26.2611 16.7596 26.5902C16.0878 26.9192 15.3372 27.0533 14.5931 26.9772C13.8489 26.9011 13.141 26.6179 12.5497 26.1596C11.9584 25.7014 11.5075 25.0866 11.2481 24.3849C10.9888 23.6833 10.9313 22.923 11.0824 22.1903C11.2334 21.4577 11.5869 20.7821 12.1026 20.2402C12.6184 19.6984 13.2757 19.312 14 19.125V15C14 14.7348 14.1054 14.4804 14.2929 14.2929C14.4804 14.1054 14.7348 14 15 14C15.2652 14 15.5196 14.1054 15.7071 14.2929C15.8946 14.4804 16 14.7348 16 15V19.125C16.8583 19.3479 17.6185 19.8493 18.1613 20.5505C18.7042 21.2517 18.9992 22.1132 19 23ZM17 23C17 22.6044 16.8827 22.2178 16.6629 21.8889C16.4432 21.56 16.1308 21.3036 15.7654 21.1522C15.3999 21.0009 14.9978 20.9613 14.6098 21.0384C14.2219 21.1156 13.8655 21.3061 13.5858 21.5858C13.3061 21.8655 13.1156 22.2219 13.0384 22.6098C12.9613 22.9978 13.0009 23.3999 13.1522 23.7654C13.3036 24.1308 13.56 24.4432 13.8889 24.6629C14.2178 24.8827 14.6044 25 15 25C15.5304 25 16.0391 24.7893 16.4142 24.4142C16.7893 24.0391 17 23.5304 17 23ZM23 23C22.9992 24.3527 22.6553 25.6831 22.0006 26.8669C21.3459 28.0506 20.4017 29.049 19.2564 29.7687C18.111 30.4884 16.8018 30.906 15.4512 30.9823C14.1007 31.0586 12.7528 30.7911 11.5336 30.205C10.3145 29.6189 9.26389 28.7332 8.48003 27.6307C7.69617 26.5282 7.20467 25.245 7.05147 23.901C6.89827 22.557 7.08839 21.196 7.60404 19.9455C8.11969 18.6949 8.94403 17.5955 10 16.75V6C10 4.67392 10.5268 3.40215 11.4645 2.46447C12.4021 1.52678 13.6739 1 15 1C16.3261 1 17.5979 1.52678 18.5355 2.46447C19.4732 3.40215 20 4.67392 20 6V16.75C20.9363 17.5005 21.6919 18.4518 22.2112 19.5336C22.7305 20.6154 23 21.8 23 23ZM21 23C20.9992 22.0327 20.7649 21.0798 20.3171 20.2224C19.8692 19.3649 19.221 18.6283 18.4275 18.075C18.2948 17.9823 18.1866 17.8589 18.1121 17.7152C18.0376 17.5715 17.9992 17.4118 18 17.25V6C18 5.20435 17.6839 4.44129 17.1213 3.87868C16.5587 3.31607 15.7957 3 15 3C14.2044 3 13.4413 3.31607 12.8787 3.87868C12.3161 4.44129 12 5.20435 12 6V17.25C12 17.411 11.9612 17.5696 11.8867 17.7124C11.8123 17.8551 11.7045 17.9778 11.5725 18.07C10.7258 18.6593 10.0454 19.4568 9.59689 20.3858C9.14836 21.3147 8.9469 22.3435 9.01194 23.373C9.07699 24.4025 9.40635 25.3978 9.96822 26.2629C10.5301 27.1279 11.3055 27.8335 12.2196 28.3115C13.1337 28.7896 14.1556 29.0238 15.1866 28.9918C16.2176 28.9597 17.223 28.6623 18.1056 28.1284C18.9882 27.5945 19.7182 26.8421 20.2252 25.9437C20.7322 25.0454 20.9991 24.0315 21 23Z" fill="currentColor"/>
<path d="M78.9588 9.24L75.8088 10.2625L77.75 12.9425C77.7908 12.9955 77.8205 13.056 77.8374 13.1207C77.8544 13.1853 77.8582 13.2527 77.8486 13.3189C77.8391 13.385 77.8164 13.4486 77.7819 13.5058C77.7473 13.563 77.7017 13.6127 77.6476 13.652C77.5936 13.6913 77.5322 13.7193 77.4671 13.7344C77.402 13.7496 77.3345 13.7515 77.2687 13.7402C77.2028 13.7288 77.1399 13.7043 77.0837 13.6682C77.0274 13.6321 76.979 13.5851 76.9413 13.53L75 10.8512L73.0538 13.53C73.0073 13.5939 72.9464 13.646 72.876 13.6818C72.8056 13.7177 72.7278 13.7363 72.6488 13.7362C72.5566 13.7361 72.4663 13.7105 72.3879 13.6623C72.3094 13.614 72.2457 13.5451 72.204 13.4629C72.1622 13.3808 72.1439 13.2888 72.1512 13.1969C72.1584 13.1051 72.1909 13.017 72.245 12.9425L74.1913 10.2625L71.0413 9.24C70.9788 9.21973 70.9209 9.18735 70.871 9.14472C70.821 9.10209 70.78 9.05003 70.7501 8.99153C70.7203 8.93303 70.7023 8.86923 70.6971 8.80377C70.692 8.7383 70.6997 8.67246 70.72 8.61C70.7403 8.54754 70.7727 8.48968 70.8153 8.43974C70.8579 8.38979 70.91 8.34873 70.9685 8.3189C71.027 8.28907 71.0908 8.27105 71.1562 8.26588C71.2217 8.2607 71.2875 8.26848 71.35 8.28875L74.5 9.31125V6C74.5 5.86739 74.5527 5.74021 74.6464 5.64645C74.7402 5.55268 74.8674 5.5 75 5.5C75.1326 5.5 75.2598 5.55268 75.3536 5.64645C75.4473 5.74021 75.5 5.86739 75.5 6V9.31125L78.65 8.28875C78.7125 8.26848 78.7783 8.2607 78.8438 8.26588C78.9092 8.27105 78.973 8.28907 79.0315 8.3189C79.09 8.34873 79.1421 8.38979 79.1847 8.43974C79.2274 8.48968 79.2597 8.54754 79.28 8.61C79.3003 8.67246 79.308 8.7383 79.3029 8.80377C79.2977 8.86923 79.2797 8.93303 79.2499 8.99153C79.22 9.05003 79.179 9.10209 79.129 9.14472C79.0791 9.18735 79.0212 9.21973 78.9588 9.24ZM66.5 23C66.5001 23.6709 66.3073 24.3277 65.9447 24.8921C65.5821 25.4566 65.0648 25.9049 64.4546 26.1838C63.8444 26.4626 63.1669 26.5602 62.5028 26.4649C61.8387 26.3696 61.216 26.0854 60.7088 25.6462C60.2017 25.207 59.8314 24.6313 59.6422 23.9877C59.4529 23.344 59.4526 22.6596 59.6413 22.0158C59.8301 21.3719 60.1999 20.7959 60.7067 20.3564C61.2135 19.9168 61.836 19.6321 62.5 19.5362V15C62.5 14.8674 62.5527 14.7402 62.6464 14.6464C62.7402 14.5527 62.8674 14.5 63 14.5C63.1326 14.5 63.2598 14.5527 63.3536 14.6464C63.4473 14.7402 63.5 14.8674 63.5 15V19.5362C64.3329 19.6565 65.0947 20.0728 65.6456 20.7089C66.1966 21.3451 66.4999 22.1584 66.5 23ZM65.5 23C65.5 22.5055 65.3534 22.0222 65.0787 21.6111C64.804 21.2 64.4135 20.8795 63.9567 20.6903C63.4999 20.5011 62.9972 20.4516 62.5123 20.548C62.0273 20.6445 61.5819 20.8826 61.2322 21.2322C60.8826 21.5819 60.6445 22.0273 60.548 22.5123C60.4516 22.9972 60.5011 23.4999 60.6903 23.9567C60.8795 24.4135 61.2 24.804 61.6111 25.0787C62.0222 25.3534 62.5055 25.5 63 25.5C63.663 25.5 64.2989 25.2366 64.7678 24.7678C65.2366 24.2989 65.5 23.663 65.5 23ZM70.5 23C70.5 24.2784 70.1732 25.5356 69.5507 26.6522C68.9281 27.7688 68.0305 28.7078 66.943 29.3799C65.8555 30.052 64.6142 30.435 63.3371 30.4924C62.06 30.5499 60.7894 30.2799 59.6459 29.7082C58.5024 29.1365 57.5241 28.2819 56.8038 27.2258C56.0835 26.1696 55.6451 24.9468 55.5303 23.6735C55.4155 22.4003 55.6281 21.1188 56.1478 19.9508C56.6676 18.7828 57.4773 17.7671 58.5 17V6C58.5 4.80653 58.9741 3.66193 59.818 2.81802C60.6619 1.97411 61.8065 1.5 63 1.5C64.1935 1.5 65.3381 1.97411 66.182 2.81802C67.0259 3.66193 67.5 4.80653 67.5 6V17C68.431 17.699 69.1868 18.605 69.7074 19.6463C70.2281 20.6876 70.4994 21.8358 70.5 23ZM69.5 23C69.4994 21.9521 69.2458 20.9199 68.7607 19.991C68.2756 19.0622 67.5734 18.2642 66.7138 17.665C66.6471 17.6184 66.5927 17.5563 66.5555 17.484C66.5182 17.4117 66.4992 17.3313 66.5 17.25V6C66.5 5.07174 66.1313 4.1815 65.4749 3.52513C64.8185 2.86875 63.9283 2.5 63 2.5C62.0717 2.5 61.1815 2.86875 60.5251 3.52513C59.8688 4.1815 59.5 5.07174 59.5 6V17.25C59.5 17.3305 59.4806 17.4098 59.4434 17.4812C59.4062 17.5526 59.3523 17.6139 59.2863 17.66C58.3691 18.2985 57.6321 19.1626 57.1463 20.1689C56.6605 21.1753 56.4424 22.2899 56.513 23.4052C56.5836 24.5204 56.9405 25.5986 57.5493 26.5357C58.158 27.4728 58.9981 28.2371 59.9884 28.7548C60.9787 29.2726 62.0858 29.5263 63.2027 29.4914C64.3196 29.4566 65.4087 29.1344 66.3648 28.5559C67.3209 27.9775 68.1117 27.1623 68.6609 26.189C69.2101 25.2158 69.4991 24.1175 69.5 23Z" fill="currentColor"/>
<path d="M127.036 9.4775L124.214 10.3938L125.958 12.795C126.018 12.8744 126.062 12.9652 126.087 13.0619C126.112 13.1585 126.117 13.2592 126.103 13.358C126.088 13.4568 126.054 13.5517 126.003 13.6372C125.951 13.7226 125.883 13.7969 125.802 13.8557C125.721 13.9144 125.63 13.9565 125.533 13.9793C125.435 14.0022 125.335 14.0054 125.236 13.9888C125.138 13.9722 125.043 13.9362 124.959 13.8827C124.875 13.8292 124.802 13.7595 124.745 13.6775L123 11.2762L121.25 13.6775C121.193 13.7595 121.12 13.8292 121.036 13.8827C120.952 13.9362 120.857 13.9722 120.759 13.9888C120.66 14.0054 120.56 14.0022 120.462 13.9793C120.365 13.9565 120.274 13.9144 120.193 13.8557C120.112 13.7969 120.044 13.7226 119.992 13.6372C119.941 13.5517 119.907 13.4568 119.892 13.358C119.878 13.2592 119.883 13.1585 119.908 13.0619C119.933 12.9652 119.977 12.8744 120.038 12.795L121.781 10.3938L118.959 9.4775C118.863 9.44842 118.775 9.40064 118.698 9.33696C118.622 9.27327 118.558 9.19495 118.512 9.10658C118.466 9.0182 118.438 8.92154 118.43 8.82224C118.422 8.72294 118.434 8.62299 118.464 8.52824C118.495 8.43348 118.545 8.34581 118.61 8.27035C118.675 8.19489 118.754 8.13316 118.843 8.08875C118.933 8.04434 119.03 8.01816 119.129 8.01172C119.229 8.00528 119.328 8.01872 119.423 8.05125L122.25 8.9675V6C122.25 5.80109 122.329 5.61032 122.47 5.46967C122.61 5.32902 122.801 5.25 123 5.25C123.199 5.25 123.39 5.32902 123.53 5.46967C123.671 5.61032 123.75 5.80109 123.75 6V8.9675L126.573 8.05125C126.76 7.99389 126.963 8.01262 127.138 8.1034C127.312 8.19419 127.444 8.34977 127.505 8.53669C127.565 8.7236 127.55 8.9269 127.463 9.10285C127.375 9.2788 127.222 9.41333 127.036 9.4775ZM114.75 23C114.75 23.7095 114.548 24.4044 114.169 25.0041C113.79 25.6037 113.248 26.0834 112.607 26.3874C111.966 26.6915 111.252 26.8075 110.547 26.7218C109.843 26.6362 109.178 26.3525 108.628 25.9037C108.078 25.4549 107.668 24.8594 107.443 24.1864C107.218 23.5134 107.189 22.7904 107.359 22.1015C107.529 21.4127 107.891 20.7861 108.402 20.2946C108.914 19.8031 109.555 19.4669 110.25 19.325V15C110.25 14.8011 110.329 14.6103 110.47 14.4697C110.61 14.329 110.801 14.25 111 14.25C111.199 14.25 111.39 14.329 111.53 14.4697C111.671 14.6103 111.75 14.8011 111.75 15V19.325C112.596 19.499 113.357 19.9595 113.904 20.629C114.45 21.2984 114.749 22.1358 114.75 23ZM113.25 23C113.25 22.555 113.118 22.12 112.871 21.75C112.624 21.38 112.272 21.0916 111.861 20.9213C111.45 20.751 110.998 20.7064 110.561 20.7932C110.125 20.8801 109.724 21.0943 109.409 21.409C109.094 21.7237 108.88 22.1246 108.793 22.561C108.706 22.9975 108.751 23.4499 108.921 23.861C109.092 24.2722 109.38 24.6236 109.75 24.8708C110.12 25.118 110.555 25.25 111 25.25C111.597 25.25 112.169 25.0129 112.591 24.591C113.013 24.169 113.25 23.5967 113.25 23ZM118.75 23C118.75 24.3157 118.415 25.6096 117.776 26.7599C117.138 27.9103 116.217 28.8791 115.1 29.5752C113.984 30.2713 112.709 30.6717 111.395 30.7387C110.081 30.8057 108.771 30.5371 107.59 29.9581C106.408 29.3792 105.394 28.5091 104.642 27.4297C103.889 26.3503 103.424 25.0971 103.29 23.7883C103.156 22.4795 103.358 21.1581 103.875 19.9486C104.393 18.7391 105.21 17.6814 106.25 16.875V6C106.25 4.74022 106.75 3.53204 107.641 2.64124C108.532 1.75044 109.74 1.25 111 1.25C112.26 1.25 113.468 1.75044 114.359 2.64124C115.25 3.53204 115.75 4.74022 115.75 6V16.875C116.684 17.5999 117.439 18.5286 117.959 19.5901C118.479 20.6517 118.75 21.818 118.75 23ZM117.25 23C117.249 21.9933 117.004 21.0018 116.538 20.1096C116.072 19.2174 115.397 18.4508 114.571 17.875C114.471 17.805 114.389 17.7114 114.333 17.6025C114.277 17.4935 114.248 17.3725 114.25 17.25V6C114.25 5.13805 113.908 4.3114 113.298 3.7019C112.689 3.09241 111.862 2.75 111 2.75C110.138 2.75 109.311 3.09241 108.702 3.7019C108.092 4.3114 107.75 5.13805 107.75 6V17.25C107.752 17.3725 107.723 17.4935 107.667 17.6025C107.611 17.7114 107.529 17.805 107.429 17.875C106.547 18.4892 105.838 19.3205 105.371 20.2886C104.904 21.2567 104.694 22.3289 104.763 23.4016C104.831 24.4743 105.175 25.5112 105.761 26.4123C106.347 27.3133 107.156 28.0479 108.109 28.5452C109.062 29.0424 110.127 29.2855 111.201 29.251C112.275 29.2164 113.322 28.9054 114.241 28.3479C115.16 27.7904 115.92 27.0054 116.447 26.0686C116.974 25.1318 117.251 24.0749 117.25 23Z" fill="currentColor"/>
<path d="M174.768 10.19L172.928 10.7887L174.065 12.3538C174.299 12.6757 174.395 13.0773 174.333 13.4703C174.271 13.8633 174.055 14.2155 173.733 14.4494C173.411 14.6833 173.01 14.7797 172.617 14.7175C172.224 14.6552 171.871 14.4394 171.638 14.1175L170.5 12.5525L169.363 14.1175C169.129 14.4394 168.776 14.6552 168.383 14.7175C167.99 14.7797 167.589 14.6833 167.267 14.4494C166.945 14.2155 166.729 13.8633 166.667 13.4703C166.605 13.0773 166.701 12.6757 166.935 12.3538L168.073 10.7887L166.233 10.19C166.041 10.1329 165.862 10.0379 165.708 9.91084C165.553 9.78374 165.426 9.62702 165.333 9.44991C165.24 9.2728 165.183 9.07887 165.166 8.87954C165.149 8.68021 165.173 8.47951 165.234 8.28924C165.296 8.09897 165.395 7.92299 165.526 7.77164C165.657 7.62029 165.817 7.49663 165.996 7.40795C166.175 7.31927 166.371 7.26735 166.57 7.25525C166.77 7.24315 166.97 7.27112 167.159 7.3375L169 7.935V6C169 5.60218 169.158 5.22064 169.439 4.93934C169.721 4.65804 170.102 4.5 170.5 4.5C170.898 4.5 171.279 4.65804 171.561 4.93934C171.842 5.22064 172 5.60218 172 6V7.935L173.841 7.3375C174.03 7.27112 174.23 7.24315 174.43 7.25525C174.629 7.26735 174.825 7.31927 175.004 7.40795C175.183 7.49663 175.343 7.62029 175.474 7.77164C175.605 7.92299 175.704 8.09897 175.766 8.28924C175.827 8.47951 175.851 8.68021 175.834 8.87954C175.817 9.07887 175.76 9.2728 175.667 9.44991C175.574 9.62702 175.447 9.78374 175.292 9.91084C175.138 10.0379 174.959 10.1329 174.768 10.19ZM164 18.8363C164.858 20.0317 165.369 21.4406 165.478 22.9079C165.587 24.3752 165.289 25.8441 164.617 27.1531C163.945 28.462 162.926 29.5604 161.67 30.3273C160.414 31.0942 158.971 31.4999 157.5 31.4999C156.029 31.4999 154.586 31.0942 153.33 30.3273C152.075 29.5604 151.055 28.462 150.383 27.1531C149.711 25.8441 149.413 24.3752 149.522 22.9079C149.631 21.4406 150.142 20.0317 151 18.8363V7C151 5.27609 151.685 3.62279 152.904 2.40381C154.123 1.18482 155.776 0.5 157.5 0.5C159.224 0.5 160.877 1.18482 162.096 2.40381C163.315 3.62279 164 5.27609 164 7V18.8363ZM162.5 23.5C162.5 22.3334 162.092 21.2036 161.346 20.3062C161.122 20.0366 161 19.6969 161 19.3463V7C161 6.07174 160.631 5.1815 159.975 4.52513C159.318 3.86875 158.428 3.5 157.5 3.5C156.572 3.5 155.682 3.86875 155.025 4.52513C154.369 5.1815 154 6.07174 154 7V19.3475C154 19.7068 153.871 20.0541 153.636 20.3263C153.127 20.9457 152.775 21.6783 152.609 22.4625C152.442 23.2466 152.467 24.0592 152.681 24.8318C152.894 25.6044 153.29 26.3144 153.836 26.9018C154.381 27.4892 155.06 27.9369 155.814 28.2071C156.569 28.4774 157.378 28.5622 158.172 28.4544C158.966 28.3467 159.723 28.0496 160.379 27.5881C161.034 27.1266 161.569 26.5144 161.938 25.8029C162.307 25.0914 162.5 24.3016 162.5 23.5ZM159 20.9025V15C159 14.6022 158.842 14.2206 158.561 13.9393C158.279 13.658 157.898 13.5 157.5 13.5C157.102 13.5 156.721 13.658 156.439 13.9393C156.158 14.2206 156 14.6022 156 15V20.9025C155.428 21.2327 154.981 21.7424 154.728 22.3525C154.476 22.9627 154.431 23.6391 154.602 24.277C154.773 24.9149 155.15 25.4786 155.674 25.8806C156.198 26.2827 156.84 26.5006 157.5 26.5006C158.16 26.5006 158.802 26.2827 159.326 25.8806C159.85 25.4786 160.227 24.9149 160.398 24.277C160.569 23.6391 160.524 22.9627 160.272 22.3525C160.019 21.7424 159.572 21.2327 159 20.9025Z" fill="currentColor"/>
<path d="M223.114 9.715L220.614 10.5262L222.156 12.6512C222.238 12.7572 222.297 12.8783 222.331 13.0076C222.365 13.1369 222.373 13.2717 222.354 13.404C222.334 13.5363 222.289 13.6634 222.22 13.7778C222.151 13.8922 222.06 13.9917 221.952 14.0702C221.843 14.1488 221.721 14.2048 221.59 14.2351C221.46 14.2654 221.325 14.2693 221.194 14.2466C221.062 14.2238 220.936 14.1749 220.824 14.1027C220.711 14.0305 220.614 13.9365 220.539 13.8263L219 11.7013L217.458 13.8263C217.299 14.0326 217.066 14.1689 216.808 14.2061C216.55 14.2433 216.288 14.1785 216.077 14.0254C215.867 13.8723 215.724 13.6431 215.68 13.3865C215.635 13.1299 215.693 12.8661 215.84 12.6512L217.382 10.5262L214.882 9.715C214.63 9.63311 214.421 9.45436 214.3 9.21807C214.18 8.98177 214.158 8.70729 214.24 8.455C214.322 8.20271 214.501 7.99329 214.737 7.8728C214.973 7.7523 215.248 7.73061 215.5 7.8125L218 8.625V6C218 5.73478 218.105 5.48043 218.293 5.29289C218.48 5.10536 218.735 5 219 5C219.265 5 219.52 5.10536 219.707 5.29289C219.895 5.48043 220 5.73478 220 6V8.625L222.5 7.81375C222.752 7.7317 223.027 7.75323 223.263 7.8736C223.5 7.99398 223.679 8.20334 223.761 8.45562C223.843 8.70791 223.821 8.98246 223.701 9.21887C223.58 9.45529 223.371 9.6342 223.119 9.71625L223.114 9.715ZM214 24C214.001 25.2038 213.691 26.3875 213.101 27.4367C212.511 28.486 211.66 29.3652 210.63 29.9895C209.601 30.6139 208.428 30.9622 207.225 31.0009C206.022 31.0396 204.829 30.7674 203.762 30.2105C202.694 29.6535 201.789 28.8308 201.132 27.8217C200.476 26.8126 200.091 25.6512 200.014 24.4498C199.938 23.2484 200.172 22.0475 200.695 20.9633C201.218 19.879 202.012 18.9479 203 18.26V5C203 3.93913 203.421 2.92172 204.172 2.17157C204.922 1.42143 205.939 1 207 1C208.061 1 209.078 1.42143 209.828 2.17157C210.579 2.92172 211 3.93913 211 5V18.26C211.925 18.9044 212.681 19.7628 213.204 20.7622C213.726 21.7616 213.999 22.8723 214 24ZM209 5C209 4.46957 208.789 3.96086 208.414 3.58579C208.039 3.21071 207.53 3 207 3C206.47 3 205.961 3.21071 205.586 3.58579C205.211 3.96086 205 4.46957 205 5V10H209V5Z" fill="currentColor"/>
<path opacity="0.2" d="M259 17.25V6C259 4.93913 258.579 3.92172 257.828 3.17157C257.078 2.42143 256.061 2 255 2C253.939 2 252.922 2.42143 252.172 3.17157C251.421 3.92172 251 4.93913 251 6V17.25C249.777 18.1016 248.858 19.3212 248.376 20.7315C247.894 22.1417 247.875 23.6689 248.321 25.0908C248.767 26.5126 249.656 27.755 250.857 28.637C252.058 29.519 253.51 29.9946 255 29.9946C256.49 29.9946 257.942 29.519 259.143 28.637C260.344 27.755 261.233 26.5126 261.679 25.0908C262.125 23.6689 262.106 22.1417 261.624 20.7315C261.142 19.3212 260.223 18.1016 259 17.25ZM255 26C254.407 26 253.827 25.8241 253.333 25.4944C252.84 25.1648 252.455 24.6962 252.228 24.1481C252.001 23.5999 251.942 22.9967 252.058 22.4147C252.173 21.8328 252.459 21.2982 252.879 20.8787C253.298 20.4591 253.833 20.1734 254.415 20.0576C254.997 19.9419 255.6 20.0013 256.148 20.2284C256.696 20.4554 257.165 20.8399 257.494 21.3333C257.824 21.8266 258 22.4067 258 23C258 23.7956 257.684 24.5587 257.121 25.1213C256.559 25.6839 255.796 26 255 26Z" fill="currentColor"/>
<path d="M271.114 9.715L268.614 10.5262L270.156 12.6512C270.238 12.7572 270.297 12.8783 270.331 13.0076C270.365 13.1369 270.373 13.2717 270.354 13.404C270.334 13.5363 270.289 13.6634 270.22 13.7778C270.151 13.8922 270.06 13.9917 269.952 14.0702C269.843 14.1488 269.721 14.2048 269.59 14.2351C269.46 14.2654 269.325 14.2693 269.194 14.2466C269.062 14.2238 268.936 14.1749 268.824 14.1027C268.711 14.0305 268.614 13.9365 268.539 13.8263L267 11.7013L265.458 13.8263C265.299 14.0326 265.066 14.1689 264.808 14.2061C264.55 14.2433 264.288 14.1785 264.077 14.0254C263.867 13.8723 263.724 13.6431 263.68 13.3865C263.635 13.1299 263.693 12.8661 263.84 12.6512L265.382 10.5262L262.883 9.715C262.63 9.63311 262.421 9.45436 262.3 9.21807C262.18 8.98177 262.158 8.70729 262.24 8.455C262.322 8.20271 262.501 7.99329 262.737 7.8728C262.973 7.7523 263.248 7.73061 263.5 7.8125L266 8.625V6C266 5.73478 266.105 5.48043 266.293 5.29289C266.48 5.10536 266.735 5 267 5C267.265 5 267.52 5.10536 267.707 5.29289C267.895 5.48043 268 5.73478 268 6V8.625L270.5 7.81375C270.752 7.7317 271.027 7.75323 271.263 7.8736C271.5 7.99398 271.679 8.20334 271.761 8.45562C271.843 8.70791 271.821 8.98246 271.701 9.21887C271.58 9.45529 271.371 9.6342 271.119 9.71625L271.114 9.715ZM259 23C259 23.748 258.789 24.481 258.393 25.1156C257.997 25.7502 257.431 26.2611 256.76 26.5902C256.088 26.9192 255.337 27.0533 254.593 26.9772C253.849 26.9011 253.141 26.6179 252.55 26.1596C251.958 25.7014 251.508 25.0866 251.248 24.3849C250.989 23.6833 250.931 22.923 251.082 22.1903C251.233 21.4577 251.587 20.7821 252.103 20.2402C252.618 19.6984 253.276 19.312 254 19.125V15C254 14.7348 254.105 14.4804 254.293 14.2929C254.48 14.1054 254.735 14 255 14C255.265 14 255.52 14.1054 255.707 14.2929C255.895 14.4804 256 14.7348 256 15V19.125C256.858 19.3479 257.618 19.8493 258.161 20.5505C258.704 21.2517 258.999 22.1132 259 23ZM257 23C257 22.6044 256.883 22.2178 256.663 21.8889C256.443 21.56 256.131 21.3036 255.765 21.1522C255.4 21.0009 254.998 20.9613 254.61 21.0384C254.222 21.1156 253.865 21.3061 253.586 21.5858C253.306 21.8655 253.116 22.2219 253.038 22.6098C252.961 22.9978 253.001 23.3999 253.152 23.7654C253.304 24.1308 253.56 24.4432 253.889 24.6629C254.218 24.8827 254.604 25 255 25C255.53 25 256.039 24.7893 256.414 24.4142C256.789 24.0391 257 23.5304 257 23ZM263 23C262.999 24.3527 262.655 25.6831 262.001 26.8669C261.346 28.0506 260.402 29.049 259.256 29.7687C258.111 30.4884 256.802 30.906 255.451 30.9823C254.101 31.0586 252.753 30.7911 251.534 30.205C250.314 29.6189 249.264 28.7332 248.48 27.6307C247.696 26.5282 247.205 25.245 247.051 23.901C246.898 22.557 247.088 21.196 247.604 19.9455C248.12 18.6949 248.944 17.5955 250 16.75V6C250 4.67392 250.527 3.40215 251.464 2.46447C252.402 1.52678 253.674 1 255 1C256.326 1 257.598 1.52678 258.536 2.46447C259.473 3.40215 260 4.67392 260 6V16.75C260.936 17.5005 261.692 18.4518 262.211 19.5336C262.73 20.6154 263 21.8 263 23ZM261 23C260.999 22.0327 260.765 21.0798 260.317 20.2224C259.869 19.3649 259.221 18.6283 258.428 18.075C258.295 17.9823 258.187 17.8589 258.112 17.7152C258.038 17.5715 257.999 17.4118 258 17.25V6C258 5.20435 257.684 4.44129 257.121 3.87868C256.559 3.31607 255.796 3 255 3C254.204 3 253.441 3.31607 252.879 3.87868C252.316 4.44129 252 5.20435 252 6V17.25C252 17.411 251.961 17.5696 251.887 17.7124C251.812 17.8551 251.705 17.9778 251.573 18.07C250.726 18.6593 250.045 19.4568 249.597 20.3858C249.148 21.3147 248.947 22.3435 249.012 23.373C249.077 24.4025 249.406 25.3978 249.968 26.2629C250.53 27.1279 251.306 27.8335 252.22 28.3115C253.134 28.7896 254.156 29.0238 255.187 28.9918C256.218 28.9597 257.223 28.6623 258.106 28.1284C258.988 27.5945 259.718 26.8421 260.225 25.9437C260.732 25.0454 260.999 24.0315 261 23Z" fill="currentColor"/>
</g>
<defs>
<clipPath id="clip0_17_4979">
<rect width="272" height="32" rx="5" fill="white"/>
</clipPath>
</defs>
</svg>
