<svg width="272" height="32" viewBox="0 0 272 32" fill="none" xmlns="http://www.w3.org/2000/svg">
<g clip-path="url(#clip0_17_4936)">
<path d="M24.7625 7.82491C24.0391 6.09772 22.8214 4.62283 21.2624 3.58556C19.7034 2.54828 17.8726 1.99487 16 1.99487C14.1275 1.99487 12.2967 2.54828 10.7377 3.58556C9.17863 4.62283 7.96093 6.09772 7.23754 7.82491C5.68074 8.54585 4.36142 9.69518 3.43391 11.1385C2.5064 12.5818 2.00905 14.2593 2.00004 15.9749C1.98629 20.8274 5.92004 24.8749 10.7675 24.9999C12.2339 25.0382 13.6873 24.7158 15 24.0612V28.9999C15 29.2651 15.1054 29.5195 15.2929 29.707C15.4805 29.8946 15.7348 29.9999 16 29.9999C16.2653 29.9999 16.5196 29.8946 16.7071 29.707C16.8947 29.5195 17 29.2651 17 28.9999V24.0612C18.2423 24.6807 19.6119 25.0021 21 24.9999H21.2325C26.08 24.8749 30.0138 20.8299 30 15.9774C29.9917 14.2614 29.4946 12.5832 28.567 11.1394C27.6395 9.6956 26.3198 8.5459 24.7625 7.82491ZM21.1813 22.9999C19.7371 23.0402 18.3163 22.6295 17.1163 21.8249C17.0771 21.7999 17.0384 21.7762 17 21.7537V16.6174L22.4475 13.8949C22.5651 13.8361 22.6699 13.7548 22.756 13.6555C22.8421 13.5563 22.9078 13.441 22.9493 13.3163C22.9909 13.1917 23.0075 13.0601 22.9982 12.929C22.9888 12.7979 22.9538 12.6699 22.895 12.5524C22.8363 12.4349 22.7549 12.3301 22.6557 12.244C22.5564 12.1579 22.4411 12.0922 22.3165 12.0506C22.1918 12.0091 22.0602 11.9925 21.9291 12.0018C21.798 12.0111 21.6701 12.0461 21.5525 12.1049L17 14.3824V10.9999C17 10.7347 16.8947 10.4803 16.7071 10.2928C16.5196 10.1053 16.2653 9.99992 16 9.99992C15.7348 9.99992 15.4805 10.1053 15.2929 10.2928C15.1054 10.4803 15 10.7347 15 10.9999V17.3824L10.4475 15.1049C10.2102 14.9862 9.93537 14.9667 9.68361 15.0506C9.43184 15.1345 9.22372 15.315 9.10504 15.5524C8.98635 15.7898 8.96682 16.0646 9.05074 16.3163C9.13467 16.5681 9.31517 16.7762 9.55254 16.8949L15 19.6174V21.7499C14.9609 21.7724 14.9221 21.7962 14.8838 21.8212C13.6839 22.6264 12.2633 23.0383 10.8188 22.9999C9.23782 22.9604 7.71681 22.3867 6.50355 21.3723C5.29029 20.3579 4.45627 18.9626 4.13738 17.4136C3.81848 15.8647 4.03349 14.2533 4.74739 12.8422C5.46128 11.431 6.63199 10.3032 8.06879 9.64241C8.5232 9.43421 8.88249 9.06243 9.07504 8.60116C9.64584 7.23699 10.6072 6.07201 11.8382 5.25265C13.0692 4.4333 14.515 3.99614 15.9938 3.99614C17.4726 3.99614 18.9183 4.4333 20.1494 5.25265C21.3804 6.07201 22.3417 7.23699 22.9125 8.60116C23.1051 9.06243 23.4644 9.43421 23.9188 9.64241C25.3556 10.3032 26.5263 11.431 27.2402 12.8422C27.9541 14.2533 28.1691 15.8647 27.8502 17.4136C27.5313 18.9626 26.6973 20.3579 25.484 21.3723C24.2708 22.3867 22.7498 22.9604 21.1688 22.9999H21.1813Z" fill="currentColor"/>
<path d="M72.5525 8.27868C72.4395 8.22583 72.3504 8.13265 72.3025 8.01743C71.6172 6.38118 70.4636 4.98396 68.9866 4.0013C67.5097 3.01864 65.7753 2.49438 64.0013 2.49438C62.2273 2.49438 60.4929 3.01864 59.0159 4.0013C57.539 4.98396 56.3854 6.38118 55.7 8.01743C55.6522 8.13265 55.563 8.22583 55.45 8.27868C53.9788 8.95877 52.7318 10.044 51.8551 11.4073C50.9785 12.7705 50.5084 14.3554 50.5 15.9762C50.4875 20.5587 54.2025 24.3812 58.7813 24.4974C60.4467 24.5414 62.0882 24.0931 63.5 23.2087V28.9999C63.5 29.1325 63.5527 29.2597 63.6465 29.3535C63.7402 29.4472 63.8674 29.4999 64 29.4999C64.1326 29.4999 64.2598 29.4472 64.3536 29.3535C64.4474 29.2597 64.5 29.1325 64.5 28.9999V23.2087C65.8481 24.0551 67.4082 24.5028 69 24.4999H69.22C73.7975 24.3837 77.5125 20.5612 77.5 15.9787C77.4923 14.3577 77.0229 12.7725 76.1466 11.4088C75.2704 10.0451 74.0237 8.95931 72.5525 8.27868ZM69.1938 23.4999C67.6456 23.5435 66.1225 23.1021 64.8375 22.2374C64.7323 22.1676 64.619 22.111 64.5 22.0687V16.3087L70.2238 13.4474C70.2825 13.418 70.335 13.3774 70.378 13.3277C70.421 13.2781 70.4539 13.2205 70.4747 13.1581C70.4955 13.0958 70.5037 13.03 70.4991 12.9645C70.4944 12.8989 70.4769 12.8349 70.4475 12.7762C70.4181 12.7174 70.3775 12.665 70.3278 12.622C70.2782 12.5789 70.2206 12.5461 70.1582 12.5253C70.0959 12.5045 70.0301 12.4962 69.9646 12.5009C69.899 12.5055 69.835 12.523 69.7763 12.5524L64.5 15.1912V10.9999C64.5 10.8673 64.4474 10.7401 64.3536 10.6464C64.2598 10.5526 64.1326 10.4999 64 10.4999C63.8674 10.4999 63.7402 10.5526 63.6465 10.6464C63.5527 10.7401 63.5 10.8673 63.5 10.9999V18.1912L58.2238 15.5524C58.1051 15.4931 57.9677 15.4833 57.8418 15.5253C57.7159 15.5672 57.6119 15.6575 57.5525 15.7762C57.4932 15.8949 57.4834 16.0323 57.5254 16.1581C57.5673 16.284 57.6576 16.3881 57.7763 16.4474L63.5 19.3087V22.0687C63.3811 22.111 63.2677 22.1676 63.1625 22.2374C61.8778 23.1026 60.3545 23.5441 58.8063 23.4999C57.1121 23.4572 55.4823 22.842 54.1825 21.7545C52.8827 20.667 51.9896 19.1714 51.6486 17.5113C51.3076 15.8512 51.5389 14.1246 52.3048 12.6128C53.0707 11.101 54.3261 9.8932 55.8663 9.18617C56.2054 9.02905 56.4731 8.75019 56.6163 8.40492C57.2251 6.94981 58.2506 5.70716 59.5637 4.83318C60.8768 3.9592 62.4189 3.4929 63.9963 3.4929C65.5736 3.4929 67.1158 3.9592 68.4289 4.83318C69.742 5.70716 70.7674 6.94981 71.3763 8.40492C71.5194 8.75019 71.7871 9.02905 72.1263 9.18617C73.666 9.89288 74.9211 11.1001 75.6872 12.6111C76.4532 14.1222 76.6851 15.8481 76.3451 17.5078C76.0051 19.1675 75.1132 20.6631 73.8146 21.7512C72.516 22.8393 70.8874 23.4556 69.1938 23.4999Z" fill="currentColor"/>
<path d="M120.658 8.05132C120.602 8.02627 120.558 7.98182 120.533 7.92632C119.828 6.24423 118.643 4.80779 117.125 3.79754C115.606 2.78729 113.824 2.24829 112 2.24829C110.176 2.24829 108.394 2.78729 106.875 3.79754C105.357 4.80779 104.172 6.24423 103.468 7.92632C103.442 7.98182 103.398 8.02627 103.343 8.05132C101.829 8.75202 100.546 9.86938 99.644 11.2726C98.7421 12.6759 98.2586 14.307 98.25 15.9751C98.2375 20.6926 102.061 24.6251 106.775 24.7501C108.339 24.7935 109.885 24.4135 111.25 23.6501V29.0001C111.25 29.199 111.329 29.3898 111.47 29.5304C111.61 29.6711 111.801 29.7501 112 29.7501C112.199 29.7501 112.39 29.6711 112.53 29.5304C112.671 29.3898 112.75 29.199 112.75 29.0001V23.6476C114.049 24.3727 115.512 24.7523 117 24.7501H117.226C121.939 24.6251 125.763 20.6951 125.75 15.9776C125.742 14.3092 125.258 12.6776 124.356 11.2739C123.454 9.87025 122.172 8.75244 120.658 8.05132ZM117.188 23.2501C115.691 23.292 114.219 22.8664 112.976 22.0326C112.904 21.9857 112.828 21.9439 112.75 21.9076V16.4701L118.335 13.6776C118.513 13.5887 118.648 13.4328 118.712 13.2441C118.775 13.0554 118.76 12.8494 118.671 12.6713C118.582 12.4933 118.427 12.3579 118.238 12.2948C118.049 12.2317 117.843 12.2462 117.665 12.3351L112.75 14.7863V11.0001C112.75 10.8012 112.671 10.6104 112.53 10.4697C112.39 10.3291 112.199 10.2501 112 10.2501C111.801 10.2501 111.61 10.3291 111.47 10.4697C111.329 10.6104 111.25 10.8012 111.25 11.0001V17.7863L106.335 15.3288C106.157 15.24 105.951 15.2255 105.762 15.2885C105.574 15.3516 105.418 15.487 105.329 15.6651C105.24 15.8431 105.225 16.0491 105.289 16.2378C105.352 16.4265 105.487 16.5825 105.665 16.6713L111.25 19.4638V21.9013C111.172 21.9377 111.096 21.9794 111.024 22.0263C109.782 22.8629 108.309 23.2907 106.813 23.2501C105.175 23.2087 103.6 22.614 102.343 21.5628C101.087 20.5117 100.223 19.066 99.8938 17.4613C99.5642 15.8567 99.7876 14.1878 100.528 12.7264C101.268 11.265 102.481 10.0974 103.97 9.41382C104.368 9.23028 104.682 8.90422 104.851 8.50007C105.441 7.09081 106.435 5.88737 107.707 5.04099C108.979 4.19461 110.472 3.74305 112 3.74305C113.528 3.74305 115.022 4.19461 116.293 5.04099C117.565 5.88737 118.559 7.09081 119.149 8.50007C119.318 8.90328 119.633 9.22838 120.03 9.41132C121.52 10.0941 122.735 11.2617 123.476 12.7236C124.217 14.1855 124.441 15.8554 124.111 17.461C123.782 19.0665 122.918 20.5129 121.66 21.5643C120.403 22.6156 118.826 23.2099 117.188 23.2501Z" fill="currentColor"/>
<path d="M169.148 7.45369C168.364 5.68064 167.083 4.17338 165.459 3.11529C163.835 2.05721 161.938 1.4939 160 1.4939C158.062 1.4939 156.165 2.05721 154.541 3.11529C152.917 4.17338 151.636 5.68064 150.853 7.45369C149.255 8.23369 147.907 9.44481 146.961 10.9503C146.015 12.4558 145.509 14.1958 145.5 15.9737C145.486 21.0987 149.638 25.3674 154.75 25.4974C156.032 25.5321 157.308 25.3063 158.5 24.8337V28.9999C158.5 29.3978 158.658 29.7793 158.939 30.0606C159.221 30.3419 159.602 30.4999 160 30.4999C160.398 30.4999 160.779 30.3419 161.061 30.0606C161.342 29.7793 161.5 29.3978 161.5 28.9999V24.8337C162.614 25.2751 163.802 25.5012 165 25.4999H165.25C170.368 25.3749 174.519 21.0974 174.5 15.9762C174.491 14.1978 173.985 12.4574 173.04 10.9514C172.094 9.44539 170.746 8.23388 169.148 7.45369ZM165.169 22.4999C163.87 22.5361 162.592 22.1788 161.5 21.4749V16.9274L166.671 14.3412C166.85 14.2548 167.01 14.1337 167.142 13.9849C167.274 13.836 167.375 13.6625 167.439 13.4743C167.503 13.2862 167.529 13.0871 167.516 12.8887C167.503 12.6904 167.45 12.4967 167.361 12.3189C167.272 12.1411 167.148 11.9828 166.998 11.8531C166.847 11.7235 166.672 11.6251 166.483 11.5636C166.294 11.5022 166.094 11.479 165.896 11.4953C165.698 11.5116 165.505 11.5672 165.329 11.6587L161.5 13.5724V10.9999C161.5 10.6021 161.342 10.2206 161.061 9.93928C160.779 9.65798 160.398 9.49994 160 9.49994C159.602 9.49994 159.221 9.65798 158.939 9.93928C158.658 10.2206 158.5 10.6021 158.5 10.9999V16.5724L154.671 14.6587C154.316 14.4875 153.908 14.4628 153.535 14.5899C153.162 14.7171 152.854 14.986 152.678 15.3383C152.502 15.6907 152.471 16.0984 152.593 16.4732C152.715 16.8479 152.979 17.1597 153.329 17.3412L158.5 19.9274V21.4749C157.409 22.1794 156.13 22.5368 154.831 22.4999C153.363 22.4627 151.951 21.9294 150.825 20.9869C149.698 20.0444 148.924 18.7482 148.629 17.3096C148.333 15.871 148.534 14.3747 149.198 13.0646C149.861 11.7545 150.949 10.7078 152.284 10.0949C152.851 9.83339 153.301 9.36869 153.543 8.79244C154.075 7.51922 154.973 6.4319 156.121 5.66716C157.27 4.90243 158.62 4.49442 160 4.49442C161.38 4.49442 162.73 4.90243 163.879 5.66716C165.028 6.4319 165.925 7.51922 166.458 8.79244C166.7 9.36869 167.149 9.83339 167.716 10.0949C169.051 10.7078 170.139 11.7545 170.802 13.0646C171.466 14.3747 171.667 15.871 171.371 17.3096C171.076 18.7482 170.302 20.0444 169.176 20.9869C168.049 21.9294 166.637 22.4627 165.169 22.4999Z" fill="currentColor"/>
<path d="M208 23.4851C208 23.4851 208 23.4851 207.993 23.4851C207.672 23.6986 207.338 23.8911 206.993 24.0614V29.0001C206.993 29.2653 207.098 29.5197 207.286 29.7072C207.473 29.8948 207.727 30.0001 207.993 30.0001C208.258 30.0001 208.512 29.8948 208.7 29.7072C208.887 29.5197 208.993 29.2653 208.993 29.0001V24.0614C208.647 23.8911 208.313 23.6986 207.993 23.4851H208Z" fill="currentColor"/>
<path d="M216.763 7.82491C216.039 6.09772 214.821 4.62283 213.262 3.58556C211.703 2.54828 209.873 1.99487 208 1.99487C206.127 1.99487 204.297 2.54828 202.738 3.58556C201.179 4.62283 199.961 6.09772 199.238 7.82491C197.681 8.54609 196.362 9.69548 195.434 11.1387C194.507 12.5819 194.009 14.2594 194 15.9749C193.986 20.8274 197.92 24.8749 202.768 24.9999C204.234 25.0382 205.687 24.7158 207 24.0612V19.6174L201.553 16.8949C201.315 16.7762 201.135 16.5681 201.051 16.3163C200.967 16.0646 200.986 15.7898 201.105 15.5524C201.224 15.315 201.432 15.1345 201.684 15.0506C201.935 14.9667 202.21 14.9862 202.448 15.1049L207 17.3824V10.9999C207 10.7347 207.105 10.4803 207.293 10.2928C207.48 10.1053 207.735 9.99992 208 9.99992C208.265 9.99992 208.52 10.1053 208.707 10.2928C208.895 10.4803 209 10.7347 209 10.9999V14.3824L213.553 12.1049C213.67 12.0461 213.798 12.0111 213.929 12.0018C214.06 11.9925 214.192 12.0091 214.316 12.0506C214.441 12.0922 214.556 12.1579 214.656 12.244C214.755 12.3301 214.836 12.4349 214.895 12.5524C214.954 12.6699 214.989 12.7979 214.998 12.929C215.007 13.0601 214.991 13.1917 214.949 13.3163C214.908 13.441 214.842 13.5563 214.756 13.6555C214.67 13.7548 214.565 13.8361 214.448 13.8949L209 16.6174V24.0612C210.242 24.6807 211.612 25.0021 213 24.9999H213.233C218.08 24.8749 222.014 20.8299 222 15.9774C221.992 14.2614 221.495 12.5832 220.567 11.1394C219.639 9.6956 218.32 8.5459 216.763 7.82491Z" fill="currentColor"/>
<path opacity="0.2" d="M269 15.9774C269.004 17.4275 268.613 18.8513 267.871 20.0967C267.128 21.3421 266.061 22.3622 264.783 23.0479C263.505 23.7336 262.065 24.0591 260.617 23.9897C259.168 23.9203 257.766 23.4584 256.56 22.6537C256.394 22.5408 256.198 22.4805 255.997 22.4805C255.797 22.4805 255.601 22.5408 255.435 22.6537C254.517 23.2694 253.481 23.6883 252.393 23.8839C251.305 24.0794 250.189 24.0474 249.114 23.7899C248.039 23.5323 247.029 23.0548 246.148 22.3874C245.267 21.72 244.533 20.8773 243.994 19.9124C243.455 18.9474 243.122 17.8812 243.015 16.781C242.909 15.6808 243.031 14.5705 243.375 13.52C243.719 12.4696 244.277 11.5018 245.014 10.6778C245.751 9.85379 246.651 9.1914 247.656 8.73241C247.882 8.62702 248.06 8.44113 248.156 8.21116C248.803 6.66585 249.893 5.3463 251.288 4.41826C252.683 3.49023 254.321 2.99512 255.996 2.99512C257.671 2.99512 259.309 3.49023 260.704 4.41826C262.099 5.3463 263.189 6.66585 263.836 8.21116C263.932 8.44113 264.11 8.62702 264.336 8.73241C265.724 9.36911 266.9 10.3896 267.727 11.6734C268.553 12.9572 268.995 14.4506 269 15.9774Z" fill="currentColor"/>
<path d="M264.763 7.82491C264.039 6.09772 262.821 4.62283 261.262 3.58556C259.703 2.54828 257.873 1.99487 256 1.99487C254.127 1.99487 252.297 2.54828 250.738 3.58556C249.179 4.62283 247.961 6.09772 247.238 7.82491C245.681 8.54609 244.362 9.69548 243.434 11.1387C242.507 12.5819 242.009 14.2594 242 15.9749C241.986 20.8274 245.92 24.8749 250.768 24.9999C252.234 25.0382 253.687 24.7158 255 24.0612V28.9999C255 29.2651 255.105 29.5195 255.293 29.707C255.48 29.8946 255.735 29.9999 256 29.9999C256.265 29.9999 256.52 29.8946 256.707 29.707C256.895 29.5195 257 29.2651 257 28.9999V24.0612C258.242 24.6807 259.612 25.0021 261 24.9999H261.233C266.08 24.8749 270.014 20.8299 270 15.9774C269.992 14.2614 269.495 12.5832 268.567 11.1394C267.639 9.6956 266.32 8.5459 264.763 7.82491ZM261.181 22.9999C259.737 23.0394 258.317 22.6288 257.116 21.8249C257.077 21.7999 257.038 21.7762 257 21.7537V16.6174L262.448 13.8949C262.565 13.8361 262.67 13.7548 262.756 13.6555C262.842 13.5563 262.908 13.441 262.949 13.3163C262.991 13.1917 263.007 13.0601 262.998 12.929C262.989 12.7979 262.954 12.6699 262.895 12.5524C262.836 12.4349 262.755 12.3301 262.656 12.244C262.556 12.1579 262.441 12.0922 262.316 12.0506C262.192 12.0091 262.06 11.9925 261.929 12.0018C261.798 12.0111 261.67 12.0461 261.553 12.1049L257 14.3824V10.9999C257 10.7347 256.895 10.4803 256.707 10.2928C256.52 10.1053 256.265 9.99992 256 9.99992C255.735 9.99992 255.48 10.1053 255.293 10.2928C255.105 10.4803 255 10.7347 255 10.9999V17.3824L250.448 15.1049C250.21 14.9862 249.935 14.9667 249.684 15.0506C249.432 15.1345 249.224 15.315 249.105 15.5524C248.986 15.7898 248.967 16.0646 249.051 16.3163C249.135 16.5681 249.315 16.7762 249.553 16.8949L255 19.6174V21.7499C254.961 21.7724 254.923 21.7962 254.885 21.8212C253.685 22.6264 252.264 23.0384 250.819 22.9999C249.238 22.9604 247.717 22.3867 246.504 21.3723C245.29 20.3579 244.456 18.9626 244.137 17.4136C243.818 15.8647 244.033 14.2533 244.747 12.8422C245.461 11.431 246.632 10.3032 248.069 9.64241C248.523 9.43421 248.882 9.06243 249.075 8.60116C249.646 7.23699 250.607 6.07201 251.838 5.25265C253.069 4.4333 254.515 3.99614 255.994 3.99614C257.473 3.99614 258.918 4.4333 260.149 5.25265C261.38 6.07201 262.342 7.23699 262.913 8.60116C263.105 9.06243 263.464 9.43421 263.919 9.64241C265.356 10.3032 266.526 11.431 267.24 12.8422C267.954 14.2533 268.169 15.8647 267.85 17.4136C267.531 18.9626 266.697 20.3579 265.484 21.3723C264.271 22.3867 262.75 22.9604 261.169 22.9999H261.181Z" fill="currentColor"/>
</g>
<defs>
<clipPath id="clip0_17_4936">
<rect width="272" height="32" rx="5" fill="white"/>
</clipPath>
</defs>
</svg>
