<svg width="272" height="32" viewBox="0 0 272 32" fill="none" xmlns="http://www.w3.org/2000/svg">
<g clip-path="url(#clip0_17_4894)">
<path d="M30.0001 15.8287C29.7718 13.2111 28.8143 10.7099 27.2363 8.60892C25.6583 6.50799 23.5229 4.89148 21.0726 3.94284C18.6223 2.99421 15.9551 2.75144 13.3737 3.2421C10.7924 3.73275 8.40027 4.93718 6.46887 6.71869C3.89044 9.08744 2.29745 12.3395 2.00637 15.8287C1.98264 16.1048 2.01656 16.3829 2.10599 16.6453C2.19543 16.9076 2.33841 17.1485 2.52588 17.3527C2.71334 17.5568 2.9412 17.7198 3.19499 17.8312C3.44877 17.9426 3.72295 18.0001 4.00012 17.9999H15.0001V24.9999C15.0001 26.0608 15.4215 27.0782 16.1717 27.8284C16.9218 28.5785 17.9393 28.9999 19.0001 28.9999C20.061 28.9999 21.0784 28.5785 21.8285 27.8284C22.5787 27.0782 23.0001 26.0608 23.0001 24.9999C23.0001 24.7347 22.8948 24.4804 22.7072 24.2928C22.5197 24.1053 22.2653 23.9999 22.0001 23.9999C21.7349 23.9999 21.4805 24.1053 21.293 24.2928C21.1055 24.4804 21.0001 24.7347 21.0001 24.9999C21.0001 25.5304 20.7894 26.0391 20.4143 26.4142C20.0393 26.7892 19.5306 26.9999 19.0001 26.9999C18.4697 26.9999 17.961 26.7892 17.5859 26.4142C17.2108 26.0391 17.0001 25.5304 17.0001 24.9999V17.9999H28.0001C28.2778 18.001 28.5527 17.9441 28.8072 17.8331C29.0617 17.722 29.2904 17.5592 29.4785 17.355C29.6666 17.1507 29.8102 16.9095 29.9 16.6467C29.9898 16.384 30.0239 16.1054 30.0001 15.8287ZM4.00012 15.9999C4.19721 13.7564 5.01893 11.6129 6.37211 9.81254C7.7253 8.01217 9.55582 6.62693 11.6561 5.81387C13.7565 5.00081 16.0426 4.79245 18.2553 5.21241C20.468 5.63238 22.5188 6.66387 24.1751 8.18994C26.3886 10.2184 27.7546 13.0077 28.0001 15.9999H4.00012Z" fill="currentColor"/>
<path d="M77.4998 15.8751C77.2799 13.3506 76.3568 10.9384 74.8352 8.91213C73.3136 6.88584 71.2544 5.32665 68.8915 4.41148C66.5285 3.49631 63.9564 3.26182 61.4669 3.73462C58.9774 4.20742 56.6703 5.36858 54.8073 7.08631C52.318 9.37044 50.7801 12.5082 50.4998 15.8751C50.4825 16.0823 50.5085 16.2909 50.576 16.4875C50.6436 16.6842 50.7514 16.8647 50.8924 17.0175C51.0335 17.1703 51.2048 17.2921 51.3954 17.3752C51.5861 17.4583 51.7919 17.5008 51.9998 17.5001H63.4998V25.0001C63.4998 25.9283 63.8686 26.8186 64.525 27.4749C65.1814 28.1313 66.0716 28.5001 66.9998 28.5001C67.9281 28.5001 68.8183 28.1313 69.4747 27.4749C70.1311 26.8186 70.4998 25.9283 70.4998 25.0001C70.4998 24.8675 70.4472 24.7403 70.3534 24.6465C70.2596 24.5527 70.1325 24.5001 69.9998 24.5001C69.8672 24.5001 69.7401 24.5527 69.6463 24.6465C69.5525 24.7403 69.4998 24.8675 69.4998 25.0001C69.4998 25.6631 69.2365 26.299 68.7676 26.7678C68.2988 27.2367 67.6629 27.5001 66.9998 27.5001C66.3368 27.5001 65.7009 27.2367 65.2321 26.7678C64.7632 26.299 64.4998 25.6631 64.4998 25.0001V17.5001H75.9998C76.2078 17.5008 76.4136 17.4583 76.6043 17.3752C76.7949 17.2921 76.9662 17.1703 77.1073 17.0175C77.2483 16.8647 77.3561 16.6842 77.4236 16.4875C77.4912 16.2909 77.5172 16.0823 77.4998 15.8751ZM76.3748 16.3426C76.3273 16.3945 76.2693 16.4359 76.2047 16.4639C76.1401 16.4919 76.0703 16.5059 75.9998 16.5051H51.9998C51.93 16.5054 51.8608 16.4911 51.7969 16.463C51.7329 16.435 51.6755 16.3938 51.6284 16.3422C51.5813 16.2907 51.5455 16.2298 51.5234 16.1635C51.5012 16.0973 51.4932 16.0271 51.4998 15.9576C51.7065 13.6216 52.5634 11.3902 53.9733 9.51624C55.3833 7.64231 57.2899 6.20078 59.4772 5.35501C61.6645 4.50924 64.045 4.29305 66.3489 4.73094C68.6527 5.16883 70.7879 6.24329 72.5123 7.83256C74.8135 9.94464 76.236 12.845 76.4973 15.9576C76.503 16.0265 76.4942 16.0959 76.4716 16.1613C76.449 16.2267 76.4131 16.2868 76.3661 16.3376L76.3748 16.3426Z" fill="currentColor"/>
<path d="M125.75 15.8487C125.526 13.2779 124.585 10.8213 123.035 8.75797C121.485 6.6946 119.388 5.10703 116.981 4.17544C114.575 3.24385 111.955 3.00554 109.42 3.48758C106.885 3.96961 104.535 5.15267 102.639 6.9025C100.106 9.22831 98.5414 12.4221 98.2561 15.8487C98.2351 16.0904 98.2646 16.3338 98.3427 16.5635C98.4208 16.7932 98.5458 17.0041 98.7098 17.1829C98.8738 17.3616 99.0731 17.5044 99.2952 17.602C99.5173 17.6996 99.7572 17.75 99.9998 17.75H111.25V25C111.25 25.9946 111.645 26.9484 112.348 27.6516C113.051 28.3549 114.005 28.75 115 28.75C115.994 28.75 116.948 28.3549 117.651 27.6516C118.355 26.9484 118.75 25.9946 118.75 25C118.75 24.8011 118.671 24.6103 118.53 24.4697C118.389 24.329 118.199 24.25 118 24.25C117.801 24.25 117.61 24.329 117.469 24.4697C117.329 24.6103 117.25 24.8011 117.25 25C117.25 25.5967 117.013 26.169 116.591 26.591C116.169 27.0129 115.597 27.25 115 27.25C114.403 27.25 113.831 27.0129 113.409 26.591C112.987 26.169 112.75 25.5967 112.75 25V17.75H124C124.243 17.7509 124.484 17.7012 124.706 17.6039C124.929 17.5067 125.129 17.364 125.294 17.1852C125.459 17.0063 125.584 16.7951 125.663 16.565C125.741 16.3349 125.771 16.091 125.75 15.8487ZM124.189 16.1687C124.165 16.1949 124.135 16.2157 124.103 16.2297C124.07 16.2437 124.035 16.2506 124 16.25H99.9998C99.9648 16.2502 99.9301 16.2431 99.8981 16.2291C99.866 16.2152 99.8372 16.1946 99.8136 16.1687C99.7893 16.1428 99.7708 16.112 99.7594 16.0784C99.748 16.0448 99.7439 16.0091 99.7473 15.9737C99.9487 13.6832 100.788 11.495 102.17 9.65717C103.551 7.81934 105.421 6.40549 107.565 5.57596C109.709 4.74644 112.044 4.53443 114.302 4.96399C116.561 5.39354 118.654 6.44747 120.345 8.00625C122.601 10.0771 123.996 12.9216 124.25 15.9737C124.253 16.0092 124.249 16.0449 124.237 16.0785C124.225 16.1122 124.207 16.1429 124.182 16.1687H124.189Z" fill="currentColor"/>
<path d="M174.491 15.7876C174.255 13.0768 173.264 10.4865 171.63 8.31059C169.996 6.13471 167.785 4.46042 165.248 3.47778C162.711 2.49513 159.948 2.2435 157.275 2.75143C154.602 3.25936 152.125 4.50651 150.125 6.35132C147.452 8.80369 145.801 12.1727 145.5 15.7876C145.47 16.1333 145.513 16.4814 145.625 16.8097C145.738 17.1379 145.917 17.4392 146.152 17.6944C146.388 17.9495 146.673 18.1529 146.991 18.2916C147.309 18.4303 147.653 18.5013 148 18.5001H158.5V25.0001C158.5 26.1935 158.974 27.3381 159.818 28.1821C160.662 29.026 161.806 29.5001 163 29.5001C164.193 29.5001 165.338 29.026 166.182 28.1821C167.026 27.3381 167.5 26.1935 167.5 25.0001C167.5 24.6022 167.342 24.2207 167.06 23.9394C166.779 23.6581 166.398 23.5001 166 23.5001C165.602 23.5001 165.22 23.6581 164.939 23.9394C164.658 24.2207 164.5 24.6022 164.5 25.0001C164.5 25.3979 164.342 25.7794 164.06 26.0607C163.779 26.342 163.398 26.5001 163 26.5001C162.602 26.5001 162.22 26.342 161.939 26.0607C161.658 25.7794 161.5 25.3979 161.5 25.0001V18.5001H172C172.347 18.5013 172.69 18.4303 173.008 18.2916C173.326 18.1529 173.612 17.9495 173.847 17.6944C174.082 17.4392 174.262 17.1379 174.374 16.8097C174.486 16.4814 174.529 16.1333 174.5 15.7876H174.491ZM148.555 15.5001C148.839 13.4067 149.692 11.4314 151.021 9.78882C152.35 8.14628 154.103 6.89939 156.091 6.18368C158.078 5.46798 160.224 5.31085 162.295 5.72938C164.366 6.14791 166.282 7.12609 167.836 8.55757C169.817 10.3759 171.095 12.8338 171.445 15.5001H148.555Z" fill="currentColor"/>
<path d="M221.47 17.3537C221.283 17.5572 221.056 17.7196 220.803 17.8309C220.55 17.9421 220.276 17.9997 220 18H209V25C209 25.5304 209.211 26.0391 209.586 26.4142C209.961 26.7893 210.47 27 211 27C211.53 27 212.039 26.7893 212.414 26.4142C212.789 26.0391 213 25.5304 213 25C213 24.7348 213.105 24.4804 213.293 24.2929C213.48 24.1053 213.735 24 214 24C214.265 24 214.52 24.1053 214.707 24.2929C214.895 24.4804 215 24.7348 215 25C215 26.0608 214.579 27.0783 213.828 27.8284C213.078 28.5785 212.061 29 211 29C209.939 29 208.922 28.5785 208.172 27.8284C207.421 27.0783 207 26.0608 207 25V18H196C195.722 18.001 195.447 17.9442 195.193 17.8331C194.938 17.7221 194.71 17.5593 194.522 17.355C194.333 17.1507 194.19 16.9096 194.1 16.6468C194.01 16.384 193.976 16.1054 194 15.8287C194.229 13.2123 195.187 10.7125 196.765 8.61266C198.342 6.51286 200.477 4.89712 202.926 3.94867C205.375 3.00022 208.041 2.75701 210.621 3.24662C213.202 3.73623 215.593 4.93906 217.525 6.71873C220.108 9.08546 221.706 12.3377 222 15.8287C222.022 16.1057 221.986 16.3842 221.895 16.6467C221.803 16.9092 221.659 17.1499 221.47 17.3537Z" fill="currentColor"/>
<path opacity="0.2" d="M268 17H244C243.861 17.0005 243.723 16.9721 243.596 16.9163C243.468 16.8606 243.354 16.7789 243.26 16.6765C243.165 16.574 243.094 16.453 243.049 16.3212C243.004 16.1895 242.988 16.0498 243 15.9112C243.285 12.6612 244.778 9.63604 247.184 7.43228C249.59 5.22851 252.734 4.0061 255.996 4.0061C259.259 4.0061 262.403 5.22851 264.809 7.43228C267.214 9.63604 268.707 12.6612 268.993 15.9112C269.005 16.0492 268.988 16.1882 268.944 16.3195C268.9 16.4507 268.829 16.5713 268.736 16.6737C268.642 16.776 268.529 16.8579 268.402 16.9141C268.275 16.9702 268.139 16.9995 268 17Z" fill="currentColor"/>
<path d="M270 15.8287C269.772 13.2111 268.814 10.7099 267.236 8.60892C265.658 6.50799 263.523 4.89148 261.073 3.94284C258.622 2.99421 255.955 2.75144 253.374 3.2421C250.792 3.73275 248.4 4.93718 246.469 6.71869C243.89 9.08744 242.297 12.3395 242.006 15.8287C241.983 16.1048 242.017 16.3829 242.106 16.6453C242.195 16.9076 242.338 17.1485 242.526 17.3527C242.713 17.5568 242.941 17.7198 243.195 17.8312C243.449 17.9426 243.723 18.0001 244 17.9999H255V24.9999C255 26.0608 255.422 27.0782 256.172 27.8284C256.922 28.5785 257.939 28.9999 259 28.9999C260.061 28.9999 261.078 28.5785 261.829 27.8284C262.579 27.0782 263 26.0608 263 24.9999C263 24.7347 262.895 24.4804 262.707 24.2928C262.52 24.1053 262.265 23.9999 262 23.9999C261.735 23.9999 261.481 24.1053 261.293 24.2928C261.105 24.4804 261 24.7347 261 24.9999C261 25.5304 260.789 26.0391 260.414 26.4142C260.039 26.7892 259.531 26.9999 259 26.9999C258.47 26.9999 257.961 26.7892 257.586 26.4142C257.211 26.0391 257 25.5304 257 24.9999V17.9999H268C268.278 18.001 268.553 17.9441 268.807 17.8331C269.062 17.722 269.29 17.5592 269.478 17.355C269.667 17.1507 269.81 16.9095 269.9 16.6467C269.99 16.384 270.024 16.1054 270 15.8287ZM244 15.9999C244.197 13.7564 245.019 11.6129 246.372 9.81254C247.725 8.01217 249.556 6.62693 251.656 5.81387C253.756 5.00081 256.043 4.79245 258.255 5.21241C260.468 5.63238 262.519 6.66387 264.175 8.18994C266.389 10.2184 267.755 13.0077 268 15.9999H244Z" fill="currentColor"/>
</g>
<defs>
<clipPath id="clip0_17_4894">
<rect width="272" height="32" rx="5" fill="white"/>
</clipPath>
</defs>
</svg>
